<svg width="3000px" height="3000px" viewBox="0 0 3000 3000" version="1.1" xmlns="http://www.w3.org/2000/svg" xmlns:xlink="http://www.w3.org/1999/xlink">
    <title>女</title>
    <defs>
        <linearGradient x1="100%" y1="78.7986288%" x2="0%" y2="21.2013712%" id="linearGradient-1">
            <stop stop-color="#FF0050" offset="0%"></stop>
            <stop stop-color="#7000FF" offset="71.4447846%"></stop>
            <stop stop-color="#0027FF" offset="100%"></stop>
        </linearGradient>
    </defs>
    <g id="女" stroke="none" stroke-width="1" fill="none" fill-rule="evenodd">
        <g id="编组" transform="translate(1500.000000, 2008.500000) rotate(24.000000) translate(-1500.000000, -2008.500000) translate(1444.000000, 1966.000000)" fill-rule="nonzero">
            <path d="M92.641728,10.9442302 C95.6123909,10.9442302 98.3061923,12.1569991 100.25446,14.1311137 C101.750284,15.6467815 102.805057,17.6128697 103.194943,19.8131654 L103.20448,19.8707585 L103.385568,19.9050742 C105.428392,20.3134227 107.264682,21.3053524 108.714152,22.7072126 L108.893308,22.8845676 C110.807963,24.8246225 112,27.5026459 112,30.4652071 C112,33.4277683 110.807963,36.1057918 108.893308,38.0458466 C107.93441,39.0174665 106.794912,39.8046571 105.530693,40.3535968 L105.257901,40.4675605 L101.423816,46.3832986 C101.066216,46.9156877 100.678483,47.4138802 100.264241,47.8768208 L100.18176,47.965976 L100.252158,48.0426922 C100.590912,48.4203016 100.909432,48.8200951 101.205432,49.2409112 L101.351545,49.4530658 L105.347791,55.5260111 C106.727685,56.0954172 107.956236,56.9400148 108.97083,57.9870297 C110.848309,59.9245027 112,62.5640295 112,65.479023 C112,68.4415842 110.807963,71.1196077 108.893308,73.0596625 C107.417348,74.5552038 105.51351,75.6137929 103.385568,76.039156 L103.20448,76.072697 L103.194943,76.1310647 C102.820653,78.2433487 101.833602,80.1397869 100.431828,81.6290882 L100.25446,81.8131165 C98.3061923,83.787231 95.6123909,85 92.641728,85 C89.6710652,85 86.9772637,83.787231 85.0289956,81.8131165 C83.1143412,79.8730616 81.922304,77.1950382 81.922304,74.232477 C81.922304,73.9371618 81.934188,73.644672 81.957477,73.3554566 L81.9845498,73.0673493 L79.757523,69.6824944 L70.8942376,69.6821248 C66.5622012,72.4547303 61.4290586,74.0581825 55.9266241,74.0581825 C50.5616383,74.0581825 45.5477251,72.5338369 41.2851411,69.8877051 L40.9587387,69.6819507 L32.2466043,69.681559 L30.0156559,73.0692658 C30.0566393,73.4512906 30.077696,73.8393808 30.077696,74.232477 C30.077696,77.1950382 28.8856588,79.8730616 26.9710044,81.8131165 C25.0227363,83.787231 22.3289348,85 19.358272,85 C16.3876091,85 13.6938077,83.787231 11.7455395,81.8131165 C10.2497158,80.2974486 9.19494262,78.3313605 8.80505684,76.1310647 L8.79488,76.072697 L8.61443217,76.039156 C6.57160788,75.6308074 4.73531786,74.6388778 3.28584761,73.2370175 L3.10669156,73.0596625 C1.1920372,71.1196077 0,68.4415842 0,65.479023 C0,62.5164618 1.1920372,59.8384383 3.10669156,57.8983835 C4.06559032,56.9267637 5.20508798,56.1395731 6.46930654,55.5906334 L6.74209914,55.4766697 L10.5761841,49.5609316 C10.933785,49.0285413 11.3215188,48.5303478 11.735762,48.0674063 L11.8176,47.9774795 L11.7479414,47.9016492 C11.4091882,47.5240493 11.0906682,47.1242659 10.7946672,46.7034602 L10.6485539,46.4913108 L6.65169394,40.4180604 C5.27189851,39.848638 4.04336455,39.0039949 3.02876756,37.9568512 C1.15160878,36.0194762 0,33.3800649 0,30.4652071 C0,27.5026459 1.1920372,24.8246225 3.10669156,22.8845676 C4.58265226,21.3890263 6.4864902,20.3304372 8.61443217,19.9050742 L8.79488,19.8707585 L8.80505684,19.8131654 C9.17934718,17.7008815 10.1663978,15.8044433 11.5681721,14.315142 L11.7455395,14.1311137 C13.6938077,12.1569991 16.3876091,10.9442302 19.358272,10.9442302 C22.3289348,10.9442302 25.0227363,12.1569991 26.9710044,14.1311137 C28.8856588,16.0711685 30.077696,18.749192 30.077696,21.7117532 C30.077696,22.0302876 30.0638735,22.3455349 30.0368279,22.6569315 L30.0053968,22.9670237 L32.1732554,26.261812 L35.6731515,26.2620708 C40.7765524,20.8616727 47.968014,17.5093206 55.9266241,17.5093206 C63.7590915,17.5093206 70.8485359,20.7562463 75.9358639,26.006833 L76.1804571,26.2624522 L79.8226919,26.2626498 L81.994379,22.9650882 C81.9468004,22.5540218 81.922304,22.1358001 81.922304,21.7117532 C81.922304,18.749192 83.1143412,16.0711685 85.0289956,14.1311137 C86.9772637,12.1569991 89.6710652,10.9442302 92.641728,10.9442302 Z M64.6446081,1.15510901 C71.4405922,-1.37610451 77.7464227,0.478880254 81.7355882,4.52096741 C84.4345509,7.25573545 86.0834561,11.0044636 86.0834561,15.1466627 C86.0834561,19.3178237 84.4079509,23.0900289 81.7116345,25.8221155 C78.9817044,28.5882619 75.208047,30.2909127 71.0446081,30.2909127 C66.8811692,30.2909127 63.1075118,28.5882619 60.3775817,25.8221155 C57.6812653,23.0900289 56.0057601,19.3178237 56.0057601,15.1466627 C56.0057601,9.1495685 59.4698007,3.9769926 64.4499046,1.53502824 L64.64448,1.44098088 L64.6446081,1.15510901 Z M30.1416137,4.47120987 C34.2249512,0.333701435 40.6434372,-1.42443068 47.2086402,1.33574884 L47.2086402,1.33574884 L47.20832,1.4403418 L47.3569895,1.51185446 C52.2969703,3.91570844 55.7530787,8.99129145 55.8455849,14.9032398 L55.8474881,15.1466627 C55.8474881,19.3178237 54.1719829,23.0900289 51.4756666,25.8221155 C48.7457365,28.5882619 44.972079,30.2909127 40.8086402,30.2909127 C36.6452013,30.2909127 32.8715439,28.5882619 30.1416137,25.8221155 C27.4452974,23.0900289 25.7697922,19.3178237 25.7697922,15.1466627 C25.7697922,10.9755017 27.4452974,7.2032965 30.1416137,4.47120987 Z" id="形状结合" fill="url(#linearGradient-1)" opacity="0.600000024"></path>
            <path d="M92.641728,17.3350262 C95.02728,17.3350262 96.961152,19.2945536 96.961152,21.7117532 C96.961152,24.1289527 95.02728,26.0884802 92.641728,26.0884802 L92.791,26.0842087 L87.5141037,34.1068641 L87.4562638,34.1932827 C86.2481877,35.9678136 84.2550704,37.0302976 82.1231367,37.0302976 L82.1231367,37.0302976 L75.7267532,37.030479 C76.3258398,38.4198668 76.7866645,39.8844707 77.0916053,41.406435 L90.6927652,41.4070246 L90.7624898,41.4058871 C91.4580921,41.3831795 92.1021226,41.0217078 92.4897542,40.4325468 L92.4897542,40.4325468 L97.5713456,32.7092508 C97.183858,32.0530705 96.961152,31.2854918 96.961152,30.4652071 C96.961152,28.0480076 98.895024,26.0884802 101.280576,26.0884802 C103.666128,26.0884802 105.6,28.0480076 105.6,30.4652071 C105.6,32.8824067 103.666128,34.8419341 101.280576,34.8419341 L101.36,34.8392087 L96.0837322,42.8603181 L96.0258923,42.9467368 C94.8178163,44.7212676 92.824699,45.7837516 90.6927652,45.7837516 L90.6927652,45.7837516 L77.5237441,45.7837516 L77.5237441,45.7837516 C77.5237441,47.2828394 77.3749838,48.7467214 77.0916053,50.1610682 L90.6927652,50.1604786 C92.824699,50.1604786 94.8178163,51.2229625 96.0258923,52.9974934 L96.0837322,53.083912 L101.361,61.1042087 L101.489856,61.1073431 C103.778212,61.2179583 105.6,63.1329175 105.6,65.479023 C105.6,67.8962226 103.666128,69.85575 101.280576,69.85575 C98.895024,69.85575 96.961152,67.8962226 96.961152,65.479023 C96.961152,64.6587384 97.183858,63.8911596 97.5713456,63.2349794 L92.4897542,55.5116834 C92.1021226,54.9225223 91.4580921,54.5610506 90.7624898,54.5383431 L90.6927652,54.5372056 L75.7267532,54.5370242 C75.0529395,56.0997173 74.2042205,57.56726 73.205669,58.9142466 L82.0539173,58.9139325 C84.185851,58.9139325 86.1789683,59.9764165 87.3870444,61.7509473 L87.4448843,61.837366 L92.721,69.8572087 L92.851008,69.8607971 C95.1393643,69.9714122 96.961152,71.8863715 96.961152,74.232477 C96.961152,76.6496765 95.02728,78.609204 92.641728,78.609204 C90.256176,78.609204 88.322304,76.6496765 88.322304,74.232477 C88.322304,73.4126081 88.5447843,72.6453917 88.9319086,71.9894312 L83.8509063,64.2651373 C83.4632746,63.6759763 82.8192441,63.3145046 82.1236418,63.291797 L82.0539173,63.2906595 L68.8864884,63.2910502 C65.2766435,66.0390068 60.7893083,67.6673865 55.9266241,67.6673865 C51.0640441,67.6673865 46.5767969,66.0390765 42.9669917,63.2912267 L29.9460825,63.2906595 L29.8763579,63.291797 C29.1807557,63.3145046 28.5367251,63.6759763 28.1490935,64.2651373 L28.1490935,64.2651373 L23.0680914,71.9894312 C23.4552157,72.6453917 23.677696,73.4126081 23.677696,74.232477 C23.677696,76.6496765 21.743824,78.609204 19.358272,78.609204 C16.97272,78.609204 15.038848,76.6496765 15.038848,74.232477 C15.038848,71.8152774 16.97272,69.85575 19.358272,69.85575 L19.278,69.8572087 L24.5551155,61.837366 L24.6129554,61.7509473 C25.8210315,59.9764165 27.8141487,58.9139325 29.9460825,58.9139325 L29.9460825,58.9139325 L38.6475793,58.9142466 C37.6490278,57.56726 36.8003087,56.0997173 36.126495,54.5370242 L21.3072346,54.5372056 L21.23751,54.5383431 C20.5419077,54.5610506 19.8978772,54.9225223 19.5102456,55.5116834 L19.5102456,55.5116834 L14.4286544,63.2349794 C14.816142,63.8911596 15.038848,64.6587384 15.038848,65.479023 C15.038848,67.8962226 13.104976,69.85575 10.719424,69.85575 C8.33387199,69.85575 6.4,67.8962226 6.4,65.479023 C6.4,63.0618234 8.33387199,61.102296 10.719424,61.102296 L10.638,61.1042087 L15.9162676,53.083912 L15.9741075,52.9974934 C17.1821836,51.2229625 19.1753008,50.1604786 21.3072346,50.1604786 L21.3072346,50.1604786 L34.761643,50.1610682 C34.4782644,48.7467214 34.3295042,47.2828394 34.3295042,45.7837516 L21.3072346,45.7837516 C19.1753008,45.7837516 17.1821836,44.7212676 15.9741075,42.9467368 L15.9162676,42.8603181 L10.639,34.8392087 L10.510144,34.8368871 C8.22178772,34.7262719 6.4,32.8113126 6.4,30.4652071 C6.4,28.0480076 8.33387199,26.0884802 10.719424,26.0884802 C13.104976,26.0884802 15.038848,28.0480076 15.038848,30.4652071 C15.038848,31.2854918 14.816142,32.0530705 14.4286544,32.7092508 L19.5102456,40.4325468 C19.8978772,41.0217078 20.5419077,41.3831795 21.23751,41.4058871 L21.3072346,41.4070246 L34.761643,41.406435 C35.0665837,39.8844707 35.5274084,38.4198668 36.126495,37.030479 L29.8768631,37.0302976 C27.7449293,37.0302976 25.7518121,35.9678137 24.543736,34.1932828 L24.4858961,34.1068641 L19.208,26.0842087 L19.148992,26.0834331 C16.8606357,25.9728179 15.038848,24.0578586 15.038848,21.7117532 C15.038848,19.2945536 16.97272,17.3350262 19.358272,17.3350262 C21.743824,17.3350262 23.677696,19.2945536 23.677696,21.7117532 C23.677696,22.5548456 23.4424332,23.3422605 23.0347994,24.010272 L28.0798741,31.6790928 C28.4675057,32.2682539 29.1115363,32.6297256 29.8071385,32.6524331 L29.8768631,32.6535706 L38.6475793,32.6532565 C42.5877995,27.3381335 48.8609725,23.9001167 55.9266241,23.9001167 C62.9922757,23.9001167 69.2654488,27.3381335 73.205669,32.6532565 L82.1231367,32.6535706 L82.1928612,32.6524332 C82.8884635,32.6297255 83.5324941,32.2682539 83.9201257,31.6790928 L83.9201257,31.6790928 L88.9652006,24.010272 C88.5575668,23.3422605 88.322304,22.5548456 88.322304,21.7117532 C88.322304,19.2945536 90.256176,17.3350262 92.641728,17.3350262 Z M55.9266241,28.2768437 C46.3844161,28.2768437 38.6489282,36.1149533 38.6489282,45.7837516 C38.6489282,55.4525499 46.3844161,63.2906595 55.9266241,63.2906595 C65.4688321,63.2906595 73.2043201,55.4525499 73.2043201,45.7837516 C73.2043201,36.1149533 65.4688321,28.2768437 55.9266241,28.2768437 Z M55.9266241,32.6535706 C63.0832801,32.6535706 68.8848961,38.5321529 68.8848961,45.7837516 C68.8848961,53.0353503 63.0832801,58.9139325 55.9266241,58.9139325 C48.7699681,58.9139325 42.9683522,53.0353503 42.9683522,45.7837516 C42.9683522,38.5321529 48.7699681,32.6535706 55.9266241,32.6535706 Z M71.0446081,6.39320873 L71.3039364,6.39707734 C75.9550787,6.53602241 79.6834561,10.4001617 79.6834561,15.1466627 C79.6834561,19.9810618 75.8157121,23.9001167 71.0446081,23.9001167 C66.2735041,23.9001167 62.4057601,19.9810618 62.4057601,15.1466627 C62.4057601,12.7294631 63.3726962,10.5410996 64.9360201,8.95703605 L64.9360201,8.95703605 L71.0446081,15.1466627 L71.0446081,6.39320873 Z M40.8086402,6.39320873 L40.8086402,15.1466627 L45.6011819,7.86262103 C47.9201908,9.43228704 49.4474881,12.1087489 49.4474881,15.1466627 C49.4474881,19.9810618 45.5797442,23.9001167 40.8086402,23.9001167 C36.0375362,23.9001167 32.1697922,19.9810618 32.1697922,15.1466627 C32.1697922,10.3122636 36.0375362,6.39320873 40.8086402,6.39320873 Z" id="形状结合" fill="#FFFFFF"></path>
        </g>
    </g>
</svg>