<svg xmlns="http://www.w3.org/2000/svg" id="beard" viewBox="0 0 3000 3000"><path id="cl1" fill="#333" d="M1631.8 1255.2c-1.4-6.9 1.3-12.9 1.9-19.1.3-3.3 2.7-3.8 5.6-4.3 11.2-1.9 22.5-1.9 33.7-2.6 5.6-.4 11.1 0 16.7-1.6 7.2-2.1 10.5 1.3 10.1 8.7-.1 2-.3 4-.5 6-.8 9.5-1.5 10.8-10.7 12.2-7.8 1.2-11 4.8-11 12.6 0 5.3-.6 10.7-.1 16 .8 9.5 6 13.7 15.3 12.9 3.3-.3 6.6-1.1 9.7-2.1 16.4-5.4 32.6-11.2 45.9-22.9 16.3-14.3 29.1-31.6 34.9-52.3 7.4-26.6.7-50.4-20.4-69.4-14.7-13.2-32-21-50.9-25.5-5.5-1.3-9.3-3.3-9-10 15.8-1.8 31.1.8 46 5.5 8.5 2.7 16.4 7 24.6 10.5 23.5 10.2 38.4 28.5 48.6 51.4 8.5 19.2 6.9 39.2 4.6 58.9-2.9 24.8-14.4 46.4-27.5 67.4-12.5 20-28.4 36.4-46.7 50.9-9.1 7.2-19.6 12.3-29.8 17.8-24.5 13.3-51.1 20.5-78.5 22.9-25.7 2.3-51.8 3.2-77.4-1.4-35.6-6.5-70.3-16.4-100.6-37.3-18.6-12.9-35.2-28-46.8-47.8-5.7-9.8-9.4-20.6-11.2-31.7-5.5-33.3 1.2-64.6 18.9-93.2 13.4-21.6 33.1-36.9 55-49.1 17.2-9.5 36.2-14.2 54.7-20.4 6.6-2.2 13.6-2.9 20.5-4.1 16.3-2.8 32.8-4.3 49.3-5.1 12.6-.7 25.2-1.3 37.7.4 2.2.3 5.1-.2 5.9 2.6.8 2.6-1.9 4-3 6-1.9 3.2-4.7 4.2-8.4 4.2-23.7-.1-46.7 5.2-69.5 10.6-25.8 6.1-50.8 15.4-72.6 31.2-12.8 9.3-19.9 22.4-23.6 37.8-6.6 27.9 5.3 48.7 24.4 67 11.6 11 26.2 16.6 40.4 22.8 22.6 10 46.3 13.3 70.9 12.6 7.1-.2 13.8-2 20.6-3.3 3.3-.6 6.5-2.6 8.2-5.3 5.9-9.6 11.6-19.4 13.3-30.8 1-6.5-.6-7.8-7.1-9.2-3.7-1-7.5 1.2-12.1-.4z"/><path fill="none" stroke="#000" stroke-miterlimit="10" stroke-width="6" d="M1631.8 1255.2c-1.4-6.9 1.3-12.9 1.9-19.1.3-3.3 2.7-3.8 5.6-4.3 11.2-1.9 22.5-1.9 33.7-2.6 5.6-.4 11.1 0 16.7-1.6 7.2-2.1 10.5 1.3 10.1 8.7-.1 2-.3 4-.5 6-.8 9.5-1.5 10.8-10.7 12.2-7.8 1.2-11 4.8-11 12.6 0 5.3-.6 10.7-.1 16 .8 9.5 6 13.7 15.3 12.9 3.3-.3 6.6-1.1 9.7-2.1 16.4-5.4 32.6-11.2 45.9-22.9 16.3-14.3 29.1-31.6 34.9-52.3 7.4-26.6.7-50.4-20.4-69.4-14.7-13.2-32-21-50.9-25.5-5.5-1.3-9.3-3.3-9-10 15.8-1.8 31.1.8 46 5.5 8.5 2.7 16.4 7 24.6 10.5 23.5 10.2 38.4 28.5 48.6 51.4 8.5 19.2 6.9 39.2 4.6 58.9-2.9 24.8-14.4 46.4-27.5 67.4-12.5 20-28.4 36.4-46.7 50.9-9.1 7.2-19.6 12.3-29.8 17.8-24.5 13.3-51.1 20.5-78.5 22.9-25.7 2.3-51.8 3.2-77.4-1.4-35.6-6.5-70.3-16.4-100.6-37.3-18.6-12.9-35.2-28-46.8-47.8-5.7-9.8-9.4-20.6-11.2-31.7-5.5-33.3 1.2-64.6 18.9-93.2 13.4-21.6 33.1-36.9 55-49.1 17.2-9.5 36.2-14.2 54.7-20.4 6.6-2.2 13.6-2.9 20.5-4.1 16.3-2.8 32.8-4.3 49.3-5.1 12.6-.7 25.2-1.3 37.7.4 2.2.3 5.1-.2 5.9 2.6.8 2.6-1.9 4-3 6-1.9 3.2-4.7 4.2-8.4 4.2-23.7-.1-46.7 5.2-69.5 10.6-25.8 6.1-50.8 15.4-72.6 31.2-12.8 9.3-19.9 22.4-23.6 37.8-6.6 27.9 5.3 48.7 24.4 67 11.6 11 26.2 16.6 40.4 22.8 22.6 10 46.3 13.3 70.9 12.6 7.1-.2 13.8-2 20.6-3.3 3.3-.6 6.5-2.6 8.2-5.3 5.9-9.6 11.6-19.4 13.3-30.8 1-6.5-.6-7.8-7.1-9.2-3.7-1-7.5 1.2-12.1-.4z"/></svg>