<svg xmlns="http://www.w3.org/2000/svg" id="beard" viewBox="0 0 3000 3000"><path id="cl1" fill="#232323" d="M1639 1255.9h-13.6c-2.3 0-4.7.3-6.9-.8-3.5-1.8-3.7-5.5-.3-7.7 3.6-2.4 7.5-4.2 12-4.3 17.3-.2 34.4-2.8 51.8-2.1 4.3.2 8.6-.9 12.9-1.1 6.6-.2 13 .3 18.9 5.4-5.7 4.6-11.7 6-18 6.5-4.4.3-6.6 1.8-6.6 6.6.1 4.6-1.1 9.2-1.2 13.8-.4 20 12.4 25.2 26.6 24.6 29.4-1.2 50.7-17.7 68.7-39.2 5.7-6.8 8.2-15 8.3-24 .4-22-6-40.6-23.9-55-17.8-14.2-37.6-23.6-59.7-28.4-2.6-.6-5.3-.9-7.7-2-5.7-2.7-10-6.4-9.1-13.8.6-4.6 0-9.4.6-13.9.6-4.1 2.5-6.7 7.8-7.1 7.5-.6 14.5 0 21.6 2 32.1 8.7 61.6 22.7 87.2 44.3 7.4 6.2 19.3 5.4 28.4-2.2 7.7-6.4 11.9-15 14.9-24.3 5.7-17.4 8-35.4 10.2-53.5.2-1.4.9-2.5 2.9-2.8.6 30.3 8.8 59.1 14.9 88.4 1.4 6.4 3.9 12.6 5.7 18.9 6.4 23 8.1 46.2 4.2 69.8-1.8 11.1-1.5 22.6-4.9 33.4-5.5 17.4-12 34.4-23.5 49.1-8.6 11-15.5 23.3-27.1 31.6-1.6 1.2-3 2.8-4.7 3.7-19.1 10-37.9 20.9-58.4 27.6-12.9 4.2-26.3 6.8-39.6 9.9-24.3 5.6-48.2 12.7-72.7 17-19.7 3.5-39.3 6.3-59.4 5.5-21.3-.9-42.5 1.3-63.8 1.9-16 .4-31.8-2.2-47.7-3.1-18.9-1-37.5-4.1-56.2-6.7-20.1-2.9-40-7.2-59.2-13.5-31.2-10.2-61.8-22.5-91.1-37.5-16.4-8.4-29.7-21-42.7-33.8-9-8.9-15-20.1-22.5-30.2-9.2-12.4-16.7-25.3-22.4-39.5-1-2.4-2-4.9-2.7-7.4-3.8-14-8.3-27.9-11-42.2-2.1-11-2.1-22.4-2.7-33.6-1.3-24.1.4-48.3-.4-72.4-.4-12.7-1.2-25.6-3.8-38.4-2.8-13.6-3.7-27.5-5.1-41.3-1.4-13.8-3.2-27.4-7.3-40.7-1.4-4.4-1.3-9.2-1.8-13.8-1.2-12.9-5.5-25-8.9-37.3-.6-2.3-.9-4.4 0-6.9 12.8 3.1 25.2 6.3 37.8 9.1 5.5 1.2 8.3 4.3 10.1 9.6 6.8 20.2 14.7 40.1 23.5 59.5 9.1 20.1 18.4 40.1 28.7 59.6 7.5 14 15 28.1 22.2 42.2 16.8 32.7 44.3 50.8 78.5 60.5 13.8 3.9 27.8 6.1 42.2 6 6.3 0 12.5 1.1 18.8 1.3 9.8.3 18.3-2.8 26.5-7.5 21.6-12.4 43.4-23.9 66.9-32.9 25.9-9.9 52.6-15.9 79.3-22.7 26.4-6.7 53.2-6.8 79.8-9.1h1c16.8.9 15.1 1.8 16.3 15 1.9 20.2-1 22.6-22.3 23.5-26.3 1.1-51.9 5.3-77.4 12.4-24.6 6.8-48.1 16-69.1 30-13.9 9.3-26.3 20.8-34 36.7-8.8 18.2-3.3 48.2 16.7 60.5 8.6 5.3 17.6 9.2 27.2 12 22.2 6.4 44.7 10.3 67.8 6.7 12.1-1.9 22.5-6.9 29.4-18.1 6.2-10 14.3-19 19.2-29.9.9-.8 1.6-1.7-.1-3.9zm-497.5-352.8c.7 8.4.7 8.4 9.1 10.2 5.8 1.3 11.6 2.7 17.3 4.1 4.8 1.2 9.6 2.3 14.4 3.5 2 .5 3.4 0 3.6-2.1.2-4-6-12.1-9.9-13-11.2-2.8-22.3-5.6-34.5-8.6 0 2.7-.1 4.3 0 5.9zm17.4 29.6c3.2.7 6.2 2.3 9.4 2.7 8.3 1.3 16.2 4.6 24.7 5.1-1.5-11.3-7.6-16.4-18.3-16.9-3.5-.1-7-1.8-10.6-2.6-6.3-1.3-12.7-2.4-19.2-3.6-.5 11.5 6.4 13.6 14 15.3zm6.9-60.6c-8.4-1.7-16.7-4.1-25.1-6.2-2.2-.5-5.9-1.4-5.8 1.2.1 3-1.4 8.1 3.3 9.3 11.4 2.9 23 5.3 36.2 8.2-3.1-5.9-2.5-11.3-8.6-12.5zm-23.5 16.4c11.5 3.1 22.8 7.3 35.2 6.9-.6-4.6-3.2-6.4-6-7.1-11.4-2.8-22.8-5.7-34.8-7 .1 4.9 2.6 6.4 5.6 7.2z"/><path fill="none" stroke="#000" stroke-miterlimit="10" stroke-width="6" d="M1639 1255.9h-13.6c-2.3 0-4.7.3-6.9-.8-3.5-1.8-3.7-5.5-.3-7.7 3.6-2.4 7.5-4.2 12-4.3 17.3-.2 34.4-2.8 51.8-2.1 4.3.2 8.6-.9 12.9-1.1 6.6-.2 13 .3 18.9 5.4-5.7 4.6-11.7 6-18 6.5-4.4.3-6.6 1.8-6.6 6.6.1 4.6-1.1 9.2-1.2 13.8-.4 20 12.4 25.2 26.6 24.6 29.4-1.2 50.7-17.7 68.7-39.2 5.7-6.8 8.2-15 8.3-24 .4-22-6-40.6-23.9-55-17.8-14.2-37.6-23.6-59.7-28.4-2.6-.6-5.3-.9-7.7-2-5.7-2.7-10-6.4-9.1-13.8.6-4.6 0-9.4.6-13.9.6-4.1 2.5-6.7 7.8-7.1 7.5-.6 14.5 0 21.6 2 32.1 8.7 61.6 22.7 87.2 44.3 7.4 6.2 19.3 5.4 28.4-2.2 7.7-6.4 11.9-15 14.9-24.3 5.7-17.4 8-35.4 10.2-53.5.2-1.4.9-2.5 2.9-2.8.6 30.3 8.8 59.1 14.9 88.4 1.4 6.4 3.9 12.6 5.7 18.9 6.4 23 8.1 46.2 4.2 69.8-1.8 11.1-1.5 22.6-4.9 33.4-5.5 17.4-12 34.4-23.5 49.1-8.6 11-15.5 23.3-27.1 31.6-1.6 1.2-3 2.8-4.7 3.7-19.1 10-37.9 20.9-58.4 27.6-12.9 4.2-26.3 6.8-39.6 9.9-24.3 5.6-48.2 12.7-72.7 17-19.7 3.5-39.3 6.3-59.4 5.5-21.3-.9-42.5 1.3-63.8 1.9-16 .4-31.8-2.2-47.7-3.1-18.9-1-37.5-4.1-56.2-6.7-20.1-2.9-40-7.2-59.2-13.5-31.2-10.2-61.8-22.5-91.1-37.5-16.4-8.4-29.7-21-42.7-33.8-9-8.9-15-20.1-22.5-30.2-9.2-12.4-16.7-25.3-22.4-39.5-1-2.4-2-4.9-2.7-7.4-3.8-14-8.3-27.9-11-42.2-2.1-11-2.1-22.4-2.7-33.6-1.3-24.1.4-48.3-.4-72.4-.4-12.7-1.2-25.6-3.8-38.4-2.8-13.6-3.7-27.5-5.1-41.3-1.4-13.8-3.2-27.4-7.3-40.7-1.4-4.4-1.3-9.2-1.8-13.8-1.2-12.9-5.5-25-8.9-37.3-.6-2.3-.9-4.4 0-6.9 12.8 3.1 25.2 6.3 37.8 9.1 5.5 1.2 8.3 4.3 10.1 9.6 6.8 20.2 14.7 40.1 23.5 59.5 9.1 20.1 18.4 40.1 28.7 59.6 7.5 14 15 28.1 22.2 42.2 16.8 32.7 44.3 50.8 78.5 60.5 13.8 3.9 27.8 6.1 42.2 6 6.3 0 12.5 1.1 18.8 1.3 9.8.3 18.3-2.8 26.5-7.5 21.6-12.4 43.4-23.9 66.9-32.9 25.9-9.9 52.6-15.9 79.3-22.7 26.4-6.7 53.2-6.8 79.8-9.1h1c16.8.9 15.1 1.8 16.3 15 1.9 20.2-1 22.6-22.3 23.5-26.3 1.1-51.9 5.3-77.4 12.4-24.6 6.8-48.1 16-69.1 30-13.9 9.3-26.3 20.8-34 36.7-8.8 18.2-3.3 48.2 16.7 60.5 8.6 5.3 17.6 9.2 27.2 12 22.2 6.4 44.7 10.3 67.8 6.7 12.1-1.9 22.5-6.9 29.4-18.1 6.2-10 14.3-19 19.2-29.9.9-.8 1.6-1.7-.1-3.9zm-497.5-352.8c.7 8.4.7 8.4 9.1 10.2 5.8 1.3 11.6 2.7 17.3 4.1 4.8 1.2 9.6 2.3 14.4 3.5 2 .5 3.4 0 3.6-2.1.2-4-6-12.1-9.9-13-11.2-2.8-22.3-5.6-34.5-8.6 0 2.7-.1 4.3 0 5.9zm17.4 29.6c3.2.7 6.2 2.3 9.4 2.7 8.3 1.3 16.2 4.6 24.7 5.1-1.5-11.3-7.6-16.4-18.3-16.9-3.5-.1-7-1.8-10.6-2.6-6.3-1.3-12.7-2.4-19.2-3.6-.5 11.5 6.4 13.6 14 15.3zm6.9-60.6c-8.4-1.7-16.7-4.1-25.1-6.2-2.2-.5-5.9-1.4-5.8 1.2.1 3-1.4 8.1 3.3 9.3 11.4 2.9 23 5.3 36.2 8.2-3.1-5.9-2.5-11.3-8.6-12.5zm-23.5 16.4c11.5 3.1 22.8 7.3 35.2 6.9-.6-4.6-3.2-6.4-6-7.1-11.4-2.8-22.8-5.7-34.8-7 .1 4.9 2.6 6.4 5.6 7.2z"/></svg>