<svg xmlns="http://www.w3.org/2000/svg" id="beard" viewBox="0 0 3000 3000"><path id="cl1" fill="#3F3F3F" d="M1176.5 872.3c2.3 16.8 4.7 33.4 7 50.1 3.4 25.3 10.3 49.8 16.6 74.4 2.6 10.3 5 20.6 7.5 30.9 9.3 37.9 20.2 75.5 34.7 111.8 8.4 20.8 18.9 41 33 58.9 1.4 1.8 2.8 3.8 4 5.7 10.2 16.6 23.9 29.4 39.8 41 27.5 20 57.6 35.1 87.2 51.1 22.3 12.1 46.6 21.2 70.9 28.6 31.3 9.5 63.3 17 96.3 19.5 21.6 1.6 43.1 2.2 64.7.9 5.9-.4 11.9-1.1 17.7-2.3 10.4-2.1 20.7-4.8 31.3-5.6 8.5-.6 15.7-4.8 23.4-7.8 18.5-7.1 35-16.7 49.6-30.4 8.1-7.7 17.8-13.9 25-22.5 17.4-20.8 33.6-42.3 43.2-68.4 4.8-13 10.2-26.3 18.6-39.4 4.7 19.5 5.9 37.6.7 55.8-.4 1.6-1.6 3.1-1.6 4.6.3 22.7-8.8 43.4-14.8 64.6-3 10.5-10.5 19.2-17.4 27.6-16 19.6-34.4 36.6-55 51.4-8 5.8-15.5 12.4-23.3 18.6-12.3 9.8-26.9 15.7-40.9 22.5-12.5 6.1-24.6 13.2-38.4 16.5-8.1 1.9-16.2 3.2-24.5 3.6-31.9 1.7-62.8-3.9-93.7-11.2-31.1-7.4-61.8-15.5-91.9-26.5-16.7-6.1-31.4-15.6-46.8-23.8-22.5-12.1-44.8-24.7-67-37.3-15-8.5-28.2-19.8-41.8-30.2-15.2-11.7-30.6-23.2-44.7-36.1-11-10-20-21.8-28.2-34.5-12-18.8-18.9-39.4-25.2-60.2-5.1-16.7-8.5-34-12.2-51.1-5.4-24.8-10.9-49.5-15.2-74.5-3.5-19.8-6.2-39.8-9.4-59.7-2.6-15.9-4.9-31.9-6.7-48-1.7-15.7-11.2-27.2-21.7-38.1-3.9-4-8-7.9-11.7-12.2-1.7-1.9-3.6-3.7-4.2-6.6-1.6-7.9.7-10.6 8.6-9.5 12.2 1.8 24.3.5 36.5-.5 6.8-.5 13.4-1.1 20-1.7z"/><path fill="none" stroke="#000" stroke-miterlimit="10" stroke-width="6" d="M1176.5 872.3c2.3 16.8 4.7 33.4 7 50.1 3.4 25.3 10.3 49.8 16.6 74.4 2.6 10.3 5 20.6 7.5 30.9 9.3 37.9 20.2 75.5 34.7 111.8 8.4 20.8 18.9 41 33 58.9 1.4 1.8 2.8 3.8 4 5.7 10.2 16.6 23.9 29.4 39.8 41 27.5 20 57.6 35.1 87.2 51.1 22.3 12.1 46.6 21.2 70.9 28.6 31.3 9.5 63.3 17 96.3 19.5 21.6 1.6 43.1 2.2 64.7.9 5.9-.4 11.9-1.1 17.7-2.3 10.4-2.1 20.7-4.8 31.3-5.6 8.5-.6 15.7-4.8 23.4-7.8 18.5-7.1 35-16.7 49.6-30.4 8.1-7.7 17.8-13.9 25-22.5 17.4-20.8 33.6-42.3 43.2-68.4 4.8-13 10.2-26.3 18.6-39.4 4.7 19.5 5.9 37.6.7 55.8-.4 1.6-1.6 3.1-1.6 4.6.3 22.7-8.8 43.4-14.8 64.6-3 10.5-10.5 19.2-17.4 27.6-16 19.6-34.4 36.6-55 51.4-8 5.8-15.5 12.4-23.3 18.6-12.3 9.8-26.9 15.7-40.9 22.5-12.5 6.1-24.6 13.2-38.4 16.5-8.1 1.9-16.2 3.2-24.5 3.6-31.9 1.7-62.8-3.9-93.7-11.2-31.1-7.4-61.8-15.5-91.9-26.5-16.7-6.1-31.4-15.6-46.8-23.8-22.5-12.1-44.8-24.7-67-37.3-15-8.5-28.2-19.8-41.8-30.2-15.2-11.7-30.6-23.2-44.7-36.1-11-10-20-21.8-28.2-34.5-12-18.8-18.9-39.4-25.2-60.2-5.1-16.7-8.5-34-12.2-51.1-5.4-24.8-10.9-49.5-15.2-74.5-3.5-19.8-6.2-39.8-9.4-59.7-2.6-15.9-4.9-31.9-6.7-48-1.7-15.7-11.2-27.2-21.7-38.1-3.9-4-8-7.9-11.7-12.2-1.7-1.9-3.6-3.7-4.2-6.6-1.6-7.9.7-10.6 8.6-9.5 12.2 1.8 24.3.5 36.5-.5 6.8-.5 13.4-1.1 20-1.7z"/></svg>