<svg xmlns="http://www.w3.org/2000/svg" id="beard" viewBox="0 0 3000 3000"><path id="cl1" fill="#2B2B2B" d="M1682.5 1365.6c-1.2-1.4-.4-3.1-2.7-3.7-4.3 8.3-7.8 17.3-13.9 24.9-6 7.5-13.2 14.1-16.6 23-2.2.2-2.5-6.8-4.9-1-2.3 5.8-3.6 11.9-5.5 18.3-4.4-5.9-2-12.7-3.9-21-4.5 9.8-8.2 17.7-11.8 25.6-.6-21.6-8.9-41.5-10.9-62.9-3.7 1.4-1.1 4.8-3.6 5.9-.3-.4-.7-.7-.9-1.1-9.4-30.3-6.9-59.9 3.1-89.7 3.9-11.6 9.3-21.9 16.6-31.4 10.8-14.1 26.2-18.9 42.8-20.4 7.5-.7 15.2-1.2 22.7 1.6 9 3.3 14.2 9.8 16.2 18.6 5.7 24.9 3 49.6-4.8 73.5-4 12.2-10.9 23.4-16.8 34.9-.9 2-3.3 3.3-5.1 4.9zm-130.1-180.1c10.4-9.8 20.6-19.8 31.5-29.1 14-11.9 29.9-21 46-29.6 3.3-1.8 6.2-3.9 9-6.2 3.4-2.9 4.2-6.7 2.8-10.8-1.3-3.8-4.8-4.3-8.2-4.5-7.1-.3-14 .6-20.4 3.5-33.1 15-57.6 38.8-72.6 72-2.2 4.8-3.3 9.9-2.5 15.8 5.7-3 10-7 14.4-11.1zm190.7-78.4c-3.3-2.2-7.1-3.4-11.3-3.2-4.2.2-8 1-9.8 5.3-1.9 4.5.9 7.5 3.8 10.3 1.2 1.1 2.7 1.9 4.1 2.8 13.6 9.5 26.7 19.7 38.2 31.8 6.4 6.7 12.7 13.6 22 19.8-6.6-29.9-23.1-51-47-66.8z"/><path fill="none" stroke="#000" stroke-miterlimit="10" stroke-width="6" d="M1682.5 1365.6c-1.2-1.4-.4-3.1-2.7-3.7-4.3 8.3-7.8 17.3-13.9 24.9-6 7.5-13.2 14.1-16.6 23-2.2.2-2.5-6.8-4.9-1-2.3 5.8-3.6 11.9-5.5 18.3-4.4-5.9-2-12.7-3.9-21-4.5 9.8-8.2 17.7-11.8 25.6-.6-21.6-8.9-41.5-10.9-62.9-3.7 1.4-1.1 4.8-3.6 5.9-.3-.4-.7-.7-.9-1.1-9.4-30.3-6.9-59.9 3.1-89.7 3.9-11.6 9.3-21.9 16.6-31.4 10.8-14.1 26.2-18.9 42.8-20.4 7.5-.7 15.2-1.2 22.7 1.6 9 3.3 14.2 9.8 16.2 18.6 5.7 24.9 3 49.6-4.8 73.5-4 12.2-10.9 23.4-16.8 34.9-.9 2-3.3 3.3-5.1 4.9zm-130.1-180.1c10.4-9.8 20.6-19.8 31.5-29.1 14-11.9 29.9-21 46-29.6 3.3-1.8 6.2-3.9 9-6.2 3.4-2.9 4.2-6.7 2.8-10.8-1.3-3.8-4.8-4.3-8.2-4.5-7.1-.3-14 .6-20.4 3.5-33.1 15-57.6 38.8-72.6 72-2.2 4.8-3.3 9.9-2.5 15.8 5.7-3 10-7 14.4-11.1zm190.7-78.4c-3.3-2.2-7.1-3.4-11.3-3.2-4.2.2-8 1-9.8 5.3-1.9 4.5.9 7.5 3.8 10.3 1.2 1.1 2.7 1.9 4.1 2.8 13.6 9.5 26.7 19.7 38.2 31.8 6.4 6.7 12.7 13.6 22 19.8-6.6-29.9-23.1-51-47-66.8z"/></svg>