<svg xmlns="http://www.w3.org/2000/svg" id="beard" viewBox="0 0 3000 3000"><path id="cl1" fill="#787878" d="M1831.511 1223.526c2.2-7.7 1-10.8-3.8-9.6l-28.4 41.398-6.699-96.698c-8.801-12.9-20.5-25.9-35.101-39.102-29.8-24.5-71.899-32.699-126.7-24.3-40.5 11.8-76.6 30.5-108.199 56.1l-.199-.1c-.102.1-.199.2-.301.3-16.301 10.7-25.301 26.9-27 48.5-1.801 21.9-4.601 43.5-8.301 65-4 33.4-11.699 50.602-22.8 51.4-125.8-44.7-217.8-106.602-275.9-185.4-.399-.3-.7-.6-1.1-.8-3.7-2.5-7-2-9.601 1.6-2.5 1-2.899 6.2-1.101 15.5 5.7 20 12.3 35.4 19.7 46.4 49.6 75.8 122.6 131.1 219.199 166 183.801 81.5 308.899 72.3 375.399-27.6 20.204-33.798 33.904-69.898 40.904-108.598zm-291.5-36.3c3.399-6.3 10.3-10.4 20.601-12.5 59.5-7.4 126.801-12.4 202.1-15.1 10.9 2.3 16.5 9.198 16.602 20.898h.699l1 82.8c-.5 23.2-26.601 54-78.301 92.5-20.398 13.302-43.5 17.802-69.398 13.302-33-7.302-60.699-15.4-83-24.302-18.399-7.5-29.199-20.5-32.199-38.8.896-54.798 8.196-94.397 21.896-118.798z"/><path id="sd1" d="M1821.311 1241.427l-4 .1.301 13.3h4l-.301-13.4zm-7 16.7l-4 .101h-3.699v-11.8h3.399v-1.2l4-.101.3 13zm.7 14.699h-4v-10.6h4v10.6zm-8.4-1h-2.899l1.101 9 3.198-.1.603 13.3-4 .3-.399-9.3-2.899.4-1.601-14.4 2.899-.3-.301-11.2 4-.1.298 12.4zm-14 9l-.301-10h4l.301 10h-4zm2 34.2l-1-15.399 4-.199 1 15.398-4 .2zm-1-21.7l-.601-7.3 4-.399.601 7.301-4 .398zm-608.201-155v-5h4v5h-4zm9.5 32.101h-4v-9.602h4v9.602zm12.301 3.299h-4v-9.7h4v9.7zm-4.301 18h-4v-12.7h4v12.7zm10 4h-4v-11.7h4v11.7zm13.701 2h-4v-11h4v11zm-12.4-16.299h-4v-11h4v11zm-27.801-28.5v-9.102h4v9.102h-4zm114.801 97.099h-2v9h-4v-11.3h2v-7.9h4v10.2zm-22.301 1.7h-4v-10.3h4v10.3zm-20.399-44.7v10h-4v-10h4zm-25.3 13h-4v-11.3h4v11.3zm13.3-11.3h-4v-12h4v12zm-.3 12.701h-4v-11h4v11zm1 20.599h-4v-12h4v12zm15.699 10h-4v-11.3h4v11.3zm.301-16.599v-11.4h4v11.4h-4zm6.699 16.399v5.4h-4v-5.4h4zm34.301 14.601v-9.4h4v9.4h-4zm-15-8.401v6.7h-4v-10.3h2.3v-6.4h4v10h-2.3zm14.3 19h-4v-12.3h4v12.3zm-21.601-1.3h-4v-10.7h4v10.7zm26.301 10.3h-4v-10h4v10zm-13-6h-4v-8.6h4v8.6zm45.3-12h-4v-5h4v5zm-23.3-5h-4v-10.6h4v10.6zm11.699.401h-4v-6.4h4v6.4zm-2.399 18.299h-4v-16.3h4v16.3zm-4.601-9.299h-4v-11.7h4v11.7zm1.301 14.299v8.3h-4v8h-3v5.7h-4v-7.7h3v-9.3h4v-5h4zm-12 5v-11h4v11h-4zm21-16.7v11.7h-4v-11.7h4zm17 4h-4v-8.6h4v8.6zm-6.7-2v10.7h-4v-10.7h4zm30.399 3.8v6h2.199v15h-4v-14.398h-2.199v-6.602h4zm256.201-175.399l-2-6.4 3.699-1.2 2 6.4-3.699 1.2zm-7.5 1.7l3.199-1.601 2.601 5.4-3.601 1.8-1.5-3.2-3.5 1.2-2.699-7.6 3.699-1.302 1.801 5.303zm3.5 18.699l-3.801 1.2-2.601-8.6 3.801-1.2 2.601 8.6zm11.6-10.8l-.4-.899 3.801-1.301 2.399 7-3.8 1.301-1.9-5.899-3.699 1.8-3.601-7.7 3.601-1.698 3.599 7.396zm-22.2-6.599l-3.7 1.398-2.699-7.1 3.699-1.4 2.7 7.102zm-15.4 2.099l2.399 7-3.801 1.2-2.399-7 3.801-1.2zm14.7 8.3l-3.699 1.302-2.4-7 3.802-1.302 2.297 7zm-11.1-13.399l3.8-1.2 1.601 5.3-3.801 1.2-1.6-5.3zm9.8 26.799l-3.7 1.3-3-8.3 3.7-1.4 3 8.4zm-10.7-.099l1.5-.199.7 5.5 3.601-.602.899 5.7 2.5-.3 1.3 9.3-4 .601-.8-6-2.5.399-1-6.899-3.7.399-.8-6.8-1.5.3-2-9.7 3.899-.8 1.901 9.101zm2.8 17.899l-4 .8-.801-4.1-3.699 1-2.399-9 3.899-1 2 8-.601-3.2 3.9-.8 1.701 8.3zm28.299-11.8l-3.801 1.2-2.398-8 3.898-1.2 2.301 8zm-5.199-11.9l-1.602-6 3.801-1.1 1.699 6-3.898 1.1zm-8.4 7.5l1.9-.5 1.699 6.302-3.399.898 1.3 6.2 1.801-.4 1.6 7-3.898 1-1.5-6.5-1.8.4-1.7-8 3.5-.7-1.199-4.3-2 .3-1.601-7.6 3.899-.9 1.398 6.8zm13.3 11.9l-4 .8-1-5 4-.8 1 5zm-49.4-19.099l-3.9 1.101-2.3-8.7 3.8-1 2.4 8.599zm3.6-4.401l-3.699 1.3-2.601-7.7 3.7-1.3 2.6 7.7zm-18.2 2.701l4-.9 2 8.7-2.7.6.399 1.7-4 .8-1.699-8.3 2.5-.5-.5-2.1zm-8 16.2l-4 .699-2-10.6 4-.7 2 10.601zm3.7 10.899l-4 .8-2-9.6 4-.8 2 9.6zm5.7-1.7l-4 .4-.7-8 4-.4.7 8zm25.2-16.5l-3.801 1.302-1.301-4.302-3 .9-2-6.3 3.699-1.2 1.101 3.3 2.899-1 2.403 7.3zm-12 1.9l-3.9.8-1.3-6.7 3.8-.8 1.4 6.7zm4.699 9.401l-1.199.199 1.199 6.4-3.899.8-1.399-7 1.199-.3-1.5-8.7 4-.8 1.599 9.401zm-12.299 5.099l-4 .5-1.301-9 4-.5 1.301 9zm2.4 3.5l-1.399-8.3 4-.602 1.301 8.4-3.902.502zm6.6 2.5l.5 3.5 3-.5-.101-.7 4-.6 1.101 8.8 3.5-.6.699 4-4 .698-.5-3.198-3.5.5-.199-1.9-3.801.6-.199-1.8-3.101.5-1.399-8.7 4-.6zm-12.8 6.1l.5 2.5-4 .602-1.699-9.2 4-.7.699 3.801-.699-6.301 4-.398 1 9.3-3.801.396zm-11.3-.8l3.101-.2.699 8.602-2.301.3.602 3.2-4 .8-1.301-7.4 2.699-.5-.301-3.6-3.1.3-1-9.3 4-.5.902 8.298zm-10.2 14.5l-1.3-10.7 4-.5 1.3 10.7-4 .5zm21-3.899l-.699-4.699 4-.602.699 4.7-4 .601zm41-16.901l4-.7 1.7 8.601-4 .699-1.7-8.6zm11.3 4.901l4-.601 1 6.7-4 .6-1-6.699zm10.7-5.101l.7 8.7-4 .2-.7-8.602 4-.298zm-29-2.5l1.7 10.7-4 .6-.2-.898-3.5.5-1.3-8.9 3.5-.5-.2-.8 4-.702zm3.7 16.8l-4 .302-.399-5.7 4-.2.399 5.598zm-61.4-20.6l-2.801.5h.801l3.399 20.6-4 .602-3.399-20.602 2-.3-1.601-8.7 4-.699 1.601 8.599zm5 .8l-4 .7-1.601-9 4-.7 1.601 9zm-21.3 11.3v-14.6h4v14.6h-4zm9.599 22h-4v-14.6h4v14.6zm-14.299-27.6v-7h4v7h-4zm-6.701 21.201h-4v-12h4v12zm15.701-8v9.8h-4v-3.4h-3.301v-9.6h4v3.2h3.301zm-14.3-8.201v-7h4v7h-4zm3.3 19.201h-4v-13.2h4v13.2zm7.7 3.799h2.602v10.6h-4v-3.398h-2.602v-11.602h4v4.4zm-10.7 13h-4v-3.8h-3v-10.602h4v3.4h3v11.002zm6 4h-4v-12.8h4v12.8zm1.7 11h-4v-7h4v7zm-12.8 2.201h-4v-14.301h4v14.301zm5.6 12.399h2.399v7.602h-4v-5.602h-.7v9h-4v7.302h2v16.3h-3.699v1.398h-4v-9.398h3.699v-7.602h-2v-4h-2.699v-12h4v3.602h2.699v-6.602h2.301v-7.698h4v7.698zm-21-26h3.399v9.302h-4v-1.302h-3.399v-11.698h4v3.698zm-1.3 22h3v11h-3v1h3v9.302h-4v-5.7h-3v-10.3h3v-2.302h-3v-16.398h4v13.398zm12-15.699v11.301h-4v-11.301h4zm-12.3 37.699v9.602h-4v-9.602h4zm1.6 31.9h-4v-12.3h4v12.3zm9.4 4.3h-4v-13h4v13zm-22.7 7.7h4v13h-4v-1h-3.699v-8h3.699v-4zm12.7 4.701h-4v-11.7h4v11.7zm10.6-15.601h4v6.602h2.699v11.398h-4v-8.398h-2.699v8h-4v-13.4h4v-4.202zm-5.3 19.2h3.301v11h2.399v11.4h-4v-11h-2.399v-8h-3.301v-12.4h4v9zm-12-13.599h-4v-19h4v19zm261.5-150.901v-8.7h4v8.7h-4zm11.4 4v9.7h-2l.3 9.5-1.7.1v4.4h-4v-5h1.7l-.3-12h2v-6.7h4zm-6.4 13.5l-4 .2-.3-8.6 4-.2.3 8.6zm7.7-6.3l-.7-9.4 4-.3.7 9.3-4 .4zm8.7 7.5h-4v-9.4h4v9.4zm-24.4-23.599l-4 .399-1-9.7 4-.3 1 9.601zm-15.7-15.601l4-.3.399 6.2 3.601-.2.399 8.3-1.6.2.6 6.8-4 .3-.7-8 1.601-.1-.3-7.2-3.601.3-.399-6.3zm-22.201-3.2l3.801-1.3 2.6 8-3.699 1.3-2.702-8zm7.101-3.3l3.7-1.399 3 7.699-2.7 1 4.899 10.5-3.602 1.7-5-10.7 2.602-1.1-2.899-7.7zm15 13l-3.8 1.3-2.302-7 3.802-1.3 2.3 7zm-1.601 2.2l2 7.6-3.801 1-2-7.6 3.801-1zm-2.399 14.1l-3.8 1.4-3-8.7-3.602 1.5-2.601-6.398 3.698-1.602 2 4.8 3.602-1.3 3.703 10.3zm-14.8-2.699l-3-9.399 3.8-1.2 3 9.4-3.8 1.199zm0 11.699l-2.301-6.6 3.801-1.4 2.3 6.7-3.8 1.3zm14.5 2l-3.7 1.4-4-10.3 3.7-1.4 4 10.3zm10.4-1l-3.899.7-1.699-8.7 4-.698 1.598 8.698zm13.1-1.5l-4 .4-.7-7.7 4-.3.7 7.6zm-5.7-7.1l.601 7.4-4 .398-.601-7.3 4-.498zm-8.101 21.5l-3.801 1-2.398-8.7 3.898-1 2.301 8.7zm3.101-6.9l4-.698 1.3 7.398-4 .7-1.3-7.4zm12 1.5l.7 8.7-4 .3-.7-8.6 4-.4zm-27.5-4.399l2 6.3-3.8 1.2-2-6.301 3.8-1.199zm-4.601 6.399l-3.899 1-1.3-5.6 3.898-1 1.301 5.6zm-.799 3l3.699-1.6 2.7 6.3-3.801 1.602-2.598-6.302zm58.2 8.101h-4v-8.2h4v8.2zm2 10.799h-4v-9.4h4v9.4zm-9.3-13.4l-4 .102-.3-9.301 4-.101.3 9.3zm15.3 17h-4v-10h4v10zm-4.3 24h-4l-.3-11h4l.3 11zm2-21.699l.3 10-4 .199-.3-10 4-.199zm-78.7-77.901l-1.6-5 3.8-1.4 1.7 5-3.9 1.4zm-6.2-1l-1.399-3.7 3.801-1.399 1.3 3.699-3.702 1.4zm.4 4l-3.8 1.2-1.602-5.302 3.699-1.198 1.703 5.3zm4.1 19.5l3.601-1.2 2.601 8.4-3.699 1.2-2.5-7.602-3.5 1.5-4.399-10.398 3.801-1.602 4.095 9.702zm-1.8-16.9l2.7 7.302-3.8 1.398-2.602-7.3 3.702-1.4zm-12.7 11.301l-1.801-5.399 3.899-1.2.801 2.602-1.301-5.4 3.899-1 1.302 5.6-3.802 1 .699 2.602-3.696 1.195zm19.7-12.601l3 9.4-3.699 1.2-3-9.4 3.699-1.2zm-18.3-11.7l3 8.7-3.8 1.3-3-8.6 3.8-1.4zm-2.9 14.9l-3.899 1-3-11 3.899-1 3 11zm-7.5-7.2l-3.7 1.3-2.3-6.3 3.699-1.3 2.301 6.3zm-.3 3.401l2.7 8.3-3.8 1.3-2.602-8.3 3.702-1.3zm-7.3 11.399l-3.399-7 2.5-1.1-2.5-7 3.699-1.4 2.699 7.302-2.5.898 3.102 6.7-3.601 1.6zm16.1 4.4l-3.899.9-1.399-6.4 3.899-.8 1.399 6.3zm-7.5-3.9l2.399 7-3.801 1.4-2.399-7 3.801-1.4zm-6.4 12l-2.301-7 3.801-1.3 2.3 7-3.8 1.3zm6.1 17l-3.699 1.302-3.699-11.302 3.801-1.3 3.597 11.3zm-.1-14.8l3.898-1 1.301 5.3-3.801 1-1.398-5.3zm10.9-5l.699 2.9-1.3-8.4 4-.7 1.601 10.7-3.801.601.801 2.601-3.899 1-2-7.7 3.899-1.002zm21.9 18.5l-3.8 1.2-3-9.3 3.8-1.2 3 9.3zm-13.8-15.3l3.8-1.3 2.7 8.3-3.9 1.3-2.6-8.3zm4.3 18.701l-4 .6-1-7 4-.6 1 7zm-10.4-1.401l-3.899.7-1.399-7.3 3.899-.7 1.399 7.3zm-26.4-39.5l-3.602 1 2.899 7-3.7 1.5-3.398-8.3 3.601-1.4-1.899-7.1 3.801-1 2.298 8.3zm-18.9-6l-1-3.7 3.9-1 1 3.7-3.9 1zm7.5 1.2l-2-5 3.7-1.5 2 5-3.7 1.5zm-1.3 2l2.601 7.6-3.699 1.4-2.602-7.7 3.7-1.3zm-5.7 4.1l-3.699 1.7-3-7 3.699-1.7 3 7zm-10.6-13.5l3 8-3.7 1.4-3-8 3.7-1.4zm8.3 23.4l-3.8 1.3-2.602-8.3 3.699-1.3 2.703 8.3zm-7.4 11l-3.801 1.3-3-9 3.801-1.3 3 9zm-10.8-3l3.9-.9 1.699 7.4-3.899.8-1.7-7.3zm10.7 3.401l3.899-1 1.699 6.699-4 1-1.598-6.699zm21.1-9.901l3.8-1.1 2.7 9-3.899 1.1-2.601-9zm-5.5 10.6l-4 1-1.601-6.6 2.9-.7-2.5-7.5 3.799-1.3 2.601 8-2.699 1 1.5 6.1zm-3.8 10.2l-2.699-7.3 3.699-1.4 2.7 7.301-3.7 1.399zm10.599-.3l-2.301-7 3.699-1.4 2.398 7-3.796 1.4zm5.901 20.901l-4 .699-1.3-7.6 4-.7 1.3 7.601zm-8.2-12.401l-1.399-5 3.899-1.1 1.3 5-3.8 1.1zm-1.5 9.6l-4 1-2-8 4-1 2 8zm14-8.6l2 8-4 1-2-8 4-1zm-25.701-6.7l1 5-3.899.8-1-5 3.899-.8zm-7.599 9.401l-.699-6.4 4-.398.699 6.398-4 .4zm8.8 3.399l1.399 4-3.801 1.4-1.399-4 3.801-1.4zm53.7 4l-3.699 1.4-2.4-7 3.802-1.4 2.297 7zm8.4-6.3l1.6 5-3.699 1.3-1.801-5 3.9-1.3zm-18.6.901l-3.899.8-1.399-6.2 3.899-.898 1.399 6.298zm-7.8 3l-3.699 1.5-2-5 3.699-1.5 2 5zm108.5 40.799v5.6h-3.6v6.4h-4v-9.4h3.6v-2.6h4zm-9.3 22.901l-4 .101-.3-12.7 4-.1.3 12.699zm10.3 6.599l-4 .2-.6-12.602 4-.3.6 12.702zm-5.5 7.1h3.5l.301 12h-4l-.301-10.1-3.3.2-.7-9.3 4-.302.5 7.502zm-4.8-5.1l.601 8-4 .3-.601-8 4-.3zm10.3 32.6l-4 .302-.699-10 4-.302.699 10zm-12.1 4.5h-4l.398-10.398 4 .1-.398 10.298zm7.8 1.4h-4v-9h4v9zm-4.8-26v12.2h-4v-12.2h4zm-6.7 52.8h-3.7v1h-2.6v15.7h-4v-1.3h-4v-10h4v-4.4h2.6v-11.3h3.7v-8h4v18.3zm6.3-4.599v-12.301h4v12.301h-4zm-.3-18.601v14.302h-4v-14.302h4zm4 39.301h-4v-14h4v14zm-2 16.3h-4v-4.301h-2.7v-16.699h4v7.398h2.7v13.602zm-28-7.3h2.3v15.301h-4v-9.7h-2.3v-16.3h4v10.699zm5.3-5.401h-4v-12.3h4v12.3zm8.4 3h4v16.4h-3v8.198h-4v-15.898h3v-8.7zm-14.7 36.6h-4v-14.6h4v14.6zm7.7-11.199h2.3v10.199h-4v-4.199h-2.3v-13h4v7zm12.3 1.199h-4v-6.198h4v6.198zm-29.7-2.6h-4v-15.3h4v15.3zm-18 6.401h-4v-12h4v12zm10-6h-4v-11.399h4v11.399zm8.4-11v-15.699h4v15.699h-4zm-3.4 36h-4v-21h4v21zm-7 8h-4v-14.801h4v14.801zm-21.3-23v13h-4v-9.801h-3.3v-7.6h4v4.4h3.3v.001zm14.7 17.199h-4v-14h4v14zm-5.7.4h-4v-13.6h4v13.6zm-6 20h-4v-12.6h4v12.6zm36-29.4v6.4h-4v-6.4h4zm-116.4 23.4v-13h4v13h-4zm8.4 11h-4v-13.4h4v13.4zm25.3-26.4v14h-4v-14h4zm-7.5 3.4l.7 9.3-4 .3-.7-9.3 4-.3zm-8.5 20.6h-4v-12.6h4v12.6zm51.8-36l.601 6-3.899.4-.601-6 3.899-.4zm-21.1 18.4v12.6h-1.7v9h-4v-11.6h1.7v-10h4zm14.3 8.6h-4v-14h4v14zm4.7 5.7h-4v-12.899h4v12.899zm-15.3-28.3h4v13.6h-4v-13.6zm-25.9 36l-.699-5.3 4-.5.699 5.3-4 .5zm-5.2 11.401h-4v-12.101h4v12.101zm-18.1.399h-4v-9.3h4v9.3zm-12.7-17.3v-10.7h4v10.7h-4zm-44.2-25.5h2v11h-4v-7h-.601v7.4h-4v-10.802h2.601v-8.198h4v7.6zm-9.9-2.299h-1.7v11h-4v-13.301h1.7v-.699h-4v-7h4v1.3h4v8.7zm-18 4.7h-4v-12.699h4v12.699zm5-8h-4v-9h4v9zm-3 14v-8.699h4v8.699h-4zm9.3 9.3h-4v-11.7h4v11.7zm-15.7-7.3v-5h4v5h-4zm3.7 15.599h-4v-12.6h4v12.6zm5 4h-2v8.3h-4v-11.3h2v-8.3h4v11.3zm-12.7-14v9h-4v7.3h-4v-11.6h4v-7h3.4v-7h4v9.3h-3.4zm36.3 1.3h4v12h-4v-3h-3v-8.3h3v-.7zm10-5.3v10.6h-4v-10.6h4zm-1.6-19.4v6.4h-4v-6.4h4zm-45.7 7.101v-10.7h4v10.7h-4zm25 31h-4v-12h4v12zm33.7-33.101h4v9.4h-4v6h-3v3h1.601v11.6h-4v-11h-1.601v-13.6h3v-5h4v-.4zm-8.4 3.801h-4v-7.399h4v7.399zm16.7 3.599v5.6h2.301v8.4h1.399v10h-4v-8.7h-1.399v-2.3h-2.301v-13h4zm13 3.401h-4v-6.801h4v6.801zm-8.3 1v-9.399h4v9.399h-4zm-100.9-47.301h4v11.602h-4v-5.301h-4v-9.699h4v3.398zm11 7.601h4v9.699h-3.801v1h-4v-10.301h3.801v-.398zm-22.5 3.7v-12.699h4v12.699h-4zm-12.3-28.301h-4v-12h4v12zm4 10.601h3v12h-4v-9h-3v-9.301h4v6.301zm-20-21.3h4v13h-2.3v10.699h-4v-11.699h2.3v-12zm6.3 20h3.399v8h2.601v9.699h-4v-7h-2.601v-5.699h-3.399v-11h4v6zm-9 15.3h-4v-11.602h4v11.602zm.7 9.7h-4v-7.699h4v7.699zm30-2h-4v-9.301h4v9.301zm-14.7 10.599h-4v-14.9h4v14.9zm-22.6-31.299v-11h4v11h-4zm25.3 45.299h-4v-11.3h4v11.3zm16-13.299v-6.602h4v13.602h-3.199v2.699h-4v-9.699h3.199zm-14 2v-11.602h4v11.602h-4zm-12.7 11.299h-4v-9.3h2.399v-4.302h4v8h-2.399v5.602zm-14.3-8v-12.3h4v12.3h-4zm6.8 18.6l-4 .4-1.301-12 4-.4 1.301 12zm17.2 2.4v5.4h-4v-5.4h4zm19.4-9.599v7.601h3v13h-4v-9.7h-3v-10.898h4v-.003zm-17.7 4.599v-8.6h4v8.6h-4zm49-17h-4v-5h-3.7v-8.6h3.7v-2.302h4v15.902zm-17.7 14.401h-4v-16.699h4v16.699zm-2 16.3h-4v-9.7h4v9.7zm8.4-20.701h4v10.7h-4v-10.7zm-2 27.3h-4v-10.3h4v10.3zm99.9 12.7h-4v-13h4v13zm-31-5.7h-4v-9.7h4v9.7zm-10 5.3h-4v-5.3h4v5.3zm-149-92.899h-4v-7h4v7zm-.3 8.399v11.602h-4v-6h-2v-12.602h4v7h2zm-3 24.9h-4v-9.3h4v9.3zm13-25.299v15.398h-4v-15.398h4zm14 2h-4v-10h4v10zm-8 10h3.301v11.699h-4v-11.699h-3.301v-11h4v11zm-42.901-25.601h-4v-1.398h-3.801v-11h4v3.699h3.801v8.699zm9.601 11h2v14h-4v-12h-2v-9.398h4v7.398zm4.399-11h-4v-6.398h4v6.398zm-34-6.699h-4v-10.699h4v10.699zm1.201 2.699h4v5.302h3.4v10.3h-4v-5.602h-2.4v10h-4v-10.698h3v-9.302zm3 33.301h-4v-12h4v12zm11-15.7v11h-4v-11h4zm14 19.7h3.8v10.601h-4v-5.9h-3.8v-11.398h4v6.697zm-17 9v-9.699h4v9.699h-4zm-21-5.7v-5.301h4v5.301h-4zm79.5 20.7h-4v-8h4v8zm-16.1-6h-4v-13.301h4v13.301zm-67.601-27.301h-4v-19h4v19zm-2.399-27h-4v-13.398h4v13.398zm-10 5h-4v-10.698h4v10.698zm-12.4-.699v-11.301h4v11.301h-4zm-9.201-5.401v-13h4v13h-4zm8 9.701h4v8.398h2.199v9.302h-4v-7h-2.199v-10.7zm-21-10.401h-4v-10h4v10zm10.601 7v10.101h-4v-2.699h-3v-10h4v2.6l3-.002zm-21.601-4.3v-3h2.601v-7.3h4v10.3h-6.601zm499.401-81.299v8.398h-4v-9h4v-8.898l.4-.5h3.6v10h-4zm-2.7 25l.399-7 4 .1-.2 2.3c-.399 1.5-.8 3.102-1.199 4.7l-3-.1zm-4.3 13.5l-.3-10.4 4-.1.2 8.1c-.2.8-.5 1.5-.7 2.3l-3.2.1zm-16-11.8l.7 7.899-4 .3-.7-7.898 4-.301zm9.2 33.5l-.2-8.101 4-.1.102 3.398c-.701 1.5-1.201 3.102-1.899 4.7l-2.003.103zm-15.5-44.2v-8h3l.601 8h-3.601zm7.399 66.2h-1.899l-.2-6.699 4-.102.102 2.802c-.701 1.3-1.301 2.698-1.899 4l-.104-.001zm-623.699-178.801l.699 3.7-3.899.7-.2-.7c.2-1.5.7-2.7 1.4-3.3l2-.4zm.5 17.601h4v9.398h-3.301c-.301-.698-.5-1.3-.699-2v-7.398zm39.4 75h-.399c-.5-.7-1.101-1.4-1.601-2.102-.7-.898-1.399-1.698-2-2.5v-5.398h4v10zm-12.701-24.701v2.3h2.699v9.8c-.699-.898-1.398-1.8-2-2.698-1-1.302-1.8-2.4-2.699-3.7-.601-1-1.301-1.9-2-2.9v-2.8l4-.002zm79.601 36h-4v-10h3.8c.1.1.2.1.2.2v9.8zm-52.601 3.701h-2c-.699-.7-1.301-1.602-2-2.301v-9.101h4v11.402zm32.301 34v-8h4v11.3h-.2c-.601-.5-1.3-1-1.8-1.5-.7-.501-1.301-1.201-2-1.8zm16.699 13.899v-1.6h4v4.7c-.699-.5-1.399-1-2-1.5-.699-.6-1.399-1.1-2-1.6zm227.401-110.1v12.6h-4v-8h-3.398v-7.8c.299-.7.601-1.2.898-1.8h3.102v5h3.398zm-9 9v6.6h-4v-1.8c.301-1.7.7-3.3 1-4.8h3zm-10.5 70.6v-10.898c.102-.2.2-.602.2-.801h3.8v11.699h-4zm293.5-104h-4v-8h2.9c.3.4.699.9 1.1 1.4v6.6zm4.7 4.7v-1h3.101c.301.4.6.8.899 1.3v3h-2.8l.1 5.602-4 .1-.301-9 3.001-.002zm7 38.3h-4v-9.398h3.5l.5 9.398zm-65.8 194.5v-5h4v2.7c-.7.4-1.4.8-2 1.2-.7.401-1.4.8-2 1.1zm-14.4 7.2c-.6.3-1.3.7-2 1h-2v-12.8h4v11.8zm-18.2-5.5l4-.3.601 11.3h-.199l-3.801.3-.601-11.3zm-21 17.601l-.101-10.899h4l.101 10.399c-.7.199-1.399.301-2 .5h-2zm-196.5-26.5h4v3.301h-.5c-.5-.2-1-.301-1.5-.4-.601-.3-1.301-.5-2-.8v-2.101zm128.4 22.199h4v8.802h-2c-.7-.102-1.399-.102-2-.2v-8.602zm-151.7-85.5h-4v-6.398h3.801s.1 0 .199.1v6.298zm-79.7 22.601h-3.2c-.3-.102-.5-.2-.8-.301v-3.301h4v3.602zm-53.9-32h4v7h-.7c-.5-.301-.9-.5-1.3-.801-.7-.399-1.301-.801-2-1.199v-5zm26.3 16.299v3.4h-.601c-.5-.302-.899-.5-1.399-.7-.601-.3-1.3-.8-2-1.102v-1.6l4 .002z"/></svg>