<svg xmlns="http://www.w3.org/2000/svg" id="beard" viewBox="0 0 3000 3000"><path id="cl1" fill="#353535" d="M1136.7 898.3c9.6.7 9 1 11.6 7.9 8.9 23.5 11.2 48.2 15.9 72.6 3.3 16.9 10.7 32.6 17.9 48.2 5.4 11.7 12.9 21.4 23 29.4 8 6.3 17.2 9.9 26.6 13.3 8.7 3.1 17.5 5.9 26.4 8 8.3 1.9 12.5 6.6 12.9 14.9.2 4.3 1.2 8.7.8 12.9-1.8 19.7 8.6 31.8 24.6 40.4 8.5 4.6 17.7 7.6 27 9.8 14.6 3.5 26.4 10.8 33.6 24.2 2.6 4.9 7 7.3 11.5 9.1 15.9 6.4 22.4 19.9 27 34.8 1 3.2 2 6.3 4 9 11.3 15.6 24.1 28.8 44.7 31.3 5.2.6 10.4 2.1 15.5 3.7 8.2 2.6 15.1 6.1 20.2 14.3 12.3 19.8 30.6 32.7 52.8 39.8 7.4 2.4 15 2.5 22.6 2.1 2.5-.1 4.6-.9 6.3-2.4 12.3-11 24.2-22.3 33.8-36 6.2-8.9 9.5-18.9 14-28.5 1-2.1 1.9-4.2 2.9-6.4 6.1 8.9 8.5 19.1 11.8 30.4 8-13.3 8.3-28.7 18.2-40.3 11.4 10.8 21.5 22.3 34.2 32.4-.3-11.6-3.5-21.6-2.1-32.8 28.4 10.3 54.7 22.9 76 46.5 2.7-11 5.2-21.1 14.4-28.3 6.1 13.4 11.7 26.4 18.9 39.2 7.8-4.9 9.5-12.9 11.6-20.3 1.3-4.7 1.6-10.2.5-14.8-2-8.3 1.9-12 8.4-15.4 11.3-6 21.5-13.3 26.7-25.7 3.7-8.9 5.2-18.4 6.7-27.8 3.3-20.5 1.6-41-.4-61.4-.6-5.7-.3-11 5-15.2 5.2-4.1 6.5-10.2 4.7-16.3-1.8-6.4 1.5-10.8 4.9-15.2 2.8-3.7 6-3.2 8.6 1 2.6 4.3 4.6 8.9 4.9 14 .5 11 2.5 21.7 3.7 32.6 1.3 11.6 1.1 23.5 0 35.1-1.1 12.3-.8 24.5-1.6 36.7-.8 12.8-5.4 24.3-11.5 35.3-12 21.8-25.3 42.8-39.3 63.3-15.8 23.2-31.9 46.3-49.9 67.9-11.9 14.2-23.6 28.5-38 40.5-16.2 13.4-34.6 22.5-55.3 24.4-11.6 1.1-23.7-1-35.3-3.9-23.8-5.9-46.4-15.1-69.2-23.8-23.4-9-47.1-17.2-70.9-25.1-15.6-5.2-30.7-11.6-45.3-19.5-11-6-22.6-11.1-33.9-16.6-16.1-7.9-31.9-16.3-47.4-25.2-16.6-9.5-33.4-18.8-49.9-28.6-22.7-13.5-45.7-26.5-67-42.5-17.6-13.2-33.9-27.6-48.7-43.8-11.6-12.6-20.2-27.2-26.6-42.9-5.1-12.6-7.3-26.1-8.8-39.6-2.9-25.3-4.5-50.8-7.4-76.1-2.4-20.9-4.8-41.9-8.3-62.8-2.4-14.6-5.3-29.2-8-43.8-2.6-14.6-6.5-28.9-10-44zm369.3 310.2c23.6-13.4 47.9-25.1 73.5-34.2 30.5-10.8 61.9-16.3 94-18.2 20.3-1.2 40.4 1.4 60 6.2 18.2 4.5 36.2 10.1 52.3 20.5 9 5.8 18.3 11.2 29.2 17.9-5.9-10.8-14-17.1-20.7-24.8 8.6-1.3 15.2 4 24.2 6.9-4.2-5.6-7.2-9.7-10.4-14 5-.9 7.1 4.5 12 4.4-3.4-6.8-9.8-11.4-12.8-19 5.2 1.4 7.5 6.3 13.1 5.3-1.3-1.6-2.2-2.9-3.4-3.9-15.8-14.5-34.2-25-53.7-33.4-20.6-8.9-42.3-14.4-64.8-16.9-18.2-2-36.5-2.6-54.6-.9-31.4 3-62 9.7-91.7 21.1-29.1 11.2-57.4 24-83.8 40.6-7.7 4.8-15.8 9.1-21.7 17.2 9.1-1.8 18.2-3.5 28.3-5.5-5.4 7.2-10.1 13.5-16.1 21.4 11.8-4.1 21.5-7 32.7-8.9-5.2 7.7-9.8 14.4-15.1 22.4 8.7-2 15.1-6.4 22.2-7 2.2 2.9-2.6 4.1-.6 6.5 3.4.2 5.5-2.3 7.9-3.7z"/><path fill="none" stroke="#000" stroke-miterlimit="10" stroke-width="6" d="M1136.7 898.3c9.6.7 9 1 11.6 7.9 8.9 23.5 11.2 48.2 15.9 72.6 3.3 16.9 10.7 32.6 17.9 48.2 5.4 11.7 12.9 21.4 23 29.4 8 6.3 17.2 9.9 26.6 13.3 8.7 3.1 17.5 5.9 26.4 8 8.3 1.9 12.5 6.6 12.9 14.9.2 4.3 1.2 8.7.8 12.9-1.8 19.7 8.6 31.8 24.6 40.4 8.5 4.6 17.7 7.6 27 9.8 14.6 3.5 26.4 10.8 33.6 24.2 2.6 4.9 7 7.3 11.5 9.1 15.9 6.4 22.4 19.9 27 34.8 1 3.2 2 6.3 4 9 11.3 15.6 24.1 28.8 44.7 31.3 5.2.6 10.4 2.1 15.5 3.7 8.2 2.6 15.1 6.1 20.2 14.3 12.3 19.8 30.6 32.7 52.8 39.8 7.4 2.4 15 2.5 22.6 2.1 2.5-.1 4.6-.9 6.3-2.4 12.3-11 24.2-22.3 33.8-36 6.2-8.9 9.5-18.9 14-28.5 1-2.1 1.9-4.2 2.9-6.4 6.1 8.9 8.5 19.1 11.8 30.4 8-13.3 8.3-28.7 18.2-40.3 11.4 10.8 21.5 22.3 34.2 32.4-.3-11.6-3.5-21.6-2.1-32.8 28.4 10.3 54.7 22.9 76 46.5 2.7-11 5.2-21.1 14.4-28.3 6.1 13.4 11.7 26.4 18.9 39.2 7.8-4.9 9.5-12.9 11.6-20.3 1.3-4.7 1.6-10.2.5-14.8-2-8.3 1.9-12 8.4-15.4 11.3-6 21.5-13.3 26.7-25.7 3.7-8.9 5.2-18.4 6.7-27.8 3.3-20.5 1.6-41-.4-61.4-.6-5.7-.3-11 5-15.2 5.2-4.1 6.5-10.2 4.7-16.3-1.8-6.4 1.5-10.8 4.9-15.2 2.8-3.7 6-3.2 8.6 1 2.6 4.3 4.6 8.9 4.9 14 .5 11 2.5 21.7 3.7 32.6 1.3 11.6 1.1 23.5 0 35.1-1.1 12.3-.8 24.5-1.6 36.7-.8 12.8-5.4 24.3-11.5 35.3-12 21.8-25.3 42.8-39.3 63.3-15.8 23.2-31.9 46.3-49.9 67.9-11.9 14.2-23.6 28.5-38 40.5-16.2 13.4-34.6 22.5-55.3 24.4-11.6 1.1-23.7-1-35.3-3.9-23.8-5.9-46.4-15.1-69.2-23.8-23.4-9-47.1-17.2-70.9-25.1-15.6-5.2-30.7-11.6-45.3-19.5-11-6-22.6-11.1-33.9-16.6-16.1-7.9-31.9-16.3-47.4-25.2-16.6-9.5-33.4-18.8-49.9-28.6-22.7-13.5-45.7-26.5-67-42.5-17.6-13.2-33.9-27.6-48.7-43.8-11.6-12.6-20.2-27.2-26.6-42.9-5.1-12.6-7.3-26.1-8.8-39.6-2.9-25.3-4.5-50.8-7.4-76.1-2.4-20.9-4.8-41.9-8.3-62.8-2.4-14.6-5.3-29.2-8-43.8-2.6-14.6-6.5-28.9-10-44zm369.3 310.2c23.6-13.4 47.9-25.1 73.5-34.2 30.5-10.8 61.9-16.3 94-18.2 20.3-1.2 40.4 1.4 60 6.2 18.2 4.5 36.2 10.1 52.3 20.5 9 5.8 18.3 11.2 29.2 17.9-5.9-10.8-14-17.1-20.7-24.8 8.6-1.3 15.2 4 24.2 6.9-4.2-5.6-7.2-9.7-10.4-14 5-.9 7.1 4.5 12 4.4-3.4-6.8-9.8-11.4-12.8-19 5.2 1.4 7.5 6.3 13.1 5.3-1.3-1.6-2.2-2.9-3.4-3.9-15.8-14.5-34.2-25-53.7-33.4-20.6-8.9-42.3-14.4-64.8-16.9-18.2-2-36.5-2.6-54.6-.9-31.4 3-62 9.7-91.7 21.1-29.1 11.2-57.4 24-83.8 40.6-7.7 4.8-15.8 9.1-21.7 17.2 9.1-1.8 18.2-3.5 28.3-5.5-5.4 7.2-10.1 13.5-16.1 21.4 11.8-4.1 21.5-7 32.7-8.9-5.2 7.7-9.8 14.4-15.1 22.4 8.7-2 15.1-6.4 22.2-7 2.2 2.9-2.6 4.1-.6 6.5 3.4.2 5.5-2.3 7.9-3.7z"/></svg>