<svg xmlns="http://www.w3.org/2000/svg" id="beard" viewBox="0 0 3000 3000"><path id="cl1" fill="#303030" d="M1537.6 1325.6c4.6-5.6 9.8-10.5 12.4-17.3 5.1-13.3 6.1-27 4.9-41-1.6-17.8-8-34.1-13.9-50.7-7.3-20.7-10.9-41.5-3.8-63.2 6.5-19.7 19-34.2 37.3-43.2 14.3-7.1 29.6-10.9 46-11.3 13.6-.4 27.2-.4 40.8-.9 6.8-.3 13.2 1.3 19.7 2.6 8.8 1.7 14.5 7.5 17.3 15.8 1.5.1 2.5-.1 2.9-1.1 4.5-10.7 13.7-14.1 24-14.9 13.9-1.1 28-.7 41.3 4 19.5 7 30.3 21 33.6 41.7 3.7 23.6-.4 45.4-11.6 66.2-4.1 7.6-8.1 15.3-12 23-9.3 18.6-12.6 38.4-10.9 58.9.5 6.6 4.5 12.4 4.7 20.1-15.9-17.1-25.9-36.2-26-59.1-.1-13.9 4.6-27.3 9-40.5 3.6-10.7 7.1-21.4 6.8-32.9-.2-4.8-1.2-9.2-3.7-13.3-4-6.3-9.2-10.1-17.3-8.8-6.5 1-12.9 1.5-19.7.4-9.9-1.6-17.7-5-20.6-17.3-4.1 10.9-10.8 17.4-20.7 18.5-9.2 1.1-18.5 1.4-27.8-.6-13-2.9-26.2-4.4-39.6-3.6-22.7 1.4-35.3 15.3-36.6 38-.7 11.3.2 22.5 3 33.5 2 7.7 3.5 15.5 4.2 23.4 1.7 18.7-1.1 36.2-14.4 50.9-7.1 8-14.5 15.5-23.6 21.2-1.5 1.2-3 2.5-5.7 1.5z"/><path fill="none" stroke="#000" stroke-miterlimit="10" stroke-width="6" d="M1537.6 1325.6c4.6-5.6 9.8-10.5 12.4-17.3 5.1-13.3 6.1-27 4.9-41-1.6-17.8-8-34.1-13.9-50.7-7.3-20.7-10.9-41.5-3.8-63.2 6.5-19.7 19-34.2 37.3-43.2 14.3-7.1 29.6-10.9 46-11.3 13.6-.4 27.2-.4 40.8-.9 6.8-.3 13.2 1.3 19.7 2.6 8.8 1.7 14.5 7.5 17.3 15.8 1.5.1 2.5-.1 2.9-1.1 4.5-10.7 13.7-14.1 24-14.9 13.9-1.1 28-.7 41.3 4 19.5 7 30.3 21 33.6 41.7 3.7 23.6-.4 45.4-11.6 66.2-4.1 7.6-8.1 15.3-12 23-9.3 18.6-12.6 38.4-10.9 58.9.5 6.6 4.5 12.4 4.7 20.1-15.9-17.1-25.9-36.2-26-59.1-.1-13.9 4.6-27.3 9-40.5 3.6-10.7 7.1-21.4 6.8-32.9-.2-4.8-1.2-9.2-3.7-13.3-4-6.3-9.2-10.1-17.3-8.8-6.5 1-12.9 1.5-19.7.4-9.9-1.6-17.7-5-20.6-17.3-4.1 10.9-10.8 17.4-20.7 18.5-9.2 1.1-18.5 1.4-27.8-.6-13-2.9-26.2-4.4-39.6-3.6-22.7 1.4-35.3 15.3-36.6 38-.7 11.3.2 22.5 3 33.5 2 7.7 3.5 15.5 4.2 23.4 1.7 18.7-1.1 36.2-14.4 50.9-7.1 8-14.5 15.5-23.6 21.2-1.5 1.2-3 2.5-5.7 1.5z"/></svg>