<svg xmlns="http://www.w3.org/2000/svg" id="beard" viewBox="0 0 3000 3000"><path id="cl1" fill="#3C3B3B" d="M1491.8 1252.5c2.2 12.2 7.1 24.1 1.9 37.1-2.2 5.6.4 11.7 4 15.6 4 4.3 6.1 9.2 7.7 14.3.8 2.6 1.9 4.6 3.3 6.8 1.8 2.9 2 6.7.8 10.7-1.3-.9-2.8-1.3-2.9-1.9-.3-7.7-5-13.3-8.5-19.6-.2-.3-.1-.7-.2-1-1-2.9-3.4-3-5.7-2.3-2.8.9-1.9 3.2-1.1 4.9 3.5 7.9 3.6 16.2 4 25.5-4.7-1.6-4.8-5.1-4.9-8-.5-9.9-2.1-19.4-7.6-28-1.2-1.9-1.3-4.9.9-7.3 3.7 1.7 1.3 6.4 4.4 8.3.6-8.6 0-16.9.8-24.9.6-5.9 3.6-11.4 1.5-17.8-1-3.1-1-6.5-1.3-9.8-.1-.9.4-1.8.7-2.7.8.2 1.5.2 2.2.1zm179.8-132.6c1.8-2.4-.2-5.5 2.1-9.7-1.1 9.3 9 6.4 10.1 12.5 8.1-3.5 6 3.7 7.5 7.2.9 2.1-.5 5.7 4.3 5.9.4-9.3 3.3-18.4 2.1-27.9-.6-.5-1.2-.7-2-.6-.7.4-1.2.8-1.6 1.5-.1.4-.2.7-.2 1.1-2.1 1.6-2.6 4.7-5.5 5.5-3.2.9-2.3-3.2-4.8-3.9-3.9-1.1-7.8-2.7-6.2-8.6.3-1.2-1.4-5.3-5.2-4.4-2.4 3.2 2.9 11.3-6.5 10.1-1.3-.2-1.6 1.8-1.7 3.1-.1 1.6.3 3.5-1.7 4.2-5.8 2.4-2.3 6.5-1.7 9.9.2 1.4 2 1.7 3.3 1.4 1.4-.2 2.2-1.3 2-2.8-.2-1.9-.7-4-.2-5.8.3-1.2 2.2-2 3.3-3 .3 1.2.5 2.5 1 3.7.1.3 1.1.3 1.7.5l-.1.1zm62-10c1.9-7.9-5.1-7.3-9.3-10 2.1 5.2-.6 9.9-.5 14.7.1 2.7-1 4.9-3.9 4.2-2.8-.7-2.2-3.7-1.9-5.8.1-1 2-1.6 2.6-2.7 2.2-3.8 1.2-5.8-3.1-6.8-1.9-.4-3.9-.9-5.7.3l.2-.2c-.6 8.1.1 16.2 2 24.1.6 2.6-1.9 7.2 2.2 7.4 3.5.2.5-4.4 2-6.3.8-1 1.8-2.6 2.6-2.6 1.6.1 3 1.3 3.1 3.3.2 2.7-.4 5.9 4.3 7.3-1.1-5.3 6.1-11-2.8-14.4-1-.4-1-2.1-.4-2.4 4.5-2.3 3-9.5 8.9-10.5l-.3.4zM1572 1346.6c.9 2.8.5 4.8-.5 7.8-2.6 7.8-6.8 16.1-2.7 24.9 4.3-2.9 2.8-8.8 7.4-13.4-2.2 6.1 3.7 5.3 4.8 8.4 1 3.2-.1 7.2 3.6 9.8 2.6-3 1.8-6.4 1.3-8.7-.7-3.1 2.9-9.4-5.2-9.1-1.8.1-3.3-10.9-1.7-11.3 5.2-1.1 2.7-4.5 2.5-7-.4-3.9-1.3-7.8-2.2-12.3-6.6 1.6-9 5.1-7.3 10.9zm-69.5-63.9c7.6 5.6 7 5.7 9.7 11.8 1.7 3.8.4 9.4 6.5 12.1.1-8.4-2.8-15.2-5-22.2-.3-.9-5.6-.3-.9-2.3 1.3-.6 1.9-5.7 4.5-1.3.7 1.2 1.4 2.4 3 1.8 1.5-.6 1.6-2.3 1.1-3.3-1.6-3.4-.2-7.9-4.5-10.4-4.2-2.5-7.2-6.4-8.3-12.2-4.2 4-.9 7.1-1.3 10-.4 2.5 4.4 4.6.1 7.4-4.9 3.2-3.3-4.7-8.1-3.1 1 3.6-1.3 8.3 3.2 11.7zm313.7-37c-.6 5.6 1.5 10.5 3.1 15.5.3 1 1.6 4-1.2 3-2.9-1-2.2 2.7-3.8 2.1-3.2-1.3-5.3-6.8-4.3-10.3 2-7 .4-10.6-6.9-14.9.1 4.6 6.2 6.8 4.2 11.6-4.9 11.6 5.1 17.6 9.1 26.6 10.2-15.8 10.1-26.8-.2-33.6zm-23.5 4.7c1.3 3.3 1.7 7.1 2.3 10.6.1.8-.5 2.3-1 2.4-1.1.3-2.7 1-3.4-.8-.5-1.2-.8-2.5-1.2-3.8-.2-.8-.7-1.2-1.4-.9-.6.2-1.5.7-1.5 1 .6 4.5 1 9.1 2.1 13.5.9 3.3 4.7 2.2 6.6 4 2-2.1-.2-4.9 1.9-6.3 3.1.8.7 5.6 5.3 5.6-1.7-11.5-1-23.1-7.1-35.4-1.9 4.3-4.1 6.3-2.6 10.1zm-296.6-24.2c-.1-4.9 0-9.3-3.1-13.9-1.9-2.8-3.4-7.4 1.6-11.1 3.2-2.3.8-7-.8-10-1.4-2.6-4.6-1.4-6.9-.7.9 9.4-1.4 19.2 4.5 27.6-3 9.6 1.6 18.2 4.2 27.3-.2-6.5.7-12.8.5-19.2zm281 47.9c-.3 6.3-1 10.2-7.6 12.8-3.8 1.5.4 5.9 0 9.1-.2 1.8 1.2 3.2 3.2 2.8 2.9-.6 5.9-1.3 7.3-4.4.4-.8.1-2-.2-2.9-.6-2.3.5-4.5 2-5.3 5.3-3 3.1-7.2 2.4-11.2-.8-3.9-1.7-7.7-2.9-13.4-2.8 4.9-4 9.5-4.2 12.5zm-443.4-.2c1-2.8 1.9-5.6 4.8-1.1.5.8 2.1.3 2.5-.6 1.1-3-.8-5.7-1-8.6-.2-2.2-2.1-2.2-3.8-1.4-2.4 1.1-1.6-1-1.7-1.8-.2-2.5-1.2-4.9.4-7.7 1.7-3 .2-5.5-2.9-6.6-3.8 2.2 2.4 6.5-2 7.5-3.6.9-1.7-5.6-5.6-5.4-.4 0-.8-1-1.2-1.5-1.3-1.5 0-5.8-3.7-4.3-3 1.3 0 4.1-.1 6.2-.2 2.9 3 4.6 3.4 6.2 1.3 4.7 6.9 4.4 8.2 8.8 1.6 5.1-.7 9.5-1.3 14.2 3.8 1.4 2.5-2.9 4-3.9zm448.4-26.5c-.7 3 .3 6.2 4 9.7-.9-8.9 6-15.2 2.3-23.1-.4-.9.3-2.1 1.3-2.2.9-.1 1.8.3 2.7.6 1.7.6-.3 4.5 3.4 3.6 1-5-.7-9.7-2.2-14.4-.7-2-1.9-2.5-3.7-2.5-2.2.1-2.4 1.7-2.6 3.4-.3 1.8 1.3 3.8-.9 5.5-.1-1.4-.1-2.7-.3-4-.1-1.6.2-3.3-2.7-6.1.3 10.7.9 20.1-1.3 29.5zm-180.5-97.6c2.9-11.2-7.9-18-8.9-28-.1-1.2-2.5-.8-3 .6-.8 2.2-.3 4.5.4 6.8 1.1 3.5 3.8 8.3-4 6.7-1-.2-1.7.8-1.9 1.8-.8 3.4 3.3 9 7.2 9 4.7 0 1.9-3.9 2.6-6l.6-1.8c3.4 2.9.8 9.9 7.3 10.6l-.3.3zm-30.5-22.3c-1.5 1.2-1.9 3.4-1.2 4.4 3.8 5.1 1.5 10.8 2.3 16.2-.8-.7-1.5-1.5-1.7-2.4-.5-2 .5-5.5-3.3-4.3-2.7.9-2.2 3.8-1 5.9 3.7 6.2 4.8 13.4 7.1 20.7 3.6-3.7 3.3-7.2 2.5-10.9-.3-1.6-1.7-3.1-.8-4.7 4.9-8.7 2.5-16.7-2-24.6-.4-.9-1.1-1-1.9-.3zm23.4 238.9c-.7-3.5-4.4-1.9-5.7-4.7-2.3-5 5-2.7 4-5.9-1.2-3.9-.8-7.8-.7-11.8.1-5.8-2.9-7.4-8.1-5.8 0 1.1-.2 2.1 0 3 1.3 4.9 4.9 9.4.5 15.1-1.2 1.5-1.1 8.1 3.9 9.4 2.6.7 2.7 2.2 3 4.3.3 2.2.2 4.8 3.5 5.7 1.5-3.3.2-6.2-.4-9.3zm-30.5-224.2c-.2-2.9-.8-2.5-6.1-3.3-3.9-.5-2 2-2.5 3.2-1.4 3.5 3.9 6.9 2.3 8.5-5.9 6.1 1.1 11 .7 16.4-.1 1.3 1.3 2.2 2.9 1.9 1.5-.2 2.8-1.6 2.2-2.6-3.7-5.7 3.6-10.8.6-15.5-.1-3.4.1-6-.1-8.6zm63.9 211.3c-.1-1-.2-2-.3-2.9-.2-2.4-.6-4.8-3.9-4.3-2.7.4-3.7 2.2-4 4.8-.5 3.4.1 6.6 1 9.7 1.4 4.8 5.2 9.5.1 14.6-.2.2-.7 6.3 2.2 6.6 4.9.5.8-3.9 2.1-5.6 1.4-1.8 3.7-3.5 2.5-5.9-2.6-5 .2-9.5.5-14.2.8-1 .8-1.9-.2-2.8zm-210.8-28.6c.3-1 .7-1.9.9-2.8 1-4.7-6.2-10 1-14.3.1-.1-.5-1.2-.5-1.8.5-6.1-4.2-8.9-9-13.1.3 16.2 2.8 26.7 7.6 32zm92.7-96.9c-2.2-2.4-2.5-6.3-7.3-9 .8 12.8 6.1 22.8 8.5 33.5.2 1 .9 2.8 2.7 2.2 2.1-.6 2-2.5 1.6-4.1-1.8-7.7-3.8-15.3-5.7-22.9l.2.3zm26.3-87.4c0-2-1.3-3.2-3-3.3-1.5 0-1.6 1.6-1.9 2.9-1.7 7.3 1 14.3.7 21.5-.2 4.3 3.8 2.5 5.4 4 .6.6.6 1.9.6 2.8.1 1.7.4 3.5 2.7 3.1 2.2-.4 2-2.5 1.7-4-.6-2.6.7-6.4-3.8-7-2.7-.4-2.5-2.9-2.6-4.7-.2-4.5-1.7-9.1.2-13.1v-2.2zm-213.8 126.7c-1.2 3.9-.9 8.5 1.6 10.2 4.7 3.1 3.6 7.2 4 11.3.3 3 .6 6.4 4.9 7.2 0-4-1.4-9.3.3-10.7 5.1-4.2.7-7.7.6-11.4-1.4 1.3-2.8 2.6-4.1 3.8-5.7-1-1.1-9.1-7.3-10.4zm377.5-167.1c.4-1.9 1-4-1.6-4.8-1.6-.5-3.1-.1-4.1 1.7-2 3.4-5.8 3.8-9 5-1.1.4-1.2-1.1-1-2-3.8-.6-3.6 1.4-2.4 3.9 2 1.3.6 6.5 3.8 5.3 3.4-1.3 5.5 2.4 8.4.7l-.2.1c2.8 1.7-2-6.1 2.6-2.1h1.4c3.8-1.8 1.6-5.2 2.1-7.8zm-180.4 261.5c5.3-2.9 6.1-9 .6-12.1-4.5-2.5-4.3-4.8-2.8-8.6 1.9-4.7 2-9.2-2.9-13.8-1.1 5.8-.5 10.9-2.4 15.7-1 2.7 0 7.2 2.3 8 6 2.1 5.2 6.5 5.3 10.9l-.1-.1zm192.4-257.7c.3-2.6 1.2-5.6-2.8-6.1-2.2-.3-7.6 5.8-7.7 8.1-.1 1.3 2 1.6.7 3.9-3.9 6.5-3.4 7.1 3.5 12 .7-3.3 1.4-6.5 2-9.7.2-.9.2-2.2-.3-2.9-4.1-6.7 1.7-4.9 4.6-5.5.1 0 0 .2 0 .2zm-403.7 155.9c2.5 4.9 5.5 9.5 8.3 14.2 1.4-5 3-9.8-2.5-12.5-1.9-1-2.2-3-.7-3.8 6.1-3.5 1.6-7.6.1-11.8 1.7 6.1-8.4 7.6-5.2 13.9zm41.4 25.6c-.3-1.7-.9-3.5-2.9-3.2-1.5.3-4.1 1.5-4.1 2.3.1 4.5-3 7.8-3.5 11.8-.3 1.9-.1 5 3 5.5 3.4.5 1.8-2.6 2.6-4 .7-1.3 2.2-2.4 3.5-3.3 2-1.3 2.3-3.1 2.1-5.2-.3-1.3-.4-2.6-.7-3.9zm256.6 68.6c-.3-4.4-1.6-8.3-4-11.8-.5-.7-1.6-1.4-2.5-.4-.6.6-1.4 1.5-1.4 2.4-.1 5.8-.1 11.6 2.5 17.9 4.1-2 5.7-4.3 5.4-8.1zm181.6-50.3c1.9 4.2 3.6 8.9 10 4.9-.2-7.2-3.9-13-8.2-20-2.1 5.9-2 10.6-1.6 15.3l-.2-.2zm-148.6 73.3c2.1-8.8-2.3-14.4-4.1-20.7-1.4-5.1-4.2-3.3-7.1-2.9v2.8c3.5 6.5 5.9 13.6 11.2 20.8zm146.4-182.4c1.9-10.3 7.3-20 4.2-30.9-.2 10.5-10.2 19.8-4.2 30.9zm-275.7-14.2c-.8-1.9-2-3.9-4.3-3-2.9 1.1-2 4-1.3 6 1.1 3.6 1.3 8.3 7.3 7.6.4 0 .1 4.3 3 3.9 2.6-.4 2.1-2.9 2-6.2 3.7-5.9-5.1-4.7-6.7-8.3zm14-6.7c1.4.6 2.3 2.6 4.3 1.8 1.7-.7.7-2.1.6-3.3-.4-3.2-1.1-6.2-2.9-9.1-1.4-2.3-2.1-3.6-5.1-1.9-2.2 1.3-5.4 1.2-4.5 5 .5 1.9 1.2 3.7 1.8 5.6 1.4 2 4.2 0 5.8 1.9zm88.6 198.5c5.7-2.6 3.5-6.7 2.5-10.6-.3-1.2-2.6-2.3-2.6-2 .1 4.6-8 3-6.5 8.8.7 2.8.7 5.8 2.7 8.2 3.5-.4 2.6-3.8 3.9-4.4zm175.5-68.3c-1.5-.5-3.5-3.8-4.3-.2-.6 2.8-1 5.4-2.1 8.2-2 5.4 1.3 10.9 5.9 12.4 1.5.5 2.5.6 3.4-.6 1.1-1.7-.4-2.5-1.6-2.8-2.3-.5-4.7-2.1-3.1-3.7 4.3-4.4 1.8-9 1.5-13.6l.3.3zm-141.8-185.4c.2-1-.2-2.3.3-2.9 4.8-5.7.8-11.7 1-17.6 0-1.3-.9-1.6-1.8-1.9-1.2-.4-2 .5-2.4 1.3-.6 1.1-1.4 2.7-1.1 3.7 1.9 5.5 1.1 11 .2 16.5-.2 1.2.8 2.5 2.9 3.1.4-1.1.8-1.6.9-2.2zm-138.1 87c.5-3.6-.4-7.2-1.7-10.7-.3-1-.8-1.8-1.9-1.9-1.6 0-2.7.9-2.4 2.4.5 2.5.5 4.3-2.8 4.7-1.6.2-1.8 2.1-1.2 3.2 1.5 2.6 0 6.1 3.5 9.4 2.2-3 6-3.7 6.5-7.1zm-54.3 114.8c.5.8 1.2 1.6 2.3 1.2.9-.4 1.8-1 1.4-2.2-2.2-7.1-3.6-14.4-4.5-21.8-.1-.6-1.4-1.1-2.2-1.7-2 10.2-1 18.1 3 24.5zm306.8-15.7c-.5-1.7.1-4.7-2.6-4.4-3.4.4-.9 2.9-1 4.6 0 1.5 1.3 3.5-.3 4.6-6.3 4.1-.5 8.7-.6 13 0 1.4 2.8 1.5 2.8.5 0-4 .9-7.5 3.7-10.1-.7-3.2-1.3-5.7-2-8.2zM1548.1 1150c-2.3-.2-4.6-.7-4.2 3.2.6 6.3 2.4 12.2 5.4 19.2 3.5-5.9 3.5-10.6.5-15.2-1.5-2.3-2.4-4.6-1.9-7.4l.2.2zm-41.7 149.4c-1.6-1.9-2.3-3.6-3-5.8-.6-2.1-.2-6.4-4.2-5.4-3.5 1-1.3 4.5-1.3 6.8 0 1.7.4 3.8 2.1 4.2 5.1 1.3 5 5.4 5.6 9.3.3 1.8 1.4 3 3.8 3 2.1-4.7-.3-8.8-3-12.1zm256.9-165.9c-4 6 .7 13.6-3.6 19.7-.7 1 1.2 1.8 2.7 1.1 1.5-.8 3.1-1.5 3.2-3.5.1-5.3.3-10.5 2.5-15.5.6-1.4 0-3.3-2.7-4.1-1.2-.1-1.4 1.2-2.1 2.3zm-127.7-9.4c.9-6.1-1.1-11.6-2.8-17.2-.8-2.8 3.4-8.1-1.5-8.4-3.2-.2-.1 6.3-2 9.4-.6 1-.4 2.7-.1 3.9 1.2 4.5 1.1 9.8 6.5 12.1l-.1.2zm-106.2 196.2c.4 2.8 3 3.2 5 4.1 2.1 1 3-.5 3.1-2.3.2-5.2-2.8-9.4-8.7-12-1.9 4.1.2 7.1.6 10.2zm186.2 29.4c-3.1 10.2 4.7 13.5 9.4 20.3 2.9-11.3-4.7-14.4-9.4-20.3zm-195.3-206.6c-8.3 4.3-8.2 4.2-.7 9.5 1.2.8 1.7 3.1 3.5 2.1 1.4-.8 2.2-2.6 2-4.3-.2-2.6-.9-5.1-1.5-8.7-1.5.7-2.5 1-3.3 1.4zm36.8 182.3c-5.9 8.9-1.4 14.9 4 20.7.7-7.1.5-14-4-20.7zm36.9-174.3c-.4-1.6-2.8-1.4-4.5-1.1-2.2.4-2 2.2-2.1 3.8-.4 6.1 6.3 7.1 7.7 13.6 4.2-7.2-.1-11.6-1.1-16.3zm-72.4 180.9c3.1-6.7 6.7-12.1 1.2-19.1-6.4 6-5.6 11.8-1.2 19.1zm225.6-198.3c.1 2.2-1.6 5.5 2.5 6.1 2.2.3 4.7-.5 5.9 2.2.6 1.4 1.8 2.3 3 1.3.8-.7 1.2-2.3 1.3-3.5.1-2.6-5.9-8.4-8.3-8.5-1.9.1-4.5-.7-4.4 2.4zm-45.7-1.5c.8 5.3 6.5 4.2 9.3 8.1 2-6.8-2.1-11.3-2.4-16.9-3 2.6-7.7 3.5-6.9 8.8zm-157.2 187.5c-3.4.3-3.1 3.1-2.8 5.3.5 3.3-.5 7.8 4.9 8.2 3.4.2 3.8-1.8 3.4-4.5-.2-6.1-2.2-9.3-5.5-9zm-105.6 2.6c.2 1.9.4 3.8.8 5.7.5 2.4 7.2 11.1 8.3 10.9.3-.1.8-.3.8-.5-.2-4.7.7-9.8-4.6-12.7-1.8-1-1-5-4.4-4.2-.4.4-.9.6-.9.8zm38.2-.9c-3.4-2-3.6-5.3-4.4-8.4-.4-1.6-.4-3.6-2.8-3-2 .5-1.7 2-1.5 3.9.6 7 7.8 11 8.1 18 0 .3 1.1.7 1.6.6 1.6-.4 1.7-1.7 1.7-3.9-1.6-1.5.1-5.5-2.7-7.2zm27.4-159.5c.5 2.9.9 5.8 2 8.5.8 2 6.1 2.8 6.8 1.4 1.6-3-.4-5.9-1.2-8.6-.6-2.1-3.5-2.5-5.5-3.1-1.4 0-2.3.8-2.1 1.8zm265.7 154.8c1.4-7.7-1.2-14.3-5.5-20.7-.1 7.4-.3 15 5.5 20.7zm-114.9-195.1c.4-.3-.6-2.3-.9-3.6-.2-1.1-.7-1.8-1.8-1.8-1.4 0-3.3.9-3.1 1.8 1 6-4.3 12.6 2 19.3 2.1-5.9-1.3-11.8 3.8-15.7zm-278.3 179.7c-.1-.8-1.3-1.5-2.4-1.1-1 .4-1.3 1.1-1.2 2.3.4 6.2 2.6 11.6 7.2 18 1.8-8.3-2.8-13.4-3.6-19.2zm231.2-176.4c1.5 8.9-3.3 18.5 4.4 26.5-3.1-8.6 3.2-18.7-4.4-26.5zm-60.1 24.9c1.3-.7 3.6-.2 3.8-2.3.7-6.3-2.9-12-2.6-18.2 0-.3-.9-.8-1.5-1-1.3-.5-1.9.6-2.1 1.4-.7 2.9-.3 5.9.5 8.8 1.1 3.8 2.1 7.6 2 11.6.1-.1-.1-.3-.1-.3zm118.4 224.9c0 .8.8 1.1 1.6.7.5-.3 1.4-.7 1.4-1.1.4-4-.1-10-2.8-10.5-4.7-.8-3.8-3.5-4.5-6.1-.5-1.8 0-4.2-3.6-4.5-3.5 9.9 7.7 13.6 7.9 21.5zm-156.7-146.9c1.4.8 2.6 1.9 3.9-.3 3.4-5.6 2.5-10.3-3.4-15.6-2.5 5.4-1.1 10.8-.4 16.2.1-.1-.1-.3-.1-.3zm70.7-106.2l-.2.1c-1.1-2.8 1.4-6.7-2.2-8.8-6.8 3.1-9.6 7.6-6.7 14.7.7.1 1.4.2 2.1.4 1.1-3.5 1.9-7.4 7-6.4zm178 210.3c-.2-1.5-.3-3.9-2.5-3.4-3.2.7-1.1 3-.8 4.7.9 4.5 1.9 9 2.8 13.6.3 1.8.8 3.2 3.6 3 .6-6.3-2.2-11.9-3.1-17.9zm-234.9-142.1c.2-4.9-.6-9.2-2.3-13.4-1.2-2.8 1.5-2 2.7-2.6-1.5-2-3.7-1.9-5.9-1.9-2.7 9.4-1.5 13.6 5.5 17.9zm17.9 147.6c.9 7.6 1 14.1 5.2 20.7 1.8-9.5.4-15.5-5.2-20.7zm-1.1 33.3c-.3-6.6-.5-12.5-5.4-17.4-1.9 8.3-.4 13.4 5.4 17.4zm-156.7-85.1c1.4-7.6-.1-13.2-5.8-17.7-.1 6.1.8 12 5.8 17.7zm346.9 61.3c2.1-7.2.4-12.7-7.1-16.5-1.2 7.6 6 10.8 7.1 16.5zM1506 1339c-.3-.9-1-1.5-2.2-1.4-1.3.1-1.7 1.1-1.8 2-.7 4.9 0 9.4 3.8 14.2 3.5-5.7 1.6-10.3.2-14.8zm268.7-20.3c-.1 8.7 0 9.3 5.6 17.2.2-6.2 0-12.2-5.6-17.2zm-334.2 1.1c.7-8.8-1.8-14.3-5.6-19.4-2.1 7 .5 12.4 5.6 19.4zm261.4 35.9c.5 6.2-1.8 12 2.5 17.4 3.3-7.6 2.7-12.8-2.5-17.4zm-408-118.2c-.3 6.5-2 12.7 2.8 18.8 2.5-11.1 2.1-14.3-2.8-18.8zm498.9-88.9c-.4-.8-1.8-1-2.6-.3-4 3.8-2.7 8.1-1.1 14.7 3.8-5.8 6.2-9.6 3.7-14.4zm-370.2 148.5c2.3.3 3.6-2 2.8-4-1.3-2.8 0-7.8-5.6-7.5-2.5.1-2.1 1.7-2.1 3.4.7 3.2.1 7.6 4.9 8.1zm-119.7-66.5c-4.1 6.6-2.1 11.5 1.6 16.1 1.8-5.2 2.7-10.3-1.6-16.1zm230.3 103.9c-.2-.8-1-1.7-1.8-2.1-1.1-.5-1.4.7-1.9 1.5-3 4.8-2.3 9.2 1 14.5 4.4-4.8 3.7-9.4 2.7-13.9zm74.1 8.2c.2 6.1.2 6.1 8.1 9.7.5-7.1.5-7.1-8.1-9.7zm-46.2-218.9c-1.9 0-3.5 1-3 2.9.7 2.6.2 6.5 4.6 6.5 2.6 0 3-2.1 3-4.8-.2-2.3-1.1-4.6-4.6-4.6zm65.1-3.9c0-1.2-.7-2.7-2.5-2.3-2.2.5-2.4 2.8-1.8 3.8 2.4 3.8 2.9 8.9 7 11.7 5-5.8-2.6-8.6-2.7-13.2zm-130.3 65.1c1.6-7.5-.5-12.9-3.9-18-2.6 6.4-.4 11.7 3.9 18zm145.2 173.5c2.2-.1 4.3-1.5 4.5-4.4.2-2.9-2.7-5.3-5.9-4.9-2.4.3-2 2-2.1 3.5.6 2.4-.4 6 3.5 5.8zm177.5-115.1c-.6-4.4 0-9-3.3-13.6-6.4 6.6-5.9 8.3 3.3 13.6zm-75.9-125.8c.5 3.1-3.3 6.6.2 10.5 3.5-7.2 5.4-13.7-1.6-20.4-3.2 4.4 1 6.8 1.4 9.9zm-80.7-13.4c-.6-.2-1.3-.4-1.9-.4-2.3-.1-5.5-2.3-6.1 2.2-.4 2.8.6 6.3 2.8 6.8 3.6.8 4.9-2.5 5-5.8v-3l.2.2zm139.5 182.3c-.4 4.6-.1 8.9 4.6 13.2-.7-8.4 1.4-15.9-4.4-22.1-1.3 3-1.4 5.9-.2 8.9zm-221.2-164.9c-2.4 2.3-3.3 5.1-2.1 8.1.9 2.3 3.2 3.9 5.5 3.4 3.2-.8 1.9-3.4 1.4-5.7-.6-3-3-4.1-5-5.7l.2-.1zM1684 1150c.3 1 .8 1.8 2 1.8.6 0 1.6-.4 1.6-.6-.6-4.8 8.4-7.2 1.9-14.6-1.5 5.3-7.3 7.5-5.5 13.4zm-114.7 190c-.3-1.2-1.5-2.1-3.1-1.9-1.7.2-2.3 1.4-2.2 2.7.2 2.2 1 4.4 1.3 6.7.3 1.8.8 3.4 2.9 3.2 2.3-.2 1.7-2.3 1.9-3.6-.2-2.5-.2-4.8-.8-7.1zm10.9-175.2c1.5 1 3.5 2.7 5.1 1.2 1.8-1.7.9-3.4-1.4-4.4-3.1-1.4-.5-5.9-4.8-7.5-1.9 7.5-1.9 8.6 1.1 10.7zm-181 153.4c1.3-7-.2-12.1-4.2-16.5-.6 5.6-.8 11.1 4.2 16.5zm431.9-77c3.7-7.4-4.6-8.5-6.5-14.5-1.1 11.7-1.1 11.7 6.5 14.5zM1362 1309c-.1-5.8 1.2-11-6.6-14.8.7 6.7 0 11.8 6.6 14.8zm273.8-185.1c-.1 4.5.3 8.8 4.7 12.5 2.3-4.9 1.6-8.7-1.3-12.2-1-1.2-2.4-.5-3.5 0-.1-.1 0-.3.1-.3zm159.6 158.7c.6 3.9-.3 8.3 3.2 11.4 3.2-2.2-.1-5.9 2.9-7.4.1-2.9.2-5.9.2-8.8-2 1.6-2.9 4.9-6.3 4.8zm-72.4-133.2c-.7 2.5-3.8 6.2.7 6.9 3 .4 2.4-4.7 3.4-7.1.8-1.9-.3-4.9-2.5-7.3-2 2.9-.9 5.4-1.6 7.5zm58 .9c-4.3 6.4 2.5 11.3 2.5 17.1 4.8-6.6-2.5-11.2-2.5-17.1zm-568.5 41.7c-.8-.4-2.2-.2-2.5.9-1.5 4.9 1.5 7.8 5.5 10.5-.9-3.9 2.4-8.9-3-11.4zm527.1 139.6c.1.8.7 2 2 1.5.6-.2 1.5-.9 1.4-1.1-1.2-4.4.2-9.6-4.6-14.1-1.7 5.8.5 9.7 1.2 13.7zm-29.1 24.8c1.1-6-.3-10.1-2.5-14-3.3 4.8-1.5 8.8 2.5 14zm-426.4-123.7c-.2-.9-.8-1.9-2.1-1.5-1 .3-2.1.9-1.7 2 1.1 3.3.3 7.3 4.2 10.5 2.9-4.3.3-7.6-.4-11zm390.4 129.4c-.1-.2-1.6.4-1.6.6.2 3.8-.2 7.7 2.2 11.1.3.4 1.2.5 2.2.8 1.1-4.7.3-8.9-2.8-12.5zM1248 1201.8c-3.8 3.5-.1 7.3-.5 10.9-.1 1.2 1.3 2.4 2.7 1.8.7-.3 1.4-1.5 1.3-2.3-.4-3.5-1-7-1.6-10.4-.5-.6-1.2-.6-1.9 0zm375.5-61.1c-.1-4.2 2.1-8.4-.6-12.9-4.2 5.7-4.2 7.5.6 12.9zm64.6 211c-.1-.2-.9-.1-.9 0-1.4 4.8-.5 9.2 3.8 14.5 1.3-6.2.4-10.6-2.9-14.5zm-314-64.1c-.1-1-.8-1.7-2.1-1.5-1.1.2-2.1 1-1.8 1.8 1.1 3.4-.4 8 4.2 10.1 2.9-3.8.1-7.1-.3-10.4zm181.9 75.2c.1.4 1 .7 1.5.8 1.1.1 2.2-.9 1.8-1.7-2-3.8.4-9.1-4.5-12.5-2.2 5.1.3 9.2 1.2 13.4zm197.1-20.3c-.1-.2-1.5-.5-1.7-.3-2.8 3.9 1 7.3.9 11.1 0 .8.9 1.7 2.8 1.6 2.3-4.4-1-8.3-2-12.4zm18.7-7.9c.5-4.8-.4-8.9-4.3-14.7-.6 10.2-.4 10.8 4.3 14.7zm-423.9-70.1c-1 4.9-.7 8.7 2.4 12.4 1.6-4.1 3.3-8.4-2.4-12.4zm394 83.3c1.5.4 3.6 4 4.2.9.7-3.8 1.3-8.8-4.1-11.7-.9 4.1-.5 7.6 0 11l-.1-.2zm-278.1-27.4c0 .8 1 1.6 2.2 1.2 1-.3 1.9-1 1.7-2-.8-3.3-.6-7-4.2-10.3-3.1 4.5.2 7.7.3 11.1zm-203.3-120.2c-.3-.4-1.6-.6-1.7-.4-2.7 3.6-.9 7.2.3 10.7.1.2.5.2 3 1.2-.4-4.4.7-8-1.6-11.5zm487.2 113.9c.2 4.4-1.4 9.4 3.7 13.3 1.1-5.6.4-9.9-3.7-13.3zm-293.6 9.5c-1.1 4.8-.9 8.7 3.5 11.9-.3-3.9 2-8.7-3.5-11.9zm44.5-69.9c-.2-.2-1.5.1-1.7.5-1.5 2.9 1.1 5.5.6 8.4-.1.3.1.6.2 1 .3 1.5 1.4 2.4 2.8 2.1 1.6-.4 1.3-1.9 1.2-2.6-.2-3.9-.6-7-3.1-9.4zm122.2-150.6c-2.4.2-3.1 1.7-2.8 4 .3 2.6 2.1 2.9 4.1 2.9 2.3 0 3.6-1.1 3.4-3.2-.1-3.5-2.3-3.8-4.7-3.7zm-315 168.4c.3-5 .8-8.9-3.3-11.9-1 4.2-2.3 8.5 3.3 11.9zm48.5-13.3c-.3-.2-1.3.3-1.6.7-2 3 .7 5.6.8 8.5.1 1.5 1 2.5 2.5 1.9.7-.3 1.1-1.4 1.7-2.3-1.9-2.7.1-6.8-3.4-8.8zm75.1 77c.1 1.2.5 2.8 2.4 2.4 1.6-.3 2.2-1.7 1.7-3-1.1-2.7-.5-6-3.5-9.1-3.6 3.7-.7 6.8-.6 9.7zm39-3c-.2-.2-1.4.2-1.6.5-1.6 3.6.4 6.7 1.4 10 .1.4 1 .7 1.5.8 1.2.1 1.5-.8 2-2.3-.8-2.8-.5-6.4-3.3-9zm-273.2-195.6c-2.7.1-1.7 3.7-1.8 5.8-.1 1.3 0 2.6.4 3.9.2.9 1 1.7 2.2 1.3.5-.2 1.3-.6 1.4-1.1.3-1.2.4-2.5.5-3.7-.9-2.3 1.4-6.4-2.7-6.2zm355.4 235.8c-.5-5 .4-9.1-4.1-11.9-.1 3.9-2.6 8.8 4.1 11.9zm-261-107.6c.2.2 1.4.1 1.6-.3 2-3.5.9-6.8-1-9.9-.1-.2-.6-.2-2.1-.6-1.5 4-.9 7.5 1.5 10.8zm72.6 15.4c-.3-.1-.8-.1-1 .1-3.1 3.1.2 6.1.2 9.2 0 1.4.9 2.5 2.5 2.2 1.7-.3 1.8-1.6 1.5-3.9-2.1-1.4.5-5.8-3.2-7.6zm19.5 19.4c.4.2 1.5-.1 1.6-.4 1.5-3.3-.7-6.3-1.2-9.4-.1-1-.7-1.8-2-1.6-1.7.2-2 1.4-2 2.9 2.2 2.3.1 6.5 3.6 8.5zm-152.5-107.1c3.5-4.8 3.4-8.5-.6-12-.8 3.7-2.4 7.5.6 12zm257.6 43.3c-.2-.2-1.6.3-1.6.5.1 2.8.2 5.5.4 8.3 0 .3.2.6.2.9.3 1.5 1.3 2.4 2.7 2.1 1.6-.3 1.4-1.8 1.1-3.1.1-3.2-.1-6.4-2.8-8.7zm-277.3-59.9c-.1-.9-.8-1.7-2-1.8-1.3-.1-2.1.8-2 1.6.5 3.2-1 7.2 3.1 10.1 2-3.6 1.2-6.8.9-9.9zm182.2 115.6c-1-3.2-.1-7.2-3.7-9.3-.3-.2-1.4.3-1.6.7-1.3 3.4 1.2 6.2 1.6 9.3.1.8 1.2 1.5 2.3 1.3.9-.3 1.8-.8 1.4-2zm-190.1-129.4c-.2-2.7 1.6-7.3-1.9-7.5-4.5-.3-1.8 4.4-2.4 6.9-.3 1.1.6 2.4.8 3.5 2.6.1 3.7-1.2 3.5-2.9zm222.9 147.3c-.3-.2-1.4.2-1.7.6-2.4 2.9 1.1 5.5.6 8.3-.1.3.2.6.3.9.4.9.9 1.7 2.1 1.6 1.8-.1 1.7-1.6 2.1-3.1-1-2.7-.3-6.2-3.4-8.3zm237.3-205.4c2.7-1.5 6.8-1.7 6.2-6.3-.3-2.2-2.4-2.2-3.8-1.7-5 1.5-1.9 5.3-2.1 8.2-.1 0-.3-.2-.3-.2zm-255.9 182.2c-.2-1.9-.1-4.7-2.7-4.4-2.8.3-1.6 2.9-1.4 4.7.3 2.5 0 5.5 3.5 6.3 1.8-2.1.9-4.4.6-6.6zm427.5-80.1c-1.2-.7-2.2 1-2.7 2.1-2.3 4.6 1.4 5.3 4.5 6.8.3-3.4 2-6.9-1.8-8.9zm-616-28.2c3-4.7 2.9-9.2-1.1-14.1-1.6 5.2-.4 9.6-.6 14.1.5.5 1.1.5 1.7 0zm388.4-72.3c-.1-1.6-1.2-2.3-2.7-1.6-1.4.7-1.8 2.4-1 3.3 2.6 3 2.4 7.1 4.3 11.1 4.8-5.2-.5-8.8-.6-12.8zm67.2 20.4c-.1.5.1 1 .8 1.4 3.8 1.1 6.6 1.1 5.1-4.3-1.2-4.3-3.8-4.5-7.3-3.2l.2-.2c.6 1.8 1.2 3.6 1.8 5.5-.3 0-.5.3-.6.8zm69 222c-3.8-1.5.3-7.7-5-8.4-2.8 3.7.1 6.9.7 10.3.2 1.4 1.4 2.2 2.9 1.4 1.5-.8 1-2.3 1.2-3.5.1 0 .2.2.2.2zm-489.2-126.4c-.3-.2-1.4.1-1.8.4-2.4 2.9.4 5.6.5 8.4.1 1.5 1.1 2.3 2.6 1.7 1-.4 1.2-1.4 1.1-2.9-2-1.8.5-5.6-2.4-7.6zm259.1 85.7c-1 4.7-1.1 8.5 2.9 12.8 1.4-5.4 2-9.3-2.9-12.8zm289.9-72.7c.4-4.6.7-8.6-2.8-14.2-1 8.9-1 8.9 2.8 14.2zm-562.4-21.7c.3-4.9 1.8-8.9-3.3-12-1.1 4.5-1.8 8.3 3.3 12zm28.8 3c-1.4 4.4-1 8 1.6 11.5 2.2-4.1 3.6-8.1-1.6-11.5zm-.4 26.2c.5.2 1.4.1 1.7-.3 1.8-2.4.3-5 .2-7.6 0-1.3-.4-2.7-2.1-2.7-2.5 0-1.9 2-2 3.1 0 4.9.6 6.9 2.2 7.5zm-55.7-81.8c-.1-.9-.5-1.8-1.7-2-1.3-.2-1.9.7-2.1 1.6-.5 3.5-.7 7 2.8 10.3 2-3.7 1.3-6.8 1-9.9zm448.8-20.9c.3.3 1.5.1 1.7-.2 1.7-3 1.9-6-.7-8.7-.2-.2-.6-.1-2.2-.4-.2 3.5-1.5 6.6 1.2 9.3zm79.6-9.2c-.2-.2-1.5-.1-1.7.3-1.7 2.4-1.2 4.9-.4 7.5.1.3.4.5 1.5 1.9 2.5-3.8 2.7-6.7.6-9.7zm51.9 64.2c-.2-.2-1.5.1-1.6.4-1.5 3.8-1.8 7.4 2.8 10.1.5-3.8 1.9-7.4-1.2-10.5zm-252.7-56.8c-.2-.2-1.4.1-1.6.5-1.7 3.6-.5 6.7 2.1 11.5 1.8-5.4 2.8-8.8-.5-12zm194.1-27.9c.8 4.5-2 9.3 1.4 15.5 1-5.4 1.9-9.1 2.3-12.8.3-2.8-1.7-3-3.9-2.5l.2-.2zm64 72.3c0-1.4-.5-2.7-2.1-2.8-2.5-.2-2.2 1.8-2.1 3.3 0 1.9.2 3.8.4 6.4 4.5-1.6 3.8-4.5 3.8-6.9zm-45.9-29.9c-.1 1.6-.1 3.6 2.2 3.6 2.4 0 2.4-1.9 1.9-3.5-.6-2 .6-4.7-2.2-6-2.8 1.3-1.8 3.9-1.9 5.9zm-525.6 60.7c-.1-2.2.4-4.6-1.5-6.3-.3-.3-1.4-.2-1.7.2-1.9 2.2-1.2 4.8-.4 7.2.3.8 1.1 1.5 2.2 2.9 1.4-1.5 1.5-2.7 1.4-4zm556.9-1.2c3.8-6.2 1.4-9.7-.5-14.8-2.2 5.5-.9 9.1.5 14.8zm-544 8.1c-1.5-.3-2.1 1.8-1.6 2.8 1.1 2.4-1.4 6.4 2.9 7.2 1.4.3 1.7-1.5 1.7-2.9-1.5-2.2 1.4-6.4-3-7.1zm410.5-63.2c.3.3 1.5.2 1.6 0 1.8-3.2 1-6.1-1-8.9-.1-.2-.6-.1-1.9-.3-.3 3.1-2 6.3 1.3 9.2zm-26.5-6.2c-2.1-.1-1.7 2.3-1.4 3.8.4 2-.9 5 2.2 5.6 2.5.5 2-1.7 2-3.7-1.2-1.6 1.3-5.5-2.8-5.7zm-21.4-.7c.5 3.7-1 8.1 4.8 11.2-1.1-4.8 3.1-10.4-5-11l.2-.2zM1474.6 1306c1.2 2.1-.4 5.5 2.9 6.6.4.1 1.4-.3 1.6-.7 1.4-3 .3-5.6-1.8-7.8-.4-.4-1.2-.3-2.6-.5-.1 1.3-.3 2-.1 2.4zm-286.2-163.8c-.5-.1-1.5.3-1.7.7-1.3 3.6-1.5 7 2.9 9.8.9-9.7.8-10.3-1.2-10.5zm479.5 4.3c-.4-.2-1.5-.1-1.6.2-1.7 3.2-1 6.1 1 8.9.1.2.6.1 1 .1 1.7-6.4 1.7-8.1-.4-9.2zM1250 1193c.1-.8-.7-1.7-1.9-1.5-1.1.2-1.9.9-1.8 1.9.4 2.8 1.1 5.7 1.8 8.5.7 0 1.3.1 2 .1 2.7-3-.6-6-.1-9zm27.7 60.7c-.2-.2-1.5.2-1.5.5-.8 3.5-.9 6.9 2.4 9.4.2.2.6 0 1.5 0 .3-3.6.7-7.1-2.4-9.9zm441.8-114.2c-.1-.9-1.1-1.6-2.2-1.3-.5.2-1.2.8-1.3 1.2-.2 2.7-1.2 5.7 2.2 8.4 2.3-3.2 1.7-5.8 1.3-8.3zm55 8.7c-.3-.3-1.6-.2-1.7.1-1.5 2.7-1.8 5.3.5 7.8.2.2.6.2 2.3.8-.2-3.4 1.3-6.2-1.1-8.7zm-487.4 77.4c.3.2 1.5-.1 1.6-.5 1.3-3.1 2-6.2-2.7-8.7-.6 3.5-2 6.6 1.1 9.2zm266.6 141.8c-.6 4.3-.7 7.7 3.2 10.1.6-3.6 1.8-7.5-3.2-10.1zm229.3-220c.2.3 1.5.1 1.7-.3 1.9-3.2 1.1-6-2.4-9.1-1.4 3.7-2 6.8.7 9.4zm44.3 105c.2-3.7 2.6-7.8-2.8-11.1-1.3 4.7-.1 8.1 2.8 11.1zm-158.9-127.9c-1.2 2.1-1.5 5.7 1.2 6.9 3.4 1.6 2.1-3.5 4.3-4.1-.1-.7-.2-1.5-.3-2.2-1.8-.9-3.9-2.9-5.2-.6zm126.8 84.2c.8 3.4-1.5 7.5 2.8 10.6.6-7 .6-7-2.8-10.6zm-286.9-57c.2 1.6.6 3.1 1 4.6.3 1.4-.2 3.6 2.3 3.3 2.2-.3 2-1.9 1.4-3.6-.5-1.5-.5-3.2-.9-4.7-.2-.8-.6-1.9-2.1-1.4-.9.2-1.8.8-1.7 1.8zm241-4.4c-.2-1.3-1.9-2.3-2.9-1.5-1.8 1.4-1.1 3.5-.7 5.4.3 1.3.9 2.4 2.6 2.2 2.3-1.6 1.4-4 1-6.1zm-87.5 10.1c.2-1.9.6-4.2-1.6-5.2-1.4-.6-2.5.3-2.4 2 .1 1.9-.4 4.1 1.9 4.8 1.6.3 2-.7 2.1-1.6zm-444.6 30c.9-3.2 1.8-6.4.2-9.5-.6 0-1.1 0-1.7-.1-3.7 3.9-.5 6.6 1.5 9.6zm382.5-59.1c.1.9 1.2 1.8 2.2 1.2 2.9-1.4 1.5-4 1.3-6.1-.1-.6-1.4-1-2.1-1.5-2.8 1.8-1.7 4.3-1.4 6.4zm16 27.8c-1.9-.2-1.9 1.3-1.9 2.6.1 1.9-.1 4.4 2.7 4.2 1.4-.1 1.5-1.8 1.4-3.6-.4-.8.2-3-2.2-3.2zm-271.9 96.1c-1.7-.2-1.9 1.1-1.9 2.4 0 2.1.6 4 2.9 4.1 1.3 0 1.4-1.7 1.4-3.5-.2-1.1-.3-2.8-2.4-3zm431.1-106.7c.2.2 1.5 0 1.7-.4 1.7-3.1.5-5.3-2.7-7.5-.7 3-1.4 5.6 1 7.9zm-256.2 54.5c-.3-.3-2.3.3-2.5.9-.9 2.7-.8 5.3 2.8 6.2 1.2-2.4 2-4.9-.3-7.1zm233.8-85.7c-.1-.3-1.5-.5-1.7-.2-2.2 2.7-2.3 5.6.2 9.1 1.4-3.1 3-5.7 1.5-8.9zm76.7 111.9c1.9-4.2.6-7.2-1.5-10.2-1 3.4-1.4 6.7 1.5 10.2zm-309.6 135.6c-3.6 1.4-2.6 3.9-1.4 6.3.5 1 1.7 1.1 2.5.3 2.1-2.2.8-4.1-.7-6-.2-.3-.4-.5-.6-.7l.2.1zm-221.8-89.7c-.3-.2-1.5.1-1.7.4-1.4 3.1 0 4.9 3 6.1 1.7-2.6 1.2-4.8-1.3-6.5zm464.1-149c.2-1.8-.5-3.2-2.4-3.4-2.5-.3-2.1 1.8-2.2 3.2 0 1.4-.4 3.1 1.6 3.7 1.9-.6 2.9-1.7 3-3.5zm-60.9 25c.9-3 2.2-6-1.5-9.5-.3 4.2-.5 7 1.5 9.5zm-45.3-51.8c-1.6.2-1.7 1.6-1.7 2.8 0 1.2 0 2.8 1.5 2.9 2.3.2 2.1-1.7 2.2-3.3-.3-1-.2-2.6-2-2.4zm-248.1 230.2c-.6 1.9.3 3 2 3.7 1.3.6 1.8-.3 2-1.3.4-1.7.1-3.2-1.8-3.8-1.3-.3-1.9.5-2.2 1.4zm187.1-216.8c-2-.3-2.6 1.2-2.6 3s.6 3.3 2.6 3c1.4-.2 1.6-1.7 1.6-3.6 0-.7-.2-2.2-1.6-2.4zm17.2-7.5c-1.5-.4-2.4.4-2.5 1.9-.1 1.5-.4 3.3 1.9 3.5 1.6.1 2.1-1 2.4-4.4 0 .7-.3-.6-1.8-1zm102.9-6.4c-1.4.2-1.5 1.8-1.4 3 .1 1.5-.1 3.5 2.4 3 1.4-.3 1.9-1.6 1.8-3.3 0-1.5-.9-2.9-2.8-2.7zm-29.5.7c-2-.9-4.4 1-5.5 2.8-.9 1.4-1 4 1.9 4.6.2-1.7.5-3.3 2.4-3.9 2-.7 2.9-2.7 1.2-3.5zm-70.5 18.4c1 4.4-.2 7.2 2 10.3 1.6-4.9 1.6-4.9-2-10.3zm196.8 178.3c.3-3 1.9-5.8-3.3-8.4 1 3.5-.1 6.2 3.3 8.4zm-325.5-111.4c-.3 1.8-1.8 3.5-.5 5.5.1.2.6.3.9.3 2.5-.4 1.6-2.5 1.6-3.9 0-.8-.6-1.6-.9-2.4-.5.2-1 .3-1.1.5zm310.5 12.4c-1.9 3.3-1.2 6.1 0 10.7 2-4.6 1.5-7.4 0-10.7zm-59.8 169.5c.3.2 1.4 0 1.7-.3 2.2-2.3.4-3.8-2-5.9-1.5 2.5-1.7 4.5.3 6.2zm-297.4-70.1c-.4-1.5-1.6-2-2.8-1.7-.5.1-.9 1.6-.8 2.4.1.9 1 1.6 2.1 1.3.8-.4 1.8-.7 1.5-2zm331.5-161.8c-2.2 2.4-1.7 4.6 0 7 2-2.4 1.6-4.6 0-7zm-308.3 169.8c.5.7 1.2 1.5 2 1.7 1.2.3 1.4-.8 1.4-1.7 0-1.6-1.1-2-2.5-2.1-.8.5-1.7 1-.9 2.1zm233.7-193.7c-.8-.8-.6-2.4-2.1-2.6-.1 1-.2 1.9-.3 2.9-.1.6-.1 1.3-.2 1.9.9-.8 1.8-1.5 2.6-2.2z"/></svg>