<svg xmlns="http://www.w3.org/2000/svg" id="beard" viewBox="0 0 3000 3000"><path id="cl1" fill="#3A3A3A" d="M1805.3 1220.8c7.5 9.1 11.9 18.6 14.5 28.2 1.5 5.6-1.7 12.8-3.5 19.1-9.2 32.8-24.6 62.8-44.3 90.3-11.2 15.6-24.4 29.7-39.9 41.4-18.9 14.3-38.3 27.6-61.4 34.1-17.9 5-35.8 6.8-54.4 1.9-10.1-2.6-20.6-4.3-31-6-16.5-2.7-31.3-10.4-46.3-17.1-36.9-16.5-71.6-37.3-106.1-58.2-22.1-13.3-45.3-24.8-65.5-41-6.5-5.2-7-5-2.7-11.6 14.2-21.9 29.5-43.1 47-62.6 3.2.8 4.1 3.6 5.6 5.6 13.8 17.9 30.5 33 46.5 48.9 20.6 20.5 45.4 34.9 69.4 50.6 8.9 5.8 19.2 6.6 29 9.4 4 1.1 6.4-1.4 7.9-4.5 6.2-13.1 17.5-21.5 27.8-30.8 1.9-1.7 4.4-3.1 6.9-3.9 12.8-3.7 24.1-10.9 37-14.5 7.9-2.2 9.2-10 3-15.9-10.1-9.5-20.2-19-30-29.5 33 6.1 66.1 7.4 101.6 2.8-6.6 8.3-11.7 14.6-16.8 21-.6.8-1.5 1.4-2.1 2.2-10.1 14.4-7.6 17.9 5.4 23 8.9 3.5 16.1 8.8 22.9 15 5.2 4.8 8.4 11 11.9 16.9 4.6 7.8 5.8 7.8 12.2 1.9 27.1-25 41.5-56.8 49.8-92 1.7-7.7 1.7-15.8 5.6-24.7zm-127.6-40.1c0 2.6 1.7 4.6 4.4 4.2 2.4-.3 2.3-2.4 2.5-4.5 2.3-23.2 1.2-46.4 1.5-69.6 0-1-.1-2-.3-3-.3-1.4-1.2-2.6-2.7-2.5-8.6.5-17.1-2.5-25.8-1-11.7 2.1-23.5 3.4-35.3 3.4-8 0-15 2.4-21.7 5.8-4.4 2.3-8.8 4.5-13.4 6.4-9.5 4-18.1 9.5-26.1 15.9-2.8 2.3-5.7 4.6-9.4 5.5-9.5 2.4-17.3 8.1-24.3 14.5-3.6 3.3-6.9 6.4-11.4 8.8-7.4 4-12 10.7-13.8 19.5-1.9 9.4-2.3 19-5.4 28.2-.8 2.4-.6 5.3-.6 7.9 0 .8.5 1.9 1.1 2.5 1.2 1.1 2.4.3 3.4-.7.7-.7 1.5-1.3 2.1-2.1 5.8-8.2 11.4-16.5 23.1-16.5.5 0 1.2-.6 1.6-1.1 8.3-7.9 19.6-10.5 30.1-17.2-.6 2.8-3.1 4.8-1.4 6.1 1.9 1.5 3.7-.2 5-1.8.6-.7.7-1.9 1.4-2.6 4.2-4.6 7.1-11.1 15.7-7.5 2 .8 5.4-2.8 4.6 3.2-.3 2.3 3.4 3 5.3.7s4-4.3 6.5-6c2.4-1.6 6.6-1.9 7-.4 2 6.7 5.3 2.6 8.3 1.6 1.2-.4 3.1-1.4 3.6 0 1.6 4.3 3.4 2.6 5.7.7 2.4-2 3.4-1.7 5.9 1.1 4.9 5.6 6.6 4.7 13.2-.1 3.9-2.8 5-7.8 8.8-10.2 2.8 1.6-.2 6.9 2.5 6.4 6.8-1.5 5.8 3.3 6.6 6.7.5 2.1 1.8 3.2 3.4 2.5 4-1.7 9.3-2 10-8.1.4-3.5 1.3-7.1 4.9-9.3 2.1 4.3 3.4 8.2 3.4 12.6zm63.2-6.3c4.9 2.8 12.1.6 15.3 6.9.7 1.4 2 2.7 3.3 3.7 2.3 1.7 5.1 4.6 6.1-1.2.1-.7.4-2.6 1.5-1.4 3.2 3.3 9.2-.7 11.4 5.1 2.1 5.4 8.9 6.2 11.9 11.9 2.9-6.5-.3-11.4-1.2-16.2-2.2-11.2-4-22.2-10.5-32.6-7.8-12.5-18.6-21.3-29.4-30.4-14.6-12.2-31.6-17.5-50.7-15.1-2.3.3-3.3.8-3.4 3.6-.5 20.2-2.3 40.3-1.8 60.5 0 1.6-.1 3.8 1.8 4.2 4.4.8 5.3 4.2 6.9 7.5 2 4.2 4.2 4.2 7.1.2 2-2.7 2.3-6.5 5.4-8.6 2.8 2.9 3.6 6.5 6.8 8.6.9-3.1 1.2-6.1 3.2-8.7 2.4 3.6 5.2 6.6 8.6 9.6 1.7-3.8 4.7-9.3 7.7-7.6z"/><path fill="none" stroke="#000" stroke-miterlimit="10" stroke-width="6" d="M1805.3 1220.8c7.5 9.1 11.9 18.6 14.5 28.2 1.5 5.6-1.7 12.8-3.5 19.1-9.2 32.8-24.6 62.8-44.3 90.3-11.2 15.6-24.4 29.7-39.9 41.4-18.9 14.3-38.3 27.6-61.4 34.1-17.9 5-35.8 6.8-54.4 1.9-10.1-2.6-20.6-4.3-31-6-16.5-2.7-31.3-10.4-46.3-17.1-36.9-16.5-71.6-37.3-106.1-58.2-22.1-13.3-45.3-24.8-65.5-41-6.5-5.2-7-5-2.7-11.6 14.2-21.9 29.5-43.1 47-62.6 3.2.8 4.1 3.6 5.6 5.6 13.8 17.9 30.5 33 46.5 48.9 20.6 20.5 45.4 34.9 69.4 50.6 8.9 5.8 19.2 6.6 29 9.4 4 1.1 6.4-1.4 7.9-4.5 6.2-13.1 17.5-21.5 27.8-30.8 1.9-1.7 4.4-3.1 6.9-3.9 12.8-3.7 24.1-10.9 37-14.5 7.9-2.2 9.2-10 3-15.9-10.1-9.5-20.2-19-30-29.5 33 6.1 66.1 7.4 101.6 2.8-6.6 8.3-11.7 14.6-16.8 21-.6.8-1.5 1.4-2.1 2.2-10.1 14.4-7.6 17.9 5.4 23 8.9 3.5 16.1 8.8 22.9 15 5.2 4.8 8.4 11 11.9 16.9 4.6 7.8 5.8 7.8 12.2 1.9 27.1-25 41.5-56.8 49.8-92 1.7-7.7 1.7-15.8 5.6-24.7zm-127.6-40.1c0 2.6 1.7 4.6 4.4 4.2 2.4-.3 2.3-2.4 2.5-4.5 2.3-23.2 1.2-46.4 1.5-69.6 0-1-.1-2-.3-3-.3-1.4-1.2-2.6-2.7-2.5-8.6.5-17.1-2.5-25.8-1-11.7 2.1-23.5 3.4-35.3 3.4-8 0-15 2.4-21.7 5.8-4.4 2.3-8.8 4.5-13.4 6.4-9.5 4-18.1 9.5-26.1 15.9-2.8 2.3-5.7 4.6-9.4 5.5-9.5 2.4-17.3 8.1-24.3 14.5-3.6 3.3-6.9 6.4-11.4 8.8-7.4 4-12 10.7-13.8 19.5-1.9 9.4-2.3 19-5.4 28.2-.8 2.4-.6 5.3-.6 7.9 0 .8.5 1.9 1.1 2.5 1.2 1.1 2.4.3 3.4-.7.7-.7 1.5-1.3 2.1-2.1 5.8-8.2 11.4-16.5 23.1-16.5.5 0 1.2-.6 1.6-1.1 8.3-7.9 19.6-10.5 30.1-17.2-.6 2.8-3.1 4.8-1.4 6.1 1.9 1.5 3.7-.2 5-1.8.6-.7.7-1.9 1.4-2.6 4.2-4.6 7.1-11.1 15.7-7.5 2 .8 5.4-2.8 4.6 3.2-.3 2.3 3.4 3 5.3.7s4-4.3 6.5-6c2.4-1.6 6.6-1.9 7-.4 2 6.7 5.3 2.6 8.3 1.6 1.2-.4 3.1-1.4 3.6 0 1.6 4.3 3.4 2.6 5.7.7 2.4-2 3.4-1.7 5.9 1.1 4.9 5.6 6.6 4.7 13.2-.1 3.9-2.8 5-7.8 8.8-10.2 2.8 1.6-.2 6.9 2.5 6.4 6.8-1.5 5.8 3.3 6.6 6.7.5 2.1 1.8 3.2 3.4 2.5 4-1.7 9.3-2 10-8.1.4-3.5 1.3-7.1 4.9-9.3 2.1 4.3 3.4 8.2 3.4 12.6zm63.2-6.3c4.9 2.8 12.1.6 15.3 6.9.7 1.4 2 2.7 3.3 3.7 2.3 1.7 5.1 4.6 6.1-1.2.1-.7.4-2.6 1.5-1.4 3.2 3.3 9.2-.7 11.4 5.1 2.1 5.4 8.9 6.2 11.9 11.9 2.9-6.5-.3-11.4-1.2-16.2-2.2-11.2-4-22.2-10.5-32.6-7.8-12.5-18.6-21.3-29.4-30.4-14.6-12.2-31.6-17.5-50.7-15.1-2.3.3-3.3.8-3.4 3.6-.5 20.2-2.3 40.3-1.8 60.5 0 1.6-.1 3.8 1.8 4.2 4.4.8 5.3 4.2 6.9 7.5 2 4.2 4.2 4.2 7.1.2 2-2.7 2.3-6.5 5.4-8.6 2.8 2.9 3.6 6.5 6.8 8.6.9-3.1 1.2-6.1 3.2-8.7 2.4 3.6 5.2 6.6 8.6 9.6 1.7-3.8 4.7-9.3 7.7-7.6z"/></svg>