<svg xmlns="http://www.w3.org/2000/svg" id="beard" viewBox="0 0 3000 3000"><path id="cl1" fill="#565555" d="M1476.9 1167.9c29.8-26 65.8-40.5 102-54.5 18.9-7.3 37.9-14.2 57.4-19.4 5.2-1.4 10.1-1.6 15.6-1.1 19.1 1.5 38.3 4.8 57.4-.6 7.1-2 14 0 19.9 4 18.3 12.1 37 23.5 54.1 37.4 7 5.7 13.2 12.1 17.3 20.2 1.2 2.3 2.6 4.5 5.3 5.4 7.5-20.8 18.8-39 30.8-56.7 5.4-7.9 10.8-16 17.4-23 4.6-4.8 5.4-11.4 5.6-17.7.6-12.1 4.9-23.7 5.3-36.1 3.9 4.1 4.7 9.1 4.8 14.1.1 5.4 1.4 10.5 3 15.6 7.3 24.1 11.7 48.9 14.5 73.8 1.9 16.8 4 33.7 3.3 50.5-.9 21.9-6.2 43-18.3 62.1-5.6 8.9-12 16.4-19.7 23.4-13.7 12.4-28.2 24-39.2 39.3-5.1 7.2-11.4 13.7-16.6 21-1 1.3-2 2.6-5 2.7-1-5.2-.2-10.8-.1-16.1.3-16.9-8.9-26.2-23.2-32.1-4.2-1.7-8.5-3.3-12.7-4.9-.1-3.8 2.9-4.9 4.7-6.4 16.7-15 25.2-34.7 30.6-55.5 2.7-10.4 2-22-.1-32.6-1.3-6.9-6-13.1-13.6-16.2-18.9-7.7-38.3-12.8-58.8-13.2-13.6-.3-27.2-.4-40.8 0-17.3.5-34.6-1.5-51.9-1.3-27 .5-53.4 4.7-79.3 12.2-9.5 2.7-18.8 6.4-27.9 10.4-5.7 2.5-10.8 6.1-15.5 10.7-16 15.6-21 34.9-21.6 56.5-.4 16.4 3 31.4 12.5 45.6-9.6 4.3-18.4 8-26.6 13.2-11.3 7.1-18 16.7-20.5 30-1.5 7.9-2.5 15.4.9 24.6-9.2-4.2-17.1-7.5-24.6-11.3-48.6-25.1-99.2-46-147.2-72.2-23.4-12.8-44.7-28.8-59.4-51.8-7.9-12.3-12.5-26.3-17.2-40-5.5-15.9-10.7-31.8-16.2-47.7-5.3-15.3-7.2-31.4-10.9-47.1-5.2-22.2-10-44.5-12.7-67.1-1.9-15.7-4.6-31.2-8.5-46.5-3.7-14.7-3.8-14.9 10.8-18.1 8.7-1.9 17.4-3.9 26.2-5.6 7.8-1.5 8-.9 12.4 6 5.9 9.3 8.6 19.9 13 29.8 7.2 16.2 14.7 32.4 23 48 6.5 12.2 18.8 19.5 31.9 24.3 24.3 8.9 48.6 17.6 72.2 28.1 17.9 7.9 35.9 15.6 53.4 24.2 16.4 8 31 19.1 45.9 29.6 10.6 7.5 19.6 16.8 28.8 25.9 2.6 2.1 4.7 4.7 8.1 6.2zm-284.8-228.5c1-3.3-.5-5.2-1.5-7.3-3.3-6.5-3.4-6.7-10.4-4.9-7.7 2-15.2 4.4-22.9 6.3-11.6 2.9-11.7 2.7-8.5 14.9 14.5-2.9 29.1-6 43.3-9zm-19.2-30.8c3.3-.8 5.4-2.3 4.6-6.2-.8-3.8-3.2-6.1-7-5.1-9.9 2.4-19.7 5.2-29.5 7.9-3.9 1.1-2.4 3.7-1.7 6.3.7 2.4.1 5.6 2.1 5.4 12.2-1.9 21.7-5.8 31.5-8.3zm-32.6-9.8c9.6-2.4 19.1-5.1 28.6-7.9 2.7-.8 3.2-2.7 1.5-5.4-2-3.1-3.9-4.9-8-3.6-9.4 3.1-18.8 5.8-28.9 8.8 3.7 8.4 3.8 8.8 6.8 8.1zm38.8 22.6c2.3-.6 5.1-1.2 4.1-4.2-1-3.1-2.6-6.1-7.2-4.6-9.4 3-19 5.6-28.4 8.4-1.3.4-2.6.7-3.7 1.4-1.8 1.3-2.2 3.2-1.3 5.3.7 1.8 2.3 2.2 3 2.2 11.8-3 22.6-5.8 33.5-8.5z"/><path fill="none" stroke="#000" stroke-miterlimit="10" stroke-width="6" d="M1476.9 1167.9c29.8-26 65.8-40.5 102-54.5 18.9-7.3 37.9-14.2 57.4-19.4 5.2-1.4 10.1-1.6 15.6-1.1 19.1 1.5 38.3 4.8 57.4-.6 7.1-2 14 0 19.9 4 18.3 12.1 37 23.5 54.1 37.4 7 5.7 13.2 12.1 17.3 20.2 1.2 2.3 2.6 4.5 5.3 5.4 7.5-20.8 18.8-39 30.8-56.7 5.4-7.9 10.8-16 17.4-23 4.6-4.8 5.4-11.4 5.6-17.7.6-12.1 4.9-23.7 5.3-36.1 3.9 4.1 4.7 9.1 4.8 14.1.1 5.4 1.4 10.5 3 15.6 7.3 24.1 11.7 48.9 14.5 73.8 1.9 16.8 4 33.7 3.3 50.5-.9 21.9-6.2 43-18.3 62.1-5.6 8.9-12 16.4-19.7 23.4-13.7 12.4-28.2 24-39.2 39.3-5.1 7.2-11.4 13.7-16.6 21-1 1.3-2 2.6-5 2.7-1-5.2-.2-10.8-.1-16.1.3-16.9-8.9-26.2-23.2-32.1-4.2-1.7-8.5-3.3-12.7-4.9-.1-3.8 2.9-4.9 4.7-6.4 16.7-15 25.2-34.7 30.6-55.5 2.7-10.4 2-22-.1-32.6-1.3-6.9-6-13.1-13.6-16.2-18.9-7.7-38.3-12.8-58.8-13.2-13.6-.3-27.2-.4-40.8 0-17.3.5-34.6-1.5-51.9-1.3-27 .5-53.4 4.7-79.3 12.2-9.5 2.7-18.8 6.4-27.9 10.4-5.7 2.5-10.8 6.1-15.5 10.7-16 15.6-21 34.9-21.6 56.5-.4 16.4 3 31.4 12.5 45.6-9.6 4.3-18.4 8-26.6 13.2-11.3 7.1-18 16.7-20.5 30-1.5 7.9-2.5 15.4.9 24.6-9.2-4.2-17.1-7.5-24.6-11.3-48.6-25.1-99.2-46-147.2-72.2-23.4-12.8-44.7-28.8-59.4-51.8-7.9-12.3-12.5-26.3-17.2-40-5.5-15.9-10.7-31.8-16.2-47.7-5.3-15.3-7.2-31.4-10.9-47.1-5.2-22.2-10-44.5-12.7-67.1-1.9-15.7-4.6-31.2-8.5-46.5-3.7-14.7-3.8-14.9 10.8-18.1 8.7-1.9 17.4-3.9 26.2-5.6 7.8-1.5 8-.9 12.4 6 5.9 9.3 8.6 19.9 13 29.8 7.2 16.2 14.7 32.4 23 48 6.5 12.2 18.8 19.5 31.9 24.3 24.3 8.9 48.6 17.6 72.2 28.1 17.9 7.9 35.9 15.6 53.4 24.2 16.4 8 31 19.1 45.9 29.6 10.6 7.5 19.6 16.8 28.8 25.9 2.6 2.1 4.7 4.7 8.1 6.2zm-284.8-228.5c1-3.3-.5-5.2-1.5-7.3-3.3-6.5-3.4-6.7-10.4-4.9-7.7 2-15.2 4.4-22.9 6.3-11.6 2.9-11.7 2.7-8.5 14.9 14.5-2.9 29.1-6 43.3-9zm-19.2-30.8c3.3-.8 5.4-2.3 4.6-6.2-.8-3.8-3.2-6.1-7-5.1-9.9 2.4-19.7 5.2-29.5 7.9-3.9 1.1-2.4 3.7-1.7 6.3.7 2.4.1 5.6 2.1 5.4 12.2-1.9 21.7-5.8 31.5-8.3zm-32.6-9.8c9.6-2.4 19.1-5.1 28.6-7.9 2.7-.8 3.2-2.7 1.5-5.4-2-3.1-3.9-4.9-8-3.6-9.4 3.1-18.8 5.8-28.9 8.8 3.7 8.4 3.8 8.8 6.8 8.1zm38.8 22.6c2.3-.6 5.1-1.2 4.1-4.2-1-3.1-2.6-6.1-7.2-4.6-9.4 3-19 5.6-28.4 8.4-1.3.4-2.6.7-3.7 1.4-1.8 1.3-2.2 3.2-1.3 5.3.7 1.8 2.3 2.2 3 2.2 11.8-3 22.6-5.8 33.5-8.5z"/></svg>