<svg xmlns="http://www.w3.org/2000/svg" id="beard" viewBox="0 0 3000 3000"><path id="cl1" fill="#3A3A3A" d="M1638.8 1258.2c-4-2-8-.8-11.9-1.1-3-.2-6 .2-8.9-.8-2.4-.8-4.4-1.9-4.2-4.8.2-2.9 2.7-2.3 4.5-2.5 12.2-1.4 24.4-2.6 36.5-3.9 14.9-1.6 29.9-1.1 44.8-1.2h5c2.1-.1 4.5.5 4.9 2.6.6 3.1-2.4 3.7-4.5 4.2-4.2 1.1-8.4 1.9-12.7 2.4-4.1.5-5.6 2.2-5.1 6.5.6 4.6 0 9.3.2 14 .5 15 8.6 24.1 23.5 24.1 21.8-.1 42.1-6.2 59.1-20.3 10.4-8.6 15.3-20.3 15.6-34.3.3-13.3-1.5-26.5-2.3-39.7-1-15.6 4.9-25.4 19.2-31.6 11.5-5 23.5-9.3 33.1-18 2.3-2.1 4.4-4.2 5.6-6.9 5.6-12 9.5-24.5 11.3-37.5.2-1.3.3-2.6.8-3.7 3.1-6.2 4.8-12.8 7.4-19.5.2 22.7 10.6 43.1 13.5 65.1.7 5.5 2.2 11.2 4.5 16.2 8.8 19.4 8.6 40.6 12.5 61 .8 4.3-.6 9.2-1.3 13.8-3.2 20.6-3.5 41.5-11.5 61.3-2.9 7.1-5.4 14.5-9.4 20.8-10.3 15.7-18.1 33.4-34.2 44.8-12.8 9.1-27.2 15.3-41 22.5-22.4 11.7-47.4 14.8-71.4 21.2-27.6 7.4-55.3 14.1-83.7 17.7-3.3.4-6.6 1.3-9.9 1.2-28.9-.4-57.8.7-86.7 2-14.3.6-28.5-2-42.7-2.9-18.9-1.1-37.5-3.9-56.2-6.7-28.7-4.3-56.6-11.3-83.6-21.9-22.5-8.9-45.1-17.5-66.4-28.8-28.5-15.1-51.4-37-69.7-63.7-10.3-15-21.2-29.5-28.6-46.4-4.8-11-7.8-22.3-10.1-33.8-1.5-7-2.4-14.2-4.1-21.2-3.2-13.5-3.2-27.5-4.7-41.3-2.4-22-1-44.2-1.5-66.3-.3-10.7-3.1-20.9-4.7-31.4-1.8-11.7-4.5-23.3-5.2-35.2-.4-6.3-1.5-12.4-2.5-18.6-4.1-25.4-8.1-50.9-11.6-76.4-1-7.4-1-14.9-2.6-23.1 15.2 3 28.5 8.9 42.4 12.6 2.7.7 3.6 2.9 4.7 5.6 4.6 11.6 7.5 23.8 11.7 35.5 10.9 30.4 23.7 60 38.6 88.7 3.6 7 6.1 14.6 9.1 22 9.5 23.7 24.4 43.8 41.9 62 4.7 5 10.9 8.5 17.1 11.8 26.4 13.7 54.5 22.1 83.6 28.2 15 3.2 30 4.9 45.1 7.4 13.6 2.3 23.1 10.6 31.3 21 2.4 3.1 2.9 6.4 2.8 10.2-.2 6.7.3 13.3-.1 20-1.6 26.3 11.3 43.7 34.2 54 18.9 8.5 38.8 13.8 59.9 12.9 8.2-.3 16.3 2.6 24.7.1 14.5-4.2 26.4-11.4 33.4-25.5 3.3-7.9 8.2-15.4 10.5-24.4zm-448.6-340.4c.1-6.1-3.4-8.6-8.8-10-11.2-2.8-22.3-6-33.4-9.1-2.1-.6-3.3.3-3.4 2.2-.4 4.6 2.7 9.3 7.5 11 7.8 2.6 15.7 5.1 23.6 7.6 4.9 1.6 9.6 4.2 16.2 4.2-.9-2.8-1.7-4.4-1.7-5.9zm-15.7-30.6c-8.3-2.2-16.6-4.5-24.8-6.8-2.1-.6-3.8-3.6-6.2-1.5-2.4 2.1-.4 4.9-.4 7.4 0 5.1 2.9 7 6.9 8.1 11.7 3.2 23.4 6.3 35.2 9.5.3-11.4-1.6-14.3-10.7-16.7zm-2.7-31.3c-10.5-2.9-20.6-7.6-31.6-9.3-.9 9.9-.9 9.8 7.1 12.3 2.8.9 5.5 2.2 8.3 2.9 6.9 1.8 13.5 4.6 22.5 5.1-3.4-4-.8-9.4-6.3-11zm7.4 21.7c1.1-2.2-.3-3.9-2-5-1.6-1.1-3.6-2-5.5-2.3-7.8-1.4-15.3-4.1-22.8-6.5-1.6-.5-3.2-.9-4.8-1.4-1.5-.5-2.6.1-3.4 1.2-.9 1.4 0 2.6.8 3.5.8 1 1.8 2.1 2.9 2.5 10 3.5 20 7 29.2 8.7 3 1 4.7 1.1 5.6-.7z"/><path fill="none" stroke="#000" stroke-miterlimit="10" stroke-width="6" d="M1638.8 1258.2c-4-2-8-.8-11.9-1.1-3-.2-6 .2-8.9-.8-2.4-.8-4.4-1.9-4.2-4.8.2-2.9 2.7-2.3 4.5-2.5 12.2-1.4 24.4-2.6 36.5-3.9 14.9-1.6 29.9-1.1 44.8-1.2h5c2.1-.1 4.5.5 4.9 2.6.6 3.1-2.4 3.7-4.5 4.2-4.2 1.1-8.4 1.9-12.7 2.4-4.1.5-5.6 2.2-5.1 6.5.6 4.6 0 9.3.2 14 .5 15 8.6 24.1 23.5 24.1 21.8-.1 42.1-6.2 59.1-20.3 10.4-8.6 15.3-20.3 15.6-34.3.3-13.3-1.5-26.5-2.3-39.7-1-15.6 4.9-25.4 19.2-31.6 11.5-5 23.5-9.3 33.1-18 2.3-2.1 4.4-4.2 5.6-6.9 5.6-12 9.5-24.5 11.3-37.5.2-1.3.3-2.6.8-3.7 3.1-6.2 4.8-12.8 7.4-19.5.2 22.7 10.6 43.1 13.5 65.1.7 5.5 2.2 11.2 4.5 16.2 8.8 19.4 8.6 40.6 12.5 61 .8 4.3-.6 9.2-1.3 13.8-3.2 20.6-3.5 41.5-11.5 61.3-2.9 7.1-5.4 14.5-9.4 20.8-10.3 15.7-18.1 33.4-34.2 44.8-12.8 9.1-27.2 15.3-41 22.5-22.4 11.7-47.4 14.8-71.4 21.2-27.6 7.4-55.3 14.1-83.7 17.7-3.3.4-6.6 1.3-9.9 1.2-28.9-.4-57.8.7-86.7 2-14.3.6-28.5-2-42.7-2.9-18.9-1.1-37.5-3.9-56.2-6.7-28.7-4.3-56.6-11.3-83.6-21.9-22.5-8.9-45.1-17.5-66.4-28.8-28.5-15.1-51.4-37-69.7-63.7-10.3-15-21.2-29.5-28.6-46.4-4.8-11-7.8-22.3-10.1-33.8-1.5-7-2.4-14.2-4.1-21.2-3.2-13.5-3.2-27.5-4.7-41.3-2.4-22-1-44.2-1.5-66.3-.3-10.7-3.1-20.9-4.7-31.4-1.8-11.7-4.5-23.3-5.2-35.2-.4-6.3-1.5-12.4-2.5-18.6-4.1-25.4-8.1-50.9-11.6-76.4-1-7.4-1-14.9-2.6-23.1 15.2 3 28.5 8.9 42.4 12.6 2.7.7 3.6 2.9 4.7 5.6 4.6 11.6 7.5 23.8 11.7 35.5 10.9 30.4 23.7 60 38.6 88.7 3.6 7 6.1 14.6 9.1 22 9.5 23.7 24.4 43.8 41.9 62 4.7 5 10.9 8.5 17.1 11.8 26.4 13.7 54.5 22.1 83.6 28.2 15 3.2 30 4.9 45.1 7.4 13.6 2.3 23.1 10.6 31.3 21 2.4 3.1 2.9 6.4 2.8 10.2-.2 6.7.3 13.3-.1 20-1.6 26.3 11.3 43.7 34.2 54 18.9 8.5 38.8 13.8 59.9 12.9 8.2-.3 16.3 2.6 24.7.1 14.5-4.2 26.4-11.4 33.4-25.5 3.3-7.9 8.2-15.4 10.5-24.4zm-448.6-340.4c.1-6.1-3.4-8.6-8.8-10-11.2-2.8-22.3-6-33.4-9.1-2.1-.6-3.3.3-3.4 2.2-.4 4.6 2.7 9.3 7.5 11 7.8 2.6 15.7 5.1 23.6 7.6 4.9 1.6 9.6 4.2 16.2 4.2-.9-2.8-1.7-4.4-1.7-5.9zm-15.7-30.6c-8.3-2.2-16.6-4.5-24.8-6.8-2.1-.6-3.8-3.6-6.2-1.5-2.4 2.1-.4 4.9-.4 7.4 0 5.1 2.9 7 6.9 8.1 11.7 3.2 23.4 6.3 35.2 9.5.3-11.4-1.6-14.3-10.7-16.7zm-2.7-31.3c-10.5-2.9-20.6-7.6-31.6-9.3-.9 9.9-.9 9.8 7.1 12.3 2.8.9 5.5 2.2 8.3 2.9 6.9 1.8 13.5 4.6 22.5 5.1-3.4-4-.8-9.4-6.3-11zm7.4 21.7c1.1-2.2-.3-3.9-2-5-1.6-1.1-3.6-2-5.5-2.3-7.8-1.4-15.3-4.1-22.8-6.5-1.6-.5-3.2-.9-4.8-1.4-1.5-.5-2.6.1-3.4 1.2-.9 1.4 0 2.6.8 3.5.8 1 1.8 2.1 2.9 2.5 10 3.5 20 7 29.2 8.7 3 1 4.7 1.1 5.6-.7z"/></svg>