<svg xmlns="http://www.w3.org/2000/svg" id="beard" viewBox="0 0 3000 3000"><path id="cl1" d="M1245.3 1408.8c7.9-9.7 8.4-10.7 2.4-18.5-3.7-4.8 2-7 1.6-10.7-.6-.9-1.5-1.3-2.5-.9-10.4 4.1-21 .2-31.5 1.1-1.5.1-3.2-.9-4.8-1.3-3.5-.9-4.9-2-4.7-6.6.2-6.6 2.2-11.4 7-15.5 3.2-2.7 6.3-5.6 8.5-9-1.4-3-3.5-1.8-5.3-1.5-2.9.6-5.8 1.7-8.7 1.9-10.7.9-12.5-1-13.2-11.6-1.3-21-11.5-35.8-31.1-43.9-6.4-2.7-7-2.9-4.3-9.3 1.5-3.7.9-6.3-.8-9.3-2.3-4-4-8.7-7.2-11.9-8.1-8.1-6-16.8-2.6-25.8.9-2.5 2.2-5 4-6.9 3.3-3.6 3.4-7 .5-10.6-2.8-3.5-2.6-7.1-1.3-11.2 2.4-7.1.6-13.8-3.4-19.7-4.5-6.6-8.7-13.2-10.5-21.1-1.1-4.6-3.5-6.8-8.3-6.6-1.9.1-4-.5-5.8-1.2-6.1-2.4-6.9-5.1-3.6-10.6 1.9-3.1 3.6-6.4 5.7-9.3 3-4.2 4.5-8.7 4.2-13.9-.1-2.5-.6-5.2 2-7.3 3.3-2.7 6.7-5.7 2.6-10.5-.4-.5 0-2.1.5-2.7 4.1-5.2 3.2-10.5.3-15.8-1.6-2.9-.6-5.3 1-7.4 4.3-5.9 4.6-12.6 2.7-19-1.7-5.7-4.1-11.3-10.2-14.7-5.9-3.3-5.3-3.9-1.2-10.5 10-16.1 18.7-32.7 21.7-51.8.8-5.3-.2-10.6 1.1-16.4 7.7 2.5 13.7 7.5 20 12.2 2.4 1.8 2.6 4.5 3.3 7 9.6 30.2 19.2 60.4 34.4 88.4 11.2 20.6 23.7 40.5 37.7 59.3 7.5 10 18.8 16.6 28.5 24.7 25.5 21.1 55.6 33.1 86.3 44 4.3 1.5 8 1.8 12.4.2 15.8-5.9 32-10.9 47.8-16.9 18.3-7 35.4-16.3 51.2-27.9 4-2.9 8.4-5.4 12.5-8.1 9.4-6.2 19.1-11.8 27.4-19.7 11.8-11.4 26.7-18.2 40.3-27 20.1-13 42.5-17.4 65.6-20.9 12.3-1.9 24.3-2 36.5-.7 16.2 1.6 31.2 5.7 43.7 16.8 4.6-1.3 4.9-6.8 8.9-8.9 6.3-3.2 12.5-5.5 19.8-6 24.2-1.7 45.3 5.7 63.4 21.2 9.8 8.4 18.5 18.2 24.8 29.5 7.8 14 17.9 26.2 28.1 38.5 5-6.3 7.3-13.2 6.8-21.1-.4-5.8 1.9-11.5.9-17.5-.6-3.8 2.6-6.4 6.9-7.2 2.1 6-.1 11.9.6 17.7.8 5.9 1.2 11.8 4 17.3 1 2.1 2.5 4.3.8 6.5-3.8 5 .6 11.2-2.9 16.3-.8 1.2.1 2.7 1.2 3.5 7.4 5.6 7 12.6 3.6 20-.9 1.9-1.4 3.7-1 5.8 2.4 13 1 26.7 6.4 39.2.5 1.2 1.3 2.5-.2 3.4-4.9 3-3.1 7.2-2.6 11.4.9 7-.2 14.4-2.7 20.6-3.2 7.9-4.3 16.3-7.5 24.3-2.4 6-2.3 13.1-1.4 19.7.8 5.4-.9 9-5.3 11.7-1.1.7-2.3 1.4-3.3 2.2-4.3 3.7-8.4 7.5-12.7 11.1-5.7 4.7 1.6 9.3 0 14.4-1.8 5.6 1.8 10.8 5.2 15.4-2.5 2.3-5.3 3.1-8.3 3.2-3.6.1-7.4-.6-9.9 3.1-2.9 4.3-4.9 9.4-3.4 14.1 1.7 5.4 1.4 9.1-2.9 12.9-2.1 1.9-3.4 4.9-3.5 8.1-.2 5.8-3.1 9.7-8 12.8-7 4.3-10.3 11.4-9.7 19.3.4 5.6-1.5 8.7-5.7 11.5-3.1 2-6.5 3.8-8.8 6.5-5.5 6.6-11 12.7-18.9 17-4.8 2.6-7.1 8.5-8.9 13.9-1.5 4.7-3.5 6.2-8.8 4-5.1-2.2-10.9-2.6-16.4-3.6-3.5-.7-6.5.6-9.3 2.6-2.9 2.1-5.7 4.4-8.8 6.2-9.7 5.7-10.6 5.6-19.2-2.2-3.8-3.4-7.7-3-11.9-1.1-4.4 2-7.7 5.3-10.8 8.7-2.6 2.9-5 3.7-8.6 1.4-3-2-6.6-3-9.3-5.6-4.6-4.4-9.4-4.7-14.3-.9-6.1 4.8-13.2 7.6-19.9 11.2-4 2.2-7.2 2.3-11.1.1-11.3-6.3-22.8-5.8-34.2.1-2.1 1.1-4.7 1.8-6 3.5-8.2 11.4-18.5 4.9-28.1 3.3-3.7-.6-5.3-4.8-7.3-7.9-2.2-3.5-4.6-4.2-8.3-2-7.7 4.5-16.3 3.9-24.3 2.2-6.1-1.3-11.3-.9-16.1 2.2-7 4.5-13.3 3.1-19.1-1.7-3.2-2.6-4.8-2.1-8.4-.1-5.9 3.4-12.9 5.1-19.5 7.1-3.2 1-5.7-1.4-7.9-3.4-5.1-4.7-10.2-9.5-15-14.4-2.7-2.7-5.3-3.8-8.9-2-1.2.6-2.6.6-3.8 1-10 3.3-18 2.7-24.5-7.7-6.3-10.1-16.8-15.6-28.9-16.8-7.3-.7-12.9-5.1-18.9-8.6-2.8-1.6-2.8-5.1-3.9-7.7-2.8-6.6-4.1-14.4-12.8-16.4-2.7-.6-3-3.3-4.2-5.2-1.9-3-3.1-6.5-7.2-7.7-4.1-1.2-4.3-5.6-5.3-8.9-2-6.6-5.8-10.4-12.9-9.7-3.7.3-5.6-1.7-8.2-4.1-7.1-7.2-11.4-17.4-24.1-18.7zm340-166.6c12.6 1.4 25.1 1.6 37.6-1.4 13.8-3.3 27.7-6.5 42-6.9 19.9-.5 39.9-.6 59.5 3.8 4.8 1.1 8.9.2 13.4-1.5 10.1-4 20.4-7.5 31.3-9-.2-3-1.8-5.1-3.1-7.4-5.4-8.9-14.3-13.5-22.9-18.6-14.1-8.3-27.3-17.3-37.6-30.5-3.8-4.9-6-10.9-10.7-15.4-1.4 1.2-2.5 1.9-3.3 2.9-15.9 20-37.8 30.7-61.1 39-16.5 5.9-33.2 11.3-49.2 18.3-11.8 5.2-23.2 11-33.2 23 13.8 1.5 25.6 2.4 37.3 3.7z"/></svg>