<svg xmlns="http://www.w3.org/2000/svg" id="beard" viewBox="0 0 3000 3000"><path id="cl1" fill="#020202" d="M1737.7 1119.5c0 1.7.2 3.3-.1 4.9-.4 2.3 1.4 6.5-2.6 6.1-3.1-.3-1.8-4.3-1.8-6.8 0-3.9.3-7.8.6-11.7.1-1.5-.2-3.7 2.1-3.8 3.1-.1 2.3 2.6 2.3 4.3.1 2.3-.2 4.6-.4 6.9.1.2 0 .2-.1.1zm-270.9 124.7c-.2-.2-1.5 0-1.7.4-1.9 3.3-1.8 6.7.1 10 .1.2.6.2 2.7.9-.1-4.2 2.1-7.8-1.1-11.3zm298.5-88.6c.2 1.5.1 3.5 2.5 3.1 1.5-.3 1.8-1.7 1.8-3 0-2.2.6-4.6-.6-6.7-.3-.5-1-.8-1.6-.8-.5 0-1.4.3-1.5.7-.4 1.2-.6 2.5-.7 2.7 0 2.1-.1 3.1.1 4zm23.5-7.5c-.1-.2-1.5 0-1.7.4-1.9 3.3-1.7 6.7.1 10 .1.2.6.2 2.1.7 1.4-3.9 2-7.5-.5-11.1zm-288.9 53.5c.1 1.7.5 3.5 2.7 3.2 1.5-.2 1.7-1.8 1.7-3.1-.1-2.3-.3-4.5-.6-6.7 0-.3-1-.8-1.5-.8s-1.4.4-1.6.8c-.5 1.2-.7 2.4-.7 2.7v3.9zm29-48.7c-.4-1.2-1.7-1.1-2.5-.6-1.7 1.2-1.8 8.5-.2 10.1.8.7 1.7.6 2.5-.2 1.3-1.3.8-3.1 1-5.3-.1-.9-.3-2.5-.8-4zm278.5 100c.2-2.9 1.2-5.9-.9-8.4-.3-.4-1.5-.6-1.8-.4-2.6 2.3-1.3 5.4-1.4 8.2 0 .9.7 1.7 1.1 2.6 2.3-.2 2.9-1 3-2zm-198-139.9c.2-2.9 1.2-5.9-.9-8.4-.3-.4-1.5-.6-1.8-.4-2.6 2.3-1.3 5.4-1.4 8.2 0 .9.7 1.7 1.1 2.6 2.3-.3 3-1.1 3-2zm-61.3 42.4c-.3-.9-1.2-1.7-2.3-1.2-2.9 1.2-1.7 3.9-1.8 6-.1 1.8-.5 4.1 2.2 4.7 1.3.3 1.7-.8 1.9-1.7.3-1.3.3-2.6.4-3.8-.2-1.4-.1-2.8-.4-4zm233.5 6.7c-.2-2.7 1.6-7.3-1.9-7.5-4.5-.3-1.8 4.4-2.4 6.9-.3 1.1.6 2.4.8 3.5 2.6.1 3.6-1.2 3.5-2.9zm-298.7 88.1c-.5-.2-1.6 0-1.8.3-1.9 3.3-1.7 6.7 0 10 .1.2.6.2 1.8.6 1.9-7.4 1.9-10.1 0-10.9zm24.4-79.5c3.2.2 2.3-3.2 2.4-5.3.1-1.3 0-2.7-.3-3.9-.3-.9-1.2-1.6-2.3-1.3-.5.1-1.3.6-1.4 1.1-.3 1.2-.4 2.6-.5 3.6.4 2.2-1 5.6 2.1 5.8zm83-51.5c-.1-1.3-.2-2.8-1.8-3-2.2-.2-2.6 1.5-2.6 3.2 0 2 0 3.9.3 5.9.1.9.8 1.8 2.1 1.7 1.2-.1 1.6-1 1.8-1.9.2-1.3.3-2.6.2-2.5 0-2.1.1-2.8 0-3.4zm12.6-1c-.5-.2-1.6 0-1.8.3-1.9 3.3-1.7 6.7 0 10 .1.2.6.2 1.8.6 1.9-7.4 1.9-10.1 0-10.9zm212.4 117.3c-.2-.9-1.2-1.7-2.3-1.3-3 1.2-1.6 3.9-1.8 5.9-.1 1.8-.6 4.1 2 4.8 1.2.3 1.8-.7 2.1-1.6.3-.9.3-1.9.4-3-.1-1.6 0-3.2-.4-4.8zm-146-116c-.3-.7-1.7-1.5-2.3-1.2-2.9 1.1-1.6 3.8-1.7 5.9-.1 1.7-.7 4.1 2 4.7 1.2.3 1.8-.7 2-1.6.3-1.2.3-2.6.4-3.8 0-1.5.1-2.9-.4-4zm-183.7 96.5c-.2-2.7 1.6-7.3-1.9-7.5-4.5-.3-1.8 4.4-2.4 6.9-.3 1.1.6 2.4.8 3.4 2.7.4 3.6-1 3.5-2.8zm47.4-49.9c-.1-.2-1.5-.1-1.8.3-2.1 3.3-1.8 6.7-.2 10 .1.2.5.3 2 .9 1.9-4 2.1-7.6 0-11.2zm143.8 118.1c-.2-.2-1.5 0-1.7.3-1.9 3.3-1.7 6.7 0 10 .1.2.6.2 2.5.8.4-4 2.2-7.6-.8-11.1zm-104.9-160.9c-.1-.4-.9-.9-1.4-1.1-1.1-.3-2.2.5-2.3 1.3-.3 3.3-1.5 7 2.2 10.3 2.8-3.7 2-7.2 1.5-10.5zm218 124.4c.1 1.7.6 3.5 2.7 3.1 1.4-.2 1.6-1.8 1.6-3.1 0-2 0-3.9-.2-5.9-.1-.9-.6-1.7-1.9-1.7-1.2 0-1.8.8-2 1.7-.3 1.3-.3 2.6-.3 2.5.1 2.1.1 2.7.1 3.4zm-172-112c.1 1.7.5 3.5 2.7 3.2 1.5-.2 1.7-1.8 1.7-3.1-.1-2.3-.3-4.5-.6-6.7 0-.3-1-.8-1.5-.8s-1.4.4-1.6.8c-.5 1.2-.7 2.4-.7 2.7v3.9zm31.5-7.4c-3.4 0-1.8 3.4-2.1 5.4-.2.9-.1 2 .2 2.9.3.8.8 2 1.5 2.2 1.5.3 2.4-.6 2.6-2.1.1-1 .2-2 .2-2.7-.4-2.3.9-5.7-2.4-5.7zm162.2 99.7c-.2-2.7 1.6-7.3-1.9-7.5-4.5-.3-1.8 4.4-2.4 6.9-.3 1.1.6 2.4.8 3.5 2.6.2 3.6-1.1 3.5-2.9zm1.6-47.3c3.2.2 2.3-3.2 2.4-5.3.1-1.3 0-2.7-.3-3.9-.3-.9-1.2-1.6-2.3-1.3-.5.1-1.3.6-1.4 1.1-.3 1.2-.4 2.6-.5 3.6.5 2.2-.9 5.6 2.1 5.8zm-37.8-39.7c.2-2.9 1.2-5.9-.9-8.4-.3-.4-1.5-.6-1.8-.4-2.6 2.3-1.3 5.4-1.4 8.2 0 .9.7 1.7 1.1 2.6 2.3-.3 3-1.1 3-2zm-287.5 42.7c.1 1.7.6 3.5 2.7 3.1 1.4-.2 1.6-1.8 1.6-3.1 0-2 0-3.9-.2-5.9-.1-.9-.6-1.7-1.9-1.7-1.2 0-1.8.8-2 1.7-.3 1.3-.3 2.6-.3 2.5.1 2.1.1 2.8.1 3.4zm14.4-5.4c-3.3-.2-2.2 3.2-2.4 5.3-.1 1.3 0 2.6.4 3.9.3.9 1.1 1.7 2.2 1.4.5-.1 1.2-.7 1.3-1.1.3-1.2.4-2.6.6-3.6-.5-2.3 1.2-5.7-2.1-5.9zm223-42.8c-.3-.9-1.2-1.8-2.3-1.4-3 1.1-1.7 3.8-1.8 5.9-.1 1.8-.6 4 1.9 4.8 1.2.4 1.9-.7 2.1-1.6.3-1.2.3-2.6.5-3.8 0-1.3 0-2.6-.4-3.9zm-199 45.7c-.1-1.3-.2-2.8-1.8-3-2.2-.2-2.6 1.5-2.6 3.2 0 2 0 3.9.3 5.9.1.9.8 1.8 2.1 1.7 1.2-.1 1.6-1 1.8-1.9.2-1.3.3-2.6.2-2.5 0-2.1.1-2.8 0-3.4zm-14 4c-.1-1.3-.2-2.8-1.7-3-2.2-.3-2.7 1.4-2.7 3.2 0 2.2-.6 4.6.7 6.7.3.4 1.1.8 1.6.8s1.3-.5 1.4-.9c.4-1.6.6-3.2.6-3.6.1-1.9.2-2.6.1-3.2zm125.3-42.2c-.3-2.4 1.4-6.3-2-6.6-3.9-.3-1.9 3.8-2.4 6-.3 1.6 0 3.3 1.5 4.7 2.9-.8 3.1-2.5 2.9-4.1zm168 42.2c-.1-1.3-.3-2.8-1.8-3-2.4-.4-2.5 1.5-2.5 3.1 0 2 0 3.9.3 5.9.1.8.5 1.8 1.9 1.7 1.2-.1 1.7-.9 1.9-1.8.3-1.3.3-2.6.3-2.6 0-2 0-2.6-.1-3.3zm-327.9 6c-.1-1.3-.3-2.8-1.8-3-2.4-.4-2.5 1.5-2.5 3.1 0 2 0 3.9.3 5.9.1.8.5 1.8 1.9 1.7 1.2-.1 1.7-.9 1.9-1.8.3-1.3.3-2.6.3-2.6-.1-2-.1-2.6-.1-3.3zm321.7 41.7c.2-2.9 1.2-5.9-.9-8.4-.3-.4-1.5-.6-1.8-.4-2.6 2.3-1.3 5.4-1.4 8.2 0 .9.7 1.7 1.1 2.6 2.3-.2 2.9-1 3-2zm-181-80.2c2.5 0 2-2.9 1.9-4.7-.1-2 1.2-4.7-1.8-5.9-1-.4-2 .5-2.2 1.4-.4 1.2-.3 2.6-.4 3.5.2 2.5-.7 5.7 2.5 5.7zm-81.6-8.5c-.2-.2-1.5 0-1.7.4-1.8 3.3-1.7 6.7.1 10 .1.2.6.2 2.1.6 1.3-3.9 2.1-7.5-.5-11zm29.4 4.2c-3.3-.1-2.1 3.3-2.3 5.4-.1 1 0 2 .1 2.9.2 1.5 1.1 2.5 2.5 2.2.6-.1 1.2-1.3 1.5-2.1.3-.9.2-1.9.3-2.8-.4-2.2 1.3-5.6-2.1-5.6zm227.7 113.3c.1 1.7.6 3.5 2.7 3.1 1.4-.2 1.6-1.8 1.6-3.1 0-2 0-3.9-.2-5.9-.1-.9-.6-1.7-1.9-1.7-1.2 0-1.8.8-2 1.7-.3 1.3-.3 2.6-.3 2.5.1 2.1.1 2.7.1 3.4zm-163.9 9c2.6 0 2.2-2.9 2-4.7-.2-2 1.2-4.8-2-5.8-1.1-.4-2 .4-2.3 1.3-.4 1.2-.3 2.6-.4 4.3.7 1.6-.7 4.9 2.7 4.9zm15-10.6c-.1-.2-1.5-.1-1.8.3-2.1 3.3-1.8 6.7-.2 10 .1.2.5.3 2 .9 1.9-4 2.1-7.6 0-11.2zm31.3 6.2c-3.3-.2-2.2 3.2-2.4 5.3-.1 1.3 0 2.6.4 3.9.3.9 1.1 1.7 2.2 1.4.5-.1 1.2-.7 1.3-1.1.3-1.2.4-2.6.6-3.6-.5-2.3 1.2-5.7-2.1-5.9zm113.1 0c-3.4 0-1.8 3.4-2.1 5.4-.2.9-.1 2 .2 2.9.3.8.8 2 1.5 2.2 1.5.3 2.4-.6 2.6-2.1.1-1 .2-2 .2-2.7-.4-2.3.8-5.7-2.4-5.7zm-165.2 6c-3.3 0-2 3.4-2.2 5.4-.1 1 .1 1.9.2 2.9.1 1.1.7 1.9 1.7 2.1 1.7.4 2.2-.9 2.4-2.2.2-1 .2-2 .2-2.8-.6-2 1-5.4-2.3-5.4zm40.6-.2c-.1-.2-1.5 0-1.7.4-1.9 3.3-1.7 6.7.1 10 .1.2.6.2 2.1.7 1.4-3.9 2-7.5-.5-11.1zm22.4 12.6c3.2.2 2.3-3.2 2.4-5.3.1-1.3 0-2.7-.3-3.9-.3-.9-1.2-1.6-2.3-1.3-.5.1-1.3.6-1.4 1.1-.3 1.2-.4 2.6-.5 3.6.5 2.2-.9 5.6 2.1 5.8zm-46.7-2.2c-.2-.4-1.5-.6-1.7-.4-2.8 2.7-1.4 6-1.2 9.1 0 .6.6 1.1 2.1 3.4 2.3-5 2.9-8.4.8-12.1zm151.7-.2c-3.3-.1-2.1 3.3-2.3 5.4-.1 1 0 2 .1 2.9.2 1.5 1.1 2.5 2.5 2.2.6-.1 1.2-1.3 1.5-2.1.3-.9.2-1.9.3-3.4-.8-1.3 1.3-4.9-2.1-5zm-337.4 1.9c-.2-.2-1.5 0-1.7.4-1.9 3.3-1.7 6.7.1 10 .1.2.6.2 2.1.6 1.3-3.9 2.1-7.5-.5-11zm352.5 1.3c-.2-.9-1.2-1.7-2.3-1.3-3 1.2-1.6 3.9-1.8 5.9-.1 1.8-.6 4.1 2 4.8 1.2.3 1.8-.7 2.1-1.6.3-.9.3-1.9.4-3-.1-1.6 0-3.2-.4-4.8zm-345 6.8c-3.3-.2-2.2 3.2-2.4 5.3-.1 1.3 0 2.6.4 3.9.3.9 1.1 1.7 2.2 1.4.5-.1 1.2-.7 1.3-1.1.3-1.2.4-2.6.6-3.6-.5-2.3 1.2-5.7-2.1-5.9zm205.3 8.7c-.3-2.4 1.4-6.3-2-6.6-3.9-.3-1.9 3.8-2.4 6-.3 1.6 0 3.3 1.5 4.7 2.9-.8 3.1-2.5 2.9-4.1zm129.6 7.7c3.2.2 2.3-3.2 2.4-5.3.1-1.3 0-2.7-.3-3.9-.3-.9-1.2-1.6-2.3-1.3-.5.1-1.3.6-1.4 1.1-.3 1.2-.4 2.6-.5 3.6.5 2.2-.9 5.6 2.1 5.8zm-28.4-8.5c-.2-.2-1.5 0-1.7.4-1.9 3.3-1.8 6.7.1 10 .1.2.6.2 2.5.9.2-4.2 2.2-7.8-.9-11.3zm-317.8 1.9c-.1-.2-1.5-.1-1.8.3-2.1 3.3-1.8 6.7-.2 10 .1.2.5.3 2 .9 1.9-4 2.1-7.6 0-11.2zm39.8 10.1c-.2-.2-1.5 0-1.7.3-1.9 3.3-1.7 6.7 0 10 .1.2.6.2 2.5.8.4-4 2.3-7.6-.8-11.1zm-29.8 1.9c-.1-.2-1.5-.1-1.8.3-2.1 3.3-1.8 6.7-.2 10 .1.2.5.3 2 .9 1.9-4 2.1-7.6 0-11.2zm180.3 5.3c-.3-.7-1.7-1.5-2.3-1.2-2.9 1.1-1.6 3.8-1.7 5.9-.1 1.7-.7 4.1 2 4.7 1.2.3 1.8-.7 2-1.6.3-1.2.3-2.6.4-3.8 0-1.4.1-2.8-.4-4zm-196 10.2c.2 1.5.1 3.5 2.5 3.1 1.5-.3 1.8-1.7 1.8-3 0-2.2.6-4.6-.6-6.7-.3-.5-1-.8-1.6-.8-.5 0-1.4.3-1.5.7-.4 1.2-.6 2.5-.7 2.7.1 2.1 0 3.1.1 4zm276-4.2c-.3-.7-1.7-1.5-2.3-1.2-2.9 1.1-1.6 3.8-1.7 5.9-.1 1.7-.7 4.1 2 4.7 1.2.3 1.8-.7 2-1.6.3-1.2.3-2.6.4-3.8 0-1.4.1-2.8-.4-4zm-249.9 2.9c-3.3 0-1.8 3.4-2.1 5.4-.2 1.3.1 2.6.4 3.9.1.5.9 1.3 1.3 1.2.9-.2 2-.6 2.3-1.3.5-1.2.4-2.5.5-3.5-.4-2.4.9-5.7-2.4-5.7zm65.4 5.8c-.1-.2-1.5 0-1.7.4-1.9 3.3-1.7 6.7.1 10 .1.2.6.2 2.1.7 1.4-3.9 2.1-7.6-.5-11.1zm-76.7 3.3c-.3-.9-1.2-1.7-2.3-1.2-2.9 1.2-1.7 3.9-1.8 6-.1 1.8-.5 4.1 2.2 4.7 1.3.3 1.7-.8 1.9-1.7.3-1.3.3-2.6.4-3.8-.2-1.4-.1-2.8-.4-4zm200.7-1.3c-.2-.2-1.5 0-1.7.4-1.9 3.3-1.7 6.7.1 10 .1.2.6.2 2.5.8.3-4 2.2-7.7-.9-11.2zm-100 4c-.1-.2-1.5 0-1.7.4-1.9 3.3-1.7 6.7.1 10 .1.2.6.2 2.1.7 1.4-3.9 2.1-7.6-.5-11.1zm66 .1c-.2-.2-1.5 0-1.7.3-1.9 3.3-1.7 6.7 0 10 .1.2.6.2 2.5.8.4-4 2.3-7.6-.8-11.1zm94.5 1.3c-.3-.9-1.2-1.8-2.3-1.4-3 1.1-1.7 3.8-1.8 5.9-.1 1.8-.6 4 1.9 4.8 1.2.4 1.9-.7 2.1-1.6.3-1.2.3-2.6.5-3.8 0-1.3 0-2.7-.4-3.9zm14.9-1.2c-3.3-.1-2.1 3.3-2.3 5.4-.1 1 0 2 .1 2.9.2 1.5 1.1 2.5 2.5 2.2.6-.1 1.2-1.3 1.5-2.1.3-.9.2-1.9.3-2.8-.4-2.1 1.2-5.5-2.1-5.6zm-246.5 12.9c-.1-1.3-.3-2.8-1.8-3-2.4-.4-2.5 1.5-2.5 3.1 0 2 0 3.9.3 5.9.1.8.5 1.8 1.9 1.7 1.2-.1 1.7-.9 1.9-1.8.3-1.3.3-2.6.3-2.6-.1-2-.1-2.7-.1-3.3zm179.7 1.1c-3.3 0-1.8 3.4-2.1 5.4-.2 1.3.1 2.6.4 3.9.1.5.9 1.3 1.3 1.2.9-.2 2-.6 2.3-1.3.5-1.1.4-2.5.5-3.5-.4-2.4.8-5.7-2.4-5.7zm-144.6 1.8c-.2-.2-1.5 0-1.7.4-1.8 3.3-1.7 6.7.1 10 .1.2.6.2 2.1.6 1.3-3.8 2.1-7.5-.5-11zm184.6 1.4c-.3-.9-1.1-1.8-2.2-1.4-2.6.8-1.9 3.1-1.8 4.9.1 2.1-1.1 4.7 1.9 5.8 1.1.4 1.9-.6 2.1-1.5.4-1.2.3-2.6.5-3.8-.2-1.4-.2-2.7-.5-4zm-114.1 13.2c3.2.2 2.3-3.2 2.4-5.3.1-1.3 0-2.7-.3-3.9-.3-.9-1.2-1.6-2.3-1.3-.5.1-1.3.6-1.4 1.1-.3 1.2-.4 2.6-.5 3.6.4 2.2-1 5.6 2.1 5.8zm32.1-10.4c-3.3 0-1.8 3.4-2.1 5.4-.2 1.3.1 2.6.4 3.9.1.5.9 1.3 1.3 1.2.8-.2 2-.6 2.3-1.3.5-1.2.4-2.5.5-3.5-.4-2.4.8-5.7-2.4-5.7zm175.7-152.5c-2.1 0-1.9 2.4-1.7 3.9.2 2.1-1.4 5.3 1.8 5.8 3.1.5 2-2.6 2.5-4.9-1-1.3 1.3-4.9-2.6-4.8zm-334.4 20c-3.6-.4-2.6 3-2.6 5.1 0 1.8-.8 4.6 2.1 4.6 2.8 0 1.8-2.8 2.1-4.6-.3-1.8.8-4.8-1.6-5.1zm17.4 5.9c-.1 1.6-.3 3.6 2 3.8 2.5.2 2.2-2 2.2-3.5-.1-2.2.9-4.7-1.7-6.8-3.6 1.8-2.4 4.4-2.5 6.5zm-4.9 1.2c-.1-1-1.6-1.7-2.3-1.2-2.7 1.9-1.2 4.8-1.4 7.3-.1.9.6 1.8 1 3.1 5.1-2.1 2.9-6 2.7-9.2zm193.7 16.9c-1.9.1-1.7 2.5-1.5 4.1.2 2-1.3 5.3 2 5.6 2.9.3 1.9-2.8 2.2-4.5-.3-2.2.9-5.4-2.7-5.2zm72.8-134c-3.1-.4-2.3 2.6-2.3 4.3.1 2-1.4 5.3 2.2 5.4 2.8 0 1.7-3 2-4.7-.3-1.9.8-4.7-1.9-5zm-44.4-14.3c3 .2 2.3-2.7 2.3-4.5 0-2.1 1.1-5.4-2.5-5.2-2.6.2-1.3 3.2-1.7 4.9.2 1.9-.8 4.6 1.9 4.8zm-15 152.3c-3.4.1-2.2 3.4-2.3 5.4-.1 1.8-.4 4.7 2.5 4.2 2.6-.4 1.4-3.2 1.7-4.9-.2-1.8.7-4.7-1.9-4.7zm12.1 2c-2.9-.5-2.5 2.5-2.4 4.3.1 2-1.2 5.2 2.4 5.4 2.2.1 1.6-2.3 1.9-4.4-.9-1.4 1.3-4.8-1.9-5.3zm-36.2-162c-3.3.3-2 3.5-2.1 5.6-.1 1.6-.3 4 1.7 4 3.8.2 2.1-3.2 2.6-5.5-.9-1.1.9-4.3-2.2-4.1zm-19.1 3.1c-.1-1-1.6-1.7-2.3-1.2-2.7 1.9-1.2 4.8-1.4 7.3-.1.9.6 1.8 1 3.1 5.1-2.1 3-6 2.7-9.2zm-186.2 172.7c.2.2 1.5-.1 1.7-.4 1.6-3.1 1.8-6.2-.2-9.3-.1-.2-.6-.2-2.3-.5-.6 3.6-2.2 7 .8 10.2zm15.3-4c.2 2.7-1.8 7.4 1.7 7.6 4.6.3 1.5-4.6 2.2-7 .2-.7-.6-1.8-.9-2.6-2.4.1-3 1.1-3 2zm201.9-160.1c3.1.1 2.2-2.8 2.1-4.5-.1-1.9 1.5-5.4-2.3-5.2-2.6.2-1.6 3.1-1.9 4.9.3 1.9-.8 4.7 2.1 4.8zm40.3-9.7c-2.9-.5-2.5 2.5-2.4 4.3.1 2-1.2 5.2 2.4 5.4 2.2.1 1.6-2.3 1.9-3.8-.5-2.1 1.2-5.3-1.9-5.9zm88.5 168c-1.9.1-1.7 2.5-1.5 4.1.2 2-1.3 5.3 2 5.6 2.9.3 1.9-2.8 2.2-4.5-.3-2.2.9-5.4-2.7-5.2zm-175.6-156.2c3.7.4 2.7-2.9 2.7-5 .1-1.8.7-4.7-1.8-5-3.7-.4-2.4 2.9-2.8 5.2.4 1.6-.7 4.5 1.9 4.8zm-12.7 7.9c2-.1 1.7-2.5 1.6-4.1-.2-2 1.3-5.3-2-5.6-2.9-.3-1.9 2.8-2.3 4.5.4 2.1-.9 5.3 2.7 5.2zm40 0c2-.1 1.7-2.5 1.6-4.1-.2-2 1.3-5.3-2-5.6-2.9-.3-1.9 2.8-2.3 4.5.4 2.1-1 5.3 2.7 5.2zm-189.3 170c3 .2 2.3-2.7 2.3-4.5 0-2.1 1.1-5.4-2.5-5.2-2.6.2-1.3 3.2-1.7 4.9.2 1.8-.8 4.6 1.9 4.8zm17.3-9.7c-3.6-.3-2.5 3.1-2.5 5.2 0 1.8-.7 4.6 2.2 4.5 2.7-.2 1.7-2.9 2-4.8-.4-1.7.8-4.7-1.7-4.9zm164.2 9.8c.2.2 1.5 0 1.7-.4 1.8-3.1 1.7-6.2-.1-9.3-.1-.2-.6-.2-2.5-.7-.3 3.8-2 7.2.9 10.4zm47.3-170.1c3.1.1 2.2-2.8 2.1-4.5-.1-1.9 1.5-5.4-2.3-5.2-2.6.2-1.6 3.1-1.9 4.9.3 1.9-.8 4.7 2.1 4.8zm-53.7 4.9c.1 1 1.6 1.6 2.3 1.1 2.7-1.9 1.2-4.8 1.4-7.3.1-.9-.6-1.8-1-3.1-5 2.2-2.9 6.1-2.7 9.3zm-12.7-4.7c-2.9-.1-2.2 2.8-2.2 4.6.1 2-1.2 5.3 2.3 5.4 3 .1 1.9-2.8 2.2-4.6-.2-2.1 1.2-5.3-2.3-5.4zm23.1 145.9c.2.2 1.5 0 1.7-.4 1.8-3.1 1.7-6.2-.1-9.3-.1-.2-.6-.2-2.2-.6-.8 3.7-2.2 7.1.6 10.3zm30-136c.2.2 1.5 0 1.7-.4 1.8-3.1 1.7-6.2-.1-9.3-.1-.2-.6-.2-2.5-.7-.3 3.8-2 7.2.9 10.4zm-208.6 170c-.1.9.6 1.8 1.8 1.9 1.9.2 2.2-1.1 2.2-2.5-.1-2.5 1-5.3-1.7-8-3.8 2.7-2.1 5.9-2.3 8.6zm249-170.1c3 .3 2.4-2.6 2.4-4.4-.1-2.1 1.2-5.4-2.4-5.3-2.7.1-1.4 3.1-1.8 4.8.3 1.8-1 4.6 1.8 4.9zm53.1 164.3c-3.4.1-2.2 3.4-2.3 5.4-.1 1.8-.4 4.7 2.5 4.2 2.6-.4 1.4-3.2 1.7-4.9-.2-1.8.7-4.7-1.9-4.7zm-67.9-170c-3.5 0-2.3 3.3-2.4 5.4-.1 1.8-.5 4.7 2.4 4.3 2.7-.3 1.5-3.1 1.9-5.2-.6-1.3.9-4.4-1.9-4.5zm-47.1 10c-3.2.4-1.7 3.6-1.9 5.7-.1 1.5-.4 4 1.6 4 3.7.1 2.2-3.2 2.6-5.2-.3-1.8.7-4.9-2.3-4.5zm-11.4 177.7c2-.1 1.8-2.5 1.7-4-.2-2.1 1.1-5.3-2.1-5.6-2.8-.2-1.8 2.8-2.1 4.5.4 1.9-1.4 5.2 2.5 5.1zm27.4-177.7c-3.3.3-1.8 3.6-2 5.6-.2 1.5-.4 4 1.6 4.1 3.7.1 2.3-3.1 2.6-5.1-.2-1.8.7-4.9-2.2-4.6zm-92.9 2c-2.9-.5-2.5 2.5-2.4 4.3.1 2-1.2 5.2 2.4 5.4 2.2.1 1.6-2.3 1.9-3.8-.5-2.1 1.2-5.3-1.9-5.9zm202.4 181.8c.2.2 1.5 0 1.7-.4 1.8-3.1 1.7-6.2-.1-9.3-.1-.2-.6-.2-2.6-.7-.1 3.8-1.9 7.2 1 10.4zm-316.6-4c.2 2.7-1.8 7.4 1.7 7.6 4.6.3 1.5-4.6 2.2-7 .2-.7-.6-1.8-.9-2.6-2.4.1-3 1.1-3 2zm229.5-177.8c-3.1-.4-2.3 2.6-2.3 4.3.1 2-1.4 5.3 2.2 5.4 2.8 0 1.7-3 2-4.7-.3-1.9.8-4.7-1.9-5zm56 0c-3.1-.4-2.3 2.6-2.3 4.3.1 2-1.4 5.3 2.2 5.4 2.8 0 1.7-3 2-4.7-.3-1.9.8-4.7-1.9-5zm-10.4 180c-3.3.3-1.8 3.6-2 5.6-.2 1.5-.4 4 1.6 4.1 3.7.1 2.3-3.1 2.7-5.5-.5-1.4.7-4.5-2.3-4.2zm9.6 0c-1.9.1-1.7 2.5-1.5 4.1.2 2-1.3 5.3 2 5.6 2.9.3 1.9-2.8 2.2-4.5-.3-2.2.9-5.4-2.7-5.2zm-100.7 9.8c-.1.9.6 1.8 1.8 1.9 1.9.2 2.2-1.1 2.2-2.5-.1-2.5 1-5.3-1.7-8-3.8 2.7-2.2 5.9-2.3 8.6zm-81.5-187.8c-3.6-.3-2.6 3-2.6 5.1 0 1.8-.8 4.6 2.2 4.6 2.8-.1 1.8-2.9 2.1-4.7-.4-1.7.7-4.7-1.7-5zm-18 2c-3.6-.4-2.6 3-2.6 5.1 0 1.8-.8 4.6 2.1 4.6 2.8 0 1.8-2.8 2.1-4.6-.3-1.8.8-4.8-1.6-5.1zm-52.2 184c-2.9-.5-2.5 2.5-2.4 4.3.1 2-1.2 5.2 2.4 5.4 2.2.1 1.6-2.3 1.9-3.8-.6-2.1 1.1-5.4-1.9-5.9zm228.6-.1c-2.1 0-1.8 2.4-1.7 3.9.2 2.1-1.4 5.3 1.8 5.8 3.1.5 2-2.6 2.5-4.9-1-1.2 1.3-4.8-2.6-4.8zm41.1.1c-3.3.3-2 3.5-2.1 5.6-.1 1.6-.3 4 1.7 4 3.9.2 2.1-3.2 2.6-5.5-.9-1.1.9-4.4-2.2-4.1zm-169.5-174.2c.2.2 1.5 0 1.8-.3 1.8-3.1 1.8-6.2 0-9.3-.1-.2-.6-.2-2.2-.8-1 3.8-2.1 7.1.4 10.4zm133.4-.1c3.1.1 2.2-2.8 2.1-4.5-.1-1.9 1.5-5.4-2.3-5.2-2.6.2-1.6 3.1-1.9 4.9.3 1.9-.8 4.7 2.1 4.8zm-224 188.2c-.1 1.6-.3 3.6 2 3.8 2.5.2 2.2-2 2.2-3.5-.1-2.2.9-4.7-1.7-6.8-3.6 1.8-2.4 4.4-2.5 6.5zm169-6c-2.1 0-1.8 2.4-1.7 3.9.2 2.1-1.4 5.3 1.8 5.8 3.1.5 2-2.6 2.5-4.9-1-1.2 1.3-4.8-2.6-4.8zm71 9.8c3.1.1 2.2-2.8 2.1-4.5-.1-1.9 1.5-5.4-2.3-5.2-2.6.2-1.6 3.1-1.9 4.9.3 1.8-.8 4.7 2.1 4.8zm-265 2c3 .4 2.5-2.4 2.4-4.3-.1-2.1 1.1-5.4-2.3-5.4-2.6 0-1.6 3-1.9 4.8.4 1.7-.8 4.6 1.8 4.9zm276.1 0c3 .3 2.4-2.6 2.4-4.4-.1-2.1 1.2-5.4-2.4-5.3-2.7.1-1.4 3.1-1.8 4.8.3 1.8-1 4.6 1.8 4.9zm-11.4-193.6c-3.9-.4-2.3 3.1-2.4 5.1-.1 1.7-1 4.6 2 4.6 2.9 0 1.9-2.8 2.2-4.8-.3-1.7.7-4.7-1.8-4.9zm-161.4 1.9c-3.5 0-2.3 3.3-2.4 5.4-.1 1.8-.5 4.7 2.4 4.3 2.7-.3 1.5-3.1 1.9-5.2-.6-1.3.9-4.4-1.9-4.5zm-12.1 2c-3.4.1-2.2 3.4-2.3 5.4-.1 1.8-.4 4.7 2.5 4.2 2.6-.4 1.4-3.2 1.7-4.9-.2-1.7.8-4.7-1.9-4.7zm-77.1 187.1c-.1-1-1.6-1.7-2.3-1.2-2.7 1.9-1.2 4.8-1.4 7.3-.1.9.6 1.8 1.2 3.4 4.4-2.6 2.8-6.3 2.5-9.5zm22.9 8.6c3.1.1 2.2-2.8 2.1-4.5-.1-1.9 1.5-5.4-2.3-5.2-2.6.2-1.6 3.1-1.9 5.2.4 1.5-.8 4.4 2.1 4.5zm178.7.1c.2.2 1.5 0 1.7-.4 1.8-3.1 1.7-6.2-.1-9.3-.1-.2-.6-.2-2.5-.7-.3 3.8-2 7.1.9 10.4zm-144.4-189.8c-3.5 0-2.3 3.3-2.4 5.4-.1 1.8-.5 4.7 2.4 4.3 2.7-.3 1.5-3.1 1.9-5.2-.6-1.3.9-4.4-1.9-4.5zm244 10.6c.1 1 1.6 1.6 2.3 1.1 2.7-1.9 1.2-4.8 1.4-7.3.1-.9-.6-1.8-1.1-3.4-4.5 2.6-2.9 6.4-2.6 9.6zm-161.8 181.1c2-.1 1.7-2.5 1.6-4.1-.2-2 1.3-5.3-2-5.6-2.9-.3-1.9 2.8-2.3 4.5.4 2.1-.9 5.3 2.7 5.2zm-121.3-178c3 .2 2.3-2.7 2.3-4.5 0-2.1 1.1-5.4-2.5-5.2-2.6.2-1.3 3.2-1.7 4.9.2 1.8-.8 4.6 1.9 4.8zm25.4-1.7c-3.6-.4-2.6 3-2.6 5.1 0 1.8-.8 4.6 2.1 4.6 2.8 0 1.8-2.8 2.1-4.6-.3-1.8.8-4.8-1.6-5.1zm59.7 174c-2.9-.5-2.5 2.5-2.4 4.3.1 2-1.2 5.2 2.4 5.4 2.2.1 1.6-2.3 1.9-3.8-.5-2.1 1.2-5.4-1.9-5.9zm72.9 0c-3.3.3-1.8 3.6-2 5.6-.2 1.5-.4 4 1.6 4.1 3.7.1 2.3-3.1 2.6-5.1-.2-1.8.7-4.9-2.2-4.6zm-205.1 4c-3.3.3-2 3.5-2.1 5.6-.1 1.6-.3 4 1.7 4 3.9.2 2.1-3.2 2.6-5.5-.8-1.1.9-4.4-2.2-4.1zm38.4 0c-3.6-.3-2.5 3.1-2.5 5.2 0 1.8-.7 4.6 2.2 4.5 2.7-.2 1.7-2.9 2-4.8-.4-1.7.8-4.7-1.7-4.9zm73.8 0c-3.5 0-2.3 3.3-2.4 5.4-.1 1.8-.5 4.7 2.4 4.3 2.7-.3 1.5-3.1 1.9-5.2-.6-1.4.9-4.5-1.9-4.5zm206.3-168.2c.2.2 1.5 0 1.8-.3 1.8-3.1 1.8-6.2 0-9.3-.1-.2-.6-.2-2.2-.8-1.1 3.8-2.1 7.1.4 10.4zm-248 172.2c-3.6-.3-2.6 3-2.6 5.1 0 1.8-.8 4.6 2.2 4.6 2.8-.1 1.8-2.9 2.1-4.7-.4-1.8.7-4.8-1.7-5zm110.2 0c-1.9.1-1.7 2.5-1.5 4.1.2 2-1.3 5.3 2 5.6 2.9.3 1.9-2.8 2.2-4.5-.3-2.2.9-5.4-2.7-5.2zm158.9-154.3c2-.1 1.8-2.5 1.7-4-.2-2.1 1.1-5.3-2.1-5.6-2.8-.2-1.8 2.8-2.1 4.5.5 1.9-1.3 5.2 2.5 5.1zm-323.9 6c2-.1 1.8-2.5 1.7-4-.2-2.1 1.1-5.3-2.1-5.6-2.8-.2-1.8 2.8-2.1 4.5.4 1.9-1.4 5.2 2.5 5.1zm203.8 152.3c-3.1-.4-2.3 2.6-2.3 4.3.1 2-1.4 5.3 2.2 5.4 2.8 0 1.7-3 2-4.7-.3-1.9.8-4.7-1.9-5zM1492 1205.7c0 1.6-.3 3.6 2 3.8 2.5.2 2.3-2 2.2-3.5-.1-2.2.9-4.7-1.9-7-3 2.1-2.2 4.6-2.3 6.7zm7.7 152.1c-3.1-.4-2.3 2.6-2.3 4.3.1 2-1.4 5.3 2.2 5.4 2.8 0 1.7-3 2-4.7-.3-1.9.8-4.7-1.9-5zm-28-152c-3.1-.4-2.3 2.6-2.3 4.3.1 2-1.4 5.3 2.2 5.4 2.8 0 1.7-3 2-4.7-.3-1.9.8-4.7-1.9-5zm344.9 0c-3.6-.3-2.5 3.1-2.5 5.2 0 1.8-.7 4.6 2.2 4.5 2.7-.2 1.7-2.9 2-4.8-.4-1.7.8-4.7-1.7-4.9zm-253.7 165.8c.2.2 1.5-.1 1.7-.4 1.6-3.1 1.8-6.2-.2-9.3-.1-.2-.6-.2-2.3-.5-.6 3.6-2.2 7 .8 10.2zm-25.7-4.7c-.1-1-1.6-1.7-2.3-1.2-2.7 1.9-1.2 4.8-1.4 7.3-.1.9.6 1.8 1.2 3.4 4.4-2.6 2.8-6.3 2.5-9.5zm41.5 2.9c-3.6-.3-2.6 3-2.6 5.1 0 1.8-.8 4.6 2.2 4.6 2.8-.1 1.8-2.9 2.1-4.7-.4-1.8.7-4.8-1.7-5zm31.9 11.7c2-.1 1.7-2.5 1.6-4.1-.2-2 1.3-5.3-2-5.6-2.9-.3-1.9 2.8-2.3 4.5.4 2.1-.9 5.3 2.7 5.2zm27.8-1.1c.1 1 1.6 1.6 2.3 1.1 2.7-1.9 1.2-4.8 1.4-7.3.1-.9-.6-1.8-1-3.1-5 2.2-2.9 6.1-2.7 9.3zm22.3-8.6c-3.6-.3-2.6 3-2.6 5.1 0 1.8-.8 4.6 2.2 4.6 2.8-.1 1.8-2.9 2.1-4.7-.4-1.8.7-4.8-1.7-5z"/></svg>