<svg xmlns="http://www.w3.org/2000/svg" id="beard" viewBox="0 0 3000 3000"><path id="cl1" fill="#5B5B5B" d="M1807.7 1273.1c4.8-.9 7.3-4.4 11.7-6.1-6.2 24.2-13.8 47.1-23.4 69.3-2.4 5.5-6.7 9.9-11.2 13.8-9.5 8.3-18.9 16.7-28.6 24.6-22.9 18.7-49.5 29.7-79 32.9-31.2 3.5-62.2 2.7-93.4-1.4-32.8-4.2-64.8-11.6-96.7-19.4-20.6-5-40.8-12.1-60.7-19.5-29.9-11.1-61-19.2-89.5-33.6-29.3-14.8-58.8-29.8-82.7-53.1-13.3-13-26.1-26.5-37.8-41-2.8-3.5-3.9-7.7-5.7-11.6-7.4-16.6-14.8-33.3-20.8-50.5-1.3-3.7-1.7-7.8-2.7-11.6-1.3-5.2 1.9-7.3 5.8-8.9 3.5-1.4 4.4 1.7 5.8 3.8 10.5 15.3 21.1 30.7 33.5 44.6 16.4 18.5 35.8 33.4 56.8 46.4 3.7 2.3 7.3 4.6 10.7 7.4 24.4 20 54.6 28.4 82.3 41.8 23.5 11.4 49.3 15.9 73.8 24 5.1 1.7 7.8-.8 9.7-4.4 1.8-3.5 2.5-7.4 2.4-11.6-.1-23.5-.7-47.1.3-70.5.7-14.4.2-29.3 6.3-43 3.1-7 7-12.9 13.4-18 30.8-24.8 64.5-44.1 101.1-58.8 10.2-4.1 20.2-8.5 30.6-11.9 13.3-4.3 26.7-7.5 40.9-6.9 20.3.8 40.5-2.1 60.8-2.9 5-.2 9.2.6 13.1 3.1 14.4 9.1 27.3 20 38.6 32.7 8.6 9.6 16.8 19.6 26 28.6 7.6 7.4 8 16.9 7.7 25.7-.8 21.8-1.6 43.6 1 65.4.7 6.6-.7 13.1-.1 20.6zm-20.2-74.7c.8-12.2-4.6-21.1-14.7-27.3-15.2-9.4-30.6-18.4-47-25.8-11.2-5-23.1-7.2-34.9-7-16.2.3-32.5 1-48.4 4.7-40.8 9.3-78.5 26.1-114.7 46.8-10.7 6.2-17.8 15-21.6 26.2-4 11.6-5.9 23.7-6.2 36-.4 21.6 2.5 43 6.3 64.2.4 2.2 1.4 4.4 2.4 6.5 4 8.2 11 13.2 18.6 17.5 20.1 11.5 41.8 18.4 64.4 23 10.4 2.1 20.4 1 30.6.3 3.1-.2 5.6-1.9 8.2-3.4 12.2-6.8 16.4-18.9 19.1-31.1 3.7-16.2 2.9-27.6-14.9-36.4-.9-.4-1.6-1.2-2.4-1.8-5-3.7-6.6-9.2-4.1-14.7 2.6-5.8 6.6-9.5 13.4-10.5 12.8-2 25.7-3 38.4-5.1 8.8-1.5 16.3-.4 24.1 2.9 4 1.7 4.7 4.6 4.9 8.5.5 9.4-3.1 16.2-10.5 22-9.5 7.5-15 17.2-13.2 30 .4 2.9.1 5.9.1 8.9.1 10.4 6 16.5 16 17.3 11.5 1 22-2.5 30.9-9 12-8.8 23.6-18.3 34.4-28.6 7.9-7.5 13.1-17 15.1-28.4 2.5-13.7 5-27 4.8-41.1-.2-12 .1-24.3.8-34.1.1-5.1-.1-7.8.1-10.5z"/></svg>