<svg xmlns="http://www.w3.org/2000/svg" id="beard" viewBox="0 0 3000 3000"><path id="cl1" d="M1707.1 1164.6c-2.8-.8-3.9-2.4-4.4-3.8-3.4-8.7-11.3-7.9-18.3-9.1-2-.3-2.1.7-2.5 2-.9 2.9-3 5-4.9 7.3-10.2-11.3-16.3-15.5-27.7-1.6-12.2-13.5-17.7-11.6-29.9 2.4-5.3-2.7-6.8-11-16.3-8.5-7.4 2-11.5 5.3-14.1 12.1-2.8-3.6.2-6.7-1.8-10.1-5.4 3.1-12.3 2.2-18.2 7-2.9-6.8-.2-12.8 1-18.5 2.2-10 5.1-19.8 7.8-29.7 2.1-7.4 5.1-12.9 14.9-12.4 6.6.4 13.4-3.7 20.2.1 11.4-4.2 23.1.4 34.9-1.1 13.1-1.7 27.2-2.8 40.8.7 4.6 1.2 10 1 14.7-.1 7.9-1.9 15.6-1.1 23.5-.7 9.4.5 19-.6 28.5-1.9 5.2-.7 7.3-.1 9.1 5.5 4.5 13.6 6.3 27.8 11 41.3 1.3 3.7 1.2 7.8.1 11.7-5.7 1.1-5-5.5-8.7-7-1 1.5-2 3.2-3.6 5.8-2.5-3.5-5.3-5.9-8.7-7.5-6.7-3.3-9.9-1.6-11 5.7-.3 1.9.4 4-1 6.3-5 .4-7.1-3.8-9.3-7.1-2.1-3.2-4.1-4.7-8.1-3.9-4.2.8-8.5 1-12.4-1.5-3.1 5.7-4.6 11-5.6 16.6z"/></svg>