<svg xmlns="http://www.w3.org/2000/svg" id="beard" viewBox="0 0 3000 3000"><path id="cl1" d="M1513.5 1074c2.7 13.6 6.1 26.6 14.2 38.7 8.2 12.2 18.9 20.4 32.4 25.2 18.8 6.6 37.8 8.7 57.5 3.9 13.6-3.3 22.8-11.6 30.2-22.7 2-3 4.1-6.1 6.3-9 7.7-10.4 18.6-13.4 30.9-12.6 9.7.6 16.1 5.5 17.4 15.6 2.2-.1 2.9-1.5 3.3-3 3.7-12.3 28.5-15 35.6-4.7 3.2 4.7 6.6 9.2 8.8 14.4 2.6 6.1 7.1 10.2 12.8 13.4 17.7 10 51.4 7.7 67-11 5.5-6.6 9.4-14.9 12.9-29.8 3.5 1.1 2.8 4.1 2.6 6.6-2.2 27.9-15.3 49.3-40 62.5-9 4.8-19.3 6.2-29.9 5-8.5-1-17.2-.4-25.7-2.7-18.6-4.9-40.5-22.2-44.8-38.9-1.5-.1-2.3 1.2-2.4 2.2-1 13.2-9.2 21.5-19.3 28.4-12.3 8.4-26.5 11.9-40.7 15.3-24.1 5.8-48 6.2-71.4-2.9-28.4-11-47.8-30.5-56-60.3-.9-3.2-1.4-6.5-1.5-9.8-.4-8-.2-15.9-.2-23.8z"/></svg>