<svg xmlns="http://www.w3.org/2000/svg" id="beard" viewBox="0 0 3000 3000"><path id="cl1" d="M1509.6 1166.8c6.7-13.3 16.4-22 25-31.5 7.1-7.9 15.4-14.8 21.8-23.3s14.4-7.9 22.8-6.9c3.4.4 6.6 1.4 9.7-.3 6.8-3.8 14.6-4.4 21.4-2.6 9.1 2.3 17.2-2.3 26.1-1.3 4.9.5 10.5-4.5 16.2-2.9 9.6 2.7 18.6 0 27.6-2.5 6.6-1.8 12.4 1.4 18.5 2.8 3.3.8 6.2 1.3 9.6.4 11.8-3.1 23.5-3 35 1.6 3.7 1.5 6.8 2.5 11.3 1.8 5.7-.9 11.7 1.9 17.2 4.1 3.5 1.4 4 5.9 5.7 9 5.6 10.9 11 22 16.5 33.1-4.5 1-8.1.3-10.9-3.1-1.8-2.2-4.3-1.4-6.5-1.9-2.8-.6-5.9-.6-8.6-1.5-7.1-2.4-7-2.6-9.1 5.4-4.9-5.8-11-7.7-18.2-7.3-1.8.1-3.9-1-5.5-2.1-2.5-1.7-4.6-2.4-7.1-.2-1.2 1.1-2.9 2.1-4.4.7-5.9-5.8-3.2 2.5-5.1 3.1-9.8-7.7-9.9-7.6-12 3.9-5.7-1.9-8.5-6.6-10.4-11.7-2.6 1.2-1.9 3.3-2.8 4.5-1.4 1.9-2.6 4.1-4.4 5.3-2.7 1.8-3.9-1.5-5.7-2.7-6-3.8-10 1.9-14.8 3.4-1.3.4-2.4 2.4-3.7.5-2.4-3.6-6.7-3.6-9.8-5.6-7.5 8.7-7.5 8.7-13.9.7-7.2 7.2-18.9 3.7-25.8 11.5-2.8-1.9-1-4.5-1.8-6.5-2.7-2-5.1 5.3-8.2.1-1.1-1.9-2.8-.3-4.1.8-1 .8-3 2-3.3 1.7-5.7-5.5-9 .7-13.3 2.5-1.4.6-2.9 2.8-4.3 1.3-5.7-5.9-9.6-1.9-13.5 2.1-2.5 2.5-4.6-.7-6.5-.2-2 .5-3.1 3.3-5.4 3.9-1.9-2.2 1.4-4.2 0-6.9-6.8 1.2-7.7 9.8-14 11.5-2.8-2.6 1.4-4.4.5-7.6-10 4.1-19.9 8.1-31.8 12.9z"/></svg>