<svg xmlns="http://www.w3.org/2000/svg" id="beard" viewBox="0 0 3000 3000"><path id="cl1" d="M1528 1196.9c-1-3.5-.1-6.5 1.2-9.7 11.5-28.2 26.9-54 46.8-77.1 1.9-2.2 3.7-4.4 6.8-5.4 3.5-1.1 5.6-.3 7.6 2.5.6.8 3 1.2 3.7.6 4.5-3.8 8.6-1.1 13.3-.3 4.1.8 8.5 1.2 13.2-1.2 4.8-2.3 11.2-1.8 16.9-1.8 1.9 0 4.2.9 5.7-.4 5.3-4.6 10.4-4.4 16.2-.8 2.9 1.8 5.5-1.4 8-2.9 2.3-1.3 4.1-3.2 6.9-.7 2.1 1.8 4.8 1.3 7.6.5 4.2-1.1 8.5-1 12.6.7 5.1 2.2 6.7 6.6 3.4 11-7.9 10.8-13.9 22.6-19.1 34.8-1.1 2.5-1.6 5.5-6.3 4.2-4-1.1-7.1 6.3-11.1 4-3.8-2.1-7-3.4-11.1-2.2-7.6 2.2-7.6 2.2-14.1-.9-2.1 2.5-4.2 5-6.2 7.6-1.3 1.6-2.6 3.6-4.7 2.1-1.8-1.3 1.7-3.5-.1-5.3-2.2.2-2.6 2.6-4.2 3.6-.7.5-2.3 1.1-2.3 1-4.1-8.2-7-.4-9.5 1.2-2.2 1.5-3.2 1.1-5-.1-3.7-2.5-7.2-1.6-10.7.9-2.5 1.7-4.7 3.8-8.6 1.3-2.1-1.3-4.8 4.5-8.3 3.7-6.1-1.4-9.2 2.7-12.6 6.1-2.5 2.5-4.9 5.3-7.3 7.9-2.9-1.9 1.6-4.3-1.4-6.5-4.7 2.5-9.1 6.2-15.1 6.8-2.8.3-3.3 3.8-4.7 6-2.2 3.2-3.3 7.2-7.5 8.8zm256.1-84.4c-1.9-2.6-4.3-5.6-7.6-6.2-7-1.2-14.2-1.4-21.2-2-6.8-.6-13.8.4-20.9-1-3.9-.8-6.6-5.2-9.3-4.1-3.4 1.4-6.6 3.9-10.2 5.4-1.4.6-3.2-.7-4.8 1.3 6.9 13.7 13.9 27.6 20.8 41.5 1.5 3.1 5.2 7.3 6.7 6.2 5.2-3.8 5.5 1.3 7.7 3 1.3 1 2.1 2.6 4.1 2.6 1-2.7.9-8.6 5.3-5.1 4.3 3.3 11.1 2.1 13.6 8.3.4 1.1 2.1 3.1 3.7.8 2.5-3.7 4.4-3.1 6.4.5.7 1.3 1.8 3.2 3.8 2.6 6.1-1.8 11.4-.9 15.5 4.4.3.4 1.3.7 1.5.5 5.3-4.2 6.8 1.6 9.3 3.7 2.9 2.5 5.1 5.8 7.6 8.8-4.2-27-16.2-50-32-71.2z"/></svg>