<svg xmlns="http://www.w3.org/2000/svg" id="beard" viewBox="0 0 3000 3000"><path id="cl1" d="M1632.8 1175.7c-23.3-24.5-48.4-18-66-.2-11.4-11.3-24.8-17.6-41.1-14.8-15.9 2.7-25.9 13.8-34.7 27.1-11.2-34.4-28.9-64.9-42.8-97.2 5.2 5.3 9.8 10.8 15.5 15.5 8.6 7.3 18.4 10.1 29.4 9.9 6-.1 11.8-1.5 17.6-2.9 8.2-2 14.1-7.1 18.3-16 6.9 16 18.6 23.8 35.2 22.8 15.5-1 27.3-8.5 34.9-22.2.8.5 1.6.7 1.9 1.2 3.1 5.8 5.7 12.2 12.7 14.5 8.7 2.8 17.6 3.7 26.6 1.9 7.3-1.5 13.9-4.5 20-8.7 4.8-3.3 9.7-6.3 15.4-8.3-17.4 24-32.7 49.2-42.9 77.4zm218.5-24c15.9-.6 24.9 8.8 33.6 19.7 1.5-1.4 2.2-2.8 2.4-4.5 2.9-27.6 12.8-53.2 22-79.1.5-1.4 1.4-2.9-1.1-4.4-7.4 9.8-15.5 19.1-28.8 20.5-14.2 1.5-21.9-8-29.4-19.9-7.1 16.6-19.5 23.7-35.2 23.8-15.9 0-27.9-8.4-36.4-21.9-18.7 27.6-35.4 29.6-65.6 7.8 5.7 14.4 16.7 24.9 22.1 38.9 5.3 13.6 10.5 27.6 19.5 40.3 6.2-14.3 14-21.8 25.2-22.6 17-1.2 29.1 7.1 37.5 23.6 9.8-12.5 18.8-21.7 34.2-22.2z"/></svg>