<svg xmlns="http://www.w3.org/2000/svg" id="beard" viewBox="0 0 3000 3000"><path id="cl1" d="M1818 1196.7c1.7 13.8-3.5 27.9-8.6 41.9-2.7 7.3-15.9 11.6-22.8 7.7-3.6-2-2.9-5.6-3.2-8.8-1.3-12.4-1-25.2-6.8-36.8-1.8-3.6-3.7-7.1-6.2-10.2-2.9-3.5-6.4-5.1-11.2-5.5-22.2-1.9-44.5-2.4-66.7-1.8-26.8.7-53.6 2.9-80.3 5.4-10.2.9-20.6 1-30.9 1.2-6.4.1-11.8 2.7-16.1 6.8-11.8 11.6-23.2 23.5-31.5 38.1-5.1 9-10 17.8-12.1 28.1-1.8 8.5-3.7 9.3-12.5 8.4-2.3-.2-4.7-.3-6.9-.9-9.6-2.8-12.3-6.3-12.1-16.4.7-39.5 14.8-73.8 42.1-102.1 14.4-14.9 32.5-24.9 51.1-33.9 23.2-11.2 47.8-18.4 73.1-21.2 22.5-2.5 45.1-5.1 68.4-1.5 30.1 4.6 54.8 17.5 73.6 40.7 13.7 16.8 20.7 37 19.6 60.8zm-120.4 106.5c10.3-.8 18.7-6.6 22.5-17 4.3-11.8 8.3-23.7 12.1-35.6 2-6.1 0-9.3-6-8.4-8.5 1.4-17.1.7-25.7 2.2-13 2.3-26.2 3.7-39.5 3.4-7.3-.1-14.6-.7-21.9-.7-8.6-.1-8.1.1-9.7 8.4-1.7 8.8-2.4 17.8-2.8 26.6-.5 13.6 1.5 17.5 13.8 21.4 6.9 2.2 13.7 2.1 22.4 2.3 10.4.8 22.6-1.6 34.8-2.6z"/></svg>