<svg xmlns="http://www.w3.org/2000/svg" id="beard" viewBox="0 0 3000 3000"><path id="cl1" d="M1424.1 1274c-7.9 4.2-14.4 6-19.6 10.3-6.7 5.5-7.8 12.1-2.7 19 3.2 4.3 7.2 7.7 11.6 10.8 24 16.9 51.2 26.4 79.3 33.3 32.6 7.9 65.8 12.6 99.3 14.7 43.9 2.8 86.8-2.5 128.9-14.7 25.4-7.3 48.5-19.6 70.4-34.3 2.5-1.7 4.5-3.9 6.5-6.1 9.6-11 7.4-20.6-6-26.4-1.7-.7-4.2.1-5-2.6 4.5-1.2 8.5.6 12.5 1.9 14.1 4.7 28.5 9 39.9 19.4 13.5 12.3 17.3 38.9-1.7 53.1-1.8 1.4-3.9 2.4-5.7 3.9-2.4 1.9-3.5 4-2.8 7.7 6.1 28.3-8.9 51-33.6 61.3-28 11.7-57 14.9-85.9 1.9-2.8-1.3-5.5-2.7-7.6 1.1-8.7 15.4-23.3 22.9-38.8 29.2-40.5 16.4-80.6 13.7-119.9-3.4-11-4.8-23-8.9-30.6-19.3-2.4-3.3-4.5-1.6-6.9-1-11.4 2.5-22.9 4.2-34.6 3.5-25-1.5-49.5-5.4-71.9-17.9-17.2-9.7-27.3-23.7-26.9-43.9.1-4.8-2.8-5.8-5.8-6.7-8.4-2.5-15.7-6.9-23.2-11.1-6.1-3.4-9.6-8.8-13.8-13.8-1.6-1.9-1.7-4.2-1.9-6.6-1.4-17.8 5.7-31.3 21.4-39.5 16.2-8.5 33.1-15.4 50.9-19.7 7.2-2 14.4-4.9 24.2-4.1z"/></svg>