<svg xmlns="http://www.w3.org/2000/svg" id="beard" viewBox="0 0 3000 3000"><path id="cl1" d="M1597.9 1496.8c8.4 8.2 10.3 17.7 5.9 28.4-1 2.3-1.4 3.9.5 6.1 5.6 6.6 4.6 14.4 3 21.9-.7 3.4-1 6 .6 9.3 3.1 6.1 4.4 12.8-.4 18.7-2 2.5.3 3.5.9 5 1.4 3.6 4.8 6.9 3.7 11-1.8 6.7-4 13.4-7.8 19.2-1.5 2.3-5.9 1.7-7.5 7.1-6.6-13.6-12.3-25-5.8-38.3.9-1.9.9-2.9-.7-4.1-10.1-7.7-11.8-17-4.8-27.6 2.1-3.1.3-5.3-1.5-6.9-8.9-7.8-7.7-16.9-3.3-26.2.9-2 1.4-3.3 0-5.3-6.4-9.3-7-19.1-1.4-29.1 1.3-2.4 1.1-4.3-.6-6.3-6.3-7.6-7.5-16-3.4-25 2.3-4.9-.1-7.5-4.2-9.5-21.3-10.3-37.7-26.9-54.5-42.8-8.4-8-14.6-17.9-22.8-26.2-5.3-5.3-4.7-8.9 1.4-13.1 7.1-4.9 14.5-9.3 21.8-14 4.4-2.9 8.9-2.1 13.4-.5 10.4 3.5 20.7 7.1 31.8 7.6 25.5 1.1 50-2 71.2-18.1 6.5-4.9 11.1-11.3 14.8-18.5 6.4-12.4 12.8-24.7 16.3-38.3 1.5-5.6 5.2-7.8 10.9-8.2 10.6-.7 21.1-1.9 31.6-2.9 5.4-.5 7.5 1 7.3 6.5-.3 10.6-.1 21.3-1.8 31.8-.5 3.3-.5 6.7-.3 10 .7 9.5 5.1 14.3 14.3 16.5 10.5 2.5 20.4-.6 30.3-3.4 6-1.7 17.2 3.9 18.3 9.8.8 4.1-1.5 7.9-3.7 11.1-5.5 8.3-11.5 16.2-17.4 24.3-10.4 14.3-21.8 27.7-34.2 40.3-2.8 2.8-4.7 6.4-7 9.6-3.9 5.3-5.2 9.9-1.2 16.1 4.3 6.7 3.2 14.1-1.3 20.6-2 2.8-2.4 5-.6 8 3.7 6.2 3.6 12.8.2 18.9-2.3 4.1-1.8 7.5.2 11.1 1.7 3 2.9 6.4 1.6 9.5-2.4 5.6-4.3 10.4 1.2 15.7 2.1 2.1.1 5.9-1.7 8.3-2.4 3.2-1.9 5.6-.2 9 3.3 6.1 3.2 12.8 1.5 19.4-1.4 5.7-3.9 2.3-6.2-.1-1.7 2.7-.6 5.5-.3 7.5-.8 1.4-1.4 1.3-2.1 1.2-3.4-.6-5.1-5.4-9.7-3.6-1.5.6-2.7-1.9-2.6-3.6.7-7.7-4.5-15.7.8-23.2 1.4-1.9-.1-2.6-1.2-3.9-6.6-7.5-5.1-16.3-1.9-24.3 1.4-3.6 1.4-4.9-.5-8.2-3.2-5.6-2-12.3-.5-18.5.6-2.7 1.4-4.6-.4-7.3-4.3-6.7-3.4-14-.4-21 .8-2 2.8-3.4.3-5.8-6-5.8-5-13.4-4.2-20.5.3-2.3.5-3.4-1.6-4.7-8.2-5.1-15.7-11.1-22.9-17.4-2.8-2.5-4.9-2.4-7.5.6-12.2 14.6-27.5 24.8-45 32-3 1.2-5 2.8-5.1 6.4 0 2.3-1.2 4.5-1.8 6.7-1.2 5.1-1.9 9.5 1.4 14.8 6.1 8.8 2.8 18.1-3.2 26.4z"/></svg>