<svg xmlns="http://www.w3.org/2000/svg" id="beard" viewBox="0 0 3000 3000"><path id="cl1" d="M1600.7 1429.2c-.5 1.8-.9 3.7-1.7 7-6.9-20.3-8.4-39.6-5.8-59.3 1.8-14.2 5.5-28.1 10.9-41.1 11.6-27.8 27.2-42.4 60.1-43.8 6.2-.3 12.5-.6 18.7 1.6 9.1 3.2 14.4 9.8 16.3 18.5 5.7 25.2 2.9 50.1-5 74.5-3.8 11.7-11.8 21.5-16 33.1-.6 1.7-2.4 3.1-3.8 4.5-4.4 4.5-1.2-3.7-5.6-.4-3.4 6-6.7 15.2-12.7 22.8-5.9 7.5-13.6 13.8-16.2 22.6-3.2 2-2-5.7-4.7-1.3-3.4 5.6-4.4 12.3-5.8 19.3-4.9-6-2.4-12.8-4-19.9-5.9 7.9-7.5 16.9-13.6 26.5.6-23.6-7-43.7-11.1-64.6z"/></svg>