<svg xmlns="http://www.w3.org/2000/svg" id="beard" viewBox="0 0 3000 3000"><path id="cl1" d="M1659.4 1576.4c-7.1-7.4-13.2-14.8-9.7-25.6.6-2 .5-3.9-1.2-5.5-7-6.3-5.4-14.7-4.2-22.4.4-2.8 1.1-4.8-.8-7.1-1.8-2.1-2.3-4.7-3.2-7.2-2.4-6.6 3.7-12.8.4-19.9-2.8-6-1.4-13 1.1-19.4 1.4-3.5.3-7-2.3-9.2-4.8-4.1-8.1-9.5-12.7-13.8-11.4-10.6-22.9-21.2-30.7-35-8.3-14.5-7.9-29.4-1.2-43.9 9.2-19.7 24-32.9 46.2-36.8 11.1-2 22.2-3.1 33.5-3.8 21.6-1.4 39.6 17.2 41.5 38.7 2.1 23.5-6.6 42.9-21.8 59.9-9.1 10.2-18.4 20.1-27.9 29.9-2.8 2.8-4.3 5.3-3.1 9.5 1.3 4.2 1.2 8.6-2 12.3-2.1 2.4-1.3 4.4-.2 7.1 2.1 5 2.1 10.4-.8 15.3-1.9 3.2-1.5 5.9.1 9.2 2.6 5.4 4.6 11.1 1.8 17.1-1 2.2-.2 3.8.7 5.6 1 2.2 1.7 4.6.7 6.8-2.6 5.8-2.2 11.5-.4 17.4.5 1.7.5 4.5-.6 5.8-3.5 4.5-3.7 9.5-3.2 15z"/></svg>