<svg xmlns="http://www.w3.org/2000/svg" id="beard" viewBox="0 0 3000 3000"><path id="cl1" d="M1273.4 1258.1c15.2 5.4 30.7 10.3 45.7 16.3 20.7 8.2 42.1 14.3 63.6 20 26.6 7.1 53.2 14 80.5 17.9 23.9 3.4 47.9 6.4 72.1 8.1 18.3 1.3 36.5 1.4 54.8 1.4 16.9 0 32.8-4.3 47.1-13.5 11.9-7.6 16.9-20.2 13.1-33.5-1.8-6.1-5.3-10.4-10.4-13.8-8.7-5.8-18.9-8-28.1-12.7-2.2-1.2-4.6-2.1-6.8-4 41.5-1.3 82.8-3.5 124.6-3.6-7.8 5.7-15.6 11.4-23.5 17-9 6.3-15.4 14.4-17.1 25.6-.4 2.6-1.4 5.1-2.1 7.6-2.2 8.5 1.4 16.4 9.3 19.5 10.4 4.1 21.1 4.8 32.1 1.8 21.1-5.8 39.7-16.3 56.8-29.8 13.6-10.7 25.5-22.9 36.2-36.5 2.3-2.9 4.7-5.5 8.3-8.1-1.2 8.3-5.5 14.8-7.4 22.1-2.7 10.6-8 20.3-11.6 30.6-3.7 10.7-9.8 20.2-13.8 30.6-7.8 20.6-22.4 35.4-40.8 45.9-25.2 14.3-52.6 23.1-81.3 28.2-18.6 3.3-37.1 7-56 8-26.9 1.4-53.8 1.1-80.6-2.6-8.2-1.1-16.4-2.1-24.7-2.7-19.6-1.5-37.2-8-54.5-17.3-21.6-11.7-43.6-22.6-64.4-35.6-27.5-17.2-55.6-33.4-81.9-52.6-12.8-9.4-25.6-18.6-36.9-29.8-1.2-1.2-2.2-2.4-3.3-3.6.5-.3.7-.6 1-.9zm220.3-61c19.9-8.1 40.2-15.4 60.7-21.9 29.1-9.1 58.2-17.9 88.1-24.3 26-5.6 52.3-5.3 78.3-2.3 21.7 2.5 42.3 10.3 62.4 19.1 9.1 4 17.3 9.4 27.1 14.8-1.5-7.7-2.9-14.1-3.9-20.6-1.2-7.8-5.3-12.8-12.4-16.7-15.4-8.4-31-16.4-46.6-24.5-14.9-7.8-30.4-10.9-47-9.8-7 .5-14.1.9-20.9-.2-13.1-2.1-25.7.3-38.4 2.7-12.4 2.3-24.3 6.7-36.4 10.1-33.6 9.4-65.6 23.1-97.4 37-2 .9-4.9 1.3-5.5 3.9-2.8 11.3-10.1 20.8-12.7 32.3 2.2 1.7 3.4.9 4.6.4z"/></svg>