<svg xmlns="http://www.w3.org/2000/svg" id="beard" viewBox="0 0 3000 3000"><path id="cl1" d="M1594.5 1158.7c-11.3 9.5-22.6 18.7-31.1 30.6-13.3 18.6-21.7 39.1-21.9 62.3-.1 11.5 5.2 28.5 10.5 34.3 13.7 14.9 30.3 21 50.3 16.2 8.1-2 15.1-5.8 20.8-12.4 9.5-11 17.2-23.6 29.3-32.3 11.9-8.6 24.8-14 39.7-13.4 11.7.4 20 4.4 21.4 20.7.3 3.7 1.1 7.2 2.1 10.7 4.9 16.3 16.7 20.7 31.5 11.9 11.5-6.8 18.3-17.4 22-29.5 3.9-12.5 7-25.4 6.5-38.8-.8-21.2-6.8-40.2-22.8-55.2-.7-.7-1.2-1.6-2.2-3 13.9 2.2 23.1 11 32.4 19.6 22.1 20.3 30.5 46.3 31.2 75.4.2 7.3-.2 14.7.1 22 .5 11.7-3.6 22-8.8 32-2.9 5.5-4.7 11.7-7.9 16.9-11.2 18.2-25.9 33.1-43.2 45.9-16.2 12-34 20.6-52.2 28.8-10.9 4.9-23.1 5.9-34.7 8.4-14 3-28.3 2.9-42.5 4.3-23.6 2.4-46.2-2.3-69-6.3-3.2-.6-6.4-1.6-9.4-2.9-12-4.9-24-9.7-35.8-15-19.9-8.9-32.8-25.3-43.1-43.5-5.3-9.4-5.8-20.8-7.3-31.6-2.2-16 .4-31.7 4.8-47 6-20.9 16.7-39.5 31.6-55.5 16.4-17.5 34.8-32.4 57-42.2 12.8-5.7 26.2-10.4 40.7-11.4z"/></svg>