<svg xmlns="http://www.w3.org/2000/svg" id="beard" viewBox="0 0 3000 3000"><path id="cl1" fill="#777" d="M1833.1 1195.9c8.2-7.4 9.9-16.7 13.2-25.7 2.7 21.3 2.4 23-3.7 50.6-2.4 10.8-3.6 21.6-4.4 32.5-2 28.3-10.1 54.7-23.2 79.7-4.9 9.4-12.6 16.4-21.1 22.2-17.9 12.2-36.6 23.2-56.9 30.7-11.1 4.1-22.4 7.9-34.1 10.6-24.3 5.7-48.9 8.8-73.5 12.4-3.6.5-7.3 1-10.9 1-29.6-.2-59.4 1.8-88.9-.9-27.7-2.5-55.6-5.3-81.5-16.7-19.9-8.8-38.8-19.4-54.2-34.9-9.4-9.5-16.6-20.9-21.6-33.3-1.8-4.4-4.3-7.3-8.1-9.4-28.1-15.8-55.2-33.2-82-51.1-15.4-10.3-31.2-20.3-44.3-33.7-15.2-15.6-27.4-33.2-36.1-53.2-11.4-26.3-17.9-54-24.8-81.7-7.6-30.3-13-61-17.9-91.8-3.3-20.6-6-41.3-8.4-62-1.7-14.3-6.6-26.9-17.4-36.9-5.9-5.4-11.5-11.1-17.3-16.6-2.8-2.6-4.5-5.5-4.3-9.6.2-5.4 1.2-6.7 6.6-5.7 19 3.3 38.1 2.4 57.3 1.6 8.4-.4 9 0 7.3 8-1 4.5.4 8.5.7 12.8 1.6 21.9 5.2 43.5 10.7 64.7 3.7 14.5 6.9 29.1 10.9 43.5 10.5 37.7 29.1 71.2 51.6 102.8 11 15.4 23.2 30 37.5 42.6 15.4 13.7 32 26.1 49.9 36.2 12.1 6.9 23.7 14.6 36.3 20.6 4.9 2.3 7.5 2.3 11.8-1.8 14.7-14.1 32.7-23.8 50.4-33.7 28.8-16.1 59.8-27.2 91.1-37.1 14.7-4.7 30.3-7.7 46-2.6 1.9.6 3.8 1.2 5.5 2.3 7.4 4.6 7.4 13.7-.5 17.2-15.8 6.9-31.8 13.3-47.3 21-20.8 10.3-39.5 23.2-55.3 40.2-7 7.5-10.8 16.7-13.4 26.4-1.6 6 .6 11.7 3.3 17.2 7.6 15.8 21.4 25.2 35.9 33.3 13.4 7.4 27.3 13.9 43 14.8 1.6.1 3.3.7 4.8 1.2 14.5 4.8 29.5 2.6 44.3 2.4 8-.1 14.7-3.8 19.7-10.3 10.8-13.9 21.2-28 29.1-43.9 4.2-8.4 10.9-13.2 20.4-13.8 7.6-.5 15.2-1.8 22.7-.2 6.7 1.4 7.8 3.1 8.1 10.2.4 7.4-1.6 14.5-2.8 21.7-.8 5.1-.3 9.8.8 14.6 1.6 7.3 6.6 11.3 13.5 13 8.1 2 15.9.4 23.6-2.1 21.5-7 40.9-17.6 55.7-35 13.4-15.7 20.2-33.7 14.4-54.3-2.7-9.7-9.5-17.4-16.5-24.7-10-10.4-21.6-18.7-33.6-26.4-1.1-.7-2.4-1.2-3.5-1.9-4.4-2.6-8.6-5.5-7.8-11.5.5-3.6 8.5-8.2 13.7-8.1 2.3.1 4.7.3 6.9 1 21.9 6.4 41.4 16.3 53.5 37 4.6 7.8 9.8 15.9 15.1 24.6z"/></svg>