<svg xmlns="http://www.w3.org/2000/svg" id="eyebrow" viewBox="0 0 3000 3000"><path id="cl3" fill="#FFF" d="M1440.7 964.302c1.699-1 57.3 0 57.3 0l-11.3 17.3-18 85.7-2.301 4.698-9 1-38.399 9.302h-10.2s-8.7-23-9.7-25.302c-1-2.3 1.7-39.698 1.7-39.698l3.7-24.7 34.7-27.3 1.5-1zm335.6 121l19.5 5s15.9-59.7 16.5-63.5c.7-3.8-1.699-27.5-1.699-27.5s-3-10-5.301-13.3c-2.3-3.302-9-5-10.699-7.2s-15.899-4.5-15.899-4.5l-15.101 9 12.699 102z"/><path id="cl1" fill="#4E61C2" d="M1572 1009c7 9.302-1.5 72.802-1.5 72.802l-3.8-.5s-36-4.7-65-8.302c-29-3.6-33.7-3.698-33.7-3.698-4.3-4-9-38-.8-63.2 8.199-25.2 36.8-42.8 36.8-42.8 62.3 10 61 36.398 68 45.698zm187.5-24.5s-25 16.302-32.3 38.102c-7.2 21.8-14.2 41.1-4.9 67.8 21.9-8.5 48.3-4.3 48.3-4.3s13-16 12.302-22.3c4.3-17 5.5-42.602 0-54.5-5.402-12-13.902-24-23.402-24.802z"/><path fill="#9FA5C2" d="M1472.3 955.302c83.801 4.3 96.301 37.8 96.301 37.8s7.301 23.3-1.301 11.8c-8.6-11.5-46.3-14.3-69.8-16s-29.3-3.3-60.5 4.3c-31.2 7.602-37.8 21.801-38.2 22.801 0-.201-10.3-65.003 73.5-60.701zm287 28s-19.5 15.8-21.3 20.3 20.5-8.3 43.8-2.8c23.301 5.5 24.801 14 27 18 2.2 4 10.5 0 10.5 0s1.7-26.5-9.8-33.4c-11.5-6.899-30.9-9.1-30.9-9.1l-19.3 7z" opacity=".54"/><path fill="#070102" d="M1556.3 1021.5c3.5 4.5.7 26.25-2.55 35-3.96 10.096-10.95 19-10.95 19s-32 2-40.8-5-10.3-23.3-10.3-23.3-3-24.3 8.3-43.8 35.5-12.5 35.5-12.5c13 6.1 17.3 26.1 20.8 30.6zm187.7-20c-2.6.802-24.5 24.5-25.5 48.302-1 23.8 1.5 38 1.5 38l22-2 9.5-2.802s19.8-14.8 15.8-48.3-18.3-34.7-23.3-33.2z"/><path fill="#FCFCFC" d="M1567.2 995.302s1.199 10.8 1.199 12.3-1.199 5.3-4.5 9-12.699 4.8-15.199 5.2c-2.5.3-9.301-6.302-12.301-11.5-3-5.2-1-17.5 0-22.5s7.699-10 7.699-10c14.702-.5 23.102 17.5 23.102 17.5zm199.6.598s-8.3 1.7-11 10.3c-2.699 8.7-3.398 14.4-3.1 18.7s2.3 9.3 7 10.4c4.7 1.199 9.4-1.2 11.5-3.7 2-2.4 6.1-6.9 7.5-18.6.4-6.9-1.8-12.302-2.7-13-.7-.6-3-4.698-9.2-4.1z"/><path fill="none" stroke="#060001" stroke-miterlimit="10" stroke-width="3" d="M1567.2 995.302s1.199 10.8 1.199 12.3-1.199 5.3-4.5 9-12.699 4.8-15.199 5.2c-2.5.3-9.301-6.302-12.301-11.5-3-5.2-1-17.5 0-22.5s7.699-10 7.699-10c14.702-.5 23.102 17.5 23.102 17.5zm199.6.598s-8.3 1.7-11 10.3c-2.699 8.7-3.398 14.4-3.1 18.7s2.3 9.3 7 10.4c4.7 1.199 9.4-1.2 11.5-3.7 2-2.4 6.1-6.9 7.5-18.6.4-6.9-1.8-12.302-2.7-13-.7-.6-3-4.698-9.2-4.1z"/><path fill="none" stroke="#060001" stroke-miterlimit="10" stroke-width="6" d="M1468.7 1071.802c-4.801-9.5-8.7-45-1.5-65.7 9.699-28.2 38.199-42.8 38.199-42.8m267.601 120.5s-1.5 6.3 5.8-11.5c7.301-17.802 7.801-33.302 7.801-41 0-7.7-1.5-22.3-9-34s-18-12.8-18-12.8"/><path fill="#040000" stroke="#000" stroke-linecap="round" stroke-linejoin="round" stroke-miterlimit="10" stroke-width="6" d="M1366.5 950.302s3 26.198 31.8 23.8c24.2-11.8 30.301-20.2 47.801-23.8 17.5-3.7 50.5-1.7 50.5-1.7s46.199 6.8 64 35.3c18 21.3 18.5 65.3 9.801 97.8-26.5-4.5-112.801-23.199-171.801 8.5l10.199-5.3s-8.3-7.3-14.1-49.8c-4.8-37.8-2.5-43-2.5-43s-33.4-14.3-25.7-41.8zm67 19.698s-21.5 12-27.8 26c-6.301 14-7.301 51.302-4.5 59.5 2.8 8.2 7.6 29.602 7.6 29.602s45.7-26.2 161.7-3.3c0 0 6.8-44.5 1.3-67.102-5.6-22.6-23-47.5-88-52-24.3-3.7-50.3 7.3-50.3 7.3zm288.8 120.302s-19.699-53.7 34-107.3c33.301-26.7 50.301-9 50.301-9l12.699 12.3s8 5.3 21 2c10.4-2.7 16.5-7.3 16.5-7.3s-9.3 16.398-31.898 22.3c-4 1-5 7.3-5 7.3s-1 23-9.302 41c-7.698 18.8-14.698 39.4-15.698 40.3-.802-.3-1.7-3.698-16.302-6.3-14.6-2.602-36.6-1.602-56.3 4.7zM1795 1092s15.5-42.3 13.7-69.3c-1.801-27-1.801-33.7-20.7-42-18.8-8.3-33.7 8-35.5 9.5s-20.3 20.7-26.1 36.8c0 0-15.602 27.802-4.102 63.302 24.502-7 57.702-6.802 72.702 1.698z"/></svg>