<svg xmlns="http://www.w3.org/2000/svg" id="eyes" viewBox="0 0 3000 3000"><path fill="#FFF" d="M1407.9 1018.5c-3.3 5.5-6.1 11.3-8.5 17.5 9.8-10.3 23.4-12.1 40.8-5.2 12.4 8.9 15.4 22.4 9.2 40.4 24.5-1.5 44.3 0 59.2 4.4 3.2 1.9 10.6 2.7 22.2 2.6 7.8-.8 13.9-6.1 18.4-16 6.9-15.5 6.4-31.6-1.5-48.3-46.2-43.1-92.7-41.6-139.8 4.6m328.2 30.4c1.6 6.9 1.2 15.5-1.3 25.9 19.2-.5 32.3.8 39.3 3.9 7 3.2 13.8 4.3 20.3 3.3 5.7 1 11-7.5 15.9-25.5 2.5-9.4 2.3-19.5-.7-30.6-29.2-45.7-63.4-47.8-102.7-6.5-2.8 5.8-5.5 12-7.9 18.8-.1.3-.2.5-.3.8.2-.2.4-.4.6-.7 8.2-8.8 17.2-10.1 27.2-3.8 5 3.5 8.1 8.3 9.6 14.4z"/><path fill="#C3C4E3" d="M1530.6 989.5c-19.9-20.4-43.2-25.5-69.8-15.1-23.3 9.6-40.9 24.3-52.9 44.1 47-46.2 93.6-47.7 139.7-4.7-2.1-4.4-4.7-8.9-7.8-13.4-3-4-6-7.6-9.2-10.9m279.1 36.4c-2.7-10.2-7.8-21.1-15.3-32.7-13.3-17-27.9-23-43.8-18-17.5 6-32 20.8-43.6 44.3 39.2-41.4 73.5-39.2 102.7 6.4z"/><path d="M1512.9 961.7c-15-4-32.8-2.5-53.3 4.3-20.5 6.9-39.1 21.5-55.8 43.8-3.4 5.1-6.3 10.8-8.6 17-5.8 24.8.8 39.6 19.8 44.6 16.4 3.6 32.6 5.2 48.6 4.8 15.4-.1 31.7 1.9 49 6.2 22.2 3.4 36.2-2.2 42-16.6 5.9-14.4 5.8-31.4-.3-51.2-2.5-8.1-5.5-15.1-9-20.9-1.8-2.9-3.7-5.5-5.7-7.8-.9-.7-.9-1.3.1-1.7 22.1.5 34.3-8.5 36.8-27.1-7.6 9.8-17.9 14-30.7 12.6-12.8-1.3-23.8-4-32.9-8m-52.1 12.7c26.6-10.3 49.9-5.3 69.8 15.1 3.2 3.2 6.2 6.9 9.2 10.9 3.1 4.5 5.8 9 7.8 13.4 8 16.8 8.5 32.9 1.5 48.3-4.5 9.9-10.6 15.2-18.4 16-11.6.1-19-.7-22.2-2.6-14.9-4.4-34.7-5.9-59.2-4.4 6.2-18 3.2-31.5-9.2-40.4-17.4-6.9-31-5.1-40.8 5.2 2.4-6.2 5.3-12 8.5-17.5 12.1-19.7 29.7-34.4 53-44m338.8 14c5.5-.1 9.4-.8 11.8-2 9.7-3.4 14.8-11.4 15.4-24-1.4 3.9-4.9 7.4-10.4 10.6-5 4.3-16.9 1.8-35.8-7.7-9.8-2-18.8-2-26.8.1-28.7 10.2-48 32.5-58 67-.3 1.6-.5 3.2-.8 4.7-3 22.5 3.9 36 20.5 40.3 8.9 1.4 19.7 2.5 32.4 3.3 10.3-.6 18.6.5 24.7 3.4 6.1 2.8 14.7 3.5 25.9 1.9 11.2-4.1 16.8-19.8 16.8-47.2-1.6-21.8-6.8-38.6-15.7-50.4m-64.8 86.4c2.5-10.4 2.9-19 1.3-25.9-1.5-6.2-4.6-11-9.5-14.3-10-6.3-19-5.1-27.2 3.8-.2.2-.4.4-.6.7.1-.2.2-.5.3-.8 2.5-6.8 5.1-13 7.9-18.8 11.6-23.5 26.1-38.2 43.6-44.3 15.9-5 30.5 1 43.8 18 7.4 11.6 12.5 22.5 15.3 32.7 3 11 3.2 21.2.7 30.6-4.9 18-10.2 26.5-15.9 25.5-6.5 1-13.3-.1-20.3-3.3-7.1-3.1-20.2-4.4-39.4-3.9z"/></svg>