<svg xmlns="http://www.w3.org/2000/svg" id="eyes" viewBox="0 0 3000 3000"><path fill="#FFF" d="M1559 1079.2c5.7 1.3 11.4 1.101 17.2-.6 10.8-6.9 16.1-18.101 16.1-33.8-4.4-1.5-8.6-3-12.8-4.5-2.5 14.9-9.4 27.8-20.5 38.9m16.1-40.399c-5-1.7-10-3.301-14.8-4.9-.6 2.8-1.2 5.5-1.9 7.9 2.5 1 5.4 1.3 8.7 1 2.9-.4 5.4-1.2 7.601-2.4.099-.501.299-1.1.399-1.6m-164.4-30.901c-.9 1-1.801 2-2.7 3.1-21.4 24.601-20.1 41.4 4 50.4 18.7-.5 40.6 1.4 65.6 5.6-6.699-17.8-6.699-36 .2-54.699-26.3-4.801-48.6-6.301-67-4.5 0 0 0 .099-.1.099m396 29.901c-5.101-1.4-10.101-2.5-15.101-3.301.9 27.4-1 45.4-5.8 54.2 2 .101 4 .3 6 .4 4.5 1.5 8.4.5 11.8-3.2 6.101-9.599 7.101-25.599 3.101-48.099m-19.9-4c-1.5-.2-3-.301-4.5-.4.2 2.6.301 5.2.301 7.9v1.3c2.1-.8 3.5-2.1 4.199-3.8-.1-1.601 0-3.301 0-5m-50 7.599c-3 9.7-4.5 20.6-4.399 32.8.1 10.7 4.399 16.101 13 16.2 2.699-.5 5.5-1 8.5-1.3-6.2-6.8-9.101-23.8-8.9-50.9-2.801 1-5.501 2-8.201 3.2z"/><path fill="#BFC7E0" d="M1477.8 1012.301c1.801-4.9 4.101-9.801 6.801-14.7a241.433 241.433 0 0 0-33.801-8c-14.699-.601-28 5.5-40 18.2 18.4-1.801 40.7-.301 67 4.5m83.5 15.699c-.3 2.101-.699 4-1.1 5.9 4.9 1.6 9.8 3.2 14.8 4.9.9-3.7 1.4-7.301 1.5-11h-.1c-2.601-1.301-5.8-1.7-9.4-1.2-2 .201-3.9.701-5.7 1.4m19.1-7.8c.3 4.3.3 8.4 0 12.4v.5c0 .5-.101.899-.2 1.399-.2 2-.4 3.9-.8 5.801 4.199 1.399 8.399 2.899 12.8 4.5 0-7.301-1.2-15.5-3.5-24.601h-8.3m221.6-3.599c-3.1 1.399-6.8 2.5-11.1 3.3.3 5.1.5 10 .699 14.6 5 .801 10 1.9 15.101 3.301-1.1-6.601-2.7-13.601-4.7-21.201m-19.7 16.8c1.5.1 3 .2 4.5.4v-8c-1.3-1.7-3-1.601-5.199.399.299 2.301.499 4.701.699 7.201m-37.3 4.8c0-4.8.2-9.8.4-15.2a75.709 75.709 0 0 0-8.601 18.4c2.701-1.2 5.401-2.2 8.201-3.2z"/><path id="cl1" fill="#554A39" d="M1574.7 1040.4c-2.2 1.2-4.801 2-7.601 2.4-3.3.399-6.199.1-8.699-1-5.101 17.899-13.801 26.5-25.9 25.8-11.3-.4-19-3.4-23.3-8.9-7.2-9.399-9-23-5.4-40.899-6.8-1.601-13.4-3.101-19.8-4.3-5.4 17.8-4.4 36.3 3 55.499 20.2 2.101 41.7 5.4 64.399 9.801 12.101-13.101 19.901-25.901 23.301-38.401m181.9-5.3c-2.199.399-4.3 1-6.399 1.5.8 26.7 3.699 44.1 8.899 52.1 6.101-.399 13-.5 20.5-.3 4.4-8.9 6.801-25.4 7.101-49.5-.7 1.7-2.101 3-4.2 3.8-.1 10.4-1.4 19.3-3.8 26.7-2.5 7.8-5.601 11.7-9.2 11.7s-6.7-3.9-9.3-11.7c-2.5-7.7-3.801-17.1-3.801-28 0-2.2.1-4.3.2-6.3z"/><path id="sd1" fill="#413A31" d="M1503.7 1017.801c.8-3.7 1.699-7.5 2.899-11.601l-17.199-6.6c-2.301 4.6-4.101 9.2-5.601 13.9 6.401 1.2 13.001 2.7 19.901 4.301m72.8 10c.1-2.5 0-5.101-.3-7.601h-13.801c-.3 2.7-.699 5.301-1.1 7.801 1.7-.7 3.6-1.2 5.7-1.4 3.801-.501 6.901-.101 9.501 1.2m204.2-6.801c.399 1.7.699 3.4.899 5.301 2.2-2 3.9-2.2 5.2-.4 0-1.7-.1-3.5-.1-5.3-1.899.099-3.899.299-5.999.399m-21.4-.3c-3.399-.399-6.5-.8-9.3-1.1 0 6 0 11.7.2 17 2.1-.6 4.3-1.1 6.399-1.5.401-5.299 1.301-10.1 2.701-14.4z"/><path fill="#D9ACF0" d="M1570.6 949.4c-3.3-12.1-12.399-16.5-27.199-13.2-36.9 6.7-72.801 21.9-107.601 45.7-1.199.8-2.3 1.5-3.199 2l-2.4 2.1c.1-.1.3-.1.4-.199.699-.301 1.5-.7 2.199-1 11.5-5.601 21-7.801 28.4-6.601 42.2 12 83.4 20.101 123.8 24.4-2.5-17.5-7.3-35.2-14.4-53.2m225.7 17.401c-1.399-5.9-3.699-6.601-6.899-2-10.5 12.199-21.301 26.199-32.2 42 1.9.199 3.7.3 5.6.5 4.801.3 9.301.399 13.5.199 9.7-.3 17.801-1.899 24.301-4.699-1.502-18-2.902-30-4.302-36z"/><path d="M1577.2 954c-4.2-13.8-10.7-21.3-19.601-22.399-7-.9-16.399 0-28.399 2.8-35.4 5.8-68.801 21.7-100.301 47.5-1.5 3.6-.3 4.3 3.7 2 .9-.5 2-1.2 3.2-2 34.8-23.8 70.7-39 107.6-45.7 14.801-3.3 23.9 1.101 27.2 13.2 7.101 18 11.9 35.7 14.4 53.2-40.4-4.3-81.601-12.4-123.8-24.4-7.4-1.2-16.9 1-28.4 6.601-.7.3-1.5.699-2.2 1-.1.1-.3.1-.399.199-13.9 6.9-25.5 17.601-35 32.2-15 23.101-8.601 39.101 19.199 48 52.5 3.8 99.5 10.4 141.2 19.8h17.2c4.899.301 11.3-5 19.199-16 6.9-16.899 6.9-33.8.2-50.8h2.601c21.399-7 37.3-18.3 47.6-33.8-20.2 9.8-37.8 15.5-52.8 17C1585.9 982.6 1581.7 966.4 1577.2 954m-169.2 57c.9-1.1 1.8-2.1 2.7-3.1.1 0 .1-.1.199-.2 11.9-12.7 25.301-18.7 40-18.2 11.7 1.9 23 4.601 33.801 8-2.7 4.9-5 9.801-6.801 14.7-6.899 18.7-6.899 36.9-.199 54.7-25-4.2-46.9-6.1-65.601-5.6-24.199-8.9-25.499-25.7-4.099-50.3m172.4 21.6c.3-4 .3-8.101 0-12.4h8.399c2.301 9.101 3.5 17.3 3.5 24.601 0 15.699-5.3 26.899-16.1 33.8-5.8 1.7-11.5 1.899-17.2.6 11.101-11.1 18-24 20.5-38.8.3-1.9.601-3.9.8-5.8.001-.701.101-1.401.101-2.001m-20.1 1.3c.4-1.9.801-3.8 1.101-5.9.399-2.5.699-5.1 1.1-7.8h13.8c.301 2.5.4 5.101.4 7.601-.1 3.699-.6 7.3-1.5 11-.1.5-.3 1.1-.4 1.6-3.399 12.5-11.199 25.3-23.5 38.4-22.699-4.4-44.199-7.7-64.399-9.801-7.301-19.199-8.301-37.699-3-55.5 1.399-4.699 3.3-9.3 5.6-13.899l17.2 6.6c-1.2 4.101-2.2 7.9-2.9 11.601-3.6 17.899-1.8 31.5 5.4 40.899 4.3 5.601 12 8.5 23.3 8.9 12.2.7 20.8-7.9 25.9-25.8.698-2.401 1.298-5.101 1.898-7.901m238.7-73.8c-1.9-8-7.1-6.7-15.6 3.899l-32.601 44.4c-14 14.6-21.899 33.5-23.6 56.6-.7 18.2 3.7 27.9 13.2 29h59c8.1-2.199 12.699-9 13.8-20.399 1-22.601-1.6-41.8-7.6-57.8 13.5-6.301 23.8-17.801 31-34.601-15.2 12.101-25.5 18.5-31 19.2C1803.1 981.5 1800.9 968.1 1799 960.1m-9.6 4.701c3.199-4.601 5.5-3.9 6.899 2 1.4 6 2.801 17.899 4.301 36-6.601 2.8-14.7 4.3-24.301 4.699-4.199.2-8.699.101-13.5-.199-1.8-.101-3.699-.301-5.6-.5C1768.1 991 1778.9 977 1789.4 964.801M1750 1019.6c2.9.3 6 .7 9.3 1.1-1.399 4.3-2.3 9.101-2.8 14.4-.1 2-.2 4.1-.2 6.3 0 10.9 1.301 20.3 3.801 28 2.6 7.8 5.699 11.7 9.3 11.7 3.6 0 6.7-3.9 9.2-11.7 2.5-7.4 3.699-16.3 3.8-26.7v-1.3c0-2.7-.101-5.4-.3-7.9-.2-2.5-.4-4.899-.7-7.199-.2-1.801-.5-3.601-.9-5.3 2.101-.101 4.101-.301 6-.5 0 1.8.101 3.6.101 5.3v8c0 1.699 0 3.399-.101 5-.399 24.1-2.7 40.6-7.1 49.5-7.5-.2-14.4-.101-20.5.3-5.2-8-8.101-25.3-8.9-52.1L1750 1019.6m-4.6 3.4c-.2 5.4-.4 10.4-.4 15.2-.2 27.101 2.8 44.101 8.9 50.9-3 .3-5.9.8-8.5 1.3-8.601-.1-12.9-5.5-13-16.2-.101-12.1 1.399-23 4.399-32.8a75.729 75.729 0 0 1 8.601-18.4m45.5-3.199c4.3-.7 8-1.801 11.1-3.301 2 7.601 3.6 14.601 4.7 21.2 4 22.601 3 38.601-3.101 48.101-3.399 3.699-7.3 4.699-11.8 3.199-2-.1-4-.3-6-.399 4.8-8.7 6.7-26.8 5.8-54.2-.199-4.6-.399-9.401-.699-14.6z"/></svg>