<svg xmlns="http://www.w3.org/2000/svg" id="eyes" viewBox="0 0 3000 3000"><path fill="#FFF" d="M1740.2 1003.2c-5.2 9.3-9.5 19.9-13 31.8 10.6-19.2 24.3-30 41-32.6 15.4-.6 24.5 10.1 27.2 32 3.8 27.5-3.4 49.4-21.6 65.6 19.7-8.4 31-29.1 34-62 2.6-14.3 3.8-30.4 3.4-48.2-17.9-21-41.6-16.6-71 13.4m34.1 26.4c2.1 1.5 3.8 3.7 5.1 6.6 1.5 3.4 2.3 7.3 2.6 11.7 4.3-2.9 7.3-5.8 9.2-8.7-.2-7.2-1.5-13.5-3.8-18.8-.8-1.8-1.6-3.4-2.6-4.9-3.1 1.6-6.6 6.3-10.5 14.1z"/><path fill="#C7C5E5" d="M1811.2 989.8c-.1-5.7-.4-11.6-.8-17.6-3.2-11.3-9.9-15.5-20.2-12.6-21.3 7.3-38 21.8-50 43.6 29.4-30 53.1-34.4 71-13.4z"/><path id="cl1" fill="#554A39" d="M1766.4 1027.3c3.1 0 5.7.8 7.9 2.3 3.9-7.7 7.4-12.4 10.5-14.1-3.7-5.4-8.8-8.2-15.4-8.4-8.3-.2-17 4.4-26.1 13.8-9 9.4-15.1 20.6-18 33.6-3 13-2.4 24 1.8 33.2 4.2 9.2 11.6 13.9 22.2 14.2 10.6.3 19.7-4.2 27.3-13.5 7.5-9.3 12.1-20.7 13.8-34.3.7-5.3.9-10.2.8-14.8-1.8 2.9-4.9 5.8-9.2 8.7.2 3.4.1 7.2-.4 11.3-1.2 9.4-4.4 17.3-9.6 23.7-5.2 6.4-10.8 9.6-16.8 9.5-6.1 0-10.7-3.2-13.9-9.6-3.2-6.3-4-14-2.4-22.9 1.6-9 5-16.7 10.4-23.1 5.4-6.5 11.1-9.6 17.1-9.6z"/><path d="M1425.2 1037.8c-7.3 1.7-16.8 1.9-28.5.6 5 6.5 17.7 9.5 38.1 8.8 33.6-5.4 58.3-4.6 74 2.2 22.8 7.8 47.2 18.8 73.1 32.9-4-8.7-9-15.5-15-20.6 7.1 2.4 12.4 3.3 15.8 2.9-27.2-23-60.6-36-100.3-38.8l-52 1.8c-20.1-1.4-36.2-10.6-48.4-27.6 8.9 20.7 23.3 33.3 43.2 37.8m80.8-84.6c.5-1.4-.2-2.4-2.2-3.1-8.3-1.7-16.6-2-24.8-.9-13.5 2.1-26 7-37.4 14.8-17.5 13.2-27.1 29.5-28.6 48.8 2.1 2.5 3.9 2.4 5.4-.5 1.9-18.1 10.9-32.6 27.2-43.5 17-11.5 37.2-16.7 60.4-15.6m321.2-23.4c-4.3 11.9-11.1 19-20.4 21.4-20.8-1.7-40.5 8.1-59.2 29.6-26.1 30.7-35.6 64.9-28.5 102.5 5.9 16.4 21.3 24.1 46.1 23.1 30.4-3.3 47.1-35.7 50.1-97.3.5-10.9.9-23.6 1.2-38.1 16.8.3 28.6-4.3 35.5-13.9-16.2 1.3-26.4.6-30.6-2 5.8-9.5 7.7-18 5.8-25.3m-16.8 42.4c.4 6.1.7 11.9.8 17.6.4 17.8-.8 33.8-3.4 48.2-3 32.9-14.3 53.6-34 62 18.2-16.2 25.4-38.1 21.6-65.6-2.7-21.9-11.8-32.6-27.2-32-16.7 2.6-30.4 13.4-41 32.6 3.5-11.9 7.8-22.6 13-31.8 12.1-21.8 28.7-36.3 50-43.6 10.3-2.9 17 1.3 20.2 12.6m-67.1 48.6c9.1-9.4 17.7-14 26.1-13.8 6.6.2 11.7 3 15.4 8.4 1 1.5 1.8 3.1 2.6 4.9 2.3 5.3 3.5 11.6 3.8 18.8.2 4.6-.1 9.5-.8 14.8-1.7 13.6-6.3 25-13.8 34.3-7.6 9.3-16.7 13.8-27.3 13.5-10.6-.3-18-5-22.2-14.2-4.2-9.2-4.8-20.2-1.8-33.2 3-12.9 9-24 18-33.5m36.1 15.4c-1.3-2.9-3-5.1-5.1-6.6-2.2-1.5-4.8-2.3-7.9-2.3-6.1 0-11.8 3.2-17.2 9.5-5.4 6.4-8.8 14.1-10.4 23.1-1.6 9-.8 16.6 2.4 22.9 3.2 6.4 7.8 9.6 13.9 9.6 6.1 0 11.7-3.2 16.8-9.5 5.2-6.4 8.4-14.3 9.6-23.7.5-4.1.7-7.9.4-11.3-.2-4.5-1-8.4-2.5-11.7z"/></svg>