<svg xmlns="http://www.w3.org/2000/svg" id="eyes" viewBox="0 0 3000 3000"><path d="M1386.2 1025.1c0 2.6 3.898 3.6 11.5 3.2 25.8 11.198 53.898 19.898 84.398 25.898 41 5 69.302 1.801 84.9-9.6-6.5 9.2-33.3 22.7-80.4 40.6 47.302-3.8 86.802-29.3 118.4-76.398 18.3-6.9 32.6-16.9 42.8-30-18.6 10.398-34 16.5-46.398 18.398-30.7-5.898-64.602-7.5-101.602-4.8C1455 998.5 1417.2 1009.4 1386.2 1025.1m327.8-5.1v4.102c1.5 13.8 11.4 27.7 29.5 41.8 12 10.9 29.5 15.7 52.4 14.601 10.3-1.801 16.8-5.899 19.6-12.301-6.4 2.801-15.7 4.2-27.9 4-22.8-1.898-39.198-8.5-49.198-20 10.1 6.801 25 7.801 44.6 3 24-6.199 38.1-18.8 42.2-37.6 19.198-6.2 30.6-16.102 34-29.602-10.7 14.102-26.7 20.7-48 19.602-11.102-5.2-26.102-8.8-45-10.8-13.9-1.2-31.9 4.5-54 17-3.102 2.398-2.502 4.5 1.798 6.198z"/><path id="sd1" fill="#3A3531" d="M1586.8 1022.302c3.9-4.5 7.4-9.5 10.801-15.102-31.301-1-60.601-1-87.801 0-.199 3.7.102 7.2.801 10.5 3.101 14.102 14.601 24 34.601 29.9 16.298-3.5 30.198-12 41.598-25.298m183.4-7.302h-1c-1.2 0-2.2-.1-3.301-.1.399 1 .801 2 1.301 3 .898 2 1.8 3.7 2.8 5.4a33.3 33.3 0 0 0 2.4 3.398c6.398 8 14.8 13.4 25.198 16.2 6.602-3.2 12.4-8 17.602-14.7 1.8-2.3 3.6-4.898 5.3-7.698-14.5-2-26.6-3.5-36.3-4.5-5.301-.5-9.801-.9-13.7-1.102h-.3v.102z"/><path fill="#FFF" d="M1535.2 1050.802c-16.7-5.602-26.602-16.7-29.9-33.102-37.6 0-68.3 3.802-92.2 11.4 46.5 14.702 87.2 22 122.1 21.702m-24.1-33.102c.5 1 1.4 1.9 2.5 2.602 2.2 1.6 4.802 2.398 7.802 2.398 3.1 0 5.698-.8 7.8-2.398.899-.7 1.6-1.4 2.2-2.102-7.002-.3-13.802-.398-20.302-.5m252.7 5.2c-14.898-.4-29.6.1-43.898 1.7 4.6 10.7 14.198 19.6 28.898 26.5 15.7 1.5 29.301.1 41-4.2-12-3.2-20.6-11.2-26-24m6.1.3c.8 1.3 1.6 2.4 2.398 3.4 5.5 1.6 9.602 1.2 12.302-1.101.398-.399.698-.801.898-1.301-5.098-.396-10.398-.798-15.598-.998z"/><path fill="#ADB5DB" d="M1529.3 1009.2c-2.1-1.5-4.8-2.3-7.8-2.3-3.1 0-5.7.8-7.8 2.3-2.2 1.602-3.2 3.4-3.301 5.602 0 1 .301 2 .801 2.898 6.6.102 13.398.2 20.3.5.7-1 1.1-2.2 1.1-3.398-.1-2.202-1.2-4-3.3-5.602m-123.9 17.4c2.6.899 5.198 1.7 7.698 2.5 23.9-7.602 54.602-11.4 92.2-11.4-.6-3-1-6.2-1.1-9.5-28.498 1.5-61.398 7.602-98.798 18.4m358.4-3.7c-1-2.5-2-5.2-2.8-8.1-25.5-1.2-39.9-.3-43.4 2.8.5 2.4 1.302 4.7 2.2 7 14.5-1.6 29.1-2.1 44-1.7m6.4-7.9h-1c-1.301.4-2 1.302-2 2.9.898 2 1.8 3.7 2.8 5.4 5.2.3 10.4.6 15.7 1.1 1.5-2.4 1-5.2-1.5-8.2-5.301-.5-9.801-.898-13.7-1.1h-.3v-.1z"/><path id="cl1" fill="#554A39" d="M1545.2 1047.6c16.3-3.5 30.199-12 41.699-25.3-19.699-2-38.199-3.4-55.399-4.102-.5.8-1.2 1.5-2.2 2.102-2.1 1.6-4.8 2.398-7.8 2.398-3.101 0-5.7-.8-7.8-2.398-1.102-.802-2-1.7-2.5-2.602h-.5c3 14.104 14.5 24.002 34.5 29.902m269.9-19.4c-9.898-1.7-19.698-3-29.5-3.898-.198.398-.5.8-.898 1.3-2.7 2.3-6.802 2.7-12.302 1.1 6.4 8 14.802 13.4 25.2 16.2 6.5-3.302 12.3-8.1 17.5-14.702z"/></svg>