<svg xmlns="http://www.w3.org/2000/svg" id="eyes" viewBox="0 0 3000 3000"><path d="M1379.2 1016.801c10.899 1.8 25.1 3.199 42.399 4.199 29.2 27.5 51.101 44.2 65.601 50.2 11.3 2 28.6.7 51.899-4 23.301-4.7 45.2-12.7 65.5-24.2l-12.6 22.2c12.3-7.3 19.4-14.7 21.4-22.2v-7.899l4.6-2.101c14.5-16.399 24.5-32.8 30-49.199-17.6 18.6-29.8 32.6-36.6 42-2.5 3.199-5.9 4.5-10.301 4-69.699-7-144.1-13.4-223.1-19.2-4.998 1.299-4.598 3.299 1.202 6.2m333.4 36c2 1.699 4.101 3.3 6.2 4.899 9 6.9 18.7 12.7 28.8 17.5 6.301 2.601 12.4 2.601 18.4-.199 27.3-20.801 56.4-46.5 87.3-77 1.7-2.7-.6-3.4-7-2.2-55.3 19.3-95.699 35.1-121.3 47.399 8.9-19.699 14.1-33.6 15.6-41.6-13 15.5-22.3 32.6-28 51.201z"/><path fill="#FFF" d="M1592.6 1042.301l-38.199-4.7c-5 7.7-11.801 11.3-20.5 10.9-8.301-.7-15-5.301-20.2-13.801-26.7-2-50-3-69.6-3.1l43.3 34.2c5.899 2.3 18.399 1.399 37.5-2.601 19.099-3.898 41.699-10.898 67.699-20.898m136.5 14.299c1.801 1.3 3.5 2.5 5.101 3.6 7.8 5.3 14.199 8.9 19.1 10.9 3.5 1.3 6.9.6 10.1-2.2 1.4-.9 2.9-2 4.5-3.3 9.7-7.5 25-20.7 45.7-39.7l-32.5 11.4c-.899 4.399-4 7.6-9.5 9.399-6.8 1.9-11.899 1.301-15.2-1.899l-27.301 11.8z"/><path fill="#B4C2E0" d="M1600.4 1038.7c.699-.399 1.399-.7 2.199-1.1L1557 1033c-.8 1.7-1.7 3.2-2.6 4.601l38.199 4.7a295.232 295.232 0 0 0 7.801-3.601M1432 1022l12.1 9.7c19.7 0 42.9 1 69.601 3.101-1.101-1.801-2.101-3.801-3.101-5.9L1432 1022m291.8 30.801c1.801 1.3 3.601 2.6 5.301 3.8l27.399-11.7c-1.2-1.199-2.1-2.699-2.8-4.5l-29.9 12.4m57-22.801c.601 2.801.7 5.2.301 7.4l32.5-11.4c5.5-5 11.3-10.399 17.6-16.199L1780.8 1030z"/></svg>