<svg xmlns="http://www.w3.org/2000/svg" id="eyes" viewBox="0 0 3000 3000"><path fill="#FFF" d="M1395.75 1033.25s58.51 31.306 165.255 18.528L1602 1020.25s-40.75-5-52-5.25-81.5.75-101.25 3.75-53 14.5-53 14.5zm304.355-6.583s17.063 28.503 80.396 34.334l24-10.335 9.333-14.167-35.166-9.833-45.334-4.667-23.666 1.5-9.563 3.168z"/><path d="M1394.9 1031c-1.899 2.102-1.601 3.302 1 3.602 20.199-6.8 37.199-11.102 50.899-13 3.301 16.3 12.801 26.8 28.399 31.398 9.9.9 16.9-.5 21-4.398 8.301-8.3 12.301-18.7 12-31.2 33.5-.6 63.2.6 89.2 3.6-10.7 11.001-23.301 21.302-37.801 31.001 15.2-2.199 31.7-11.801 49.4-28.801 2.8-4.1 1.199-7.1-4.601-9.199-35.899-4.899-76.801-5.699-122.801-2.399-37.995 2.996-66.896 9.396-86.695 19.396m306.799-3.6c6-1 13.601-1.6 23-1.9.899 12.2 5.699 19.7 14.301 22.302 7.1 1.5 12 .8 14.699-1.9 5.199-4.899 7.301-11.1 6.301-18.399 23.3 3.5 40.1 7 50.399 10.699-6.101 7.801-16.399 15.4-30.899 22.801 19-1.101 31.5-7.899 37.699-20.399.699-1.601.699-4.101 0-7.601-1.301-3-12-6.399-32.199-10.199-40.4-5.102-68.4-5.2-83.9-.102-2.7 2.1-2.5 3.698.599 4.698z"/></svg>