<svg xmlns="http://www.w3.org/2000/svg" id="eyes" viewBox="0 0 3000 3000"><path d="M1629.6 1049.2c2.302.8 3.699.5 4.199-.897.5-1.4-3.799-4.803-12.799-10.103-3.5-1.7-2-.825-5.201-2.6-22.299-12.3-52.699-21-91.1-26.103-1.801-.197-3.699-.5-5.602-.697-.898-.103-1.801-.103-2.6-.2-18.9-1.5-38.201-2.2-57.801-2.103-3.602 0-7.302.103-11 .103-9.602.2-19.302.5-29 1-38.699 5.3-59.9 15.1-63.4 29.6 23-14 51.801-22 86.5-24 3.2-.2 6.4-.3 9.7-.397h4.2c-.9 5.3-1.2 10.3-.802 15.197 1.399 21.303 14.899 38.2 40.5 50.5 6.602 2.4 13.399 4 20.5 4.7 2.399.2 4.7.3 7.102.3 13.199.2 27.398-2.397 42.5-7.8 18.601-9.2 29.699-22.6 33.199-40.397 5 1.697 9 3.397 12.199 4.897 10.206 5.102 16.405 8.102 18.706 9m84-9.5c-1.5 2.103-1 3.2 1.602 3.4l9.898-4.4c-3.801 19.3.699 33.9 13.602 43.8 10.1 7 22.898 5.9 38.301-3.197 17.699-12.9 28-30.4 30.899-52.4 7.101 1 12.601 2.8 16.601 5.3l2.199-5.8c-1.199-1.2-2.699-2.2-4.5-3.1-5-2-11.5-3.3-19.4-3.9-27.398-1.6-52.6 2.8-75.8 13.102-4.377 2.745-3.465 2.665-13.402 7.195z"/><path fill="#FFF" d="M1527.6 1078.2c3.4 0 7-.3 10.602-.8 18.898-2.5 34.101-10.8 45.801-24.9-15.5-7.3-30.9-13.1-46.301-17.3.601 3.3.898 6.8.898 10.3 0 12.4-3.7 23.302-11 32.7M1468 1027c-1.7 2.4-2.601 5.2-2.601 8.303 0 4 1.397 7.5 4.3 10.3 2.801 2.8 6.301 4.3 10.301 4.3s7.5-1.397 10.3-4.3c2.802-2.8 4.2-6.3 4.302-10.3 0-3-.802-5.603-2.302-8-8.091-.501-16.2-.601-24.3-.303m306.3 15.1c2.899 11.3 1.7 22.399-3.5 33.399 9.399-4.802 18.2-15.802 26.5-32.899-8.101-.5-15.7-.6-23-.5m-43.3 12.202c1.6 2.1 3.6 3.1 5.8 3.1 2.301 0 4.2-1.1 5.801-3.3 1.601-2.103 2.301-4.7 2.301-7.8 0-.603 0-1.2-.102-1.803-5.698.9-11 2.103-16 3.5 0 2.303.7 4.303 2.2 6.303z"/><path fill="#B6BDE3" d="M1469.699 1025.1c-.602.6-1.199 1.2-1.699 1.899 8-.302 16.1-.199 24.1.301-.5-.801-1.198-1.5-1.898-2.301-2.802-2.899-6.302-4.302-10.302-4.302-4 .105-7.4 1.503-10.201 4.403m126 9c-11-3.601-26-7.5-45-11.603-6.399-1.197-12.699-2.3-18.801-3.397 2.899 5 4.801 10.3 5.801 16.1 15.398 4.2 30.898 10 46.301 17.3 4.4-5.3 8.3-11.4 11.699-18.4m172.601-6.798c2.801 5 4.801 9.897 6 14.8 7.301-.1 14.899 0 23 .5 2.399-4.9 4.7-10.3 7-16.3-14.8-.5-26.8-.202-36 1m-39.4 20.5c0 .1 0 .197-.103.3 5-1.4 10.303-2.6 16-3.5-.197-2.3-1-4.3-2.299-6.1-1.601-2.2-3.301-3.103-5.201-2.803-1.799.303-3.6 1.803-5.5 4.603-1.697 2.699-2.697 5.199-2.897 7.5z"/><path id="cl1" fill="#271F16" d="M1495.8 1027.7c1.102 2.4 1.602 5 1.602 7.8 0 5.4-1.899 10-5.7 13.803-3.8 3.8-8.399 5.697-13.8 5.697-.602 0-1.2 0-1.802-.1 12 14.2 27.102 21.9 45.302 23.1 8.5-9.1 12.8-19.897 12.8-32.5 0-4.1-.5-8-1.399-11.697-12.403-3.001-24.703-5.103-37.003-6.103m241 33.5c-2.199 0-4.199-.8-5.897-2.3 1.299 9.8 5.799 16.7 13.5 20.7 9.799 3.897 17 1.397 21.6-7.7 3.9-10.6 4.9-20.5 3.199-29.7-7.5.3-14.602.9-21.199 1.8.1.603.1 1.303.1 1.9 0 4.2-1.1 7.8-3.3 10.8-2.303 3-5.003 4.5-8.003 4.5z"/><path id="sd1" fill="#1C1714" d="M1532.699 1033.9c-1.301-5.7-3.801-11-7.301-15.8-23-3.5-44.398-5.3-64.102-5.4-.1 4.2 0 8.2.301 11.7.699-1 1.5-1.9 2.4-2.7 3.8-3.8 8.399-5.7 13.8-5.7 5.399 0 10 1.9 13.802 5.7 1.8 1.8 3.198 3.8 4.1 6 12.401 1 24.701 3.102 37 6.2m231.101-5.5c-9.199 1.2-16.199 2.8-21 4.8a9.132 9.132 0 0 1 1.801 2.103c1.899 2.5 2.899 5.5 3.199 8.8 6.602-.9 13.7-1.5 21.2-1.8-.9-4.903-2.7-9.501-5.2-13.903z"/></svg>