<svg xmlns="http://www.w3.org/2000/svg" id="eyes" viewBox="0 0 3000 3000"><path d="M1482.9 986.801c-1.101.199-2.301.399-3.4.6-2.1.3-4.1.7-6.1 1.1-15.5 3.2-29.301 8.5-41.4 15.7-3.9 2.9-6.4 5.7-7.6 8.601-9 34.6-.801 60.699 24.6 78.399 5.2 3.7 12.7 6.601 22.7 8.7 16.699 3.7 35.1 4.7 54.899 3 21.601-2.5 38.9-12.3 52-29.4 10.101-17.1 11.801-36.5 5.2-58.199 22.2-6.5 35.4-15.301 39.8-26.601-10.5 11.5-29.699 13.8-57.6 6.8-1.2-.399-2.4-.899-3.6-1.3-17.5-6.2-31.7-9.3-42.4-9.3-1.4 0-2.8-.1-4.2-.1h-6.5c-9.199.099-17.999.799-26.399 2m267.3 10.699c-2.601 1-5.101 2-7.601 3.301-14.699 7.5-25.699 20-33 37.5-3.199 19.8 1.101 36.8 12.801 50.8 11 9.7 23.699 14.3 38.199 13.6 17.4.9 32-5 43.801-17.6 11.899-12.6 16.1-35.7 12.6-69.2 16.7-4.899 26.8-12.3 30.5-22l-12.3 5.2c-10.801 3.8-18.301 4.7-22.4 2.8-2.2-.899-4.4-1.8-6.6-2.5-20.6-7.501-39.3-8.1-56-1.901z"/><path id="cl1" fill="#554A39" d="M1577.3 1015.4c-8.8.7-16-.7-21.6-4.1-5.5-3.4-16-6.601-31.4-9.5.101 1 .101 2.1.101 3.2 0 7.8-2.801 14.399-8.301 19.8-5.5 5.5-12.1 8.3-19.8 8.3-7.8 0-14.4-2.8-19.9-8.3s-8.199-12.101-8.199-19.8c0-1.801.199-3.5.399-5.2-8.899 10.7-13.3 23.2-13.3 37.399.1 16.7 6.3 30.9 18.6 42.7 12.4 11.8 27.301 17.8 44.7 17.8 17.4 0 32.2-5.899 44.3-17.8 12.301-11.8 18.4-26 18.301-42.7.199-7.898-1.201-15.099-3.901-21.799m200.9-8.2c-1.301 15.2-7.301 23.7-17.9 25.5-10.3 1.4-16.9-5.6-19.7-21-2.5.4-4.8 1.7-6.8 3.9-1.7 5.7-2.4 15.1-2.3 28.3.2 13.2 3.7 25.5 10.7 37 3.199 5.3 6.899 9.3 11 12.2 2.3 2.1 4.6 3.7 6.899 4.8h9.7c11.5-.2 21.7-6.1 30.8-17.7 9.101-11.5 14-25.399 14.7-41.699.3-7.9-.6-15.4-2.8-22.301-11.299-4.6-22.799-7.6-34.299-9z"/><path fill="#FFF" d="M1433 1013.301c-2.4 1.199-4 3-4.8 5.3-6.801 47.1 12.1 73.1 56.8 78-12.7-6.101-22.9-17.9-30.8-35.4-7.801-17.5-6.301-37.2 4.6-59-11.9 4.699-20.5 8.299-25.8 11.1M1713.6 1041c-2.199 6.101-1.399 15.801 2.4 29.2 3.8 13.4 14.4 22 31.8 25.8-18.199-15.3-24.5-41.3-18.8-78-8.4 11.1-13.5 18.801-15.4 23m49.3-14.199c5.3-1.2 9.1-7.8 11.6-19.8-11.1-.601-21.4.1-30.7 2.1 0 6.4 2.9 12 8.7 16.7 2.3 1.399 5.7 1.799 10.4 1M1519.4 1004c0-.899 0-1.899-.101-2.8-13.5-3.2-29-3.5-46.5-.6-.1 1.1-.199 2.2-.199 3.4 0 6.399 2.3 11.899 6.8 16.5 4.6 4.6 10.1 6.899 16.6 6.899 6.4 0 11.9-2.3 16.5-6.9 4.7-4.499 6.9-9.999 6.9-16.499z"/></svg>