<svg xmlns="http://www.w3.org/2000/svg" id="eyes" viewBox="0 0 3000 3000"><path d="M1450.3 1003.802l-.1.1c-3.8 4.601-5.8 10.101-5.8 16.5 0 6.5 1.898 12 5.8 16.601 3.9 4.601 8.6 6.899 14.2 6.899 5.5 0 10.3-2.3 14.198-6.899.802-.899 1.5-1.899 2.102-2.899 2.5-3.9 3.699-8.5 3.699-13.7 0-6.5-1.899-12-5.801-16.7-.6-.7-1.3-1.398-2-2-3.5-3.2-7.6-4.8-12.199-4.8-2.801 0-5.399.6-7.801 1.8-2.298 1.196-4.398 2.896-6.298 5.098m311.3 31.798c1-1.3 1.802-2.601 2.5-3.9a27 27 0 0 0 3.102-12.6c0-6.2-1.4-12-4.2-17.4-.4-.8-.9-1.6-1.4-2.398-2.6-3.802-5.898-5.7-9.898-5.802-4.7 0-8.9 2.4-12.5 7.2-3.602 4.8-5.7 10.7-6.102 17.5-.398 6.8 1 12.602 4.102 17.4 3.1 4.8 7.1 7.3 11.8 7.3 4.796-.098 8.996-2.5 12.596-7.3z"/><path d="M1516.1 976.802c-2.898-4-6.898-7.802-11.898-11.2 22.898-3.7 38.5-3.8 46.6-.4 15.5 9.9 28.601 25.301 39.3 46.4a217.667 217.667 0 0 1 8.802 20c.5 1.3 1 2.7 1.5 4 3.3-20.8-2.2-40.9-16.302-60.4-14.198-19.5-30.3-29.398-48.5-29.6-31.3-.9-57.6 8.1-79 26.8-20.898 18.101-36.1 40.5-45.8 67.2-1 10.3 2.7 21 11 32 28.2 34.5 55.3 50.6 81.3 48.2 1.9-.5 2.802-1 2.802-1.302 0-.198-.4-.398-1-.6-36.4-9.7-63.2-28.5-80.5-56.3 16.898 15.6 34.898 22.2 54.1 19.7 25.4-5.7 42.6-20.9 51.8-45.4 3.2-18.4-.6-36.6-11.398-54.6-.906-1.6-1.806-3.1-2.806-4.498m-5.3.198c.102.2.301.4.4.5.4.5.7 1 1.1 1.5 5.2 8.602 8.801 17.9 10.9 27.9 1 4.8 1.7 9.7 1.9 14.8-1 16.4-6.7 28.5-17.2 36.4-17.7 15.899-35.7 21.1-53.8 15.6-12.602-4.8-23.7-12.7-33.102-23.898h-.1c1.6-9.2 4.199-17.7 7.8-25.7 12.1-26 35.6-45.102 70.6-57.3C1502.2 967.1 1506 970.4 1510.8 977m257.2-18.6c.8-.7 3.4-.8 7.8-.2 13.5 7 22.801 19.9 28 38.602 2.2 6 3.9 11.898 5.102 17.5 7.1 32.398-1.4 59.8-25.5 82.1-7.7 6.601-16.102 12-25.2 16.101 13.8.699 28-8 42.6-26.101 12.4-15 19.102-29.8 20.2-44.2V1018c-4.7-30.398-13.7-51.698-27.2-63.8-5.398-5.5-13.8-6.8-25.3-3.898-11.4 3-21.2 9.1-29.4 18.5-22.8 23.6-32.198 52.8-28 87.698.802 2.7 1.7 5.2 2.602 7.802 3.398 7.3 10.5 12.3 21.398 15.198 13.9 4.102 26.5 2.302 37.802-5.398 9.8-7.5 16.5-22.5 20-45v-24.2c-.302-7.3-1.9-14.8-5-22.4-2.102-5.3-4.9-10.698-8.4-16.198-5.004-4.904-8.804-7.502-11.504-7.904m9.6 16c.802 1.2 1.602 2.6 2.302 4 .698 1.3 1.398 2.6 2.1 4 4.2 10.8 6 22.2 5.4 34.3-.4 9.2-2.2 18.7-5.4 28.5-7.4 23.4-22.3 33.3-44.8 29.602-11.602-2.802-18.4-9.802-20.2-21.2-1.8-21.602 2-41.4 11.2-59.2 11.8-15.9 21.698-26.2 29.6-31 6.598-2.902 13.198.698 19.798 10.998z"/><path fill="#FFF" d="M1779.6 977.802c-1.5-.5-3-1-4.698-1.5-7.302 7-11.7 14.698-13.302 23 .5.698 1 1.5 1.4 2.398 2.8 5.4 4.2 11.2 4.2 17.4 0 4.6-1 8.8-3.102 12.6 9.602 2.102 17.4-3 23.302-15 .6-12-1.2-23.398-5.4-34.3-.7-1.398-1.4-2.7-2.1-4l-.3-.598m11.3 7.698c-.602-.698-1.2-1.398-1.802-2-.398-.398-.8-.8-1.198-1.1 0 .1.1.1.1.2 3 7.6 4.6 15 4.9 22.2v24.2c-3.5 22.5-10.2 37.5-20 45-11.302 7.7-23.9 9.5-37.802 5.4-10.898-2.8-18.1-7.9-21.398-15.2 3.6 10.102 8.1 19.102 13.3 27 8.4 10.302 17.6 17.2 27.6 20.802 1.2.198 2.4.3 3.602.398 9.1-4.1 17.5-9.5 25.198-16.1 24.2-22.3 32.7-49.6 25.5-82.1-7-13.3-13-22.898-18-28.7m-274.8-8.698c1 1.5 2 2.898 2.802 4.5 10.8 18 14.6 36.198 11.398 54.6-9.199 24.5-26.398 39.7-51.8 45.4-19.2 2.5-37.2-4.102-54.1-19.7 17.3 27.9 44.1 46.7 80.5 56.3.698.2 1 .302 1 .602 52.6.3 83.6-28.602 93.1-86.802-2.7-7.1-5.7-13.8-8.8-20-13.102-14-26.5-24-40.2-30-11.6-3.502-22.9-5.102-33.9-4.9m-4.8.698c-2.1-.1-4.199-.1-6.3 0-1.3.102-2.7.4-4 .7-2.6.602-5.1 1.4-7.6 2.5-5.802 2.7-10.602 8-14.602 16.102-.8 1.6-1.5 3.3-2.1 4.898.7.602 1.3 1.3 2 2 3.899 4.602 5.8 10.2 5.8 16.7 0 5.2-1.2 9.7-3.7 13.7 1.802.8 4.5 1.1 8.102.8 3.7-.3 8.7-1.9 15.1-4.8s11.101-6.5 13.9-10.9c2.898-4.3 4.7-8.398 5.398-12.2-2.1-10-5.698-19.3-10.898-27.898-.4-.502-.8-1.002-1.1-1.602z"/><path fill="#B6C3E0" d="M1779.6 977.802c-.698-1.2-1.3-2.302-2-3.302-.898.602-1.698 1.102-2.6 1.7 0 .102-.1.102-.1.2 1.6.3 3.2.8 4.7 1.402M1504.2 965.6c5 3.398 8.898 7.1 11.898 11.2 11-.2 22.302 1.398 33.802 4.8 13.698 6 27.1 16 40.198 30-10.698-21.102-23.8-36.5-39.3-46.4-8.098-3.398-23.698-3.3-46.598.4m271.6-7.4c-4.398-.6-7-.5-7.8.2 2.7.4 6.5 3 11.6 7.8 3.5 5.5 6.302 10.9 8.4 16.2 5.4 5 12.4 15.7 20.9 31.9-1.2-5.7-2.9-11.5-5.102-17.5-5.198-18.7-14.498-31.6-27.998-38.6z"/><path id="cl1" fill="#554A39" d="M1450.2 1004c-7 5.9-14.2 12.7-21.301 20.302-3.601 7.898-6.199 16.5-7.801 25.698h.102c9.5 11.102 20.5 19.102 33.1 23.9 18.1 5.5 36.1.3 53.8-15.6 10.5-7.9 16.2-20 17.2-36.4-.3-5.1-.9-10-1.9-14.8-.698 3.8-2.5 7.9-5.398 12.2-2.9 4.3-7.5 7.898-13.9 10.898-6.398 2.9-11.398 4.5-15.1 4.802-3.602.3-6.301.1-8.102-.802-.6 1-1.398 2-2.1 2.9-3.9 4.6-8.6 6.9-14.2 6.9-5.5 0-10.3-2.302-14.2-6.9-3.898-4.5-5.8-10.1-5.8-16.6-.2-6.398 1.7-11.998 5.6-16.498m50.7-25.698c-8.302 1.5-16.4 4-24.302 7.6-6.6 3.5-13.3 7.8-20.1 13 2.4-1.2 5-1.8 7.8-1.8 4.602 0 8.7 1.6 12.2 4.8.6-1.6 1.3-3.3 2.1-4.899 4-8.101 8.802-13.399 14.602-16.101 2.6-1.202 5.2-2.1 7.7-2.6m263.2 53.398c-.698 1.3-1.5 2.602-2.5 3.9-3.6 4.8-7.8 7.3-12.6 7.3s-8.8-2.4-11.8-7.3c-3.102-4.8-4.4-10.601-4.102-17.4.4-6.8 2.4-12.7 6.102-17.5 3.6-4.8 7.8-7.2 12.5-7.2 4 .102 7.3 2 9.898 5.802 1.602-8.4 6-16.2 13.4-23.2-9.8-2.5-25.4 3.6-46.8 18.3-9.2 17.8-13 37.601-11.2 59.2 1.8 11.398 8.6 18.398 20.2 21.2 22.5 3.698 37.398-6.2 44.8-29.602 3.2-9.898 5-19.398 5.4-28.5-5.898 12-13.698 17.102-23.298 15z"/><path id="sd1" fill="#3D3931" d="M1504.9 977.6c2-.2 3.898-.4 5.898-.602-4.8-6.6-8.698-9.898-11.398-10-35 12.102-58.5 31.2-70.602 57.302 7.2-7.602 14.302-14.4 21.302-20.301l.1-.101c1.9-2.2 4-3.899 6.3-5 6.7-5.1 13.4-9.399 20.101-13 7.899-3.6 16-6.1 24.301-7.6 1.398-.298 2.698-.598 3.998-.698m270.1-1.5c.8-.602 1.7-1.102 2.6-1.7-6.6-10.3-13.1-13.9-19.8-11-7.9 4.8-17.8 15.1-29.6 31 21.4-14.7 37-20.8 46.8-18.3z"/></svg>