<svg xmlns="http://www.w3.org/2000/svg" id="eyes" viewBox="0 0 3000 3000"><path fill="#FFF" d="M1587.6 1080.5v-13.6c-.5-1.1-.9-2.2-1.4-3.3-4.5-8.3-9.1-16-13.8-23.1-.4 24.6-7.5 41.3-21.5 50.2 14-2.3 26.2-5.7 36.7-10.2m-43.2-50c0 1.2-.1 2.4-.3 3.6 6.1-.9 11.6-4.2 16.6-9.8-9.7-12.4-19.6-22.2-29.7-29.4-1.3 1.4-2.2 2.8-2.5 4.3 3.3 1.6 6.3 4.2 9 7.7 5 6.5 7.3 14.4 6.9 23.6m-129.1-27.5c-3.2 12.2-1.9 26.1 3.9 41.5 10.2 27 33.9 42.5 71 46.6-32.6-23.8-42.2-56.8-28.8-98.8.1-.2.1-.4.2-.5 1.2-3.8 2.8-7.3 4.8-10.7-17.2 2.5-34.2 9.8-51.1 21.9m358.8-12.7c.1.2.1.4.1.6.1.4.3.8.4 1.2 1.6 6.1 2.6 13.6 3 22.5.1 2.5.1 5 0 7.5-.2 25.3-4.7 45.5-13.4 60.5 3.5-1.1 8.7-4.5 15.6-10.4 13.3-12.1 19.9-31.9 19.9-59.2-7.7-17.4-17.2-27.8-28.5-31.2 1 2.6 1.9 5.4 2.9 8.5m-9.2-9.6c-3.6-.2-7.4.2-11.3 1.3-2.9 3.6-5.4 9.3-7.4 17.1 3.5.9 6.4 3.7 8.9 8.3 2.5 4.7 3.9 10.1 4.1 16.4 5-4 8.7-9.3 11.3-16-.8-11-2.6-20-5.6-27.1z"/><path fill="#BABEE5" d="M1560.8 1024.3c.6-.6 1.2-1.3 1.8-2.1-9-11.9-17.9-22.1-26.6-30.7-2 1-3.6 2.1-4.8 3.3 10 7.3 19.9 17.1 29.6 29.5m-94.5-43.3c5.2-8.6 13.3-15.6 24.3-21-15.1-4.1-32.6-.3-52.6 11.2-12 9-19.6 19.6-22.8 31.8 17-12.1 34-19.4 51.1-22m309.3-13.6c-6.6-4.4-12.6-5.7-18-4 5 1.6 9.5 7.7 13.6 18.4 11.3 3.3 20.8 13.7 28.5 31.2 0-3.9-.1-7.9-.4-12.2-2.3-12.7-10.2-23.8-23.7-33.4m-10.7 13.3c-.5-1.2-1.1-2.4-1.7-3.5-3.6-.3-6.8 1.3-9.7 4.8 4-1.1 7.8-1.5 11.4-1.3z"/><path id="cl1" fill="#554A39" d="M1567.1 1032.8c-2.1-2.9-4.2-5.8-6.3-8.5-4.9 5.6-10.4 8.9-16.6 9.8-.7 7.5-3 13.6-6.9 18.3-4.5 5.4-10.3 8.1-17.7 8.2-7.3 0-13.6-3.1-18.8-9.3-5.2-6.2-7.8-13.6-7.8-22.4 0-8.8 2.5-16.2 7.5-22.4 5.1-6.2 11.4-9.3 18.7-9.3 3.4 0 6.5.7 9.3 2 .3-1.5 1.2-3 2.5-4.3-1.5-1.1-3.1-2.1-4.7-3.1-17.2-8.6-34.2-12.5-51.3-11.6-9.7 13.3-13.6 31.4-11.6 54.3 4.3 28.1 18.5 47.1 42.4 57 12.5 1.3 25.3.4 38.6-2.6 16.2-12 23.7-30.6 22.7-56.1m176.3-34c1 0 1.9.1 2.8.3 2-7.8 4.5-13.5 7.4-17.1-8.9 2.4-18.6 8-29.2 17-5.5 11.1-10.2 24.4-14.3 39.9 0 .1-.1.3-.1.4-1.3 5.7-2.1 11.8-2.5 18.4v20c10.2 6.9 24 9.7 41.4 8.4 10-2.1 17.2-19.7 21.6-52.8.5-9.4.5-17.9-.1-25.5-2.6 6.7-6.4 12-11.3 16 .1 1.4.1 2.9 0 4.5-.3 8.1-2.1 15.1-5.4 20.8-3.3 5.7-7.3 8.6-12 8.6s-8.6-3.2-11.5-9.6c-3-6.4-4-13.7-3.1-21.8.9-8.2 2.6-14.8 5.2-19.9 2.7-5.1 6.4-7.6 11.1-7.6z"/><path id="sd1" fill="#3E3732" d="M1566.8 1028c-1.4-2-2.9-3.9-4.3-5.8l-1.8 2.1c2.1 2.7 4.2 5.6 6.3 8.5 0-1.6-.1-3.2-.2-4.8m-71.6-64.8c-8.3 4.4-14.9 10-20 17 17-.8 34.1 3.1 51.3 11.6 1.6 1 3.1 2 4.7 3.1 1.2-1.2 2.8-2.3 4.8-3.3-14.1-13.8-27.7-23.3-40.8-28.4m258.4 18.8c2.8-3.5 6-5.1 9.7-4.8-2.9-5.5-6.6-9.7-11.1-12.4-10.8 7-20 18.3-27.8 34.1 10.6-8.9 20.3-14.6 29.2-16.9z"/><path fill="#010101" d="M1395.6 985.2c-19.9-21.5-31.7-42.9-35.4-64.2-10.1 15.2 1.8 55 35.8 119.4 20.5 31.2 46.5 49 78 53.6 29.8 1.4 55.4.4 76.9-3.3 14-8.8 21.1-25.6 21.5-50.2v-4.2c4.1 6.3 8.7 15.4 13.8 27.3.8 1.5 1.6 3 2.4 4.4-1.2-17.1-6.6-34.5-16.2-52.1-25.2-42.2-56-68.4-92.4-78.8-42.4-3.4-70.5 12.6-84.4 48.1m79.6-5c5.1-6.9 11.7-12.6 20-17 13.1 5.1 26.7 14.6 40.8 28.4 8.7 8.5 17.5 18.8 26.6 30.7 1.4 1.9 2.9 3.8 4.3 5.8l.3 4.8c1 25.5-6.5 44.1-22.5 56-13.3 3-26.1 3.9-38.6 2.6-23.9-9.9-38.1-28.9-42.4-57-2.1-22.9 1.8-41 11.5-54.3m15.4-20.2c-11 5.5-19.1 12.5-24.3 21-2 3.3-3.6 6.9-4.8 10.7 0 .2-.1.4-.2.5-13.4 42-3.7 74.9 28.8 98.8-37.1-4.1-60.8-19.6-71-46.6-5.8-15.4-7.1-29.2-3.9-41.5 3.2-12.1 10.7-22.7 22.8-31.8 20-11.4 37.5-15.2 52.6-11.1m53.6 74.1l.3-3.6c.3-9.2-2-17.1-6.9-23.5-2.6-3.5-5.6-6.1-9-7.7-2.9-1.4-6-2-9.3-2-7.3 0-13.5 3.1-18.7 9.3-5.1 6.2-7.6 13.6-7.5 22.4.1 8.8 2.7 16.2 7.8 22.4 5.2 6.2 11.4 9.3 18.8 9.3 7.3 0 13.2-2.7 17.7-8.2 3.8-4.8 6.1-10.9 6.8-18.4m277.2-65.5c-9.6 0-16-2.1-19.4-6.3-12.4-15.3-25.3-20.7-38.8-16-20.7 6.3-38.7 28.3-54.2 66-6.8 28-9.5 51-8 69 37.1 17.5 66.8 13.1 89.2-13.4 8.7-9.3 17.2-29.3 25.4-60 5-9.5 10.5-21.6 16.4-36.2 7.1-10.4 11.7-21.8 13.8-34.2-10 20.5-18.1 30.9-24.4 31.1m-58.1 8.6c.6 1.1 1.1 2.3 1.7 3.5 3 7.1 4.8 16.1 5.6 27 .6 7.6.6 16.1.1 25.5-4.4 33.1-11.6 50.7-21.6 52.8-17.4 1.3-31.2-1.5-41.4-8.4v-20c.3-6.6 1.1-12.7 2.5-18.4 0-.1.1-.3.1-.4 4-15.5 8.8-28.8 14.3-39.9 7.8-15.8 17-27.1 27.8-34.1 4.3 2.7 8 6.9 10.9 12.4m-5.7-13.8c5.4-1.7 11.4-.4 18 4 13.5 9.6 21.4 20.7 23.7 33.4.3 4.2.4 8.3.4 12.2 0 27.3-6.6 47.1-19.9 59.2-6.9 5.9-12.1 9.3-15.6 10.4 8.7-15 13.2-35.2 13.4-60.5v-7.5c-.4-8.9-1.4-16.4-3-22.5-.1-.4-.2-.8-.4-1.2 0-.2-.1-.4-.1-.6-.9-3.1-1.9-5.9-2.9-8.5-4.1-10.7-8.6-16.8-13.6-18.4m-2.5 43.9c-2.4-4.6-5.4-7.3-8.9-8.3-.9-.2-1.8-.3-2.8-.3-4.7 0-8.4 2.5-11 7.5-2.6 5-4.3 11.7-5.2 19.9-.9 8.2.1 15.5 3.1 21.8 2.9 6.4 6.8 9.5 11.5 9.6 4.7 0 8.7-2.9 12-8.6 3.3-5.7 5.1-12.7 5.4-20.8.1-1.5 0-3 0-4.5-.3-6.1-1.7-11.6-4.1-16.3z"/></svg>