<svg xmlns="http://www.w3.org/2000/svg" id="eyes" viewBox="0 0 3000 3000"><path fill="#FFF" d="M1476.337 1007.906c-5.6 1.1-6.801 4.6-3.698 10.6 3.198 6 13.897 14.8 32.299 26.3 7.9 2.4 15.102.5 21.801-5.8-7.699-10.5-10.6-20.898-8.699-31.2h-41.7m244.859 16.294l14.1 14.3c3 1.3 6.101 2.6 9.301 3.8 8.102 1.9 15.9.7 23.4-3.8-6.301-5.3-8.5-13.8-6.5-25.5-22.801.5-36 1.3-39.801 2.4-3.799 1.002-3.9 4.002-.5 8.8z"/><path fill="#CDCDCD" d="M1518.037 1007.906c.699-3.4 1.801-6.7 3.5-10-13.102-1.103-39.8-1.5-80.2-1.4 17.601 20 36.801 35.2 57.601 45.8 2 1.103 4 2 6 2.603-18.299-11.603-29.1-20.4-32.299-26.301-3.103-6-1.899-9.5 3.698-10.602h41.699m243.464 4.796c.5-2.9 1.299-6 2.299-9.303-16.5-.3-36.299.2-59.397 1.603-3.5 1.397-3.899 4.1-1.2 8 .7 1 1.399 2 2.2 3 7.101 9.1 17 16.5 29.8 22.3l-14.101-14.3c-3.399-4.8-3.301-7.8.5-8.9 3.899-1.102 17.098-1.9 39.899-2.4z"/><path d="M1434.936 989.003c-4.301 1.5-5.5 4.7-3.4 9.6 37.4 38.4 64 56.803 79.8 55.2 20.4-2.5 46.199-16.7 77.4-42.6.301-.3.6-.601.801-.9 7.398-8.5 5-14.397-7.301-17.7-40.199-4.697-89.399-5.9-147.3-3.6m86.599 8.8c-1.697 3.3-2.799 6.7-3.5 10-1.896 10.3 1 20.7 8.701 31.2-6.701 6.3-14 8.2-21.801 5.8-1.9-.6-3.9-1.5-6-2.6-20.801-10.601-40-25.8-57.602-45.8 40.403-.1 67.103.3 80.202 1.4m227.464 54.297c4.9 1 10.101.2 15.8-2.4 21.2-10.1 38.4-24 51.603-41.8 2.8-5.3 1.5-8.7-3.802-10.4-34.698-2.8-73-2.897-114.801-.197-5.8 3.8-6.399 9.6-2.1 17.6.199.3.301.5.398.8 12.503 17.099 30.102 29.197 52.902 36.397m14.8-48.6c-1 3.303-1.8 6.4-2.3 9.303-2 11.697.2 20.197 6.5 25.5-7.5 4.5-15.3 5.697-23.399 3.8-3.301-1.2-6.398-2.4-9.301-3.8-12.8-5.803-22.8-13.2-29.8-22.303-.7-1-1.5-1.897-2.2-3-2.699-3.897-2.3-6.6 1.2-8 23-1.3 42.8-1.8 59.3-1.5z"/><path id="cl1" fill="#554A39" d="M1584.865 1005.303c-1.504 2.5 1.996-2.45-1.268-4.343-5.736-1.98-19.111-4.351-27.361-4.351-12.75-.162-17.75-.479-24.375.407-4.32.78-6.625-.527-8.781 11.836-.107 6.022-.609 7.006.406 12.381 1.879 6.375 2.807 8.154 5.25 12.619 3 5.375 3.625 7 9 4.875 7.504-3.069 2.75-.5 23.875-13.983 15.904-12.392 10.75-7.478 20-15.642m190.232-4.227c-2.199.399-2.097 1.219-3.646 4.568-1.646 5.682-2.554 15.71 2.646 23.71 4.654 7.346 17.779-3.904 26.154-10.904 10.125-8.5 14.241-15.161 12.366-16.25-2.147-1.181-4.397-1.181-7.643-1.093"/></svg>