<svg xmlns="http://www.w3.org/2000/svg" id="eyes" viewBox="0 0 3000 3000"><path fill="#FFF" d="M1489.3 1013.5c-2.3-1.8-4.898-2.698-7.898-2.698-3.7 0-6.802 1.398-9.4 4.1-2 2.101-3.2 4.601-3.7 7.5 1.5.9 2.9 2.101 4.302 3.5 3.398 3.601 5.398 7.8 6 12.7.898.2 1.898.3 2.898.3 3.7 0 6.8-1.399 9.4-4.2 2.6-2.699 3.898-6 3.898-9.898 0-1.9-.3-3.7-.898-5.301a36.856 36.856 0 0 0-4.602-6.003m-77 1.5c.301 5 1.4 10.802 3.301 17.4 4.601-22 17.699-33.9 39.199-35.8 14.5-1.3 26.602 2.7 36.2 12.1 9.6 9.4 13.6 24.102 12.1 44.2-7.398 26.7-24.898 38-52.698 34 7.5 4.7 25.698 7.4 54.6 8 34.8.6 60.6-4.3 77.2-14.6-4.102-28.9-10.7-50.7-19.802-65.4-1.8-2.2-3.698-4.4-5.698-6.5-24.2-17.1-51.602-24.9-82.2-23.5-26.802 2.3-47.602 12.3-62.202 30.1m332.8-5.8c21.7 16.9 27 37.102 16 60.8-5.698 9.5-12.1 16.4-19.198 20.802 15.3 1.198 32-2.4 50.1-10.802 16.3-7.898 24.1-23.1 23.6-45.6 1.2-14.6-.198-27.3-4.198-38.1-5.9-7.102-13.102-11.5-21.802-13.3-15.402.6-30.302 9.302-44.502 26.2m12.3 22.102c-1.802-4.602-4.7-8.9-8.4-12.9-7.9-.399-12.4 4.5-13.5 14.5 2 1.8 3.7 4.3 5.1 7.601 9.5.299 15.2-2.701 16.8-9.201z"/><path id="cl1" fill="#554A39" d="M1443.3 1025.802c4.102-4.3 9.125-5.427 14.825-5.427 3.9 0 7.175.025 10.275 1.927.5-2.9 1.698-5.4 3.698-7.5 2.602-2.7 5.7-4.102 9.4-4.102 3 0 5.6.9 7.9 2.7.1-.1-.4-1.625-.9-2.025-7.6-7.698-17.1-11.601-28-11.5-10.899.101-20.1 5.025-27.8 13.025-7.601 8-11.825 17.774-11.825 28.975s4.325 20.525 11.825 28.525c7.6 8 16.8 11.9 27.399 11.9 10.699 0 19.699-4 27-11.801 7.301-7.899 12.399-17.65 12.899-29.25.301-8.2-2.3-15.649-6-21.949.6 1.6.601 3.7.601 5.6 0 3.9-1.301 7.2-3.899 9.9-2.601 2.8-5.7 4.199-9.4 4.199-1 0-2-.101-2.899-.301.101 1 .101 1.9.101 2.9 0 6.1-2 11.2-6.101 15.5-4 4.3-9.101 5.648-14.899 5.648s-10.274-2.074-14.375-6.375c-4-4.3-5.375-8.649-5.375-14.75.3-6.296 1.45-11.421 5.55-15.819m287.1 43.798c-10.2 2.8-16.9 1.399-19.802-4.3-2.475 5.948-1.6 12-1.6 17.1 9.5 7.4 19.75 9.225 29.75 3.725 6.801-3.301 12.351-10.823 17.45-20.725 4.899-12.8 6.175-24.6 2.175-34.6-1.7 6.398-9.25 10.023-18.75 9.823 4.202 13.401 1.877 23.077-9.223 28.977z"/><path id="sd1" fill="#413930" d="M1721.875 1030.75c3.7-.699 7.051-.449 9.75.75 2.301-6 6.275-12.698 11.175-18.698-2.399-1.9-5-3.7-7.899-5.4-4.801 7.9-9.626 16.149-13.026 23.348z"/><path d="M1549.6 988.2c-17.1-22.6-40.398-35.2-69.898-37.7s-55.4 9.4-77.9 35.7c-13.899-1.5-23.6-17.5-29.2-48-6.698 24.9.7 49 22.302 72.5 2.3 2.3 4.3 3.9 5.8 4.8-.5 2.5 1.2 8.802 5 19 .1.102.1.302.2.4 9.5 23.8 20.3 40.6 32.3 50.5 5.1 3.9 10.7 6.5 16.8 7.8 49.4 13 92.7 9.7 130.101-10v-6.6c-2.105-33-13.905-62.5-35.505-88.4m-134 44.2c-1.898-6.6-3-12.4-3.3-17.4-.1-1.3-.1-2.6-.1-3.8 4.199-13.5 14.398-23.898 30.6-31.398 14.4-8.4 34.8-10.602 61.2-6.602 19.8 6.7 37.399 18.3 52.8 35 1.9 2.102 3.8 4.3 5.7 6.5 9.1 14.7 15.7 36.5 19.8 65.4-16.6 10.3-42.4 15.2-77.2 14.6-28.898-.6-47.1-3.3-54.6-8 27.7 4 45.3-7.3 52.7-34 1.6-20.1-2.4-34.8-12.102-44.2-9.6-9.398-21.698-13.398-36.198-12.1-21.6 2.1-34.7 14-39.3 36m17.2 37.902c-7.6-7.9-11.3-17.5-11.3-28.7s3.8-20.8 11.3-28.8c7.602-7.9 16.9-11.9 27.801-12.102 10.899-.1 20.101 3.7 27.699 11.4l1.2 1.2c1.7 1.899 3.2 3.899 4.5 6 3.7 6.3 5.4 13.5 5.1 21.7-.5 11.6-4.398 21.3-11.698 29.198-7.302 7.9-16.302 11.802-27 11.802-10.902.302-20.102-3.698-27.602-11.698m25.1-50.802c-5.7 0-10.602 2.102-14.7 6.4-4 4.3-6.1 9.5-6.1 15.6 0 6.102 2 11.2 6.1 15.5 4.1 4.302 9 6.4 14.7 6.4 5.698 0 10.6-2.1 14.698-6.4 4.102-4.3 6.102-9.398 6.102-15.5 0-1 0-1.898-.102-2.898-.6-4.8-2.5-9-6-12.7-1.3-1.399-2.698-2.6-4.3-3.5-2.998-2.002-6.498-2.902-10.398-2.902m369.1-31.1c-3.1-11.3-9.1-20.9-17.8-28.8-8.801-7.8-23.5-6.2-44.2 5-12.5 8.4-23.6 20.4-33.3 35.9-8.5 13.698-15.9 29.999-22.301 49.1-6.101 17.9-6.101 30.9 0 38.8 4.601 4.4 11.899 6.801 21.801 7.301 3 .199 6.199.199 9.6 0h.2c24.1 1.801 46.7-5.801 67.899-22.801 8.199-11.898 13.199-28.398 15-49.398l13.399-12c19.8-18.7 29.101-37.302 27.8-55.802-1.5 9.802-10 21.7-25.398 35.602-5 4.298-9.3 3.298-12.7-2.902m-81.9 20.8c-.898-.7-1.898-1.5-3-2.2l-1.398-1c-1-.698-2-1.398-3.102-2.1 11.4-16.3 25.2-26.4 41.4-30.3 5.9-1.7 10.7-2.5 14.4-2.4 8.3 6.7 14.3 15.102 18 25.102 4 10.8 5.398 23.5 4.198 38.1.5 22.5-7.3 37.7-23.6 45.601-18.1 8.301-34.8 11.899-50.1 10.801 7.1-4.4 13.5-11.4 19.198-20.801 11.004-23.701 5.604-44.003-15.996-60.803m3.9 9.3c3.8 4 6.6 8.302 8.4 12.9 4.1 9.9 3.6 21.3-1.302 34.1-5.1 9.9-11.1 16.602-17.898 19.9-10 5.5-19.7 4.5-29.301-2.9-.101-5 .399-10.698 1.601-17.1 3 5.6 9.6 7.1 19.8 4.3 11.1-5.898 14.5-15.6 10.2-29-1.4-3.3-3.101-5.8-5.101-7.6-1-.9-2.199-1.6-3.399-2.2-2.7-1.199-5.9-1.398-9.5-.699 3.399-7.199 7.5-14.801 12.3-22.699 2.9 1.699 5.6 3.5 7.9 5.398 2.4 1.7 4.5 3.6 6.3 5.6z"/><path fill="#BCC0E0" d="M1415.6 1003.2c-1.398 2.5-2.5 5.2-3.398 8 0 1.2 0 2.5.1 3.8 3.601-4.398 7.601-8.3 12-11.8 13.3-10.5 30.101-16.6 50.3-18.398 27.302-1.302 52.2 4.8 74.5 18.398 2.602 1.602 5.2 3.3 7.7 5-1.6-1.7-3.2-3.398-4.899-5-14.101-14-30.101-24-47.801-30-26.398-4-46.8-1.8-61.199 6.602C1430 985.7 1420.9 993.5 1415.6 1003.2m329.5 6c1.802-2.1 3.602-4.1 5.4-6 12.6-12.898 25.7-19.7 39.2-20.2 8.699 1.802 15.898 6.2 21.8 13.302-3.7-10-9.7-18.4-18-25.102-3.7-.1-8.5.7-14.4 2.4-16 3.8-29.6 13.7-40.898 29.6-.102.2-.302.4-.5.602 1.1.698 2.1 1.398 3.1 2.1l.5.3c.2.102.3.2.5.301s.3.199.4.399c.898.798 1.898 1.498 2.898 2.298z"/></svg>