<svg xmlns="http://www.w3.org/2000/svg" id="eyes" viewBox="0 0 3000 3000"><path d="M1564.4 1073h4.199c7.601 4.2 22.601 3.5 45-2-16.8-.3-32.6-5.399-47.399-15.3h-2.301c-13.8 10.2-25.5 15.4-35.3 15.8-34.6 1.9-64.7-12-90.2-41.8 19.101 39.101 47.301 60.2 84.801 63.2 16.9-1.8 30.6-8.4 41.2-19.9m166.7-14.9c.301.6.601 1.3.9 1.8 4 7.5 9.3 13.7 15.8 18.6 8.801 8 19 11.7 30.5 11.2 13.601-.6 24.301-9.3 32.101-25.899a107.355 107.355 0 0 0 21 3.6c10.6-.8 17.8-3.3 21.399-7.6-15.699 3.1-28.399-.4-38-10.601-4.899-4.7-8.899-4.8-11.8-.2-8 16.9-15.5 25.5-22.6 26-14.4.7-30.5-6-48.4-20.199-.8 1.199-1.1 2.299-.9 3.299z"/><path fill="none" stroke="#000" stroke-linecap="round" stroke-linejoin="round" stroke-width="4" d="M1733.8 1046.801c10.5-30 28.801-50.3 54.7-60.7 4.6-2.3 8.4-2.3 11.4 0 10.3 7.6 14.899 23.3 13.899 46.899m-249.599 8.4c0-35.3-8.301-57-25-65-7.5-2-18.301-.1-32.5 5.5-20.601 7.1-36.801 20.8-48.5 41.3"/></svg>