<svg xmlns="http://www.w3.org/2000/svg" id="eyes" viewBox="0 0 3000 3000"><path d="M1414.4 1019.2c-1.1 3.4-1.1 7.4 0 12 15.6 28.5 35.7 45.2 60.4 50 32.3 7.7 59.2.8 80.8-20.8 6-4.6 11.1-9.6 15.3-14.8 10.4-12.9 15.1-27.7 14.3-44.4l-170.8 18m295.7 25.4c0 .4.1.7.1 1 1.4 13.9 12.2 24.6 32.4 32.2 21.4 4.3 42.1-2.7 62.2-21 6.5-6.8 10.6-16.3 12.4-28.6-52.4-14.6-86.2-22.2-101.4-22.6-4.6 9.5-6.5 22.5-5.7 39z"/><path fill="#FFF" d="M1552.4 1055.8c4-3.4 7.6-6.8 10.7-10.2 4.7-5.1 8.3-10.2 10.8-15.3-8.9-.3-22.2.5-39.7 2.3-3.7 3.6-8.6 6.5-14.8 8.5-8.5.8-15.7-.3-21.7-3.3-26.8 2.5-48.9 5.5-66.1 9.1 8.3 11.4 23.1 20.9 44.3 28.3 30.3 6.7 55.7.2 76.5-19.4m164.4-10.2c1 4.3 2.5 8.2 4.6 11.8 13.7 14.1 29.9 18.2 48.6 12.2 16.6-5.7 28.2-13.7 34.9-24l-29.6-6.1c-.4.2-.7.5-1.1.7-5.7 2.7-11.6 3.3-17.6 1.8-4.8-1.9-8.3-4.8-10.5-8.7l-30.1-6.3c-.7 6.8-.4 13 .8 18.6z"/><path fill="#B8BFE3" d="M1573.9 1030.3c3-5.8 4.6-11.7 4.9-17.5l-36.8 2.8c-.6 6.9-3.2 12.6-7.8 17.1 17.5-1.9 30.8-2.7 39.7-2.4m-149.5.1c1.1 5.9 3.5 11.4 7.3 16.5 17.2-3.5 39.3-6.5 66.1-9.1-6-3.1-10.7-8.1-14.2-15-23.4 2-43.2 4.5-59.2 7.6m384.6 7.2l-22.6-7.2c-3 3.2-6.7 6.2-11.1 9.1l29.6 6.1c1.7-2.5 3-5.2 4.1-8m-62.9-4.3c-2.5-4.2-3.5-9.5-3.1-15.9l-24.2-5c-1.4 5.2-2.3 10-2.8 14.7l30.1 6.2z"/></svg>