<svg xmlns="http://www.w3.org/2000/svg" id="eyes" viewBox="0 0 3000 3000"><path fill="#FFF" d="M1460.082 996.371c1.199-4.103 2.5-8.103 4-11.803-10.4 1.5-20.602 5-30.602 10.603-1.898 6.1-2.6 14-2.198 23.897.897 7.7 2 13.4 3.3 17.103 10.4 24 27.9 39.8 52.6 47.2 29.4 4.8 54.5.8 75.4-12 11.6-9.103 18.301-21.9 20.2-38.4-3.2-6.2-8.7-12.8-16.7-19.8-.4 15.1-4.1 27.397-11.1 37-11.2 14.6-29.4 20.3-54.602 17.199-14.5-2.602-25.801-10.699-34-24.302-2-3.397-3.5-7.5-4.601-12.397-2.497-12.202-3.097-23.702-1.697-34.3m72.7-5c-.802.197-1.5.5-2.302.8-2.898 1.397-4.301 3.3-4.301 5.897 0 2.5 1.4 4.9 4.301 7 2.9 2.103 6.4 3.5 10.5 4 4.102.5 7.602.103 10.5-1.3 2-.897 3.302-2.1 3.9-3.5-6.897-5.299-14.497-9.599-22.598-12.897m209.019 84.806c-4.792-1.616-8.938-5.709-12.225-12.203 7.433 21.246 23.826 30 48.876 26.292 11.418-4.305 20.35-13.172 26.605-26.492 5.898-13.881 8.536-29.137 8.115-45.78-3.855-4.227-8.358-7.879-13.823-11.132 1.254 15.956-1.082 32.181-6.801 48.763-11.02 21.652-28 28.543-50.747 20.552m28.265-63.761l.021.196c.133.291.164.589.205.984.561 1.553 2.01 2.911 4.321 3.877 2.743 1.223 6.008 1.688 9.687 1.306 2.885-.3 5.419-1.065 7.605-2.298a115.4 115.4 0 0 0-.048-12.06c-2.621-1.035-5.667-1.322-9.148-.96-3.678.382-6.777 1.509-9.211 3.27-2.442 1.659-3.638 3.696-3.432 5.685z"/><path fill="#A5A6CF" d="M1582.683 1032.969c.7-5.6.7-11.7.301-18.3-5.399-13.3-11.899-23.9-19.601-31.7 2.101 11.1 3 21.1 2.699 30.2 7.901 7 13.5 13.599 16.601 19.8m-147-43c-.898 1.5-1.601 3.3-2.199 5.2 10-5.6 20.199-9.1 30.601-10.6 3-7.7 6.7-14.5 10.899-20.603-16.001 1.602-29.101 10.302-39.301 26.003m105.399.902c-3.102-.4-5.899-.303-8.301.397 8.102 3.4 15.699 7.7 22.699 13 .301-.7.5-1.5.5-2.3 0-2.5-1.5-4.9-4.398-7-2.899-2.2-6.399-3.499-10.5-4.097m250.633-18.809c1.675 3.546 2.935 7.939 3.771 13.081a109.214 109.214 0 0 1 3.864 21.717c5.365 3.263 9.966 6.905 13.823 11.132-.214-8.825-1.362-17.956-3.468-27.589-3.444-7.988-9.418-14.204-17.99-18.341z"/><path id="cl1" fill="#483A31" d="M1530.582 992.169c.699-.3 1.5-.603 2.301-.8-17.438-8.303-38.737-10.681-61.938-8.778-5.198 12.8-6.485 27.314-1.625 41.853 2.2 6.7 3.912 12.102 6.313 16 10.3 16.7 28.188 23.875 51.188 21.375 16.398-5.3 27.05-19.898 31.25-42 .398-4.898.013-9.35.111-13.55-.801-.7-1.699-1.3-2.601-2-.6 1.4-1.899 2.603-3.899 3.5-2.898 1.4-6.398 1.8-10.5 1.3-4.101-.6-7.601-1.897-10.5-4-2.898-2.197-4.301-4.5-4.301-7-.199-2.6 1.301-4.501 4.201-5.9m-16.3-1c3.5 0 6.397 1.6 8.8 4.7 2.4 3.197 3.7 7 3.7 11.397 0 4.4-1.774 8.14-4.274 11.237-2.4 3.2-4.539 4.375-7.938 4.375-3.5 0-5.976-1.8-8.375-5-2.397-3.1-3.75-6.1-3.75-10.5 0-4.399 1-8.113 3.5-11.313 2.401-3.097 4.837-4.896 8.337-4.896m255.804 21.445l-.021-.197c-.217-2.091.892-4.014 3.421-5.785 2.434-1.761 5.544-2.788 9.212-3.269 3.481-.361 6.834.082 9.555 1.106l-.091-.871c-18.933-13.491-40.454-7.272-63.523 12.617-2.862 14.068-.62 27.911 7.023 41.497 6.773 10.051 15.201 14.706 25.367 13.852 14.724-3.437 24.099-15.772 28.337-36.924 1.401-5.876 2.273-11.999 2.638-18.169-2.185 1.232-4.719 1.998-7.604 2.297-3.68.382-6.944-.083-9.687-1.306-2.215-.977-3.872-2.415-4.535-3.953.406 1.969.104 4.023.055 6.441-.231 4.547-1.226 8.284-3.184 11.704-1.958 3.421-3.234 4.798-5.821 5.067-2.586.269-5.063-.341-6.686-3.391-1.723-3.036-2.414-6.787-2.283-11.325.133-4.538 1.223-8.57 3.178-11.992s4.356-4.876 6.944-5.145c2.586-.269 4.081 1.071 5.706 4.121.524 1.15 1.646 2.152 1.999 3.625z"/><path id="sd1" fill="#2F2628" d="M1484.983 961.768c-6.1 6.8-10.6 14-13.6 21.3 23.199-1.897 43.6.9 61.399 8.2 2.397-.7 5.198-.8 8.3-.397 4.101.5 7.601 1.897 10.5 4.1 2.9 2.202 4.4 4.5 4.4 7 0 .8-.2 1.602-.5 2.3.898.603 1.698 1.302 2.6 2 .5-14.897-.5-25-3.199-30.5-15.301-12.9-38.601-17.602-69.9-14.003m246.879 43.856c-1.341 3.555-2.481 7.094-3.225 10.59 22.979-19.782 44.446-24.008 63.522-12.617-.707-10.684-2.979-21.922-6.974-33.27-10.595-4.23-20.606-2.989-29.109 3.222-10.865 7.665-18.905 18.353-24.214 32.075z"/><path d="M1434.582 1036.169c-.602 2.5-.301 6 1.199 10.6.699 2.2 1.602 4.603 2.801 7.3 1 2.303 2.398 4.7 4.1 7.4-6.399.6-10.5 3.3-12.199 8.2 7.802-2 13.5-2.4 17-1.4 14.802 10.4 28 15.5 39.699 15.2-24.699-7.5-42.199-23.3-52.6-47.3m143.401-46.798c13.102 8.1 20.602 9.697 22.602 4.8-7.399-.8-13.802-4.603-19.199-11.603 14.899-.697 21.6-3.8 20-9.197-8 4.197-15.2 3.6-21.801-1.603-24.899-15.397-48-24.2-69.399-26.2s-41.8 1.603-61.2 10.803c-15.398 5.3-32.3.8-50.6-13.603.8 10.3 9.199 21.4 25.199 33.2v5.3c-4.199 8.2-11.302 12-21.399 11.2 3.101 5.1 9.7 6.8 19.8 5 1.9-.8 2.9 0 2.9 2.4.699 10.397 2.899 16.8 6.399 19.199-.399-9.899.3-17.802 2.198-23.899.602-1.9 1.302-3.7 2.2-5.2 10.2-15.7 23.3-24.4 39.3-26-4.3 6.1-7.898 12.9-10.898 20.6-1.5 3.7-2.802 7.7-4 11.803-1.399 10.6-.802 22.1 1.801 34.3 1 4.897 2.5 9 4.6 12.397 8.2 13.603 19.5 21.7 34 24.303 25.2 3.1 43.4-2.603 54.602-17.2 7-9.601 10.699-21.9 11.101-37 .3-9.101-.601-19.101-2.7-30.2 7.7 7.8 14.2 18.4 19.603 31.7.3.899.698 1.7 1 2.6v-13.5c-2.109-7.102-4.109-11.9-6.109-14.4m-106.6-6.303c3-7.397 7.5-14.5 13.6-21.3 31.302-3.6 54.602 1.103 69.9 14 2.6 5.5 3.699 15.7 3.199 30.5-.199 4.2-.4 8.8-.801 13.7-4.199 22.1-14.5 35.8-30.898 41.2-23 2.5-39.602-4.5-49.9-21.2-2.398-3.8-4.7-9.1-6.898-15.8-4.003-14.499-3.403-28.199 1.798-41.1m51.799 12.803c-2.397-3.103-5.397-4.7-8.799-4.7-3.5 0-6.4 1.6-8.801 4.7-2.4 3.198-3.699 7-3.699 11.397 0 4.4 1.199 8.2 3.699 11.301 2.398 3.199 5.398 4.802 8.801 4.802 3.5 0 6.399-1.603 8.799-4.802 2.4-3.101 3.701-6.898 3.701-11.301-.101-4.397-1.301-8.199-3.701-11.397m272.304-10.726c-.837-5.142-2.099-9.535-3.771-13.081 8.572 4.137 14.546 10.353 17.891 18.352 2.106 9.635 3.255 18.764 3.469 27.59.52 16.635-2.217 31.899-8.115 45.782-6.26 13.318-15.19 22.188-26.605 26.49 8.599.514 15.67-3.035 21.391-10.868 1.221-.83 2.415-.954 3.582-.372 3.89 2.612 7.345 5.874 10.375 9.88.145-1.523-.031-3.213-.548-5.271-1.688-4.65-4.278-8.303-7.981-11.035l5.86-10.361c2.303-1.043 4.702-1.192 7.212-.246 3.656 1.33 7.549 3.941 11.684 7.935.312-1.842.084-4.03-.682-6.564-4.64-5.953-9.559-8.76-14.848-8.412 5.891-15.892 9.203-31.419 9.744-46.556 9.904-1.43 17.284-4.911 21.939-10.421-8.963 3.746-16.629 2.531-23.209-3.725-1.916-6.839-1.924-11.762-.125-14.766 16.917-7.485 27.366-14.301 31.243-20.535-8.617 5.116-20.097 5.907-34.549 2.279-16.367-7.548-34.08-7.72-53.157-.711-23.535 12.498-37.765 31.368-42.87 56.731-1.183 6.052-1.504 10.713-1.04 14.184l1.982 19.095c1.45 5.279 3.122 9.729 5.104 13.347 3.388 6.485 7.425 10.486 12.227 12.2 22.746 7.995 39.726 1.103 50.748-20.55 5.729-16.482 8.055-32.81 6.802-48.765-.445-7.193-1.697-14.402-3.753-21.626m-66.749 31.061a63.27 63.27 0 0 1 3.225-10.59c5.31-13.724 13.352-24.41 24.217-32.073 8.504-6.211 18.051-7.203 28.646-2.975 3.995 11.348 6.344 22.365 7.053 33.051l.072.695c.225 4.1.339 8.109.046 12.06-.265 6.162-1.137 12.285-2.638 18.171-4.237 21.15-13.614 33.483-28.338 36.924-10.165.854-18.591-3.8-25.366-13.854-7.538-13.499-9.879-27.331-6.917-41.409m41.35-3.593a14.539 14.539 0 0 0-1.626-4.051c-1.625-3.048-3.779-4.436-6.364-4.167-2.584.268-4.908 2.121-6.864 5.542-1.957 3.417-3.046 7.454-3.177 11.992-.231 4.548.558 8.287 2.283 11.325 1.724 3.039 3.777 4.434 6.363 4.165 2.587-.269 4.808-2.107 6.765-5.528 1.958-3.421 3.058-7.355 3.289-11.903.062-2.318-.067-4.517-.572-6.476a1.432 1.432 0 0 0-.097-.899z"/></svg>