<svg xmlns="http://www.w3.org/2000/svg" id="eyes" viewBox="0 0 3000 3000"><path fill="#FFF" d="M1515.3 997.7c-2.699-1.2-5.897-1.5-9.397-1-1.603.2-3 .603-4.4 1-1.899.7-3.7 1.8-5.2 3-2.5 2.2-3.6 4.5-3.3 7s1.8 4.5 4.8 5.9c2.9 1.4 6.303 1.9 10.103 1.3 3.8-.6 7-2 9.5-4.2 2.5-2.1 3.698-4.5 3.397-7-.3-2.5-1.897-4.5-4.8-5.897-.203.097-.403-.001-.703-.103m-70.9 39.7c-6-8.7-9.9-19-11.5-30.7-8.9 1.9-18 4.103-27.303 6.603l3.303 8.697c18.8 39.303 45.6 60.4 80.197 63.2 7 .7 10.803 1.603 11.4 2.8 37.3 1.803 64.2-6.697 80.8-25.397-.197-12.103-2-25.7-5.397-40.9-3.103-6.8-6.2-12.8-9.2-17.897-11.8-2.802-24.2-4.7-37.3-5.5-.5 5.698-1.2 10.5-2.2 14.5-3.1 17.6-10.1 30.8-21 39.397-8.2 6-19.6 7.802-34.3 5.5-9.9-1.401-19.1-8.103-27.5-20.303m277 18.8c-1.2 4.4-2.2 8.7-3 13.103 8.6 8 20.5 13.697 35.8 17.3.6.1 1.2.1 1.8.1 15.9.603 32.8-13.3 50.9-41.8 2.2-4.9 3.7-10.5 4.7-16.6 1.5-12.4 1.8-21.803.897-28.303-8.5-.697-16.6-1.1-24.1-1-.103 14.603-2.9 26.803-8.5 36.803-19.697 32.597-39.197 39.499-58.497 20.397m59.5-45.898c-2.303-1.7-5.2-2.5-8.4-2.5s-6.1.8-8.4 2.5c-2.397 1.697-3.6 3.8-3.6 6.197 0 2.4 1.2 4.4 3.6 6.103 2.303 1.7 5.2 2.6 8.4 2.6 2.6 0 4.9-.5 6.9-1.6 1.397-3.5 2.5-7.3 3.397-11.601-.497-.601-1.097-1.199-1.897-1.699z"/><path id="cl1" fill="#483A31" d="M1515.3 997.7c.2.103.5.2.7.3 2.9 1.4 4.5 3.4 4.8 5.9.301 2.5-.897 4.9-3.397 7-2.5 2.2-5.7 3.6-9.5 4.2-3.802.5-7.2.1-10.103-1.3-2.897-1.4-4.5-3.4-4.8-5.9s.8-4.8 3.3-7c1.5-1.3 3.83-2.679 5.83-3.379-4 .2-9.242.991-13.441 1.291 1.5 2.5 2.611 5.188 2.411 8.588-.3 3.8-1.6 7-3.897 9.6-2.302 2.7-4.888 3.438-7.888 3.438s-5.162-1.3-7.063-4c-1.9-2.6-2.737-5.075-2.438-8.875.199-2.6 1.149-5.588 2.25-7.688-10.399 1.302-22.338 2.737-33.438 4.938 4.2 20.7 14.075 35.888 28.775 43.788 20.3 7 36.175 2.212 46.475-15.288 5.2-10.9 8.337-23.491 9.438-35.791-2.302-.301-5.414.178-8.014.178m257.2 10.102c3.3 0 6.1.8 8.4 2.5.697.5 1.3 1.1 1.897 1.697.802-4 1.302-8.3 1.603-13-11.7.4-22.409 1.875-31.609 4.375 1.9 5.699 2.009 11.525-.391 17.728-3.2 6.7-7.303 8.8-12.2 6.3-3.2-2.1-4.2-5.5-3.2-10.398-6.1 11.601-11.375 23.407-14.875 34.707 4.9 8.601 13.218 12.186 23.417 10.386 11.9-1.603 22.857-13.395 32.458-34.593.601-1.2 1.274-2.727 1.875-4.125-2 1.101-4.774 1.726-7.375 1.726-3.3 0-6.1-.9-8.399-2.603-2.398-1.697-3.601-3.697-3.601-6.1s1.2-4.5 3.601-6.2c2.299-1.602 5.099-2.4 8.399-2.4zm-335.1-16c.397 4.8 1 9.3 1.8 13.6 11.1-2.2 21.8-3.898 32.2-5.2.5-.897 1.712-1.877 2.411-2.775 2.302-2.602 4.563-3.36 7.563-3.36s4.85.938 6.75 3.638c.2.303.363.813.563 1.112 4.102-.3 8.813-.912 12.912-1.112 1.399-.5 2.802-.8 4.399-1 3.5-.5 6.7-.198 9.4 1 2.5 0 5 .103 7.5.2.3-3.898.5-7.898.397-11.898-31.495.093-60.095 1.993-85.895 5.795m320 2.698c-3.2 1.9-5.103 3.603-5.7 5.103.6 1.2.688 2.766 1.091 4.065 9.1-2.5 20.409-4.309 32.109-4.709.198-2.8-.103-5.656 0-8.758-11.9-.201-21.1 1.199-27.5 4.299z"/><path fill="#ADABCC" d="M1553.1 986.1c-4.1-1.601-32.265-1.332-65.6.899-39.055 2.614-81.785 8.451-88.367 8.667 2.2 5 4.702 10.979 6.464 16.167 6.762.465 45.64-5.242 83.938-7.799 35.892-2.396 71.355-1.688 77.063-.334-4.698-7.8-9.198-13.7-13.498-17.6m194.818 14.869c7.5-.103 42.666-5.219 64.582-1.166-.5-3.7-1.3-6.4-2.5-8.303-12.916-5.083-58.183-.031-62.383.469.2 3.197.301 6.197.301 9z" opacity=".59"/><path d="M1408.8 1022c.103 4.803 1 8.303 2.603 10.603-6.2.897-10.4 4.1-12.603 9.397 5.7-2.197 10.801-3 15.4-2.6l5.8 9.6c-10.3 3.9-16.6 9.7-18.8 17.4 6.6-6.4 14.9-9.6 25-9.4l5.2 5.603c-6.803 3.8-10 8.397-9.603 13.6 4.603-4.397 9.9-6.698 15.802-6.8 16.301 14.1 35 20.3 56 18.6h6.801c-.603-1.197-4.4-2.1-11.4-2.8-34.6-2.803-61.4-23.901-80.2-63.203m129-75.198c1.301-.103.801-.4-1.397-.803-4.603-1-11.5-.897-20.603.303-67.699 14.3-107.897 27-120.6 38l-22 3.8 13 9.6 45.8-5.397c0 5.1.3 9.897.9 14.5 1.7 11.8 5.5 22 11.5 30.699 8.397 12.198 17.5 18.898 27.397 20.198 14.7 2.302 26.103.5 34.303-5.5 10.897-8.6 17.897-21.8 21-39.397.897-3.9 1.6-8.7 2.197-14.5.4-3.9.7-8.303.803-13 12.3-.4 19.897-.103 23 .897 4.3 3.9 8.8 9.8 13.5 17.7 3 5.1 6.1 11.1 9.197 17.9.5 1.1 1 2.197 1.603 3.397.1-5.7-.8-10.1-2.603-13.3 7.5.5 12.2-2.4 14.2-8.7-6.2 5.5-12.3 4.5-18.1-2.8l-5.7-9.9c18.4-1.197 32.4-8.3 41.8-21.397-14.199 9.2-27.1 13.2-38.699 11.897l-4.198-5.897c5-5.9 7.3-12.2 6.897-19-3.6 5.897-7.897 10-12.8 12.397-7.2-8.697-17-15.397-29.5-20.197l9.103-1.5M1505 952c6.9-1.3 12.2-2 15.9-2 11.1 1.603 22 8 32.897 19.4v1.6c-54.897-.897-106.5 3.4-154.8 12.9C1427.9 971.4 1463.3 960.802 1505 952m-65.7 53.4c-.8-4.3-1.397-8.8-1.8-13.6 25.8-3.8 54.4-5.7 85.8-5.8.103 4-.1 8-.397 11.897-1.103 12.3-4.2 23.8-9.4 34.7-10.3 17.5-25.5 22.8-45.8 15.8-14.803-7.897-24.303-22.297-28.403-42.997m50-6.9c-.199-.3-.397-.6-.6-.897-1.9-2.603-4.4-4-7.4-4s-5.699 1.3-8 4c-.699.8-1.397 1.7-1.897 2.7a17.7 17.7 0 0 0-2 7c-.302 3.8.6 7 2.5 9.6 1.897 2.7 4.397 4 7.397 4s5.7-1.3 8-4c2.301-2.6 3.603-5.8 3.9-9.6.2-3.403-.4-6.403-1.9-8.803m266.7 88.1l-2.3 2c5.397 2 12 1.5 19.897-1.7 16.302-9.1 27.4-23.2 33.302-42.1-18.099 28.502-34.999 42.4-50.899 41.8m61.5-131.798c-2.2-1.803-6-2.5-11.5-2-16.9 3.3-32.8 10.897-47.8 22.8-11.5 11.5-21.7 26.6-30.4 45.397-10.6 28.603-14.2 47.2-10.6 55.803.3-2.5.699-5 1.199-7.603.801-4.3 1.801-8.698 3-13.1 19.301 19.1 38.801 12.2 58.5-20.601 5.601-9.899 8.398-22.199 8.5-36.802 0-2.897-.102-5.897-.302-8.897 4.2-.5 11.5.1 21.9 1.699 1.2 1.801 2 4.601 2.5 8.301.897 6.5.6 16-.9 28.3 6.302-7.7 9.103-16.4 8.302-26.101 4.301-1 9.101-.802 14.398.601-1.898-5-6.6-7.4-14.3-7.101v-7.199c4.2-.301 13.5-7.801 27.897-22.5.4-2.4.4-4.7 0-6.9-8.397 9.8-16.5 14.602-24.5 14.7-4.397-6.9-12-12-23-15.3 1.706-1.099 7.406-2.299 17.106-3.497m2.8 20.898c-4.1 1.2-9.397 1.603-16 1.3h-28.199c-8.801 1.103-15.301 2.803-19.5 5.103 11.5-10.8 24.399-18.103 38.602-22 8.697 1.297 16.997 6.497 25.097 15.597m-68.6 23.9c.6-1.5 2.5-3.2 5.699-5.103 6.398-3.1 15.601-4.5 27.398-4.3 0 3-.1 6-.398 8.8-.302 4.7-.899 9-1.602 13-.8 4.303-2 8.103-3.398 11.603-.5 1.3-1.102 2.6-1.802 3.899-9.6 21.198-20.397 32.601-32.3 34.198-10.2 1.802-17.7-1.6-22.6-10.198 3.5-11.302 8.197-22.699 14.3-34.399-1 4.8 0 8.3 3.2 10.399 4.897 2.5 9 .398 12.197-6.302 2.4-6.198 2.603-12.198.7-17.8-.294-1.397-.794-2.595-1.394-3.797z"/></svg>