<svg xmlns="http://www.w3.org/2000/svg" id="eyes" viewBox="0 0 3000 3000"><path fill="#FFF" d="M1488.3 1012.302c3.4.5 6.2.198 8.5-1 2.4-1.2 3.602-2.802 3.602-5 0-2.2-1.2-4.102-3.602-5.9-2.3-1.8-5.199-3-8.5-3.5-3.3-.5-6.199-.1-8.6 1-2.4 1.2-3.6 2.8-3.6 5 0 2.101 1.198 4.101 3.6 5.9 2.4 1.898 5.3 3 8.6 3.5m20.1-11.902c-.602-.3-1.2-.7-1.802-1 .9 9.4.5 19.4-1.1 30.1-4.5 21-14.6 35.602-30.4 43.9 37.102 8.1 67.4 8.1 90.9.3-3.798-25.398-22.998-49.8-57.598-73.3m271.8 51.8c-1.9 9.3-3.9 16-5.801 20.2 2.199 1.5 9-2.5 20.199-12.2 14.602-15.5 21.4-38.5 20.4-69-.602-1.5-1.7-2.898-3.3-4.2-11.9 1.4-23.302 5.4-34.2 12.102 3.502 12.598 4.402 30.298 2.702 53.098m-25.8-22.5c.398 2.3.698 4.7.8 7.2.3.1.7.2 1.2.3 1.898.4 3.898.102 6.198-.8 2.302-.9 4-2.3 5.302-3.9 1.3-1.698 1.8-3.198 1.398-4.698-.398-1.5-1.5-2.4-3.398-2.802-1.802-.3-3.9 0-6.2.9-2.2.8-4 2.1-5.3 3.8z"/><path id="cl1" fill="#61D573" d="M1413.7 988.2c-.5.4-1.102.8-1.7 1.3 4.3 28.302 13.3 50.4 27 66.2l8 7.4c10.4 5.1 18 8.1 22.8 9 17.801-9.9 28.2-24.601 31.2-44.2 2.1-11.4 2.5-21.7 1.1-30.9-31.5-16.698-61-19.6-88.4-8.8m10.5 23.602c.1-8.602 3.199-15.7 9.398-21.102 6.2-5.398 12.602-8.2 19.4-8.2s12.2 2.802 16.2 8.5c4 5.7 5.698 13.302 5.3 22.802-.4 9.5-3.3 16.8-8.6 22.1-5.302 5.3-11.302 7.7-18.2 7.3-6.8-.398-12.5-3.6-17-9.5-4.498-5.9-6.598-13.202-6.498-21.9m72.6-.5c-2.3 1.198-5.199 1.5-8.5 1-3.3-.5-6.199-1.602-8.6-3.5-2.4-1.802-3.6-3.802-3.6-5.9s1.198-3.8 3.6-5c2.4-1.2 5.2-1.5 8.6-1 3.4.5 6.2 1.7 8.5 3.5 2.4 1.8 3.602 3.8 3.602 5.9-.002 2.098-1.202 3.798-3.602 5m257.5 18.398c.1 0 .1 0 0 0 1.4-1.7 3.2-3 5.4-3.898 2.3-.9 4.3-1.2 6.2-.9 1.898.4 3 1.3 3.398 2.8.4 1.5-.1 3-1.398 4.7-1.302 1.7-3.102 3-5.302 3.9-2.198.898-4.3 1.198-6.198.8-.4-.102-.802-.2-1.2-.3.1 1 .2 2 .2 3 .6 11.698-4.9 20.898-16.302 27.698-5.5 2.9-11.5 2.7-18.1-.398-1.5 2.8-2.6 6.398-3.4 10.8 17.302.8 33.9.2 49.9-2 3.7-7.6 6.4-18 8-31.3 1.6-16.5.9-30.8-1.9-42.9-7.5 5.102-14.698 11.5-21.698 19.2 1.1 2.698 1.9 5.598 2.4 8.798z"/><path fill="#A9AACE" d="M1566.1 1073.7c2.2-.7 4.4-1.6 6.5-2.5-4.1-26.398-13.3-48-27.398-64.8-11.802-15-26.4-25.1-43.802-30.2 2.802 7.2 4.5 14.9 5.302 23.2.6.3 1.198.7 1.8 1 34.498 23.5 53.698 47.902 57.598 73.3m245.6-86.7c-3.301-2.5-8.602-4.5-16.102-5.8-7.5.2-15.1 2.5-22.6 6.8 1.8 3.102 3.3 6.802 4.5 11.2 10.902-6.7 22.302-10.8 34.202-12.2z"/><path id="sd1" fill="#408E5D" d="M1413.7 988.2c27.398-10.8 56.898-7.8 88.398 8.8-1.3-8.398-4-15.898-8.3-22.5-33.298-5.6-59.998-1-80.098 13.7m360 13.5c-.9-3.7-1.9-7.2-3.2-10.6-2.4-.8-10.1 6-23.1 20.6 1.898 2.7 3.398 5.8 4.6 9.102 7-7.602 14.2-14 21.7-19.102z"/><path d="M1433.6 990.802c-6.198 5.398-9.3 12.5-9.398 21.1-.102 8.601 2.1 15.9 6.398 21.8 4.5 5.9 10.102 9.102 17 9.5 6.9.4 12.9-2 18.2-7.3s8.2-12.6 8.6-22.1c.5-9.5-1.3-17.102-5.3-22.802-4-5.698-9.398-8.5-16.2-8.5-6.7.1-13.2 2.802-19.3 8.302m35.6-28.202c35.8-3.5 66 2.5 90.398 18.2-7.5-8.7-19.8-15.302-37-19.802-31.3-5.1-58.5-3.6-81.398 4.4-6.7.1-12.301-3.9-17-12.2-.102 5.602 1.8 10.602 5.6 15-10.3 3.3-19.5.3-27.8-9.2-.7 3.602 1.899 8.602 7.8 15-12.8 4.5-23.2-.8-31.4-16 1.5 17 9.2 27.9 23.2 32.602.8 9.898 3.7 19.5 8.8 29-7.1-1.2-11.3.398-12.8 4.8 3.7-1.1 8.5-.9 14.602.6 1.1 4 3.398 8.2 7 12.602-6.602.1-10.2 1.7-10.802 4.8 6.102-1.1 10.9-1.1 14.4 0 3.8 4.8 9.2 9.2 16.2 13.2-13.7-15.8-22.7-37.9-27-66.2.6-.4 1.1-.8 1.7-1.3 20.198-14.7 46.898-19.2 80.198-13.8 4.302 6.6 7 14.1 8.302 22.5 1.398 9.198 1 19.5-1.102 30.898-3 19.602-13.398 34.3-31.2 44.2-4.8-.9-12.398-3.9-22.8-9 14.5 14.2 43.102 20.8 85.8 19.8 15.802.4 28.4-1.6 37.802-5.8.1 0 .198-.1.3-.2 1.2-.5 2.399-1.1 3.5-1.8.7-.4 1.3-.8 1.899-1.2v-2.6c.199-25.4-11.899-52-36.399-79.8-19.8-17.998-43.3-27.7-70.8-28.7m103.4 108.6c-2.1.9-4.3 1.7-6.5 2.5-23.5 7.9-53.8 7.8-90.898-.3 15.698-8.3 25.8-22.9 30.398-43.9 1.7-10.698 2-20.698 1.102-30.1-.802-8.3-2.5-16-5.302-23.2 17.4 5.102 32 15.2 43.802 30.2 14.098 16.8 23.298 38.402 27.398 64.8M1822 960c-4 3.102-8.4 6.602-13.2 10.802-3.398-.302-6.6-.2-9.5.398 1.801-4.2 2.801-8.1 3.102-11.8-4.102 5.3-9 10-14.7 14.3-6.5 1.2-13.9 5.102-22.3 11.7-14.102 11.9-26.2 26.8-36.4 44.7 5.7-27.3 15.5-46.4 29.4-57.5 9-6.9 19-11.3 30.198-13.3-3.3-1.302-6-1.802-8.198-1.7-21.802 5.898-37.5 20.3-47 43.398-9.7 24.001-16.102 50.602-19 79.802 26.698 3.698 45.6 3.398 56.6-1 7.4-2.602 13.6-5.9 18.6-9.7 15.102-14.2 24.302-28.101 27.5-41.8 3.2-13.7 5.2-26.5 6.102-38.301 7.398-8.101 12.1-17 14.199-26.699-4.5 3.1-9.601 7-15.301 11.8-2.1.3-4-.3-5.699-1.601C1819.2 969.5 1821.1 965 1822 960m-26.4 21.2c7.4 1.4 12.802 3.3 16.102 5.8 1.6 1.2 2.698 2.602 3.3 4.2 1 30.5-5.8 53.5-20.4 69-11.198 9.7-18 13.7-20.198 12.2 1.898-4.2 3.898-10.9 5.8-20.2 1.7-22.8.8-40.5-2.7-53-1.2-4.3-2.7-8-4.5-11.2 7.496-4.3 15.096-6.6 22.596-6.8m-25.1 9.9c1.3 3.3 2.3 6.8 3.2 10.6 2.8 12.102 3.5 26.4 1.898 42.9-1.6 13.3-4.3 23.7-8 31.3-16 2.2-32.6 2.8-49.898 2 .8-4.4 1.898-8 3.398-10.8 6.602 3.1 12.602 3.3 18.102.399 11.398-6.801 16.8-16 16.3-27.699 0-1-.1-2-.2-3-.199-2.5-.5-4.801-.898-7.102a66.26 66.26 0 0 0-2.302-8.8c-1.198-3.398-2.698-6.398-4.6-9.1 12.9-14.698 20.6-21.496 23-20.698z"/></svg>