<svg xmlns="http://www.w3.org/2000/svg" id="eyes" viewBox="0 0 3000 3000"><path d="M1562.4 1036.85c1.5-.8 1.5-1.8.101-2.9-20.7.9-33.9 4.7-39.7 11.5 9.199-4.8 22.398-7.698 39.599-8.6m-162.4-42.8c18.699 21.8 37.3 34.399 55.8 38h34.399c24.2-2.8 53.4-2.3 87.801 1.399.399-.199.699-.399.899-.699.601-.603.8-1.5.601-2.5-9.7-16.4-32.601-27.801-68.601-34.3-24-2.7-51.8-4.603-83.5-5.9-25.5-2.1-44.399-8.1-56.8-18 7.901 10.6 17.701 17.9 29.401 22m335.8 47.8c-3.101.601-4.699 1.7-5 3.301 14.2-3.398 31.2-2.601 51 2.399-15.7-7.298-31-9.2-46-5.7m-18.601-2.5v4.9h7c11.699-10.4 36.601-14.7 74.898-12.9 12.302-4.5 19.9-13.3 22.699-26.6 9.4-3.301 16.5-8.602 21.301-15.9 1-1.6.5-1.8-1.5-.699-15.898 8.5-29.801 12.3-41.698 11.199h-14.6c-17.601-.6-32 3.101-43.199 11-11.101 8-18.399 15.2-21.801 21.801-1.499 2.899-2.499 5.299-3.1 7.199z"/><path fill="#FFF" d="M1481 1029.05c-5.7-3.101-8.601-9.2-8.601-18-23.899-1.2-41.603-2.601-52.802-4 17.102 18.202 37.602 25.6 61.403 22m5.199-17.4c-1.102-.1-2.301-.1-3.4-.1 0 1.1.801 2.1 2.301 2.899 1.602.801 3.5 1.198 5.802 1.198 2.198 0 4.101-.397 5.698-1.198 1.302-.699 2.102-1.5 2.302-2.399-4.103-.2-8.302-.298-12.703-.4m59.901 7.602c0 3.397-.898 6.197-2.6 8.197 11.699.2 20.899 1.103 27.8 2.7-7-4.397-15.4-7.999-25.2-10.897m258.599-6c0 4.397-.602 8.8-2.102 13.3 4.302-1.6 8.5-5.8 12.602-12.6l-10.5-.7m-33.899 1.5c0-.4-.101-.802-.3-1.2-3.301.3-6.5.7-9.601 1.2l-.103.1c-.5.7-.799 1.4-.799 2.102 0 1 .5 1.801 1.6 2.301 1 .5 2.302.6 3.802.3s2.8-.899 3.8-1.8c1-.801 1.5-1.7 1.6-2.603l.001-.4m-48.101 20.398a27.078 27.078 0 0 0-2.301 4.4c-.102 1.8 1.898 1.3 6.102-1.601 9.398-5 19.398-7.802 30-8.399 1.898 0 1.898-.7 0-2.2-2.201-3-3.102-6.8-2.801-11.3-2.5.6-5.199 1.6-8.199 3-5.9 3.1-13.6 8.5-22.801 16.1z"/><path fill="#B0B6D1" d="M1482.8 1011.55c1.102 0 2.301.1 3.399.1 4.4.103 8.601.2 12.801.4 0-.2.101-.3.101-.5 0-1.101-.801-2.101-2.399-2.9-1.599-.799-3.5-1.2-5.699-1.2-2.2 0-4.2.4-5.801 1.2-1.602.799-2.402 1.7-2.402 2.9m88.5 18.6c1.301.3 2.602.7 3.7 1.103 1.6.197 2-.303 1.3-1.7-6.601-7.103-16.898-12.9-31.101-17.5.601 2.7.9 5.1.9 7.2 9.801 2.897 18.201 6.499 25.201 10.897m-160.3-33.5c2.8 3.8 5.6 7.3 8.6 10.4 11.302 1.399 28.9 2.7 52.802 4 0-2.3.198-4.8.601-7.601-22.204.101-42.804-2.099-62.003-6.799m405.699 9.102c-3.699 2.198-7.9 3-12.4 2.397.201 1.7.301 3.4.301 5.103l10.5.698c1-1.698 2-3.601 3-5.601.9-2.198.4-3.097-1.401-2.597m-46.299 7.798c-.2-.4-.7-.8-1.302-1.101-1-.5-2.301-.602-3.801-.302s-2.8.9-3.8 1.802l-.8.801c3.203-.498 6.403-.9 9.703-1.2m-15.701-2.798c.898-2.302.301-3-1.699-2.2-10.5 5.4-19.5 12.7-26.9 21.9a48.677 48.677 0 0 0-3.398 4.698c9.301-7.601 16.898-13 22.898-16.101 3-1.399 5.699-2.399 8.199-3v-.1c.101-1.697.4-3.399.9-5.197z"/><path id="cl1" fill="#3C58CF" d="M1482.8 1011.55c-1.101-.101-2.3-.2-3.398-.2-1 7.3 1.898 13.1 8.601 17.3 12.8-1.6 29.6-1.8 50.5-.8 1.699-3 2.6-6.3 2.8-9.9-5.397-1.397-11.198-2.5-17.397-3.397-.303 5.8-1.803 9.397-4.5 10.8-3.4 1.7-7.201 1.7-11.603.102-5-2.102-7.397-6.5-7.101-13.199-.601 0-1.199-.103-1.8-.103-.2.9-1 1.7-2.302 2.4-1.6.8-3.5 1.2-5.698 1.2-2.2 0-4.2-.4-5.802-1.2-1.5-.903-2.3-1.903-2.3-3.003m317.399 1.5v-.3l-10.602.1c.102.9.199 1.8.199 2.8 0 3.7-.898 6.9-2.799 9.5-.5.7-1 1.301-1.5 1.801 3.897.102 8 .399 12.299.699 1.804-3.8 2.704-8.7 2.403-14.6m-29.4 2c-.1.899-.698 1.8-1.698 2.6-1 .9-2.302 1.603-3.802 1.801-1.5.199-2.799.199-3.799-.301-1.101-.5-1.601-1.3-1.601-2.3 0-.7.198-1.4.8-2.1l-1.8.397c-.302 4.302 1.101 8.603 4.3 12.802 3.6-.5 7.6-.802 11.801-1-.301-.302-.601-.699-.899-1.102-.101-.1-.199-.3-.302-.5 0-.1-.1-.1-.198-.2-.699-1.5-1.399-2.897-2.101-4.3-.5-1.6-.7-3.3-.7-5.2l-.001-.597z"/><path id="sd1" fill="#293EA5" d="M1482.8 1011.55c0-1.101.801-2.101 2.301-2.9 1.601-.8 3.5-1.2 5.801-1.2 2.199 0 4.101.4 5.699 1.2 1.601.8 2.399 1.8 2.399 2.9 0 .2 0 .3-.101.5.601 0 1.2.1 1.8.1.101-2 .5-4.2 1.101-6.7-5.198-.6-12-.897-20.601-.8-.899 2.4-1.5 4.603-1.8 6.7 1.101 0 2.3.099 3.401.2m58.5 6.399c.103-2.197 0-4.397-.5-6.8-2.199-1.397-7.897-2.6-17-3.6.2 2.6.2 4.898.103 7 6.197.9 11.998 2.001 17.397 3.4m258.399-9.599c-4.199-.7-8.301-1.2-12.399-1.6 1.2 1.8 1.899 3.8 2.2 6 0 0 0 .1.1.1l10.602-.1c-.102-1.4-.302-2.9-.503-4.4m-28.199 2.3c.4-1.5 1.1-3 2-4.3v-.1c-4.1.1-8.1.397-12.1 1-1.5 2.6-2.303 5.197-2.603 7.8v.2l1.802-.4.1-.1.801-.803c1-.897 2.3-1.5 3.8-1.8s2.802-.2 3.802.3c.6.303 1 .7 1.301 1.103.199.397.3.8.3 1.2v.3h.101c0-.5.102-1 .102-1.5.094-1 .293-2 .594-2.9z"/></svg>