<svg xmlns="http://www.w3.org/2000/svg" id="eyes" viewBox="0 0 3000 3000"><path fill="#FFF" d="M1487.8 1055.7c2.102 1.2 4.602 2 7.602 2.2 2.898.2 5.398-.1 7.6-1 .7-.3 1.2-.6 1.7-1-6.5-2.1-13-4.1-19.4-6 .4 1.7.9 3.4 1.5 5.1.198.2.598.5.998.7m-103.1-25.898c8.699 15.698 19.6 28.398 32.898 38.3 12.302 6.1 38.2 10.5 77.602 13-9.4-11.3-14.9-22.3-16.5-33.1-31.8-8.802-63.2-14.902-94-18.2m438.9 4.798c-1.3 1.1-3.398 2.399-6.3 4.2-.4 3.6-.9 7.698-1.7 12.3 3.2-6 5.9-11.5 8-16.5m-46.7 26c-.2-.3-.4-.601-.7-.9-3.9 1.5-8 3.102-12.4 4.7-.199.7-.199 1.4.102 1.9.5 1 1.5 1.6 3.1 1.8 1.6.1 3.2-.2 5-.9 1.8-.8 3.2-1.8 4.2-3.1.898-1.298 1.198-2.5.698-3.5m-56.5 19.5c.198.399.398.8.6 1.1 9.1 7.2 20.9 9.8 35.5 7.8 5.1-.698 10.5-2 16.3-3.8-5.898-3-11.398-9-16.699-18-10.699 3.8-22.801 7.7-36.199 11.8.198.4.298.802.498 1.1z"/><path fill="#CDCDEC" d="M1495.3 1047.1c-3-.2-5.5.1-7.6 1-1.2.5-2.1 1.1-2.6 1.8a853.97 853.97 0 0 1 19.398 6c1-.7 1.5-1.6 1.5-2.6 0-1.5-1.1-2.9-3.2-4.102-1.998-1.198-4.498-1.896-7.498-2.098m-116.3-28.7c1.8 4 3.7 7.8 5.7 11.4 30.8 3.199 62.199 9.3 94 18.3-.5-3.3-.602-6.5-.301-9.7l-99.399-20m444.6 16.2c2-4.9 3.5-9.3 4.4-13.4-3.1 2.9-6.5 5.9-10.2 9.102 0 2.398-.199 5.198-.5 8.398 2.9-1.7 5-3 6.3-4.1m-54.8 25.202c-1.8.8-3.1 1.8-4.1 3.1-.4.5-.7 1-.8 1.5 4.398-1.6 8.5-3.2 12.398-4.7-.6-.5-1.398-.698-2.398-.8-1.6-.202-3.3.098-5.1.9M1718 1071.4c.5 3.2 1.2 5.7 1.9 7.6 13.398-4.1 25.5-8 36.198-11.8-.8-1.3-1.5-2.7-2.3-4.2l-35.798 8.4z"/><path fill="#F5ACE9" d="M1381.9 1003l-.302.2c2.7 2.3 5.7 4.602 8.9 6.8-1.8-3.1-2.5-6.398-2-9.8-2.198.9-4.398 1.9-6.598 2.8m8.3-3.3c0 .102.1.102.1.2 3.5 6.7 9.6 12.2 18.2 16.4 29.6 5.1 56.8 11.199 81.399 18.199 33 8.399 59 16.399 77.801 24-1.2-5.801-2.5-11.399-3.801-17-4.101-16.5-9.101-31.801-14.899-45.699-8.3-6.102-14-9.801-17.3-11-58.3-3.8-105.4 1.1-141.5 14.9m324.966 66.133l.156 2.968c49.7-17 84.678-34.901 109.478-55.201-1.898-7.5-4.699-14.2-8.3-20-8.3-5.5-14.7-8.7-19.1-9.5-20.9 3.6-37.7 9.5-50.4 17.5-14.55 13.4-24.374 33.202-31.834 64.233z"/><path fill="#C58AD8" d="M1388.6 1000.302c.102-.9.302-1.802.602-2.7L1381.9 1003c2.2-.9 4.4-1.9 6.7-2.698m151.6-23.102l-.301-.6c-6.301-1.1-13.5-2.2-21.601-3.3-48-3-89.3 4.1-123.7 21.1l-5.398 3.2c.3.7.6 1.4 1 2.1 36.1-13.7 83.3-18.7 141.398-14.898 3.2 1.198 9 4.8 17.302 11-2.8-6.5-5.6-12.702-8.7-18.602m209.4 21c-.898 1-1.698 2.102-2.6 3.3 12.7-8 29.5-13.8 50.4-17.5 4.398.9 10.8 4.102 19.1 9.5-4.1-6.698-9.3-12.398-15.5-17-18.3-.3-35.5 6.9-51.4 21.7z"/><path id="cl1" fill="#3C58CF" d="M1546.4 1079.9c2.6-1.1 5.398-2.9 8.3-5.4-4-1.6-8-3.198-12-4.8-4.8 3.8-10.6 4.9-17.3 3.3-7.7-3.698-12.802-8.8-15.102-15.198-1.898-.602-3.8-1.302-5.698-1.9-.5.4-1 .7-1.7 1-2.102.9-4.602 1.2-7.602 1s-5.5-1-7.6-2.2c-.4-.198-.8-.5-1.1-.698 3.6 10.5 9.6 19.3 18.198 26.398 19.704.198 33.504-.302 41.604-1.502m230.9-20.598c-.398.198-.699.3-1.1.398.3.302.5.602.7.9.5 1 .198 2.2-.802 3.5s-2.398 2.3-4.198 3.1c-1.802.802-3.4 1.102-5 .9-1.602-.2-2.602-.8-3.102-1.8-.3-.602-.3-1.2-.1-1.9-.601.2-1.101.4-1.8.7 3.898 9.3 10.3 14.899 19.1 16.899 6.7-3 13.6-7.801 20.8-14.399 5.302-6.4 8.5-15 9.7-25.7-2.7 2.1-6.1 4.2-10.3 6.4-.102 7.1-2 12.8-5.802 17.1-6.596 5.6-12.696 3.6-18.096-6.098z"/><path id="sd1" fill="#3048BE" d="M1487.8 1048.1c2.102-.9 4.602-1.2 7.602-1 2.898.2 5.398.899 7.6 2.2 2.1 1.198 3.2 2.6 3.2 4.1 0 1-.5 1.9-1.5 2.6 1.898.602 3.8 1.302 5.698 1.9-1.198-3.3-1.698-6.9-1.5-10.8l-25.398-7c.398 3.398 1 6.7 1.8 9.898.398-.798 1.198-1.398 2.498-1.898m55 21.6c4 1.602 8 3.2 12 4.8 3.301-2.8 6.9-6.398 10.7-10.898l-14.4-4.8c-2.4 4.798-5.2 8.398-8.3 10.898m258.6-21.398c4.198-2.2 7.6-4.4 10.3-6.4.3-2.3.4-4.6.5-7.1L1801 1042c.3 2.2.4 4.4.4 6.302m-36.7 14.598c1-1.3 2.3-2.3 4.1-3.1 1.8-.801 3.5-1.102 5-1 1 .1 1.8.398 2.4.8.398-.1.699-.3 1.1-.4-.7-1.3-1.4-2.8-2.2-4.398l-14.6 6c.5 1.5 1 2.898 1.5 4.3.6-.2 1.2-.4 1.8-.7.2-.502.5-1.002.9-1.502z"/><path d="M1538.3 973c-15.6-3.5-35.8-4.898-60.8-4.3-41.9 2.9-74.7 13.7-98.4 32.2-5.8-5.3-10.198-10.8-13.3-16.5-.6 3.7 1.2 10 5.4 19-10.4-7.9-18.5-15.2-24.2-22-1.2 9.6 8.5 21.2 29 35 6.2 19.1 15.8 34.7 28.8 46.8 6.801 7.2 17.801 11.9 32.9 13.9 27.6 6.3 59 8.7 94.3 7.1 17.2.2 29.101-6.198 35.601-19.198h2.301v-9.5c-1-4.602-2.102-9.102-3.102-13.302-8.6-34.6-17.5-56.3-26.6-65 3.1 5.9 5.9 12.102 8.7 18.5 5.8 13.9 10.8 29.2 14.898 45.7 1.4 5.5 2.7 11.2 3.802 17-18.802-7.6-44.802-15.6-77.802-24-24.6-7-51.8-13.1-81.398-18.2-8.602-4.2-14.602-9.6-18.2-16.398 0-.102-.1-.102-.1-.2-.302-.7-.7-1.4-1-2.102-.302.9-.5 1.802-.602 2.7-.5 3.4.2 6.602 2 9.8a108.701 108.701 0 0 1-8.898-6.8c.1 0 .198-.1.3-.2l7.3-5.398 5.4-3.2c34.398-17 75.699-24.1 123.699-21.1 8.101 1.1 15.399 2.198 21.601 3.3 9.8 1.8 17.399 3.8 22.7 5.8-6.1-4.002-14.2-7.202-24.3-9.402m-153.6 56.802c-2-3.7-3.9-7.5-5.7-11.4l99.4 20c-.302 3.2-.2 6.4.3 9.7 1.6 10.8 7.1 21.8 16.5 33.1-39.4-2.5-65.3-6.898-77.6-13-13.3-9.9-24.2-22.702-32.9-38.4m170.1 44.698c-3 2.5-5.699 4.302-8.3 5.4-8.1 1.2-21.9 1.7-41.6 1.5-8.5-7.1-14.602-15.9-18.2-26.4-.5-1.6-1-3.3-1.5-5.1-.8-3.2-1.4-6.5-1.8-9.9l25.398 7c-.198 4 .302 7.602 1.5 10.802 2.302 6.398 7.4 11.398 15.102 15.198 6.698 1.602 12.5.5 17.3-3.3 3.2-2.5 5.9-6.1 8.3-10.898l14.4 4.8c-3.8 4.498-7.3 8.098-10.6 10.898m258.6-100.3c-1.2-.8-2.802-1.3-4.802-1.398-23.6-1.102-43.5 5.898-59.8 21-18.7 19-30.7 45.599-35.8 75.698.09.993 2.323-.698 2.323-.698s4.188-19.857 12.599-38.294c5.786-12.684 15.677-24.696 19.078-29.106.898-1.1 1.7-2.2 2.6-3.3 15.9-14.8 33.102-22 51.4-21.6 6.2 4.6 11.398 10.198 15.5 17 3.6 5.898 6.398 12.6 8.3 20-24.8 20.3-62.1 38.998-111.8 55.998l2.8 11.802c14.601 10.398 30.601 13.5 48 9.398 20-3.898 35.2-12.8 45.8-26.8l5.4-9.4.6-3.6c.802-4.6 1.302-8.7 1.7-12.3.3-3.2.5-6 .5-8.4 3.7-3.2 7.101-6.2 10.2-9.1 14.1-13.2 20.8-23 20.2-29.4-6 8-12.9 14.8-20.5 20.3-4.102-15.898-12.2-28.1-24.2-36.6 5.102-.2 8.402-.598 9.902-1.2m-92.4 107c-.2-.3-.4-.7-.6-1.1-.2-.3-.302-.7-.5-1.101-.7-1.899-1.4-4.399-1.9-7.601l35.8-8.399c.801 1.5 1.5 2.899 2.301 4.199 5.301 9 10.801 15 16.699 18-5.8 1.801-11.199 3.102-16.3 3.801-14.6 2.001-26.4-.599-35.5-7.799m54.2-26.398c.699 1.6 1.398 3.1 2.199 4.398 5.301 9.7 11.399 11.802 18.301 6.2 3.8-4.2 5.699-9.9 5.8-17.1 0-2-.1-4.102-.4-6.301l11.2-7.199c-.1 2.5-.2 4.8-.5 7.1-1.2 10.7-4.4 19.3-9.7 25.7-7.198 6.6-14.1 11.399-20.8 14.399-8.8-2-15.2-7.699-19.1-16.899-.5-1.3-1-2.8-1.5-4.3l14.5-5.998z"/></svg>