<svg xmlns="http://www.w3.org/2000/svg" id="eyes" viewBox="0 0 3000 3000"><path fill="#FFF" d="M1440.8 1014.1c-.199-7.601.801-14.7 3-21.3-8.1 1.399-16.3 3.199-24.6 5.6-.9 5.3-1.3 10.8-1.1 16.6.6 21.5 8.5 39.801 23.699 54.9 15.2 15.2 33.301 22.8 54.301 22.8 20.899 0 38.6-7.6 53-22.8 14-14.7 20.899-32.5 20.8-53.1-4.5-2.7-9.101-5.2-13.7-7.5.2 1.6.3 3.199.3 4.8.4 16.399-4.8 30.3-15.8 41.8-11 11.6-24.5 17.4-40.4 17.4-15.899 0-29.8-5.801-41.399-17.4-11.601-11.5-17.601-25.4-18.101-41.8m17-19.5c-1.399.2-2.699.6-3.899 1.2-1.5 4.1-2.4 8.399-2.7 13 1.8 1.199 4 1.6 6.6 1.3 2.5-.4 4.7-1.4 6.5-3 .5-2.9 1.301-5.7 2.4-8.3-.4-1.101-1.2-2-2.3-2.7-1.801-1.4-4.001-1.9-6.601-1.5m290.8 12.1c-1.399-1.399-3-2.1-5-2.1-1.6 0-2.899.4-4.199 1.3-.9 3-1.601 6.1-2.101 9.3a4.42 4.42 0 0 0 1.2 1.5c1.4 1.4 3.1 2.101 5.1 2.101.801 0 1.5-.101 2.101-.4.399-4.1 1.399-8.1 2.899-11.701m62.7-18.2c-3.5.2-6.899.4-10.3.7 4.1 9.4 5.8 20.2 5.1 32.4-1 15.399-5.6 28.6-13.8 39.5-8.1 10.9-17.5 16.3-28 16.3-10.6 0-19.3-5.399-26.1-16.3-6.801-10.9-9.7-24.1-8.7-39.5.4-5.9 1.3-11.5 2.7-16.8-6.2 2.7-12.101 5.7-17.601 9.1-.399 2.7-.6 5.4-.8 8.101-1.3 20.3 2.6 37.699 11.5 51.999 8.9 14.301 20.4 21.5 34.3 21.5 13.9 0 26.301-7.199 36.9-21.5 10.8-14.3 16.8-31.699 18.2-52 .601-12.199-.499-23.4-3.399-33.5z"/><path fill="#B6BBD4" d="M1496.9 954.9c16 0 29.8 5.8 41.5 17.3 10.5 10.4 16.399 22.7 17.8 37 4.6 2.3 9.2 4.8 13.7 7.5v-1.8c-.601-21.5-8.5-39.8-23.7-54.9-15.3-15.199-33.4-22.8-54.3-22.8s-38.601 7.601-53 22.8c-10.5 11.101-17.101 23.801-19.601 38.301 8.301-2.301 16.5-4.2 24.601-5.601 2.6-7.5 6.899-14.399 12.8-20.6 10.8-11.4 24.3-17.2 40.2-17.2m304 34.3c3.399-.3 6.8-.5 10.3-.7-1.9-6.6-4.7-12.8-8.2-18.5-8.899-14.399-20.3-21.5-34.3-21.5s-26.3 7.2-37.1 21.5c-9.2 12.4-15 27-17.2 43.801 5.5-3.301 11.3-6.4 17.6-9.101 2.3-8.399 5.9-16 10.9-22.8 8.2-10.9 17.6-16.4 28.2-16.4 10.6 0 19.3 5.5 26.1 16.4 1.5 2.5 2.7 4.8 3.7 7.3z"/><path id="cl1" fill="#584635" d="M1457.8 1010c-2.5.301-4.699-.1-6.6-1.3-.1 1.7-.1 3.5-.1 5.3.399 13.4 5.3 24.801 14.8 34.2 9.5 9.5 20.8 14.3 33.899 14.3 13.101 0 24.101-4.8 33.101-14.3 9-9.399 13.3-20.8 12.899-34.2-.1-3.5-.5-6.8-1.199-10-5.2-2.1-10.4-4-15.601-5.699 2.4 4.699 3.7 9.899 3.8 15.6.301 9.8-2.8 18.1-9.3 24.9-6.6 6.899-14.6 10.399-24.2 10.399-9.5 0-17.8-3.5-24.699-10.399-6.9-6.9-10.5-15.2-10.801-24.9-.1-2.4.101-4.7.4-7-1.699 1.699-3.899 2.699-6.399 3.099m-3.9-14.199c1.199-.601 2.5-1 3.899-1.2 2.601-.4 4.801.1 6.601 1.399 1.1.7 1.8 1.601 2.3 2.7 1.4-3 3.2-5.8 5.5-8.5-5.4.101-10.8.5-16.3 1-.7 1.5-1.4 3-2 4.601m291.7 24.699c0-.699.101-1.3.101-2-.7.2-1.4.4-2.101.4-2 0-3.699-.7-5.1-2.1-.5-.5-.9-1-1.2-1.5-.3 2-.5 4.1-.699 6.3-.801 12.5 1.5 23.2 7 32s12.6 13.3 21.199 13.3c8.5 0 16.101-4.399 22.7-13.3 6.7-8.8 10.4-19.4 11.2-32 .699-12.3-1.5-22.8-6.801-31.5-5.1.6-10 1.3-14.8 2 2.3 1.5 4.3 3.7 6.101 6.6 3.699 6.101 5.3 13.4 4.8 21.9-.5 8.6-3.101 15.9-7.7 21.9-4.5 6-9.7 9.1-15.5 9.1-5.9 0-10.7-3-14.5-9.1-3.7-6.1-5.3-13.4-4.7-22m7.5-21.8c.4-.6.801-1.1 1.301-1.6-4.601 1.3-9 2.7-13.301 4.2-.6 1.5-1.1 3.1-1.699 4.7 1.199-.9 2.6-1.301 4.199-1.301 2 0 3.601.7 5 2.101 1.1-2.999 2.7-5.7 4.5-8.1z"/><path id="sd1" fill="#3E332C" d="M1473.3 989c6.6-6.9 14.6-10.4 24.1-10.4 9.6 0 17.8 3.5 24.699 10.399 2.9 2.9 5.2 6 6.9 9.301 5.2 1.699 10.4 3.6 15.6 5.699-2-9.199-6.5-17.3-13.5-24.3-9.5-9.5-20.8-14.2-33.899-14.2-13.101 0-24.101 4.7-33.101 14.2-3.399 3.601-6.1 7.4-8.199 11.5 5.5-.6 10.899-.899 16.3-1 .3-.398.7-.799 1.1-1.199m297.3-12.699c-8.6 0-16.199 4.399-22.899 13.3-2.7 3.6-4.9 7.5-6.601 11.7 4.301-1.5 8.7-2.9 13.301-4.2 4.199-5 9-7.5 14.3-7.5 3.1 0 5.9.8 8.4 2.5 4.8-.8 9.8-1.5 14.8-2-.101-.2-.2-.3-.3-.5-5.401-8.901-12.501-13.3-21.001-13.3z"/><path d="M1553.1 949c-17.3-17.5-37.8-26.199-61.5-26.199-23.699 0-43.8 8.699-60.199 26.199-16.301 17.4-24.2 38.5-23.5 63.2.699 24.7 9.6 45.8 26.899 63.2 17.301 17.4 37.801 26.2 61.5 26.2 23.801 0 43.801-8.7 60.2-26.2 16.3-17.5 24.2-38.5 23.5-63.2s-9.6-45.8-26.9-63.2m-61.3-11.699c20.9 0 39 7.6 54.301 22.8 15.199 15.1 23.1 33.399 23.699 54.899v1.801c.2 20.699-6.8 38.399-20.8 53.1-14.4 15.2-32.1 22.8-53 22.8-21 0-39.1-7.6-54.3-22.8s-23.101-33.5-23.7-54.9c-.2-5.8.2-11.3 1.1-16.6 2.5-14.5 9.101-27.2 19.601-38.3 14.599-15.201 32.199-22.8 53.099-22.8m46.6 35C1526.8 960.7 1513 955 1496.9 955c-16 0-29.4 5.801-40.301 17.301-5.899 6.199-10.1 13.1-12.8 20.6-2.2 6.6-3.3 13.7-3 21.3.5 16.4 6.5 30.3 18 41.8 11.6 11.601 25.4 17.4 41.4 17.4s29.399-5.8 40.399-17.4c10.9-11.5 16.2-25.5 15.801-41.8 0-1.6-.101-3.2-.301-4.8-1.298-14.401-7.198-26.801-17.698-37.1m-74.3 7.5c9-9.5 20-14.2 33.101-14.2 13.1 0 24.399 4.7 33.899 14.2 7 7 11.5 15.1 13.5 24.3.7 3.2 1.101 6.5 1.2 10 .4 13.399-3.9 24.8-12.9 34.2-9 9.5-20 14.3-33.1 14.3s-24.4-4.8-33.9-14.3c-9.5-9.4-14.399-20.801-14.8-34.2 0-1.8 0-3.601.101-5.3.3-4.601 1.199-8.9 2.699-13 .601-1.5 1.2-3 2-4.5 2.1-4.201 4.8-8 8.2-11.5m33.3-1.201c-9.5 0-17.5 3.5-24.101 10.399-.399.4-.8.801-1.199 1.301a33.381 33.381 0 0 0-5.5 8.5c-1.101 2.6-1.9 5.399-2.4 8.3-.3 2.2-.5 4.6-.4 7 .301 9.8 3.801 18.1 10.801 24.899 6.899 6.9 15.199 10.4 24.699 10.4s17.601-3.5 24.2-10.4c6.5-6.899 9.6-15.199 9.3-24.899-.199-5.7-1.399-10.9-3.8-15.601-1.7-3.399-4-6.5-6.9-9.3-6.9-7.199-15.1-10.599-24.7-10.599m272.1-46.2c-15.8 0-29.8 8.4-42.1 25.3-12.101 16.9-18.9 37.3-20.4 61.101-1.4 23.899 2.9 44.199 13 61.1 10.2 16.9 23.2 25.4 38.9 25.4 15.8 0 29.699-8.5 41.899-25.4s19.101-37.2 20.5-61.1c1.4-23.9-2.899-44.3-13.1-61.101-9.999-16.899-22.899-25.3-38.699-25.3m33.6 37.7c3.5 5.7 6.301 11.8 8.2 18.5 3 10.1 4.1 21.3 3.3 33.5-1.3 20.3-7.3 37.7-18.199 52-10.7 14.3-23 21.5-36.9 21.5s-25.4-7.2-34.3-21.5c-8.9-14.3-12.801-31.7-11.5-52 .199-2.8.399-5.5.8-8.101 2.2-16.8 8-31.399 17.2-43.8 10.8-14.399 23.199-21.5 37.1-21.5S1794.2 955.7 1803.1 970.1m-2.2 19.1a59.968 59.968 0 0 0-3.7-7.1c-6.8-10.9-15.5-16.4-26.1-16.4-10.601 0-20 5.5-28.2 16.4-5 6.7-8.7 14.3-10.9 22.8-1.399 5.2-2.3 10.8-2.7 16.8-1 15.4 1.9 28.601 8.7 39.5 6.8 10.9 15.5 16.3 26.101 16.3 10.6 0 19.899-5.399 28-16.3 8.199-10.899 12.8-24.1 13.8-39.5.799-12.3-.801-23.1-5.001-32.5m-53.2.3c6.6-8.899 14.3-13.3 22.899-13.3 8.601 0 15.601 4.4 21.101 13.3.1.2.199.301.3.5 5.3 8.7 7.5 19.2 6.8 31.5-.8 12.5-4.5 23.2-11.199 32-6.601 8.801-14.2 13.301-22.7 13.301-8.601 0-15.7-4.4-21.2-13.301-5.5-8.8-7.8-19.399-7-32 .1-2.199.3-4.3.7-6.3.5-3.2 1.2-6.399 2.1-9.3.5-1.6 1.101-3.1 1.7-4.7 1.599-4.1 3.799-8 6.499-11.7m6.6 7.5c-.399.5-.8 1-1.3 1.601-1.8 2.5-3.4 5.1-4.5 8-1.5 3.7-2.4 7.6-2.9 11.899-.1.7-.1 1.301-.1 2-.5 8.601 1.1 15.9 4.8 21.9 3.801 6 8.601 9.1 14.5 9.1 5.9 0 11-3 15.5-9.1 4.601-6 7.101-13.3 7.7-21.9.5-8.5-1.1-15.8-4.8-21.899-1.801-2.9-3.801-5-6.101-6.601-2.5-1.699-5.3-2.5-8.399-2.5-5.3.1-10.1 2.6-14.4 7.5z"/></svg>