<svg xmlns="http://www.w3.org/2000/svg" id="eyes" viewBox="0 0 3000 3000"><path d="M1376.3 1100c7.601 2.4 18 1.5 31.301-2.5 68.8 5.801 121.199.101 156.899-17.1 3.4-1.6 6.7-3.4 9.8-5.3l1.2-5.4c-46.3 13.3-100.1 18.4-161.399 15.4-11.601 7.1-24.201 12-37.801 14.9m121.5-140.5h-.1c-43.2 10.5-74.7 25.101-94.5 43.9-1.3 1.5-2.4 2.9-3.3 4.3-.801 1.4-1.301 2.5-1.301 3.2.101 0 .101.1.2.1l7-5.8c2.8-2.6 5.8-5.1 9-7.5.2-.1.3-.3.5-.399 19.5-14.4 47.1-26 82.8-34.801 31.2 8.801 51.7 20.801 61.601 35.9.199.4.5.6.899.6.4.101.7 0 1-.199.2-.2.301-.601.2-1.301-.1-.699-.7-2-1.8-4.1-10.2-13.3-28.8-24-55.8-32.3 4.699-1.1 9.5-2 14.199-2.8.4 0 .7-.2.9-.601.3-.3.3-.699.3-1.1s-.2-.7-.6-1c-.3-.2-.7-.3-1.101-.3a311.398 311.398 0 0 0-20.097 4.201m225.1 117.301c4 3.3 8.699 6.1 14.199 8.3 18.601 7.5 45.801 8.5 81.5 3.1 15.7 2.2 27.4 1.801 35.101-1.3-14.4-1.3-27.601-5.3-39.601-12.1-25.1 4.899-55.5 4.1-91.199-2.4v4.4m79.2-109.601c0-.399-.199-.7-.6-1-.3-.2-.7-.3-1.1-.3-5.101.9-10.2 2.3-15.2 4.3h-.1c-18.4 7.4-36.5 22.8-54.101 46-.2.3-.3.7-.3 1.101.1.399.3.699.6 1 .301.199.7.3 1.101.3.399 0 .699-.2 1-.5 17.1-22.5 34.6-37.5 52.399-44.9 15.7 6.101 26.4 16.601 32 31.4.101.399.4.7.801.8.399.2.8.2 1.199 0 .4-.1.7-.4.801-.8.199-.4.199-.7.1-1.101-5.5-14.699-15.7-25.3-30.7-31.899 3.7-1.3 7.4-2.2 11.101-2.8.399 0 .699-.2.899-.601.1-.2.2-.6.1-1z"/></svg>