<svg xmlns="http://www.w3.org/2000/svg" id="eyes" viewBox="0 0 3000 3000"><path fill="#FFF" d="M1481.6 988c-4.5-1-9-1.8-13.3-2.5-1.1 2.4-1.9 4.9-2.6 7.5 1.1 2 2.6 3.9 4.399 5.7 3.9 4 8.301 6.4 13.101 7.2 4.5.7 8.1-.1 11-2.5.6-3.2 2.1-6.1 4.3-8.6.1-.601.1-1.2 0-1.8-5.4-2.1-11-3.699-16.9-5m-19.9-.3c-.101-1-.2-2-.2-3.1-21.5-2.4-39.6.1-54.3 7.5-1.101 14 .3 29.6 4.3 46.8 9.9 33.5 33.9 51.6 72 54.4 37.3 2.699 64.8-1.601 82.4-12.801-3.5-18.699-6.9-31.6-10.4-38.8-1.3 1.7-2.7 3.3-4.3 4.9-10.601 11-23.301 16.399-38.301 16.399s-27.8-5.5-38.3-16.399c-10.6-11-15.8-24.2-15.8-39.8-.099-6.799.901-13.199 2.901-19.099m263.6 62.9c-.199-.3-.399-.601-.699-.8-3.2 6.1-6.4 12.699-9.5 19.8-1.301 6.8-2.301 13.899-3 21.3 13.699 5.8 27.6 9 41.8 9.4 20.6-1.5 37.1-11.301 49.6-29.4 8.9-16.4 13.7-40.9 14.5-73.5-8.3-2.8-16.399-4.1-24.2-3.8 1.101 4.9 1.5 10.5 1.301 16.7-.5 15.899-3.601 29.199-9.4 39.8-5.8 10.6-15.3 16-28.4 16.3-13.102.1-23.802-5.099-32.002-15.8z"/><path fill="#B6C3E0" d="M1478.5 970.5c-.1.101-.1.2-.2.301-4.3 4.5-7.6 9.399-10 14.699 4.301.7 8.7 1.5 13.301 2.5 5.899 1.301 11.6 2.9 16.899 4.9 0-.6-.1-1.2-.2-1.9-.699-4.899-3-9.3-6.899-13.3-3.801-3.899-8.101-6.3-12.901-7.2m-7.3.301c1-1.301 2.1-2.5 3.3-3.7 0 0 0-.101.1-.101 2.5-2.5 5-4.699 7.7-6.699-32.2-5.7-55.3-4-69.3 5.1-3.101 8.2-5.101 17-5.8 26.6 14.699-7.3 32.8-9.8 54.3-7.5.399.101.899.101 1.3.2.1-.1.1-.2.1-.3 2.1-4.801 4.8-9.401 8.3-13.6m253.5 79c-1-1.4-2-2.801-2.801-4.301-2.699 7.601-4.899 15.601-6.6 24.101 3.001-7.201 6.101-13.8 9.401-19.8m28-53.101l-.301-.3c-6.1 6.2-11.5 12.9-16.3 20.1.101.101.101.2.2.301 2.1 2.5 4.5 3.899 7.4 4.1.3-.3.5-.6.8-1v-.6c0-4.801 1.399-8.801 4.1-12.301 2-2.5 4.3-4 6.9-4.699-.499-2-1.499-3.901-2.799-5.601m60.3-18.399c-2.5-1-8.2-1.9-17.2-2.9-3.1-.6-6.699-.6-11.1-.1 4.5 4.5 7.6 10.5 9.2 18.199 7.8-.199 15.899 1.101 24.199 3.801 0-1.2.101-2.5.101-3.801.5-7.9-1.2-13-5.2-15.199z"/><path id="cl1" fill="#59452E" d="M1553.1 1035.301c0-.101-.1-.2-.199-.4-6.301-9.1-13.5-16.9-21.7-23.6-.7 3.5-2.5 6.6-5.2 9.3-3.7 3.7-8.1 5.6-13.3 5.6s-9.7-1.899-13.4-5.6c-3.3-3.3-5.1-7.3-5.399-11.8-3.4 1.6-7.301 2-11.7 1.2-5.8-1.2-10.7-4.301-14.8-9.4-1-1.2-1.9-2.5-2.7-3.8-.5 3.2-.8 6.399-.8 9.8 0 14 4.8 25.9 14.3 35.8 9.5 9.9 21 14.801 34.5 14.801s25-4.9 34.5-14.801c2.298-2.301 4.198-4.6 5.898-7.1m210.5-32.201c1.801.8 3.5 2.2 4.9 4 2.7 3.399 4.1 7.5 4.1 12.3s-1.399 8.9-4.1 12.2c-2.7 3.399-6 5.1-9.9 5.1-3.899 0-7.199-1.7-10-5.1-1.5-1.9-2.699-4-3.3-6.4-1.5 0-3-.3-4.3-.8-4.9 6.2-9.5 13.2-14 21.3.1.2.2.3.3.5 7.4 9.601 17 14.3 28.8 14.101 11.801-.2 20.4-5.101 25.601-14.7 5.3-9.5 8.1-21.5 8.5-35.8.199-5.801-.301-11.101-1.301-15.9-8.9.999-17.3 4.099-25.3 9.199z"/><path id="sd1" fill="#403528" d="M1482.3 967c.101 0 .301.101.4.101 5.9 1.2 10.8 4.2 14.9 9.3 3.6 4.4 5.5 9.2 5.8 14.4 2.8-1.601 5.899-2.4 9.3-2.4 5.2 0 9.7 1.8 13.3 5.5 3.7 3.7 5.601 8.2 5.601 13.4 0 1.399-.101 2.8-.4 4.1 8.1 6.7 15.4 14.5 21.7 23.6-5.101-15.399-12.7-29.699-22.7-42.699-10-13.2-23.7-23.2-41-30.101-2.301 1.299-4.701 2.899-6.901 4.799m258.6 57.301c-2.101-.8-3.9-2.3-5.601-4.3-.3-.301-.5-.7-.8-1-4.1 6.6-7.6 13.6-10.7 21.1 1 2.3 2 4.2 3 5.5 4.601-8.001 9.201-15.101 14.101-21.3M1754.8 994c.301.301.601.7.801 1 1.699 2.101 2.899 4.4 3.5 7 1.6.101 3.1.4 4.5 1 8-5.1 16.399-8.199 25.3-9.3-1.5-6.899-4.3-12.8-8.4-17.399-7.601 2.599-16.201 8.5-25.701 17.699z"/><path d="M1504.4 956.7c-2.801-1.2-5.801-2.3-8.801-3.3-17.1-5.6-37.8-7.6-62-6.1-25.699-.8-43.5-7.3-53.199-19.601-4.2-3.6-7-11.1-8.601-22.6-3.199 5.1-1.899 14.7 3.9 28.8 5.8 14.2 13.8 25.601 23.9 34.2-4.7 17.8-4.7 37.6 0 59.4 6 22.899 17.899 41.199 35.8 55 16.399 12.399 42.399 18 77.8 16.8 35.4-4 54.5-9.5 57.2-16.4-.4-18.1-3.2-35.399-8.5-51.899-.8-2.7-1.8-5.5-2.8-8.101-4.601-12.3-10.601-24.2-18-35.6C1532.4 973.6 1520.1 963.4 1504.4 956.7m-29.9 10.4c-1.2 1.2-2.3 2.399-3.3 3.7-3.5 4.199-6.2 8.8-8.301 13.699v.301h-.1c-.4 1-.7 1.899-1.1 2.899-2 6-3 12.3-3 19.101 0 15.5 5.3 28.8 15.8 39.8 10.6 11 23.4 16.399 38.3 16.399 15 0 27.7-5.5 38.301-16.399 1.5-1.601 3-3.2 4.3-4.9 3.5 7.2 6.899 20.101 10.399 38.8-17.6 11.2-45.1 15.5-82.399 12.801-38.101-2.801-62.101-20.9-72-54.4-3.9-17.1-5.3-32.7-4.3-46.8.8-9.6 2.699-18.5 5.8-26.6 14-9.101 37-10.801 69.3-5.101a58.63 58.63 0 0 0-7.7 6.7c0-.1 0 0 0 0m23.1 9.201c-4-5-9-8.101-14.899-9.301-.101 0-.301-.1-.4-.1 2.2-1.9 4.6-3.5 6.9-4.9 17.3 6.9 31 16.9 41 30.101 10 13.1 17.5 27.3 22.699 42.7.101.1.101.199.2.399-1.7 2.5-3.6 4.8-5.8 7-9.5 9.9-21 14.8-34.5 14.8s-25-4.899-34.5-14.8c-9.5-9.899-14.2-21.8-14.3-35.8 0-3.4.3-6.6.8-9.8.8 1.3 1.7 2.6 2.7 3.8 4.1 5 9 8.2 14.8 9.4 4.3.8 8.2.399 11.7-1.2.3 4.6 2.1 8.5 5.399 11.8 3.7 3.7 8.2 5.6 13.4 5.6s9.7-1.899 13.3-5.6c2.7-2.7 4.4-5.8 5.2-9.3.3-1.3.4-2.7.4-4.1 0-5.2-1.9-9.7-5.601-13.4s-8.1-5.5-13.3-5.5c-3.4 0-6.5.8-9.3 2.4-.398-4.9-2.398-9.699-5.898-14.199m-19.1-5.801c4.8.9 9.1 3.2 12.9 7.2 3.899 4 6.3 8.4 6.899 13.3.101.601.101 1.301.2 1.9s.1 1.3 0 1.8c-2.2 2.5-3.7 5.4-4.3 8.601-2.9 2.399-6.5 3.199-11 2.5-4.801-.801-9.2-3.2-13.101-7.2-1.8-1.8-3.199-3.7-4.399-5.7.699-2.6 1.5-5 2.6-7.5 2.4-5.3 5.7-10.2 10-14.7.101-.001.101-.101.201-.201m342.7-5.699H1792c-4.5-.301-9 .1-13.6 1.399-9.801 2.8-19.9 9.3-30.301 19.601-1.3 1.399-2.699 2.8-3.899 4.199l-2.7 3c-3 3.5-5.8 7.101-8.4 10.7-.699 1-1.399 2-2 2.9-6 8.9-10.8 18.3-14.5 28.2-6.399 17.399-9.199 36.3-8.3 56.8 8.5 6.7 22.5 11.1 42 13 16.9-.4 29.5-4 37.8-10.8 15.4-13.301 25.9-29 31.5-47.301 5.5-18.199 8.7-38.6 9.5-61.3 11.601-7.5 24.7-22.5 39.2-45.2-13 12.101-28.8 20.401-47.1 24.802m-25.4 10.599c9 1 14.7 1.9 17.2 2.9 4 2.2 5.7 7.3 5.2 15.3 0 1.3-.101 2.5-.101 3.8-.8 32.5-5.6 57-14.5 73.5-12.5 18.1-29 27.9-49.6 29.4-14.2-.4-28.1-3.601-41.8-9.4.699-7.4 1.699-14.4 3-21.3 1.699-8.4 3.899-16.4 6.6-24.101.9 1.5 1.8 2.9 2.8 4.301.2.3.4.6.7.8 8.2 10.7 18.9 15.9 32 15.7s22.6-5.601 28.4-16.301c5.8-10.6 9-23.899 9.399-39.8.2-6.2-.199-11.8-1.3-16.7-1.6-7.6-4.6-13.699-9.2-18.199 4.502-.499 8.102-.499 11.202.1m-27.3 31.7c-1.5-1.8-3.1-3.2-4.9-4-1.399-.601-2.899-1-4.5-1-.6-2.601-1.8-4.9-3.5-7-.3-.3-.6-.7-.8-1 9.6-9.3 18.1-15.101 25.7-17.601 4.1 4.7 6.899 10.5 8.399 17.4 1 4.8 1.5 10 1.301 15.9-.4 14.3-3.2 26.3-8.5 35.8-5.2 9.5-13.801 14.4-25.601 14.7-11.8.199-21.399-4.5-28.8-14.101-.1-.1-.2-.3-.3-.5-1-1.399-2-3.199-3-5.5 3-7.399 6.6-14.399 10.7-21.1.199.3.5.7.8 1 1.7 2.1 3.5 3.5 5.6 4.3 1.4.5 2.8.801 4.3.801.7 2.399 1.801 4.5 3.301 6.399 2.699 3.4 6.1 5.101 10 5.101 3.899 0 7.199-1.7 9.899-5.101 2.7-3.3 4.101-7.399 4.101-12.2-.1-4.798-1.5-8.898-4.2-12.298m-16.1-10.7l.3.3c1.4 1.7 2.3 3.601 2.8 5.7-2.6.7-4.899 2.2-6.899 4.7-2.7 3.4-4.101 7.5-4.101 12.3v.6c0 .301 0 .7.101 1h-.901c-2.9-.199-5.3-1.6-7.4-4.1-.1-.1-.1-.2-.199-.3 4.799-7.299 10.199-14 16.299-20.2z"/></svg>