<svg xmlns="http://www.w3.org/2000/svg" id="图层_1" viewBox="0 0 3000 3000"><path id="cl1" fill="#584635" d="M1442.8 1028.9c2.103-8.2 6.103-14.8 12.2-19.7 2-1.6 4-2.8 6-3.8-5.4-1.8-11.4-3.7-17.9-5.6-4.397-1.3-9.697-2.5-15.697-3.5-5.303 5.1-9 11.8-11.103 20.1-.5 1.7-.897 3.5-1.1 5.3-1.801 11.7.899 25.603 7.899 41.603 9.101 2.8 18.698 5.197 28.801 7.3 13.397 3 26.8 5.6 40.1 7.8 16-12.197 22.8-28.8 20.2-49.8-8-4.3-16.101-8.5-24.301-12.5.101.3.198.5.301.8 2.3 7.4 2.699 14.8 1.1 22.2-1.5 7.4-5.199 13.2-11 17.4-5.8 4.197-12.1 5.897-18.8 5.197-6.7-.697-11.7-4.3-15-10.8-3.1-6.4-3.7-13.7-1.7-22m-20.5-21.598c2.603-1.4 5.5-1.7 8.603-1 3.1.697 5.5 2.3 7.198 4.8 1.699 2.397 2.302 5 1.699 7.7-.6 2.697-2.3 4.697-4.8 6.1-2.601 1.4-5.4 1.7-8.5 1-3.101-.7-5.5-2.3-7.3-4.8-1.7-2.4-2.303-5-1.7-7.7.5-2.802 2.2-4.802 4.8-6.1m340.4 30.598c.199.4.3.8.5 1.3 4.8 13.603 3.397 26.103-4.2 37.603-6.8 6.8-14 7.1-21.6.897-2.303-1.897-3.603-5.5-4-10.897-.2-2.802-.103-6.103.197-9.9.103-.5.103-1.1.2-1.699-.2.199-.398.302-.7.5-1.897 1.199-3.8 2.399-5.8 3.699-1.398 2.7-2.5 5.602-3.3 8.7-.3 1.1-.5 2.3-.7 3.397-1.3 8.603-.7 13.803 2 15.803 16.4-.9 32.9-4.7 49.5-11.303 1.9.103 4.102-8 6.4-24.3 1.3-8.8 1.6-16.8.697-24.1-5.894 3-12.394 6.5-19.194 10.3z"/><path fill="#FFF" d="M1579.6 1080.5c-.1-3.8-.397-7.197-.897-10.197-19-13.803-39.103-26.5-60.302-38.4 1.399 22.102-5.5 37.9-20.5 47.5 26 4 52 6.5 78 7.3l3.699-6.203m-166.4-72.198c2.5-5 5-9.4 7.699-13-20.102-2.803-47.602-4.103-82.602-4.103-.3 7.8 2.2 17.8 7.7 30 17 16.4 39.5 29.5 67.6 39.103-7.097-20.702-7.197-38-.397-52m17.6-2c-3.1-.7-6-.4-8.6 1-2.6 1.397-4.2 3.397-4.8 6.1-.603 2.7-.103 5.3 1.697 7.7 1.7 2.397 4.2 4 7.303 4.8 3.1.7 5.897.4 8.5-1 2.6-1.398 4.197-3.398 4.8-6.1.6-2.7.1-5.3-1.7-7.7-1.7-2.502-4.1-4.102-7.2-4.8m385.6 40.298c0-.101.1-.2.197-.3 4.803-10.103 9.7-21.803 14.7-35.103-11.398.8-26.398 5.5-44.898 14.4 1.801 12.698.398 28.6-4.302 47.698 14.903-6.595 26.403-15.493 34.303-26.695m-82.8 10.202c-.1-.5-.3-.9-.5-1.2-1.897 1.2-3.8 2.4-5.8 3.7-1.4 2.697-2.5 5.6-3.3 8.697 4.6 1.103 7.7.7 9.3-1.3 0-2.799 0-6.099.3-9.897z"/><path fill="#B1B6CC" d="M1578.7 1070.302c-1-6.2-3-10.603-5.801-13.103-16.802-15.198-35.802-29.397-57-42.698 1.301 6.198 2.198 12.101 2.5 17.5 21.201 11.801 41.301 24.499 60.301 38.301M1439.3 982.7c-31.199-7.3-60.6-10.397-88.3-9.5-8.1 3-12.4 9-12.8 17.9 35 0 62.5 1.4 82.6 4.1 5.7-7.398 11.9-11.6 18.5-12.5m392 28.5c2.103-5.7 4.301-11.6 6.4-17.897-21.3-2.803-40.3 2.3-56.8 15.197 2.697 4.9 4.5 10.603 5.397 17.103C1804.9 1016.7 1819.9 1012 1831.3 1011.2m-101.7 44.4c-.8 1.2-1.6 2.399-2.3 3.7 1.9-1.2 3.9-2.5 5.8-3.7-.8-1.1-1.9-1.1-3.5 0z"/><path id="sd1" fill="#3D322A" d="M1427.5 996.302c6 1 11.3 2.197 15.7 3.5 6.5 1.897 12.397 3.8 17.897 5.6 4.302-2 8.802-2.5 13.5-1.6 6.603 1.3 11.103 5.397 13.5 12.3 8.302 4.1 16.4 8.2 24.302 12.5-.699-5.5-2-11.3-3.899-17.3-10.2-6.103-30.4-14.5-60.7-25.301-8.3 1.999-15.1 5.399-20.3 10.301m305.6 59.398c.2-.1.4-.3.7-.5.2-1.6.4-3.397.7-5.2-1.8 1.7-3.4 3.603-4.8 5.603 1.5-1.103 2.6-1.103 3.4.097m19.2-23.6c2.9-1.101 5.5-.7 7.7 1.2 1 .8 1.9 2.397 2.8 4.6 6.801-3.8 13.301-7.3 19.4-10.3-.7-6.103-2.2-11.603-4.5-16.5-9.4 6-17.8 13-25.4 21z"/><path d="M1344.6 973c1.603.303 3.7.4 6.5.303 27.7-1 57.103 2.197 88.303 9.5-6.7.897-12.803 5.1-18.5 12.6-2.7 3.602-5.2 7.9-7.7 13-6.8 14.102-6.7 31.4.3 52-28-9.6-50.5-22.7-67.6-39.1-1.5-1.5-3-2.9-4.4-4.5 3.5 13 20.3 26.8 50.5 41.197 35 15 86.7 25.9 155 32.603h31c4.7-1.8 7-7.8 6.8-18-.8-6.9-3.697-13.5-8.8-19.8-19.6-19.5-39.2-35.2-58.8-47-22.9-16.4-56.4-30-100.4-40.7-43.603.497-67.703 3.097-72.203 7.897m70.7 48.802c.301-1.803.7-3.603 1.103-5.303 2-8.3 5.698-15 11.1-20.1 5.2-4.9 12-8.3 20.3-10.3 30.303 10.7 50.5 19.1 60.7 25.3 1.9 6.1 3.2 11.9 3.9 17.3 2.6 21-4.2 37.603-20.2 49.803-13.4-2.2-26.8-4.803-40.101-7.803-10.102-2.1-19.699-4.5-28.802-7.3-7.1-15.999-9.8-29.899-8-41.597m157.5 35.398c2.9 2.5 4.801 6.9 5.801 13.103.5 3 .802 6.397.899 10.197l-3.8 6.303c-26.1-.9-52.1-3.303-78-7.303 15.1-9.5 21.9-25.397 20.5-47.5-.3-5.397-1.2-11.3-2.5-17.5 21.3 13.302 40.3 27.5 57.1 42.7m-117.7-48c-6.1 4.9-10.1 11.5-12.197 19.7-2 8.2-1.4 15.6 1.8 22 3.3 6.4 8.3 10 15 10.8 6.7.7 13-1 18.8-5.197 5.8-4.2 9.5-10 11-17.4s1.103-14.8-1.1-22.2c-.103-.2-.2-.5-.302-.8-2.398-6.9-6.898-11-13.5-12.3-4.698-.9-9.198-.4-13.5 1.6-2.101.997-4.101 2.197-6.001 3.797m263.1 61.8c-.603 5.303-.603 10.103 0 14.5.699 2.603 2 4.103 4 4.4 10.8 3.4 33.397-1.4 67.699-14.6 17.398-10.5 27.101-21.4 29.101-32.603-.7 1.2-1.5 2.4-2.3 3.603-.103.1-.103.199-.2.3-7.9 11.2-19.4 20.1-34.3 26.7 4.697-19.103 6.1-35 4.3-47.7-.9-6.5-2.7-12.2-5.4-17.1 16.5-12.9 35.5-17.9 56.8-15.2 8.4 1.1 17.103 3.397 26.2 6.897-12.897-13.5-29.1-19.6-48.8-18.3-19 2-42.2 17.4-69.8 46-14.3 12.503-23.4 26.905-27.3 43.103m45-31.8c-.103-.5-.301-.897-.5-1.3-.9-2.2-1.801-3.8-2.801-4.6-2.199-1.9-4.802-2.303-7.699-1.2 7.6-8 16.1-15 25.3-21 2.3 4.897 3.7 10.397 4.5 16.5.9 7.2.6 15.2-.7 24.1-2.397 16.4-4.5 24.5-6.397 24.3-16.603 6.603-33.103 10.303-49.5 11.303-2.603-2-3.302-7.2-2-15.803.198-1.197.397-2.3.698-3.397.802-3.103 1.802-6 3.302-8.7.698-1.3 1.397-2.5 2.3-3.699 1.399-2 3-3.898 4.8-5.601-.3 1.8-.5 3.601-.7 5.2 0 .6-.1 1.1-.197 1.698a84.313 84.313 0 0 0-.2 9.899c.399 5.4 1.7 9.101 4 10.9 7.6 6.199 14.8 5.897 21.6-.9 7.494-11.598 8.894-24.098 4.194-37.7z"/></svg>