<svg xmlns="http://www.w3.org/2000/svg" id="eyes" viewBox="0 0 3000 3000"><path fill="#FFF" d="M1560.1 1023c.302 1.2.5 2.5.7 3.802 1.2 6.698 1.9 13 2.1 18.8 1.2 25.7-6.198 43.2-22.1 52.4l18 4.198c10.7-14.8 15.7-34.198 14.8-58.398 0-1.2-.1-2.5-.198-3.802a82.438 82.438 0 0 0-13.302-17m-17.4-9.3c.199-.3.3-.7.398-1.1.602-1.6.7-3.4.5-5.5-.198-2.6-.898-4.8-2.198-6.6-1.2-1.802-2.4-2.7-3.802-2.7-1.398 0-2.6.898-3.5 2.7-.8 1.898-1.1 4.1-.8 6.6.101 1.1.3 2 .601 3 .399 1.3.899 2.5 1.5 3.6 1.199 1.9 2.5 2.8 4 2.8s2.401-1 3.301-2.8m-147.3-6c.6 26.5 7.8 47.5 21.698 63 4.302 4.8 9.302 9.102 14.9 12.9 16.3.1 31.2.8 44.6 2.2-8.1-6.5-14.198-13.9-18.3-22.2-9.1-18.3-8.399-41 2.101-68a82.331 82.331 0 0 1 1.801-3.102c-15.3-.398-37.5 4.702-66.8 15.202m393.3-.898c.199.6.3 1.198.5 1.8 1.699 10.2 1.398 22.398-1 36.6-4.801 29.2-13.801 48.2-27.2 57.2 16-6.899 25.5-14.3 28.4-22.2h2.898c7.4-10.5 13.9-24 19.5-40.398 3.5-13.301 5.602-26.301 6.302-39-6.802-6.801-18-8.2-33.4-4 1.5 2.796 2.9 6.096 4 9.998m-11.3-6.102c-.802-1.898-1.7-2.898-2.802-2.898-1.1 0-2 1-2.8 2.898-.8 2-1.1 4.3-1.1 7.102v2c.198 1.898.5 3.6 1.1 5 .8 2 1.7 3 2.8 3 1.102 0 2-1 2.802-3 .698-1.802 1.1-3.9 1.198-6.302v-.8c.002-2.7-.398-5-1.198-7z"/><path fill="#BABEDB" d="M1395.4 1004.6v3.1c29.3-10.5 51.5-15.5 66.8-15.2 12-20.1 30.2-27 54.7-20.698 21.6 6.3 35.5 21.3 41.8 45 .5 2 1 4 1.4 6.198 5.3 5.2 9.698 10.9 13.3 17.102-.102-2.4-.3-4.9-.602-7.5-.698-4.4-1.6-8.602-2.8-12.602-7.7-28-25-48-51.898-60-39.602-15-70-16-91.2-2.8-17.8 10.602-28.4 26.4-31.5 47.4m389.3-7.798c15.398-4.102 26.6-2.802 33.398 4 .2-2.9.2-6.102.102-9.802-4.7-18.3-14.9-27.898-30.4-28.8-20.4 6.2-33.2 16.2-38.6 30 16.2-11 28.1-9.5 35.5 4.602z"/><path d="M1566.8 988.2c-16.199-23.6-42.699-40.3-79.699-50-25.601-3.5-44.699-2.8-57.301 1.9-7.3-3.9-13.199-10-17.699-18.1-.699 5.3 1 13 5.101 23-2.9 1.398-5 3-6.4 4.8-16.5 1.2-28-6.102-34.398-21.8 1.1 14.5 9.3 26 24.398 34.6l-6.6 9.2c-24.101-2.102-37.8-8.4-41.2-19v6c4.2 12.5 16.7 21.3 37.602 26.398-5.102 13.302-5.802 27.5-2 42.7 4.3 17.2 11.698 31.9 22.198 43.9 4.4 5.1 9.4 9.698 15 13.8-14.6-.9-23-.1-25.198 2.4 59.6.898 112.1 8.3 157.698 22h3.7c11.4-6.802 18.7-23.4 21.8-49.802.9-6.1 1.102-12.198.802-18.3-.302-6.2-1.2-12.5-2.802-18.8-2.902-11.596-7.902-23.196-15.002-34.896m-171.4 19.5v-3.1c3.1-21 13.698-36.8 31.6-47.4 21.2-13.2 51.6-12.2 91.2 2.8 26.8 12 44.1 32 51.898 60 1.102 4 2 8.302 2.802 12.602.3 2.5.5 5 .6 7.5.1 1.3.1 2.5.2 3.8.898 24.2-4 43.601-14.801 58.4l-18-4.2c15.899-9.2 23.301-26.7 22.101-52.4-.2-5.8-.9-12.1-2.101-18.8-.199-1.3-.399-2.6-.699-3.8-.4-2.1-.9-4.2-1.4-6.2-6.3-23.7-20.3-38.7-41.8-45-24.4-6.3-42.7.601-54.7 20.7-.6 1-1.2 2-1.8 3.1-10.5 27-11.2 49.7-2.101 68 4.101 8.301 10.199 15.7 18.301 22.2-13.4-1.4-28.301-2.1-44.602-2.2-5.6-3.8-10.6-8.1-14.898-12.898-14-15.604-21.2-36.604-21.8-63.104m147.7 4.9c-.1.398-.198.7-.398 1.1-.802 1.9-1.9 2.8-3.302 2.8-1.398 0-2.8-.898-4-2.8-.698-1.1-1.198-2.3-1.5-3.6-.3-.9-.398-1.9-.6-3-.2-2.602 0-4.8.8-6.602.9-1.8 2.102-2.698 3.5-2.698 1.4 0 2.7.898 3.802 2.698 1.198 1.9 1.898 4.102 2.198 6.602.2 2.1 0 3.9-.5 5.5m307.7-48.2c-5 10.1-9.6 15.6-13.8 16.6-3.6-.398-5.4-1.398-5.4-2.8 9.7-2.7 13.302-6.8 10.802-12.398-2.302 3.6-7.302 5.1-15 4.6-14.602-22.2-32.302-26.5-53.2-13-16 9.4-29.9 27.7-41.8 54.8-.5 1.5-1 3-1.602 4.5-14.898 45.4-15.467 88.799 1.301 97.4 3.146 1.614 10.623-1.081 14-2 5.71-1.555 12.899-4.3 23.399-7.8 14.5-7.2 23-14.302 25.601-21.4 0 0-.451-3.089-1.268-3.568-.991-.582-3.109.682-3.917 1.5-5.913 5.985-13.015 14.568-29.015 21.467 13.398-9 22.398-28 27.198-57.199 2.4-14.2 2.7-26.4 1-36.602-.198-.6-.3-1.198-.5-1.8-1.1-3.898-2.5-7.2-4-10-7.398-14.1-19.3-15.6-35.5-4.5 5.4-13.8 18.2-23.8 38.602-30 15.5.9 25.698 10.5 30.398 28.8.102 3.7.102 6.9-.1 9.802-.7 12.698-2.8 25.6-6.3 38.999-.7 2.801-1.5 5.601-2.4 8.399 11.2-18.3 19.2-36.8 24-55.398C1844.8 986.2 1850.6 976.7 1850.8 964.4m-76.1 33.402c1.1 0 2 1 2.8 2.898.8 2 1.2 4.3 1.2 7.102v.8c-.102 2.398-.5 4.5-1.2 6.3-.8 2-1.7 3-2.8 3-1.102 0-2-1-2.801-3-.601-1.399-.899-3.1-1.101-5v-2c0-2.8.4-5.1 1.101-7.1.801-2 1.701-3 2.801-3z"/></svg>