<svg xmlns="http://www.w3.org/2000/svg" id="eyes" viewBox="0 0 3000 3000"><path fill="#FFF" d="M1542.1 1019.9c2.5-4.6 3.9-9 4.4-13.3-.8-2.2-1.8-4.4-2.8-6.6-1.9-3.103-4-5.9-6.301-8.4-2 .2-4.199 1-6.602 2.5-4.398 2.8-8.2 7.1-11.3 12.9a39.947 39.947 0 0 0-3.5 8.5c.7.6 1.5 1.3 2.1 2 4.103 4.3 6.103 9.499 6.103 15.6 0 .7 0 1.4-.103 2.1 2-.1 4.2-1 6.603-2.5 4.5-2.8 8.3-7.1 11.4-12.8m246.5-34c-.197.1-.3.2-.397.3-3.802 2.2-7.103 5.603-9.802 10.2-2.601 4.6-3.898 9.1-3.898 13.4 0 1.897.3 3.6.8 5 .602.6 1.2 1.2 1.7 2 .5.6.898 1.2 1.3 1.8.102.1.301.2.4.3 2.698 1.6 6 1.3 9.8-1 3.8-2.1 7.101-5.5 9.7-10.1.1-.103.1-.2.198-.4-1.501-9.5-4.701-16.598-9.801-21.5z"/><path fill="#FFF" d="M1466.7 986.302c12.199-10.4 27.6-14.2 46.3-11.5 13.9 1.397 25.1 9 33.6 22.8 6.603 15.8 9.2 31.6 7.603 47.397-1.5 11.803-7.7 23.303-18.802 34.7 14.199.603 23 2.103 26.399 4.5 1.4-1.8 2.101-3.8 2.2-5.897-1.5 1.197-2.7 1.197-3.601-.103 1-35.6-.899-64-5.602-85.2-16.699-33.197-41.898-50.897-75.6-53-30.802.603-54.9 12.103-72.2 34.5-2.7 9-4.1 19-4.2 30.103.103 19.897 10.103 44.397 30.103 73.6h5.5c12.5-.1 23.897-.198 34.198-.3-3.398-1.4-8.101-6-14.301-13.8-8.199-11.302-11.898-24.5-11.199-39.603.902-14.999 7.402-27.799 19.602-38.197m355.9 2.098c.4-9.3 0-17.2-1.197-23.7-25-24.6-54.4-23.897-88 2.2-12.4 26.6-16.803 64.4-13.303 113.5 7.603-2.6 15.603-4.6 23.803-6.1-3.303-3.603-7.303-11.603-11.803-24-4.5-12.4-3.1-28.2 4.303-47.5 7.3-19.3 18.3-28.9 33-28.8 10.197.6 18.1 4.1 23.6 10.397 3.8 4.3 6.4 9.9 8 16.8.5 2.2.9 4.603 1.2 7 3.197 28.7-.803 49.9-12.303 63.4 5.103.3 10.303.7 15.7 1.3 10.5-30.397 16.2-58.497 17-84.497z"/><path id="cl1" fill="#4E61C2" d="M1512.2 978.7c-17.5-2.6-32 1-43.4 10.8-11.4 9.803-17.4 21.803-18 36.303-.6 14.397 2.9 26.6 10.3 36.697 6.603 7.803 12.103 13 16.4 15.603 20.3-.103 37.5.5 51.8 1.6.801 0 1.5 0 2.301.103 10.802-12 17.199-24.7 19.199-38.302 1.7-11.398.301-22.898-4.199-34.698-.5 4.3-1.898 8.698-4.398 13.3-3.102 5.7-6.8 10-11.3 12.8-2.4 1.5-4.603 2.4-6.603 2.5-.397 5.2-2.397 9.7-6 13.4-4 4.3-8.897 6.5-14.6 6.5s-10.601-2.2-14.7-6.5c-4-4.302-6.1-9.5-6.1-15.5 0-6.103 2-11.302 6.1-15.603 4.101-4.3 8.9-6.5 14.7-6.5 4.8 0 8.899 1.5 12.5 4.4.8-2.7 1.899-5.602 3.5-8.5 3.1-5.7 6.8-10 11.3-12.9 2.4-1.5 4.601-2.3 6.601-2.5C1530.5 984 1522.1 979.7 1512.2 978.7m276 7.5c.1-.1.3-.2.397-.3-4.8-4.6-11.3-7.2-19.5-7.7-13.198-.1-23 8.8-29.6 26.603-6.601 17.8-7.9 32.397-3.9 43.8 4.103 11.399 8.4 19.7 13 24.899 11.603-1.802 23.7-2.5 36.302-2.199 12.101-14.602 16.698-35.2 13.801-61.7l-.301-2.4c-.102.103-.102.2-.199.4-2.601 4.6-5.9 8-9.7 10.1-3.8 2.2-7 2.5-9.8 1-.101-.1-.301-.198-.4-.3 2 3.4 3.103 7.301 3.103 11.801 0 5.302-1.4 9.899-4.303 13.602-2.8 3.8-6.197 5.699-10.3 5.699-4 0-7.4-1.899-10.3-5.699-2.8-3.7-4.2-8.301-4.2-13.602s1.4-9.898 4.2-13.698c2.899-3.7 6.3-5.603 10.3-5.603 3.3 0 6.1 1.2 8.6 3.7-.5-1.399-.8-3-.8-5 0-4.3 1.3-8.8 3.9-13.399 2.6-4.402 5.8-7.804 9.7-10.004z"/><path fill="#BAC1E3" d="M1528.8 949.6c-10.8-14.8-30.199-22.603-58.199-23.603-19.801.2-36 7.4-48.698 21.603-6.7 7.6-11.7 16.6-14.802 26.897C1424.4 952.1 1448.5 940.6 1479.3 940c33.7 2.2 58.9 19.9 75.603 53-2.803-13.3-11.503-27.8-26.103-43.4m292.6 15.202c-1-5.4-2.603-9.803-4.803-13.2-9.5-12.9-19.897-20.2-31.397-21.8-21 .697-36.4 9.6-46.2 26.8-2 3.2-3.899 6.7-5.6 10.3 33.6-26.002 63-26.702 88-2.1z"/><path d="M1470.6 926c28 1 47.4 8.803 58.2 23.603 14.6 15.6 23.3 30.1 26 43.397 4.8 21.2 6.7 49.603 5.6 85.2.9 1.2 2 1.3 3.603.103.6-25.603 0-49.103-1.8-70.5-3.9-28.5-12.803-51.603-26.803-69.2-16.397-17.3-34.397-26-54.197-26-21.5-.3-37.9 3.8-49.4 12.2-14.9 8.397-28.3 8.397-40.4 0-5-5.803-8.5-14.2-10.397-25.4-.4 11.3 1.6 20.7 6 28.2 5.6 8.6 12.1 15.3 19.6 20-5.5 10.897-9.1 27.897-10.8 50.8-3.9 6.9-12.6 6.7-26.2-.4-.3 3.4 2.5 7.303 8.5 11.7 6 4.4 12.102 5.103 18.301 1.9 1.699 9 4.199 18.3 7.602 27.8-1.801 4-9.899 6.8-24.399 8.4 2.5 3.1 11.602 3.197 27.399.197 8.199 14 16.3 24.103 24.199 30.2h1.801c-20-29.2-30-53.7-30.102-73.6 0-11.103 1.399-21.103 4.199-30.103 3.2-10.3 8.102-19.3 14.801-26.897 12.693-14.2 28.893-21.4 48.693-21.6m42.4 48.802c-18.7-2.803-34.2 1-46.3 11.5-12.2 10.397-18.603 23.197-19.4 38.3-.7 15.1 3 28.3 11.2 39.6 6.1 7.802 10.899 12.4 14.3 13.802-10.3.101-21.7.198-34.2.301-1.1 1.3-1.197 2.397-.197 3.397 40.397-.697 81.6.2 123.5 2.603-3.4-2.5-12.103-4-26.4-4.5 11-11.301 17.3-22.9 18.8-34.7 1.603-15.8-1-31.6-7.6-47.398-8.603-13.905-19.803-21.507-33.703-22.905m-44.2 14.598c11.4-9.8 25.9-13.4 43.4-10.8 9.9 1 18.3 5.3 25.2 12.9 2.197 2.5 4.3 5.3 6.3 8.397 1 2.2 2 4.4 2.8 6.603 4.5 11.8 5.9 23.3 4.2 34.697-2 13.5-8.4 26.303-19.2 38.303-.7 0-1.5 0-2.3-.103-14.3-1.1-31.5-1.698-51.8-1.6-4.303-2.5-9.803-7.7-16.4-15.602-7.4-10.101-10.8-22.301-10.3-36.698.7-14.297 6.7-26.297 18.1-36.097m49.4 28.1c-.7-.697-1.4-1.397-2.103-2-3.6-2.897-7.698-4.397-12.5-4.397-5.698 0-10.6 2.1-14.698 6.5-4 4.3-6.102 9.5-6.102 15.6 0 6.103 2 11.2 6.102 15.5 4.101 4.302 8.898 6.5 14.698 6.5 5.7 0 10.603-2.198 14.603-6.5 3.6-3.8 5.6-8.3 6-13.397.1-.7.1-1.4.1-2.103 0-6.203-2-11.401-6.1-15.703M1851.6 911c-6 9.5-11.697 15.4-17 17.803-8.897 2.1-18.897 1-30.197-3.103-11.103-4.5-20.7-6.5-28.803-6.1-12.897 2.2-23.397 9.2-31.397 21.2-7.103 9-13.103 20.6-18 34.8-12.103 33.7-14.7 69.8-7.802 108.399 20.699-6.899 50.199-9.602 88.399-8.199 4.301-7.301 7.7-18.5 10.4-33.603 12.8 2.7 21.6 3.5 26.397 2.4-12-3.2-19.897-8-23.8-14.4 3.5-10.698 5.5-20.6 6.2-29.6 5.6 5 13.897 5.899 25 2.6-10.5-.8-18.5-5.6-23.8-14.198 1.3-12.399.897-25.802-1.2-40C1839.2 941.9 1847.7 929.2 1851.6 911m-35 40.6c2.2 3.397 3.803 7.8 4.803 13.2 1.197 6.397 1.6 14.3 1.197 23.697-.8 26-6.5 54.103-17 84.4-5.3-.6-10.5-1-15.697-1.3 11.397-13.5 15.5-34.603 12.3-63.4-.3-2.5-.7-4.8-1.2-7-1.6-6.897-4.2-12.5-8-16.8-5.5-6.3-13.397-9.8-23.6-10.4-14.603-.1-25.603 9.5-33 28.803-7.302 19.3-8.7 35.197-4.302 47.5 4.5 12.397 8.399 20.3 11.802 24-8.2 1.5-16.103 3.5-23.802 6.1-3.601-49.1.802-86.9 13.302-113.5 1.698-3.6 3.5-7.1 5.6-10.3 9.8-17.2 25.2-26.103 46.2-26.8 11.497 1.6 21.897 8.9 31.397 21.8m-68 122c-4.6-5.2-8.897-13.5-13-24.9-4-11.397-2.697-26 3.9-43.8 6.6-17.9 16.4-26.7 29.6-26.6 8.2.5 14.7 3.1 19.5 7.697 5.103 4.9 8.303 12 9.7 21.4l.3 2.4c2.9 26.5-1.697 47-13.8 61.697-12.6-.394-24.7.308-36.2 2.106m26.7-58.9c-2.397-2.397-5.3-3.7-8.6-3.7-4 0-7.4 1.9-10.3 5.603-2.803 3.8-4.2 8.3-4.2 13.7 0 5.3 1.4 9.897 4.2 13.6 2.897 3.8 6.3 5.7 10.3 5.7s7.5-1.9 10.3-5.7c2.9-3.7 4.3-8.3 4.3-13.6 0-4.5-1-8.4-3.1-11.803-.4-.6-.8-1.3-1.3-1.8-.4-.8-1-1.398-1.6-2z"/></svg>