<svg xmlns="http://www.w3.org/2000/svg" id="eyes" viewBox="0 0 3000 3000"><path fill="#FFF" d="M1555.6 1008.5c-3.6-4.399-7.5-8.6-11.699-12.5.5 17.7-4.4 30.601-14.601 38.9 23.7 9.1 45 20.7 64 34.8-5.9-16.7-18.5-37.1-37.7-61.2m-167.9-2.699c.899 2.899 4.3 4.5 10.3 4.899 17.7.601 34.7 2 50.8 4.101-6.199-16.7-5.3-33.7 2.801-50.9-17.701 4.499-38.901 18.499-63.901 41.9m126.7-24.701c-2.9 2.2-4.4 4.899-4.4 8 0 .399 0 .8.1 1.2.301 2.6 1.801 4.899 4.301 6.8 2.899 2.2 6.5 3.3 10.6 3.3s7.7-1.1 10.6-3.3c1.101-.8 2-1.8 2.7-2.8.5-.7.9-1.4 1.1-2.101-6.199-5.1-13.1-9.5-20.6-13.5-1.601.602-3.001 1.401-4.401 2.401m277.4 23.4c1.9 9.101 2.301 18.101 1.101 26.9-1.2 8.9-3.9 17.6-8.101 26.3 4.801-2 10.9-3 18.2-3 5.6-4 8.9-7.699 9.8-11.199 1.601-1.101 3.301-4 5-8.5 1.601-4.301 3.301-10 5-17.301-.1-2.5-.3-4.8-.6-6.8-10.9-5-21-7.099-30.4-6.4m-52 69.801c1.601-.801 1.601-1.601-.199-2.301-4-1.6-7.7-4.699-11.2-9.3-2.9 5.7-5.8 11.7-8.601 18.2.5.3 1.2.4 2.2.2 5.5-3.2 11.3-5.4 17.4-6.7l.4-.099m36.6-65.901c-3.301 1.5-6.5 3.4-9.801 5.7-.5 1.9-.699 3.8-.6 5.7.2 3.6 1.6 6.199 4.1 7.699s5.4 1.4 8.7-.199c3.3-1.5 6-4.101 8.1-7.8a47.733 47.733 0 0 0 1.601-3.2c-.101-3.8-.5-7.5-1.3-11.3-3.7.7-7.3 1.801-10.8 3.4z"/><path fill="#BCC3E8" d="M1573.4 1008.4c-2.9-3.6-5.801-7-8.7-10.2-8-9-15.7-16.2-23.2-21.6 1.3 6.7 2.101 12.9 2.3 18.6 0 .3 0 .601.101.8 4.2 3.9 8.1 8 11.7 12.5 19.199 24.101 31.8 44.5 37.699 61.2.301.2.601.5.9.7-.9-18.5-7.8-39.2-20.8-62m-121.9-44.5c1.8-3.7 3.9-7.5 6.3-11.3-29.199 6.1-52.1 21.4-68.6 46-1.6 2.9-2.1 5.3-1.5 7.2 25-23.4 46.2-37.4 63.8-41.9m84.1 17.2c-2.899-2.2-6.5-3.3-10.6-3.3-2.2 0-4.3.3-6.2 1 7.5 3.899 14.4 8.399 20.601 13.5.399-1 .6-2 .6-3.101-.001-3.199-1.501-5.898-4.401-8.099m286.7 29.701c-.399-3.4-1-6.2-1.8-8.4-3.8-6.3-14.3-9-31.4-8.2 1.2 3.4 2.101 6.9 2.801 10.3 9.299-.7 19.399 1.399 30.399 6.3m-95.6 49.399c-1.101-1-2.101-.7-3 1.101l-4.301 15.3c-.5 2.3-.399 3.8.4 4.3 2.8-6.4 5.7-12.5 8.6-18.2-.599-.701-1.199-1.601-1.699-2.501m42.2-51.399c-1 1.8-1.801 3.5-2.301 5.3 3.2-2.3 6.5-4.2 9.801-5.7 3.5-1.6 7.1-2.7 10.899-3.4-.199-1.1-.399-2.3-.699-3.399-.301-.2-.601-.5-.9-.601-2.5-1.5-5.4-1.399-8.7.101s-6 4.098-8.1 7.699z"/><path id="cl2" fill="#554A39" d="M1510 989.1c0-3.101 1.5-5.8 4.4-8 1.399-1 2.8-1.8 4.399-2.3-14.6-7.601-31.699-12.9-51.3-16.2-3.4-.4-7.1-.3-10.9.3-9.5 16.7-10.5 34.3-2.899 52.7 25.8 3.8 49.6 9.8 71.399 17.8 9.801-7.9 14.801-20.8 14.9-38.8v-1.9c-.2-.2-.4-.3-.7-.5-.3.8-.6 1.5-1.1 2.101-.7 1-1.6 1.899-2.7 2.8-2.899 2.2-6.5 3.3-10.6 3.3-4.101 0-7.7-1.1-10.601-3.3-2.6-1.9-4-4.2-4.3-6.8.002-.401.002-.801.002-1.201m-30.5.201c1.1-4 3.3-7.101 6.7-9.2 3.399-2.101 6.899-2.7 10.6-1.7s6.4 3.2 8.3 6.8c.801 1.5 1.301 3 1.601 4.601.3 2.199.199 4.399-.4 6.699-1.1 4-3.3 7.101-6.7 9.2-3.399 2.101-6.899 2.7-10.6 1.8-3.7-1-6.5-3.3-8.3-6.8-1.901-3.601-2.301-7.4-1.201-11.4m279.5 31c.9.6 1.7 1.5 2.5 2.5 1 1.3 1.8 2.8 2.3 4.399.601 1.7.801 3.5.801 5.5 0 3.8-1.101 7.101-3.2 9.8-2.101 2.7-4.601 4.101-7.5 4.101-3 0-5.5-1.4-7.601-4.101-1.1-1.5-2-3.199-2.5-5-4.5 6.2-8.899 13.2-13.199 21.101 2.899 5.1 8.3 9.2 16.1 12.399l26.8-9.399c2.4-1.2 4.9-4 7.3-8.601 3.301-7.6 5.5-15 6.7-22.3.8-4.8 1.101-9.6 1-14.3-.399 1.1-.899 2.1-1.6 3.2-2.101 3.7-4.8 6.3-8.101 7.8-3.3 1.6-6.199 1.6-8.699.2-2.5-1.5-3.9-4-4.101-7.7-.1-1.9 0-3.8.601-5.7-2.501 1.7-5.101 3.8-7.601 6.101z"/><path id="sd1" fill="#3F3934" d="M1525 977.801c4.1 0 7.7 1.1 10.6 3.3 2.9 2.2 4.4 4.899 4.4 8 0 1.1-.2 2.1-.6 3.1.199.2.399.3.699.5 0-5.5-.5-11.5-1.5-17.899-23.5-14.101-48-22.101-73.399-24-3.301 4-6.2 8-8.5 12 3.8-.601 7.5-.601 10.899-.301 19.601 3.2 36.7 8.601 51.301 16.2 1.8-.601 3.9-.9 6.1-.9m218.3 54.799v-.8a462.239 462.239 0 0 0-14.899 19.8c.3 2.5 1.1 4.8 2.3 6.8 4.3-7.9 8.7-14.9 13.2-21.1-.401-1.4-.601-2.999-.601-4.7m23.4-18.5c.5-1.7 1.199-3.5 2.3-5.3 2.1-3.601 4.8-6.2 8.1-7.801 3.301-1.6 6.2-1.6 8.7-.1.3.2.7.4.9.6-.5-2.1-1.101-4.1-1.801-6.199-8.3 2.399-18.399 10.199-30.399 23.3 1.7.1 3.2.6 4.6 1.6 2.4-2.2 5-4.3 7.6-6.1z"/><path fill="#D9ACF0" d="M1527.7 921.2c-1.7-1.3-4.9-1.6-9.5-1-17.101 1.101-35.7 7.7-55.801 19.8 52.9 5.101 92.101 25.2 117.7 60.4.601.8 1.101 1.6 1.7 2.4-.2-.7-.4-1.5-.7-2.3-9.199-32.3-26.999-58.8-53.399-79.3m300.2 67.8c.1-8-1.4-16-4.5-24-1.2-3.899-3.301-5.6-6.301-5-19.399 4.4-38.199 17.801-56.3 40.2 13-10.7 26.5-16.2 40.4-16.399C1806.1 983.7 1815 985.4 1827.9 989z"/><path d="M1526.6 917.4c-17.1-2.9-39.5 4.1-67 21-29.3-12.6-47.899-33.7-55.699-63.4-1.9 19.101 11.6 43.301 40.5 72.601-23.4 12-41.801 26.8-55.2 44.399-9.6 13.2-6.7 20.4 8.8 21.601 76.9 3.399 141.5 23.2 193.601 59.2-29.7 15.199-46.101 26.5-49.2 34 20.2-12.801 38.899-23.801 56.2-32.801-1.9-27.199-6.5-51.5-13.601-72.899C1573 965 1553.5 937 1526.6 917.4m-8.4 2.8c4.6-.7 7.699-.399 9.5 1 26.5 20.601 44.3 47 53.5 79.4.199.8.399 1.5.699 2.3-.6-.8-1.1-1.6-1.699-2.4-25.601-35.199-64.801-55.3-117.7-60.399 20-12.201 38.6-18.8 55.7-19.901m-53 30.601c25.399 1.899 49.899 9.899 73.399 24 1 6.399 1.5 12.399 1.5 17.899v1.9c-.1 18-5.1 30.899-14.899 38.8-21.9-8-45.7-14-71.4-17.8-7.6-18.4-6.6-36 2.9-52.7 2.3-4.099 5.2-8.099 8.5-12.099m-7.4 1.799c-2.399 3.8-4.5 7.6-6.3 11.3-8 17.3-8.9 34.3-2.8 50.9-16.2-2.2-33.101-3.601-50.801-4.101-5.899-.399-9.399-2-10.3-4.899-.6-1.9-.1-4.301 1.5-7.2 16.601-24.6 39.501-39.9 68.701-46m107 45.6c2.9 3.2 5.7 6.601 8.7 10.2 13 22.8 19.9 43.5 20.8 62-.3-.2-.6-.5-.899-.7-19-14.1-40.301-25.699-64-34.8 10.199-8.3 15-21.2 14.6-38.9 0-.3 0-.6-.1-.8-.2-5.7-.9-11.899-2.301-18.6 7.4 5.4 15.1 12.6 23.2 21.6m-78.6-18.1c-3.4 2.1-5.601 5.2-6.7 9.2s-.7 7.8 1.2 11.3c1.8 3.5 4.6 5.8 8.3 6.8s7.2.4 10.6-1.8c3.4-2.2 5.601-5.2 6.7-9.2.6-2.3.7-4.5.4-6.7-.301-1.6-.801-3.1-1.601-4.6-1.8-3.5-4.6-5.8-8.3-6.8-3.799-.9-7.299-.3-10.599 1.8m333.6-23.5c-3.899-2.5-13.899 1-30 10.3-13.399 7.8-30.6 26.4-51.6 55.7-.1.3-.3.5-.5.8-9.6 14.1-17.2 29.8-22.6 47.1-.601 10.5 1.8 15 7.399 13.601 33.5-15.4 59.601-23.8 78.4-25.2 8-2.5 12.8-7.6 14.399-15.4h-2.6c-.9 3.5-4.2 7.2-9.8 11.2-7.3 0-13.4 1-18.2 3 4.3-8.6 7-17.399 8.1-26.3 1.2-8.8.801-17.8-1.1-26.9-.7-3.399-1.6-6.8-2.8-10.3 17.1-.8 27.6 1.9 31.399 8.2.801 2.2 1.4 5 1.801 8.4.3 2 .5 4.3.6 6.8.1 2.1.1 4.3.2 6.6 3.6-8.1 7.8-14.5 12.6-19.399 18.2-6.2 27.8-13.601 28.8-22.2-7.5 9.1-18.6 11.6-33.199 7.399.301-16.101-3.499-27.2-11.299-33.401m3.6 8.4c3.1 8 4.6 16 4.5 24-12.9-3.6-21.801-5.399-26.7-5.3-13.9.2-27.4 5.7-40.4 16.4 18.101-22.4 36.9-35.8 56.301-40.2 2.999-.5 5.099 1.2 6.299 5.1m-61.9 57.7c-.8-1-1.6-1.8-2.5-2.5-1.4-1-2.9-1.5-4.6-1.6 11.899-13.1 22-20.8 30.399-23.3.7 2.1 1.301 4.1 1.801 6.2.3 1.1.5 2.3.699 3.399.7 3.7 1.101 7.5 1.301 11.3.1 4.7-.2 9.5-1 14.301-1.2 7.3-3.4 14.699-6.7 22.3-2.4 4.6-4.9 7.4-7.3 8.6l-26.801 9.4c-7.8-3.1-13.199-7.2-16.1-12.4-1.2-2.1-2-4.399-2.3-6.8 5.199-7.3 10.199-13.9 14.899-19.8v.8c0 1.7.2 3.3.601 4.8.5 1.801 1.399 3.5 2.5 5 2.1 2.7 4.6 4.101 7.6 4.101 2.9 0 5.4-1.4 7.5-4.101 2.1-2.699 3.2-6 3.2-9.8 0-2-.301-3.8-.801-5.5-.598-1.6-1.398-3.1-2.398-4.4m-37.8 38.601c.899-1.7 1.899-2.101 3-1.101.6.9 1.199 1.801 1.8 2.601 3.5 4.6 7.2 7.699 11.2 9.3 1.699.7 1.8 1.5.199 2.3l-.3.101c-6.1 1.3-11.899 3.5-17.399 6.699-1 .2-1.7.101-2.2-.199-.8-.601-1-2-.4-4.301l4.1-15.4z"/></svg>