<svg xmlns="http://www.w3.org/2000/svg" id="eyes" viewBox="0 0 3000 3000"><path d="M1391.2 1004.6c9.3 16.7 21.5 28 36.8 33.8 7.1 2.3 19 .5 35.6-5.2 23.5-5.6 52.4-6.7 86.8-3.2 19.8 2.1 31.4 4.3 34.8 6.4-13.4 27.6-46.2 55.8-98.4 84.6 49.3-16 83-44.2 101-84.6 5.2.3 6.9-1.8 5.2-6.4l-1.8-1.2c-3.7-15.9-17.9-32.1-42.8-48.7.5 1.2 5.9 6.5 16.3 15.8 10.4 9.4 18 19.5 22.7 30.4-22.2-10.2-51.8-16.8-88.9-19.8-22.5-.6-39.9 1.7-52.3 6.8-14.4 5.4-27.3 4.5-38.6-2.8-11.3-7.2-17.8-15.2-19.6-23.9-.6 4.4.5 10.4 3.2 18m310.2 30.5c.2 1.7 1.3 2.9 3.5 3.8 2.8 7.5 7.3 14.7 13.4 21.5 20.4 23.2 41.6 38.5 63.7 46.1 7 2.8 13.5 4.4 19.6 4.7-49-21.9-79.5-45.9-91.4-72 38.6-7.8 72.4-8.1 101.2-.8 4.3 1.3 10.3-1.3 17.8-7.8 11.9-11.9 19.5-22.7 22.8-32.3-11.6 10.2-23 16.5-34.2 19.1-1.1.7-7.7-.8-19.6-4.4-14.6-2.9-30.7-2.1-48.3 2.4-17.6 4.6-32.1 9.8-43.5 15.8 4.6-12.4 16.3-28 35.2-46.9-24.9 17.9-38.3 34.9-40.2 50.8z"/></svg>