<svg xmlns="http://www.w3.org/2000/svg" id="eyes" viewBox="0 0 3000 3000"><path fill="#FFF" d="M1458.4 1037.9c12 7.2 28.5 11.6 49.399 13.1 20.101 2 38.601-2.899 55.601-14.8-37.3-.399-72.3.101-105 1.7m304.5 16.8c6 .3 12-1.7 18.1-6.1-17.9-2.101-33.6-3.601-47.2-4.5 10.4 7.201 20.1 10.8 29.1 10.6z"/><path fill="#C0BFE0" d="M1563.4 1036.2c4-2.8 7.8-5.899 11.6-9.399-45.7-.9-88.3-.101-127.8 2.199a55.453 55.453 0 0 0 11.199 8.9c32.701-1.599 67.701-2.099 105.001-1.7m170.4 7.9c13.601.899 29.301 2.399 47.2 4.5 2.7-1.9 5.3-4.3 8-7.2-23.6-2.6-45.6-4.6-65.9-5.9 3.6 3.301 7.2 6.1 10.7 8.6z"/><path d="M1623.7 1021.801c.199-5.9-.4-11.2-1.7-16.101-7.3-22.399-15.4-34.899-24.2-37.7 13.101 22.7 18.601 39.7 16.601 51.2-108.7-6.5-193-5.3-253 3.7-16.2 4.5-16.2 7.9 0 10.1l55.6-2.6c22 25.8 49.8 41.8 83.4 47.8 26.5 1.5 46.6-2.1 60.199-10.8 21.601-13.2 37.4-26.3 47.2-39.2h12c1.7-1.5 3-3.6 3.9-6.399m-183.5 7.799l-5.801 9.2c-3.5-2.9-6.899-6-10-9.2h15.801m3.2 4c1.1 1.3 2.199 2.5 3.399 3.6l-3.399 8.4c-2.101-1.4-4.101-2.9-6.101-4.5l6.101-7.5m6.9 6.8c2.101 1.9 4.4 3.6 6.801 5.3l-1.4 7.301c-2.9-1.601-5.7-3.2-8.4-4.9l2.999-7.701m129.4-2.2c1.399-1.5 2.8-3 4-4.6l3.5 2.899c-1.801 1.601-3.7 3.2-5.5 4.7l-2-2.999m6.5-7.899c.699-1 1.399-2 2-3.101h9.199c-2.6 2.5-5.199 4.9-7.8 7.2l-3.399-4.099m-11.2-3.5c-3.8 3.5-7.6 6.6-11.6 9.399-17 11.9-35.5 16.801-55.601 14.801-20.899-1.5-37.399-5.9-49.399-13.101-4.301-2.6-8-5.6-11.2-8.899 39.5-2.301 82.1-3.101 127.8-2.2m-4.1 22.599l-1.101-2.6c2.4-1.7 4.601-3.5 6.7-5.4l2.1 2.2c-2.599 2.1-5.099 4-7.699 5.8m-5-.099l1.8 2.3c-3.2 2.2-6.4 4.3-9.6 6.1l-1.5-3.3c3.4-1.6 6.5-3.201 9.3-5.1m-13.5 6.899l2 3.601c-3.9 2.1-7.7 4-11.601 5.5l-1.5-5.4c3.901-1.1 7.601-2.301 11.101-3.701m-81.6 4l1-6.399c4.7 2 9.7 3.699 15 5.1v7c-5.5-1.701-10.9-3.6-16-5.701m-2.3-7.899v6.899c-3-1.3-5.9-2.6-8.8-4.1l1.8-6.5c2.2 1.3 4.6 2.5 7 3.701m22.3 14.899l.801-7.3c4.3 1 8.899 1.7 13.6 2.3v7.7c-5.101-.5-9.901-1.4-14.401-2.7m36.6-4.5c3-.399 6.1-.899 9.3-1.5.1 0 .3-.1.4-.1.199 0 .3-.101.5-.2l2.399 5.5c-3.6 1.3-7.1 2.4-10.5 3.2-.399 0-.8.1-1.2.1l-.899-7m-17.1.101c2 .199 4.101.399 6.101.5 2.399 0 4.899-.101 7.399-.301l1.601 7c-5.301.4-10.301.5-15.101.301v-7.5M1701 1033.2c10.2 21.8 27.2 35.101 51 40 15.4 1.8 27.1-.1 35.2-5.6 11.399-7.5 19.8-15.7 25.199-24.8h9.801c-1.601-2.301-3.5-4.2-5.601-5.801-1-.199-2.3-.5-3.8-.699-35.7-5.2-75.2-9.5-118.3-12.801v9.601h6.5m5.101 1h6.9l-1.8 5.899c-1.7-1.899-3.4-3.799-5.1-5.899m16.2 8.201l.301 8.6c-2.801-2.4-5.7-5.1-8.5-8l1.899-6.6c2.1 2.199 4.2 4.199 6.3 6m13.6 10.399l.699 7.9c-3.5-1.9-7-4.2-10.6-6.9v-8.1a96.873 96.873 0 0 0 9.901 7.1m4.7 9.9v-7.3c3.2 1.699 6.5 3 9.7 3.899l1.4 6.9c-3.7-.699-7.4-1.899-11.1-3.499m39.7-.1l-1.3-5.6c2.5-1.3 4.9-3 7.3-4.9l2.2 5.2c-2.9 2.101-5.6 3.9-8.2 5.3m-4.3-4.1l1.3 5.5c-3.699 1.6-7.199 2.5-10.699 2.7l-.4-5.7a31.437 31.437 0 0 0 9.799-2.5m5-9.8c-6.1 4.399-12.1 6.5-18.1 6.1-9 .2-18.7-3.399-29.101-10.6-3.5-2.4-7.1-5.3-10.699-8.601 20.3 1.301 42.3 3.301 65.899 5.9-2.699 2.801-5.299 5.201-7.999 7.201m-26.8 11.6c2.5.5 5 .8 7.5.8h.3l.8 5.801c-2.6.199-5.3.1-7.899-.301l-.701-6.3m40.5-16.8l.6-.6h1.1l1.4 5.8c-.6.7-1.3 1.3-1.9 1.9l-1.2-7.1m5.8 2.5l-.7-3.1h3.5c-.9 1.1-1.9 2.1-2.8 3.1m-11.2 3.401c.801-.7 1.5-1.5 2.301-2.301l1.6 6.2-2.1 1.8-1.801-5.699z"/></svg>