<svg xmlns="http://www.w3.org/2000/svg" id="eyes" viewBox="0 0 3000 3000"><path fill="#FFF" d="M1524.3 1023.3c-1 9.4-6.1 14-15.4 13.8-10.1.2-16.1-4.6-17.8-14.2-12 0-23.7.1-35.2.4 3.8 11.1 14.2 20.2 31.3 27.3 12.1 3.1 21.9 1 29.3-6.3 8.5-7.1 14-14.1 16.3-20.7-3.1-.2-5.9-.3-8.5-.3m248.7 3.1h-6.7c-.5 7.7-4.7 11.8-12.5 12.2-8 .4-12.2-3.6-12.7-12-7.9.1-15.8.3-23.7.6 5.6 13.6 15 20.3 28.1 20.3 13.1-.1 22.3-7.1 27.5-21.1z"/><path d="M1622.1 1016.2v-17.6c-1.4-8.6-3.1-15.3-5.2-20.1-11.4-26.7-20.7-40.6-27.7-41.7 16.8 21.4 26.1 42.7 28 63.8v12.6c-1.5 5.9-6.5 9-15 9.4-10-.2-25.4-1.5-46-3.8h-.8c-.4 0-.8-.1-1.3-.1-43.6-2.5-86.2-2.4-127.7 0l-3.9.3c-2 .1-3.9.3-5.9.4l-3.9.3c-15 1.1-29.9 2.6-44.7 4.3l-5.5 2.6c1.2.4 10.3.2 27.2-.7 4.9 7.2 12.6 14.9 23 23.1 1.6 1.3 3.2 2.5 4.8 3.8 1.6 1.2 3.3 2.4 5 3.6 1.6 1.2 3.3 2.4 5.1 3.6 2.5 1.7 5.2 3.5 7.9 5.3 1.7 1.1 3.4 2.2 5.2 3.3 7.6 4.8 15.9 9.7 25 14.8 20.2 8 39.3 9.6 57.4 4.8 21.5-8 42.8-28.3 64-60.9l11.8.9c11.8.8 19.5-3.2 23.2-12m-195.4 7.8c2.9-.1 5.9-.2 8.9-.3v35.1c-2.8-1.8-5.6-3.6-8.2-5.3l-.7-29.5m12.9-.5c2.7-.1 5.5-.1 8.3-.2v43c-2.5-1.5-4.9-2.9-7.3-4.4l-1-38.4m11.2-.2h1.1c1.2 4.7 3.8 9.2 7.7 13.7l1.9 37.3c-3.3-1.8-6.4-3.6-9.5-5.4l-1.2-45.6m-43.4 1.6c1.7-.1 3.4-.2 5.2-.3h.1v18c-2-1.6-3.9-3.1-5.7-4.7l.4-13m7.8-.4c.5 0 1.1-.1 1.7-.1 1.9-.1 3.8-.2 5.8-.3v25.9c-1.8-1.3-3.5-2.5-5.2-3.8-.8-.6-1.5-1.1-2.3-1.7v-20m-11 .6l-.4 9.8c-3.5-3.2-6.4-6.3-8.8-9.3 2.8-.1 5.9-.3 9.2-.5m135.9-1.5l12.7 1.1 2.2 36c-3.4 3-7 6-10.8 8.9l-4.1-46m26.5 2.1l3.1.3 1.1 18.3c-1.3 1.6-2.7 3.2-4.1 4.8l-.1-23.4m-11.3-.9l7.8.6.8 26.5c-2.2 2.3-4.5 4.5-6.8 6.7l-1.8-33.8m17.3 17.2l-.8-15.9 10.8.8c-2.8 5.2-6.2 10.2-10 15.1m-43.5-3.5c2.7-3.4 5.4-7.3 8-11.7l3.6 45.2c-3.4 2.5-7 4.9-10.7 7.3l-.9-40.8m-20.2-1.5c9.3.2 14.4-4.3 15.4-13.8 2.6.1 5.4.1 8.4.2-2.3 6.7-7.7 13.6-16.3 20.7-7.4 7.3-17.2 9.4-29.3 6.3-17.1-7.1-27.5-16.2-31.3-27.3 11.4-.3 23.1-.4 35.2-.4 1.8 9.7 7.8 14.5 17.9 14.3m-30 15.2c2.6 1.4 5.3 2.4 8.3 3l.9 28.9c-2.9-.6-6-1.3-9.2-2.1v-29.8m-15.2-11.1c3.2 3 7.1 6 11.6 8.9v31c-.9-.2-1.8-.5-2.7-.8-2.5-1.3-4.9-2.6-7.3-3.9l-1.6-35.2m27.5 43.5l-1-28.9c2.9.4 6.1.5 9.4.3l1.3 29.7c-3.1-.2-6.3-.5-9.7-1.1m11.5-28.9c4.3-.3 8.6-1.8 12.9-4.5l.8 33.7c-3.6.7-7.5 1-11.7 1l-2-30.2m24 25.6c-2 1.1-4.2 1.9-6.6 2.6l-1.4-34.9c2.7-2 5.3-4.6 7.9-7.6l.1 39.9m157.9-83.3c-6.2 17.6-3.4 27 8.4 28 7.7 16.6 20.7 31.9 39 45.8 13.2 7.7 30.3 7 51.4-2 17.1-9.2 30.5-23.7 40.2-43.7h8.8c1.7-1.8 1.7-3.7.1-5.6-17.6-1.5-60.9-.9-129.7 1.6-9.5.7-14.8-1.1-15.8-5.6-2.5-7.2 2.2-19.8 14-37.8-4.8 1.9-10.2 8.3-16.4 19.3m94.8 28.4h4.6l3.3 34.8c-1.4 1-2.8 1.9-4.2 2.7l-3.7-37.5m-7.4 12c1.7-2.2 3.4-4.7 4.9-7.4l1.6 35.3c-1.4.7-2.8 1.2-4.3 1.7l-2.2-29.6m-5.7-12h6.7c-5.2 14-14.4 21-27.5 21s-22.4-6.7-28.1-20.3l23.7-.6c.4 8.4 4.6 12.4 12.7 12 7.9-.3 12-4.4 12.5-12.1m-64.7 1.3v5.3c-1.1-1.7-2.1-3.4-3.2-5.1 1.1-.1 2.1-.2 3.2-.2m4.6-.2c1.8-.1 3.6-.1 5.4-.2v19.3c-1.8-2.2-3.7-4.6-5.5-7.1l.1-12m19.3 18.4c2.7 2.1 5.7 3.7 8.8 4.8l.8 16.7c-3.2-1.9-6.4-4.1-9.5-6.8l-.1-14.7m-3.8-3.5v14.9c-1.8-1.6-3.5-3.3-5.3-5.2l.2-16.4c1.6 2.5 3.3 4.8 5.1 6.7m17.6 27.2l-.9-17.8c2 .4 4 .6 6.1.7h.7v18.8c-1.6-.3-3.5-.9-5.9-1.7m22.6-21.8c2.5-1.6 4.8-3.5 7.1-5.9l.7 27.5c-2.1.6-4.1 1-6.1 1.4l-1.7-23m-12.2 4.4c3.2-.4 6.2-1.3 9-2.6l.2 21.9c-3.1.3-6.2.4-9.1.2l-.1-19.5m37.5-25.8c1.8 0 3.6 0 5.4.1l3 28.1c-1.6 1.4-3.1 2.8-4.7 4l-3.7-32.2m8.9.2c1.9 0 3.8.1 5.7.1l2.7 18.8c-1.8 2.1-3.7 4.1-5.6 6l-2.8-24.9m16.5.2c1.9.1 3.9.1 5.8.2-1.6 2.5-3.3 4.8-4.9 7.1l-.9-7.3m-6.8-.1c1.4 0 2.7.1 4.1.1l.9 10.9c-1.1 1.4-2.2 2.8-3.3 4.1l-1.7-15.1z"/></svg>