<svg xmlns="http://www.w3.org/2000/svg" id="eyes" viewBox="0 0 3000 3000"><path fill="#FFF" d="M1564.4 1045.8c1.8-21.2-4.3-39.2-18.4-53.9-14-14.7-31-22.2-51-22.4-19.9-.1-36.9 6.4-50.9 19.7-6.3 6-11.1 12.5-14.5 19.5 9.7-9.1 21.3-14.1 34.8-15.1 14.4-1.1 26.1 3.1 35.1 12.8 9 9.7 13.1 22.3 12.3 37.8-.7 15.6-4.9 27.2-12.6 35-7.6 7.8-18.8 11.8-33.5 12.1-4.2 0-8.3-.3-12.2-.9 12.4 8.4 26.9 13.1 43.4 14.3 20.3 1.4 36.3-2.7 47.8-12.3 11.4-9.8 18-25.3 19.7-46.6m-111.6-43.5c-4.2 3.1-6.3 6.9-6.3 11.3s2.1 8.2 6.3 11.3c4.3 3.1 9.4 4.7 15.4 4.7s11.2-1.6 15.4-4.7c4.3-3.1 6.4-6.9 6.4-11.3s-2.1-8.2-6.4-11.3c-4.2-3.1-9.4-4.7-15.4-4.7s-11.2 1.6-15.4 4.7m263.8-12c-4.5 6.2-7.7 13.1-9.8 20.5 5.2-5.4 12.2-8.6 21.1-9.5 8.9-.9 16.6 1.9 23.2 8.5 6.6 6.6 11.4 17.2 14.6 31.7 3.2 14.6 2.1 27-3.3 37.3-5.4 10.3-13.2 15.8-23.3 16.7-2.6.2-5.1.1-7.5-.3 9.2 7.8 19.4 11.6 30.5 11.3 14.5-.4 25.5-7.4 33.1-21.3 7.6-13.8 11-30 10.2-48.5-.8-18.5-6.1-34.4-15.8-47.7-9.7-13.2-21.9-19.6-36.5-19.3-14.8.3-26.9 7.2-36.5 20.6m34 36c.9-4.3.2-8.5-2.1-12.5-2.3-4-5.6-6.7-9.8-8-4.2-1.4-8.1-1-11.8 1.1-3.6 2.1-5.9 5.3-6.8 9.7-.9 4.3-.2 8.5 2.1 12.5 2.3 4 5.6 6.7 9.8 8.1 4.2 1.4 8.2 1 11.8-1.1s5.9-5.5 6.8-9.8z"/><path d="M1527.3 961.2c-9.6-4-20-6-31.3-6-22.2 0-41 7.6-56.6 22.9-13.8 13.7-21.4 29.8-22.6 48.5-.2 2.3-.2 4.6-.2 6.9.2 21 7.7 38.5 22.5 52.6.5.4.9.9 1.4 1.3 15.7 14.3 34.8 22.2 57.4 23.8 22.6 1.7 40.3-3.1 53-14.3 12.8-11.1 20.1-29.8 22.1-56 2-25.9-4.6-46.5-19.8-61.9 19.6-11.4 27.9-22.2 24.9-32.6-12.3 14.8-29.2 19.7-50.8 14.8m-80.9 52.4c0-4.4 2.1-8.2 6.3-11.3 4.3-3.1 9.4-4.7 15.4-4.7s11.2 1.6 15.4 4.7c4.3 3.1 6.4 6.9 6.4 11.3s-2.1 8.2-6.4 11.3c-4.2 3.1-9.4 4.7-15.4 4.7s-11.2-1.6-15.4-4.7c-4.2-3.1-6.3-6.9-6.3-11.3m99.7-21.7c14.1 14.7 20.2 32.7 18.4 53.9-1.8 21.3-8.4 36.7-19.9 46.5-11.5 9.6-27.4 13.7-47.8 12.3-16.5-1.2-30.9-5.9-43.4-14.3 3.9.6 8 .9 12.2.9 14.7-.2 25.9-4.3 33.5-12.1 7.7-7.8 11.9-19.4 12.6-35 .8-15.6-3.3-28.2-12.3-37.8-9-9.6-20.6-13.9-35.1-12.8-13.5 1-25.1 6-34.8 15.1 3.4-7 8.2-13.5 14.5-19.5 14-13.2 30.9-19.8 50.9-19.7 20.1.3 37.1 7.8 51.2 22.5m257.5-18.6c10.9-12 14.7-20.7 11.6-26.1-7.7 12.3-19.6 17.2-35.5 14.5-7.3-4.6-15.3-6.9-24-6.9-16 0-29.7 7.6-41.1 22.9-10 13.4-15.6 29.3-16.8 47.7-.1 2.4-.2 4.9-.2 7.5 0 21.5 5.8 39.7 17.3 54.6h.1c11.5 14.8 28 22.6 49.5 23.4 7.1.3 13.5-.8 19-3.3 15.2-8.6 24.4-25.1 27.8-49.5.8-7.1 1.2-15.3 1.3-24.8.3-20.5-4.8-38.3-15.2-53.5l6.2-6.5m-55.1 40.5c2.3 4 3 8.2 2.1 12.5-.9 4.3-3.2 7.5-6.8 9.6s-7.6 2.5-11.8 1.1c-4.2-1.4-7.4-4.1-9.8-8.1-2.3-4-3-8.2-2.1-12.5.9-4.3 3.2-7.5 6.8-9.7 3.6-2.1 7.6-2.5 11.8-1.1 4.2 1.5 7.5 4.2 9.8 8.2m-41.7-3c2.1-7.4 5.3-14.3 9.8-20.5 9.6-13.4 21.7-20.2 36.3-20.6 14.6-.4 26.8 6 36.5 19.3 9.7 13.2 15 29.1 15.8 47.7.8 18.6-2.5 34.7-10.2 48.5-7.6 13.8-18.6 20.9-33.1 21.3-11.1.3-21.3-3.5-30.5-11.3 2.5.4 5 .5 7.5.3 10.1-.8 17.9-6.4 23.3-16.7 5.4-10.3 6.5-22.7 3.3-37.3-3.2-14.6-8-25.1-14.6-31.7-6.6-6.6-14.3-9.4-23.2-8.5-8.8.9-15.8 4.1-20.9 9.5z"/></svg>