<svg xmlns="http://www.w3.org/2000/svg" id="mouth" viewBox="0 0 3000 3000"><path id="cl2" fill="#010101" d="M1756.5 1150.2c6.4-4.1 12.9-5.7 19.3-.5 3-3 2.5-7.3 5.6-9.5 1.4.8 3.2.6 4.6 1.7.4.6.8.7 1.4.3 1.4.7 3.1.7 4.5 1.4.5.6 1.1.7 1.8.5 1.2 1 2.9.8 4.2 1.5.5.6 1.1.7 1.8.5 1.8 1.6 4.5.2 6.2 1.8.6 1.2 1.2 2.3 1.8 3.5-1.3 2-.2 4.6-1.6 6.6-.1 1.1-.3 2.2-.4 3.3-1.2 2.1-.2 4.7-1.6 6.7-.1 1.1-.3 2.2-.4 3.3-1.2 2.1-.2 4.6-1.6 6.7-.1 1.1-.3 2.2-.4 3.4-1.2 2.1-.2 4.6-1.6 6.6-.1 1.1-.3 2.2-.4 3.4-1.2 2.1-.2 4.6-1.6 6.6-.1 1.1-.3 2.2-.4 3.4-1.2 2.1-.2 4.6-1.6 6.6-.1 1.1-.3 2.3-.4 3.4-1.2 2.1-.4 4.5-1.4 6.6-.8 1.2-.7 2.5-.5 3.8-2 2.5 0 5.7-1.7 8.2-.1 1.2-.2 2.5-.3 3.7-1.9 2.5 0 5.8-1.7 8.3-.1 1.2-.2 2.5-.3 3.7-1.9 2.5 0 5.8-1.7 8.3-.1 1.8-.3 3.6-.4 5.4-1.2 2.1-.4 4.5-1.4 6.6-1.1 4.7-1 9.4 0 14.1 1.1 12.6 1 25.3 0 37.9-.8 1-.9 2.2-.6 3.4-.3 1.1-1 1.8-1.7 2.7-.7.6-1.3 1.2-1.9 2l-.1.1c-.8.5-1.4 1.1-1.9 1.9l-.1.1c-.8.5-1.4 1.1-1.9 1.9l-.1.1c-.8.5-1.4 1.1-1.9 1.9l-.1.1c-.8.5-1.4 1.1-1.9 1.9l-.1.1c-.8.5-1.4 1.2-2.2 1.8h.1c-.6.8-1.3 1.6-2.4 1.8l.2-.2c-.3 1.1-1.1 1.8-2.2 2.2l.2-.2c-.6 1.7-2.8 1.1-3.5 2.5l-.1.1c-.9.4-1.4 1.2-2.2 1.7h.1c-.6.8-1.3 1.6-2.4 1.8l.2-.2c-.6 1.7-2.8 1.1-3.5 2.5l-.1.1c-.9.4-1.4 1.2-2.2 1.7h.1c-.6.8-1.3 1.6-2.4 1.8l.2-.2c-.6 1.7-2.8 1.1-3.6 2.5l-.1.1c-.8.5-1.4 1.4-2.4 1.7l.2-.1c-.7 1.6-2.8 1-3.6 2.4l-.1.1c-.9.4-1.4 1.2-2.2 1.7h.1c-1 1.3-2.9.8-3.8 2.2l-.1.1c-.8.5-1.4 1.4-2.4 1.7l.2-.1c-.8 1.6-2.8 1.1-3.9 2.3-.7.8-1.5 1.6-2.6 1.8h-.8l-.5.6c-.8.5-1.6 1.2-2.6 1.5h-.9l-.5.7c-.8.4-1.5.9-2.1 1.5h.1c-1 1.3-2.9.9-4 2.1h.1c-1.3 1.3-3.1 1.1-4.6 1.8l-.8-.1-.6.6c-1.3.9-3 .6-4.2 1.6l-1-.1-.8.6c-1.5.7-3.1.8-4.6 1.4-1.1.1-2.2.3-3.4.4-2 1.3-4.6.4-6.6 1.6-1.8.1-3.6.3-5.4.4-3.4 1.8-7.3-.2-10.7 1.6-4.5-.1-8.9-.5-13.3.4-16 1.3-32 1.3-48 0-1.8-.1-3.6-.3-5.3-.4-2.7-1.5-6 0-8.7-1.6-1.8-.1-3.6-.3-5.4-.4-2.7-1.6-5.9 0-8.6-1.6-1.8-.1-3.6-.3-5.4-.4-2.7-1.6-5.9 0-8.6-1.6-1.8-.1-3.6-.3-5.4-.4-2.7-1.6-5.9 0-8.6-1.6-1.8-.1-3.6-.3-5.4-.4-2.7-1.6-5.9 0-8.6-1.6-1.3-.1-2.5-.2-3.8-.3-2.5-1.9-5.6-.1-8.2-1.5-1.7-1-3.6-.8-5.5-.6-2-1.2-4.5-.4-6.6-1.4-1.7-1-3.6-.8-5.4-.6-2-1.3-4.6-.2-6.6-1.6-1.3-.1-2.5-.2-3.8-.3-1.8-1.6-4.3-.4-6.2-1.5-1-.8-2.2-.9-3.4-.6-2-1.3-4.6-.2-6.6-1.7l-.6-.5-.8.2c-1.4-.7-3.1-.7-4.5-1.4l-.8-.6-1 .1c-1.2-1.1-3.1-.7-4.2-2-1.1-1.1-2.8-.8-4-1.6l-.6-.6-.8.1c-1-.2-1.8-.9-2.6-1.5l-.6-.6-.8.1c-1.5-.8-3.3-.6-4.6-1.8-1.1-1.1-3-.8-4-2-1.1-1.1-2.9-.8-4.1-1.8l-.6-.5-.8.2c-1-.2-1.8-.9-2.6-1.5l-.6-.6-.8.1c-1-.2-1.8-.9-2.6-1.5l-.6-.6-.8.1c-1-.2-1.8-.9-2.6-1.5l-.6-.6-.8.1c-1.5-.8-3.3-.6-4.6-1.8-1.1-1.1-3-.8-4-2-1.1-1.1-3-.8-4-2-1.1-1.1-3-.8-4-2-1.1-1.1-2.8-.8-4-1.6l-.6-.6-.8.1c-1-.2-1.8-.9-2.6-1.5l-.6-.6-.8.1c-1-.2-1.8-.9-2.6-1.5l-.6-.6-.8.1c-1-.2-1.8-.9-2.6-1.5l-.6-.6-.8.1c-1-.2-1.7-.9-2.6-1.4l-.7-.5h-.9c-1.1-.5-1.9-1.3-2.2-2.5.3-.6.2-1-.3-1.4-1.1-1.3-.9-3.1-1.7-4.6.4-.6.2-1.1-.3-1.4-1.6-1.8-.2-4.5-1.8-6.2.3-.7.1-1.3-.5-1.8-.7-1.3-.5-3-1.5-4.2.3-.7.1-1.3-.5-1.8-.7-1.3-.5-3-1.5-4.2.3-.6.2-1.2-.3-1.8-1-1.3-.7-3-1.7-4.3.3-.7.2-1.3-.4-1.7-.8-1.3-.6-3-1.6-4.3.3-.7.2-1.3-.4-1.7-.8-1.3-.6-3-1.6-4.3.3-.7.2-1.3-.4-1.7-.8-1.3-.6-3-1.6-4.3.3-.7.1-1.3-.4-1.7-.8-1.3-.5-2.9-1.6-4.1v.1c-1.3-1.3-1.1-3.1-1.9-4.6.3-.6.1-1.1-.5-1.4-.6-.8-1.3-1.6-1.5-2.7.3-.6.1-1.1-.5-1.3-.6-.8-1.3-1.6-1.5-2.7.4-.6.3-1-.3-1.3-1.1-1.1-.7-3-1.9-4.1v.1c-1.3-1.1-.9-2.9-2-4.1v.1c-1.3-1.1-1-2.9-2-4.1v.1c-1.3-1.2-1.2-3.1-1.9-4.6.3-.6.1-1.1-.5-1.4-.6-.8-1.3-1.6-1.5-2.6.3-.6.1-1.1-.5-1.4-.6-.8-1.3-1.6-1.5-2.7.3-.6.1-1.1-.5-1.3-.6-.8-1.3-1.6-1.5-2.7.3-.6.1-1.1-.5-1.3-.6-.8-1.3-1.6-1.5-2.7.3-.6.1-1.1-.5-1.3-.6-.8-1.3-1.6-1.5-2.7.3-.6.1-1-.5-1.3-.6-.8-1.3-1.6-1.5-2.7.4-.6.3-1-.3-1.3-1.1-1.1-.7-3-1.9-4.1v.1c-1.3-1.1-.9-2.9-2-4.1v.1c-1.3-1.1-.9-2.9-2-4.1v.1c-1.3-1.1-.9-2.9-2-4.1v.1c-1.3-1.1-.9-2.9-2-4.1v.1c-1.3-1.1-.9-2.9-2-4.1v.1c-.7-.6-1-1.3-1-2.2.2-1.4 1-2.3 2.4-2.6.9-.1 1.7.1 2.5.5 1 .8 2.2.9 3.5.6 1.5.7 3.2.6 4.6 1.6.5.5 1.1.6 1.8.3 1.8 1.6 4.4.3 6.2 1.7.5.5 1.1.6 1.8.3 1.2 1 2.9.8 4.2 1.5 1 .8 2.1.9 3.3.6 1.8.8 3.6.9 5.4 0 .6.3 1.1.1 1.3-.5.8-.6 1.6-1.3 2.7-1.5.6.3 1.1.1 1.3-.5.8-.6 1.6-1.3 2.7-1.5.6.3 1.1.1 1.3-.5.8-.6 1.6-1.3 2.7-1.5.6.3 1.1.1 1.3-.5.8-.6 1.6-1.3 2.6-1.5.6.3 1.1.1 1.4-.5.8-.6 1.6-1.3 2.6-1.5.7.2 1.1 0 1.4-.7.8-.4 1.5-.9 2.1-1.5l-.1.1c1-1.4 2.9-1 4-2.1h-.1c1.1-1.3 2.9-.9 4.1-2h-.1c1.1-1.3 2.9-.9 4.1-2h-.1c1.1-1.3 2.9-.9 4.1-2h-.1c1.1-1.3 2.9-.9 4.1-2h-.1c.7-.9 1.5-1.6 2.7-1.8.6.3 1 .1 1.3-.5.8-.6 1.6-1.3 2.7-1.5.6.3 1.1.1 1.3-.5.8-.6 1.6-1.3 2.6-1.5 1.1-.1 2.2-.3 3.4-.4 1.8-1.4 4.4-.1 6.2-1.7 1.3.2 2.6.4 3.8-.5 2.1-1 4.5-.2 6.6-1.4 1.8-.1 3.6-.3 5.4-.4 4-1.9 8.6.4 12.6-1.6h10.7c1.1.2 1.9 1 2.6 1.9h-.1c.8.5 1.3 1.3 2.2 1.7l.1.1c.8 1.4 2.9.9 3.6 2.4l-.2-.1c1 .3 1.6 1.1 2.4 1.7.5.7 1.1 1.2 1.9 1.6.7.2 1.3.4 2 .6 1.3-.1 1.3-1.5 1.9-2.2.6-.3.7-.8.4-1.4.2-1 .9-1.7 1.5-2.6.6-.3.8-.8.5-1.4.3-1.1 1-1.8 1.7-2.7v-.1c.7-.6 1.3-1.2 1.9-2l.1-.1c.7-.4 1.3-1 1.6-1.8.7-.2.9-.7.7-1.4.3-1.3 1.1-2.1 2.4-2.4.6.2 1.1.1 1.3-.6.7-.5 1.4-1 2.1-1.6l-.1.1c.7-.9 1.5-1.6 2.6-1.9.6.3 1.1.1 1.4-.5.8-.5 1.6-1.2 2.6-1.5.6.3 1 .2 1.4-.4 1.2-1.1 3-.7 4.2-1.8 6.4.7 13-.8 19.2 2.1 1.5.8 3.2.6 4.6 1.7.3.6.8.7 1.4.3 1.1.3 1.9 1 2.5 2l-.1-.1c.9.6 1.7 1.2 1.9 2.3l-.1-.1c1.1.3 1.7 1.1 2.3 1.9l-.1-.1c.9.5 1.6 1.2 2 2.2l-.1-.2c1 .4 1.7 1.1 2.1 2.1l-.2-.1c1 .3 1.6 1.1 2.3 1.8 1.2 1.1.8 2.9 2 4.1 1.2 1 .8 2.9 2.1 3.9v.1c1.3 1.4 2.6 1.1 4 .1v.1c.5-.8 1.3-1.4 1.8-2.2l.1-.1c.8-.5 1.4-1.1 1.9-1.9l.1-.1c.8-.5 1.4-1.1 1.9-1.9l.1-.1c.8-.5 1.4-1.1 1.9-1.9l.1-.1c.8-.5 1.4-1.2 2.2-1.8h-.1c.7-.9 1.5-1.6 2.6-1.9.6.2 1.1.1 1.4-.6.8-.5 1.6-1.2 2.6-1.5.6.3 1.1.1 1.4-.5 1.3-.8 3-.6 4.2-1.6 3.7 0 7.4.1 11.2.1 1.5.8 3.3.6 4.6 1.8 1.1 1.1 3 .8 4 2.1l-.1-.1c.8.5 1.4 1.3 2.2 1.8l.1.1c.5.7 1.2 1.4 1.9 1.9l.1.1c.5.8 1.1 1.4 1.9 1.9l.1.1c.5.8 1.1 1.4 1.9 1.9l.1.1c.5.8 1.2 1.4 1.8 2.2v-.1c.8.6 1.6 1.3 1.9 2.3l-.2-.2c1.7.7 1.2 2.8 2.4 3.9 1.4 1.1 2.8 1.6 4.2 0v.1c1.1-1.1.7-3.1 2.3-3.9l-.1.2c.2-1 1.1-1.6 1.7-2.4.7-.5 1.2-1.2 1.6-1.9.7-.2.9-.6.7-1.3.3-1.2.9-2.1 2.2-2.5l-.2.2c.3-1.1 1-1.9 2.2-2.2l-.2.2c.3-1.1 1-1.9 2.2-2.2l-.2.2c.6-1.7 2.8-1.2 3.6-2.5l.1-.1c.8-.6 1.6-1.4 2.7-1.7.6.3 1.1.1 1.4-.5 1.3-.8 3-.6 4.2-1.6h9.5c1.2 1 2.9.8 4.2 1.6.3.6.8.8 1.4.5 1.1.3 1.8 1 2.7 1.7l.1.1c.8 1.4 3 .8 3.6 2.5l-.2-.2c1.1.3 1.8 1 2.2 2.2l-.2-.2c1.1.3 1.8 1 2.1 2.2l-.2-.2c1.1.3 1.9 1 2.2 2.2l-.2-.2c1.3.3 1.9 1.2 2.2 2.5-.2.7 0 1.1.7 1.3.4.7.9 1.4 1.6 1.9.6.8 1.5 1.3 1.7 2.4l-.1-.2c1.6.8 1.2 2.8 2.3 3.9v-.1c2.6 1.8 2.9-1 4.2-2v.1c1.1-1.1.8-3 2-4.1v.1c1.1-1.1.6-3.2 2.4-3.9l-.2.2c.3-1.1 1-1.9 2.1-2.2l-.2.2c.3-1.1 1-1.8 2.2-2.2l-.2.2c.3-1.1 1-1.8 2.2-2.1l-.2.2c.4-1.3 1.2-1.9 2.5-2.2.6.3 1.1.1 1.3-.6.8-.6 1.6-1.3 2.6-1.5.6.3 1.1.1 1.4-.5 1.5-.8 3.2-.9 4.7-1.5h10.6c1.5.7 3.4.6 4.7 1.8h-.1c1.1 1.1 3.2.7 3.9 2.4l-.2-.2c1.1.3 1.8 1 2.2 2.1l-.2-.2c1.1.3 1.8 1 2.2 2.2l-.2-.2c1.2.4 1.9 1.3 2.2 2.5-.2.7 0 1.1.7 1.3.4.8.9 1.5 1.5 2.1v-.1c1.3 1.4 2.5 1.3 3.8-.1.7-.2.9-.6.7-1.2.2-1.3.9-2.1 2.2-2.5l-.2.2c.2-1.1 1-1.7 1.8-2.4l-.1.1c.5-.8 1.3-1.4 1.8-2.2l.1-.1c.8-.5 1.4-1.3 2.2-1.8h-.1c.4-.7 1.2-1.4 2.2-1.8z"/><path id="sd2" fill="#86877F" d="M1611.9 1378.2c-16-1-31.6-4-47.4-6.3-22-3.2-44-7-66-10.6-10.5-1.8-20.6-5.2-30.3-9.8-19.6-9.2-39.2-18.3-58.8-27.4-3.8-1.7-6.6-3.7-7.7-8.3-10.9-41.8-29.6-80.4-49-118.8-.7-1.5-1.4-3-2.4-5.3 7-.3 12.7 2.3 18.5 4 4.8 1.4 8.9.9 13.3-1.5 13.7-7.5 27.7-14.4 41.5-21.9 4.4-2.4 7.1-2.6 9.3 2.6 1.9 4.6 4.3 9 6.5 13.4-1.9 3.6-1.4 7.2.2 10.6 7.4 16 13.8 32.5 26.9 45.2 5.7 5.6 10.1 12.4 15.2 18.6 4.7 5.8 5.5 11.7 2.6 18.6-3 7.4-5.9 14.9-8.3 22.5-3.8 12.1-2.2 15.9 9 21.8 15.4 8.2 32.1 12.8 48.7 18 22 6.9 44.8 10.2 67.4 14.2 4.8 1.3 10.4 1.2 12.9 6.8 1 4.8 1.5 9.5-2.1 13.6zm-83.7-112.5c-7.4-22.3-14.6-44.8-17.2-68.2-1.7-15.1-2.6-30.4 1-45.5-11.9 9.8-16.9 22.6-15.6 37.7.9 10.6 3.3 20.9 7.7 30.8 5.5 12.4 10.6 25 15.9 37.5 3.7 5.2 5.1 11.7 9.7 16.4.9-3.2-.6-5.9-1.5-8.7zm54.6-66.3c0-5.6.2-11.2-.1-16.8-.2-4.2.7-9.1-3.9-11.4-5-2.5-7.6 2.6-11.1 4.5-2.5 13.3-.4 26.8-1.5 40.2-.3 3.2 1.9 4.7 4.7 5.5 2.9.8 5.8 1.1 8.8.8 6.4 2.9 13.4 2.1 20 3.3 1.4.7 3.1.3 4.6.8s2.9 1 4.4 1.2c3.6.2 6.9.7 10.4.3 1-.2 1.9 0 2.9-.5.9-.5 1.7-1.1 2.4-1.9.6-.8.4-1.8.7-2.8.3-1 1.3-2 1.3-3-.1-4.1 1.1-8.5-2.7-11.7-1.7 2.3-1.3 5-1.3 7.6.1 4.3-1.4 5.7-5.9 4.9-6.7-1.2-13.6-1.7-20.4-2.5-12.8-4.9-13.2-5.5-13.3-18.5zm198.3 39.7c.3 2.4-2 6.1 2.7 6.8 5.2-27.1 10.3-54.2 15.6-81.3 2.5-12.8 2.7-12.7-9.8-15.9-1.3-.3-2.6-.7-3.9-.9-3.2-.3-4.1 1.9-4 4.4.1 1.6 1.1 3.1 1.7 4.6 6.5 15.2 6.8 30.9 4 46.8-3.7 2.2-7.1 4.9-9.4 8.6-.1 1.6.6 2.8 1.7 3.8 2.7 7.6.5 15.4 1.4 23.1zm-116.9-14.9c-6.4 3.5-12.8 1.4-19.2.2-9.5-1.7-9.4-1.5-9.2-11.4.3-10.9 0-21.9.6-32.8.2-4-2.2-4.8-4.5-6.3-2.7 2.7-3.5 6.3-4.2 9.9-3.5 8.1-.5 16.7-2 24.9-1.1 3.5-.5 7.1-.7 10.6v2.9c0 .5.7 1.2.7 1.6.3.9.1 1.5.7 2.2.6.6 1.3 1.2 2.1 1.6 1.1.6 2.2 1.2 3.4 1.6.8.3 1.5.5 2.4.6 1.9.2 3.9.1 5.8.8.8.2 1.5-.1 2-.7 5 .1 9.9.3 14.9.3 8.6 0 17.2.3 25.6-1.8 3.7-1 7.2-1.8 7.2-6.6-8.5 1.4-17 2.6-25.6 2.4zm29.9-2.3c-.2 0-.4.2-.7.7-.2.5 0 .9.6 1.4 15.1 5 29.5 1.2 43.6-3.9 4.7-1.7 6.8-5.7 6.4-11.2-.9-10.9-1.4-21.9-2-32.8-3-4.6-2.9-10.8-7.7-14.4 2.5 15.3 1.8 30.8 1.7 46.2 0 7.5-1.6 8.7-10.2 9.9-10.3 3.1-21.1 2.9-31.7 4.1zm49.7 8.4c2.8 1.1 5.4-.1 8.1-.8 1.7-.6 3.4-1.1 5.1-1.6.9-.2 1.7-.5 2.6-.8 3.4-1 7.1-.1 6.5 3.5-2 13.7 4.8 29.9-10.5 40.1 7.6 4.9 11.3 3.3 16.2-7.1 1.6-5.2 3.8-10.1 4.3-15.6.1-8.6.3-17.2.1-25.8-.2-5.7-2.9-7.6-8.3-6.3-5.8 1.4-11.5 3.1-17.3 4.5-4 1-6.3 3.3-6.9 7.4-.6.8-.5 1.7.1 2.5zm22.4-24.1c-.8.5-1.5 1-2.3 1.6-5 1.9-10 3.8-15.5 3.8 1.2 5.1 4.9 4.4 8.5 3.4 5.6-1.6 11.2-3.4 16.8-5.2 8.5-.5 12.6-4.5 11.2-13.3-.2-1.6-.2-3.3.9-4.7-.8-7.8-1.4-15.6-2.5-23.4-1-6.9-4.6-12-11.4-14.6 2.7 3.8 4.5 8 5.1 12.7 1.3 10.9.9 21.9.9 32.8 0 2.8-1.6 4.2-4.1 4.8-2.6.7-5.1 1.4-7.6 2.1zm-187.4 34.7c1.1-.3.9-1.3 1.5-2.4 1.6-10.7 2.5-10.5-8.7-12.4-.6.2-1.2 0-1.7-.4-1.4-.9-3.1-.8-4.6-1.5l-.6.2c-.9 3.9-1.8 7.8-2.6 11.6 4.9 3.9 10.8 4.6 16.7 4.9zm55.5 18.6c.8 11.3 6.1 20.4 13.7 28.4 1.6 2.5 3.3 4.3 6.3 1.8-4.3-10.2-8.4-20.3-8.3-31.9.1-12.7-.4-13 13-13.1 10.5 1 21.4-2.4 31.3 3.7 3.7-1.4 3.7-3.9 2-6.9-1-9.8-1-9.5-10.9-8.2-11.1 1.5-22.2 3.4-33.4 1.1-2.9-.6-5.9-.5-8.9-.7-3.4-.3-5.1 1.1-4.5 4.5.5 3.1 1.2 6.2.3 9.6-1.1-1.5-1.9-2.8-2.8-4-.8 3.5-1 7 0 10.4 2 1.4 2.1 3.4 2.2 5.3zm-50.5-5.2c-.6 11.2 5.4 18.2 14.3 23.4 1.3-9-2.4-17.3-3.1-26.1-.5-6.7.3-10 8.8-9.9 9.4.1 18.8 2.4 28.1.2-.1-7.5-.1-7.5-8.4-9.8-.9-1.4-2.3-2-3.9-2.4-5-.8-10.1.2-15.1-1.4-1.5-.3-3-.4-4.4-.4-3.4-.2-6.8.3-10.1-.7-1.4-.3-2.8-.5-4.1.6-2.6.4-2.9 1.5-2.9 4.5.1 5.2-1.2 10.4-1.2 15.6 2.1 1.8 2.1 4.3 2 6.4zm158.5-26.5c-1-4.1-3.5-2.7-6.1-1.9-10 3.1-20 6.6-30.8 6s-10.9-.5-12.1 9.9c.7.7 1.6 1.1 2.6 1.2 5.9-.5 11.4-2.5 17.2-3.4 1.9-.7 3.9-.7 5.9-.9 12.3-.8 11.6-.8 12.6 11.9 1 12.2-4 22.5-7.9 33.3 3.9-.3 1.9 0 6.1-2.2 5.6-6.9 10.9-13.9 10.5-23.4 3.2-10 6.2-20 2-30.5z"/><path id="cl1" fill="#C7C8BC" d="M1600 1359.9c-4.5.9-8.5-1.2-12.7-1.9-29.6-4.7-58.4-12-86.5-22.5-7.5-2.8-14.7-6.3-21.7-10.1-7.7-4.2-8.7-7.2-7.3-16.1 1.7-10.3 6.5-19.5 10.1-29.1 2.4-6.3 2-10.7-2.4-16.3-7.8-9.9-16.2-19.3-24.2-29.1-3.5-4.2-6.2-8.5-8.1-13.5-3.4-9-8.8-17.1-12-26.3-1.5-4.4-.2-6.3 4.1-6.8.7 1.1 1.6 2.2 2.1 3.4 9.1 24.9 28.3 42 45.7 60.7 2.2 2.3 4.5 3.5 7.7 3.8 5.3.4 10.5 1.5 15.8 1.9 3.2.3 5.8 2.1 7.5 5 4.2 9 6.9 13.3 10 19.8 2.7 5.6 7.5 5.4 11.3 0 7.7-11 5.6-8.5 18.1-4.7 4.5 1.4 8.5.3 12.7-.3 3.2-.5 8.6-7.2 10.8-2.1 1.6 20.8 2.5 41.6 1.8 62.4-.2 8 2.3 13.3 10.3 15.8 2.9.9 6.7 1.6 6.9 6zm-92.8-195.2c-.5 18.9.6 37.6 4.9 56.2 4.2 17.7 11.6 33.6 16 51.3 1 4.1 2 6.8 6.1 9.5 4-1.1 1.9-1.3 4.9-3.8 10.2-19.5 19.6-35.9 22.7-60.5.2-13.1 1-26.3.3-39.4-.5-10.1-4.1-19.2-13.8-24.6-3.7 4.2-1.6 9-.9 13.3 2.4 13.6 1.6 27.1-.3 40.7-2.5 18.3-6.2 36.3-10.7 52.7-.1-7.5-1.4-16.3-2.8-25.1-4.2-27.3-7.6-54.7-2.5-82.3.4-2.3.5-4.7-1.2-6.6-7.2-1.5-13.1.8-18 6-2.7 3.7-4.6 7.8-4.7 12.6zm136.9-8.1c-4.3 3.7-7.9 8-10.2 13.2-.5.7-2.4 4-2.8 4.8-.4.5 2.9-.4 2.9.2 2.4 11.5 1.2 23.1 1.2 34.7 0 16.5-1.9 16.4 14.3 18.5 5.1.7 11.4 3.4 14.7-3.8-2.7-.1-5.3-.3-8-.2-4 .1-6.1-1.3-6.2-5.7-.4-17.3 0-34.5 4.2-51.4 2-8.3 4.8-10.3 14-11-9.4-6.2-16.3-6.1-24.1.7zm-52.1 50.9c.1-17.8.1-35.6.1-53.4-12.2 2.6-19.1 11.2-24.3 21.6 1.7 1.7 2.9.6 4.1-.6 1.7-1.6 3.5-3.7 6-2.5 3.1 1.4 2.1 4.6 2.2 7.1.1 7.3 0 14.7-.1 22-.1 15-.1 15 15.1 16.2.3 0 .7-.1 1-.1-4-2.4-4.2-6.2-4.1-10.3zm146.4 1.8c.8-16 3.2-32.3-4-47.7-7.5-8.9-11.7-10-22.7-5.8 11.8 3.5 13.6 13.5 14.2 23.4.7 12.8.1 25.7.1 38.5 7.6 1.9 11.9-.3 12.4-8.4zm42.2-12.3c.7-8.9.8-17.9-.2-26.8-.7-6.3-2.7-12.3-8.4-16.3-7-5.1-11.4-.4-15.7 4.2 5.6-.5 7 2.5 7.9 7.6 2.5 13.5 1.2 27.1 2.1 40.5 9.8 1.9 13.6-.4 14.3-9.2zm-172.6 85.1c0-9.3-.1-18.6 0-27.9.1-9.5 2.2-11.2 12-10.5 4 .3 8 .2 11.9.4 0-.7 0-1.4.1-2-10.8-1.2-21.5-2.4-32.3-3.6-6.3-.7-7.6.1-7.4 6.7.2 11.1 1 22.3 5.9 32.6 2.7 2.5 6 4 9.8 4.3zm-56-19.3c-.5 1.4-1.7 2.7-.2 4.5 4.6 5.7 14.9 7 22.2 2.8 1.2-6.2 1-12.5.4-18.6-.5-4.6.4-8.4 3.9-11.5-4.9-3.1-10.4-3.7-16.1-3.8-3.5 8.8-6.8 17.7-10.2 26.6zm28.3-7c-.9 2-.7 4.1-.3 6.2 2.2-2 1.9-4.1.3-6.2zm1.8-7.9c-.6-.1-1.2-.1-1.8-.2-.6 1.5-.7 3 0 4.5 1.3-1.1 1.7-2.6 1.8-4.3zm173.7 22.3c8.6-1.9 11.7-5.5 12.3-14.1.5-7.9-.7-15.9 1.2-23.9.8-3.4-.6-6.9-3.5-8.8-3-2-5.5.3-7.8 2.3 0 9.9.1 19.8-.1 29.6-.2 9-2.5 10.6-11.5 8.6 1.8 4.1 5.6 5.2 9.4 6.3zm-103.8-28.4c-7.3.2-10.1 3-9.3 10.4.3 3.3 1.4 6.5 1.2 9.9-.6 10.8 2.1 20.3 10.1 28 1.3.7 2.7 1.4 4 2.2 7.4.4 15 1 20.1-6.2-.7.1-1.3 0-2 .2-14.3 4-19.9-.1-20.1-14.8-.1-9.9-.3-19.8 1.9-29.5-2-.1-3.9-.2-5.9-.2zm72.1 42.3c1.9-2.7 4.2-5.1 5.8-8 6.7-12.5 3.7-26 3.9-39.1 0-1.5-1.4-2.9-2.6-2.4-6.2 2.5-13.3-.5-19.3 3.4 7.9 1 8 1 8.1 7.6.1 8.3.1 16.5-.1 24.8-.2 11.5-2.3 13.4-14.1 13.7 6.1 3.8 12.2 4.3 18.3 0zm-106.4 95.3c21.6 1 43.1.1 64.6-2.5 11.6-1.4 23-3.6 33.4-9.2 21.5-11.5 41.1-25.7 59.2-41.8 2.6-2.4 5.9-4.6 5.4-9 1.1-3.4.7-6.8.5-10.2-5.3-2.4-6.9 2.5-8.9 5.2-6.4 8.2-13.6 15.5-21.2 22.4-13.6 12.2-29.6 21.9-47.8 22.4-26.9.7-53.5 4-80.3 4.7-3.6.1-7.4-.4-10.3 2.6-.1 4.8-.3 9.5-.4 14.3 1.9.3 3.8 1 5.8 1.1zm161.9-73.8c.2 3.8.4 7.5.6 11.3 3.1-16 .3-32-.1-48 0-1.2-1.1-2.4-1.9-3.4-1.5-1.9-2.9-.1-4.2.5-.4 3.2-3.8 4.6-4.6 7.6 5 10.2 7.6 21.1 10.2 32z"/><path id="sd1" fill="#434340" d="M1694.1 1221.9v2.1c-1.4-.7-2.7-1.3-4.1-2v-36h2.2c.6 12 1.2 23.9 1.9 35.9zM1624 1180c.1 6.7.1 13.4.2 20.1 2.1 3.1-.8 7.3 2.1 10.3 2.7-8.8 1.3-17.7 1.4-26.6-1.3-1.3-2.5-2.6-3.7-3.8zm154.2 32.2c4.7-1.2 7.9-3.9 9.4-8.6-2.9-3.6-.6-7.9-1.7-11.8-1.7 7.6-2.3 15.9-12.1 18 1.7.4 3.5.5 4.4 2.4zm-197.9 43.6c-.9 2-.7 4.1-.3 6.2 2.2-2 1.9-4.1.3-6.2zm1.8-7.9c-.6-.1-1.2-.1-1.8-.2-.6 1.5-.7 3 0 4.5 1.3-1.1 1.7-2.6 1.8-4.3zm161.7 12.2c5.2-9.9 4.7-19.9.4-29.9l-.6-2.4h-1.3c.4 10.2-3.5 20.1-2 30.4 1.2.6 2.3 1.3 3.5 1.9zm-55.4-6c1.3 4.3.6 8.8 1.8 13.1 1.2 2 2.1 4.7 5 1.7 2.3-9 3.5-18.1-.9-26.9-.4 0-.7-.1-1-.3l-.9-.2c-.6 2.2-.1 4.8-2.1 6.5-2.1 1.7-2.1 3.8-1.9 6.1zm91.5-38.1c3.7 3.4 1.6 7.9 2.2 11.9.8 5.9-1.9 12.2 1.7 17.9.8 5.1-1.6 9.6-2.1 14.9-5-1.7-3-5.5-3.5-8.3 3.4-12 1.9-24.2 1.7-36.4z"/><path id="hl2" fill="#E7E6E2" d="M1668.1 1155.9c7.7 4.6 12.2 11.9 16.4 19.5 1.9 3.5 3.6 7.1 5.4 10.6 5.3 11.1 2.5 22.6 1.9 34-.4 1.2-1.2 2.1-2.1 3-8.4 4.4-17.5 3.9-26.6 3.8-14.9-.5-15.9-1.6-16.2-16-.3-15 .4-30 4.6-44.5 3-10.1 7-12.2 16.6-10.4zM1530 1146c-6.5 24.9-4.7 50-1.3 75.1 2 14.8 5 29.4 5.4 44.3 0 1.6-1 4 2.5 5 10.1-38.5 20.7-76.8 11.8-117.1-4.9-5.5-11-8.2-18.4-7.3zm163.4 76.3c11.7 2.7 23 2.4 33.5-4.2 4-10.6 1.4-21.6 2-32.3.4-7.7-.4-15.2-4.2-22.1-2.8-5-6.2-9.5-13.1-7.9-9.1 2.7-13 10.1-16 18.2-1.4 3.9-2.4 8.1-3.5 12.1-2.1 12.1-.4 24.2 1.3 36.2zm-104.3-61c-.5 15.9-.5 31.8 0 47.6.1 4.1 1.5 7.8 5.4 10 3.3 1.9 7.1 1.9 10.6 2.6 16.7 3.6 17.4 3.1 20.9-13.5.7-2.9.7-5.9.8-8.9.1-6.6.3-13.1-2.7-19.2-3.4-6.8-6.8-13.7-12.4-19.1-5.5-5.3-11.5-9-19.6-6.8-1.9 2.1-2.9 4.6-3 7.3zm175.4 48.2c1.3-1.1 2.3-2.4 3-3.9.4-1.1.8-2.2.9-3.3 1-12.3.7-24.5-1.8-36.6-1.1-5.4-2.5-11-10.3-7.5-5 3.5-6.9 9.2-10.4 13.9-.3 13.3 1.1 26.5 2.6 39.7 6 3.9 10.9-.2 16-2.3zm3.6 64.9c-.8.4-1.6.9-2.3 1.4-5.6 1.3-10.9.6-16.1-2-6.2-3.1-6.3-2.8-10.7 3.3-1.9 2.7-3.5 5.6-6.6 7-9.6 11.1-23.9 13.8-37.1-2.9-2.4-2.2-4.4-.6-7.2 1.4-6.3 16.4-23.8 18.8-36.3 12.3-2.4-1.6-3.2-2.4-5.8-3.3-6.2-2.8-8.7-11-13.7-15.6-7.9 11.2-18.4 13.4-30.2 9.4-6-2-11.3-5.6-16.1-9.8-1.6-1.4-3-4-5.8-1.6-2.7 4.6-2.7 9.8-1.6 14.4 1.8 7.5 1.5 15 1.6 22.6.1 10.9.5 21.8 0 32.7-.3 6.1 2.3 9 7.5 11.1 4.2 1.7 9 2 12.7 5.1 4 1.5 8.6 1.2 12.2 4 8.6 0 17.4.8 25.9-.2 20.4-2.4 40.8-4.3 61.3-3.7 5 .1 9.8-.7 14.6-2.2 28.5-9 49-28.2 65.6-52.2.8-12-.6-23.3-10.2-32-1 0-1.4.3-1.7.8zm-135.9-30.6l-.3.2c-4.1-3.8-9.4-2.9-14.2-3.1-5.3-.3-10.6 1.6-11.5 7.3-1.7 11.3-3.6 22.8 1.7 33.9 11.2 1 18.8-3.5 22.1-13.2 1.6-4.7 2.5-9.5 2.2-14.5 2.2-3.6.7-7.1 0-10.6zM1580 1262c1.5-2 1.1-4.1.3-6.2v-3.6c.8-1.5.9-3 0-4.5-.2-2.5-.4-5-.6-7.6-.5 0-1-.2-1.6-.3-7.7.9-7.5.8-6.6 8.2.5 4.2.2 8.5.4 12.7.2 3.1-1.1 6.6 2 9.2 3.7-1.4 4.7-4.8 6.1-7.9zm166.4 1.9c5.9 5 11.6 3.7 13-3.2 2.4-11.5 4-23.5-1.4-35-.7.1-1.3.2-2 .4-1.2 1.2-3 .8-4.2 1.7-2.8 0-5.2 1-7.6 2.4-.1 10-.3 19.9-.4 29.9.9 1.2 1.7 2.5 2.6 3.8zm-56.2 2.1c1.3-4 1.1-7.9.1-11.9v-6c-.2-3.8-.7-6.9-6-6.6-8.8.5-17.5.3-26.3.4-7.7 9.3-4.9 20.3-4.6 30.6.5 16.4 10 21.3 24.7 13.5 2.5-2.3 5-4.5 7.5-6.8 1.5-4.3 3-8.7 4.6-13.2zm32.6 5.6c.6-8.6.5-17.3 0-25.9-.4-7.1-3.4-10.7-10.9-7.8-6.1.2-12 1.4-17.6 4.1-.2 9.4-.5 18.7-.7 28.1 2.3 6.2 4.8 12.2 12.2 14 12 3.9 16.3-2.6 17-12.5z"/><path id="hl1" fill="#2A2A2A" d="M1511.1 1251.3c-11 2.3-18.6-.5-25.2-8.1-6.3-7.2-13.3-13.9-20.2-20.6-3.1-3-5.7-6.5-8-10.1-6.7-10.4-6.1-13.2 5-18.7 4.4-2.2 9.2-3.8 14-5.1 6.1-1.6 14.3 4.6 16.8 12.5 1.5 4.7 2.5 9.6 4.2 14.3 4.2 11.9 8.8 23.5 13.4 35.8z"/><path fill="none" stroke="#000" stroke-miterlimit="10" stroke-width="6" d="M1491.3 1167.5s-2.8-10.6-25.5-8.8c0 0-22.2-2.5-45.6 9.7s-44.4 24.5-44.4 24.5l-34.6-8.8s32.6 54.3 59.3 138.3c21.8 13.8 83.8 38.8 83.8 38.8s115.3 23.8 131.3 22.3 76.5 4.6 87.5-5.3c17.2-6.1 78.8-43.2 80.3-55.7s0-56.5 0-56.5l22.7-118.1-24.5-7.7-4.4 10.8s-18-11-32.8 19.5c-3.3-17.5-39.6-39.5-53.6 9.5-19.3-42.5-45.4-47.7-64.9-6-12-32.2-36.8-35.8-61-1.5-6-34.5-52.3-50.3-70-4l-3.6-1z"/></svg>