<svg xmlns="http://www.w3.org/2000/svg" id="mouth" viewBox="0 0 3000 3000"><path id="cl2" fill="#0A0909" d="M1468.7 1153.4s-27 2.9-42 7.6c-14.3 9.7-53.3 31.3-53.3 31.3l-36-12s38 67 44.7 89.3 14.3 46 14.3 49.7 84 38.7 84 38.7 109.2 20.1 120.3 20.2c11.1.1 78 .5 81.7-1.2 33-1.3 88.5-48.1 96-58 7.7-6.7-4.3-53 7.7-91.7 2.7-14 15-79.6 15-79.6l-24.3-8.4-2.7 10.3s-6.6-2.9-9.6-1.9c-8.7 0-17.2 14.1-20.8 20.5-6.6-3.1-13.9-18.7-20.3-20.5-6.3-1.8-26.6-.3-34 30.3-6.4-16.3-25-34.8-35.6-32.1-23 2.7-27.5 29.4-27.5 29.4s-13.4-24.6-28.4-27.1-31.9 19.8-31.6 23.1c.3 3.3-11.8-22.4-27.8-25.8-13.8.2-19.5 13.8-19.5 13.8l-4.9 16.5s-5.9 3.7-9.9 0-24-23.9-35.5-22.4z"/><path id="hl2" fill="#2A2A2A" d="M1513.9 1249.2c-.1 3.3-1.2 3.9-3.9 3.8-10.7-.5-19.8-3.6-26.8-12.5-5.1-6.5-11.4-12-17.4-17.8-3.4-3.3-6.1-7-8.6-10.9-5.9-9.3-5.4-12.3 4.4-17.5 4.9-2.6 10.4-4.4 15.8-5.8s13.9 5.7 16.8 13.2c1.9 4.9 1.7 10.8 5.2 14.9 7.2 8.3 8.9 19.1 13.1 28.7.7 1.5 1.1 3.1 1.4 3.9z"/><path id="sd1" fill="#85867E" d="M1744.2 1226.1c.2-2.6 1.7-4.2 4.1-4.9 6.9-2 13.9-4.1 20.9-5.7 4.3-1 6.9 1.5 7 6.9.2 8.5 0 17.1-.1 25.6-.6 5.4-2.8 10.4-4.4 15.6-4.9 10.4-8.6 12.1-16.2 7.1 15.1-10.2 8.7-26.1 10.3-39.8.4-3.6-2.8-4.9-6.4-3.8-.8.3-1.7.6-2.6.8-1.7.5-3.5 1.1-5.2 1.7-2.7.6-5.3 2.1-8.1.4-.6-1.5-.7-2.8.7-3.9zm-130.3 138.4c-2.5-5.6-8-5.6-12.9-6.8-22.6-3.9-45.4-7.3-67.4-14.2-16.5-5.2-33.3-9.8-48.7-18-11.2-5.9-12.8-9.7-9-21.8 2.4-7.6 5.3-15.1 8.3-22.5 2.8-6.9 2.1-12.8-2.6-18.6-5-6.2-9.4-13-15.2-18.6-13.1-12.7-19.5-29.2-26.9-45.2-1.6-3.4-2.1-7-.2-10.6-2.2-4.5-4.7-8.8-6.5-13.4-2.1-5.2-4.9-5-9.3-2.6-13.7 7.5-27.8 14.4-41.5 21.9-4.4 2.4-8.5 2.9-13.3 1.5-5.8-1.7-11.5-4.2-18.5-4 1 2.3 1.7 3.8 2.4 5.3 19.4 38.3 38.1 77 49 118.8 1.2 4.5 4 6.5 7.7 8.3 18.4 8.5 36.7 17.3 55.2 25.8 10 4.6 20.1 8.6 31 10.8 22.2 4.5 44.5 8 66.9 11.1 16.4 2.3 32.8 5.5 49.4 6.5 3.7-4.1 3.2-8.8 2.1-13.7zm-34.4-123.8c-6.3.3-13-1.4-19.2-2.4-6.3-1-7.3 1.2-6.5 7 1.3 8.4 5.1 16.4 4.2 25.2-3.6 1.8-6.3 1.1-7.9-2.7-6.6-6.4-10.4-14.3-12.6-23.2-2-8-4.8-15.8-7.7-25.1 14.7 2.4 28.3 4.5 41.8 6.7 2.3 2 5.1 1.6 7.8 2m-51.2-71.9c8.9 3.6 8.6 3.5 6.8 13.9-1.6 9.1-2.8 18.3-4.7 27.4-1.5 7.3 1.1 10.4 8.4 12 5.2 1.2 10.4 2.1 15.5 3.5 2.8.8 5.2.5 7.5-1.3 1.3 1.3 1.5 2.6.1 4-3 1.9-6.2 2.5-9.6 1.8-10.1-2.2-20.1-4.7-30.1-6.8-4.7-1-7-3.1-6.2-8.1 1.9-12.5 3.7-25 5.5-37.5.6-4.3 2.7-7.3 6.8-8.9zm95.8 65.7c-2.4 4.1-6.3 4.1-10.4 3.8-3.9-.3-7.9.2-11.6-1.6-5.7-2.6-12 1.3-17.9.9-1.6-.1-3-2.4-4.5-3-5.1.2-10.2.2-14-4.1-4.6-6.7-.4-14.2-1.7-21.2.7-6.3-1.6-12.9 1.8-18.9.6-.8 1.2-1.5 1.8-2.3 3.6-1.8 6.2-7 11.2-4.5 4.7 2.3 3.8 7.3 3.9 11.4.2 5.6 0 11.2.1 16.8.1 12.9.5 13.5 13.2 18.4 6.8.8 13.7 1.3 20.4 2.4 4.4.8 6-.7 5.9-4.9 0-2.6-.4-5.3 1.3-7.6 4.3 4.8 3.9 9.6.5 14.4zm160.3-63.1c-2-2-4.2-5.6-3.7-9.8-.2-2.5.8-4.7 4-4.4 1.3.1 5.9 1.2 7.2 1.6 12.5 3.2 10.3 5.6 7.8 18.3m-167.8 9.2c2.3 1.5 4.7 2.3 4.5 6.3-.6 10.9-.3 21.9-.6 32.8-.2 9.9-.3 9.7 9.2 11.5 6.5 1.2 12.8 3.4 19.2-.2 8.6.2 17.1-1 25.6-2.4.1 3.7-2.1 5.5-5.3 6.1-17.5 3.4-35 4-52.3-1.3-2.6-.8-4.9-2.1-6.2-4.7-1.7-4-.8-8.1-.6-12.1 2.2-8.6-1.4-17.7 2.3-26.2.7-3.5 1.5-7.1 4.2-9.8zm94.1 43.9c8.6-1.2 10.1-2.3 10.2-9.9.1-15.4.7-30.9-1.7-46.2 4.8 3.6 4.7 9.8 7.7 14.4.6 11 1.1 21.9 2 32.9.5 5.5-1.7 9.5-6.4 11.2-14.1 5.1-28.5 9-43.7 3.9-.6-.5-.8-.9-.6-1.4.2-.5.4-.7.7-.7 10.6-1.2 21.4-1 31.8-4.2zm40.4-11.4c2.5-.7 5.1-1.4 7.6-2.1 2.5-.6 4.1-2.1 4.1-4.8 0-10.9.4-21.9-.9-32.8-.6-4.7-2.4-8.8-5.1-12.7 6.8 2.5 10.4 7.7 11.4 14.6 1.1 7.8 1.7 15.6 2.5 23.4-1.1 1.4-1.1 3.1-.9 4.7 1.4 8.8-2.7 12.8-11.2 13.3-5.6 1.7-11.2 3.6-16.9 5.2-3.6 1-7.3 1.7-8.5-3.4 5.5-.1 10.5-1.9 15.5-3.8.7-.6 1.5-1.1 2.4-1.6zm-112.4 83.8c-10.5-4.1-15.3-12.7-18.1-22.9-1.2-4.4-.5-9.2-3.6-13.1-2.8-2.2-2.5-5.1-1.8-8.1.4-.9 1.1-1.6 2-2.1 1.3-.6 1.5 4.2 2.9.8 1.3-3.2-2.9-7.6.5-10.2 3.2-2.4 7.7-.6 11.5-.1 12.3 1.8 24.3.4 36.4-1.5 7.6-1.2 7.6-1.2 8.2 7 2 3.3-22.5 5.7-33 4.7-13.3.2-12.7.5-12.9 13.4-.2 11.8 5 21.6 7.9 32.1zm-55.7-12.4c-9.2-5.3-14.5-12.6-14.5-23.9 0-8.5-1.8-17-1.3-25.6 14 1.5 28 3.8 42.1 4.7 7.3.5 7.3.9 7.6 9.1-8.6 5.1-17.3 0-26 .2-11 .2-11.6.3-10.7 11.4.6 8 4.4 15.7 2.8 24.1zm146.3-18.7c-4.6 14.9-8.5 16.4-14.1 23.3-5.2 2.5-1.9.7-8.2 3.8 4.1-11 10.4-23.8 9.3-36.3-1-11.9-.3-11.9-12.3-11.1-2.3.2-4.6.4-6.8 1.1-6.1.8-11.9 4-18.4 2.8-1-.8-1.1-1.7-.3-2.8.7-8.6.7-8.8 8.8-8 10.5 1.1 20.3-2 30.2-4.7 2.9-.8 5.7-4 9.1-.9 4.9 10.9 2.2 19.7 2.7 32.8zm11.3 11.2c-3.8-1-7.6-2.2-9.4-6.2 6.9-2.6 8.9-7.7 9-14.8.2-7.8-2.3-16 2.5-23.4 7.8-4.1 11.6-2.6 11 5.6-.6 8.9-.3 17.9-1.1 26.8-.5 7-4.1 10.2-12 12zm-249.2-90.2c-.3 1-.5 2.1-.6 3.1-.5 2.6-.5 5.3-1.1 7.9-2.3 11-5.2 12.6-15.9 8.9-8.3-2.9-15.4-7.5-21.9-13.5-20.3-18.7-29.7-42.7-34.5-69.1-2.9-15.7-4.1-31.5-4.9-47.4-.4-1-1.1-1.8-1.9-2.3-.5.1-1 .3-1.5.4-.6 9.2-1.3 18.4-1.7 27.7-.8 18.8.1 37.7 1.5 56.5.4 5.5-1.6 11.3 1.6 16.5 1.9-1.5 1.1-3.5 1.2-5.4 0-.6-.2-.8-.7-.6-1.2.6-.3-1.5.4-.3.3 8.9 3.5 17 5.7 25.4 2.4 6.4 4.9 12.8 8.4 18.7 14.4 25.6 37.7 39 64.9 47.1 4.1 1.2 9.2.5 12.1 4.9 6.4 2.5 12.9 4.4 20.3 3.5-3.2-14.1-9-26.9-12.9-40.2-1.1-3.8-3.9-5.8-7.4-7.5-8-4.1-8.4-5-7.5-14.1.2-2.7 1-5.2 1.5-7.8 1.8-8.8 3.3-17.6 4.6-26.4.7-4.4-.5-8.1-6.1-8-5.5 6.6-1.2 14.8-3.6 22zm282.3 65.7c13-5.3 21.5-15.9 29.3-27.6 2.3-1.6 3-4.3 4.2-6.6 6.6-13.2 9.8-27.4 12.8-41.7 4.6-21.7 8.4-43.6 6.6-66-3.3-.1-3.7 2.5-3.9 4.7-.8 9.6-4.3 18.7-6.1 28.1-4.2 21.9-13.3 41.2-28.5 58l-16.3 19.3-4.9 31.5 6.8.3"/><path id="cl1" fill="#BFC0B6" d="M1473.4 1238c10.2 5.9 22.4 9.5 33.3 13.4 5.2 1.8 10.5 3.5 16 5.3-1.7 1.9-1.6 2.5-3.1 2.5 0 0-25-3-26.1-3.4s-1.9 1.6-20.1-17.8zm121.4 116.5c-10.7-2.6-12.6-10-12.2-19.7.9-20-.2-39.9-1.9-59.8-.7-1.8-2.5-2.8-3.9-2.2-10.4 4.4-20 .3-29.7-2.5-1.1-.6-2.8-.9-3.3-1.9-3.6-6.7-9.9-7.7-16.7-8.4-10.9-1.2-21.7-2.8-32.5-4-3.3-.3-5.5-1.6-7.7-3.9-17.7-18.7-36.7-36.4-46-61.4-.4-.9-1.1-1.7-1.6-2.5-4.2.5-5.6 2.4-4.1 6.8 3.2 9.2 8.6 17.3 12 26.3 1.9 5 4.6 9.3 8.1 13.5 8 9.8 16.4 19.2 24.2 29.1 4.4 5.6 4.8 10 2.4 16.3-3.6 9.6-8.4 18.8-10.1 29.1-1.4 8.9-.4 11.9 7.3 16.1 7 3.8 14.2 7.3 21.7 10.1 28.1 10.5 56.9 17.8 86.5 22.5 4.2.7 8.2 2.8 12.7 1.9.1-3.5-2.7-4.7-5.2-5.4zm17 23.8c.1-4.8.3-9.5.4-14.3 2.9-3 6.7-2.5 10.3-2.6 26.8-.7 53.4-4 80.3-4.7 18.2-.5 34.2-10.2 47.8-22.4 7.6-6.9 14.8-14.2 21.2-22.4 2-2.7 3.6-7.6 8.9-5.2.2 3.4.6 6.8-.5 10.2.5 4.4-2.8 6.6-5.4 9-18.1 16.1-37.8 30.3-59.2 41.8-11 5.9-23.1 8.2-35.3 9.5-20.8 2.3-41.7 3.3-62.6 2.2-2-.1-3.9-.8-5.9-1.1zm-62.4-224.1c5.2 5.9 10.6 11.6 12.9 19.4 2.4 7.1 2.8 14.3 2.5 21.7-.3 5.3 1.4 14.2-.4 19.4-2.1 1-6.6 1.3-11 .6-25.8-3.9-27.6-6.3-23.1-32 .6-3.2.4-6.7 1.5-9.8 2.3-6.6.2-12-3.6-17.2 6.7-5 13.7-6 21.2-2.1zm118.8 1.7c-9.2.7-12 2.7-14 11-4.2 16.9-4.6 34.1-4.2 51.4.1 4.4 2.2 5.8 6.2 5.7 2.7-.1 5.3.1 8 .2-8 8.2-17.1 2.9-25.5 1.3-6.7-1.3-5.6-7.9-5.7-13.2-.2-12.8 1.4-25.7-1.1-38.5 0-.6.2-1.2.6-1.7.4-.8.9-1.6 1.4-2.3 2.3-5.2 5.9-9.5 10.2-13.2 7.8-6.8 14.7-6.9 24.1-.7zm57.8 61.8c0-12.8.6-25.7-.1-38.5-.6-9.9-2.4-19.9-14.2-23.4 11-4.2 15.2-3.1 22.7 5.8 7.2 15.4 4.8 31.7 4 47.7-.5 8.1-4.8 10.3-12.4 8.4zm40.3-11.5c-.9-13.4.4-27-2.1-40.5-.9-5.1-2.3-8.1-7.9-7.6 4.3-4.6 8.7-9.3 15.7-4.2 5.6 4 7.7 10 8.4 16.3 1 8.9.9 17.9.2 26.8-.7 8.8-4.5 11.1-14.3 9.2zm3.5 67.1c.5-3 4-4.2 4.2-7.3 1.3-.6 2.7-2.4 4.2-.5.8 1 1.9 2.2 1.9 3.4.4 16 3.2 32 .1 48-.2-3.8-.4-7.5-.6-11.3-1.9-11.2-6.6-21.5-9.8-32.3zm-173.7-55.4c-1.6 0-3.4.3-4.9-.1-13.1-3.3-11.2-1-11.2-13.7 0-8.6.3-17.2.1-25.7-.2-6.8-1.8-7.5-7.6-3.8-1.5.9-2.6 3.3-4.8 1.1 5.5-10.2 12.2-19 24.4-21.6 0 17.8 0 35.6-.1 53.4-.1 4.1.1 7.9 4.1 10.4zm-22.2 52.1c-5.2 5.1-10.7 3.6-16.2.4-4.6-9.4-5.1-19.8-7.3-29.8-1.1-5.3.6-6.7 5.8-5.5 7.3 1.7 15.2.8 22 4.8-3 2.9-4.4 6.1-3.9 10.5.7 6.5.9 13.1-.4 19.6zm80 20.2c-7.9-7.8-10.7-17.3-10.1-28.1.2-3.4-.9-6.6-1.2-9.9-.8-7.4 1.9-10.2 9.3-10.4 2-.1 4 .1 6 .1 3.5 4.3.9 9 .9 13.5 0 5.6-.3 11.3.1 16.9.7 9.6 3.4 12.1 13 12.4 2.3.1 4.7-.4 6.5 1.6-4.5 8.5-10.5 10-22.3 5.5-.7-.5-1.4-1.1-2.2-1.6zm51.9-6.1c11.8-.3 13.9-2.2 14.1-13.7.2-8.3.2-16.5.1-24.8-.1-6.6-.2-6.6-8.1-7.6 6-3.9 13.1-.9 19.3-3.4 1.2-.5 2.6.9 2.6 2.4-.2 13.1 2.8 26.6-3.9 39.1-1.6 2.9-3.9 5.3-5.8 8-6.1 4.4-12.2 3.8-18.3 0zm-107.7-6.4c-5-10.3-5.6-21.5-5.9-32.6-.1-6.6 1.2-7.4 7.5-6.7 10.8 1.3 21.5 2.4 32.3 3.6.3.6.5 1.2.4 1.9l-.5-.1-.5.2c-2.9 3-6.7 2.7-10.2 2.4-7.9-.6-10.1 3.6-10.5 10.7-.5 8.3 2.5 17.1-2.7 24.9-3.8-.2-7.1-1.7-9.9-4.3zm190.4-79.2c-.3-10.8-.2-21.6-.3-32.5 4.4-.4 2.9 4.4 5.2 6.3 20.1-22.7 37.1-46.8 44.8-76.3 1.3-2.8 1.3-6.3 5.2-8.6-.6 5.9-1.1 11.2-1.6 16.5-2.6 11.5-5.4 22.9-7.8 34.5-4.5 21.8-13 41.4-28.7 57.7-5.9 6.2-10.8 13.3-18.3 17.9m-279.1-32.1c0-2-.2-4 .1-6 .9-6.9-1-10.9-8-14.6-7.3-3.8-13.4-10.7-18.9-17.3-11.5-13.7-21.9-28.2-31.9-43-4.1-6.1-8.3-11.9-9.1-19.4 5.2 4.3 7.6 10.8 11.2 16.2 12.2 18.4 27 34.5 43.3 49.2 4.6 4.2 10.2 7.2 15.4 10.8 0 5.6 0 11.2-.1 16.8.1 2.6.5 5.4-2 7.3zm276.6 64.6c-2.9-1.9-3.6-5-.3-5.9 12.8-3.5 21.1-12.9 29.9-21.7 1.1-1.1 2.2-2.8 3.9-.8-7 14.4-18.7 23.1-33.5 28.4zM1806 1138c-1.5 7.4-8.2 10.6-12.7 15.5-2.9 3.2-5.9 6.1-5.5 10.8-.9-1.8-1.6-3.6-2.7-5.3-1.6-2.5-1.2-4.1 1.2-5.8 6.8-4.8 12.5-10.9 19.7-15.2zm-380-70c2.3 1.4 2.4 4 2.9 6.1 5.5 26.8 18.9 49.8 33.2 72.7 9.6 15.4 22.8 26.4 36.8 37.1 4.4 3.3 6.5.8 9-2 .5 6.1-.4 11.9-2.8 17.6-2.6 6.3-3.8 6.7-10.5 4.9-26-6.8-41.4-25.3-52.7-48.1-8-16.2-11.4-33.8-14.1-51.6-1.7-12.2-1.9-24.4-1.8-36.7zm362.5 130.5c-.3-10.8-.2-21.6-.3-32.5 4.4-.4 2.9 4.4 5.2 6.3 20.1-22.7 37.1-46.8 44.8-76.3 1.3-2.8 1.3-6.3 5.2-8.6-.6 5.9-1.1 11.2-1.6 16.5-2.6 11.5-5.4 22.9-7.8 34.5-4.5 21.8-13 41.4-28.7 57.7-5.9 6.2-10.8 13.3-18.3 17.9m-279.1-32.1c0-2-.2-4 .1-6 .9-6.9-1-10.9-8-14.6-7.3-3.8-13.4-10.7-18.9-17.3-11.5-13.7-21.9-28.2-31.9-43-4.1-6.1-8.3-11.9-9.1-19.4 5.2 4.3 7.6 10.8 11.2 16.2 12.2 18.4 27 34.5 43.3 49.2 4.6 4.2 10.2 7.2 15.4 10.8 0 5.6 0 11.2-.1 16.8.1 2.6.5 5.4-2 7.3zm-65.8 24c-.8.8-1.6 1.7-2.3 2.5-5-5-7-11.2-8-18-.9-2.3.2-2.8 2.2-2.4 2.6 6.1 6.6 11.4 8.1 17.9zm-16.4-37.4c.3-2.2.6-4.5 1.1-8.8 2.7 10.8 5 19.6 7.2 28.3-.7.8-1.5 1.6-2.2 2.4M1426 1068c2.3 1.4 2.4 4 2.9 6.1 5.5 26.8 18.9 49.8 33.2 72.7 9.6 15.4 22.8 26.4 36.8 37.1 4.4 3.3 6.5.8 9-2 .5 6.1-.4 11.9-2.8 17.6-2.6 6.3-3.8 6.7-10.5 4.9-26-6.8-41.4-25.3-52.7-48.1-8-16.2-11.4-33.8-14.1-51.6-1.7-12.2-1.9-24.4-1.8-36.7z"/><path id="hl1" fill="#E7E6E2" d="M1668.1 1155.9c7.7 4.6 12.2 11.9 16.4 19.5 1.9 3.5 3.6 7.1 5.4 10.6 5.3 11.1 2.5 22.6 1.9 34-.4 1.2-1.2 2.1-2.1 3-8.4 4.4-17.5 3.9-26.6 3.8-14.9-.5-15.9-1.6-16.2-16-.3-15 .4-30 4.6-44.5 3-10.1 7-12.2 16.6-10.4zm25.3 66.4c11.7 2.7 23 2.4 33.5-4.2 4-10.6 1.4-21.6 2-32.3.4-7.7-.4-15.2-4.2-22.1-2.8-5-6.2-9.5-13.1-7.9-9.1 2.7-13 10.1-16 18.2-1.5 3.9-2.4 8.1-3.5 12.1-2.1 12.1-.4 24.2 1.3 36.2zm-104.3-61c-.5 15.9-.5 31.7 0 47.6.1 4.1 1.5 7.8 5.4 10 3.3 1.9 7.1 1.9 10.6 2.6 16.7 3.6 17.4 3.1 20.9-13.5.7-2.9.7-5.9.8-8.9.1-6.6.3-13.1-2.7-19.2l-8.4-15.3c-6.8-6-12.9-13.4-23.6-10.6-1.9 2.2-2.9 4.6-3 7.3zm175.4 48.2c1.3-1.1 2.3-2.4 3-3.9.4-1.1.8-2.2.9-3.3 1-12.3.7-24.5-1.8-36.6-1.1-5.4-2.5-11-10.3-7.5-5 3.5-7 9.2-10.4 13.9-.4 13.3 1.1 26.5 2.6 39.7 6 3.9 10.9-.2 16-2.3zm3.5 64.9c-.8.4-1.6.9-2.3 1.4-5.6 1.3-10.9.6-16.1-2-6.2-3.1-6.4-2.8-10.7 3.3-1.9 2.7-3.5 5.6-6.6 7-12.7 7.1-24.9 8-36.5-2.4-2.7-2.4-5.8-3-9-.7-8.8 12.1-21.3 14.1-34.9 13.1-8.8-3.2-13.8-10.5-19.7-18.8-1 1.6-1.6 2.9-2.5 3.8-6 6.4-13 9.3-22.2 7.6-8.2-1.5-14.6-5.8-21-10.5-1.9-1.4-3.2-4.8-6.5-2.3-2.8 4.6-2.8 9.9-1.6 14.6 2 7.9 1.4 15.9 1.6 23.8.2 10.7.3 21.3 0 32-.2 5.1 1.8 7.9 6.4 9.9 4.5 2 9.8 2.2 13.7 5.6 4 1.5 8.6 1.2 12.2 4 8.6 0 17.4.8 25.9-.2 20.4-2.4 40.8-4.3 61.3-3.7 5 .1 9.8-.7 14.6-2.2 28.5-9 49-28.2 65.6-52.2 1.4-12.2-1.6-23-9.8-32.3-.7.5-1.3.9-1.9 1.2zm-188-12.4c.4-5.1.6-10.5.3-14.2-.2-2.5-.4-5.1-.6-7.6-.5 0-1.1-.1-1.6-.3-7.6.8-7.4.8-6.5 8.2.5 4.2.2 8.5.4 12.7.2 3.1-1.1 6.6 1.9 9.1 3.7-1.4 4.7-4.8 6.1-7.9zm50 6.7c1.6-4.7 2.3-8.9 2.2-14.5.3-4.8.5-6.9.2-10.3-4.6-.3-10.2-.1-14.8-.6-6.9-.7-9.5 2.1-9.6 9.1-.2 9.9 0 19.7 0 29.6 11.2 1 18.8-3.5 22-13.3zm126-42.6c-1.2 1.2-3 .8-4.2 1.7-2.8 0-5.2 1-7.6 2.4-.1 10-.3 19.9-.4 29.9.9 1.3 1.7 2.6 2.6 3.9 7.7 1.7 10.2.3 11.4-6.8.3-1.6.2-3.3.2-4.9v-26.5c-.7 0-1.3.1-2 .3zm-65.7 28v-6c-.2-3.8-.7-6.9-6-6.6-8.8.5-17.5.3-26.3.4-2.5 10.7-2.2 21.7-1.8 32.5.4 11 6.5 15.3 17.2 12.8l4.8-1.2c2.5-2.2 5-4.5 7.5-6.7 1.5-4.4 3-8.8 4.6-13.3 1.2-3.9 1-7.9 0-11.9zm32.5 17.5c.6-8.6.5-17.3 0-25.9-.4-7.1-3.4-10.7-10.9-7.8-6.2.3-12.2 1.2-17.6 4.4-.2 9.3-.4 18.6-.6 27.8 2.3 6.2 4.8 12.2 12.2 14 11.9 3.9 16.2-2.6 16.9-12.5zM1426 1068c3.3 7.7 1.8 16.1 4.9 24.1 8.2 21.6 19.7 41.3 32.2 60.6 9 13.8 21.3 23.6 34.4 32.8 4.9 3.5 8.6 2.5 10.4-3.6 2.4-10.2 3-19.7-9.3-24.3-1.2-.4-2.1-1.6-3-2.6-21.9-21.9-41.1-45.8-55.5-73.4-3.9-8.7-7.6-17.4-12.6-25.5-4.4 3.5-2.5 7.7-1.5 11.9zm380 70c-4 6-10.3 9.8-15.1 15-3.2 3.4-4.9 6.7-3 11.3-.2.6-.1 1.2.3 1.7 3.7 2.6.3 7.6 3.3 10.7 6.7-4.1 10.3-10.5 14.9-16.1 14.2-17.2 25.5-36 32.2-57.4.8-2.5 2.5-4.9-.3-7.2-10.9 14-20 29.2-32.3 42zm-372.1 50.1c-2-.3-3.2.1-2.2 2.4 1 6.7 3 13 8 18 .8-.8 1.6-1.7 2.3-2.5-1.4-6.6-5.4-11.9-8.1-17.9zm-7.1-28.4c-.5 4.3-.8 6.6-1.1 8.8 1.1 7.6 3.1 14.9 6 22 .7-.8 1.5-1.6 2.2-2.4-2.2-8.8-4.4-17.5-7.1-28.4z"/><path fill="none" stroke="#0A0909" stroke-miterlimit="10" stroke-width="6" d="M1544.5 1265.8c-45.8 3.3-92-32.8-109-57.8s-19.5-111-9.8-159.5c55.8 102 94 112.5 94 112.5s15.2-17.7 24.8-10.5c5.2 1 17 10.8 20.3 25.5 3.2-8.5 11.3-20.2 22.2-24s28.3-.5 39.5 30.7c4.5-17 13-30.9 23.2-33.7 10.2-2.7 32.7 2.6 42.4 37.1 3.6-9.7 1.6-33.3 25.1-35.4 23.5-2.2 26.7 20.8 26.7 20.8s8.8-25.3 23.8-21.8l8.7 2 1.8-11.9 17.2 6.1s35.9-33.9 48-62.2c4.3-14.3 0 94-17.5 122.7-6.3 14.5-14 30.5-44.2 42.6-4 15.4-1.2 37.4-1.2 37.4s3.5 26-.8 33.8c-4.3 7.8-44.2 59-132 59.7-71.6-5-153.2-1.6-251.3-60.5-8.1-59.3-57.9-138.7-57.9-138.7l36.3 14.6 47-26.5"/><path id="sd1" fill="#252523" d="M1656.1 1291.8c8 .7 16.2 2.1 22-5.8 1-3.9 3.5-6.3 7.6-6.7 1.4.5 2.3 1.4 2.7 2.8-9.7 13.8-16.9 17.6-36.5 11.9 1.6-.2 3.4-.3 4.2-2.2z"/></svg>