<svg xmlns="http://www.w3.org/2000/svg" viewBox="0 0 3000 3000"><g id="mouth"><path id="cl2" fill="#232121" stroke="#040000" stroke-miterlimit="10" stroke-width="6" d="M1509.614 1180.292s-12.198.353-36.283-24.494c-31.144-8.715-98.571 30.971-98.571 30.971s-21.077-.551-33.675-5.102c-5.04 2.121 54.16 109.999 56.176 138.614 16.63 19.901 100.908 40.219 100.908 40.219l110.014 16.572s62.991 5.299 81.939-3.301c18.947-8.596 89.259-48.585 91.88-55.771 2.621-7.183-14.477-58.809-14.477-58.809l23.08-113.639-22.779-8.361-2.719 11.655s-26.308-12.598-33.965 20.255c-8.063-27.438-40.617-29.087-50.695 7.065-15.423-36.859-45.354-39.803-60.777-3.769-3.527-19.31-36.081-38.625-56.135-3.297-17.639-27.905-36.789-40.859-53.921 11.192z"/><path id="hl2" fill="#444141" d="M1513.141 1247.768c-2.623 1.887-4.135 0-5.646.12-12.397 1.646-20.662-6.359-28.422-16.133-5.439-6.949-12.094-12.601-16.828-20.02-9.071-14.131-9.071-14.603 4.432-22.61 2.016-1.177 4.435-1.767 6.654-2.59 8.667-3.298 17.03.235 20.356 10.13 3.225 9.42 7.159 18.252 11.694 26.849 3.828 7.3 5.844 15.658 7.76 24.254z"/><path id="sd4" fill="#31312F" d="M1680.243 1205.61c.202-1.53.504-3.18.706-4.71.198-1.295.604-1.53 1.31-.353.101 5.416.303 10.834.4 16.251-.1.824-.198 1.766-.198 2.591-1.411.706-2.825 1.53-4.233 2.236 0-.823-.103-1.648-.103-2.59 2.824-4.004 1.412-8.95 2.118-13.425zm1.815-13.307c-2.116 2.119-1.412 5.888-1.108 8.596.4-.236.904-.353 1.31-.353-.001-2.354-.202-5.888-.202-8.243zm-106.43 64.417c1.31.821 2.62 1.531 3.928 2.355 4.031-11.897 1.21-23.32-1.714-34.739-1.512-.121-3.023-.121-4.535-.235.104 3.061.104 6.123.202 9.185.403.709.504 1.414.302 2.238-1.206 7.298-2.618 14.599 1.817 21.196zm102.802-28.147c-.202.589.1-.588 0 0-.607 3.533-.504 7.066-.607 10.716-.101 1.887-.202 3.769-.101 5.656.504 5.768-1.411 12.129 2.92 16.955h.706l.706-.118c4.938-8.125 3.728-16.958 2.418-25.907-.706-5.535 1.208-7.537 5.944-7.418 5.442.117 11.189 2 16.328-1.887-9.165.122-18.841.59-28.314 2.003z"/><path id="sd3" fill="#86877F" d="M1608.18 1377.071c-14.008-2.001-29.506-3.45-43.111-7.571-26.615-2.932-45.364-2.374-71.568-10.5-14.714-4.593-33.528-4.96-46.73-13.556-15.221-9.892-32.992-14.608-48.31-24.382-3.931-2.477-11.839-35.966-13.655-41.146-9.374-27.673-21.576-42.631-32.662-69.482-.201-.589-10.627-25.478-10.726-27.6 7.922.309 28.361 3.687 39.416.524 13.304-6.477 28.604-12.92 41.909-19.516 4.937-2.473 32.446-13.62 34.462-7.376 1.21 3.652-16.328 23.236-16.025 27.357 1.714 17.311 8.869 31.795 18.646 44.279 7.659 9.776 15.118 19.786 22.979 29.56 4.435 5.652 5.142 11.304 2.721 18.253-2.822 8.007-5.845 15.778-9.272 23.433-4.736 10.129-4.535 10.833 5.343 13.897 20.357 6.356 40.717 12.833 61.176 19.075 11.693 3.533 22.98 8.363 34.771 11.658 10.28 4.71 22.275 4.475 30.539 14.72 1.107 4.596 3.02 14.368.097 18.373zm-29.428-185.828c0-3.886.1-7.772-.101-11.656-.607-12.365-3.023-14.252-12.903-10.009-.807.821-1.612 1.646-2.416 2.472-3.328 14.014-4.84 28.145-1.21 42.511.604.825 1.31 1.535 1.915 2.355 18.845 5.067 32.148 7.89 48.68 7.187 2.92-.121 5.943-2.476 3.527-7.301-7.257-.824-14.614-1.531-21.871-2.355-15.217-4.126-15.721-4.951-15.621-23.204zm-23.987 74.309c1.408-6.477-1.615-12.012-2.623-18.02-2.016-11.776-1.108-13.187 8.769-11.894 4.838.589 9.877 2.12 14.11-2.355 1.411-3.061 1.411-6.124-.101-9.185-4.435-5.182-10.383-3.297-15.622-4.474-9.978 1.409-19.553-3.654-30.843-2.944 5.947 15.777 7.158 32.737 17.237 45.217 2.32 3.888 4.74 7.068 9.073 3.655zm-43.267-90.702c-1.713 11.542.567 13.647-1.045 25.187-.607 4.591 5.711 4.279 9.742 5.927 9.877 4.004 20.157 5.299 30.133 8.009 2.721.708 5.241-.469 7.761-1.647.2 0 .302-.353.401-.942.103-.588-.102-1.178-.605-1.649-8.163.236-15.722-3.297-23.583-4.946-4.434-.941-6.751-4.71-5.743-10.478 1.612-9.188 2.92-18.374 4.535-27.557 1.712-9.538.555-12.417-6.4-16.303-4.129 1.645-14.49 19.335-15.196 24.399zm107.034 10.483c-3.325 9.185.331 23.927.231 33.23 1.108 4.828 4.937 5.182 8.667 6.124 6.854 2.825 11.389 2.355 19.05 3.414 9.171-.235 16.226.469 27.212-1.297 2.216-.825 4.132-2.002 5.439-4.358.504-1.295.306-2.472-.504-3.532-5.238.235-10.381.356-15.622.588-5.237 3.653-11.086 2.238-16.525 2.123-20.462-.472-17.741.821-18.042-20.729-.201-11.187 1.647-26.417-2.081-37.368-5.242 6.597-7.722 13.326-7.825 21.805zm64.631 31.349c-.806 1.295-.904 2.588-.1 4.001 10.784 7.421 35.274.356 46.663-4.828 2.318-2.591 3.83-5.535 3.527-9.303-.904-10.716.068-23.789-2.752-34.151-2.32-3.768-6.719-15.151-10.246-18.095 0 13.188 3.222 34.466 3.123 47.655-.102 10.479-.504 10.834-10.381 12.245-9.875 2.12-19.755 3.886-29.834 2.476zm60.878-6.477c1.107-.356 2.317-.588 3.427-.945 1.31-.942 2.92-.588 4.132-1.766 4.233-1.295 8.467-2.473 12.598-3.886 3.124-1.057 5.141-3.533 5.342-7.655.706-13.66 1.411-31.118-3.93-43.954-1.914-.708-8.938-4.175-11.254-3.94 4.535 12.601 9.138 30.702 9.238 44.008 0 4.475-1.312 7.418-5.343 8.479-2.217.589-4.432 1.531-6.651 2.355-5.241 2.472-10.381 4.946-16.126 4.474-.302 1.414.303 2.238 1.311 2.827 2.418.943 4.834 1.181 7.256.003zm33.562-21.553c1.813-8.243 3.829-16.366 5.341-24.609 2.722-15.897 3.631-12.012-8.566-17.196-.604-.232-.374-6.829-.978-7.066-4.938-1.294-5.875 5.182-5.573 13.309 4.232 4.59 4.232 11.188 6.15 16.955 3.021 5.536-2.724 13.664 3.626 18.607zm-23.988 75.367c.604-.821 1.21-1.646 1.915-2.235 5.742-10.362 6.048-22.138 6.147-33.915.101-15.666.404-19.313-15.218-13.778-.306.117-.706 0-1.008 0-3.226 1.057-6.353 2.234-9.575 3.061-3.127.825-4.232 3.299-4.938 6.477-.604 1.177-.504 2.238.302 3.18 3.023 1.178 5.846-.118 8.769-1.061 11.087-3.765 13.506-1.41 12.801 12.248-.504 9.774-3.528 18.724-5.443 28.146 2.418 1.056 4.233-1.063 6.248-2.123zm-24.188-40.156c-1.814-3.533-4.436-2.12-6.955-1.413-5.039 1.413-10.078 2.711-15.117 4.121-5.944 1.887-11.991.71-17.94.825-5.039.117-6.753 2.591-5.14 8.125 6.651 5.888 13.404.824 20.054.235 12.902-3.064 14.11-1.886 14.214 12.834.101 7.89.101 15.544-4.031 22.494-1.21 2.121-2.825 4.59-1.008 7.419 9.373-5.181 13.805-14.014 14.007-26.028 3.327-9.182 4.939-18.717 1.916-28.612zm-61.479 6.361c-11.994 1.178-23.987 2.709-35.779-1.298-1.108.121-2.116.121-3.226.236-5.14 9.892-4.232 20.019-.705 30.264.705 10.363 6.45 17.192 12.399 23.905.604 0 1.207 0 1.813-.236.807-9.3-3.527-17.543-3.729-26.849-.402-14.367-.807-14.72 12.094-14.72 9.979-.942 20.359 2.944 29.934-3.18 0-3.412 1.008-7.183-1.813-9.889-3.732.59-7.363 1.411-10.988 1.767zm-73.98 43.687c2.218-4.593-1.108-8.007-2.016-11.894-4.432-18.962-1.512-23.552 14.919-23.084 3.326.121 6.651.355 9.877 1.414 2.822.471 5.543.471 7.96-1.531 2.32-4.242 1.713-7.654-2.417-9.656-14.717 0-29.127-3.415-43.741-4.71-1.108 11.776 1.21 23.316 1.714 34.975 3.427 6.243 7.657 11.427 13.704 14.486zm87.18-12.13c-.198-6.359-.302-12.836-.504-19.194-2.52 7.066-1.71 14.364-1.512 21.665.708-.822 1.314-1.643 2.016-2.471z"/><path id="hl1" fill="#E7E6E2" d="M1606.266 1358.345c-9.473-5.771-20.257-7.301-30.033-12.012-1.612-2.119-2.822-4.593-2.722-7.301.806-21.786-4.132-43.451-1.814-65.236 2.016-8.244 6.651-7.538 11.691-4.243 4.639 3.065 7.761 9.892 13.102 11.423 10.28 4.946 20.661-2.238 28.422-9.421 7.761.118 7.963 13.542 14.715 15.31 7.559 4.71 15.319 7.537 23.989 4.71 4.636-1.649 7.56-6.005 10.885-9.656 3.426-3.766 7.155-6.477 11.389-2.473a15.633 15.633 0 0 1 1.916 1.884c.604.589 1.31 1.061 2.016 1.649.703.471 1.408.942 2.115 1.413 1.111.589 2.119 1.178 3.326 1.646.809.236 1.615.588 2.321.824 4.733.942 9.372 1.061 13.805-1.178.607-.353 1.411-.47 1.816-1.059 8.365-4.476 13.707-15.074 17.534-16.956 12.801 6.477 17.438 6.357 21.065.824 1.107 0 2.115.118 3.124.354 11.389 7.302 19.585 16.84 15.554 31.087-.704 1.532 1.748 8.536 1.042 10.065-4.031 9.657-7.557 22.848-16.022 27.325-7.559 5.768-23.087 7.858-31.251 12.925-11.893 9.653-25.863 7.386-40.478 7.153-21.971-.356-43.741 4.239-65.813 4.943-4.235.003-8.469.36-11.694-4zm74.18-182.175c-5.241-10.832-11.591-16.602-21.669-22.846-8.872-4-13.206 1.534-15.622 10.366-2.923 10.478-3.631 21.314-3.631 32.384.104 26.26 0 26.26 22.78 26.613 5.543-.117 11.187.709 16.63-1.883m2.015-27.559c0 2.708 0 5.535.101 8.243 2.016 5.182-.604 11.305 2.217 16.369 10.583 4.001 20.86 3.412 30.637-3.064 4.031-16.72 3.226-33.679.504-50.401-1.208-7.536-5.44-13.307-13.503-11.188-4.031.236-6.753 3.297-9.376 6.241-5.341 6.008-7.055 14.014-8.766 22.021-2.419 3.536-1.615 7.775-1.814 11.779zm-63.328-23.63c-4.434-9.657-9.845-12.051-19.419-16.172-12.8-2.474-14.008-1.296-14.815 12.954-.604 10.951 1.313 21.903.504 32.737-.604 9.185 2.119 15.073 9.88 17.546 7.356.706 14.511 4.828 22.069 1.646 1.008-.822 1.714-1.766 2.218-3.062 3.325-10.481-1.21-20.961.1-31.442-.1-1.295 1.411-1.881 1.313-3.179-.003-1.293-1.549-9.966-1.85-11.028zm117.147 38.115c7.56 4.474 13.405 1.298 18.344-5.767 2.52-12.365 2.016-24.851.504-37.095-.806-6.009-5.241-15.116-13.202-11.346-5.04 3.178-5.713 9.028-7.459 16.409.602 15.188-1.008 24.139 1.813 37.799zm-168.012 33.093c1.008 6.241 1.111 12.244 1.313 18.485.101 2.827 1.311 4.242 3.528 4.71 2.416-1.531 3.023-4.59 4.636-6.945-1.108-7.066 1.008-14.484-1.714-21.433-3.024.941-8.869-1.882-7.763 5.183zm123.063 36.856c.604-.118 1.107.117 1.31.824.907.706 1.714 1.531 2.822 1.646l.705-.117.504.588c1.612 1.414 3.527.942 5.342 1.058 4.938-.468 7.962-3.886 9.475-9.064 3.325-11.423 2.721-23.084 1.41-34.74-.402-3.653-2.217-6.712-6.248-4.593-6.654.824-13.304 1.766-19.956 2.591-3.528 8.243-.705 17.428-2.419 25.907.503 6.361 3.928 11.072 7.055 15.9zm41.624-51.225c0 10.127-.101 20.373-.101 30.499l2.016 2.355c9.373 1.296 9.976.822 10.079-9.421.101-5.888.302-11.542 1.71-17.31 1.313-5.535-.604-9.067-6.047-8.832-2.819.118-5.44.824-7.657 2.709zm-85.668 38.978c.101 18.252 5.543 22.374 21.064 17.428 6.147-4.354 11.187-9.774 12.293-18.606 2.016-7.066-.504-14.6 1.512-21.665 0-1.414 0-2.827.104-4.122-10.686-1.178-21.366-.825-31.949-.236-5.242 8.36-3.125 18.016-3.024 27.201zm-23.586 2.591c.809-2.944 1.614-5.771 2.419-8.715-.303-7.066 1.008-14.131-.202-21.076-2.62-.121-5.241-.121-7.861-.236-2.923.236-5.946.12-8.769.943-2.52.708-5.341 2.236-5.24 5.888.403 10.954-2.318 22.256 1.915 32.973 7.359.468 12.698-4.125 17.738-9.777z"/><path id="sd2" fill="#494A47" d="M1618.865 1214.327c-1.21 2.119-.504 2.823-2.317 3.297 0-11.069-.706-23.08 1.611-33.915.607 2.234.808 4.71 1.512 7.066.303 10.125-.303 15.659-.806 23.552zm59.565-33.683c1.107 7.89-.81 19.902 1.512 27.674 1.408-.942 1.008-5.416 1.008-6.945.198-2.591-.504-5.299.702-7.775.104-4.001 1.008-8.243 1.111-12.129-1.209 0-3.023-.825-4.333-.825zm87.378 76.076c1.615-1.178 1.817-2.827 1.512-4.831-2.214-1.767-1.31-4.589-1.912-6.945-2.624 4.122-2.318 8.005.4 11.776zm-34.466.233c2.318-16.604 1.814-20.136.101-30.497-.101-.942-.302-1.887-.403-2.826-.504.121-1.008.121-1.612.235 1.411 15.309-1.311 17.899-1.915 28.615 1.31 1.529 2.517 3.063 3.829 4.473zm-106.732 2.355c1.21.12.806-5.768 2.016-5.652.202-10.01-1.008-18.721 2.317-24.377-2.217-.117-4.837-.117-7.055-.117 4.436 3.768 3.125 5.535 2.016 8.949-1.008 10.367-.707 12.248.706 21.197z"/><path id="cl1" fill="#C7C8BC" d="M1572.605 1270.731c-.306 25.318 4.636 50.168 3.527 75.487-28.422-9.067-56.844-18.02-85.268-27.206-6.753-2.119-13.808-3.061-20.157-7.065-3.124-2.002-3.729-4.001-1.209-7.183 7.256-9.657 10.079-22.021 14.614-33.326 1.512-3.769.706-6.598-1.612-9.542-5.443-6.945-10.179-14.837-16.226-20.843-13.102-12.833-19.855-30.262-27.212-47.458-1.713-4-2.419-7.419 1.814-9.655 1.21 1.886 2.822 3.533 3.528 5.534 8.967 25.201 27.212 41.216 43.136 59.469 2.016 2.355 4.333 3.18 7.156 3.533 10.685 1.299 21.267 3.298 31.949 4.122 5.946.472 11.086 2.002 15.221 7.187 6.549 8.245 12.496 12.128 30.739 6.946zm33.669 105.817c24.796 2.002 50.487 2.013 75.18-1.639 16.83-2.59 62.057-23.806 74.048-37.584-2.52-.468-36.356 8.183-38.473 9.244-9.575 5.063-19.454 8.126-30.136 7.065-14.109-1.414-27.918 3.65-42.027 2.473-1.612-.118-3.223 1.06-4.838 1.178-11.187.824-22.475 2.591-33.764 1.06.103 4.475-.088 13.73.01 18.203zm-76.809-204.382c-1.31 6.359-2.215 12.954-3.023 19.43-.604 4.832-.703 10.598 3.226 12.486 9.373 4.71 18.947 10.951 29.731 4.59 2.116-12.129 8.539-29.44 2.694-41.805-2.32-4.239-5.664-7.399-8.386-11.284-8.063-11.542-19.178-13.406-27.542-6.576 2.419 6.241 4.713 16.45 3.3 23.159zm106.298-20.167c-4.031 3.533-7.089 6.348-9.407 11.53-2.116 8.713-.839 21.71-.839 30.659-.104 30.973 1.207 32.267 27.716 30.618 3.727-.234 8.365.944 9.877-5.299-5.039-.117-9.978-.233-15.018-.233-3.023 0-5.24-1.178-5.341-5.299-.202-16.721-1.108-33.443 3.226-49.814 2.52-9.42 3.527-10.243 12.9-10.952-7.861-7.068-15.858-7.567-23.114-1.21zm-48.346 45.367c.202-1.53.607-3.179.202-4.593-2.521-8.36-1.21-16.955-1.311-25.551-.104-14.014.101-14.014 11.893-14.014-4.938-4.002-9.979-3.179-15.118-.706-7.356 3.412-13.002 9.186-17.335 16.84.607 1.06 1.411 1.53 2.52 1.178 7.36-1.884 7.459-1.884 7.761 5.888.202 5.888-.706 11.893.101 17.547.809 5.652-4.334 12.597.705 16.486 3.83 2.944 9.575 2.708 14.514 3.765.904.236 2.016-.118 3.023-.232-8.466-4.831-8.466-4.831-6.955-16.608zm138.581 6.714c.705-13.896 1.411-28.027-2.521-41.57-6.349-11.543-11.086-13.425-22.475-9.188 8.769 3.653 11.994 8.6 12.194 19.902.202 13.66-.1 27.321-.1 40.98 8.47 2.946 12.397.355 12.902-10.124zm38.604-7.066c2.92-15.073 5.039-30.618-4.939-44.043-8.163-5.417-10.098-7.675-18.463.217 6.249 1.884 9.896 6.733 10.1 16.269.303 11.187.101 22.257.2 33.445 6.046 2.825 11.892.588 13.102-5.888zm-7.257 69.128c-.607 1.294-1.714 1.53-2.822 1.53-.809.118-1.411.589-1.713 1.413-.202.942.1 1.646.806 2.12 3.931-.118 5.947 3.062 7.761 6.477 3.628 6.477 4.936 13.66 4.031 21.314 4.535-4.239 4.535-10.242 3.83-15.897-.907-8.008-2.116-16.015-5.846-23.081-1.915.353-3.325 1.649-4.135 3.769-.3 1.056-.904 1.881-1.912 2.355zm-183.229-29.797c.504-.942.504-1.999 0-3.062-5.646.117-11.19-.353-16.733-1.766-8.667-2.119-10.983.706-9.07 10.951 1.512 7.891 3.829 15.545 5.744 23.32 6.148 3.533 12.095 4.828 17.437-1.887.301-9.184-5.441-19.194 2.622-27.556zm28.22 42.162l2.116-.71c1.813-4.944 1.008-10.127.604-15.073-.904-11.54.607-20.961 11.59-24.612-8.063-4.59-17.03-.821-25.396-3.533-1.815-.588-2.922 1.534-2.922 3.654 0 12.244-1.714 24.965 5.745 35.681 2.619 1.528 5.438 3.058 8.263 4.593zm97.661 4c3.829 0 7.66.472 11.086-2.234.807-.472 1.412-1.534 2.42-1.534h.101c7.055-9.42 8.264-20.487 7.962-32.501-.504-16.25-1.008-17.192-14.916-14.131-.607.117-1.111.824-1.615 1.294 2.016.589 4.031 1.414 4.031 4.243-.101 10.363 1.21 20.843-.904 31.207-1.21 6.005-3.226 11.066-9.272 11.893-.303 1.057.1 1.646 1.107 1.763zm33.361-23.199c3.425 5.888 8.365 7.301 14.007 6.833 8.166-8.479 7.459-20.14 7.861-31.09.607-17.075-2.215-18.841-16.126-11.422 5.543 12.127 2.723 29.91-5.742 35.679zm-90.707-21.429c-5.543.468-8.467 3.176-7.559 9.421 1.71 12.128.302 25.197 7.356 35.796.807.589 1.612 1.06 2.318 1.649 5.039 3.532 10.482 2.944 16.025 2.825 1.912-1.767 4.837-1.767 6.047-4.83h-4.938c-11.289 0-13.103-2.235-13.203-15.662-.104-9.657 0-19.431 0-29.087-2.015.003-4.031-.232-6.046-.112z"/><path id="sd1" fill="#1A1B19" d="M1558.091 1212.323l-.303-2.474c1.008-12.365 2.215-24.849 2.215-37.329 1.111 0 2.218-.121 3.329-.121-1.111 14.014-1.714 28.146-1.21 42.16-1.31-.821-2.721-1.53-4.031-2.236z"/><path fill="none" stroke="#040000" stroke-miterlimit="10" stroke-width="6" d="M1509.614 1180.292s-12.198.353-36.283-24.494c-31.144-8.715-98.571 30.971-98.571 30.971s-21.435-1.667-34.925-6.124c-5.04 2.122 55.41 111.02 57.426 139.636 25.574 17.044 100.908 40.219 100.908 40.219l110.012 16.572s62.991 5.299 81.939-3.301c25.848-6.269 88.903-50.085 91.524-57.271 2.623-7.183-14.121-57.309-14.121-57.309l23.08-113.639-22.032-7.39-3.464 10.687s-26.308-12.598-33.965 20.255c-8.063-27.438-40.617-29.087-50.695 7.065-15.423-36.858-45.354-39.802-60.777-3.768-3.527-19.31-36.081-38.625-56.135-3.297-17.639-27.909-36.789-40.863-53.921 11.188z"/><path fill="#C7C8BC" d="M1458.716 1158.034s-102.939 110.509 58.96 229.632c0 0-77.152-153.25-7.208-189.989 0-.001 2.451-84.391-51.752-39.643z"/><path fill="#86877F" d="M1454.685 1166.866s-30.236 56.819-2.268 116.877c27.968 60.058 56.222 84.325 56.222 84.325l4.502 13.71s-38.608-23.563-57.229-55.053c-18.622-31.489-33.996-63.59-29.455-96.858 4.543-33.266 15.126-49.752 28.228-63.001z"/><path fill="#E7E6E2" d="M1502.306 1159.801s-62.235 52.992-39.054 111.872c23.181 58.88 46.362 105.689 46.362 105.689s-42.331-95.091-27.968-132.186c14.362-37.095 16.071-34.943 28.823-47.5-.001 0-1.038-26.339-8.163-37.875z"/><path fill="#C7C8BC" d="M1767.824 1153.092l1.754 49.691s23.243 61.824-13.544 143.079c0 0 78.551-54.776 55.433-160.528-15.622-71.46-43.643-32.242-43.643-32.242z"/><path fill="#E7E6E2" d="M1792.57 1147.436s13.606 39.155 8.819 91.853c-4.788 52.698-25.701 86.848-38.047 98.036 0 0 46.162-35.111 51.048-93.216s-6.954-81.953-21.82-96.673z"/><path fill="#86877F" d="M1769.58 1178.348s27.272 19.059 23.241 65.76-32.503 96.16-32.503 96.16 20.66-56.525 18.645-97.888c-2.016-41.363-7.055-39.597-7.055-39.597l-2.328-24.435z"/><path fill="none" stroke="#000" stroke-miterlimit="10" stroke-width="6" d="M1767.824 1153.092l1.754 49.691s23.243 61.824-13.544 143.079c0 0 78.551-54.776 55.433-160.528-15.622-71.46-43.643-32.242-43.643-32.242zm-309.108 4.942s-102.939 110.509 58.96 229.632c0 0-77.166-150.892-7.223-187.63 0-.001 2.466-86.75-51.737-42.002z"/></g></svg>