<svg xmlns="http://www.w3.org/2000/svg" id="panties" viewBox="0 0 3000 3000"><path id="cl1" fill="#FFF" d="M1648 1829.334c59.333-10.666 119-62.666 123-73.334 3 0 32.813 41.11 32 40.668-3.667-2-26 7.332-27.667 7.332s-27 27.668-31.666 30.668-57.88 54.641-66.292 64.707c-12.653 15.143-36.75 50.625-67.195 36.554-5.667-10.332-35.18-41.261-61.18-57.929-63.333-42-129.333-45.332-127.333-45.666s19.667-50 19.667-50c96.666 61 181.333 52.334 206.666 47z"/><path id="sd1" fill="#EBEBEB" d="M1496 1815.25l-6.25 23.375s85.583 29.711 110.25 67.377c15 16.332 50.452 15.365 66.118 3.032s-18.577 36.007-42.743 31.341c-10.333-.332-40.708-40.375-47.708-41.707-13-12.334-77.333-46-81.333-47s-45.333-16-69.333-17.666c-4.333 1.332 18.333-48 18.333-48L1496 1815.25z"/><path fill="none" stroke="#000" stroke-miterlimit="10" stroke-width="6" d="M1649 1831.265c59.333-10.666 118.188-61.087 122.188-71.754 3 0 22.339 38.466 22.339 38.466s-9.215 2.84-17.193 7.955c-9.896 6.345-23.915 19.084-34.832 28.734s-52.9 49.266-65.983 64.833c-8.578 10.207-26.832 36.592-34.597 39.085-9.667 3.104-21.219-.77-30.171-2.835-5.667-10.333-34.75-39.15-60.75-55.817-63.333-42-124.269-45.408-124.269-45.408l20.304-47.944c96.664 61 177.631 50.019 202.964 44.685z"/></svg>