<svg xmlns="http://www.w3.org/2000/svg" id="panties" viewBox="0 0 3000 3000"><path id="cl1" fill="#FFF" d="M1424.25 1807.875l-18.25-37.873h38.25l-6 33.748 2.75.916c15 5 153 43 200 26.002 95.54-10.827 135.417-60.666 135.417-60.666 6.084 3.5 12.333 13.332 9.25 14.332-30.667 12-72.667 59.334-88.667 75.334s-42.666 56.332-44.666 58.666c-2 2.332-23.334 27.334-42 13.666-43-109.332-175-115.166-175-115.166l2.333 7.166-48.667 22 10.667-58.332 24.583 20.207zm394.5-5l22-32.873-46.875-4.252 31.5-13.375L1781.75 1725l-4.125 44.25 41.125 33.625z"/><path id="sd1" fill="#C2C2C2" d="M1392.833 1825.038l39.792-2.663 4.208.125-4.333-7.832 5.333-8.834s76.125 23.728 84.334 26.697c24.333 8.802 63.826 38.262 96.333 78.469 11.699 14.47 33.665 2.5 38.665.5S1643 1933.5 1632 1935s-21.5 0-21.5 0-12.917-24.998-16.417-31.498-26.583-32.584-30.083-34.584-32.5-25.918-43-27.918c-19.5-10.5-55-18-75.5-18.5-8.5-4.655-13.5 4.656-13.5 4.656l-12.333 4.346-30.667 12.623 3.833-19.087zm37.613-9.79l-4.833-44.5-20.779.754c1.999 3.5 25.612 43.746 25.612 43.746zm395.804-60.935l-12.688-7.313-37.903 23.896 50.591-16.583zm-51.625 14.062l42.042 34.459s15.167-19.5 13.834-20.5-55.876-13.959-55.876-13.959z"/><path fill="none" stroke="#000" stroke-miterlimit="10" stroke-width="6" d="M1424.25 1809.875l-20.25-37.873h38.25l-6 33.748.476.159 2.454-1.85c15 5 136.443 35.42 199.821 28.608 91.5-9.834 135.417-60.666 135.417-60.666 6.084 3.5 12.333 13.332 9.25 14.332-30.667 12-72.667 59.334-88.667 75.334s-42.666 56.332-44.666 58.666c-2 2.332-23.334 27.334-42 13.666-40.806-103.754-161.761-114.301-173.999-115.106-.658-.043-1.002-.06-1.002-.06l2.333 7.166L1387 1848l10.667-58.332 26.583 20.207zm392.5-5l22-32.873-46.875-4.252 31.5-13.375L1779.75 1727l-4.125 44.25 41.125 33.625zm-384.583 12.709l4.917-12.5"/></svg>