<svg xmlns="http://www.w3.org/2000/svg" id="panties" viewBox="0 0 3000 3000"><path id="cl1" fill="#FFC4DC" d="M1435.5 1808.5s98 31.5 112 28.5 46.5-21 46.5-21 18.5 20 21.5 24 47-2.667 48-4.167 19.153-35.856 20.653-37.856S1723.5 1804 1727 1804.5s41.5-32.5 44.5-38.5 11.167 12.167 9.667 14.167-78.154 59.333-124.154 131.333c-23.527 33.333-46.137 26.585-48.682 22.585S1587 1887 1551.5 1867.5c-40-28-97-39.5-116-41-4.619-.426-7.5-3-7.5-3l7.5-15zm375.167-17.166l14.333-37.666-34.409 3 24.076-18.668-41-24.332v48.666l37 29zm-402.334-16.666l16 43.334-24.333-26.668-10.667 61.668 45.333-22-3.333-9.334 15-47h-38z"/><path id="sd1" fill="#FF98BF" d="M1395.667 1827.334l34-3 5.333-12.666s128.133 12.398 183.264 99.832c4.763 7.554 35.903 5.419 41.236-3.581-14.681 29.115-35.342 33.449-47.675 29.115-8.333-4-8.979-11.387-16.421-26.598-10.57-21.604-41.07-66.103-160.404-85.435-2.333 3.666.333 6.332.333 6.332l-42 21.334 2.334-25.333zm12-51.332c-.667 1.334 21.7 44.764 21.7 44.764s-8.7-45.764-7.7-46.764c0 0-13.334.666-14 2zm389.083-47.252l-21.25 30.75.93 4.999 34.82-25.499-14.5-10.25zm-18 36.25l30.5 26.5 9.75-23.25-40.25-3.25z"/><path fill="none" stroke="#020202" stroke-miterlimit="10" stroke-width="6" d="M1435.5 1808.5s98 31.5 112 28.5 44.771-22.875 46.5-21 18.5 20 21.5 24 46.667-2.334 47.667-3.834 18.164-36.311 19.664-38.311S1723.5 1804 1727 1804.5s41.5-32.5 44.5-38.5 12.502 11.402 11.002 13.402-77.002 56.431-134.002 144.864c-16.521 20.623-38.789 13.029-41.334 9.029s-18.274-46.068-52.666-67.463c-41.458-25.791-100-37.833-119-39.333-4.619-.426-7.5-3-7.5-3l7.5-14.999zm375.167-17.166l14.333-37.666-34.409 3 24.076-18.668-41-24.332v48.666l37 29zm-402.334-16.666l16 43.334-24.333-26.668-10.667 61.668 45.333-22-3.333-9.334 15-47h-38z"/></svg>