<svg xmlns="http://www.w3.org/2000/svg" id="panties" viewBox="0 0 3000 3000"><path id="cl1" fill="#B3B0EA" d="M1464 1810.002c1.667-.668 12.833-3.334 16.833-1 8 1 13.167 21.166 36.167 15.332 7.383-4.166 21.497-5.918 28.834 2.168 8.166 9 18.833 18.5 30.521 8.224 10-8.332 20.022-6.503 20.022-6.503s22.29 23.111 39.29 7.779c9.666-11.834 16.499-11.666 36.833-10 21.167 6 28.782-20.755 28.782-20.755 10.431-8.957 20.007 1.171 25.719-2.079 10.833-6.166 14.5-21.166 14.5-21.166 11.015-3.396 28.749 2.748 33.026-14.902 7.333 4 18.954 31.061 18.954 31.061s-6.481.512-17.814 3.846c-7.667-1-30.833 15.665-37.833 19.665s-47.018 43.097-60.666 62.5c-27.334 46.666-47 64.001-64.677 50.688-7.568-5.7-21.991-39.604-21.991-39.604-21.999-28.916-46.737-40.593-72.332-49.749-46.783-16.739-91.502-11.833-91.502-11.833l11.179-35.053c2.334 3.326 8.322 19.381 26.155 11.381z"/><path id="sd1" fill="#626FBC" d="M1486.203 1813.587s.047 16.582.047 17.913c0 1.334 83.25 11.5 128.416 70.834 20.021 26.303 34.334 11.166 45.084 7.916 1.667 3.334-8.75 12.25-15.25 19.25-3.551 3.823-16.502 16.502-22.168 9.834-15.832-4.334-26.479-39.373-27.479-40.373C1578.5 1877 1540.667 1851.334 1531 1849s-57.794-15.498-102.46-15.498c2.46-14.502 11.96-33.002 11.96-33.002s9.379 15.802 17.835 12.502c8.456-3.298 17.932-4.329 19.599-3.663 1.667.668 5.936 1.248 8.269 4.248z"/><path fill="none" stroke="#000" stroke-miterlimit="10" stroke-width="6" d="M1462 1811.002c13.45-4.399 20.618-.766 24.333 2 7.05 5.248 20.051 17.841 28.667 12.332 10.692-6.834 25.418-6.378 32 2.334 8.75 11.582 23.137 12.722 28.667 7.666 11.583-10.584 20.099-8.716 25-4.666 9.177 7.582 21.083 16.832 33 6.334 7.242-6.38 12.833-16.502 34.083-10.502 13.799 3.896 24.611-2.394 27.018-9.563 8.507-25.348 21.454-9.245 32.558-14.308 12.086-5.514 8.005-15.752 18.927-21.88 10.25-5.75 22 7.5 27.75-15.082 6.16 6.813 19.736 32.977 19.736 32.977s-6.736-.645-20.069 4.357c-7.239 2.717-24.072 10.049-38.417 20.998-6.408 4.893-50.5 44.832-66.5 73.5-27.334 46.666-39.421 42.721-50.925 40.996-9.37-1.403-19.852-33.418-27.325-43.246-54.793-72.049-164.55-60.662-164.55-60.662l15.009-34.769c2.331 3.332 1.74 17.499 21.038 11.184z"/><path fill="none" stroke="#000" stroke-miterlimit="10" stroke-width="4" d="M1434.834 1816.502s1.167 5.166 15.333 7.832c14.166 2.668 10.605-4.666 23.333-3.166s15.405 12.227 32.036 15.029c16.631 2.804 14.298-5.029 26.631-2.695 12.333 2.332 9 12.5 32 15.666s16.501-9 27.667-9 9.167 14.334 32.5 14.334 17.166-15.668 28.666-17.834 20 9.332 38.5.5c18.5-8.834 10.334-15.832 18.5-22.166s16.832 2.5 27.166-4.168c10.334-6.666 6.5-13.832 15-19.332s14.001 3.666 22.334-1c8.333-4.668 7-11.668 7-11.668"/></svg>