<svg xmlns="http://www.w3.org/2000/svg" id="panties" viewBox="0 0 3000 3000"><path id="cl1" fill="#AD57AD" d="M1438.875 1808.525l3.341-13.256 4.58 3.568c16.811 8.668 81.683 34.67 121.379 38.238 25.192 3.06 84.482 9.942 141.991-21.923 38.679-18.864 61.581-50.984 61.581-50.984l8.906 9.688-3.054 1.529c-12.978 5.354-55.474 59.651-76.849 85.653-28.752 38.933-42.241 57.611-60.054 68.063-4.326 4.334-27.482 13.001-30.026 5.099.763-13.766-14.759-42.572-41.732-65.005-59.799-46.396-131.813-60.161-130.031-59.906"/><path id="sd1" fill="#5F305F" d="M1527.206 1830.703s79.902 40.787 92.625 84.889c2.901 7.165 36.134-3.569 39.188-5.354 0 0-13.741 22.178-32.316 25.237-18.576 3.059-16.354 0-16.354 0s1.086-6.628-2.73-14.275c-3.817-7.647-19.849-35.435-31.554-43.847s-45.04-32.375-59.29-38.748-61.581-27.021-73.286-28.041c-2.799-1.529-5.631-2.804-5.631-2.804l2.068-9.942s10.179 1.02 12.724 3.569c2.543 2.549 68.45 28.806 74.556 29.316z"/><path fill="none" stroke="#000" stroke-miterlimit="10" stroke-width="6" d="M1437.856 1808.525l5.894-13.65s.921 3.328 2.028 3.963c15.483 8.888 81.683 34.67 121.379 38.238 25.192 3.06 84.482 9.942 141.991-21.923 38.679-18.864 63.078-52.694 63.078-52.694l7.408 11.397-3.054 1.529c-12.978 5.354-55.473 59.651-76.848 85.653-28.753 38.933-43.992 52.913-58.218 67.886-7.516 7.91-29.016 10.325-31.863 5.276-2.035-13.001-22.402-43.451-41.731-65.005-59.8-46.396-131.813-60.161-130.032-59.906"/></svg>