<svg xmlns="http://www.w3.org/2000/svg" id="Panties" viewBox="0 0 3000 3000"><path id="cl1" fill="#CFC4FF" d="M1433.681 1816.042s6.718-14.542 9.816-15.56c84 30.666 110.504 30.184 111.837 30.184S1595 1813 1596 1813s14 28 15.497 28 52.503-3.334 54.17-6.666c1.667-3.334 3.96-27.444 4.666-30.668 2.666-.334 50.334 13 53.334 10 14-4.334 52.513-43.062 53.179-43.728s8.821 13.396 8.821 13.396L1783 1785c-67 47.666-105.4 106.178-130.667 139-21.667 26.334-37.333 13-37.333 13l-2.333-5.666c-50.334-111-176.333-114.334-175.333-114.668l-3.653-.624z"/><path id="sd1" fill="#CC98FF" d="M1525.333 1828.666s70.666 34.668 95 87.668c7.667 4.332 36.668-4.334 40.334-6.668 3.666-2.332 0 3.291 0 3.291s-18.035 29.896-30.369 28.896-12.631-2.188-17.631-8.52c-5-6.334-11-27.666-21-38.334-10-10.666-34.668-35.334-45.334-41.334s-28.999-17-44.666-22-28.333-10.666-46.333-11.332c-18-.668-19-6.668-19-6.668l5.333-11.666c0 .001 81.666 27.001 83.666 26.667z"/><path fill="none" stroke="#000" stroke-miterlimit="10" stroke-width="6" d="M1433.681 1816.548s4.457-18.063 9.457-14.063c84 30.666 110.863 30.181 112.196 30.181S1595 1815 1596 1815s14 28 15.497 28 52.503-3.334 54.17-6.666c1.667-3.334 3.96-27.444 4.666-30.668 2.666-.334 50.334 13 53.334 10 14-4.334 52.513-45.062 53.179-45.728s8.821 15.396 8.821 15.396L1783 1787c-67 47.666-110.25 101.5-130.667 139-17.833 21-40.167 9.307-40.167 9.307l-4.905-12.957c-57.945-101.849-168.124-103.126-167.124-103.46l-6.456-2.342z"/></svg>