<svg xmlns="http://www.w3.org/2000/svg" id="panties" viewBox="0 0 3000 3000"><path id="cl1" fill="#9CF5FF" d="M1440.75 1805.811c3.333 3.334 66.25 34.522 67.584 31.856 8-6.666 14.666-17.918 41.738 7.832 10.999-1.084 25.159-15.215 32.826-12.883 2.368-.973 19.865 13.074 24.633 10.408s16.48-15.831 27.839-16.776c4-1.334 25.88 10.501 34.38 4.501 8.868-6.983 16.964-17.635 24.69-20.425 15.508-5.601 26.36 4.597 30.81-.075 17.25-9.25 25.105-15.334 26.439-15.334s26.76-21.946 26.76-21.946 10.219 14.364 8.219 14.364-13.333 9.334-16.333 10.334-41.001 35.248-47.335 39.582c-6.334 4.332-55.665 66.084-60.332 68.418-2.743 2.246-11 15-13.333 17.666-2.333 2.668-28.031 25.979-42.667 13.668-39.667-77-174-114-174-114s4.748-20.524 8.082-17.19z"/><path id="sd1" fill="#53CBDC" d="M1510 1839.5s28.045 16.117 53.25 35c24.493 18.35 46.082 39.427 51.75 43 11.5 7.25 40.671-4.956 41.671-6.956S1649.5 1928.5 1640 1930.5c-14.25 10.067-31.815 6.185-33.916 4.698-2.1-1.485-3.041-7.675-20.084-27.698-19.5-17-68.66-54.52-151.661-84.02-3.833-.5 5.661-16.48 5.661-16.48l70 32.5z"/><path fill="none" stroke="#000" stroke-miterlimit="10" stroke-width="6" d="M1438.87 1805.815s67.156 35.519 68.489 32.853c25.391-23.418 32.443 5 42.667 6.666s16.224-11.834 29.224-12.834 23.776 13.834 28.543 11.168 11.957-14.918 25.457-17.168 16.75 9 33.75 6c7.56-1.334 13.899-15.965 24.25-21 9.25-4.5 19.227-3.227 26.49-.882 4.589 1.481 5.76 3.216 32.388-14.574 15.662-10.464 28.743-23.464 28.743-23.464l8.211 14.377s-10.061 6.069-17.722 11.711c-2.546 1.875-34.11 25.082-49.86 42.582-5.134 5.704-47.272 51.682-57.808 65.418-7.259 9.464-14.61 19.416-16.942 22.082-2.334 2.668-24.91 13.952-40.968 5.704-39.666-77-172.089-110.452-172.089-110.452l7.177-18.187z"/></svg>