<svg xmlns="http://www.w3.org/2000/svg" id="panties" viewBox="0 0 3000 3000"><path id="cl1" fill="#8E8DF2" d="M1660.167 1831.834c87.5-32 111.333-70.668 111.333-70.668s26.5 40 23 40-16 8.834-20.5 8.834-37.166 27-45.166 32.5-33 29.166-52 52.666S1628.5 1943 1610.5 1937c-6.5-8.5-31.833-44.5-70.333-69.5s-115.54-38.646-115.54-38.646l21.54-46.02c19 14.5 122 74 214 49z"/><path id="hl1" fill="#FFF" d="M1770.711 1760.299l8.786 13.205s-77.997 71.75-157.33 76.041c-70.246 3.799-182.407-52.409-182.407-52.409l5.74-12.97s98.688 60.039 178.678 52.854c79.99-7.185 137.303-62.521 145.979-75.854m-336.575 49.928s128.623 60.071 192.585 55.071c85.146-6.653 160.905-80.243 160.905-80.243l-4.425-7.432c-27.521 26.658-94.37 74.659-158.48 79.343-58.857 4.299-187.895-52.821-187.895-52.821l-2.69 6.082zm-5.039 11.383l-1.084 6.903 12.301 2.532s9.74 6.253 41.406 12.921c31.666 6.666 58.333 22.332 58.333 22.332 27.525 9.69 37.563 16.143 81 16.334 47.667.212 86-21.666 86-21.666l10.401-8.954c24.733-27.954 79.266-52.714 79.266-52.714l-4.527-6.625s-57.49 38.726-89.473 58.625c-30 18.668-61.001 21.334-87.667 21.334-17.662 0-56.667-8.666-97.333-23.957-44.301-16.656-87.982-28.517-87.982-28.517m142.926 71.847s20.057 6.962 46.39 6.63c26.333-.334 62.851-10.201 62.851-10.201l9.398-10.213s-39.249 10.213-68.582 12.746c-31.393 2.713-60.546-8.331-60.546-8.331l10.489 9.369zm18.902 19.344s6.488 1.286 29.488 1.952 42.521-4.155 42.521-4.155l9.146-10.499s-30.332 5.988-47.998 6.988-41.334-4.002-41.334-4.002l8.177 9.716zm14.413 15.98h40.212l6.269-7.607c-4.618 3.979-52.695 1.519-52.695 1.519l6.214 6.088z"/><path id="sd1" fill="#7675EC" d="M1498.75 1809.75L1490 1837s91.75 30.75 117.5 76.5c14.334 23.643 66.667-16.334 66.667-16.334s-31 39.865-52.333 39.977c-14 .072-37.025-32.565-39.001-34.643-20-21-66.665-57.562-156.895-74.138-4.5 1.5 20.062-46.862 20.062-46.862s43.75 27.25 52.75 28.25z" opacity=".63"/><path id="li1" fill="none" stroke="#000" stroke-miterlimit="10" stroke-width="6" d="M1660.5 1831.166c87.5-32 110.211-70.867 110.211-70.867l25.456 39.867s-12.824 4.195-21.167 9.834c-11.741 7.938-27.749 16.427-46.833 32.834s-34.043 32.159-54.209 54.666c-26.091 29.12-33.124 44-64.374 38.35-6.5-8.5-28.272-41.016-66.772-66.016s-116.873-41.472-116.873-41.472l19.563-44.196c23.498 14.5 122.998 72 214.998 47z"/></svg>