<svg xmlns="http://www.w3.org/2000/svg" id="panties" viewBox="0 0 3000 3000"><path id="cl1" fill="#232323" d="M1449 1785.334c77.667 35.334 165.667 23.334 194 20 86.667-14.666 128.25-41 128.25-41s7.938 11.416 11.776 15.222c-9.333 1.334-38.526 10.444-55.694 36.104-2.931 4.38-50.998 73.675-53.332 78.675s-26.666 33.334-30 35.668-33.333 8.332-34.333 4.666c-1-3.668-22.667-49-72.667-89.666s-102.667-33-102.667-33 11-20.335 14.667-26.669zm120.667 48.668s58.667 26.666 62 30c3.333 3.332 13.666-5 15.666-7s42.334-38.334 43.334-38.334 14.334-10.334-6-6.334-91.334 14.334-115 13c-13 2 0 8.668 0 8.668z"/><path id="sd1" fill="#0F0F0F" d="M1442.125 1797.668s92.184 4.209 159.875 87.334c28.5 34.998 58.307 24.68 59.973 24.68s-15.64 19.652-18.973 19.986-30.333 10.666-32.333 5.666-61.917-142.584-176-121.554c3-5.334 7.458-16.112 7.458-16.112z"/><path fill="none" stroke="#000" stroke-miterlimit="10" stroke-width="6" d="M1448 1786.334c77.667 35.334 165.667 23.334 194 20 86.667-14.666 129.25-42 129.25-42s10.426 13.871 13.563 18.406c-17.563.01-40.313 6.51-66.063 44.51-22.51 33.218-37.018 55.621-45.75 68.084-8.128 11.601-26.666 33.334-30 35.668s-33.333 8.332-34.333 4.666c-1-3.668-22.167-55.252-72.167-95.918s-103.167-24-103.167-24 11.001-23.082 14.667-29.416zm120.667 48.668s57.683 28.105 62 30c4.967 2.18 8.06-.028 15.666-7 6.054-5.549 42.637-37.617 43.334-38.334 2.098-2.158 10.083-11.168-6-6.334-19.847 5.965-91.334 14.334-115 13-13 2 0 8.668 0 8.668z"/></svg>