<svg xmlns="http://www.w3.org/2000/svg" id="panties" viewBox="0 0 3000 3000"><path id="cl1" fill="#F2EDF0" d="M1461.75 1823.5l1.25 4.75 39.25 5.75 2.154-5.274c87.5 12.5 217.346-41.226 217.346-41.226l5.25 4.75 28.25-16.25.25-3.75s11.034-16.426 11.948-15.178c1.411 1.927 15.663 22.632 15.663 22.632l-17.611 7.546-4.25-1.5-22.5 15s4.752 9.895 3.752 9.895-32.002 34.855-34.752 37.855-42.25 51.75-44 57.75c-10.25 16.5-15.75 23-22.25 27.5-.75 1-17.25 8-33.75 3.75-36-57.5-106.5-86.5-106.5-86.5v-4.75l-40.5-7.25-2.5 3.334c-4.25-1.916-38.292 1.291-34.625-.709s9.303-25.962 9.303-25.962c2.916 2.25 28.822 7.837 28.822 7.837zm100.25 26s66.25 23.25 69.5 22.25 51.75-48.75 54.5-50.75 4.254-4.759 0-4.5c-62.75 23-126.75 28.5-126.75 28.5-4 3.25 2.75 4.5 2.75 4.5z"/><path id="sd1" fill="#A3A3A3" d="M1425.89 1834.744s102.5-10.25 167.5 60.25c30.5 37.5 67.109 17.381 71.359 12.131s-18.729 21.89-23.609 25.119c-7.238 4.79-30 5.5-32 4s-17.25-25.25-19.5-27-39.5-34.75-44.25-37.75-35-19.25-43.75-20.5l1-6-42-6.75-.5 3.75s-6.5-3.5-37.25.75c-2 1.25 3-8 3-8z"/><path fill="none" stroke="#000" stroke-miterlimit="10" stroke-width="6" d="M1462.75 1823.5l1.25 4.75 39.25 5.75 2.154-5.274c87.5 12.5 217.346-41.226 217.346-41.226l5.25 4.75 28.25-16.25-.625-6.375 11.823-12.553 16.13 23.454-15.453 7.724-5.875-2.5-24.536 15.876s5.786 8.999 4.786 10.124c-.664.747-25.682 26.384-33.75 36.75-7.273 9.345-35.628 45.776-42.976 56.304-11.117 15.929-16.774 24.446-23.274 28.946-.75 1-17.25 8-33.75 3.75-33.05-61.5-106.5-86.5-106.5-86.5v-4.75l-40.5-7.25-2.5 3.334c-5.235-.741-35.151-.149-35.151-.149l9.76-26.549c2.916 2.249 28.891 7.864 28.891 7.864zm100.25 26s66.25 23.25 69.5 22.25 51.94-48.511 54.5-50.75c1.545-1.352 4.5-5.875 0-4.5-62.75 23-126.75 28.5-126.75 28.5-4 3.25 2.75 4.5 2.75 4.5z"/></svg>