<svg xmlns="http://www.w3.org/2000/svg" id="panties" viewBox="0 0 3000 3000"><path id="cl1" fill="#2C2C2C" d="M1576 1852c52 1.5 104.197-10.648 143.364-29.98 31.5-19.168 58.07-51.728 58.07-51.728s4.897 9.698 8.565 16.208c-8 1-33.417 25.75-37.75 32.75S1698.5 1876 1694.5 1880s-34.023 33.397-39.5 40.5c-7.79 10.104-35.666 23.168-48 12.834-10.666-18.666-44.5-46.252-73.5-63.584-38.667-22.668-104.833-38-104.833-38l5.809-17.541c13.167 9 92.485 36.376 141.524 37.791z"/><path id="sd1" fill="#181818" d="M1518.5 1849.5c21.993 11.697 56.849 39.343 81.375 57.5 22.029 16.309 62.875 3.375 63.625 1.875s-17.45 22.64-24.75 24.5c-18.935 4.825-24.15 3.625-30.9-2.875S1583 1902 1577.5 1898s-55.5-36.75-77.5-43.5c-10.25-2.25-63-21.75-69-22.5s4.22-15.02 4.22-15.02 63.547 22.024 83.28 32.52z"/><path fill="none" stroke="#000" stroke-miterlimit="10" stroke-width="6" d="M1576 1852c57.25 1.279 98.175-7.464 136.092-26.046 33.111-16.227 65.343-55.662 65.343-55.662s6.59 11.158 9.599 16.572c-8 1-27.512 20.652-37.366 31.804-5.451 6.169-52.667 58.582-56.667 62.582s-32.918 34.606-42.25 43.017c-11.05 9.959-31.416 17.401-43.75 7.067-10.666-18.666-43.95-44.99-73.333-61.666-36.417-20.668-105-37.668-105-37.668l6.3-18.355c13.166 8.999 92.479 37.27 141.032 38.355z"/></svg>