<svg xmlns="http://www.w3.org/2000/svg" id="图层_2" viewBox="0 0 3000 3000"><path id="cl1" fill="#272727" d="M1460.579 1827.51c15.181 3.069 31.843 4.884 42 8.25 63.539 21.056 82.112 24.844 116.852 27.859 45.5-6.131 90.434-42.419 116.112-60.304.998-.694 2.754-2.397 3.786-3.057 2.968-1.89 18.233-14.789 23.25-20.75 3.134-3.724 11.115-15.979 11.115-15.979l9.883 14.9-12.498 12.078s-16.544 12.85-21.5 17.75c-15.941 15.762-39.5 46.75-58.75 67.75-11.5 7.5-31.918 35.916-45.418 49.416-3.75 2.75-21.666 15.666-36.582 5.834-39-60.5-109.584-84-109.584-84-1.5-3-29.034-10.643-39.641-12.047-8.404-1.113-35.877-.869-35.877-.869 7.332-10.334 6.684-19.916 6.684-19.916 24.168 9.585 29.489 12.226 30.168 13.085z"/><path id="sd1" fill="#231E20" d="M1428.27 1828.281s15.37-.156 37.96 4.058c39.348 7.341 101.407 26.684 148.1 74.171 17.082 12.916 43.25 2.498 49.25-.752-5.5 8.75-18.584 21.5-22.834 24-11.25 6.25-24.088 4.307-30.338 2.807-9.334-9.068-9.827-16.053-16.827-21.803-6-8.25-38.153-41.699-93.5-63.67-8.47-3.362-16.488-7.896-34.744-11.017-18.256-3.118-38.279-1.458-39.404-1.208-2.253.5 2.337-6.586 2.337-6.586z"/><path fill="none" stroke="#000" stroke-linecap="round" stroke-linejoin="round" stroke-miterlimit="10" stroke-width="6" d="M1502.579 1835.76c29.146 9.082 62.235 24.56 118.854 27.996 48.677-9.204 97.5-46.891 117.896-63.496 26.632-21.686 32.045-40.32 35.625-36.146.75.875 8.623 14.318 8.623 14.318l-35.623 30.953s-44.125 51.875-62.375 72.125c-9.19 10.197-26.125 28.875-41.856 45.789-6.117 6.295-27.519 11.586-34.894 3.961-39-60.5-108.75-83.875-108.75-83.875-33.732-17.77-74.94-12.949-74.94-12.949l6.447-16.851c20.749 6.499 53.501 12.722 70.993 18.175zm-67.052-19.295c.918.331 121.36 14.424 187.703 8.624 53.294-4.659 149.332-61.015 150.465-61.559m-95.035 78c-12.506.384-.054-.787-53.534.546-66.575 1.659-121.649-5.93-122.547-6.316m236.75-35.5c0 2.814-70.681 34.17-108.063 43.495-35.184 8.775-59.521 12.796-59.968 12.64"/></svg>