<svg xmlns="http://www.w3.org/2000/svg" id="图层_3" viewBox="0 0 3000 3000"><path id="cl1" fill="#CFC4FF" d="M1775.341 1765.89c-55.54 22.576-334.35 34.849-336.684 31.521l-11.179 35.051s44.719-4.906 91.502 11.834c25.595 9.158 50.333 20.832 72.332 49.746 0 0 14.423 33.904 21.991 39.604 17.677 13.313 37.343-4.021 64.677-50.688 13.648-19.402 53.666-58.498 60.666-62.498s30.166-20.666 37.833-19.666c11.333-3.334 17.815-3.844 17.815-3.844s-11.62-27.06-18.953-31.06zm-65.225 41.63c-4.063 13.346-18.874 43.642-23.616 40.479-.137.199-32.622-18.51-43.334-34.517-2.44-3.645 8.008-16.421 14.817-18.438 8.068-2.389 12.136 1.297 13.94 2.379 12.823 7.689 10.802-5.272 17.552-6.501 6.474-1.179 24.702 3.252 20.641 16.598z"/><path id="sd1" fill="#CC98FF" d="M1487.017 1812.377s.047 16.584.047 17.916c0 1.334 83.25 11.5 128.416 70.832 20.021 26.301 34.334 11.166 45.084 7.916 1.667 3.334-8.75 12.25-15.25 19.25-3.551 3.822-16.502 16.502-22.168 9.834-15.832-4.334-26.479-39.373-27.479-40.373-16.354-21.959-54.187-47.625-63.854-49.959s-57.794-15.5-102.46-15.5c2.46-14.5 11.96-33 11.96-33s9.379 15.799 17.835 12.502c8.456-3.299 17.932-4.332 19.599-3.666 1.666.668 5.937 1.248 8.27 4.248z"/><path fill="none" stroke="#000" stroke-linecap="round" stroke-linejoin="round" stroke-miterlimit="10" stroke-width="6" d="M1774.815 1764.461c6.16 6.813 19.736 32.975 19.736 32.975s-6.736-.645-20.069 4.359c-7.239 2.715-24.072 10.047-38.417 20.998-6.408 4.891-50.5 44.832-66.5 73.498-27.334 46.666-39.421 42.719-50.925 40.994-9.37-1.402-19.852-33.416-27.325-43.244-54.793-72.047-164.55-60.662-164.55-60.662l15.009-34.768c2.333 3.33 248.594-2.736 333.041-34.15zM1687 1792c-6.75 1.229-3.25 18.5-15.076 5.425-1.806-1.082-8.675-3.168-13.94-2.379-11.483 1.954-16.674 17.56-14.233 21.204 10.713 16.009 42.615 31.95 42.75 31.75.135-.201 19.188-25.654 23.25-39 4.06-13.348-11.292-23.247-22.751-17z"/></svg>