<svg xmlns="http://www.w3.org/2000/svg" id="图层_3" viewBox="0 0 3000 3000"><path id="cl1" fill="#FFF" d="M1575.358 1850.344c52 1.5 104.197-10.648 143.365-29.98 31.5-19.168 58.068-51.729 58.068-51.729s-.311-.793 3.357 5.717c-8 1-41.196 33.207-45.527 40.207-4.334 7-74.787 97.182-80.265 104.285-7.789 10.104-35.666 23.168-48 12.834-10.666-18.666-39.117-52.783-68.117-70.115-38.666-22.668-106.68-42.751-106.68-42.751l2.272-6.259c13.169 8.999 92.488 36.374 141.527 37.791z"/><path id="cl2" fill="#9CF5FF" d="M1776.791 1768.635s-26.568 32.561-58.068 51.729c-39.168 19.332-91.365 31.48-143.365 29.98-49.039-1.416-128.357-28.791-141.522-37.791l-2.273 6.259s68.015 20.083 106.681 42.751c29 17.332 57.45 51.449 68.116 70.115 12.334 10.334 40.211-2.73 48-12.834 5.478-7.104 75.931-97.285 80.265-104.285 4.332-7 37.527-39.207 45.527-40.207-3.67-6.51-3.361-5.717-3.361-5.717zm-207.256 100.048c-2.494 3.845-7.924 4.754-12.126 2.029-4.199-2.726-5.586-8.053-3.091-11.896 2.493-3.847 7.921-4.754 12.122-2.029 4.205 2.725 5.59 8.052 3.095 11.896zm30.07 18.757c-4.201-2.725-5.587-8.053-3.092-11.896 2.493-3.848 7.921-4.754 12.122-2.029 4.203 2.726 5.588 8.052 3.094 11.896s-7.923 4.755-12.124 2.029zm18.676 38.016c-1.742 2.685-5.531 3.318-8.466 1.417-2.933-1.903-3.899-5.623-2.158-8.308 1.74-2.686 5.53-3.318 8.464-1.417 2.935 1.904 3.902 5.622 2.16 8.308zm18.173-63.57c2.056-3.171 6.527-3.919 9.99-1.673 3.464 2.246 4.604 6.635 2.55 9.804-2.056 3.169-6.528 3.917-9.991 1.672-3.462-2.245-4.603-6.636-2.549-9.803zm15.376 45.614c-1.74 2.685-5.531 3.318-8.466 1.417-2.933-1.902-3.899-5.622-2.157-8.308 1.74-2.685 5.529-3.318 8.465-1.417 2.934 1.903 3.901 5.622 2.158 8.308zm27.323-23.99c-1.741 2.685-5.189 3.585-8.125 1.683-2.933-1.901-3.898-5.622-2.158-8.307 1.741-2.687 5.531-3.319 8.465-1.417 2.933 1.904 3.56 5.357 1.818 8.041zm15.162-23.169c-3.058-1.696-4.043-5.886-2.301-8.569 1.74-2.686 6.563-2.431 8.884-.127-2.064 2.55-5.146 7-6.583 8.696zm-14.186-20.066c1.496 3.16-.218 6.973-3.195 8.14-2.979 1.169-6.752-1.849-7.296-5.072 3.163-.873 8.268-2.364 10.491-3.068z"/><path id="sd1" fill="#53CBDC" d="M1536.946 1854.82c21.994 11.697 39.186 30.098 63.71 48.254 22.029 16.309 62.875 3.375 63.625 1.875s-17.448 22.641-24.75 24.5c-18.936 4.823-24.667 5.754-31.417-.746s-24.904-32.006-30.404-36.006-47.924-43.382-69.924-50.132c-10.25-2.25-66.064-24.507-72.064-25.257s.507-5.136.507-5.136 80.984 32.152 100.717 42.648z"/><path fill="none" stroke="#000" stroke-miterlimit="10" stroke-width="6" d="M1575.358 1850.344c57.25 1.279 98.176-7.465 136.092-26.047 33.111-16.228 65.345-55.662 65.345-55.662s.347.303 3.355 5.717c-8 1-37.868 29.055-47.724 40.207-5.451 6.168-72.984 99.641-82.316 108.053-11.051 9.959-31.416 17.4-43.75 7.066-10.666-18.666-47.116-56.631-76.499-73.307-36.416-20.668-98.3-37.561-98.3-37.561l2.766-6.823c13.164 9.001 92.478 37.271 141.031 38.357z"/><g fill="none" stroke="#000" stroke-miterlimit="10" stroke-width="6"><path d="M1762.195 1784.149c9.875-21.5 5.875-28.375-3.875-23.5s.75 24.479.75 24.479"/><path d="M1761.037 1783.524c-.844-.75-11.219-25.25-18.969-16s-10.125 17.125 16.125 19.25m-23.873 37.25c29.75-15.125 24.375-36.364 24.375-36.364m14.375 32.614c1-21.5-12.031-32.614-12.031-32.614"/></g><g fill="none" stroke="#000" stroke-miterlimit="10" stroke-width="6"><path d="M1460.323 1822.564s5.92-21.436-4.664-24.042c-10.585-2.605-12.971 4.981 1.398 23.776"/><path d="M1461.537 1823.977c25.137-7.858 21.083-15.017 11.485-22.331-9.599-7.313-14.318 18.87-14.978 19.788m3.201 3.517s-.562 21.902 31.79 30.099m-34.076-29.582s-10.263 13.714-4.548 34.465"/></g></svg>