<svg xmlns="http://www.w3.org/2000/svg" id="panties" viewBox="0 0 3000 3000"><path id="cl1" fill="#8E8DF2" d="M1660.167 1831.834c87.5-32 111.333-70.668 111.333-70.668s26.5 40 23 40-16 8.834-20.5 8.834-37.166 27-45.166 32.5-33 29.166-52 52.666S1628.5 1943 1610.5 1937c-6.5-8.5-31.833-44.5-70.333-69.5s-115.54-38.646-115.54-38.646l21.54-46.02c19 14.5 122 74 214 49z"/><path id="sd1" fill="#7675EC" d="M1498.75 1809.75L1490 1837s91.75 30.75 117.5 76.5c14.334 23.643 66.667-16.334 66.667-16.334s-31 39.865-52.333 39.977c-14 .072-37.025-32.565-39.001-34.643-20-21-66.665-57.562-156.895-74.138-4.5 1.5 20.062-46.862 20.062-46.862s43.75 27.25 52.75 28.25z" opacity=".63"/><path id="cl1" fill="#F2AFEF" d="M1467 1798c-.222 1.419-9.25 38-9.25 38s-20.25-3-17.5-4 19.25-40.75 19.25-40.75 7.722 5.331 7.5 6.75zm17.25 6.75l-14.656 34.021S1477.5 1842 1480 1842.5s12.613-32.238 13.343-33.21-6.062-1.848-9.093-4.54zm23.75 12.5s-11.234 31.991-11.75 31.416S1508 1854 1508 1854s9.25-33.5 10.25-33.5-7.75-1.25-10.25-3.25zm22.22 6.378s-7.72 31.872-8.97 33.372 8.97 6.502 8.97 6.502 11.03-34.252 12.03-36.002-12.03-3.872-12.03-3.872zm19.557 5.729s-8.865 34.869-10.946 38.006l7.919 6.137s11.75-39 14.75-41.25l-11.723-2.893zm22.223 4.893s-10.469 38.961-15.234 45.48l9.484 9.02 14.853-53.125-9.103-1.375zm18.5 3.5s-10.75 51.25-16.25 58.75l10.75 9.75s13.75-66.25 16-68.5c0 0-8.957 1.583-10.5 0zm20.553-.369s-12.74 69.586-17.771 77.478l8.886 12.142s18.083-83 16.833-89.25l-7.948-.37zm16.029 0s-.959 94.369-8.021 98.619c0 0 7.608 1.831 13.282-.442 0 0 1.906-94.796 1.156-98.177h-6.417zm15.329-1.756s1.411 86.475 0 92.925l9.11-7.31-4.555-86.399-4.555.784zm13.312-3.24l9.027 76.114 12.431-14.588-14.181-64.554-7.277 3.028zm16.458-5.68s14.581 50.926 15.7 55.485l12.563-13.262s-16.572-43.423-20.758-45.301l-7.505 3.078zm16.423-6.975s15.896 29.813 18.945 41.77l8.143-7.5-20.901-37.138-6.187 2.868zm12.812-6.105s16.334 32.375 20.834 33.875l7.5-5.5s-14.5-30-19-32.75l-9.334 4.375zm19.61-10.749l17.729 31.374 9.539-6.936s-21.676-17.98-21.86-27.772l-5.408 3.334zm17.66-11.626l17.564 30.25 7.447-4.25-18.616-30.828-6.395 4.828zm16.454-13.371l15.635 33.476 11.226-6.604-18.303-34.059-8.558 7.187z"/><path fill="none" stroke="#000" stroke-miterlimit="10" stroke-width="6" d="M1660.5 1831.166c87.5-32 110.211-70.867 110.211-70.867l25.456 39.867s-12.824 4.195-21.167 9.834c-11.741 7.938-27.749 16.427-46.833 32.834s-34.043 32.159-54.209 54.666c-26.091 29.12-33.124 44-64.374 38.35-6.5-8.5-28.272-41.016-66.772-66.016s-116.873-41.472-116.873-41.472l19.563-44.196c23.498 14.5 122.998 72 214.998 47z"/></svg>