<svg xmlns="http://www.w3.org/2000/svg" id="图层_2" viewBox="0 0 3000 3000"><path fill="#FFF" d="M1785.645 1785.002c-3.668-6.51-8.566-16.209-8.566-16.209s-10.026 12.279-25.054 26.195a18.15 18.15 0 0 0-6.04-1.047c-10.068 0-18.23 8.164-18.23 18.232 0 .846.076 1.67.188 2.483a160.96 160.96 0 0 1-8.932 5.863c-39.168 19.332-91.365 31.479-143.365 29.979-25.575-.737-61.567-3.596-89.936-12.168-.309-9.797-8.327-17.651-18.201-17.651-5.704 0-10.793 2.623-14.137 6.727-10.388-3.959-15.888-12.397-19.251-14.696l-5.809 17.541s9.468 2.192 23.328 6.146c1.188 8.92 8.808 15.806 18.052 15.806 5.307 0 10.067-2.281 13.399-5.898 17.264 6.01 35.583 13.465 50.053 21.947 29 17.332 62.834 44.918 73.5 63.584 12.334 10.334 40.211-2.73 48-12.834 5.478-7.104 35.5-36.5 39.5-40.5 3.041-3.041 30.015-32.521 44.682-49.56a18.171 18.171 0 0 0 7.158 1.464c10.069 0 18.231-8.164 18.231-18.232 0-3.467-.985-6.695-2.665-9.455 8.87-8.497 19.436-17.135 24.095-17.717zm-317.315 65.519c-7.966 0-15.295-7.832-15.295-15.797s3.352-13.771 11.316-13.771 19.129 4.945 19.939 12.869c1.007 9.822-7.994 16.699-15.96 16.699zm277.187-21.32c-7.966 0-17.765-9.063-17.765-17.026s9.573-19.49 17.539-19.49c7.965 0 18.72 9.701 18.72 17.668 0 7.963-10.529 18.848-18.494 18.848z"/><path id="sd1" fill="#C2C2C2" d="M1519.178 1853.396c21.994 11.697 56.213 34.34 80.738 52.496 22.028 16.309 62.875 3.375 63.625 1.875s-17.449 22.641-24.75 24.5c-18.937 4.824-24.15 3.625-30.9-2.875s-24.85-28.5-30.35-32.5-55.5-36.75-77.5-43.5c-10.25-2.25-13.396-2.439-18.008-6.35-3.489-2.959 2.511-8.625 2.511-8.625s14.902 4.483 34.634 14.979z"/><path fill="none" stroke="#000" stroke-linecap="round" stroke-linejoin="round" stroke-miterlimit="10" stroke-width="6" d="M1786.161 1785.767c-3.01-5.414-9.6-16.572-9.6-16.572s-9.612 11.76-23.729 25.078a18.67 18.67 0 0 0-7.541-1.59c-10.354 0-18.75 8.396-18.75 18.752 0 1.393.162 2.746.45 4.053-5.147 3.549-10.448 6.76-15.772 9.369-37.916 18.582-78.842 27.326-136.092 26.047-25.302-.566-61.227-4.082-89.52-12.838 0-.061.008-.119.008-.18 0-10.355-9.688-17.834-20.045-17.834-6.026 0-10.082 1.938-13.512 6.356-9.775-3.846-14.73-11.651-17.964-13.86l-6.301 18.354s9.348 2.316 22.966 6.277c1.729 8.569 9.3 15.022 18.378 15.022 5.001 0 9.533-1.971 12.896-5.162 17.852 6.119 36.702 13.552 50.762 21.529 29.383 16.676 62.668 43 73.334 61.666 12.334 10.334 32.698 2.893 43.75-7.066 9.332-8.411 38.25-39.018 42.25-43.018 3.025-3.027 30.782-33.758 46.479-51.217a18.65 18.65 0 0 0 6.683 1.248c10.355 0 18.752-8.396 18.752-18.75 0-2.857-.658-5.555-1.802-7.979 8.993-8.786 18.808-17.046 23.92-17.685z"/></svg>