<svg xmlns="http://www.w3.org/2000/svg" id="lalala" viewBox="0 0 3000 3000"><path id="cl1" fill="#E5E1BE" d="M1425.938 1828.362c48.104 7.861 93.896 29.807 125.896 45.807s55.603 58.801 57.75 61.684 22.863-.322 30.608-3.772c7.744-3.451 30.587-30.998 71.029-73.853 40.443-42.854 84.943-56.726 84.943-56.726l-25.455-41.2s-55.211 62.2-140.84 76.296-184.369-52.431-184.369-52.431"/><path id="sd1" fill="#FFF" d="M1491.496 1808.464s-11.662 15.369-3.662 25.703c0 0 68.667 31.667 88.667 48.667s21.334 20.667 27.334 25 10.666 6.333 25.333 6 34-7.333 34-7.333-13.667 18.666-20.667 24.666-31.162 7.034-32.916 4.686-34.934-39.539-42.417-46.686-42.501-35.57-91-48l-48.639-12.46 17.974-44.541s35.332 19.335 38.665 20.335 7.328 3.963 7.328 3.963z"/><path id="sd2" fill="#535391" d="M1580.084 1835.091s21.679 10.195 28.416 14.457c7.024 4.438 23.332 20.29 23.332 20.29s18.2-19.018 24-24.666c5.49-5.354 19.687-17.635 19.687-17.635s-12.465 6.115-45.634 9.063c-13.808 1.222-29.081.491-49.801-1.509z"/><path fill="none" stroke="#000" stroke-miterlimit="10" stroke-width="6" d="M1660.5 1831.166c87.5-32 110.211-70.864 110.211-70.864l25.455 39.864s-12.823 4.195-21.166 9.834c-11.741 7.938-27.75 16.43-46.834 32.834-19.084 16.407-34.043 32.159-54.209 54.666-26.091 29.12-33.123 44-64.373 38.353-6.5-8.5-28.272-41.018-66.772-66.018s-116.873-41.473-116.873-41.473l19.563-44.196c23.498 14.5 122.998 72 214.998 47z"/></svg>