<svg xmlns="http://www.w3.org/2000/svg" id="panties" viewBox="0 0 3000 3000"><path id="cl1" fill="#454647" d="M1437.5 1810.834s105 34.332 193.666 27.666c88.668-6.668 142.604-66.232 144.604-69.566 9.396 14.566 29.9 38.541 39.729 56.234 8.88 14.036 39.334 61 39.334 61s-139.157 50.151-210.334 76.9c-2.625.123-11.334-14.666-11.334-14.666l-9.166 4.538 1.55 17.06s-130.666 11.937-211.5 26.5c-7.664-24.35-7.549-135.666 23.451-185.666z"/><path fill="#FFF" d="M1435.832 1810.834l75.952 18.571s29.037 3.888 26.037 7.388S1512.5 1867.5 1500 1892c-24.5 42-31.829 37.424-37 37-5.173-.42-8.459-29.479-14.5-27-36 17-38.723 6.452-38.723 6.452-2.998-45.5 26.055-97.618 26.055-97.618zM1463.5 1942s-23 7-24 9.5-17.5 28-4.5 32 20.5-8.5 28.5-4.5 27.5 2.805 47.5-15.85c23.5-16.15 32.916-23.65 29.207-37.15-3.707-8-45.207 17.5-48.207 20-15.5 7.5-18.5-3-28.5-4zm97.434-104.645S1519 1897 1534.5 1902c11.312.571 23.5-9 25.5-3.5 5 11.5-1 25.691 5.5 30.85 6.5 5.154 34.5-16.85 41.5-25.85 13.086-8.793 25-12.613 32-14.559 7-1.941 40.5-28.441 38.5-48.441 2.5-6-44.5 8-48 7 0 0-9.5 1.5-9.5-8.5-21.506.692-51.066 3.355-59.066-1.645zM1710.5 1814.5s-6.5 29 44.5 11c13.5-2.5 18.5-2.896 23.5 13.056 5 15.944 36.25-.056 38.75-7.056-3.25-15-39.188-62.066-40.688-62.566s-37.062 33.739-66.062 45.566zm114.832 28.839s-37.832 34.161-24.808 62.218l54.849-20.442-30.041-41.776zM1675.5 1876.5s-10 9-10 25-27.5 26-26.5 38 9.166 18.334 21.166 16.334 92.297-34.563 101.334-37c8.574.5 44.5-32.334 5-58.334s-91 16-91 16z" opacity=".3"/><path id="sd1" fill="#2A2B2B" d="M1546.959 1835.804L1462.5 1850s-30.5 86-20 100.5 159 9.5 159 9.5l-24.5-42.5 40 32 18.091-7.5s22.909-46 25.409-47.5-15.5 45.5-15.5 45.5 159.253-60.465 209.253-53.465c2 2-128.753 42.965-212.753 75.965-2.886-1.584-6.409-15-6.409-15l-9.926 4.334.384 18.166s-159.383 14.303-211.5 26.5c-11.367-27.173-13.884-122.728 21.785-185.666 73.166 20.078 111.125 24.97 111.125 24.97z" opacity=".5"/><path fill="none" stroke="#000" stroke-miterlimit="10" stroke-width="6" d="M1653.25 1836.5c16.75-2 56.562-12.566 123.312-67.566 6.5 8.5 50.978 70.206 79.458 117.08-15 4-213.471 77.986-214.971 75.986s-7-13.5-7-13.5l-8.5 4v17.5c-2.465 1-211.5 26.5-211.5 26.5C1397 1867.5 1437.5 1810 1437.5 1810c18.5 11.334 136.5 39.334 215.75 26.5z"/></svg>