<svg xmlns="http://www.w3.org/2000/svg" id="panties" viewBox="0 0 3000 3000"><path id="cl1" fill="#F06D2D" d="M1426.093 1839.642S1529 1875.499 1611 1857.499s176.395-69.944 176.395-69.944S1841.5 1879.834 1861 1896c-41 9.5-221.5 82.5-230 89 2.522-1.454-6-15.5-6-15.5l-7 4-2 11.5s-139 5.5-201.5 23.5c-12.667-87.666 3.593-154.358 11.593-168.858z"/><path id="sd1" fill="#92421B" d="M1454.667 1849.334S1428.5 1924.5 1435.5 1946.5 1588 1966 1595 1966s-29.5-45.5-29.5-45.5l47.5 35 18.5-7 28-55-15.5 52s181.513-54.204 215.013-50.704c0 0-215.846 81.038-225.285 88.644 0 0-5.423-15.63-9.423-14.63S1616 1974 1616 1974l-1 13s-133 2-200.5 21.5c-19-54 4.333-156.333 13.499-168.76 9.365-1.231 26.668 9.594 26.668 9.594z"/><path fill="none" stroke="#000" stroke-miterlimit="10" stroke-width="6" d="M1425.199 1839.032S1529 1875.5 1611 1857.5s158.5-54.5 174-71c20.313 17.702 55.5 99 76 109.5-41 9.5-217.738 83.605-227.272 87.439-1.962-7.366-5.56-15.606-5.56-15.606L1618 1973.5l-2 11.5s-139 5.5-201.5 23.5c-15.667-93.693 5.831-150.776 10.699-169.468z"/></svg>