<svg xmlns="http://www.w3.org/2000/svg" id="face" viewBox="0 0 3000 3000"><path id="cl1" fill="#F5C0A6" d="M1110.3 809.7s2.7-98 60.7-192c0 0 28.7-41.3 68-71.3 0 0 49.3-38.7 150.7-69.3 0 0 56.699-14.7 178-9.3 0 0 23.3.7 92.699 26 69.4 25.3 82 46.7 118.7 72 0 0 44.7 32.7 78.7 130 0 0 14.7 39.3 20 118.7 0 0 4.7 99.3-56.7 229.999 0 0-4.7-6-3.3 32.7 0 0 6 35.3 9.3 56.7s-3.3 64-26 93.3c0 0-34.7 42-55.3 54.7 0 0-14.7 13.3-38 30.7 0 0-35.3 40.7-74 58 0 0-29.3 2.7-58 0 0 0-78-18-133.3-43.3 0 0-138-64.7-202.7-144 0 0-42-47.301-92.7-133.301C1147 1049.7 1110.3 955.7 1110.3 809.7z"/><path id="sd1" fill="#EC9674" d="M1406.3 503s-94.647 1.551-100.048 5.352c-4.5 3.199-90.651 40.648-136.651 117.249-46 76.6-45.554 102.246-58 170-.286 1.554 0 2.7 0 2.7s-2.841 88.875 5.159 130.875c0 0 15.04 76.223 30.34 120.824 0 0 37.4 75.833 89.801 129 0 0 54.7 57.301 84 76 0 0 76.5 49.5 95.2 57.801 0 0 35 16.5 46.8 20.8 0 0 36.942 21.811 108.643 36.044 0 0 42.957 13.189 68.897-1.296 0 0-37.94-.182-72.556-11.674-13.812-4.585-57.718-21.175-89.051-40.841-24.175-15.174-62.333-44-88.333-72.333-21.195-23.097-63.399-79-73.899-101.3 0 0-18.101-38.033-23.801-62.5-3.889-16.694-7.144-23.256-6-68.3.7-27.567 6.034-52.567 14.101-63.8 0 0-28.067-26.434-49.734-108.434-4.155-15.724-15-80-11.708-106.334 3.506-28.055 3.762-67.349 28.143-109.532 15.076-26.083 51.3-72.801 79.8-90.301 26.097-17.833 38.997-24.5 58.897-30z"/><path id="hl1" fill="#FBE4D6" d="M1304.25 508.75s77.427-29.962 103.439-36.043c37.59-8.789 109.11-13.006 160.011-4.906 0 0 63.591 8.526 136.891 45.526 0 0 39.443 23.307 74.509 52.474 15.191 12.637 28.188 27.145 48.874 62.824 10.14 17.489 19.575 38.105 32.298 74.869 5.628 16.262 12.939 36.949 15.787 67.006 1.024 10.808-1.858 44.4-1.858 44.4s6.328 38.152-4.372 95.452c0 0-21.828 75.647-48.729 134.147 0 0-7.85 6.75-3.499 52.101 0 0 12.185 28.235 10.085 56.836 0 0 2.229 40.728-39.771 89.027 0 0-30.015 25.736-44.015 36.437 0 0-28 24.3-37 29.7 0 0-39.4 57.899-72.137 59.577 0 0 25.552-16.667 35.137-32.876 6.641-11.23 12.063-27.721 23.3-46.7 4.356-7.359 13.455-18.308 21-27 9.667-11.137 29.3-22.7 40.7-42.7 0 0 14.082-18.199 24.7-59.3 2.005-7.76 4.798-19.312 5.399-31.601.603-12.314-1.1-29.699-4.7-47.699 0 0-13.3-37.301-30.3-48.7 0 0 4.3-28 5.3-40 0 0 4.949-19.038 9.301-37.3 3.762-15.787 4.112-34.133 3.899-64.801-.124-17.934-1.2-50.899-4.5-72.6 0 0-12.5-88.9-32.3-127.3-13.478-26.138-12.2-33.101-73.301-92-24.502-23.62-67.143-49.6-108.398-66.6-19.17-7.899-43.5-18.5-90.3-23.1 0 0-66-7-80.7-5 0 .1-7.05-1.751-74.75 5.85z"/><path fill="none" stroke="#000" stroke-miterlimit="10" stroke-width="6" d="M1110.3 809.7s1.7-98 59.7-192c0 0 29.046-42.176 69-71.3 28.763-20.967 78.5-50.567 150.7-69.3 0 0 69.8-21.934 178-9.3 25.262 2.95 39.435 5.98 92.699 25 51.435 18.366 93.434 49.366 118.7 73 23.351 21.842 44.067 35.699 78.7 130 0 0 19.851 39.124 20 118.7.083 44.333 4.95 104.768-56.7 229.999-3.629 7.372-4.241 15.061-3.3 32.7.766 14.344 6 35.3 9.3 56.7s-3.843 63.359-27 92.3c-12.149 15.184-34.502 39.073-53.855 53.602-9.768 7.333-18.145 14-39.444 33.798-17.217 16.003-39.633 44.566-74 57-13.635 4.933-27.633 6.566-57 0-34.195-7.646-78-17-133.3-42.3 0 0-131.333-56.467-203.7-145 0 0-72.633-84.801-91.7-133.301-13.976-35.549-36.8-94.298-36.8-240.298z"/></svg>