<svg xmlns="http://www.w3.org/2000/svg" id="图层_1" viewBox="0 0 3000 3000"><path fill="none" stroke="#000" stroke-linecap="round" stroke-linejoin="round" stroke-width="6" d="M1723.15 916.95c2.886 10.156-1.78 21.823-14 35 9.778 3.825 16.979 11.125 21.601 21.9 16.253 37.724 23.136 68.857 20.649 93.399-4.911 11.137-19.995 17.471-45.25 19M1672.9 950.7c14.569-2.935 26.653-2.518 36.25 1.25m-77 111.05c-14.359-8.226-15.659-20.626-3.899-37.199 9.331-13.118 20.547-25.901 33.649-38.351m-19.25 72.8c15.17-13.274 29.67-6.691 43.5 19.75m32.5 13.25v54c-5.389 1.25-7.972-1.167-7.75-7.25"/></svg>