<svg xmlns="http://www.w3.org/2000/svg" id="图层_1" viewBox="0 0 3000 3000"><path fill="none" stroke="#000" stroke-linecap="round" stroke-linejoin="round" stroke-width="6" d="M1727.65 898.95c-8.455 6.481-12.705 15.064-12.75 25.75 5.685 18.37 7.518 36.287 5.5 53.75m-53.5 130.3h-32c-9.437-2.425-12.286-9.008-8.55-19.75 4.823-18.271 12.674-36.037 23.55-53.3 8.263 3.048 16.763 10.132 25.5 21.25m34.25 43.8c-16.386-10.045-35.402-12.628-57.05-7.75 14.816 2.814 28.249 7.564 40.3 14.25l16.75-6.5zM1691.9 977.7c17.365-4.907 38.532 4.593 63.5 28.5 12.538 35.811 12.371 67.16-.5 94.05-3.854 6.25-20.854 12.084-51 17.5l-5 10.75"/></svg>