<svg xmlns="http://www.w3.org/2000/svg" id="图层_2" viewBox="0 0 3000 3000"><path d="M1697.088 980.364s.212.522.606 1.502c.388.979.95 2.417 1.671 4.245 1.396 3.652 3.388 8.87 5.778 15.132 2.366 6.252 5.099 13.539 8.205 21.283 1.563 3.87 3.223 7.854 5.021 11.86 1.825 4 3.739 8.042 6.011 11.933 1.115 1.946 2.31 3.86 3.649 5.661 1.349 1.778 2.818 3.515 4.453 4.771.407.307.807.571 1.189.791.185.082.375.204.54.267l.92.36c1.011.329 3.707 1.617 4.863 2.793 1.313 1.265 2.184 2.744 2.383 4.135.241 1.386.064 2.692-.32 3.867-.768 2.363-2.113 4.375-3.623 6.212a45.578 45.578 0 0 1-4.908 5.053c-3.459 3.101-7.118 5.752-10.615 8.102-3.519 2.339-6.929 4.335-10.021 6.043a136.006 136.006 0 0 1-8.234 4.223c-2.33 1.124-4.256 1.921-5.55 2.474l-2.021.814 1.693-1.085c1.11-.702 2.687-1.765 4.687-3.106 3.963-2.708 9.499-6.65 15.467-11.659 2.96-2.508 6.06-5.277 8.873-8.317 1.413-1.518 2.747-3.103 3.866-4.742 1.102-1.635 2.055-3.334 2.403-4.939.135-.41.094-.775.149-1.16-.029-.357-.034-.72-.125-1.033-.13-.657-.548-1.12-1-1.563-.302-.196-.572-.428-.82-.513-.028-.093-.918-.408-1.591-.652l-1.155-.43c-.526-.206-.946-.431-1.418-.654-.425-.227-.807-.461-1.208-.696-.369-.236-.708-.477-1.057-.718-2.612-1.94-4.368-3.954-5.943-5.996-1.549-2.041-2.868-4.104-4.078-6.176-2.363-4.155-4.313-8.339-5.987-12.486-1.696-4.142-3.119-8.243-4.367-12.221-2.495-7.957-4.262-15.432-5.517-21.858-1.237-6.429-1.978-11.807-2.381-15.578-.229-1.885-.313-3.372-.402-4.384a570.562 570.562 0 0 0-.086-1.555z"/></svg>