<svg xmlns="http://www.w3.org/2000/svg" id="nose" viewBox="0 0 3000 3000"><path d="M1736.731 1071.141c-1.123-3.442-3.937-6.829-7.212-8.98-3.419-2.302-7.487-2.471-10.841-2.293-2.456.132-4.651.715-6.638 1.39-.077-.146-.115-.228-.191-.373-.33-.716-.851-1.45-1.171-2.472-.396-.994-.793-2.079-1.309-3.228-.371-1.212-.729-2.534-1.199-3.887-.344-1.372-.701-2.85-1.074-4.367-.516-3.096-1.146-6.359-1.457-9.688-.391-3.341-.602-6.701-.792-9.896-.182-3.205-.344-6.199-.468-8.767-.21-5.195-.491-8.773-.491-8.773s-1.706 3.24-2.947 8.456c-.611 2.616-1.175 5.698-1.423 9.024-.31 3.355-.172 6.947.157 10.549.425 3.592 1.2 7.161 2.321 10.425 1.151 3.241 2.688 6.122 4.283 8.419a48.83 48.83 0 0 0 2.436 2.932c.679.879 1.605 1.445 2.198 1.973.022.015.022.015.022.036l-1.26.438c-5.22 2.042-8.926 4.7-11.496 6.455-2.578 1.847-3.864 3.072-3.864 3.072s1.62-.825 4.423-2.125a72.672 72.672 0 0 1 12.049-4.284c2.512-.516 5.272-1.146 8.09-1.021 2.731.118 5.587.556 7.67 2.201 2.081 1.655 3.812 3.788 4.776 6.853.821 2.688 1.127 5.729.888 8.916-.419 6.316-2.777 12.553-5.941 17.781a50.95 50.95 0 0 1-5.454 7.062 79.542 79.542 0 0 1-3.533 3.205c3.275-.849 6.554-1.864 9.78-3.104.14-.146.308-.269.445-.438 1.073-1.271 2.222-2.58 3.233-3.976 1.938-2.885 3.863-5.953 5.028-9.417 1.361-3.374 2.087-7.016 2.46-10.726.211-3.688-.19-7.584-1.498-11.372z"/></svg>