<svg xmlns="http://www.w3.org/2000/svg" id="nose" viewBox="0 0 3000 3000"><path d="M1697.853 1017.419s.223.502.681 1.413c.45.914 1.176 2.223 2.141 3.845 1.968 3.208 5.023 7.688 9.642 11.98a44.503 44.503 0 0 0 8.067 6.01c3.199 1.918 6.594 3.954 10.054 6.179 3.46 2.224 7.006 4.611 10.479 7.278 3.479 2.66 6.903 5.582 10.02 9.002 1.538 1.729 2.996 3.588 4.236 5.689 1.229 2.094 2.235 4.491 2.546 7.181.514 5.166-1.225 10.009-3.855 13.725-2.646 3.726-5.996 6.417-9.283 8.528-3.313 2.102-6.618 3.662-9.72 4.89-3.104 1.231-6.011 2.123-8.596 2.839-2.579.734-4.868 1.203-6.741 1.597-1.879.386-3.366.617-4.379.776l-1.556.229 5.599-2.146c3.525-1.411 8.573-3.423 14.215-6.441 2.816-1.5 5.767-3.285 8.6-5.438 2.821-2.149 5.521-4.732 7.446-7.786.933-1.535 1.7-3.162 2.126-4.877.433-1.696.562-3.545.374-5.19-.447-3.173-2.769-6.584-5.473-9.563-2.717-3.038-5.916-5.803-9.151-8.438-3.262-2.614-6.599-5.094-9.878-7.453-3.312-2.356-6.512-4.635-9.546-6.795-3.178-2.233-5.935-4.813-8.108-7.391-2.202-2.578-3.892-5.169-5.215-7.536-1.349-2.354-2.275-4.526-2.979-6.323-.706-1.796-1.114-3.257-1.389-4.248-.266-.995-.357-1.536-.357-1.536z"/></svg>