<svg xmlns="http://www.w3.org/2000/svg" id="nose" viewBox="0 0 3000 3000"><path d="M1722.568 1090.316c-6.021.003-5.774 3.411.266 7.061.426.258 2.744 5.144 3.438 5.688 2.439 1.914 3.511 3.581 7.232 3.021 4.176-.632 2.013-9.393-.147-10.586-3.467-1.93-6.516-5.177-10.789-5.184zm-46.067-2.858c-1.847 3.431-2.81 7.696-4.467 11.3-.863 1.874-1.799 3.688-2.77 5.563-.884 1.707-2.16 2.745-3.084 4.351-1.566 2.732-6.872 1.44-7.953-1.116-.899-2.088-1.836-3.215-1.401-5.582.419-2.261 1.787-4.664 3.261-6.289 3.958-4.218 9.105-6.285 13.703-9.467.708-.463 3.406-.054 2.711 1.24zm21.481-36.294c18.348.902 24.22 16.125 25.071 16.233-2.343 1.174-10.819-11.153-25.082-11.224-14.843.782-23.444 11.123-25.541 10.639 1.043-.64 6.829-13.959 25.552-15.648z"/></svg>