<svg xmlns="http://www.w3.org/2000/svg" id="nose" viewBox="0 0 3000 3000"><path d="M1697.845 1046.336s.736-.224 2.124-.574c1.392-.335 3.438-.867 6.092-1.275 2.65-.427 5.901-.863 9.686-.989 3.78-.131 8.112-.095 12.854.769 4.723.797 9.994 2.341 14.972 5.769 2.463 1.728 4.801 3.962 6.675 6.669.505.655.906 1.375 1.316 2.102l.598 1.101.49 1.149.483 1.16.12.293.15.469.157.5.315 1.004.159.504.152.676c.178.903.434 1.867.503 2.748.063.897.228 1.776.181 2.706-.024.924.003 1.851-.161 2.787l-.198 1.405c-.083.466-.221.924-.334 1.388-.445 1.864-1.241 3.619-2.141 5.278-.477.809-1.013 1.568-1.546 2.331-.577.696-1.134 1.451-1.753 2.093-2.445 2.648-5.209 4.736-8.032 6.513-2.831 1.771-5.74 3.245-8.67 4.535-5.902 2.479-11.849 4.31-17.635 5.965-2.887.848-5.754 1.571-8.547 2.279l-4.165 1.101a95.631 95.631 0 0 1-4.349 1.07c-2.93.633-5.873 1.171-8.873 1.319-1.494.092-3 .115-4.521.032-1.519-.076-3.048-.24-4.599-.588-1.545-.343-3.11-.846-4.631-1.647-1.511-.794-2.986-1.927-4.072-3.394-1.103-1.449-1.781-3.142-2.075-4.725-.303-1.592-.274-3.08-.126-4.448.16-1.366.47-2.609.818-3.782l.104-.359.072-.189.142-.377.143-.375c.046-.121.088-.237.176-.426.302-.677.628-1.342 1.017-1.885.346-.574.827-1.096 1.272-1.6.512-.473 1.012-.931 1.594-1.281 1.131-.721 2.363-1.185 3.516-1.354 1.15-.176 2.24-.199 3.226-.077.993.094 1.898.305 2.735.554 1.673.5 3.086 1.128 4.318 1.746 2.466 1.231 4.166 2.522 5.328 3.37a33.948 33.948 0 0 1 1.729 1.378l-.336.498s-.614-.416-1.832-1.111a40.29 40.29 0 0 0-5.476-2.608c-1.22-.462-2.598-.907-4.13-1.203-1.524-.294-3.24-.42-4.956-.021-1.702.397-3.354 1.505-4.28 3.265-.268.419-.434.885-.631 1.344a18.11 18.11 0 0 0-.453 1.505c-.237 1.035-.432 2.106-.494 3.207-.125 2.172.259 4.558 1.77 6.336 1.48 1.794 3.855 2.775 6.327 3.199 2.495.429 5.146.385 7.816.096 2.676-.283 5.387-.819 8.106-1.51 2.714-.672 5.446-1.586 8.243-2.391l8.458-2.474c5.67-1.7 11.396-3.554 16.888-5.941 5.462-2.369 10.839-5.256 14.86-9.478 2.01-2.09 3.534-4.596 4.311-7.302.793-2.694.789-5.586.23-8.25-.58-2.759-1.578-5.272-3.001-7.54-1.415-2.252-3.234-4.17-5.247-5.726-2.027-1.542-4.227-2.735-6.437-3.686-2.21-.957-4.444-1.656-6.625-2.176-4.356-1.076-8.481-1.483-12.127-1.686a93.92 93.92 0 0 0-9.47.022c-5.25.291-8.209.803-8.209.803l-.094-.59z"/></svg>