<svg xmlns="http://www.w3.org/2000/svg" id="tail" viewBox="0 0 3000 3000"><path id="cl1" fill="red" d="M881.3 1988.4c-4.2-2.2-7.8 0-11.5 1.5-5.1 2.5-10.7 3.8-15.5 6.7-11 6.5-15.6 3.2-18.3-9.2-7-32.8-13.4-65.8-21.1-98.5-4.9-20.7-5.3-42-9-62.8-.4-3.8-1.5-7.7.2-12.8 52.1 41.6 103.4 82.6 154.6 123.5-1 3.8-3.9 4.4-6.1 5.6-11.2 6.5-22.6 12.8-33.8 19.3-6.4 3.8-6.9 5.6-2.6 11.8 11.1 16.6 23.5 32.3 36.8 47.2 30.1 33.9 64 63.1 104.2 84.5 26.3 14 54 24.4 83.9 27.4 33.8 3.5 63-6.7 88-29.6 14.9-13.7 26.4-29.9 36.7-47.1 15.7-26.4 27.8-54.6 40.6-82.3 6.3-13.6 12.8-27.1 19.4-40.5 15-30.5 37.8-53.7 66.8-71 31-18.6 64.8-29.2 100.6-33.6 13.2-1.6 25.4.4 33 13.2.5.8 1 1.6 1.4 2.4.4.5.6 1.1.5 1.7 3.8 26.2-8.3 50-30 59.5-8.9 3.9-18.6 5.8-27.3 2.2-25.7-10.9-44 1.6-60.5 18.4-16.1 16.5-28.9 35.7-41.4 55-26.4 40.8-49.4 83.9-79.7 122.1-36.1 45.4-82.6 69.5-141.5 70.2-63.4.7-116-23-160.5-66.9-33.5-33.1-65.2-67.8-95.7-103.7-3.9-4.8-7.2-10.2-12.2-14.2z"/><path id="sd1" fill="#C00000" d="M881.3 1988.4c4.6 1.1 6.9 5 9.7 8.3 13.6 16 27.4 31.7 41.5 47.2 17 18.8 34.6 36.9 52.8 54.6 37.7 36.8 82 61.6 134.8 68.4 49.5 6.3 95.7-3.3 135.7-34.5 17.4-13.5 31.3-30.7 44-48.8 18.8-26.7 35.3-54.9 52.6-82.5 15.4-24.6 30.7-49.1 49.6-71.2 8.3-9.7 17.7-18.1 28.5-24.8 11.4-7.1 23.5-9.4 36.3-4.3 23.5 9.4 44.8-3 54.7-23.2 5-10.1 6.5-20.9 8.5-31.7 7.4 12.4 5.8 25.6 3.2 38.8-1.2 5.9-3.6 11.4-6.6 16.7-11 19.2-27 25.8-48.1 18.8-15.5-5.1-29.5-2.7-42.8 6-10.7 7-19.6 15.9-27.9 25.6-17.4 20.3-31.6 42.8-45.8 65.4-16.6 26.5-32.5 53.5-50.1 79.4-9.4 13.8-19.1 27.3-30.7 39.3-38.8 40.2-86.8 55.6-141.4 51.2-52.9-4.3-98-27.2-136.2-62.9-43.5-40.8-83-85.5-120.2-132.2-.8-1.2-1.4-2.5-2.1-3.6zm-75.6-152.5c.8 30.9 1.7 61.9 2.6 92.8.8 27.3 1.6 54.6 2.6 81.8.1 3.7-.5 7.8 2.5 11.8 19.2-10.9 38.3-20.9 56.4-32.5-7 .7-13.3 3.9-20 5.9-4.4 1.3-7.1.1-7.8-4.7-.2-1.3-.5-2.6-.8-3.9-9.8-46.4-19.6-92.8-29.5-139.2-1.6-7.4-2.4-15.1-5.7-22-.1 3.4-.4 6.7-.3 10z"/><path fill="none" stroke="#010101" stroke-miterlimit="10" stroke-width="6" d="M805.2 1813.2s.5 206.3 7.2 209.2c6.6 2.9 51.2-29.3 51.2-29.3s9.3-13.1 22.1 2.8c12.8 15.8 97.3 115.2 134.9 143.6 37.7 28.4 108.3 66.5 195 38.4 86.7-28 100.2-94.3 125.5-128.7 22.5-30.6 37.8-78.4 84.5-116.5 0 0 21.6-19 45.9-14.5s51.4 18.4 62.2-36.7c9.5-48.2-26.2-55-40.1-52.9 0 0-88.9 11-138.8 65.2s-53.1 102.8-72.6 135.5c-20.2 33.7-52.3 118.6-153.4 101.3-101.2-17.3-163.4-100.8-178.8-115.6-15.2-14.6-31.8-41.5-31.8-41.5s-8.9-5.8 9.1-15.6c20.8-11.3 33.5-21.2 33.5-21.2l-155.6-123.5z"/></svg>