<svg xmlns="http://www.w3.org/2000/svg" id="tail" viewBox="0 0 3000 3000"><path id="cl1" fill="#C00000" d="M1604 1906.9c4.3 6 4 12.1 4.5 17.9 1.5 18-.7 35.899-2.3 53.8-7.9 88.101-48.9 160.601-106.301 225.3-29.8 33.601-63.6 62.5-100.8 87.601-43.5 29.3-91.3 47.5-142.8 56.399-22.4 3.9-44.9 6-67.5 5.301-82.9-2.2-153.601-31.601-208.9-94.801-33-37.699-63-77.5-87.1-121.6-8.3-15.2-16.6-30.4-22-46.9-2-6.1-6.3-9.399-12.3-12-48.3-20.6-96.5-41.5-144.7-62.399l-2.7-1.2c-6.4-3-6.6-3.1-3.8-9.6 8.6-20.2 17.3-40.301 26-60.5 16.5-38.2 33-76.301 49.6-114.5 3.7-8.601 3.9-8.601 12.5-4.9 56.5 24.3 112.9 48.7 169.4 73 12.1 5.2 12.1 5.4 6.9 17.6-20.9 48.601-41.7 97.2-62.9 145.7-3.2 7.399-4 13.899.8 20.5 2 2.8 2.4 6.101 3.4 9.3 16.5 51.2 39.7 98.801 75.8 139.301 42.4 47.6 95.3 75.899 158.3 85.5 46.1 7 91.5 2.699 136.8-6.601 82.601-16.899 146.601-62.3 197.601-127.8 38.699-49.601 66.3-105.101 87.6-164 10.2-28.2 18.6-56.9 24.9-86.301 1.7-8.3 4.2-16.6 10-24.1z"/><path id="sd1" fill="#890000" d="M1469 2235.6c-18.2 18.7-38.9 34.3-60 49.399-43.601 31.4-92.101 51.7-144.8 61.7-64.2 12.2-127.2 9.101-188-16.899-35.801-15.301-66.101-38-92.101-67-34.399-38.301-65.1-79.2-90.2-124.2-8.8-15.7-17.3-31.5-23-48.601-1.899-5.6-5.399-9.199-11.199-11.699-48.6-20.7-97.1-41.8-145.6-62.8-9.5-4.1-9.5-4.1-5.399-13.399 1.1-2.4 2.199-4.7 3.6-7.6 13.4 6 26.4 11.8 39.4 17.7 34.8 15.699 69.6 31.6 104.5 47.1 6.899 3 11.399 7.3 14.3 14.2 26.899 65.399 67.1 122.2 113.8 174.899 37.9 42.7 84.5 70.601 139.7 84.101 41.5 10.2 83.5 11.399 125.899 5.399 52.4-7.3 101.4-24.199 146.4-52.199 23.2-14.4 44.9-31.101 65.6-48.9 1.5-1.3 3.101-2.4 4.7-3.7 2.1-.3 2.7.7 2.4 2.499zm-496.4-322.299c.7-1.5 1.3-3.101 1.8-4.601 1.101-3.399.2-6.1-3.199-7.199-3.5-1.2-3.2 2.3-4.301 4-.5.8-1 1.8-1.399 2.699-20.4 45.5-40.7 91-61.2 136.501-3.7 8.1-2.4 15.199 1.7 23.1 22.399-52 44.499-103.201 66.599-154.5z"/><path fill="none" stroke="#231815" stroke-miterlimit="10" stroke-width="6" d="M1604 1906.9c4.3 6 4 12.1 4.5 17.9 1.5 18-.7 35.899-2.3 53.8-7.9 88.101-48.9 160.601-106.301 225.3-29.8 33.601-63.6 62.5-100.8 87.601-43.5 29.3-91.3 47.5-142.8 56.399-22.4 3.9-44.9 6-67.5 5.301-82.9-2.2-153.601-31.601-208.9-94.801-33-37.699-63-77.5-87.1-121.6-8.3-15.2-16.6-30.4-22-46.9-2-6.1-6.3-9.399-12.3-12-48.3-20.6-96.5-41.5-144.7-62.399l-2.7-1.2c-6.4-3-6.6-3.1-3.8-9.6 8.6-20.2 17.3-40.301 26-60.5 16.5-38.2 33-76.301 49.6-114.5 3.7-8.601 3.9-8.601 12.5-4.9 56.5 24.3 112.9 48.7 169.4 73 12.1 5.2 12.1 5.4 6.9 17.6-20.9 48.601-41.7 97.2-62.9 145.7-1.9 6.2 3.2 26.601 4.2 29.8 16.5 51.2 39.7 98.801 75.8 139.301 42.4 47.6 95.3 75.899 158.3 85.5 46.1 7 91.5 2.699 136.8-6.601 82.601-16.899 146.601-62.3 197.601-127.8 38.699-49.601 66.3-105.101 87.6-164 10.2-28.2 18.6-56.9 24.9-86.301 1.7-8.3 4.2-16.6 10-24.1z"/></svg>