<svg xmlns="http://www.w3.org/2000/svg" id="tail" viewBox="0 0 3000 3000"><path id="cl1" fill="#C00000" d="M839.8 2061.8c11.3-38.1 28.2-73.8 48.9-107.6 9.3-15.3 19-30.4 30.8-44 5.7-6.6 11.8-12.7 18.4-18.2 18.8-15.8 48-11.2 64.3 9.7 6.1 12.2 9.9 25 7.8 38.7-.8 4.9.9 6.2 4.6 7.2 3.2-.4 5.3-2.5 7.4-4.7 21.6-22.2 46.9-39.2 74.7-52.5 19.8-9.4 41-14.1 62.6-15.7 34.4-2.6 68.5-.2 101.8 9.4 7.4 2.1 14.5 5 21.2 8.7 18.6 10.3 29.2 24.9 25.6 47.2-5.6 28.2-18 53.6-30.4 79.2-18.6 38.3-44.5 70.8-74.7 100.4-8 7.8-16.2 15.6-19.9 27.1-1.9 6-3.4 11.4-1 17.3 2.5 11.7 8.8 21.3 16.2 30.5 24 30.3 55.4 50.7 89.6 67 38.1 18.1 78.5 26.5 120.5 29.1 23.7 1.5 47.3.6 70.7-2.1 35.1-4.1 66.8-17.5 95.3-38.3 28.1-20.4 54.3-42.9 75.5-70.8 19.4-25.5 25.1-53.5 19.1-84.8-6.1-31.8-20.3-59.5-39.2-85.4-16.7-23-27.6-48.8-31-77.1-3-25.6-1.5-51.2 5.3-76.3 1.9-7.1 4.4-14 7.8-20.5.9-1.7 1.6-4.1 3.9-4 2.9.1 3.5 2.7 4.1 5 .8 2.9 1.4 5.8 1.9 8.8 11.7 64 31.1 125.3 64.4 181.6 12.8 21.7 19.1 45.3 18.2 70.6-.5 13.6-.2 27.3-4.2 40.6-8.8 37.6-32.7 66.1-58.9 92-42.8 42.3-94.5 69.6-153.8 81.1-26.6 5.1-53.7 4-80.5 2.6-55-2.9-107.6-16.9-157.7-39.5-40.9-18.4-74.2-46.6-101.2-82.3-7.5-10.6-12.4-21.9-10.1-35.4 1.9-10.9 7.3-20 14.4-28 4.4-4.9 9.4-9.4 14.5-13.7 44.9-38.6 76.4-85.7 91.8-143.1.3-1.3.9-2.5 1.4-3.7 2.5-8.9 3.8-18 4.7-27.1 1.1-11-3.5-18.4-14.2-23-18.6-8-38.3-6.7-58-7.7-58.5-2.8-106.3 21.4-150.3 56.1-3.2 2.5-9.9 5.2-4.8 11.8 15.8 5.1 26 15.7 30.6 31.7 7.9 29.3-15.6 51.1-38.3 59.1-20.1 7.1-41.1 8.9-62.2 10.3-39.9 2.7-79.4-.3-118.6-7.6-5.2-.8-11.8-1-9-9.7z"/><path id="sd1" fill="#890000" d="M1148 2192c6.1 4.2 10.7 10 15.7 15.3 35.8 38 79.5 63.1 128.7 79.3 55.6 18.3 112.8 25.9 171.2 23.3 30-1.3 58.3-10.1 85.7-21.8 62.1-26.6 107.3-71.7 140.7-129.5 3.8-6.6 6.8-13.7 10.1-20.6-1.1 14.8-4.8 29.1-12.9 41.5-45.4 69.1-108.9 112.7-188.7 133.2-20.8 5.3-42.2 5.8-63.5 6-23.6.3-47.3 0-70.6-4.6-43.9-8.6-86.8-20.6-127-40.9-34.2-17.2-62.7-41.3-85-72.5-1.7-2.6-3.8-5.3-4.4-8.7zm-104.9-221.5c13.5-9.7 27-19.4 41.4-27.9 12.3-7.2 24.8-14.5 38.6-18.6 31.9-9.5 64.6-12 97.7-9.7 8 .5 15.8 2.2 23.4 4.9 14.6 5.3 18.8 11.3 18.1 26.9-.3 7.3-1.4 14.5-2.2 21.8 4-7.5 5-15.8 6.5-24 3.4-18-3.7-28.8-21.8-32.8-27.2-6-54.7-7.1-82.4-4.2-35.3 3.6-66.6 17.8-96.2 36.3-11.9 7.4-22.9 16-32.5 26.3-5.2 5.6-4.6 6.9 3.8 8.6-.1-3.9 2.9-5.7 5.6-7.6zm-197.3 103c8.4 1.9 16.9 3.8 25.5 4.9 36.7 4.5 73.5 7 110.5 3.4 19.9-1.9 39.7-4.1 58.7-10.8 25.9-9.2 37.8-34.9 27.6-61.1-.3 8-.9 15.9-4.5 23.3-7.4 15.2-19.5 24.9-35 30.9-30 11.7-61.5 13.5-93.2 13.1-8.6-.1-17.2-1-25.9-1-19.7-.1-39.1-2.7-58.4-6.1-5.1-.9-9.9-2.2-11.2-8.2-2.7 9.1-2.6 9.7 5.9 11.6zm355.9 51.8c1.3-1 2.5-2.2 3.7-3.4 44.6-43.9 77.3-95.3 97.2-154.7 2.9-8.8 5.6-17.8 5.3-27.2-5.5 16-10.9 32.1-18 47.5-16.3 35.4-33.5 70.3-60.4 99.2-9.3 10-18.8 19.7-28.3 29.5-8.1 8.4-15.5 17.4-20.4 28.1-3.1 6.8-3.6 13.4 1.1 19.8.8-15.9 7.5-28.8 19.8-38.8zm-188.1-185.2c4.4-15.2-1.5-27.4-11.3-38.4 2.1 12.8 4.2 25.5 4 38.6-.1 7.1.5 7.1 8.3 7.2-1.6-2.3-1.8-4.6-1-7.4z"/><path fill="none" stroke="#000" stroke-miterlimit="10" stroke-width="6" d="M1686.3 2026.8c-33.3-56.4-52.7-117.6-64.4-181.6-.5-2.9-1.2-5.9-1.9-8.8-.6-2.2-1.2-4.9-4.1-5-2.3-.1-3 2.3-3.9 4-3.5 6.5-5.9 13.4-7.8 20.5-6.7 25.1-8.3 50.7-5.3 76.3 3.3 28.2 14.2 54.1 31 77.1 18.9 25.9 33 53.6 39.2 85.4 6 31.3.4 59.2-19.1 84.8-21.2 27.9-47.4 50.4-75.5 70.8-28.6 20.7-60.2 34.2-95.3 38.3-23.5 2.7-47 3.6-70.7 2.1-42-2.6-82.5-11-120.5-29.1-34.3-16.3-65.7-36.7-89.6-67-7.4-9.3-15.8-19.6-16.2-30.5.9-15.8 7.5-28.7 19.8-38.7 1.3-1 2.5-2.2 3.7-3.4 44.6-43.9 77.3-95.3 97.2-154.7 2.9-8.8 4.6-17.4 5.3-27.2.6-21.9-7-36.9-25.6-47.2-6.7-3.7-13.8-6.6-21.2-8.7-33.3-9.7-67.4-12-101.8-9.4-21.6 1.6-42.8 6.3-62.6 15.7-27.8 13.3-53.1 30.3-74.7 52.5-2.1 2.2-4.2 4.3-7.4 4.7-1.6-2.3-1.8-4.6-1-7.4 4.4-15.2-1.5-27.4-11.3-38.4-16.3-21-45.6-25.5-64.3-9.7-6.6 5.5-12.7 11.6-18.4 18.2-11.8 13.6-21.5 28.8-30.8 44-20.7 33.8-37.6 69.4-48.9 107.6-2.6 9.2-2.5 9.8 6 11.7 8.4 1.9 16.9 3.8 25.5 4.9 36.7 4.5 73.5 7 110.5 3.4 19.9-1.9 39.7-4 58.7-10.8 25.9-9.2 37.8-34.9 27.6-61.1-4.5-16-14.7-26.6-30.6-31.7-.1-4 2.9-5.8 5.6-7.7 13.5-9.7 27-19.4 41.4-27.9 12.3-7.2 24.8-14.5 38.6-18.6 31.9-9.5 64.6-12 97.7-9.7 8 .5 15.8 2.2 23.4 4.9 14.6 5.3 18.8 11.3 18.1 26.9-.3 7.3-1.4 14.5-2.2 21.8-.5 1.2-1 2.5-1.4 3.7-15.5 57.4-47 104.5-91.8 143.1-5 4.3-10 8.8-14.5 13.7-7.2 8-12.6 17.1-14.4 28-2.3 13.5.2 23.9 7.7 34.5 2.5 4.1 5.1 7 7 9.6 22.3 31.3 50.7 55.3 85 72.5 40.2 20.2 83.1 32.2 127 40.9 23.3 4.6 47 4.9 70.6 4.6 21.3-.3 42.7-.7 63.5-6 79.7-20.5 148.7-60.8 188.7-133.2 7.8-14.1 13.3-35.8 13.8-41 2.8-13.6 2.8-27.4 3.3-41.1.4-25.3-5.9-48.8-18.7-70.6z"/></svg>