<svg xmlns="http://www.w3.org/2000/svg" id="tail" viewBox="0 0 3000 3000"><path id="cl1" fill="#C00000" d="M1619.9 1926.9c-.2-1.9-.6-4-3.5-5-5.9 6.9-8 15.7-9.9 24.3-6.2 28.7-14.5 56.8-24.4 84.4-21.6 59.9-49.8 116.3-89.4 166.6-34.5 43.8-75.4 80.2-126.7 103.1-56.6 25.3-116.4 35.4-178.3 32-86.3-4.7-154.6-42.8-205.8-112.3-29.5-40-46.4-85.9-63-132-1.6-4.4-.4-5.9 4.5-6.3 1.3-.1 2.6.4 3.9.7 1 .1 1.7.8 2.6 1.2l3.9.6c5.1-3.6 10.4-4.4 16.7-3.4 12.1 1.8 22.6-1.4 29.2-12.7 4.1-8 2-15.5-1.6-23-7.7-15.9-19.6-28.6-32.2-40.4-38.9-36.4-82.6-66.2-128.3-93.2-8.5-5-10.9-1.2-13 5.3-.7 2.2-.7 4.6-1 6.9-1.6 12.2-3.3 24.4-4.9 36.6-3.6 27.7-8.5 55.3-9.2 83.3-1.4 15.9-.6 31.5 2.3 47.3 6 32.9 27.2 39 52.8 31.3 9.5-2.9 17.4-8.2 23.5-16 2.7-2.9 3.9-6.7 5.8-10 .7-.7 1.3-1.5 2.3-1.9.6 0 1.1-.1 1.7-.3 4.8-1.1 5.7 3 7 5.8 12.9 29 27.6 57.1 45.2 83.6 18.6 28 38.9 54.8 61.4 79.9 27.4 30.7 58.9 56 97 72.3 69.5 29.7 140.9 31.6 213.5 14.2 73.7-17.7 133.8-59.1 188.1-110 14.4-13.5 27-28.8 40.3-43.4l-.1.1c.3-1.1 1.1-1.7 1.9-2.3 32.8-39.7 58.2-83.6 73.5-132.9 11.9-38.2 15.8-77.6 16-117.4 0-5.7-1.1-11.4-1.8-17z"/><path id="sd1" fill="#890000" d="M878 2093.9c.6-2.5.7-5.4 3.7-6.5 2.8.6 3.3 3.2 4.1 5.2 27.4 63.4 66.5 119.1 112.4 170.2 51.1 56.9 115.6 86.1 191.5 91.4 69.3 4.8 134.4-10.1 196-41.3 31.7-16.1 59.8-37.5 86.7-60.4 17.5-14.9 33.9-31 48.9-48.5 2.6-3 5.2-6.2 9-7.8-3.3 7.1-9 12.3-14 18-31.6 36-67.4 67.2-107.5 93.5-46.2 30.3-96.9 48.4-151.5 56.1-41 5.7-81.8 4.7-122.1-4.8-57.3-13.6-104.7-43.1-143.4-87.6-44.9-51.6-83.7-107-109.9-170.6-1-2.4-2.6-4.6-3.9-6.9zm-86.3 7.1c5.5 26.8 20 35.7 46.4 28.8 13.3-3.5 24.5-10.1 30.1-23.7-10.7 6.9-22.1 12.2-35 13.5-18.6 1.8-30.6-5.5-37.3-22.9-4-10.4-5.4-21.2-5.7-32.2-.2-7 .6-13.9-.6-20.9-3 19.2-1.8 38.5 2.1 57.4zm159.6-13.1c14.9.2 23-5.5 28.6-19.9-11.4 9.1-24.2 9-37.6 6-3.7-.8-8.5-4.3-11.1-1.3-3.3 3.7 1.8 7.6 2.9 11.5 5.3 3 11.2 3.6 17.2 3.7zm-23.8-5.5c.9.4 1.7.8 2.6 1.2-.9-.4-1.8-.8-2.6-1.2zm-51.2 11.8c-.8.6-1.5 1.3-2.3 1.9.8-.7 1.6-1.3 2.3-1.9zm655.9 99.9c-.6.8-1.3 1.5-1.9 2.3 1-.4 1.7-1.2 1.9-2.3z"/><path fill="none" stroke="#000" stroke-miterlimit="10" stroke-width="6" d="M927.5 2082.4c-1.3-.2-2.6-.8-3.9-.7-4.9.4-6.1 1.9-4.5 6.3 16.6 46.1 33.5 92 63 132 51.2 69.5 119.5 107.6 205.8 112.3 61.9 3.4 121.6-6.8 178.3-32 51.3-22.9 92.2-59.3 126.7-103.1 39.6-50.2 67.8-106.6 89.4-166.6 9.9-27.6 18.2-55.7 24.4-84.4 1.9-8.6 3.9-17.4 9.9-24.3 2.9 1 3.2 3.1 3.5 5 .7 5.6 1.8 11.2 1.8 16.9-.2 39.8-4.1 79.2-16 117.4-15.4 49.3-67.9 125.9-73.5 132.9l-15.8 20.2c-31.6 36-67.4 67.2-107.5 93.5-46.2 30.3-96.9 48.4-151.5 56.1-41 5.7-81.8 4.7-122.1-4.8-57.3-13.6-104.7-43.1-143.4-87.6-44.9-51.6-83.7-107-109.9-170.6-1-2.4-2.3-5.7-3.9-6.9-1-.3-1.3.1-1.7.3-.9.6-2.2 2-3.3 3.9-1.7 2.8-5.4 8.9-6.6 11.9-7.2 13-16.4 17.3-28.2 19.8-26.7 5.5-40.9-1.9-46.4-28.8-3.9-18.9-5.1-38.2-2-57.4.8-28 5.7-55.6 9.2-83.3 1.6-12.2 3.3-24.4 4.9-36.6.3-2.3.3-4.7 1-6.9 2.1-6.5 4.5-10.3 13-5.3 45.7 27 89.4 56.8 128.3 93.2 12.6 11.8 24.5 24.5 32.2 40.4 3.6 7.5 3.5 17.1 1.6 23-5.7 10.6-11.6 19.7-28.6 19.9-6.4-.2-24.2-5.7-24.2-5.7z"/></svg>