<svg xmlns="http://www.w3.org/2000/svg" id="tail" viewBox="0 0 3000 3000"><path id="cl1" fill="#D47B3F" d="M741.5 2069.5s22-45.5 70.5-58 105.5-18 166 31.5 89.7 109.301 142 128.5c49 18 125.7 14.7 165.5-66.5 0 0 30.5-63.5 40-119.5s15-97 29.5-113 81.5-67 130.5-29c0 0 28 34.7-9.5 55 0 0-17 .801-31-1-12.1-1.6-29.2 11.2-36.5 19-7.3 7.801-33.8 39.2-43.5 76-9.7 36.801-11.8 46.301-16 77.2-4.2 30.9-24.8 83-48 105.3-23.2 22.301-45.3 39.301-76 46.301s-95.2 14.8-152.5-15.301c-57.3-30.1-103.2-76.199-106.2-79.199s-48-54.301-108.8-41c-60.8 13.3-57.6 20.399-89.2 24.699-40.6 5.5-26.8-41-26.8-41z"/><path fill="#533019" d="M793.5 2061.7c7.7 15.2 9.7 39.8 9.7 39.8-18.8 7.801-35.8 9-46.3 9.101S738 2104 740.3 2078.4c2.301-25.6 33.2-46.199 33.2-46.199s12.3 14.299 20 29.499zm616.4-203.399c-2.2 3.1-3.9 7.1-5 12-1 5.6-1.5 11.3-1.4 17 .2 5.8.6 11.5 1.4 17.3.5 4.7 1.199 9.2 2.1 13.8 9.3-9 20.9-15.8 34.6-20.5-3.199-6.1-5.8-11.899-7.699-17.1-1.2-3.5-2.601-6.8-4.101-10-1.399-2.9-2.899-5.7-4.5-8.5-.6-.8-1.5-2.5-2.899-5.2-1.4-2.6-3.4-3.899-5.7-3.8-2.501.199-4.701 1.799-6.801 5m-45.2 58.199c-4.5-.5-12.7-7.699-24.801-21.699l14-25.801c7.9 10.5 12.5 21.5 13.601 32.801 1.2 11.199.2 16.099-2.8 14.699m-15 49.301c8.6 3.8 16 8 22.1 12.3l-9 19.2c-8.1-9.301-14.9-19.2-20.5-29.801-2.1-4.3.4-4.9 7.4-1.699m-31.3 36.299c5.399 4.2 10.1 9.899 14.199 17.2 4.5 10.699-2.6 13.399-21.1 8.399l6.901-25.599m27.4 74.701c-.1 9.8-2.3 18.8-6.3 27.1-8.6-7.8-14.8-17.399-18.6-29.199-2.7-13.002 5.6-12.202 24.9 2.099M1181.2 2198.9c3.3-5.3 6.399-6.8 9.199-4.3 7.4 10.5 11.801 20.8 13.301 31l-29.601 2.2c.501-11.6 2.901-21.2 7.101-28.9m-33-19.9c-2.4 7-5.2 13.4-8.5 19.101-3.2 5.8-6.5 7-9.7 3.8-5.5-7.5-9.5-17.699-11.8-30.6l29.699 7.5M1277.3 2155.6c8.4-12.899 19.801-12.3 34.4 2-10.9 18.5-25.7 33.399-44.3 44.601-1.9-17.001 1.4-32.501 9.9-46.601m33.2-58.799c-2.1 19.8-11.7 23-28.7 9.399l20.2-43.8c7.1 9.6 10 21.1 8.5 34.401m-485.7-90c12-3.5 24.4-5.2 37.3-4.9-7.399 47.8-14.899 66.2-22.5 55.2-7.8-16.8-12.7-33.501-14.8-50.3m109.6 35.099c4.1-5.2 6.3-4.6 6.8 1.8 1.5 22.601 2.3 44.101 2.3 64.601l-28-19.301c4-17.1 10.3-32.8 18.9-47.1m170.3 122.401c-3 8.399-5.9 13.699-8.7 15.8-3.9 2.3-7.3 1.601-10.2-2.101-5.8-9.399-9.1-20.699-9.8-33.699l28.7 20M982.1 2113c-1.3-3.199-1.5-8-.8-14.6 2-13.1 6.4-25.9 13.2-38.3.8.2 8.4 8.399 22.7 24.5l-15.5 18.2c-9.8 10.9-16.4 14.3-19.6 10.2m34.8 18.6c3.5-1.399 6.5 1.5 9.1 8.7 3.9 14.199 6.1 28.899 6.7 44.1l-35.4-28.899c5.8-11.401 12.3-19.401 19.6-23.901"/><path fill="none" stroke="#000" stroke-miterlimit="10" stroke-width="6" d="M740.5 2069.5s22-45.5 70.5-58 105.5-18 166 31.5 89.7 109.301 142 128.5c49 18 125.7 14.7 165.5-66.5 0 0 30.5-63.5 40-119.5s15-97 29.5-113 81.5-67 130.5-29c0 0 28 34.7-9.5 55 0 0-17 .801-31-1-12.1-1.6-29.2 11.2-36.5 19-7.3 7.801-33.8 39.2-43.5 76-9.7 36.801-11.8 46.301-16 77.2-4.2 30.9-24.8 83-48 105.3-23.2 22.301-45.3 39.301-76 46.301s-95.2 14.8-152.5-15.301c-57.3-30.1-103.2-76.199-106.2-79.199s-48-54.301-108.8-41c-60.8 13.3-57.6 20.399-89.2 24.699-40.6 5.5-26.8-41-26.8-41z"/><path id="sd1" fill="#070200" stroke="#533019" stroke-miterlimit="10" d="M740 2082.5s-3 28.5 18 28 72.5-16.5 92.5-22 52.5-18.5 107.5 31 98.5 92 175.5 106.5 138.5-22.5 151.5-34.5 49.5-52.5 64-117 7.5-86.5 39-129.5 40-48.5 64-47.5 53.3-5.5 36.7-49.8c0 0 1 17.3-19.7 22.3s-34.7-8-58 10.7-43.7 56.7-55.3 92c-11.601 35.3-11 85.7-27.301 120-16.3 34.3-37 79.7-115.699 103.3-78.7 23.601-166.7-24-188-39-21.301-15-84-78.699-109.3-89.699-25.301-11-36.301-14.7-75.301-6-39 8.699-52.699 18-70 20-17.299 2-30.099 1.199-30.099 1.199z" opacity=".25"/></svg>