<svg xmlns="http://www.w3.org/2000/svg" id="tail" viewBox="0 0 3000 3000"><path id="cl2" fill="#B59077" d="M1158.1 2364c-8.6-24.3-7.7-49-3.3-73.8 3-17.3 6.9-34.5 15.2-50.3 2-1.4 3-3.6 3.9-5.6 13.6-30 36.2-51.5 63.5-68.8 3.5-2.2 7.8-3.7 9.8-7.9 2.5-2.5 5.4-4.4 8.9-5.4 18.1-7.4 34.2-18.7 51.4-27.8 57.1-30.3 104.6-73 151.4-116.9 34.3-32.1 62.2-70.2 97.2-101.5 15.2-13.6 30.4-27.6 50.7-33.8 12.6-3.9 25-3.1 37.3 1.7 3.6 1.4 4.9 4.6 6.1 7.9 3.9 24.5-5.4 43.7-30.2 52.1-27.5 9.3-48.6 27.3-70.7 44.3-46.3 35.6-90.3 74.1-139.2 106.5-44.7 29.7-93.2 51.9-140.7 76-18.1 9.2-35.6 19.2-50.8 32.8-20.2 18.1-31.9 41.4-40.3 66.7-14.1 39.5-12.9 78.7 3.2 117.4 3 7.4 6.9 14.4 14 18.8 1.8 7.4-3.6 8.7-8.7 10.4-6.7-.4-10.9-4.4-13.8-9.9-4.6-8.8-9.4-17.5-12.8-26.9-2.2-1.6-.3-4.4-2.1-6z"/><path id="hl3" fill="#715A4A" d="M1178.2 2260.2c-.6-3.4.6-6.7 1.7-9.7 9.8-26.3 23.4-50 46.7-66.9 21.4-15.5 44.3-28.4 68.2-39.4 64.2-29.5 124.4-65.3 178.9-110.2 30.1-24.7 61.8-47.4 90.9-73.3 13.3-11.8 28.4-20.8 45.3-26.8 3.8-1.3 7.5-2.8 11-4.7 18.8-10.2 32.2-23.7 29.1-47.4 6.2 13.7 4.8 26.4-5.2 38-8.4 9.8-18.4 16.9-30.9 20.9-10.1 3.2-19.5 7.8-28.3 14.3-43.9 32.5-85.3 68.1-129 100.9-41.6 31.2-85.5 58.8-132.4 81.5-22.5 10.9-45 21.6-67.3 32.8-34 17.1-59.2 42.6-73 78.5-1.4 4.1-2.1 8.6-5.7 11.5zm-1.5 135.7c-5.5-8.7-11-17.3-16.6-26 1.8 13.7 8.5 25.5 14.1 37.7 3.8-2 8.3-2.7 11.8-5.4-4.5.2-7.1-2.8-9.3-6.3z"/><path id="cl1" fill="#3C281A" d="M1202.1 2392.2c8-4.8 15.4-11.5 25.1-12.3 21.6-1.8 33 4.8 43.4 29.7 8.5 20.3 15.3 48.5 15.3 51.8-.4 24.2 1.7 48.5-2.1 72.6-2.3 9-8.8 7.7-15 5.7-31.1-9.9-61.4-21.4-89-39.2a244.7 244.7 0 0 1-27.4-20.2c-6.7-5.7-12.5-12.3-16.5-20.3-6.3-22.1 5.4-42.6 28.1-49 3.5-.9 36.1-17 38.1-18.8z"/><path id="sd1" fill="#251911" d="M1136 2460c25.9 27.2 57.9 44.9 91.9 59.6 14 6 28.4 11.3 43 15.6 4.3 1.3 9 3.5 12.9-1.2-.2 1.6-.2 3.3-.6 4.9-2.1 8.7-2.8 9.4-11.5 7.5-18.2-3.8-35.6-10.4-52.6-17.9-23-10-43.8-23.5-62.7-39.8-9.1-7.8-17.1-16.6-20.4-28.7z"/><path id="hl2" fill="#473021" d="M1284.1 2451.8v33.8c-3.4-17.2-6.6-34.3-10.3-51.2-2.9-13.3-6.9-25.8-15.1-37.5-9.2-13.2-25.7-14.6-38.3-11.2-4.2 1.1-8.1 3.1-11.8 5.3-2 1.2-4 2.5-6.5 1.2 22.5-28.4 55.4-17.7 66.3 3.5 9.1 17.6 14.8 36.1 15.7 56.1z"/><path id="hl1" fill="#C6A48A" d="M1644 1873.9c-6.3 0-12.6.2-18.9 0-14.3-.5-26.6 4.7-38.3 12.4-24.9 16.5-45.8 37.7-65.3 59.9-14.4 16.5-27.8 33.9-43.9 48.9-15.3 14.2-31.2 27.9-46.9 41.7-12.9 11.4-25.9 22.9-38.9 34.3-12.5 11-25.3 21.5-39.6 30.2-27.8 17-56.3 32.9-85.2 48-3.4 1.8-6.6 4.9-11.1 2.8 20.2-12.7 40.3-25.7 61.6-36.8 6.5-3.4 12.6-7.4 18.7-11.5 31.3-21.4 61.9-43.8 90.1-69.2 18.6-16.7 35.3-35.3 52.5-53.3 22.1-23.1 43-47.3 65.9-69.5 11.9-11.5 24-23.1 38-32.2 11-7.1 22.6-12.8 35.8-14.1 9.8-.9 18.6 1 25.5 8.4zm-398 284.3c-.8.6-1.5 1.3-2.4 1.6-.7 0-1.3.3-1.7.9-.8.2-1.4.7-1.9 1.3h-.1c-.8.7-1.5 1.5-2.6 1.7-12.3 6.5-23.4 14.9-33.5 24.4-15.3 14.5-26.8 31.7-33.9 51.7 3.5 2.8 3.5-1.2 4.3-2.6 6.4-11.3 11.8-23.3 20.6-32.9 10.3-11.2 20.8-22.5 34-30.6 5.4-3.3 10.4-7.2 15.6-10.8 1.8-1.3 4.4-2.3 2.7-5.4-.5 0-.9.2-1.1.7zm-2.4 1.7c.8-.5 1.6-1.1 2.4-1.6-1.2 0-1.9.6-2.4 1.6z"/><path fill="none" stroke="#020100" stroke-miterlimit="10" stroke-width="6" d="M1173.8 2406.7s-23.8 7.2-32.8 20.1c-9 12.9-9.6 32.8 0 44.7 9.6 11.9 29.4 32.5 61.8 49.2 32.4 16.8 68.2 27.1 74.4 26.5 6.2-.6 5.7-7.6 7.9-22.6 2.1-15 2.1-61.1.6-65.5s-1.9-37.7-15.5-60.2-33.1-33.7-62.7-12.7c0 0-8.3 9.1-12.5 9.9-4.1.8-24-31.7-25.9-67.6-1.9-35.8 4.5-53.5 12.5-72.9 8-19.4 22.3-55.2 66.5-80.5 44.2-25.3 70-33.2 97.5-48.4 27.5-15.2 78.1-46.3 96.8-60.2s110.2-86.3 121.2-94.7c11-8.4 31.7-27.1 59-34.5 27.4-7.4 34.5-35.5 30.3-47.2-4.2-11.7-2.4-18-27.1-24.8-24.7-6.9-58.9 25.6-67.8 34-8.9 8.4-91.8 95.7-103.1 107.3-11.4 11.6-99.5 92.7-159.5 121.1 0 0-41.2 25.3-58.5 36.3-17.3 11-53.6 33.1-69.5 81s-15.6 63.4-15.9 81.7c-.3 18.3 9 50.7 13.9 61.5 4.8 10.9 8.4 18.5 8.4 18.5z"/></svg>