<svg xmlns="http://www.w3.org/2000/svg" id="图层_1" viewBox="0 0 3000 3000"><path d="M1328.5 2449.4c-.5-1.1-1.3-1.6-2.5-1.7-1.1-.1-2 .3-2.8 1.3-.5.7-.7 1.5-.5 2.5.1.8.5 1.6 1 2.4.5.9 1.5 2 3 3.3.9.8 1.6 1.4 2.1 1.7l2.4 1.2 3 1.3c2.3.5 3.6.8 3.9.9.3.1.9.3 1.8.5 1 .2 1.7.3 2.2.2.5-.1.7-.2.6-.4 0-.1-.4-.7-1.1-1.6-.7-.9-2.1-2.1-4.1-3.5l-3.3-2.3c-1.6-1-2.7-1.8-3.3-2.3l-1.2-1.1c-.4-.5-.7-.8-.7-.9-.2-.6-.4-1.1-.5-1.5m365.6 45.3c-.4 0-.9.2-1.4.8-.7.7-1.3 1.7-1.9 2.8-.3.5-1.1 1.8-2.5 3.8-1.4 2.1-2.6 4.4-3.7 7-1.1 2.6-2 4.8-2.8 6.8-.8 1.9-1.5 3.6-2.2 5-.7 1.5-1.5 2.9-2.3 4.3-.8 1.4-1.2 2.2-1 2.5.2.3.9 0 2.3-.8 1.4-.9 2.5-1.8 3.5-2.7.9-.9 1.9-2.2 2.8-3.7 3.3-4.9 6.2-10.2 8.7-15.8.7-1.6 1.2-3 1.5-4.1.4-1.2.5-2.4.5-3.7-.2-1.4-.7-2.1-1.5-2.2m46.2-55.7c-.5-.1-1.1 0-1.6.2s-1 .6-1.4 1.1c-.4.5-.7 1.3-1 2.6-.3 1.1-.8 2.6-1.6 4.7-.6 1.9-1 3.5-1.2 4.8l-1.4 9 .1.3.1.1h.2l.3-.1s.1 0 .2-.2l2.2-2.5c2-2.4 3.3-5 3.9-7.8l1.1-2.7c.1-.3.6-1.9 1.5-4.6l.4-1.3c.2-.5.3-.9.3-1.3 0-.5-.1-1-.5-1.5-.5-.4-1-.7-1.6-.8m61 24.4c-.4-.1-.8 0-1.1.2-.6.4-1 1-1.2 1.8-.1.4-.1.9 0 1.5v1.2c.1 1.3.3 2.6.8 3.8.3.8.6 1.5 1.1 2.3.5.8.9 1.3 1.1 1.6.3.3.5.6.7.8l2.6 2.6c1.8 1.7 4.3 3.7 7.7 6.2 2.8 2.1 4.8 3.5 6 4.4.5.4 1 .6 1.3.6l.2.2c1.5 1.2 2.9 1.8 4 1.8h.1v-.1c.1 0 0-.3-.2-.9-.2-.6-.4-1.1-.7-1.5-2.8-3.8-5.2-6.6-7-8.4-.9-.9-2.3-2-4.3-3.5s-3.4-2.6-4.3-3.5c-3.3-2.9-5.2-6-5.6-9.3-.2-.8-.3-1.3-.5-1.4 0-.3-.3-.4-.7-.4m15.2-141.3c-1-.5-1.8-.6-2.5-.5-.6.2-1 .9-1 2.1 0 1.3 1.8 3.3 5.3 6 3.6 2.8 8.3 5.2 14.2 7.3 5.9 2.2 9.8 3.3 12 3.6 2.1.2 3.4.2 3.9 0s.5-.7-.1-1.5c-.6-.7-1.8-1.6-3.7-2.7-1.8-1-4-2-6.6-3.1-2.6-1.1-4.7-2-6.5-2.9-1.7-.8-4.4-2.3-8-4.6-3.7-1.9-6-3.2-7-3.7m-75.8 22.3c-.3 1-.1 2.1.4 3.3.6 1.3 2.1 3.2 4.5 5.7s5 4.8 7.9 6.8c2.8 2 4.3 3 4.5 3.1.2.1.5.2.8.4.4.2.7.3 1 .3.4.1.6.1.8.2.2.1.6.1 1.4.2.8 0 1.2-.1 1.3-.4.1-.3 0-.7-.3-1.3-.2-.6-.5-1.1-.9-1.7-.3-.6-.8-1.2-1.4-2-.6-.7-1.7-1.7-3.3-3-1.6-1.2-3.3-2.7-5.1-4.3-1.8-1.6-3.7-3.4-5.7-5.6l-1.7-2.8c-.3-.6-.7-1-1-1.3-.6-.3-1.2-.2-1.9.2-.5.5-1 1.2-1.3 2.2m-11.9-50.5c-.5.2-.9.4-1.2.8-.7.7-.9 1.6-.6 2.6.3.9 1.2 1.8 2.8 2.7l.1.1c.5.4 1.2.9 2 1.3l1.7 1 .8.4c.1 0 .7.3 1.9.8l-.4-.2 1.3.5.3.1c.3.1.7.2 1 .3.6.1 1.1 0 1.4-.2.3-.2.5-.5.6-1 0-.5-.2-.8-.5-1-.6-.5-1-.8-1.1-.9-1-.7-1.7-1.3-2.3-1.6-.3-.3-.8-.7-1.5-1.2-.9-.8-1.5-1.4-1.9-1.8-1.1-1.4-2-2.3-2.9-2.5-.5-.3-1-.3-1.5-.2m-38.3 64.1c-.6-1.5-1.4-2.1-2.3-1.8-.2.1-.4.2-.5.3-1 .6-2.1 1.7-3.5 3.4-1.3 1.7-2.9 4.2-4.7 7.7-1.8 3.4-3.5 6.6-5 9.5-1.5 2.9-1.9 5.2-1.1 7 .2.6 1.6-.9 4-4.3s5.4-7.5 8.8-12.3c3.5-4.8 4.9-7.9 4.3-9.5m-28.9-59.7c.5-.8.7-1.6.4-2.5-.2-.7-.6-1.2-1.3-1.6-.7-.4-1.3-.5-2-.3-.6.2-1.4.7-2.3 1.6-4.1 4.3-8.3 9.5-12.6 15.5-2.5 3.6-4.6 7.1-6.3 10.5-1.7 3.5-1.9 5.1-.4 4.9 1.5-.2 4-2.7 7.5-7.3s7.1-9.1 10.8-13.3c3.6-4.2 5.7-6.7 6.2-7.5m103.9-52.6c2.3.7 4.7 1.2 7.3 1.7 2.6.5 4.8 1.1 6.4 2 1.7.9 2.6.9 2.8-.1.3-1.4-.2-2.5-1.5-3.3-1.3-.7-2.8-1.4-4.5-2-1.7-.6-3.1-1-4-1.4-1-.4-2.5-.9-4.5-1.7-2-.7-4.5-2.1-7.5-4.3-3-2.1-4.7-3.3-5.1-3.5-.8-.5-1.5-.6-2.1-.3-.4.2-.8.5-1 .9-.2.4-.3.9-.3 1.4.1.7.4 1.6 1.1 2.6 1.5 2 3.5 3.7 5.8 5 1.9 1.2 4.3 2.2 7.1 3m-411.7 65.3c-.5 2.3-.4 4.7.4 7.2.7 2.3 1.9 4.5 3.6 6.4 2.8 3.2 6 5.4 9.7 6.8 3.7 1.4 6.1 2 7.3 1.9 1.2-.1.4-1.3-2.4-3.6-3.1-2.7-5.7-4.9-7.7-6.8-2-1.8-3.3-4-3.9-6.5-.6-2.5-.8-4.2-.8-4.9.1-.7 0-1.3-.3-1.9-.4-.9-1-1.5-1.9-1.6-.9-.3-1.7-.1-2.5.4-.7.5-1.2 1.4-1.5 2.6m308.6-630.2c-.6.2-1.2.8-1.8 1.7-.7 1.2-1.4 3.1-2 5.6-1.5 5.9-4 16.2-7.3 31-3 13.2-5.6 23.5-7.7 30.9-.3 1.2-.1 1.9.5 2 .4.1.9-.2 1.3-.9 2.8-4.3 5.1-9.5 7-15.5 1.2-3.7 2.6-9.3 4.2-16.8l7.9-35.8c.1-.6.1-1 0-1.2-.1-.4-.4-.7-.8-.9-.4-.2-.9-.2-1.3-.1m-29.7-49.7c-.6.1-1.4.6-2.3 1.4-3.2 2.7-6.6 6.3-10.1 10.8 0 .1-3 4-8.9 11.9-3.3 4.4-6.4 8.3-9.2 11.6-5.2 6.4-9.8 11.9-13.9 16.6-.4.4-.6.9-.8 1.4-.1.6 0 1 .4 1.2.4.3 1 .1 1.8-.5 5.8-4.5 9.9-7.9 12.3-10.3 2.1-2.1 4.5-4.8 7.2-8.2 1.6-2 5.7-7.4 12.1-16 4.9-6.6 9.1-11.8 12.5-15.7 1.3-1.4 1.7-2.5 1.2-3.3-.2-.4-.5-.7-1-.8-.4-.2-.8-.2-1.3-.1m49.6-36.9c.2 1.3.8 3.3 1.8 5.8l3.1 14.6c.2.9.4 1.6.6 2.1.2.4.5.9.9 1.5.1.2.2.5.3 1 .1.4.3.6.5.6 1-1.7 1.5-3.6 1.6-5.9 0-1.5-.2-3.6-.7-6.2-1-4.8-2.5-9.2-4.5-13.3-.4-.8-.7-1.4-1-1.8-.6-.8-1.3-1-2-.8-.6.5-.9 1.2-.6 2.4m36.2 87.8c-.6-.3-1.2-.1-1.7.6-.3.4-.5.9-.6 1.8-.8 4-.7 9.1.5 15.1 1.3 6.2 3.4 12.2 6.2 18 1.1 2.3 2.2 4.2 3.2 5.5.6.9 1.9 2.3 3.8 4.3.2-.3.3-.6.3-1.1-.1-.6-.2-1-.3-1.3.2-.8.3-1.4.3-1.8.1-.6-.1-1.5-.6-2.5l-2.5-5.6c-1.7-4.1-3-7.1-3.7-9.2-.5-1.7-1.2-4.4-2.1-7.9-.6-2.6-1-4.6-1.1-6 0-1.8-.1-3.2-.1-4.1-.1-1.7-.3-3-.5-4.1-.2-1-.6-1.5-1.1-1.7m20.8-34.2c-.9-1.1-1.6-1.6-2.2-1.7-.5 0-1 .2-1.4.6-.4.4-.6.9-.6 1.4-.1.8.3 1.8.9 3 1.4 2.3 3.4 4.5 6 6.7 1.6 1.3 4.1 3 7.5 5.2 6.7 4.3 11 7.1 13 8.3 3.6 2.2 6.6 3.8 8.9 4.7 2.6 1 5.1 1.5 7.3 1.3l-.9-1.3c-.9-1.2-1.5-2-1.8-2.3-.7-.8-2.1-1.8-4.3-3.2-8.2-5-15.1-9.3-20.8-13-3.2-2-5.6-3.7-7.3-5.1-1.5-1.3-2.9-2.9-4.3-4.6m25.3-38.8c-4.4-1-9.3-2.5-14.5-4.6-3.3-1.3-8-3.4-14-6.2-1.7-.8-3.1-1.3-4-1.5-.5-.1-.9-.1-1.3 0-.5.2-.8.4-.8.8-.2.6.2 1.2 1 1.9 2.3 1.7 5.8 3.7 10.3 5.8 2 1 4.5 2.2 7.5 3.5 3.1 1.4 5.5 2.3 7.3 2.5 2.2.4 5.3.4 9.2 0 .4 0 .7-.1.9-.3.2-.2.2-.4.2-.7-.1-.2-.2-.5-.4-.6-.3-.2-.8-.4-1.4-.6m367.3 347.8c0 .4.1.8.2 1.1.1.3.4.7.8 1.2.3.3.7.9 1.1 1.6 1.3 1.2 2.8 2.5 4.5 4 1.7 1.5 2.9 2.5 3.6 3 .7.5 1.6 1.1 2.7 1.7 1 .7 1.7 1.2 2.2 1.5.4.3 1.3.9 2.6 1.7 1.3.8 2.2 1.3 2.5 1.5.4.3.6.5.8.5.6.5 1.1.9 1.5 1.2.3.2.7.4 1 .6l1.3 1c.4.2.9.5 1.6.7.4.2.8.3 1 .3.2.1.3.1.5.1.4 0 .6-.3.8-.8.1-.3.1-.5.1-.8 0-.3-.2-1-.6-2.1 0-.1 0-.2-.1-.3.1-.1.1-.3 0-.5-.1-.5-.4-1.1-.9-1.8-2.9-1.5-4.7-2.4-5.2-2.8l-18.4-12.6c-1-.7-1.9-1-2.6-1-.6.3-1 .6-1 1m34.3-128.9c-.3.3-.3.8-.2 1.4.2 1.5.9 3.5 2.1 6.2l6.3 14.3c0 .5.1 1 .4 1.5.1.2.4.7.8 1.5.7 1.2 1.4 2.9 2.1 5 1 3.2 1.5 4.9 1.7 5.3l2.3 5.2.6 2c.2.6.7.9 1.3.9.6.1 1.1-.1 1.4-.7.4-.5.4-1.2.2-2v-.7l-.2-1.3-.1-1.5c-.1-.6-.1-1-.3-1.3l-.4-1-.3-1.2c-.1-.3-.3-.5-.5-.7-.5-1.5-1.3-3.5-2.3-6.3-4.2-10-8.3-18.4-12-25.3-.4-.7-.8-1.2-1.1-1.4-.3-.2-.5-.3-.8-.3-.6 0-.9.2-1 .4m-67.2-132.8c1.2-.8 1.6-1.5 1-2-.5-.5-2.1-.1-4.8 1.4l-5.1 3c-4.6 2.7-8.4 4.9-11.3 6.8-2.3 1.5-6.2 4.2-11.7 8.2-4.9 3.6-8.8 6.3-11.8 8-1.2.6-2 1.3-2.3 1.9-.3.5-.5 1-.5 1.5 0 .6.2 1 .5 1.3.7.7 2 .7 3.8-.3 2.9-1.5 6.1-3.4 9.5-5.7 2.1-1.3 5.1-3.4 9.2-6.2l23.5-17.9m137.8 19.3c-2.2-1.9-3.6-3.1-4-3.5-1-1-2.4-2.6-4-4.7-1.8-2.3-3.1-3.9-4-4.8-.7-.7-1.3-1.2-1.7-1.5-1.9-2.3-3.5-4.1-4.8-5.5-1.1-1.1-2.2-2.1-3.3-2.8-1-.8-1.8-1-2.5-.8-.4.1-.7.4-.8.8s-.2.9-.2 1.3c.1.6.5 1.4 1.3 2.3l5 6.4c4.4 5.8 7.9 10.1 10.5 12.9 4 4.6 8 8.3 12 11.3 1.1.8 1.9 1.2 2.5 1.3h.2c.1 0 .1.1.1.1.4.2.8.2 1.3 0 .4-.2.8-.5 1-1 .6-1.1.7-2.2.2-3.3-.2-.5-.8-1.2-1.7-2.1l-2.9-2.8c-1.9-1.5-3.3-2.8-4.2-3.6m-987.1 800.7c-.5-.2-1.1-.3-1.6-.3-.7.1-1.6.5-2.6 1.3-1.1.9-2.5 2.4-4.2 4.4-.2.3-2.7 3.2-7.3 8.8-2.9 3.5-5.4 6.4-7.5 8.5-1.4 1.5-2.1 2.8-2.1 3.8 0 .6.1 1 .4 1.5 1.7.2 8.8-6.1 21.2-18.9 1.4-1.6 2.4-2.6 3-3.2 1-.9 1.7-1.5 1.8-1.8.3-.5.4-1 .4-1.5 0-.6-.2-1.1-.5-1.6-.2-.4-.5-.8-1-1m37.3 7.7c-.4-.3-.7-.5-1-.6-.9-.4-1.7-.4-2.5 0s-1.3 1.1-1.5 2c-.2 1.1.2 2.2 1.2 3.3.4.4 1.4 1.1 2.9 2.1.8.5 2.3 1.7 4.5 3.4l8.1 6.1c4.6.5 4.7-1.4.4-5.8-4.3-4.3-6.9-6.8-7.8-7.4-1.5-1-2.6-1.7-3.3-2.3-.5-.4-.8-.7-1-.8m-21.5-128.2c.4-1 .3-1.9-.3-2.7-.6-.9-1.4-1.3-2.5-1.2-.9.1-1.8.6-2.8 1.5-2.1 1.8-4 4-6 6.7-1.2 1.7-2.8 4.3-4.8 7.7-2 3.5-3.5 6.3-4.5 8.3-1.7 4.5-1.3 6.3 1.3 5.3 4.8-5.8 7.9-9.9 9.3-12.4 1.5-2.7 2.7-4.6 3.6-5.8 1.5-2.1 3-3.8 4.5-5.1 1.2-.9 1.9-1.7 2.2-2.3m-58.8-82.1c-3.8 3.5-7.2 7-10.2 10.6-3.1 3.6-4.2 5.6-3.3 6.1.9.5 2.5-.4 4.8-2.5 2.4-2.1 9.7-8.3 22.1-18.5 11.4-9.5 19.9-16.6 25.5-21.5 1.9-1.6 2.5-3.1 2-4.4-.3-.6-.8-1-1.5-1.3-.7-.3-1.4-.3-2-.1-.9.3-2 1-3.4 2.3-3.4 3.1-9.1 8-17.2 14.7-7.5 6.2-13.2 11.1-16.8 14.6m-386.2-360.7c-.5.5-1 1.4-1.6 2.6-2 3.9-5.5 9.5-10.6 16.9-5.4 7.7-8.6 12.2-9.5 13.5-.9 1.3-1.7 3-2.3 5.3-.6 2.2.8 1.8 4.2-1.2 9-10.5 14.2-16.8 15.6-18.9 3.5-5.2 6.5-10 9-14.3.6-1.2.9-2 .9-2.5 0-.7-.3-1.3-.9-1.9-.6-.5-1.3-.8-2-.8-1.1-.1-2 .3-2.8 1.3m-25-93.5c2.8-3.7 3.1-5.2.8-4.3-2.2.8-4 1.8-5.3 2.8-1.3 1.1-5.7 4.6-13.3 10.7-7.3 5.7-12.8 9.8-16.8 12.1-1.2.7-2.1 1.3-2.6 1.9-.9.9-1.3 1.8-1.3 2.8.1.8.4 1.4 1 2s1.3.8 2.1.7c.6 0 1.4-.4 2.6-1.1 4.3-2.9 9-6.3 14.1-10.3 2.3-1.7 8.5-7.4 18.7-17.3m-78.9-131.7c-.2.2-.4.3-.6.5-9.6 6.6-17 11.7-22.4 15.5-5.3 3.7-9 6-10.9 6.9-1.4.7-2.3 1.1-2.7 1.4-1 .7-1.5 1.4-1.7 2.3-.1.7 0 1.3.4 1.9.3.6.8 1 1.4 1.3.8.3 1.9.1 3.3-.4 1.8-.6 3.7-1.6 5.8-3 .5-.3 2.3-1.6 5.3-3.9 17.2-14 24.6-21.5 22.1-22.5m255.6-127.1c.8-1.1 1.2-2.1 1.3-2.9.1-1.1-.3-2-1.3-2.7-.9-.6-1.9-.7-3-.2-.6.3-3.7 5.1-9.3 14.5-5.6 9.4-9.5 18.6-11.6 27.7-2.1 9.1-1.5 12.3 1.8 9.4 3.6-9.1 6.5-16 8.7-20.9 4.3-10 8.8-18.3 13.4-24.9m17.1-3.4c-.1-.9-.4-1.6-.8-2.1-.5-.6-1.1-.9-1.9-1-.8-.1-1.5.1-2 .5-1 .8-1.5 2.2-1.3 4.2.1 1.6.5 3.9 1.3 6.8 2.8 10 5.1 17.8 7.2 23.5 2 5.7 4.4 9.8 7.1 12.2.5.4 1.2.3 2.2-.4-.3-1.2-.6-2.3-.8-3.1-.6-2.2-1.2-4.2-1.8-6.1-2.9-9.1-5.7-18.5-8.3-28.3-.4-1.9-.7-3.1-.8-3.8 0-1.1-.1-1.9-.1-2.4m47.4 27.9c.8.3 1.7.3 2.6-.2 1-.4 1.4-.8 1.1-1.4-.3-.6-1-1.3-2.1-2.1-9.5-6.4-18.2-16.5-26-30.3-1.1-1.8-2.1-2.8-3-3-.7-.1-1.3 0-1.9.3-.6.3-1.1.8-1.3 1.5-.4 1-.1 2.4.8 4.2 1.9 3.6 5.1 8.3 9.7 14.1 4.6 5.8 8.8 10.1 12.8 12.7 4.1 2.5 6.5 3.9 7.3 4.2m-126.6-205.2c-3.9.9-7.8 2.3-11.5 4.3-3.9 2.1-6.8 3.6-8.7 4.5-1.3.6-2.1 1.2-2.5 1.8-.5.7-.6 1.6-.3 2.5.3.9.9 1.6 1.7 1.9 1.2.4 2.8 0 4.8-1.2 9.1-5.2 17.5-9.3 25.1-12.3 3.5-1.4 5.8-2.3 6.9-2.8 1.2-.5 2.1-1.1 2.6-1.8-8.6 1.2-14.6 2.2-18.1 3.1m-215.6 97.1c-2.1-.8-3.6-1-4.6-.5-.6.3-1.1.8-1.3 1.4-.3.7-.3 1.4 0 2 .4 1.2 1.8 2.1 4 2.8 6.6 2.1 16.6 5 30.1 8.5l6.8 1.8c.8.2 1.4.3 2 .3 1.2-3.1-6.7-7.2-23.5-12.3-6.2-1.5-10.6-2.8-13.5-4M838 1349.1c.3 1 1.3 2 3 3.2 3.4 2.3 8.9 6.5 16.3 12.6 6.9 5.6 13 9.2 18.5 10.8-1.9-3.3-4.7-6.5-8.5-9.8-12.4-10.5-20.4-16.9-24-19.3-1.2-.8-2.3-1.2-3.1-1.2-.8.1-1.4.5-1.9 1.3-.4.8-.5 1.6-.3 2.4m1376.3 233.6c-.4.1-.8.3-1.1.6-.3.4-.4.8-.4 1.3 0 .4.3.9.8 1.5 1.7 2.5 3.8 4.9 6.3 7 .7.6 1.4 1.1 2 1.5.6.3 1.1.5 1.4.6.6.1 1.1-.1 1.4-.4.5-.5.6-1.2.3-2-.1-.4-.5-1-1.2-1.7-1.6-1.8-3.1-3.3-4.4-4.6-1.3-1.4-2.3-2.3-3.1-2.9-.8-.6-1.4-.9-2-.9m40.4-78.4c-1.4-1.2-2.4-1.9-3.2-2.2-.7-.3-1.1-.3-1.1-.2l-2.5.3c-1.1.1-2.9.4-5.5.8-9.2 1.5-14.6 2.5-16.3 2.8-6.1 1.3-11.3 3-15.6 5.1-.7.3-1.1.7-1.3 1.1-.1.4 0 .7.3 1 .2.3.5.5.9.6.5.1 1.2.1 2.2-.2 13-3.5 23.8-5.1 32.5-4.8 8.6.3 12.7-.1 12.3-1.2-.5-.9-1.4-2-2.7-3.1m-88 75.8c-.6-.2-1-.2-1.4-.1-.5.2-.9.5-1.3.8-.3.4-.4.8-.3 1.3 0 .4.1.8.3 1.3.1.3.3.7.5 1.2l.6 2.1c.1.4.4 1.1.8 1.9.4.8.7 1.5.8 1.9.2.5.3 1.4.5 2.5.1.6.3 1.4.6 2.5.1.5.3 1.3.5 2.3.2 1 .6 2.5 1.2 4.4.6 2.6 1.3 4.4 2 5.3.8 0 1.3-1.3 1.4-4 .1-2.7.2-4.6.2-5.7 0-1.1 0-2.4-.1-3.9s-.3-3.4-.7-5.5c-.4-2.5-1.2-4.7-2.5-6.5-.4-.6-.8-1.1-1.3-1.3-.4-.3-.8-.5-1.1-.5-.3-.1-.5-.1-.7 0m-37.4-105.8c5.6-1.4 9.6-2.3 11.8-2.7 2.8-.6 4.7-1 5.7-1.4 1-.4 1.8-.8 2.3-1.3l.3-.3c-7.5-.6-12.9-.5-16.3.2-1.8.5-7.3 1.9-16.5 4.3-1 .3-1.7.6-2 1.1-.3.4-.3.8-.3 1.3.1.5.3.9.8 1.2.5.3 1.3.3 2.4.1 2.8-.5 6.8-1.3 11.8-2.5m-130.7 96.5c.3.3.7.5 1.1.4.1 0 .5-.2 1.1-.5 1.6-1.3 3.6-2.5 6-3.6 1.3-.6 3.4-1.5 6.4-2.8l28-11.2c6.8-4.2 12.1-7.4 16-9.6-3.5 0-7.5.7-11.8 2.1-1.6.5-5.8 2.1-12.4 4.8-7.4 2.9-12.9 5.1-16.6 6.7-6.3 2.7-11.5 5.5-15.5 8.4-1.9 1.4-2.8 2.8-2.8 4.1 0 .5.2.9.5 1.2m14.6-38.6c.5-1.3 3-3.9 7.5-7.8 4.4-3.8 7.6-6.6 9.4-8.6 1.8-1.9 3.1-3.1 3.9-3.6.7-.4 1.1-.8 1.3-1.1.4-.5.4-1 0-1.5s-1.1-.5-2.2 0l-3.5 1.5c-1.2.4-2.3.9-3.2 1.4-1.4.7-2.9 1.8-4.7 3.1-5.8 4.4-11.2 9.3-16.3 14.6-1.7 1.7-2.9 3.3-3.6 4.5-.7 1.3-1 2.5-1 3.6-.1 1.4.4 2.5 1.4 3.4.3.2.7.4 1.1.4.4 0 1.6-1.1 3.5-3.5s4-4.5 6.4-6.4m52.5-97.4c4-6.1 5.7-9.9 5.1-11.6-1-.7-1.8-.4-2.5.8-.7 1.3-2.1 3.1-4 5.5-2 2.4-3.9 4.6-5.8 6.7-1.8 2.1-3.2 3.5-4 4.1-.8.6-1.4 1.3-1.8 2-.4.7-.6 1.4-.5 1.9.1.6.6 1 1.5 1.2.9.3 1.7.4 2.5.3.7-.1 1.4-.4 2.3-1 .7-.6 3.2-3.9 7.2-9.9m44.6-78.2c-.5.1-.8.1-1 .2-.7.2-1.5.6-2.4 1.3-4.1 2.9-9.9 7.8-17.4 14.6-1.8 1.6-3.1 2.8-3.9 3.8-.7.8-1.2 1.5-1.5 2.1-.3.5-.3 1-.3 1.4.2.6.7 1 1.5 1.3.8.2 1.5.1 2-.5.6-.5 4.8-4.5 12.6-12l8.9-7.6c1.1-1 1.9-2 2.3-2.8.5-.9.6-1.4.3-1.5l-1.1-.3M1719 1566.7c.2.7.6 1.6 1.3 2.6 1.4 2.2 2.9 4.2 4.5 5.9 2.3 2.7 4.5 4.4 6.5 5 2 .6 3.3 1 4 1.2.7.2.4-.5-.9-2.1-1.3-1.5-2.5-3-3.7-4.4l-4.9-6c-1.2-1.5-2-2.7-2.5-3.8-.5-.9-.8-1.5-1-1.7-.4-.3-.9-.4-1.4-.3-.5.1-.9.3-1.3.7-.6.7-.8 1.7-.6 2.9m-88.9 3.1c1.4-1.9 2.3-3.4 2.7-4.7.1-.4.1-.7 0-.9-.3-.4-.8-.4-1.5 0-.9.6-2.3 2-4.2 4l-17.6 20.3c-4.4 5.1-7.8 8.8-10.2 11.1-3.4 3.4-5.3 5.3-5.7 5.8-2 2.3-3.5 4.5-4.3 6.7 2.2-1 4.6-2.5 7.2-4.7 4.4-3.6 9.8-9.1 16.3-16.5 7.4-8.4 13.2-15.5 17.3-21.1z"/></svg>