<svg xmlns="http://www.w3.org/2000/svg" id="bodyhair" viewBox="0 0 3000 3000"><path id="cl1" d="M1302.5 2517.8c.1-.6 0-1.1-.1-1.4-.2-.4-.5-.6-1-.6s-.9.2-1.3.6c-.5.4-.7 1-.9 1.6-.3.8-.2 1.7.4 2.7.2.6.6 1.2 1 1.9 1.5 2 3.6 3.9 6.3 5.6.7.4 2.1 1.2 4.4 2.4 1.8 1 3.2 1.8 4.2 2.6 1.3 1 2.3 1.6 3 1.8.6.2 1.1.2 1.8 0 .6-.2 1-.5 1.3-1 .5-.8.4-1.7-.4-2.7-.4-.5-1.2-1.1-2.3-1.7l-1.2-.6c-.3-.3-.9-.6-1.8-1.1-.5-.4-1.1-.8-1.8-1.3l-9.2-6.7c-.5-.4-1-.6-1.4-.5h-.3l-.2-.2c-.2-.6-.4-1-.5-1.4m29.3-49.5c1.3 1.3 2.4 2.3 3.4 3 2.1 1.6 4.9 2.6 8.3 3.2-.4-.3-.9-.7-1.4-1.2-.5-.6-1-1-1.3-1.3-.7-.8-2-1.9-4-3.4l-8.8-6.6c-.3-.3-.7-.4-1-.5-.4-.1-.7 0-.9.3-.3.4-.1 1 .6 1.7l5.1 4.8m-12.2-34.5c-.3-.4-.8-.9-1.6-1.4-3-1.8-5.4-2.9-7.2-3.4-1.6-.5-2.5-.7-2.6-.8-.9-.6-1.7-1-2.2-1.3-.9-.5-1.8-.6-2.5-.3-.4.1-.7.4-1 .8-.2.4-.3.8 0 1.3.1.3.4.5.8.7.2.1.6.3 1.1.5.6.2 1.5.7 2.7 1.5.5.3 1.1.5 1.8.7.4.1 1 .3 1.8.5l7 1.6c1 0 1.6-.1 1.9-.4m498.1 155.1c-2.5-.6-4.4-1-5.7-1.4-7-1.8-13.3-5-18.8-9.6-1-.8-1.7-.9-2.2-.5-.4.4-.5 1-.2 1.8 1.1 3.1 4 5.9 8.6 8.4 7.9 4.3 15.2 5.7 21.7 4.4.9-.1 1.6-.4 1.9-.9-1.4-.9-3.2-1.6-5.3-2.2m-44-5.2c-.9-.9-1.5-1.7-1.7-2.3-.1-.4-.2-.7-.3-.9-.1-.3-.3-.6-.5-.8-.5-.4-1-.4-1.6-.1-.4.2-.8.6-1.1 1.3-.6 1.7-.2 3.4 1.2 5.1.5.6 1.1 1.3 1.9 2 .5.4 1.2 1 2.1 1.8 1.6 1.5 2.7 2.3 3 2.6 1.9 1.3 4.1 1.9 6.5 1.6-.1-.9-.5-1.8-1.2-2.6-.5-.5-1.2-1.2-2.3-2-1.9-1.9-4-3.7-6-5.7m-71-24.7c-.7 1.3-.7 2.3-.1 2.9 1.4-.4 2.8-1.3 4.1-2.7.7-.8 1.8-2.2 3.1-4.2 3-4.6 6.2-9 9.6-13.2 1-1.3 1.2-2.2.4-2.8-.5-.3-1.2-.2-2.1.3-6.1 4.2-11.2 10.7-15 19.7m-16.9-41.9c-2 2.6-3.2 4.6-3.6 6.2.9.4 1.9.4 3 0 .9-.4 1.8-1 2.7-1.8 2-1.8 4.3-4.4 6.7-7.8 3.8-5.2 5.8-8 6-8.3 1-1.2 1.4-2.2 1.1-3-.2-.5-.6-.8-1.2-.9-.5-.2-1.1-.2-1.6 0-.6.2-1.4.9-2.4 2.1l-10.7 13.5M1671 2464c1.5.8 3.2.9 5.2.3 1.2-.4 2.8-1.2 4.8-2.5l7.3-4.7c2.1-1.3 3.8-2.3 5.1-2.9 1.5-.7 2.2-1.4 2.3-2.2 0-.5-.2-.9-.6-1.3-.4-.4-.8-.6-1.4-.7-1.1-.1-2.5.3-4.2 1.4l-10.3 6.3c-2.6 1.6-4.4 2.9-5.4 4-.9.9-1.6 1.5-1.9 1.6-.6.2-.9.4-.9.7m88.2 6.1c.2-.5.2-.9 0-1.2-.3-.5-1-.5-2 .1-2.4 1.3-5.4 3.5-9.1 6.5-4.2 3.4-7.2 5.7-9 6.9-.5.3-.7.6-.8.9 0 .3.2.6.6.8 1.2.9 2.6 1 4.3.3 1-.4 2.3-1.2 3.7-2.4l7.8-6.3c1.2-1 2.2-1.8 2.8-2.5.8-1 1.4-2 1.7-3.1m46.6 60.9c0 .4.4.8 1.1 1.3 2 1.1 4.2 2.1 6.5 3 6.1 2.3 11.9 3.1 17.2 2.3 1.9-.3 3-.9 3.3-1.9-.7-.7-1.6-1.1-2.8-1.3-.7-.1-1.8-.2-3.3-.2-6.6 0-13-1.3-19.1-3.8-.8-.3-1.3-.4-1.6-.4-.3 0-.6.1-.8.3-.4.2-.5.5-.5.7m-15.6-10c.1.4.5.9 1 1.5 1.1 1.1 1.8 1.8 2.3 2 .5.3 1.2.6 2.1.8.9.3 1.6.4 2.1.3.6-.1 1-.4 1.4-.7.4-.5.5-.9.3-1.4-.1-.3-.3-.6-.8-1-.4-.3-1.3-.6-2.7-1.1-1.2-.4-2-.9-2.4-1.4-.1-.1-.4-.6-.8-1.5-.1-.4-.3-.7-.5-.9-.3-.3-.6-.4-.9-.1 0 0-.3.6-.9 1.7-.2.8-.3 1.3-.2 1.8m-6.2-91.8c.3-1.1.2-1.8-.3-2.1-.3-.2-.7-.2-1.2 0-.4.2-.7.6-1 1.1-.9 1.4-1.7 3.2-2.3 5.2-.4 1.3-.9 3.2-1.4 5.6-.7 3.4-1 5.9-1 7.6.1 2.9.8 5.3 2.2 7.3.9-1 1.6-2.4 2-4.1.2-.9.3-2.5.5-4.8.3-5.3 1.1-10.6 2.5-15.8m10.5-6.7c-.3.6-.3 1.2 0 1.6.1.2.5.6 1.3 1 2.6 1.4 5.7 3.7 9 7.1 4.4 4.4 7.2 7.1 8.5 8.1 1.3 1.1 2.5 1.8 3.7 2.3.4-1.2.1-2.7-1-4.3-.5-.9-1.3-1.9-2.2-2.9-.4-.4-1.2-1.3-2.5-2.7l-4.9-4.9c-1.6-1.6-2.8-2.7-3.4-3.2-1.3-1.1-2.5-2-3.8-2.6-1.4-.7-2.5-.9-3.5-.6-.4.2-.9.5-1.2 1.1m19.5-43.5c-.5-.6-.8-1-.9-1-.4-.4-.7-.5-1.1-.5-.8 0-1.3.3-1.7 1-.4.8-.3 1.8.5 3 .5.7 1.4 1.7 2.8 2.9.8.8 1.8 2.2 3 4 .8 1 1.5 1.4 2.1 1.3.6-.2.9-.6.9-1.4 0-.4-.1-1-.4-1.8-1-2.2-1.8-3.7-2.6-4.6-.2-.3-.7-.8-1.3-1.4-.6-.6-1-1.1-1.3-1.5m-23.4-65.5c.2.5.7.9 1.5 1.2 5.4 2.5 13.1 5.4 23.3 8.7 1.6.5 2.5.3 2.7-.6.2-.6-.1-1.2-.9-1.8-1.3-1.1-3-2.1-5.1-3-1-.4-2.8-1.1-5.6-2-3.9-1.3-7.6-2.7-11-4.2-1.4-.6-2.5-.9-3.3-.8-.5.1-1 .4-1.4.9-.3.6-.4 1.1-.2 1.6m-2.8-63.5c.9.1 2.3.6 4 1.5l8.9 4.4c5.2 2.5 9.2 4.6 11.9 6.3 3.2 1.9 5.4 3.1 6.5 3.6 1.2.5 3.1 1.2 5.7 2.1 1 .4 2.3 1.2 4.2 2.2 0-.4-.3-.8-.7-1.3-.6-.4-1-.7-1.3-1-.4-.3-.8-.8-1.3-1.4-.6-.8-1-1.3-1.1-1.4-.6-.7-1.6-1.5-3.1-2.5-3.7-2.5-9.2-5.6-16.5-9.3-5.4-2.7-9.8-4.8-13.2-6.2-1.7-.7-3-1-3.9-1.1-1.1-.1-2 .1-2.7.6-.4.3-.6.7-.8 1.1-.1.5-.1 1 .1 1.4.3.4.7.7 1.4.9.5 0 1.1.1 1.9.1m-49.3 94.4c-.3.7-.4 1.5 0 2.5.5 1.7 1.8 3.4 3.9 5.1 3.8 3.3 8.2 5.9 13.3 7.8 1.1.4 1.9.4 2.4 0 .3-.2.4-.5.5-.9 0-.4 0-.8-.2-1.1-.3-.5-.8-1-1.5-1.5-1-.6-2.3-1.4-4-2.4-2-1.1-3.4-1.8-4.1-2.3-3.2-1.9-5.4-4-6.6-6.4-.2-.5-.4-.8-.6-1.1-.2-.4-.5-.6-.8-.8-.4-.1-.8-.1-1.2.1-.6.3-.9.6-1.1 1m-19.7-47c-1.6-2.3-2.6-3.7-3-4.2-.9-.9-1.5-1.6-1.8-2.1-.4-.6-.7-1-.8-1.1-.3-.2-.7-.1-1.1.1-.4.2-.6.4-.8.8-.3.8-.1 1.8.6 3.1 2.2 4 4.5 7.1 6.8 9.3 1.2 1.2 2.3 1.8 3.3 1.8.7 0 1.3-.2 1.8-.7s.7-1.1.5-1.7c-.1-.4-.4-.8-.8-1-.1-.1-.5-.4-1.2-.8-1.1-.6-2.3-1.9-3.5-3.5m-22.4 74.6c-.3 1-.2 1.8.5 2.4.7.6 1.6.7 2.5.1.6-.3 1.2-1 1.9-2 1.8-2.7 3.1-4.7 3.7-6 .8-1.8 1.6-4.5 2.3-8.2.2-1.1.3-1.9.2-2.5-.2-1-.7-1.6-1.6-1.8-.8-.1-1.5.2-2.1 1.1-.2.3-.5 1.1-.8 2.4-1.1 4.9-2.8 9-5.2 12.1-.7 1.1-1.2 1.9-1.4 2.4m-59.2-.1c.5-.1 1-.5 1.6-1.1 5-4.7 12.3-12.1 21.7-22.1 3.4-3.6 6-6.5 7.8-8.8 1.5-1.9 2.5-3.7 3-5.3.2-.6.2-1.1 0-1.5s-.6-.6-1.1-.7-1 0-1.5.2c-1.1.4-2.2 1.3-3.3 2.5-.2.3-1.1 1.4-2.5 3.4s-3.7 4.5-6.8 7.7c-4.9 5.1-8.4 8.7-10.4 10.9-3.8 4.2-7 8-9.6 11.6-.9 1.2-1.1 2.2-.5 2.9.2.5.8.6 1.6.3m-301.8-22.1c-.2-.3-.4-.5-.7-.6-.3-.2-.6-.2-.8-.1-.5.2-.8.8-.9 1.8l-.4 5.4c-.3 4.3-.4 7.7-.1 10 .4 3.6 1.7 5.8 3.9 6.7.8.3 1.4.2 1.8-.1.4-.4.5-.9.3-1.5-.1-.4-.3-.9-.8-1.6-.8-1.4-1.3-3.5-1.5-6.4-.4-5.3-.6-9.2-.6-11.8 0-1-.1-1.5-.2-1.8m21.2-46.1c-.6-.1-1 .2-1.3.9-.7 1.6-.3 3.7 1.4 6.2 3.2 5.1 7.4 9.4 12.5 13 5.1 3.5 10.6 5.9 16.5 7-.4-1.9-1.6-3.6-3.7-5-.7-.5-1.6-1-2.7-1.5-1.3-.6-2.3-1-2.9-1.4-4-1.9-7.6-4.5-10.9-7.6-3.2-3.1-5.9-6.7-8.1-10.6-.2-.6-.5-.9-.8-1m115.4-485.6c-.4-.5-1.2-1.1-2.3-1.8l-4.3-2.7c-.7-.5-1.4-.7-1.9-.8-.3-.1-.6 0-.9.2-.3.2-.6.4-.7.7-.2.5 0 1 .3 1.5-.2.4-.2.9.1 1.3l.5.8.3.7c.2.8.7 1.6 1.6 2.5 1.5 1.2 3.1 2 4.9 2.2 1.4.2 2.4 0 2.9-.8.4-.5.5-1.2.4-2-.2-.6-.4-1.2-.9-1.8m3.7-18.4c-.8.3-1.4.9-1.7 1.8 0 .2-.1.8-.2 1.8-.1.5-.2 1.3-.3 2.4-.1.9.2 1.7.7 2.3.4.4.9.5 1.5.5s1.1-.3 1.4-.7c.3-.3.5-1 .7-1.9l.5-2.8c.3-1.2.2-2.1-.3-2.8-.2-.3-.6-.6-1-.7-.5-.1-1-.1-1.3.1m-12.9 1.9c-.7.1-1.2.4-1.5 1-.3.4-.5 1-.5 1.9v2.1c.1.7.2 1.2.3 1.5.3.5.8.9 1.5 1.1.6.1 1 .1 1.5 0 .6-.2 1.1-.7 1.4-1.5.2-.7.3-1.4.3-2 0-.9 0-1.6-.1-2-.2-.7-.6-1.3-1-1.7-.6-.4-1.2-.5-1.9-.4m130.2 13.7c-.2.2-.3.4-.5.6-.5-.2-.9-.2-1.3 0s-.7.5-.9.9c-.3.5-.3 1.1-.1 1.7.2.5.6 1 1.1 1.3.5.2 1 .3 1.4.2.7-.2 1.1-.7 1.3-1.5v-.8l.3-.5c.1-.1.1-.5.2-1.2.1-.5 0-.8-.3-1-.2-.1-.4-.2-.7 0-.1-.1-.3.1-.5.3m-243.7-9.7c0 .1.1.3.1.4l.2.3.6.6h.1c.1.2.3.3.5.3 0 .1.1.1.1.1.3.4.7.4 1.1.1.2-.1.4-.3.5-.5.1-.3.2-.5.3-.7.4-.3.6-.6.8-.9.3-.5.2-1.1-.1-1.7-.3-.5-.8-.8-1.4-.8l-1.4.3c-.5.1-.9.3-1.1.4-.4.3-.6.7-.5 1.2-.1.5 0 .7.2.9m36.6-2.9c.5.1.9.2 1.2.3 1.5.2 2.8.2 3.8 0h1.7c.6 0 1 0 1.2-.1.2-.1.4-.2.4-.4.1-.2 0-.4-.1-.5l-.5-.3h-.1c0-.1-.1-.2-.3-.3l-.5-.1h-.2c-.4-.5-1.3-1-2.7-1.6-3.2-1.1-6.7-2.4-10.5-4.1-2-.9-3.4-1.7-4.4-2.4-1.6-1.2-2.6-2.5-3-3.9-.3-.8-.4-1.2-.5-1.3-.2-.5-.5-.8-1-1-.4-.1-.7 0-1.1.3-.3.2-.6.6-.8 1-.4.8-.4 1.9 0 3.3.3 1.1.8 2.1 1.5 3.1.6.8 1.3 1.5 2 2 .4.3 1.2.7 2.4 1.3.7.4 1.7.9 3 1.7.6.3 2 .9 4.3 1.8 1.1.4 2.1.7 2.9.9 0 .1-.1.1-.2.2s-.3.3-.6.4c-.2.2-.4.4-.7.8l-.1.1c-.2.2-.4.5-.6 1-.2.3-.3.5-.3.8 0 .5.3.9.9 1 .3.1.6 0 .8-.1h.5c.5-.1.9-.6 1.1-1.4l.5-1.6v-.9m19.6 3.8c-.2-.2-.4-.4-.7-.4 0 0 0 .1-.1.1-.4 0-.7.2-.9.7v.1c-.2-.1-.4-.2-.5-.3.1.1 0 .1-.3.1s-.5.2-.7.5c-.1.3.1.6.5 1.2.1.2.2.4.3.5.3.6.6 1 .9 1.2l.1.1c.4.6.8.9 1.3 1.1.4.2.8.2 1.3 0 .1-.1.2-.2.2-.3.4-.1.7-.3.8-.7.1-.3.1-.6 0-1v-.1c0-.1 0-.3-.1-.4-.1-.5-.4-1-.9-1.3l-.8-.6-.4-.5m-2.2-8c.4.2.8.3 1 .3.4 0 .7-.1 1.1-.3.4-.2.6-.5.8-.9-.3-.5-.9-.9-1.8-1.3-1.8-.9-3.3-1.5-4.5-1.8-1-.7-2-1.5-3.1-2.2-.9-.6-1.6-1.1-2.2-1.5-.6-.7-1-1.2-1.1-1.5-.2-.6-.4-1-.6-1.3-.2-.5-.5-.8-.8-.9-.3-.1-.6-.1-1 .1-.3.2-.6.4-.8.7-.3.6-.3 1.2 0 2 .3 1 .9 2 1.8 3.2 1.1 1.4 2.2 2.5 3.3 3.4 1.5 1.1 2.9 1.6 4.4 1.6h.4c.3.2.6.3.8.5.9.1 1.7.1 2.3-.1m38.4 7.5c-.4-.6-1.4-1.7-2.9-3.3-.7-.8-1.3-1.4-1.8-1.7l-1.5-1.2c-.4-.3-.8-.5-1.2-.6-.3-.1-.6-.1-.8 0-.2-.3-.4-.4-.4-.5-.3-.7-.6-1.1-.8-1.4l-.8-.8v-.8c-.1-1.9-.3-3.5-.7-4.8-.3-.9-.6-1.5-1.1-1.7-.3-.1-.6-.1-1 0-.3.1-.6.4-.8.7-.3.4-.5 1-.7 1.9-.3 2.4-.5 5.7-.6 9.8-.1 1.3 0 2.3.3 3 .1.3.3.7.6 1.3.2.5.3 1.3.2 2.3 0 1.1 0 1.9.2 2.4.1.2.3.8.7 1.5.4 1.1.6 1.7.6 1.8.4.7.9 1 1.5 1 .5 0 .9-.3 1.2-.8s.6-1.1.7-1.9c.2 0 .4-.1.5-.3.2-.2.3-.4.3-.8.2-1.7.4-4.2.5-7.5 2.3 2 4.5 4.2 6.5 6.6.1.1.2.3.3.5l1.6 1.9.3.3c.4.6.8 1.1 1.2 1.6 0 .1.1.1.1.2.3.4.5.7.8 1l-.1.3c-.2 0-.4.1-.5.2-.4.3-.7.4-.8.5h-.2c-.4-.2-.8-.3-1.1-.3-.4 0-1.1.1-2.2.4s-2.5.5-4.1.6h-4.2c-1.3 0-2.3-.1-2.9-.2-1.1-.2-1.9-.6-2.6-1.3-.4-.6-.8-1-1-1.1-.6-.4-1.3-.5-2 0-.5.3-.9.9-1 1.7 0 .8.2 1.6.8 2.4.3.5.7.9 1.2 1.4.6.5 1.1.8 1.4 1 .4.3.9.5 1.5.8.9.3 2.6.5 4.9.6h5.3c1.7 0 2.9-.2 3.7-.6.3-.2.6-.3.8-.4.6.1 1.2.1 1.8 0h.1c.6.1 1.1 0 1.5-.2.2-.1.3-.2.4-.3 1.2-.1 2-.2 2.3-.3.6-.3.9-.6 1-1v-.3c.7-.2 1.2-.5 1.6-.9.6-.4.9-1 1.1-1.8v-.1c-.5-.3-1.3-.2-2.3.2v-.1l.8-3.5c.1-.6.5-1.5 1-2.6.9-2 1.7-3.6 2.5-5 .1.1.1.2.2.3.3.3.5.4.8.3l.5-.1c.6-.3 1-.9 1-1.6v-.5c-.2-.3-.4-.4-.8-.4h-.3c.5-.7 1-1.4 1.6-2.2 0 0 .1-.1.1-.2.7-.6 1.1-1.1 1.4-1.5.4-.9.8-1.5 1.2-1.9.4-.4.7-.8.8-1.1.3-.6.2-1-.2-1.3-.3-.2-.6-.1-.9.1-.2.1-.4.3-.7.6-.3-.2-.7-.2-1.1 0-.2.1-.6.4-1.3 1-.4.4-1.1.9-2.1 1.6-.8.6-1.7 1.6-2.7 3-.2.2-.3.4-.5.6l-.3-.5c-.2-.2-.4-.3-.6-.3-.3 0-.5.1-.7.4-.2.4-.3.8-.3 1.2l.2 1c0 .1.1.3 0 .5-.2.3-.3.6-.4.8l-1.5 3c-.5 1.3-.9 2.3-1.2 2.9-.9-1.2-1.6-2.1-2.1-2.8-.3-.3-.5-.6-.8-1l-1-1.7m96.4-32.1c0 .1.1.2.3.3-.1.1-.2.2-.3.4-.3.6-.3 1 .2 1.5.1.2.3.3.5.3.1.6.2 1.3.4 2 .2.6.3 1.1.5 1.5l-1.2.7c-.8.5-1.5 1.2-2.3 2.1-.2.3-.9 1.1-2.1 2.5-1.6 1.7-2.7 2.9-3.3 3.7h-.1c-.1 0-.2.1-.3.1-.4-.2-.8-.3-1.1-.4l-.3-.1v-.1c-.1-.2-.2-.3-.3-.4l-1.5-1.3c-.4-.6-.7-1-1-1.3-.7-.4-1.3-.5-1.9-.1-.4.3-.6.8-.6 1.3s.1 1 .4 1.5c.2.4.6 1.1 1.1 2 .5.8.9 1.4 1.1 1.9l.9 2.4c0 .1.1.2.1.3 0 .1-.1.2-.1.3l-.9 1.8c-1.1.2-2.2.4-3.4.7h-.3c-.2-.1-.4-.2-.7-.3l-5-2.2c-.7-.3-1.5-.6-2.2-.9 1.2-1.8 2.1-3.3 2.6-4.6.3-.7.6-1.5.8-2.3.4-.5.8-.9 1.2-1.3.5-.5.7-.9.8-1.3.1-.4 0-.8-.3-1.2-.3-.3-.6-.6-1-.7-.8-.2-1.6 0-2.4.6-.4.3-1 1-1.6 1.9-1.8 2.5-3.3 4.8-4.7 7-1.3-.5-2.3-.9-3.3-1.3-2.9-.9-5-1.7-6.5-2.2-2.6-.9-4.7-1.7-6.3-2.5-.9-.5-1.7-.7-2.2-.8-.4-.1-.8 0-1.2.2-.4.2-.7.4-.8.8-.3.6-.2 1.2.3 1.8.4.5.9.9 1.5 1.2 2.4 1.5 5.8 3 10.1 4.6 2.2.8 4.1 1.5 5.6 2.1-.3.4-.7.9-1.1 1.5-.1.1-.1.2-.2.3-.3.4-.7.8-1.2 1.3-1.5 1.6-2.5 2.7-3 3.5-.3.4-.6.9-1.1 1.5-1.4 1.6-2.4 2.9-3.1 3.8-.1.2-.2.3-.4.5-.6.7-1.2 1.7-1.8 2.9-.7.6-1.3 1.2-2 1.8-.6-.4-1.1-.7-1.4-.9-.7-.5-1.3-1-1.6-1.5-.3-.5-.6-1.3-.8-2.3.1 0 .1-.1.2-.1.7-.5 1.5-1.1 2.4-1.7 1-.6.3-1-2-1.2-.3 0-.7-.1-1-.1l-.5-3.8c-.1-1.2-.5-1.9-1-2.2-.4-.2-.8-.3-1.3-.2s-.9.4-1.2.8c-.4.6-.7 1.5-.8 2.7 0 .6-.1 1.3 0 2.3h-.5c-.5 0-.8-.1-1.2-.3-.4-.4-.7-.6-.9-.8-.3-.2-.7-.3-1-.2-.4 0-.7.2-1 .5-.5.5-.7 1.2-.6 2 .1.6.6 1.2 1.3 1.8.5.4 1.5.7 2.8 1l1.4.3c0 .6.1 1.1.2 1.5.3 1.6.9 2.9 1.7 3.9.8 1 2 1.9 3.8 2.8 1.1.5 1.9.8 2.4.9h.5l.3.3c.4.2.8.2 1.2-.1.2-.1.5-.4.9-.8.8-1 1.4-1.8 1.7-2.3l.5-1c.3-.2.7-.6 1.2-1.2.8-.7 1.4-1.2 1.8-1.6.3-.3.8-.9 1.5-1.8.8-1.1 2.2-2.8 4.1-4.9.5-.5.9-1 1.3-1.5l1-1.5c.5-.9 1-1.7 1.5-2.5l1.3-1.4s0-.1.1-.1c.2.1.3.1.4.2l2 1v.1c0 .6.1 1.2.4 1.8.1.3.4.6.7 1 .1.2.3.4.4.6-2.7 3.5-5.4 7.4-8.1 11.6-.8.9-1.5 1.6-2.2 2.2-1.1 1-1.8 1.8-2.1 2.3-.2.3-.3.6-.5 1h-.2c-.2.2-.3.4-.4.8l-.7 2.5c-.1.5-.2.8-.1 1.1.1.7.5 1.1 1.3 1.3.6.1 1.1-.2 1.6-.7 0 0 .3-.3.7-1 .1 0 .2-.1.3-.2.2 0 .3 0 .5-.1.3-.1.6-.4.9-.7.4-.3.6-.5.8-.6.1-.1.1-.2.1-.4.4-.4.8-.9 1.2-1.4.7-.9 2.5-2.9 5.3-6 1.1-1.2 2.6-3 4.6-5.4h.3c.4-.1 1-.2 1.8-.4.8.3 1.8.6 3 1 .7.2 1.6.6 2.8 1.1 1.2.5 2.1.9 2.7 1.1h.1c1.1.5 2.1.8 2.9 1.1 1.5.5 3 .7 4.4.6.9.6 2 1.1 3.3 1.5 2.8 1 5.1 1.5 6.8 1.5l2.1-.1c.3-.1.6-.2 1-.3.7.1 1.5.2 2.6.2.7 0 1.3-.1 1.6-.2.3-.2.6-.5.9-.9.2-.3.4-.5.4-.9.1-.4 0-.6-.3-.8-.3-.2-.6-.2-.9 0-.1 0-.3.2-.8.5-.4.1-.8.2-1.2.2-.8.1-1.7.2-2.7.3-.4-.3-.9-.6-1.5-.8-1.5-.3-2.6-.6-3.3-.8-1-.3-2.2-.7-3.5-1.3-.1-.1-.3-.2-.5-.3l-1.9-1.3c-.5-.5-1.2-1.1-2-1.8l-1.7-1.4c-1-.9-2.3-2.4-4-4.5-.3-.4-.6-.8-1-1.1.1-.2.1-.3.2-.5.2-.6.5-1.2.8-1.9.2-.1.5-.2.7-.5.4-.4.6-.9.6-1.5 0-.2 0-.5-.1-.8l1.1-2.3c.6-1.1 1.8-3 3.7-5.5 1.4-1.8 2.5-3.4 3.3-4.8.3-.7.6-1.2 1-1.5.3-.3.5-.5.7-.6.3-.3.4-.5.4-.8.1-.4-.1-.7-.5-1 .2-.7.2-1.3.1-1.8-.1-.3-.3-.7-.6-1 .1-.1.2-.1.3-.2.2-.1.3-.2.4-.3h.4c.2-.1.4-.2.5-.5.1-.3.1-.5 0-.8-.1-.2-.5-.5-1-.8l-1-.3-1.5-.1-.5-.2c-.2-.1-.4-.1-.6-.1-.2.1-.4.2-.5.4.1-.3.1-.1.2.1m-11.6 29.4c.3.1.6.1.8.1.2.3.4.7.7 1 .3.4.8.9 1.4 1.4 0 .1.1.2.1.4-.1-.1-.2-.1-.3-.2-.7-.3-2-.9-3.8-1.8.3-.3.6-.7.8-1 .1 0 .2.1.3.1m264.9-6s-.1.1-.1.2l-.4.4c-.7.7-1.4 1.3-2.1 1.8-.1 0-.1-.1-.2-.1-.4-.2-1 0-1.8.7l-2.9 2.6c-.9.8-1.4 1.6-1.6 2.2-.2.4-.2.9 0 1.3.2.5.5.8.9.9.3.1.6.1.8 0 .3 0 .6-.1 1-.2h1.3c.5 0 1 0 1.3-.1.5-.1.9-.5 1.4-1l.6-.7c.1 0 .2-.1.3-.1.4-.2.8-.5 1.1-.9.5-.5 1-1 1.3-1.6.2-.1.3-.2.5-.3.2-.2.4-.5.5-1v-.4l.3-.9v-.4l.1-.1c.3-.4.3-.9.3-1.4-.1-.3-.2-.5-.3-.7-.3-.3-.6-.5-1-.4-.2-.2-.4-.3-.7-.3-.2.2-.4.3-.6.5m12.9 9.3v-.4c-.2-.5-.5-.9-1-1.1-.3-.2-.7-.3-1.3-.3-.7.1-1.2.2-1.5.4-.5.2-.9.6-1.1 1.1-.2.4-.2.7 0 1-.1.3-.1.6-.1.9.1.6.4 1.1.9 1.5.4.4.9.7 1.5.9.1.2.2.4.3.5.2.2.7.4 1.3.5 1.3.1 2.5.1 3.5-.1h.1c.2 0 .5.1.8.1.4.1.7.1 1 0 .4-.1.7-.3.8-.6.2-.1.4-.4.4-.8 0-.5-.3-.8-.8-1.1-.2-.1-.5-.2-.8-.3-.1-.1-.3-.2-.5-.3-.1 0-.2-.1-.4-.1 0 0-.1-.1-.1-.2-.3-.5-.8-.8-1.3-1-.6-.1-1.1-.1-1.5-.2.1-.1-.1-.3-.2-.4m16.9-12.3c0-.3-.1-.6-.4-.9-.5-.5-1.1-.7-1.9-.5-.6.1-1.2.5-1.8 1.1-.3.3-.5.6-.7 1v.3c-.2.1-.4.3-.6.5-1.1.9-1.8 1.8-2.1 2.8-.1.3-.2.5-.3.7-.2.4-.4.8-.5 1.3v.4c-.1.1-.1.2-.2.3-.3.2-.5.6-.6 1.2-.4 1.7-.4 3.3 0 4.8.1.5.3 1 .5 1.3.3.4.8.6 1.3.5.3 0 .5-.1.7-.2.7.1 1.3 0 1.8-.5.3-.3.4-.6.5-1 .1-.4 0-.8-.3-1.1-.1-.1-.1-.1-.2-.1.1-.2.2-.4.3-.7.1-.3.1-.5.2-.8.2-.2.3-.4.5-.7l2.2-3.5c.6-.9 1-1.5 1.1-1.9.1-.4.2-.7.2-1l.1-.1.3-.3c.6-.7.7-1.4.3-2.2-.2-.4-.3-.5-.4-.7m-39.5 27c-.1.3-.2.8-.2 1.4 0 .9.2 1.5.5 1.8.2.2.5.3.9.3.3 0 .6-.1.8-.3l.1-.1h.1c.2.1.5.1.7 0 .3 1.1.8 2.1 1.5 3l-.1 1.4c-.1.1-.2.3-.3.4-.2.2-.3.4-.3.6-.3 0-.6 0-.9.1-.5.1-.8.3-1 .6-.1.4.1.7.5 1 .2.1.6.2 1.2.3.2 0 .5.1 1 .3.4.1.8.2 1 .3.6.1 1.1-.1 1.4-.5 0 0 .1-.3.2-.7.4 0 .7-.2 1.1-.8.4-.3.8-.7 1.1-1.3 0-.1.1-.3.1-.5.2-.3.3-.4.3-.5.2-.4.3-.8.3-1.1h4.2c1.3 0 2.5.1 3.8.1h1c.2.1.3.2.6.3 1.6.8 2.9 1.2 3.9 1.3 0 .4.3.7.8 1 .3.2.8.3 1.4.3l2.4.2c2.1 0 3.7-.2 4.7-.7.3-.2.6-.3.7-.4.3 0 .6-.2 1-.4.7-.4 1-.7 1.1-.7.9-.2 1.6-.5 2-.8l.1-.1c.4-.2.7-.4.9-.7 0 0 0-.1.1-.1.1.2.3.4.4.5.3.3.7.4 1.1.4l.1.1c.1.1.1.1.2.1.1.1.2.1.3.2.1 0 .3.1.3.1.1 0 .1.1.2.1h3.4c.1 0 .1-.1.2-.1s.1-.1.2-.1.1-.1.2-.2c0 0 .1-.1.1-.2l.1-.1.6.2.4.3c.2.1.4.2.7.3h.2c.5.5 1 .5 1.5.3.3-.2.5-.5.6-.8.3-.1.5-.2.5-.2.1-.1.5-.4 1-.8l1.2-1c.6-.5 1.2-.9 1.6-1.4v.1l.1.5c.1.2.2.4.3.5-.1.2-.2.3-.3.4-.6.6-1 1.1-1.3 1.4-.6.8-.8 1.8-.8 3-.3.1-.5.3-.6.6-.1.2-.1.4-.1.8v2.1c-.5.1-.9.3-1.3.4-.5.2-.9.4-1.1.6-.4.4-.5.8-.2 1.1.2.4.8.5 1.6.4 1.7-.3 3.3-.3 4.9-.2.3.2.8.3 1.3.4 1 .2 2.2.3 3.6.3.9 0 1.6-.1 2-.4.5-.4.8-.9.8-1.5v-.2l1.2-.8c.5-.2.9-.4 1.4-.8.7-.5 1.1-.9 1.4-1.1l1.3-.8c.3-.2.5-.4.7-.5.3.2.7.2 1 .1.4-.1.8-.4 1-.9.5-.7.8-1.4.7-2.3l-.3-1.3c-.1-.4-.2-.8-.3-1v-.2c0-.1-.1-.2-.3-.3-.2-.2-.5-.3-.9-.4-.4-.1-.8 0-1 .3l-.3.3c-.3.1-.6.4-1 .7h-.1c-.2 0-.4.1-.6.2-.3.1-.6.2-1 .5s-.7.5-.9.6l-5.2 3.2c-.5.2-.8.4-.9.5l-.4.4c-.4.2-.8.3-1.1.5.1-.3.1-.6 0-.9-.1-.2-.1-.3-.2-.5l.3-.3c.2-.2.3-.4.4-.8 0-.1.1-.3 0-.4.2-.2.4-.5.5-.9l.3-1v-1.2c.1-.1.2-.3.3-.5.2-.8.1-1.4-.3-1.7-.3-.3-.7-.4-1.2-.3-.2.1-.4.1-.5.3h-.4c-.2 0-.3.1-.5.1-.1-.1-.1-.2-.2-.3-.1-.1-.3-.2-.5-.2.6-.7 1.3-1.4 2-2.1.6-.6.9-1 1.1-1.4v-.2c.1 0 .1-.1.2-.1.3-.3.4-.7.4-1 0-.3-.1-.6-.4-.9-.1-.6-.4-1.1-1-1.5-.4-.2-.8-.3-1.2-.3-.3.1-.6.2-.8.5l-.2.2c-.3 0-.6.1-.8.3-.3.2-.7.6-1.3 1.3-.3.3-.7.8-1.3 1.4-1.5 1.3-2.5 2.2-3.3 2.9-1.2 1.1-2.1 2.2-2.7 3.2-.3 0-.6.1-.8.3-.1 0-.1-.1-.2-.2 0-.2-.1-.4-.3-.5-.2-.2-.4-.3-.7-.3-.3 0-.6.1-.8.3-.1-.2-.2-.5-.5-.8-.3-.5-.7-.9-1.2-1.2-.1-.3-.1-.6-.2-.8l.1-.8c.2-.1.5-.2.7-.3.4-.2.7-.4.9-.5l1-.3c.7-.3 1-.8 1.1-1.5l-.3-2.2.3-.6c.4-.5.6-.8.7-1l.3-.8.9-1.5c.3-.3.5-.6.5-1h.1c.4-.6.6-1.1.6-1.5v-.1l1-2.2h.3c.5-.1 1-.4 1.4-1 .3-.5.5-1 .6-1.6.2-.7.1-1.3-.1-1.9-.3-.7-.8-1.1-1.4-1.2-.5 0-.9.1-1.3.4-.1.1-.2.3-.4.6-.4.1-.7.3-1 .7-.5.4-1.1 1-1.7 1.6-.4.5-.7.9-.8 1.3-.1.4-.1.8.1 1l-1.5 2.6c-.1.1-.2.3-.3.4l-.8.5-.2.2c-.1 0-.1.1-.2.1 0 0-.1.1-.1.2s0 .1-.1.2c0 .1-.1.2-.1.3l-.3.7-.5 1.9c-.3 0-.6 0-1 .1-.7.2-1.2.4-1.5.8-.2.1-.4.3-.6.6-.1.3-.2.7-.2 1.3v.2l-.3.3c-.3.4-.5 1.2-.6 2.3-.3.4-.5.6-.6.8-.2.2-.6.5-1.2.9h-1.4c0-.5-.3-.9-.9-1.1-.4-.2-1-.2-1.6-.1-.4-.2-.9-.3-1.4-.4-.6 0-1.1-.1-1.4-.1l-2.4-.4c-.4 0-1.1-.1-2-.3-.7-.1-1.3-.2-1.9-.2l-.8-.5c-1.3-.9-2.4-1.6-3.3-2.2-.4-.2-.7-.3-1-.3-.6-.6-1.3-1.1-1.9-1.5-.3-.2-.5-.3-.7-.3-.3-.1-.7-.2-1.1-.2-.6 0-1 .1-1.4.4-.5.4-.7.8-.6 1.3 0 .1.1.2.1.3v.1c-.2.2-.5.4-.8.8l-.8.9c-.5.5-.7.9-.8 1.1-.1.2-.1.3-.1.5-.2.2-.4.5-.6.8-.4.5-.7.9-.9 1.3-.3.2-.6.4-.9.5-.1.1-.2.1-.3.1 0 0-.1 0-.1.1-.1-.5-.5-.8-1-1.1-.2-.1-.7-.1-1.5-.1h-1.1c-.3-.3-.5-.5-.8-.5-.5-.3-.9 0-1.2.7m17.1 1l.6.6h-6.1l.1-.3h.3c.4 0 .7-.2 1-.5.2-.5.4-.9.6-1.1l.6-.8c.1-.1.1-.2.1-.4l.5-.3.1-.1c.1.1.2.3.4.5.3.4.8.9 1.4 1.5l.4.9m-60.5-53c-.4-.4-.8-.6-1.3-.6-.9 0-1.9.7-2.9 2.1l-9 13.4c-.7.8-1.2 1.3-1.4 1.5-.2.3-.6.8-1.1 1.5-.3.3-.5.7-.8 1.1l-1.9 2.8c-.5.8-.8 1.4-.9 2l-.1.2c-.2.5-.4.9-.6 1.4-.3.8-.5 1.4-.5 1.9v.6c0 .5.1 1 .5 1.5.2.3.5.6.9.7.4.2.8.2 1.1 0 .3-.1.6-.4.9-.8.2-.1.3-.1.5-.3.4-.2.8-.7 1.1-1.5.1-.3.3-.6.5-1 .2-.1.3-.2.5-.4.1-.2.4-.6.7-1.5.1-.2.4-.7.8-1.3l8.1-12c1.2-1.8 2.1-3.2 2.5-4.3.1-.3.2-.5.3-.8.6-.8 1.1-1.6 1.7-2.4.7-1 1.1-1.8 1.1-2.5-.2-.4-.3-.9-.7-1.3m-68.6-87.9c-.4-.1-.8.1-1.1.7-1.3 2.1-1.8 4.5-1.6 7 .1.9.4 1.5.7 1.9.5.5 1.1.6 1.8.3.5-.2.9-.7 1.1-1.3.2-.5.3-1.1.3-1.7.1-1.2 0-2.1-.4-2.6-.2-.2-.4-.4-.4-.5-.1-.2-.1-.5.1-1 .2-.8.3-1.5.1-2.2l-.6-.6m20.1-42.4c.5-.8.7-1.3.8-1.5.2-.7.1-1.2-.3-1.6-.4-.4-.9-.5-1.6-.3-.5.2-1 .5-1.5 1-.4.4-1 1.2-1.9 2.2-1 1.4-1.4 2.5-1.2 3.3.1.4.3.7.6.8.2.1.4.2.7.2.5 0 .9-.1 1.3-.4.4-.2.9-.8 1.5-1.5l1.6-2.2m-39.5-6c-.3-.1-.5 0-.6.1-.2.1-.3.3-.3.6 0 .1.2.3.5.5l.5.3c.1.1.2.2.3.2.1 0 .2-.1.4-.3.1-.1.2-.3.2-.4.1-.1.1-.3 0-.5s-.2-.4-.3-.5c0 0-.3-.1-.7 0m16.9-12.8c-.1.3-.1.6 0 .8 0 .3.1.5.2.7 0 .2.1.3.3.5.3.3.6.5 1 .4.2 0 .4 0 .5-.1.3.1.7.1 1 0 .6-.2.9-.7 1-1.3.1-.6-.1-1.1-.6-1.5-.3-.2-.5-.4-.5-.4l-.3-.5c-.1-.3-.3-.5-.7-.6-.4-.1-.7 0-1 .3-.2 0-.4.2-.6.4-.2.3-.3.6-.4 1 .1.2.1.3.1.3m7.1 0c-.3-.1-.6-.1-.8 0-.2.1-.4.4-.5.7-.1.2-.2.4-.3.8-.2.4-.4.9-.8 1.5-.1.5 0 1.2.4 2 .6 1.3 1.4 2.4 2.4 3.3.6.6 1.1.9 1.6.9v.1c.1.3.2.5.3.6.2.2.4.2.7.1v-.1c.1 0 .3-.2.5-.4v-.1l.4-.3c.2-.1.3-.3.5-.4 1 .7 1.6 1.2 1.9 1.3.4.2.8.3 1.2.3.2 0 .3 0 .5-.2.1-.1.2-.3.2-.5 0-.4-.1-.8-.4-1.1l-.8-.8c-.4-.2-.6-.4-.8-.5-.1-.4-.4-.8-.8-1.2 0-.1.1-.2.1-.3l.3-.8c.9-1.1 1.7-2.6 2.5-4.4.2-.6.4-1.2.5-1.7 0-.1.1-.2.1-.3.3-.5.8-1.1 1.3-2 .7-1.2 1.1-2.1 1.4-2.8.1-.1.3-.2.4-.4.1-.1.2-.4.3-.7l.1-.7c.1 0 .1-.1.1-.2.1-.3.1-.6 0-.9.1-.1.1-.1.1-.2.1-.4 0-.7-.2-1-.2-.3-.5-.6-.8-.7-.8-.2-1.4-.1-2 .5-.2.2-.5.6-.7 1-.3.5-.5.9-.6 1.1-.4.6-.7 1-.8 1.4-.3.7-.5 1.2-.7 1.5v.1l-.5 1c-.7 1.5-1.1 2.4-1.2 2.6-.4.9-.8 2.2-1.3 4v.2c-.2-.2-.4-.5-.7-.7-.2-.2-.6-.5-1.2-1l-1-.6c-.2-.1-.3-.2-.4-.2-.4.2-.5.2-.5.2m-9.6-29c-.1.6-.3 1.4-.4 2.5l-.2 2.9c0 .1-.4 1.6-1.1 4.5-.4 1.8-.5 3.3-.3 4.5 0 .2.1.5.2.9-.1.3-.2.7-.3 1.2-.1 1.1-.2 2.5-.1 4.1 0 .9.1 1.7.3 2.3 0 .1.1.2.1.4v1.1s0 .3-.1.9c-.1.3-.1.6 0 .8.1.3.4.6.8.8.4.3.8.4 1.3.3.5-.1.9-.3 1.2-.7.2-.4.4-.6.5-.7l.6-.3c.3-.1.6-.3.8-.7.2-.3.3-.9.3-1.6v-3c-.1-.5-.2-.9-.4-1.2-.3-.3-.7-.5-1.3-.6h-.7c.4-2.8 1-5.4 1.8-8 .5-1.7.8-2.8 1-3.4.1-.3.1-1.3.2-2.8 0-2.4 0-3.9-.1-4.6-.1-1.3-.6-2.1-1.3-2.3-.7-.3-1.3-.1-1.8.6-.6.6-.9 1.3-1 2.1m-3.5-.9c-.2-.1-.3-.1-.5 0-.1-.1-.3-.1-.4-.1h-.2c-.3-.2-.6-.4-.9-.4-.5 0-.9.2-1.1.7-.3.1-.4.1-.5.2-.2.2-.4.5-.5.8-.1.3 0 .5.1.8-.5 0-.8.2-1 .6-.1.2-.2.5-.2.9 0 .6 0 1.4.1 2.2v.3c-.1.4-.1.8-.2 1.1-.1.6 0 1.1.3 1.5.2.4.5.7.9.8-.1.3 0 .6.2 1 .3.3.5.5.7.6v.1c0 .3 0 .9.2 1.6.1 1 .4 1.8.8 2.3.1.3.3.4.5.3.2 0 .3-.1.5-.3.4-.5.7-1.4.9-2.7l.2-.2c.3-.3.4-.8.5-1.3l-.1-1.5c.1-.7.2-1.2.2-1.5v-3l.2-1.1c0-.1 0-.5-.1-1.3l-.4-1.6c.1-.4 0-.7-.2-.8m40.3 53.5c.1-.6 0-1-.1-1.3-.2-.8-.7-1.2-1.5-1.4-.6-.2-1.2-.1-1.8.2-.6.3-1 .8-1.2 1.4-.2.6-.2 1.2.1 1.8.2.6.6 1 1.2 1.4.5.2 1 .3 1.5.3.5-.1.9-.3 1.3-.7.2-.4.4-.9.5-1.7m95.6 134.4c-.4-.3-1-.5-1.8-.5-.8.1-1.3.3-1.7.6-.3.3-.5.6-.5 1.1-.1.4 0 .8.3 1.2.2.2.3.3.5.4l.3.6c.3.8.7 1.4 1 2l.1.4c0 .1.2.5.5 1l2.1 2.8c.5.6 1 1.1 1.5 1.3.8.8 2.1 1.9 4 3.2.5.4.9.8 1.3 1-.3 0-.6.1-.8.3-.4.3-.7.7-.8 1.1-.1.4 0 .8.2 1.1.3.3.6.5 1 .5.2 0 .5 0 1-.3.3-.2.5-.4.7-.6.1 0 .2-.1.3-.1.3.2.6.2 1 0 .5-.2.8-.5 1-1.1.3-.3.5-.7.5-1.4-.1-.7-.2-1-.2-1.1-.1-.6-.3-.9-.5-1.1-.2-.2-.5-.3-.8-.3-.7-.7-1.4-1-2.1-1.1 0 .1-.1.2-.3.3-.1 0-.1-.1-.2-.1l-.5-.9c-.3-.7-.6-1.1-.8-1.4l-1-1.2c-.5-.7-.9-1.3-1.2-1.6-.1-.2-.3-.4-.5-.7-.4-.7-1-1.6-1.7-2.7l-.8-1.1v-.5c-.5-.5-.8-.9-1.1-1.1m327.9 102.1c-.3 0-.5.2-.8.5-.3.3-.3.6-.3.9l.3 1.8c.1.7.2 1.8.3 3.3.1 1 .5 2 1 3 .5.9 1.1 1.2 1.7 1 .3-.2.6-.5.8-1 .5-1.5.5-2.8-.1-4.2-.6-1-.9-1.7-1.1-2.3-.1-.9-.2-1.5-.3-1.9-.1-.3-.3-.6-.6-.9-.3-.1-.6-.2-.9-.2m13.8-38.7c-.3.5-.5 1-.3 1.4 0 .3.2.8.5 1.3.5.8.8 1.6 1 2.4 0 .1.2.8.5 2.2l.3 1.9c.2 1.2.3 1.9.3 2.1.1 1.2.2 1.9.2 1.9 0 .2.2 1 .5 2.4.1.4.2.9.4 1.7.1.4.3.9.6 1.6.2.7.3 1.1.3 1.2.2.5.5.7 1 .7.4-.1.7-.3.8-.6l.4-1.1c.4-.9.6-1.7.6-2.2.1-.4 0-1-.1-1.7-.2-1-.3-1.5-.4-1.7 0-1.1-.1-2-.1-2.5 0-.2-.1-.8-.3-1.8l-1-4.4c-.1-.3-.4-.9-.8-1.8-.4-.8-.7-1.4-.9-1.7-.4-.6-.9-1.2-1.5-1.7-.2-.2-.5-.4-.8-.4-.5 0-.9.3-1.2.8m38.5-44.3l-3.8-6.8c-.5-1-1.1-1.5-1.7-1.7-.5-.1-.9.1-1.3.5s-.6.8-.6 1.3c-.1.7.1 1.7.6 2.8 2.7 6.4 5.5 11.7 8.3 15.7 1.7 2.3 3.3 3.8 4.8 4.3.3.1.5.1.7 0 .2-.1.3-.4.3-.7l.1-1.5c.1-.6.1-1 0-1.3-.1-.5-.4-1.2-1-2.1-1.9-2.8-3.9-6.2-6.4-10.5m-114.7 69.5c-.3.4-.3.7-.1.8.9-.3 2.3-.8 4.2-1.5 1.6-.6 2.9-1.2 3.9-1.9 1.1-.6 2.5-1.8 4.4-3.5 4.3-3.8 7.1-6.4 8.5-7.8 1.1-1 2.8-2.6 5-4.7 1.9-1.8 3.7-3.2 5.2-4.3 1.6-1.1 2.9-1.9 4-2.5.7-.4 1.2-.7 1.3-1.1.1-.4.1-.8-.1-1.2-.2-.4-.6-.6-1-.8-.6-.2-1.4-.1-2.4.2-2.9.9-5.9 2.7-8.8 5.3-1 .9-2.3 2-3.9 3.5-2.3 2.2-3.5 3.4-3.8 3.6-3.8 3.4-6.7 5.9-8.6 7.6-3.3 3.2-5.9 5.9-7.8 8.3m16.3-146.6c.6-.7.9-1.3.9-1.7 0-.5-.2-.9-.6-1.2-.4-.3-.8-.5-1.3-.5-.7 0-1.6.4-2.6 1.1-1.2.8-2.8 2-4.5 3.6-2.1 1.8-4.7 4.2-7.7 7.2-4.7 4.7-7.2 7.2-7.5 7.4-2.4 2.3-3.9 3.8-4.5 4.6-1.2 1.6-2.1 2.7-2.8 3.5-.6.7-1.6 1.7-3 2.8-1.4 1.2-2.4 2.1-2.9 2.7-.4.4-.5.8-.3 1.1.2.2.5.3 1.1.1 4.3-1.7 8.7-4.5 13.1-8.5 2.6-2.3 6.3-6 11.2-11.1.6-.6 2.5-2.4 5.8-5.5 2.3-2.2 4.2-4.1 5.6-5.6m-74.6-108.4c-.9 2.3-1.6 4.9-2.1 7.9-.3 1.9-.6 4.6-1 8.1-.3 2.8-.4 5-.4 6.4 0 2.4.2 4.5.6 6.3.1.5.3.8.5 1.2.3.4.7.5 1.1.4.4-.1.7-.5 1-1.2.4-1.4.7-3.2.7-5.3v-5.4c0-.5.2-1.9.4-4.3l1.1-9.7c.3-1.8.5-3.1.7-4.1.1-1 0-1.7-.3-2-.2-.2-.5-.2-.8-.2s-.6.2-.8.4c-.1.3-.4.7-.7 1.5m39.7 12.5c0 .8 0 1.6.1 2.3 0 .2.2 1.2.6 3 1 3.8 1.8 6.5 2.3 8 .7 1.8 1.9 4.2 3.5 7 .4.8.8 1.3 1.3 1.5.3.1.5.2.6 0 .1-.1.2-.2.3-.4.3-.5.3-1.3 0-2.4-.3-1.4-1-3.3-2-5.8-1-2.6-1.7-4.5-2-5.8l-.8-3.5-.8-2.5c-.4-1-.6-1.7-.7-2-.1-.8-.1-1.6 0-2.5.2-.7.2-1.4.1-1.9-.1-.3-.2-.6-.5-.8-.3-.2-.6-.3-.9-.2-.5.1-.8.7-1 1.7 0 2.3-.1 3.6-.1 4.3m-17.7.7c0-1.3-.1-2.3-.1-3-.1-1.1-.3-2-.6-2.8-.2-.8-.5-1.2-1-1.3-.4-.1-.8.1-1.2.6-.2.2-.3.7-.4 1.3-1.2 6.3-.2 13.8 2.8 22.5.5 1.4 1 2.5 1.5 3.3.2.2.6.6 1.2 1.3.5.5.9 1 1.1 1.4.2.3.6.8 1 1.4.5.5 1.1.7 1.6.4.4-.2.5-.5.5-1.1 0-.3-.1-.8-.3-1.3l-1.2-3c-2.5-6.5-4.1-11.7-4.6-15.5-.1-1.4-.2-2.7-.3-4.2m28.5-39.7c-1.2.7-2.2 1.3-2.8 1.6s-1.5.7-2.7 1.2c-1.3.6-2.3 1-2.8 1.2-1.6.7-3.9 2-7 3.8-6.5 3.8-11.4 6.7-14.6 8.8-5.3 3.4-9.9 6.7-13.8 10-.8.7-1.3 1.3-1.4 1.8-.1.4 0 .8.1 1.2.2.4.5.6.9.6.3 0 .7-.2 1.2-.5 3.2-2.5 8.1-5.8 14.6-9.6l16.3-9.8c2.1-1.2 3.8-2.4 5.2-3.4.7-.5 2-1.6 4-3.4 1.8-1.5 3.7-3 5.8-4.5-.8-.1-1.8.4-3 1m-7.3 23.4c.3-.9.2-1.4-.2-1.7-.5-.3-1 0-1.6.9-2 3.2-3.8 6.6-5.5 10.3-1.2 2.7-1.7 4.9-1.7 6.6.8.5 1.7.1 2.7-1.3 1-1.5 2-3.4 2.9-5.5.6-1.4 1.3-3.3 2.2-5.9l1.2-3.4m150 122.5c-.3.1-.5.4-.7.8-.1.3-.2.7-.1 1 .1.5.5 1 1.1 1.8 1.1 1.3 2.9 3.2 5.2 5.6 1.8 1.9 3.2 3.3 4 4.2 1 .9 2.5 2.3 4.6 4 1.5 1.4 2.6 2.3 3.1 2.7 1.2.9 2.4 1.4 3.6 1.5.7.1 1.3 0 1.8-.2.7-.3 1-.8.9-1.4 0-.5-.4-1-1.2-1.7-3.4-2.6-6.3-5-8.7-7.2-1.7-1.5-4.9-4.5-9.5-8.8-1.1-1.1-2-1.8-2.8-2.1-.4-.3-.9-.4-1.3-.2m-35 10.2c-.6.2-1 .6-1.1 1.2-.1.4-.1.8 0 1.3.2.4.5.8.9.9.4.2.8.2 1.3.2.5-.1.8-.3 1.1-.7.3-.3.4-.7.5-1.1 0-.5-.1-.9-.3-1.2-.3-.3-.9-.6-1.8-.7h-.2l-.4.1M2120 1766c-2.2 1.8-4.4 3.8-6.6 6-1.5 1.5-3.3 3.4-5.4 5.7-1.5 1.6-2.5 2.8-3 3.5-.5.7-1.1 1.7-1.8 3.2l-1 2c1.2 0 2.4-.4 3.8-1.3.8-.5 1.8-1.3 3.2-2.6 2.4-2.3 5.8-5.9 10.1-10.7 1.5-1.6 2.6-3 3.4-4.1.6-1 .8-1.8.4-2.3-.4-.5-.9-.7-1.6-.5-.5.3-1 .6-1.5 1.1m23.5-80c0-.5-.2-.8-.7-1.2-.4-.3-.9-.4-1.3-.3-.7.1-1.5.5-2.4 1.4-2.2 1.9-5.2 5.1-9.1 9.5-4.4 5-7.5 9-9.2 12.1-.6 1.1-1.1 2.2-1.5 3.2 2.6-1.2 5.7-3.5 9.2-7 2.4-2.4 6.2-6.6 11.3-12.5 1.4-1.5 2.4-2.8 3.2-3.9.3-.6.5-1 .5-1.3m-5-54.2c-1.8 0-3.8.5-5.8 1.4-1.4.6-3.2 1.6-5.4 3-8.8 5.6-15.6 10.7-20.4 15.3-1.4 1.3-2.4 2.5-2.9 3.4-.3.6-.5 1.1-.5 1.6.1.7.4 1.1 1 1.2.5.1 1.1-.3 1.8-1.2.4-.5 1.1-1.3 2.3-2.3 6.8-5.7 13.6-10.6 20.4-14.8 2.6-1.6 4.4-2.7 5.2-3.3 1.8-1.4 3.3-2.8 4.3-4.3m65.6 36.4c-.4-.7-.8-1.2-1.1-1.5-.5-.5-1-.8-1.7-.7-.6.1-1.1.4-1.3 1-.2.4-.2.8 0 1.4 0 .5.1 1.1.3 1.6.1.4.5.9 1 1.8 1.7 2.6 3.9 4.8 6.5 6.6 2.1 1.4 4.2 2.4 6.3 2.8.6.2 1.2.2 1.7.1.7-.1 1.1-.4 1.3-1 .3-.6.2-1.3-.5-2.2-.4-.5-1-.9-1.8-1.3-.1-.1-.8-.4-2.1-1-3.5-1.7-6.4-4.2-8.6-7.6m11.4-69.9c.3.1.6 0 .7-.2.1-.2.1-.4-.1-.7-.5-1-1.4-1.9-2.5-2.8-.8-.6-1.9-1.3-3.3-2.1l-6.3-3.7c-.9-.5-1.6-.6-2.1-.3-.5.4-.6.9-.3 1.5.1.3.5.8 1 1.3 4.7 4 9 6.4 12.9 7m72-.5c-2.9-.1-5.1-.1-6.5-.1-7.3-.1-14.1-1.9-20.6-5.5-2.2-1.3-3.8-2.5-4.8-3.5-.7-.8-1.2-1.3-1.5-1.5-.8-.5-1.4-.5-2 0-.6.6-.7 1.5-.1 2.8 1.5 3.1 4.4 5.8 8.7 8 6.6 3.5 14.4 5.2 23.4 5.1 1.8-.1 3-.2 3.6-.3.8-.2 2-.7 3.6-1.5 1.1-.5 1.8-1 2.3-1.3-1.5-1.2-3.5-1.8-6.1-2.2m-1045.3 996.1c-.4.1-.7.4-1 .9-.2.3-.4.7-.7 1.3-.4.5-1 1.3-2 2.2-.5.5-1 1.2-1.5 2.1-.3.5-.7 1.3-1.3 2.3-.4.7-1.2 1.7-2.3 3.1-1 1.4-2.4 3.4-4 6-1.6 2.5-2.5 4.5-3 5.9-.4 1.5-.4 2.7 0 3.7.8.2 1.8-.2 2.9-1.2 1.3-1.3 2.6-3.1 4.1-5.4 2.1-3.4 3.4-5.3 3.7-5.7l2.8-3.9c.9-1.8 1.6-3.1 2.2-3.9.9-1.1 1.5-2 1.8-2.6.7-1.1.9-2.2.6-3.1-.1-.6-.4-1-.9-1.4-.4-.4-.9-.5-1.4-.3m21-9.4l-1.5-1.7c-.4-.5-.8-.7-1.1-.8-.5-.1-.9.1-1.3.5-.3.4-.5.9-.5 1.4s.1 1 .4 1.5c.2.4.5 1 1 1.6 1.8 2.4 3.6 5.5 5.4 9.2 1.1 2.1 2.6 5.3 4.6 9.6.6 1.3 1.2 2.3 1.7 3 .3.4.8 1 1.4 1.8.5.5.9.8 1.2.9.3.1.7 0 1-.2.3-.2.5-.5.5-.8 0-.2 0-.6-.2-1.4l-.3-1.9c-.2-.8-.5-1.8-1.1-3-.8-1.8-2.3-4.9-4.4-9.2-1.2-2.3-2-3.8-2.5-4.5l-2.1-3.2c-1.1-1.3-1.8-2.3-2.2-2.8m-20.2-48.7c-.4-.7-.9-1.2-1.4-1.5-.3-.2-.6-.2-1-.2s-.7.1-.9.3c-.3.4-.5 1.1-.4 2 .1.8.2 1.5.3 2 .1.4.4 1 .8 1.8l4.5 13.3c.2.7.4 1.1.7 1.4.3.5.8.8 1.4.7.5-.1.9-.4 1.3-1 .5-.8.7-1.6.6-2.4 0-.5-.1-1.1-.4-2-.8-2.5-1.8-5.5-3.1-9.1-.8-2.3-1.6-4-2.4-5.3m2.3-39c-.3-.1-.9.1-1.6.5-.7.4-1.8 1-3.2 1.8-1.9 1.2-4 3.6-6.4 7.1-1.4 2.1-2.2 3.7-2.5 5-.2.6-.1 1.2.1 1.7.1.3.3.5.6.6.3.2.6.2.9.2.6 0 1.3-.5 2-1.5 1.4-2.1 2.4-3.7 3.1-4.8 1.2-1.8 2.4-3.3 3.6-4.4.8-.7 1.3-1.3 1.5-1.7l.8-1.2c.1-.1.5-.4 1.1-.7.5-.3.8-.6.9-.8.2-.3.2-.7 0-1.1-.2-.5-.4-.7-.9-.7m35.9 12.9c-.3-.7-.6-1.2-.9-1.3-.3-.1-.5-.1-.8.1-.3.1-.5.3-.7.6-.2.4-.2 1-.1 1.8.2 2.2.4 3.8.8 4.8.1.3.4 1.1.9 2.4.4 1 .7 1.8.8 2.5.1.7.2 1.6.3 2.9.2 1.2.7 2.1 1.4 2.5.4.3.9.4 1.5.3.5-.1.9-.3 1.1-.8.2-.4.3-1 .2-1.7-.5-4.4-1.7-8.5-3.5-12.2-.6-.8-.9-1.4-1-1.9m-9.4-7.7c0-.4-.3-.7-.8-.9-1.2-.3-2.4.2-3.8 1.6-1.1 1.1-2.2 2.5-3.3 4.1-4.1 6-6.9 12.6-8.3 19.7 2.1-2.8 5.7-8.2 10.9-16.1l4.9-7.5c.3-.3.4-.6.4-.9m-85.3 68.8c2.3 0 4.1-.1 5.5-.4 1.5-.3 3.3-.9 5.1-1.8 3.5-1.5 6.9-3.3 10-5.3 1.1-.8 2.1-1.5 3-2.3.4-.2.8-.5 1.3-.8l1.3-1.3c.3-.3 1.3-1.1 3.1-2.5.4-.3.8-.7 1.2-1 .4-.1.7-.2 1-.5.4-.3.6-.8.8-1.4v-.3c.3-.7.3-1.1-.2-1.5 0-.2-.1-.4-.3-.6s-.4-.4-.6-.4c0-.4-.1-.6-.4-.9-.4-.3-.9-.3-1.5 0-.2.1-.6.5-1.1 1-.3.4-1.1 1-2.2 1.9l-4.2 3.2c-2.8 2.2-4.8 3.6-6 4.3-3.1 1.9-7.4 3.8-13 5.8-1.9.8-3.3 1.5-4 2.1-.6.6-.8 1.2-.6 1.7.3.8.8 1 1.8 1m32.2-149.7c-.7-.4-1.7-.1-3 .9l-19.3 15.9c-1.5 1.2-2.5 2.2-3.1 2.9-.2.2-.5.6-1 1.2-.4.5-.7.9-1 1.2l-1 1c-.3.6-.3 1 .1 1.4.3.4 1 .3 2.1-.3.7-.4 1.9-.8 3.5-1.3 1.1-.5 2.3-1.2 3.5-2.1.5-.4 1.6-1.3 3.2-2.8 1.2-1.1 3.6-3.1 7.2-6 3-2.5 5.3-4.6 7-6.2 1.5-1.4 2.3-2.7 2.5-3.8.2-.9 0-1.6-.7-2m48.6-5.7c-.6-.1-1.1.3-1.5 1.3-2.6 5.1-6.5 12.8-11.7 23-.8 1.5-1.4 2.7-1.7 3.6-.5 1.4-.6 2.8-.5 4 .9.4 1.8-.2 2.7-1.8.9-1.6 2-3.9 3.4-6.9 0 .1.1.1.1.2.6 1.4 1.5 3 2.8 4.9 1.6 2.4 3.4 4.9 5.4 7.4 1.5 2 2.9 2.7 4.2 2.3.7-.2 1.1-.8 1.4-1.5.3-.8.3-1.5 0-2.3-.2-.6-.6-1.3-1.2-1.9-.2-.2-.7-.8-1.6-1.7-2.5-2.4-4.7-5.2-6.6-8.5-.6-1-1.2-1.7-1.6-2-.3-.3-.7-.4-1.1-.5l8.1-16.9c.3-.6.4-1.2.3-1.7-.1-.6-.4-.9-.9-1m22.7-37.7c-.7 2-.9 3.6-.6 4.8.1.5.3 1 .7 1.3.4.4.8.6 1.2.5.6-.1 1.1-.8 1.5-2 1.2-4.6 2.9-9.8 5.1-15.6.4-1.2 2.5-6.3 6.2-15.2.6-1.3.7-2.2.4-2.9-1.5.6-2.8 1.7-3.9 3.3-.8 1.1-1.7 2.6-2.6 4.6-3.3 7.2-6 14.2-8 21.2m4.4-67.2c-.4-.4-1-.5-1.8-.1-1.2.6-2.6 1.9-4.3 3.9-1.8 2.3-3.7 5-5.8 8.1l-9 13c-1.3 1.8-2.3 3.4-3.3 5-.4.6-1 1.8-1.9 3.4-.8 1.5-1.5 2.6-2 3.4-.1.2-1.1 1.6-2.8 4.1-1.2 1.7-2 3.1-2.5 4.4-.2.5-.3 1-.3 1.4 0 .5.2.9.5 1.1.6.4 1.4 0 2.3-1 1.9-2.2 3.9-5.2 6-8.9 3.5-5.9 5.3-9 5.5-9.4 1-1.5 3.1-4.5 6.4-9.1 2.7-3.7 4.8-6.8 6.1-9.3 1.5-2.7 2.3-4.1 2.4-4.2 1-1.5 2-2.7 3-3.6.6-.4 1-.8 1.1-.9.6-.4.7-.9.4-1.3m-120.2 42.3c-.2.3-.3.5-.2.7s.3.3.5.3c2.6.5 5.4.4 8.5-.2 2.3-.4 5.1-1.2 8.4-2.3 7.6-2.7 13.9-5.9 19-9.5.9-.6 1.6-1.2 2-1.9.6-1 .6-1.9.2-2.6-.5-.9-1.4-1.2-2.7-1-.6.1-1.5.5-2.8 1.2-7.3 4.3-15.2 7.7-23.6 10.2-2.4.7-4.2 1.3-5.2 1.8-1.8.8-3.2 1.9-4.1 3.3m55.4-96c-.6-.4-1.3-.6-2.2-.6 0 0-.9.1-2.5.2-.8 0-1.9 0-3.1-.2-2.1-.2-3.1-.3-3.1-.3-2.6-.1-4.6-.1-5.9-.2-1.9-.1-4-.2-6.3-.5-1.1-.1-3.2-.5-6.3-1-2.2-.4-3.6-.7-4.4-.9-1.7-.5-2.8-.5-3.5 0-.4.3-.6.7-.6 1.2-.1.5-.1.9.1 1.3.3.7 1 1.4 2 2 1.2.8 2.8 1.4 4.6 1.8 0 0 1.7.3 5 .9.8.2 2.1.4 3.7.7 1.4.3 2.7.5 3.7.5.9.1 2.3.1 4.1 0 1.8 0 3.1 0 4.1.1l4.2.6c1.5.1 2.9.1 4.1-.1 1.3-.2 2.3-.6 2.8-1.1.6-.6.9-1.4.8-2.3-.2-.9-.6-1.7-1.3-2.1m-392.8-344c-.5 0-.9.1-1.3.4-.5.4-1 1.2-1.3 2.3-1.4 4.7-2 8.8-1.7 12.2.1 2 .7 3.5 1.6 4.5 1-.5 1.6-1.5 1.8-2.8.1-.6.1-1.7 0-3.4 0-1.6.2-3.4.7-5.6.6-2.5 1-4.3 1.3-5.6.1-.6.1-1.1 0-1.3-.2-.4-.6-.6-1.1-.7m-10.4-47l3.5 2.3c1.4.9 2.3 1.4 2.8 1.7.5.3 1.5.6 2.8 1.1 1.2.4 2.1.8 2.8 1.2 1 .5 1.7.8 2 .8.7 0 1.5-.4 2.4-1.2-.2-.7-.3-1.2-.5-1.5-.2-.7-.7-1.3-1.4-1.8s-1.6-1-2.7-1.5c-1.3-.5-2.2-.8-2.8-1.1-1.1-.5-2.3-1.2-3.8-2-1.6-1.1-2.8-1.9-3.6-2.4-.5-.3-.8-.5-1.1-.8-.3-.4-.5-.7-.8-.8-.3-.2-.7-.3-1.1-.3-.4.1-.8.2-1.1.5-.6.6-.8 1.3-.6 2.3.1.7.5 1.4 1.3 2.1.3.3 1 .8 1.9 1.4m24.9-45.7c.1-.1 0-.2-.2-.4-.9-.9-2.4-1.8-4.5-2.7-3.4-1.4-6.8-2.7-10.1-3.8-2.2-.7-3.9-1.2-5.2-1.5-1-.2-2-.3-2.8-.3-.4 0-.8.1-1 .3-.4.3-.5.6-.3.9 0 .1.3.3.7.6l2.3.8c2.5.9 4.3 1.6 5.6 2 1.1.4 2.7.9 4.9 1.6 1.9.7 3 1.1 3.2 1.2 1.8.6 4.2 1.1 7.1 1.4.1 0 .2 0 .3-.1m-43 84.2c-2.2 3.7-4.3 8.5-6.5 14.2-1.3 3.2-3.1 8.1-5.5 14.6-.6 1.5-.9 2.6-.9 3.2 0 .7.2 2 .8 3.7.7-.6 1.3-1.1 1.6-1.4.9-.9 1.9-2.7 3-5.4l11.2-28c.3-.9.5-1.6.5-2.1 0-.4-.2-.7-.4-1-.3-.3-.6-.5-.9-.5-.4 0-.9.2-1.4.7-.2.1-.7.8-1.5 2m-24.4-59.5c-.5.3-1 .8-1.6 1.5-1.4 1.8-3.1 4.7-5.3 8.7l-6.8 12.8c-1.4 2.8-2.3 4.6-2.6 5.3-.9 2.1-2.1 5.7-3.6 10.8.3.2.6.1 1-.4 2.4-2.5 4-4.2 4.7-5.1.2-.2.7-1 1.7-2.3.7-1.1 1.3-2.3 2-3.6l12.5-23.5c.5-.9.7-1.6.8-2.1.1-.9-.2-1.5-.8-2-.6-.5-1.3-.5-2-.1m-62.1-73.2c.9-.8 1.4-1.5 1.5-2.1.1-.5 0-1-.3-1.5-.3-.4-.7-.7-1.3-.8-1-.2-2 0-2.8.8-.5.5-1.1 1.3-1.8 2.5-.9 1.9-1.7 3.9-2.4 6-2.1 5.9-3.9 11.6-5.3 17.1-.3 1-.4 1.8-.3 2.4 0 .2.1.5.2 1 .1.4.1.8.1 1 0 .1-.1.6-.2 1.5-.1.6-.1 1.1.1 1.5l.5-.8c1.4-2.3 2.3-4.2 2.9-5.6.1-.2.5-1.4 1.3-3.5l5.5-14.8c.6-1.2 1-2.2 1.2-2.8.6-1 .8-1.5 1.1-1.9m-40.5-29.9c-1.2 1-2.6 2.6-4.3 4.8l-3.4 4.5c-2.3 3.1-4 5.5-4.9 7.2-1.4 2.4-2.3 4.5-2.6 6.5.9-.2 1.9-.7 2.8-1.5.6-.5 1.3-1.3 2.2-2.3 3.5-4.3 6.8-8.8 9.9-13.3 1.2-1.8 2.1-3.1 2.8-3.9 1.1-1.4 2.2-2.5 3.4-3.3.7-.5 1.2-.9 1.4-1.1.2-.2.3-.5.3-.8s0-.6-.3-.8c-.4-.4-.9-.5-1.5-.3-.3.1-.7.4-1.3 1-1 .6-2.5 1.8-4.5 3.3m43.6-21.7c-2.1-1.1-3.7-1.9-4.8-2.3-.7-.3-1.3-.5-1.6-.6-.6-.3-1.2-.5-1.5-.8-.6-.3-.9-.5-1.1-.5-.5-.1-.9 0-1.1.3-.3.3-.3.9.2 1.7.5.9 1 1.5 1.5 2 .3.3 1 .7 2.3 1.3 2.8 1.3 4.5 2 4.9 2.2l6 2.3c1.1.4 1.9.7 2.4.8 1.2.3 3 .4 5.3.2-.6-.9-1.5-1.7-2.6-2.5-1.5-1-3.1-1.7-4.9-2.3-2.3-.8-3.9-1.4-5-1.8m-59.9-63.2c-.2.2-.6.6-1.2 1.4-6.4 10.2-12.2 18.7-17.5 25.4-1 1.3-2.6 3.3-4.7 5.9-1.8 2.3-3.2 4.4-4.3 6.3-.7 1.1-1.1 2-1.2 2.7 1.2.3 2.7-.2 4.4-1.5 1.6-1.2 3.2-2.8 4.9-4.6 1.1-1.2 2.5-2.9 4.3-5.2 3.8-4.7 6.8-8.7 8.9-11.9 3.1-4.5 5.6-8.8 7.5-12.9.7-1.5 1.2-2.8 1.3-3.8.1-1-.1-1.6-.6-2-.6-.2-1.2-.2-1.8.2m67.9-29c-.5.7-1.3 1.7-2.2 3.1-.9 1.2-1.9 2.4-3 3.6-1 1-1.6 1.7-1.8 2-.3.5-.7 1.2-1 2.2l-.7 2c-.2.6-.2 1 0 1.3.2.4.6.6 1.1.6.4 0 .8-.1 1.3-.4.5-.3 1-.7 1.5-1.3.6-.6 1-1.1 1.3-1.5l8.8-11c.6-.7 1.3-1.6 2-2.6.6-1 1.1-1.5 1.3-1.8.5-.5.7-.8.8-1 .1-.4.1-.7-.1-1.1-.2-.3-.5-.6-.9-.7-.7-.2-1.4-.1-2.2.4-.5.3-1.1.8-1.9 1.5-2 2.1-3.4 3.5-4.3 4.7m80.3 149.2c2 1.4 3.7 2.5 5.3 3.2 1.1.5 2.9 1.2 5.2 2 1.1.4 1.9.6 2.4.5.6-.2 1-.5 1.3-1.1.3-.6.3-1.1 0-1.6s-.7-.9-1.4-1.3-1.6-.9-2.9-1.4c-1.5-.6-2.5-1.1-3-1.3-1.1-.6-2.5-1.4-4.3-2.5-1-.6-2.8-1.8-5.3-3.6-.7-.5-1.2-.7-1.7-.8-.5 0-.9.1-1.3.5s-.5.8-.4 1.3c.1.3.3.8.8 1.3 1.1 1.3 2.1 2.3 2.9 3 .7.6 1.5 1.2 2.4 1.8m1.2-72.8c-1.4-.7-2.4-1.2-3.1-1.6-1.2-.6-2.2-1.2-3-1.7s-2.1-1.6-4-3.2c-1.2-1.1-1.9-1.8-2.3-2.2-.8-.9-1.5-1.7-1.9-2.5-.5-1-.8-1.5-1-1.6-.5-.6-1.1-.8-1.8-.6-.5.2-.8.6-.9 1.2-.1.4 0 .9.1 1.5.6 2.4 2.6 5.1 5.8 8 1.5 1.4 2.8 2.4 3.8 3.1 1 .7 2.7 1.5 5 2.6 2.7 1.3 4.8 2.2 6.3 2.6 1 .3 2 .5 3 .6-1-2-1.9-3.4-2.7-4.1-.7-.7-1.8-1.4-3.3-2.1m111.1-86.7c.4-.6.6-1.1.6-1.5.1-.7-.1-1.2-.8-1.3-.3-.1-.6 0-.9.2-.2.1-.4.4-.8.7-.4.3-.9.8-1.7 1.4-.4.3-.8 1-1.3 2.1l-3.1 7.1c-.6 1.3-1 2.2-1.3 2.9l-.8 2.6c-.3.8-.7 2.1-1.3 3.7-.5 1.4-.8 2.7-1 3.8-.2 1.3-.2 2.6-.1 3.9.2-.3.6-.6 1.1-1.1s.9-.8 1.1-1c.4-.5 1-1.6 1.8-3.3.4-.8.8-1.5 1-1.9.4-.8.6-1.4.8-2 .1-.1.4-1.1.9-3 .2-.8.5-1.6 1-2.5l1.5-3.6c1.1-3.1 2.2-5.5 3.3-7.2M974 1645c1.1 1.9 2.1 3.4 3 4.3.3.3.8.7 1.5 1.3.6.5 1.1 1 1.4 1.3l1.3 1.5c.5.6 1 1.1 1.5 1.4-.3-2.3-1.2-4.8-2.5-7.5-.6-1.3-2-3.6-4-7-3.3-5.7-5.8-9.9-7.5-12.7-.2-.4-.4-.7-.7-1.1-.2-4.6-.3-9.3-.2-14 0-1.1-.1-1.9-.4-2.4-.2-.4-.5-.7-.9-.8-.4-.2-.8-.2-1.1-.1-.5.2-.8.7-1.1 1.5-.4 1.4-.6 3.3-.7 5.7v3.4c-1-1.4-2-2.7-2.9-3.9.1-.2.2-.4.4-.6.9-1.6.9-2.7.2-3.4-.3-.2-.7-.3-1.1-.3-.4 0-.8.1-1.1.3-.4.3-.9.7-1.3 1.3h-.2c-.5-.1-.8 0-1 .3-.2.3-.2.8 0 1.5v.1c-.7 1.3-1.4 2.4-1.9 3.5-1.7 3.3-3.3 6.9-4.6 11-1.4 4.1-2.9 9.3-4.4 15.5-1.9 7.6-3.1 13.9-3.8 18.8-.9 6.9-1.1 13.2-.4 18.9.9-1.2 1.6-2.8 2.2-4.6.3-1.1.7-2.8 1.1-5 2.4-13.7 4.4-23.5 6-29.7 2.3-8.9 5-16.8 8.1-23.8.2.3.4.6.5.9l3.3 5.3c.3.5.7 1.1 1.1 1.8.7 12.4 2.1 23 4.4 31.7.5 2 1.2 3.5 1.9 4.3.3.4.8 1 1.5 1.8.4-1.3.5-2.7.3-4.4-.1-.9-.3-2.3-.6-4.4-1.2-6.9-2.2-13.9-2.8-20.9l5.5 9.2m55.8-15.5c-1.2-1.1-3.2-2.6-5.9-4.5-9.8-7-18.9-14.8-27.3-23.2-1.1-1-2-1.6-2.7-1.8-.6-.1-1.1 0-1.6.3s-.8.7-.8 1.3c0 .5.3 1.2 1 1.9 10.3 11 21.7 20.6 34.2 28.7 1.3.9 2.3 1.4 3.1 1.5.3.1.9.1 1.6.2.7 0 2.4.4 5.2 1.3-3.1-2.4-5.3-4.3-6.8-5.7m-16.5-48.8c-.3.7-.3 1.5 0 2.3.4 1.5 1.6 3.2 3.5 5.2 2.9 3 6 6 9.5 8.8 2.4 2 4.4 3.2 6 3.8 1.2.4 2.2.4 3 .2-.1-1.2-1-2.6-2.8-4.2l-10.8-9.6c-2.5-2.2-4.2-4.2-5.2-6-.5-.9-1-1.4-1.4-1.6-.4-.1-.8-.1-1.2.1-.2.3-.4.6-.6 1m9.3-10.8c-.6.1-1 .5-1.1 1.1-.2.8.4 1.7 1.6 2.6l4.9 3.8c4.1 3.2 7.3 5.5 9.4 7 1.9 1.3 4.1 2.6 6.5 3.9 3 1.7 5.5 3 7.6 3.7 2.9 1 5.7 1.3 8.3.8-.8-1.1-1.9-2-3.4-3-.4-.3-1.8-1-4.1-2.1-2.3-1.2-4.8-2.6-7.5-4.2-3.7-2.2-6.2-3.7-7.5-4.6-.7-.5-2.1-1.5-4.1-3.1-1.7-1.3-3.1-2.3-4.1-3-1.1-.7-2.6-1.5-4.5-2.5-.9-.3-1.5-.5-2-.4m-14.4-118.9c-.2-.6-.5-1-.9-1.1-.4-.1-.8 0-1 .1-.4.3-.8.8-1.3 1.7-1.1 2.3-1.9 5.2-2.6 8.5-.6 3.3-1 6.4-1.3 9-.2 2.7-.3 5.8-.2 9.3.1 3.5.4 4.6.8 3.4.5-1.2 1.1-3.7 2-7.5.9-3.8 1.6-6.6 2.2-8.6.6-1.9 1.2-4.7 1.8-8.3.6-3.7.8-5.8.5-6.5m31.7-80.4c-.2.2-.4.7-.5 1.3-.7 3.8-1.2 8.3-1.5 13.3v3.7c0 .3 0 .6.1.8.2.3.6-.3 1.4-1.8.8-1.4 1.4-3.3 2-5.7.4-1.8.5-1.9.1-.1.5-3 .8-5.5 1-7.6.1-1.4.1-2.4 0-3-.2-.6-.4-1-.7-1.3-.3-.2-.6-.3-1-.3-.4.3-.7.5-.9.7m-34.2-34.1c-.1-.3-.4-.4-.8-.5-.3-.1-.6 0-.9.1-.9.4-1.7 1.5-2.3 3.4l-1.3 4.5c-1.4 5.3-2.1 9.8-2.2 13.3v4.4c-.1.5-.2.8-.2 1.1 0 .5.1.8.4 1.1.2.2.5.3.9.3s.7-.1.9-.3c.3-.3.4-.8.5-1.4l.2-.9c.1-.7.4-2 .9-4-.2 1-.2 1 .1 0 .1-.3.2-1.9.5-4.6l3.3-15.4v-1.1m-62.3 244.4c.2.5.7 1.3 1.5 2.3l5.3 6c1.7 1.9 3.2 2.8 4.5 2.6.2 0 .5-.1 1-.3.4-.1.7-.2 1-.3-.1-.9-.3-1.5-.5-2s-.9-1.2-2-2.1c-1.1-.9-2.2-2-3.5-3.4-.1-.1-1.1-1.3-3.1-3.8-.6-.7-1.1-1.1-1.5-1.3-.7-.4-1.4-.5-2-.2-.4.2-.7.5-.8 1 0 .6 0 1 .1 1.5m12.9-89.9c-.3.3-.6.9-1 1.8l-5.6 16.4c-1.3 4-2.3 7-2.8 9-.8 3.2-1.4 7.1-1.7 11.8 1.2.2 2.5-1.5 3.8-5.1 1.3-3.6 2.4-6.5 3.2-8.6 1.9-5.2 3.6-10.2 5-15 .3-.9.4-1.6.5-2.2-.1 1.5 0 1.2.4-.9s.6-3.8.7-5.1c.1-1.3-.1-2.1-.6-2.5-.3-.2-.6-.3-1-.1-.3 0-.6.2-.9.5m-67.6 84.2c-.3-1-.8-1.7-1.3-1.9-.4-.2-.8-.2-1.3 0-.4.2-.8.5-1 .8-.3.7-.4 1.6-.3 2.6.2 1.4.9 3.1 2 5.3 1.7 3.4 3.1 5.8 4.4 7.3 1 1.3 2 1.7 2.9 1.3.7-.3 1.1-1 1-2 0-.5-.3-1.2-.8-2.1-1.4-2.5-2.5-4.3-3.2-5.5-1-2.3-1.9-4.2-2.4-5.8m-49.9-92.4c.2-.8 0-1.5-.7-2.2-.8-.7-1.8-.9-3.3-.5-1 .2-2.1.7-3.2 1.5-.3.2-1.3.9-2.9 2.1-.8.6-2 1.5-3.7 2.6-1.5 1-2.5 1.8-3.1 2.4-1.1.9-2 1.9-2.6 2.9-.3.5-.3.9 0 1.2.2.2.5.2 1 0s1.2-.7 2.3-1.4l8-5.6c.6-.5 1.2-.8 1.7-1 .8-.3 1.8-.4 2.8-.3 1.1.1 1.8 0 2.2 0 .8-.4 1.3-.9 1.5-1.7m88.9-26.9c1-.5 2-1.1 3-2 1.1-.9 2-1.7 2.7-2.4.7-.7.8-1.5.3-2.5s-1.3-1.4-2.5-1.2-2.2.4-2.8.8c-.6.4-1.6 1.1-2.9 2.3-1.6 1.3-3.5 3.3-5.9 6-2.9 3.2-5.4 6.1-7.6 8.8-2.9 3.7-4.9 6.9-6 9.5-.4 1-.7 1.8-.9 2.4-.1.6.1.7.7.5.5-.2 1.6-1 3.1-2.3 1.5-1.3 3.9-3.8 7.2-7.7 3.2-3.8 5.7-6.6 7.5-8.5 1.7-2.1 3.1-3.2 4.1-3.7m35.3-28.1c-.8 1.7-1.5 3.2-1.9 4.5l-1.5 6.8c3-4 5.8-8.6 8.4-14 1.9-3.9 4-9 6.3-15.2.2-.6.2-1 0-1.3-.1-.1-.3-.2-.5-.3-.2 0-.4.1-.6.2-.3.1-.5.5-.8 1-3.2 5.6-6.4 11.7-9.4 18.3m-177.7 124.7c-.4-.1-.7.1-1 .4-.3.3-.4.7-.4 1.2s.2 1.3.6 2.3c0 .1.2.7.5 1.8.3.8.8 1.8 1.6 3 2.3 3.6 4.4 7.3 6.3 11 .8 1.6 1.5 2.7 2.1 3.3.2.2.7.6 1.5 1.2.6.4 1.1.8 1.4 1.2.1 0 .2-.2.2-.4l-.2-.5c-.2-.3-.2-.8 0-1.3.2-.7.3-1.2.3-1.4 0-.4-.2-1-.6-1.9-2.8-5.4-5-9.4-6.5-12l-4.7-7c-.4-.6-.7-.9-1.1-.9m-77.8 19c.5-.3.8-.6.9-1 0-.7-.4-1.2-1.4-1.5-2.1-.7-4.8 0-8.1 2.2-5.8 3.7-12.1 8.8-18.9 15.3-2.4 2.3-4.2 4.4-5.6 6.4.6-.3 1.3-.6 2.1-.9 2.6-1 4.6-2 6.2-2.9 1.5-.9 3.1-2.1 5-3.8 2.1-1.8 3.6-3.2 4.7-4.1 2.1-1.7 5.6-4.3 10.6-7.7 1.4-.9 2.5-1.5 3.2-1.6.8-.2 1.2-.3 1.3-.4m-11.2-40.2c-.4-.4-.9-.6-1.5-.7-1.1-.2-2.3-.2-3.6 0-.9.1-2.1.4-3.6.9-2.2.7-7.2 2.5-14.9 5.3-6.1 2.3-11.1 3.9-15 4.9-1.5.4-2.4.8-2.8 1.1-.2.2-.6.6-1.1 1.3-.4.5-.8.9-1.2 1.1.9.5 1.5.8 1.7.8 1.6.6 3.8.5 6.6-.3 6.6-1.7 14-4.2 22.2-7.5 1.3-.5 3.2-1.3 5.8-2.3 2.2-.8 4.2-1.5 5.8-1.9 1.2-.3 1.8-.7 2-1.3.3-.5.1-1-.4-1.4m58.7-61.4c1-.4 1.6-.9 1.8-1.5.2-.5.1-1-.3-1.5-.3-.4-.8-.7-1.3-.9-.6-.2-1.6-.1-3 .3-6 1.7-11.3 3.8-15.9 6.3-2.3 1.3-5.9 3.5-10.6 6.6-.7.5-1.2.9-1.3 1.3-.1.2-.2.6-.4 1.3-.1.5-.3.9-.5 1.1.5-.2 1.3-.2 2.3 0 .6 0 1.3-.2 2.2-.6 1.6-.7 4-1.9 7.2-3.6 3.1-1.7 5.5-2.9 7.1-3.6 1.4-.6 3.5-1.5 6.4-2.5 2.8-1.2 5-2.1 6.3-2.7m43.5-51.9l-.4.2-1.1.2h-.2l-.5.1c-.8.2-1.3.5-1.4.9-.1.5.2.8.7 1 .3.1.7.1 1.3.1h1.3c.4 0 .9 0 1.7-.1.2 0 .4-.1.5-.1l14.1-.7 7.7.3h.9c1.6.1 3.1.1 4.4.1 1.7.3 3.4.3 5.1-.1.5-.1.9-.3 1.1-.5.1-.1.2-.1.3-.2.4-.2.7-.4.9-.8h.1c.7-.3 1-.8.9-1.4v-.1c.1-.5 0-.9-.3-1.3-.1-.2-.3-.4-.5-.5-.1-.3-.2-.5-.4-.8-.4-.4-1-.5-1.9-.5-1.3-.1-3.7.1-7 .4l-16 1.9c-6.7.8-10.2 1.3-10.3 1.5 0 .1-.1.1-.1.2-.4.1-.7.2-.9.2m132.3-48.5c-5.5 3.2-10.4 6.8-14.8 10.7-4.4 3.9-9.2 7.8-14.4 11.7-5.2 3.9-9.2 7.5-11.8 10.8 2.4-1 6.6-3.7 12.8-8 6.2-4.3 11.9-8.2 17.1-11.8 5.2-3.5 8.7-6.1 10.5-7.8s3.4-3 4.8-4.1c1.4-1 2.8-2.2 4.1-3.5.9-.9 1.1-1.7.6-2.2-.5-.4-3.5.9-8.9 4.2m36.4-39.2c.3-.2.8-.5 1.5-1 1.5-1.2 3.5-3.1 5.8-5.5 1.3-1.3 2.4-2.7 3.5-4l2.1-3c.2-.4.4-.7.4-.8.1-.3 0-.6-.2-.9-.2-.2-.4-.4-.6-.4-.4-.1-.9 0-1.4.3-.6.4-1.1.9-1.8 1.7-.3.4-.8 1.1-1.5 1.9-.2.3-1 1.1-2.2 2.4l-4 5.2c-.7 1-1.2 1.8-1.5 2.5 0 .5-.1 1-.1 1.6m-87.4 27.2c.2.3.5.5.9.4.1 0 .3-.1.5-.3.1 0 .3-.1.5-.1l22.1-10.7c1.1-.5 1.7-1 1.9-1.7.1-.4 0-.7-.3-1.1-.3-.3-.6-.5-1-.6-.2 0-.5 0-.8.1-.5-.2-1-.2-1.5 0-.7.4-1.2.6-1.6.8l-1.2.5-5.9 3c-1.4.7-2.3 1.3-2.8 1.7l-.3.2c-1 .6-2 1.2-3.1 2-.9.5-1.7.8-2.2 1-1.9 1-3.3 1.9-4.3 2.6-.5.4-.9.8-1 1-.1.5-.1.9.1 1.2m-31.8 19.2c-.4-.5-1-1-1.9-1.4-.9-.4-1.9-.6-3.1-.7-1.1-.1-1.9-.1-2.5-.2-.5-.1-2-.2-4.5-.5-2.5-.2-5.7-.5-9.7-.7-14.7-.9-25.7-1.5-33-2-1.1 0-1.6.3-1.6.8 0 .4.3.8.9 1.1 1.6.7 4.1 1.3 7.7 1.7 2.1.2 4.4.4 7 .7.4.1-.1 0-1.5-.1 1.8.5 3 .8 3.7.9 11.6 2 23.7 2.7 36.3 2 1.1.1 1.8-.1 2.2-.3.4-.4.4-.8 0-1.3m1381.9 180.7c-.8-.4-1.5-.4-2.1-.2-.7.4-1.1.9-1 1.6 0 .4.3.9.7 1.5.9 1.1 2.2 2.2 3.9 3.2 1 .6 2.5 1.5 4.4 2.6.4.3 1.1.7 1.9 1.3.7.5 1.4.9 2 1.2.9.5 2.1.9 3.8 1.4 1.9.5 3.2.9 3.8 1.2.4.2.8.4 1.3.4.6 0 .9-.2 1-.6.1-.3 0-.7-.3-1.2-.5-.8-1.7-1.7-3.5-2.6-2-1-3.5-1.8-4.4-2.4-1.7-1.2-3.1-2-4-2.5-2.7-1.4-4.7-2.6-5.9-3.5-.6-.8-1.2-1.2-1.6-1.4m-106.1-28.8c-.1.8-.3 1.9-.7 3.5-.1.7-.1 1.5-.1 2.5v9.1c0 2.6.1 4.8.3 6.5.2.9.4 1.6.6 2 .4.7.9 1.2 1.5 1.3.9.2 1.5 0 1.8-.7.2-.3.3-.8.3-1.3v-20.4c0-2 0-3.4-.1-4.3 0-.9-.1-1.7-.4-2.2-.2-.3-.4-.6-.7-.8-.4-.2-.7-.3-1-.1-.8.2-1.2.9-1.3 2.1-.1 0-.2 1-.2 2.8m-4-66.6c-.2-.3-.4-.4-.8-.5s-.7 0-.9.1c-.4.3-.7.7-.9 1.3-.4 1.1-.3 2.6.2 4.3.3 1.2.6 2.2.8 2.9l1.2 3c.1.3.8 2.3 2.1 5.8.3.9.6 1.5.9 1.9 0 0 .5.4 1.3 1.2.2.1.5.4.9.9.3.4.6.7.9.9.1-.2.2-.5.2-1-.1-.4-.1-.8-.2-1 0-.3 0-.7.1-1.2.1-.6.1-1 .1-1.2 0-.5-.3-1.3-.7-2.4-.6-2.1-1.1-3.7-1.6-4.7l-.9-2.1c-.3-1-.5-1.7-.6-2.2-.1-.4-.5-1.2-1-2.4-.5-1-.8-1.8-.9-2.3.1-.7 0-1.1-.2-1.3m76.2 8.7c2.7-.2 5.4-.9 8-2-.7-.1-1.9-.5-3.8-1-1.6-.5-2.8-.8-3.8-.9s-2.4-.2-4.3-.1c-2 .1-3.4.1-4.3 0-1.5-.2-2.4-.2-2.8-.1-.5.1-.9.4-1.3.8-.3.4-.5.8-.4 1.3.1.9.9 1.5 2.3 1.8 1 .2 2.6.4 4.7.5 3.1-.2 4.9-.2 5.7-.3m-154.2 92.9c.1-.7 0-1.2-.5-1.4s-1 0-1.8.5c-1.1.9-2.4 2-3.9 3.5-10 10.1-17.6 20.6-22.8 31.7-1.8 3.7-2.9 7-3.4 9.8-.4 1.9 0 3.1 1 3.7.9-.1 1.7-1.1 2.4-3 2.4-7.4 6.4-15.1 11.9-23 3.6-5.2 9-12 16.3-20.5.4-.4.7-.8.8-1.3m-21.1 5.7v1.2c0 .4 0 .8-.2 1 0 .1-.2.3-.6.8-.3.3-.4.5-.4.8.3-.4.9-.8 1.7-1.1 1.1-.4 1.7-.7 1.9-.8.6-.3 1.2-.9 1.8-1.8l8.5-10.3c2.4-2.9 4.3-5.1 5.6-6.5 1.3-1.3 2.2-2.4 2.6-3.1.2-.4.3-.8.3-1.1 0-.4-.3-.7-.7-1-.3-.2-.7-.3-1.1-.3-.6.1-1.3.4-2.1 1.1-1.6 1.3-3.4 3.2-5.5 5.6-3.3 3.8-7 8.4-11 13.8-.5.8-.8 1.4-.8 1.7m-4.1-34.5c-2 2.7-3.8 6-5.3 10-.9 2.4-2 6.1-3.4 11.1-2.2 8-3.7 14.1-4.4 18.4-.7 4.3-1.2 10.6-1.7 18.9-6.4 7-12 14.8-17 23.1-1.9 3.3-3.3 6.1-4.1 8.4-1.1 3.3-1.5 6.4-1.1 9.2 1.2-.8 2.3-2 3.2-3.7.4-.7 1-2.2 2-4.6 1.8-4.3 4.3-8.9 7.5-13.9 1.7-2.6 4.8-6.9 9.2-12.8 2.2-2.9 3.8-5.2 4.7-6.8.3-.6.5-1 .3-1.3-.1-.3-.3-.5-.6-.6-.3-.1-.7-.1-1 0-.2.1-.5.2-.8.4.2-.8.4-1.8.5-2.8 3.7-20.8 8.1-38 13.4-51.6.2-.5.2-.9.2-1.3 0-.5-.3-.8-.7-.8-.1-.1-.5.2-.9.7m-3.1-102.1c-.2-.6-.6-.9-1.2-.9-.7 0-1.1.4-1.3 1.2-.1.4-.1 1 0 1.8.2 1.8.1 4.2-.3 7.1-1.6 12-5.9 25.4-12.8 40.1-.4.8-.5 1.4-.5 1.7.1.8.4 1.3 1 1.3.5 0 1-.3 1.5-1 7.4-11 12.1-23 14-36 .5-3.2.7-5.8.5-8-.4-2.6-.6-4.5-.7-5.8.1-.7 0-1.3-.2-1.5m70 40.1c-1.4 1.9-3.3 4.9-5.7 9l-3.2 5.6c-.1.3-.4.9-.8 1.8l-1.4 3.3c.1.1.3.2.7.1 1-.2 2-.9 3.1-2l1-1.1c.3-.4.7-1 1.2-1.8 2.8-4.6 5.2-8.7 7.1-12.2.6-1.1 1-1.9 1.1-2.5.1-.4 0-.8-.2-1-.1-.3-.4-.4-.8-.5-.3-.1-.6 0-.9.1-.3 0-.8.5-1.2 1.2m-9.7-70.6c-.3-.2-.8-.4-1.5-.5-2.2-.3-5.7-.6-10.4-.8-4.6-.2-8-.5-10.4-1-1.8-.3-4.2-.9-7.3-1.8-1.7-.5-2.9-.9-3.6-1.4-.8-.5-1.2-.8-1.3-.8-.5-.2-1-.3-1.4-.2-.4.1-.6.3-.8.7-.2.4-.3.8-.2 1.2.1.7.5 1.3 1.2 1.9 1.1 1 2.7 1.9 4.9 2.7 7.2 2.5 14.3 3.5 21.3 3.2 1.9-.1 4.8-.4 8.5-1 .9-.1 1.5-.4 1.7-.9.1-.4-.1-.9-.7-1.3m-87.5-90.6c-.4-.3-.8-.4-1.3-.4s-1.3.3-2.3 1c-2.2 1.4-4.8 3.3-7.7 5.8-4.5 3.7-11 9.7-19.4 17.8-.6.6-.9 1.1-1 1.5-.1.5 0 1 .4 1.5s.9.7 1.5.6c.5-.1 1-.4 1.7-.9 2.1-1.7 4.9-4.3 8.5-7.7 3.9-3.6 6.7-6.2 8.5-7.7 2.3-2 5.8-4.8 10.5-8.6.9-.7 1.3-1.3 1.3-1.9-.2-.3-.4-.7-.7-1m192.6 48.5c-1.5.4-3.6 1.1-6.2 2.1-16.7 6.4-33.6 14.1-50.5 23-7.1 3.7-12.4 7-15.9 9.9-.5.4-.9.9-1.2 1.4-.3.6-.3 1.1-.1 1.6.3.6.9.8 1.7.8.6-.1 1.3-.3 2.1-.8 16.4-9.5 33.5-18 51.2-25.3 6.7-2.8 11.5-4.9 14.3-6.4 3.7-1.9 7.4-4.3 11-7.1-1.9-.1-4.1.2-6.4.8M1644.8 1583c-.3.1-.9 0-1.8 0-.8-.1-1.2.1-1.1.4 0 .3 0 1-.1 1.9-.1.9-.1 2-.1 3.2 0 1 .1 2.4.3 4.3l.1 1c.1.5.2.8.2.8.1.2.2.3.3.4v.3c.1.6.3 1.1.5 1.3.1.1.1.1.2.1.4 1 .9 2.4 1.4 4.3l1.1 2.7c.7 1.4 1.4 2.5 2.1 3l.5 1.6c-.1.1-.2.1-.3.1-.2.1-.4.2-.6.4l-.7-.5-1.8-.6c-.6-.2-1-.4-1.3-.4-.1 0-.2-.1-.3-.1h-.1c-1.1-1.6-1.9-2.8-2.4-3.7l-.6-.7-.1-.1c0-.4-.2-.8-.6-1-.1-.1-.4-.2-.8-.3h-1.5c-.6.1-1 .2-1.2.4-.4.3-.6.7-.5 1.1 0 .1-.1.3-.1.5l-.2.7c-.1.4-.1.7-.2.9v.7c.1.3.2.6.4.8l.3 1.5.8 1.6c.2.4.4.7.7.9.1.1.4.2.8.3.8.2 1.4.4 1.8.6l.6.3c.2.2.3.4.4.5 0 .9 0 1.8-.1 2.7l-.1 1.2-.3.6c-.9 1.5-1.5 2.7-1.9 3.7l-1.6 3.4c-.2.4-.4.9-.5 1.3-.1.3-.3.6-.5 1l-1 1.5-3-2.3c-2.1-1.6-3.6-2.8-4.5-3.4-1.1-.7-2.1-1.4-3-1.9v-.2l.9-2.7.5-1.9c.5-.1.8-.4.9-.9.2-.7 0-1.2-.5-1.5-.5-.1-.9-.2-1.2-.3l-.5-.1h-.4c-.3 0-.5.1-.9.3-.5.3-1.1.8-1.7 1.5-.9 1-1.4 1.5-1.6 1.7-.5-.2-1-.3-1.4-.5l-.4-1.8c.1-.1.1-1.2-.2-3.4-.4-.4-.9-.9-1.6-1.4-1-.7-1.6-1.2-1.8-1.4-.9-1-1.6-1.7-2.1-2.1-.6-.5-1.4-1-2.3-1.5-.4-.5-.7-.9-1-1.3-.4-.4-1.6-1.6-3.7-3.5-.9-.8-1.7-1.6-2.4-2.3-.3-.4-.6-.6-.8-.8-.3-.2-.8-.3-1.3-.3l-1.5-.1h-1.1c-.4.1-.7.3-.9.6-.2.5.1 1.3.8 2.3.3.4.5.8.7 1 .1.1.1.2.2.3.2.3.7 1 1.5 1.9 1.5 1.6 3.9 3.8 7.3 6.7 1.4 1.2 2.5 2 3.2 2.5l.1 1.2h-.1c-.1-.1-.2-.1-.3-.1-.3 0-.5.1-.7.3-.2.2-.4.6-.5 1.1l-.1.8c-.2.1-.3.2-.5.3-.1.1-.2.1-.3.2h-.6c-.6.2-.9.6-1 1.2 0 .3 0 .7.1 1 .1.4.2.7.2.7.1.3.3.6.5.8l.3.3c0 .1.1.2.1.3.2.5.7 1.1 1.4 1.7l1 .8c.3.5.7 1.2 1.3 2.1.6 1 1.1 1.8 1.6 2.4.1.1.1.2.2.3-1.1 1.7-2.2 3.6-3.2 5.9-1.2 2.5-2.5 5.6-4.1 9.5-.3.8-.4 1.4-.4 1.7 0 .1 0 .3.1.5l-.9 3.6c-.2.8-.3 1.6-.5 2.3l-.2.6c-.1.2-.1.6-.3 1h-1.5c-.7-.6-1.4-1.2-2.3-2-.2-.1-.4-.3-.6-.5l-.4-.7c-.2-.4-.4-.7-.6-1-.4-.3-.8-.4-1-.3-.6.1-1 .5-1 1.3v1.6c0 .5.2 1 .6 1.5.2.3.5.7 1 1 .1.1.1.2.2.3 1.4 2.1 3 3.8 4.8 5 .3.3.7.5 1 .8.2.8.4 1.7.6 2.5 0 .3.1.6.1.9.1.8.3 1.4.5 1.8l.4 1.1.7 1c.1.1.1.2.2.3.1.4.3.7.5 1l.9 1.2c0 .1.1.2.2.3 1.3 3.1 3 6.2 5.1 9.2-.3-.1-.7-.3-1-.4-3-1.1-5.2-1.9-6.6-2.6-2.4-1-4.6-2.4-6.6-4.2-.9-.7-1.6-1.2-2.1-1.4-.4-.1-.9-.1-1.3 0-.5.1-.8.3-1 .7-.3.5-.4 1.1-.2 1.8.4 1.3 1.6 2.7 3.6 4.2 1.6 1.1 2.6 1.8 3.1 2.1.6.4 1.6.8 2.8 1.4 1.5.7 2.7 1.1 3.5 1.4l2.7.9c.8.3 2 .8 3.6 1.5 1.1.4 2.3.6 3.7.6.8.3 1.3.5 1.7.6.4.1.7.2 1 .2v.4c-.3.4-.6.7-.9 1.1-2.3 2.6-3.9 4.8-5 6.7h-3.3c-.1 0-.2-.1-.3-.1h-.1l-.3-.4-.4-.3-1.6-1c-.7-.4-1.1-.7-1.2-.8l-.5-.5c-.1-.1-.2-.1-.4-.1-.1-.1-.4-.2-.7-.3-.5-.1-1-.1-1.3 0-.2.1-.3.2-.4.3-.1.1-.2.1-.3.3-.2.2-.3.5-.3.8v.8c.1.8.2 1.3.2 1.4.2.4.4.8.7 1.1.3.3.7.5 1.2.8 1.1.6 1.9.9 2.5.9.2.1.5.2.8.3.2 0 .4.1.7.2.2.1.4.3.6.5-1.1 1.3-2.2 3-3.5 4.9-1.8 2.8-3 4.7-3.7 5.5-.8 1.1-1.8 2.3-3 3.8.1-1.7 0-3.4-.2-5.1-.1-.6-.2-1-.3-1.3-.2-.3-.4-.5-.6-.5 0-.1 0-.3-.1-.5-.2-.5-.4-.7-.7-.8-.3-.1-.5 0-.8.3-.3.3-.5.7-.8 1.3-.3.8-.5 1.3-.7 1.5-.2.4-.6.9-1.1 1.5l-.6 1.2c-.1.2-.4.5-.8 1-.5.7-.5 1.4-.1 2.1.1.3.3.5.5.6l-.2 1.9c-.1 1.1-.2 2.2-.3 3.2-1-.7-1.8-1.3-2.1-1.9-.5-.7-.8-1-1-1.1-.3-.1-.8-.2-1.6-.2h-.9c.2-.5.4-.9.6-1.5.1-.4.2-.8.4-1.2 1.2-2 2.1-3.6 2.7-4.8 1.1-2.1 1.8-4 2.2-5.8.1-.6.2-1.2.1-1.6.1-.2.1-.3.1-.5.2-.3.3-.5.3-.8s-.1-.5-.3-.7h-.3c0-.1-.1-.2-.2-.3-.3-.3-.8-.2-1.4.3-1.4 1.4-2.6 2.8-3.5 4.4-.2.4-.7 1.1-1.3 2.3l-3.6 6.7c-.3-.4-.6-.7-.8-.9-1-1-2.8-1.9-5.3-2.8-.2-.1-.4-.2-.5-.1-.2-.2-.5-.3-.8-.5-.6-.4-1-.5-1.3-.3-.3.2-.4.6-.3 1 .1.3.3.6.7.9.1.1.3.3.6.5-.1.2-.1.3 0 .5l.2.2c.1.2.4.5.9.9l.3.3c.2.2.5.6.9 1.1.2.2.7.7 1.6 1.5.8.8 1.3 1.3 1.5 1.4.1 0 .1.1.2.1l-.3.6c-2 4.2-4.6 8.1-7.8 11.6-.4.4-.7.8-.9 1.2-.2.2-.5.5-.9.8-.9.7-1.5 1.4-2 2-.3.2-.5.4-.6.5l-.2.2-.2.2-.3.2c-.2.1-.3.2-.4.4-.4.2-.6.4-.7.7-.1.2 0 .5.2.8.1.3.3.4.6.5.4.2.9.1 1.5-.1.4-.2 1.6-.4 3.7-.6h1.5c.5 0 .9 0 1.2-.1l2.3-3.3.3-.6c1.3-1.9 3-4.6 5.3-8 .7.7 1.3 1.5 2 2.4.3.4.7 1 1.2 1.6-.2.2-.3.3-.5.3-.3.1-.7.3-1.2.5-.3.2-.6.8-.7 1.7-.1.4-.2.8-.4 1.4-1.2 1.3-2.4 2.8-3.6 4.7-.4.7-1.6 2.7-3.5 6.1-1.5 2.8-3.3 5.8-5.3 8.9l-.4-.7c-.2-.3-.3-.5-.5-.7 0-.3-.1-.6-.2-1-.2-.7-.7-1.7-1.3-3.1-.3-.7-.7-1.1-1.1-1.3-.3-.1-.6-.2-.9-.1-.3.1-.6.2-.8.5-.3.3-.4.8-.3 1.4 0 .3.2.8.5 1.4l.5 1.2c0 1 .3 2.1.6 3.2.1.3.2.7.4 1h-.7c-2.5-.2-4.7-.2-6.6 0-.6-.2-1.3-.4-2-.7-.4-.2-.7-.3-1-.3-.7-.4-1.5-.9-2.3-1.4-.3-.3-.6-.4-.8-.4-.1 0-.2.1-.3.1-.2-.1-.4-.3-.6-.4-.3-.2-.6-.3-.8-.4-.5-.5-.9-1-1.3-1.5-.3-.3-.5-.5-.6-.5-.2 0-.4 0-.5.2l-.1.1c-.2 0-.5 0-.7.1-.4.2-.6.5-.6.9 0 .3.1.7.4 1.2-.1.2 0 .4.1.6.1.3.3.6.6.9.2.2.5.4 1 .7.2.1.4.3.7.6.2.2.4.2.6.3.3.2.6.3.9.3.9.8 1.6 1.4 2.2 1.8 1.4.8 2.6 1.3 3.8 1.5l-.4.8c-.4.3-.9.7-1.5 1.1-.4.3-.7.5-.8.8-.1.3-.2.6 0 1 .1.2.2.4.3.4-.4.2-.9.5-1.4.8l-.5.4c-.2.4-.2.8.1 1.3.2.3.4.5.6.5.2 0 .4-.1.8-.3.3-.2.5-.4.8-.5h.3c.2 0 .5-.2.9-.5.4-.1.8-.1 1.1 0h.3c.1.1.1.1.1.2.2.2.4.3.5.3.3 0 .6-.2.8-.6v-.5c.4 0 .7-.3.9-.8.1-.3.2-.8.1-1.3l-.1-2.5c.8.3 1.6.4 2.3.4.5 0 .8-.1 1-.2.1 0 .2-.1.3-.2.5.1 1.1.1 1.7.2-.1.2-.2.4-.3.5-.2.4-.2.7-.1 1 .2.3.5.4.9.4l-3.5 5.6c-1.8 3-2.9 4.8-3.3 5.5-.5.9-.7 1.7-.7 2.3-.2.5-.3 1.1-.3 1.6l.2 1.2c-1.8-1-3.4-1.9-5-2.8-1.9-1-3.7-1.9-5.2-2.5l-1.1-.4c-2.7-1.8-4.6-3.1-5.7-3.9-.8-.6-1.4-1-1.9-1.1-.4-.1-.7 0-1.1.2-.3.1-.5.3-.6.5h-.3c-.3.1-.5.4-.5.9 0 .2.2.5.5 1 .6.8 1.8 1.7 3.5 2.8.9.5 3.2 2 7 4.5 2.9 1.8 5.2 3.2 7.1 4.3.6.3 1 .6 1.5.8.9.5 1.5.9 1.9 1.2.4.4.8.7 1.3 1.1.2.6.5 1.2.8 1.7.1.1.1.2.1.3v1.7c0 .4 0 .6.1.8.1.3.3.5.6.5.2 0 .4-.1.5-.3.3.1.6.1.9 0 .4-.2.7-.6.8-1.3l.3.3c.1.1.7.7 1.8 1.7l1.3 3.5c-.5.6-1 1.3-1.5 2.1-.2.3-.4.5-.5.8-1.6 1.7-2.9 3.2-3.8 4.6-.3.4-.6.8-.8 1.2-.2.2-.6.6-1.3 1.1-.5.4-.8.7-1.1 1-.3.1-.6.3-.8.4h-.2c-.6.1-1.1.2-1.4.2-1.2.1-2.2.2-2.8.3-.2 0-.3 0-.5.1v-.2l-1.8-4c-.7-1.6-1.3-2.7-1.8-3.4-.4-.5-.8-.8-1.3-.8-.3 0-.6.1-.9.5-.2.3-.4.6-.4 1 0 .5.2 1.2.6 2 .7 1.5 1.3 3.8 2 6.9.3 1 .5 1.6.6 1.8.4.7.9 1 1.6 1 .5 0 .9-.2 1.3-.6.4-.4.6-.8.6-1.3v-.8h1.5c1 0 2-.2 3-.5h.5c.3.2.5.2.8.1.2 0 .4-.1.5-.2.5 0 1.1 0 1.8.1.6 0 1-.1 1.3-.3.4-.2.6-.4.7-.8.6 0 1.2-.2 1.6-.6.7-.5 1.6-1.6 2.6-3.3.7-1.3 1.7-2.8 3-4.6.5-.7 1-1.4 1.5-2 .6.3 1.3.5 1.9.8-1.5 2.4-2.9 4.6-4.1 6.8-.9 1.4-1.3 2.6-1.2 3.5-.9 1.1-1.5 2.1-1.9 3-.2.4-.3.8-.3 1s.1.3.3.5c.2.1.3.2.5.2.1 0 .3-.1.6-.4l.2-.2c.1.1.3.2.5.3.4.1.8-.1 1.3-.5.3-.5.6-.9.8-1.1 0-.1.1-.1.1-.3.4-.2.7-.4 1-.7.1-.2.5-.6 1-1.3l.3-.3c.5-.5 1-.8 1.3-1.1.8-.5 1.2-.8 1.3-.9s.4-.5.8-1.2c.1-.2.6-.8 1.4-1.8l2.3-2.8c.2.1.4.2.7.3 3.9 2.9 8.3 4.7 13 5.6 1.6.7 2.8 1.1 3.5 1.3 1.3.3 3 .4 5.2.3 1.2-.1 1.8-.4 2-1 .7 0 1.6.1 2.5.2l-.3.6c-.5 1.1-.8 1.8-.9 2.1-.2.9-.1 1.6.4 2.2.2.2.4.4.6.5.2.3.6.5 1.1.5.4 0 .7-.2 1-.5.2-.1.3-.2.5-.3.7-.5 1.4-1.4 2.1-2.8 1-1.8 1.6-3.3 1.9-4.4.3-1.3.5-2.3.6-2.9 0-.2.1-.3.1-.5.1.1.3.1.4.1 2.1.8 4 1.3 6 1.7.9.2 2.5.5 4.6.8.5.1.9.2 1.4.2l1.5.3c1.3.2 2.3.2 2.9 0 .4-.1.7-.3 1-.5.2 0 .5.1.8.2.5.2 1.2.3 2.1.3 1.2.1 2.1 0 2.6-.3.4-.2.7-.4.7-.7.1-.3 0-.6-.3-.8-.2-.2-.4-.3-.8-.3-.3-.1-.6-.1-1-.2-.1-.1-.2-.3-.4-.4-.3-.2-.8-.4-1.6-.8-.4-.1-1.2-.4-2.3-.9-2.3-1.1-4-1.8-4.9-2-1.3-.3-2.4-.6-3.3-.8-1.3-.6-3.2-1.2-5.5-1.6-.9-.2-1.8-.3-2.5-.5 0-.2.1-.3.1-.5.4-1.7.8-3.8 1.2-6.3l1-6.3c.2-1.6.3-3 .3-4.2.1-.2.1-.5 0-.8 0-.9-.1-1.7-.2-2.5-.1-1.1-.5-1.7-1.2-2-.4-.1-.8-.1-1.1 0v-.1c-.2-2.9-.4-4.9-.7-6.1l-.3-1c-.2-.4-.5-.6-.8-.6-.5-.1-.9.1-1.2.6-.2.3-.4.8-.5 1.4-.3 1.8-.5 4-.7 6.8v1.2c0 .4.1.7.2 1 .3.6.7.9 1.3 1.1l.6.6s.2.2.3.4c-1 5.7-2 10.6-3 14.8l-.2.7c-1.2-.5-2.3-1.1-3.3-1.6-2.1-1.2-4.3-2.6-6.5-4.3-.8-.7-1.4-1.1-2-1.2-.9-.3-1.6-.1-2.1.5-.4.5-.5 1-.3 1.8.1.4.4 1 .9 1.5.3.3.5.7.8 1 0 0 0 .1.1.1.2.7.8 1.5 1.6 2.3 1.1 1.1 2.9 2.3 5.2 3.7 1.3.8 2.4 1.4 3.4 1.8.2.3.5.5.8.6-.1.7-.3 1.6-.5 2.5-.2.8-.4 1.5-.6 2.2h-2.7c-1-.3-2.2-.4-3.5-.5l-3.3-.3c-1.5-.7-3.3-1.6-5.3-2.6-4.5-2.3-7.8-3.9-10-4.7h-.2c.2-.4.4-.8.5-1.2l.2-1.3c.1-.3.1-.6.1-.8.7-1 1.4-2.1 2-3.2.3-.5 1.2-2.2 2.5-5 .9-1.8 2.7-5.2 5.4-10 .3-.6.7-1.2 1-1.8.1-.2.3-.4.4-.6.9-1.3 1.5-2.2 1.8-2.7.3-.6.6-.9.8-1l.4-.3c.1-.1.1-.3 0-.4v-.2c.5-.5 1.1-1.2 1.7-2 .3-.2.5-.3.6-.4l1-1.2h.2c.4-.2.9-.7 1.3-1.4.1-.3.2-.6.4-.8.1-.1.3-.4.5-.7l.3-.3.1-.1.3-.3v-.2l.3-.4c.6-.9 1-1.7 1.3-2.2.3-.5.5-1.1.7-1.6.5-.8.9-1.5 1.3-2.1.9-1.7 1.8-3.7 2.7-6 .3 0 .5 0 .7-.1.3-.1.8-.4 1.3-.8.2 0 .4-.1.5-.1.3-.1.5-.2.6-.3.3-.3.3-.6 0-.9-.1-.1-.3-.5-.6-1.3l.2-.3c.1-.8.1-1.5.1-2 .2-.2.4-.5.8-.8l1.3.1 2.9-.1c.1 0 .4-.1 1.1-.3.3 0 .6-.1.8-.2.2.3.3.5.5.7.1.1.1.2.2.2-.9 2.1-1.8 4.1-2.6 6.2-.7 1.9-1.2 3.7-1.5 5.2-.1.4-.1.7-.1 1l-.2.5c-.2.7-.3 1.3-.3 1.8v1.6c.1.6.2 1 .3 1.1.2.4.6.6 1 .6h.2c.1.1.2.2.4.2.1 0 .2-.1.4-.3.3-.2.5-.3.6-.4l.5-.7h.1l2-2.1.4-.6.3-.8c0-.1.1-.3.3-.7l1-.9c-.2.4-.5 1.1-.8 2-.2.5-.3 1.1-.5 1.8l-.5 1.1c-.4.9-.6 1.8-.8 2.7-.2.2-.3.5-.3.9l-.2 1.8c-.1 1.2-.1 1.8-.1 1.9v1c.1.4.1.6.3.8l.1.3-.1.2c-.2.4-.3.8-.1 1 .1.2.2.3.4.3s.4 0 .6-.1c.1 0 .1-.1.1-.2.2 0 .4 0 .5-.2l.3-.3.5-.4.3-.4c.9-1.1 1.6-2.2 2.3-3.4l.2-.3c.2-.4.2-.7.1-1l.1-.1 2.3-6.1c.1-.2.2-.5.3-.7l4-8.8c.1-.2.1-.4.1-.5.5-.7 1-1.5 1.5-2.3.2-.2.3-.5.5-.8.1-.2.1-.5 0-.9v-.2c.2-.3.2-.5.1-.8-.1-.3-.3-.6-.5-.7-.1-.1-.2-.3-.4-.4-.3-.3-.7-.4-1-.4-.2 0-.3.1-.5.2h-.2l-.1-.1c-.3 0-.5 0-.7.1-.2-.1-.4-.2-.5-.3-.4-.3-.6-.4-.7-.4-.2-.1-.5-.1-.8-.1l-.5.1c.9-2.1 1.6-3.8 2.2-4.9 1.3-2.4 2.2-4.3 2.8-5.5 1-2.1 1.6-4.1 1.9-5.8v-.2l3.2.3c.7.1 1.1 0 1.4-.1.2-.1.4-.3.5-.5h.1c.3 0 .5-.1.5-.2v-.1h1.3c.2-.1.4-.1.4-.2.1-.1 0-.2-.1-.4-.3-.5-.5-.8-.8-.9 0 0-.7-.2-2.1-.5-.3-.4-.6-.6-.9-.7-.4-.1-1.2-.2-2.3-.3-.3 0-1.8-.2-4.5-.5-.3-.3-.9-.6-1.8-1-.4-.1-.8-.3-1.1-.4.1-.2.3-.4.4-.6.5-.9 1-1.6 1.3-2.2l1.3-1.3c1.4-1.5 2.3-2.4 2.7-2.7.6-.5 1.1-.9 1.7-1.3.5.1 1 .2 1.7.3v.3c0 .4.1.7.2.8v.1l.1.4.3.3c.3.2.6.4.8.4l.5-.1c.1 0 .6 0 1.4.1.6.1 1.1 0 1.4-.3.2-.1.4-.4.5-.8l.1-.9v-.6c.1-.5.3-1 .3-1.3.1 0 .1 0 .2.1.6.4 1.2.6 1.9.6.2.1.3 0 .4-.1 0-.1-.1-.1-.1-.3l6.2.6c.6 0 1.1.1 1.6.1.1.4.3.9.5 1.3.3.7.9 1.7 1.9 3 1.6 2.4 3 4.3 4.2 5.8-.4.5-.8.9-1.3 1.4-1.6 1.7-3.2 3.4-4.8 5.3l-1.5-1.7c-.1-.2-.2-.3-.4-.5-.1-.1-.2-.2-.4-.3l-3.3-3.5c-.3-.3-.6-.4-.9-.5h-.8c-.4-.2-.7-.3-1-.2 0 0-.1 0-.1.1h-.2c-.8.1-1.3.3-1.5.6-.4.5-.3 1 .1 1.6l1.2 1c.1.5.5 1.1 1.1 1.8 1.2 1.4 2.9 2.9 5.1 4.7-.5.7-1.1 1.4-1.6 2-2 2.6-3.4 4.8-4.2 6.5-.3.6-.6 1.2-.8 1.8-.7-.2-1.4-.2-2.1-.2-.2-2.9 0-5.9.8-8.8.2-.8.2-1.3.2-1.5v-.2c.1-.4.1-.7 0-.8-.1-.3-.4-.4-.8-.3l-.2-.2c-.3-.2-.7-.1-1.2.3-1.9 1.5-3.1 3.4-3.6 5.7-.2 1-.3 2.3-.3 3.8l-.1 7.5c0 1.2.1 2 .4 2.5.2.4.5.8.8 1 .4.3.8.4 1.2.3 1-.1 1.6-.9 1.8-2.5.4 0 .8-.2 1-.5v-.2l.4-.2c.2-.1.5-.2 1-.2.2.2.6.2 1-.1-.1.7 0 1.3.5 1.9.3.4.7.7 1.4 1 1.4.8 3 1.5 4.6 2 .7.2 1.2.3 1.6.3l.3.2c.1.1.2.1.3.2l.9.6.8.5c-.4.3-.6.6-.6 1l-.6.5c-.7.6-1.7 1.5-3.1 2.8-.3.3-1.1 1.3-2.4 2.8l-2.3 2.9c-3.1 3.9-5.4 6.7-6.9 8.4-.5.6-.9 1.1-1.1 1.6-.1.3-.3.7-.4 1.3l-.4.5c-1.7 1.6-3 3-3.8 4.3-.2.3-.3.5-.5.8-1-.4-1.8-.7-2.4-.8-1.6-.1-2.7-.3-3.4-.5-.5-.1-.8-.2-1.1-.3-.4-.1-.8-.1-1 0-.3.1-.6.3-.8.6h-.1c-.4.1-.7.3-.9.6-.2.3-.3.7-.1 1 .1.2.4.5.8.7l5.5 3.1c-.7 1.1-1.4 2.3-2 3.5-.3.6-.6 1.1-.9 1.3-.1.1-.3.2-.6.3-.2.1-.4.2-.4.4 1.2.5 2.3.8 3.5.9.6.1 1.1 0 1.5-.2.3-.2.6-.5.9-.9.3-.5.5-.9.7-1.1.2-.3.5-.7 1-1.1.5-.4.8-.8 1-1 .2-.3.5-.7.9-1.3 1.6.5 3.4 1 5.3 1.5-.1.2-.3.5-.4.7-1 1.6-2.2 2.7-3.5 3.3l-1.3.4c-.5.2-.9.3-1.2.5-.4.3-.7.6-.8 1v.2c-.2 0-.5.1-.7.2-.6.2-.8.4-.8.8-.1.4.3.7 1 .9 1.3.3 3.4.4 6.1.1.8-.1 1.4-.2 1.8-.5.3-.3.5-.5.6-.8 0-.2 0-.4-.2-.6.3.2.7.2 1.2 0 .3-.1.7-.3 1.1-.7l1.5-1.1 1.4-1.5c.3-.4.6-.8.8-1.2 1.1.3 1.8.4 2.1.5.6.1 1.1.2 1.7.2l-.6 4.8c-.1.9-.2 1.8-.2 2.7 0 .8.1 1.6.3 2.4 0 .1 0 .2.1.4-.2.7-.4 1.5-.6 2.5-.1.4-.1.8 0 1.1.2.5.5.8 1 .9.4.1.9 0 1.3-.3.3-.2.5-.7.8-1.5.1-.2.2-.4.3-.5l.4-.5c.2-.2.4-.6.5-1.2.1-.2.1-.4.2-.6.3-.4.4-.7.5-.9.1-.4.2-1 .2-1.5l.3-7.9 1.5-.3c.4-.1.7-.2.9-.3 1.6.1 2.9.1 3.9-.1.5-.1.9-.2 1.1-.3.4-.2.6-.5.6-.9 0-.3-.1-.5-.4-.8 0-.1-.1-.1-.2-.2-.2-.2-.6-.4-1.3-.7-.9-.2-1.7-.4-2.4-.5-1.3-.5-2.6-.7-3.9-.8-.3-.4-.8-.6-1.4-.5-.4 0-.7.2-1 .4l-2.3-.3c.3-.4.6-1 1-1.7.5-.9.8-1.5 1-1.7.6-.7 1-1.2 1.3-1.5.3-.4.6-1 1-1.9.5-1.1.9-1.9 1.3-2.6l2.2-3.3c2.6 0 4.9-.3 6.9-1 .3-.1.6-.2.8-.3 0-.1.1-.2.1-.4.4-.7 1.8-2.5 4.4-5.3.5-.3.9-.8 1.4-1.5 1.1-1.5 2.2-3.6 3.3-6.3 1.7-4.1 3-7.5 3.8-10.3.4-.4.8-.9 1.1-1.7l1.1-2.7c.5-1.4.7-2.4.8-2.8 0-.2.1-1 .1-2.2-.1-1.4-.2-2.5-.3-3.4 0-.6.1-1.2.1-1.9 0-.4 0-.7-.2-.8 0-.1-.1-.2-.1-.3 0-.1 0-.2-.1-.3-.1-.4-.2-.8-.4-1-.3-.3-.6-.5-1.1-.5-.4 0-.8.2-1.1.6h-.3l-.4-2.7v-.2c.1-.2.2-.4.3-.7.5-1.5.9-3 1.5-4.5.8.1 1.5 0 2.1-.1.9.9 2.1 1.9 3.5 2.8 1.1.7 2.9 1.7 5.2 3l.6.3c-4.2 7.7-7.2 14.1-8.8 19.2-.2.8-.4 1.5-.6 2.2-.1.3-.3.6-.4.9l-1.3 3.7c-.2.4-.3.9-.5 1.5 0 .2-.1.5-.1.8v.2c-.1.7-.2 1.3-.2 1.8s.1.8.2 1.1v.7l.6 1.2c.6.9.9 1.3 1 1.4.5.5.9.8 1.3.9.4.1.7.1 1.1 0 .1.1.3.2.5.3.5.2 1 .4 1.5.5.4.1.7.1.9 0 .3-.1.6-.3.7-.6.1-.3 0-.6-.2-.9-.1-.1-.4-.3-.8-.4-.1-.1-.3-.1-.5-.1 0-.1 0-.3-.1-.5l-.1-.9c-.1-1.9 0-3.8.1-5.8v-.2c.9-2.8 1.8-5.1 2.5-7.1l2.8-6c.2.2.4.4.6.5.3.2.9.9 1.8 2 .5.6 1.4 1.5 2.5 2.6l1.3 1.5 2 2 .1.1c.6.9 1.3 1.7 2.2 2.3.4.3.7.5 1 .5h.5c.2.1.3.2.5.3.5.3.8.4 1.1.4s.5-.2.7-.4c.4 0 .9.1 1.6.3.2.1.5.1.7 0 .1 0 .1-.1.2-.1s.2.1.3.1c.2.1.6.2 1.1.3-1.1 1.6-2.3 3.4-3.6 5.5-1.7 2.7-2.9 4.5-3.4 5.5-.2.3-.4.6-.5.9-.1.2-.2.4-.4.5-.3.1-.6.3-1 .5-.6.3-1.1.6-1.6 1-3.3-2.8-5.2-4.6-5.9-5.2-.6-.6-1-1-1.3-1.1-.7-.3-1.3-.4-2-.2-.7.3-1.1.8-1.3 1.5-.1.5 0 1.1.3 1.7.5 1 1.3 2.1 2.4 3.1.2.2.5.4.8.7.7.9 1.2 1.5 1.6 1.9l1.8 1.7c.6.7 1.1 1.2 1.7 1.6.3.3.6.6.8.9.7.6 1.3 1.1 1.9 1.4.2.2.5.4.8.6.5.3 1.2.6 2 .8l3.2 1 1.1.5s.1 0 .1.1c1.2.8 2.2 1.4 3 1.8h.1c-.1.1-.1.2-.2.4-.2.3-.4.6-.5.9-.6.8-1.4 2.1-2.6 3.8-.8 1.2-1.3 2.3-1.7 3.4-.3-.1-.7-.2-1.1-.2-.9 0-1.6-.1-2.1-.1-1.2-.1-2.2-.2-2.8-.2-.9-.1-1.6 0-2.3.1-.5-.1-1.1-.1-2-.3-2.4-.3-5.8-1.2-10.5-2.6-1.8-.6-3.3-1-4.4-1.5-1.8-.7-4.5-1.9-8.3-3.8l-3-1.5c-.7-.4-1.3-.6-1.8-.7-.6-.1-1.1.1-1.5.5l-.2-.1c-.4-.1-.8-.1-1 .1-.4.2-.6.7-.5 1.3.1.2.2.4.3.7 0 .3.1.5.3.7.2.3.6.7 1.2 1 .5.5 1 1 1.5 1.3.7.5 1.5 1 2.6 1.5 1.1.6 2 1 2.8 1.3.5.2 1 .4 1.4.5.8.4 1.6.7 2.4 1.1 1.7.7 3.4 1.3 5 1.8 0 .3-.1.7-.2 1.2-.1.2-.3.5-.8.9-.7.6-1.2 1.1-1.6 1.5-.4.1-.8.4-1.3.9-.7.7-1.7 1.9-3 3.5-.5.6-1.5 1.5-3 2.8l-3.3 3c-.1.1-.2.2-.3.4l-.2.2c-.4.4-.8.7-1 1.1-1.5.8-2.6 1.5-3.3 1.9-.5.1-.8.1-1 .1h-1.3c-.5.2-.8.5-.9.8-.1.3 0 .6.3.9.1.1.4.3.9.5s1.2.3 1.9.3c.5 0 1.3 0 2.3-.1h1.9c.7-.1 1.6-.6 2.5-1.3 2.9-2.1 5.1-4.2 6.7-6.1.4-.4.7-.9.8-1.3l1.6-1.6c1.4-1.4 2.4-2.5 3.1-3.2.7-.7 1.4-1.3 2-1.8.5-.4.8-.7 1-.9.1-.2.2-.7.1-1.5-.1-.5-.2-1-.3-1.3 4.5 1 8.6 1.2 12.4.6 1.1-.2 2-.4 2.6-.8.6.1 1.3.2 2.2.2 1.3.1 2.3 0 3-.1v.5c0 .2.1.4.1.5 0 .6.1 1.1.4 1.5.3.5.7.8 1.3 1 .6.2 1.1.1 1.6 0 .5-.2 1-.7 1.4-1.3.2-.4.5-1 .8-1.8.8-2.1 1.9-4.4 3.2-6.6l.5-.7c1.1-1.7 2.6-3.7 4.4-6 .6-.7 1-1.2 1.2-1.7v-.2c.6-.7 1.1-1.2 1.5-1.7.8-.9 1.5-1.8 2.3-2.8 1.6-1.8 2.8-3.4 3.8-4.7.6-.9 1.2-1.7 1.6-2.5.4-.5.7-1 1-1.5.2-.1.5-.3.7-.5.2-.2.4-.4.5-.8.2-.4.3-.7.4-.9.4-.8.6-1.3.6-1.5.1-.4 0-.8-.1-1-.1-.4-.3-.7-.6-1s-.6-.4-1-.3c-.2 0-.5.1-.7.3-.5-.3-1.2-.2-2.1.3-.7.5-1.7 1.6-3 3.4-1 1.5-3.6 4.8-7.6 9.8-2.2 2.8-4 5.2-5.5 7.4-.6-.4-1.1-.7-1.5-1-.3-.2-.7-.4-1-.6l-.1-.1c-.3-.2-.6-.4-1.1-.7 0-.2-.1-.5-.3-.8-.2-.3-.6-.6-1.2-.8l-.6-.3v-.8l-.1-2.1c.3-.2.6-.5.9-1l1.5-2.8c.4-.8.9-1.6 1.3-2.3 1.5-1.6 3.2-3.7 5-6.2 3.4-4.8 5.2-7.3 5.5-7.8.4-.5 1.8-2.2 4-5 .6-.6 1-1.3 1.3-1.8v-.1c.4-.2.7-.3 1-.5.8.5 1.7 1.1 2.8 1.6.2.1.5.2.7.3 3.5 2.9 7.1 5.5 10.9 7.8.6.4 1.2.6 1.6.6h.9c.1.1.3.1.4.2l.2.1c-.2.1-.5.3-.8.5-1.3 1.1-2.2 1.9-2.7 2.6-.3.5-.8 1.3-1.5 2.3-.2.2-.5.6-.8 1-.4.4-.6.8-.8 1.1-.2.4-.3.8-.3 1.3-.5 0-.9.3-1.1 1-.1.2-.1.8-.1 1.5.1 1.4.1 2.9 0 4.6-.1 1 0 1.7.2 2.1.3.6.8.9 1.5.9s1.2-.3 1.5-1c.1-.2.2-.5.2-.8.1-.1.1-.3.2-.4 0-.1.1-.2.1-.3l.1-.1s0-.1.1-.1c.7.1 1.3-.2 1.7-1 .2-.3.3-.7.4-1.1.5.2 1 .5 1.5.8.6.3 1.2.6 1.7.8l.3.3c-.4.4-.7.9-1 1.4v.1l-.2.2-.3.3c-.2 0-.4.1-.5.3-.2.2-.4.6-.5 1.1-.1.2-.2.3-.3.5-.2.3-.3.7-.4 1-.2.3-.3.5-.3.8 0 .2 0 .6.2 1.3.1.3.1.6.2 1v3.6c0 .1 0 .1-.1.2v2.1c-.1 0-.3-.1-.4-.1-1-.1-1.7-.1-2.1.2-.3.2-.6.6-.8 1.2-.3.6-.8 1.4-1.3 2.1-.6.5-1.2 1.2-2 2-.7 1-1.2 1.8-1.3 2.4-.9.7-1.8 1.6-2.7 2.6-.6.8-1 1.5-1.2 2.2 0 .3-.1.5 0 .7 0 .1-.1.1-.1.1-.2.2-.4.4-.7.6-.7.5-1.2.8-1.3 1-.3.5-.4 1.3-.3 2.4l.3 2.3c.1.6.2 1 .3 1.3.2.5.4.9.8 1.2.1 0 .1.1.2.1v.1c-1.4 1.6-3.1 3.2-5.2 4.8-1.6 1.3-2.7 2.2-3.3 2.7-1 .9-1.9 2-2.8 3.3l-.6.7c-.4.3-.9.8-1.3 1.3l-.3.4-2 1.8-.3.3c0-.1-.1-.1-.2-.1-.1-.1-.3 0-.6.1l-3.6 3c-.3.2-.4.4-.5.5 0 .2 0 .4.2.8.1.3.3.5.5.5.1 0 .3-.1.5-.2l1.1-.8c.7-.5 1.3-1 1.6-1.3.1-.1.2-.3.3-.4h.1c.3 0 .6-.1 1-.3.1 0 .2 0 .4-.1v-.1c.4-.2.8-.4 1.3-.8.1-.1.2-.3.3-.4.2 0 .3-.1.5-.2.4-.3.9-.7 1.4-1.2.4.1.7.1 1-.1.4-.2.7-.5 1-.7l.6-.5.7-.4c.3-.2.7-.5 1-1l.9-1c.2-.3.4-.5.6-.7.3-.1.8-.3 1.3-.6.6-.3 1.2-.7 1.9-1.3l1-.9 1-1c0-.1.1-.1.1-.2 1.3-1 2.3-1.8 3.1-2.4.2-.1.3-.3.4-.4.4.1.8.1 1.2-.1.3-.2.7-.7 1.1-1.5l.7-1.2c.2-.3.4-.5.6-.7l.8-.4c.5-.3.7-.8.7-1.4 0-.4-.2-.9-.5-1.4-.5-.8-1-1.4-1.6-1.8-.2-.1-.3-.2-.3-.3v-.5c.1-.4.2-1 .2-1.8l.2-.2c.5-.6.8-1.1 1.1-1.4l.8-.8.8-1.1 2.6-4.6.2-.3c.1 0 .2-.1.3-.2.3-.1.6-.3.8-.4v.5c.1.8.4 1.6.9 2.2.1.2.2.3.3.5 0 .2-.1.5-.2.8-.1.5 0 .9.1 1.3.1.7.4 1.1.8 1.3.1.5.2.8.3 1.1v.8c0 .1.1.1.1.2v.4c0 .1.1.1.1.2v.2c.1.1.1.1.2.1l-.3.3c-.2.2-.3.7-.3 1.3l-.1 2.3h-.3c-.5-.1-.8.2-1 .8-.1.3-.2.8-.1 1.4v1.3c-.1.2-.2.5-.3 1v1.8c.1 1.2.4 2 .9 2.4.4.3.6.4.6.5l.2.7c.2.4.5.7.9.8.3.1.7.2 1.2.1s.9-.2 1.2-.5c.4-.3.6-1.1.6-2.2v-3.1c.3-.1.5-.3.6-.5.1-.3.2-.7.2-1.3v-.4c.1 0 .2.1.3.1.3.1.6.1 1 .1.5.5 1.1 1 1.7 1.5.5.4 1.5 1.1 3 2.2.9.6 1.7 1.1 2.3 1.4v.1c-.7.7-1 1.5-.9 2.4v.5h-.1c-.4.2-.7.4-.9.7-.2.3-.3.8-.3 1.3 0 .3 0 .8.1 1.5v1.1c-2.7 2.3-4.7 4.2-6.1 5.5-.5.4-.9.7-1.2.8-.6 0-1.1.1-1.4.2-.3.1-.5.4-.5.7-.1.4-.1.7 0 1 .3.5.8.9 1.5 1.3 1 .5 1.8.4 2.3-.2v-.1h.2c.3-.1.8-.4 1.3-.8 1.5-1.2 2.9-2.4 4.1-3.4.3 0 .7-.2 1.2-.5.9-.6 1.9-1 2.9-1.1.1.2.2.3.3.5-.6 1-1.5 2.2-2.8 3.7-1.4 1.7-2.4 2.9-2.9 3.7-.4.5-.6.9-.6 1.3v.2l-.3.3c-.2.4-.1.8.3 1.3.3.3.7.5 1.2.7h.2c.2.1.4.1.6.2.6.1 1.4.1 2.5.1.6 0 1 0 1.2-.1.4-.1.8-.6 1.3-1.4s1.8-2.4 3.8-4.8c.6-.6 1.1-1.3 1.5-2l.8-1.8c.6-.9.9-1.4.9-1.6v-.4l.3-.6c.1-.3.2-.5.3-.8.5-.8 1-1.5 1.4-2.3l1-1.8c.2 0 .3 0 .5-.1.7-.2 1.5-.3 2.5-.3.6.1 1.1 0 1.4-.1l.3.3c.3.2.5.3.8.1.3-.1.5-.3.5-.6s-.2-.6-.6-.9l-.6-.3c0-.2-.1-.3-.3-.5-.3-.5-.8-.8-1.3-1-.1 0-.2-.1-.3-.1.7-1.4 1.2-2.9 1.4-4.4v-.5l.8-1.3c.2-.3.3-.6.5-1l.1-.1 1.7-2.9c.2-.2.3-.5.3-.6h.2c.3.1.8.1 1.4 0h.4c.1.2.1.3.1.3.3.5.8.7 1.5.5.4-.1.7-.4.8-.7.1-.3.1-.7 0-1.1-.2-.7-.5-1.2-.9-1.7-.2-.3-.4-.4-.5-.4-.3-.1-.6-.1-1 0l-.3.3c-.1 0-.3.1-.4.1-.7.2-1.2.3-1.3.4-.5.3-.8.6-.8 1v.3h-.3c.1-.2.2-.4.2-.6.2-.8.3-1.6.2-2.2-.2-.7-.6-1.2-1.2-1.5h.2c1.3 0 2.2-.1 2.7-.5.5-.2.8-.5.8-.9 0-.2 0-.4-.2-.6-.2-.2-.4-.3-.6-.3h-1c-.1 0-.2-.1-.4-.1h-.8c0-.1-.1-.2-.3-.3l-.1-.3-.3-.5c-.1-.1-.3-.1-.5-.2-.2 0-.3-.1-.4-.1 0 0-.1-.1-.2-.1-.1-.1-.3-.2-.5-.3-.6-.3-1.3-.6-2-.9-2-.8-3.5-1.3-4.7-1.4h-.3c-.3-.2-.7-.4-1.1-.5-1.3-.7-2.3-1.2-3.1-1.5-.2-.4-.4-.7-.7-1-.2-.3-.3-.5-.6-.7.3-.3.5-.5.7-.8.6-.7 1.1-1.1 1.4-1.5 1.5-1.4 2.4-2.4 2.8-2.9.1-.1.1-.2.2-.3h.1c.1 0 .4-.2 1.1-.6l.9-.5c.2-.2.4-.4.5-.6h.5l.4.1h1.1c.4-.1.7-.4.7-.7s-.1-.6-.3-.8l-1.6-2.5c-.1 0-.1-.1-.2-.1-.5-.2-1.3-.6-2.6-1l-2.6-.8c-2.9-.9-6.5-2.3-10.9-4.2-5.7-2.5-9.2-4-10.5-4.5l-.3-.3-.6-.3c.4-.5.7-.9.8-1.2.3-.7.5-1.3.8-1.8.1-.1.3-.2.4-.4.7-.7 1.2-1.3 1.5-1.8.4-.5.5-1 .5-1.5 0-.2 0-.4-.1-.5l.1-.2c.1-.6.2-1 .1-1.3-.1-.6-.4-1-.8-1.2-.1-.4-.2-.7-.4-1.1-.3-.5-.6-1-1.1-1.6-.5-.7-1.1-1.3-1.5-1.7-.2-.2-.3-.4-.5-.6-1.1-1.1-2.4-2.3-4.1-3.4-.9-.6-2.4-1.6-4.4-2.8-2.3-1.4-4.2-2.5-5.7-3.1-.2-.1-.4-.2-.5-.3l-.1-1.6c0-1.1-.2-1.8-.7-2.3-.5-.3-1.1-.4-1.8-.3-.8.2-1.4.3-1.8.3h-1.7c-.3-.1-.7-.3-1.2-.5s-.8-.3-1.2-.3c.4-1 1-2.2 1.9-3.6.1-.1.1-.2.1-.3l2.5-3.5c.5-.8.7-1.3.8-1.5.2-.4.2-.8-.1-1v-.7c-.1-.3-.4-.5-.8-.7-.4-.1-.7-.1-1.1 0-.2.1-.8.4-1.8 1.1l-1.6 1c-.7.6-1.3 1.1-1.8 1.7-1 1.1-1.8 2.3-2.3 3.4-.4.7-.7 1.5-1 2.4-.2.8-.3 1.3-.4 1.6v5.2c.1.5.2 1 .5 1.3l-.3.4c-.2.3-.3.6-.3 1 .1.4.3.7.6.8.3.1.6.1 1 0 .1-.1.4-.3.9-.5l1.3-1.2c.5-.4.8-.8.9-1.1.2-.4.3-.9.3-1.5v-1.6c0-.2.1-.6.3-1.1.1.3.3.5.5.8.2.2.3.4.5.6v.2c-.1 1.4-.2 2.7-.3 3.9-1.9 2-3.8 4.3-5.8 6.8-.8 1.1-1.7 2.4-2.8 3.9v-.1c-.3-.2-.7-.4-1.3-.6-.2-.1-.5-.1-.7-.2.1-.5 0-.9-.3-1.4-.2-.3-.7-.7-1.4-1.1l-2.8-1.8c-.2-.1-.4-.2-.5-.3-.1-.4-.3-.8-.6-1.1-.2-.3-.6-.5-1-.9-.6-.4-.9-.6-1.1-.8-.4-.3-.8-.8-1.4-1.5l-1.8-2.3c-.8-1.1-1.6-2.1-2.3-2.8-.4-.4-1-.9-1.7-1.4l1.6-3.1c.3-.6.5-1.1.6-1.5.4-.8.7-1.5 1-2.2l1.2.2h4.3c.4 0 .9 0 1.6-.2 1.2.2 2.8.3 4.8.4 1 0 1.8-.2 2.1-.5.2-.1.3-.3.3-.5v-.1s0-.1.1-.1c0-.2-.1-.3-.4-.5-.5-.4-1.2-.7-2.1-1-.2-.1-.3-.1-.5-.2s-.4-.3-.7-.3c-.5-.2-1.1-.2-1.9-.2h-.1c-.7-.1-1.2-.2-1.8-.3-.1 0-.3-.1-.5-.2-.1 0-.3-.1-.4-.1h-.1c-.2 0-.3-.1-.4 0-.4 0-.8-.1-1.3-.1 0-.2-.1-.3-.2-.5-.2-.2-.4-.5-.8-.7-.5-.3-.8-.5-1-.6-.4-.4-.7-.6-1-.8-.5-.1-.9-.1-1.1-.1l-1.5-.3h-2.7c-1.3-.9-3-1.9-5-3.2l-5.5-3.2c2-5.3 4.3-10.5 6.9-15.6 2.3 2.1 5.1 4.6 8.3 7.3 1.5 1.2 2.7 2 3.5 2.2h.2l.3.4c.3.3.5.5.8.7-.1.2-.2.3-.4.5-.5.8-1.1 2.1-1.8 3.9l-1 2.7c-.3.7-.4 1.3-.3 1.7.1.6.4 1.1.9 1.4s1 .4 1.6.2c.5-.2 1-.6 1.3-1.3.2-.3.3-.8.5-1.3.4-.3.8-.8 1.3-1.7.3 0 .5-.1.7-.2.2-.1.4-.3.6-.6.2.3.5.4.8.5.5.1.9-.2 1.1-.9 0-.1.1-.1.1-.2v-1.6l-.2-2.4s.1 0 .1-.1c.3.1.6.3.8.4 1 .5 1.8.8 2.3.8.3 0 .6 0 .9-.1 1.4.5 2.7.9 3.8 1.3.7.3 1.2.4 1.5.5.3.1.7.1 1 0 .6.3 1.2.6 1.9 1 .1.1.3.1.4.2.4.3.8.7 1.3 1 .2.1.3.3.5.4.2.3.6.6 1 .9.4.3 1 .6 1.9 1 .5.2.9.3 1.1.3.2 0 .4-.1.5-.2.1-.1.3-.3.3-.5 0-.3-.3-.7-.9-1l-.6-.3v-.1c0-.3-.3-.6-.7-.9-.5-.5-1.2-1-2-1.5 0-.2-.1-.5-.3-.7-.2-.3-.6-.5-1-.8l-2.3-1.2c-2.4-1.2-5.1-2.4-8.2-3.5h-.2c.3-.4.5-.8.8-1.3l.3-.6c.3-.2.5-.5.7-.8.4-.6.6-1.2.5-1.6 0-.4-.2-.7-.6-1-.3-.2-.7-.4-1.1-.4-.4 0-.9.1-1.6.4-1.2.5-2 .9-2.4 1.1-.8.5-1.3 1-1.6 1.5 0 0-.1.1-.1.3-.7-.4-1.4-.9-2.2-1.4-1.7-1.3-3-2.2-3.9-2.9-2-1.5-3.9-2.7-5.6-3.5-2.2-1.9-4.4-3.7-6.8-5.6l2.3-3.2c.4 0 .9-.2 1.3-.6.5-.4 1-1 1.5-1.8.4-.6.7-1.1 1-1.6.1.1.3.3.4.5.2.3.6.8 1.2 1.4.4.5 1 1.2 1.7 2.2.8.8 1.5 1.1 2.3 1 .1 0 .1.1.1.1.4.2 1 .6 1.9 1 .8.4 1.4.8 1.8 1l1.1.8c.2.2.6.5 1.3 1l1.2.8c.6.3 1 .5 1.5.7.3.1.6.1.8 0 .3-.2.4-.4.3-.8 0-.2-.2-.4-.4-.8-.2-.3-.5-.6-1-1.1-.5-.4-.9-.7-1.2-.9l-.6-.4-1-1c-1.1-1.3-2.5-2.3-4.1-3.1-.1-.1-.2-.1-.4-.2-.2-.3-.4-.7-.8-1.1-1-1.2-2.1-2.3-3.3-3.2-.5-.4-.9-.8-1.2-1.2.1-.1.1-.2.1-.3.3-.7.7-1.6 1-2.7l.6-2.1c.1-.6.2-1.1.3-1.5.2-.5.3-.9.3-1.3.1-.1.1-.2.1-.3.2-.4.2-.9.1-1.4-.2-.7-.5-1.1-1-1.3-.6-.3-1.2-.2-1.8.3s-.8 1.1-.7 1.8c-.4.2-.8.7-1.3 1.3-.8 1-1.4 1.8-1.8 2.4-.3.1-.5.1-.7.2h-.1c0-2.8-.2-5-.6-6.5l.9-1.7c.4-.7.7-1.4 1-2.2.3-.9.5-1.6.6-2.1s.1-.8.1-1.1c0-.2-.1-.4-.3-.5.2-.3.3-.6.2-1-.1-.4-.3-.6-.7-.7s-.8-.1-1.1.1c-.3.1-.6.4-1 .7-.8.5-1.2.9-1.4 1-.4.4-.9 1.1-1.3 2l-.7 1.2c0-.1 0-.2.1-.4.2-2.6.2-4.7-.1-6.3v-.9c-.1-.4-.2-.7-.3-.9-.2-.4-.5-.5-.9-.5 0 0 .1-.1.1-.2.2-.6.1-1-.4-1.5-.2-.2-.6-.3-1-.3h-1.1c-.5-.1-.8-.1-1-.1-.5.2-.8.5-.8 1.1 0 .2 0 .3.1.5-.2 0-.5.1-.7.1l-1.3.3c-.5.1-.9.3-1.2.6-.4.4-.4.8-.1 1.3l-.1.7c0 .3.1.6.4.8l.3.1c.3.4.9.6 1.8.6v.5c0 .6 0 1.6.1 2.9 0 .9-.1 1.8-.3 2.9.1-.4.1-.7 0-.8 0-.7-.4-1.4-1.2-2.2-.4-.4-1-.9-1.9-1.5l-4.6-2.5c.4-.3.9-.7 1.4-1.3.1-.1.3-.3.8-.5.4-.2.6-.4.8-.6.3-.4.5-1 .5-1.6v-1.5c.1-.2.2-.3.3-.5.1-.3.2-.6.2-.8 0-.6-.3-1.1-.8-1.5-.5-.4-1.1-.4-1.6-.2-.3.2-.5.4-.8.6l-2.4 2.1c-.3-.2-.6-.3-.9-.3-.4 0-.7.2-.9.5-.2.4-.3 1 0 1.8v.2c-.2.3-.3.6-.4.9-.4.9-.6 1.7-.6 2.5 0 .6.1 1.1.3 1.5.2.3.5.7 1 1 .1 0 .1.1.2.1l1 1.4c.5.6 1.1 1.2 1.8 1.8.2.1.4.3.7.5l.6.7c.2.1.5.3 1.1.4.7.2 1.2.3 1.5.4h1c.2.2.4.3.5.3.4.1 1 .2 1.8.2l.3-.1.2-.3c-.3 1.6-.7 3.3-1.4 5.3-1 2.9-1.8 5.2-2.2 6.8-.9.4-1.5.8-1.8 1.2-.4.5-.6 1-.4 1.6.2.6.5 1 1.2 1.2.2.1.4.1.6.1.1.4.2.7.5 1-.2 0-.5.1-.7.1-.3.1-.6.1-.8.3-.1-.2-.1-.3-.2-.4-.2-.6-.6-1-1.1-1-.4 0-.8.3-1.3.8-.6.6-1 1.2-1 1.7s.2 1.1.7 1.6c.3.3.8.7 1.3 1.3l.3.3c-.1.6-.2 1.3-.2 2.1l-.3 3.6c-.3.1-.5.3-.8.6-.2.3-.4.7-.5 1.1-.4 1.5-.7 2.8-.7 3.8-.1.9.1 1.8.4 2.5-.1.1-.2.3-.2.5-.2.6-.3 1.1-.3 1.3 0 .4 0 .7.1.8 0 .1.1.3.2.3-.1.5 0 1 .4 1.5.5.6 1.1.8 1.9.5.3-.2.6-.5 1-1l.7-1.1c.2-.5.4-.8.4-1v-.7c0-.2 0-.4.1-.5.1 0 .1-.1.1-.1.2-.3.3-.7.5-1.3.7-3.5 1.3-6 1.9-7.8.5-1.1.9-2 1.3-2.9.2 0 .4-.1.5-.2l.1-.1c.1 0 .2.1.3.1.4.1.9.1 1.8.2 1.3 1.5 2.7 3 4.2 4.5-.2.2-.4.5-.6.8-.1.2-.3.4-.4.5h-.3c-.2.1-.4.3-.8.7l-.9 1-.6 1c-.9 1.5-1.4 2.7-1.6 3.7-2.4 4.5-4.8 10.4-7.1 17.8-.2.7-.4 1.3-.4 1.8s.1.9.3 1.3c-.5 1.7-.9 3.1-1.1 4.1v.3c-.1.1-.1.2-.2.3-.1.2 0 .6 0 1 0 .2-.1.6-.2 1 0 .3 0 .9.1 1.5 0 .6 0 1.6-.1 2.9 0 .6 0 1.4.2 2.5v1.4c-.7-.2-1.3-.5-2-.8-.5-.4-1.1-.9-1.8-1.4-.8-.5-2.9-1.8-6.1-3.7-.6-.4-1.2-.7-1.8-1.1 0-.2-.2-.5-.3-.8-.2-.3-.5-.6-1-1 1.5-2.1 2.5-3.5 3-4.4.2-.4.5-.8.7-1.2l3.1-3.5c1-1.1 2-2.3 2.9-3.5.5-.6.8-1.1.7-1.6 0-.4-.3-.7-.7-.9-.3-.2-.7-.3-1.2-.3-.5.1-1.2.4-2.1 1.1-.3.3-.6.5-1 .8-1.3-1.8-2.3-3.2-3-4.2-.6-.9-1.1-1.7-1.5-2.4.1-.2.2-.4.2-.7.2-1.5.3-3.8.3-6.9l-.5-10.3c.3-1.8.7-4 1.2-6.7.4.3.9.7 1.5 1.1.6.4 1 .5 1.3.4s.5-.3.6-.5c.1-.3.1-.6.1-.9-.2-.5-.6-1-1.2-1.3-.8-.6-1.3-.9-1.4-1-.1-.2-.2-.4-.3-.5l.3-1.5c.2-.8.3-1.6.5-2.2.2-.2.5-.4.7-.8.2-.3.4-1 .6-2 .2-.8.3-1.4.2-1.9-.1-.3-.2-.6-.3-.8l.1-.3c0-.4-.1-.7-.5-1-.4-.3-.8-.4-1.1-.3-.6.1-1.2.6-1.9 1.4-.8 1-1.5 2.3-2.2 3.9l-.5 1.4-.3-.3c-.8-.6-1.4-1.1-1.8-1.4-.8-1-1.4-1.7-1.9-2.1-.3-.3-.9-.7-1.6-1.2-.7-.5-1.3-1-1.7-1.5-.2-.2-.4-.5-.6-1-.1-.3-.3-.5-.4-.7 1.2-5.4 3-9.6 5.3-12.6.3-.4.8-.9 1.4-1.7.6-.7 1-1.3 1.3-1.8.6-1 1.2-2.1 1.5-3.5.2-.8.5-2.1.9-3.8.4-2.3.7-4.1.8-5.3.2-2 .1-3.7-.2-5.3-.2-1-.6-1.6-1.1-1.7-.4-.1-.8.1-1.2.5-.3.4-.6.8-.7 1.3-.2.6-.7 3.2-1.7 8-.6 3.2-1.5 5.6-2.6 7.5-.7 1.1-1.8 2.5-3.4 4.4-1.8 2.4-3.2 5.4-4.3 9.1-.3-.5-.5-.8-.7-1-.5-.5-1-.8-1.6-.9-.3 0-.7.1-1 .4-.1.1-.3.2-.3.3-.2-.7-.5-1.1-1.1-1.2-.4 0-.8.2-1.4.6-.7.6-1.2 1.2-1.5 1.8-.4.8-.5 1.5-.3 2.3.2.5.5.9 1 1.4.1.1.6.5 1.4 1.1.8.7 1.6 1.4 2.3 2.2-.1.4-.3.9-.5 1.5-.4 1.2-.7 2-.8 2.5-.2.8-.4 1.8-.5 3-.3 2.6-.3 5.3-.2 7.9.1.8.1 1.5.1 2l-.2 1.7c0 .5-.1 1 0 1.7-.3 1-.6 2.2-1 3.5-.2 1.1-.4 2.4-.6 3.9-.1.1-.3.2-.4.2-.8.2-1.4.5-2 .7-.9-.9-1.8-1.8-2.9-3-2.7-2.8-4.5-4.7-5.4-5.5-.6-.6-1.2-1-1.7-1.5 2.2-2.4 4.7-5.5 7.5-9.5.3-.4.5-.8.4-1 .4-.4.5-.8.5-1.1-.1-.5-.4-.7-1-.8-.4 0-.9.1-1.4.4-1.1.5-2.3 1.3-3.4 2.5-.6.6-1.5 1.6-2.6 2.8l.5-2.5c.4-2.2.8-4 1.3-5.4l.9-2.4c.5-1.7.8-3 1-3.9.1-.4.2-.8.4-1.2.1-.1.1-.2.1-.2.1-.2.1-.3.2-.5.3-.7.6-1.2 1-1.7.1-.2.3-.3.3-.5h.3c.2 0 .4 0 .5-.1.1 0 .3 0 .3-.1.6.4 1.2.7 1.7.7.7.1 1.2-.1 1.7-.5.3-.3.5-.7.5-1.2 0-.3-.1-.5-.2-.7 0 0 .1-.1.2-.1 1-.8 1.6-1.7 1.8-2.7.1-.5 0-.8 0-1-.2-.4-.5-.6-.8-.5-.4.1-.8.3-.9.5l-.5.5h-1.1l-3.6.3h-.3s-.1-.1-.2-.1c-.4-.4-.7-.6-.9-.8-.1-.1-.2-.1-.3-.2 0-.3-.1-.5-.3-.8-.2-.4-.7-.9-1.6-1.5-.2-.1-.4-.2-.5-.3.1-.2.2-.5.3-.8 1.9-4.5 3.9-8.9 6.1-13.3.3 0 .7 0 1.2-.3.3-.1.5-.3.7-.5.2-.2.3-.4.3-.7l.8.1v.3c.2.4.5.6 1 .7.1 0 .4.1.7.1.1.1.2.2.3.5l.3.3.4.2h1.8c.1.1.1.2.2.3.2.2.3.3.5.3.2.4.5.6 1 .6.5-.1.8-.3.9-.7.1-.2.2-.4.2-.6 0-.5-.1-1.1-.3-2l-.2-.5c-.1-.1-.2-.1-.3-.2v-1.1c.1 0 .3-.1.4-.1l.3-.2c.2-.2.3-.4.3-.7s0-.5-.2-.8c-.1-.1-.2-.2-.4-.3.1-1 .1-1.7-.1-2.3-.3-.6-.6-.8-1.1-.8h-.3v-1.2l-.1-.1v-.7h.1c.1 0 .1-.1.2-.1h.8s.1-.1.2-.1h.4c.4-.1.7-.3.9-.5.4-.5.6-1.1.3-1.7l.1-.1v-.2l.1-.1v-1.3l-.1-.1v-1.9h-.1v-.3c.2-.5.5-1 .7-1.4h.7c1 0 1.9 0 2.8-.1.2.4.5.7.9.9.1 0 .5.2 1.4.3.8.2 1.3.2 1.5.2.2 0 .4-.1.6-.2.2.2.4.4.5.4.2 0 .5 0 .6-.3.2-.2.3-.4.3-.7 0-.4-.2-.8-.5-1.3l-3.6-6.5c-.1-.3-.3-.4-.5-.3h-.1c-.1-.2-.3-.4-.4-.7 0-.1-.1-.2-.1-.3-.1-.3-.3-.5-.4-.7-.1-.3-.2-.4-.3-.3h-.1c-.1-.2-.1-.4-.3-.7 0-.1-.1-.3-.1-.4l-.2-.7c0-.1-.1-.3-.1-.4v-.2l-.1-.2c0-.1-.1-.3-.1-.4-.1-.2-.1-.4-.2-.6.3-.1.4-.2.4-.4s.1-.5.1-.8c.1-.3.1-.7 0-1.2 0-.4-.3-.7-.7-.6h-.2c-.1-.6-.2-1.2-.2-1.8l-.1-4c-.4-.2-.7-.5-1-.8l-.1-.2v-.8c-.1-1.5-.2-2.9-.5-4.4-.2-1.4-.4-3.1-.5-5l-.3-.4s-.1-.1-.2-.1v-.1c-.2-.4-.4-.7-.7-.8-2.3-1.7-2.6-1.7-2.9-1.7m-24.3 47.7l1.9.4 1.6.8.8.2c.8.2 1.8.3 3 .3h.7c.6-.2.9-.5 1-1.2v-.5h.5c.2.3.4.7.6 1.2l.5 2.1c-.5.9-1.1 1.9-1.7 3-1.7 3-2.9 5.3-3.6 6.8-.6 1.1-1.2 2.4-1.8 3.9-2.9-1.9-5.6-3.9-8.3-6-.9-.7-1.6-1.2-2.3-1.6 1.4-3.5 2.4-6.1 3.3-7.8l1-1.8c.4 0 .9 0 1.3-.1h.2c.2.1.4.2.5.3h.8m.6 20.7l.3.3c.2.2.4.3.6.5-.5 1.3-1.1 2.8-1.7 4.3-1 2.5-1.6 4.5-1.8 6-.4 1.4-.7 2.5-1 3.5-.1.5-.1.9-.1 1.2v.1c-.1.4-.1.8.1 1.1l.2.2c.2.4.5.5.8.5.1 0 .1 0 .2-.1.5 0 .9-.2 1.2-.6.2-.2.5-.6.8-1.1l.6-1c1.3-1.3 2.4-2.9 3.4-4.9.6-1.3 1.4-3.2 2.3-5.6.1-.2.3-.4.3-.5l.4.1c.4.1.7.2 1 .3.1.1.2.1.3.2.3.3.7.6 1.1 1 .4.3.9.7 1.6 1.2 0 .3.1.5.3.6-.5.5-.9 1-1.4 1.6-.2.2-.4.5-.5.8-.4.2-.7.5-1.1 1-.5.5-.9 1.2-1.4 2.1-.7.7-1.2 1.5-1.5 2.3-.5.9-.9 2.4-1.4 4.4l-.3 1-.5 1.2c-.5 1.1-.9 1.9-1 2.5-.2.5-.4 1.4-.6 2.9 0 .2-.1.3-.1.5-.2-.4-.5-.8-.8-1.2-.8-1.2-1.8-2.9-3.3-5.3-1.4-2.4-2.5-4.2-3.3-5.3l-3-4.1-.6-4.2c-.4-1.8-.7-3-.9-3.6l-.5-1.3c.1-1.4.3-3.3.7-5.7.1-.1.1-.2.1-.3l1.8-4.6.6.6c1.3 1.4 2.4 2.6 3.2 3.4 1.6 1.5 3.3 2.9 4.9 4m28.1 28.1h-.2c.2-.9.3-1.8.5-2.7.2-2.1.5-3.9.6-5.4.3 0 .6-.2.9-.4l.3-.3c.3.3.6.6 1 .9.5.5 1.3 1.3 2.3 2.5 1 .8 1.5 1.2 1.5 1.3.3.3.7.7 1.2 1.4l.2.2c-.7 3.5-1.2 5.9-1.3 7.3-.2 1.6-.3 3.5-.3 5.7v10.4l-1.8-.3c-.3-.3-.8-.5-1.3-.8-1-.3-1.8-.5-2.3-.7-1.2-.4-2.1-.8-2.8-1-.5-.2-.9-.3-1.3-.4-.1-.2-.1-.4-.3-.7l-1.2-2.3c.1-1 .3-2.2.7-3.6.1-.1.2-.2.3-.4l1.7-1.8c.2-.1.3-.3.5-.4.9-.8 1.8-1.5 2.8-2.1.9-.5 1.4-.9 1.7-1.1.6-.5 1-1.2 1.3-2.1.2-.5.4-1.3.6-2.4.1-.6.2-1 0-1.3-.1-.5-.4-.8-.9-.8-.3 0-.6.3-.9.7-.1.1-.3.5-.7 1.2h-.1c-.9-.4-1.9-.6-2.7-.6m40-7.2c.1 0 .1 0 0 0l.4.7c.3.7.6 1.2.9 1.7-.1.3-.2.6-.4.9-.2.5-.3.8-.3 1.1v.6c0 .2 0 .4-.1.7 0 .1-.1.1-.2.2-.3.4-.5.8-.5 1.2-.2.3-.4.6-.6 1-.6.8-1.2 1.6-1.6 2.3-.2-.2-.4-.3-.6-.5v-.8c0-.7-.1-1.3-.3-2 .1 0 .2-.1.3-.1.4-.1.7-.3.9-.6.1-.1.3-.4.5-.9.5-1 .8-1.9 1-2.7l.6-2.8m-28.2 55c.9.7 1.8 1.4 2.8 2 1.2.9 2.2 1.6 3 2.1 2.4 1.5 4.7 2.5 6.9 2.9.4.1.8.1 1.1.1.1.1.2.2.3.2.2.1.4.2.6.2 0 .8.1 1.5.1 1.9 0 .5.1.9.2 1.3.1.2.2.4.4.6 0 .1 0 .3-.1.4-.8 1.6-1.5 3.1-2.3 4.4-.3 0-1.1 0-2.5.1-.7 0-2-.1-4-.3-1.1-.2-2.1-.2-3-.2h-2.1c-.4-.3-.8-.3-1.2 0-1.2-1-2.1-1.7-2.9-2.1-.1 0-.1-.1-.2-.1-.2-.1-.4-.2-.5-.3l-4.6-2.9c-.2-.1-.3-.2-.5-.3l.3-.6c.5-1.3 1.3-3 2.3-4.9l.8-1.6c.5-.7 1-1.4 1.6-2.3l1.1-1.5c.5.3.9.6 1.3.6.2.1.5.1.7 0 .2.2.3.2.4.3m-13-43.3c.1 0 .1 0 0 0m-27 11.1l-.4-.1-1.4-1.8 4.6-4.7.3.3c1.5 1.5 2.7 2.7 3.8 3.7.7.6 1.8 1.6 3.3 2.8l1.2 1.2c.5.5.9.8 1.3 1 .4.3.9.5 1.5.8l-.2.1c-.2.1-.3.2-.4.3-.7-.3-1.5-.5-2.5-.8v-.1c-1.7-.7-3.7-1.1-6-1.3h-.1c-1.2-.4-2.8-.9-5-1.4m2.8 6.1c.6.2 1.2.3 1.9.5 2.8.6 5 .9 6.5 1.1l-2.2 2.3c-1.5 1.7-2.7 3.3-3.6 4.7-1.3-.7-2.7-1.6-4.3-2.7l-2.6-2.8c-.5-.6-1-.9-1.4-.9-.1-.1-.1-.2-.2-.3-.3-.4-.7-.6-1.2-.6 0 0-.2.1-.5.1s-.6.2-.8.5c-.4 0-.6.1-.8.4-.3.4-.2.9.3 1.6v.3c.1.4.3.8.6 1.1.2.3.5.5.7.6.4.4.8.8 1.2 1.3 1.4 1.6 2.7 2.9 3.9 3.9.3.4.5.7.8.9 0 .1.1.2.2.3.2.2.5.3 1 .3.3.4.6.9 1 1.4-.5.8-.9 1.5-1.3 2.3-.2.3-.3.5-.5.8-.1.2-.3.5-.4.8-1.5 1.6-2.4 2.5-2.6 2.9l-1.9 2.7c-1 1.1-1.8 2.2-2.5 3.3v.1c-.3.2-.5.3-.8.5l-.7.1-3.1-1.5c-.6-.3-1-.5-1.4-.6.2-.2.3-.5.4-.8.1 0 .1-.1.2-.1.3-.2.5-.6.8-1.1.3-.6.5-1 .6-1.3l.6-1.1c.2-.4.4-.8.5-1.2.2-.6.1-1.2-.1-1.9-.2-.4-.4-.7-.7-.9-.5-.3-1-.2-1.6.2-.1.1-.3.2-.4.4-.2-.1-.4-.2-.7-.3 0 .1-.1.1-.3.1-.4.1-.8.3-1.1.5-.3.3-.5.6-.5 1l-.8.8c-1.1 1.4-1.8 2.4-2.2 3.2l-.8 1c-.1 0-.1-.1-.2-.1.4-.9.4-1.4 0-1.8-.5-.4-1.2-.1-2 .8-.2-.6-.8-1.2-1.6-1.9l-.3-.3c2.5-3.5 4.7-6.6 6.5-9.5 1.4-2.2 3-4.6 4.6-7.3h.2c.3-.2.8-.9 1.6-2 .6-.9 1.2-1.8 1.9-2.7.2 0 .3-.1.5-.1 1.1.3 2.4.6 4.1.8l5.5.2m7.5 15.3l.5-.3c.3.1.7.1 1 .2-.4.6-.8 1.3-1.3 2-1.1 1.9-2.3 4.4-3.6 7.5-1.1 2.5-1.9 4.3-2.5 5.6l-.2-.5c-.2-.6-.5-1.1-.7-1.5.1-.4.3-.9.4-1.4 1-2.5 1.7-4.7 2.4-6.5.6-1.3 1.2-2.6 1.7-3.8.1-.1.3-.2.4-.3l1.9-1m23.7 39.3c-.1.2-.3.5-.7 1-.2.4-.4.8-.4 1-.1.5-.1.9 0 1.3v.2l-.5 1.9c-.3.6-.5 1.1-.6 1.5-.5.7-1.1 1.7-2 3-.6.9-1.2 1.6-1.8 2.3l-.4.5-.2-4.2c0-.4-.1-.7-.2-.9 1.1-1.2 2.2-2.7 3.4-4.4 1.6-2.2 3-4.1 4.1-5.5v.2c-.3 1.2-.6 1.9-.7 2.1m-22.9-20.8s.1.1.2.1v.2c-.1.3-.2.6-.4.9-.1 0-.2.1-.3.2l-.5.6-1.6 2.5c-.7 1.2-1.4 2.6-2.1 4.1 0-.3-.1-.5-.3-.6.8-1.6 1.8-3.9 3-6.9l.6-1.5h.9c.1 0 .3.2.5.4m12.3 32.5c.1 0 .1-.1 0 0-.6 2.1-.7 4.3-.2 6.4 0 .1.1.3.1.5-.9-.1-1.6-.3-2.1-.5l-1.3-.5c.5-.7 1.2-1.7 2-3 .4-.7.8-1.3 1-1.9.4-.3.5-.7.5-1m108.5-4c1 .3 2.3.8 3.8 1.5l8.5 3.7-.3.3c-.2.2-.6.6-1.3 1.2-.5-.2-1-.2-1.7.1-.6.3-1.1.9-1.6 1.9-.2.3-.3.5-.4.8-1.1 1.2-1.8 2.2-2 3.2-.4.4-.9.9-1.3 1.5l-.5.6c-.2.3-.4.7-.7 1.3l-.3.9c-.1.4-.1 1-.2 1.8-.1 0-.2 0-.3-.1h-.6v.1h-3.2c-.1 0-.3.1-.4.1-.2 0-.3.1-.5.1V1771s0-.1-.1-.2v-5.1s0-.1-.1-.2v-1.1l-.1-.1c.3-.9.4-1.9.3-3 .2.1.4.2.7.3.2 1.3 1.1 1.6 2.3 1.9m10.1 17.7l.1.7v.8c0 .4.3.8.9 1.1.3.1.8.3 1.4.5.5.2 1.3.5 2.4.9 1 .5 1.8.8 2.3.9l3.8 1c.5.1.9.1 1.2 0 .5.3 1.1.4 1.8.5-.1.1-.2.1-.3.2-.4.2-.6.5-.7.9v.1c-.2.3-.5.7-.8 1.1-.3.5-.7 1.1-1.3 2l-1.3 3c-.1.4-.1.8-.1 1.2l-1 .9c-.2.2-.3.4-.5.5l-.3-.3c-.5-.4-1-.6-1.6-.4h-.1c-.1 0-.2.1-.3.1-.2.1-.5.3-.8.6-.3.2-.6.4-1 .8l-1.5 1.5c0-.3 0-.7-.1-1 0-.6-.1-1.1-.1-1.6.1-.5.1-1.1 0-1.8-.1-.6-.2-1-.4-1.3-.3-.4-.7-.6-1.3-.5-.5.1-.9.4-1.2.8-.1.2-.2.5-.3 1v.1c0 .1-.1.1-.1.2-.1.1-.1.3-.2.4h-1.1l-1 .3c-1.1-.7-2.1-1.4-3-2.2l-.7-.6c-.3-.2-.8-.5-1.4-.8-.2-.1-.5-.2-.6-.3 0-.1-.1-.2-.2-.3-.1-.2-.3-.4-.4-.6 0-.2.1-.4.1-.6.1-.6.1-1.2.1-1.8.3-.1.5-.3.7-.6.2-.3.3-.8.3-1.3v-.9.1c.2.4.5.8.8 1 .4.2.8.3 1.3.3.5-.1.9-.3 1.2-.6.2-.2.4-.6.7-1.1.9-1.7 1.9-3.2 2.9-4.4.7-.8 1.1-1.5 1.3-2v.3c0 .1 0 .2.2.4l.2.8m5.5 21.8s-.1.1-.2.1l.2-.1c0-.1 0-.1 0 0m-182.5-84.9s.1 0 .2.1h.6l.6.3c2.4 1.1 4.4 2 6 2.6-.2.7-.5 1.4-.7 2-.1.2-.2.4-.3.7 0 .1-.1.3-.2.4-1.9-2.2-4-4.2-6.3-6 .1 0 .1-.1.1-.1m2.8 11.2h.2c-.2 1.3-.3 2.7-.3 4.2v.3c-.2.3-.5.6-.7.9l-4.3 5.5c-.2.3-.5.6-.8 1 .4-.8.8-1.7 1.2-2.5.2-.5.4-1 .6-1.4 1.4-2.7 2.6-5 3.7-7 .1-.3.2-.5.2-.7.2-.2.2-.2.2-.3m11.1.3c0 .1 0 .1-.1.2.1-.1.1-.1.1-.2m8.7 1.9c.4.1.8.1 1.2.1.3.2.5.5.8.7l1.2 1c-.1.2-.3.5-.5 1l-.8 1.2c-.2.2-.3.5-.5.8-.2-.1-.3-.2-.5-.3-.9-.5-1.8-.9-2.5-1.3l-1.2-1.8c-.2-.3-.4-.5-.5-.7l.3-.8c.2-.3.4-.5.5-.7 1.4.5 2.3.7 2.5.8m-32.8 33.3c1 1.1 2.2 2 3.6 2.9.2.1.3.2.4.2.4.4.8.7 1.1.8-.1.7-.2 1.6-.2 2.6v2.1c-.3.5-.6 1-1 1.5l-2.5 3.4c-.8.3-1.7.6-2.7.8-1.2-1.7-2.4-3.3-3.6-4.9-.2-.2-.4-.4-.5-.4-.3 0-.6.2-.8.6-.2.4-.2.8-.3 1.2l-.1-.1c-.2-.1-.4-.2-.6-.2 0-.1-.1-.2-.1-.3-.5-1.2-1-2.2-1.5-3.1.4-.2.7-.3.9-.4.2-.2.5-.6.9-1.3.1-.1.1-.2.2-.3 1.1-.5 2.1-1.3 3.1-2.4.7-.7 1.5-1.9 2.7-3.4l.1-.3c.2.3.5.6.9 1m3.5-5.8l-.8-.3 6.9-9.5c3.4-4.7 5.8-8 7.2-9.8 1.9-2.5 3.4-4.5 4.6-6-1.2 3.8-1.9 6.6-2.3 8.4-.3 1.7-.4 3-.4 4 0 .6.1 1.1.3 1.3l.2.2v.8l.3-.3c.1 0 .1.1.2.1.2.1.4 0 .5-.2 0 0 .1-.2.3-.5.1 0 .3-.1.4-.2.3-.2.7-.8 1-1.5v-.1l.7-.9 3.6-5.9c.2 0 .4.1.7.1.7.1 2.1.3 4.3.8.6.3 1.2.6 1.9.9v.1l-4 9c-.2.5-.4.9-.5 1.3-.1.3-.3.6-.5.9-.7 1.3-1.1 2.5-1.3 3.6v.2c-.1.2-.1.4-.2.6v.6c-.1.2-.3.4-.4.6-.3.6-.7 1.5-1.3 2.8-.1-.1-.3-.2-.5-.3-.5-.1-.9-.1-1.3.1s-.7.5-1.1 1l-.1.1c-.4.2-.8.7-1.4 1.5-.3.6-.6 1.1-1 1.7-.2 0-.4.1-.6.2-.5.2-1.1.6-1.8 1 1.2-2.2 2.1-4.1 2.6-5.7v-.3c.2-.4.2-.7.2-1.1 0-.1-.1-.2-.1-.3.1-.2.2-.5.2-.7 0-.3-.1-.5-.3-.8-.2-.2-.4-.4-.6-.4-.5.1-.9.3-1.2.6-.2.1-.3.3-.5.5-.4.1-.8.4-1.2.9l-.1.1-1 1c-.4.6-1 1.4-1.9 2.5-.3.5-.5.8-.5 1-.1.1-.2.3-.3.4-.4.6-.7 1.1-.8 1.6-.1.3-.2.5-.3.7h-2.7c-.1 0-.3 0-.4.1-.2-.1-.4-.1-.7-.2h-.2c-.3-.1-.6-.1-.9-.1-.1 0-.1-.1-.2-.1s-.2-.1-.3-.1c.2-.3.2-.7.1-1.1-.3-.5-.4-.9-.5-1.2-.1-.3-.2-.7-.2-1.4 0-.6-.1-1-.3-1.3-.4-.2-.8-.5-1.5-1m2.1 24.2c-.9 1.8-1.4 2.8-1.5 2.9l-.2.3c-.3-.4-.6-.8-.9-1.3.8-1 1.5-2 2.1-2.8.9-1.2 1.7-2.3 2.5-3.5-.6 1.7-1.3 3.1-2 4.4m53.6-203.4c-.4.3-.7.7-.9 1-.3.4-.8 1.2-1.4 2.4l-2 4c-.3.6-.6 1.2-.8 1.7-.1.2-.2.3-.3.5-.4.6-.7 1.4-1.1 2.3l-.8 2h-2.1c-.1 0-.2 0-.3.1h-.5c-.1-.4-.2-.9-.5-1.4l-.3-.6v-.3c-.2-.5-.6-.9-1.3-1-.2 0-.3-.1-.4-.1l-.1-.8c-.1-.5-.2-.9-.3-1.1-.2-.2-.4-.4-.8-.4-.2-.1-.4-.2-.7-.2h-.5c0-.1-.1-.2-.1-.3-.3-.3-.4-.5-.5-.5-.2-.1-.5-.2-.8 0-.3.1-.5.3-.5.5-.1.3-.2.8-.2 1.6.1.6.1 1.2 0 1.8v1.2c.1.4.3.7.7.8 0 0 .1 0 .1.1.1.3.2.6.4.8v.5c.1.3.4.7 1 1.2l3.9 3.3v1.7c0 .2.1.4.1.6-.1.3-.1.6.1.9 0 .1.1.2.2.4.2.2.4.4.7.4h.1c.4.1.7.1 1-.1.1 0 .2-.1.3-.2l.4-.1c.3-.1.4-.2.5-.2.1 0 .2.1.4.3l.5.3c.1.1.4.3.8.6.4.2.7.4 1 .5.7.2 1.3-.1 1.6-.9.2-.1.2-.3.3-.5.1-.1.1-.2.2-.3.1-.2.1-.4 0-.7v-.3c-.1-.5-.2-.9-.3-1l-.6-.6-.4-.1c0-.1-.1-.2-.1-.4 0-.1.1-.2.1-.3 0-.1.1-.5.2-1.2l.3-2.2c.2-.4.4-.8.6-1.3 1.2-2.9 2.8-6 4.8-9.3.7-1.1 1.1-1.9 1.3-2.3.4-1 .5-1.9.3-2.7-.1-.5-.3-.9-.6-1.2-.4-.3-.9-.3-1.3-.1-.1.1-.3.2-.4.5-.1.1-.5.3-1 .7m11.8-21.6s.2 0 .6-.1c.3-.1.5 0 .6 0l.3.4c.3.5.8.7 1.4.6.2 0 .5-.1.8-.3.3.1.7.1 1.2 0 .1 0 .3-.1.4-.1h.2c.1.3.2.4.3.5l-4.3 10.7c-.2.5-.3.9-.3 1.3-.6.3-1 .5-1.3.6-.3.2-.7.3-1.2.4h-.1c-.6-.4-1.2-.7-1.7-.9h-.1c-.1-.3-.3-.6-.6-.8s-.6-.5-1.1-.7c-.8-.4-1.7-.9-2.8-1.4-.1-.3-.3-.6-.5-.9-.6-.9-1.4-1.3-2.4-1.3-.5 0-.9.1-1.3.4-.4.3-.7.6-.9 1.1s-.1.9.1 1.3c.1.3.4.6.7.7l.6.6 1 1.1.9.5c.7.9 1.4 1.5 1.9 2 .4.4.8.7 1.3.9 0 .1.1.1.1.2.3.3.6.5 1.1.8 1.6.9 3 1.5 4 1.5l.2.2c.3.3.8.6 1.4.7.4.1.9.1 1.6.1.7.1 1.2 0 1.5-.1.3-.1.5-.3.6-.5.5.1 1 0 1.3-.4.2-.2.3-.5.2-.8-.1-.3-.2-.6-.4-.7-.2-.1-.4-.2-.8-.2.1-.1.2-.3.2-.5.2-.6.2-1.2.1-1.8.1-.1.3-.2.4-.3.7-.5 1.4-1.2 2.1-2 .5-.6.8-1.2.9-1.7.1-.3.1-.7 0-1 .5-1 1.1-2.3 1.7-4l2.3-7.3.2-.9c.1-.4.1-.8 0-1.2 0-.5-.2-.8-.5-1h-.2c-.1-.2-.3-.4-.6-.5-.3-.1-.5-.1-.8-.1-.3.1-.7.4-1.2.9l-.5.6-.3.3-1.2 1.1h-.7c-1 0-2.2-.1-3.4-.3-1-.2-1.7-.4-2.1-.4-.9.1-1.5.4-1.7 1-.1.4-.1.7.1 1.1.1.4.3.6.7.6m-1.8.9c-.3-.3-.6-.5-1-.4-.3.1-.7.3-1 .6s-.5.5-.6.8c-.1.2-.2.4-.2.7s.1.5.2.8c.2.3.4.5.8.5.3.1.6.1.8 0 .1 0 .1-.1.2-.2.2.1.3.1.5 0 .1 0 .3-.1.5-.3l.3-.4c.1-.2.1-.4 0-.6 0-.1-.1-.2-.3-.3.2-.5.1-.9-.2-1.2z"/></svg>