<svg xmlns="http://www.w3.org/2000/svg" id="bodyhair" viewBox="0 0 3000 3000"><path id="cl1" d="M1698.1 2505.1c-.6 1.3-1.7 4-3.3 8.1-5.5 13.9-11.1 26.3-16.8 37.1-2.6 5.1-5.1 9.2-7.4 12.4-.7.9-1.1 1.6-1.3 2.1-.4.8-.5 1.6-.5 2.4.9 0 1.9-.7 2.9-1.9 6.8-8 13-18 18.7-30 3.5-7.3 7.9-18.3 13.4-33l2-5.1c.3-1 .7-1.7 1.2-2.2.4-.3.7-.6.8-.8.3-.3.4-.6.4-.9-.1-.4-.4-.7-.9-.8-.5-.1-1 0-1.4.3-1.3.7-2.6 2.2-3.9 4.4-1.3 2.3-2.6 4.9-3.9 7.9m142.3 16.9c-4.6-3.7-8.8-6.8-12.7-9.3-3.8-2.5-9.6-5.9-17.5-10.3-4.5-2.5-7.8-4.3-9.9-5.3-3.7-1.9-7.2-3.4-10.3-4.5-.5-.2-1-.2-1.4-.2-.5.1-.8.3-.9.8-.1.5.3 1 1.1 1.5 22.1 12 43.4 24.9 63.8 38.7.1 0 .3 0 .4-.2.1-.1.1-.3.1-.5-.1-.3-.3-.5-.5-.8-5.6-4.5-9.6-7.9-12.2-9.9m-57.4-162c-.5 0-.8.1-.8.4-.1.4.1.8.6 1.3 7.5 6.3 18.1 14.2 31.9 23.9 12.3 8.6 21.8 14.8 28.3 18.6 4.1 2.3 7.2 3.8 9.5 4.4 1.1.3 1.8.3 2.2 0l-70.4-48.3c-.5-.3-.8-.3-1.3-.3m-102.8-26.7c.8-.4 1.2-.8 1.3-1.2 0-.3-.1-.6-.5-.9-.3-.2-.6-.3-1-.4-1.1 0-2.2.4-3.2 1.4-.7.6-1.5 1.6-2.3 3-4.2 6.8-8.1 14.9-11.8 24.3-2.2 5.7-5.1 14.2-8.8 25.6-1.8 5.9-3.1 9.9-3.7 12-1.3 4.5-2.2 8.5-2.8 12.1-.1.6-.1 1.1.1 1.6.2.6.5.9 1 .9.7 0 1.1-.5 1.4-1.5 5.5-16.8 9.7-29.4 12.5-37.8 5-14.9 10.2-27 15.5-36.3.9-1.6 1.7-2.4 2.3-2.8m81.1-76.1c-.2.6.3 1.2 1.3 1.8 15.2 6.7 25.2 11.1 30.1 13 9.7 3.9 18.7 7.1 27 9.5.7.2 1.2.1 1.3-.3-1.5-.3-3-.9-4.8-1.8-.4-.2-1.9-1.1-4.5-2.7-4-2.4-9.4-4.9-16.1-7.4-9.9-3.9-15.5-6-16.5-6.5-2.2-1-3.9-1.7-5-2.2-1.9-.8-3.6-1.5-5-1.9-3.1-.9-4.9-1.5-5.4-1.8s-1-.4-1.4-.5c-.5.1-.9.3-1 .8m-175.2 117.6l22.3-41.5c5.1-9.4 8.9-16.4 11.5-21.1 7.4-13.2 15.4-26.6 24-40.2.8-1.3 1.3-2.3 1.5-3-1.4 0-2.8.6-4.2 1.8-1 .8-2 2.1-3.2 3.7-6.2 8.8-12.7 19.2-19.3 31-3.9 7-9.6 17.8-17.2 32.4-4 7.7-7 13.7-8.9 18-2.9 6.7-5.1 13-6.5 18.9m-200.5-61.7c-.3.6 0 1.3.9 2.1 1.9 1.8 6.2 5.7 13 11.8 5.4 4.8 9.6 8.8 12.7 12 .5.5 1.9 2.1 4.3 4.7 1.7 1.9 3.2 3.5 4.3 4.7 1.4 1.5 4 3.9 7.8 7.3l5 4.5c-1-3-2.8-6.2-5.3-9.4-1.2-1.5-3.7-4.3-7.4-8.1-3.8-4.1-6.7-7.2-8.7-9.2-3.3-3.2-7.1-6.7-11.5-10.3-2.7-2.2-6.7-5.4-12.2-9.7-.5-.4-1-.7-1.5-.8-.7-.3-1.1-.1-1.4.4m-55.6 32.6c-.3-.3-.7-.3-1-.2-.5.2-.5.8-.3 1.7 1.8 5.4 2.9 8.6 3.2 9.7 1 3.6 2 8.8 2.8 15.4.9 6.1 1.4 10.7 1.7 13.8.2 2.6.4 8.1.6 16.7.2 6.9.6 12.5 1.2 16.7 1.4-2.3 2.3-5.6 2.7-10 .6-6.1.6-12.9 0-20.3-.4-5.3-1.3-12.1-2.6-20.3-.8-4.6-1.6-7.9-2.2-9.8-.6-1.9-1.4-4.1-2.5-6.4-.6-1.3-1.7-3.4-3.1-6.1 0-.4-.2-.7-.5-.9m94.5-73.2c-.1.4 0 .8.5 1.3 3.6 5 8 10.3 13.3 16 3.1 3.3 8 8.3 14.7 14.9 4 3.9 7.2 6.8 9.6 8.6 4 3 8.5 5.3 13.5 6.8-1.1-1.4-2.1-2.6-3.3-3.6-1.1-1-3.2-2.7-6.2-5.1-5.7-4.5-12.4-10.8-20.1-18.8-12.5-12.9-18.9-19.5-19.2-19.8-.5-.5-1-.9-1.4-1-.3-.1-.5 0-.8.1-.4.1-.6.3-.6.6m129.5-600.2c-1 1.3-2.3 3.1-4 5.4-1.8 2.6-3.2 4.4-4 5.4-1.7 2.3-2.8 3.9-3.3 4.8-1 2-1.4 3.9-1 5.7l.2.4c.2.2.4.2.7 0 .2-.2.4-.4.5-.7.5-.9 1.2-1.9 2.1-3 .2-.2 1-1.2 2.5-2.8.9-1.1 2-2.5 3.3-4.2 1.5-1.9 2.6-3.3 3.3-4.3 7.8-10.1 16.4-19.3 25.8-27.6 1.9-1.7 3.2-3 3.8-3.8.6-.7 1-1.1 1.1-1.1.4-.4.8-.7 1.3-.9.4-.1.9-.3 1.7-.5.7-.3 1-.8.9-1.4-.2-.4-.5-.6-1-.8-1.4-.4-3.2.1-5.3 1.6-3.7 2.5-7.6 5.7-11.6 9.5-2.4 2.2-5.9 5.8-10.5 10.8-2.9 3.3-5.1 5.8-6.5 7.5m173.6 45.7c-4.2-4.2-8-7.3-11.6-9.3-.7-.4-1.3-.5-1.7-.3-.3.2-.4.4-.4.8-.1.3 0 .6.1.9.3.5.7.9 1.4 1.2 2.8 1.8 5.8 4.5 9 8.2 1.8 2.1 4.5 5.2 8 9.3.6.7 1.9 1.9 3.8 3.8 1.6 1.6 2.8 2.9 3.7 3.9l2.4 3c1 1.2 1.8 2.2 2.5 3 1 1 2.6 2.5 4.8 4.5 2.2 1.9 3.4 2.9 3.6 2.9 1.1-.4.8-1.7-.8-3.9s-2.6-3.4-3-3.8l-.7-.7c-.6-.7-1.3-1.7-2.3-3-1-1.4-1.8-2.5-2.3-3.1-.9-1.1-3-3.3-6.2-6.4-4.4-5-7.9-8.6-10.3-11m-81.8-29.5c.1-1.6-.1-2.9-.4-4.1-.4-1.1-.9-1.7-1.6-1.6-.7.1-1.2.7-1.4 2-4.3 27-7.3 48.3-9.1 64-.5 4.4-.7 7.7-.6 10 0 2.3.3 4.1.8 5.5 1.2-3.5 2.3-7.5 3.1-12 .5-2.7 1.2-6.8 2-12.3 3-21 5.3-36.8 6.8-47.3.2-1.9.4-3.3.4-4.2m31 7.6c-.1-.4-.2-.7-.5-.8-.2-.1-.4-.2-.6 0-.2.1-.4.3-.5.5-.2.3-.3.7-.3 1.3 0 2.8.6 6.7 1.7 11.6 4.5 21.4 9.4 41.8 14.5 61.3.3 1.2.8 1.7 1.4 1.6-.1-5.1-.8-10.7-1.9-17-.7-3.8-2-9.4-3.8-16.8l-10-41.7m-55.1-58.3c-.2-.4-.5-.6-.9-.6s-.8.1-1.3.5c-3.8 2.8-7.4 6.8-10.9 11.8-.8 1.2-3.7 5.8-8.6 14-3.2 5.3-8.2 13-15 23.4-5.7 9.2-9.8 17.4-12.2 24.6-.4 1.2-.3 2 .3 2.4 11-16.6 21.6-33.5 31.8-50.5 3.6-5.8 6-9.7 7.3-11.7 2.9-4.3 5.7-7.9 8.5-10.8.7-.8 1.1-1.4 1.3-1.9-.1-.4-.1-.8-.3-1.2m89 26.4c-3.5-2.8-6-5-7.8-6.5-2.9-2.5-5.3-4.9-7-7.2-.5-.6-.9-1-1.3-1.1-.3-.1-.6-.1-.8 0-.3.1-.5.3-.5.6 0 .2.1.5.3 1 2.2 3.2 5.1 6.5 8.7 10.1 1 .9 4.2 4 9.8 9.2 5.8 5.4 12.1 11.7 18.8 18.8 4.5 4.8 10.5 11.3 18 19.5 1.6 1.8 2.8 3 3.5 3.7 1.4 1.3 2.7 2.4 3.9 3.2l-2.9-5.5c-1.1-2.2-2.2-4-3.1-5.4-.9-1.3-2.6-3.3-5-6-7.3-8-12.9-13.9-16.7-17.8-6.4-6.5-12.3-12-17.9-16.6m-.3-49.4c-2.8-3.6-5.1-6.5-6.7-8.8-2.5-3.5-5.9-8.6-10.3-15.5-1.7-2.6-2.8-4.6-3.4-5.8s-1.3-1.7-2-1.4c-.5.2-.7.7-.7 1.5 0 1.2.7 2.9 1.9 5.1 4 6.8 7.3 12.2 10 16.2 2.6 3.9 6.5 9.2 11.8 15.9 5.2 6.7 9.1 11.7 11.8 15 4.4 5.5 10.3 13.2 17.5 23-.3-2.9-2-6.8-5-11.8-3-4.9-6-9.2-9.1-13-.8-1-3.8-4.9-8.9-11.8-1.1-1.4-3.4-4.3-6.9-8.6m389.4 94.1c-3.2 3.6-6.7 7.8-10.3 12.6-2.1 2.8-5.3 7.2-9.6 13.2l-12.3 17.3c-2.7 3.8-4.6 6.6-5.8 8.5-2 3.2-3.6 6.3-4.7 9.1-1.5 3.8-2.4 7.7-2.7 11.5 4.9-8.6 11.1-18.3 18.6-29.1 1.9-2.7 8.6-12 20.1-28.1 4.3-6.1 7.3-10.7 9-14 .3-.7.4-1.1.2-1.5-.2-.4-.6-.5-1.2-.3-.5.1-.9.4-1.3.8m-45.4-29.2c1.3.7 2.4 1 3.3.8-.1-.6-.7-1.4-1.8-2.4-5.1-4.3-13.8-12.1-26.1-23.3-10.9-10.1-19.7-17.8-26.3-23-.6-.5-1.2-.9-1.7-1-.8-.2-1.4 0-1.8.7-.2.4-.2.9.1 1.6.5 1 1.5 2.2 3.1 3.5 4.3 3.6 9.2 8 14.8 13 3.2 2.9 8 7.4 14.4 13.4 4.3 4 7.8 7 10.5 9.1 4 3.2 7.8 5.7 11.5 7.6m-1.7-75.2c-.2 0-.9.1-2.2.3-1.8.2-3.9.6-6.3 1.3-.3.1-2.4.8-6.1 2-6.9 2.1-13.5 3.7-19.8 4.6-4.5.7-8.5 1.1-11.8 1.1-1.3 0-3.2-.1-5.8-.2-1-.1-1.8 0-2.3.3-.7.3-1 .9-1.2 1.7-.1.8.1 1.5.7 2 .5.4 1.3.6 2.3.6 5 .3 10.5.1 16.5-.8 4.4-.6 9.9-1.7 16.3-3.3 3.8-.9 6.8-1.7 9-2.5 3.2-1.2 7.3-3.3 12.2-6.3 1.8-1.1 3-2.1 3.6-3-.5.1-1 .3-1.5.8-.9.6-1.4.9-1.5.9-.6.2-1.3.4-2.1.5m130.6 129.6c-.4.7 0 1.4 1.1 2.2 12.8 9.2 24.2 20 34.1 32.7 9.9 12.6 17.7 26.2 23.6 40.9 1.9-2.1 1.9-5.4 0-9.9-5-12.3-11.7-23.8-20.2-34.3s-18.3-19.5-29.3-27c-3.7-2.5-6.8-4-9.3-4.6m-890.3 770c-.2.5 0 1.1.5 1.8 1.1 1.7 2.8 4.1 5 7 2.4 3.2 4.1 5.5 5.1 7 1.5 2.3 3.7 5.8 6.5 10.5 1.5 2.3 4.1 6.1 8 11.5l9.8 13.1c5.1 6.9 9.1 11.9 12.2 15-.1-1.9-.5-3.6-1.3-5.3-.5-1.2-1.5-2.9-3-5.1-4.9-7.4-8.6-12.9-11.3-16.5-3.6-4.6-6.2-8.1-7.8-10.4-1.1-1.6-2.6-3.8-4.4-6.8-2.1-3.3-3.5-5.6-4.4-6.8-2-3.1-4.4-6.3-7.1-9.8-1.8-2.2-3.2-3.8-4.3-4.9-.6-.6-1.2-1-1.7-1.1-.4-.1-.7-.1-1 .1-.5.2-.7.4-.8.7m-79 46.9c.1.3.3.4.7.3.3 0 .6-.2.9-.3 3.1-1.9 6.3-4.8 9.5-8.7 3.5-4.6 6.2-8 8-10.3 3.1-4 8.2-9.7 15.2-17.1 4.7-4.9 8.1-8.4 10.2-10.3 1.3-1.3 2.5-2 3.5-2.1.2 0 .5-.1.9-.1s.6-.1.8-.3c.3-.3.5-.6.5-1.1s-.2-.8-.5-1.1c-.5-.5-1.3-.6-2.5-.5-1.3.2-2.8.9-4.5 2-2.4 1.6-5.3 4.2-8.8 7.8-9.8 10.1-18.9 20.8-27.4 32-3.2 4.1-5.3 7.3-6.5 9.8m56-191.9c-1.9 4.1-3.6 8.9-5.1 14.3-.9 3.3-2.1 8.2-3.6 14.8-2.5 11.3-4 19.5-4.7 24.8-.7 5.9-.9 11.5-.8 17 .9-1.7 1.8-4 2.5-7.1.5-2.3 1-5.2 1.6-8.5.6-3.8 1.1-6.7 1.5-8.6 2.7-15.7 6.5-31.1 11.4-46.4.2-.8.3-1.3 0-1.6-.2-.3-.4-.4-.8-.5-.3 0-.7.1-1 .3-.4.3-.7.8-1 1.5m-68-30.1c.4-.1.9-.5 1.5-1.2l18.9-21.4c3.8-4.2 6.5-7.2 8.3-8.9 2.1-2 5.9-5.1 11.3-9.5 5-3.9 8.7-7.2 11.2-9.8.4-.4.6-.7.5-1-.1-.4-.3-.6-.8-.6-.4 0-.9.1-1.3.4-9.1 5.4-18.3 12.9-27.5 22.4-6 6.2-13.8 15.2-23.3 27.2-.5.7-.7 1.3-.6 1.7.1.3.3.5.7.6.4.2.8.2 1.1.1m73.4-107.6c.9-.3 1.5-.6 1.6-1 .1-.3.1-.6 0-1-.2-.3-.4-.5-.7-.7-.4-.2-1-.3-2-.3-4.7.1-10.7 1.4-17.9 3.9-8.9 3.1-19.5 7.5-31.7 13.2-13.8 6.6-24.2 11.5-31.1 14.7-2.8 1.3-4.9 2.3-6.3 3.2-2.2 1.4-4 2.9-5.2 4.5 3.9-.6 8-1.7 12.5-3.4 3-1.1 7-2.9 12-5.3 4.9-2.3 12.3-5.8 22-10.5 8.5-3.9 16-7 22.5-9.5 8.1-3.1 16.2-5.7 24.3-7.8m-550.1-515.8c.4-.7.3-1.2 0-1.5-.3-.2-.7-.2-1.2 0-1 .4-2.1 1.4-3.5 2.9-2.4 2.9-4.9 6.6-7.5 11.2-8.5 14.7-15.3 30.2-20.2 46.6-.8 2.8-1.4 5.1-1.7 6.9-.4 2.6-.4 4.9 0 6.9l1.5-.3c.7-1.3 1.4-2.9 2-4.8.2-.7.6-2.4 1.3-5.1 1.8-7 4.3-14.4 7.7-22.4 2.5-5.9 5.9-13.1 10.1-21.5 2.2-4.5 4.2-8.1 6.1-10.8 1.3-1.8 2.3-3.1 2.9-4 1.1-1.5 1.9-2.9 2.5-4.1M818 1727c.1.2.5.7 1.2 1.5l18.8 17c7.8 7 13.9 12.6 18 16.6 6.5 6.3 12.1 12.2 16.9 17.7 1.9 2.3 3.3 3.8 4.1 4.6 1.6 1.6 3.2 2.9 4.7 3.8-2.6-5.4-6.3-11-11.1-16.6-3.4-4-8-8.8-13.9-14.5-10.9-10.4-22.1-20.4-33.7-30-1.4-1.1-2.5-1.8-3.3-2-.6-.2-1.1-.2-1.4.1-.4.5-.5 1.1-.3 1.8m151.1-124.7c-.8 1.5-1.2 3.9-1.3 7.3-.3 16.5-.4 29-.3 37.3 0 13.8.4 26.3 1 37.3.2 3 .4 5.3.6 7 .4 2.6.9 4.8 1.5 6.8.6-3.1.9-6.7 1.1-10.6.1-2.6.1-6.2.1-10.8l-.4-73.8c0-.9-.2-1.4-.7-1.5-.6-.2-1.1.1-1.6 1m32.7-9.8c-.2-1.1-.6-1.5-1.2-1.4-.3 0-.5.3-.8.6-.6 1.2-.7 2.5-.3 4.2.3 1.1.9 2.5 1.8 4l14.5 25.9c6.2 11.1 11.1 19.6 14.7 25.5 1.4 2.3 2.8 3.6 4.2 3.9-2.3-6.2-5.5-13-9.4-20.4-2.4-4.4-6.1-11-11.1-19.6l-9.2-15.8c-1.8-2.7-2.8-5.1-3.2-6.9m12-14c.1.5.5.9 1.3 1.2 17.7 8.9 34.5 19.6 50.3 32.1 4.4 3.5 7 5.5 7.7 6 2.9 2.2 5.6 4 8.1 5.3.6.4 1.9 1 3.8 1.9-1.8-2.5-4.7-5.5-8.6-9-15.1-13.5-31.7-25-49.7-34.5-4-2.1-7.3-3.5-10-4.3-.8-.3-1.4-.3-1.9-.2-.3.1-.6.3-.9.5 0 .3-.1.7-.1 1m-101.3-3.3c-.1.4 0 1 .2 1.8 1.6 5.5 3.9 13.8 7 24.9 2.5 9.6 4.1 18 4.9 25.3.4 3.5.7 7.9 1 13.3l1.7 32.5c2.5-10 3.3-22 2.3-35.8-1.6-21.8-6.8-42.8-15.7-62.8-.3-.1-.5-.1-.8.1-.3.2-.5.4-.6.7m-66.5-147c1.7-1.5 3.2-2.5 4.5-2.9 1.3-.5 1.9-1 1.8-1.6-.2-.6-.8-.9-1.9-.7-2.2.4-4.4 1.3-6.6 2.8-1.6 1.1-3.5 2.7-5.7 4.8-7.3 7-12.8 13-16.5 18-2 2.9-4.1 6.1-6.1 9.6-1.9 3.1-3.2 5.8-4.1 8-1.3 3-2 5.9-2.1 8.6 1.1-.8 2.1-1.9 3.1-3.3.5-.8 1.3-2.2 2.3-4 7.9-15.2 18.4-28.3 31.3-39.3m91.7 43.4c-.5 0-1 .4-1.4 1.3-2.1 5.3-4 11.3-5.6 18-1.1 4.5-2.3 10.6-3.8 18.4-1.7 8.8-2.6 15.5-2.7 20 0 3.5.1 6.3.4 8.5 0 .7.1 1.3.4 1.8 1.5-4.7 2.7-9.5 3.4-14.3.2-1.3.5-3 .8-5 .4-2.8.6-4.5.7-5 .3-2 1-5.6 2-10.7l2.6-12.8c.6-2.8 1-4.7 1.3-5.9.9-3.1 1.5-5.5 1.8-7.1.2-1.2.5-2.9.9-5.3.1-1.1-.2-1.8-.8-1.9m-220.4 92.3c-8.2 3.9-16.5 9.5-24.9 16.6-6.1 5.1-13.3 12.2-21.7 21.1-6.2 6.6-11 12.1-14.4 16.6-4.9 6.4-8.5 12.7-11 18.8 1.8-1.6 3.7-3.5 5.8-5.9.2-.3 2-2.5 5.3-6.5 12.5-15.6 26-29.9 40.5-42.9 7.9-7.2 14.8-12.3 20.8-15.3.8-.4 1.4-.8 1.6-1.2.2-.3.3-.6.3-.9 0-.4-.2-.7-.5-.8-.5 0-1 0-1.8.4m161.2-199.1c-4.7-3-10.3-5.4-16.8-7.1-4.8-1.3-10.8-2.3-18.1-3.2-24.5-2.9-46.8-2.9-66.7 0-2.9.4-5.1.8-6.7 1.4-.5.1-1 .4-1.3.8-.4.5-.5.9-.3 1.3.3.4.9.6 1.8.5 34-4.3 70-2.2 108.1 6.3m1343.5 194c.2.4.7.9 1.4 1.3 6.9 4.1 12.4 8 16.6 11.6 2.2 1.9 5.1 4.7 8.5 8.2 3.6 3.6 6.1 6.3 7.7 8 2.8 3.1 5.1 6 6.9 8.6 1 1.6 1.7 2.6 2.1 3.1.8 1.1 1.7 2 2.6 2.6.5.3 1.1.7 1.9 1-1.3-3.7-3-7.3-5.3-10.8-1.7-2.7-3.9-5.5-6.5-8.5-1.7-1.9-4.2-4.5-7.4-7.8-3.7-3.7-6.8-6.6-9.5-8.7-2.4-1.8-5.2-3.7-8.4-5.5-1.9-1.1-4.9-2.6-8.9-4.6-.5-.3-1-.4-1.3-.3-.3.1-.5.3-.6.6 0 .6.1.9.2 1.2m-162.6-1.6c-7.2 1.7-14.7 4.9-22.3 9.8-5.1 3.2-11.6 8-19.7 14.5-4 3.2-6.9 5.7-8.6 7.5-2.9 2.9-4.6 5.7-5.2 8.5-.1.4-.1.7 0 .8.1.2.3.4.6.5.3.1.6.1.8 0 .3-.1.7-.5 1.3-1.1 3.4-4.2 8.6-9 15.5-14.4 10.7-8.4 22-16.3 34-23.7 1.5-.8 2.7-1.7 3.6-2.4m27.6-66.9c-.1 1.6-.3 2.8-.5 3.7-.2.9-.5 2.3-1 4.2-.2 1-.3 2.8-.4 5.5-.1 3-.4 7.4-1 13-.6 5.9-.9 10.3-1 13-.1 2.6-.1 4.9.1 7 .2 2.2.5 4 .8 5.6.7-.1 1.1-.2 1.4-.2.8-4.7 1.5-11.2 2.2-19.5l.6-6.8c.4-4.4.6-7.3.6-8.5.1-4.3.3-7.5.4-9.6.1-3.8.4-7 .8-9.6.1-1 .1-1.7 0-2.2-.2-.3-.4-.6-.8-.8-.3-.2-.7-.2-1 0-.3.2-.6.6-.8 1.3-.1.9-.3 2.2-.4 3.9m-82.7 82.7c-.4 2.5-.4 4.7.2 6.7.1.4.3.7.5.9.3.3.5.4.8.3.3-.2.5-.5.6-1.1.4-3 1.3-6.4 2.8-10 .9-2.2 2.5-5.3 4.6-9.4 8-15 14.6-26.6 19.9-34.8 8-12.4 16.3-22.8 24.8-31.3.4-.3.6-.7.7-1.2.1-.5 0-.8-.3-1-.3-.2-.7-.1-1.2.3-6.6 4-12.8 9.8-18.8 17.2-4.1 5.1-8.9 12.3-14.4 21.5-4.1 6.9-7.4 12.6-9.9 17.3-3.4 6.4-6.1 12.4-8.3 18-1 2.5-1.6 4.8-2 6.6m61.5-162.1c.4-1.1.4-1.8 0-2.3-.2-.2-.5-.4-.8-.4-.4-.1-.7 0-1 .1-.4.2-.9.7-1.3 1.4-.3.5-.7 1.3-1.1 2.3-.4 1.1-.7 1.9-1 2.4-.3.5-.8 1.3-1.4 2.2-.7.9-1.2 1.7-1.5 2.2-.2.4-.6 1.5-1.3 3.4-.4 1.1-1.1 2.4-1.9 3.8-.1.1-.8 1.3-2.3 3.6-2 3.3-4.4 8.4-7.2 15.3-.6 1.4-.9 2.5-1 3.3-.2 1.3.1 2.4.7 3.3 1.8-2.2 3.3-4.5 4.7-6.8.8-1.4 2-3.8 3.5-7.1 1.4-3.1 2.6-5.5 3.5-7 1.4-2.2 2.2-3.6 2.4-4.2.2-.4.5-1.2.9-2.3.3-1 .6-1.7.9-2.3.2-.6.8-1.4 1.6-2.5 1.1-2 2.3-4.7 3.6-8.4m58.2-54.1c3.7.8 9.2 2 16.5 3.6 6.5 1.4 16.5 5.3 30 11.7-1.2-2.7-5.4-5.8-12.5-9.3s-19.8-7.4-38-11.7-46.5-5.5-84.8-3.7c-.6.1-1.2.2-1.6.4-.5.3-.7.7-.6 1.2.2.6.8 1 2 1 19.2.2 34.1.6 44.8 1.3 16.4.9 31.2 2.7 44.2 5.5M1720.8 1509c-.5-.2-.9-.4-1.3-.4-.5 0-.9.1-1.1.4-.4.6 0 1.4 1.2 2.3 31.2 20.3 57.5 41.3 79 63.1 4.2 4.3 7.1 7.9 8.7 10.8.4.7.7 1.1 1 1.3s.5.2.8.1c.3-.1.5-.2.6-.4.1-.3 0-.7-.3-1.2-4.5-8.3-10-15.7-16.5-22.3-3-3.1-7.7-7.2-13.9-12.3-12.1-10.1-21.5-17.6-28-22.4-10.7-7.9-20.7-14.2-30.2-19m-86.8 53.3c-1.5.9-3.3 2.4-5.6 4.5-20.2 18.4-37.8 39.1-52.6 62.1-.7 1-.8 1.8-.4 2.3 1.1-.1 2.2-.9 3.5-2.5 9.8-12.6 18.8-23.6 26.9-32.9 10-11.5 19.8-21.7 29.3-30.6.6-.6 1-1.2 1.2-1.6.1-.3.1-.6 0-.9-.1-.4-.4-.6-.7-.7-.6-.2-1.1-.1-1.6.3m50.6-30.3c0 .3.2.7.7 1.2.4.5 1.2 1.2 2.5 2.3 1.3 1.1 2.8 2.4 4.6 3.9 1.8 1.5 3.2 2.6 4.2 3.3s2.2 1.8 3.8 3.3c1.6 1.4 3.6 3.4 6 5.9 2.5 2.6 6.7 6.5 12.9 11.7 6.2 5.3 12.5 11.3 19 18.2 6.5 6.8 13.5 15.7 20.8 26.5 2 2.9 3.4 4.9 4.3 6 1.7 2.1 3.3 3.9 5 5.3-5.8-12.4-12.8-24-21.2-35-8.3-10.9-17.7-20.8-28.2-29.7-4.8-4-12.2-9.7-22.3-17-.9-.6-2.5-1.6-4.8-3l-4.5-3c-.7-.5-1.2-.7-1.5-.7-.3 0-.6.1-.8.3-.4 0-.5.3-.5.5m-106.7 31c-4 4-9.8 9.8-17.2 17.6l-9.7 10.2c5.2-2.3 10.7-6.1 16.3-11.2l14.2-14.2c18.7-18.9 40-33.9 64.2-45.2.8-.4 1.1-.8.9-1.2-.2-.4-.6-.6-1.4-.5-5 .7-11.1 3-18.2 7-10.9 6-21.2 12.9-30.8 20.9-5.7 4.6-11.8 10.1-18.3 16.6z"/></svg>