<svg xmlns="http://www.w3.org/2000/svg" id="bra" viewBox="0 0 3000 3000"><path id="cl1" fill="#C1C667" stroke="#000" stroke-miterlimit="10" d="M1449 1389.7l17-.702 6.031 52.092s2.676 44.66 8.068 51.048 41.974 46.876 82.854 67.453 69.554 25.274 92.717 9.592 32.32-33.21 31.658-52.736c-.662-19.526-.562-35.229-15.861-46.587s-50.056-22.98-60.178-36.169S1577.75 1397 1577.75 1397l20.629 2.878s31.536 40.586 51.662 45.438 69.47 25.052 84.798 53.285 19.503 63.83 1.082 83.698-40.621 22.605-40.621 22.605l-54.702-1.605-74.456 23.381-74.656 3.41-40.813-6.668s-28.572-15.888-27.206-52.071 21.787-88.638 26.7-112.323c5.022-24.208-1.167-69.328-1.167-69.328z"/><path id="sd1" fill="#EBEBEB" d="M1436.8 1501.1s1.898 72.2 18.898 84.602c0 0 26.302 34.303 97.699 29.699 5.398-.199 59.701-8 92.5-30.301 13.301 1.801 74.301 16 93.301-13.699s4-2.801 4 3.5-16.5 18.199-21 20.801c-2.198 1.303-15.301 3.803-21.898 8.398-6.899 4.802-3.897 17.7-3.897 17.7s-40.801 5.258-50.4 7.197c-4.827.978-44.201 3.275-67 6.25-21.118 2.756-44.723 5.161-47.022 5.463-2.3.301-64.178 2.39-69.178 3.39-3.199-16-22-24.3-37.397-48.198-7.5-40.802 9.198-97.302 9.198-97.302"/><path fill="none" stroke="#040000" stroke-miterlimit="10" stroke-width="6" d="M1454.3 1625.802s3.5 13 6.801 18c3.302 2.8 117.5-6.303 128-8.5 10.5-2.2 88.5-5.5 107.302-13.5-.302-3-1.103-16.898-1.103-16.898M1449 1389.7s3.3 55.3 2 65.3c.3.7-7 28.303-13.302 43.803-6.301 15.5-21.198 64.197-13.5 93.3 6.699 21.7 19.602 29.4 30.897 32.9.5.1 2.398.697 5.302 1.397 3.397 1.699 45.198 7.199 91.7 2.199 30.697-3.301 63.5-12.899 88.5-25.301-.701-.398 31.896 7.698 56.799 1 16.802-4.5 41.852-13.799 48.302-42.699 6.463-28.957 1.466-56.664-29.534-83.266-31-26.699-61.666-27.836-75.666-38.035-13.5-6.199-38.529-36.024-43.529-42.126L1577.75 1397s21.543 27.931 37.05 39.498c16.532 12.337 61 33.5 61.801 37.7 9 9.3 18.302 36.199 2.699 72.5-1.699 9.5-30.199 36.3-71 30.3 2.5.603-25.5-5.3-57.8-24.197-32.302-18.898-61.5-50.5-68.5-58s-8.302-31.803-8.802-35.803-3.302-64.8-7.198-70c-1.4-1.298-17 .702-17 .702z"/></svg>