<svg xmlns="http://www.w3.org/2000/svg" id="bra" viewBox="0 0 3000 3000"><path id="cl1" fill="#2755EA" d="M1437.166 1390.168c-.668.332 11 46.666 8 64-3 17.332-8.668 35-15 53.666-6.334 18.668-14 51.334-11.668 66.334 2.334 15 0 39.668 32 54 32 14.334 108.668-.666 118.668-5s56.332-20.668 64.332-30.334c15.334 5 62.334 6.666 71.334 1.666s39.334-10 45.668-50.666c6.332-40.666-24-62-27.334-66-12.334-13.334-61-34.668-82.666-42.668-13.472-8.633-34-40-37.334-39s-17.563 4-18.446 4 26.446 32.668 34.78 37c8.332 4.334 52.334 22 56.666 28.668 2.671 4.125 5.668 7.332-3 8-8.666.666-27 5.332-33 25.666s-2.666 41-21 61c-9 8.334-54-44.666-73.666-52-19.668-7.332-36.39-8.717-66-9-2.334-20.666-17.334-106.332-21.668-109.332-2.332-2.668-20.666 0-20.666 0zm16.666 238.666l10 29.666s76 1 92.668-2c16.666-3 86.998-16.332 96.332-18.332s38.334-11 39.668-12.668c1.332-1.666 0-43.666 0-43.666"/><path fill="#FFF" d="M1455.166 1506.834s-11.668 6-13.334 28-5 11-3 27c-.877 8.621-13 15.668-13.666 26.334 0 0-3.668 16.334 13 14 16.666-2.334 22.332-16 19.666-29.668.021-8.798 7.334-19.998 9-22.332 1.668-2.334 12.334-15.334 7-29-4.666-20.334-18.666-14.334-18.666-14.334zm55.666 7c-1 0-18-2.334-29.666 16.666-3.545 6.38 1 9.668-2 21.668s-1.668 17.332 0 20.666c1.666 3.334 8.666 4 12.332 9s5.334 9.666 10.002 7.666c4.666-2 48-17 47-44.666 0-12-25.334-5.666-28-5.334-2.668.334-9.438-3.666-7.552-12 1.884-8.332-2.116-13.666-2.116-13.666zm70.334 56.666c-1.014.291-25.666 15.334-24.666 27.334 1.217 4.68 9.998 3.334 7.332 7.334s-13.666 10.157-13 15.078c.668 4.922 10.002.079 11.334 0 1.334-.078 33-8.799 45-30.271 1.666-20.807-19-21.475-26-19.475zm96.334-69s-25.666 2.002-27.334 29.668c.115 11.158 7.666 6.666 6.334 13.332-1.334 6.668-13 15.666-12 21.334 1 5.666 2 9 7.666 7.666 5.666-1.332 28.334 7.666 45-28.666 1.334-3-5.073-2.666-5.073-2.666s5.772-11.002 5.257-21.334c-.516-10.334 2.482-15-19.85-19.334zm48-5.666c-1.334 1.332-12.334 15-6.668 33.332 4 13 15.002 9.627 16.334 8.479 1.334-1.146 13.332-12.6 9.666-26.037-3.666-13.44-19.332-15.774-19.332-15.774zm14.332 70.334s-16-15.082-37.332 7.625c-3.334 4.375-9.903 17.577-5.118 22.311 4.784 4.73 41.784-18.27 42.45-29.936zm-77.666 69.666c-.334-1.666 2-15.666 4.666-20.334 2.668-4.666-5.786-9.332-22.395-2-16.605 7.334-35.271 23-41.271 36-2 4 59-13.666 59-13.666zM1465.5 1655.5c-2.668 1 29.666-18.666 37.666-12 6 1.668 10.563 8.765 9.782 15.05-.782 6.284-44.448 2.952-45.782 1.618s-1.666-4.668-1.666-4.668zm66.666 2.334c.666-2 25.15-9.3 35.908-5.648 10.758 3.648-35.908 5.648-35.908 5.648z" opacity=".3"/><path fill="#151516" d="M1433.832 1614.834c1-.666 13.334-18.308 19-5.152 3.668 8.818-4.666 16.486-4.666 16.486l-14.334-11.334zm41.481 2s13.188-18.532 22.521-20.101c9.334-1.567 41.666-17.23 47-11.564s1 13.666-12.666 26.332c-13.668 12.668-13.974 4.334-20.986 14.668-7.013 10.332-14.348-1.434-19.014-3.718-4.666-2.282-16.668 4.052-18.334-5.282l1.479-.335zm79.187-99.467s2.666 60.519 38.666 34.491c1-4.024-38.666-34.491-38.666-34.491zm141.194-57.634c-1.193.767-2.193 15.101-11.527 28.101-2.69 4.979 5.723 11 11.527 10.334 5.805-.668 22.045-2.717 29.759-19.19.953-3.075-29.759-19.245-29.759-19.245zm-230.84-37.558l.486-1.741s1.334 6.533 0 0c18.18 87.935 7.488 77.4 1.821 79.066s-10.333-8-14.333-14.332c-3.358-5.318 12.323-64.457 12.512-64.733m95.826 207.311s-3.101 12.088 17.866 10.922c20.968-1.168 17.634-11.834 29.134-13.5 11.5-1.668 12.334-2.717 12.334-2.717s2.666-1.951 5.332-4.617c2.668-2.665 6.5-13.375 3.334-15.438s-68.161 23.945-68.161 23.945m118.495-27.507s-1.666 22.973 0 32.318c1.666-.318 12-4.652 12-4.652l3.863-29.767-15.863 2.101" opacity=".5"/><path id="sd1" fill="#1D3EE2" d="M1435.5 1494.168s-2 73 41.883 98c44.118 24.332 89.785 18.332 117.118 3.666s37.771-24.159 40.719-26.079c4.614.579 50.948 8.581 66.448 7.913s39.165-8.334 43.165-21.668c-1.75 16-27.125 35.25-52.47 42 0 0-.638 7.514-.271 15.943-14.885-1.568-49.385-2.668-74.76 6.566 0 0-66.332 22.151-74.166 23.318-37.667 6.5-26.334 3.333-31.834 14-3.166 1.334-45.989.687-45.989.687s-9.177-25.187-9.344-26.52c-.167-1.332-20.5-3.166-33.167-31.166s.668-87.662 12.668-106.66z" opacity=".7"/><path fill="none" stroke="#000" stroke-miterlimit="10" stroke-width="6" d="M1436.166 1391.168c-.668.332 11 46.666 8 64-3 17.332-8.668 35-15 53.666-6.334 18.668-14 51.334-11.668 66.334 2.334 15 5.668 41.999 32 54 32 14.334 108.613-.795 118.668-5 18.334-7.668 49.334-24.335 57.334-34.001 15.334 5 66.154 9.354 78.332 5.333 9.776-3.229 39.996-9.902 45.668-50.666 5.334-38.334-17.591-58.484-27.334-66-17.835-13.758-61-34.668-82.666-42.668-13.472-8.633-34-40-37.334-39s-17.563 4-18.446 4 26.446 32.668 34.78 37c8.332 4.334 50.282 22.179 56.666 28.668 2.671 4.125 5.668 7.332-3 8-8.666.666-27 5.332-33 25.666s-2.666 41-21 61c-9 8.334-50.146-38.483-73.666-52-29-16.667-63.333-6.667-66-9s-17.334-106.332-21.668-109.332c-2.332-2.668-20.666 0-20.666 0zm16.666 238.666l10 29.666s52.001.16 92.668-2c16.91-.898 86.998-16.332 96.332-18.332s38.334-11 39.668-12.668c1.332-1.666 0-30.666 0-30.666"/></svg>