<svg xmlns="http://www.w3.org/2000/svg" id="bra" viewBox="0 0 3000 3000"><path id="cl1" fill="#FFC4DC" d="M1427.721 1555.431c.235-2.096 8.666-52.668 73.333-67.333 64.667-14.667 94.001-2 103.334 0s29.333-18 37.333-22 38.667-20.667 70.667 4 30.666 42.666 33.333 48 1.999 44.002-8.667 57.334c-10.666 13.334-29.999 38.666-64.666 36.666s-56.001.668-77.334 11.334-49.334 30.666-90 23.334c-40.667-7.335-85.333-20.003-77.333-91.335z"/><path id="sd1" fill="#FF98BF" d="M1590.388 1489.43s22.667 33.333 22 42.667l-30.667-16s33.363 26 30.682 28c-2.681 2-15.265 22-15.265 22l20.583-13.486 6.667 25.486v-25.486s15.334.82 18 4.82-16-17.334-16-17.334 4.666-24 2.666-30-4.667 22.668-8 19.334c0 0 0-35.333-5.333-40-6.667 3.332-25.333-.001-25.333-.001zm-151.334 50.001c1.164-1.758 26.667 63.998 78.667 74.666 42.667 18.666 88.667-8.666 106.667-23.334 13.369-3.783 77.333 19.334 97.333-.666-8.667 14.666-42.666 23.334-53.333 19.334s-20.667-1.334-32.667 2.666c-15.333 2-32.001 2-40.667 11.334-11.333 4.666-64.666 33.332-101.333 18.666-46-4-88.667-51.334-54.667-102.666z"/><path fill="none" stroke="#000" stroke-miterlimit="10" stroke-width="6" d="M1427.721 1557.431c.235-2.096 8.666-52.668 73.333-67.333 64.667-14.667 94.001-2 103.334 0s29.333-18 37.333-22 38.667-20.667 70.667 4 30.666 42.666 33.333 48 1.999 44.002-8.667 57.334c-10.666 13.334-29.999 38.666-64.666 36.666s-56.001.668-77.334 11.334-49.334 30.666-90 23.334c-40.667-7.335-85.333-20.003-77.333-91.335z"/></svg>