<svg xmlns="http://www.w3.org/2000/svg" id="bra" viewBox="0 0 3000 3000"><path id="cl1" fill="#2C2A2B" d="M1741.667 1509.333c-.667-3.333-9.333-18-33-17.667-3.333-6.333-5.999-14.333-15.333-15.333S1678 1480 1674.667 1480s-10.667-4.614-19-3.807c-8.333.807-15.667-4.86-35.667 13.474 0 0-5.666 9.334-21.666 7.667s-31.333-5.334-40-1.667-15.334 2.334-24.334 13c-13.894 3.999-22-1-30.333 0s-22 5.666-36.667 26.666c-12.667 10.667-18.275 3.053-25.667 10 0 0-12.333 9.667-15.667 19.667s-3.333 28.001 12 50.667 43.667 26.333 43.667 26.333 30 10.667 71 0c12-6.667 46.667-20.666 58-25.333s34-4.666 40.333-3 39.667 3.666 54.667-11.667c12-8 28.999-21.667 34.666-56.667s2.335-32.667 1.668-36zM1622 1574.667s-33.333-20.334-43.333-36.334c-9.333-11-10.333-18.333-7-29s37.141-.999 40.07.334c2.929 1.333 2.263-.334 2.263-.334s15.333-17.667 23-14.333 14.334 8.333 15.667 14.333 5.666 23.334-30.667 65.334z"/><path id="sd1" fill="#080707" d="M1444.333 1547s9.333 47.333 71.333 69c16 6 47.999 16.333 105.333-26 0 0 50.334 17 79.334 7s30.334-29.334 31-29.667 7.916 30.032-56.038 48.813c-24.333 1-38.722-6.639-51.389-.639-16.333 3.333-57.491 18.699-67.157 25.366s-52.416 8.2-62.75 5.866c-10.333-2.334-42.708-6.019-50.375-20.366s-25.958-34.042-17.958-61.375c5.667-19.665 18.667-17.998 18.667-17.998z"/><path fill="none" stroke="#000" stroke-miterlimit="10" stroke-width="6" d="M1441.333 1547.333S1429 1557 1425.666 1567s-3.333 28.001 12 50.667 43.667 26.333 43.667 26.333 30 10.667 71 0c12-6.667 46.667-20.666 58-25.333s34-4.666 40.333-3 39.667 3.666 54.667-11.667c12-8 28.999-21.667 34.666-56.667s2.334-32.667 1.667-36-9.333-18-33-17.667c-3.333-6.333-5.999-14.333-15.333-15.333S1678 1482 1674.667 1482s-10.667-4.614-19-3.807c-8.333.807-15.667-4.86-35.667 13.474 0 0-5.666 9.333-21.666 7.667-16-1.667-31.333-5.334-40-1.667s-15.334 2.334-24.334 13c-13.894 3.999-22-1-30.333 0s-22 5.666-36.667 26.666c-12.667 10.667-18.275 3.053-25.667 10zm172.667-36s15.333-17.667 23-14.333 14.334 8.333 15.667 14.333 5.666 23.334-30.667 65.334c0 0-33.333-20.334-43.333-36.334-9.333-11-10.333-18.333-7-29s37.141-.999 40.07.334c2.929 1.333 2.263-.334 2.263-.334z"/></svg>