<svg xmlns="http://www.w3.org/2000/svg" id="bra" viewBox="0 0 3000 3000"><path id="cl1" fill="#AD57AD" d="M1752.615 1509.94c-2.334-18.334-42.667-57.334-82.667-50.667-13.667-7-80.372-26-82.521-26.667-2.147-.667 6.521-19.667 7.521-22s3.667-6.333 6-8.333-.999-6.666-4.333-8.333-7.666 0-8 0-15 30.667-16 32.667-60.335-19-66.334-21.333c-6-2.333-52-23.667-54.667-24s-15.333-2.667-10.667 17.333c0 0 77 24.333 79 26 1.931 1.608 45.153 14.083 47.863 14.052-2.147 1.809-28.897 40.974-29.863 41.615-1 .667-13.334-13-49 8.667-35.667 21.667-57.667 47.999-63.667 65.333s-3.333 39.334 0 45.667 9.668 23.333 28.668 30.666 42.334 15.667 70.667 11 57.334-15.666 75-28 55-9.334 61.333-8.334 30.667 5.666 42-5c14-8.666 41.333-33.666 43.333-44.666 2.667-7 8.668-27.334 6.334-45.667zm-113.667 34.333c-2.667 34-12.667 35.667-20 34.334s-23.333-35.667-29.333-51.334-35-37.333-38.667-40.333c4-3.667 28.667-44.333 28.667-44.333s75.666 22 74.666 24c-13.667 3.999-12.666 43.666-15.333 77.666z"/><path id="sd1" fill="#5F305F" d="M1447.281 1525.607s-1 66.334 79 90c9.667 2.666 36.333 14.333 100-31.667 1.667-1.333 29.666 8 55 9s38.667-5.667 40.667-7.667c0 0-23.333 22.001-46.333 20.334s-55.333-5.668-86 14.666-76.667 23.667-98 20.667-58.235-7.703-69.902-45.37 11.235-57.629 24.235-69.963"/><path fill="none" stroke="#000" stroke-miterlimit="10" stroke-width="6" d="M1437.648 1397.057s77 24.333 79 26 48.333 15 48 14-29 41-30 41.667-13.334-13-49 8.667c-35.667 21.667-57.667 47.999-63.667 65.333s-3.333 39.334 0 45.667 9.667 23.334 28.667 30.667 42.334 15.667 70.667 11 57.334-15.666 75-28 55-9.334 61.333-8.334 30.667 5.666 42-5c14-8.666 41.333-33.666 43.333-44.666 2.667-7 8.668-27.334 6.334-45.667-2.334-18.334-42.667-57.334-82.667-50.667-13.667-7-80.372-26-82.521-26.667-2.146-.667 6.521-19.667 7.521-22s3.667-6.333 6-8.333-.999-6.666-4.333-8.333-7.666 0-8 0-15 30.667-16 32.667-60.335-19-66.334-21.333c-6-2.333-52-23.667-54.667-24s-15.333-2.668-10.666 17.332zm138.667 44s-24.667 40.667-28.667 44.333c3.667 3 32.667 24.666 38.667 40.333s22 50.001 29.333 51.334 17.333-.333 20-34.333 1.666-73.667 15.333-77.667c1-2-74.666-24-74.666-24z"/></svg>