<svg xmlns="http://www.w3.org/2000/svg" id="bra" viewBox="0 0 3000 3000"><path id="cl1" fill="#CFC4FF" d="M1612.721 1492.344s36.334-37.667 72-27c35.668 10.667 61 38 62 48s-1 93-60 100c-38-3-65-3-91 13 0 0-40 15.334-55.332 17.668-15.334 2.332-69.667 7.998-89.333-9.668-17.667-13-38.333-46.332-26-69.666 5-16.666 10.333-31.666 47.667-58.666 0 0 37-28.001 109.334-17.667 6.332 1.999 23.875 10.186 30.664 3.999z"/><path id="sd1" fill="#CC98FF" d="M1436.682 1537.91c7.743 23.295 21.877 62.564 93.876 82.564 44.668 11.334 89-23.332 100.668-30.666 0 0 75.541 18.875 94.416-2.75-4.875 13.625-36.033 24.322-37.365 24.656-1.334.332-38.717-3.906-47.051-1.24-8.334 2.668-35 5.002-41 10.668s-44.666 20.332-49 20.332-64.271 12.617-84.271-.383c-22.334-9.334-36.99-28.398-40.99-41.064 0 0-16.95-30.117 10.717-62.117zm153.545-43.435s24.334 42.333 24 40c-3.668 0-22.771-11.15-30.129-14-2.205.334 28.463 22.334 28.129 24.334s-8.668 21.334-11.334 25.334 15.334-12.666 18.334-13 10.332 21 10.666 22.332c.334 1.334-3-24.375-3-24.375s20.666 4.043 19.666 4.043-17-15.334-17.666-15.334 0-31.668-1-31c-1 .666-7.334 18-7.334 18s-7.334-35-6.666-36.333c.666-1.333-4 2.333-7 2s-16.666-2.001-16.666-2.001z"/><path fill="none" stroke="#000" stroke-miterlimit="10" stroke-width="6" d="M1612.721 1490.919s36.334-37.667 72-27c35.668 10.667 61 38 62 48s-1 93-60 100c-38-3-65-3-91 13 0 0-40 15.334-55.332 17.666-15.334 2.334-69.667 8-89.333-9.666-17.667-13-38.333-46.332-26-69.666 5-16.668 10.333-31.668 47.667-58.668 0 0 37-28 109.334-17.667 6.332 2.001 23.875 10.189 30.664 4.001z"/></svg>