<svg xmlns="http://www.w3.org/2000/svg" id="bra" viewBox="0 0 3000 3000"><path id="cl1" fill="#9CF5FF" d="M1737.521 1495.632c-7-17-18.334-17.667-18.334-17.667s-9.666-1.333-11.666-4.667-12.334-13.666-21.334-11.999-24.332-1-26-3.333c-26.334-11.333-40 8.667-43.666 10.646-3.666 1.979-14 9.354-36.334 2.021s-36 7.667-36 7.667-6.332 9-15.666 6.333c-47-3.667-48 29-66.666 37-22 .667-35 30.667-35 30.667-15.334 63.665 69.666 74.332 69.666 74.332 36.666 5.667 70.666-.667 114.332-32.667 18.668-11 44.334-7 48-6.333 3.668.667 29 12 50-6 38.668-24.667 35.668-69 28.668-86zm-121.459-10.375c.408.315 14.25-13.5 20-12.875 11.375-1.75 27.375 9.125 19.875 34.125s-23.125 37.625-23.375 38-30.875-16.875-56-42.5c-5.125-6.375-6-17.625 6.838-20.375 16.412-1.5 31.217 2.956 32.662 3.625z"/><path id="sd1" fill="#53CBDC" d="M1447.187 1529.633c3.18 4.493 8.334 40.999 72.334 63.999s110.666-33 113.334-34c2.666-1 51 20.999 84.666 12.333-3.334 5.667-28.916 19.584-28.916 19.584s-16.668-3.667-24.334-5c-7.668-1.333-39.25-2.417-46.416 2.083-7.168 4.5-45.75 27.333-52.418 29-9.332 4.833-42.75 11.499-65.25 7.166-27.832-3.499-44.166-12.165-51.166-18.999s-22.868-18.668-23.019-38.501c-.148-19.833 11.852-30.997 21.185-37.665z"/><path fill="none" stroke="#000" stroke-miterlimit="10" stroke-width="6" d="M1427.854 1551.299s13-30 35-30.667c18.666-8 19.666-40.667 66.666-37 9.334 2.667 15.666-6.333 15.666-6.333s13.666-15 36-7.667 32.668-.039 36.334-2.02c3.666-1.981 17.332-21.98 43.666-10.647 1.668 2.333 17 5 26 3.333s19.334 8.667 21.334 12 11.666 4.667 11.666 4.667 11.334.667 18.334 17.667 10 61.333-28.666 86c-21 18-46.334 6.667-50 6-3.668-.667-29.334-4.667-48 6.333-43.668 32-77.668 38.334-114.334 32.667.001 0-84.999-10.667-69.666-74.333zm188.176-66.028c.408.315 14.25-13.5 20-12.875 11.375-1.75 27.375 9.125 19.875 34.125s-23.125 37.625-23.375 38-30.875-16.875-56-42.5c-5.125-6.375-6-17.625 6.838-20.375 16.412-1.5 31.218 2.956 32.662 3.625z"/></svg>