<svg xmlns="http://www.w3.org/2000/svg" viewBox="0 0 3000 3000"><g id="bra"><path id="cl1" fill="#7C7CC1" d="M1443.4 1391.9s11.5 42.1 8 51c-2 15-19 47.5-26 72s-9.804 49-3.2 63.698c6.7 14.7 10.83 23.029 19.129 27.331 2.075 1.075 10.966 35.6 15.417 36.109 12.754 1.461 35.039 3.879 50.027 4.842 21.395 1.375 46.395 1.375 63.395 1.375 14.302-2.7 54.333-5.685 68.173-5.817 28.137-5.375 37.607-7.755 54.902-13.054 4.671-1.432.982-26.348 3.583-26.348 8.315 0 36.878-14.005 48.276-29.838 16.604-30.696.302-65.3-6.302-73.3-10-22.7-73.3-49.7-88.698-59.302-21.302-10.698-43.302-37-45.698-39s-17.302 4.302-17.302 4.302 24 25.3 27.698 27.3c3.7 2 47.302 23.304 53.7 30 6.396 6.7 14.698 1.304 20 46 0 0-.302 22.7-21.7 40.7 0 0-36 26.698-76.3 4.3-39.302-16-91-60-101.302-72-10.3-12-12.3-18-13.3-28.696-1-10.7-3.304-22.304-3.304-25.7 0-3.398-7.3-26.698-11-36-.194-1-18.194.098-18.194.098z"/><path id="sd1" fill="#66C" d="M1440.825 1474s-6.834 83.688 43.42 108.594 90.712 17.139 113.777 8.856 45.811-21.617 45.811-21.617 39.71 20.025 67.688 12.18 35.312-19.18 35.312-19.18-8.812 24.167-21 29.334-31.514 11.28-31.514 11.28l2.077 12.386s-45.6-3.68-79.043 3.329-75.187 13.672-94.854 14.005-13.674 10.687-13.674 10.687l-50.728-.148-16.599-37.538s-25.653-32.527-25.053-49.645 12.039-69.69 24.38-82.523z"/><path fill="none" stroke="#000" stroke-miterlimit="10" stroke-width="6" d="M1443.4 1390.6s11.5 42.102 8 51c-2 15-19 47.5-26 72s-9.804 49-3.2 63.7c6.7 14.696 18.7 29 27 33.3 8.302 4.302 38.31 9.553 58.302 10.7 25.25 1.446 52.666-1.785 67.3-5.7 14.061-3.762 62-19.3 65.303-21.698 3.301-2.4 38.301 8 48.697 8 10.398 0 39.7.698 56.303-30 16.603-30.7 1.897-60.402-6.303-73.302-14.522-22.846-73.3-49.698-88.697-59.3-21.303-10.7-43.303-37-45.699-39s-17.301 4.3-17.301 4.3 24.338 24.776 27.697 27.302c6.45 4.848 45.938 24.939 53.7 30 7.019 4.576 20.472 17.512 20 46-.13 7.783-2.5 25.598-21.7 40.698 0 0-36 26.7-76.3 4.302-39.302-16-91-60-101.302-72-10.3-12-12.3-18-13.3-28.7-1-10.696-3.304-22.3-3.304-25.696 0-3.399-7.3-26.7-11-36-.196-1.006-18.196.094-18.196.094zm251.798 211.202s2.699 13.697 0 26.896c-93.698 33.5-237.301 13.803-237.301 13.803-2.699-1-17.396-38.676-17.396-38.676"/></g></svg>