<svg xmlns="http://www.w3.org/2000/svg" id="bra" viewBox="0 0 3000 3000"><path id="cl1" fill="#232323" d="M1464.052 1526.762s87 28.334 112-23.666c24-26.667 45.666.999 47.333 5.666 0 0 13.334 13.667 3 48.667-1.984 3.995 17.501-1.666 18.334-3 .833-9.667-17.167-43.335-18.5-53.334-1.333-10-.5-19.5 16.5-12.5s39.166 19 46.833 14.833 12.001-25.667 12.167-27.5 10-19.167 24.833 3 18.667 44.167 17.5 55.667 2 44.667-35.5 58.167-53.166-6.833-57.333-24.833c0-2.001-30.833 6-31.5 6s-9.167 26.833-39.167 45.333-75.5 20.5-102.667 9.833c0 0-53.083-9.833-58.333-59.583s44.5-42.75 44.5-42.75z"/><path id="sd1" fill="#0F0F0F" d="M1457.802 1528.262s-4.583 46.667 42.751 73.876c44.166 28.624 99.333-9.042 121.666-43.209 0 0 .999.666 4.333.833s18.334-4.667 18.834-5.5-6.168-23-7.334-24.5 7.833 6.168 10.5 10.834 27.5 28.834 37.667 29.5c32.5 7.832 51.25-5.042 53.083-10.209-.249 13-23.75 32.125-38.5 34.375 0 0-40.916 12.333-49.416-28.167 0 0-30.334 6.334-31.667 6.667s-14.834 22.835-24.5 31.501-22.167 27-71.5 28.333-84.167-15.501-96.167-38.667-16.084-65.001 30.25-65.667z"/><path fill="none" stroke="#000" stroke-miterlimit="10" stroke-width="6" d="M1464.052 1526.762s87 28.334 112-23.666c24-26.667 45.666.999 47.333 5.666 0 0 13.334 13.667 3 48.667-1.984 3.995 17.501-1.666 18.334-3 .833-9.667-17.167-43.335-18.5-53.334-1.333-10-.5-19.5 16.5-12.5s39.166 19 46.833 14.833 12.001-25.667 12.167-27.5 10-19.167 24.833 3 18.667 44.167 17.5 55.667 2 44.667-35.5 58.167-53.166-6.833-57.333-24.833c0-2.001-30.833 6-31.5 6s-9.167 26.833-39.167 45.333-75.5 20.5-102.666 9.833c0 0-53.084-9.833-58.334-59.583s44.5-42.75 44.5-42.75z"/></svg>