<svg xmlns="http://www.w3.org/2000/svg" id="bra" viewBox="0 0 3000 3000"><path id="cl1" fill="#313131" d="M1460.25 1383.359c15.333 1.334 32.333 32.667 35.666 35.667s15.333 21.667 19 25.333c3.668 3.666 26.668 38.334 29.668 57.667 3 19.334 19 55.334 19 55.334 4.332 7.667 18.672 29.987 34.334 34 33.666 3.667 70-29 69.666-61-1-6-9-37-11.334-41-2.332-4-25-34-28.332-42.333-1.666-2.333-13.668-13.333-18.334-23.667-4.668-10.334-19.477-22.667-19.477-22.667l10.477-3.333s18.666 14.333 23.666 22.667 6.334 17.666 39.334 27.999c17.332 3.333 57 35.667 57 35.667 10.666 13.333 23 28.667 16 73s-50 47.667-52.668 47.667c-2.666 0-55 2-55 2s-4.666-1.667-51 19-83.667 8.333-88.333 7.333-39-8.167-41.5-15.167-5.465-31.977 1-82c12.5-59.5 29.858-92.048 33-107.5-1-15.5-40.5-40-40.5-40s3.334-6 18.667-4.667z"/><path id="sd1" fill="#1B1B1B" d="M1458.583 1497.468s20 114.059 74 122.559 78.5-21 86.5-23.5c8.158-.665 32.834 2.666 46.834 1.833 24.416-2.333 53.666-11.858 60.666-38.846 6-12.487 11.332-26.154 9.75-19.737 2.299 6.583-4.75 32.75-4.75 32.75s-16.75 24.5-28.75 27.5-35.5 3-44.75 4.75-27.75 0-37.25 3.75-11.994 3.396-27.75 12c-63.666 24.166-90 12.25-93 12.25s-49.25-9-49.25-13-11.75-30.751 7.75-122.309z"/><path fill="none" stroke="#000" stroke-miterlimit="10" stroke-width="6" d="M1460.25 1382.94c15.333 1.333 32.333 32.666 35.666 35.666s15.333 21.667 19 25.333c3.668 3.666 26.668 38.334 29.668 57.667 3 19.334 19 55.334 19 55.334 4.332 7.667 18.672 29.987 34.334 34 33.666 3.667 70-29 69.666-61-1-6-9-37-11.334-41-2.332-4-25-34-28.332-42.333-1.666-2.333-13.668-13.333-18.334-23.667-4.668-10.334-19.477-22.667-19.477-22.667l10.477-3.333s18.666 14.333 23.666 22.667 6.334 17.667 39.334 28c17.332 3.333 57 35.667 57 35.667 10.666 13.333 23 28.667 16 73s-50 47.667-52.668 47.667c-2.666 0-55 2-55 2s-4.666-1.667-51 19-83.667 8.333-88.333 7.333-39-8.167-41.5-15.167-5.465-31.979 1-82c12.5-59.5 29.858-92.048 33-107.5-1-15.5-40.5-40-40.5-40s3.334-6.001 18.667-4.667z"/></svg>