<svg xmlns="http://www.w3.org/2000/svg" id="图层_3" viewBox="0 0 3000 3000"><path id="cl1" fill="#FFF" d="M1734.44 1534.215c-.61-2.783-11.854-14.721-33.525-14.441-3.053-5.291-5.494-11.974-14.042-12.809s-14.042 3.063-17.095 3.063c-3.052 0-6.146-7.202-13.777-6.528-6.137.542-12.284 2.523-15.343 7.773.216-1.477-6.346-5.304-6.535-7.842-4.182-56.137-39.42-100.368-39.42-100.368s-11.202-9.563-15.302-4.459c19.433 30.229 29.238 45.148 38.075 79.469-.085.992 7.663 46.335 7.975 50.37-1.979 16.276-5.343 46.762-16.283 45.724-13.917-1.324-39.003-35.628-46.345-45.724-4.89-4.97-12.054-18.969-21.617-32.554C1524.598 1472.302 1468 1388.4 1468 1388.4l-17.098.323s18.603 17.116 30.425 40.675c12.763 25.435 42.103 60.284 55.838 90.352 2.378 5.207 4.62 8.871 6.735 11.375a35.2 35.2 0 0 0-2.94 2.849c-12.725 3.341-20.146-.836-27.777 0-7.631.835-20.147 4.732-33.579 22.274-11.6 8.91-16.736 2.551-23.504 8.353 0 0-11.294 8.075-14.348 16.429-1.076 2.944-1.769 6.722-1.605 11.205l-.209.01s-4.06 8.157 24.527 67.262c1.126 24.756 124.92 1.32 157.569-5.839 0 0 63.864-8.4 71.467-15.501.823-2.589.271-19.408 2.834-23.167l21.5-15c1.558-4.245 13.047-21.97 14-27.334 5.19-29.237 3.216-35.667 2.605-38.451z"/><path id="sd1" fill="#003" d="M1458.305 1564.759s8.683 38.242 51.272 53.325 75.518 8.907 111.054-16.172c0 0 30.183 12.841 58.578 8.277 18.291-2.939 30.379-6.697 39.905-18.336 0 0-4.154 15.857-28.051 25.752s-54.333 1.146-74.624 7.166-61.509 18.419-65.391 22.907 7.146 14.63 53.785 7.821c0 0-72 13.505-98 15.086-26 1.581-39.608-5.82-39.608-5.82l-17.648-44.315s-25.134-31.1 8.728-55.691z" opacity=".3"/><path fill="none" stroke="#000" stroke-linecap="round" stroke-linejoin="round" stroke-miterlimit="10" stroke-width="6" d="M1697.863 1613.606c-2.564 3.759-3.541 21.972-4.362 24.561-7.604 7.1-71.466 15.499-71.466 15.499-32.649 7.158-156.443 30.595-157.569 5.84-28.586-59.105-24.526-67.263-24.526-67.263m293.651-56.808c-3.678-3.415-11.005-14.271-32.679-13.991-3.052-5.291-5.493-11.974-14.041-12.809-8.548-.836-14.041 3.063-17.094 3.063-3.052 0-7.455-8.709-15.086-8.036-6.186.547-4.326.459-15.978 7.458.302-2.012-4.215-1.575-3.896-3.871-8.384-46.117-15.214-80.083-44.554-108.75 0 0-8.488-2.759-14.138.471 20.707 20.863 27.329 37.215 34.373 55.529 10 26 13.772 64.177 14.233 67.514 4.767 34.486-6.943 53.365-18.969 52.224-11.911-1.133-29.498-26.381-39.932-41.403-10.601-15.263-9.896-16.019-24.628-36.945-16.605-23.586-74.547-109.588-74.547-109.588h-17.824s24.506 28.172 37.333 51.199c14.937 26.816 37.264 52.183 50.999 82.251 2.705 5.92 5.231 9.842 7.6 12.335-1.224.969-2.485 2.135-3.803 3.559-12.724 3.341-20.147-.836-27.777 0-7.632.835-20.147 4.732-33.578 22.273-11.601 8.911-16.735 2.552-23.505 8.354 0 0-11.294 8.075-14.347 16.429-3.054 8.353-3.052 23.389 10.989 42.321 14.042 18.934 39.988 21.997 39.988 21.997s27.473 8.909 65.019 0c10.99-5.57 42.736-17.264 53.115-21.162 10.378-3.897 31.135-3.897 36.935-2.506s35.094 1.597 50.063-9.744c10.252-7.767 26.888-17.106 34.718-45.856 6.42-30.501 2.67-27.751 1.011-32.316z"/></svg>