<svg xmlns="http://www.w3.org/2000/svg" id="图层_3" viewBox="0 0 3000 3000"><path fill="#FFF" d="M1457.927 1421.844c-2.667-20.334 1-34.334 1-36.668s6-.332 6.333 10c.333 10.334 4.333 43.668 12 57.668 7.666 14 38.545 50.017 42.333 54 1.568 1.647 50.177.225 70.77 21.583 16.257 16.863 11.845 49.667 24.512 56.667s12.313 18.226 12.646 19.892c-7.702 7.123-21.259 13.858-42.926 23.858s-88.667 6.332-125-4.668-31-47-28.667-60.666c1.166-6.832 6.378-37.553 14.667-63.002 8.294-25.47 19.667-45.666 19.667-45.666s-4.669-12.664-7.335-32.998zm125.333-25.334l-3 5.334s11.999 18.666 24.333 24.666 26.667 11.668 30.667 16.334 37.667 17.666 41.667 24.666c17.666 16.334-30.541 43.162-43.043 57.74-11.391 13.282 6.427 26.841-8.674 66.771-4.976 13.156 9.752 26.063 58.383 16.821 27.539-5.232 39.667-27.332 42.667-34 10.667-19 10.001-48 5.667-61.666-4.334-13.668-7.666-33-38-42.334-19.667-15.666-39-24-44-27.332-5-3.334-23.666-18-32-20.334-8.334-2.332-31.667-26.668-31.667-26.668l-3 .002z"/><path id="cl2" fill="#9CF5FF" d="M1614.873 1585.094c-12.667-7-8.255-39.804-24.512-56.667-20.593-21.358-69.2-19.936-70.77-21.583-3.116-3.277-24.561-28.228-36.337-44.771.367 2.552-.771 5.072-3.026 6.187-2.868 1.417-6.449.024-7.998-3.109-1.55-3.134-.479-6.826 2.391-8.242 1.684-.832 3.607-.69 5.229.196-1.022-1.568-1.902-3.006-2.59-4.26-7.667-14-11.667-47.334-12-57.668-.333-10.332-6.333-12.334-6.333-10s-3.667 16.334-1 36.668a210.892 210.892 0 0 0 1.707 10.811 5.342 5.342 0 0 1 1.154-.78c2.869-1.417 6.45-.024 7.999 3.11s.479 6.825-2.391 8.243c-1.424.702-3.021.712-4.459.164 1.802 7.319 3.321 11.449 3.321 11.449s-3.985 7.08-8.96 18.142c.383-.364.819-.68 1.313-.923 2.868-1.418 6.45-.025 8 3.108 1.548 3.137.478 6.826-2.393 8.243s-6.45.024-7.999-3.11a6.723 6.723 0 0 1-.695-3.296c-2.957 6.843-6.121 14.867-8.935 23.502-8.289 25.449-13.501 56.171-14.667 63.002-2.333 13.666-7.666 49.666 28.667 60.666 10.639 3.222 23.906 5.813 37.896 7.616.063-2.137 1.173-4.104 3.093-5.052 2.868-1.418 6.45-.025 7.999 3.108a6.777 6.777 0 0 1 .697 3.263c30.44 2.896 61.757 1.989 75.315-4.269 21.667-10 35.223-16.735 42.926-23.858-.33-1.664.025-12.89-12.642-19.89zm-169.675-17.175c-2.869 1.417-6.451.024-8-3.11s-.479-6.825 2.392-8.241c2.869-1.418 6.45-.025 7.999 3.108 1.548 3.136.478 6.826-2.391 8.243zm5.903-41.08c-2.868 1.417-6.45.024-7.999-3.109-1.549-3.135-.479-6.826 2.392-8.242 2.868-1.418 6.45-.025 8 3.108 1.547 3.136.477 6.826-2.393 8.243zm23.224 85.697c-2.869 1.417-6.451.024-8-3.11-1.548-3.135-.479-6.826 2.392-8.242 2.869-1.418 6.45-.024 7.999 3.109 1.549 3.135.478 6.826-2.391 8.243zm.48-37.853c-3.199 1.58-7.195.026-8.923-3.47s-.533-7.612 2.667-9.192c3.2-1.581 7.194-.028 8.922 3.469 1.728 3.497.534 7.613-2.666 9.193zm1.949-72.409c-1.658-3.357-.512-7.312 2.561-8.827 3.073-1.52 6.908-.027 8.566 3.33s.513 7.311-2.561 8.828c-3.072 1.517-6.907.025-8.566-3.331zm15.904 44.415c-4.109 2.028-9.24.035-11.459-4.455-2.217-4.489-.685-9.776 3.426-11.806 4.109-2.03 9.238-.036 11.456 4.453 2.219 4.492.685 9.778-3.423 11.808zm13.53 57.239c-2.868 1.417-6.45.024-8-3.109-1.548-3.136-.478-6.826 2.393-8.242 2.869-1.418 6.45-.025 7.999 3.109s.477 6.825-2.392 8.242zm23.663-24.63c-4.108 2.029-9.239.035-11.457-4.455-2.218-4.488-.685-9.775 3.425-11.805 4.109-2.031 9.238-.036 11.457 4.453 2.218 4.492.685 9.778-3.425 11.807zm5.107-49.663c-4.108 2.029-9.239.035-11.457-4.455-2.218-4.488-.685-9.775 3.425-11.805 4.109-2.031 9.238-.036 11.456 4.453 2.218 4.492.685 9.778-3.424 11.807zm16.704 91.439c-2.869 1.417-6.451.023-8-3.11-1.549-3.135-.479-6.826 2.392-8.241 2.869-1.418 6.45-.025 7.999 3.108 1.548 3.136.478 6.826-2.391 8.243zm18.088-35.954c-3.387 1.672-7.614.028-9.441-3.672-1.827-3.699-.563-8.058 2.821-9.729 3.388-1.674 7.613-.029 9.441 3.671 1.828 3.702.565 8.057-2.821 9.73zm-2.948-54.223c-2.218-4.489-.685-9.776 3.425-11.806 4.109-2.031 9.238-.036 11.457 4.453 2.219 4.491.686 9.777-3.425 11.807-4.11 2.031-9.24.035-11.457-4.454zm22.126 81.639c-2.869 1.417-6.451.024-8-3.11-1.548-3.135-.478-6.826 2.393-8.242 2.869-1.418 6.449-.024 7.999 3.109 1.547 3.135.477 6.826-2.392 8.243zm5.904-41.923c-2.869 1.417-6.451.023-8-3.11-1.549-3.135-.479-6.826 2.392-8.242 2.869-1.418 6.45-.024 7.999 3.109 1.549 3.136.478 6.826-2.391 8.243zm28.612 35.691c-2.869 1.417-6.451.024-8-3.109-1.549-3.135-.479-6.826 2.392-8.242 2.869-1.418 6.45-.025 7.999 3.109s.478 6.825-2.391 8.242z"/><path id="cl1" fill="#9CF5FF" d="M1727.944 1524.07c-1.549-3.135-.479-6.826 2.392-8.242a5.336 5.336 0 0 1 2.19-.549c-.19-.731-.39-1.438-.6-2.102-3.779-11.918-6.803-28.141-27.625-38.287.219 2.428-.921 4.77-3.073 5.832-2.868 1.418-6.45.024-8-3.109-1.169-2.366-.843-5.048.619-6.83-19.64-15.626-38.928-23.943-43.921-27.271-5-3.334-23.666-18-32-20.334-2.102-.589-5.155-2.575-8.548-5.218-.478 1.348-1.412 2.49-2.738 3.146-2.869 1.417-6.451.023-8-3.11-1.407-2.851-.646-6.155 1.662-7.798-7.437-6.799-14.043-13.688-14.043-13.688h-3l-3 5.334s11.999 18.666 24.333 24.666c6.498 3.16 13.55 6.229 19.354 9.107a5.368 5.368 0 0 1 2.132-1.896c2.868-1.418 6.45-.025 7.999 3.108.841 1.702.904 3.566.332 5.145.32.294.605.584.852.87 4 4.666 37.667 17.666 41.667 24.666 8.694 8.039 1.431 18.619-9.677 29.029.188-.125.384-.242.592-.346 2.869-1.418 6.45-.024 7.999 3.109 1.55 3.136.479 6.826-2.391 8.242-2.869 1.418-6.451.024-8-3.109-1.147-2.324-.854-4.952.543-6.733-11.316 10.339-25.989 20.411-32.109 27.548-11.391 13.281 6.427 26.841-8.674 66.771-4.976 13.157 9.752 26.063 58.383 16.822 8.017-1.523 14.718-4.479 20.276-8.064a7.71 7.71 0 0 1-.387-.689c-1.955-3.958-.232-8.802 3.848-10.815 3.006-1.484 6.447-1.017 8.836.912 5.568-6.273 8.75-12.354 10.094-15.342 7.691-13.702 9.49-32.604 8.27-47.204-2.546.462-5.286-.935-6.587-3.571zm-88.679 15.605c-1.954-3.958-.231-8.802 3.849-10.814 4.08-2.018 8.973-.441 10.929 3.517 1.955 3.959.231 8.801-3.849 10.816-4.079 2.013-8.973.439-10.929-3.519zm15.981 70.485c-2.869 1.417-6.451.023-8-3.11-1.549-3.135-.479-6.826 2.392-8.241 2.869-1.418 6.45-.025 7.999 3.108 1.548 3.135.478 6.826-2.391 8.243zm.737-38.056c-4.08 2.015-8.975.439-10.93-3.519-1.954-3.958-.231-8.802 3.848-10.814 4.082-2.018 8.974-.441 10.93 3.517 1.954 3.958.232 8.8-3.848 10.816zm25.47-58.41c4.669-2.104 10.264-.46 12.501 3.666 2.235 4.126.266 9.173-4.401 11.273-4.666 2.101-10.264.459-12.5-3.667-2.236-4.124-.267-9.174 4.4-11.272zm-3.651 79.248c-4.08 2.015-8.974.439-10.929-3.519-1.954-3.958-.232-8.802 3.848-10.814 4.081-2.018 8.973-.441 10.93 3.517 1.953 3.958.231 8.8-3.849 10.816zm12.42-35.113c-4.08 2.015-8.974.44-10.929-3.518-1.954-3.958-.232-8.803 3.848-10.815 4.081-2.017 8.973-.441 10.93 3.518 1.953 3.957.231 8.8-3.849 10.815zm13.163-62.411c-1.548-3.135-.478-6.826 2.393-8.242 2.869-1.418 6.449-.024 7.999 3.109 1.549 3.136.479 6.826-2.392 8.243s-6.452.024-8-3.11zm5.904 43.868c-1.549-3.135-.479-6.826 2.392-8.242 2.869-1.418 6.45-.024 7.999 3.109 1.549 3.136.479 6.827-2.391 8.243-2.869 1.419-6.451.026-8-3.11zm10.291 34.281c-2.869 1.417-6.451.023-8-3.11-1.549-3.135-.479-6.826 2.392-8.242 2.869-1.418 6.45-.024 7.999 3.109 1.548 3.135.478 6.826-2.391 8.243z"/><path id="sd1" fill="#003" d="M1447.925 1495.797s4.078 79.712 36.578 100.712 67.5 33.5 94 25 49.047-18.774 49.047-18.774-3.88 10.774-32.5 21.469c-3.048 1.807-29.714 14.307-91.666 8.215-16.81-2.343-56.856-8.644-63.356-20.644s-8.929-23.087-9.929-26.587 2.479-26.91 2.479-26.91 4.835-22.771 4.835-24.271 10.512-38.21 10.512-38.21z" opacity=".3"/><path fill="none" stroke="#000" stroke-linecap="round" stroke-linejoin="round" stroke-miterlimit="10" stroke-width="6" d="M1457.927 1421.844c-2.667-20.334.188-28.584.188-30.918s6.813-6.082 7.146 4.25c.333 10.334 4.333 43.668 12 57.668s38.545 50.017 42.333 54c1.568 1.647 43.314-1.077 68.012 18.468 26.43 20.915 9.75 49.564 22.416 56.564 12.668 7 18.123 19.979 17.498 23.108-3.125 5.33-21.222 18.09-42.926 23.858-23.063 6.131-88.667 6.332-125-4.668s-31-47-28.667-60.666c1.166-6.832 6.378-37.553 14.667-63.002 8.294-25.47 19.667-45.666 19.667-45.666s-4.668-12.662-7.334-32.996zm126.898-23.018l-4.565 3.019s11.999 18.666 24.333 24.666 26.667 11.668 30.667 16.334 37.667 17.666 41.667 24.666c17.666 16.334-27.237 33.016-41.965 55.962-13.834 21.556 1.642 38.804-1.692 52.47-1.58 6.481-12.101 23.883-2.125 30.989 11.052 7.877 37.73 2.614 52.448 1.913 28-1.334 39.667-27.332 42.667-34 10.667-19 11.917-48.534 7.583-62.199-4.334-13.668-10.958-28.164-39.916-41.801-19.667-15.666-39-24-44-27.332-5-3.334-23.666-18-32-20.334-8.334-2.332-28.256-23.169-28.256-23.169l-4.846-1.184z"/></svg>