<svg xmlns="http://www.w3.org/2000/svg" id="bra" viewBox="0 0 3000 3000"><path id="cl1" fill="#B74253" d="M1442.3 1387s3.604 57.102 3.2 57.602c-.5.5.5 12.802-10 35.898-10.5 23.1-26.8 43.802-21.4 82.7 5.5 38.898 21.9 44.8 28.104 51.8 6.198 7 27 14 61.8 14s67.3 2.5 82.8-4.3 44.804-12.5 58.804-23.8c0 0 20.3 7 47 9.3 12-1 34.3-7.5 47.5-31 13.196-23.5 13.598-50.578 6.798-72.777-11.271-25.367-30.068-31.255-42.798-40.223-7.896-5.561-63.304-27-69-36.3 0 0-22-27.302-25-35.802-1.4-2-21.5 4.302-21.5 4.302s16 24.8 22.5 30c6.5 5.198 46 30.8 52.3 35.3s17.5 20.3 18 40.3-7 35.302-17.3 48.802c-10.304 13.5-42 18-49.304 12.5-10.5-3.802-51.5-21.802-101-60-44.8-35.302-34.3-35-39-39.5-4.696-4.5-3-62.802-9.5-77.5-.004-4-23.004-1.302-23.004-1.302zm9.7 235.4s13.6 24.8 11.4 30c33.6 5 121.3 3.6 130.999 3 53.301-4.2 97.5-13.9 99.701-17 2.196-3.102 8-28 8-28"/><path id="sd1" fill="#973751" d="M1434 1483s-7.3 60.7 39.3 97.302c0 0 58 37.3 114.301 23 56.303-14.302 60-24.302 60-24.302s50 18 75 5.302c14.803-9.5 24.303-24 24.303-24s-7 20.198-16.803 28.898c-9.801 8.7-13.897 13.802-27.197 17.899-3.104-1.399-4.104 20.101-4.104 20.101s-30.5-4.8-54.3-2c-23.8 2.802-95.3 23.302-130.5 19-4-.398-4.3 9-3.8 9.802.5.8-47.102-1.602-47.102-1.602s-3.398-19.398-13.102-31.102c-9.7-11.698-21.8-11.801-33.3-42.801s-.5-55.301 0-59 15.8-36.5 15.8-36.5l1.504.003"/><path id="cl2" fill="#FFF" d="M1542.595 1526.207c26.584 16.983 83.572 42.375 83.572 42.375s-109.056 1.368-137.333-34.415c-27-34.167 17.243-35.563 26.957-26.53 5.969 5.551-2.765-.321 26.804 18.57zm103.905 37.627s55.944-10.78 60.334-56.334c2.666-27.667-28.422-28.247-27.499-17.354.923 10.891 15.831 47.022-32.835 73.688z"/><path fill="none" stroke="#000" stroke-miterlimit="10" stroke-width="6" d="M1442.3 1387s3.168 54.53 3.2 57.602c.007.707.5 12.802-10 35.898-10.5 23.1-26.8 43.802-21.4 82.7 5.5 38.898 21.9 44.8 28.104 51.8 6.198 7 29.165 17.5 63.965 17.5s67.733-3.898 80.635-7.8c12.9-3.898 44.804-12.5 58.804-23.8 0 0 20.229 10.559 47 9.3 14.896-.7 36.896-13.032 47.5-31 13.196-23.5 15.861-44.5 9.063-66.7-6.803-22.199-27.194-37.567-45.063-46.3-8.677-4.239-59.379-27.398-69-36.3-8.015-7.413-22-27.302-25-35.802-1.4-2-21.5 4.302-21.5 4.302s16 24.8 22.5 30c6.5 5.198 46 30.8 52.3 35.3s17.5 20.3 18 40.3-7 35.302-17.3 48.802c-10.304 13.5-34.104 15.78-49.304 12.5-10.916-2.356-51.5-21.802-101-60-31.817-27.261-36.923-35.143-39-39.5-4.552-9.552-6.896-64.749-10.302-79.691-.004-4.002-22.202.889-22.202.889zm3.766 231.305s13.025 26.878 17.334 34.095c33.6 5 121.3 3.6 130.999 3 53.301-4.2 97.5-13.9 99.701-17 2.196-3.102 8.579-30.103 8.579-30.103"/></svg>