<svg xmlns="http://www.w3.org/2000/svg" id="图层_2" viewBox="0 0 3000 3000"><path id="cl1" fill="#FFF" d="M1731.668 1500c-24.704-23.429-42.954.5-57.914-9.377-1.551-1.023-8.727-8.113-8.918-10.127 4.664-2.391 5.411-9.826.864-13.329-6.127-4.721-18.245-.981-28.306-7.04-.166-.101-20.814-18.118-25.597-25.855-5.159-8.351-12.646-37.17-12.646-37.17h-12.833s13.862 29.744 19.813 38.89c4.95 7.608 22.9 28.176 22.9 28.176.069-.015.704-.024 1.688-.031-6.407 1.893-8.479 7.596-7.967 11.793.908 7.451 15.711 11.678 34.599 7.745.215-.044 3.303 6.007 3.519 5.999 2.231 6.523 6.717 18.484-21.896 55.004-19.723 25.174-17.61 34.056-18.828 39.579-1.875-10.778-10.647-7.253-14.346.245-18.734-69.116-68.134-78.373-99.08-84.829a23.847 23.847 0 0 0 4.756-4.735c-2.969 3.058-7.938 5.064-13.571 5.064-9.095 0-16.468-5.224-16.468-11.665 0-6.442 7.373-11.665 16.468-11.665s16.467 5.223 16.467 11.665a8.29 8.29 0 0 1-.156 1.523c2.228-6.582-.681-13.141-12.581-14.146l-39.101-87.411-11.001-2.002 42.156 89.646c-17.659 2.861-19.257 21.826-2.097 24.946 1.689 6.753 3.543 5.063-4.71 13.313-8.253 8.253-47.646 23.423-46.894 51.934.75 28.512-2.097 35.958-2.097 35.958l15.403 31.134 23.838-7.955s27.482 18.907 64.208 13.398c37.488-5.623 56.127-35.798 61.189-39.174 5.063-3.377-.495 15.757 9.634 14.914 10.129-.844 9.866-19.414 9.866-19.414s19.673 16.988 60.5 10.5c53.536-8.51 58.556-67.086 49.139-105.501zm-62.69-27.65c-2.588 10.82-18.829 13.275-28.132 13.275-9.304 0-16.482-7.023-16.029-12.913.245-3.189 8.059-8.683 11.223-8.979 9.171-.853 33.915 4.531 32.938 8.617z"/><path id="sd1" fill="#C2C2C2" d="M1729.815 1566.504c-29.471 32.589-79.491 24.622-102.84 21.132-8.209-1.228-8.961 2.268-11.973 2.917-8.063 1.74-3.616-1.564-28.311 16.952-44.51 28.11-114.629-17.73-135.536-65.178-3.338 4.815-11.433 17.504-11.244 24.614.75 28.513-2.019 35.153-2.019 35.153l15.403 31.134 23.838-7.955s27.482 18.907 64.208 13.398c37.488-5.623 56.127-35.798 61.189-39.174 5.063-3.377-.495 15.757 9.634 14.913 10.129-.843 9.866-19.413 9.866-19.413s19.673 16.987 60.5 10.5c15.341-2.436 42.932-13.327 47.285-38.993z"/><path fill="none" stroke="#000" stroke-linecap="round" stroke-linejoin="round" stroke-miterlimit="10" stroke-width="6" d="M1731.668 1500c-24.704-23.429-42.954.5-57.914-9.377-1.551-1.023-8.727-8.113-8.918-10.127 4.664-2.391 6.031-10.829.864-13.329-6.757-3.27-12.063-2.846-20.806-4.966-12.14-2.943-25.343-19.507-33.093-29.317-5.916-7.489-12.648-35.782-12.648-35.782h-12.833s12.656 25.847 17.681 36.713c5.396 11.666 25.032 30.353 25.032 30.353-4.699 2.385-7.566 9.857-5.184 14.169 3.962 7.165 14.614 9.271 33.502 5.338.215-.044 3.303 6.007 3.519 5.999 2.23 6.524 6.717 18.484-21.896 55.004-19.723 25.174-17.611 34.057-18.829 39.579-1.875-10.778-10.646-7.253-14.345.245-18.735-69.116-68.134-78.373-99.08-84.829 10.254-7.69 13.239-22.409-5.087-23.958l-39.101-87.411-11.002-2.002 42.157 89.646c-17.659 2.86-19.257 21.825-2.097 24.945 1.689 6.753 3.543 5.063-4.71 13.313-8.253 8.253-44.136 23.547-46.894 51.934-1.647 16.954-2.097 35.958-2.097 35.958l15.403 31.134 23.838-7.954s27.482 18.906 64.208 13.397c37.488-5.623 56.127-35.798 61.188-39.174 5.063-3.377-.494 15.757 9.635 14.914s9.865-19.414 9.865-19.414 19.552 16.168 60.5 10.5c57.254-7.926 58.559-67.086 49.142-105.501z"/></svg>