<svg xmlns="http://www.w3.org/2000/svg" id="bra" viewBox="0 0 3000 3000"><path id="cl1" fill="#F06D2D" d="M1441.332 1392s8 56.668 1.334 82.668c-6.668 26-24 50-25.668 75-1.666 25-.013 41.998 14.16 52.332 14.174 10.334 21.681 29.643 29.592 45.113 2.499 4.887 3.807 19.754 12.431 17.168 46.652-13.987 130.608-34.053 164.069-38.531 18.415 4.234 55.76 10.35 55.76 10.35s1.536-20.868 3.964-29.493c24.398-3.422 47.026-26.938 55.692-68.938 8.668-42-28.332-67-28.332-67s-37.334-28-74-39.668c-12.334-4.666-22.668-8-38.668-34l-11.666 1.668s11.334 22 35.334 34.666c24 12.668 48.332 28.334 56.332 41 8 12.668-41.332 24-52.332 26s-80.668 22-125.334 10.334c-34.668-10-38-36-42-47.668-4-11.666-13-54.666-17.334-71-.762-2.422-13.334-.001-13.334-.001z"/><path id="sd1" fill="#92421B" d="M1439 1484.668s-14 52.666 15.666 77c29.668 24.332 64.668 32.666 71 33 6.334.332 49 10.998 118.334-33.668 8 3 85.332 33.334 105-15-5.334 29.334-27.692 64.272-52.026 60.606-4.974 10.644-3.964 29.493-3.964 29.493s-51.51-10.35-77.484-7.66c-10.761 1.114-146.525 36.848-146.525 36.848l-20-48.619s-21.334-9.666-29.334-33.334c-8-23.666-3.332-45 5-64.334 8.333-19.332 14.333-34.332 14.333-34.332zM1580.666 1512c1.334-.666 27 11.668 27 11.668s-33.327 6.334-36.164 8.666c-2.836 2.334 57.166-10.666 72.832 0s-18-10.036-18-10.036 13.334-13.964 18-21.298c4.666-7.332-28.002 14.334-29.334 14.668-1.334.332-34.334-3.668-34.334-3.668"/><path fill="none" stroke="#000" stroke-miterlimit="10" stroke-width="6" d="M1439.332 1392s8 56.668 1.334 82.668c-6.668 26-24 50-25.668 75-1.666 25 5.903 43.57 14.16 52.332 12.03 12.766 22.177 21.589 58.009 27.833 44 7.667 101.999 2 141.667-29 29 6.668 52.748 11.087 78 3.334 15.691-4.817 37.718-24.052 43.832-66.499 5.834-40.501-28.332-67-28.332-67s-37.334-28-74-39.668c-12.334-4.666-22.668-8-38.668-34l-11.666 1.668s11.334 22 35.334 34.666c24 12.668 48.332 28.334 56.332 41 8 12.668-41.332 24-52.332 26s-80.668 22-125.334 10.334c-34.668-10-38-36-42-47.668-4-11.666-13-54.666-17.334-71-.762-2.421-13.334 0-13.334 0zm6.523 225.985l24.188 47.302s104.292-33.888 155.791-37.953c26.308-1.471 52.843 5.1 67.176 8.766 1.512-1.438 1.646-29.041 1.646-29.041"/></svg>