<svg xmlns="http://www.w3.org/2000/svg" id="face" viewBox="0 0 3000 3000"><path id="hl1" fill="#E7E6E2" d="M1800 1105.9c-8.2 11.2-14.5 23.5-20.2 36.1-13.2 11.6-31 12.1-43.8 1.3 0 12.2-1 13.4-13.7 16-3.3.7-6.6 1-9.9 1.4-9.6 1.1-16.9-1.8-21.3-11-1.3-2.8-2.9-5.9-5.8-7.8-1.9 19.9-3 20.8-23.9 20.8-5.7 0-11.3.2-17-.1-13.4-.9-15-2.5-16.5-17.9-3.8 14.2-11.9 18.1-24.2 14.5-4.4-1.3-9.3-.3-14-.5-12.7-.4-15-2.4-16.6-14.5-1.1.8-1.7 2-2.5 3.1-6.1 7.9-9.3 8-14.6-.8-10.5-17.4-20-35.4-31.7-52.1-14.1-20.2-30.5-37-56.7-42.5-34.3-7.2-53.3-31.6-64.7-63.4-7.4-20.8-12.7-42.2-14.9-64.1-2.5-24.5-13.9-45.7-22.9-67.9-1-2.5-2-5-3.2-7.3-11.4-21.6-6.4-40.5 9.5-57.6 14.2-12.6 31.9-19.8 47.4-30.3.7-.4 1.5-.8 2.3-1.1.7-.4 1.4-.7 2.2-1 1-.5 2.1-.9 3-1.5.6-.5 1.2-.9 1.8-1.3.6-.5 1.2-.9 1.9-1.3s1.3-.8 2-1.2c.7-.5 1.4-.9 2.1-1.3.7-.5 1.4-1 2.2-1.4 21.5-13.2 43.8-24.6 67.5-33.3 19.4-12.7 37.6-6.6 56.4 2.4 38 18.2 74.1 39.3 106.8 65.9 2.3 1.9 4.8 3.5 7.8 4.4 23 6.7 43.7 2.1 63-11.7 10-7.1 21-12.6 31-19.8 7.6-4.3 14.3-10.1 22.7-13 7.6-3 15.3-3.4 21.2 2.8 18 18.9 39.8 33.9 55.5 55.1 7.9 14 13.4 28.8 17 44.4.6 2.6.8 5.3.7 7.9-.6 23.3-2.6 46.5-7 69.4-2.3 12.2-6.6 23.6-12.4 34.6-4.8 9.1-9.5 18.3-13.8 27.6-5.3 11.4-5.6 22.9-1.1 34.8 3.7 9.6 8.6 18.7 10.5 28.9 2 11.7-2.8 19.8-13.3 24.8-7.5 3.6-14.7 7.7-22.3 10.9-10.1 4.4-18.5 11.1-26.5 18.6zm8.3-474.4c-1.2-2.4-2.2-4.8-3.5-7.1-24.1-44-60.3-74.8-105.2-96.1-60.2-28.6-124.1-41.8-190.4-43.6-43.4-1.2-86.6 2.4-129.4 9.9-21.6 3.8-43.1 8.2-63.9 15.8-3.3 4-.8 7.6 1.2 11 4.6 7.7 8.1 16 11.9 24.1 5.6 11.8 12.3 23.1 21.8 32 35.3 32.6 67.6 68.8 113.2 88.6 19.1 8.3 36.9 20 56.5 27.3 54.7 20.4 111.3 33.6 168.8 43.5 29.7 5.1 53.5-10.1 79.7-17.1 2.8-.8 4.7-3.6 7.1-5.4 25.9-19.9 33-47.9 34.1-78.5-.2-.6-.4-1.2-.7-1.9-.3-.8-1.1-1.5-1.2-2.5z"/><path id="cl1" fill="#C7C8BC" d="M1316.1 510.3c.2 1.6-.1 3.6.7 4.9 11.1 17.3 16.5 37.9 30 53.8 7.7 9.1 16.4 17.4 25.2 25.6 10.6 10 21.6 19.6 32.8 29 12.4 10.4 23.5 22.7 38.8 29.1 16.3 6.8 31.1 16.4 46.8 24.3 23.2 11.6 47.2 21.1 72.4 27.7 15.1 4 29.8 9.2 44.8 13.4 13.4 3.7 27 6.3 40.8 8.1 11.8 1.5 23.2 5.3 35.1 6.7 6.6.8 13 2.3 19.6 3 7.7.8 15.1-.3 22.4-3.4 10.4-4.4 21.1-8 32.1-10.6 7.3-1.7 13.8-4.7 18.6-10.7 1.4-1.8 3.1-3.5 4.9-5 17.1-14.1 23.1-33.2 25.2-54.3.5-5.4.5-11.2 4.2-15.9 11.4 18.5 17.7 39.1 23.6 59.8 3.6 12.8 6.4 25.7 8.2 38.9 2.2 15.6 7.3 30.2 14.6 44.1 4.3 8.2 9 16.2 11.5 25.2-1.4-.9-3-1.6-4-2.7-15.3-16.5-33.4-30.1-48.6-46.7-6.8-7.4-14.2-10.4-23.8-6.5-10.2.9-17.3 8.1-25.8 12.4-18.9 10.7-38.5 19.8-58.4 28.5-7.7 3.4-15.9 4.5-24.5 3.5-2.7-.3-5.9-2.3-8.4.8-4.1.1-6.6-2.8-9.4-4.9-7.4-5.5-14.4-11.7-21.9-17.2-20.1-14.8-42.4-26.1-63.8-38.8-10-5.9-21-10-31.5-15-7.4-3.5-15.5-3.3-23.2-5.1-3-.7-5.7.4-8.4 2.2-3.8 2.6-7.8 5.1-12.6 5.7-9-.1-15.9 5.4-23.8 8.5-16 6.3-30.5 15.4-45.6 23.5-.8.3-1.5.7-2.2 1.2-1 .6-2.2.8-3.2 1.4-.6.4-1.3.7-1.9 1-.9.4-1.9.9-2.8 1.4-.6.3-1.2.6-1.9.9-1 .5-1.9 1-2.9 1.6-.7.4-1.4.8-2 1.1-1.1.7-2.2 1.3-3.3 1.9-34 18.2-68.9 34.8-102.3 54.3-4.6 2.7-8.8 5.9-13.1 9.1-4.6 3.4-8.2 3.2-12-1.3-42.9-50.9-97.3-88.3-149.4-128.5-3.3-2.6-9.6-1.9-9.8-8.3 11.7-32.2 29.3-61.1 51.5-87 36.8-43.3 81.7-74.7 136.7-90.7zm23.4 526.9c3.3-1.6 6.5-3.5 10.1-4.3 2.1-.8 4.2-1.5 6.3-2.2 2-2.2 5.3-1.3 7.7-3.1.1-.1.6-.2.6-.2s-.4.2-.3.2c-1.7 1.2-3.8 1.4-5.9 1.9-2 1.9-4.8 2.1-7.1 3.1-3.5 1-6.9 2.4-10.1 4.3-3.7 1.3-7.6 2.3-10.9 4.5-7.1 2.2-10.1 6.8-9.1 14.2.6 4.6 1 9.3.4 13.8-2 14.6 4.3 24.1 17.6 29.5 7.9 5.4 16 10.5 24.1 15.6 11.6 7.2 22.5 16.7 37.8 13.5 24-5.5 48.3-8.7 72.5-12.8 16.3-2.8 30.3.9 40.2 15.3 4.5 6.6 10.1 12.3 14.6 18.9 4.9 5.2 8.6 11.4 13 17 3.6 5.3 6.7 10.9 11.1 15.6.6.8 1.3 1.5 2.2 1.9 56.6 5.7 113 4.4 169-5.9 14-2.6 28.1-5.2 41.5-10.5 3-1.2 6.1-2.2 7.4-6 2.3-6.6 6.1-12.5 7.5-19.4-7.3 3.1-15.4 3.8-22.8 6.5-7.3 2.6-11.9.4-16.6-4.8-2.4-2.7-4.5-6.5-9.2-6.9-.8 3.6 1.1 6.1 1.8 8.9 1.7 6.6.8 9.1-5.5 9.9-5.2.7-10.3 2.1-15.7 2.6-8.6.8-14.6-1.3-18.2-9.6-1.4-3.3-3.8-6.2-5.9-9.2-1.2-1.7-2.1-4.4-5.2-3.4-.1.4-.3.7-.3 1-.1 4-.1 8-.1 12-.1 8.4-1.2 10.2-9.5 10.6-10.6.6-21.3.3-31.9 0-2.9-.1-6.2-.8-8.5-2.4-2.1-1.5-.1-4.8-1.1-7.4-1.2-3-1.2-6.6-2-11.7-3 5.8-5.5 9.7-7.1 14-2.1 5.5-6.1 6.9-11.1 5.6-5.2-1.4-10.5-1.6-15.8-1.6-3.7 0-7.4.2-11-.2-6.7-.7-8.5-3.2-8.2-9.8.1-2.9 3-5.4.9-9-4.4 2.8-7.4 6.4-9.9 10.8-2.6 4.6-4.1 4.7-6.9.3-6.6-10.7-12.7-21.8-19.4-32.5-9.4-15.2-18-30.8-31.2-43.6-11.6-11.3-24.1-18.9-40.1-22.3-21.2-4.5-39.1-15.5-50.5-34.4-15.2-25-23.2-52.7-26.8-81.6-2.3-18.6-6.1-36.5-14-53.6-6.2-13.6-11.8-27.5-17.6-41.2-3.9-9.1-3.2-18 .5-27.1 3-7.5 8.1-13.6 12.8-20-9.3 3.8-17.2 10-25.2 15.9-12.3 9.1-25.6 16.8-36 28.4-5.4 6-10.5 12.4-12.4 20.3-3.2 13.5-2.5 26.9 1.4 40.3 3 10.2 6 20.4 8.3 30.8 7.6 34.4 13.7 69 15.6 104.2.2 3.1-.1 6.2 4.2 6.4 3.9 2.2 6.8-.8 10-1.1zm479.2 67.8c5.3.8 10.9 2.1 15.8-.1 12.5-5.7 24.2-12.1 27.8-27.4 2.1-8.8 4.9-17.2 0-25.9-1.1 11.8-6.3 20.2-18.1 24.7-9.5 3.6-18.3 9.1-27.6 13.5-7.5 3.5-13.2 8.6-16.6 16.2 6.1-2.1 12.3-2 18.7-1z"/><path id="sd1" fill="#86877F" d="M1418 758.1l1.8-.3c.8-.5 1.5-1.1 2.2-1.7.6-.1 1.2-.2 1.7-.3.9-.4 1.6-1.1 2.2-1.7.6-.1 1.1-.2 1.7-.3.9-.4 1.6-1.1 2.3-1.7.6-.2 1.2-.3 1.8-.3 2.1-.6 2.7.4 2.3 2.4-.7.5-1.4 1.1-2.1 1.6-.5.3-1 .5-1.6.5-1 .3-1.7 1-2.5 1.7h-.1c-1 1.3-2.9.8-3.8 2.2h.1c-.7.6-1.4 1.1-2.1 1.6-15.5 10.9-33 18.6-48.1 30.2-14.1 12.2-30 22.1-44.8 33.3-14.4 10.9-26.3 23.4-27.9 42.8-.8 9.5.6 18.7 3.2 27.5 12.7 42.9 19.7 86.8 24 131.2.4 3.7 1 7.2 2.1 10.7.2 1.1 0 2.1-.5 3-8.3 3.2-10.6 9.6-9.7 18 .5 5.2.9 10.7-.1 15.8-2.3 11.3 3.2 17.3 12.7 21.4 1.8.8 3.6 1.7 5.3 2.6 11.4 6.8 22.7 13.9 33.4 21.7 11.7 8.5 23.8 8.7 36.9 6.1 21.9-4.1 43.9-7.6 66-10.4 12.1-1.5 22.5 2.1 31.3 9.9 8.2 7.3 16.1 15 22.5 24 4.5 6 9.3 11.8 14 17.7 1.8 2.7 3.9 5.2 5.2 8.2 2.8 6.2 1 8.7-5.8 6.9-7.6-.9-15.2-1.8-22.8-2.8-7.4-.9-14.2-3.1-19.9-8.2-1-.9-2.1-1.6-3.2-2.4-18.4-13.3-18.4-13.4-41-10.7-12.6 1.5-24.9 4.6-36.2 10.6-12.3 6.6-24.8 12.9-36.9 19.9-4.7 2.7-8.9 3.6-14.1 1.5-4.3-1.7-8.8-3.2-13.4-3.8-17.6-2.3-30-12.1-40.6-25.9-10.3-13.5-22.2-25.7-33.2-38.7-3.7-4.4-8.1-7.6-13.3-10.2-29.7-14.4-59.2-29.1-88.8-43.4-5.6-2.7-9.9-6.3-13.5-11.4-22.8-31.9-37.1-67.5-47-105.2-9.1-34.9-13.6-70.4-14.7-106.5-1.3-44.2 2.2-87.8 14.7-130.3 2.7-9.2 5.3-18.5 9.6-27.1 19 10.3 35.3 24.5 52.3 37.6 23.7 18.2 46.7 37.2 69.8 56 5.2 4.2 9.4 9.3 13.6 14.4 9.1 10.9 20.3 19.9 28.9 31.5 21.2-15.2 43.7-27.3 66.4-38.8 16-8.1 31.8-16.5 47.8-24.7 2.9-1.5 5.7-3.4 9.1-3.9 1.4-.5 2.1-1.1 2.8-1.8zm395.9 347.8c-7.6-.2-13.4 2.9-17.9 8.9-3 4-6.1 7.9-8.6 12.1-5.8 9.9-5.7 18.8 7.3 17.8 2.9.5 5.7 2.2 8.6 2.4 6.6.5 14.7 1.1 18-4.9 4.9-9.1 7.3-22 10-32.5-5.7-1.9-12.6-3.7-17.4-3.8zm-125.5-310.1c14.3 1.5 27.7-.7 40-8.7 13.9-9 29.2-15.9 41.9-26.7.1-3.6-1.6-3.9-4.3-2.4-12.4 6.2-24.7 12.7-37.3 18.5-15.8 7.4-31.4 15.9-49.9 13.4-2-.3-4.1.1-3.9 3 4.7-.2 8.9 2.5 13.5 2.9z"/><path fill="none" stroke="#000" stroke-miterlimit="10" stroke-width="6" d="M1783.5 587.5c55.5 47.5 59.5 176 69.5 177 .5 3 26 42 33 73.5s2.9 79.5-8.5 101.6c-8.5 6.1-28.5 68.4-28.5 68.4s21 39.5 15.3 66.3-35.5 33.3-35.5 33.3-20-3.5-27-1.3-22.5 40.8-22.5 40.8-5.8 22.5-17.8 24c-129.5 30.5-210.8 12.8-210.8 12.8s-34 2-46.8-6c-5.3-7.8-27.3-19-27.3-19s-33 2.8-35 3.9-28.5 4.6-41.5 17.1-29.3 13.5-29.3 13.5-46-12.3-51-21.3-41.5-50.3-49-56-54.9-25.1-103-55c-87-122-64.9-286-64.9-286 2.6-27.9 8.3-53.3 16.3-76.2 48.4-138.6 182.5-186.3 182.5-186.3 302.5-80.9 433.8 30.4 481.8 74.9zm-515.5 281c-6-21.5-142.9-115.2-142.9-115.2m238.2 271l-44.1 19.5s-2.4 38.2 1.9 43.2 60 38.8 62.9 40.9 85.7-22.4 107.4-12.1c21.8 10.3 58.8 56.4 59.4 68m228.9-41.9s32.8 14.1 40.3 4.1 12.8-38.8 12.8-38.8"/></svg>