<svg xmlns="http://www.w3.org/2000/svg" id="horn" viewBox="0 0 3000 3000"><path id="cl1" fill="#7E6046" d="M1478.514 376.337c-2.245-28.781-6.334-46.418-12.026-52.993-12.747-16.354-30.865-16.354-54.195 0-24.292 23.49-37.921 50.508-40.887 81.053.08 11.785 3.287 23.089 9.621 33.912-12.907 2.726-26.135 1.203-39.764-4.65-15.474-6.013-26.136 1.443-32.149 22.448-11.464 42.812-1.282 65.179 30.545 67.103 27.338-13.549 47.781-19.882 61.25-19.08l-.08-.401c3.447 11.385 7.937 23.01 13.469 34.875-16.836 7.456-37.039 9.701-60.529 6.654-9.14.401-15.874 8.178-20.042 23.25-4.971 19.241-4.33 32.068 1.924 38.562 14.03 15.714 30.144 23.57 48.262 23.731 12.827-.882 29.823-13.629 51.149-38.402l.48.962c19.642 37.359 36.558 56.199 50.748 56.761 21.405 4.409 38.321 1.203 50.588-9.621 9.78-13.949 12.827-33.591 9.22-59.005-.642-8.578-2.646-13.468-6.013-14.831-59.245-42.173-79.769-105.587-61.571-190.328m452.538-.731c-6.435-12.73-14.409-19.306-23.991-19.585-14.409-2.798-25.32 1.189-32.595 11.891-10.491 15.738-17.276 43.856-20.284 84.354-16.507 68.826-48.262 108.065-95.266 117.718-17.206 27.978-16.087 52.669 3.498 73.932 25.529 6.925 43.715 7.625 54.627 2.099 15.528-10.492 26.229-24.41 32.035-41.827 17.627 3.357 31.615 8.744 41.896 16.228 29.518-4.687 45.954-11.472 49.382-20.284 2.657-12.939-.699-24.131-10.002-33.644-2.519-1.818-4.967-1.818-7.415 0-11.68 3.287-23.781 1.679-36.231-4.686 8.114-14.829 15.809-31.125 23.152-48.822 14.479 12.521 27.907 20.983 40.288 25.53 20.424-.489 37.701-7.624 51.829-21.333 3.357-29.027-.35-47.772-11.191-56.235-31.055 4.126-49.101 4.126-54.207 0 10.911-21.124 13.85-39.31 8.743-54.488-2.586-7.906-7.343-18.188-14.268-30.848z"/><path id="hl1" fill="#A18C75" d="M1934.69 575.649c1.608-3.707-.28-6.366-5.666-8.044-12.381 2.798-26.509 1.119-42.387-4.967-4.756 5.246-5.525 11.611-2.308 19.235 16.437 2.729 33.223.631 50.361-6.224m5.455-113.101l-7.974 7.064 9.442 3.147c14.06.42 28.258 1.679 42.526 3.567l13.29-1.469-5.665-12.31-47.004 2.028-4.615-2.027m-41.407-93.657c6.784-.7 14.618 2.938 23.641 10.842l14.339 7.694c-3.707-7.624-8.672-15.317-14.897-23.082-13.989-13.919-30.217-13.079-48.683 2.448l-15.387 54.138c-.49 25.949-5.247 50.57-14.199 73.861-22.104 41.828-50.36 67.218-84.773 76.031l-11.541 29.586 4.756-2.098c46.514-27.768 78.199-59.104 94.916-93.866l16.437-47.424c5.456-27.907 13.01-55.396 22.593-82.465m-425.223-54.499l-10.663-5.051h-14.431l-16.034 4.65-10.021 9.862c14.11-5.211 25.414-6.574 33.913-3.849 6.573 2.085 11.544 8.258 14.75 18.68l1.283 91.153c2.806 23.17 5.612 39.926 8.418 50.188 8.819 21.887 18.92 40.967 30.304 57.241l44.414 37.279h2.646l-5.452-12.426-25.896-21.084-26.295-36.958-5.051-9.059-9.86-43.292V405.6l6.253-29.502-6.013-28.06-5.612-20.122-6.653-7.859M1335.09 433.499c-6.013-.882-10.823.802-14.431 4.81-6.173 7.296-10.021 15.633-11.625 25.094 17.958-13.389 38-18.119 60.208-14.271 5.211-2.245 6.895-4.65 5.211-7.456l-39.363-8.177m50.827 120.256l4.009-5.612h-37.119l-10.903 5.052-11.224 20.283c16.755-14.112 35.195-20.685 55.237-19.723z"/><path id="sd1" fill="#5B3829" d="M1911.187 602.648l-10.351 4.406c-16.298 1.399-26.79-.489-31.406-5.735-3.637-4.057-3.916-11.331-.699-21.753-6.645 6.225-16.368 13.36-29.237 21.333-6.994 4.407-14.898 10.142-23.71 17.347-4.617 3.847-9.443 6.645-14.41 8.463l-9.093 1.119c-19.235-.909-33.783-4.547-43.646-11.051 1.679 14.688 7.483 24.411 17.487 29.237 17.205 5.945 34.762 6.295 52.667.979l8.954-10.212c8.183-9.023 15.388-19.165 21.543-30.566l2.728 1.259c15.458 2.588 27.908 7.344 37.421 14.198 19.585.28 36.301-6.785 50.221-21.123v-7.694l-28.469 9.793m88.552-81.696l1.608-23.852c-5.526 7.345-20.494 15.039-44.765 23.012h-5.526c-8.184-2.938-15.877-8.603-23.151-16.996-1.889-2.168-2.729-6.715-2.448-13.64-8.253.49-15.667 3.218-22.313 8.254-10.701 13.849-19.023 30.076-24.97 48.611-3.147 9.373-1.469 15.598 5.036 18.536l28.118-51.06c10.632 9.862 21.963 17.137 33.854 21.823 7.834 4.546 15.248 4.546 22.243 0 11.26-3.287 22.031-8.183 32.314-14.688M1542.25 622.141c2.886-5.772 4.088-14.591 3.447-26.296l-13.629 27.258c-3.849 3.528-17.558 3.528-40.967 0-5.772-1.844-11.464-9.379-16.916-22.688l-24.051-24.291c-6.654-3.368-18.921-4.249-36.718-2.646-23.169 7.696-49.385 9.22-78.728 4.649-9.701 18.118-1.844 33.271 23.49 45.537 11.545 7.375 22.528 9.059 33.11 5.211 10.904-3.367 20.124-10.262 27.499-20.684l16.275-11.625 17.236 28.861c10.663 12.266 21.806 21.005 33.511 26.296h36.397l14.271-10.262c9.221-19.32 11.144-25.815 5.773-19.32M1397.702 461.8l-5.211 2.485c-.562 6.173-2.084 10.422-4.57 12.907-15.072 14.672-29.021 23.971-41.849 27.9-12.827 3.928-25.976-.722-39.284-13.95l2.646 16.676 6.414 7.456 19.08 7.616 10.263-2.004 52.913-15.793 2.645-3.367 11.064 35.516 15.634 2.405c5.771-1.604 8.257-6.976 7.616-16.275-4.25-30.466-16.677-50.99-37.361-61.572z"/><path fill="none" stroke="#000" stroke-linecap="round" stroke-linejoin="round" stroke-width="6" d="M1848.936 605.095c-5.805 17.346-16.437 31.335-32.034 41.827-10.911 5.526-29.097 4.826-54.627-2.098-19.585-21.264-20.704-45.884-3.497-73.932 47.002-9.583 78.758-48.822 95.265-117.718 3.077-40.498 9.862-68.686 20.284-84.354 7.274-10.701 18.186-14.688 32.594-11.96 9.583.35 17.557 6.854 23.992 19.654 6.854 12.66 11.61 22.941 14.269 30.775 5.106 15.179 2.168 33.364-8.743 54.488 5.106 4.126 23.151 4.126 54.138 0 10.842 8.394 14.617 27.138 11.262 56.235-14.13 13.709-31.406 20.843-51.83 21.333-12.381-4.476-25.81-13.01-40.288-25.46-7.344 17.696-15.039 33.924-23.152 48.751 12.45 6.366 23.781 8.114 34.134 5.177 3.847-2.168 7.064-2.308 9.512-.49 9.304 9.513 12.59 20.704 10.003 33.644-3.428 8.813-19.935 15.598-49.451 20.284-10.216-7.412-24.204-12.798-41.831-16.156l11.751-11.82m75.821-131.496c-1.329 2.587-2.798 5.175-4.337 7.833m-22.382 44.275c1.608-3.917 3.287-7.974 4.825-12.03m-533.748-62.505c-6.333-10.823-9.54-22.127-9.62-33.913 2.966-30.545 16.675-57.643 40.968-81.132 23.329-16.275 41.447-16.275 54.195 0 5.771 6.574 9.78 24.211 12.025 52.993-18.199 84.74 2.326 148.155 61.411 190.325 3.367 1.362 5.372 6.253 6.013 14.832 3.607 25.414.562 45.055-9.22 59.005-12.266 10.823-29.183 14.109-50.587 9.7-14.19-.48-31.107-19.4-50.749-56.761l-.48-.962c-21.245 24.693-38.321 37.521-51.149 38.322-18.119-.081-34.233-8.018-48.263-23.65-6.253-6.414-6.895-19.322-1.924-38.482 4.25-15.153 10.903-22.849 20.042-23.25 23.491 3.046 43.693.802 60.529-6.655-.08-.08-.08-.241-.16-.32-5.452-11.625-9.862-23.089-13.228-34.233h-.08c-13.469-.802-33.913 5.532-61.171 19.08-22.126-1.282-33.751-12.506-34.954-33.511-.561-9.3.961-20.443 4.41-33.511 5.933-21.005 16.675-28.542 32.068-22.448 13.709 5.692 27.018 7.296 39.924 4.571 2.245 3.848 4.971 7.696 8.018 11.464m7.616 37.68a186.813 186.813 0 0 0 4.169 16.274c0 .161.08.24.08.401m34.073 88.268c-.722-1.362-1.443-2.806-2.164-4.249m-18.6-49.545c2.165 4.569 4.409 9.219 6.894 13.869m460.089 19.057a331.543 331.543 0 0 0 5.596-9.933"/></svg>