<svg xmlns="http://www.w3.org/2000/svg" id="horn" viewBox="0 0 3000 3000"><path id="cl1" fill="#FFEABD" d="M1460.601 653.1c5.699-11.301 8.899-22.801 9.6-34.301.8-11.8-1.1-23.699-5.6-35.8-59.9-32.3-117.9-83.399-174.301-153.2-37-62.3-72.4-119.6-106.199-172l-22.4-26.8c-25.2-11.1-48-9.899-68.4 3.5-15.8 23.5-21.699 48.101-17.5 73.8.4 3.601 1 7.2 1.801 10.801.899 3.399 2.399 7 4.399 11 6.101 11.8 17 26.199 32.8 43.3 4.301 4.6 8.9 9.3 13.801 14.3 28.899 28.1 52.6 54.4 71.3 78.8l3.5 1.101c-.601.399-1.2.699-1.9 1-.899.399-1.899.8-2.899 1.199-13.5 5-33.601 2-60.4-9-19.4-30.1-38.7-50.1-58.1-60.1-21.4 9-34.801 22.7-40 41.3-2.7 9.7-4.101 19.3-4 28.8 40 40 81.399 62.7 124.1 68.101 20.5 3.2 53.8.5 100.1-8.3C1293 577.3 1328.401 617.1 1366.601 650c24.099 23.8 55.399 24.8 94 3.1m581.239-432.5c-.9-.601-1.9-1.2-2.801-1.8-28.9-17.4-56.5-18.101-82.8-2.301l-52.101 113.7c-25.6 60.101-48.399 102.3-68.5 126.4-.399.399-.699.899-1.1 1.3l-49.4 62.5c-9.799 14.6-4.418 14.043-34.117 38.443 19.32 14.369 22.653 16.721 43.818 42.057 1.899 1.4 5.91 8.1 8.699 13.9 6.891 8.836 12.6 20.1 21.4 33.3C1830.24 605 1850.139 567 1884.44 534c98-19.5 153.9-48.899 167.8-88.199.601-3.5.8-6.9.8-10.301.2-19.699-8.8-37.1-26.9-52.3-14.6-6.7-35.5 15.9-62.6 67.601-14.6 11.399-29.199 18-43.8 19.8 23.899-33.4 52.399-68.2 85.3-104.4 19.301-19.6 34.1-42.1 44.5-67.6 5.499-12.001 2.9-38.101-7.7-78.001z"/><path id="hl1" fill="#FFFEE4" d="M1172.901 289.1c-9.5-17.301-18.4-29.601-26.8-37-9.2-7.301-17.801-8.7-25.801-4.301-3.1 1.601-4.5 4.5-4.3 8.801 14.101 37.5 33.8 67.1 59.3 88.8 11.7 6.3 21.6 8.3 29.801 6l-17.301-32.3c-3.1-10-8.1-20-14.899-30m696.739 215c12-7.5 10.899-9.601-3.3-6.5-6.4 1.5-12.601 4.2-18.5 8.399l13.3-20.1c7.2-10.7 5.1-11.6-6.4-2.9-22.399 19.601-37.3 33.9-44.6 42.801-7.4 8.899-16.8 19.5-28.4 31.699l-12.715 14.564L1785.5 592c8.899-15.2 16.739-21.699 30.939-43.399 15.501-18.001 33.301-32.8 53.201-44.501m-774.739-66.5c-5.8-12.2-13.4-18.101-23-17.801-9.8 1.2-13.5 5.4-11 12.7 4.1 12.101 7.8 17.8 11 17 26.8 21.5 53.6 35.3 80.3 41.5l2.5-9.5c-14.2-3.2-27.6-9.3-40.1-18.399-7.7-5.6-14.301-14.2-19.7-25.5m346.5 158c-.601-4.101-4.601-8-11.8-11.5-22.801-19.7-42.4-35.301-58.9-46.801-16.4-11.5-30.9-24-43.4-37.399-12.5-13.4-20.1-20.2-22.8-20.5-8.101-1.2-15.101-2.3-21-3.4-21.8-8.1-41.399-8.399-58.899-.7-7.201 3.101-15.5 5.4-24.701 6.9-16 2.7-31.1 2.4-45.299-.8l-2.4 9.6c17 4 34.1 4.8 51.1 2.5l40-5.8c14-1.1 27.801-.5 41.301 1.8 10.299-.899 36.5 21.101 78.6 66.101 6.9 7.399 14.4 15.6 22.4 24.6 34.897 30.199 53.498 35.299 55.798 15.399M2016.039 405c-4 1.101-7.5 4.9-10.6 11.4-6.801 14.3-16.6 27.8-29.301 40.3-2.299 3.5-1.299 6.5 3.101 9 14.101-6.6 29-19.2 44.8-37.8 2.1-2.9 3.801-6.6 5-11.3 3.301-10.799-1-14.799-13-11.6m-46.899-171.6c-1.5 2.5-2.9 6.4-4.4 11.6-5.1 25.301-12 49-20.899 71.301-5.101 22.399-1 24.399 12.3 6.3l12.3-17c11.9-16.4 18.3-38.7 19.4-66.8-2.501-20.101-8.701-21.901-18.701-5.401z"/><path id="sd1" fill="#D8AD88" d="M1114.901 373.3c4.2 4.601 8.8 9.301 13.8 14.301 28.9 28.1 52.6 54.399 71.3 78.8 1.2.399 3.101.7 5.5.8 2.4.2 6.8-2.3 13.3-7.5 2.7-2.101 4.9-4.101 6.9-6 .1-.2.1-.5.2-.7l.8-2.8c0-.101 0-.3-.1-.4l-.2-2.399v-.4c-.5-1.1-.899-1.899-1.3-2.7-.9-1.5-2-2.7-3.1-3.5-.9-.7-1.5-1.1-1.701-1.399-.1-.101-.1-.2-.1-.3-23.1-12.9-44.699-27.601-64.6-44-10.5-8.601-16.801-13.7-18.9-15.301-2.1-1.6-7.199-5.899-15.1-12.8-7.9-6.899-21.1-19.2-39.4-37.1 5.901 11.898 16.8 26.298 32.701 43.398M1470.3 618.6c-15.6 13.8-28.8 20.899-39.699 21.199-9.801 1.7-21.7 1.101-35.5-1.8-51.101-38.1-83.5-71.5-97.301-100.3-.1-6.4-2.3-12.8-6.8-19.2-5.399-12.1-23.3-14.6-53.8-7.5-8.5 1.2-17.301 2.3-26.6 3.2-59.801 4.4-107.801-8.2-144.101-38-9.5-10.9-18.399-22.3-26.601-34.3-2.699 9.7-4.1 19.3-4 28.8 40.101 40 81.5 62.7 124.101 68.1 20.5 3.2 53.8.5 100.101-8.199 32.6 46.699 68 86.5 106.199 119.399 24.2 23.8 55.5 24.8 94.1 3 6.002-11.399 9.202-22.799 9.901-34.399M2052.34 446c.6-3.5.8-6.899.8-10.3-4.4 4.4-16.101 13.8-34.9 28.2-18.899 14.4-44.1 24.9-75.6 31.5s-53.2 14-65.101 22.1c-9.899 5.7-22.699 18.4-38.6 38-14.4 19.9-24.834 36.138-35.934 57.838 7.399 7 13.233 21.662 22.033 34.862 5.301-43.1 25.2-81.1 59.5-114.1 98.001-19.5 153.902-48.9 167.802-88.1m-10.5-225.4c-.9-.601-1.9-1.2-2.801-1.8-.4 10.8-3.3 22.899-8.6 36.399-4 10.101-10.4 24.101-19.1 42.101l-3 4.5c-15.301 25.1-31.601 50-48.9 74.5-24.1 32.199-37.2 50-39.1 53.1l-3.601 6.1c-6.399 11-10.5 21.4-12.399 31.301-.9 8.1.6 14.899 4.3 20.199 3.7-5.399 7.5-10.8 11.3-16.3 23.9-33.399 52.4-68.2 85.3-104.399 19.3-19.601 34.101-42.101 44.601-67.601 5.199-12.1 2.6-38.2-8-78.1z"/><path fill="none" stroke="#000" stroke-linecap="round" stroke-linejoin="round" stroke-width="6" d="M1908.64 487.1c3.7-5.4 7.5-10.8 11.399-16.3 23.9-33.4 52.301-68.2 85.301-104.4 19.3-19.6 34.1-42.1 44.5-67.6 5.3-12.2 2.6-38.301-8-78.101-.9-.6-1.9-1.2-2.801-1.7-28.9-17.399-56.5-18.199-82.8-2.3l-52.101 113.7c-25.6 60.1-48.399 102.3-68.5 126.5-.399.4-.699.9-1.1 1.3l-49.4 62.601c-9.799 14.6-6.377 12.269-36.177 36.669 23.788 15.78 26.229 19.835 41.321 37.774 2.312 2.748 13.704 19.534 15.217 21.755 8 11.75 10 16.25 17.34 33.4 5.299-43.1 27.199-83.1 61.6-116.1 98-19.5 153.9-48.9 167.8-88.2.601-3.5.8-6.9.899-10.3.2-19.7-8.8-37.2-26.899-52.301-14.601-6.699-35.5 15.9-62.601 67.601-14.6 11.399-29.1 18-43.699 19.8M1831.14 462c1.1-1.199 2.3-2.5 3.399-3.899m-633.138 9.299c-.5-.7-1.101-1.4-1.601-2.101-18.6-24.399-42.399-50.699-71.3-78.8-5-5-9.6-9.7-13.8-14.3-15.801-17-26.801-31.4-32.801-43.2-2-4-3.5-7.7-4.399-11-.8-3.6-1.399-7.2-1.8-10.8-4.2-25.7 1.699-50.3 17.5-73.8 20.4-13.4 43.199-14.601 68.4-3.5l22.5 26.8c33.799 52.4 69.199 109.8 106.1 172 56.3 69.8 114.4 120.9 174.3 153.2 4.5 12 6.399 23.899 5.601 35.8-.701 11.5-4 23-9.601 34.3-38.601 21.8-70 20.8-94.101-3C1328.2 616.1 1292.8 576.3 1260.2 529.6c-46.301 8.699-79.6 11.399-100.1 8.199-42.7-5.399-84.101-28.1-124.2-68.1-.101-9.5 1.3-19.1 4-28.8 5.3-18.601 18.6-32.3 40.1-41.3 19.4 10 38.7 30 58.101 60.1 26.8 10.9 46.899 13.9 60.399 9 .901-.399 1.901-.799 2.901-1.299.7-.3 1.3-.7 2-1 2.2-1.3 4.1-2.9 5.8-4.7m50.9 67.9c6.1-1.2 12.5-2.4 19.1-3.801"/></svg>