<svg xmlns="http://www.w3.org/2000/svg" id="horn" viewBox="0 0 3000 3000"><path id="cl1" fill="#625B57" d="M1319.009 286.802c-.273-3.728-.546-7.364-1-11-1.454-12.545-3.727-24.728-6.909-36.364a217.417 217.417 0 0 0-21.273-51.727c-1.546 14.636-6.182 31.909-13.909 51.727-5.09 13.182-11.637 27.545-19.455 43-7.728 15.273-16.818 31.545-27.182 49-1.909 3.364-4 6.818-6.545 10.545-11 16.728-28 37.092-50.728 61.091-4.636 4.91-9.545 10-14.727 15.272-29.545 23.182-53 47.273-70.182 72.273-1.636 2.455-3.272 4.909-4.818 7.364-10.637 17.817-18.182 35.817-22.728 53.999-10.09 40-5.455 80.728 13.909 122.182 3 6.455 6.363 12.91 10.091 19.364 6.182 10.818 13.454 21.636 21.636 32.545 13.909 15.364 34.454 29 61.727 41 4.819 2.091 9.819 4.181 15.091 6.182 7.091 2.727 14.636 5.364 22.545 7.91 29 2.909 58-4.091 86.909-20.819 7.455-4.273 13.728-10.363 18.818-18.364 10.546-16.09 16.728-35.727 18.454-58.909 1.364-18 .182-38.09-3.817-60.454-2.092-22.455-14.273-40.728-36.455-54.818-2.091-1.272-4.273-2.637-6.636-3.909-6.636-3.636-14.091-7-22.272-10-2.455-1.728-4.546-3.636-6.091-5.909a21.357 21.357 0 0 1-3.455-8.637c-1.454-7.364 0-16.636 4.182-27.818 3.273-8.545 8.273-18.272 14.91-29.182 3.364-4 6.636-8.454 9.818-13.364 10.637-16.636 20-38.818 28.091-66.455.455-1.455.818-2.909 1.272-4.455.909-3.727 1.818-7.455 2.637-11.182 7.455-35.817 10.273-69.271 8.092-100.088m601.726 328.181c1.363-10.909 2.273-21.546 2.637-31.818 1.092-24.819-.272-47.909-4.272-69.091-5.183-28.001-14.818-52.818-28.818-74.637-7.909-12.363-17.272-23.727-28-34.091-6.363-6.182-13.272-12-20.728-17.545-2.727-2-5.546-4-8.363-5.909-4-2.637-8.092-5.272-12.363-7.727-8.364-6.818-16.001-14.182-23.001-22-4.363-4.909-8.454-10-12.181-15.363-15.183-21.364-25.909-46-32-73.91-1.637-7.636-3-15.545-4.001-23.636-1.545-13.182-2.272-26.909-2.091-41.272-10.363 11.636-18.545 25.363-24.636 41.272-7.272 18.818-11.546 40.727-12.909 65.546-.182 4.091-.364 8.182-.455 12.363-.182 11.091.183 22.818 1.182 35 0 4.727.455 10.272 1.273 16.818 3.272 23.728 15.909 50.364 37.818 79.91 4.182 5.636 8.728 11.363 13.636 17.181 4.728 9.273 7.364 18.273 7.728 27 .272 6.091-.545 12.09-2.363 18-1.364 4.364-3.364 8.637-5.909 12.909-3.273 5.364-20.217 20.938-25.398 26.12 79.981 46.398 93.315 95.398 114.671 211.244 7.091-3 9.727-5.363 15.818-11.182 4.909-4.545 9.545-10.09 13.908-16.363 12.637-18.455 22.819-44.363 30.729-77.728 3.088-12.637 5.815-26.273 8.088-41.091z"/><path id="sd1" fill="#423835" d="M1067.281 560.892c-3.272-2.455-5.819-5.455-7.545-9.091-10.091 40-5.455 80.727 13.909 122.272 3 6.454 6.364 12.817 10.091 19.363 6.183 10.817 13.364 21.636 21.545 32.545 13.909 15.364 34.454 29.001 61.727 41 4.819 2.092 9.819 4.183 15.091 6.183a425.959 425.959 0 0 0 22.455 7.908c29 2.909 58-4.091 86.909-20.727 7.363-4.273 13.636-10.455 18.727-18.364 10.546-16.09 16.728-35.727 18.455-58.909-29.455 36.455-79.455 42.909-150.091 19.364l-26.728-15.09c-34.727-21.273-62.909-63.364-84.545-126.454m186.364-49.364c3.272-8.637 8.272-18.363 14.909-29.182 3.363-4 6.636-8.454 9.818-13.364 10.636-16.636 19.908-38.818 28.09-66.455l-38 53.637c-11.091 15-22.727 27.636-34.909 38 .728.454 1.545.818 2.273 1.272-15.546 20.273-14.819 39.272 2.091 57 2.545 2.91 7.363 6 14.363 9.455 14.728 4.273 24.455 5 29.091 2-6.636-3.636-14.091-7-22.363-10-2.455-1.728-4.455-3.636-6.091-5.909-1.728-2.546-2.91-5.364-3.546-8.637-1.453-7.453.001-16.726 4.274-27.817m501.453-91.999c-14.636-9.273-28.908-26.182-42.636-50.546 3.272 23.728 15.909 50.364 37.909 79.91 4.182 5.636 8.728 11.363 13.545 17.181 4.728 9.273 7.364 18.273 7.728 27 .272 6.091-.546 12.09-2.364 18 8.092-4.363 12.637-10 13.819-16.818 13.908-20 14.182-38.364.727-55 .183-.182.273-.363.546-.545-.091-2.274-9.819-8.637-29.274-19.182m165.909 195.272c1.364-10.909 2.272-21.545 2.728-31.818 1.091-24.818-.364-47.819-4.271-69.091-.364 10.909-2.273 25-5.819 42.273-16.272 60.909-43.636 97.545-84.09 113.817 7.402 25.229 18.454 52.728 22.09 90.273 7.091-3 10.728-4.363 16.91-10.182 4.908-4.636 9.454-10.09 13.908-16.455 12.546-18.455 22.818-44.364 30.728-77.727 2.816-12.635 5.453-26.363 7.816-41.09z"/><path fill="none" stroke="#000" stroke-linecap="round" stroke-linejoin="round" stroke-width="6" d="M1737.519 550.102c5.183-5.181 21.944-20.847 25.216-26.21 2.546-4.273 4.546-8.545 5.909-12.909 1.818-5.909 2.637-11.909 2.363-18-.363-8.728-2.999-17.728-7.727-27-4.909-5.818-9.455-11.454-13.546-17.182-22-29.454-34.636-56.09-37.908-79.908-.909-6.455-1.273-12.091-1.273-16.818-.909-12.272-1.273-23.909-1.09-35 .09-4.183.181-8.364.363-12.364 1.363-24.818 5.636-46.545 12.818-65.363 6.182-16 14.363-29.909 24.818-41.545-.183 14.455.545 28.363 2.181 41.545 1.001 8 2.272 15.818 4.001 23.455 6.091 27.818 16.727 52.455 32 73.909a197.447 197.447 0 0 0 12.181 15.455c6.91 7.818 14.546 15.091 22.909 21.909 4.273 2.454 8.364 5.091 12.364 7.728a275.6 275.6 0 0 1 8.363 5.909c7.363 5.454 14.272 11.272 20.728 17.545 10.728 10.363 20.091 21.727 28 34.091 14 21.818 23.637 46.636 28.818 74.636 3.909 21.273 5.363 44.364 4.271 69.183-.454 10.272-1.363 20.909-2.727 31.818-2.273 14.727-4.91 28.454-7.908 41.09-7.909 33.364-18.182 59.273-30.729 77.728-4.363 6.363-9 11.818-13.908 16.455-6.182 5.817-10.819 7.182-17.909 10.182m14.728-244.822c22.546 12.272 38.637 25.728 48.273 40.454 5.545 8.546 8.909 17.546 10.091 26.91m-22.454 40c3.909 5.545 7.819 16.545 11.728 32.91m-203.092-338.819c4.909 5.455 9.818 7.363 14.818 5.909m-14.453-18.273c8.545 7.272 17.181 7.272 25.727 0m62.272 47.272c2.909 12.91.364 24.091-7.546 33.728m51.182 2.001c3 8.182 3 16.363 0 24.545m-8.454-30.454c2.272 11.818.817 23.636-4.546 35.454m-42.818-80.637c3.546 21.636-2.637 39.818-18.546 54.636m-13.545-128.454c1.546 12-2.181 21.182-11.182 27.455m-424.544-14.545c.455 3.636.818 7.363 1.09 11.091 2.182 30.909-.636 64.272-8.545 100.272-.818 3.727-1.636 7.455-2.545 11.182-.455 1.454-.818 3-1.273 4.455-8.091 27.636-17.454 49.817-28 66.454-3.182 4.909-6.455 9.363-9.818 13.363-6.637 10.818-11.637 20.545-14.91 29.182-4.273 11.091-5.727 20.364-4.273 27.728.637 3.182 1.818 6.091 3.546 8.546 1.546 2.272 3.545 4.272 6.091 5.909 8.182 3 15.635 6.364 22.363 10 2.272 1.272 4.455 2.545 6.545 3.909 22.182 14.001 34.273 32.273 36.454 54.818 3.909 22.272 5.182 42.455 3.818 60.454-1.818 23.182-8 42.728-18.546 58.909-5.09 7.909-11.363 14.091-18.727 18.364-28.91 16.728-57.909 23.636-86.909 20.727a425.959 425.959 0 0 1-22.455-7.908c-5.272-2-10.272-4.091-15.092-6.183-27.272-11.999-47.817-25.636-61.727-41-8.182-10.909-15.364-21.728-21.545-32.545a246.763 246.763 0 0 1-10.091-19.363c-19.364-41.455-24-82.183-13.91-122.272 4.545-18.092 12.092-36.091 22.728-54.001 1.545-2.454 3.182-5 4.909-7.363 17.182-25 40.545-49.091 70.182-72.272 5.182-5.273 10.091-10.364 14.818-15.273 22.818-24.091 39.728-44.454 50.728-61.182a184.85 184.85 0 0 0 6.454-10.545c10.364-17.455 19.455-33.818 27.182-49 7.818-15.455 14.362-29.818 19.454-43 7.727-19.909 12.364-37.091 13.909-51.728 9.273 16.183 16.364 33.455 21.364 51.728a278.287 278.287 0 0 1 6.731 36.544c-8.727-7.091-19.091-9.455-31-7.091m603.272 170.635c2.091 10.182-1.728 23.636-11.546 40.455m-115.181-13.727l15.909-8.636m-8.183 35.544c3.637.909 7.455 1.273 11.454 1.183 8.092-.182 16.91-2.455 26.455-6.728m-46.181 36.455c13.272-9.091 28.363-10.636 45.182-4.636m53.636 166.272c8.272 5.091 15 21.182 20.183 48.182m-44.728-54.182c16.091 20.363 26.363 43.908 30.817 70.546m-118.089-301.182c15.362 2.182 26.454-1 33.454-9.636m78.818-34.001c4.272 15.636 1.818 29.182-7.272 40.818m-598.637-163.636c7.909-3.546 15.909-3.546 23.818 0m-108.272 120.727c21.909-4.364 38.091-4.273 48.546.364m57.909-45.546c14.636 2.546 25.363 12.364 32.09 29.273m-87.727-45.182c21.363-9.091 39.728-10.181 55.182-3.182m-120.728 79.546c14.273-4.454 26-5.727 35.09-3.636m43.729 22.818c12.364 2.546 23.273 8.909 32.637 18.909 3.545 3.727 6.818 8 9.908 12.728m-93.545 119c15.545-2.818 33.272-14.637 53.091-35.546 3.273-3.364 7.091-7.818 11.455-13.182m3.636 8.636c.455 4.363.272 9-.727 14-1.728 8.727-5.637 18.454-11.91 29.272m-15-101.181c13.454 7.364 22.909 14.546 28.273 21.455m-194.364 40.363c1.728 3.637 4.273 6.637 7.637 9.091 9.364 6.818 25.091 8.728 47 5.637m-27.001-76.091c22.183-6.727 38.182-6.727 47.909 0m-61.727 183.636c14.091 8.364 26.637 8.364 37.545 0m-27.453 19.273c27.908 4.455 50.636 2.364 68.182-6.091a68.212 68.212 0 0 0 17.091-11.818m-2.001 91.454l33.454-10m-18.363 16.182c11.364-.819 25.636-6 43-15.364m63.363-189.908c11.091 19.181 15.273 49.636 12.546 91.271m.455-382.907l17.908 10.455"/></svg>