<svg xmlns="http://www.w3.org/2000/svg" id="horn" viewBox="0 0 3000 3000"><path id="cl1" fill="#dccdaf" d="M1740 343.5c-10.2-13.7-20.4-13.7-30.5 0-1.8 15.1-5.7 27.6-11.5 37.5-29.3 65-61.5 102.3-96.7 112.2-6.4 3.5-11.5 7.5-15.3 11.9-4.4 5.1-7 10.9-7.9 17.3-2.4 17.4-3.7 34.8-3.8 52.4-.4 59 18.1 101.8 55.5 128.3 26 7.5 43.4 7.7 52.1.5 17-6.2 36.4-31.4 58.1-75.6 12.6-20.8 20.4-62.2 23.2-124.2 5.6-54.9-1-105.4-19.6-151.6-1.1-3-2.3-5.8-3.6-8.7z"/><path id="hl1" fill="#ede7d1" d="M1739.7 344.3c-10.2-13.7-20.4-13.7-30.6 0-1.8 15.1-5.6 27.6-11.6 37.6-29.3 65-61.5 102.4-96.6 112.1-6.4 3.5-11.5 7.5-15.3 11.9l22.3-4.3c11.2-4.1 22.2-9.8 32.8-17 22.3-19.8 39.4-40.8 51.3-62.9 11.9-22.2 20.4-41.8 25.4-58.9 1.3-4.7 3.5-9.2 6.8-13.5 3.2-3.6 8.3-5.3 15.5-5z"/><path id="sd1" fill="#927a64" d="M1605.4 649.2c-14.1-23.9-24.5-48.7-31.1-74.5-.4 59 18.1 101.8 55.6 128.3 26 7.5 43.4 7.7 52.1.5 17-6.2 36.4-31.4 58.1-75.6 12.6-20.8 20.4-62.2 23.2-124.2 5.6-54.9-1-105.4-19.6-151.6 1.1 66.3-5.9 120-20.8 161-16.2 44.8-35.5 83.4-57.8 115.9-22.3 32.4-42.2 39.1-59.7 20.2z"/><path fill="none" stroke="#000" stroke-linecap="round" stroke-linejoin="round" stroke-width="6" d="M1576.2 524.3c.9-6.4 3.5-12.1 8-17.3 3.8-4.4 8.8-8.4 15.3-11.9 35.2-9.8 67.4-47.2 96.6-112.2 5.9-10 9.8-22.5 11.6-37.5 10.2-13.7 20.4-13.7 30.6 0 1.3 2.9 2.5 5.8 3.6 8.6 18.6 46.1 25.2 96.6 19.6 151.6-2.8 62-10.6 103.4-23.2 124.2-21.8 44.2-41.2 69.4-58.2 75.6-8.7 7.2-26.1 7-52.1-.5-37.4-26.5-56-69.3-55.5-128.3 0-17.5 1.3-34.9 3.7-52.3z"/></svg>