<svg xmlns="http://www.w3.org/2000/svg" id="horn" viewBox="0 0 3000 3000"><path id="cl1" fill="#C32C2C" d="M1141.564 412.348c-2.422 8.65-4.584 17.215-6.314 25.606-21.626 103.199 8.823 189.531 91.349 258.994 17.906 13.149 33.304 20.761 46.28 22.75 20.329-.346 38.148-9.948 53.633-28.633 5.795-6.92 11.159-15.138 16.263-24.653 3.72-8.392 6.747-16.436 9.083-24.048 6.661-21.54 7.958-40.051 3.893-55.536-2.422-9.169-6.747-17.214-12.976-24.221-54.93-14.187-94.204-30.018-117.733-47.404-28.719-21.281-52.507-55.536-71.625-102.768-4.154-9.342-8.047-9.342-11.853-.087m763.937 114.004c3.546-21.626 6.314-44.982 8.218-70.068 3.2-34.515-.433-49.048-11.073-43.598-44.982 79.237-96.646 135.15-141.628 153.749 6.402 4.499 15.132 13.284 20.928 19.945 6.575 7.699 13.926 11.534 19.721 22.088 7.354 13.495 16.725 24.546 22.693 42.798 4.066 12.37 7.785 25.778 11.245 40.311 33.824-32.526 57.093-87.543 69.896-165.225z"/><path id="hl1" fill="#D16764" d="M1354.885 585.531c-46.886-1.125-84.602-12.024-113.235-32.612-28.633-20.588-51.989-46.366-69.981-77.508 23.702 74.567 83.563 129.757 179.41 165.569 6.66-21.539 7.957-40.052 3.806-55.449m526.136-87.032c.519-1.211.951-2.423 1.471-3.634 8.736-22.146 14.273-45.501 16.436-70.241-5.45 23.356-13.755 46.279-25 68.944-19.464 39.186-49.135 66.435-88.927 81.573 6.574 7.699 12.717 16.868 18.512 27.422 38.321-33.65 64.185-68.338 77.508-104.064z"/><path id="sd1" fill="#9B1E1E" d="M1179.193 579.562l-6.055-9.775c-20.155-44.636-32.872-88.58-38.234-131.832-21.626 103.199 8.823 189.531 91.349 258.994 17.905 13.149 33.304 20.675 46.28 22.75 20.329-.346 38.234-9.861 53.719-28.633-50.001-13.667-98.962-50.864-147.059-111.504m644.821 71.703c4.065 12.37 7.785 25.778 11.159 40.311 33.91-32.525 57.18-87.629 69.981-165.224-40.137 78.547-67.212 120.242-81.14 124.913z"/><path fill="none" stroke="#000" stroke-linecap="round" stroke-linejoin="round" stroke-width="6" d="M1759.861 566.921c6.4 4.498 14.629 10.87 20.425 17.617 6.574 7.699 14.835 12.018 20.631 22.572 7.354 13.495 16.783 25.211 22.752 43.464 4.065 12.37 7.785 25.778 11.158 40.311 33.91-32.525 57.181-87.629 69.982-165.224 3.547-21.626 6.315-44.982 8.219-70.155 3.2-34.516-.433-49.048-11.072-43.599-44.983 79.239-97.113 136.501-142.095 155.014zm-533.869 129.25c17.907 13.148 33.305 20.761 46.28 22.75 20.328-.346 38.235-9.861 53.633-28.633 5.709-6.921 11.158-15.139 16.263-24.654 3.719-8.39 6.747-16.436 9.169-24.134 6.661-21.54 7.958-40.052 3.807-55.45-2.422-9.169-6.747-17.301-12.976-24.221-54.931-14.186-94.204-30.016-117.732-47.491-28.72-21.28-52.508-55.536-71.54-102.681-4.152-9.256-8.132-9.256-11.938 0-2.509 8.65-4.585 17.215-6.315 25.604-21.626 103.202 8.738 189.446 91.349 258.91z"/></svg>