<svg xmlns="http://www.w3.org/2000/svg" id="horn" viewBox="0 0 3000 3000"><path id="cl1" fill="#F0E487" d="M1594.772 532.096c-10.221 12.907-12.819 29.798-7.796 50.76 8.402 24.427 31.444 43.571 68.864 57.43 38.113 9.181 67.65 4.85 88.7-12.907 8.662-7.363 15.852-16.978 21.655-29.019 6.497-17.324 7.969-28.412 4.418-33.176 15.072-13.6 19.923-28.671 14.553-45.129 3.204-2.339 6.323-4.938 9.268-7.883 7.624-7.536 10.568-17.67 8.923-30.403 11.261-8.749 15.765-19.923 13.513-33.437l27.286-62.887-75.014 44.177c-13.254-1.126-25.9 2.079-37.941 9.528-5.89 3.639-9.442 9.182-10.654 16.892-19.577-1.3-31.704 6.756-36.468 24.08-20.01 2.339-35.688 10.309-47.034 23.821-7.537-2.944-21.744 6.411-42.273 28.153z"/><path id="hl1" fill="#F9FFB5" d="M1674.724 497.968c-5.024-5.024-10.741-4.504-17.324 1.559-5.024 4.591-7.623 10.135-7.796 16.631-1.213 14.206 3.811 23.993 15.245 29.278 9.701 3.811 18.104 2.858 25.12-2.945 2.858-4.591 2.858-9.095 0-13.339-6.583-9.356-11.607-19.751-15.245-31.184m37.94-29.019c-1.473-1.906-3.552-2.08-6.063-.607-3.725 2.079-5.891 4.765-6.584 7.883-1.212 5.717-1.126 10.221.434 13.513 4.678 9.788 11.954 14.812 21.828 14.985 10.481.26 14.726-1.646 12.82-5.63-6.669-10.827-14.119-20.875-22.435-30.144m-93.378 62.368c-.521-3.032-2.079-3.985-4.852-2.946-6.323 1.906-10.654 7.449-13.166 16.631-4.765 19.75-.173 33.869 13.859 42.271 6.67 3.984 13.859 5.716 21.655 5.197 2.599.086 4.592-.434 5.718-1.56 3.205-1.992 1.386-8.835-5.457-20.703-6.757-11.865-12.732-24.858-17.757-38.89m204.86-126.9l16.631-15.333-77.786 46.949c-2.252 1.212-5.197 1.472-8.922.866-4.417-.953-8.314-.087-11.521 2.686-3.378 3.031-4.504 7.189-3.378 12.56 2.078 7.449 7.189 12.301 15.245 14.64 5.977.952 9.961-.261 12.04-3.726.607-.952.953-1.992.953-3.204-.434-5.284.347-9.442 2.425-12.388l54.313-43.05z"/><path id="sd1" fill="#CCA55A" d="M1769.834 496.928c2.599 2.772 3.465 6.497 2.512 11.173-1.039 5.371-7.363 9.616-18.884 12.821-22.088 3.898-45.303-2.079-69.643-17.844 4.331 14.033 18.97 23.647 44.09 29.018a110.992 110.992 0 0 0 17.497 1.125c4.245 5.978 5.978 11.694 5.111 17.065-5.804 15.765-19.923 24.167-42.271 25.293-35.082 1.992-63.061-11.521-83.85-40.539-.434 14.552 5.718 27.199 18.45 37.94 22.089 16.372 44.61 23.215 67.738 20.529 5.023 5.284 5.63 11.607 1.819 18.97-4.506 8.749-14.293 13.687-29.365 14.813-37.594-1.386-69.558-16.112-95.89-44.35 8.402 24.427 31.443 43.57 68.951 57.43 38.113 9.182 67.65 4.938 88.699-12.906a1249.135 1249.135 0 0 0 12.993-23.128c4.419-8.056 7.104-16.805 7.97-26.246-.606-1.906-2.599-3.379-5.891-4.331-.953.605-3.205 2.078-6.93 4.417 24.601-26.506 33.782-44.783 27.719-54.918 13.687-19.229 18.537-31.271 14.639-35.948-.519.261-.952.521-1.559.78 14.205-16.805 20.097-29.278 17.844-37.334l28.151-58.729-37.68 55.352c-3.898 12.387-9.528 21.136-16.978 26.333-23.647 13.166-45.043 11.521-64.1-4.938.173 1.732.433 3.465.866 5.283 10.567 19.144 25.813 26.94 45.909 23.475.784-.26 1.477-.433 2.083-.606z"/><path fill="none" stroke="#000" stroke-linecap="round" stroke-linejoin="round" stroke-width="6" d="M1770.7 565.185c3.465 4.764 1.992 15.852-4.418 33.176-5.803 11.954-12.993 21.655-21.655 29.019-21.049 17.844-50.587 22.175-88.7 12.907-37.507-13.947-60.462-33.089-68.864-57.43-5.023-20.962-2.425-37.854 7.709-50.76 20.617-21.742 34.736-31.097 42.532-28.152h0c11.347-13.513 27.025-21.482 47.035-23.821 4.764-17.324 16.891-25.38 36.467-24.08 1.127-7.623 4.678-13.253 10.655-16.892 12.04-7.449 24.688-10.654 37.939-9.528l75.015-44.177-27.286 62.887c2.166 13.514-2.339 24.688-13.513 33.437 1.646 12.733-1.299 22.868-8.922 30.403-2.945 2.946-6.063 5.544-9.269 7.883 5.198 16.457.347 31.529-14.725 45.128a99.047 99.047 0 0 1-11.001 8.489c-.952.607-3.205 2.08-6.93 4.418-1.04.605-3.898 2.078-8.315 4.417-11.435 5.804-22.782 9.442-34.043 10.741-23.127 2.771-45.648-4.071-67.737-20.443-12.733-10.654-18.884-23.3-18.537-37.94.086-4.245.78-8.662 1.992-13.253 3.031-6.67 6.756-12.647 11.087-17.757m166.228-22.002c-2.427 1.906-5.197 3.725-8.315 5.457-.521.261-.954.521-1.473.78-6.671 3.465-14.64 6.41-24.081 8.835-.693.173-1.299.346-1.993.519-20.095 3.552-35.429-4.331-45.995-23.474-.347-1.819-.606-3.552-.866-5.284-.606-4.678-.606-8.922 0-12.646m-36.469 24.081a55.39 55.39 0 0 0-1.732 9.009c-.606 5.024-.26 9.702 1.039 13.946 4.331 14.033 18.971 23.647 44.091 29.018 6.063.866 11.866 1.213 17.497 1.04 13.167-.347 25.033-3.725 35.342-9.875 1.992-1.212 3.638-2.252 4.764-3.118"/></svg>