<svg xmlns="http://www.w3.org/2000/svg" id="wing" viewBox="0 0 3000 3000"><path id="cl1" fill="#413936" d="M967.199 1653.5c-9.699 9-12.699 1.301-12.699 0-25.301-171.3-158-163-158-163-33.301 9.301-6.7-28-6.7-28 5.3-35-28.7-123.699-58.3-135.3-29.601-11.6-9.301-28-9.301-28 38.301-56.3-20.699-173-23.3-188.3-2.6-15.3 6.7-6.7 6.7-6.7 138.3 209.601 325.6 187.601 325.6 187.601 14.5-1.7 25.7-6 25.7-6 15.7-6.7 41.7-21.301 41.7-21.301 15-16.699 46.3-5.3 46.3-5.3 164.7 36 275 309.3 275 309.3 5 18.301-11.7 9-11.7 9-248-75-431.299 67-441 76zm1034.401-.4c6 8.7 10.7 2.7 10.7 2.7 15.3-172.7 111-160.2 130-163.7 9-1.7 4-14.7 4-14.7-15-26.7-.101-107 34.6-144.6 28.101-21.7 20.101-25.4 20.101-25.4-40-51.3 12.3-189 12.3-189 7-32.3-4.7-11-4.7-11-19 58.7-92 118-92 118-137 115.3-210.5 46.3-210.5 46.3-14.8-18.3-29.8-16.3-29.8-16.3-140.101 21.4-233.399 312.7-233.399 312.7-5.301 13.3 4.699 12 4.699 12 195.999-86 347.999 64.401 353.999 73z"/><path id="hl1" fill="#5B504C" d="M2109.6 1231.2c-68.8 84.9-155.7 73.101-155.7 73.101-38.5-2-60-20.5-60-20.5-13.5-20-38.5-11-38.5-11-63 18-154.399 158.5-154.399 158.5s83.399-164.5 163.399-173.5c0 0 18.4-10.301 45 17 0 0 75.4 64.299 200.2-43.601zm-93.7 386.601c-66-90-115.6-226.4-116-229 16.5 102 113.5 246.5 113.5 246.5 1-8 2.5-17.5 2.5-17.5zm-50-251.5s97.5 100 180.5 111c0 0-3.5-10.5-4-14 0 0-73-14.5-176.5-97zm72.5-38s100.5 1 157-28.5c0 0-5.5-10.5-7-18 0 0-89.5 34.5-150 46.5zm-1234.5-114s101 100.5 197 92c0 0 41-.5 94.5-26 0 0 28-15.5 36-12 0 0 66.5 10 156 87 0 0-76-87-145.5-96.5 0 0-29.399-12-49 9.5 0 0-40 25-65 24 0 0-116.5 10-224-78zm-81 87s68 27 178.5 27.5c0 0-81.5-9.5-169.5-44-2.5-.5 5.5 4.5-9 16.5zm62.5 176.5c173-54 232.5-118 232.5-118-143.5 87.5-228 93-228 93 .5 17-4.5 25-4.5 25zm165 158c122.9-137.5 168-250 168-250-63.5 92-174 221-174 221 6.5 21 6 29 6 29z"/><path id="sd1" fill="#37312E" d="M1690.9 1564.801s95-173 122.5-204.5c0 0 10.8-10.2 23.9-21.801 15-13.3 32.899-28.5 40.6-32.199 0 0 6 0 11 17 0 0 1.2 27.8 3 38 1.8 10.199 31.5 177.5 121.5 285l-3.5 9.5s0 3-2.5 2.5c0 0-52.5-48.5-100.5-71.5 0 0-50.5-165-47.5-242 0 0-5.1-10.5-19-3.5 0 0-39.5 8-112 214.5 0 0-24.5 3-37.5 9zm454-73.5c3-.5 3-9 3-9-114.5-16.4-195-131.5-195-131.5-2 .5-26.5-26.5-26.5-26.5 31 110 131.5 204.5 131.5 204.5 50.5-47.5 87-37.5 87-37.5zm-134-158.5s101 51.5 141.5 56.5c0 0 16.5-52 41-67.5 0 0-118 21-182.5 11zm175.5-64.5c-4-11 0-54.5 0-54.5-72 68-115 81-115 81 60 8.5 115-26.5 115-26.5zM1373.6 1567.5s-93.301-162.699-173.301-236.699c0 0-36.699-20.7-43.3-18 0 0-40.1 145.1-200.8 341.8 0 0 3.3 5 9.3-1 0 0 95.5-61.8 133.5-70.8 0 0 71-145.5 76.5-224 0 0 2.5-8.5 8-13 0 0 2-4.5 1-9.5 0 0 3.5 1.5 5 3.5 0 0 15.5 1 14 14 0 0 42.8 26.6 113 202.5-.099 0 22.2 3.299 57.101 11.199zm-470.7-31.699s87-56.5 186-213.5c0 0-7.5 8.5-16.5 9 0 0-80.5 72-116.3 91.5-30.4 15.199-139.8 65.5-171.3 61.699 0 0-5 4.301 0 5.801.1 0 64.1-4.5 118.1 45.5zm-126.5-149.5s121.5-24.5 203.5-55.5c0 0-90.5 21.5-264-18.2 0 0-.8 6.5 22.3 17-.001-.001 14.999 10.7 38.2 56.7zm-40.5-116.5s28.5 12 57.5 16.5c0 0 98.5 11 116.5 13 0 0-144-45.5-179.5-95 0 0 9.5 33 5.5 65.5z"/><path fill="none" stroke="#231815" stroke-miterlimit="10" stroke-width="6" d="M967.199 1653.5c-9.699 9-12.699 1.301-12.699 0-25.301-171.3-158-163-158-163-33.301 9.301-6.7-28-6.7-28 5.3-35-28.7-123.699-58.3-135.3-29.601-11.6-9.301-28-9.301-28 38.301-56.3-20.699-173-23.3-188.3-2.6-15.3 6.7-6.7 6.7-6.7 138.3 209.601 325.6 187.601 325.6 187.601 14.5-1.7 25.7-6 25.7-6 15.7-6.7 41.7-21.301 41.7-21.301 15-16.699 46.3-5.3 46.3-5.3 164.7 36 275 309.3 275 309.3 5 18.301-11.7 9-11.7 9-248-75-431.299 67-441 76h0zm1034.401-.4c6 8.7 10.7 2.7 10.7 2.7 15.3-172.7 111-160.2 130-163.7 9-1.7 4-14.7 4-14.7-15-26.7-.101-107 34.6-144.6 28.101-21.7 20.101-25.4 20.101-25.4-40-51.3 12.3-189 12.3-189 7-32.3-4.7-11-4.7-11-19 58.7-92 118-92 118-137 115.3-210.5 46.3-210.5 46.3-14.8-18.3-29.8-16.3-29.8-16.3-140.101 21.4-233.399 312.7-233.399 312.7-5.301 13.3 4.699 12 4.699 12 195.999-86 347.999 64.401 353.999 73h0z"/></svg>