<svg xmlns="http://www.w3.org/2000/svg" id="wing" viewBox="0 0 3000 3000"><path id="cl2" fill="#734753" d="M1390.6 1615.9s131.6 138.5-14.4 454.6c0 0-84.2 162.7-311.5 68.5 0 0-103.8-32.2-114.6-264.6 0 0 22.1-51.2 60.8-86 0 0 1.4-7.5-6.1-7.5 0 0-241.3 10.1-357-468.3 0 0-44.8-337.5 75.2-330 0 0 210-34.5 618 295.5.1 0 214.7 173.1 49.6 337.8zm166.5 358.2c48 223.5 199.5 194.2 199.5 194.2 163.5-6.7 186-221.2 186-221.2 13.5-82.5-42-162-42-162 231-57 298.5-484.7 298.5-484.7 36-359.8-79.5-318.8-79.5-318.8-316.5 31-567 379-567 379-75 165 24 259.5 24 259.5-88.5 145.5-24 346.5-19.5 354z"/><path id="cl1" fill="#FFAFD1" d="M2064.3 1228.3s-23.3-14.7 3.3-32c0 0 12.7-3.3 42 0 0 0 8.7 15.3-4 22.7.1 0-13.3 9.3-41.3 9.3zm45.4-92.6c34-36-20.7-29.3-20.7-29.3-25.3 4-38.2 24.3-38.2 24.3-15.8 29.7 10.2 34.3 10.2 34.3 20 1.3 48.7-29.3 48.7-29.3zm-10.7-56c32-14 26-39.3 26-39.3-27.3-18-89.3 22.7-89.3 22.7-30 40 19.2 40 19.2 40l44.1-23.4zm-76.3 345c8.7 4.7 30.2 8 30.2 8-.8-13.3 21.9-28.5 21.9-28.5 72.3-93.2-58.4-138.5-58.4-138.5-31.3-8.7-165.3-12-165.3-12-16.7 2.7-45.3 14.7-45.3 14.7-19.3 76.7-38.7 95.3-38.7 95.3 194.6 21.3 246.9 56.3 255.6 61zm-495.4 88.6s55-96 166-114.3c0 0 67.7-5.5 98.6-128.5v-1.5s-34.5-17-124.5 18.5c0 0-55 20.5-134 131.5.1 0-8.2 52.7-6.1 94.3zm123.7-82.8s46.5 55.5 122 87c0 0 164 62 209 49 0 0 7.5-7 12-10 0 0 39.5-19 44-56.5 0 0 1.5-18.5 0-26.5 0 0 4-1.5-11-17s-70.5-48.5-178.5-69.5c0 0-36-5.5-89-6 0 0-3 4-8 2.5 0 0-34 24.5-61.5 31.5 0 0-28 10-39 15.5zm-82 148.6c21 10.6 82 24.9 82 24.9 31.5 8 45 16 45 16 10 6 18.5 16 18.5 16 16.5 10 23 17.5 23 17.5 11.5 10 34 22 34 22 5 5.5 23 18 23 18 27.5 14 50.3 17.5 50.3 17.5 34.3 9.5 50.7 4 50.7 4 29-8 45.5-21 45.5-21 21.5-13 32.5-50.5 32.5-50.5 2.5-34-3.5-57-3.5-57-79.5-6.5-189.5-50.5-189.5-50.5-63.5-21.5-116.5-67-116.5-67-13-6-34.5-26.5-34.5-26.5-3.5-2-4.5 0-4.5 0-36.8 16.8-54.5 39-54.5 39-8.5 8-25.5 35-25.5 35-9.5 12.5-7 12-7 12 7.5 32.5 31 50.6 31 50.6zm-28.5 137.5c16.5 39.6 20.5 42.9 20.5 42.9 9 8.5 31 31 31 31 5 6.5 33 18 33 18 21.5 10.5 69 54.5 69 54.5 5.5 5 18.5 21.5 20 23s15 16 15 16c7.5 11.5 23.5 38.5 23.5 38.5 17.5 14 31.5 10 31.5 10 3.5-34-42.5-126-42.5-126-15.5-30.5-69-144-69-144-11-5.5-96.5-58-96.5-58-32.5 47-35.5 94.1-35.5 94.1zM1556 1967c24.5-164 8-180.2 8-180.2l2-3.8c-19-11.5-31.5-45-31.5-45-13.5 136 21.5 229 21.5 229zm8 30.5s20 64 25.5 70.5c0 0 22 6.5 29.5 12 0 0 9-6.5 11.5-10 0 0-10-62-9.5-111 0 0 2-80.5.5-99.5 0 0-2.5-13.5-4-15 0 0-4-15.5-3.5-20 0 0-16-11.5-16.8-11.5s-8.3-8.5-10.3-8.5c0 0-9-8.5-12.5-12 0 0 7.5 116-10.5 202.5m62.1-169.5s9.5 199.5 16 234c0 0 15 23 25.5 35 0 0 43 1 56-3 0 0 7.5-3 10-9 0 0-20-168-33-190.5 0 0-42.5-46-74.5-66.5zm94.5 93s17 61.5 25 152.5c0 0 7.5 20 13 21.5 0 0 28.5 9 46.5-7.5 0 0 57-54.5 20.5-101.5l1-3.5-27-22s-2.5 12.5-25.8 5.8c0 0-25.7-5.2-31.7-12.7 0-.1-24.1-43.1-21.5-32.6zm37-93s38 78 41 116.5c0 0 10.5 5 32 25 0 0 20 8 32.5-22 0 0 30.5-32-4-57-2.5-2-18.5-9.5-23.5-13.5 2.4 1.7-9.5-8-23.5-13.5 0 0-14.6-9.5-27.8-14 0 0-28.2-24.6-26.7-21.5zm-64-132.5s39.5 77 43.5 90c0 0 9.8 12 18.9 25.5 0 0 26.1 28 68.1 44 0 0 26 10 53.5 25 0 0 1.5-25 0-31.5 0 0-16-33.5-15.5-38 0 0-61.5-52.5-70.5-62 0 0-94.5-51-98-53zm-255.5 40.5c-1.5 2-14 24-14 24-5.5 9.5-23 22.5-23 22.5-4.5 3.5-3 5.3-3 5.3h2c-2 3.8-4 14.3-4 14.3-9.5 54 12 151.5 12 151.5 2 9 4.5 25.5 4.5 25.5 46-123.6 25.5-243.1 25.5-243.1zm-63.5 69.5c-6 5-28 17.5-28 17.5-8.5 2.5-8 12-8 12-2.5 17-4.5 16-4.5 16-5.5 7.5-.5 90-.5 92.5.5 65.5-13 127.5-13 127.5-.5 4 13 11.5 13 11.5 5-2 40-13.5 40-13.5 12.5-15 30-63.9 30-63.9-28.5-90.6-15.5-210.1-15.5-210.1l-13.5 10.5zm-97.5 288.5c8.5-2.5 29-31.5 29-31.5 7-18 12-135.5 12-135.5 2.5-54 7-99 7-99-44.5 26-88 68.5-88 68.5-16.5 28.5-41 186-37 190.5s7.2 7.7 7.2 7.7c75.8 4.8 69.8-.7 69.8-.7zm-80.5-152c-10 12.5-15.5 14.5-15.5 14.5-26.3 16.2-54.5 10-54.5 10-3.5-.5-7-4.2-7-4.2-7 1.8-30.5 20.2-30.5 20.2 0 2.5-1 4-1 4-14.5 15-14.5 27.5-14.5 31-7 30.5 42.5 71 42.5 71 10.5 12.5 53 8.2 53 8.2 5-6.3 15-22.7 15-22.7 4-55.5 28-154 28-154l-15.5 22zm-59 11.5s34.5 2 48.5-24.5c0 0 15-23 26-33 0 0 58.5-51 70-58.5 0 0 41.5-27.5 72.5-36.5 0 0 36.5-28 49-39.5 0 0 3.5.5 28-50.5 0 0-3.5-38.5-42.5-86 0 0-96 50.5-117.5 57 0 0-35.5 61-69.5 122 0 0-42 72.5-52.5 97.5 0 0-19.5 46-12 52zm-8-203.5c-13.5 7.5-83 60-83 60-5 6.5-20.5 42-20.5 42-1.5 34.5 3.5 26.5 3.5 26.5 7-4 50.5-21 50.5-21 66-19 91-47.5 91-47.5 8-11 22-24 22-24 5-11 53-90.5 53-90.5l-116.5 54.5zm-214-160s-14.5 54 15.5 92c0 0 41.5 41.7 102.5 37.1 0 0 61.5-4.6 107.5-33.1 0 0 41-20 63.5-39 0 0 15-5 32.5-22 0 0 17-11 81-24 0 0 61.7-11.8 75.6-19.4 0 0 16.1-9.6 24.5-24.1 0 0 11.4-19.5 13.4-24s1-4-3-8-28.5-37-35-40c0 0-22-21.3-65.5-41.4 0 0-5 .9-17 10.4 0 0-26.5 16.5-36.5 22 0 0-38 27.5-117.5 56 0 0-133.5 47.5-241.5 57.5zm308.5-181c-20.5-6-48-23-48-23-4.5.5-8-.5-8-.5-8.5-3.5-73-.5-75.5 0-35.5 2.5-104.5 19-104.5 19-45 8-65 19.5-65 19.5-16.5 4-34.5 12.5-34.5 12.5-24.5 8-33 16.5-33 16.5-7.5 8-21.5 21-21.5 21-.5 32.5 5.3 41.8 5.3 41.8 20.2 35.7 52.2 44.2 52.2 44.2 1.5 2 11 9 11 9 5 .5 24 2.5 24 2.5 91.5-9.5 184-39 184-39 137.5-38.5 186.5-100 186.5-100l-73-23.5zm-297-8.5c66-15 230-35.5 230-35.5-24.5-29.5-45.5-95-45.5-95-7-3-49.5-12-49.5-12-9-1-91.5 0-91.5 0-6 1-111 12-111 12-75.5 27.5-86 55-86 55-9 20-6.5 44-6.5 44 4 17.5 36.5 48.5 36.5 48.5 13.5 10 13.5 17.5 13.5 17.5 23.5-2 110-34.5 110-34.5zm202.5-129s24.5 111 113 129c0 0 7.5-1 26 5.5 0 0 123 26.5 179 113.5 0 0 4-48.5-5-89.5 0 0-65.5-85.5-133-124 0 0-110-54.5-180-34.5zM753 1196s-14.5 9-3 19.5c0 0 14.5 10 34 12 0 0 30 4 29.5-15.8 0 0-4-13.3-15.5-15.8 0 .1-36-2.4-45 .1zm70-63c-4.5-10-43.5-26.5-43.5-26.5-36-1-43.5 6.5-43.5 6.5s-2.6 16.5 30.7 37.5c0 0 31.8 23 53.8 9.5 10.3-3.8 2.5-27 2.5-27zm298.7 807.3s1.3-32.5 48-115.1c0 0-5.2 2.4-27.3 19.1 0 0-44.7 17.3-52.7 22 0 0-4.7 3.3-10.7 6.7 0 0-44.7 16-48.7 36.7 0 0-7.7 13 14.7 37.3 0 0 14 23 35.3 21 0 0 21.4-19 41.4-27.7zM732 1041.5s-5.8 19.7 17 31.5c0 0 37 18 60.5 28.5 0 0 22.5 6.5 36.5-8.5 0 0 11-14.5-10.5-31.5 0 0-42.5-21-74-25 0 0-27.2-4.7-29.5 5z"/><path id="sd1" fill="#231815" stroke="#231815" stroke-miterlimit="10" d="M1133 1745c22.7-10 111.3-52 111.3-52 73.3-32 144-74.7 144.7-73.3.7 1.4 13.3 18.7 13.3 18.7-50 39.3-158.7 92.7-158.7 92.7-10 3.3-98.7 48.7-98.7 48.7-5.3 2.7-28.7 16.7-28.7 16.7-8 6-25.5 13.9-25.5 13.9-43.8 23.8-127.9 40.1-127.9 40.1 11.3-22 47.3-66.7 47.3-66.7s62.9 7.9 122.9-38.8zm444.7-122.7l-10.7 17.3c16 18 147.3 99.3 147.3 99.3 24 14.7 102.7 58 102.7 58 20 10.7 102 23.3 102 23.3l-21.3-32c-5.3-6.7 0-6 0-6-62.7 5.3-106.7-36-106.7-36-50-20.7-224-141.3-224-141.3 12.7 18.1 10.7 17.4 10.7 17.4z" opacity=".25"/><path fill="none" stroke="#231815" stroke-miterlimit="10" stroke-width="6" d="M1390.6 1615.9s131.6 138.5-14.4 454.6c0 0-84.2 162.7-311.5 68.5 0 0-103.8-32.2-114.6-264.6 0 0 22.1-51.2 60.8-86 0 0 1.4-7.5-6.1-7.5 0 0-241.3 10.1-357-468.3 0 0-44.8-337.5 75.2-330 0 0 210-34.5 618 295.5.1 0 214.7 173.1 49.6 337.8zm166.5 358.2c48 223.5 199.5 194.2 199.5 194.2 163.5-6.7 186-221.2 186-221.2 13.5-82.5-42-162-42-162 231-57 298.5-484.7 298.5-484.7 36-359.8-79.5-318.8-79.5-318.8-316.5 31-567 379-567 379-75 165 24 259.5 24 259.5-88.5 145.5-24 346.5-19.5 354z"/></svg>