<svg xmlns="http://www.w3.org/2000/svg" id="wing" viewBox="0 0 3000 3000"><path id="cl1" fill="#FFF5EE" d="M853.9 1207.801c-42.7 6.5-169.7 21-169.7 21-73.699 10.899-55.5 91.899-55.5 91.899 19.301 96.2 146.9 87.101 146.9 87.101-3.3 115.8 152.4 75.8 152.4 75.8 1.1 80.5 123.6 38.3 123.6 38.3 6.6 69.301 108 13.9 108 13.9 24.1 43.2 85.1 49 85.1 49 78.2 4.8 108.4-55.2 108.4-55.2 40.3-92.6-16.7-148.1-39.7-154.7-23-6.6-63.7-31.5-63.7-31.5-28.1-12.699-117-105.699-117-105.699-57.8-80.4-107.1-72-107.1-72-53.2 13.799-129 35.698-171.7 42.099zm852.7 156s-59.4 14.699-65 87.5c0 0-9.7 101.8 58.6 127.199 0 0 69.801 31.4 114.601-44.8 0 0 11.3 18.2 41.1 20.101 0 0 48 12.199 45.601-32.301 0 0 105.8 44.301 104.1-39.6 0 0 53.4 26.2 104.6-10.6 0 0 27.301-19.601 20.5-65.5 0 0 101.4 14.699 122.801-80.101 0 0 14.899-78.8-38.601-95.899 0 0-39-6.801-60.7-7.4 0 0-101.1-11-205.199-49.5 0 0-45-23-82.5 23.5 0 0-15.5 15.5-33 44.2 0 0-36.301 40.399-52 62 .196.1-17.003 28.8-74.903 61.201z"/><path id="sd1" fill="#CCD3E0" d="M647.699 1249.2c-3.1 13.101-2.3 26.5-1.5 39.7.801 13.9 7.7 25.1 18.9 33.6 21.3 16.2 43.7 30.301 70.3 36 8.4 1.801 16.9 3.4 25.601 3.301 18.6-.2 37.199.5 55.699-2.101 10.5-1.5 21-2.7 31.5-4.399 19.301-3.101 38.5-6.2 57.7-9.7 24.9-4.601 49.3-10.7 70.8-25 4.101-2.7 9-4.3 13.7-6 20.5-7.2 39.2-18 58.4-28 8.8-4.601 17.5-9.5 26.6-13.601 1.2-.5 2.5-.899 3.7-1.399 4.9-2 8.6 0 11.199 3.899 2.801 4.2.701 7.4-2.899 10.101.3-2 .601-4.601-2.5-3.8-2.8.699-5.5 2.3-8.101 3.699-40.199 24.9-64 36.9-119.899 61.101-52.601 23.7-106.3 45.5-162.8 57.1-24.2 4.9-49.6 3.2-73.9-1.8-47.4-9.7-80.4-37.2-89.6-84.8-4.4-22.9-1.4-45.801 14-65.301.901-1.1 2.1-1.8 3.1-2.6zm134.5 158.5c-2.399 0-3.699 1.2-3.8 3.601-.6 10.3-2.8 22.199 2.3 31.699 4.5 13.5 19.2 28.5 33.801 36.4 26.199 14.2 53 12.4 81.399 9.6 11.9-1.199 28.601-4.8 38.3-11.399 18.7-12.7 39.9-27.101 56.9-42.3 17.2-15.301 56.5-44.5 118.9-98.4 1.6-1.2 3.199-2.8 5-3.1 3.199-.601 2.6 2 2.5 4 3.6-2 2.199-6 3.6-8.9 1.5-3.4 1.699-7.2-2.4-9.5s-7.4-1.5-10.9 1.5c-6.199 5.4-12.899 10.4-19.199 15.8-9.301 8-19.4 15-29 22.601-20.5 16.199-40.9 32.699-60.9 49.399-7.9 6.601-17.3 11.101-24.699 18.2-5.601 5.4-12.101 9.2-19.101 12.4-10.6 4.8-21.399 9-31.8 14.3-9.7 4.899-20.1 7.3-30.5 8.1-20.2 1.5-40.3-.5-60.2-5.2-16.399-3.8-28.5-12.399-34-28.5-2.3-6.8-7.1-14-2.399-21.8-4.701-.701-9.101 1.399-13.802 1.499zm156 69.601c-14.8 8.899-10.5 5.5-8.3 20.8 1.101 7.2 4.9 10 9.9 15.2 6 6.1 14.6 14.3 22.8 16.5 27.9 7.399 56.3 3.399 83.3-6.2 2.4-.9 27.601-18.5 34-26.5.5-.3-9.6 7.1-9.1 6.8 17.5-11.8 12.6-10 27.7-26.1 16.399-17.5 25-25.601 25-25.601 1-1.399-9.9 11 0 0 1-1.1 14.5-17.1 14.5-17.1 1.399 1.3 29.6-31 29.6-29.4 4.3-4.699 2.3-9.8.8-14.899-.8-2.9-1.3-6.2-5.1-6.601-3.5-.399-5.2 2.4-7.101 4.7-11.899 15.1-24.1 29.9-36.6 44.5-7.8 9.1-16.2 17.5-23.8 26.7-13.2 15.899-28.5 29.399-48.9 36.5-12.6 4.399-25.3 7.899-38.1 11.3-12.7 3.3-25.2 2.7-37.101-2.1-10.399-4.2-19.1-10.601-22-22.5-1.199-5.101-.399-8.801 4.4-11.801 4.8-2.899 9-6.8 11.6-12-9.797 4.901-18.197 12.201-27.498 17.802zm115.801 44c-1.9 5.5 2.199 11.899 4.5 17.5 3.1 7.399 10.6 14.399 17.899 16.199 20.2 5.101 41.2-2.5 57.2-9.699 6-1.601 17.4-5.4 23.1-8.2 2.6-1.3 2-3.7.5-6.9 1.9-5.8-6.8-22.6-7.6-34.399-3.6 5.1-1.801 10.899-1.6 16.3.199 6.899-2.9 10.7-8.801 12.7-9.1 3-18.199 5.899-27.4 8.399-2.799.8-6.1.8-8.799.101-5.201-1.301-10.4-1.4-15.701-1.7-13-.8-18.6-6.8-19.399-19.9-4.399 2.898-12.299 4.898-13.899 9.599zm161.1-99.901c34.3-2.4 57.9 13.2 66 45.5 1.1 6.3-1.6 14.5-1.1 20.8 6-15.399 8.6-32.8 6.399-49.3-2-15-10.899-22.6-23.6-26.2-20.101-5.7-39.9-3-59.101 5.101-.8.3-5.3 8-5.899 8.8 1.701-.401 15.701-4.3 17.301-4.701zm1.9 96.3c6.1 8.7 6.199 8.101 16.3 8.3 19.8.5 33.1-13.5 40.2-34.199-5.301 4.399-10.5 9-17 11.8-8 3.4-16.5 5.1-25 4.8-11.2-.399-18.801-7.1-23.9-16.899-1.301-2.601-3.1-5.7-6.7-4.801-3 .801-4.7 3.4-5.1 6.7-.7 5.6.5 10.5 4.3 14.7-3.8.099 26.3 22.999 16.9 9.599zm665.199-232.1c21.7 13.6 43.4 27.3 65 41 41.2 26.1 85.1 52 131.101 68.1 27.1 9.5 54.7 11.601 83.899 9.2 39.101-3.2 69.301-22 85-57.9 4.101-9.5 5.2-17.199 8.301-27 .1-3.899-1.601-11-1.801-15-.199-6.1 1.2-12.5-1.899-18.3 0 3.7-.4 7.3 0 10.9 1 10.7-3 19.399-9.4 27.5-2.2 2.899-4.8 5.6-6.6 8.7-7.4 12.6-20.101 18-32.4 23.8-5 2.3-10.7 3.1-16.5 3.2-30.5.6-60.899-1.301-91.1-5.9-30.2-4.5-59.9-11.5-88.8-20.9-24-7.899-46.2-20.1-68-32.899-13.4-7.9-26.5-16.4-39.5-25.101-9.801-6.6-22.7-2.8-27.4 7.4 4.4-1.7 7.099 1.401 10.099 3.2zm-63.4 132.3c21.801 30.9 43.201 62 70 88.9 2.801 2.8 8.801 11 13 11.699 4.4 2.5 3.701 3.301 7.701 5.101 23 10 48.299 13 72.399 4.8 9.399-3.2 13.899-13 18.3-22.1 3.301-6.801 3.9-14.101 3-21.4-.6-5.2-6.1-6.7-9.199-9.9-2.5-2.6-5-5.3-8.5-6.8 2.699 6 2.5 12.3 2.1 18.601-.4 7.6-6.5 14.899-13.801 16.5-24 5.199-46.399 2.3-67.5-11.601-20.799-13.6-34.699-33.5-50.399-51.899-13.601-16-24-34.101-33.7-52.7-2.6-5-5.4-10-10-13.5-3.1-2.3-6.3-5.2-10.8-2.4-4.8 3.101-6.399 6.9-4.7 12.7 2 7 5.5 13.4 8.801 19.9 7.399 2 9.599 9 13.298 14.099zm32.801-80.4c10.699 10.5 22.699 19.5 33.4 29.9 25.1 24.3 49.6 49.1 74.1 74 4.6 4.6 8.4 10.5 15.4 12.1 8.399 5.301 16 11.801 23.5 18.301 3 2.6 7.699 8.6 11.199 10.6 15 8.7 29.4 8.3 46.4 7.9 18-.4 39.5-9.301 53.399-20.101 19.4-15.1 23.601-33.399 20.9-58.399-.3-2.7-.9-4.5-4.101-3.801 1.101 2.101 2 4 1.601 6.601-2.2 13.399-7.101 25-17.5 34.7-22 20.6-47.5 24.699-75.7 18.3-15.8-3.601-29-12.4-42.2-21.4-25.1-17.1-47-37.3-67.399-59.899-18.2-20.2-36.301-40.601-56.301-59.101-2.699-2.5-5.199-5.2-8.8-6.399-5.399-2-10.2.5-11.399 6-.5 2.199-.101 4.6-.2 6.899 1.1 1.299 2.4 2.499 3.701 3.799zm-162.6 235c8.8 5.801 23.199 10.2 34.1 10.9 31.5 2 58.199-4.5 76.8-31.9.4-.5 6-7.6 6.4-8.1 9.3-13 12.1-24.4 10.899-40.9-.1-2 .2-3.899.301-5.899-3.2-3.8 3.699-10.4-3.601-13.2-2.899 9.9-4 20.2-7.7 29.9-6.6 17.199-17.6 29.699-34.6 37.899-12.6 6.101-25.5 6.601-38.8 6.601-25.601 0-47.2-8.601-65.4-26.9-6.6-6.6-11.5-14.5-18.2-20.9 4.5 28.099 17.401 47.8 39.801 62.499zm129-44.199c-2.301 5.899 2 10.699 6.1 13.8 12 8.7 28 10.5 39.6 12.5 7.6 1.7 15.801-1 23.301-4.6 11.6-5.601 16.399-24.2 8.5-33.7-1.4-3.6-2.601-7.6-7.9-6.1.1 3 .4 6 .1 8.899-.699 9.2-6 13.601-15.199 12.7-3.9-.4-7.9-1-11.7-2.1-13.9-3.9-31-7.9-41.3-19.801-.902 5.402-1.602 12.201-1.502 18.402zm-39.5-112c-11.4-6.2-22.801-11.7-36.601-10.601-13.7 1.101-27.2 10.2-31.5 23.301-1.6 4.699-3.3 9.399-4.6 14.199-4.101 15.101-1.8 29.301 5.8 42.801.1-4.301 0-8.7.2-13 .6-12.9 11.7-28.5 19.3-39 15.6-14.9 15.5-10.801 35.8-13.4 4.5.9 12.2.2 16.601 1.6-.6-3.001-2.7-4.7-5-5.9z"/><path fill="#231815" d="M853.199 1205.4c-35.199 5.3-70.6 9.3-105.899 13.5-15.9 1.9-31.8 3.8-47.8 5.6-8.7 1-17.5 1.7-26.101 3.9-16 4.1-29.899 13.6-38.5 27.7-7 11.399-9.899 25-10.5 38.2-1.1 22.5 4.7 45.399 17.4 64.1 17.899 26.1 47.899 40.3 78 47 18 4 37 5.9 55.399 4.9h.4l-2.5-2.5c-.4 16.1 2.1 32.399 10.2 46.6 6.5 11.4 16.6 20.2 28.1 26.2 22.9 11.899 50.5 13.3 75.8 11.6 13.801-.899 27.9-2.8 41.4-6.2-1.1-.8-2.1-1.6-3.2-2.399.3 14.399 4.5 28.5 15.7 38.2 9.9 8.5 23 11.899 35.7 13.199 23.399 2.301 47.899-2.399 70.3-9.1 1.7-.5 3.4-1 5.1-1.6-1.1-.801-2.1-1.601-3.199-2.4 1.399 13.5 6.8 26.4 19.399 32.9 11.4 5.8 25 5.1 37.3 3 19-3.2 38.101-10.601 55.101-19.9-1.101-.3-2.3-.6-3.4-.9 16.8 29.4 50.9 44.9 83.2 49.801 33.2 5 68.8-7.2 93.4-29.5 7.6-6.9 14.399-14.9 19.699-23.7 2.2-3.7 3.7-7.7 5.2-11.7 4.7-12.2 7.9-24.9 9.7-37.9 4.699-35.8-6.5-73.899-33.6-98.6-4.2-3.8-8.801-7.3-13.801-10-5.5-3-11.8-4.4-17.6-6.7-17.4-7-33.9-16.399-50-25.899-9.2-5.5-17.801-11.101-26.1-17.9-13.801-11.3-26.9-23.6-39.801-35.9-18.1-17.3-35.8-35-53.199-53-3.9-4-6.9-9.3-10.4-13.699-4.6-5.7-9.5-11.2-14.6-16.5-7.801-8.101-16.301-15.601-25.5-22.2-12.101-8.7-25.7-15.7-40.301-19-5.6-1.2-11.5-2-17.199-1.5-4.801.399-9.5 2.2-14.101 3.399-10.899 2.9-21.899 5.801-32.8 8.7C938 1186.5 896 1198.801 853.199 1205.4c-3.199.5-1.8 5.3 1.301 4.8 49-7.5 97-22.2 144.8-35 5.8-1.5 11.6-3.1 17.399-4.6 2.801-.7 5.5-1.4 8.301-2.2 0 0 2.399-.5 1-.3 2-.3 4.1-.2 6.1-.2 11.1.5 22.1 4.3 32 9.2 19.8 9.8 36.5 25.2 50.9 41.8 5.899 6.8 10.699 14.8 16.899 21.3 2.5 2.601 5 5.101 7.5 7.7 23.2 23.8 46.9 47.3 71.8 69.3 10.601 9.301 21.4 19.101 33.7 26.2 11.101 6.5 22.4 12.9 33.8 18.8 9.2 4.801 18.5 9.301 28.301 12.9 5.3 2 10.3 3.3 15.199 6.3 11.801 7.301 21.2 18.601 28.2 30.5 10.101 17.101 14.601 36.801 14.5 56.5 0 12.7-2.3 25.2-5.7 37.4-2.199 7.8-4.699 16.3-8.6 23.4-12.9 22.899-36.2 40-61 47.899-20.3 6.4-41.4 6.9-61.8 1.7-26.2-6.6-52.101-20.4-65.9-44.5-.7-1.2-2.2-1.5-3.399-.9-29.601 16.2-98.601 41.801-104.2-11.699-.2-1.5-1.5-3-3.2-2.4-17 5.9-35.3 9.4-53.2 10.7-26.5 1.8-58.3-3.4-65.7-33.301-1.1-4.3-1.399-8.8-1.5-13.3 0-1.6-1.6-2.8-3.199-2.4-13.7 3.5-28.101 5.301-42.2 6.2-25.5 1.601-53.4-.2-75.9-13.7-23.399-14-31.8-39.699-31.1-65.8 0-1.3-1.2-2.6-2.5-2.5-16.4 1.101-33.4-.6-49.5-3.6-30.7-5.8-61.601-19.4-80-45.7-13.101-18.7-18.2-42-16.5-64.5 1-13.8 5.1-27.8 13.8-38.7 9.9-12.399 25.7-19.699 41.3-21.5 56.601-6.5 113.5-12.5 169.8-21 2.998-.398 1.699-5.299-1.502-4.799zm852.701 156c-19.7 5-37.6 19.8-49 36.2-15.399 22-19.2 49.3-18.2 75.5 1.2 30.8 8.7 63.7 29.9 87.2 15.3 16.899 37.8 25.6 60.2 27 15 .899 29.899-2.101 43.399-8.5 19.301-9.2 33.9-25.801 44.601-43.801h-4.3c10.5 16.7 32.3 20.5 50.399 22.5 9 1 18.5.2 26.5-4.1 11.7-6.2 15-19.6 14.5-31.9-1.1.801-2.1 1.601-3.2 2.4 16.101 6.7 34 10.9 51.4 11.7 12.3.6 25.3-1.101 36-7.8 12.1-7.5 17.7-20.801 19.4-34.5.5-3.801.6-7.7.5-11.5a73.535 73.535 0 0 0-3.801 2.199c29.2 14.2 66.301 11.9 94.601-2.8 10.5-5.4 18.399-11.7 24.7-21.6 10.3-16.2 12.1-35.9 9.5-54.5l-3.101 3.1c16.3 2.3 33.601.7 49.5-3.1 32.3-7.801 58-29 70.601-60 9.199-22.5 10.199-48.801 4.6-72.2-3.7-15.7-12-30.1-25.6-39.1-12.5-8.301-28.4-8.801-42.801-10.801-12.8-1.699-25.699-2.1-38.5-3.8-15.5-2-31-4.6-46.399-7.5-25.9-4.8-51.5-10.7-76.9-17.5-15.1-4-30.1-8.5-44.899-13.3-10.2-3.301-20.7-6.4-30.5-10.7-11.101-4.9-23.9-6.5-35.9-4.8-10 1.399-19.301 5.1-27.801 10.5-8.399 5.399-14.5 12.6-21.299 19.699-4.9 5.101-9.4 10.7-13.701 16.301a407.434 407.434 0 0 0-10.799 15c-2.701 4-5 9-8.201 12.6-10.899 12.2-21.6 24.5-32.1 37-9.4 11.2-17.5 23.4-27.1 34.3-18.5 21.101-42.6 37.101-66.801 50.801-2.799 1.6-.299 5.899 2.5 4.3 21.101-11.9 41.5-25.6 59.101-42.5 6.101-5.9 12.399-12.3 16.899-19.6 4.801-7.801 11.5-14.801 17.301-21.9 6.699-8.1 13.5-16 20.4-23.9l12.899-14.699c1.8-2 3-4.301 4.4-6.5 3.899-6.2 8-12.2 12.399-18.101 4.9-6.7 10.101-13.2 15.801-19.2 6.6-7.1 12.699-14 20.8-19.5 15-10 33.5-12.699 50.899-8.3 3.101.8 6.301 1.8 9.101 3.2 5.399 2.7 11.7 4.3 17.399 6.3 7.9 2.7 15.9 5.3 24 7.8 27.7 8.601 55.9 15.9 84.301 22 19.899 4.301 39.899 8 60 11 8.399 1.301 16.8 2.601 25.3 3 18.3 1 36.601 3.9 54.7 6.9 15.8 2.7 27.8 18.1 33.3 32 8.5 21.9 8.5 48.9 1.5 71.3-5.601 18-15.899 34.101-30.5 46-11.7 9.5-25.899 15.5-40.399 19-10.601 2.601-21.5 3.601-32.301 3.601-3.5 0-6.899-.101-10.3-.4-1-.1-1.899-.2-2.899-.3-.7-.101-1.101-.101-.5-.101-2-.3-3.4 1.101-3.101 3.101 2.5 17.7.3 36-9.5 51.3-6.3 9.9-13.8 14.6-24 19.9-25.899 13.399-61.3 15-88 2-1.601-.801-3.8.1-3.8 2.199.199 14.9-2.9 31.101-15.7 40.4-10 7.4-23.2 8.7-35.2 8.3-16.9-.6-34.5-5-50.1-11.5-1.5-.6-3.2.9-3.2 2.4.5 11.5-2.3 22.8-13.3 28.3-7.2 3.5-15.9 3.5-23.7 2.6-15.8-1.899-35.7-5.199-45-19.899-1-1.601-3.3-1.7-4.3 0-11.6 19.5-27.6 36.5-49.1 44.7-13.801 5.3-29 6.399-43.601 4.199-24.7-3.8-45.7-17.5-58.8-39.899-14.2-24.5-18.2-54.8-17.4-82.8.801-30 11.9-58.9 35.9-77.9 8-6.3 17.699-12 27.699-14.5 3.205-.399 1.904-5.299-1.296-4.499zm-622.1-79.599c-17.2 10.3-35.101 19.699-52.9 28.8-42.899 21.9-87.1 41.6-132.3 58.3-40.3 15-81.5 27.5-123.6 36.4-3.2.7-1.801 5.5 1.3 4.8 97.3-20.5 191-59.6 278.399-106.399 10.601-5.7 21.2-11.4 31.5-17.601 2.801-1.6.301-5.9-2.399-4.3zm32.2 56.699c3.199 0 3.199-5 0-5-3.2 0-3.2 5 0 5zm-3.7-3.6c-51 42.4-102.7 84.2-156 123.6-10.101 7.4-20.2 14.801-30.5 21.9-2.601 1.8-.101 6.2 2.5 4.3 62.7-43.199 121.8-92 180.399-140.399 2.4-1.9 4.7-3.9 7.101-5.9 2.5-2.001-1-5.6-3.5-3.501zm52.3 66.6c-15.2 17.4-30.7 34.601-46.4 51.601-12.5 13.5-25.1 27-38.199 40-9.301 9.3-18.7 19.1-29.601 26.5-2.7 1.8-.2 6.1 2.5 4.3 10.7-7.2 20-16.8 29.2-25.9 13-12.899 25.6-26.3 38.1-39.8 16.2-17.5 32.2-35.3 47.9-53.3 2.099-2.201-1.401-5.801-3.5-3.401zm-2.8 133c-10.4-22.6-8.4-47.8 2.399-69.8 6.5-13.3 15.301-26 28.5-33.399 12.2-6.801 27-9 40.801-8 5.6.399 13.1 4.6 19 8.199 7.8 4.801 14.3 11.4 18.6 19.4 8.2 15.4 6.1 36.2-1.5 51.4-2.3 4.6-8 9-11.8 12.3-4 3.5-8.7 6.399-13.601 8.3-6.899 2.7-14.399 2.8-21.5.6-5.199-1.699-10-4.8-14.1-8.399-1.3-1.2-2.6-2.4-3.8-3.7-.3-.3-1.8-2.2-1.101-1.2-1.899-2.5-6.3 0-4.3 2.5 5.5 7.2 13.4 12.7 21.9 15.7 20.1 6.9 38.5-6.7 50.8-21.3 4.6-5.4 6.3-13.7 7.6-20.5 2.601-13.2 1.5-26.9-4.899-38.9-4-7.5-10.101-13.5-16.9-18.399-6.1-4.4-14.899-9.801-22.6-10.7-11.601-1.4-23.9.1-34.9 3.899a61.794 61.794 0 0 0-23 13.9c-5.2 5-8.6 11.1-12.6 17-9.601 14.4-14.9 32-15.2 49.3-.2 12 2.7 23.7 7.7 34.5 1.501 2.699 5.801.199 4.501-2.701zm613.7-23.8c.6-.8-.301.4-.5.601-.601.8-1.301 1.5-2 2.199-2.4 2.5-5.2 4.801-8.2 6.7-8.9 5.601-18.601 5.4-27.3-.399-9.101-6.101-16.101-17.301-19.2-27.601-2.601-8.6-2.5-17.7-.601-26.399 1.301-5.601 3.5-11 6.101-16.101 1.5-2.899 3.2-5.6 5-8.3 1-1.5 2-2.9 3.1-4.3 1.2-1.7 3.3-5.301 5.101-6.5 5.699-3.9 12.699-6.2 19.5-7.301 23.8-3.899 40.399 14.801 49.6 34.5 10.8 23 11.5 50.9 6.3 75.301-.7 3.1 4.2 4.5 4.8 1.3 7.5-35.7 2.801-84.2-28.699-108.1-10.7-8.101-24.4-10.101-37.301-7.101-7.3 1.7-14.899 4.601-19.8 10.4-12.2 14.6-21.2 32.8-20 52.2.601 10.6 4.601 21.199 11.101 29.6 7.8 10.1 18.199 19.3 31.699 17.9 10.1-1.101 19.6-8.101 25.7-16 1.798-2.699-2.501-5.199-4.401-2.599zm127.699 9c-35.4-35.6-66.1-76.899-93.6-118.8-1.801-2.7-6.1-.2-4.301 2.5 9.701 14.7 19.9 29 30.301 43.1 19.8 26.801 40.6 53.101 64.1 76.7 2.301 2.4 5.801-1.2 3.5-3.5zm104.201-39.6c-25.7-22-50.101-45.7-74.5-69.101-24-23-47.8-46.1-71.5-69.3-3.399-3.3-6.8-6.7-10.2-10-2.3-2.3-5.8 1.3-3.5 3.5 42.2 41.5 84.7 82.9 128.2 123.2 9.2 8.6 18.5 17.1 28.101 25.3 2.298 2.001 5.798-1.499 3.399-3.599zm123.399-76.799c-13.5.3-26.899-3-39.699-7-16.801-5.101-33.101-12-49-19.301-34.2-15.699-67.1-34.1-99.4-53.399-22.3-13.3-44.4-27-65.9-41.601-2.699-1.8-5.199 2.5-2.5 4.301 43.4 29.399 88.801 56.5 135.4 80.5 21.5 11 43.4 21.3 66.1 29.6 17.4 6.3 36.2 12.3 55 11.8 3.199.1 3.199-4.9-.001-4.9z"/></svg>