<svg xmlns="http://www.w3.org/2000/svg" id="face" viewBox="0 0 3000 3000"><path id="hl1" fill="#E7E6E2" d="M1843.8 1088c.1.7.2 1.301.3 2 1.3 15.801-7.6 23.9-21.1 29.301-14 5.6-28.4 11.1-38.801 22.899-7.6 3.601-11.899 10-14.899 17.601-2.2 5.5-4.9 10.8-7.4 16.199-9.8 11.7-28.7 12.801-41.2 1.601 2.101 6.399 1.601 12.1-4.699 13.5-10.801 2.399-22.101 7.6-32.7.2-4.3-3-5.101-9.801-9.9-13.301-1.399 2.7-.7 5.4-.899 8-.5 5-2.801 8.101-8.101 8.4-12.7.5-25.3.8-38 0-10.8-.7-7.6-9.6-8.5-15.4-5.3 14.101-6.2 14.7-21.1 13.801-6-.301-12 .199-18-.4-10-1-12.101-3.3-13.4-14.1-3.5 2.8-4.2 8.899-9.6 8.5-5.5-.4-7-5.7-9.4-9.5-9.1-14.7-17.6-29.801-27.399-44.2-14-20.4-30.801-35.7-56.4-41.101-28-5.899-46.6-24.699-57.7-50.8-7.399-17.5-14-35.5-15.899-54.5-2.7-27-15.101-50.3-26.9-73.7-8.1-16.199-7.2-29.8 3.6-43.6 9.7-9.3 22.101-14.3 33.601-20.7 11.2-6.3 22.2-13.2 33.8-18.8 22.3-13.1 46.1-23 70.1-32.4 13.301-5.5 26.5-4.8 39.7.7 39.2 16.4 77.5 34.8 111.8 60.3 2.7 2 5.4 3.801 8.601 5 17.899 7.601 34.899 4.7 51.3-4.699 13.8-7.9 28.1-14.801 41.1-23.9 5.9-2.8 11.5-6.2 17.101-9.6.399-.2.899-.4 1.3-.601.9-.399 1.8-.7 2.7-1 5.7-2.1 11.3-2.2 16.2 1.7 23.8 18.7 47 38 68.1 59.8 1.4 1.4 1.7 3.601 3.1 5.101 1.801 2.699 1.7 5.699 1.5 8.699-1.1 21.2-2.399 42.5-6.399 63.4-2.4 12.5-6.5 24.3-12.7 35.5-4.5 8.2-8.4 16.6-12.5 24.9-5.7 11.699-5.8 23.6-1 35.699 3.2 8.301 7.4 16.301 9.3 25.2.493 1.201.393 2.901 1.393 4.301zm-664.4-426.199c5.8-1.5 11.4-3.7 17-5.9 20.4-8.1 40-18.2 61.7-23 6.6-1.5 11.4-.8 16.2 4 9.399 9.4 19.1 18.7 26.699 29.6 19.7 28.4 45 50.601 74.5 68.301 24.801 14.899 49.4 29.699 77.2 39.3 26.3 9 53.5 13.399 80.2 20.2 38.3 9.699 77.2 13.8 116.2 18.699 25.1 3.101 49.8 7 75.3 2.101 11.399-2.2 23-3.3 33.899-7.7 33.601-13.6 57.2-53.7 52.101-88.1-.101-1-.101-2-.4-3-21.899-63.101-59.7-112.301-121.2-141.5-57.199-27.101-117.6-40.2-180.399-42.2-53.4-1.7-106.4 3.3-158.601 15.399-44.899 10.4-86.899 27.301-122.899 57-4.601 3.801-9.3 7.5-14 11.2-9.101 4.5-15.9 11.3-20.4 20.3-5.6 8.2-13.2 14.9-18.2 23.601.6 4.098 3.399 2.199 5.1 1.699z"/><path id="sd1" fill="#86877F" d="M1121.9 780c25.2 19 52.7 34.7 77.2 54.7 14.4 11.8 28.2 24.2 42.7 35.9 15.8 12.8 30.3 26.8 41.5 45.5 6.5-13.3 16.199-21.7 27.6-28.2 11.5-6.6 23.2-13 35.1-18.8 23.9-11.7 48-22.9 72.101-34.2 3.899-1.8 7.899-3.4 11.899-5.1 2-1.101 3.7-1.5 3.801 1.7-18.4 10.3-36.801 20.6-55.2 31-3.7 2.1-7.2 4.699-10.7 7-9.899 9.6-21.8 16.399-33.1 23.899-30.101 19.9-36.7 35.5-26.3 70.101 8.8 29.199 14.3 58.899 19.1 88.8.7 4.3 1.5 8.5.1 12.8-.5 1.5-1.399 2.9-2.3 4.2-5.2 8-1.4 16.899-2.7 25.199-2.3 14.301 3.5 23.2 16.2 30.4 15.5 8.9 29.3 20.6 43.9 31.1 5.199 3.801 10.3 5.301 16.699 4.2 22.2-4 44.601-6.899 66.801-10.6 24-4 42.699 6.1 58.1 23.6 3.8 4 6.6 8.7 9.8 13.101 4 5.1 7.5 10.6 10.601 16.3 1.399 2.6 4.3 5.399.899 8.6-12.199-1.6-24.399-3.3-36.6-4.8-4.8-.6-8.9-2.4-12.6-5.4-3.4-2.699-7.5-4.6-10.5-7.699-8.801-8.9-19.4-8.301-30.601-7.2-21 2.1-40.2 9.5-58.399 19.2-15 8-30.699 12.099-46.5 5.699-13.6-5.5-23.101-15.399-32.301-27.399-10.699-14-23.199-26.601-34.6-40-3.6-4.2-7.7-7.101-12.6-9.5-27.9-13.5-55.601-27.3-83.5-40.601-6.9-3.3-16.185-7.562-20.485-13.762-17.699-25.8-25.915-54.338-35.015-84.138-16.9-55.2-20.9-111.7-17.4-168.9 1-15.399 2.5-31.3 7.3-46.7zm665.1 396.5c5.5.601 12.899.9 15.699-3.899 5.5-9.5 11.301-20.3 10.4-35.5-20.8 3-41.3 9-43.2 31.2 5.401 2.899 11.601 7.599 17.101 8.199zm-80.6-311.1c17.8-8.7 35.5-17.8 51.601-29.5.5-1.9 0-2.8-2.101-2.2-3.3 1.5-6.8 2.8-10 4.4-14.6 7.3-29.3 14-44.399 20.2-9.7 3.899-19.4 6.6-29.9 6-3.1-.2-6.7-1.5-9.3 1.6 14.699 6.1 29.799 6.5 44.099-.5z"/><path id="cl1" fill="#C7C8BC" d="M1174.1 660.301c10.2-1.4 19.4-5.801 28.6-9.9 18.601-8.1 37.2-15.6 56.9-20.9 6.5-1.699 10.3-.6 14.9 3.801C1289.8 647.7 1302.9 664 1315.199 681c4.5 6.301 28.7 29.101 35.9 34.301 22 16.1 45.199 30.6 69.5 42.6 26.199 12.9 53.909 22.547 82.699 27.7 19.907 3.563 39.5 8.399 59.2 12.7 12.3 2.699 60.803 8.781 72.601 10.3 13.803 1.777 64.4 6.399 93.5 3 23.219-2.712 45.014-12.5 60.313-31.601 11.3-14.1 16.786-27.399 20.386-44.899 1.101-5.3 0-10.601 1-15.9 7.5 19 10.801 39 13.4 59 1.9 14.7 5.6 28.5 12.3 41.7 9.2 18.1 18.2 36.2 24.8 55.4 1.601 4.699 3.801 9.3 3.301 14.399-2.9-1.1-4.7-3.6-6.801-5.7-15.6-15.6-32.5-29.8-49.6-43.8-4.3-3.5-7.9-7.8-12.5-11.2-6.1-4.5-12-6.6-19.2-3.3-.699-.7-1.399-.7-2 .101l.101-.101c-6.5 2.5-12.4 6.3-18.601 9.3-18.199 11-37.899 18.9-57.399 27.301-11.801 5.1-23.9 3.3-35.9 3.399-9.4-4.3-16.5-12.1-25.2-17.399-9.1-5.5-17.899-11.301-27.5-15.9-8.399-4-16.5-8.4-24.6-13.1-14.4-8.301-30.1-13.601-45.4-20-12-5-23.8-5-35.6.3-9.2-.3-16.6 5.1-24.6 8.2-16.601 6.5-32.601 14.5-48.301 23.1-38.399 19.1-77.699 36.5-115.3 57.3-10.3 5.7-19.7 12.3-26.4 22.3-4.899 7.2-7 7.5-11.6.7-14.5-21.8-35.9-36.399-54.8-53.6-28-25.4-59.7-45.8-90.3-67.601-4-2.8-8.7-5.199-10.5-10.3.399-9 3.399-17.5 5.899-26 9.3-32.8 24-63 43.7-90.8.502-.8 1.502-1.7 2.403-2.599zm161.599 404.799c5-2.7 10.4-4.2 15.7-6.2 4.9-1.8 10-3.4 14.1-6.8-.899-1 1-.101-.199.6-4 2.3-8.101 4.3-12.4 5.8-5.3 2-10.8 3.5-15.8 6.101-3.601 1.7-7.601 2.7-11.2 4.6-7.5 11-3.2 23-3.1 34.7.1 7.6 4.3 13.1 10.399 17.3 14.801 10.101 29.4 20.5 43.601 31.4 9.399 7.2 19 9.2 29.8 7.1 5.9-1.1 11.7-1.899 17.6-2.8 19.7-2.8 39.101-7 59-8.4 13.5-.899 24 3.7 32.4 14l7.5 9.301c3.9 4.399 6.7 9.5 9.8 14.3 6.101 8.3 10.601 17.6 17.3 25.5 14.9 2.399 29.9 2.5 44.801 2.899 47.5 1.2 94.399-3 140.699-14.1 14.2-3.4 23.2-10.1 25.9-24.5-8.2 5.8-18.1 5.6-27.3 7.9-3.3.8-5.4-2-7.601-4-3.199-2.9-5.6-7-10.199-8.801-1.101 4.2 1.5 6.4 2.399 9.2 1.601 5.3.601 8.2-4.5 8.9-8.2 1.2-16.2 3.399-24.7 2.899-3.5-.199-5.1-1.6-6.5-4.8-2.699-6.3-6.899-11.6-13.399-17.3v16.5c0 3.7-1.7 5.5-5.4 5.5h-42.7c-1.199-6.5-2.199-12.2-2.8-18.3-3.2 4.7-5.8 9.6-8.3 14.6-1.4 2.8-3.3 4-6.4 2.9-6.1-2.2-12.6-1-18.8-1.101-17.899-.3-19.2-1.699-16.399-20.199-3.7 4.199-7.5 6.3-9 10.6-.801 2.2-1.301 4.8-4.2 4.8-2.8 0-3.5-2.7-4.601-4.6-10.699-18-21.399-36-33-53.4-6.199-9.3-14.1-17-22.6-23.8-7.4-6-16-10-25.9-12-24.6-4.8-44.6-17.2-56.899-39.8-10.4-19.101-16.8-39.7-21-61-1.9-9.7-2-19.8-5.4-29.2-6.3-17.6-14.1-34.5-22.8-50.9-7.1-13.399-6.5-25.199 2-37.199.8-1.101 1.3-2.301 2-3.4-17 8.5-32.3 19.7-47.3 31.2-8.4 6.399-16.101 14.399-18.101 25.6-2 11.5-1.6 23 2 34.3 4.9 15.5 9.9 31 12.601 47.101 3.199 19.3 7.8 38.399 9.1 58 3.599 2.7 6.599-.401 9.798-1.001zm480 69.3c11.7-2.6 21.601-8.1 25.301-20.7 1.3-4.399 3-8.699 4.199-13.199.9-3.5 1.301-7.2-1.1-10.5-1.1.899-1.9 1.899-1.9 3.3-.199 11-6.1 17.5-16 21.7-10.1 4.199-20 9-29.8 13.899-5.7 2.801-11 6.301-12.3 13.301 10.301-3.601 21.001-5.4 31.6-7.801z"/><path fill="none" stroke="#000" stroke-miterlimit="10" stroke-width="6" d="M1709.3 584.7C1808 643.301 1821.699 756 1821.699 756S1821 797.301 1852 852c31 54.7 2.3 129.7 2.3 129.7s-30.3 49.3-23 66.7c7.3 17.3 20.3 41.7 12.7 61.3-2.7 18.301-16.301 24-42.301 29S1772 1155.4 1772 1155.4s-6.301 34.7-24.301 43c-43 16.5-142.3 18-142.3 18s-82 .5-108-13c-20.3-17.3-26-16.3-26-16.3s-29.3-2-68.7 18c-39.3 20-69.899-3-74.699-7-2.795-3.751-36-40-42.301-49.3-6.3-9.301-25.3-18.301-33.699-21.301-6.7-1-77.9-38.699-77.9-38.699s-22.6-20.801-49.5-110.7c-40-158 16.7-266.7 16.7-266.7 61.3-128 170-154 170-154 181.8-55.7 321.7-15.7 398 27.3zm60.5 585.3s26.2 13.2 32.5 3.7c13.3-12.7 12.1-36.7 12.1-36.7m-544.8-199.4c-27.7-37-134.8-109.101-134.8-109.101m230.7 223.601l-39.601 17.2s-12.7 20.8 0 44.8c28.5 21.399 49.4 38 62.7 46.7 13.3 8.699 77.5-10.7 77.5-10.7s35.6-9.2 57 21.899c21.4 31.101 27.1 39.9 27.1 39.9"/></svg>