<svg xmlns="http://www.w3.org/2000/svg" id="tatoo_x5F_b" viewBox="0 0 3000 3000"><path id="cl1" fill="#1B1B1B" d="M1551.8 1466.6c-.3.6-.1 1.1.5 1.4.5 1 .7 2 .5 3-.8 4.3-3.8 7.1-7.2 9.2-11.8 7.6-24.5 13.3-38.3 16.5-5.8 1.3-9.2 0-8.3-6.7.2-2-.6-4.2 1.1-6v.1c.6-.6 1.1-1.3 1.5-2.1.7-.3.9-.7.7-1.4.3-1.1 1-1.8 1.7-2.7l.1-.1c1.4-.9.8-3 2.5-3.7l-.2.2c.3-1.1 1.1-1.7 1.9-2.4v.1c.5-.8 1.3-1.4 1.8-2.2l.1-.1c.8-.5 1.4-1.1 1.9-1.9l.1-.1c.8-.5 1.4-1.1 1.9-1.9l.1-.1c.8-.5 1.4-1.1 1.9-1.9l.1-.1c.8-.5 1.4-1.1 2-1.9h.1c.8-.6 1.4-1.4 2.4-1.7l-.2.1c.4-1 1.1-1.8 2.2-2.1l-.2.2c.6-1.7 2.8-1.1 3.7-2.5l.1-.1c.8-.6 1.6-1.4 2.7-1.7.6.3 1.1.1 1.4-.5.7-.5 1.5-1 2.3-1.5l-.2.2c1.6-1 3.1-1.5 4.7-1.6 1.7-.1 3.3.5 5 1.7l-.2-.2c1.1.3 1.8 1.1 2.2 2.2l-.2-.2c1.1.3 1.8 1.1 2.2 2.2l-.2-.2c1.7.7 1.2 2.8 2.4 3.9.8.7 1.6 1.5 1.8 2.7-.2.6 0 1.1.6 1.4 0 .8.7 1.5 1 2.5zm-50.3 36.1c-.1.4.2.8.9 1l-.2-.2c.7 1.7 2.8 1.2 3.9 2.4 1.3 1.2 3.1 1.1 4.5 1.8h8.9c1.6-.4 3.2-1.7 4.7.2-.1.7-.2 1.3-.3 2-1 1.2-.6 2.9-1.8 4-.7.7-1.5 1.3-1.8 2.4l.2-.2c-1.1.4-1.8 1.1-2.2 2.2l.2-.2c-1.1.4-1.8 1.1-2.2 2.2l.2-.2c-1.7 1-1.4 2.4-.7 3.9l.2.1c1.9 1.4 4.5.1 6.3 1.7l.9-.1.9.4c1.2.9 2.5.8 3.9.7 1.5-.1 2.5-.8 2.9-2.3.1-.9-.1-1.8-.5-2.6-.6-.3-.8-.8-.5-1.5-.1-3.9-4.1-8.6 2.5-10.9l-.1-.1c.3 1.1 1.1 1.8 2.2 2.2l-.2-.2c.7 1.7 2.8 1.2 3.9 2.4 4 1.7 8 1.4 12 .2l.6-.5.8.1c1.2-.3 2-1 2.5-2.2l-.2.2c1.7-.7 1.1-2.8 2.5-3.7v-.1c.1 0 .3-.2.4-.7.1-.5 0-.9-.5-1.3-10.7-3.6-21.9-4.6-33-5.7-6.9-.6-14.4-2.9-21 1.7-.5.2-.7.5-.8.9z"/><path id="hl1" fill="#4D4D4D" d="M1499.5 1489.4c.5 3.8.6 6.6 6.5 5.2 13.4-3.1 25.6-8.9 37.4-15.6 3.7-2.1 6.8-5.2 8.8-9.2.8-.3 1.4-.1 1.7.7-.2.6 0 1.2.5 1.6.8 1.3.6 3 1.6 4.2-.2.7-.1 1.3.5 1.8.7 1.3.6 3 1.5 4.2-.2.6-.1 1.2.3 1.8 1.4 2 .3 4.6 1.6 6.6 0 2.4.1 4.7.1 7.1-1.6 1.8-.4 4.3-1.6 6.2-.6.3-.7.8-.5 1.4-.5 1.1-1.4 1.7-2.6 1.8-17.4-1.4-34.6-5.8-52.2-4.5-1.2.1-2.1-.3-2.9-1.2.1-.6-.1-1.2-.6-1.6-.4-.9-1.1-1.5-1.4-2.5-.1-2.5-.1-5.1-.2-7.6.3-.6.9-.7 1.5-.4zm29.1 38.4c1.1.1 2.2.1 3.3.2.6-.5.8-1.2.6-1.9-.2-.7-.3-1.3-.5-2-.4-.7-1-.8-1.7-.5-.9.9-1.7 1.8-2.6 2.6-.2.9 0 1.4.9 1.6z"/><path fill="none" stroke="#1A1A1A" stroke-miterlimit="10" stroke-width="6" d="M1537.2 1449.3s-9.8.5-23.2 13.3c0 0-11.1 9.8-16 21.2-5 11.3-2.3 19.5 4.2 21.7s11.7 4.8 17.5 3.3c5.8-1.5 3 .4 3 .4s.3 3.6-1.3 4.9c-1.7 1.3-7.7 7.5-7.7 7.5s-3.2 3.4 7.8 5.3l11 1.9s3.3.3 1.2-4.7c-2.2-5-3.7-7.2-3.7-10.7s3.7-1.2 4.2-.8c.5.3 7.2 5.7 13 3.5s7.3-3.3 7.3-3.3 6.8-5.7 6.7-16.2c-.2-10.5-2.5-25-12.3-40.2-4.7-9.1-11.7-7.1-11.7-7.1z"/></svg>