<svg xmlns="http://www.w3.org/2000/svg" id="tatoo" viewBox="0 0 3000 3000"><path id="hl1" fill="#4D4D4D" d="M1552.9 1504.3c3.4-.3 6.9-.6 10.4-1l-18-17.3c-6 .6-11.7 1.2-17.2 1.8l24.8 16.5z"/><path id="cl1" fill="#1A1A1A" d="M1577.8 1520.3c-14.1-.4-25.5-.2-34.3.6-5.7.5-10.3 1.3-13.8 2.4 5.7 4.5 10 10.1 13 16.8h48l-12.9-19.8m-94.7-61.5l12 18.5c6-1.8 12.5-3 19.7-3.4 5.8-.4 12-.3 18.6.2l-18.3-19c-13 .1-23.7 1.4-32 3.7m-27.8 46.3c-.1.1-.2.1-.4.2l11.2 16.9c15.6-6.8 38.4-12 68.6-15.8 5.8-.7 11.9-1.4 18.3-2l-24.8-16.4-4.5.6c-31 4-53.8 9.5-68.4 16.5m-11.5-12.6c2.2-1.4 4.7-2.8 7.5-4.2 3.6-1.7 7.7-3.4 12.3-5l-13.8-15.8c-13.5 5.3-23.6 11.9-30.3 19.7 5.7-1.5 13.8.2 24.3 5.3z"/><path id="sd1" d="M1451.3 1554.2l4.5 22.3c10.6-8.8 20.6-15.3 30-19.5l-7-19.1c-4.3 1.1-9 3.3-14.3 6.6-4 2.5-8.4 5.8-13.2 9.7m-17.7-51.1c1.7-3.7 5.1-7.2 10.3-10.6-10.5-5.1-18.6-6.8-24.3-5.3-4.1 4.8-6.9 10.1-8.5 15.8 9.5-3.8 17-3.8 22.5.1m8.2 11c2.5 1.6 4.5 8.2 6 19.8 3-3.1 7.1-6 12.2-8.8 1.9-1 3.9-2 6.1-2.9l-11.2-16.9c-5.5 2.7-9.9 5.6-13.1 8.8z"/></svg>