<svg xmlns="http://www.w3.org/2000/svg" id="tatoo" viewBox="0 0 3000 3000"><path id="hl1" fill="#4D4D4D" d="M1696.9 1466.1v13l25.3 11-25.3-24m-53.6-.8c3.1.8 6.4 1.6 9.8 2.3l3-14.3c-4.7-.8-10.5-3.3-17.4-7.5l4.6 19.5z"/><path id="cl1" fill="#1A1A1A" d="M1693.9 1513.3c1.6.5 3.1 1 4.6 1.5 14.9 4.9 27 10.7 36.4 17.3l-2.8-23c-2.8-4.5-12.7-9.5-29.8-15-1.8-.6-3.7-1.2-5.7-1.8l-2.7 21m-96.6-13.5c.9 9.4 3.5 17.7 7.8 25 12.6 8.6 25.6 15.9 39.1 21.9l40.2-7.6c-15.4-4.8-32-11.5-50-20.1-11.8-5.5-24.1-12-37.1-19.2m18.1-71.2l-10.5 18c7.5 6.6 17.3 12 29.5 16 2.9 1 5.8 1.9 8.9 2.7l-4.6-19.5c-6.7-4.1-14.5-9.9-23.3-17.2m-14.5 32.7l-2.5 21.8c13.2 8.1 25.2 13.8 36 17 5.6 1.7 10.8 2.7 15.8 3v-19c-4.7-.8-9.9-2.3-15.8-4.7-9.6-3.9-20.8-9.9-33.5-18.1z"/><path id="sd1" d="M1693.5 1541.9c-3-.8-6-1.7-9.1-2.7l-40.2 7.6c26.3 11.9 54.3 19 83.9 21.3l5.3-19.5c-12.1-.5-25.4-2.7-39.9-6.7z"/></svg>