<svg xmlns="http://www.w3.org/2000/svg" id="tatoo_x5F_b" viewBox="0 0 3000 3000"><path id="cl1" fill="#1B1B1B" d="M1542.8 1487.154c-.3.6-.1 1.1.5 1.399.5 1 .7 2 .5 3-.8 4.301-3.8 7.101-7.199 9.2-11.801 7.601-24.5 13.3-38.301 16.5-5.8 1.3-9.199 0-8.3-6.7.2-2-.6-4.199 1.1-6v.101a7.968 7.968 0 0 0 1.5-2.101c.7-.3.9-.699.7-1.399.3-1.101 1-1.8 1.7-2.7l.1-.1c1.4-.9.8-3 2.5-3.7l-.2.2c.301-1.101 1.101-1.7 1.9-2.4v.1c.5-.8 1.3-1.399 1.8-2.199l.101-.101c.8-.5 1.399-1.1 1.899-1.899l.101-.101c.8-.5 1.399-1.1 1.899-1.899l.101-.101c.8-.5 1.399-1.1 1.899-1.899l.101-.101c.8-.5 1.399-1.1 2-1.899h.1c.8-.601 1.4-1.4 2.4-1.7l-.2.1c.4-1 1.1-1.8 2.2-2.1l-.2.2c.6-1.7 2.8-1.101 3.7-2.5l.1-.101c.8-.6 1.6-1.399 2.7-1.699.6.3 1.1.1 1.399-.5.7-.5 1.5-1 2.301-1.5l-.2.199c1.6-1 3.1-1.5 4.7-1.6 1.699-.1 3.3.5 5 1.7l-.2-.2c1.1.3 1.8 1.1 2.2 2.2l-.2-.2c1.1.3 1.8 1.1 2.2 2.2l-.2-.2c1.7.7 1.2 2.8 2.4 3.9.8.699 1.6 1.5 1.8 2.699-.2.601 0 1.101.6 1.4-.001.801.699 1.501.999 2.501zm-50.3 36.1c-.1.4.2.8.9 1l-.2-.2c.7 1.7 2.8 1.2 3.9 2.4 1.3 1.2 3.1 1.1 4.5 1.8h8.899c1.601-.399 3.2-1.699 4.7.2-.1.7-.2 1.3-.3 2-1 1.2-.601 2.9-1.801 4-.699.7-1.5 1.3-1.8 2.4l.2-.2c-1.101.4-1.8 1.1-2.2 2.2l.2-.2c-1.101.4-1.8 1.1-2.2 2.2l.2-.2c-1.7 1-1.4 2.4-.7 3.9l.2.1c1.899 1.4 4.5.1 6.3 1.7l.9-.101.899.4c1.2.9 2.5.8 3.9.7 1.5-.101 2.5-.801 2.9-2.301.1-.899-.101-1.8-.5-2.6-.601-.3-.801-.8-.5-1.5-.101-3.9-4.101-8.6 2.5-10.9l-.101-.1c.301 1.1 1.101 1.8 2.2 2.2l-.2-.2c.7 1.7 2.801 1.2 3.9 2.4 4 1.699 8 1.399 12 .199l.6-.5.801.101c1.199-.3 2-1 2.5-2.2l-.2.2c1.7-.7 1.1-2.8 2.5-3.7v-.1c.1 0 .3-.2.399-.7.101-.5 0-.9-.5-1.3-10.699-3.601-21.899-4.601-33-5.7-6.899-.6-14.399-2.9-21 1.7-.496.201-.696.502-.796.902z"/><path id="hl1" fill="#4D4D4D" d="M1490.5 1509.954c.5 3.8.6 6.6 6.5 5.2 13.4-3.101 25.6-8.9 37.4-15.601 3.699-2.1 6.8-5.199 8.8-9.199.8-.301 1.4-.101 1.7.699-.2.601 0 1.2.5 1.601.8 1.3.6 3 1.6 4.2-.2.699-.1 1.3.5 1.8.7 1.3.6 3 1.5 4.2-.2.6-.1 1.199.3 1.8 1.4 2 .301 4.6 1.601 6.6 0 2.4.1 4.7.1 7.101-1.6 1.8-.4 4.3-1.6 6.199-.601.301-.7.801-.5 1.4-.5 1.1-1.4 1.7-2.601 1.8-17.399-1.399-34.6-5.8-52.199-4.5-1.2.101-2.101-.3-2.9-1.2.1-.6-.1-1.199-.6-1.6-.4-.9-1.101-1.5-1.4-2.5-.1-2.5-.1-5.1-.2-7.6.299-.6.899-.7 1.499-.4zm29.1 38.4c1.101.1 2.2.1 3.301.199.6-.5.8-1.199.6-1.899s-.3-1.3-.5-2c-.4-.7-1-.8-1.7-.5-.899.899-1.699 1.8-2.6 2.6-.201.9-.001 1.4.899 1.6z"/><path fill="none" stroke="#1A1A1A" stroke-miterlimit="10" stroke-width="6" d="M1528.2 1469.854s-9.801.5-23.2 13.3c0 0-11.1 9.8-16 21.2-5 11.3-2.3 19.5 4.2 21.699 6.5 2.2 11.699 4.801 17.5 3.301 5.8-1.5 3 .399 3 .399s.3 3.601-1.301 4.9c-1.699 1.3-7.699 7.5-7.699 7.5s-3.2 3.4 7.8 5.3l11 1.9s3.3.3 1.2-4.7c-2.2-5-3.7-7.2-3.7-10.7s3.7-1.199 4.2-.8c.5.3 7.199 5.7 13 3.5 5.8-2.2 7.3-3.3 7.3-3.3s6.8-5.7 6.7-16.2c-.2-10.5-2.5-25-12.301-40.2-4.699-9.099-11.699-7.099-11.699-7.099z"/></svg>