<svg xmlns="http://www.w3.org/2000/svg" id="tatoo" viewBox="0 0 3000 3000"><path id="cl1" fill="#1A1A1A" d="M1535.118 1503.551c5.301-4.4 6.101-10.7 2.4-18.8-3.6-5.7-8.6-8-14.9-6.9-1.199.2-2.3.7-3.399 1.4-2 1.3-4.2 4-6.601 8.1-.199-3.5-.5-6.2-.8-8.3-2.1-7.7-6.8-12-14-12.9-5.8.101-9.5 3.101-11.2 9.2-1.1 5.1.301 9.9 4.2 14.4l6.1 5.6c-5.699-.5-9.699-.1-12.1 1.3-6.3 4.601-7.3 11.3-3.1 20 5.1 5.9 10.1 7.9 14.8 6.2 1.8-.5 3.5-1.4 5.2-2.8l8.699-12.4c1.101 2.7 2 5.3 2.601 7.7.199.8.3 1.6.399 2.3 3.101-.1 6-.9 8.801-2.5-2.7-2.3-5.2-5.5-7.5-9.5 5.5.4 10.699.4 15.8 0 1.6-.301 3.1-1.001 4.6-2.1z"/><path id="hl1" fill="#4D4D4D" d="M1513.418 1517.551c.801 4.5.601 8.3-.699 11.399l17.8-9.3c-3-.7-5.8-2.2-8.4-4.6-2.701 1.6-5.6 2.4-8.701 2.501z"/></svg>