<svg xmlns="http://www.w3.org/2000/svg" id="tatoo" viewBox="0 0 3000 3000"><path id="hl1" fill="#4D4D4D" d="M1651.75 1502.801l4.101 4.6 19.899 7a844.83 844.83 0 0 1 19.4-8l-17.5-13.8c-9.1 2.999-17.7 6.399-25.9 10.2m-38.1-17.901l11.8 16.4c11.1-6.4 24-12.4 38.5-18-11.5-1.2-22.7-3.7-33.8-7.5-6 3.1-11.5 6.2-16.5 9.1m-5.1-10.599c3.601-2 7.301-3.9 11.101-5.7l-19.7-13c-1.7 1-3.3 2.1-4.9 3.1l13.499 15.6z"/><path id="cl1" fill="#1A1A1A" d="M1628.851 1515.301c-10.7 6.8-20.4 14.6-29.2 23.199l15.3 13.2c6.3-6.899 15.9-14.1 28.7-21.399l-14.8-15m37.099 3.5c3.2-1.5 6.4-2.9 9.8-4.4l-19.899-7 10.099 11.4m-89.9-4.401c3.601 5.7 7.601 11.4 11.801 17 9-10.8 21.5-20.8 37.5-30.1l-11.801-16.4c-17.5 10.5-30 20.3-37.5 29.5m-15-29.099c2.601 6.3 5.601 12.6 9 18.899 11.5-12.1 24.301-22.1 38.5-29.899l-13.5-15.601c-12.5 8-23.8 16.9-34 26.601z"/><path id="sd1" d="M1614.851 1551.7l-15.301-13.2c-.5.5-1 1-1.5 1.601l-1.8 1.8c4.4 5.2 9.2 10.4 14.2 15.5.899-1.4 2-2.8 3.1-4.3.5-.501.9-1.001 1.301-1.401z"/></svg>