<svg xmlns="http://www.w3.org/2000/svg" id="图层_2" viewBox="0 0 3000 3000"><path fill="#00A9A6" d="M1351.308 2370.998c.975-4.813.475-3.532.958-7.594 10.088-1.193 34.175-10.842 39.48-13.854 9.237-5.244 29.673-18.506 25.237-31.43-3.535-10.29-17.443-13.553-23.722-3.951-4.029 6.157-.628 16.285 7.908 13.137 9.652-3.566 2.322-13.913-4.616-9.064 5.164-4.833 12.424.213 13.633 6.024-6.12 19.548-34.828 1.946-17.295-15.653 8.984-9.024 28.991-3.498 31.333 9.556 3.947 22.064-22.185 35.576-38.808 42.718-9.3 3.988-19.119 7.184-29.064 9.171"/><path fill="#00A9A6" d="M1375.644 2407.425c-4.969-5.177-14.207-5.846-19.261-11.575-6.788-7.665.628-20.265-5.075-27.219 4.755 5.785 13.969 5.514 17.875 12.049 4.963 8.293-1.286 18.691 6.461 26.745z"/></svg>