<svg xmlns="http://www.w3.org/2000/svg" id="图层_3" viewBox="0 0 3000 3000"><path id="cl1" fill="#B32317" d="M1602.484 1770.728c-8.869 2.996-17.433 6.854-25.702 10.597l-8.999 4.02c-1.053.451-2.205.8-3.28 1.234-9.685-10.943-18.205-22.213-23.155-34.018l-3.802 3.157c1.331 3.169 2.632 4.88 4.388 7.952l-1.323-.175c-.715 5.123.331 12.653 1.346 19.933 0 0 .789 7.005 1.158 10.219-7.714 2.335-15.516 4.807-22.406 8.45l-4.007 2.104 4.073 1.981c7.188 3.493 15.406 6.21 23.892 8.67.317 4.703.572 8.448.572 8.448l2.183 31.711 3.725-5.531c6.212-9.273 12.886-18.446 19.55-27.498a6554.766 6554.766 0 0 1 13.929 3.861l2.81.861c4.015 1.206 8.893 2.675 12.592 4.959 1.968 2.354 4.24 5.028 6.031 7.4l2.312-2.079 1.437-1.644-1.038-.699-.476-.938c-1.187-3.127-2.356-3.57-5.137-5.431-6.377-7.545-13.503-15.063-20.607-22.419 7.692-10.384 15.452-20.974 22.573-31.685l3.712-5.565-6.351 2.125zm-32.869 18.808l9.054-4.033c5.979-2.712 12.157-5.354 18.409-7.798-5.754 8.359-11.705 16.633-17.74 24.795a577.31 577.31 0 0 1-11.521-12.291c.579-.239 1.217-.419 1.798-.673zm-23.134-6.734c-.677-4.938-1.358-9.937-1.489-14.069 4.321 6.682 9.334 13.216 14.89 19.569a288.335 288.335 0 0 1-12.322 3.959c-.439-3.806-1.079-9.459-1.079-9.459zm-2.946 15.505c.172 2.57.484 7.058.799 11.691-5.876-1.745-11.465-3.695-16.694-5.874 5.071-2.229 10.41-4.144 15.895-5.817zm4.766-1.483c4.965-1.484 9.996-3.103 14.899-4.875a616.438 616.438 0 0 0 13.391 14.309c-.838 1.096-1.668 2.254-2.485 3.362-1.733 2.345-3.482 4.741-5.221 7.106l-5.638-1.563a850.996 850.996 0 0 1-14.241-3.821c-.483-7.08-.904-13.421-.972-14.438l.267-.08zm44.695 26.824a137.3 137.3 0 0 0-4.238-1.321l-2.74-.84s-6.254-1.738-12.422-3.449c1.396-1.883 2.797-3.815 4.187-5.684.672-.905 1.341-1.849 2.022-2.758 4.598 4.783 8.983 9.422 13.191 14.052zm-30.897-4.048s2.768.765 3.885 1.07a815.078 815.078 0 0 0-14.905 20.898c-.49-7.128-1.57-22.843-1.741-25.369a812.341 812.341 0 0 0 12.761 3.401z"/></svg>