<svg xmlns="http://www.w3.org/2000/svg" id="图层_2" viewBox="0 0 3000 3000"><path id="cl1" fill="#009092" d="M1686.228 1775.869c15.303 8.044 7.167 3.448 20.492 12.814 6.21 3.793 10.486 9.391 12.824 16.774 2.346 7.393 1.097 14.154-3.75 20.292-5.918 7.484-13.075 11.07-21.331 4.921-4.247-3.164-9.194-12.836-.701-14.449 11.914-2.268-.858 12.98.851 3.448-.506.358-1.541 1.322-1.875 1.846 1.538 6.429 10.34 3.578 10.881-2.177.764-8.102-11.366-12.016-17.206-8.484-8.646 5.228-4.666 18.323.913 24.07 11.482 11.815 31.139 6.273 40.592-5.423 11.009-13.612 12.72-31.026 7.99-47.667-.813-2.857-3.294-9.109-7.427-18.745-4.146-9.646-5.582-15.401-6.837-16.394 0 0-9.482 6.81-17.606 13.248s-17.277 15.245-17.81 15.926z"/></svg>