<svg xmlns="http://www.w3.org/2000/svg" id="图层_3" viewBox="0 0 3000 3000"><path id="cl1" fill="#2962FF" d="M1578.332 1834.455c.4-.02.934-.048 1.466-.111.531-.058 1.063-.104 1.461-.16l.66-.101c.58-.093 1.062-.448 1.224-.949 0 0 .429-1.283.771-2.551.176-.63.33-1.27.438-1.756l.173-.801a1.34 1.34 0 0 1 .938-1.017l1.563-.497 1.537-.569 1.506-.646 1.475-.718a1.34 1.34 0 0 1 1.382.09l.677.462c.412.277.966.634 1.526.97 1.123.683 2.317 1.316 2.317 1.316.463.252 1.057.177 1.54-.154 0 0 .22-.152.548-.383.326-.233.746-.565 1.17-.892.428-.32.834-.667 1.139-.929l.508-.435c.452-.373.635-.967.511-1.465 0 0-.083-.323-.211-.809a37.01 37.01 0 0 0-.511-1.749 50.169 50.169 0 0 0-.865-2.479 1.375 1.375 0 0 1 .232-1.371s.549-.609 1.046-1.264c.254-.322.512-.641.685-.895l.298-.418s.486-.66.918-1.358c.224-.345.447-.688.595-.957l.257-.444a1.38 1.38 0 0 1 1.217-.669s1.297.044 2.631.011a50.419 50.419 0 0 0 2.65-.152c.52-.04 1.004-.412 1.215-.959l.248-.618c.155-.368.331-.872.505-1.376.175-.505.353-1.008.458-1.395l.188-.639c.173-.561.026-1.152-.357-1.507 0 0-.981-.922-1.985-1.761-1.027-.854-2.074-1.622-2.074-1.622a1.386 1.386 0 0 1-.54-1.279l.073-.508c.05-.304.092-.711.127-1.12.035-.408.083-.816.097-1.123l.022-.512.023-.512c.02-.308.022-.717.017-1.129-.005-.41.003-.819-.013-1.127l-.027-.512c-.03-.492.243-.963.667-1.222 0 0 1.109-.663 2.208-1.413a33.943 33.943 0 0 0 1.488-1.061l.663-.504c.404-.314.621-.893.507-1.468l-.133-.654c-.088-.391-.175-.92-.317-1.434l-.37-1.421a12.741 12.741 0 0 0-.191-.639c-.175-.559-.608-.979-1.113-1.072 0 0-.325-.063-.825-.141a50.064 50.064 0 0 0-3.603-.444c-.492-.033-.82-.057-.82-.057a1.323 1.323 0 0 1-1.143-.785s-.077-.189-.216-.463l-.497-1.012c-.175-.372-.391-.722-.534-.993l-.249-.448s-.093-.184-.256-.443l-.597-.957c-.21-.354-.454-.684-.628-.938l-.292-.421c-.273-.411-.332-.929-.105-1.384l.358-.734a40.37 40.37 0 0 0 .746-1.653c.512-1.206.966-2.478.966-2.478.182-.494.031-1.079-.373-1.504 0 0-.723-.789-1.507-1.517a20.334 20.334 0 0 0-1.081-.995l-.503-.438c-.437-.392-1.044-.494-1.522-.296 0 0-1.239.504-2.426 1.079-1.2.58-2.332 1.213-2.332 1.213a1.38 1.38 0 0 1-1.39-.036s-.681-.458-1.398-.855c-.702-.424-1.438-.786-1.438-.786s-.723-.39-1.475-.716c-.739-.356-1.508-.645-1.508-.645a1.38 1.38 0 0 1-.835-1.11s-.14-1.289-.361-2.604a48.699 48.699 0 0 0-.525-2.604c-.114-.506-.551-.937-1.122-1.066l-.647-.157c-.389-.102-.91-.208-1.436-.305-1.046-.22-2.106-.352-2.106-.352-.579-.089-1.145.136-1.44.567 0 0-.774 1.104-1.463 2.219-.697 1.134-1.31 2.283-1.31 2.283a1.378 1.378 0 0 1-1.189.716l-.513.002c-.308-.003-.718.005-1.127.034l-1.126.063-.51.053-.51.053c-.306.029-.714.072-1.118.143l-1.114.172-.503.103c-.483.1-.984-.091-1.305-.485 0 0-.814-1.002-1.713-1.98-.893-.988-1.854-1.909-1.854-1.909-.369-.358-.965-.474-1.522-.296 0 0-.251.088-.626.227l-1.372.51c-.489.21-.979.42-1.347.576-.366.158-.609.268-.609.268-.525.256-.879.75-.899 1.264 0 0-.063 1.33-.026 2.662.022 1.328.123 2.615.123 2.615.041.507-.192.99-.611 1.251l-.434.272-.927.644c-.342.228-.666.478-.908.667l-.406.313-.405.313-.859.73c-.316.261-.618.538-.84.752l-.372.352a1.378 1.378 0 0 1-1.356.302s-1.235-.411-2.521-.751a51.978 51.978 0 0 0-2.589-.6c-.513-.109-1.076.117-1.436.581 0 0-.678.826-1.284 1.706-.313.432-.618.87-.829 1.21l-.361.561c-.324.488-.343 1.101-.077 1.547 0 0 .679 1.157 1.413 2.247a51.215 51.215 0 0 0 1.533 2.137c.296.398.361.93.16 1.38 0 0-.357.739-.647 1.505-.32.757-.575 1.537-.575 1.537s-.284.77-.501 1.561a21.756 21.756 0 0 0-.424 1.584 1.375 1.375 0 0 1-.981.983s-1.256.321-2.525.729c-1.256.4-2.502.89-2.502.89-.482.186-.853.68-.898 1.264 0 0-.024.266-.063.664-.043.398-.081.932-.099 1.467-.065 1.066-.046 2.137-.046 2.137.001.586.294 1.114.767 1.346 0 0 1.205.608 2.408 1.131.597.263 1.224.506 1.68.683l.767.286c.478.173.792.588.877 1.074l.078.507c.05.304.101.711.191 1.111l.229 1.104c.061.301.12.498.12.498l.128.496c.083.295.168.697.297 1.087l.338 1.076c.089.294.163.485.163.485a1.32 1.32 0 0 1-.286 1.356l-.556.606a50.318 50.318 0 0 0-2.305 2.804c-.308.401-.5.671-.5.671-.302.414-.327 1.019-.068 1.544 0 0 .112.241.301.594l.712 1.285c.251.472.553.913.758 1.257l.354.566c.313.496.87.766 1.379.715l.829-.092a36.018 36.018 0 0 0 1.808-.258 50.037 50.037 0 0 0 2.575-.498c.484-.104 1.007.049 1.324.426l.333.39c.2.233.489.525.768.825.279.303.563.598.79.807l.369.355.37.354c.221.214.537.476.844.747.308.271.618.539.864.725l.402.316c.383.313.573.809.49 1.3 0 0-.228 1.278-.384 2.604-.149 1.301-.226 2.645-.226 2.645-.033.521.268 1.052.779 1.339 0 0 .23.134.577.333.342.207.818.449 1.292.694.473.246.947.489 1.314.649l.606.277c.529.251 1.137.187 1.541-.142 0 0 1.051-.838 2.024-1.718.989-.895 1.899-1.82 1.899-1.82a1.378 1.378 0 0 1 1.343-.354l.491.144c.294.094.692.189 1.091.284.794.208 1.602.352 1.602.352l.504.098c.3.065.707.118 1.113.177a22.57 22.57 0 0 0 1.628.194c.491.045.919.379 1.114.832 0 0 .497 1.195 1.082 2.394.289.604.598 1.178.835 1.62l.404.73c.253.445.794.75 1.38.71-.01.002.257-.013.658-.034zm-4.926-14.243c-.688-.059-1.254-.169-1.652-.218-.396-.076-.622-.121-.622-.121s-.227-.043-.621-.121l-.706-.172a10.51 10.51 0 0 1-.91-.246 25.847 25.847 0 0 1-4.704-1.871 25.836 25.836 0 0 1-4.248-2.746c-.553-.414-.962-.82-1.273-1.075-.298-.269-.459-.435-.459-.435l-.456-.436c-.277-.292-.683-.7-1.134-1.22a25.092 25.092 0 0 1-2.935-4.105 27.374 27.374 0 0 1-2.092-4.618c-.197-.663-.394-1.207-.479-1.601l-.16-.612s-.067-.222-.141-.617c-.081-.395-.208-.955-.299-1.639a25.674 25.674 0 0 1 .487-10.036c.151-.675.35-1.218.449-1.608l.21-.598.207-.6c.164-.369.342-.92.644-1.543a25.746 25.746 0 0 1 2.518-4.389 25.777 25.777 0 0 1 5.057-5.305s.713-.58 1.866-1.338c1.147-.763 2.774-1.643 4.494-2.33a25.536 25.536 0 0 1 7.137-1.726s.913-.107 2.292-.113c1.377-.015 3.22.113 5.027.472 1.811.345 3.572.914 4.849 1.444.648.244 1.157.52 1.529.674a121.313 121.313 0 0 0 1.127.58c.342.215.858.472 1.434.855a25.496 25.496 0 0 1 3.981 3.111 25.792 25.792 0 0 1 3.29 3.824c.404.558.698 1.053.912 1.394.22.337.323.544.323.544l.307.553c.21.344.442.875.756 1.49a27.364 27.364 0 0 1 1.668 4.789 25.04 25.04 0 0 1 .703 4.996c.032.688.019 1.264.019 1.664l-.029.632s-.003.229-.032.631c-.051.399-.067.976-.183 1.657a25.94 25.94 0 0 1-3.303 9.514c-.168.304-.333.574-.491.807l-.393.611-.366.516-.367.516c-.256.311-.591.781-1.048 1.298a25.142 25.142 0 0 1-3.643 3.491 26.097 26.097 0 0 1-4.261 2.711l-.847.417c-.258.111-.484.208-.671.286l-.583.254-.597.219-.684.254c-.269.084-.571.179-.902.281a26.12 26.12 0 0 1-4.954.973 25.183 25.183 0 0 1-5.041-.019z"/><path id="sd1" fill="#1A237E" d="M1579.479 1814.536l.454-.093c.271-.063.638-.125.995-.227l1.417-.443c.393-.112.664-.443.722-.762 0 0 .149-.844.23-1.66.094-.808.093-1.643.093-1.643a.907.907 0 0 1 .471-.777s.489-.249.927-.578l.899-.621.833-.709c.431-.34.797-.746.797-.746a.91.91 0 0 1 .873-.255s.807.217 1.61.335a25.46 25.46 0 0 0 1.664.205c.323.025.713-.15.922-.501 0 0 .396-.628.794-1.255.189-.318.345-.657.475-.903l.208-.414c.09-.182.136-.374.138-.555a.897.897 0 0 0-.157-.489s-.494-.702-1.021-1.34a25.168 25.168 0 0 0-.731-.85c-.206-.225-.355-.372-.355-.372a.914.914 0 0 1-.222-.885l.092-.329c.064-.195.112-.464.158-.734.098-.537.193-1.076.193-1.076l.091-1.09c.024-.272.048-.545.036-.75l-.004-.343a.919.919 0 0 1 .442-.798s.183-.104.44-.268c.253-.164.59-.391.926-.633.672-.479 1.331-1.03 1.331-1.03a.877.877 0 0 0 .277-.433c.046-.174.051-.372.01-.57l-.095-.455c-.062-.271-.124-.638-.225-.994-.223-.709-.443-1.417-.443-1.417-.112-.393-.443-.665-.762-.722 0 0-.844-.15-1.661-.23-.807-.094-1.642-.093-1.642-.093a.906.906 0 0 1-.777-.472s-.25-.488-.577-.926l-.622-.9-.709-.832c-.339-.431-.746-.799-.746-.799a.902.902 0 0 1-.255-.872s.217-.806.334-1.61c.133-.811.206-1.663.206-1.663.026-.323-.15-.713-.501-.923l-1.255-.793c-.318-.19-.656-.346-.903-.475l-.414-.208a1.253 1.253 0 0 0-.555-.138.888.888 0 0 0-.489.156s-.703.496-1.339 1.021c-.32.263-.626.528-.85.731-.226.207-.373.356-.373.356a.912.912 0 0 1-.885.222l-.329-.092c-.195-.065-.465-.112-.734-.159l-1.076-.192-1.09-.092c-.272-.023-.545-.048-.751-.036l-.342.004a.916.916 0 0 1-.798-.442s-.104-.182-.268-.439a21.676 21.676 0 0 0-.633-.926c-.479-.672-1.03-1.332-1.03-1.332a.893.893 0 0 0-.432-.277 1.26 1.26 0 0 0-.571-.01l-.455.094c-.271.063-.637.125-.994.227l-1.418.443c-.393.111-.664.442-.722.762 0 0-.149.844-.229 1.66-.095.807-.093 1.643-.093 1.643a.906.906 0 0 1-.472.776s-.487.25-.927.579l-.899.621-.832.709c-.431.339-.799.746-.799.746a.904.904 0 0 1-.872.254s-.807-.216-1.61-.334a24.702 24.702 0 0 0-1.663-.205 1.026 1.026 0 0 0-.923.501l-.793 1.255c-.19.318-.345.656-.476.902l-.208.414c-.09.183-.136.375-.138.555a.894.894 0 0 0 .157.489s.496.702 1.021 1.339c.263.32.528.627.731.851.206.225.356.372.356.372a.914.914 0 0 1 .221.885l-.091.33a5.579 5.579 0 0 0-.159.733c-.098.538-.193 1.077-.193 1.077l-.091 1.089c-.023.272-.048.545-.036.751l.004.342a.916.916 0 0 1-.442.798s-.183.104-.44.269c-.253.163-.59.391-.926.633-.671.479-1.33 1.029-1.33 1.029a.872.872 0 0 0-.278.433 1.259 1.259 0 0 0-.01.571l.095.455c.062.27.124.637.226.994l.442 1.416c.113.393.443.665.762.723 0 0 .845.149 1.661.23.808.094 1.642.092 1.642.092a.907.907 0 0 1 .777.472s.25.488.578.927l.622.898s.354.418.709.834c.339.43.745.797.745.797a.908.908 0 0 1 .256.873s-.217.807-.334 1.61c-.133.811-.206 1.663-.206 1.663-.026.323.15.713.501.923l1.254.794c.319.189.657.345.903.475l.414.207c.182.092.375.138.555.139a.903.903 0 0 0 .49-.157s.702-.495 1.338-1.021c.32-.262.628-.529.851-.73.226-.207.372-.357.372-.357a.916.916 0 0 1 .886-.221l.329.092c.195.063.464.111.734.158.538.098 1.076.193 1.076.193l1.09.09c.271.025.544.049.75.037l.342-.004a.917.917 0 0 1 .798.443s.104.182.269.439c.164.253.391.591.633.926.479.671 1.03 1.331 1.03 1.331a.885.885 0 0 0 .432.278c.173.045.372.051.571.009zm-4.445-8.355l-.443-.038-.389-.027-.382-.073c-.121-.021-.269-.049-.438-.078l-.271-.045-.291-.086-.659-.184c-.233-.065-.463-.18-.712-.268l-.377-.142c-.127-.05-.243-.124-.369-.184-.243-.13-.504-.241-.747-.382a34.757 34.757 0 0 0-.707-.451l-.176-.107-.159-.129c-.106-.084-.212-.167-.314-.25-.435-.3-.765-.674-1.076-.956-.162-.138-.281-.294-.392-.426a38.47 38.47 0 0 1-.289-.34l-.257-.294-.217-.322a42.34 42.34 0 0 0-.255-.367c-.099-.143-.22-.297-.309-.488-.193-.375-.469-.788-.647-1.286l-.16-.368-.083-.188-.06-.197c-.08-.266-.164-.533-.253-.801-.072-.27-.112-.551-.176-.82-.025-.136-.067-.268-.082-.402l-.04-.4c-.021-.264-.073-.516-.074-.758l-.008-.684-.007-.304.025-.273.038-.444.026-.388.073-.382.078-.438c.015-.084.03-.175.045-.271l.087-.291c.057-.203.117-.425.183-.658.064-.234.18-.465.268-.713l.142-.377c.05-.127.124-.244.184-.368.13-.244.241-.504.382-.747.155-.236.306-.473.45-.709l.108-.175.129-.159.25-.314c.3-.436.674-.764.957-1.076.136-.162.292-.28.424-.392l.341-.289.294-.257.322-.217c.103-.07.226-.155.367-.254s.297-.22.488-.31c.375-.192.789-.468 1.286-.647l.369-.158.187-.084.198-.061c.266-.078.532-.163.8-.252.271-.072.551-.113.82-.176.135-.026.268-.067.402-.083l.401-.039c.264-.021.516-.074.757-.075l.685-.006c.105-.004.207-.006.304-.008.096.009.188.018.273.024l.443.038.388.027.382.073.438.078.271.046.291.086c.205.057.426.117.659.183.233.063.465.179.712.267.124.048.25.096.377.143.127.049.243.123.369.184.243.131.503.242.747.382.235.155.472.306.707.45l.176.109.16.128c.105.085.211.167.313.249.435.301.765.674 1.076.957.163.137.281.293.392.425l.29.341c.162.187.256.293.256.293l.217.324.255.366c.099.141.22.296.31.487.192.375.469.789.646 1.287l.159.369.084.187.059.198c.08.265.165.532.253.799.072.271.113.551.176.82.026.137.068.27.083.404l.04.4c.021.263.073.515.074.758l.007.683.008.304-.025.273-.038.443c-.018.247-.026.389-.026.389l-.074.381-.078.438-.045.271-.086.292-.184.659c-.063.233-.18.463-.268.712l-.142.376c-.049.127-.123.244-.184.369-.13.244-.241.504-.382.748-.154.234-.306.472-.45.707l-.108.175-.129.159-.25.314c-.3.436-.673.764-.956 1.077-.137.161-.293.28-.426.391l-.339.29c-.188.162-.294.256-.294.256l-.323.218c-.102.069-.226.155-.367.253-.142.1-.296.221-.488.311-.375.191-.788.469-1.286.646l-.369.16-.187.082-.197.061a28.31 28.31 0 0 0-.8.252c-.271.073-.552.113-.82.177-.137.025-.268.067-.403.082l-.401.04c-.264.021-.515.074-.757.075-.243.001-.472.004-.684.007l-.304.007a28.256 28.256 0 0 1-.272-.024z"/></svg>