<svg xmlns="http://www.w3.org/2000/svg" id="图层_2" viewBox="0 0 3000 3000"><path id="cl1" fill="#B5B5CA" d="M1721.248 1820.462c19.238-13.215 20.334-41.637 2.15-56.271-13.532-10.231-36.312-7.068-43.021 10.016-3.72 9.599-.938 22.34 9.793 26.909 7.342 2.003 17.246.629 18.262-6.582 1.434-4.235 1.6-10.313-4.343-9.487-3.105-.575-3.414 4.509-7.515 4.067-3.106-.578-4.782-5.388-3.219-8.636 3.991-7.621 12.903-8.856 19.534-4.734 7.897 5.968 9.273 15.879 5.422 24.485-7.401 12.133-21.129 15.048-34.111 8.779-7.621-3.99-11.695-11.498-13.785-19.285-1.461-7.187-1.415-14.939 2.696-20.502 2.652-3.589 18.37-12.651 18.37-12.651s9.056-5.971 12.198-6.091c17.135-.658 33.048 11.044 37.901 28.345 4.737 19.534-3.405 40.854-21.26 50.404-15.158 7.152-33.126 8.64-47.771-.98-2.059-.337-3.722-.606-5.221-.852-13.493-1.771-28.815-12.757-24.896-26.479 2.045-7.163.604-3.183 5.384-9.513 1.596-2.107 3.611-3.84 5.705-5.486.691 14.814-1.543 16.457 10.15 27.954 14.085 14.198 33.869 18.521 51.029 10.666a39.836 39.836 0 0 0 6.548-4.076z"/></svg>