<svg xmlns="http://www.w3.org/2000/svg" id="图层_3" viewBox="0 0 3000 3000"><path id="cl1" fill="#B5B5CA" d="M1551.991 1839.896c19.726 16.016 50.622 8.449 61.165-14.998 7.138-17.248-2.785-40.036-23.089-41.799-11.394-.939-24.307 5.867-26.152 18.458-.054 8.271 4.258 18.18 12.309 17.028 4.968.197 11.555-1.492 8.966-7.436-.269-3.414-5.828-2.179-6.526-6.591-.268-3.417 4.428-6.638 8.371-6.003 9.344 1.826 13.224 10.744 10.685 18.922-4.161 10.064-14.433 14.536-24.796 13.158-15.174-4.002-22.238-17.426-19.209-32.887 2.113-9.17 9.026-15.72 16.808-20.285 7.315-3.725 18.069-6.746 25.231-4.161 4.62 1.667 16.984 14.434 16.984 14.434s8.503 9.154 9.531 12.396c5.612 17.668-2.427 37.85-19.655 48.213-19.663 10.926-44.935 8.967-60.32-6.728-12.032-13.617-18.775-31.899-12.614-50.12-.227-2.25-.413-4.067-.578-5.707-1.956-14.615 5.481-34.06 21.367-34.077 6.935-.009 3.598.169 11.776 3.214 2.725 1.018 5.679 2.075 8.05 3.755-15.743 5.261-18.664 3.434-27.688 19.151-11.247 19.04-10.237 40.998 3.126 56.487a42.398 42.398 0 0 0 6.258 5.576z"/></svg>