<svg xmlns="http://www.w3.org/2000/svg" id="图层_3" viewBox="0 0 3000 3000">
    <path id="cl1" fill="#BE6363" d="M1692.121 1784.168c-7.637 1.686-29.789-17.94-23.451-31.252 5.3-11.143 30.102-13.965 35.701-.926 4.469 10.422-6.918 30.986-12.25 32.178zm-39.34 6.673c.492 33.985 41.05 18.146 40.414 4.079-.363-8.178-40.791-29.918-40.414-4.079zm89.654-30.542c-11.593-31.223-44.683 16.027-34.01 20.49 17.383 6.295 38.37-8.748 34.01-20.49zm-54.945 73.427c5.938 4.6 20.986 2.879 25.868-4.893 3.042-4.826 2.741-23.568-4.976-28.733-3.051-2.052-13.373 4.559-17.567 8.019-10.311 8.508-14.205 17.161-3.325 25.607zm37.705-12.049c9.117 7.445 31.206-11.405 24.963-26.066-4.215-9.898-31.231-10.948-35.752-3.689-1.435 2.297 7.313 26.925 10.789 29.755zm-25.096-27.353c11.237 9.351 8.053-18.718-.72-6.851-1.524 2.058-1.84 4.716.72 6.851z"/>
</svg>