<svg width="3000px" height="3000px" viewBox="0 0 3000 3000" version="1.1" xmlns="http://www.w3.org/2000/svg" xmlns:xlink="http://www.w3.org/1999/xlink">
    <!-- Generator: Sketch 53.1 (72631) - https://sketchapp.com -->
    <title>女</title>
    <desc>Created with Sketch.</desc>
    <defs>
        <linearGradient x1="97.1850513%" y1="28.2067466%" x2="-0.0383941324%" y2="73.1106981%" id="linearGradient-1">
            <stop stop-color="#11C4D1" offset="0%"></stop>
            <stop stop-color="#0062AD" offset="100%"></stop>
        </linearGradient>
    </defs>
    <g id="女" stroke="none" stroke-width="1" fill="none" fill-rule="evenodd">
        <path d="M1866.13399,1811.3409 C1887.13399,1884.1409 1848.63399,2112.8409 1843.63399,2138.8409 C1838.63399,2164.8409 1839.13399,2183.3409 1843.13399,2203.3409 C1847.13399,2223.3409 1878.63399,2268.3409 1876.63399,2316.8409 C1875.63399,2359.3409 1857.63399,2464.3409 1854.13399,2482.3409 C1850.63399,2500.3409 1840.63399,2550.3409 1842.13399,2571.3409 C1842.13399,2576.8409 1848.63399,2613.3409 1855.63399,2633.8409 C1862.63399,2654.3409 1849.13399,2663.3409 1846.63399,2663.2379 C1844.13399,2663.1369 1751.43399,2664.3409 1747.63399,2663.2379 C1742.63399,2658.6369 1736.13399,2649.8409 1734.63399,2644.8409 C1733.13399,2639.8409 1732.63399,2628.8409 1750.63399,2610.8409 C1768.63399,2592.8409 1777.63399,2582.8409 1782.63399,2568.8409 C1787.63399,2554.8409 1777.13399,2406.1409 1774.43399,2366.1409 C1770.63399,2327.8409 1758.13399,2250.8409 1749.73599,2236.8409 C1749.33699,2235.1409 1731.03699,2208.1409 1723.73599,2164.8409 C1719.73599,2102.1409 1710.43399,1911.5399 1702.43399,1899.5399 C1702.43399,1899.4369 1702.13399,1899.4369 1701.63399,1899.4369" id="Mask"></path>
        <path d="M1589.09077,1483.52195 C1591.84341,1521.51276 1566.57559,1539.55664 1543.91924,1541.53019 C1522.88625,1543.36277 1503.12371,1530.9576 1501.42977,1511.7155 C1500.01816,1495.85663 1510.18176,1489.01969 1518.15736,1488.38534 C1526.34469,1487.6805 1533.191,1493.10776 1533.82623,1499.73324 C1534.39087,1506.07679 1530.2972,1509.03711 1527.4034,1509.24857 C1525.14483,1509.46002 1522.32161,1508.12082 1522.03928,1505.30147 C1521.82754,1502.83453 1522.81567,1502.5526 1522.53335,1499.94469 C1522.10986,1495.29276 1517.94561,1494.79937 1515.68704,1495.01082 C1512.9344,1495.22227 1507.92318,1498.39405 1508.55841,1506.14728 C1509.26421,1513.97099 1517.02807,1520.17357 1527.19166,1519.25728 C1538.20222,1518.2705 1545.8955,1510.02389 1546.46014,1498.39405 C1546.46014,1497.75969 1546.6013,1497.19582 1546.88362,1496.63195 C1546.88362,1496.63195 1546.88362,1496.63195 1546.88362,1496.63195 C1547.02478,1496.4205 1547.09536,1496.20905 1547.30711,1495.9976 C1547.30711,1495.9976 1547.30711,1495.9976 1547.30711,1495.9976 C1547.58943,1495.57469 1547.87175,1495.22227 1548.22465,1494.86985 C1548.22465,1494.86985 1548.22465,1494.86985 1548.22465,1494.86985 C1548.50697,1494.58792 1548.85988,1494.2355 1549.21278,1493.88308 C1554.01225,1489.51308 1571.37506,1479.08146 1587.67916,1482.32372 C1587.82032,1482.32372 1587.96148,1482.3942 1588.03206,1482.46469 C1588.66728,1482.3942 1589.02019,1482.88759 1589.09077,1483.52195" id="Combined-Shape" fill="url(#linearGradient-1)" fill-rule="nonzero" transform="translate(1545.297360, 1511.709118) rotate(57.000000) translate(-1545.297360, -1511.709118) "></path>
    </g>
</svg>