<svg xmlns="http://www.w3.org/2000/svg" id="tatoo" viewBox="0 0 3000 3000"><path id="hl1" fill="#4D4D4D" d="M1549.3 1484.4l-30.8 14.2c9.7-3.3 22.2-5.4 37.5-6.3l-6.7-7.9m-4.7 21.8c11.7 1.7 20.8 4.8 27.4 9.3l-5.6-10.8c-7.3-.4-14.5.1-21.8 1.5z"/><path id="cl1" fill="#1A1A1A" d="M1479.3 1540.9l11.9 16.8c31.7-27.4 60.5-37.8 86.5-31.4l-5.7-10.9c-6.6-4.5-15.8-7.6-27.4-9.3-21.6 4.2-43.3 15.8-65.3 34.8m-18.5-30.7l10 18.1c4.7-4.5 9.7-8.7 15-12.7l-12.3-15.3c-4.5 3.1-8.7 6.4-12.7 9.9m88.5-25.8l-8.3-9.6c-19.5 1.1-35.1 5.3-47 12.8l13.3 16.3c3.2-2 6.9-3.7 11.2-5.3l30.8-14.2m-113 1.8l14.3 13.8c18.5-16 41.9-26.4 70.1-31.1-9.2-8.8-13.6-14.5-13.1-17.1-25 2.8-48.8 14.3-71.3 34.4z"/><path id="sd1" d="M1491.2 1557.8l-11.9-16.8c-9 7.8-18.1 16.8-27.2 27.2 1.9 9.1 4.6 16 8.3 20.6 10.5-12.1 20.8-22.4 30.8-31m-41.1-36.7v31.8c6-9 12.9-17.2 20.7-24.7l-10-18.1c-3.8 3.5-7.4 7.1-10.7 11m-13.8-34.9c-5 4.5-9.9 9.3-14.8 14.7 9.1.4 15.3 3.5 18.6 9.4 3.3-3.6 6.8-7 10.4-10.3l-14.2-13.8z"/></svg>