<svg xmlns="http://www.w3.org/2000/svg" id="tatoo" viewBox="0 0 3000 3000"><path id="hl1" fill="#4D4D4D" d="M1514.5 1499.6l-9.4 5.3h12.6l-3.2-5.3m16.8 1.7l3.8 3.8 43.3 15.9-20.8-22.3-26.3 2.6z"/><path id="cl1" fill="#1A1A1A" d="M1590.3 1543.3l-12-22.3-43.3-15.9 26.8 27.7 7 13.5 21.5-3m-91.5-98.2l20.8 39.5 21.3-3.5-10.5-18.8c-17.9-12.5-28.4-18.2-31.6-17.2m-11.2-.5l-22 2.3c8.4 17.5 14.9 31.4 19.7 41.8 1.8 3.8 4 8.2 6.6 13 4.6 8.3 10.6 18.2 17.9 29.6 11.6 18.1 17.7 28.2 18.3 30.5l18.8-8.3-29.2-48.5h-12.6l9.4-5.3-4.2-7-22.7-48.1m-31.3 9.5l-14.3 16.2c3.6 9.5 7.6 19.2 12 29.1 3.5 7.9 7 17.9 10.5 30 13.4 14.3 24.4 24.8 33.1 31.4-6.9-13.5-12-28.2-15.3-44.3-.1-.5-.3-.9-.4-1.4-5.7-18.7-14.2-39.1-25.6-61z"/><path id="sd1" d="M1497.7 1560.8c-8.7-6.6-19.7-17.1-33.1-31.4.9 3.1 1.8 6.3 2.6 9.6 4.4 16.5 11.5 32.2 21.4 47.1 3.7-4.7 9.1-8.9 16.3-12.8-2.6-4-5-8.1-7.2-12.5z"/></svg>