<svg xmlns="http://www.w3.org/2000/svg" id="图层_2" viewBox="0 0 3000 3000"><path fill="#59E4EA" d="M1188 2509.711s-290 82.523-462 80.523c-191.037-2.222-188 96-64 99s105.46 15.104 67.71 27.104-326.066 4.188-294.066 62.188 379.974 20.997 515.974 44.997S988 2890.234 1424 2892.234s794-50 898-100 66-62.467 58-91.233 68-20.767 132-32.767 110-84-38-76c-136.036 7.354-462-64-744-62s-542-20.523-542-20.523z"/><path fill="#D2FCFC" d="M863 2577s-75 22.045-81 53.522S772.499 2685 799.75 2701 876 2755 910 2773s144 41.908 246 57.954 183 5.046 232 7.046 149-6.324 253 1.838S1810 2834 1858 2823s133-31 198-33 149-29 167-61 18-40 55-52 46.486-50.999 26.656-61S2171 2565 2127 2563s-1140-22-1264 14z"/><ellipse cx="1527.875" cy="2647.935" fill="#F7E87F" rx="728.125" ry="183.019"/><path fill="#DDCA7A" d="M816.639 2608.57s-85.104 70.967 116.394 144.938 357.471 66.169 464.903 74.54 372.668-3.777 510.73-20.714 261.227-63.389 303.946-97.027 69.888-73.947 26.497-101.736c0 0 14.223 60.097-27.777 81.431s-319.333 85.334-415.333 92.667-236 24.667-326.667 23.333-244-10.667-297.333-20.667-211.333-30.668-249.333-50.668-139.386-72.193-106.027-126.097z"/><linearGradient id="SVGID_1_" x1="2014.499" x2="2014.499" y1="2533.55" y2="455.47" gradientUnits="userSpaceOnUse"><stop offset="0" stop-color="#402c2c"/><stop offset=".233" stop-color="#463833"/><stop offset=".68" stop-color="#4f4a3e"/><stop offset="1" stop-color="#525142"/></linearGradient><path fill="url(#SVGID_1_)" d="M2159.133 1361.217a5674.132 5674.132 0 0 0-11.342-79.502c-38.021-250.827-97.673-527.51-189.611-818.513 0 0-60.985-33.374-75.53 38.547l6.484-13.463s163.198 420.667 148.3 987.618c-4.542 187.186-27.436 388.236-79.833 590.896-33.404 130.505-78.822 260.929-139.195 387.66l371.595 79.09c-.001.001 62.769-462.061-30.868-1172.333z"/><path fill="#005436" d="M1989.434 231.414c.002-.002 45.393-23.289 11.927-38.658-33.475-15.37-53.73.977-53.73.977s27.43-63.225-11.153-30.622c-38.578 32.586-38.121 161.115-38.121 161.185-7.637 90.371-3.916 194.234-3.916 194.234s122.507 51.114 160.111-102.825c-.001 0-24.325-120.411-65.118-184.291z"/><path fill="#FFF" d="M1564.807 248.62c22.584 5.688 39.885 10.792 39.891 10.761-.006.065-15.512-5.189-39.891-10.761z"/><path fill="#096B4D" d="M1491.371 198.369c-77.734 24.8 16.896 34.479 73.436 50.251 24.379 5.571 39.885 10.825 39.891 10.761-.006.031-17.307-5.073-39.891-10.761-37.018-9.058-95.742-15.895-148.188-11.075-52.566 3.907-98.85 19.471-113.869 34.069-19.845 20.162 1.786 22.543 28.081 23.173 26.352.117 57.367-1.52 57.57-1.239.856.368-61.063 4.103-122.331 29.912-61.917 23.504-123.184 69.081-136.06 99.691-13.276 30.494 6.774 25.168 30.806 15.773 23.938-9.952 51.863-23.972 52.225-23.749.73.073-41.21 29.726-77.667 74.891-37.699 44.052-69.915 103.609-78.355 137.827-8.265 34.567 8.42 16.039 30.269-6.396 21.377-23.18 47.914-50.268 48.448-50.001.384-.272-27.687 33.839-46.776 76.129-20.286 41.627-31.592 91.435-25.379 107.29 10.366 30.53 47.862-51.96 49.888-50.432.301-.304-15.45 27.652-23.069 61.853-8.352 33.856-8.577 73.958 5.972 90.171 12.456 15.035 28.384-68.292 54.882-111.14 1.241-2.446-.417-25.972 11.245-73.024 11.849-45.866 37.011-115.252 96.391-182.036 58.439-66.075 151.069-129.559 276.006-147.24 122.85-17.443 278.01 10.919 413.407 134.033.924 2.663-65.324-110.441-168.109-182.708-99.156-78.11-234.842-115.386-288.823-96.023z"/><path fill="#005F43" d="M1181.765 818.142c10.633-3.723 13.147-33.396 18.534-63.506 4.503-29.884 11.883-60.213 11.78-60.1-.615.34.852 41.514 20.604 42.257 9.481.709 15.581-25.087 23.645-51.373 7.372-26.225 16.705-52.946 16.613-52.884-.628.687-1.285 67.396 33.088 40.604 6.18-4.617 15.945-38.437 29.038-70.316 12.314-32 27.956-62.059 27.775-61.995-.438.704-8.212 89.486 36.875 69.097 44.347-18.517 83.873-128.117 84.449-128.579-.028.4-11.507 53.402 25.691 54.292 18.586.64 49.556-14.916 78.592-27.689 28.59-13.249 55.244-23.709 55.026-23.893-.581-.078-39.153 26.971-3.044 48.763 17.987 11.181 49.521 18.926 81.939 22.554 32.21 2.944 65.309 1.775 81.589-20.537 1.739 1.586-4.648 89.078 50.252 101.271 55.812 15.673 92.482-38.074 94.089-159.006-135.397-123.114-290.561-151.477-413.396-134.028-124.926 17.688-217.523 81.186-275.954 147.261-59.384 66.787-84.583 136.156-96.445 182.017-11.671 47.041-10.013 70.572-11.254 73.018-1.83 1.177 17.93 78.057 30.514 72.772z"/><path fill="#FFF" d="M2187.313 168.376c-17.457 13.185-30.733 23.982-30.742 23.958.008.057 11.824-10.253 30.742-23.958z"/><path fill="#004E35" d="M2239.966 95.862c65.847-3.952-9.146 38.079-52.653 72.514-18.918 13.706-30.733 24.016-30.742 23.958.009.025 13.285-10.772 30.742-23.958 28.652-21.36 75.08-48.218 117.954-62 42.86-14.682 82.168-16.288 96.163-7.897 18.602 11.904 1.482 21.672-19.619 31.426-21.222 9.297-46.422 18.581-46.551 18.917-.64.64 49.734-17.462 102.443-14.724 52.932.351 108.198 21.542 122.543 45.627 14.649 23.843-2.196 25.86-22.774 25.468-20.578-.946-44.896-4.297-45.156-3.957-.576.317 37.056 13.38 72.286 42.833 36.078 27.981 69.759 72.355 80.992 101.354 11.144 29.393-4.702 17.91-25.211 4.581-20.229-14.184-45.124-30.221-45.519-29.787-.345-.116 26.695 21.94 47.553 54.769 21.744 31.788 37.312 74.348 34.358 91.314-4.394 32.116-45.295-31.821-46.731-29.69-.28-.177 16.032 20.432 26.604 49.701 11.117 28.696 16.496 66.064 6.879 86.267-8.089 18.378-31.723-53.858-58.628-84.625-1.315-1.851-3.029-24.391-18.52-64.255-15.497-38.683-44.766-94.687-101.263-136.337-55.645-41.316-138.509-68.285-241.458-41.233-101.241 26.548-222.573 107.121-315.699 269.267-.401 2.81 38.313-125.88 111.759-229.189 69.757-107.495 174.245-189.604 220.248-190.344z"/><path fill="#005436" d="M2569.75 566.53c-9.047.231-14.92-26.595-23.164-52.823-7.503-26.331-17.38-52.075-17.281-52.002.54.101 4.69 39.051-11.126 46.631-7.544 3.971-15.801-17.991-25.705-39.713-9.339-21.917-20.326-43.606-20.245-43.584.6.423 9.776 62.474-21.388 49.445-5.583-2.154-17.835-30.327-32.518-55.522-14.07-25.582-30.566-48.193-30.413-48.193.442.501 18.217 80.682-20.751 77.362-38.127-1.822-84.183-90.366-84.709-90.596.079.362 16.193 45.846-13.66 59.646-14.894 7.076-41.861 3.35-66.906 1.547-24.757-2.399-47.583-2.872-47.431-3.116.453-.279 35.038 11.526 8.771 44.46-13.047 16.711-37.445 34.938-63.095 49.625-25.571 13.981-52.386 24.427-68.398 9.275-1.193 2.084 15.294 81.538-27.36 112.066-42.93 34.089-79.446-3.297-96.412-115.645 93.126-162.146 214.458-242.718 315.69-269.261 102.942-27.04 185.777-.044 241.416 41.272 56.503 41.645 85.8 97.628 101.303 136.304 15.501 39.85 17.215 62.393 18.53 64.244 1.63.462-4.323 79.126-15.148 78.578z"/><path fill="#00593C" d="M1577.763 484.512c19.41-6.086 34.551-10.177 34.543-10.204.018.05-13.783 3.195-34.543 10.204z"/><path fill="#005436" d="M1503.363 479.865c-51.057 55.135 25.259 18.714 74.4 4.647 20.754-7.006 34.56-10.151 34.543-10.204.008.027-15.133 4.118-34.543 10.204-31.721 10.188-79.377 32.15-118.046 60.175-39.096 27.377-69.206 60.821-75.584 79.026-8.12 24.728 9.384 16.536 29.856 4.825 20.337-12.127 43.637-27.767 43.896-27.644.788-.111-45.567 31.47-83.577 79.75-39.333 46.807-70.316 110.305-69.356 139.847.609 29.637 14.155 16.241 29.325-2.132 14.902-18.767 31.423-42.504 31.782-42.501.588-.281-21.174 41.995-33.204 93.677-13.38 51.398-17.028 112.2-11.371 142.462 5.919 30.449 12.183 8.448 21.035-18.957 8.225-27.761 19.04-60.926 19.549-60.969.194-.386-9.3 38.896-8.978 80.312-.832 41.46 8.159 85.062 18.578 94.387 18.829 18.704 18.392-62.198 20.498-61.965.122-.373-2.073 28.458 4.205 58.328 5.602 29.943 19.677 60.927 36.644 66.67 14.935 5.802-2.404-65.751 2.774-111.03.083-2.458-9.55-19.806-17.287-61.448-7.168-40.807-12.444-105.908 9.554-184.867 21.522-77.974 70.299-169.804 160.229-241.34 88.406-70.389 217.965-120.484 365.97-88.449 1.659 1.622-89.538-54.763-194.366-62.758-104.105-14.185-221.839 20.016-256.526 59.954z"/><path fill="#004E35" d="M1485.138 1100.668c6.873-7.797-1.74-31.812-8.287-57.498-7.146-25.101-12.245-51.877-12.281-51.744-.351.549 15.409 31.574 30.881 22.992 7.554-3.846 3.083-26.548-.041-50.524-3.643-23.615-5.95-48.515-5.997-48.426-.245.824 22.952 52.494 39.902 15.929 3.119-6.42-1.377-36.995-2.619-67.614-1.89-30.35-.521-60.746-.634-60.618-.092.746 25.465 72.725 52.939 36.119 27.571-34.819 19.071-137.546 19.352-138.17.117.324 10.109 46.46 39.07 29.899 14.538-8.121 32.865-34.462 50.681-57.757 17.314-23.456 34.12-43.872 33.895-43.91-.479.206-20.573 38.919 14.98 38.959 17.82.273 44.855-8.382 71.108-20.62 25.852-12.662 50.919-28.911 55.534-53.636 1.902.411 28.066 70.75 74.678 54.688 48.544-13.806 57.688-72.197 15.956-166.066-148-32.035-277.563 18.06-365.959 88.446-89.912 71.537-138.661 163.364-160.184 241.332-22.001 78.959-16.758 144.066-9.601 184.878 7.725 41.636 17.364 58.987 17.278 61.448-.989 1.752 41.54 51.797 49.349 41.893z"/><path fill="#005F43" d="M1923.921 495.388s-125.284 40.417-197.069 230.872c-71.78 190.45-49.671 335.566-8.273 358.87 41.396 23.308 22.064-115.825 22.064-115.825s19.874 65.083 36.934 41.19c17.056-23.896-5.321-100.954-5.321-100.954s53.511 46.21 55.661 7.018c2.146-39.188-27.101-117.79-27.101-117.79s51.432 55.45 54.766-5.057c3.339-60.514-.946-125.423-.946-125.423s-26.824 80.219 19.412 48.576c46.24-31.641 12.326-118.202 12.326-118.202s57.652 35.703 37.547-103.275z"/><path fill="#00593C" d="M2283.985 474.801c-19.672-4.881-34.98-8.037-34.972-8.064-.02.052 13.916 2.343 34.972 8.064z"/><path fill="#005F43" d="M2358.062 465.573c53.581 51.91-24.343 20.245-74.077 9.228-21.056-5.721-34.991-8.012-34.972-8.064-.009.028 15.3 3.184 34.972 8.064 32.16 8.215 80.779 27.21 120.717 52.814 40.326 24.931 71.975 56.468 79.204 74.256 9.275 24.188-8.593 17.083-29.589 6.659-20.874-10.861-44.884-25.045-45.134-24.906-.794-.061 46.987 28.618 87.222 74.49 41.481 44.308 75.419 105.813 75.858 135.372.786 29.628-13.372 17.084-29.384-.328-15.768-17.821-33.386-40.504-33.745-40.479-.598-.25 23.126 40.629 37.576 91.493 15.787 50.503 22.302 110.99 18.083 141.555-4.472 30.773-11.768 9.184-21.903-17.63-9.52-27.213-21.881-59.666-22.393-59.675-.218-.373 11.12 38.264 12.751 79.643 2.788 41.347-4.127 85.438-14.092 95.389-17.925 19.838-21.306-60.971-23.393-60.609-.145-.361 3.408 28.29-1.45 58.5-4.178 30.246-16.772 62.051-33.438 68.833-14.641 6.715-.702-65.805-8.013-110.703-.203-2.443 8.596-20.365 14.36-62.419 5.228-41.194 7.424-106.52-18.268-184.009-25.176-76.538-78.216-165.226-171.393-231.123-91.601-64.839-223.333-106.876-369.613-65.774-1.581 1.723 86.825-60.197 191.122-74.64 103.29-20.576 222.465 6.323 258.992 44.063z"/><path fill="#096B4D" d="M2405.56 1084.35c-7.228-7.363.235-31.872 5.563-57.926 5.958-25.499 9.772-52.554 9.82-52.422.379.526-13.893 32.48-29.748 24.861-7.725-3.378-4.33-26.32-2.347-50.453 2.524-23.804 3.651-48.811 3.707-48.724.279.802-20.448 53.833-39.096 18.361-3.417-6.219-.37-37.022-.579-67.675.452-30.421-2.349-60.692-2.226-60.564.125.734-21.998 74.184-51.159 39.321-29.177-33.068-25.538-136.167-25.844-136.777-.103.331-7.903 47.018-37.607 32.264-14.901-7.21-34.442-32.386-53.331-54.548-18.395-22.36-36.138-41.707-35.912-41.762.483.178 22.376 37.596-13.119 39.828-17.787 1.369-45.189-5.61-71.985-16.207-26.405-11.054-52.213-25.738-57.981-50.146-1.885.534-24.689 72.38-71.988 59.209-49.124-10.795-61.017-68.532-23.776-164.839 146.277-41.104 278.015.935 369.606 65.774 93.158 65.891 146.171 154.584 171.339 231.114 25.696 77.492 23.534 142.824 18.316 184.016-5.746 42.056-14.555 59.972-14.349 62.421 1.069 1.694-39.04 54.286-47.304 44.874z"/><path fill="#005F43" d="M1836.644 2644.595c-30.572-.261-60.56-6.823-89.024-17.234l26.94-41.179-58.255 27.994c-29.117-13.845-56.054-30.986-79.688-48.393l31.935-36.911-61.016 14.095c-41.872-34.877-67.79-65.293-67.79-65.293 27.615-14.37 54.027-26.066 79.251-35.467l56.576 37.198-15.041-50.917c30.263-8.707 58.583-13.967 85.021-16.48l61.48 52.379-17.194-54.121c29.811.544 56.808 4.659 81.028 11.049l50.416 64.944 11.56-41.505c69.748 35.141 103.036 84.441 103.036 84.441-46.712 64.488-97.487 97.366-148.13 109.633l7.129-54.804-58.234 60.571z"/><path fill="#006F3C" d="M1841.202 2359.768c52.035 47.699 109.21 85.119 170.022 115.636a411.075 411.075 0 0 0 14.424-5.841s-3.15-59.368-44.875-125.368l-31.268 29.654-9.795-81.592c-17.496-17.931-38.512-35.334-63.805-51.14l-13.132 55.252-25.727-76.514c-23.974-11.432-50.982-21.471-81.414-29.555l-13.315 51.397-29.361-60.96c-25.218-4.687-52.476-8.117-81.893-10.04 12.687 14.365 25.916 27.645 39.162 40.891 54.144 54.143 113.985 96.887 170.977 148.18z"/><path fill="#007542" d="M1841.202 2359.768c-56.992-51.293-116.833-94.037-170.976-148.179-13.246-13.246-26.476-26.525-39.162-40.891-1.45-.094-2.88-.206-4.341-.292 0 0 6.562 39.393 24.509 90.841l59.602 19.261-46.404 15.249c11.297 27.065 25.574 55.611 43.412 82.429l64.386 5.948-44.327 21.471c19.06 23.563 41.399 44.601 67.466 60.558l81.146-22.023-34.332 43.303c46.437 14.484 102.225 13.607 169.044-12.038-60.813-30.518-117.987-67.937-170.023-115.637z"/><path fill="#005F43" d="M2145.064 2350.233c15.194-26.488 35.593-49.424 58.612-69.144l22.776 43.635 4.063-64.472c26.316-18.601 54.45-33.689 81.216-45.762l16.61 45.89 17.521-60.08c50.953-19.414 90.174-27.133 90.174-27.133-.955 31.108-3.662 59.852-7.809 86.411l-60.142 31.114 51.811 11.79c-7.181 30.622-16.449 57.886-27.184 82.151l-75.804 27.942 55.676 11.493c-15.074 25.713-31.86 47.213-49.3 65.209l-81.347 12.163 30.584 30.372c-64.815 43.59-124.13 48.479-124.13 48.479-33.447-72.247-37.315-132.559-23.253-182.693l44.329 33.021-24.403-80.386z"/><path fill="#006F3C" d="M2061.313 2144.732l25.374 57.223-42.304-24.391c-12.676 26.467-24.45 56.115-32.564 87.285l38.497 51.904-45.571-18.688c-4.87 29.906-5.666 60.567-.187 90.604l70.524 45.741-55.193 3.303c19.314 42.368 54.859 81.72 113.776 113.66-19.479-160.222-9.603-322.965-21.87-484.271-4.736 6.074-27.043 35.349-50.482 77.63z"/><path fill="#007542" d="M2226.139 2298.591l-49.982 27.071 39.924-70.186c-7.457-25.459-17.963-52.266-32.229-80.311l-47.216 24.362 25.895-62.521c-13.97-22.975-30.449-46.689-49.797-71.092 0 0-.333.417-.938 1.188 12.268 161.306 2.392 324.049 21.87 484.271a403.29 403.29 0 0 0 21.89 11.028s42.195-41.937 63.612-117.007l-42.975-3.515 54.337-61.692c1.713-24.983.681-52.229-4.391-81.596z"/><path fill="#19543F" d="M1886.27 2018.352l-.406-.287s-18.008 45.045-31.752 109.697l49.729 57.432-57.743-13.338c-5.347 35.202-8.474 73.806-6.854 112.837l63.078 46.638-59.508-5.572c4.965 36.414 14.902 72.303 31.925 105.219l98.085 28.119-62.913 23.398c37.982 42.952 94.259 76.41 175.87 92.353-23.423-33.383-42.082-70.085-56.505-106.796-56.72-148.545-126.198-291.983-143.006-449.7z"/><path fill="#005F43" d="M2143.92 2420.87l-51.147 11.145 41.244-90.839c-6.888-29.592-17.758-60.876-34.064-93.159l-48.406 49.095 21.451-95.57c-17.681-26.919-39.391-54.304-65.879-81.828l-46.176 45 7.898-81.745c-24.258-21.602-51.66-43.204-82.571-64.615 16.809 157.717 86.286 301.154 143.005 449.699 14.423 36.711 33.082 73.413 56.505 106.796a496.562 496.562 0 0 0 25.785 4.328c0-.001 34.123-63.611 32.355-158.307z"/><g><path fill="#BF8F46" d="M1805.577 2663.243c-.043-.017-.088-.022-.131-.039l8.259 3.207c6.843 2.659 20.531-10.832 33.036-25.617 6.262-7.403 12.229-15.13 16.891-21.318 4.689-6.227 8.067-10.884 9.279-12.308 7.732-7.826 13.056-6.244 25.124-5.658 9.944.484 16.205 3.084 25.425 3.51 6.898.313 10.862-.939 12.777-3.2 6.916-8.181-9.617-26.045-14.309-34.289-5.248-9.229-10.36-18.583-15.34-27.924 6.293-13.344 12.519-26.713 18.886-40.016 2.031-4.252 11.845-21.225 11.115-26.659-.874-6.561-8.404-7.335-8.404-7.335.034.013.057.029.086.043-1.837-.745-4.579-.955-8.485-.436-3.997.529-7.737 4.306-11.183 8.378-.757.899 1.693 1.195.961 2.09a192.3 192.3 0 0 1-2.05 2.479c-1.448 1.714-6.03 3.836-7.353 4.867-9.386 7.376-21.239 11.813-32.595 16.501-6.778-6.79-14.576-19.698-20.617-23.522-4.367-2.764-10.53-6.501-15.566-.296-8.384 10.336-11.226 48.453-13.507 58.024-10.859 9.268-21.255 19.459-32.777 27.958-4.242 3.13-8.92 5.689-11.164 8.337-2.925 3.46-1.699 7.073 10.065 12.312 8.575 3.813 17.893 6.418 26.655 9.813 6.557 11.883 3.909 24.249 1.416 35.672-1.563 7.146-11.92 22.674-10.485 29.545.718 3.357 2.105 5.211 3.991 5.881z"/><radialGradient id="SVGID_2_" cx="1713.658" cy="2707.588" r="578.717" gradientTransform="matrix(.4808 -.4124 .5137 .5397 -444.572 1863.35)" gradientUnits="userSpaceOnUse"><stop offset="0" stop-color="#fbb03b"/><stop offset=".258" stop-color="#f7ad3a"/><stop offset=".506" stop-color="#eca537"/><stop offset=".75" stop-color="#d89833"/><stop offset=".991" stop-color="#bd852c"/><stop offset="1" stop-color="#bc842c"/></radialGradient><path fill="url(#SVGID_2_)" d="M1827.009 2473.094c1.191-1.428 2.493-2.277 3.914-2.384 9.931-.719 22.593 32.216 32.13 28.321 11.517-4.61 23.567-8.934 33.019-16.336 1.324-1.029 5.897-3.161 7.336-4.884.667-.793 1.346-1.637 2.039-2.493.727-.902 1.467-1.817 2.219-2.724 3.423-4.094 5.068-6.098 9.123-6.567 26.826-3.113-.791 25.581-3.109 30.618-6.21 13.467-12.274 27.004-18.408 40.518 5.249 9.622 10.636 19.265 16.163 28.783 4.935 8.502 25.574 30.682 18.699 38.906-1.901 2.274-5.906 3.483-12.927 3.04-9.391-.604-19.274-7.009-29.4-7.684-12.288-.817-17.73-2.526-25.441 5.322-1.207 1.434-4.547 6.127-9.191 12.4-4.618 6.236-10.533 14.018-16.754 21.465-15.735 18.829-33.437 35.51-37.129 19.526-1.595-7.041 8.626-22.708 10.074-29.977 2.307-11.619 4.755-24.192-2.151-36.445-8.981-3.623-18.513-6.454-27.31-10.501-12.073-5.56-13.392-9.271-10.485-12.752 2.229-2.662 6.937-5.193 11.189-8.313 11.55-8.466 21.918-18.686 32.779-27.952 2.13-9.728 5.08-49.669 13.621-59.887z"/><radialGradient id="SVGID_3_" cx="1720.212" cy="2721.133" r="409.002" gradientTransform="matrix(.4808 -.4124 .5137 .5397 -444.572 1863.35)" gradientUnits="userSpaceOnUse"><stop offset="0" stop-color="#fdd089"/><stop offset="1" stop-color="#fbb03b"/></radialGradient><path fill="url(#SVGID_3_)" d="M1916.788 2466.027c-4.055.47-5.7 2.474-9.123 6.567-.752.906-1.492 1.821-2.219 2.724-.693.856-1.372 1.7-2.039 2.493-1.438 1.723-6.012 3.854-7.336 4.884-7.893 6.182-17.599 10.215-27.293 14.063-7.848 21.172-19.273 45.222-16.893 47.15 3.395 2.747 18.781-16.232 33.664-33.479 8.571-9.936 22.598-29.566 32.169-44.496a39.11 39.11 0 0 0-.93.094zm-87.984 5.437c-.623.401-1.222.943-1.795 1.63-7.232 8.652-10.455 38.613-12.568 53.5 7.7 6.408 15.606 12.705 22.909 18.013 15.33 11.138 2.585-40.904-8.546-73.143zm21.271 79.659c.18 10.356 13.314 30.12 21.242 48.875 4.36-1.051 9.228-.271 16.488.211 10.126.675 20.01 7.08 29.4 7.684 7.021.443 11.025-.766 12.927-3.04 1.675-2.003 1.709-4.837.744-8.096-32.653-25.561-80.96-54.643-80.801-45.634zm-7.528 2.068c-22.202.858-51.944 10.541-74.416 19.154.044 2.67 3.168 5.692 11.772 9.654 8.797 4.047 18.328 6.878 27.31 10.501 6.906 12.253 4.458 24.826 2.151 36.445-1.448 7.269-11.669 22.936-10.074 29.977 1.065 4.61 3.301 6.49 6.314 6.398 15.412-56.725 43.724-112.393 36.943-112.129z"/></g><g><path fill="#BF8F46" d="M1863.609 2635.332c-.023-.059-.061-.109-.082-.168l4.285 11.285c3.549 9.354 33.841 12.234 64.547 12.797 15.377.283 30.857-.014 43.139-.373 12.356-.363 21.469-.77 24.434-.706 17.365 1.455 20.724 8.321 32.043 21.362 9.324 10.748 12.365 19.445 21.039 29.391 6.497 7.437 11.996 10.504 16.693 10.592 16.988.309 22.52-31.912 28.004-43.727 6.143-13.223 12.576-26.408 19.125-39.445 22.732-4.684 45.427-9.459 68.183-14.031 7.27-1.465 37.987-5.542 43.962-10.872 7.217-6.43.658-14.911.658-14.911.019.047.021.084.033.127-.914-2.538-3.391-5.566-7.93-9.191-4.641-3.711-13.028-4.422-21.486-4.578-1.863-.029.215 2.768-1.618 2.758a378.693 378.693 0 0 1-5.104-.046c-3.558-.063-10.745-3.042-13.336-3.549-18.458-3.554-35.757-12.146-52.866-20.009 1.609-12.762 9.746-31.73 8.434-41.23-.95-6.865-2.49-16.418-15.166-16.435-21.109-.021-70.943 29.095-85.021 34.776-22.263-3.494-45.201-5.729-67.175-10.559-8.092-1.777-15.916-4.488-21.419-4.594-7.185-.131-10.417 4.184-5.138 20.824 3.855 12.124 9.938 24.006 14.494 35.973-8.11 16.815-25.998 24.468-42.571 31.485-10.37 4.387-39.85 6.684-46.889 13.956-3.427 3.569-4.329 6.572-3.272 9.098z"/><radialGradient id="SVGID_4_" cx="2007.794" cy="2482.328" r="578.717" gradientTransform="rotate(8.795 1438.777 1719.12)" gradientUnits="userSpaceOnUse"><stop offset="0" stop-color="#fbb03b"/><stop offset=".258" stop-color="#f7ad3a"/><stop offset=".506" stop-color="#eca537"/><stop offset=".75" stop-color="#d89833"/><stop offset=".991" stop-color="#bd852c"/><stop offset="1" stop-color="#bc842c"/></radialGradient><path fill="url(#SVGID_4_)" d="M2119.45 2497.629c2.947.039 5.293.678 6.843 2.064 10.794 9.721-17.181 50.598-2.864 57.238 17.175 8.096 34.529 16.988 53.086 20.588 2.59.512 9.781 3.473 13.34 3.52 1.644.025 3.361.021 5.108.021 1.838-.004 3.706-.004 5.573.017 8.462.114 12.574.14 17.199 3.96 30.604 25.274-32.33 20.701-40.854 22.529-22.8 4.873-45.544 9.957-68.325 14.949-6.628 13.553-13.143 27.268-19.365 41.023-5.559 12.284-12.313 52.407-29.314 52.179-4.702-.063-10.188-3.211-16.646-10.884-8.626-10.271-10.588-25.939-19.858-37.035-11.254-13.465-14.575-20.563-31.945-21.976-2.973-.051-12.092.427-24.461.876-12.297.443-27.793.842-43.182.639-38.917-.521-77.145-4.891-61.121-22.179 7.09-7.581 36.605-10.136 47.012-14.746 16.629-7.378 34.574-15.411 42.792-32.901-4.495-12.387-10.512-24.68-14.3-37.23-5.19-17.232-1.93-21.726 5.262-21.633 5.508.076 13.325 2.844 21.413 4.641 21.963 4.887 44.909 7.068 67.171 10.566 14.122-5.972 66.313-36.51 87.436-36.226z"/><radialGradient id="SVGID_5_" cx="2014.35" cy="2495.873" r="408.999" gradientTransform="rotate(8.795 1438.777 1719.12)" gradientUnits="userSpaceOnUse"><stop offset="0" stop-color="#fdd089"/><stop offset="1" stop-color="#fbb03b"/></radialGradient><path fill="url(#SVGID_5_)" d="M2217.736 2585.037c-4.625-3.82-8.737-3.846-17.199-3.96a415.586 415.586 0 0 0-5.573-.017c-1.747 0-3.465.004-5.108-.021-3.559-.047-10.75-3.008-13.34-3.52-15.496-3.006-30.154-9.703-44.569-16.547-33.937 9.652-74.989 18.008-74.992 22.105 0 5.842 38.752 5.871 74.866 6.836 20.803.554 59.003-1.379 86.96-3.989a67.21 67.21 0 0 0-1.045-.887zm-94.487-86.912c-1.116-.312-2.383-.477-3.799-.496-17.887-.24-58.044 21.617-78.508 31.946-.219 13.397-.096 26.917.646 38.977 1.562 25.311 53.015-31.728 81.661-70.427zm-76.998 89.14c-12.592 8.9-23.855 39.188-39.07 63.211 5.646 3.65 9.541 9.365 16.191 17.322 9.271 11.096 11.232 26.764 19.858 37.035 6.457 7.673 11.943 10.82 16.646 10.884 4.141.056 7.668-2.293 10.725-6.038-1.063-55.46-13.401-130.159-24.35-122.414zm-10.061-6.087c-23.209-22.364-64.823-45.144-97.863-61.263-3.249 2.291-3.858 8.084-.159 20.365 3.788 12.551 9.805 24.844 14.3 37.23-8.218 17.49-26.163 25.523-42.792 32.901-10.406 4.61-39.922 7.165-47.012 14.746-4.622 4.987-4.71 8.894-1.59 11.95 85.318-31.701 182.207-49.099 175.116-55.929z"/></g><g><path fill="#894217" d="M1194.403 2443.61c-.065-.154-.336-.256-.763-.316.032.122.095.231.117.354 2.551 13.517-51.497 33.172-116.155 45.379-63.319 11.947-116.525 12.911-121.085.244-.6 8.848-5.314 92.654 30.225 128.979 37.553 38.379 77.599 58.291 124.841 48.431a18.126 18.126 0 0 0 1.668-.468c.58-.037 1.153-.082 1.741-.18 47.592-8.033 77.628-41.169 98.613-90.591 20.971-49.424-19.202-131.832-19.202-131.832z"/><path fill="#77330E" d="M1014.38 2626.003c37.803 19.382 102.955 23.511 148.326-50.732 32.572-53.291 29.837-90.356 22.914-120.457-10.452 7.143-30.158 14.839-54.829 21.831 41.781 85.052-13.246 141.719-44.31 149.688-39.975 10.255-76.253-5.87-101.965-53.051-11.723-21.53-11.561-50.537-7.93-75.708-11.308-1.262-18.518-3.982-20.07-8.303-.332 4.877-1.912 32.497 2.685 62.398 10.697 23.861 29.782 61.312 55.179 74.334z"/><path fill="#6B2B0E" d="M986.742 2618.249c37.553 38.379 77.599 58.291 124.841 48.431a18.126 18.126 0 0 0 1.668-.468c.58-.037 1.153-.082 1.741-.18 47.592-8.033 77.628-41.169 98.613-90.591 20.971-49.423-19.203-131.831-19.203-131.831-.065-.154-.336-.256-.763-.316.032.122.095.231.117.354.643 3.4-2.324 7.2-8.137 11.166 6.923 30.101 9.658 67.166-22.914 120.457-45.371 74.243-110.523 70.114-148.326 50.732-25.397-13.021-44.482-50.473-55.179-74.334 3.734 24.374 11.582 50.268 27.542 66.58z"/><path fill="#F0B377" d="M1068.363 2440.067c-64.648 12.199-114.652 34.877-112.1 48.394 2.551 13.521 56.689 12.765 121.339.565 64.658-12.207 118.706-31.862 116.155-45.379-2.55-13.52-60.734-15.782-125.394-3.58zm8.955 46.483c-58.219 10.99-106.964 11.674-109.263-.501-2.296-12.175 42.727-32.586 100.944-43.577 58.211-10.982 110.593-8.953 112.891 3.226 2.3 12.174-46.363 29.868-104.572 40.852z"/><path fill="#DAE5EA" d="M1068.999 2442.471c-58.217 10.991-103.241 31.402-100.944 43.577 2.298 12.175 51.043 11.491 109.263.501 58.209-10.983 106.872-28.678 104.572-40.853-2.298-12.178-54.68-14.207-112.891-3.225zm7.836 40.063c-47.745 9.011-87.722 9.576-89.605-.41-1.886-9.979 35.039-26.733 82.784-35.743 47.742-9.01 90.712-7.33 92.595 2.648 1.883 9.981-38.029 24.495-85.774 33.505z"/><g fill="#FFFBF6"><path d="M1156.743 2457.192c5.307-3.294 8.068-6.459 7.537-9.262-1.881-9.982-44.84-11.649-92.585-2.644-33.546 6.329-61.729 16.481-74.88 25.415 13.775-8.656 41.019-18.248 73.198-24.321 47.742-9.01 90.712-7.33 92.595 2.648.47 2.49-1.66 5.265-5.865 8.164z"/><path d="M1078.997 2485.447c-58.221 10.986-106.962 11.674-109.26-.492-.688-3.653 2.908-8.059 9.823-12.716-8.007 5.068-12.25 9.872-11.505 13.81 2.298 12.175 51.043 11.491 109.263.501 43.683-8.245 81.986-20.266 97.413-30.895-16.389 10.353-53.545 21.835-95.734 29.792z"/></g><path fill="#AFC1CB" d="M987.23 2482.124c1.883 9.986 41.86 9.421 89.605.41 47.745-9.01 87.657-23.523 85.773-33.505-.74-3.922-7.828-6.541-19.026-7.766-13.691 26.225-59.301 44.932-84.93 40.958-13.828-2.152-19.602-14.859-21.841-27.893-30.518 8.986-50.999 20.299-49.581 27.796z"/><path fill="#CAD8DB" d="M1078.139 2480.069c18.231.627 31.073-16.962 36.97-39.225-13.576.704-29.056 2.51-45.095 5.536a377.503 377.503 0 0 0-7.627 1.542c-.195 15.713 2.812 31.696 15.752 32.147z"/><path fill="#BACCD3" d="M1058.653 2482.221c25.629 3.974 71.238-14.733 84.93-40.958-7.751-.838-17.493-.992-28.474-.419-5.896 22.263-18.738 39.852-36.97 39.225-12.939-.451-15.947-16.434-15.752-32.146-9.059 1.907-17.666 4.071-25.576 6.406 2.24 13.033 8.013 25.74 21.842 27.892z"/><path fill="#541603" d="M1003.401 2505.843l2.286-7.757c-3.81.183-6.665.256-10.135.284 1.06 1.944 6.728 19.106 8.074 21.872 1.553 3.177-.225-14.399-.225-14.399z"/><path fill="#A5783D" d="M1003.635 2494.962l-8.079 3.408c3.232-.032 6.612-.126 10.131-.284l4.946-3.295c-2.414.093-4.74.146-6.998.171z"/><path fill="#AFC1CB" d="M1018.735 2489.401c-.663.016-1.331.024-1.971.032l-13.128 5.528c2.258-.024 4.584-.078 6.999-.171l8.1-5.389z"/><path fill="#541603" d="M1165.531 2484.125s3.706 6.565 5.758 10.91c1.777 3.762-7.1-21.6-9.534-28.548-1.41.541-2.85 1.086-4.337 1.632l4.948 16.604 3.165-.598z"/><path fill="#A5783D" d="M1151.579 2466.833l5.908 1.257a206.333 206.333 0 0 0 4.033-1.513l-6.801-.96c-1.022.402-2.069.806-3.14 1.216z"/><path fill="#AFC1CB" d="M1143.586 2464.035h-.004c-.565.239-1.146.483-1.732.711l.002.017 9.728 2.07c1.07-.41 2.117-.813 3.141-1.216l-11.135-1.582z"/><g><path fill="#C16A02" d="M1178.878 2319.668l3.758.504z"/><path fill="#E28307" d="M1173.258 2318.248l1.615.447-36.805 117.59-1.747 5.593-8.782 28.026c.659-.207 1.312-.436 1.959-.654l8.525-27.262 1.794-5.707 36.664-117.143-3.223-.89z"/><path fill="#FFAD4A" d="M1173.258 2318.248l-36.94 118.037-1.719 5.499-9.012 28.775c.667-.216 1.31-.432 1.952-.655l8.782-28.026 1.747-5.593 36.805-117.59-1.615-.447z"/><path fill="#C16A02" d="M1176.482 2319.138l-36.664 117.143-1.794 5.707-8.525 27.262c1.35-.46 2.653-.924 3.933-1.388l8.004-25.586 1.865-5.951 36.394-116.296-3.213-.891z"/><path fill="#FF9100" d="M1185.57 2280.821l-106.275 47.588a116.262 116.262 0 0 0 21.352 32.095l84.923-79.683z"/><path fill="#FCDF21" d="M1185.57 2280.821l-84.901 79.662a116.172 116.172 0 0 0 25.28 20.379l59.621-100.041z"/><path fill="#FF9100" d="M1185.57 2280.821l-59.599 100.017a116.144 116.144 0 0 0 29.94 12.598l29.659-112.615z"/><path fill="#FCDF21" d="M1188.177 2397.243l-2.607-116.422-29.654 112.582a116.106 116.106 0 0 0 32.261 3.84z"/><path fill="#FF9100" d="M1220.226 2391.996l-34.656-111.175 2.599 116.39a116.322 116.322 0 0 0 32.057-5.215z"/><path fill="#FCDF21" d="M1249.593 2378.092l-64.023-97.271 34.652 111.149a116.548 116.548 0 0 0 29.371-13.878z"/><path fill="#FF9100" d="M1135.288 2306.334c1.227-.48-45.731 17.89-47.729 23.365-2.003 5.45 6.413 15.453 11.188 21.778 4.775 6.322-18.641-23.833 36.541-45.143z"/><path fill="#EDD815" d="M1145.74 2320.738c1.017-.838-37.866 31.252-38.065 37.068-.197 5.82 10.913 12.695 17.415 17.215 6.515 4.515-25.13-16.832 20.65-54.283z"/><path fill="#FF9100" d="M1159.208 2330.663c.727-1.099-27.034 40.994-25.515 46.616 1.518 5.625 14.158 8.928 21.707 11.34 7.55 2.412-28.977-8.717 3.808-57.956z"/><path fill="#EDD815" d="M1173.996 2336.008c.381-1.257-14.678 46.859-11.672 51.843 3.01 4.983 16.075 4.679 23.991 4.909 7.928.236-30.247-.382-12.319-56.752z"/><path fill="#FF9100" d="M1189.318 2337.09c.041-1.322-1.479 49.076 2.764 53.063 4.245 3.986 16.738.163 24.427-1.753 7.695-1.912-29.228 7.801-27.191-51.31z"/><path fill="#EDD815" d="M1205.332 2333.633c-.338-1.27 12.697 47.429 17.903 50.028 5.213 2.603 16.086-4.649 22.901-8.696 6.818-4.044-25.756 15.863-40.804-41.332z"/><path fill="#FFCE8D" d="M1133.663 2323.08s34.829-29.128 38.065-33.322c3.228-4.186-19.253 11.776-29.146 13.262-9.895 1.48 30.365-10.106-8.919 20.06z"/><path fill="#FFF599" d="M1147.986 2336.207s25-37.91 26.89-42.845c1.896-4.938-15.055 16.804-24.113 21.07-9.048 4.263 26.186-18.402-2.777 21.775z"/><path fill="#FFCE8D" d="M1165.644 2344.72s12.945-43.528 13.321-48.8c.376-5.272-9.541 20.444-16.973 27.147-7.425 6.709 19.737-25.194 3.652 21.653z"/><path fill="#FFF599" d="M1186.277 2347.747s-1.084-45.392-2.349-50.528c-1.251-5.134-2.778 22.396-7.794 31.061-4.999 8.659 11.022-30.045 10.143 19.467z"/><path fill="#FFCE8D" d="M1203.193 2345.392s-12.537-43.65-15.055-48.297c-2.516-4.645 2.97 22.369.317 32.021-2.642 9.645 3.063-31.857 14.738 16.276z"/><path fill="#FFF599" d="M1218.995 2338.81s-23.2-39.033-26.811-42.895c-3.622-3.855 8.538 20.889 8.425 30.891-.112 10.007-5.115-31.589 18.386 12.004z"/><path fill="#C10017" d="M913.017 2370.111c.165.277.352.545.545.81.214.302.431.577.675.854 0 0 38.056-8.262 54.058-1.184.004-.021.01-.033.031-.078.142-.443.645-1.996 1.126-4.092-.83-.35-1.696-.688-2.627-.973-.085 1.799-.315 3.353-.773 4.279 0 0 .004-.027.004-.098a49.365 49.365 0 0 0-.49-4.531c-18.285-4.808-52.463 2.611-52.463 2.611a14.764 14.764 0 0 1-1.277-1.703c-.37-.59-.691-1.185-.96-1.778.024.175.059.358.092.533.028.15.055.292.085.438l.12.501a9.608 9.608 0 0 0 .278.997c.057.19.118.373.173.561.055.15.122.305.183.46.012.045.035.081.051.118.061.162.124.321.197.48.063.142.122.288.195.431.108.224.22.435.346.655.069.121.13.248.203.373.151.248.317.497.488.745.057.085.108.179.175.265.037.049.08.085.11.134a9.94 9.94 0 0 1-.545-.808zm-2.115-5.695zm1.1 3.783zm113.845 89.6c-.775-1.379-1.544-2.762-2.317-4.133-10.247-18.32-20.499-36.459-29.027-51.208-.024-.054-.059-.114-.092-.175-.136-.229-.271-.456-.407-.688a1901.37 1901.37 0 0 0-2.886-4.982c-1.34-2.291-2.618-4.467-3.834-6.533a657.772 657.772 0 0 0-5.89-9.808.373.373 0 0 0-.065-.102 295.117 295.117 0 0 0-2.766-4.442c-.26-.398-.508-.785-.744-1.154a113.176 113.176 0 0 0-1.977-2.941c-1.115.834-2.146 1.473-2.979 1.709 0 0 .047-.033.102-.094a43.032 43.032 0 0 0 2.253-2.469c-.179-.24-.35-.461-.506-.644a10.833 10.833 0 0 0-1.188-1.232c-.974 1.249-1.92 2.266-2.753 2.741 0 0 .03-.04.073-.102.215-.374.938-1.623 1.763-3.34a14.59 14.59 0 0 0-2.012-1.252c-.742 1.598-1.511 2.929-2.292 3.641 2.048.91 3.749 2.059 4.944 3.51 4.942 6.033 26.045 42.996 47.083 80.581a852.97 852.97 0 0 1 2.355 4.223 8290.952 8290.952 0 0 1 16.249 29.194c1.179-.114 2.369-.244 3.573-.379a11692.096 11692.096 0 0 0-16.66-29.921z"/><path fill="#ED1C24" d="M961.132 2358.787c.98-.109 1.922-.162 2.833-.167a17.954 17.954 0 0 0-1.08-2.465c.307-.032.596-.045.901-.081.364.813.667 1.684.921 2.587l.014-.005a20.353 20.353 0 0 0-.976-2.692c-.344.017-.665.024-1.003.054-15.226 1.68-51.922 2.904-51.922 2.904s-.107.598-.148 1.562a.244.244 0 0 0-.002.065c-.016.329-.024.688-.02 1.09 6.884-.241 37.05-1.376 50.482-2.852zm11.878 1.606c.795.338 1.521.716 2.215 1.118.301-1.086.549-2.184.7-3.254.271.131.539.281.797.428a21.908 21.908 0 0 0-5.304-2.119 26.58 26.58 0 0 1 2.459.776 68.607 68.607 0 0 1-.867 3.051zm-2.504-.878a22.718 22.718 0 0 0-.022-3.178c-1.283-.268-2.676-.406-4.151-.443.108.854.211 1.826.303 2.859 1.382.147 2.674.417 3.87.762zm9.077 5.255a27.685 27.685 0 0 0 1.468-2.88c.22.211.45.428.651.639a25.02 25.02 0 0 1-1.627 2.733l.002.013a24.68 24.68 0 0 0 1.658-2.722 22.345 22.345 0 0 0-2.825-2.448 82.73 82.73 0 0 1-1.519 2.818 22.117 22.117 0 0 1 2.192 1.847zm54.106 90.498a1297.04 1297.04 0 0 0-2.16-3.982c-23.223-42.625-47.173-85.36-47.173-85.36s-.333-.602-1.007-1.488a76.212 76.212 0 0 1-2.04 2.204c.968 1.2 1.452 2.05 1.452 2.05s23.198 41.414 46.077 83.372c.738 1.338 1.468 2.692 2.194 4.035a4090.822 4090.822 0 0 1 16.732 31.008 164.08 164.08 0 0 0 2.878-.366 3713.937 3713.937 0 0 0-16.953-31.473z"/><path fill="#FF6470" d="M973.01 2360.393c-.686 2.226-1.511 4.597-2.415 6.558a14.59 14.59 0 0 1 2.012 1.252c.891-1.842 1.912-4.222 2.618-6.691a19.922 19.922 0 0 0-2.215-1.119zm-6.375-1.639c.181 2.173.283 4.602.189 6.695.932.285 1.798.623 2.627.973.468-1.98.917-4.441 1.054-6.906a22.326 22.326 0 0 0-3.87-.762zm-2.67-.134c-.911.005-1.853.058-2.833.167-13.432 1.477-43.598 2.611-50.482 2.852.01.765.085 1.659.228 2.607.269.594.58 1.18.948 1.762.375.581.793 1.143 1.277 1.703 0 0 34.179-7.419 52.463-2.611-.306-1.981-.8-4.32-1.601-6.48zm15.618 6.15a22.002 22.002 0 0 0-2.192-1.847c-1.182 2.104-2.542 4.275-3.867 5.979.436.387.834.802 1.188 1.232.157.183.328.403.506.644 1.328-1.558 2.996-3.684 4.365-6.008zm51.45 91.328c-.726-1.343-1.456-2.697-2.194-4.035-22.879-41.958-46.077-83.372-46.077-83.372s-.484-.85-1.452-2.05c-1.761 1.835-3.709 3.686-5.467 4.991a112.35 112.35 0 0 1 1.977 2.941c.236.369.484.756.744 1.154a300.27 300.27 0 0 1 2.766 4.442.358.358 0 0 1 .065.102 652.681 652.681 0 0 1 5.89 9.808c1.216 2.066 2.494 4.242 3.834 6.533.938 1.614 1.901 3.277 2.886 4.982l.407.688c.033.061.067.121.092.175 8.528 14.749 18.78 32.888 29.027 51.208.773 1.371 1.542 2.754 2.317 4.133a12191.982 12191.982 0 0 1 16.661 29.922c1.725-.183 3.476-.391 5.257-.614a4167.283 4167.283 0 0 0-16.733-31.008z"/><path fill="#C10017" d="M966.314 2355.886c-.815-.008-1.667 0-2.55.073-.006 0-.01 0-.018.004.38.834.702 1.757.976 2.692a32.131 32.131 0 0 1 .627 2.685c.057.301.105.613.159.915.01.062.014.126.024.183.044.293.089.566.128.842.006.09.021.168.021.236.041.269.067.529.089.777.019.094.026.183.041.28.019.204.035.407.049.603.006.032.01.053.008.077.016.109.028.216.03.325.01.203.039.395.047.59.002.113.014.228.022.346.006.175.024.342.031.5.002.127.008.236.016.35.002.139.008.273.016.399.002.142.008.272.017.39-.002.094-.004.18.004.261-.004.167.004.317.006.448 0 .027 0 .057.004.076-.006.334-.002.582-.004.691 0 .07-.004.098-.004.098.458-.927.688-2.48.773-4.279.093-2.094-.008-4.522-.189-6.695a76.87 76.87 0 0 0-.303-2.859c-.016-.004-.016-.004-.02-.008z"/><path fill="#FF97A9" d="M965.327 2361.236a26.724 26.724 0 0 0-.62-2.575 18.94 18.94 0 0 0-.921-2.587c-.305.036-.594.049-.901.081.417.769.771 1.606 1.08 2.465.802 2.16 1.296 4.499 1.601 6.479.352 2.278.463 4.084.49 4.531.002-.117-.002-.357.004-.691-.004-.016 0-.053-.004-.076-.002-.131-.01-.281-.006-.448-.008-.081-.006-.167-.004-.261a7.157 7.157 0 0 1-.017-.39 8.205 8.205 0 0 1-.016-.399 6.165 6.165 0 0 1-.016-.35c-.006-.158-.024-.325-.031-.5-.008-.118-.021-.232-.022-.346-.008-.195-.03-.387-.047-.59a2.55 2.55 0 0 0-.03-.325c.002-.024-.004-.054-.008-.077-.014-.195-.03-.398-.049-.603-.014-.098-.022-.187-.041-.28a13.06 13.06 0 0 0-.089-.777c0-.068-.014-.146-.021-.236-.039-.271-.083-.549-.128-.842-.01-.057-.014-.121-.024-.183-.053-.302-.102-.614-.159-.915a1.62 1.62 0 0 1-.021-.105z"/><path fill="#C10017" d="M971.417 2356.566c-.006.008-.006.008-.02.008.016 1.025-.067 2.087-.195 3.148-.041.309-.071.627-.11.939 0 0 .002.012-.01.021-.12.765-.258 1.521-.423 2.257-.008.041-.019.082-.029.127a29.265 29.265 0 0 1-.515 2.042c-.008.065-.02.118-.037.179-.122.443-.252.842-.382 1.262-.046.158-.095.35-.148.504-.02.081-.041.139-.069.224-.159.501-.315.964-.46 1.379-.035.11-.065.179-.1.28-.114.326-.22.623-.319.863-.136.354-.236.622-.283.744 0-.004.01-.017.008-.029a.39.39 0 0 0-.031.078h.008c.781-.712 1.55-2.043 2.292-3.641.903-1.961 1.729-4.332 2.415-6.558.329-1.069.624-2.106.866-3.051a26.462 26.462 0 0 0-2.458-.776z"/><path fill="#FF97A9" d="M970.483 2356.338c.083 1.025.087 2.1.022 3.178-.136 2.465-.585 4.926-1.054 6.906-.482 2.096-.984 3.648-1.126 4.092.049-.13.152-.373.274-.715.1-.24.206-.537.319-.863.035-.102.065-.17.1-.28.145-.415.301-.878.46-1.379.028-.085.049-.143.069-.224.053-.154.102-.346.148-.504.13-.42.26-.818.382-1.262.017-.061.029-.113.037-.179.191-.659.362-1.335.515-2.042.01-.045.021-.086.029-.127.165-.735.303-1.492.423-2.257.012-.009.01-.021.01-.021.039-.313.069-.631.107-.947.125-1.063.195-2.119.188-3.152-.307-.074-.589-.168-.903-.224z"/><path fill="#C10017" d="M978.907 2360.093a22.736 22.736 0 0 0-2.101-1.358c-.018-.008-.024-.021-.049-.024-.213 1.05-.545 2.11-.919 3.16-.078.204-.136.423-.218.635a45.378 45.378 0 0 1-.907 2.144c-.01.024-.026.057-.037.09a48.537 48.537 0 0 1-.944 1.92c-.024.045-.044.081-.063.13a59.653 59.653 0 0 1-.862 1.57.683.683 0 0 1-.051.077c-.022.045-.055.102-.081.15a37 37 0 0 1-.767 1.302 1.89 1.89 0 0 0-.122.195c-.201.325-.39.618-.535.851-.11.162-.165.256-.238.361-.008.017-.014.021-.022.029a4.597 4.597 0 0 1-.163.244l.015-.025c-.043.062-.073.102-.073.102.833-.476 1.779-1.492 2.753-2.741 1.324-1.704 2.685-3.876 3.867-5.979a82.73 82.73 0 0 0 1.519-2.818l-.002-.015z"/><path fill="#FF97A9" d="M976.721 2358.685a14.09 14.09 0 0 0-.797-.428 25.797 25.797 0 0 1-.7 3.254c-.706 2.47-1.727 4.85-2.618 6.691-.826 1.717-1.548 2.966-1.763 3.34.032-.045.089-.121.148-.219.008-.009.014-.013.022-.029.065-.098.153-.224.238-.361.145-.232.333-.525.535-.851a1.89 1.89 0 0 1 .122-.195c.234-.378.492-.813.767-1.302.026-.049.059-.105.081-.15a.683.683 0 0 0 .051-.077c.277-.488.567-1.013.862-1.57.019-.049.039-.085.063-.13.317-.614.633-1.249.944-1.92.01-.033.026-.065.037-.09.315-.691.621-1.416.907-2.144.082-.212.14-.431.213-.639.375-1.054.689-2.115.905-3.177-.002.001-.017.001-.017-.003z"/><path fill="#C10017" d="M983.341 2364.412c-.197-.235-.411-.512-.655-.797-.026-.028-.042-.049-.071-.086-.26-.301-.549-.617-.875-.959 0-.004-.004-.008-.006-.017a24.529 24.529 0 0 1-1.658 2.722c-.089.13-.173.264-.26.391h-.004a35.318 35.318 0 0 1-1.399 1.858.393.393 0 0 1-.063.073 38.261 38.261 0 0 1-1.396 1.639c-.024.037-.053.062-.081.098-.452.501-.887.965-1.296 1.396-.034.031-.061.064-.102.093-.044.053-.081.081-.126.138-.346.347-.677.68-.958.969-.057.045-.089.082-.138.122-.281.269-.537.517-.747.708-.267.248-.476.436-.557.517 0 0 .008-.021.014-.028-.055.061-.102.094-.102.094.833-.236 1.865-.875 2.979-1.709 1.757-1.306 3.706-3.156 5.467-4.991a76.212 76.212 0 0 0 2.04-2.204l-.006-.027z"/><path fill="#FF97A9" d="M981.051 2361.89c-.419.973-.925 1.94-1.468 2.88-1.369 2.323-3.037 4.45-4.365 6.009a43.431 43.431 0 0 1-2.253 2.469c.106-.09.293-.252.543-.488.209-.191.466-.439.747-.708.049-.04.081-.077.138-.122.281-.289.612-.622.958-.969.045-.057.082-.085.126-.138.041-.028.067-.062.102-.093.409-.432.844-.896 1.296-1.396.028-.036.057-.061.081-.098.458-.508.928-1.057 1.396-1.639a.393.393 0 0 0 .063-.073c.474-.59.948-1.212 1.399-1.858h.004c.102-.127.171-.261.258-.403a25.21 25.21 0 0 0 1.627-2.733c-.202-.212-.432-.429-.652-.64z"/></g><g><path fill="#F7E87F" d="M1221.33 2692.431c-2.998-39.574-69.759-71.217-151.733-71.217-81.968 0-148.735 31.643-151.728 71.217h303.461z"/></g></g></svg>