<svg xmlns="http://www.w3.org/2000/svg" id="图层_2" viewBox="0 0 3000 3000"><ellipse cx="1581.037" cy="1509.986" fill="#6475B2" rx="862.534" ry="814.014"/><ellipse cx="2202.146" cy="1905.68" fill="#6475B2" rx="416.888" ry="419.188"/><circle cx="693.398" cy="971.949" r="389.957" fill="#6475B2"/><linearGradient id="SVGID_1_" x1="1173.727" x2="842.798" y1="2441.51" y2="1868.324" gradientTransform="matrix(1 0 0 -1 1202.4 4080.1)" gradientUnits="userSpaceOnUse"><stop offset=".061" stop-color="#f4a841"/><stop offset=".184" stop-color="#f39d2b"/><stop offset=".452" stop-color="#f08600"/><stop offset=".508" stop-color="#e98101"/><stop offset=".59" stop-color="#d67505"/><stop offset=".687" stop-color="#b6600a"/><stop offset=".796" stop-color="#8a4312"/><stop offset=".914" stop-color="#531e1b"/><stop offset="1" stop-color="#250023"/></linearGradient><path fill="url(#SVGID_1_)" d="M2541.561 1925.187c0 182.717-148.167 330.883-330.898 330.883-182.701 0-330.884-148.166-330.884-330.883 0-104.071 47.97-196.801 123.082-257.475 56.815-45.894 129.095-73.395 207.802-73.395 97.998 0 185.985 42.546 246.582 110.27 52.413 58.52 84.316 135.865 84.316 220.6z"/><path fill="#D5B2A0" d="M2151.537 2067.31c1.734 7.902 4.896 16.16 3.625 25.1-20.545 3.703-85.185-46.063-79.762-6.104 3.348 24.666 39.603 58.705 58.01 73.578 27.33 22.002 56.304 35.218 90.854 40.377 30.755 4.556 72.278-.682 100.725 11.188-44.002 42.545-144.215 24.231-195.188 5.841-27.842-10.056-191.485-68.156-247.155-248.813v-.078c-1.904-14.099-2.851-28.522-2.851-43.241 0-19.243 1.627-38.146 4.817-56.443 12.209 8.165 23.799 17.616 32.306 22.604 6.366 3.673 70.914 35.232 39.104 40.625-6.615 35.264 33.947 83.541 52.851 111.478 4.987 7.313 26.741 53.188 36.627 46.774 9.621-6.274-5.517-20.9-7.654-27.609-3.083-9.946-2.912-20.699-2.324-31.793 23.304-4.309 42.966 19.337 64.113 19.072 36.704-.512-17.864-21.057-12.55-40.563 21.66 1.379 46.931 26.199 66.281 36.875 23.023 12.627 46.651 24.063 70.898 35.311 53.701 24.943 116.528 24.231 167.41 50.539-28.788 17.539-101.67-5.483-130.969-17.26-18.5-7.406-33.776-17.445-51.485-26.322-15.632-7.826-40.145-24.915-57.683-21.136z"/><path fill="#D5B2A0" d="M2493.856 2096.268a330.704 330.704 0 0 1-102.956 106.317h-.278c-2.387 0-4.881-.077-7.375-.248-28.445-1.828-45.117-18.654-70.373-30.679-19.956-9.45-141.564-28.879-135.554-55.002 27.269 4.556 57.931 15.199 85.695 21.134 13.495 2.852 29.051 3.348 42.979 6.444 12.798 2.759 25.533 12.722 38.502 15.199 27.749 5.501 63.679 0 86.021-15.043 17.71-12.021 40.066-38.484 63.339-48.122zm-372.05-214.046s-77.36.264-149.375-29.855c-45.272-18.918-42.438-53.36-61.093-68.313 9.869-20.885 21.832-40.563 35.668-58.705 4.478 4.215 8.783 8.676 12.891 12.984 18.824 19.506-18.825 33.479 25.704 77.28 40.855 40.193 136.205 66.609 136.205 66.609zm417.957 77.934c-4.044 37.898-14.455 73.998-30.166 106.984-7.841 2.742-15.648 5.5-23.645 7.9-34.287 10.411-75.112 20.391-103.39-4.462-13.34-11.774-94.201-42.639-111.307-47.44-17.182-4.989-46.312-44.234-46.312-44.234s83.108 26.881 116.11 33.141c72.607 13.944 135-23.457 198.71-51.889zm-82.722-229.15c-40.888 2.464-76.973-25.782-113.677-39.028-36.209-13.077-76.771-23.813-117.396-16.3-22.249 4.214-35.62 18.716-54.445 26.959-21.97 9.699-55.033 14.967-79.575 11.62-29.313-3.968-68.312-18.051-101.53-35.807-1.596 1.425-3.237 2.819-4.817 4.276 31.266 25.518 75.795 48.387 107.681 55.08 21.567 4.569 51.067.961 70.899-7.64 17.012-7.297 29.469-21.133 49.332-24.248 36.286-5.483 71.674 7.236 103.141 22.096 31.871 15.044 62.55 45.04 98.835 44.591 25.084-.342 51.642-11.496 72.186-28.433-3.579-5.469-7.344-10.813-11.232-16.065-6.463 1.473-12.971 2.494-19.402 2.899z"/><path fill="#D5B2A0" d="M2457.242 1704.589a127.709 127.709 0 0 1-15.974 2.045c-40.919 2.51-76.927-25.781-113.708-39.013-36.178-13.063-76.74-23.813-117.396-16.332-22.188 4.216-35.604 18.748-54.414 26.99-22.001 9.715-55.003 14.951-79.574 11.605-21.228-2.836-47.705-11.078-73.316-22.172 56.814-45.894 129.094-73.395 207.801-73.395 97.997.002 185.987 42.548 246.581 110.272zm78.213 156.841c-14.951-8.072-27.857-20.374-47.782-24.325-34.893-6.879-78.646 17.354-105.295-6.445-65.042-58.008-163.877-98.834-163.877-98.834 60.409.171 116.356 60.41 173.933 64.113 50.618 3.346 80.536-11.854 113.801-19.6 13.418 26.479 23.287 55.096 29.22 85.091z"/><path fill="#D5B2A0" d="M2541.561 1925.187c0 8.521-.355 17.012-.945 25.348a127.963 127.963 0 0 1-25.627-8.754c-23.209-10.83-37.37-36.008-64.453-40.299-30.43-4.727-51.314 2.571-76.91-19.863-9.979-8.677-12.627-17.431-19.274-27.842-7.716-12.117-20.698-21.305-28.245-33.514 17.262.944 38.239 23.365 55.607 29.811 20.963 7.746 41.508 5.422 64.531 4.214 22.945-1.191 41.243.171 60.067 10.814 11.343 6.384 21.413 17.384 33.267 24.171 1.285 11.776 1.982 23.813 1.982 35.914zm-231.367-122.292c-42.188-13.913-88.158-42.794-134.765-36.782-46.063 6.104-91.784 34.535-137.149 17.445 2.139 5.424 3.439 13.76 5.935 18.826-32.072-.697-51.408-36.35-70.14-58.181-7.051-8.165-15.123-16.423-22.343-25.021 6.538-8.15 13.417-16.067 20.622-23.629 4.214 5.253 8.754 10.318 14.178 14.27 12.643 9.281 27.424 15.215 42.375 20.359 31.793 11 65.831 16.687 101.498 16.687 35.141 0 69.103-6.196 101.081 6.354 14.688 5.842 29.718 10.489 42.888 19.43 12.44 8.411 21.797 24.741 35.82 30.242z"/><path fill="#D5B2A0" d="M2059.504 1807.016c33.886 4.726 60.256 6.725 94.063-2.618 33.481-9.25 57.435-5.206 90.716 3.099 27.408 6.85 58.598 17.399 80.087 35.45 22.171 18.639 27.347 48.17 55.746 60.285 19.072 8.135 39.185 4.912 57.638 17.121 17.089 11.326 26.975 30.367 48.664 32.754-14.053.03-30.955 2.168-44.002-2.572-11.512-4.168-20.668-13.976-32.754-18.359-14.531-5.254-28.244-4.942-42.9-9.188-13.294-3.842-25.054-15.493-38.362-16.795-2.866 16.719 9.28 25.983 20.947 33.668-22.946-5.825-42.623-15.958-62.688-29.144-16.996-11.219-54.925-17.756-61.447-38.858 18.67-3.719 35.402 7.686 53.111 7.887 6.368-22.807-33.854-22.946-47.457-27.067-19.305-5.841-35.619-18.498-54.848-22.496-28.121-5.826-101.854 29.282-114.374-8.119l-2.14-15.048z"/><path fill="#D5B2A0" d="M2422.429 1972.8c-6.353 6.368-36.162 8.182-47.162 10.334-16.857 3.425-34.382 2.139-51.485-2.076-33.699-8.335-62.998-17.538-98.835-19.336-16.159-.773-41.693-4.896-47.271 8.584-7.235 17.725 10.83 36.457 21.906 46.683 24.837 23.039 55.777 42.189 87.586 50.091 14.874 3.703 32.135 4.138 45.025 12.209-28.014 12.644-55.855-9.188-81.993-16.065-26.989-7.144-51.313-12.892-76.229-28.958-20.357-13.154-126.412-99.36-108.285-23.302-64.035-16.408-54.49-94.961-107.169-123.921-22.776-12.643-47.442-20.202-71.147-32.318 3.348-15.462 7.717-30.522 13.139-45.04 23.304 45.475 72.961 58.705 118.094 75.207 32.134 11.682 60.146 14.951 94.604 16.686 9.809.496 40.903 4.633 46.854-4.229 7.9-12.008-18.314-27.146-16.425-42.717 19.678-4.464 46.142 22.094 60.427 33.527 19.832 16.067 40.811 29.298 61.788 42.979 41.678 27.143 107.34 45.706 156.578 41.662z"/><path fill="#FFF" d="M2373.67 1621.51s81.621 81.915 122.818 57.761c41.182-24.139-49.858-103.344-40.578-130.535-29.965 7.824 47.782 74.092 11.063 97.719-36.75 23.644-93.302-24.945-93.303-24.945zm143.054 177.837s100.709 70.961 80.676 119.797c-39.06 95.115-335.189-78.77-335.189-78.77s231.646 100.6 271.403 45.039c27.639-38.671-16.89-86.066-16.89-86.066zm-225.867-250.611s-80.195-37.805-113.754-6.305c-43.383 40.717 148.183 230.188 148.183 230.188s-277.416-181.369-226.363-254.547c42.978-61.568 191.934 30.664 191.934 30.664zm-357.534 196.119s-41.444 11.017-34.983 43.43c14.595 73.146 211.983 165.317 211.983 165.317s-306.341-108.998-275.013-192.524c17.2-45.846 98.013-16.223 98.013-16.223zm554.35 434.988c-99.438 65.352-428.168-83.573-428.168-83.573s291.528 92.156 380.975 49.362c54.136-25.937 60.998-62.472 60.998-62.472s38.285 62.472-13.805 96.683zm-523.175-183.23s-41.461 11-34.985 43.43c14.596 73.129 211.985 165.332 211.985 165.332s-306.343-109.014-275.015-192.539c17.183-45.847 98.015-16.223 98.015-16.223z"/><linearGradient id="SVGID_2_" x1="-361.686" x2="-656.319" y1="3371.842" y2="2861.523" gradientTransform="matrix(1 0 0 -1 1202.4 4080.1)" gradientUnits="userSpaceOnUse"><stop offset="0" stop-color="#9a4594"/><stop offset=".011" stop-color="#964391"/><stop offset=".131" stop-color="#703178"/><stop offset=".25" stop-color="#522364"/><stop offset=".366" stop-color="#3c1856"/><stop offset="1" stop-color="#6c255c"/></linearGradient><path fill="url(#SVGID_2_)" d="M987.988 963.418c0 162.686-131.897 294.582-294.583 294.582-162.713 0-294.597-131.896-294.597-294.582 0-162.687 131.884-294.584 294.597-294.584 162.685 0 294.583 131.897 294.583 294.584z"/><g fill="#FFF"><path d="M504.537 1158.021c10.869 8.663 43.823 30.209 65.302 25.686 6.759-1.407 11.778-5.159 14.938-11.174 3.683-6.925 3.104-14.429 2.552-21.685-.578-7.752-1.145-15.09 3.365-21.437 6.111-8.606 19.422-15.312 29.92-18.125 24.801-6.676 75.012 5.876 102.53 32.084 10.233 9.738 21.546 25.603 17.159 45.769-2.263 10.373-7.933 17.519-16.897 21.133-13.422 5.462-33.34 2.262-48.485-7.753-8.084-5.353-11.986-11.2-10.979-16.497 1.007-5.435 6.966-10.235 14.801-11.945 3.655-.827 13.739-1.132 23.893 8.47 5.034 7.339 11.27 3.56 6.248-4.414-5.034-8-21.877-13.711-31.768-11.531-10.979 2.373-19.104 9.463-20.705 18.015-.909 4.911-.304 14.649 14.29 24.306 10.042 6.648 24.1 11.726 37.879 11.726 6.083 0 12.11-.993 17.711-3.283 11.271-4.579 18.705-13.794 21.491-26.622 4.069-18.704-2.621-36.995-19.366-52.914-29.739-28.332-82.487-41.271-109.8-33.933-10.938 2.924-26.457 10.235-34.153 21.077-6.098 8.607-5.395 18.097-4.76 26.457.496 6.456.952 12.552-1.683 17.546-2.083 3.945-5.256 6.318-9.725 7.229-15.698 3.282-43.936-12.14-58.997-24.167-43.687-34.816-79.494-77.356-102.489-120.504a294.467 294.467 0 0 0 8.897 30.318c22.608 34.483 52.829 67.478 88.831 96.168zm328.821-43.285c-12.304-24.001-27.615-53.879-53.631-67.452-10.373-5.407-20.787-6.014-27.201-1.655-3.655 2.511-7.78 7.726-6.621 18.457 1.27 12 11.862 20.414 21.201 27.863 4.579 3.614 8.896 7.063 11.711 10.512 15.229 18.703 24.084 49.188 22.567 77.658-.718 13.794-3.339 41.906-12.622 62.019a294.789 294.789 0 0 0 9.767-3.503c7.2-19.258 9.684-42.541 10.511-58.102 1.586-30.292-7.944-62.816-24.276-82.9-3.354-4.11-7.987-7.78-12.884-11.697-8.58-6.814-17.437-13.85-18.373-22.649-.594-5.601.51-9.408 3.324-11.311 3.959-2.731 11.752-1.85 19.365 2.097 23.851 12.415 38.54 41.105 50.35 64.142l1.559 3.091c14.276 27.78 23.739 56.527 32.043 84.942a412.714 412.714 0 0 0 6.607-4.688c-8.235-27.947-17.697-56.226-31.837-83.758l-1.56-3.066z"/><path d="M551.491 1109.605c10.152 1.848 9.242-8.166 1.229-12.47-8.015-4.331-69.136-68.335-88.103-98.6-29.862-47.644-39.561-100.612-42.664-149.773-2.304 5.462-4.373 10.979-6.358 16.58 4.276 45.493 15.063 93.439 42.526 137.25 17.655 28.14 46.981 62.873 81.467 96.558-29.229-8.552-61.948-31.45-97.51-68.308-29.035-30.071-37.354-72.087-39.63-113.636-2 12.608-3.118 25.491-3.435 38.597 5.269 29.712 15.973 57.99 37.561 80.362 42.127 43.674 104.766 71.564 114.917 73.44z"/><path d="M801.575 1009.296c-12.718-8.636-33.491-10.704-52.954-5.324-17.573 4.883-30.968 14.896-36.774 27.45-4.772 10.373-2.015 21.96 2.331 33.078-17.933-13.298-39.728-11.615-61.012-9.959-19.09 1.489-38.843 3.007-57.258-5.38-8.621-3.944-14.512-9.297-15.021-13.684-.304-2.731 1.462-5.573 5.241-8.497 7.654-5.876 26.926.579 36.182 3.697l1.89.634c4.621 1.519 9.561 4.138 14.814 6.897 10.553 5.545 21.396 11.283 32.69 10.125 8.911-.938 15.81-6.29 18.058-13.987 2.317-8.056-1.048-16.884-8.814-23.008-5.752-4.553-18.234-4.359-38.126-3.669-16.4.552-38.898 1.352-43.562-4.69-.579-.745-1.229-2.014-.4-4.828 5.188-17.573 57.08-15.063 81.412-11.063 1.835.275 6.015 1.406 10.842 2.676 30.638 8.083 58.776 14.511 66.611 4.221 3.007-3.944 2.565-9.325-1.324-16.056-13.132-22.705-53.424-20.001-80.073-18.236-4.056.305-7.738.552-10.896.662-6.125.221-12.746.855-19.781 1.518-23.726 2.207-50.637 4.718-67.88-6.62-18.304-12.057-34.194-56.693-39.464-82.736l.469.192-1.766-7.228c-1.2-5.021-2.441-9.987-3.669-14.925-7.933-31.919-15.422-62.072-15.05-96.281.109-10.594 1.67-20.829 4.207-30.706a270.307 270.307 0 0 0-9.38 6.98c-1.477 7.669-2.387 15.56-2.482 23.643-.372 35.202 7.228 65.797 15.284 98.213.578 2.317 1.158 4.662 1.736 7.007-23.229-13.104-41.299-41.988-43.81-69.328v-5.766l1.655-29.602-8.677 9.021c-.44 4.524-1.034 22.319-.635 26.954 0 39.533.469 80.061 10.125 117.055 5.56 21.271 17.021 40.307 27.313 56.473 1.654 2.593 3.82 5.49 6.151 8.552 7.312 9.684 16.305 21.602 12.869 31.34h-.234c-29.767 0-47.739-41.216-59.728-68.749-1.737-4-3.379-7.752-4.91-11.035-6.718-14.539-11.946-29.464-16.979-43.892-5.821-16.608-11.809-33.657-20.141-50.183-1.462 2.896-2.91 5.794-4.274 8.746 6.688 14.18 11.89 28.773 17.2 43.975 5.091 14.594 10.373 29.685 17.242 44.554 1.519 3.255 3.131 6.952 4.842 10.897 11.117 25.519 27.077 61.548 53.646 71.177 20.663 7.504 21.877-7.09 21.78-10.677-.346-11.09-8.69-22.125-15.215-30.761-2.181-2.896-4.234-5.601-5.793-8.056-10.456-16.387-21.077-34.071-26.36-54.293-7.035-26.926-9.063-56.059-9.644-85.329 4.938 11.173 11.904 21.602 20.25 30.265.275 18.207 4.884 39.313 11.933 54.265 3.228 6.842 6.647 13.849 10.801 20.995 31.864 54.733 24.76 80.667 20.814 85.633-1.063 1.379-3.613 1.931-6.289 2.51-4.181.911-9.904 2.181-11.739 8.111-2.552 8.275 7.159 21.16 18.208 34.789 1.642 2.014 3.049 3.724 3.973 4.993 13.697 18.512 32.691 21.463 52.805 24.553 8.316 1.297 16.911 2.621 25.256 5.159 8.648 2.621 17.78 4.055 26.607 5.435 5.325.828 10.608 1.684 15.698 2.76 4.317.911 8.828 2.373 13.587 3.89 9.573 3.09 19.478 6.262 29.547 5.71 8.139-.441 13.38-2.759 16.001-7.09 4.496-7.366-.139-17.711-5.504-29.712-5.725-12.801-12.222-27.284-7.229-38.1 4.854-10.539 16.47-19.008 31.863-23.312 17.396-4.8 35.686-3.146 46.609 4.304 22.636 15.367 41.52 53.659 52.817 76.529 11.973 24.277 22.429 57.3 31.159 98.158 2.25-1.85 4.429-3.809 6.621-5.711-8.703-39.616-19.063-71.84-30.938-95.841-11.599-23.561-31.033-62.957-55.354-79.482zm-78.196 76.777c2.026 5.353 3.116 9.959 1.628 12.415-1.505 2.455-6.223 3.229-9.904 3.421-8.649.47-17.863-2.482-26.761-5.352-4.745-1.519-9.669-3.09-14.359-4.111-5.214-1.076-10.635-1.958-16.111-2.813-8.552-1.353-17.422-2.731-25.573-5.214-8.855-2.677-17.726-4.057-26.306-5.38-19.298-2.979-35.987-5.573-47.81-21.547-.979-1.323-2.455-3.145-4.193-5.27-5.034-6.207-18.388-22.649-16.829-27.727.471-1.518 2.193-2.041 6.057-2.868 3.711-.801 7.918-1.71 10.704-5.271 5.711-7.228 5.063-18.4 4.594-26.566l-.069-.967c-1.297-22.814-13.158-44.996-24.636-66.432-3.862-7.2-7.49-13.987-10.621-20.636-5.697-12.057-9.684-28.443-10.856-43.728 5.464 4.469 11.325 8.193 17.532 10.926 4.193 25.436 21.05 77.77 43.687 92.694 19.505 12.801 47.822 10.152 72.805 7.835 6.925-.662 13.463-1.269 19.366-1.49 3.229-.138 6.979-.358 11.104-.635 23.257-1.572 62.212-4.192 72.942 14.401 2.083 3.586 2.771 6.399 1.876 7.587-5.407 7.063-45.424-3.504-58.569-6.98-5.435-1.435-9.365-2.482-11.587-2.841-3.297-.552-81.286-12.938-89.964 16.47-1.683 5.684-.014 9.464 1.684 11.643 7.063 9.132 27.863 8.415 49.893 7.669 13.035-.441 29.257-1.021 33.092 2.042 5.38 4.221 7.685 9.794 6.223 14.87-1.366 4.717-5.67 7.862-11.491 8.497-8.869.883-18.802-4.276-28.348-9.297-5.53-2.896-10.745-5.655-15.959-7.395l-1.876-.606c-12.098-4.056-32.359-10.87-43.258-2.511-6.068 4.662-8.828 9.85-8.193 15.421 1.188 10.401 14.002 17.298 19.449 19.809 20.194 9.214 40.954 7.587 61.024 6.014 28.064-2.176 52.302-4.052 69.613 23.923zM850.504 804.4c-4.649-2.4-9.256-6.262-14.167-10.345-7.56-6.345-15.395-12.884-24.539-14.953-14.47-3.283-20.953 2.042-23.52 5.49-4.828 6.511-4.222 16.607 1.669 27.036 15.146 26.926 67.99 45.382 110.311 47.672 3.311.166 6.511.249 9.629.249 23.008 0 41.354-4.828 53.548-13.877a291.709 291.709 0 0 0-3.283-7.257c-12.222 9.821-33.119 14.649-59.479 13.216-45.161-2.429-91.841-22.07-104.075-43.754-4.207-7.477-5.063-14.814-2.166-18.705 2.511-3.394 8.084-4.305 15.685-2.593 7.324 1.654 14.442 7.586 21.325 13.324 4.993 4.193 10.166 8.497 15.532 11.283 29.422 15.256 67.521 9.325 90.336-12.966-1.448-2.124-2.979-4.222-4.469-6.29-20.39 20.802-55.384 26.43-82.337 12.47zm-229.283-18.373c14.497 19.45 34.747 29.546 59.052 29.546 3.448 0 6.994-.221 10.607-.634 17.118-1.931 28.043-10.952 29.257-24.112 1.159-12.689-8.29-28.773-28.581-34.926-10.414-3.172-22.442-.965-34.029 1.159-21.655 4-34.099 5.325-37.92-13.628-3.778-18.649 3.021-39.81 18.208-56.556a81.61 81.61 0 0 1 19.532-15.752c-5.642.689-11.229 1.518-16.76 2.539-2.91 2.482-5.767 5.158-8.429 8.082-16.813 18.513-24.317 42.154-20.069 63.204 5.504 27.257 27.464 23.201 46.815 19.644 10.719-1.986 21.754-4 30.416-1.353 16.389 4.938 24.07 17.271 23.188 26.898-.841 9.27-9.256 15.697-22.498 17.215-26.125 2.952-47.837-5.987-62.651-25.905-18.788-25.242-24.415-66.403-15.021-101.22-2.855.828-5.711 1.627-8.525 2.538-8.538 36.167-2.207 76.914 17.408 103.261z"/><path d="M568.887 808.401c9.007 25.077 29.574 42.678 61.147 52.306a109.612 109.612 0 0 0 32.029 4.802c26.043 0 51.038-9.325 68.625-26.623 20.884-20.498 27.629-48.417 18.994-78.625-5.683-19.946-22.291-25.96-36.94-31.313-12.125-4.387-22.606-8.193-26.441-18.594-2.786-7.504-2.235-13.904 1.683-19.587 7.711-11.173 26.457-17.077 41.782-19.615-7.504-.91-15.104-1.627-22.802-1.958-10.483 3.891-19.96 9.519-25.271 17.242-5.366 7.752-6.235 16.691-2.565 26.567 5.063 13.738 18.25 18.511 31.01 23.146 14.18 5.159 27.588 10.042 32.193 26.208 7.821 27.396 1.78 52.639-16.994 71.066-22.842 22.429-59.368 30.264-93.066 19.974-29.133-8.911-48.044-24.912-56.184-47.589-12.635-35.202 2.027-81.771 20.582-120.614a235.384 235.384 0 0 0-10.401 3.834c-18.016 39.562-30.044 84.061-17.381 119.373z"/><path d="M741.448 711.181c-1.654 12.689 4.994 25.491 10.856 36.773 2.662 5.104 5.159 9.959 6.8 14.456 3.354 9.188 4.056 20.001 4.76 30.457 1.008 15.201 2.041 30.898 10.924 43.286 15.299 21.38 48.707 28.415 62.377 30.43 9.602 1.435 19.561 3.365 30.112 5.379 22.968 4.47 47.147 9.132 70.252 9.132 12.87 0 25.382-1.601 37.175-5.38-.771-2.482-1.668-4.938-2.523-7.421-31.45 10.015-68.873 2.842-103.454-3.835-10.636-2.041-20.678-4-30.43-5.436-12.704-1.902-43.699-8.332-57.286-27.312-7.602-10.622-8.538-24.581-9.519-39.368-.73-10.98-1.489-22.346-5.2-32.555-1.793-4.966-4.429-10.015-7.188-15.366-5.613-10.787-11.407-21.96-10.069-32.25 1.959-14.925 16.235-23.753 30.733-30.431-3.602-1.104-7.242-2.124-10.925-3.117-13.228 7.123-25.339 16.943-27.395 32.558z"/><path d="M934.937 914.448c-30.649 2.731-49.812-10.704-74.103-27.753-2.62-1.82-5.282-3.697-8.014-5.572-5.779-4-50.169-28.885-65.646-16.525-6.001 4.8-6.442 13.684-1.324 26.4 4.883 12.111 17.256 17.077 28.167 21.437 3.986 1.6 7.752 3.09 10.925 4.854 7.752 4.249 14.595 9.904 21.822 15.863 4.399 3.643 8.952 7.421 13.697 10.814 22.015 15.697 45.532 23.588 70.142 23.588 6.139 0 12.359-.469 18.622-1.462 17.271-2.731 29.367-10.787 38.099-21.463-.248-3.974-.522-7.917-.924-11.835-7.986 12.91-19.794 22.814-38.361 25.738-29.752 4.69-56.955-2.124-83.121-20.801-4.524-3.229-8.967-6.896-13.271-10.456-7.2-5.959-14.649-12.111-23.021-16.718-3.601-1.959-7.56-3.56-11.767-5.214-9.959-4-20.264-8.111-23.919-17.216-2.083-5.187-4.993-14.345-.979-17.545 8.925-7.146 44.514 8.553 56.514 16.828 2.718 1.876 5.366 3.726 7.974 5.545 24.554 17.242 45.781 32.084 79.178 29.105 13.187-1.159 33.547-9.131 45.533-21.656-.703-3.145-1.394-6.29-2.18-9.38-9.007 12.913-30.775 22.238-44.043 23.424zM766.223 719.043c.386 8.084 6.635 15.892 19.656 24.526 14.772 9.767 31.837 16.498 48.334 23.008 8.249 3.255 16.787 6.621 24.884 10.318.29.138 22.623 9.325 37.52 9.325 4.718 0 8.69-.911 10.98-3.338 3.917-4.139 4.041-8.083 3.462-10.704-2.083-9.214-15.891-15.726-30.539-21.437l-2.635-1.048c-3.904-1.6-8.787-3.255-14.139-5.075-23.134-7.836-54.805-18.539-52.805-42.183.221-2.565 1.365-5.214 2.883-7.835-2.345-1.048-4.688-2.152-7.104-3.145-1.85 3.365-3.104 6.842-3.395 10.346-2.523 29.602 33.878 41.906 57.948 50.072 5.187 1.737 9.892 3.338 13.67 4.91l2.828 1.104c6 2.345 24.346 9.463 25.81 15.974.108.497.398 1.71-1.545 3.752-3.561 3.808-29.492-2.979-39.77-7.669-8.29-3.78-16.911-7.2-25.243-10.456-16.125-6.373-32.815-12.966-46.913-22.291-10.523-6.979-16.001-13.214-16.234-18.539-.346-6.869 8.248-13.82 17.339-21.159 3.297-2.677 6.663-5.38 9.835-8.276-2.689-1.048-5.379-2.097-8.11-3.09a340.66 340.66 0 0 1-6.538 5.406c-10.634 8.607-20.69 16.719-20.179 27.504z"/><path d="M547.574 835.052c2.234 8.58 2.305 18.098 2.387 28.193.109 15.396.221 31.313 8.594 44.142 14.801 22.677 45.244 29.74 70.129 33.381 22.015 3.2 40.111-3.669 57.617-10.263 8.979-3.394 18.305-6.925 27.892-8.911 12.896-2.677 29.822-.414 39.326 5.242 7.187 4.275 9.435 11.256 11.821 18.677 2.262 7.035 4.606 14.317 11.256 19.367 4.331 3.282 8.18 4.91 11.56 4.91 2 0 3.82-.578 5.462-1.71 8.483-6.014 5.809-25.381 3.297-33.271-.289-.91-.73-1.683-1.076-2.538 16.815 5.876 27.063 16.029 33.548 32.857 1.89 4.91 4.151 12.47 6.565 20.47 4.855 16.167 10.346 34.484 16.264 43.671 18.719 29.133 72.114 77.881 78.295 79.314 6.18 1.463 15.353 2.677 11.697-3.199-3.656-5.876-18.664-26.981-28.348-39.037-20.898-26.07-39.161-48.858-39.645-84.888 5.56 6.676 10.429 14.317 15.531 22.263 12.885 20.167 26.195 41.022 52.775 47.81 7.835 1.986 18.622 3.834 22.016-2.952 5.035-10.068-14.979-26.649-17.298-28.497l-1.448-1.188c-11.477-9.242-22.388-18.015-21.959-31.919 9.063-.745 16.346 3.255 24 7.449 9.256 5.048 19.739 10.787 33.811 7.476 1.406-.303 2.635-.828 3.931-1.296.359-2.896.718-5.821 1.009-8.773-2.057 1.104-4.235 2.043-6.678 2.621-11.229 2.648-19.572-1.902-28.4-6.73-9.256-5.076-29.74-8.442-31.905-7.891-2.181.553-3.118 3.256-3.118 3.256-2.703 19.862 11.768 31.505 24.525 41.796l1.436 1.159c11.035 8.91 15.877 17.324 15.297 19.063-.014.028-2.234 1.821-13.324-.993-23.644-6.042-35.589-24.719-48.237-44.499-6.813-10.677-13.876-21.712-22.884-30.402 0 0-6.332-4.718-6.471 2.511-.605 33.575 18.43 71.148 41.064 99.398 7.159 8.911 14.471 18.042 21.243 28.001-30.126-15.201-54.32-48.831-70.487-73.99-5.324-8.305-10.896-26.844-15.38-41.74-2.428-8.139-4.745-15.809-6.731-20.995-8.166-21.188-22.222-33.381-45.271-39.478-4.263-6.926-9.629-12.967-15.325-19.146-24.484-26.512-38.898-26.125-69.813-11.449-32.524 15.478-64.113 18.925-88.942 9.794-20.635-7.587-36.472-23.422-47.105-47.12-12.704-28.305-15.366-53.271-15.436-82.102-.042-14.511 3.421-28.939 6.759-42.898 2.565-10.787 5.173-21.795 6.249-32.996a307.225 307.225 0 0 0-8.222 4.11c-1.229 8.911-3.255 17.851-5.477 27.091-3.448 14.401-7.008 29.299-6.953 44.692.016 10.483.429 20.029 1.354 28.912-4.801-29.05-6.621-64.804 3.297-96.64a297.47 297.47 0 0 0-9.366 5.379c-11.301 44.72-2.487 94.571 5.292 124.506zm15.533 23.089c11.491 25.629 28.788 42.844 51.424 51.175 26.774 9.85 60.474 6.263 94.875-10.068 28.829-13.711 39.011-13.987 60.9 9.711 8.483 9.187 15.808 17.132 19.312 28.14 3.021 9.518 2.801 22.429-.428 24.719-1.255.883-4.316-.275-7.959-3.035-4.73-3.586-6.523-9.158-8.607-15.614-2.594-8.057-5.518-17.16-15.172-22.927-8.746-5.187-20.732-7.394-31.521-7.394-4.801 0-9.38.441-13.298 1.242-10.18 2.124-19.78 5.737-29.036 9.242-17.353 6.565-33.754 12.772-53.81 9.849-23.284-3.394-51.7-9.876-64.818-29.988-7.146-10.925-7.255-25.05-7.365-40.03-.042-7.2-.109-14.565-1.021-21.656 1.862 5.599 4.028 11.089 6.524 16.634z"/></g><path fill="#FFF" d="M900.119 786.744c-6.275 9.242-37.615-1.021-70.018-22.953-32.416-21.904-53.604-47.202-47.341-56.444 6.263-9.271 37.616.993 70.03 22.926 32.392 21.932 53.579 47.201 47.329 56.471z"/></svg>