<svg xmlns="http://www.w3.org/2000/svg" id="图层_2" viewBox="0 0 3000 3000"><linearGradient id="SVGID_1_" x1="3561.801" x2="3596.013" y1="-1815.668" y2="-1815.668" gradientTransform="scale(-1 1) rotate(38.023 -3956.927 -6428.722)" gradientUnits="userSpaceOnUse"><stop offset=".006" stop-color="#f79855"/><stop offset="1" stop-color="#fff100"/></linearGradient><path fill="url(#SVGID_1_)" d="M856.422 1838.719c7.513 1.302 17.955.94 23.309 3.422-4.822-1.143-7.22 1.229-10.927 1.805 1.555 3.079.794 6.447 3.114 9.645-3.215-.568-6.974 1.255-11.463-.967.12 2.313-2.16 7.459-2.056 9.537-.364-.066-4.593-3.037-5.114-3.393-.399.601.057 3.237-1.216 3.541-.497-6.84-1.356-13.354-1.462-20.248 2.542-.011 4.762-1.757 6.833-2.044"/><path fill="#1C3F94" d="M850.434 1700.506c37.32 46.017 37.717 107.518.918 137.367-36.814 29.846-96.898 16.743-134.223-29.266-37.317-46.017-37.717-107.52-.917-137.37 36.805-29.847 96.897-16.743 134.222 29.269z"/><path fill="#FFF" d="M861.598 1853.757c3.743 4.981 11.579 10.241 16.306 18.308 4.688 8.004.539 18.326 7.825 26.154 5.383 5.775 16.421 4.648 21.561 10.763 4.47 5.281 5.402 18.575 9.101 24.979 11.349 19.756 33.683 26.841 47.646 45.534 7.719 10.339 6.864 19.896 12.521 29.554 4.308 7.371 12.771 11.184 18.498 18.656 2.648-1.458 5.033-3.923 6.719-6.358-19.382 2.092-25.127-31.366-33.693-43.415-13.562-19.077-36.416-23.491-46.375-43.39-4.485-8.941-1.571-17.793-8.778-25.441-6.276-6.651-17.206-5.909-23.382-13.777-11.093-14.135-5.42-35.564-26.603-42.538-.211 1.699-2.079 4.931-1.463 3.855"/><linearGradient id="SVGID_2_" x1="3739.757" x2="3773.983" y1="-1803.507" y2="-1803.507" gradientTransform="scale(-1 1) rotate(38.023 -3956.927 -6428.722)" gradientUnits="userSpaceOnUse"><stop offset=".006" stop-color="#f79855"/><stop offset="1" stop-color="#fff100"/></linearGradient><path fill="url(#SVGID_2_)" d="M723.719 1957.918c7.509 1.312 17.963.938 23.31 3.424-4.823-1.145-7.21 1.224-10.942 1.814 1.57 3.066.791 6.438 3.138 9.635-3.229-.574-6.978 1.243-11.478-.964.131 2.298-2.151 7.452-2.063 9.546-.356-.084-4.586-3.057-5.086-3.418-.422.609.027 3.252-1.239 3.566-.494-6.848-1.337-13.38-1.45-20.27 2.522.007 4.749-1.752 6.827-2.038"/><path fill="#FFF" d="M717.717 1819.719c37.331 45.993 37.733 107.508.925 137.361-36.817 29.854-96.909 16.748-134.219-29.271-37.324-46.01-37.727-107.521-.915-137.367 36.803-29.844 96.908-16.761 134.209 29.277zm11.177 153.227c3.737 4.999 11.573 10.259 16.295 18.313 4.688 8.005.539 18.334 7.837 26.158 5.375 5.781 16.421 4.648 21.559 10.754 4.468 5.289 5.404 18.584 9.09 25.001 11.355 19.729 33.695 26.827 47.652 45.528 7.707 10.343 6.864 19.895 12.514 29.549 4.322 7.369 12.765 11.199 18.5 18.649 2.66-1.464 5.047-3.92 6.715-6.336-19.377 2.066-25.11-31.387-33.688-43.446-13.552-19.073-36.422-23.468-46.369-43.379-4.484-8.94-1.563-17.799-8.789-25.43-6.271-6.646-17.207-5.909-23.387-13.777-11.08-14.147-5.411-35.563-26.594-42.545-.205 1.692-2.064 4.918-1.441 3.848"/><linearGradient id="SVGID_3_" x1="3890.658" x2="3924.863" y1="-1694.649" y2="-1694.649" gradientTransform="scale(-1 1) rotate(38.023 -3956.927 -6428.722)" gradientUnits="userSpaceOnUse"><stop offset=".006" stop-color="#f79855"/><stop offset="1" stop-color="#fff100"/></linearGradient><path fill="url(#SVGID_3_)" d="M671.91 2136.635c7.515 1.302 17.967.93 23.299 3.427-4.819-1.142-7.222 1.219-10.932 1.803 1.563 3.064.797 6.44 3.141 9.627-3.235-.561-6.987 1.259-11.474-.962.125 2.313-2.167 7.465-2.065 9.553-.358-.074-4.594-3.05-5.098-3.401-.416.594.037 3.229-1.229 3.543-.498-6.851-1.346-13.365-1.46-20.265 2.532.012 4.76-1.748 6.833-2.035"/><path fill="#C13665" d="M665.911 1998.427c37.328 46.001 37.727 107.512.919 137.357-36.808 29.85-96.901 16.751-134.217-29.271-37.315-46.018-37.728-107.517-.926-137.363 36.835-29.864 96.919-16.756 134.224 29.277z"/><path fill="#FFF" d="M677.084 2151.66c3.742 4.993 11.571 10.258 16.31 18.313 4.674 7.998.524 18.337 7.826 26.162 5.379 5.783 16.421 4.649 21.56 10.764 4.465 5.271 5.396 18.59 9.08 24.997 11.358 19.729 33.692 26.815 47.665 45.517 7.717 10.338 6.871 19.89 12.511 29.55 4.313 7.382 12.771 11.189 18.515 18.646 2.646-1.451 5.029-3.916 6.704-6.339-19.394 2.086-25.115-31.372-33.685-43.429-13.56-19.077-36.426-23.479-46.385-43.385-4.468-8.963-1.579-17.787-8.779-25.443-6.27-6.647-17.206-5.899-23.375-13.774-11.094-14.136-5.415-35.573-26.594-42.543-.219 1.705-2.089 4.935-1.478 3.866"/><linearGradient id="SVGID_4_" x1="3632.255" x2="3666.49" y1="-1619.716" y2="-1619.716" gradientTransform="scale(-1 1) rotate(38.023 -3956.927 -6428.722)" gradientUnits="userSpaceOnUse"><stop offset=".006" stop-color="#f79855"/><stop offset="1" stop-color="#fff100"/></linearGradient><path fill="url(#SVGID_4_)" d="M921.619 2036.509c7.512 1.302 17.965.929 23.318 3.407-4.824-1.143-7.222 1.22-10.938 1.817 1.557 3.069.797 6.431 3.121 9.627-3.226-.563-6.981 1.271-11.468-.95.12 2.304-2.153 7.453-2.063 9.535-.363-.065-4.591-3.038-5.099-3.395-.398.593.045 3.232-1.231 3.552-.49-6.864-1.333-13.378-1.459-20.265 2.539-.015 4.757-1.751 6.843-2.049"/><path fill="#C13665" d="M915.638 1898.287c37.307 46.021 37.703 107.521.912 137.376-36.813 29.837-96.912 16.746-134.225-29.266-37.313-46.022-37.721-107.53-.915-137.368 36.812-29.852 96.9-16.753 134.228 29.258z"/><path fill="#FFF" d="M926.801 2051.53c3.731 4.987 11.588 10.246 16.302 18.309 4.671 7.996.524 18.336 7.831 26.164 5.376 5.782 16.406 4.651 21.561 10.764 4.456 5.274 5.396 18.581 9.086 24.99 11.357 19.73 33.687 26.832 47.648 45.526 7.729 10.334 6.865 19.896 12.516 29.541 4.32 7.386 12.784 11.189 18.506 18.651 2.656-1.455 5.027-3.907 6.711-6.335-19.385 2.08-25.118-31.373-33.681-43.436-13.571-19.074-36.419-23.484-46.381-43.385-4.485-8.941-1.573-17.785-8.771-25.431-6.281-6.662-17.217-5.915-23.392-13.791-11.098-14.128-5.422-35.55-26.604-42.53-.216 1.698-2.071 4.936-1.45 3.846"/><linearGradient id="SVGID_5_" x1="3760.724" x2="3794.951" y1="-1561.912" y2="-1561.912" gradientTransform="scale(-1 1) rotate(38.023 -3956.927 -6428.722)" gradientUnits="userSpaceOnUse"><stop offset=".006" stop-color="#f79855"/><stop offset="1" stop-color="#fff100"/></linearGradient><path fill="url(#SVGID_5_)" d="M856.029 2161.177c7.517 1.305 17.962.938 23.31 3.414-4.834-1.119-7.219 1.229-10.955 1.837 1.574 3.043.804 6.425 3.139 9.606-3.206-.563-6.964 1.26-11.471-.941.13 2.289-2.146 7.438-2.068 9.543-.341-.096-4.566-3.065-5.075-3.422-.418.609.026 3.254-1.239 3.559-.502-6.852-1.332-13.379-1.457-20.271 2.525.019 4.769-1.756 6.834-2.034"/><path fill="#F58921" d="M850.014 2022.981c37.332 46.003 37.757 107.49.925 137.354-36.798 29.858-96.905 16.76-134.204-29.269-37.325-46.009-37.729-107.514-.922-137.37 36.81-29.844 96.906-16.748 134.201 29.285z"/><path fill="#FFF" d="M861.198 2176.207c3.743 4.991 11.568 10.246 16.303 18.314 4.688 7.996.524 18.338 7.832 26.165 5.381 5.769 16.427 4.636 21.568 10.75 4.451 5.281 5.387 18.585 9.065 25 11.368 19.736 33.711 26.815 47.668 45.524 7.708 10.344 6.855 19.893 12.504 29.547 4.327 7.379 12.776 11.193 18.506 18.65 2.668-1.46 5.046-3.919 6.724-6.35-19.371 2.076-25.128-31.367-33.688-43.421-13.564-19.079-36.424-23.495-46.387-43.386-4.471-8.955-1.563-17.8-8.784-25.444-6.271-6.642-17.206-5.901-23.368-13.771-11.1-14.146-5.419-35.564-26.607-42.53-.217 1.688-2.063 4.906-1.453 3.842"/><linearGradient id="SVGID_6_" x1="4244.774" x2="4278.991" y1="-919.374" y2="-919.374" gradientTransform="matrix(-.9057 .4242 .4242 .9057 5264.705 1204.395)" gradientUnits="userSpaceOnUse"><stop offset=".006" stop-color="#f79855"/><stop offset="1" stop-color="#fff100"/></linearGradient><path fill="url(#SVGID_6_)" d="M1011.274 2170.011c7.039 2.94 17.298 4.933 21.955 8.55-4.438-2.198-7.313-.424-11.055-.688.82 3.354-.665 6.451.876 10.102-3-1.277-7.08-.331-10.941-3.521-.413 2.285-3.768 6.787-4.146 8.848-.332-.153-3.786-4.004-4.229-4.447-.517.485-.671 3.173-1.983 3.179 1.058-6.795 1.683-13.327 3.114-20.075 2.476.563 5.03-.648 7.119-.452"/><path fill="#FFF" d="M1036.365 2033.944c26.074 53.208 12.701 113.246-29.843 134.103-42.559 20.867-98.189-5.348-124.27-58.541-26.078-53.199-12.728-113.222 29.823-134.092 42.571-20.862 98.206 5.346 124.29 58.53zm-23.408 151.874c2.539 5.703 8.988 12.575 11.807 21.494 2.761 8.841-3.587 17.99 1.762 27.255 3.968 6.817 14.96 8.2 18.625 15.302 3.155 6.149 1.095 19.322 3.266 26.385 6.645 21.789 26.826 33.69 36.256 55.033 5.218 11.816 2.239 20.926 5.603 31.604 2.546 8.153 9.937 13.769 13.843 22.333 2.936-.851 5.797-2.693 7.984-4.704-19.378-2.289-17.482-36.184-23.125-49.865-8.964-21.616-30.237-31.031-35.507-52.646-2.368-9.725 2.444-17.694-2.854-26.767-4.656-7.865-15.453-9.613-19.719-18.647-7.655-16.271 2.666-35.879-16.405-47.433-.597 1.621-3.138 4.353-2.288 3.452"/><linearGradient id="SVGID_7_" x1="4387.69" x2="4421.909" y1="-765.731" y2="-765.731" gradientTransform="matrix(-.9057 .4242 .4242 .9057 5264.705 1204.395)" gradientUnits="userSpaceOnUse"><stop offset=".006" stop-color="#f79855"/><stop offset="1" stop-color="#fff100"/></linearGradient><path fill="url(#SVGID_7_)" d="M947.008 2369.81c7.045 2.936 17.294 4.923 21.969 8.538-4.439-2.199-7.318-.435-11.064-.687.83 3.351-.662 6.455.885 10.088-3-1.275-7.088-.316-10.956-3.5-.402 2.271-3.771 6.776-4.136 8.822-.345-.132-3.797-3.979-4.23-4.432-.512.48-.67 3.157-1.979 3.184 1.056-6.798 1.676-13.321 3.108-20.09 2.471.588 5.022-.625 7.11-.445"/><path fill="#FFF100" d="M972.099 2233.752c26.069 53.198 12.707 113.224-29.837 134.077-42.555 20.87-98.201-5.342-124.281-58.534-26.066-53.195-12.729-113.223 29.836-134.097 42.558-20.857 98.194 5.357 124.282 58.554z"/><path fill="#FFF" d="M948.698 2385.612c2.533 5.699 9.002 12.57 11.793 21.496 2.775 8.829-3.583 17.992 1.781 27.253 3.953 6.83 14.962 8.193 18.617 15.299 3.162 6.154 1.095 19.323 3.261 26.387 6.656 21.793 26.827 33.681 36.265 55.033 5.207 11.813 2.235 20.928 5.59 31.602 2.552 8.164 9.943 13.771 13.86 22.331 2.927-.844 5.778-2.69 7.958-4.696-19.354-2.308-17.465-36.199-23.109-49.867-8.963-21.616-30.232-31.028-35.5-52.651-2.364-9.729 2.438-17.688-2.854-26.765-4.648-7.88-15.468-9.609-19.726-18.65-7.646-16.266 2.665-35.871-16.408-47.416-.597 1.612-3.134 4.344-2.289 3.436"/><path fill="#00A4E3" d="M1416.072 2366.83l-18.958 126.795-11.545 67.357-.374-11.959-53.81-97.199 3.188-27.59 23.591-90.248-2.152-69.746c-1.401-1.205-2.566-2.658-3.91-3.832l8.313-.129 55.657 106.551z"/><path fill="#45457F" d="M241.869 1620.39l84.735-44.646 294.343 152.646-1.797 5.176c-.208-.088-.227-.375-.227-.375l-113.683 18.111-220.326-89.802-25.329 66.775-72.811 43.844c-2.508-1.063-5.046-2.021-7.426-3.139l62.521-148.59z"/><linearGradient id="SVGID_8_" x1="5468.567" x2="5519.979" y1="1008.095" y2="1008.095" gradientTransform="scale(-1 1) rotate(-22.824 4470.482 17103.356)" gradientUnits="userSpaceOnUse"><stop offset="0" stop-color="#fff"/><stop offset="1" stop-color="#e8e2c4"/></linearGradient><path fill="url(#SVGID_8_)" d="M842.06 1884.002l-36.913-21.27 2.152-5.648c15.443 6.391 31.401 12.463 48.289 17.797a248.457 248.457 0 0 1-13.528 9.121z"/><path fill="#C13665" d="M1014.141 1689.427c-18.743 30.475-84.521 132.307-158.553 185.453-16.888-5.334-32.846-11.406-48.289-17.797l75.1-190.98c49.049 22.862 114.508 23.512 131.742 23.324z"/><path fill="#AA358F" d="M716.312 1358.38c75.987-1.402 161.938-33.99 202.792-51.237-3.635 16.027-7.229 30.938-10.902 44.038-85.733 86.791-265.874 107.981-265.874 107.981-115.497 8.699-172.141 102.521-172.141 102.521-.029-53.265 13.805-97.653 30.099-131.554 90.87-71.838 216.026-71.749 216.026-71.749z"/><linearGradient id="SVGID_9_" x1="4578.777" x2="4612.89" y1="1455.403" y2="1455.403" gradientTransform="scale(-1 1) rotate(-22.824 4470.482 17103.356)" gradientUnits="userSpaceOnUse"><stop offset="0" stop-color="#58574f"/><stop offset="1" stop-color="#211d15"/></linearGradient><path fill="url(#SVGID_9_)" d="M1521.557 2586.312l-36.873 87.6-14.793 28.213c-8.936-5.717-17.281-13.271-24.982-21.627l50.381-119.684c12.472 17.381 26.267 25.498 26.267 25.498z"/><linearGradient id="SVGID_10_" x1="5971.68" x2="6059.146" y1="1276.26" y2="1276.26" gradientTransform="scale(-1 1) rotate(-22.824 4470.482 17103.356)" gradientUnits="userSpaceOnUse"><stop offset="0" stop-color="#58574f"/><stop offset="1" stop-color="#211d15"/></linearGradient><path fill="url(#SVGID_10_)" d="M238.205 1854.023l49.195 26.326-27.114 112.032-44.637-64.563-15.602-17.785 29.446-69.975 8.712 13.965z"/><path fill="#585889" d="M735.608 887.322c-1.382-5.846-2.864-11.208-2.883-17.044 27.166-2.395 52.357-27.708 79.869-23.675 6.229 19.35 9.381 39.406 24.668 52.604 19.434 16.946 45.109 7.102 65.244 16.563 49.977 23.463 10.339 85.019 38.769 120.366 14.635 18.153 34.493 25.167 40.933 48.832 5.975 21.844-3.832 44.771-16.098 62.696-15.681 23.195-19.79 25.916-14.732 55.271 4.642 26.938-.179 34.271-12.284 57.008-9.392 17.671-8.117 38.636-24.905 51.656-17.656 13.326-59.27 20.046-80.6 26.277 130.594-287.71-97.981-450.554-97.981-450.554z"/><path fill="#285177" d="M953.133 1509.209c37.13 54.68 167.399 88.135 167.399 88.135 71.188 21.391 135.841-23.037 135.841-23.037 39.814 11.375 10.861 49.178 5.688 55.518-29.604 10.447-90.801 30.453-114.135 24.865 0 0-24.313 98.779-129.154 34.502 0 0-209.221 8.889-192.749-115.656 57.374-56.485 101.473-65.71 127.11-64.327z"/><path fill="#FFF" d="M844.726 1518.671l53.858-99.066 2.023 4.978c54.539-.06 43.352 46.809 43.352 46.809-.572 3.199-.811 6.162-.604 9.144-21.851 2.287-56.66 10.868-98.629 38.135z"/><path fill="#0081C6" d="M844.726 1518.671c41.969-27.267 76.778-35.848 98.631-38.139-.079 10.151 3.565 19.71 9.776 28.677-25.635-1.383-69.736 7.842-127.11 64.324 1.896-14.188 6.616-30.078 14.931-48.031l3.772-6.831zm213.438 279.133s-53.287 15.297-114.867-8.709c34.146-41.584 60.236-82.367 70.844-99.67 2.785.029 4.631-.236 4.631-.236 104.843 64.277 129.154-34.502 129.154-34.502 1.679.453 3.692.721 5.826.789-12.441 43.293-41.217 120.19-95.588 142.328z"/><path fill="#FFF" d="M1058.164 1797.804c54.369-22.141 83.146-99.035 95.588-142.328 5.521.405 11.987-.207 19.346-1.086-8.403 64.76-51.281 239.844-265.469 174.846 12.561-12.936 24.5-26.643 35.668-40.141 61.58 24.006 114.865 8.709 114.867 8.709z"/><path fill="#0081C6" d="M825.213 1592.248c2.134 36.705 26.307 59.637 57.187 73.854l-29.477 74.813c-26.169-24.679-71.397-81.212-27.71-148.667z"/><path fill="#FFF" d="M864.14 1482.941l-23.188 42.563c-12.265 26.324-16.847 48.27-15.741 66.744-43.688 67.455 1.543 123.988 27.711 148.666l-17.588 44.992c-42.719-32.074-145.981-136.48 28.806-302.965z"/><path fill="#7ABECE" d="M1173.098 1654.39c28.42-4.029 67.199-16.877 88.963-24.568-.523.553-.85.928-.85.928 177.986 40.586 226.177 198.408 226.177 198.408 14.407 29.033 13.213 69.855 5.096 111.301L1112.9 1795.316c42.167-44.033 55.824-107.332 60.198-140.926z"/><path fill="#AA358F" d="M1112.901 1795.316l379.584 145.143c-3.455 17.488-7.959 35.227-13.311 52.021l-422.02-159.945c22.676-8.609 41.014-21.655 55.747-37.219z"/><path fill="#7ABECE" d="M907.629 1829.236c63.803 19.396 112.467 17.313 149.526 3.299l422.02 159.945c-19.494 63.645-46.868 117.531-46.868 117.531-23.206 96.23 39.352 145.508 39.352 145.508 52.418 24.924 25.447 82.496 25.447 82.496-12.6 43.371-21.24 145.664-21.24 145.664-3.644 35.059 7.375 60.436 19.424 77.135l-50.381 119.686c-36.923-39.549-58.718-99.627-58.718-99.627l-.623-19.891 11.545-67.355 18.958-126.795-55.654-106.551-8.314.129c-171.785-161.289-205.773-322.566-205.773-322.566l-61.994-43.213c-85.519 12.244-162.74 1.205-228.744-19.75 17.969-12.899 35.486-28.756 52.037-45.645zM723.242 983.948l7.013-112.081 1.64-.188 3.713 15.641s228.576 162.844 97.979 450.551c-36.814 10.784-78.229 19.854-117.274 20.506 0 0-125.156-.09-216.025 71.75 23.157-48.131 51.153-75.06 51.153-75.06l98.789-228.166 16.047-18.353c-.001.004 102.716-12.192 56.965-124.6z"/><path fill="#7ABECE" d="M598.632 881.698l23.838-15.766c7.12-37.204 30.623-58.949 30.623-58.949l5.678 34.039c4.622 16.333 67.131 31.142 67.131 31.142l4.354-.297-7.013 112.081c45.751 112.407-56.968 124.604-56.968 124.604l-16.047 18.353 4.06-9.623-131.468 108.099c-74.366-14.094-54.657-74.611-54.657-74.611l130.469-269.072zm74.842 572.519c55.34-10.312 171.074-38.643 234.729-103.035-8.623 31.995-16.02 52.643-16.02 52.643l6.396 15.78-34.441 63.338c-41.87 39.875-67.645 76.235-82.35 108.842-23.253-16.078-86.194-65.039-108.314-137.568z"/><path fill="#AA358F" d="M632.928 1460.386c3.09-.426 6.201-.928 9.399-1.226 0 0 11.97-1.462 31.146-4.946 22.121 72.529 85.063 121.489 108.319 137.566-7.367 16.553-11.881 32.057-14.103 46.474-35.53-22.385-107.259-78.958-134.761-177.868z"/><path fill="#7ABECE" d="M175.578 1655.549l56.84-107.967 88.559-40.092 149.211 54.193s53.71-88.281 162.74-101.297c27.502 98.906 99.231 155.48 134.764 177.868-11.672 77.085 40.457 127.13 67.646 147.649l-28.036 71.18c-113.839-47.758-184.069-119.369-188.147-123.518l1.797-5.176-294.343-152.646-84.735 44.646-62.521 148.59c2.38 1.115 4.918 2.074 7.426 3.139l-.059.07 42.778 67.869-29.447 69.975-73.688-82.969-1.471-112.416 50.686-59.098z"/><path fill="#B51A8A" d="M746.184 881.76s-90.643 99.192-105.82 135.208c0 0 37.742 66.073 63.103 88.307l-12.867 21.493-63.595-96.074s-83.387 88.229-88.401 109.133l28.44 50.955-14.496 14.047-72.325-82.392 13.796-25.912 26.336 31.777 91.699-107.795-72.789-17.735 12.453-29.511 69.974 24.332L722.9 866.799"/><path fill="#B51A8A" d="M640.115 1051.079l-44.99 107.158 37.684-53.137 17.518-41.633-10.212-12.388"/><path fill="#FFF" d="M700.957 1105.485c38.68 62.568 13.122 162.793 3.643 228.902-6.104 43.78 50.956 177.507 102.641 205.946-7.367 4.996-10.952 21.862-17.677 21.509-2.942-30.75-81.014-99.204-83.818-130.606-3.516-42.521-36.693-50.192-12.659-117.137 13.885-38.443 10.189-78.851 10.044-120.025-.052-24.811-23.414-83.128 3.002-82.585"/><path fill="#231F20" d="M574.103 969.407c4.868 3.098 7.9-.577 12.66-.933 4.039-.385 9.085.992 13.183.818-7.011 6.711-17.527 8.563-26.623 6.795-.336-2.449-.435-5.362-.404-8.099m-82.526 193.651c-3.615-11.702-13.608-13.074-16.176.805-2.428 13.272 15.682 5.354 15.09-.345"/><path fill="#369FBF" d="M1917.713 1891.341s.271-5.85-5.322-11.97c-9.846-41.456-32.466-60.063-73.143-67.746-17.267-6.653-34.836-7.451-47.041 3.734-5.866-.264-11.943 5.329-12.218 11.17-5.873-.255-6.145 5.61-6.407 11.435-.246 5.822-.525 11.688-6.35 11.436-.799 17.553-1.589 35.091-8.21 52.381-11.171-12.208-16.797-18.344-28.188-24.711-5.823-.255-11.736-.524-17.527-.79-11.729-.534-23.962 10.662-30.368 22.078-6.358 11.434-12.438 17.01-24.405 22.333-5.313-11.951-10.906-18.089-22.037-30.286l-5.616-6.097c-17.817 5.06-35.863 15.927-48.394 32.978.256-5.863.535-11.729-5.033-17.85.246-5.809-10.678-23.879-15.989-35.872-5.578-6.07-11.162-12.175-17.027-12.471-11.426-6.399-23.104-6.909-29.209-1.315-6.151 5.596-6.407 11.426-12.239 11.153-.287 5.883-6.365 11.459-6.365 11.459-6.12 5.593-11.944 5.329-17.801 5.058-11.468-6.373-28.699-13.013-39.929-25.233-16.706-18.354-40.125-19.421-57.958-14.348-6.109 5.604-12.174 11.203-12.174 11.203-18.138 10.894-24.75 28.165-31.107 39.582l-5.842-.263s-11.466-6.35-11.211-12.19c-11.408-6.384-16.986-12.484-28.648-13.036-5.898-.246-11.738-.521-12.035 5.34-5.814-.248-11.92 5.328-17.801 5.058-12.197 11.137-18.838 28.452-19.635 45.981l-5.855-.266-5.84-.247c-5.604-6.136-11.441-6.391-11.441-6.391-22.885-12.742-40.389-13.54-58.484-2.615-6.087 5.567-12.189 11.169-18.063 10.905-17.8 5.085-24.167 16.478-30.847 33.759-.246 5.856-.511 11.706-6.366 11.442-12.988 28.715-14.041 52.093 2.411 76.324-28.946-7.188-52.866 3.438-65.875 32.162-18.6 22.619-25.496 45.768-27.063 80.873-.278 5.824-.278 5.824-6.137 5.555-11.98 5.306-29.743 10.363-42.021 21.574-18.28 16.717-30.838 33.719-32.125 62.959-1.069 23.428-1.862 40.966 3.218 58.779l7.233 99.959 1179.604 94.133 181.763-132.498 17.02 12.496-16.237-30.017c11.979-5.329 23.903-10.676 30.031-16.236.264-5.873.264-5.873 6.366-11.435 5.856.247 6.137-5.576 6.392-11.458.266-5.8.266-5.8-11.162-12.216-11.695-.492-17.01-12.472-10.65-23.879.271-5.873 6.079-5.603 6.352-11.477 11.978-5.321 18.111-10.89 7.188-28.985l.264-5.842c-5.609-6.104-11.171-12.207-22.58-18.59l-5.896-.265c-11.42-6.384-28.955-7.181-34.827-7.436 23.672-4.788 30.313-22.063 31.34-45.456-5.587-6.103-5.313-11.968-11.131-12.239-11.188-12.229-28.181-24.727-45.248-37.181-5.569-6.151-11.417-6.406-22.859-12.731 0 0-5.841-.271-11.426-6.392l-5.84-.255-6.121 5.584c-5.806-.255-6.077 5.536-6.341 11.417.534-11.672.806-17.545 12.461-17.001 5.841.255 6.104-5.602 6.375-11.482 5.855.271 6.121-5.576.534-11.682-5.33-11.969-16.739-18.316-28.229-24.71a225356.81 225356.81 0 0 0-75.979-3.413c-11.736-.525-17.554-.797-29.498 4.518l6.088-5.576c6.096-5.563 6.385-11.419 6.612-17.275-5.018-17.813-15.938-35.887-33.222-42.543.246-5.791-5.578-6.063-11.188-12.188.279-5.866-11.441-6.394-28.996-7.173-11.941 5.319-17.527-.808-17.266-6.646 7.164-28.985 2.113-46.788-26.595-59.8-5.856-.255-11.681-.521-17.562-.79-23.369-1.035-35.33 4.276-47.554 15.456.253-5.865.253-5.865.501-11.71z"/><g><path fill="#CC6D4C" d="M2035.873 2414.26l.213-.515-4.09-1.726 94.58-57.271-22.869-48.682-32.844-69.897-34.949-74.38-34.479-73.405-36.821-78.376-22.459-47.789-97.646 59.128 45.709 97.295 36.84 78.394 34.48 73.385 34.945 74.405 30.592 65.126-402.289-169.435-132.539 314.714 411.301 173.223 131.429-312.074 1.087-2.037-.191-.083z"/><path fill="#FFF" d="M1942.797 2000.825l-74.393 108.638 36.842 78.386 74.381-108.645-36.83-78.379z"/><path fill="#E25DA9" d="M1920.349 1953.037l-97.653 59.127 45.71 97.299 74.392-108.638-22.449-47.788zm59.278 126.168l-74.381 108.644 34.476 73.389 74.388-108.635-34.483-73.398zm69.429 147.777l-74.39 108.654 32.447 69.052 1.635-.978 73.133-106.828-32.825-69.9z"/><path fill="#FFF" d="M2014.11 2152.601l-74.388 108.635 34.944 74.4 74.39-108.654-34.946-74.381zm67.772 144.283l-73.134 106.827 96.021-58.148-22.887-48.679z"/><path fill="#E5A8C4" d="M1881.738 2719.265l-411.305-173.217 132.545-314.713 411.296 173.225-132.536 314.705z"/><path d="M1756.221 2303.188l2.262-1.644-81.916-33.184-2.262 1.645 81.916 33.183zm163.838 66.365l2.263-1.646-81.92-33.181-2.257 1.648 81.914 33.179z"/><path d="M2001.965 2402.743l2.273-1.648-81.918-33.187-2.263 1.646 81.908 33.189zm-325.398-134.381l-66.702-27.022-1.125 2.109 65.565 26.558 2.262-1.645zm161.578 68.015l2.257-1.648-81.919-33.184-2.262 1.645 81.924 33.187zm166.095 64.717l-2.274 1.648 11.171 4.513 1.114-2.105-10.011-4.056z"/><path fill="#EA63B0" d="M1840.854 2427.094l81.91 33.188 79.202-57.539-81.907-33.188-79.205 57.539zm-166.549-157.087l-65.565-26.559-39.069 73.792 25.447 10.295 79.187-57.528zm84.633 123.902l79.207-57.532-81.924-33.188-79.206 57.527 81.923 33.193z"/><path fill="#FFF" d="M1840.854 2427.094l79.205-57.54-81.914-33.178-79.207 57.532 81.916 33.186zm-84.633-123.906l-81.916-33.183-79.188 57.528 81.898 33.181 79.206-57.526zm166.543 157.094l51.284 20.769 39.087-73.793-11.169-4.514-79.202 57.538z"/><path fill="#E0134F" d="M1595.115 2327.535l-25.445-10.295-3.362 6.321 22.018 8.916 6.789-4.942zm320.873 137.684l54.71 22.157 3.35-6.327-51.282-20.769-6.778 4.939zm-238.973-104.502l-6.769 4.94 81.896 33.188 6.794-4.936-81.921-33.192z"/><path fill="#E0134F" d="M1834.082 2432.022l81.904 33.197 6.776-4.938-81.91-33.188-6.77 4.929zm-238.967-104.487l-6.791 4.942 81.922 33.18 6.769-4.942-81.9-33.18z"/><path fill="#E0134F" d="M1758.938 2393.909l-6.794 4.936 81.938 33.179 6.771-4.929-81.915-33.186z"/></g><g><path fill="#C957AE" d="M1130.328 2725.199c-141.775 0-256.722-114.927-256.722-256.721 0-141.782 114.945-256.721 256.722-256.721 141.806 0 256.727 114.938 256.727 256.721-.001 141.794-114.922 256.721-256.727 256.721z"/><path fill="#FFF" d="M1130.328 2673.869c-113.431 0-205.381-91.956-205.381-205.391 0-113.424 91.95-205.379 205.381-205.379 113.43 0 205.385 91.956 205.385 205.379 0 113.436-91.955 205.391-205.385 205.391z"/><path fill="#C957AE" d="M1130.328 2632.781c-90.729 0-164.299-73.564-164.299-164.303 0-90.748 73.567-164.291 164.299-164.291 90.748 0 164.303 73.543 164.303 164.291 0 90.739-73.557 164.303-164.303 164.303z"/><path fill="#FFF" d="M1130.328 2599.911c-72.598 0-131.438-58.837-131.438-131.433 0-72.584 58.843-131.445 131.438-131.445 72.612 0 131.457 58.861 131.457 131.445 0 72.596-58.843 131.433-131.457 131.433z"/><path fill="#C957AE" d="M1130.328 2573.625c-58.08 0-105.143-47.065-105.143-105.146 0-58.067 47.063-105.158 105.143-105.158 58.084 0 105.162 47.091 105.162 105.158 0 58.078-47.078 105.146-105.162 105.146z"/><path fill="#FFF" d="M1130.328 2552.607c-46.457 0-84.131-37.678-84.131-84.129 0-46.464 37.674-84.117 84.131-84.117 46.463 0 84.142 37.653 84.142 84.117-.001 46.451-37.679 84.129-84.142 84.129z"/><path fill="#C957AE" d="M1130.328 2527.363c-32.511 0-58.892-26.37-58.892-58.885s26.381-58.885 58.892-58.885c32.515 0 58.896 26.37 58.896 58.885s-26.381 58.885-58.896 58.885z"/></g><g><path fill="#E0A061" d="M1405.802 2791.002c-116.788 0-211.468-94.668-211.468-211.467 0-116.787 94.68-211.464 211.468-211.464 116.794 0 211.462 94.677 211.462 211.464 0 116.799-94.668 211.467-211.462 211.467z"/><path fill="#FFF" d="M1405.802 2748.716c-93.437 0-169.175-75.739-169.175-169.181 0-93.434 75.739-169.173 169.175-169.173 93.426 0 169.175 75.739 169.175 169.173 0 93.439-75.749 169.181-169.175 169.181z"/><path fill="#E0A061" d="M1405.802 2714.875c-74.748 0-135.339-60.586-135.339-135.34 0-74.742 60.591-135.334 135.339-135.334 74.745 0 135.332 60.592 135.332 135.334 0 74.754-60.587 135.34-135.332 135.34z"/><path fill="#FFF" d="M1405.802 2687.809c-59.798 0-108.271-48.474-108.271-108.274 0-59.791 48.476-108.264 108.271-108.264 59.803 0 108.271 48.473 108.271 108.264 0 59.803-48.468 108.274-108.271 108.274z"/><path fill="#E0A061" d="M1405.802 2666.155c-47.843 0-86.618-38.773-86.618-86.62 0-47.834 38.775-86.608 86.618-86.608 47.841 0 86.62 38.774 86.62 86.608 0 47.847-38.779 86.62-86.62 86.62z"/><path fill="#FFF" d="M1405.802 2648.834c-38.273 0-69.296-31.024-69.296-69.299 0-38.268 31.021-69.287 69.296-69.287 38.265 0 69.304 31.021 69.304 69.287 0 38.272-31.039 69.299-69.304 69.299z"/><path fill="#E0A061" d="M1405.802 2628.049c-26.79 0-48.509-21.721-48.509-48.514 0-26.779 21.719-48.5 48.509-48.5 26.788 0 48.502 21.721 48.502 48.5 0 26.793-21.714 48.514-48.502 48.514z"/></g><g><path fill="#00AEEF" d="M2114.196 2587.744c-78.195 0-141.588-63.386-141.588-141.588 0-78.197 63.393-141.589 141.588-141.589 78.203 0 141.588 63.392 141.588 141.589-.003 78.202-63.385 141.588-141.588 141.588z"/><path fill="#FFF" d="M2114.196 2559.434c-62.563 0-113.271-50.716-113.271-113.278 0-62.557 50.708-113.271 113.271-113.271 62.557 0 113.271 50.716 113.271 113.271 0 62.563-50.715 113.278-113.271 113.278z"/><path fill="#00AEEF" d="M2114.196 2536.773c-50.044 0-90.617-40.573-90.617-90.617 0-50.051 40.573-90.611 90.617-90.611s90.617 40.563 90.617 90.611c0 50.044-40.573 90.617-90.617 90.617z"/><path fill="#FFF" d="M2114.196 2518.645c-40.045 0-72.496-32.451-72.496-72.489 0-40.031 32.451-72.496 72.496-72.496s72.496 32.465 72.496 72.496c0 40.038-32.452 72.489-72.496 72.489z"/><path fill="#00AEEF" d="M2114.196 2504.147c-32.038 0-57.99-25.958-57.99-57.991 0-32.023 25.952-57.998 57.99-57.998 32.033 0 57.998 25.973 57.998 57.998 0 32.033-25.965 57.991-57.998 57.991z"/><path fill="#FFF" d="M2114.196 2492.555c-25.626 0-46.397-20.78-46.397-46.399 0-25.626 20.771-46.394 46.397-46.394 25.619 0 46.406 20.768 46.406 46.394 0 25.619-20.787 46.399-46.406 46.399z"/><path fill="#00AEEF" d="M2114.196 2478.635c-17.932 0-32.481-14.543-32.481-32.479 0-17.933 14.552-32.477 32.481-32.477 17.928 0 32.483 14.544 32.483 32.477 0 17.936-14.556 32.479-32.483 32.479z"/></g><g><path fill="#DB8946" d="M1830.627 1093.072s-18.429 87.858 49.244 43.688c0 0 145.344 22.209 113.688-112.863 0 0 1.219-53.012 24.756-78.046l-2.361-33.416c-5.844 1.542-34.854 12.329-32.563 72.702l-21.764 32.108-53.838 10.329s-26.601-.538-79.896-16.758c0 0-42.438-3.927-37.479 43.765 0 0-.494.131-.801.223 8.793 18.778 21.781 34.831 41.014 38.268z"/><path fill="#FFD457" d="M1896.781 1230.347s105.31-1.141 114.859-94.255c0 0 .746-22.075-17.17-51.206-19.369 66.281-114.601 51.872-114.601 51.872-67.673 44.172-49.246-43.688-49.246-43.688a15.36 15.36 0 0 1-1.271-.306c-6.204 43.264-7.348 124.382 67.429 137.583z"/><path fill="#FFF" d="M1995.326 1032.727c3.967 21.405 3.166 38.54-.854 52.159 17.916 29.131 17.17 51.206 17.17 51.206-9.552 93.115-114.858 94.255-114.858 94.255-74.777-13.201-73.636-94.319-67.429-137.581-8.157-1.726-15.249-5.857-21.235-11.429-8.768 51.674-15.342 165.771 92.604 178.156 0 0 136.843-24.526 137.634-107.72-.003.003 4.917-48.179-43.032-119.046z"/><path fill="#FFD457" d="M1808.116 1081.339c-7.687-6.973-13.786-16.332-18.503-26.535-8.286 1.944-111.302 28.946-151.803 122.826 0 0-8.813 30.473-9.477 75.019l193.666-40.76c-24.027-41.115-19.32-98.094-13.883-130.55z"/><path fill="#FFF" d="M1822.004 1211.887l-193.666 40.76c-.327 18.369.896 39.225 4.651 61.284l227.479-66.095c-17.273-8.785-29.841-21.256-38.464-35.949z"/><linearGradient id="SVGID_11_" x1="665.945" x2="722.456" y1="-911.242" y2="-911.242" gradientTransform="rotate(-14.693 10527.572 -6453.745)" gradientUnits="userSpaceOnUse"><stop offset="0" stop-color="#58574f"/><stop offset="1" stop-color="#211d15"/></linearGradient><path fill="url(#SVGID_11_)" d="M2408.8 1354.552l-19.064 29.62s3.45 70.696 50.326 62.171l14.152-30.735c-24.519-8.435-38.786-41.125-45.414-61.056z"/><path fill="#DB8946" d="M2844.67 1393.08l-108.026-81.097-17.017-21.903-61.557-47.93-92.859-66.324-131.634-56.043-12.599-19.199 64.781 247.054-29.78-128.016s222.564 115.205 236.86 126.537l92.765 66.09 12.612 17.433 64.738-16.956-18.284-19.646z"/><linearGradient id="SVGID_12_" x1="1051.566" x2="1135.004" y1="-772.624" y2="-772.624" gradientTransform="rotate(-14.693 10527.572 -6453.745)" gradientUnits="userSpaceOnUse"><stop offset="0" stop-color="#58574f"/><stop offset="1" stop-color="#211d15"/></linearGradient><path fill="url(#SVGID_12_)" d="M2862.959 1412.724l-64.738 16.956 17.085 23.889 50.335-9.422 21.175-5.551-23.857-25.872z"/><path fill="#FFF" d="M2039.566 882.926l1.112 4.209-23.18 24.613c47.433 43.734 239.453 213.521 303.347 158.163l-1.979.813-12.939-49.396-5.378-14.038c-82.984 15.451-217.018-88.017-260.983-124.364z"/><path fill="#FFD457" d="M2017.498 911.747l-.418.394s-.449.118-1.127.293l2.359 33.416c-23.537 25.034-24.756 78.046-24.756 78.046.738 3.144 1.271 6.029 1.77 8.832 13.297 19.74 22.416 37.576 28.912 53.11l83.491-97.672c-39.804-30.89-73.708-61.222-90.231-76.419z"/><path fill="#FFF" d="M2107.732 988.166l-83.491 97.673c7.868 19.421 11.479 35.25 13.116 46.545l104.805-118.736c-11.716-8.297-23.279-16.958-34.43-25.482z"/><path fill="#FFD457" d="M2353.265 1058.007l-32.42 11.903c-35.559 30.823-110.687-8.119-178.686-56.265l-104.805 118.736c1.772 12.474.998 19.394.998 19.394-.791 83.191-137.636 107.719-137.636 107.719s117.235 44.735 205.61-50.078c0 0 169.87.742 219.541-68.811l45.513 29.509 10.254 39.129c1.111-.481 2.264-.781 3.39-1.252l36.858 126.105-13.086 20.455c6.627 19.931 20.896 52.619 45.414 61.056l31.551-67.972-64.783-247.052-67.713-42.576z"/><linearGradient id="SVGID_13_" x1="-262.316" x2="-195.759" y1="-680.559" y2="-680.559" gradientTransform="rotate(-14.693 10527.572 -6453.745)" gradientUnits="userSpaceOnUse"><stop offset="0" stop-color="#58574f"/><stop offset="1" stop-color="#211d15"/></linearGradient><path fill="url(#SVGID_13_)" d="M1576.054 1819.855l-21.521 47.227 17.201 36.89 53.236-30.666-22.687-52.832-26.229-.619z"/><path fill="#FAC70C" d="M1860.471 1247.838l-227.479 66.095a294.59 294.59 0 0 0 8.563 36.207l21.474 96.201s-17.801 76.305-61.006 83.885l20.49 92.711s18.271 127.178-7.763 171.744l-12.052 25.813-.411-.021 22.686 52.832 18.854-10.816 32.588-91.551-3.955-115.818 20.293-80.873s18.449 1.205 34.604-18.951l73.826-171.605-5.873-51.297s67.87-29.057 105.415-72.896c-15.871-1.748-28.958-6.055-40.254-11.66z"/><linearGradient id="SVGID_14_" x1="-57.99" x2="-10.651" y1="-691.905" y2="-691.905" gradientTransform="rotate(-14.693 10527.572 -6453.745)" gradientUnits="userSpaceOnUse"><stop offset="0" stop-color="#58574f"/><stop offset="1" stop-color="#211d15"/></linearGradient><path fill="url(#SVGID_14_)" d="M1744.75 1786.902l15.737 60.047 42.511-24.504-19.134-72.996-39.114 37.453z"/><path fill="#DB8946" d="M2325.871 1140.606c-49.67 69.553-219.541 68.81-219.541 68.81-88.375 94.814-205.609 50.079-205.609 50.079-37.545 43.841-105.415 72.896-105.415 72.896l5.873 51.297-73.826 171.606c6.087-7.487 11.86-17.63 16.089-31.952l55.499 211.75-15.073 14.355 19.133 72.996 29.557-17.018 9.023-66.406-37.598-186.308s3.756-57.637 54.904-78.436c0 0 85.335-48.807 65.652-138.016l52.983-13.887s116.443-30.521 159.191-83.188c0 0 77.892-5.329 129.771-37.823 0 0 39.055 37.228 115.149 7.876l-10.253-39.129-45.509-29.502zM2051.914 670.76c10.084-53.461 23.391-104.941 39.258-156.515l-16.506 13.267-31.795 8.325 1.493 48.629-20.688 50.681 14.594 41.392-19.696 54.23 12.34 75.973.524 18.973c2.599-25.804 7.138-52.2 9.621-76.68 2.704-26.09 5.986-52.35 10.855-78.275z"/><path fill="#FFD457" d="M2219.573 742.806c-8.111-32.537-35.374-42.511-64.279-55.073-70.347-30.663-36.455-93.694-51.369-150.305-2.432-9.229-3.758-19.378-4.319-29.909l-8.435 6.727c-15.865 51.571-29.173 103.053-39.258 156.514-4.869 25.926-8.15 52.186-10.854 78.272-2.482 24.479-7.022 50.876-9.621 76.68l.906 29.648 7.221 27.563c43.968 36.349 177.998 139.816 260.98 124.361l-30.195-78.503-24.476-50.179-22.211-12.975 10.314-72.424c-7.342-16.285-10.671-35.578-14.404-50.397z"/><path fill="#FFD457" d="M2279.75 662.304s-8.091-16.646-16.135-90.055l-17.146-36.971-22.388-99.855-36.807 32.369-24.756 6.498-13.741-37.97-22.593 28.58-23.477 40.192-3.107 2.426c.563 10.531 1.889 20.681 4.319 29.909 14.914 56.61-18.978 119.642 51.37 150.305 28.906 12.563 56.168 22.536 64.279 55.073 3.731 14.818 7.063 34.109 14.404 50.398l.28-2.08 25.876 12.132 42.273-11.084 14.588-45.347-18.51-70.599-18.729-13.921z"/><path fill="#FFF" d="M2111.441 479.76c14.785 56.372 25.967 108.146 58.425 154.08 24.208-27.992 63.085-36.686 96.717-38.542 2.56 6.102 2.146 15.99 2.56 22.605-24.299-17.085-65.218 15.692-85.252 29.438 15.555 25.254 37.027 49.026 57.632 70.525 19.182-19.167 75.159-37.75 69.233 7.396-39.269-7.289-82.837 14.519-77.398 60.66-8.371-7.039-16.416-18.532-15.555-29.389 1.653-22.604 12.399-12.85 3.356-32.61-8.889-19.359-33.089-36.725-45.646-54.02-7.785 5.732-14.366 14.914-18.821 23.076-5.438-1.367-15.903-5.894-20.042-8.323 4.989-12.063 15.234-19.663 21.932-31.146-38.17-41.651-42.023-100.756-58.241-153.481 8.06-4.774 11.571-11.083 14.412-18.314"/><path fill="#FFF" d="M2136.739 673.273c-36.053 31.216-13.27 102.222-20.726 143.516-4.396 24.209-10.104 58.995-32.617 72.806-22.456 13.736-48.315 2.175-54.654-23.57-12.407 29.246 29.365 43.563 52.445 36.108 29.379-9.414 39.356-37.631 42.953-64.687 3.625-27.764 6.086-54.444 6.346-80.61.182-14.995-5.418-30.202-3.229-44.304 2.2-14.213 14.502-27.76 6.877-38.573m15.659-198.584c-1.936-7.151-3.803-13.782-6.711-20.354-3.563 8.333-10.223 16.023-11.717 24.979 6.04-.864 16.174-5.404 17.711-7.361m55.775-7.536c4.304-4.304 9.377-11.197 12.173-17.134 2.171 7.042 2.772 14.563 3.206 21.792-1.896-2.396-8.605-6.753-14.356-6.379"/><linearGradient id="SVGID_15_" x1="642.119" x2="672.392" y1="-1761.459" y2="-1761.459" gradientTransform="rotate(-14.693 10527.572 -6453.745)" gradientUnits="userSpaceOnUse"><stop offset="0" stop-color="#58574f"/><stop offset="1" stop-color="#211d15"/></linearGradient><path fill="url(#SVGID_15_)" d="M2185.527 588.303c-5.409-2.05-11.602-6.23-16.827-9.583-4.865 3.525-8.605 8.718-14.138 10.846 5.554 3.783 14.093 7.405 21.269 6.73 5.856-.31 15.188-6.875 5.76-10.877"/><linearGradient id="SVGID_16_" x1="735.124" x2="749.939" y1="-1763.175" y2="-1763.175" gradientTransform="rotate(-14.693 10527.572 -6453.745)" gradientUnits="userSpaceOnUse"><stop offset="0" stop-color="#58574f"/><stop offset="1" stop-color="#211d15"/></linearGradient><path fill="url(#SVGID_16_)" d="M2249.807 573.048c-7.243.762-3.732-11.1-1.606-14.648 3.739 1.267 7.587 3.187 10.999 5.055-.822 4.582-6.467 9.792-10.367 9.059"/><linearGradient id="SVGID_17_" x1="689.849" x2="706.458" y1="-1566.133" y2="-1566.133" gradientTransform="rotate(-14.693 10527.572 -6453.745)" gradientUnits="userSpaceOnUse"><stop offset="0" stop-color="#58574f"/><stop offset="1" stop-color="#211d15"/></linearGradient><path fill="url(#SVGID_17_)" d="M2252.1 773.351c-1.584-5.307 3.747-17.447 9.553-15.128 3.771 1.54 6.421 10.992 7.428 14.416-6.172 2.795-10.414-.121-16.295.542"/><linearGradient id="SVGID_18_" x1="736.01" x2="748.245" y1="-1566.871" y2="-1566.871" gradientTransform="rotate(-14.693 10527.572 -6453.745)" gradientUnits="userSpaceOnUse"><stop offset="0" stop-color="#58574f"/><stop offset="1" stop-color="#211d15"/></linearGradient><path fill="url(#SVGID_18_)" d="M2297.43 763.801c-2.188-5.635-1.435-12.408 2.397-16.982 11.923 4.205 8.509 14.568-1.34 17.386-.458-.745-.344-1.327-.694-2.075"/></g></svg>