<svg xmlns="http://www.w3.org/2000/svg" id="图层_2" viewBox="0 0 3000 3000"><path fill="#59E4EA" d="M1188 2509.711s-290 82.523-462 80.523c-191.037-2.222-188 96-64 99s105.459 15.104 67.709 27.104-326.065 4.188-294.065 62.188 379.974 20.997 515.974 44.997S988 2890.234 1424 2892.234s794-50 898-100 66-62.467 58-91.232c-8-28.767 68-20.768 132-32.768s110-84-38-76c-136.036 7.354-462-64-744-62s-542-20.523-542-20.523z"/><path fill="#D2FCFC" d="M863 2577s-75 22.045-81 53.522S772.498 2685 799.75 2701C827 2717 876 2755 910 2773s144 41.908 246 57.955c102 16.046 183 5.045 232 7.045s149-6.323 253 1.838C1745 2848 1810 2834 1858 2823s133-31 198-33 149-29 167-61 18-40 55-52 46.485-50.998 26.655-61c-19.83-10-133.655-51-177.655-53s-1140-22-1264 14z"/><ellipse cx="1527.875" cy="2647.935" fill="#F7E87F" rx="728.125" ry="183.02"/><path fill="#DDCA7A" d="M816.639 2608.57s-85.104 70.967 116.394 144.938c201.498 73.971 357.472 66.169 464.903 74.54s372.668-3.777 510.73-20.715c138.062-16.937 261.227-63.389 303.945-97.026 42.719-33.639 69.889-73.947 26.497-101.736 0 0 14.224 60.097-27.776 81.431s-319.334 85.334-415.334 92.667-236 24.667-326.666 23.333c-90.668-1.334-244-10.667-297.334-20.667-53.332-10-211.332-30.668-249.332-50.668s-139.386-72.193-106.027-126.097z"/><linearGradient id="SVGID_1_" x1="812.099" x2="812.099" y1="1546.549" y2="3624.63" gradientTransform="matrix(1 0 0 -1 1202.4 4080.1)" gradientUnits="userSpaceOnUse"><stop offset="0" stop-color="#594140"/><stop offset=".233" stop-color="#463833"/><stop offset=".68" stop-color="#4f4a3e"/><stop offset="1" stop-color="#525142"/></linearGradient><path fill="url(#SVGID_1_)" d="M2159.133 1361.218a5691.17 5691.17 0 0 0-11.342-79.502c-38.021-250.827-97.674-527.511-189.611-818.513 0 0-60.985-33.375-75.53 38.547l6.484-13.463s163.198 420.666 148.3 987.617c-4.542 187.187-27.436 388.236-79.833 590.896-33.404 130.505-78.822 260.929-139.195 387.66l371.595 79.09c-.001.002 62.769-462.061-30.868-1172.332z"/><path fill="#005436" d="M1989.434 231.414c.002-.002 45.393-23.289 11.927-38.658-33.475-15.369-53.729.978-53.729.978s27.43-63.225-11.153-30.622c-38.578 32.586-38.121 161.115-38.121 161.185-7.637 90.371-3.916 194.234-3.916 194.234s122.507 51.114 160.111-102.825c-.002-.001-24.326-120.412-65.119-184.292z"/><path fill="#FFF" d="M1564.807 248.62c22.584 5.688 39.885 10.792 39.891 10.761-.006.065-15.512-5.189-39.891-10.761z"/><path fill="#096B4D" d="M1491.371 198.369c-77.734 24.8 16.896 34.479 73.436 50.251 24.379 5.571 39.885 10.825 39.891 10.761-.006.031-17.307-5.072-39.891-10.761-37.018-9.058-95.742-15.895-148.188-11.075-52.566 3.907-98.851 19.472-113.869 34.069-19.846 20.162 1.785 22.543 28.08 23.173 26.353.117 57.367-1.52 57.57-1.239.855.368-61.063 4.104-122.331 29.912-61.917 23.504-123.184 69.081-136.06 99.691-13.276 30.494 6.773 25.168 30.806 15.773 23.938-9.952 51.863-23.973 52.226-23.749.729.072-41.211 29.726-77.668 74.891-37.698 44.052-69.914 103.609-78.354 137.827-8.265 34.567 8.42 16.039 30.269-6.396 21.377-23.18 47.914-50.268 48.448-50.001.384-.271-27.687 33.84-46.776 76.129-20.285 41.627-31.592 91.436-25.379 107.291 10.366 30.529 47.862-51.961 49.889-50.433.301-.304-15.45 27.652-23.069 61.853-8.353 33.856-8.577 73.959 5.972 90.172 12.457 15.035 28.385-68.292 54.883-111.141 1.24-2.445-.418-25.972 11.244-73.023 11.85-45.866 37.012-115.252 96.392-182.036 58.438-66.075 151.069-129.56 276.006-147.24 122.851-17.443 278.01 10.919 413.407 134.033.924 2.663-65.324-110.441-168.109-182.708-99.159-78.111-234.844-115.387-288.825-96.024z"/><path fill="#005F43" d="M1181.765 818.142c10.633-3.723 13.147-33.396 18.534-63.506 4.503-29.884 11.883-60.213 11.779-60.1-.614.34.853 41.514 20.604 42.257 9.481.709 15.581-25.087 23.646-51.373 7.371-26.226 16.705-52.946 16.612-52.884-.628.687-1.284 67.396 33.089 40.604 6.18-4.617 15.944-38.438 29.037-70.316 12.314-32 27.956-62.059 27.775-61.994-.438.703-8.212 89.485 36.875 69.097 44.347-18.517 83.873-128.117 84.449-128.579-.028.4-11.508 53.402 25.69 54.292 18.587.64 49.556-14.916 78.593-27.688 28.59-13.25 55.244-23.709 55.025-23.894-.581-.078-39.152 26.971-3.044 48.763 17.987 11.182 49.521 18.927 81.938 22.555 32.211 2.943 65.31 1.774 81.59-20.537 1.738 1.586-4.648 89.078 50.252 101.271 55.812 15.673 92.482-38.073 94.089-159.006-135.397-123.114-290.562-151.477-413.396-134.028-124.927 17.688-217.523 81.187-275.955 147.262-59.384 66.787-84.582 136.156-96.444 182.017-11.671 47.041-10.013 70.572-11.254 73.019-1.828 1.174 17.932 78.053 30.516 72.768z"/><path fill="#FFF" d="M2187.313 168.376c-17.457 13.186-30.732 23.982-30.742 23.958.007.057 11.824-10.253 30.742-23.958z"/><path fill="#004E35" d="M2239.966 95.862c65.847-3.952-9.146 38.079-52.653 72.514-18.918 13.706-30.732 24.017-30.742 23.958.01.025 13.285-10.771 30.742-23.958 28.652-21.359 75.08-48.218 117.954-62 42.86-14.682 82.168-16.288 96.163-7.896 18.602 11.904 1.482 21.672-19.619 31.426-21.222 9.297-46.422 18.581-46.551 18.917-.64.64 49.734-17.462 102.443-14.724 52.932.351 108.197 21.542 122.543 45.627 14.648 23.843-2.196 25.859-22.774 25.468-20.577-.946-44.896-4.297-45.155-3.957-.576.317 37.056 13.38 72.285 42.833 36.078 27.981 69.76 72.355 80.992 101.354 11.145 29.394-4.702 17.91-25.211 4.581-20.229-14.184-45.124-30.221-45.52-29.786-.345-.116 26.695 21.939 47.554 54.769 21.743 31.788 37.312 74.348 34.357 91.314-4.394 32.115-45.295-31.821-46.73-29.69-.28-.177 16.032 20.433 26.604 49.701 11.117 28.696 16.496 66.063 6.879 86.267-8.089 18.379-31.723-53.857-58.628-84.625-1.314-1.851-3.029-24.391-18.52-64.255-15.497-38.683-44.767-94.687-101.264-136.337-55.645-41.316-138.509-68.285-241.457-41.233-101.241 26.549-222.573 107.121-315.699 269.268-.401 2.81 38.313-125.88 111.759-229.189 69.757-107.498 174.245-189.607 220.248-190.347z"/><path fill="#005436" d="M2569.75 566.53c-9.048.231-14.92-26.595-23.164-52.823-7.504-26.33-17.381-52.074-17.281-52.002.54.102 4.689 39.052-11.126 46.632-7.544 3.971-15.802-17.991-25.705-39.714-9.339-21.916-20.326-43.605-20.245-43.584.6.424 9.775 62.475-21.389 49.445-5.582-2.154-17.834-30.327-32.518-55.522-14.07-25.582-30.566-48.192-30.413-48.192.442.501 18.217 80.682-20.751 77.362-38.127-1.822-84.184-90.366-84.709-90.597.079.362 16.193 45.846-13.66 59.646-14.894 7.076-41.861 3.35-66.906 1.547-24.757-2.399-47.582-2.872-47.431-3.116.453-.279 35.038 11.526 8.771 44.46-13.048 16.711-37.445 34.938-63.095 49.625-25.571 13.981-52.387 24.428-68.398 9.275-1.193 2.084 15.294 81.538-27.359 112.065-42.931 34.089-79.447-3.297-96.412-115.645 93.125-162.146 214.457-242.719 315.689-269.262 102.941-27.04 185.777-.044 241.416 41.272 56.503 41.645 85.8 97.628 101.303 136.305 15.501 39.85 17.215 62.393 18.53 64.243 1.631.464-4.323 79.128-15.147 78.58z"/><path fill="#00593C" d="M1577.763 484.512c19.409-6.086 34.551-10.177 34.543-10.204.017.05-13.783 3.196-34.543 10.204z"/><path fill="#005436" d="M1503.363 479.865c-51.057 55.135 25.259 18.714 74.4 4.647 20.754-7.006 34.56-10.151 34.543-10.204.008.027-15.134 4.118-34.543 10.204-31.722 10.188-79.377 32.149-118.046 60.175-39.096 27.377-69.206 60.821-75.584 79.026-8.12 24.728 9.384 16.536 29.855 4.825 20.338-12.128 43.637-27.768 43.896-27.645.787-.111-45.567 31.47-83.577 79.75-39.333 46.807-70.316 110.305-69.356 139.847.609 29.638 14.155 16.241 29.325-2.132 14.902-18.767 31.423-42.504 31.782-42.501.588-.281-21.174 41.995-33.204 93.677-13.38 51.398-17.028 112.2-11.371 142.463 5.919 30.448 12.183 8.447 21.035-18.957 8.226-27.762 19.04-60.927 19.549-60.97.194-.386-9.3 38.896-8.978 80.313-.832 41.46 8.158 85.062 18.578 94.387 18.828 18.704 18.392-62.198 20.498-61.965.121-.373-2.073 28.458 4.205 58.328 5.602 29.942 19.676 60.927 36.644 66.67 14.935 5.802-2.404-65.751 2.774-111.03.082-2.458-9.551-19.806-17.287-61.448-7.168-40.807-12.444-105.907 9.554-184.866 21.522-77.975 70.299-169.805 160.229-241.341 88.405-70.389 217.965-120.483 365.969-88.448 1.66 1.621-89.537-54.764-194.365-62.759-104.105-14.185-221.838 20.016-256.525 59.954z"/><path fill="#004E35" d="M1485.138 1100.668c6.873-7.797-1.74-31.812-8.287-57.498-7.146-25.101-12.245-51.877-12.281-51.743-.351.549 15.409 31.573 30.881 22.991 7.554-3.846 3.083-26.548-.041-50.523-3.643-23.615-5.95-48.516-5.997-48.426-.244.823 22.952 52.494 39.902 15.929 3.119-6.42-1.377-36.995-2.619-67.614-1.89-30.35-.521-60.746-.634-60.618-.093.746 25.465 72.726 52.938 36.119 27.571-34.818 19.071-137.546 19.353-138.17.116.324 10.108 46.46 39.069 29.899 14.539-8.121 32.865-34.462 50.682-57.758 17.314-23.455 34.12-43.871 33.895-43.909-.479.206-20.572 38.919 14.98 38.959 17.82.272 44.855-8.382 71.107-20.62 25.853-12.662 50.92-28.911 55.535-53.636 1.901.411 28.065 70.75 74.678 54.688 48.543-13.806 57.688-72.197 15.955-166.065-148-32.035-277.563 18.06-365.959 88.445-89.911 71.537-138.66 163.364-160.184 241.332-22.001 78.959-16.758 144.066-9.601 184.878 7.725 41.637 17.364 58.987 17.278 61.448-.988 1.751 41.54 51.796 49.35 41.892z"/><path fill="#005F43" d="M1923.92 495.388s-125.283 40.417-197.068 230.872c-71.78 190.45-49.671 335.565-8.273 358.87 41.396 23.308 22.064-115.825 22.064-115.825s19.874 65.083 36.934 41.189c17.057-23.896-5.32-100.954-5.32-100.954s53.511 46.211 55.66 7.019c2.146-39.188-27.101-117.79-27.101-117.79s51.433 55.45 54.767-5.057c3.338-60.515-.946-125.424-.946-125.424s-26.824 80.22 19.411 48.576c46.24-31.641 12.326-118.201 12.326-118.201s57.652 35.703 37.546-103.275z"/><path fill="#00593C" d="M2283.985 474.802c-19.672-4.882-34.979-8.037-34.972-8.064-.021.051 13.916 2.342 34.972 8.064z"/><path fill="#005F43" d="M2358.062 465.573c53.581 51.91-24.343 20.245-74.077 9.229-21.056-5.722-34.99-8.013-34.972-8.064-.009.028 15.3 3.185 34.972 8.064 32.16 8.215 80.779 27.21 120.717 52.813 40.326 24.932 71.976 56.469 79.205 74.256 9.274 24.188-8.594 17.083-29.59 6.659-20.874-10.86-44.884-25.045-45.134-24.905-.794-.062 46.987 28.617 87.222 74.489 41.481 44.308 75.419 105.813 75.858 135.372.786 29.628-13.372 17.084-29.384-.328-15.769-17.82-33.387-40.504-33.746-40.479-.598-.25 23.127 40.629 37.576 91.492 15.787 50.504 22.303 110.99 18.083 141.556-4.472 30.772-11.768 9.184-21.903-17.63-9.52-27.213-21.881-59.666-22.393-59.675-.218-.373 11.12 38.264 12.751 79.643 2.788 41.347-4.127 85.438-14.092 95.389-17.925 19.839-21.306-60.971-23.394-60.608-.145-.361 3.408 28.29-1.449 58.5-4.179 30.246-16.772 62.051-33.438 68.833-14.642 6.715-.702-65.806-8.013-110.703-.203-2.443 8.596-20.365 14.359-62.419 5.229-41.194 7.425-106.521-18.268-184.009-25.176-76.538-78.216-165.227-171.393-231.123-91.602-64.839-223.334-106.876-369.613-65.774-1.581 1.723 86.824-60.197 191.122-74.64 103.292-20.577 222.466 6.323 258.994 44.062z"/><path fill="#096B4D" d="M2405.56 1084.35c-7.228-7.363.235-31.872 5.563-57.926 5.957-25.499 9.771-52.555 9.819-52.423.379.526-13.893 32.48-29.748 24.861-7.725-3.378-4.33-26.32-2.347-50.453 2.523-23.804 3.65-48.811 3.707-48.724.279.802-20.448 53.833-39.096 18.361-3.417-6.22-.37-37.022-.579-67.675.452-30.422-2.35-60.692-2.227-60.564.125.734-21.998 74.184-51.159 39.32-29.177-33.067-25.537-136.166-25.844-136.776-.103.331-7.902 47.018-37.606 32.264-14.901-7.21-34.442-32.386-53.331-54.548-18.396-22.359-36.139-41.707-35.912-41.762.482.178 22.376 37.596-13.119 39.828-17.787 1.369-45.189-5.61-71.985-16.207-26.405-11.055-52.213-25.738-57.98-50.146-1.886.534-24.689 72.38-71.988 59.209-49.124-10.795-61.017-68.531-23.776-164.839 146.277-41.104 278.016.935 369.606 65.774 93.158 65.891 146.171 154.584 171.339 231.113 25.696 77.492 23.534 142.824 18.316 184.017-5.746 42.056-14.555 59.972-14.35 62.421 1.07 1.695-39.04 54.287-47.303 44.875z"/><path fill="#005F43" d="M1836.644 2644.595c-30.572-.262-60.56-6.823-89.024-17.234l26.94-41.179-58.255 27.994c-29.117-13.845-56.055-30.986-79.688-48.394l31.936-36.91-61.017 14.095c-41.871-34.877-67.789-65.293-67.789-65.293 27.614-14.37 54.026-26.066 79.25-35.468l56.576 37.198-15.041-50.917c30.264-8.707 58.583-13.967 85.021-16.479l61.479 52.379-17.194-54.121c29.812.544 56.809 4.659 81.028 11.049l50.416 64.944 11.561-41.505c69.748 35.141 103.036 84.44 103.036 84.44-46.713 64.488-97.487 97.366-148.131 109.633l7.129-54.804-58.233 60.572z"/><path fill="#006F3C" d="M1841.201 2359.768c52.035 47.699 109.211 85.119 170.022 115.636a408.977 408.977 0 0 0 14.424-5.841s-3.149-59.368-44.875-125.368l-31.269 29.654-9.795-81.592c-17.496-17.932-38.512-35.334-63.805-51.141l-13.132 55.252-25.728-76.514c-23.974-11.432-50.981-21.471-81.414-29.555l-13.314 51.396-29.361-60.959c-25.218-4.688-52.476-8.117-81.893-10.041 12.688 14.365 25.916 27.646 39.162 40.892 54.146 54.145 113.986 96.888 170.978 148.181z"/><path fill="#007542" d="M1841.201 2359.768c-56.992-51.293-116.832-94.037-170.976-148.179-13.246-13.246-26.476-26.525-39.162-40.892-1.45-.094-2.88-.206-4.341-.292 0 0 6.563 39.394 24.509 90.842l59.603 19.261-46.404 15.249c11.297 27.064 25.574 55.611 43.412 82.429l64.386 5.948-44.327 21.471c19.061 23.563 41.399 44.602 67.467 60.559l81.146-22.023-34.332 43.303c46.437 14.484 102.226 13.607 169.044-12.038-60.814-30.519-117.988-67.937-170.025-115.638z"/><path fill="#005F43" d="M2145.064 2350.233c15.194-26.488 35.593-49.424 58.612-69.144l22.775 43.635 4.063-64.473c26.315-18.601 54.45-33.688 81.216-45.762l16.61 45.891 17.521-60.08c50.953-19.414 90.174-27.134 90.174-27.134-.955 31.108-3.662 59.853-7.809 86.411l-60.143 31.114 51.812 11.79c-7.181 30.622-16.449 57.886-27.185 82.15l-75.804 27.942 55.677 11.493c-15.074 25.713-31.86 47.213-49.301 65.209l-81.347 12.163 30.584 30.372c-64.815 43.59-124.13 48.479-124.13 48.479-33.447-72.247-37.314-132.559-23.253-182.693l44.329 33.021-24.401-80.384z"/><path fill="#006F3C" d="M2061.313 2144.732l25.374 57.223-42.304-24.391c-12.676 26.467-24.45 56.115-32.564 87.285l38.497 51.903-45.571-18.688c-4.869 29.905-5.666 60.566-.187 90.604l70.524 45.741-55.193 3.303c19.314 42.368 54.859 81.721 113.775 113.66-19.479-160.222-9.603-322.965-21.869-484.271-4.736 6.075-27.043 35.35-50.482 77.631z"/><path fill="#007542" d="M2226.139 2298.592l-49.982 27.07 39.924-70.186c-7.457-25.459-17.963-52.266-32.229-80.311l-47.216 24.361 25.895-62.521c-13.97-22.976-30.448-46.689-49.797-71.093 0 0-.333.418-.938 1.188 12.269 161.306 2.393 324.049 21.871 484.271a402.426 402.426 0 0 0 21.89 11.028s42.194-41.937 63.612-117.007l-42.976-3.515 54.337-61.692c1.712-24.98.68-52.226-4.391-81.593z"/><path fill="#19543F" d="M1886.27 2018.352l-.406-.287s-18.008 45.045-31.752 109.697l49.729 57.432-57.743-13.338c-5.348 35.202-8.475 73.806-6.854 112.837l63.077 46.638-59.508-5.571c4.965 36.414 14.901 72.303 31.925 105.219l98.085 28.119-62.913 23.397c37.982 42.952 94.26 76.41 175.87 92.353-23.423-33.383-42.082-70.084-56.505-106.795-56.719-148.545-126.197-291.984-143.005-449.701z"/><path fill="#005F43" d="M2143.92 2420.871l-51.147 11.145 41.244-90.839c-6.888-29.593-17.759-60.876-34.064-93.159l-48.405 49.095 21.45-95.569c-17.681-26.92-39.391-54.305-65.879-81.828l-46.176 45 7.897-81.746c-24.258-21.602-51.66-43.203-82.57-64.614 16.809 157.717 86.285 301.153 143.005 449.698 14.423 36.711 33.082 73.414 56.505 106.797a497.05 497.05 0 0 0 25.785 4.327c0-.002 34.123-63.612 32.355-158.307z"/><path fill="#BF8F46" d="M1805.576 2663.243c-.043-.017-.088-.021-.131-.039l8.26 3.207c6.843 2.659 20.53-10.832 33.035-25.616 6.262-7.403 12.229-15.131 16.892-21.318 4.688-6.228 8.067-10.885 9.278-12.309 7.732-7.826 13.057-6.244 25.125-5.658 9.943.484 16.205 3.084 25.425 3.511 6.897.313 10.862-.939 12.776-3.2 6.916-8.181-9.617-26.045-14.309-34.289-5.248-9.229-10.359-18.583-15.34-27.924 6.293-13.344 12.52-26.713 18.886-40.017 2.031-4.252 11.845-21.225 11.115-26.659-.874-6.561-8.404-7.334-8.404-7.334.034.013.058.028.086.043-1.837-.746-4.579-.955-8.485-.437-3.996.529-7.736 4.306-11.183 8.378-.757.898 1.693 1.195.962 2.09-.677.832-1.36 1.658-2.051 2.479-1.447 1.714-6.029 3.836-7.354 4.866-9.385 7.377-21.238 11.813-32.594 16.502-6.778-6.791-14.576-19.698-20.617-23.522-4.367-2.764-10.53-6.501-15.566-.296-8.384 10.336-11.227 48.453-13.507 58.023-10.859 9.269-21.255 19.459-32.777 27.959-4.241 3.129-8.92 5.688-11.163 8.336-2.926 3.461-1.699 7.073 10.064 12.313 8.574 3.813 17.893 6.418 26.654 9.813 6.558 11.884 3.91 24.25 1.416 35.673-1.563 7.146-11.92 22.674-10.484 29.545.719 3.356 2.107 5.21 3.991 5.88z"/><radialGradient id="SVGID_2_" cx="1513.421" cy="2446.671" r="578.717" gradientTransform="matrix(.4808 -.4124 -.5137 -.5397 2299.444 4562.526)" gradientUnits="userSpaceOnUse"><stop offset="0" stop-color="#fbb03b"/><stop offset=".258" stop-color="#f7ad3a"/><stop offset=".506" stop-color="#eca537"/><stop offset=".75" stop-color="#d89833"/><stop offset=".991" stop-color="#bd852c"/><stop offset="1" stop-color="#bc842c"/></radialGradient><path fill="url(#SVGID_2_)" d="M1827.009 2473.094c1.19-1.429 2.493-2.277 3.913-2.384 9.932-.72 22.594 32.216 32.131 28.32 11.517-4.609 23.566-8.934 33.019-16.336 1.324-1.029 5.897-3.16 7.337-4.884.666-.793 1.346-1.637 2.038-2.493.728-.902 1.468-1.816 2.22-2.724 3.422-4.095 5.067-6.099 9.123-6.567 26.826-3.113-.791 25.581-3.109 30.618-6.21 13.467-12.274 27.004-18.408 40.519 5.249 9.621 10.637 19.265 16.163 28.782 4.935 8.502 25.574 30.683 18.699 38.906-1.901 2.274-5.906 3.483-12.927 3.04-9.392-.604-19.274-7.009-29.4-7.684-12.288-.817-17.73-2.526-25.441 5.321-1.207 1.435-4.547 6.127-9.191 12.4-4.617 6.235-10.532 14.018-16.754 21.465-15.734 18.829-33.437 35.51-37.129 19.526-1.595-7.041 8.627-22.709 10.074-29.978 2.307-11.619 4.755-24.192-2.15-36.445-8.981-3.623-18.514-6.454-27.311-10.501-12.073-5.56-13.393-9.271-10.484-12.752 2.229-2.662 6.937-5.193 11.188-8.313 11.55-8.467 21.918-18.687 32.778-27.952 2.13-9.724 5.079-49.666 13.621-59.884z"/><radialGradient id="SVGID_3_" cx="1519.975" cy="2433.125" r="409.002" gradientTransform="matrix(.4808 -.4124 -.5137 -.5397 2299.444 4562.526)" gradientUnits="userSpaceOnUse"><stop offset="0" stop-color="#fdd089"/><stop offset="1" stop-color="#fbb03b"/></radialGradient><path fill="url(#SVGID_3_)" d="M1916.787 2466.027c-4.055.471-5.699 2.475-9.123 6.567-.752.905-1.492 1.821-2.219 2.724-.693.856-1.372 1.7-2.039 2.493-1.438 1.723-6.012 3.854-7.336 4.884-7.893 6.182-17.599 10.215-27.293 14.063-7.848 21.172-19.273 45.222-16.893 47.149 3.395 2.747 18.781-16.231 33.664-33.479 8.57-9.937 22.598-29.566 32.169-44.496-.31.029-.619.06-.93.095zm-87.983 5.438c-.623.4-1.222.943-1.796 1.63-7.231 8.651-10.454 38.612-12.567 53.5 7.7 6.407 15.606 12.705 22.909 18.013 15.33 11.137 2.585-40.905-8.546-73.143zm21.27 79.658c.18 10.356 13.314 30.121 21.242 48.875 4.359-1.051 9.229-.271 16.488.211 10.126.676 20.01 7.08 29.4 7.685 7.021.443 11.024-.767 12.926-3.04 1.676-2.003 1.709-4.837.744-8.096-32.651-25.562-80.958-54.644-80.8-45.635zm-7.527 2.068c-22.202.858-51.944 10.541-74.416 19.154.043 2.67 3.168 5.691 11.771 9.654 8.797 4.047 18.328 6.878 27.311 10.501 6.906 12.253 4.457 24.825 2.15 36.444-1.447 7.27-11.669 22.937-10.074 29.978 1.065 4.61 3.302 6.49 6.314 6.397 15.413-56.724 43.725-112.392 36.944-112.128z"/><g><path fill="#BF8F46" d="M1863.609 2635.332c-.022-.059-.062-.108-.082-.168l4.285 11.285c3.549 9.354 33.841 12.234 64.547 12.797 15.377.283 30.857-.014 43.14-.373 12.355-.362 21.469-.77 24.434-.705 17.365 1.455 20.724 8.32 32.043 21.361 9.324 10.748 12.365 19.445 21.039 29.392 6.497 7.437 11.996 10.504 16.693 10.592 16.987.31 22.52-31.912 28.004-43.728 6.143-13.223 12.575-26.407 19.125-39.444 22.731-4.685 45.427-9.459 68.183-14.031 7.271-1.465 37.987-5.542 43.962-10.872 7.217-6.43.658-14.911.658-14.911.019.048.021.084.033.127-.914-2.538-3.392-5.565-7.931-9.19-4.641-3.711-13.028-4.422-21.485-4.578-1.863-.029.215 2.768-1.618 2.758a377.45 377.45 0 0 1-5.104-.046c-3.558-.063-10.745-3.042-13.336-3.549-18.458-3.554-35.757-12.146-52.865-20.009 1.608-12.762 9.746-31.73 8.434-41.23-.95-6.865-2.49-16.418-15.166-16.435-21.109-.021-70.943 29.095-85.021 34.776-22.263-3.494-45.201-5.729-67.175-10.56-8.092-1.777-15.916-4.488-21.419-4.594-7.185-.132-10.417 4.184-5.138 20.823 3.854 12.125 9.938 24.007 14.494 35.974-8.11 16.814-25.998 24.468-42.571 31.485-10.37 4.387-39.85 6.684-46.889 13.955-3.43 3.569-4.331 6.572-3.274 9.098z"/><radialGradient id="SVGID_4_" cx="654.467" cy="1401.154" r="578.717" gradientTransform="scale(1 -1) rotate(-8.795 -24487.368 -8576.478)" gradientUnits="userSpaceOnUse"><stop offset="0" stop-color="#fbb03b"/><stop offset=".258" stop-color="#f7ad3a"/><stop offset=".506" stop-color="#eca537"/><stop offset=".75" stop-color="#d89833"/><stop offset=".991" stop-color="#bd852c"/><stop offset="1" stop-color="#bc842c"/></radialGradient><path fill="url(#SVGID_4_)" d="M2119.449 2497.629c2.947.039 5.293.679 6.844 2.064 10.793 9.721-17.182 50.598-2.864 57.238 17.175 8.096 34.528 16.988 53.086 20.588 2.59.512 9.78 3.473 13.34 3.52 1.644.025 3.361.021 5.108.021 1.838-.004 3.705-.004 5.572.017 8.462.114 12.574.14 17.199 3.96 30.604 25.274-32.33 20.701-40.854 22.529-22.801 4.873-45.545 9.957-68.325 14.949-6.628 13.553-13.144 27.268-19.365 41.022-5.56 12.284-12.313 52.407-29.313 52.179-4.702-.063-10.188-3.211-16.646-10.884-8.626-10.271-10.588-25.938-19.857-37.034-11.255-13.466-14.576-20.563-31.945-21.977-2.973-.051-12.092.427-24.461.876-12.297.443-27.793.842-43.183.639-38.917-.521-77.145-4.891-61.12-22.179 7.09-7.581 36.604-10.136 47.012-14.746 16.629-7.378 34.574-15.411 42.791-32.9-4.494-12.388-10.512-24.681-14.299-37.23-5.19-17.232-1.931-21.727 5.262-21.633 5.508.076 13.324 2.844 21.412 4.641 21.963 4.887 44.91 7.068 67.172 10.566 14.12-5.972 66.311-36.51 87.434-36.226z"/><radialGradient id="SVGID_5_" cx="661.023" cy="1387.609" r="409" gradientTransform="scale(1 -1) rotate(-8.795 -24487.368 -8576.478)" gradientUnits="userSpaceOnUse"><stop offset="0" stop-color="#fdd089"/><stop offset="1" stop-color="#fbb03b"/></radialGradient><path fill="url(#SVGID_5_)" d="M2217.736 2585.037c-4.625-3.819-8.737-3.846-17.198-3.959a414.176 414.176 0 0 0-5.573-.018c-1.747 0-3.466.004-5.108-.021-3.559-.047-10.75-3.008-13.34-3.52-15.496-3.006-30.154-9.703-44.569-16.547-33.937 9.652-74.989 18.008-74.991 22.104 0 5.843 38.752 5.871 74.865 6.836 20.803.554 59.003-1.379 86.96-3.989a80.203 80.203 0 0 0-1.046-.886zm-94.488-86.912c-1.115-.312-2.383-.477-3.799-.496-17.887-.239-58.044 21.617-78.508 31.946-.219 13.397-.096 26.917.646 38.978 1.563 25.31 53.016-31.729 81.661-70.428zm-76.998 89.14c-12.592 8.899-23.854 39.188-39.069 63.211 5.646 3.649 9.541 9.365 16.19 17.322 9.271 11.096 11.232 26.764 19.858 37.034 6.457 7.673 11.943 10.82 16.646 10.884 4.141.057 7.668-2.293 10.725-6.037-1.062-55.46-13.4-130.159-24.35-122.414zm-10.06-6.087c-23.209-22.364-64.823-45.145-97.863-61.263-3.249 2.291-3.857 8.084-.158 20.364 3.787 12.552 9.805 24.845 14.299 37.23-8.217 17.489-26.162 25.522-42.791 32.901-10.406 4.609-39.922 7.164-47.012 14.746-4.623 4.986-4.711 8.894-1.591 11.949 85.318-31.699 182.207-49.096 175.116-55.927z"/></g><g><path fill="#FF874A" d="M1288.688 2082.75c18.337 182.621 1.112 356.135-43.441 504.077-65.729 19.874-135.313 30.597-207.363 30.597a719.574 719.574 0 0 1-115.122-9.266c-69.281-132.717-117.932-293.966-135.681-470.741-31.289-311.606 40.842-596.813 175.89-773.436 167.207 143.683 294.426 407.162 325.717 718.769z"/><path fill="#FFC649" d="M1263.34 1922.38l-474.463-85.168c2.573-22.04 5.661-43.763 9.293-65.119l448.082 80.436a1361.214 1361.214 0 0 1 17.088 69.851zm-476.26 215.038c-1.522-15.148-2.724-30.22-3.763-45.232l511.976 91.902c.672 22.492.802 44.793.412 66.863L789.616 2160.1c-.873-7.544-1.772-15.079-2.536-22.682zm501.608-54.668c1.241 12.382 2.29 24.711 3.209 37.002l-511.604-91.836c-.978-40.586-.233-80.531 2.194-119.635l495.025 88.861c4.572 28.419 8.3 56.968 11.176 85.608z"/><path d="M962.969 1363.981c167.208 143.683 294.428 407.162 325.719 718.769 18.337 182.621 1.112 356.135-43.441 504.077-65.729 19.874-135.313 30.597-207.363 30.597a719.574 719.574 0 0 1-115.122-9.266c-69.281-132.717-117.932-293.966-135.681-470.741-31.29-311.608 40.841-596.814 175.888-773.436zm-134.658 749.316c14.833 147.715 65.986 354.824 123.881 465.722a601.572 601.572 0 0 0 96.191 7.745c60.205 0 118.35-8.959 173.272-25.568 37.228-123.623 41.122-340.98 25.796-493.579-26.141-260.375-132.447-480.543-272.169-600.604-112.844 147.582-173.114 385.906-146.971 646.284z" opacity=".2"/><path fill="#FFC649" d="M1044.479 2518.152c7.398 86.528 26.402 155.465 42.449 153.976 16.042-1.488 23.051-72.839 15.652-159.371-7.398-86.528-26.403-155.466-42.449-153.977-16.043 1.489-23.051 72.841-15.652 159.372z"/><path d="M1060.131 2358.78c-16.043 1.489-23.051 72.841-15.652 159.372 7.398 86.528 26.402 155.465 42.449 153.976l-26.797-313.348z" opacity=".2"/></g><g><path fill="#E52C9A" d="M1040.1 2620.942s14.313-24.869 20.329-32.003c7.286-8.65 13.196-26.175 27.927-22.908 13.878 3.082 15.791 5.917 27.396 8.059 3.011.549 11.532 4.377 5.736 8.435-5.781 4.06-15.085-.016-21.466-6.817-6.388-6.809-13.552-4.209-17.396-1.973-3.83 2.234-27.959 34.001-31.327 50.864-3.367 16.868-15.498 4.319-11.199-3.657z"/><path fill="#C60C84" d="M1101.782 2575.763c-3.271-3.489-6.741-4.501-9.875-4.364 2.645.274 5.439 1.466 8.113 4.306 4.79 5.121 11.238 8.688 16.61 8.415-4.971-.475-10.569-3.791-14.848-8.357zm-59.917 45.239s14.32-24.873 20.335-32.008c6.592-7.818 12.049-22.899 23.926-23.296-13.11-1.118-18.787 15.041-25.696 23.241-6.015 7.134-20.329 32.003-20.329 32.003-2.911 5.396 1.701 12.866 6.027 11.929-3.678-1.005-6.777-7.215-4.263-11.869z"/><path fill="#C60C84" d="M1121.605 2578.99c-5.789 4.061-15.09-.012-21.478-6.818-6.381-6.804-13.55-4.202-17.392-1.97-3.84 2.232-27.956 33.994-31.328 50.868-2.671 13.361-10.839 8.247-11.968 1.585-1.996 7.862 8.717 17.646 11.857 1.942 3.369-16.863 27.498-48.631 31.328-50.864 3.844-2.236 11.008-4.836 17.396 1.972 6.381 6.803 15.687 10.877 21.466 6.818 2.333-1.644 2.344-3.234 1.326-4.598a6.875 6.875 0 0 1-1.207 1.065z"/><path fill="#F95FC2" d="M1044.379 2621.668s27.82-51.492 39.224-54.111c0 0-33.076 33.262-36.974 55.597 0-.002-3.348.516-2.25-1.486zm56.944-50.002s18.654 4.279 17.479 6.563c-1.181 2.282.899-.674-17.479-6.563z"/><path fill="#E52C9A" d="M1251.66 2546.239s-26.76-10.364-35.923-12.141c-11.102-2.153-26.7-12.084-36.114-.298-8.871 11.117-8.576 14.523-16.256 23.477-2 2.314-6.231 10.645.819 10.166 7.058-.475 11.74-9.485 12.438-18.784.69-9.311 7.898-11.788 12.295-12.461 4.388-.666 43.106 8.905 56.314 19.919 13.216 11.012 14.781-6.371 6.427-9.878z"/><path fill="#C60C84" d="M1175.277 2549.811c.364-4.769 2.424-7.736 4.951-9.596-1.89 1.871-3.319 4.559-3.604 8.442-.523 6.992-3.304 13.815-7.645 16.978 3.572-3.491 5.838-9.584 6.298-15.824zm75.042-2.422s-26.758-10.364-35.919-12.142c-10.043-1.941-23.759-10.255-33.25-3.105 9.503-9.105 24.063-.09 34.588 1.956 9.163 1.775 35.923 12.141 35.923 12.141 5.654 2.369 6.754 11.081 2.797 13.07 2.238-3.092.74-9.874-4.139-11.92z"/><path fill="#C60C84" d="M1161.885 2564.769c7.055-.48 11.736-9.487 12.426-18.792.698-9.307 7.906-11.78 12.302-12.454 4.382-.671 43.107 8.9 56.322 19.916 10.476 8.725 13.615-.383 10.31-6.283 6.489 4.867 4.293 19.212-8.01 8.961-13.208-11.014-51.928-20.585-56.314-19.919-4.396.673-11.604 3.15-12.295 12.461-.697 9.3-5.381 18.311-12.438 18.784-2.844.191-3.851-1.041-3.912-2.748.453.088.982.115 1.609.074z"/><path fill="#F95FC2" d="M1248.789 2549.487s-53.986-22.604-64.506-17.481c0 0 46.629 5.122 63.685 20.055 0-.002 2.931-1.707.821-2.574zm-75.724-3.153s-11.83 15.039-9.479 16.078c2.353 1.039-1.121.048 9.479-16.078z"/><path fill="#95CCB0" d="M1061.483 2615.246s-8.847 2.209-9.415 11.759c-.71 11.8 8.095 25.021 12.013 29.87 3.911 4.853 19.859 15.727 31.766 15.188 11.912-.54 40.337.173 48.666-19.018 8.328-19.194 3.022-32.979.684-35.449-2.343-2.477-18.746-20.886-83.714-2.35z"/><path fill="#54A693" d="M1074.223 2661.726c-3.911-4.854-12.712-18.071-12.006-29.871.574-9.546 9.418-11.758 9.418-11.758 37.119-10.596 58.378-9.121 70.228-5.454-7.442-5.384-28.314-14.254-80.38.602 0 0-8.847 2.21-9.415 11.759-.71 11.801 8.095 25.021 12.013 29.871 2.785 3.453 11.678 9.964 20.871 13.229-4.985-2.969-9.007-6.256-10.729-8.378z"/><path fill="#54A693" d="M1143.455 2648.152c-7.918 18.262-34.972 17.587-46.307 18.103-11.338.506-26.509-9.836-30.234-14.458-3.729-4.617-12.097-17.191-11.434-28.419.159-2.619.969-4.64 2.042-6.211-2.437 1.682-5.151 4.687-5.454 9.838-.71 11.8 8.094 25.021 12.014 29.87 3.91 4.853 19.858 15.727 31.765 15.188 11.911-.54 40.337.173 48.666-19.018 6.842-15.768 4.483-27.877 2.123-33.072 1.614 5.912 2.161 15.878-3.181 28.179z"/><path fill="#C1F4D8" d="M1079.148 2625.973s43.431-12.023 50.226-5.259c6.785 6.768 9.328 24.664-2.137 34.455-11.468 9.794 22.269-33.493-48.089-29.196z"/><path fill="#95CCB0" d="M1231.955 2555.052s8.271-3.836 14.722 3.236c7.948 8.742 9.399 24.558 9.401 30.789.002 6.23-5.582 24.709-15.192 31.771-9.608 7.062-31.285 25.465-49.814 15.756-18.53-9.704-23.057-23.764-22.786-27.163.257-3.391 1.466-28.018 63.669-54.389z"/><path fill="#54A693" d="M1251.22 2599.229c.006-6.238-1.445-22.047-9.402-30.791-6.442-7.07-14.709-3.239-14.709-3.239-35.548 15.065-51.173 29.563-58.088 39.857 2.412-8.866 13.095-28.877 62.935-50.005 0 0 8.271-3.836 14.722 3.237 7.948 8.741 9.399 24.557 9.401 30.787-.002 4.439-2.834 15.088-7.938 23.401 2.011-5.439 3.085-10.521 3.079-13.247z"/><path fill="#54A693" d="M1188.821 2632.135c17.635 9.234 38.266-8.273 47.406-14.991 9.145-6.726 14.462-24.302 14.456-30.237 0-5.929-1.376-20.979-8.952-29.295-1.759-1.943-3.665-2.998-5.49-3.551 2.954-.22 6.959.416 10.437 4.229 7.948 8.742 9.399 24.558 9.401 30.789.002 6.23-5.582 24.709-15.192 31.771-9.608 7.062-31.285 25.465-49.813 15.756-15.224-7.973-20.994-18.878-22.418-24.398 2.459 5.604 8.283 13.706 20.165 19.927z"/><path fill="#C1F4D8" d="M1186.215 2592.1s37.693-24.688 46.23-20.315c8.525 4.379 16.404 20.652 8.466 33.469-7.946 12.82 11.005-38.695-54.696-13.154z"/><path fill="#E52C9A" d="M1166.809 2591.414c-4.553 9.398-10.982 12.641-13.296 13.537-2.356.75-9.39 2.266-18.832-2.191-14.939-7.043-105.872 2.325-96.063 23.246 0 0 13.405 37.949 34.531 46.975 21.128 9.029 61.359 2.098 70.54-10.354 9.185-12.461 7.608-43.017 12.953-44.345.659-.162 2.198-.706 2.815-.993 4.994-2.318 22.954 22.448 37.924 26.382 14.963 3.924 50.623-15.943 61.407-36.24 10.772-20.289-2.624-58.235-2.624-58.235-5.5-22.448-82.154 27.356-89.355 42.218zm-22.969 61.106c-8.156 18.78-35.967 18.084-47.622 18.611-11.658.523-27.257-10.114-31.082-14.862-3.834-4.748-12.445-17.682-11.767-29.229.568-9.347 9.224-11.51 9.224-11.51 63.577-18.138 79.622-.119 81.913 2.303 2.289 2.419 7.471 15.913-.666 34.687zm110.994-63.236c0 6.103-5.453 24.177-14.861 31.085-9.404 6.906-30.606 24.916-48.744 15.42-18.137-9.5-22.567-23.255-22.305-26.576.259-3.32 1.441-27.425 62.313-53.229 0 0 8.09-3.754 14.394 3.172 7.782 8.557 9.197 24.026 9.203 30.128z"/><path fill="#C60C84" d="M1144.025 2616.465c-2.292-2.416-18.338-20.437-81.911-2.295 0 0-8.658 2.158-9.223 11.51-.235 4.05.68 8.273 2.122 12.251-1.161-3.572-1.854-7.291-1.642-10.89.567-9.346 9.223-11.51 9.223-11.51 63.576-18.138 79.621-.118 81.912 2.303.519.547 1.18 1.656 1.802 3.251-.747-2.341-1.63-3.927-2.283-4.62zm101.121-58.672c-6.303-6.93-14.392-3.173-14.392-3.173-60.873 25.802-62.056 49.91-62.313 53.229-.069.945.236 2.731 1.126 5.022-.525-1.631-.704-2.909-.643-3.659.258-3.32 1.441-27.425 62.313-53.229 0 0 8.09-3.754 14.393 3.172 2.425 2.664 4.228 5.989 5.572 9.501-1.38-4.001-3.32-7.863-6.056-10.863z"/><path fill="#C60C84" d="M1255.684 2547.828s13.396 37.946 2.624 58.233c-10.784 20.299-46.444 40.166-61.408 36.232-14.97-3.927-32.929-28.689-37.927-26.373-.617.286-2.153.828-2.813.992-5.343 1.333-3.77 31.885-12.957 44.34-9.18 12.46-49.408 19.392-70.535 10.359-21.131-9.026-34.53-46.974-34.53-46.974-.011-.009-.007-.018-.02-.028.13.463.274.926.499 1.394 0 0 13.405 37.949 34.531 46.975 21.128 9.029 61.359 2.098 70.54-10.354 9.185-12.461 7.608-43.017 12.953-44.345.659-.162 2.198-.706 2.815-.993 4.994-2.318 22.954 22.448 37.924 26.382 14.963 3.924 50.623-15.943 61.407-36.24 10.772-20.289-2.624-58.235-2.624-58.235a7.3 7.3 0 0 0-.492-1.398c.003.011.013.017.013.033z"/><g fill="#C60C84"><path d="M1144.996 2617.815c-1.021-1.081-4.895-5.392-14.843-7.963 9.548 2.697 13.332 6.901 14.353 7.979 2.197 2.32 7.047 14.818.267 32.391 7.229-17.56 2.391-30.121.223-32.407zm30.272-24.08c-6.317 8.388-6.63 14.273-6.744 15.772-.252 3.158 3.909 16.088 20.768 25.214-16.508-9.432-20.619-22.31-20.367-25.51.116-1.5.429-7.248 6.343-15.476z"/><path d="M1166.809 2591.414c-4.553 9.398-10.982 12.641-13.296 13.537-2.356.75-9.39 2.266-18.832-2.191-14.939-7.043-105.872 2.325-96.063 23.246 0 0 13.405 37.949 34.531 46.975 21.128 9.029 61.359 2.098 70.54-10.354 2.344-3.183 3.981-7.54 5.219-12.288-1.151 4.104-2.644 7.839-4.704 10.637-8.841 11.996-47.604 18.676-67.97 9.981-20.348-8.698-33.269-45.261-33.269-45.261-9.449-20.164 78.168-29.189 92.555-22.399 9.104 4.291 15.879 2.835 18.152 2.11 2.23-.867 8.423-3.992 12.812-13.046 6.933-14.313 80.796-62.306 86.099-40.686 0 0 12.907 36.566 2.523 56.118-10.387 19.553-44.75 38.697-59.165 34.909-3.36-.884-6.866-2.852-10.336-5.323 3.944 2.918 7.953 5.283 11.774 6.29 14.965 3.923 50.625-15.943 61.408-36.24 10.772-20.289-2.623-58.235-2.623-58.235-5.5-22.446-82.154 27.358-89.355 42.22z"/></g><path fill="#C60C84" d="M1066.149 2659.14c3.828 4.748 19.428 15.387 31.084 14.859 11.651-.524 39.466.17 47.618-18.606 6.604-15.214 4.449-26.951 2.179-32.153 1.715 6.043 2.389 16.421-3.189 29.28-8.156 18.78-35.967 18.084-47.622 18.611-11.658.523-27.257-10.114-31.082-14.862-2.356-2.922-6.517-8.939-9.211-15.824 2.533 8.051 7.541 15.37 10.223 18.695zm-27.069-31.901c-4.466-19.764 82.068-28.466 96.613-21.608 9.442 4.458 16.479 2.943 18.831 2.195 2.313-.902 8.743-4.143 13.302-13.541 6.996-14.461 79.821-62.034 88.756-43.847-.267-.806-.416-1.246-.416-1.246-5.502-22.444-82.156 27.36-89.356 42.222-4.553 9.398-10.981 12.641-13.296 13.537-2.355.75-9.389 2.266-18.832-2.191-14.939-7.043-105.872 2.325-96.063 23.246 0 0 .16.441.461 1.233zm153.16 11.423c18.138 9.494 39.343-8.512 48.747-15.422 9.406-6.913 14.859-24.986 14.859-31.088 0-4.265-.703-13.109-3.778-20.969 2.228 7.051 2.767 14.35 2.767 18.102 0 6.102-5.453 24.176-14.861 31.084-9.404 6.906-30.606 24.916-48.744 15.42-12.419-6.506-18.41-15.007-20.872-20.783 1.491 5.471 7.193 15.96 21.882 23.656z"/><g fill="#F95FC2"><path d="M1054.949 2645.607s-20.717-22.479.53-30.686c21.242-8.223 27.565-7.31 27.565-7.31s-52.019 4.457-28.095 37.996zm66.483-39.833s24.545 3.83 26.484 16.072c1.95 12.248 12.224-14.183-26.484-16.072zm133.824-30.895s2.017-30.506-19.676-23.556c-21.705 6.95-26.041 11.623-26.041 11.623s43.275-29.192 45.717 11.933zm-72.515 9.132s-19.499 15.397-15.18 27.021c4.324 11.623-17.61-6.349 15.18-27.021z"/><path d="M1152.379 2615.879c-.809.773-1.086 3.211 1.608 1.793 2.709-1.42 5.052-5.262 10.862-1.013 5.8 4.24-5.376-7.58-12.47-.78z"/></g></g></svg>