<svg xmlns="http://www.w3.org/2000/svg" id="图层_2" viewBox="0 0 3000 3000"><path fill="#5A6272" d="M576.24 446.795c225.76-356.795 590-114.001 929-142.001s759-256 971 240.001c175.267 410.056-178.462 498.017-136 940 44.296 461.069 418.354 1009.004-123.352 1246.92C1930 2857.717 1512.918 2956 1028.11 2813.283c-255.191-75.123-412.413-299.999-427.505-480.337-26.266-313.843 161.635-461.151 116.635-766.651s-388.898-727.717-141-1119.5z"/><g id="XMLID_501_"><g id="XMLID_475_"><g id="XMLID_472_"><path fill="#E94E1B" d="M1157.117 1610.748l87.459-88.069a37.53 37.53 0 0 1 36.234-9.84l119.995 31.707a37.561 37.561 0 0 1 26.643 26.444l32.548 119.789a37.576 37.576 0 0 1-9.593 36.287l-87.47 88.078a37.55 37.55 0 0 1-36.214 9.842l-120.017-31.708a37.523 37.523 0 0 1-26.632-26.456l-32.536-119.776a37.546 37.546 0 0 1 9.583-36.298z"/><path fill="none" stroke="#FFF" stroke-miterlimit="10" d="M1112.545 1598.98l115.125-115.924a49.4 49.4 0 0 1 47.671-12.949l157.96 41.735a49.434 49.434 0 0 1 35.063 34.806l42.823 157.67a49.418 49.418 0 0 1-12.616 47.765l-115.127 115.924a49.4 49.4 0 0 1-47.671 12.959l-157.959-41.736a49.435 49.435 0 0 1-35.054-34.813l-42.834-157.66a49.44 49.44 0 0 1 12.619-47.777h0z"/><path fill="#E94E1B" d="M1441.92 1624.265s-9.127-22.426-52.354-33.199c-24.136-6.02-59.842-15.176-86.671-22.086-22.955-5.914-47.276.611-64.226 17.186l-85.065 83.232-6.069-22.354 5.78-31.729 91.261-92.639 16.801-9.779 25.648 1.586 113.78 30.062 17.589 10.482 9.054 15.962 14.472 53.276z"/><path fill="#E6332A" d="M1445.515 1637.505s3.481 23.948-28.353 55.129c-17.774 17.401-43.932 43.36-63.582 62.897a67.644 67.644 0 0 1-64.09 17.684l-115.499-28.745 6.08 22.354 21.049 24.438 125.599 33.728 19.424-.072 21.328-14.348 82.933-83.5 9.86-17.941-.27-18.346-14.479-53.278z"/></g><g id="XMLID_481_"><path fill="#662483" d="M1711.568 2517.486l87.47-88.08a37.559 37.559 0 0 1 36.215-9.84l120.016 31.707a37.543 37.543 0 0 1 26.632 26.457l32.537 119.777a37.543 37.543 0 0 1-9.582 36.297l-87.459 88.07a37.545 37.545 0 0 1-36.233 9.84l-119.996-31.707a37.567 37.567 0 0 1-26.643-26.447l-32.548-119.789a37.546 37.546 0 0 1 9.591-36.285z"/><path fill="none" stroke="#FFF" stroke-miterlimit="10" d="M1667.004 2505.719l115.105-115.925a49.451 49.451 0 0 1 47.691-12.959l157.949 41.734a49.384 49.384 0 0 1 35.054 34.816l42.844 157.659a49.413 49.413 0 0 1-12.627 47.765l-115.116 115.934a49.418 49.418 0 0 1-47.682 12.947l-157.96-41.734a49.395 49.395 0 0 1-35.054-34.813l-42.834-157.66a49.377 49.377 0 0 1 12.63-47.764h0z"/><path fill="#662483" d="M1996.369 2530.994s-9.115-22.416-52.354-33.199c-24.137-6.01-59.831-15.166-86.66-22.086a67.667 67.667 0 0 0-64.234 17.188l-85.065 83.24-6.081-22.365 5.802-31.728 91.26-92.639 16.781-9.768 25.669 1.574 113.78 30.061 17.589 10.482 9.043 15.975 14.47 53.265zM1999.975 2544.242s3.47 23.949-28.362 55.119c-17.774 17.402-43.94 43.361-63.582 62.908-16.802 16.709-41.082 23.399-64.089 17.684l-115.488-28.746 6.069 22.354 21.049 24.438 125.59 33.718 19.433-.063 21.34-14.346 82.921-83.502 9.871-17.943-.289-18.354-14.463-53.267z"/></g><g id="XMLID_488_"><path fill="#662483" d="M1288.974 2374.65l61.79-62.225a26.512 26.512 0 0 1 25.596-6.951l84.776 22.396a26.526 26.526 0 0 1 18.812 18.688l22.996 84.62a26.545 26.545 0 0 1-6.773 25.647l-61.789 62.216a26.558 26.558 0 0 1-25.599 6.961l-84.774-22.408a26.52 26.52 0 0 1-18.812-18.687l-22.997-84.618a26.523 26.523 0 0 1 6.774-25.639z"/><path fill="none" stroke="#FFF" stroke-miterlimit="10" d="M1257.484 2366.332l81.337-81.896a34.907 34.907 0 0 1 33.676-9.156l111.595 29.491a34.895 34.895 0 0 1 24.769 24.592l30.258 111.387a34.91 34.91 0 0 1-8.907 33.75l-81.337 81.896a34.897 34.897 0 0 1-33.688 9.146l-111.583-29.48a34.931 34.931 0 0 1-24.777-24.592l-30.248-111.387a34.89 34.89 0 0 1 8.905-33.751h0z"/><path fill="#662483" d="M1490.181 2384.191s-6.442-15.84-36.99-23.453c-17.05-4.246-42.274-10.721-61.229-15.6-16.211-4.187-33.396.424-45.371 12.141l-60.103 58.805-4.288-15.795 4.092-22.418 64.474-65.444 11.86-6.909 18.128 1.118 80.384 21.235 12.43 7.406 6.383 11.28 10.23 37.634zM1492.72 2393.545s2.454 16.927-20.034 38.949c-12.555 12.295-31.035 30.629-44.915 44.438a47.808 47.808 0 0 1-45.278 12.491l-81.596-20.313 4.3 15.797 14.864 17.271 88.723 23.823 13.734-.053 15.063-10.131 58.59-58.992 6.972-12.68-.197-12.969-10.226-37.631z"/></g><g id="XMLID_494_"><path fill="#F9B233" d="M1549.133 2117.941l36.142-36.4a15.513 15.513 0 0 1 14.979-4.071l49.598 13.104a15.514 15.514 0 0 1 11.001 10.931l13.455 49.504a15.522 15.522 0 0 1-3.968 15l-36.15 36.399a15.497 15.497 0 0 1-14.958 4.07l-49.599-13.104a15.505 15.505 0 0 1-11.01-10.938l-13.457-49.493a15.514 15.514 0 0 1 3.967-15.002z"/><path fill="none" stroke="#FFF" stroke-miterlimit="10" d="M1530.715 2113.072l47.576-47.908a20.403 20.403 0 0 1 19.703-5.355l65.28 17.247a20.408 20.408 0 0 1 14.481 14.389l17.714 65.156a20.441 20.441 0 0 1-5.222 19.743l-47.578 47.908a20.395 20.395 0 0 1-19.701 5.355l-65.28-17.246a20.424 20.424 0 0 1-14.492-14.389l-17.692-65.157a20.37 20.37 0 0 1 5.211-19.743z"/><path fill="#F39200" d="M1666.838 2123.524s-3.771-9.271-21.64-13.726c-9.976-2.486-24.726-6.268-35.81-9.125a27.958 27.958 0 0 0-26.551 7.104l-35.156 34.399-2.518-9.238 2.402-13.114 37.706-38.285 6.938-4.041 10.607.652 47.029 12.42 7.271 4.33 3.729 6.601 5.993 22.023zM1668.33 2128.993s1.43 9.903-11.727 22.78c-7.345 7.198-18.148 17.919-26.27 25.999a27.969 27.969 0 0 1-26.498 7.304l-47.732-11.872 2.518 9.229 8.69 10.1 51.918 13.943 8.018-.031 8.825-5.926 34.268-34.514 4.08-7.418-.113-7.582-5.977-22.012z"/></g><g id="XMLID_476_"><path fill="#F9B233" d="M1805.439 1829.927l132.881-133.805a56.99 56.99 0 0 1 55.025-14.947l182.313 48.168a57.029 57.029 0 0 1 40.46 40.182l49.433 181.961a57.03 57.03 0 0 1-14.563 55.141l-132.872 133.794c-14.347 14.46-35.333 20.155-55.023 14.957l-182.304-48.168c-19.702-5.211-35.138-20.531-40.473-40.183l-49.441-181.971a56.996 56.996 0 0 1 14.564-55.129z"/><path fill="none" stroke="#FFF" stroke-miterlimit="10" d="M1737.735 1812.05l174.885-176.109a75.066 75.066 0 0 1 72.43-19.682l239.959 63.396a75.086 75.086 0 0 1 53.265 52.891l65.073 239.515a75.075 75.075 0 0 1-19.186 72.563l-174.875 176.108a75.066 75.066 0 0 1-72.429 19.682l-239.969-63.396a75.093 75.093 0 0 1-53.255-52.893l-65.073-239.514a75.037 75.037 0 0 1 19.175-72.561h0z"/><path fill="#F39200" d="M2238.101 1850.447s-13.851-34.059-79.534-50.436c-36.66-9.137-90.896-23.048-131.658-33.541-34.867-8.992-71.828.922-97.568 26.094l-129.235 126.458-9.229-33.966 8.805-48.199 138.642-140.732 25.504-14.854 38.979 2.404 172.857 45.67 26.715 15.922 13.745 24.26 21.977 80.92zM2243.57 1870.564s5.284 36.391-43.082 83.74c-26.993 26.444-66.739 65.881-96.573 95.568-25.534 25.391-62.432 35.553-97.371 26.86l-175.456-43.672 9.229 33.965 31.979 37.116 190.798 51.232 29.511-.104 32.413-21.795 125.973-126.854 15-27.253-.437-27.887-21.984-80.916z"/></g><path fill="none" stroke="#FFF" stroke-miterlimit="10" d="M1707.713 1841.302l-197.457-108.063M2123.15 2236.384l-115.623 193.127M1655.61 2524.531l-118.13-63.924M1496.894 2311.244l57.128-99.733"/></g><path fill="#E94E1B" d="M2355.444 2057.135c-21.007 5.709-42.656-6.691-48.354-27.699-5.719-21.008 6.691-42.656 27.699-48.363 20.998-5.709 42.656 6.69 48.354 27.698 5.719 21.007-6.693 42.656-27.699 48.364zM2266.649 1730.287c-21.007 5.707-42.657-6.703-48.375-27.698-5.697-21.009 6.703-42.668 27.7-48.375 21.007-5.707 42.667 6.7 48.375 27.709 5.707 20.998-6.693 42.657-27.7 48.364zM1728.307 1876.541c-21.007 5.709-42.656-6.69-48.375-27.697-5.697-20.997 6.703-42.657 27.699-48.365 21.009-5.707 42.668 6.692 48.375 27.7 5.707 21.004-6.691 42.655-27.699 48.362zM1518.336 1762.989c-15.602 4.247-31.697-4.972-35.944-20.582-4.235-15.61 4.972-31.708 20.593-35.956 15.61-4.235 31.698 4.983 35.945 20.594 4.246 15.61-4.973 31.707-20.594 35.944zM1460.823 1551.267c-15.62 4.236-31.718-4.982-35.954-20.592-4.236-15.611 4.981-31.699 20.582-35.946 15.621-4.236 31.719 4.973 35.955 20.583 4.239 15.621-4.982 31.709-20.583 35.955zM1257.453 1498.459c-15.61 4.248-31.709-4.973-35.957-20.582-4.236-15.611 4.983-31.709 20.594-35.945 15.61-4.247 31.707 4.972 35.943 20.583 4.248 15.61-4.97 31.707-20.58 35.944zM1369.026 1909.14c-15.609 4.236-31.697-4.973-35.943-20.594-4.246-15.609 4.973-31.697 20.594-35.944 15.6-4.237 31.697 4.983 35.943 20.593 4.236 15.611-4.983 31.697-20.594 35.945zM1164.359 1854.808c-15.62 4.248-31.718-4.973-35.955-20.582-4.237-15.61 4.982-31.709 20.583-35.955 15.621-4.237 31.719 4.982 35.955 20.593 4.237 15.611-4.983 31.708-20.583 35.944zM1107.925 1647.136c-15.601 4.248-31.698-4.971-35.945-20.582-4.235-15.609 4.974-31.708 20.593-35.943 15.611-4.248 31.698 4.971 35.945 20.582 4.247 15.609-4.973 31.707-20.593 35.943zM1813.838 2191.375c-21.008 5.707-42.666-6.692-48.363-27.699-5.708-21.008 6.691-42.668 27.699-48.376 21.008-5.696 42.656 6.702 48.363 27.711 5.709 20.996-6.701 42.655-27.699 48.364zM2125.564 2276.574c-21.007 5.707-42.656-6.703-48.376-27.699-5.696-21.008 6.703-42.668 27.7-48.375 21.008-5.707 42.667 6.701 48.375 27.699 5.707 21.008-6.691 42.668-27.699 48.375zM2014.104 2453.738c-13.674 3.721-27.782-4.361-31.501-18.045-3.718-13.684 4.362-27.791 18.046-31.51s27.792 4.359 31.512 18.045c3.716 13.682-4.364 27.791-18.057 31.51zM2069.791 2658.685c-13.684 3.719-27.781-4.359-31.511-18.045-3.708-13.684 4.371-27.791 18.045-31.51 13.694-3.719 27.804 4.358 31.511 18.045 3.72 13.682-4.359 27.793-18.045 31.51zM1922.531 2812.379c-13.693 3.72-27.792-4.362-31.511-18.045-3.718-13.686 4.36-27.782 18.046-31.502 13.684-3.719 27.792 4.361 31.512 18.045 3.707 13.685-4.373 27.793-18.047 31.502zM1810.948 2401.709c-13.674 3.718-27.782-4.362-31.511-18.047-3.709-13.684 4.37-27.793 18.044-31.512 13.694-3.718 27.804 4.361 31.512 18.045 3.73 13.686-4.35 27.793-18.045 31.514zM1660.852 2543.841c-13.674 3.719-27.782-4.363-31.512-18.045-3.708-13.687 4.371-27.793 18.056-31.513 13.685-3.719 27.792 4.361 31.5 18.045 3.729 13.683-4.35 27.793-18.044 31.513z"/><circle cx="1534.444" cy="2450.516" r="25.677" fill="#E94E1B"/><path fill="#E94E1B" d="M1439.496 2588.453c-13.685 3.719-27.793-4.358-31.512-18.045-3.72-13.693 4.36-27.791 18.057-31.51 13.672-3.719 27.781 4.359 31.5 18.045 3.719 13.682-4.361 27.793-18.045 31.51zM1290.932 2543.291c-13.684 3.718-27.792-4.36-31.512-18.057-3.719-13.684 4.361-27.781 18.045-31.5s27.791 4.361 31.511 18.045c3.719 13.684-4.361 27.793-18.044 31.512zM1253.113 2404.091c-13.684 3.719-27.793-4.361-31.511-18.045-3.709-13.685 4.361-27.793 18.045-31.513 13.694-3.719 27.792 4.361 31.512 18.045 3.716 13.683-4.362 27.791-18.046 31.513zM1361.164 2300.119c-13.686 3.719-27.793-4.361-31.512-18.045-3.72-13.684 4.36-27.781 18.044-31.5 13.685-3.719 27.793 4.361 31.513 18.045 3.719 13.683-4.361 27.791-18.045 31.5zM1509.448 2327.943c-13.684 3.719-27.781-4.361-31.511-18.045-3.709-13.684 4.371-27.793 18.045-31.512 13.694-3.719 27.804 4.361 31.511 18.045 3.73 13.684-4.35 27.792-18.045 31.512zM1557.781 2225.319c-8.961 2.436-18.189-2.849-20.624-11.799-2.435-8.96 2.849-18.188 11.811-20.614 8.948-2.434 18.179 2.851 20.612 11.799 2.435 8.961-2.847 18.189-11.799 20.614zM1637.068 2242.566c-8.948 2.436-18.179-2.85-20.612-11.799-2.436-8.96 2.857-18.189 11.809-20.613 8.949-2.434 18.18 2.848 20.613 11.799 2.434 8.961-2.86 18.189-11.81 20.613zM1702.069 2180.901c-8.96 2.435-18.18-2.858-20.624-11.81-2.424-8.949 2.859-18.181 11.81-20.613 8.949-2.436 18.189 2.849 20.613 11.809 2.444 8.95-2.849 18.18-11.799 20.614zM1679.082 2096.302c-8.949 2.423-18.189-2.858-20.613-11.811-2.434-8.949 2.849-18.18 11.809-20.613 8.95-2.435 18.18 2.851 20.614 11.81 2.424 8.949-2.861 18.179-11.81 20.614zM1591.83 2076.06c-8.959 2.436-18.18-2.859-20.623-11.809-2.424-8.95 2.858-18.181 11.81-20.614 8.959-2.436 18.188 2.849 20.613 11.81 2.444 8.949-2.849 18.18-11.8 20.613zM1526.81 2137.664c-8.949 2.435-18.169-2.849-20.613-11.799-2.424-8.961 2.858-18.188 11.81-20.625 8.949-2.424 18.188 2.86 20.613 11.812 2.433 8.958-2.85 18.188-11.81 20.612zM1719.42 2759.394c-13.686 3.717-27.782-4.361-31.512-18.047-3.709-13.685 4.371-27.791 18.045-31.51 13.693-3.72 27.803 4.358 31.511 18.045 3.72 13.684-4.36 27.794-18.044 31.512zM1956.125 1652.939c-20.996 5.707-42.655-6.693-48.363-27.699-5.708-20.998 6.689-42.658 27.697-48.365 21.009-5.707 42.658 6.691 48.377 27.699 5.696 21.007-6.703 42.656-27.711 48.365z"/></g><g id="XMLID_98_"><g id="XMLID_82_"><g id="XMLID_88_"><path fill="#FFF" d="M736.748 547.702c160.233-65.377 343.127 11.522 408.502 171.753 65.379 160.238-11.516 343.134-171.75 408.511-160.233 65.377-343.125-11.522-408.505-171.763-65.376-160.23 11.518-343.123 171.753-408.501zM1247.742 310.942c113.123-46.155 242.246 8.129 288.405 121.262 46.155 113.123-8.133 242.253-121.256 288.408-113.128 46.158-242.255-8.137-288.41-121.26-46.158-113.133 8.134-242.253 121.261-288.41zM1280.61 1041.875c139.561-56.942 298.861 10.027 355.805 149.593 56.943 139.564-10.037 298.859-149.599 355.802-139.565 56.944-298.86-10.027-355.805-149.593s10.034-298.86 149.599-355.802z" opacity=".25"/><g id="XMLID_84_"><g id="XMLID_4_"><path fill="#E94E1B" d="M1270.043 365.596c81.946-33.437 175.486 5.893 208.926 87.849 33.436 81.947-5.893 175.487-87.84 208.922-81.953 33.438-175.493-5.891-208.928-87.838-33.44-81.956 5.889-175.495 87.842-208.933z"/></g><path fill="#E6332A" d="M1311.281 638.772a159.967 159.967 0 0 1-67.008 11.767c42.225 26.229 95.973 32.59 145.516 12.375 82.122-33.507 121.536-127.242 88.026-209.373-24.543-60.153-81.415-97.35-142.354-99.793 27.763 17.246 50.557 43.075 63.851 75.658 33.507 82.123-5.905 175.857-88.031 209.366z" opacity=".42"/><g id="XMLID_5_"><path fill="#F9B233" d="M756.199 608.666c127.608-52.065 273.264 9.175 325.33 136.786 52.067 127.613-9.173 273.268-136.781 325.332-127.612 52.067-273.267-9.172-325.334-136.785-52.065-127.612 9.174-273.266 136.785-325.333z"/></g><path fill="#F39200" d="M822.109 1033.156c-34.133 13.928-69.548 19.673-104.127 18.289 65.612 40.764 149.132 50.641 226.115 19.23 127.608-52.065 188.848-197.729 136.784-325.333-38.142-93.484-126.513-151.275-221.205-155.074 43.147 26.806 78.563 66.929 99.218 117.554 52.067 127.613-9.176 273.27-136.785 325.334z" opacity=".42"/><g id="XMLID_6_"><path fill="#F9B233" d="M1307.531 1107.856c103.121-42.074 220.824 7.417 262.896 110.533 42.071 103.116-7.412 220.821-110.534 262.896-103.121 42.074-220.823-7.416-262.896-110.533-42.071-103.116 7.413-220.822 110.534-262.896z"/></g><path fill="#F39200" d="M1362.666 1450.738c-27.588 11.256-56.211 15.902-84.157 14.781 53.026 32.938 120.528 40.921 182.75 15.535 103.134-42.08 152.632-159.802 110.554-262.937-30.828-75.555-102.251-122.266-178.784-125.327 34.873 21.661 63.495 54.09 80.192 95.012 42.079 103.135-7.419 220.856-110.555 262.936z" opacity=".42"/><path fill="#FFE1B0" d="M619.156 933.365c7.395 18.12 16.731 34.85 27.576 50.152 14.7-2.279 29.364-6.084 43.736-11.948 99.299-40.515 146.953-153.854 106.438-253.149-16.153-39.593-43.991-70.793-77.79-91.646-102.043 62.842-146.724 191.974-99.96 306.591z" opacity=".47"/><path fill="#FFE1B0" d="M1195.272 1366.522c5.859 14.359 13.252 27.614 21.85 39.742 11.646-1.804 23.271-4.824 34.658-9.472 78.69-32.105 116.455-121.918 84.35-200.607-12.801-31.375-34.86-56.096-61.646-72.626-80.865 49.803-116.273 152.129-79.212 242.963z" opacity=".47"/><g id="XMLID_17_"><path fill="#F39200" d="M1361.854 1313.561c10.493-4.281 22.471.751 26.752 11.244 4.282 10.493-.753 22.478-11.247 26.759-10.493 4.281-22.475-.76-26.756-11.253s.758-22.467 11.251-26.75z" opacity=".56"/><path fill="#E94E1B" d="M1366.93 1318.007c8.947-3.65 19.168.649 22.818 9.598 3.649 8.948-.646 19.17-9.593 22.82-8.952 3.651-19.171-.648-22.821-9.597-3.65-8.945.644-19.17 9.596-22.821z"/></g><g id="XMLID_23_"><path fill="#F39200" d="M1492.252 1175.297c10.494-4.282 22.468.752 26.75 11.244 4.28 10.493-.754 22.468-11.248 26.75-10.498 4.281-22.476-.75-26.756-11.243-4.281-10.495.758-22.47 11.254-26.751z" opacity=".56"/><path fill="#E94E1B" d="M1497.323 1179.741c8.951-3.651 19.164.643 22.818 9.599 3.653 8.955-.644 19.158-9.597 22.812-8.95 3.652-19.159-.633-22.813-9.588-3.651-8.958.642-19.171 9.592-22.823z"/></g><g id="XMLID_26_"><path fill="#F39200" d="M1364.11 1137.865c10.493-4.281 22.475.762 26.756 11.254 4.282 10.493-.757 22.47-11.25 26.75-10.492 4.281-22.471-.752-26.752-11.244-4.282-10.493.751-22.479 11.246-26.76z" opacity=".56"/><path fill="#E94E1B" d="M1369.185 1142.32c8.952-3.652 19.168.641 22.822 9.598 3.649 8.945-.647 19.159-9.599 22.813-8.947 3.65-19.164-.642-22.813-9.588-3.654-8.958.643-19.173 9.59-22.823z"/></g><g id="XMLID_29_"><path fill="#F39200" d="M1235.15 1359.25c10.493-4.281 22.476.761 26.756 11.254 4.281 10.492-.757 22.469-11.25 26.75-10.493 4.28-22.472-.751-26.753-11.244s.753-22.48 11.247-26.76z" opacity=".56"/><path fill="#E94E1B" d="M1240.229 1363.702c8.952-3.651 19.165.643 22.818 9.599 3.65 8.947-.644 19.159-9.596 22.812-8.951 3.652-19.166-.639-22.817-9.586-3.654-8.958.643-19.173 9.595-22.825z"/></g><g id="XMLID_32_"><path fill="#F39200" d="M1498.744 1359.196c10.493-4.28 22.472.751 26.752 11.244 4.281 10.493-.754 22.479-11.246 26.759-10.493 4.281-22.476-.76-26.756-11.253-4.281-10.493.756-22.469 11.25-26.75z" opacity=".56"/><path fill="#E94E1B" d="M1503.821 1363.639c8.951-3.651 19.168.651 22.818 9.599 3.65 8.946-.641 19.168-9.591 22.819-8.952 3.651-19.173-.647-22.823-9.595s.644-19.169 9.596-22.823z"/></g><g id="XMLID_35_"><path fill="#F39200" d="M1263.33 1200.121c10.494-4.28 22.476.761 26.756 11.254 4.281 10.492-.756 22.469-11.25 26.75-10.493 4.28-22.471-.752-26.752-11.244-4.281-10.494.754-22.479 11.246-26.76z" opacity=".56"/><path fill="#E94E1B" d="M1268.41 1204.574c8.946-3.649 19.164.643 22.817 9.598 3.649 8.946-.647 19.162-9.595 22.813-8.952 3.652-19.168-.641-22.818-9.588-3.654-8.957.645-19.171 9.596-22.823z"/></g><g id="XMLID_41_"><path fill="#F39200" d="M746.453 968.1c13.146-5.364 28.153.945 33.517 14.088 5.366 13.151-.944 28.158-14.091 33.522-13.143 5.361-28.148-.947-33.516-14.1-5.363-13.141.948-28.146 14.09-33.51z" opacity=".56"/><path fill="#E94E1B" d="M752.815 973.673c11.21-4.573 24.007.803 28.583 12.018 4.575 11.214-.805 24.019-12.014 28.591-11.214 4.576-24.016-.81-28.591-12.022-4.575-11.217.808-24.012 12.022-28.587z"/></g><g id="XMLID_44_"><path fill="#F39200" d="M648.161 822.273c13.147-5.364 28.154.945 33.521 14.097 5.361 13.144-.948 28.149-14.095 33.514-13.147 5.364-28.149-.946-33.513-14.089-5.365-13.153.941-28.158 14.087-33.522z" opacity=".56"/><path fill="#E94E1B" d="M654.523 827.854c11.214-4.575 24.012.802 28.587 12.016 4.576 11.216-.808 24.011-12.021 28.585-11.209 4.573-24.008-.803-28.583-12.018-4.576-11.214.807-24.009 12.017-28.583z"/></g><g id="XMLID_47_"><path fill="#F39200" d="M742.295 698.479c13.146-5.364 28.152.945 33.516 14.089 5.366 13.15-.944 28.158-14.09 33.522-13.147 5.363-28.154-.946-33.521-14.098-5.362-13.142.948-28.148 14.095-33.513z" opacity=".56"/><path fill="#E94E1B" d="M748.652 704.052c11.214-4.576 24.013.802 28.587 12.016 4.576 11.215-.804 24.018-12.018 28.594-11.21 4.574-24.012-.812-28.587-12.025s.808-24.01 12.018-28.585z"/></g><g id="XMLID_50_"><path fill="#F39200" d="M930.037 679.502c13.146-5.363 28.154.945 33.518 14.089 5.366 13.149-.944 28.157-14.091 33.521s-28.149-.948-33.516-14.099c-5.362-13.142.943-28.147 14.089-33.511z" opacity=".56"/><path fill="#E94E1B" d="M936.4 685.073c11.209-4.573 24.011.813 28.583 12.019 4.575 11.214-.805 24.018-12.014 28.592-11.215 4.576-24.016-.811-28.592-12.025-4.572-11.207.808-24.01 12.023-28.586z"/></g><g id="XMLID_62_"><path fill="#F39200" d="M1263.228 393.76c13.147-5.364 28.153.944 33.519 14.097 5.362 13.144-.945 28.149-14.094 33.514-13.146 5.364-28.15-.947-33.512-14.09-5.365-13.154.939-28.158 14.087-33.521z" opacity=".56"/><path fill="#BE1622" d="M1269.593 399.338c11.21-4.573 24.007.805 28.583 12.02 4.574 11.214-.807 24.009-12.018 28.583-11.215 4.575-24.013-.802-28.588-12.016-4.576-11.216.809-24.012 12.023-28.587z"/></g><g id="XMLID_65_"><path fill="#F39200" d="M1426.412 507.201c13.147-5.363 28.154.946 33.517 14.088 5.364 13.151-.943 28.158-14.091 33.522-13.146 5.364-28.149-.948-33.516-14.099-5.361-13.141.944-28.147 14.09-33.511z" opacity=".56"/><path fill="#BE1622" d="M1432.774 512.773c11.21-4.574 24.012.813 28.586 12.026 4.572 11.205-.807 24.009-12.018 28.583-11.214 4.576-24.016-.812-28.587-12.017-4.575-11.213.805-24.017 12.019-28.592z"/></g><g id="XMLID_77_"><path fill="#F39200" d="M1317.86 482.795c13.143-5.362 28.149.946 33.516 14.099 5.361 13.143-.946 28.149-14.09 33.512-13.146 5.364-28.154-.944-33.517-14.088-5.366-13.154.944-28.16 14.091-33.523z" opacity=".56"/><path fill="#BE1622" d="M1324.217 488.367c11.21-4.574 24.011.813 28.586 12.026 4.574 11.214-.807 24.009-12.018 28.583-11.215 4.575-24.013-.802-28.588-12.016-4.574-11.214.806-24.018 12.02-28.593z"/></g><g id="XMLID_68_"><path fill="#F39200" d="M1334.653 592.01c13.146-5.364 28.151.937 33.518 14.087 5.365 13.15-.948 28.15-14.096 33.514-13.146 5.364-28.15-.937-33.516-14.089-5.366-13.15.947-28.147 14.094-33.512z" opacity=".56"/><circle cx="1349.293" cy="617.884" r="21.925" fill="#BE1622"/></g><g id="XMLID_71_"><path fill="#F39200" d="M1380.17 381.984c13.147-5.364 28.154.946 33.521 14.097 5.362 13.144-.946 28.15-14.094 33.515-13.144 5.361-28.149-.948-33.513-14.091-5.365-13.151.944-28.159 14.086-33.521z" opacity=".56"/><path fill="#BE1622" d="M1386.532 387.555c11.209-4.574 24.011.812 28.587 12.025 4.571 11.206-.809 24.01-12.019 28.583-11.215 4.575-24.015-.81-28.587-12.016-4.574-11.213.805-24.016 12.019-28.592z"/></g><g id="XMLID_74_"><path fill="#F39200" d="M1206.354 489.543c13.143-5.362 28.15.947 33.512 14.09 5.362 13.142-.947 28.149-14.09 33.512-13.146 5.364-28.154-.946-33.516-14.089-5.362-13.144.947-28.15 14.094-33.513z" opacity=".56"/><path fill="#BE1622" d="M1212.711 495.115c11.214-4.574 24.007.805 28.582 12.02 4.576 11.214-.803 24.007-12.018 28.583-11.214 4.575-24.012-.802-28.587-12.017s.808-24.011 12.023-28.586z"/></g><g id="XMLID_53_"><path fill="#F39200" d="M877.334 844.228c13.144-5.362 28.149.947 33.516 14.099 5.361 13.143-.947 28.149-14.089 33.513-13.147 5.363-28.154-.946-33.517-14.09-5.367-13.151.944-28.157 14.09-33.522z" opacity=".56"/><path fill="#E94E1B" d="M883.696 849.81c11.21-4.574 24.008.803 28.583 12.018 4.576 11.215-.807 24.01-12.018 28.582-11.214 4.575-24.013-.802-28.587-12.016-4.576-11.215.808-24.009 12.022-28.584z"/></g><g id="XMLID_56_"><path fill="#F39200" d="M1018.398 797.525c13.147-5.364 28.155.945 33.517 14.088 5.366 13.15-.943 28.158-14.09 33.522-13.147 5.364-28.154-.946-33.52-14.097-5.363-13.142.945-28.149 14.093-33.513z" opacity=".56"/><path fill="#E94E1B" d="M1024.756 803.097c11.214-4.575 24.015.811 28.587 12.016 4.575 11.214-.806 24.02-12.02 28.594-11.21 4.574-24.011-.813-28.586-12.025-4.571-11.208.808-24.009 12.019-28.585z"/></g><g id="XMLID_59_"><path fill="#F39200" d="M893.675 1001.444c13.146-5.364 28.153.945 33.52 14.097 5.362 13.144-.948 28.149-14.095 33.514-13.146 5.363-28.153-.944-33.516-14.087-5.365-13.153.945-28.16 14.091-33.524z" opacity=".56"/><path fill="#E94E1B" d="M900.032 1007.017c11.214-4.575 24.016.81 28.591 12.023 4.575 11.215-.809 24.01-12.021 28.584-11.21 4.573-24.007-.803-28.583-12.018-4.576-11.212.804-24.014 12.013-28.589z"/></g><g id="XMLID_38_"><path fill="#F39200" d="M1378.049 1442.942c10.492-4.282 22.468.742 26.753 11.244 4.28 10.493-.757 22.469-11.251 26.75-10.493 4.281-22.471-.751-26.752-11.244-4.285-10.502.757-22.469 11.25-26.75z" opacity=".56"/><path fill="#E94E1B" d="M1383.125 1447.385c8.946-3.65 19.164.642 22.814 9.589 3.654 8.956-.645 19.17-9.592 22.82-8.952 3.651-19.167-.64-22.822-9.596-3.65-8.944.647-19.16 9.6-22.813z"/></g><path fill="none" stroke="#FFF" stroke-miterlimit="10" d="M1063.515 701.3l181.006-118.264"/></g></g><path fill="#FFF" d="M713.95 840.398c57.569-23.489 123.277 4.134 146.769 61.707 23.486 57.565-4.139 123.279-61.708 146.768-57.569 23.489-123.285-4.141-146.772-61.705-23.491-57.574 4.143-123.282 61.711-146.77z" opacity=".35"/><circle cx="816.402" cy="742.929" r="65.249" fill="#FFF" opacity=".35"/><path fill="#FFF" d="M1221.405 1267.808c45.951-18.749 98.399 3.3 117.148 49.251 18.748 45.951-3.301 98.407-49.252 117.155-45.956 18.751-98.409-3.308-117.158-49.259-18.749-45.949 3.305-98.397 49.262-117.147zM1286.281 312.878c37.647-15.36 80.622 2.701 95.982 40.349 15.364 37.655-2.709 80.625-40.357 95.984-37.646 15.36-80.622-2.699-95.985-40.355-15.361-37.648 2.713-80.618 40.36-95.978zM1362.817 449.849c27.649-11.281 59.212 1.994 70.493 29.643s-1.99 59.206-29.64 70.487c-27.652 11.283-59.207-1.985-70.488-29.634-11.281-27.649 1.98-59.211 29.635-70.496zM1430.649 1267.568c26.632-10.866 57.03 1.911 67.896 28.543 10.865 26.634-1.918 57.028-28.549 67.896-26.633 10.865-57.03-1.91-67.896-28.544-10.867-26.633 1.916-57.029 28.549-67.895z" opacity=".35"/></g><path fill="none" stroke="#FFF" stroke-miterlimit="10" d="M1027.627 977.918l220.442 194.061"/></g></svg>