<svg xmlns="http://www.w3.org/2000/svg" id="图层_3" viewBox="0 0 3000 3000"><path fill="#CEA345" d="M1127.647 2518.595C1256.041 2478.552 1426 2478 1546 2482s195.051 4.475 325.569 17.744c130.52 13.27 186.97 16.256 240.431 62.256 66.498 57.22 128.493 4 186.246 98C2356 2754 1952 2848 1708 2852s-510-16-594-42-52-40-152-68-74-108 16-132 37.582-56.452 149.647-91.405z"/><path fill="#C6A612" d="M1981.695 2651.082h59.448c-15.951-63.215-113.753-48.229-113.753-48.229s15.733 11.035 50.067 44.411a84.223 84.223 0 0 0 4.238 3.818z"/><path fill="#AF8A3F" d="M1805.465 2493.693s213.961 4.822 271.785 44.522 58.611 44.163 81.72 49.413c23.107 5.25 58.807 4.054 96.918 26.546 38.11 22.491 38.112 51.159-18.556 73.159-56.666 22-74 4.666-242 34.666s-134.666 81.334-286.666 100.666c-170.119 21.638-260-17.334-418.666-32-158.668-14.666-210.668-16.668-264.668-42.668s-130.666-48.664-108.666-62.664 112 31.996 153.332 45.33c41.334 13.334 152.668 3.334 224.668 4.668 72 1.332 284 16.666 242.666 0-41.332-16.668-57.332-24.668-110.666-22.668s-137.334-43.492-108.668-54.412c28.666-10.921 156-24.004 239.334-30.129s228.668 7.21 276.668-22.79-84-12.666-135.334-18c-51.334-5.332-85.332-43.33 4-45.996C1792 2538.668 1870 2544.002 1876 2524c6.112-20.375-1.067-14.615-70.535-30.307z"/><path fill="#564563" d="M2174.727 124.342h-31.178c-89.576 79.733-182.754 228.055-222.66 322.205-44.489 104.935-49.051 117.485-49.051 117.485-37.642-157.403 79.265-382.371 79.265-382.371 7.897-24.179 19.406-43.044 30.774-57.318h-8.834c-9.25 14.395-16.188 28.96-25.351 35.064-10.444 6.957-3.851-15.237 3.52-35.064h-1.522c-30.865 68.165-109.307 246.7-127.742 339.605-23.097 116.324 18.806 281.427-16.26 276.293-35.066-5.133-47.896-74.422-88.958-130.878-41.059-56.458-33.36-162.537-33.36-162.537-25.661 47.056 7.119 154.837 7.119 154.837-63.865-127.74-124.323-174.505-124.323-174.505 184.771 236.096 232.687 579.973 246.36 709.989 13.692 130.037 29.092 445.687 11.125 542.342-17.963 96.665-10.686 227.113-3.849 272.452 6.836 45.331-4.992 17.253-4.992 17.253-130.155-213.147-192.188-230.251-192.188-230.251s35.928 21.522 75.854 85.397c39.916 63.876 71.854 163.097 141.434 278.298 69.569 115.189 41.063 299.68 26.507 446.809-10.656 107.882-53.892 139.431-53.892 139.431-15.397 15.827-49.894 29.662-49.894 29.662 107.782-.861 198.735-61.029 235.806-49.62 37.07 11.406 100.225 7.769 100.225 7.769-69.932-5.344-67.146-42.123-67.146-42.123 30.796-230.542-57.317-646.272-82.12-742.077-24.801-95.804 14.535-210.432 14.535-210.432 58.184-244.656 333.332-259.191 333.332-259.191-129.453-7.419-198.451 37.631-198.451 37.631 132.031-117.005 149.793-237.428 148.261-300.311 26.854.61 31.958-37.963 31.958-37.963-22.144 8.881-29.762 20.77-32.329 28.85-.4-7.106-1.021-13.271-1.694-18.374 32.329-3.389 30.264-49.882 30.264-49.882-26.894 16.751-31.166 34.143-31.234 43.326-1.103-6.717-2.086-10.365-2.086-10.365.041.781.061 1.583.08 2.385-8.119-24.619-46.533-27.837-46.533-27.837 17.404 38.013 40.64 39.056 46.596 38.644-.223 8.801-1.034 17.874-2.407 27.126-8.54-23.568-45.872-22.705-45.872-22.705 17.903 30.163 37.252 31.605 44.51 30.906-17.703 97.928-93.971 213.93-164.039 257.707-82.121 51.324-126.59 141.144-126.59 141.144s8.541-59.867-8.561-253.196c-17.102-193.331-17.784-389.881-17.784-389.881 10.914-530.875 197.999-744.075 253.375-795.729z"/><path fill="#403C4C" d="M1931.143 2639.828c44.479-42.193-22.807 13.693-60.447 39.928-37.643 26.232-41.061 13.684-13.682-34.213 27.365-47.907 46.753-247.504 41.059-347.868-5.703-100.374-36.499-199.597-67.294-239.522-30.795-39.918-109.497-201.871-127.739-240.656-18.257-38.773 57.019 80.986 90.099 148.271 33.081 67.294 39.916 39.917 33.081-9.123-6.846-49.039-7.979-223.543 7.979-323.917 15.969-100.365 5.703-388.928-3.419-465.344-9.12-76.428-38.784-275.731-110.64-469.905-71.854-194.193 30.796 30.795 94.952 76.987 64.153 46.192 21.392-126.608 12.832-232.688-4.472-55.484 28.989-176.069 61.909-278.447-28.851 70.893-57.642 148.973-67.885 200.618-23.098 116.324 18.805 281.427-16.261 276.293-35.065-5.133-47.896-74.422-88.958-130.878-41.059-56.458-33.359-162.537-33.359-162.537-25.662 47.056 7.117 154.838 7.117 154.838-44.179-88.365-86.712-137.978-108.744-160.161 3.41 6.756 6.771 13.536 10.084 20.34 163.617 233.91 207.675 551.522 220.697 675.305 13.693 130.037 29.092 445.687 11.126 542.342-17.963 96.665-10.686 227.113-3.849 272.452 6.836 45.331-4.992 17.253-4.992 17.253-130.156-213.147-192.188-230.251-192.188-230.251s35.928 21.522 75.854 85.397c39.916 63.876 71.854 163.097 141.435 278.298 69.568 115.189 41.062 299.68 26.506 446.809-10.656 107.882-53.893 139.431-53.893 139.431-15.396 15.827-49.893 29.662-49.893 29.662 57.109-.461 109.497-17.563 151.65-31.849-10.034-8.03-7.887-23.379 16.863-46.865z"/><path fill="#372B3F" d="M2334.545 1355.72c-52.179 29.511-42.483 63.434-42.483 63.434 42.634-2.426 42.483-63.434 42.483-63.434z"/><path fill="#372B3F" d="M2298.246 1422.643c23.948 35.346 76.246 3.91 76.246 3.91-52.095-29.653-76.246-3.91-76.246-3.91z"/><path fill="#372B3F" d="M2290.549 1424.146c-19.979 37.743 32.316 69.188 32.316 69.188 1.737-59.926-32.316-69.188-32.316-69.188z"/><path fill="#79658C" d="M2053.752 250.949s-123.182 272.023-141.985 311.358c-18.827 39.356-1.726 54.753-1.726 54.753s39.354-46.192 3.43 29.091c-35.93 75.263-70.151 224.105-63.294 340.449 6.837 116.343 25.661-119.752 27.364-11.969 1.703 107.782 47.896 449.936 27.367 516.657-20.529 66.724-41.062 109.509-15.396 100.947 25.661-8.562 47.915-22.233 25.661 37.631-22.234 59.888-56.457 195.047-23.938 295.982 32.499 100.936 90.662 263.471 76.988 342.162-13.692 78.701-22.255 200.168-8.562 150.556 13.694-49.608 18.826-88.966 18.826 5.134s-11.99 261.76 10.266 184.771c22.232-76.988 15.396-325.063 25.662-297.688 10.265 27.379-11.99-160.819-27.387-205.299-15.398-44.479-75.264-284.002-53.031-246.359 22.234 37.642-6.834-59.876-3.428-118.047 3.428-58.174 59.887-184.771 42.786-181.343-17.124 3.408-56.46 15.397-49.623-41.062 6.837-56.456 18.827-333.612-1.702-444.822-20.531-111.211-41.061-198.464-22.256-258.33 18.827-59.885 39.356-222.422 41.061-239.523 1.727-17.099 145.436-369.537 112.917-325.049z"/><path fill="#DBA54D" d="M2050.007 1300.906s19.336-134.889-71.888-159.881c0-.001-29.621 80.184 71.888 159.881zm70.315 455.056s270.3-101.473 223.808-296.428c-.003 0-179.149 26.673-223.808 296.428zm11.383-1621.586s181.396 59.827 238.305-59.934c0 0-103.393-60.566-238.305 59.934z"/><path fill="#4B6028" d="M1167.611 2176.936s137.933-201.962 10.769-314.438c-.001 0-111.187 105.721-10.769 314.438z"/><path fill="#DBA54D" d="M1756.088 788.08s52.884-109.353-17.856-155.23c0-.002-46.837 60.101 17.856 155.23zm-489.254 507.3s-43.275-27.689-66.09-.284c0-.001 22.887 22.685 66.09.284z"/><path fill="#FB7A00" d="M1336.627 1807.306s50.943-6.721 50.72-42.389c0 .003-32.128-2.577-50.72 42.389zm859.902-1080.358s50.933-6.722 50.72-42.387c-.003 0-32.142-2.58-50.72 42.387zM716.52 2153.459s84.278 71.201 140.629 19.313c0-.002-42.341-54.765-140.629-19.313zm1607.254-154.049s50.943-6.721 50.718-42.387c-.002 0-32.127-2.58-50.718 42.387zM1114.384 667.225s-28.98-42.423-60.705-26.14c-.001.001 12.186 29.843 60.705 26.14z"/><path fill="#DBA54D" d="M2114.332 165.796s84.062 88.641 152.391 38.414c0 0-39.899-65.431-152.391-38.414zM1763.781 20.88s32.097 188.292 164.563 182.483c.001 0 5.092-119.717-164.563-182.483zm20.159 227.268s62.915 62.07 111.111 24.108c0 .001-30.422-46.35-111.111-24.108z"/></svg>