<svg xmlns="http://www.w3.org/2000/svg" id="图层_2" viewBox="0 0 3000 3000"><path fill="#FFD457" d="M2709.636 1360.217c0 398.97-199.486 788.873-553.121 997.427-27.198 9.07-54.406 27.203-81.604 45.336-108.813 54.406-226.688 90.674-353.635 99.744-172.283 9.07-335.502 0-498.715-54.406-36.272-18.129-63.47-27.197-99.737-45.338-154.155-81.604-281.101-181.346-389.908-335.496-108.813-163.219-163.219-326.432-181.352-507.783-27.198-408.04 217.619-816.076 607.527-952.088 308.293-99.743 680.063-54.406 906.751 208.553 9.069 9.069 27.198 18.134 36.268 27.203 145.079 163.213 217.625 380.836 199.485 598.458-18.133 217.623-136.01 398.97-308.293 534.986-290.165 226.684-725.398 172.277-943.023-136.016-18.133-27.203-27.203-54.406-45.342-81.609-90.673-181.348-99.737-389.901 18.139-571.253 90.673-126.946 199.486-217.62 353.635-244.823 199.486-27.203 417.106 45.336 507.779 235.753-72.539-145.08-217.619-235.753-380.833-253.887-226.688-27.203-444.314 99.743-544.051 299.227-63.476 136.013-81.609 281.09-45.342 426.168 45.342 199.486 190.422 353.643 362.705 444.314 208.55 99.738 453.378 90.674 661.928-18.139 181.353-90.674 308.293-244.816 371.77-435.238 108.813-326.43 18.139-689.132-244.823-915.818-27.203-18.136-54.406-36.273-81.609-63.476-108.807-72.54-208.55-117.876-335.496-145.08-54.406-9.067-108.813-9.067-163.219-18.133-163.208 0-317.363 36.27-462.442 108.81s-262.956 172.283-353.63 308.296c-163.219 235.753-217.625 498.715-163.219 770.744 63.47 317.363 244.823 580.318 516.849 734.469 136.016 72.533 281.096 126.939 435.239 145.08 108.813 9.063 226.689 9.063 335.502-9.07 145.079-27.197 281.095-90.674 408.036-154.15-435.239 272.033-1060.901 226.695-1414.536-172.277-18.134-18.139-45.337-27.207-63.465-54.41-18.139-36.262-45.342-63.471-72.545-99.744-54.406-81.604-90.673-154.143-117.876-244.816-45.342-172.283-63.47-335.502-36.272-516.852 27.208-199.486 117.882-380.838 253.892-525.918 117.882-117.876 253.887-199.486 408.042-253.89 154.144-45.339 299.224-54.406 462.442-36.27 217.62 36.27 398.972 145.08 544.052 308.293 18.134 27.203 36.268 54.406 63.476 81.609 108.808 163.213 145.08 344.565 145.08 534.985-9.069 172.282-72.546 317.362-172.288 462.442-199.486 272.025-562.186 380.838-870.479 262.957-163.219-63.477-299.229-172.277-398.972-326.428-81.609-136.01-90.679-281.096-81.609-426.175 18.139-172.283 108.813-317.366 244.823-426.172 145.08-117.879 326.432-136.016 498.715-117.879-199.486-54.404-417.105 0-571.255 145.083-126.946 126.946-199.486 290.159-208.55 462.442 0 117.879 18.139 244.819 72.534 353.633 18.139 27.203 27.203 54.406 45.342 81.609 54.4 81.609 117.876 154.143 208.55 208.549 27.203 9.07 54.406 27.209 81.609 45.338 235.753 126.945 498.715 126.945 734.468 9.068 126.946-72.545 244.823-154.143 326.433-281.096 90.679-145.08 145.085-299.223 154.144-462.439 18.139-362.705-190.417-698.201-507.773-879.551-126.952-72.54-253.893-99.743-389.908-117.879-208.55-9.067-408.036 36.27-598.458 145.08C406.483 870.572 252.333 1568.769 587.83 2085.613c244.834 371.773 652.864 580.33 1079.04 544.063-435.239 36.268-852.345-172.289-1088.098-553.127-145.08-235.752-190.428-489.645-154.155-761.668 54.406-344.565 272.026-616.591 571.255-788.874 136.016-72.543 290.159-99.743 444.309-117.88 108.813-9.066 217.62 18.137 326.433 45.337 108.813 27.203 190.416 81.609 290.159 145.083 299.229 208.55 435.239 553.116 389.902 906.749-18.128 99.748-36.268 190.422-81.604 272.031-45.337 72.533-81.609 145.08-145.08 208.549-45.337 45.344-90.674 81.609-145.08 126.947-54.406 36.268-108.813 63.471-163.219 90.674-27.203 9.068-54.406 9.068-81.604 27.207-18.139 9.07-27.209 9.07-45.343 9.07-9.063 9.059-27.203 18.129-36.267 18.129-272.026 54.406-553.122-18.129-743.543-208.557-81.598-99.736-163.213-199.486-199.48-326.426-45.336-163.219-45.336-326.433 0-489.649 45.337-145.08 154.149-262.956 262.962-362.699-262.962 190.417-398.972 525.916-308.298 843.278 72.545 244.822 235.753 444.309 471.512 544.053 335.496 145.078 743.538 72.545 1006.494-199.486 145.079-145.08 235.759-317.363 272.025-516.85 45.337-308.295-36.267-607.524-244.822-834.21-9.069-9.067-9.069-27.203-18.14-36.27-145.079-136.013-290.159-235.756-480.575-290.163-117.877-27.203-235.753-54.403-353.636-45.336-308.293 18.133-589.388 154.146-779.799 389.905-54.406 72.54-117.888 126.943-154.155 208.55-36.273 72.54-63.47 145.08-90.679 217.62-54.4 172.286-54.4 353.633-36.267 525.915-54.406-398.968 81.615-807.004 389.902-1079.03 335.502-290.162 816.078-362.702 1205.98-163.216 27.209 18.134 54.406 27.203 81.615 45.337 344.565 208.553 553.109 580.322 516.843 979.294-18.128 163.215-72.534 317.366-163.214 462.446-45.336 81.609-99.742 154.143-181.352 217.625-45.337 36.262-90.674 63.465-145.08 99.742-154.149 90.674-326.427 126.941-498.715 117.871-181.347 0-353.636-45.336-516.849-163.219-72.54-54.395-136.01-108.813-190.417-181.348-181.347-253.891-235.753-571.251-108.813-852.347 18.14-27.203 36.279-54.407 45.337-81.61 126.946-235.753 362.699-371.766 625.661-398.969 136.016-9.067 262.962 18.136 380.839 81.606 45.337 27.203 99.743 45.337 136.016 99.743-27.209-36.268-72.546-63.471-108.813-90.674-27.203-9.069-54.406-27.203-81.609-45.336-27.203-9.07-54.406-18.136-81.609-27.203-226.684-63.476-453.379-36.273-652.865 99.743-163.213 117.877-262.957 262.957-326.427 444.309-54.406 163.213-54.406 335.499-9.064 498.712 36.267 126.947 99.737 244.822 181.347 344.561 99.743 108.813 208.55 190.422 335.496 253.904 172.289 81.604 362.705 99.742 553.122 81.604 172.282-27.209 326.432-81.604 462.442-190.418 136.016-108.813 235.753-226.688 317.368-380.844 163.219-335.49 145.079-716.331-45.337-1042.763-235.759-398.97-689.138-625.659-1142.51-562.186 290.159-54.403 580.318 27.203 834.211 199.486 99.743 72.54 172.283 145.08 244.822 235.756 99.743 136.013 163.22 281.092 208.557 444.312 18.127 117.876 27.197 217.619 18.127 335.496-18.127 154.147-63.464 299.227-136.01 435.243-72.534 117.875-145.08 226.688-253.893 317.361-99.742 72.541-190.416 136.01-308.293 172.283-272.025 90.674-571.254 81.609-834.211-63.471-344.565-190.416-534.988-562.189-489.646-952.09 36.267-272.025 199.486-498.715 435.239-643.794 317.363-181.353 725.404-136.016 979.297 126.943 172.277 181.35 244.822 444.309 181.347 689.131-45.337 172.283-136.011 308.293-290.159 408.043-117.883 72.539-244.823 99.736-371.77 90.672-235.758-18.133-462.448-172.281-525.918-408.035 54.406 226.689 253.893 408.035 489.646 435.238 217.625 27.203 435.239-54.406 580.319-217.625 217.625-235.752 226.694-571.251 90.679-843.277-81.609-172.283-226.689-290.16-398.973-362.699-27.203-9.07-54.4-18.134-81.609-27.203-299.223-99.743-625.655-18.134-852.344 199.486-281.096 272.026-380.833 707.268-208.556 1060.897 9.069 18.141 0 27.203 9.069 45.344 90.673 154.143 190.417 290.158 344.566 398.971 290.159 199.486 634.73 235.754 961.157 126.941 154.149-54.406 281.096-145.08 408.042-253.893 72.534-63.465 126.94-145.08 181.347-226.684 108.816-190.418 154.153-398.975 163.222-607.527z"/><path fill="#E25F3F" d="M1317.413 2241.172c3.906-144.544 122.214-260.545 267.698-260.545s263.798 116.001 267.699 260.545h683.413c-3.956-521.949-428.232-943.862-951.112-943.862-522.879 0-947.155 421.913-951.111 943.862h683.413z"/><path fill="#EA971E" d="M1317.413 2241.172c3.906-144.544 122.214-260.545 267.698-260.545s263.798 116.001 267.699 260.545h571.82c-3.951-460.32-378.271-832.272-839.52-832.272-461.253 0-835.569 371.952-839.521 832.272h571.824z"/><path fill="#F7DC4D" d="M1317.413 2241.172c3.906-144.544 122.214-260.545 267.698-260.545s263.798 116.001 267.699 260.545h463.082c-3.951-400.266-329.59-723.529-730.781-723.529-401.195 0-726.829 323.264-730.778 723.529h463.08z"/><path fill="#C3DA49" d="M1317.413 2241.172c3.906-144.544 122.214-260.545 267.698-260.545s263.798 116.001 267.699 260.545h341.669c-3.942-333.207-275.23-602.118-609.368-602.118-334.137 0-605.425 268.911-609.367 602.118h341.669z"/><path fill="#79C6BF" d="M1317.413 2241.172c3.906-144.544 122.214-260.545 267.698-260.545s263.798 116.001 267.699 260.545h230.008c-3.947-271.576-225.195-490.547-497.707-490.547-272.516 0-493.759 218.971-497.702 490.547h230.004z"/><path fill="#5A7EBF" d="M1317.413 2241.172c3.906-144.544 122.214-260.545 267.698-260.545s263.798 116.001 267.699 260.545h110.312c-3.929-205.472-171.603-370.855-378.011-370.855-206.407 0-374.076 165.384-378.01 370.855h110.312z"/><path fill="#A5D2D6" d="M2709.014 2330.098h-34.023c1.374-8.646 2.292-17.453 2.292-26.488 0-92.775-75.212-167.986-167.989-167.986 0 0-.024.003-.037.003-39.153-99.217-135.67-169.526-248.799-169.526-110.897 0-206.034 67.47-246.622 163.593-6.887-.823-13.864-1.368-20.968-1.368-96.81 0-175.286 78.479-175.286 175.285 0 9.03.895 17.831 2.208 26.488h-16.798c-64.617 0-116.994 52.377-116.994 116.987 0 64.616 52.377 116.993 116.994 116.993h906.022c64.61 0 116.988-52.377 116.988-116.993 0-64.611-52.378-116.988-116.988-116.988zm-1356.081 0h-34.023c1.374-8.646 2.292-17.453 2.292-26.488 0-92.775-75.212-167.986-167.989-167.986 0 0-.024.003-.037.003-39.153-99.217-135.67-169.526-248.799-169.526-110.897 0-206.034 67.47-246.622 163.593-6.887-.823-13.864-1.368-20.968-1.368-96.81 0-175.286 78.479-175.286 175.285 0 9.03.895 17.831 2.208 26.488H446.91c-64.617 0-116.994 52.377-116.994 116.987 0 64.616 52.377 116.993 116.994 116.993h906.022c64.61 0 116.988-52.377 116.988-116.993.001-64.611-52.377-116.988-116.987-116.988z"/><path fill="#F9F9F9" d="M1338.371 2300.98h-31.301c1.263-7.954 2.108-16.058 2.108-24.37 0-85.354-69.196-154.548-154.551-154.548 0 0-.022.003-.034.003-36.021-91.28-124.816-155.965-228.896-155.965-102.026 0-189.552 62.072-226.893 150.506-6.336-.757-12.755-1.258-19.291-1.258-89.066 0-161.264 72.2-161.264 161.262 0 8.309.823 16.405 2.031 24.37h-15.454c-59.448 0-107.635 48.187-107.635 107.628 0 59.448 48.187 107.635 107.635 107.635h833.545c59.441 0 107.629-48.187 107.629-107.635 0-59.441-48.188-107.628-107.629-107.628zm1312.405 0h-31.302c1.263-7.954 2.108-16.058 2.108-24.37 0-85.354-69.196-154.548-154.552-154.548 0 0-.022.003-.034.003-36.021-91.28-124.816-155.965-228.896-155.965-102.026 0-189.552 62.072-226.894 150.506-6.336-.757-12.755-1.258-19.29-1.258-89.065 0-161.265 72.2-161.265 161.262 0 8.309.823 16.405 2.031 24.37h-15.453c-59.449 0-107.636 48.187-107.636 107.628 0 59.448 48.187 107.635 107.636 107.635h833.545c59.441 0 107.629-48.187 107.629-107.635.002-59.441-48.186-107.628-107.627-107.628z"/><path fill="none" d="M2506.845 362.264c-3.168-4.294-5.793-7.606-7.719-9.93a229.75 229.75 0 0 0-7.123 10.402c2.699-.182 5.405-.36 8.149-.446 2.254-.063 4.455-.03 6.693-.026z"/><path fill="#FFF" d="M2492.003 362.736c-17.392 1.179-34.151 4.424-50.115 9.506-92.201 67.954-91.606 183.944-91.606 183.944-4.877 143.737 107.979 211.326 107.979 211.326 28.3 30.486 35.281 69.909 36.991 89.792l10.626-.312c-4.699-66.645-20.113-81.204-20.113-81.204-104.246-211.177-24.062-366.383 6.238-413.052z"/><path fill="#F3399A" d="M2350.281 556.187s-.595-115.991 91.606-183.944c-87.933 28.002-150.48 111.537-147.641 208.385 2.335 79.947 48.599 148.265 114.969 182.513 5.115 2.632 10.395 4.989 15.733 7.212 23.63 16.351 60.25 47.937 61.396 87.219l8.907-.268c-1.71-19.882-8.691-59.306-36.991-89.792.001 0-112.855-67.588-107.979-211.325z"/><path fill="#FFF" d="M2658.024 548.997s-6.476-121.133-108.9-182.424a212.471 212.471 0 0 0-42.278-4.309c32.939 44.773 122.173 195.045 30.44 412.015 0 0-14.544 15.436-15.347 82.252l9.049-.268c.788-20.492 5.956-58.889 31.608-89.992 0 0 108.723-74.066 95.428-217.274z"/><path fill="#F3399A" d="M2506.845 362.264c-2.238-.004-4.439-.037-6.692.026-2.744.086-5.45.264-8.149.446-30.3 46.669-110.484 201.875-6.238 413.052 0 0 15.414 14.559 20.113 81.204l16.061-.461c.803-66.816 15.347-82.252 15.347-82.252 91.731-216.97 2.497-367.242-30.442-412.015z"/><path fill="#F3399A" d="M2549.123 366.573c102.425 61.291 108.9 182.424 108.9 182.424 13.295 143.208-95.428 217.274-95.428 217.274-25.652 31.103-30.82 69.5-31.608 89.992l9.719-.282c-1.093-37.475 30.434-69.85 52.993-88.126 75.716-34.211 127.363-111.429 124.791-199.645-2.945-100.358-75.099-182.327-169.367-201.637z"/><linearGradient id="SVGID_1_" x1="2465.972" x2="2465.972" y1="972.395" y2="1016.637" gradientTransform="rotate(-1.679 420.628 -2173.171)" gradientUnits="userSpaceOnUse"><stop offset="0" stop-color="#fff100"/><stop offset="1" stop-color="#f7981d"/></linearGradient><path fill="url(#SVGID_1_)" d="M2554.662 923.696s-7.822 20.567 2.907 27.965c0 0 10.202 1.108 5.911-13.496.001.001-4.699-17.399-8.818-14.469z"/><linearGradient id="SVGID_2_" x1="2474.812" x2="2465.7" y1="994.914" y2="1000.524" gradientTransform="rotate(-1.679 420.628 -2173.171)" gradientUnits="userSpaceOnUse"><stop offset="0" stop-color="#ec1c24"/><stop offset="1" stop-color="#f7981d"/></linearGradient><path fill="url(#SVGID_2_)" d="M2556.201 923.607s2.03 21.905 14.924 23.831c0 0 9.658-3.502-.625-14.722 0 0-11.882-13.54-14.299-9.109z"/><linearGradient id="SVGID_3_" x1="887.813" x2="887.813" y1="973.133" y2="1017.367" gradientTransform="scale(-1 1) rotate(1.679 1203.04 -113731.222)" gradientUnits="userSpaceOnUse"><stop offset="0" stop-color="#fff100"/><stop offset="1" stop-color="#f7981d"/></linearGradient><path fill="url(#SVGID_3_)" d="M2476.278 927.05s8.996 20.068-1.279 28.084c0 0-10.112 1.703-6.699-13.124-.001 0 3.694-17.637 7.978-14.96z"/><linearGradient id="SVGID_4_" x1="896.657" x2="887.547" y1="995.643" y2="1001.252" gradientTransform="scale(-1 1) rotate(1.679 1203.04 -113731.222)" gradientUnits="userSpaceOnUse"><stop offset="0" stop-color="#ec1c24"/><stop offset="1" stop-color="#f7981d"/></linearGradient><path fill="url(#SVGID_4_)" d="M2474.7 927.042s-.729 22.001-13.48 24.664c0 0-9.845-2.922-.245-14.73 0 0 11.064-14.217 13.725-9.934z"/><path fill="#0067B1" d="M2555.703 923.555l-82.095 2.402.298 9.919 82.102-2.409z"/><path fill="#1C3F94" d="M2473.906 935.876l.349 11.971c.67 22.671 19.586 40.509 42.257 39.839 22.656-.662 40.501-19.563 39.84-42.241l-.343-11.979-82.103 2.41z"/><path fill="#FFF" d="M2472.916 927.102l1.614.282 12.313-70.697-1.606-.29zm66.994-70.973l13.555 68.905 1.629-.319-13.577-68.906zm-45.475 1.197l2 68.839 1.658-.052-2.015-68.831zM2530.156 856.278l2.006 68.429 1.652-.051-2.008-68.423z"/></svg>