<svg xmlns="http://www.w3.org/2000/svg" xmlns:xlink="http://www.w3.org/1999/xlink" id="图层_3" viewBox="0 0 3000 3000"><path fill="#142626" d="M2004.531 2268.891h227.305v276.007h-227.305v-276.007z"/><path fill="#49A88C" d="M2231.836 2268.891h-227.305v178.284c9.317 20.636 30.026 35.018 54.168 35.018 32.826 0 59.441-26.595 59.441-59.453 0-.422-.146-.778-.146-1.211h.272c0 .433-.126.789-.126 1.211 0 32.858 26.604 59.453 59.421 59.453 24.194 0 44.976-14.443 54.272-35.165v-178.137h.003z" opacity=".5"/><path fill="#385B5B" d="M2831.625 2378.039l-713.451-1292.407-713.433 1292.407h.104c0 .432-.104.789-.104 1.209 0 32.859 26.604 59.452 59.452 59.452 32.827 0 59.441-26.593 59.441-59.452 0-.42-.125-.777-.125-1.209h.252c0 .432-.127.789-.127 1.209 0 32.859 26.596 59.452 59.453 59.452 32.826 0 59.422-26.593 59.422-59.452 0-.42-.115-.777-.115-1.209h.251c0 .432-.136.789-.136 1.209 0 32.859 26.636 59.452 59.494 59.452 32.826 0 59.42-26.593 59.42-59.452 0-.42-.125-.777-.125-1.209h.272c0 .432-.147.789-.147 1.209 0 32.859 26.615 59.452 59.442 59.452 32.857 0 59.453-26.593 59.453-59.452 0-.42-.104-.777-.104-1.209h.253c0 .432-.147.789-.147 1.209 0 32.859 26.625 59.452 59.475 59.452 32.856 0 59.451-26.593 59.451-59.452 0-.42-.146-.777-.146-1.209h.263c0 .432-.114.789-.114 1.209 0 32.859 26.594 59.452 59.452 59.452 32.826 0 59.441-26.593 59.441-59.452 0-.42-.146-.777-.146-1.209h.272c0 .432-.126.789-.126 1.209 0 32.859 26.604 59.452 59.421 59.452 32.857 0 59.495-26.593 59.495-59.452 0-.42-.127-.777-.127-1.209h.241c0 .432-.114.789-.114 1.209 0 32.859 26.571 59.452 59.432 59.452 32.848 0 59.452-26.593 59.452-59.452 0-.42-.139-.777-.139-1.209h.254c0 .432-.115.789-.115 1.209 0 32.859 26.615 59.452 59.453 59.452 32.826 0 59.451-26.593 59.451-59.452 0-.42-.126-.777-.126-1.209h.241c0 .432-.115.789-.115 1.209 0 32.859 26.615 59.452 59.432 59.452 32.849 0 59.475-26.593 59.475-59.452 0-.42-.138-.777-.138-1.209h.253c0 .432-.115.789-.115 1.209 0 32.859 26.594 59.452 59.441 59.452 32.838 0 59.432-26.593 59.432-59.452 0-.42-.126-.777-.126-1.209h.253c0 .432-.127.789-.127 1.209 0 32.859 26.626 59.452 59.484 59.452 32.807 0 59.433-26.593 59.433-59.452 0-.42-.127-.777-.127-1.209h.209z"/><path fill="#49A88C" d="M2118.174 1085.632l-467.769 847.381c5.644 19.614 23.499 34.038 44.945 34.038 25.94 0 46.956-21.016 46.956-46.979 0-.337-.096-.621-.096-.958h.199c0 .337-.104.621-.104.958 0 25.963 21.045 46.979 47.008 46.979 25.941 0 46.955-21.016 46.955-46.979 0-.337-.094-.621-.094-.958h.21c0 .337-.116.621-.116.958 0 25.963 21.036 46.979 46.979 46.979 25.961 0 46.977-21.016 46.977-46.979 0-.337-.085-.621-.085-.958h.2c0 .337-.115.621-.115.958 0 25.963 21.035 46.979 46.997 46.979 25.963 0 46.978-21.016 46.978-46.979 0-.337-.115-.621-.115-.958h.209c0 .337-.094.621-.094.958 0 25.963 21.015 46.979 46.977 46.979 25.941 0 46.978-21.016 46.978-46.979 0-.337-.116-.621-.116-.958h.211c0 .337-.095.621-.095.958 0 25.963 21.024 46.979 46.955 46.979 25.963 0 47.009-21.016 47.009-46.979 0-.337-.095-.621-.095-.958h.189c0 .337-.095.621-.095.958 0 25.963 21.004 46.979 46.966 46.979 25.952 0 46.978-21.016 46.978-46.979 0-.337-.104-.621-.104-.958h.198c0 .337-.094.621-.094.958 0 25.963 21.035 46.979 46.977 46.979s46.986-21.016 46.986-46.979c0-.337-.104-.621-.104-.958h.19c0 .337-.086.621-.086.958 0 25.963 21.025 46.979 46.957 46.979 25.961 0 46.998-21.016 46.998-46.979 0-.337-.105-.621-.105-.958h.199c0 .337-.094.621-.094.958 0 25.963 21.014 46.979 46.977 46.979 21.456 0 39.344-14.467 44.955-34.123l-467.737-847.296z" opacity=".5"/><path fill="#377765" d="M2681.947 1862.084L2118.174 840.819l-563.752 1021.265h.084c0 .337-.084.62-.084.959 0 25.962 21.023 46.976 46.976 46.976 25.942 0 46.978-21.015 46.978-46.976 0-.339-.104-.622-.104-.959h.2c0 .337-.096.62-.096.959 0 25.962 21.016 46.976 46.978 46.976 25.941 0 46.956-21.015 46.956-46.976 0-.339-.096-.622-.096-.959h.199c0 .337-.104.62-.104.959 0 25.962 21.045 46.976 47.008 46.976 25.941 0 46.955-21.015 46.955-46.976 0-.339-.094-.622-.094-.959h.21c0 .337-.116.62-.116.959 0 25.962 21.036 46.976 46.979 46.976 25.962 0 46.977-21.015 46.977-46.976 0-.339-.085-.622-.085-.959h.2c0 .337-.115.62-.115.959 0 25.962 21.035 46.976 46.997 46.976 25.963 0 46.978-21.015 46.978-46.976 0-.339-.114-.622-.114-.959h.209c0 .337-.095.62-.095.959 0 25.962 21.015 46.976 46.977 46.976 25.941 0 46.979-21.015 46.979-46.976 0-.339-.116-.622-.116-.959h.211c0 .337-.095.62-.095.959 0 25.962 21.023 46.976 46.955 46.976 25.963 0 47.009-21.015 47.009-46.976 0-.339-.095-.622-.095-.959h.188c0 .337-.095.62-.095.959 0 25.962 21.004 46.976 46.966 46.976 25.952 0 46.978-21.015 46.978-46.976 0-.339-.104-.622-.104-.959h.199c0 .337-.095.62-.095.959 0 25.962 21.035 46.976 46.977 46.976s46.987-21.015 46.987-46.976c0-.339-.105-.622-.105-.959h.19c0 .337-.085.62-.085.959 0 25.962 21.024 46.976 46.957 46.976 25.961 0 46.997-21.015 46.997-46.976 0-.339-.105-.622-.105-.959h.199c0 .337-.094.62-.094.959 0 25.962 21.014 46.976 46.977 46.976 25.941 0 46.955-21.015 46.955-46.976 0-.339-.094-.622-.094-.959h.199c0 .337-.105.62-.105.959 0 25.962 21.047 46.976 47.01 46.976 25.92 0 46.966-21.015 46.966-46.976 0-.339-.105-.622-.105-.959h.161z"/><path fill="#49A88C" d="M2424.764 1396.202l-306.59-555.383-306.603 555.414c5.771 6.791 14.255 11.183 23.856 11.183 17.351 0 31.404-14.056 31.404-31.416 0-.222-.063-.411-.063-.633h.127c0 .222-.063.411-.063.633 0 17.36 14.066 31.416 31.429 31.416 17.35 0 31.403-14.056 31.403-31.416 0-.222-.063-.411-.063-.633h.138c0 .222-.074.411-.074.633 0 17.36 14.066 31.416 31.417 31.416 17.361 0 31.416-14.056 31.416-31.416 0-.222-.063-.411-.063-.633h.137c0 .222-.073.411-.073.633 0 17.36 14.055 31.416 31.416 31.416 17.36 0 31.416-14.056 31.416-31.416 0-.222-.072-.411-.072-.633h.136c0 .222-.063.411-.063.633 0 17.36 14.055 31.416 31.415 31.416 17.353 0 31.416-14.056 31.416-31.416 0-.222-.073-.411-.073-.633h.138c0 .222-.063.411-.063.633 0 17.36 14.057 31.416 31.406 31.416 17.36 0 31.427-14.056 31.427-31.416 0-.222-.063-.411-.063-.633h.127c0 .222-.063.411-.063.633 0 17.36 14.044 31.416 31.405 31.416 17.36 0 31.415-14.056 31.415-31.416 0-.222-.063-.411-.063-.633h.125c0 .222-.063.411-.063.633 0 17.36 14.066 31.416 31.418 31.416 17.35 0 31.415-14.056 31.415-31.416 0-.222-.063-.411-.063-.633h.127c0 .222-.063.411-.063.633 0 17.36 14.064 31.416 31.405 31.416 17.362 0 31.427-14.056 31.427-31.416 0-.222-.063-.411-.063-.633h.127c0 .222-.063.411-.063.633 0 17.36 14.055 31.416 31.416 31.416 9.607-.002 18.105-4.413 23.863-11.214z" opacity=".5"/><path fill="#68BCA0" d="M2495.188 1326.346l-377.014-682.941-376.993 682.941h.063c0 .222-.063.411-.063.632 0 17.361 14.065 31.417 31.416 31.417s31.416-14.056 31.416-31.417c0-.223-.063-.41-.063-.632h.127c0 .222-.063.411-.063.632 0 17.361 14.055 31.417 31.416 31.417 17.351 0 31.404-14.056 31.404-31.417 0-.223-.063-.41-.063-.632h.127c0 .222-.063.411-.063.632 0 17.361 14.065 31.417 31.428 31.417 17.35 0 31.404-14.056 31.404-31.417 0-.223-.063-.41-.063-.632h.138c0 .222-.074.411-.074.632 0 17.361 14.066 31.417 31.418 31.417 17.36 0 31.416-14.056 31.416-31.417 0-.223-.063-.41-.063-.632h.138c0 .222-.074.411-.074.632 0 17.361 14.056 31.417 31.416 31.417s31.416-14.056 31.416-31.417c0-.223-.072-.41-.072-.632h.136c0 .222-.063.411-.063.632 0 17.361 14.056 31.417 31.416 31.417 17.352 0 31.416-14.056 31.416-31.417 0-.223-.073-.41-.073-.632h.137c0 .222-.063.411-.063.632 0 17.361 14.057 31.417 31.406 31.417 17.36 0 31.428-14.056 31.428-31.417 0-.223-.063-.41-.063-.632h.127c0 .222-.063.411-.063.632 0 17.361 14.045 31.417 31.405 31.417s31.415-14.056 31.415-31.417c0-.223-.062-.41-.062-.632h.125c0 .222-.063.411-.063.632 0 17.361 14.066 31.417 31.418 31.417 17.351 0 31.415-14.056 31.415-31.417 0-.223-.063-.41-.063-.632h.127c0 .222-.063.411-.063.632 0 17.361 14.065 31.417 31.405 31.417 17.362 0 31.427-14.056 31.427-31.417 0-.223-.063-.41-.063-.632h.127c0 .222-.063.411-.063.632 0 17.361 14.056 31.417 31.416 31.417 17.352 0 31.405-14.056 31.405-31.417 0-.223-.063-.41-.063-.632h.125c0 .222-.063.411-.063.632 0 17.361 14.066 31.417 31.428 31.417 17.34 0 31.404-14.056 31.404-31.417 0-.223-.063-.41-.063-.632h.108z"/><defs><path id="SVGID_1_" d="M2831.625 2378.039l-263.3-476.959c11.823-8.527 19.582-22.329 19.582-38.037 0-.338-.094-.622-.094-.958h.199c0 .336-.105.62-.105.958 0 25.962 21.048 46.976 47.009 46.976 25.922 0 46.967-21.014 46.967-46.976 0-.338-.105-.622-.105-.958h.169l-278.207-503.974c15.992-1.453 28.563-14.74 28.563-31.133 0-.222-.063-.41-.063-.632h.126c0 .222-.063.411-.063.632 0 17.361 14.065 31.417 31.428 31.417 17.34 0 31.404-14.056 31.404-31.417 0-.222-.063-.41-.063-.632h.117l-377.014-682.941-376.993 682.941h.063c0 .222-.063.411-.063.632 0 17.361 14.064 31.417 31.416 31.417s31.416-14.056 31.416-31.417c0-.222-.063-.41-.063-.632h.127c0 .222-.063.411-.063.632 0 16.403 12.58 29.689 28.604 31.133l-278.195 503.974h.084c0 .336-.084.62-.084.958 0 25.962 21.023 46.976 46.976 46.976 25.942 0 46.978-21.014 46.978-46.976 0-.338-.104-.622-.104-.958h.2c0 .336-.096.62-.096.958 0 15.729 7.779 29.552 19.636 38.078l-263.269 476.918h.105c0 .432-.105.789-.105 1.209 0 32.859 26.604 59.452 59.453 59.452 32.826 0 59.44-26.593 59.44-59.452 0-.42-.125-.777-.125-1.209h.252c0 .432-.127.789-.127 1.209 0 32.859 26.596 59.452 59.453 59.452 32.827 0 59.422-26.593 59.422-59.452 0-.42-.115-.777-.115-1.209h.251c0 .432-.136.789-.136 1.209 0 32.859 26.636 59.452 59.494 59.452 32.827 0 59.421-26.593 59.421-59.452 0-.42-.126-.777-.126-1.209h.272c0 .432-.146.789-.146 1.209 0 32.859 26.615 59.452 59.441 59.452 32.857 0 59.453-26.593 59.453-59.452 0-.42-.104-.777-.104-1.209h.253c0 .432-.146.789-.146 1.209 0 32.859 26.625 59.452 59.474 59.452 32.856 0 59.452-26.593 59.452-59.452 0-.42-.146-.777-.146-1.209h.262c0 .432-.114.789-.114 1.209 0 32.859 26.594 59.452 59.453 59.452 32.825 0 59.44-26.593 59.44-59.452 0-.42-.146-.777-.146-1.209h.271c0 .432-.126.789-.126 1.209 0 32.859 26.604 59.452 59.421 59.452 32.858 0 59.495-26.593 59.495-59.452 0-.42-.127-.777-.127-1.209h.242c0 .432-.115.789-.115 1.209 0 32.859 26.572 59.452 59.432 59.452 32.849 0 59.452-26.593 59.452-59.452 0-.42-.138-.777-.138-1.209h.254c0 .432-.116.789-.116 1.209 0 32.859 26.615 59.452 59.453 59.452 32.827 0 59.452-26.593 59.452-59.452 0-.42-.126-.777-.126-1.209h.241c0 .432-.115.789-.115 1.209 0 32.859 26.615 59.452 59.432 59.452 32.848 0 59.475-26.593 59.475-59.452 0-.42-.139-.777-.139-1.209h.253c0 .432-.114.789-.114 1.209 0 32.859 26.594 59.452 59.44 59.452 32.838 0 59.432-26.593 59.432-59.452 0-.42-.126-.777-.126-1.209h.253c0 .432-.127.789-.127 1.209 0 32.859 26.626 59.452 59.485 59.452 32.806 0 59.432-26.593 59.432-59.452 0-.42-.127-.777-.127-1.209h.206z"/></defs><clipPath id="SVGID_2_"><use overflow="visible" xlink:href="#SVGID_1_"/></clipPath><path fill="none" stroke="#FFF" stroke-miterlimit="10" stroke-width="3" d="M1777.713 692.426s151.857 551.844 823.566 372.771" clip-path="url(#SVGID_2_)"/><defs><path id="SVGID_3_" d="M2831.625 2378.039l-263.3-476.959c11.823-8.527 19.582-22.329 19.582-38.037 0-.338-.094-.622-.094-.958h.199c0 .336-.105.62-.105.958 0 25.962 21.048 46.976 47.009 46.976 25.922 0 46.967-21.014 46.967-46.976 0-.338-.105-.622-.105-.958h.169l-278.207-503.974c15.992-1.453 28.563-14.74 28.563-31.133 0-.222-.063-.41-.063-.632h.126c0 .222-.063.411-.063.632 0 17.361 14.065 31.417 31.428 31.417 17.34 0 31.404-14.056 31.404-31.417 0-.222-.063-.41-.063-.632h.117l-377.014-682.941-376.993 682.941h.063c0 .222-.063.411-.063.632 0 17.361 14.064 31.417 31.416 31.417s31.416-14.056 31.416-31.417c0-.222-.063-.41-.063-.632h.127c0 .222-.063.411-.063.632 0 16.403 12.58 29.689 28.604 31.133l-278.195 503.974h.084c0 .336-.084.62-.084.958 0 25.962 21.023 46.976 46.976 46.976 25.942 0 46.978-21.014 46.978-46.976 0-.338-.104-.622-.104-.958h.2c0 .336-.096.62-.096.958 0 15.729 7.779 29.552 19.636 38.078l-263.269 476.918h.105c0 .432-.105.789-.105 1.209 0 32.859 26.604 59.452 59.453 59.452 32.826 0 59.44-26.593 59.44-59.452 0-.42-.125-.777-.125-1.209h.252c0 .432-.127.789-.127 1.209 0 32.859 26.596 59.452 59.453 59.452 32.827 0 59.422-26.593 59.422-59.452 0-.42-.115-.777-.115-1.209h.251c0 .432-.136.789-.136 1.209 0 32.859 26.636 59.452 59.494 59.452 32.827 0 59.421-26.593 59.421-59.452 0-.42-.126-.777-.126-1.209h.272c0 .432-.146.789-.146 1.209 0 32.859 26.615 59.452 59.441 59.452 32.857 0 59.453-26.593 59.453-59.452 0-.42-.104-.777-.104-1.209h.253c0 .432-.146.789-.146 1.209 0 32.859 26.625 59.452 59.474 59.452 32.856 0 59.452-26.593 59.452-59.452 0-.42-.146-.777-.146-1.209h.262c0 .432-.114.789-.114 1.209 0 32.859 26.594 59.452 59.453 59.452 32.825 0 59.44-26.593 59.44-59.452 0-.42-.146-.777-.146-1.209h.271c0 .432-.126.789-.126 1.209 0 32.859 26.604 59.452 59.421 59.452 32.858 0 59.495-26.593 59.495-59.452 0-.42-.127-.777-.127-1.209h.242c0 .432-.115.789-.115 1.209 0 32.859 26.572 59.452 59.432 59.452 32.849 0 59.452-26.593 59.452-59.452 0-.42-.138-.777-.138-1.209h.254c0 .432-.116.789-.116 1.209 0 32.859 26.615 59.452 59.453 59.452 32.827 0 59.452-26.593 59.452-59.452 0-.42-.126-.777-.126-1.209h.241c0 .432-.115.789-.115 1.209 0 32.859 26.615 59.452 59.432 59.452 32.848 0 59.475-26.593 59.475-59.452 0-.42-.139-.777-.139-1.209h.253c0 .432-.114.789-.114 1.209 0 32.859 26.594 59.452 59.44 59.452 32.838 0 59.432-26.593 59.432-59.452 0-.42-.126-.777-.126-1.209h.253c0 .432-.127.789-.127 1.209 0 32.859 26.626 59.452 59.485 59.452 32.806 0 59.432-26.593 59.432-59.452 0-.42-.127-.777-.127-1.209h.206z"/></defs><clipPath id="SVGID_4_"><use overflow="visible" xlink:href="#SVGID_3_"/></clipPath><path fill="none" stroke="#246B59" stroke-miterlimit="10" stroke-width="3" d="M2421.795 811.572s-151.858 551.844-823.566 372.771" clip-path="url(#SVGID_4_)"/><defs><path id="SVGID_5_" d="M2831.625 2378.039l-263.3-476.959c11.823-8.527 19.582-22.329 19.582-38.037 0-.338-.094-.622-.094-.958h.199c0 .336-.105.62-.105.958 0 25.962 21.048 46.976 47.009 46.976 25.922 0 46.967-21.014 46.967-46.976 0-.338-.105-.622-.105-.958h.169l-278.207-503.974c15.992-1.453 28.563-14.74 28.563-31.133 0-.222-.063-.41-.063-.632h.126c0 .222-.063.411-.063.632 0 17.361 14.065 31.417 31.428 31.417 17.34 0 31.404-14.056 31.404-31.417 0-.222-.063-.41-.063-.632h.117l-377.014-682.941-376.993 682.941h.063c0 .222-.063.411-.063.632 0 17.361 14.064 31.417 31.416 31.417s31.416-14.056 31.416-31.417c0-.222-.063-.41-.063-.632h.127c0 .222-.063.411-.063.632 0 16.403 12.58 29.689 28.604 31.133l-278.195 503.974h.084c0 .336-.084.62-.084.958 0 25.962 21.023 46.976 46.976 46.976 25.942 0 46.978-21.014 46.978-46.976 0-.338-.104-.622-.104-.958h.2c0 .336-.096.62-.096.958 0 15.729 7.779 29.552 19.636 38.078l-263.269 476.918h.105c0 .432-.105.789-.105 1.209 0 32.859 26.604 59.452 59.453 59.452 32.826 0 59.44-26.593 59.44-59.452 0-.42-.125-.777-.125-1.209h.252c0 .432-.127.789-.127 1.209 0 32.859 26.596 59.452 59.453 59.452 32.827 0 59.422-26.593 59.422-59.452 0-.42-.115-.777-.115-1.209h.251c0 .432-.136.789-.136 1.209 0 32.859 26.636 59.452 59.494 59.452 32.827 0 59.421-26.593 59.421-59.452 0-.42-.126-.777-.126-1.209h.272c0 .432-.146.789-.146 1.209 0 32.859 26.615 59.452 59.441 59.452 32.857 0 59.453-26.593 59.453-59.452 0-.42-.104-.777-.104-1.209h.253c0 .432-.146.789-.146 1.209 0 32.859 26.625 59.452 59.474 59.452 32.856 0 59.452-26.593 59.452-59.452 0-.42-.146-.777-.146-1.209h.262c0 .432-.114.789-.114 1.209 0 32.859 26.594 59.452 59.453 59.452 32.825 0 59.44-26.593 59.44-59.452 0-.42-.146-.777-.146-1.209h.271c0 .432-.126.789-.126 1.209 0 32.859 26.604 59.452 59.421 59.452 32.858 0 59.495-26.593 59.495-59.452 0-.42-.127-.777-.127-1.209h.242c0 .432-.115.789-.115 1.209 0 32.859 26.572 59.452 59.432 59.452 32.849 0 59.452-26.593 59.452-59.452 0-.42-.138-.777-.138-1.209h.254c0 .432-.116.789-.116 1.209 0 32.859 26.615 59.452 59.453 59.452 32.827 0 59.452-26.593 59.452-59.452 0-.42-.126-.777-.126-1.209h.241c0 .432-.115.789-.115 1.209 0 32.859 26.615 59.452 59.432 59.452 32.848 0 59.475-26.593 59.475-59.452 0-.42-.139-.777-.139-1.209h.253c0 .432-.114.789-.114 1.209 0 32.859 26.594 59.452 59.44 59.452 32.838 0 59.432-26.593 59.432-59.452 0-.42-.126-.777-.126-1.209h.253c0 .432-.127.789-.127 1.209 0 32.859 26.626 59.452 59.485 59.452 32.806 0 59.432-26.593 59.432-59.452 0-.42-.127-.777-.127-1.209h.206z"/></defs><clipPath id="SVGID_6_"><use overflow="visible" xlink:href="#SVGID_5_"/></clipPath><path fill="none" stroke="#98D19E" stroke-miterlimit="10" stroke-width="3" d="M1628.761 1311.25s235.642 693.145 1079.77 413.674" clip-path="url(#SVGID_6_)"/><defs><path id="SVGID_7_" d="M2831.625 2378.039l-263.3-476.959c11.823-8.527 19.582-22.329 19.582-38.037 0-.338-.094-.622-.094-.958h.199c0 .336-.105.62-.105.958 0 25.962 21.048 46.976 47.009 46.976 25.922 0 46.967-21.014 46.967-46.976 0-.338-.105-.622-.105-.958h.169l-278.207-503.974c15.992-1.453 28.563-14.74 28.563-31.133 0-.222-.063-.41-.063-.632h.126c0 .222-.063.411-.063.632 0 17.361 14.065 31.417 31.428 31.417 17.34 0 31.404-14.056 31.404-31.417 0-.222-.063-.41-.063-.632h.117l-377.014-682.941-376.993 682.941h.063c0 .222-.063.411-.063.632 0 17.361 14.064 31.417 31.416 31.417s31.416-14.056 31.416-31.417c0-.222-.063-.41-.063-.632h.127c0 .222-.063.411-.063.632 0 16.403 12.58 29.689 28.604 31.133l-278.195 503.974h.084c0 .336-.084.62-.084.958 0 25.962 21.023 46.976 46.976 46.976 25.942 0 46.978-21.014 46.978-46.976 0-.338-.104-.622-.104-.958h.2c0 .336-.096.62-.096.958 0 15.729 7.779 29.552 19.636 38.078l-263.269 476.918h.105c0 .432-.105.789-.105 1.209 0 32.859 26.604 59.452 59.453 59.452 32.826 0 59.44-26.593 59.44-59.452 0-.42-.125-.777-.125-1.209h.252c0 .432-.127.789-.127 1.209 0 32.859 26.596 59.452 59.453 59.452 32.827 0 59.422-26.593 59.422-59.452 0-.42-.115-.777-.115-1.209h.251c0 .432-.136.789-.136 1.209 0 32.859 26.636 59.452 59.494 59.452 32.827 0 59.421-26.593 59.421-59.452 0-.42-.126-.777-.126-1.209h.272c0 .432-.146.789-.146 1.209 0 32.859 26.615 59.452 59.441 59.452 32.857 0 59.453-26.593 59.453-59.452 0-.42-.104-.777-.104-1.209h.253c0 .432-.146.789-.146 1.209 0 32.859 26.625 59.452 59.474 59.452 32.856 0 59.452-26.593 59.452-59.452 0-.42-.146-.777-.146-1.209h.262c0 .432-.114.789-.114 1.209 0 32.859 26.594 59.452 59.453 59.452 32.825 0 59.44-26.593 59.44-59.452 0-.42-.146-.777-.146-1.209h.271c0 .432-.126.789-.126 1.209 0 32.859 26.604 59.452 59.421 59.452 32.858 0 59.495-26.593 59.495-59.452 0-.42-.127-.777-.127-1.209h.242c0 .432-.115.789-.115 1.209 0 32.859 26.572 59.452 59.432 59.452 32.849 0 59.452-26.593 59.452-59.452 0-.42-.138-.777-.138-1.209h.254c0 .432-.116.789-.116 1.209 0 32.859 26.615 59.452 59.453 59.452 32.827 0 59.452-26.593 59.452-59.452 0-.42-.126-.777-.126-1.209h.241c0 .432-.115.789-.115 1.209 0 32.859 26.615 59.452 59.432 59.452 32.848 0 59.475-26.593 59.475-59.452 0-.42-.139-.777-.139-1.209h.253c0 .432-.114.789-.114 1.209 0 32.859 26.594 59.452 59.44 59.452 32.838 0 59.432-26.593 59.432-59.452 0-.42-.126-.777-.126-1.209h.253c0 .432-.127.789-.127 1.209 0 32.859 26.626 59.452 59.485 59.452 32.806 0 59.432-26.593 59.432-59.452 0-.42-.127-.777-.127-1.209h.206z"/></defs><clipPath id="SVGID_8_"><use overflow="visible" xlink:href="#SVGID_7_"/></clipPath><path fill="none" stroke="#F7CB5B" stroke-miterlimit="10" stroke-width="3" d="M1319.802 1899.364s493.077 732.749 1387.834 141.003" clip-path="url(#SVGID_8_)"/><defs><path id="SVGID_9_" d="M2831.625 2378.039l-263.3-476.959c11.823-8.527 19.582-22.329 19.582-38.037 0-.338-.094-.622-.094-.958h.199c0 .336-.105.62-.105.958 0 25.962 21.048 46.976 47.009 46.976 25.922 0 46.967-21.014 46.967-46.976 0-.338-.105-.622-.105-.958h.169l-278.207-503.974c15.992-1.453 28.563-14.74 28.563-31.133 0-.222-.063-.41-.063-.632h.126c0 .222-.063.411-.063.632 0 17.361 14.065 31.417 31.428 31.417 17.34 0 31.404-14.056 31.404-31.417 0-.222-.063-.41-.063-.632h.117l-377.014-682.941-376.993 682.941h.063c0 .222-.063.411-.063.632 0 17.361 14.064 31.417 31.416 31.417s31.416-14.056 31.416-31.417c0-.222-.063-.41-.063-.632h.127c0 .222-.063.411-.063.632 0 16.403 12.58 29.689 28.604 31.133l-278.195 503.974h.084c0 .336-.084.62-.084.958 0 25.962 21.023 46.976 46.976 46.976 25.942 0 46.978-21.014 46.978-46.976 0-.338-.104-.622-.104-.958h.2c0 .336-.096.62-.096.958 0 15.729 7.779 29.552 19.636 38.078l-263.269 476.918h.105c0 .432-.105.789-.105 1.209 0 32.859 26.604 59.452 59.453 59.452 32.826 0 59.44-26.593 59.44-59.452 0-.42-.125-.777-.125-1.209h.252c0 .432-.127.789-.127 1.209 0 32.859 26.596 59.452 59.453 59.452 32.827 0 59.422-26.593 59.422-59.452 0-.42-.115-.777-.115-1.209h.251c0 .432-.136.789-.136 1.209 0 32.859 26.636 59.452 59.494 59.452 32.827 0 59.421-26.593 59.421-59.452 0-.42-.126-.777-.126-1.209h.272c0 .432-.146.789-.146 1.209 0 32.859 26.615 59.452 59.441 59.452 32.857 0 59.453-26.593 59.453-59.452 0-.42-.104-.777-.104-1.209h.253c0 .432-.146.789-.146 1.209 0 32.859 26.625 59.452 59.474 59.452 32.856 0 59.452-26.593 59.452-59.452 0-.42-.146-.777-.146-1.209h.262c0 .432-.114.789-.114 1.209 0 32.859 26.594 59.452 59.453 59.452 32.825 0 59.44-26.593 59.44-59.452 0-.42-.146-.777-.146-1.209h.271c0 .432-.126.789-.126 1.209 0 32.859 26.604 59.452 59.421 59.452 32.858 0 59.495-26.593 59.495-59.452 0-.42-.127-.777-.127-1.209h.242c0 .432-.115.789-.115 1.209 0 32.859 26.572 59.452 59.432 59.452 32.849 0 59.452-26.593 59.452-59.452 0-.42-.138-.777-.138-1.209h.254c0 .432-.116.789-.116 1.209 0 32.859 26.615 59.452 59.453 59.452 32.827 0 59.452-26.593 59.452-59.452 0-.42-.126-.777-.126-1.209h.241c0 .432-.115.789-.115 1.209 0 32.859 26.615 59.452 59.432 59.452 32.848 0 59.475-26.593 59.475-59.452 0-.42-.139-.777-.139-1.209h.253c0 .432-.114.789-.114 1.209 0 32.859 26.594 59.452 59.44 59.452 32.838 0 59.432-26.593 59.432-59.452 0-.42-.126-.777-.126-1.209h.253c0 .432-.127.789-.127 1.209 0 32.859 26.626 59.452 59.485 59.452 32.806 0 59.432-26.593 59.432-59.452 0-.42-.127-.777-.127-1.209h.206z"/></defs><clipPath id="SVGID_10_"><use overflow="visible" xlink:href="#SVGID_9_"/></clipPath><path fill="none" stroke="#98D19E" stroke-miterlimit="10" stroke-width="3" d="M1360.103 1874.095s553.824 687.994 1394.806 22.046" clip-path="url(#SVGID_10_)"/><defs><path id="SVGID_11_" d="M2831.625 2378.039l-263.3-476.959c11.823-8.527 19.582-22.329 19.582-38.037 0-.338-.094-.622-.094-.958h.199c0 .336-.105.62-.105.958 0 25.962 21.048 46.976 47.009 46.976 25.922 0 46.967-21.014 46.967-46.976 0-.338-.105-.622-.105-.958h.169l-278.207-503.974c15.992-1.453 28.563-14.74 28.563-31.133 0-.222-.063-.41-.063-.632h.126c0 .222-.063.411-.063.632 0 17.361 14.065 31.417 31.428 31.417 17.34 0 31.404-14.056 31.404-31.417 0-.222-.063-.41-.063-.632h.117l-377.014-682.941-376.993 682.941h.063c0 .222-.063.411-.063.632 0 17.361 14.064 31.417 31.416 31.417s31.416-14.056 31.416-31.417c0-.222-.063-.41-.063-.632h.127c0 .222-.063.411-.063.632 0 16.403 12.58 29.689 28.604 31.133l-278.195 503.974h.084c0 .336-.084.62-.084.958 0 25.962 21.023 46.976 46.976 46.976 25.942 0 46.978-21.014 46.978-46.976 0-.338-.104-.622-.104-.958h.2c0 .336-.096.62-.096.958 0 15.729 7.779 29.552 19.636 38.078l-263.269 476.918h.105c0 .432-.105.789-.105 1.209 0 32.859 26.604 59.452 59.453 59.452 32.826 0 59.44-26.593 59.44-59.452 0-.42-.125-.777-.125-1.209h.252c0 .432-.127.789-.127 1.209 0 32.859 26.596 59.452 59.453 59.452 32.827 0 59.422-26.593 59.422-59.452 0-.42-.115-.777-.115-1.209h.251c0 .432-.136.789-.136 1.209 0 32.859 26.636 59.452 59.494 59.452 32.827 0 59.421-26.593 59.421-59.452 0-.42-.126-.777-.126-1.209h.272c0 .432-.146.789-.146 1.209 0 32.859 26.615 59.452 59.441 59.452 32.857 0 59.453-26.593 59.453-59.452 0-.42-.104-.777-.104-1.209h.253c0 .432-.146.789-.146 1.209 0 32.859 26.625 59.452 59.474 59.452 32.856 0 59.452-26.593 59.452-59.452 0-.42-.146-.777-.146-1.209h.262c0 .432-.114.789-.114 1.209 0 32.859 26.594 59.452 59.453 59.452 32.825 0 59.44-26.593 59.44-59.452 0-.42-.146-.777-.146-1.209h.271c0 .432-.126.789-.126 1.209 0 32.859 26.604 59.452 59.421 59.452 32.858 0 59.495-26.593 59.495-59.452 0-.42-.127-.777-.127-1.209h.242c0 .432-.115.789-.115 1.209 0 32.859 26.572 59.452 59.432 59.452 32.849 0 59.452-26.593 59.452-59.452 0-.42-.138-.777-.138-1.209h.254c0 .432-.116.789-.116 1.209 0 32.859 26.615 59.452 59.453 59.452 32.827 0 59.452-26.593 59.452-59.452 0-.42-.126-.777-.126-1.209h.241c0 .432-.115.789-.115 1.209 0 32.859 26.615 59.452 59.432 59.452 32.848 0 59.475-26.593 59.475-59.452 0-.42-.139-.777-.139-1.209h.253c0 .432-.114.789-.114 1.209 0 32.859 26.594 59.452 59.44 59.452 32.838 0 59.432-26.593 59.432-59.452 0-.42-.126-.777-.126-1.209h.253c0 .432-.127.789-.127 1.209 0 32.859 26.626 59.452 59.485 59.452 32.806 0 59.432-26.593 59.432-59.452 0-.42-.127-.777-.127-1.209h.206z"/></defs><clipPath id="SVGID_12_"><use overflow="visible" xlink:href="#SVGID_11_"/></clipPath><path fill="none" stroke="#F97432" stroke-miterlimit="10" stroke-width="3" d="M2576.453 1389.801s-367.916 632.922-1140.211 192.233" clip-path="url(#SVGID_12_)"/><circle cx="2120.132" cy="1214.938" r="44.471" fill="#395B4F"/><circle cx="2286.791" cy="1699.602" r="44.471" fill="#395B4F"/><circle cx="2120.132" cy="2307.646" r="44.471" fill="#2E473E"/><path fill="#FAFEFE" d="M2448.252 1606.649c0 18.771-15.213 33.984-33.984 33.984-18.761 0-33.975-15.213-33.975-33.984s15.214-33.985 33.975-33.985c18.771 0 33.984 15.215 33.984 33.985z"/><path fill="#98D19E" d="M2458.748 2238.94c0 18.771-15.214 33.983-33.984 33.983-18.762 0-33.975-15.214-33.975-33.983 0-18.772 15.213-33.986 33.975-33.986 18.771 0 33.985 15.214 33.984 33.986z"/><path fill="#F97432" d="M1919.222 2294.088c0 18.771-15.212 33.983-33.984 33.983-18.762 0-33.975-15.214-33.975-33.983 0-18.772 15.213-33.986 33.975-33.986 18.772-.002 33.984 15.212 33.984 33.986z"/><path fill="#E44224" d="M1643.836 2204.955c0 18.771-15.213 33.985-33.983 33.985-18.762 0-33.976-15.215-33.976-33.985 0-18.771 15.214-33.984 33.976-33.984 18.77-.002 33.983 15.211 33.983 33.984zm241.402-442.783c0 18.771-15.213 33.984-33.983 33.984-18.762 0-33.976-15.213-33.976-33.984s15.214-33.984 33.976-33.984c18.77-.002 33.983 15.211 33.983 33.984z"/><path fill="#F7CB5B" d="M1991.309 1237.174c0 12.276-9.948 22.234-22.235 22.234-12.286 0-22.235-9.958-22.235-22.234 0-12.275 9.949-22.235 22.235-22.235 12.287-.001 22.235 9.958 22.235 22.235zm-288.568 476.399c0 12.275-9.95 22.235-22.235 22.235s-22.234-9.96-22.234-22.235c0-12.274 9.949-22.234 22.234-22.234s22.235 9.96 22.235 22.234z"/><path fill="#FAFEFE" d="M1793.041 1572.663c0 12.277-9.947 22.237-22.233 22.237-12.287 0-22.237-9.96-22.237-22.237 0-12.274 9.95-22.233 22.237-22.233 12.286-.002 22.233 9.957 22.233 22.233zm851.763 540.635c0 12.274-9.95 22.235-22.236 22.235-12.287 0-22.235-9.961-22.235-22.235 0-12.277 9.948-22.235 22.235-22.235 12.286-.002 22.236 9.956 22.236 22.235z"/><path fill="#F7CB5B" d="M2555.377 2073.026c0 12.274-9.95 22.235-22.236 22.235-12.285 0-22.235-9.96-22.235-22.235 0-12.276 9.95-22.236 22.235-22.236s22.236 9.96 22.236 22.236z"/><path fill="#F97432" d="M2276.307 2183.181c0 12.275-9.949 22.236-22.235 22.236-12.287 0-22.235-9.961-22.235-22.236s9.948-22.235 22.235-22.235c12.286 0 22.235 9.96 22.235 22.235z"/><path fill="#E44224" d="M1873.489 2185.445c0 12.276-9.947 22.236-22.234 22.236s-22.235-9.96-22.235-22.236c0-12.274 9.948-22.234 22.235-22.234s22.234 9.959 22.234 22.234z"/><path fill="#F7CB5B" d="M2375.736 1819.097c0 12.275-9.95 22.234-22.237 22.234-12.284 0-22.234-9.959-22.234-22.234 0-12.277 9.949-22.235 22.234-22.235 12.285 0 22.237 9.958 22.237 22.235z"/><path fill="#F97432" d="M2600.332 1784.406c0 12.275-9.949 22.235-22.235 22.235-12.287 0-22.235-9.96-22.235-22.235 0-12.274 9.948-22.234 22.235-22.234 12.286 0 22.235 9.96 22.235 22.234zm-744.289-547.232c0 12.276-9.948 22.234-22.235 22.234s-22.235-9.958-22.235-22.234c0-12.275 9.948-22.235 22.235-22.235s22.235 9.958 22.235 22.235z"/><path fill="#98D19E" d="M1989.076 1000.9c0 12.275-9.949 22.235-22.235 22.235s-22.235-9.96-22.235-22.235 9.949-22.234 22.235-22.234 22.235 9.959 22.235 22.234z"/><path fill="#F7CB5B" d="M2127.649 1063.395c0 12.275-9.949 22.235-22.235 22.235-12.287 0-22.235-9.96-22.235-22.235 0-12.276 9.948-22.235 22.235-22.235 12.284 0 22.235 9.959 22.235 22.235z"/><path fill="#F97432" d="M2357.237 1143.705c0 23.076-18.709 41.807-41.808 41.807-23.109 0-41.817-18.73-41.817-41.807 0-23.089 18.708-41.818 41.817-41.818 23.099-.001 41.808 18.728 41.808 41.818zm-238.845-832.467l69.007 139.805 154.285 22.424-111.653 108.813 26.359 153.666-137.998-72.545-137.986 72.545 26.347-153.666-111.625-108.813 154.272-22.424 68.992-139.805z"/><path fill="#F7CB5B" d="M2119.649 338.935l60.857 123.314 136.091 19.76-98.474 95.979 23.238 135.542-121.713-63.994-121.713 63.994 23.24-135.542-98.477-95.979 136.094-19.76 60.857-123.314z"/><path fill="#196031" d="M355.939 2105.125c0-.002-1.324.3-3.321.69-1.99.422-4.667.873-7.336 1.362-1.337.23-2.66.531-3.911.767-1.245.257-2.422.425-3.424.604-2.004.352-3.349.542-3.349.542a.191.191 0 0 1-.215-.162.191.191 0 0 1 .145-.211s1.322-.312 3.317-.711c.999-.196 2.155-.468 3.409-.681 1.25-.235 2.593-.438 3.923-.707 2.664-.513 5.32-1.064 7.33-1.394 2.003-.36 3.346-.562 3.346-.563a.235.235 0 0 1 .267.197.242.242 0 0 1-.181.267zm5.551 12.844s-1.691.305-4.239.702c-2.541.431-5.948.89-9.35 1.389-1.703.234-3.395.54-4.988.779-1.59.26-3.085.431-4.359.613-2.555.358-4.262.555-4.262.555a.19.19 0 0 1-.058-.377s1.69-.314 4.236-.723c1.272-.199 2.753-.475 4.349-.691 1.594-.24 3.301-.445 4.997-.721 3.397-.521 6.789-1.082 9.346-1.418 2.553-.366 4.259-.571 4.259-.571a.233.233 0 0 1 .266.196.236.236 0 0 1-.197.267zm20.248 14.546c0-.001-2.506.557-6.28 1.32-3.766.802-8.813 1.729-13.854 2.707-2.523.472-5.029 1.028-7.391 1.492-2.355.491-4.572.86-6.463 1.223-2.102.398-4.207.777-6.316 1.135a.238.238 0 0 1-.091-.467s2.504-.569 6.274-1.345c1.888-.382 4.077-.88 6.443-1.317 2.359-.467 4.892-.899 7.404-1.42 5.033-1.006 10.059-2.061 13.848-2.746 3.781-.724 6.313-1.156 6.313-1.157a.295.295 0 0 1 .339.239.296.296 0 0 1-.226.336zm-.324 19.297s-2.226.661-5.58 1.597c-3.348.966-7.841 2.142-12.321 3.356-2.245.594-4.472 1.256-6.57 1.829-2.094.596-4.067 1.081-5.749 1.532-3.366.896-5.622 1.45-5.622 1.45a.191.191 0 0 1-.099-.368s2.224-.67 5.576-1.613c1.677-.469 3.623-1.055 5.728-1.609 2.101-.574 4.354-1.14 6.587-1.771 4.477-1.236 8.941-2.513 12.313-3.386 3.362-.904 5.616-1.47 5.616-1.47a.234.234 0 0 1 .121.453zm-7.554 18.177s-1.795.654-4.506 1.58c-2.701.956-6.339 2.12-9.964 3.323-1.816.589-3.611 1.243-5.311 1.813-1.689.59-3.292 1.07-4.651 1.519-1.514.495-3.031.974-4.555 1.437-.1.034-.207-.02-.24-.119s.02-.208.119-.241c0 0 1.793-.664 4.5-1.599 1.355-.463 2.924-1.043 4.628-1.593 1.696-.569 3.523-1.129 5.329-1.754 3.617-1.225 7.223-2.487 9.953-3.354a255.85 255.85 0 0 1 4.549-1.454.234.234 0 1 1 .149.442zm13.679 14.048s-1.742.843-4.383 2.051c-2.626 1.236-6.175 2.779-9.707 4.361-1.771.777-3.515 1.618-5.168 2.363-1.645.767-3.21 1.414-4.536 2.004a234.693 234.693 0 0 1-4.443 1.91.19.19 0 0 1-.256-.082.19.19 0 0 1 .1-.264s1.739-.853 4.374-2.067c1.319-.604 2.841-1.349 4.504-2.073 1.652-.748 3.438-1.496 5.193-2.311 3.521-1.602 7.027-3.24 9.692-4.39 2.652-1.181 4.438-1.929 4.438-1.929a.234.234 0 0 1 .307.124v.001a.236.236 0 0 1-.115.302zm-66.011-336.557s-.54-1.243-1.295-3.131c-.785-1.875-1.724-4.418-2.7-6.945-.476-1.27-1.016-2.513-1.478-3.695-.482-1.176-.865-2.3-1.229-3.248a108.81 108.81 0 0 1-1.152-3.187.188.188 0 0 1 .089-.253.19.19 0 0 1 .254.089l.01.026s.55 1.24 1.313 3.124c.378.942.857 2.027 1.301 3.219.464 1.183.91 2.463 1.422 3.718.997 2.521 2.032 5.025 2.729 6.937a131.33 131.33 0 0 1 1.172 3.179.235.235 0 0 1-.134.302.235.235 0 0 1-.302-.135zm-17.913 10.774s-.73-1.558-1.774-3.916c-1.072-2.347-2.396-5.521-3.76-8.679-.667-1.584-1.399-3.141-2.042-4.618-.662-1.471-1.216-2.87-1.723-4.057-1.006-2.375-1.637-3.976-1.637-3.976a.192.192 0 0 1 .107-.247.19.19 0 0 1 .241.095s.741 1.553 1.793 3.908c.521 1.179 1.17 2.537 1.794 4.024.645 1.478 1.283 3.073 1.987 4.644 1.382 3.147 2.802 6.281 3.787 8.665 1.014 2.371 1.654 3.968 1.654 3.968a.237.237 0 0 1-.132.306.232.232 0 0 1-.295-.117zm-7.59 14.6s-1.834-1.797-4.532-4.545c-2.727-2.721-6.259-6.448-9.825-10.142-1.771-1.856-3.606-3.654-5.283-5.382-1.696-1.707-3.215-3.363-4.549-4.752-2.661-2.784-4.396-4.678-4.396-4.678a.24.24 0 0 1 .03-.337.24.24 0 0 1 .312.005s1.845 1.788 4.551 4.528c1.349 1.374 2.962 2.938 4.618 4.684 1.68 1.727 3.423 3.611 5.229 5.437 3.589 3.672 7.214 7.31 9.854 10.111a366.023 366.023 0 0 1 4.413 4.661.291.291 0 0 1-.015.413l-.001.001a.292.292 0 0 1-.406-.004zm-14.038 17.515c.001 0-1.766-1.508-4.375-3.813-2.631-2.282-6.063-5.411-9.52-8.51-1.721-1.562-3.486-3.067-5.11-4.518-1.639-1.433-3.12-2.824-4.414-3.988-2.582-2.337-4.274-3.928-4.274-3.928a.191.191 0 0 1 .254-.285s1.771 1.5 4.389 3.8c1.305 1.151 2.855 2.466 4.466 3.931 1.625 1.447 3.324 3.03 5.069 4.561 3.474 3.082 6.974 6.135 9.541 8.487 2.588 2.33 4.287 3.912 4.288 3.912a.234.234 0 0 1 .003.332.234.234 0 0 1-.317.019zm-12.683 14.225s-1.526-1.146-3.778-2.912c-2.271-1.741-5.229-4.153-8.212-6.533-1.481-1.201-3.009-2.347-4.409-3.459-1.415-1.095-2.689-2.174-3.807-3.069-2.227-1.798-3.684-3.029-3.684-3.029a.191.191 0 0 1-.018-.27.19.19 0 0 1 .254-.029s1.532 1.139 3.79 2.896c1.126.883 2.467 1.879 3.854 3.008 1.401 1.11 2.865 2.336 4.373 3.506 2.996 2.362 6.019 4.693 8.229 6.51 1.241.994 2.474 1.999 3.696 3.016.099.083.112.23.029.33a.233.233 0 0 1-.317.035zm-5.443 12.609c0-.001-1.654-1.006-4.104-2.563-2.468-1.531-5.696-3.669-8.946-5.773-1.618-1.063-3.272-2.067-4.799-3.051-1.538-.964-2.936-1.924-4.151-2.717-2.429-1.592-4.022-2.689-4.022-2.689a.19.19 0 0 1-.049-.265.192.192 0 0 1 .254-.056s1.661.996 4.116 2.547c1.227.777 2.68 1.649 4.192 2.649 1.527.981 3.128 2.07 4.768 3.103 3.263 2.085 6.547 4.136 8.963 5.747 2.434 1.584 4.034 2.674 4.034 2.673a.238.238 0 0 1 .063.326.242.242 0 0 1-.319.069z"/><path fill="#A33936" d="M704.637 1839.58s-48.737-18.961-111.23 38.363c-62.512 57.333-103.637 96.893-168.6 72.159-66.441-25.236-83.445-105.478-95.112-105.141-20.262.609-72.938 50.356-70.513 82.392 2.425 32.026 119.994 205.131 279.494 121.544 159.5-83.614 96.688-134.272 125.42-149.719s68.193-13.729 68.193-13.729l-27.652-45.869"/><path fill="#B53939" d="M716.906 1859.655s-74.53-3.61-125.862 85.499c-51.35 89.111-79.021 120.465-133.147 135.335-53.563 14.757-102.247-2.778-106.39 4.647-4.179 7.443 24.324 130.227 57.854 129.643 113.798-1.938 261.003-57.457 325.709-285.62l-18.164-69.504z"/><path fill="#F3FFFE" stroke="#82847E" stroke-miterlimit="10" stroke-width="6" d="M935.686 1800.897c-109.549 15.376-271.032 52.766-350.893 335.03-79.879 282.3 80.56 435.259 207.9 465.762 127.323 30.494 462.044 27.972 544.4-133.98 82.34-161.941 25.563-376.271-85.375-524.927-110.964-148.647-268.905-148.487-316.032-141.885z"/><path fill="#FFF" d="M1184.668 1669.608c.142 135.14-116.685 244.822-260.925 244.964-144.266.15-261.313-109.311-261.444-244.468-.133-135.127 116.685-244.836 260.94-244.973 144.25-.146 261.288 109.306 261.429 244.477z"/><path fill="#650E81" d="M923.24 1425.133c-108.15.109-200.891 61.808-240.476 149.639 139.052-13.809 279.972-36.063 405.083-95.086-44.966-34.147-102.22-54.612-164.607-54.553z" opacity=".15"/><path fill="#F3FFFE" stroke="#82847E" stroke-miterlimit="10" stroke-width="6" d="M1087.848 1479.684c-125.111 59.024-266.031 81.276-405.083 95.086-13.216 29.309-20.492 61.528-20.466 95.334.133 135.157 117.18 244.618 261.445 244.468 144.239-.142 261.064-109.824 260.924-244.964-.071-76.718-37.814-145.11-96.82-189.924h0z"/><path fill="#F9A5AF" d="M838.963 1710.99c-.011-18.261-14.854-33.062-33.105-33.035-18.271.011-33.07 14.854-33.062 33.106.034 18.278 14.844 33.069 33.122 33.061 18.272-.034 33.054-14.88 33.045-33.132zm301.305-76.16c-.01-18.253-14.854-33.062-33.105-33.035-18.271.019-33.069 14.846-33.053 33.114.018 18.253 14.854 33.054 33.105 33.035 18.287-.017 33.088-14.852 33.053-33.114z"/><path fill="#650E81" d="M1180.738 1889.096c23.032-18.129-8.036-96.353-22.411-100.821-14.35-4.479-78.853 47.321-210.981 59.307-132.148 11.958-226.562-49.225-246.796-18.793-20.271 30.441-20.253 99.84 3.654 106.435 23.871 6.62 300.066 92.854 476.534-46.128z" opacity=".15"/><path fill="#CE4A4A" d="M1180.384 1877.438c23.032-18.146-8.056-96.378-22.396-100.839-14.356-4.497-78.852 47.321-210.989 59.307-132.14 11.959-226.569-49.216-246.822-18.773-20.253 30.433-20.235 99.813 3.674 106.451 23.889 6.611 300.082 92.827 476.533-46.146z"/><path fill="#1E120D" d="M820.011 1659.633s-.636-1.683-1.433-4.702c-.773-3.021-1.774-7.397-2.104-12.768-.161-2.681-.157-5.605.197-8.681.348-3.07 1.08-6.297 2.423-9.425 1.339-3.12 3.318-6.132 5.941-8.584 2.605-2.463 5.798-4.37 9.163-5.648 3.369-1.309 6.973-2.131 10.578-2.053 3.602.045 7.117 1.106 10.063 2.837 2.966 1.727 5.36 4.059 7.301 6.467 1.944 2.417 3.459 4.931 4.69 7.317 2.45 4.793 3.789 9.081 4.64 12.08.833 3.011 1.133 4.783 1.133 4.783a.34.34 0 0 1-.668.123s-.328-1.729-1.213-4.691c-.89-2.952-2.333-7.151-4.79-11.826-1.234-2.327-2.744-4.765-4.654-7.083-1.9-2.318-4.238-4.501-7.042-6.13-2.795-1.625-6.085-2.604-9.482-2.637-3.397-.063-6.85.731-10.079 2.002-3.264 1.255-6.292 3.035-8.78 5.371-2.499 2.317-4.394 5.168-5.688 8.151-1.289 2.993-2.029 6.101-2.41 9.082-.383 2.986-.422 5.854-.295 8.486a70.04 70.04 0 0 0 1.838 12.632c.724 3.006 1.31 4.665 1.31 4.665a.337.337 0 0 1-.204.432l-.003.001a.341.341 0 0 1-.432-.201zm200.325-51.193s-.719-1.772-1.67-4.961c-.929-3.189-2.16-7.808-2.748-13.507-.289-2.846-.422-5.96-.177-9.248.244-3.281.9-6.758 2.304-10.114 1.387-3.349 3.605-6.548 6.6-8.957 2.959-2.44 6.62-4.062 10.332-4.999 3.743-.956 7.771-1.067 11.487-.032 3.719 1.038 6.977 3.159 9.564 5.681 2.614 2.518 4.614 5.407 6.265 8.244 1.645 2.851 2.921 5.685 3.965 8.344 2.07 5.33 3.199 9.963 3.915 13.206.698 3.251.944 5.146.944 5.146a.34.34 0 0 1-.673.096s-.274-1.858-1.028-5.069c-.76-3.205-1.991-7.771-4.097-13.005-1.056-2.612-2.342-5.39-3.979-8.158-1.64-2.761-3.627-5.538-6.144-7.938-2.492-2.41-5.578-4.393-9.063-5.354-3.486-.955-7.271-.848-10.847.078-3.604.938-7.03 2.438-9.851 4.739-2.831 2.263-4.936 5.263-6.272 8.451-1.348 3.196-2 6.547-2.283 9.735-.277 3.198-.186 6.254.066 9.056.532 5.609 1.608 10.216 2.476 13.391.877 3.179 1.546 4.934 1.546 4.934a.34.34 0 0 1-.196.438.347.347 0 0 1-.436-.197z"/><path fill="#D12222" d="M983.61 1618.88c4.319 15.597-7.144 32.424-25.661 37.575-18.51 5.17-37.026-3.258-41.382-18.854-4.355-15.597 7.134-32.415 25.643-37.585 18.509-5.133 37.044 3.276 41.4 18.864z"/><path fill="#1E120D" d="M867.763 1677.212l.377.479c.251.311.606.809 1.122 1.353.984 1.136 2.604 2.734 4.865 4.501 4.507 3.569 11.712 7.731 20.908 11.423 4.594 1.852 9.687 3.584 15.166 5.081 5.474 1.519 11.34 2.77 17.451 3.771 6.121.949 12.498 1.628 18.996 1.823 6.497.236 13.107-.027 19.665-.729 6.55-.745 13.053-1.962 19.271-3.805 6.233-1.787 12.153-4.238 17.613-7.1 5.436-2.913 10.389-6.278 14.712-9.919 4.332-3.636 7.995-7.566 11.073-11.427a85.254 85.254 0 0 0 7.534-11.173c1.033-1.727 1.847-3.426 2.653-4.969.769-1.562 1.406-3.03 2.02-4.339 1.107-2.671 1.962-4.777 2.454-6.249l.806-2.236.008-.021a.51.51 0 0 1 .959.337l-.774 2.271c-.474 1.492-1.302 3.635-2.376 6.354-.6 1.334-1.221 2.831-1.973 4.425-.791 1.576-1.59 3.313-2.607 5.081-1.953 3.578-4.393 7.507-7.506 11.461-3.098 3.959-6.799 8.003-11.187 11.755a84.597 84.597 0 0 1-14.946 10.239c-5.563 2.938-11.596 5.455-17.937 7.295-6.326 1.896-12.934 3.15-19.584 3.93-6.658.725-13.364.943-19.942.69-6.582-.219-13.03-.926-19.22-1.906-12.373-2.015-23.647-5.383-32.911-9.219-9.285-3.804-16.498-8.216-21.06-11.93-2.291-1.854-3.912-3.508-4.946-4.741-.544-.6-.874-1.085-1.124-1.403l-.368-.485a.508.508 0 1 1 .808-.618z"/><path fill="#992F2C" d="M1043.43 1384.643c25.74-3.908 47.339 80.29 47.339 80.29-44.772 34.689-390.062 116.493-435.329 103.924-8.764-2.438-29.919-52.434-9.295-70.902a31.3 31.3 0 0 1 3.62-2.709c44.764-29.313 317.628-99.011 393.665-110.603z"/><path fill="#DB4545" d="M674.134 1240.28c230.766-104.092 369.296 144.363 369.296 144.363-76.037 11.592-348.901 81.29-393.665 110.603l-3.134-3.243c-58.625-70.367-115.24 77.431-230.934 105.562-113.984 27.706-188.685-61.418-188.685-61.418l3.15.837c6.542-1.53 12.038-5.926 14.942-11.896 240.408 89.435 199.115-181.14 429.03-284.808z"/><path fill="#8D2019" d="M226.907 1492.914c-12.33-.956-23.086 8.264-24.067 20.52-.965 12.326 8.196 23.027 20.51 24.046 2.283.212 4.586.044 6.815-.496 6.542-1.531 12.038-5.926 14.941-11.896 1.257-2.461 2.026-5.22 2.248-8.108.958-12.32-8.197-23.026-20.447-24.066z"/><path fill="#650E81" d="M1288.781 2392.097c-4.619.981-7.205 15.42.124 15.729 7.347.319 8.906-17.72-.124-15.729zm-10.197 24.52c4.621.93 7.375 15.34.026 15.747-7.311.398-9.071-17.642-.026-15.747zm33.504 4.16c4.621.947 7.375 15.35.026 15.756-7.329.391-9.063-17.642-.026-15.756zm-22.049 32.326c4.604.956 7.364 15.332.034 15.748-7.329.371-9.062-17.624-.034-15.748zm-682.895-226.355c-4.62 1.009-7.205 15.42.124 15.737 7.347.345 8.905-17.702-.124-15.737zm-10.197 24.51c4.621.947 7.365 15.357.036 15.766-7.33.398-9.082-17.626-.036-15.766zm33.502 4.177c4.631.947 7.374 15.375.026 15.765-7.309.416-9.079-17.633-.026-15.765zm-22.057 32.326c4.63.947 7.383 15.331.045 15.747-7.329.399-9.082-17.623-.045-15.747z" opacity=".2"/><path fill="#00902F" d="M1183.82 1973.25c-6.239-1.73-12.393-3.714-18.485-5.894-6.088-2.194-12.09-4.646-17.924-7.492-2.912-1.434-5.783-2.965-8.549-4.7-2.757-1.738-5.445-3.644-7.801-5.998-1.172-1.179-2.253-2.484-3.1-3.979-.855-1.479-1.432-3.217-1.404-5.025.013-1.808.695-3.55 1.65-4.989.264-.364.483-.672.802-1.067.28-.302.515-.597.834-.903.665-.632 1.343-1.185 2.104-1.621 1.509-.9 3.222-1.428 4.931-1.604 1.714-.178 3.42-.061 5.072.217 3.313.568 6.416 1.769 9.387 3.146 2.97 1.392 5.809 3.013 8.562 4.75 2.755 1.734 5.42 3.598 8.03 5.524 5.213 3.87 10.191 8.026 15.021 12.339a264.955 264.955 0 0 1 14.004 13.473.877.877 0 0 1-1.188 1.29c-2.772-2.279-5.442-4.626-8.086-7.025a246.287 246.287 0 0 1-7.759-7.366c-5.058-5.029-9.91-10.279-14.35-15.892-2.216-2.807-4.313-5.717-6.224-8.758-1.894-3.05-3.609-6.235-4.89-9.634-1.254-3.387-2.111-7.059-1.709-10.791.2-1.854.738-3.693 1.631-5.354.236-.405.478-.811.733-1.203.291-.382.523-.749.865-1.141.312-.334.544-.663.94-1.002l.547-.501c.19-.154.393-.288.59-.433 1.562-1.163 3.705-1.63 5.611-1.287 1.929.316 3.641 1.188 5.16 2.217 3.045 2.087 5.536 4.744 7.834 7.499 2.291 2.769 4.368 5.688 6.338 8.668a176.552 176.552 0 0 1 5.601 9.124c3.556 6.183 6.83 12.515 9.925 18.928 3.086 6.421 6.018 12.901 8.75 19.49l-1.266.345c-.877-6.572-1.529-13.147-2.021-19.749-.48-6.599-.772-13.215-.754-19.839.013-3.312.115-6.626.349-9.937.244-3.309.61-6.615 1.262-9.888.664-3.256 1.551-6.539 3.312-9.479.906-1.432 2.048-2.836 3.646-3.655 1.566-.879 3.464-.988 5.15-.637.438.091.808.21 1.282.345.386.162.757.278 1.168.529.78.425 1.477.991 2.052 1.669 1.168 1.313 1.892 2.901 2.432 4.5 1.048 3.225 1.376 6.578 1.518 9.896.227 6.656-.436 13.277-1.334 19.833-.921 6.56-2.15 13.065-3.554 19.53-1.414 6.465-2.984 12.885-4.772 19.27l-1.221-.441c2.258-5.098 4.711-10.077 7.313-14.994 2.608-4.91 5.383-9.738 8.424-14.409 3.07-4.646 6.384-9.173 10.341-13.177 1.996-1.978 4.149-3.85 6.673-5.244 1.261-.688 2.625-1.247 4.081-1.52 1.45-.273 2.999-.241 4.437.209 1.438.454 2.713 1.271 3.799 2.258.255.23.511.464.766.757.264.272.506.558.72.854.458.579.827 1.229 1.147 1.898 1.269 2.738 1.057 5.888.188 8.587-.867 2.738-2.26 5.229-3.828 7.557-1.576 2.328-3.341 4.507-5.201 6.589-3.726 4.163-7.82 7.953-12.072 11.537-4.26 3.58-8.656 6.976-13.233 10.151a.459.459 0 1 1-.529-.752l.009-.006a179.603 179.603 0 0 0 13.043-10.228c2.095-1.8 4.138-3.658 6.127-5.573 1.987-1.913 3.922-3.88 5.745-5.941 1.826-2.057 3.549-4.204 5.072-6.475 1.52-2.268 2.844-4.68 3.644-7.238.803-2.537.942-5.313-.156-7.659-.281-.577-.601-1.141-1.006-1.646a6.36 6.36 0 0 0-.619-.731 7.62 7.62 0 0 0-.714-.701c-.965-.87-2.082-1.573-3.295-1.952-2.454-.76-5.148-.063-7.458 1.232-2.337 1.302-4.41 3.104-6.337 5.029-3.832 3.903-7.088 8.387-10.111 12.989-3.033 4.606-5.813 9.388-8.432 14.256-2.607 4.87-5.082 9.831-7.342 14.861a.649.649 0 0 1-1.218-.442c1.809-6.324 3.409-12.732 4.853-19.163 1.432-6.435 2.689-12.908 3.641-19.427.931-6.513 1.617-13.089 1.429-19.645-.115-3.265-.434-6.561-1.453-9.622-.517-1.518-1.205-2.993-2.248-4.152a6.249 6.249 0 0 0-1.768-1.438c-.29-.192-.709-.332-1.085-.487-.321-.077-.741-.218-1.11-.289-1.526-.306-3.129-.202-4.468.553-1.366.699-2.401 1.96-3.241 3.296-1.639 2.75-2.511 5.953-3.146 9.146-.628 3.21-.981 6.48-1.212 9.757a147.426 147.426 0 0 0-.313 9.861c-.005 6.585.328 13.173.838 19.743.521 6.568 1.207 13.139 2.109 19.653a.663.663 0 0 1-.564.746.664.664 0 0 1-.7-.401c-2.746-6.529-5.707-12.992-8.813-19.368-3.116-6.373-6.368-12.683-9.917-18.814a175.109 175.109 0 0 0-5.566-9.039c-1.951-2.945-4.008-5.821-6.254-8.526-2.244-2.691-4.688-5.265-7.521-7.197-1.412-.958-2.957-1.714-4.552-1.97-1.585-.267-3.197.081-4.496 1.039-2.666 1.971-4.303 5.189-4.641 8.536-.364 3.37.425 6.829 1.635 10.073 1.23 3.259 2.904 6.36 4.763 9.343 1.876 2.977 3.944 5.839 6.137 8.605 4.386 5.54 9.226 10.727 14.267 15.698a247.383 247.383 0 0 0 7.734 7.282 217.884 217.884 0 0 0 8.039 6.927l-1.188 1.29c-4.467-4.603-9.156-9.035-13.947-13.319-4.801-4.28-9.746-8.399-14.901-12.222-2.583-1.903-5.213-3.738-7.921-5.441-2.705-1.704-5.484-3.287-8.361-4.632-2.873-1.337-5.856-2.462-8.916-3-3.026-.551-6.231-.44-8.781 1.085-.646.357-1.225.835-1.736 1.303-.27.246-.544.581-.814.867l-.654.864c-.826 1.231-1.372 2.62-1.396 4.054-.031 1.433.41 2.874 1.154 4.188.732 1.321 1.713 2.538 2.807 3.653 2.194 2.235 4.791 4.117 7.472 5.838 2.688 1.72 5.507 3.255 8.373 4.694 5.739 2.875 11.698 5.324 17.715 7.612 6.021 2.272 12.13 4.358 18.298 6.187l.007.002a.46.46 0 0 1 .311.57.487.487 0 0 1-.579.313z"/><path fill="#D13D3D" d="M1341.573 1965.248c-17.985-12.657-243.68.354-273.438 41.072-10.631 14.563 48.888 300.694 62.697 308.635 13.791 7.948 242.184-37.382 250.123-51.189 7.957-13.819-21.412-285.841-39.382-298.518z"/><path fill="#00902F" d="M1213.561 1965.053l58.059 329.923-17.049 3.098-66.087-331.4 25.077-1.621z"/><path fill="#047C2B" d="M1213.686 1966.074c0 .001.686 1.32 1.873 3.844a354.838 354.838 0 0 0 5.336 10.804c2.391 4.604 5.402 10.146 9.307 16.222 3.914 6.059 8.627 12.74 14.621 19.285l2.281 2.467 2.442 2.402c.807.826 1.675 1.6 2.56 2.371.891.765 1.742 1.592 2.684 2.324 3.681 3.049 7.796 5.809 12.264 8.193 4.468 2.399 9.436 4.12 14.631 5.189l1.965.363.985.185c.331.051.667.062 1.001.096l4.033.34c2.711-.042 5.457.023 8.193-.419l2.063-.244c.693-.058 1.361-.273 2.045-.402l4.096-.914 4.025-1.297c.668-.233 1.361-.397 2.011-.688l1.964-.834c1.303-.565 2.648-1.091 3.928-1.694 1.272-.668 2.594-1.278 3.838-1.997 1.228-.746 2.513-1.398 3.69-2.24l1.803-1.208c.591-.42 1.151-.878 1.73-1.315 1.179-.849 2.219-1.865 3.315-2.817 1.008-1.044 2.077-2.041 2.969-3.194 1.859-2.23 3.463-4.708 4.562-7.41 1.101-2.694 1.681-5.618 1.539-8.521-.146-2.89-.957-5.799-2.649-8.16-1.619-2.399-4.113-4.183-6.903-4.896a12.242 12.242 0 0 0-4.291-.233c-.36.017-.708.136-1.063.198-.35.09-.714.12-1.052.257-.674.262-1.386.428-2.021.788-.651.316-1.309.627-1.902 1.051l-.915.59c-.278.193-.577.446-.864.667a10.564 10.564 0 0 0-2.591 3.367c-1.278 2.581-1.382 5.604-.865 8.416 1.097 5.688 4.392 10.728 8.364 14.748 4.014 4.032 8.889 7.104 14.098 8.96a36.954 36.954 0 0 0 16.036 1.928c5.302-.524 10.339-2.138 14.884-4.375 4.56-2.232 8.646-5.063 12.3-8.147 1.89-1.493 3.579-3.113 5.271-4.675l2.396-2.449c.792-.808 1.492-1.682 2.234-2.503 5.784-6.707 9.633-14.086 11.308-21.081 1.714-7.001 1.385-13.412.403-18.457-.985-5.072-2.533-8.874-3.736-11.355-1.206-2.493-2.053-3.697-2.053-3.697a.227.227 0 0 1 .056-.319.233.233 0 0 1 .321.059s.88 1.229 2.121 3.741c1.237 2.502 2.84 6.326 3.877 11.459 1.01 5.107 1.364 11.612-.354 18.727-1.677 7.105-5.562 14.603-11.387 21.4-.746.834-1.456 1.719-2.261 2.528-.802.813-1.61 1.634-2.43 2.462-1.717 1.572-3.447 3.215-5.334 4.691-3.689 3.091-7.838 5.939-12.461 8.18-4.607 2.246-9.723 3.859-15.104 4.368a37.464 37.464 0 0 1-16.252-2.021 38.837 38.837 0 0 1-14.312-9.045c-4.041-4.068-7.414-9.16-8.567-15.017-.54-2.894-.456-6.05.889-8.793a11.152 11.152 0 0 1 2.754-3.594c.299-.229.562-.458.887-.688l.943-.613c.612-.438 1.293-.765 1.971-1.096.656-.375 1.402-.558 2.104-.829.354-.143.735-.181 1.103-.273.373-.067.736-.19 1.117-.211a12.918 12.918 0 0 1 4.537.233c2.965.741 5.609 2.63 7.32 5.146 1.789 2.479 2.646 5.522 2.798 8.531.15 3.023-.451 6.054-1.581 8.833-1.129 2.787-2.771 5.328-4.669 7.61-.91 1.182-1.997 2.197-3.022 3.264-1.115.972-2.176 2.007-3.37 2.871-.587.443-1.157.91-1.755 1.337l-1.825 1.227c-1.192.854-2.503 1.523-3.75 2.282-1.265.73-2.569 1.335-3.847 2.007-1.323.629-2.658 1.149-3.981 1.728l-1.983.844c-.656.294-1.357.463-2.033.699l-4.072 1.316-4.149.933c-.692.132-1.37.351-2.071.411l-2.094.25c-2.773.449-5.564.393-8.318.438l-4.101-.338c-.34-.033-.682-.045-1.018-.096l-1.003-.185-1.997-.365c-5.283-1.075-10.332-2.816-14.867-5.239-4.536-2.409-8.707-5.196-12.433-8.27-.953-.739-1.815-1.573-2.717-2.344-.896-.777-1.773-1.558-2.59-2.389l-2.469-2.421-2.307-2.482a50.243 50.243 0 0 1-2.201-2.481l-2.098-2.478c-1.299-1.699-2.646-3.3-3.814-4.967l-1.771-2.438-1.656-2.419c-1.104-1.581-2.094-3.17-3.074-4.695-3.88-6.131-6.863-11.711-9.229-16.344-2.354-4.64-4.041-8.363-5.209-10.891a118.65 118.65 0 0 0-1.813-3.855c-.058-.113-.013-.252.101-.31s.249-.015.307.098z"/><path fill="none" stroke="#047C2B" stroke-linecap="round" stroke-linejoin="round" stroke-miterlimit="10" stroke-width=".932" d="M1190.828 1968.594s4.868 66.564-22.979 86.748c-38.452 27.794-51.376-8.091-30.91-9.215 11.79-.646 26.413 45.399-77.488 65.627"/><path fill="#650E81" d="M925.382 2020.607c4.143-2.284 15.579 6.859 10.286 11.94-5.303 5.064-18.358-7.504-10.286-11.94zm-32.644 2.832c2.558-3.975 16.986-1.337 14.693 5.639-2.283 7.002-19.722 2.106-14.693-5.639zm16.127 18.97c2.566-3.966 16.979-1.327 14.72 5.665-2.274 6.976-19.739 2.115-14.72-5.665zm55.413-1.654c2.566-3.957 16.979-1.319 14.711 5.665-2.276 6.973-19.722 2.096-14.711-5.665z" opacity=".2"/><g><path fill="#29515E" d="M474.494 2448.134h300.988v211.758H474.494v-211.758z"/><path fill="#1E8C8F" d="M801.935 2424.104H446.724l33.563-104.242h288.08l33.568 104.242z"/><path fill="#4B394C" d="M474.276 2485.425H774.74v36.792H474.276v-36.792z"/><path fill="#24A0A0" d="M446.682 2424.104H800.8v58.254H446.682v-58.254z"/><path fill="#B8B8B8" d="M651.107 2424.104h-53.555l5.061-104.242h43.433l5.061 104.242z"/><path fill="#EDEEF0" d="M598.175 2424.575h52.31v237.143h-52.31v-237.143z"/><g fill="#EDEEF0"><path d="M577.76 2381.205c-21.605 0-45.54-7.795-67.395-21.95-45.957-29.768-66.343-77.19-46.408-107.966 9.918-15.314 27.713-23.75 50.105-23.75 21.605 0 45.54 7.795 67.397 21.951 45.954 29.767 66.34 77.191 46.409 107.967-9.92 15.314-27.714 23.748-50.108 23.748zm-63.696-115.306c-8.815 0-15.342 2.275-17.911 6.243-5.991 9.248 4.691 35.24 35.067 54.914 15.487 10.034 32.453 15.787 46.54 15.787 8.812 0 15.342-2.275 17.911-6.243 5.991-9.249-4.691-35.239-35.067-54.913-15.489-10.033-32.452-15.788-46.54-15.788z"/><path d="M620.789 2357.457c-19.933-30.774.451-78.2 46.408-107.967 21.857-14.156 45.792-21.951 67.395-21.951 22.396 0 40.189 8.436 50.108 23.75 19.933 30.774-.452 78.198-46.409 107.966-21.854 14.155-45.789 21.95-67.394 21.95-22.392 0-40.19-8.434-50.108-23.748zm67.265-75.77c-30.375 19.674-41.058 45.664-35.07 54.913 2.569 3.968 9.099 6.243 17.914 6.243 14.087 0 31.049-5.753 46.537-15.787 30.378-19.674 41.058-45.666 35.07-54.914-2.569-3.969-9.1-6.243-17.914-6.243-14.086 0-31.048 5.755-46.537 15.788z"/></g></g><g><path fill="#C46942" d="M1001.34 2730.539l-220.388-82.656v-284.708l220.388 82.655v284.709z"/><path fill="#E1902B" d="M1001.002 2730.539l220.418-82.656v-284.708l-220.418 82.655v284.709z"/><path fill="#FFDC5E" d="M1001.002 2282.325l220.621 81.753-220.621 81.752-220.622-81.752 220.622-81.753z"/><path fill="#C45742" d="M1001.34 2546.856l-220.388-82.658V2424.4l220.388 82.657v39.799z"/><path fill="#C46942" d="M999.519 2546.856l220.387-82.658v-41.327l-220.387 82.655v41.33z"/><path fill="#C46942" d="M1001.34 2519.303l-254.993-95.408v-60.394l254.993 95.408v60.394z"/><path fill="#E1902B" d="M1001.238 2519.303l254.416-95.408v-60.394l-254.416 95.408v60.394z"/><path fill="#FFDC5E" d="M1001.002 2270.184l254.651 94.363-254.651 94.362-254.655-94.362 254.655-94.363z"/><path fill="#605560" d="M1097.873 2701.455l60.105-24.99v-278.606l-60.105 22.716v280.88z"/><path fill="#4B394C" d="M904.007 2301.946l254.655 95.912-61.227 22.716-254.095-95.129 60.667-23.499z"/><path fill="#605560" d="M904.807 2701.455l-61.927-24.99v-278.606l61.927 22.716v280.88z"/><path fill="#4B394C" d="M1097.994 2301.946l-254.653 95.912 61.228 22.716 254.094-95.129-60.669-23.499z"/><g><path fill="#605560" d="M904.634 2397.26c-15.808 13.524-28.97 7.569-28.97-13.233v-123.236c0-20.804 13.162-26.759 28.972-13.23l90.756 74.847-90.758 74.852zm192.161-149.701c15.806-13.527 28.398-7.572 28.398 13.231v123.235c0 20.804-12.594 26.759-28.398 13.233l-90.76-74.85 90.76-74.849z"/><path fill="#3D2A3D" d="M941.101 2277.268c-2.3 2.36-3.509 5.578-3.509 9.134v72.014c0 3.557 1.209 6.775 3.509 9.133l54.733-45.143-54.733-45.138zm123.987 9.134c0-3.554-1.551-6.772-3.85-9.132l-54.798 45.142 54.826 45.139c2.302-2.358 3.819-5.578 3.819-9.135v-72.014h.003z"/><path fill="#605560" d="M1041.41 2345.273c0 4.593-3.604 8.239-8.192 8.239h-64.436c-4.593 0-7.514-3.646-7.514-8.239v-45.727c0-4.594 2.921-7.963 7.514-7.963h64.436c4.589 0 8.192 3.369 8.192 7.963v45.727z"/></g></g><g><path fill="#C46942" d="M2242.57 2661.588l-161.147-60.438v-208.18l161.147 60.439v208.179z"/><path fill="#E1902B" d="M2242.323 2661.588l161.17-60.438v-208.18l-161.17 60.439v208.179z"/><path fill="#FFDC5E" d="M2242.323 2333.853l161.319 59.779-161.319 59.777-161.32-59.777 161.32-59.779z"/><path fill="#C45742" d="M2242.57 2527.279l-161.147-60.438v-29.102l161.147 60.438v29.102z"/><path fill="#C46942" d="M2241.238 2527.279l161.147-60.438v-30.22l-161.147 60.438v30.22z"/><path fill="#C46942" d="M2242.57 2507.134l-186.452-69.763v-44.161l186.453 69.763-.001 44.161z"/><path fill="#E1902B" d="M2242.493 2507.134l186.031-69.763v-44.161l-186.031 69.763v44.161z"/><path fill="#FFDC5E" d="M2242.323 2324.976l186.202 68.997-186.202 68.999-186.206-68.999 186.206-68.997z"/><path fill="#605560" d="M2313.156 2640.322l43.949-18.272v-203.718l-43.949 16.609v205.381z"/><path fill="#3D2A3D" d="M2171.4 2348.2l186.205 70.132-44.771 16.609-185.795-69.559 44.361-17.182z"/><path fill="#605560" d="M2171.985 2640.322l-45.281-18.272v-203.718l45.281 16.609v205.381z"/><path fill="#3D2A3D" d="M2313.242 2348.2l-186.203 70.132 44.771 16.609 185.794-69.559-44.362-17.182z"/><g><path fill="#605560" d="M2171.858 2417.894c-11.559 9.89-21.184 5.535-21.184-9.676v-90.111c0-15.212 9.625-19.566 21.185-9.675l66.362 54.729-66.363 54.733zm140.507-109.462c11.557-9.893 20.767-5.537 20.767 9.675v90.111c0 15.211-9.209 19.564-20.767 9.676l-66.363-54.729 66.363-54.733z"/><path fill="#3D2A3D" d="M2198.522 2330.155c-1.68 1.728-2.564 4.08-2.564 6.679v52.657c0 2.602.886 4.954 2.564 6.679l40.021-33.009-40.021-33.006zm90.661 6.679c0-2.598-1.134-4.951-2.815-6.676l-40.066 33.008 40.089 33.004c1.684-1.725 2.794-4.077 2.794-6.679l-.002-52.657z"/><path fill="#605560" d="M2271.868 2379.882c0 3.357-2.635 6.024-5.991 6.024h-47.112c-3.359 0-5.495-2.667-5.495-6.024v-33.437c0-3.356 2.136-5.82 5.495-5.82h47.112c3.356 0 5.991 2.464 5.991 5.82v33.437z"/></g></g><g><path fill="#CCC" d="M1781.823 2601.368c-22.01-5.122-34.765-31.148-28.485-58.146 6.271-26.983 57.171-95.555 79.178-90.437 22.013 5.118 6.799 81.981.523 108.968-6.275 26.995-29.207 44.725-51.216 39.615zm275.666-102.465c13.32-18.255 5.979-46.294-16.408-62.635-22.373-16.336-105.703-35.015-119.022-16.764-13.326 18.253 48.397 66.518 70.776 82.854 22.382 16.341 51.325 14.789 64.654-3.455z"/><path fill="#EDEDED" d="M2017.655 2510.237c16.812 45.227-13.945 98.384-68.695 118.733s-112.76.188-129.568-45.037c-16.811-45.223-1.682-140.424 53.068-160.773 54.749-20.352 128.386 41.856 145.195 87.077z"/><path fill="#E7AD84" d="M1986.68 2521.594c11.566 31.118-9.596 67.694-47.266 81.696-37.672 14.002-77.586.129-89.152-30.989-11.566-31.114-1.156-96.617 36.516-110.619 37.67-14.004 88.337 28.797 99.902 59.912z"/><circle cx="1767.531" cy="2370.056" r="42.043" fill="#F5F5F5"/><path fill="#E7AD84" d="M1789.854 2365.752c5.031 13.537-1.866 28.597-15.408 33.629-13.543 5.034-28.604-1.861-33.637-15.399-5.034-13.544 1.864-28.608 15.406-33.644 13.543-5.035 28.604 1.869 33.639 15.414z"/><path fill="#F5F5F5" d="M1877.815 2329.063c8.09 21.764 32.295 32.853 54.059 24.762 21.771-8.091 32.853-32.295 24.762-54.06-8.09-21.764-32.288-32.851-54.059-24.758-21.764 8.089-32.852 32.294-24.762 54.056z"/><path fill="#E7AD84" d="M1897.508 2325.734c5.033 13.539 20.095 20.436 33.637 15.4 13.543-5.033 20.439-20.093 15.408-33.631-5.034-13.544-20.096-20.445-33.639-15.413-13.541 5.036-20.439 20.1-15.406 33.644z"/><ellipse cx="1862.107" cy="2395.393" fill="#EDEDED" rx="89.215" ry="93.699" transform="rotate(-110.39 1862.183 2395.515)"/><path fill="#3D2A3D" d="M1846.07 2396.225c2.112 5.681-.782 11.993-6.46 14.104-5.678 2.11-11.99-.779-14.104-6.461-2.108-5.674.783-11.989 6.461-14.101s11.994.785 14.103 6.458zm49.337-18.339a10.966 10.966 0 0 1-6.459 14.103c-5.677 2.11-11.989-.778-14.102-6.46-2.109-5.674.782-11.99 6.459-14.1 5.682-2.111 11.994.784 14.102 6.457z"/><path fill="#E7AD84" d="M1913.364 2411.282c8.176 21.993-3.025 46.449-25.018 54.624-21.994 8.176-46.446-3.027-54.621-25.021-8.174-21.99 3.023-46.445 25.02-54.621 21.99-8.174 46.446 3.029 54.619 25.018z"/><path fill="#D4D4D4" d="M1881.775 2439.039a3.201 3.201 0 0 1-1.882 4.116h-.002a3.203 3.203 0 0 1-4.117-1.886l-10.703-28.793a3.202 3.202 0 0 1 6.002-2.23l10.702 28.793z"/><path fill="#BC110C" d="M1892.696 2429.93c-2.725 13.866-20.02 20.296-31.141 11.575-3.891-3.054-8.774 2.875-4.867 5.938 15.684 12.302 39.734 3.362 43.574-16.196.957-4.87-6.614-6.169-7.566-1.317z"/><path fill="#3D2A3D" d="M1880.426 2403.114c2.915 7.841-8.271 19.229-8.271 19.229s-15.91-1.315-18.824-9.156c-2.912-7.837.793-16.44 8.275-19.223 7.48-2.782 15.908 1.313 18.82 9.15z"/><path fill="#EDEEF0" d="M1895.143 2596.683c21.054 23.207 19.309 59.087-3.896 80.14-23.207 21.054-59.088 19.308-80.139-3.896l-12.088-13.323c-21.053-23.206-19.309-59.087 3.898-80.139 23.204-21.055 59.084-19.309 80.139 3.896l12.086 13.322z"/><path fill="#E7AD84" d="M1874.51 2658.377c-12.997 11.791-33.164 10.811-44.955-2.188l-12.088-13.322c-11.791-12.997-10.812-33.164 2.186-44.957 12.998-11.791 33.164-10.811 44.958 2.188l12.087 13.323c11.791 12.999 10.808 33.163-2.188 44.956z"/><path fill="#EDEEF0" d="M1968.619 2569.373c-.783 31.322 23.975 57.354 55.297 58.137 31.323.785 57.352-23.975 58.137-55.294l.451-17.983c.784-31.324-23.974-57.354-55.297-58.137-31.322-.786-57.351 23.972-58.137 55.295l-.451 17.982z"/><path fill="#E7AD84" d="M2024.539 2602.609c17.545.439 32.174-13.477 32.613-31.02l.451-17.982c.438-17.543-13.477-32.173-31.02-32.615-17.545-.438-32.174 13.478-32.614 31.022l-.449 17.981c-.438 17.546 13.476 32.175 31.019 32.614z"/></g></svg>