<svg xmlns="http://www.w3.org/2000/svg" id="图层_2" viewBox="0 0 3000 3000"><path fill="#142626" d="M783.569 2360.057h238.84v290.013h-238.84v-290.013z"/><path fill="#49A88C" d="M783.569 2556.571c49.616-.773 104.52-32.259 124.841-104.43 18.852 66.949 67.459 98.875 113.999 103.787v-195.871h-238.84v196.514z" opacity=".5"/><path fill="#386666" d="M1658.156 2118.166a1.04 1.04 0 0 1 .111-.109C1007.518 1891.734 908.574 760.012 908.574 760.012s-98.931 1131.722-749.7 1358.043c-97.616 40.421-55.357 187.948 159.497 122.161-141.134 117.473 29.15 200.993 174.81 96.266-53.276 128.227 73.346 196.061 206.823 60.059-57.547 136.135 162.75 179.058 208.406 16.859 45.653 162.197 265.95 119.273 208.403-16.859 133.479 136.002 260.101 68.168 206.825-60.059 145.67 104.729 315.943 21.207 174.809-96.266 214.701 65.734 257.037-81.506 159.709-122.05z"/><path fill="#49A88C" d="M1321.183 1879.189c-196.159-228.169-302.005-551.607-357.163-792.193-44.04-165.283-55.445-295.693-55.445-295.693s-11.394 130.266-55.378 295.423c-55.136 240.619-160.991 564.217-357.229 792.468 6.328 62.703 121.288 108.391 208.35 36.816-29.149 90.048 140.118 139.783 204.257 25.212-.011-.012-.021-.028-.044-.033h.089c-.021.005-.033.021-.045.033 64.143 114.571 233.396 64.836 204.258-25.212 87.061 71.574 202.022 25.88 208.35-36.821z" opacity=".5"/><path fill="#357C68" d="M1430.147 1704.805c-452.741-157.456-521.572-944.799-521.572-944.799s-68.831 787.343-521.57 944.799c-90.336 40.229 3.96 136.158 126.377 94.757-70.112 81.12 82.237 174.515 190.938 85.153-29.148 90.047 140.118 139.784 204.257 25.211-.011-.011-.021-.022-.044-.033h.09c-.022.011-.033.022-.046.033 64.143 114.573 233.396 64.836 204.259-25.211 108.698 89.36 261.052-4.033 190.938-85.153 122.413 41.403 216.687-54.527 126.373-94.757z"/><path fill="#49A88C" d="M908.574 760.008s-36.97 422.585-234.756 710.485c31.042 47.392 99.95 101.287 232.698-7.693 135.659 111.364 204.679 52.639 234.724 4.585-195.937-287.819-232.666-707.377-232.666-707.377z" opacity=".5"/><path fill="#5ABA9A" d="M908.574 582.002s-52.279 598.008-396.146 717.599c7.478 89.7 142.02 89.7 142.02 89.7s56.065 199.947 254.126 37.361c198.063 162.585 254.129-37.361 254.129-37.361s134.541 0 142.008-89.7c-343.853-119.591-396.137-717.6-396.137-717.599z"/><path fill="#98D19E" d="M572.588 1306.498s20.964 45.727 76.796 42.23c36.638-43.631 247.798-245.969 247.798-600.276-29.67 218.091-132.617 503.596-324.594 558.046z"/><path fill="#49A88C" d="M403.597 1736.191s1.46 43.591 79.992 41.843c73.378-44.515 162.03-151.329 202.607-258.457-76.239 120.638-213.082 219.889-282.599 216.614zm-243.505 413.736s-32.58 76.032 90.136 64.948c97.151-41.42 223.793-156.047 291.916-279.454-113.923 133.629-297.935 230.645-382.052 214.506z"/><path fill="#F7CB5B" d="M1098.85 1255.886c0 53.697-43.521 97.222-97.219 97.222-53.695 0-97.215-43.524-97.215-97.222 0-53.69 43.52-97.215 97.215-97.215 53.699.001 97.219 43.525 97.219 97.215z"/><path fill="#FAFEFE" d="M925.523 1265.384s12.955-74.001 90.183-80.191c-75.182-4.919-87.926 32.157-90.183 80.191z"/><path fill="#F7CB5B" d="M569.157 2229.277c0 33.541-27.191 60.733-60.731 60.733-33.553 0-60.756-27.192-60.756-60.733 0-33.542 27.203-60.731 60.756-60.731 33.54 0 60.731 27.189 60.731 60.731z"/><path fill="#FAFEFE" d="M460.866 2235.207s8.089-46.22 56.343-50.092c-46.972-3.074-54.937 20.09-56.343 50.092z"/><path fill="#E44224" d="M1226.256 1691.846c0 44.422-36.02 80.451-80.457 80.451-44.428 0-80.445-36.029-80.445-80.451 0-44.438 36.02-80.452 80.445-80.452 44.438 0 80.457 36.014 80.457 80.452z"/><path fill="#FAFEFE" d="M1082.832 1699.7s10.707-61.229 74.615-66.362c-62.214-4.061-72.757 26.616-74.615 66.362z"/><path fill="#E44224" d="M780.406 2084.557c0 26.196-21.218 47.437-47.414 47.437-26.175 0-47.401-21.24-47.401-47.437 0-26.173 21.228-47.401 47.401-47.401 26.197 0 47.414 21.229 47.414 47.401z"/><path fill="#FAFEFE" d="M695.889 2089.205s6.314-36.097 43.961-39.117c-36.66-2.391-42.865 15.685-43.961 39.117z"/><path fill="#E44224" d="M828.739 1348.923c0 26.179-21.229 47.415-47.415 47.415-26.185 0-47.411-21.236-47.411-47.415 0-26.19 21.228-47.413 47.411-47.413 26.186 0 47.415 21.222 47.415 47.413z"/><path fill="#FAFEFE" d="M744.211 1353.552s6.328-36.091 43.972-39.112c-36.661-2.395-42.867 15.687-43.972 39.112z"/><path fill="#F97432" d="M827.433 1713.088c0 33.542-27.192 60.737-60.744 60.737-33.543 0-60.733-27.195-60.733-60.737 0-33.549 27.19-60.738 60.733-60.738 33.551-.002 60.744 27.189 60.744 60.738z"/><path fill="#FAFEFE" d="M719.142 1719.016s8.098-46.226 56.342-50.103c-46.973-3.069-54.926 20.097-56.342 50.103z"/><path fill="#F97432" d="M964.285 993.95c0 16.981-13.771 30.754-30.754 30.754-16.99 0-30.753-13.772-30.753-30.754 0-16.992 13.763-30.759 30.753-30.759 16.982 0 30.754 13.768 30.754 30.759z"/><path fill="#FAFEFE" d="M909.449 996.947s4.104-23.401 28.53-25.365c-23.784-1.555-27.809 10.172-28.53 25.365z"/><path fill="#F97432" d="M1071.869 2259.633c0 52.281-42.403 94.718-94.719 94.718-52.324 0-94.727-42.437-94.727-94.718 0-52.348 42.401-94.739 94.727-94.739 52.315-.002 94.719 42.391 94.719 94.739z"/><path fill="#FAFEFE" d="M902.99 2268.869s12.621-72.094 87.868-78.134c-73.255-4.789-85.678 31.328-87.868 78.134z"/><path fill="#F7CB5B" d="M1412.482 2092.235c0 43.222-35.035 78.257-78.257 78.257-43.221 0-78.268-35.035-78.268-78.257 0-43.21 35.047-78.255 78.268-78.255 43.223 0 78.257 35.045 78.257 78.255z"/><path fill="#FAFEFE" d="M1272.951 2099.879s10.441-59.56 72.59-64.548c-60.51-3.961-70.776 25.873-72.59 64.548z"/><path fill="#F97432" d="M909.436 286.182l69.007 139.806 154.285 22.422-111.651 108.814 26.357 153.666-137.998-72.545-137.985 72.545 26.347-153.666L686.172 448.41l154.271-22.422 68.993-139.806z"/><path fill="#F7CB5B" d="M909.449 311.238l60.857 123.314 136.091 19.759-98.472 95.979 23.236 135.543-121.713-63.993-121.713 63.993 23.24-135.543-98.475-95.979 136.092-19.759 60.857-123.314z"/><path fill="#4C3020" d="M1894.555 2288.075s1.234-5.932 3.824-16.185c1.293-5.129 2.941-11.336 4.902-18.438 1.995-7.091 4.258-15.09 6.957-23.745 2.651-8.671 5.728-17.999 9.038-27.847 3.404-9.814 7.009-20.164 11.076-30.745 4.01-10.603 8.444-21.445 13.046-32.421 2.354-5.465 4.733-10.972 7.184-16.473l3.75-8.233 1.881-4.122 1.969-4.085c2.625-5.446 5.222-10.905 7.984-16.257l4.067-8.041 4.198-7.914c1.404-2.621 2.753-5.261 4.189-7.836l4.287-7.684c2.788-5.123 5.777-10.051 8.627-14.948 2.785-4.937 5.789-9.632 8.609-14.302 2.777-4.696 5.732-9.143 8.537-13.518 1.427-2.172 2.762-4.362 4.207-6.433l4.242-6.132 4.119-5.916a373.727 373.727 0 0 1 4.138-5.576c1.979-2.631 3.96-5.261 5.942-7.89.644-.842 1.315-1.646 1.959-2.454l7.366-9.143c1.144-1.445 2.32-2.786 3.46-4.077l3.277-3.743 5.771-6.591c3.831-4.002 7.661-8.005 11.49-12.009a.18.18 0 1 1 .265.243l-.005.005-10.98 12.439-5.58 6.729-3.166 3.819c-1.103 1.314-2.235 2.685-3.341 4.152l-7.203 9.224c-.629.814-1.287 1.625-1.916 2.475l-1.891 2.591-3.912 5.36-4.097 5.576-4.097 5.899-4.256 6.093c-1.467 2.047-2.822 4.214-4.271 6.36-2.845 4.33-5.865 8.715-8.699 13.361-2.864 4.626-5.859 9.312-8.668 14.22-2.84 4.89-5.75 9.848-8.494 14.979l-4.211 7.702c-1.41 2.582-2.731 5.229-4.11 7.856l-4.106 7.938-3.966 8.068c-2.69 5.369-5.219 10.846-7.772 16.309l-1.916 4.096-1.855 4.122-3.71 8.226c-2.423 5.496-4.774 10.997-7.103 16.458-4.549 10.966-8.932 21.798-12.891 32.388-4.053 10.557-7.746 20.845-11.181 30.625-3.354 9.807-6.474 19.099-9.164 27.735a1099.725 1099.725 0 0 0-7.196 23.617c-2.043 7.062-3.766 13.233-5.115 18.335-1.361 5.1-2.398 9.113-3.072 11.855l-1.018 4.209a.717.717 0 0 1-1.399-.306z"/><g fill="#4C3020"><path d="M1897.703 2285.246s.204.023.59.059c-.017-.221 2.278.859 2.932 1.443 1.917 1.338 3.517 3.353 4.971 5.688a37.176 37.176 0 0 1 3.563 8.166c.89 3.031 1.49 6.29 2.25 9.479.402 1.589.783 3.184 1.391 4.685s1.227 2.979 1.682 4.444c.766 2.962.971 5.829 1.217 8.265.36 4.912 0 8.275 0 8.275-.199 1.822-1.836 3.143-3.646 2.938a3.315 3.315 0 0 1-2.593-1.774l-.023-.049s-1.493-2.914-3.096-7.412c-.742-2.295-1.765-4.871-2.349-7.75-.258-1.461-.373-2.994-.561-4.556-.158-1.548-.596-3.055-1.04-4.555-.952-2.979-2.194-5.842-3.306-8.478-.993-2.557-1.922-4.957-2.698-7.002-.708-1.934-1.39-3.287-1.589-3.797-.379-.332.959.096.234-.332-.312-.233-.468-.339-.468-.339l-.084-.029c-1.819-1.227-2.317-3.743-1.086-5.601.866-1.266 2.289-1.873 3.709-1.768z"/><path d="M1889.93 2335.406s-1.028-2.82-1.624-7.291c-.256-2.225-.491-4.835-.45-7.639 0-2.785.463-5.813.563-8.797.058-1.488.101-2.979-.111-4.45-.223-1.478-.438-2.931-.542-4.345-.111-1.391.262-2.827.472-4.123.225-1.326.516-2.564.772-3.703 1.098-4.563 2.347-7.395 2.347-7.395.701-1.643 2.605-2.379 4.253-1.666a3.297 3.297 0 0 1 1.847 2.237l.133.643s.695 3.009.936 7.221a68.89 68.89 0 0 1 .018 7.144c-.094 1.343-.351 2.744-.565 4.151-.229 1.413-.188 2.862-.17 4.3.093 2.896.42 5.752.735 8.457.233 2.703.188 5.246.064 7.405-.164 2.166-.293 4.023-.484 5.327-.192 1.296-.356 2.066-.356 2.066l-.019.035c-.561 2.196-2.756 3.533-4.951 2.989-1.366-.331-2.394-1.338-2.868-2.566z"/><path d="M1868.969 2319.59s.086-.713.391-1.944c.258-1.209.782-2.897 1.507-4.866.771-1.949 1.765-4.164 3.136-6.399 1.468-2.196 3.043-4.503 4.592-6.827.76-1.197 1.537-2.377 2.097-3.663.574-1.296 1.134-2.593 1.793-3.769 1.515-2.276 3.412-4.104 5.135-5.651.976-.737 1.677-1.434 2.63-1.964.909-.537 1.657-.963 2.397-1.291 1.596-.629 2.502-.806 2.502-.806a3.046 3.046 0 0 1 3.567 2.399c.127.701.013 1.42-.28 2.027l-.783 1.424s-.269.497-.699 1.074c-.549.859-1.284 2.058-2.19 3.5-1.004 1.482-1.979 3.492-3.399 5.408-.753.917-1.642 1.857-2.517 2.815-.89.969-1.553 2.114-2.172 3.274-1.252 2.331-2.227 4.818-3.261 7.114-1.04 2.248-2.23 4.271-3.307 5.979-1.104 1.694-2.079 3.072-2.82 4.008-.719.917-1.209 1.431-1.209 1.431a4.117 4.117 0 0 1-5.819.226l-.021-.021c-.979-.903-1.394-2.253-1.27-3.478z"/><path d="M1920.359 2307.446c-.011 0-.513-.262-1.313-.848-.795-.542-1.856-1.407-3.041-2.487-1.181-1.099-2.489-2.424-3.67-4.042-1.174-1.61-2.317-3.444-3.654-5.104-.689-.783-1.366-1.583-2.232-2.179-.876-.597-1.738-1.15-2.499-1.775-1.401-1.297-2.389-2.792-3.293-3.89-.854-1.15-1.565-2.021-1.625-2.418-.082-.192.199-.204.527-.356.569-.104.758-.374.746-.354-1.589.712-3.48 0-4.183-1.602a3.152 3.152 0 0 1 1.551-4.178l.05-.022s.468-.32 1.524-.521c.828-.162 1.852-.045 2.656.124 1.688.345 3.189 1.051 4.859 1.962 1.589.981 3.365 2.085 4.824 3.646.688.83 1.272 1.793 1.883 2.744.57.93 1.377 1.729 2.137 2.512 1.588 1.589 3.316 2.979 4.801 4.438 1.46 1.455 2.6 3.024 3.516 4.397.889 1.42 1.543 2.65 1.939 3.574.42.883.59 1.467.59 1.467a4.208 4.208 0 0 1-2.803 5.25 4.176 4.176 0 0 1-3.178-.272l-.112-.066z"/></g><path fill="#000E2B" d="M2479.937 1694.885c1.354-13.236 110.726 63.389 114.118 99.231 1.361 14.435-118.26-59.075-114.118-99.231z"/><path fill="#4C3020" d="M2492.391 1598.687c0-.001.732.807 2.031 2.349a168.818 168.818 0 0 1 5.44 6.841 219.706 219.706 0 0 1 7.832 11.089 211.648 211.648 0 0 1 9.122 15.07c3.079 5.678 6.202 11.955 9.03 18.808 1.438 3.416 2.75 6.994 4.029 10.673 1.211 3.702 2.412 7.502 3.357 11.442.944 3.938 1.811 7.974 2.399 12.105.352 2.058.538 4.152.795 6.246.158 2.105.381 4.217.432 6.349.398 8.513-.247 17.228-2.039 25.706-1.873 8.46-4.803 16.689-8.792 24.212-3.93 7.554-8.758 14.447-14.021 20.58-5.246 6.151-10.879 11.604-16.555 16.361-1.38 1.239-2.859 2.31-4.259 3.442l-2.104 1.657-2.145 1.529c-1.426 1-2.8 2.024-4.198 2.955l-4.144 2.694c-1.346.893-2.721 1.673-4.051 2.459l-3.896 2.295c-2.586 1.396-5.039 2.721-7.346 3.965l-6.59 3.219c-2.054.957-3.961 1.787-5.672 2.563a96.77 96.77 0 0 1-4.613 1.959c-1.353.546-2.502 1.01-3.437 1.385l-2.864 1.134a.18.18 0 1 1-.144-.33l.006-.003 2.781-1.32c1.807-.876 4.515-2.029 7.84-3.754 1.674-.836 3.54-1.732 5.545-2.763l6.43-3.444 7.207-4.091 3.814-2.356c1.301-.808 2.646-1.608 3.961-2.521l4.083-2.695c1.382-.924 2.739-1.938 4.147-2.93l2.116-1.517 2.103-1.607c1.397-1.097 2.885-2.131 4.266-3.331 1.398-1.179 2.851-2.337 4.262-3.573l4.222-3.831 4.105-4.129 3.979-4.402c5.157-6.092 9.799-12.963 13.571-20.418 3.815-7.439 6.531-15.549 8.231-23.842 1.628-8.309 2.271-16.813 1.819-25.147-.062-2.086-.291-4.153-.455-6.215-.264-2.052-.456-4.103-.813-6.118-.599-4.05-1.471-8.006-2.418-11.87-.965-3.862-2.073-7.62-3.252-11.271-1.232-3.633-2.498-7.169-3.895-10.551-2.74-6.781-5.781-13.012-8.786-18.65-3.04-5.622-5.999-10.688-8.809-15.063a219.175 219.175 0 0 0-7.575-11.129c-2.197-3.018-3.981-5.347-5.231-6.904-1.249-1.563-1.937-2.358-1.937-2.359a.718.718 0 0 1 .072-1.013l.001-.002a.73.73 0 0 1 1.013.062z"/><path fill="#EAF9F4" d="M2195.498 1819.302c71.25-1.65 158.053 94.349 193.838 220.194 35.778 125.832 168.041 409.516 14.971 493.608-153.064 84.086-330.105 82.978-397.705-21.95-67.611-104.921 13.736-295.54 35.084-426.79 21.352-131.243 70.491-263.151 153.812-265.062z"/><path fill="#650E81" d="M2041.686 2084.364c21.354-131.243 70.491-263.151 153.813-265.063 71.25-1.65 158.053 94.349 193.838 220.194 23.49 82.64 88.625 233.381 87.188 350.945-146.854 84.128-212.738-28.904-212.738-28.904-14.169 91.803-174.436 118.349-277.499 100.445-25.501-108.399 37.052-264.897 55.398-377.617z" opacity=".2"/><path fill="#215B7C" d="M1980.553 2214.148c-20.652 97.98-37.695 187.605-34.535 203.357 7.492 37.041 199.939 32.73 247.507 10.319 47.59-22.409 74.923-90.587 74.923-90.587s8.049 42.969 69.579 62.984c61.554 20.011 139.521-17.212 169.675-55.854 30.134-38.631-142.971-459.611-142.971-459.611-7.283-13.901-301.095-23.157-323.027-17.104 0 0-30.465.224-58.687 51.968-28.256 51.701-136.728 207.786-136.728 207.786s43.127 91.354 134.135 86.691l.129.051z"/><path fill="#215B7C" d="M2355.075 1845.92s102.877-89.31 124.86-151.033c0 0 29.542 74.08 114.118 99.231 0 0-66.996 133.169-202.732 154.384-43.114 6.758-89.243-60.447-36.246-102.582z"/><path fill="#650E81" d="M2376.944 1863.589c1.344 7.421 1.576 14.506-.019 19.915-.869 3.207-2.366 5.768-4.625 7.521-120.446 93.263-297.334 61.962-323.489 28.601-3.719-1.033-6.512-4.299-8.508-8.959-6.781-15.734 5.629-51.443 16.33-67.286 7.065-10.402 43.027 30.49 157.602 18.138 97.586-10.5 126.661-45.136 136.355-42.021 5.936 1.899 23.06 25.561 26.354 44.091z" opacity=".2"/><path fill="#EAF9F4" d="M2365.448 1744.402c-14.847 90.491-105.152 150.965-201.722 135.086-96.56-15.856-162.779-102.083-147.908-192.554 14.869-90.463 105.195-150.941 201.74-135.066 96.54 15.869 162.772 102.063 147.89 192.534z"/><path fill="#650E81" d="M2217.559 1551.868c-86.446-14.214-167.864 32.817-194.645 107.732 106.106-15.408 213.795-26.151 321.759-22.559-25.733-43.368-71.343-76.016-127.114-85.173z" opacity=".2"/><path fill="#215B7C" d="M2321.61 1576.69s-83.029-204.854-119.021-290.906c-35.988-86.059-65.238-142.923-86.103-258.249-20.863-115.319-43.068-202.68-53.289-205.685-10.221-3.006 9.87 146.178 4.959 220.213-4.912 74.024 9.28 223.774 1.938 272.184-7.341 48.417-20.208 290.191-20.208 290.191s206.601-1.695 271.724-27.748z"/><path fill="#49799E" d="M2375.11 1854.813c1.366 7.424 1.582 14.503-.013 19.926-.853 3.182-2.347 5.744-4.624 7.493-120.445 93.274-297.335 61.987-323.49 28.603-3.701-1.018-6.51-4.274-8.51-8.937-6.791-15.734 5.625-51.447 16.325-67.29 7.073-10.408 43.046 30.497 157.62 18.129 97.58-10.504 126.653-45.118 136.35-42.017 5.933 1.88 23.047 25.565 26.342 44.093z"/><path fill="#083D66" d="M2066.202 1851.563s-.243.904-.606 2.507c-.377 1.598-.851 3.897-1.387 6.66a178.963 178.963 0 0 0-1.563 9.489c-.259 1.739-.434 3.551-.661 5.383-.165 1.84-.35 3.707-.485 5.577-.099 1.872-.289 3.741-.312 5.588-.043 1.845-.14 3.661-.084 5.419.029 1.757.008 3.458.139 5.063.118 1.606.134 3.136.32 4.528.152 1.397.293 2.679.418 3.814.146 1.133.346 2.107.473 2.919l.435 2.542.002.012a.172.172 0 0 1-.139.2l-.005.001a.173.173 0 0 1-.2-.139v-.001l-.484-2.545c-.146-.812-.366-1.79-.535-2.926l-.477-3.828c-.197-1.4-.224-2.936-.354-4.55-.142-1.614-.131-3.323-.174-5.089-.066-1.768.018-3.591.049-5.445.008-1.854.188-3.732.272-5.614.129-1.879.344-3.752.519-5.597.242-1.838.43-3.653.702-5.396a178.731 178.731 0 0 1 1.634-9.508c.443-2.23.946-4.45 1.506-6.654.205-.839.426-1.674.662-2.504a.175.175 0 0 1 .214-.123v.001a.178.178 0 0 1 .121.216zm31.986 6.493s-.234.951-.582 2.631c-.366 1.676-.804 4.088-1.325 6.98-.228 1.453-.521 3.021-.745 4.689a149.34 149.34 0 0 0-.693 5.252c-.234 1.823-.399 3.714-.569 5.636-.201 1.919-.246 3.879-.392 5.833-.095 1.955-.131 3.914-.184 5.841.037 1.928.02 3.825.103 5.658.132 1.83.188 3.606.37 5.277.21 1.668.379 3.25.59 4.701l.744 3.934.162.851.213.775.377 1.365.715 2.595.005.016a.178.178 0 0 1-.122.216.177.177 0 0 1-.213-.119l-.77-2.598-.406-1.369-.229-.777-.179-.853-.808-3.952c-.221-1.46-.4-3.051-.623-4.729-.194-1.682-.263-3.466-.407-5.307-.095-1.843-.091-3.75-.142-5.688.041-1.936.064-3.904.146-5.87.137-1.962.211-3.931.422-5.854.184-1.929.363-3.824.611-5.651.213-1.832.477-3.594.73-5.265.236-1.674.542-3.241.78-4.696 1.063-5.801 2.08-9.606 2.08-9.606a.174.174 0 0 1 .211-.127c.095.024.151.12.13.211zm35.914 5.657s-.262 3.589-.559 8.979a411.365 411.365 0 0 0-.673 19.771 191.905 191.905 0 0 0-.028 5.365c-.01 1.771.034 3.512.077 5.195.021 1.686.125 3.311.196 4.854.054 1.545.211 2.995.313 4.34.09 1.345.26 2.565.385 3.652.117 1.089.242 2.033.402 2.803l.436 2.428.003.013a.175.175 0 0 1-.153.194.174.174 0 0 1-.189-.129l-.49-2.436c-.176-.771-.32-1.721-.462-2.813-.147-1.09-.351-2.315-.444-3.666-.109-1.349-.277-2.808-.344-4.354-.082-1.547-.197-3.178-.23-4.868a170.652 170.652 0 0 1-.116-5.208 209.588 209.588 0 0 1-.009-5.378c.004-1.803.068-3.604.116-5.376.04-1.772.132-3.516.192-5.203.149-3.374.326-6.521.502-9.218.169-2.696.369-4.939.503-6.509l.226-2.468a.174.174 0 0 1 .19-.157c.091.01.162.093.156.189zm35.049.429l.011 2.751.054 7.25.076 10.248c.008 1.875.08 3.812.118 5.779l.136 5.967c.033 1.999.068 3.999.103 5.967.043 1.968.038 3.906.145 5.778l.449 10.235.388 9.992.001.007a.173.173 0 0 1-.156.191.172.172 0 0 1-.191-.156l-.001-.018-.555-9.989-.517-10.243c-.118-1.873-.126-3.813-.182-5.781l-.14-5.97-.106-5.971c-.024-1.97-.085-3.907-.079-5.783l-.007-10.255c-.02-3.002.032-5.502.062-7.252l.045-2.75a.175.175 0 0 1 .175-.173.178.178 0 0 1 .171.176zm35.773 3.03l.746 9.28c.221 2.784.498 6.031.836 9.507.171 1.736.313 3.535.52 5.356l.596 5.524c.179 1.854.377 3.704.615 5.521l.658 5.34c.189 1.735.472 3.398.718 4.979l.698 4.452c.189 1.384.471 2.63.703 3.738l.6 2.87.523 2.505.004.016a.174.174 0 0 1-.135.206.172.172 0 0 1-.205-.132l-.576-2.5-.66-2.871c-.255-1.109-.568-2.356-.762-3.742l-.73-4.458c-.258-1.581-.551-3.247-.754-4.983l-.695-5.344c-.252-1.817-.464-3.67-.654-5.523l-.566-5.533c-.193-1.824-.322-3.626-.48-5.365-.284-3.171-.54-6.345-.768-9.52-.226-2.786-.33-5.115-.437-6.742l-.142-2.559a.174.174 0 0 1 .164-.184.176.176 0 0 1 .183.162zm39.303-7.058l.727 2.622c.449 1.672 1.111 4.059 1.802 6.945.346 1.442.76 2.998 1.12 4.66l1.181 5.219c.429 1.806.792 3.688 1.177 5.6l1.159 5.793.955 5.831c.299 1.927.646 3.813.887 5.654.431 3.688.853 7.129 1.179 10.082l.504 9.893a.175.175 0 0 1-.165.184h-.001a.174.174 0 0 1-.183-.162l-.001-.015-.669-9.853c-.344-2.942-.787-6.372-1.24-10.047-.252-1.834-.608-3.717-.92-5.637l-.991-5.813c-.785-3.874-1.459-7.77-2.265-11.388-.396-1.811-.78-3.561-1.145-5.219-.349-1.663-.751-3.219-1.087-4.662a438.298 438.298 0 0 0-1.688-6.964l-.674-2.635a.177.177 0 0 1 .124-.214.185.185 0 0 1 .214.126zm38.531-10.286s1.375 3.813 3.184 9.61c.469 1.444.912 3.029 1.416 4.694.484 1.671 1.043 3.42 1.535 5.253.992 3.664 2.148 7.547 3.094 11.484l1.446 5.867c.495 1.931.869 3.857 1.292 5.708l1.178 5.345c.394 1.695.696 3.313.976 4.806l1.84 9.954a.173.173 0 0 1-.14.202h-.002a.171.171 0 0 1-.202-.137v-.006l-2.001-9.912c-.288-1.488-.603-3.102-1.005-4.793l-1.209-5.33c-.436-1.846-.82-3.768-1.326-5.691l-1.481-5.851c-.49-1.962-.965-3.928-1.502-5.845-.519-1.922-1.027-3.813-1.521-5.644-.481-1.834-1.026-3.584-1.499-5.257-.492-1.666-.925-3.252-1.383-4.697-.896-2.897-1.606-5.324-2.16-7.004l-.857-2.646a.176.176 0 0 1 .111-.22.18.18 0 0 1 .216.11zm35.175-10.81l1.004 2.418c.626 1.545 1.55 3.74 2.562 6.411 1.049 2.658 2.203 5.784 3.431 9.138a165.563 165.563 0 0 1 1.852 5.187c.616 1.791 1.232 3.583 1.851 5.375.629 1.798 1.139 3.637 1.704 5.424l1.616 5.265c.92 3.453 1.776 6.677 2.512 9.438.338 1.39.549 2.688.783 3.824l.577 2.953.502 2.571a.174.174 0 0 1-.341.069l-.003-.014-.552-2.556-.632-2.933c-.256-1.129-.498-2.412-.836-3.796l-2.567-9.396-1.649-5.244c-.576-1.78-1.097-3.61-1.736-5.401l-1.82-5.377a160.842 160.842 0 0 0-1.811-5.19c-1.202-3.357-2.334-6.488-3.361-9.151-1.994-5.347-3.404-8.882-3.404-8.882a.179.179 0 0 1 .098-.229.173.173 0 0 1 .22.096zm22.563-12.213s.305.804.834 2.211c.521 1.41 1.282 3.421 2.112 5.861.865 2.429 1.786 5.292 2.8 8.351.521 1.526.985 3.125 1.489 4.74l1.504 4.904 1.347 4.951c.432 1.638.914 3.231 1.272 4.805l1.068 4.522c.33 1.44.68 2.794.937 4.058l1.528 8.464a.172.172 0 0 1-.139.201l-.003.001a.172.172 0 0 1-.201-.138l-.002-.011-1.688-8.409c-.265-1.258-.624-2.605-.965-4.041l-1.099-4.505c-.371-1.564-.865-3.154-1.308-4.784l-1.381-4.931c-.493-1.645-.986-3.287-1.473-4.905-.491-1.616-.943-3.217-1.449-4.744-.988-3.063-1.887-5.93-2.731-8.362-.821-2.439-1.5-4.476-2-5.892l-.781-2.228a.176.176 0 0 1 .104-.225.184.184 0 0 1 .225.106z"/><path fill="#EF8114" d="M2186.259 1685.543c-6.934 6.23-11.692 37.48.653 44.351 12.371 6.88 29.951-4.02 50.172-2.722 20.209 1.296 42.774 2.926 57.313.604 14.539-2.305 35.529-13.708 35.834-16.029.326-2.346-33.917-1.731-45.225-2.311-11.301-.572-36.416-14.861-51.789-16.938-22.83-3.072-39.943-13.279-46.958-6.955z"/><path fill="#49799E" d="M2020.643 1655.768c-9.461 1.721-6.461-49.23 1.564-61.039 19.93-29.268 237.537-49.978 307.146-26.505 19.74 6.645 25.289 59.318 15.595 62.01-9.684 2.695-101.832-15.052-324.305 25.534z"/><path fill="#DD511D" d="M2201.502 1703.398s.146-1.063.461-2.631c.313-1.57.824-3.646 1.474-5.688.322-.999.684-1.986 1.082-2.959.181-.47.392-.911.599-1.325.192-.421.404-.807.609-1.157.187-.359.397-.669.596-.938.193-.271.35-.511.523-.684l.504-.561a.2.2 0 0 1 .282-.026c.086.07.099.197.027.282l-.021.026-.43.564c-.146.169-.279.415-.44.687a9.52 9.52 0 0 0-.511.938c-.365.69-.725 1.54-1.074 2.461a40.968 40.968 0 0 0-1.02 2.925 78.854 78.854 0 0 0-.895 2.975l-.711 2.62-.66 2.567a.202.202 0 0 1-.246.147.203.203 0 0 1-.149-.223zm16.554 3.119s.134-.896.511-2.186a25.208 25.208 0 0 1 1.85-4.573c.229-.39.439-.787.683-1.16.25-.368.465-.75.729-1.084.259-.337.492-.674.763-.957.266-.285.493-.573.743-.807.489-.475.92-.841 1.249-1.065l.502-.365a.201.201 0 0 1 .282.044.2.2 0 0 1-.026.268l-.016.016-.441.407c-.298.236-.666.639-1.108 1.114-.226.233-.432.524-.67.812-.245.279-.443.627-.69.949-.246.323-.447.698-.683 1.057-.226.364-.424.755-.639 1.134a29.967 29.967 0 0 0-1.109 2.316 42.2 42.2 0 0 0-.833 2.088c-.451 1.241-.697 2.082-.697 2.082a.202.202 0 0 1-.248.146.204.204 0 0 1-.152-.236zm17.88 5.593s-.015-1.04.07-2.597c.082-1.557.292-3.625.658-5.681.381-2.048.93-4.089 1.688-5.509.367-.714.805-1.25 1.171-1.57.366-.323.656-.412.644-.427-.004-.004-.01-.004-.013 0-.003.003-.004.007-.002.011l.194.354c.009.016-.215.099-.506.402-.295.298-.633.816-.944 1.499-.317.68-.593 1.524-.841 2.445a32.276 32.276 0 0 0-.639 2.934c-.375 2.016-.619 4.061-.801 5.595a109.028 109.028 0 0 0-.275 2.563.204.204 0 0 1-.221.183.206.206 0 0 1-.183-.202zm14.986 2.465s-.066-.682-.019-1.692c.039-.506.066-1.1.179-1.727.103-.658.244-1.31.422-1.952.197-.653.438-1.296.707-1.881.275-.584.605-1.093.902-1.516.321-.41.606-.732.84-.929l.352-.318a.202.202 0 0 1 .284.015.206.206 0 0 1 .007.264l-.018.021-.281.346c-.086.112-.211.229-.314.396l-.366.547c-.128.204-.246.439-.382.68-.135.241-.23.521-.367.79a14.07 14.07 0 0 0-.628 1.798c-.365 1.25-.58 2.548-.724 3.522-.133.979-.188 1.635-.188 1.635a.207.207 0 0 1-.223.185.207.207 0 0 1-.183-.184zm12.184.991s-.066-.683-.02-1.696c.039-.506.063-1.101.178-1.729.096-.63.24-1.297.422-1.956.192-.645.43-1.273.711-1.884.277-.585.609-1.095.907-1.518.323-.41.608-.73.844-.929l.353-.316a.204.204 0 0 1 .285.016.203.203 0 0 1 .006.263l-.018.021-.283.347c-.086.112-.212.229-.318.396a45.16 45.16 0 0 1-.367.547c-.129.204-.247.44-.385.682-.135.24-.231.521-.368.79a13.801 13.801 0 0 0-.632 1.799c-.366 1.253-.582 2.553-.723 3.53-.075.544-.137 1.09-.186 1.638a.205.205 0 0 1-.221.186.21.21 0 0 1-.185-.187z"/><path fill="#1E120D" d="M2130.761 1692.202c-.671-7.071 4.525-13.355 11.601-14.034 7.084-.666 13.34 4.532 14.019 11.604.665 7.079-4.517 13.352-11.591 14.017-7.066.675-13.351-4.514-14.029-11.587zm135.97-12.878c-.666-7.087 4.51-13.369 11.588-14.043 7.078-.664 13.363 4.523 14.034 11.607.661 7.068-4.536 13.343-11.604 14.012-7.073.662-13.341-4.515-14.018-11.576zm-3.235 58.245s-1.66 1.328-4.724 3.392a123.12 123.12 0 0 1-5.633 3.569 113.993 113.993 0 0 1-7.576 4.173c-1.397.749-2.908 1.422-4.457 2.146-1.539.75-3.185 1.399-4.863 2.096-1.668.729-3.438 1.329-5.237 1.973-1.785.682-3.673 1.19-5.578 1.751-1.894.607-3.875 1.007-5.869 1.464-1.982.514-4.043.765-6.104 1.097-2.055.392-4.166.466-6.271.646-2.105.242-4.235.125-6.358.123l-1.594-.018-.398-.004-.1-.002-.124-.011-.196-.02-.785-.074-3.137-.301-3.125-.308-3.106-.548-3.082-.547c-1.021-.189-2.004-.499-2.998-.74l-2.953-.769c-.986-.224-1.912-.627-2.858-.928-1.882-.647-3.746-1.247-5.479-2.071l-2.604-1.136c-.865-.354-1.656-.843-2.473-1.249l-2.387-1.254c-.78-.419-1.504-.91-2.24-1.352l-2.149-1.327-1.989-1.404c-.646-.465-1.288-.904-1.896-1.361l-1.731-1.403c-1.146-.892-2.152-1.827-3.103-2.702a60.448 60.448 0 0 1-4.664-4.793 49.412 49.412 0 0 1-2.691-3.364c-.579-.811-.869-1.271-.869-1.271a.35.35 0 1 1 .587-.376l.005.009s.278.425.861 1.212a49.666 49.666 0 0 0 2.707 3.264 59.347 59.347 0 0 0 4.684 4.646c.952.847 1.961 1.752 3.105 2.609l1.727 1.359c.604.443 1.242.871 1.883 1.322l1.973 1.364 2.133 1.286c.729.428 1.445.903 2.219 1.31l2.362 1.211c.808.392 1.589.864 2.445 1.205l2.574 1.092c1.714.791 3.553 1.371 5.403 2.006.935.292 1.846.688 2.818.903l2.909.746c.979.233 1.952.537 2.951.721l3.017.522 3.038.528 3.123.298c1.044.097 2.091.192 3.138.29l.785.072.197.018.071.007.098.001.392.002 1.564.012c2.084-.013 4.173.125 6.244-.11 2.072-.172 4.146-.235 6.174-.615 2.031-.321 4.061-.56 6.02-1.06 1.968-.445 3.925-.829 5.798-1.424 1.884-.547 3.748-1.048 5.52-1.709 1.785-.617 3.543-1.191 5.201-1.896 1.671-.671 3.307-1.298 4.839-2.025 1.543-.701 3.046-1.353 4.44-2.08a136.615 136.615 0 0 0 7.579-4.03 122.728 122.728 0 0 0 5.656-3.439c3.088-1.997 4.743-3.271 4.743-3.271a.349.349 0 0 1 .43.548l-.012-.001z"/><path fill="#FFF" d="M2045.641 825.5c-1.028-10.883 6.967-20.543 17.826-21.571 10.896-1.031 20.551 6.95 21.574 17.84 1.039 10.881-6.938 20.533-17.825 21.569-10.876 1.027-20.548-6.948-21.575-17.838z"/><path fill="#FFF7A0" d="M2212.453 1438.858c2.016.779 4.952 10.093 4.952 10.093s5.578-.716 6.209.137c1.332 1.812-4.679 4.455-4.679 4.455s4.504 7.225 2.991 8.457c-1.53 1.24-7.623-3.646-7.623-3.646s-4.111 4.751-6.325 4.426c-2.227-.333 1.355-8.692 1.355-8.692s-4.959-4.268-4.69-5.201c.287-.938 5.969-.566 5.969-.566s-.436-10.336 1.841-9.463zm-111.918 68.177c2.78-.791 13.34 6.731 13.34 6.731s5.352-5.218 6.688-4.818c2.861.856-1.402 8.454-1.402 8.454s10.561 4.053 9.929 6.579c-.619 2.521-11.016 2.234-11.016 2.234s-.542 8.332-3.143 9.75c-2.629 1.413-5.502-10.3-5.502-10.3s-8.674-.563-9.135-1.775c-.456-1.218 5.875-5.363 5.875-5.363s-8.735-10.616-5.634-11.492zm25.18-96.709c2.324 1.697 2.896 14.638 2.896 14.638s7.401.999 7.896 2.313c1.11 2.779-7.521 4.104-7.521 4.104s3.328 10.813.945 11.882c-2.371 1.061-8.527-7.303-8.527-7.303s-6.914 4.701-9.647 3.504c-2.711-1.184 4.729-10.674 4.729-10.674s-4.882-7.182-4.205-8.285c.679-1.104 7.815 1.321 7.815 1.321s2.99-13.408 5.619-11.5zm137.517 98.092c2.348 1.692 2.915 14.64 2.915 14.64s7.395 1.006 7.908 2.303c1.092 2.783-7.522 4.109-7.522 4.109s3.306 10.815.929 11.874c-2.377 1.07-8.532-7.297-8.532-7.297s-6.903 4.703-9.638 3.509c-2.723-1.186 4.736-10.671 4.736-10.671s-4.906-7.185-4.229-8.281c.684-1.116 7.838 1.316 7.838 1.316s2.984-13.415 5.595-11.502zm-83.935-161.647c1.904 1.4 2.359 11.903 2.359 11.903s6.011.814 6.431 1.873c.888 2.254-6.116 3.332-6.116 3.332s2.699 8.774.76 9.65c-1.938.856-6.927-5.926-6.927-5.926s-5.596 3.809-7.813 2.842c-2.215-.967 3.843-8.668 3.843-8.668s-3.982-5.832-3.445-6.729c.562-.896 6.366 1.078 6.366 1.078s2.428-10.887 4.542-9.355zm-71.49-164.614c1.904 1.388 2.354 11.9 2.354 11.9s6.011.806 6.431 1.869c.882 2.254-6.109 3.33-6.109 3.33s2.682 8.78.754 9.647c-1.928.859-6.938-5.925-6.938-5.925s-5.592 3.811-7.821 2.847c-2.195-.963 3.85-8.667 3.85-8.667s-3.979-5.826-3.435-6.723c.556-.906 6.372 1.072 6.372 1.072s2.428-10.894 4.542-9.35zm-8.025-124.611c1.576.678 3.661 8.142 3.661 8.142s4.451-.418 4.923.275c1.019 1.466-3.83 3.404-3.83 3.404s3.398 5.85 2.149 6.799c-1.233.938-5.958-3.099-5.958-3.099s-3.382 3.676-5.127 3.341c-1.752-.324 1.308-6.852 1.308-6.852s-3.831-3.521-3.585-4.26c.257-.734 4.748-.284 4.748-.284s-.064-8.22 1.711-7.466zm75.005 432.475c1.59.681 3.68 8.14 3.68 8.14s4.451-.409 4.919.274c1.017 1.469-3.821 3.411-3.821 3.411s3.389 5.856 2.148 6.793c-1.242.942-5.968-3.101-5.968-3.101s-3.377 3.673-5.141 3.354c-1.752-.328 1.309-6.859 1.309-6.859s-3.813-3.52-3.563-4.258c.233-.731 4.719-.287 4.719-.287s-.057-8.217 1.718-7.467zm-26.386-232.298c1.588.687 3.668 8.146 3.668 8.146s4.438-.411 4.93.273c1.004 1.479-3.844 3.41-3.844 3.41s3.398 5.851 2.143 6.793c-1.227.946-5.95-3.093-5.95-3.093s-3.375 3.664-5.14 3.35c-1.746-.33 1.326-6.856 1.326-6.856s-3.826-3.521-3.592-4.258c.244-.745 4.754-.292 4.754-.292s-.073-8.218 1.705-7.473zm-37.655 37.621c1.582.691 3.674 8.138 3.674 8.138s4.438-.418 4.918.271c1.016 1.473-3.826 3.416-3.826 3.416s3.393 5.852 2.154 6.776c-1.25.963-5.975-3.087-5.975-3.087s-3.37 3.677-5.134 3.347c-1.747-.314 1.319-6.855 1.319-6.855s-3.819-3.517-3.58-4.252c.238-.739 4.747-.289 4.747-.289s-.078-8.235 1.703-7.465zm-22.283-330.107c1.589.677 3.682 8.14 3.682 8.14s4.443-.421 4.916.277c1.005 1.463-3.83 3.399-3.83 3.399s3.397 5.846 2.147 6.802c-1.237.94-5.944-3.093-5.944-3.093s-3.396 3.668-5.142 3.341c-1.752-.324 1.32-6.86 1.32-6.86s-3.832-3.51-3.593-4.252c.238-.735 4.736-.287 4.736-.287s-.06-8.217 1.708-7.467zm-6.645 151.073c1.589.68 3.681 8.145 3.681 8.145s4.449-.423 4.916.274c1.018 1.466-3.825 3.405-3.825 3.405s3.395 5.849 2.162 6.798c-1.257.941-5.986-3.101-5.986-3.101s-3.364 3.677-5.111 3.344c-1.752-.322 1.304-6.86 1.304-6.86s-3.832-3.506-3.586-4.249c.243-.734 4.754-.289 4.754-.289s-.086-8.224 1.691-7.467zm18.444 245.073c1.588.675 3.668 8.137 3.668 8.137s4.455-.418 4.93.283c1.018 1.463-3.838 3.408-3.838 3.408s3.398 5.846 2.155 6.783c-1.238.941-5.957-3.095-5.957-3.095s-3.382 3.674-5.128 3.348c-1.764-.315 1.296-6.86 1.296-6.86s-3.819-3.514-3.574-4.243c.246-.742 4.754-.298 4.754-.298s-.077-8.219 1.694-7.463z"/><path fill="#000018" d="M2043.433 1933.166l-10.033 43.857-10.284 44.953-11.322 51.636-31.069 140.572c-.019.095-.11.155-.205.136s-.156-.112-.137-.208l30.774-140.644c3.889-17.571 7.775-35.144 11.422-51.616l10.385-44.931 10.131-43.834a.174.174 0 0 1 .209-.131.176.176 0 0 1 .129.21z"/><path fill="#6FC5EE" d="M2233.234 1961.823l1.325 8.35c.858 5.444 2.111 13.434 3.625 23.61 1.494 10.183 3.311 22.544 5.393 36.726 2.074 14.183 4.207 30.213 6.539 47.698 2.305 17.488 4.764 36.44 7.207 56.507l3.799 30.87c1.322 10.529 2.668 21.291 3.857 32.256a1516.282 1516.282 0 0 1 3.197 33.439c.476 5.654.927 11.349 1.35 17.071.443 5.724.853 11.478 1.217 17.257.728 11.563 1.3 23.229 1.451 34.963.071 5.866.008 11.75-.298 17.639-.157 2.943-.38 5.889-.726 8.826-.353 2.938-.808 5.875-1.632 8.762-1.888 5.652-4.088 11.078-6.428 16.496a210.382 210.382 0 0 1-7.718 15.863c-2.803 5.162-5.819 10.201-9.102 15.051a143.301 143.301 0 0 1-10.701 13.854c-7.717 8.727-16.573 16.314-26.123 22.563-9.53 6.292-19.771 11.175-30.166 14.971-10.452 3.77-21.17 5.906-31.657 7.594-10.507 1.665-20.863 2.656-30.949 3.46-10.09.793-19.928 1.225-29.447 1.438-9.52.232-18.724.15-27.553-.115-35.308-1.236-64.629-5.346-84.583-10.688-9.979-2.659-17.559-5.732-22.432-8.401a46.484 46.484 0 0 1-5.354-3.412 60.383 60.383 0 0 1-1.699-1.376.37.37 0 0 1 .477-.568l.01.008s.56.462 1.677 1.314a45.23 45.23 0 0 0 5.301 3.267c4.834 2.562 12.389 5.47 22.33 7.993 19.856 5.168 49.123 9.064 84.33 10.051 17.599.518 36.707.571 56.85-.8a346.2 346.2 0 0 0 30.842-3.44c10.437-1.697 21.09-3.857 31.375-7.649 5.156-1.88 10.229-4.104 15.219-6.577a130.257 130.257 0 0 0 14.545-8.41c9.387-6.252 18.077-13.771 25.761-22.334a142.484 142.484 0 0 0 10.836-13.517 149.45 149.45 0 0 0 9.272-14.789c2.811-5.118 5.307-10.419 7.631-15.797 2.289-5.375 4.487-10.874 6.287-16.384.767-2.778 1.189-5.677 1.509-8.574.313-2.902.505-5.823.633-8.746.25-5.85.237-11.706.167-17.551-.184-11.692-.787-23.338-1.544-34.879-.748-11.543-1.706-22.981-2.782-34.271-1.056-11.291-2.188-22.438-3.3-33.4l-3.229-32.308a1517.715 1517.715 0 0 0-3.545-30.892 4786.709 4786.709 0 0 0-7.314-56.48l-6.598-47.681-5.209-36.745-4.654-31.998a.37.37 0 1 1 .731-.115z"/><path fill="#6FC5EE" d="M2514.682 2337.41c0-.001-.688.965-2.057 2.676a133.29 133.29 0 0 1-6.211 7.199 165.938 165.938 0 0 1-10.504 10.383c-4.238 3.814-9.158 7.983-14.834 12.125a198.203 198.203 0 0 1-19.023 12.327c-6.999 3.978-14.664 7.664-22.801 10.947a191.836 191.836 0 0 1-25.721 8.327l-6.763 1.543-6.862 1.252a48.142 48.142 0 0 1-3.455.539l-3.474.468c-1.159.149-2.315.324-3.478.456l-3.497.293-3.496.293-1.747.145-1.751.063-6.994.256c-2.328.012-4.652-.041-6.969-.059-1.158-.025-2.316.003-3.47-.066l-3.45-.195c-2.302-.157-4.576-.201-6.868-.449l-3.382-.367-1.684-.184c-.561-.075-1.12-.182-1.679-.271-2.23-.39-4.471-.678-6.633-1.228l-3.25-.734c-1.076-.26-2.126-.601-3.188-.883-8.448-2.386-16.327-5.785-23.188-10.043-6.89-4.211-12.804-9.157-17.612-14.307a95.35 95.35 0 0 1-11.646-15.252c-3-4.869-5.227-9.342-6.854-13.104a91.07 91.07 0 0 1-3.276-8.942c-.642-2.104-.896-3.268-.896-3.268a.489.489 0 1 1 .953-.22s.271 1.109.951 3.17c.681 2.058 1.775 5.053 3.434 8.75a101.582 101.582 0 0 0 6.875 12.877 93.818 93.818 0 0 0 11.592 14.924c4.728 5.068 10.498 9.951 17.194 14.231 1.64 1.126 3.44 2.038 5.198 3.074.885.508 1.824.926 2.742 1.397.932.444 1.841.955 2.806 1.354.962.407 1.929.816 2.9 1.229.488.201.974.418 1.468.608l1.504.531 3.031 1.071c1.019.351 2.069.611 3.108.925 1.047.293 2.088.623 3.153.87l3.224.704c2.146.528 4.35.795 6.549 1.165.553.084 1.101.184 1.657.255l1.685.171 3.384.344c2.229.227 4.529.257 6.807.396l3.432.17c1.146.056 2.297.016 3.447.027 2.303-.008 4.611.019 6.924-.018 2.311-.11 4.624-.221 6.941-.33l1.736-.083 1.732-.161 3.466-.329c9.229-.932 18.426-2.363 27.278-4.633a190.364 190.364 0 0 0 25.463-8.338 184.83 184.83 0 0 0 22.492-11.035 202.61 202.61 0 0 0 18.809-12.251c5.602-4.121 10.583-8.111 14.819-11.855 4.241-3.734 7.815-7.138 10.642-10.053 2.836-2.904 4.987-5.264 6.405-6.91 1.424-1.646 2.125-2.556 2.125-2.557a.491.491 0 0 1 .789.582l-.002.008z"/><path fill="#FFF7A0" d="M2399.768 2131.246c2.033.789 4.954 10.095 4.954 10.095s5.571-.7 6.213.14c1.319 1.816-4.677 4.456-4.677 4.456s4.49 7.22 2.979 8.458c-1.524 1.23-7.623-3.65-7.623-3.65s-4.111 4.754-6.338 4.434c-2.201-.344 1.362-8.696 1.362-8.696s-4.954-4.258-4.673-5.198c.291-.935 5.945-.561 5.945-.561s-.425-10.359 1.858-9.478zm-323.903-133.819c2.027.795 4.966 10.109 4.966 10.109s5.577-.713 6.209.142c1.325 1.81-4.685 4.456-4.685 4.456s4.508 7.202 3 8.457c-1.541 1.23-7.639-3.661-7.639-3.661s-4.111 4.765-6.318 4.438c-2.228-.352 1.358-8.686 1.358-8.686s-4.959-4.271-4.684-5.215c.273-.937 5.963-.557 5.963-.557s-.429-10.358 1.83-9.483zm142.997 280.173c1.25.496 3.066 6.226 3.066 6.226s3.438-.425 3.824.101c.83 1.121-2.886 2.745-2.886 2.745s2.793 4.469 1.841 5.222c-.929.776-4.715-2.254-4.715-2.254s-2.521 2.943-3.9 2.745c-1.371-.205.854-5.367.854-5.367s-3.061-2.642-2.908-3.225c.176-.572 3.689-.346 3.689-.346s-.268-6.389 1.135-5.847zm-147.828-198.223c1.263.479 3.072 6.243 3.072 6.243s3.435-.448 3.82.076c.827 1.121-2.863 2.756-2.863 2.756s2.758 4.457 1.835 5.222c-.946.767-4.72-2.267-4.72-2.267s-2.527 2.944-3.9 2.733c-1.368-.203.847-5.361.847-5.361s-3.065-2.641-2.902-3.219c.181-.571 3.697-.344 3.697-.344s-.279-6.383 1.114-5.839zm245.972 97.362c1.262.468 3.072 6.216 3.072 6.216s3.457-.433 3.832.08c.822 1.123-2.888 2.752-2.888 2.752s2.787 4.463 1.859 5.232c-.953.759-4.72-2.255-4.72-2.255s-2.522 2.944-3.907 2.74c-1.373-.229.854-5.368.854-5.368s-3.08-2.634-2.903-3.225c.176-.572 3.668-.339 3.668-.339s-.258-6.394 1.133-5.833zm50.276 175.423c1.248.496 3.048 6.244 3.048 6.244s3.459-.445 3.844.063c.824 1.134-2.892 2.773-2.892 2.773s2.793 4.45 1.853 5.204c-.935.771-4.707-2.249-4.707-2.249s-2.547 2.943-3.902 2.751c-1.377-.221.83-5.386.83-5.386s-3.066-2.615-2.893-3.217c.17-.562 3.681-.345 3.681-.345s-.263-6.387 1.138-5.838zM1965.8 2017.781c1.261.475 3.06 6.232 3.06 6.232s3.446-.438 3.838.082c.836 1.115-2.885 2.751-2.885 2.751s2.785 4.444 1.839 5.239c-.939.759-4.72-2.272-4.72-2.272s-2.521 2.943-3.889 2.744c-1.379-.209.828-5.367.828-5.367s-3.062-2.646-2.885-3.206c.182-.596 3.68-.355 3.68-.355s-.281-6.391 1.134-5.848zm-57.577 64.037c2.033.766 4.947 10.086 4.947 10.086s5.589-.712 6.215.135c1.326 1.822-4.674 4.464-4.674 4.464s4.516 7.218 2.973 8.438c-1.507 1.257-7.615-3.638-7.615-3.638s-4.104 4.748-6.331 4.434c-2.208-.346 1.378-8.691 1.378-8.691s-4.977-4.258-4.688-5.21c.286-.935 5.944-.56 5.944-.56s-.427-10.35 1.851-9.458zm582.846-311.066c2.032.781 4.958 10.103 4.958 10.103s5.591-.718 6.216.138c1.318 1.812-4.68 4.451-4.68 4.451s4.51 7.23 2.991 8.478c-1.524 1.229-7.634-3.657-7.634-3.657s-4.102 4.772-6.325 4.43c-2.208-.343 1.366-8.694 1.366-8.694s-4.952-4.271-4.689-5.203c.287-.946 5.963-.564 5.963-.564s-.433-10.35 1.834-9.482zm-342.341 352.551c2.038.775 4.976 10.075 4.976 10.075s5.572-.713 6.191.146c1.342 1.815-4.672 4.45-4.672 4.45s4.521 7.229 3 8.469c-1.529 1.232-7.639-3.645-7.639-3.645s-4.111 4.748-6.332 4.42c-2.22-.339 1.36-8.685 1.36-8.685s-4.946-4.281-4.672-5.204c.286-.952 5.963-.566 5.963-.566s-.443-10.341 1.825-9.46z"/><path fill="#49799E" d="M2431.518 2194.53c5.816-2.487 59.34 105.062-25.664 127.704-78.217 20.812-93.146-91.458-84.408-93.408 15.587-3.477 32.707-1.114 110.072-34.296zm-392.553 34.482c-6.045-1.888-48.133 110.607 38.752 124.336 79.934 12.633 83.17-100.595 74.274-101.621-15.844-1.829-32.63 2.279-113.026-22.715z"/><path fill="#650E81" d="M2412.01 2476.642c-2.979-1.197-9.911 5.917-5.91 8.913 4.006 2.967 11.728-6.587 5.91-8.913zm22.23-.835c-2.08-2.459-11.554.537-9.421 5.058 2.109 4.486 13.433-.257 9.421-5.058zm-414.824 7.5c-2.057-2.46-11.53.537-9.428 5.045 2.127 4.498 13.459-.239 9.428-5.045zm405.543 6.618c-2.063-2.441-11.541.543-9.435 5.059 2.138 4.508 13.459-.229 9.435-5.059zm-406.006-26.657c-2.072-2.46-11.533.537-9.421 5.04 2.116 4.502 13.458-.234 9.421-5.04zM2453.561 2434c-2.045-2.44-11.523.531-9.434 5.06 2.132 4.485 13.464-.253 9.434-5.06zm-11.501 15.006c-2.073-2.447-11.535.537-9.409 5.053 2.102 4.49 13.445-.242 9.409-5.053z" opacity=".2"/><path fill="#FFF7A0" d="M2282.139 2022.816c.951-.345 4.38 6.902 4.38 6.902s7.405-.449 7.499.404c.07.863-4.462 5.407-4.462 5.407s3.055 7.412 2.313 8.714c-.748 1.304-6.717-4.089-6.717-4.089s-6.086 7.902-6.881 7.364c-.8-.549 1.057-11.014 1.057-11.014s-6.115-4.281-6.103-5.393c.028-1.133 6.942-.163 6.942-.163s1.001-7.806 1.972-8.132zm-286.184 364.606c.95-.351 4.373 6.922 4.373 6.922s7.405-.479 7.487.392c.088.858-4.451 5.39-4.451 5.39s3.062 7.406 2.313 8.717c-.736 1.331-6.723-4.065-6.723-4.065s-6.08 7.908-6.888 7.364c-.793-.542 1.075-11.039 1.075-11.039s-6.121-4.273-6.109-5.4c.023-1.115 6.938-.164 6.938-.164s1.003-7.797 1.985-8.117zm436.1-572.821c.959-.339 4.375 6.906 4.375 6.906s7.412-.449 7.498.415c.088.86-4.455 5.394-4.455 5.394s3.061 7.412 2.313 8.721c-.736 1.322-6.712-4.092-6.712-4.092s-6.086 7.923-6.887 7.37c-.799-.552 1.051-11.038 1.051-11.038s-6.102-4.264-6.09-5.382c.029-1.11 6.943-.155 6.943-.155s1.019-7.8 1.964-8.139zm63.99 17.787c.957-.333 4.368 6.922 4.368 6.922s7.429-.456 7.498.402c.088.866-4.45 5.396-4.45 5.396s3.061 7.407 2.313 8.718c-.742 1.319-6.74-4.085-6.74-4.085s-6.073 7.907-6.868 7.369c-.802-.549 1.063-11.03 1.063-11.03s-6.109-4.274-6.104-5.382c.027-1.13 6.955-.17 6.955-.17s.994-7.792 1.965-8.14zm-463.336 327.547c.959-.339 4.387 6.915 4.387 6.915s7.389-.467 7.477.409c.086.854-4.457 5.386-4.457 5.386s3.062 7.417 2.313 8.731c-.742 1.318-6.705-4.082-6.705-4.082s-6.086 7.906-6.892 7.357c-.795-.543 1.063-11.032 1.063-11.032s-6.115-4.258-6.098-5.393c.012-1.108 6.938-.156 6.938-.156s1.015-7.809 1.974-8.135zm310.955-91.75c.657-.251 2.961 4.645 2.961 4.645s5.004-.315 5.063.269c.048.585-3.014 3.627-3.014 3.627s2.068 5.022 1.554 5.894c-.489.883-4.531-2.75-4.531-2.75s-4.101 5.325-4.627 4.959c-.542-.363.714-7.437.714-7.437s-4.117-2.879-4.117-3.627c.029-.753 4.689-.117 4.689-.117s.665-5.269 1.308-5.463zm-155.85 261.282c-1.017-.158-3.003 7.615-3.003 7.615s-7.371.939-7.295 1.806c.087.87 5.402 4.467 5.402 4.467s-1.637 7.839-.637 8.989c.981 1.163 5.834-5.272 5.834-5.272s7.459 6.634 8.143 5.962c.678-.701-3.119-10.646-3.119-10.646s5.199-5.332 4.978-6.442c-.234-1.092-6.841 1.146-6.841 1.146s-2.459-7.462-3.462-7.625zm159.307-342.472c-1-.161-3.002 7.601-3.002 7.601s-7.371.951-7.283 1.82c.074.858 5.391 4.445 5.391 4.445s-1.611 7.873-.637 9.023c.969 1.162 5.835-5.263 5.835-5.263s7.458 6.611 8.147 5.93c.678-.686-3.125-10.654-3.125-10.654s5.196-5.332 4.977-6.419c-.223-1.109-6.84 1.116-6.84 1.116s-2.447-7.453-3.463-7.599zm-342.4-76.471c-1.018-.158-3.014 7.61-3.014 7.61s-7.354.939-7.277 1.811c.088.858 5.387 4.457 5.387 4.457s-1.625 7.855-.633 9c.982 1.15 5.836-5.279 5.836-5.279s7.47 6.629 8.135 5.945c.678-.689-3.118-10.636-3.118-10.636s5.21-5.345 4.987-6.442c-.223-1.08-6.845 1.15-6.845 1.15s-2.453-7.474-3.458-7.616zm-70.176 238.589c-1.004-.158-2.994 7.604-2.994 7.604s-7.371.95-7.295 1.806c.088.863 5.391 4.467 5.391 4.467s-1.612 7.861-.643 9.02c.992 1.148 5.846-5.273 5.846-5.273s7.471 6.611 8.154 5.928c.671-.678-3.137-10.643-3.137-10.643s5.209-5.343 4.993-6.425c-.233-1.109-6.852 1.134-6.852 1.134s-2.439-7.466-3.463-7.618z"/><g fill="#4C3020"><path d="M2492.657 1602.918s-.153.138-.403.425c.164.112-2.099 1.263-2.949 1.416-2.269.665-4.818.68-7.559.354-2.733-.339-5.678-1.078-8.607-2.232-2.922-1.201-5.877-2.748-8.838-4.12-1.5-.664-2.984-1.345-4.543-1.814-1.543-.452-3.103-.874-4.527-1.432-2.814-1.243-5.188-2.853-7.243-4.178-4.075-2.736-6.506-5.114-6.506-5.114-1.308-1.293-1.302-3.391-.03-4.692a3.293 3.293 0 0 1 2.998-.931l.045.009s3.213.635 7.745 2.172c2.243.823 4.896 1.65 7.548 2.968 1.302.691 2.58 1.563 3.9 2.375 1.332.828 2.77 1.418 4.24 1.98 2.916 1.13 5.945 1.922 8.689 2.666 2.623.814 5.065 1.593 7.161 2.238 1.962.627 3.451.929 3.972 1.098.49-.082-.678.703.104.409.368-.126.562-.187.562-.187l.071-.024c2.103-.687 4.373.491 5.08 2.6a4.114 4.114 0 0 1-.91 4.014z"/><path d="M2458.092 1565.735s2.875.951 6.734 3.242c1.909 1.168 4.101 2.61 6.268 4.381 2.195 1.737 4.287 3.951 6.553 5.887 1.146.96 2.29 1.922 3.574 2.67 1.291.753 2.57 1.479 3.75 2.271 1.156.766 2.045 1.956 2.943 2.935.912.991 1.672 1.994 2.44 2.9 2.886 3.68 4.345 6.407 4.345 6.407a3.227 3.227 0 0 1-1.335 4.365l-.001.001a3.191 3.191 0 0 1-2.892.072l-.59-.287s-2.8-1.326-6.257-3.74a86.485 86.485 0 0 1-5.631-4.41c-.998-.919-1.908-1.979-2.885-3.027-.969-1.06-2.137-1.925-3.295-2.795-2.313-1.719-4.752-3.251-7.078-4.667-2.266-1.488-4.229-3.08-5.852-4.521-1.623-1.476-2.985-2.733-3.877-3.691-.924-.954-1.379-1.563-1.379-1.563l-.036-.047a4.089 4.089 0 0 1 .712-5.729c1.103-.86 2.533-1.045 3.789-.654z"/></g><path fill="#650E81" d="M2051.353 1687.738c-4.952.932-8.165 16.195-.351 16.78 7.791.571 10.022-18.589.351-16.78zm-11.64 25.788c4.898 1.154 7.365 16.573-.469 16.767-7.813.207-9.105-19.051.469-16.767zm35.539 5.515c4.905 1.166 7.358 16.584-.468 16.776-7.813.193-9.104-19.059.468-16.776zm-24.508 33.702c4.896 1.166 7.359 16.585-.468 16.777-7.813.195-9.097-19.046.468-16.777z" opacity=".2"/><g><path fill="#29515E" d="M759.637 2451.633h300.988v211.758H759.637v-211.758z"/><path fill="#1E8C8F" d="M1087.076 2427.603H731.865l33.564-104.242h288.081l33.566 104.242z"/><path fill="#5D495E" d="M759.416 2488.924h300.465v36.792H759.416v-36.792z"/><path fill="#24A0A0" d="M731.823 2427.603h354.118v58.254H731.823v-58.254z"/><path fill="#B8B8B8" d="M936.248 2427.603h-53.556l5.062-104.242h43.433l5.061 104.242z"/><path fill="#EDEEF0" d="M883.316 2428.074h52.31v237.143h-52.31v-237.143z"/><g fill="#EDEEF0"><path d="M862.902 2384.705c-21.604 0-45.54-7.797-67.394-21.951-45.957-29.768-66.344-77.19-46.409-107.967 9.919-15.313 27.713-23.748 50.106-23.748 21.604 0 45.539 7.795 67.396 21.95 45.954 29.767 66.34 77.191 46.409 107.966-9.921 15.315-27.715 23.75-50.108 23.75zm-63.697-115.307c-8.814 0-15.342 2.275-17.91 6.243-5.991 9.248 4.69 35.24 35.066 54.914 15.488 10.034 32.453 15.787 46.54 15.787 8.812 0 15.342-2.274 17.911-6.243 5.991-9.249-4.691-35.238-35.066-54.913-15.488-10.032-32.453-15.788-46.541-15.788z"/><path d="M905.93 2360.955c-19.932-30.773.452-78.199 46.408-107.966 21.857-14.155 45.793-21.95 67.395-21.95 22.396 0 40.189 8.435 50.109 23.748 19.932 30.775-.452 78.199-46.409 107.967-21.854 14.154-45.789 21.951-67.394 21.951-22.392 0-40.189-8.435-50.109-23.75zm67.266-75.769c-30.375 19.674-41.058 45.664-35.07 54.913 2.569 3.968 9.1 6.243 17.914 6.243 14.088 0 31.049-5.753 46.537-15.787 30.379-19.675 41.059-45.666 35.07-54.914-2.568-3.968-9.1-6.243-17.914-6.243-14.087 0-31.049 5.755-46.537 15.788z"/></g></g><g><path fill="#C46942" d="M1446.34 2721.478l-220.387-82.656v-284.708l220.387 82.656v284.708z"/><path fill="#E1902B" d="M1446.002 2721.478l220.418-82.656v-284.708l-220.418 82.656v284.708z"/><path fill="#FFDC5E" d="M1446.002 2273.265l220.621 81.753-220.621 81.752-220.623-81.752 220.623-81.753z"/><path fill="#C45742" d="M1446.34 2537.798l-220.387-82.659v-39.797l220.387 82.656v39.8z"/><path fill="#C46942" d="M1444.519 2537.798l220.387-82.659v-41.327l-220.387 82.656v41.33z"/><path fill="#C46942" d="M1446.34 2510.244l-254.993-95.408v-60.395l254.993 95.409v60.394z"/><path fill="#E1902B" d="M1446.238 2510.244l254.416-95.408v-60.395l-254.416 95.409v60.394z"/><path fill="#FFDC5E" d="M1446.002 2261.125l254.651 94.362-254.651 94.363-254.655-94.363 254.655-94.362z"/><path fill="#605560" d="M1542.873 2692.395l60.105-24.991V2388.8l-60.105 22.715v280.88z"/><path fill="#5D495E" d="M1349.006 2292.886l254.656 95.913-61.227 22.715-254.095-95.129 60.666-23.499z"/><path fill="#605560" d="M1349.807 2692.395l-61.928-24.991V2388.8l61.928 22.715v280.88z"/><path fill="#5D495E" d="M1542.994 2292.886l-254.653 95.913 61.228 22.715 254.094-95.129-60.669-23.499z"/><g><path fill="#605560" d="M1349.634 2388.201c-15.808 13.525-28.97 7.57-28.97-13.232v-123.236c0-20.804 13.162-26.759 28.972-13.23l90.756 74.847-90.758 74.851zm192.161-149.701c15.806-13.526 28.398-7.571 28.398 13.231v123.236c0 20.804-12.594 26.759-28.398 13.232l-90.76-74.849 90.76-74.85z"/><path fill="#5D495E" d="M1386.101 2268.209c-2.3 2.36-3.509 5.578-3.509 9.135v72.014c0 3.556 1.209 6.775 3.509 9.132l54.733-45.142-54.733-45.139zm123.987 9.135c0-3.555-1.551-6.773-3.85-9.133l-54.798 45.143 54.826 45.138c2.302-2.357 3.819-5.577 3.819-9.134v-72.014h.003z"/><path fill="#605560" d="M1486.41 2336.215c0 4.593-3.604 8.238-8.192 8.238h-64.436c-4.593 0-7.514-3.646-7.514-8.238v-45.728c0-4.593 2.921-7.962 7.514-7.962h64.436c4.589 0 8.192 3.369 8.192 7.962v45.728z"/></g></g><g><path fill="#C46942" d="M2149.592 2743.977l-161.147-60.438v-208.18l161.147 60.44v208.178z"/><path fill="#E1902B" d="M2149.346 2743.977l161.17-60.438v-208.18l-161.17 60.44v208.178z"/><path fill="#FFDC5E" d="M2149.346 2416.243l161.318 59.778-161.318 59.778-161.32-59.778 161.32-59.778z"/><path fill="#C45742" d="M2149.592 2609.67l-161.147-60.44v-29.101l161.147 60.438v29.103z"/><path fill="#C46942" d="M2148.26 2609.67l161.146-60.44v-30.219l-161.146 60.438v30.221z"/><path fill="#C46942" d="M2149.592 2589.522l-186.452-69.762v-44.162l186.452 69.764v44.16z"/><path fill="#E1902B" d="M2149.517 2589.522l186.03-69.762v-44.162l-186.03 69.764v44.16z"/><path fill="#FFDC5E" d="M2149.346 2407.366l186.201 68.997-186.201 68.999-186.206-68.999 186.206-68.997z"/><path fill="#605560" d="M2220.178 2722.713l43.949-18.274V2500.72l-43.949 16.611v205.382z"/><path fill="#5D495E" d="M2078.422 2430.591l186.205 70.13-44.77 16.611-185.795-69.561 44.36-17.18z"/><path fill="#605560" d="M2079.007 2722.713l-45.281-18.274V2500.72l45.281 16.611v205.382z"/><path fill="#5D495E" d="M2220.266 2430.591l-186.203 70.13 44.77 16.611 185.795-69.561-44.362-17.18z"/><g><path fill="#605560" d="M2078.879 2500.284c-11.558 9.89-21.183 5.535-21.183-9.676v-90.111c0-15.212 9.625-19.565 21.185-9.675l66.361 54.729-66.363 54.733zm140.51-109.462c11.557-9.892 20.766-5.537 20.766 9.676v90.11c0 15.211-9.209 19.565-20.766 9.677l-66.363-54.729 66.363-54.734z"/><path fill="#5D495E" d="M2105.543 2412.545c-1.68 1.728-2.563 4.08-2.563 6.68v52.656c0 2.602.885 4.955 2.563 6.679l40.022-33.009-40.022-33.006zm90.662 6.678c0-2.599-1.135-4.952-2.815-6.677l-40.067 33.008 40.09 33.005c1.683-1.726 2.794-4.078 2.794-6.679l-.002-52.657z"/><path fill="#605560" d="M2178.892 2462.27c0 3.358-2.635 6.024-5.991 6.024h-47.113c-3.358 0-5.494-2.666-5.494-6.024v-33.437c0-3.356 2.136-5.82 5.494-5.82h47.113c3.356 0 5.991 2.464 5.991 5.82v33.437z"/></g></g><g><path fill="#CCC" d="M1781.823 2601.368c-22.01-5.122-34.765-31.148-28.485-58.146 6.271-26.983 57.171-95.555 79.178-90.437 22.013 5.118 6.799 81.981.523 108.968-6.275 26.995-29.207 44.725-51.216 39.615zm275.666-102.465c13.32-18.255 5.979-46.294-16.408-62.635-22.373-16.336-105.703-35.015-119.022-16.764-13.326 18.253 48.397 66.518 70.776 82.854 22.382 16.341 51.325 14.789 64.654-3.455z"/><path fill="#EDEDED" d="M2017.655 2510.237c16.812 45.227-13.945 98.384-68.695 118.733s-112.76.188-129.568-45.037c-16.811-45.223-1.682-140.424 53.068-160.773 54.749-20.352 128.386 41.856 145.195 87.077z"/><path fill="#E7AD84" d="M1986.68 2521.594c11.566 31.118-9.596 67.694-47.266 81.696-37.672 14.002-77.586.129-89.152-30.989-11.566-31.114-1.156-96.617 36.516-110.619 37.67-14.004 88.337 28.797 99.902 59.912z"/><circle cx="1767.531" cy="2370.056" r="42.043" fill="#F5F5F5"/><path fill="#E7AD84" d="M1789.854 2365.752c5.031 13.537-1.866 28.597-15.408 33.629-13.543 5.034-28.604-1.861-33.637-15.399-5.034-13.544 1.864-28.608 15.406-33.644 13.543-5.035 28.604 1.869 33.639 15.414z"/><path fill="#F5F5F5" d="M1877.815 2329.063c8.09 21.764 32.295 32.853 54.059 24.762 21.771-8.091 32.853-32.295 24.762-54.06-8.09-21.764-32.288-32.851-54.059-24.758-21.764 8.089-32.852 32.294-24.762 54.056z"/><path fill="#E7AD84" d="M1897.508 2325.734c5.033 13.539 20.095 20.436 33.637 15.4 13.543-5.033 20.439-20.093 15.408-33.631-5.034-13.544-20.096-20.445-33.639-15.413-13.541 5.036-20.439 20.1-15.406 33.644z"/><ellipse cx="1862.107" cy="2395.393" fill="#EDEDED" rx="89.215" ry="93.699" transform="rotate(-110.39 1862.183 2395.515)"/><path fill="#3D2A3D" d="M1846.07 2396.225c2.112 5.681-.782 11.993-6.46 14.104-5.678 2.11-11.99-.779-14.104-6.461-2.108-5.674.783-11.989 6.461-14.101s11.994.785 14.103 6.458zm49.337-18.339a10.966 10.966 0 0 1-6.459 14.103c-5.677 2.11-11.989-.778-14.102-6.46-2.109-5.674.782-11.99 6.459-14.1 5.682-2.111 11.994.784 14.102 6.457z"/><path fill="#E7AD84" d="M1913.364 2411.282c8.176 21.993-3.025 46.449-25.018 54.624-21.994 8.176-46.446-3.027-54.621-25.021-8.174-21.99 3.023-46.445 25.02-54.621 21.99-8.174 46.446 3.029 54.619 25.018z"/><path fill="#D4D4D4" d="M1881.775 2439.039a3.201 3.201 0 0 1-1.882 4.116h-.002a3.203 3.203 0 0 1-4.117-1.886l-10.703-28.793a3.202 3.202 0 0 1 6.002-2.23l10.702 28.793z"/><path fill="#BC110C" d="M1892.696 2429.93c-2.725 13.866-20.02 20.296-31.141 11.575-3.891-3.054-8.774 2.875-4.867 5.938 15.684 12.302 39.734 3.362 43.574-16.196.957-4.87-6.614-6.169-7.566-1.317z"/><path fill="#3D2A3D" d="M1880.426 2403.114c2.915 7.841-8.271 19.229-8.271 19.229s-15.91-1.315-18.824-9.156c-2.912-7.837.793-16.44 8.275-19.223 7.48-2.782 15.908 1.313 18.82 9.15z"/><path fill="#EDEEF0" d="M1895.143 2596.683c21.054 23.207 19.309 59.087-3.896 80.14-23.207 21.054-59.088 19.308-80.139-3.896l-12.088-13.323c-21.053-23.206-19.309-59.087 3.898-80.139 23.204-21.055 59.084-19.309 80.139 3.896l12.086 13.322z"/><path fill="#E7AD84" d="M1874.51 2658.377c-12.997 11.791-33.164 10.811-44.955-2.188l-12.088-13.322c-11.791-12.997-10.812-33.164 2.186-44.957 12.998-11.791 33.164-10.811 44.958 2.188l12.087 13.323c11.791 12.999 10.808 33.163-2.188 44.956z"/><path fill="#EDEEF0" d="M1968.619 2569.373c-.783 31.322 23.975 57.354 55.297 58.137 31.323.785 57.352-23.975 58.137-55.294l.451-17.983c.784-31.324-23.974-57.354-55.297-58.137-31.322-.786-57.351 23.972-58.137 55.295l-.451 17.982z"/><path fill="#E7AD84" d="M2024.539 2602.609c17.545.439 32.174-13.477 32.613-31.02l.451-17.982c.438-17.543-13.477-32.173-31.02-32.615-17.545-.438-32.174 13.478-32.614 31.022l-.449 17.981c-.438 17.546 13.476 32.175 31.019 32.614z"/></g></svg>