<svg xmlns="http://www.w3.org/2000/svg" id="图层_3" viewBox="0 0 3000 3000"><ellipse cx="1581.037" cy="1509.986" fill="#5D6DA3" rx="862.534" ry="814.014"/><circle cx="2214.621" cy="942.033" r="469.777" fill="#5D6DA3"/><circle cx="981.427" cy="1893.43" r="389.957" fill="#5D6DA3"/><linearGradient id="SVGID_1_" x1="1192.248" x2="801.905" y1="3492.604" y2="2816.51" gradientTransform="matrix(1 0 0 -1 1202.4 4080.1)" gradientUnits="userSpaceOnUse"><stop offset=".005" stop-color="#8fccad"/><stop offset=".518" stop-color="#009671"/><stop offset=".619" stop-color="#00936f"/><stop offset=".701" stop-color="#008969"/><stop offset=".777" stop-color="#00785e"/><stop offset=".849" stop-color="#005f4f"/><stop offset=".918" stop-color="#00403c"/><stop offset=".985" stop-color="#001b25"/><stop offset="1" stop-color="#00111f"/></linearGradient><path fill="url(#SVGID_1_)" d="M2589.748 925.534c0 215.548-174.723 390.289-390.271 390.289s-390.271-174.741-390.271-390.289c0-215.53 174.723-390.271 390.271-390.271s390.271 174.741 390.271 390.271z"/><path fill="#00A581" d="M2014.338 576.362c5.519 2.613 41.008 18.933 40.35 40.224-.64 20.011-53.143 64.746-119.277 70.575-5.738.494-13.705-42.562-13.943-45.979-1.15-16.74 4.604-29.404 32.676-46.801 31.868-19.754 54.675-20.614 60.194-18.019z"/><path fill="#A2B9C6" d="M2002.496 588.642c3.69 6.359-9.76 21.107-30.1 32.913-20.303 11.842-39.783 16.301-43.457 9.959-3.691-6.341 9.759-21.089 30.08-32.913 20.304-11.841 39.786-16.299 43.477-9.959z"/><path fill="#A2B9C6" d="M2002.496 588.642c-.934-1.59-2.889-2.485-5.574-2.778-2.832 7.401-14.327 18.185-29.935 27.302-15.187 8.827-29.915 13.561-37.901 12.72-.84 2.211-1.004 4.147-.146 5.628 3.674 6.341 23.154 1.882 43.457-9.959 20.341-11.805 33.791-26.553 30.099-32.913zm-44.151 97.076c-25.566.438-32.62-22.734-32.62-22.734s3.161 17.124 5.135 20.504c7.657 13.194 30.372 14.291 50.693 2.449 5.099-2.979 13.285-10.325 13.285-10.325s-22.551 9.867-36.493 10.106z"/><path fill="#B7C7B5" d="M2008.508 577.276s19.938 3.527 6.342 24.396c-9.813 15.021-35.16 24.396-35.16 24.396s22.88-17.068 28.818-28.07c7.292-13.486 0-20.722 0-20.722z"/><path fill="#006B66" d="M1796.541 1092.383c2.267-5.665 16.574-42.031 37.864-42.563 20.029-.512 67.634 49.397 77.191 115.113.841 5.682-41.702 16.082-45.103 16.52-16.63 2.083-29.623-2.96-48.572-29.97-21.509-30.722-23.682-53.456-21.38-59.1z"/><path fill="#A2B9C6" d="M1809.48 1103.51c6.122-4.021 21.601 8.571 34.558 28.18 12.957 19.61 18.493 38.798 12.391 42.835-6.141 4.057-21.602-8.568-34.557-28.179-12.977-19.608-18.514-38.795-12.392-42.836z"/><path fill="#A2B9C6" d="M1809.48 1103.51c-1.535 1.022-2.339 3.017-2.485 5.721 7.565 2.412 18.987 13.268 28.947 28.343 9.686 14.676 15.241 29.094 14.839 37.135 2.267.714 4.203.768 5.646-.184 6.104-4.038.565-23.226-12.39-42.835-12.957-19.608-28.435-32.2-34.557-28.18zm99.414 38.596c1.882 25.511-20.87 33.844-20.87 33.844s16.904-4.109 20.176-6.267c12.719-8.406 12.556-31.141-.421-50.73-3.253-4.971-11.036-12.719-11.036-12.719s11.089 21.946 12.151 35.872z"/><path fill="#B7C7B5" d="M1797.783 1098.175s2.375-20.14 23.994-7.729c15.553 8.955 26.334 33.752 26.334 33.752s-18.348-21.91-29.642-27.209c-13.887-6.526-20.686 1.186-20.686 1.186z"/><path fill="#7BC4A4" d="M2479.662 619.983c.02 6.104.457 45.175-19.077 53.672-18.366 7.986-81.249-20.321-114.856-77.612-2.904-4.952 32.639-30.592 35.617-32.255 14.62-8.204 28.545-8.424 56.268 9.485 31.487 20.358 42.031 40.625 42.048 46.71z"/><path fill="#A2B9C6" d="M2463.49 614.537c-4.185 6.067-23.245.184-42.616-13.121-19.407-13.285-31.742-28.982-27.595-35.031 4.167-6.049 23.228-.184 42.616 13.103 19.389 13.303 31.724 29.001 27.595 35.049z"/><path fill="#A2B9C6" d="M2430.377 595.844c-16.447-11.258-27.705-24.196-28.254-31.579-4.238-.493-7.455.092-8.845 2.12-4.147 6.049 8.188 21.747 27.595 35.031 19.371 13.305 38.433 19.188 42.616 13.121.621-.932.749-2.138.658-3.453-8.331-.987-20.943-6.433-33.77-15.24zm-73.518 20.338c-11.349-22.935 6.597-39.199 6.597-39.199s-14.107 10.161-16.337 13.377c-8.626 12.573.072 33.589 19.48 46.875 4.879 3.345 15.021 7.603 15.021 7.603s-18.586-16.174-24.761-28.656z"/><path fill="#B7C7B5" d="M2476.32 615.104s5.372 19.536-19.335 16.155c-17.763-2.43-37.098-21.346-37.098-21.346s25.237 13.396 37.719 14.054c15.314.804 18.715-8.863 18.714-8.863z"/><path fill="#00A380" d="M2436.261 1128.144c-6.066.458-45.011 3.618-54.86-15.241-9.265-17.78 14.583-82.491 69.371-120.025 4.732-3.235 32.821 30.391 34.703 33.277 9.174 13.998 10.361 27.868-5.557 56.778-18.109 32.84-37.553 44.772-43.657 45.211z"/><path fill="#A2B9C6" d="M2440.573 1111.643c-6.323-3.729-1.791-23.191 10.087-43.439 11.915-20.284 26.719-33.697 33.022-29.97 6.341 3.728 1.827 23.171-10.088 43.419-11.896 20.285-26.68 33.699-33.021 29.99z"/><path fill="#A2B9C6" d="M2456.91 1077.287c10.088-17.178 22.204-29.313 29.532-30.373.2-4.275-.622-7.42-2.76-8.681-6.306-3.728-21.107 9.685-33.022 29.97-11.878 20.248-16.41 39.712-10.087 43.439.968.564 2.192.602 3.509.419.385-8.368 4.952-21.342 12.828-34.774zm-25.436-71.91c22.075-12.902 39.582 3.855 39.582 3.855s-11.147-13.395-14.51-15.351c-13.14-7.73-33.497 2.431-45.396 22.679-2.996 5.117-6.542 15.533-6.542 15.533s14.84-19.663 26.866-26.716z"/><path fill="#B7C7B5" d="M2440.904 1124.489s-19.098 6.726-17.471-18.165c1.188-17.89 18.713-38.485 18.713-38.485s-11.604 26.115-11.403 38.596c.274 15.332 10.161 18.054 10.161 18.054z"/><path fill="#55B693" d="M2286.793 569.218c4.586 6.725 34.229 49.45 19.078 73.427-14.271 22.514-104.73 38.322-184.572.273-6.891-3.308 13.103-58.095 15.131-62.188 9.997-19.956 25.184-30.61 69.133-31.561 49.927-1.096 76.679 13.341 81.23 20.049z"/><path fill="#A2B9C6" d="M2264.901 575.302c-.073 9.776-25.475 17.562-56.779 17.396-31.304-.165-56.633-8.242-56.597-18 .092-9.776 25.476-17.562 56.779-17.396 31.323.182 56.633 8.241 56.597 18z"/><path fill="#A2B9C6" d="M2228.99 580.437c-31.285-.164-56.633-8.242-56.597-17.982.019-.475.347-.896.457-1.352-12.865 3.161-21.29 8.021-21.327 13.596-.035 9.758 25.293 17.836 56.598 18 29.843.146 54.057-6.926 56.321-16.045-9.72 2.395-21.964 3.856-35.452 3.783zm-80.389 76.333c-29.642-16.794-22.021-48.135-22.021-48.135s-7.969 21.765-7.986 26.955c-.128 20.34 25.164 36.97 56.449 37.116 7.896.036 22.277-2.834 22.277-2.834s-32.564-3.945-48.719-13.102z"/><path fill="#B7C7B5" d="M2279.484 566.329s20.504 17.525-9.247 32.255c-21.398 10.617-56.852 4.185-56.852 4.185s37.847-4.094 52.082-12.683c17.488-10.543 14.017-23.756 14.017-23.757z"/><path fill="#00595C" d="M1949.992 1274.888c-.822-8.094-6.378-59.794 18.402-73.573 23.3-12.956 110.306 16.503 162.168 88.103 4.479 6.214-39.309 44.754-43.072 47.349-18.33 12.739-36.751 14.822-75.785-5.373-44.334-22.933-60.926-48.427-61.713-56.506z"/><path fill="#A2B9C6" d="M1972.123 1280.043c4.732-8.57 30.773-3.233 58.168 11.914 27.394 15.114 45.797 34.319 41.063 42.893-4.732 8.552-30.756 3.216-58.168-11.915-27.43-15.133-45.778-34.341-41.063-42.892z"/><path fill="#A2B9C6" d="M2006.096 1292.725c27.412 15.114 45.796 34.355 41.063 42.892-.22.402-.713.621-1.022.967 12.811 3.362 22.532 3.127 25.219-1.734 4.733-8.572-13.67-27.777-41.063-42.893-26.113-14.437-50.783-19.791-57.125-12.883 9.701 2.576 21.121 7.108 32.928 13.651zm107.126-28.545c17.964 28.947-3.71 52.813-3.71 52.813s17.416-15.313 19.938-19.846c9.832-17.78-4.404-44.498-31.834-59.612-6.908-3.817-20.888-8.187-20.888-8.187s26.679 19.062 36.494 34.832z"/><path fill="#B7C7B5" d="M1955.019 1280.939s-9.612-25.202 23.537-23.886c23.885.934 51.918 23.521 51.918 23.521s-35.16-14.51-51.771-13.799c-20.431.897-23.684 14.164-23.684 14.164z"/><path fill="#009571" d="M1791.717 766.454c7.475-3.161 55.226-23.757 75.712-4.147 19.261 18.457 16.83 110.25-36.275 180.955-4.604 6.122-54.349-24.323-57.931-27.139-17.6-13.742-25.036-30.737-17.287-74.012 8.845-49.141 28.306-72.496 35.781-75.657z"/><path fill="#A2B9C6" d="M1793.324 789.134c9.559 2.01 12.188 28.454 5.793 59.1-6.342 30.646-19.279 53.874-28.838 51.882-9.574-1.992-12.17-28.436-5.811-59.063 6.36-30.648 19.3-53.894 28.856-51.919z"/><path fill="#A2B9C6" d="M1793.324 789.134c-2.596-.548-5.445.841-8.369 3.691 3.416 10.563 3.325 29.367-1.006 50.328-4.624 22.295-12.736 40.624-20.486 48.228 1.572 4.843 3.783 8.132 6.816 8.734 9.559 1.992 22.496-21.234 28.838-51.882 6.397-30.647 3.766-57.09-5.793-59.099zm56.817 130.114c-22.331 25.73-51.553 12.062-51.553 12.062s19.772 12.116 24.854 13.176c19.901 4.13 41.229-17.361 47.568-48.007 1.59-7.73 1.627-22.368 1.627-22.368s-10.307 31.12-22.496 45.137z"/><path fill="#B7C7B5" d="M1787.422 773.052s21.234-16.611 29.787 15.46c6.158 23.063-7.164 56.522-7.164 56.522s3.49-37.864-2.102-53.544c-6.888-19.225-20.521-18.438-20.521-18.438z"/><path fill="#1EAD89" d="M2616.211 970.855c-8.938 6.652-65.845 49.615-99.506 30.153-31.67-18.312-58.277-141.372-10.525-252.848 4.13-9.631 80.299 14.729 86 17.324 27.887 12.591 43.311 32.784 47.059 92.962 4.238 68.331-14.074 105.794-23.028 112.409z"/><path fill="#A2B9C6" d="M2606.672 941.177c-13.359.457-25.438-33.937-26.919-76.826-1.518-42.891 8.149-78.051 21.526-78.508 13.396-.457 25.457 33.918 26.975 76.827 1.462 42.89-8.187 78.05-21.582 78.507zm-117.999-154.839c21.398-41.521 64.746-32.821 64.746-32.821s-30.28-9.724-37.407-9.467c-27.814.95-49.214 36.53-47.716 79.402.385 10.818 5.1 30.337 5.1 30.337s3.618-44.81 15.277-67.451z"/><path fill="#B7C7B5" d="M2619.775 960.695s-22.861 29.038-44.682-10.91c-15.716-28.728-8.882-77.63-8.882-77.63s7.713 51.571 20.268 70.631c15.423 23.372 33.296 17.909 33.296 17.909z"/><g><path fill="#008C70" d="M2293.791 1359.959c-8.898-4.99-66.099-36.459-62.461-71.856 3.453-33.333 96.36-101.643 207.343-103.471 9.612-.146 17.764 72.604 17.745 78.342-.073 28.033-11.166 48.5-60.068 74.141-55.52 29.129-93.676 27.831-102.559 22.844z"/><path fill="#A2B9C6" d="M2315.028 1340.88c-5.372-11.021 18.842-33.975 54.13-51.278 35.251-17.307 68.255-22.405 73.664-11.386 5.393 11.038-18.821 33.991-54.11 51.298-35.29 17.304-68.275 22.384-73.684 11.366zm85.196-156.577c42.726 2.318 51.681 41.812 51.681 41.812s-3.197-28.93-6.086-34.777c-11.22-22.916-48.957-27.448-84.228-10.161-8.899 4.369-23.429 15.605-23.429 15.605s38.78-13.758 62.062-12.479z"/><path fill="#B7C7B5" d="M2303.66 1359.135s-32.857-8.241-7.656-41.429c18.127-23.886 61.566-36.495 61.566-36.495s-40.241 25.75-51.462 43.384c-13.742 21.621-2.448 34.54-2.448 34.54z"/></g><g><path fill="#1EAD89" d="M2432.789 794.158c-12.317 35.215-10.855 64.674-10.855 101.224 0 35.471-69.37 102.63-124.449 63.357-35.271-25.164-153.324-38.011-119.277-114.032 18.476-41.282 5.172-81.469 29.33-101.388 31.578-26.042 67.287-27.449 87.407-35.471 63.412-25.293 159.116 25.494 137.844 86.31z"/><path fill="#A2B9C6" d="M2399.731 804.867c-9.174 26.188-8.061 48.1-8.061 75.254 0 26.37-51.569 76.278-92.522 47.095-26.226-18.714-113.961-28.271-88.649-84.776 13.725-30.665 3.818-60.544 21.782-75.346 23.466-19.354 50.036-20.395 65.003-26.37 47.111-18.804 118.253 18.932 102.447 64.143z"/><path fill="#A6C4D4" d="M2363.053 900.973c-26.205-18.713-113.96-28.271-88.649-84.775 13.614-30.427 4.021-60.05 21.399-74.979-15.133 5.519-40.734 7.09-63.522 25.876-17.964 14.802-8.059 44.681-21.782 75.346-25.312 56.505 62.426 66.063 88.649 84.776 28.233 20.138 61.548 2.612 79.494-18.859-5.281-1.372-10.509-3.765-15.589-7.385z"/><path fill="#A6C4D4" d="M2327.089 914.552c-26.206-18.713-113.942-28.271-88.65-84.775 13.726-30.665 3.838-60.544 21.802-75.346 2.485-2.047 5.025-3.838 7.565-5.5-11.385 3.436-23.793 8.516-35.524 18.165-17.965 14.802-8.06 44.681-21.783 75.346-25.312 56.505 62.426 66.063 88.649 84.776 21.563 15.369 46.033 8.79 64.399-4.733-12.043 2.245-24.689.454-36.458-7.933z"/><path fill="#B7C7B5" d="M2297.448 707.701c-20.139 7.876-55.847 9.247-87.462 34.74-3.233 2.631-5.757 5.61-7.84 8.9 31.049-23.739 65.515-25.312 85.142-32.986 63.449-24.78 159.172 24.945 137.899 84.501-12.315 34.484-10.873 63.358-10.873 99.14 0 10.49-6.378 23.813-16.722 36.239 16.229-14.985 26.863-33.296 26.863-46.875 0-35.8-1.426-64.655 10.854-99.14 21.292-59.556-74.431-109.281-137.861-84.519z"/></g><g><path fill="#1EAD89" d="M2077.24 811.666c-7.164 20.448-6.306 37.571-6.306 58.808 0 20.614-40.331 59.667-72.35 36.841-20.484-14.638-89.088-22.094-69.297-66.3 10.728-23.958 2.998-47.332 17.031-58.899 18.348-15.149 39.108-15.954 50.805-20.632 36.86-14.693 92.47 14.82 80.117 50.182z"/><path fill="#A2B9C6" d="M2057.994 817.88c-5.299 15.204-4.678 27.96-4.678 43.73 0 15.333-29.951 44.334-53.744 27.375-15.242-10.874-66.246-16.429-51.535-49.25 7.985-17.836 2.248-35.215 12.664-43.786 13.634-11.274 29.074-11.878 37.773-15.351 27.395-10.927 68.731 11.02 59.52 37.282z"/><path fill="#A6C4D4" d="M2036.705 873.726c-15.24-10.855-66.228-16.429-51.533-49.27 7.949-17.671 2.339-34.886 12.443-43.565-8.826 3.216-23.665 4.112-36.914 15.058-10.417 8.571-4.679 25.95-12.665 43.786-14.711 32.821 36.294 38.376 51.535 49.25 16.41 11.714 35.745 1.535 46.197-10.946-3.069-.804-6.102-2.212-9.063-4.313z"/><path fill="#A6C4D4" d="M2015.8 881.638c-15.224-10.873-66.229-16.447-51.517-49.269 7.985-17.836 2.229-35.196 12.664-43.804 1.463-1.206 2.924-2.229 4.404-3.216-6.634 2.01-13.854 4.989-20.65 10.599-10.416 8.571-4.679 25.95-12.664 43.786-14.711 32.821 36.293 38.376 51.535 49.25 12.518 8.937 26.754 5.099 37.426-2.759-7 1.316-14.363.275-21.198-4.587z"/><path fill="#B7C7B5" d="M1998.584 761.41c-11.694 4.568-32.491 5.373-50.84 20.211-1.899 1.499-3.361 3.254-4.551 5.153 18.037-13.815 38.066-14.711 49.488-19.188 36.859-14.382 92.486 14.511 80.115 49.123-7.146 20.047-6.305 36.822-6.305 57.638 0 6.085-3.691 13.834-9.723 21.053 9.43-8.717 15.624-19.371 15.624-27.266 0-20.778-.84-37.572 6.306-57.602 12.357-34.612-43.235-63.522-80.114-49.122z"/></g><g><path fill="#1EAD89" d="M2229.502 1161.277c-31.998 7.018-53.381 21.674-80.7 38.503-26.554 16.337-108.733-4.622-104.731-63.924 2.577-37.955-42.158-132.161 30.372-141.719 39.382-5.19 63.322-33.645 89.345-24.762 34.027 11.622 51.498 37.7 66.795 49.049 48.152 35.781 54.237 130.755-1.081 142.853z"/><path fill="#A2B9C6" d="M2206.24 1141.484c-23.794 5.209-39.675 16.118-59.978 28.602-19.736 12.171-80.811-3.418-77.831-47.479 1.899-28.235-31.341-98.245 22.551-105.354 29.274-3.856 47.075-25.019 66.428-18.422 25.292 8.645 38.285 28.033 49.671 36.478 35.726 26.591 40.257 97.184-.841 106.175z"/><path fill="#A6C4D4" d="M2117.48 1158.316c1.919-28.216-31.341-98.263 22.587-105.334 29.039-3.838 46.802-24.671 65.953-18.531-11.11-8.808-24.086-27.21-48.61-35.616-19.353-6.598-37.151 14.564-66.428 18.421-53.892 7.108-20.649 77.117-22.551 105.354-2.048 30.409 26.37 47.239 50.712 50.748-1.407-4.572-2.012-9.596-1.663-15.042z"/><path fill="#A6C4D4" d="M2090.762 1137.666c1.919-28.198-31.322-98.244 22.588-105.354 29.274-3.855 47.094-24.981 66.408-18.403a79.333 79.333 0 0 1 7.584 3.125c-7.803-6.943-17.342-13.889-29.934-18.202-19.354-6.597-37.152 14.565-66.428 18.422-53.893 7.108-20.65 77.117-22.551 105.354-1.572 23.189 14.638 38.467 33.205 45.979-7.235-7.968-11.714-18.238-10.872-30.921z"/><path fill="#B7C7B5" d="M2231.842 1020.233c-15.168-11.44-32.639-37.518-66.264-49.433-3.474-1.225-6.854-1.719-10.271-1.754 32.054 12.262 49.122 37.353 63.888 48.5 47.752 36.037 54.623 130.535.274 142.065-31.434 6.671-52.395 21.035-79.129 37.52-7.876 4.823-20.76 6.213-34.851 4.184 18.695 5.228 37.316 4.771 47.479-1.516 26.754-16.466 47.696-30.831 79.129-37.52 54.366-11.492 47.477-106.008-.255-142.046z"/></g><g><linearGradient id="SVGID_2_" x1="1378.619" x2="1054.006" y1="3908.502" y2="3346.254" gradientTransform="scale(1 -1) rotate(46.868 7450.623 575.91)" gradientUnits="userSpaceOnUse"><stop offset="0" stop-color="#fff693"/><stop offset=".33" stop-color="#f5a700"/><stop offset=".64" stop-color="#f08600"/><stop offset=".697" stop-color="#ec7f01"/><stop offset=".78" stop-color="#e16c04"/><stop offset=".878" stop-color="#ce4d08"/><stop offset=".959" stop-color="#bc2d0d"/></linearGradient><path fill="url(#SVGID_2_)" d="M1183.398 1650.815c130.812 122.541 137.526 327.935 14.985 458.746-122.551 130.822-327.945 137.517-458.758 14.976-130.812-122.539-137.526-327.935-14.976-458.757 122.543-130.811 327.937-137.505 458.749-14.965z"/><path fill="#F5A90B" d="M644.344 1801.502c4.689-1.873 34.795-14.112 47.342-1.608 11.781 11.766 9.071 69.056-24.992 112.53-2.951 3.773-33.613-15.893-35.833-17.68-10.813-8.817-15.217-19.522-9.815-46.43 6.117-30.586 18.572-44.927 23.298-46.812z"/><path fill="#D8C0BD" d="M645.064 1815.693c5.948 1.365 7.229 17.913 2.863 36.979-4.366 19.046-12.736 33.402-18.695 32.027-5.926-1.366-7.208-17.914-2.852-36.969 4.357-19.053 12.727-33.389 18.684-32.037z"/><path fill="#D8C0BD" d="M645.064 1815.693c-1.516-.338-3.16.329-4.876 1.805 2.893 5.916 2.911 19.013-.459 33.681-3.266 14.245-8.769 25.854-13.819 30.245.864 1.768 1.957 2.957 3.322 3.277 5.959 1.375 14.329-12.981 18.695-32.027 4.367-19.068 3.085-35.616-2.863-36.981zm33.803 81.98c-14.27 15.786-32.345 6.873-32.345 6.873s12.19 7.815 15.354 8.529c12.36 2.854 25.932-10.298 30.298-29.363 1.111-4.789 1.309-13.936 1.309-13.936s-6.831 19.298-14.616 27.897z"/><path fill="#B7C7B5" d="M641.573 1805.571s13.477-10.095 18.401 10.033c3.549 14.507-5.185 35.21-5.185 35.21s2.659-23.602-.641-33.461c-4.059-12.092-12.575-11.782-12.575-11.782z"/><path fill="#CF5213" d="M833.679 2227.095c-2.14-4.606-16.075-33.946-4.293-47.19 11.088-12.437 68.444-12.976 113.752 18.597 3.938 2.711-13.949 34.455-15.638 36.769-8.181 11.288-18.617 16.295-45.785 12.44-30.872-4.391-45.897-16.03-48.036-20.616z"/><path fill="#D8C0BD" d="M847.789 2225.571c1.029-6.012 17.483-8.237 36.75-4.952 19.278 3.273 34.072 10.823 33.043 16.836-1.029 6.012-17.482 8.235-36.739 4.961-19.278-3.295-34.071-10.822-33.054-16.845z"/><path fill="#D8C0BD" d="M847.789 2225.571c-.252 1.513.5 3.134 2.068 4.749 5.755-3.209 18.848-3.979 33.672-1.441 14.401 2.454 26.313 7.279 30.963 12.074 1.721-.948 2.855-2.115 3.09-3.498 1.029-6.013-13.765-13.563-33.043-16.836-19.265-3.284-35.719-1.06-36.75 4.952zm79.957-38.403c16.543 13.373 8.677 31.908 8.677 31.908s7.114-12.617 7.666-15.809c2.13-12.499-11.771-25.313-31.028-28.588-4.877-.842-14.005-.521-14.005-.521s19.647 5.725 28.69 13.01z"/><path fill="#B7C7B5" d="M837.89 2229.604s-10.851-12.871 8.973-18.938c14.267-4.357 35.438 3.209 35.438 3.209s-23.709-1.322-33.356 2.528c-11.837 4.722-11.055 13.201-11.055 13.201z"/><path fill="#FDE06F" d="M935.361 1543.908c3.726 3.447 27.677 25.406 21.738 42.104-5.583 15.698-58.528 37.737-112.407 25.562-4.657-1.053-.021-37.19.653-39.955 3.354-13.539 11.128-22.104 37.77-28.759 30.256-7.536 48.541-2.401 52.246 1.048z"/><path fill="#D8C0BD" d="M922.86 1550.627c1.303 5.97-13.094 14.201-32.193 18.404-19.098 4.205-35.638 2.787-36.929-3.17-1.313-5.979 13.084-14.211 32.171-18.426 19.087-4.192 35.638-2.765 36.951 3.192z"/><path fill="#D8C0BD" d="M892.687 1560.095c-16.185 3.56-30.426 3.047-35.229-.828-2.698 2.303-4.172 4.587-3.72 6.594 1.291 5.957 17.831 7.375 36.929 3.17 19.101-4.203 33.496-12.436 32.193-18.404-.189-.906-.85-1.691-1.723-2.385-5.325 4.508-15.788 9.074-28.45 11.853zm-29.446 56.174c-20.36-6.163-20.04-26.291-20.04-26.291s-1.854 14.361-1.17 17.521c2.738 12.393 20.416 19.041 39.525 14.825 4.814-1.049 13.154-4.794 13.154-4.794s-20.359 2.085-31.469-1.261z"/><path fill="#B7C7B5" d="M930.508 1543.152s14.91 7.846-1.188 20.919c-11.575 9.399-34.036 10.368-34.036 10.368s22.479-7.7 29.963-14.891c9.196-8.837 5.261-16.396 5.261-16.396z"/><path fill="#F19100" d="M1302.68 1822.032c-3.172 3.941-23.385 29.364-40.441 24.63-16.07-4.496-41.797-55.771-33.406-110.365.728-4.713 37.095-2.631 39.916-2.131 13.733 2.391 22.828 9.556 31.324 35.651 9.623 29.653 5.811 48.261 2.607 52.215z"/><path fill="#D8C0BD" d="M1295.106 1810.021c-5.857 1.718-15.082-12.088-20.618-30.811-5.537-18.764-5.262-35.375.585-37.104 5.857-1.717 15.092 12.077 20.628 30.82 5.538 18.767 5.272 35.366-.595 37.095z"/><path fill="#D8C0BD" d="M1283.531 1780.584c-4.671-15.911-5.156-30.152-1.634-35.203-2.479-2.554-4.835-3.863-6.826-3.271-5.847 1.729-6.122 18.34-.585 37.104 5.536 18.722 14.762 32.526 20.618 30.81.896-.266 1.624-.978 2.238-1.9-4.848-4.985-10.125-15.114-13.811-27.54zm-58.085-25.448c4.711-20.744 24.834-21.842 24.834-21.842s-14.456-.841-17.556.067c-12.172 3.591-17.579 21.724-12.033 40.455 1.381 4.75 5.687 12.78 5.687 12.78s-3.498-20.161-.932-31.46z"/><path fill="#B7C7B5" d="M1303.101 1817.136s-6.775 15.413-20.958.254c-10.184-10.871-12.729-33.207-12.729-33.207s9.25 21.869 16.961 28.821c9.461 8.574 16.726 4.132 16.726 4.132z"/><path fill="#FDD861" d="M794.911 1632.079c6.68 1.053 49.475 7.343 55.393 30.19 5.55 21.463-36.3 85.342-104.774 112.157-5.924 2.321-27.81-40.983-29.119-44.542-6.438-17.402-4.27-32.655 20.142-59.893 27.708-30.911 51.691-38.931 58.358-37.912z"/><path fill="#D8C0BD" d="M786.158 1648.848c5.881 5.593-3.824 25.446-21.733 44.341-17.898 18.906-37.212 29.697-43.114 24.105-5.881-5.594 3.836-25.457 21.734-44.342 17.899-18.903 37.199-29.706 43.113-24.104z"/><path fill="#D8C0BD" d="M768.838 1673.562c-17.889 18.896-37.201 29.688-43.082 24.094-.277-.26-.356-.709-.562-1.023-5.405 9.615-7.225 17.492-3.885 20.662 5.901 5.593 25.216-5.198 43.114-24.104 17.057-18.007 26.509-36.745 22.271-43.315-4.069 7.28-10.133 15.532-17.856 23.686zm.621 92.192c-27.034 8.431-41.734-14.023-41.734-14.023s8.691 17.22 11.82 20.193c12.271 11.621 36.744 5.725 54.631-13.191 4.521-4.76 10.937-15.099 10.937-15.099s-20.89 17.499-35.654 22.12z"/><path fill="#B7C7B5" d="M788.992 1634.885s22.294-2.479 14.33 23.962c-5.745 19.004-29.772 36.852-29.772 36.852s19.002-25.264 21.894-38.799c3.543-16.609-6.452-22.015-6.452-22.015z"/><path fill="#C64416" d="M1031.694 2237.728c-5.37-4.114-39.916-30.126-34.191-53 5.396-21.52 72.73-57.564 145.675-48.334 6.306.806 4.813 49.281 4.259 53.053-2.691 18.367-11.898 30.73-46.35 42.94-39.139 13.879-64.046 9.435-69.393 5.341z"/><path fill="#D8C0BD" d="M1047.414 2227.217c-2.512-7.745 15.533-20.518 40.291-28.54 24.76-8.022 46.879-8.25 49.391-.525 2.499 7.735-15.545 20.507-40.314 28.54-24.758 8.022-46.87 8.237-49.368.525z"/><path fill="#D8C0BD" d="M1074.427 2213.786c24.758-8.021 46.866-8.239 49.378-.515.119.362-.028.785.006 1.171 9.324-5.862 14.697-11.888 13.285-16.292-2.512-7.725-24.631-7.497-49.391.525-23.608 7.643-40.863 19.569-40.297 27.367 7.081-4.445 16.357-8.789 27.019-12.256zm43.592-81.235c27.762 5.556 29.923 32.279 29.923 32.279s.62-19.246-.719-23.373c-5.182-16.077-29.501-22.616-54.26-14.572-6.243 2.021-16.832 8.033-16.832 8.033s26.736-5.379 41.888-2.367z"/><path fill="#B7C7B5" d="M1038.233 2238.106s-20.781-8.493-1.113-27.887c14.146-13.945 43.793-18.117 43.793-18.117s-28.799 13.09-37.819 23.588c-11.064 12.9-4.861 22.416-4.861 22.416z"/><path fill="#F18E00" d="M633.121 2044.718c2.343-6.345 17.002-47.047 40.539-48.32 22.163-1.207 76.494 52.479 89.201 124.898 1.087 6.266-45.662 19.155-49.417 19.741-18.357 2.856-32.88-2.293-54.729-31.609-24.805-33.297-27.924-58.376-25.594-64.71z"/><path fill="#D8C0BD" d="M647.823 2056.635c6.633-4.679 24.166 8.769 39.162 30.063 14.973 21.274 21.727 42.343 15.083 47.033-6.643 4.668-24.167-8.792-39.163-30.086-14.985-21.285-21.737-42.332-15.082-47.01z"/><path fill="#D8C0BD" d="M647.823 2056.635c-1.809 1.264-2.606 3.782-2.529 7.168 8.344 3.941 19.703 14.668 29.976 29.246 10.892 15.471 17.393 30.807 17.601 39.832 3.846 1.81 7.107 2.327 9.199.851 6.643-4.689-.109-25.759-15.083-47.033-14.998-21.295-32.534-34.742-39.164-30.064zm111.284 39.483c2.897 28.184-22.002 38.136-22.002 38.136s18.585-5.102 22.128-7.57c13.8-9.73 12.893-34.903-2.104-56.178-3.776-5.371-12.65-13.703-12.65-13.703s13.029 23.949 14.628 39.315z"/><path fill="#B7C7B5" d="M634.695 2051.063s1.98-22.344 26.311-9.278c17.51 9.387 30.253 36.463 30.253 36.463s-21.006-23.613-33.713-29.146c-15.598-6.758-22.851 1.961-22.851 1.961z"/><path fill="#F5A605" d="M1225.97 1660.502c-1.054 9.217-7.345 68.192-38.296 77.559-29.106 8.82-118.937-45.029-159.433-137.358-3.52-8.004 54.583-40.371 59.399-42.356 23.52-9.769 44.531-7.657 83.188 24.282 43.87 36.285 56.186 68.687 55.142 77.873z"/><path fill="#D8C0BD" d="M1202.523 1649.427c-7.338 8.39-35.069-3.844-61.942-27.331-26.871-23.466-42.736-49.345-35.41-57.725 7.361-8.368 35.07 3.846 61.955 27.344 26.88 23.455 42.726 49.313 35.397 57.712zm-161.066-16.417c-13.043-36.584 16.894-57.937 16.894-57.937s-23.106 12.839-27.005 17.289c-15.258 17.443-5.819 50.649 21.054 74.115 6.772 5.93 21.31 14.152 21.31 14.152s-25.149-27.66-32.253-47.619z"/><path fill="#B7C7B5" d="M1221.807 1652.561s4.638 30.396-32.035 20.927c-26.352-6.816-52.134-38.758-52.134-38.758s35.675 24.672 54.37 27.879c22.955 3.928 29.799-10.048 29.799-10.048z"/><path fill="#E67600" d="M1278.804 2077.423c-8.078 2.575-59.729 19.39-79.125-2.943-18.257-21.037-6.913-116.264 55.098-184.683 5.365-5.905 54.154 30.511 57.628 33.806 16.961 15.972 23.065 34.332 10.844 78.588-13.897 50.245-36.368 72.678-44.445 75.232z"/><path fill="#D8C0BD" d="M1279.297 2053.686c-9.754-3.015-9.916-30.739-.357-61.996 9.549-31.245 25.22-54.175 34.994-51.183 9.732 2.994 9.906 30.729.347 61.985-9.561 31.258-25.231 54.187-34.984 51.194zm-46.582-140.74c25.69-24.602 54.75-7.584 54.75-7.584s-19.388-14.495-24.577-16.089c-20.277-6.209-44.494 14.108-54.043 45.354-2.41 7.885-3.851 23.093-3.851 23.093s13.698-31.361 27.721-44.774z"/><path fill="#B7C7B5" d="M1283.905 2070.976s-23.674 15.245-29.486-18.919c-4.168-24.583 12.854-58.094 12.854-58.094s-7.252 39.041-2.95 55.879c5.318 20.643 19.582 21.134 19.582 21.134z"/><path fill="#F6AF1B" d="M1010.649 1624.305c9.355 17.888 21.532 28.21 35.962 41.728 14.021 13.134 14.864 65.34-21.018 72.563-22.966 4.621-71.705 46.468-89.136 4.921-9.457-22.563-30.243-32.183-29.17-49.066 1.396-22.119 14.036-36.726 18.313-47.648 13.459-34.397 68.923-53.387 85.049-22.498z"/><path fill="#D8C0BD" d="M1002.656 1641.329c6.96 13.289 16.007 20.973 26.72 31.01 10.427 9.767 11.069 48.561-15.603 53.958-17.082 3.428-53.313 34.522-66.255 3.636-7.041-16.759-22.499-23.909-21.694-36.462 1.044-16.452 10.452-27.297 13.617-35.411 10.005-25.574 51.229-39.681 63.215-16.731z"/><path fill="#D8C0BD" d="M1027.03 1691.338c-17.061 3.429-53.289 34.545-66.231 3.656-6.984-16.643-22.238-23.81-21.696-36.192-3.438 8.025-12.271 18.723-13.275 34.669-.806 12.553 14.652 19.703 21.693 36.462 12.941 30.888 49.173-.208 66.255-3.636 18.394-3.72 23.795-23.356 21.96-38.383a25.437 25.437 0 0 1-8.706 3.424z"/><path fill="#D8C0BD" d="M1019.11 1710.573c-17.07 3.418-53.301 34.513-66.266 3.626-7.01-16.749-22.479-23.91-21.695-36.462.115-1.746.362-3.409.645-5.021-2.855 5.759-5.451 12.553-5.969 20.753-.805 12.553 14.653 19.703 21.694 36.462 12.942 30.888 49.173-.208 66.255-3.636 14.035-2.847 20.489-14.938 21.938-27.199-3.559 5.601-8.945 9.906-16.602 11.477z"/><path fill="#B7C7B5" d="M926.471 1645.762c-4.346 10.86-17.018 25.479-18.635 47.392-.164 2.241.088 4.352.627 6.376 2.088-21.056 14.236-35.227 18.461-45.826 13.688-34.196 68.72-53.596 84.379-23.183 9.047 17.617 20.979 27.732 35.109 40.97 4.137 3.876 7.045 11.308 8.135 19.991.074-11.948-3.23-22.915-8.588-27.934-14.143-13.248-26.052-23.343-35.121-40.959-15.638-30.433-70.679-11.025-84.367 23.173z"/><g><path fill="#F6AF1B" d="M975.143 1803.767c10.917 20.869 25.139 32.92 41.964 48.682 16.358 15.325 17.338 76.258-24.514 84.699-26.833 5.393-83.699 54.225-104.013 5.729-11.041-26.315-35.3-37.546-34.061-57.252 1.641-25.805 16.395-42.865 21.388-55.598 15.701-40.143 80.404-62.308 99.236-26.26z"/><path fill="#D8C0BD" d="M965.814 1823.641c8.13 15.508 18.69 24.464 31.188 36.173 12.156 11.388 12.895 56.686-18.224 62.958-19.932 4.005-62.207 40.308-77.309 4.255-8.22-19.57-26.242-27.896-25.324-42.568 1.226-19.157 12.197-31.849 15.92-41.313 11.662-29.833 59.756-46.314 73.749-19.505z"/><path fill="#D8C0BD" d="M994.266 1881.989c-19.934 4.006-62.188 40.309-77.32 4.267-8.128-19.422-25.926-27.786-25.302-42.236-3.983 9.389-14.318 21.844-15.497 40.439-.918 14.674 17.105 22.998 25.324 42.568 15.102 36.053 57.377-.25 77.309-4.255 21.482-4.325 27.756-27.228 25.623-44.78-2.917 1.848-6.272 3.227-10.137 3.997z"/><path fill="#D8C0BD" d="M985.009 1904.43c-19.935 3.983-62.209 40.286-77.33 4.255-8.197-19.57-26.232-27.905-25.304-42.569.129-2.024.409-3.947.733-5.853-3.328 6.732-6.349 14.647-6.963 24.193-.918 14.675 17.104 23 25.324 42.569 15.102 36.053 57.377-.25 77.309-4.255 16.397-3.298 23.904-17.425 25.619-31.729-4.182 6.539-10.449 11.581-19.388 13.389z"/><path fill="#B7C7B5" d="M876.922 1828.811c-5.07 12.682-19.867 29.724-21.754 55.277-.192 2.63.102 5.094.729 7.448 2.443-24.552 16.604-41.089 21.544-53.453 15.964-39.916 80.188-62.571 98.456-27.052 10.563 20.536 24.484 32.352 40.966 47.79 4.836 4.529 8.228 13.203 9.493 23.346.094-13.929-3.766-26.747-10.021-32.607-16.48-15.439-30.393-27.242-40.977-47.778-18.244-35.521-82.483-12.897-98.436 27.029z"/></g><g><path fill="#F6AF1B" d="M785.854 1879.61c8.349 15.963 19.209 25.199 32.097 37.272 12.522 11.729 13.282 58.381-18.765 64.823-20.52 4.145-64.071 41.521-79.637 4.406-8.443-20.175-27.023-28.751-26.075-43.854 1.258-19.75 12.563-32.797 16.372-42.555 12.04-30.724 61.568-47.694 76.008-20.092z"/><path fill="#D8C0BD" d="M778.695 1894.81c6.216 11.883 14.312 18.736 23.882 27.703 9.307 8.717 9.867 43.396-13.953 48.195-15.265 3.066-47.635 30.864-59.201 3.266-6.285-14.987-20.072-21.365-19.375-32.58.93-14.688 9.333-24.39 12.16-31.633 8.941-22.838 45.775-35.459 56.487-14.951z"/><path fill="#D8C0BD" d="M800.485 1939.484c-15.253 3.079-47.646 30.876-59.191 3.276-6.247-14.871-19.864-21.275-19.375-32.333-3.058 7.175-10.972 16.712-11.871 30.967-.697 11.215 13.09 17.593 19.375 32.58 11.566 27.6 43.938-.198 59.201-3.266 16.439-3.301 21.256-20.845 19.623-34.264-2.235 1.388-4.813 2.449-7.762 3.04z"/><path fill="#D8C0BD" d="M793.39 1956.661c-15.255 3.059-47.624 30.876-59.201 3.268-6.274-14.979-20.085-21.376-19.375-32.582.089-1.563.31-3.042.552-4.501-2.541 5.158-4.857 11.232-5.318 18.55-.697 11.215 13.09 17.593 19.375 32.58 11.566 27.6 43.938-.198 59.201-3.267 12.541-2.517 18.316-13.35 19.615-24.273-3.204 4.995-8.012 8.863-14.849 10.225z"/><path fill="#B7C7B5" d="M710.634 1898.774c-3.889 9.707-15.203 22.765-16.649 42.337-.16 2.018.084 3.891.552 5.702 1.87-18.802 12.714-31.489 16.49-40.944 12.229-30.569 61.392-47.884 75.374-20.707 8.094 15.726 18.775 24.773 31.375 36.576 3.716 3.481 6.299 10.129 7.262 17.902.081-10.689-2.852-20.498-7.653-24.997-12.611-11.813-23.292-20.841-31.386-36.564-13.974-27.188-63.137-9.873-75.365 20.695z"/></g><g><path fill="#F6AF1B" d="M1191.358 1814.644c-5.23 17.257-3.919 31.46-3.171 49.091.731 17.137-31.397 51.012-58.797 33.154-17.544-11.438-74.825-15.202-59.931-52.622 8.067-20.306.82-39.444 12.082-49.553 14.718-13.223 31.939-14.623 41.477-18.936 30.105-13.507 77.355 9.059 68.34 38.866z"/><path fill="#D8C0BD" d="M1175.604 1820.504c-3.871 12.823-2.913 23.384-2.346 36.494.545 12.756-23.342 37.898-43.71 24.63-13.04-8.487-55.604-11.313-44.556-39.114 6.014-15.087.625-29.32 8.98-36.818 10.947-9.841 23.752-10.882 30.851-14.081 22.373-10.033 57.498 6.734 50.781 28.889z"/><path fill="#D8C0BD" d="M1159.875 1867.637c-13.052-8.478-55.613-11.302-44.555-39.093 5.951-14.979.729-29.098 8.803-36.65-7.203 2.977-19.525 4.261-30.149 13.8-8.356 7.498-2.968 21.731-8.979 36.818-11.05 27.801 31.515 30.627 44.555 39.114 14.051 9.163 29.771.007 38.003-10.715-2.59-.568-5.151-1.613-7.678-3.274z"/><path fill="#D8C0BD" d="M1142.781 1874.948c-13.028-8.499-55.603-11.313-44.555-39.136 6.003-15.076.624-29.298 8.991-36.807a37.107 37.107 0 0 1 3.543-2.806c-5.434 1.888-11.322 4.597-16.786 9.493-8.356 7.498-2.968 21.731-8.98 36.818-11.049 27.801 31.515 30.627 44.556 39.113 10.722 6.983 22.418 3.301 31.01-3.604-5.785 1.354-11.923.748-17.779-3.071z"/><path fill="#B7C7B5" d="M1124.229 1775.666c-9.55 4.215-26.793 5.616-41.521 18.58-1.516 1.329-2.67 2.829-3.606 4.451 14.508-12.107 31.126-13.574 40.454-17.686 30.113-13.251 77.357 8.808 68.301 37.994-5.232 16.923-3.951 30.806-3.215 48.092.229 5.066-2.578 11.621-7.331 17.853 7.526-7.568 12.306-16.648 12.026-23.197-.746-17.276-2.039-31.19 3.205-48.104 9.077-29.186-38.188-51.246-68.313-37.983z"/></g><g><path fill="#F18E00" d="M1160.58 2026.273c-9.705 16.295-11.975 31.1-15.66 49.304-3.604 17.655-44.967 44.068-68.398 18.933-15.02-16.111-72.499-34.472-47.838-68.888 13.39-18.673 10.844-40.028 24.879-47.498 18.378-9.771 36.291-6.841 47.129-8.807 34.15-6.181 76.646 28.819 59.888 56.956z"/><path fill="#D8C0BD" d="M1143.022 2028.256c-7.217 12.105-8.889 23.139-11.641 36.658-2.68 13.129-33.424 32.744-50.84 14.077-11.152-11.969-53.888-25.638-35.563-51.202 9.954-13.895 8.061-29.768 18.501-35.334 13.646-7.251 26.983-5.063 35.032-6.54 25.366-4.581 56.968 21.439 44.511 42.341z"/><path fill="#D8C0BD" d="M1115.023 2072.392c-11.131-11.969-53.876-25.626-35.54-51.202 9.862-13.772 8.09-29.511 18.249-35.175-8.101 1.221-20.997-.595-34.251 6.438-10.441 5.566-8.547 21.439-18.501 35.334-18.325 25.564 24.409 39.233 35.563 51.202 12.032 12.896 30.384 7.534 41.49-1.344-2.48-1.218-4.837-2.926-7.01-5.253z"/><path fill="#D8C0BD" d="M1095.739 2075.507c-11.152-11.97-53.888-25.638-35.552-51.213 9.956-13.873 8.062-29.769 18.503-35.313 1.447-.767 2.879-1.384 4.322-1.969-6.035.552-12.734 1.835-19.531 5.443-10.441 5.565-8.547 21.438-18.501 35.334-18.325 25.563 24.409 39.232 35.563 51.201 9.17 9.84 22.046 9.032 32.563 4.163-6.229-.106-12.354-2.263-17.367-7.646z"/><path fill="#B7C7B5" d="M1101.945 1969.491c-10.819 1.881-28.753-1.051-47.077 8.439-1.893.976-3.433 2.22-4.795 3.631 17.877-8.681 35.189-5.956 45.743-7.795 34.106-5.908 76.735 28.568 60.106 56.077-9.631 15.905-11.855 30.439-15.467 48.256-1.055 5.238-5.59 11.234-12.015 16.358 9.595-5.817 16.762-13.868 18.132-20.645 3.635-17.796 5.827-32.318 15.457-48.245 16.639-27.496-25.966-61.973-60.084-56.076z"/></g><g><path fill="#F18E00" d="M989.615 2085.379c-9.692 16.283-11.962 31.109-15.669 49.295-3.604 17.675-44.957 44.077-68.398 18.951-15.01-16.122-72.487-34.48-47.838-68.887 13.398-18.686 10.863-40.052 24.898-47.521 18.368-9.76 36.28-6.827 47.129-8.807 34.151-6.156 76.647 28.842 59.878 56.969z"/><path fill="#D8C0BD" d="M972.068 2087.371c-7.217 12.105-8.89 23.117-11.663 36.638-2.668 13.14-33.4 32.766-50.828 14.065-11.164-11.957-53.889-25.615-35.563-51.18 9.966-13.884 8.061-29.768 18.514-35.323 13.643-7.271 26.973-5.073 35.031-6.542 25.376-4.591 56.966 21.441 44.509 42.342z"/><path fill="#D8C0BD" d="M944.059 2131.498c-11.133-11.97-53.878-25.627-35.541-51.182 9.861-13.794 8.102-29.521 18.28-35.187-8.143 1.223-21.029-.604-34.271 6.44-10.453 5.557-8.548 21.439-18.514 35.323-18.326 25.563 24.397 39.223 35.563 51.18 12.031 12.897 30.385 7.578 41.502-1.311-2.479-1.218-4.848-2.958-7.019-5.263z"/><path fill="#D8C0BD" d="M924.774 2134.611c-11.145-11.979-53.855-25.628-35.54-51.203 9.954-13.873 8.06-29.768 18.479-35.312 1.449-.767 2.9-1.385 4.334-1.979-6.004.563-12.715 1.834-19.521 5.455-10.453 5.556-8.548 21.438-18.514 35.322-18.326 25.564 24.396 39.223 35.563 51.18 9.181 9.852 22.048 9.056 32.554 4.195-6.219-.119-12.342-2.296-17.355-7.658z"/><path fill="#B7C7B5" d="M930.99 2028.606c-10.841 1.881-28.741-1.062-47.075 8.419-1.883.985-3.444 2.23-4.807 3.662 17.865-8.712 35.189-5.978 45.754-7.807 34.106-5.907 76.735 28.569 60.096 56.067-9.619 15.916-11.844 30.45-15.455 48.244-1.076 5.239-5.603 11.226-12.004 16.37 9.573-5.817 16.752-13.858 18.123-20.635 3.609-17.814 5.836-32.328 15.455-48.243 16.638-27.497-25.98-61.985-60.087-56.077z"/></g><g><path fill="#E4CA72" d="M1234.693 1712.301c129.149-28.494 220.166-27.51 237.834 20.966 30.255 82.942-182.362 192.201-457.235 292.472-274.864 100.258-509.371 149.567-538.151 70.629-16.084-44.097 49.931-102.829 162.892-164.104l-2.132-19.888c-143.483 74.229-229.788 147.15-209.83 201.873 32.97 90.382 291.131 37.698 593.079-72.442 301.97-110.145 535.072-231.489 500.438-326.429-21.871-59.993-137.428-58.104-298.136-19.439l11.241 16.362z"/><path fill="#F7B11C" d="M1359.226 1773.941c22.661 62.148-141.875 145.937-354.304 223.403-212.396 77.479-393.333 116.329-414.888 57.176-8.405-23.015 14.021-51.691 57.938-82.854l-4.314-18.244c-72.564 44.517-112.352 86.275-100.471 118.854 24.965 68.45 228.333 25.706 466.72-61.266 238.396-86.961 422.821-181.708 396.581-253.645-13.179-36.127-73.32-41.861-161.059-27.074l1.63 3.506s31.612.668 40.675 10.822c38.589-.066 64.018 8.891 71.492 29.322z"/></g></g></svg>