<svg xmlns="http://www.w3.org/2000/svg" id="图层_3" viewBox="0 0 3000 3000"><linearGradient id="SVGID_1_" x1="3278.728" x2="3312.94" y1="3224.961" y2="3224.961" gradientTransform="rotate(141.977 2316.246 2116.713)" gradientUnits="userSpaceOnUse"><stop offset=".006" stop-color="#f79855"/><stop offset="1" stop-color="#fff100"/></linearGradient><path fill="url(#SVGID_1_)" d="M856.422 1838.718c7.513 1.302 17.955.941 23.309 3.422-4.822-1.142-7.22 1.229-10.927 1.805 1.555 3.079.794 6.447 3.114 9.644-3.215-.568-6.973 1.255-11.463-.967.121 2.313-2.159 7.459-2.055 9.538-.365-.067-4.593-3.038-5.115-3.393-.399.601.057 3.237-1.215 3.541-.497-6.84-1.357-13.353-1.462-20.248 2.542-.011 4.761-1.757 6.833-2.044"/><path fill="#1C3F94" d="M850.434 1700.505c37.32 46.017 37.717 107.518.918 137.368-36.814 29.845-96.898 16.743-134.223-29.266-37.317-46.017-37.717-107.52-.917-137.37 36.805-29.847 96.897-16.743 134.222 29.268z"/><path fill="#FFF" d="M861.598 1853.756c3.743 4.982 11.579 10.242 16.306 18.308 4.687 8.004.539 18.326 7.825 26.154 5.383 5.776 16.421 4.649 21.561 10.763 4.469 5.281 5.402 18.575 9.1 24.979 11.349 19.756 33.683 26.841 47.646 45.535 7.719 10.338 6.864 19.896 12.521 29.553 4.308 7.371 12.772 11.184 18.498 18.657 2.649-1.458 5.034-3.923 6.719-6.359-19.382 2.092-25.127-31.366-33.694-43.415-13.561-19.077-36.416-23.491-46.375-43.389-4.485-8.942-1.571-17.793-8.778-25.442-6.276-6.651-17.206-5.909-23.382-13.777-11.092-14.135-5.42-35.565-26.602-42.538-.211 1.699-2.079 4.93-1.463 3.855"/><linearGradient id="SVGID_2_" x1="3456.683" x2="3490.911" y1="3212.8" y2="3212.8" gradientTransform="rotate(141.977 2316.246 2116.713)" gradientUnits="userSpaceOnUse"><stop offset=".006" stop-color="#f79855"/><stop offset="1" stop-color="#fff100"/></linearGradient><path fill="url(#SVGID_2_)" d="M723.719 1957.918c7.509 1.311 17.963.938 23.31 3.423-4.823-1.144-7.21 1.224-10.942 1.815 1.57 3.066.791 6.438 3.137 9.635-3.229-.575-6.977 1.243-11.477-.964.131 2.298-2.152 7.452-2.063 9.546-.356-.084-4.586-3.057-5.086-3.418-.422.609.027 3.252-1.239 3.566-.494-6.848-1.337-13.38-1.45-20.27 2.522.007 4.749-1.752 6.827-2.038"/><path fill="#956564" d="M2006.384 2523.377l-87.647-5.832c-3.094-1.926-6.244-3.885-7.811-9.685-109.562-344.856-269.979-959.472-376.408-1306.254-4.49-.487-9.956-.796-15.967-1.046v-.512c-3.014.071-5.608.168-8.43.265-2.834-.096-43.313-.193-46.319-.265v.512c-6.013.25-11.481.559-15.985 1.046-106.41 346.782-266.83 961.396-376.396 1306.254-1.556 5.8-4.704 7.759-7.811 9.685l-87.643 5.832c-1.579 29.061-1.579 58.11-1.579 89.107 42.236 0 92.328-1.959 137.741-1.959h208.161c1.568-29.038 1.568-60.048 1.568-89.083l-107.125-5.823c23.484-89.105 56.383-180.613 82.989-273.606h386.899c26.619 92.993 59.51 184.501 82.979 273.606l-107.11 5.823c0 29.035 0 60.045 1.563 89.083h208.167c45.421 0 95.499 1.959 137.741 1.959.002-30.997.002-60.048-1.577-89.107zm-378.583-457.929h-273.25c-4.668 0 85.615-312.932 136.632-483.354 50.999 170.422 141.288 483.354 136.618 483.354z"/><path fill="#4B2D35" d="M1347.457 2594.818c0 32.553-25.271 58.94-56.465 58.94H994.531c-31.163 0-56.429-26.388-56.429-58.94 0-32.556 25.266-58.931 56.429-58.931h296.461c31.196 0 56.465 26.375 56.465 58.931zm696.797 0c0 32.553-25.283 58.94-56.465 58.94h-296.466c-31.157 0-56.429-26.388-56.429-58.94 0-32.556 25.271-58.931 56.429-58.931h296.466c31.182 0 56.465 26.375 56.465 58.931z"/><path fill="#C79564" d="M1730.899 2203.862h-479.445v-102.675h479.445v102.675z"/><path fill="#9FCC64" d="M1491.17 1965.509c-434.049 0-787.168-353.128-787.168-787.175 0-434.05 353.121-787.164 787.168-787.164 434.041 0 787.168 353.114 787.168 787.164 0 434.047-353.127 787.175-787.168 787.175zm0-1498.718c-392.357 0-711.553 319.196-711.553 711.543 0 392.354 319.195 711.551 711.553 711.551 392.352 0 711.547-319.196 711.547-711.551 0-392.347-319.195-711.543-711.547-711.543z"/><path fill="#336432" d="M1506.289 2030.72h-30.242V325.967h30.242V2030.72z"/><path fill="#336432" d="M2104.584 1770.362l-21.385 21.386L877.75 586.303l21.392-21.386 1205.442 1205.445z"/><path fill="#336432" d="M2343.553 1163.209v30.248H638.793v-30.248h1704.76z"/><path fill="#336432" d="M2083.193 564.918l21.386 21.386L899.135 1791.747l-21.385-21.397L2083.193 564.918z"/><path fill="#BE1A20" d="M2320.148 655.533c0 120.698-97.856 151.922-218.556 151.922-120.701 0-218.553-31.224-218.553-151.922V520.934c0-120.701 97.852-193.863 218.553-193.863 120.697 0 218.556 73.162 218.556 193.863v134.599"/><path fill="#F9F7CA" d="M1916.231 527.955v51.16h167.961V364.199c-94.186 6.643-167.961 67.27-167.961 163.756m370.719 0c0-96.485-73.764-157.113-167.967-163.755v214.916h167.967v-51.161"/><path fill="#EA6363" d="M1899.948 596.4v63.018c0 102.366 85.348 128.851 196.708 128.851V596.4h-196.708m206.575 0v191.868c111.365 0 196.719-26.484 196.719-128.851V596.4h-196.719"/><path fill="#40210F" d="M2081.368 641.822c0 11.026-8.938 19.947-19.941 19.947-11.021 0-19.947-8.921-19.947-19.947 0-11.015 8.928-19.947 19.947-19.947 11.003 0 19.941 8.932 19.941 19.947zm80.347 0c0 11.026-8.93 19.947-19.954 19.947-11.021 0-19.949-8.921-19.949-19.947 0-11.015 8.93-19.947 19.949-19.947 11.024 0 19.954 8.932 19.954 19.947z"/><path fill="#BE1A20" d="M2105.975 334.318c-48.313 0-107.422 10.729-143.039 40.337-38.229 31.77-60.237 75.681-65.348 124.82-2.321 22.383-4.93 50.363 1.153 72.272 3.517 12.64 8.326 17.524 13.483 17.524 2.436 0 4.961-1.094 7.455-3.007 2.353-1.757 4.672-4.229 6.886-7.151h-10.336v-51.159c0-96.486 73.774-157.114 167.961-163.756v27.529c11.389-2.733 22.967-3.897 34.793-4.932v-22.598c18.41 1.294 36.03 4.646 52.478 9.944 7.726-6.76 9.856-16.3-.205-26.686-10.616-10.966-31.027-11.561-45.066-12.485a307.064 307.064 0 0 0-20.215-.652"/><path fill="#F4D094" d="M2084.192 364.199c-94.186 6.643-167.961 67.27-167.961 163.755v51.16h10.336c7.206-9.506 13.295-23.715 15.355-33.873 14.365-70.716 50.846-102.545 110.72-140.457 10.335-6.547 20.856-10.502 31.55-13.057v-27.528m34.793 0v22.598c9.945-.892 20.063-1.688 30.357-3.28 8.611-1.33 16.716-4.668 22.12-9.374-16.447-5.298-34.067-8.649-52.477-9.944"/><path fill="#BE1A20" d="M2299.404 432.492c-7.9 54.153-.796 109.722-6.604 163.908h10.443v63.018c0 102.366-85.354 128.851-196.72 128.851v-30.735c-3.292.379-6.571.711-9.866.997v29.739c-99.195 0-177.74-21.005-193.715-97.96-5.548-4.609-11.156-9.196-16.961-13.638-.666-.523-1.348-1.022-2.008-1.521 10.206 104.503 103.74 132.307 217.619 132.307 120.697 0 218.556-31.225 218.556-151.923v-134.6c0-33.281-7.439-62.935-20.744-88.443"/><path fill="#E9564E" d="M1902.942 690.308c15.975 76.955 94.52 97.96 193.714 97.96v-29.739a324.18 324.18 0 0 1-27.646 1.188c-33.142 0-64.354-5.218-88.8-15.446-30.37-12.677-52.996-33.635-77.268-53.963M2303.24 596.4h-10.443c-1.639 15.434-4.336 30.748-8.721 45.885-19.913 68.685-99.087 106.194-177.555 115.248v30.735c111.365 0 196.719-26.484 196.719-128.851V596.4"/><path fill="#AE67A6" d="M1100.939 1877.68c0 120.699-97.84 151.936-218.556 151.936-120.698 0-218.538-31.235-218.538-151.936v-134.588c0-120.709 97.84-193.873 218.538-193.873 120.716 0 218.556 73.164 218.556 193.873v134.588"/><path fill="#C8C7E3" d="M697.023 1750.117v51.158h167.965v-214.928c-94.204 6.655-167.965 67.284-167.965 163.77m370.74 0c0-96.485-73.776-157.115-167.981-163.77v214.928h167.981v-51.158"/><path fill="#9D4896" d="M680.75 1818.562v63.017c0 102.367 85.354 128.85 196.709 128.85v-191.865l-196.709-.002m206.588 0v191.865c111.365 0 196.699-26.481 196.699-128.85v-63.017l-196.699.002"/><path fill="#40210F" d="M862.168 1863.984c0 11.012-8.922 19.947-19.942 19.947-11.014 0-19.954-8.937-19.954-19.947 0-11.015 8.94-19.938 19.954-19.938 11.018.002 19.942 8.923 19.942 19.938zm80.35 0c0 11.012-8.939 19.947-19.959 19.947-11.014 0-19.954-8.937-19.954-19.947 0-11.015 8.94-19.938 19.954-19.938 11.019.002 19.959 8.923 19.959 19.938z"/><path fill="#AF5A83" d="M886.774 1556.467c-48.308 0-107.422 10.742-143.047 40.351-38.223 31.771-60.231 75.669-65.323 124.809-2.334 22.397-4.936 50.362 1.147 72.273 3.505 12.663 8.322 17.548 13.468 17.548 2.446 0 4.965-1.117 7.479-3.008 2.334-1.771 4.649-4.251 6.865-7.163h-10.341v-51.158c0-96.485 73.762-157.116 167.965-163.77v27.541c11.39-2.744 22.966-3.886 34.793-4.931v-22.61c18.41 1.308 36.05 4.655 52.485 9.945 7.725-6.75 9.85-16.278-.195-26.661-10.633-10.988-31.033-11.584-45.064-12.512a315.36 315.36 0 0 0-20.232-.654"/><path fill="#C8A6AA" d="M864.989 1586.347c-94.203 6.652-167.965 67.283-167.965 163.77v51.158h10.341c7.211-9.505 13.294-23.703 15.362-33.874 14.371-70.702 50.832-102.544 110.714-140.469 10.34-6.533 20.854-10.478 31.547-13.044l.001-27.541m34.792 0v22.611c9.965-.894 20.063-1.689 30.357-3.293 8.613-1.318 16.732-4.668 22.127-9.372-16.435-5.288-34.073-8.638-52.484-9.946"/><path fill="#AF5A83" d="M1080.196 1654.63c-7.895 54.163-.79 109.743-6.582 163.934h10.424v63.017c0 102.367-85.334 128.85-196.699 128.85v-30.748c-3.311.392-6.588.735-9.879 1.011v29.737c-99.194 0-177.758-21.005-193.727-97.946-5.535-4.621-11.148-9.22-16.955-13.651a72.39 72.39 0 0 0-2.007-1.521c10.206 104.506 103.738 132.309 217.612 132.309 120.716 0 218.556-31.235 218.556-151.936v-134.588c0-33.282-7.431-62.949-20.743-88.468"/><path fill="#9E427C" d="M683.733 1912.481c15.969 76.941 94.532 97.946 193.727 97.946v-29.737a330.157 330.157 0 0 1-27.653 1.188c-33.131 0-64.336-5.229-88.792-15.446-30.37-12.686-52.985-33.633-77.282-53.951m400.304-93.919h-10.424c-1.658 15.42-4.361 30.735-8.744 45.871-19.906 68.709-99.063 106.191-177.531 115.246v30.748c111.365 0 196.699-26.481 196.699-128.85v-63.015"/><path fill="#EB6519" d="M1710.545 427.134c0 120.676-97.85 151.897-218.549 151.897-120.701 0-218.545-31.223-218.545-151.897V292.533c0-120.71 97.844-193.885 218.544-193.885s218.55 73.175 218.55 193.885v134.601"/><path fill="#F9F7CA" d="M1306.635 299.566v51.147h167.962V135.799c-94.205 6.642-167.962 67.259-167.962 163.767m370.723 0c0-96.508-73.764-157.125-167.961-163.767v214.916h167.961v-51.149"/><path fill="#F29600" d="M1290.34 367.989v63.029c0 102.366 85.358 128.849 196.714 128.849V367.989H1290.34m206.593 0v191.878c111.36 0 196.702-26.482 196.702-128.849v-63.029h-196.702"/><path fill="#40210F" d="M1471.775 413.423c0 11.014-8.935 19.961-19.954 19.961s-19.936-8.948-19.936-19.961c0-11.014 8.916-19.948 19.936-19.948 11.02-.001 19.954 8.933 19.954 19.948zm80.333 0c0 11.014-8.922 19.961-19.954 19.961-11.002 0-19.942-8.948-19.942-19.961 0-11.014 8.94-19.948 19.942-19.948 11.032-.001 19.954 8.933 19.954 19.948z"/><path fill="#E95716" d="M1496.367 105.919c-48.308 0-107.41 10.73-143.029 40.336-38.239 31.758-60.25 75.683-65.346 124.799-2.315 22.407-4.931 50.388 1.152 72.283 3.506 12.653 8.323 17.536 13.475 17.536 2.454 0 4.971-1.104 7.474-2.995 2.329-1.781 4.651-4.24 6.866-7.164h-10.324v-51.147c0-96.508 73.757-157.125 167.962-163.767v27.516c11.375-2.721 22.965-3.885 34.8-4.941V135.8c18.403 1.296 36.023 4.657 52.459 9.934 7.723-6.75 9.868-16.29-.189-26.673-10.62-10.989-31.033-11.562-45.063-12.487-6.459-.44-13.22-.655-20.237-.655"/><path fill="#F4D094" d="M1474.597 135.799c-94.205 6.643-167.962 67.26-167.962 163.768v51.147h10.324c7.207-9.493 13.307-23.702 15.373-33.86 14.36-70.728 50.821-102.569 110.703-140.469 10.354-6.546 20.857-10.503 31.563-13.069l-.001-27.517m34.8 0v22.575c9.938-.881 20.043-1.676 30.337-3.255 8.614-1.332 16.729-4.683 22.122-9.386-16.436-5.276-34.057-8.638-52.459-9.934"/><path fill="#E95716" d="M1689.803 204.079c-7.906 54.153-.79 109.722-6.596 163.91h10.428v63.029c0 102.366-85.342 128.849-196.702 128.849v-30.735c-3.296.379-6.593.724-9.879.985v29.75c-99.2 0-177.745-21.018-193.726-97.945-5.524-4.635-11.139-9.208-16.955-13.664-.673-.51-1.33-1.021-2.008-1.508 10.207 104.506 103.739 132.282 217.631 132.282 120.699 0 218.549-31.223 218.549-151.897V292.534c0-33.279-7.43-62.946-20.742-88.455"/><path fill="#EE8000" d="M1293.328 461.922c15.98 76.928 94.525 97.945 193.726 97.945v-29.75a324.739 324.739 0 0 1-27.653 1.189c-33.132 0-64.334-5.217-88.798-15.446-30.357-12.677-52.98-33.622-77.275-53.938m400.307-93.933h-10.428c-1.655 15.434-4.343 30.749-8.731 45.873-19.919 68.72-99.075 106.203-177.543 115.27v30.735c111.36 0 196.702-26.482 196.702-128.849v-63.029"/><path fill="#468BCA" d="M1710.545 2106.094c0 120.698-97.85 151.909-218.549 151.909-120.701 0-218.545-31.211-218.545-151.909v-134.611c0-120.688 97.844-193.86 218.544-193.86s218.55 73.174 218.55 193.86v134.611"/><path fill="#A6D9E2" d="M1306.635 1978.514v51.147h167.962v-214.89c-94.205 6.63-167.962 67.26-167.962 163.743m370.723 0c0-96.483-73.764-157.113-167.961-163.741v214.891h167.961v-51.15"/><path fill="#1560AD" d="M1290.34 2046.964v63.004c0 102.366 85.358 128.86 196.726 128.86v-191.864H1290.34m206.593 0v191.864c111.36 0 196.713-26.493 196.713-128.86v-63.004h-196.713"/><path fill="#40210F" d="M1471.775 2092.395c0 11.001-8.935 19.937-19.954 19.937s-19.936-8.936-19.936-19.937c0-11.038 8.916-19.961 19.936-19.961s19.954 8.923 19.954 19.961zm80.333 0c0 11.001-8.922 19.937-19.941 19.937-11.015 0-19.955-8.936-19.955-19.937 0-11.038 8.94-19.961 19.955-19.961 11.019 0 19.941 8.923 19.941 19.961z"/><path fill="#57789C" d="M1496.386 1784.868c-48.325 0-107.429 10.738-143.048 40.358-38.239 31.746-60.235 75.683-65.346 124.811-2.315 22.384-4.931 50.377 1.152 72.272 3.518 12.642 8.335 17.537 13.475 17.537 2.454 0 4.971-1.106 7.474-3.008 2.329-1.781 4.651-4.241 6.879-7.177h-10.338v-51.147c0-96.483 73.757-157.113 167.962-163.741v27.503c11.375-2.721 22.965-3.873 34.8-4.931v-22.572c18.403 1.282 36.022 4.646 52.459 9.918 7.741-6.734 9.868-16.275-.188-26.661-10.621-10.989-31.034-11.582-45.064-12.509a305.067 305.067 0 0 0-20.217-.653"/><path fill="#ABB7A8" d="M1474.597 1814.773c-94.205 6.628-167.962 67.258-167.962 163.741v51.147h10.338c7.21-9.48 13.284-23.703 15.359-33.858 14.36-70.72 50.843-102.546 110.703-140.445 10.354-6.559 20.868-10.502 31.563-13.082l-.001-27.503m34.8 0v22.572c9.938-.88 20.043-1.688 30.337-3.256 8.627-1.329 16.729-4.681 22.122-9.398-16.436-5.271-34.057-8.636-52.459-9.918"/><path fill="#57789C" d="M1689.803 1883.052c-7.906 54.141-.79 109.72-6.596 163.91h10.438v63.004c0 102.367-85.353 128.861-196.713 128.861v-30.726c-3.296.381-6.593.7-9.867.983v29.74c-99.2 0-177.756-21.006-193.737-97.945-5.524-4.625-11.139-9.221-16.955-13.664-.672-.511-1.33-1.021-1.996-1.521C1284.572 2230.221 1378.106 2258 1491.996 2258c120.699 0 218.55-31.21 218.55-151.909v-134.61c0-33.266-7.431-62.922-20.743-88.429"/><path fill="#2E568A" d="M1293.328 2140.883c15.98 76.939 94.537 97.945 193.737 97.945v-29.739a329.627 329.627 0 0 1-27.665 1.178c-33.132 0-64.334-5.202-88.798-15.42-30.356-12.689-52.979-33.662-77.274-53.964m400.318-93.919h-10.438c-1.639 15.431-4.343 30.734-8.731 45.872-19.906 68.705-99.075 106.203-177.543 115.269v30.726c111.36 0 196.713-26.494 196.713-128.861v-63.006"/><path fill="#359239" d="M2320.148 1856.236c0 120.688-97.856 151.922-218.556 151.922-120.701 0-218.553-31.232-218.553-151.922v-134.599c0-120.698 97.852-193.873 218.553-193.873 120.697 0 218.556 73.175 218.556 193.873v134.599"/><path fill="#CAE3C0" d="M1916.231 1728.671v51.147h167.961v-214.915c-94.205 6.642-167.961 67.272-167.961 163.768m370.719 0c0-96.496-73.764-157.126-167.967-163.768v214.915h167.967v-51.147"/><path fill="#43AF3F" d="M1899.936 1797.105v63.017c0 102.364 85.357 128.85 196.72 128.85v-191.865l-196.72-.002m206.587 0v191.865c111.365 0 196.707-26.484 196.707-128.85v-63.017l-196.707.002"/><path fill="#40210F" d="M2081.368 1842.537c0 11.004-8.938 19.948-19.941 19.948-11.021 0-19.947-8.944-19.947-19.948 0-11.023 8.928-19.96 19.947-19.96 11.003 0 19.941 8.935 19.941 19.96zm80.347 0c0 11.004-8.93 19.948-19.954 19.948-11.021 0-19.949-8.944-19.949-19.948 0-11.023 8.93-19.96 19.949-19.96 11.024 0 19.954 8.935 19.954 19.96z"/><path fill="#457F38" d="M2105.975 1535.024c-48.313 0-107.422 10.738-143.039 40.349-38.239 31.756-60.237 75.668-65.348 124.796-2.321 22.406-4.93 50.377 1.153 72.281 3.517 12.642 8.326 17.526 13.483 17.526 2.436 0 4.961-1.092 7.455-2.995 2.335-1.781 4.672-4.252 6.886-7.163h-10.336v-51.147c0-96.496 73.756-157.126 167.961-163.768v27.528c11.376-2.733 22.967-3.898 34.793-4.931v-22.599c18.41 1.307 36.03 4.658 52.467 9.932 7.735-6.734 9.867-16.276-.194-26.659-10.616-10.979-31.027-11.571-45.066-12.498-6.431-.44-13.229-.652-20.215-.652"/><path fill="#CAC08E" d="M2084.192 1564.903c-94.205 6.642-167.961 67.271-167.961 163.767v51.148h10.336c7.206-9.492 13.295-23.703 15.355-33.874 14.365-70.715 50.826-102.558 110.703-140.456 10.352-6.549 20.873-10.503 31.565-13.057l.002-27.528m34.793 0v22.599c9.945-.894 20.063-1.697 30.357-3.279 8.611-1.329 16.716-4.669 22.108-9.389-16.435-5.273-34.055-8.625-52.465-9.931"/><path fill="#457F38" d="M2299.404 1633.194c-7.9 54.142-.796 109.721-6.604 163.911h10.432v63.017c0 102.364-85.342 128.85-196.707 128.85v-30.735c-3.283.384-6.573.717-9.867.997v29.738c-99.195 0-177.752-21.02-193.736-97.948-5.524-4.609-11.135-9.205-16.938-13.663-.666-.509-1.349-1.008-2.019-1.507 10.217 104.517 103.75 132.306 217.629 132.306 120.698 0 218.557-31.232 218.557-151.922v-134.599c-.003-33.294-7.442-62.934-20.747-88.445"/><path fill="#55983B" d="M1902.918 1891.022c15.984 76.93 94.541 97.948 193.736 97.948v-29.738a324.163 324.163 0 0 1-27.646 1.188c-33.141 0-64.354-5.228-88.799-15.445-30.369-12.678-52.995-33.635-77.291-53.953m400.312-93.917h-10.432c-1.64 15.433-4.337 30.735-8.722 45.886-19.912 68.692-99.086 106.19-177.555 115.244v30.735c111.365 0 196.707-26.484 196.707-128.85l.002-63.015"/><path fill="#E6398D" d="M1100.939 676.99c0 120.698-97.853 151.912-218.556 151.912-120.698 0-218.538-31.214-218.538-151.912V542.379c0-120.687 97.84-193.874 218.538-193.874 120.703 0 218.556 73.188 218.556 193.874V676.99"/><path fill="#FAE1EC" d="M697.023 549.411v51.16h167.965V385.656c-94.204 6.653-167.965 67.271-167.965 163.755m370.727 0c0-96.483-73.764-157.102-167.969-163.755v214.916h167.969v-51.161"/><path fill="#ED95BC" d="M680.734 617.859v63.016c0 102.354 85.36 128.849 196.726 128.849V617.859H680.734m206.586 0v191.864c111.36 0 196.708-26.494 196.708-128.849v-63.016H887.32"/><path fill="#40210F" d="M862.168 663.28c0 11.013-8.922 19.947-19.954 19.947-11.002 0-19.943-8.935-19.943-19.947 0-11.025 8.94-19.948 19.943-19.948 11.03 0 19.954 8.923 19.954 19.948zm80.35 0c0 11.013-8.939 19.947-19.959 19.947-11.014 0-19.954-8.935-19.954-19.947 0-11.025 8.94-19.948 19.954-19.948 11.019 0 19.959 8.923 19.959 19.948z"/><path fill="#E63273" d="M886.774 355.764c-48.321 0-107.422 10.74-143.047 40.347-38.239 31.757-60.231 75.684-65.339 124.811-2.318 22.408-4.933 50.376 1.151 72.283 3.518 12.643 8.334 17.524 13.479 17.524 2.446 0 4.965-1.104 7.465-2.994 2.328-1.782 4.664-4.24 6.868-7.164h-10.33v-51.16c0-96.483 73.762-157.102 167.965-163.755v27.517c11.389-2.72 22.966-3.886 34.793-4.932v-22.585c18.41 1.296 36.012 4.659 52.467 9.936 7.743-6.738 9.868-16.291-.188-26.663-10.621-10.989-31.033-11.584-45.064-12.51a313.565 313.565 0 0 0-20.22-.655"/><path fill="#F5BBAF" d="M864.989 385.656c-94.203 6.654-167.965 67.271-167.965 163.755v51.16h10.33c7.223-9.494 13.306-23.703 15.374-33.873 14.357-70.714 50.832-102.544 110.701-140.456 10.354-6.546 20.869-10.503 31.561-13.069l-.001-27.517m34.792 0v22.585c9.939-.879 20.063-1.686 30.357-3.266 8.613-1.331 16.715-4.682 22.109-9.386-16.454-5.275-34.055-8.637-52.466-9.933"/><path fill="#E63273" d="M1080.196 453.936c-7.912 54.142-.79 109.745-6.593 163.923h10.425v63.016c0 102.354-85.348 128.849-196.708 128.849v-30.735c-3.292.379-6.588.713-9.86.986v29.749c-99.194 0-177.758-21.005-193.738-97.945-5.523-4.621-11.139-9.221-16.943-13.665-.682-.498-1.341-1.009-2.024-1.521 10.212 104.518 103.756 132.309 217.63 132.309 120.703 0 218.556-31.214 218.556-151.912V542.38c-.002-33.268-7.433-62.923-20.745-88.444"/><path fill="#EA7D8F" d="M683.721 711.778c15.98 76.94 94.543 97.945 193.738 97.945v-29.749c-9.2.795-18.432 1.191-27.666 1.188-33.131 0-64.336-5.216-88.779-15.433-30.369-12.686-52.996-33.634-77.293-53.951m400.307-93.919h-10.425c-1.647 15.434-4.349 30.735-8.733 45.871-19.906 68.709-99.076 106.205-177.549 115.258v30.735c111.36 0 196.708-26.494 196.708-128.849l-.001-63.015"/><g><path fill="#F4C43A" d="M2562.924 1266.595c0 120.71-97.853 151.922-218.54 151.922-120.71 0-218.556-31.212-218.556-151.922v-134.588c0-120.697 97.846-193.873 218.556-193.873 120.688 0 218.54 73.176 218.54 193.873v134.588"/><path fill="#F9F7CA" d="M2159.014 1139.041v51.148h167.965V975.273c-94.202 6.643-167.965 67.272-167.965 163.768m370.726 0c0-96.496-73.77-157.125-167.962-163.768v214.916h167.962v-51.148"/><path fill="#F19317" d="M2142.722 1207.476v63.005c0 102.368 85.36 128.848 196.721 128.848v-191.853h-196.721m206.581 0v191.853c111.372 0 196.704-26.479 196.704-128.848v-63.005h-196.704"/><path fill="#40210F" d="M2324.164 1252.897c0 11.012-8.948 19.959-19.961 19.959-11.025 0-19.938-8.947-19.938-19.959 0-11.015 8.911-19.962 19.938-19.962 11.013 0 19.961 8.949 19.961 19.962zm80.326 0c0 11.012-8.923 19.959-19.947 19.959-11.025 0-19.948-8.947-19.948-19.959 0-11.015 8.923-19.962 19.948-19.962s19.947 8.949 19.947 19.962z"/><path fill="#EFA62B" d="M2348.756 945.393c-48.329 0-107.413 10.727-143.039 40.323-38.238 31.783-60.231 75.695-65.34 124.822-2.324 22.396-4.937 50.377 1.15 72.272 3.518 12.642 8.33 17.535 13.468 17.535 2.448 0 4.979-1.092 7.475-2.994 2.347-1.781 4.669-4.241 6.884-7.164h-10.34v-51.147c0-96.497 73.763-157.126 167.965-163.769v27.529c11.371-2.733 22.967-3.91 34.8-4.943v-22.586c18.395 1.296 36.022 4.647 52.455 9.935 7.735-6.75 9.874-16.29-.189-26.674-10.634-10.979-31.021-11.56-45.063-12.5a308.9 308.9 0 0 0-20.226-.639"/><path fill="#F4D094" d="M2326.979 975.273c-94.202 6.643-167.965 67.271-167.965 163.768v51.148h10.34c7.208-9.504 13.278-23.715 15.357-33.873 14.356-70.715 50.825-102.558 110.7-140.457 10.359-6.546 20.875-10.503 31.566-13.058l.002-27.528m34.8 0v22.586c9.935-.879 20.056-1.674 30.343-3.266 8.616-1.344 16.729-4.67 22.112-9.387-16.433-5.285-34.062-8.637-52.455-9.933"/><path fill="#EFA62B" d="M2542.18 1043.543c-7.913 54.164-.785 109.744-6.606 163.934h10.435v63.005c0 102.368-85.332 128.848-196.704 128.848v-30.723c-3.277.379-6.582.713-9.86.999v29.725c-99.191 0-177.752-21.005-193.737-97.944-5.524-4.61-11.133-9.197-16.959-13.663-.661-.5-1.325-1.012-1.983-1.511 10.199 104.518 103.727 132.308 217.622 132.308 120.688 0 218.54-31.212 218.54-151.922V1132.01c-.004-33.281-7.43-62.936-20.748-88.467"/><path fill="#EE7E11" d="M2145.705 1301.385c15.984 76.939 94.545 97.944 193.736 97.944v-29.725a330.339 330.339 0 0 1-27.658 1.187c-33.136 0-64.349-5.227-88.799-15.457-30.354-12.664-52.982-33.634-77.279-53.949m400.302-93.909h-10.435c-1.628 15.421-4.336 30.736-8.72 45.872-19.924 68.696-99.075 106.204-177.551 115.258v30.723c111.372 0 196.704-26.479 196.704-128.848l.002-63.005"/><path fill="#936525" d="M858.164 1266.595c0 120.71-97.847 151.922-218.545 151.922s-218.551-31.212-218.551-151.922v-134.588c0-120.697 97.853-193.873 218.551-193.873s218.545 73.176 218.545 193.873v134.588"/><path fill="#F9F7CA" d="M454.258 1139.041v51.148h167.961V975.273c-94.199 6.643-167.961 67.272-167.961 163.768m370.716 0c0-96.496-73.757-157.125-167.956-163.768v214.916h167.956v-51.148"/><path fill="#633319" d="M437.969 1207.476v63.005c0 102.368 85.353 128.848 196.714 128.848v-191.853H437.969m206.581 0v191.853c111.364 0 196.702-26.479 196.702-128.848v-63.005H644.55"/><path fill="#40210F" d="M619.397 1252.897c0 11.012-8.939 19.959-19.953 19.959-11.002 0-19.936-8.947-19.936-19.959 0-11.015 8.934-19.962 19.936-19.962 11.013 0 19.953 8.949 19.953 19.962zm80.344 0c0 11.012-8.933 19.959-19.948 19.959-11.024 0-19.952-8.947-19.952-19.959 0-11.015 8.927-19.962 19.952-19.962 11.016 0 19.948 8.949 19.948 19.962z"/><path fill="#935826" d="M644.002 945.393c-48.313 0-107.416 10.727-143.041 40.323-38.244 31.783-60.235 75.695-65.344 124.822-2.324 22.396-4.937 50.377 1.146 72.272 3.516 12.642 8.333 17.535 13.49 17.535 2.436 0 4.966-1.092 7.461-2.981 2.335-1.794 4.669-4.253 6.879-7.176h-10.336v-51.147c0-96.497 73.762-157.126 167.961-163.769v27.529c11.388-2.733 22.965-3.91 34.799-4.943v-22.586c18.398 1.296 36.023 4.647 52.461 9.935 7.741-6.75 9.867-16.29-.197-26.673-10.615-10.979-31.031-11.561-45.058-12.5-6.439-.426-13.215-.641-20.221-.641"/><path fill="#F4D094" d="M622.219 975.273c-94.199 6.643-167.961 67.271-167.961 163.768v51.148h10.336c7.207-9.504 13.289-23.703 15.361-33.873 14.354-70.715 50.84-102.546 110.695-140.457 10.355-6.546 20.875-10.503 31.568-13.058v-27.528m34.8 0v22.586c9.939-.879 20.049-1.674 30.351-3.266 8.608-1.344 16.722-4.67 22.111-9.387-16.439-5.285-34.064-8.637-52.462-9.933"/><path fill="#935826" d="M837.432 1043.543c-7.906 54.164-.802 109.744-6.607 163.934h10.428v63.005c0 102.368-85.336 128.848-196.702 128.848v-30.723c-3.284.381-6.573.71-9.867.986v29.736c-99.194 0-177.751-21.005-193.737-97.944-5.52-4.61-11.133-9.197-16.937-13.653-.669-.511-1.34-1.018-2.015-1.521 10.207 104.518 103.752 132.308 217.625 132.308 120.698 0 218.545-31.212 218.545-151.922v-134.588c-.001-33.28-7.426-62.935-20.733-88.466"/><path fill="#632D19" d="M440.946 1301.385c15.985 76.939 94.542 97.944 193.737 97.944v-29.736a324.607 324.607 0 0 1-27.647 1.198c-33.146 0-64.353-5.214-88.799-15.432-30.362-12.689-52.996-33.659-77.291-53.974m400.304-93.909h-10.427c-1.638 15.421-4.34 30.736-8.726 45.872-19.923 68.696-99.074 106.204-177.549 115.258v30.723c111.364 0 196.701-26.479 196.701-128.848v-63.005"/></g><g><path fill="#036EB7" d="M1627.682 1178.343c0 75.375-61.121 136.501-136.499 136.501-75.397 0-136.525-61.126-136.525-136.501 0-75.418 61.128-136.523 136.525-136.523 75.378-.001 136.499 61.105 136.499 136.523z"/><path fill="#69C1ED" d="M1491.183 1352.661c-96.125 0-174.337-78.2-174.337-174.318 0-96.128 78.212-174.34 174.337-174.34 96.116 0 174.312 78.212 174.312 174.34-.001 96.118-78.195 174.318-174.312 174.318zm0-273.026c-54.433 0-98.713 44.28-98.713 98.707 0 54.429 44.28 98.696 98.713 98.696 54.422 0 98.688-44.268 98.688-98.696 0-54.424-44.266-98.707-98.688-98.707z"/></g><g><path fill="#036EB7" d="M1628.502 1178.343c0 75.375-61.114 136.501-136.5 136.501-75.396 0-136.523-61.126-136.523-136.501 0-75.418 61.127-136.523 136.523-136.523 75.386-.001 136.5 61.105 136.5 136.523z"/><path fill="#69C1ED" d="M1492.002 1352.661c-96.129 0-174.336-78.2-174.336-174.318 0-96.128 78.207-174.34 174.336-174.34 96.117 0 174.311 78.212 174.311 174.34 0 96.118-78.194 174.318-174.311 174.318zm0-273.026c-54.434 0-98.713 44.28-98.713 98.707 0 54.429 44.279 98.696 98.713 98.696 54.422 0 98.689-44.268 98.689-98.696.002-54.424-44.267-98.707-98.689-98.707z"/></g><linearGradient id="SVGID_3_" x1="3561.801" x2="3596.013" y1="-1815.668" y2="-1815.668" gradientTransform="scale(-1 1) rotate(38.023 -3956.927 -6428.722)" gradientUnits="userSpaceOnUse"><stop offset=".006" stop-color="#f79855"/><stop offset="1" stop-color="#fff100"/></linearGradient><path fill="url(#SVGID_3_)" d="M856.422 1838.719c7.513 1.302 17.955.94 23.309 3.422-4.822-1.143-7.22 1.229-10.927 1.805 1.555 3.079.794 6.447 3.114 9.645-3.215-.568-6.974 1.255-11.463-.967.12 2.313-2.16 7.459-2.056 9.537-.364-.066-4.593-3.037-5.114-3.393-.399.601.057 3.237-1.216 3.541-.497-6.84-1.356-13.354-1.462-20.248 2.542-.011 4.762-1.757 6.833-2.044"/><path fill="#1C3F94" d="M850.434 1700.506c37.32 46.017 37.717 107.518.918 137.367-36.814 29.846-96.898 16.743-134.223-29.266-37.317-46.017-37.717-107.52-.917-137.37 36.805-29.847 96.897-16.743 134.222 29.269z"/><path fill="#FFF" d="M861.598 1853.757c3.743 4.981 11.579 10.241 16.306 18.308 4.688 8.004.539 18.326 7.825 26.154 5.383 5.775 16.421 4.648 21.561 10.763 4.47 5.281 5.402 18.575 9.101 24.979 11.349 19.756 33.683 26.841 47.646 45.534 7.719 10.339 6.864 19.896 12.521 29.554 4.308 7.371 12.771 11.184 18.498 18.656 2.648-1.458 5.033-3.923 6.719-6.358-19.382 2.092-25.127-31.366-33.693-43.415-13.562-19.077-36.416-23.491-46.375-43.39-4.485-8.941-1.571-17.793-8.778-25.441-6.276-6.651-17.206-5.909-23.382-13.777-11.093-14.135-5.42-35.564-26.603-42.538-.211 1.699-2.079 4.931-1.463 3.855"/><linearGradient id="SVGID_4_" x1="3739.757" x2="3773.983" y1="-1803.507" y2="-1803.507" gradientTransform="scale(-1 1) rotate(38.023 -3956.927 -6428.722)" gradientUnits="userSpaceOnUse"><stop offset=".006" stop-color="#f79855"/><stop offset="1" stop-color="#fff100"/></linearGradient><path fill="url(#SVGID_4_)" d="M723.719 1957.918c7.509 1.312 17.963.938 23.31 3.424-4.823-1.145-7.21 1.224-10.942 1.814 1.57 3.066.791 6.438 3.138 9.635-3.229-.574-6.978 1.243-11.478-.964.131 2.298-2.151 7.452-2.063 9.546-.356-.084-4.586-3.057-5.086-3.418-.422.609.027 3.252-1.239 3.566-.494-6.848-1.337-13.38-1.45-20.27 2.522.007 4.749-1.752 6.827-2.038"/><g><path fill="#FFF" d="M717.717 1819.719c37.331 45.993 37.733 107.508.925 137.361-36.817 29.854-96.909 16.748-134.219-29.271-37.324-46.01-37.727-107.521-.915-137.367 36.803-29.844 96.908-16.761 134.209 29.277zm11.177 153.227c3.737 4.999 11.573 10.259 16.295 18.313 4.688 8.005.539 18.334 7.837 26.158 5.375 5.781 16.421 4.648 21.559 10.754 4.468 5.289 5.404 18.584 9.09 25.001 11.355 19.729 33.695 26.827 47.652 45.528 7.707 10.343 6.864 19.895 12.514 29.549 4.322 7.369 12.765 11.199 18.5 18.649 2.66-1.464 5.047-3.92 6.715-6.336-19.377 2.066-25.11-31.387-33.688-43.446-13.552-19.073-36.422-23.468-46.369-43.379-4.484-8.94-1.563-17.799-8.789-25.43-6.271-6.646-17.207-5.909-23.387-13.777-11.08-14.147-5.411-35.563-26.594-42.545-.205 1.692-2.064 4.918-1.441 3.848"/></g><linearGradient id="SVGID_5_" x1="3890.658" x2="3924.863" y1="-1694.649" y2="-1694.649" gradientTransform="scale(-1 1) rotate(38.023 -3956.927 -6428.722)" gradientUnits="userSpaceOnUse"><stop offset=".006" stop-color="#f79855"/><stop offset="1" stop-color="#fff100"/></linearGradient><path fill="url(#SVGID_5_)" d="M671.91 2136.635c7.515 1.302 17.967.93 23.299 3.427-4.819-1.142-7.222 1.219-10.932 1.803 1.563 3.064.797 6.44 3.141 9.627-3.235-.561-6.987 1.259-11.474-.962.125 2.313-2.167 7.465-2.065 9.553-.358-.074-4.594-3.05-5.098-3.401-.416.594.037 3.229-1.229 3.543-.498-6.851-1.346-13.365-1.46-20.265 2.532.012 4.76-1.748 6.833-2.035"/><path fill="#C13665" d="M665.911 1998.427c37.328 46.001 37.727 107.512.919 137.357-36.808 29.85-96.901 16.751-134.217-29.271-37.315-46.018-37.728-107.517-.926-137.363 36.835-29.864 96.919-16.756 134.224 29.277z"/><path fill="#FFF" d="M677.084 2151.66c3.742 4.993 11.571 10.258 16.31 18.313 4.674 7.998.524 18.337 7.826 26.162 5.379 5.783 16.421 4.649 21.56 10.764 4.465 5.271 5.396 18.59 9.08 24.997 11.358 19.729 33.692 26.815 47.665 45.517 7.717 10.338 6.871 19.89 12.511 29.55 4.313 7.382 12.771 11.189 18.515 18.646 2.646-1.451 5.029-3.916 6.704-6.339-19.394 2.086-25.115-31.372-33.685-43.429-13.56-19.077-36.426-23.479-46.385-43.385-4.468-8.963-1.579-17.787-8.779-25.443-6.27-6.647-17.206-5.899-23.375-13.774-11.094-14.136-5.415-35.573-26.594-42.543-.219 1.705-2.089 4.935-1.478 3.866"/><g><linearGradient id="SVGID_6_" x1="3632.255" x2="3666.49" y1="-1619.716" y2="-1619.716" gradientTransform="scale(-1 1) rotate(38.023 -3956.927 -6428.722)" gradientUnits="userSpaceOnUse"><stop offset=".006" stop-color="#f79855"/><stop offset="1" stop-color="#fff100"/></linearGradient><path fill="url(#SVGID_6_)" d="M921.619 2036.509c7.512 1.302 17.965.929 23.318 3.407-4.824-1.143-7.222 1.22-10.938 1.817 1.557 3.069.797 6.431 3.121 9.627-3.226-.563-6.981 1.271-11.468-.95.12 2.304-2.153 7.453-2.063 9.535-.363-.065-4.591-3.038-5.099-3.395-.398.593.045 3.232-1.231 3.552-.49-6.864-1.333-13.378-1.459-20.265 2.539-.015 4.757-1.751 6.843-2.049"/><path fill="#C13665" d="M915.638 1898.287c37.307 46.021 37.703 107.521.912 137.376-36.813 29.837-96.912 16.746-134.225-29.266-37.313-46.022-37.721-107.53-.915-137.368 36.812-29.852 96.9-16.753 134.228 29.258z"/><path fill="#FFF" d="M926.801 2051.53c3.731 4.987 11.588 10.246 16.302 18.309 4.671 7.996.524 18.336 7.831 26.164 5.376 5.782 16.406 4.651 21.561 10.764 4.456 5.274 5.396 18.581 9.086 24.99 11.357 19.73 33.687 26.832 47.648 45.526 7.729 10.334 6.865 19.896 12.516 29.541 4.32 7.386 12.784 11.189 18.506 18.651 2.656-1.455 5.027-3.907 6.711-6.335-19.385 2.08-25.118-31.373-33.681-43.436-13.571-19.074-36.419-23.484-46.381-43.385-4.485-8.941-1.573-17.785-8.771-25.431-6.281-6.662-17.217-5.915-23.392-13.791-11.098-14.128-5.422-35.55-26.604-42.53-.216 1.698-2.071 4.936-1.45 3.846"/></g><g><linearGradient id="SVGID_7_" x1="3760.724" x2="3794.951" y1="-1561.912" y2="-1561.912" gradientTransform="scale(-1 1) rotate(38.023 -3956.927 -6428.722)" gradientUnits="userSpaceOnUse"><stop offset=".006" stop-color="#f79855"/><stop offset="1" stop-color="#fff100"/></linearGradient><path fill="url(#SVGID_7_)" d="M856.029 2161.177c7.517 1.305 17.962.938 23.31 3.414-4.834-1.119-7.219 1.229-10.955 1.837 1.574 3.043.804 6.425 3.139 9.606-3.206-.563-6.964 1.26-11.471-.941.13 2.289-2.146 7.438-2.068 9.543-.341-.096-4.566-3.065-5.075-3.422-.418.609.026 3.254-1.239 3.559-.502-6.852-1.332-13.379-1.457-20.271 2.525.019 4.769-1.756 6.834-2.034"/><path fill="#F58921" d="M850.014 2022.981c37.332 46.003 37.757 107.49.925 137.354-36.798 29.858-96.905 16.76-134.204-29.269-37.325-46.009-37.729-107.514-.922-137.37 36.81-29.844 96.906-16.748 134.201 29.285z"/><path fill="#FFF" d="M861.198 2176.207c3.743 4.991 11.568 10.246 16.303 18.314 4.688 7.996.524 18.338 7.832 26.165 5.381 5.769 16.427 4.636 21.568 10.75 4.451 5.281 5.387 18.585 9.065 25 11.368 19.736 33.711 26.815 47.668 45.524 7.708 10.344 6.855 19.893 12.504 29.547 4.327 7.379 12.776 11.193 18.506 18.65 2.668-1.46 5.046-3.919 6.724-6.35-19.371 2.076-25.128-31.367-33.688-43.421-13.564-19.079-36.424-23.495-46.387-43.386-4.471-8.955-1.563-17.8-8.784-25.444-6.271-6.642-17.206-5.901-23.368-13.771-11.1-14.146-5.419-35.564-26.607-42.53-.217 1.688-2.063 4.906-1.453 3.842"/></g><g><linearGradient id="SVGID_8_" x1="4244.774" x2="4278.991" y1="-919.374" y2="-919.374" gradientTransform="matrix(-.9057 .4242 .4242 .9057 5264.705 1204.395)" gradientUnits="userSpaceOnUse"><stop offset=".006" stop-color="#f79855"/><stop offset="1" stop-color="#fff100"/></linearGradient><path fill="url(#SVGID_8_)" d="M1011.274 2170.011c7.039 2.94 17.298 4.933 21.955 8.55-4.438-2.198-7.313-.424-11.055-.688.82 3.354-.665 6.451.876 10.102-3-1.277-7.08-.331-10.941-3.521-.413 2.285-3.768 6.787-4.146 8.848-.332-.153-3.786-4.004-4.229-4.447-.517.485-.671 3.173-1.983 3.179 1.058-6.795 1.683-13.327 3.114-20.075 2.476.563 5.03-.648 7.119-.452"/><path fill="#FFF" d="M1036.365 2033.944c26.074 53.208 12.701 113.246-29.843 134.103-42.559 20.867-98.189-5.348-124.27-58.541-26.078-53.199-12.728-113.222 29.823-134.092 42.571-20.862 98.206 5.346 124.29 58.53zm-23.408 151.874c2.539 5.703 8.988 12.575 11.807 21.494 2.761 8.841-3.587 17.99 1.762 27.255 3.968 6.817 14.96 8.2 18.625 15.302 3.155 6.149 1.095 19.322 3.266 26.385 6.645 21.789 26.826 33.69 36.256 55.033 5.218 11.816 2.239 20.926 5.603 31.604 2.546 8.153 9.937 13.769 13.843 22.333 2.936-.851 5.797-2.693 7.984-4.704-19.378-2.289-17.482-36.184-23.125-49.865-8.964-21.616-30.237-31.031-35.507-52.646-2.368-9.725 2.444-17.694-2.854-26.767-4.656-7.865-15.453-9.613-19.719-18.647-7.655-16.271 2.666-35.879-16.405-47.433-.597 1.621-3.138 4.353-2.288 3.452"/></g><g><linearGradient id="SVGID_9_" x1="4387.69" x2="4421.909" y1="-765.731" y2="-765.731" gradientTransform="matrix(-.9057 .4242 .4242 .9057 5264.705 1204.395)" gradientUnits="userSpaceOnUse"><stop offset=".006" stop-color="#f79855"/><stop offset="1" stop-color="#fff100"/></linearGradient><path fill="url(#SVGID_9_)" d="M947.008 2369.81c7.045 2.936 17.294 4.923 21.969 8.538-4.439-2.199-7.318-.435-11.064-.687.83 3.351-.662 6.455.885 10.088-3-1.275-7.088-.316-10.956-3.5-.402 2.271-3.771 6.776-4.136 8.822-.345-.132-3.797-3.979-4.23-4.432-.512.48-.67 3.157-1.979 3.184 1.056-6.798 1.676-13.321 3.108-20.09 2.471.588 5.022-.625 7.11-.445"/><path fill="#FFF100" d="M972.099 2233.752c26.069 53.198 12.707 113.224-29.837 134.077-42.555 20.87-98.201-5.342-124.281-58.534-26.066-53.195-12.729-113.223 29.836-134.097 42.558-20.857 98.194 5.357 124.282 58.554z"/><path fill="#FFF" d="M948.698 2385.612c2.533 5.699 9.002 12.57 11.793 21.496 2.775 8.829-3.583 17.992 1.781 27.253 3.953 6.83 14.962 8.193 18.617 15.299 3.162 6.154 1.095 19.323 3.261 26.387 6.656 21.793 26.827 33.681 36.265 55.033 5.207 11.813 2.235 20.928 5.59 31.602 2.552 8.164 9.943 13.771 13.86 22.331 2.927-.844 5.778-2.69 7.958-4.696-19.354-2.308-17.465-36.199-23.109-49.867-8.963-21.616-30.232-31.028-35.5-52.651-2.364-9.729 2.438-17.688-2.854-26.765-4.648-7.88-15.468-9.609-19.726-18.65-7.646-16.266 2.665-35.871-16.408-47.416-.597 1.612-3.134 4.344-2.289 3.436"/></g><path fill="#369FBF" d="M1917.713 1891.341s.271-5.85-5.322-11.97c-9.846-41.456-32.466-60.063-73.143-67.746-17.267-6.653-34.836-7.451-47.041 3.734-5.866-.264-11.943 5.329-12.218 11.17-5.873-.255-6.145 5.61-6.407 11.435-.246 5.822-.525 11.688-6.35 11.436-.799 17.553-1.589 35.091-8.21 52.381-11.171-12.208-16.797-18.344-28.188-24.711-5.823-.255-11.736-.524-17.527-.79-11.729-.534-23.962 10.662-30.368 22.078-6.358 11.434-12.438 17.01-24.405 22.333-5.313-11.951-10.906-18.089-22.037-30.286l-5.616-6.097c-17.817 5.06-35.863 15.927-48.394 32.978.256-5.863.535-11.729-5.033-17.85.246-5.809-10.678-23.879-15.989-35.872-5.578-6.07-11.162-12.175-17.027-12.471-11.426-6.399-23.104-6.909-29.209-1.315-6.151 5.596-6.407 11.426-12.239 11.153-.287 5.883-6.365 11.459-6.365 11.459-6.12 5.593-11.944 5.329-17.801 5.058-11.468-6.373-28.699-13.013-39.929-25.233-16.706-18.354-40.125-19.421-57.958-14.348-6.109 5.604-12.174 11.203-12.174 11.203-18.138 10.894-24.75 28.165-31.107 39.582l-5.842-.263s-11.466-6.35-11.211-12.19c-11.408-6.384-16.986-12.484-28.648-13.036-5.898-.246-11.738-.521-12.035 5.34-5.814-.248-11.92 5.328-17.801 5.058-12.197 11.137-18.838 28.452-19.635 45.981l-5.855-.266-5.84-.247c-5.604-6.136-11.441-6.391-11.441-6.391-22.885-12.742-40.389-13.54-58.484-2.615-6.087 5.567-12.189 11.169-18.063 10.905-17.8 5.085-24.167 16.478-30.847 33.759-.246 5.856-.511 11.706-6.366 11.442-12.988 28.715-14.041 52.093 2.411 76.324-28.946-7.188-52.866 3.438-65.875 32.162-18.6 22.619-25.496 45.768-27.063 80.873-.278 5.824-.278 5.824-6.137 5.555-11.98 5.306-29.743 10.363-42.021 21.574-18.28 16.717-30.838 33.719-32.125 62.959-1.069 23.428-1.862 40.966 3.218 58.779l7.233 99.959 1179.604 94.133 181.763-132.498 17.02 12.496-16.237-30.017c11.979-5.329 23.903-10.676 30.031-16.236.264-5.873.264-5.873 6.366-11.435 5.856.247 6.137-5.576 6.392-11.458.266-5.8.266-5.8-11.162-12.216-11.695-.492-17.01-12.472-10.65-23.879.271-5.873 6.079-5.603 6.352-11.477 11.978-5.321 18.111-10.89 7.188-28.985l.264-5.842c-5.609-6.104-11.171-12.207-22.58-18.59l-5.896-.265c-11.42-6.384-28.955-7.181-34.827-7.436 23.672-4.788 30.313-22.063 31.34-45.456-5.587-6.103-5.313-11.968-11.131-12.239-11.188-12.229-28.181-24.727-45.248-37.181-5.569-6.151-11.417-6.406-22.859-12.731 0 0-5.841-.271-11.426-6.392l-5.84-.255-6.121 5.584c-5.806-.255-6.077 5.536-6.341 11.417.534-11.672.806-17.545 12.461-17.001 5.841.255 6.104-5.602 6.375-11.482 5.855.271 6.121-5.576.534-11.682-5.33-11.969-16.739-18.316-28.229-24.71a225356.81 225356.81 0 0 0-75.979-3.413c-11.736-.525-17.554-.797-29.498 4.518l6.088-5.576c6.096-5.563 6.385-11.419 6.612-17.275-5.018-17.813-15.938-35.887-33.222-42.543.246-5.791-5.578-6.063-11.188-12.188.279-5.866-11.441-6.394-28.996-7.173-11.941 5.319-17.527-.808-17.266-6.646 7.164-28.985 2.113-46.788-26.595-59.8-5.856-.255-11.681-.521-17.562-.79-23.369-1.035-35.33 4.276-47.554 15.456.253-5.865.253-5.865.501-11.71z"/><g><path fill="#CC6D4C" d="M2035.873 2414.26l.213-.515-4.09-1.726 94.58-57.271-22.869-48.682-32.844-69.897-34.949-74.38-34.479-73.405-36.821-78.376-22.459-47.789-97.646 59.128 45.709 97.295 36.84 78.394 34.48 73.385 34.945 74.405 30.592 65.126-402.289-169.435-132.539 314.714 411.301 173.223 131.429-312.074 1.087-2.037-.191-.083z"/><path fill="#FFF" d="M1942.797 2000.825l-74.393 108.638 36.842 78.386 74.381-108.645-36.83-78.379z"/><path fill="#E25DA9" d="M1920.349 1953.037l-97.653 59.127 45.71 97.299 74.392-108.638-22.449-47.788zm59.278 126.168l-74.381 108.644 34.476 73.389 74.388-108.635-34.483-73.398zm69.429 147.777l-74.39 108.654 32.447 69.052 1.635-.978 73.133-106.828-32.825-69.9z"/><path fill="#FFF" d="M2014.11 2152.601l-74.388 108.635 34.944 74.4 74.39-108.654-34.946-74.381zm67.772 144.283l-73.134 106.827 96.021-58.148-22.887-48.679z"/><path fill="#E5A8C4" d="M1881.738 2719.265l-411.305-173.217 132.545-314.713 411.296 173.225-132.536 314.705z"/><path d="M1756.221 2303.188l2.262-1.644-81.916-33.184-2.262 1.645 81.916 33.183zm163.838 66.365l2.263-1.646-81.92-33.181-2.257 1.648 81.914 33.179z"/><path d="M2001.965 2402.743l2.273-1.648-81.918-33.187-2.263 1.646 81.908 33.189zm-325.398-134.381l-66.702-27.022-1.125 2.109 65.565 26.558 2.262-1.645zm161.578 68.015l2.257-1.648-81.919-33.184-2.262 1.645 81.924 33.187zm166.095 64.717l-2.274 1.648 11.171 4.513 1.114-2.105-10.011-4.056z"/><path fill="#EA63B0" d="M1840.854 2427.094l81.91 33.188 79.202-57.539-81.907-33.188-79.205 57.539zm-166.549-157.087l-65.565-26.559-39.069 73.792 25.447 10.295 79.187-57.528zm84.633 123.902l79.207-57.532-81.924-33.188-79.206 57.527 81.923 33.193z"/><path fill="#FFF" d="M1840.854 2427.094l79.205-57.54-81.914-33.178-79.207 57.532 81.916 33.186zm-84.633-123.906l-81.916-33.183-79.188 57.528 81.898 33.181 79.206-57.526zm166.543 157.094l51.284 20.769 39.087-73.793-11.169-4.514-79.202 57.538z"/><path fill="#E0134F" d="M1595.115 2327.535l-25.445-10.295-3.362 6.321 22.018 8.916 6.789-4.942zm320.873 137.684l54.71 22.157 3.35-6.327-51.282-20.769-6.778 4.939zm-238.973-104.502l-6.769 4.94 81.896 33.188 6.794-4.936-81.921-33.192z"/><path fill="#E0134F" d="M1834.082 2432.022l81.904 33.197 6.776-4.938-81.91-33.188-6.77 4.929zm-238.967-104.487l-6.791 4.942 81.922 33.18 6.769-4.942-81.9-33.18z"/><path fill="#E0134F" d="M1758.938 2393.909l-6.794 4.936 81.938 33.179 6.771-4.929-81.915-33.186z"/></g><g><path fill="#C957AE" d="M1130.328 2725.199c-141.775 0-256.722-114.927-256.722-256.721 0-141.782 114.945-256.721 256.722-256.721 141.806 0 256.727 114.938 256.727 256.721-.001 141.794-114.922 256.721-256.727 256.721z"/><path fill="#FFF" d="M1130.328 2673.869c-113.431 0-205.381-91.956-205.381-205.391 0-113.424 91.95-205.379 205.381-205.379 113.43 0 205.385 91.956 205.385 205.379 0 113.436-91.955 205.391-205.385 205.391z"/><path fill="#C957AE" d="M1130.328 2632.781c-90.729 0-164.299-73.564-164.299-164.303 0-90.748 73.567-164.291 164.299-164.291 90.748 0 164.303 73.543 164.303 164.291 0 90.739-73.557 164.303-164.303 164.303z"/><path fill="#FFF" d="M1130.328 2599.911c-72.598 0-131.438-58.837-131.438-131.433 0-72.584 58.843-131.445 131.438-131.445 72.612 0 131.457 58.861 131.457 131.445 0 72.596-58.843 131.433-131.457 131.433z"/><path fill="#C957AE" d="M1130.328 2573.625c-58.08 0-105.143-47.065-105.143-105.146 0-58.067 47.063-105.158 105.143-105.158 58.084 0 105.162 47.091 105.162 105.158 0 58.078-47.078 105.146-105.162 105.146z"/><path fill="#FFF" d="M1130.328 2552.607c-46.457 0-84.131-37.678-84.131-84.129 0-46.464 37.674-84.117 84.131-84.117 46.463 0 84.142 37.653 84.142 84.117-.001 46.451-37.679 84.129-84.142 84.129z"/><path fill="#C957AE" d="M1130.328 2527.363c-32.511 0-58.892-26.37-58.892-58.885s26.381-58.885 58.892-58.885c32.515 0 58.896 26.37 58.896 58.885s-26.381 58.885-58.896 58.885z"/></g><g><path fill="#E0A061" d="M1405.802 2791.002c-116.788 0-211.468-94.668-211.468-211.467 0-116.787 94.68-211.464 211.468-211.464 116.794 0 211.462 94.677 211.462 211.464 0 116.799-94.668 211.467-211.462 211.467z"/><path fill="#FFF" d="M1405.802 2748.716c-93.437 0-169.175-75.739-169.175-169.181 0-93.434 75.739-169.173 169.175-169.173 93.426 0 169.175 75.739 169.175 169.173 0 93.439-75.749 169.181-169.175 169.181z"/><path fill="#E0A061" d="M1405.802 2714.875c-74.748 0-135.339-60.586-135.339-135.34 0-74.742 60.591-135.334 135.339-135.334 74.745 0 135.332 60.592 135.332 135.334 0 74.754-60.587 135.34-135.332 135.34z"/><path fill="#FFF" d="M1405.802 2687.809c-59.798 0-108.271-48.474-108.271-108.274 0-59.791 48.476-108.264 108.271-108.264 59.803 0 108.271 48.473 108.271 108.264 0 59.803-48.468 108.274-108.271 108.274z"/><path fill="#E0A061" d="M1405.802 2666.155c-47.843 0-86.618-38.773-86.618-86.62 0-47.834 38.775-86.608 86.618-86.608 47.841 0 86.62 38.774 86.62 86.608 0 47.847-38.779 86.62-86.62 86.62z"/><path fill="#FFF" d="M1405.802 2648.834c-38.273 0-69.296-31.024-69.296-69.299 0-38.268 31.021-69.287 69.296-69.287 38.265 0 69.304 31.021 69.304 69.287 0 38.272-31.039 69.299-69.304 69.299z"/><path fill="#E0A061" d="M1405.802 2628.049c-26.79 0-48.509-21.721-48.509-48.514 0-26.779 21.719-48.5 48.509-48.5 26.788 0 48.502 21.721 48.502 48.5 0 26.793-21.714 48.514-48.502 48.514z"/></g><g><path fill="#00AEEF" d="M2114.196 2587.744c-78.195 0-141.588-63.386-141.588-141.588 0-78.197 63.393-141.589 141.588-141.589 78.203 0 141.588 63.392 141.588 141.589-.003 78.202-63.385 141.588-141.588 141.588z"/><path fill="#FFF" d="M2114.196 2559.434c-62.563 0-113.271-50.716-113.271-113.278 0-62.557 50.708-113.271 113.271-113.271 62.557 0 113.271 50.716 113.271 113.271 0 62.563-50.715 113.278-113.271 113.278z"/><path fill="#00AEEF" d="M2114.196 2536.773c-50.044 0-90.617-40.573-90.617-90.617 0-50.051 40.573-90.611 90.617-90.611s90.617 40.563 90.617 90.611c0 50.044-40.573 90.617-90.617 90.617z"/><path fill="#FFF" d="M2114.196 2518.645c-40.045 0-72.496-32.451-72.496-72.489 0-40.031 32.451-72.496 72.496-72.496s72.496 32.465 72.496 72.496c0 40.038-32.452 72.489-72.496 72.489z"/><path fill="#00AEEF" d="M2114.196 2504.147c-32.038 0-57.99-25.958-57.99-57.991 0-32.023 25.952-57.998 57.99-57.998 32.033 0 57.998 25.973 57.998 57.998 0 32.033-25.965 57.991-57.998 57.991z"/><path fill="#FFF" d="M2114.196 2492.555c-25.626 0-46.397-20.78-46.397-46.399 0-25.626 20.771-46.394 46.397-46.394 25.619 0 46.406 20.768 46.406 46.394 0 25.619-20.787 46.399-46.406 46.399z"/><path fill="#00AEEF" d="M2114.196 2478.635c-17.932 0-32.481-14.543-32.481-32.479 0-17.933 14.552-32.477 32.481-32.477 17.928 0 32.483 14.544 32.483 32.477 0 17.936-14.556 32.479-32.483 32.479z"/></g></svg>