<svg xmlns="http://www.w3.org/2000/svg" id="图层_3" viewBox="0 0 3000 3000"><linearGradient id="SVGID_1_" x1="297.598" x2="297.598" y1="2906.121" y2="3752.258" gradientTransform="matrix(1 0 0 -1 1202.4 4080.1)" gradientUnits="userSpaceOnUse"><stop offset="0" stop-color="#fff"/><stop offset=".9" stop-color="#ccdedc"/></linearGradient><path fill="url(#SVGID_1_)" d="M2483.2 965.516c-39.298-64.278-109.314-32.924-126.717-22.201 48.356-88.19-157.586-155.222-169.287-38.56 2.116-32.744-28.99-61.577-58.555-34.953 32.155-28.267 78.993-50.913 63.419-102.508-10.117-33.524-39.971-38.697-68.01-23.899 18.101-12.156 37.012-29.364 42.562-49.712 6.431-23.561 11.521-53.145-28.986-79.891-12.559-8.295-46.854-3.604-71.878 3.696-11.744-17.825-35.644-27.991-56.951-27.396-.31-.175-.631-.338-.944-.51 46.552-14.052 60.891-85.172 45.698-124.422-13.011-33.615-77.057-41.383-86.395-.78 28.369-94.22-110.611-58.775-115.585 4.448-14.478-11.68-35.756-15-53.692-8.527 12.365-17.749 18.474-39.629.441-52.758-14.206-10.339-45.075.448-61.083 14.953 4.906-18.601-6.717-34.342-31.599-29.886-7.678 1.375-14.111 3.727-19.567 6.831-1.008-.89-1.978-1.791-3.101-2.646-28.752-21.878-72.021 9.146-92.889 38.515 13.871-23.96 30.238-54.852 12.417-78.211-12.461-16.329-33.307-10.659-47.756 1.664 2.884-18.214-24.711-35.41-43.685-34.657-58.344 2.307-43.146 49.026-44.463 91.823-.146-23.582-2.553-59.636-30.625-69.539-21.45-7.565-45.047 20.25-52.698 44.005 2.597-23.253 2.597-54.14-18.108-64.239-17.795-8.682-33.885 5.825-47.267 22.913 6.044-28.29 1.321-65.852-7.013-80.013-13.975-23.737-33.092-18.126-50.363-7 16.869-67.319-72.635-102.457-105.652-29.585-2.072-21.392-24.8-35.214-45.775-20.342-32.246 22.869-10.959 61.05 10.44 87.825-23.128-8.677-94.333-12.982-91.533 56.265-52.413-39.294-143.536-26.348-187.979 23.016-31.401 34.877-49.771 74.421-38.654 122.083-24.449 29.484-21.644 57.192-1.339 79.686-14.317.824-30.29 8.402-44.418 18.031-7.635 5.198-12.731 13.983-14.786 23.17-1.343-.617-2.68-1.17-3.984-1.578-31.366-9.779-62.378 4.318-76.245 31.492-24.911 48.811-22.869 119.309 18.633 147.549-18.633 8.501-36.235 23.848-42.66 36.012-22.309 42.23-.684 81.928 34.646 101.62-26.138 9.797-52.799 29.699-56.437 45.396-3.457 14.937-2.972 33.872 2.591 49.928-14.754-2.818-30.291-2.832-40.988-1.913-35.373 3.027-61.197 15.716-76.477 48.935-15.746 34.242-20.339 124.573 33.366 131.873h1857.88c59.54-19.103 171.299-116.39 92.051-246.003z"/><linearGradient id="SVGID_2_" x1="233.588" x2="233.588" y1="2712.461" y2="3231.925" gradientTransform="matrix(1 0 0 -1 1202.4 4080.1)" gradientUnits="userSpaceOnUse"><stop offset="0" stop-color="#fff"/><stop offset=".9" stop-color="#ccdedc"/></linearGradient><path fill="url(#SVGID_2_)" d="M1897.162 991.605c-6.078-4.487-23.646-9.111-35.369-8.047 27.523-14.266 44.093-64.176 5.828-69.738-23.595-3.427-58.98 8.764-48.569 36.87-6.507-6.416-23.416-5.666-39.093.442 1.707-8.678.961-17.037-3.564-22.875-10.538-13.58-41.463-22.522-58.393-25.183 6.197-9.012 7.578-21.18 1.86-35.339-7.502-18.576-35.896-51.582-59.131-45.529-13.713 3.572-27.862 19.928-35.211 31.346 2.185-14.684 6.276-20.074-9.363-23.625-10.782-2.449-27.124 4.212-35.188 14.042 12.872-41.819-41.229-72.265-79.276-59.896 1.396-17.688-10.646-37.238-33.452-42.406-18.303-4.148-37.184 9.796-44.72 26.996-12.301-24.672-35.052-42.034-66.604-37.471-33.901 4.902-75.761 39.35-79.487 75.507-1.835 17.839 8.909 30.861 17.913 44.39l-.551.287c-21.644-25.439-59.404-13.858-79.162 9.736-16.088-7.472-80.824-34.455-121.813 25.667-8.836 12.954-9.18 43.758-.382 56.733-14.138-24.659-52.271-38.465-72.938-13.129-11.298 13.85-26.096 44.972-17.925 62.906 1.746 3.829 5.354 8.175 9.655 11.551-39.916-1.566-47.568 60.062-8.942 71.951-23.519 7.806-45.14 29.813-44.586 54.108.343 15.007 10.312 20.463 22.586 22.149-17.663 11.324-23.634 37.205-22.698 60.816 1.039 26.186 15.416 40.675 36.707 40.097-19.224 17.135 12.551 72.318 52.929 48.771-16.925 16.814 16.771 57.52 29.964 64.63 28.818 15.536 53.607 9.492 67.513-19.336 10.972 45.565 72.41 41.674 97.716 11.938l265.155-13.48c-1.926 28.996 55.456 33.961 62.89 4.666 3.195 17.003 13.875 35.361 27.162 46.427 18.066 15.056 64.733 28.129 87.08 16.339 13.734-7.245 20.854-28.246 17.813-43.249-1.411-6.967-8.6-21.197-17.113-31.179 17.619-2.243 40.688-21.775 32.113-40.534 27.068 31.102 70.531-24.093 39.164-43.985 32.14 5.842 73.749 17.002 79.072-25.787 3.762-30.235-15.262-62.219-47.787-63.927 6.274-1.921 12.41-3.534 17.643-7.36 7.441-5.435 25.216-25.151 28.66-32.967 6.734-15.338 2.865-29.625-7.591-36.999 33.163 7.854 79.212 10.993 84.368-25.281 2.695-18.964 3.437-57.507-14.883-71.043z" opacity=".79"/><linearGradient id="SVGID_3_" x1="178.214" x2="178.214" y1="2540.047" y2="986.211" gradientTransform="matrix(1 0 0 -1 1202.4 4080.1)" gradientUnits="userSpaceOnUse"><stop offset="0" stop-color="#ffbb45"/><stop offset=".485" stop-color="#7e421c"/><stop offset="1"/></linearGradient><path fill="url(#SVGID_3_)" d="M410 2688c-125.638-41.879 10.694-91.291 221.519-341.644 210.823-250.353 311.843-450.196 311.843-450.196s213.02-311.843 406.275-287.687c193.254 24.157 307.449 81.256 463.371 311.845 155.922 230.588 364.549 364.547 454.588 469.959C2357.635 2495.69 2562.881 2587.246 2154 2701c-224 62.318-1534 57-1744-13z"/><path fill="#5D2810" d="M1183.832 1432.414c32.61-68.798 15.373-115.399 49.412-127.843 43.219-15.801 32.457 0 89.799 15.835 57.338 15.84 57.338-13.574 103.457-9.05 46.116 4.53 26.352-47.517 57.097-52.045 30.746-4.521 35.138 20.366 54.901 65.625 19.767 45.251 81.256 212.696 136.157 273.793 54.901 61.092 140.548 278.317 197.646 359.773 57.098 81.461 331.032 378.3 406.273 450.29 15.372 14.708-35.871-.218-35.871-.218s-4.757-2.046-27.814-11.097c-23.061-9.051-131.765-131.237-160.313-149.342-28.55-18.101-117.49-118.795-171.294-136.896-53.805-18.104-62.588-87.118-117.489-148.214-54.902-61.09-47.217-102.953-115.295-149.342-68.078-46.384-53.727-97.794-79.059-81.456-12.417 8.007 57.832 116.413 84.186 151.485 26.353 35.072 38.795 67.346 15.371 91.501-13.168 13.585-43.557-9.924-43.557-9.924s32.941 147.076 79.059 208.172c46.117 61.095 132.863 168.497 133.598 243.163.285 29.292-43.559-7.836-43.559-7.836s44.047 97.532 75.89 139.396c31.844 41.861 9.758 89.143-45.144 38.229-54.901-50.91-60.394-138.027-118.589-237.589-58.196-99.562-108.706-181.021-127.373-271.529-18.667-90.511-51.605-121.058-51.605-121.058s-48.314-1.789-52.706-54.963c-4.393-53.176 1.098-104.562-5.491-112.484 0 0-5.49 33.946-21.961 29.419-16.472-4.528-9.882-46.386-25.254-78.065-15.373-31.677-28.55-55.349-26.354.089 2.194 55.438 43.921 168.025 19.765 229.122-24.156 61.091-26.262 102.881-22.969 139.086 3.293 36.2-30.746 102.614-23.148 185.203 7.596 82.595-32.572 159.58-31.475 221.805 1.098 62.228-21.232 115.063-38.802 110.537-17.567-4.524-10.247-5.658-8.05-49.78 2.196-44.123 15.252-97.271 29.771-149.315 14.515-52.041 10.735-131.236 0-171.969-10.739-40.729 15.129-122.189 0-138.025-15.133-15.842-26.215 69.325-39.289 67.675-26.354-3.332-11.332-48.306 9.529-110.527 20.863-62.229 15.24-95.179 29.76-139.302 14.515-44.123-6.348-48.647-19.524-29.415s-29.646-3.313-24.156-28.201c5.49-24.892 6.588-62.311 16.472-86.067 9.881-23.758-24.158-7.919-50.511 38.465-26.354 46.389-24.522 100.359-37.698 124.852-13.176 24.49-58.561 133.106-61.49 187.413-2.928 54.306-86.379 90.511-98.09 128.226-11.713 37.711-43.218 74.187-59.293 94.643-16.105 20.484-48.073-11.629-26.112-47.829 21.961-36.205 37.093-57.372 54.662-96.593 17.569-39.226 19.032-40.547 40.991-70.812 21.961-30.265 40.994-58.93 45.385-93.621 4.392-34.69 2.931-60.341 16.107-82.966 13.176-22.63-1.464-21.121-23.425 9.051-21.961 30.169-74.666 160.961-93.7 158.765-39.41-4.546-9.625-26.104-.842-63.817 8.784-37.717 3.766-28.575-25.513 15.175-29.278 43.745-32.208 57.319-54.167 84.476-21.961 27.155-70.275 75.19-89.307 58.6-19.035-16.592 15.554-53.236 38.977-78.879 23.423-25.641 66.432-62.69 91.322-132.082 24.891-69.391 61.49-116.151 84.917-141.797 23.424-25.646 23.419-55.811-1.468-45.257-24.886 10.562-66.447 73.888-93.697 110.123-31.479 41.857-69.545 48.278-35.871-18.093 33.675-66.371 53.439-72.419 79.792-114.655 26.353-42.239 91.501-160.282 117.854-214.589 26.352-54.307 46.116-118.797 69.175-167.445z" opacity=".44"/><path fill="#774A38" d="M2267.596 2390.277c-19.825-23.213-45.415-47.812-74.911-74.521 1.021 2.544 2.046 5.082 3.075 7.593 19.469 47.413 41.31 90.645 64.848 136.084 16.343 31.542 32.487 53.516 31.686 89.387-32.475 5.618-49.608-44.836-78.813-40.457 3.684 11.161 14.578 22.274 14.27 34.648-29.729-14.669-53.366-45.401-79.127-66.079-21.729-17.439-41.532-32.739-58.339-55.311-30.139-40.477-64.61-80.384-98.352-118.005-16.667-18.58-34.794-35.024-52.863-52.127-9.377-8.878-20.743-17.204-24.586-29.917 13.776 39.604 34.153 82.388 55.698 118.317 11.509 19.193 74.763 80.663 61.773 102.054-25.246-22.587-53.495-42.578-78.359-65.521 9.06 37.293 8.437 73.189 24.934 108.504 10.611 22.72 25.523 48.871 30.878 73.357 8.853 40.494-48.815-.613-56.75-13.382 2.411-.101 4.819-.244 7.228-.446-3.886-9.6-17.93-20.541-24.916-30.4-12.021-16.957-32.937-55.031-54.718-59.822-22.678-4.988-11.805 33.022-9.407 46.683 3.441 19.591 14.221 40.29 6.852 59.54-45.778-15.771-87.264-74.015-111.268-113.081-11.828-19.255-18.789-42.028-28.896-62.258-13.485-26.987-30.376-49.214-48.271-73.604-15.262-20.797-31.347-38.928-51.291-54.846-4.676-3.731-9.222-7.168-12.896-11.615 4.744 7.48 7.352 17.646 9.74 26.183 6.228 22.26 17.556 42.013 22.896 64.39 9.788 41.009 21.931 76.354 37.239 115.475 10.406 26.594 25.237 52.977 26.636 81.891.691 14.309-1.788 27.104-3.26 40.871-9.492-2.604-15.385-15.823-21.382-23.625-14.689-19.104-38.023-52.157-62.039-59.83-11.074 17.521-11.178 48.311-11.52 68.563-.16 9.549 2.241 29.746-4.373 35.781-16.972-11.217-30.731 0-53.086-28.018-11.771-14.751-20.945-16.896-30.381-31.949-8.689-13.859-35.197-53.749-41.259-19.739-8.892-7.618-12.019-20.854-15.812-31.437-7.067-19.713-15.381-42.602-30.813-56.353-15.299 30.827-2.509 81.341-27.784 107.449-11.156-14.167-16.767-37.839-22.394-55.296-9.347-28.987-8.563-58.938-11.242-88.925-4.362-48.761-5.59-98.441-29.713-142.822-6.896 8.154-8.668 21.177-12.636 31.132-7.742 19.4-15.535 38.903-23.209 58.401-13.635 34.661-18.896 71.396-26.353 107.916-8.321 40.728-16.405 94.251-45.269 126.014-18.803 20.695-19.678-1.72-28.42-18.915-4.187 3.616-9.191 6.15-14.515 7.235-3.73-9.017-.077-21.832.034-31.81.202-18.948 2.171-40.89-2.604-58.702-2.963 12.948-13.146 24.09-21.125 34.717-18.572 24.746-44.105 50.472-58.222 77.614-15.339-6.187-3.946-74.37-4.577-87.74-30.518 2.865-49.279 53.954-84.158 51.265 9.248-44.439 38.183-84.06 56.084-125.043 20.983-48.058 58.392-105.857 54.649-160.635-19.55-3.519-41.588 39.679-52.159 52.61-16.313 19.958-31.656 40.563-47.012 61.259-22.23 29.965-44.342 62.642-71.372 88.524-20.627 19.748-45.269 36.129-68.426 52.821-35.236 25.396-71.224 64.659-117.048 68.575-14.438 1.236-27.975 1.996-24.83-15.973-22.694-1.664-48.36 11.314-70.566 4.26-.158-7.181 4.012-13.417 8.013-19.049 8.604-12.108 21.072-18.288 31.863-28.236 13.976-12.876 26.73-29.008 38.535-43.874 21.429-26.983 40.567-55.565 61.001-83.201 13.146-17.778 35.631-39.868 30.338-64.004-21.305 11.198-38.71 28.435-53.426 46.983-34.765 43.818-86.716 74.858-131.063 108.304-30.055 22.668-58.581 45.323-93.586 59.417-20.623 8.304-49.064 21.523-71.463 18.938 17.968-21.492 60.685-45.332 65.965-75.905-10.099 1.95-17.639 12.554-25.53 18.633-15.304 11.772-32.606 16.736-50.416 24.074-26.894 11.084-48.631 21.296-77.948 20.112 10.066-20.648 33.117-32.696 51.11-46.666 36.883-28.64 71.874-61.881 108.271-91.78 23.693-19.461 46.308-36.9 64.673-61.777 24.664-33.418 48.743-67.384 73.677-100.565 23.697-31.543 42.441-58.332 56.406-95.427 1.03-2.731 2.24-5.566 3.554-8.467-42.369 59.534-93.376 126.553-153.254 197.66C420.696 2596.709 332.143 2667.523 432 2690c373.19 84 1363.761 58.473 1746-22 342-72 179.635-172.31 89.596-277.723z" opacity=".25"/><path fill="#5D2810" d="M878.576 2237.65c-8.813 18.977-26.344 28.193-41.845 40.602-18.019 14.426-37.128 27.623-55.512 41.489-3.08-16.633 32.53-33.794 30.376-51.346-8.359-.687-24.475 18.101-30.745 23.06-15.158 11.988-46.014 55.966-53.804 66.979-25.834 36.549-53.049 72.899-72.569 91.435-11.092 10.533-18.55 21.18-28.381 32.943-5.585 6.688-17.86 15.159-17.771 24.65 20.079 3.42 34.983-13.244 49.468-24.105 21.602-16.199 48.571-31.796 65.771-52.729 24.521-29.854 56.329-51.604 80.534-81.251 9.119-11.174 20.408-18.941 31.873-27.426 31.469-23.291 62.85-46.902 94.204-70.23 16.072-11.959 33.576-25.762 46.123-41.461 6.97-8.719 24.8-27.999 25.757-39.434-25.308 10.207-41.593 32.808-65.138 44.816-1.664-11.028 5.518-21.412 8.867-31.611-15.959 12.7-26.906 31.016-45.248 41.541l-21.96 12.078zm279.273-54.533c40.288-40.885 19.713-119.774 56.849-163.183.369 23.363 6.949 53.729 13.36 75.228 7.61-20.888 11.503-43.045 19.375-63.951 8.71-23.128 18.224-45.719 26.499-69.168 3.869 19 .926 40.881 1.038 60.389.105 19.271-6.229 33.605-10.535 52.085-2.386 10.212-7.146 18.508-9.599 28.519-4.299 17.49-3.346 36.29-8.373 53.863-7.035 24.6-13.588 46.783-16.471 72.775-2.677 24.082-15.912 62.803-.107 85.103 12.187-9.18 16.371-35.597 25.552-49.274 9.891-14.729 22.063-33.314 32.383-45.848 12.774 27.082 5.319 68.451.361 97.489-6.413 37.526-14.356 74.774-21.884 111.522-19.875-9.084-16.539-63.899-22.33-82.781-21.317 1.636-40.232 52.938-56.788 67.298-12.13-11.962-2.038-62.506-3.209-82.019-14.927 5.409-26.769 30.195-36.552 43.359.166-16.811 9.299-32.615 10.83-49.639 1.805-20.065 2.941-40.074 5.484-59.955 1.549-12.087 6.949-41.613-1.793-50.879-13.948 4.997-25.863 18.479-37.95 27.288-1.038-21.392 14.205-61.882 26.25-80.136a188.267 188.267 0 0 0 3.218 14.598l4.392 7.317zm279.63-174.219c-.527 31.632 9.74 61.516 10.423 92.936.279 12.862-.051 25.937-.21 38.773-9.385-1.416-18.843-13.674-26.313-18.988-12.736 31.012-15.25 73.873-18.414 107.362-2.896 30.651-4.667 74.912 7.956 103.208 12.134-19.572 14.764-41.915 19.356-63.992 1.729-8.294.154-18.841 8.502-22.209 21.338 24.444 32.318 61.027 48.043 89.336 5.592 10.076 14.349 33.053 26.566 35.019 8.557-39.059-11.896-83.679.489-121.396 30.883 18.217 50.999 60.564 75.862 86.391 14.967 15.539 29.776 46.666 52.586 52.686.729-11.457-4.22-24.286-8.601-34.761-9.375-22.406-18.862-44.779-27.888-67.509-10.229-25.773-19.25-51.504-28.991-77.316-4.448-11.781-13.688-25.932-13.198-38.406 6.979 8.712 20.891 17.021 30.764 22.862-.896-20.082-18.217-44.921-26.015-63.197-8.39-19.657-16.539-39.924-24.371-59.976-3.526-9.021-14.536-58.063-24.413-58.234-12.705-.216-14.442 41.469-18.754 49.973-33.002-37.022-34.854-87.977-45.813-133.084.002-.003-14.64-95.162-17.566 80.522zm396.757 98.09c-28.698-35.896-46.35-78.865-69.421-117.52-15.596-26.135-44.419-49.24-56.258-76.7-1.682 10.853 3.045 19.772 6.396 29.78 4.748 14.188 6.55 28.583 9.526 43.352 8.146 40.426 26.484 77.702 42.197 115.657-16.558-1.642-27.112-29.196-45.021-29.544-.622 14.588 14.232 30.27 20.866 43.03 11.204 21.548 22.66 42.458 33.447 64.123 11.839 23.774 20.026 51.437 34.627 73.452 9.525 14.369 21.352 27.967 31.877 41.531 2.621-20.377-7.123-42.367-3.332-62.492 16.462-2.535 36.11 27.072 48.726 35.904a11193.93 11193.93 0 0 1 39.323 27.653c-5.776-17.544-18.336-37.128-25.934-54.962-8.719-20.479-16.883-38.741-30.127-55.997-11.504-14.986-19.703-32.168-31.035-46.524 0 0-14.646-21.965 11.709-2.93 26.354 19.039 2.025-3.303-17.566-27.813zm358.693 310.38c-51.564-28.468-83.847-75.52-119.664-119.767-16.927-20.91-36.647-43.369-56.46-61.671-11.949-11.041-25.289-15.455-37.29-23.265 17.964 23.529 35.965 47.313 53.384 71.276-1.664-.009-3.633.442-5.318.474 40.314 45.61 69.563 96.258 119.828 132.888 17.715 12.911 31.728 24.955 51.659 33.808 9.887 4.389 20.856 13.116 30.414 16.025-4.649-9.764-12.551-18.141-20.447-24.883l-16.106-24.885zM938.24 1970.832c-16.874 20.375-32.495 38.983-51.655 56.604.125-4.521-.545-8.562 1.694-13.499-11.534 32.054-27.854 54.475-48.202 81.73-14.175 18.988-33.43 45.141-37.898 68.188a21.716 21.716 0 0 0 14.737-2.36c-18.534 28.077-39.983 54.078-57.476 83.015 32.246-10.084 42.781-36.918 62.288-61.642 8.587-10.877 15.999-22.204 24.251-33.387 12.46-16.884 17.654-33.49 27.88-51.44 10.131-17.777 25.22-37.625 38.345-54.078 11.367-14.239 17.93-29.23 27.494-43.848 0 0 68.507-113.764-1.458-29.283z" opacity=".25"/><path fill="#5D2810" d="M1381.848 2162.619c-1.352-40.113-6.25-92.951 7.541-131.597 11.486 34.97 53.216 96.459 52.619 62.438.828-26.834-10.448-51.487-10.385-77.948.052-20.636 5.054-40.511 5.852-60.756.65-16.63 2.925-31.646 4.396-47.953 2.174-24.131-8.785-61.152.227-72.038 7.829 26.992 23.324 67.117 30.52 85.554 4.207 10.771 7.698 23.607 11.713 34.402 3.869 10.394 2.946 19.756 5.854 30.017 2.364 8.348 4.983 19.901 9.519 27.082 8.39-19.816 19.819-56.364 22.754-77.656 1.742-12.653-1.024-39.447 9.984-47.64 26.233 28.54 37.278 7.544 61.692 37.452 18.226 22.33 64.354 77.005 87.843 93.699 5.417 3.852 30.146 49.522 39.346 42.369 9.299-7.229-16.947-73.541-17.385-84.825-3.286-84.861-47.422-91.922-65.591-144.354-16.394-47.305-29.31-96.149-44.213-144.065 0 0-68.808-158.111-150.796-111.267-81.988 46.849-114.639 302.986-95.164 456.784 19.472 153.798 35.449 183.027 33.674 130.302z" opacity=".2"/><path fill="#5D2810" d="M1150.891 1984.005s12.078 169.097 19.764 133.961c7.688-35.138 29.648-107.608 46.119-155.922s12.078 92.234 29.646 0c17.569-92.236 23.059-93.548 20.863-59.401s1.098 64.564 10.98 31.238c9.882-33.327 21.188 27.063 16.633 72.084-4.555 45.02-4.555 169.099 20.701 31.845 25.254-137.256 53.1-269.021 27.098-296.471-26-27.452-102.199-65.882-133.272 20.862-31.08 86.744-19.002-135.061-93.668-42.823-74.667 92.233-196.872 216.803-213.021 262.431-16.148 45.629 66.98-52.921 93.334-79.166 26.353-26.246-50.511 117.598-70.275 143.95-19.766 26.354-93.313 141.175-35.128 89.803 58.188-51.371 85.638-60.155 85.638-60.155s-26.352 79.993-15.372 69.095c10.979-10.897 18.67-20.36 8.785 4.136-9.883 24.495-22.271 52.26 45.021-4.136 67.288-56.395 55.978-69.445 37.324-13.818-18.66 55.622 64.791-20.141 98.83-147.513z" opacity=".22"/><linearGradient id="SVGID_4_" x1="359.57" x2="359.57" y1="3042.179" y2="1885.074" gradientTransform="matrix(1 0 0 -1 1202.4 4080.1)" gradientUnits="userSpaceOnUse"><stop offset="0" stop-color="#ffe300"/><stop offset=".117" stop-color="#ffd300"/><stop offset=".994" stop-color="#ff5700"/></linearGradient><path fill="url(#SVGID_4_)" stroke="#E83100" stroke-miterlimit="10" d="M1183.832 1427.299c32.61-66.771 15.373-111.999 49.412-124.078 43.219-15.334 32.457 0 89.799 15.373 57.338 15.374 57.338-13.176 103.457-8.784 46.116 4.391 26.352-46.117 57.097-50.51 30.746-4.394 35.138 19.764 54.901 63.686 19.767 43.922 81.256 206.433 136.157 265.726s140.548 270.117 197.646 349.176c57.098 79.06 331.032 367.152 406.273 437.02 15.372 14.274 5.862 35.532 5.862 35.532s-46.49-37.729-69.549-46.512c-23.061-8.785-131.766-127.374-160.313-144.942-28.55-17.566-117.489-115.294-171.294-132.861-53.805-17.568-62.588-84.551-117.49-143.844-54.901-59.294-47.215-99.921-115.293-144.94-68.08-45.021-51.608-91.138-79.06-79.06-27.45 12.078 37.334 115.294 63.687 149.334 26.353 34.039 47.216 69.176 34.039 82.354-13.176 13.176-41.726-5.49-41.726-5.49s32.941 142.744 79.06 202.039c46.117 59.293 130.666 211.921 119.686 238.273-10.98 26.354-29.646-9.883-29.646-9.883s29.646 109.805 61.49 150.432 24.156 71.371-30.744 21.961c-54.901-49.412-60.394-133.961-118.588-230.588-58.197-96.629-108.707-175.688-127.373-263.529-18.668-87.842-51.606-117.49-51.606-117.49s-40.628-5.489-45.021-57.098-6.589-97.727-13.178-105.412c0 0-5.49 32.94-21.961 28.55-16.471-4.393-9.882-45.021-25.254-75.766-15.373-30.744-36.236-51.607-34.04 2.195 2.196 53.806 43.922 169.1 19.766 228.393-24.157 59.295-26.354 90.04-23.06 125.178s-30.565 101.021-22.969 181.176c7.597 80.157-30.834 155.921-29.737 216.314 1.098 60.392-13.177 133.959-30.745 129.567-17.568-4.393-4.391-25.256-2.196-68.078 2.196-42.823 7.202-97.727 21.722-148.235 14.515-50.511 10.735-127.372 0-166.901-10.739-39.53 15.129-118.589 0-133.961-15.133-15.373-28.309 72.471-41.484 72.471-13.178 0-2.196-50.51 18.667-110.902 20.862-60.392 8.298-95.527 22.817-138.353 14.515-42.824-6.348-47.215-19.524-28.55-13.177 18.667-19.765-2.195-14.274-26.354 5.491-24.156-3.294-61.488 6.59-84.549 9.881-23.059-24.158-7.686-50.511 37.334-26.354 45.02-24.522 97.398-37.698 121.17s-58.561 129.184-61.49 181.889c-2.928 52.707-86.379 87.849-98.09 124.446-11.713 36.602-54.172 79.056-58.564 103.945-4.391 24.89-46.846 4.394-24.886-30.745 21.961-35.137 35.138-83.447 52.706-121.514 17.568-38.065 19.031-39.35 40.992-68.723 21.961-29.371 40.992-57.191 45.383-90.861 4.393-33.671 2.932-58.561 16.107-80.521s-1.463-20.498-23.424 8.784c-21.961 29.283-65.882 161.228-95.164 162.601-29.283 1.373-2.93-26.438 5.854-63.043 8.784-36.604-1.468-35.143-30.745 7.316-29.278 42.459-32.208 55.636-54.167 81.989-21.961 26.353-61.491 83.444-80.521 67.345-19.034-16.102 20.493-49.781 43.921-74.667 23.424-24.886 52.701-73.203 77.592-140.55 24.892-67.344 61.49-112.729 84.918-137.618 23.424-24.892 23.418-54.169-1.467-43.922-24.887 10.247-66.449 71.707-93.699 106.874-31.478 40.628-67.349 51.238-33.674-13.176 33.674-64.416 51.243-74.668 77.597-115.659 26.353-40.991 91.501-155.557 117.854-208.263 26.349-52.709 46.114-115.297 69.173-162.511h0z"/><path fill="red" d="M1156.381 1892.866c17.276-46.116 10.98-107.606 16.47-151.527 5.491-43.923-18.667 48.313-23.058 80.155-4.393 31.843-24.157 71.372-38.892 97.726-14.733 26.354-52.247 66.98-74.207 131.765-21.928 64.686-43.381 71.514-43.446 71.536 2.002.575 4.594.819 7.944.659 29.282-1.371 73.203-133.315 95.164-162.6 21.961-29.282 36.601-30.745 23.424-8.784-9.639 16.067-11.444 33.718-13.438 55.21v-.003c2.668-25.316 41.237-90.645 50.039-114.137z" opacity=".48"/><path fill="#DB4040" d="M1301.322 1806.855c1.468-30.745 23.425-43.923 16.103-90.773-7.317-46.851 2.935-36.599 5.619-187.399 2.687-150.799-23.188 20.499-20.252 49.782 4.451 44.521-31.252 73.727-41.108 108.083-5.653 19.679-15.081 79.637-40.662 83.516-1.351-7.854 18.259-54.464 1.931-56.824-13.048 22.784-16.463 49.373-21.507 74.58-5.957 29.819 3.39 59.142-3.668 88.252-5.854 24.161-10.271 47.271-19.434 70.57-12.118 30.821-26.34 61.605-36.677 93.007-15.961 48.465-23.008 109.972-66.209 143.17-14.926 11.469-31.905 22.029-40.297 40.16-7.504 16.227-13.845 32.404-22.183 48.3-6.61 12.603-16.034 23.587-22.468 36.283-4.04 7.97-7.149 22.737-15.964 27.446-6.22 3.328-11.572 2.265-16.188-1.239.807 21.502 27.674 29.922 31.122 10.393 4.394-24.891 46.853-67.345 58.565-103.944 11.709-36.6 95.16-71.74 98.09-124.446s48.314-158.117 61.49-181.89c13.176-23.771 11.345-76.15 37.697-121.17 26.354-45.02 60.393-60.393 50.51-37.334-9.883 23.061-1.098 60.394-6.588 84.549-3.572 15.726-2.008 29.979 3.145 32.917-3.334-23.783 7.66-59.233 8.933-85.989zm-213.02-12.632c13.177-40.448 21.961-45.2 40.97-89.023 19.011-43.822 33.697-75.862 44.385-134.059 10.688-58.196-27.158 46.117-39.236 63.687-12.08 17.568-36.236 61.489-50.511 94.758-14.274 33.267-23.059 41.397-49.411 64.639-26.354 23.238-32.941 33.858-70.274 97.546-37.334 63.682-58.115 63.511-58.119 63.511 3.448 12.091 26.057-1.639 46.772-28.375 27.25-35.166 68.813-96.627 93.698-106.873 24.886-10.248 24.892 19.029 1.468 43.922a396.656 396.656 0 0 0-18.221 20.798c28.618-18.548 45.302-50.082 58.479-90.531zm3.295 88.761c15.372-35.138-3.294-17.568-38.431 29.784-35.138 47.353-39.53 72.332-58.197 95.392-18.667 23.061-49.412 86.745-76.862 130.668-27.452 43.922-76.494 77.961-76.494 77.961 19.03 16.101 58.56-40.992 80.521-67.346 21.96-26.354 24.89-39.529 54.167-81.988 29.201-42.348 39.465-43.896 30.806-7.593 6.021-10.868 10.945-21.265 13.116-28.643 5.492-18.667 56.001-113.096 71.374-148.235zm1134.268 468.104c-20.465-14.563-44.08-27.442-60.749-45.066-20.425-21.592-33.79-48.824-53.087-71.342-18.29-21.344-46.714-38.539-70.008-54.567-22.111-15.214-36.112-34.399-53.324-54.489-17.183-20.045-36.767-37.725-61.816-48.684-18.746-8.202-37.178-16.612-51.357-31.518-29.729-31.261-52.6-71.146-80.08-105.708-47.76-60.074-65.797-134.1-102.156-200.341-2.809-5.12-10.428-19.408-17.199-20.173-9.099-1.032-6.967 7.808-12.819 11.521-20.202 12.813-32.028-40.07-38.749-55.412-15.018-34.279-29.128-68.902-45.805-102.405-13.121-26.355-41.918-66.56-75.354-61.789-20.499 2.924 5.125 42.458 29.646 131.765 17.75 64.646 26.34 101.365 43.725 128.599-11.852-26.063-17.066-48.018-5.293-53.199 27.45-12.078 10.979 34.039 79.059 79.06 68.078 45.021 60.393 85.646 115.295 144.94 54.901 59.293 63.686 126.274 117.489 143.844 53.804 17.567 142.744 115.295 171.294 132.861 28.549 17.568 137.254 136.157 160.313 144.942 23.059 8.782 69.549 46.512 69.549 46.512s.438-1.013.971-2.673c-8.153-4.688-15.78-10.221-22.316-15.325-15.495-12.097-22.272-30.717-37.229-41.353zm-910.205 107.268c11.715-44.262 32.877-144.94 27.034-187.767-5.842-42.821-2.942-87.842 0-121.895 2.943-34.052 17.921-68.064 0-82.34-17.92-14.273-34.784 38.572-34.784 38.572 4.863-11.543 9.877-18.653 15.133-13.317 15.128 15.372-10.74 94.431 0 133.961 10.734 39.529 14.514 116.392 0 166.901-14.521 50.51-19.525 105.412-21.723 148.234-2.195 42.823-15.371 63.688 2.196 68.079 10.252 2.561 19.371-21.43 24.979-53.839-26.615 86.672-24.547-52.333-12.835-96.589zm429.27-93.698c-12.238-30.591-21.563-63.261-34.987-93.011-13.485-29.884-38.28-52.354-51.393-82.705-11.56-26.756-26.838-49.647-33.423-78.731-6.932-30.617-16.818-58.66-27.66-88.568-8.614-23.753-18.049-48.417-33.748-68.199-7.412-9.337-18.748-14.754-27.79-22.475-30.118-25.725-29.586-74.328-37.354-110.897-4.89-23.008-5.387-47.474-14.261-69.231-16.694-40.939-41.646-80.012-52.688-122.599-10.252-39.53-19.036-98.095-19.036-71.741s16.105 95.16 42.459 158.116c10.243 24.476 14.06 46.938 14.909 65.277 1.076-3.869 1.562-6.713 1.562-6.713 6.589 7.687 8.785 53.804 13.177 105.412 4.394 51.607 45.021 57.098 45.021 57.098s32.939 29.647 51.605 117.49c18.668 87.843 69.178 166.901 127.373 263.53 58.195 96.627 63.688 181.176 118.59 230.588 30.104 27.095 45.979 30.059 48.959 20.537-63.464-21.68-106.858-142.032-131.315-203.178zm-366.745-684.812c3.295 45.021 16.562 83.01 16.562 83.01-2.371-13.116-4.084-24.929-4.482-34.696-2.196-53.804 18.667-32.939 34.04-2.195 4.885 9.771 7.544 20.532 9.438 30.818-.444-24.089-37.988-117.563-47.871-138.426s-10.981 16.47-7.687 61.489zm-74.667 398.588c17.568-54.9 21.229-72.471 31.479-128.106 10.25-55.634 19.03-62.95 13.178-118.587-5.855-55.636-13.178-39.529-17.569-14.64-4.392 24.892-27.087 69.176-27.087 69.176 13.178-18.665 34.039-14.273 19.525 28.551-14.521 42.823-1.957 77.961-22.818 138.353-20.863 60.394-31.844 110.902-18.667 110.902.086 0 .175-.048.266-.052-3.252-17.396 8.498-44.375 21.693-85.597z" opacity=".48"/><path fill="#FFE088" d="M1327.676 1332.866s30.701 12.078 48.84 0c18.14-12.078 31.531-12.078 57.227-12.078 25.697 0 31.188-9.882 38.875-26.353 7.687-16.47 24.156-47.215 41.726-6.588 17.567 40.626 53.803 129.567 64.782 153.726 10.981 24.156 52.707 120.784 73.569 142.744 20.863 21.962 52.706 52.706 73.569 97.726 20.861 45.021 119.147 256.735 186.665 319.528 67.517 62.795 151.895 161.048 151.895 161.048s-109.065-100.29-147.866-130.302-79.797-94.432-105.416-151.529c-25.619-57.097-98.817-185.938-121.514-218.146-22.693-32.207-47.585-54.169-69.545-107.608-21.961-53.435-109.805-236.444-120.051-245.229-10.247-8.785-20.494-2.927-30.012 16.109-9.519 19.026-36.601 12.439-52.707 10.243-16.105-2.195-22.612 4.237-48.313 10.252-12.516 2.934-30.941-1.074-41.725-4.393-25.671-7.901-21.996-14.206.001-9.15z" opacity=".5"/><path fill="#FFC81F" d="M1451.752 1414.122s14.274 45.752 20.863 87.478c6.59 41.722 14.274 84.914 32.94 142.012 18.667 57.1 43.192 148.235 62.957 186.667 19.765 38.433 51.239 67.546 58.926 80.989 7.687 13.441 39.529 32.676 23.06 0-16.471-32.676-75.49-88.46-97.039-148.411-21.551-59.95-34.727-116.422-51.196-155.715-16.472-39.296-37.332-178.745-50.511-193.02z" opacity=".5"/><path fill="red" d="M1495.894 1687.636s29.429 98.721 37.114 120.681c7.687 21.961 30.746 49.172 46.117 68.508 15.373 19.335 68.078 79.728 90.039 73.141 0 0-19.766 21.172-57.099-20.708s-66.979-46.272-79.059-78.115c-12.076-31.844-37.112-163.507-37.112-163.507z" opacity=".48"/><path fill="#FFC81F" d="M1385.869 1386.672s-9.354 163.233 19.26 220.471c19.603 39.212 69.684 160.184 51.017 179.949-18.667 19.765-12.808-62.225-51.017-152.996-34.674-82.379-19.26-247.424-19.26-247.424zm234.983 584.154s20.862 127.374 56 166.902c35.138 39.53 129.568 191.061 127.372 208.628-2.196 17.569-103.181-160.005-116.925-175.531-13.741-15.528-61.579-92.052-66.447-199.999zm-339.294-655.164s-16.519-25.356-57.099 0c-5.854 3.665-13.91 76.862-30.746 106.879-16.834 30.013-43.655 125.349-65.152 153.727-21.493 28.377-96.628 182.27-110.533 202.768-13.906 20.498-77.164 107.395-86.531 123.606-9.367 16.214-18.882 38.905 14.789-7.209 33.678-46.119 83.657-122.304 94.534-138.748 10.877-16.446 85.124-162.851 99.972-185.543 14.859-22.694 33.89-74.259 45.604-103.743 11.71-29.484 30.745-51.444 34.403-88.778s10.248-51.978 27.087-57.832c16.836-5.855 48.312 8.788 33.672-5.127zm-5.724 42.46s-6.355 178.294-27.218 230.244c-20.862 51.952-15.373 85.101-15.373 99.271s5.283 40.206-.653 48.211c-5.936 8.003.653 53.803 14.928-28.55 14.273-82.354 0-69.863 15.373-118.933 15.372-49.066 12.943-230.243 12.943-230.243zm74.218 161.896s-22.025 113.917-14.691 167.618c7.335 53.701-13.841 170.375-25.589 176.822-11.743 6.446-2.773-21.039 3.174-42.981 5.945-21.944 16.762-97.71 14.1-115.277-2.665-17.568 9.148-146.173 23.006-186.182zm18.25 201.553s47.577 155.134 32.573 207.687c-15.006 52.551-26.027 98.668-24.359 127.218 1.669 28.549-21.021 115.293-23.401 147.136l2.382-31.843s12.987-95.529 8.504-118.588c-4.48-23.059 11.748-95.313 18.457-126.716 6.706-31.403 16.508-86.314-14.156-204.894zm-217.411-33.935s-40.748 77.12-53.865 106.587c-13.115 29.467-39.469 66.8-65.822 101.937-26.354 35.139-40.623 42.824-61.49 99.922-20.862 57.099-18.666 70.274 9.883 8.785 28.549-61.49 76.861-116.394 90.04-139.451 13.176-23.059 37.332-65.883 47.215-85.646s34.039-92.134 34.039-92.134zm0 83.347s-.12 75.98-53.865 155.48c-53.744 79.5-62.527 118.531-71.313 137.448-8.783 18.914-25.254 46.365-13.176 11.229 12.078-35.136 29.646-85.158 59.293-132.617 29.65-47.461 53.806-55.145 79.061-171.54zm24.644 71.374s-6.074 67.259-34.742 97.262c-28.67 30.003-29.252 69.641-29.892 81.72-.639 12.077-23.248 85.286-50.051 110.9-26.804 25.615-62.588 116.393-47.215 101.021 15.372-15.372 45.019-79.061 59.293-95.53s44.925-71.372 51.012-118.587c6.086-47.216 21.459-56.61 32.438-76.618 10.984-20.011 25.014-57.348 19.157-100.168z" opacity=".5"/><path fill="#FFC81F" d="M1551.68 1376.827c-15.631-37.351-44.235-101.525-55.786-109.104s-25.474 20.857-35.651 32.566c-10.18 11.72-10.314 23.429-31.548 18.625-21.23-4.805-40.991 1.875-59.294 7-18.303 5.121-26.353 4.392-46.165 0-19.812-4.393-27.034-12.979-47.263-17.568-12.902-2.934-29.552 5.854-41.262 10.98-11.715 5.119-24.891 73.198-10.243 34.172 10.354-27.575 22.506-22.644 27.271-15.051-6.146 4.529-14.171 16.822-21.326 48.224-14.004 61.489-14.004 104.181-27.18 133.348-13.177 29.162-13.764 73.084-29.574 93.555-15.81 20.475-22.768 64.173-22.768 64.173s15.98-36.33 24.645-49.506c8.666-13.178 20.006-50.527 30.807-78.335 10.8-27.812 16.113-23.413 24.07-52.697 7.955-29.282 22.234-79.058 22.785-51.976.543 27.085-4.582 60.031-9.703 87.848-5.127 27.813-17.569 74.876-2.931 33.777 14.64-41.1 23.424-86.488 21.228-110.646-.788-8.672-.25-16.113.834-23.351.381-1.119.685-2.874.934-5.61l.013-.119c1.31-7.224 2.956-14.506 4.153-22.871 3.563-10.603 7.965-5.438 8.248 59.272.438 98.099 12.172-25.619 19.495-82.717 7.321-57.099 31.478-35.138 37.333 10.98 5.854 46.117 13.177 9.513 31.199-23.428 18.023-32.941 5.399 24.891 18.457 130.302 13.056 105.413 12.566-4.392 12.287-89.306-.277-84.919 23.702 68.809 20.773-7.321-2.932-76.13 20.497 40.263 54.172 136.89 33.676 96.632 12.863-6.201 6.589-52.182-6.274-45.985-6.589-55.427-10.979-92.759-4.394-37.334 35.138-27.086 96.671 62.219 61.531 89.311 5.338-42.029-10.291-79.384z" opacity=".5"/><linearGradient id="SVGID_5_" x1="3195.536" x2="3225.734" y1="1493.973" y2="1493.973" gradientTransform="scale(-1 1) rotate(-33.774 957.942 8603.465)" gradientUnits="userSpaceOnUse"><stop offset="0" stop-color="#ffe300"/><stop offset=".117" stop-color="#ffd300"/><stop offset=".994" stop-color="#ff5700"/></linearGradient><path fill="url(#SVGID_5_)" stroke="#E83100" stroke-miterlimit="10" d="M1090.576 1461.273c-10.552 20.77 9.444 34.132 25.889 14.535 16.455-19.605 32.41-77.372 32.41-77.372s-47.748 42.074-58.299 62.837h0z"/><path fill="#FFC81F" d="M1100.193 1481.286c-5.396 1.947-14.086-5.009-7.052-17.739 10.002-18.108 50.929-57.932 50.929-57.932s-41.856 53.238-44.35 59.733c-2.487 6.497 7.319 13.468.473 15.938z" opacity=".5"/><linearGradient id="SVGID_6_" x1="3169.287" x2="3191.932" y1="1663.582" y2="1663.582" gradientTransform="scale(-1 1) rotate(-33.774 957.942 8603.465)" gradientUnits="userSpaceOnUse"><stop offset="0" stop-color="#ffe300"/><stop offset=".117" stop-color="#ffd300"/><stop offset=".994" stop-color="#ff5700"/></linearGradient><path fill="url(#SVGID_6_)" stroke="#E83100" stroke-miterlimit="10" d="M1029.012 1613.981c-7.913 15.57 7.083 25.595 19.417 10.896 12.336-14.699 24.303-58.021 24.303-58.021s-35.806 31.547-43.72 47.125z"/><path fill="#FFC81F" d="M1036.223 1628.989c-4.049 1.454-10.564-3.761-5.289-13.304 7.502-13.579 38.196-43.446 38.196-43.446s-31.394 39.929-33.259 44.796c-1.869 4.869 5.486 10.1.352 11.954z" opacity=".5"/><linearGradient id="SVGID_7_" x1="3155.65" x2="3174.583" y1="1797.442" y2="1797.442" gradientTransform="scale(-1 1) rotate(-33.774 957.942 8603.465)" gradientUnits="userSpaceOnUse"><stop offset="0" stop-color="#ffe300"/><stop offset=".117" stop-color="#ffd300"/><stop offset=".994" stop-color="#ff5700"/></linearGradient><path fill="url(#SVGID_7_)" stroke="#E83100" stroke-miterlimit="10" d="M971.293 1731.422c-6.614 13.018 5.923 21.398 16.235 9.109 10.314-12.289 20.317-48.511 20.317-48.511s-29.935 26.377-36.552 39.402z"/><path fill="#FFC81F" d="M977.323 1743.97c-3.384 1.214-8.831-3.145-4.422-11.126 6.271-11.354 31.935-36.325 31.935-36.325s-26.246 33.387-27.809 37.458c-1.556 4.071 4.589 8.441.296 9.993z" opacity=".5"/><linearGradient id="SVGID_8_" x1="4.145" x2="76.962" y1="2845.803" y2="2845.803" gradientTransform="matrix(1 0 0 -1 1202.4 4080.1)" gradientUnits="userSpaceOnUse"><stop offset="0" stop-color="#ffe300"/><stop offset=".117" stop-color="#ffd300"/><stop offset=".994" stop-color="#ff5700"/></linearGradient><path fill="url(#SVGID_8_)" stroke="#E83100" stroke-miterlimit="10" d="M1279.362 1262.957s-10.787-61.49-48.949-57.098c-38.16 4.393-24.791 34.408 0 31.479s42.36 6.592 48.949 25.619z"/><path fill="#FFC81F" d="M1268.75 1240.267s-17.938-47.215-55.271-23.792c0 0 31.844-12.443 55.271 23.792z" opacity=".5"/><linearGradient id="SVGID_9_" x1="-173.909" x2="-101.091" y1="1857.603" y2="1857.603" gradientTransform="matrix(.96 .6268 .677 -1.0369 195.412 3195.828)" gradientUnits="userSpaceOnUse"><stop offset="0" stop-color="#ffe300"/><stop offset=".117" stop-color="#ffd300"/><stop offset=".994" stop-color="#ff5700"/></linearGradient><path fill="url(#SVGID_9_)" stroke="#E83100" stroke-miterlimit="10" d="M1336.559 1236.033s31.275-70.519-8.335-89.885-47.095 20.133-21.31 32.637c25.78 12.508 36.207 33.389 29.645 57.248z"/><path fill="#FFC81F" d="M1341.732 1205.85s14.745-60.199-36.952-59.312c0 .001 38.998 7.056 36.952 59.312z" opacity=".5"/><linearGradient id="SVGID_10_" x1="2998.321" x2="3059.621" y1="2587.502" y2="2587.502" gradientTransform="matrix(-.9687 -.1811 .1837 -.983 3898.068 4326.48)" gradientUnits="userSpaceOnUse"><stop offset="0" stop-color="#ffe300"/><stop offset=".117" stop-color="#ffd300"/><stop offset=".994" stop-color="#ff5700"/></linearGradient><path fill="url(#SVGID_10_)" stroke="#E83100" stroke-miterlimit="10" d="M1405.683 1249.489s17.067-42.591 47.594-33.619c30.534 8.981 15.591 28.531-4.233 22.647-19.822-5.884-35.428-1.715-43.361 10.972z"/><path fill="#FFC81F" d="M1417.389 1234.778s20.979-31.229 48.275-8.69c0 0-24.295-13.804-48.275 8.69z" opacity=".5"/><linearGradient id="SVGID_11_" x1="3525.535" x2="3586.842" y1="3834.624" y2="3834.624" gradientTransform="matrix(-.6805 -.0598 .0484 -.551 3677.617 3457.045)" gradientUnits="userSpaceOnUse"><stop offset="0" stop-color="#ffe300"/><stop offset=".117" stop-color="#ffd300"/><stop offset=".994" stop-color="#ff5700"/></linearGradient><path fill="url(#SVGID_11_)" stroke="#E83100" stroke-miterlimit="10" d="M1421.352 1141.234s8.359-24.251 30.066-20.566c21.713 3.696 12.982 15.123-1.114 12.695-14.099-2.428-24.5.531-28.952 7.871z"/><path fill="#FFC81F" d="M1428.236 1132.616s11.945-18.135 32.513-6.811c-.003 0-17.805-6.618-32.513 6.811z" opacity=".5"/><linearGradient id="SVGID_12_" x1="1693.194" x2="1723.391" y1="6.314" y2="6.314" gradientTransform="scale(-1 1) rotate(27.047 -3018.713 -6252.446)" gradientUnits="userSpaceOnUse"><stop offset="0" stop-color="#ffe300"/><stop offset=".117" stop-color="#ffd300"/><stop offset=".994" stop-color="#ff5700"/></linearGradient><path fill="url(#SVGID_12_)" stroke="#E83100" stroke-miterlimit="10" d="M1656.679 1508.094c12.983 19.339 34.409 8.396 25.312-15.52-9.095-23.92-51.75-66.015-51.75-66.015s13.45 62.2 26.438 81.535z"/><path fill="#FFC81F" d="M1678.842 1509.459c-.937 5.656-11.247 9.854-18.93-2.497-10.933-17.56-25.752-72.71-25.752-72.71s26.078 62.502 30.534 67.847c4.462 5.338 15.323.174 14.148 7.36z" opacity=".5"/><g><linearGradient id="SVGID_13_" x1="1748.659" x2="1771.304" y1="-848.574" y2="-848.574" gradientTransform="matrix(-.7885 .4025 .2695 .5278 3329.448 1300.656)" gradientUnits="userSpaceOnUse"><stop offset="0" stop-color="#ffe300"/><stop offset=".117" stop-color="#ffd300"/><stop offset=".994" stop-color="#ff5700"/></linearGradient><path fill="url(#SVGID_13_)" stroke="#E83100" stroke-miterlimit="10" d="M1711.101 1579.004c6.31 8.32 20.532 1.057 17.032-9.853-3.5-10.903-26.14-27.729-26.14-27.729s2.788 29.269 9.108 37.582z"/><path fill="#FFC81F" d="M1724.685 1577.709c-1.085 2.853-7.832 5.824-11.487.459-5.197-7.631-9.461-33.327-9.461-33.327s10.573 28.301 12.854 30.518c2.276 2.221 9.458-1.275 8.094 2.35z" opacity=".5"/></g><g><linearGradient id="SVGID_14_" x1="1383.364" x2="1402.296" y1="212.887" y2="212.887" gradientTransform="matrix(-.7612 .6485 .6485 .7612 2714.604 657)" gradientUnits="userSpaceOnUse"><stop offset="0" stop-color="#ffe300"/><stop offset=".117" stop-color="#ffd300"/><stop offset=".994" stop-color="#ff5700"/></linearGradient><path fill="url(#SVGID_14_)" stroke="#E83100" stroke-miterlimit="10" d="M1799.133 1744.466c10.727 9.905 22.203.124 13.18-13.144-9.011-13.271-41.146-32.758-41.146-32.758s17.234 35.988 27.966 45.902z"/><path fill="#FFC81F" d="M1812.849 1742.075c.244 3.581-5.431 7.64-11.911 1.227-9.218-9.127-26.258-40.618-26.258-40.618s24.979 34.349 28.472 36.955c3.492 2.607 9.376-2.116 9.697 2.436z" opacity=".5"/></g></svg>