<svg xmlns="http://www.w3.org/2000/svg" id="图层_2" viewBox="0 0 3000 3000"><path fill="#476E70" d="M1479.742 92c508.375 4.937 920.354 68 1104.307 340 183.951 272 143.645 1374.768 55.027 1771.136-88.616 396.366-2092.061 285.813-2092.061 285.813S484 2248 472 1628 243.489 80 1479.742 92z"/><path fill="#284144" d="M604.244 2701l1907.692 6.07s108.993-263.158 132.995-563.188c24.002-300.03-195.837-606.54-445.953-417.041S1787.125 1582.531 1610 1537.82c-177.127-44.71-520.684-135.014-629.465 108.011-108.779 243.025-121.302 444.046-272.557 498.052S480.75 2388.03 604.244 2701z"/><circle cx="2030.838" cy="956.631" r="503.686" fill="#FC6"/><g fill="#FFA000" opacity=".35"><path d="M2059.314 1429.827c-.654-.797-1.229-1.634-1.543-2.628-2.511-3.529-6.8-5.204-9.205-8.813-.812-.784-1.622-1.569-2.459-2.301-3.962-3.896-8.499-6.932-13.677-8.983-13.782-5.479-35.043 4.302-39.936 17.325-.863.6-1.701 1.235-2.511 1.907-2.458-.939-4.511-.209-6.289 1.752-.301.327-.589.668-.876.994 14.122 1.256 28.428 1.937 42.891 1.937 11.297 0 22.489-.419 33.605-1.19zM1697.861 609.37c6.591 2.31 13.22 1.349 19.862.255 5.126-.776 9.99.799 14.982 1.438 9.493 1.216 15.495 8.146 22.909 12.688-4.064 3.118-3.948 6.258.093 9.407 1.11 2.97 2.381 5.577 6.211 5.808 2.901.177 5.31 1.273 4.682 5.021-.968 2.413-3.189 4.217-3.557 7.002-1.178 6.662-6.537 11.827-6.723 18.861-.025 4.015-1.046 8.042-.313 12.01.729 3.877-.235 5.59-2.158 6.172 2.55-2.171 2.367-5.472 1.217-8.78-1.504-4.303-5.505-4.896-9.546-4.824-4.42.072-8.104 2.295-11.833 4.229-5.296 2.752-10.212 3.419-14.501-1.738a16.964 16.964 0 0 0-2.55-2.359c-.223-.125-.432-.262-.654-.405.104-.327.21-.653.249-1.014-1.256-5.648-5.545-8.761-9.912-11.788h-4.72c-3.91 0-7.833 0-11.755-.007-4.734-2.688-9.468-2.722-14.214.007v.006c-7.885-.039-13.115 5.171-18.829 9.454-5.871 4.603-11.964 8.853-18.868 11.781a769.34 769.34 0 0 0-2.327 4.753c-2.38 3.119-4.76 6.236-7.14 9.361-.771.797-1.543 1.596-2.327 2.387-2.511 3.929-2.511 7.863-.026 11.807.014.778.026 1.557.039 2.341 0 1.569-.013 3.14-.013 4.714.758 3.133 1.517 6.258 2.262 9.39-.979 1.216-2.092 2.358-2.929 3.668-4.93 7.728-8.042 16.103-8.408 25.313-.287 7.173 5.598 9.604 10.277 13.076 1.281.941 2.014 3.446 1.962 5.204-.235 8.578 5.491 9.16 11.794 9.355 7.23.229 13.898-1.891 20.425-4.682 3.558-2.289 6.407-1.269 9.152 1.604 1.596 1.66 3.296 2.313 4.942 1.425.024.556.053 1.104.077 1.653.274 3.398-.536 7.813 3.271 9.219 5.896 2.188 6.8-5.106 10.801-6.858h.013c.693-.745 1.033-1.491 1.062-2.235.223-.093.443-.178.654-.269 8.133-8.159 9.32-19.985 15.416-29.224 1.031-3.467 4.668-6.446 2.89-10.454 4.733.811 6.733-1.092 6.276-5.479 1.02.83 2.234 1.27 3.557.896 13.313-3.772 22.333 1.386 29.368 12.664 5.646 9.055 13.911 11.978 24.06 6.988.575-.28 1.163-.563 1.752-.851 1.49.728 3.321.739 5.126.837 10.933.131 21.273 1.497 26.938 12.749 3.086 10.336 1.606 14.056-7.688 16.776-7.871 2.308-16.188 4.771-24.269 2.576-15.3-4.172-26.779.024-35.019 13.446-8.105 6.734-15.324 14.534-21.574 22.806-7.021 9.258-17.207 17.447-15.873 31.158.183.404.442.738.705 1.078-1.295.674-2.588 1.349-3.896 2.021-6.512 10.382-7.948 20.627-3.737 32.925 2.928 8.539 8.211 14.56 13.151 21.294 6.368 4.713 3.086 9.427-.013 14.141a9.036 9.036 0 0 0-1.557 1.196c-3.871 3.35-4.002 7.676-.979 11.84 3.229 4.474 6.76 2.021 9.597-1.273 7.103-6.342 12.018-2.367 15.626 3.896 3.062 5.315 6.08 10.553 10.33 15.004 1.688 6.492 2.931 13.392 10.957 15.229 10.121 2.313 29.396-9.599 30.938-19.986 1.098-7.283 4.365-12.362 9.988-16.449l.015-.007c2.393.033 4.799.061 7.179.093.745-.021 1.49-.054 2.223-.093 13.076-6.732 26.988-6.909 41.123-5.243 10.842-3.164 14.605-8.438 15.207-21.183.274-5.583-.549-12.265 6.485-14.037 5.479-1.379 9.571-5.15 14.828-6.629 2.668-1.235 5.19-2.692 7.336-4.74.745-.02 1.503-.052 2.249-.104a3.782 3.782 0 0 0 .064-2.31c16.686-.528 17.889-1.646 21.563-17.905.667-2.938 2.171-5.779 3.753-8.375 3.713-6.028 12.696-11.345 7.78-18.993-5.087-7.911-14.946-3.707-22.844-3.537-1.87.039-3.715 1.085-5.57 1.667-5.387.497-8.525 2.713-7.388 8.199-.196.085-.405.17-.604.28-.092-.099-.196-.195-.288-.302a6.18 6.18 0 0 0-3.386-.357c-2.405.854-3.309 2.89-3.976 5.104-1.739 5.59-6.119 6.982-11.297 7.126-4.041-.033-7.351 2.021-10.75 3.825-2.301 1.503-4.771 2.771-6.955 4.445.014-.309 0-.614-.053-.924-.994-4.393-4.853-4.805-8.238-5.916-4.732-1.635-5.778-4.785-3.83-9.198 7.949-10.539 21.613-17.299 25.482-29.95 4.733-15.416 14.594-27.374 21.745-41.077 2.327-4.465 6.002-8.218 1.36-13.565-2.838-3.27.193-5.87 2.72-7.644 6.302-4.419 12.905-7.61 20.478-2.602.851.737 1.713 1.51 2.551 2.273 13.049 14.161 17.848 14.586 34.688 3.016 2.419-2.146 4.746-4.361 5.219-7.808.472-4.041-.156-7.721-3.467-10.52-3.557-1.883-6.955-4.396-11.049-4.086.629-1.688.536-3.524.59-5.335-.041-3.931-.994-7.841-.234-11.788 2.092-8.355 6.654-15.998 7.229-24.778.209-3.132.327-6.453-3.269-8.106-3.073-1.412-5.312.398-7.375 2.242-3.949 3.559-7.769 7.244-13.888 7.943.34-3.818 1.963-6.57 3.009-9.486 6.342-17.724 6.354-17.718 22.567-10.226 4.459-.045 8.957.308 13.402-.451 6.289-2.399 6.941-7.754 7.008-13.409.225-5.466 1.373-10.801 2.133-16.188.064-1.388.104-2.785.104-4.18 0-7.754.365-15.541-.117-23.288-.72-11.452-7.205-17.532-18.607-17.854-5.816-.164-11.638-.065-17.469-.013-.681.046-1.387.059-2.064.085-.706-.333-1.412-.675-2.094-1.1-4.891-3.139-2.393-6.577-.393-9.964 6.982-11.742 11.716-24.55 17.548-36.828 1.675-5.492 5.648-7.813 11.114-8.523 8.97-1.17 16.711 1.223 23.327 7.322 2.771 1.745 5.662 1.975 8.683.711 1.281-.867 2.079-2 2.366-3.397 3.165 3.426 7.532 1.785 11.39 2.111 10.368.861 20.791-3.807 31.133.269 5.259.595 6.982-6.329 13.68-6.721-9.363 11.494-21.771 17.678-28.639 29.19-3.727 5.389-9.817 7.028-15.283 9.755-7.322 3.654-15.743 5.853-19.93 13.997-.353 2.552-.313 5.027 1.465 7.134.055.047.104.078.157.125-.053.024-.104.052-.184.078-.575.568-1.007 1.223-1.359 1.916-7.558 4.682-5.204 11.702-3.896 18.488l-.209.072c-.838.816-1.281 1.804-1.309 2.988 2.643 6.172 6.683 11.297 11.689 15.756 3.922 3.478 8.656 4.21 10.773-.497 2.823-6.315 11.531-8.388 11.113-16.896-.145-2.947 2.824-4.589 6.016-3.674 2.668.771 5.987 2.177 7.896.568 10.748-9.068 23.604-10.646 36.85-11.251 1.543-.563 2.979-1.36 4.443-2.079 6.695-3.798 13.704-1.608 20.621-1.348.078.092.156.171.223.262-.184.34-.341.691-.443 1.079a10.352 10.352 0 0 0 .156 3.223c1.149 3.596 1.149 7.466 2.668 10.978 2.877 3.15 6.366 5.558 9.779 8.102 13.703 10.238 14.579 16.004 4.971 30.191-.892 1.319-1.281 2.783-1.451 4.32.822 6.695 1.281 13.71 10.055 13.828.732.66 1.479 1.301 2.249 1.922.104 6.381 6.289 11.088 6.146 17.626-.144 6.354 3.847 10.447 9.401 12.2 13.272 4.178 15.508 14.161 14.736 26.066-.366 5.871-.563 11.664.915 17.533 1.831 7.258 4.682 12.323 13.416 11.56 7.676-.673 8.709 2.438 5.152 9.088-5.887 10.99-3.19 15.573 9.676 18.208 1.568.006 3.139.013 4.693.021 10.514 9.002 19.194 21.115 35.096 21.084 5.27-.015 11.468-.418 10.213-7.741-2.158-12.468 1.242-24.186 3.334-36.076 1.111-.955 2.104-2 3.099-3.073a206.312 206.312 0 0 1 3.871-5.229c2.354-3.491 5.729-6.158 7.793-9.872l.078-.503c.628.85 1.451 1.521 2.537 1.994 11.897 1.064 19.194 9.91 27.864 16.43 8.08.811 16.436.091 23.929 4.189 5.243 5.467 8.46 12.2 11.847 18.822 1.844 4.21 3.387 8.669 8.211 10.552 11.625 3.343 12.671 2.428 15.104-13.219.628-.955 1.373-1.785 2.288-2.472 3.675-3.139 8.435-1.118 12.436-2.635 2.497-1.445 3.452-3.938 4.42-6.42v-4.716c4.863-5.891 11.022-5.061 17.262-3.178 8.42 2.55 16.146 6.584 23.418 11.479a5.386 5.386 0 0 0-1.061 2.675c.979 7.27 5.884 11.265 11.979 7.942 9.729-5.296 19.301-11.656 23.535-22.923 1.255.412 2.497.333 3.7-.268 5.438-5.55 4.93-12.605 4.878-19.535-.014-8.721.052-17.437-.053-26.164-.614-4.877 1.425-10.167-2.288-14.56-2.864-4.396-4.041-9.018-3.311-14.004-41.097-65.607-97.702-120.507-164.676-159.563-.209 0-.418-.026-.628-.021h-.013c-.771 0-1.556-.007-2.341-.007-3.179-2.936-6.748-4.061-10.486-4.483-1.962-1.146-3.557-2.896-5.361-4.315-.941-.483-1.883-.935-2.89-1.288-2.523-.822-4.655-2.209-6.354-4.242-.693-.543-1.295-1.117-1.87-1.692a473.877 473.877 0 0 0-93.923-34.376 10.001 10.001 0 0 0-2.236 2.596c-2.38 1.434-3.896 3.857-4.21 7.722-1.504 1.575-1.321 3.139.026 4.7.418.341.876.667 1.333.994-.444 9.134-4.942 12.056-13.363 8.172-4.185-1.929-7.728-5.42-12.866-4.099-.419.164-.798.397-1.177.628-.681-4.25-2.118-8.199-7.035-9.029-5.727-.967-7.845 3.419-9.414 7.938-3.923 4.302-7.663 8.772-11.795 12.847-2.745 2.688-6.407 6.42-10.042 4.446-.602-.32-1.02-.661-1.334-1.007 1.924-1.395 3.832-2.825 5.754-4.243.837-.994 1.699-1.988 2.563-2.968 3.086-3.041 3.688-7.181 4.76-11.104.394-1.313.667-2.654.784-4.027 1.308-6.381-2.092-11.747-3.792-17.494.301-2.767-1.464-5.271-3.111-7.623a481.74 481.74 0 0 0-51.021-2.721c-127.541 0-243.381 50.021-328.986 131.503.367.449.761.913 1.14 1.423zm152.372 162.394c-.025.148-.064.28-.078.431-.04-.294-.053-.575-.092-.869.064.144.117.294.17.438zm17.573-81.714c1.855.697 3.608 2.131 5.491 2.792.234.301.472.595.707.914 2.223 2.97 3.844 6.375 6.444 9.067.327.405.653.817.979 1.224-3.869 9.198-10.84 14.384-22.358 13.689-.521.405-.915.896-1.255 1.432-.17 0-.34.008-.51.008-6.422.916-13.182.691-18.411 5.438.771-4.616-2.813-5.072-6.08-5.72-7.872-1.563-10.696-6.492-9.65-14.063 6.159-2.822 5.911-11.453 12.317-14.067 10.634-6.516 21.421-4.848 32.326-.714zm112.216-61.772v.007c.157-.641.301-1.281.445-1.922-.09.65-.238 1.292-.445 1.915zm-365.179 82.501a477.058 477.058 0 0 0-14.686 26.628c7.335-4.851 12.487-11.343 13.585-20.927a69.908 69.908 0 0 1 1.101-5.701z"/><path d="M2271.193 1362.239c6.616-20.987 10.854-43.019 26.559-60.277 5.715-6.291 8.748-14.9 8.591-23.896-.17-9.408.759-18.757.89-28.132-.798-1.707-2.104-2.759-3.87-3.189v-.234c6.563-2.831 12.018-7.205 17.182-12.049 4.892-4.583 10.159-8.99 17.207-9.231 11.402-.386 14.775-7.282 14.488-17.109-.234-8.296 1.358-15.143 9.049-20.148 5.543-3.596 11.192-8.846 7.924-16.462-3.217-7.532-10.407-6.349-17.299-5.931-24.885 1.522-35.107-6.896-34.795-27.91 13.887-15.984 37.775-15.686 51.754-31.709 1.164-1.34 4.42-1.125 6.721-1.195 10.904-.313 17.272-5.871 19.457-16.437v-.008c.76-.797 1.529-1.588 2.303-2.38 4.393-1.347 7.008-4.444 8.29-8.708 1.961-6.551 3.815-13.142 5.728-19.712 18.658-2.262 18.658-2.262 16.502 15.854-2.224 18.896 4.104 26.218 21.077 24.359l4.825 6.931c5.688 11.593 8.055 11.933 16.514 2.359 2.732-7.531 4.133-16.057 13.43-18.687a482.399 482.399 0 0 0 8.802-34.854c-.314-1.805-.668-3.615-1.009-5.42-.759-.013-1.528-.021-2.287-.025-2.512-6.885-6.368-11.017-14.239-7.055v.006c-4.484-.137-8.146-2.32-11.702-4.732-.025-1.563-.054-3.125-.079-4.688v-2.374c1.046-.601 2.472-1.007 4.158-1.28 1.674-.557 3.309-1.216 4.731-2.288 4.707-6.644 8.787-13.565 9.781-21.876-.563-2.896-2.21-5.434-2.746-8.321-.994-5.009-.76-10.003.078-14.973 1.164-9.801-1.15-17.979-10.723-22.745-1.518-.176-3.009-.28-4.459-.052-4.552-2.27-9.926-1.249-14.973-1.497-4.302-.269-7.087 2.993-10.604 4.519-3.465 2.479-6.211 5.498-7.219 9.787-.666 3.962-3.047 7.957-1.308 11.873-1.348-.36-2.785-.31-4.119-.739-1.569-.642-3.241-1.033-4.864-1.557-.052-1.98.186-4.111.445-6.236 1.856-3.576 1.543-7.865 1.647-11.879.039-2.118.063-4.236.091-6.354.327-5.243.419-10.479.04-15.703-.026-4.19-.053-8.382-.104-12.579.156-10.376-4.512-18.488-11.859-25.349-18.098-12.383-38.729-9.14-58.774-9.578a56.852 56.852 0 0 0-.131-2.184c-1.519-.053-3.048-.092-4.576-.138-9.23-12.639-8.604-17.991 2.667-22.83 17.928-7.694 29.081-31.808 23.21-50.171-1.189-2.902-2.313-5.826-3.557-8.695-2.04-4.701-5.062-8.684-10.709-6.329-5.283 2.196-4.446 6.95-2.313 11.062 3.621 6.989.521 11.834-4.25 16.673-4.629 4.682-10.436 8.545-12.188 15.521v-.007c-1.83 9.715-5.688 17.147-16.775 19.437-5.647 1.17-8.354 6.152-8.095 12.601.785 19.247-3.87 24.184-22.987 24.556-9.467.188-18.789.497-26.752 6.342-.313.099-.627.32-.94.7-6.226.816-12.461 1.628-18.698 2.445-4.523 2.642-8.236.582-11.663-2.242-3.426-2.817-6.839-2.759-10.879-1.196-9.546 3.693-12.018 1.727-14.292-8.722-.902-4.14 1.869-10.206-2.079-12.089-8.604-4.112-16.477-11.317-25.235-12.749-11.035-1.806-17.144-5.956-19.691-16.292-.614-2.445-1.908-4.25-4.576-4.707a7.05 7.05 0 0 0-1.397.443c-.72-2.837-1.427-5.676-2.146-8.513-.014-2.354-.024-4.714-.04-7.066 1.7-2.444 1.072-4.948.157-7.453-3.479-8.23-3.189-16.959-3.857-25.647-1.11-14.541-10.577-19.208-22.659-11.749-3.373 2.079-6.824 4.388-10.724 4.616-13.78.791-25.692 9.584-39.881 8.982-1.986-.085-4.014.574-5.896 1.681-.248-.079-.483-.149-.731-.235a10.924 10.924 0 0 0-3.519-.844 6.048 6.048 0 0 0-3.32 1.398 5.277 5.277 0 0 1-.731.785c.104-.288.223-.536.273-.87-.354-2.061-1.582-3.399-3.466-4.218-1.518-.308-3.061-.504-4.614-.646-28.152-2.682-45.568 21.431-34.561 47.478 3.27 7.741 7.57 15.515 5.179 24.557-.054 2.04.053 4.066.784 6.002 7.021 10.305 12.029 11.618 26.388 6.924 1.752-1.047 3.125-2.465 4.42-4.015a21.425 21.425 0 0 0 1.765-3.452c2.551-4.511 1.426-9.648 2.498-14.422 1.333-2.295-3.675-8.303 3.491-6.981 9.506 1.759 17.392-.739 24.529-6.846 2.302-1.968 4.941-1.851 7.545-.433 3.688 1.852 6.604 5.897 11.452 4.473 1.479 9.454 6.695 16.215 15.744 19.542 7.505 2.752 12.944 6.343 12.238 15.501-.262 3.32 1.438 6.074 5.531 6.035.052-.021.117-.04.17-.06v8.061c.195 3.354-.444 6.864 1.02 9.971-.418-.046-.822-.104-1.255-.06-1.909.438-3.295 1.629-4.446 3.158a11.063 11.063 0 0 0-1.229 3.504c-2.89 8.362-3.008 16.757-.314 25.185.236 1.203.498 2.398.761 3.59.262 22.765 17.362 33.826 32.35 46.269 2.853 2.367 6.563 2.151 10.042.497.915-.529.969-1.805 2.066-2.308h.039c-.225.66-.327 1.497-.274 2.347.209.464.433.94.643 1.398 1.922 1.915 4.614 2.845 6.446 4.924 3.868 6.087 8.434 8.361 15.322 3.909 5.938-3.844 10.997-1.936 14.488 4.133.654.89 1.353 1.747 2.092 2.568 2.473 3.034 5.623 3.444 9.153 2.38a6.345 6.345 0 0 0 2.302-2.367c.522-3.359 2.274-5.988 4.891-8.101 4.235-5.349 8.106-5.583 11.455.85.992 1.89.992 4.427 3.398 5.328.078 1.085.104 2.189.117 3.303-1.529 4.917-.993 9.819 1.777 14.717.563 1.739 1.139 3.484 1.699 5.225 0 1.543.405 3.197.799 4.937 1.309 5.813 3.084 11.925-1.908 17.136-5.296 1.341-8.578-2.902-12.736-4.688-3.242-1.386-6.407-3.308-9.362-1.334-1.372-4.04-4.89-6.551-7.793-9.361-5.256-5.105-11.925-5.683-16.554-.189-8.645 10.284-20.148 15.562-31.787 20.947-10.354 8.119-19.339 18.221-33.095 21.313-4.027.902-5.544 4.995-6.119 9.199-1.373 9.932-6.041 18.136-14.593 23.451-5.112 3.177-8.277 7.662-8.553 13.063-.955 19.06 1.466 38.432-5.728 56.81-2.864-1.511-5.519.124-8.251.765a16.377 16.377 0 0 0-2.969 1.824c-2.146 1.641-4.445 2.688-6.854 3.406-3.87-.157-7.738-.465-11.609-.987-13.129-1.759-21.224 6.009-20.738 18.711-.223.85-.444 1.739-.68 2.688-.551 2.257-1.072 4.519-1.896 6.688-.444 1.013-.929 2.014-1.398 3.014-2.381 4.807-6.722 7.545-10.972 10.351-6.498 6.394-2.589 11.362 2.236 16.208.733.37 1.518.63 2.327.771.654 1.76 1.582 3.218 3.621 2.767 2.394-.543 2.59-2.327 2.498-4.288.131-.085.262-.157.393-.255a14.776 14.776 0 0 0 2.824-2.225c7.453-8.825 17.914-6.668 27.538-7.563 2.131-.542 3.948-1.813 5.962-2.622 5.597-4.949 12.068-7.271 19.535-6.52.993.007 2.014.007 3.008.007.131.163.248.333.418.489 10.932 2.033 21.863 4.374 32.479-.496.287.039.589.084.89.125 6.041 6.438 13.6 5.799 21.039 5.604 5.071 3.596 4.381 10.048 2.812 25.955-.522 5.327-.968 10.873 1.295 15.665.457 2.654 1.033 5.309 1.647 7.957-1.271 2.817-.536 6.27-1.271 9.258-.667 5.93-3.033 11.487-9.283 12.036-10.982.98-17.364 7.978-23.93 15.338-2.432 2.746-4.628 6.786-9.492 2.813-6.537-5.335-11.599-2.303-15.678 3.608-2.263 3.282-4.904 6.067-8.251 8.226-5.204 3.32-8.499 7.676-9.01 14.147-.274 3.622-2 7.257-6.577 6.523-4.236-.681-7.793-.077-10.904 1.321-.627.013-1.241.025-1.855.013-5.52 1.856-10.539 3.976-9.375 9.311l-1.399 1.596a11.457 11.457 0 0 0-1.726 2.798c-.55 2.146-.472 4.341-.497 6.538-1.519 8.723 5.413 15.795 4.731 24.348-.053 1.02-.144 2.04-.223 3.06-.365 3.531-1.32 6.904-2.745 10.135-1.202 2.798-2.668 5.505-2.813 8.644-.077 1.347-.496 2.615-.94 3.87 76.127-5.662 147.271-29.187 209.29-66.372.098-.391.229-.743.334-1.098zm-143.076-19.509c.104.052.184.091.287.145v.014c-.341.013-.652.024-.979.052.226-.086.457-.156.692-.211zm-518.531-156.228c7.322-4.257 11.978-.777 14.904 5.8 2.197 4.923 6.018 8.218 9.951 11.407 5.768 4.694 9.375 1.761 11.338-4.117 1.047-3.094-.185-6.191-1.518-9.088a29.788 29.788 0 0 1-1.753-6.722c-.026-.248 0-.471 0-.712.55-.948 1.125-1.896 1.896-2.647.653-.851 1.31-1.692 1.977-2.543 4.732-5.19 10.8-7.485 17.639-8.106 2.813-.249 5.74-.262 7.885-2.158-.063.235-.104.458-.194.693-.093.234.379.652.589.953 9.087 5.066 16.972 3.015 24.007-4.072 7.349-14.834 7.924-29.002-.418-44.294-16.502-30.218-23.026-63.881-29.733-97.172-5.438-26.949-6.291-54.487-5.623-81.985.17-7.329-1.178-13.2-10.354-13.021-9.849-.798-14.566-6.669-15.718-15.966-1.504-12.135-11.926-8.943-19.155-11.142-7.244-2.203-8.724 2.818-9.729 8.211-.979 5.237-4.852 5.395-8.957 5.054-13.99.373-16.316 1.987-19.339 14.782-2.053 8.695-6.313 15.652-13.795 20.673-2.433 1.643-5.178 3.236-5.858 6.544 1.438 9.997 2.25 19.883-4.511 28.435-.458-.032-.862-.026-1.347-.1a20.101 20.101 0 0 0-2.303-.34c4.693 72.982 25.785 141.486 59.64 201.883.166-.088.323-.158.479-.25zm884.3-325.836c-.354-1.783-.706-3.568-1.086-5.348a11.822 11.822 0 0 0 1.086 5.348zm-113.015 408.05c-2.627-.026-5.101.397-7.034 2.426-6.538 10.772-13.991 20.934-25.576 26.498-16.396 7.878-25.942 20.979-33.356 35.782a480.516 480.516 0 0 0 73.33-69.275c-3.334.462-6.448 1.32-7.364 4.569z"/></g><path fill="#090909" d="M1109.984 2495.44l-20.481-3.546 9.222-28.759 12.249 2.129-.99 30.176zm66.671-6.491l19.809-6.289-13.024-27.24-11.86 3.758 5.075 29.771zm-113.415-3.757l-19.362-7.571 14.804-26.32 11.577 4.533-7.019 29.358z"/><path fill="#212121" d="M619.065 2672C677.149 2609.724 768 2572 920 2496s476.172-208 862.086-60 606.146 184 606.146 184S2644 2700 2420 2776 425.065 2880 619.065 2672z"/><path fill="#212121" d="M2231.611 2539.348c-1.122-42.125-38.454-81.313-47.345-129.802-8.893-48.504 39.997-119.979 49.996-165.924 9.999-45.943 24.432-17.851 72.211-66.37 47.794-48.487 61.118-22.956 116.669-42.108 55.563-19.139 54.44-38.291 76.656-86.781 22.228-48.488 86.669-37.002 86.669-37.002s3.324 17.85 2.229 25.518c-1.122 7.667 6.661 16.577 12.217 39.549 5.555 22.986 45.552 8.94 71.104 0 25.552-8.926 34.443 19.152 34.443 19.152s-1.108-19.152-14.445-37.003c-13.323-17.864-25.552-2.562-57.778 0-32.229 2.546-8.879-16.593-14.433-29.366-5.555-12.759-8.894-45.941-4.459-61.246 4.445-15.32 38.902-35.73 57.793-51.053 18.877-15.317 63.32-38.291 82.211-48.504s36.66-35.729 47.768-65.081c11.12-29.351 30.012-40.838 22.229-39.563-7.783 1.272-34.443 8.938-41.105 35.729-6.659 26.791-33.336 51.052-61.116 59.977-27.781 8.939-33.321 15.335-33.321 15.335s-7.782-16.606-25.552-33.186c-17.782-16.607-21.121-8.938-12.229-20.426s-1.106-40.837-1.106-40.837-8.893 34.457-16.675 45.941c-7.771 11.486 34.456 40.837 37.78 53.596 3.337 12.761 12.229 16.594-39.997 34.458-52.213 17.882-43.321 48.505-68.888 56.156-25.553 7.666-39.996 5.106-73.332 21.699-33.322 16.592-56.658 85.507-94.428 105.919-37.779 20.427-115.561 29.366-155.558 37.02-39.998 7.65-78.45 107.541-78.45 107.541s-2.336-11.698 5.437-49.99c5.987-29.456-10.384-93.055-18.271-120.874-2.255-31.245-14.261-55.552-30.934-126.83-19.999-85.492 45.563-107.191 72.224-112.313 26.661-5.094 74.441-54.869 92.225-67.644 17.771-12.76 49.982-98.253 56.658-112.299 6.661-14.046 12.229-82.963 3.337-117.42-8.891-34.458 45.552 15.318 48.875 14.047 3.338-1.288 48.89 15.318 78.888 24.244 29.998 8.925 61.116-10.213 96.668-34.457 35.555-24.262 46.659-16.594 46.659-16.594s5.566 6.38-2.217-5.105c-7.782-11.485-34.443-8.925-62.226 7.652-27.771 16.593-59.996 29.364-78.888 19.151-18.878-10.214-65.55-29.366-69.995-29.366-4.443 0-43.335-21.685-15.553-52.309 27.77-30.639 36.659-111.041 36.659-111.041s7.782-29.351 26.675-42.125c18.876-12.759 47.768 5.121 73.331 3.85 25.554-1.287 18.894-28.095 22.216-40.854 3.324-12.758 6.676-17.864 25.553-24.245 18.892-6.395 24.443-29.351 24.443-29.351-3.322 12.759-35.552 17.864-51.104 22.972-15.553 5.108-7.783 30.624-24.444 42.109s-45.551-3.817-66.658-2.545c-21.118 1.271-45.551 20.41-45.551 20.41s-12.229-28.077-26.674-44.655c-14.433-16.607 16.675-22.972 21.105-37.019 2.915-9.197-.832-19.396-3.771-25.412 4.113 13.789-15.237 32.153-32.889 44.551-19.998 14.047-4.444 34.458 18.892 56.156 23.336 21.697 5.554 82.962 5.554 113.586 0 30.64-45.551 42.125-61.104 61.263-15.565 19.138-33.35 38.292-23.336 82.962 9.999 44.656-17.782 108.465-49.996 158.242-32.215 49.777-53.335 53.597-102.225 63.809-48.889 10.213-45.551 15.32-66.656 12.76-21.119-2.547-33.335-118.679-51.118-202.911-17.771-84.235 58.889-109.752 72.226-117.421 13.336-7.652 27.771-15.306 36.659 6.395 8.894 21.699 23.336 38.276 39.998 44.671 16.674 6.364 29.997 25.519 28.89 19.123-1.106-6.364 1.107-29.336-24.443-34.458-25.553-5.091-23.322-38.275-36.658-58.703-13.338-20.41-38.892 5.122-47.781 2.563-8.891-2.563-1.107-16.594 8.893-59.99 9.998-43.383-5.555-58.703-5.555-58.703s1.108 62.536-14.445 102.101c-15.564 39.563-41.104 31.911-78.887 65.098-37.779 33.169-23.336 58.702-13.337 95.706 10 37.004 6.677 62.536-19.999 54.884-26.659-7.666-45.551-89.341-54.441-119.979-8.892-30.608-21.104-93.159-21.104-93.159s-5.554-25.518-2.229-45.943c3.34-20.411 22.229-24.245 26.676-51.034 4.443-26.807-6.676-35.746-6.676-35.746 7.782 15.318 6.676 35.746-16.66 54.869-20.978 17.213-19.524 46.579-19.012 52.383-.604-4.622-4.854-22.531-34.324-49.822-34.442-31.896-85.547-28.078-104.426-33.186-18.891-5.105-8.892-37.004-8.892-37.004-18.892 40.838-13.337 59.976 55.55 67.627 68.891 7.652 78.889 63.823 89.994 99.556 11.107 35.729 6.662 67.644 6.662 67.644-39.997 5.091-49.996 48.489-58.888 49.762-8.892 1.273-24.444-37.003-29.985-61.248-5.564-24.26-57.792-29.365-87.775-37.018-29.998-7.652-31.106-34.458-31.106-34.458-16.661 10.197-6.674 37.02 22.215 47.216 28.892 10.213 41.106 14.047 74.441 31.896 33.321 17.88 14.442 42.124 39.997 66.369 25.552 24.244 54.44-30.624 72.211-38.276 17.783-7.666 21.121 42.109 34.457 96.994 13.324 54.868 59.996 44.655 84.428 67.644 24.443 22.957 43.334 137.814 50.01 205.458 3.021 30.687 12.215 68.704 21.568 104.798-19.749-22.031-42.953-44.579-58.492-69.854-33.178-53.99-87.078-46.051-125.783-50.821-38.703-4.761-64.969-23.808-82.937-34.913-17.967-11.121-23.508-103.224-38.704-123.858-15.21-20.641-31.793-20.641-89.849-22.216-58.058-1.59-85.694-11.122-106.433-52.397-20.736-41.276 35.09-63.399 37.318-112.737 1.161-25.607-29.034-55.565-41.461-71.445-12.439-15.865-1.385-74.627-4.156-63.505-2.77 11.105-6.91 34.911-12.438 53.975s22.109 44.458 30.421 69.871c8.297 25.396-19.365 44.442-29.035 60.323-9.67 15.88-17.968 57.155 19.353 117.494 37.318 60.34 149.276 19.063 174.172 44.459 24.88 25.412 24.88 88.918 24.88 88.918s-37.333-6.351-80.181-15.881c-42.848-9.518-105.047 52.397-117.498 55.581-12.439 3.166-60.813-46.051-88.451-55.581-27.648-9.518-58.057 19.063-81.551 22.229-23.508 3.166-47.003-20.64-53.916-39.688-6.912-19.063-24.879-50.821-31.791-60.341-6.912-9.529-19.841-21.137-43.334-25.909-23.508-4.76-50.656-24.896-50.656-24.896s32.199 35.549 64.283 52.793c25.618 13.758 40.023 62.642 59.377 103.918 19.353 41.292 53.269 16.351 87.829 11.592 34.563-4.758 35.936-17.47 71.869 6.353 35.935 23.804 47.002 28.577 47.002 28.577s-4.153 14.288-9.683 22.229c-5.527 7.939-40.076 58.748-49.76 63.521-9.67 4.758-31.793 31.743-31.793 46.032s-22.123 25.396-40.09 23.821c-17.967-1.605-26.25 15.88-29.021 31.744-2.771 15.88-33.179 25.412-33.179 25.412s-11.055 1.574 5.527 3.166c16.596 1.591 40.09-14.289 41.475-33.335 1.371-19.048 34.55-4.773 55.287-15.882 20.736-11.105 16.582-25.412 30.405-25.412 13.825 0 31.979 42.154 34.38 62.461 1.332 11.351-11.899 23.002-27.098 34.125-15.21 11.105-5.896 35.199-5.896 35.199-.304-25.457 24.879-30.17 37.319-39.687 12.438-9.518 17.968-46.05-4.143-74.628-22.122-28.578 12.438-63.506 22.108-87.327 9.685-23.819 85.707-85.733 107.814-98.433 22.123-12.698 82.938-3.185 96.762 3.168 13.825 6.348 70.497 41.289 87.078 44.474 16.596 3.167 70.497 3.151 70.497 3.151s-47.002 22.243-52.519 34.939c-5.525 12.698-8.297 34.93-5.539 61.916 2.771 27.003-5.525 60.339-11.056 68.278-5.526 7.94-38.705 7.94-53.901 31.762-15.209 23.805-2.771 55.565-2.771 55.565v-26.987c0-27.003 17.967-34.943 44.231-44.459 26.265-9.532 30.405-15.882 33.179-53.99 2.756-38.108 8.284-84.144 33.175-100.022 24.881-15.881 67.729-23.82 99.52 49.217 31.793 73.037-19.353 161.955-33.177 211.172-13.825 49.216 9.668 106.372 15.21 146.072 5.526 39.7 9.669 47.642-5.542 96.856-15.194 49.217 8.021 116.162-37.622 131.285-22.438 7.425-68.688 94.856-69.398 101.856h470.4c-8.249-31.761-111.344-143.53-111.816-161.652zm370.766-1983.022c-31.613 35.174-102.002 48.703-93.072 19.453 10.544-34.56-8.598-38.921-8.598-38.921s-1.836 18.014-13.637 16.792c-11.682-2.066-8.492-19.894-8.492-19.894s-19.602-1.07-18.971 35.049c.538 30.579-63.408-1.786-84.123-44.296-25.76-52.863-79.205-68.952-176.506-50.855 0 0 109.71 9.035 99.203 109.135 0 0 94.063 9.854 75.078 54.311 0 0 79.104-14.988 67.632 44.703 0 0 10.645-24.787 31.281-21.896 20.635 2.895 24.051 29.652 24.051 29.652 5.382-60.541 77.313-24.368 77.313-24.368-6.015-47.967 87.12-31.571 87.12-31.571 17.434-99.124 125.389-77.645 125.389-77.645-88.555-44.152-144.379-43.381-183.668.351zm37.084 314.463c-15.867 17.264-51.305 23.808-46.854 9.424 5.255-16.995-4.396-19.175-4.396-19.175s-.896 8.864-6.842 8.243c-5.889-1.037-4.313-9.807-4.313-9.807s-9.875-.561-9.497 17.222c.319 15.054-31.946-.981-42.45-21.942-13.063-26.063-40.014-34.071-88.999-25.323 0 0 55.281 4.627 50.153 53.885 0 0 47.397 5.005 37.908 26.856 0 0 39.824-7.248 34.145 22.115 0 0 5.321-12.184 15.723-10.726 10.399 1.458 12.164 14.636 12.164 14.636 2.611-29.793 38.905-11.868 38.905-11.868-3.108-23.622 43.835-15.396 43.835-15.396 8.619-48.767 63.037-38.015 63.037-38.015-44.679-21.879-72.798-21.592-92.519-.129zm-516.185 82.858c-3.025 23.25-28.225 49.011-32.872 34.691-5.493-16.919-14.636-13.143-14.636-13.143s4.375 7.761-.844 10.68c-5.411 2.544-9.176-5.531-9.176-5.531s-8.395 5.229 2.156 19.548c8.936 12.121-26.682 17.598-47.34 6.515-25.692-13.78-52.334-4.803-87.338 30.565 0 0 47.854-28.063 72.035 15.156 0 0 41.63-23.213 46.46.115 0 0 28.379-28.863 40.647-1.587 0 0-2.668-13.024 6.674-17.825 9.343-4.798 18.375 4.957 18.375 4.957-15.026-25.856 24.967-32.11 24.967-32.11-16.148-17.52 26.962-37.837 26.962-37.837-21.044-44.826 29.632-67.386 29.632-67.386-49.125 7.855-71.947 24.288-75.702 53.192z"/><path fill="#212121" d="M1045.252 2472.992c-.609-22.854-20.865-44.119-25.689-70.43-4.824-26.316 21.702-65.1 27.127-90.028 5.426-24.929 13.257-9.686 39.182-36.012 25.935-26.312 33.162-12.456 63.306-22.849 30.146-10.387 29.54-20.777 41.593-47.088 12.061-26.311 47.025-20.076 47.025-20.076s1.805 9.685 1.209 13.846c-.607 4.159 3.615 8.994 6.627 21.458 3.016 12.473 24.718 4.853 38.582 0 13.863-4.843 18.688 10.394 18.688 10.394s-.601-10.394-7.838-20.077c-7.229-9.693-13.864-1.39-31.351 0-17.486 1.382-4.816-9.003-7.832-15.936-3.012-6.923-4.822-24.929-2.418-33.23 2.412-8.313 21.108-19.39 31.357-27.7 10.242-8.313 34.357-20.775 44.607-26.318 10.25-5.541 19.892-19.386 25.918-35.313 6.034-15.926 16.284-22.158 12.061-21.469-4.223.69-18.688 4.853-22.304 19.389-3.614 14.535-18.088 27.699-33.162 32.542-15.075 4.851-18.081 8.319-18.081 8.319s-4.223-9.012-13.863-18.006c-9.647-9.012-11.461-4.851-6.637-11.082 4.825-6.231-.601-22.158-.601-22.158s-4.825 18.695-9.047 24.93c-4.216 6.23 18.694 22.156 20.5 29.08 1.811 6.923 6.635 9.003-21.702 18.695-28.331 9.701-23.506 26.318-37.378 30.472-13.865 4.159-21.702 2.771-39.79 11.772-18.081 9.002-30.743 46.396-51.235 57.473-20.5 11.082-62.702 15.934-84.403 20.086-21.703 4.149-42.565 58.351-42.565 58.351s-1.269-6.348 2.948-27.124c3.248-15.982-5.635-50.489-9.914-65.586-1.225-16.952-7.737-30.143-16.784-68.816-10.853-46.388 24.723-58.162 39.188-60.938 14.466-2.764 40.393-29.771 50.041-36.702 9.642-6.924 27.12-53.313 30.742-60.934 3.614-7.621 6.635-45.016 1.812-63.711-4.823-18.697 24.717 8.313 26.521 7.621 1.812-.698 26.526 8.313 42.803 13.154 16.277 4.843 33.162-5.542 52.452-18.695 19.291-13.164 25.317-9.004 25.317-9.004s3.02 3.462-1.203-2.771c-4.224-6.231-18.688-4.843-33.763 4.151-15.068 9.004-32.556 15.934-42.806 10.393-10.243-5.542-35.565-15.936-37.979-15.936-2.412 0-23.514-11.766-8.438-28.382 15.067-16.624 19.892-60.249 19.892-60.249s4.224-15.927 14.475-22.856c10.242-6.923 25.917 2.778 39.789 2.089 13.865-.699 10.25-15.243 12.054-22.167 1.804-6.922 3.621-9.692 13.864-13.154 10.25-3.47 13.263-15.926 13.263-15.926-1.804 6.923-19.29 9.692-27.729 12.465-8.438 2.771-4.224 16.615-13.263 22.849-9.04 6.232-24.716-2.07-36.168-1.381-11.459.689-24.716 11.073-24.716 11.073s-6.635-15.233-14.473-24.229c-7.831-9.011 9.048-12.464 11.453-20.086 1.582-4.99-.451-10.523-2.047-13.787 2.231 7.479-8.27 17.446-17.846 24.172-10.852 7.623-2.412 18.696 10.25 30.471 12.661 11.773 3.014 45.016 3.014 61.631 0 16.625-24.715 22.857-33.154 33.241-8.446 10.385-18.094 20.776-12.662 45.015 5.425 24.23-9.648 58.854-27.128 85.861-17.479 27.008-28.938 29.081-55.465 34.622-26.526 5.542-24.716 8.313-36.169 6.923-11.459-1.381-18.086-64.395-27.735-110.099-9.642-45.706 31.953-59.552 39.188-63.712 7.235-4.152 15.066-8.306 19.892 3.47 4.825 11.774 12.662 20.769 21.703 24.237 9.047 3.453 16.276 13.847 15.675 10.377-.602-3.453.602-15.918-13.263-18.696-13.864-2.763-12.655-20.77-19.892-31.854-7.236-11.073-21.103 2.778-25.927 1.392-4.823-1.392-.601-9.004 4.824-32.552 5.425-23.538-3.013-31.853-3.013-31.853s.601 33.933-7.838 55.398c-8.446 21.468-22.305 17.313-42.806 35.32-20.499 17.997-12.662 31.853-7.235 51.93 5.427 20.078 3.623 33.933-10.853 29.779-14.465-4.159-24.715-48.477-29.54-65.102-4.825-16.607-11.452-50.548-11.452-50.548s-3.013-13.846-1.21-24.93c1.813-11.073 12.063-13.154 14.475-27.69 2.412-14.545-3.621-19.396-3.621-19.396 4.223 8.313 3.621 19.396-9.041 29.771-11.381 9.34-10.594 25.271-10.314 28.422-.329-2.508-2.634-12.226-18.625-27.033-18.688-17.307-46.417-15.233-56.66-18.006-10.25-2.771-4.824-20.078-4.824-20.078-10.25 22.158-7.235 32.543 30.142 36.695 37.378 4.15 42.803 34.629 48.83 54.018 6.026 19.388 3.614 36.702 3.614 36.702-21.702 2.762-27.127 26.311-31.951 27-4.824.691-13.266-20.077-16.271-33.23-3.021-13.163-31.355-15.936-47.627-20.088-16.275-4.15-16.878-18.694-16.878-18.694-9.04 5.532-3.621 20.086 12.054 25.619 15.678 5.541 22.306 7.62 40.394 17.307 18.081 9.702 7.837 22.854 21.702 36.012 13.863 13.155 29.539-16.614 39.181-20.769 9.649-4.16 11.46 22.849 18.696 52.629 7.229 29.771 32.554 24.229 45.81 36.702 13.265 12.456 23.515 74.776 27.136 111.479 1.64 16.649 6.629 37.278 11.702 56.862-10.716-11.954-23.306-24.188-31.737-37.902-18.002-29.295-47.248-24.986-68.25-27.576-21-2.582-35.25-12.916-45-18.941-9.748-6.035-12.754-56.009-21-67.205-8.252-11.199-17.25-11.199-48.75-12.056-31.502-.861-46.497-6.033-57.75-28.432-11.252-22.396 19.039-34.398 20.25-61.171.63-13.895-15.754-30.148-22.496-38.767-6.75-8.607-.751-40.492-2.256-34.457-1.502 6.024-3.75 18.942-6.75 29.286-2.998 10.343 11.998 24.123 16.507 37.91 4.501 13.779-10.509 24.113-15.755 32.73-5.246 8.616-9.75 31.014 10.5 63.752 20.25 32.739 80.998 10.344 94.504 24.123 13.5 13.789 13.5 48.246 13.5 48.246s-20.258-3.444-43.506-8.616c-23.248-5.164-56.996 28.431-63.752 30.158-6.75 1.718-32.998-24.986-47.993-30.158-15.003-5.164-31.501 10.343-44.249 12.063-12.756 1.718-25.504-11.198-29.254-21.533-3.75-10.344-13.5-27.576-17.25-32.74-3.75-5.171-10.767-11.469-23.515-14.059-12.755-2.582-27.485-13.51-27.485-13.51s17.473 19.289 34.881 28.646c13.898 7.466 21.716 33.988 32.217 56.386 10.5 22.404 28.902 8.871 47.656 6.289 18.753-2.582 19.498-9.479 38.996 3.445 19.498 12.916 25.502 15.506 25.502 15.506s-2.254 7.754-5.254 12.063c-2.998 4.31-21.744 31.877-26.998 34.467-5.248 2.581-17.25 17.227-17.25 24.979 0 7.754-12.005 13.78-21.755 12.927-9.749-.872-14.243 8.616-15.745 17.225-1.505 8.615-18.002 13.789-18.002 13.789s-5.998.854 3 1.719c9.004.861 21.752-7.754 22.502-18.088.744-10.336 18.748-2.592 30-8.616 11.252-6.026 8.995-13.789 16.498-13.789 7.502 0 17.351 22.873 18.652 33.892.725 6.158-6.457 12.48-14.702 18.517-8.253 6.027-3.198 19.101-3.198 19.101-.166-13.813 13.5-16.371 20.25-21.533s9.748-24.985-2.248-40.491c-12.004-15.507 6.75-34.458 11.996-47.384 5.254-12.926 46.504-46.521 58.5-53.408 12.004-6.893 45.002-1.729 52.502 1.719 7.502 3.444 38.252 22.403 47.248 24.131 9.006 1.72 38.252 1.711 38.252 1.711s-25.504 12.068-28.496 18.959c-2.999 6.89-4.502 18.951-3.006 33.597 1.502 14.648-3 32.737-5.998 37.047-3 4.31-21.002 4.31-29.247 17.233-8.253 12.916-1.503 30.148-1.503 30.148v-14.645c0-14.65 9.748-18.961 24-24.123 14.25-5.173 16.498-8.617 18.002-29.295 1.494-20.679 4.494-45.656 18-54.271 13.5-8.616 36.748-12.926 53.998 26.704s-10.5 87.876-18 114.581c-7.502 26.704 5.246 57.717 8.253 79.259 2.999 21.541 5.245 25.852-3.007 52.554-8.246 26.705 4.353 63.029-20.414 71.234-12.176 4.029-37.271 51.47-37.655 55.268h255.237c-4.48-17.243-60.418-77.887-60.676-87.721zm1271.145 148.703l-1.492-135.56 49.075-57.189 76.233 19.813 9.5 77.172-59.447 114.96-73.869-19.196zM721.107 967.097c-21.442 42.15-85.938 73.42-84.877 42.854 1.25-36.108-18.367-35.374-18.367-35.374s2.884 17.876-8.831 19.746c-11.816 1.024-13.349-17.021-13.349-17.021s-19.21 4.032-9.263 38.761c8.428 29.4-61.717 14.671-92.717-21.038-38.552-44.405-94.34-46.129-183.651-3.488 0 0 108.313-19.64 124.048 79.773 0 0 93.41-14.802 86.566 33.049 0 0 72.538-34.932 76.892 25.696 0 0 3.872-26.695 24.557-29.238 20.682-2.54 30.899 22.426 30.899 22.426-10.455-59.874 68.381-43.527 68.381-43.527-18.212-44.781 75.995-53.023 75.995-53.023-8.789-100.26 101.049-107.425 101.049-107.425-96.96-19.753-150.685-4.576-177.332 47.829z"/><g fill="#212121"><path d="M820.985 2471.175c-.331-1.052-.674-2.091-1.017-3.14l-.013-.022c-.112-.365-.238-.719-.363-1.072l-.206-.614c-.524-1.521-1.05-3.05-1.609-4.565-.011-.022-.011-.046-.021-.069-.014-.033-.022-.068-.034-.091a225.963 225.963 0 0 0-9.085-21.31 214.174 214.174 0 0 0-17.6-29.723 219.52 219.52 0 0 0-5.342-7.179 204.253 204.253 0 0 0-3.664-4.543 181.565 181.565 0 0 0-5.627-6.426 148.693 148.693 0 0 0-5.752-5.946 97.809 97.809 0 0 0-1.939-1.872 134.696 134.696 0 0 0-9.826-8.491 63.171 63.171 0 0 0-1.977-1.519c-18.513-13.879-37.437-19.62-52.72-14.027-15.282 5.604-26.011 22.199-31.183 44.753a146.62 146.62 0 0 0-.535 2.441 139.256 139.256 0 0 0-2.01 12.828 92.711 92.711 0 0 0-.273 2.684 157.971 157.971 0 0 0-.548 8.252 179.163 179.163 0 0 0 0 14.382c.114 2.944.297 5.923.56 8.925.171 2.01.365 4.029.605 6.063a214.537 214.537 0 0 0 3.65 21.709c.469 2.089.972 4.188 1.495 6.289a224.98 224.98 0 0 0 6.825 22.131l.034.104c.012.021.021.045.034.067a193.33 193.33 0 0 0 1.712 4.521c.08.193.159.398.239.604l.409 1.05a.041.041 0 0 1 .013.034c.412 1.015.83 2.027 1.257 3.036.011.021.021.057.034.08.066.171.137.331.205.502h.012-.012a219.71 219.71 0 0 0 3.229 7.281v.012c.423.879.834 1.758 1.256 2.637.013.034.034.059.046.092.411.867.847 1.734 1.269 2.592.012.021.021.047.033.068 4.384 8.801 9.232 17.086 14.438 24.756.012.021.022.047.046.068.502.741 1.004 1.473 1.52 2.202.021.034.046.08.08.114.502.719 1.004 1.438 1.518 2.156.023.021.046.058.068.092 4.233 5.878 8.662 11.354 13.218 16.379.045.046.091.091.137.147.502.56 1.017 1.105 1.529 1.653.092.093.171.184.263.286.49.514.98 1.024 1.473 1.54.104.113.219.229.33.343.479.491.959.981 1.438 1.461l.364.365c.479.479.959.959 1.438 1.427.114.104.229.218.342.319.491.479.993.959 1.484 1.427.091.08.171.16.263.24.422.398.846.799 1.269 1.187.011 0 .021.013.034.022.091.08.183.16.271.252a179.162 179.162 0 0 0 3.618 3.173c.012.012.034.022.046.046 1.096.912 2.191 1.804 3.275 2.67.104.08.192.16.285.229.112.093.229.184.342.273.059.045.127.092.193.148.273.217.562.434.846.639.172.137.343.272.515.397.137.104.285.218.422.319l.137.104c.24.172.479.354.722.523.205.148.408.311.614.457l.516.376c.034.022.057.034.091.06.206.146.411.283.616.434.229.16.443.319.674.468.205.148.411.298.604.436.023.012.048.021.06.034l.522.354c.24.159.471.309.708.469.229.158.47.318.696.469.104.066.205.125.297.183.058.046.114.08.171.114.24.158.491.308.73.468.263.16.523.331.788.502.091.046.171.104.262.147l.104.068c.237.147.488.297.729.435.297.184.593.364.891.537l.239.137c0 .012.011.012.011.012.252.148.491.285.742.423.331.184.662.377.993.561.058.034.104.057.159.092.218.113.435.229.65.344.389.217.774.434 1.164.627.147.08.297.147.444.229.354.185.719.365 1.072.536.114.057.217.113.331.171.046.022.08.046.126.067.146.068.285.127.434.193.159.08.319.16.49.229.274.137.56.271.834.398.079.033.147.067.217.104.185.08.376.159.57.239.067.034.137.058.205.092.297.137.594.263.901.397.092.034.184.08.284.114.185.08.365.148.548.229.047.012.08.033.114.045.308.127.616.252.925.365.125.059.239.104.365.147.146.058.285.104.434.159.047.021.093.034.139.058.318.114.628.229.936.343.148.046.297.104.436.16.16.045.331.104.49.158.309.104.629.207.937.31l.514.171c.14.034.265.068.399.114.32.092.64.194.959.271.183.06.377.127.56.173.104.034.218.058.319.08.318.092.65.172.979.252.206.057.411.112.616.157.068.023.148.034.229.06.343.08.685.147 1.025.217.205.046.423.104.641.148.046.011.092.011.146.021.39.08.767.137 1.153.206.193.034.388.079.582.113h.057c.594.104 1.188.183 1.771.252.011 0 .033 0 .046.011.146.012.296.022.442.046.437.046.856.091 1.29.126.034 0 .08.012.114.012l.561.033c.364.022.729.046 1.084.06.067 0 .125.011.193.011.171.012.354 0 .536.012.343 0 .674.013 1.017.013h.264c.16 0 .318-.013.491-.013.317-.012.648-.012.97-.021.114-.014.217-.014.331-.014.137-.012.271-.021.422-.033.32-.021.64-.045.959-.08.126-.012.263-.012.388-.021.126-.012.24-.034.354-.046.317-.033.639-.08.959-.125.146-.012.296-.022.434-.046.104-.021.193-.034.285-.059.319-.045.639-.104.959-.158.011 0 .021-.012.021-.012a6.78 6.78 0 0 0 .47-.08c.066-.012.137-.034.205-.047.331-.067.661-.147.991-.217a7.77 7.77 0 0 1 .505-.113.58.58 0 0 1 .137-.045c.365-.094.719-.194 1.072-.299.183-.058.354-.103.536-.158.535-.159 1.063-.344 1.587-.524.521-.194 1.04-.4 1.553-.617.171-.077.331-.157.502-.228.343-.16.685-.311 1.016-.469.046-.022.093-.034.126-.059l.469-.238c.298-.147.595-.31.892-.47.067-.034.137-.067.192-.103.139-.068.273-.159.398-.239.012 0 .023 0 .023-.013.283-.158.568-.318.845-.489.079-.046.159-.093.251-.138.125-.08.239-.172.365-.252.271-.17.536-.343.811-.523l.296-.193c.104-.068.206-.147.32-.229.262-.184.514-.365.775-.561.112-.092.229-.172.343-.252.092-.066.171-.137.263-.205.251-.193.515-.397.765-.604l.379-.31c.066-.058.137-.114.203-.172.252-.217.504-.444.754-.662.139-.125.273-.239.41-.354l.139-.138c.272-.239.523-.489.788-.741.137-.138.271-.263.411-.389.021-.033.057-.057.078-.092.297-.297.595-.604.892-.912.103-.114.217-.218.317-.344.014 0 .023-.012.034-.021.404-.438.801-.883 1.188-1.336a.167.167 0 0 0 .034-.045c.137-.147.25-.31.377-.457.251-.297.502-.594.753-.9.033-.046.057-.08.091-.114.138-.172.272-.354.397-.524.22-.271.437-.548.642-.832.046-.068.091-.127.137-.185.138-.17.251-.354.377-.524l.582-.82c.068-.092.126-.184.194-.273.103-.158.217-.318.318-.49.184-.272.364-.548.547-.832.08-.114.148-.229.229-.344.091-.147.183-.31.285-.457.171-.285.342-.56.514-.844.091-.148.183-.286.263-.436.079-.138.159-.273.229-.41.172-.285.331-.57.503-.855.021-.046.045-.092.068-.137.078-.138.158-.264.228-.398.069-.114.126-.229.185-.344.158-.297.309-.582.469-.879.011-.033.034-.068.057-.113.092-.172.185-.354.285-.524.046-.092.092-.193.138-.284.139-.285.285-.582.423-.879.033-.059.067-.126.104-.193.092-.194.194-.377.273-.562.033-.067.067-.147.104-.217.125-.272.251-.548.377-.833.079-.171.159-.331.239-.502.057-.147.126-.284.192-.435a.403.403 0 0 1 .059-.126c.034-.08.058-.16.092-.229.171-.398.354-.811.524-1.221.058-.147.125-.298.192-.457.16-.41.331-.846.491-1.268.091-.218.171-.423.262-.65l.068-.17c.138-.354.263-.729.399-1.086.092-.263.183-.514.272-.774.013-.012.013-.022.013-.034.037-.081.067-.165.092-.251.112-.319.229-.649.343-.98.091-.272.183-.536.263-.812a.357.357 0 0 0 .045-.113c.034-.092.069-.193.104-.285.091-.297.183-.604.271-.9.093-.273.171-.535.251-.812.046-.114.08-.239.114-.354.021-.059.034-.113.058-.184.079-.264.147-.537.229-.812.08-.263.16-.536.24-.812l.171-.604c.012-.022.012-.046.021-.067.06-.24.126-.479.185-.721.066-.263.138-.523.206-.787.137-.479.251-.972.376-1.461.058-.251.126-.49.183-.742.069-.297.138-.582.206-.879.012-.045.021-.103.034-.146.046-.172.08-.354.112-.523l.139-.629c.08-.354.16-.695.229-1.05.022-.08.045-.159.059-.229.033-.147.058-.285.08-.435.021-.104.046-.217.066-.331.274-1.37.536-2.763.776-4.179 0-.021.012-.045.012-.066.376-2.248.696-4.555.97-6.905.014-.114.034-.229.047-.331.079-.686.147-1.369.218-2.065.011-.146.032-.297.046-.444.066-.675.125-1.357.183-2.043.011-.159.034-.318.045-.479.06-.686.104-1.381.148-2.076l.034-.457c.046-.707.092-1.428.126-2.146.012-.114.012-.239.021-.365.034-.753.068-1.507.092-2.271 0-.059.013-.114.013-.185.238-6.769.079-13.821-.49-21.058 0-.034 0-.068-.013-.104-.067-.879-.147-1.758-.229-2.637 0-.046 0-.093-.011-.126-.08-.891-.172-1.78-.265-2.671 0-.021 0-.045-.012-.079-.979-9.211-2.625-18.674-4.965-28.229-.011-.021-.011-.045-.011-.066-.24-.938-.47-1.871-.722-2.81a.226.226 0 0 0-.021-.08 215.21 215.21 0 0 0-2.99-10.478l-.172-.549c-.004-.022-.012-.047-.012-.055z"/><path d="M862.918 2527.521c.021-.104.057-.205.078-.309.33-1.209.641-2.442.926-3.688.012-.034.012-.068.021-.091a117.556 117.556 0 0 0 2.136-12.26c.013-.067.013-.125.021-.192.172-1.382.309-2.773.436-4.179.013-.067.02-.136.021-.205.125-1.428.229-2.864.308-4.325.013-.022.013-.046.013-.068.33-5.979.31-12.188-.104-18.569v-.046a173.785 173.785 0 0 0-.377-4.78v-.034c-.753-8.081-2.111-16.367-4.098-24.722 0-.014 0-.023-.013-.035a180.453 180.453 0 0 0-3.194-11.676 210.668 210.668 0 0 0-1.358-4.211c-.057-.186-.125-.365-.183-.551a251.36 251.36 0 0 0-1.449-4.12 183.453 183.453 0 0 0-7.967-18.534c-.846-1.688-1.7-3.366-2.592-5.012a172.634 172.634 0 0 0-4.107-7.259 163.6 163.6 0 0 0-4.36-6.928 159.576 159.576 0 0 0-7.75-10.765c-8.549-10.935-17.939-20.041-27.507-26.819a48.898 48.898 0 0 0-1.792-1.244c-4.2-2.843-8.411-5.229-12.589-7.122a68.07 68.07 0 0 0-5.354-2.157c-10.057-3.539-19.779-4.052-28.328-.913-8.562 3.127-15.647 9.792-21.035 19.003a62.977 62.977 0 0 0-2.705 5.104c-1.963 4.143-3.641 8.686-5.011 13.559-.193.696-.376 1.404-.561 2.112-1.621 6.3-2.739 13.113-3.319 20.305-5.093-5.112-10.354-9.6-15.659-13.354a45.036 45.036 0 0 0-1.792-1.244c-4.189-2.842-8.4-5.228-12.59-7.122a66.558 66.558 0 0 0-5.354-2.157c-10.056-3.538-19.769-4.052-28.329-.913-8.56 3.128-15.646 9.805-21.035 19.004a66.718 66.718 0 0 0-2.691 5.104c-1.977 4.144-3.652 8.687-5.012 13.56-.202.7-.393 1.404-.569 2.111-2.922 11.346-4.212 24.38-3.675 38.247.091 2.604.262 5.229.488 7.875.148 1.781.331 3.55.549 5.342.104.902.218 1.792.33 2.693a179.446 179.446 0 0 0 2.364 13.604c.391 1.842.813 3.676 1.27 5.502a182.023 182.023 0 0 0 7.441 23.388l.205.523a185.06 185.06 0 0 0 6.791 15.077c0 .012.013.021.023.034a179.057 179.057 0 0 0 12.827 21.515l.022.021c.925 1.323 1.86 2.625 2.809 3.902l.034.034c3.801 5.125 7.795 9.896 11.916 14.244l.045.046a113.737 113.737 0 0 0 3.024 3.094c.045.057.104.104.148.146 1.004.992 2.02 1.965 3.034 2.91.045.045.093.08.139.125a118.322 118.322 0 0 0 9.553 7.99c.021.011.046.034.068.045 1.025.775 2.064 1.507 3.094 2.227.091.059.171.113.263.184 1.004.688 2.009 1.348 3.013 1.986.104.066.219.137.319.205a86.32 86.32 0 0 0 3.015 1.804c.092.057.184.104.272.16 1.027.582 2.055 1.141 3.082 1.678.034.011.068.021.103.045a62.545 62.545 0 0 0 3.196 1.541s0 .012.011.012c1.027.47 2.043.893 3.062 1.302.103.033.205.08.296.113.98.391 1.939.73 2.911 1.063.137.046.271.092.41.137.959.31 1.896.594 2.843.856.137.032.285.066.422.103.947.251 1.895.479 2.831.674l.342.068c.972.194 1.94.354 2.899.49.033 0 .066 0 .103.012.97.126 1.918.217 2.876.285.068 0 .139.012.217.012.913.057 1.838.08 2.739.068h.399a34.558 34.558 0 0 0 2.613-.138c.147-.013.297-.022.444-.033.852-.092 1.7-.206 2.545-.344.138-.021.273-.058.411-.08a36.11 36.11 0 0 0 2.533-.56c.103-.022.193-.06.286-.08.878-.24 1.746-.514 2.602-.822a31.643 31.643 0 0 0 2.522-1.062c.092-.034.183-.079.263-.113a44.669 44.669 0 0 0 2.317-1.21c.111-.069.228-.138.354-.206.73-.436 1.461-.9 2.169-1.395.113-.077.239-.17.365-.25a34.613 34.613 0 0 0 2.077-1.586c.103-.08.205-.173.308-.252a38.81 38.81 0 0 0 2.043-1.824l.16-.16a43.951 43.951 0 0 0 2.009-2.064.479.479 0 0 1 .068-.08 56.814 56.814 0 0 0 1.906-2.248c.066-.093.137-.185.217-.265a63.388 63.388 0 0 0 1.724-2.339c.08-.126.171-.24.251-.365.562-.8 1.096-1.633 1.62-2.478.069-.125.148-.251.217-.376a54.464 54.464 0 0 0 1.541-2.685c.053-.093.103-.188.148-.284a64.403 64.403 0 0 0 1.507-2.979v-.011a65.943 65.943 0 0 0 1.438-3.241.487.487 0 0 0 .047-.104c.447-1.08.873-2.168 1.276-3.265.034-.104.069-.206.104-.297.4-1.103.777-2.214 1.13-3.333.045-.114.079-.239.112-.365a81.488 81.488 0 0 0 1.018-3.458c.034-.103.057-.206.079-.309.331-1.21.64-2.442.937-3.688 0-.033.014-.068.014-.091a118.68 118.68 0 0 0 2.134-12.259c.012-.068.021-.125.021-.193.173-1.37.319-2.773.444-4.178 0-.068.012-.137.012-.205.034-.297.059-.583.08-.879.205.205.422.41.628.615a.858.858 0 0 0 .148.147c1.004.992 2.02 1.963 3.035 2.91.046.046.092.08.138.126 3.139 2.908 6.323 5.581 9.541 7.978a.477.477 0 0 0 .08.06 96.442 96.442 0 0 0 3.094 2.226c.079.059.171.113.251.185a94.138 94.138 0 0 0 3.024 1.984c.103.067.205.138.317.205a85.224 85.224 0 0 0 3.003 1.805c.092.058.193.103.284.158a78.875 78.875 0 0 0 3.082 1.666c.022.023.058.034.091.06a72.158 72.158 0 0 0 3.196 1.541l.011.011c1.027.469 2.057.893 3.07 1.303.104.033.194.08.297.112.971.39 1.94.73 2.911 1.063l.41.138c.946.308 1.895.593 2.842.854.138.033.274.067.423.113a67.32 67.32 0 0 0 2.83.662c.114.022.218.046.331.068.971.194 1.94.354 2.911.491.034 0 .068 0 .103.011.959.126 1.917.217 2.864.286.08 0 .148.011.218.011a35.7 35.7 0 0 0 2.75.068h.399a33.06 33.06 0 0 0 2.614-.139l.434-.032a45.92 45.92 0 0 0 2.558-.345c.138-.021.264-.057.398-.077.855-.16 1.712-.345 2.545-.562.092-.021.184-.059.285-.08.88-.237 1.748-.516 2.604-.833a30.91 30.91 0 0 0 2.521-1.05c.092-.034.171-.08.263-.114a34.215 34.215 0 0 0 2.308-1.21c.125-.068.237-.137.354-.206.742-.438 1.47-.903 2.18-1.392.114-.08.24-.174.354-.252a38.72 38.72 0 0 0 2.088-1.586c.104-.08.206-.172.297-.252a39.512 39.512 0 0 0 2.056-1.825l.159-.16c.69-.668 1.36-1.356 2.011-2.064.021-.033.046-.059.066-.08a47.307 47.307 0 0 0 1.896-2.248c.08-.093.146-.173.217-.263a61.774 61.774 0 0 0 1.734-2.341c.078-.126.172-.239.25-.364a57.617 57.617 0 0 0 1.609-2.487c.079-.114.148-.24.229-.365a87.906 87.906 0 0 0 1.541-2.685c.044-.098.093-.192.147-.284a70.784 70.784 0 0 0 1.495-2.979h.012a69.81 69.81 0 0 0 1.438-3.253c.011-.034.034-.067.045-.103a71.82 71.82 0 0 0 1.268-3.267c.034-.103.079-.205.113-.297a119.35 119.35 0 0 0 1.131-3.333c.034-.114.079-.239.113-.365a85.328 85.328 0 0 0 1.02-3.45z"/><path d="M716.219 2357.276c-19.414-26.125-40.587-33.008-40.587-33.008.937 6.403-1.871 12.702-1.871 12.702 2.659 1.825 5.01 3.731 7.076 5.72 13.991 13.444 14.938 36.603 2.956 49.249-5.205 5.479-7.5 11.186-5.675 16.173 3.895 10.638 24.733 12.795 46.546 4.806 21.821-7.988 36.342-23.102 32.438-33.738-2.055-5.639-8.755-8.57-17.828-8.901-8.606-.31-17.165-5.06-23.055-13.003z"/><path d="M675.632 2324.268s5.627 7.967-1.884 12.703c0 0-5.409-8.914 1.884-12.703zm76.563 169.984c-24.254-66.211-11.63-135.937 24.482-149.164 36.11-13.218 106.751 55.938 131.005 122.147s-4.35 111.841-40.461 125.069c-36.112 13.228-90.773-31.843-115.026-98.052z"/><path d="M617.74 2573.438c-24.254-66.222-14.983-164.642 21.115-177.869 36.112-13.229 90.784 31.845 115.038 98.054 24.254 66.211 11.63 135.938-24.481 149.164-36.111 13.228-87.418-3.139-111.672-69.349z"/><path d="M645.969 2544.196c-24.254-66.21-12.955-135.456 21.742-148.159 34.695-12.715 88.045 32.851 112.299 99.061 24.253 66.21 12.954 135.444-21.743 148.159-34.697 12.702-88.045-32.849-112.298-99.061z"/><path d="M691.646 2535.237c-23.81-65.012-11.916-133.288 23.021-146.083 34.927-12.794 88.112 31.639 111.923 96.65 23.809 65.011 11.916 133.288-23.021 146.082-34.927 12.795-88.103-31.636-111.923-96.649z"/><path d="M691.646 2535.237c-23.81-65.012-11.916-133.288 23.021-146.083 34.927-12.794 88.112 31.639 111.923 96.65 23.809 65.011 11.916 133.288-23.021 146.082-34.927 12.795-88.103-31.636-111.923-96.649z"/></g><radialGradient id="SVGID_1_" cx="91.217" cy="589.676" r="36.067" gradientTransform="rotate(-15.182 7370.55 -1210.752)" gradientUnits="userSpaceOnUse"><stop offset="0" stop-color="#ffdb3b"/><stop offset=".297" stop-color="#ffd93a"/><stop offset=".469" stop-color="#ffd036"/><stop offset=".609" stop-color="#ffc22f"/><stop offset=".732" stop-color="#ffae25"/><stop offset=".843" stop-color="#ff9519"/><stop offset=".945" stop-color="#ff750a"/><stop offset="1" stop-color="#ff6100"/></radialGradient><path fill="url(#SVGID_1_)" d="M865.119 2449.612s-33.029-33.544-87.646-35.085c0 0-10.112 21.047 8.389 56.602.003-.001 25.683-15.365 79.257-21.517z"/><radialGradient id="SVGID_2_" cx="4690.02" cy="102.681" r="36.129" gradientTransform="scale(-1 1) rotate(27.272 -2911.174 -9751.6)" gradientUnits="userSpaceOnUse"><stop offset="0" stop-color="#ffdb3b"/><stop offset=".297" stop-color="#ffd93a"/><stop offset=".469" stop-color="#ffd036"/><stop offset=".609" stop-color="#ffc22f"/><stop offset=".732" stop-color="#ffae25"/><stop offset=".843" stop-color="#ff9519"/><stop offset=".945" stop-color="#ff750a"/><stop offset="1" stop-color="#ff6100"/></radialGradient><path fill="url(#SVGID_2_)" d="M645.512 2534.918s1.724-47.059 40.975-85.055c0 0 21.675 8.697 32.018 47.424-.003 0-29.325 6.004-72.993 37.631z"/><linearGradient id="SVGID_3_" x1="5346.804" x2="5346.804" y1="4835.648" y2="4862.223" gradientTransform="rotate(158.78 3272.651 3245.04)" gradientUnits="userSpaceOnUse"><stop offset="0" stop-color="#d30"/><stop offset="1" stop-color="#ff5012"/></linearGradient><path fill="url(#SVGID_3_)" d="M777.451 2505.185l-23.887-17.427-5.867 28.989 29.754-11.562z"/><radialGradient id="SVGID_4_" cx="4994.943" cy="4973.049" r="61.661" gradientTransform="rotate(158.78 3113.479 3367.43)" gradientUnits="userSpaceOnUse"><stop offset="0" stop-color="#ffdb3b"/><stop offset=".297" stop-color="#ffd93a"/><stop offset=".469" stop-color="#ffd036"/><stop offset=".609" stop-color="#ffc22f"/><stop offset=".732" stop-color="#ffae25"/><stop offset=".843" stop-color="#ff9519"/><stop offset=".945" stop-color="#ff750a"/><stop offset="1" stop-color="#ff6100"/></radialGradient><path fill="url(#SVGID_4_)" d="M742.127 2573.358l-8.206-10.078 9.383-6.778 8.788 10.784c8.423-4.771 17.577-9.142 27.335-12.932 9.771-3.789 19.472-6.745 28.897-8.902l-.799-13.899 11.505-1.324.755 12.966c16.868-2.762 32.506-2.842 45.493-.354-12.304-17.703-40.633-24.939-71.883-19.106l.753 13.014-11.505 1.321-.662-11.651a132.448 132.448 0 0 0-23.294 9.051l7.373 9.052-9.382 6.778-8.229-10.111c-26.991 16.801-43.007 41.249-40.142 62.626 7.912-10.62 19.497-21.108 33.82-30.457z"/><g fill="#212121"><path d="M2265.49 2483.569c.093-1.759.17-3.52.234-5.28.021-.604.024-1.211.045-1.805.013-.344.013-.688.024-1.029.063-2.563.101-5.127.107-7.689a.329.329 0 0 1-.003-.125c.003-.057.008-.11-.003-.166a296.253 296.253 0 0 0-2.367-36.784c-.435-3.43-.938-6.834-1.486-10.218a289.315 289.315 0 0 0-7.788-34.383 267.79 267.79 0 0 0-2.918-9.391 269.2 269.2 0 0 0-8.531-22.412 250.088 250.088 0 0 0-5.901-12.656 244 244 0 0 0-6.453-12.014 167.072 167.072 0 0 0-2.264-3.85 212.273 212.273 0 0 0-12.116-18.028 361.542 361.542 0 0 0-2.582-3.335c-24.236-30.773-54.541-49.615-85.743-49.51-31.2.115-61.442 19.138-85.571 50.077a237.358 237.358 0 0 0-2.557 3.356c-4.225 5.671-8.259 11.729-12.058 18.104a164.623 164.623 0 0 0-2.248 3.854 239.422 239.422 0 0 0-6.41 12.064 247.942 247.942 0 0 0-5.867 12.698 268.779 268.779 0 0 0-3.575 8.812 263.002 263.002 0 0 0-4.865 13.663 258.827 258.827 0 0 0-2.891 9.402 288.127 288.127 0 0 0-7.654 34.438 273.464 273.464 0 0 0-1.453 10.234 295.428 295.428 0 0 0-2.24 36.796c.01.057.006.108.002.165-.003.027.007.085.005.109.003 2.582.051 5.137.127 7.695.015.346.028.69.028 1.035.021.597.045 1.189.065 1.8-.003.013-.003.026-.004.054.069 1.744.154 3.489.252 5.223-.003.042.007.085.004.126.263 4.515.626 9.022 1.089 13.521.168 1.561.338 3.091.521 4.638.011.055.007.097.018.15.183 1.532.38 3.05.579 4.57.01.04.021.085.018.125 2.119 15.533 5.424 30.556 9.75 44.844.015.029.022.084.047.126.416 1.373.832 2.758 1.277 4.116.021.07.042.142.064.211.443 1.357.879 2.706 1.338 4.053.023.056.047.113.055.184 3.768 11.084 8.149 21.664 13.063 31.652.048.086.095.187.143.285.55 1.105 1.107 2.207 1.673 3.304l.287.563a145.636 145.636 0 0 0 1.632 3.106c.12.23.238.458.374.69l1.627 2.981c.147.231.279.479.413.724.558.981 1.116 1.948 1.675 2.918.119.229.256.447.391.666.572.981 1.154 1.967 1.74 2.937l.308.493c.516.826 1.002 1.649 1.517 2.466.016.014.026.042.037.055l.333.526h.015a208.14 208.14 0 0 0 4.427 6.708c.01.028.036.058.05.086a193.335 193.335 0 0 0 4.152 5.773c.108.175.234.337.359.497l.424.585c.09.104.178.208.252.323.36.482.736.955 1.103 1.425.225.293.448.588.663.865.188.235.375.485.563.721.053.073.112.148.163.222.313.396.644.781.956 1.179.276.339.54.677.818 1.003.227.279.451.572.677.853.039.044.076.091.113.134.278.341.558.651.833.988.306.355.604.711.912 1.065.263.323.539.647.806.974.024.031.063.047.089.092.229.268.469.531.708.801.318.37.636.725.966 1.082.316.355.635.727.949 1.082.128.146.27.283.407.445.075.075.165.166.243.254.329.355.673.716 1.002 1.084.371.393.726.789 1.096 1.179.126.12.244.252.37.372.037.046.09.104.142.149.347.358.688.702 1.032 1.063.409.418.829.863 1.252 1.281.104.104.218.211.334.315l.037.045c.333.343.691.675 1.026 1.006.486.468.945.943 1.422 1.395.075.073.167.151.242.213.311.301.615.587.94.874.553.53 1.113 1.052 1.683 1.564.22.197.438.38.657.576.53.471 1.044.938 1.591 1.396.151.137.308.283.477.423.064.061.115.118.18.166.221.182.43.35.637.532.246.197.49.408.736.608.428.353.844.7 1.258 1.049.104.093.207.17.31.263.286.229.587.444.872.675.104.092.208.166.313.243.452.366.907.735 1.362 1.088.145.106.286.217.429.338.287.216.575.416.858.634.054.044.119.077.172.123.47.354.951.71 1.42 1.063.185.123.378.277.563.401.221.17.443.322.68.48.064.049.146.094.208.154.481.342.981.684 1.466 1.013.226.153.445.323.682.468.248.17.514.343.762.514.498.329.998.646 1.496.975.273.174.538.358.813.521.211.142.422.269.631.396.516.314 1.028.633 1.543.936.303.189.604.378.909.556.169.108.343.205.513.303a76.66 76.66 0 0 0 1.602.897c.344.189.672.396 1.018.574.118.064.252.131.371.194.567.306 1.139.603 1.695.893.357.192.712.389 1.071.566.082.034.161.066.24.114.647.33 1.302.629 1.954.939.315.147.649.313.97.465.041.018.081.031.106.049 1 .461 2.009.902 3.025 1.326.013.017.04.029.066.033.254.115.521.207.791.311.732.309 1.469.612 2.22.893.064.021.133.052.198.086.336.121.659.229.996.34a50.58 50.58 0 0 0 1.904.688c.104.035.229.072.335.124.321.105.646.188.972.298a99.48 99.48 0 0 0 1.814.568c.146.053.309.106.473.147.282.091.579.155.877.246.609.159 1.188.329 1.784.485.201.045.402.115.592.155.272.063.53.126.785.188.601.145 1.194.272 1.792.405.229.059.472.118.716.164l.666.136c.601.114 1.195.231 1.795.334.271.05.558.114.831.146.176.042.367.056.545.084.611.104 1.228.193 1.844.271.014.001.025.003.041.003.3.051.582.102.885.139l.412.032c.643.075 1.285.144 1.927.207.331.023.658.079.985.104.084.007.18 0 .274.011.697.065 1.414.096 2.128.139.358.014.701.041 1.06.055 1.073.045 2.133.059 3.194.061 1.069.002 2.14-.024 3.209-.08.357-.014.705-.041 1.066-.067.706-.043 1.411-.083 2.121-.14.097-.006.181-.013.275-.02.334-.028.654-.072.988-.114.641-.062 1.28-.136 1.92-.209.141-.018.277-.03.418-.052.293-.029.586-.091.883-.137l.039.003a99.154 99.154 0 0 0 1.845-.282c.18-.025.36-.054.545-.082.265-.047.547-.107.825-.17.603-.104 1.19-.225 1.793-.34.226-.055.447-.09.674-.144.238-.049.478-.112.717-.164a65.24 65.24 0 0 0 1.771-.428c.267-.062.52-.108.785-.187.197-.054.396-.104.594-.159.593-.16 1.186-.335 1.774-.496.3-.088.608-.158.89-.248.172-.056.313-.111.48-.154.596-.188 1.201-.375 1.797-.575.327-.113.652-.211.979-.324.112-.032.227-.077.341-.107.623-.229 1.263-.455 1.888-.693.327-.126.667-.238.994-.363.07-.022.143-.061.214-.08.726-.287 1.453-.591 2.193-.891.271-.116.542-.207.812-.321.019-.017.047-.026.073-.038 1-.432 2-.876 3.003-1.352.028-.012.069-.021.102-.047.33-.15.66-.32.988-.476.646-.31 1.291-.629 1.938-.951.085-.049.157-.085.243-.116.357-.181.707-.388 1.063-.58.577-.286 1.139-.588 1.698-.887.116-.074.246-.136.376-.206.345-.194.68-.389 1.011-.583.533-.304 1.068-.605 1.588-.91.175-.097.351-.193.521-.304.306-.186.608-.381.914-.563a90.428 90.428 0 0 0 1.521-.94c.219-.138.438-.257.641-.394.273-.17.537-.355.813-.543.496-.32.99-.639 1.485-.975.246-.173.511-.345.771-.519.22-.148.438-.313.671-.474.482-.332.965-.681 1.448-1.029.072-.049.144-.101.218-.146.232-.162.453-.324.687-.483.188-.138.366-.275.557-.411.47-.352.938-.698 1.408-1.063.059-.039.116-.09.178-.138.274-.217.571-.428.851-.639l.438-.338c.457-.364.899-.729 1.354-1.082.104-.088.207-.178.311-.25.295-.239.574-.451.867-.69l.311-.267c.415-.34.828-.693 1.241-1.033.238-.215.488-.416.74-.631.219-.177.429-.354.634-.543l.193-.164c.103-.09.222-.19.324-.278.58-.521 1.154-1.027 1.734-1.548.209-.203.432-.382.641-.584a97.366 97.366 0 0 0 1.727-1.616c.3-.279.596-.548.896-.841.07-.063.159-.14.234-.216.479-.461.959-.946 1.438-1.418.343-.334.673-.666 1.016-.997.018-.013.018-.025.031-.04.119-.114.225-.219.344-.331.419-.425.826-.859 1.247-1.295.345-.361.675-.707 1.021-1.054l.135-.153c.121-.127.255-.257.377-.386.36-.386.726-.799 1.101-1.181.33-.362.662-.722.981-1.084.149-.165.285-.309.437-.478.063-.076.137-.152.213-.23.316-.359.638-.734.953-1.098.318-.35.637-.709.955-1.084.241-.27.483-.541.713-.813a.222.222 0 0 0 .073-.093c.276-.323.55-.646.823-.97.288-.35.595-.713.882-1.063.55-.662 1.101-1.322 1.636-1.996.271-.324.533-.66.809-.998.322-.403.644-.807.951-1.211.062-.063.104-.129.166-.192.187-.247.371-.493.556-.729.217-.285.444-.585.659-.873.369-.48.736-.949 1.095-1.433.077-.117.167-.222.245-.323.154-.197.294-.405.437-.604a5.45 5.45 0 0 0 .336-.455c1.418-1.922 2.8-3.869 4.146-5.842a.25.25 0 0 0 .061-.079 204.585 204.585 0 0 0 6.289-9.812c.096-.157.205-.314.301-.473.586-.988 1.164-1.979 1.75-2.98.113-.212.24-.424.365-.633.563-.979 1.123-1.953 1.668-2.961.144-.237.271-.461.399-.699a178.867 178.867 0 0 0 1.986-3.678c.552-1.049 1.101-2.082 1.64-3.145.099-.185.181-.357.276-.542.558-1.104 1.111-2.218 1.668-3.332.036-.093.08-.183.132-.268 4.884-10.019 9.225-20.646 12.951-31.773l.057-.162a367.2 367.2 0 0 0 1.323-4.075c.021-.055.041-.136.06-.188.438-1.372.865-2.761 1.277-4.146a.393.393 0 0 1 .034-.107c4.271-14.314 7.521-29.374 9.586-44.938l.005-.084c.202-1.525.395-3.058.567-4.591a.387.387 0 0 1 .023-.135 305.159 305.159 0 0 0 1.48-17.295l.002-.014c.021-.304.047-.604.058-.906a.452.452 0 0 1-.003-.09l-.005.007z"/><path d="M2304.026 2590.558c.121-.131.229-.259.35-.4a189.306 189.306 0 0 0 4.093-5.02c.03-.052.063-.092.093-.131 4.201-5.367 8.171-11.11 11.905-17.191.045-.079.106-.173.155-.265a215.491 215.491 0 0 0 3.536-6.014c.063-.104.11-.197.173-.289a233.473 233.473 0 0 0 3.394-6.313c.019-.027.034-.068.05-.093 4.539-8.776 8.564-18.076 12.023-27.835.015-.025.017-.054.029-.064.86-2.443 1.684-4.898 2.471-7.366a.14.14 0 0 1 .018-.067c3.946-12.478 6.95-25.609 8.857-39.174l.004-.054c.89-6.38 1.526-12.793 1.906-19.224v.016-.016c.145-2.332.242-4.67.318-7.037.012-.302.021-.604.031-.907a241.846 241.846 0 0 0-2.087-38.983c-.414-2.984-.854-5.959-1.371-8.908a259.425 259.425 0 0 0-2.628-13.078 274.332 274.332 0 0 0-2.129-8.527c-.391-1.396-.773-2.807-1.177-4.189a284.033 284.033 0 0 0-2.552-8.271 229.656 229.656 0 0 0-4.342-12.024c-8.229-20.979-19.177-39.705-31.947-55.016a96.113 96.113 0 0 0-2.412-2.84c-5.684-6.517-11.707-12.367-18-17.457a128.079 128.079 0 0 0-8.223-6.121c-15.796-10.746-32.968-16.771-50.438-16.705-17.473.062-34.617 6.191-50.385 17.039a124.02 124.02 0 0 0-8.194 6.173c-6.269 5.137-12.273 11.022-17.937 17.575-.818.941-1.608 1.887-2.417 2.844-7.044 8.553-13.536 18.154-19.309 28.586-5.819-10.391-12.341-19.95-19.425-28.452-.795-.96-1.604-1.894-2.412-2.839-5.697-6.504-11.724-12.357-18-17.443a119.927 119.927 0 0 0-8.238-6.124c-15.795-10.746-32.953-16.769-50.422-16.719-17.483.062-34.617 6.207-50.383 17.056a119.98 119.98 0 0 0-8.197 6.171c-6.277 5.136-12.273 11.022-17.947 17.574-.805.942-1.609 1.887-2.404 2.846-12.713 15.405-23.584 34.196-31.732 55.229a223.93 223.93 0 0 0-4.297 12.064 228.836 228.836 0 0 0-3.684 12.484 253.184 253.184 0 0 0-2.094 8.543 247.495 247.495 0 0 0-2.588 13.107c-.508 2.94-.946 5.913-1.334 8.902a243.958 243.958 0 0 0-2.075 32.05c.011 2.333.051 4.64.133 6.964.003.291.021.598.025.899a241.24 241.24 0 0 0 2.323 26.228c0 .019 0 .043.012.06a239.14 239.14 0 0 0 9.001 39.128c-.001.027.01.041.009.056.79 2.462 1.623 4.909 2.5 7.341.013.027.02.056.021.086 3.5 9.739 7.558 19.011 12.129 27.742.011.029.021.07.046.103 1.118 2.114 2.248 4.219 3.429 6.27.044.115.105.204.167.306a188.656 188.656 0 0 0 3.56 6.004c.047.086.109.174.155.262a185.2 185.2 0 0 0 11.959 17.104c.037.031.063.075.101.119a149.218 149.218 0 0 0 4.117 5l.344.399a163.293 163.293 0 0 0 4.121 4.611c.151.164.307.314.444.479a180.41 180.41 0 0 0 4.239 4.332c.128.135.257.254.396.39a150.919 150.919 0 0 0 4.445 4.171c.051.044.104.078.141.122a153.392 153.392 0 0 0 4.747 4.043l.024.015a114.082 114.082 0 0 0 4.671 3.609c.146.106.3.229.441.339a133.21 133.21 0 0 0 4.554 3.157c.21.14.434.28.657.425a97.5 97.5 0 0 0 4.553 2.813c.224.144.447.271.687.399 1.546.894 3.093 1.729 4.656 2.529.188.098.374.182.572.278a86.31 86.31 0 0 0 4.909 2.306c.054.028.104.05.172.08 1.646.704 3.31 1.364 4.99 1.979.121.037.24.088.375.14 1.615.58 3.25 1.108 4.898 1.586.241.072.471.146.712.222 1.595.44 3.19.847 4.806 1.207.269.061.541.123.813.174 1.604.345 3.223.638 4.831.875.261.033.519.065.777.104 1.639.223 3.292.408 4.948.539.182.014.371.018.553.029a84.7 84.7 0 0 0 5.24.178 83.687 83.687 0 0 0 5.23-.211c.193-.014.374-.022.557-.041a74.238 74.238 0 0 0 4.954-.562c.252-.035.517-.068.771-.12a76.663 76.663 0 0 0 4.826-.89c.27-.063.552-.123.816-.187a85.27 85.27 0 0 0 4.803-1.249c.227-.063.467-.146.707-.207a112.028 112.028 0 0 0 4.901-1.63c.112-.048.241-.104.368-.149a84.914 84.914 0 0 0 4.986-2.009c.057-.023.112-.048.17-.067a100.614 100.614 0 0 0 4.903-2.349c.188-.096.371-.18.561-.287a99.155 99.155 0 0 0 4.655-2.56c.23-.134.463-.271.694-.401a99.542 99.542 0 0 0 4.526-2.845c.218-.135.437-.284.656-.433a103.581 103.581 0 0 0 4.539-3.189c.146-.111.293-.225.455-.334a134.974 134.974 0 0 0 4.656-3.637l.002-.014a137.818 137.818 0 0 0 4.733-4.07c.046-.055.104-.09.148-.141a137.637 137.637 0 0 0 4.439-4.203 9.45 9.45 0 0 1 .389-.385 143.416 143.416 0 0 0 4.221-4.359c.148-.151.302-.321.438-.49a151.168 151.168 0 0 0 4.115-4.614c.106-.144.229-.286.336-.414 1.4-1.65 2.77-3.327 4.104-5.03.029-.041.062-.08.094-.131 4.197-5.354 8.168-11.102 11.899-17.166.05-.104.097-.188.158-.275a178.052 178.052 0 0 0 3.534-6.028c.052-.091.112-.186.163-.291l.721-1.27c.229.436.472.841.716 1.271.062.09.107.201.169.29a179.438 179.438 0 0 0 3.56 5.99c.05.087.108.174.158.261a182.15 182.15 0 0 0 11.969 17.121c.023.044.063.075.088.118a189.288 189.288 0 0 0 4.117 5c.113.134.228.267.342.412a158.363 158.363 0 0 0 4.138 4.603 132.432 132.432 0 0 0 4.67 4.81c.129.134.271.255.397.392a148.864 148.864 0 0 0 4.46 4.17c.037.047.089.077.143.123a122.891 122.891 0 0 0 4.73 4.041l.012.018a131.864 131.864 0 0 0 4.686 3.607c.144.108.3.23.457.34 1.5 1.099 3.019 2.142 4.537 3.156.225.143.435.282.656.424 1.493.978 3.012 1.916 4.555 2.813.224.142.459.271.687.396a99.65 99.65 0 0 0 4.67 2.532c.188.097.374.183.561.278a89.12 89.12 0 0 0 4.909 2.304c.052.03.121.052.173.082 1.645.704 3.309 1.364 4.989 1.979.121.049.254.089.375.139a83.892 83.892 0 0 0 4.897 1.586c.243.072.483.146.714.221a74.92 74.92 0 0 0 4.803 1.205c.271.063.543.127.826.189 1.603.331 3.206.623 4.816.859.259.032.518.067.777.104 1.649.241 3.293.409 4.95.54.193.015.373.015.563.031 1.729.105 3.478.175 5.229.175s3.496-.083 5.231-.209c.192-.013.373-.025.555-.041a72.923 72.923 0 0 0 4.956-.561c.265-.035.515-.071.78-.121a81.877 81.877 0 0 0 4.816-.89c.268-.063.545-.124.813-.186a82.127 82.127 0 0 0 4.801-1.25c.241-.063.469-.146.707-.208a101.836 101.836 0 0 0 4.9-1.628c.129-.046.243-.105.371-.152a85.153 85.153 0 0 0 4.985-2.008l.169-.069c1.646-.729 3.28-1.521 4.903-2.347.188-.099.373-.181.562-.273a106.898 106.898 0 0 0 4.656-2.569c.231-.138.462-.271.693-.401 1.536-.911 3.05-1.859 4.54-2.844.219-.136.438-.285.644-.42 1.528-1.039 3.047-2.079 4.541-3.203.146-.101.309-.224.452-.323a133.42 133.42 0 0 0 4.658-3.647c.002-.015.017-.013.017-.013a156.337 156.337 0 0 0 4.723-4.069c.045-.054.104-.093.146-.128a161.612 161.612 0 0 0 4.441-4.202c.133-.129.253-.258.389-.385a146.274 146.274 0 0 0 4.219-4.374c.15-.166.304-.32.451-.476a156.187 156.187 0 0 0 4.125-4.65z"/><path d="M2151.559 2256.487c-17.794-49.6-51.432-71.349-51.432-71.349-2.5 10.082-11.717 17.995-11.717 17.995 3.604 4.173 6.59 8.298 9.002 12.392 16.379 27.68 2.873 62.847-27.018 75.262-12.979 5.382-20.861 12.68-20.852 21.124.032 18.047 36.17 32.543 80.716 32.384 44.53-.146 80.618-14.887 80.585-32.909-.023-9.547-10.152-17.571-26.282-22.978-15.283-5.118-27.593-16.846-33.002-31.921z"/><path d="M2100.127 2185.138s4.922 14.97-11.719 17.995c0 .002-3.908-16.268 11.719-17.995zm26.297 295.735c-.204-112.176 68.315-209.654 142.046-209.896 73.741-.236 155.59 141.439 155.79 253.628.201 112.176-81.283 164.976-155.024 165.216-73.746.235-142.611-96.772-142.812-208.948z"/><path d="M1832.215 2526.558c-.2-112.173 81.113-254.395 154.858-254.648 73.743-.254 142.608 96.771 142.813 208.944.201 112.188-68.318 209.656-142.047 209.896-73.742.24-155.423-51.999-155.624-164.192z"/><path d="M2080.39 2497.511c-.199-112.178 65.628-209.648 136.487-209.879 70.846-.232 137.021 96.787 137.225 208.963.199 112.173-65.629 209.646-136.475 209.877-70.846.235-137.021-96.786-137.237-208.961z"/><path d="M1902.27 2498.094c-.201-112.175 65.613-209.647 136.473-209.878 70.847-.234 137.021 96.785 137.225 208.976.216 112.177-65.612 209.634-136.473 209.878-70.846.232-137.024-96.8-137.225-208.976z"/><path d="M1990.434 2509.416c-.196-110.145 66.07-205.845 137.4-206.078 71.328-.234 137.945 95.022 138.143 205.17.196 110.146-66.072 205.847-137.403 206.08-71.331.235-137.945-95.025-138.14-205.172z"/><path d="M1990.434 2509.416c-.196-110.145 66.07-205.845 137.4-206.078 71.328-.234 137.945 95.022 138.143 205.17.196 110.146-66.072 205.847-137.403 206.08-71.331.235-137.945-95.025-138.14-205.172z"/></g><path fill="#090909" d="M2115.141 2602.27l-32.821-2.978 11.884-38.59 19.646 1.793 1.291 39.775zm105.105-14.011l30.811-9.915-23.246-34.77-18.444 5.935 10.879 38.75zm-180.215 4.389l-31.399-8.382 20.953-35.838 18.798 5.007-8.352 39.213z"/><radialGradient id="SVGID_5_" cx="2088.113" cy="597.59" r="55.96" gradientTransform="rotate(-35.115 5027.13 1300.501)" gradientUnits="userSpaceOnUse"><stop offset="0" stop-color="#ffdb3b"/><stop offset=".297" stop-color="#ffd93a"/><stop offset=".469" stop-color="#ffd036"/><stop offset=".609" stop-color="#ffc22f"/><stop offset=".732" stop-color="#ffae25"/><stop offset=".843" stop-color="#ff9519"/><stop offset=".945" stop-color="#ff750a"/><stop offset="1" stop-color="#ff6100"/></radialGradient><path fill="url(#SVGID_5_)" d="M2213.787 2370.552s48.059 13.624 83.886 38.922l-129.358 53.719c0-.002 15.284-44.962 45.472-92.641z"/><radialGradient id="SVGID_6_" cx="5125.023" cy="2703.283" r="55.887" gradientTransform="scale(-1 1) rotate(-34.353 1082.519 14140.343)" gradientUnits="userSpaceOnUse"><stop offset="0" stop-color="#ffdb3b"/><stop offset=".297" stop-color="#ffd93a"/><stop offset=".469" stop-color="#ffd036"/><stop offset=".609" stop-color="#ffc22f"/><stop offset=".732" stop-color="#ffae25"/><stop offset=".843" stop-color="#ff9519"/><stop offset=".945" stop-color="#ff750a"/><stop offset="1" stop-color="#ff6100"/></radialGradient><path fill="url(#SVGID_6_)" d="M2085.041 2463.746l-130.055-51.982c35.491-25.786 83.366-40.057 83.366-40.057 30.821 47.281 46.689 92.04 46.689 92.039z"/><radialGradient id="SVGID_7_" cx="874.594" cy="1520.088" r="152.099" gradientTransform="translate(1240.465 1057.333)" gradientUnits="userSpaceOnUse"><stop offset="0" stop-color="#ffdb3b"/><stop offset=".297" stop-color="#ffd93a"/><stop offset=".469" stop-color="#ffd036"/><stop offset=".609" stop-color="#ffc22f"/><stop offset=".732" stop-color="#ffae25"/><stop offset=".843" stop-color="#ff9519"/><stop offset=".945" stop-color="#ff750a"/><stop offset="1" stop-color="#ff6100"/></radialGradient><path fill="url(#SVGID_7_)" d="M2244.965 2613.76l-.128-18.925-21.733 9.758.123 18.108c-10.115 3.539-20.96 6.521-32.461 8.942l-.103-14.34-21.831-6.254.162 24.307c-7.446 1.003-15.146 1.749-23.09 2.242l-.179-26.404-21.745 6.557.139 20.566a378.3 378.3 0 0 1-28.591-.988l2.365-22.604-28.223-3.017.146 22.746c-15.785-2.411-30.305-5.856-43.521-10.219l-.152-22.664-21.842-6.268.135 20.4c-56.545-25.673-83.822-69.188-84.121-109.521 13.858 15.383 32.949 28.938 55.896 39.954l-2.234 20.035 28.26 6.232-.105-15.502a300.452 300.452 0 0 0 21.605 6.815l.151 24.072 21.831 5.021-.152-23.878c9.313 1.916 18.916 3.474 28.739 4.685l.199 28.754 28.14-9.81-2.186-16.614c8.158.445 16.435.653 24.813.596a420.656 420.656 0 0 0 17.033-.483l-2.777 18.337 31.415-.194-.137-20.566c8.856-1.083 17.53-2.431 25.979-4.084l-2.014 18.08 28.262 6.219-.205-30.422c11.424-3.159 22.332-6.829 32.621-10.986l.125 18.272 21.733-9.757-.125-18.426c21.337-11.019 39.096-24.248 52.098-39.063.24 40.167-28.448 83.841-84.315 110.291z"/><g fill="#212121"><path d="M1209.83 2411.442c.143-1.306.271-2.625.39-3.944v-.035c.047-.445.071-.905.118-1.365.022-.26.035-.52.06-.777.151-1.931.293-3.874.411-5.816 0-.035.011-.068.011-.095 0-.047 0-.082.015-.116.54-9.311.599-18.643.175-27.959a241.777 241.777 0 0 0-.472-7.798 260.72 260.72 0 0 0-3.32-26.346 224.385 224.385 0 0 0-1.413-7.22 256.823 256.823 0 0 0-2.461-10.505 258.883 258.883 0 0 0-1.873-6.798 220.491 220.491 0 0 0-3.134-9.82 206.18 206.18 0 0 0-3.51-9.354 182.681 182.681 0 0 0-1.248-3.004 163.75 163.75 0 0 0-6.798-14.133c-.479-.881-.971-1.756-1.471-2.625-13.828-24.263-31.999-39.714-51.608-40.855-19.607-1.153-39.478 12.07-56.035 34.556-.59.801-1.18 1.612-1.769 2.448-2.908 4.123-5.711 8.552-8.396 13.228a280.03 280.03 0 0 0-1.592 2.839 201.42 201.42 0 0 0-4.568 8.879 210.698 210.698 0 0 0-4.264 9.389 245.782 245.782 0 0 0-2.649 6.523 237.593 237.593 0 0 0-3.674 10.163 244.144 244.144 0 0 0-2.237 6.997 255.943 255.943 0 0 0-6.384 25.79 262.61 262.61 0 0 0-1.377 7.68 268.816 268.816 0 0 0-3.075 27.771c-.011.047-.011.094-.011.129v.096c-.118 1.94-.2 3.896-.271 5.829-.013.26-.022.52-.022.777-.022.46-.036.917-.047 1.365v.048c-.04 1.318-.067 2.637-.082 3.956v.104c-.012.227-.012.438-.012.671-.035 3.229 0 6.432.082 9.611.021 1.178.059 2.355.104 3.532a.393.393 0 0 0 .013.118c.036 1.166.095 2.319.153 3.483v.096a261.268 261.268 0 0 0 4.085 34.332c.013.033.013.068.022.104.209 1.113.425 2.225.649 3.334.211 1.035.437 2.072.657 3.106.014.05.014.097.023.144 1.861 8.551 4.135 16.736 6.762 24.483.034.07.06.144.082.226.295.858.588 1.719.896 2.565.062.153.106.295.153.438.295.813.588 1.626.896 2.426.062.179.129.354.2.531.295.776.589 1.555.884 2.319.082.188.153.377.235.575.295.754.6 1.521.906 2.272.069.166.151.342.225.521.316.765.635 1.53.953 2.283.06.129.117.26.177.389.282.648.553 1.295.835 1.92.013.023.013.035.023.048.059.143.129.271.188.412.789 1.769 1.614 3.52 2.474 5.254l.035.067a162.74 162.74 0 0 0 2.346 4.549c.07.117.129.246.199.377.082.15.164.306.248.458.049.096.096.178.141.26.214.379.414.754.625 1.132.132.225.261.446.377.671.104.188.212.389.316.576.036.048.071.106.107.166.175.306.354.611.542.931.151.261.304.53.458.8.131.213.26.448.402.659.011.036.035.071.058.118.165.26.317.506.481.766.168.297.343.578.521.85.153.259.308.519.46.766.021.023.034.05.047.07.141.213.282.425.411.636.188.296.377.577.556.873.188.271.364.563.553.85.084.117.152.234.236.354.047.059.094.129.141.199l.576.859c.213.307.424.624.637.932.07.104.142.198.213.305a.404.404 0 0 1 .082.117l.601.85c.248.33.483.686.73 1.013.061.097.129.179.188.261l.024.021c.199.283.411.541.611.813.271.366.541.742.822 1.107.051.059.098.117.143.177.177.235.365.459.554.694.331.425.647.85.989 1.26.131.152.26.296.377.46.316.378.625.741.931 1.118.094.105.188.225.282.33.047.047.083.094.117.143.119.141.25.282.377.425.142.164.283.329.437.493.247.281.482.564.742.838.062.068.118.14.177.211l.52.553c.058.062.117.132.175.188.271.295.542.589.813.87.082.096.163.188.26.271.164.179.342.343.507.521.034.035.071.068.104.104.271.283.556.576.837.859.118.106.226.225.344.33.129.129.271.261.398.39.047.036.083.082.129.118.284.281.578.553.873.834.131.118.271.261.4.379.152.143.307.271.459.41.293.271.6.542.896.803.164.143.315.295.48.424.129.117.261.212.391.329.307.261.611.507.918.768.188.153.364.308.555.46.094.082.199.152.305.234.32.259.639.507.967.754.199.152.399.315.603.471.082.061.153.105.235.165.34.26.682.495 1.022.741.211.152.424.318.647.472.047.034.095.06.142.095.39.271.789.529 1.19.789.188.129.39.271.588.398.021.015.048.023.059.035a47.31 47.31 0 0 0 1.837 1.119c.015.012.036.022.05.035.15.083.316.176.471.258.459.26.906.521 1.365.768.034.023.084.048.118.07.2.106.411.2.611.309.389.198.776.398 1.166.588.071.021.142.07.2.094.199.096.398.178.602.271.365.179.742.343 1.105.507.105.035.201.082.296.129l.54.214c.365.151.729.307 1.107.446.117.049.234.096.363.142.153.061.318.106.484.166.365.131.729.26 1.095.389.153.047.293.105.447.152.142.035.271.071.413.117.363.118.74.226 1.117.331.166.048.343.104.506.15.119.023.225.049.343.071.378.105.767.188 1.142.283h.024c.188.046.364.094.553.141.082.012.179.023.261.047.399.082.801.152 1.201.226.2.035.4.082.611.117.061.012.118.012.165.022.448.071.896.129 1.344.177.211.034.437.071.66.096.671.068 1.342.129 2.013.164.674.048 1.331.06 2.006.071.222 0 .457-.014.682-.014.447 0 .895-.012 1.344-.022h.164c.211-.013.424-.034.625-.045.411-.024.813-.05 1.224-.086.082-.011.179-.011.261-.021.188-.012.375-.047.563-.07h.024c.389-.035.776-.082 1.166-.144l.343-.032c.176-.035.354-.071.528-.097.39-.059.768-.129 1.143-.198.143-.023.295-.036.438-.071.15-.021.305-.071.459-.095.377-.082.754-.164 1.131-.248.164-.047.33-.068.506-.117.117-.021.249-.068.377-.104.377-.096.753-.188 1.142-.296.188-.059.377-.105.566-.152.104-.035.2-.07.305-.105.39-.117.767-.235 1.155-.364.213-.069.424-.129.635-.2l.213-.069c.4-.142.813-.294 1.225-.447.214-.082.425-.152.638-.233.046-.024.093-.035.129-.062.481-.188.953-.389 1.424-.589.179-.071.354-.143.521-.211.021-.014.037-.024.059-.024a47.567 47.567 0 0 0 1.943-.905c.021-.013.047-.013.072-.023.211-.104.424-.225.635-.329.424-.213.849-.424 1.26-.647.061-.021.105-.047.165-.07.224-.129.46-.271.694-.389.365-.211.729-.411 1.107-.625.083-.047.165-.082.247-.129.211-.129.437-.271.66-.398.342-.214.694-.425 1.035-.636l.342-.202.603-.389c.33-.223.672-.438 1-.657.143-.096.285-.178.424-.271.178-.133.354-.262.531-.379.316-.225.646-.459.978-.685.165-.118.329-.235.507-.354.141-.116.293-.222.446-.341.317-.233.636-.471.954-.72l.141-.104c.152-.118.307-.227.449-.344.129-.096.246-.199.375-.295.307-.246.613-.492.931-.74.036-.036.083-.061.118-.096.189-.152.378-.295.566-.459a4.52 4.52 0 0 0 .281-.234c.308-.248.601-.508.905-.769.071-.058.144-.116.213-.175.188-.165.375-.318.564-.484.071-.068.142-.129.213-.187.271-.249.553-.496.823-.742.166-.153.33-.296.494-.448.142-.129.283-.246.424-.375.047-.05.082-.084.131-.132a3.82 3.82 0 0 0 .211-.2c.389-.363.777-.729 1.166-1.095.14-.144.281-.271.424-.413.391-.376.777-.773 1.166-1.165.2-.2.4-.389.602-.59.047-.061.104-.104.151-.165.329-.329.646-.671.966-1.014.223-.234.458-.472.684-.718l.022-.023c.083-.082.153-.164.224-.235.284-.307.565-.624.849-.939.235-.248.46-.496.684-.754.036-.035.071-.07.104-.106l.25-.281c.246-.282.492-.564.742-.858.224-.26.445-.519.67-.777.095-.105.188-.225.293-.331.049-.058.096-.116.143-.176.225-.261.438-.53.648-.788.223-.26.436-.521.646-.777.166-.199.331-.398.495-.604.011-.011.035-.034.046-.059.188-.235.378-.471.553-.706.213-.26.413-.507.613-.767.364-.482.741-.953 1.106-1.448.188-.235.377-.482.555-.73.223-.293.447-.575.66-.871l.104-.143.391-.528c.151-.213.307-.425.459-.636.248-.343.496-.695.754-1.05.049-.069.104-.151.164-.234.105-.143.203-.284.308-.438.071-.104.144-.213.226-.33a218.348 218.348 0 0 0 2.875-4.252c.01-.022.021-.047.033-.07 1.531-2.355 3-4.751 4.405-7.185.069-.104.129-.226.2-.342.41-.718.824-1.449 1.234-2.179.084-.152.178-.318.26-.472.399-.72.803-1.438 1.188-2.168.097-.178.188-.354.271-.53.401-.729.791-1.459 1.168-2.211.095-.168.177-.332.26-.496.398-.766.787-1.535 1.166-2.31.07-.129.129-.26.199-.399.399-.813.801-1.638 1.203-2.461.035-.07.058-.132.093-.201 3.521-7.385 6.737-15.264 9.573-23.542a.972.972 0 0 0 .049-.118c.341-1.013.683-2.013 1.014-3.038a.944.944 0 0 0 .047-.142c.342-1.025.671-2.05.989-3.086.011-.034.024-.061.034-.095 3.334-10.67 6.064-21.939 8.067-33.638 0-.021 0-.046.013-.082l.564-3.45c0-.034.012-.069.012-.104.678-4.327 1.252-8.67 1.721-13.025v-.012c.022-.225.058-.46.082-.684-.007-.033-.007-.06-.007-.095z"/><path d="M1229.182 2493.989c.07-.093.152-.198.234-.293a187.005 187.005 0 0 0 2.804-3.639c.021-.035.047-.071.058-.096 2.887-3.898 5.643-8.091 8.257-12.542.035-.071.082-.129.118-.2a162.364 162.364 0 0 0 2.497-4.416c.036-.07.071-.142.118-.224a171.209 171.209 0 0 0 2.426-4.632l.035-.069c3.239-6.466 6.195-13.354 8.811-20.609.012-.021.012-.036.021-.047.654-1.82 1.283-3.649 1.884-5.487 0-.013.013-.024.013-.035 3.052-9.306 5.537-19.14 7.35-29.338 0-.011 0-.022.011-.034a226.914 226.914 0 0 0 2.075-14.476c.188-1.768.363-3.532.518-5.323.022-.213.036-.447.059-.684.143-1.742.271-3.485.377-5.252.481-8.246.496-16.384.082-24.354-.115-2.264-.27-4.525-.459-6.784a195.411 195.411 0 0 0-1.061-10.012 225.29 225.29 0 0 0-.941-6.549c-.179-1.082-.354-2.155-.541-3.228a269.097 269.097 0 0 0-1.237-6.358c-.66-3.146-1.39-6.241-2.177-9.28-4.218-16.205-10.236-30.81-17.562-42.917-.46-.754-.919-1.507-1.392-2.237-3.273-5.157-6.795-9.823-10.519-13.933a80.485 80.485 0 0 0-4.887-4.958c-9.433-8.765-19.95-13.992-30.927-14.628-10.977-.646-22.024 3.32-32.422 10.918a78.65 78.65 0 0 0-5.431 4.356c-4.181 3.64-8.221 7.854-12.069 12.602a85.606 85.606 0 0 0-1.639 2.062c-4.828 6.195-9.341 13.215-13.438 20.896-3.18-8.104-6.842-15.596-10.905-22.318-.46-.755-.931-1.497-1.392-2.239-3.273-5.157-6.795-9.819-10.517-13.933a81.108 81.108 0 0 0-4.887-4.944c-9.435-8.764-19.952-13.993-30.928-14.64-10.978-.648-22.036 3.332-32.423 10.916a81.415 81.415 0 0 0-5.43 4.356c-4.182 3.652-8.221 7.868-12.07 12.604-.555.682-1.096 1.365-1.648 2.07-8.681 11.166-16.372 24.97-22.447 40.573a197.893 197.893 0 0 0-3.25 8.962 226.462 226.462 0 0 0-1.955 6.171 124.14 124.14 0 0 0-.918 3.146 213.112 213.112 0 0 0-5.173 22.894 219.006 219.006 0 0 0-2.757 24.202c-.104 1.755-.188 3.51-.247 5.251 0 .236-.011.472-.021.695a224.931 224.931 0 0 0 .269 19.964v.035a215.62 215.62 0 0 0 3.876 29.982c.011.013.011.036.011.048.391 1.907.804 3.791 1.237 5.664 0 .015 0 .035.011.062 1.744 7.502 3.875 14.687 6.351 21.492a.127.127 0 0 1 .021.06 161.821 161.821 0 0 0 1.873 4.898c.024.07.062.152.095.225a161.333 161.333 0 0 0 1.955 4.688c.036.071.06.131.094.2 2.086 4.734 4.334 9.223 6.736 13.428.012.033.036.068.047.094.765 1.33 1.555 2.645 2.368 3.945.06.117.129.225.2.329a113.45 113.45 0 0 0 2.379 3.649c.083.118.165.247.258.378a99.262 99.262 0 0 0 2.461 3.45c.071.105.153.199.227.306.848 1.129 1.72 2.24 2.613 3.333.023.035.061.07.082.096a89.876 89.876 0 0 0 2.793 3.25l.012.013a93.02 93.02 0 0 0 2.768 2.921c.094.095.188.178.282.271.877.884 1.78 1.74 2.71 2.568l.389.354c.907.8 1.813 1.563 2.732 2.308.141.106.271.226.411.331a65.31 65.31 0 0 0 2.813 2.095c.117.082.226.153.342.235a63.075 63.075 0 0 0 2.979 1.943c.036.022.071.035.106.061 1 .595 2.017 1.159 3.05 1.694.071.036.151.083.225.118 1.001.507 2.001.966 3.003 1.399.153.063.297.129.448.189.979.397 1.966.776 2.955 1.104.165.062.342.117.507.164.99.319 1.99.604 2.992.851.165.034.316.069.48.116a40.03 40.03 0 0 0 3.086.59c.117.022.234.035.354.047 1.086.162 2.178.275 3.273.342 1.107.071 2.203.071 3.3.049.118 0 .233 0 .353-.013a33.18 33.18 0 0 0 3.133-.225c.164-.022.33-.035.494-.06a46.895 46.895 0 0 0 3.073-.495c.177-.036.342-.071.521-.105a40.597 40.597 0 0 0 3.073-.753c.151-.049.306-.094.447-.129a59.063 59.063 0 0 0 3.156-1.037c.083-.035.165-.071.247-.096a59.952 59.952 0 0 0 3.217-1.33c.046-.022.082-.034.118-.047a57.449 57.449 0 0 0 3.179-1.591c.129-.06.247-.117.365-.188a53.639 53.639 0 0 0 3.052-1.754c.14-.095.293-.188.447-.281a64.136 64.136 0 0 0 2.979-1.969c.144-.104.284-.199.425-.306a58.792 58.792 0 0 0 3.004-2.239c.095-.068.198-.151.295-.233a90.409 90.409 0 0 0 3.097-2.567l.011-.012a87.891 87.891 0 0 0 3.146-2.896.955.955 0 0 1 .104-.097c1-.979 1.99-1.978 2.979-3.016.082-.093.177-.176.26-.271a92.227 92.227 0 0 0 2.85-3.145c.094-.118.2-.226.309-.342a115.398 115.398 0 0 0 2.779-3.347c.082-.105.164-.199.246-.307a135.21 135.21 0 0 0 2.803-3.64c.012-.034.037-.059.059-.093 2.886-3.898 5.643-8.093 8.257-12.544.036-.06.082-.129.118-.188a163.034 163.034 0 0 0 2.497-4.428c.035-.07.071-.144.118-.212.164-.319.328-.624.506-.931.129.329.26.646.389.979.036.082.059.152.094.234a130.272 130.272 0 0 0 1.969 4.678c.021.067.058.141.082.211a147.99 147.99 0 0 0 6.734 13.426c.023.023.035.061.061.097.76 1.329 1.544 2.645 2.354 3.944.071.104.133.211.202.316a121.914 121.914 0 0 0 2.377 3.649c.084.131.179.26.261.377a114.192 114.192 0 0 0 2.461 3.45c.084.105.152.213.234.308a110.88 110.88 0 0 0 2.604 3.345c.036.023.058.06.083.094a83.317 83.317 0 0 0 2.803 3.252l.011.012a62.81 62.81 0 0 0 2.77 2.908c.083.096.178.188.271.283.883.876 1.786 1.73 2.708 2.565.132.116.261.237.39.354.908.8 1.814 1.565 2.731 2.31.142.104.284.211.413.316a62.616 62.616 0 0 0 2.814 2.107c.116.082.233.152.342.234.988.672 1.977 1.33 2.979 1.932.035.023.071.049.106.061.994.604 2.012 1.17 3.05 1.695.071.048.152.095.225.131 1 .506 2.002.965 3.016 1.4.142.059.281.117.436.188.979.402 1.969.768 2.957 1.096.18.062.344.117.506.179 1.002.316 1.991.601 2.992.848l.482.104a41.76 41.76 0 0 0 3.085.603c.118.012.233.022.353.048 1.084.153 2.18.271 3.286.342 1.095.059 2.19.071 3.298.035h.34a40.29 40.29 0 0 0 3.146-.234c.165-.014.331-.035.495-.05a46.69 46.69 0 0 0 3.582-.599 56.853 56.853 0 0 0 3.073-.752l.459-.145a45.893 45.893 0 0 0 3.146-1.035c.082-.022.165-.06.247-.095a51.325 51.325 0 0 0 3.229-1.331.406.406 0 0 0 .104-.047 52.821 52.821 0 0 0 3.192-1.579c.116-.06.233-.129.364-.188a69.602 69.602 0 0 0 3.037-1.769c.153-.082.295-.177.448-.271a65.708 65.708 0 0 0 2.979-1.979c.144-.096.282-.2.438-.295a85.843 85.843 0 0 0 2.992-2.237c.094-.082.191-.16.293-.235a78.647 78.647 0 0 0 3.099-2.578h.011a102.12 102.12 0 0 0 3.156-2.909c.023-.022.061-.06.094-.095a108.56 108.56 0 0 0 2.981-3.004c.082-.096.175-.188.258-.28a105.792 105.792 0 0 0 2.853-3.136c.104-.116.199-.233.305-.354a110.694 110.694 0 0 0 2.781-3.332z"/><path d="M1148.59 2235.019c-8.93-38.265-29.066-56.061-29.066-56.061-2.037 7.539-8.186 13.168-8.186 13.168 2.086 3.297 3.77 6.549 5.1 9.728 9.033 21.612-1.061 47.711-20.41 55.94-8.385 3.582-13.672 8.789-14.05 15.17-.802 13.66 21.245 26.073 49.229 27.699 27.996 1.648 51.327-8.104 52.127-21.765.425-7.22-5.571-13.685-15.463-18.42-9.378-4.468-16.574-13.834-19.281-25.459z"/><path d="M1119.523 2178.959s2.403 11.521-8.187 13.168c0 0-1.705-12.485 8.187-13.168zm3.063 224.982c4.979-84.95 52.455-156.073 98.787-153.365 46.344 2.723 91.309 113.24 86.338 198.19-4.969 84.961-58.568 121.729-104.899 119.02-46.343-2.708-85.197-78.884-80.226-163.845z"/><path d="M935.679 2426.99c4.971-84.962 62.538-189.474 108.87-186.766 46.343 2.71 85.197 78.884 80.214 163.846-4.97 84.961-52.443 156.074-98.788 153.364-46.331-2.708-95.266-45.496-90.296-130.444z"/><path d="M1092.918 2414.741c4.971-84.961 50.761-156.188 95.277-153.575 44.53 2.604 81.688 78.672 76.716 163.636-4.969 84.961-50.759 156.178-95.276 153.575-44.53-2.617-81.687-78.686-76.717-163.636z"/><path d="M980.986 2408.181c4.972-84.962 50.761-156.18 95.28-153.564 44.517 2.604 81.688 78.674 76.716 163.635-4.979 84.961-50.759 156.181-95.289 153.563-44.519-2.602-81.687-78.672-76.707-163.634z"/><path d="M1035.857 2420.219c4.888-83.418 50.878-153.281 95.691-150.666 44.825 2.637 82.347 77.389 77.459 160.806-4.888 83.418-50.865 153.283-95.691 150.655s-82.335-77.378-77.459-160.795z"/><path d="M1035.857 2420.219c4.888-83.418 50.878-153.281 95.691-150.666 44.825 2.637 82.347 77.389 77.459 160.806-4.888 83.418-50.865 153.283-95.691 150.655s-82.335-77.378-77.459-160.795z"/></g><radialGradient id="SVGID_8_" cx="-52.247" cy="1404.664" r="45.023" gradientTransform="rotate(1.897 -28617.537 39723.827)" gradientUnits="userSpaceOnUse"><stop offset="0" stop-color="#ffdb3b"/><stop offset=".297" stop-color="#ffd93a"/><stop offset=".469" stop-color="#ffd036"/><stop offset=".609" stop-color="#ffc22f"/><stop offset=".732" stop-color="#ffae25"/><stop offset=".843" stop-color="#ff9519"/><stop offset=".945" stop-color="#ff750a"/><stop offset="1" stop-color="#ff6100"/></radialGradient><path fill="url(#SVGID_8_)" d="M1235.635 2334.586c10.671 11.941 20.104 29.186 14.97 45.577-7.772 24.779-44.177 33.144-68.967 25.368-18.22-5.7-30.622-16.395-32.767-34.178 31.703 1.602 67.26-12.249 86.764-36.767z"/><radialGradient id="SVGID_9_" cx="-201.703" cy="1400.222" r="45.284" gradientTransform="rotate(1.897 -28617.537 39723.827)" gradientUnits="userSpaceOnUse"><stop offset="0" stop-color="#ffdb3b"/><stop offset=".297" stop-color="#ffd93a"/><stop offset=".469" stop-color="#ffd036"/><stop offset=".609" stop-color="#ffc22f"/><stop offset=".732" stop-color="#ffae25"/><stop offset=".843" stop-color="#ff9519"/><stop offset=".945" stop-color="#ff750a"/><stop offset="1" stop-color="#ff6100"/></radialGradient><path fill="url(#SVGID_9_)" d="M1020.571 2322.254c-11.99 10.611-23.38 26.89-20.199 43.776 4.829 25.509 39.783 37.547 65.306 32.717 18.762-3.545 32.588-12.694 36.804-30.114-31.681-2.096-65.388-19.75-81.911-46.379z"/><radialGradient id="SVGID_10_" cx="893.105" cy="1518.476" r="59.703" gradientTransform="matrix(1.553 .0514 -.0331 .9995 -216.81 918.445)" gradientUnits="userSpaceOnUse"><stop offset="0" stop-color="#ffdb3b"/><stop offset=".297" stop-color="#ffd93a"/><stop offset=".469" stop-color="#ffd036"/><stop offset=".609" stop-color="#ffc22f"/><stop offset=".732" stop-color="#ffae25"/><stop offset=".843" stop-color="#ff9519"/><stop offset=".945" stop-color="#ff750a"/><stop offset="1" stop-color="#ff6100"/></radialGradient><path fill="url(#SVGID_10_)" d="M1120.156 2475.088c-45.695-1.507-86.609-14.92-115.688-35.33 3.25 50.075 56.425 78.849 114.182 80.757 57.768 1.907 114.594-24.92 119.27-73.03-30.361 18.429-72.065 29.122-117.764 27.603z"/></svg>