<svg xmlns="http://www.w3.org/2000/svg" id="图层_3" viewBox="0 0 3000 3000"><path fill="#386F72" d="M1479.742 92c508.375 4.937 920.354 68 1104.307 340 183.951 272 143.645 1374.768 55.027 1771.136-88.616 396.366-2092.061 285.813-2092.061 285.813S484 2248 472 1628 243.489 80 1479.742 92z"/><circle cx="1605.66" cy="1210.889" r="788.12" fill="#FC6"/><g fill="#FFA000" opacity=".35"><path d="M1656.141 1989.125c-1.069-1.304-2.01-2.672-2.521-4.296-4.102-5.769-11.108-8.503-15.039-14.397-1.326-1.281-2.649-2.563-4.019-3.761-6.474-6.366-13.887-11.323-22.347-14.679-22.521-8.951-57.258 7.028-65.248 28.31a58.297 58.297 0 0 0-4.104 3.119c-4.017-1.538-7.371-.343-10.275 2.861-.49.534-.963 1.091-1.432 1.624 23.073 2.052 46.446 3.162 70.076 3.162 18.461 0 36.749-.683 54.909-1.943zM1065.559 648.573c10.77 3.771 21.6 2.201 32.453.417 8.375-1.271 16.322 1.303 24.482 2.353 15.512 1.984 25.316 13.31 37.433 20.731-6.646 5.098-6.453 10.225.149 15.372 1.815 4.852 3.889 9.112 10.147 9.486 4.741.289 8.674 2.083 7.647 8.204-1.582 3.94-5.214 6.891-5.813 11.439-1.922 10.887-10.682 19.324-10.98 30.818-.043 6.56-1.709 13.14-.513 19.624 1.195 6.334-.384 9.133-3.526 10.084 4.168-3.547 3.869-8.941 1.988-14.347-2.457-7.029-8.994-8-15.597-7.885-7.222.117-13.245 3.75-19.334 6.911-8.653 4.497-16.687 5.587-23.693-2.842a27.314 27.314 0 0 0-4.166-3.854c-.364-.203-.704-.429-1.067-.662.17-.535.343-1.068.406-1.656-2.053-9.229-9.061-14.314-16.195-19.26h-7.713c-6.389 0-12.797 0-19.207-.012-7.733-4.391-15.467-4.443-23.224.012v.01c-12.883-.063-21.429 8.45-30.765 15.446-9.594 7.521-19.548 14.464-30.829 19.25-1.281 2.586-2.542 5.181-3.802 7.767a13912.43 13912.43 0 0 0-11.666 15.297c-1.262 1.303-2.521 2.606-3.803 3.899-4.104 6.42-4.104 12.851-.043 19.292l.063 3.825c0 2.563-.021 5.127-.021 7.7 1.237 5.116 2.479 10.224 3.694 15.341-1.602 1.985-3.418 3.855-4.784 5.991-8.056 12.627-13.141 26.312-13.737 41.361-.47 11.718 9.145 15.692 16.792 21.365 2.095 1.538 3.291 5.63 3.205 8.503-.385 14.015 8.975 14.966 19.271 15.287 11.815.374 22.71-3.087 33.372-7.648 5.813-3.739 10.469-2.073 14.954 2.617 2.606 2.713 5.385 3.782 8.077 2.329l.127 2.703c.447 5.555-.876 12.765 5.341 15.062 9.636 3.578 11.108-8.343 17.646-11.206h.021c1.133-1.217 1.688-2.436 1.73-3.651.363-.15.727-.289 1.068-.438 13.289-13.331 15.23-32.656 25.188-47.75 1.688-5.662 7.627-10.533 4.723-17.081 7.732 1.325 11.003-1.784 10.255-8.95 1.666 1.355 3.653 2.071 5.812 1.463 21.75-6.163 36.489 2.265 47.984 20.69 9.229 14.795 22.73 19.57 39.311 11.42.94-.459 1.9-.919 2.863-1.389 2.437 1.186 5.428 1.207 8.375 1.368 17.859.213 34.76 2.445 44.01 20.831 5.043 16.888 2.63 22.966-12.562 27.409-12.862 3.771-26.448 7.8-39.653 4.209-24.996-6.815-43.754.041-57.213 21.974-13.248 11.002-25.041 23.747-35.252 37.26-11.473 15.126-28.117 28.511-25.938 50.911.298.663.726 1.208 1.152 1.763a1691.728 1691.728 0 0 1-6.365 3.302c-10.641 16.965-12.99 33.702-6.109 53.797 4.785 13.951 13.416 23.789 21.491 34.791 10.405 7.701 5.042 15.402-.021 23.104a14.85 14.85 0 0 0-2.543 1.955c-6.324 5.47-6.539 12.542-1.602 19.346 5.275 7.308 11.045 3.302 15.68-2.083 11.604-10.361 19.635-3.867 25.531 6.367 4.999 8.686 9.936 17.241 16.878 24.516 2.756 10.608 4.785 21.877 17.903 24.881 16.537 3.78 48.027-15.683 50.549-32.655 1.793-11.9 7.136-20.2 16.322-26.876l.021-.012c3.909.055 7.841.098 11.729.149 1.219-.032 2.436-.086 3.633-.149 21.363-11.002 44.096-11.291 67.189-8.565 17.711-5.171 23.864-13.791 24.849-34.611.446-9.123-.896-20.04 10.597-22.935 8.953-2.254 15.639-8.418 24.229-10.832 4.358-2.021 8.48-4.4 11.985-7.744a83.388 83.388 0 0 0 3.674-.171c.449-1.335.449-2.585.107-3.771 27.262-.865 29.228-2.691 35.229-29.259 1.091-4.796 3.548-9.443 6.133-13.684 6.065-9.851 20.744-18.534 12.712-31.032-8.313-12.925-24.421-6.058-37.324-5.778-3.057.063-6.068 1.772-9.103 2.725-8.802.812-13.931 4.434-12.071 13.396-.32.14-.662.277-.982.458-.15-.16-.32-.319-.472-.49-1.793-.727-3.651-.897-5.532-.588-3.932 1.399-5.405 4.722-6.496 8.344-2.842 9.134-9.998 11.408-18.457 11.645-6.604-.054-12.008 3.3-17.563 6.249-3.76 2.457-7.798 4.529-11.366 7.263.022-.501 0-1.003-.084-1.506-1.625-7.178-7.927-7.851-13.461-9.667-7.734-2.67-9.441-7.818-6.259-15.03 12.989-17.22 35.313-28.266 41.64-48.936 7.733-25.188 23.842-44.728 35.528-67.116 3.804-7.296 9.808-13.428 2.224-22.166-4.638-5.341.318-9.592 4.443-12.487 10.296-7.221 21.086-12.434 33.457-4.25a225.85 225.85 0 0 1 4.166 3.717c21.321 23.139 29.162 23.834 56.68 4.926 3.951-3.503 7.754-7.125 8.523-12.754.771-6.604-.257-12.616-5.662-17.188-5.813-3.075-11.365-7.179-18.054-6.676 1.026-2.756.877-5.758.964-8.717-.064-6.42-1.625-12.81-.386-19.262 3.418-13.65 10.874-26.14 11.813-40.484.343-5.117.535-10.543-5.34-13.246-5.021-2.308-8.677.651-12.052 3.665-6.451 5.811-12.688 11.835-22.688 12.979.556-6.237 3.205-10.733 4.914-15.5 10.361-28.959 10.383-28.947 36.875-16.707 7.285-.073 14.635.503 21.899-.736 10.274-3.919 11.343-12.669 11.449-21.909.362-8.932 2.243-17.647 3.481-26.45.107-2.264.172-4.551.172-6.826 0-12.669.6-25.392-.191-38.05-1.176-18.715-11.771-28.648-30.401-29.173-9.507-.268-19.017-.107-28.543-.021-1.112.075-2.267.098-3.376.14-1.152-.545-2.309-1.102-3.418-1.794-7.99-5.128-3.908-10.747-.643-16.28 11.409-19.187 19.145-40.111 28.673-60.174 2.733-8.974 9.229-12.766 18.159-13.931 14.654-1.911 27.305 1.997 38.113 11.966 4.529 2.852 9.252 3.226 14.188 1.164 2.093-1.421 3.396-3.271 3.866-5.557 5.171 5.6 12.307 2.916 18.607 3.45 16.94 1.41 33.97-6.217 50.869.438 8.588.973 11.407-10.342 22.349-10.98-15.3 18.779-35.572 28.884-46.79 47.697-6.09 8.801-16.044 11.482-24.975 15.938-11.965 5.972-25.724 9.562-32.562 22.87-.576 4.167-.513 8.214 2.394 11.655.086.075.172.127.258.203a2.092 2.092 0 0 1-.301.128c-.938.929-1.646 1.997-2.221 3.129-12.35 7.648-8.503 19.121-6.368 30.21l-.342.117c-1.367 1.335-2.095 2.947-2.138 4.882 4.315 10.084 10.916 18.459 19.103 25.745 6.408 5.684 14.144 6.879 17.604-.813 4.613-10.318 18.844-13.706 18.158-27.604-.234-4.817 4.614-7.499 9.828-6.003 4.357 1.261 9.784 3.557 12.903.929 17.562-14.815 38.563-17.391 60.205-18.384 2.521-.918 4.871-2.222 7.265-3.396 10.938-6.206 22.392-2.629 33.692-2.2.127.147.255.276.36.427a8.322 8.322 0 0 0-.727 1.763 16.852 16.852 0 0 0 .257 5.268c1.88 5.875 1.88 12.198 4.357 17.936 4.7 5.148 10.403 9.08 15.981 13.236 22.391 16.728 23.819 26.147 8.117 49.33-1.453 2.157-2.094 4.55-2.371 7.061 1.346 10.939 2.096 22.401 16.43 22.593a85.27 85.27 0 0 0 3.676 3.142c.17 10.426 10.273 18.116 10.041 28.8-.234 10.383 6.281 17.07 15.359 19.934 21.688 6.825 25.34 23.138 24.078 42.59-.6 9.594-.918 19.058 1.494 28.648 2.992 11.857 7.649 20.137 21.922 18.887 12.541-1.101 14.229 3.984 8.418 14.85-9.615 17.956-5.214 25.443 15.811 29.75l7.67.031c17.177 14.709 31.363 34.504 57.342 34.449 8.61-.021 18.737-.684 16.688-12.646-3.526-20.371 2.028-39.515 5.446-58.945 1.815-1.561 3.439-3.27 5.063-5.021 2.052-2.884 4.188-5.735 6.325-8.546 3.845-5.705 9.354-10.063 12.73-16.13l.128-.823c1.026 1.39 2.371 2.489 4.146 3.259 19.439 1.741 31.359 16.194 45.525 26.845 13.203 1.325 26.854.148 39.1 6.849 8.564 8.932 13.82 19.934 19.355 30.754 3.014 6.88 5.532 14.165 13.416 17.24 18.993 5.459 20.702 3.965 24.677-21.599 1.024-1.561 2.241-2.917 3.737-4.038 6.004-5.128 13.78-1.827 20.318-4.305 4.079-2.361 5.642-6.432 7.223-10.49v-7.702c7.945-9.625 18.01-8.269 28.199-5.191 13.76 4.167 26.387 10.758 38.264 18.758-.875 1.165-1.517 2.563-1.729 4.37 1.604 11.878 9.613 18.404 19.57 12.979 15.895-8.651 31.533-19.046 38.456-37.452 2.05.673 4.08.545 6.046-.438 8.888-9.068 8.055-20.597 7.97-31.919-.021-14.25.085-28.488-.086-42.75-1.004-7.969 2.328-16.61-3.738-23.79-4.681-7.179-6.603-14.73-5.405-22.882-67.147-107.195-159.638-196.896-269.064-260.711-.341 0-.684-.043-1.025-.032h-.021c-1.261 0-2.541-.011-3.824-.011-5.188-4.795-11.024-6.635-17.134-7.328-3.205-1.868-5.813-4.731-8.76-7.051-1.538-.791-3.076-1.526-4.724-2.104-4.123-1.347-7.604-3.61-10.383-6.933-1.133-.888-2.115-1.827-3.056-2.768a774.472 774.472 0 0 0-153.463-56.168c-1.432 1.197-2.67 2.586-3.652 4.241-3.889 2.339-6.366 6.303-6.878 12.615-2.458 2.574-2.159 5.128.043 7.682.683.555 1.431 1.09 2.178 1.624-.728 14.924-8.075 19.699-21.834 13.353-6.838-3.149-12.627-8.854-21.022-6.697-.685.268-1.304.652-1.922 1.025-1.111-6.943-3.462-13.396-11.496-14.753-9.354-1.581-12.815 5.587-15.381 12.968-6.41 7.029-12.521 14.337-19.271 20.991-4.485 4.391-10.471 10.489-16.407 7.265-.983-.522-1.666-1.08-2.18-1.646 3.142-2.274 6.261-4.616 9.399-6.934a297 297 0 0 1 4.188-4.851c5.042-4.967 6.024-11.729 7.776-18.139.643-2.146 1.09-4.337 1.28-6.581 2.138-10.425-3.418-19.195-6.196-28.585.492-4.52-2.392-8.609-5.082-12.455a786.913 786.913 0 0 0-83.363-4.443c-208.393 0-397.659 81.729-537.534 214.863a31.704 31.704 0 0 1 1.884 2.29zm248.963 265.336c-.043.246-.107.459-.128.705-.065-.479-.086-.938-.15-1.42.107.234.191.482.278.715zm28.713-133.517c3.035 1.143 5.896 3.482 8.975 4.561.386.491.77.974 1.153 1.495 3.631 4.853 6.28 10.416 10.533 14.817.534.662 1.067 1.335 1.603 1.998-6.322 15.029-17.712 23.501-36.533 22.369-.854.662-1.494 1.463-2.051 2.339-.276 0-.556.011-.834.011-10.49 1.496-21.535 1.132-30.082 8.887 1.262-7.542-4.595-8.289-9.935-9.346-12.862-2.554-17.478-10.607-15.769-22.979 10.063-4.614 9.66-18.717 20.125-22.988 17.371-10.64 34.996-7.916 52.815-1.164zm183.349-100.925v.011c.258-1.047.49-2.094.729-3.142a17.612 17.612 0 0 1-.729 3.131zM929.916 814.265c-8.439 14.229-16.451 28.714-23.992 43.509 11.983-7.926 20.401-18.533 22.195-34.192.469-3.13 1.068-6.238 1.797-9.317z"/><path d="M2002.33 1878.69c10.812-34.291 17.731-70.289 43.393-98.491 9.337-10.274 14.293-24.345 14.035-39.044-.276-15.371 1.239-30.646 1.455-45.965-1.306-2.789-3.44-4.508-6.323-5.213v-.385c10.724-4.626 19.632-11.771 28.071-19.688 7.989-7.488 16.601-14.688 28.114-15.083 18.632-.631 24.144-11.898 23.675-27.956-.386-13.556 2.221-24.74 14.782-32.923 9.06-5.875 18.289-14.453 12.945-26.896-5.256-12.309-17.006-10.373-28.265-9.688-40.657 2.488-57.363-11.271-56.854-45.604 22.689-26.118 61.726-25.627 84.563-51.812 1.899-2.188 7.222-1.837 10.979-1.954 17.817-.513 28.225-9.593 31.791-26.854v-.013c1.239-1.303 2.5-2.596 3.762-3.889 7.178-2.2 11.449-7.263 13.545-14.228 3.205-10.704 6.236-21.474 9.355-32.208 30.487-3.696 30.487-3.696 26.963 25.903-3.632 30.872 6.708 42.837 34.439 39.804 2.627 3.771 5.256 7.553 7.884 11.321 9.293 18.939 13.161 19.495 26.98 3.856 4.468-12.309 6.752-26.236 21.942-30.53a789.935 789.935 0 0 0 14.378-56.947c-.515-2.946-1.091-5.906-1.646-8.854-1.24-.021-2.501-.033-3.738-.043-4.104-11.249-10.404-18-23.268-11.526v.01c-7.327-.224-13.311-3.791-19.121-7.732l-.129-7.659v-3.878c1.709-.982 4.039-1.646 6.793-2.093 2.735-.908 5.406-1.987 7.734-3.739 7.688-10.854 14.356-22.166 15.979-35.743-.918-4.732-3.608-8.876-4.485-13.598-1.625-8.185-1.24-16.346.127-24.464 1.901-16.014-1.879-29.377-17.519-37.164-2.479-.287-4.915-.459-7.285-.086-7.437-3.707-16.217-2.041-24.463-2.444-7.028-.438-11.578 4.892-17.326 7.381-5.661 4.048-10.147 8.981-11.793 15.991-1.09 6.473-4.979 13-2.137 19.397-2.2-.588-4.552-.503-6.729-1.208-2.563-1.047-5.298-1.688-7.947-2.542-.085-3.235.301-6.719.729-10.189 3.033-5.845 2.521-12.853 2.69-19.41.063-3.461.106-6.922.147-10.384.534-8.567.686-17.125.064-25.658-.043-6.85-.086-13.694-.171-20.554.256-16.954-7.371-30.209-19.378-41.416-29.567-20.23-63.282-14.934-96.034-15.648-.05-1.19-.121-2.38-.214-3.568-2.479-.085-4.979-.147-7.478-.224-15.084-20.649-14.061-29.397 4.356-37.303 29.291-12.572 47.517-51.97 37.924-81.977-1.945-4.744-3.781-9.519-5.813-14.208-3.334-7.681-8.269-14.186-17.498-10.34-8.632 3.589-7.265 11.354-3.78 18.074 5.918 11.42.854 19.335-6.944 27.238-7.563 7.648-17.049 13.961-19.912 25.36v-.011c-2.989 15.874-9.293 28.02-27.41 31.758-9.229 1.913-13.65 10.053-13.225 20.585 1.281 31.449-6.324 39.514-37.561 40.123-15.468.311-30.699.813-43.712 10.362-.513.161-1.024.521-1.538 1.144-10.169 1.334-20.359 2.66-30.552 3.995-7.394 4.316-13.459.951-19.058-3.664-5.598-4.604-11.174-4.508-17.774-1.955-15.597 6.035-19.634 2.819-23.353-14.25-1.475-6.762 3.055-16.675-3.396-19.752-14.06-6.719-26.921-18.489-41.233-20.829-18.031-2.948-28.01-9.73-32.176-26.62-1.005-3.995-3.118-6.943-7.479-7.691-.854.171-1.582.427-2.286.726-1.175-4.636-2.328-9.271-3.502-13.906-.021-3.848-.044-7.702-.064-11.549 2.776-3.994 1.752-8.087.257-12.179-5.685-13.448-5.213-27.71-6.303-41.905-1.816-23.759-17.284-31.386-37.023-19.196-5.513 3.396-11.152 7.168-17.521 7.542-22.518 1.292-41.979 15.659-65.16 14.677-3.247-.139-6.561.94-9.636 2.745-.405-.128-.791-.246-1.195-.384-1.839-.771-3.762-1.25-5.748-1.379a9.896 9.896 0 0 0-5.428 2.285 8.736 8.736 0 0 1-1.194 1.282c.17-.47.362-.876.446-1.421-.575-3.365-2.585-5.555-5.661-6.89-2.478-.502-4.998-.823-7.541-1.06-45.998-4.38-74.455 35.019-56.467 77.575 5.34 12.646 12.37 25.349 8.46 40.123-.085 3.333.086 6.645 1.282 9.808 11.473 16.834 19.654 18.981 43.113 11.313 2.862-1.709 5.104-4.027 7.223-6.56a34.573 34.573 0 0 0 2.883-5.641c4.166-7.37 2.33-15.766 4.082-23.563 2.18-3.75-6.005-13.567 5.704-11.409 15.531 2.874 28.415-1.207 40.078-11.187 3.762-3.215 8.077-3.021 12.328-.705 6.024 3.024 10.788 9.638 18.715 7.309 2.416 15.446 10.938 26.491 25.726 31.929 12.264 4.497 21.148 10.362 19.995 25.328-.428 5.427 2.353 9.924 9.038 9.859.084-.032.191-.064.277-.098v13.17c.319 5.48-.728 11.216 1.666 16.292-.685-.073-1.346-.172-2.051-.097-3.119.715-5.386 2.66-7.267 5.159a18.135 18.135 0 0 0-2.008 5.726c-4.722 13.663-4.914 27.378-.515 41.148.387 1.965.813 3.92 1.239 5.863.429 37.195 28.371 55.271 52.856 75.6 4.656 3.867 10.724 3.514 16.406.812 1.495-.864 1.582-2.946 3.377-3.771h.063c-.364 1.08-.534 2.447-.448 3.835.344.759.703 1.538 1.047 2.287 3.141 3.129 7.541 4.646 10.532 8.043 6.323 9.943 13.78 13.663 25.038 6.388 9.699-6.281 17.969-3.162 23.673 6.751a56.333 56.333 0 0 0 3.418 4.198c4.038 4.957 9.188 5.629 14.956 3.888a10.379 10.379 0 0 0 3.762-3.867c.854-5.49 3.717-9.785 7.988-13.235 6.922-8.737 13.246-9.121 18.715 1.39 1.624 3.086 1.624 7.231 5.557 8.706.129 1.772.172 3.579.19 5.395-2.499 8.033-1.623 16.047 2.905 24.047.92 2.842 1.859 5.693 2.777 8.535 0 2.521.662 5.225 1.305 8.064 2.137 9.497 5.039 19.484-3.119 27.999-8.652 2.189-14.018-4.743-20.812-7.659-5.297-2.264-10.47-5.405-15.297-2.18-2.241-6.603-7.989-10.703-12.733-15.297-8.586-8.344-19.482-9.282-27.047-.311-14.121 16.803-32.922 25.424-51.938 34.226-16.92 13.27-31.598 29.772-54.072 34.825-6.58 1.475-9.061 8.161-9.998 15.03-2.244 16.226-9.871 29.632-23.845 38.317-8.353 5.189-13.522 12.519-13.974 21.343-1.56 31.14 2.395 62.791-9.355 92.817-4.68-2.469-9.018.202-13.48 1.25a26.76 26.76 0 0 0-4.852 2.979c-3.504 2.681-7.264 4.391-11.193 5.564-6.324-.258-12.646-.759-18.973-1.612-21.449-2.873-34.675 9.815-33.886 30.571-.36 1.391-.726 2.843-1.109 4.392-.896 3.686-1.752 7.382-3.098 10.929-.728 1.655-1.519 3.29-2.287 4.925-3.888 7.853-10.979 12.326-17.925 16.909-10.617 10.447-4.229 18.565 3.654 26.481a13.707 13.707 0 0 0 3.801 1.261c1.069 2.874 2.586 5.256 5.92 4.519 3.908-.887 4.229-3.803 4.08-7.008.213-.139.427-.256.641-.416a24.26 24.26 0 0 0 4.615-3.633c12.178-14.42 29.271-10.896 44.994-12.358 3.48-.887 6.451-2.96 9.74-4.284 9.146-8.086 19.721-11.879 31.92-10.648a731.3 731.3 0 0 0 4.913.011c.214.268.404.545.685.802 17.86 3.321 35.723 7.146 53.068-.813.471.063.963.139 1.454.203 9.869 10.521 22.22 9.475 34.374 9.154 8.288 5.875 7.157 16.418 4.594 42.407-.854 8.705-1.58 17.767 2.116 25.595.746 4.338 1.688 8.676 2.69 13-2.071 4.604-.877 10.244-2.071 15.127-1.091 9.688-4.957 18.771-15.171 19.666-17.944 1.604-28.37 13.032-39.098 25.062-3.974 4.487-7.563 11.088-15.51 4.594-10.684-8.717-18.951-3.761-25.615 5.897-3.697 5.359-8.014 9.912-13.481 13.438-8.503 5.427-13.888 12.541-14.722 23.117-.446 5.918-3.268 11.855-10.746 10.66-6.922-1.111-12.731-.128-17.815 2.158-1.024.021-2.028.043-3.034.021-9.017 3.033-17.221 6.494-15.317 15.211l-2.286 2.606a18.563 18.563 0 0 0-2.818 4.57c-.896 3.506-.771 7.095-.813 10.685-2.479 14.25 8.845 25.808 7.732 39.78-.086 1.666-.233 3.332-.363 4.998-.597 5.771-2.156 11.279-4.483 16.56-1.967 4.571-4.358 8.994-4.595 14.121-.129 2.201-.813 4.271-1.538 6.323 124.385-9.25 240.629-47.687 341.961-108.445.187-.592.397-1.169.569-1.746l.012.004zm-233.768-31.876l.469.235v.021c-.556.021-1.065.042-1.603.085.363-.127.749-.256 1.134-.341zm-847.237-255.262c11.966-6.954 19.57-1.271 24.355 9.475 3.59 8.045 9.829 13.429 16.259 18.643 9.422 7.671 15.318 2.873 18.523-6.729 1.709-5.053-.302-10.116-2.479-14.849-1.368-3.547-2.351-7.2-2.864-10.981-.043-.405 0-.77 0-1.164.898-1.549 1.838-3.098 3.101-4.326a430.854 430.854 0 0 1 3.227-4.153c7.734-8.482 17.646-12.231 28.82-13.246 4.594-.406 9.379-.43 12.883-3.525-.106.385-.17.748-.321 1.133-.148.387.619 1.067.963 1.561 14.848 8.279 27.729 4.925 39.226-6.654 12.007-24.238 12.946-47.387-.683-72.373-26.964-49.373-37.625-104.376-48.584-158.77-8.889-44.032-10.276-89.026-9.188-133.957.276-11.976-1.923-21.567-16.92-21.279-16.089-1.303-23.8-10.896-25.683-26.086-2.455-19.826-19.483-14.613-31.299-18.203-11.836-3.602-14.25 4.604-15.896 13.417-1.604 8.557-7.927 8.813-14.636 8.258-22.859.608-26.662 3.247-31.599 24.152-3.354 14.208-10.317 25.573-22.54 33.775-3.975 2.684-8.46 5.288-9.57 10.693 2.351 16.333 3.675 32.484-7.37 46.457-.749-.053-1.411-.042-2.2-.16-1.283-.257-2.521-.459-3.762-.556 7.671 119.247 42.132 231.176 97.443 329.856.284-.144.541-.261.794-.409zm1444.867-532.384c-.577-2.918-1.153-5.834-1.773-8.738-.1 3.011.507 6.003 1.773 8.738zm-184.655 666.714c-4.293-.042-8.332.65-11.494 3.964-10.685 17.604-22.86 34.204-41.789 43.295-26.791 12.872-42.389 34.279-54.502 58.465a785.227 785.227 0 0 0 119.813-113.189c-5.448.757-10.534 2.154-12.028 7.465z"/></g><path fill="#243D3F" d="M604.244 2701l1907.692 6.07s108.993-263.158 132.995-563.188c24.002-300.03-195.837-606.54-445.953-417.041S1787.125 1582.531 1610 1537.82c-177.127-44.71-520.684-135.014-629.465 108.011-108.779 243.025-121.302 444.046-272.557 498.052S480.75 2388.03 604.244 2701z"/><path fill="#212121" d="M619.065 2672C677.149 2609.724 768 2572 920 2496s476.172-208 862.086-60 606.146 184 606.146 184S2644 2700 2420 2776 425.065 2880 619.065 2672z"/><path fill="#212121" d="M2231.611 2539.348c-1.122-42.125-38.454-81.313-47.345-129.802-8.893-48.504 39.997-119.979 49.996-165.924 9.999-45.943 24.432-17.851 72.211-66.37 47.794-48.487 61.118-22.956 116.669-42.108 55.563-19.139 54.44-38.291 76.656-86.781 22.228-48.488 86.669-37.002 86.669-37.002s3.324 17.85 2.229 25.518c-1.122 7.667 6.661 16.577 12.217 39.549 5.555 22.986 45.552 8.94 71.104 0 25.552-8.926 34.443 19.152 34.443 19.152s-1.108-19.152-14.445-37.003c-13.323-17.864-25.552-2.562-57.778 0-32.229 2.546-8.879-16.593-14.433-29.366-5.555-12.759-8.894-45.941-4.459-61.246 4.445-15.32 38.902-35.73 57.793-51.053 18.877-15.317 63.32-38.291 82.211-48.504s36.66-35.729 47.768-65.081c11.12-29.351 30.012-40.838 22.229-39.563-7.783 1.272-34.443 8.938-41.105 35.729-6.659 26.791-33.336 51.052-61.116 59.977-27.781 8.939-33.321 15.335-33.321 15.335s-7.782-16.606-25.552-33.186c-17.782-16.607-21.121-8.938-12.229-20.426s-1.106-40.837-1.106-40.837-8.893 34.457-16.675 45.941c-7.771 11.486 34.456 40.837 37.78 53.596 3.337 12.761 12.229 16.594-39.997 34.458-52.213 17.882-43.321 48.505-68.888 56.156-25.553 7.666-39.996 5.106-73.332 21.699-33.322 16.592-56.658 85.507-94.428 105.919-37.779 20.427-115.561 29.366-155.558 37.02-39.998 7.65-78.45 107.541-78.45 107.541s-2.336-11.698 5.437-49.99c5.987-29.456-10.384-93.055-18.271-120.874-2.255-31.245-14.261-55.552-30.934-126.83-19.999-85.492 45.563-107.191 72.224-112.313 26.661-5.094 74.441-54.869 92.225-67.644 17.771-12.76 49.982-98.253 56.658-112.299 6.661-14.046 12.229-82.963 3.337-117.42-8.891-34.458 45.552 15.318 48.875 14.047 3.338-1.288 48.89 15.318 78.888 24.244 29.998 8.925 61.116-10.213 96.668-34.457 35.555-24.262 46.659-16.594 46.659-16.594s5.566 6.38-2.217-5.105c-7.782-11.485-34.443-8.925-62.226 7.652-27.771 16.593-59.996 29.364-78.888 19.151-18.878-10.214-65.55-29.366-69.995-29.366-4.443 0-43.335-21.685-15.553-52.309 27.77-30.639 36.659-111.041 36.659-111.041s7.782-29.351 26.675-42.125c18.876-12.759 47.768 5.121 73.331 3.85 25.554-1.287 18.894-28.095 22.216-40.854 3.324-12.758 6.676-17.864 25.553-24.245 18.892-6.395 24.443-29.351 24.443-29.351-3.322 12.759-35.552 17.864-51.104 22.972-15.553 5.108-7.783 30.624-24.444 42.109s-45.551-3.817-66.658-2.545c-21.118 1.271-45.551 20.41-45.551 20.41s-12.229-28.077-26.674-44.655c-14.433-16.607 16.675-22.972 21.105-37.019 2.915-9.197-.832-19.396-3.771-25.412 4.113 13.789-15.237 32.153-32.889 44.551-19.998 14.047-4.444 34.458 18.892 56.156 23.336 21.697 5.554 82.962 5.554 113.586 0 30.64-45.551 42.125-61.104 61.263-15.565 19.138-33.35 38.292-23.336 82.962 9.999 44.656-17.782 108.465-49.996 158.242-32.215 49.777-53.335 53.597-102.225 63.809-48.889 10.213-45.551 15.32-66.656 12.76-21.119-2.547-33.335-118.679-51.118-202.911-17.771-84.235 58.889-109.752 72.226-117.421 13.336-7.652 27.771-15.306 36.659 6.395 8.894 21.699 23.336 38.276 39.998 44.671 16.674 6.364 29.997 25.519 28.89 19.123-1.106-6.364 1.107-29.336-24.443-34.458-25.553-5.091-23.322-38.275-36.658-58.703-13.338-20.41-38.892 5.122-47.781 2.563-8.891-2.563-1.107-16.594 8.893-59.99 9.998-43.383-5.555-58.703-5.555-58.703s1.108 62.536-14.445 102.101c-15.564 39.563-41.104 31.911-78.887 65.098-37.779 33.169-23.336 58.702-13.337 95.706 10 37.004 6.677 62.536-19.999 54.884-26.659-7.666-45.551-89.341-54.441-119.979-8.892-30.608-21.104-93.159-21.104-93.159s-5.554-25.518-2.229-45.943c3.34-20.411 22.229-24.245 26.676-51.034 4.443-26.807-6.676-35.746-6.676-35.746 7.782 15.318 6.676 35.746-16.66 54.869-20.978 17.213-19.524 46.579-19.012 52.383-.604-4.622-4.854-22.531-34.324-49.822-34.442-31.896-85.547-28.078-104.426-33.186-18.891-5.105-8.892-37.004-8.892-37.004-18.892 40.838-13.337 59.976 55.55 67.627 68.891 7.652 78.889 63.823 89.994 99.556 11.107 35.729 6.662 67.644 6.662 67.644-39.997 5.091-49.996 48.489-58.888 49.762-8.892 1.273-24.444-37.003-29.985-61.248-5.564-24.26-57.792-29.365-87.775-37.018-29.998-7.652-31.106-34.458-31.106-34.458-16.661 10.197-6.674 37.02 22.215 47.216 28.892 10.213 41.106 14.047 74.441 31.896 33.321 17.88 14.442 42.124 39.997 66.369 25.552 24.244 54.44-30.624 72.211-38.276 17.783-7.666 21.121 42.109 34.457 96.994 13.324 54.868 59.996 44.655 84.428 67.644 24.443 22.957 43.334 137.814 50.01 205.458 3.021 30.687 12.215 68.704 21.568 104.798-19.749-22.031-42.953-44.579-58.492-69.854-33.178-53.99-87.078-46.051-125.783-50.821-38.703-4.761-64.969-23.808-82.937-34.913-17.967-11.121-23.508-103.224-38.704-123.858-15.21-20.641-31.793-20.641-89.849-22.216-58.058-1.59-85.694-11.122-106.433-52.397-20.736-41.276 35.09-63.399 37.318-112.737 1.161-25.607-29.034-55.565-41.461-71.445-12.439-15.865-1.385-74.627-4.156-63.505-2.77 11.105-6.91 34.911-12.438 53.975s22.109 44.458 30.421 69.871c8.297 25.396-19.365 44.442-29.035 60.323-9.67 15.88-17.968 57.155 19.353 117.494 37.318 60.34 149.276 19.063 174.172 44.459 24.88 25.412 24.88 88.918 24.88 88.918s-37.333-6.351-80.181-15.881c-42.848-9.518-105.047 52.397-117.498 55.581-12.439 3.166-60.813-46.051-88.451-55.581-27.648-9.518-58.057 19.063-81.551 22.229-23.508 3.166-47.003-20.64-53.916-39.688-6.912-19.063-24.879-50.821-31.791-60.341-6.912-9.529-19.841-21.137-43.334-25.909-23.508-4.76-50.656-24.896-50.656-24.896s32.199 35.549 64.283 52.793c25.618 13.758 40.023 62.642 59.377 103.918 19.353 41.292 53.269 16.351 87.829 11.592 34.563-4.758 35.936-17.47 71.869 6.353 35.935 23.804 47.002 28.577 47.002 28.577s-4.153 14.288-9.683 22.229c-5.527 7.939-40.076 58.748-49.76 63.521-9.67 4.758-31.793 31.743-31.793 46.032s-22.123 25.396-40.09 23.821c-17.967-1.605-26.25 15.88-29.021 31.744-2.771 15.88-33.179 25.412-33.179 25.412s-11.055 1.574 5.527 3.166c16.596 1.591 40.09-14.289 41.475-33.335 1.371-19.048 34.55-4.773 55.287-15.882 20.736-11.105 16.582-25.412 30.405-25.412 13.825 0 31.979 42.154 34.38 62.461 1.332 11.351-11.899 23.002-27.098 34.125-15.21 11.105-5.896 35.199-5.896 35.199-.304-25.457 24.879-30.17 37.319-39.687 12.438-9.518 17.968-46.05-4.143-74.628-22.122-28.578 12.438-63.506 22.108-87.327 9.685-23.819 85.707-85.733 107.814-98.433 22.123-12.698 82.938-3.185 96.762 3.168 13.825 6.348 70.497 41.289 87.078 44.474 16.596 3.167 70.497 3.151 70.497 3.151s-47.002 22.243-52.519 34.939c-5.525 12.698-8.297 34.93-5.539 61.916 2.771 27.003-5.525 60.339-11.056 68.278-5.526 7.94-38.705 7.94-53.901 31.762-15.209 23.805-2.771 55.565-2.771 55.565v-26.987c0-27.003 17.967-34.943 44.231-44.459 26.265-9.532 30.405-15.882 33.179-53.99 2.756-38.108 8.284-84.144 33.175-100.022 24.881-15.881 67.729-23.82 99.52 49.217 31.793 73.037-19.353 161.955-33.177 211.172-13.825 49.216 9.668 106.372 15.21 146.072 5.526 39.7 9.669 47.642-5.542 96.856-15.194 49.217 8.021 116.162-37.622 131.285-22.438 7.425-68.688 94.856-69.398 101.856h470.4c-8.249-31.761-111.344-143.53-111.816-161.652zm370.766-1983.022c-31.613 35.174-102.002 48.703-93.072 19.453 10.544-34.56-8.598-38.921-8.598-38.921s-1.836 18.014-13.637 16.792c-11.682-2.066-8.492-19.894-8.492-19.894s-19.602-1.07-18.971 35.049c.538 30.579-63.408-1.786-84.123-44.296-25.76-52.863-79.205-68.952-176.506-50.855 0 0 109.71 9.035 99.203 109.135 0 0 94.063 9.854 75.078 54.311 0 0 79.104-14.988 67.632 44.703 0 0 10.645-24.787 31.281-21.896 20.635 2.895 24.051 29.652 24.051 29.652 5.382-60.541 77.313-24.368 77.313-24.368-6.015-47.967 87.12-31.571 87.12-31.571 17.434-99.124 125.389-77.645 125.389-77.645-88.555-44.152-144.379-43.381-183.668.351zm37.084 314.463c-15.867 17.264-51.305 23.808-46.854 9.424 5.255-16.995-4.396-19.175-4.396-19.175s-.896 8.864-6.842 8.243c-5.889-1.037-4.313-9.807-4.313-9.807s-9.875-.561-9.497 17.222c.319 15.054-31.946-.981-42.45-21.942-13.063-26.063-40.014-34.071-88.999-25.323 0 0 55.281 4.627 50.153 53.885 0 0 47.397 5.005 37.908 26.856 0 0 39.824-7.248 34.145 22.115 0 0 5.321-12.184 15.723-10.726 10.399 1.458 12.164 14.636 12.164 14.636 2.611-29.793 38.905-11.868 38.905-11.868-3.108-23.622 43.835-15.396 43.835-15.396 8.619-48.767 63.037-38.015 63.037-38.015-44.679-21.879-72.798-21.592-92.519-.129zm-516.185 82.858c-3.025 23.25-28.225 49.011-32.872 34.691-5.493-16.919-14.636-13.143-14.636-13.143s4.375 7.761-.844 10.68c-5.411 2.544-9.176-5.531-9.176-5.531s-8.395 5.229 2.156 19.548c8.936 12.121-26.682 17.598-47.34 6.515-25.692-13.78-52.334-4.803-87.338 30.565 0 0 47.854-28.063 72.035 15.156 0 0 41.63-23.213 46.46.115 0 0 28.379-28.863 40.647-1.587 0 0-2.668-13.024 6.674-17.825 9.343-4.798 18.375 4.957 18.375 4.957-15.026-25.856 24.967-32.11 24.967-32.11-16.148-17.52 26.962-37.837 26.962-37.837-21.044-44.826 29.632-67.386 29.632-67.386-49.125 7.855-71.947 24.288-75.702 53.192z"/><path fill="#212121" d="M1045.252 2472.992c-.609-22.854-20.865-44.119-25.689-70.43-4.824-26.316 21.702-65.1 27.127-90.028 5.426-24.929 13.257-9.686 39.182-36.012 25.935-26.312 33.162-12.456 63.306-22.849 30.146-10.387 29.54-20.777 41.593-47.088 12.061-26.311 47.025-20.076 47.025-20.076s1.805 9.685 1.209 13.846c-.607 4.159 3.615 8.994 6.627 21.458 3.016 12.473 24.718 4.853 38.582 0 13.863-4.843 18.688 10.394 18.688 10.394s-.601-10.394-7.838-20.077c-7.229-9.693-13.864-1.39-31.351 0-17.486 1.382-4.816-9.003-7.832-15.936-3.012-6.923-4.822-24.929-2.418-33.23 2.412-8.313 21.108-19.39 31.357-27.7 10.242-8.313 34.357-20.775 44.607-26.318 10.25-5.541 19.892-19.386 25.918-35.313 6.034-15.926 16.284-22.158 12.061-21.469-4.223.69-18.688 4.853-22.304 19.389-3.614 14.535-18.088 27.699-33.162 32.542-15.075 4.851-18.081 8.319-18.081 8.319s-4.223-9.012-13.863-18.006c-9.647-9.012-11.461-4.851-6.637-11.082 4.825-6.231-.601-22.158-.601-22.158s-4.825 18.695-9.047 24.93c-4.216 6.23 18.694 22.156 20.5 29.08 1.811 6.923 6.635 9.003-21.702 18.695-28.331 9.701-23.506 26.318-37.378 30.472-13.865 4.159-21.702 2.771-39.79 11.772-18.081 9.002-30.743 46.396-51.235 57.473-20.5 11.082-62.702 15.934-84.403 20.086-21.703 4.149-42.565 58.351-42.565 58.351s-1.269-6.348 2.948-27.124c3.248-15.982-5.635-50.489-9.914-65.586-1.225-16.952-7.737-30.143-16.784-68.816-10.853-46.388 24.723-58.162 39.188-60.938 14.466-2.764 40.393-29.771 50.041-36.702 9.642-6.924 27.12-53.313 30.742-60.934 3.614-7.621 6.635-45.016 1.812-63.711-4.823-18.697 24.717 8.313 26.521 7.621 1.812-.698 26.526 8.313 42.803 13.154 16.277 4.843 33.162-5.542 52.452-18.695 19.291-13.164 25.317-9.004 25.317-9.004s3.02 3.462-1.203-2.771c-4.224-6.231-18.688-4.843-33.763 4.151-15.068 9.004-32.556 15.934-42.806 10.393-10.243-5.542-35.565-15.936-37.979-15.936-2.412 0-23.514-11.766-8.438-28.382 15.067-16.624 19.892-60.249 19.892-60.249s4.224-15.927 14.475-22.856c10.242-6.923 25.917 2.778 39.789 2.089 13.865-.699 10.25-15.243 12.054-22.167 1.804-6.922 3.621-9.692 13.864-13.154 10.25-3.47 13.263-15.926 13.263-15.926-1.804 6.923-19.29 9.692-27.729 12.465-8.438 2.771-4.224 16.615-13.263 22.849-9.04 6.232-24.716-2.07-36.168-1.381-11.459.689-24.716 11.073-24.716 11.073s-6.635-15.233-14.473-24.229c-7.831-9.011 9.048-12.464 11.453-20.086 1.582-4.99-.451-10.523-2.047-13.787 2.231 7.479-8.27 17.446-17.846 24.172-10.852 7.623-2.412 18.696 10.25 30.471 12.661 11.773 3.014 45.016 3.014 61.631 0 16.625-24.715 22.857-33.154 33.241-8.446 10.385-18.094 20.776-12.662 45.015 5.425 24.23-9.648 58.854-27.128 85.861-17.479 27.008-28.938 29.081-55.465 34.622-26.526 5.542-24.716 8.313-36.169 6.923-11.459-1.381-18.086-64.395-27.735-110.099-9.642-45.706 31.953-59.552 39.188-63.712 7.235-4.152 15.066-8.306 19.892 3.47 4.825 11.774 12.662 20.769 21.703 24.237 9.047 3.453 16.276 13.847 15.675 10.377-.602-3.453.602-15.918-13.263-18.696-13.864-2.763-12.655-20.77-19.892-31.854-7.236-11.073-21.103 2.778-25.927 1.392-4.823-1.392-.601-9.004 4.824-32.552 5.425-23.538-3.013-31.853-3.013-31.853s.601 33.933-7.838 55.398c-8.446 21.468-22.305 17.313-42.806 35.32-20.499 17.997-12.662 31.853-7.235 51.93 5.427 20.078 3.623 33.933-10.853 29.779-14.465-4.159-24.715-48.477-29.54-65.102-4.825-16.607-11.452-50.548-11.452-50.548s-3.013-13.846-1.21-24.93c1.813-11.073 12.063-13.154 14.475-27.69 2.412-14.545-3.621-19.396-3.621-19.396 4.223 8.313 3.621 19.396-9.041 29.771-11.381 9.34-10.594 25.271-10.314 28.422-.329-2.508-2.634-12.226-18.625-27.033-18.688-17.307-46.417-15.233-56.66-18.006-10.25-2.771-4.824-20.078-4.824-20.078-10.25 22.158-7.235 32.543 30.142 36.695 37.378 4.15 42.803 34.629 48.83 54.018 6.026 19.388 3.614 36.702 3.614 36.702-21.702 2.762-27.127 26.311-31.951 27-4.824.691-13.266-20.077-16.271-33.23-3.021-13.163-31.355-15.936-47.627-20.088-16.275-4.15-16.878-18.694-16.878-18.694-9.04 5.532-3.621 20.086 12.054 25.619 15.678 5.541 22.306 7.62 40.394 17.307 18.081 9.702 7.837 22.854 21.702 36.012 13.863 13.155 29.539-16.614 39.181-20.769 9.649-4.16 11.46 22.849 18.696 52.629 7.229 29.771 32.554 24.229 45.81 36.702 13.265 12.456 23.515 74.776 27.136 111.479 1.64 16.649 6.629 37.278 11.702 56.862-10.716-11.954-23.306-24.188-31.737-37.902-18.002-29.295-47.248-24.986-68.25-27.576-21-2.582-35.25-12.916-45-18.941-9.748-6.035-12.754-56.009-21-67.205-8.252-11.199-17.25-11.199-48.75-12.056-31.502-.861-46.497-6.033-57.75-28.432-11.252-22.396 19.039-34.398 20.25-61.171.63-13.895-15.754-30.148-22.496-38.767-6.75-8.607-.751-40.492-2.256-34.457-1.502 6.024-3.75 18.942-6.75 29.286-2.998 10.343 11.998 24.123 16.507 37.91 4.501 13.779-10.509 24.113-15.755 32.73-5.246 8.616-9.75 31.014 10.5 63.752 20.25 32.739 80.998 10.344 94.504 24.123 13.5 13.789 13.5 48.246 13.5 48.246s-20.258-3.444-43.506-8.616c-23.248-5.164-56.996 28.431-63.752 30.158-6.75 1.718-32.998-24.986-47.993-30.158-15.003-5.164-31.501 10.343-44.249 12.063-12.756 1.718-25.504-11.198-29.254-21.533-3.75-10.344-13.5-27.576-17.25-32.74-3.75-5.171-10.767-11.469-23.515-14.059-12.755-2.582-27.485-13.51-27.485-13.51s17.473 19.289 34.881 28.646c13.898 7.466 21.716 33.988 32.217 56.386 10.5 22.404 28.902 8.871 47.656 6.289 18.753-2.582 19.498-9.479 38.996 3.445 19.498 12.916 25.502 15.506 25.502 15.506s-2.254 7.754-5.254 12.063c-2.998 4.31-21.744 31.877-26.998 34.467-5.248 2.581-17.25 17.227-17.25 24.979 0 7.754-12.005 13.78-21.755 12.927-9.749-.872-14.243 8.616-15.745 17.225-1.505 8.615-18.002 13.789-18.002 13.789s-5.998.854 3 1.719c9.004.861 21.752-7.754 22.502-18.088.744-10.336 18.748-2.592 30-8.616 11.252-6.026 8.995-13.789 16.498-13.789 7.502 0 17.351 22.873 18.652 33.892.725 6.158-6.457 12.48-14.702 18.517-8.253 6.027-3.198 19.101-3.198 19.101-.166-13.813 13.5-16.371 20.25-21.533s9.748-24.985-2.248-40.491c-12.004-15.507 6.75-34.458 11.996-47.384 5.254-12.926 46.504-46.521 58.5-53.408 12.004-6.893 45.002-1.729 52.502 1.719 7.502 3.444 38.252 22.403 47.248 24.131 9.006 1.72 38.252 1.711 38.252 1.711s-25.504 12.068-28.496 18.959c-2.999 6.89-4.502 18.951-3.006 33.597 1.502 14.648-3 32.737-5.998 37.047-3 4.31-21.002 4.31-29.247 17.233-8.253 12.916-1.503 30.148-1.503 30.148v-14.645c0-14.65 9.748-18.961 24-24.123 14.25-5.173 16.498-8.617 18.002-29.295 1.494-20.679 4.494-45.656 18-54.271 13.5-8.616 36.748-12.926 53.998 26.704s-10.5 87.876-18 114.581c-7.502 26.704 5.246 57.717 8.253 79.259 2.999 21.541 5.245 25.852-3.007 52.554-8.246 26.705 4.353 63.029-20.414 71.234-12.176 4.029-37.271 51.47-37.655 55.268h255.237c-4.48-17.243-60.418-77.887-60.676-87.721z"/><g fill="#212121"><path d="M785.031 2632.28l-52.883-365.273-32.182 1.819 26.276 366.769 58.789-3.315z"/><path d="M834.229 2315.653l-209.926 60.259s-.455 31.67 10.733 31.039c11.19-.629 205.363-26.486 205.363-26.486l-6.17-64.812z"/></g><path fill="#212121" d="M2316.397 2621.695l-1.492-135.56 49.075-57.189 76.233 19.813 9.5 77.172-59.447 114.96-73.869-19.196zM721.107 967.097c-21.442 42.15-85.938 73.42-84.877 42.854 1.25-36.108-18.367-35.374-18.367-35.374s2.884 17.876-8.831 19.746c-11.816 1.024-13.349-17.021-13.349-17.021s-19.21 4.032-9.263 38.761c8.428 29.4-61.717 14.671-92.717-21.038-38.552-44.405-94.34-46.129-183.651-3.488 0 0 108.313-19.64 124.048 79.773 0 0 93.41-14.802 86.566 33.049 0 0 72.538-34.932 76.892 25.696 0 0 3.872-26.695 24.557-29.238 20.682-2.54 30.899 22.426 30.899 22.426-10.455-59.874 68.381-43.527 68.381-43.527-18.212-44.781 75.995-53.023 75.995-53.023-8.789-100.26 101.049-107.425 101.049-107.425-96.96-19.753-150.685-4.576-177.332 47.829z"/></svg>