<svg xmlns="http://www.w3.org/2000/svg" id="图层_3" viewBox="0 0 3000 3000"><path fill="#67738C" d="M576.24 446.795c225.76-356.795 590-114.001 929-142.001s759-256 971 240.001c175.267 410.056-178.462 498.017-136 940 44.296 461.069 418.354 1009.004-123.352 1246.92C1930 2857.717 1512.918 2956 1028.11 2813.283c-255.191-75.123-412.413-299.999-427.505-480.337-26.266-313.843 161.635-461.151 116.635-766.651s-388.898-727.717-141-1119.5z"/><g id="XMLID_964_"><g id="XMLID_960_"><path fill="none" stroke="#FFF" stroke-miterlimit="10" stroke-width="16" d="M790.705 1946.418l167.871-4.172 76.735 147.899-84.576 132.231-154.684-7.181-74.822-134.698 69.476-134.079zM1485.611 2368.809l167.858-4.17 76.734 147.901-84.576 132.228-154.685-7.193-74.821-134.686 69.49-134.08zM1264.407 1675.885l167.872-4.172 76.736 147.899-84.577 132.231-154.685-7.194-74.821-134.685 69.475-134.079zM864.996 2355.239l167.86-4.17 76.735 147.899-84.576 132.244-154.686-7.207-74.82-134.687 69.487-134.079zM1035.312 2090.145l165.628-15.443 5.98-.039 67.613-128.431M1026.692 2351.176l165.627-15.446 5.993-.052 67.614-128.417"/><path fill="none" stroke="#FFF" stroke-miterlimit="10" stroke-width="16" d="M1206.92 2074.664l57.845 132.217 164.096-2.258 58.228 165.853"/><g id="XMLID_932_" fill="#662483"><path d="M1456.502 1685.127c-3.985 12.064-17.002 18.611-29.079 14.625-12.066-3.985-18.613-17.002-14.627-29.079 4-12.066 17.016-18.615 29.081-14.613 12.078 3.985 18.626 17 14.625 29.067zM1285.028 1684.177c-3.986 12.063-17.016 18.612-29.081 14.627-12.065-4-18.612-17.029-14.626-29.097 4-12.063 17.016-18.61 29.081-14.625 12.078 3.998 18.625 17.013 14.626 29.095zM1216.582 1817.818c-3.985 12.064-17.016 18.613-29.08 14.611-12.066-3.986-18.614-17.015-14.627-29.08 4-12.064 17.017-18.611 29.082-14.625 12.065 3.998 18.612 17.014 14.625 29.094zM1292.314 1952.121c-3.999 12.066-17.015 18.613-29.081 14.627-12.064-3.985-18.626-17.016-14.626-29.082 3.987-12.078 17.017-18.625 29.082-14.625 12.063 3.998 18.612 17.015 14.625 29.08zM1444.172 1958.38c-3.998 12.063-17.016 18.61-29.079 14.625-12.078-3.998-18.626-17.027-14.626-29.095 3.986-12.063 17.003-18.612 29.081-14.627 12.066 4.002 18.612 17.019 14.624 29.097zM1530.863 1826.847c-3.985 12.066-17.002 18.613-29.079 14.627-12.066-4-18.615-17.029-14.615-29.096 3.988-12.064 17.004-18.611 29.082-14.625 12.064 4.002 18.613 17.028 14.612 29.094z"/></g><g id="XMLID_939_" fill="#662483"><path d="M1057.08 2364.481c-3.988 12.063-17.004 18.613-29.082 14.625-12.065-3.986-18.613-17.002-14.613-29.08 3.986-12.065 17.002-18.611 29.068-14.613 12.078 3.986 18.625 17.002 14.627 29.068zM885.604 2363.53c-3.987 12.066-17.003 18.613-29.082 14.627-12.064-4-18.612-17.028-14.612-29.094 3.986-12.063 17.001-18.613 29.068-14.627 12.078 4 18.625 17.031 14.626 29.094zM817.157 2497.174c-3.985 12.065-17.016 18.613-29.081 14.613-12.065-3.986-18.611-17.017-14.626-29.08 4-12.066 17.017-18.613 29.082-14.625 12.08 3.998 18.625 17.012 14.625 29.092zM892.891 2631.475c-3.986 12.065-17.016 18.615-29.082 14.627-12.065-3.986-18.613-17.017-14.625-29.08 3.999-12.078 17.016-18.627 29.081-14.627s18.612 17.017 14.626 29.08zM1044.75 2637.733c-4 12.065-17.016 18.613-29.082 14.627-12.078-4-18.625-17.029-14.625-29.094 3.986-12.066 17.016-18.613 29.082-14.627 12.064 4 18.612 17.031 14.625 29.094zM1131.451 2506.202c-4 12.066-17.016 18.613-29.08 14.627-12.078-4-18.627-17.016-14.627-29.094 3.986-12.063 17.017-18.613 29.08-14.627 12.067 4 18.614 17.029 14.627 29.094z"/></g><g id="XMLID_946_" fill="#E6332A"><path d="M983.606 1953.23c-3.986 12.064-17.018 18.613-29.082 14.625-12.064-3.986-18.613-17.014-14.626-29.08 4-12.078 17.017-18.627 29.082-14.627 12.064 4 18.612 17.016 14.626 29.082zM812.13 1952.279c-3.987 12.064-17.017 18.613-29.082 14.613s-18.613-17.016-14.626-29.08c4-12.066 17.016-18.613 29.082-14.627 12.065 3.988 18.611 17.016 14.626 29.094zM743.684 2085.909c-4 12.078-17.016 18.627-29.08 14.627-12.066-4-18.613-17.016-14.626-29.082 3.986-12.063 17.016-18.61 29.08-14.625 12.065 3.986 18.613 17.015 14.626 29.08zM819.416 2220.225c-4 12.063-17.017 18.613-29.082 14.627-12.079-3.988-18.625-17.019-14.625-29.096 3.985-12.064 17.014-18.613 29.08-14.613 12.066 3.988 18.614 17.017 14.627 29.082zM971.276 2226.483c-4 12.063-17.016 18.611-29.094 14.611-12.066-3.986-18.612-17.017-14.614-29.08 3.987-12.066 17.003-18.613 29.082-14.627 12.065 4 18.612 17.016 14.626 29.096zM1057.963 2094.95c-3.985 12.066-17.002 18.615-29.079 14.627-12.066-4-18.613-17.026-14.626-29.094 4-12.063 17.016-18.613 29.08-14.625 12.078 3.998 18.625 17.014 14.625 29.092z"/></g><g id="XMLID_953_" fill="#E6332A"><path d="M1677.693 2378.052c-3.985 12.065-17.002 18.611-29.08 14.625-12.065-3.984-18.614-17.002-14.614-29.08 3.987-12.066 17.004-18.613 29.067-14.611 12.079 3.985 18.627 17.001 14.627 29.066zM1506.217 2377.1c-3.986 12.065-17.002 18.613-29.081 14.627-12.065-4-18.613-17.029-14.613-29.094 3.987-12.066 17.003-18.613 29.067-14.627 12.078 4.002 18.627 17.016 14.627 29.094zM1437.772 2510.743c-3.987 12.066-17.016 18.613-29.081 14.615-12.065-3.988-18.613-17.017-14.626-29.082 3.999-12.063 17.016-18.613 29.081-14.627 12.078 3.988 18.626 17.017 14.626 29.094zM1513.502 2645.047c-3.985 12.065-17.016 18.612-29.079 14.627-12.066-3.986-18.613-17.017-14.627-29.08 4-12.078 17.016-18.627 29.082-14.627 12.065 4 18.612 17.014 14.624 29.08zM1665.363 2651.303c-4 12.065-17.016 18.612-29.079 14.627-12.078-4-18.627-17.029-14.627-29.097 3.985-12.063 17.017-18.61 29.08-14.625 12.065 4.003 18.614 17.031 14.626 29.095zM1752.064 2519.772c-3.998 12.065-17.015 18.613-29.08 14.627-12.078-4-18.626-17.029-14.626-29.094 3.986-12.066 17.003-18.613 29.081-14.627 12.065 4 18.613 17.031 14.625 29.094z"/></g><path fill="#F9B233" d="M1225.506 2080.801c-4 12.065-17.017 18.613-29.08 14.627-12.066-3.986-18.613-17.002-14.626-29.068 3.985-12.078 17.016-18.625 29.081-14.625 12.065 3.984 18.611 17 14.625 29.066zM1287.773 2214.498c-3.985 12.063-17.015 18.61-29.081 14.625-12.064-4-18.612-17.017-14.626-29.095 4-12.065 17.017-18.612 29.082-14.627 12.063 4 18.612 17.029 14.625 29.097zM1450.709 2211.844c-3.987 12.065-17.017 18.613-29.082 14.627-12.064-4-18.612-17.017-14.627-29.082 4-12.064 17.017-18.611 29.082-14.625 12.078 3.986 18.625 17 14.627 29.08zM1220.16 2342.911c-3.986 12.066-17.004 18.613-29.082 14.627-12.064-3.987-18.612-17.016-14.613-29.082 3.985-12.077 17.003-18.627 29.067-14.625 12.08 3.998 18.627 17.013 14.628 29.08z"/></g><g id="XMLID_965_"><path fill="none" stroke="#FFF" stroke-miterlimit="10" stroke-width="16" d="M1765.172 1041.545l84.246 145.259-92.892 138.315-156.599-10.706-67.957-139.147 82.227-130.29 150.975-3.431zM1728.277 1853.908l84.246 145.26-92.892 138.317-156.612-10.707-67.957-139.147 82.24-130.289 150.975-3.434zM2229.926 1327.205l84.232 145.26-92.892 138.314-156.599-10.719-67.957-139.133 82.227-130.305 150.989-3.417zM1442.22 1302.994l84.245 145.247-92.892 138.329-156.61-10.719-67.959-139.135 82.24-130.304 150.976-3.418zM1756.527 1325.119l93.063 137.867 2.918 5.241 145.112-2.351M1523.416 1442.883l93.065 137.879 2.916 5.228 145.115-2.349"/><path fill="none" stroke="#FFF" stroke-miterlimit="10" stroke-width="16" d="M1852.509 1468.227l-88.22 114.21 80.774 142.871-117.539 130.7"/><g id="XMLID_991_" fill="#662483"><path d="M2314.027 1500.144c-12.5 2.297-24.485-5.979-26.782-18.493-2.298-12.487 5.979-24.5 18.479-26.784 12.515-2.284 24.5 5.98 26.797 18.494 2.298 12.489-5.979 24.501-18.494 26.783zM2232.553 1349.262c-12.514 2.297-24.499-5.979-26.796-18.494-2.3-12.488 5.991-24.5 18.493-26.784 12.5-2.284 24.5 5.98 26.783 18.494 2.297 12.49-5.979 24.501-18.48 26.784zM2082.449 1353.382c-12.503 2.297-24.488-5.979-26.785-18.494-2.297-12.487 5.98-24.5 18.494-26.783 12.5-2.285 24.486 5.979 26.784 18.494 2.298 12.499-5.979 24.498-18.493 26.783zM2000.989 1484.291c-12.501 2.298-24.486-5.979-26.783-18.479-2.298-12.515 5.979-24.5 18.479-26.797 12.515-2.298 24.5 5.993 26.797 18.494 2.299 12.501-5.98 24.501-18.493 26.782zM2068.416 1620.509c-12.5 2.284-24.5-5.979-26.783-18.494-2.297-12.486 5.979-24.499 18.479-26.783 12.501-2.283 24.501 5.98 26.798 18.494 2.286 12.488-5.992 24.498-18.494 26.783zM2225.425 1633.406c-12.501 2.297-24.5-5.967-26.798-18.48-2.283-12.501 5.992-24.499 18.493-26.796 12.501-2.285 24.501 5.991 26.784 18.493 2.298 12.5-5.978 24.5-18.479 26.783z"/></g><g id="XMLID_984_" fill="#662483"><path d="M1526.334 1475.935c-12.515 2.285-24.5-5.98-26.797-18.494-2.297-12.501 5.992-24.5 18.493-26.797 12.501-2.283 24.499 5.993 26.784 18.494 2.298 12.502-5.978 24.501-18.48 26.797zM1444.847 1325.053c-12.501 2.284-24.501-5.98-26.797-18.494-2.283-12.5 5.991-24.5 18.493-26.797 12.5-2.284 24.5 5.993 26.785 18.507 2.297 12.489-5.98 24.487-18.481 26.784zM1294.756 1329.173c-12.5 2.284-24.5-5.98-26.797-18.494-2.283-12.5 5.994-24.5 18.494-26.797 12.5-2.284 24.5 5.993 26.784 18.507 2.296 12.486-5.979 24.486-18.481 26.784zM1213.295 1460.082c-12.515 2.297-24.5-5.992-26.797-18.48-2.297-12.515 5.994-24.501 18.494-26.798 12.502-2.296 24.502 5.993 26.784 18.48 2.297 12.515-5.979 24.5-18.481 26.798zM1280.711 1596.286c-12.5 2.296-24.5-5.967-26.785-18.48-2.297-12.501 5.979-24.5 18.48-26.797 12.516-2.283 24.5 5.994 26.797 18.494 2.299 12.502-5.992 24.5-18.492 26.783zM1437.719 1609.197c-12.502 2.297-24.5-5.979-26.784-18.481-2.297-12.515 5.979-24.5 18.481-26.798 12.5-2.297 24.5 5.993 26.797 18.494 2.282 12.5-5.994 24.5-18.494 26.785z"/></g><g id="XMLID_977_" fill="#E6332A"><path d="M1851.809 1214.023c-12.501 2.297-24.501-5.967-26.798-18.48-2.284-12.5 5.993-24.5 18.493-26.798 12.502-2.282 24.502 5.993 26.799 18.494 2.283 12.501-5.993 24.5-18.494 26.784zM1770.321 1063.139c-12.501 2.297-24.499-5.966-26.783-18.48-2.297-12.501 5.98-24.5 18.481-26.797 12.513-2.284 24.499 5.993 26.796 18.494 2.298 12.501-5.993 24.5-18.494 26.783zM1620.231 1067.259c-12.501 2.297-24.501-5.968-26.784-18.48-2.297-12.501 5.979-24.5 18.479-26.797 12.502-2.284 24.5 5.993 26.798 18.494 2.284 12.499-5.992 24.498-18.493 26.783zM1538.77 1198.182c-12.501 2.297-24.501-5.993-26.798-18.481-2.284-12.514 5.993-24.5 18.494-26.797s24.501 5.993 26.798 18.481c2.284 12.514-5.993 24.5-18.494 26.797zM1606.198 1334.385c-12.514 2.297-24.499-5.98-26.796-18.481-2.284-12.501 5.993-24.5 18.493-26.797 12.501-2.283 24.5 5.993 26.784 18.495 2.297 12.501-5.98 24.5-18.481 26.783zM1763.193 1347.297c-12.5 2.297-24.485-5.979-26.782-18.481-2.299-12.514 5.979-24.5 18.479-26.797 12.515-2.296 24.5 5.993 26.797 18.494s-5.982 24.487-18.494 26.784z"/></g><g id="XMLID_970_" fill="#E6332A"><path d="M1812.392 2026.864c-12.515 2.283-24.501-5.994-26.798-18.496-2.297-12.501 5.979-24.501 18.494-26.784 12.5-2.297 24.5 5.98 26.783 18.48 2.299 12.501-5.978 24.501-18.479 26.8zM1730.904 1875.98c-12.501 2.283-24.499-5.994-26.796-18.494-2.284-12.502 5.993-24.502 18.494-26.783 12.501-2.299 24.499 5.979 26.783 18.479 2.297 12.501-5.98 24.501-18.481 26.798zM1580.814 1880.097c-12.515 2.285-24.501-5.992-26.798-18.494-2.297-12.5 5.993-24.5 18.494-26.783 12.501-2.297 24.501 5.98 26.785 18.48 2.296 12.502-5.981 24.502-18.481 26.797zM1499.353 2011.01c-12.515 2.285-24.501-5.981-26.798-18.493-2.296-12.502 5.979-24.502 18.494-26.799 12.501-2.283 24.501 5.994 26.783 18.508 2.299 12.488-5.978 24.487-18.479 26.784zM1566.768 2147.225c-12.501 2.283-24.501-5.992-26.783-18.494-2.297-12.5 5.979-24.5 18.479-26.782 12.516-2.298 24.502 5.979 26.799 18.479 2.296 12.502-5.994 24.5-18.495 26.797zM1723.776 2160.123c-12.5 2.299-24.5-5.979-26.783-18.494-2.298-12.5 5.979-24.5 18.48-26.783 12.501-2.285 24.5 5.98 26.797 18.494 2.284 12.488-5.993 24.5-18.494 26.783z"/></g><path fill="#F9B233" d="M1856.031 1487.473c-12.501 2.297-24.5-5.979-26.783-18.494-2.297-12.487 5.979-24.501 18.48-26.785 12.501-2.283 24.5 5.98 26.797 18.495 2.286 12.501-5.993 24.501-18.494 26.784zM1768.656 1606.279c-12.501 2.297-24.499-5.979-26.783-18.496-2.297-12.485 5.979-24.485 18.48-26.782 12.514-2.283 24.5 5.979 26.798 18.493 2.285 12.5-5.994 24.5-18.495 26.785zM1849.207 1747.933c-12.5 2.297-24.5-5.98-26.785-18.48-2.297-12.514 5.98-24.5 18.481-26.797 12.515-2.297 24.501 5.992 26.798 18.494 2.297 12.5-5.992 24.5-18.494 26.783zM1623.543 1608.629c-12.5 2.297-24.486-5.979-26.785-18.493-2.297-12.488 5.98-24.501 18.494-26.784 12.502-2.284 24.488 5.979 26.785 18.493 2.297 12.5-5.979 24.5-18.494 26.784z"/></g></g><g id="XMLID_1_"><path fill="none" stroke="#FFF" stroke-miterlimit="10" stroke-width="16" d="M635.634 628.229l167.871-4.172 76.735 147.899-84.576 132.23-154.685-7.179-74.821-134.7 69.476-134.078zM1330.539 1050.621l167.858-4.17 76.735 147.9-84.576 132.229-154.687-7.193-74.819-134.686 69.489-134.08zM1109.336 357.696l167.871-4.172 76.737 147.901-84.577 132.229-154.684-7.192-74.821-134.687 69.474-134.079zM709.926 1037.052l167.859-4.17 76.735 147.897-84.576 132.244-154.685-7.207-74.821-134.686 69.488-134.078zM880.24 771.957l165.627-15.443 5.981-.039 67.612-128.43M871.619 1032.986l165.627-15.445 5.994-.053 67.614-128.416"/><path fill="none" stroke="#FFF" stroke-miterlimit="10" stroke-width="16" d="M1051.849 756.474l57.846 132.217 164.095-2.258 58.229 165.854"/><g id="XMLID_109_" fill="#662483"><path d="M1301.432 366.938c-3.986 12.063-17.002 18.61-29.08 14.625-12.066-3.986-18.613-17.002-14.627-29.08 4-12.066 17.016-18.615 29.081-14.613 12.078 3.986 18.626 17.002 14.626 29.068zM1129.955 365.987c-3.985 12.064-17.016 18.613-29.08 14.627-12.065-4-18.612-17.029-14.627-29.096 4-12.064 17.017-18.611 29.08-14.625 12.08 3.998 18.627 17.014 14.627 29.094zM1061.511 499.631c-3.986 12.063-17.017 18.612-29.08 14.61-12.066-3.985-18.613-17.014-14.627-29.08 4-12.063 17.016-18.61 29.081-14.625 12.064 3.998 18.611 17.015 14.626 29.095zM1137.241 633.932c-3.999 12.065-17.015 18.612-29.081 14.627-12.063-3.986-18.625-17.017-14.625-29.082 3.986-12.078 17.016-18.625 29.081-14.625 12.066 3.998 18.614 17.016 14.625 29.08zM1289.102 640.19c-3.998 12.064-17.016 18.611-29.08 14.625-12.078-3.998-18.626-17.026-14.626-29.094 3.986-12.064 17.003-18.613 29.081-14.627 12.064 4.002 18.613 17.018 14.625 29.096zM1375.791 508.659c-3.986 12.066-17.002 18.613-29.08 14.627-12.066-4-18.614-17.028-14.614-29.096 3.987-12.063 17.003-18.611 29.081-14.625 12.064 4 18.613 17.029 14.613 29.094z"/></g><g id="XMLID_99_" fill="#662483"><path d="M902.009 1046.293c-3.987 12.064-17.003 18.613-29.082 14.625-12.064-3.985-18.612-17.002-14.612-29.079 3.986-12.066 17.002-18.611 29.067-14.613 12.079 3.986 18.625 17 14.627 29.067zM730.532 1045.343c-3.986 12.065-17.003 18.612-29.082 14.627-12.063-4-18.611-17.029-14.611-29.095 3.985-12.063 17.001-18.612 29.067-14.627 12.079 4 18.625 17.029 14.626 29.095zM662.086 1178.984c-3.985 12.066-17.016 18.613-29.08 14.613-12.066-3.986-18.612-17.016-14.626-29.08 4-12.066 17.016-18.613 29.082-14.625 12.077 3.998 18.625 17.014 14.624 29.092zM737.82 1313.287c-3.985 12.066-17.016 18.615-29.082 14.627-12.064-3.985-18.612-17.016-14.625-29.08 3.999-12.077 17.017-18.627 29.081-14.627 12.065 4 18.612 17.015 14.626 29.08zM889.679 1319.546c-4 12.065-17.017 18.612-29.081 14.627-12.079-4-18.626-17.029-14.626-29.095 3.985-12.065 17.016-18.612 29.081-14.627 12.064 4 18.611 17.029 14.626 29.095zM976.379 1188.013c-4 12.065-17.016 18.613-29.079 14.627-12.078-4-18.626-17.017-14.626-29.094 3.984-12.064 17.016-18.613 29.08-14.627 12.066 4.001 18.611 17.03 14.625 29.094z"/></g><g id="XMLID_83_" fill="#E6332A"><path d="M828.533 635.043c-3.986 12.063-17.017 18.612-29.082 14.625-12.063-3.986-18.611-17.015-14.626-29.08 4-12.078 17.017-18.627 29.081-14.627 12.066 4 18.615 17.014 14.627 29.082zM657.059 634.092c-3.987 12.063-17.016 18.612-29.082 14.612-12.064-4-18.613-17.016-14.626-29.079 4-12.066 17.016-18.613 29.082-14.628 12.063 3.986 18.612 17.015 14.626 29.095zM588.613 767.72c-4 12.078-17.016 18.627-29.08 14.627-12.065-4-18.612-17.016-14.626-29.082 3.986-12.064 17.017-18.611 29.08-14.625 12.065 3.987 18.613 17.014 14.626 29.08zM664.345 902.037c-4 12.064-17.017 18.613-29.082 14.627-12.079-3.987-18.625-17.018-14.625-29.096 3.985-12.064 17.014-18.613 29.08-14.613 12.064 3.986 18.612 17.015 14.627 29.082zM816.203 908.296c-4 12.063-17.016 18.61-29.094 14.61-12.066-3.985-18.611-17.016-14.613-29.08 3.986-12.065 17.002-18.612 29.081-14.627 12.067 4 18.614 17.017 14.626 29.097zM902.892 776.761c-3.985 12.065-17.002 18.615-29.08 14.627-12.065-4-18.612-17.027-14.626-29.094 4-12.064 17.016-18.613 29.08-14.625 12.08 3.999 18.626 17.014 14.626 29.092z"/></g><g id="XMLID_10_" fill="#E6332A"><path d="M1522.621 1059.863c-3.986 12.066-17.002 18.611-29.08 14.625-12.066-3.983-18.614-17.002-14.614-29.08 3.987-12.065 17.003-18.612 29.067-14.61 12.079 3.985 18.627 17.002 14.627 29.065zM1351.146 1058.912c-3.985 12.066-17.002 18.613-29.081 14.627-12.064-4-18.613-17.028-14.613-29.094 3.987-12.066 17.004-18.613 29.067-14.627 12.079 4 18.627 17.016 14.627 29.094zM1282.699 1192.554c-3.986 12.065-17.016 18.613-29.081 14.615-12.064-3.988-18.612-17.017-14.626-29.082 3.999-12.064 17.016-18.613 29.081-14.627 12.08 3.989 18.626 17.016 14.626 29.094zM1358.432 1326.857c-3.986 12.066-17.016 18.613-29.08 14.627-12.066-3.986-18.613-17.016-14.627-29.08 4-12.078 17.016-18.627 29.082-14.627 12.064 4 18.612 17.017 14.625 29.08zM1510.291 1333.115c-4 12.066-17.017 18.613-29.08 14.627-12.078-4-18.627-17.029-14.627-29.096 3.985-12.064 17.017-18.611 29.08-14.625 12.067 4 18.616 17.031 14.627 29.094zM1596.991 1201.584c-3.998 12.066-17.014 18.613-29.079 14.627-12.078-4-18.627-17.028-14.627-29.094 3.986-12.065 17.004-18.613 29.082-14.627 12.066 4 18.614 17.029 14.624 29.094z"/></g><path fill="#F9B233" d="M1070.435 762.611c-4 12.066-17.017 18.613-29.08 14.627-12.065-3.986-18.612-17.002-14.627-29.067 3.986-12.078 17.017-18.625 29.08-14.625 12.065 3.985 18.614 17.002 14.627 29.065zM1132.701 896.308c-3.986 12.063-17.016 18.611-29.082 14.625-12.063-4-18.61-17.016-14.625-29.094 4-12.066 17.017-18.613 29.082-14.627 12.065 4.001 18.613 17.03 14.625 29.096zM1295.638 893.654c-3.987 12.066-17.017 18.613-29.082 14.627-12.064-4-18.612-17.016-14.626-29.082 4-12.063 17.016-18.611 29.081-14.625 12.079 3.986 18.625 17.002 14.627 29.08zM1065.088 1024.722c-3.985 12.066-17.004 18.613-29.082 14.627-12.063-3.988-18.611-17.016-14.612-29.082 3.985-12.078 17.004-18.627 29.067-14.625 12.078 3.998 18.627 17.014 14.627 29.08z"/></g></svg>