<svg xmlns="http://www.w3.org/2000/svg" xmlns:xlink="http://www.w3.org/1999/xlink" id="图层_3" viewBox="0 0 3000 3000"><path fill="#D34A44" d="M2086.526 1506.159H870.459l-52.365-124.48H2138.9l-52.374 124.48z"/><path fill="#E56E6E" d="M949.899 1174.239h157.973v1456.087H949.899V1174.239zm-163.645 786.519h79v728.053h-79v-728.053z"/><path fill="#D34A44" d="M881.744 1132.391h294.28v83.674h-294.28v-83.674z"/><path fill="#626668" d="M932.721 2338.657h192.329v350.151H932.721v-350.151z"/><path fill="#E56E6E" d="M1849.1 1174.239h157.986v1456.087H1849.1V1174.239z"/><path fill="#D34A44" d="M1780.951 1132.391h294.295v83.674h-294.295v-83.674zm357.949 0H818.094l-107.437-124.517h1535.655L2138.9 1132.391z"/><path fill="#626668" d="M1478.506 922.984c-543.518 0-998.521-85.874-998.521-85.874l107.436 170.763h1782.15L2477 837.111s-455.019 85.873-998.494 85.873m-370.635 485.584H949.899c-11.781 0-21.334-12.041-21.334-26.925 0-14.868 9.555-26.888 21.334-26.888h157.973c11.795 0 21.334 12.021 21.334 26.888-.001 14.884-9.54 26.925-21.335 26.925m899.215 0H1849.1c-11.773 0-21.32-12.041-21.32-26.925 0-14.868 9.547-26.888 21.32-26.888h157.986c11.787 0 21.334 12.021 21.334 26.888 0 14.884-9.547 26.925-21.334 26.925"/><path fill="#D34A44" d="M1147.5 1904.5H712.51l31.428 56H1147.5v-56z"/><path fill="#E56E6E" d="M2088.906 1960.758h78.986v728.053h-78.986v-728.053z"/><path fill="#626668" d="M1829.113 2338.657h192.315v350.151h-192.315v-350.151z"/><path fill="#D34A44" d="M1815.5 1904.5h426.133l-31.422 56H1815.5v-56z"/><path fill="#939598" d="M2077.084 2535.507h318.42l89.416-264.539h-815.66l89.391 264.539h318.433z"/><path fill="#808285" d="M1632.481 2256.713h889.193v28.507h-889.193v-28.507zm150.26 278.794h61.834v36.125h-61.834v-36.125zm526.835 0h61.833v36.125h-61.833v-36.125z"/><path fill="#89756E" d="M2266.525 2012.441a29.83 29.83 0 0 1-7.438-.962c-245.119-63.604-359.332-205.593-359.332-281.538 0-16.293 13.199-29.493 29.492-29.493s29.493 13.2 29.493 29.493c0 42.001 90.698 166.208 315.175 224.45 15.741 4.092 25.223 20.18 21.144 35.959-3.467 13.28-15.423 22.091-28.534 22.091"/><path fill="#7D6358" d="M1907.412 2256.713c0-53.099 46.912-169.543 145.926-222.524 89.75-48.031 261.846-97.948 261.846-343.706h52.085s-13.92 183.257-38.179 260.114c-30.25 95.753-239.575 217.638-239.575 306.116"/><defs><path id="SVGID_1_" d="M2307.897 1690.48h59.372v94.895h-59.372z"/></defs><clipPath id="SVGID_2_"><use overflow="visible" xlink:href="#SVGID_1_"/></clipPath><path fill="#66463B" d="M2315.184 1690.48c0 30.032-2.591 57.113-7.287 81.667a120.164 120.164 0 0 0 50.122 13.228c6.017-52.532 9.25-94.895 9.25-94.895h-52.085z" clip-path="url(#SVGID_2_)"/><path fill="#89756E" d="M2212.746 2022.897c50.879 14.572 338.149-52.239 338.149-126.837 0 0 34.792-62.554 34.792-21.373 0 134.534-293.931 233.045-389.271 205.708-32.686-9.388-20.385-68.044 16.33-57.498"/><defs><path id="SVGID_3_" d="M1907.412 2007.966h198.829v248.747h-198.829z"/></defs><clipPath id="SVGID_4_"><use overflow="visible" xlink:href="#SVGID_3_"/></clipPath><path fill="#66463B" d="M2053.338 2034.186c-99.014 52.981-145.928 169.428-145.928 222.524h42.258c-.113-43.888 8.918-161.103 156.573-248.748-19.228 9.47-37.303 17.885-52.903 26.224" clip-path="url(#SVGID_4_)"/><path fill="#39842C" d="M2132.941 1668.722c-7.608 0-14.639 2.397-20.437 6.438-3.094-25.838-24.838-45.95-51.51-45.95-5.154 0-10.045.975-14.753 2.37-10.083-20.833-31.263-35.327-55.971-35.327-4.028 0-7.929.436-11.751 1.166-15.15-21.129-39.872-34.944-67.864-34.944-33.047 0-61.501 19.218-75.071 47.043-8.289-3.99-17.475-6.44-27.313-6.44-21.577 0-40.577 10.84-51.994 27.34-3.593-1.015-7.326-1.693-11.265-1.693-23.541 0-42.629 19.089-42.629 42.631 0 19.024 12.547 34.957 29.763 40.448-.104 1.219-.359 2.396-.359 3.643 0 23.554 19.089 42.644 42.629 42.644 4.056 0 7.916-.742 11.638-1.81 9.687 35.435 42.015 61.5 80.513 61.5 25.26 0 47.852-11.274 63.182-28.979 11.405 12.417 27.62 20.347 45.825 20.347 22.129 0 41.438-11.585 52.507-28.955 8.993 7.414 20.356 12.032 32.918 12.032 28.788 0 52.111-23.321 52.111-52.121 0-2.067-.373-4.042-.604-6.056 5.799 4.026 12.828 6.427 20.438 6.427 19.807 0 35.881-16.048 35.881-35.869s-16.079-35.885-35.884-35.885z"/><path fill="#76B269" d="M2132.941 1654.021c-7.608 0-14.639 2.398-20.437 6.452-3.094-25.836-24.838-45.964-51.51-45.964-5.154 0-10.045.974-14.753 2.385-10.083-20.847-31.263-35.343-55.971-35.343-4.028 0-7.929.448-11.751 1.18-15.15-21.128-39.872-34.958-67.864-34.958-33.047 0-61.501 19.218-75.071 47.044-8.289-3.99-17.475-6.428-27.313-6.428-21.577 0-40.577 10.827-51.994 27.324-3.593-.999-7.326-1.692-11.265-1.692-23.541 0-42.629 19.089-42.629 42.629 0 19.038 12.547 34.973 29.763 40.449-.104 1.22-.359 2.397-.359 3.644 0 23.556 19.089 42.645 42.629 42.645 4.056 0 7.916-.744 11.638-1.796 9.687 35.419 42.015 61.485 80.513 61.485 25.26 0 47.852-11.273 63.182-28.979 11.405 12.43 27.62 20.345 45.825 20.345 22.129 0 41.438-11.584 52.507-28.938 8.993 7.399 20.356 12.02 32.918 12.02 28.788 0 52.111-23.322 52.111-52.123 0-2.063-.373-4.04-.604-6.055 5.799 4.041 12.828 6.438 20.438 6.438 19.807 0 35.881-16.049 35.881-35.869-.003-19.832-16.079-35.895-35.884-35.895z"/><path fill="#39842C" d="M2774.015 1857.805a28.972 28.972 0 0 0-16.69 5.259c-2.515-21.09-20.256-37.511-42.027-37.511-4.207 0-8.195.809-12.045 1.937-8.234-17.011-25.517-28.839-45.684-28.839-3.296 0-6.479.359-9.582.962-12.367-17.254-32.547-28.518-55.408-28.518-26.951 0-50.185 15.689-61.257 38.396-6.772-3.271-14.267-5.263-22.31-5.263-17.602 0-33.1 8.854-42.426 22.297-2.938-.809-5.988-1.37-9.186-1.37-19.229 0-34.805 15.572-34.805 34.803 0 15.536 10.236 28.531 24.298 33.009-.091.976-.31 1.963-.31 2.964 0 19.229 15.574 34.817 34.805 34.817 3.313 0 6.468-.616 9.508-1.489 7.9 28.929 34.275 50.199 65.695 50.199 20.627 0 39.063-9.198 51.582-23.656 9.289 10.146 22.527 16.613 37.396 16.613 18.049 0 33.814-9.455 42.848-23.63 7.337 6.055 16.625 9.813 26.875 9.813 23.489 0 42.527-19.038 42.527-42.526 0-1.692-.295-3.311-.487-4.95a29.067 29.067 0 0 0 16.679 5.245c16.164 0 29.287-13.099 29.287-29.273.005-16.178-13.12-29.289-29.283-29.289z"/><path fill="#79BF6B" d="M2774.015 1845.809c-6.222 0-11.956 1.963-16.69 5.247-2.515-21.078-20.256-37.485-42.027-37.485-4.207 0-8.195.783-12.045 1.938-8.234-17.014-25.517-28.854-45.684-28.854-3.296 0-6.479.359-9.582.963-12.367-17.255-32.547-28.519-55.408-28.519-26.951 0-50.185 15.677-61.257 38.396-6.772-3.285-14.267-5.261-22.31-5.261-17.602 0-33.1 8.839-42.426 22.311-2.938-.82-5.988-1.397-9.186-1.397-19.229 0-34.805 15.574-34.805 34.816 0 15.521 10.236 28.529 24.298 33.009-.091.987-.31 1.949-.31 2.977 0 19.219 15.574 34.806 34.805 34.806 3.313 0 6.468-.616 9.508-1.478 7.9 28.902 34.275 50.173 65.695 50.173 20.627 0 39.063-9.185 51.582-23.631 9.289 10.123 22.527 16.604 37.396 16.604 18.049 0 33.814-9.455 42.848-23.646 7.337 6.057 16.625 9.826 26.875 9.826 23.489 0 42.527-19.037 42.527-42.525 0-1.692-.295-3.311-.487-4.966a28.97 28.97 0 0 0 16.679 5.262c16.164 0 29.287-13.101 29.287-29.288.005-16.164-13.12-29.278-29.283-29.278z"/><path fill="#549B48" d="M2624.393 1543.951c-1.898 0-3.771.129-5.645.282-12.404-21.563-35.611-36.1-62.243-36.1-11.777 0-22.874 2.886-32.677 7.9-15.701-24.745-43.259-41.218-74.727-41.218-6.929 0-13.638.871-20.116 2.385-21.642-32.598-58.651-54.099-100.743-54.099-30.377 0-58.088 11.226-79.318 29.725a87.974 87.974 0 0 0-41.514-10.363c-44.323 0-80.925 32.607-87.391 75.125-7.49-2.9-15.587-4.542-24.104-4.542-18.613 0-35.458 7.619-47.568 19.885-30.468 2.592-55.049 25.541-60.167 55.215-24.092 2.167-42.976 22.386-42.976 47.042 0 26.12 21.18 47.272 47.271 47.272.796 0 1.591-.075 2.399-.129 13.509 29.688 43.335 50.365 78.062 50.365a85.65 85.65 0 0 0 34.035-7.043c14.945 9.225 32.48 14.637 51.313 14.637 23.722 0 45.467-8.438 62.398-22.475 15.639 13.932 36.189 22.475 58.782 22.475 18.087 0 34.866-5.438 48.862-14.727 21.336 18.947 49.416 30.469 80.205 30.469 33.11 0 63.104-13.329 84.95-34.907 12.804 7.376 27.646 11.677 43.489 11.677 36.921 0 68.439-22.951 81.244-55.318 2.04.167 4.104.308 6.17.308 36.961 0 66.915-29.967 66.915-66.927.009-36.959-29.945-66.914-66.906-66.914"/><path fill="#6CC04A" d="M2624.393 1529.25c-1.898 0-3.771.13-5.645.282-12.404-21.553-35.611-36.101-62.243-36.101-11.777 0-22.874 2.887-32.677 7.915-15.701-24.746-43.259-41.231-74.727-41.231-6.929 0-13.638.873-20.116 2.389-21.642-32.6-58.651-54.101-100.743-54.101-30.377 0-58.088 11.227-79.318 29.726-12.38-6.606-26.519-10.364-41.514-10.364-44.323 0-80.925 32.608-87.391 75.123-7.49-2.898-15.587-4.54-24.104-4.54-18.613 0-35.458 7.619-47.568 19.896-30.468 2.577-55.049 25.528-60.167 55.201-24.092 2.168-42.976 22.388-42.976 47.058 0 26.104 21.18 47.261 47.271 47.261.796 0 1.591-.076 2.399-.128 13.509 29.685 43.335 50.363 78.062 50.363a85.633 85.633 0 0 0 34.035-7.043c14.945 9.226 32.48 14.639 51.313 14.639 23.722 0 45.467-8.441 62.398-22.478 15.639 13.934 36.189 22.478 58.782 22.478 18.087 0 34.866-5.438 48.862-14.729 21.336 18.947 49.416 30.469 80.205 30.469 33.11 0 63.104-13.328 84.95-34.905 12.804 7.376 27.646 11.673 43.489 11.673 36.921 0 68.439-22.949 81.244-55.316 2.04.167 4.104.31 6.17.31 36.961 0 66.915-29.97 66.915-66.929.009-36.964-29.945-66.918-66.906-66.918"/><path fill="#D0F7F6" d="M2513.041 2655.532c1.25-66.964-45.746-135.537-123.149-138.11-26.327-140.424-149.387-247.341-297.442-247.341-121.584 0-226.168 71.56-274.324 174.947-43.475-72.43-122.525-121.215-213.114-121.215-96.862 0-180.542 55.429-221.616 136.237-44.961-95.015-141.434-160.952-253.55-160.952-130.015 0-239.063 88.548-270.972 208.543-33.107-19.765-71.708-30.179-113.069-30.179-103.674 0-164.489 97.604-163.164 176.566 1.122 66.866 90.623 158.052 157.491 158.993 106.496 1.499 161.992-91.495 161.992-91.495s59.996 164.988 205.75 173.988c160.841 9.934 227.729-101.993 227.729-101.993s91.496 103.493 204.979 104.993c215.031 2.845 282.5-124.492 282.5-124.492s104.57 143.55 265.831 143.992c239.644.657 299.639-145.491 299.639-145.491s123.629-70.947 124.489-116.991z"/><path fill="#E8F7F6" d="M2473.041 2603.496c1.188-63.655-43.485-128.844-117.066-131.289-25.025-133.487-142.009-235.125-282.752-235.125-115.58 0-214.999 68.022-260.778 166.308-41.325-68.854-116.474-115.229-202.589-115.229-92.079 0-171.625 52.69-210.671 129.511-42.741-90.32-134.449-153.003-241.028-153.003-123.592 0-227.257 84.174-257.589 198.242-31.472-18.789-68.166-28.688-107.483-28.688-98.556 0-156.365 92.784-155.105 167.85 1.066 63.563 86.147 150.246 149.713 151.142 101.236 1.425 153.991-86.978 153.991-86.978s57.035 156.843 195.589 165.396c152.896 9.439 216.482-96.958 216.482-96.958s86.978 98.384 194.853 99.812c204.412 2.7 268.55-118.348 268.55-118.348s99.404 136.461 252.701 136.883c227.81.627 284.842-138.308 284.842-138.308s117.524-67.449 118.34-111.218z"/><path fill="#CC4862" d="M2574.121 461.59c0 113.453-91.976 205.428-205.433 205.428-113.454 0-205.422-91.975-205.422-205.428 0-113.46 91.968-205.433 205.422-205.433 113.46-.001 205.431 91.972 205.433 205.433z"/><path fill="#E8F7F6" d="M2780.658 592.5c-5.908-18-25.148-38.116-48.432-38.893-7.918-42.234-44.931-74.502-89.462-74.502-36.569 0-68.024 21.467-82.509 52.564-13.076-21.785-36.854-36.485-64.1-36.485-29.135 0-54.303 16.658-66.654 40.963-13.523-28.577-42.54-48.417-76.262-48.417-39.104 0-71.903 26.628-81.502 62.72-9.957-5.942-21.565-8.857-34.008-8.857-31.182 0-57.271 28.908-64.551 50.908l607.48-.001zm-405.043-196c-3.388-20-18.583-32.154-36.844-32.154-4.572 0-8.913.017-12.966 1.518-4.992-19.516-22.639-34.423-43.704-34.423-15.845 0-29.757 7.939-37.813 20.283-7.523-22.479-28.706-38.817-53.721-38.817-28.594 0-52.172 21.144-56.051 48.67-6.989-5.817-15.971-9.353-25.772-9.353a40.056 40.056 0 0 0-21.872 6.461c-8.281-10.23-20.925-16.791-35.104-16.791-24.939 0-45.162 22.063-45.162 47.005 0 1.959.168 4.602.406 7.602h368.603v-.001z"/></svg>