<svg xmlns="http://www.w3.org/2000/svg" id="tatoo_x5F_f" viewBox="0 0 3000 3000"><path id="cl2" fill="#FFF" d="M1654.3 833.5c.5-18.8-1.5-39.199-3.8-59.699-.9-8.5.2-17.301 3.3-25.4 4.801-12.6 18.5-15.6 27.801-6 7.3 7.5 11.6 16.9 14.199 26.9 7.7 29.3 11 59.1 12.301 89.3.399 9.3.699 18.5-5.601 26.6-6.899 8.9-16.1 12-26.399 10-10.301-2-17.9-8.399-20.5-19.3-1-4.2-1.5-8.4-1.4-12.8.199-9.201.099-18.501.099-29.601zM1459 1137.301c2.1-8.2 2.8-16.5-3-23.601-11-13.5-28.6-11.399-37.1 1.601-7.101 10.699-15.4 19.899-25 28-16.6 14.099-32.1 29.699-50.9 41.199-5.4 3.301-10.2 7.301-13.5 12.9-5.6 9.8-.2 20.1 11 20.8 8.5.5 16.2-2 23.7-5.899 8.5-4.4 17.199-8.4 25.8-12.5l-.3.1c.8-.7 1.899-.9 2.699-1.6.801-.7 1.5-1.5 1.5-2.7 12.801-9.6 23.101-21.5 31.7-34.9 7.2-11.199 16.3-19.1 30.8-17 1.001-2.101 2.101-4.101 2.601-6.4zm362.9-16c-3.801-3.9-7.801-7.301-13.101-8.801-7.899-2.3-14.699 2.601-15.199 10.9-.301 5.5.8 10.5 4.399 14.8 8.2 2.9 14.2 7.9 17.3 16.4 1.4 3.9 4.4 7 9.101 10.8v-29.8c-.9-4.799-.659-11.574-2.5-14.299z"/><path id="cl1" fill="#B9E6E9" d="M1456.5 1143.801c15.1 6.199 19.9 20.399 11.1 34.899-5.899 9.7-13.6 18-21.199 26.301-18.7 20.8-42.301 35.1-66.4 48.5-2.6 1.399-5.2 2.8-7.9 4.199-7 3.601-14.699 2.301-18.899-3.199-4.301-5.601-4.301-13.601 1.1-19.101 7.9-8 16.4-15.399 24.6-23.199 4-3.801 15.351-17.276 16.351-18.576 11.5-13 20.75-22.024 29.149-35.124 4.801-7.5 11-14.5 20.601-16.301 3.897-.899 7.997-1.2 11.497 1.601zm358.25 2.324c-6.25-5.774-14.59-8.613-20.55-5.625s-11.101 8.601-11.9 16.4c-.4 3.8.8 7.2 1.8 10.7 5.2 17 13.025 31.3 22.525 45.899 2.6-1.1 8.226-13.15 9.125-15.25 6.9-15.101 9.984-30.176 10.05-37.35.041-4.524-5.05-11.099-11.05-14.774z"/></svg>