<svg xmlns="http://www.w3.org/2000/svg" id="tatoo_x5F_f" viewBox="0 0 3000 3000"><path id="cl1" fill="#7A0099" d="M1517 1096.801c-5.7-7.4-18.3-8.101-37.6-2-54.9 25.6-99.101 59.6-132.4 102-19.7 22.199-22.6 40.5-8.8 54.8 12.8 9.2 24.399 10.4 34.6 3.5 40.5-41.9 82.3-80.1 125.4-114.8 21.9-19.301 28.2-33.701 18.8-43.5M1465.3 1026h-3.899c-23.101.5-55.2 7.801-96.4 22-30.2 9.601-55.9 25.9-77.2 48.801-9.6 12.5-10.899 27.699-4 45.699 11.301 9.101 22.7 7.601 34-4.5 51.301-32.699 101.9-60.699 151.801-84 3.5-1.899 5.5-4.199 5.899-6.899 1.7-6.7.101-12.601-4.8-17.8l-.4-.5c-1.501-1.5-3.201-2.401-5.001-2.801m354.867 84.167s-4.5-27.167-5-39 .675-30.196.675-30.196c-25.399-13.699-29.442-13.47-46.042-16.571-11.4-2.5-17.5 1.4-18.4 11.601.301 8.3 4.301 15.3 12 20.8 19.8 13.099 33.367 29.065 56.767 53.366m-27.567-3.366c-10.399-3.5-17-.4-20 9.199-.399 5.301 3 12.4 10.4 21.2 17.8 23.4 28.9 42.4 33.2 56.8 6-17.1 10.854-34.456 8.399-54.8-10.299-15.1-20.899-25.899-31.999-32.399z"/></svg>