<svg xmlns="http://www.w3.org/2000/svg" id="tatoo_x5F_f" viewBox="0 0 3000 3000"><path id="cl2" fill="#95D7DB" d="M1416.4 677.2c-37.7 2.7-64.601 8.3-80.801 16.8-100.199 34.301-140.85 47.121-222.05 102.421.45 220.579 36.91 260.1 85.858 334.506 143.5-18.1 177.192-34.327 287.492-72.927 89.5-39.199 145.801-58.399 168.801-57.6 18.399-.5 35.199 9.8 50.5 30.9 30.6 29.3 55.8 50.199 110.3 57.199-3.801-23.5 2.109-44.08 11.01-65.58 0 0 36.99-76.92 43.125-120.993 10.339-74.273 5.645-106.566 1.13-144.042-6.199-51.459-20.058-73.885-20.058-73.885-62.1-1.5-178.207 9.801-220.607 31.501-71.8-26.4-143.2-39.199-214.7-38.3z"/><path id="cl1" fill="#FFF" d="M1717.5 1094c5.2 6.4 9.4 10.4 12.6 11.9 31.601 12.8 69.233 18.166 92.733 17.267l-6.333-34.667c-44.4-7.6-79.8-27.899-110.5-57.199-15.3-21.101-32.101-31.5-50.5-30.9-23-.8-79.3 18.4-168.8 57.6-110.301 38.601-144.672 53.569-288.272 71.569 9.672 13.431 17.863 24.423 32.072 39.598 207.101-27 223.6-37.967 271.6-58.467 46.601-14.7 86.5-33.5 119.7-56.3 15.3-10.5 35.2-7.6 59.6 8.8 13.2 8.2 25.101 18.4 35.801 30.601.199.098.299.198.299.198z"/></svg>