<svg xmlns="http://www.w3.org/2000/svg" id="tatoo_x5F_f" viewBox="0 0 3000 3000"><path id="cl2" fill="#FFF" d="M1277.767 1184.801c-.399.199-.899.3-1.3.5l-9.3 3.399v.8c0 6.2 4.399 9.801 13.1 11 4.7-.3 9.5-1.8 14.4-4.399 33-6.2 69-11.2 108.1-14.8 7.7.699 13 .1 15.9-2 2.6-3.4 4.8-6.601 6.3-9.5.1-.101.1-.2.2-.301-61.9-2.399-109.4 2.2-142.5 13.601-1.7.499-3.3 1.099-4.9 1.7m150.4-71.301v-.199c-64.9-3.9-126.7-4.2-185.4-1 7.5 17.399 22.9 25.399 46.4 24 51.4-6.5 94.6-8.301 129.5-5.5 5.8-5.101 8.9-10.901 9.5-17.301m393.084 62.833c-7.2-4.1-11.284-5.633-23.184-9.333-2.7 7.801-.4 13.801 6.8 18 2.7 1.101 5.88 1.622 7.898 1.688 2.202.071 2.936.284 5.603-.216 1.584-5.251 2.216-6.472 2.883-10.139m-27.384-58.532c0 .699.1 1.5.199 2.199 1.101 8 2.717 15.193 7.301 16.9 8.41 3.132 23.288 1.056 23.288 1.056l-3.066-23.032c-20.8 0-13.822.576-27.722 2.877z"/><path id="cl1" fill="#F26D6D" d="M1428 1114.3c.6-8.301-3.1-17.801-11.1-28.5-52.7-22.101-105.9-29.101-159.601-20.801-16.1 12.5-21.3 27.9-15.6 46 .3.801.6 1.5.9 2.2 58.701-3.2 120.501-2.799 185.401 1.101m-151.7 72c.5-.2.9-.301 1.301-.5 1.6-.601 3.199-1.2 4.899-1.801 33.2-11.399 80.7-16 142.5-13.6 6.9-12.6 3.601-19.3-10.1-20-41.2-4.9-80.3-1.1-117.3 11.4-14.5 2.1-24 8.899-28.801 20.2-1.199 2.899-1.8 5.399-2 7.699l9.501-3.398m521.8-18.9c-.1.2-.1.4-.199.6 11.899 3.7 15.816 6.151 23.017 10.25 2.281-10.022 3.207-18.003 3.834-25.167-19.201 1.1-24.752 7.416-26.652 14.317m23.62-51.494l-3.821-21.179c-5.814.355-11.147 2.772-16.398 6.672-5.3 5.4-7.9 11.2-7.8 17.4 13.899-2.3 15.366-2.699 28.019-2.893z"/><path fill="#FFF" d="M1812.565 1186.687c0 .05.2-.05.2 0"/></svg>