<svg xmlns="http://www.w3.org/2000/svg" id="tatoo_x5F_f" viewBox="0 0 3000 3000"><path id="cl1" fill="#534444" d="M1439.9 1170.349c.1-.1.1-.199.199-.3.101-.1.2-.2.2-.3 10.4-15.9 21.9-32.2 34.3-49.1 3.7-8.101 2.7-11.301-3-9.601-15.6 12.601-30.399 22.2-44.399 29-31.7 16.8-62.801 32.101-93.2 45.8-4.3 3.7-4.4 10.4-.3 20.2l10.8 21.2c1.1 1.6 2.2 2.6 3.4 3.2.5.2.899.3 1.399.1 4-1.399 7.4-3.6 10.2-6.7 7.5-2.6 15.7-2.5 24.4.4 15.899 4.8 28.399 12.4 37.699 22.6 9.301 10.301 13.801 18.9 13.601 25.801-.2 7.899-7.4 11.199-21.601 10-12.699-1.7-23-7.601-30.8-17.601-3.6-6.1-1.3-10 7-11.6 4.5-2.101 10.9-1 19.3 3.2-1-1.9-3-4.101-5.8-6.5-12.7-7.4-23-8.7-30.8-3.9-6.2 6.1-6.2 13.8 0 23.2 9.5 11.399 27.5 21.3 53.899 29.8 17.601 1.9 30.7.9 39.101-3.2 7-3.899 8.7-12 5-24.399-4.5-12.4-13.601-25.801-27.3-40.5-11.301-10.7-17.601-19-18.9-24.9-1.398-11.699 3.902-23.599 15.602-35.9m-97.1-83.799c-8.1-12.899-9.199-27.6-3.199-44 5.899-15.6 13.899-22.5 24-20.6 9 1.6 12.3 10.8 9.8 27.8-3.101 11.9-8.7 15.6-16.8 11.1-3.5-4.899-4.4-10.5-2.5-17 1.3-3.899 2.1-6.399 2.1-7.5-2.5-.899-5.1 3-7.7 11.5-5.6 18.5-1.7 29.9 11.601 34.2 12 1.9 21.699-5 29-20.6 6.5-29.9 4.699-49.7-5.4-59.6-12.4-11.801-25.7-11.801-40 0-18.8 22.399-26.8 44.5-24 66.3s8.8 41.6 18 59.399c1.2 2.9.7 9.101-1.6 18.9-3.601 13.8-9.5 26.6-17.9 38.3 23.7-22.1 54.8-41 93.2-56.699-13.301-.101-23.801-2.2-31.601-6.2-11.601-5.501-24.001-17.2-37.001-35.3z"/></svg>