<svg xmlns="http://www.w3.org/2000/svg" id="tatoo_x5F_f" viewBox="0 0 3000 3000"><path id="cl3" fill="#353C53" d="M1395.836 1115.513c16.96 1.391 25.95 7.878 26.877 19.277-.834 9.824-4.17 16.219-10.009 19.092-12.234 3.429-20.853 1.947-25.673-4.541-.556-1.39-.927-2.596-1.019-3.707-5.005-.649-8.527 1.668-10.566 6.951 2.41 6.857 7.507 11.214 15.385 12.975 12.419 2.595 22.8 1.668 30.955-2.688 11.771-8.712 16.034-20.945 12.79-36.794-2.317-7.692-9.546-14.086-21.594-19.184-22.984-5.654-43.374-2.78-60.983 8.619-8.156 8.063-12.512 16.034-12.975 24.097l-41.058 17.238-4.263 4.078c-2.131 7.507 1.946 21.688 12.141 42.633l6.767 9.176c1.668.833 3.244.833 4.634 0 12.79-4.728 26.135-11.493 40.13-20.205 4.912 4.356 10.75 7.23 17.517 8.805-1.947 17.331-4.356 32.068-7.136 44.394.371 1.39.927 2.595 1.761 3.707 9.546 3.707 26.877 5.839 52.178 6.58 2.688-.463 4.263-2.41 4.912-5.931v-1.669c1.019-14.829 1.298-28.915.834-42.447 8.711-3.058 16.403-7.506 22.891-13.531 8.527 15.477 16.59 29.287 24.282 41.521 1.947 1.39 4.078 1.946 6.581 1.761 14.92-11.585 28.174-21.41 39.852-29.565v-6.024c-8.896-9.36-20.297-25.023-34.291-46.989 9.639-12.975 14.644-24.375 15.013-34.384 1.021-.092 1.948-1.391 2.967-4.171 5.375-22.151 6.302-36.331 2.873-42.447-4.542-5.097-10.01-5.283-16.404-.648-7.136 14.18-11.956 26.042-14.458 35.589-.278 9.639 4.82 14.829 15.2 15.385-1.112 9.454-12.883 25.116-35.218 46.989-22.335 21.872-46.34 28.452-71.827 19.926-23.17-6.951-32.716-24.19-28.545-51.531 5.929-16.498 19.09-24.006 39.479-22.337m38.741-75.627c1.854-4.449 1.02-8.434-2.41-12.048-6.673-3.429-13.067-2.595-19.091 2.595l-27.99 22.059c-4.727 6.116-4.17 11.863 1.668 17.423 5.098 4.82 10.566 6.117 16.312 3.708 8.99-2.411 19.462-13.717 31.511-33.737m25.95 12.976c-4.263-.092-7.507.834-9.824 2.595-11.585 10.937-21.78 23.078-30.584 36.331-2.039 8.712 3.058 14.829 15.385 18.351 4.264.834 9.268-.278 14.829-3.244 3.615-3.892 6.951-9.268 10.195-16.219 3.337-7.229 6.395-16.125 9.268-26.598 1.112-6.303-1.854-10.01-8.897-11.122-.094-.094-.279-.094-.372-.094m-100.743-34.014c-.092.463-.092.834-.092 1.298-.371 4.819 1.019 8.434 4.17 10.936 2.132 1.668 5.375 2.688 9.731 3.244 10.844-1.205 23.633-8.99 38.184-23.17 3.336-3.985 3.336-7.506 0-10.565-2.688-2.317-6.117-3.337-10.38-2.966-13.81 2.131-25.858 6.766-36.238 13.994-3.058 2.503-4.912 5.005-5.375 7.229z"/><path id="cl2" fill="#FFF" d="M1507.424 1201.427c-11.771-13.716-20.669-27.34-26.507-40.779-3.985 6.303-11.956 15.2-23.912 26.693l22.243 34.662c10.844-5.469 20.298-12.327 28.176-20.576m-189.439 2.039c11.771-5.653 22.614-11.492 32.438-17.516-8.619-8.712-12.79-21.779-12.419-39.204l-38.554 15.663c5.282 19.741 11.492 33.457 18.535 41.057z"/><path id="cl1" fill="red" d="M1382.12 1204.115l-5.005 40.316 37.813 2.688 5.005-40.595c-14.457 1.947-27.062 1.112-37.813-2.409z"/></svg>