<svg xmlns="http://www.w3.org/2000/svg" id="tatoo_x5F_f" viewBox="0 0 3000 3000"><path id="cl3" fill="#F13C3C" d="M1571.988 924.239c-19.096-7.176-47.285-12.262-84.749-15.26-34.828 4.087-70.837 10.265-108.029 18.53-136.126 29.065-219.422 53.68-249.885 73.753 14.45 42.788 47.381 100.98 70.44 126.952 23.917 3.27 3.216.754 26.677 2.48a1005.344 1005.344 0 0 0 59.198 2.543c26.371.364 52.377-.364 78.021-2.18 24.825-1.725 49.377-4.45 73.565-8.175 25.734-3.996 51.195-9.083 76.293-15.35 12.912-5.722 25.278-10.809 37.191-15.078 39.464-14.26 73.475-20.437 102.117-18.71 21.915 1.816 46.377 7.448 73.475 16.713 13.095 3.361 25.279 5.813 36.737 7.448 14.912 2.089 28.553 2.633 40.829 1.816 3.729-.273 10.275-2.576 13.731-3.121l-.881-11.145c-.909-5.087-.327-10.654-.42-15.195-.272-10.537-1.518-17.77 2.392-25.491l27.97-62.813c10.399-23.186 13.332-32.209 14.945-49.301-17.914-4.633-61.647-7.418-81.471-7.6l-6.547.908c-10.549 5.178-23.552 9.265-39.102 12.354h-.273c-1.091.182-2.182.272-3.273.363-59.106 5.359-112.12.636-158.951-14.441z"/><path id="cl2" fill="#FFF" d="M1809.144 1117.16c2.728-.908 9.698-3.187 10.606-6.91l-2.149-13.649c-3.455.544-10.095 2.576-13.822 2.848-12.275.908-25.826.272-40.829-1.817-11.457-1.635-23.733-4.087-36.737-7.448-27.099-9.264-51.559-14.896-73.475-16.712-28.645-1.726-62.652 4.45-102.118 18.71-11.911 4.27-24.279 9.355-37.192 15.078-25.097 6.267-50.467 11.354-76.292 15.35-24.189 3.725-48.741 6.45-73.565 8.175-25.644 1.816-51.65 2.543-78.021 2.18-19.551-.272-65.87-3.297-85.784-4.75 5.735 13.619 9.401 17.619 18.493 25.55 9.912.182 19.915.273 29.917.182h.181l167.045-12.988c4.456-.636 9.003-1.272 13.458-1.999 29.281-4.45 59.016-9.81 89.388-16.258.182 0 .272-.092.455-.092l99.39-27.157c35.828-6.631 68.745-4.36 98.571 6.903 10.64 5.359 24.371 9.173 41.194 11.626 11.821 1.726 25.097 2.634 39.919 2.907 3.728.271 7.547.271 11.367.271m-321.905-208.181c37.464 2.998 65.653 8.084 84.749 15.26 46.831 15.077 99.845 19.8 158.951 14.169 1.092-.09 2.183-.272 3.274-.364h.273c15.549-3.088 28.553-7.175 39.101-12.353l6.548-.908c19.823.272 64.597 4.381 82.51 9.013-.363-1.362-3.031-7.274-3.396-8.546-5.819-8.537-41.377-10.003-59.2-10.367-17.823-.272-39.557 3.179-65.29 10.446-26.644 7.72-61.29 9.174-104.028 4.36l-110.575-26.886c-32.371-1.816-73.565 1.544-123.669 10.173-134.672 29.156-217.695 53.407-249.158 72.664-12.458 6.176-18.369 11.354-17.823 15.623 30.463-20.074 113.758-44.688 249.885-73.753 37.011-8.267 73.02-14.444 107.848-18.531z"/><path id="cl1" fill="#5293A3" d="M1456.958 1194.456c-.272.545-.636 1.181-.91 1.726-.09.273-.181.545-.272.727-.182 1.089.272 2.18 1.546 3.179a139.442 139.442 0 0 0 26.097 12.262c1.91.635 3.729 1.271 5.639 1.817 1.182.817 2.819.635 4.91-.545 10.821-10.809 17.732-21.072 20.643-30.791.09-.091.09-.273.09-.454.091-.273.091-.545.091-.727 0-1.635-1.091-3.36-3.363-5.177-1.819-.818-4.092-1.544-6.639-2.362-4.819-1.453-10.912-2.815-18.368-4.268-6.093-1.726-10.185-1.908-12.095-.636-6.639 7.447-12.458 15.803-17.369 25.249m84.75-56.042c-2.818-1.908-7.456-3.724-13.822-5.541-3.363-.908-7.184-1.816-11.456-2.725-6.911-.635-11.276-.272-13.096 1-.181.09-.272.272-.454.363l-.091.182c-5.274 4.542-10.729 11.445-16.368 20.8-2.363 3.452-2 6.086.909 7.811 7.82 3.543 14.822 6.086 21.005 7.539a60.821 60.821 0 0 0 9.912 1.454c3.093.817 5.457-.091 6.911-2.725l17.459-23.616c1.182-1.454.909-2.907-.909-4.542m-227.515 50.774l-.545.273c-.182.091-.455.272-.728.363-12.73 6.994-22.279 14.806-28.553 23.435-.728 1.634-1 3.087-.728 4.359 8.912 7.902 18.095 14.805 27.826 20.709 2 1 4.183 1 6.547 0l1.91-.817c11.366-5.087 21.187-12.081 29.645-21.164.272-.363.636-.727 1-1.089.091-.091.091-.091.091-.273.728-1.181.364-2.18-1.091-2.997-4.82-4.632-9.639-8.72-14.368-12.262-5.637-4.178-11.093-7.539-16.458-9.991-1.456-.819-3.003-1-4.548-.546m-12.276-14.26c.455-1.454.364-2.725-.363-3.997-6.002-4.905-12.823-9.355-20.37-13.443-1.546-.636-3.092-.908-4.729-.726-.91.09-1.819.363-2.728.726-7.548 4.632-13.821 9.537-18.732 14.896-1.546 1.726-1.546 3.725 0 5.996 3 3.451 6.184 6.63 9.548 9.537a106.437 106.437 0 0 0 11.912 8.811c.728.635 3.819-.818 9.093-4.361 5.275-3.542 10.731-9.356 16.369-17.439m85.659 2.18c.546-1.726.455-3.179-.364-4.542-6.729-7.357-15.822-14.533-27.28-21.799-.909-1.09-2.091-1.271-3.364-.454-.182.182-.455.364-.728.545-.091.091-.272.091-.363.181-10.73 6.086-20.187 13.262-28.189 21.437-1 .816-1.183 1.634-.546 2.633.182.182.364.454.637.727 4.001 5.358 8.184 9.992 12.276 13.806 5.365 4.905 10.821 8.448 16.368 10.809 1.273.727 2.456.544 3.547-.364 10.819-6.812 20.095-14.441 28.006-22.979m18.641 7.811c-1.728-.727-3.637-1.454-5.456-2.18-2.364-1.453-4.274-1.362-5.821.272-9.093 4.723-17.822 13.08-26.006 25.16-1.365 1.999-.637 3.906 2.091 5.632 2.638 4.45 7.548 8.629 14.641 12.625 3.819 2.089 8.275 4.178 13.367 6.177 1.818 1.543 3.911 1.543 6.365 0 7.912-6.177 15.641-15.895 23.28-29.065 2-2.725 1.909-4.814-.273-6.085-5.637-4.543-13.004-8.721-22.188-12.536m24.007-37.059c-3.365 2.362-6.365 4.633-9.003 6.904-4.274 3.724-7.365 7.357-9.457 10.808-3.001 5.177-3.364 8.629-1.091 10.445.181.182.455.273.728.454 8.275 5.813 16.732 10.445 25.188 13.988 1.545.818 3.456.272 5.637-1.544 9.458-7.721 16.459-15.531 21.006-23.524.272-.273.455-.454.545-.727.91-1.363.728-2.725-.545-3.906-7.912-6.721-17.005-11.172-27.19-13.352-2.454-1.089-4.363-.908-5.818.454m393.151 14.515c-3.001 2.271-20.598 9.101-22.598 12.008-.091.182-.182.272-.273.454-1.999 3.179-.636 9.537 4.093 19.347.636.273 1.183.364 1.728.273.818-.182 6.221-2.81 6.676-4.082l5.625-6.75m-45.766-27.59c-2-1.362-3.637-1.725-4.819-1.181-1.091.545-1.818.908-2.091 1.09-8.912 3.451-16.096 9.991-21.553 19.528-3.091 3.905-3.182 6.54-.272 8.084l22.733 16.076c.91.636 1.91 1.09 2.82 1.362 1.454.364 2.908.273 4.364-.272 5.819-4.45 11.275-11.808 16.55-22.071.455-.454.728-.999.91-1.635.362-1.272.181-2.725-.729-4.36-2.092-3.451-4.819-6.721-8.365-9.718-2.637-2.452-5.91-4.723-9.548-6.903m23.461-34.334c-1.273-.363-2.455-.09-3.638.727-6.819 2.09-13.366 6.177-19.731 12.262-2.547 2.634-2.547 4.905 0 6.994 3.637 4.905 7.638 9.355 12.185 13.17 1.819 1.544 3.638 2.997 5.547 4.36.909.817 2.093.817 3.364 0 .728-.363 1.455-.635 2.183-.999 4.001-1.907 7.275-4.178 9.821-6.812 3.092-2.998 4.547-5.359 4.456-7.084-.092-1.726-.182-2.725-.273-2.998-.636-4.542-4.365-10.445-11.002-17.621-.82-.999-1.911-1.726-2.912-1.999m-54.742 39.693c.183.09.364.09.455.09a3.045 3.045 0 0 0 1.546-.09c.183 0 .364-.09.455-.182 12.366-12.443 18.731-19.709 19.187-21.617.454-.636.454-1.453.092-2.452 0 0 0-.091-.092-.091-1.455-2.997-4.365-6.63-8.912-10.809a108.543 108.543 0 0 0-4.547-3.996c-4.364-3.179-8.547-3.997-12.729-2.362-8.275 3.725-15.641 9.174-22.097 16.349-1.637 2.271-1.637 3.815 0 4.724 7.365 7.902 15.822 14.533 25.279 19.71.455.272.909.454 1.363.726z"/></svg>