<svg xmlns="http://www.w3.org/2000/svg" id="panties" viewBox="0 0 3000 3000"><path id="cl1" fill="#EBF229" d="M1781 2048.5s-1.572 38.543-.435 51.323c.592 6.634 4.935 26.177 4.935 26.177-15 1.5-78.5 37-89 43s-81.5 57.5-84 65c-22.5 38-77 31.5-84 31s-45.5-4.5-78.5-42.5c-123-93-205.5-103-205.5-103l-7-90.5 543.5 19.5z"/><path id="sd1" fill="#C6CD23" d="M1777.868 2069.98L1309 2084.5l-7.425 51.807-57.075-16.807-7-90.5 543.5 19.5-3.132 21.48zm-292.536 180.233c-16.5-15-35.332-87.713-41.832-106.213-8 12 8.332 81.213 8.332 81.213s50 40 33.5 25zM1604 2184.5s-.969 60.741-5.969 64.741 15.5-13 15.5-13-.031-46.241-7.031-51.741-2.5 0-2.5 0z" opacity=".4"/><path id="cl2" fill="#FFF" d="M1237.5 2029l68.011 2.44s-3.011 80.888 9.489 109.849l-70.5-21.789-7-90.5zm489.996 17.58s20.497 72.408 0 105.414L1785.5 2126l-5.283-33.742.783-43.758-53.504-1.92zm-411.673-14.77s-3.955 81.4 9.695 114.712l15.947 7.645s-12.544-45.333-13.087-72.333 6.777-49.33 6.777-49.33l-19.332-.694zm374.984 13.453c22.973 48.43 7.926 122.469 7.926 122.469l17.422-9.642c9.654-62.076-8.952-112.238-8.952-112.238l-16.396-.589z"/><path fill="none" stroke="#000" stroke-miterlimit="10" stroke-width="6" d="M1781 2048.5s-1.572 38.543-.435 51.323c.592 6.634 4.935 26.177 4.935 26.177-15 1.5-78.5 37-89 43s-81.5 57.5-84 65c-22.5 38-77 31.5-84 31s-45.5-4.5-78.5-42.5c-123-93-205.5-103-205.5-103l-7-90.5 543.5 19.5z"/></svg>