<svg xmlns="http://www.w3.org/2000/svg" id="panties" viewBox="0 0 3000 3000"><path id="cl1" fill="#C1E3D8" d="M1783.334 2043.334c-3.334 7.916-8.223 23.618-2.334 46.916 13.722 54.295 58.5 153.752 58.5 153.752-8.666 12-192.082 102.652-222.75 102.998-6-2.32-33.832-70.916-38.5-70.25-4.666.668-67.502-7.897-88.75-1.5-4.87 1.468-54.654 59.241-70 71.25-29.332 6.666-234.166-75.832-237.5-93.832 9.332-15.334 48.666-144 52.666-160s4.668-66.666 4.668-66.666c91.998 7.332 498 20 544 17.332z"/><path id="sd1" fill="#15AB80" d="M1324.268 2029.851s-46.768 118.154-48.768 142.314c-2 24.158-3.5 59.166 45.166 93.166 48.668 34 89.334 66.002 124.668 26.668l26.5-29.5-23-98 51.166 88.09 78.834 5.933 53-89.688-22.666 96.333s18.323 46.79 32.832 48.167c12.166 1.154 176.502-57.666 176.502-57.666s-124.36 67.464-200.334 91.333c-12.168-3.167-39.668-70.667-39.668-70.667l-88.332-3s-58.166 57.334-67 71.167c-5.287 8.278-140.502-19.498-243.168-92.832 8.5-19.502 38.313-104.345 53.674-165.142 2.504-27.729 5.507-61.524 5.507-61.524l85.087 4.848z" opacity=".5"/><path fill="#FFF" d="M1236.167 2054.975s235.914 26.879 544.581 17.545c-2.02-7.908.586-30.186.586-30.186s-508.668-7.666-542.946-16.6l-2.221 29.241zm486.4 230.275c40.666-17.382 109.145-58.983 109.145-58.983s8.123 13.566 7.789 17.735-78.333 44.498-105.666 58.165-114.102 44.336-114.102 44.336l-4.843-.721-9.268-15.848c17.149-5.916 76.279-27.302 116.945-44.684zM1180 2252.501c-.5-4 12.167-27 12.167-27 9.667 11 53 38 103.667 60.666s136.333 45.667 136.333 45.667L1421 2346s-7.5.834-16.866-.301-65.058-19.646-109.652-36.15S1180 2253.501 1180 2253.501"/><path fill="none" stroke="#000" stroke-miterlimit="10" stroke-width="6" d="M1781.334 2042.334c0 3.646-4.58 28.221 1.416 51.916 13.741 54.313 56.75 149.752 56.75 149.752-8.666 12-192.666 102.485-223.334 102.832-6-2.321-33.332-68-37.666-69.834-4.342-1.836-82-7.166-89.25-1.5-2.68 2.095-55.084 54.332-68.25 70.5-29.332 6.666-237.666-76.332-241-94.332 9.332-15.334 48.666-144 52.666-160s4.668-66.666 4.668-66.666c91.998 7.332 498 20 544 17.332z"/></svg>