<svg xmlns="http://www.w3.org/2000/svg" id="panties" viewBox="0 0 3000 3000"><path id="cl1" fill="#C1E3D8" d="M1783.334 2043.334c-3.334 7.916-8.227 23.618-2.334 46.916 13.722 54.295 58.5 153.752 58.5 153.752-8.666 12-192.082 102.652-222.75 102.998-6-2.316-33.832-70.916-38.5-70.25-4.666.668-67.502-7.896-88.75-1.5-4.87 1.472-54.654 59.241-70 71.25-29.332 6.666-234.166-75.832-237.5-93.832 9.332-15.334 48.666-144 52.666-160s4.668-66.666 4.668-66.666c91.998 7.332 498 20 544 17.332z"/><path id="sd1" fill="#15AB80" d="M1324.268 2029.851s-46.768 118.154-48.768 142.314c-2 24.154-3.5 59.166 45.166 93.166 48.668 34 89.334 66.002 124.668 26.668l26.5-29.5-23-98 51.166 88.09 78.834 5.933 53-89.688-22.666 96.333s18.319 46.79 32.832 48.167c12.166 1.153 176.502-57.666 176.502-57.666s-124.36 67.464-200.334 91.333c-12.168-3.167-39.668-70.667-39.668-70.667l-88.332-3s-58.166 57.334-67 71.167c-5.287 8.277-140.502-19.498-243.168-92.832 8.5-19.502 38.313-104.346 53.674-165.146 2.504-27.729 5.507-61.521 5.507-61.521l85.087 4.849z" opacity=".5"/><path id="cl2" fill="#28292B" d="M1236.166 2054.975s235.914 26.879 544.582 17.545c-2.021-7.908.586-30.187.586-30.187s-508.668-7.666-542.946-16.603l-2.222 29.245zm486.401 230.275c40.666-17.382 109.146-58.979 109.146-58.979s8.123 13.563 7.787 17.735c-.334 4.169-78.332 44.498-105.666 58.165-27.332 13.667-114.104 44.336-114.104 44.336l-4.843-.724-9.271-15.849c17.155-5.916 76.285-27.299 116.951-44.684zM1180 2252.502c-.5-4 12.166-27 12.166-27 9.668 11 53 38 103.668 60.666 50.666 22.666 136.332 45.666 136.332 45.666L1421 2346s-7.5.834-16.866-.301-65.062-19.646-109.652-36.146S1180 2253.502 1180 2253.502"/><path fill="none" stroke="#000" stroke-miterlimit="10" stroke-width="6" d="M1781.334 2042.334c0 3.646-4.58 28.225 1.416 51.916 13.737 54.313 56.75 149.752 56.75 149.752-8.666 12-192.666 102.485-223.334 102.832-6-2.317-33.332-68-37.666-69.834-4.346-1.836-82-7.166-89.25-1.5-2.684 2.099-55.084 54.332-68.25 70.5-29.332 6.666-237.666-76.332-241-94.332 9.332-15.334 48.666-144 52.666-160s4.668-66.666 4.668-66.666c91.998 7.332 498 20 544 17.332z"/><g id="shirenhua"><path fill="#82AF35" d="M1604 2104.5s-46.498-47-104.749-11-29.715 95.472-21.251 106.5c6.327 8.244 45.25 50.25 111.5 18.5 0 0 28.5-17.5 28.5-36 0 0-30.326 8.678-42.667 8.333-13.072-.365-50.231-3.667-54.166-26.5-4.19-24.32 30.935-44.464 42.333-49.5 14.333-6.333 40.5-10.333 40.5-10.333z"/><path fill="#4E7736" d="M1591 2107.5s-41.106 16.748-38.666 44.833c.975 11.217 3.834 30.669 47.5 34.168 0 0-55.834 13.832-74-13.335s21.833-53 21.833-53 24.833-12.499 43.333-12.666z"/><path fill="#C1E3D8" d="M1570.501 2111.333s1.167 8.333-4.833 9.833-11.866-6.075-11.866-6.075l16.699-3.758z"/><path fill="#C1E3D8" d="M1555.61 2116.347s2.822 7.927-2.752 10.604c-5.575 2.679-12.848-3.559-12.848-3.559l15.6-7.045z"/><path fill="#C1E3D8" d="M1541.825 2121.631s4.797 6.913.116 10.955c-4.681 4.043-13.331-.076-13.331-.076l13.215-10.879zm-8.187 60.82s3.36-7.715 9.259-5.856c5.899 1.856 6.941 11.381 6.941 11.381l-16.2-5.525zm16.2 5.151s2.306-8.093 8.398-7.035c6.094 1.057 8.392 10.359 8.392 10.359l-16.79-3.324z"/><path fill="#C1E3D8" d="M1565.338 2189.271s2.306-8.093 8.398-7.035c6.094 1.057 8.392 10.359 8.392 10.359l-16.79-3.324z"/><path fill="#475B00" d="M1603.168 2102.089c-19.152 2.75-39.299 7.774-56.828 16.022-16.908 7.956-32.087 26.934-28.035 46.554 4.363 21.133 31.682 28.493 50.201 28.365 16.758-.116 33.918-3.678 50.159-7.619 3.132-.761 1.803-5.582-1.33-4.822-13.932 3.382-28.216 6.046-42.514 7.153-17.953 1.391-45.806-3.117-51.475-23.495-2.465-8.864 1.15-17.653 5.903-25.036 5.792-8.995 13.578-14.2 23.214-18.416 16.103-7.044 34.659-11.39 52.034-13.884 3.182-.457 1.824-5.275-1.329-4.822z"/></g></svg>