<svg xmlns="http://www.w3.org/2000/svg" id="panties" viewBox="0 0 3000 3000"><path id="cl1" fill="#C1E3D8" d="M1783.334 2043.334c-3.334 7.916-8.226 23.618-2.334 46.916 13.722 54.295 58.5 153.752 58.5 153.752-8.666 12-192.082 102.652-222.75 102.998-6-2.317-33.832-70.916-38.5-70.25-4.666.668-67.502-7.896-88.75-1.5-4.87 1.471-54.654 59.241-70 71.25-29.332 6.666-234.166-75.832-237.5-93.832 9.332-15.334 48.666-144 52.666-160s4.668-66.666 4.668-66.666c91.998 7.332 498 20 544 17.332z"/><path id="cl2" fill="#FFF" d="M1282 2051s-4 38.5-9 57-37 164.5-37 164.5-29.5-28.5-29-30.5 39.5-121 45-137.5 5-53.5 5-53.5h25zm25 6s-17 83-29 133-20.5 90-20.5 90l24.75 14.5s22.25-116 31.75-156.5 28-81 28-81h-35zm63.5 0s-23.5 92-37 133-28 111.5-28 111.5l17 9.5s37-97 48-145.5S1397 2057 1397 2057h-26.5zm41.5 5s-12.5 86.5-23.5 128-42.5 125.5-42.5 125.5l40.5 13.5s16.5-99.5 25.5-139.5 29-127.5 29-127.5h-29zm45.5 0s-16.5 144-25 182-18 91-18 91h13.5l16-16s7.5-81.5 13.5-120.5 22-133.5 22-133.5l-22-3zm41.751 2.5s-5.751 86-7.251 111.25-18.5 110.25-18.5 110.25l18.479-11.585 11.317-1.237L1515 2062l-15.749 2.5zM1541 2062l-9.5 212 24 1.5 7-210.5-21.5-3zm40.5 3.5l-3 211.5 13 22 11-152.5-2-81h-19zm32 2.5s2.5 125 2.5 156.5-11.5 98-11.5 98l5.75 10.5 24.498-13.498S1643 2185 1639.5 2143.5s-7-75.5-7-75.5h-19zm36 0s12.5 108 12 143 8 100 8 100l30-8s-16-87.5-21-129-11.5-108.5-11.5-108.5l-17.5 2.5zm34 0s17.5 134.5 24 169 9 57.5 9 57.5l22-13s-23-125.5-27.5-152.5-11.5-61-11.5-61h-16zm38 0s13.5 110 17 135.5 19.5 72 19.5 72l21-12s-15.5-54.5-21.5-87.75-22.5-110.25-22.5-110.25l-13.5 2.5zm28.75-2.5s16.25 96.5 23.25 125 28.5 64.5 28.5 64.5l16.502-8.5s-24.75-59-34.126-94.5-18.876-86.5-18.876-86.5h-15.25z"/><path id="sd1" fill="#15AB80" d="M1324.268 2029.851s-46.768 118.154-48.768 142.314c-2 24.155-3.5 59.166 45.166 93.166 48.668 34 89.334 66.002 124.668 26.668l26.5-29.5-23-98 51.166 88.09 78.834 5.933 53-89.688-22.666 96.333s18.32 46.79 32.832 48.167c12.166 1.153 176.502-57.666 176.502-57.666s-124.36 67.464-200.334 91.333c-12.168-3.167-39.668-70.667-39.668-70.667l-88.332-3s-58.166 57.334-67 71.167c-5.287 8.277-140.502-19.498-243.168-92.832 8.5-19.502 38.313-104.346 53.674-165.145 2.504-27.729 5.507-61.521 5.507-61.521l85.087 4.848z" opacity=".5"/><path fill="#28292B" d="M1236.166 2054.975s235.914 26.879 544.582 17.545c-2.021-7.908.586-30.187.586-30.187s-508.668-7.666-542.946-16.602l-2.222 29.244zm486.401 230.275c40.666-17.382 109.146-58.98 109.146-58.98s8.123 13.564 7.787 17.735c-.334 4.169-78.332 44.498-105.666 58.165-27.332 13.667-114.103 44.336-114.103 44.336l-4.843-.723-9.271-15.849c17.154-5.916 76.284-27.299 116.95-44.684zM1180 2252.502c-.5-4 12.166-27 12.166-27 9.668 11 53 38 103.668 60.666 50.666 22.666 136.332 45.666 136.332 45.666L1421 2346s-7.5.834-16.866-.301-65.061-19.646-109.652-36.147-114.482-56.05-114.482-56.05"/><path fill="none" stroke="#000" stroke-miterlimit="10" stroke-width="6" d="M1781.334 2042.334c0 3.646-4.58 28.224 1.416 51.916 13.738 54.313 56.75 149.752 56.75 149.752-8.666 12-192.666 102.485-223.334 102.832-6-2.318-33.332-68-37.666-69.834-4.345-1.836-82-7.166-89.25-1.5-2.683 2.098-55.084 54.332-68.25 70.5-29.332 6.666-237.666-76.332-241-94.332 9.332-15.334 48.666-144 52.666-160s4.668-66.666 4.668-66.666c91.998 7.332 498 20 544 17.332z"/></svg>