<svg xmlns="http://www.w3.org/2000/svg" id="panties" viewBox="0 0 3000 3000"><path id="cl1" fill="#C1E3D8" d="M1783.334 2043.334c-3.334 7.916-8.227 23.618-2.334 46.916 13.722 54.295 58.5 153.752 58.5 153.752-8.666 12-192.082 102.652-222.75 102.998-6-2.316-33.832-70.916-38.5-70.25-4.666.668-67.502-7.896-88.75-1.5-4.87 1.472-54.654 59.241-70 71.25-29.332 6.666-234.166-75.832-237.5-93.832 9.332-15.334 48.666-144 52.666-160s4.668-66.666 4.668-66.666c91.998 7.332 498 20 544 17.332z"/><path id="cl2" fill="#FFF" d="M1273.5 2077.5c0 19.33-14.887 35-33.25 35-4.521 0-12.762-2.671-12.762-2.671L1234 2083l3.736-41.773c0-.001 35.764 16.943 35.764 36.273zm-3.25 50.5c-18.363 0-33.25 15.67-33.25 35s14.887 35 33.25 35 33.25-15.67 33.25-35-14.886-35-33.25-35zm78-62c-18.363 0-33.25 15.67-33.25 35s14.887 35 33.25 35 33.25-15.67 33.25-35-14.886-35-33.25-35zm-22.5 154.918c-18.363 0-33.25 15.67-33.25 35s14.887 35 33.25 35 33.25-15.67 33.25-35-14.886-35-33.25-35zM1207 2190.5c-1.646 0-4.848.369-4.848.369l-20.159 57.698s15.038 11.933 25.006 11.933c18.363 0 33.25-15.67 33.25-35s-14.885-35-33.249-35zm205-47c-18.363 0-33.25 15.67-33.25 35s14.887 35 33.25 35 33.25-15.67 33.25-35-14.886-35-33.25-35zm57-73.5c-18.363 0-33.25 15.67-33.25 35s14.887 35 33.25 35 33.25-15.67 33.25-35-14.886-35-33.25-35zm0 159c-18.363 0-33.25 15.67-33.25 35s13.459 34.376 31.75 32.75c5.053-.449 8.34-10.872 14.5-16.5 7.553-6.9 19.064-6.954 19.064-6.954s1.186-6.077 1.186-9.296c0-19.33-14.886-35-33.25-35zm84-78.082c-18.363 0-33.25 15.67-33.25 35s14.887 35 33.25 35 33.25-15.67 33.25-35-14.886-35-33.25-35zm73-84.918c-18.363 0-33.25 15.67-33.25 35s14.887 35 33.25 35 33.25-15.67 33.25-35-14.886-35-33.25-35zm7.5 147.5c-18.363 0-33.25 15.67-33.25 35s14.887 35 33.25 35 33.25-15.67 33.25-35-14.886-35-33.25-35zm66.5-77.5c-18.363 0-33.25 15.67-33.25 35s14.887 35 33.25 35 33.25-15.67 33.25-35-14.886-35-33.25-35zm58.5-83.5c-18.363 0-33.25 15.67-33.25 35s14.887 35 33.25 35c11.477 0 27.571-15.432 27.571-15.432l-6.268-46.442c.001 0-13.197-8.126-21.303-8.126zM1802 2163c-18.363 0-33.25 15.67-33.25 35s14.887 35 33.25 35c10.873 0 26.594-13.988 26.594-13.988s-18.594-48.512-21.291-55.569c-.625-1.637-3.498-.443-5.303-.443zm-63 70c-18.363 0-33.25 15.67-33.25 35 0 16.541 10.9 30.402 25.553 34.058 2.471.616 37.283-18.07 37.283-18.07s3.664-10.228 3.664-15.987c0-19.331-14.886-35.001-33.25-35.001z"/><path id="sd1" fill="#15AB80" d="M1324.268 2029.851s-46.768 118.154-48.768 142.314c-2 24.154-3.5 59.166 45.166 93.166 48.668 34 89.334 66.002 124.668 26.668l26.5-29.5-23-98 51.166 88.09 78.834 5.933 53-89.688-22.666 96.333s18.319 46.79 32.832 48.167c12.166 1.153 176.502-57.666 176.502-57.666s-124.36 67.464-200.334 91.333c-12.168-3.167-39.668-70.667-39.668-70.667l-88.332-3s-58.166 57.334-67 71.167c-5.287 8.277-140.502-19.498-243.168-92.832 8.5-19.502 38.313-104.346 53.674-165.146 2.504-27.729 5.507-61.521 5.507-61.521l85.087 4.849z" opacity=".5"/><path fill="#28292B" d="M1236.166 2054.975s235.914 26.879 544.582 17.545c-2.021-7.908.586-30.187.586-30.187s-508.668-7.666-542.946-16.603l-2.222 29.245zm486.401 230.275c40.666-17.382 109.146-58.979 109.146-58.979s8.123 13.563 7.787 17.735c-.334 4.169-78.332 44.498-105.666 58.165-27.332 13.667-114.104 44.336-114.104 44.336l-4.843-.724-9.271-15.849c17.155-5.916 76.285-27.299 116.951-44.684zM1180 2252.502c-.5-4 12.166-27 12.166-27 9.668 11 53 38 103.668 60.666 50.666 22.666 136.332 45.666 136.332 45.666L1421 2346s-7.5.834-16.866-.301-65.062-19.646-109.652-36.146S1180 2253.502 1180 2253.502"/><path fill="none" stroke="#000" stroke-miterlimit="10" stroke-width="6" d="M1781.334 2042.334c0 3.646-4.58 28.225 1.416 51.916 13.737 54.313 56.75 149.752 56.75 149.752-8.666 12-192.666 102.485-223.334 102.832-6-2.317-33.332-68-37.666-69.834-4.346-1.836-82-7.166-89.25-1.5-2.684 2.099-55.084 54.332-68.25 70.5-29.332 6.666-237.666-76.332-241-94.332 9.332-15.334 48.666-144 52.666-160s4.668-66.666 4.668-66.666c91.998 7.332 498 20 544 17.332z"/></svg>