<svg xmlns="http://www.w3.org/2000/svg" id="panties" viewBox="0 0 3000 3000"><path id="cl1" fill="#7BAA25" d="M1782.424 2052.084s.198 59.778 7.532 68.446c33.211 74.971 68.71 204.138 66.044 203.47-2.668-.666-190.833 70.499-190.833 67.833s-74.276-120.853-83.331-130.317c-13.043-13.634-87.141-5.016-87.141-5.016L1369.332 2394s-184.666-52-192.899-66.666c.649-11.994 11.269-47.811 23.877-91.115 17.255-59.269 39.857-124.386 39.857-124.386l3.333-68.845 538.924 9.096z"/><path id="cl2" fill="#3B7105" d="M1313.689 2041.574c0 7.333-13.688 102.857-15.688 108.191s-63.5 200.833-63.5 200.833c-3.738 0-24.313-1.399-24.313-8.007 0-8.77 65.146-196.16 67.146-202.826s-.029-96.777-.029-96.777l36.384-1.414zm40 2.667s-10.356 87.523-18.356 104.19-73.354 206.506-74.346 209.173c-.99 2.667 30.344 14 30.344 14s74.67-216.507 74.67-223.173 24.354-104.19 24.354-104.19h-36.666zm70 3.333s-11.022 96.858-15.688 108.191c-4.668 11.333-84.675 215.229-82.157 221.895s26.518 8 26.518 8 80.308-219.229 80.974-223.229 10.354-108.857 9.688-114.857c-.669-6-19.335 0-19.335 0zm49.478-1.741s-1.871 180.083-20.538 257.417c4.417-2.916 36.751-40.823 36.751-40.823s9.046-50.79 18.38-214.79l-34.593-1.804zm53.374 2.001s17.369 175.128 18.037 208.462c10.589.537 17.922 2.227 17.922 2.227l19.336 2.993s-2.335-21.091-8.002-46.758-12.834-84.325-12.834-90.992.534-68.399-3.059-75.398c-2.174-1.929-31.4-.534-31.4-.534zm61.209-2.334s.25 50.934 4.584 70.601c4.332 19.667 4.998 45.334 7.666 54.667 2.666 9.333 11.666 33 19 54s50.5 99.731 46.167 167.065c.833 1.796 28.921-10.895 28.921-10.895s-8.422-84.171-69.088-213.505c-3.334-16.333-11.668-67.666-11.668-73.333s.136-32.513-.165-40.268c-.311-8.03-25.417-8.332-25.417-8.332zm51.991 3.477s29.925 132.455 54.591 181.122c20 43.339 28.111 136.422 27.111 141.422s35-12.667 35-12.667-3.443-99.416-55.443-194.083c-9.668-17-22.25-102.271-22.25-114.271-5.024-.731-39.009-1.523-39.009-1.523zm79.747 2.662s15.513 100.133 21.847 114.133c6.332 14 51 127.666 41.666 176.666-8.334 20 35-7.59 35-7.59s-10.334-90.743-55-173.743c-4.666-9-8.423-96.59-5.757-107.923-.354-2.744-37.756-1.543-37.756-1.543z"/><path id="sd1" fill="#58791A" d="M1785 2070l-489.668 8.668v80.119l-46 134.547s86 84.666 125.334 86.666c13.332 1.334 113.084-118 113.084-118s-24.499-56.084-5.165-102.75c4.666 26 21.165 75.899 27.165 81.899 9.83 2.75 58.75 0 58.75 0s39.417-59.977 39.417-66.546-2.499 68.647-18.499 96.647c-.25 2.5-9.5-12.729-9.5-12.729s-69.425-2.512-75.675-2.262c0 0-9.548-.01-11.743 5.905-10.96 14.223-119.418 130.922-124.168 131.922s-140.207-43.203-140.207-43.203-54.958-21.301-54.958-24.051 62.524-196.046 63.856-199.38c1.334-3.332 6.477-83.953 6.477-83.953l538.923 8.583L1785 2070z" opacity=".4"/><path fill="none" stroke="#000" stroke-miterlimit="10" stroke-width="6" d="M1781.424 2052.17s2.037 52.619 6.779 62.935c37.598 81.792 69.463 209.649 66.797 208.983-2.668-.668-191 69.078-191 66.412s-82.5-129.5-82.5-129.5c-9.374-7.064-86.805-4.5-86.805-4.5s-121.527 135.676-126.361 137.588-184.668-52-192.9-66.668c0-24.92 46.066-152.42 62.066-201.42 8.537-26.144 4.229-83.012 4.229-83.012l539.695 9.182z"/></svg>