<svg xmlns="http://www.w3.org/2000/svg" id="panties" viewBox="0 0 3000 3000"><path id="cl1" fill="#7BAA25" d="M1782.424 2052.084s.196 59.778 7.53 68.446c33.212 74.972 68.71 204.138 66.044 203.47-2.668-.666-190.833 70.5-190.833 67.834s-74.274-120.854-83.331-130.316c-13.043-13.634-87.141-5.018-87.141-5.018L1369.332 2394s-184.666-52-192.899-66.666c.649-11.992 11.269-47.811 23.877-91.113 17.255-59.271 39.855-124.387 39.855-124.387l3.334-68.846 538.925 9.096z"/><path id="cl2" fill="#FFF" d="M1243 2077h540.112s1.333 29.573 5.923 39.939 11.465 26.942 11.465 26.942-221 31.619-287.5 25.119-254-9-263-12-20.03-8.51-20.03-8.51 11.53-23.99 11.53-39.99 1.5-31.5 1.5-31.5zm-55.011 197.953c94.488 46.453 249.512 44.547 249.512 44.547l57.193-63c-165.807-12.5-281.252-59.52-281.252-59.52l-25.453 77.973zm433.532 47.89C1675.541 2333.185 1836 2251 1836 2251l-16.105-54.02c-39.605 32.98-238.396 64.02-238.396 64.02l40.022 61.843z"/><path id="sd1" fill="#58791A" d="M1307.166 2061.5c-3.041 2.741-10.596 13.268-11.834 17.168-6.061 19.091 0 80.119 0 80.119l-46 134.547s86 84.666 125.334 86.666c13.332 1.334 113.084-118 113.084-118s-24.5-56.084-5.166-102.75c4.666 26 21.166 75.899 27.166 81.899 9.829 2.75 58.75 0 58.75 0s39.416-59.978 39.416-66.546-2.498 68.646-18.498 96.646c-.25 2.5-9.5-12.729-9.5-12.729s-69.426-2.512-75.676-2.262c0 0-9.548-.011-11.743 5.903-10.96 14.225-119.418 130.922-124.168 131.922s-140.207-43.201-140.207-43.201-54.958-21.303-54.958-24.053 62.524-196.045 63.856-199.379c1.334-3.332 6.477-83.952 6.477-83.952l93.663 2.194c-.001.003-23.028 9.527-29.996 15.808z" opacity=".4"/><path id="sd2" fill="#FFF" stroke="#000" stroke-miterlimit="10" stroke-width="6" d="M1243 2042.988l538.424 9.182 1.576 24.33h-540z"/><path fill="none" stroke="#000" stroke-miterlimit="10" stroke-width="6" d="M1781.424 2052.17s2.037 52.619 6.777 62.937c37.6 81.792 69.464 209.647 66.798 208.981-2.668-.668-191 69.078-191 66.412s-82.5-129.5-82.5-129.5c-9.375-7.063-86.806-4.5-86.806-4.5s-121.526 135.678-126.36 137.588c-4.834 1.912-184.668-52-192.899-66.668 0-24.92 46.065-152.42 62.065-201.42 8.536-26.144 4.229-83.012 4.229-83.012l539.696 9.182z"/></svg>