<svg xmlns="http://www.w3.org/2000/svg" id="图层_1" viewBox="0 0 3000 3000"><path id="cl1" fill="#C1E3D8" d="M1783.334 2043.334c-3.334 7.916-8.229 23.618-2.334 46.916 6.832 54.252 55.5 168.272 55.5 168.272-8.666 12-143.332 87.633-174 87.979-6-2.316-75.332-88.646-80-87.979-4.666.668-66.56-6.396-87.808 0-4.87 1.472-97.85 80.469-113.192 92.478-29.332 6.666-189.666-65-193-83 9.332-15.334 51.5-147.5 55.5-163.5s-4.666-78.498-4.666-78.498c91.998 7.332 498 20 544 17.332z"/><path id="sd1" fill="#15AB80" d="M1324.268 2029.851s-46.768 118.154-48.768 142.314c-2 24.151-19.813 87 28.854 121 48.668 34 73.479 31.334 99.979 5.78 6.625-7.375 70.834-54.558 70.834-54.558l-26.332-79.895 54.498 69.981 78.834 6.668 49.668-72.314-19.334 78.96s49.484 70.069 64 71.446c12.166 1.153 156.688-60.719 156.688-60.719s-92.36 63.959-168.335 87.827c-12.168-3.166-83.021-87.391-83.021-87.391l-88.332-3.732s-102.5 82.392-111.334 96.225c-5.286 8.277-91-5.951-193.666-79.285 8.5-19.502 40.972-110.197 56.332-171 2.505-27.729-5.652-76.16-5.652-76.16l85.087 4.853z" opacity=".5"/><path id="sd2" d="M1188.5 2272.16l6.129-15.405s6.205-.588 7.205-5.088-1.833-15.667 5.333-23.667 17.166-8.833 21.333-16.5 14.36-22.158-3.153-43.496c0 0 22.487 13.329 11.487 42.329 0 0-1.5 8.5-7.5 14.667s-14.167 8.833-16.167 21-1.5 24.166 10.667 36.333c0 0-5.5-17.287.667-27.227S1234 2242 1238 2239c0 0-13.167.999-18.667 9.333 0 0 2.5-11.166 13.333-17.833s17.333-6 22.333-12.5 8.667-15.959 6-28.729c0 0 10.833 13.229 1.833 33.063s-18.333 24.833-18.333 24.833 14.148-1 21.908-12.333 5.926-19.001 7.926-29.667 7-18.333 11.833-22.833 22.333-12.667 22.333-12.667-19.833 15.5-22.5 25.167-3 15.001-4.167 33.167-5 25.666-10.167 32.666-17.165 16.833-17.165 16.833 16.333-2.667 24.5-12.167 10-19.333 9.833-31.833 1.833-25.666 6-35.333 13.667-16.334 13.667-16.334-3.166 7.334-1.833 16.167.667 25.999-3.167 36.166-14.167 19.168-15.667 26.834.333 11.832 6 12.166 12.283-4.832 16.308-12.666 1.858-15.333 3.025-23 5.833-18.334 13.333-22.167c0 0-8.167 1.501-13 7.667 0 0 3-10.168 13-14.334s9.5-7.666 10.5-10.833-2-14.5-2-14.5 9.667 6.501 4.667 22.167c0 0-2.167 6.666-10.167 14.333s-9.166 19-7.833 22.167 4 11.167 9.833 10.667 3.334-7.167 3.167-9.667-2.167-15.333 8.167-24.833c0 0-6.167 15.5-4 23.833s6.333 18-1.167 28.5-19 15.666-19 15.666-5 4.5-2.167 8 12 .5 17.333-8c0 0-1.833 15 6.167 15.167s17-8 16.833-18.5-4.667-19.833-9.5-29.833-4.167-20.167 0-28.667 19.167-18 19.167-18-16.833 13.833-15.667 27 4.599 19.338 4.599 19.338-.431-13.671.403-20.171 3.667-12.167 8-13.667c0 0-6.5 8.167-2.667 20.5s3.667 18.667 1.833 26.5-.833 25.499 9.167 25.333c0 0 3.667.5 0-11.333s-3.333-19.499-1.5-27.333 9-21.168 18.5-24.834c0 0-14.333 16.047-9.5 27.44s11.166 13.56 13.333 24.56 0 20.5 0 20.5.503-14.162-10.833-19.666c0 0 7.166 14.334 2.333 27.5s-13 17.833-13 17.833 21.833-6.667 25.833-18.5 3.833-18.833 1.167-30-1.341-21.451 3-30.415 14.667-18.418 31-19.418c0 0-23.333 7.5-25.833 26.333S1413 2276.5 1414 2285s-.333 14.666-3.667 20.833-4.479 15.691 0 15.167 7.5-7.167 7.5-7.167-.5-9.834 2.5-15.167 11.521-11.745 14.167-18.833 2.667-13.667 2.667-13.667 8.833 9.834 3.5 29.167l-3.546 6.182-57.454 49.937s-43.575-4.854-72.621-19.569-95.53-42.79-95.53-42.79-22.016-11.273-23.016-16.933zm649.25-12.785l-6.951-6.621s-5.77-.588-6.699-5.088c-.931-4.5 1.704-15.667-4.961-23.667s-15.965-8.833-19.841-16.5-13.356-22.158 2.933-43.496c0 0-20.914 13.329-10.683 42.329 0 0 1.395 8.5 6.975 14.667s13.176 8.833 15.035 21c1.86 12.167 1.396 24.166-9.919 36.333 0 0 5.115-17.287-.621-27.227-5.735-9.939-8.835-13.106-12.557-16.106 0 0 12.247.999 17.362 9.333 0 0-2.326-11.166-12.401-17.833s-16.121-6-20.771-12.5c-4.649-6.5-8.061-15.959-5.58-28.729 0 0-10.075 13.229-1.705 33.063 8.371 19.833 17.051 24.833 17.051 24.833s-13.158-1-20.375-12.333-5.511-19.001-7.371-29.667-6.512-18.333-11.007-22.833c-4.494-4.5-20.771-12.667-20.771-12.667s18.446 15.5 20.926 25.167c2.48 9.667 2.79 15.001 3.876 33.167 1.085 18.166 4.651 25.666 9.455 32.666 4.806 7 15.967 16.834 15.967 16.834s-15.19-2.667-22.786-12.167c-7.598-9.5-9.303-19.333-9.146-31.833.154-12.5-1.706-25.666-5.581-35.333-3.876-9.667-12.711-16.334-12.711-16.334s2.944 7.334 1.705 16.167c-1.24 8.833-.62 25.999 2.946 36.166 3.565 10.167 13.176 19.168 14.57 26.834s-.312 11.832-5.581 12.166c-5.271.334-11.424-4.832-15.168-12.666-3.742-7.834-1.729-15.333-2.812-23-1.088-7.667-5.427-18.334-12.402-22.167 0 0 7.595 1.501 12.091 7.667 0 0-2.789-10.168-12.091-14.334-9.301-4.166-8.836-7.666-9.766-10.833-.931-3.167 1.86-14.5 1.86-14.5s-8.99 6.501-4.339 22.167c0 0 2.013 6.666 9.454 14.333 7.44 7.667 8.525 19 7.285 22.167s-3.72 11.167-9.145 10.667c-5.427-.5-3.102-7.167-2.946-9.667s2.016-15.333-7.597-24.833c0 0 5.736 15.5 3.721 23.833-2.015 8.333-5.889 18 1.087 28.5s17.671 15.666 17.671 15.666 4.65 4.5 2.016 8c-2.637 3.5-11.162.5-16.122-8 0 0 1.705 15-5.735 15.167s-15.811-8-15.656-18.5c.155-10.5 4.34-19.833 8.836-29.833 4.495-10 3.875-20.167 0-28.667-3.876-8.5-17.826-18-17.826-18s15.655 13.833 14.57 27c-1.086 13.167-4.276 19.338-4.276 19.338s.401-13.671-.375-20.171c-.774-6.5-3.408-12.167-7.439-13.667 0 0 6.045 8.167 2.48 20.5s-3.411 18.667-1.705 26.5c1.705 7.833.776 25.499-8.525 25.333 0 0-3.411.5 0-11.333 3.41-11.833 3.101-19.499 1.396-27.333s-8.37-21.168-17.206-24.834c0 0 13.33 16.047 8.834 27.44-4.494 11.394-10.385 13.56-12.399 24.56-2.016 11 0 20.5 0 20.5s-.469-14.162 10.075-19.666c0 0-6.666 14.334-2.17 27.5 4.494 13.166 12.091 17.833 12.091 17.833s-20.308-6.667-24.027-18.5-3.564-18.833-1.084-30c2.479-11.167 1.246-21.451-2.791-30.415s-13.64-18.418-28.832-19.418c0 0 21.701 7.5 24.026 26.333s-5.89 22.667-6.82 31.167c-.93 8.5-2.052 12.667 3.896 16.168 1.986 1.169 2.665 6.691-1.5 6.167-4.166-.524-4.646-4.664-4.646-4.664s.443-7.337-2.347-12.67-10.715-11.745-13.176-18.833c-2.46-7.088-2.479-13.667-2.479-13.667s-7.813 8.668-2.853 28.001l3.166 5.666 54.667 59s35.5-7.792 63.875-20.917c27.92-12.914 87.125-49 87.125-49s24.32-11.216 25.25-16.876z"/><path fill="#28292B" d="M1242.1 2055.616s228.592 28.246 537.26 18.912c-2.021-7.907 1.975-32.191 1.975-32.191s-508.668-7.666-542.944-16.604l3.709 29.883z"/><path fill="none" stroke="#000" stroke-miterlimit="10" stroke-width="6" d="M1781.334 2042.334c0 3.646-4.985 25.113-.74 57.651 13.734 54.313 55.906 158.537 55.906 158.537-8.666 12-143.332 87.632-174 87.979-6-2.317-75.166-86.146-79.5-87.979-4.349-1.836-86.25-5.666-93.5 0-2.687 2.099-94.834 76.31-108 92.478-29.332 6.666-189.666-62.5-193-80.5 9.332-15.334 52-151.5 56-167.5s-7.166-77.998-7.166-77.998c91.998 7.332 498 20 544 17.332z"/></svg>