<svg xmlns="http://www.w3.org/2000/svg" id="panties" viewBox="0 0 3000 3000"><path id="cl1" fill="#EF7A2B" d="M1781 2048.5s-1.572 38.543-.435 51.323c.592 6.634 4.935 26.177 4.935 26.177-15 1.5-78.5 37-89 43s-81.5 57.5-84 65c-22.5 38-77 31.5-84 31s-45.5-4.5-78.5-42.5c-123-93-205.5-103-205.5-103l-7-90.5 543.5 19.5z"/><path id="sd1" fill="#C6CD23" d="M1777.868 2069.98L1309 2084.5l-7.425 51.807-57.075-16.807-7-90.5 543.5 19.5-3.132 21.48zm-292.536 180.233c-16.5-15-35.332-87.713-41.832-106.213-8 12 8.332 81.213 8.332 81.213s50 40 33.5 25zM1604 2184.5s-.969 60.741-5.969 64.741 15.5-13 15.5-13-.031-46.241-7.031-51.741-2.5 0-2.5 0z" opacity=".4"/><path fill="#FFF" stroke="#000" stroke-miterlimit="10" d="M1319.207 2031.556c-8.928 16.075 2.068 67.727 4.023 76.604 1.819 8.26 6.021 19.493 3.663 18.065-3.159-1.911-8.691-7.945-8.691-7.945-23.011-27.582-32.278-87.919-32.278-87.919l33.283 1.195zm-71.262-2.556s-12.46 36.92 21.822 69.061c0 0 2.996 2.624 4.237 0 1.241-2.623-10.182-17.347-10.182-33.946 0-16.601 7.698-33.751 7.698-33.751l-23.575-1.364zm104.914 3.763h-7.466s-11.919 32.13 14.899 63.417c0 0 7.325 9.437 4.594-.993-2.731-10.429-3.974-57.98 3.353-61.333l-15.38-1.091zm355.932 13.821c6.612 14.981-6.236 60.614-8.502 68.455-2.106 7.293-6.457 17.103-4.336 15.972 2.84-1.515 7.991-6.579 7.991-6.579 21.589-23.287 33.524-76.818 33.524-76.818l-28.677-1.03zm41.056 1.936s5.487 15.867 4.394 30.756c-1.092 14.89-11.877 27.374-10.981 29.806.894 2.433 3.64.269 3.64.269 31.575-26.666 23.298-60.565 23.298-60.565l-20.351-.266zm-83.341-2.968c6.073 3.469 1.878 46.04-1.156 55.222s3.882 1.181 3.882 1.181c25.104-26.371 16.978-55.939 16.978-55.939l-6.416-.471-13.288.007zm-250.249-9.425s9.268 60.336 32.278 87.918c0 0 5.533 6.034 8.691 7.945 2.359 1.428-1.844-9.806-3.663-18.064-1.956-8.878-12.952-60.529-4.022-76.604l-33.284-1.195zm-37.978-1.364s-12.46 36.919 21.822 69.06c0 0 2.996 2.624 4.237 0 1.242-2.623-10.182-17.347-10.182-33.946 0-16.601 7.698-33.75 7.698-33.75l-23.575-1.364zm104.914 3.764h-7.467s-11.919 32.13 14.897 63.417c0 0 7.326 9.438 4.595-.993-2.73-10.429-3.974-57.979 3.354-61.332l-15.379-1.092zm103.264 3.856c6.613 14.98-6.235 60.613-8.5 68.453-2.107 7.293-6.457 17.104-4.337 15.973 2.839-1.516 7.991-6.579 7.991-6.579 21.589-23.287 33.524-76.818 33.524-76.818l-28.678-1.029zm41.057 1.935s5.487 15.867 4.394 30.756c-1.092 14.889-11.877 27.374-10.981 29.807.894 2.432 3.64.268 3.64.268 31.575-26.666 23.298-60.564 23.298-60.564l-20.351-.267zm-83.341-2.968c6.073 3.469 1.878 46.04-1.156 55.222-3.034 9.183 3.882 1.182 3.882 1.182 25.105-26.371 16.979-55.94 16.979-55.94l-6.416-.47-13.289.006zm-30.981-1.84h-7.466s-11.919 32.13 14.899 63.417c0 0 7.324 9.437 4.594-.993-2.732-10.429-3.973-57.979 3.352-61.333l-15.379-1.091z"/><path fill="none" stroke="#000" stroke-miterlimit="10" stroke-width="6" d="M1781 2048.5s-1.572 38.543-.435 51.323c.592 6.634 4.935 26.177 4.935 26.177-15 1.5-78.5 37-89 43s-81.5 57.5-84 65c-22.5 38-77 31.5-84 31s-45.5-4.5-78.5-42.5c-123-93-205.5-103-205.5-103l-7-90.5 543.5 19.5z"/></svg>