<svg xmlns="http://www.w3.org/2000/svg" id="panties" viewBox="0 0 3000 3000"><path id="cl1" fill="#E6E6E6" d="M1779.505 2045.84l.995 66.16s-8.396 10.73-5.166 6.002C1674 2268.668 1556 2270.668 1512 2266.668c-122-9.334-275.334-122-275.334-122v-118C1472 2085 1779.505 2045.84 1779.505 2045.84z"/><path id="sd1" fill="#BCBCBC" d="M1778.666 2062.668S1313 2083.5 1286 2084c27.771 39.004 101.727 102.559 189.834 132.5 5.072 1.724-4.777-47.196-3.334-41.999 8.75 31.5 29.806 55.957 35.191 57.333 25.698 6.567 47.053 10.616 73.476 5.333 6.667-1.333 21.333-49.167 22.583-57.417.611-4.034-.833 49.781 3.255 49.605 27.151-1.17 54.416-6.02 81.128-15.514-3.104 5.667-16.133 8.826-16.133 8.826s-83.633 58.416-176.966 43.082c-96.038-28.438-141.534-40.25-258.368-121.082v-118s186.22 59.924 533.72 18.924c9.489-.341 8.28 17.077 8.28 17.077z"/><path id="cl2" fill="#707070" stroke="#000" stroke-miterlimit="10" stroke-width="6" d="M1236.666 2027.668s139.179 29.101 220.174 30.367c80.994 1.271 266.092-2.666 321.876-12.101l1.171 24.899s-133.721 27.666-279.887 22.998c-146.168-4.666-263.334-39.666-263.334-39.666v-26.497z"/><path fill="none" stroke="#000" stroke-miterlimit="10" stroke-width="6" d="M1620.449 2094.362l37.518 138.591m-204.963-141.67l-43.573 149.867m90.569 26.46c10.166-93.558-57.973-138.579-57.973-138.579m-205.361-101.363l2.5 116.832S1390 2258.334 1512 2267.668c44 4 162 2 263.334-148.666 2.504-3.635 5.166-8 5.166-8l-.995-65.162S1472 2086 1236.666 2027.668z"/></svg>