<svg xmlns="http://www.w3.org/2000/svg" id="panties" viewBox="0 0 3000 3000"><path id="cl1" fill="#EBF229" d="M1781 2048.5s-1.572 38.543-.434 51.323c.592 6.634 4.934 26.177 4.934 26.177-15 1.5-78.5 37-89 43s-81.5 57.5-84 65c-22.5 38-77 31.5-84 31s-45.5-4.5-78.5-42.5c-123-93-205.5-103-205.5-103l-7-90.5 543.5 19.5z"/><path id="sd1" fill="#C6CD23" d="M1777.869 2069.98L1309 2084.5l-7.424 51.806-57.076-16.806-7-90.5 543.5 19.5-3.131 21.48zm-292.537 180.233c-16.5-15-35.332-87.713-41.832-106.213-8 12 8.332 81.213 8.332 81.213s50 40 33.5 25zM1604 2184.5s-.968 60.741-5.968 64.741 15.5-13 15.5-13-.032-46.241-7.032-51.741-2.5 0-2.5 0z" opacity=".4"/><path id="cl2" fill="#FFF" d="M1237.5 2029l68.011 2.44s-3.011 80.888 9.489 109.849l-70.5-21.789-7-90.5zm489.997 17.58s20.497 72.408 0 105.414L1785.5 2126l-5.283-33.743.783-43.757-53.503-1.92z"/><path fill="none" stroke="#000" stroke-miterlimit="10" stroke-width="6" d="M1781 2048.5s-1.572 38.543-.434 51.323c.592 6.634 4.934 26.177 4.934 26.177-15 1.5-78.5 37-89 43s-81.5 57.5-84 65c-22.5 38-77 31.5-84 31s-45.5-4.5-78.5-42.5c-123-93-205.5-103-205.5-103l-7-90.5 543.5 19.5z"/></svg>