<svg xmlns="http://www.w3.org/2000/svg" id="图层_2" viewBox="0 0 3000 3000"><path fill="#E52E2E" d="M1782.424 2052.084s.193 59.778 7.527 68.446c33.214 74.972 68.71 204.138 66.044 203.47-2.668-.666-190.833 70.5-190.833 67.834s-74.271-120.854-83.331-130.313c-13.043-13.634-87.141-5.021-87.141-5.021L1369.33 2394s-184.666-52-192.897-66.666c.647-11.989 11.269-47.811 23.877-91.11 17.255-59.271 39.854-124.39 39.854-124.39l3.334-68.846 538.926 9.096z"/><path fill="#426317" d="M1281 2076.5s-4.5 31-13.5 70-54.799 199.473-54.799 199.473l-37.269-18.553s9.867-39.823 15.291-61.351 36.137-107.614 46.296-138.618 5.98-50.951 5.98-50.951H1281zm66 0s-21 130-31 165-47.375 124-47.375 124l56.054 17.39s36.819-112.416 53.819-171.652S1409 2076.5 1409 2076.5h-62zm110.5 0s-25.5 174-30.5 198-3.393 59.968-3.393 59.968l71.083-77.968 21.594-180H1457.5zm99.5 0l-3.481 177.666 28.313 7.354 22.986 35.45 10.682-220.47H1557zm99.5 3s1.5 177 0 219.5 0 78.746 0 78.746l8.09 12.787 75.781-25.992L1714 2076.5l-57.5 3zm91.5-3s5.5 106.89 21 153.194c15.5 46.306 35.825 111.716 35.825 111.716l50.171-17.321s-21.966-92.226-34.937-126.608-32.229-78.675-33.107-84.584c-.878-5.908-3.952-36.396-3.952-36.396h-35z" opacity=".2"/><path fill="#397207" d="M1243 2076.5h540s2.756 29.338 4.109 35.354c1.354 6.016 6.382 15.15 6.382 15.15l-556.472.447s6.979-22.451 5.979-30.451.002-20.5.002-20.5zm-35.684 136.25s75.185 10.75 112.185 14.743 220.005 14.763 275.5 6.023c55.494-8.74 223.849-39.626 223.849-39.626l-15.923-43.861s-181.426 26.471-282.926 31.471-295.131-18.045-295.131-18.045l-17.554 49.295zm-23.808 82.173c21.508 12.422 224.908 57.001 224.908 57.001l50.608-56.303s-15.524-7.621-68.485-15.121c-52.959-7.5-193.121-36.525-193.121-36.525l-13.91 50.948zm453.819 52.546c39.328 2.97 211.016-56.011 211.016-56.011l-15.901-54.612c-37.559 15.347-229.893 56.622-229.893 56.622l34.778 54.001z" opacity=".2"/><path fill="#962C2C" d="M1307.166 2061.5c-3.041 2.741-10.599 13.271-11.834 17.168-6.063 19.094 0 80.119 0 80.119l-46 134.547s86 84.666 125.334 86.666c13.332 1.334 113.084-118 113.084-118s-24.5-56.084-5.166-102.75c4.666 26 21.166 75.899 27.166 81.899 9.826 2.75 58.75 0 58.75 0s39.416-59.978 39.416-66.546-2.498 68.646-18.498 96.646c-.25 2.5-9.5-12.729-9.5-12.729s-69.429-2.512-75.679-2.262c0 0-9.548-.011-11.743 5.903-10.96 14.225-119.418 130.922-124.168 131.922s-140.207-43.201-140.207-43.201-54.958-21.303-54.958-24.053 62.524-196.045 63.856-199.379c1.334-3.332 6.477-83.952 6.477-83.952l93.663 2.191c-.001.006-23.025 9.53-29.993 15.811z" opacity=".4"/><path fill="#8AA32E" d="M1243 2042.988l538.424 9.182 1.576 24.33h-540z"/><path fill="none" stroke="#000" stroke-miterlimit="10" stroke-width="6" d="M1781.424 2052.17s2.037 52.619 6.774 62.938c37.603 81.792 69.464 209.646 66.798 208.979-2.668-.668-191 69.078-191 66.412s-82.5-129.5-82.5-129.5c-9.375-7.063-86.806-4.5-86.806-4.5s-121.526 135.68-126.36 137.588c-4.834 1.912-184.668-52-192.896-66.668 0-24.92 46.063-152.42 62.063-201.42 8.536-26.145 4.229-83.013 4.229-83.013l539.698 9.184z"/><path id="cl1" fill="#E52E2E" d="M1428.758 2006.776c16.405-2.723 49.056 10.345 64.242 13.974 20.926 5 37.309 8.79 37.309 8.79s10.829-11.866 21.302-9.519c10.473 2.347 18.14 8.729 18.14 8.729s37.595-17.218 53.984-20.112c16.39-2.896 46.997-.283 47.201 30.112.206 30.395-11.275 69.844-23.042 72.563-11.766 2.719-51.644-14.563-51.644-14.563s1.75 21.5 30 50.25c11.864 12.074 44.688 42.25 44.112 51.123-.317 4.894-26.702-1.365-36.112 4.877-9.409 6.241-20.475 22.249-27.631 19.769-7.155-2.483-48.02-134.137-48.02-134.137l-14.607-3.347L1529 2188s-3.86 14.623-8.31 13.822-12.308-12.706-26.018-17.022c-13.711-4.317-34.796 9.862-38.423 8.84-3.629-1.021-8.38-4.786-8.38-4.786l65.88-110.569s-25.767 14.653-39.671 18.458c-16.285 4.456-38.461 12.593-41.578 3.008-3.116-9.585-14.04-52.677-14.86-64.75-.82-12.075-1.449-26.141 11.118-28.225z"/><path fill="#8AA32E" d="M1422.5 2011c8.654-10.943 72.5 6.833 109.172 17.181l-2.42 13.225s-66.085-10.905-111.99-5.072c0-.001 1.797-20.985 5.238-25.334zm10.826 90.375c7.129 6.337 24.138 1.188 60.919-11.332 32.261-10.981 34.945-31.427 34.945-31.427-6.39 6.229-103.775 20.933-103.775 20.933s.784 15.49 7.911 21.826zm144.008-57.876c4.624-3.893 91.533-9.362 90.672-12.921-.86-3.558-5.335-15.554-16.614-20.575-23.313-10.379-81.79 16.834-81.79 16.834s3.108 20.554 7.732 16.662zm-3.378 25.638l-1.308 12.436s39.83 26.412 55.935 27.682c16.105 1.27 22.618 11.088 34.159-18.29 0 0-55.981-4.169-88.786-21.828zm-97.283 117.883s33.656-97.687 42.126-106.542c0 0-10.866 3.281-15.632 11.354-4.765 8.074-55.667 97.667-55.667 97.667l7.207 3.578 21.966-6.057zm27.951 2.622s11.918 11.319 14.598 12.146c2.681.825 7.425-6.93 7.425-6.93l17.58-108.15-9.69-8.327-29.913 111.261zm54.21-99.588s41.67 129.355 44.524 131.76c2.854 2.403 9.724.558 9.724.558l4.598-6.662-49.752-127.251-9.094 1.595zm22.53 2.936s28.045 64.973 48.079 85.019 17.777 20.229 17.777 20.229 19.456.983 21.584-.8c2.129-1.784.112-5.569.112-5.569s-66.393-71.132-70.336-84.015c-3.944-12.884-1.246-10.779-17.216-14.864z"/><path fill="none" stroke="#000" stroke-miterlimit="10" stroke-width="4" d="M1539.5 2023.5c22.25-10.75 31.556 4.481 34.991 15.662 3.437 11.184 4.664 51.491-15.409 49.927-20.072-1.563-33.137-17.116-30.348-37.822 2.79-20.708.031-22.581 10.766-27.767zm-30.887 59.989L1447.5 2189.5s5.048 5.667 11 3.75c5.952-1.918 32.665-13.706 41.5-6.25s15.075 11.134 21.902 15.613c6.825 4.479 22.561-117.723 22.561-117.723s-14.686-12.136-35.85-1.401zm50.221 7.565s33.979 117.234 44.929 129.462c10.952 12.229 19.2-19.857 40.107-20.971 20.908-1.114 26.497 3.567 27.063-3.893.565-7.462-79.093-72.292-73.522-97.916-.001.001-27.092-15.294-38.577-6.682zm-27.162-62.874s-57.974-13.625-94.63-21.431c-36.657-7.807-11.373 79.12-4.542 93 6.832 13.88 92.933-16.572 94.549-31.816 2.254-21.262 4.16-26.973 4.623-39.753zm40.977 53.393c.666 7.329 71.521 41.7 82.92 25.871 11.401-15.829 27.027-85.283-2.818-96.944-29.845-11.662-84.203 16.875-84.203 16.875 17.202 17.125 3.306 45.447 4.101 54.198z"/><path fill="#FFF" stroke="#000" stroke-miterlimit="10" stroke-width="6" d="M1654.87 2394.694c-5.306-17.239 9.165-20.682 18.062-25.44 8.896-4.758 20.824-2.912 30.252-11.953s24.448-15.088 35.128-15.746 14.054-8.685 20.639-13.98c6.586-5.297 32.62-16.667 40.732-16.896 8.111-.229 18.828-1.026 25.373-5.461s11.692-12.112 17.899-11.554c6.208.559 10.984-6.926 16.148 4.083 5.163 11.009 3.559 9.642 3.314 22.123s-1.769 18.628-7.684 18.12c-5.914-.509-21.376-3.095-26.609 1.831-5.233 4.928-12.352 10.628-21.019 12.381-8.666 1.754-22.169 2.949-25.927 6.985-3.758 4.038-7.41 8.704-17.752 8.656-10.342-.049-19.946 6.831-26.873 11.679-6.927 4.85-15.376 14.363-20.55 18.002s-14.109 3.262-18.651 3.464c-4.543.202-15.989 9.581-20.71 10.655-4.719 1.073-15.854 2.279-21.772-16.949zm-280.464-2.298c3.868-17.617-10.839-19.854-20.098-23.864-9.259-4.008-20.995-1.187-31.137-9.418-10.142-8.232-25.61-13.022-36.309-12.798-10.698.226-14.723-7.495-21.722-12.23-7.001-4.735-33.886-13.921-41.991-13.481-8.103.441-18.85.528-25.738-3.351-6.889-3.88-12.652-11.107-18.792-10.039-6.141 1.068-11.519-5.997-15.759 5.4-4.238 11.396-2.751 9.9-1.479 22.321 1.271 12.418 3.298 18.419 9.151 17.425 5.852-.995 21.05-4.846 26.672-.369 5.622 4.479 13.187 9.574 21.969 10.606 8.782 1.032 22.338 1.11 26.416 4.824s8.103 8.063 18.407 7.163c10.303-.901 20.443 5.165 27.746 9.425 7.304 4.261 16.509 13.045 21.965 16.245 5.457 3.199 14.332 2.088 18.875 1.916 4.545-.174 16.726 8.229 21.519 8.912 4.795.679 15.992.963 20.305-18.687z"/></svg>