<svg xmlns="http://www.w3.org/2000/svg" id="bra" viewBox="0 0 3000 3000"><path id="cl1" fill="#FFF" d="M1709.013 1474.089c-3.188-1.573-26.531-13.656-49.513-14.089-11.5-5-81-28.5-81-28.5s8.5-24.5 14.5-28-9-11.5-9-11.5-5 2-11 15-9 18-9 18-54-17.5-60-20.5-23.5-12.5-29-12.5-22.5-8.5-26.5-6.5-9-3.109-9-.305c-2.5 4.305-1 14.805-1 14.805s21.5 3 29 7 36.5 10 42.5 15 47.5 12.5 47 16.5-22 43-22 43-24.5-16-62.5 20.5-42.5 68.5-41 77 0 39 21 52.5 39 16 62 14 74-22 84-31 32-12.5 36-12.5 29-3 35.5-1.5 31 5 48.5-13 22.5-28.5 25.5-58c2.719-26.735-31.522-52.649-34.987-55.411zM1641.5 1467c-9 15-6.5 33-6.479 42.543.021 9.543-.521 38.957-.021 48.957s-8.5 19-14 16-13-6.5-26.5-33.5-45-52.5-45-52.5l21.5-44.5c6.5 0 74.5 22.5 70.5 23z"/><path id="sd1" fill="#C2C2C2" d="M1448.216 1530.645S1454.5 1595.5 1515 1611.5s100.5-16.5 114.5-31c8.5 1.5 64.5 20 85 6-6 8-22 15-30 15s-44.5-5.5-53.5 0c-5 1-18.09 1.414-44.295 19.707S1495 1644.5 1484 1643.5s-41.106-.957-50.606-41.457 9.394-59.688 12.106-65.543 2.716-5.855 2.716-5.855"/><path fill="none" stroke="#000" stroke-miterlimit="10" stroke-width="6" d="M1437.5 1400s21.5 3 29 7 36.5 10 42.5 15 47.5 12.5 47 16.5-22 43-22 43-24.5-16-62.5 20.5-42.5 68.5-41 77 0 39 21 52.5 39 16 62 14 74-22 84-31 32-12.5 36-12.5 29-3 35.5-1.5 31 5 48.5-13 22.5-28.5 25.5-58-39-58-35-55.5-23-13.5-49.5-14c-11.5-5-81-28.5-81-28.5s8.5-24.5 14.5-28-9-11.5-9-11.5-5 2-11 15-9 18-9 18-54-17.5-60-20.5-23.5-12.5-29-12.5-22.5-8.5-26.5-6.5-9-3.109-9-.305c-2.5 4.305-1 14.805-1 14.805zm132.5 44l-21.5 44.5s31.5 25.5 45 52.5 21 30.5 26.5 33.5 14.5-6 14-16 .039-39.414.021-48.957c-.02-9.543-2.521-27.543 6.479-42.543 4-.5-64-23-70.5-23z"/></svg>