<svg xmlns="http://www.w3.org/2000/svg" id="bra" viewBox="0 0 3000 3000"><path id="cl1" fill="#FFC4DC" d="M1437.692 1565.857c.227-2.031 8.399-51.045 71.072-65.258 62.674-14.214 91.104-1.938 100.149 0 9.045 1.939 28.428-17.445 36.182-21.321 7.753-3.876 37.476-20.03 68.489 3.876 31.013 23.907 29.72 41.351 32.305 46.521s1.938 42.645-8.399 55.566-29.074 37.474-62.673 35.535-54.274.647-74.95 10.984c-20.676 10.338-47.813 29.721-87.226 22.615-39.413-7.108-82.703-19.385-74.949-88.518z"/><path id="sd1" fill="#FF98BF" d="M1595.344 1501.89s21.969 32.306 21.322 41.353l-29.722-15.508s32.335 25.199 29.735 27.137c-2.598 1.939-14.793 21.323-14.793 21.323l19.948-13.071 6.461 24.701v-24.701s14.861.796 17.446 4.672c2.584 3.877-15.508-16.799-15.508-16.799s4.523-23.262 2.584-29.076c-1.938-5.814-4.523 21.969-7.754 18.738 0 0 0-34.243-5.168-38.768-6.46 3.231-24.551-.001-24.551-.001zm-146.668 48.46c1.128-1.704 25.845 62.025 76.242 72.364 41.353 18.091 85.934-8.398 103.379-22.614 12.957-3.667 74.949 18.737 94.333-.646-8.4 14.215-41.352 22.615-51.689 18.738-10.337-3.876-20.029-1.292-31.66 2.584-14.859 1.938-31.014 1.938-39.413 10.985-10.983 4.521-62.673 32.304-98.209 18.091-44.584-3.878-85.936-49.752-52.983-99.502z"/><path fill="none" stroke="#000" stroke-miterlimit="10" stroke-width="6" d="M1437.692 1567.796c.227-2.031 8.399-51.045 71.072-65.257 62.674-14.215 91.104-1.939 100.149 0 9.045 1.938 28.428-17.445 36.182-21.322 7.753-3.877 37.476-20.03 68.489 3.877 31.013 23.906 29.72 41.35 32.305 46.52s1.938 42.646-8.399 55.566c-10.337 12.924-29.074 37.475-62.673 35.536s-54.274.647-74.95 10.984c-20.676 10.338-47.813 29.722-87.226 22.615-39.413-7.109-82.703-19.387-74.949-88.519z"/></svg>