<svg xmlns="http://www.w3.org/2000/svg" id="bra" viewBox="0 0 3000 3000"><path id="cl1" fill="#341317" d="M1438.386 1394.43s6.667 51.333 6 55c-1.999 8.505-10.333 41.333-12.666 55.667 0 0-8.333 36-7.333 56s14.667 63.334 38.333 75.334 79.334 8.666 86.667 5.666 15.667-8 19-8.334c3.333-.332 12.333.334 18.333 1.334s18.667-3.666 22-6.666 15.667-8.334 21.667-4.334 15.333 4.334 22.333-.666c5.61-2.098 9.666.332 10.333 1.332s8-1.334 12.667-5.666c4.667-4.334 10.001-1.666 13.667-4.334 3.666-2.666 55.333-13 55.333-79.666-2.667-44-65.333-69.667-68.333-72.333s-48.001-29.333-49.334-32c-8.333-5.667-19-25.667-26.333-28.667-2-3.667-18.667 2.333-18.667 2.333s19.667 26.333 30.667 33.333c14.089 8.329 53.333 29.666 58 38.333 0 0 6.042 4.167 4 7.333-7.667 2.167-6.333 15.333-5 19.667s-.333 10 .667 12.668c1 2.666-9 5.666-10 16.332-1 10.668.334 10.334-1 14-1.334 3.668-3 7.334-9.667 8.668-6.667 1.332-12.001 10-11.667 20.334-1 1.666-14.333 14.332-24.333 15-10 .666-26.416-4.666-29.208-9.666s-3.793-13.668-11.459-16.334-13.666-1.332-16.666-5.666-5.001-17.668-8.334-21.334-10.999-13-20.666-14-18-4.332-19-7.666-2.668-19.334-10.334-24.334c-7.667-5-14.333-7.666-19-16.333-6.667-1.667-12.333-48.667-16.667-61-1.667-9-1.667-18.333-2.333-19.333s-21.667-.002-21.667-.002z"/><path id="sd1" fill="#2B1016" d="M1436.72 1489.097s21 94.334 46.667 117.334 47 29 63.667 25.332c16.667-3.666 61.333-13.332 78-31 6.334 2.334 77.334 20.334 109.334-24 0 0 1.791 16.959-72.334 48-3.792-2.875-11.666-2-21.666 2s-9.668-7-16.334-3.666c-11 1.334-18 2.582-29.333 10.25-5.667.334-19.001.416-22.667.416s-20 3.668-23.333 6.668c-6 5-24.333 3.666-32.333 2-8-1.668-18.768.348-21.884 1.506-3.116 1.16-29.2-5.006-37.783-10.174-9.657-10.711-27.25-23.498-32.417-64.332-3.584-40.999 12.416-78.001 12.416-80.334z"/><path fill="none" stroke="#000" stroke-miterlimit="10" stroke-width="6" d="M1437.928 1392.43s6.667 51.333 6 55c-1.999 8.504-10.333 41.333-12.667 55.667 0 0-8.333 36-7.333 56s14.667 63.334 38.333 75.334 79.334 8.666 86.667 5.666c7.334-3 15.668-8 19-8.334 3.334-.332 12.334.334 18.334 1.334s18.666-3.666 22-6.666c3.332-3 15.666-8.334 21.666-4.334s15.334 4.334 22.334-.666c5.609-2.098 9.666.332 10.332 1.332.668 1 8-1.334 12.668-5.666 4.666-4.334 10-1.666 13.666-4.334 3.666-2.666 55.334-13 55.334-79.666-2.668-44-65.334-69.667-68.334-72.333s-48-29.333-49.334-32c-8.332-5.667-19-25.667-26.332-28.667-2-3.667-18.668 2.333-18.668 2.333s19.668 26.333 30.668 33.333c14.088 8.329 53.332 29.666 58 38.333 0 0 6.041 4.167 4 7.333-7.668 2.167-6.334 15.333-5 19.667 1.332 4.334-.334 10 .666 12.668 1 2.666-9 5.666-10 16.332-1 10.668.334 10.334-1 14-1.334 3.668-3 7.334-9.666 8.668-6.668 1.332-12.002 9.998-11.668 20.332-1 1.668-14.332 14.334-24.332 15-10 .668-26.416-4.666-29.209-9.666-2.791-5-3.793-13.668-11.459-16.334s-13.666-1.332-16.666-5.666-5-17.668-8.334-21.334c-3.332-3.666-10.998-13-20.666-14-9.666-1-18-4.332-19-7.666s-2.668-19.333-10.334-24.333-14.333-7.666-19-16.333c-6.667-1.667-12.333-48.667-16.667-61-1.667-9-1.667-18.333-2.333-19.333s-21.666-.001-21.666-.001z"/></svg>