<svg xmlns="http://www.w3.org/2000/svg" id="bra" viewBox="0 0 3000 3000"><path id="cl1" fill="#2C2A2B" d="M1736.17 1511.227c-.645-3.223-9.023-17.403-31.907-17.082-3.221-6.122-5.8-13.857-14.824-14.824s-14.825 3.545-18.05 3.545c-3.221 0-10.313-4.461-18.37-3.681-8.057.78-15.146-4.698-34.485 13.028 0 0-5.478 9.024-20.948 7.412-15.469-1.611-30.295-5.157-38.674-1.611-8.381 3.545-14.827 2.257-23.527 12.57-13.435 3.865-21.271-.967-29.33 0-8.056.966-21.271 5.479-35.451 25.783-12.248 10.313-17.67 2.95-24.818 9.667 0 0-11.923 9.347-15.147 19.016-3.224 9.668-3.224 27.074 11.602 48.989 14.825 21.915 42.22 25.46 42.22 25.46s29.007 10.315 68.648 0c11.602-6.445 45.121-19.982 56.077-24.493 10.96-4.513 32.874-4.511 38.999-2.901 6.122 1.611 38.352 3.546 52.855-11.28 11.602-7.735 28.038-20.949 33.517-54.79 5.48-33.84 2.259-31.585 1.613-34.808zm-115.702 63.171s-32.229-19.66-41.898-35.131c-9.023-10.635-9.99-17.727-6.768-28.04 3.224-10.313 35.91-.965 38.742.323 2.832 1.289 2.188-.323 2.188-.323s14.826-17.082 22.239-13.858c7.411 3.223 13.859 8.057 15.146 13.858 1.29 5.803 5.479 22.563-29.649 63.171z"/><path id="sd1" fill="#080707" d="M1448.686 1547.646s9.025 45.766 68.971 66.715c15.47 5.801 46.408 15.793 101.843-25.139 0 0 48.667 16.437 76.706 6.768 28.039-9.668 29.329-28.361 29.973-28.684.645-.322 7.654 29.036-54.18 47.196-23.527.967-37.44-6.419-49.688-.617-15.791 3.223-55.587 18.079-64.933 24.524-9.346 6.446-50.679 7.929-60.67 5.671-9.99-2.256-41.293-5.817-48.707-19.69-7.412-13.871-25.097-32.914-17.362-59.342 5.477-19.013 18.047-17.402 18.047-17.402z"/><path fill="none" stroke="#000" stroke-miterlimit="10" stroke-width="6" d="M1445.785 1547.969s-11.923 9.347-15.147 19.015c-3.224 9.669-3.902 27.55 11.602 48.99 13.145 18.178 30.121 24.109 42.22 26.459 16.847 3.271 42.873 7.233 68.648-1 12.643-4.038 45.121-19.981 56.077-24.492 10.96-4.514 32.709-3.641 38.999-2.901 8.323.979 38.352 3.544 52.855-11.281 11.602-7.735 28.038-20.948 33.517-54.789 5.48-33.841 2.257-31.586 1.613-34.808-.646-3.223-9.025-17.403-31.907-17.082-3.223-6.123-5.801-13.858-14.826-14.824-9.024-.967-14.823 3.544-18.048 3.544-3.221 0-10.313-4.46-18.37-3.68-8.057.78-15.146-4.698-34.485 13.028 0 0-5.478 9.023-20.948 7.413-15.469-1.612-30.295-5.158-38.674-1.612-8.381 3.545-14.827 2.257-23.527 12.57-13.435 3.865-21.271-.968-29.33 0-8.056.967-21.271 5.478-35.451 25.781-12.248 10.313-17.67 2.953-24.818 9.669zm167.882-35.254s13.37-14.963 21.305-13.411c9.528 1.863 13.856 8.058 15.146 13.858s5.479 22.561-29.649 63.17c0 0-31.135-20.401-41.898-35.13-8.229-11.261-12.514-18.889-6.768-28.04 7.531-11.995 35.91-.967 38.742.323 2.288 2.016 3.122-.77 3.122-.77z"/></svg>