<svg xmlns="http://www.w3.org/2000/svg" id="bra" viewBox="0 0 3000 3000"><path id="cl1" fill="#2C2C2C" d="M1748.144 1510.454c-2.094-11.412-33.52-49.69-83.094-53.912 0 0-88.477-30.293-90.313-30.832 1.686.533 6.654-17.676 8.98-20.001 2.332-2.333 6-10.333 7.666-11s-4-9.333-5.666-8.333c-1.668 1-8-.334-22.334 32.666 0 0-105-37-113.667-40s-6 0-6 0l-.167 12s106.582 40.444 111.785 40.561c-.688 1.661-2.969 10.124-6.285 13.439-4 4-16.125 24.25-17.625 25.25s-20.041-12.25-40.375-1.75c-28.5 13-44.383 16.74-61.5 52-6.137 12.643-1.5 38.5 0 44.5s12.445 34.124 21 42c5.5 7.5 24.5 21 45.5 24s32.5 3 45.5 0 44-10.5 56.5-21.5c15-6 52-15.5 66-14s40.5 4.5 57.5-13.5c15.5-10 28.5-29.5 29-56 .077-4.938-.978-7.176-2.405-15.588zm-107.426-10.745c4.332 32.667 3 54.333 2.332 65.667-9.334 14.667-23 0-23 0-2.334-4.333-4.664-14.442-20-39.667-26-39.667-57-48.667-57-48.667s26.334-41.667 26.668-43c0 0 75.332 25.333 78.332 27.667-10.334 1.667-8.332 19-7.332 38z"/><path id="sd1" fill="#181818" d="M1447.55 1499.042s3.5 38 24 60.5c8.5 13 42.136 47.5 69.818 47.5 48.682 5 77.682-24 94.182-30.5 10 4 59.5 10 68.5 9s18.5-7.5 21-9-15 20.5-37 21-38.5-1.5-50 2.5-30.742 7.191-44.121 12.596c-13.379 5.405-45.379 17.904-56.879 17.904-16.5 3-52-.5-60.5-6s-25.5-14-34-32.5-18-42-12.5-61.5 17.5-31.5 17.5-31.5z"/><path fill="none" stroke="#000" stroke-miterlimit="10" stroke-width="6" d="M1441.869 1392.042s112 42.5 112 40.5-2.5 9.5-6.5 13.5-16 23.5-17.5 24.5-12-14-40.5-1-44.384 16.74-61.5 52c-6.14 12.643-1.5 38.5 0 44.5s12.442 34.124 21 42c5.5 7.5 24.5 21 45.5 24s32.5 3 45.5 0 44-10.5 56.5-21.5c15-6 52-15.5 66-14s40.5 4.5 57.5-13.5c15.5-10 28.5-29.5 29-56 .074-4.938-.979-7.176-2.406-15.588-2.094-11.412-33.521-49.69-83.094-53.912 0 0-92-31.5-90.332-30.833 1.666.667 6.666-17.667 9-20 2.332-2.333 6-10.333 7.666-11s-4-9.333-5.666-8.333c-1.668 1-8-.334-22.334 32.666 0 0-105-37-113.667-40s-6 0-6 0l-.167 12zm126.167 43c-.334 1.333-26.668 43-26.668 43s31 9 57 48.667c15.336 25.225 17.666 35.334 20 39.667 0 0 13.666 14.667 23 0 .668-11.334 2-33-2.332-65.667-1-19 3.648-37.333 7.332-38 3.682-.667-78.332-27.667-78.332-27.667z"/></svg>