<svg xmlns="http://www.w3.org/2000/svg" id="bra" viewBox="0 0 3000 3000"><path id="cl1" fill="#CFC4FF" d="M1612.125 1509.307s33.483-33.535 66.352-24.038c32.869 9.497 56.214 33.832 57.135 42.734.923 8.903-1.239 72.015-55.611 78.246-35.018-2.671-60.011-7.049-83.971 7.196 0 0-37.065 20.518-51.195 22.597-14.13 2.075-50.951 3.218-69.074-12.512-16.281-11.574-23.093-30.364-25.51-42.281 4.608-14.839 4.095-26.461 38.5-50.5 0 0 29.715-27.15 87.112-20.85 5.835 1.78 30.006 4.916 36.262-.592z"/><path id="sd1" fill="#CC98FF" d="M1470.5 1545.5c-.977 29.835.552 66.253 69.25 66 35.59-.131 73.998-21.722 84.75-28.25 0 0 62.25 27.75 93.713-1.037-4.492 12.13-26.485 22.739-27.713 23.037-1.229.295-35.138-2.106-47.25-1.348-13.006-.451-34.241 4.96-46.877 9.406-7.061 2.484-38.029 18.621-41.825 19.859-17.881 5.833-41.964 5.249-59.714-.501-1.547-.624-30.332 14.995-31.333 13.834-7.333-8.5-8.8-11.255-12.805-19.334-.514-1.037 11.193-16.813 10.805-18-.001.001-28.751-31.416 8.999-63.666zm120.897-34.295s22.425 37.688 22.117 35.611c-3.381 0-20.985-9.928-27.766-12.464-2.031.298 26.229 19.885 25.922 21.664-.308 1.781-7.988 18.994-10.444 22.555-2.457 3.563 14.131-11.276 16.896-11.573 2.765-.298 9.521 18.696 9.829 19.882.308 1.188-2.766-21.701-2.766-21.701s19.045 3.599 18.124 3.599c-.922 0-15.666-13.651-16.28-13.651-.613 0 0-28.193-.921-27.599-.923.593-6.759 16.025-6.759 16.025s-6.759-31.16-6.143-32.347c.614-1.188-3.688 2.076-6.451 1.78-2.765-.296-15.358-1.781-15.358-1.781z"/><path fill="none" stroke="#000" stroke-miterlimit="10" stroke-width="6" d="M1612.125 1508.04s33.483-33.536 66.352-24.039c32.869 9.496 52.744 25.153 57.135 42.734 2.169 8.684-1.239 73.283-55.611 79.515-35.018-2.67-53.25-6.25-89.49 9.5 0 0-25.26 16-47.699 20.75-25.561 6.25-59.087-5.517-71.061-16-10.119-8.86-24-30-18.697-50.004 2.764-10.425 12.197-25.246 35.697-39.746 26.893-16.594 53.764-27.337 97-19.25 5.997 1.122 20.118 2.048 26.374-3.46zM1461.5 1611l-10.805 14.701 11.755 22.328 34.226-14.871"/></svg>