<svg xmlns="http://www.w3.org/2000/svg" id="bra" viewBox="0 0 3000 3000"><path id="cl1" fill="#ECAFCE" d="M1440.125 1391.139s20.333-5.333 23.667-2.667c10.333 11.333 19 59 19 59 .667 3.333-3 24.667 6.333 28 16 1.667 21.667 13.333 21.667 16s2.398 15.743 9.666 17c14.668-1.666 28.668 7.666 31.334 10.536 10 6.464 6.334 20.13 14 24.797 15-.667 26 9 30.334 18.667s51.332 12 52-2c.666-14 7.666-22.666 25-24.666-1-13 3-23 8.666-26-1.668-9-5.666-22.667-.666-29.667-5.666-6.333-72-42.333-77-46.667s-23.668-28-23.668-28 23-7.667 25.668-3c3.666 8.333 37.332 36.667 42 42 4.666 5.333 38.666 19.334 41.666 23.001s38.334 13 53.666 43.333c17 34.334 4.668 62.333-6 75.667-8.666 16.667-27.67 19.443-31.332 22.666-3.666 6.666-11.334 9-13.334 8.667s-12.461-5.604-17-2.667c-12.334 10-20.334.667-25.334-1.333s-17.332-5.667-26 5.667c-8.666 11.334-21.666 11.333-25 10.333-3.332-1-15-5.333-18.666-1.333-3.668 4-16.334 17.666-37.666 13.333-5-2.333-16.668-8.333-25.334-6.667-2.334-.334-12.666 7.334-33.667 8.667-21.001 1.333-39.667-16-54.667-44.333s1-76.334 6-92 11.667-40.667 14-52.333"/><path id="sd1" fill="#EC9AC2" d="M1441.125 1496.806c2.667 41.667 14.667 99.667 85 121.667 48.666 18.666 110-30.001 116-34.334 12.666 7.334 81.334 24 99-9 1.666 7-20.332 33.668-29 35.334-8.666 1.666-24 5.332-31.666 3.666-7.668-1.666-11 5.667-13.666 5.667s-14.332-6.334-17.666-6.667-15.666-2-23 6-15.334 10.667-21 10.667c-5.668 0-14.334-3.333-19.334-2.333s-13.666 7-22.666 10-20.668 7.334-25.668 4-16.666-7.667-25.332-3.667c-8.668 4-16.002 6.742-23.334 4.871-7.333-1.871-22.667-.538-26.667-4.871s-26-13.667-33.333-41-2.667-41.333-1.667-51 13.999-46.667 13.999-49z"/><path fill="none" stroke="#000" stroke-miterlimit="10" stroke-width="6" d="M1463.792 1388.473c10.333 11.333 19 59 19 59 .666 3.333-3 24.667 6.334 28 16 1.667 21.667 13.333 21.667 16s2.398 15.743 9.666 17c14.668-1.666 28.668 7.666 31.334 10.536 10 6.464 6.334 20.13 14 24.797 15-.667 26 9 30.334 18.667s51.332 12 52-2c.666-14 7.666-22.667 25-24.667-1-13 3-23 8.666-26-1.668-9-5.666-22.667-.666-29.667-5.666-6.333-72-42.333-77-46.667s-23.668-28-23.668-28 23-7.667 25.668-3c3.666 8.333 37.332 36.667 42 42 4.666 5.333 38.666 19.334 41.666 23.001s38.334 13 53.666 43.333c17 34.334 4.668 62.333-6 75.667-8.666 16.667-27.67 19.443-31.332 22.666-3.666 6.666-11.334 9-13.334 8.667s-12.461-5.604-17-2.667c-12.334 10-20.334.667-25.334-1.333s-17.332-5.667-26 5.667c-8.666 11.334-21.666 11.333-25 10.333-3.332-1-15-5.333-18.666-1.333-3.668 4-16.334 17.666-37.666 13.333-5-2.333-16.668-8.333-25.334-6.667-2.334-.334-12.666 7.334-33.667 8.667-21.001 1.333-39.667-16-54.667-44.333s1-76.334 6-92 11.667-40.667 14-52.333-11.167-63.583-9.333-64c0-.001 20.333-5.334 23.666-2.667z"/></svg>