<svg xmlns="http://www.w3.org/2000/svg" id="bra" viewBox="0 0 3000 3000"><path id="cl1" fill="#9CF5FF" d="M1734.075 1508.29c-6.906-17-18.087-17.667-18.087-17.667s-9.537-1.333-11.51-4.667-12.168-13.666-21.047-11.999c-8.88 1.667-24.006-1-25.651-3.333-25.979-11.333-39.462 8.667-43.078 10.646-3.617 1.979-13.812 9.354-35.846 2.021s-35.517 7.667-35.517 7.667-6.246 9-15.455 6.333c-46.368-3.667-47.354 29-65.77 37-21.704.667-34.529 30.667-34.529 30.667-15.128 63.665 68.729 74.332 68.729 74.332 36.173 5.667 69.716-.667 112.795-32.667 18.418-11 43.738-7 47.354-6.333 3.62.667 28.61 12 49.329-6 38.149-24.667 35.188-69 28.283-86zm-119.827-10.375c.403.314 14.059-13.5 19.732-12.875 11.222-1.75 27.006 9.125 19.607 34.125-7.4 25-22.814 37.625-23.061 38-.247.375-30.46-16.875-55.247-42.5-5.057-6.375-5.92-17.625 6.746-20.375 16.192-1.5 30.798 2.956 32.223 3.625z"/><path id="sd1" fill="#53CBDC" d="M1447.644 1542.291c3.137 4.493 8.222 40.999 71.362 63.999 63.14 23 109.179-33 111.81-34 2.632-1 50.314 20.999 83.528 12.333-3.288 5.667-28.527 19.584-28.527 19.584s-16.444-3.667-24.008-5-38.722-2.417-45.79 2.083c-7.072 4.5-45.137 27.333-51.714 29-9.206 4.833-42.175 11.499-64.373 7.166-27.458-3.499-43.572-12.165-50.478-18.999-6.906-6.834-22.562-18.668-22.709-38.501-.147-19.833 11.692-30.997 20.899-37.665z"/><path fill="none" stroke="#000" stroke-miterlimit="10" stroke-width="6" d="M1428.572 1563.957s12.825-30 34.529-30.667c18.415-8 19.402-40.667 65.77-37 9.208 2.667 15.455-6.333 15.455-6.333s13.481-15 35.516-7.667 32.23-.039 35.846-2.021c3.618-1.98 17.1-21.979 43.08-10.646 1.645 2.333 16.771 5 25.649 3.333 8.88-1.667 19.075 8.667 21.048 12s11.509 4.667 11.509 4.667 11.182.667 18.088 17.667c6.905 17 9.865 61.333-28.28 86-20.719 18-45.712 6.667-49.329 6-3.618-.667-28.939-4.667-47.354 6.333-43.081 32-76.624 38.334-112.797 32.667 0 0-83.858-10.667-68.73-74.333zm185.645-66.029c.402.314 14.058-13.5 19.731-12.875 11.223-1.75 27.007 9.125 19.606 34.125-7.397 25-22.813 37.625-23.06 38-.247.375-30.461-16.875-55.248-42.5-5.055-6.375-5.919-17.625 6.747-20.375 16.193-1.5 30.801 2.957 32.224 3.625z"/></svg>