<svg xmlns="http://www.w3.org/2000/svg" id="bra" viewBox="0 0 3000 3000"><path id="cl1" fill="#232323" d="M1495 1535.5s50.125 50.5 66.994-15.753c24-26.667 39.964-.539 41.631 4.128 0 0 14 15.125 7.5 41.75-1.984 3.995 33.292-4.291 34.125-5.625.833-9.667-14.459-31.065-15.792-41.064-1.333-10 1.417-34.686 18.417-27.686s34.01 16.346 41.677 12.179 8.232-25.307 8.398-27.14 6.217-14.081 21.05 8.086 18.042 41.625 16.875 53.125 4.888 39.13-27.323 55.263c-28.177 14.112-50.052-10.638-55.437-18.665 0-2.001-47.073 9.027-47.74 9.027s-4.5 19.5-24.823 36.138c-27.272 22.326-65.385 13.779-92.552 3.112 0 0-38.494-7.5-43.744-57.25S1495 1535.5 1495 1535.5z"/><path id="sd1" fill="#0F0F0F" d="M1480.675 1532.075s-27.456 42.854 19.878 70.063c44.166 28.624 84.614-1.638 106.947-35.805 0 0 14.333-1.001 17.667-.834s21.167-6 21.667-6.833-9.572-20.206-10.738-21.706 16.759 6.855 19.426 11.521 21.812 22.519 31.979 23.185c32.5 7.832 44.121-11.347 45.954-16.514-.249 13-17.772 38.009-32.652 39.109-9.969.737-30.302 15.737-48.969-22.763 0 0-43.333 11.667-44.666 12s-2.282 12.098-11.948 20.764-24.052 29.882-52.408 29.882c-40.311 0-74.644-16.479-86.644-39.646s-27.918-67.248 24.507-62.423z"/><path fill="none" stroke="#000" stroke-miterlimit="10" stroke-width="6" d="M1491.834 1535.167c22.087 8.808 48.281 45.794 67.333-8.667 13.324-38.086 39.68-9.365 43.006-5.691 7.778 8.592 13.661 19.024 8.206 45.623-1.984 3.995 34.955-5.598 35.788-6.932-6.219-12.596-17.282-38.406-18.615-48.405-1.333-10 7.7-25.371 24.7-18.371s29.633 14.872 37.3 10.705 9.115-30.429 9.281-32.262 15.579 2.428 28.36 25.838c7.209 13.204 12.106 39.766 9.505 56.317-1.795 11.419-15.946 34.134-28.146 39.44-30.052 13.071-48.772-4.031-56.719-21.263 0-2.001-45.381 12.187-46.048 12.187s-4.285 18.813-25.233 35.576c-27.52 22.021-62.718 16.237-92.385 4.237-15.54-6.286-37.061-26.622-42.333-52-10.177-48.98 31.67-42.046 46-36.332z"/></svg>