<svg xmlns="http://www.w3.org/2000/svg" id="bra" viewBox="0 0 3000 3000"><path id="cl1" fill="#FFF" d="M1445.5 1382.5l15.5-3s22.5 12 30.5 32 13.5 16 17.5 27 12 23.5 13.5 27 9.5 16 11.5 32.5 16.668 51.334 19.334 57.667 19.666 37 38.666 42 61.666-2.999 71-56.333c9-21.334-20.333-80.333-28-88.667s-9.333-19-11.333-22.667-43-36-46-35.667 10-4 12.333-3.667 25.666 9.333 47.333 30.667c3.334.333 13.334 3.333 20.334 9s56 38.333 76 71.667c14.666 25.667 9 65.334 0 76.334s-25.333 34.332-74 37.666c-24.667-2.666-33.667-1.334-48.667 6s-48.667 19.334-75 20.667c-47.667 1.667-77.667-9.667-88-18.667s-14.667-62-5.667-84 26.334-91.667 31.667-101.667-4.667-28-7-30.333-21.5-25.5-21.5-25.5z"/><path id="sd1" fill="#A3A3A3" d="M1452.45 1511.166s14.217 132.168 107.217 117.168c0 0 23 0 58.667-23.334 13.666 2 55 4.333 72.333-6 38.333-19 48.871-53.333 51.657-64.665.334-8.333-1.324 19.332-1.324 19.332l-7.333 26.667-28.15 25.393-30.85 10.273-26 .667s-26 1.666-27 2.333-61.762 22.236-61.762 22.236l-48.905 3.098s-40.667-9-42-10-18.333-7-18.333-7-10.333-15-10-16-3.504-22.678-2.83-23.678 1.164-34.05 1.518-34.985c6.666-17.667 13.095-41.505 13.095-41.505z"/><path fill="none" stroke="#000" stroke-miterlimit="10" stroke-width="6" d="M1445.5 1384.5l15.5-3s22.5 12 30.5 32 13.5 16 17.5 27 12 23.5 13.5 27 9.5 16 11.5 32.5 16.668 51.334 19.334 57.667 19.666 37 38.666 42 61.666-2.999 71-56.333c9-21.334-20.333-80.333-28-88.667s-9.333-19-11.333-22.667-43-36-46-35.667 10-4 12.333-3.667 25.666 9.333 47.333 30.667c3.334.333 13.334 3.333 20.334 9s56 38.333 76 71.667c14.666 25.667 9 65.334 0 76.334s-25.333 34.332-74 37.666c-24.667-2.666-33.667-1.334-48.667 6s-48.667 19.334-75 20.667c-47.666 1.667-77.667-9.667-88-18.667s-14.667-62-5.666-84c9-22 26.332-91.667 31.666-101.667s-4.667-28-7-30.333-21.5-25.5-21.5-25.5z"/></svg>