<svg xmlns="http://www.w3.org/2000/svg" id="bra" viewBox="0 0 3000 3000"><path id="cl1" fill="#272727" d="M1459.667 1421.336c-2.667-20.334 1-34.334 1-36.668s6-.332 6.333 10c.333 10.334 4.333 43.668 12 57.668 7.666 14 38.545 50.016 42.333 54 1.568 1.648 0 1.666 7.667 11.666s19 27.334 24 33.666c5 6.334 39.333 23.668 52 30.668s12.667 24 13 25.666c-7.703 7.123-10 10.334-31.667 20.334s-88.667 6.332-125-4.668-31-47-28.667-60.666c1.166-6.832 6.378-37.552 14.667-63.002 8.294-25.469 19.667-45.666 19.667-45.666s-4.667-12.664-7.333-32.998zM1585 1396.002l-3 5.334s11.999 18.666 24.333 24.666S1633 1437.67 1637 1442.336s37.667 17.666 41.667 24.666c17.666 16.334 15 34.668 13 49.334 1 20-1.001 22-14.334 33.334-13.333 11.332-28.667 26-32 39.666s12 20.334 40 19 39.667-27.332 42.667-34c10.667-19 10.001-48 5.667-61.666-4.334-13.668-7.666-33-38-42.334-19.667-15.666-39-24-44-27.332-5-3.334-23.666-18-32-20.334-8.334-2.332-31.667-26.668-31.667-26.668h-3zm32.334 205.666l28.174-5.063M1542 1401.5l-2.375-21.709m-1.792 1.709l1.667 18-21.5 2v-18.166l19.833-1.834zm-65.798 1.332l-1.368 4.668 7.564 4.681 4.561.194.917-1.125.208-4.166-2.042-2.959-9.84-1.293zm96.465-1.957l3.833 10.293 3.792-4.209-1.084-5.75-6.541-.334z"/><path id="sd1" fill="#060606" d="M1448.922 1495.289S1453 1575 1485.5 1596s67.5 33.5 94 25 37.735-21.808 37.735-21.808 7.432 13.808-21.188 24.502c-3.048 1.806-29.714 14.306-91.666 8.215-16.81-2.343-56.858-8.644-63.358-20.644s-8.927-23.086-9.927-26.586 2.479-26.911 2.479-26.911 4.835-22.771 4.835-24.271 10.512-38.208 10.512-38.208z"/><path id="cl2" fill="#E8DDDD" d="M1502 1481c4.75 8.75 16.067 21.676 20.418 27.097 4.854 6.047 20.707 32.403 26.332 40.653 5.808 8.518 12.083 9.918 17.417 12.418s34.083 19.207 34.083 19.207-9.976 5.623-12.75 7.625c-13.167 8.334-21 1-21.5-2s-.5-10-9.5-7-18 5.5-20.5-9.5-3.5-8-20-9-15.5-4-16-25-9.5-19-9.5-21-6 0-15-7.514c-9-7.515 2.375-53.986 2.375-53.986s6.125 7.5 24.125 28zm151.375 96.5s10.959 12.834 20.292 10.168c9.333-2.668 8.334-11.666 8.667-13.334.333-1.666 2.333-8 13.333-3.666 11 4.332 11.333-13.334 11.333-16.668 0-3.332-8.333-10.666 2.667-15 14-5.666.125-38.041-15.542-49.375-4.334.234-.291 38.084-1.625 41.75-1.334 3.668-10.584 15.959-13.25 17.625-2.666 1.668-23.541 24.168-25.875 28.5z"/><path fill="#FFF" d="M1485.167 1365.334c2.833 0 31 20 31 20l-.833 17.666s-28.834 33.668-24.5 19.168c-11-16.5-8.5-39.267-8.5-39.267l-.244-16.567c-.001 0 .243-1 3.077-1zm56.355 11.017l2.311 25.982s27.299 17.854 29.465 20.854 11.096 2.604 11.096 2.604l-7.727-25.459-11.5-36.666-23.645 12.685z"/><path fill="none" stroke="#000" stroke-miterlimit="10" stroke-width="6" d="M1459.667 1421.336c-2.667-20.334 1-34.334 1-36.668s6-.332 6.333 10c.333 10.334 4.333 43.668 12 57.668s38.545 50.016 42.333 54c1.568 1.648 0 1.666 7.667 11.666s19 27.334 24 33.666c5 6.334 39.333 23.668 52 30.668s13.625 22.538 13 25.666c-3.125 5.33-10 10.334-31.667 20.334s-88.667 6.332-125-4.668-31-47-28.667-60.666c1.166-6.832 6.378-37.552 14.667-63.002 8.294-25.469 19.667-45.666 19.667-45.666s-4.667-12.664-7.333-32.998zM1585 1396.002l-3 5.334s11.999 18.666 24.333 24.666S1633 1437.67 1637 1442.336s37.667 17.666 41.667 24.666c17.666 16.334 15 34.668 13 49.334 1 20-1.001 22-14.334 33.334-13.333 11.332-28.667 26-32 39.666s12 20.334 40 19 39.667-27.332 42.667-34c10.667-19 10.001-48 5.667-61.666-4.334-13.668-7.666-33-38-42.334-19.667-15.666-39-24-44-27.332-5-3.334-23.666-18-32-20.334-8.334-2.332-31.667-26.668-31.667-26.668h-3zm32.334 205.666l28.174-5.063m-9.008-.98c9.875-21.5 5.875-28.375-3.875-23.5s.75 24.479.75 24.479m1.969-1.604c-.844-.75-11.219-25.25-18.969-16s-10.125 17.125 16.125 19.25m-23.875 37.25c29.75-15.125 24.375-36.364 24.375-36.364m14.375 32.614c1-21.5-12.031-32.614-12.031-32.614M1469 1388.334l12 5s3 25.666 8 31c5 5.332 26.001-18.668 26.334-19.668s23.666-4.334 26.333-1.666c2.667 2.666 31.667 19.212 34 22.105 2.333 2.895 4.667 1.895 4.667 1.895s7.581 1.332 3.457-8c-1.562-3.53-5.743-19.069-8.541-28-.256-.818 3.63-2.634 3.373-3.463-1.366-4.42-.728-2.396-1.944-6.645-.308-1.07-5.297-.229-5.584-1.255-2.196-7.852-3.761-14.191-3.761-15.973 0-5-24 9.667-26.667 13.667-2.667 7.333-24.333 4-24.333 4s-29.667-18.721-32.334-18.693c-2.667.026-5 2.693-4 8.693s1 12.459 1 12.459l-9.333-1.002-2.667 5.546zm47-6.896v20.875m26-.813l-2.375-21.709"/></svg>