<svg xmlns="http://www.w3.org/2000/svg" id="图层_3" viewBox="0 0 3000 3000"><path id="cl1" fill="#FFF" d="M1734.44 1534.216c-.609-2.783-11.854-14.722-33.525-14.441-3.053-5.291-5.494-11.974-14.041-12.809-8.549-.835-14.043 3.063-17.096 3.063-3.052 0-6.146-7.202-13.777-6.528-6.137.543-12.283 2.523-15.343 7.773.216-1.477-6.346-5.304-6.534-7.842-4.183-56.137-39.421-100.368-39.421-100.368s-11.202-9.563-15.302-4.459c19.434 30.229 29.238 45.147 38.075 79.469-.085.992 7.663 46.335 7.975 50.37-1.979 16.276-5.343 46.762-16.282 45.724-13.918-1.323-39.004-35.628-46.346-45.724-4.89-4.97-12.054-18.969-21.617-32.554-16.608-23.588-73.206-107.49-73.206-107.49l-17.099.323s18.603 17.116 30.425 40.675c12.764 25.436 42.104 60.284 55.838 90.353 2.379 5.207 4.621 8.87 6.735 11.375a35.142 35.142 0 0 0-2.94 2.849c-12.725 3.341-20.146-.836-27.776 0-7.631.835-20.147 4.732-33.579 22.274-11.6 8.909-16.736 2.551-23.504 8.353 0 0-11.294 8.075-14.348 16.429-1.076 2.944-1.77 6.723-1.605 11.205l-.209.011s-4.061 8.156 24.527 67.262c1.126 24.756 124.92 1.319 157.568-5.839 0 0 63.864-8.4 71.467-15.501.824-2.59.271-19.408 2.834-23.167l21.5-15c1.559-4.245 13.048-21.971 14-27.334 5.191-29.239 3.217-35.668 2.606-38.452z"/><path id="sd1" fill="#4C4C4C" d="M1627.531 1624.771l-14.457 12.421s-25.055 17.802-73.896 23.445c-35.344 3.194-84.731-21.845-74.713-1.132 1.125 24.756 124.918 1.318 157.567-5.84 0 0 65.378-9.765 72.981-16.864.822-2.589-37.764-1.809-49.813-4.737-4.681-1.14-17.669-7.293-17.669-7.293zm-168.684-58.777s8.547 39.536 65.323 57.637c14.651 5.012 43.955 13.643 96.461-21.719 0 0 46.094 14.2 72.649 5.848 26.558-8.354 32.942-26.98 33.554-27.26.609-.276 2.084 27.564-56.481 43.252-22.283.837-35.46-5.545-47.06-.532-14.959 2.782-52.648 15.618-61.5 21.188-8.853 5.568-48 6.849-57.465 4.898-9.462-1.949-39.109-5.026-46.132-17.011-7.021-11.986-23.771-28.438-16.444-51.268 5.19-16.427 17.095-15.033 17.095-15.033z"/><path fill="none" stroke="#000" stroke-linecap="round" stroke-linejoin="round" stroke-miterlimit="10" stroke-width="6" d="M1697.863 1613.606c-2.563 3.759-3.541 21.972-4.362 24.562-7.604 7.1-71.466 15.498-71.466 15.498-32.649 7.158-156.442 30.596-157.569 5.841-28.586-59.105-24.525-67.264-24.525-67.264m293.649-56.808c-3.678-3.415-11.004-14.271-32.678-13.991-3.053-5.291-5.494-11.974-14.041-12.809-8.549-.836-14.041 3.063-17.095 3.063-3.052 0-7.455-8.709-15.086-8.036-6.187.547-4.326.459-15.978 7.458.302-2.012-4.215-1.574-3.896-3.87-8.384-46.117-15.214-80.084-44.554-108.75 0 0-8.488-2.76-14.138.471 20.707 20.863 27.328 37.215 34.373 55.529 10 26 13.771 64.177 14.232 67.514 4.768 34.486-6.943 53.365-18.969 52.224-11.911-1.133-29.498-26.381-39.932-41.402-10.602-15.264-9.896-16.02-24.629-36.945-16.604-23.586-74.547-109.588-74.547-109.588h-17.824s24.506 28.172 37.334 51.199c14.937 26.815 37.264 52.183 50.998 82.251 2.705 5.92 5.231 9.842 7.601 12.335-1.224.969-2.485 2.135-3.804 3.559-12.724 3.341-20.146-.836-27.776 0-7.632.835-20.147 4.732-33.578 22.272-11.601 8.911-16.735 2.553-23.505 8.354 0 0-11.294 8.075-14.348 16.429-3.053 8.354-3.051 23.39 10.99 42.321 14.041 18.934 39.987 21.997 39.987 21.997s27.474 8.909 65.019 0c10.99-5.57 42.736-17.264 53.115-21.162 10.379-3.896 31.135-3.896 36.936-2.506 5.8 1.391 35.094 1.597 50.063-9.744 10.252-7.767 26.889-17.105 34.719-45.855 6.421-30.503 2.671-27.753 1.011-32.318h0z"/></svg>