<svg xmlns="http://www.w3.org/2000/svg" id="图层_2" viewBox="0 0 3000 3000"><path id="cl1" fill="#FFC4DC" d="M1464.787 1387.515c7.196 41.303 5.775 98.823 9.775 104.323.722 2.824 46.724-12.139 71.026-2.339 32.194 12.701 35.666 16.942 46.899 28.375 11.599-.713 10.956-.082 20.295 1.625 15.083 3.424 22.242 4.479 20.417-8.17 3-26.696 35.084-29.863 43.584-31.666 10.538-1.199 7.718-13.6 4.416-17.5-15.802-11.299-44.613-20.698-58.917-28.5-12.625-8.75-39.729-35.611-39.729-35.611s15.704-3.413 18.404-2.216c2.697 1.198 24.493 28.101 42.396 38.702 44 23.302 70.303 35 90 59.802 16.303 22 14.604 48.302 13.5 66.302-4.8 29.299-30.8 41.799-49.3 45-21.2 3.299-54.433-9.199-55.331-8.803-4.2 4.303-33.271 16.602-48.271 22.303-15 5.697-57.3 7.799-79.5 9.299-22.192 1.5-63.3-8.5-68.3-11.799-5-3.303-14.843-14.053-20-22.5-7.343-14.303-4.985-31.053-4.5-41 .195-3.995 2-28.5 8.3-46.803 6.308-18.301 17.786-45.655 18.808-56 1.055-10.708-5.541-64.423-5.541-64.423l21.569 1.599zm177.441 209.327l-7.136 4.464-13.815 6.549s-18.835 8.604-25.759 10.688c-7.532 3.049-22.198 4.98-22.198 4.98l-58.862 4.916-27.723-1.848-38.611-9s11.736 28.346 11.838 30.846c92.999 12.303 206.999-2.299 233.896-15.197l3.7-27.6-11.25.473-14.361-1.729-29.719-7.542z"/><path id="sd1" fill="#FF98BF" d="M1436.448 1505.877s3.344 63.802 61.915 85.765c51.2 19.196 75.7 14.3 99 8 23.302-6.304 50-23 51-25s21.7 11.446 62.302 10.3c17.43-.493 30.198-11 35.604-22.8 5.403-11.804-3.803 26.603-34.803 38.8-11.799 4-16.604 3.9-17.299 3.803-.701-.103 1.5.304 2.5 16.304 0 0-24.604-3.899-46.398-1.399-21.803 2.5-66 13.5-79.896 16.399-13.898 2.896-55.398 5.301-56.104 5.5-.702.196-2.602 6.396-2 9.801 0 0-48.301-4-51.396-3.801-.398-2.604-10.818-28.89-16.021-31.89s-14.979-15.313-19.28-27.313c-4.3-12-6.3-41.398-1-61.7 5.293-20.304 11.876-20.769 11.876-20.769z"/><path fill="none" stroke="#563241" stroke-linecap="round" stroke-linejoin="round" stroke-miterlimit="10" stroke-width="6" d="M1443.019 1611.207s14.295 33.382 16.845 37.232c93 12.303 207-2.299 233.9-15.197l1.699-26.196"/><path id="cl2" fill="#FFF" d="M1427.285 1533.998s115.221-33.954 157.221 7.841 12.397-16.108 7.779-19.841c-10.682-8.632-24.107-28.532-62-31.334-21.658-1.602-54.907 3.709-96.371 16.575-3.522 9.493-6.629 26.759-6.629 26.759zm223.775-22.391s34.226-32.943 70.226-24.721c26.851 6.132-37.362-24.723-37.362-24.723l.862 13.5s-10.5 5-24 8.5-33.09 18.17-26.461 21.623c6.628 3.456 16.735 5.821 16.735 5.821z"/><path fill="#181000" d="M1450.045 1392.437l9.59.711c3.235 20.816 4.566 45.021 5.65 64.735 1.444 26.253 2.109 33.815 4.552 37.517 1.016 1.614 2.851 2.883 5.449 2.883 1.472 0 3.442-.396 8.155-1.373 8.636-1.789 24.709-5.119 39.459-5.119 6.063 0 11.371.562 15.774 1.668 20.275 5.092 39.629 15.421 48.157 25.702a5.998 5.998 0 0 0 6.305 1.928c.185-.056.688-.216 1.297-.412.534-.172 1.526-.494 2.09-.666a47.148 47.148 0 0 1 3.806-.161c8.657 0 12.284 2.637 14.026 3.905.599.436 1.164.848 1.905 1.189.073.034.146.067.223.099 3.644 1.511 6.497 2.216 8.981 2.216 4.976 0 7.46-2.9 8.521-4.139.104-.12.242-.281.308-.351a6.01 6.01 0 0 0 2.021-5.179c-.294-2.672-.316-5.046-.066-7.259.969-8.623 6.091-15.244 15.659-20.243 8.468-4.425 18.191-6.313 23.416-7.327.884-.171 1.649-.321 2.279-.454a5.987 5.987 0 0 0 1.125-.358c3.595-1.546 7.859-3.912 8.947-8.527.748-3.178-.271-6.443-3.031-9.708a5.833 5.833 0 0 0-.892-.857l-.369-.284c19.573 10.962 33.558 20.768 45.214 35.417 14.846 20.103 13.375 44.29 12.291 61.971-1.953 11.496-7.733 20.981-17.184 28.197-10.12 7.729-21.366 10.566-27.168 11.569-1.89.327-4.118.492-6.627.492-7.03 0-19.902-1.306-41.306-7.521-1.507-.438-1.962-.57-2.857-.57a5.994 5.994 0 0 0-4.231 1.745c-4.291 2.567-26.087 12.932-49.202 19.494-22.406 6.36-43.464 9.196-68.277 9.196-3.022 0-6.108-.041-9.436-.123l-.146-.002h-.045c-.238.002-.478.004-.721.004-20.514 0-54.986-5.912-64.714-11.098-7.926-4.228-13.11-10.1-17.337-19.638-4.487-10.127-6.169-23.395-4.998-39.434.273-3.735 2.936-26.407 8.984-43.984 1.76-5.106 3.819-10.857 6.002-16.947 5.47-15.267 11.119-31.034 12.857-39.081.875-2.316 1.156-7.926-1.781-36.072a1754.31 1754.31 0 0 0-2.655-23.751m148.934 9.287c1.201 1.187 3.294 3.437 5.189 5.475 8.597 9.244 22.985 24.715 36.133 32.5.082.049.165.096.25.141 3.32 1.759 6.523 3.442 9.644 5.076-12.339-5.957-24.784-12.039-31.967-17.012-7.978-5.521-18.611-17.545-25.286-25.553 2.31-.333 4.506-.587 6.037-.627m-155.763-15.81s7.54 60.924 5.54 64.424c-2 10.198-12.5 37.698-18.806 56-6.299 18.303-9.004 41.512-9.296 45.5-.707 9.686-1.199 27.188 5.497 42.303 4.407 9.947 10.221 17.285 20 22.5 11.021 5.876 46.771 11.803 67.536 11.803.258 0 .511-.002.764-.004 3.153.078 6.349.125 9.583.125 20.781 0 43.403-1.898 69.917-9.424 27.648-7.853 52.606-20.604 51.806-21-.016-.008-.019-.012-.011-.012.356 0 25.643 8.091 44.163 8.091 2.73 0 5.313-.177 7.648-.579 18.5-3.201 44.5-15.701 49.3-45 1.104-18 2.805-44.303-13.5-66.303-19.695-24.802-46-36.5-90-59.802-17.904-10.603-39.225-37.362-41.924-38.563-.403-.179-1.123-.255-2.055-.255-5.309 0-17.517 2.468-17.517 2.468s19.558 25.379 32.948 34.649c15.8 10.938 54.432 26.313 65.25 34.75 3.299 3.902 2.254 6.288-3.704 8.852-8.5 1.803-43.073 6.527-46.073 33.225-.313 2.799-.254 5.676.066 8.585-1.317 1.127-1.907 3.011-4.884 3.011-1.494 0-3.591-.476-6.684-1.759-1.29-.598-5.802-5.649-18.453-5.65a53.9 53.9 0 0 0-4.881.23c-.532.114-3.514 1.107-4 1.25-9.946-11.991-30.8-22.54-51.313-27.69-5.292-1.329-11.201-1.849-17.236-1.849-21.364-.001-44.356 6.492-47.614 6.492-.24 0-.373-.036-.39-.112-4-5.5-2.914-63.354-10.109-104.657l-21.568-1.599z"/><path fill="none" stroke="#1E1318" stroke-linecap="round" stroke-linejoin="round" stroke-miterlimit="10" stroke-width="6" d="M1615.815 1519.302c23.682 14.4 13.385-13.083 26.048-13.505 11.503-.384 30.372 10.749 22.872 35.749s-23.125 37.625-23.375 38-38.438-12.188-58.221-42.169c-4.505-6.826-3.208-17.992 9.365-21.77 14.901-4.474 19.978 1.668 23.311 3.695z"/><path fill="#FFF" d="M1616.998 1521.484c21.777 13.057 12.511-10.527 23.974-12.615 10.991-2.001 27.911 10.117 21.015 32.782s-21.267 34.111-21.496 34.451-36.397-11.214-54.591-38.396c-4.145-6.189-4.139-16.838 7.425-20.262 13.702-4.056 20.608 2.203 23.673 4.04z"/></svg>