<svg xmlns="http://www.w3.org/2000/svg" id="图层_1" viewBox="0 0 3000 3000"><path id="cl1" fill="#CFC4FF" d="M1465.393 1387.901c7.195 41.303 5.773 98.823 9.773 104.323.723 2.825 46.725-12.138 71.026-2.338 32.194 12.701 35.666 16.941 46.899 28.374 11.598-.712 10.956-.081 20.295 1.625 15.083 3.424 22.242 4.479 20.417-8.169 3-26.697 35.084-29.864 43.584-31.667 10.538-1.199 7.717-13.601 4.416-17.5-15.802-11.298-44.614-20.698-58.917-28.5-12.625-8.75-39.729-35.611-39.729-35.611s15.703-3.413 18.403-2.216c2.698 1.198 24.493 28.101 42.396 38.702 44 23.302 70.303 35 90 59.802 16.303 22 14.604 48.302 13.5 66.302-4.801 29.301-30.801 41.801-49.301 45-21.199 3.301-54.434-9.197-55.332-8.803-4.199 4.303-33.271 16.604-48.271 22.303-15 5.697-57.3 7.801-79.5 9.301-22.193 1.5-63.3-8.5-68.3-11.801-5-3.303-14.845-14.053-20-22.5-7.345-14.303-4.985-31.053-4.5-41 .194-3.993 2-28.5 8.3-46.803 6.307-18.301 17.786-45.654 18.807-56 1.056-10.708-5.541-64.423-5.541-64.423l21.575 1.599zm177.439 209.325l-7.137 4.464-13.814 6.549s-18.835 8.604-25.76 10.689c-7.531 3.049-22.197 4.979-22.197 4.979l-58.863 4.916-27.722-1.847-38.612-9s11.737 28.345 11.838 30.845c93 12.304 207-2.299 233.897-15.196l3.699-27.601-11.25.474-14.36-1.729-29.719-7.543z"/><path id="sd1" fill="#CC98FF" d="M1437.052 1506.262s3.345 63.801 61.915 85.764c51.199 19.196 75.699 14.301 99 8 23.303-6.304 50-23 51-25s21.699 11.446 62.303 10.301c17.429-.493 30.197-11 35.604-22.801 5.403-11.804-3.803 26.604-34.803 38.801-11.799 4-16.604 3.899-17.299 3.804-.701-.104 1.5.303 2.5 16.303 0 0-24.604-3.898-46.397-1.398-21.804 2.5-66 13.5-79.896 16.398-13.896 2.896-55.396 5.301-56.104 5.5-.702.197-2.603 6.396-2 9.801 0 0-48.302-4-51.396-3.801-.396-2.604-10.817-28.889-16.021-31.889-5.204-3-14.979-15.313-19.28-27.313-4.3-12-6.3-41.397-1-61.7 5.29-20.306 11.874-20.77 11.874-20.77z"/><path fill="none" stroke="#191416" stroke-linecap="round" stroke-linejoin="round" stroke-miterlimit="10" stroke-width="6" d="M1443.623 1611.593s14.295 33.381 16.845 37.232c93 12.305 207-2.3 233.899-15.195l1.698-26.198"/><path fill="#FFF" d="M1427.89 1534.385s115.22-33.955 157.22 7.84 12.398-16.108 7.78-19.84c-10.683-8.631-24.107-28.532-62-31.333-21.659-1.604-54.907 3.708-96.372 16.575-3.523 9.491-6.628 26.758-6.628 26.758zm223.773-22.392s34.228-32.942 70.228-24.722c26.85 6.132-37.363-24.722-37.363-24.722l.863 13.5s-10.5 5-24 8.5-33.091 18.169-26.461 21.623c6.629 3.455 16.733 5.821 16.733 5.821z"/><path fill="#211A1D" d="M1450.649 1392.823l9.591.711c3.235 20.816 4.566 45.021 5.65 64.735 1.442 26.253 2.108 33.816 4.552 37.517 1.016 1.614 2.852 2.885 5.449 2.885 1.471 0 3.441-.396 8.155-1.373 8.636-1.789 24.709-5.12 39.459-5.119 6.063 0 11.37.561 15.773 1.667 20.275 5.092 39.629 15.421 48.156 25.703a6.001 6.001 0 0 0 6.307 1.927c.187-.054.688-.215 1.298-.412.534-.172 1.525-.494 2.091-.666a47.592 47.592 0 0 1 3.806-.161c8.657 0 12.284 2.639 14.026 3.905.599.437 1.163.847 1.904 1.189.072.033.146.066.224.099 3.644 1.511 6.497 2.215 8.979 2.215 4.978 0 7.46-2.899 8.521-4.137.104-.121.241-.282.307-.353a6.004 6.004 0 0 0 2.021-5.179c-.296-2.672-.316-5.046-.067-7.258.969-8.623 6.091-15.245 15.66-20.244 8.468-4.424 18.189-6.313 23.416-7.327.882-.171 1.647-.321 2.277-.454a6.03 6.03 0 0 0 1.127-.357c3.595-1.546 7.857-3.912 8.945-8.527.749-3.178-.271-6.443-3.031-9.708a5.787 5.787 0 0 0-.892-.857l-.369-.284c19.573 10.963 33.56 20.77 45.214 35.418 14.848 20.103 13.377 44.289 12.291 61.971-1.952 11.495-7.731 20.98-17.185 28.197-10.119 7.729-21.365 10.564-27.167 11.568-1.89.327-4.118.492-6.627.492-7.03 0-19.902-1.306-41.306-7.521-1.508-.438-1.962-.568-2.857-.568-1.63 0-3.136.656-4.231 1.744-4.29 2.566-26.086 12.932-49.201 19.494-22.405 6.359-43.464 9.195-68.277 9.195-3.021 0-6.107-.04-9.436-.122l-.147-.002h-.043c-.238.002-.479.003-.722.003-20.514 0-54.986-5.911-64.713-11.097-7.927-4.227-13.111-10.1-17.338-19.636-4.486-10.129-6.169-23.396-4.998-39.435.273-3.735 2.937-26.407 8.984-43.983 1.76-5.107 3.818-10.858 6.002-16.948 5.47-15.267 11.119-31.034 12.857-39.081.875-2.316 1.155-7.926-1.781-36.072a1732.416 1732.416 0 0 0-2.654-23.754m148.933 9.287c1.201 1.188 3.295 3.438 5.188 5.476 8.598 9.243 22.986 24.716 36.134 32.5.082.05.165.096.25.141 3.321 1.759 6.523 3.443 9.645 5.077-12.339-5.957-24.783-12.04-31.967-17.013-7.978-5.521-18.611-17.546-25.285-25.554 2.309-.334 4.505-.587 6.035-.627m-155.761-15.808s7.54 60.923 5.54 64.423c-2 10.199-12.5 37.699-18.806 56-6.299 18.303-9.004 41.513-9.295 45.5-.707 9.688-1.199 27.188 5.496 42.303 4.406 9.947 10.222 17.286 20 22.5 11.021 5.876 46.771 11.803 67.535 11.803.26 0 .512 0 .766-.003a387.2 387.2 0 0 0 9.582.124c20.78 0 43.402-1.896 69.918-9.424 27.646-7.851 52.604-20.604 51.805-21-.014-.007-.019-.011-.01-.011.355 0 25.642 8.09 44.162 8.09 2.729 0 5.313-.176 7.647-.58 18.5-3.2 44.5-15.7 49.301-45 1.104-18 2.806-44.303-13.5-66.303-19.694-24.801-46-36.5-90-59.801-17.903-10.604-39.226-37.363-41.925-38.563-.402-.179-1.123-.255-2.055-.255-5.309 0-17.517 2.468-17.517 2.468s19.557 25.379 32.948 34.65c15.8 10.938 54.432 26.313 65.25 34.75 3.299 3.902 2.254 6.288-3.704 8.851-8.5 1.804-43.073 6.527-46.073 33.227-.313 2.799-.254 5.676.066 8.585-1.317 1.127-1.907 3.01-4.885 3.01-1.494 0-3.591-.475-6.684-1.757-1.29-.599-5.802-5.65-18.453-5.651a53.92 53.92 0 0 0-4.881.231c-.533.112-3.514 1.105-4 1.25-9.946-11.991-30.8-22.54-51.313-27.691-5.293-1.329-11.2-1.848-17.235-1.848-21.363-.001-44.357 6.491-47.614 6.491-.241 0-.373-.035-.39-.111-4-5.5-2.914-63.354-10.109-104.657l-21.567-1.601z"/><path fill="#080C0C" stroke="#140F11" stroke-linecap="round" stroke-linejoin="round" stroke-miterlimit="10" stroke-width="6" d="M1616.418 1519.687c23.683 14.402 13.386-13.083 26.049-13.505 11.503-.383 30.371 10.749 22.871 35.749s-23.125 37.625-23.375 38-38.438-12.188-58.221-42.168c-4.505-6.827-3.208-17.993 9.366-21.771 14.901-4.474 19.978 1.669 23.31 3.695z"/><path fill="#FFF" d="M1617.602 1521.87c21.778 13.059 12.512-10.525 23.975-12.613 10.991-2.001 27.911 10.115 21.016 32.781-6.896 22.664-21.268 34.11-21.496 34.45-.229.341-36.397-11.214-54.591-38.395-4.146-6.189-4.14-16.838 7.425-20.263 13.7-4.056 20.605 2.202 23.671 4.04z"/></svg>