<svg xmlns="http://www.w3.org/2000/svg" id="图层_2" viewBox="0 0 3000 3000"><path id="cl1" fill="#FFF" d="M1459.118 1421.737c-2.667-20.334 1-34.334 1-36.668s6-.332 6.333 10c.333 10.334 4.333 43.668 12 57.668 7.666 14 38.545 50.017 42.333 54 1.568 1.647 50.177.225 70.769 21.583 16.257 16.863 11.845 49.667 24.513 56.667 12.666 7 12.313 18.226 12.646 19.892-7.703 7.123-21.259 13.858-42.926 23.858s-88.667 6.332-125-4.668-31-47-28.667-60.666c1.166-6.832 6.378-37.553 14.667-63.002 8.294-25.47 19.667-45.666 19.667-45.666s-4.669-12.664-7.335-32.998zm125.333-25.334l-3 5.334s11.999 18.666 24.333 24.666 26.667 11.668 30.667 16.334 37.667 17.666 41.667 24.666c17.666 16.334-30.541 43.162-43.043 57.74-11.392 13.282 6.427 26.841-8.674 66.771-4.977 13.156 9.752 26.063 58.383 16.821 27.539-5.232 39.667-27.332 42.667-34 10.667-19 10.001-48 5.667-61.666-4.334-13.668-7.666-33-38-42.334-19.667-15.666-39-24-44-27.332-5-3.334-23.666-18-32-20.334-8.334-2.332-31.667-26.668-31.667-26.668l-3 .002z"/><path id="cl2" fill="#F4E987" d="M1497.834 1507.667c0 11.874-9.701 21.5-21.667 21.5-11.966 0-21.667-9.626-21.667-21.5s9.701-21.5 21.667-21.5c11.966 0 21.667 9.626 21.667 21.5zm26.332 4.156c-11.966 0-21.666 8.805-21.666 19.667 0 10.861 9.7 19.666 21.666 19.666 11.967 0 21.667-8.805 21.667-19.666 0-10.862-9.7-19.667-21.667-19.667zm47.667 24.011c-11.598 0-21 9.402-21 21s9.402 21 21 21 21-9.402 21-21-9.402-21-21-21zm-97.999 4.334c-13.255 0-24 11.118-24 24.833s10.745 24.833 24 24.833 24-11.118 24-24.833-10.745-24.833-24-24.833zm52.982 37.57c-13.265 0-24.018 8.603-24.018 19.215 0 10.611 10.753 19.214 24.018 19.214s24.018-8.603 24.018-19.214c-.001-10.612-10.754-19.215-24.018-19.215zm67.85 10.429c-10.401 0-18.833 8.134-18.833 18.167 0 10.032 8.432 18.166 18.833 18.166 10.402 0 18.834-8.134 18.834-18.166 0-10.033-8.431-18.167-18.834-18.167zm62.863-10.333c-8.483 0-15.361 7.144-15.361 15.957s6.878 15.956 15.361 15.956c8.484 0 15.362-7.144 15.362-15.956 0-8.814-6.878-15.957-15.362-15.957zm2.971-56.667c-9.757 0-17.666 7.984-17.666 17.833 0 9.85 7.909 17.834 17.666 17.834 9.758 0 17.667-7.984 17.667-17.834 0-9.849-7.909-17.833-17.667-17.833zm28.417-38.406c-11 0-19.917 8-19.917 17.869s8.917 17.869 19.917 17.869c10.999 0 19.916-8 19.916-17.869s-8.917-17.869-19.916-17.869zm25.345 39.813c-9.337 0-16.905 8.117-16.905 18.13s7.568 18.13 16.905 18.13 16.905-8.117 16.905-18.13-7.568-18.13-16.905-18.13zm-15.928 42.256c-11.138 0-20.167 8.135-20.167 18.168 0 10.034 9.029 18.169 20.167 18.169 11.137 0 20.166-8.135 20.166-18.169 0-10.033-9.029-18.168-20.166-18.168z"/><path id="sd1" d="M1449.116 1495.689s4.077 79.712 36.577 100.712 67.5 33.5 94 25 49.048-18.774 49.048-18.774-3.881 10.774-32.5 21.469c-3.049 1.807-29.715 14.307-91.666 8.215-16.811-2.343-56.857-8.644-63.357-20.644s-8.928-23.087-9.928-26.587 2.479-26.91 2.479-26.91 4.835-22.771 4.835-24.271 10.512-38.21 10.512-38.21z" opacity=".3"/><path fill="none" stroke="#000" stroke-linecap="round" stroke-linejoin="round" stroke-miterlimit="10" stroke-width="6" d="M1459.118 1421.737c-2.667-20.334.188-28.584.188-30.918s6.813-6.082 7.146 4.25c.333 10.334 4.333 43.668 12 57.668s38.545 50.017 42.333 54c1.567 1.647 43.313-1.077 68.012 18.468 26.429 20.915 9.749 49.564 22.416 56.564s18.123 19.979 17.498 23.108c-3.125 5.33-21.222 18.09-42.926 23.858-23.063 6.131-88.667 6.332-125-4.668s-31-47-28.667-60.666c1.166-6.832 6.378-37.553 14.667-63.002 8.294-25.47 19.667-45.666 19.667-45.666s-4.668-12.662-7.334-32.996zm126.899-23.018l-4.564 3.019s11.999 18.666 24.333 24.666 26.667 11.668 30.667 16.334 37.667 17.666 41.667 24.666c17.666 16.334-27.237 33.016-41.966 55.962-13.834 21.556 1.642 38.804-1.691 52.47-1.581 6.481-12.102 23.883-2.126 30.989 11.052 7.877 37.731 2.614 52.449 1.913 28-1.334 39.667-27.332 42.667-34 10.667-19 11.917-48.534 7.583-62.199-4.334-13.668-10.958-28.164-39.916-41.801-19.667-15.666-39-24-44-27.332-5-3.334-23.666-18-32-20.334-8.334-2.332-28.257-23.169-28.257-23.169l-4.846-1.184z"/></svg>