<svg xmlns="http://www.w3.org/2000/svg" id="图层_3" viewBox="0 0 3000 3000"><path fill="#FFF" d="M1732.431 1503.244c-24.704-23.428-42.954.5-57.914-9.376-1.551-1.023-8.727-8.113-8.918-10.127 4.664-2.391 5.41-9.826.863-13.329-6.127-4.721-18.244-.981-28.306-7.04-.166-.101-20.813-18.118-25.596-25.855-5.159-8.351-12.646-37.17-12.646-37.17h-12.834s13.862 29.744 19.813 38.89c4.95 7.608 22.899 28.176 22.899 28.176.07-.015.705-.024 1.688-.031-6.407 1.893-8.479 7.596-7.967 11.793.907 7.451 15.711 11.678 34.599 7.745.214-.044 3.302 6.007 3.518 5.999 2.231 6.523 6.718 18.485-21.895 55.004-19.723 25.174-17.611 34.055-18.829 39.578-1.875-10.777-10.647-7.252-14.345.246-18.735-69.117-68.135-78.373-99.08-84.83a23.847 23.847 0 0 0 4.756-4.735c-2.969 3.057-7.938 5.065-13.572 5.065-9.095 0-16.467-5.224-16.467-11.666s7.372-11.665 16.467-11.665c9.096 0 16.467 5.223 16.467 11.665 0 .519-.063 1.023-.155 1.523 2.227-6.582-.681-13.141-12.581-14.146l-39.102-87.411-11.001-2.002 42.157 89.646c-17.66 2.861-19.257 21.827-2.097 24.946 1.688 6.754 3.543 5.063-4.71 13.314s-47.646 23.422-46.895 51.934c.75 28.512-2.096 35.957-2.096 35.957l15.403 31.135 23.838-7.955s27.481 18.906 64.208 13.398c37.488-5.623 56.127-35.799 61.188-39.174 5.063-3.377-.495 15.756 9.634 14.914 10.13-.844 9.866-19.414 9.866-19.414s19.673 16.988 60.5 10.5c53.538-8.51 58.559-67.086 49.142-105.502zm-62.69-27.649c-2.588 10.82-18.829 13.275-28.132 13.275-9.304 0-16.481-7.023-16.029-12.913.245-3.189 8.059-8.683 11.222-8.979 9.172-.854 33.916 4.531 32.939 8.617z"/><path id="cl1" fill="#9CF5FF" d="M1736.152 1548.566s-18.02-6.934-49.012 6.924c-41.148 16.764-63.995 41.699-63.995 41.699l1.332 5.947c34.692-27.955 58.077-38.867 77.634-44.623 17.201-5.064 33.729-4.879 33.729-4.879l.312-5.068zm-1.942 18.449s-12.359-10.563-43.351 3.293c-41.151 16.764-53.506 36.094-53.506 36.094l6.093 1.875c36.895-27.447 43.639-31.121 63.193-36.881 17.201-5.064 25.214.803 25.214.803l2.357-5.184zm-6.039 11.963s-18.74-2.527-29.875 2.576c-41.149 16.762-39.539 29.02-39.539 29.02h5.26c29.745-29.928 59.656-24.096 59.656-24.096l4.498-7.5zm8.627-37.912s-.112-4.576.028-6.49c-22.76-7.215-35.542-3.791-45.278-.727-32.246 10.156-71.397 43.977-71.397 43.977l1.772 7.703s45.713-33.602 65.5-39.955c25.202-8.098 49.375-4.508 49.375-4.508zm-1.318-27.349s-28.75-1.314-48.428 4.535c-20.134 5.984-48.955 31.793-48.955 31.793l-9.905 14.912s40.28-31.516 62.125-38.727c23.375-7.721 46.177-1.643 46.177-1.643l-1.014-10.87zm-15.268-18.784s-22.459 3.367-38.058 8.446c-17.059 5.553-20.903 9.094-20.903 9.094l-5.138 11.332s19.81-11.73 33.296-14.674c29.852-6.514 41.168-6.908 41.168-6.908l-10.365-7.29zm-42.689-.663l-14.537 3.517.23 5.918c2.697-4.64 17.701-5.571 17.701-5.571l-3.394-3.864zm44.18 93.531s-9.599 1.268-26.071 8.693c-9.076 4.092-19.273 13.023-19.273 13.023l8.913.678c11.447-11.197 31.923-16.293 31.923-16.293l4.508-6.101zm-117.541-5.432s-47.321-17.773-90.006-11.285c-56.219 7.023-75.5 24.223-75.5 24.223v6.096c51.272-19.389 67.295-22.801 93.392-23.986 22.957-1.045 72.391 10.184 72.391 10.184l-.277-5.232zm1.466 17.769s-42.85-19.146-85.533-12.658c-56.219 7.025-78.371 24.061-78.371 24.061l2.871 6.258c51.272-19.387 67.295-22.801 93.392-23.986 22.956-1.045 63.239 10.846 63.239 10.846l4.402-4.521zm-14.646 15.62s-34.617-13.729-77.302-7.24c-56.22 7.023-64.063 18.678-64.063 18.678l2.106 5.67c51.272-19.389 53.752-16.83 79.849-18.018 22.956-1.045 55.885 5.867 55.885 5.867l3.525-4.957zm-13.405 11.486s-7.79-3.434-48.415-1.668c-56.346 2.445-45.739 5.953-45.739 5.953l6.5 3c16.234-.043 12.41 1.258 38.5.5 22.95-.666 40-2.5 40-2.5l9.154-5.285zm22.458-54.234s1.318-.902 2.032-2.734c-26.469-12.176-58.765-16.977-71.861-16.938-43.021.129-90.146 24.15-90.146 24.15l.058 7.906s61.968-23.801 88.63-23.395c17.658.27 71.287 11.011 71.287 11.011zm-13.938-28.7s-37.291-8.357-63.627-8.428c-26.336-.066-73.615 17.881-73.615 17.881l-11.152 13.213s56.59-19.654 85.959-21.738c31.43-2.236 73.332 15.236 73.332 15.236l-10.897-16.164zm-25.817-23.3s-16.413.273-39.399-.742c-22.986-1.018-42.58 3.508-42.58 3.508l-9.305 10.357s35.463-5.49 53.144-6.223c17.678-.73 57.898 9.207 57.898 9.207l-19.758-16.107zm-21.4-11.879l-44.679.318-6.926 7.764c4.678-3.908 55.97-1.877 55.97-1.877l-4.365-6.205z" opacity=".6"/><path id="sd1" fill="#C2C2C2" d="M1730.578 1569.748c-29.471 32.59-79.491 24.623-102.84 21.133-8.209-1.229-8.961 2.268-11.973 2.916-8.063 1.74-3.616-1.564-28.312 16.953-44.509 28.109-114.628-17.73-135.535-65.178-3.338 4.814-11.433 17.504-11.244 24.613.75 28.514-2.019 35.154-2.019 35.154l15.403 31.133 23.838-7.955s27.482 18.908 64.208 13.398c37.488-5.623 56.127-35.797 61.188-39.174 5.063-3.377-.494 15.758 9.635 14.914s9.865-19.414 9.865-19.414 19.674 16.988 60.5 10.5c15.342-2.435 42.933-13.327 47.286-38.993z" opacity=".5"/><path fill="none" stroke="#000" stroke-linecap="round" stroke-linejoin="round" stroke-miterlimit="10" stroke-width="6" d="M1732.431 1503.244c-24.704-23.428-42.954.5-57.914-9.376-1.551-1.023-8.727-8.113-8.918-10.127 4.664-2.391 6.031-10.829.863-13.329-6.757-3.27-12.063-2.846-20.805-4.966-12.14-2.943-25.343-19.507-33.093-29.317-5.916-7.489-12.649-35.782-12.649-35.782h-12.832s12.655 25.847 17.681 36.713c5.395 11.666 25.032 30.353 25.032 30.353-4.699 2.385-7.566 9.857-5.184 14.169 3.962 7.165 14.614 9.271 33.502 5.338.214-.044 3.302 6.007 3.518 5.999 2.231 6.524 6.718 18.485-21.895 55.004-19.723 25.174-17.611 34.057-18.829 39.578-1.875-10.777-10.647-7.252-14.345.246-18.735-69.117-68.135-78.373-99.08-84.83 10.254-7.69 13.238-22.409-5.087-23.958l-39.102-87.411-11.001-2.002 42.157 89.646c-17.66 2.86-19.257 21.826-2.097 24.945 1.688 6.754 3.543 5.063-4.71 13.314s-44.136 23.547-46.895 51.934c-1.646 16.953-2.096 35.957-2.096 35.957l15.403 31.135 23.838-7.955s27.481 18.906 64.208 13.398c37.487-5.623 56.127-35.799 61.188-39.174 5.063-3.377-.495 15.756 9.635 14.914 10.129-.844 9.865-19.414 9.865-19.414s19.551 16.168 60.5 10.5c57.252-7.926 58.559-67.086 49.142-105.502z"/></svg>