<svg xmlns="http://www.w3.org/2000/svg" id="bra" viewBox="0 0 3000 3000"><path id="cl1" fill="#EBEBEB" d="M1463.725 1389.176c7.196 41.303 5.775 98.824 9.775 104.324.301 1.399 34.898-2.198 59.199 7.602 32.197 12.701 59 42.701 61.697 45 2.701 2.303 21.5 22.303 32 22 6 0 13.201-25.799 16.201-52.5 3-26.697 24.197-35.697 32.697-37.5 10.538-1.199 4.975-6.403 1.674-10.305-15.802-11.297-48.166-24.162-62.469-31.963-12.625-8.75-33.007-36.121-33.007-36.121s15.704-3.413 18.404-2.216c2.7 1.2 24.493 28.101 42.397 38.704 44 23.3 70.303 35 90 59.8 16.303 22 14.604 48.302 13.5 66.302-4.8 29.299-30.8 41.799-49.3 45-21.2 3.299-54.431-9.199-55.331-8.803-4.2 4.303-33.271 16.602-48.271 22.303-15 5.697-57.3 7.799-79.5 9.299-22.195 1.5-63.3-8.5-68.3-11.799-5-3.303-14.843-14.053-20-22.5-7.343-14.303-4.986-31.053-4.5-41 .195-3.995 2-28.5 8.3-46.803 6.305-18.299 17.786-45.655 18.805-56 1.055-10.708-5.541-64.423-5.541-64.423l21.57 1.599zm177.439 209.326l-7.136 4.463-13.815 6.549s-18.835 8.604-25.759 10.691c-7.532 3.049-22.198 4.98-22.198 4.98l-58.863 4.916-27.722-1.846-38.612-9.001s11.737 28.345 11.838 30.845c92.999 12.303 206.999-2.299 233.897-15.197l3.7-27.6-11.25.473-14.361-1.73-29.719-7.543z"/><path id="sd1" fill="#C2C2E5" d="M1438 1489.302s.727 82.037 59.3 104c51.2 19.198 75.7 14.3 99 8 23.301-6.302 50-23 51-25s21.7 11.448 62.301 10.3c17.428-.493 30.199-11 35.604-22.8 5.403-11.802-3.803 26.603-34.803 38.8-11.799 4-16.602 3.9-17.299 3.803-.701-.103 1.5.301 2.5 16.301 0 0-24.603-3.899-46.398-1.399-21.803 2.5-66 13.5-79.898 16.399s-55.398 5.301-56.102 5.5c-.702.199-2.602 6.399-2 9.801 0 0-48.301-4-51.398-3.801-.398-2.601-10.818-28.887-16.021-31.887s-14.979-15.313-19.28-27.313c-4.3-12-6.3-41.398-1-61.7 5.295-20.304 14.494-39.004 14.494-39.004z"/><path id="cl2" fill="#535391" d="M1503.8 1493.802l1.5 49.3 43-34.8 7.801 4.5 4.804 34 29-8c-.105 0-34.405-38.802-86.105-45zM1642 1533l31.8 3-27.5-29.8s-.3-8 4.301-9.8c3.804 1.5 59.5 17.3 59.5 17.3s-39-33.8-37-36.5-19 13.8-20.801 16.5c-1.8 2.7-7 6-6.8 15.3-.5 4.602-1.5 10.302-3.5 22.302V1533z"/><path fill="none" stroke="#000" stroke-miterlimit="10" stroke-width="6" d="M1463.725 1389.176c7.195 41.303 6.109 99.157 10.109 104.657.3 1.399 34.567-2.533 58.867 7.267 32.199 12.7 59 42.7 61.699 45 2.701 2.303 21.5 22.303 32 22 6 0 13.201-25.8 16.201-52.5 3-26.697 24.195-35.697 32.695-37.5 8.954-1.851 7.003-4.948 3.704-8.851-10.818-8.437-49.45-23.811-65.25-34.75-13.392-9.271-32.948-34.65-32.948-34.65s16.87-3.41 19.57-2.213c2.7 1.2 24.02 27.96 41.924 38.563 44 23.3 70.305 35 90 59.8 16.305 22 14.604 48.302 13.5 66.302-4.8 29.3-30.8 41.8-49.3 45-18.5 3.198-52.604-7.899-51.8-7.5.8.398-24.158 13.151-51.805 21-30.642 8.699-56.091 9.879-79.5 9.3-20.642.149-57.142-5.851-68.3-11.8-9.779-5.214-15.592-12.551-20-22.5-6.696-15.112-6.204-32.616-5.497-42.301.292-3.989 2.997-27.199 9.296-45.501 6.305-18.3 16.805-45.8 18.805-56 2-3.5-5.54-64.422-5.54-64.422l21.57 1.599zm-18.633 229.125s11.158 27.949 13.708 31.801c93 12.303 207-2.3 233.9-15.197l1.699-26.199"/></svg>