<svg xmlns="http://www.w3.org/2000/svg" id="bra" viewBox="0 0 3000 3000"><path id="cl1" fill="#EBEBEB" d="M1463.725 1389.177c7.196 41.303 5.775 98.823 9.775 104.323.301 1.399 34.897-2.197 59.199 7.603 32.196 12.701 59 42.701 61.696 45 2.701 2.303 21.5 22.303 32 22 6 0 13.201-25.799 16.201-52.5 3-26.697 24.197-35.697 32.697-37.5 10.538-1.199 4.975-6.403 1.674-10.305-15.802-11.298-48.166-24.162-62.469-31.964-12.625-8.75-33.007-36.12-33.007-36.12s15.704-3.413 18.404-2.216c2.699 1.199 24.493 28.101 42.396 38.703 44 23.301 70.303 35 90 59.801 16.303 22 14.604 48.302 13.5 66.302-4.8 29.299-30.8 41.799-49.3 45-21.2 3.299-54.432-9.199-55.331-8.803-4.2 4.303-33.271 16.602-48.271 22.303-15 5.697-57.3 7.799-79.5 9.299-22.194 1.5-63.3-8.5-68.3-11.799-5-3.303-14.843-14.053-20-22.5-7.343-14.303-4.986-31.053-4.5-41 .195-3.995 2-28.5 8.3-46.803 6.306-18.3 17.786-45.655 18.806-56 1.055-10.708-5.541-64.423-5.541-64.423l21.571 1.599zm177.439 209.325l-7.136 4.464-13.815 6.549s-18.835 8.604-25.759 10.69c-7.532 3.049-22.198 4.98-22.198 4.98l-58.863 4.916-27.722-1.846-38.612-9.001s11.737 28.345 11.838 30.845c92.999 12.303 206.999-2.299 233.897-15.197l3.7-27.6-11.25.473-14.361-1.729-29.719-7.544z"/><path id="sd1" fill="#C2C2E5" d="M1438 1489.302s.728 82.037 59.3 104c51.2 19.197 75.7 14.3 99 8 23.301-6.303 50-23 51-25s21.7 11.447 62.301 10.3c17.429-.493 30.199-11 35.604-22.8 5.403-11.803-3.803 26.603-34.803 38.8-11.799 4-16.603 3.9-17.299 3.803-.701-.103 1.5.302 2.5 16.302 0 0-24.604-3.899-46.398-1.399-21.803 2.5-66 13.5-79.897 16.399-13.898 2.898-55.398 5.301-56.103 5.5-.702.198-2.602 6.398-2 9.801 0 0-48.301-4-51.397-3.801-.398-2.602-10.818-28.888-16.021-31.888s-14.979-15.313-19.28-27.313c-4.3-12-6.3-41.398-1-61.7 5.294-20.304 14.493-39.004 14.493-39.004z"/><path id="cl2" fill="#535391" d="M1465.5 1526.75l-11.748-11.05-15.762 3.414 6.878-14.587-8.117-13.937 15.999 2.034 10.746-12.026 3.009 15.844 14.758 6.503-14.139 7.758-1.624 16.047zm43.868-10.888l3.927-7.616-8.434 1.516-6.03-6.087-1.164 8.489-7.653 3.854 7.715 3.729 1.3 8.47 5.932-6.184 8.457 1.38-4.05-7.551zm-49.073 66.444l5.121-8.629-9.964 1.184-6.624-7.536-1.953 9.842-9.215 3.971 8.757 4.898.929 9.991 7.365-6.814 9.789 2.204-4.205-9.111zm30.242-25.119l21.16-10.515-21.218-10.4-3.462-23.374-16.446 16.967-23.3-3.929 11.053 20.883-10.937 20.945 23.277-4.06 16.541 16.875 3.332-23.392zm26.279 12.346l5.244-8.982-10.319 1.302-6.922-7.763-1.951 10.216-9.521 4.185 9.113 5.013 1.037 10.349 7.583-7.118 10.163 2.212-4.427-9.414zm89.485 4.201l3.412-6.535-7.263 1.267-5.161-5.265-1.039 7.299-6.602 3.281 6.62 3.244 1.081 7.293 5.131-5.294 7.27 1.226-3.449-6.516zm27.911 8.841l6.094-4.24-7.073-2.258-2.149-7.106-4.333 6.029-7.423-.151 4.396 5.984-2.438 7.013 7.05-2.331 5.916 4.485-.04-7.425zm-171.985-118.693l5.64-5.832-8.059-.929-3.804-7.166-3.374 7.377-7.99 1.403 5.974 5.489-1.135 8.033 7.066-3.985 7.289 3.562-1.607-7.952z"/><path fill="none" stroke="#000" stroke-miterlimit="10" stroke-width="6" d="M1463.725 1389.177c7.195 41.303 6.109 99.157 10.109 104.657.3 1.398 34.567-2.533 58.867 7.267 32.198 12.7 59 42.7 61.698 45 2.701 2.303 21.5 22.303 32 22 6 0 13.201-25.8 16.201-52.5 3-26.697 24.195-35.697 32.695-37.5 8.954-1.851 7.003-4.948 3.704-8.851-10.818-8.438-49.45-23.812-65.25-34.75-13.392-9.271-32.948-34.65-32.948-34.65s16.87-3.41 19.57-2.213c2.699 1.199 24.02 27.96 41.924 38.563 44 23.301 70.305 35 90 59.801 16.305 22 14.604 48.302 13.5 66.302-4.8 29.3-30.8 41.8-49.3 45-18.5 3.198-52.604-7.899-51.801-7.5.801.397-24.157 13.15-51.805 21-30.642 8.698-56.091 9.879-79.5 9.3-20.642.149-57.142-5.851-68.3-11.8-9.779-5.214-15.592-12.552-20-22.5-6.696-15.112-6.204-32.616-5.497-42.302.292-3.988 2.997-27.198 9.296-45.5 6.305-18.301 16.805-45.801 18.805-56 2-3.5-5.54-64.423-5.54-64.423l21.572 1.599zm-18.633 229.125s11.158 27.948 13.708 31.801c93 12.303 207-2.3 233.9-15.197l1.699-26.198"/></svg>