<svg xmlns="http://www.w3.org/2000/svg" id="bra" viewBox="0 0 3000 3000"><path id="cl1" fill="#49499A" d="M1443 1390s8 20.7 10.3 52c-.3 16.1-12.699 48.3-19.699 74.3s-13.301 59.7-3.301 79.3c10 19.602 15.7 31 41.7 37.302 26 6.3 78 7 110 0s58.3-22.7 59.7-23.7c1.398-1 40.699 7 53 3 12.3-4 47-20.3 51-61s-11.301-57.3-27.301-70.7c-16-13.398-67-37-77-46.3s-31-35.3-31-35.3l-16.301 4s16.7 23 22 26.698c5.301 3.7 37 23.7 43 32 4.801 5.802 17.7 17.7 16.7 23-1 5.302-39.7 41.302-121 31.7-11.7 0-39.3-7.3-54.7-33-15.3-25.7-35.5-91.898-39.3-93.3s-17.798 0-17.798 0zm18.5 241.3s5.3 19 5.5 23.8c.2 4.802 107.5 5 128.3 0 0 0 88.5-10 96.801-18.5.899-3.1-1-19.5 1.801-24"/><path id="hl1" fill="#7883BE" d="M1461.5 1634.6l3.8 22.5 48 3.802s-1.3-6.802 1.801-9.302 17 1.302 29.5-1.8c12.5-3.1 63.601-11.8 76-15.3s60.199-10 71.199-7.3c4.7-.5 2-12.5 2-12.5"/><path id="sd1" fill="#222673" d="M1443.7 1483s.3 42 9.3 65.7 25 45.3 49 57.3 69 15.3 98.3 4c29.301-11.3 46.301-25.3 46.301-25.3s32 12 55 8.7c23-3.302 38-26.7 38-27.7s-4.699 20.898-22 32.6c-.899 1-12.801 8.5-19.601 11.9-8.6 2.398-5 1.2-6.3 9.7-3 3-6.6 1.6-13.301 3.398-65.199 17.2-124.799 26-213.101 16.4.9.199-2.8-8.301-3-9-.198-.7-13.898-6.602-19.8-13.4s-20.5-14.7-17.4-62.398c7.402-40.1 12.502-60 18.602-71.9m178.8 54.6l36.8-28.5s-4.8 5.802-8 11.302c-3.199 5.5-14.5 23.8-17.8 24.3s15.5 9.5 15.5 9.5-22.5-5.8-26.5-3-35.899 3-40.3 4c-4.401 1 34.8-9.5 34.8-9.5l-29.5-16.5 35 8.398z"/><path fill="none" stroke="#000" stroke-miterlimit="10" stroke-width="6" d="M1443 1390s8 20.7 10.3 52c-.3 16.1-12.699 48.3-19.699 74.3s-13.301 59.7-3.301 79.3c10 19.602 15.7 31 41.7 37.302 26 6.3 78 7 110 0s58.3-22.7 59.7-23.7c1.398-1 40.699 7 53 3 12.3-4 47-20.3 51-61s-11.301-57.3-27.301-70.7c-16-13.3-67-37-77-46.3s-31-35.3-31-35.3l-16.301 4s16.7 23 22 26.698c5.301 3.7 37 23.7 43 32 4.801 5.802 17.7 17.7 16.7 23-1 5.302-39.7 41.302-121 31.7-11.7 0-39.3-7.3-54.7-33-15.398-25.7-35.5-91.898-39.3-93.3s-17.798 0-17.798 0zm18.5 241.3s5.3 19 5.5 23.8c.2 4.802 107.5 5 128.3 0 0 0 88.5-10 96.801-18.5.899-3.1-1-19.5 1.801-24"/></svg>