<svg xmlns="http://www.w3.org/2000/svg" id="bra" viewBox="0 0 3000 3000"><path id="cl1" fill="#454647" d="M1439.916 1387.343S1452 1436.334 1450 1453c-2 16.668-22.668 65.334-22.668 65.334s-15.666 27.332-5.332 61.666 34 44.334 38.332 46.334c4.334 2 56.334 1.334 66.334 0 12 .334 80.666-11.334 103-29.334 11 5 56.332 8.666 65.332 3 9.668-3.332 34.002-15.334 42.334-47 8.334-31.666-16.332-64.666-25-71.332-8.666-6.668-63.332-39.668-70.332-43-20.666-9-41.666-38-44.334-41.668l-15.666 3.334s17 24.332 28.334 31c11.332 6.666 14 6.666 17 9.332s33 25.666 36 39.334c-.813 4.707-34.668 21.666-45.334 22-42.334 15.666-91 8.666-105.666 2.666-19-3-33.041-52.541-53.041-115.207.666-5.334-19.377-2.116-19.377-2.116zM1454 1625.666s8.332 23.666 9 28c.666 4.332 66.322 3.971 69.322 2.971s57.678-7.305 59.678-6.971c2 .332 100.812-21.012 103.144-30.274.793-4.979 1.522-18.06 1.522-18.06-5.834-3.998-98.334-16.498-109.166 12.002"/><path fill="#FFF" d="M1474 1653.332c-.652-.36 28-25 39.334-16 11.332 9 5.332 11.332 11.332 14 6 2.666-44.666 5.332-50.666 2zm173.334-84.666c-3.957 4.11 7 23.332 31 24.666s38.998-31.666 33.666-38.666c-5.334-7-47.666-3.666-64.666 14zm39-100.668c-3.319.305-21.668 21.047-11.334 33.688 10.334 12.646 19.334 12.979 15.666 17.979-3.666 5-18.332 15-10.332 20s39 0 39 0 1.332 4.666 4.332 4.332c3-.332 14.666-6.109 9.334-22.891-3.319-6.563-16-4.881-16.666-11.996-.668-7.113 5-11.447 4.332-13.113-.666-1.665-26.998-28.665-34.332-27.999zm-237.668-51.332s35.334 19 0 65.332c0 0-3.334 5.668-2.666 12.334-.934 3.457-9.668 6.332-11 7.332-1.334 1 16.332-33.666 16-52-.334-18.332-2.334-32.998-2.334-32.998zm26 83.334s-19.332 12.998-22.332 32.998c0 0-18 23.334-20 26-2 2.668-5.668 16.666 5.666 17.334 11.334.666 27.668-3.334 33.334-19s10-14.666 10-16.666 20-18.995 10-40.666c-2.729-5.07-16-1.334-16-1.334l-.668 1.334zm25.334 26.666c-.969.424 6.334 8.407 4.666 10.203-1.666 1.797-4.065 5.797-10.532 12.129-6.468 6.334-39.134 40.666-40.134 52.334s-2.334 15.334 0 17.666c2.332 2.334 8 6.666 13.666 5.334 5.668-1.334 24.666-15 30.334-19.666 5.666-4.668 40-23 53.666-57.668.959-2.476-1-20.666-2.666-20.332-1.666.332-20-12.666-49 0zm61.334 36s-8.494-.334-9.414 5.332c-.92 5.668-4.252 18.002 9.414 19.668 13.664 1.666 29.334-8.666 27-19s-5.313-12.334-12.824-11c-7.51 1.332-14.176 5-14.176 5zm61.666-53.553s-31.334 21.219-27.334 36.219 11.646 13.668 13.489 14.334c1.845.666 41.845.334 48.511-21 6.668-21.334-2-44.437-34.666-29.553zm-14.666 115.467s-27 6.751-21.668 24.418c73-6.333 106.258-28.892 107.926-28.892 1.666 0 .408-12.441.408-12.441-2 1-36.332 8.83-40.666 16.915-7.334-5.582-35.334-8.085-46 0z" opacity=".3"/><path id="sd1" fill="#2A2B2B" d="M1439.332 1490c.824-.873-21 99.666 83.334 114 62.666 5.334 96.666-21.979 108.332-31.152 3.668 2.152 88.002 33.486 105.668-23.179-1.668 19.332-14.297 42-39.647 48-1.584.395-1.687 12-1.687 12l.406 5.332s-73.406.825-90.406 9.579-90.666 20.995-96.666 20.541c-6-.452-1.334 6.548-1.668 8.548-.332 2-44.863 1.221-44.863 1.221s-8.137-30.553-8.137-33.221c0-2.671-17-6.334-32-38.668-15-32.333 11.668-87.001 17.334-93.001zm135.178 31.109c-.844-.441 26.822 8.559 30.49 7.559 3.666-1 32.666-24.629 38.332-26.979 5.668-2.354-6.998 5.979-12.666 16.646-5.666 10.668-15 18.07-16.666 18.534-1.668.466 18.666 7.146 18.666 7.146s-21.666-8.983-65.666 0 32.666-9.017 32.666-9.017l-25.156-13.889z" opacity=".8"/><path fill="none" stroke="#020202" stroke-miterlimit="10" stroke-width="6" d="M1438.89 1387.244S1451 1436.334 1449 1453c-2 16.668-22.668 65.334-22.668 65.334s-16.517 27.601-5.332 61.666c9.138 27.834 33.81 41.889 38.166 43.834 18.668 8.334 58.334 11.668 68.334 10.334 12 .334 76.334-15.334 100-42.334 11 5 57.498 13.832 66.498 8.166 9.668-3.332 34.988-15.091 42.334-47 9.168-39.832-16.332-62.666-25-69.332-8.666-6.668-63.332-41.668-70.332-45-20.666-9-41.666-38-44.334-41.668l-15.666 3.334s17.666 23.312 28.334 31c8.433 6.078 15.166 10.834 18.166 13.5 3 2.668 31.834 21.5 34.834 35.168-.813 4.707-24.168 16.832-45.334 22-43.854 10.702-91 8.666-105.666 2.666-19-3-32.146-52.867-52.146-115.533.668-5.335-20.298-1.891-20.298-1.891zm12.002 231.84s13.606 32.225 14.274 36.559c.666 4.332 85.334 1.229 125.834-5.977 29.536-5.256 100.705-23.27 103.592-29.56.793-4.979 1.074-18.774 1.074-18.774"/></svg>