<svg xmlns="http://www.w3.org/2000/svg" id="bra" viewBox="0 0 3000 3000"><path id="cl1" fill="#ACEA27" d="M1439 1389.668c-.668.332 13 44.666 10.666 50.666-.416 50.416-13.666 71.916-24.332 95-1.668 19-9.75 48.334 11.916 63.666 4.269 3.021 13.297 26.439 13.297 26.439s15.203 30.561 20.397 42.17c12 1.332 96.431-5.786 129.497-13.702 43.554-7.934 91.988-14.939 91.988-14.939l1.303-20.985s-1.955-12.916.279-13.264c15-2.334 41.887-24.077 47.774-42.115 9.563-29.291 4.742-59.04-19.924-83.042-24.668-24-71.86-30.226-79.194-35.892-10.668-2.668-29.666-37.334-36-43.668-11.125.313-15.334 4-15.334 4s21.668 29 27.334 34.334c5.666 5.332 55.649 42.002 52.315 54.002-11.334 19-44.317 30.33-88.649 28.998-44.334-1.334-71-19.334-76-25-11.334-8-42.666-92-47-108.334l-20.333 1.666z"/><path id="sd1" fill="#698E18" d="M1445.25 1487.75c1.483-18.826-13.916 109.25 90.416 121.25 65.334 10 95.334-37.75 95.334-37.75s88.752 42.344 110.752-12.324c0 0-11.168 37.909-47.502 45.574-1.332 2-.934 20.6-.934 20.6s-42.984-9.516-62.316-6.85c-19.334 2.666-75.249 32.584-115.917 30.918-3.024-.102 1.232 15.685 2.898 17.017 1.668 1.334-48.814 3.012-48.814 3.012l-17.333-44.694s-22.333-20.668-26.909-57.041c-4.925-38.461 18.842-60.886 20.325-79.712zm183.082 50.918s27-18 34.668-21.668c7.666-3.666-6.668 3-9.668 13s-10.666 15-13.332 16.334c-2.668 1.334 17 8.334 17 8.334s-27.668-7.334-68.668-2.334 34.334-7.334 34.334-7.334l-27.334-15.332 33 9z"/><path fill="#262626" d="M1453.666 1390.338s13 36 16.334 44.332c3.332 8.334 16.334 63.234 32.666 75.117 16.334 11.884 28.649 23.551 83.157 22.883 54.509-.666 75.968-11.496 88.343-23.836 4.06-4.048 11.834-15 10.192-20.533-2.877-9.703-52.692-47.297-56.358-48.297-5.668-5-30.334-38.668-30.334-38.668l-8.334 2.334s27.679 36.332 31.34 38.332c3.66 2 51.102 31.958 49.768 45.958s-31.773 34.71-72.773 33.376-86.667-12.334-97.667-35.664c-11-23.334-39.002-95.334-39.002-95.334h-7.332zm10.101 263.224s133.733-10.063 172.565-20.229c37.642-9.854 58.158-10.832 58.171-13.166s-.503 15.5-.503 15.5-149.334 33.526-223.056 31.941c-6.666-7.997-7.177-14.046-7.177-14.046z" opacity=".95"/><path fill="none" stroke="#000" stroke-miterlimit="10" stroke-width="6" d="M1440 1389.668c-.668.332 13 44.666 10.666 50.666-1.666 18.668-7.998 58.251-18.166 80.833-33.539 74.487 35.173 109.229 67.5 112 25.907 2.221 47.168 3.999 77.834-8.667 30.666-12.668 50.666-36.5 50.666-36.5s24.667 20.167 65.511 16.719c25.331-4.67 47.946-33.865 50.331-57.219 2.757-27-1.39-45-17.844-63.826-24.668-24-75.498-34.34-82.832-40.006-10.668-2.668-29.666-37.334-36-43.668-11.125.314-15.334 4-15.334 4s21.668 29 27.334 34.334c5.666 5.332 55.166 41.166 51.832 53.166-11.334 19-43.834 31.166-88.166 29.834-44.334-1.334-71-19.334-76-25-11.334-8-42.666-92-47-108.334l-20.332 1.668zm-3.767 207.976c1 .333 31.432 61.855 32.766 68.855s126.668-10.166 132.336-13.166c4-1.334 90.886-13.521 91.218-16.521.334-3 1.249-18.087 1.46-32.095"/></svg>