<svg xmlns="http://www.w3.org/2000/svg" id="图层_2" viewBox="0 0 3000 3000"><ellipse cx="1571.765" cy="1459.5" fill="none" stroke="#141414" stroke-miterlimit="10" stroke-width="14" rx="18.5" ry="12"/><ellipse cx="1571.765" cy="1459.5" fill="none" stroke="#D8C7C7" stroke-miterlimit="10" stroke-width="6" rx="18.5" ry="12"/><path fill="none" fill-rule="evenodd" stroke="#141414" stroke-miterlimit="10" stroke-width="6" d="M1581.932 1397.5s-5.065 63.434-12.167 62c-56.12-11.329-114.607-71.769-114.607-71.769"/><path fill="none" stroke="#E02424" stroke-miterlimit="10" stroke-width="6" d="M1461 1386.302s54.5 56.198 107 68.198c0 0 11.776-21.007 8.448-57.75"/><path fill="#DD3636" d="M1574.911 1462.499c-1.411-.166 2.922 19.333-8.411 24s-66.5 33.667-86.469 62.395c-27.205 39.137-35.501 70.271-35.501 70.271s37.762 51.335 33.866 89.334 94.678 141.742 182.659 113.023c61.445-20.057 62.452-114.652 62.452-114.652s-27.725-27.347-31.699-41.859.395-63.774.395-63.774 31.261-16.71 35.631-30.071c2.417-7.39 18.334-49.999-15.268-67.319-23.585-12.157-61.886-23.477-105.39-29.067 0-.001-30.853-12.115-32.265-12.281z"/><path fill="#B72929" d="M1480.031 1548.894s25.332 40.939 73.234 34.939 70.631-34.939 70.631-34.939 84.604 42.273 106.604-29.061c0 0 12.667 27.999-5.333 54.666s-30.334 23.667-30.334 23.667-29.216 3.432-70.938 6.333c-52.729 3.667-83.729 22-86.063 73.667-2.294 50.772-2.163 100.939 126.504 141.606 0 0-48.504 20.727-107.837-15.273s-76.469-83.495-76.469-83.495 3.136-29.838-7.531-53.838-27.97-48.001-27.97-48.001 21.699-48.543 35.502-70.271z"/><path fill="#F45D5D" d="M1504.837 1524.058l46.658-30.138s35.005 28.058 68.005 15.069 23.694-27.173 37.764-24.082 53.876 8.237 65.689 26.163c0 0-21.279 10.93-58.616 17.43S1565 1523 1532.5 1539s-47.836 3.927-47.836 3.927l20.173-18.869zm185.609 111.772s-22.946 19.21-16.112 58.606-55.487 122.522-131.524 98.429c0 0 72.33 52.229 125.691 26.908 33.509-15.9 54.943-78.402 55.007-112.902-.001 0-34.007-21.538-33.062-71.041z"/><path id="cl1" fill="#FCC670" fill-rule="evenodd" d="M1608.274 1775.133c-4.073.265-10.533 2.59-10.821 10.929-.088 2.503 1.317 7.925 6.662 8.586 4.45.549 7.469-1.467 9.427-4.161.358 8.084-11.286 11.72-17.151 7.302-4.093-3.079-4.29-8.366-5.041-12.569-1.387-7.799-4.865-16.92-10.662-22.987-4.927-5.163-10.473-6.919-15.598-6.588 6.857-17.596-6.879-29.018-18.007-28.296-9.545.616-17.001 8.867-17.267 16.563-.146 4.238 2.059 12.706 10.276 12.176 6.212-.405 11.283-5.04 11.446-9.741.218-6.316-3.022-8.229-7.476-7.942-2.714.176-5.784 3.002-5.87 5.528-.09 2.533.509 5.951 5.832 5.605-2.391 2.551-9.241 2.428-8.952-5.966.18-5.15 5.124-8.265 8.647-8.492 10.015-.646 12.471 6.182 12.262 12.229-.103 2.998-4.17 12.492-14.45 13.157-12.422.803-17.121-5.97-16.767-16.228.416-12.016 7.896-22.981 25.356-24.111 20.844-1.349 28.164 25.57 28.164 25.57 11.616-12.389 21.773-13.916 24.768-14.109 11.578-.749 16.45 13.197 10.926 20.122-.339-5.231-1.902-9.856-7.651-12.091-4.89-1.9-17.531.48-17.978 13.375-.507 14.648 11.243 15.488 16.51 15.147 11.459-.74 20.563-10.14 21.05-24.314.39-11.257-8.406-22.961-23.055-22.015-11.225.728-20.745 7.203-20.745 7.203-.815-.404-12.411-22.822-34.716-21.38-8.556.554-12.844 3.478-16.885 2.881-7.441-1.096-10.797-8.101-10.918-11.464-.197-5.533 4.388-12.281 10.468-12.674 1.451-.095 4.896.854 5.339 3.128-3.579.23-5.503 3.423-5.641 6.593-.255 5.965 4.662 6.731 9.092 6.443 5.084-.33 7.998-6.543 8.099-9.452.234-6.781-3.29-16.795-14.772-16.054-9.503.617-15.614 8.008-15.614 8.008s-6.115-11.313-18.793-10.495c-11.401.738-16.959 11.811-17.136 16.953-.283 8.153 1.886 13.097 8.231 12.687 3.493-.226 6.523-3.005 7.056-6.73.549-3.829-3.693-7.006-.65-10.599 1.218-1.427 4.594-1.459 6.602-.044 3.714 2.61 3.839 7.275 3.686 11.694-.57 16.485 12.889 21.957 20.776 21.447-9.608 7.077-11.024 17.848-11.047 24.895-.052 18.398 14.581 24.415 24.877 23.749 9.439-.609 19.595-6.486 27.365 1.374 5.102 5.164 2.521 13.188-4.601 13.647-7.193.464-6.514-7.63-1.18-7.974-2.045 1.342-2.123 4.565 1.047 4.36 2.085-.136 3.089-1.181 3.186-3.978.089-2.675-2.342-5.308-6.341-4.842-3.342.389-8.363 4.067-8.562 9.81-.357 10.337 6.58 13.682 12.001 13.332 6.888-.445 14.939-2.885 19.099-10.775.842 2.41-1.922 28.526 23.558 26.88 6.43-.417 16.89-8.249 17.228-17.991.38-11.093-5.027-17.935-14.689-17.311zm83.331-269.194c2.056-4.792 11.17-3.754 13.117.34 2.33 4.89-5.81 12.105-8.62 11.482-1.958-.433-6.14-7.992-4.497-11.822zm4.105 15.774c-.232 5.172 14.671 10.994 14.853-1.498.138-9.495-14.719-1.502-14.853 1.498zm-5.598-5.191c3.924-1.642-8.234-19.004-12.496-7.53-1.602 4.315 6.109 9.846 12.496 7.53zm6.471 10.041c-1.54-1.269-5.334-3.696-6.456-2.946-2.834 1.898-2.942 8.787-1.826 10.566 1.793 2.857 7.322 3.49 9.508 1.797 4-3.107 2.565-6.288-1.226-9.417zm-8.671-5.951c-1.657-2.667-11.586-2.282-13.135 1.355-2.294 5.388 5.823 12.321 9.175 9.579 1.277-1.038 4.493-10.089 3.96-10.934zm5.293-1.95c-3.677-4.97-5.012 6.789-.301 2.868 1.076-.889.942-2.005.301-2.868zm-23.267 243.05c2.056-4.792 11.17-3.754 13.117.34 2.33 4.89-5.81 12.105-8.62 11.482-1.958-.434-6.14-7.992-4.497-11.822zm4.105 15.773c-.232 5.172 14.671 10.994 14.853-1.498.138-9.494-14.719-1.502-14.853 1.498zm-5.598-5.19c3.924-1.642-8.234-19.004-12.496-7.53-1.602 4.315 6.109 9.845 12.496 7.53zm6.471 10.041c-1.54-1.269-5.334-3.696-6.456-2.946-2.834 1.898-2.942 8.787-1.826 10.566 1.793 2.857 7.322 3.49 9.508 1.797 4-3.108 2.565-6.288-1.226-9.417zm-8.671-5.951c-1.657-2.667-11.586-2.282-13.135 1.355-2.294 5.388 5.823 12.321 9.175 9.579 1.277-1.039 4.493-10.09 3.96-10.934zm5.293-1.951c-3.677-4.97-5.012 6.789-.301 2.868 1.076-.888.942-2.004.301-2.868z"/><path fill="none" stroke="#141414" stroke-miterlimit="10" stroke-width="6" d="M1574.911 1462.499c-1.411-.166 2.922 19.333-8.411 24s-66.5 34.667-85 60.334c-27.87 38.667-36.97 72.332-36.97 72.332s37.762 51.335 33.866 89.334 82.85 129.171 174.313 115.023c65.037-10.06 70.799-116.652 70.799-116.652s-26.032-26.858-30.007-41.371 2.056-64.89 2.056-64.89 27.907-16.083 32.277-29.444c2.293-7.012 19.443-43.558-9.333-63.666-26.059-18.21-95.298-30.106-117-33.667-.001.001-25.178-11.167-26.59-11.333z"/></svg>