<svg xmlns="http://www.w3.org/2000/svg" id="图层_2" viewBox="0 0 3000 3000"><path fill="#E52E2E" d="M1454.126 1386.302l9.874 2.001s25.222 18.211 39.545 68.038 19.998 81.982 43.975 106.623 48.965 37.178 76.473 30.357 45.91-35.82 45.959-68.82-8.309-49.344-27.81-74.662-53.546-51.119-53.546-51.119l7.411-2.22s58.939 46.331 73.944 67.27c0 0 70.885 20.234 67.217 69.232s-29.01 59.76-51.589 66.879-45.053-3.891-61.077 2.131-63.736 35.654-100.119 29.321-65.216-28.666-66.383-51.833c0 0 28-40.93 39.5-67s-7.248-78.397-43.374-126.198z"/><path fill="#962C2C" d="M1476.432 1544.774s15.137 42.915 103.936 42.987c0 0 19.782 15.379 43.624 5.559s25.61-11.212 32.391-23.279c0 0 56.825 29.674 80.805-25.267 0 0-11.335 57.509-63.678 56.617s-62.998 2.907-76.504 13.508c-7.542 5.919-41.104 17.781-71.413 15.739-19.598-1.32-38.899-10.182-48.179-18.761-1.999-1.848-29.484 10.873-29.484 10.873l-6.507-12.754s21.184-7.817 20.327-12.913c-1.25-7.43-3.599-13.709-3.25-17.083 1-9.666 11.865-23.618 17.932-35.226z"/><path fill="none" stroke="#000" stroke-miterlimit="10" stroke-width="6" d="M1450.167 1386.302h12.667s23.255 24.865 31.255 44.865 21.779 58.5 23.779 75S1528.59 1544.5 1551 1566.5c19.359 19.005 47.834 34 69.167 28s41.333-20.833 47.833-52-4.5-63-12.358-76.06c-5.839-9.704-20.073-23.691-31.976-34.44s-32.969-32.527-35.969-32.193c-3 .332 5.976-3.639 8.31-3.307 2.332.334 21.555 17.471 35.471 28.65s35.576 34.869 42.576 40.537c7 5.666 41.402 12.172 56.068 37.84s3.244 58.306-5.022 70.973-38.807 27.656-65.051 26.669-34.882-1.336-49.882 5.998-26.527 21.938-74.193 23.604-71.14-27.604-77.5-43.782c-5.014-12.754 29.024-51.823 38.026-73.823 9-22-1.569-42.654-11.667-70.333s-34.666-56.531-34.666-56.531z"/><path fill="none" stroke="#000" stroke-miterlimit="10" stroke-width="6" d="M1461.3 1598.238s-3.194 10.391-19.086 12.571l6.787 11.941 26.735-10.515c0 .001-3.798-3.132-14.436-13.997z"/><path fill="#FFF" stroke="#000" stroke-miterlimit="10" stroke-width="4" d="M1509.787 1495.136c3.358-7.154 20.88 1.614 22.076 10.614 1.195 9 4.664 17.25 4.664 17.25s4.002 5.75 7.469 8c3.469 2.25 6.403 5.5 6.67 9.5.268 4 10.938 7.75 16.273 13.25 5.335 5.5 6.936 7.75 9.87 11.75s4.535 10 7.203 12.75c2.667 2.75 13.872 9 19.474 7 5.603-2 13.071-8 17.34-6.75s6.403 1.75 9.604-.25 11.737-6.75 13.604-9.75 3.201-7 7.737-10.25c4.534-3.25 4.001-7.75 3.468-10s.8-11.75 2.134-15.5 2.935-10 0-14.25 0-7.75 0-12.5.8-8.25-.534-11c-1.333-2.75-3.393-9.515-1.066-11.326s6.331-5.722 8.562-5.807c7.711-.295 8.79 5.384 11.18 16.133 1.694 7.623 1.213 17.494 0 20.75s.459 10.25.763 14.5c.305 4.25-.983 9.281-3.408 10.891-2.424 1.609-5.275 7.173-5.534 17.253-.258 10.08-3.771 13.242-6.973 15.992-3.201 2.75-5.39 11.614-10.725 12.864-3.651.855-20.809 8-22.942 9.5-2.135 1.5-12.906 4.585-19.208 2.488-6.301-2.097-12.952-5.238-19.146-4.488-6.195.75-16.408-6.486-18.238-10.243s-10.633-10.493-16.234-11.5c-5.604-1.007-10.389-8.134-15.755-14.885-5.365-6.751-5.068-11.729-11.863-16.801-6.796-5.071-10.655-9.618-9.926-17.595.729-7.977-.619-11.086-4.213-14.156-3.596-3.07-5.324-7.048-2.326-13.434z"/><path id="cl1" fill="#E52E2E" d="M1491.429 1396.055c6.62-3.336 28.327 4.315 34.738 7.025s16.694 6.923 16.694 6.923 1.727-5.471 6.495-5.863 12.894 7.683 12.894 7.683 12.318-13.133 18.909-16.541 19.97-4.975 24.093 7.934 5.826 22.601 1.18 25.321-24.722 1.803-24.722 1.803 6.665 10.034 18.184 16.753c6.519 3.803 24.981 13.281 26.106 15.156s-10.584 2.958-13.76 6.863-5.99 13.349-9.365 13.243-38.603-50.162-38.603-50.162l-6.661.515 6.661 47.291s1.228 4.75-.772 5-9.184-9.967-15.592-9.983-12.639 3.362-14.318 3.409-2.537-2.218-2.537-2.218l9.927-42.243s-9.663 4.729-15.935 6.133-18.158 3.738-20.757.072-12.313-24.122-14.265-29.151-3.665-12.407 1.406-14.963z"/><path fill="#8AA32E" d="M1489.489 1397.433c2.23-5.806 39.613 2.91 51.563 12.338l4.173 5.646s-35.907-9.842-56.503-8.442c-.001 0-.12-7.233.767-9.542zM1505 1441.5c3.875 1.75 14.464-.661 31.144-5.331s11.339-13.419 11.339-13.419c-1.893 3.5-47.308 11.155-47.308 11.155s.95 5.845 4.825 7.595zm60.359-27.49c1.451-2.271 38.688-13.216 37.849-14.616s-2.582-6.394-13.959-6.418-26.998 17.524-26.998 17.524 1.656 5.781 3.108 3.51zm2.572 7.274l1.095 5.466s20.458 5.952 27.48 4.354 11.098 1.715 12.108-12.319c.001-.001-24.377 5.658-40.683 2.499zM1541 1475s3.196-38.73 5.625-43.624c0 0-5.134.409-6.09 4.478s-9.656 41.147-9.656 41.147l2.711 1.424L1541 1475zm14.671 2.134s5.329 7.875 6.579 7.871 2.239-3.935 2.239-3.935l-6.878-48.36-5.229-2.257 3.289 46.681zm8.602-44.94s34.909 49.518 36.443 50.162 4.212-1.054 4.212-1.054l1.072-3.446-38.069-47.549-3.658 1.887zm9.977-1.743s20.563 23.927 31.75 29.798 10.252 6.249 10.252 6.249 8.41-2.165 9.079-3.207-.691-2.385-.691-2.385-37.7-21.457-41.089-26.416-1.961-4.42-9.301-4.039z"/><path fill="none" stroke="#000" stroke-miterlimit="10" stroke-width="4" d="M1544.25 1407.25c6.146-7.024 14.053-1.053 17 3.25s11.75 19.25 3 21.25-16.375-2.885-17.938-12.067-5.562-8.433-2.062-12.433zm-4.023 27.129l-9.535 43.478s1.752 1.606 4.03 0 12.528-4.106 17.278-2.106 8 8.25 11.5 9.25-6.029-53.096-6.029-53.096-9.662-4.905-17.244 2.474zm24.046-2.185s30.159 45.806 36.443 49.556 5.534-11 14.284-14.25 11.75-2 11-5.25-43.259-20.264-44.29-31.909c0 0-13.693-3.337-17.437 1.853zM1541.5 1410s-31.113-16.045-47.75-14.5 6.5 40.5 11.25 45.5 42.812-7.167 42.809-14c-.004-8.507-4.809-11.5-6.309-17zm27.526 16.75c1.257 3.031 35.975 8.25 38.725 0s-.75-33.25-15-34.25-30.5 18-30.5 18c6.611 5.59 5.275 12.631 6.775 16.25z"/></svg>