<svg xmlns="http://www.w3.org/2000/svg" id="horn" viewBox="0 0 3000 3000"><path id="cl1" fill="#7E6046" d="M1415.699 283.2c-2.8-35.899-7.9-57.899-15-66.1-15.9-20.4-38.5-20.4-67.6 0-30.301 29.3-47.301 63-51.1 101.1.1 14.7 4.1 28.8 12 42.3-16.101 3.4-32.601 1.5-49.601-5.8-19.3-7.5-32.6 1.8-40.1 28.101-14.3 53.399-1.601 81.3 38.1 83.6 34.101-16.9 59.601-24.8 76.4-23.8l-.101-.5c4.301 14.2 9.9 28.7 16.801 43.5-21 9.3-46.2 12.1-75.5 8.3-11.4.5-19.801 10.2-25 29.1-6.2 24-5.4 40 2.399 48.101 17.5 19.6 37.601 29.399 60.2 29.5 16-1.101 37.2-17 63.8-47.9l.101-.1.6 1.2c24.5 46.6 45.6 70.1 63.3 70.8 26.7 5.5 47.8 1.5 63.101-12 12.199-17.4 16-41.9 11.5-73.601-.801-10.699-3.301-16.8-7.5-18.5C1418.6 468 1393 388.9 1415.699 283.2m571.001-33.5c-9.2-18.2-20.601-27.6-34.3-28-20.601-4-36.2 1.7-46.601 17-15 22.5-24.7 62.7-29 120.7-23.6 98.4-69 154.5-136.2 168.3-24.6 40-23 75.3 5 105.601 36.5 9.899 62.5 10.899 78.101 3 22.2-15 37.5-34.9 45.8-59.801 25.2 4.801 45.2 12.5 59.9 23.2 42.199-6.7 65.699-16.399 70.6-29 3.8-18.5-1-34.5-14.3-48.1-3.5-2.601-7.101-2.601-10.601 0-16.699 4.6-34 2.399-51.8-6.7 11.601-21.2 22.601-44.5 33.101-69.8 20.699 17.899 39.899 30 57.6 36.5 29.2-.7 53.9-10.9 74.1-30.601 4.801-41.5-.5-68.3-16-80.3-44.399 5.9-70.199 5.9-77.5 0 15.6-30.2 19.801-56.2 12.5-77.899-3.699-11.4-10.5-26.1-20.4-44.1z"/><path id="sd1" fill="#5B3829" d="M1958.3 574.2l-14.8 6.4c-23.301 2-38.301-.7-44.9-8.2-5.199-5.8-5.6-16.2-1-31.1-9.5 8.899-23.4 19.1-41.8 30.6-10 6.3-21.3 14.5-33.899 24.8-6.601 5.5-13.5 9.5-20.601 12.101l-13 1.6c-27.5-1.3-48.3-6.5-62.399-15.8 2.399 21 10.699 34.899 25 41.8 24.6 8.5 49.699 9 75.299 1.4L1839 623.2c11.699-12.899 22-27.399 30.8-43.7l3.9 1.9c22.1 3.7 39.899 10.5 53.5 20.3 28 .4 51.899-9.7 71.8-30.2v-11l-40.7 13.7M2085 457.4l2.3-34c-7.899 10.5-29.3 21.5-64 33h-7.899c-11.7-4.2-22.7-12.3-33.101-24.4-2.7-3.1-3.899-9.6-3.5-19.5-11.8.7-22.399 4.601-31.899 11.9-15.301 19.8-27.2 43-35.7 69.5-4.5 13.4-2.101 22.3 7.2 26.5l40.199-73c15.2 14.1 31.4 24.5 48.4 31.1 11.2 6.5 21.8 6.5 31.8 0 16-4.8 31.4-11.8 46.2-21.1m-589.9 132.5c3.6-7.2 5.1-18.2 4.3-32.8l-17 34c-4.8 4.399-21.899 4.399-51.1 0-7.2-2.3-14.3-11.7-21-28.3l-30.101-30.301c-8.3-4.199-23.6-5.3-45.8-3.3-28.899 9.601-61.6 11.5-98.1 5.8-12.101 22.601-2.4 41.5 29.3 56.9 14.4 9.2 28.1 11.3 41.3 6.5 13.601-4.2 25.101-12.8 34.3-25.8l20.301-14.5 21.6 36c13.301 15.3 27.2 26.2 41.801 32.8h45.399l17.8-12.8c11.4-24.298 13.8-32.399 7-24.199m-180.2-200.099l-6.5 3c-.7 7.699-2.5 13-5.6 16.1-18.8 18.3-36.2 29.9-52.2 34.8-16 4.9-32.4-.899-49-17.399l3.3 20.8 8 9.3 23.8 9.5 12.801-2.5 66-19.6 3.3-4.2 13.8 44.3 19.5 3c7.2-2 10.301-8.7 9.5-20.3-5.402-38.002-20.902-63.602-46.701-76.801z"/><path id="hl1" fill="#A18C75" d="M1992 535.6c2.3-5.3-.4-9.101-8.1-11.5-17.7 4-37.9 1.6-60.601-7.101-6.8 7.5-7.899 16.601-3.399 27.5 23.501 3.901 47.501.901 72.1-8.899m7.7-161.7l-11.4 10.1 13.5 4.5c20.101.601 40.4 2.4 60.9 5.2l19-2.2-8.101-17.6-67.199 2.9-6.7-2.9m-59.2-133.8c9.699-1 20.9 4.2 33.8 15.5l20.5 10.899c-5.3-10.899-12.399-21.8-21.3-32.899-20-19.9-43.2-18.7-69.6 3.5l-22 77.399c-.7 37.101-7.5 72.301-20.4 105.601-31.6 59.8-72 96.1-121.1 108.7l-16.5 42.3 6.8-3c66.5-39.7 111.8-84.5 135.7-134.2l23.5-67.9c7.8-39.899 18.6-79.199 32.3-117.899M1393.5 213.1l-13.301-6.3h-18.1l-20 5.8-12.5 12.3c17.6-6.5 31.699-8.2 42.3-4.9 8.2 2.601 14.4 10.301 18.4 23.4L1392 357c3.5 28.9 7 49.801 10.5 62.7 11 27.3 23.6 51.101 37.8 71.3l55.399 46.5H1499l-6.801-15.5-32.3-26.3-32.8-46.1-6.301-11.3-12.299-54v-64.6l7.799-36.8-7.5-35-7-25-8.298-9.8m-156.7 141.3c-7.5-1.1-13.5 1-18 6-7.7 9.1-12.601 19.5-14.601 31.3 22.4-16.7 47.4-22.6 75.101-17.8 6.5-2.8 8.6-5.8 6.5-9.3l-49-10.2m63.3 150l5-7h-46.301l-13.5 6.3-14 25.3c20.9-17.5 43.9-25.699 68.801-24.6z"/><path fill="none" stroke="#000" stroke-linecap="round" stroke-linejoin="round" stroke-width="6" d="M1869.3 577.7c-8.3 24.8-23.5 44.8-45.8 59.8-15.6 7.9-41.6 6.9-78.1-3-28-30.399-29.601-65.6-5-105.699C1807.6 515.1 1853 459 1876.6 360.5c4.4-57.899 14.1-98.199 29.1-120.6 10.4-15.3 26-21 46.601-17 13.7.5 25.101 9.8 34.3 28 9.801 18.1 16.6 32.8 20.4 44 7.3 21.7 3.1 47.7-12.5 77.9 7.3 5.899 33.1 5.899 77.5 0 15.5 12 20.9 38.8 16 80.399-20.2 19.601-44.9 29.8-74.1 30.5-17.7-6.399-36.9-18.6-57.601-36.399-10.5 25.3-21.5 48.5-33.1 69.699 17.8 9.101 34 11.601 48.8 7.4 5.5-3.1 10.1-3.3 13.6-.7 13.301 13.601 18 29.601 14.301 48.101-4.9 12.6-28.5 22.3-70.7 29-14.701-10.6-34.701-18.3-59.901-23.1l16.9-16.899m108.3-188c-1.9 3.699-4 7.399-6.2 11.199m-32 63.301c2.3-5.601 4.7-11.4 6.9-17.2M1293.9 361.7c-7.899-13.5-11.899-27.6-12-42.3 3.7-38.1 20.8-71.9 51.101-101.1 29.1-20.4 51.699-20.4 67.6 0 7.199 8.199 12.199 30.199 15.1 66.1-22.699 105.7 2.9 184.8 76.6 237.3 4.201 1.7 6.701 7.8 7.5 18.5 4.5 31.7.701 56.2-11.5 73.601-15.299 13.5-36.399 17.6-63.1 12.1-17.699-.6-38.8-24.2-63.3-70.8-.2-.4-.399-.8-.601-1.101-26.5 30.801-47.799 46.801-63.799 47.801-22.601-.101-42.701-10-60.201-29.5-7.799-8-8.6-24.101-2.399-48 5.3-18.9 13.601-28.5 25-29.101 29.3 3.8 54.5 1 75.5-8.3-.101-.1-.101-.3-.2-.4-6.8-14.5-12.3-28.8-16.5-42.699h-.1c-16.801-1-42.301 6.899-76.301 23.8-27.6-1.601-42.1-15.601-43.6-41.8-.699-11.601 1.2-25.5 5.5-41.801 7.4-26.199 20.801-35.6 40.1-28 16.899 7.2 33.5 9.2 49.6 5.7 2.8 4.8 6.2 9.601 10 14.3m9.5 47.1c1.4 6.7 3.101 13.399 5.2 20.3 0 .2.1.3.1.5m42.499 110.1c-.9-1.699-1.8-3.5-2.699-5.3m-23.2-61.8c2.7 5.7 5.5 11.5 8.6 17.3m571.3 27c2.7-4.6 5.399-9.399 8-14.2"/></svg>