<svg xmlns="http://www.w3.org/2000/svg" id="horn" viewBox="0 0 3000 3000"><path id="cl1" fill="#625B57" d="M1305.5 232.301c-.301-4.101-.601-8.101-1.101-12.101-1.6-13.8-4.1-27.2-7.6-40-5.4-20.2-13.3-39.2-23.4-56.899-1.7 16.1-6.8 35.1-15.3 56.899-5.6 14.5-12.801 30.3-21.4 47.3-8.5 16.801-18.5 34.7-29.9 53.9-2.1 3.7-4.399 7.5-7.199 11.6-12.1 18.4-30.801 40.801-55.801 67.2-5.1 5.4-10.5 11-16.199 16.8-32.5 25.5-58.301 52-77.2 79.5-1.8 2.7-3.6 5.4-5.3 8.101-11.7 19.6-20 39.399-25 59.399-11.1 44-6 88.801 15.3 134.4 3.3 7.1 7 14.2 11.101 21.3 6.8 11.9 14.8 23.8 23.8 35.8 15.3 16.9 37.899 31.9 67.899 45.101 5.301 2.3 10.801 4.6 16.601 6.8 7.8 3 16.1 5.9 24.8 8.7 31.9 3.2 63.8-4.5 95.6-22.9 8.2-4.7 15.101-11.399 20.7-20.2 11.601-17.699 18.4-39.3 20.3-64.8 1.5-19.8.2-41.899-4.199-66.5-2.301-24.7-15.7-44.8-40.101-60.3-2.3-1.4-4.7-2.9-7.3-4.3-7.3-4-15.5-7.7-24.5-11-2.7-1.9-5-4-6.7-6.5-1.899-2.8-3.2-5.9-3.8-9.5-1.6-8.101 0-18.3 4.6-30.601 3.601-9.399 9.101-20.1 16.4-32.1 3.7-4.4 7.3-9.3 10.8-14.7 11.7-18.3 22-42.7 30.9-73.1.5-1.601.899-3.2 1.399-4.9 1-4.1 2-8.2 2.9-12.3 8.2-39.4 11.3-76.2 8.9-110.099m661.9 361c1.5-12 2.5-23.7 2.9-35 1.2-27.301-.3-52.7-4.7-76-5.7-30.801-16.3-58.101-31.7-82.101-8.7-13.6-19-26.1-30.8-37.5-7-6.8-14.6-13.2-22.8-19.3-3-2.2-6.101-4.4-9.2-6.5-4.4-2.9-8.9-5.8-13.6-8.5-9.2-7.5-17.601-15.6-25.301-24.2-4.8-5.399-9.3-11-13.399-16.899-16.7-23.5-28.5-50.601-35.2-81.301-1.8-8.399-3.3-17.1-4.4-26-1.699-14.5-2.5-29.6-2.3-45.399-11.4 12.799-20.4 27.899-27.1 45.399-8 20.7-12.7 44.8-14.2 72.101-.2 4.5-.4 9-.5 13.6-.2 12.2.2 25.101 1.3 38.5 0 5.2.5 11.3 1.4 18.5 3.6 26.101 17.5 55.4 41.6 87.9 4.601 6.2 9.601 12.5 15 18.899 5.2 10.2 8.101 20.101 8.5 29.7.3 6.7-.6 13.3-2.6 19.8-1.5 4.801-3.7 9.5-6.5 14.2-3.601 5.9-39.944 41.281-45.645 46.981C1804.5 578 1852.833 633.833 1876.279 761.5c7.8-3.3 26.421-13.1 33.121-19.5 5.4-5 10.5-11.1 15.3-18 13.9-20.3 25.101-48.8 33.801-85.5 3.399-13.9 6.399-28.9 8.899-45.199z"/><path id="sd1" fill="#423835" d="M1028.6 533.801c-3.6-2.7-6.4-6-8.3-10-11.101 44-6 88.8 15.3 134.5 3.3 7.1 7 14.1 11.1 21.3 6.801 11.899 14.7 23.8 23.7 35.8 15.3 16.9 37.899 31.9 67.899 45.1 5.301 2.301 10.801 4.601 16.601 6.801 7.8 3 16 5.899 24.7 8.699 31.9 3.2 63.8-4.5 95.6-22.8 8.1-4.7 15-11.5 20.6-20.2 11.601-17.699 18.4-39.3 20.301-64.8-32.4 40.101-87.4 47.2-165.1 21.3l-29.4-16.6C1083.4 649.5 1052.4 603.2 1028.6 533.801m205-54.301c3.6-9.5 9.1-20.199 16.4-32.1 3.699-4.4 7.3-9.3 10.8-14.7 11.7-18.3 21.899-42.7 30.899-73.1l-41.8 59c-12.2 16.5-25 30.399-38.399 41.8.8.5 1.699.9 2.5 1.4-17.101 22.3-16.301 43.199 2.3 62.699 2.8 3.2 8.1 6.601 15.8 10.4 16.2 4.7 26.9 5.5 32 2.2-7.3-4-15.5-7.7-24.6-11-2.7-1.9-4.9-4-6.7-6.5-1.9-2.8-3.2-5.9-3.9-9.5-1.6-8.199 0-18.399 4.7-30.599m551.599-101.199c-16.1-10.2-31.8-28.801-46.9-55.601 3.601 26.101 17.5 55.4 41.701 87.9 4.6 6.2 9.6 12.5 14.899 18.899 5.2 10.2 8.101 20.101 8.5 29.7.3 6.7-.601 13.3-2.601 19.8 8.9-4.8 13.9-11 15.201-18.5 15.299-22 15.6-42.2.799-60.5.201-.2.301-.399.601-.6-.099-2.499-10.799-9.499-32.2-21.098m182.5 214.799c1.5-12 2.5-23.7 3-35 1.2-27.3-.4-52.601-4.699-76-.4 12-2.5 27.5-6.4 46.5-17.9 67-68.934 115.333-113.434 133.233 10.8 25.601 21.709 57.226 29.753 98.949 7.8-3.3 27.28-12.481 34.081-18.882 5.399-5.1 10.399-11.1 15.3-18.1 13.8-20.301 25.1-48.801 33.8-85.5 3.099-13.9 6-28.999 8.599-45.2z"/><path fill="none" stroke="#000" stroke-linecap="round" stroke-linejoin="round" stroke-width="6" d="M1748.833 536.5c5.7-5.699 41.167-37.5 44.767-43.399 2.8-4.7 5-9.4 6.5-14.2 2-6.5 2.9-13.1 2.6-19.8-.4-9.601-3.3-19.5-8.5-29.7-5.4-6.4-10.4-12.6-14.9-18.9-24.199-32.399-38.1-61.699-41.699-87.899-1-7.101-1.4-13.3-1.4-18.5-1-13.5-1.4-26.3-1.199-38.5.1-4.601.199-9.2.399-13.601 1.5-27.3 6.2-51.199 14.101-71.899 6.8-17.601 15.8-32.9 27.3-45.7-.2 15.9.6 31.2 2.399 45.7 1.101 8.8 2.5 17.399 4.4 25.8 6.7 30.6 18.4 57.7 35.2 81.3 4.2 5.9 8.6 11.5 13.399 17 7.601 8.601 16 16.601 25.2 24.101 4.7 2.699 9.2 5.6 13.601 8.5 3.1 2.1 6.199 4.3 9.199 6.5 8.1 6 15.7 12.399 22.801 19.3 11.8 11.399 22.1 23.899 30.8 37.5 15.399 24 26 51.3 31.7 82.1 4.3 23.4 5.899 48.8 4.699 76.101-.5 11.3-1.5 23-3 35-2.5 16.199-5.4 31.3-8.699 45.199-8.7 36.7-20 65.2-33.801 85.5-4.8 7-9.9 13-15.3 18.101-6.8 6.399-25.322 16.1-33.121 19.399M1905.9 484c24.8 13.5 42.5 28.301 53.101 44.5 6.1 9.4 9.8 19.301 11.1 29.601M1945.4 602.1c4.3 6.1 8.601 18.2 12.9 36.2m-223.4-372.7c5.4 6 10.8 8.1 16.3 6.5m-15.9-20.1c9.399 8 18.899 8 28.3 0m68.5 52c3.199 14.2.4 26.5-8.301 37.101m56.301 2.2c3.3 9 3.3 18 0 27m-9.3-33.5c2.5 13 .899 26-5 39m-47.101-88.701c3.9 23.8-2.9 43.8-20.4 60.1M1783.4 205.9c1.7 13.2-2.399 23.3-12.3 30.2m-467-16c.5 4 .9 8.1 1.199 12.2 2.4 34-.699 70.699-9.399 110.3-.899 4.1-1.8 8.2-2.8 12.3-.5 1.6-.9 3.3-1.4 4.9-8.9 30.399-19.199 54.8-30.8 73.1-3.5 5.4-7.101 10.3-10.8 14.7-7.301 11.899-12.801 22.6-16.4 32.1-4.7 12.2-6.3 22.4-4.7 30.5.7 3.5 2 6.7 3.9 9.4 1.7 2.5 3.899 4.7 6.7 6.5 9 3.3 17.199 7 24.6 11 2.5 1.399 4.9 2.8 7.2 4.3 24.399 15.4 37.7 35.5 40.1 60.3 4.3 24.5 5.7 46.7 4.2 66.5-2 25.5-8.801 47-20.4 64.8-5.6 8.7-12.5 15.5-20.6 20.2-31.801 18.4-63.7 26-95.6 22.8-8.7-2.8-16.9-5.699-24.7-8.699-5.8-2.2-11.3-4.5-16.601-6.801-30-13.199-52.6-28.199-67.899-45.1-9-12-16.9-23.9-23.7-35.8-4.1-7.101-7.8-14.2-11.1-21.3-21.301-45.601-26.4-90.4-15.301-134.5 5-19.9 13.301-39.7 25-59.4 1.7-2.7 3.5-5.5 5.4-8.1 18.9-27.5 44.6-54 77.2-79.5 5.7-5.801 11.1-11.4 16.3-16.801 25.1-26.5 43.7-48.899 55.801-67.3 2.699-4.1 5-7.899 7.1-11.6 11.4-19.2 21.4-37.2 29.9-53.9 8.6-17 15.799-32.8 21.399-47.3 8.5-21.9 13.601-40.8 15.3-56.9 10.2 17.801 18 36.801 23.5 56.9a306.785 306.785 0 0 1 7.401 40.201c-9.6-7.8-21-10.4-34.1-7.8M1933.6 400c2.3 11.2-1.9 26-12.7 44.5m-126.701-15.1l17.5-9.5m-9 39.1c4 1 8.2 1.4 12.6 1.301 8.9-.2 18.601-2.7 29.101-7.4M1793.6 493c14.6-10 31.199-11.699 49.699-5.1m59.001 182.901c9.1 5.6 16.5 23.3 22.2 53m-49.2-59.601c17.7 22.4 29 48.3 33.899 77.601M1779.3 410.5c16.899 2.4 29.1-1.1 36.8-10.6m86.7-37.4c4.7 17.2 2 32.101-8 44.9m-658.5-180c8.7-3.9 17.5-3.9 26.2 0m-119.1 132.8c24.101-4.8 41.9-4.7 53.4.4m63.7-50.1c16.1 2.801 27.899 13.601 35.3 32.2m-96.5-49.7c23.5-10 43.7-11.199 60.7-3.5M1127.199 377c15.7-4.899 28.6-6.3 38.6-4m48.101 25.1c13.601 2.8 25.601 9.8 35.9 20.8 3.899 4.1 7.5 8.8 10.899 14M1157.8 563.801c17.1-3.101 36.6-16.101 58.399-39.101 3.601-3.7 7.801-8.6 12.601-14.5m4 9.5c.5 4.8.3 9.9-.8 15.4-1.9 9.6-6.2 20.3-13.101 32.2M1202.4 456c14.8 8.101 25.2 16 31.101 23.601M1019.699 524c1.9 4 4.7 7.301 8.4 10 10.3 7.5 27.6 9.601 51.699 6.2m-29.698-83.7c24.4-7.399 42-7.399 52.699 0m-67.899 202c15.5 9.2 29.3 9.2 41.3 0m-30.2 21.2c30.699 4.9 55.699 2.601 75-6.7 7-3.399 13.3-7.8 18.8-13m-2.2 100.6l36.8-11m-20.201 17.8c12.5-.9 28.2-6.6 47.301-16.9m69.699-208.9C1283.4 562.7 1288 596.2 1285 642m.5-421.199l19.699 11.5"/></svg>