<svg xmlns="http://www.w3.org/2000/svg" id="horn" viewBox="0 0 3000 3000"><path id="cl1" fill="#DCCDAF" d="M1740 343.5c-10.2-13.699-20.4-13.699-30.5 0-1.801 15.101-5.7 27.601-11.5 37.5-29.301 65-61.5 102.301-96.7 112.2-6.4 3.5-11.5 7.5-15.3 11.9-4.4 5.1-7 10.899-7.9 17.3-2.4 17.4-3.7 34.8-3.801 52.4-.399 59 18.101 101.8 55.5 128.3 26 7.5 43.4 7.7 52.101.5 17-6.2 36.399-31.4 58.101-75.601 12.6-20.8 20.399-62.199 23.199-124.199 5.6-54.9-1-105.4-19.6-151.601-1.1-2.999-2.3-5.799-3.6-8.699z"/><path id="hl1" fill="#EDE7D1" d="M1739.699 344.301c-10.199-13.7-20.4-13.7-30.6 0-1.801 15.1-5.6 27.6-11.6 37.6-29.301 65-61.5 102.4-96.601 112.1-6.399 3.5-11.5 7.5-15.3 11.9l22.3-4.3c11.2-4.101 22.2-9.8 32.8-17 22.301-19.8 39.4-40.8 51.301-62.9 11.899-22.2 20.399-41.8 25.399-58.899 1.3-4.7 3.5-9.2 6.8-13.5 3.202-3.602 8.302-5.302 15.501-5.001z"/><path id="sd1" fill="#927A64" d="M1605.4 649.2c-14.1-23.899-24.5-48.7-31.1-74.5-.4 59 18.1 101.8 55.6 128.3 26 7.5 43.4 7.7 52.101.5 17-6.199 36.399-31.399 58.1-75.6 12.6-20.8 20.4-62.2 23.199-124.2 5.601-54.899-1-105.399-19.6-151.6 1.1 66.3-5.9 120-20.8 161-16.2 44.8-35.5 83.399-57.8 115.899-22.3 32.401-42.2 39.101-59.7 20.201z"/><path fill="none" stroke="#000" stroke-linecap="round" stroke-linejoin="round" stroke-width="6" d="M1576.199 524.301c.9-6.4 3.5-12.101 8-17.301 3.801-4.4 8.801-8.4 15.301-11.9 35.199-9.8 67.399-47.2 96.6-112.2 5.9-10 9.8-22.5 11.6-37.5 10.2-13.7 20.4-13.7 30.6 0 1.301 2.9 2.5 5.8 3.601 8.6 18.599 46.1 25.199 96.6 19.599 151.6-2.801 62-10.601 103.399-23.201 124.2-21.799 44.2-41.199 69.4-58.199 75.6-8.7 7.2-26.1 7-52.1-.5-37.4-26.5-56-69.3-55.5-128.3 0-17.5 1.3-34.9 3.699-52.299z"/></svg>