<svg xmlns="http://www.w3.org/2000/svg" id="horn" viewBox="0 0 3000 3000"><path id="cl1" fill="#C32C2C" d="M1024.199 347.2c-2.8 10-5.3 19.9-7.3 29.601-25 119.3 10.2 219.1 105.601 299.399 20.699 15.2 38.5 24 53.5 26.3 23.5-.399 44.1-11.5 62-33.1 6.699-8 12.899-17.5 18.8-28.5 4.3-9.7 7.8-19 10.5-27.8 7.7-24.9 9.2-46.3 4.5-64.2-2.8-10.6-7.8-19.9-15-28-63.5-16.4-108.9-34.7-136.101-54.8-33.199-24.601-60.699-64.2-82.8-118.8-4.799-10.8-9.299-10.8-13.7-.1m909.504 144.937c4.1-25 7.3-52 9.5-81 3.699-39.899-.5-56.699-12.801-50.399-52 91.6-129.902 157.412-181.902 178.912 7.4 5.2 20.422 14.858 27.122 22.559 7.601 8.9 21.679 14.091 28.378 26.291 8.5 15.6 24.074 27.662 30.974 48.762 4.701 14.3 13.929 29.076 17.929 45.876 39.1-37.6 66.001-101.2 80.8-191.001z"/><path id="hl1" fill="#D16764" d="M1270.8 547.4c-54.2-1.3-97.8-13.9-130.9-37.7-33.1-23.8-60.1-53.6-80.899-89.6 27.399 86.2 96.6 150 207.399 191.399 7.7-24.899 9.2-46.299 4.4-64.099m634.604-87.462c.6-1.4 1.1-2.801 1.7-4.2 10.1-25.601 16.5-52.601 19-81.2-6.301 27-15.9 53.5-28.9 79.7-22.5 45.3-79.989 86.938-125.989 104.438 7.601 8.9 27.852 20.907 34.551 33.107 44.3-38.9 84.237-90.545 99.638-131.845z"/><path id="sd1" fill="#9B1E1E" d="M1067.699 540.5l-7-11.3c-23.3-51.6-38-102.399-44.199-152.399-25 119.3 10.199 219.1 105.6 299.399 20.699 15.2 38.5 23.9 53.5 26.3 23.5-.399 44.199-11.399 62.1-33.1-57.8-15.8-114.4-58.8-170.001-128.9m765.99 97.272c4.7 14.3 14.814 28.565 18.715 45.365 39.2-37.6 66.1-101.3 80.899-191-46.399 90.801-83.514 140.235-99.614 145.635z"/><path fill="none" stroke="#000" stroke-linecap="round" stroke-linejoin="round" stroke-width="6" d="M1745.084 539.65c7.399 5.199 31.712 22.054 38.412 29.854 7.6 8.9 18.754 15.246 28.73 31.303 8.219 12.433 11.051 16.047 21.462 36.965 6.744 14.589 14.415 27.766 18.314 44.565 39.2-37.6 66.101-101.3 80.9-191 4.1-25 7.3-52 9.5-81.1 3.7-39.9-.5-56.7-12.8-50.4-51.998 91.601-132.518 158.413-184.518 179.813zM1121.8 675.301c20.7 15.199 38.5 24 53.5 26.3 23.5-.4 44.2-11.4 62-33.101 6.6-8 12.899-17.5 18.8-28.5 4.3-9.699 7.8-19 10.6-27.899 7.7-24.9 9.2-46.3 4.4-64.101-2.8-10.6-7.8-20-15-28-63.5-16.399-108.9-34.699-136.1-54.899-33.2-24.601-60.7-64.2-82.7-118.7-4.8-10.7-9.4-10.7-13.8 0-2.9 10-5.301 19.9-7.301 29.6-25 119.3 10.101 218.999 105.601 299.3z"/></svg>