<svg xmlns="http://www.w3.org/2000/svg" id="图层_2" viewBox="0 0 3000 3000"><path fill="#F9DFAF" d="M1545.489 330.685c-.213-25.156-2.701-40.735-7.253-46.794-10.094-14.987-25.846-16.082-47.114-3.273-22.535 18.953-36.016 41.617-40.509 67.986-.642 10.25 1.463 20.271 6.315 30.062-11.387 1.59-22.795-.531-34.288-6.442-13.089-6.162-22.808-.324-29.308 17.642-12.554 36.525-5.054 56.585 22.504 60.11 24.586-10.127 42.738-14.398 54.398-12.89l-.046-.353c2.312 10.105 5.51 20.482 9.604 31.131-15.086 5.464-32.785 6.196-53.021 2.128-7.97-.203-14.294 6.15-18.833 19.07-5.483 16.426-5.701 27.616-.657 33.64 11.248 14.507 24.782 22.313 40.528 23.478 11.205.007 26.75-10.047 46.785-30.295l.073-.064.359.865c14.818 33.664 28.387 51.063 40.688 52.409 18.344 5.126 33.242 3.358 44.561-5.31 9.346-11.537 13.182-28.428 11.579-50.738-.041-7.494-1.488-11.867-4.332-13.258-48.961-40.168-62.972-96.535-42.033-169.104m355.907 26.656c-5.001-11.872-11.772-18.294-20.39-19.146-12.807-3.423-22.885-.514-30.108 8.672-10.437 13.522-18.312 38.432-23.56 74.791-19.182 60.976-50.246 94.34-93.196 100.094-17.252 24.129-17.79 46.441-1.474 66.764 22.566 7.836 38.907 9.604 49.086 5.313 14.646-8.48 25.157-20.353 31.479-35.681 15.67 4.128 27.938 9.856 36.73 17.242 26.885-2.375 42.117-7.458 45.758-15.184 3.205-11.492.881-21.785-6.904-30.938-2.092-1.792-4.359-1.949-6.682-.464-10.725 2.167-21.528.022-32.35-6.49 8.239-12.852 16.19-27.052 23.916-42.536 12.26 12.188 23.829 20.651 34.698 25.522 18.431.838 34.44-4.509 48.034-16.038 4.842-25.942 2.675-43.063-6.567-51.302-28.235 1.772-44.495.645-48.837-3.395 11.153-18.348 14.938-34.548 11.288-48.542-1.829-7.344-5.471-16.906-10.921-28.682z"/><path fill="#AF908B" d="M1869.291 560.584l-9.605 3.385c-14.771.24-24.104-2.118-27.936-7.133-3.022-3.882-2.819-10.454.729-19.644-6.376 5.192-15.582 11.014-27.681 17.453-6.576 3.531-14.059 8.204-22.447 14.145-4.4 3.177-8.924 5.396-13.514 6.723l-8.262.439c-17.271-2.023-30.15-6.211-38.63-12.688.593 13.338 5.216 22.461 13.923 27.438 15.131 6.433 30.926 7.847 47.392 4.179l8.704-8.643c7.938-7.614 15.063-16.303 21.322-26.188l2.375 1.368c13.767 3.299 24.685 8.362 32.823 15.135 17.627 1.479 33.131-3.84 46.567-15.887l.482-6.934-26.242 6.852m84.955-68.055l2.938-21.322c-5.438 6.271-19.404 12.266-41.773 17.992l-4.979-.347c-7.188-3.159-13.768-8.745-19.791-16.825-1.564-2.07-2.037-6.22-1.352-12.439-7.468-.075-14.316 1.918-20.623 6.102-10.51 11.81-19.021 25.906-25.539 42.233-3.422 8.248-2.301 13.96 3.377 17.015l28.525-44.242c8.963 9.551 18.717 16.814 29.141 21.719 6.771 4.586 13.453 5.05 20.039 1.392 10.293-2.328 20.305-6.066 30.037-11.278m-368.271 55.754c2.857-4.844 4.436-12.438 4.585-22.649l-13.495 22.873c-3.557 2.834-15.475 2.006-35.613-2.477-4.904-1.952-9.397-8.847-13.265-20.739l-19.513-22.574c-5.58-3.329-16.19-4.838-31.761-4.521-20.604 5.292-43.487 5.033-68.649-.707-9.528 15.165-3.683 28.808 17.666 41.075 9.591 7.109 19.035 9.236 28.469 6.53 9.684-2.271 18.113-7.705 25.154-16.32l14.851-9.122 13.312 26.137c8.527 11.308 17.688 19.576 27.543 24.885l31.643 2.196 13.023-8.059c9.12-16.384 11.187-21.913 6.05-16.528m-115.902-148.185l-4.675 1.774c-.86 5.333-2.372 8.939-4.683 10.95-13.987 11.845-26.678 19.086-38.065 21.728-11.388 2.641-22.538-2.195-33.31-14.499l1.293 14.655 5.125 6.868 16.127 7.773 9.043-1.123 46.947-10.464 2.504-2.77 7.474 31.543 13.444 3.035c5.114-1.045 7.602-5.563 7.604-13.688-1.921-26.74-11.485-45.333-28.828-55.782z"/><path fill="#FFF8E8" d="M1892.218 537.736c1.682-3.236.146-5.752-4.601-7.602-11.328 1.746-23.953-.651-37.879-7.127-4.611 4.428-5.703 10.115-3.346 17.181 14.639 3.486 29.895 2.646 45.826-2.452m11.932-101.56l-7.626 5.865 8.311 3.427c12.642 1.258 25.354 3.281 38.149 5.943l12.069-.556-4.335-11.443-42.472-1.115-4.096-2.121m-31.449-86.906c6.155-.206 12.986 3.563 20.62 11.247l12.441 7.766c-2.863-7.101-6.859-14.278-11.979-21.665-11.732-13.416-26.406-13.676-44.015-.841l-17.252 47.813c-2.063 23.349-7.894 45.23-17.479 65.65-22.529 36.301-49.58 57.405-81.07 63.196l-12.249 25.933 4.416-1.593c43.645-22.104 74.149-48.353 91.388-78.626l17.782-41.759c6.661-24.801 15.188-49.094 25.516-72.881m-327.41-72.756l-8.966-5.033-12.612-.876-14.222 3.073-9.308 7.969c12.581-3.68 22.488-4.182 29.718-1.367 5.589 2.21 9.538 7.876 11.688 17.2l-4.313 79.255c1.04 20.312 2.466 35.047 4.281 44.208 6.344 19.559 13.973 36.757 22.892 51.521l36.358 35.093 2.301.159-3.986-11.133-21.238-19.894-20.627-33.718-3.846-8.182-5.957-38.23 3.129-45.021 7.219-25.271-3.532-24.757-3.669-17.762-5.31-7.234m-116.053 90.891c-5.173-1.13-9.457.043-12.835 3.31-5.807 5.969-9.726 12.98-11.691 21.107 16.42-10.554 34.131-13.456 53.203-8.771 4.666-1.637 6.274-3.626 4.98-6.167l-33.657-9.479m36.854 107.607l3.824-4.636-32.271-2.241-9.714 3.736-10.982 16.955c15.415-11.183 31.842-15.786 49.143-13.814z"/><path fill="none" stroke="#000" stroke-linecap="round" stroke-linejoin="round" stroke-width="6" d="M1813.055 558.894c-6.316 15.264-16.771 27.202-31.479 35.678-10.178 4.295-26.519 2.527-49.084-5.311-16.313-20.382-15.781-42.634 1.477-66.826 42.945-5.689 74.013-39.056 93.195-100.093 5.31-36.293 13.186-61.267 23.616-74.725 7.226-9.186 17.306-12.095 30.11-8.672 8.609.915 15.388 7.274 20.389 19.146 5.385 11.834 9.024 21.396 10.93 28.62 3.649 13.993-.137 30.192-11.287 48.542 4.342 4.038 20.6 5.167 48.837 3.393 9.243 8.24 11.472 25.366 6.563 51.365-13.587 11.467-29.598 16.813-48.028 15.978-10.875-4.81-22.438-13.338-34.704-25.459-7.724 15.481-15.673 29.619-23.908 42.473 10.815 6.514 20.917 8.798 30.428 6.799 3.603-1.712 6.509-1.637 8.603.155 7.785 9.153 10.047 19.439 6.904 30.937-3.64 7.727-18.937 12.805-45.82 15.18-8.808-7.323-21.072-13.052-36.742-17.18l11.39-9.91m76.477-113.729c-1.36 2.248-2.846 4.488-4.398 6.786m-22.938 38.49c1.693-3.43 3.462-6.979 5.103-10.536M1456.8 379.497c-4.854-9.791-6.957-19.812-6.315-30.062 4.424-26.375 17.979-49.104 40.51-67.986 21.271-12.81 37.021-11.715 47.113 3.273 4.62 6.063 7.041 21.638 7.323 46.798-20.938 72.567-6.928 128.937 41.896 169.095 2.846 1.39 4.291 5.762 4.33 13.256 1.604 22.313-2.231 39.203-11.578 50.739-11.315 8.668-26.222 10.503-44.563 5.377-12.307-1.273-25.869-18.745-40.688-52.409-.121-.287-.239-.574-.365-.795-19.959 20.185-35.58 30.305-46.779 30.227-15.746-1.164-29.273-9.037-40.527-23.477-5.049-5.953-4.828-17.213.651-33.568 4.608-12.916 10.858-19.204 18.833-19.071 20.236 4.067 37.936 3.336 53.021-2.129-.065-.074-.057-.213-.121-.288-4.036-10.438-7.178-20.668-9.433-30.558l-.067-.007c-11.66-1.51-29.815 2.762-54.33 12.895-19.159-2.453-28.586-12.911-28.363-31.244.074-8.119 2.071-17.714 5.857-28.867 6.426-17.902 16.221-23.804 29.304-17.573 11.428 5.836 22.898 8.034 34.291 6.374 1.719 3.481 3.854 6.991 6.276 10.451m4.34 33.287a162.52 162.52 0 0 0 2.643 14.399c-.01.14.055.214.045.354m24.289 78.791a175.008 175.008 0 0 1-1.625-3.825m-13.178-44.194c1.604 4.104 3.275 8.282 5.156 12.474m359.27 50.367a308.17 308.17 0 0 0 5.662-8.598"/></svg>