<svg xmlns="http://www.w3.org/2000/svg" id="图层_3" viewBox="0 0 3000 3000"><path fill="#1A1A1A" d="M704.8 1553.8l-8.6 29.4c19.5-4.3 31.6-8.7 36.1-13.1h3.5c15.9 8.1 44.6 9.7 86.2 4.7l-11.7-42.5h-39.7c-21.7-7.2-38.8-16.9-51.1-29.1l-14.7 50.6M875.7 1358c-1.1 0-2.4.4-4 1.3-.1 0-.1.1-.2.1-.1.1-.3.2-.4.3-19.2 11.6-37.5 23.6-54.9 36.1l-2.4 11.6v10.1h-2.3c-7.1-3.6-14.4-4.5-21.7-2.6-19.5 16.9-37.1 34.1-52.7 51.8.6 15.4 12.3 20.7 35.2 16 6.3-2.3 13.6-7.6 21.8-15.8v-2.4c-5 3.7-10 5.3-15 4.8-7.5 1-13.5-1.8-17.8-8.6-1.6-5.2-1.6-9.6 0-13.2 5.2-9 16.6-11.9 34.2-8.6 13.2 7.4 19.3 13.2 18.3 17.2 3.9 41.8 13.1 84.3 27.4 127.5 5.6 20.1 11.2 37.6 16.8 52.5 41.9-3.7 68.8-8.2 80.6-13.5-5.3-4.7-10.7-10.4-16.2-17-14.8-21.4-26.4-51.6-35-90.8v-6.3c13.9-16.1 30.5-23.5 49.8-22.1.3 0 .6 0 .9-.1 14.2-.3 28.4 4.7 42.6 14.9-10.2-22.4-35.1-36.4-74.8-41.8-11.7-.9-21.8.8-30.2 5.2-2.7-11.5-4.2-22.5-4.5-33.1 23.1-32.5 36.4-60.4 40-83.5v-5.6h-2.8c-9.5 18.2-21.9 30.8-37.2 37.8l4.5-22.2z"/><path d="M957.8 1653.3c.4-5 .4-10.9.1-17.5-6.3-3-12.6-7.4-19.2-13.2-11.8 5.3-38.7 9.7-80.6 13.5 9 23.8 18.1 41 27.2 51.5 33.8-9 57.9-20.4 72.5-34.3z"/><path fill="#4D4D4D" d="M696.2 1583.2l8.5-29.3-43.2 8.6-16 29.3c20.5-2.8 37.3-5.7 50.7-8.6m23.4-80.2c-2.4-2.4-4.7-4.9-6.7-7.5-12 15.4-20.5 27.7-25.5 37 4 6.2 9.6 13.1 16.9 20.8.1.2.3.3.4.5l14.9-50.8z"/></svg>