<svg xmlns="http://www.w3.org/2000/svg" id="tatoo_x5F_b" viewBox="0 0 3000 3000"><path id="hl1" fill="#4D4D4D" d="M1320.8 1613.5c-4.6 5.2-9.2 10.5-13.9 15.9l45.7 45.6c5.7-7.1 11.3-14.1 16.8-20.8l-48.6-40.7m-77.5-261.8h-1.4l-52.8 139.3c.8-1 1.7-2.1 2.5-3.1 37.9-45.9 83.9-88.6 137.9-127.9-13.9-7.2-42.7-10-86.2-8.3m215.1 41.9l-75.2-20.8c-59.6 48.7-112.9 100.5-159.9 155.5l41.6 50.7c53.5-63.9 118-125.7 193.5-185.4m-68 142.4l55 35.4c51.1-47.4 94.9-77.5 131.3-90.2-15.3-17.8-32.3-33-50.8-45.7-48 23.5-93.2 57-135.5 100.5z"/><path id="sd1" d="M1280 1774.4c2.6-3.7 5.1-7.4 7.7-11.1l-53.7-37.4c-3.9 5.7-7.7 11.4-11.6 17.3l57.6 31.2m-107.2-65.6c2.8-4.9 5.7-9.7 8.7-14.5l-50-41.8c-2.2 3.6-4.5 7.2-6.7 10.8l48 45.5m-91.5-175.9c-4.2 6.5-8.3 13.1-12.5 19.9 12.5 43.9 23.4 72.2 32.8 84.8 1.7-4.2 3.5-8.3 5.3-12.4-15.1-39.2-23.6-69.9-25.6-92.3z"/><path id="cl1" fill="#1A1A1A" d="M1234 1725.9l53.7 37.4c22.1-32 43.8-61.4 65-88.2l-45.7-45.6c-24.1 28.2-48.4 60.4-73 96.4m30.9-147l-41.6-50.7c-33.9 39.8-64.5 81.2-91.8 124.2l50 41.8c23.9-39.1 51.7-77.6 83.4-115.3m-22.9-227.2c-2.2.1-4.5.2-6.8.3-51.8 41.4-103.1 101.7-153.9 180.9 2 22.4 10.5 53.1 25.5 92.3 20.8-47.5 48.2-92.2 82.4-134.2l52.8-139.3z"/></svg>