<svg xmlns="http://www.w3.org/2000/svg" id="tatoo_x5F_b" viewBox="0 0 3000 3000"><path id="cl1" fill="#FFF" d="M2003.2 1477.6c7.9 29.6 28.8 50.5 62.8 62.8 30.9 3.5 49.7-.2 56.6-11 1.3 11.7 4.7 19.6 10.5 23.8 5.7 4.2 14 6.3 24.8 6.5 6.4.1 11.7-1.7 16-5.5l21 22.6c15.1 4.2 23.1-.9 24-15.2 11.2-2.1 16.5-10.8 15.9-26.3 0-1.8-1.7-5.6-4.9-11.4-39.4-70.7-106.3-133.2-200.9-187.3-28.7 40.9-37.3 87.9-25.8 141z"/><path id="sd1" d="M2094.4 1434.8c-13.5 3.9-19.4 14.1-17.8 30.8 3.4 12.4 10.3 22 20.6 28.9 5.9 4 11.9 5.6 17.9 4.9 6 .7 10.4-1.1 13.3-5.4 5.9-14.8 4.5-30.9-4.4-48.4-8-7.9-17.8-11.5-29.6-10.8z"/><path fill="none" stroke="#000" stroke-linecap="round" stroke-miterlimit="3" stroke-width="6" d="M2204.8 1510c12.2 5.1 22.2 13.5 29.9 25.3-.1-1.8-1.7-5.6-4.9-11.4-39.4-70.7-106.3-133.2-200.9-187.3-28.7 40.9-37.3 87.9-25.8 141 7.9 29.6 28.8 50.5 62.8 62.8 30.9 3.5 49.7-.2 56.6-11 .3-3.5 1.7-7 4.2-10.6m-4.1 10.6c1.3 11.7 4.7 19.6 10.5 23.8 5.7 4.2 14 6.4 24.7 6.5 6.4.1 11.8-1.7 16-5.5 2.8-2.6 5.2-6 7-10.4m-7 10.4l21 22.6c15.1 4.2 23.1-.9 24-15.2-7.6-13.7-17.4-24.8-29.2-33.2m29.2 33.2c11.2-2.1 16.5-10.8 15.9-26.3"/></svg>