<svg xmlns="http://www.w3.org/2000/svg" id="tatoo_x5F_b" viewBox="0 0 3000 3000"><path id="cl1" fill="#C3D1E0" d="M929.6 1313l-77.9 57.8c-22.6 16-44.6 33.3-66.1 51.8-2 1.7-4 3.5-6 5.3-21.5 26.7-40.2 54.5-56 83.3-9.4 17.1-17.7 34.6-25.1 52.5 1.9.6 4 1.2 6.3 1.6 1 13.7 7.5 20.5 19.5 20.5 3.5-.1 7.5-.7 12-1.8l28.6-28.4c4.4 5 12.3 7.1 23.8 6.3 11.5-.7 21.5-4.9 29.9-12.8 8.5-7.8 13.4-15.8 14.7-24.2 17.7 10.1 44.5 9.1 80.6-3 7.1-2.4 13.9-5.6 20.2-9.6 15.1-9.6 28-22.6 38.8-38.9 6-8.7 10-18.5 12-29.5 5.6-25.8 4.7-48.5-2.5-68.3-8.7-23.3-26.3-44.1-52.8-62.6z"/><path id="hl1" fill="#FFF" d="M698.5 1563.6c7.4-17.9 15.7-35.4 25.1-52.5 15.8-28.8 34.4-56.5 56-83.3-19.6 17.5-39.8 38.5-60.8 62.9-23.1 26.9-34.8 44.2-34.9 51.8-.4 10.6 4.4 17.6 14.6 21.1z"/><path id="sd1" d="M887.7 1427.8c-3.5-5.7-11.6-9-24.4-10-28.7 2.5-43.1 17.6-43.2 45.3-.4 12.3 3.3 20.8 10.8 25.4 9.2 1.9 19.9-.1 32-6 .9-.4 1.7-.8 2.5-1.2 12.8-6.6 21.4-17.7 25.7-33.3 1.3-7.8.1-14.5-3.4-20.2z"/><path fill="none" stroke="#000" stroke-linecap="round" stroke-miterlimit="3" stroke-width="6" d="M828.9 1510.3c3.2 4.2 4.6 9 4.3 14.5 17.7 10.1 44.5 9.1 80.6-3 7.1-2.4 13.9-5.6 20.2-9.6 15.1-9.6 28-22.6 38.8-38.9 6-8.7 10-18.5 12-29.5 5.6-25.8 4.7-48.5-2.5-68.3-8.5-23.1-26-43.9-52.6-62.5l-77.9 57.8c-22.6 16-44.6 33.3-66.1 51.8-2 1.7-4 3.5-6 5.3-19.6 17.5-39.8 38.4-60.8 62.8-23.1 26.9-34.8 44.2-34.9 51.8 13.6-15.5 26.9-26 39.8-31.4l1.5-.6m107.9 14.3c-1.3 8.4-6.2 16.4-14.6 24.2-8.5 7.8-18.4 12-29.9 12.8-11.5.7-19.4-1.4-23.8-6.4l-28.6 28.4c-4.4 1.1-8.4 1.7-12 1.8-12 0-18.5-6.8-19.5-20.5-2.3-.4-4.4-.9-6.3-1.6-10.2-3.5-15.1-10.5-14.7-21.1m81 13l-8.6-9.8m-12.7-14.3c-17.5 11-30.4 22.2-38.8 33.8"/></svg>