<svg xmlns="http://www.w3.org/2000/svg" id="tatoo_x5F_b" viewBox="0 0 3000 3000"><path id="sd1" fill="#1A1A1A" d="M1221.2 1510.9c-7.1 13.6-13.7 28.5-19.9 44.8-10.4 30.3-8.3 53.5 6.4 69.7 17.5 14.7 39.2 16.5 65.1 5.2 2.8-1.4 5.3-3.1 7.7-5.1 3.3-2.9 6.2-5.8 8.5-8.4 6.5 19.7 1 42.1-16.4 67.1 13.8-3.3 34.1-5 61-5.3-20.4-17.3-30.3-38.1-29.8-62.2v-1.6c-48.2-55.9-75.8-90.6-82.6-104.2z"/><path id="cl1" fill="#4D4D4D" d="M1273.3 1445.9c-4.7 1.6-9.5 5-14.3 10.1-.3.3-.6.7-1 1-.1.1-.1.2-.3.3-13.3 14.5-25.5 32.3-36.6 53.6 6.9 13.6 34.4 48.3 82.7 104.3 5.2 3.8 10.1 7 14.7 9.5 9.3 5.2 19.5 7.4 30.7 6.6 21.8-5.3 34.5-20.5 38.3-45.6-1.9-45.2-32-90.6-90.3-136.5-8.4-4.3-16.3-5.4-23.9-3.3z"/></svg>