<svg xmlns="http://www.w3.org/2000/svg" id="tatoo_x5F_b" viewBox="0 0 3000 3000"><path id="sd1" fill="#1A1A1A" d="M1291.5 1617.3c-4 23.2-11.3 39.7-22 49.5l63.3-3.9-41.3-45.6m-77.1-115.3c-31 7.5-45.5 31-43.6 70.4 9.9 30.7 25.3 46.6 46 47.6 7.5 1.1 15.7.2 24.5-2.5l33.7-21-60.6-94.5z"/><path id="cl1" fill="#4D4D4D" d="M1344.8 1478.5c4.3-32.6-6.3-56.4-32-71.3-22-9-41-3.4-57.2 16.8-12.3 17.6-14.8 38-7.5 61.2 0 .2.1.3.1.4l14.2 30.9c-20.5-11-36.5-15.8-48-14.4l60.5 94.4 19-12c.1 12.1-.8 23.1-2.5 32.9l41.3 45.6 16.5-1c-19.2-14.7-31.1-40.9-35.8-78.7 20 10.5 39.9 19 59.6 25.6 6.5 1.7 13.4 1.7 20.8 0 27.2-8.4 40.3-30.8 39.2-67.2-4.5-27.3-19.6-44.1-45.2-50.4-4.8-.9-9.9-.9-15.2 0-9.7 2-22.5 8.8-38.4 20.4 5.3-13.7 8.8-24.7 10.6-33.2z"/></svg>