<svg xmlns="http://www.w3.org/2000/svg" id="图层_2" viewBox="0 0 3000 3000"><path id="cl1" fill="#090909" d="M1771.232 1479.157c-27.14 40.211-87.75 64.362-82.819 33.381 5.823-36.603-14.24-38.325-14.24-38.325s.682 18.561-11.477 18.99c-12.166-.447-11.45-19.007-11.45-19.007s-20.063 1.683-14.309 38.292c4.879 30.988-64.676 7.159-91.738-33.103-33.654-50.06-90.232-58.843-186.528-26.685 0 0 112.744-6.349 116.236 96.84 0 0 96.959-3.304 83.967 44.553 0 0 78.245-26.423 75.04 35.846 0 0 7.305-26.692 28.682-26.674s28.633 26.72 28.633 26.72c-3.104-62.265 66.11-36.142 66.11-36.142-12.899-47.885 71.061-45.05 71.061-45.05 3.683-103.177 108.416-97.03 108.416-97.03-96.223-32.323-131.855-22.601-165.584 27.394z"/></svg>