<svg xmlns="http://www.w3.org/2000/svg" id="图层_2" viewBox="0 0 3000 3000"><path id="cl1" fill="#009092" d="M759.461 1452.456c44.566 23.426 20.873 10.044 59.677 37.319 18.085 11.047 30.539 27.349 37.347 48.851 6.833 21.529 3.194 41.221-10.919 59.095-17.233 21.796-38.077 32.24-62.122 14.33-12.367-9.213-26.775-37.38-2.042-42.078 34.696-6.603-2.499 37.803 2.478 10.041-1.474 1.045-4.488 3.852-5.461 5.375 4.479 18.722 30.114 10.421 31.687-6.337 2.225-23.595-33.1-34.994-50.106-24.711-25.177 15.226-13.588 53.363 2.659 70.1 33.438 34.408 90.681 18.269 118.213-15.793 32.058-39.643 37.041-90.354 23.267-138.816-2.366-8.322-9.592-26.53-21.628-54.59-12.071-28.089-16.255-44.851-19.909-47.741 0 0-27.616 19.832-51.275 38.582s-50.313 44.393-51.866 46.373z"/></svg>