<svg xmlns="http://www.w3.org/2000/svg" id="图层_3" viewBox="0 0 3000 3000"><path id="cl1" fill="#2962FF" d="M1664.722 1646.677c1.098-.055 2.561-.133 4.017-.305 1.456-.158 2.916-.289 4.004-.441a850.43 850.43 0 0 0 1.811-.275c1.588-.254 2.909-1.228 3.352-2.601 0 0 1.174-3.515 2.113-6.991a95.855 95.855 0 0 0 1.197-4.811l.474-2.195c.28-1.365 1.279-2.4 2.573-2.787l4.283-1.361a3399.67 3399.67 0 0 0 4.213-1.562l4.129-1.771 4.041-1.966c1.203-.613 2.643-.551 3.787.246 0 0 .742.504 1.855 1.265a98.17 98.17 0 0 0 4.182 2.659c3.077 1.871 6.352 3.607 6.352 3.607 1.266.69 2.895.484 4.219-.424 0 0 .602-.418 1.502-1.049.893-.639 2.043-1.551 3.205-2.441 1.174-.879 2.288-1.83 3.121-2.547.836-.715 1.393-1.189 1.393-1.189 1.239-1.026 1.739-2.652 1.4-4.017 0 0-.23-.885-.578-2.214-.361-1.327-.833-3.047-1.401-4.795-1.103-3.482-2.372-6.795-2.372-6.795-.469-1.271-.251-2.738.639-3.758 0 0 1.504-1.67 2.865-3.462.697-.882 1.403-1.755 1.877-2.454l.816-1.143s1.333-1.811 2.516-3.723c.611-.943 1.225-1.885 1.629-2.624l.705-1.216a3.785 3.785 0 0 1 3.335-1.835s3.554.121 7.21.03c3.594-.095 7.262-.416 7.262-.416 1.424-.111 2.752-1.131 3.33-2.629l.68-1.695c.426-1.01.908-2.391 1.383-3.772.479-1.382.965-2.761 1.254-3.818l.516-1.753c.473-1.535.071-3.157-.981-4.129 0 0-2.688-2.527-5.441-4.826-2.815-2.338-5.683-4.445-5.683-4.445a3.791 3.791 0 0 1-1.48-3.506l.199-1.391c.137-.832.253-1.949.348-3.07.096-1.119.229-2.236.265-3.078l.063-1.404.063-1.402c.055-.842.062-1.965.047-3.091-.014-1.124.008-2.247-.035-3.089l-.075-1.402c-.083-1.35.667-2.641 1.827-3.35 0 0 3.041-1.818 6.053-3.874a95.093 95.093 0 0 0 4.076-2.903l1.818-1.383c1.109-.861 1.703-2.447 1.39-4.023l-.366-1.793c-.241-1.07-.477-2.52-.87-3.929-.368-1.417-.735-2.833-1.013-3.894-.291-1.059-.524-1.75-.524-1.75-.478-1.531-1.669-2.684-3.051-2.939 0 0-.892-.172-2.263-.386a142.553 142.553 0 0 0-4.965-.701c-1.797-.222-3.57-.402-4.906-.513l-2.248-.154c-1.387-.086-2.597-.91-3.131-2.152 0 0-.212-.52-.594-1.271l-1.361-2.773c-.479-1.018-1.071-1.975-1.465-2.72l-.682-1.228s-.254-.503-.702-1.216l-1.634-2.624c-.574-.968-1.244-1.872-1.719-2.568l-.801-1.153c-.75-1.127-.911-2.545-.289-3.791l.98-2.014c.572-1.211 1.357-2.88 2.045-4.531 1.404-3.307 2.646-6.791 2.646-6.791.501-1.354.086-2.956-1.02-4.122 0 0-1.981-2.16-4.129-4.155a55.636 55.636 0 0 0-2.963-2.726l-1.379-1.203c-1.197-1.074-2.861-1.354-4.172-.812 0 0-3.398 1.381-6.648 2.959-3.29 1.59-6.391 3.324-6.391 3.324-1.193.648-2.668.628-3.808-.1 0 0-1.866-1.254-3.833-2.343-1.926-1.163-3.943-2.155-3.943-2.155s-1.98-1.066-4.041-1.962c-2.025-.976-4.133-1.766-4.133-1.766-1.25-.514-2.124-1.692-2.287-3.043 0 0-.383-3.533-.992-7.139-.599-3.553-1.438-7.132-1.438-7.132-.314-1.389-1.51-2.568-3.074-2.926 0 0-.711-.171-1.777-.43-1.063-.277-2.494-.569-3.934-.835-2.865-.602-5.772-.963-5.772-.963-1.588-.242-3.136.37-3.948 1.557 0 0-2.121 3.025-4.008 6.078-1.912 3.108-3.59 6.258-3.59 6.258-.655 1.208-1.906 1.933-3.26 1.962l-1.404.006a39.243 39.243 0 0 0-3.089.091l-3.085.172-1.398.145-1.397.145c-.839.08-1.957.198-3.065.39-1.109.173-2.221.344-3.054.473l-1.377.28c-1.324.272-2.699-.247-3.577-1.331 0 0-2.232-2.744-4.693-5.425-2.447-2.712-5.082-5.234-5.082-5.234-1.012-.983-2.646-1.297-4.174-.81 0 0-.688.24-1.715.619l-3.761 1.399-3.688 1.579c-1.006.433-1.67.733-1.67.733-1.442.7-2.41 2.053-2.466 3.464 0 0-.171 3.643-.074 7.294.063 3.639.337 7.166.337 7.166.113 1.391-.526 2.715-1.674 3.43 0 0-.477.298-1.189.746l-2.539 1.763a41.012 41.012 0 0 0-2.49 1.83l-1.112.858-1.112.858-2.354 2.003a39.459 39.459 0 0 0-2.301 2.063l-1.022.963c-1 .912-2.406 1.249-3.715.825 0 0-3.387-1.126-6.913-2.06-3.471-.912-7.092-1.642-7.092-1.642-1.407-.299-2.951.323-3.935 1.594 0 0-1.857 2.264-3.519 4.675-.858 1.185-1.694 2.384-2.274 3.316l-.99 1.537c-.887 1.338-.94 3.016-.211 4.238 0 0 1.859 3.172 3.873 6.16a138.874 138.874 0 0 0 4.202 5.855c.812 1.089.991 2.547.439 3.781 0 0-.981 2.024-1.776 4.126-.876 2.072-1.576 4.209-1.576 4.209s-.778 2.109-1.371 4.279c-.675 2.143-1.162 4.339-1.162 4.339-.325 1.313-1.379 2.343-2.69 2.696 0 0-3.441.881-6.921 1.996a127.485 127.485 0 0 0-6.857 2.439c-1.322.51-2.336 1.861-2.462 3.463l-.171 1.821a56.817 56.817 0 0 0-.27 4.019c-.18 2.924-.126 5.855-.126 5.855.002 1.607.805 3.055 2.101 3.689 0 0 3.303 1.666 6.6 3.097 1.636.722 3.354 1.39 4.604 1.872 1.259.471 2.099.783 2.099.783 1.31.475 2.171 1.614 2.403 2.947l.215 1.387c.137.832.275 1.95.525 3.046l.625 3.026c.166.826.33 1.366.33 1.366l.352 1.36c.227.809.459 1.912.813 2.979l.926 2.949c.242.807.446 1.33.446 1.33.47 1.269.16 2.699-.784 3.717l-1.523 1.662c-.892 1-2.052 2.354-3.201 3.752a144.192 144.192 0 0 0-3.115 3.932 73.953 73.953 0 0 0-1.371 1.838c-.826 1.137-.896 2.793-.186 4.232 0 0 .307.662.824 1.628l1.951 3.521c.688 1.291 1.514 2.504 2.078 3.445l.97 1.553c.858 1.357 2.383 2.098 3.78 1.957l2.271-.251a96.423 96.423 0 0 0 4.954-.706c3.6-.586 7.057-1.367 7.057-1.367 1.328-.283 2.761.135 3.631 1.168l.912 1.07c.549.639 1.34 1.439 2.104 2.262.765.826 1.543 1.635 2.163 2.207a1117.713 1117.713 0 0 1 2.026 1.948c.607.585 1.474 1.301 2.315 2.049.841.744 1.694 1.475 2.366 1.983l1.104.87a3.792 3.792 0 0 1 1.344 3.561s-.625 3.503-1.053 7.138c-.41 3.564-.617 7.247-.617 7.247-.092 1.43.734 2.882 2.134 3.668 0 0 .632.367 1.582.914.938.568 2.242 1.23 3.541 1.902 1.297.674 2.598 1.342 3.603 1.781.996.457 1.661.76 1.661.76 1.451.687 3.115.51 4.224-.389 0 0 2.879-2.297 5.549-4.707a139.654 139.654 0 0 0 5.203-4.988 3.778 3.778 0 0 1 3.681-.971l1.347.396c.805.257 1.898.518 2.99.778 2.175.57 4.389.963 4.389.963l1.379.268c.824.178 1.939.324 3.053.484 2.22.357 4.461.531 4.461.531 1.347.125 2.517 1.039 3.053 2.282 0 0 1.363 3.276 2.965 6.559.793 1.657 1.637 3.229 2.289 4.44l1.107 2.002c.693 1.221 2.178 2.057 3.783 1.945l1.819-.097zm-13.498-39.035c-1.884-.161-3.436-.463-4.53-.596l-1.703-.332-1.703-.331a815.78 815.78 0 0 0-1.936-.474 27.83 27.83 0 0 1-2.494-.672c-3.645-1.027-8.406-2.795-12.891-5.129-4.502-2.301-8.695-5.154-11.641-7.525-1.517-1.135-2.637-2.249-3.49-2.947-.817-.738-1.258-1.19-1.258-1.19l-1.25-1.196c-.76-.799-1.871-1.917-3.109-3.342-2.512-2.817-5.547-6.863-8.04-11.25-2.526-4.367-4.499-9.066-5.733-12.658-.542-1.816-1.08-3.307-1.313-4.386l-.438-1.679s-.184-.606-.385-1.691c-.221-1.08-.571-2.617-.82-4.49-.575-3.731-.954-8.77-.693-13.805.226-5.037 1.086-10.032 2.029-13.699.416-1.848.959-3.338 1.232-4.408l.574-1.639.567-1.643c.45-1.01.938-2.52 1.765-4.227 1.533-3.465 3.956-7.926 6.899-12.028 2.914-4.125 6.33-7.86 9.092-10.433 2.748-2.594 4.769-4.104 4.769-4.104s1.953-1.59 5.113-3.667c3.146-2.092 7.604-4.502 12.318-6.386s9.605-3.209 13.327-3.864c3.72-.671 6.233-.867 6.233-.867s2.504-.297 6.282-.312c3.774-.04 8.823.312 13.778 1.292 4.961.944 9.791 2.506 13.289 3.96 1.776.667 3.17 1.423 4.191 1.846l1.543.798 1.546.792c.937.587 2.355 1.292 3.931 2.345 3.211 2.005 7.277 5.032 10.911 8.526 3.66 3.467 6.858 7.38 9.015 10.48 1.109 1.529 1.915 2.885 2.5 3.82.603.924.887 1.488.887 1.488l.84 1.518c.576.942 1.213 2.395 2.072 4.084 1.581 3.453 3.39 8.217 4.57 13.122 1.217 4.897 1.805 9.919 1.928 13.694.086 1.885.049 3.461.05 4.561l-.081 1.73s-.008.631-.089 1.73c-.138 1.094-.182 2.674-.499 4.541-.5 3.746-1.571 8.704-3.246 13.475-1.643 4.782-3.873 9.344-5.805 12.6-.459.83-.914 1.57-1.346 2.207l-1.076 1.678-1.005 1.413s-.365.515-1.005 1.413c-.701.852-1.618 2.141-2.872 3.557-2.437 2.889-6.006 6.476-9.983 9.566-3.953 3.123-8.292 5.726-11.675 7.43l-2.321 1.143c-.709.305-1.328.569-1.838.787-1.017.443-1.599.694-1.599.694l-1.636.601-1.873.695-2.471.771c-3.626 1.096-8.564 2.201-13.58 2.663-5.009.503-10.067.366-13.824-.05z"/><path id="sd1" fill="#1A237E" d="M1667.865 1592.087l1.244-.256c.744-.17 1.747-.342 2.727-.619l3.884-1.215c1.076-.307 1.82-1.215 1.979-2.089 0 0 .408-2.31.629-4.549.258-2.212.254-4.5.254-4.5a2.487 2.487 0 0 1 1.292-2.131s1.339-.683 2.54-1.584l2.464-1.704 2.283-1.941c1.179-.93 2.185-2.046 2.185-2.046a2.488 2.488 0 0 1 2.392-.698s2.21.594 4.412.916c2.221.364 4.561.564 4.561.564.885.071 1.953-.412 2.527-1.373 0 0 1.086-1.72 2.174-3.439.521-.872.946-1.8 1.302-2.475l.57-1.136a3.516 3.516 0 0 0 .378-1.52 2.448 2.448 0 0 0-.432-1.34s-1.355-1.925-2.796-3.67a63.364 63.364 0 0 0-2.004-2.329c-.565-.617-.974-1.022-.974-1.022a2.506 2.506 0 0 1-.609-2.424l.251-.902c.177-.536.309-1.272.436-2.013l.53-2.948.249-2.987c.065-.748.131-1.494.098-2.058a196.78 196.78 0 0 0-.012-.938c-.01-.9.461-1.737 1.213-2.185 0 0 .502-.285 1.207-.734a63.785 63.785 0 0 0 2.538-1.735 69.992 69.992 0 0 0 3.648-2.823 2.43 2.43 0 0 0 .76-1.185 3.472 3.472 0 0 0 .027-1.565l-.259-1.246c-.17-.742-.34-1.747-.617-2.725-.609-1.941-1.215-3.883-1.215-3.883-.309-1.076-1.215-1.821-2.088-1.979 0 0-2.311-.409-4.551-.631-2.212-.257-4.499-.253-4.499-.253a2.49 2.49 0 0 1-2.131-1.292s-.685-1.338-1.583-2.539l-1.705-2.467s-.972-1.14-1.941-2.281c-.93-1.18-2.046-2.187-2.046-2.187a2.477 2.477 0 0 1-.698-2.391s.594-2.208.914-4.412c.366-2.222.566-4.559.566-4.559.072-.886-.412-1.954-1.372-2.528l-3.44-2.175c-.872-.521-1.799-.945-2.475-1.3-.68-.344-1.135-.571-1.135-.571a3.48 3.48 0 0 0-1.52-.378 2.423 2.423 0 0 0-1.341.431s-1.926 1.357-3.669 2.796a62.717 62.717 0 0 0-2.33 2.003 31.58 31.58 0 0 0-1.021.977 2.513 2.513 0 0 1-2.426.609l-.902-.253c-.534-.178-1.273-.307-2.012-.436l-2.948-.528-2.989-.251c-.746-.065-1.492-.131-2.056-.099l-.937.012a2.511 2.511 0 0 1-2.186-1.213s-.285-.499-.734-1.205a63.017 63.017 0 0 0-1.735-2.538c-1.313-1.839-2.823-3.648-2.823-3.648a2.456 2.456 0 0 0-1.184-.762 3.463 3.463 0 0 0-1.566-.026l-1.245.258c-.744.17-1.747.342-2.727.619l-3.884 1.215c-1.076.307-1.82 1.213-1.977 2.087 0 0-.411 2.312-.631 4.551-.258 2.212-.254 4.5-.254 4.5a2.48 2.48 0 0 1-1.292 2.129s-1.337.685-2.54 1.586l-2.464 1.704s-1.142.97-2.281 1.941a20.17 20.17 0 0 0-2.188 2.047 2.485 2.485 0 0 1-2.391.697s-2.21-.594-4.412-.916a68.827 68.827 0 0 0-4.559-.564c-.887-.071-1.955.412-2.528 1.373l-2.175 3.439c-.521.872-.944 1.8-1.302 2.473-.341.683-.57 1.136-.57 1.136a3.53 3.53 0 0 0-.378 1.521c.01.497.173.972.432 1.34 0 0 1.357 1.925 2.796 3.668a63.594 63.594 0 0 0 2.004 2.331c.564.617.976 1.022.976 1.022.611.626.853 1.556.607 2.424l-.251.902c-.177.536-.309 1.272-.436 2.011-.267 1.476-.528 2.951-.528 2.951l-.251 2.986c-.065.746-.131 1.494-.098 2.058.005.562.011.936.011.936a2.513 2.513 0 0 1-1.213 2.187s-.501.283-1.207.734a63.824 63.824 0 0 0-2.537 1.735 69.462 69.462 0 0 0-3.646 2.823 2.426 2.426 0 0 0-.762 1.185 3.456 3.456 0 0 0-.027 1.565l.259 1.246c.169.742.341 1.747.619 2.725l1.213 3.883c.309 1.076 1.215 1.821 2.088 1.979 0 0 2.313.409 4.551.631 2.212.257 4.499.253 4.499.253a2.49 2.49 0 0 1 2.131 1.292s.685 1.338 1.583 2.539c.853 1.232 1.704 2.465 1.704 2.465l1.944 2.283a20.225 20.225 0 0 0 2.044 2.185 2.49 2.49 0 0 1 .7 2.393s-.594 2.208-.916 4.412a69.211 69.211 0 0 0-.565 4.559c-.071.886.413 1.954 1.373 2.528l3.438 2.175c.873.519 1.801.945 2.474 1.3.681.344 1.136.571 1.136.571a3.48 3.48 0 0 0 1.52.378c.498-.01.972-.172 1.343-.431 0 0 1.924-1.357 3.667-2.796a62.979 62.979 0 0 0 2.33-2.003 30.326 30.326 0 0 0 1.021-.977 2.514 2.514 0 0 1 2.426-.608l.902.252c.536.176 1.273.307 2.012.436l2.95.528s1.494.126 2.987.249c.746.067 1.492.131 2.055.099.563-.006.938-.012.938-.012a2.515 2.515 0 0 1 2.187 1.215s.284.499.735 1.205c.449.694 1.07 1.62 1.733 2.538a70.042 70.042 0 0 0 2.825 3.648c.287.343.703.624 1.184.762a3.471 3.471 0 0 0 1.565.025zm-12.181-22.897c-.469-.039-.88-.073-1.215-.103l-1.063-.075-1.047-.202c-.332-.058-.737-.131-1.202-.214-.233-.039-.479-.079-.742-.124-.252-.075-.521-.154-.798-.234l-1.805-.502c-.641-.176-1.271-.491-1.952-.734l-1.033-.388c-.348-.135-.667-.338-1.011-.503-.667-.357-1.381-.662-2.048-1.046a76.536 76.536 0 0 0-1.938-1.235l-.482-.297-.436-.354c-.291-.229-.581-.457-.862-.683-1.191-.823-2.094-1.846-2.95-2.622-.443-.374-.77-.803-1.072-1.165-.307-.358-.572-.673-.792-.932l-.704-.804-.594-.885-.698-1.007c-.271-.388-.602-.811-.847-1.337-.53-1.027-1.284-2.161-1.774-3.526l-.438-1.009-.228-.513-.162-.542c-.22-.727-.451-1.46-.694-2.192-.198-.742-.309-1.51-.481-2.248-.071-.373-.186-.735-.226-1.105l-.11-1.097c-.058-.722-.2-1.412-.204-2.077-.008-.665-.012-1.292-.02-1.872l-.02-.833c.023-.265.047-.514.069-.749l.104-1.217.075-1.063s.071-.38.2-1.045c.061-.333.132-.738.215-1.203.038-.231.081-.48.123-.74.077-.255.154-.521.237-.799l.499-1.805c.178-.642.494-1.272.735-1.953l.388-1.034c.137-.347.339-.667.503-1.008.356-.669.661-1.381 1.047-2.048.425-.645.837-1.294 1.234-1.94l.297-.481.353-.437.683-.861c.825-1.192 1.848-2.093 2.625-2.95.372-.444.8-.768 1.162-1.072l.932-.793.806-.702.884-.596c.281-.192.619-.426 1.007-.696.387-.271.812-.602 1.338-.848 1.027-.528 2.162-1.284 3.525-1.774l1.01-.436.513-.228.542-.164a77.81 77.81 0 0 0 2.192-.692c.743-.2 1.509-.311 2.249-.484.37-.071.732-.183 1.103-.226.372-.036.737-.073 1.1-.107.721-.058 1.411-.203 2.074-.207.666-.005 1.294-.011 1.875-.017.289-.008.566-.016.833-.021l.748.069 1.215.104 1.064.075 1.045.2c.332.06.736.133 1.201.214.233.041.48.081.743.126l.798.235 1.805.501c.641.176 1.273.491 1.953.732.338.13.684.259 1.032.39.347.135.667.338 1.011.502.667.358 1.38.663 2.048 1.047.644.424 1.292.837 1.938 1.235l.482.298.438.351c.289.231.578.459.86.683 1.191.825 2.094 1.848 2.95 2.624.445.374.77.801 1.072 1.163l.794.934.702.804.594.886c.193.279.429.616.698 1.006.27.388.602.811.849 1.337.528 1.027 1.284 2.161 1.771 3.526.146.33.29.667.438 1.009l.228.513.161.542c.221.727.452 1.46.694 2.192.199.742.309 1.51.482 2.248.071.373.186.735.226 1.105l.11 1.097c.058.722.2 1.412.204 2.077.008.663.012 1.292.02 1.872l.021.833-.071.749c-.038.468-.073.879-.104 1.217l-.073 1.063-.203 1.045-.214 1.201c-.038.233-.081.482-.123.742l-.235.799-.502 1.805c-.175.642-.493 1.272-.734 1.953l-.388 1.032c-.135.347-.339.669-.503 1.01-.356.669-.661 1.381-1.047 2.048a82.245 82.245 0 0 0-1.234 1.938l-.297.481-.353.438c-.23.291-.457.578-.684.861-.823 1.192-1.845 2.093-2.622 2.95-.374.444-.802.768-1.165 1.072-.36.305-.673.573-.931.793-.514.445-.805.702-.805.702l-.885.596c-.279.192-.619.426-1.007.696-.388.271-.81.602-1.338.848-1.028.528-2.16 1.284-3.525 1.772-.331.145-.667.289-1.01.438l-.512.228-.542.164a77.81 77.81 0 0 0-2.192.692c-.744.2-1.51.311-2.248.484-.372.069-.734.183-1.105.224-.37.038-.736.073-1.099.109-.722.058-1.411.203-2.075.207-.665.005-1.292.011-1.874.017-.289.008-.567.016-.831.021a52.68 52.68 0 0 1-.748-.069z"/></svg>