<svg xmlns="http://www.w3.org/2000/svg" id="tatoo_x5F_b" viewBox="0 0 3000 3000"><path id="hl1" fill="#4D4D4D" d="M2175.7 1854.8l7.9 8.8c26.3-51.5 47.9-100.1 64.8-145.8-22.1 19.1-42.3 45.6-60.6 79.4l-12.1 57.6m49.9-269.2c20.8 32.5 30.5 68.6 29 108.3 9.8-26.8 14.3-46.3 13.4-58.4-14.5-28.1-28.6-44.7-42.4-49.9m-87.4 30.7c1.4 3.1 2.4 5.5 3.1 7.2 2.2 4.2 4.1 8.7 5.7 13.7l7.6-6.2c-4.7-5.8-10.2-10.7-16.4-14.7m107.4 22.7c-13.6 4-27 11.5-40 22.3-3.4 20.9-4.9 37.7-4.3 50.5 12.8-27.9 27.6-52.2 44.3-72.8z"/><path id="cl1" fill="#1A1A1A" d="M2090.5 1867.5l-5.7 27.1c15.6 8.3 35.1 10.9 58.7 7.6 8.3-1.9 15.4-4.2 21.3-7l3.6-6 4.5-21.6-3.7-4.5c-5.3 4.9-13.8 9-25.5 12.5-19.4 2-37.2-.7-53.2-8.1m64.2-236.5l-7.6 6.2c4.6 14.1 6.7 31.5 6.5 52.1 1.5 31-5.3 66.6-20.4 106.8l-7.9-3.6c2.8-58.1-3.3-101.3-18.4-129.6l-6.2 8.3c9.9 57.2 10.3 106.1 1.3 146.7 19.2 4.9 33.9 10.1 44.1 15.7-1 5.5-5.7 11.1-14.1 16.8-8.4 5.7-19.3 7.1-32.6 4.4 28.5 16.8 52 14.7 70.6-6.2l5.7 6.3 12.2-57.5c-3.4 6.3-6.8 12.9-10.1 19.8l-7-4.2c2.4-19.4 8-42 16.8-67.8 4.3-11.6 8.9-22.6 13.7-33.2-.6-12.8.8-29.6 4.3-50.5-9.8 8.2-19.4 18.2-29 30.3-2.7-26.1-10-46.3-21.9-60.8z"/><path id="sd1" d="M2061.5 1846.9l-2 24c6.8 10.3 15.2 18.2 25.3 23.6l5.7-27.1-1.2-.6c-10-4.7-19.3-11.4-27.8-19.9m39.2-175.9l-11.3 15c8.8 19.2 12.3 52.2 10.4 99l-29.8-5.1c-2.8 9.3-4.4 19.3-4.8 30 13.6 2.5 25.9 5.1 36.7 7.8 9.1-40.6 8.7-89.5-1.2-146.7z"/></svg>