<svg xmlns="http://www.w3.org/2000/svg" id="图层_2" viewBox="0 0 3000 3000"><path id="cl1" fill="#B5B5CA" d="M1072.049 1405.351c43.768-30.063 46.259-94.723 4.893-128.013-30.784-23.275-82.606-16.08-97.871 22.786-8.464 21.837-2.134 50.821 22.277 61.215 16.703 4.557 39.235 1.432 41.546-14.972 3.26-9.636 3.638-23.462-9.881-21.584-7.063-1.308-7.765 10.258-17.094 9.253-7.069-1.316-10.88-12.256-7.324-19.646 9.08-17.338 29.356-20.148 44.44-10.77 17.967 13.576 21.096 36.124 12.335 55.704-16.838 27.601-48.067 34.231-77.603 19.973-17.337-9.08-26.606-26.159-31.36-43.874-3.322-16.35-3.219-33.988 6.135-46.642 6.034-8.163 41.791-28.781 41.791-28.781s20.6-13.583 27.75-13.857c38.98-1.496 75.183 25.125 86.224 64.485 10.777 44.438-7.747 92.941-48.366 114.667-34.484 16.27-75.358 19.654-108.674-2.232-4.684-.766-8.467-1.378-11.878-1.936-30.697-4.029-65.552-29.022-56.638-60.237 4.653-16.295 1.375-7.24 12.248-21.641 3.63-4.795 8.214-8.735 12.979-12.482 1.573 33.703-3.51 37.44 23.091 63.595 32.043 32.301 77.051 42.133 116.089 24.264a90.981 90.981 0 0 0 14.891-9.275z"/></svg>