<svg xmlns="http://www.w3.org/2000/svg" id="图层_3" viewBox="0 0 3000 3000"><path id="cl1" fill="#B5B5CA" d="M1889.625 1415.959c38.428 31.2 98.618 16.459 119.157-29.219 13.905-33.601-5.425-77.994-44.979-81.429-22.197-1.829-47.352 11.43-50.948 35.958-.105 16.112 8.295 35.417 23.977 33.175 9.679.384 22.51-2.907 17.467-14.488-.523-6.651-11.354-4.243-12.715-12.838-.52-6.658 8.627-12.932 16.31-11.695 18.201 3.559 25.76 20.93 20.813 36.862-8.106 19.608-28.116 28.319-48.305 25.633-29.56-7.796-43.321-33.946-37.42-64.065 4.117-17.866 17.584-30.625 32.743-39.52 14.251-7.257 35.2-13.14 49.153-8.105 9 3.246 33.088 28.118 33.088 28.118s16.565 17.833 18.568 24.147c10.933 34.42-4.727 73.737-38.291 93.926-38.306 21.284-87.538 17.469-117.511-13.107-23.441-26.528-36.577-62.144-24.574-97.641-.441-4.383-.805-7.923-1.127-11.116-3.811-28.473 10.679-66.354 41.626-66.388 13.51-.015 7.008.329 22.942 6.261 5.309 1.984 11.063 4.043 15.682 7.315-30.67 10.249-36.36 6.69-53.941 37.309-21.911 37.093-19.942 79.87 6.091 110.045a82.847 82.847 0 0 0 12.194 10.862z"/></svg>