<svg xmlns="http://www.w3.org/2000/svg" id="图层_2" viewBox="0 0 3000 3000"><path id="cl1" fill="#5FE4F9" d="M1812.976 1645.807c17.016 0 30.861-13.615 30.861-30.634 0-17.013-13.846-31.197-30.861-31.197-14.598 0-26.832 11.268-30.023 23.497h-32.037v-62.557l32.037-35.279h40.068c3.625 12.229 15.553 23.045 29.701 23.045 17.016 0 30.861-13.612 30.861-30.632 0-17.015-13.846-31.197-30.861-31.197-13.482 0-24.945 8.21-29.135 20.44h-48.23l-42.785 46.022v88.503h51.725c4.528 12.23 15.661 19.989 28.679 19.989z"/><path id="cl2" fill="#5FE4F9" d="M1852.722 1487.66c8.063 0 14.619 6.56 14.619 14.618s-6.557 14.618-14.619 14.618c-8.061 0-14.617-6.561-14.617-14.618 0-8.059 6.556-14.618 14.617-14.618zm-54.363 127.741c0-8.062 6.557-14.618 14.617-14.618 8.063 0 14.619 6.557 14.619 14.618s-6.557 14.617-14.619 14.617c-8.061 0-14.617-6.556-14.617-14.617z"/></svg>