<svg xmlns="http://www.w3.org/2000/svg" id="图层_3" viewBox="0 0 3000 3000"><path id="cl1" fill="#555959" fill-rule="evenodd" d="M1319.272 1640.887c-14.389 1.931-58.7 8.92-81.474-22.468-22.411-30.889-23.513-82.389 28.717-99.232 15.904-5.126 17.945-17.794 18.824-26.988 1.554-16.216-12.943-35.013-36.407-27.364 7.957 1.237 13.325 9.92 13.695 16.855.531 9.644-3.011 16.574-11.402 22.473-11.414 8.029-28.545 4.816-38.662-7.664-4.813-5.934-7.509-14.544-5.348-26.92 3.491-20.037 25.616-34.761 44.61-35.808 22.821-1.255 36.346 8.411 44.75 19.859 13.609 18.541 17.853 38.939 1.507 67.333 28.35 7.268 52.598 48.399 8.43 79.641-9.428 6.671-31.643 5.423-39.84-7.627-12.137-19.339-3.111-28.632 1.717-32.037 12.423-8.74 24.42-5.481 29.111 2.032 4.905 7.879 5.209 14.737 4.756 20.912 6.551-6.37 3.985-19.203-.939-26.206-9.357-13.311-25.487-14.287-39.45-4.186-19.02 13.75-9.219 37.541-4.337 44.485 17.439 24.802 48.492 16.307 62.583 8.593 46.125-25.217 69.879-24.543 91.935-9.56 9.855 6.696 28.085 22.05 27.652 59.854-.618 52.129 44.855 50.643 62.215 38.435 28.504-20.044 4.863-63.867-17.319-48.278 7.144 1.247 12.821 5.471 16.215 10.298 5.633 8.002 2.576 17.127-4.262 23.086-5.956 5.186-25.506 12.064-35.742-3.135-8.141-12.078-8.467-34.268 9.611-46.977 20.173-14.177 42.461-6.347 56.008 12.926 15.057 21.402 16.121 53.006-20.266 78.59-11.763 8.27-58.696 19.016-81.067-12.791-4.836-6.887-7.22-10.637-10.795-19.426-5.519-.681-32.023 8.117-49.772-17.273-10.179-14.547-4.967-39.538 17.522-43.346 11.634-1.953 21.768 2.792 23.818 18.211 1.436 10.77-14.194 20.278-23.883 16.182 1.193 7.351 15.654 8.451 22.08 5.01 22.127-11.886 14.28-44.008-8.12-50.572-16.464-4.824-28.014 1.716-35.881 7.75-22.008 16.865-15.87 58.124-18.392 74.913-4.794 32.025-56.407 77.312-89.147 30.777-10.737-15.274-16.911-40.667.405-52.84 25.063-17.629 37.83-8.765 45.822 2.934 15.125 22.137-15.156 32.868-2.899 43.795 7.199 6.426 21.671-.32 26.636-9.029 13.12-22.969-3.927-51.149-3.215-75.217z" clip-rule="evenodd"/><path id="sd1" fill="#3B3F3F" fill-rule="evenodd" d="M1290.354 1615.368c-32.354-4.868-35.575-22.947-38.955-32.444-3.524-9.9 2.601-20.924 2.601-20.924l-17.499-24.161c-20.28 23.038-15.419 57.543 1.296 80.581 20.356 28.057 57.921 25.45 75.942 23.201l-23.385-26.253zm29.095 31.788c1.809 22.587 15.035 47.946 3.042 68.947-4.965 8.709-19.438 15.455-26.636 9.029-12.257-10.927 18.024-21.658 2.899-43.795-7.992-11.698-20.759-20.563-45.822-2.934-17.316 12.173-11.143 37.565-.405 52.84 32.74 46.534 84.353 1.248 89.147-30.777 1.175-7.82.471-20.949 1.607-34.449m72.744 27.627c2.725 6.09 5.051 9.647 9.072 15.374 22.371 31.807 69.304 21.061 81.067 12.791 8.792-6.182 15.397-12.716 20.147-19.372" clip-rule="evenodd"/></svg>