<svg xmlns="http://www.w3.org/2000/svg" id="图层_2" viewBox="0 0 3000 3000"><path id="cl1" fill="#445656" fill-rule="evenodd" d="M1642.198 1515.594c13.077 12.497 52.576 52.005 98.518 37.092 45.213-14.677 84.07-65.738 43.818-120.985-12.259-16.821-5.025-31.063.828-40.974 10.322-17.467 38.699-25.769 56.723-.868-8.921-4.589-20.691.217-26.148 6.929-7.604 9.324-9.115 18.905-4.989 30.997 5.608 16.45 25.215 25.773 44.551 20.616 9.196-2.449 18.225-9.14 25.12-23.184 11.172-22.74-.316-53.781-18.676-68.752-22.065-18.006-42.77-18.181-59.626-12.813-27.295 8.699-46.521 26.126-50.874 66.7-33.877-13.459-88.446 10.189-66.866 74.029 4.604 13.625 27.892 28.661 45.71 21.519 26.399-10.577 24.121-26.555 21.755-33.521-6.102-17.896-20.573-23.419-30.805-19.284-10.717 4.329-16.05 11.014-20.12 17.564-1.928-11.214 10.064-22.258 20.156-25.697 19.182-6.543 36.14 4.293 42.796 24.698 9.073 27.789-18.233 44.566-28.241 47.981-35.742 12.189-60.786-19.124-69.325-37.223-27.964-59.207-52.38-75.941-85.575-77.022-14.832-.476-44.446 1.622-71.721 40.013-37.588 52.945-82.294 18.119-90.827-6.904-14.012-41.077 41.921-67.874 52.829-35.925-8.108-3.977-16.92-3.879-23.876-1.51-11.539 3.938-15.15 15.357-12.632 26.37 2.196 9.589 16.843 30.847 38.293 23.047 17.052-6.193 33.645-28.308 24.755-54.355-9.925-29.069-38.109-37.518-65.877-28.039-30.85 10.524-55.089 41.562-37.198 94.003 5.783 16.95 45.169 62.17 91.013 46.533 9.917-3.385 15.067-5.416 25.109-11.644 6.057 3.355 26.3 31.641 62.786 19.09 20.913-7.197 33.984-36.183 14.127-56.495-10.285-10.5-23.967-13.145-37.334.875-9.34 9.797-.57 30.823 12.19 33.81-6.593 6.517-21.961-2.972-25.909-11.146-13.57-28.185 17.881-54.779 45.246-44.979 20.121 7.221 26.959 22.277 30.454 34.108 9.802 33.121-26.623 70.169-36.39 88.927-18.646 35.769.137 119.21 67.215 96.337 22.008-7.513 46.839-28.559 38.324-53.506-12.317-36.126-31.672-36.559-48.297-30.638-31.457 11.207-8.828 44.211-29.182 46.231-11.959 1.192-21.587-16.201-20.205-28.612 3.627-32.755 41.453-48.631 58.377-73.393z" clip-rule="evenodd"/><path id="sd1" fill="#2E3A3A" fill-rule="evenodd" d="M1392.423 1403.441c6.855-19.037 22.107-31.434 39.448-37.349 27.769-9.479 55.685-.938 65.877 28.039 4.585 13.036 1.345 24.196 1.345 24.196l-64.381-5.704s2.331-9.956 12.62-13.554c6.937-2.426 15.768-2.467 23.876 1.51-8.257-24.184-42.313-14.707-52.302 9.145l-26.483-6.283zm141.928 13.999s59.719-7.146 71.565-9.524c0 0-20.524-6.834-39.137-3.792s-21.578 6.923-32.428 13.316z" clip-rule="evenodd"/></svg>