<svg xmlns="http://www.w3.org/2000/svg" id="图层_3" viewBox="0 0 3000 3000"><linearGradient id="cl1" x1="1588.386" x2="1985.921" y1="2084.347" y2="1234.447" gradientUnits="userSpaceOnUse"><stop offset="0" stop-color="#e38d29"/><stop offset=".199" stop-color="#ffe948"/><stop offset=".2" stop-color="#ffe948"/><stop offset=".382" stop-color="#fff497"/><stop offset=".515" stop-color="#ffe50d"/><stop offset=".576" stop-color="#fed854"/><stop offset=".794" stop-color="#ffe453"/><stop offset=".837" stop-color="#fee051"/><stop offset=".878" stop-color="#fad54c"/><stop offset=".919" stop-color="#f4c144"/><stop offset=".96" stop-color="#eba639"/><stop offset="1" stop-color="#e0832a"/><stop offset="1" stop-color="#e0832a"/></linearGradient><path id="cl1" fill="url(#cl1_1_)" fill-rule="evenodd" d="M1806.657 1538.808c-18.415 4.065-71.836-43.263-56.553-75.362 12.778-26.871 72.589-33.678 86.095-2.235 10.776 25.135-16.683 74.725-29.542 77.597zm-94.872 16.093c1.185 81.957 98.989 43.758 97.459 9.839-.874-19.722-98.369-72.15-97.459-9.839zm216.204-73.654c-27.957-75.292-107.754 38.654-82.016 49.415 41.918 15.182 92.529-21.099 82.016-49.415zm-132.498 177.077c14.316 11.092 50.61 6.941 62.381-11.798 7.337-11.641 6.612-56.837-11.998-69.293-7.356-4.947-32.249 10.993-42.365 19.336-24.866 20.516-34.261 41.385-8.018 61.755zm90.923-29.06c21.986 17.957 75.254-27.504 60.198-62.86-10.165-23.872-75.319-26.402-86.216-8.9-3.461 5.544 17.637 64.939 26.018 71.76zm-60.52-65.962c27.103 22.547 19.42-45.138-1.734-16.519-3.677 4.962-4.438 11.372 1.734 16.519z" clip-rule="evenodd"/></svg>