<svg xmlns="http://www.w3.org/2000/svg" id="tatoo_x5F_b" viewBox="0 0 3000 3000"><path id="hl1" fill="#4D4D4D" d="M666.6 1805.5v-35.8c-9.6-11.3-20.2-23-31.6-35.2 7.4 22.9 17.9 46.5 31.6 71m8.1-90.8l8.6-39.2c-11.6-10.5-24.7-21.6-39.3-33.3 2.1 10.9 12.4 35.1 30.7 72.5m49.5-164.2c-28.3 3.4-52.9 13.8-74 31.1-17.7 29.1-29.9 64.9-36.4 107.2.8 8.5 3.5 17.6 8.3 27.4l2-10.5c-3.2-8.8-1.7-22.8 4.4-42 7.1-23.7 15.5-40.7 25.4-51 20.3-24.5 43.8-45.2 70.3-62.2z"/><path id="sd1" d="M838.7 1858.6c-6.4 7.7-13.2 14-20.2 19.2l4 27.9c3.7-2.7 7.3-5.9 10.8-9.4l7.3-10.5c1.2-15 .6-24.1-1.9-27.2m-30.4-188.5c-10.2 7.3-17.9 20.9-22.9 40.8l24.8 117.9c8.6-2 17.7-3.8 27.4-5.4v-29.8l-31.6 5.6c0-33.2 4.2-64 12.5-92.4l-10.2-36.7z"/><path id="cl1" fill="#1A1A1A" d="M727.9 1884.1l-3.9 6.2 16.4 20.6c30.9 14.5 58.2 12.7 82.1-5.2l-4-27.9c-13 9.5-26.9 14.5-41.8 15.2-22.8.9-39.1-2.1-48.8-8.9m-53.2-169.4c4.8 9.8 10.1 20.6 16 32.2 16.4 36.6 27.1 63.1 32.1 79.6l-9.1 5.5c-12.2-19-27.9-39.7-47.1-62.2v35.8c13.3 23.8 29.5 48.5 48.7 73.9 3.3-5.1 7.4-9.8 12.3-14.4 24.3 20.5 49.1 22.1 74.4 4.7-20.4 4.7-37.2-2.3-50.3-21 15.6-8 35-14.7 58.5-20l-24.8-117.9c-6 23.2-8.4 55.1-7.4 95.6l-12.8 5c-30.5-70.5-33.9-132.7-10.3-186.6-29 26.7-44.2 51.9-45.8 75.5-7.7-7.9-16.3-16.1-25.9-24.8l-8.5 39.1z"/></svg>