<svg xmlns="http://www.w3.org/2000/svg" id="tatoo_x5F_b" viewBox="0 0 3000 3000"><path id="hl1" fill="#4D4D4D" d="M1817 1673.6l2.8-2.8c-36.1-44.8-75.3-82.9-117.8-114.4l-28 48.1c18.5 13.7 43 36.8 73.7 69.2h69.3m66-18.5c5.2 5.7 10.5 11.5 15.8 17.5 15.9 1.8 31.3.2 46.3-4.8-13.2-15.4-26.5-29.9-39.7-43.7l-22.4 31m98.8-100.7l-18.2-19.5-29.6 49.1c13.9 15.3 28.9 32.7 44.8 52.3 9.3-3 15.5-8.1 18.5-15.3-3.1-23.9-8.3-46.2-15.5-66.6M1840 1422.3l-46 34.4c30.4 18.9 68.4 51.2 113.8 96.8l27.2-49.8c-41.5-41.5-73.2-68.6-95-81.4m-79.5 67.1l-26.1 25.4c39.6 28.2 80.6 65.5 122.9 111.7l25.2-28.2c-40.6-45.1-81.3-81.5-122-108.9z"/><path id="cl1" fill="#1A1A1A" d="M1747.7 1673.6c10.5 11.2 21.8 23.4 33.8 36.8l35.6-36.8h-69.4m97.4 26.2l-39.4 40.8c17.9 19.3 36.9 40.9 57 64.8l60.4-12.8-78-92.8m125.6 60.9c8.6-13.1 14.6-26.2 17.8-39.4-14.5-18.8-29-36.6-43.5-53.4-15 5-30.4 6.6-46.3 4.8 23.4 26.4 47.4 55.8 72 88m30.3-96.4c-.5-14.9-1.7-29.3-3.6-43.1-3 7.1-9.2 12.2-18.5 15.3 7.1 8.8 14.5 18 22.1 27.8z"/><path id="sd1" d="M1862.8 1805.3c9.1 10.7 18.3 21.9 27.8 33.5 26-3.7 44.9-9.5 56.8-17.5l-24.2-28.8-60.4 12.8m125.7-84c-3.3 13.1-9.2 26.2-17.8 39.4 5.5 7.2 11 14.5 16.5 22 6.1-17.3 10.5-32.5 13.2-45.7-4-5.3-7.9-10.5-11.9-15.7z"/></svg>