<svg xmlns="http://www.w3.org/2000/svg" id="tatoo_x5F_b" viewBox="0 0 3000 3000"><path id="hl1" fill="#1A1A1A" d="M1708.6 1638.2l11.7 29.6c11.4-1.4 22.6-2.7 33.7-3.7l-45.4-25.9m246.9 129.8l39.3-59c-94.3-14.2-180.6-17.4-258.8-9.5l41.8 62.3c74.1-1.7 133.4.3 177.7 6.2m32.5-156c-.9-.2-1.7-.4-2.6-.6-8.8 15.6-28.7 33.6-59.7 54.1 25.5 3.3 49.8 8.1 72.9 14.4.9-20-2.7-42.6-10.6-67.9z"/><path id="cl1" fill="#4D4D4D" d="M1708.6 1638.2l45.4 25.9c62.2-5.8 119.4-5.3 171.7 1.5 31-20.5 50.9-38.5 59.7-54.1-73.6-17.8-170.3-20.3-290.1-7.2l13.3 33.9m-28.6-129.4c-.3 21.1 2.3 41.1 7.8 60.3 91-12.5 191.6-10.5 301.7 6.2-1.9-18.8-10.1-42.2-24.7-70.3-117.5-13.2-212.4-11.9-284.8 3.8z"/><path id="sd1" d="M2001.8 1710.2c-2.3-.3-4.7-.7-7-1.1l-39.3 59c13 1.8 24.8 3.8 35.3 6.3 7.1-21.9 10.8-43.2 11-64.2z"/></svg>