<svg xmlns="http://www.w3.org/2000/svg" id="tatoo_f" viewBox="0 0 3000 3000"><path id="cl1" fill="#7A0099" d="M1544 1044.8c-5.7-7.4-18.3-8.1-37.6-2-54.9 25.6-99.1 59.6-132.4 102-19.7 22.2-22.6 40.5-8.8 54.8 12.8 9.2 24.4 10.4 34.6 3.5 40.5-41.9 82.3-80.1 125.4-114.8 21.9-19.3 28.2-33.7 18.8-43.5m-51.7-70.8h-3.9c-23.1.5-55.2 7.8-96.4 22-30.2 9.6-55.9 25.9-77.2 48.8-9.6 12.5-10.9 27.7-4 45.7 11.3 9.1 22.7 7.6 34-4.5 51.3-32.7 101.9-60.7 151.8-84 3.5-1.9 5.5-4.2 5.9-6.9 1.7-6.7.1-12.6-4.8-17.8l-.4-.5c-1.5-1.5-3.2-2.4-5-2.8m362.9 86.8l4.7-63.1c-25.4-13.7-46.5-22.2-63.1-25.3-11.4-2.5-17.5 1.4-18.4 11.6.3 8.3 4.3 15.3 12 20.8 19.8 13.1 41.4 31.7 64.8 56m-35.6-6c-10.4-3.5-17-.4-20 9.2-.4 5.3 3 12.4 10.4 21.2 17.8 23.4 28.9 42.4 33.2 56.8 6-17.1 8.8-35.4 8.4-54.8-10.3-15.1-20.9-25.9-32-32.4z"/></svg>