<svg xmlns="http://www.w3.org/2000/svg" id="tatoo_f" viewBox="0 0 3000 3000"><path id="cl2" fill="#95D7DB" d="M1458.4 559.2c-37.7 2.7-64.6 8.3-80.8 16.8-100.2 34.3-190.8 79.1-272 134.4-12.9 85.3 1.2 190.2 42.5 314.6 143.5-18.1 270.5-46.4 380.8-85 89.5-39.2 145.8-58.4 168.8-57.6 18.4-.5 35.2 9.8 50.5 30.9 30.6 29.3 68.1 47.8 112.5 55.4-3.8-23.5-1.3-46 7.6-67.5l20.2-48.4c2.8-11.3 4.5-21.1 5.2-29.4.1-23.2-.9-39.8-2.9-49.8l-29.6-137.3-31.3-69.2c-62.1-1.5-114.4 8.7-156.8 30.4-71.8-26.4-143.2-39.2-214.7-38.3z"/><path id="cl1" fill="#FFF" d="M1759.5 976c5.2 6.4 9.4 10.4 12.6 11.9 31.6 12.8 59.2 18.8 82.7 17.9l5.7-37.1c-44.4-7.6-81.8-26.1-112.5-55.4-15.3-21.1-32.1-31.5-50.5-30.9-23-.8-79.3 18.4-168.8 57.6-110.3 38.6-237.2 67-380.8 85 4.2 12.8 8.7 25.8 13.5 39 207.1-27 334.7-50.8 382.7-71.3 46.6-14.7 86.5-33.5 119.7-56.3 15.3-10.5 35.2-7.6 59.6 8.8 13.2 8.2 25.1 18.4 35.8 30.6.2.1.3.2.3.2z"/></svg>