<svg xmlns="http://www.w3.org/2000/svg" id="tatoo_f" viewBox="0 0 3000 3000"><path id="cl3" fill="#F13C3C" d="M1594.8 776.8c-21-7.9-52-13.5-93.2-16.8-38.3 4.5-77.9 11.3-118.8 20.4-149.7 32-241.3 59.1-274.8 81.2 7.1 46.7 16.7 91.5 28.8 134.3 26.3 3.6 52.2 6.3 78 8.2 21.9 1.6 43.6 2.5 65.1 2.8 29 .4 57.6-.4 85.8-2.4 27.3-1.9 54.3-4.9 80.9-9 28.3-4.4 56.3-10 83.9-16.9 14.2-6.3 27.8-11.9 40.9-16.6 43.4-15.7 80.8-22.5 112.3-20.6 24.1 2 51 8.2 80.8 18.4 14.4 3.7 27.8 6.4 40.4 8.2 16.4 2.3 31.4 2.9 44.9 2 4.1-.3 8.1-.7 11.9-1.3v-13.2c-1-5.6-1.6-11-1.7-16-.3-11.6 1.8-21.5 6.1-30l24.8-66.8c.8-23.2-.9-42.2-5-56.9-19.7-5.1-40.4-7.9-62.2-8.1l-7.2 1c-11.6 5.7-25.9 10.2-43 13.6h-.3c-1.2.2-2.4.3-3.6.4-65 5.9-123.3.7-174.8-15.9z"/><path id="cl2" fill="#FFF" d="M1855.6 989.2c3-1 5-3.5 6-7.6v-13.2c-3.8.6-7.8 1-11.9 1.3-13.5 1-28.4.3-44.9-2-12.6-1.8-26.1-4.5-40.4-8.2-29.8-10.2-56.7-16.4-80.8-18.4-31.5-1.9-68.9 4.9-112.3 20.6-13.1 4.7-26.7 10.3-40.9 16.6-27.6 6.9-55.5 12.5-83.9 16.9-26.6 4.1-53.6 7.1-80.9 9-28.2 2-56.8 2.8-85.8 2.4-21.5-.3-43.2-1.2-65.1-2.8-25.7-1.8-51.7-4.5-78-8.2 2.3 8.2 5 17 8 26.4 2.7 4 6.5 5.8 11.6 5.5 16.3 1 32.8 1.7 49.5 2 10.9.2 21.9.3 32.9.2h.2l183.7-14.3c4.9-.7 9.9-1.4 14.8-2.2 32.2-4.9 64.9-10.8 98.3-17.9.2 0 .3-.1.5-.1l109.3-29.9c39.4-7.3 75.6-4.8 108.4 7.6 11.7 5.9 26.8 10.1 45.3 12.8 13 1.9 27.6 2.9 43.9 3.2 4.1.3 8.3.3 12.5.3m-354-229.2c41.2 3.3 72.2 8.9 93.2 16.8 51.5 16.6 109.8 21.8 174.8 15.6 1.2-.1 2.4-.3 3.6-.4h.3c17.1-3.4 31.4-7.9 43-13.6l7.2-1c21.8.3 42.5 3 62.2 8.1-.4-1.5-.9-2.9-1.3-4.3-6.4-9.4-19.4-14.3-39-14.7-19.6-.3-43.5 3.5-71.8 11.5-29.3 8.5-67.4 10.1-114.4 4.8l-121.6-29.6c-35.6-2-80.9 1.7-136 11.2-148.1 32.1-239.4 58.8-274 80-13.7 6.8-20.2 12.5-19.6 17.2 33.5-22.1 125.1-49.2 274.8-81.2 40.7-9.1 80.3-15.9 118.6-20.4z"/><path id="cl1" fill="#5293A3" d="M1174.1 1069.8c-1.4-.2-2.2.6-2.3 2.2 1.7 14.6 3.9 27.3 6.7 37.8l.9 3.3c1.4 2.5 3.4 3.7 6.1 3.8l13.3-22.3c.9-1.8-2.7-6.2-10.5-13.3-3.9-3.1-8.5-7-14.2-11.5m76.4 13.4c-4.2-4.2-8.9-8.7-14.1-13.4-1.2-.8-2.4-.8-3.6 0l-23.2 18.4c-1.3 2.7-1.3 5.2 0 7.4 4.7 8.2 9.1 14.8 13.3 19.8 1.9 2.9 5.6 4.7 11.2 5.2.5-.1 1.4-.5 2.6-1.1 4.4-2.5 13.4-8.9 26.9-19.3.6-.9.6-1.8 0-2.8-3.7-4.3-8-9.1-13.1-14.2m-29-26.2c.7-2.5.7-4.2 0-5.3-3-5.7-8.7-11.5-17.2-17.3-.9-.6-1.8-1.2-2.7-1.9h-4.8c-6 1.8-12.1 8.2-18.1 19.2-1.5 3.6-1.4 6 0 7.2 3.4 5.3 7.5 10 12.3 14.3.7.6 1.3 1.2 2 1.8 3.2 1.5 6.6 1.7 10.2.8 6.9-5.4 13-11.6 18.3-18.8m246.8 17.3c-.3.6-.7 1.3-1 1.9-.1.3-.2.6-.3.8-.2 1.2.3 2.4 1.7 3.5 9.1 5.5 18.7 10 28.7 13.5 2.1.7 4.1 1.4 6.2 2 1.3.9 3.1.7 5.4-.6 11.9-11.9 19.5-23.2 22.7-33.9.1-.1.1-.3.1-.5.1-.3.1-.6.1-.8 0-1.8-1.2-3.7-3.7-5.7-2-.9-4.5-1.7-7.3-2.6-5.3-1.6-12-3.1-20.2-4.7-6.7-1.9-11.2-2.1-13.3-.7-7.3 8.2-13.7 17.4-19.1 27.8m93.2-61.7c-3.1-2.1-8.2-4.1-15.2-6.1-3.7-1-7.9-2-12.6-3-7.6-.7-12.4-.3-14.4 1.1-.2.1-.3.3-.5.4l-.1.2c-5.8 5-11.8 12.6-18 22.9-2.6 3.8-2.2 6.7 1 8.6 8.6 3.9 16.3 6.7 23.1 8.3 3.9.9 7.6 1.4 10.9 1.6 3.4.9 6-.1 7.6-3l19.2-26c1.3-1.6 1-3.2-1-5m-250.2 55.9l-.6.3c-.2.1-.5.3-.8.4-14 7.7-24.5 16.3-31.4 25.8-.8 1.8-1.1 3.4-.8 4.8 9.8 8.7 19.9 16.3 30.6 22.8 2.2 1.1 4.6 1.1 7.2 0l2.1-.9c12.5-5.6 23.3-13.3 32.6-23.3.3-.4.7-.8 1.1-1.2.1-.1.1-.1.1-.3.8-1.3.4-2.4-1.2-3.3-5.3-5.1-10.6-9.6-15.8-13.5-6.2-4.6-12.2-8.3-18.1-11-1.6-.9-3.3-1.1-5-.6m-13.5-15.7c.5-1.6.4-3-.4-4.4-6.6-5.4-14.1-10.3-22.4-14.8-1.7-.7-3.4-1-5.2-.8-1 .1-2 .4-3 .8-8.3 5.1-15.2 10.5-20.6 16.4-1.7 1.9-1.7 4.1 0 6.6 3.3 3.8 6.8 7.3 10.5 10.5 4.1 3.5 8.4 6.7 13.1 9.7.8.7 4.2-.9 10-4.8s11.8-10.3 18-19.2m94.2 2.4c.6-1.9.5-3.5-.4-5-7.4-8.1-17.4-16-30-24-1-1.2-2.3-1.4-3.7-.5-.2.2-.5.4-.8.6-.1.1-.3.1-.4.2-11.8 6.7-22.2 14.6-31 23.6-1.1.9-1.3 1.8-.6 2.9.2.2.4.5.7.8 4.4 5.9 9 11 13.5 15.2 5.9 5.4 11.9 9.3 18 11.9 1.4.8 2.7.6 3.9-.4 11.9-7.5 22.1-15.9 30.8-25.3m20.5 8.6c-1.9-.8-4-1.6-6-2.4-2.6-1.6-4.7-1.5-6.4.3-10 5.2-19.6 14.4-28.6 27.7-1.5 2.2-.7 4.3 2.3 6.2 2.9 4.9 8.3 9.5 16.1 13.9 4.2 2.3 9.1 4.6 14.7 6.8 2 1.7 4.3 1.7 7 0 8.7-6.8 17.2-17.5 25.6-32 2.2-3 2.1-5.3-.3-6.7-6.2-5-14.3-9.6-24.4-13.8m26.4-40.8c-3.7 2.6-7 5.1-9.9 7.6-4.7 4.1-8.1 8.1-10.4 11.9-3.3 5.7-3.7 9.5-1.2 11.5.2.2.5.3.8.5 9.1 6.4 18.4 11.5 27.7 15.4 1.7.9 3.8.3 6.2-1.7 10.4-8.5 18.1-17.1 23.1-25.9.3-.3.5-.5.6-.8 1-1.5.8-3-.6-4.3-8.7-7.4-18.7-12.3-29.9-14.7-2.7-1.2-4.8-1-6.4.5m415.7 20.6c-3.3 2.5-6 5.4-8.2 8.6-.1.2-.2.3-.3.5-2.2 3.5-.7 10.5 4.5 21.3.7.3 1.3.4 1.9.3.9-.2 1.6-1 2.1-2.4v-28.3m-38.9-11.6c-2.2-1.5-4-1.9-5.3-1.3-1.2.6-2 1-2.3 1.2-9.8 3.8-17.7 11-23.7 21.5-3.4 4.3-3.5 7.2-.3 8.9l25 17.7c1 .7 2.1 1.2 3.1 1.5 1.6.4 3.2.3 4.8-.3 6.4-4.9 12.4-13 18.2-24.3.5-.5.8-1.1 1-1.8.4-1.4.2-3-.8-4.8-2.3-3.8-5.3-7.4-9.2-10.7-2.9-2.7-6.5-5.2-10.5-7.6m25.8-37.8c-1.4-.4-2.7-.1-4 .8-7.5 2.3-14.7 6.8-21.7 13.5-2.8 2.9-2.8 5.4 0 7.7 4 5.4 8.4 10.3 13.4 14.5 2 1.7 4 3.3 6.1 4.8 1 .9 2.3.9 3.7 0 .8-.4 1.6-.7 2.4-1.1 4.4-2.1 8-4.6 10.8-7.5 3.4-3.3 5-5.9 4.9-7.8-.1-1.9-.2-3-.3-3.3-.7-5-4.8-11.5-12.1-19.4-.9-1.1-2.1-1.9-3.2-2.2m-60.2 43.7c.2.1.4.1.5.1.5.1 1.1.1 1.7-.1.2 0 .4-.1.5-.2 13.6-13.7 20.6-21.7 21.1-23.8.5-.7.5-1.6.1-2.7 0 0 0-.1-.1-.1-1.6-3.3-4.8-7.3-9.8-11.9-1.5-1.4-3.2-2.9-5-4.4-4.8-3.5-9.4-4.4-14-2.6-9.1 4.1-17.2 10.1-24.3 18-1.8 2.5-1.8 4.2 0 5.2 8.1 8.7 17.4 16 27.8 21.7.5.3 1 .5 1.5.8z"/></svg>