<svg xmlns="http://www.w3.org/2000/svg" id="horn" viewBox="0 0 3000 3000"><path id="cl1" fill="#7E6046" d="M1524.543 420.06c-2.05-26.283-5.784-42.39-10.982-48.394-11.641-14.936-28.187-14.936-49.491 0-22.184 21.451-34.63 46.124-37.339 74.019.073 10.762 3.001 21.085 8.786 30.969-11.787 2.489-23.867 1.098-36.313-4.246-14.13-5.491-23.868 1.317-29.359 20.5-10.469 39.096-1.171 59.522 27.895 61.28 24.966-12.374 43.635-18.157 55.935-17.425l-.073-.366c3.148 10.396 7.248 21.012 12.299 31.848-15.375 6.809-33.824 8.858-55.275 6.077-8.347.366-14.496 7.468-18.304 21.232-4.539 17.571-3.954 29.285 1.758 35.215 12.812 14.351 27.527 21.525 44.073 21.672 11.714-.806 27.235-12.446 46.711-35.069l.438.878c17.938 34.117 33.385 51.322 46.344 51.834 19.549 4.027 34.996 1.099 46.198-8.785 8.932-12.739 11.714-30.676 8.42-53.885-.587-7.834-2.417-12.3-5.492-13.544-54.106-38.512-72.848-96.423-56.229-173.81m381.787-33.994c-6.736-13.325-15.083-20.208-25.112-20.5-15.082-2.929-26.503 1.245-34.118 12.446-10.981 16.473-18.083 45.904-21.231 88.294-17.278 72.042-50.517 113.114-99.716 123.217-18.011 29.285-16.84 55.13 3.66 77.387 26.723 7.248 45.758 7.98 57.18 2.196 16.254-10.982 27.455-25.551 33.531-43.781 18.45 3.514 33.093 9.151 43.855 16.985 30.896-4.905 48.101-12.007 51.688-21.231 2.782-13.545-.731-25.259-10.469-35.216-2.637-1.903-5.199-1.903-7.761 0-12.227 3.441-24.893 1.757-37.925-4.905 8.493-15.521 16.547-32.58 24.234-51.103 15.154 13.105 29.211 21.964 42.17 26.723 21.379-.512 39.463-7.98 54.251-22.33 3.515-30.383-.366-50.004-11.714-58.863-32.507 4.319-51.396 4.319-56.74 0 11.421-22.11 14.496-41.146 9.151-57.033-2.707-8.273-7.687-19.035-14.934-32.286z"/><path id="hl1" fill="#A18C75" d="M1910.137 595.455c1.684-3.88-.293-6.663-5.931-8.419-12.959 2.928-27.747 1.171-44.366-5.199-4.979 5.491-5.784 12.154-2.416 20.134 17.205 2.855 34.775.659 52.713-6.516m5.711-118.386l-8.347 7.395 9.884 3.294c14.716.44 29.578 1.757 44.514 3.734l13.91-1.538-5.93-12.886-49.2 2.124-4.831-2.123m-43.343-98.032c7.102-.732 15.302 3.075 24.746 11.348l15.009 8.054c-3.88-7.98-9.078-16.033-15.595-24.16-14.643-14.569-31.628-13.69-50.956 2.563l-16.106 56.667c-.513 27.162-5.491 52.933-14.863 77.313-23.135 43.782-52.713 70.358-88.733 79.583l-12.08 30.969 4.979-2.196c48.687-29.065 81.852-61.865 99.351-98.251l17.205-49.64c5.71-29.211 13.617-57.984 23.647-86.317m-350.819-16.305l-9.738-4.612h-13.178l-14.643 4.246-9.152 9.006c12.885-4.759 23.209-6.004 30.97-3.515 6.003 1.904 10.542 7.541 13.471 17.059l1.171 83.243c2.563 21.159 5.125 36.461 7.688 45.832 8.054 19.987 17.278 37.411 27.675 52.273l40.56 34.044h2.417l-4.979-11.348-23.647-19.255-24.014-33.751-4.613-8.273-9.004-39.535v-47.296l5.71-26.942-5.491-25.624-5.125-18.376-6.078-7.176m-114.724 103.596c-5.491-.806-9.884.732-13.179 4.393-5.638 6.663-9.151 14.276-10.616 22.916 16.399-12.227 34.703-16.546 54.983-13.032 4.759-2.05 6.296-4.246 4.759-6.809l-35.947-7.468m46.416 109.82l3.661-5.125h-33.897l-9.958 4.613-10.25 18.522c15.302-12.885 32.141-18.888 50.444-18.01z"/><path id="sd1" fill="#5B3829" d="M1885.537 623.715l-10.836 4.612c-17.059 1.465-28.041-.512-32.873-6.003-3.807-4.247-4.1-11.86-.731-22.77-6.956 6.517-17.133 13.984-30.604 22.33-7.321 4.612-15.594 10.616-24.818 18.157-4.833 4.027-9.884 6.956-15.082 8.859l-9.519 1.171c-20.133-.952-35.361-4.759-45.684-11.567 1.756 15.375 7.833 25.551 18.303 30.603 18.01 6.223 36.387 6.589 55.129 1.025l9.371-10.69c8.565-9.444 16.107-20.06 22.55-31.994l2.855 1.318c16.18 2.709 29.212 7.688 39.169 14.862 20.5.293 37.997-7.102 52.567-22.11v-8.053l-29.797 10.25m92.688-85.513l1.685-24.965c-5.784 7.688-21.452 15.74-46.856 24.086h-5.784c-8.566-3.075-16.62-9.005-24.233-17.791-1.977-2.27-2.855-7.028-2.563-14.276-8.639.513-16.4 3.367-23.355 8.639-11.201 14.496-19.914 31.481-26.137 50.883-3.295 9.811-1.537 16.327 5.271 19.402l29.432-53.446c11.128 10.324 22.989 17.938 35.436 22.843 8.199 4.759 15.96 4.759 23.281 0 11.786-3.442 23.061-8.566 33.823-15.375m-395.478 106.33c2.636-5.271 3.734-13.325 3.148-24.015l-12.445 24.893c-3.516 3.222-16.034 3.222-37.413 0-5.271-1.684-10.469-8.565-15.447-20.719l-21.964-22.184c-6.077-3.075-17.279-3.88-33.531-2.416-21.159 7.028-45.1 8.42-71.896 4.246-8.859 16.546-1.684 30.384 21.451 41.585 10.543 6.736 20.573 8.273 30.237 4.759 9.958-3.075 18.377-9.371 25.112-18.889l14.863-10.616 15.741 26.357c9.736 11.202 19.912 19.182 30.603 24.014h33.238l13.032-9.371c8.42-17.644 10.178-23.575 5.271-17.644m-132.003-146.426l-4.759 2.269c-.513 5.638-1.903 9.518-4.173 11.787-13.764 13.398-26.503 21.891-38.217 25.479-11.714 3.587-23.722-.659-35.875-12.74l2.416 15.228 5.857 6.809 17.425 6.956 9.372-1.831 48.321-14.422 2.415-3.075 10.104 32.433 14.276 2.196c5.271-1.464 7.541-6.37 6.956-14.862-3.88-27.821-15.228-46.564-34.118-56.227z"/><path fill="none" stroke="#000" stroke-linecap="round" stroke-linejoin="round" stroke-width="6" d="M1820.377 626.277c-6.076 18.157-17.205 32.8-33.531 43.781-11.421 5.784-30.456 5.052-57.179-2.196-20.5-22.256-21.672-48.027-3.661-77.386 49.199-10.03 82.438-51.103 99.716-123.218 3.222-42.39 10.323-71.895 21.231-88.295 7.615-11.201 19.035-15.375 34.117-12.519 10.031.366 18.377 7.175 25.113 20.573 7.174 13.251 12.152 24.014 14.936 32.214 5.344 15.887 2.27 34.923-9.152 57.033 5.345 4.319 24.233 4.319 56.667 0 11.348 8.785 15.301 28.406 11.788 58.863-14.79 14.35-32.873 21.817-54.252 22.33-12.959-4.685-27.015-13.617-42.17-26.649-7.688 18.523-15.741 35.508-24.234 51.029 13.032 6.663 24.893 8.493 35.729 5.418 4.027-2.269 7.395-2.416 9.957-.512 9.737 9.958 13.178 21.671 10.469 35.216-3.587 9.225-20.865 16.327-51.762 21.232-10.689-7.762-25.332-13.399-43.782-16.914l12.3-12.372m79.363-137.641c-1.392 2.708-2.929 5.417-4.539 8.199m-23.428 46.345c1.684-4.1 3.441-8.346 5.053-12.593m-453.756-40.609c-5.784-9.884-8.712-20.207-8.786-30.97 2.709-27.894 15.229-52.64 37.412-74.091 21.305-14.863 37.851-14.863 49.492 0 5.271 6.003 8.932 22.109 10.982 48.394-16.62 77.386 2.123 135.298 56.08 173.808 3.075 1.244 4.905 5.71 5.491 13.544 3.295 23.208.513 41.145-8.42 53.885-11.201 9.883-26.649 12.885-46.196 8.858-12.959-.439-28.408-17.717-46.345-51.835l-.439-.879c-19.401 22.55-34.996 34.265-46.709 34.997-16.546-.074-31.262-7.321-44.075-21.598-5.71-5.856-6.296-17.645-1.757-35.142 3.881-13.838 9.958-20.866 18.303-21.232 21.452 2.782 39.901.732 55.276-6.077-.073-.073-.073-.219-.146-.292-4.979-10.616-9.006-21.085-12.081-31.263h-.073c-12.3-.731-30.97 5.052-55.862 17.425-20.207-1.171-30.823-11.421-31.921-30.603-.513-8.493.878-18.67 4.027-30.604 5.418-19.182 15.228-26.064 29.285-20.499 12.521 5.199 24.675 6.663 36.462 4.174 2.05 3.514 4.54 7.028 7.321 10.47m6.955 34.41c1.025 4.905 2.27 9.81 3.807 14.862 0 .146.073.219.073.366m31.116 80.607c-.659-1.244-1.317-2.563-1.976-3.88m-16.986-45.245c1.977 4.173 4.027 8.419 6.296 12.666m382.007 10.371a348.356 348.356 0 0 0 5.857-10.396"/></svg>