<svg xmlns="http://www.w3.org/2000/svg" id="horn" viewBox="0 0 3000 3000"><path id="cl1" fill="#FFEABD" d="M1498.268 691.377c5.048-10.009 7.882-20.195 8.502-30.381.708-10.452-.974-20.991-4.96-31.708-53.055-28.608-104.426-73.869-154.381-135.692-32.771-55.18-64.126-105.932-94.063-152.344l-19.84-23.737c-22.32-9.831-42.515-8.768-60.584 3.1-13.994 20.814-19.219 42.604-15.5 65.366a89.595 89.595 0 0 0 1.595 9.566c.796 3.011 2.125 6.2 3.896 9.743 5.403 10.451 15.057 23.205 29.051 38.352 3.81 4.074 7.883 8.237 12.224 12.666 25.597 24.888 46.589 48.183 63.152 69.794l3.1.975c-.532.354-1.063.62-1.684.886-.796.354-1.682.709-2.568 1.063-11.957 4.429-29.761 1.771-53.498-7.972-17.184-26.66-34.278-44.374-51.46-53.231-18.955 7.972-30.824 20.106-35.429 36.58-2.392 8.592-3.632 17.094-3.543 25.509 35.429 35.429 72.097 55.535 109.917 60.318 18.158 2.834 47.652.443 88.66-7.351 28.963 41.362 60.318 76.614 94.153 105.754 21.348 21.078 49.071 21.963 83.26 2.744m487.966-397.176c-.798-.532-1.684-1.063-2.481-1.594-25.597-15.412-50.043-16.032-73.337-2.038l-46.146 100.707c-22.674 53.232-42.868 90.608-60.672 111.955-.354.354-.619.797-.974 1.151l-43.755 55.357c-8.68 12.931-26.217 30.292-52.522 51.902 4.155 27.524 23.936 38.873 42.979 53.31 1.683 1.24 15.933 4.817 17.616 6.501 9.561 1.547 6.728 3.38 27.18 1.394 4.694-38.175 22.319-71.832 52.7-101.061 86.801-17.271 136.313-43.311 148.624-78.12.531-3.1.708-6.112.708-9.124.178-17.448-7.794-32.859-23.826-46.323-12.931-5.934-31.443 14.083-55.445 59.875-12.932 10.097-25.862 15.942-38.795 17.537 21.169-29.584 46.411-60.406 75.552-92.47 17.096-17.36 30.203-37.289 39.415-59.874 4.869-10.627 2.566-33.745-6.821-69.085z"/><path id="hl1" fill="#FFFEE4" d="M1243.447 368.975c-8.414-15.324-16.297-26.218-23.737-32.771-8.148-6.467-15.766-7.706-22.852-3.81-2.745 1.418-3.986 3.986-3.808 7.795 12.489 33.215 29.937 59.432 52.522 78.652 10.363 5.58 19.131 7.351 26.396 5.314l-15.324-28.609c-2.746-8.856-7.175-17.713-13.197-26.571m590.265 176.327c10.629-6.643 9.654-8.503-2.923-5.757-5.669 1.329-11.16 3.72-16.386 7.439l11.78-17.803c6.377-9.477 4.517-10.273-5.669-2.568-19.84 17.36-33.037 30.026-39.503 37.909-6.555 7.882-14.88 17.271-25.154 28.077l-40.189 41.4 18.999 22.592c7.882-13.463 39.348-52.654 51.925-71.874 13.729-15.943 29.494-29.051 47.12-39.415m-659.351-44.797c-5.137-10.806-11.869-16.032-20.372-15.767-8.68 1.063-11.958 4.783-9.743 11.249 3.631 10.718 6.908 15.766 9.743 15.057 23.737 19.043 47.474 31.266 71.123 36.757l2.214-8.414c-12.578-2.835-24.445-8.237-35.517-16.297-6.82-4.96-12.666-12.577-17.448-22.585m306.901 139.943c-.532-3.632-4.075-7.085-10.451-10.186-20.195-17.449-37.555-31.267-52.169-41.452-14.526-10.186-27.369-21.257-38.44-33.125-11.072-11.869-17.803-17.892-20.194-18.157-7.175-1.063-13.375-2.037-18.6-3.012-19.309-7.174-36.668-7.439-52.168-.62-6.378 2.747-13.729 4.783-21.878 6.112-14.171 2.392-27.545 2.126-40.122-.709l-2.126 8.503c15.057 3.543 30.203 4.251 45.26 2.214l35.429-5.137c12.4-.974 24.624-.442 36.581 1.594 9.122-.796 32.329 18.689 69.617 58.546a1228.178 1228.178 0 0 1 19.84 21.789c30.909 26.748 47.384 31.265 49.421 13.64m482.119-182.92c-3.543.975-6.643 4.34-9.389 10.097-6.023 12.666-14.702 24.623-25.952 35.694-2.036 3.101-1.15 5.758 2.746 7.972 12.489-5.845 25.687-17.006 39.681-33.48 1.859-2.569 3.366-5.845 4.429-10.008 2.923-9.566-.886-13.109-11.515-10.275m-41.54-151.989c-1.328 2.214-2.568 5.669-3.897 10.273-4.517 22.41-10.628 43.4-18.511 63.152-4.518 19.84-.886 21.611 10.895 5.58l10.894-15.057c10.541-14.526 16.209-34.277 17.184-59.166-2.215-17.803-7.708-19.397-16.565-4.782z"/><path id="sd1" fill="#D8AD88" d="M1192.075 443.552c3.72 4.074 7.794 8.237 12.223 12.666 25.598 24.889 46.588 48.183 63.152 69.795 1.063.354 2.746.62 4.871.708 2.126.178 6.023-2.037 11.78-6.643 2.392-1.861 4.34-3.632 6.111-5.314.088-.178.088-.443.178-.62l.708-2.48c0-.089 0-.266-.088-.355l-.177-2.125v-.354c-.443-.974-.797-1.683-1.151-2.392-.797-1.329-1.771-2.392-2.746-3.1-.797-.62-1.328-.974-1.507-1.24-.088-.089-.088-.177-.088-.265-20.46-11.426-39.591-24.447-57.217-38.972-9.3-7.618-14.881-12.134-16.74-13.552-1.86-1.417-6.376-5.225-13.374-11.337-6.998-6.111-18.688-17.006-34.898-32.86 5.226 10.54 14.879 23.295 28.963 38.44M1506.86 660.82c-13.817 12.223-25.509 18.511-35.163 18.776-8.681 1.506-19.22.975-31.443-1.594-45.261-33.746-73.958-63.329-86.181-88.837-.088-5.669-2.037-11.337-6.023-17.006-4.782-10.717-20.637-12.932-47.651-6.643-7.529 1.063-15.324 2.037-23.56 2.834-52.966 3.897-95.481-7.263-127.632-33.657-8.415-9.655-16.297-19.751-23.561-30.38-2.391 8.592-3.631 17.094-3.543 25.508 35.518 35.429 72.186 55.535 109.918 60.317 18.157 2.835 47.651.443 88.661-7.262 28.874 41.362 60.229 76.614 94.063 105.754 21.435 21.08 49.157 21.966 83.346 2.657 5.314-10.096 8.149-20.193 8.769-30.467m488.673-166.978c.531-3.1.708-6.111.708-9.123-3.897 3.897-14.26 12.223-30.912 24.978-16.739 12.754-39.06 22.055-66.96 27.9-27.899 5.845-47.12 12.4-57.66 19.574-8.769 5.049-20.105 16.298-34.188 33.658-12.755 17.626-35.753 59.552-45.584 78.772 6.554 6.2 18.405 4.094 33.271 3.334 4.695-38.174 22.32-71.831 52.701-101.06 86.8-17.272 136.313-43.313 148.624-78.033m-9.299-199.641c-.798-.532-1.684-1.063-2.481-1.594-.354 9.565-2.922 20.283-7.616 32.24-3.543 8.946-9.212 21.346-16.917 37.29l-2.657 3.985a1172.319 1172.319 0 0 1-43.313 65.986c-21.345 28.52-32.948 44.286-34.631 47.031l-3.189 5.402c-5.668 9.743-9.3 18.955-10.982 27.724-.797 7.174.531 13.197 3.809 17.891 3.277-4.782 6.643-9.566 10.009-14.437 21.169-29.583 46.412-60.406 75.552-92.469 17.094-17.36 30.203-37.289 39.504-59.875 4.602-10.716 2.299-33.834-7.088-69.174z"/><path fill="none" stroke="#000" stroke-linecap="round" stroke-linejoin="round" stroke-width="6" d="M1868.255 530.246c3.277-4.783 6.643-9.566 10.097-14.438 21.169-29.583 46.324-60.406 75.553-92.469 17.095-17.36 30.203-37.289 39.415-59.875 4.693-10.806 2.302-33.923-7.086-69.175a37.593 37.593 0 0 0-2.481-1.506c-25.597-15.411-50.043-16.12-73.337-2.037l-46.146 100.707c-22.674 53.231-42.868 90.609-60.672 112.043-.354.354-.619.797-.974 1.151l-43.755 55.446c-8.68 12.931-26.217 30.203-52.611 51.814 2.911 24.424 15.534 34.987 34.577 49.424 1.683 1.24 16.732 6.591 21.334 8.833 13 3.333 17.666 6.167 31.864 2.945 4.693-38.174 22.319-71.832 52.788-101.061 86.801-17.271 136.313-43.312 148.624-78.12.531-3.101.708-6.112.797-9.123.177-17.449-7.795-32.949-23.826-46.324-12.932-5.934-31.442 14.083-55.446 59.875-12.931 10.097-25.774 15.943-38.705 17.537m-78.652-7.88c.974-1.062 2.036-2.214 3.011-3.454m-533.934 22.34c-.443-.62-.975-1.241-1.418-1.861-16.474-21.611-37.554-44.905-63.151-69.794-4.429-4.429-8.502-8.592-12.223-12.666-13.995-15.057-23.738-27.812-29.052-38.263-1.771-3.543-3.1-6.82-3.897-9.743a90.08 90.08 0 0 1-1.594-9.565c-3.721-22.763 1.505-44.552 15.5-65.366 18.069-11.869 38.262-12.932 60.583-3.1l19.929 23.737c29.936 46.412 61.291 97.252 93.974 152.344 49.866 61.823 101.327 107.083 154.381 135.692 3.985 10.628 5.668 21.168 4.96 31.708-.62 10.186-3.542 20.372-8.503 30.38-34.189 19.309-62 18.423-83.347-2.657-33.833-29.14-65.188-64.392-94.063-105.754-41.01 7.705-70.503 10.097-88.66 7.262-37.82-4.782-74.489-24.888-110.007-60.317-.089-8.415 1.151-16.917 3.543-25.508 4.694-16.475 16.474-28.608 35.517-36.58 17.183 8.857 34.278 26.571 51.461 53.231 23.737 9.654 41.54 12.312 53.497 7.971.798-.354 1.684-.708 2.57-1.151.62-.266 1.151-.62 1.771-.886 1.949-1.151 3.631-2.569 5.137-4.163m45.083 60.141c5.403-1.063 11.072-2.126 16.917-3.367"/></svg>