<svg xmlns="http://www.w3.org/2000/svg" id="horn" viewBox="0 0 3000 3000"><path id="cl1" fill="#625B57" d="M1325.946 343.764c-.261-3.555-.521-7.023-.954-10.491-1.387-11.963-3.554-23.581-6.588-34.677a207.298 207.298 0 0 0-20.287-49.328c-1.474 13.957-5.895 30.429-13.264 49.328-4.854 12.57-11.098 26.268-18.553 41.006-7.369 14.565-16.039 30.083-25.922 46.728-1.82 3.208-3.814 6.502-6.241 10.057-10.489 15.952-26.702 35.371-48.375 58.258a1021.923 1021.923 0 0 1-14.043 14.564c-28.176 22.106-50.543 45.08-66.928 68.921-1.56 2.341-3.121 4.682-4.595 7.022-10.143 16.992-17.338 34.157-21.673 51.496-9.623 38.145-5.202 76.984 13.264 116.516a234.603 234.603 0 0 0 9.624 18.466c5.895 10.316 12.831 20.633 20.633 31.036 13.264 14.651 32.856 27.655 58.864 39.099 4.595 1.994 9.364 3.988 14.392 5.896 6.762 2.601 13.958 5.115 21.5 7.542 27.656 2.774 55.311-3.901 82.879-19.853 7.109-4.075 13.091-9.882 17.945-17.512 10.057-15.344 15.952-34.07 17.599-56.177 1.3-17.165.174-36.324-3.641-57.651-1.994-21.413-13.611-38.838-34.764-52.276-1.994-1.214-4.075-2.514-6.329-3.728-6.328-3.468-13.438-6.675-21.24-9.537-2.341-1.647-4.334-3.468-5.809-5.635a20.348 20.348 0 0 1-3.294-8.236c-1.387-7.023 0-15.865 3.988-26.529 3.122-8.148 7.89-17.425 14.218-27.828 3.208-3.814 6.328-8.063 9.362-12.744 10.144-15.864 19.073-37.018 26.789-63.372.434-1.388.78-2.774 1.213-4.249.867-3.554 1.734-7.109 2.515-10.663 7.108-34.158 9.795-66.061 7.715-95.449m573.822 312.962c1.301-10.403 2.167-20.546 2.515-30.342 1.04-23.668-.26-45.688-4.075-65.887-4.941-26.702-14.131-50.37-27.481-71.176-7.543-11.79-16.472-22.626-26.701-32.51-6.068-5.895-12.657-11.443-19.767-16.731a263.971 263.971 0 0 0-7.976-5.635c-3.814-2.515-7.716-5.028-11.79-7.369-7.976-6.502-15.259-13.523-21.934-20.98-4.161-4.681-8.063-9.536-11.617-14.651-14.478-20.373-24.707-43.867-30.516-70.482a259.703 259.703 0 0 1-3.815-22.541c-1.473-12.57-2.167-25.661-1.993-39.358-9.883 11.097-17.686 24.188-23.494 39.358-6.935 17.946-11.01 38.839-12.311 62.507-.173 3.901-.347 7.802-.433 11.79-.174 10.576.173 21.76 1.126 33.376 0 4.508.434 9.796 1.214 16.039 3.121 22.627 15.172 48.028 36.064 76.204 3.988 5.375 8.323 10.836 13.004 16.384 4.509 8.843 7.022 17.426 7.369 25.748.26 5.809-.52 11.53-2.254 17.165-1.3 4.162-3.208 8.236-5.635 12.311-3.121 5.115-19.354 20.052-24.295 24.994 47.248 33.204 90.528 94.297 105.613 203.27 6.762-2.861 13.09-7.022 18.898-12.57 4.682-4.335 9.104-9.623 13.264-15.605 12.051-17.599 21.761-42.306 29.304-74.123 2.947-12.05 5.549-25.055 7.716-39.186z"/><path id="sd1" fill="#423835" d="M1085.891 605.144c-3.121-2.341-5.549-5.201-7.195-8.669-9.624 38.145-5.202 76.983 13.264 116.603 2.86 6.154 6.068 12.223 9.622 18.465 5.896 10.316 12.744 20.633 20.547 31.036 13.264 14.651 32.856 27.656 58.864 39.099 4.595 1.995 9.363 3.988 14.392 5.896a405.788 405.788 0 0 0 21.413 7.542c27.656 2.774 55.311-3.901 82.879-19.766 7.021-4.075 13.004-9.97 17.858-17.512 10.057-15.344 15.952-34.07 17.599-56.177-28.089 34.764-75.77 40.919-143.13 18.465l-25.488-14.391c-33.117-20.287-59.992-60.426-80.625-120.591m177.722-47.075c3.121-8.236 7.889-17.511 14.218-27.828 3.207-3.814 6.329-8.063 9.363-12.744 10.143-15.864 18.985-37.018 26.788-63.372l-36.238 51.148c-10.577 14.305-21.673 26.354-33.29 36.238.693.433 1.473.78 2.167 1.214-14.825 19.332-14.132 37.451 1.994 54.356 2.427 2.774 7.022 5.722 13.697 9.016 14.044 4.075 23.321 4.769 27.742 1.908-6.328-3.468-13.438-6.675-21.326-9.537-2.341-1.647-4.248-3.468-5.809-5.635-1.647-2.427-2.774-5.115-3.381-8.236-1.387-7.108 0-15.951 4.075-26.528m478.2-87.733c-13.957-8.843-27.568-24.968-40.659-48.202 3.121 22.627 15.171 48.028 36.151 76.204 3.987 5.375 8.322 10.836 12.917 16.384 4.508 8.843 7.022 17.426 7.369 25.748.26 5.809-.521 11.53-2.255 17.165 7.716-4.161 12.051-9.536 13.179-16.038 13.263-19.072 13.523-36.585.692-52.449.175-.174.261-.347.521-.52-.086-2.168-9.363-8.236-27.915-18.292m158.215 186.217c1.301-10.403 2.168-20.547 2.601-30.343 1.041-23.667-.347-45.602-4.073-65.887-.348 10.403-2.167 23.84-5.549 40.313-15.519 58.084-44.566 95.929-83.145 111.446 7.889 22.917 16.371 56.171 21.159 86.041 6.762-2.861 13.09-7.022 18.985-12.571 4.682-4.421 9.016-9.622 13.265-15.691 11.963-17.599 21.76-42.307 29.302-74.123 2.687-12.05 5.202-25.141 7.455-39.185z"/><path fill="none" stroke="#000" stroke-linecap="round" stroke-linejoin="round" stroke-width="6" d="M1723.296 593.748c12.704-8.248 22.679-18.774 25.799-23.888 2.428-4.075 4.335-8.149 5.635-12.311 1.734-5.635 2.515-11.356 2.254-17.165-.347-8.323-2.86-16.905-7.369-25.748-4.682-5.549-9.016-10.923-12.917-16.386-20.979-28.088-33.03-53.489-36.15-76.203-.867-6.155-1.214-11.53-1.214-16.038-.867-11.703-1.215-22.8-1.04-33.377.087-3.988.173-7.976.347-11.791 1.3-23.667 5.375-44.386 12.224-62.332 5.896-15.258 13.697-28.522 23.667-39.619-.173 13.784.521 27.048 2.08 39.619.954 7.629 2.168 15.084 3.815 22.367 5.809 26.528 15.952 50.022 30.516 70.481a188.719 188.719 0 0 0 11.617 14.738c6.589 7.457 13.87 14.392 21.847 20.894 4.074 2.34 7.976 4.854 11.791 7.369a263.4 263.4 0 0 1 7.975 5.635c7.021 5.201 13.611 10.749 19.767 16.731 10.229 9.883 19.159 20.719 26.701 32.51 13.351 20.807 22.541 44.474 27.482 71.175 3.728 20.287 5.114 42.307 4.074 65.975-.434 9.796-1.301 19.939-2.602 30.342-2.167 14.043-4.682 27.135-7.541 39.185-7.543 31.816-17.339 56.524-29.304 74.123-4.16 6.068-8.582 11.27-13.264 15.692-5.895 5.548-12.224 9.71-18.985 12.57m15.95-236.326c21.5 11.704 36.845 24.535 46.035 38.579 5.288 8.149 8.495 16.732 9.622 25.662m-21.412 38.144c3.728 5.288 7.456 15.778 11.184 31.383m-193.674-323.106c4.682 5.202 9.362 7.022 14.131 5.635m-13.784-17.425c8.148 6.935 16.385 6.935 24.534 0m59.385 45.08c2.773 12.311.348 22.974-7.196 32.164m48.809 1.907c2.86 7.802 2.86 15.604 0 23.407m-8.062-29.042c2.167 11.27.779 22.541-4.335 33.81m-40.833-76.897c3.382 20.633-2.515 37.972-17.686 52.103m-12.917-122.498c1.474 11.443-2.08 20.199-10.663 26.182m-404.857-13.871c.433 3.468.78 7.022 1.04 10.577 2.081 29.476-.606 61.291-8.149 95.622-.779 3.554-1.56 7.109-2.427 10.663-.433 1.387-.78 2.861-1.214 4.249-7.716 26.354-16.645 47.508-26.702 63.373-3.034 4.682-6.155 8.929-9.362 12.744-6.33 10.315-11.098 19.592-14.218 27.828-4.075 10.577-5.461 19.419-4.075 26.441.607 3.034 1.734 5.809 3.381 8.149a20.031 20.031 0 0 0 5.809 5.635c7.802 2.861 14.911 6.069 21.326 9.537 2.167 1.213 4.249 2.427 6.242 3.728 21.153 13.351 32.684 30.776 34.764 52.276 3.728 21.24 4.942 40.486 3.641 57.651-1.733 22.106-7.629 40.746-17.686 56.177-4.854 7.542-10.837 13.438-17.858 17.512-27.569 15.952-55.224 22.541-82.878 19.766a405.831 405.831 0 0 1-21.414-7.542c-5.028-1.907-9.796-3.901-14.392-5.896-26.008-11.443-45.601-24.447-58.864-39.099-7.802-10.403-14.651-20.72-20.546-31.036a235.423 235.423 0 0 1-9.623-18.465c-18.466-39.533-22.888-78.371-13.265-116.603 4.334-17.253 11.531-34.418 21.673-51.496 1.474-2.341 3.035-4.769 4.682-7.022 16.385-23.84 38.665-46.814 66.927-68.921 4.942-5.029 9.623-9.883 14.131-14.565 21.76-22.974 37.885-42.393 48.375-58.344a176.65 176.65 0 0 0 6.155-10.056c9.884-16.645 18.553-32.25 25.922-46.728 7.455-14.738 13.696-28.436 18.552-41.006 7.369-18.986 11.791-35.371 13.264-49.329 8.843 15.432 15.605 31.904 20.373 49.329a265.994 265.994 0 0 1 6.416 34.851c-8.322-6.762-18.206-9.017-29.563-6.762m575.297 162.723c1.993 9.71-1.647 22.54-11.011 38.578m-109.84-13.09l15.172-8.236m-7.803 33.897c3.468.867 7.109 1.214 10.924 1.127 7.716-.173 16.125-2.341 25.228-6.415m-44.041 34.764c12.657-8.67 27.048-10.143 43.086-4.421m51.15 158.562c7.889 4.854 14.304 20.199 19.246 45.947m-42.653-51.669c15.345 19.419 25.141 41.873 29.388 67.274M1736.698 498.25c14.65 2.081 25.228-.953 31.902-9.189m75.165-32.423c4.074 14.911 1.733 27.829-6.936 38.925m-570.876-156.048c7.543-3.381 15.171-3.381 22.714 0m-103.252 115.129c20.894-4.161 36.325-4.075 46.294.347m55.224-43.434c13.958 2.428 24.187 11.791 30.603 27.916m-83.659-43.087c20.373-8.67 37.885-9.709 52.623-3.034m-115.129 75.856c13.611-4.248 24.794-5.462 33.463-3.468m41.7 21.761c11.791 2.427 22.194 8.495 31.124 18.032 3.38 3.554 6.502 7.629 9.449 12.137m-89.208 113.482c14.824-2.688 31.729-13.958 50.628-33.897 3.122-3.208 6.763-7.455 10.924-12.57m3.468 8.235c.434 4.161.26 8.583-.693 13.351-1.647 8.322-5.375 17.599-11.357 27.915m-14.305-96.49c12.831 7.023 21.847 13.871 26.962 20.46m-185.35 38.491c1.647 3.468 4.075 6.33 7.283 8.669 8.929 6.502 23.927 8.323 44.819 5.375m-25.747-72.562c21.153-6.415 36.411-6.415 45.687 0m-58.865 175.121c13.438 7.976 25.401 7.976 35.804 0m-26.181 18.379c26.614 4.248 48.288 2.254 65.02-5.809a65.04 65.04 0 0 0 16.298-11.271m-1.907 87.215l31.903-9.536m-17.512 15.431c10.837-.781 24.448-5.722 41.007-14.652m60.424-181.101c10.577 18.292 14.565 47.334 11.964 87.04m.434-365.152l17.078 9.97"/></svg>