<svg xmlns="http://www.w3.org/2000/svg" id="horn" viewBox="0 0 3000 3000"><path id="cl1" fill="#DCCDAF" d="M1741.727 440.365c-7.688-10.324-15.374-10.324-22.985 0-1.356 11.38-4.296 20.8-8.666 28.26-22.081 48.984-46.347 77.094-72.874 84.555-4.823 2.638-8.666 5.652-11.53 8.968-3.315 3.843-5.274 8.214-5.953 13.037-1.81 13.113-2.789 26.226-2.864 39.489-.301 44.463 13.641 76.717 41.824 96.688 19.594 5.652 32.707 5.803 39.264.377 12.812-4.673 27.431-23.664 43.785-56.973 9.495-15.675 15.373-46.874 17.482-93.597 4.22-41.373-.754-79.43-14.771-114.247-.828-2.262-1.733-4.371-2.712-6.557z"/><path id="hl1" fill="#EDE7D1" d="M1741.5 440.968c-7.687-10.325-15.374-10.325-23.061 0-1.357 11.379-4.22 20.799-8.741 28.335-22.081 48.984-46.347 77.169-72.799 84.479-4.822 2.638-8.666 5.652-11.53 8.968l16.806-3.241c8.44-3.09 16.73-7.385 24.718-12.811 16.807-14.921 29.692-30.747 38.66-47.402 8.968-16.73 15.373-31.5 19.142-44.387.979-3.542 2.638-6.934 5.124-10.174 2.412-2.712 6.255-3.994 11.681-3.767z"/><path id="sd1" fill="#927A64" d="M1640.291 670.741c-10.626-18.011-18.464-36.701-23.438-56.144-.301 44.462 13.641 76.717 41.9 96.687 19.594 5.652 32.707 5.803 39.264.377 12.811-4.672 27.431-23.663 43.783-56.972 9.496-15.675 15.374-46.875 17.483-93.598 4.221-41.373-.754-79.429-14.771-114.246.829 49.963-4.446 90.432-15.675 121.33-12.208 33.761-26.753 62.85-43.558 87.342-16.803 24.418-31.8 29.468-44.988 15.224z"/><path fill="none" stroke="#000" stroke-linecap="round" stroke-linejoin="round" stroke-width="6" d="M1618.285 576.617c.679-4.823 2.638-9.119 6.029-13.038 2.864-3.315 6.632-6.33 11.53-8.968 26.526-7.385 50.793-35.57 72.798-84.554 4.446-7.536 7.385-16.956 8.742-28.26 7.687-10.324 15.373-10.324 23.06 0 .98 2.186 1.884 4.371 2.713 6.481 14.018 34.742 18.991 72.798 14.771 114.247-2.11 46.724-7.988 77.922-17.484 93.598-16.428 33.309-31.048 52.3-43.859 56.972-6.557 5.426-19.669 5.275-39.263-.376-28.185-19.971-42.201-52.225-41.824-96.688 0-13.189.98-26.302 2.787-39.414z"/></svg>