<svg xmlns="http://www.w3.org/2000/svg" id="horn" viewBox="0 0 3000 3000"><path id="cl1" fill="#2E2C29" d="M1895.532 901.877c-1.398-1.398-2.797-2.796-4.195-4.021-8.393-7.606-17.047-12.326-26.052-14.162 4.88 22.988 5.715 33.223 1.115 61.556 3.06.437-3.627 2.977-1.989 2.349 3.756-9.932 42.485.174 78.59 19.319-.874-4.721-2.885-10.054-6.119-15.911-4.196-7.693-10.49-16.26-18.882-25.789-6.295-7.255-13.813-15.036-22.468-23.341M1463.31 555.986c-2.098-4.284-4.545-8.393-7.255-12.414-20.544-19.407-43.273-34.094-68.275-44.06a213.654 213.654 0 0 0-24.915-8.305c-20.456-5.42-42.223-7.955-65.389-7.693-4.547.263-9.092.699-13.638 1.137a304.068 304.068 0 0 0-18.183 2.36c-22.642 3.497-44.234 9.267-64.777 17.222a249.913 249.913 0 0 0-21.681 9.441c-36.542 17.484-69.585 42.486-99.221 74.919-14.162 16.173-26.925 32.695-38.378 49.654-2.01 2.973-4.021 5.944-5.944 9.004-21.243 32.87-37.59 66.964-48.955 102.544-16.26 44.584-16.697 91.354-1.223 140.483 6.031 19.058 14.424 38.377 25.177 58.134.437.874.961 1.749 1.486 2.623 66.001 86.721 147.826 95.988 245.562 27.538 7.956-5.595 15.998-12.064 24.128-19.32 40.125-40.912 84.534-46.594 133.227-16.872.699.35 1.312.787 2.01 1.224-.087-12.589-3.409-23.778-9.878-33.482-13.462-20.282-40.737-34.443-81.825-42.486-35.58 8.567-70.985 20.631-106.215 36.192a58.489 58.489 0 0 1-5.595.262c-7.518 0-15.21-1.486-23.167-4.371-6.119-2.272-12.326-5.42-18.707-9.354-12.764-7.868-21.681-18.097-26.751-30.685-6.207-21.593-8.654-41.437-7.256-59.62 0-.612.087-1.312.087-1.923.35-4.109.962-8.218 1.748-12.152 1.836-3.409 4.284-8.305 7.431-14.773 14.25-28.937 24.478-46.507 30.772-52.889l.262-.263c1.574-1.573 3.147-2.972 4.721-4.371 3.934-3.497 7.868-6.469 11.977-8.917 11.626-6.994 23.865-9.966 36.716-8.917 28.761-.262 58.396 3.846 88.906 12.239l35.405 17.484c56.386-.525 92.228-19.232 107.701-56.037a216.311 216.311 0 0 0 2.885-9.091c4.108-14.25 6.644-27.712 7.693-40.476 2.01-24.038-1.573-45.456-10.666-63.989m444.793 145.292c4.72-6.819 8.654-14.075 11.627-21.506 8.566-38.989 8.566-74.219 0-105.778-21.331-42.224-46.421-64.69-75.27-67.4h-2.185c-5.945.087-11.714.612-17.31 1.398-15.386 2.186-29.372 6.994-42.137 14.25a80.862 80.862 0 0 0-8.13 5.245c-19.581 13.725-35.754 34.182-48.43 61.457 1.137 5.595 2.535 11.102 4.108 16.61.087.174.175.437.175.611a237.304 237.304 0 0 0 11.802 31.908c8.917 19.669 20.632 38.728 35.229 57.085 10.841 13.724 23.166 27.012 37.153 39.95 5.509-4.633.842 1.749 6.263-2.01-3.759 10.053-2.455 13.763 3.053 27.225 34.096-15.385 68.666-36.753 84.052-59.045z"/><path id="hl1" fill="#4B433E" d="M1373.968 901.206c12.064 3.934 23.428 9.791 33.919 17.484-13.463-20.281-40.738-34.443-81.913-42.485-35.58 8.566-70.985 20.63-106.215 36.192-72.646 31.995-123.175 27.275-151.673-14.25 13.55 20.982 26.488 34.619 38.727 40.913 21.418 5.07 39.601 6.469 54.725 4.196 47.032-9.529 93.977-24.215 141.008-44.06 28.411-5.595 52.19-4.895 71.422 2.01m493.532-6.456l1.657 11.408c22.816 11.365 37.128 20.284 60.294 35.321l-14.511-12.676c-6.907-9.179-16.436-17.484-28.675-24.915l-19.107-10.986m-403.323-328.349l-66.264-32.958-15.736-6.557c-27.712-10.315-54.812-14.861-81.475-13.55l-20.981 2.273c-41.437 5.595-85.147 24.127-131.129 55.599-45.983 31.471-72.035 62.592-78.241 93.364 57.872-59.533 121.338-92.49 190.225-98.959 43.272-5.245 88.294-.437 134.977 14.337 14.948 5.682 30.597 14.774 47.031 27.362l32.346 23.166c1.923-24.126-1.661-45.544-10.753-64.077m429.406 12.763c4.371-3.322 7.256-7.605 8.567-13.025-7.344-17.047-20.895-27.625-40.738-31.646v-.087c-34.094-3.147-61.98 5.595-83.66 26.4-13.463 7.781-29.549 23.341-48.344 46.596.088.174.088.349.175.611a237.304 237.304 0 0 0 11.802 31.908c38.203-54.725 88.993-75.006 152.198-60.757z"/><path id="sd1" fill="#141211" d="M1360.155 909.948c-6.907-2.098-14.598-2.098-22.903 0l-36.542 13.113c-14.337 5.945-25.089 12.239-32.17 19.058-8.217 4.982-14.424 8.305-18.533 9.878-4.108 1.573-13.2 6.031-27.187 13.288-8.48 4.371-17.397 7.692-26.838 9.878l-29.197 6.644c-16.348 5.07-34.619 6.294-54.9 3.585-50.003-3.148-85.846-25.352-107.526-66.527l-15.736-19.932c6.033 19.058 14.424 38.378 25.178 58.135.437.874.961 1.748 1.398 2.622 66.002 86.721 147.827 95.987 245.563 27.538 7.955-5.595 15.997-12.064 24.127-19.32 40.126-40.913 84.534-46.595 133.228-16.873-1.663-13.462-20.983-27.187-57.962-41.087m506.575 35.459c4.394-2.917 2.271-5.74 16.942-3.063 19.078 1.823 24.361 5.341 60.466 24.487-.874-4.721-2.885-10.054-6.119-15.824-9.441-6.644-18.533-12.239-27.101-16.697-21.767-11.365-25.835-11.311-41.615-13.705-1.19 11.476.28 9.895-3.492 25.714m-542.372-229.568l35.405 17.483c56.386-.524 92.228-19.232 107.613-56.035 1.05-3.06 2.011-6.12 2.885-9.092l-8.829-3.934c-37.941-34.268-106.565-45.195-205.874-32.869-31.996 1.835-63.904 13.463-95.725 35.055-14.075 11.802-28.499 26.663-43.186 44.497-27.975 35.667-43.885 69.936-47.731 102.718-1.486 8.13-1.661 16.435-.525 24.915 17.484-39.339 45.196-67.663 83.224-84.972l11.976-4.721c5.858-9.005 11.978-16.609 18.271-22.992l.263-.262c1.574-1.573 3.147-2.972 4.72-4.371 3.934-3.497 7.868-6.469 11.977-8.917 11.626-6.994 23.865-9.965 36.716-8.916 28.675-.175 58.311 3.933 88.82 12.413m585.801-15.473c2.797-17.222 4.282-31.209 4.371-41.788-3.41-6.819-6.907-11.626-10.666-14.424-27.712-5.245-62.067 5.945-103.068 33.482l-21.067 16.61c10.84 13.637 23.166 27.012 37.153 39.95 5.507-4.633.368 3.025 5.788-.734-3.759 10.053-3.205 12.487 2.303 25.949 34.005-15.472 69.712-36.753 85.186-59.045z"/><path fill="none" stroke="#000" stroke-linecap="round" stroke-linejoin="round" stroke-width="6" d="M1887.559 566.215c2.011 2.885 3.935 5.856 5.508 9.004 10.141 18.97 12.501 41.611 7.168 67.837-1.486 7.168-3.322 14.249-5.508 21.069m-15.298 33.219c-9.529 2.01-19.232 5.594-29.199 10.665a151.901 151.901 0 0 0-9.616 5.245 182.285 182.285 0 0 0-11.102 7.169c2.623 3.234-6.989 9.944-11.011 12.218.215 8.381 2.115 16.759 4.634 28.1 34.094-15.386 67.921-39.269 83.394-61.561 4.721-6.818 8.655-13.987 11.628-21.593 8.566-38.989 8.566-74.219 0-105.778-21.331-42.223-46.421-64.69-75.27-67.4h-2.186c6.994 4.546 13.375 12.5 19.058 23.865.351.699.7 1.398 1.049 2.099h0a51.37 51.37 0 0 1 1.05 2.185M1378.95 664.299c.35 9.616-18.271 26.838-55.949 51.578l33.132 16.348c56.386-.524 92.315-19.232 107.613-56.036a184.888 184.888 0 0 0 2.886-9.179c4.108-14.25 6.644-27.713 7.693-40.476 1.923-24.128-1.662-45.546-10.752-64.079-2.099-4.283-4.546-8.392-7.257-12.413-20.543-19.407-43.272-34.094-68.188-44.06 3.847 4.109 6.907 11.889 9.179 23.604.263 1.486.524 3.06.787 4.721m-75.092 181.569l-2.272-1.136c-30.51-8.48-60.146-12.588-88.818-12.326-12.851-1.049-25.178 1.924-36.804 8.917-4.109 2.448-8.043 5.42-11.977 8.917-1.573 1.399-3.147 2.797-4.72 4.371l-.262.263c-6.294 6.293-12.414 13.987-18.271 22.992-4.895 7.431-9.616 15.822-14.25 25.176-3.934 9.878-6.381 20.457-7.431 31.733-.087.612-.087 1.224-.087 1.923-1.398 18.183.961 38.027 7.257 59.62 5.07 12.676 13.987 22.904 26.75 30.685 6.381 3.934 12.676 7.081 18.795 9.354l23.167 4.371c1.922 0 3.759-.087 5.595-.262 35.142-15.561 70.547-27.625 106.215-36.192 41.087 8.043 68.45 22.205 81.825 42.486 6.469 9.791 9.704 20.893 9.878 33.482-.699-.437-1.312-.875-2.011-1.224-48.693-29.635-93.102-23.953-133.228 16.959-8.042 7.256-16.085 13.725-24.127 19.32-97.736 68.362-179.647 59.183-245.563-27.538-.524-.874-.961-1.749-1.485-2.623-10.753-19.756-19.146-39.077-25.178-58.134-15.473-49.13-15.035-95.987 1.224-140.571 11.365-35.492 27.712-69.674 48.955-102.543 1.923-3.06 3.934-6.032 5.945-9.004a510.757 510.757 0 0 1 38.377-49.655c29.635-32.433 62.68-57.434 99.133-74.918a302.351 302.351 0 0 1 21.768-9.442c20.543-7.955 42.136-13.724 64.778-17.221a305.392 305.392 0 0 1 18.271-2.36c4.458-.438 9.004-.875 13.637-1.137 23.079-.263 44.847 2.272 65.391 7.693 8.567 2.273 16.872 4.983 24.915 8.305m-25.179-8.393c8.305 3.235 14.424 11.627 18.358 25.178 3.583 12.413 5.769 27.711 6.556 45.895m50.267-8.305c3.672 7.78 4.895 22.117 3.584 42.923-.611 9.791-1.835 20.98-3.497 33.569 0 .174-.087.35-.087.524m402.393-132.964c-5.945.087-11.801.524-17.396 1.311 7.955 2.448 15.035 7.431 21.067 15.036m-60.493 24.127c-4.022-9.616-4.896-17.921-2.711-24.827-2.797 1.573-5.507 3.321-8.217 5.245-.612 10.315.786 20.806 4.108 31.471 1.574 5.158 3.672 10.403 6.294 15.648a139.33 139.33 0 0 0 3.147 6.207m-5.332-58.571c12.676-7.343 26.751-12.151 42.05-14.336m-50.267 19.581c-19.582 13.725-35.755 34.182-48.344 61.456 1.137 5.595 2.535 11.19 4.197 16.609.087.175.087.35.174.525a242.671 242.671 0 0 0 11.802 31.995c8.917 19.669 20.631 38.727 35.143 57.085 10.84 13.638 23.166 27.013 37.065 39.951 6.645-1.224 11.453-2.623 14.425-4.371.35-2.885 1.05-5.595 2.011-8.217m-1.661-32.17c1.748 3.76 9.179 10.316 22.379 19.669m-65.127-50.44c3.497 6.73 7.431 13.113 12.064 19.057 11.189 14.687 25.701 26.925 43.534 36.716m-27.624 19.757h10.753m83.068 201.998c.349-.961.699-1.835 1.311-2.797.524-.874 1.137-1.748 1.749-2.622.612-.875 1.398-1.749 2.186-2.623a38.031 38.031 0 0 1 4.283-3.934c-6.294-7.257-13.813-14.949-22.467-23.254-1.399-1.398-2.798-2.797-4.196-4.021-3.234 1.835-5.332 3.934-6.207 6.294-.437 1.048-.523 2.186-.437 3.409m-19.408-23.952c8.916 1.835 17.571 6.557 26.051 14.161m-25.592 50.743c5.848-.945 9.493-2.774 22.412-2.189 17.788 2.508 18.652 1.364 54.845 20.509-.874-4.72-2.885-10.053-6.119-15.91-4.284-7.694-10.578-16.26-18.883-25.789m-632.151-431.913c6.032 1.574 11.278 7.693 15.736 18.184a71.13 71.13 0 0 1 1.311 3.409m-35.317-19.145c4.633.786 9.004 6.818 13.113 18.183 2.098 5.857 4.108 13.025 6.12 21.68m-31.56 69.149a258.464 258.464 0 0 1-1.749 27.625c-2.972 25.002-9.703 49.042-20.106 72.121m-52.277-182.183c-13.725 11.802-23.866 25.089-30.423 39.864m-68.448 237.782c20.544-46.245 54.637-72.121 102.369-77.629m-26.926-54.9c8.48 21.855 21.417 37.241 38.902 45.983m6.294-200.454c-9.005 6.907-17.483 17.047-25.526 30.423m-133.753 103.504c1.049 14.162 3.235 22.467 6.381 24.739m-17.571 98.086c7.693 6.645 15.473 10.142 23.166 10.491m-48.955-24.041c13.287 19.845 30.771 31.821 52.539 35.842m-21.504-136.113c-2.448 12.764-.612 26.052 5.333 39.864m149.399 212.605c7.955 2.885 15.647 4.371 23.167 4.371m5.507-.263c-72.646 31.996-123.175 27.275-151.673-14.336-3.06-4.371-5.771-9.179-8.305-14.337m-56.648 15.473c-1.399 5.857-1.836 12.414-1.312 19.582.786 11.103 3.934 23.866 9.441 38.203"/></svg>