<svg xmlns="http://www.w3.org/2000/svg" id="horn" viewBox="0 0 3000 3000"><path id="cl1" fill="#C32C2C" d="M1094.341 457.463c-2.646 9.45-5.009 18.807-6.899 27.975-23.627 112.747 9.64 207.065 99.8 282.954 19.563 14.365 36.385 22.682 50.562 24.855 22.209-.377 41.677-10.868 58.595-31.281 6.331-7.561 12.191-16.539 17.767-26.935 4.063-9.167 7.372-17.957 9.923-26.273 7.277-23.532 8.695-43.757 4.253-60.674-2.646-10.018-7.372-18.807-14.176-26.462-60.012-15.5-102.919-32.794-128.625-51.79-31.376-23.249-57.365-60.674-78.252-112.274-4.537-10.208-8.79-10.208-12.948-.095m815.504 136.977c3.875-23.627 6.899-49.144 8.979-76.551 3.496-37.708-.473-53.585-12.098-47.631-49.144 86.568-95.288 136.965-144.432 157.284 6.994 4.915 10.609 14.152 16.941 21.429 7.184 8.411 13.893 18.429 20.225 29.959 8.033 14.743 13.216 32.038 19.736 51.979 4.443 13.514 6.506 29.163 10.286 45.04 36.954-35.535 66.377-96.641 80.363-181.509z"/><path id="hl1" fill="#D16764" d="M1327.396 646.667c-51.223-1.229-92.428-13.137-123.71-35.629-31.281-22.493-56.798-50.656-76.456-84.678 25.895 81.465 91.294 141.761 196.008 180.886 7.277-23.532 8.694-43.757 4.158-60.579m555.704-82.658c.566-1.323 1.039-2.646 1.606-3.969 9.545-24.195 15.594-49.711 17.957-76.74-5.955 25.517-15.027 50.562-27.313 75.323-21.264 42.812-53.681 72.581-97.154 89.12 7.184 8.411 13.894 18.429 20.226 29.959 41.866-36.764 70.123-74.662 84.678-113.693z"/><path id="sd1" fill="#9B1E1E" d="M1135.451 640.145l-6.616-10.679c-22.02-48.766-35.913-96.775-41.771-144.028-23.627 112.747 9.639 207.065 99.799 282.954 19.563 14.365 36.386 22.588 50.562 24.855 22.209-.377 41.771-10.773 58.689-31.281-54.625-14.933-108.116-55.57-160.663-121.821m683.369 90.764c4.441 13.514 4.505 31.163 8.191 47.04 37.047-35.535 68.469-98.736 82.456-183.509-43.851 85.813-75.432 131.365-90.647 136.469z"/><path fill="none" stroke="#000" stroke-linecap="round" stroke-linejoin="round" stroke-width="6" d="M1760.539 627.692c7.237 5.086 11.505 13.03 17.94 20.523 7.183 8.411 11.893 18.429 18.226 29.959 8.032 14.743 14.215 32.037 20.736 51.979 4.441 13.514 4.506 33.163 8.19 49.04 37.048-35.535 69.471-100.736 83.457-185.509 3.875-23.627 6.899-49.144 8.979-76.645 3.497-37.708-.473-53.586-12.097-47.632-49.143 86.569-96.287 138.06-145.431 158.285zm-573.959 139.85c19.563 14.364 36.385 22.682 50.562 24.855 22.209-.378 41.772-10.774 58.595-31.283 6.237-7.561 12.19-16.539 17.767-26.935 4.063-9.166 7.372-17.956 10.017-26.367 7.277-23.533 8.695-43.757 4.159-60.58-2.646-10.018-7.372-18.901-14.176-26.462-60.012-15.499-102.919-32.793-128.625-51.884-31.376-23.25-57.366-60.674-78.157-112.181-4.537-10.112-8.884-10.112-13.042 0-2.741 9.451-5.01 18.807-6.9 27.974-23.627 112.75 9.546 206.973 99.8 282.863z"/></svg>