<svg xmlns="http://www.w3.org/2000/svg" id="horn" viewBox="0 0 3000 3000"><path id="cl1" fill="#F0E487" d="M1590.455 626.241c-8.304 10.486-10.415 24.208-6.334 41.239 6.826 19.845 25.546 35.398 55.947 46.657 30.964 7.46 54.961 3.941 72.063-10.485 7.037-5.982 12.878-13.793 17.593-23.575 5.278-14.075 6.474-23.082 3.589-26.953 12.245-11.048 16.186-23.293 11.823-36.664 2.604-1.9 5.137-4.011 7.529-6.404 6.193-6.122 8.586-14.355 7.249-24.7 9.148-7.108 12.808-16.187 10.978-27.165l22.168-51.09-60.942 35.89c-10.769-.915-21.042 1.688-30.824 7.741-4.785 2.956-7.671 7.459-8.656 13.723-15.904-1.056-25.757 5.489-29.627 19.563-16.256 1.9-28.993 8.375-38.212 19.353-6.124-2.393-17.665 5.207-34.344 22.87z"/><path id="hl1" fill="#F9FFB5" d="M1655.41 598.515c-4.082-4.083-8.727-3.66-14.075 1.267-4.082 3.729-6.193 8.234-6.333 13.512-.985 11.541 3.096 19.493 12.385 23.786 7.882 3.096 14.709 2.322 20.408-2.393 2.322-3.729 2.322-7.389 0-10.837-5.347-7.602-9.43-16.047-12.385-25.335m30.824-23.575c-1.196-1.548-2.886-1.689-4.927-.493-3.025 1.688-4.785 3.871-5.349 6.404-.984 4.645-.914 8.304.353 10.979 3.8 7.952 9.712 12.034 17.734 12.174 8.515.211 11.963-1.337 10.414-4.574-5.418-8.797-11.47-16.961-18.225-24.49m-75.863 50.668c-.423-2.463-1.689-3.237-3.941-2.393-5.137 1.548-8.655 6.052-10.697 13.512-3.87 16.045-.14 27.516 11.26 34.342 5.419 3.237 11.26 4.645 17.594 4.223 2.111.07 3.73-.352 4.645-1.267 2.604-1.618 1.126-7.178-4.433-16.819-5.491-9.642-10.346-20.197-14.428-31.598m166.433-103.097l13.511-12.456-63.194 38.143c-1.83.985-4.223 1.196-7.249.704-3.588-.774-6.755-.071-9.359 2.181-2.744 2.463-3.659 5.841-2.744 10.204 1.688 6.052 5.841 9.993 12.385 11.894 4.856.774 8.093-.212 9.782-3.026.493-.774.774-1.619.774-2.604-.353-4.293.281-7.671 1.97-10.063l44.124-34.977z"/><path id="sd1" fill="#CCA55A" d="M1732.68 597.67c2.111 2.252 2.814 5.278 2.04 9.078-.844 4.363-5.981 7.812-15.341 10.416-17.945 3.167-36.805-1.689-56.58-14.497 3.519 11.4 15.412 19.211 35.82 23.575 4.926.704 9.641.985 14.215.915 3.449 4.856 4.856 9.5 4.152 13.864-4.715 12.808-16.186 19.634-34.343 20.549-28.501 1.618-51.231-9.359-68.121-32.935-.352 11.822 4.646 22.097 14.989 30.823 17.945 13.301 36.242 18.86 55.032 16.679 4.081 4.292 4.574 9.43 1.479 15.411-3.66 7.108-11.612 11.119-23.856 12.034-30.543-1.126-56.511-13.09-77.904-36.031 6.827 19.846 25.546 35.397 56.018 46.657 30.965 7.46 54.962 4.012 72.063-10.485a1021.165 1021.165 0 0 0 10.556-18.79c3.589-6.544 5.771-13.653 6.475-21.323-.493-1.549-2.111-2.745-4.786-3.519-.773.492-2.604 1.688-5.63 3.589 19.986-21.534 27.445-36.383 22.52-44.617 11.119-15.622 15.06-25.404 11.894-29.205-.422.212-.774.423-1.267.634 11.54-13.652 16.326-23.786 14.496-30.331l22.871-47.713-30.612 44.969c-3.166 10.063-7.74 17.171-13.793 21.394-19.211 10.696-36.594 9.359-52.076-4.012.142 1.408.353 2.815.704 4.293 8.586 15.553 20.972 21.886 37.298 19.071.631-.212 1.194-.352 1.687-.493z"/><path fill="none" stroke="#000" stroke-linecap="round" stroke-linejoin="round" stroke-width="6" d="M1733.383 653.124c2.815 3.871 1.619 12.878-3.589 26.953-4.715 9.711-10.556 17.593-17.594 23.575-17.101 14.497-41.097 18.016-72.062 10.485-30.472-11.33-49.12-26.882-55.946-46.657-4.082-17.03-1.971-30.753 6.263-41.239 16.749-17.664 28.22-25.264 34.554-22.872h0c9.219-10.978 21.956-17.452 38.212-19.353 3.871-14.074 13.723-20.619 29.627-19.563.916-6.192 3.801-10.767 8.656-13.723 9.782-6.052 20.057-8.656 30.824-7.741l60.942-35.89-22.167 51.09c1.759 10.979-1.9 20.058-10.979 27.165 1.337 10.345-1.056 18.578-7.248 24.7-2.394 2.393-4.926 4.504-7.53 6.404 4.224 13.373.282 25.617-11.963 36.666a80.286 80.286 0 0 1-8.938 6.896c-.773.493-2.604 1.689-5.629 3.59-.845.492-3.167 1.688-6.756 3.589-9.29 4.715-18.509 7.671-27.657 8.727-18.789 2.251-37.086-3.308-55.031-16.608-10.345-8.656-15.342-18.931-15.061-30.824.07-3.449.634-7.037 1.618-10.767 2.464-5.419 5.489-10.274 9.008-14.426m135.048-17.876c-1.971 1.548-4.223 3.026-6.756 4.433-.423.212-.774.423-1.196.634-5.419 2.815-11.894 5.208-19.563 7.178-.563.141-1.056.281-1.619.422-16.326 2.886-28.783-3.519-37.368-19.071-.282-1.479-.493-2.886-.704-4.293-.492-3.8-.492-7.249 0-10.274m-29.627 19.563a44.862 44.862 0 0 0-1.408 7.319c-.492 4.082-.211 7.882.845 11.33 3.519 11.4 15.411 19.211 35.82 23.575 4.926.704 9.64.985 14.214.844 10.698-.281 20.339-3.025 28.713-8.022 1.619-.985 2.955-1.829 3.871-2.533"/></svg>