<svg xmlns="http://www.w3.org/2000/svg" id="tail" viewBox="0 0 3000 3000"><path id="cl1" fill="#D47B3F" d="M785.3 1863.301s10.7 38 71.3 0c60.601-38 83-47.7 108.301-56.301 25.3-8.6 66.699-16.3 98.699-15.699 32 .6 75.7-6 84.301 64 0 0 10.3 37.699-31 125-41.301 87.3-47 156.699-46 186 1 29.3 11 96 65 127s120.3 35.3 168.3 26.3 153.3-95.3 162.7-104c9.399-8.7 126.3-146.7 147-204.7 20.699-58 47.3-102 23.699-141.3-23.6-39.3-44-35-52.3-24s-36 138.7-52.3 176-32 92.3-82.3 143c-50.301 50.7-78 79.3-131 100.7-53 21.399-152.301 21-180.301-101.301 0 0-8.699-77.699 2.7-114.699 11.4-37 53.3-164.301 50-203.7s-16.7-101-153.7-102.3c-137-1.301-184 24.3-202 32.699-18 8.4-61.3 30.7-52.3 87.301"/><path fill="#533019" d="M1581.3 1946.7c-1.1 9-3.6 15-7.5 18-7.6 7.7-17 11.101-28 10.4 9-23.8 19.4-50.2 21.2-76.101 10.7 16.901 14.8 30.401 14.3 47.701m-47 129.8l.301-1.5c.199-11.899-2.2-24.199-7.301-37l-22.1 47.5c7.5 3.4 14.6 4.301 21.2 2.7 4.3-2 6.9-6 7.9-11.7m59.3-29.1c3.5-4.4 6.601-9.5 9.5-15.3-21.199-11.7-32.6-15.101-34.3-10.3-1.8 11.2 6.5 19.7 24.8 25.6m-399.4-192.8c-6.7 12.5-14.7 24.2-24 35.2 4.8 5.699 10.6 7.5 17.6 5.5 4.5-12.2 6.7-25.8 6.4-40.7m-49 23.8c14.1-16.4 22.6-40 25.3-70.7-8.2 12.101-19.6 23.2-26.3 28.2l3.5 40m-60-127.7l-23.9-2.2c2.7 8.2 6.6 15.2 11.7 21.2 6.7 7.7 10.8 8.101 12.2 1 1.3-7 1.3-13.6 0-20m-1.4 321.5c15.101-21.899 27.5-41.8 44.5-57.7-7.899-5.1-17.8-5-29.8.4l-18.3 56.2m62 112.6c-.4.4-.601.8-.7 1-4.8 12.9-12.3 26-22.7 39.4-2 3.8 1 6 8.9 6.6 10.2 1.2 19.5-4.2 27.7-16.2l-13.2-30.8m135.1 119.3c4.301-2.5 7-10.8 8.2-24.5l-23 2 3.8 18.601c.9 6.399 4.6 7.7 11 3.899m-168.6-174.8c10.6 2 19.3 5.8 26 11.101l-1-31c-9.601-.7-18 1.8-25.2 7.6-6.8 7.599-6.7 11.699.2 12.299m-38.4 75.3c9.5-14.899 19.801-32.1 31-51.699-1.1-3.301-4.199-4.2-9.199-2.301-10.601 3.801-18.801 9.2-24.601 16.4l2.8 37.6m33 69.4c15.5 17.7 36.2 30.8 62 39.4.601-23.7-6.1-43.301-20.1-59-3.8-4.2-9.1-5.2-16-3-10.1 4.6-18.7 12.1-25.9 22.6m401.2-142.099c-4.7 1.199-6.7 4.6-5.8 9.8.6 7.5 6.1 15 16.199 22.5 5.601-9.3 10.101-13.101 18.601-25.101-11.9-6.9-21.5-9.3-29-7.199m-65.2 76.099c14-17.8 20.601-35.4 19.7-53.2l-54.9 57.601c3.9 3.699 9.2 5.899 16.101 6.399 6.099.5 12.399-3.1 19.099-10.8m-126.3 80c-7.3 7.7-12 20-14 36.8 18.6-5.399 38.9-15.1 61.1-28.8-9-9.4-17.8-14.2-26.3-14.5-9.5-.4-16.5 1.7-20.8 6.5m-353.3-476.599l27.6-8.101c-12.2-17.5-25.7-29.399-40.399-35.699 5.499 15.3 9.699 29.899 12.799 43.8M875 1800.2c8.6 11.9 13.1 12.3 13.6 1.3.7-15.3-.8-29.199-4.399-41.699l-28 9.1c3.699 9.9 9.899 20.4 18.799 31.299m-57.1 81.101c19.199-5.801 32.699-11.7 40.5-17.9 3.6-29.8-12.801-54.4-49-73.7-18.2 10.7-26.9 33.101-27.9 67.801 6.3 16.898 16.8 26.898 36.4 23.799"/><path id="sd1" d="M783.3 1852.7s8 14.3 38.7 5.7 67.3-51 110.3-62.3 113.7-37 163-21c49.301 16 62 26.3 64.7 73.7l-12.7 41s2-58.301-10.699-73.7c-12.7-15.4-28-30.7-86.301-26.3-58.3 4.399-72.3 12-85 17.3s-69.3 29.7-83 39-52.3 38-75.7 34.3c-23.4-3.7-23.3-27.7-23.3-27.7zm288.4 310.601s14 93 93.699 126c79.7 33 107.301 22.699 147.7 14.3 40.4-8.399 114-76.3 132-89.3s77.7-83.7 89.7-105c12-21.301 73.7-141 79.3-159.301 5.601-18.3 22-49.699 11.7-95.3 0 0 24.3 20.7 21.3 61.7s-51 125.7-56.7 136.7c-5.699 11-73.699 110-90.3 126.7-16.7 16.699-98.7 103-174 130.699-75.3 27.7-173.3 12.4-216-37-40.799-47.198-38.399-110.198-38.399-110.198z" opacity=".25"/><path fill="none" stroke="#000" stroke-miterlimit="10" stroke-width="6" d="M785.3 1863.301s10.7 38 71.3 0c60.601-38 83-47.7 108.301-56.301 25.3-8.6 66.699-16.3 98.699-15.699 32 .6 75.7-6 84.301 64 0 0 10.3 37.699-31 125-41.301 87.3-47 156.699-46 186 1 29.3 11 96 65 127s120.3 35.3 168.3 26.3 153.3-95.3 162.7-104c9.399-8.7 126.3-146.7 147-204.7 20.699-58 47.3-102 23.699-141.3-23.6-39.3-44-35-52.3-24s-36 138.7-52.3 176-32 92.3-82.3 143c-50.301 50.7-78 79.3-131 100.7-53 21.399-152.301 21-180.301-101.301 0 0-8.699-77.699 2.7-114.699 11.4-37 53.3-164.301 50-203.7s-16.7-101-153.7-102.3c-137-1.301-184 24.3-202 32.699-18 8.4-64.099 33.301-51.099 87.301z"/></svg>