<svg xmlns="http://www.w3.org/2000/svg" id="tail" viewBox="0 0 3000 3000"><path id="cl1" fill="#C00000" d="M992.8 2486.9c1.9-2.2 3.8-4.3 5.7-6.5 3.7-11.6 4-23.8 4.2-35.8.3-15.2-10-24.1-23.2-29.5-16.4-6.7-33.8-10-51-13.7-35-7.5-69.3-16.5-100.2-35.4-24.8-15.1-45.2-34.6-60.9-59.4-10.5-16.6-22.9-32-27.7-51.8-.8-3.5-1.3-7.2-2.8-10.5-2.3-16.6-1.2-33.2.8-49.6 4.2-34 15.4-66.1 29.7-97 4.6-10 11.7-18.6 18.3-27.3 15-20.1 31.8-38.6 51.5-54.1 24.6-19.3 52.5-32.7 82.2-42.2 17.1-5.5 34.6-10 52.6-11.2 27.7-1.8 55.1-.1 82.2 6.7 55.9 14 106.9 38.8 156.1 67.7 30.1 17.7 60.1 35.8 91.1 51.9 22.9 11.9 47 19.8 72.1 25.9 48.7 11.7 92.9 2.3 134.4-24.4 23.4-15.1 44.6-32.7 62.1-54.5 31.3-39 43.3-83.3 34.6-132.9-1.9-10.9-5.7-21.2-11.8-30.6-2.5-3.8-6-8.5-2-12.6 4.1-4.2 9.4-1.6 13.8.8 7.1 3.9 13.3 8.7 17.3 16.1 10.6 19.1 18.4 39.1 20.7 61 1.6 3.3-.2 7.1 1.4 10.5.1 1.3.1 2.6.2 3.9-4.9 33.3-23.2 60.3-42.7 85.9-26.7 35.2-59.9 63.6-100.8 81.5-34.6 15.2-70.4 27.5-109 25.4-38-2.1-73.9-12.9-108.3-29-41.5-19.4-77.3-48.6-118.8-67.9-43.9-20.5-90.4-31.6-138.4-37-23.6-2.6-47.1-3.1-70.7-.1-48.1 6.1-87.3 28.1-116.1 66.9-20.7 28-37.9 58-42.5 93.6-5.5 43.2.6 83.8 25.6 120.5 1.2 2.1 2.3 4.3 4 6 1.4 2 2.1 4.6 4.5 5.8 19.7 26.8 47.7 41.6 77.7 53.5 24.7 9.9 49.8 18 76 23.2 34.3 6.7 54.3 29.7 66 61.3 6.3 29.2-6.7 52-24.8 72.8-9.8 11.3 3.9 16.6 2.1 15.6 19.1-3.2 32.2 11.8 38.7 29.5 2.4 21.4-9.1 35.5-25.7 45.7-34.8 21.3-72.9 33.8-113.2 39.6-24.2 3.5-48.6 2.9-73 .9-7.7-.6-14.3-2.8-18.4-9.8-2.3-10.2-.9-20.5.8-30.5 7.1-42.4 20.5-82.6 44.1-118.9 4.2-6.5 9.2-12.3 14.6-17.7 9.9-9.9 21.3-18 33.1-25.6 9.8-6.3 22.2-8.5 33.3-4.4 9.5 5 12.8 14.1 15.5 24.2 1.4 5.4-.1 11.9 3.1 16.5 4.3 6.1 4.9.4 11.9 7z"/><path id="sd1" fill="#890000" d="M1635 1994c-12.6 32.3-32.8 59.3-58.8 82.1-34 29.7-72.2 52.4-114.8 67.4-26.1 9.2-53 12.2-80.7 8.9-31.9-3.8-63-10.5-92.8-22.8-15.7-6.5-30.7-14.4-45.2-23.4-45.2-27.9-92.7-51.1-143.3-67.6-19.4-6.3-39.5-9.6-59.8-10.8-33.7-1.9-67.1 1.1-100.4 7.1-48.7 8.7-84.7 34.9-110.3 76.8-13.9 22.7-24.6 46.4-27.8 73.1-4.2 34.4-.5 67.1 17.7 97.3 1.4 2.3 3 4.5 3.2 7.3-4.9-3.3-7.3-8.6-10-13.5-21.7-38.5-27.9-79.4-18.3-122.6 2.5-11.1 6.3-21.8 11.3-32 13.2-26.7 28.3-52.2 50.5-72.6 26.5-24.3 57.3-40.2 93-44.9 40.6-5.4 81.1-2.6 121.2 6 17.6 3.8 35 8.4 52.2 13.4 34.6 10.2 66 26.9 95.9 46.5 23.5 15.4 47.5 29.9 72.9 41.4 34.5 15.7 70.7 26 109 26 27 0 52.6-7.6 77.8-16.7 59.1-21.4 103.5-60.5 136.4-113.4 11.5-18.4 21.7-37.5 29.7-57.6 1.7 15.7-3 30.3-8.6 44.6zm-637.2 483.3c6.8-10.7 9.5-22.7 9.8-35.2.2-9.8-3.3-18.1-10.6-25-7.5-7.1-16.5-11.2-26.3-13.8-16.4-4.3-32.8-8.7-49.5-12.1-32.8-6.8-64.6-16.2-93.3-34.2-21.1-13.3-39.3-29.7-53.1-50.6-14-21.1-29-41.5-38.6-65.2.2 15.3 4.8 29.6 10.4 43.4 14 34 35.5 62.4 66.5 82.8 41.9 27.7 87.6 46.5 137.5 54 25.2 4 48.1 26.2 47.2 55.9zm40.1 121c-16.7 11.3-35.5 18-54.3 24.8-41.7 15.3-84.9 18.1-128.8 15.9-6.8-.3-13-2.6-18.9-5.7-.5 8.9 6.3 11.2 12.5 13.1 9.9 3.1 20.3 4.3 30.5 4.4 45.6.5 90.4-4.7 133.2-21.6 17.9-7.1 33.4-17.8 46.3-32.3 10.5-11.8 12.1-25.4 7.8-40.1-2.5 18.7-13.5 31.5-28.3 41.5zm-5.6-79.6c24.7-18.4 30.3-49.8 18-79.7-1.9 30.8-14.1 56.8-36.7 77.9-1.9 1.8-3.9 3.7-5.5 5.7-2.6 3.4-1.8 5.7 2.3 6.1 5.9.5 11.9.3 17.8.5-3.3-5.4.6-7.9 4.1-10.5zm-72.3-81.5c8 10.2 12 22.1 14.2 34.8 1.2 7.3 1.6 14.5 1.9 21.9.1 1.6.2 3.5 2 4.2 1.8.8 3.2-.4 4.3-1.6 3.7-3.8 7.2-7.9 9.7-12.6-4.9-1.5-2.7-5.3-2.7-8.4.2-19.7-11.1-34.4-29.4-38.3z"/><path fill="none" stroke="#050505" stroke-miterlimit="10" stroke-width="6" d="M1644.4 1949.3c-.1-1.3-.1-2.6-.2-3.9-1.6-3.3.3-7.1-1.4-10.5-2.3-21.9-10.1-41.9-20.7-61-4.1-7.3-10.2-12.2-17.3-16.1-4.4-2.4-9.7-5-13.8-.8-4.1 4.2-.5 8.8 2 12.6 6.1 9.4 9.9 19.6 11.8 30.6 8.7 49.5-3.3 93.9-34.6 132.9-17.5 21.7-38.7 39.4-62.1 54.5-41.4 26.7-85.6 36.1-134.4 24.4-25.1-6.1-49.2-14-72.1-25.9-31.1-16.1-61-34.1-91.2-51.9-49.2-29-100.3-53.8-156.1-67.7-27.2-6.8-54.5-8.5-82.2-6.7-18 1.2-35.5 5.7-52.6 11.2-29.7 9.5-57.6 22.8-82.2 42.2-19.8 15.5-36.5 34.1-51.5 54.1-6.6 8.8-13.7 17.3-18.3 27.3-14.4 30.9-25.6 63-29.7 97-2 16.4-3.2 33-.8 49.6.2 15.3 4.8 29.6 10.4 43.4 14 34 35.5 62.4 66.5 82.8 41.9 27.7 87.6 46.5 137.5 54 25.3 3.9 48.1 26 47.2 55.7.1 3.1-1.7 5.2-5.7 6.5-4.9-1.5-2.7-5.3-2.7-8.4.2-19.6-11.1-34.3-29.4-38.3-11.1-4-21.7-2.8-31.5 3.5-11.8 7.5-23.2 15.6-33.1 25.6-5.4 5.4-10.4 11.2-14.6 17.7-23.6 36.4-37 76.5-44.1 118.9-1.7 10-3.1 20.3-.8 30.5-.5 8.9 6.3 11.2 12.5 13.1 9.9 3.1 20.3 4.3 30.6 4.4 45.6.5 90.4-4.7 133.2-21.6 17.9-7.1 33.4-17.8 46.3-32.3 10.5-11.8 12.1-25.4 7.8-40.1-6.5-17.7-18.9-27.4-38-27.8-3.4-5.3.5-7.8 4-10.4 24.7-18.4 30.3-49.8 18-79.7-11.7-31.6-31.7-54.6-66-61.3-26.2-5.1-51.3-13.3-76-23.2-29.9-12-58-26.7-77.7-53.5-5.6-8.1-10.2-16.7-11.6-19-18.2-30.2-21.9-62.9-17.7-97.3 3.3-26.8 14-50.4 27.8-73.1 25.6-41.8 61.6-68 110.3-76.8 33.2-6 66.6-8.9 100.4-7.1 20.3 1.1 40.4 4.4 59.8 10.8 50.6 16.5 98.1 39.7 143.3 67.6 14.5 8.9 29.5 16.9 45.2 23.4 29.8 12.3 60.9 19 92.8 22.8 27.7 3.3 54.6.3 80.7-8.9 42.6-14.9 80.8-37.7 114.8-67.4 26-22.7 46.2-49.8 58.8-82.1 5.2-13.9 9.9-28.5 8.4-44.3z"/></svg>