<svg xmlns="http://www.w3.org/2000/svg" id="tail" viewBox="0 0 3000 3000"><path id="cl1" fill="#66300C" d="M887.7 1889.8c.1 2.3-.7 4.2-1.7 6.2-3.6 7.6-8.6 14.2-14.6 20-17.2 16.6-41.3 10.3-48.8-12.3-2.6-7.8-3.1-15.8-4.4-23.7-1.6-45.2 4.1-89 25.5-129.5 18.4-35 44.9-62.3 80.5-80.2 14-4.4 27.4-10.6 41.6-14.4 30.4-8.5 61.5-10 92.6-7.8 42.4 3 83.2 11.6 122.7 27.2 43.7 17.4 86.9 38 122.6 69.1 34.6 30.1 59.2 68.8 74.2 112.5 8.1 23.6 17.9 44.4 35.9 62.3 14.4 14.3 31.5 23.8 53 20.8 1.9-.3 3.8 1.4 4.9-.5 38.4-11.8 57.1-42.3 72.5-76 1.2-2.7 2.4-5.4 3.6-8.2 12.6 17.2 20.5 36.2 24.3 57.2 1.6 9 2.3 18.1 3.7 27.1-.1 1.4-.2 2.8-.2 4.2-5.8 9.7-14.4 15.5-24.9 19.1-26.5 9-53.1 17.4-79 28.2-44.6 18.5-77.7 1.7-103.8-33.3-14.8-19.9-21.9-44-31.8-66.6-32-72.9-82-128.8-155.3-162.4-30.6-14-61.3-27.6-95-32.9-44.6-7.1-87 .8-127.6 18.8-23.4 10.3-40.2 28.6-51.9 51.4v-.1c-1.4.9-.9 2.9-2.2 3.9-12.4 25.2-18.3 51.8-16.3 79.9 0 1.2-2.1-.3-1.9 1.9 1.3 12.7.6 25.5 1.8 38.1z"/><path id="sd1" fill="#4A2309" d="M906.1 1766.1c5.6-18.6 17.9-32.4 32.2-44.7 8.4-7.2 17.9-12.6 28.3-16.5 24.9-9.2 50.4-15.1 76.9-16.6 22.5-1.3 44.8 1.1 66.3 7.4 50.3 14.8 97.1 36.8 138.7 69.2 27.7 21.6 49.3 48.1 66.7 78.7 12.7 22.4 23.8 45.3 33 69.4 8.5 22.3 20.9 42.4 38.6 58.9 7.6 7.1 16.1 12.9 25.8 16.7 15.9 6.2 32.1 6.9 47.9.8 31.1-12.1 62.7-22.6 94.1-33.6 7.6-2.7 14-7.7 20.9-11.7-1.7 10.8-8.5 17.8-17.7 22.8-7.4 4-15.3 6.5-23.3 9-23.5 7.4-46.7 15.6-69.5 25.1-31.2 12.9-58.6 6.8-82.3-17-16.3-16.4-27.9-35.8-35.6-57.3-10.2-28.8-25-55.2-40.5-81.2-12.9-21.6-29.2-40.5-48.4-56.8-47.4-40.2-101.9-66.7-161.9-81.2-49.1-11.8-96.7-3.6-142.6 15.7-16.6 7-29 19.8-40.1 33.8-2.5 2.9-5 6-7.5 9.1zM825 1918.9c6.8 15.4 19.6 19.8 34.2 11.4 13.5-7.7 22.8-19 26.8-34.3-5.5 5.2-9.9 11.6-16.2 16.1-20.2 14.4-37.8 9.3-46.3-14-2.2-5.9-3.6-12.1-5.3-18.1-.7 13.5 1.3 26.6 6.8 38.9z"/><path id="hl1" fill="#8C4512" d="M1471.6 1939.7c1.2 2.1-.2 3.1-1.9 3.7-5.8 1.9-11.6 2.6-17.7 1.7-18-2.7-32.4-11.8-44.1-25.3-12.2-14-20.2-30.5-26.9-47.6-4.6-11.8-7.9-24.1-13.6-35.4-22.9-45.6-54.5-83.6-98-111-58-36.5-120.4-61.4-188.2-72-39.3-6.1-78.4-5.1-117.1 4.5-2.2 1.2-4.2 1.8-3.9-2 26.5-8.8 54-11.9 81.7-11 88.2 2.6 167.4 32.9 239.9 81.4 47.5 31.7 79.5 76 98.3 129.9 5.5 15.8 12.1 31 21.3 45 13.2 20 30.5 34.2 54.6 38.7 4 1.3 8 1.3 12 0 1.2-.3 2.4-.5 3.6-.6zm104.1-11.7c-1.7-3.3.2-7.1-1.4-10.5-.6-9.7-3.2-19-6.1-28.3-3.5-10.8-8.1-21.2-14.6-30.5-1.3-1.9-2.2-5.3-5.9-3.3.6 4.4 2.3 8.3 4.6 12 10.4 16.9 16.5 35.4 19.5 54.9.9 5.9 1.8 11.8 4 17.4-.1-3.8-.1-7.8-.1-11.7zm-688-78.1c-1.7-4.3-1.7-9-2.8-13.4-1.5 18 .3 35.7 2.8 53.4 1.8-13.4 1-26.7 0-40zm40.2-181.5c-.8.5-1.5 1.3-2.5 1.5-.4 0-.8.2-1.2.4 2.6.7 5.1.5 7.7-.4 10.7-3.9 21.4-7.9 32.1-11.8-1.3-.7-2.6-1.3-3.9-2-11.5 2.3-21.9 7.1-32.2 12.3zm646.4 249.1c-.4 3.6.1 7.1 1.4 10.5.5-3.6.1-7.1-1.4-10.5z"/><path fill="none" stroke="#040000" stroke-miterlimit="10" stroke-width="6" d="M1568.2 1889.3c-3.5-10.8-8.1-21.2-14.6-30.5-1.3-1.9-2.2-5.3-5.9-3.3-1.2 2.7-2.4 5.4-3.6 8.2-15.4 33.7-34.1 64.2-72.5 76-1.2.2-10.8 1-15.6.5-24.2-4.5-41.4-18.8-54.6-38.7-9.2-14-15.8-29.3-21.3-45-18.8-53.9-50.9-98.2-98.4-129.9-72.5-48.5-151.7-78.7-239.9-81.4-27.8-.8-80.9 10.8-81.7 11-11.4 2.2-21.9 7.1-32.2 12.3-.8.5-3.4 1.7-3.7 1.9-35.6 17.9-62.1 45.2-80.5 80.2-21.3 40.5-27.1 84.3-25.5 129.5-.7 13.5 1.4 26.5 6.8 38.9 6.8 15.4 19.6 19.8 34.2 11.4 13.5-7.7 22.1-19.2 26.8-34.3.7-1.9 1.1-3.8 1.7-6.2 1.9-13.3 1-26.6 0-39.9-2-28.2 3.8-54.7 16.3-79.9 1.5-2.5 7.1-10 9.6-13.2 11.1-14 23.5-26.8 40.1-33.8 45.9-19.3 93.5-27.5 142.6-15.7 60.1 14.5 114.6 41 161.9 81.2 19.2 16.3 35.5 35.2 48.4 56.8 15.6 26 30.3 52.4 40.5 81.2 7.6 21.5 19.3 41 35.6 57.3 23.7 23.8 51.2 29.9 82.3 17 22.8-9.4 46-17.7 69.5-25.1 7.9-2.5 15.9-5 23.3-9 9.2-5 16-11.9 17.7-22.8.1-1.4.2-2.8.2-4.2V1928c0-9.8-4.6-29.5-7.5-38.7z"/></svg>