<svg xmlns="http://www.w3.org/2000/svg" id="wing" viewBox="0 0 3000 3000"><path id="cl1" fill="#413936" d="M654.238 1701.957c-14.759 13.695-19.324 1.979-19.324 0-38.499-260.66-240.421-248.03-240.421-248.03-50.672 14.152-10.195-42.606-10.195-42.606 8.064-53.258-43.672-188.228-88.712-205.88-45.042-17.651-14.153-42.606-14.153-42.606 58.281-85.669-31.497-263.247-35.454-286.527-3.956-23.281 10.195-10.196 10.195-10.196 210.445 318.94 495.451 285.464 495.451 285.464 22.064-2.587 39.107-9.13 39.107-9.13 23.89-10.196 63.454-32.413 63.454-32.413 22.825-25.411 70.452-8.064 70.452-8.064 250.617 54.78 418.456 470.649 418.456 470.649 7.608 27.846-17.804 13.693-17.804 13.693-377.372-114.124-656.292 101.95-671.052 115.646zm1574.002-.608c9.13 13.238 16.282 4.109 16.282 4.109 23.281-262.792 168.902-243.771 197.813-249.096 13.695-2.587 6.087-22.369 6.087-22.369-22.824-40.629-.151-162.817 52.65-220.031 42.76-33.02 30.586-38.65 30.586-38.65-60.866-78.061 18.716-287.593 18.716-287.593 10.652-49.149-7.151-16.738-7.151-16.738-28.911 89.322-139.992 179.556-139.992 179.556-208.468 175.447-320.31 70.452-320.31 70.452-22.52-27.846-45.345-24.803-45.345-24.803-213.185 32.564-355.155 475.822-355.155 475.822-8.064 20.238 7.152 18.26 7.152 18.26 298.245-130.862 529.537 97.993 538.667 111.081z"/><path id="hl1" fill="#5B504C" d="M2392.578 1059.362c-104.689 129.189-236.922 111.234-236.922 111.234-58.584-3.043-91.3-31.194-91.3-31.194-20.542-30.433-58.583-16.738-58.583-16.738-95.864 27.39-234.943 241.183-234.943 241.183s126.905-250.313 248.638-264.007c0 0 27.999-15.674 68.475 25.868 0-.001 114.733 97.841 304.635-66.346zm-142.579 588.273c-100.43-136.949-175.903-344.503-176.512-348.459 25.107 155.209 172.707 375.088 172.707 375.088 1.523-12.174 3.805-26.629 3.805-26.629zm-76.083-382.697s148.361 152.166 274.659 168.904c0 0-5.326-15.978-6.087-21.303.001 0-111.081-22.064-268.572-147.601zm110.321-57.823s152.927 1.521 238.9-43.367c0 0-8.369-15.978-10.652-27.39 0 0-136.188 52.498-228.248 70.757zM405.752 1033.647s153.688 152.926 299.766 139.992c0 0 62.388-.761 143.797-39.563 0 0 42.606-23.586 54.779-18.26 0 0 101.19 15.217 237.379 132.384 0 0-115.646-132.384-221.401-146.84 0 0-44.736-18.26-74.561 14.456 0 0-60.866 38.042-98.908 36.52 0 0-177.273 15.216-340.851-118.689zm-123.255 132.384s103.473 41.085 271.616 41.846c0 0-124.015-14.456-257.92-66.953-3.805-.762 8.369 6.847-13.696 25.107zm95.104 268.572c263.247-82.169 353.785-179.555 353.785-179.555-218.357 133.145-346.938 141.514-346.938 141.514.761 25.868-6.847 38.041-6.847 38.041zm251.074 240.422c187.012-209.228 255.638-380.415 255.638-380.415-96.625 139.992-264.769 336.286-264.769 336.286 9.891 31.955 9.131 44.129 9.131 44.129z"/><path id="sd1" fill="#37312E" d="M1755.461 1566.986s144.558-263.246 186.402-311.178c0 0 16.434-15.521 36.368-33.173 22.825-20.238 50.062-43.367 61.779-48.996 0 0 9.13 0 16.738 25.868 0 0 1.826 42.302 4.564 57.823 2.738 15.52 47.933 270.094 184.881 433.672l-5.325 14.457s0 4.564-3.804 3.803c0 0-79.888-73.801-152.927-108.799 0 0-76.844-251.072-72.279-368.24 0 0-7.76-15.978-28.911-5.326 0 0-60.105 12.173-170.426 326.396.002 0-37.279 4.564-57.06 13.693zm690.832-111.841c4.564-.761 4.564-13.695 4.564-13.695-174.229-24.956-296.723-200.098-296.723-200.098-3.044.761-40.324-40.324-40.324-40.324 47.172 167.382 200.098 311.178 200.098 311.178 76.844-72.277 132.385-57.061 132.385-57.061zm-203.902-241.182s153.688 78.365 215.314 85.974c0 0 25.107-79.126 62.388-102.712 0-.001-179.555 31.954-277.702 16.738zm267.051-98.147c-6.087-16.738 0-82.93 0-82.93-109.56 103.473-174.99 123.254-174.99 123.254 91.298 12.934 174.99-40.324 174.99-40.324zM1272.64 1571.094s-141.971-247.571-263.703-360.174c0 0-55.845-31.499-65.889-27.39 0 0-61.018 220.792-305.548 520.101 0 0 5.021 7.609 14.151-1.521 0 0 145.318-94.037 203.141-107.732 0 0 108.038-221.401 116.407-340.851 0 0 3.804-12.934 12.173-19.781 0 0 3.043-6.848 1.521-14.456 0 0 5.326 2.283 7.608 5.326 0 0 23.586 1.521 21.303 21.303 0 0 65.128 40.475 171.947 308.135-.15-.002 33.782 5.02 86.889 17.04zm-716.244-48.235s132.384-85.974 283.028-324.874c0 0-11.412 12.934-25.107 13.695 0 0-122.494 109.559-176.969 139.231-46.259 23.128-212.727 99.668-260.659 93.885 0 0-7.608 6.544 0 8.827.151.001 97.537-6.847 179.707 69.236zm-192.49-227.488s184.881-37.28 309.657-84.452c0 0-137.71 32.715-401.717-27.695 0 0-1.217 9.891 33.933 25.868 0 .001 22.824 16.283 58.127 86.279zm-61.627-177.273s43.367 18.26 87.495 25.107c0 0 149.883 16.738 177.273 19.782 0 0-219.118-69.235-273.137-144.558 0 .001 14.455 50.216 8.369 99.669z"/><path fill="none" stroke="#231815" stroke-miterlimit="10" stroke-width="6" d="M654.238 1701.957c-14.759 13.695-19.324 1.979-19.324 0-38.499-260.66-240.421-248.03-240.421-248.03-50.672 14.152-10.195-42.606-10.195-42.606 8.064-53.258-43.672-188.228-88.712-205.88-45.042-17.651-14.153-42.606-14.153-42.606 58.281-85.669-31.497-263.247-35.454-286.527-3.956-23.281 10.195-10.196 10.195-10.196 210.445 318.94 495.451 285.464 495.451 285.464 22.064-2.587 39.107-9.13 39.107-9.13 23.89-10.196 63.454-32.413 63.454-32.413 22.825-25.411 70.452-8.064 70.452-8.064 250.617 54.78 418.456 470.649 418.456 470.649 7.608 27.846-17.804 13.693-17.804 13.693-377.372-114.124-656.292 101.95-671.052 115.646zm1574.002-.608c9.13 13.238 16.282 4.109 16.282 4.109 23.281-262.792 168.902-243.771 197.813-249.096 13.695-2.587 6.087-22.369 6.087-22.369-22.824-40.629-.151-162.817 52.65-220.031 42.76-33.02 30.586-38.65 30.586-38.65-60.866-78.061 18.716-287.593 18.716-287.593 10.652-49.149-7.151-16.738-7.151-16.738-28.911 89.322-139.992 179.556-139.992 179.556-208.468 175.447-320.31 70.452-320.31 70.452-22.52-27.846-45.345-24.803-45.345-24.803-213.185 32.564-355.155 475.822-355.155 475.822-8.064 20.238 7.152 18.26 7.152 18.26 298.245-130.862 529.537 97.993 538.667 111.081z"/></svg>