<svg xmlns="http://www.w3.org/2000/svg" id="wing" viewBox="0 0 3000 3000"><path id="cl1" fill="#FFF8E9" d="M780.268 1103.265s24.453 8.786 81.997 57.546c0 0 254.777 183.468 438.246 252.873 0 0 33.238 44.952 21.524 58.569 0 0-16.546 38.071-78.044 71.309 0 0-138.663 53.738-149.352 60.473 0 0-88.879 38.07-160.042 27.381 0 0-27.821 1.904-44.366-35.58 0 0-218.61 53.738-203.822-51.835 0 0-102.79-22.841-179.076-68.378-46.124-27.821-77.897-63.403-57.398-104.693 0 0-166.923-148.913-210.411-287.431 0-1.903-29.724-83.021 68.38-71.748 0 0 34.703 15.667 124.46 22.404 0 0 86.829 10.25 125.485 23.867-.145-.148 74.092-3.515 222.419 45.243zm930.815 309.686s-21.964 42.463-20.499 54.909c0 0 7.321 34.41 66.622 75.409 0 0 60.034 30.016 92.247 42.463 0 0 42.463 23.428 71.016 32.213 0 0 124.899 44.367 133.978-24.16 0 0 180.54 58.57 173.219-49.49 0 0 119.629-34.264 175.123-89.612 23.428-23.281 38.363-52.419 21.085-83.607 0 0 127.096-132.953 179.369-288.894 0 0 19.768-88.293-68.526-68.819 0 0-50.516 15.082-93.711 17.571 0 0-103.229 24.16-112.014 26.356-1.905 0-130.317 15.082-174.977 40.999 0 0-49.052 24.599-78.045 62.962 0 0-110.989 95.614-167.655 130.756.147.145-165.019 111.867-197.232 120.944z"/><path id="sd1" fill="#C4CFD2" d="M251.239 1024.197s-21.231 74.676 96.64 196.94c0 0 55.641 69.551 174.977 84.194 0 0 129.585-.732 210.85 10.25 0 0 19.035 1.464-21.231 15.375 0 0-73.944 21.231-169.12 35.874 0 0-81.265 8.785-88.586 4.393 0 0-205.725-187.422-218.171-314.079-.001-.002-.733-21.966 14.641-32.947zm200.601 348.196c-29.285 34.117 26.356 77.896 26.356 77.896 39.534 54.177 213.778 94.443 213.778 94.443-20.499 45.392 38.802 59.302 38.802 59.302 29.285 16.838 160.334-11.715 160.334-11.715-.586 29.139 35.142 36.607 35.142 36.607 65.159 7.32 144.228-18.305 144.228-18.305 28.553-8.053 95.907-39.533 95.907-39.533 86.391-24.893 114.211-54.178 114.211-54.178-210.118 78.338-249.653 72.48-249.653 72.48-55.641 5.125-85.658-19.035-85.658-19.035 49.052-26.356 56.373-57.105 56.373-57.105-150.084 91.516-251.117 57.838-251.117 57.838-27.82-9.518-28.552-26.356-28.552-26.356 24.892 0 103.96-49.784 103.96-49.784 51.98-37.338 40.999-35.142 40.999-35.142-17.571-.732-106.89 24.16-106.89 24.16-59.301 10.982-134.709-9.518-134.709-9.518-167.655-48.32-129.585-102.056-129.585-102.056H451.84zm1427.63 227.689c38.07 26.357 118.163 30.164 118.163 30.164 50.81 11.566 54.617-37.926 54.617-37.926 18.595 9.811 117.14 15.668 117.14 15.668 65.449-1.025 54.615-65.451 54.615-65.451 177.611-52.713 189.325-104.4 189.325-104.4 31.188-33.239 6.883-65.598 6.883-65.598 18.596-17.864 110.257-139.396 110.257-139.396 83.9-147.449 73.212-186.397 73.212-186.397-3.954-26.356-13.617-20.499-13.617-20.499-9.812 99.568-84.926 207.921-84.926 207.921-37.045 42.024-77.166 66.33-77.166 66.33-81.997 46.856-160.041 25.331-160.041 25.331-91.808-23.428-74.236-5.857-74.236-5.857 64.426 30.31 202.064 56.667 202.064 56.667 6.882 43.927-10.688 54.616-10.688 54.616-76.141 71.309-152.281 70.138-152.281 70.138-67.354 8.639-162.969-56.374-162.969-56.374 21.523 68.38 138.662 93.272 138.662 93.272-16.546 54.178-111.282 36.605-111.282 36.605-80.093-13.616-150.376-89.757-150.376-89.757 1.903 38.07 84.926 100.593 84.926 100.593-5.857 6.881-6.883 4.832-6.883 4.832-120.066 5.857-146.423-11.713-146.423-11.713-152.281-70.283-174.684-111.283-174.684-111.283-8.785-11.714-13.618-6.882-13.618-6.882 22.403 96.493 189.326 139.396 189.326 139.396z"/><path fill="#231815" d="M779.388 1106.781c9.811 3.515 23.136 12.885 32.945 19.621 18.011 12.592 34.118 27.527 51.98 40.267 29.432 20.938 59.449 41.145 89.612 61.058 53.884 35.435 108.792 69.551 164.873 101.473 30.31 17.278 61.059 33.677 92.395 49.198a1067.208 1067.208 0 0 0 45.537 21.231c6.734 2.928 13.617 5.857 20.354 8.785 3.513 1.464 7.027 2.929 10.541 4.247 1.758.732 3.515 1.317 5.125 2.049.732.293 6.297 3.221 4.686 1.025 4.686 6.443 8.933 13.178 12.885 20.207 4.979 8.639 12.887 21.817 9.958 32.36-1.025 3.661-4.393 8.053-6.443 11.127-6.149 9.664-14.056 18.157-22.256 26.063-16.839 16.106-36.752 30.164-58.57 38.656-19.619 7.614-39.094 15.229-58.569 22.988-21.231 8.492-42.608 16.84-63.547 25.77-11.129 4.688-18.596 8.641-28.993 12.447-28.26 10.543-57.837 18.449-87.854 22.402-18.303 2.344-36.897 2.928-55.201.879-6.882-.732-13.178-1.318-19.621-4.393-12.446-6.004-20.354-17.863-25.917-30.018-.732-1.463-2.635-2.049-4.1-1.611-25.185 6.15-51.102 9.959-76.727 12.154-20.791 1.756-42.022 2.197-62.815-.586-17.132-2.342-35.728-7.176-48.467-19.621-10.834-10.688-13.031-25.77-11.128-40.266.146-1.465-1.318-3.221-2.635-3.514-39.828-8.934-79.069-21.964-116.846-37.631-31.628-13.033-63.694-28.699-90.198-50.663-24.013-19.915-42.022-48.467-27.234-79.509.732-1.464.732-3.22-.586-4.393-25.038-22.255-48.32-46.563-70.722-71.307-44.952-49.345-86.975-103.083-117.285-162.824-9.372-18.596-18.303-38.216-23.135-58.569-3.076-12.739-3.954-27.088 1.756-39.241 10.397-22.257 39.389-23.136 60.474-21.379 3.513.293 6.442 1.612 9.957 2.783 7.614 2.635 15.521 4.686 23.281 6.589 31.628 7.467 63.694 9.811 95.907 13.617a1118.305 1118.305 0 0 1 62.23 9.225c14.936 2.637 29.725 5.565 44.514 9.372 6.15 1.61 13.324 5.418 19.621 5.271 10.543-.146 21.231.732 31.774 1.757 63.984 5.565 127.239 22.843 188.444 42.904 4.54 1.464 6.443-5.564 1.904-7.028-61.791-20.206-125.632-37.338-190.498-43.927-10.542-1.025-21.231-1.903-31.774-1.757-.732 0-.878 0-1.61-.293-6.296-2.196-12.885-3.952-19.474-5.564-14.79-3.661-29.871-6.443-44.806-9.079-20.059-3.513-40.267-6.441-60.619-8.931-32.361-3.954-64.574-6.296-96.494-14.056-12.446-3.076-23.721-8.201-34.849-9.079-21.818-1.757-47.295.732-61.352 19.622-8.932 11.859-9.371 28.112-7.467 42.169.586 4.539 1.757 9.079 2.929 13.472l.439 1.317c-.293-1.317.879 2.782 1.171 3.954 2.637 8.053 5.565 15.813 8.786 23.574 25.624 61.791 66.77 116.847 109.965 167.216 28.405 33.239 58.715 65.452 91.368 94.589-.146-1.464-.439-2.929-.585-4.393-31.774 66.916 57.837 112.455 106.303 134.125 42.317 19.035 87.122 34.262 132.513 44.365l-2.635-3.514c-12.007 89.758 128.999 70.137 180.394 61.059a450.06 450.06 0 0 0 27.966-5.711 46.747 46.747 0 0 0-4.099-1.609c8.345 18.303 25.331 38.068 47.44 37.482 7.176-.145 14.79 1.611 21.964 1.904 9.665.293 19.328-.293 28.846-1.172 17.278-1.609 34.555-4.832 51.394-9.076 19.915-4.834 39.828-11.129 58.717-19.035 12.885-5.418 25.625-11.422 38.655-16.693 36.606-14.936 73.505-29.285 110.404-43.635 13.324-5.124 26.356-15.229 37.483-24.014 11.275-8.932 21.818-18.742 30.749-30.017 8.054-9.957 17.279-21.67 14.936-34.995-1.903-11.422-8.492-22.55-14.495-32.36-3.221-5.418-7.029-14.056-13.178-16.399-30.896-11.714-60.913-25.625-90.491-40.267-61.789-30.602-121.531-65.45-180.101-101.911-44.805-27.82-88.878-56.812-132.22-86.683-9.957-6.881-20.06-13.91-29.87-20.938-5.125-3.661-9.958-8.053-14.79-12.007-13.031-10.688-26.356-20.938-40.267-30.309-9.518-6.443-19.767-13.618-30.602-17.571-4.538-1.465-6.443 5.564-2.05 7.175zm928.474 304.268a433.679 433.679 0 0 0-11.129 23.575c-4.245 9.957-9.957 21.377-9.957 32.359 0 3.806 2.197 7.76 3.661 10.981 4.247 9.225 10.25 17.717 16.692 25.625 16.985 20.792 38.363 38.069 62.376 49.784 13.179 6.443 26.504 12.738 39.828 18.889 7.027 3.221 14.056 6.441 21.085 9.371 5.71 2.488 12.006 4.246 17.424 7.174 33.825 18.598 69.258 34.117 107.183 42.025 34.996 7.174 94.589 12.299 102.79-34.85 0-.439.146-.879.146-1.465-1.465.879-2.929 1.758-4.539 2.488 25.478 8.201 52.565 13.326 79.215 15.375 34.703 2.635 81.266-1.17 95.176-39.24 3.367-9.225 3.953-19.329 3.367-28.992l-2.635 3.514c36.46-10.396 72.187-25.039 105.863-42.17 46.71-23.867 125.485-73.944 92.54-136.32-.147 1.464-.438 2.929-.585 4.393 23.72-24.892 45.244-52.274 65.598-79.948 43.341-58.57 81.266-122.117 107.475-190.351 5.418-14.202 9.226-25.916 9.226-40.999 0-15.666-3.954-32.359-15.668-43.487-15.521-14.642-41.438-14.203-60.619-8.639-11.714 3.367-23.722 6.296-35.581 8.785-9.225 2.051-18.303 3.661-27.675 5.125-9.518 1.464-19.913 1.025-29.284 3.222-36.166 8.492-72.48 16.838-108.646 25.477-9.079 2.196-24.16 3.369-35.582 5.125-27.38 4.101-54.616 8.933-81.411 15.375-21.964 5.272-43.341 11.861-63.549 22.404-23.573 12.299-45.683 28.553-64.279 47.588-5.856 6.002-10.396 13.031-16.838 18.449-6.005 5.125-11.861 10.104-17.864 15.229-21.086 17.717-42.463 35.288-64.134 52.419-32.213 25.477-65.451 48.905-99.567 71.601-39.682 26.503-79.655 52.566-120.361 77.313-11.567 7.028-23.134 13.91-34.995 20.352-7.321 3.954-14.788 8.201-22.842 10.543-4.539 1.318-2.636 8.346 1.903 7.028 15.083-4.393 29.284-13.763 42.61-21.524 21.816-12.738 43.048-26.063 64.279-39.68a4603.504 4603.504 0 0 0 90.782-59.595c45.1-30.456 87.854-63.986 129.878-98.689 12.885-10.69 25.624-21.378 38.216-32.213 3.076-2.637 5.272-6.297 7.762-9.372 6.296-7.321 13.324-13.91 20.499-20.206 11.567-9.957 24.16-18.742 37.339-26.649 41.145-24.746 90.196-32.945 136.906-40.56 15.96-2.635 32.065-5.271 48.172-6.735 5.125-.439 10.397-2.342 15.522-3.515 10.834-2.635 21.67-5.125 32.505-7.613 20.353-4.833 40.853-9.518 61.206-14.351 10.834-2.488 22.255-2.488 33.384-4.245 17.278-2.637 34.41-6.443 51.249-10.69 20.06-5.125 43.194-11.567 62.082.879 13.765 9.079 16.986 27.382 16.839 42.609-.146 16.693-6.296 30.749-12.446 46.271-14.494 36.458-32.798 71.307-53.004 104.839-29.432 48.759-63.402 95.029-100.74 137.784-4.539 5.272-9.225 10.397-14.057 15.522-1.171 1.171-1.318 2.929-.586 4.393 17.864 33.823-4.245 65.452-29.724 87.561-20.499 17.717-44.659 31.335-68.819 43.195-30.602 14.936-62.814 27.675-95.469 37.045-1.464.438-2.781 1.903-2.635 3.515 5.271 86.391-116.846 61.938-167.655 46.123-.293-.146-.585-.146-.878-.293-1.758-.586-4.247.586-4.54 2.49-7.028 48.318-73.212 36.459-106.303 28.404-39.096-9.662-73.799-29.869-110.404-45.682-22.842-9.812-45.244-20.647-67.501-31.629-21.817-10.689-41.292-28.992-56.373-48.027-5.857-7.467-16.546-20.938-16.106-30.604.586-10.541 6.589-21.963 10.836-31.333 2.929-6.443 6.003-12.885 9.225-19.183 2.633-3.808-3.663-7.469-5.859-3.369zm-1257.927-36.606c17.718.147 35.435-.585 53.006-1.464 29.432-1.61 59.741-3.807 88.44-11.567 38.363-10.396 76.725-20.792 115.236-30.896 6.735-1.757 13.324-3.513 20.206-5.125 4.539-1.025 2.635-8.199-1.903-7.028-40.853 9.518-81.413 21.377-121.825 32.213-19.474 5.271-38.802 9.518-59.008 11.714-27.088 3.074-54.47 4.247-81.706 4.686-4.1 0-8.054.146-12.153.146-5.125-.001-5.125 7.321-.293 7.321zm235.45 172.927c14.202 4.393 32.213-.147 45.976-3.808 52.419-14.35 99.275-47.88 141.153-81.118 3.661-2.929-1.464-8.053-5.125-5.125-40.999 32.652-86.829 64.865-137.932 79.215-12.446 3.515-30.163 7.467-42.024 3.806-4.537-1.463-6.588 5.712-2.048 7.03zm205.726 51.833c16.839-5.857 32.945-14.789 48.027-24.16 32.945-20.499 61.937-47.44 82.582-80.533 2.489-3.954-3.807-7.76-6.296-3.661-19.913 32.067-48.027 57.838-79.947 77.897-14.497 9.079-30.017 17.718-46.271 23.429-4.539 1.61-2.635 8.639 1.905 7.028zm1051.029-107.474c6.882 14.789 16.691 28.552 26.795 41.144 22.402 27.967 51.248 50.662 84.486 64.428 4.394 1.756 6.297-5.271 1.903-7.029-45.098-18.742-86.244-57.544-106.889-102.351-1.903-4.245-8.198-.439-6.295 3.808zm125.191-32.214c11.128 14.495 25.625 26.648 40.12 37.484 34.995 26.21 76.14 43.34 119.189 50.956 4.686.879 6.589-6.297 1.903-7.028-42.024-7.468-81.705-24.015-116.114-49.345-10.249-7.467-19.913-15.959-28.991-25.038-2.636-2.635-5.125-5.418-7.614-8.199-.439-.586-3.368-4.247-2.196-2.637-2.783-3.661-9.079 0-6.297 3.807zm125.925-134.125c24.16 10.104 49.345 18.01 74.383 25.185 50.662 14.497 103.229 24.453 156.087 24.306 4.687 0 4.687-7.321 0-7.321-52.858.147-105.425-10.103-156.087-24.599-24.453-7.028-48.906-14.788-72.479-24.745-4.248-1.757-6.151 5.417-1.904 7.174z"/></svg>