<svg xmlns="http://www.w3.org/2000/svg" id="wing" viewBox="0 0 3000 3000"><path id="cl1" fill="#FFF5EE" d="M440.121 916.075c-52.659 8.016-209.278 25.898-209.278 25.898-90.888 13.441-68.444 113.333-68.444 113.333 23.802 118.636 181.162 107.415 181.162 107.415-4.07 142.808 187.944 93.478 187.944 93.478 1.356 99.275 152.426 47.233 152.426 47.233 8.139 85.463 133.188 17.142 133.188 17.142 29.72 53.275 104.947 60.429 104.947 60.429 96.438 5.919 133.682-68.074 133.682-68.074 49.698-114.197-20.595-182.641-48.959-190.781-28.364-8.139-78.557-38.846-78.557-38.846-34.653-15.661-144.287-130.351-144.287-130.351-71.28-99.152-132.078-88.792-132.078-88.792-65.608 17.015-159.086 44.023-211.746 51.916zm1570.918 227.68s-73.255 18.127-80.16 107.907c0 0-11.962 125.542 72.267 156.865 0 0 86.08 38.724 141.328-55.248 0 0 13.936 22.444 50.686 24.788 0 0 59.194 15.044 56.234-39.834 0 0 130.476 54.633 128.379-48.835 0 0 65.854 32.311 128.995-13.072 0 0 33.668-24.172 25.281-80.776 0 0 125.05 18.127 151.44-98.782 0 0 18.375-97.178-47.603-118.265 0 0-48.096-8.387-74.857-9.126 0 0-124.679-13.565-253.057-61.045 0 0-55.495-28.364-101.741 28.981 0 0-19.114 19.115-40.696 54.509 0 0-44.767 49.821-64.128 76.46.247.122-20.964 35.516-92.368 75.473z"/><path id="sd1" fill="#CCD3E0" d="M185.83 967.13c-3.823 16.156-2.836 32.68-1.85 48.959.988 17.143 9.496 30.954 23.309 41.436 26.268 19.979 53.892 37.368 86.695 44.396 10.36 2.221 20.842 4.193 31.571 4.07 22.938-.247 45.875.617 68.69-2.59 12.949-1.85 25.897-3.33 38.846-5.425 23.802-3.824 47.479-7.646 71.158-11.963 30.708-5.673 60.797-13.195 87.312-30.83 5.057-3.33 11.099-5.303 16.895-7.399 25.281-8.88 48.343-22.198 72.021-34.53 10.852-5.674 21.582-11.716 32.803-16.773 1.48-.617 3.083-1.109 4.563-1.726 6.043-2.466 10.605 0 13.812 4.809 3.453 5.18.862 9.126-3.577 12.457.37-2.466.739-5.674-3.083-4.686-3.453.862-6.783 2.836-9.989 4.562-49.576 30.708-78.926 45.506-147.864 75.351-64.867 29.228-131.091 56.112-200.769 70.417-29.844 6.043-61.168 3.946-91.136-2.22-58.454-11.962-99.15-45.876-110.497-104.577-5.427-28.241-1.727-56.483 17.265-80.531 1.113-1.357 2.592-2.221 3.825-3.207zm165.869 195.466c-2.959 0-4.562 1.48-4.686 4.44-.739 12.702-3.453 27.376 2.836 39.092 5.55 16.648 23.678 35.147 41.684 44.89 32.31 17.512 65.361 15.292 100.384 11.838 14.676-1.479 35.271-5.919 47.232-14.058 23.062-15.663 49.206-33.421 70.171-52.166 21.211-18.869 69.677-54.878 146.631-121.35 1.973-1.48 3.945-3.453 6.166-3.823 3.945-.74 3.206 2.467 3.083 4.933 4.439-2.466 2.712-7.399 4.439-10.976 1.85-4.193 2.097-8.879-2.96-11.716-5.056-2.836-9.125-1.85-13.441 1.85-7.646 6.66-15.909 12.826-23.678 19.484-11.469 9.866-23.925 18.499-35.763 27.872-25.281 19.978-50.439 40.326-75.104 60.921-9.742 8.14-21.334 13.689-30.461 22.445-6.906 6.66-14.921 11.346-23.554 15.292-13.072 5.919-26.392 11.099-39.216 17.635-11.962 6.042-24.787 9.002-37.613 9.989-24.912 1.85-49.699-.617-74.24-6.413-20.226-4.686-35.147-15.292-41.93-35.147-2.836-8.386-8.755-17.265-2.96-26.884-5.797-.861-11.224 1.729-17.02 1.852zm192.383 85.833c-18.251 10.975-12.949 6.783-10.235 25.651 1.357 8.879 6.043 12.333 12.209 18.746 7.399 7.522 18.004 17.635 28.117 20.348 34.407 9.125 69.43 4.192 102.728-7.646 2.96-1.11 34.038-22.815 41.93-32.681.616-.37-11.839 8.755-11.222 8.386 21.582-14.552 15.538-12.333 34.161-32.187 20.224-21.582 30.831-31.57 30.831-31.57 1.233-1.727-12.209 13.565 0 0 1.233-1.357 17.882-21.089 17.882-21.089 1.726 1.603 36.503-38.23 36.503-36.256 5.303-5.796 2.836-12.086.986-18.375-.986-3.577-1.603-7.646-6.289-8.139-4.316-.494-6.413 2.959-8.756 5.795-14.675 18.623-29.72 36.874-45.136 54.879-9.619 11.223-19.979 21.581-29.351 32.927-16.279 19.609-35.147 36.257-60.305 45.013-15.538 5.427-31.2 9.743-46.985 13.935-15.662 4.071-31.077 3.33-45.753-2.589-12.825-5.18-23.554-13.072-27.131-27.748-1.479-6.289-.493-10.852 5.427-14.552 5.919-3.577 11.099-8.387 14.305-14.799-12.088 6.042-22.446 15.044-33.916 21.951zm142.808 54.262c-2.344 6.783 2.712 14.675 5.549 21.582 3.823 9.125 13.072 17.758 22.074 19.977 24.911 6.291 50.809-3.083 70.541-11.961 7.399-1.974 21.458-6.66 28.487-10.112 3.207-1.604 2.466-4.563.616-8.51 2.344-7.152-8.385-27.871-9.372-42.422-4.439 6.289-2.219 13.441-1.973 20.101.246 8.51-3.577 13.196-10.853 15.662-11.222 3.7-22.444 7.275-33.79 10.358-3.454.987-7.523.987-10.854.124-6.412-1.604-12.825-1.727-19.361-2.097-16.032-.986-22.938-8.386-23.925-24.542-5.423 3.577-15.166 6.044-17.139 11.84zm198.672-123.2c42.299-2.96 71.404 16.279 81.393 56.112 1.356 7.769-1.973 17.881-1.356 25.651 7.399-18.991 10.605-40.45 7.892-60.798-2.466-18.499-13.441-27.871-29.104-32.311-24.789-7.029-49.206-3.7-72.884 6.29-.986.37-6.536 9.866-7.275 10.852 2.096-.493 19.362-5.302 21.334-5.796zm2.344 118.759c7.522 10.729 7.645 9.99 20.101 10.236 24.418.616 40.819-16.649 49.576-42.176-6.537 5.426-12.949 11.099-20.965 14.552-9.866 4.193-20.348 6.289-30.831 5.919-13.813-.493-23.186-8.755-29.475-20.841-1.603-3.207-3.823-7.03-8.263-5.92-3.7.987-5.796 4.193-6.289 8.263-.864 6.906.617 12.949 5.302 18.129-4.684.123 32.435 28.365 20.844 11.838zm1339.687-250.934a17505.344 17505.344 0 0 1 80.159 50.562c50.81 32.187 104.948 64.128 161.677 83.982 33.42 11.715 67.457 14.306 103.467 11.346 48.22-3.947 85.463-27.131 104.824-71.404 5.057-11.715 6.413-21.21 10.236-33.297.123-4.809-1.974-13.565-2.221-18.499-.246-7.522 1.48-15.415-2.343-22.567 0 4.563-.493 9.002 0 13.442 1.233 13.196-3.699 23.924-11.593 33.914-2.713 3.576-5.919 6.906-8.139 10.729-9.126 15.538-24.788 22.198-39.957 29.351-6.166 2.836-13.195 3.822-20.348 3.946-37.613.74-75.103-1.604-112.347-7.276a676.146 676.146 0 0 1-109.51-25.775c-29.598-9.742-56.976-24.787-83.859-40.572-16.525-9.743-32.681-20.226-48.713-30.955-12.086-8.139-27.994-3.453-33.79 9.126 5.429-2.096 8.757 1.727 12.457 3.947zm-78.186 163.155c26.884 38.107 53.275 76.46 86.325 109.634 3.453 3.453 10.853 13.565 16.032 14.427 5.425 3.084 4.563 4.071 9.496 6.291 28.364 12.332 59.564 16.031 89.284 5.919 11.593-3.946 17.143-16.032 22.568-27.254 4.07-8.387 4.81-17.389 3.699-26.392-.739-6.413-7.522-8.263-11.345-12.209-3.083-3.206-6.166-6.536-10.482-8.385 3.329 7.399 3.083 15.168 2.59 22.938-.494 9.372-8.017 18.375-17.019 20.348-29.598 6.412-57.222 2.836-83.243-14.306-25.65-16.771-42.793-41.313-62.154-64.003-16.771-19.732-29.598-42.054-41.561-64.991-3.205-6.167-6.658-12.333-12.332-16.648-3.822-2.836-7.769-6.413-13.318-2.96-5.919 3.824-7.892 8.51-5.797 15.662 2.467 8.633 6.783 16.526 10.854 24.542 9.126 2.466 11.84 11.098 16.403 17.387zm40.45-99.151c13.195 12.949 27.994 24.048 41.19 36.874 30.953 29.967 61.167 60.551 91.381 91.259 5.673 5.672 10.359 12.949 18.992 14.921 10.358 6.537 19.731 14.553 28.98 22.569 3.7 3.206 9.495 10.605 13.812 13.072 18.498 10.729 36.258 10.235 57.223 9.743 22.197-.494 48.712-11.47 65.854-24.789 23.925-18.621 29.104-41.189 25.774-72.02-.37-3.33-1.11-5.55-5.057-4.688 1.356 2.591 2.466 4.933 1.974 8.14-2.714 16.524-8.757 30.831-21.582 42.793-27.131 25.404-58.578 30.46-93.354 22.568-19.485-4.44-35.764-15.292-52.043-26.392-30.953-21.087-57.961-45.999-83.118-73.869-22.445-24.912-44.768-50.07-69.432-72.884-3.329-3.083-6.412-6.413-10.853-7.892-6.658-2.466-12.579.617-14.058 7.399-.617 2.712-.124 5.672-.247 8.508 1.358 1.605 2.96 3.085 4.564 4.688zm-200.523 289.808c10.853 7.153 28.61 12.579 42.053 13.442 38.847 2.467 71.774-5.55 94.712-39.34.493-.617 7.399-9.372 7.893-9.989 11.469-16.031 14.922-30.091 13.441-50.439-.123-2.467.247-4.809.371-7.275-3.946-4.686 4.563-12.826-4.44-16.279-3.575 12.209-4.933 24.911-9.496 36.874-8.139 21.21-21.704 36.626-42.669 46.738-15.538 7.523-31.447 8.14-47.849 8.14-31.571 0-58.209-10.606-80.653-33.174-8.139-8.139-14.183-17.882-22.445-25.775 5.549 34.654 21.458 58.949 49.082 77.077zm159.086-54.508c-2.837 7.275 2.467 13.194 7.522 17.019 14.799 10.729 34.53 12.948 48.835 15.415 9.374 2.097 19.486-1.233 28.735-5.672 14.305-6.907 20.225-29.845 10.482-41.561-1.727-4.439-3.207-9.372-9.743-7.522.123 3.7.494 7.399.123 10.975-.862 11.346-7.399 16.772-18.744 15.662-4.81-.494-9.743-1.233-14.429-2.589-17.143-4.811-38.23-9.743-50.932-24.419-1.109 6.66-1.973 15.045-1.849 22.692zm-48.712-138.121c-14.06-7.646-28.118-14.429-45.137-13.073-16.896 1.357-33.544 12.579-38.847 28.735-1.973 5.795-4.069 11.592-5.672 17.511-5.058 18.623-2.22 36.135 7.152 52.783.122-5.304 0-10.729.247-16.032.739-15.909 14.429-35.147 23.801-48.096 19.237-18.375 19.115-13.319 44.148-16.525 5.55 1.11 15.046.247 20.473 1.973-.739-3.701-3.329-5.797-6.165-7.276z"/><path fill="#231815" d="M439.258 913.115c-43.409 6.536-87.065 11.469-130.598 16.648-19.608 2.344-39.216 4.686-58.948 6.906-10.729 1.233-21.582 2.097-32.188 4.81-19.731 5.056-36.873 16.771-47.479 34.16-8.633 14.058-12.208 30.831-12.949 47.11-1.356 27.747 5.796 55.987 21.458 79.049 22.074 32.187 59.071 49.699 96.191 57.962 22.198 4.933 45.629 7.276 68.32 6.043h.494l-3.083-3.083c-.494 19.854 2.589 39.956 12.58 57.468 8.016 14.059 20.471 24.912 34.653 32.311 28.241 14.675 62.278 16.402 93.479 14.305 17.019-1.109 34.407-3.453 51.056-7.646-1.356-.986-2.589-1.973-3.946-2.959.37 17.758 5.549 35.147 19.362 47.11 12.209 10.482 28.364 14.675 44.026 16.277 28.856 2.837 59.071-2.959 86.695-11.222 2.097-.617 4.193-1.233 6.289-1.973-1.356-.987-2.589-1.974-3.945-2.96 1.726 16.648 8.386 32.558 23.924 40.573 14.059 7.152 30.831 6.289 45.999 3.699 23.431-3.946 46.986-13.072 67.951-24.541-1.357-.37-2.836-.74-4.193-1.11 20.718 36.257 62.771 55.372 102.604 61.415 40.943 6.166 84.846-8.879 115.184-36.38 9.373-8.51 17.758-18.376 24.293-29.228 2.714-4.563 4.563-9.496 6.413-14.429 5.797-15.046 9.743-30.708 11.963-46.74 5.796-44.149-8.017-91.134-41.437-121.595-5.179-4.686-10.853-9.002-17.019-12.333-6.783-3.7-14.552-5.427-21.704-8.263-21.459-8.633-41.807-20.224-61.662-31.94-11.346-6.783-21.951-13.689-32.187-22.075-17.02-13.935-33.174-29.104-49.083-44.273-22.321-21.335-44.149-43.163-65.607-65.361-4.81-4.933-8.51-11.469-12.826-16.894-5.672-7.03-11.716-13.813-18.005-20.348-9.62-9.99-20.103-19.239-31.447-27.378-14.923-10.729-31.694-19.362-49.7-23.431-6.906-1.48-14.182-2.466-21.21-1.85-5.92.493-11.716 2.713-17.389 4.192-13.441 3.577-27.007 7.154-40.45 10.729-51.301 13.936-103.096 29.106-155.879 37.245-3.945.617-2.22 6.536 1.604 5.919 60.428-9.249 119.623-27.376 178.571-43.163 7.152-1.85 14.305-3.823 21.457-5.672 3.454-.864 6.783-1.727 10.237-2.713 0 0 2.959-.617 1.233-.37 2.466-.37 5.056-.247 7.522-.247 13.688.617 27.254 5.304 39.463 11.346 24.417 12.085 45.013 31.077 62.771 51.548 7.275 8.387 13.195 18.252 20.841 26.269 3.083 3.206 6.166 6.289 9.249 9.495 28.611 29.352 57.839 58.333 88.545 85.463 13.073 11.469 26.392 23.554 41.56 32.31 13.689 8.016 27.625 15.909 41.683 23.186 11.346 5.919 22.815 11.469 34.901 15.908 6.536 2.466 12.702 4.069 18.744 7.769 14.553 9.003 26.144 22.939 34.777 37.613 12.456 21.089 18.006 45.384 17.882 69.677 0 15.662-2.836 31.078-7.029 46.123-2.712 9.619-5.796 20.101-10.605 28.858-15.909 28.24-44.643 49.329-75.227 59.071-25.034 7.893-51.056 8.51-76.213 2.097-32.311-8.139-64.251-25.158-81.27-54.879-.863-1.48-2.713-1.85-4.192-1.11-36.504 19.979-121.597 51.55-128.502-14.428-.247-1.85-1.85-3.7-3.946-2.96-20.965 7.276-43.533 11.593-65.608 13.195-32.681 2.22-71.897-4.193-81.023-41.066-1.356-5.304-1.726-10.854-1.85-16.403 0-1.973-1.973-3.453-3.945-2.959-16.896 4.316-34.654 6.536-52.042 7.645-31.447 1.974-65.854-.246-93.602-16.895-28.857-17.265-39.216-48.959-38.353-81.147 0-1.603-1.48-3.206-3.083-3.083-20.225 1.357-41.19-.739-61.044-4.439-37.86-7.153-75.967-23.925-98.658-56.359-16.156-23.06-22.445-51.795-20.348-79.543 1.233-17.018 6.289-34.283 17.019-47.725 12.209-15.292 31.694-24.295 50.932-26.515 69.801-8.016 139.971-15.415 209.401-25.897 3.697-.492 2.094-6.536-1.852-5.919zm1570.917 227.679c-24.294 6.167-46.368 24.417-60.428 44.643-18.991 27.131-23.678 60.798-22.445 93.108 1.48 37.983 10.729 78.557 36.874 107.537 18.868 20.841 46.616 31.57 74.241 33.298 18.498 1.108 36.872-2.591 53.521-10.482 23.803-11.347 41.807-31.818 55.003-54.017h-5.303c12.949 20.595 39.833 25.281 62.153 27.748 11.1 1.232 22.815.246 32.681-5.057 14.43-7.646 18.499-24.17 17.882-39.34-1.356.987-2.589 1.974-3.946 2.96 19.855 8.263 41.93 13.442 63.388 14.429 15.169.74 31.2-1.356 44.396-9.618 14.922-9.249 21.828-25.652 23.925-42.546.617-4.688.74-9.496.617-14.182a91.534 91.534 0 0 0-4.688 2.712c36.011 17.512 81.764 14.676 116.664-3.453 12.948-6.66 22.69-14.429 30.461-26.637 12.701-19.979 14.921-44.273 11.715-67.211l-3.823 3.823c20.102 2.836 41.437.863 61.045-3.823 39.833-9.62 71.526-35.763 87.066-73.993 11.345-27.748 12.577-60.183 5.672-89.039-4.563-19.362-14.799-37.12-31.57-48.219-15.415-10.237-35.023-10.854-52.782-13.32-15.785-2.095-31.693-2.589-47.479-4.686-19.115-2.466-38.23-5.672-57.221-9.249-31.941-5.919-63.512-13.196-94.836-21.582-18.621-4.933-37.119-10.482-55.371-16.402-12.579-4.07-25.528-7.893-37.613-13.195-13.689-6.043-29.475-8.016-44.273-5.919-12.332 1.726-23.801 6.289-34.283 12.949-10.359 6.659-17.882 15.538-26.269 24.294-6.042 6.29-11.592 13.195-16.895 20.103a501.545 501.545 0 0 0-13.319 18.498c-3.329 4.933-6.166 11.099-10.111 15.538-13.442 15.046-26.639 30.214-39.588 45.629-11.591 13.813-21.581 28.858-33.42 42.299-22.814 26.022-52.534 45.753-82.379 62.649-3.454 1.973-.371 7.275 3.083 5.303 26.021-14.676 51.179-31.57 72.883-52.412 7.522-7.277 15.293-15.168 20.843-24.171 5.919-9.62 14.182-18.252 21.334-27.008 8.263-9.988 16.648-19.731 25.158-29.474l15.908-18.127c2.22-2.467 3.7-5.304 5.427-8.016a340.216 340.216 0 0 1 15.291-22.322c6.043-8.263 12.456-16.279 19.486-23.678 8.139-8.755 15.661-17.265 25.65-24.048 18.498-12.332 41.313-15.661 62.771-10.235 3.824.986 7.771 2.22 11.224 3.947 6.658 3.33 14.429 5.302 21.457 7.769 9.743 3.33 19.608 6.536 29.598 9.619 34.16 10.606 68.938 19.609 103.961 27.131 24.541 5.304 49.205 9.866 73.994 13.566 10.358 1.604 20.718 3.207 31.2 3.699 22.567 1.233 45.137 4.81 67.458 8.51 19.484 3.33 34.283 22.321 41.065 39.463 10.482 27.008 10.482 60.305 1.851 87.929-6.907 22.198-19.608 42.054-37.613 56.728-14.43 11.716-31.94 19.115-49.822 23.432-13.072 3.207-26.514 4.44-39.834 4.44-4.316 0-8.509-.124-12.702-.494-1.233-.123-2.342-.247-3.575-.37-.863-.124-1.357-.124-.617-.124-2.466-.37-4.193 1.357-3.823 3.824 3.083 21.828.37 44.396-11.716 63.264-7.77 12.209-17.019 18.004-29.598 24.542-31.939 16.524-75.596 18.499-108.523 2.467-1.973-.988-4.686.123-4.686 2.712.245 18.375-3.577 38.354-19.362 49.823-12.332 9.126-28.611 10.729-43.41 10.235-20.841-.739-42.546-6.166-61.784-14.183-1.85-.739-3.946 1.11-3.946 2.961.617 14.182-2.836 28.117-16.401 34.899-8.88 4.316-19.608 4.316-29.228 3.206-19.485-2.343-44.026-6.412-55.495-24.54-1.233-1.975-4.069-2.097-5.303 0-14.305 24.048-34.036 45.013-60.551 55.125-17.02 6.536-35.764 7.892-53.77 5.179-30.461-4.687-56.358-21.582-72.514-49.205-17.512-30.214-22.444-67.581-21.458-102.111.987-36.997 14.676-72.637 44.273-96.069 9.865-7.769 21.828-14.798 34.16-17.881 3.944-.496 2.341-6.538-1.606-5.552zM723.64 1007.334c-21.212 12.702-43.287 24.293-65.238 35.517-52.905 27.008-107.414 51.302-163.155 71.897-49.699 18.498-100.508 33.914-152.426 44.89-3.946.863-2.221 6.783 1.603 5.919 119.993-25.281 235.546-73.5 343.329-131.214 13.073-7.03 26.145-14.06 38.847-21.706 3.453-1.975.37-7.277-2.96-5.303zm39.71 69.923c3.945 0 3.945-6.166 0-6.166-3.946 0-3.946 6.166 0 6.166zm-4.563-4.439c-62.894 52.289-126.652 103.837-192.383 152.426-12.457 9.126-24.912 18.253-37.613 27.008-3.207 2.22-.124 7.646 3.083 5.303 77.323-53.274 150.207-113.457 222.473-173.144 2.96-2.344 5.796-4.81 8.756-7.277 3.083-2.467-1.233-6.906-4.316-4.316zm64.497 82.132c-18.745 21.458-37.86 42.67-57.222 63.635-15.415 16.649-30.953 33.297-47.108 49.329-11.47 11.469-23.062 23.554-36.504 32.68-3.33 2.22-.247 7.522 3.083 5.303 13.196-8.879 24.665-20.718 36.01-31.941 16.032-15.908 31.57-32.434 46.986-49.082a2995.056 2995.056 0 0 0 59.072-65.73c2.589-2.714-1.727-7.154-4.317-4.194zm-3.452 164.019c-12.826-27.871-10.36-58.948 2.959-86.079 8.016-16.402 18.869-32.064 35.147-41.189 15.045-8.387 33.297-11.099 50.316-9.866 6.906.492 16.155 5.672 23.431 10.111 9.619 5.92 17.635 14.059 22.938 23.925 10.113 18.992 7.522 44.643-1.85 63.388-2.836 5.672-9.866 11.099-14.552 15.168-4.933 4.316-10.729 7.893-16.773 10.235-8.508 3.33-17.757 3.453-26.514.74-6.412-2.096-12.332-5.92-17.388-10.359-1.603-1.48-3.206-2.96-4.686-4.563-.37-.37-2.22-2.713-1.357-1.48-2.342-3.083-7.769 0-5.303 3.083 6.783 8.879 16.526 15.662 27.008 19.362 24.787 8.51 47.479-8.263 62.647-26.268 5.672-6.66 7.769-16.896 9.372-25.281 3.207-16.279 1.85-33.174-6.042-47.973-4.933-9.249-12.457-16.648-20.842-22.691-7.522-5.426-18.374-12.086-27.87-13.195-14.306-1.727-29.475.123-43.04 4.809a76.206 76.206 0 0 0-28.364 17.143c-6.413 6.166-10.605 13.688-15.538 20.964-11.84 17.759-18.375 39.463-18.746 60.798-.247 14.799 3.33 29.228 9.496 42.546 1.851 3.331 7.154.248 5.551-3.328zm1276.177 5.945c.739-.986-.371.494-.617.741-.74.986-1.604 1.85-2.467 2.712a54.784 54.784 0 0 1-10.112 8.263c-10.976 6.906-22.938 6.659-33.667-.493-11.223-7.523-19.855-21.335-23.678-34.038-3.207-10.605-3.083-21.828-.741-32.557 1.604-6.907 4.316-13.565 7.523-19.855 1.851-3.576 3.947-6.906 6.167-10.235a82.316 82.316 0 0 1 3.822-5.303c1.479-2.097 4.069-6.537 6.29-8.016 7.028-4.81 15.661-7.646 24.048-9.003 29.351-4.809 49.821 18.253 61.167 42.546 13.319 28.364 14.183 62.771 7.77 92.862-.863 3.823 5.18 5.55 5.919 1.604 9.249-44.026 3.454-103.838-35.393-133.312-13.195-9.99-30.091-12.456-46-8.756-9.002 2.097-18.374 5.673-24.418 12.826-15.045 18.004-26.145 40.449-24.664 64.375.74 13.072 5.674 26.143 13.689 36.503 9.619 12.455 22.443 23.801 39.092 22.075 12.457-1.357 24.172-9.99 31.694-19.731 2.221-3.33-3.082-6.413-5.424-3.208zm157.481 11.099c-43.655-43.902-81.516-94.834-115.43-146.507-2.22-3.33-7.521-.247-5.303 3.083 11.962 18.129 24.541 35.764 37.367 53.152 24.417 33.051 50.068 65.485 79.049 94.588 2.838 2.961 7.154-1.48 4.317-4.316zm128.502-48.835c-31.694-27.131-61.784-56.359-91.875-85.217-29.598-28.364-58.948-56.851-88.176-85.462-4.192-4.07-8.386-8.263-12.579-12.333-2.836-2.836-7.152 1.603-4.316 4.316 52.043 51.179 104.455 102.235 158.1 151.934 11.346 10.605 22.814 21.087 34.654 31.2 2.837 2.468 7.152-1.848 4.192-4.438zm152.181-94.711c-16.648.37-33.174-3.7-48.959-8.633-20.719-6.29-40.819-14.798-60.429-23.802-42.176-19.36-82.749-42.052-122.583-65.854-27.5-16.401-54.754-33.297-81.269-51.303-3.33-2.22-6.413 3.083-3.083 5.304 53.521 36.256 109.51 69.677 166.979 99.275 26.514 13.565 53.521 26.267 81.517 36.503 21.457 7.769 44.643 15.168 67.827 14.552 3.946.124 3.946-6.042 0-6.042z"/></svg>