<svg xmlns="http://www.w3.org/2000/svg" id="nose" viewBox="0 0 3000 3000"><path id="cl1" fill="#C7C8BC" d="M1687.767 993.913s-4.879-3.049-8.903 1.22c-4.026 4.269-34.76 57.689-38.42 69.276-.243 14.026 27.198 24.76 27.198 24.76s10.367.976 13.661 0c3.292-.977 15.245-10.734 15.489-11.587.243-.854 13.173 8.171 13.173 8.171s4.024 2.196 8.293.609c4.27-1.585 16.467-12.197 17.441-16.465.976-4.269-33.296-69.276-40.614-75.009-3.05-2.805-7.318-.975-7.318-.975z"/><path id="sd2" fill="#86877F" d="M1688.133 1011.963c-.122-2.195-.366-18.05-.366-18.05s5.488-3.415 9.391 3.049c3.903 6.464 19.515 24.027 38.175 71.594-1.828.976-5.487 0-5.487 0l-39.396-55.738-2.317-.855z"/><path id="sd1" d="M1644.714 1070.141s17.317-37.2 35.369-54.641c12.438-9.513 17.318 4.025 17.318 4.025s8.904 6.952 32.564 49.03c-.731 5.123-17.319 16.221-17.319 16.221s-2.926.61-3.78.245c-5.123-2.684-5.001-7.44-19.026-10.001-2.196-.61-14.88-20.369-14.88-20.369l-11.952 10.733-18.294 4.757z"/><path id="hl1" fill="#2A2A2A" d="M1675.815 1046.724s-14.881 15.612-29.516 20.125c-8.539 11.465 20.001 21.832 20.001 21.832s7.686-.854 19.638-12.684c2.684-3.292 16.221 4.635 16.221 4.635l4.025 2.683s-17.442-17.319-20.125-21.222c-2.684-3.904-10.244-15.369-10.244-15.369z"/></svg>