<svg xmlns="http://www.w3.org/2000/svg" id="nose" viewBox="0 0 3000 3000"><path id="cl1" fill="#C7C8BC" d="M1694.666 984.607s-7.979 1.517-24.074 34.885c-16.098 33.369-29.58 69.771-29.58 69.771s-4.128 17.494 26.828 36.908c11.005 2.528 14.444 0 14.444 0s18.985-11.628 18.985-15.167c6.191 1.315 13.069 10.921 13.069 10.921s4.815 4.348 13.759 1.314c8.942-3.033 18.297-24.773 18.297-24.773s-31.367-102.431-41.272-111.026c-2.477-2.022-7.979-.303-7.979-.303l-2.477-2.53z"/><path id="sd2" fill="#86877F" d="M1697.28 1014.235l-.136-27.099s7.842-3.338 10.454 3.74c4.539 6.573 17.336 33.167 38.659 107.488h-6.878s-31.506-81.905-42.099-84.129z"/><path id="sd1" d="M1644.865 1093.308c0-1.011 27.239-52.075 37.146-65.22 8.667-12.64 14.17-16.482 17.884-12.438 8.942 2.022 35.083 64.007 39.622 82.714-6.604 16.988-21.323 22.044-21.323 22.044l-21.049-13.449-19.262-39.739-5.227 12.943-23.114 18.201-4.677-5.056z"/><path id="hl1" fill="#2A2A2A" d="M1668.252 1076.624s-8.255 10.617-23.388 16.684c-8.256 12.64 21.048 31.852 21.048 31.852s11.694-2.022 17.609-11.426c5.917-9.404 14.859-5.056 17.885-2.831 3.027 2.225 5.503 2.831 5.503 2.831s-15.545-23.56-25.313-49.142c-1.1-1.821-13.344 12.032-13.344 12.032z"/></svg>