<svg xmlns="http://www.w3.org/2000/svg" id="nose" viewBox="0 0 3000 3000"><path id="cl1" fill="#C7C8BC" d="M1772.012 1069h-7.329l-.497 1.242-40.744 4.721s-54.904-16.397-58.382.622c-3.479 17.017-17.019 14.533-17.019 14.533s-50.309-8.447-27.7-44.47c35.403-38.88 73.91-45.588 75.524-45.34 77.39 43.476 76.147 68.692 76.147 68.692zm-22.732 15.901l13.043-1.616s10.311-8.819 9.814-14.533c-.25-2.484-7.454.247-7.454.247l-15.403 15.902zm-35.651-9.938s8.447 4.595 8.943 6.583c.373 2.112-3.727 9.565-6.211 10.559-7.204 1.987-10.185.994-13.29 1.987-.869-1.366 10.558-19.129 10.558-19.129z"/><path id="sd2" fill="#86877F" d="M1689.78 1019.313s.249-17.142 4.72-18.384c15.278-5.341 79.5 45.34 77.388 68.071h-7.701l-74.407-49.687z"/><path id="hl1" fill="#2A2A2A" d="M1617.982 1066.268s-5.217 10.558 16.521 19.875c16.521-7.453 24.843-9.937 24.843-9.937s5.218-4.597 9.316 5.837c4.1 10.311 9.689 11.056 9.689 11.056s21.365 3.478 27.7 0c6.459-3.478 9.067-16.646 9.067-17.514 0-.87 25.465.372 33.912 9.316.746-5.59-20.495-39.75-20.495-39.75l-61.116-8.074-27.7 12.669-21.737 16.522z"/><path id="sd1" d="M1660.837 1028.382s-38.136 17.638-42.855 37.887c15.9-7.827 33.539-13.043 33.539-13.043s33.29-12.422 60.618-.374c16.148 9.565 26.458 26.335 26.458 26.335s8.695 6.211 10.56 5.838c1.862-.373 15.526-11.552 15.899-13.292.372-1.614-9.938-44.098-71.922-51.923-11.802-1.366-32.297 8.572-32.297 8.572z"/></svg>