<svg xmlns="http://www.w3.org/2000/svg" id="nose" viewBox="0 0 3000 3000"><path id="cl1" fill="#C7C8BC" d="M1685.304 995.671s-37.354 50.976-39.813 71.242c0 0 7.374 21.496 28.755 24.936 0 0 13.761-.123 15.114-2.457 1.35-2.334-4.056-93.721-4.056-93.721z"/><path id="hl2" fill="#C7C8BC" d="M1673.016 1089.515s13.763-6.511 15.236-10.44c1.475-3.931 1.107-.738 1.107-.738l-.124 11.055s-1.598 1.598-3.44 1.966-12.041 1.35-16.342-.492c2.703-.614 3.563-1.351 3.563-1.351zm51.239-.492c16.22-11.177 16.59-18.424 16.59-18.424s-7.741-1.72-7.741.492c0 2.21-13.764 10.931-15.113 11.669-1.476.736-10.2.858-10.2.858s8.11 6.879 16.464 5.405z"/><path id="sd2" fill="#86877F" d="M1697.714 995.671l.369 22.478s13.517 7.616 36.741 52.081c2.089 1.229 5.898.368 5.898.368s-30.352-71.242-43.008-74.927z"/><path id="sd1" d="M1689.36 1078.337c-5.777 8.353-17.449 11.422-17.449 11.422s-24.085-7.983-23.102-18.915c8.97-22.602 37.724-55.888 37.724-55.888s3.564 47.29 2.827 63.381zm8.6-61.661l2.09 60.31s4.669 8.23 17.202 8.844c9.586-2.456 17.572-15.6 17.572-15.6s-24.33-46.8-36.864-53.554z"/><path id="hl1" fill="#2A2A2A" d="M1681.003 1047.753s-19.169 18.178-31.335 21.617c-5.16 5.528 12.412 21.003 22.242 20.389 9.83-.614 17.449-11.422 17.449-11.422l-.124-18.301-8.232-12.283z"/></svg>