<svg xmlns="http://www.w3.org/2000/svg" id="nose" viewBox="0 0 3000 3000"><path id="cl1" fill="#C7C8BC" d="M1689.122 988.51s-5.25.256-7.498 2.826c-2.251 2.57-36.625 58.21-39.374 72.216 2.374 20.56 53.497 42.789 53.497 42.789s7.875.9 9.75 0c1.874-.898 34.373-35.079 34.747-37.007.375-1.927-26.248-56.282-43.373-79.411-3.624-2.185-7.749-1.413-7.749-1.413z"/><path id="sd2" d="M1687.623 1009.968s-5.624 2.185-8.375 6.682c-2.75 4.498-35.122 49.472-34.748 53.969 8.874 13.75 39.123 31.354 49.121 33.539 12.875-3.47 39.749-33.153 39.749-33.153s3.375-6.168-37.248-59.751c-4.875-3.856-8.499-1.286-8.499-1.286z"/><path id="hl1" fill="#2A2A2A" d="M1678.499 1047.489s-30.25 24.929-30.625 26.856c-.376 1.928 29.749 25.957 45.872 29.812 11.875-5.14 15.376-11.822 15.376-11.822s-6.001-14.52-15-23.515-13.373-21.332-13.373-21.332h-2.25z"/><path id="sd1" fill="#86877F" d="M1689.122 988.51l.626 20.688s4.125-.128 6.374 2.056c2.75 4.112 33.998 46.773 36.999 57.053 3.999 2.056 7.249 1.028 7.249 1.028s-1.001-16.705-43.373-79.411c-1.874-1.544-7.875-1.414-7.875-1.414z"/></svg>