<svg xmlns="http://www.w3.org/2000/svg" id="nose" viewBox="0 0 3000 3000"><path id="cl1" fill="#C7C8BC" d="M1686.525 1021.93s-22.315-16.439-22.315-16.924c0-.484-22.192 23.935-22.192 23.935v10.035s26.037 44.244 47.607 57.783c14.383 6.407 43.271-46.541 43.271-46.541l8.554-18.133s-20.828-21.639-35.955-30.826c-4.834 7.978-11.53 15.958-15.498 19.462-2.231 1.694-3.472 1.209-3.472 1.209z"/><path id="sd2" d="M1664.086 1020.117s-19.838 11.847-22.069 18.738c-2.233 6.89 39.55 52.344 45.254 55.366 5.702 3.022 13.513-9.55 13.513-9.55s28.517-47.63 28.393-48.959c-.124-1.331-17.357-15.232-17.357-15.232l-20.085 10.759s-3.348 3.143-10.415-1.329c-7.069-4.473-17.234-9.793-17.234-9.793z"/><path id="hl1" fill="#2A2A2A" d="M1668.425 1038.371s-19.589 11.244-19.589 12.452c0 1.209 27.771 38.563 36.697 42.311 6.323 4.352 11.407-2.417 15.746-9.43 4.341-7.012 13.142-22.123 13.142-22.123l-15.868-17.529-30.128-5.681z"/><path id="sd1" fill="#86877F" d="M1664.209 1005.007l1.364 15.836s-14.754 3.868-23.433 19.342v-11.363c-.123 0 14.508-19.342 22.069-23.815zm24.673 16.319c-.372.846.991 10.638.991 10.638l21.82-11.604 17.358 15.231 12.273-3.747s-23.928-25.991-35.954-31.551c.001-.002-5.95 12.691-16.488 21.033z"/></svg>