<svg xmlns="http://www.w3.org/2000/svg" id="nose" viewBox="0 0 3000 3000"><path id="cl1" fill="#C7C8BC" d="M1686.966 1021.639s-22.313-16.219-22.313-16.696c0-.478-22.188 23.612-22.188 23.612v9.9s26.031 43.647 47.598 57.004c14.382 6.32 43.263-45.913 43.263-45.913l8.551-17.889s-20.825-21.347-35.948-30.41c-4.832 7.87-11.527 15.742-15.494 19.2-2.229 1.67-3.469 1.192-3.469 1.192z"/><ellipse cx="1714.788" cy="1097.597" fill="#2A2A2A" rx="8.096" ry="7.34"/><path id="sd2" d="M1664.531 1019.85s-19.833 11.687-22.064 18.484c-2.233 6.798 39.541 51.638 45.245 54.619 5.701 2.981 13.509-9.419 13.509-9.419s28.511-46.987 28.388-48.298c-.126-1.314-17.354-15.028-17.354-15.028l-20.081 10.614s-3.348 3.1-10.413-1.312c-7.065-4.411-17.23-9.66-17.23-9.66z"/><path id="hl1" fill="#2A2A2A" d="M1668.869 1037.857s-19.586 11.093-19.586 12.286 27.765 38.041 36.691 41.739c6.321 4.293 11.404-2.385 15.743-9.304 4.339-6.917 13.139-21.823 13.139-21.823l-15.866-17.292-30.121-5.606z"/><path id="sd1" fill="#86877F" d="M1664.654 1004.943l1.364 15.622s-14.751 3.816-23.428 19.081v-11.208c-.124-.002 14.503-19.082 22.064-23.495zm24.669 16.099c-.372.835.991 10.494.991 10.494l21.815-11.448 17.354 15.026 12.272-3.697s-23.924-25.64-35.948-31.125c.001-.001-5.948 12.521-16.484 20.75z"/><path id="cl2" fill="#FAE979" stroke="#000" stroke-miterlimit="10" stroke-width="2" d="M1703.099 1080.351c-6.71-9.3-.358-20.581 10.953-21.326 6.351-.418 11.156 1.465 12.942 2.659 6.851 4.634 10.66 8.123 15.459 14.195 3.965 5.017 7.65 11.909 7.65 18.229 0 4.21-1.727 10.777-7.675 13.861-5.464 2.833-9.98 3.22-15.052 2.389-6.025-.989-10.587-2.358-15.947-8.253-5.359-5.967 2.622-11.774 6.031-8.868 2.943 2.753 5.888 8.125 13.254 7.501 2.913-.247 7.444-3.573 7.818-6.083.465-3.131-4.854-14.063-8.925-18.038-16.198-15.821-21.678-2.38-26.508 3.734z"/></svg>