<svg xmlns="http://www.w3.org/2000/svg" id="eyebrow" viewBox="0 0 3000 3000"><path id="cl1" d="M1529.54 862.935c37.807 24.054 52.952 37.173 52.952 37.173l-9.989 9.618s-43.614-28.075-47.137-29.21c-3.521-1.134-59.543-27.772-74.929-21.484-15.385 6.288-51.975 27.76-51.975 27.76l-14.148-7.834s13.746-11.047 30.26-26.558c16.514-15.511 34.879-18.866 47.482-19.295 30.002-1.024 47.235 16.659 67.484 29.83zm196.246 51.606c52.638-35.987 69.761-29.606 84.944-30.588 15.185-.983 36.256 24.128 36.256 24.128l9.409-4.976s-14.161-19.239-19.226-22.646c-3.598-5.235-26.232-23.015-49.073-14.188-46.023 15.261-67.188 44.161-67.188 44.161s3.692 4.83 4.878 4.109z"/><path fill="none" stroke="#050101" stroke-miterlimit="10" stroke-width="6" d="M1531.275 862.152c25.943 16.52 48.878 40.206 48.878 40.206l-5.881 5.664s-26.275-14.589-45.261-25.574c-25.613-14.821-62.381-27.16-78.575-23.417-15.503 3.584-53.858 26.717-53.858 26.717l-12.265-6.791s16.1-16.405 34.916-29.023c16.921-11.346 24.89-15.937 42.826-16.83 25.414-1.265 50.909 17.388 69.22 29.048zm194.511 52.389c52.638-35.987 72.787-33.618 84.411-32.334 15.125 1.67 36.789 25.874 36.789 25.874l9.409-4.976s-15.061-18.184-19.226-22.646c-6.889-7.378-26.025-22.457-49.073-14.188-45.64 16.375-67.188 44.161-67.188 44.161s3.692 4.83 4.878 4.109z"/></svg>