<svg xmlns="http://www.w3.org/2000/svg" id="eyebrow" viewBox="0 0 3000 3000"><path id="cl1" fill="#010101" d="M1595.7 925.301c-6.5-3.4-11.601-8.801-17.301-13.2-22.699-17.601-47.3-31.7-75.1-39.3-21.2-5.801-42.4-6.301-63.4 1.1-1.899.7-3.8.9-5.8.8 0-.5-.1-.6-.1-1.2 0-.5-.101-.699-.101-1.1 18.9-15.2 40.7-17.8 63.7-14.7 28.8 3.9 53.5 16.601 74.4 36.7 9.8 9.4 19.899 18.4 26.3 30.6-.798.8-1.698.999-2.598.3zm258.8-46.701c.2-.5 0-1-.5-1.601-1.9-1.3-4.4-2.199-5.5-3.899-4.3-6.8-11.2-8.8-18.4-10.4-15.5-3.399-30.199-.5-44 6.5-23.8 12-38.5 32.5-50.5 55.4-.699 2.3.4 2.899 2.5 2.6 2.5-1.7 4.2-4.1 6.101-6.399 14-16.801 30.5-30.5 50.3-39.9 12-5.7 24.3-9.5 38.3-5.9 6.9 1.801 14 3.801 21.301 4.4.098-.1.298-.301.398-.801zm-120.9 48.9c-.199 1.101-2 2.2-.3 3.2 1.2.7 2.4-.3 3.2-1.3.6-.7 1-1.6 1.5-2.3-.8-.9-1.7-1.7-2.5-2.6-1.2.6-1.7 1.801-1.9 3zm122.2-48.199c.5-1.4-.1-2.4-1.8-2.301v2.301c.6 1.299 1.4 1.099 1.8 0zM1599 926.7c.8-.6.2-1.399-.8-1.7-.601.7-1.4 1.101-2.601.301.701 1.599 1.901 2.399 3.401 1.399zM1432 874c.1.9 1.1 1 2 .601-.1-.7-.1-1.5-.2-2.2-.7.599-1.9 1.199-1.8 1.599z"/><path fill="none" stroke="#040000" stroke-miterlimit="10" stroke-width="6" d="M1452.3 870.7c-24.699 6.7-20.3 3.3-20.3 3.3 31.5-23 61.9-22.8 87.9-13 46.6 17.5 79.1 65.7 79.1 65.7-82.3-66-122-62.7-146.7-56zm346.4-7.399c-23.688 9.165-38.044 25.322-67.301 66.3 29.343-23.615 30.029-30.066 59.435-47.767C1808 871.5 1815.824 866.4 1840.125 876c12.18 4.261 15.985 8.375 18.25 8.125s-5.792-12.147-10.125-15.625c-3.825-3.07-23.25-15.375-49.55-5.199z"/></svg>