<svg xmlns="http://www.w3.org/2000/svg" id="eyebrow" viewBox="0 0 3000 3000"><path fill="#010101" d="M1666.68 839.79c-12.439 19.612-27.129 34.639-45.37 43.69-11.668 5.813-23.037 4.598-34.642 2.526-16.362-3.126-32.919-3.832-49.415-3.808-38.972-.083-77.183 9.691-115.6 17.883-18.207 3.955-36.191 9.134-53.528 18.223-.74.332-1.628-.069-3.349-.143 6.527-10.642 14.678-16.847 22.882-22.199 40.474-26.668 82.93-42.453 127.716-46.973 18.021-1.778 36.099-2.707 54.018-2.064 32.586 1.024 64.885-1.845 96.912-11.156.855 1.25.98 2.591.376 4.021zm204.083 82.112c-8.074-6.916-15.795-15.004-24.309-20.733-16.812-11.253-34.133-21.183-51.968-28.19-17.837-7.008-35.769-13.507-53.287-22.417-4.74-2.471-9.435-5.196-14.704-8.064.569 6.051 3.508 8.721 5.881 11.864 6.602 8.535 12.907 17.491 17.365 28.011 3.665 8.569 7.576 11.558 15.518 12.839 30.306 4.645 60.592 11.875 90.307 24.378 4.659 1.993 9.397 3.356 14.106 5.094.376-1.053.787-1.866 1.091-2.782z"/><path id="cl1" fill="#271F16" d="M1641.872 862.515c-7.081 8.799-16.044 12.785-24.755 17.266-4.265 2.244-8.299 1.224-12.336.203-13.809-3.502-27.658-6.035-41.777-6.516-17.104-.608-34.167-2.185-51.314.358-17.606 2.648-35.185 4.689-52.668 8.674-8.873 1.927-17.699 4.829-26.761 4.806.621-6.042 4.429-6.123 7.553-7.08 27.651-8.651 55.694-13.764 83.921-16.807 36.332-3.911 72.781-2.113 109.131-4.324 3.175-.105 6.544-.447 9.006 3.42zm153.705 22.818c-12.563-5.741-25.174-11.228-37.785-16.713-2.274-.944-4.791-2.216-6.574.813 2.321 4.997 4.535 9.89 6.856 14.887 1.59 3.406 3.713 5.609 6.883 4.793 2.369-.672 4.782.002 7.224.3 9.679 1.215 19.383 2.054 28.999 2.911-.148-4.65-2.999-5.737-5.603-6.991z"/><path id="hl1" fill="#524737" d="M1641.872 862.515c-20.771 2.511-41.37-1.159-62.092.142-22.992 1.446-46.061 2.524-69.045 5.913-21.437 3.212-43.02 5.568-64.063 12.315-4.962 1.608-10.076 2.482-14.503 6.419-9.006 2.891-18.102 5.781-27.113 8.793-.241-.74-.386-1.594-.626-2.333 10.141-6.119 20.211-12.729 31.122-15.661 27.774-7.31 55.636-14.494 83.798-18.146 8.933-1.198 18.026-1.901 26.978-1.398 17.451.987 34.899-.089 52.252-1.047 18.262-1.042 36.478-3.056 54.763-8.949-3.527 8.345-3.527 8.345-11.471 13.952zm159.328 29.927c1.726 2.028 3.947-.586 5.711 1.682 6.39 2.42 12.888 4.944 19.487 5.357-25.381-17.834-53.047-24.799-79.702-39.328.579 5.557 2.481 7.552 4.563 9.516 16.289 4.949 32.017 13.074 47.89 20.434.773.231 1.355 1.482 2.051 2.339z"/></svg>