<svg xmlns="http://www.w3.org/2000/svg" id="eyebrow" viewBox="0 0 3000 3000"><path d="M1885.017 935.183l-162.517-4.746c-4.443-12.462 3.047-16.87 18.65-17.995 26.061-1.875 51.873-4.478 77.761-6.864 46.345-4.272 46.337-4.298 66.106 29.605zm-483.067-43.95c65.006 9.367 129.126 18.609 194.086 27.97 6.233-12.524-2.363-18.8-20.878-23.188-30.927-7.326-61.5-15.388-92.182-23.23-54.921-14.04-54.913-14.068-81.026 18.448z"/><path id="sd1" fill="#252525" d="M1596.036 919.203l-194.086-27.97a1132.63 1132.63 0 0 1 5.51-6.825c15.451-6.337 48.526-11.952 80.956-3.694 45.251 11.522 104.924 22.512 104.943 22.517 5 3.865 6.182 8.931 2.677 15.972zm269.472-11.098c-8.844.752-19.325 1.33-31.77 1.651-60.822 1.569-90.536 13.917-102.642 20.932 51.457 1.502 102.359 2.988 153.92 4.495-8.376-14.366-13.202-22.639-19.508-27.078z"/><path id="cl1" fill="#464646" d="M1595.868 916.766c-.311.649-.938 1.812-1.13 1.785-.249-.037.545-3.964-1.859-6.49-4.531-4.762-22.67-8.133-28.31-12.385-2.161-1.629-4.608-4.209-7.12-7.257 7.027 1.75 14.065 3.472 21.129 5.144 15.332 3.634 22.262 8.777 17.29 19.203zm270.63-5.475c-8.313-6.787-18.806-5.813-45.475-3.354-24.564 2.264-49.059 4.735-73.786 6.513-14.428 1.04-21.541 5.041-17.995 16.184l15.161.442c-3.436-12.067 43.703-20.827 122.095-19.785z"/></svg>