<svg xmlns="http://www.w3.org/2000/svg" id="eyebrow" viewBox="0 0 3000 3000"><path id="sd1" fill="#252525" d="M1577.748 912.234c-1.199-1.074-40.896-33.723-58.471-27.475-2.331.829-1.639-6.113-1.671-6.457.752-7.223 4.18-7.813 6.362-8.293 21.272-4.66 41.983-2.216 60.685 14.473 13.319 29.856 14.862 47.244-6.905 27.752zm234.213-3.794c-.167-.307 3.344-15.68-1.208-17.997-18.227-9.277-36.638-14.946-59.593 2.172-3.065 2.286-16.259 22.472-14.478 40.012 27.48-9.266 51.319-29.628 75.279-24.187z"/><path id="cl1" fill="#464646" d="M1545.979 868.031c13.931 1.5 29.916 5.952 42.349 18.811 4.273 4.423 9.283 21.058 7.762 26.708-.054.203-.109.38-.164.575-10.712-19.656-30.738-33.742-49.947-46.094zm205.18 24.585c-4.947 3.687-14.455 20.735-15.039 27.445-.043.508-.075.98-.106 1.451 7.9-7.943 15.951-17.647 27.028-24.736 9.558-6.115 27.229-5.106 39.167-9.004-13.626-4.81-34.113-7.785-51.05 4.844z"/><path fill="none" stroke="#000" stroke-linecap="round" stroke-linejoin="round" stroke-miterlimit="10" stroke-width="6" d="M1516.855 876.417c.989-3.855 4.18-7.813 6.361-8.293 22.966-5.031 45.277-1.795 65.112 18.718 4.273 4.423 9.283 21.058 7.761 26.708-4.757 17.661-11.003 5.646-17.404.98-15.225-11.086-30.951-20.099-46.683-28.829-4.423-2.449-10.945 3.133-14.392-1.348-1.348-1.754-1.422-5.335-.755-7.936zm296.44 25.06c.307-4.059-.904-9.876-2.543-11.034-17.241-12.174-36.639-14.946-59.593 2.172-4.947 3.687-14.455 20.735-15.039 27.445-1.811 20.981 7.219 9.42 13.991 6.067 16.108-7.96 31.958-13.48 47.72-18.669 4.43-1.458 8.425 5.42 12.271 2.617 2.026-1.476 2.956-5.446 3.193-8.598z"/></svg>