<svg xmlns="http://www.w3.org/2000/svg" id="eyebrow" viewBox="0 0 3000 3000"><path id="sd1" fill="#252525" d="M1866.301 935.579c-6.257-3.283-11.549-7.827-18.947-9.62-26.324-6.366-52.865-12.566-80.384-17.22-11.573-1.952-28.644.412-20.892-13.128 2.482-4.329 21.595-10.229 30.332-9.672 40.556 2.587 70.813 16.849 95.482 36.308 2.34 1.853 3.171 6.725 3.58 9.896-2.36 1.332-6.809 2.105-9.171 3.436zm-426.919-39.241c8.628-1.97 16.934-5.405 25.946-5.642 32.075-.821 64.288-1.434 96.676-.286 13.617.486 30.728 6.457 30.047-8.745-.224-4.862-17.525-14.807-27.285-16.091-45.307-5.968-86.121 1.937-123.848 16.227-3.582 1.359-4.677 5.951-6.924 9.042 1.797 1.834 3.59 3.663 5.388 5.495z"/><path id="cl1" fill="#464646" d="M1471.436 877.768c-15.982.503-27.203 9.151-33.736 13.948-.229-.234-3.475-.642-3.703-.875 2.245-3.09 3.341-7.682 6.923-9.041 37.728-14.292 78.542-22.194 123.849-16.228 2.576.339-32.222-1.319-29.048-.026-23.581 2.113-37.112 11.366-64.285 12.222zm84.826-14.174c-4.268-.563-74.596 7.432-85.865 12.962-8.759 4.297 108.105-4.4 99.521 13.042 11.541 1.306 22.771 2.959 22.22-9.415-.227-4.86-26.115-15.303-35.876-16.589zm220.148 22.345c-8.738-.558-27.85 5.343-30.332 9.672-6.682 11.672 5.077 11.527 15.864 12.516 6.111-4.646 18.308-7.745 42.175-4.728 20.48 2.588 35.018 3.518 45.812 3.97-20.319-11.605-44.234-19.562-73.519-21.43z"/><path fill="none" stroke="#000" stroke-linecap="round" stroke-linejoin="round" stroke-miterlimit="10" stroke-width="6" d="M1440.918 881.802c38.031-13.906 78.541-22.194 123.848-16.228 9.76 1.285 27.063 11.229 27.285 16.092.68 15.201-16.43 9.23-30.047 8.745-32.388-1.147-64.601-.534-96.676.286-9.013.235-18.91 7.735-25.946 5.642-4.818-1.435-9.234-10.6 1.536-14.537zm430.977 40.444c-25.192-19.127-54.928-33.721-95.482-36.308-8.738-.559-27.85 5.343-30.332 9.672-7.753 13.54 9.317 11.177 20.892 13.129 27.52 4.652 54.059 10.854 80.384 17.22 7.396 1.791 11.712 7.654 18.947 9.619 3.298.896 17.793-4.066 5.591-13.332z"/></svg>