<svg xmlns="http://www.w3.org/2000/svg" id="eyebrow" viewBox="0 0 3000 3000"><path id="sd1" fill="#272C3F" d="M1847.234 890.516c-44.935-12.091-71.424 16.973-101.576 36.468-5.329 3.446-12.804 2.902-19.891 1.24 40.432-45.149 87.408-64.292 121.467-37.708zm-380.095-24.088c-8.033 3.64-7.572 7.021-22.484 4.879-14.913-2.142-15.231-11.647-18.707-11.979-3.475-.332 2.412 6.757 9.172 12.088 6.76 5.332 21.521 13.572 52.089-1.106 28.247-13.565 49.263 10.277 81.841 30.174 16.928 10.339 32.578 20.338 43.029 20.256 11.715-.089 20.821-7.242 20.067-9.768-.752-2.526-2.904-1.459-2.065.086.935 1.721-12.884 3.673-21.434-1.338-8.759-5.134-45.82-42.487-80.152-56.217-34.329-13.731-49.201 7.414-61.356 12.925z"/><path id="cl1" fill="#5A5A5B" d="M1847.234 890.516c-44.935-12.091-46.203-9.82-76.356 9.675-5.329 3.446-13.109 4.52-9.079-2.416 14.891-12.164 51.376-33.843 85.435-7.259zm-380.095-24.088c-8.033 3.64-7.572 7.021-22.484 4.879-14.913-2.142-15.231-11.647-18.707-11.979-3.475-.332 2.412 6.757 9.172 12.088 6.76 5.332 16.623 3.206 47.191-11.474 28.248-13.564 56.279 2.901 88.857 22.798 16.929 10.339 36.801 33.809 47.251 33.728 11.715-.09 14.481-2.97 13.728-5.496-.753-2.525-2.904-1.459-2.065.086.935 1.722-12.885 3.673-21.434-1.338-8.759-5.134-45.82-42.487-80.152-56.217-34.33-13.73-49.202 7.414-61.357 12.925z"/><path fill="none" stroke="#000" stroke-miterlimit="10" stroke-width="6" d="M1847.234 890.516c-44.935-12.091-71.424 16.973-101.576 36.468-5.329 3.446-12.804 2.902-19.891 1.24 40.432-45.149 87.408-64.292 121.467-37.708zm-380.095-24.088c-8.033 3.64-7.572 7.021-22.484 4.879-14.913-2.142-15.231-11.647-18.707-11.979-3.475-.332 2.412 6.757 9.172 12.088 6.76 5.332 21.521 13.572 52.089-1.106 28.247-13.565 49.263 10.277 81.841 30.174 16.928 10.339 32.578 20.338 43.029 20.256 11.715-.089 20.821-7.242 20.067-9.768-.752-2.526-2.904-1.459-2.065.086.935 1.721-12.884 3.673-21.434-1.338-8.759-5.134-45.82-42.487-80.152-56.217-34.329-13.731-49.201 7.414-61.356 12.925z"/></svg>