<svg xmlns="http://www.w3.org/2000/svg" id="eyebrow" viewBox="0 0 3000 3000"><path id="sd1" fill="#261E16" d="M1720.038 922.434c25.389-7.375 83.633-10.423 99.432-6.948 14.271 3.14 46.606 25.188 46.606 25.188s-30.107-5.461-50.271-7.644c-20.164-2.185-81.784 4.377-96.621 2.683-5.197-.594-3.797-11.929.854-13.279zm-133.632-17.602c-32.62-10.151-78.277-18.328-108.68-17.149-17.205.667-60.22 16.148-60.22 16.148s37.428-.776 62.296.019c24.867.795 117.364 15.556 117.364 15.556s-4.427-12.604-10.76-14.574z"/><path id="cl1" fill="#514736" d="M1720.038 922.434c25.389-7.375 83.633-10.423 99.432-6.948 14.271 3.14 46.606 25.188 46.606 25.188s-36.879-21.64-58.523-20.802c-5.197.201-92.166 3.912-87.515 2.562zm-133.632-17.602c-32.62-10.151-78.277-18.328-108.68-17.149-17.205.667-60.22 16.148-60.22 16.148s51.975-12.417 76.843-11.623c24.869.797 98.39 14.594 92.057 12.624z"/><path fill="none" stroke="#060001" stroke-miterlimit="10" stroke-width="6" d="M1720.038 922.434c25.389-7.375 83.633-10.423 99.432-6.948 14.271 3.14 46.606 25.188 46.606 25.188s-30.107-5.461-50.271-7.644c-20.164-2.185-81.784 4.377-96.621 2.683-5.197-.594-3.797-11.929.854-13.279zm-133.632-17.602c-32.62-10.151-78.277-18.328-108.68-17.149-17.205.667-60.22 16.148-60.22 16.148s37.428-.776 62.296.019c24.867.795 117.364 15.556 117.364 15.556s-4.427-12.604-10.76-14.574z"/></svg>