<svg xmlns="http://www.w3.org/2000/svg" id="eyebrow" viewBox="0 0 3000 3000"><path d="M1413.754 891.959c8.153-10.104 14.817-22.307 24.695-29.975 51.909-40.263 106.876-51.78 167.203-21.376-1.899 6.669-2.59 11.245-4.48 15.225-2.462 5.185-5.881 9.896-10.966 18.215-59.691-32.203-113.88-9.785-166.019 27.65-3.475-3.242-6.952-6.485-10.433-9.739zm438.882 24.819c-4.743-10.437-8.524-22.892-14.392-30.985-30.825-42.478-64.264-56.475-102.06-28.969.994 6.729 1.301 11.316 2.359 15.368 1.379 5.274 3.356 10.125 6.265 18.642 37.455-29.325 70.134-4.512 101.176 35.163l6.652-9.219z"/></svg>