<svg xmlns="http://www.w3.org/2000/svg" id="eyebrow" viewBox="0 0 3000 3000"><path fill="#030302" d="M1729.25 911.5c-.349-1.637-.673-2.246-.447-2.524 7.783-8.165 14.88-14.742 27.17-18.665 20.357-6.441 41.051-11.794 62.599-13.741 11.509-1.026 23.039-1.022 34.335 2.068 3.74 1.076 7.027 2.644 9.796 5.182 3.88 3.677 3.044 7.604-2.338 9.168-2.383.673-5.09.737-7.644.797-13.069.377-26.157.069-39.244-.238-20.214-.552-39.52 4.563-58.579 10.222-8.837 2.741-15.801 3.748-25.648 7.731zm-139.668-8.948c-7.402-4.436-14.296-9.285-22.045-13.299-41.434-21.299-84.635-39.719-138.29-40.532-6.159-.088-12.107-1.155-15.238 3.082-3.302 4.341-.418 8.329 3.933 12.172 8.23 7.333 19.091 10.731 32.027 11.6 23.755 1.738 46.569 6.063 68.819 12.119 22.25 5.947 44.688 11.463 66.944 17.191 3.526.946 4.548-.102 3.85-2.333z"/><path id="sd1" fill="#4E4434" d="M1785.714 891.255c-.604-2.659 1.9-1.416 2.902-1.646 9.388-2.277 18.845-5.036 28.609-4.443 8.37.487 16.877.218 25.269 1.597 3.809.664 7.678.641 11.189-1.361 3.166 2.941-.067 3.634-2.073 3.956-5.864.754-11.819.964-17.637.416-13.806-1.25-27.586-1.337-41.306 1.042-2.313.328-4.635.315-6.953.439zm-339.55-23.999c22.344 4.082 44.845 8.284 67.367 12.048 4.178.756 29.023 9.814 34.969 7.696-5.479-4.01-31.461-12.583-37.219-14.188-20.812-2.249-42.09-5.394-62.345-9.044-4.664-.783-9.274-2.661-13.163.44 3.356 1.047 6.698 2.311 10.391 3.048z"/><path id="cl1" fill="#393125" d="M1785.714 891.255a6516.887 6516.887 0 0 1-35.157 8.982c1.256-2.498 3.712-3.377 6.093-4.187 16.591-5.395 33.515-9.768 51.02-12.511 13.107-2.09 25.961-1.846 38.919-.507 2.482.284 5.047.703 7.098 2.301-2.754 4.655-7.669 2.99-11.697 2.811-13.096-.65-26.058-2.126-39.246-.238-5.712.888-11.496 1.709-17.03 3.349zm-311.153-20.934c11.785 1.138 33.906 6.549 54.189 8.73-6.555-5.053-34.942-10.844-43.435-12.916-15.86-3.979-31.727-7.851-48.577-8.252-2.593-.021-5.822-.291-5.794 2.346-.105 2.082 2.436 3.199 4.822 4.086 13.281.448 25.721 4.695 38.795 6.006z"/></svg>