<svg xmlns="http://www.w3.org/2000/svg" id="eyebrow" viewBox="0 0 3000 3000"><path d="M1602.476 881.389c1.05.477-.297.848-5.246 1.042-4.947.193-124.247 1.104-177.22 5.465s17.902-2.738 82.744-4.678c64.84-1.94 99.722-1.829 99.722-1.829zm-178.147 9.155c-9.913.786-17.095 2.765 5.947 1.309 23.043-1.457 109.012-5.217 141.406-4.713 8.697.033 13.286-1.834-.809-1.429-14.09.404-88.395.222-146.544 4.833zm-16.529 6.667c-11.174.908-19.317 3.079 6.648 1.368s122.781-6.301 159.204-5.966c9.783-.021 14.997-2.055-.867-1.53-15.864.524-99.438.804-164.985 6.128zm16.102-17.408c-17.908 1.333 37.838.154 65.491-.829 27.651-.983-24.346 1.455-40.625 2.597-16.278 1.142 12.766-.444 52.035-1.603 39.268-1.159 57.88.291 80.563-.264 22.685-.555 18.977-1.744 15.628-2.296-3.352-.552-3.112.871-14.352.714-24.056-.335-140.832.348-158.74 1.681zm6.444 23.692c13.328-.987 93.291-4.618 108.041-5.391 14.752-.771 24.528-3.444 8.448-1.946-16.077 1.498-34.438 2.029-62.262 3.47-27.825 1.443-60.786 3.035-67.807 3.641-7.725.669.249 1.213 13.58.226zm319.402 3.559c12.911 1.368 57.811 2.995 91.107 8.722 33.296 5.728 16.297-.53-25.88-5.226-42.176-4.695-80.389-5.102-65.227-3.496zm-6.807 1.074c-5.813-.071-18.269-.244 4.32 1.79 22.59 2.035 59.247 4.601 82.743 9.034 23.495 4.435 30.696 3.523 20.065 2.235-10.632-1.288-31.563-6.216-57.4-8.817-25.836-2.601-49.728-4.242-49.728-4.242zm-9.562 6.291c8.063.876 57.592 5.417 81.936 8.393 11.628 1.42 19.509 2.941 10.129 2.208-9.404-.736-79.886-8.958-96.563-8.701-16.676.258 10.736.553 28.766 2.49 18.028 1.937 59.875 6.028 75.761 8.402 15.886 2.373 25.487 2.144.335-2.353-25.149-4.497-47.658-7.12-77.674-9.583s-30.43-1.697-22.69-.856zm-2.53 8.551c11.209.947 26.502.853 43.731 2.537 17.231 1.686 31.836 2.828 46.273 5.146 14.438 2.319 34.052 1.876 11.896-.29-22.154-2.167-61.759-5.953-75.102-7.195s-47.352-1.932-26.798-.198z"/></svg>