<svg xmlns="http://www.w3.org/2000/svg" id="eyebrow" viewBox="0 0 3000 3000"><path d="M1860.171 913.976c-54.005 9.328-107.077 18.495-163.784 28.286-3.295-5.514-7.606-12.734-12.478-20.895 38.089-8.896 73.74-17.602 109.941-25.338 6.743-1.443 17.104-.126 23.324 1.878 16.226 5.217 31.082 11.522 42.997 16.069zm-481.118-24.431c77.194 16.33 153.056 32.38 234.114 49.526 4.961-5.096 11.454-11.77 18.786-19.312-54.348-13.839-105.2-27.172-156.886-39.606-9.626-2.316-24.568-2.34-33.584-1.137-23.522 3.124-45.125 7.517-62.43 10.529z"/></svg>