<svg xmlns="http://www.w3.org/2000/svg" id="eyebrow" viewBox="0 0 3000 3000"><path id="sd1" fill="#261E16" d="M1739.786 907.489l13.701-9.977s.913-24.107 52.974-24.939c52.06-.831 85.854 63.18 48.405 34.916-37.446-28.264-79.459-4.989-79.459-4.989-74.895 67.336-78.548 47.386-69.415 45.723s18.726-19.336 24.66-32.421c4.971-10.958 9.134-8.313 9.134-8.313zm-141.153-4.405c-13.008-.006-29.849-5.573-57.461-19.164-27.613-13.593-71.244-40.133-108.708-21.811-19.099 9.339-27.422 23.261-27.422 23.261s13.343-8.226 45.931-5.534c66.475 5.49 89.646 44.658 134 50.419 37.266 4.84 27.029-18.015 15.486-35.847-2.195-3.39-1.826 8.676-1.826 8.676z"/><path id="cl1" fill="#514736" d="M1728.662 924.302c1.678-2.696 11.124-18.191 11.124-18.191l13.701-9.977s9.68-22.634 52.974-24.939c52.061-.831 85.854 63.179 48.405 34.916-37.446-28.265-72.918-19.519-89.517-9.447-38.733 23.497-37.992 29.734-36.687 27.638zm-130.029-21.218c-13.008-.006-29.849-5.573-57.461-19.164-27.613-13.593-71.244-40.133-108.708-21.811-19.099 9.339-27.422 23.261-27.422 23.261s25.25-20.449 57.84-17.759c66.474 5.491 68.612 37.31 112.966 43.07 37.543 4.876 32.594-3.889 23.775-17.911-2.982-4.741-.99 10.314-.99 10.314z"/><path fill="none" stroke="#000" stroke-linecap="round" stroke-linejoin="round" stroke-miterlimit="10" stroke-width="6" d="M1735.49 908.552s15.365-6.721 17.997-11.04c7.229-11.87 21.347-29.013 52.974-25.939 52.06-.831 85.854 64.18 48.405 35.916-37.446-28.264-79.459-4.989-79.459-4.989-74.895 67.336-78.548 47.386-69.415 45.723s23.747-18.289 24.66-32.421c.912-14.132-5.479-26.603-5.479-26.603m-132.645 13.702c-13.008-.005-23.742-5.39-51.354-18.981-27.615-13.593-71.246-40.133-108.709-21.811-19.099 9.339-27.423 23.261-27.423 23.261s13.344-8.226 45.931-5.534c66.475 5.49 89.646 44.658 134 50.419 44.354 5.761 21.42-27.709 9.078-45.248"/></svg>