<svg xmlns="http://www.w3.org/2000/svg" id="eyebrow" viewBox="0 0 3000 3000"><path fill="#020202" d="M1475.465 878.401c18.308 1.049 17.5.5 27.101 1.603 10.337-.123 15.801-1 23.699-2 13.2-1.7 26.102-4.603 39-7.603 1-.2 1.899-.8 2.801-1 6.399-1.2 11.301 1.103 12.199 5.4 1.602 7.398-.601 12.1-7.101 14.2-29.199 9.3-58.8 16.6-89.699 16.1-10-.2-19.801-1.4-29.301-4.6-4.801-1.603-9-4.2-12.399-8.103-4.3-5-3.101-9.897 3.301-12.1 6.101-2 12.399-1.602 18.699-1.8 3.302-.298 6.7-.097 11.7-.097zm357.601 44c10-.2 12-3.897 7.801-13-4.7-10.1-13.801-13.3-23.399-14.397-17.399-2-33.399-7.7-48.801-15.603-7.5-3.897-15.5-3.5-23.3-1.8-7.2 1.6-8.301 6.6-3.103 12.2 2.302 2.5 5.103 4.2 8.103 5.8 11.101 5.9 22.199 11.9 33.601 17.3 13.299 6.3 27.399 9.603 42.199 9.5h6.899z"/><path id="sd1" fill="#524737" d="M1568.766 880.802c-11.699.397-22.398 5.897-33.898 6.699-11.102.801-21.801 4.5-33.301 1.698-7.199-1.698-15.199-.5-22.8-.698v-3.699c7.601-.103 15.2-.5 22.8-.103 20.801 1.2 40.699-2.897 60.199-9.5 1.9-.6 3.801-1.198 5.701-1.698 2.299-.5 4.1.5 4.799 2.5 1 3.1-.901 4.301-3.5 4.801zm-113.6 4c-3 0-6.101-.103-6.601 4 4.8-1.301 9.601-3.301 14.5-1.5 5.199 1.897 10.399 1.3 15.601 1.3v-3.7c-7.801-.001-15.599-.1-23.5-.1zm367.301 18.099c-14.4-4.5-29.4-7.3-43.602-12.5-2.1-.6-2.6.3-2 2.2 1.199.4 2.5.7 3.699 1.3 15 7.7 30.301 14.4 47.199 16.9 2.201.3 4.701 1.898 4.898-2.102-2.595-3.298-6.395-4.598-10.194-5.798zm-59.602-20.399c-1.602 1.698-.102 2.101 1 2.801 4.299 2.397 8.699 4.897 13 7.3.699-.7 1.398-1.5 2-2.2-4.898-3.502-10.398-5.901-16-7.901z"/><path id="cl1" fill="#272016" d="M1568.766 880.802c-12.699 7-26.799 8.699-40.6 12-17.602 4.199-35.5 4.6-53.4 3.8-9.199-.4-18.6-1.101-26.1-7.8 4.698-4.301 10.3-3.4 15.698-2.603 4.899.7 9.699.4 14.601.5 19.5-.6 39 2.4 58.4-1.8 6.799-1.5 13.299-4 20.199-5.2 3.801-.697 7.702-2.397 11.202 1.103zm209.599 10.7c-5-3.399-11-4.899-15.602-9.102-4.5-3.3-9.602-1.898-14.299-1.2-3 .4-3.5 2.9-1.102 5 1.699 1.5 3.699 2.802 5.799 3.7 9.602 4.4 19.303 8.602 29 12.9 7.803 3.5 15.5 7.398 24.102 8.699 8.102 1.199 16.102 3.699 24.398 3 4.803-.399 4.9-2.699 2-5.899-19.395-1.298-36.495-10.199-54.296-17.098z"/></svg>