<svg xmlns="http://www.w3.org/2000/svg" id="eyebrow" viewBox="0 0 3000 3000"><path id="sd1" fill="#271F16" d="M1632.698 901.368c2 31-17.7 56.7-17.7 56.7-60.3 4-122.7-43.3-142.8-89.3-61-5-78.2-17.5-78.2-17.5 44.5 4 89-3.5 110-21 5.3 26.701 50.3 116.001 128.7 71.1zm122.6 7s-9.3 42.101-25.3 49.9c5.2 6.4 69.8-9.9 116.3-78.6 5 5 10 28.3 23 31.699-2.699-17.1-16.699-40.3-14.3-60.3-16.3 18.301-78 53.902-99.7 57.301z"/><path id="cl1" fill="#554A39" d="M1400.998 852.368c19.3 1.7 84.7.3 103-22.2 1 17.2 17.7 46.801 44 68.801 6.3 6.3 31.3 15 43.3 16.3s41.301-14 41.301-14l.699 7s-7.3 16.5-47.3 15.3c-56.7-6.3-82.7-67.7-82.7-67.7-4-5.3-1-13.7-8.699-11.7-25 15.301-73.301 15-73.301 15s-39.6-8.501-20.3-6.801zm354.3 56l-3.3 11 10.7-5.5 7.3-1.8s58.7-22.7 78.3-44.7c4.7-.3 8.301 2.7 8.301 2.7l-1.7-19c.099-.099-31.601 31.6-99.601 57.3z"/><path fill="none" stroke="#070102" stroke-miterlimit="10" stroke-width="6" d="M1632.698 901.368c2 31-17.7 56.7-17.7 56.7-60.3 4-122.7-43.3-142.8-89.3-61-5-78.2-17.5-78.2-17.5 44.5 4 89-3.5 110-21 5.3 26.701 50.3 116.001 128.7 71.1zm122.6 7s-9.3 42.101-25.3 49.9c5.2 6.4 69.8-9.9 116.3-78.6 5 5 10 28.3 23 31.699-2.699-17.1-16.699-40.3-14.3-60.3-16.3 18.301-78 53.902-99.7 57.301zm-23.3-9.7s2.7 22.301 0 32c-2.7 9.7-7.8 24.9-2 27.601m-115-.3c44.7-3 57.7-47.7 57.7-47.7"/></svg>