<svg xmlns="http://www.w3.org/2000/svg" id="eyebrow" viewBox="0 0 3000 3000"><path id="sd1" fill="#271F16" stroke="#060001" stroke-miterlimit="10" d="M1600.051 914.832c-110.153 16.508-193.371-36.115-222.317-55.463 142.633 26.267 221.295 10.476 221.295 10.476s6.236 10.359 1.022 44.987zm0 0c9.918-3.726 24.981-45.078 24.981-45.078m126.818 12.521s-14.676 36.442-21.57 41.102c-6.896 4.657 102.394-5.828 110.313-9.51 10.447-2.438 42.183-14.462 48.878-27.918 3.447-2.279-137.621-3.674-137.621-3.674zm-22.985-7.88s-7.698 44.186 1.413 48.979"/><path id="cl1" fill="#554A39" d="M1380.955 860.297l47.869 6.914 20.393 3.838 47.103 3.931 73.032.641 30.23-3.388 3.175 7.63-3.615 3.783s-6.435-5.854-47.28 1.375c-40.847 7.229-156.691-15.444-156.691-15.444l-14.216-9.28zm365.534 37.005l9.839-7.227s120.083 2.272 124.428 4.175c4.344 1.901 8.613-8.299 8.613-8.299l-137.621-3.772-5.259 15.123z"/><path fill="none" stroke="#000" stroke-miterlimit="10" stroke-width="6" d="M1600.051 914.832c-110.153 16.508-193.371-36.115-222.317-55.463 142.633 26.267 221.295 10.476 221.295 10.476s6.236 10.359 1.022 44.987zm0 0c9.918-3.726 24.981-45.078 24.981-45.078m126.818 12.521s-14.676 36.442-21.57 41.102c-6.896 4.657 102.394-5.828 110.313-9.51 10.447-2.438 42.183-14.462 48.878-27.918 3.447-2.279-137.621-3.674-137.621-3.674zm-22.985-7.88s-7.698 44.186 1.413 48.979"/></svg>