<svg xmlns="http://www.w3.org/2000/svg" id="eyebrow" viewBox="0 0 3000 3000"><path id="cl1" fill="#060001" d="M1646.756 823.531c1.275 15.574-22.553 55.569-22.553 55.569s-6.381 18.551-25.104 9.36c-36.421-16.595-155.982-19.146-221.507-12.17 6.637-7.914 28.508-7.914 42.804-13.189 14.723-11.914 18.126-8.339 28.934-8.51 18.721-11.488 41.103-10.894 58.973-9.616 43.824-17.02 78.289 4.255 78.289 4.255s10.893 7.232 14.041 6.808c3.147-.426 28.337-24.933 33.018-38.549 4.682-13.615 7.914-11.317 7.914-11.317s5.191-1.362 5.191 17.359zm71.906-13.188s-10.467 59.397-19.146 67.907c-1.616 10.211 21.104 5.106 21.104 5.106s46.377 0 82.969 11.743 60.418 30.464 60.418 30.464 10.469-.255-10.041-17.274c-10.381-7.828-18.723-8.765-18.723-8.765s10.469-4.085 0-9.617c-10.466-5.53-17.443-15.146-44.25-17.02 1.107-5.021-21.273-27.912-68.332-15.743.001.001 3.83-50.97-3.999-46.801z"/><path fill="none" stroke="#040000" stroke-miterlimit="10" stroke-width="6" d="M1646.756 823.531c1.275 15.574-22.553 55.569-22.553 55.569s-6.381 18.551-25.104 9.36c-36.421-16.595-155.982-19.146-221.507-12.17 6.637-7.914 28.508-7.914 42.804-13.189 14.723-11.914 18.126-8.339 28.934-8.51 18.721-11.488 41.103-10.894 58.973-9.616 43.824-17.02 78.289 4.255 78.289 4.255s10.893 7.232 14.041 6.808c3.147-.426 28.337-24.933 33.018-38.549 4.682-13.615 7.914-11.317 7.914-11.317s5.191-1.362 5.191 17.359h0zm71.906-13.188s-10.467 59.397-19.146 67.907c-1.616 10.211 21.104 5.106 21.104 5.106s46.377 0 82.969 11.743 60.418 30.464 60.418 30.464 10.469-.255-10.041-17.274c-10.381-7.828-18.723-8.765-18.723-8.765s10.469-4.085 0-9.617c-10.466-5.53-17.443-15.146-44.25-17.02 1.107-5.021-21.273-27.912-68.332-15.743.001.001 3.83-50.97-3.999-46.801h0z"/></svg>