<svg xmlns="http://www.w3.org/2000/svg" id="eyebrow" viewBox="0 0 3000 3000"><path id="sd1" fill="#271F16" d="M1609.769 858.892s-36.12-6.278-80.478-2.691c-44.273 3.507-91.075 13.046-150.843 35.061 102.492-69.876 180.768-54.629 224.227-52.428 43.461 2.202 65.476-21.771 65.476-21.771-15.412 31.229-58.382 41.829-58.382 41.829zm107.465-28.946s15.493 27.56 19.407 36.692c3.914 9.131 60.175 5.137 116.843 59.359-15.329-28.783-57.892-57.32-93.605-69.144-17.205-4.729-42.645-26.907-42.645-26.907z"/><path id="cl1" fill="#554A39" d="M1657.469 832.555s-21.2 11.415-44.438 13.046c-23.238 1.63-106.65-5.3-130.704 1.468-24.054 6.768 17.123-6.523 17.123-6.523l71.345-4.322 48.922 2.854 32.044-7.747 16.471-14.269-10.763 15.493zm68.327 12.23s19.978 14.432 36.122 19.406c16.145 5.055 31.392 17.368 31.392 17.368l27.07 19.732 26.337 18.101-3.507-9.785-21.037-18.508-25.521-16.145-26.906-14.269-18.103-6.36-16.96-10.844-11.66-10.437-2.446 2.936 5.219 8.805z"/><path fill="none" stroke="#000" stroke-miterlimit="10" stroke-width="6" d="M1609.769 858.892s-36.12-6.278-80.478-2.691c-44.273 3.507-91.075 13.046-150.843 35.061 102.492-69.876 180.768-54.629 224.227-52.428 43.461 2.202 65.476-21.771 65.476-21.771-15.412 31.229-58.382 41.829-58.382 41.829zm107.465-28.946s15.493 27.56 19.407 36.692c3.914 9.131 60.175 5.137 116.843 59.359-15.329-28.783-57.892-57.32-93.605-69.144-17.205-4.729-42.645-26.907-42.645-26.907z"/></svg>