<svg xmlns="http://www.w3.org/2000/svg" id="eyebrow" viewBox="0 0 3000 3000"><path id="sd1" fill="#271F16" d="M1489.545 889.603c16.372 5.877 39.757 12.456 58.788 11.897-7.975 6.156-23.245 6.014-30.661 4.475-15.952-3.219-32.184-1.399-47.997-5.318-16.092-3.917-31.063-9.654-41.138-23.647-5.178-7.277-9.795-14.833-2.66-23.649 11.195-1.539 19.03 3.218 26.587 11.475 10.214 10.913 20.29 23.227 37.081 24.767zm311.204-86.757c-19.59 2.938-36.522 11.054-50.515 25.047 6.018-.979 11.615-3.078 16.932-5.737 7.976-3.917 16.651-6.017 25.047-7.557 13.015-2.377 23.761 1.704 34.955 9.4 3.64 2.518 9.544 2.634 13.461-.583 3.078-2.659 4.611-7.334 3.492-10.972-.28-.839-3.492-.783-4.052-1.622-11.474-11.055-26.167-6.018-39.32-7.976z"/><path id="cl1" fill="#504635" d="M1489.545 889.603c-2.378 3.637-5.457 2.518-8.396 1.119-9.654-4.479-18.891-9.656-26.026-17.631-8.116-9.236-16.092-18.332-29.385-19.731 15.532-6.297 26.308-5.854 35.262 8.14 7.976 11.894 15.393 22.645 28.545 28.103zm335.66-92.788c-7.557-.699-19.647 6.451-27.204 6.031 7.342 1.483 19.912.552 29.5 3.654 7.592 2.457 14.248 6.561 18.123 10.201-2.099-9.376-12.723-19.186-20.419-19.886z"/><path fill="none" stroke="#000" stroke-miterlimit="10" stroke-width="6" d="M1513.333 907.374c-8.931-1.044-9.095-.421-35.821-3.219-26.726-2.799-43.798-13.993-50.935-26.307-7.275-12.313-12.172-23.088 7.417-29.105 19.59-6.017 28.792 13.406 34.283 21.409 3.66 5.334 20.057 16.348 20.057 16.348 49.417 22.125 69.042 7.625 69.042 7.625-12.376 14.875-36.04 14.185-44.043 13.249zm273.004-89.976c33.537-9.025 36.241 7.696 43.518 8.956 7.276 1.26 19.31-2.238 14.832-15.952-7.416-15.951-22.363-13.929-27.853-13.068-2.186.343-7.13.335-30.498 7.192-23.367 6.855-42.119 26.307-42.119 26.307 32.007-9.55 29.397-10.011 42.12-13.435z"/></svg>