<svg xmlns="http://www.w3.org/2000/svg" id="eyebrow" viewBox="0 0 3000 3000"><path id="sd1" fill="#261E16" d="M1782.361 821.91c-9 5.7-32.899 33.3-40 41.101-5.5.199 6.801-22.601 9.4-26.9 3.9-6.5 6.7-15.6 12.6-20.8 6.601-3.5 14-7.9 18.7-13.3 8.9-10.101 18.9-12.301 31-6.601 6 2.8 11.6 6.2 17.3 9.5 2 7-3.199 6.7-7.3 6.7-9.2.1-18.2 1.6-27 4.7-5.2 1.801-10.999.9-14.7 5.6zm-218.399 45.8c-2.101 0-4.101-1-6 0-2 .801-4 2-6.2 2.101-9.1 2.399-18.4 2.1-27.6 2.6-24.601 1.5-49 .2-71.9-10.399-2.5 1.5-5.2 2.899-7.6 4.6-2 1.4-8.5 5.8-8 8.2.399 2.1 4.699 3 6.6 3.6 11.5 3.4 26.8 6 38.6 6.2 21.5.4 41.801 3.1 63.4 1.8 1.7-1.8 4.5.101 6.2-1.6 2.699 0 5.899-3.101 8.6-3.101 8.9-4.8 19-10.399 25.9-17.8-7.301-1.701-15.101 3.499-22 3.799z"/><path id="cl1" fill="#514736" d="M1554.062 871.611c-17.3 2.5-34.7 4.8-52.2 3.9-14.8-.7-29.699-1.9-43.5-8-2.6-1.101-6-1.5-6-5.5 5-.7 11.7-2.3 16.5-.3 11.2 4.699 21.301 7.3 33.2 7.8 13.2.5 26.5.1 39.8.1 3.2-1.9 7.101.3 10.301-1.6l-.101-.4c2 0 2.601.1 4.601.2 2.399-.6 6.399-.1 7.399 1.9-1.899.1-3.899.1-5.8.199-1.2 1-3.101.5-4.2 1.701zm211.099-57.1c2 1.899 5.9 3 6.9 2.1 4.5-4.3 9.3-8.5 13.3-13.3 7.7-9.101 16.2-10.601 27.2-6 6.1 2.5 14.7 11.399 21.7 11.899-1-2.199-6-9.5-7.9-10.899-13.1-9.2-27.5-11.9-42.5-4.601-3.599 8.5-14.7 12.601-18.7 20.801zm-179.3 49.6c1-2.1 6.601-5.8 7-9.4-10.1 4.5-25.6 8.9-35.6 12.7 2.2.2 5.3 0 6.7 2.3 7.101-.801 15.2-3.7 21.9-5.6z"/><path fill="none" stroke="#060001" stroke-miterlimit="10" stroke-width="6" d="M1594.062 851.011s3.7-1.4.8 6.399c-2.899 7.8-33.899 25.2-38.699 28.7-4.801 3.5-60.801-.6-60.801-.6s-59.1-2.8-58.6-10.601c9.2-21.399 27.1-15.399 27.1-15.399s15.5 5.5 37 8.3c70.301 5 94-18.1 94-18.1 4.101-6.4 0-22.301 0-22.301m200.499-39.699s-37.399 10.7-60.699 88c18.3-24.3 37.6-52.399 56.199-57.199 18.601-4.801 38-4 38-4s12.801-5.801 0-16.5c-12.799-10.7-33.5-10.301-33.5-10.301z"/></svg>