<svg xmlns="http://www.w3.org/2000/svg" id="freckle" viewBox="0 0 3000 3000"><path fill="#8A614F" fill-rule="evenodd" d="M1457.896 1172.629c-.309-.1-.611-.252-.928-.291-3.406-.428-7.689.426-8.004-4.846-.099-1.655 1.133-3.023 2.838-3.559 2.377-.746 10.378 2.426 11.258 4.392 1.178 2.635-1.265 4.671-5.164 4.304zm164.66-32.945c-1.691-.717-3.702-.467-4.407 1.057-1.344 2.902-2.415 6.037-2.929 9.185-.36 2.21 3.703 4.337 4.974 2.729 2.191-2.774 3.796-6.014 5.425-8.692-.461-2.32-1.451-3.596-3.063-4.279zm-169.006 2.207c-1.707-.05-3.311 1.179-3.104 2.98.519 4.52 4.681 3.737 7.528 4.373 2.189.489 3.422-1.281 3.48-4.111-1.347-3.434-4.813-3.152-7.904-3.242zm66.676 16.041c-2.878.06-5.192 1.409-5.417 4.493-.161 2.207 1.502 3.474 3.678 3.754 2.952.381 5.163-.458 5.714-3.847-.055-2.562-1.09-4.46-3.975-4.4zm258.34 34.006c2.796.03 4.325-2.032 4.349-4.51.024-2.589-1.805-4.455-4.47-4.326-2.497.121-4.314 1.619-4.424 4.564.371 2.549 1.889 4.244 4.545 4.272zm-245.555-61.08c.29-3.106-1.655-4.915-4.768-4.888-2.299.02-3.568 1.691-3.652 3.843-.106 2.743 1.589 4.125 3.89 4.387 2.703.09 4.337-1.291 4.53-3.342zm-7.121 55.966l-.751-.744c-.352-.022-.703-.046-1.055-.069-1.492.596-3.13.972-4.443 1.839-1.828 1.209-2.219 3.162-1.352 5.152.701 1.608 2.124 2.503 3.888 2.359 2.157-.175 3.621-1.42 3.91-3.612.166-1.264-.059-2.579-.107-3.871-.031-.351-.06-.702-.09-1.054zm213.456-34.888c-2.165.318-3.532 1.883-3.195 4.17.386 2.627 2.184 4.113 4.816 3.74 2.193-.311 3.26-1.989 3.17-4.249-.376-2.848-2.181-4.046-4.791-3.661zm17.853 13.355c-2.077-.157-3.887 1.152-4.059 3.335-.246 3.114 1.793 4.759 4.681 4.786 2.151.02 3.337-1.645 3.729-3.678-.257-2.733-1.921-4.258-4.351-4.443zm-233.398 20.525a28.956 28.956 0 0 1 2.324 2.324l-.146-.263c1.291-.08 2.648.063 3.859-.291 2.14-.626 3.108-2.481 3.024-4.505-.07-1.663-1.226-2.965-3.089-3.23-2.147-.308-3.933.343-4.82 2.396-.503 1.162-.594 2.503-.87 3.763l-.282-.194zm159.516-40.684c-2.413-.366-4.528.704-4.833 3.463-.312 2.818 1.563 4.157 4.046 4.319 2.215.144 3.473-1.291 3.674-2.745.297-3.026-.794-4.72-2.887-5.037zm-172.028-25.64c-.028-2.18-1.512-3.526-3.752-3.556-2.301-.03-3.557 1.37-3.741 3.57-.183 2.175.693 3.758 3.519 4.261 1.854-.595 4.01-1.511 3.974-4.275zm-32.839 15.022c-2.108.284-3.736 1.485-3.52 3.736.206 2.15 1.875 3.27 4.035 3.269 2.446-.001 3.273-1.583 3.326-3.652-.277-2.409-1.483-3.672-3.841-3.353zm277.756 1.73c-2.25-.479-3.896.675-4.275 2.867-.44 2.539.514 4.555 3.446 4.697 2.256.11 3.535-1.266 4.082-3.413.05-2.254-1.139-3.702-3.253-4.151zm-340.506 38.647c.008 2.697 1.471 4.273 4.207 3.977 2.058-.224 3.65-1.508 3.663-3.764.016-2.799-1.955-3.791-4.406-4.143-2.096.486-3.471 1.701-3.464 3.93zm204.943-135.522c-.133 2.23 1.329 3.741 3.497 3.958 2.265.227 3.718-1.143 3.875-3.414.161-2.317-1.205-3.581-3.499-3.988-2.267-.002-3.741 1.225-3.873 3.444zm-14.564 28.613c-2.264.162-3.647 1.606-3.412 3.878.225 2.163 1.733 3.624 3.966 3.486 2.219-.137 3.448-1.604 3.441-3.874-.41-2.291-1.682-3.655-3.995-3.49zm-200.015 60.898c-2.192.146-3.59 1.663-3.375 3.879.208 2.146 1.71 3.472 3.953 3.365 2.272-.108 3.49-1.411 3.392-3.712-.486-2.209-1.732-3.682-3.97-3.532zm29.665-12.908c-.47.484-.473 2.242-.006 2.684 3.345 3.161 6.445.832 9.659-1.181-3.217-1.174-6.08-5.181-9.653-1.503zm247.974 58.537c-2.152.15-3.563 1.744-3.382 3.947.178 2.152 1.781 3.386 3.899 3.543 2.303.17 3.568-1.109 3.85-3.514-.274-2.518-1.716-4.16-4.367-3.976zm-122.008-21.64c-2.741-.502-4.361 1.173-4.543 3.744-.159 2.24 1.366 3.503 3.599 3.666 2.276.167 3.616-1.034 4.21-3.175-.068-2.196-1.148-3.847-3.266-4.235zm112.86-76.306c-.021 1.802 1.164 3.134 2.846 3.417 2.273.383 3.77-1.054 4.015-3.182.253-2.193-1.093-3.579-3.349-4.051-2.203.292-3.486 1.596-3.512 3.816zm91.979 52.881c2.188-.404 3.433-2.063 2.802-4.376-.471-1.729-1.841-2.794-3.73-2.525-2.182.311-3.592 1.514-3.557 3.899.715 2.224 2.322 3.402 4.485 3.002zm-203.491 3.847c.086-2.335-1.55-3.44-3.792-3.388-1.851.044-3.06 1.181-3.309 2.957-.327 2.329.951 3.62 3.27 4.029 2.164-.206 3.748-1.374 3.831-3.598zm-24.011-32.324c-2.135.114-3.494 1.86-3.044 4.14.333 1.687 1.574 2.896 3.502 2.597 1.915-.297 2.591-1.704 2.552-3.472-.015-2.049-1.483-3.346-3.01-3.265zm183.962 39.137c-1.762.001-3.022 1.271-3.025 3.188-.004 2.243 1.102 3.892 3.482 3.598 1.771-.218 2.641-1.748 2.629-3.002-.148-2.536-1.329-3.784-3.086-3.784zm1.291-20.333c-.072-1.834-1.071-3.294-2.951-3.104-2.203.223-3.548 1.906-3.158 4.11.295 1.664 1.731 2.658 3.854 2.55 1.705-.394 2.325-1.802 2.255-3.556zm-247.554 44.334c-2.203-.01-3.686 1.186-3.476 3.463.165 1.783 1.583 2.673 3.397 2.573 1.85-.102 2.771-1.276 3.106-3.001-.308-1.711-1.154-3.025-3.027-3.035zm297.216-84.324c-1.396.113-2.583.837-2.664 2.366-.101 1.921 1.1 3.041 2.913 3.217 2.009.195 2.823-1.208 3.227-2.942-.378-1.916-1.611-2.79-3.476-2.641zm-134.968-20.421c1.64-.379 2.916-1.771 2.209-3.708-.66-1.81-2.263-2.196-4.016-1.713-1.469.406-1.965 1.54-1.91 2.981.596 1.803 2.007 2.836 3.717 2.44zm17.27-37.592c-1.451-.033-2.579.612-2.897 2.088-.438 2.03.874 3.105 2.553 3.472 1.942.423 2.948-.894 3.485-2.539-.122-2.041-1.252-2.977-3.141-3.021zm55.929 121.21c-1.984-.473-3.111.816-3.328 2.5-.178 1.382.939 2.347 2.377 2.451 1.369.099 2.505-.365 2.569-.884.232-2.492-.151-3.719-1.618-4.067zm-118-58c-1.984-.473-3.111.816-3.328 2.5-.178 1.382.939 2.347 2.377 2.45 1.369.1 2.505-.364 2.569-.883.232-2.492-.151-3.719-1.618-4.067zm-2.119 34.34c-.071 1.346.432 2.579 2.084 2.612 1.819.036 3.161-.707 2.946-2.763-.15-1.438-1.323-2.067-2.646-2.366-1.488.184-2.312 1.137-2.384 2.517zm-14.117.01c-.078-1.383-.915-2.587-2.37-2.459-1.728.152-2.979 1.225-2.62 3.213.277 1.536 1.555 1.823 3.081 1.872 1.426-.148 1.988-1.261 1.909-2.626zm205.131 17.576c.291-2.096-1.063-2.828-2.854-2.84-1.604-.011-2.241 1.179-2.174 2.544.065 1.341.797 2.395 2.321 2.58 1.329-.258 2.503-.819 2.707-2.284zm-170.663-4.55c.182 1.365 1.075 2.458 2.49 2.547 1.82.113 3.07-.87 3.181-2.776.115-1.978-1.236-2.771-3.03-3.17-1.531.582-2.905 1.423-2.641 3.399zm-62.473-35.522c-.007 1.314.341 2.747 2.06 2.83 1.971.095 3.108-1.115 3.021-2.956-.065-1.388-1.255-2.213-2.682-2.461-1.538.178-2.391 1.15-2.399 2.587zm23.108-31.958c-.25-1.681-1.447-3.071-3.502-2.413-1.452.466-1.807 1.765-1.541 3.176.285 1.516 1.24 2.198 3.089 1.971 1.202-.279 2.138-1.506 1.954-2.734zm115.348 55.416c-2.013.079-2.742 1.534-2.36 3.445.306 1.527 1.341 2.199 2.856 1.875 1.481-.316 1.994-1.503 2.219-2.779-.407-1.454-1.328-2.597-2.715-2.541zm67.801-16.121c-1.522.134-2.142 1.293-2.025 2.646.128 1.483 1.328 2.151 2.656 2.045 1.452-.115 2.03-1.25 2.063-2.647-.343-1.416-1.282-2.168-2.694-2.044zm-262.727 30.759c1.315-.02 2.42-.995 2.421-2.408.001-1.389-.984-2.396-2.383-2.402-1.414-.008-2.154 1.077-2.492 2.392.266 1.373 1.097 2.437 2.454 2.418zm297.788-23.489c.104.941.653 2.14 1.752 1.953 1.808-.307 2.661-1.649 2.201-3.494-.245-.981-1.085-1.461-2.139-1.46-1.344.549-1.963 1.646-1.814 3.001zm3.709 21.143c-.931-.423-1.803.35-2.16 1.291-.55 1.449.289 2.504 1.396 3.158 1.134.67 1.575-.354 1.947-1.22.269-1.326.088-2.652-1.183-3.229zm-227.056-84.453c.204.879.537 1.828 1.788 1.438.896-.279 1.75-.725 1.525-1.879-.189-.969-.778-1.587-1.747-1.453-1.091.279-1.825.781-1.566 1.894zm21.282-31.97c.394-1.209-.508-1.604-1.384-1.875-1.174-.363-1.64.471-1.889 1.373-.297 1.08.36 1.64 1.305 1.944 1.12.152 1.672-.529 1.968-1.442zm-91.065 143.01c-.26-.648-.669-.71-1.179-.204.176.176.351.353.527.527.228-.112.659-.305.652-.323zm287.135-12.231l-.543-.072.201.565.342-.493zm-261.459 38.878l2.324 2.324c-.774-.774-1.55-1.548-2.324-2.324z" clip-rule="evenodd"/></svg>