<svg xmlns="http://www.w3.org/2000/svg" id="freckle" viewBox="0 0 3000 3000"><path fill="#AB8575" d="M1533.3 1134.4c-.7 2.3-1.6 4.6-4.3 4.7-3.1.1-5-1.8-4.9-4.9.1-2.6 1.8-4.4 4.5-4.2 2.5.2 4.1 1.9 4.7 4.4zm-17.3 28.8c-1.6 1.6-2 3.6-1.9 5.8.6 2.1 2.8 1.6 4.1 2.7 3.3-.7 6.3-1.6 5.9-5.9-.4-3.9-3.3-4.1-6.3-4-.5.7-1.1 1.2-1.8 1.4zm9.9 28.6c2 1.4 3.9 1.5 5.9 0l-.1.1c.9-.7 1.6-1.5 1.9-2.7v-2.5c-.2-1.3-1-2.1-2-2.8h-5.5c-.9.6-1.6 1.3-2.1 2.3v3.3c.4.9 1.1 1.7 1.9 2.3zm233.7-21.9h-5.6c-1 .7-1.8 1.5-2 2.7v2.5c.3 1.2 1 2.1 2.1 2.6l-.2-.2c1.8 2.1 3.8 1.6 5.8.3.8-.6 1.4-1.4 2-2.2v-3.4c-.5-.9-1.3-1.7-2.1-2.3zm-144-50.8c.2 2.3 1.8 3.3 4 3.1 2.1-.2 3.7-1.2 3.7-3.5.1-2.8-1.8-3.9-4.2-4.3-2.5.5-3.8 2.2-3.5 4.7zm-108.4 1c-2.9.2-3.8 2.3-3.6 4.9.1 1.9 1.2 3.1 3.2 3 2.6-.1 4.2-1.6 4.5-4.2-.6-2.2-1.7-3.8-4.1-3.7zm258.2 6.7c-2.1.2-3.9 1.3-3.7 3.8.2 2.4 1.9 3.3 4.1 3.3 2.4 0 3.6-1.3 3.6-4.4-.4-1.5-1.7-2.9-4-2.7zm-85.5 22.8c-1.8 1.6-2 3.8-2 6 .5.9 1.2 1.7 2.1 2.2l-.1-.1c1.2 1.5 2.5 1.3 3.9.3l.2-.1c2.8-2.2 4.1-4.7 1.6-8-.6-.3-1.3-.5-1.9-.8-1.4-.2-2.7-.3-3.8.5zm-74-69.9c2.3.2 3.9-1 3.9-3.4 0-2.2-1.3-3.8-3.5-4.1-2.4-.3-3.5 1.4-4.1 3.5.3 2.3 1.5 3.8 3.7 4zm132.4 22c-.2 2.2 1.4 3.7 3.6 4 2.3.3 3.9-1 3.9-3.4 0-2.2-1.3-3.6-3.6-4.2-2.3.1-3.7 1.5-3.9 3.6zm-180.5 56c-.6 1.3-1.3 2.6-1.9 3.9.9 1.8 2.3 3.3 4.2 4.1l.7-.2.7.2c2-.8 3.3-2.2 4.2-4.1-.1-.5-.1-1.1 0-1.6-.6-.8-1.2-1.5-1.8-2.3l-.1-.1c-.9-.7-1.7-1.5-2.8-1.6h-.4c-1.2.3-1.9 1.1-2.8 1.7zm-83.2 17.9c.9 0 1.8.1 2.8.1 1-.4 1.7-1.1 2.4-1.9 1.2-1.2 1.1-2.6.3-4l-.2-.3c-.8-.4-1.4-1-1.9-1.7-1.3 0-2.5.1-3.8.1-1.1.5-1.9 1.3-2.2 2.5v2.8c.4 1.3 1.3 2.2 2.6 2.4zm245.5-23.9l-.2-.2c1.9 1.9 3.8 1.9 5.7 0l-.2.2c2.1-1.6 1.3-3.7.8-5.7-2.3-2.5-4.7-2.5-7 0-.3 2-1.2 4.1.9 5.7zm50.5-64.9c.2 2 1.9 3.4 4.2 3 1.7-.3 2.8-1.5 2.5-3.4-.3-1.9-1.7-2.5-1.8-2.5-3.6.1-5 1.5-4.9 2.9zM1575 1121c-1.6.1-3 1.1-2.9 3.1.2 1.9 1.6 2.9 3.2 2.9 1.8 0 2.8-1.3 2.8-2.7-.1-2.3-1.3-3.4-3.1-3.3zm126.2-27.9c-1.7-.2-3.1.6-3.3 2.6-.2 2 1.3 2.9 2.8 3.2 1.7.3 3-.7 3.3-2.8 0-1.8-1.1-2.9-2.8-3zm-233.5 7.7c.2 1.6 1.3 2.4 2.6 2.2 1.6-.2 3.1-1 2.8-3.1-.2-1.5-1.5-2-2.7-2.3-1.7.3-2.9 1.2-2.7 3.2zm84.6-2.4c-1.3-.2-2.3.9-2.6 2.4-.3 2.1.7 3.2 2.6 3.3 1.3 0 2.5-.7 2.8-2.5 0-1.7-1.1-3-2.8-3.2zm133.4 28.4c-.4 2.1.7 3.2 2.6 3.3 1.3 0 2.6-.7 2.8-2.3.2-2-1.1-2.9-2.7-3.5-1.5.3-2.5 1-2.7 2.5zm-72.1 13.1l.2.1c1.4.9 2.7 1.1 3.8-.5l-.2.3c2-1.8 1.6-3.8.3-5.8-1.1-1.1-2.4-1-3.8-.8-1.7 1.1-2.1 2.9-2.2 4.7.8.6 1.4 1.2 1.9 2zm-158 7.4c-2.3-2.3-4.3-1.6-6.2.6-.7 1.4-.7 2.7.4 3.9 1.3 1.2 2.6 1.2 3.9-.1.2-.7.4-1.3.6-2 .5-.8.9-1.6 1.3-2.4zm336.6-6.2c.8 2.4 2.6 3.5 4.4 1.6 2.1-2.2 1.8-4.8-1-6.7-1.6 1.4-1.8 3.7-3.4 5.1zm1.5-5.2c-.5.8-1.3 1.4-1.9 2.1.1 1 .2 2.1.4 3.1 6.2 1.6 3.2-2.8 3.3-5.1-.6 0-1.2 0-1.8-.1zm-108.2 14c1.1 3 .6 5.6-1.6 8 4.8-2.6 5-3.2 1.6-8zm-243.1-27.9c0 .5.5 1.3.9 1.5 1 .4 1.9-.1 2.2-1.1.3-1.1-.4-1.8-1.1-2-1.5-.2-2.1.5-2 1.6zm89.4 69.8h-5.9c1.9 2.7 3.9 2.7 5.9 0zm85.9-57.9c-.1 1.9-.2 3.9-.3 5.8 3.1-1.8 2.9-3.7.3-5.8zm142 43.9c-1.9-.1-3.9-.2-5.8-.3 1.8 3.1 3.8 2.9 5.8.3zm-39.6-26.1c-.3-1.9-.6-3.8-.8-5.7-2 2.3-2.2 4.2.8 5.7zm6.2-5.7c-.3 1.9-.6 3.8-.8 5.7 2.9-1.5 2.8-3.4.8-5.7zm-226.5 17.8c-.7-1.3-1.8-2.1-3-.9-1.2 1.2-.3 2.3 1.1 2.9.6-.7 1.2-1.3 1.9-2zm225.8-12.3h-5.7c1.9 3 3.8 3 5.7 0zm-165.5 14.2c-1.4-1.4-2.8-2.7-4.2-4.1 0 2.9 1.4 4.3 4.2 4.1zm5.6-4c-1.4 1.4-2.8 2.7-4.2 4.1 2.8.1 4.2-1.3 4.2-4.1zm48.3-28.6c1.3.3 2.5.5 3.8.8-.9-1.9-2.2-2.3-3.8-.8zm69.8 24.9l-3.9-.3c1.1 2.2 2.4 2.2 3.9.3zm-230-6.3c-1.3 0-2.6 0-3.9.1 1.3 2.1 2.6 2.1 3.9-.1zm226.1-2.1c1.2-.1 2.5-.3 3.7-.4-1.4-1.6-2.7-1.3-3.7.4zm-230 2.2c-.1-1.3-.3-2.6-.4-3.9-1.8 1.6-1.6 2.8.4 3.9zm30.1 18c-.1 1.3-.2 2.7-.3 4 2.1-1.2 2.2-2.5.3-4zm38.1 1.9c-1.4-.9-2.8-1.8-4.1-2.7.5 2.4 2.1 2.8 4.1 2.7zm99.5-32.2c-1.3.2-2.5.3-3.8.5 1.6 1.9 2.9 1.9 3.8-.5zm174.2-1.5c.6-.7 1.3-1.4 1.9-2.1-.6.7-1.3 1.4-1.9 2.1zm-226.1 22.1c-.6-.8-1.2-1.5-1.8-2.3.6.8 1.2 1.5 1.8 2.3zm-49.8 3.1c.6-.5 1.2-.9 1.8-1.4-.5.5-1.1 1-1.8 1.4zm-60.3-15.9c-.9.5-1.4 1.3-1.3 2.4.5-.8.9-1.6 1.3-2.4zm102.2 10.4c.9-.5 1.9-1.1 2.8-1.6-1.2.1-2.2.6-2.8 1.6zm-58 6.1c-.6.7-1.3 1.3-1.9 2 .6-.6 1.3-1.3 1.9-2zm-27.8 6.7c.7-.8 1.5-1.7 2.2-2.5-1.2.3-2 1.2-2.2 2.5zm89-14.4c.9.5 1.9 1.1 2.8 1.6-.6-1-1.6-1.5-2.8-1.6zm191 16.5c.7-.9 1.3-1.8 2-2.7-1.2.5-1.9 1.5-2 2.7zm7.6-2.7c.7.8 1.4 1.5 2.1 2.3-.3-1.1-1-1.9-2.1-2.3zm-285 5.7c-.9-.8-1.7-1.6-2.6-2.4.3 1.4 1.2 2.2 2.6 2.4zm5.2-1.8c-.8.6-1.6 1.3-2.4 1.9 1.1-.2 1.9-.8 2.4-1.9zm-1.8-6c.6.6 1.2 1.1 1.9 1.7-.7-.5-1.3-1.1-1.9-1.7zm281.7 10c.7-.7 1.3-1.5 2-2.2-.7.7-1.3 1.5-2 2.2zm-79.7-20.1c-.7-.7-1.4-1.5-2.1-2.2.3 1.2 1 1.9 2.1 2.2zm-156.1 28.5c.7-.8 1.4-1.5 2.1-2.3-1.1.4-1.8 1.2-2.1 2.3zm89.7-46.3c-.6-.7-1.2-1.3-1.8-2 .6.6 1.2 1.3 1.8 2zm-82 44c.7.9 1.3 1.8 2 2.8-.1-1.3-.8-2.3-2-2.8zm-7.7 5.6c.7.8 1.3 1.5 2 2.3-.7-.8-1.3-1.5-2-2.3zm9.7-.4c-.6.9-1.3 1.8-1.9 2.7 1.2-.5 1.8-1.4 1.9-2.7zm220.5-11.4c-.2-1.2-1-2-2.1-2.6.2 1.3.8 2.2 2.1 2.6z"/></svg>