<svg xmlns="http://www.w3.org/2000/svg" id="tatoo_x5F_b" viewBox="0 0 3000 3000"><path id="hl1" fill="#4D4D4D" d="M1712.8 1616.4l-20 25.8c19.4 15.2 50.3 30.9 92.8 47-25.6-24.2-49.9-48.4-72.8-72.8m223.2 51.8l-8.7-8c-2.9 5.3-5.9 10.4-8.9 15.2l17.6-7.2m53.7-91.5l-12.3-10.9c-7.1 22.6-16.8 42.3-29 58.9 9.1 7.8 18.3 15.6 27.6 23.5l23-16.6-9.3-54.9m-109-95.9l-6.7-2.5c-38.5-2.6-62.4-2.3-71.5.8l-6 8.8c28.3 27 58.7 54.9 91.2 83.8l31.3-58-38.3-32.9m-107.1 47.2l-36 52.8 95.3 83.9 34.1-55.3-93.4-81.4z"/><path id="cl1" fill="#1A1A1A" d="M1692.8 1642.2l-20 25.8c43.4 44.5 89.4 87.8 137.8 130 34.1.9 63.8-2.1 88.9-9-40.5-33.1-78.4-66.3-113.9-99.8-42.5-16.1-73.4-31.8-92.8-47m301.5 121.4c2.9-10.5 4.7-22.9 5.5-37.3l-63.8-58.2-17.6 7.3c-9.1 14.7-18.7 27.2-28.7 37.4l68.5 61.4 36.1-10.6m8.3-93.1v-17.3l-3.6-21.7-23 16.6c8.8 7.5 17.6 15 26.6 22.4z"/><path id="sd1" d="M1942.5 1823.3c-14.7-11.4-29-22.9-43.1-34.4-25.1 6.9-54.7 9.9-88.9 9 13.5 11.8 28.1 24.2 43.9 37.1l70-3c10.1-3.3 16.1-6.2 18.1-8.7m51.8-59.7l-36 10.7 21.2 19c6.4-7.2 11.3-17.1 14.8-29.7z"/></svg>