<svg xmlns="http://www.w3.org/2000/svg" id="tatoo_x5F_b" viewBox="0 0 3000 3000"><path id="hl1" fill="#4D4D4D" d="M1871.1 1476H1816c11.5 61.6 18.8 130.7 21.7 207.3 20.8-1.2 39.4-4.7 55.7-10.3-3.3-76.2-10.8-141.9-22.3-197m65.7 8l-16-3.1c15.9 48.7 24.1 107 24.7 175 16.5-4.3 34.9-12.6 55.3-24.8l-.1-22c-12.4-50.6-33.7-92.3-63.9-125.1m-183.2-6l-53.6 8.4c10.5 50.7 17.4 109.2 20.8 175.4 18.6 10 37.2 16.1 55.7 18.3-3.1-78.4-10.8-145.8-22.9-202.1z"/><path id="cl1" fill="#1A1A1A" d="M1776.5 1680.1c-18.5-2.2-37.1-8.2-55.7-18.3 1.5 28.9 2.2 59.2 2.3 91 19.3 10.5 37.6 18.6 55 24.4.1-34.1-.4-66.4-1.6-97.1m116.8-7.1c-16.3 5.6-34.9 9.1-55.7 10.3 1.4 34.8 1.8 71.2 1.3 109.2l56.2.3c.5-42.5-.1-82.4-1.8-119.8m107.5-41.8c-20.4 12.2-38.8 20.5-55.3 24.8.3 38.4-1.8 79.7-6.3 123.8l61.5-30.3v-118.3z"/><path id="sd1" d="M1894.4 1841.2c.4-16.5.7-32.6.8-48.4l-56.2-.3c-.2 16-.5 32.2-1 48.8h56.4m-116.4-64.1c-17.4-5.7-35.7-13.9-55-24.4.1 14 0 28.2-.3 42.8l54.5 33.5c.5-17.7.8-35 .8-51.9m222.8-16.4v-11.2l-61.5 30.3c-1.6 15.7-3.5 31.5-5.7 47.5l37.3-17.5 29.9-49.1z"/></svg>