<svg xmlns="http://www.w3.org/2000/svg" id="tatoo_x5F_b" viewBox="0 0 3000 3000"><path id="hl1" fill="#4D4D4D" d="M1345.1 1671.5c-3.3-26.2-7.2-53-11.6-80.4-22.1.2-43.2 3.1-63.5 8.8 26.7 27.9 51.7 51.7 75.1 71.6m-69.9-311.8l-45.3 13.4-10.9 25.6c9.4 28.7 18.7 64.6 28 107.5 31.4-6.4 52.1-12.9 62-19.4l-33.8-127.1m125.1 47l-74.5-23.1c33.5 119.8 55.5 224.8 65.8 314.9h64.5c-10.1-93.6-28.6-190.9-55.8-291.8z"/><path id="cl1" fill="#1A1A1A" d="M1456 1698.4h-64.5c4.4 38.1 6.7 73.6 6.9 106.4 20.7 2.7 42.5 2.1 65.3-1.9-1.4-34.3-3.9-69.1-7.7-104.5m-186-98.6c-.2.1-.3.1-.5.2 7.9 47.6 15.2 106.8 21.9 177.4 39.2 12.9 61 18.6 65.3 17.1-2.4-39.4-6.2-80.4-11.6-123-23.4-19.9-48.4-43.7-75.1-71.7m-132.3-65.4l61.9-17.5-29.9-118.6c-14.6 6.6-33.3 19.5-56.1 38.5l24.1 97.6m92.2-161.3l-17.9 5.3c2.3 6.3 4.7 13.1 7 20.3l10.9-25.6m85.9-24.4c3.4 11.8 6.7 23.4 10 34.9l74.5 23.1c-5.2-19.2-10.6-38.6-16.4-58.1l-68.1.1z"/><path id="sd1" d="M1244 1756l-2-11.5-76.2-64.8 7 35.3c27.1 20.6 50.9 34.3 71.2 41z"/></svg>