<svg xmlns="http://www.w3.org/2000/svg" id="tatoo_x5F_b" viewBox="0 0 3000 3000"><path id="cl1" fill="#FFF" d="M2003.199 1477.6c7.9 29.6 28.801 50.5 62.801 62.8 30.899 3.5 49.699-.2 56.6-11 1.3 11.7 4.7 19.6 10.5 23.8 5.7 4.2 14 6.301 24.8 6.5 6.4.101 11.7-1.699 16-5.5l21 22.601c15.101 4.199 23.101-.9 24-15.2 11.2-2.1 16.5-10.8 15.9-26.3 0-1.801-1.7-5.601-4.9-11.4-39.399-70.7-106.3-133.2-200.899-187.3-28.701 40.899-37.302 87.899-25.802 140.999z"/><path d="M2094.4 1434.801c-13.5 3.899-19.399 14.1-17.8 30.8 3.399 12.4 10.3 22 20.6 28.9 5.9 4 11.9 5.6 17.9 4.899 6 .7 10.399-1.1 13.3-5.399 5.899-14.801 4.5-30.9-4.399-48.4-8.001-7.901-17.802-11.501-29.601-10.8z"/><path fill="none" stroke="#000" stroke-linecap="round" stroke-miterlimit="3" stroke-width="6" d="M2204.8 1510c12.2 5.101 22.2 13.5 29.899 25.301-.1-1.801-1.699-5.601-4.899-11.4-39.4-70.7-106.3-133.2-200.9-187.3-28.7 40.899-37.3 87.899-25.8 141 7.9 29.6 28.8 50.5 62.8 62.8 30.899 3.5 49.7-.2 56.601-11 .3-3.5 1.699-7 4.199-10.6m-4.1 10.599c1.3 11.7 4.699 19.6 10.5 23.8 5.699 4.2 14 6.4 24.699 6.5 6.4.101 11.801-1.699 16-5.5 2.801-2.6 5.2-6 7-10.399m-7 10.399l21 22.601c15.101 4.199 23.101-.9 24-15.2-7.6-13.7-17.399-24.8-29.199-33.2m29.199 33.199c11.2-2.1 16.5-10.8 15.9-26.3"/></svg>