<svg xmlns="http://www.w3.org/2000/svg" id="tatoo_x5F_b" viewBox="0 0 3000 3000"><path id="cl1" fill="#C3D1E0" d="M929.6 1313l-77.9 57.801c-22.6 16-44.6 33.3-66.1 51.8-2 1.7-4 3.5-6 5.3-21.5 26.7-40.2 54.5-56 83.301-9.4 17.1-17.7 34.6-25.1 52.5 1.899.6 4 1.199 6.3 1.6 1 13.7 7.5 20.5 19.5 20.5 3.5-.1 7.5-.7 12-1.8l28.6-28.4c4.4 5 12.3 7.1 23.8 6.3 11.5-.699 21.5-4.899 29.9-12.8 8.5-7.8 13.4-15.8 14.7-24.2 17.7 10.101 44.5 9.101 80.6-3 7.101-2.399 13.9-5.6 20.2-9.6 15.1-9.6 28-22.6 38.8-38.9 6-8.699 10-18.5 12-29.5 5.601-25.8 4.7-48.5-2.5-68.3-8.701-23.301-26.3-44.101-52.8-62.602z"/><path id="hl1" fill="#FFF" d="M698.5 1563.6c7.399-17.9 15.699-35.4 25.1-52.5 15.8-28.8 34.4-56.5 56-83.3-19.6 17.5-39.8 38.5-60.8 62.899-23.101 26.9-34.8 44.2-34.9 51.8-.4 10.601 4.4 17.601 14.6 21.101z"/><path d="M887.699 1427.801c-3.5-5.7-11.6-9-24.399-10-28.7 2.5-43.101 17.6-43.2 45.3-.4 12.3 3.3 20.8 10.8 25.4 9.2 1.899 19.9-.101 32-6 .9-.4 1.7-.801 2.5-1.2 12.8-6.6 21.4-17.7 25.7-33.3 1.3-7.801.099-14.5-3.401-20.2z"/><path fill="none" stroke="#000" stroke-linecap="round" stroke-miterlimit="3" stroke-width="6" d="M828.9 1510.301c3.2 4.199 4.601 9 4.3 14.5 17.7 10.1 44.5 9.1 80.601-3 7.1-2.4 13.899-5.601 20.2-9.601 15.1-9.6 28-22.6 38.8-38.899 6-8.7 10-18.5 12-29.5 5.6-25.801 4.7-48.5-2.5-68.301-8.5-23.1-26-43.899-52.601-62.5l-77.899 57.801c-22.601 16-44.601 33.3-66.101 51.8-2 1.7-4 3.5-6 5.3-19.6 17.5-39.8 38.4-60.8 62.801-23.1 26.899-34.8 44.199-34.899 51.8 13.6-15.5 26.899-26 39.8-31.4l1.5-.6m107.898 14.299c-1.3 8.4-6.199 16.4-14.6 24.2-8.5 7.8-18.4 12-29.9 12.8-11.5.7-19.399-1.4-23.8-6.4l-28.6 28.4c-4.4 1.1-8.4 1.7-12 1.8-12 0-18.5-6.8-19.5-20.5-2.3-.399-4.4-.899-6.3-1.6-10.2-3.5-15.101-10.5-14.7-21.101m81.001 13l-8.601-9.8m-12.699-14.299c-17.5 11-30.4 22.2-38.801 33.8"/></svg>