<svg xmlns="http://www.w3.org/2000/svg" id="tatoo_x5F_b" viewBox="0 0 3000 3000"><path id="sd1" d="M2002.4 1668.6v-6c16.9 9.6 33.4 16.6 49.7 21l-33.1-62.8c-7.2 8.3-15.3 14.9-24.2 19.7-.7 7.2-.3 13.3 1.1 18.3l2.1 9.9h4.4v-.1z"/><path id="cl1" fill="#1A1A1A" d="M2052.1 1683.5c2.9.8 5.8 1.5 8.7 2.1 16.2-29.7 29.8-62.5 40.6-98.4-19.9-10.4-36.3-22.6-49.3-36.6-7.7 30.2-18.7 53.6-33.1 70.1l33.1 62.8z"/><path id="hl1" fill="#4D4D4D" d="M2129.3 1540.8l-12.8 41.6c35.3 5.1 61.6 3.9 78.8-3.8 2.4-.5 4.4.1 6 2 16.5 9.7 38.4 15.2 65.7 16.6l-11.3-28.6-31.7-5.5c12.7-10.4 18.8-18.4 18.2-24-5.9-11.1-12.7-22.5-20.6-34.2-14.7 18.6-34.1 30.9-58.4 37-10 .6-21.3.3-33.9-1.1m-89.1-197.8c-.2-.3-.5-.7-.8-1-3-3.5-5.2-3-6.8 1.3.2 23.7 13.4 55.4 39.6 95.2-.3 14-1.8 25.5-4.3 34.6-7.5-2.9-18.2-4.2-32-3.9-34.2 4.2-55.7 17.6-64.4 40 11.2-8.8 23.7-13.6 37.4-14.4 11.5-.9 23.8 3 36.9 11.8l11.5 12.5v6.3c-1.5 8.9-3.3 17.3-5.4 25.2 13 14 29.4 26.2 49.3 36.6 11.5-37.8 19.9-79.2 25.4-124 4.1-6.8 9.7-12.1 17-15.8 7.3-3.6 14.5-4.2 21.5-1.8 12 5.5 15.4 13.6 10.3 24.3-4.9 10-15 11.4-30.4 4.3 7.7 13.6 19.1 20 34.5 19.2 1.1.1 2.2.1 3.2 0 8.8-.5 14.6-6.9 17.4-19.2-16.1-19-33.5-37.2-52.2-54.5-5.3.1-12 1.2-20.3 3.5.8-5.8.6-13.3-.8-22.3-20.1-16.8-39.8-31.4-59.3-44 2.2 6.4 3.6 15 4.3 25.8-18.6-12-29.2-25.3-31.6-39.7z"/></svg>