<svg xmlns="http://www.w3.org/2000/svg" id="图层_2" viewBox="0 0 3000 3000"><path fill="#00A9A6" d="M1208.001 2527.57c1.534-7.57.747-5.555 1.507-11.944 15.867-1.876 53.75-17.052 62.096-21.791 14.529-8.248 46.673-29.106 39.695-49.432-5.559-16.186-27.434-21.318-37.31-6.215-6.337 9.683-.988 25.613 12.438 20.661 15.181-5.608 3.653-21.883-7.26-14.258 8.122-7.601 19.542.336 21.441 9.478-9.625 30.746-54.778 3.059-27.201-24.621 14.131-14.193 45.599-5.502 49.281 15.028 6.21 34.706-34.891 55.958-61.038 67.191-14.627 6.272-30.07 11.298-45.713 14.422"/><path fill="#00A9A6" d="M1246.279 2584.866c-7.816-8.144-22.346-9.197-30.295-18.207-10.676-12.056.988-31.874-7.983-42.812 7.479 9.1 21.971 8.673 28.115 18.952 7.806 13.044-2.023 29.399 10.163 42.067z"/></svg>