<svg xmlns="http://www.w3.org/2000/svg" id="图层_3" viewBox="0 0 3000 3000"><path id="cl1" fill="#B32317" d="M971.125 1451.726c-22.926 7.745-45.06 17.718-66.439 27.393l-23.263 10.39c-2.722 1.165-5.698 2.068-8.479 3.19-25.034-28.287-47.061-57.419-59.854-87.935l-9.831 8.162c3.441 8.19 6.805 12.615 11.343 20.555l-3.421-.45c-1.847 13.241.858 32.706 3.482 51.524 0 0 2.037 18.109 2.993 26.416-19.943 6.036-40.108 12.425-57.92 21.843l-10.359 5.437 10.533 5.121c18.578 9.03 39.822 16.055 61.755 22.414.821 12.157 1.481 21.839 1.481 21.839l5.641 81.971 9.629-14.297c16.056-23.972 33.309-47.683 50.536-71.082a17610.7 17610.7 0 0 1 36.005 9.981l7.264 2.225c10.376 3.12 22.986 6.916 32.55 12.823 5.087 6.086 10.96 12.996 15.591 19.129l5.973-5.376 3.714-4.247-2.683-1.809-1.23-2.426c-3.067-8.083-6.09-9.229-13.277-14.036-16.486-19.505-34.905-38.941-53.273-57.956 19.887-26.842 39.946-54.215 58.355-81.903l9.594-14.385-16.41 5.489zm-84.965 48.618l23.406-10.426c15.454-7.011 31.423-13.841 47.587-20.157-14.875 21.61-30.258 42.994-45.86 64.095a1487.04 1487.04 0 0 1-29.779-31.773c1.495-.616 3.148-1.083 4.646-1.739zm-59.801-17.408c-1.748-12.769-3.512-25.686-3.85-36.369 11.17 17.271 24.126 34.16 38.49 50.587-10.521 3.663-21.207 7.055-31.852 10.233-1.131-9.839-2.788-24.451-2.788-24.451zm-7.613 40.083c.443 6.643 1.25 18.243 2.064 30.221-15.19-4.512-29.635-9.554-43.152-15.186 13.108-5.761 26.908-10.713 41.088-15.035zm12.32-3.836c12.833-3.837 25.839-8.021 38.516-12.602 11.267 12.463 22.857 24.792 34.61 36.988-2.164 2.832-4.309 5.826-6.423 8.692-4.481 6.061-9 12.257-13.494 18.37-5.436-1.505-14.574-4.042-14.574-4.042-12.291-3.201-24.58-6.464-36.814-9.879a18219.786 18219.786 0 0 1-2.51-37.323l.689-.204zm115.536 69.34c-3.743-1.224-7.504-2.408-10.957-3.414l-7.083-2.173s-16.167-4.493-32.108-8.917c3.606-4.865 7.229-9.861 10.82-14.691 1.736-2.339 3.466-4.779 5.228-7.127 11.885 12.359 23.221 24.354 34.1 36.322zm-79.871-10.463s7.155 1.979 10.043 2.767a2108.549 2108.549 0 0 0-38.531 54.023c-1.267-18.427-4.056-59.05-4.498-65.581a2123.34 2123.34 0 0 0 32.986 8.791z"/></svg>