<svg xmlns="http://www.w3.org/2000/svg" id="图层_2" viewBox="0 0 3000 3000"><path id="cl1" fill="#0078AE" d="M1594.107 2023.911c18.769-19.03-8.259-59.492-2.415-85.124 4.142-18.149 12.435-20.141 20.176-14.271 10.683 8.101 20.315 31.175 16.539 47.422 21.556-52.117 86.994-5.946 49.008 26.508-23.682 20.226-59.56 7.452-82.292 31.995m-1.016-6.53"/><path id="sd1" fill="#094F68" d="M1611.867 1924.516s-9.071 40.523-4.553 55.67 54.005 11.871 54.005 11.871l22.196-.948s-6.674 14.238-29.121 18.31-35.644 6.414-45.264 11.688c-9.514 5.215-14.009 9.335-14.009 9.335l-1.016-6.53s7.265-7.576 6.735-18.745c-.758-15.999-6.079-25.25-9.35-46.857s2.396-27.067 4.521-31.098c2.214-4.195 9.811-8.996 15.856-2.696z"/></svg>