<svg xmlns="http://www.w3.org/2000/svg" id="图层_3" viewBox="0 0 3000 3000"><path id="cl1" fill="#0078AE" d="M2134.284 1620.741c-9.554-35.509-76.378-31.532-102.752-56.281-18.672-17.529-15.274-28.76-2.925-33.872 17.042-7.056 51.132-2.46 67.799 13.313-46.902-61.809 53.391-107.426 65.529-39.771 7.56 42.172-32.538 75.897-19.192 119.942m-8.459-3.331"/><path id="sd1" fill="#094F68" d="M2028.608 1530.588s24.749 30.913 45.873 36.072c14.625 3.571 15.104 1.448 44.692 19.688 0 0 20.75 8.341 22.221 14.606 3.411 14.53 1.35 23.119 1.35 23.119l-8.459-3.332s-3.948-13.889-17.577-21.022c-19.523-10.218-34.205-10.327-62.133-21.459-27.93-11.13-30.475-21.652-33.783-26.976-3.443-5.54-3.866-17.897 7.816-20.696z"/></svg>