<svg xmlns="http://www.w3.org/2000/svg" id="图层_3" viewBox="0 0 3000 3000"><path id="cl1" fill="#009092" d="M2170.543 1449.46c-46.144 24.373-20.05 6.312-60.005 34.413-18.676 11.432-31.256 28-37.727 49.653-6.497 21.678-2.033 41.297 13.394 58.877 18.836 21.438 41.106 31.443 65.831 13.021 12.718-9.477 26.973-37.955.794-42.133-36.724-5.869 3.848 37.76-2.284 10.098 1.586 1.014 4.848 3.758 5.92 5.262-4.109 18.82-31.354 11.059-33.548-5.67-3.101-23.553 33.704-35.703 51.931-25.775 26.983 14.697 16.018 53.088-.54 70.172-34.078 35.123-94.835 20.189-124.904-13.299-35.012-38.975-41.889-89.594-28.955-138.358 2.223-8.374 9.24-26.739 21.002-55.06 11.799-28.351 15.661-45.205 19.413-48.173 0 0 29.699 19.253 55.198 37.508 25.5 18.254 52.782 47.516 54.48 49.464z"/><path id="sd1" fill="#0C7575" d="M2070.512 1560.352s6.901 22.03 15.693 32.05c18.836 21.438 41.106 31.443 65.831 13.021 1.59-1.185 4.759-4.36 4.759-4.36l26.67 3.586s-5.78 9.244-9.156 12.728c-34.078 35.123-96.504 21.616-124.904-13.299-38.904-47.828-34.806-85.078-34.806-85.078l55.913 41.352z"/></svg>