<svg  viewBox="0 0 3000 3000" version="1.1" xmlns="http://www.w3.org/2000/svg" xmlns:xlink="http://www.w3.org/1999/xlink">
    <!-- Generator: Sketch 53.1 (72631) - https://sketchapp.com -->
    <title>男</title>
    <desc>Created with Sketch.</desc>
    <defs>
        <linearGradient x1="97.1850513%" y1="28.0729434%" x2="-0.0383941324%" y2="73.25259%" id="linearGradient-1">
            <stop stop-color="#11C4D1" offset="0%"></stop>
            <stop stop-color="#0062AD" offset="100%"></stop>
        </linearGradient>
        <path fill=""   d="M1051.06508,1395.02129 C1056.5078,1470.36974 1006.54642,1506.15676 961.74865,1510.07097 C920.160689,1513.70558 881.084752,1489.10201 877.735386,1450.93851 C874.944247,1419.48507 895.040443,1405.92515 910.810375,1404.66701 C926.998978,1403.26908 940.535999,1414.03314 941.792011,1427.17369 C942.908466,1439.75506 934.814165,1445.62637 929.092331,1446.04575 C924.62651,1446.46513 919.044233,1443.80906 918.486006,1438.21734 C918.067335,1433.32458 920.021132,1432.76541 919.462904,1427.59307 C918.625562,1418.36673 910.391704,1417.38818 905.925883,1417.80756 C900.483163,1418.22694 890.574622,1424.51762 891.830634,1439.89486 C893.226203,1455.41189 908.577464,1467.71367 928.673661,1465.89636 C950.44454,1463.93926 965.656244,1447.58347 966.772699,1424.51762 C966.772699,1423.25949 967.051813,1422.14114 967.610041,1421.0228 C967.610041,1421.0228 967.610041,1421.0228 967.610041,1421.0228 C967.889154,1420.60342 968.028711,1420.18404 968.447382,1419.76466 C968.447382,1419.76466 968.447382,1419.76466 968.447382,1419.76466 C969.00561,1418.9259 969.563837,1418.22694 970.261622,1417.52797 C970.261622,1417.52797 970.261622,1417.52797 970.261622,1417.52797 C970.81985,1416.9688 971.517634,1416.26983 972.215419,1415.57087 C981.705289,1406.9037 1016.03629,1386.21433 1048.27394,1392.64481 C1048.55305,1392.64481 1048.83217,1392.7846 1048.97172,1392.92439 C1050.22774,1392.7846 1050.92552,1393.76315 1051.06508,1395.02129" id="path-2"></path>
    </defs>
    <g id="男" stroke="none" stroke-width="1" fill="none" fill-rule="evenodd">
        <mask id="mask-3" fill="white">
            <use xlink:href="#path-2"></use>
        </mask>
        <use id="Mask" fill="url(#linearGradient-1)" fill-rule="nonzero" transform="translate(964.473567, 1450.925846) rotate(-44.000000) translate(-964.473567, -1450.925846) " xlink:href="#path-2"></use>
    </g>
</svg>