<svg width="3000px" height="3000px" viewBox="0 0 3000 3000" version="1.1" xmlns="http://www.w3.org/2000/svg" xmlns:xlink="http://www.w3.org/1999/xlink">
    <title>男</title>
    <defs>
        <linearGradient x1="100%" y1="78.8602631%" x2="0%" y2="21.1397369%" id="linearGradient-1">
            <stop stop-color="#FF0050" offset="0%"></stop>
            <stop stop-color="#7000FF" offset="71.4447846%"></stop>
            <stop stop-color="#0027FF" offset="100%"></stop>
        </linearGradient>
    </defs>
    <g id="男" stroke="none" stroke-width="1" fill="none" fill-rule="evenodd">
        <g id="编组" transform="translate(1482.000000, 1518.000000)" fill-rule="nonzero">
            <path d="M254.764752,30.1288218 C262.934075,30.1288218 270.342029,33.4675035 275.699766,38.9021247 C279.813281,43.0746691 282.713908,48.4871941 283.786094,54.5444789 L283.81232,54.7030293 L284.310312,54.7974982 C289.928078,55.9216578 294.977876,58.6523818 298.963919,62.5116206 L299.456598,62.9998686 C304.721898,68.3407254 308,75.7131665 308,83.8689232 C308,92.0246799 304.721898,99.397121 299.456598,104.737978 C296.819627,107.41279 293.686008,109.579879 290.209407,111.091078 L289.459227,111.404813 L278.915493,127.690493 C277.932093,129.156128 276.865827,130.527623 275.726661,131.802071 L275.49984,132.047511 L275.693435,132.258706 C276.625008,133.298242 277.500938,134.39885 278.314938,135.557332 L278.716748,136.141381 L289.706426,152.859842 C293.501135,154.427384 296.87965,156.752511 299.669783,159.634882 C304.83285,164.968631 308,172.235093 308,180.259899 C308,188.415655 304.721898,195.788096 299.456598,201.128953 C295.397706,205.246091 290.162152,208.160324 284.310312,209.331324 L283.81232,209.42366 L283.786094,209.584343 C282.756795,215.399336 280.042406,220.620119 276.187527,224.720078 L275.699766,225.226697 C270.342029,230.661318 262.934075,234 254.764752,234 C246.595429,234 239.187475,230.661318 233.829738,225.226697 C228.564438,219.88584 225.286336,212.513399 225.286336,204.357643 C225.286336,203.544657 225.319017,202.73945 225.383062,201.943257 L225.457512,201.150115 L219.333188,191.831808 L194.959154,191.830791 C183.046053,199.46361 168.929911,203.87782 153.798216,203.87782 C139.044505,203.87782 125.256244,199.681386 113.534138,192.396741 L112.636531,191.830311 L88.6781619,191.829233 L82.5430538,201.155391 C82.6557582,202.207082 82.7136639,203.275472 82.7136639,204.357643 C82.7136639,212.513399 79.4355616,219.88584 74.1702621,225.226697 C68.8125248,230.661318 61.4045708,234 53.2352479,234 C45.065925,234 37.6579711,230.661318 32.3002337,225.226697 C28.1867185,221.054153 25.2860922,215.641628 24.2139063,209.584343 L24.18592,209.42366 L23.6896885,209.331324 C18.0719217,208.207164 13.0221241,205.47644 9.03608093,201.617201 L8.54340178,201.128953 C3.27810231,195.788096 0,188.415655 0,180.259899 C0,172.104142 3.27810231,164.731701 8.54340178,159.390844 C11.1803734,156.716032 14.313992,154.548942 17.790593,153.037744 L18.5407726,152.724008 L29.0845064,136.438329 C30.0679088,134.97269 31.1341767,133.601193 32.2733456,132.326742 L32.4984,132.079179 L32.3068389,131.870422 C31.3752677,130.830912 30.4993374,129.730332 29.6853349,128.571879 L29.2835233,127.987844 L18.2921583,111.268543 C14.4977209,109.700956 11.1192525,107.375704 8.32911078,104.492979 C3.16692414,99.1594991 0,91.8933551 0,83.8689232 C0,75.7131665 3.27810231,68.3407254 8.54340178,62.9998686 C12.6022937,58.8827313 17.837848,55.9684978 23.6896885,54.7974982 L24.18592,54.7030293 L24.2139063,54.5444789 C25.2432048,48.7294855 27.9575939,43.5087027 31.8124732,39.4087439 L32.3002337,38.9021247 C37.6579711,33.4675035 45.065925,30.1288218 53.2352479,30.1288218 C61.4045708,30.1288218 68.8125248,33.4675035 74.1702621,38.9021247 C79.4355616,44.2429815 82.7136639,51.6154226 82.7136639,59.7711793 C82.7136639,60.6480857 82.675652,61.5159432 82.6012767,62.3731997 L82.5148413,63.2268652 L88.4764523,72.2972237 L98.1011666,72.2979362 C112.135519,57.4309577 131.912038,48.2021297 153.798216,48.2021297 C175.337502,48.2021297 194.833474,57.140725 208.823626,71.5952815 L209.496257,72.298986 L219.512403,72.29953 L225.484542,63.221537 C225.353701,62.0898954 225.286336,60.9385557 225.286336,59.7711793 C225.286336,51.6154226 228.564438,44.2429815 233.829738,38.9021247 C239.187475,33.4675035 246.595429,30.1288218 254.764752,30.1288218 Z M177.772672,3.17994715 C196.461628,-3.78833477 213.802662,1.31832917 224.772868,12.4459573 C232.195015,19.9746129 236.729504,30.2946409 236.729504,41.6978714 C236.729504,53.1808323 232.121865,63.5654913 224.706995,71.0867651 C217.199687,78.7018032 206.822129,83.3891009 195.372672,83.3891009 C183.923215,83.3891009 173.545657,78.7018032 166.03835,71.0867651 C158.62348,63.5654913 154.01584,53.1808323 154.01584,41.6978714 C154.01584,25.1882239 163.541952,10.9484267 177.237238,4.22584245 L177.77232,3.96693561 L177.772672,3.17994715 Z M82.8894378,12.3089778 C94.1186157,0.91866042 111.769452,-3.92137387 129.82376,3.67723797 L129.82376,3.67723797 L129.82288,3.96517626 L130.231721,4.16204639 C143.816668,10.779715 153.320966,24.7524965 153.575358,41.0277425 L153.580592,41.6978714 C153.580592,53.1808323 148.972953,63.5654913 141.558083,71.0867651 C134.050775,78.7018032 123.673217,83.3891009 112.22376,83.3891009 C100.774304,83.3891009 90.3967456,78.7018032 82.8894378,71.0867651 C75.4745678,63.5654913 70.8669285,53.1808323 70.8669285,41.6978714 C70.8669285,30.2149106 75.4745678,19.8302515 82.8894378,12.3089778 Z" id="形状结合" fill="url(#linearGradient-1)" opacity="0.699999988"></path>
            <path d="M254.764752,47.7223074 C261.32502,47.7223074 266.643168,53.1167711 266.643168,59.7711793 C266.643168,66.2856743 261.546304,71.5926502 255.176868,71.8129354 L240.663785,93.8941906 L240.504725,94.132096 C237.182516,99.0172751 231.701444,101.942231 225.838626,101.942231 L225.838626,101.942231 L208.248223,101.941921 C209.895973,105.767278 211.16341,109.799757 212.002055,113.990182 L249.405104,113.991103 L249.596847,113.987972 C251.509753,113.925459 253.280837,112.930349 254.346824,111.308423 L254.346824,111.308423 L268.321115,90.0464993 C267.255577,88.2401054 266.643168,86.1270584 266.643168,83.8689232 C266.643168,77.214515 271.961316,71.8200513 278.521584,71.8200513 C285.081852,71.8200513 290.4,77.214515 290.4,83.8689232 C290.4,90.5233314 285.081852,95.9177951 278.521584,95.9177951 L278.739,95.9141276 L264.230264,117.991935 L264.071204,118.22984 C260.748995,123.115019 255.267922,126.039975 249.405104,126.039975 L249.405104,126.039975 L213.190296,126.039975 L213.190296,126.039975 C213.190296,130.166485 212.781283,134.196094 212.002136,138.089365 L249.405104,138.088847 C255.267922,138.088847 260.748995,141.013803 264.071204,145.898982 L264.230264,146.136887 L278.739,168.213128 L278.823469,168.214842 C285.244229,168.377308 290.4,173.707866 290.4,180.259899 C290.4,186.914307 285.081852,192.308771 278.521584,192.308771 C271.961316,192.308771 266.643168,186.914307 266.643168,180.259899 C266.643168,178.001763 267.255577,175.888716 268.321115,174.082323 L254.346824,152.820399 C253.280837,151.198473 251.509753,150.203363 249.596847,150.14085 L249.405104,150.137719 L208.248223,150.138029 C206.395271,154.439774 204.061384,158.479599 201.315502,162.187574 L225.648272,162.186591 C231.51109,162.186591 236.992163,165.111547 240.314372,169.996726 L240.473432,170.234631 L254.982,192.311128 L255.066637,192.312586 C261.487397,192.475052 266.643168,197.80561 266.643168,204.357643 C266.643168,211.012051 261.32502,216.406514 254.764752,216.406514 C248.204484,216.406514 242.886336,211.012051 242.886336,204.357643 C242.886336,202.099507 243.498745,199.98646 244.564284,198.180066 L230.589992,176.918143 C229.524005,175.296217 227.752921,174.301107 225.840015,174.238594 L225.648272,174.235463 L189.437056,174.237138 C179.510117,181.801738 167.170244,186.284335 153.798216,186.284335 C140.426188,186.284335 128.086316,181.801738 118.159377,174.237138 L82.3517269,174.235463 L82.1599843,174.238594 C80.2470783,174.301107 78.475994,175.296217 77.4100071,176.918143 L77.4100071,176.918143 L63.4357165,198.180066 C64.5012551,199.98646 65.1136639,202.099507 65.1136639,204.357643 C65.1136639,211.012051 59.7955159,216.406514 53.2352479,216.406514 C46.6749799,216.406514 41.3568319,211.012051 41.3568319,204.357643 C41.3568319,197.703234 46.6749799,192.308771 53.2352479,192.308771 L53.017,192.311128 L67.5265676,170.234631 L67.6856273,169.996726 C71.0078367,165.111547 76.488909,162.186591 82.3517269,162.186591 L82.3517269,162.186591 L106.280931,162.187574 C103.535048,158.479599 101.201161,154.439774 99.3482099,150.138029 L58.5948951,150.137719 L58.4031526,150.14085 C56.4902462,150.203363 54.7191622,151.198473 53.6531753,152.820399 L53.6531753,152.820399 L39.6788845,174.082323 C40.7444231,175.888716 41.3568319,178.001763 41.3568319,180.259899 C41.3568319,186.914307 36.038684,192.308771 29.478416,192.308771 C22.918148,192.308771 17.6,186.914307 17.6,180.259899 C17.6,173.60549 22.918148,168.211027 29.478416,168.211027 L29.26,168.213128 L43.7697358,146.136887 L43.9287956,145.898982 C47.2510048,141.013803 52.7320773,138.088847 58.5948951,138.088847 L58.5948951,138.088847 L95.594297,138.089365 C94.8151497,134.196094 94.4061365,130.166485 94.4061365,126.039975 L58.5948951,126.039975 C52.7320773,126.039975 47.2510048,123.115019 43.9287956,118.22984 L43.7697358,117.991935 L29.26,95.9141276 L29.1765312,95.9139798 C22.7557714,95.7515134 17.6,90.4209559 17.6,83.8689232 C17.6,77.214515 22.918148,71.8200513 29.478416,71.8200513 C36.038684,71.8200513 41.3568319,77.214515 41.3568319,83.8689232 C41.3568319,86.1270584 40.7444231,88.2401054 39.6788845,90.0464993 L53.6531753,111.308423 C54.7191622,112.930349 56.4902462,113.925459 58.4031526,113.987972 L58.5948951,113.991103 L95.5943776,113.990182 C96.4330228,109.799757 97.7004598,105.767278 99.3482099,101.941921 L82.1613735,101.942231 C76.2985556,101.942231 70.8174833,99.0172753 67.4952739,94.1320963 L67.3362142,93.8941907 L52.8231316,71.8129354 C46.453696,71.5926502 41.3568319,66.2856743 41.3568319,59.7711793 C41.3568319,53.1167711 46.6749799,47.7223074 53.2352479,47.7223074 C59.7955159,47.7223074 65.1136639,53.1167711 65.1136639,59.7711793 C65.1136639,62.0926699 64.4664089,64.2608166 63.3449641,66.1000709 L77.2196537,87.210679 C78.2856406,88.8326048 80.0567249,89.8277151 81.9696309,89.8902277 L82.1613735,89.8933592 L106.280368,89.8931364 C117.115944,75.2605503 134.36739,65.7956153 153.798216,65.7956153 C173.229042,65.7956153 190.480489,75.2605503 201.316065,89.8931364 L225.838626,89.8933592 L226.030368,89.8902278 C227.943275,89.827715 229.714359,88.8326048 230.780346,87.210679 L230.780346,87.210679 L244.655036,66.1000709 C243.533591,64.2608166 242.886336,62.0926699 242.886336,59.7711793 C242.886336,53.1167711 248.204484,47.7223074 254.764752,47.7223074 Z M153.798216,77.8444872 C127.557144,77.8444872 106.284552,99.4223421 106.284552,126.039975 C106.284552,152.657608 127.557144,174.235463 153.798216,174.235463 C180.039288,174.235463 201.31188,152.657608 201.31188,126.039975 C201.31188,99.4223421 180.039288,77.8444872 153.798216,77.8444872 Z M153.798216,89.8933592 C173.47902,89.8933592 189.433464,106.07675 189.433464,126.039975 C189.433464,146.0032 173.47902,162.186591 153.798216,162.186591 C134.117412,162.186591 118.162968,146.0032 118.162968,126.039975 C118.162968,106.07675 134.117412,89.8933592 153.798216,89.8933592 Z M195.372672,17.6001276 L195.765535,17.603356 C208.704871,17.8161581 219.129504,28.5221432 219.129504,41.6978714 C219.129504,55.0066879 208.493208,65.7956153 195.372672,65.7956153 C182.252136,65.7956153 171.61584,55.0066879 171.61584,41.6978714 C171.61584,35.0434632 174.274915,29.0190272 178.574055,24.6581934 L178.574055,24.6581934 L195.372672,41.6978714 L195.372672,17.6001276 Z M112.22376,17.6001276 L112.22376,41.6978714 L125.40325,21.6453332 C131.780525,25.9665314 135.980592,33.3346735 135.980592,41.6978714 C135.980592,55.0066879 125.344296,65.7956153 112.22376,65.7956153 C99.1032244,65.7956153 88.4669285,55.0066879 88.4669285,41.6978714 C88.4669285,28.389055 99.1032244,17.6001276 112.22376,17.6001276 Z" id="形状结合" fill="#FFFFFF"></path>
        </g>
    </g>
</svg>