<svg xmlns="http://www.w3.org/2000/svg" id="tatoo_x5F_b" viewBox="0 0 3000 3000"><path id="hl1" fill="#4D4D4D" d="M1809.1 1648.5c-.7-17.7-2.9-34.9-6.5-51.7-35.4 1.2-70.5 3.3-105.1 6.3 3.2 16.5 5.9 33.5 8.3 51.3 31.1-3 65.5-5 103.3-5.9m153.3 43.6v-29.7c-53.6 2.3-134.5 3.9-242.8 4.7l141.4 32.3 45.2-.1 56.2-7.2m0-42.8v-51.7c-25.6-1.1-51.1-1.7-76.3-1.9 2.6 14.9 3.9 32.2 4 52.1 23.1.2 47.2.7 72.3 1.5m0-68l-8.7-58.8c-87.4 3.1-179.2 3.8-275.3 2.3 6.2 20.3 11.7 41.9 16.4 64.7 79.4-7.1 168.6-9.8 267.6-8.2z"/><path id="cl1" fill="#1A1A1A" d="M1993.5 1660.8c-9.1.6-19.5 1.1-31.1 1.7v29.7l-56.3 7.3-45.2.1-141.4-32.3h-.3c-3.9 0-7.9.1-11.8.1 2.9 23.2 5.2 47.5 6.9 72.8h203.2c5.4 0 10.7-.1 15.9-.2 14.4-.6 26.8-1.3 37-2l23.1-77.2m3.2-10.3c-1.3-18.2-3.7-35.4-7.2-51.5-9-.5-18.1-.9-27-1.4v51.7c11.1.3 22.5.7 34.2 1.2m-36.9-128.2c-2 .1-4.1.1-6.1.2l8.7 58.8c7.5.1 15.1.3 22.8.5-6.2-21.9-14.6-41.7-25.4-59.5z"/><path id="sd1" d="M1997.3 1660.5c-1.2.1-2.4.2-3.7.3l-23 77c10.3-.8 18.5-1.7 24.7-2.6 2.4-26.6 3-51.4 2-74.7z"/></svg>