<svg xmlns="http://www.w3.org/2000/svg" id="tatoo_x5F_b" viewBox="0 0 3000 3000"><path id="hl1" fill="#4D4D4D" d="M1979.5 1571.1c-8.9-21.7-17.9-40.2-27.1-55.6-28.4 55.7-52.6 107.7-72.8 156.1h52c14.6-33.5 30.5-67 47.9-100.5M1866 1392.5c-11.5-11.4-24.8-19.7-40-24.8-42.2 84.3-83.1 174.1-122.7 269.6l43.9 16.6c36.6-91.6 76.1-178.7 118.8-261.4m59 77.2l-31.3-42.1c-34.7 76.4-68.5 156.6-101.4 240.8l50 3.1c26.6-69.9 54.1-137.2 82.7-201.8z"/><path id="cl1" fill="#1A1A1A" d="M1747.2 1653.9l-43.9-16.6c-7.6 18.2-15.1 36.7-22.5 55.3 5.4 12.5 16.4 28.7 33 48.5 10.8-29.5 22-58.6 33.4-87.2m95.1 17.5l-50-3.1c-13.1 33.6-26 67.8-38.8 102.6 12.8 7.3 28 13.7 45.5 19 14.2-40.2 28.6-79.8 43.3-118.5m89.4.2h-52c-19.8 47.5-35.6 91.5-47.4 131.9l47.7 6.8c14.4-46.2 31.7-92.4 51.7-138.7z"/><path id="sd1" d="M1783 1836.7c5.3-15.7 10.7-31.2 16.1-46.7-17.5-5.4-32.7-11.7-45.5-19-3.4 9.4-6.9 18.8-10.3 28.3 12.1 12.8 25.3 25.3 39.7 37.4m88 3c2.9-9.8 5.8-19.6 8.9-29.4l-47.7-6.8c-3.4 11.8-6.5 23.3-9.3 34.5 16.1 2.4 32.1 2.9 48.1 1.7m-190.2-147.1c-1.2 3-2.4 5.9-3.5 8.9 8.3 18.7 18.5 37.3 30.7 55.8 2-5.4 3.9-10.8 5.9-16.2-16.7-19.8-27.8-36-33.1-48.5z"/></svg>