<svg xmlns="http://www.w3.org/2000/svg" id="hair" viewBox="0 0 3000 3000"><path id="cl1" fill="#8C6639" d="M1488.627 430.676c35.3-21.3 85.873-16.776 85.873-16.776 125-.402 230.536 114.566 230.536 114.566C1908 665.5 1911.699 763.1 1911.699 763.1 1927 866.5 1892 985.301 1892 985.301c-25 88.199-74.5 125.8-74.5 125.8-14.601 14.8-4.601-9-4.601-9 24.4-78.5 28.9-265 28.9-265 3.899-123-43.7-188.8-43.7-188.8-63.3-82.8-96.1-81.9-96.1-81.9-23.4-2.7-41.4 15.7-41.4 15.7-21.8 22.5-22.9 22.5-22.9 22.5-17.699-4-44.3-26.1-44.3-26.1-36-26.101-68.5-24.101-68.5-24.101-42 2.3-79.899 44-79.899 44-83.2 83.601-100 179-100 179-30.5 88.35-25.2 176.5-25.2 176.5-.4 18.5 33.617 107.185 41.117 121.985.399.7 39.213 88.366 39.514 88.966 5.699 12.3-61.437-40.404-61.437-40.404-3.699-1.101-75.731-65.344-75.731-65.344-55.7-37.6-73.463-87.002-73.463-87.002-4.7-3.9-15.101-17.6-15.101-17.6-19.8-21.601-25.5-21.5-25.5-21.5-7.8 1.399-22.199 1.2-22.199 1.2-25.4-.301-32.2 3.199-32.2 3.199-24.2 8.2-36.5 39.7-36.5 39.7-6.2 22.9-2.8 32-2.8 32 1.1 16.601 18.833 33.066 20.333 37.066 4.899 13.1 19.317 27.152 19.317 27.152 11.2 10.3 8.378 26.431 8.378 26.431.2 11.2-22.394 44.141-22.394 44.141-31 72.8-56.236 77.61-56.236 77.61-20.7 15.2-56.3 8.399-56.3 8.399 18.5-38.399 29.8-50.3 29.8-50.3 15.8-14.2 39.101-43.1 39.101-43.1 12.899-21.8.199-8.4.199-8.4-85.399 86.8-158.1 82.8-158.1 82.8-53 1.601-115.8-32.6-115.8-32.6-22.2-10-9.7-8-9.7-8 67.5 1.5 85.8-17 85.8-17 44.4-16.8 60.2-49.3 60.2-49.3 11-21.8 28.4-67.101 28.4-67.101 9.8-24.5 61.6-40.5 61.6-40.5l44.1-25.6c-9.3-21.9-16.6-66.4-16.6-66.4-11.5-186.5 40.7-271.899 40.7-271.899 58.2-134.9 213.3-184.4 213.3-184.4 109.1-43.3 191.9-16 191.9-16 4.201.801 25.129-1.423 25.129-1.423z"/><path fill="#2E5070" d="M1034.1 970.4c7.7 15.2 21.823 31.328 35.575 40.113.6 6 13.246 44.87 16.146 53.07-6.7-1.3-39.321-19.884-43.721-22.783-14.4-9.7-36.5-29.5-43.6-43.4-4.9-5.6 2.399-6.4 8.6-10.2 5.3-3.2 21.4-13.2 27-16.8z"/><path id="sd1" fill="#72532E" d="M806 1195.801c-18.601-6.7-36.601-14.801-54.301-23.7.101-.7.2-1.4.4-2 8.4 0 16.8-.4 25.2.1 17.899.9 34.899-1.199 51-9.8 13.1-7 27.2-12.1 39.8-20.3 14.1-9.2 23.9-21.9 32-36.3 9.9-17.801 16.7-37 23.3-56.101 5.8-16.6 16.9-27.399 31.7-35.3 9.1-4.8 18.2-9.6 27.9-13.3 3.699-1.4 10-5.8 12.3-2.5 14.5 20.7 35.6 38.6 56.5 52.5-12.3 5.8-31.101 13.2-43.4 19.1-20.399 9.7-35.6 25.101-50.7 41.3-20.199 21.601-39.5 44.2-63.899 61.5-17 12-35.601 20.7-56.101 25.301-10.599 1.599-21.199-.701-31.699-.5zM1631.5 600c-1.4-11.3-5.801-25.5-9.7-36-8.5-22.699-19.9-44.1-30.8-65.699-10.801-21.4-18.4-43.9-20.9-67.801-.6-5.5-1.3-11.3 1.8-16.6-20.2-3.4-40.3-2.3-60.399 1.2-12.101 2.1-9.571 6.804-19.771 14.104-7.5 5.4-30.129-3.403-38.429-5.604-23.7-6.3-47.8-2.601-72.101-1.601-3.3.101-6.699 1.4-9.6 3.7 7.2 1.4 14.3 2.8 21.5 4 56.1 9.7 99.5 34.7 146 69.9 36.7 29.702 83.4 90.601 92.4 100.401zm206.4 329.6c-.899 11.6-1.6 23.2-2.899 34.8-2.2 19.8-4.5 39.6-7.301 59.3-3.699 26.3-7.399 52.601-14.8 78.3-1.2 4.101-3 8-3 12.801 4.5-.301 6.9-3.2 9.4-5.601 25.199-24 44.8-51.8 58.199-83.899 13.7-33 23.101-67.2 30-102.2 3.801-19.6 7.2-39.2 8.2-59.2-9.2 22.6-19.1 44.9-30.3 66.6-4.2 8.2-8.601 16.5-16.101 22.4-5 3.9-7.699 3.4-9.899-2.2-2.7-6.8-6.9-12.8-9.9-19.399-2.3-5-4.8-10.2-9.7-13.4-2.1 3.698-1.6 7.798-1.899 11.698zm-796.9 195c-1.801 10.399-20.101 34.7-35.101 47.399-8.899 7.601-15.7 16-20.899 26.101-5.2 10.3-11.9 19.899-16.601 31.399 14.601 3.2 26.2 5 39.601-.699 3.8-9.301 6.399-14.601 7.8-17 18.8-32 31.7-57 41.899-93 2.4-8.301 6.801-26.601 6.801-26.601-6.9 10.201-22.801 27.801-23.5 32.401zm12-482.299C1041.9 669 1033.6 696.6 1028.199 725c-4.3 22.7-8.699 45.601-8.399 68.9 3.399 11.8 55.5 77.5 101.5 124.4 52.3 13.7 77.622 79.517 90.221 87.217-.2-2.301-23.221-83.117-23.721-85.417-8.601-41.5-10.7-77-11.5-119.2-.101-6.3.1-13.9 0-20.3-1.301.1-9.101 1.2-10.4 1.5-15.3 3.6-25.7-.3-34.4-12.9-7-10.1-10.399-20.2-8.3-33.399 2.4-15.2 7.4-29.801 8.4-45.2-3.2.3-5.801 2.6-8.801 3.8-22.399 8.9-51.1 3.1-60-26.5-3.399-11.2-5.1-22.6-5.1-34.2-2.5 2.299-3.5 5.6-4.699 8.6z"/><path id="sd2" fill="#614727" d="M1019.8 793.9c2 2.6 4.3 5.1 5.899 7.9 13.4 22.399 40.601 35.3 66 31.2 5.4-.9 6.101-.5 6 5.699-.399 15.4 2.2 30.301 7.601 44.801 2.6 7 6.5 12.699 11.199 18.5 13.7 16.8 32 25.399 51.801 31.899 2.8.9 5.5 2.3 8.3 3.4 3.4 1.3 5-.3 5.4-3.601 3.899 8.801 4.8 18.601 7.699 27.7l2.101 6.601c1.3 2.399 3.995 16.417.395 16.417-11.199-12.199-25.173-23.622-39.272-33.122-2.8-1.899-13.39-4.847-17.09-4.248-10.2 1.8-12.761-2.335-23.062-2.235-7.1.1-8.077 1.998-14.877 3.598-9.2 2.3-10.193 9.954-16.393 16.755-12 13.1-8.754 24.5-10.854 42.399-4.601-2.3-23.847-15.065-26.047-18.365-8-12.301-14.8-25.301-19.2-39.4-3.7-11.8-4.2-24.2-5.399-36.4-3.7-35.5-2.601-71.2-2.2-106.8.199-4.297-.201-8.698 1.999-12.698zm818.1 135.7c-.899 11.6-1.6 23.2-2.899 34.8-2.2 19.8-4.5 39.6-7.301 59.3-3.699 26.3-7.399 52.601-14.8 78.3-1.2 4.101-3 8-3 12.801 4.5-.301 6.9-3.2 9.4-5.601 25.199-24 44.8-51.8 58.199-83.899 13.7-33 23.101-67.2 30-102.2 3.801-19.6 7.2-39.2 8.2-59.2-9.2 22.6-19.1 44.9-30.3 66.6-4.2 8.2-8.601 16.5-16.101 22.4-5 3.9-7.699 3.4-9.899-2.2-2.7-6.8-6.9-12.8-9.9-19.399-2.3-5-4.8-10.2-9.7-13.4-2.1 3.698-1.6 7.798-1.899 11.698z"/><path id="hl1" fill="#BA854B" d="M1319.8 953.9c-5.9-3.3-8.7-9.1-11.2-14.8-7.8-17.9-14.3-36.3-19-55.4-1.3-5.2-1.2-12.899-7.1-14.2-5.2-1.199-8.5 5.4-12.301 9-4.399 4.2-7.399 9.301-9.399 15-.8 2.4-.601 5.4-3.4 7.101-3.1.3-3.5-2.5-4.3-4.4-5.7-13.8-10.5-27.899-13.3-42.6-.601-2.9-1-6.3-4.4-7.2-3.5-.9-5.5 2.1-7.2 4.4-3.399 4.5-6.8 8.899-8.5 14.5-.8 2.6-1 5.8-4.399 8.1-3.801-10.2-6-20.5-7.2-30.8-.6-5.601-2.7-11-2.4-16.7.101-1.3-.199-2.8-1.899-3-1.5-.2-2.5.7-3.2 1.9-2.7 5-5.5 9.899-7.1 15.3-1.7 5.399-3.7 10.6-6 17-2.801-3.2-5.301-10-9.601-16.3-3.5-32.101-.6-45.101-1.7-82.7.7-15 1.5-19 1.7-26.101 4-24.699 5.5-22.899 18.4-19 5.8-7.399 7.5-9.399 21.3 8.5 4.7 8.7 10 17.2 15.6 25.4 8.2 12 11.9 25.8 16.101 39.4.399 1.3.3 2.7.7 3.899 2.1 6.4 4.8 7.101 9.899 2.5 4.7-4.3 8.101-9.699 11-15.3 3.5-6.7 6.7-13.6 10.5-21.3 6.601 7.7 8.601 16.6 10.101 25.5 2.399 13.8.8 27.5-1.7 41.2-.3 1.8-.5 3.8.6 5.7 4.101-1 5-4.5 6.5-7.301 9.101-17.399 18.101-34.8 27.2-52.199 1.6-3.101 2.5-7 7.2-8 4.899 5.8 5.8 13.1 6.199 20.3.301 5-3.5 9.899-1.899 14.7-2.5 3-1.801 7.1-3.9 10.199-3 18-6.4 35.9-9 53.9-4.202 31.002-3.202 62.203-2.902 93.802zm-111.9-478.599c-15.3 8.5-30.7 17-44 28.699-1.7 4.7-3.6 9.301-5 14-1.5 5-.2 6.4 4.601 5.101 6.1-1.601 12.1-3.601 18.1-5.3 24.8-7.101 50.1-12.2 75.4-17.5 2.6-.5 5.899-1.5 8.699 2.399-4.699 4.9-9.6 9.8-14.3 14.8-6 6.301-11.5 12.9-14.7 21.101-2.5 6.6-.199 10.2 6.7 11.2 2 .3 4 0 6 .199 14.1 1 27.6-2.899 41.3-4.899 10.5-1.5 20.601-1.101 30.5 1.399 6.2 1.5 11.9 5.5 12.4 12.801.5 7.5 1.6 15.3-1.4 22.699-2.6 6.4-2.5 13-2.199 19.601.3 8 1.5 9 8.899 6.5 17.7-6 35.5-10.4 54.5-6.2 4.7 1 7.5 1.7 8.9 7.1 2.2 8.5 7.8 14.9 15.7 19.101 12.1-13.2 24.199-26.3 36.3-39.5-1.3-9-4.3-11.2-13.101-9.2-9.699 2.2-19.3 4.9-29.1 6.5-14.2 2.3-15.9.1-12.4-14 .101-.3.101-.7.2-1 1.8-3.9-.399-5.5-3.7-6.4-2.6-.699-5.3-.6-7.8.4-4.7 1.9-9.899.9-14.6 2.7-3.4 1.3-5.601-.5-5.8-4.5-.2-4.101.5-7.9 1.899-11.7l16.5-43.8c2-5.4 4.101-12.3-.1-15.9-4.4-3.899-11.2-1.7-17 .601-15.4 6.199-30.601 12.899-46.8 16.6-11.801 2.7-14.2.7-12.101-10.9.2-1 .8-1.899.9-2.8.399-7 3.2-13.6 2.6-20.6-.7-7.9-3.6-10.3-11.5-10.5-4.1-.101-7.899 1-11.7 2.1-17 5-19.3 1.101-15.399-12.7 1-3.399-.3-5.1-3.601-5.6-22.397 6.597-43.498 16.197-63.797 27.398zm642.359 120.518c-2.8 1.7 2.541 6.482 1.041 8.982-7.2 12.5-15.601 24-29.801 29.399-3.199 1.2-4.3 4.101-5.199 6.9-1.101 3.5-2.601 6.8-4.301 10.1-1.8 3.5-5.1 6.3-4.399 10.8 7.5 14.4 14.399 29 19.399 44.5 4.801 14.801 7.7 30.101 10.801 45.301 1.8 1.6 3.399 4.699 6 .8 8.1-12.101 16.899-23.9 20.5-38.3 2.699-10.801 3.199-21.7-5.7-30.601-4.7-4.7-3.5-10.399-1.7-15.8.8-2.4 2.9-4.4 4-6.8 4.2-8.3 11.097-11.331 13.796-20.531-5.3-13.9-16.836-31.75-24.437-44.75zM813.3 1194c-2.5 0-5.3-.699-7.3 1.801 6.899 2.399 13.699 4.899 20.699 7.199 32.7 10.5 65.301 10.101 97.801-.899 41.8-14.2 77.699-37.5 107.5-70 .5-.8 1.1-1.601 2-2 .5-.8 1.1-1.5 2-2 6.699-7 12.899-14.4 18.899-22 .7-1.2 1.3-2.4 1.7-3.8.2-1-.1-1.7-.9-2.4-1.3.4-2.699.4-3.699 1.1-11.4 7.9-22.801 15.9-34.2 23.9-18.7 13.1-36.4 27.6-57.101 37.7C946 1169.7 930.5 1174.5 915.5 1180.4c-24.4 9.6-49.7 13.1-75.601 13.4-8.899.001-17.799.1-26.599.2z"/><path fill="none" stroke="#000" stroke-linecap="round" stroke-miterlimit="10" stroke-width="6" d="M1147.331 950.626s-40.599-7.774-54.599-.375c0 0-14.776 9.507-21.475 37.007-6.7 27.5 16.748 74.546 16.748 74.546s10.208 18.09 16.807 23.19c8.3 9.4-30.513 72.705-60.413 116.004-29.899 43.301-64.6 30.5-64.6 30.5l-12.7-3.6s19.1-36.5 29.7-47.1c10.6-10.601 41.899-42.7 44.1-56.2s-25.2 51.6-125.2 78.9c-72.3 27.899-168.3-32.7-168.3-32.7s74.8.6 92.4-17.5c15.6-8.5 59.899-30.1 73.6-81.8s30-53 30-53 23.7-17.7 49-23.301c10.3-5.699 41.7-24.399 41.7-24.399s-15.6-23-16.9-72.3c-1.3-49.301.133-116.001 4.9-145.7 4-24 20.3-84.7 20.3-84.7s19.9-62.7 68.601-116c48.699-53.3 107.5-92.3 184.6-112.6 77.1-20.301 118.535-22.368 155.234-15.667 21.127 3.893 37.795 6.843 37.795 6.843s7.457-7.26 11.371-9.677c14.834-9.158 42.652-13.484 64.699-11.199 48.583 5.034 94.102 14.799 143.301 44.699 45.041 27.373 81.168 46.288 130.399 125.001 38.469 61.506 67.601 112.499 75.2 210.3 2.9 82 4.9 213.3-102.5 328 0 0 17.7-77.601 16.5-94.101.6-14.5 17.6-155.8 13.9-178.5-3.7-22.699 10.199-116.399-46.5-200.8-56.7-84.399-98.101-78.3-98.101-78.3s-31.3-4-59.3 38.5c-24.2-3.1-60.4-36.2-60.4-36.2 1.301-2.6-57.3-33.399-110.8 10.8-53.5 44.2-100.3 128.101-114.7 172.2C1325 819 1311.523 906.438 1320 958c8.874 53.973 65.5 173.034 79.5 203.833 14 30.899-131.634-96.142-169.333-135-14.854-15.311-36.262-42.596-58.077-62.511-10.923-9.972-24.759-13.696-24.759-13.696zM1035.1 973s13.734 32.167 35.734 36.023M998.4 995.2s47.434 63.3 89.101 68.633m52.999-260.666s25.207 142.646 69.27 200.99"/></svg>