<svg xmlns="http://www.w3.org/2000/svg" id="hair" viewBox="0 0 3000 3000"><switch><g><path id="cl1" fill="#5B4224" d="M1440.215 432.546c-88.301-7.5-152.102-.5-191.5 20.8-61.5 40.3-109.4 84.601-143.9 132.699-10.899 14.9-16.699 36.2-17.199 63.9-7.7 71.7-19.801 129.5-36.5 173.5-8.2 15.7-19.7 33.3-34.5 53-17.2 26.601-25.399 46.601-24.399 60 1 9.3 10.5 33.7 28.5 73 .899 2.8.899 6.198.101 10.198 14.199-28.5 24.8-53.398 31.8-74.699-7 21.3-17.601 46.199-31.8 74.699-1.9 8.302-7.4 19-16.601 32.302-16.899 27.198-24.101 49.5-21.399 67 2.699 17.3 24.699 37.3 66 59.6 41.199 22.301 59.699 44.801 55.3 67.4-3.5 27.8 8.899 49.398 37.101 65.1 28.3 15.7 57.6 25 87.899 28h29.101-6.5c47.699 25.601 116.1 41.801 205 48.5 24.398-.5 41.898-19.1 52.6-55.5-42.8 14.601-73.399 17.101-92.1 7.5-27.301-23.6-39.301-52.8-36-87.6 5.199-15.102 13.199-27.4 24-36.9 8.6-9.6 12-24.3 10-44.399-10.102-22.898-20.801-41.5-32-55.698-10.5-21.102-11.801-43.102-4-66 16.699-31 24.398-54.2 23-69.5-.801-23.399-12.5-48.5-35-75.5-22.5-26.899-23.801-50-4-69.5 26.3-24.7 36.199-45.399 29.5-62l-10.602-42.7c-1.398-5.8-3.699-10.5-7-14.199-1.699-1.801-3.699-3.4-5.898-4.601-41.7-38.801-41.7-80.2 0-124.101-41.7 43.899-41.7 85.3 0 124.101 2.199 1.199 4.199 2.8 5.898 4.601 9.801-9 28.602-14.7 56.102-17.101-32-24-41-50.801-27-80.5-14 29.699-5 56.5 27 80.5l52-9.5c37.699-4 91.6 2.3 161.6 19 43.5 12.199 88.101 6.3 133.5-17.5l16.5-7c15.101-12.399 16.101-48 3-107.101 13.101 59.101 12.101 94.7-3 107.101 4.601 3.199 8.5 6.601 11.801 9.8 20.199 1.7 39.699-9.199 58.199-32.3-18.5 23.101-38 34-58.199 32.3 26.699 34 43 76.2 48.5 126.5l6.199 79.7c-11.5 34.3-18.5 63.5-21 87.699-6 84.501-29 146.501-69 185.801-14.899 13.698-20 23.5-15.5 29.601l35 50c15.4 25.3 15.5 41.5.5 48.5-23.1 10.6-47.699 17.199-74 20 42.7 32.5 78 45.399 106 38.5 20.7-8.4 32.9-34.5 36.5-78.5-1.199-7.9 12.101-17.9 40-30.101 19.9-12.302 24.101-29.2 12.5-50.399-15.1-24.801-12-42.801 9.5-54.101 31.7-13.802 39.7-31.302 24-52.5-23.699-49.802-36.1-89.7-37-119.5 4.2-75-5.1-169.301-28-283-15.5-59.7-40.699-109.101-75.699-148.399-48.899-50.101-96.899-85.5-144.301-106.301-68.005-36.803-141.505-38.203-220.604-4.202 46.699 25.699 82.398 57.5 107.1 95.3-24.701-37.8-60.401-69.6-107.1-95.3z"/><path id="sd1" fill="#49351D" d="M1173.8 1215.7c.7-3.602-1.398-8 3.399-11.102 6.398 7.802 12.2 15.802 19.101 22.9 21.602 22.3 47.899 35.199 78.2 40.1 4.199.7 8.6.4 13 .302 3.3-.102 5.8.698 7.3 3.898 7.8 16.399 21.399 27.7 35.102 38.7 13.1 10.6 26.898 20.399 41.801 28.5 15.6 8.5 31.897 14.199 49.5 16.899 19.897 3 40.1 3.5 59.897 7.698 3.5.7 7.302.2 11 .302-3.397 4.898-6.6 9.898-11.397 13.698-12.103 9.5-26.301 11.302-40.603 9.802-14.5-1.5-29-2.602-43.397-5.102a830.16 830.16 0 0 1-76.5-17.398c-18.9-5.2-37.201-12.102-55.701-18.602-8.899-3.198-15.6-9.198-21.799-15.198-23.5-23-43.103-48.7-53.5-80.5-2.9-8.9-4.9-17.802-5.301-27.2-.502-7.596-2.802-8.997-10.102-7.697zm460.6-790.2c-24.5-9.699-50.102-15.6-76.399-17.3-26.4-1.7-52.5 1.101-77.5 10.2-10.2 3.701-27.776 6.187-37.078 12.787 5.201 5.699 11.277 11.281 17.078 14.98 26.3 16.8 90.701 86.822 89.002 86.822 9.235 5.051 17.481 9.37 34.598 15.01 3.102.7 6.896 1.771 12.65 1.25-11.5-12.1-23.051-26.75-38.351-34.149 31.698-11 64.198-11 97.198-15.898-16.5-12.8-34.398-17.3-52.601-21.102-9.3-2-19.1-2.699-29.899-7.8 8.5-2.898 14.899-5.5 21.5-7.398 21.302-6.2 42.602-12.302 65.302-10.802 9.3.602 18.601 0 27.899 0-16.299-11.9-34.799-19.299-53.399-26.6zm-105.74 77.379c-16.5-18.398-32.074-35.557-53.273-48.354-10.801-6.5-21.82-20.019-34.521-21.618-20-2.601-55.064-.104-75.267-.903-8.698-.301-17.198 1.601-25.801 1.699-25.397.601-50.1 5.101-73.897 14-10.302 3.801-20.4 8.101-28.302 16.101 12.9.602 25.802.602 38.699 1.801 20.399 1.899 41.103.399 61.7 1.899 17.5 1.3 34.9 3.899 52.4 4.699 2.697.101 5.398 1.601 10 3.101-17.9 10.399-31.201 23.301-43.4 37.2 1.4 1.699 2.5 1.399 3.4 1 24.1-9.601 49.5-6.601 74-4.7 25.5 2 50.6 9.399 75.898 14.399 11.398 2.301 35.859 9.744 47.359 11.346 6.272-5.737-15.056-16.118-28.995-31.67zM1787.4 1250.4c5 7.898 9.698 15.898 12.3 24.898 3.2 11.2 1.2 16.102-8.399 22.802-11.398 7.898-24.398 11.8-37.5 15.698-11 3.302-22 6.399-33.898 9.802 11.801 11.1 24.898 17.8 37.698 24.5 16.802 8.8 34.302 15.898 54.199 14 5.5-.5 10.701-1.602 14.9-4.802 14.7-11.398 25-25.898 27-44.8.801-7.9 2-15.7 2.398-23.7.5-10.198 5.2-18.398 15.2-22.8 3.3-1.5 6.602-3.101 9.8-4.9 11.302-6.3 22.7-12.5 31.302-22.6 5.398-6.301 7.601-13 3.698-20.9-.3 3.9-2.601 5.602-6.3 6.602-7.601 2.101-15.101 5-22.801 6.898-16 4-31.801 9-48.301 10.602-22 2.101-42.799-2.2-61.398-14.899-2.2-1.5-4.5-2.801-7.301-2.899 5.702 8.798 11.702 17.598 17.403 26.498zm-723.5-461.9c-5.602 23-12.802 45.2-27.802 64.301-8.198 10.399-15.898 21.3-22.3 33 19.199 7.601 38.899 13.399 59 17.8 15 3.302 30.102 3.399 45.4.7 16.1-2.801 27.299-13.899 40.6-21.399-1.6-3.101-3.801-4.601-5.801-6.301-7.6-6.398-15.6-12.3-22.699-19.3-20.301-20.2-36.898-43.399-51.699-67.899-4.102-6.699-9.602-13-8.899-21.699-3.4 6.497-4.1 13.797-5.8 20.797zm42.2 481.1c1.5 12.2 7.102 22.602 17.4 30.2 25.3 18.6 53.8 29.899 83.899 37.5 7.398 1.899 15.398 1.3 23.698.1-1.198-1.898-1.698-2.8-2.3-3.5-12.801-13.6-24.2-28.3-33.801-44.198-8.801-14.5-15.899-29.699-19.601-46.5-1.301-5.699-.102-12-3.399-17.302-1.601.9-1.899 2.5-2.399 4.2-3.399 10.8-7.601 21.2-10.199 32.3-2.398 10.2-4.699 11.2-14.801 7.5-7.8-2.898-14.8-7.1-21.101-12.898-7.101-6.602-11.5-15.5-19.699-20.899-.797 11.097.902 22.297 2.303 33.497z"/><path id="hl1" fill="#6C4E2A" d="M1905.8 1191.801c0 2.802-.3 5.199-3.3 6.602-10.301 5.101-20.9 8.5-32.601 7.398-5.2-.5-8.602-3.101-9.899-8.301-.301-1.3-.2-2.699-.601-3.899-2.102-5.601-4.899-9.8-12-9.898-7-.102-8.2-2-9.602-8.899-1-5.2-2.2-10.301-3.398-15.7 10.8-5.1 22.5-6.3 33.601-9 5.399-1.3 10.899-2.3 16.699-2.398 5.5-.102 11.1-1.602 16.199-4.301 7-3.801 14-7.699 21-11.5 6.199-3.399 9.301-9.5 12.899-14.899 2.3-3.399 2-8.399-1.2-12.101-.698-.801-1.3-1.601-2.101-2.199-15.3-11.399-21.6-29-30.699-44.7-2.2-3.8-2.801-8-3.2-12.399-1.398-15.101-2.3-30.101-6.8-44.898-3.301-10.899-2-23.102-.1-34.602 1.199-7.3 1.6-14.398-.5-21.601-3-10.699-4-21.5-1-32.399.799-2.8.397-6 .397-8.898 0-21-.397-42 .2-62.899.3-11.899-2.2-23-5.2-34.3-3.698-13.801-7.1-27.602-11.3-41.2-3-10-3.8-20.101-3.8-30.5.1-17.601 1.199-35.2-1.9-52.7-.699-3.898-1.398-7.8-2.199-11.699V670c1-.5 1.601-1.399 1.899-2.399.7-1.699 1.3-4.601 3.7-1.8 1.398 1.601 1.699 4.3 2.398 6.5 8.102 26 13.301 52.8 18.102 79.601 4.1 22.899 6.8 46 9.398 69 1.899 16.5 3.5 33.102 4.102 49.602 1.199 31.199 3.8 62.5 2.3 93.699-1.399 28.601 5.399 55.301 15.899 81.5 7.699 19.199 17.301 37.398 25.5 56.398 1.301 3.102 2.301 6.2 3.199 9.399 2.199 8.101.102 14.399-6.898 18.899-9.2 5.899-18.602 11.601-27.7 17.801-9.601 6.5-16.101 15.199-15.5 27.301.606 5.399 2.706 10.8 4.006 16.3zm-906.5-237c1.102 2 1.8 4.3 2.7 6.5a8399.8 8399.8 0 0 0 17.6 45.199c1-2 4.051 7.483 4.451 6.584 7.398-16.801 24.15-42.384 21.449-35.584 1.9 2.9 3.7 1.7 5.801.101 9-6.698 19.102-8.601 30.102-7.898 4.398.301 8.3 1.5 10.198 5.101 5.302 10.101 14.399 10.399 23.302 8.601 18.398-3.699 36.8-2 54 3.101 15 4.399 28.8 5.102 43.601 1.301 12.1-3.101 24.899-3.5 36.199-9.899 3.398-1.898 7.6-1.8 11.6-2.3 10-1.301 18.201 3 26.301 7.699 4.699 2.699 8.302 1.899 11-2.301 5.199-8.3 10.199-16.699 16.9-24.3-18.7 5.199-37.5 5.398-56.4 5.199-9.698-.101-19.301-.301-29 0-11.398.399-22.398-1.601-33.198-5-14.302-4.399-28.602-8.601-43.9-7.199-8.399.8-16.399-1.301-24.1-4.801-4.5-2-9.302-3.801-14.5-3.101-10.102 1.399-19-1.899-27.4-7-8.699-5.3-17.699-6-27.699-3.8-5.6 1.3-11.199 3.6-17.6 2.199-8.701-1.899-13.4-8.199-18.201-14.5-7.898-10.199-10.398-11.199-22.699-7-7.407 14.397-8.407 28.697-.507 43.098zm416.163-270.342c7.602 9.2 12.095 14.882 23.994 12.479 28.899-5.899 67.842-11.14 97.043-6.64 45.899 7 91.399 17 137.6 22.5 17.5 2.101 35 3.2 52.4-2.601 17.699-6 37.627-12.906 54.527-20.906 12.5-5.899 15.771-15.693 16.973-28.993v-17.3c-4.301 3.199-5.601 6.6-7.601 9.6-6.399 9.7-14.802 16.7-26.302 19.7-7.698 2-15.398 4.2-22.8 7-9.5 3.5-19.101 5.5-29.2 4.7-8-.602-15.898.3-23.601 2.8-13.699 4.5-27.3 4.3-41.1.101-13.302-4-27-4.699-40.199-.601-8.701 2.7-16.301 1.2-24-2.601-6.201-3.199-12.603-5.801-19.4-7.801-17.301-5.101-34.898-3.5-52.5-3.898-7.1-.2-14.2.3-20.5 3-7.2 3.1-13.398 2-19.898-1.301-9-4.5-18.399-4.899-28.102-1.601-8.7 3-17.5 3.601-26.2-.602-2.101-1-8.933-.9-10.23 1.199 1.5 4.906 5.897 7.965 9.096 11.766zM1154 530.2c3.699 2.601 8.899 2.101 11.8 6.601 3.3 5 8.8 7 14.399 8.3 17.101 3.7 34.2 7.899 52 7.102 5.101-.199 9.7-2.102 14.7-2.199 16.601-.301 33.101.1 49.698-1.5 13.5-1.301 26.602-2.801 40.602-7.9-2.602-.3-3.801-.398-5.102-.6-7.398-1-13.698-2.9-17.101-11-2.699-6.301-9.6-8.801-16.1-10.801-3.5-1.102-7-2-10.5-2.899-5.4-1.399-9.9-4.101-12.4-9.2-2.699-5.6-8.1-7.5-13.199-7.6-8.301-.301-16.5-2.4-24.7-2.2-11.8.3-22.198-3.3-32.398-8.3-18.299 12.696-35.5 26.797-51.699 42.196zm184.138 115.747c-.601 24.399 15.077 53.67 34.577 67.371 5.302 3.699 10.385-4.618 16.785-6.917 7.5-2.602 15.399-4.301 23.1-6.301 1.802-.5 4.199-.102 4.802-3.602-8.4-7.398-15.4-16.699-21.4-26.6-4.8 3.199-9.199 1.898-13.8-.801-16.801-10.101-24.801-25.699-28.2-44.199-.5-2.5-3.379-8.059-6.08-9.759-6.303 8.904-9.484 20.008-9.784 30.808zm457.87 38.348c20.801 3.5 42.592-3.994 55.894-18.295-2-2.899-4.102-1.1-6-.1-12 6.398-27.802 8.1-41.4 6.6-2.402 3.2-4.793 6.948-8.494 11.795zM1118.3 1195.301c12.5 7.5 26.602 8.602 40.3 7.899 9.2-.5 18.603-1.8 27.7-1.199 19.399 1.3 37.5-3.2 55.5-9.301 6.102-2 12.102-3.199 18.5-3 8.899.2 17.7.301 26.5-3.1 12.3-4.802 24.7-3.2 36.8 2.1 5.4 2.4 8.4 5.801 8.302 12.2-.101 6.6-.9 13.198 1.1 19.8 3 10 7.4 12.7 17.4 9.801 10.399-3 19.301-8.898 28.1-14.801 5.101-3.5 10.201-8 11.101-14.8 1.802-14.302-1.5-28.4-7.5-40.602-6.3-12.698-23.198-22.8-41.898-15.601-4.602 1.801-9.3 3.601-13.699 5.801-9.301 4.699-18.4 6.3-28.5 1.699-9.301-4.3-18.801-3.1-27.9 1.5-8 4-16.1 8-24.1 12.101-16.199 8.302-33.699 11.2-51.4 14.302-12.1 2.1-24.5.398-36.5 3.8-5.698 1.601-11.8 2.2-17.397 4.101-8.301 2.8-17 1-26.103 2.699.794 3 2.394 3.8 3.694 4.601z"/><path id="l" fill="none" stroke="#000" stroke-linecap="round" stroke-linejoin="round" stroke-miterlimit="10" stroke-width="6" d="M1018.814 1019.646c.8-4 .8-7.399-.101-10.199-18-39.301-27.5-63.7-28.5-73-1-13.399 7.2-33.399 24.399-60 14.801-19.7 26.301-37.301 34.5-53 16.699-44 28.801-101.801 36.5-173.5.5-27.7 6.301-49 17.199-63.899 34.5-48.101 82.399-92.399 143.899-132.7 39.399-21.3 103.199-28.3 191.5-20.8m107.104 95.297c-24.7-37.801-60.399-69.601-107.102-95.301m366.402 260.702c26.7 34 43 76.2 48.5 126.5l6.2 79.7c-11.5 34.3-18.5 63.5-21 87.699-6 84.5-29 146.5-69 185.801-14.899 13.699-20 23.5-15.5 29.601l35 50c15.398 25.3 15.5 41.5.5 48.5-23.102 10.601-47.7 17.199-74 20 42.699 32.5 78 45.399 106 38.5 20.699-8.399 32.898-34.5 36.5-78.5-1.2-7.899 12.101-17.899 40-30.101 19.898-12.301 24.101-29.2 12.5-50.399-15.102-24.801-12-42.801 9.5-54.101 31.699-13.801 39.699-31.301 24-52.5-23.7-49.801-36.102-89.7-37-119.5 4.199-75-5.102-169.3-28-283-15.5-59.7-40.7-109.101-75.7-148.399-48.898-50.101-96.898-85.5-144.3-106.301-68-36.8-141.5-38.2-220.602-4.199m-419.398 587.099c-1.899 8.301-7.399 19-16.601 32.301-16.899 27.199-24.101 49.5-21.399 67 2.699 17.3 24.699 37.3 66 59.601 41.199 22.3 59.699 44.8 55.3 67.399-3.5 27.8 8.899 49.399 37.1 65.101 28.301 15.699 57.601 25 87.9 28h22.602m-230.902-319.402c14.199-28.5 24.8-53.399 31.8-74.699m316.601-358.102c-41.7 43.899-41.7 85.3 0 124.101 2.199 1.199 4.199 2.8 5.898 4.6m-121.398 624.5c47.699 25.1 115.3 40.899 203 47.5 24.398-.5 41.898-19.101 52.6-55.5-42.8 14.6-73.399 17.1-92.1 7.5-27.301-23.601-39.301-52.801-36-87.601 5.199-15.101 13.199-27.399 24-36.899 8.6-9.601 12-24.301 10-44.4-10.102-22.899-20.801-41.5-32-55.699-10.5-21.101-11.801-43.101-4-66 16.699-31 24.398-54.2 23-69.5-.801-23.399-12.5-48.5-35-75.5-22.5-26.899-23.801-50-4-69.5 26.3-24.699 36.199-45.399 29.5-62l-10.602-42.699c-1.398-5.801-3.699-10.5-7-14.2m56.102-17.103c-27.5 2.399-46.301 8.1-56.102 17.1m-196.499 503.501c8.1 54.899 32.602 94.699 73.5 119.399.301.2.602.399 1 .601m.601 1l-.602-1m-1.398 0c.699.399 1.398.699 2 1m-2-1h1.398m178.102-640.601l52-9.5c37.699-4 91.6 2.3 161.6 19 43.5 12.2 88.101 6.3 133.5-17.5l16.5-7m-390.6-65.5c-14 29.7-5 56.5 27 80.5m363.599-15c15.101-12.4 16.101-48 3-107.101m8.8 116.902c20.2 1.7 39.7-9.199 58.2-32.3m-58.2 32.3c-3.3-3.199-7.199-6.601-11.8-9.8"/></g></switch></svg>