<svg xmlns="http://www.w3.org/2000/svg" id="hair" viewBox="0 0 3000 3000"><switch><g><path id="cl1" fill="#614628" d="M1918.15 907.146c13.399-67.7 13.5-123.601.5-167.601-15-69.601-45.601-137.7-92-204.601-54.5-66.899-111.301-102.899-170.101-108-50.399-3.199-86.101 4.399-107 23 34.601 23.5 55.198 50 62 79.5-6.802-29.5-27.399-56-62-79.5-109.2-30.699-211.601-25.399-307.101 16-72.801 41-130.899 103-174 186.101-36 68.899-50.601 130.8-43.801 185.5 6.9 54.8 5.602 108.601-3.699 161.5-13.8 67.399-62.101 87.5-145.101 60.601 16.101 38.399 41.601 63.8 76.5 76 49.9 17.399 86.2 14.8 108.9-7.601 3.199-2 9.6-7.899 19.199-17.601 9.601-9.801 15.399-13.699 17.5-11.801-12.8 15.9-29.899 33-51.5 51.5-34 24.2-66.601 42.7-98.101 55.601 39 19.801 78.301 34.5 118.101 43.899 69.2 5.7 118.5-9.8 148-46.399 5.801-5 12.801-2.399 21 8 22.801 16.301 43.301 26 61.5 28.899-11.3-21.6-16.3-38.899-15-52 1.2-5.1 4.5-6.899 10-5.5 31.5 8.301 68.399 6.9 110.5-4.5-58.8-19.5-97.699-56.3-116.5-110.5-20.699-72.6-19.199-132.5 4.5-179.899 24.2-48.2 80.5-131.7 169-250.7 15-19.6 21.7-24.6 20-15.1-66.699 91.199-112.5 159.399-137.5 204.601 79.601-64.5 119.101-94 118.5-88.5 3.301 4-31.899 35.7-105.5 95 81.899-23 151.399-51.3 208.5-85 32.898-21.3 57.299-48.3 73-81 8.898-14.3 15-16.8 18.601-7.5l11 28c11.8 28.101 45.899 59.399 102.6 94 30.301 20.2 51.7 38.399 64.2 54.7l.3-6.7c-2.199-96.601-23.8-166.399-65-209.5 41.2 43.101 62.801 112.899 65 209.5l-.3 6.7-10.301 211.398c-5.699 45.601-32.199 80.2-79.5 104 9.301 5.9 29.201 9.601 59.5 11 28.301-7.1 49.301-19.6 63.101-37.5-13.8 17.9-34.8 30.4-63.101 37.5.201 22.101 3.601 38.9 10 50.601 12.601 19.399 37.601 29.899 75 31.5 32.101.7 60.899-9.899 86.101-31.601l54.5-69.5-86 6.5c-25.601 1.101-39-3.5-40-14-7.997-49.097-2.596-125.398 16.003-228.997z"/><path id="sd1" fill="#523B22" d="M1075 1110.2c15.199-21.7 31.899-42.102 51.8-61.399-.2 17.899 2.3 34.8-2.101 51.3-4.602 17.5-12.8 33.399-23.199 48.2-6.301 8.899-12.601 17.899-20 25.899-17.199 18.398-38.801 29.898-61.601 39.601-6.7 2.899-13.601 5.199-20.5 7.601-2.399.801-4.399 1.5-4.5 4.5-10-2.899-18.802-8.301-28.2-12.5-6-2.699-11.699-6.199-19.8-8.301 61-22.898 110.8-58.699 151.899-107.101-3.701-3.101-5.5-.699-7.701.601-5.697 3.499-9.597 9.299-16.097 11.599zm-49.801-252.399c3.199 17 1.801 34.3 3.199 51.5 1.602 19.399-1.199 39-3.101 58.399-1.601 16.2-4.801 32-9.899 47.5-3.898 11.8-10.499 22.101-16.801 32.5 1.302-.2 2.7-.2 3.899-.7 17.5-7.699 33.2-18.3 48.101-30 10.7-8.399 18.5-19.6 19.899-33.5.899-9.199 2.301-18.399 2.5-27.699.2-11.7-2.199-23-3.899-34.5-3.3-22-10.601-41.899-29.3-55.399-7.301-5.301-13.7-10.5-14.7-20-.097 3.998-.597 8.098.102 11.899zm816.467 290.867c-9.199 6.101-21.834 10.479-32.334 13.979-7.899 2.601-5.633 6.555-4.433 14.555 1.398 9.5 3.101 19 4.398 28.5.9 6.601 4.199 12.5 9.4 17.2 8.397 7.5 18.5 12 29.199 14.601 25.898 6.399 52 7 77.898 0 17.102-4.601 33.5-11.301 45.3-25.601-3.698-.2-7.198.398-10.8.8-10.2 1-20.3 3.101-30.601 3.101-5.399 0-10.3-2.601-15.699-2.101-7.601.601-15.2-.5-22.7-1.8-16.199-2.899-29-11.102-38.898-24-3.699-4.802-5.4-10.302-5.699-16.7-.4-8.1 2.933-20.033 2.133-28.033-2.998.298-4.964 4.098-7.164 5.499zM1654.4 428.1c-18.3-.4-36.6-1.2-54.6 2.3-14.2 2.698-28.101 7-41.601 12.398.601 1.102-10.473 6.478-9.973 6.775 27 19 43.702 28.771 55.901 58.87 1.601 3.8 7.421 20.999 7.421 20.999 14.102 7.8 28.249 22.954 38.351 35.854.398-1.899.8-2.601.601-3.101-8-25.899-9.801-52.5-9.9-79.5 0-15.899 4.302-30.7 8.102-45.801 1.398-5.5 4.699-7.601 10.101-7-1.203-1.294-2.703-1.794-4.403-1.794zm-293.5 401.8c20.3-6.2 40.3-13.301 60.3-20.301 47.399-16.399 93.5-35.899 137.301-60.5 28.301-15.899 54.551-44.351 70.25-72.351-.899.5-34.351 27.949-48.351 37.449-22.601 15.2-45.801 29.101-71 39.7-21.399 9-42.899 17.5-65.399 23.398-4.601 1.199-9.301.699-13.899.5-4.199-.199-4.699-2.898-3.398-6.301C1420 780.25 1358.6 830.5 1360.9 829.9zM1717 744c30.1 21.801 61.199 42.2 90.6 65 5.102 4 11.818 10.777 17.42 13.777 6.034 5.898 6.63 11.174 6.431 9.072-2.301-20.699-.615-54.009-4.315-74.608-2.601-14.3-6.083-32.392-11.384-45.991-4 2.6-12.75-2.75-15.25-4.353-7.8-4.698-15.399-10-24.1-12.198-1.802 1.898-1.699 3.601-1.699 5.198.699 14-.603 27.7-4 41.302a432.177 432.177 0 0 0-3.9 16.398c-1.6 7.3-1.699 7.602-7.699 3.8-14.301-8.897-28.301-18.3-42.801-26.8-8.5-4.898-15.699-12.3-25.699-14.5C1697.9 729.7 1707.3 737 1717 744zm-426.7 437.301c21.899 4 44 5.199 66.2 4.399 2.3-.1 4.699.101 6.5-1.8-6.301 0-12.7-.2-19 0-4.9.198-8.601-1.302-12.7-4.2-13.898-9.699-26.7-20.6-39.601-31.699-20.899-18-41.899-35.801-61.199-55.5-1.601-1.7-3.301-3.301-5-4.898-1.601-1.4-3.5-2.302-5.301-.7-1.5 1.3-.899 3-.399 4.601 2.7 9.3 6.3 18.199 10.8 26.699 13.603 25.5 29.5 49.601 48.302 71.601 1.797-9.304 2.898-10.104 11.398-8.503zm294.501-701.23c-13.699-16.7-36.701-31.973-58.501-37.071-10.3-2.399-20.8-4.1-31.3-5.5-28-3.899-56-6.3-84.2-5.399 2.7 3 6.2 1.602 9.399 1.899 3.301.301 6.601-.1 9.898.7 27.2 6.601 53.2 16.3 78.5 28.2 32.5 15.3 73.151 46.745 102.951 66.545-4.497-14.9-17.048-37.674-26.747-49.374zM1395.8 738.4c-18.7 26.3-56.8 86.198-54.8 85.698.6-.1 3.1-1.6 3.699-2.3 27.301-20.5 114.301-89.399 116.898-86.601 2.802 3.101-5.698 11.301-7.3 12.898-4.899 4.899-11.7 7.7-15.7 13.602 11.102-4.102 19.899-11.699 28.399-19.399 12.9-11.5 22.801-25.899 35.5-37.601.601-.602 1.5-1.602-.5-2.602-20.699 10.399-41.8 20.899-62.8 31.5-2 1-3.602 2.801-5.602 4.102-10.1 6.801-19.698 14.601-32.1 17.398-5.101 1.102-6.4-.199-6.9-5.3-.5-5.399 3.9-9.101 4-14.2-.794 1.005-1.994 1.805-2.794 2.805zm345.5 412.3c20.5 9.398 42.419 15.516 62.919 11.516 18.398-3.601 31.42-9.68 45.619-21.277 4.301-3.5 10.962-15.893 17.162-15.793-.301-1.3-3.601-6.345-3.101-7.146 3.898-6.5 2.101-13.8 3.5-21.101-14.899 17.5-35.899 24.399-55.102 34.301-19.5 10.101-40.1 15.101-62.5 18.801 1.5-2.4 2.199-3.5 2.9-4.601-4.097.401-7.597 1.8-11.397 5.3zm-511.9 55.2c15.198 13.3 33.5 21.198 51.398 29.6 2.699 1.2 5.602 1.9 8.5 2.7 1.199.398 2.699 1 3.102-1 .3-1.399-.5-2.5-1.7-3.301-3.101 3.5-5.699.199-7.8-1.101-19-11.601-35.7-25.899-50.2-42.899-8.3-9.699-16.3-19.5-23.399-30.199 0 6.8-.898 13.101.801 19.699 1.801 7.301 1.899 15 2.699 22.5 7.099-5.098 12.099.001 16.599 4.001z"/><path id="hl1" fill="#825F35" d="M1074.8 637.9c1.602 10.199 3.602 11.699 14.102 12.1 7.1.301 13.898-.6 20.5-3.199 5.198-2 10.6-3.801 16.6-3.801 1.2 6.101 1.801 12.2 0 17.9-6.399 20.8 9.101 34.898 31.601 30.5 8.802-1.7 17.5-3.7 26.102-6.102 3.6-1 7.199-1.3 10.801-1.3 8.899.101 11.8 2.699 12.199 11.8.301 7 .301 14 0 21-.301 6.399 1.801 12.399 2.5 18.7.6 5.899 9.199 9.899 16.199 7.8 6-1.8 12-3.8 17.801-6.5 5.699-2.601 11.699-4.898 17.801-6.5 7.1-1.898 9.899 1.102 8.6 8.2-.6 3.601-.898 7.199-1.6 10.8-1.601 8.301 1.6 13.301 10.199 14.399 7.398.899 14.6.101 21.398-3.3 3.899-1.899 8-3.5 11.602-5.801 20.199-12.899 43.898-19.199 63-34.199 10.1-7.899 21.1-14.801 31-25.899.301 6.101-2.4 8.399-4.801 10.8-6.601 6.602-13.398 13-19.699 19.801-21.301 22.801-42.199 45.899-59 72.399-13 20.601-23.199 42.5-33.199 64.601-6.2 13.601-12 27.199-15.2 41.899-3.5-.301-3.898-2.7-4-4.2-1.601-18.101-4.7-36.199-.8-54.5.399-1.898.399-4 .199-6-.602-4.398-3.5-6.398-7.801-5.199-2.898.801-5.398 2.399-7.699 4.399-5.801 5.101-12.5 8.899-19.5 11.8-8.102 3.399-12.102 1-12.602-7.699-.3-6.301-.101-12.699-.101-19 0-15.5-6.6-28.301-16.699-39.399-5.5-6-8.398-5.7-15.7-1.601-3.8 2.101-6.198 6.199-10.698 7.101-1.302.3-2.601.399-4.399.7-.801-5.9-1.301-11.4.6-16.801 2-6-.397-10.601-4.698-14.101-4.699-3.7-9.601-1.601-13.9 1.199-6.698 4.301-12.6 9.801-20.1 12.899-5.601 2.301-6.4 2-6.4-4.199 0-6.602-.399-13.2 1.4-19.801 2-7.399-1.4-10.602-9.199-9.801-5.103.5-9.301 3.301-13.5 6.102-22.603 14.8-43.103 32.101-61.7 51.699-6.3 6.699-13.601 11.699-23.199 12.199-1.101-25.801 4.399-50.699 11-75.398 8.5-31.899 21.5-62 37.199-90.899 1.091-1.898 2.591-3.697 3.791-5.598zm854 198.401c.5-15.2-.2-30.399-2.2-45.5-2.1-15.7-3.698-31.5-7.8-46.899-2-.699-3.7-1.301-4 2-1.3 15.699-6.101 30.5-11.5 45.102-.7 2-.3 4.898-3.5 5.1-4.2-18.199-2.3-38.398-16.898-53.3-3 1.899-3.5 4.101-3.9 6.399-.399 2.301-.6 4.601-1.199 6.801-2.398 8.5-3.301 8.8-10.2 3.699-1.601-1.199-3.3-2.199-5-3.301-6.8-4.199-9-3.5-11.5 4.102-2.8 8.5-4.398 17.398-9 25.199-1.198 2.101-1.5 4.601-.601 6.801 2 4.8 1.601 9.898 1.302 14.8-1.101 19 2.698 37.8 2.101 56.7-.101 1.898-.399 4.5 2.198 4.8 2.2.3 3.102-2 4.102-3.8 3.7-6.7 7.5-13.301 11.101-20.102 2.899-5.5 7.5-9.301 12-13.301 3.3-3 5.8-2.101 7.602 2.301.898 2.102.6 4.801 1.801 6.699 2.199 3.7-.4 8.899 4.397 12.5 1.802-3.398 3.603-6.5 5.103-9.8 2-4.399 4.897-7.899 8.299-11.101 6.4-6 8.601-5.8 15.101 0 4.899 4.399 5.802 11.2 10.399 15.601 1.892-3.5 1.592-7.5 1.792-11.5z"/><path id="l" fill="none" stroke="#000" stroke-linecap="round" stroke-linejoin="round" stroke-miterlimit="10" stroke-width="6" d="M1865.65 1125.146c-13.801 17.899-34.801 30.399-63.101 37.5m30.302-326.401l.301-6.7c-2.199-96.6-23.801-166.399-65-209.5m64.699 216.2c-12.5-16.3-33.899-34.5-64.199-54.7-56.699-34.6-90.801-65.899-102.601-94l-11-28c-3.6-9.3-9.699-6.8-18.6 7.5-15.701 32.7-40.103 59.7-73 81-57.103 33.7-126.603 62-208.5 85 73.6-59.3 108.799-91 105.5-95 .6-5.5-38.9 24-118.5 88.5 25-45.199 70.799-113.399 137.5-204.6 1.699-9.5-5-4.5-20 15.1-88.5 119-144.801 202.5-169 250.7-23.701 47.399-25.201 107.3-4.5 179.899 18.799 54.2 57.699 91 116.5 110.5-42.102 11.399-79 12.801-110.5 4.5-5.5-1.399-8.801.399-10 5.5-1.301 13.101 3.699 30.399 15 52-18.201-2.899-38.701-12.601-61.5-28.899-8.201-10.399-15.201-13-21-8-29.5 36.601-78.801 52.101-148 46.399-39.801-9.399-79.102-24.101-118.102-43.899 31.5-12.899 64.102-31.399 98.102-55.601 21.6-18.5 38.699-35.601 51.5-51.5-2.102-1.899-7.9 2-17.5 11.801-9.602 9.699-16 15.6-19.201 17.6-22.699 22.4-59 25-108.899 7.601-34.898-12.199-60.398-37.601-76.5-76 83 26.899 131.301 6.801 145.102-60.601 9.299-52.899 10.6-106.699 3.699-161.5-6.801-54.699 7.801-116.6 43.801-185.5 43.1-83.1 101.199-145.1 174-186.1 95.5-41.4 197.899-46.7 307.1-16m252.998 712.701c-30.301-1.4-50.199-5.101-59.5-11 47.301-23.801 73.801-58.4 79.5-104l10.301-211.4m-283.301-386.301c34.601 23.5 55.199 50 62 79.5m-62-79.5c20.9-18.601 56.601-26.2 107-23 58.801 5.101 115.601 41.101 170.101 108 46.399 66.899 77 135 92 204.601 13 44 12.899 99.899-.5 167.6-18.601 103.601-24 179.9-16 229 1 10.5 14.399 15.101 40 14l86-6.5-54.5 69.5c-25.199 21.7-54 32.301-86.101 31.601-37.399-1.601-62.399-12.101-75-31.5-6.399-11.699-9.801-28.5-10-50.601"/></g></switch></svg>