<svg xmlns="http://www.w3.org/2000/svg" id="hair" viewBox="0 0 3000 3000"><switch><g><path id="cl1" fill="#AC7D45" d="M1779.265 490.065a996.488 996.488 0 0 0-20.601-15.5c-68.399-53.5-151.899-82.103-250.3-86-28.603-1.8-54.5-1.8-77.5 0 48.5 7.6 88.898 26.7 121.3 57.5-32.399-30.8-72.8-49.9-121.3-57.5-138.399 11.6-242.802 65.601-313.302 161.9-70.6 96.199-114.5 214.5-131.6 354.698-27.801 81-64.801 134.302-111 160.102-5.601 4.601 2.6 12.699 24.5 24.5 21.8 9.899 47 15.699 75.3 17.5 8.102 2 13.8 7.5 17.3 16.5 23 36.101 58.7 50.101 107 42 19.4 16 50.5 27.101 93.5 33.199 39.802 6.699 68.2 1.899 85-14.199 44.5 8.899 78.302 3.199 101.302-16.801-40-1.699-67.302-34.699-82-99-7.7-44.801-7-91.101 2-138.5-20.2-59.199-14.102-131.3 18.3-216.3 44.9-105.601 126.4-180.2 244.4-223.899 84.301-19.099 156.901-19.2 217.701-.2zm208.5 339.5c-27 6.399-54.3 9.101-81.898 8-19.698-.801-39.602-3.5-59.602-8.101-2.101-.8-4.101-1.5-6.198-2.2-40.102-14.699-77.802-40.399-113.199-77.1-9.603-6.7-13.201-5-10.701 4.898 41.002 54.602 59.7 82.199 56.102 82.602-75.102.6-136.198-9.4-183.602-30-49.1-20.7-80.5-46.102-94-76-4.398-13.5-8.898-17.302-13.398-11.7-50.698 101.5-82.198 156.5-94.6 165-22.9 20.8-52.2 36-87.801 45.5 30-103 72.2-183.5 126.301-241.3 88.3-72.9 179.5-113.102 273.5-120.602 95.5-10.101 164 18.399 205.603 85.5 10.3 20.899 18.6 58.399 24.698 112.3 5.593 22.003 25.295 43.105 58.795 63.203zm-81.901 8c10 23.399 10.398 57.699 1.102 103-18.102 87.699-27.301 144.699-27.698 171.199-.5 15.301 13.698 20.5 42.5 15.5-17.103 15.801-24.2 25.801-21.4 30.101 3.2 5.102 16.4 2.399 39.4-8.101-2.9 19-10.4 32.5-22.5 40.5-35.7 22.9-71.7 28.601-108 17-31.302-11.6-35.5-43.6-12.7-95.899 9.301-23.3 20.2-58.398 32.7-105.398 18.6-70.302 22.3-129.801 10.8-178.2 2.102.7 4.102 1.399 6.2 2.2 19.997 4.598 39.896 7.299 59.596 8.098z"/><path id="sd1" fill="#896338" d="M1568.679 640.834c-10.021 3.008-18.058 9.712-26.866 14.875-13.153 7.712-25.688 16.489-38.396 24.942-9.75 6.483-9.681 7.727-1.482 16.431 11.484 12.2 24.857 22.094 39.1 30.579 19.973 11.904 39.024 25.201 58.807 37.387 16.473 10.146 33.945 18.112 51.604 25.854 20.445 8.963 41.73 15.316 63.269 20.8 13.752 3.502 27.813 5.813 41.756 8.529.688.134 1.61-.941 2.426-1.454 5.482 5.33 9.09 11.994 13.277 17.776-.771 2.223-2.187 2.213-3.472 2.229-55.304.624-109.665-5.572-162.136-23.812-31.948-11.105-62.079-25.916-87.957-48.235-13.886-11.975-25.112-25.892-29.116-44.265-1.218-5.586-4.314-5.919-8.626-5.449 1.42-6.344 8.377-11.313 4.529-19.291-20.591 15.423-39.239 32.896-56.441 51.771-21.962 24.098-42.848 49.188-62.332 75.33-17.721 23.773-34.287 48.344-42.842 77.345-1.833 6.212-13.209 16.901-21.549 17.013 1.521-26.521 18.449-52.591 25.891-72.845 12.652-34.441 29.971-60.763 49.578-91.837 22.299-35.344 48.317-68.401 82.51-92.438 54.801-38.521 107.973-66.39 172.957-82.327 32.078-7.865 67.207-14.633 100.342-13.11 36.365 1.667 68.852 1.851 100.281 21.318 3.098 1.918 39.916 25.199 30.547 23.389-10.59-.797-22-4.74-24.666-5.333-49.666-4.333-114.803-5.346-174.207 5.099-31.268 5.495-62.116 12.02-90.073 28.005-2.107 1.194-4.515 1.007-6.713 1.724zm7.784-160.186c12.268-2.266 24.457-4.935 36.676-7.447-4.149-12.29 3.044-20.859 9.59-29.748 5.104-6.93 3.837-10.299-4.229-13.145-7.188-2.536-14.979-1.112-22.529-3.204 8.266-8.628 7.757-10.6-3.09-13.75-2.229-.648-4.492-1.188-6.729-1.82-7.063-2.003-8.61-5.464-2.942-10.892-.562-.352-1.082-.907-1.688-1.021-29.783-5.479-59.819-8.834-90.058-10.343-7.5-.375-78.11 1.901-96.662 4.823-14.757 2.324-29.563 4.468-44.276 7.063-11.388 2.011-22.858 3.875-33.875 7.633 1.533.59 3.308.862 4.563 1.817 6.41 4.878 6.451 6.405.578 12.321-2.336 2.354-4.965 4.368-7.535 6.467-8.16 6.664-15.604 14.115-21.895 23.211 20.68-4.757 41.172-9.663 61.91-12.936 20.959-3.308 41.861-9.231 64.387-5.859-2.317 5.771-6.174 8.668-10.303 11.356-13.075 8.516-26.265 16.866-39.131 25.688-4.641 3.183-10.063 5.783-12.665 11.741 30.543-10.264 58.618-27.122 90.935-32.627-12.33 12.317-27.171 21.563-39.496 33.901 2.104 1.332 3.578.37 5.17-.015 7.078-1.706 14.149-4.459 21.293-4.688 25.224-.803 50.513.687 75.688-2.189 6.375-.729 12.308 2.652 18.745 1.99 10.999-1.131 21.702 2.879 32.724 2.199 1.058-.063 2.197 1.233 3.3 1.899 4.118.534 7.667-1.71 11.544-2.425zm264.131 348.896c1.229 17.525 7.229 49.14 6.406 65.456-.502 9.954-2.142 21.872-2.646 31.825-.812 15.947-3.87 32.938-6.354 48.675-7.345 46.521-23.343 86.214-41.347 129.679-6.499 15.689-12.179 31.665-15.169 48.452-3.104 17.42-.266 32.854 13.766 45.362 11.441 10.202 25.214 12.408 39.507 13.729-1.454-3.031-6.046-.582-7.593-4.795 10.398-11.161 14.543-26.417 23.938-38.816-10.043-5.273-21.908-4.842-32.09-12.383 11.731-3.854 23.344-2.426 34.249-8.184-4.609-4.661-8.328-8.91-12.551-12.577-7.228-6.274-11.979-14.125-15.783-22.713-2.163-4.891-4.192-10.124-3.762-15.281.802-9.512 2.472-18.997 4.427-28.357 5.912-28.296 16.446-55.188 26.145-82.272 7.132-19.922 16.371-38.916 17.71-60.701.928-15.09 5.438-29.901 5.327-45.208-.034-4.904-.53-46.548-.69-47.231-.48-2.058-20.183-2.976-33.49-4.66zm-117.914-81.183c2.777 2.366 5.273 5.063 7.943 7.558 22.862 21.363 46.866 41.308 73.824 57.345 13.088 7.785 26.311 15.548 42.04 17.193 9.229.968 18.364 2.799 27.595 3.738 15.834 1.612 31.576 5.133 47.545 4.195 15.211-.895 30.373-2.832 45.516-4.673 5.962-.726 12.184-.844 18.597-4.113-7.495-4.503-14.267-8.57-21.036-12.638-1.672 2.15-4.074 2.041-6.392 1.938-15.907-.704-31.769.518-47.769-1.636-30.945-4.157-60.209-13.092-88.204-26.589-12.31-5.935-23.093-14.236-34.339-21.901-18.494-12.604-34.733-27.726-51.031-42.814-11.955-11.071-21.734-24.164-31.957-36.803-2.15-2.657-3.896-5.119-8.029-4.414-.342 6.688-.412 12.859 1.584 19.065 3.142 9.789 21.597 42.408 24.113 44.549zm-658.637 291.663c-2.146 10.851-1.338 22.002-3.261 32.881.104 11.21 4.188 21.415 8.06 31.662 9.671 25.604 27.229 46.208 43.166 67.828.943 1.277 2.514 2.153 3.908 3.029 25.358 15.908 53.28 23.452 82.926 25.353-22.351-17.384-42.229-37.435-59.938-59.334-23.369-28.896-43.375-60.174-60.427-93.279-3.021-5.859-6.387-18.591-9.977-25.161-4.047 7.393-3.763 13.507-4.457 17.021zm101.777-27.323c4.696 26.715 14.11 51.888 24.573 76.731 14.324 34.018 35.938 61.984 67.703 81.541 9.677 5.957 20.216 10.047 30.473 14.79 5.373 2.485 10.447 4.018 16.24 3.229-5.822-8.521-13.359-15.687-20.406-22.987-15.283-15.845-28.282-33.395-41.321-50.922-24.125-32.431-45.082-67.153-70.985-98.315-3.644-4.385-7.441-10.691-6.277-4.067zm-229.533 90.25c13.361 2.681 26.898 4.094 40.42 5.554 4.547.489 7.104 2.465 9.118 6.438 2.069 4.09 3.669 8.549 7.057 11.89.112-3.982-.283-8.061.418-11.938 4.582-25.354 9.438-50.65 15.1-75.797 2.538-11.271 4.136-22.758 6.157-34.146a141.936 141.936 0 0 0-15.652 22.1c-14.324 24.91-33.031 46.338-52.415 67.297-4.396 4.754-9.114 7.53-15.659 6.574 1.476 1.599 3.497 1.635 5.456 2.028z"/><path id="hl1" fill="#C89151" d="M1056.58 650.549c2.316 1.64 2.287 3.67 1.367 6.149-10.291 27.768-16.201 56.618-20.876 85.747-.991 6.183-.973 12.522-1.573 18.775-1.803 18.73-4.393 37.595-.491 56.425.919 4.442 2.962 7.825 7.299 10.021 21.089 10.677 42.319 21.621 66.011 24.366 18.693 2.166 37.727 2.512 56.387-2.741 26.272-7.396 51.521-17.535 76.813-27.604.479-.188 1.186.197 1.938.345-27.75 29.902-63.854 43.95-101.774 54.873-16.302 4.695-33.056 6.648-49.638 9.646-3.871.7-8.203.999-11.91-.021-6.924-1.899-13.842-1.616-20.801-1.623-17.607-.018-35.096-1.474-52.313-5.118-5.327-1.129-7.299.531-8.279 5.438-.907 4.562-2.056 8.998-1.929 13.744.287 10.77-2.512 20.884-6.288 30.953-9.271 24.722-21.383 48.034-35.558 70.146-9.991 15.583-20.604 30.821-32.813 44.97-9.162 10.615-19.216 20.255-28.819 30.377-2.518 2.649-4.959 5.486-9.008 5.793-5.509-2.104-8.773-6.896-12.641-9.767-.609-2.62.682-3.339 1.718-3.991 31.79-19.975 54.946-48.135 74.563-79.441 15.987-25.518 28.264-52.79 36.455-81.859 3.364-11.944 4.498-24.204 6.012-36.415 5.09-41.049 13.111-81.57 24.764-121.192 9.584-32.596 23.615-63.589 39.237-93.791 1.729-.839 1.424-2.743 2.157-4.104l-.01-.101zm120.238-163.659c1.724 2.465 3.828 1.789 6.197 1.021 6.944-2.246 13.944-4.319 20.942-6.396 2.653-.785 5.457-1.032 7.371 1.386 2.401 3.037-.496 4.796-2.13 6.714-11.438 13.43-21.129 28.105-30.7 42.864-1.443 2.229-4.131 4.463-2.215 7.781 1.031-.146 1.769-.063 2.313-.35 25.282-13.281 52.448-20.45 80.505-24.574 4.895-.721 9.994-.555 14.948-.161 3.278.261 4.323 1.94 2.215 5.479-3.878 6.508-10.604 9.981-15.299 15.44-11.688 13.595-22.328 28.076-31.196 43.643-5.129 9.002-11.816 17.505-13.475 28.3 1.944.354 2.947-.563 3.861-1.496 21.072-21.521 47.449-35.032 74.008-47.941 12.854-6.247 25.75-12.452 38.612-18.705 3.513-1.708 7.521-3.23 9.271-8.006-11.911 1.309-23.02.941-36.494 3.627 6.904-11.771 9.424-22.25 10.48-33.127 1.848-18.971 3.283-23.054-19.08-18.369-12.642 2.646-25.035 6.465-37.563 9.669-5.063 1.295-10.69 3.708-14.653-1.593-4.088-5.468-.49-10.746 1.896-15.816.418-.89 1.263-1.577 1.692-2.462 3.354-6.868 7.438-13.399 9.503-20.86 2.217-8.019.497-11.853-7.128-14.969-1.79-.729-3.881-.726-5.834-1.059-24.82 13.739-47.585 30.28-68.047 49.96zm392.702 159.546c7.521 5.412 14.977 10.916 23.737 14.396 28.073 11.145 57.674 13.904 87.358 16 21.09 1.487 41.553-2.502 61.604-8.715 6.191-1.919 11.719-2.124 16.227 3.424 1.717 2.111 4.203 3.178 6.51 4.512 9.172 5.306 19.338 5.914 29.547 7.452 20.518 3.089 40.023.519 59.508-5.902 7.063-2.326 12.277-7.64 19.115-10.243l47.723 71.7v-12.313c.365-4.756-1.361-9.197-2.221-13.748-4.063-21.577-8.469-43-23.433-60.47-4.938-5.767-8.563-12.648-14.554-17.574-.965-.215-2.23-.111-2.85-.694-4.156-3.93-7.813-3.441-12.221.05-3.83 3.038-8.188 5.377-13.01 7.104-12.724 4.557-25.743 5.313-39.094 5.758-16.446.545-30.508-4.686-43.782-13.642-4.106-2.771-7.58-6.399-12.272-8.436-3.357-1.457-5.648-1.744-8.896.84-12.437 9.896-25.022 19.698-39.104 27.19-19.279 10.262-38.156 19.563-61.91 16.368-25.42-3.416-49.088-10.317-71.631-22.034-2.109-1.099-4.104-2.189-5.072-4.514-3.043.216-3.602 1.821-1.279 3.491zm314.455 391.783c5.166-30.501 14.945-59.922 21.967-90.001 6.843-29.309 6.502-58.659 1.166-88.054-1.636-8.995-2.079-8.916-11.896-9.581-2.438.872-5.426-.375-7.817 2.293 1.682 4.516 1.028 9.541 1.537 14.461 2.372 22.955 5.329 45.876 1.964 69-.667 4.586.258 9.259-.848 13.893-2.907 12.21-6.008 24.401-8.188 36.75-2.186 12.367-6.275 24.261-7.564 36.905-1.138 11.138-2.4 22.335-4.113 33.414-2.416 15.619-2.051 31.025 1.274 46.375.686 3.154 1.122 6.874 3.694 9.082 1.271 1.093 1.357-1.385 1.877-2.331-2.034-24.487 2.902-48.332 6.947-72.206z"/><path id="fl_1_" fill="#616410" d="M1287.475 868.024c-.001-4.662-.176-20.949-.064-21.379-5.479-35.617 11.422-84.875 20.492-106.348 13.088-43.198 35.965-79.095 63.878-114.318 22.595-28.514 48.81-53.588 78.525-74.866 43.753-31.33 85.271-55.251 137.601-66.267 37.051-7.799 84.537-7.902 122.096-5.515 22.181 1.412 40.182 5.051 61.668 11.335 19.604 5.732 36.476 22.133 49.984 36.676 14.258 15.351 29.326 26.666 42.268 43.188.604.773 10.637 17.277 11.137 18.138.074.104-72.057-47.85-170.326-43.487-53.26 5.354-105.187 16.927-156.1 33.015-63.869 20.182-115.237 58.438-157.537 109.917-41.271 50.229-68.498 107.669-88.988 168.754-.846 2.521-7.313 51.855-8.828 54.117-3.367 5.024-4.253-39.668-5.806-42.96z"/><path id="fl" fill="#50530E" d="M1308.705 830.171a646.295 646.295 0 0 1 39.627-84.688c13.523-24.186 30.137-45.939 47.838-67.093 30.521-36.473 67.021-65.157 109.729-85.958 21.521-10.48 67.209-24.222 67.209-24.222s60.559-20.209 110.614-23.295c19.02-3.2 38.173-4.447 57.459-4.014 14.608.33 28.983 2.399 43.352 4.889 60.134 13.877 84.134 36.545 90.521 39.636 15.526 17.959 25.972 47.907 28.071 61.693-8.057-6.61-23.693-29.866-31.461-36.118-26.031-20.947-55.191-33.354-87.713-39.909-17.082-3.442-36.547-4.488-53.604-4.475-24.477.023-50.666 2.519-74.771 7.711-45.053 9.711-88.977 26.222-130.223 46.813-32.781 16.367-69.952 39.903-98.358 63.191-90 116.646-107.027 179.729-109.334 182.332-4.41 18.771-15.332 39-17.732 60.158-3.461-8.422-5.169-24.76-6.795-33.489-1.468-12.999 11.536-52.614 15.571-63.162z"/><path id="l" fill="none" stroke="#000" stroke-linecap="round" stroke-linejoin="round" stroke-miterlimit="10" stroke-width="6" d="M1430.865 388.565c23-1.8 48.898-1.8 77.5 0 98.397 3.898 181.897 32.5 250.3 86 7.101 5.199 14 10.399 20.601 15.5m126.598 347.5c27.602 1.101 54.898-1.601 81.898-8-33.5-20.101-53.198-41.2-58.801-63.2-6.101-53.898-14.399-91.398-24.699-112.3m-64.199 173.201c2.103.7 4.103 1.398 6.2 2.2 20 4.601 39.9 7.3 59.602 8.101m-65.802-10.301c11.5 48.398 7.802 107.898-10.8 178.2-12.5 47-23.398 82.101-32.7 105.398-22.8 52.301-18.601 84.301 12.7 95.899 36.3 11.601 72.3 5.898 108-17 12.102-8 19.602-21.5 22.5-40.5-23 10.5-36.2 13.2-39.398 8.101-2.802-4.301 4.301-14.301 21.398-30.101-28.801 5-43-.199-42.5-15.5.4-26.5 9.602-83.5 27.699-171.199 9.301-45.301 8.899-79.601-1.101-103m-65.798-10.298c-40.101-14.699-77.8-40.399-113.197-77.102-9.603-6.698-13.2-5-10.7 4.9 41 54.6 59.699 82.199 56.101 82.6-75.101.602-136.198-9.398-183.601-30-49.101-20.698-80.5-46.1-94-76-4.399-13.5-8.899-17.3-13.399-11.698-50.698 101.5-82.198 156.5-94.601 165-22.899 20.8-52.199 36-87.8 45.5m605.399-276.401c-6.5-49.5-48.101-104.101-125-164m-227.101-44c-32.399-30.8-72.8-49.9-121.3-57.5m.001 0c-138.399 11.6-242.801 65.601-313.301 161.9-70.601 96.199-114.5 214.5-131.601 354.698-27.801 81-64.801 134.302-111 160.102-5.601 4.601 2.601 12.699 24.5 24.5 21.8 9.899 47 15.699 75.3 17.5 8.102 2 13.801 7.5 17.301 16.5 23 36.101 58.699 50.101 107 42 19.399 16 50.5 27.101 93.5 33.199 39.801 6.699 68.199 1.899 85-14.199 44.5 8.899 78.301 3.199 101.301-16.801-40-1.699-67.301-34.699-82-99-7.7-44.801-7-91.101 2-138.5m480.4-440.399c-60.8-19-133.397-18.899-217.698.199-118 43.7-199.5 118.301-244.4 223.9-32.399 85-38.5 157.1-18.3 216.3m605.398-276.399c-41.601-67.101-110.101-95.601-205.601-85.5-94 7.5-185.199 47.699-273.5 120.601-54.101 57.801-96.301 138.301-126.301 241.301"/></g></switch></svg>