<svg xmlns="http://www.w3.org/2000/svg" id="hair" viewBox="0 0 3000 3000"><switch><g><path id="cl1" fill="#AC7D45" d="M1846.011 798.973c6.399 13.801 16.2 18.5 29.5 14.2 13.2-4.301 15.8-18.899 8.102-43.7 8.102-20.199 10.602-48.898 7.5-86.101-49.902 45.001-65.002 83.601-45.102 115.601zm-680.601-289.1c50.898 53.7 120.601 92.5 209 116v37.801c-2.102 53.101-53.602 127.3-154.5 222.3-44.3 37.399-53 80.602-26 129.5 32.898 68.602 68.2 95.399 106 80.2 15.2-6 25.601-25.101 31-57.2 7.2 4.2 15.601 11.802 25.101 22.7 4.899 32.899.3 66.3-14.101 100.3-18.3 27-50.8 38.5-97.5 34.602-31.602 8.5-74.399-2.199-128-32.102-5.399-3.5-10.5-7.601-15.5-12.398-21.899-12.699-45.102-58.699-69.5-138.102 24.398 79.399 47.601 125.399 69.5 138.102-21.899-1.699-51.399-19.5-88.602-53.102-45.101-48.8-64.601-91-58.5-127 .2-25.698 15.2-72 45-139.3 16.899-61.899 31.899-127.7 44.899-197.301 13.004-69.8 53.504-111.4 121.703-125zm693.701 352.5c-32.5-.601-57.302-6.399-74.399-17.399-10-6.398-17.5-14.5-22.2-24.5-18.398-12-27.8-27-28.3-45-.4-18.101 7.399-52.5 23.3-103.101 9.5-42.8-1.699-62.8-33.5-60-26.3 4-48.8 11-67.5 21-25.8 2.801-43.3-.101-52.398-8.5a24.147 24.147 0 0 1-4.602-6c7.301-48 31.301-90.601 72-127.5-40.699 36.899-64.699 79.5-72 127.5 1.2 2.2 2.7 4.2 4.602 6l-81.602-27.5c-39-5.399-88.398 4.101-148.101 28.5-88.399-23.5-158.101-62.3-209-116-9.199-35.699 2.301-65.399 34.5-89 36.899-26.399 87.899-45.8 152.899-58.1 64.898-12.4 109.898-16.5 135-12.4 23.898 3.2 43.398 13.2 58.5 30 10.398 11.5 18.802 26.101 25.199 44-6.398-17.899-14.801-32.5-25.199-44l178.898 16c43.701 3.5 76 17 96.802 40.5 76.698 81.5 116.5 139.601 119.602 174.5 2.1 27.801-14.802 51.801-50.5 72-49.9 45-65 83.601-45.102 115.601 6.399 13.801 16.198 18.5 29.5 14.2 13.198-4.301 15.8-18.899 8.102-43.7 20.5 7.801 31.6 22.801 33.198 45 1.302 17-9.301 30.2-31.602 39.602-7.397 3.196-16.097 5.897-26.097 8.297zm105 150.7c15.3 52.898 5.8 102.699-28.5 149.398-11.399 16.7-26.104 28-44.399 33.802-18.101 1.1-37.601-2.2-58.4-10.302-4.397-3.5-5.6-8.198-3.5-14 3.9-19.1 2.4-41.698-4.198-67.898.102-8 .398-15.5.898-22.7 1.2-22.899 3.801-42.399 7.602-58.3l22-53.602c9.102 5.2 19.5 10.302 31 15.5 21 15.5 26 39.102 14.898 70.802-11.101 31.8-35.8 40.3-73.898 25.698 38.102 14.602 62.801 6.102 73.898-25.698 11.102-31.7 6.102-55.302-14.898-70.802-11.5-5.198-21.898-10.3-31-15.5-23.699-13.5-39.898-27.398-48.5-41.5-8.5-14-16-41.698-22.398-82.999 17.102 11 41.898 16.801 74.398 17.399 10-2.399 18.698-5.102 26.102-8.301 26.295 44.403 52.595 97.303 78.895 159.003z"/><path id="sd1" fill="#896338" d="M1673.25 489.75c2.386 2.298 7.229 9.195 11.021 9.326 13.584.472 26.825 3.477 40.086 6.284 8.898 1.885 16.875 5.976 24.704 10.284 12.813 7.055 24.604 15.669 35.589 25.285 16.142 14.133 24.685 32.688 28.816 53.239 2.011 9.986 3.778 20.063 4.52 30.362 1.261 17.592-5.576 32.229-13.72 46.945-12.071 21.814-27.657 41.293-40.608 62.512-9.123 14.943-15.374 31.104-17.42 48.302-1.616 13.588 3.519 26.119 12.631 36.568 3.089 3.541-9.542-5.533-16.409-15.279-10.287-14.603-10.189-31.312-7.753-48.094 3.17-21.823 10.601-42.577 16.595-63.686 3.367-11.856 6.252-23.792 7.82-36.042 1.043-8.143.458-17.59-1.872-25.262-3.5-11.513-11.696-15.539-22.75-16.75-8.073-.884-17.579 2.067-25.397 3.657-16.991 3.455-33.521 8.604-49.678 14.837-15.479 5.975-30.777 3.67-45.951-.615-6.459-1.822-12.34-6.262-12.474-12.879-.229-11.513 1.943-23.08 6.654-33.506 13.771-30.47 28.058-60.874 52.793-83.283 3.372-3.049 12.262-7.601 12.803-12.205zm-622.418 574.418c11.474 29.538 24.008 56.347 42.846 82.043 6.102 8.322 19.408 16.496 28.82 21.289 23.138 11.781 39.616 19.864 64.5 27.5 10.226 3.138 26.166 4.807 36.75 3.896 16.896-1.455 29.172-.41 46-2.896 12.838-1.896 26.726-2.174 39-6.5 19.196-6.765 32.821-17.946 36.854-38.656-4.258 2.717-9.009 4.313-13.795 5.687-27.233 7.803-55.336 9.839-83.367 12.273-16.327 1.418-32.437-2.727-48.743-2.079-1.274.052-2.564-.646-3.868-.873-14.406-2.534-26.591-10.348-39.314-16.768-21.805-11.002-41.981-24.431-58.206-42.938-13.105-14.955-25.999-30.125-37.228-46.605-6.496-9.532-21.36-30.91-27.914-40.402 2.161 10.818 13.702 34.823 17.665 45.029zm775.041 19.291c-2.756 9.502-.739 26.269.836 34.834 3.684 20.041 5.389 39.974 1.322 60.094-.962 4.757.823 7.411 5.176 9.226 9.83 4.096 19.877 7.91 30.427 8.807 10.063.854 20.434 2.654 30.382-1.381-1.885-5.709 3.509-7.271 6.138-10.085 14.687-15.708 28.649-31.833 35.653-52.708l-.063-1.395c1.698-10.072 3.237-20.178 5.16-30.209 1.174-6.125.918-12.088.557-18.854-41.161 29.777-91.492 8.884-89.961 8.378-6.738-2.748-18.381-4.971-25.627-6.707zM1174 520.834c-2.527-2.873-7.168-12.5-15.334-7.834-46 9.668-65.756 30.057-88.384 56.996-16.247 19.346-26.02 41.604-28.465 66.898 4.31-2.135 7.111-5.989 10.277-9.34 6.271-6.634 13.563-11.671 21.72-15.646 10.177-4.961 20.438-9.786 30.352-15.24 17.361-9.554 36.437-11.993 55.598-13.59 19.658-1.638 39.144.141 58.092 6.156 3.474 1.104 7.013 2.008 10.55 2.887 3.19.792 6.491 1.985 9.262-1.085-8.783-5.75-13.02-18.797-14.666-20.536 8.854-3.238 6.961-3.25 9.834-3.666-.674-.715-33.325-25.472-58.836-46zm723.529 474.734c-11.092-9.154-26.771-24.354-42.832-23.868-3.104 6.594-13.715 34.139-16.499 40.863-3.423 8.271-7.109 16.521-8.068 25.565-1.258 11.878-2.327 23.776-3.565 35.657-.271 2.588-2.063 6.891 1.049 7.686 8.688 2.222 18.376 6.093 27.321 6.727 13.626.968 34.232-5.476 39.496-17.866 6.715-15.81 10.879-27.801 11.669-56.034-2.922-9.182-6.833-17.295-8.571-18.73zm-947.523-19.41c-2.051 21.933 3.08 42.22 13.658 61.375 17.61 31.89 41.215 58.768 68.646 82.438 14.131 12.192 29.432 22.517 47.414 28.31.912-1.847 13.428 2.922 12.776 1.939-18.533-27.922-36.313-65.344-47.872-96.67-3.209-8.696-10.767-30.567-15.462-38.717-.03 12.65-3.346 39.258-3.313 51.91.013 4.581-.438 8.958-3.636 13.477-5.104-5.146-10.203-9.487-14.345-14.604-15.844-19.571-31.11-39.611-47.154-59.014-6.729-8.137-10.563-16.474-8.889-27.11.459-2.906-.086-5.971-.17-8.961-1.384 1.629-1.466 3.629-1.653 5.627zm945.744-103.835c-2.304-5.25-8.316-18.934-13.438-17.048-12.234 4.509-18.955 8.2-32.063 7.975-15.766-.272-31.192-3.995-46.054-9.076-2.963-1.016-15.19-8.202-19.214-7.461 2.44 11.498 6.719 41.865 10.604 52.452.758-4.818 3.48-2.551 5.729-1.521 25.752 11.817 53.144 15.901 81.121 17.164 3.31.148 6.553-.373 9.857-.975 5.844-1.063 17.649-4.052 23.703-3.878-4.762-12.796-14.792-25.189-20.245-37.632zm-702.418-444.655c-12.516 10.922-23.904 24.084-28.514 40.234-5.142 18.018-5.32 34.6 11.848 51.432 3.237 4.952 44.422 36.756 66.832 49.168-18.832-22-25.963-33.772-34.828-47.428-12.939-19.926-14.834-40.861-5.433-62.411 5.155-11.814 11.077-23.335 17.638-34.531 3.262-5.566 6.291-12.797 11.123-20.464-13.635 5.105-27.891 14.598-38.666 24zm406.148 195.645c1.896-23.534 5.267-37.962 15.087-55.697 6.928-12.515 17.063-31.933 24.434-44.116-4.302-.339-16.408 5.879-19.75 7.834-21.4 12.513-42.849 24.965-63.916 38.021-8.896 5.516-17.965 11.1-23.826 20.522-2.582 4.15-6.539 7.582-12.207 7.4 24.386 7.198 80.262 27.278 80.178 26.036zm242.032 125.081c-7.983 16.799.246 48.386 13.988 60.605 8.877 7.896 25.785 6.828 30.032-4.215 2.515-6.535 3.206-19.477.481-26.49-1.203-3.102-4.22-6.082-2.767-9.605 8.818-21.393 7.78-60.054 6.33-83.925-14.252 10.413-41.625 50.083-48.064 63.63z"/><path id="hl1" fill="#C89151" d="M1001.92 820.908c3.695.193 3.563 3.073 4.246 5.664 6.131 23.191 14.936 45.396 25.99 66.635 5.493 10.551 11.061 21.254 20.322 29.299 5.039 4.375 10.205 8.482 16.731 10.479 6.65 2.033 7.416 1.68 8.629-4.899 2.351-12.75 6.183-25.087 10.326-37.335.511-1.509 1.412-2.887 2.726-5.502 3.72 11.91 6.27 22.863 11.104 32.951a2341.547 2341.547 0 0 0 23.767 48.222c2.614 5.149 5.446 5.784 10.521 2.112 6.735-4.875 12.69-10.767 17.5-17.601 7.094-10.079 13.016-21.021 16.981-32.544 6.502-18.876 17.146-35.051 29.212-50.523 10.797-13.854 22.186-27.198 33.952-40.262 15.329-17.014 30.695-33.973 46.581-50.474 18.155-18.858 29.301-41.793 36.18-66.664 2.604-9.414 3.854-19.481 3.174-29.525-.186-2.729-.719-5.084-2.306-7.433-6.319-9.352-12.475-18.784-20.698-26.679-5.502-5.28-10.9-10.63-15.336-16.977-5-7.152-12.864-11.424-19.187-17.293-7.994-7.424-16.43-14.37-24.674-21.521-9.015-6.99-19.164-13.039-22.914-21.289-.5-5.5 10.252-7.805 13.85-6.24 9.476 4.227 20.314 11.886 29.347 16.845 35.373 19.426 76.217 33.829 115.078 45.149 5.063 1.476 1.521 13.326 1.388 18.664-.226 8.979.757 17-.745 28.055-4.854 22.502-6.406 24.938-9.354 33.436-13.226 38.147-38.989 68.131-67.167 96.775-33.155 33.709-65.284 68.396-97.135 103.344-13.328 14.625-19.465 30.209-21.19 50.488-1.363 15.995 3.143 32.268 8.989 46.877 8.183 20.438 20.031 38.55 31.986 56.994 13.894 21.434 29.471 33.949 55.1 39.427 3.078 1.945 7.279-.303 10.525-.109 2.771.166 3.85-1.865 5.078 1.049 1.434 3.405-2.945 12.209-5.225 14.254-7.172 6.438-15.394 10.537-25.215 10.578-27.013.115-52.187-6.196-74.248-22.334-31.985-23.396-58.813-51.069-72.543-89.348-1.009-2.813-2.564-5.415-3.927-8.085-.436-.854-.752-1.84-2.715-2.499-.231 8.968-.93 17.73.683 26.425 1.6 8.609.84 17.273 1.226 25.91.099 2.226.606 5.02-2.235 6.008-2.445.854-4.472-.713-6.301-2.2-3.938-3.205-6.652-7.423-9.396-11.596-14.459-21.971-28.055-44.539-44.713-64.987-3.088-3.79-5.67-9.99-10.809-9.367-5.621.685-5.582 7.681-6.927 12.198-5.565 18.7-15.328 36.394-13.979 56.825.171 2.589-.286 5.595-3.106 6.886-3.307 1.513-5.687-.807-7.965-2.714-3.347-2.8-5.954-6.257-8.431-9.829-14.834-21.409-27.44-44.09-38.557-67.618-1.55-3.282-3.187-6.587-2.456-10.427-.223-.607-.145-1.175.236-1.7 2.162-2.405-.016-5.78 1.843-8.255 2.921-16.757 9.188-32.462 15.622-48.046 10.866-26.31 23.202-52.031 30.561-79.674zm892.778-32.242c-1.259 7.13-2.104 13.341-4.944 18.991-8.832 17.563-27.519 21.519-42.396 8.794-2.505-2.143-4.755-4.688-6.709-7.349-15.83-21.573-16.704-47.563-2.298-70.188 12.824-20.134 29.774-36.646 47-52.887 1.196-1.128 2.539-2.243 4.021-2.911 19.271-8.695 32.692-23.737 43.605-41.122 8.354-13.31 10.822-27.791 5.063-43.006-1.883-4.979-3.532-10.049-5.601-14.947-9.368-22.211-21.981-42.563-36.026-62.057-24.851-34.494-52.639-66.197-87.414-91.183-18.364-13.193-38.217-22.859-60.928-25.917-10.88-1.465-21.683-3.515-32.563-4.961-30.35-4.038-60.729-7.85-91.35-9.237-5.318.085-10.643.218-15.961.235-2.711.011-5.268.164-7.443 2.145-6.631 6.023-13.396 11.899-19.951 18.002-1.451 1.351-4.137 2.392-2.965 5.633 4.006-.078 7.629-1.972 11.705-1.824 28.547 1.038 57.219-2.206 85.662 2.137 15.34 2.342 30.857 3.562 45.969 7.433 18.693 4.788 36.701 11.657 54.941 17.813 7.531 2.542 15.137 5.287 22.072 9.094 14.307 7.847 27.352 17.375 38.658 29.445 22.545 24.063 35.099 51.855 35.043 85.172-.013 6.428-1.957 12.41-2.197 18.735-.781 20.632-6.81 40.043-17.043 57.687-14.663 25.276-32.894 48.089-51.646 70.509-14.984 17.909-27.875 37.181-31.474 61.178-1.423 9.469-3.841 18.782-5.562 28.21-.597 3.267.014 6.487 1.313 9.73 4.907 12.261 13.563 22.11 24.315 28.356 27.748 16.119 57.313 20.146 87.899 7.573 12.99-5.339 21.889-14.343 26.422-27.965 2.19-6.587 1.187-13.192 2.201-19.723-2.696-4.516-6.004-8.408-11.418-11.595zm-453.327-437.067c-36.343 3.638-72.42 9.178-108 17.527-22.275 5.228-44.439 10.934-65.541 20.054-3.824 6.224-7.895 12.312-11.421 18.7-8.942 16.201-13 33.979-16.636 51.938-3.946 19.509-2.989 38.271 6.507 56.148.771 1.451 1.123 3.12 1.735 4.66 3.229 8.103 7.332 15.517 13.94 21.572 11.022 10.104 20.813 21.481 32.715 30.721 10.668 8.277 22.103 14.773 35.228 17.979 14.179 3.464 28.535 5.443 43.156 6.511 15.84 1.155 31.59 3.397 47.53 3.563 7.041.072 13.651-2.479 20.765-2.164 12.262.545 24.056-3.104 36.086-4.957-7.515-1.782-15.015-2.841-22.438-4.283-14.299-2.78-28.584-5.646-42.822-8.717-27.816-5.994-54.518-14.825-77.9-31.717-7.319-5.287-13.604-11.617-18.881-18.994-11.067-15.485-14.244-33.385-15.44-51.705-1.104-16.863 4.347-32.278 13.672-46.02 13.183-19.42 31.19-33.633 52.345-43.371 27.784-12.793 56.506-23.128 86.338-30.314 7.258-1.749 15.241-1.262 21.682-6.041-10.786-2.966-21.805-2.172-32.62-1.09zm494.373 779.251c-2.328 6.495-5.149 12.757-8.248 18.934-5.194 10.349-10.531 20.604-16.27 30.665-1.226 2.148-5.183 6.598 2.215 6.293 3.854-1.521 6.44-4.649 9.32-7.381 8.069-7.649 13.87-17.032 19.62-26.392 13.781-22.433 22.734-46.588 25.363-72.929 3.515-35.234-2.619-72.078-19.199-102.449-2.224 1.303-6.14 8.021-5.514 10.125 3.854 12.98 7.784 26.207 8.348 39.611 1.095 26.075 2.621 52.476-6.151 77.765-2.988 8.624-3.068 18.39-9.484 25.758z"/><path id="l" fill="none" stroke="#000" stroke-linecap="round" stroke-linejoin="round" stroke-miterlimit="10" stroke-width="6" d="M1883.611 769.473c20.5 7.801 31.601 22.801 33.198 45 1.302 17-9.302 30.2-31.601 39.602m-100.497-9.102c17.1 11 41.899 16.801 74.399 17.399 10-2.399 18.698-5.1 26.101-8.3m5.9-170.699c-49.899 45-65 83.601-45.104 115.601 6.4 13.801 16.201 18.5 29.5 14.2 13.201-4.301 15.802-18.899 8.104-43.7m-98.9 75.499c-10-6.398-17.5-14.5-22.199-24.5-18.398-12-27.801-27-28.301-45-.4-18.101 7.399-52.5 23.301-103.101 9.5-42.8-1.701-62.8-33.5-60-26.301 4-48.801 11-67.5 21-25.801 2.801-43.301-.1-52.398-8.5m180.597 220.101c6.399 41.301 13.899 69 22.399 83 8.601 14.102 24.8 28 48.5 41.5m28.001-200c8.101-20.199 10.601-48.898 7.5-86.101m0 .001c35.698-20.199 52.601-44.199 50.5-72-3.104-34.899-42.899-93-119.604-174.5-20.799-23.5-53.1-37-96.799-40.5l-178.899-16m281.302 701.1c38.101 14.602 62.8 6.102 73.896-25.698 11.104-31.7 6.104-55.302-14.896-70.802-11.5-5.198-21.899-10.3-31-15.5m0 0l-22 53.602c-3.802 15.898-6.399 35.398-7.604 58.301-.5 7.199-.799 14.699-.896 22.699 6.601 26.198 8.101 48.801 4.198 67.898-2.101 5.802-.898 10.5 3.5 14 20.802 8.102 40.302 11.399 58.399 10.302 18.3-5.802 33-17.102 44.398-33.802 34.301-46.698 43.801-96.5 28.5-149.398-26.302-61.699-52.602-114.602-78.898-159m-338.897-473.702c-15.1-16.8-34.6-26.8-58.5-30-25.1-4.1-70.1 0-135 12.4-65 12.3-116 31.7-152.897 58.1-32.201 23.601-43.701 53.301-34.5 89m406.097-85.5c-6.398-17.899-14.8-32.5-25.2-44m-380.901 129.5c-68.199 13.601-108.699 55.2-121.699 125-13 69.601-28 135.399-44.9 197.301-29.8 67.3-44.8 113.601-45 139.3-6.1 36 13.4 78.2 58.5 127 37.2 33.602 66.7 51.399 88.603 53.102m-69.504-138.103c24.398 79.399 47.601 125.399 69.5 138.102m570.601-660.202c-40.7 36.899-64.7 79.5-72 127.5 1.2 2.2 2.7 4.2 4.602 6m-.002 0l-81.604-27.5c-39-5.399-88.398 4.101-148.1 28.5m-273.497 525.7c5 4.8 10.101 8.898 15.5 12.398 53.601 29.9 96.398 40.602 128 32.102 46.7 3.898 79.2-7.602 97.5-34.602 14.398-34 19-67.398 14.101-100.3-9.5-10.899-17.898-18.5-25.101-22.7-5.399 32.102-15.8 51.2-31 57.2-37.8 15.199-73.102-11.601-106-80.2-27-48.898-18.3-92.101 26-129.5 100.898-95 152.398-169.199 154.5-222.3v-37.8m-209-115.998c50.898 53.7 120.601 92.5 209 116"/></g></switch></svg>