<svg xmlns="http://www.w3.org/2000/svg" id="hair" viewBox="0 0 3000 3000"><switch><g><path id="cl1" fill="#A0733C" d="M1895.162 737.493c-5.301-12.899-9.301-33.5-11.899-61.7-11.2-66.6-21.601-105.1-31.2-115.399-33.699-46.3-80.899-88.399-141.699-126.399-101.7-68.5-204.601-98-308.7-88.5-37.699.9-73 12.601-105.899 34.8-20.399 13.7-35.3 30-44.699 48.9-9.5 18.699-19.301 32.699-29.301 42-34.3-4-77 21.5-127.899 76.699-29 23.5-51.3 63.301-66.899 119.5-8.301 27.301-12.801 56.601-13.601 88.101v.2c.5 27.699 5.3 55.399 14.7 83.199 13.199 30.101 27.3 57.7 42.1 83 2.101 3.601 4.2 7.301 6.5 10.899.9 1.301 2.2 2.101 4 2.4 1.7.3 7.101-.101 16.4-1.301 24.1.5 48.6 6.4 73.699 17.7l71.801 35.2c1.699-74.5 25.5-130.899 71.399-169.601 43.8-38.101 72.899-66.2 87.3-84.5 14.301-18.4 16-36.801 4.899-55.301-3.7-6-3.801-10.899-.2-14.5l-.3-.399c-.399.101-.601.2-.7.399.102-.199.301-.3.7-.399l.101-.101c6.5-1.5 41.698 9.301 105.698 32.301 20.201 6.1 40.302 13 60 20.699 8.603 2.5 20.201 6.5 34.9 11.801 14.6 5.199 41 12.199 79.301 20.899 38.199 8.8 77.101 15.899 116.5 21.399 50.101 11 96.101 27.601 137.8 49.7-27.401-42.196-42.302-69.497-44.802-81.696z"/><path id="sd1" fill="#856032" d="M1027.813 664.812c-1.637 13.729 5.601 25.049 10.554 36.796 12.358 29.313 32.354 53.17 55.694 74.318 7.438 6.739 16.408 11.382 26.129 13.996 5.861 1.575 8.523 4.626 7.663 10.634-1.233 8.609 3.132 15.503 7.262 22.265 20.051 32.823 50.12 53.131 85.038 67.125 9.517 3.813 19.063 7.604 29.15 9.915 3.25.743 5.789.544 8.485-.971-5.001 18.253-10.296 36.43-12.836 55.265-1.373 10.174-2.237 20.356-1.983 31.302-4.532.195-8.102-2.266-11.771-4.134-21.347-10.869-42.361-22.381-64.621-31.412-22.06-8.947-44.729-15.085-68.566-16.3-4.263-.218-8.605.515-12.871 1.11-4.465.625-7.272-.716-9.752-4.814-21.398-35.396-40.836-71.695-53.976-111.124-7.042-21.137-8.7-42.704-8.186-64.834.68-29.155 6.249-57.438 12.853-85.626.288-1.239 1.143-2.345 1.734-3.511zm394.001.076c-6.6-8.188-9.645-18.219-13.475-27.678-13.454-33.24-23.951-67.439-31.668-102.502-5.646-25.649-8.122-51.59-8.918-77.783-.244-8.055 1.775-15.818 1.973-23.736.636-25.652 7.359-49.651 18.189-72.771 3.645-7.778 7.174-14.748 17.182-14.656.232.002.472-.441.707-.677-17.721.081-35.027 3.225-52.01 7.884-41.615 11.421-76.281 32.431-97.326 71.863-3.439 6.447-7.244 12.721-11.188 18.875-6.833 10.66-13.951 21.125-25.833 26.983 14.974 2.13 26.91 10.856 39.396 18.296 37.09 22.098 64.986 54.365 93.354 85.883 15.011 16.68 28.826 34.54 41.552 53.117 5.592 8.164 11.625 16.164 13.977 26.096.771 3.245 1.354 6.451-1.869 8.854 5.526-1.059 10.682.928 15.957 1.952zm198.332 66.058c50.773 14.965 102.859 24.019 154.744 33.958 28.715 5.5 57.558 10.482 85.34 19.946 24.616 8.386 48.229 19.107 71.452 30.754 2.296 1.15 4.551 4.034 8.503 1.629-2.464-4.31-4.75-8.317-7.043-12.323-13.313-23.269-31.785-43.653-39.19-70.218-1.914 2.13-3.613.275-5.336-.331-27.342-9.638-55.146-16.55-84.482-15.52-11.963.42-23.954.063-35.934.095-2.656.008-5.386-.19-7.957.325-14.355 2.879-29.007 2.509-43.476 3.323-21.893 1.231-43.901.397-65.861.276-10.267-.058-20.428-1.78-30.665-2.491-13.482-.938-26.818-3.937-40.455-3.408 12.882 6.311 26.703 9.961 40.36 13.985z"/><path id="hl1" fill="#C38A49" d="M1852.181 558.407c-2.175 2.894-4.214.527-6.069-.342-9.024-4.233-17.883-8.774-27.071-12.716-18.226-7.814-37.196-9.358-56.613-8.374-4.035.205-7.821 1.604-11.239 3.707-9.353 5.754-17.954 12.521-26.032 19.937-7.752 7.117-13.065 15.786-16.241 25.86-2.696 8.549-5.479 17.094-8.746 25.435-6.836 17.442-20.479 29.146-34.859 40.094-9.512 7.24-19.352 14.099-29.852 19.771-11.17 6.032-23.47 10.085-35.998 10.738-14.564.76-29.053 3.694-43.707 2.33-9.539-.89-19.077-1.896-28.567-3.206-7.538-1.041-15.146-1.428-22.695-2.354-7.52-.924-15.141-1.27-23.3-3.121 5.127-4.732 9.625-6.563 17.34-5.896 29.013 2.509 57.741 1.744 83.89-14.524 18.4-11.45 30.143-27.596 37.281-47.542 3.582-10.007 5.246-20.322 6.53-30.98 2.364-19.631.521-39.207 1.612-58.755 1.293-23.128 11.792-41.81 28.974-56.953 15.457-13.624 33.621-22.271 53.007-28.642l.035.024c.893 1.355 2.864.771 3.773 2.098 47.149 30.543 90.753 65.283 127.532 108.057 4.102 4.771 8.189 9.627 11.015 15.354zm-800.632 44.026c2.132 6.012 7.531 9.286 12.057 12.758a540.657 540.657 0 0 0 85.877 53.911c28.353 14.288 57.941 24.458 89.668 28.149 17.8 2.07 35.601 4.466 53.502 3.447 12.729-.725 25.498-2.542 39.323-9.829-8.163 0-13.989-.024-19.814.005-10.371.056-20.417-1.755-30.281-4.914-29.797-9.543-55.989-25.879-81.373-43.568-18.22-12.696-35.808-26.302-52.634-40.813-9.297-8.016-18.877-15.957-26.814-25.229-8.854-10.341-19.179-19.229-27.714-29.805-17.205 16.186-32.01 34.162-41.797 55.888z"/><path id="l" fill="none" stroke="#000" stroke-linecap="round" stroke-linejoin="round" stroke-miterlimit="10" stroke-width="6" d="M1405.961 662.893c-3.6 3.601-3.5 8.5.201 14.5 11.101 18.5 9.399 36.899-4.899 55.301-14.399 18.3-43.5 46.399-87.3 84.5-45.9 38.699-69.7 95.1-71.4 169.6l-71.801-35.199c-25.1-11.301-49.6-17.2-73.699-17.7-9.301 1.2-14.699 1.601-16.399 1.301-1.8-.301-3.101-1.101-4-2.4-2.3-3.6-4.4-7.3-6.5-10.899-14.8-25.3-28.9-52.899-42.101-83-9.399-27.8-14.199-55.5-14.699-83.199v-.2c.8-31.5 5.3-60.8 13.601-88.101 15.601-56.199 37.899-96 66.899-119.5 50.899-55.199 93.601-80.699 127.899-76.699 10-9.301 19.801-23.301 29.301-42 9.399-18.9 24.3-35.2 44.699-48.9 32.899-22.2 68.2-33.899 105.899-34.8 104.102-9.5 207 20 308.7 88.5 60.8 38 108 80.101 141.7 126.399 9.6 10.301 20 48.801 31.199 115.399 2.601 28.2 6.601 48.801 11.899 61.7 2.5 12.2 17.399 39.5 44.799 81.7-41.698-22.101-87.698-38.7-137.799-49.7-39.399-5.5-78.301-12.601-116.5-21.399-38.301-8.7-64.701-15.7-79.301-20.899-14.699-5.301-26.301-9.301-34.9-11.801-19.698-7.699-39.8-14.601-60-20.699-64-23-99.198-33.801-105.698-32.301l-.101.101c-.399.101-.601.2-.701.399"/></g></switch></svg>