<svg xmlns="http://www.w3.org/2000/svg" id="hair" viewBox="0 0 3000 3000"><switch><g><path id="cl1" fill="#956D3C" d="M1752.385 1275.475c-.899 1.2-1 2.5-.399 4 7.7 17.302 21.399 19.7 40.899 7.302-5.1-9.302-8.199-22.399-9.399-39.399l-31.101 28.097zm-150.199-764.299c9.801-1.301 20 .8 30.301 6.3 27.601 14.602 56.898 53.7 87.802 117.102l.101.301c-24.399 1.1-56.899 7-97.399 17.8-50.399 19.899-93.5 57.3-129.302 112.3-20.5 29.7-49.698 52.7-87.5 69.2-38.198 15.8-77.698 17.399-118.198 4.8 0-14 .899-27 2.802-39.1 9.3-60.801 25.198-116.301 47.698-166.5 17.5-40.9 43.302-71.7 77.5-92.4 63.695-28.204 125.794-38.104 186.195-29.803zm118.398 123.699l-.3-.3c-30.899-63.399-60.2-102.5-87.802-117.101 71.802-13.801 135.199 7.601 190.399 64 74.3 87.601 87 195 38.399 322.101h-1.2c-2.096-108.7-48.596-198.3-139.496-268.7zm148.201 373.1c28.1 67.899 50.698 112.399 67.799 133.5 18.301 34.602 56.301 26.2 114.102-24.8.398 1.199.801 2.3 1.199 3.5-32 104.899-77.899 148.5-137.699 130.699h-.102c-.199-45.102-5.398-90.699-15.601-136.8-12.899-24.7-37.5-46.7-73.601-66.102a257.67 257.67 0 0 1 3-15.398l.101-.399c1.802-8.801 5.899-19.301 12.5-31.101 15.698-36 22.198-68.2 19.601-96.7h1.301l7.4 103.601zm39.799 358.701c-42.398-16.601-77.898-39.301-106.601-68.101-3.602-3.399-6.602-7.399-9.102-11.8-5.1-9.302-8.2-22.4-9.398-39.4 9.198-8 19.802-22.8 31.698-44.6 14.604-19.102 17.2-52.102 7.7-99.102-2.601-14.101-2-32.698 2-55.698 36.101 19.398 60.699 41.398 73.601 66.1 10.199 46.101 15.399 91.7 15.602 136.801h.101c-19.3 31.599-21.101 70.099-5.601 115.8zm-85.699-785.201c-55.199-56.398-118.6-77.8-190.399-64-10.3-5.5-20.5-7.601-30.3-6.3-60.397-8.301-122.5 1.601-186.2 29.8-34.197 20.7-60 51.5-77.5 92.399-22.5 50.2-38.398 105.7-47.697 166.5-1.9 12.101-2.803 25.101-2.803 39.101.102 25.899 3.399 55.102 9.803 87.602 10.299 49.5 15.299 83.601 15 102.301-.303 18.699-1.303 32-2.803 39.8-1.5 7.7-5 22.899-10.5 45.399-2.601 13.7-4.3 26.301-5.3 37.7.103 41.198 12.603 81 37.603 119.5 26 54.101 21.197 87.698-14.303 100.698-35.8-37.101-84-67.8-144.398-91.8-1.801-.5-3.5-.9-5.301-1.2-18.5-27.601-31.5-54.8-39-81.601-4.101-22 5.603-57.6 29.103-106.8 14.5-35 18.8-72.7 13.101-113.5-1.899-37.3-8.801-73-20.601-107-14.302-41.899-22.399-80.602-24.399-116.399-6.101-62.2 6.199-111.801 37.101-148.7 25.102-31.898 62.899-66.398 113.602-103.601-50.7 37.2-88.5 71.7-113.602 103.601-30.898 36.899-43.199 86.5-37.101 148.7 2 35.8 10.101 74.5 24.399 116.399 11.8 34 18.698 69.7 20.601 107 5.699 40.8 1.399 78.5-13.101 113.5-23.5 49.198-33.2 84.8-29.103 106.8 7.5 26.801 20.5 54 39 81.601-72-14.601-125.199-43-159.699-85.398 3.5-12.399 6.302-26.399 8.4-42-2.101 15.601-4.9 29.601-8.4 42-4.698 16.5-10.398 30-17.398 40.601-21.3-41.801-38.699-88.5-52.3-140.5-11.302-34-11.899-56.801-2-68.601 11.5-18.3 25-37.899 40.5-58.7.8-1.1 1.5-2.199 2.397-3.3 22.103-22.399 39.603-44.5 52.701-66.602 15.602-22.8 22.602-58.601 20.899-107.5-5.399-33.398-5.2-61.898.8-85.5 19.399-73.5 71-150.8 154.899-231.8 48.897-31.5 100.397-48.2 154.601-50.2 73.602-6.7 128.602-9.5 164.899-8.301h.199c29.301 13.001 52.102 32.001 68.398 56.9-16.301-24.899-39.101-43.899-68.398-56.9h-.199c91.101-22.5 168.801-6.3 233.397 48.4.899.8 1.899 1.398 2.802 2.2 83 65.3 128.698 156.1 137.102 272.198 13.8 101 21.101 188.102 22.101 261.102 1.399 16.5 4.199 30.8 8.5 42.8 9.699 27.4 27.102 43.2 52.102 47.4 13.101 1.698 24.801-.602 34.898-6.9-3.801 22.301-14.301 33.5-31.5 33.5-6.601 0-13.801-2.3-21.5-6.8-20.101-17.2-31.601-39.602-34.398-67 2.801 27.398 14.301 49.8 34.398 67 7.699 4.5 14.899 6.8 21.5 6.8 17.199 0 27.699-11.199 31.5-33.5 2.199-1.399 4.199-3 6.301-4.8 10.898 10.601 19.302 24.3 25.398 41.101-57.8 51-95.8 59.399-114.101 24.8-17.103-21.101-39.699-65.601-67.801-133.5l-7.398-103.601-.102-.8c48.6-127.099 35.901-234.499-38.4-322.099z"/><path id="sd1" fill="#7F5B30" d="M1291.785 799.875c.535-5.937-6.273-16.116-10.902-19.827-9.322-7.473-18.1-15.523-29.272-20.292-12.59-5.373-25.384-10.1-39.361-8.747-10.365 1.002-21.297.61-29.922 9.788-5.646-10.688-12.313-19.625-20.729-27.222-6.193-5.594-5.916-5.504-13.397-.958-5.5 3.342-15.197 12.885-21.103 22.903-2.344-18.229-.284-49.556.986-67.729 1.194-17.084 8.76-38.623 16.824-53.769 11.323-21.272 33.071-49.521 45.411-58.676 1.271 14.842 4.685 38.958 9.806 52.914 6.408 17.452 16.885 32.137 36.601 35.709 11.965 2.169 24.334 2.099 36.479-.896 12.605-3.107 24.533-7.997 36.277-13.322 3.524-1.599 9.977-2.471 13.021-5.004 9.839-2.237 9.5-7.979 13.539-8.744-1.813 8.519-7.426 22.98-10.373 31.08-13.107 36.017-23.336 73.896-30.328 111.58-.842 4.505-1.079 11.812-3.557 21.212zm386.036-383.056c-3.982 4.26-9.65 5.59-14.513 8.321-7.212 4.052-14.61 7.771-21.721 11.991-9.012 5.35-12.249 12.605-9.051 22.702 7.054 22.259 19.57 39.657 43.746 45.733.563.144.998.818 1.49 1.248-11.81 1.194-21.563 2.349-32.775 7.233-2.723 1.188-7.313 3.905-9.828 3.112-17.172-5.414-35.609-7.465-53.534-8.172-35.255-1.392-105.157 3.885-105.817 3.871 9.183-9.861 3.765-38.08-5.629-52.354-6.438-9.779-16.516-14.843-26.843-19.447-15.521-6.921-32.347-9.291-48.513-13.966-10.203-2.951-20.582-4.851-31.28-4.329 10.616-3.059 21.659-2.474 32.491-3.603 23.181-2.415 46.545-1.618 69.75-3.041 18.043-1.105 36.965-2.375 54.892-3.146 4.136-.178 24.726 1.038 23.263-.204 7.83-4.047 16.09-4.201 23.903-5.456 17.457-2.803 35.162-3.388 52.746-2.028 19.47 1.511 38.982 3.58 57.223 11.535zm-540.745 726.985c3.995 13.71 17.391 31.469 25.564 42.681 19.446 26.663 42.808 49.858 66.58 72.551 33.226 31.71 71.791 55.479 113.553 74.27 2.19.984 4.338 1.625 6.719 1.456-1.912 16.129-11.291 27.206-24.203 35.942-2.916 1.973-5.059 2.104-7.664-.869-23.656-26.995-53.646-45.509-84.717-62.431-17.831-9.712-36.012-18.782-54.078-28.057-3.295-1.689-11.016-1.688-13.129-5.051-11.561-18.376-22.533-40.411-30.662-60.541-8.696-21.533-5.881-48.625 2.037-69.951zm880.049 58.931c-8.349 13.713-18.289 26.145-30.646 36.426-17.429 14.501-37.301 17.593-58.99 12.127-5.255-1.323-12.852-1.343-12.466-6.748 1.112-15.636-1.32-35.629-2.88-51.176-1.918-19.17-5.422-32.494-7.133-51.659-1.692-18.964-3.424-29.646-15.584-43.343-15.393-17.339-43.725-38.658-63.541-50.389-5.569-3.297 3.117-7.334 4.131-13.271.904-5.3 2.256-10.492 4.705-15.192 10.336-19.834 17.979-40.707 24.559-62.016.379-1.228 4.627-21.247 5.267-22.892 3.394 1.836 2.438 33.116 2.528 35.393.591 15.271.177 22.771 2.713 37.979.661 3.964 6.624 18.999 8.046 22.691 15.437 40.102 24.983 57.991 48.197 94.327 5.373 8.411 14.7 22.232 21.577 29.553 8.313 8.845 16.291 9.023 28.615 7.295 1.629-.229 16.125-5.354 17.785-5.354-2.301 6.323-22.879 16.39-26.041 15.817 13.387 13.316 30.699 22.792 49.158 30.432zm-888.373-428.614c-3.058-2.039-6.053-10.906-7.887-14.015-8.719 5.28-11.371 14.591-17.018 22.861 0-2.057-.115-4.119.02-6.166 1.166-17.59-2.237-34.977-2.468-52.543-.104-8.094-1.353-16.403-1.6-24.657-.124-4.146-2.313-5.306-5.928-3.612-12.619 5.9-24.711 12.75-36.622 19.978-2.958 1.794-2.771 5.216-5.255 6.928 1.234-17.771 6.933-34.405 13.455-50.731 16.144-40.404 39.25-76.778 65.485-111.257 9.027-11.862 17.567-24.162 28.597-34.375 1.778 2.916 2.459 6.062 2.342 9.485-.146 4.307.6 8.73-.146 12.908-2.666 14.938 10.327 25.94 21.707 33.616-7.703 9.977-16.166 17.521-23.574 27.709-14.004 19.26-24.73 40.821-29.82 64.261-1.83 8.423-3.916 20.837-4.014 29.491-.229 20.582 1.041 33.455 1.563 58.41.362 2.263 1.17 9.387 1.163 11.709zm-176.898 356.733c8.93 6.978 14.691 16.95 23.218 24.367 4.284 3.729 8.691 7.14 13.594 9.929 3.109 1.77 5.09 1.022 5.159-2.854.054-2.989.286-6.006-.016-8.965-1.065-10.511 3.129-19.493 8.039-28.233 2.598-4.62 4.738-4.833 6.771-.444 7.143 15.404 19.015 26.947 30.725 38.662 14.288 14.297 27.791 29.312 40.803 44.767 5.61 6.663 13.008 11.265 19.315 17.117 1.979 1.836 3.646.929 4.721-1.214 5.652-11.28 11.409-22.515 16.789-33.924 1.061-2.246.658-5.197.857-7.828.197-2.588 6.506-12.465 8.996-14.438C1121 1206 1145.666 1240 1145.666 1240c2.168 4.489 12.547 21.642 14.852 26.066.265.507 8.271 11.801 8.271 12.906-9.371 1.501-32.629-9.551-41.455-11.958-40.625-11.078-76.436-30.544-105.869-61.141-4.586-4.77-10.181-6.498-8.267-13.28 2.607-9.247-13.063 20.207-21.18 36.776-.709 1.45-.854 3.259-3.176 3.949-8.056-31.556-25.812-59.443-34.108-90.924-1.012-3.829-3.144-7.386-2.88-11.54zm701.935-486.11c4.184-5.546.465-11.244-.744-16.219-3.65-14.996-10.338-28.62-21.982-39.493-9.979-9.313-19.468-19.151-29.031-28.896-20.637-21.021-45.063-34.939-74.487-38.729-9.84-1.269-35.557.239-45.541.095 11.801-8.092 40.336-11.041 50.762-11.815 30.533-2.271 62.896-1.743 93.182 4.365 13.929 2.813 24.538 13.484 33.911 24.284 22.863 26.343 39.737 57.521 57.098 87.485 1.465 2.529 2.889 5.802-1.705 9.46-20.455 2.228-40.97 5.788-61.463 9.463zm243.787 666.047c1.286 18.989 5.707 37.243 13.306 54.714-2.991 1.975-4.759-.363-6.63-1.214-33.316-15.138-64.913-32.379-91.979-56.826-13.347-12.058-23.859-35.417-27.045-52.09 2.643-11.188 8.293-16.44 16.686-25.324 14.172-15.001 20.808-34.387 27.646-53.443 7.353 15.372 9.603 32.104 12.568 48.585 2.17 12.042 5.451 23.855 7.078 36 .262 1.946.64 3.99 3.148 4.436 3.022-.025 5.108 1.633 6.35 4.087 8.867 17.581 21.704 31.366 38.872 41.075zm-143.07-779.803c-11.305 2.31-24.465 10.373-24.437 22.377.048 19.538-1.372 39.063 1.129 58.688 1.313 10.316 3.763 19.362 9.862 27.515 2.388 3.187.932 5.379-1.422 7.532-6.15-3.748-16.984-8.697-19.804-15.479-4.563-10.988-10.703-21.703-16.813-32.012-13.765-23.227-26.671-42.246-44.505-62.646-3.227-3.69-18.774-14.603-23.352-19.8 33.936-4.739 89.527.58 119.342 13.825zm101.26 543.86c-1.785 1.37-2.137 3.334-1.946 5.354 1.639 17.495-2.536 33.989-7.507 50.602-4.243 14.188-5.873 29.039-6.534 43.898-.104 2.33.063 4.691-2.123 6.296-2.615-2.038-3.275-6.584-7.847-6.121 4.027-22.314 1.15-44.438-3.336-66.19-3.6-17.442-2.592-34.174 2.056-52.271 10.264 5.125 19.047 11.308 27.237 18.432zm-74.82 180.527c2.266 9.543 4.461 18.834 6.687 28.116.602 2.501.116 4.461-2.087 6.101-8.801 6.547-23.437 3.92-29.072-5.366-1.383-2.273-2.846-4.614-.19-7.138 7.235-6.877 14.393-13.84 21.651-20.69.619-.588 1.762-.622 3.011-1.023zM1877.816 871c.968 17.242-1.86 42.429-3.711 59.479-.464 4.268-.229 8.613-.252 12.926-.071 12.229-.416 28.208-3.344 40.263-1.924-3.027-3.596-12.762-3.607-16.041-.098-23.644-3.725-42.315-3.895-65.958-.054-7.8 11.028-24.438 14.809-30.669zm-16.166 3.969c4.013-4.093 6.896-9.325 12.241-12.064-1.42 9.148-6.527 16.625-9.625 25.014-.87-.2-1.743-.401-2.616-.604v-12.346z"/><path id="hl1" fill="#C38A49" d="M1170.76 960.147c.851-2.066-4.467-17.739-2.397-20.193 6.85 12.368 26.228 48.792 33.719 60.476 4.103 6.396 9.16 9.97 16.627 11.146 7.761 1.225 12.195-.726 14.55-7.972 1.185-3.646.969-7.798 4.399-11.262-.002 6.836.395 13.075 2.201 19.187 1.146 3.885 2.717 7.575 4.961 10.818 6.144 8.88 14.056 8.339 17.893-1.597 8.246-21.348 15.966-42.903 15.128-66.365-.044-1.231.259-2.479.5-4.633 5.731 3.534 5.763 9.419 7.698 13.926 7.207 16.747 15.801 32.938 21.23 50.404 2.525 8.132 4.229 16.518 6.311 24.788 1.154 21.813-3.774 42.783-8.809 63.742-3.402 14.171-7.131 28.282-8.816 42.8-2.748 23.646 2 46.169 10.466 68.108 1.188 3.082 2.295 6.194 3.438 9.293-1.5 5.739-5.324 3.391-8.248 1.985-5.791-2.779-10-7.559-14.316-12.227-17.564-18.993-26.385-42.038-31.424-66.882-2.578-12.714-4.428-25.563-7.465-38.468-3.938 19.688-13.479 37.106-20.894 55.344-1.386 3.408-3.313 7.203-7.582 6.938-4.469-.272-5.2-4.726-6.282-8.095-6.775-21.109-9.259-42.84-8.729-66.104-4.929 13.663-8.925 26.509-17.979 36.803-2.405 2.731-5.011 5.95-9.065 5.325-4.637-.714-4.646-5.246-5.276-8.652-2.941-15.897-13.562-37.018-8.107-53.421 4.174-14.257 7.553-32.479 9.291-47.406 2.082-17.864-.065-33.047-1.789-50.885-.423-4.27-.885-12.637-1.234-16.921zm223.566-402.945c-1.066.767-8.505 7.736-9.511 8.579-26.37 22.094-36.082 41.041-47.423 72.314-4.038 10.33-8.052 67.958-6.472 79.237 10.949-12.539 15.371-20.842 19.119-26.349 5.017-7.367 13.179-10.084 20.922-6.183 13.179 6.643 25.27 14.704 33.451 27.657 10.287 16.282 12.75 34.867 16.381 53.109 3.648 18.34 2.865 36.408-4.245 53.98-1.214 2.997-2.556 6.26-.732 9.616 15.449-3.969 34.609-17.396 46.449-27.863 19.526-17.259 30.366-31.425 44.854-53.12 19.233-28.803 43.788-52.314 72.383-71.865 15.186-10.383 31.515-18.257 48.354-25.313 1.013-2.846 2.763-6.229-2.611-6.078-9.59.271-19.168-.897-28.757 1.729-12.217 3.35-23.95 7.967-35.745 12.394-20.55 7.71-40.752 16.17-59.105 28.575-6.854 4.633-14.479 8.176-22.518 10.583-4.525 1.354-8.535.952-11.799-2.822-4.877-5.638-11.365-9.218-17.507-13.104-10.222-6.473-21.396-11.167-33.628-11.149-9.16.014-17.797-1.851-26.413-4.256-7.759-2.167-12.686-7.717-13.689-15.482-1.063-8.212-1.207-16.739 2.827-24.442 10.074-19.236 13.276-41.074 23.051-60.407 1.424-2.813 7.663-18.88 5.625-19.477-.001-.002-11.53 8.465-13.261 10.137zM945.621 1014.49c-2.289 9.452 2.061 17.772 5.357 25.876 10.932 26.851 26.705 49.824 54.592 61.776 13.08 5.608 25.417 3.556 36.471-5.214 4.85-3.848 8.9-8.627 12.5-13.488 2.354 1.189 2.938 2.825 3.854 4.158 18.045 26.318 36.438 52.388 56.435 77.273 2.334 2.904 9.125 12.927 14.307 11.732 3.695-15.859 8.333-36.655 14.714-51.683 4.67-10.995 11.862-26.574 16.366-37.64-.504-3.155-10.442-.204-13.547-.466-5.008-.421-9.912-1.869-14.026-4.729-13.392-9.308-25.871-19.589-34.246-34.004-3.271-5.631-3.509-5.754-8.886-2.105-6.487 4.399-13.235 7.189-21.323 6.93-21.467-.692-40.078-8.21-55.866-22.665-10.39-9.511-17.813-21.36-25.247-33.14-4.587-7.266-8.775-14.779-13.145-22.184-10.816 12.211-20.699 25.079-28.31 39.573zm921.911 215.201c1.401 8.37 4.646 28.332 6.811 29.001 2.641.815 18.311-42.153 14.821-55.938.313 6.479 5.836 19.246 9.936 35.601 9.234-16.354 7.908-39.932 6.875-51.822.148-7.326-1.229-14.482-2.381-21.666-.912-6.854-2.776-13.551-4.332-20.234-2.348-10.093-18.604-31.105-21.485-29.307-2.169 1.354 2.879 31.053 6.59 42.255-1.379-1.087-1.983-3.776-3.328-5.979-6.062-9.938-22.1-33.365-24.6-32.535-1.689.563 2.352 25.482 5.553 44.214.977 5.706 1.873 10.836 2.508 14.528-.707-3.111-12.041-19.069-16.041-17.171-3.336 1.584-1.377 22.179-1.17 31.22-3.358-5.293-11.953-19.675-17.479-16.979-.215.558 2.587 15.256 3.93 22.03 4.743 23.952 9.355 47.929 13.99 71.899.244 1.264.132 2.662 2.064 2.401 1.654-.964 1.758-2.684 2.082-4.293 3.49-1.937 12.706-27.383 15.656-37.225zm-86.436-541.701c21.031 22.426 33.556 42.506 45.688 71.085 2.839 6.688 10.359 23.728 13.253 30.394 7.983-11.559 10.498-28.434 10.651-33.433.448-14.567 1.439-12.251-5.534-25.981-3.159-6.223.01-6.876 5.063-6.061 5.703.922 10.675 3.514 15.481 6.598 3.293 2.112 6.864 5.438 10.878 2.931 4.773-2.98 1.995-7.901 1.293-11.883-1.271-7.203-3.802-14.042-8.085-20.408 8.048-1.229 11.901 3.77 15.271 1.68-.729-7.707-3.93-16.848-6.371-24.081-5.526-16.379-8.905-29.125-18.362-43.838-2.563.106-12.681-3.65-14.568-5.037-3.729-2.731-7.516-5.47-11.576-7.64-2.771-1.48-6.582-4.097-9.09-1.92-3.174 2.752.637 5.987 1.922 8.771 1.38 2.981 3.092 5.94 5.23 8.413 5.684 6.57 9.627 14.262 14.352 21.443 2.938 4.461 5.095 9.355 6.328 14.534 1.616 6.788-2.057 10.389-8.631 8.505-3.485-.998-6.822-2.548-10.178-3.957-6.945-2.916-13.859-5.904-21.938-9.354.078 16.026 8.584 28.888 11.111 44.692-15.896-9.235-30.041-17.649-41.694-29.636-2.291-2.354-4.386-5.142-8.265-4.804 1.765 3.704 5.068 6.103 7.771 8.987zm140.425 207.025c-2.703 1.331-3.854 3.604-3.707 6.501.656 12.974-3.061 25.684-2.11 38.705.508 6.949-.021 13.969.063 20.953.054 4.353-.72 8.42-3.097 12.328-7.536-2.786-8.758-11.962-15.972-16.057-2.5 10.592 1.003 20.985-2.43 31.272-6.924-3.587-10.506-9.813-16.204-14.37-1.502 13.749 2.092 26.104 5.45 38.523 1.805 6.663 12.373 32.093 12.341 28.933-.105-10.254-.039-20.511-.039-31.415 3.428 3.063 3.616 6.833 4.729 10.111 1.594 4.692 9.053 19.311 12.626 15.923 1.991-1.89 7.868-19.345 6.255-25.283-2.475-9.101-.416-16.066 6.078-22.275 1.6-31.405-.699-62.647-3.983-93.849z"/><path id="l" fill="none" stroke="#000" stroke-linecap="round" stroke-linejoin="round" stroke-miterlimit="10" stroke-width="6" d="M1721.584 634.875c90.899 70.4 137.399 160 139.5 268.7v.8h0c2.602 28.5-3.898 60.7-19.601 96.7-6.602 11.8-10.698 22.3-12.5 31.101m222.703 84.5c-57.801 51-95.801 59.399-114.102 24.802-17.101-21.102-39.699-65.602-67.799-133.5l-7.4-103.602-.1-.801c48.6-127.101 35.896-234.5-38.4-322.101-55.199-56.399-118.6-77.801-190.399-64m195.498 514.702l-.102.399m.102-.399h-.102v.399m.003 0c-1.199 5.3-2.199 10.5-3 15.398m194.099 32.402c-10.102 6.301-21.802 8.601-34.899 6.9-25-4.2-42.397-20-52.101-47.4-4.302-12-7.102-26.3-8.5-42.8-1-73-8.302-160.102-22.102-261.102-8.398-116.1-54.1-206.898-137.1-272.199-.9-.801-1.9-1.399-2.803-2.199-64.601-54.7-142.299-70.899-233.398-48.399m386.105 837.699c59.801 17.801 105.699-25.8 137.699-130.699-.398-1.198-.801-2.301-1.199-3.5m-119.102-76.601c2.801 27.398 14.301 49.8 34.399 67 7.698 4.5 14.898 6.8 21.5 6.8 17.198 0 27.698-11.199 31.5-33.5m-104.797 170.5h-.102c-.199-45.1-5.398-90.699-15.601-136.8-12.899-24.7-37.5-46.7-73.601-66.102m-41.398 199.402c9.198-8 19.802-22.8 31.698-44.6 14.604-19.102 17.2-52.102 7.7-99.102-2.601-14.101-2-32.698 2-55.698m-31.997 238.8c2.5 4.398 5.5 8.398 9.101 11.8 28.7 28.801 64.2 51.5 106.602 68.101-15.5-45.698-13.699-84.198 5.601-115.801m136.497-134.199c-6.102-16.801-14.5-30.5-25.397-41.101-2.103 1.801-4.103 3.4-6.303 4.801m-742.3-579.001c-50.699 37.2-88.5 71.7-113.602 103.601-30.898 36.899-43.199 86.5-37.101 148.7 2 35.8 10.101 74.5 24.399 116.399 11.799 34 18.698 69.7 20.601 107 5.698 40.8 1.399 78.5-13.101 113.5-23.5 49.199-33.201 84.8-29.101 106.8 7.5 26.801 20.5 54 39 81.601m464.703-761.501c-10.302-5.5-20.5-7.601-30.302-6.3-60.396-8.301-122.5 1.601-186.198 29.8-34.198 20.7-60 51.5-77.5 92.399-22.5 50.2-38.399 105.7-47.698 166.5-1.9 12.101-2.802 25.101-2.802 39.101m240.1-425.799c-36.3-1.2-91.3 1.6-164.898 8.3-54.2 2-105.7 18.7-154.602 50.2-83.898 81-135.5 158.3-154.898 231.8-6 23.602-6.2 52.102-.801 85.5 1.699 48.899-5.301 84.7-20.899 107.5-13.101 22.102-30.601 44.2-52.699 66.602-.9 1.101-1.602 2.2-2.4 3.301-15.5 20.8-29 40.399-40.5 58.699-9.898 11.801-9.299 34.601 2 68.601 13.602 52 31 98.699 52.302 140.5 7-10.601 12.698-24.101 17.399-40.601m588.598-723.503c-16.301-24.899-39.102-43.899-68.397-56.899h-.201m-240.104 425.799c40.5 12.602 80 11 118.198-4.8 37.802-16.5 67-39.5 87.5-69.2 35.802-55 78.899-92.398 129.302-112.3 40.5-10.801 73-16.7 97.398-17.801h.199m.003.001l-.3-.3c-30.899-63.399-60.2-102.5-87.802-117.101m-624.398 676.101c3.5-12.399 6.301-26.399 8.4-42m301 220.4c35.5-13 40.302-46.601 14.302-100.698-25-38.5-37.5-78.302-37.604-119.5 1-11.399 2.7-24 5.302-37.7 5.5-22.5 9-37.699 10.5-45.399 1.5-7.8 2.5-21.101 2.802-39.8.299-18.7-4.701-52.801-15-102.301-6.4-32.5-9.701-61.699-9.802-87.601m29.5 532.999c-35.802-37.101-84-67.8-144.399-91.8-1.8-.5-3.5-.9-5.3-1.2m149.699 93c.198.2.302.399.5.5m465.5-125.1l-31.102 28.101c-.898 1.2-1 2.5-.398 4 7.698 17.302 21.398 19.7 40.898 7.302m-784.798-93.203c34.5 42.398 87.701 70.8 159.701 85.398m615.699-31.598c1.198 17 4.302 30.101 9.398 39.4"/></g></switch></svg>