<svg xmlns="http://www.w3.org/2000/svg" id="hair" viewBox="0 0 3000 3000"><switch><g><path id="cl1" fill="#3E3633" d="M1747 672.3c10.5 5 19.7 9.2 27.8 12.2 6 2.3 13.7 5.5 23.2 9.3 7.9 2.9 15.7 4.5 23.4 4.9-3.7-3.9-8.101-15-13.4-33.2-3.4-10.8-8-20.1-14.1-28-31.7-38-59.9-60.2-84.4-66.3 24.5 6.1 52.7 28.3 84.4 66.3 6.1 7.9 10.699 17.2 14.1 28 5.3 18.2 9.7 29.3 13.4 33.2-7.7-.4-15.5-2-23.4-4.9-9.5-3.8-17.2-7-23.2-9.3 35.2 72.3 60.7 160.5 76.9 264.8l10.1 106.7c1.7 7.8 3.7 14.4 6 19.8 2.9 7 5.8 10.4 8.601 10.301 2-.2 4-.7 5.699-1.7 2-1.101 4.301-2.8 6.801-5.3 7.699-12.5 13.6-26.4 17.6-41.7 4-16 6.4-34.7 7-56.3 3.1-42.801-2-92.4-15.3-148.801-8.2-46-23.101-93.8-44.5-143.5-15.8-43.199-39.4-81.199-70.9-114.1-48.399-48.4-98.5-50.1-150.3-5.4-46.7-29.699-95-36.6-144.9-20.6-75 35.6-117.199 121-126.5 256l-14.5 138.7c-.1.899-.199 1.7-.199 2.6-3.5 30.2-5.601 51.3-6.101 63.3-.8 16.601.101 31.101 2.601 43.601 2 9.899 5.1 18.899 9.5 26.899 4.3 8 9 13.4 14.199 16.301 2.7 3.399 6.2 3.399 10.5-.301 3.5-2.899 8.2-9 14.101-18.1 5.199-13.1 8.699-27.7 10.5-43.9 1.6-13.3 2.199-31.3 2.199-54.1l8.5-157c5.2-37.5 10-65.4 14.2-83.9 6.4-28.3 14.9-52.5 25.5-72.5-1.5-.1-2.5-.3-2.8-.5-.5-.399-1.4-.699-2.7-1 13.5-47.699 44.5-74.8 92.9-81.1-48.4 6.3-79.4 33.4-92.9 81.1 1.3.301 2.2.601 2.7 1 .3.2 1.3.4 2.8.5 12.9.801 32.4-4.1 58.5-14.8 19.4-7.899 41.1-18.3 65-31.2-5.8 13-14.2 26.7-25.2 41-12.3 15.9-26.3 30.7-42 44.2 14.7.2 32.2-6.7 52.4-20.6 14.3-9.9 36.2-27.9 65.3-54.3-.6 2.399-2.3 8.8-4.8 19.199-1.7 6.601-3.1 11.7-4.4 15.4-3.399 9.6-9.399 19-18.1 28.3 10.8-6.5 18.1-11.8 21.7-15.899 2-2.2 4.399-5.5 7.199-9.9 1.801-2.8 5.301-8.2 10.4-16.4 20.4 21 37 36 49.9 45.2 18.6 13.101 38.199 21.3 58.699 24.601-6.1-8.301-11.5-18.2-16.199-29.801-3.601-9.1-7.301-20.5-11.101-34.3 6.601 4.5 15.901 9.5 27.601 15.3zm-9.6-187.7c15 7.5 29 18 42.1 31.601-37.6-22.7-69.5-33.4-95.8-31.8-25.9 1.5-50.101 15.1-72.4 40.6-25.8-12.9-50-22.3-72.6-28.3 23.1-18.9 46.6-30.8 70.3-35.9 6.6-1.399 13.9-2.1 21.5-2.1 6.5 0 13.8.5 21.9 1.6 2.8.3 7 .9 12.6 1.601 4.8.699 9 1.6 12.6 2.699 24.9 5.699 44.8 12.399 59.8 19.999zm143.7 158.8c11.5 17.6 20.8 33.7 27.9 48.4 8.1 16.7 13.9 32.4 17.4 47l21 272.7c3.3 31.8 4.699 56.601 4.3 74.3-.5 19.301-3.2 37.301-8.3 54-5.301 7.4-11.5 12.101-18.601 14.101-6.3 1.8-13.8 1.6-22.3-.601-8.4-.899-14.7-6.699-18.9-17.5-4.1-10.699-6.5-27.3-7.199-49.699 2-.2 4-.7 5.699-1.7 2-1.101 4.301-2.8 6.801-5.3 7.699-12.5 13.6-26.4 17.6-41.7 4-16 6.4-34.7 7-56.3 3.1-42.801-2-92.4-15.3-148.801-8.2-46-23.101-93.8-44.5-143.5-15.8-43.199-39.4-81.199-70.9-114.1-48.399-48.4-98.5-50.1-150.3-5.4-46.7-29.699-95-36.6-144.9-20.6-75 35.6-117.199 121-126.5 256l-14.5 138.7c-.1.899-.199 1.7-.199 2.6-3.5 30.2-5.601 51.3-6.101 63.3-.8 16.601.101 31.101 2.601 43.601-12 23.399-22.101 40-30.5 49.7-10.2 11.899-20 16.5-29.2 13.899-10.3-2.399-17.601-11.8-22.101-28.1-4.1-14.5-5.8-37.9-5.399-70.2 19.8-4.6 34.2-15.7 43.2-33.3 9.199-18 14.199-45.4 14.8-82.2 2.7-74 14.3-145 34.7-213 22.199-69.6 62.8-115.4 121.6-137.1-58.8 21.699-99.4 67.5-121.6 137.1-20.4 68-32 139-34.7 213-.601 36.8-5.601 64.2-14.8 82.2-9 17.6-23.4 28.7-43.2 33.3-.3.1-.7.1-1.101.2-.399-.2-.8-.5-1.199-.7-22.801-13.6-27.101-72.4-12.801-176.5.301-1.5.5-3.2.801-4.7v-.3c27.399-110.2 73.5-209.1 138.3-296.7 37.399-46.5 90.399-60.8 159-42.8 22.6 6 46.8 15.4 72.6 28.3 22.3-25.5 46.5-39.1 72.4-40.6 26.3-1.601 58.2 9.1 95.8 31.8l1.1.6c42.899 41.4 76.499 83.7 100.499 126.6zm-609.8-169.6c30.3-10 58.601-16.5 84.8-19.6 25.7-2.9 51-2.7 76.2.7 14.4 3 25.2 6.199 32.3 9.399 8.801 4.101 17.301 10.4 25.5 18.9-8.199-8.5-16.699-14.8-25.5-18.9-7.1-3.2-17.899-6.399-32.3-9.399 32.2-5.301 53.8-8.601 64.8-9.801 19.9-2.3 37.5-2.6 52.7-1.199l15.2.399c-16.4 2.2-29.4 6.2-38.7 12.2-10.2 6.4-17.3 15.6-21.3 27.6 4-12 11.1-21.199 21.3-27.6 9.3-6 22.3-10 38.7-12.2 16-.2 32.1 1.7 48.5 5.5 4 1 10.1 2.4 18.6 4.2 7.7 1.8 14.4 4 20.301 6.3-8.101-1.1-15.4-1.6-21.9-1.6-7.6 0-14.9.7-21.5 2.1-23.7 5.101-47.2 17-70.3 35.9-68.601-18-121.601-3.7-159 42.8-64.8 87.6-110.9 186.5-138.3 296.7v.3c-.301 1.5-.5 3.2-.801 4.7-14.3 104.1-10 162.899 12.801 176.5-20.601 32.2-37.5 52-50.4 59.2-13.2 7.399-22.3 2.8-27.5-13.801-2.9-9.6-4.7-21.899-5.4-36.8-.699-15.3-.3-35 1.2-59.4-1.5 24.4-1.9 44.101-1.2 59.4.7 14.9 2.5 27.2 5.4 36.8-17.2 17.9-35 14.2-53.4-11.199 1.101-8.801 1.7-16.301 2-22.601.2-7.1.2-15.899-.199-26.2.399 10.301.399 19.101.199 26.2-.3 6.301-.899 13.801-2 22.601-3.5 28.199-10 49.6-19.399 64.3-10.101 16-24.4 25-42.5 27.3-8.7.8-13.4-3.399-14.101-12.7-.699-8.699 2.101-23.199 8.301-43.5l.699-1.399c10-14.8 17.9-26.7 23.7-35.9 10.6-16.7 19.4-33.2 26.4-49.399-7 16.199-15.801 32.699-26.4 49.399-5.8 9.2-13.7 21.101-23.7 35.9l-.5.7c0 .199-.1.5-.199.699-.601.601-1.9 1.301-4.101 2-3 .9-5.2 1.101-6.6.7-12.3-4.2-20.601-12.9-24.9-25.9-3.5-11-4.5-25.8-2.899-44.6.899-.7 2.1-2 3.699-3.6 8.601-7.2 17.2-17.9 25.7-32 9.9-46.2 23.5-92.7 41.2-139.4 23.9-73 49.4-135.5 76.4-187.8-25.7 71.399-47.801 150.3-66.5 236.6-11.2 59.101-7.9 93.9 9.899 104.5 6.101 3 11.9 4 17.3 3.4 15.301-2 27.9-18.4 37.801-49.3l.1-1c3.3 6.399 6.9 11.3 11 14.8 14.2 12.2 32.9 6.7 56.4-16.3-23.5 23-42.2 28.5-56.4 16.3-4.1-3.5-7.7-8.4-11-14.8v-.2c12.8-151.4 41.1-257.9 85-319.5 29.9-57.1 76.6-91.7 139.9-104.2-63.301 12.5-110 47.1-139.9 104.2-43.9 61.6-72.2 168.1-85 319.5v.2l-.1 1c-9.9 30.899-22.5 47.3-37.801 49.3-5.399.6-11.199-.4-17.3-3.4-17.8-10.6-21.1-45.399-9.899-104.5 18.699-86.3 40.8-165.2 66.5-236.6 36-69.8 74.699-121.2 116.199-154.101 47-34.8 97.301-37 151-6.899-53.699-30.101-104-27.9-151 6.899-41.5 32.902-80.2 84.302-116.2 154.102-27 52.3-52.5 114.8-76.4 187.8-17.7 46.7-31.3 93.2-41.2 139.4-8.5 14.1-17.1 24.8-25.7 32-1.6 1.6-2.8 2.899-3.699 3.6-8.9 8.1-15.2 13.3-18.9 15.6-7.2 4.7-14.6 6.7-22.1 6.301-24.5 3.199-36.301-3.301-35.4-19.4 1-16.7 15.7-43.5 44-80.3 25.9-44.601 45.3-88.4 58.4-131.5l35.899-96 62.4-135.2c13-26.9 29.6-48.8 50.1-65.3 21-17.101 48-30.301 81-39.901z"/><path id="sd1" fill="#322C29" d="M1467 557c-13.7 12-43.7 32.3-62.1 72.5-12.101 24.8-21.601 46.6-28.301 73.6-6.699 27.2-9.6 47.2-15.3 81.301 0 13.5-4.6 33.399-6.5 46.899-1.1 7.9-.7 12.5-1.6 20.5-4.601 40-6.3 72.7-7.8 88.7-2.4 24.1-5.301 46.7-5.101 71 0 5.9-.1 13.2 0 19.3.2 10.301 1.101 12.2 2.601 22.301.399 2.699-4 7.399-5.2 10-7.3 15.399-15 30.399-28 42.1-4.3 3.9-9.101 6.9-14.8 7.8-11.101 1.8-18.301-2.3-24.601-12.7-5.1-8.5-7.5-17.899-8.899-27.3-1.7-11.399-6.101-18-5.601-29.7.2-4.6-2.399-23.699 2.101-25.399 16.199-5.9 32.3-12.3 40.699-26.7 12.301-32.9 15.2-46 16.301-77-.601-12-.301-29.4.3-41.4.8-16.199 2.1-28.3 4.2-44.399 2.399-18.101 4.6-34 7.899-51.9 4.3-22.8 11.601-45.3 17.8-67.7 5.801-20.8 12.4-44.7 21.801-64.1 6.899-14.3 20.3-32.6 31.3-44.5 5.1-5.6 11.3-12.6 17.899-16.9C1438.1 567.8 1467.5 555.1 1467 557zm149.3.3c13 8.7 11.101 15.601 19.101 9.5 54.199-40.9 73.199-29.8 96.899-27.9 31.5 10.699 53.4 33.3 73.3 56.699 24.601 33.9 36.801 65.7 52.7 104.101 12.3 29.8 24.101 55.6 28.3 70.6 5.2 18.2 9.101 37.7 12.7 56.3 7.2 37.4 14.3 68 16.3 106 1.7 32.8 1 52-4.3 93.3-5.1 17.9-16.1 47.301-29.7 61-5.199-.899-2.1 13.801-1 24.301.301 2.6-.199 5.399.2 8 1.7 12.199 4.9 23.5 16.7 30 20.6 11.399 45-1.801 49.1-26.5-3.5 1.1-6.899 2.3-10.5 3.199-8.5 2.101-15.8 0-21.699-6.399-5.7-6.2-8.7-13.2-5.2-21.7 3.3-8 6.8-15.9 9.8-23.9 6.8-18.3 14.5-36.5 15.4-56.199.899-19.2 3.399-38.4 2.3-57.7-.5-7.601.8-15.5-.6-22.9-3.4-18.5-5.101-37.2-9.301-55.6-6.199-27-9.199-54.7-13.899-82-5.301-31.3-15.9-60.8-28.101-89.7-8.1-19.2-17.3-38-27.1-56.4-15.1-28.3-28.8-57.6-50.1-82.199-11.801-13.7-24.9-26-41.601-33.5-17.8-8.101-40-11.5-66-9.601C1661 535.3 1644 541.7 1616.3 557.3zM1386.4 527c-13.7 3.7-43.601 12.6-54.5 18.2-29.4 15-52.601 36.8-71.801 63.2-22.899 31.5-41.399 66.6-53.699 103.3-14.2 42.3-25.101 87.8-32 131.7-4.601 29.1-7.601 64-11.601 93.199-.899 6.5-1.899 11.5.4 17.301 3.899 9.6 19.7 17.699 28.899 17.399 11.101-.3 25.4-14 33.4-21.399 6.8-6.2 7-11.601 7-19.2 0-3.7 1-18.101 1-21.8-5 15.5-18.3 26.3-27.2 30.199-4 1.801-6.699 1.301-9.8-1.6-6.5-6.1-9.5-13.5-9.6-22.2-.2-13 2-25.7 3.8-38.5 4-28.2 10.4-56 17.3-83.6 8.5-34.5 19-68.4 32.801-101.3 13.3-31.601 28.5-62 50.3-89 15.7-19.4 35-33.2 57.5-43.101 10.899-2.1 11.899 3.4 13 5C1367.1 558 1382 536.9 1386.4 527zm392.7 159.4c-2.199 3.199 5.301 13.3 5.9 15 10.5 29.399 21.6 58.6 31.4 88.3 10.3 31.5 18.199 63.8 25.8 96.1 5.8 24.9 10.6 49.9 14.399 75.101 2.801 18.699 1.9 37.699 4 56.5 1.801 16.1 3.7 32.199 6.9 48.199.8 3.801 2.5 7.601 4.3 11.101.5 7 7.2 9 10.5 7.6 4.7-3.4 9.601-9.6 12.101-14.8 11.699-24.3 19.399-69.3 19.699-96.3-3.199 10.1-13.899 32.699-18.5 42.1-1.899 3.8-4.1 7.3-8.1 8.4-1.9-1.4-2.3-2.601-2.6-3.9-2.5-11.9-3.101-24.2-6-36.1-2.2-9-5.4-18-5.7-27-.7-16.7-4.4-32.7-7.8-48.801-4.601-22-9.5-43.899-14.7-65.699-3-12.5-5.8-25.2-10.3-37.301-8.4-22.699-16.7-45.399-26.2-67.6-4.9-11.4-9.8-22.9-12.5-35.5 6.1-1.4 11.7-.4 17.3-.8-11.499-3.5-29.199-10.5-39.899-14.6zm-433.7 268.2c-2.101 16.4-1.601 33.601-2.4 50.101-1 18.2-1.8 38.199 1.8 56.199 2.601 13 9.8 23.2 18.4 32.9 4.899 5.5 15 3.9 18.6-3 3-5.6 9-11.6 11.101-17.6 11.8-33 9.699-67.101 11.699-101.5.101-1.601-.5-3.3-.399-5 .899-11-.8-15.4-1-25.8 1.2-9.301 1.399-18.5 1.5-27.801.1-10.3 1.6-20.5 2.6-30.699.9-8.9.5-17.9 1.8-26.801 2.9-20 4.4-40.1 7.4-60.1 3.3-21.9 6.8-43.8 11.5-65.5 4.3-19.8 10-39.2 18.9-57.6 1-2 4.8-20.801 6-25.7 2.3-9.5 17.899-22.7 20.6-31.9-4 2-27.9 19.2-30 22.9-5.6 9.7-11.5 19.399-15.8 29.8-6.4 15.6-10.3 32.1-13 48.9-2.3 15-5 30-6.601 45.1-1.5 14.4-3.5 28.8-5.5 43.2-1.3 9.2-1.6 18.5-2.399 27.7-1.3 13.8-3.8 27.5-3.5 41.399.2 10.601-1.101 21.3-2.7 31.601-2.4 15.8 0 31.8-3.1 47.5-1.9 9.899-1.5 20.5-1.801 30.6-.399 18.3-3.399 36.4-2.5 54.6.301 6.101-1.6 11.801-2.399 17.7-.601 4.7-3.5 5.7-8.101 3.7-7.699-3.4-11.399-10.101-13.399-17.601-6.101-22.8-8.4-46.199-8.2-69.8 0-2.7-5.9-43.7-6.2-48C1345 929 1346.1 949.4 1345.4 954.6zM1107.7 791c-3.8 9.4-8.5 21.1-10.7 27-5.4 15-8.6 20.2-13.7 35.3-11.2 32.601-22.7 62.9-30 96.7-1.399 6.8-3.899 21.1-6.6 27.7-6.4 16.1-14.9 26.5-27.101 38.3-6.899 6.7-4.3 18.1-4.899 30.5 3.1 14.4 9.1 27 19.899 37.1 4.601 4.301 13.2 6.4 15.9 2.5 12.4-7.899 19.8-27.1 24.5-37.5-.8-.6-11.7 7.5-12.7 7.5-22.3-1.699-29.3-14.6-15.8-32.399 22.8-27.2 31.2-59.4 39.8-95.5-.5 1.6 3.301-15.101 4.5-21.2 4.101-20.8 6-33.4 12.2-53.8 3.9-13 37.3-133.7 37.3-134.3C1141 716.2 1110 786.7 1107.7 791zm84.4 210.1c4.7-.399 9.2-1.5 13.7-2.5 5.101-1.1 8.4.2 9.7 5.601 2.1 8.399 5.2 16.5 10.3 23.6 1.7 2.4 2.2 4.5-.5 6.9-9.5 8.399-21 8.699-30.899.6-5.101-4.2-8.7-8-12.101-14.7-3.1-4.6-7.2-13.1-10-17 0 8.3.101 24.7 0 33-.1 10.4 3.101 22.8 5.601 32.7 4.1 15.9 20.399 11.1 30.3 4.9 14.2-12.101 30.2-32.101 39.5-47.9 1.2-2.1 6.899-5.3 4.899-7.5-8.699-9.7-15.8-18.7-18-31-1.3-7.4-2.199-30.1-3.699-37-2.801-1.1-14.301 9-15.4 10-9.9 8.8-21.9 13.3-37.5 8.5-6.4-2.8-5.2 2-5.4 8.9-.1 2.699 0 11.3 0 14 2.699 6.099 13.899 9.399 19.499 8.899zm-253 19.3c-1.6 6.399.801 11.199 6 13.399 18.4 8 37.101 7.2 53.2-4.3 12-8.6 23-16.3 31.8-28.5 2.9-4 9.7-10.9 10.7-16-4.7 2.4-13.399 4.4-17.8 7.2-14.6 9.1-30.4 12.8-47.3 10.5-8.9-1.2-17.5-3.9-20.8-14-8.1 9.201-12.9 20.101-15.8 31.701zm153.2 85.8c-11.1-.9-16-7.2-14-18.2.601-2.9 1.2-5.9 2.5-8.6 10.3-20.9 21.8-41.301 33-62.301 2 9.7 2.2 19.601 6.2 32.601.6-1.2 3.3-7.7 3.3-8.8.2-9.601-1.399-27.2-1-36.801.2-5.1-5.6-2.699-9.1-3.6-4.101-1-8.5 6.2-9.601 8.9-13.199 25.8-25.1 42.7-40 63.899-4.199 5.9-8.8 14.4-10.1 21.5-2.1 12-5.4 23.9-6.6 36-.801 8.301 1.1 10.101 9.3 10.2 2 0 4 .1 6-.3 19.8-4.2 33.9-15.7 42.8-33.7-4.099-2.298-8.399-.398-12.699-.798zm9.9-238.6c-2.2 10.7-5.8 28.101-8 38.801-4.3 20.699-4.101 40.3-3.101 61.699.5 11.101 6.301 22.5 15.301 29.801 10.8 8.699 25 3.399 34.8-6.301 2.899-2.899 11.3-16.6 12.899-20.199 7.601-16.7 9.5-58.4 10.5-76.801-1.8 7.9-5 34.5-17.899 49.7-3.9 3-7.7 6.3-11.5 9.3-4 3.101-7.9 3.7-12.8 1.301-9.801-4.9-15.101-13.5-16.801-23.2-1.6-9.2-1.1-19.101.4-28.7 2.2-13.9 6.8-46.4 5.2-60.8-1.499.999-8.699 23.699-8.999 25.399zM1235.7 971c1.1 5 1.7 11.7 1.7 11.7 0 7.399 3.1 13.2 5.3 20.1 4.6 14.8 13.2 17.601 26.3 9.7 17.5-10.4 34-29.1 38-49.5-4.7 0-12.7 5.8-15.5 8.3-10.2 9.2-22.1 10.2-32.5 2.2-8.4-6.4-14.1-14.9-15.9-25.4-.6-3.1-5.399-10.699-8.6-12.1-.9 8.6-.7 26.4 1.2 35zm216.5-305.8c5-.4 21.3-1.601 26.1-2.4 27-4.6 53.2-19.1 76.7-33.399 3.2-1.9 15.9-6.5 18.3-5.4 0 0-6 11.2-7.6 15-1.7 4-4.5 7.4-5.101 11.8 6.5-3.8 10.301-10 15-15.6 9.4-11.5 16.301-24.601 24.7-36.4-1.899-1.9-3.399-1.7-5-1-5.5 2.4-11.1 4.5-16.399 7.2-27.2 13.7-54.5 27.1-83.601 36.6-10.899 3.601-21.7 8-33.5 8-2.399 0-3.8-10-4.2-11.7C1451.8 645.3 1445 665.7 1452.2 665.2zm190.7-9.1c2.199 3 7.899 9.801 10.8 12.101 12.399 9.399 25.1 18.7 38.399 26.8 13.4 8.2 28.301 18.9 43.2 23.7 1.601.5 7.8.399 9.2-.8 1.6-1.5-4.7-7-5.4-8.4-2.8-4.9-4.3-10.5-8.199-14.7-.301 3-1.601 4-4.7 2.8-13-5-26.2-9.5-38.101-16.7-13.899-8.399-26.3-18.699-38.3-29.8-5.3-4.899-10.5-10.7-20.399-13.899 4.399 7.399 3.199 13.699 3.6 19.8 8-3.002 5.5-7.002 9.9-.902zm75.9 6.8c.601-9.2 4.3-5.9 12.2-1.2 13.1 7.7 27 15.2 40.7 21.7 10.1 4.8 32 11.3 43.3 12-7-6.9-28.6-18.301-36.5-23.7-20-13.7-40.1-27.101-60.4-40.3-5.6-3.7-11-8.101-17.6-9.801-1.8 2.301-.6 3.801.3 5 4 6.101 7.4 12.601 12.601 17.801 3.699 3.8 5.899 7.6 3.8 13.3-1 2.8-1.601 6.7 1.8 9.1-.101-1.2-.301-2.6-.201-3.9zm-205.6 37.9c7.6 1.101 12.3-.7 16.6-2.7 14.9-6.6 29.4-13.899 42.4-23.8 12.899-9.8 25.6-19.8 38.1-30.2 4.3-3.6 10.9-14.699 15.4-11.8.2-1 .6.3-3.3-2.2-3.4-2.199-6.101 1.2-8.801 2.9-.6.4-1.1.8-1.6 1.2-17.1 11.3-34.1 22.6-51.3 33.899-5 3.301-10.101 6.301-15.2 9.301-2.7 1.6-4.4.8-4.6-2.4-9.399 7.7-15.499 18.5-27.699 25.8zm105.5-183.5c2.3-2.3 5.3-3.899 7.7-6.2 19.7-18.9 43.9-25.7 70.4-26.9 6.7-.3 73.9 23.399 63.9 17.8-3.7-12-50.7-30.6-64.3-32.6-14.301 3.5-23.5 5.3-39.7 9-15.3 6.199-36.8 18.8-47 33.199-1.9 2.7-4.101 5.2-7.2 6.7 9.1 6.301 9 6.201 16.2-.999zm-494 529.4c0 .3-1.8 6.1-1.7 6.399 5.2 10.4 18.7 18.301 30.1 20.7 10.601 2.2 21-7.1 21.7-13.4-1.2-5-5.5-13.199-5.899-18.1-.301-3.2.899-6.7-1.9-9.5 0 4.9.1 9.9-.1 14.8-.4 6.9-4.4 10.2-11.101 9.101-8.899-1.4-15.3-6.9-21.399-13.2l-4.9-9.2c-.2-3-2.6-12.399-2.7-15.3-4.301 11.1-.101 16.4-2.101 27.7zm427.8-560.9c16.8-12.6 34.9-20.1 54.8-26.8 3.601-1.2 19.3-1.9 29.9-3.7-8.9-1-32.8-9.6-41-8.8-1.101 2.8-5.8 5.7-8.3 6.8-18.101 8.2-41.2 22.601-53.301 39.3 4.601 3.6 13.701-3.7 17.901-6.8zM1442.6 455c15.7 5 31.801 14.6 42.801 23.7 1.3 1.1 3.399 10 5.8 9.6 5.8-.3 17 4 11.3-11.3.3-.5-18.8-17.4-25.2-20.4-2.8-1.3-5.5-3-8.5-4.6 2.4-1.9 5.4-.6 6.7-3.1-9.201-.7-23.801 4.1-32.901 6.1zm-272.2 528.7c-.2-3.3.8-15.2.3-18.4-.5-3.1-1.9-4.899-6-8.8-3.8-.5-6.8 10.7-7.7 13.8-3.3 11.101-9.4 20.3-19 26.7-15.3 1.3-12.9 4-11.3 22 13.7-7.8 28.7-19 38.3-31.7 2.5 3.101 2 10.9 2.4 13.101 2.9-3.101 3.2-13.201 3-16.701z"/><path id="l" fill="none" stroke="#000" stroke-linecap="round" stroke-linejoin="round" stroke-miterlimit="10" stroke-width="6" d="M1779.5 516.2l1.1.6c42.9 41.4 76.5 83.7 100.5 126.601C1892.6 661 1901.9 677.1 1909 691.8c8.1 16.7 13.9 32.4 17.4 47l21 272.7c3.3 31.8 4.699 56.6 4.3 74.3-.5 19.301-3.2 37.301-8.3 54-5.301 7.4-11.5 12.101-18.601 14.101-6.3 1.8-13.8 1.6-22.3-.601-8.4-.899-14.7-6.699-18.9-17.5-4.1-10.699-6.5-27.3-7.199-49.699M1774.8 684.5c-8.1-3-17.3-7.2-27.8-12.2-11.7-5.8-21-10.8-27.6-15.3 3.8 13.8 7.5 25.2 11.1 34.3 4.7 11.601 10.1 21.5 16.2 29.8-20.5-3.3-40.101-11.5-58.7-24.6-12.9-9.2-29.5-24.2-49.9-45.2-5.1 8.2-8.6 13.601-10.399 16.4-2.8 4.399-5.2 7.7-7.2 9.899-3.6 4.101-10.9 9.4-21.7 15.9 8.7-9.3 14.7-18.7 18.101-28.3 1.3-3.7 2.699-8.8 4.399-15.4 2.5-10.399 4.2-16.8 4.8-19.2-29.1 26.4-51 44.4-65.3 54.301-20.2 13.899-37.7 20.8-52.399 20.6 15.699-13.5 29.699-28.3 42-44.2 11-14.3 19.399-28 25.199-41-23.899 12.9-45.6 23.3-65 31.2-26.1 10.7-45.6 15.6-58.5 14.8m322.699 18.2c6 2.3 13.7 5.5 23.2 9.3 7.9 2.9 15.7 4.5 23.4 4.9-3.7-3.9-8.101-15-13.4-33.2-3.4-10.8-8-20.1-14.1-28-31.7-38-59.9-60.2-84.4-66.3m166.9 514.9c-2.801.101-5.7-3.3-8.601-10.3-2.3-5.4-4.3-12-6-19.8l-10.1-106.7c-16.2-104.3-41.7-192.5-76.9-264.8m101.601 401.6c2-.199 4-.699 5.699-1.699 2-1.101 4.301-2.801 6.801-5.301 7.699-12.5 13.6-26.399 17.6-41.699 4-16 6.4-34.7 7-56.301 3.1-42.8-2-92.399-15.3-148.8-8.2-46-23.101-93.8-44.5-143.5-15.8-43.2-39.4-81.2-70.9-114.1-48.399-48.4-98.5-50.1-150.3-5.4-46.7-29.7-95-36.6-144.9-20.6-75 35.6-117.199 121-126.5 256l-14.5 138.7c-.1.899-.199 1.7-.199 2.6-3.5 30.2-5.601 51.3-6.101 63.3-.8 16.601.101 31.101 2.601 43.601M1432.3 454.9c-25.2-3.4-50.5-3.601-76.2-.7-26.199 3.1-54.5 9.6-84.8 19.6-33 9.601-60 22.8-81 39.9-20.5 16.5-37.1 38.399-50.1 65.3l-62.4 135.2-35.899 96c-13.101 43.1-32.5 86.899-58.4 131.5-28.3 36.8-43 63.6-44 80.3-.9 16.1 10.9 22.6 35.4 19.4 7.5.399 14.899-1.601 22.1-6.301 3.7-2.3 10-7.5 18.9-15.6M1565 444.3c-16.4 2.2-29.4 6.2-38.7 12.2-10.2 6.4-17.3 15.6-21.3 27.6m60-39.8l-15.2-.399c-15.2-1.4-32.8-1.101-52.7 1.199-11 1.2-32.6 4.5-64.8 9.801m57.8 28.299c-8.199-8.5-16.699-14.8-25.5-18.9-7.1-3.2-17.899-6.399-32.3-9.399m347.2 61.299c-13.1-13.601-27.1-24.101-42.1-31.601-15-7.6-34.9-14.3-59.801-20-3.6-1.1-7.8-2-12.6-2.699-5.6-.7-9.8-1.301-12.6-1.601m.001.001c-5.9-2.3-12.601-4.5-20.301-6.3-8.5-1.8-14.6-3.2-18.6-4.2-16.4-3.8-32.5-5.7-48.5-5.5m87.401 16c-8.101-1.1-15.4-1.6-21.9-1.6-7.6 0-14.9.7-21.5 2.1-23.7 5.101-47.2 17-70.3 35.9m240.8 19.5c-37.6-22.7-69.5-33.4-95.8-31.8-25.9 1.5-50.101 15.1-72.4 40.6-25.8-12.9-50-22.3-72.6-28.3m0 0c-68.601-18-121.601-3.7-159 42.8-64.8 87.6-110.9 186.5-138.3 296.7v.3c-.301 1.5-.5 3.2-.801 4.7-14.3 104.1-10 162.899 12.801 176.5m176.7-522c-53.699-30.101-104-27.9-151 6.899-41.5 32.901-80.2 84.301-116.2 154.101m-147 362.8c.899-.7 2.1-2 3.699-3.6 8.601-7.2 17.2-17.9 25.7-32 9.9-46.2 23.5-92.7 41.2-139.4 23.9-73 49.4-135.5 76.4-187.8M1054.4 1087.3c.1-.199.199-.5.199-.699l.5-.7c10-14.8 17.9-26.7 23.7-35.9 10.601-16.7 19.4-33.2 26.4-49.399M1015.9 1019.5c-1.601 18.8-.601 33.6 2.899 44.6 4.3 13 12.601 21.7 24.9 25.9 1.399.4 3.6.2 6.6-.7 2.2-.699 3.5-1.399 4.101-2m0 0c-6.2 20.301-9 34.801-8.301 43.5.7 9.301 5.4 13.5 14.101 12.7 18.1-2.3 32.399-11.3 42.5-27.3 9.399-14.7 15.899-36.101 19.399-64.301M1539.5 583.7c-48.4 6.3-79.4 33.399-92.9 81.1 1.301.3 2.2.601 2.7 1 .3.2 1.3.4 2.8.5m-109.2 386.6c2 9.899 5.1 18.899 9.5 26.899 4.3 8 9 13.4 14.199 16.301 2.7 3.399 6.2 3.399 10.5-.301 3.5-2.899 8.2-9 14.101-18.1 5.2-13.1 8.7-27.7 10.5-43.9 1.6-13.3 2.2-31.3 2.2-54.1l8.5-157c5.199-37.5 10-65.4 14.199-83.9 6.4-28.3 14.9-52.5 25.5-72.5M1161.5 950.9c3.3 6.399 6.9 11.3 11 14.8 14.2 12.2 32.9 6.7 56.4-16.3m-66-292.7c-25.7 71.399-47.801 150.3-66.5 236.6-11.2 59.101-7.9 93.9 9.899 104.5 6.101 3 11.9 4 17.3 3.4 15.301-2 27.9-18.4 37.801-49.3l.1-1M1386.4 527c-63.301 12.5-110 47.1-139.9 104.2-43.9 61.6-72.2 168.1-85 319.5v.2M1470 552.6c-58.8 21.7-99.4 67.5-121.6 137.101-20.4 68-32 139-34.7 213-.601 36.8-5.601 64.2-14.8 82.2-9 17.6-23.4 28.699-43.2 33.3m-2.3-.501c.399.2.8.5 1.199.7.4-.101.801-.101 1.101-.2m0 0c-.4 32.3 1.3 55.7 5.399 70.2 4.5 16.3 11.801 25.699 22.101 28.1 9.2 2.6 19-2 29.2-13.9 8.399-9.699 18.5-26.3 30.5-49.699m-167.4 10.199c5.2 16.601 14.3 21.2 27.5 13.801 12.9-7.2 29.8-27 50.4-59.2m-131.3 34.199c1.101-8.801 1.7-16.301 2-22.601.2-7.1.2-15.899-.199-26.2m-1.801 48.801c18.4 25.399 36.2 29.1 53.4 11.199m-4.2-96.199c-1.5 24.399-1.899 44.1-1.2 59.399.7 14.9 2.5 27.2 5.4 36.801"/></g></switch></svg>