<svg xmlns="http://www.w3.org/2000/svg" id="hair" viewBox="0 0 3000 3000"><path id="cl1" fill="#A47642" d="M1772.416 755.143l47.701-79.101 49.397 177.7 19.801-51.7 29.302 33.601c-5.103-121.899-28.701-217.601-70.701-287-70.799-100.8-179.299-162.2-325.4-184.2-82.699-20.4-163-15.7-240.899 13.9l83.8 17c-67 23.8-126.6 48.3-178.8 73.6h-.101c-82.699 47.301-130.199 104.5-142.5 171.602-18.399 87.6-28.699 151.3-31 191.1-4.1 34-3.1 64.5 2.9 91.5 3.699 16.5 7.699 31.8 12.199 45.8 10.801 30.7 22.7 59.7 35.399 87.102 4.601 9.898 9.301 19.6 14.2 29.1 1.601 3.2 3.399 7.5 5.3 12.6.301.4.7 1.7 1 4 4.7 29.302-2.199 59.9-20.699 91.802l53.5-24 14.8 52.5 35.101-24.802 19.601 27.802 12.699-63.5c-40.899-6.802-72.399-23.5-94.5-50-2.899-3.302-5.699-6.5-8.399-9.802-1.399-1.698-2.8-3.398-4.101-5-12.199-16.3-21.1-30.1-26.699-41.5-9.301-19.3-13.699-37-13-53.398.399-12.8 3.5-25.4 9.199-37.7.601-1.3 1.5-3 2.5-5l.801-1.5c8.5-12.9 21.899-20.6 40-23.1 18.801-2.602 40.899.698 66 10.1 7.899 4.1 16.6 11.6 26.399 22.6 10 11.2 19.601 24.5 28.899 39.9 10 16.3 18.9 28.6 26.801 36.8 8.899 9.3 18 15.2 27.601 17.8l16.3-221.1 26.1 67.7c16-49.4 42.5-93.101 79.4-131.101l110.801-105.5 5 77.899c21.299-17.3 40.4-37.3 57.199-59.899 20.301-33.699 39.701-71 58-111.801 9.701 36.9 14.701 83.102 15.201 138.602l41.799-34.4 2 84.7 63.301-72.4 16.798 60.694z"/><path id="sd1" fill="#7A582E" d="M1346.916 405.643c-33.5 10.5-66.601 22-98.7 36.399-12.3 5.5-25.2 10-36.5 17.7 13 1.3 25.8-1.399 38.7-2.399 14.5-1.101 28.899-3.601 43.5-3.601 2 0 4.1.101 6-.399 11-2.9 22.399-2.7 33.5-3.2 42.201-1.899 84.399.899 126.701-2 23.897-1.7 47.897-.3 71.897-.399 2.899 0 6.603 1.601 9.301-2.899-8.301-3.2-16.301-6.3-24.198-9.4-20.701-8.398-42.4-13.199-64.302-17.2-17.5-3.2-35-6.7-52.801-8.7-10.397-1.199-21-2.199-31.299-4.8-5.802-1.5-10.302-3.5-13.302-8.7 1.704 7.098-3.696 8.098-8.497 9.598zm299 311.5c5.301-2.601 8.399-5.5 11.6-8.3 6.701-6 13.4-11.9 20.201-17.801 2.699-2.3 5.299-5.601 9.5-3.5 4 2 3.799 5.899 4 9.5.199 3.7.1 7.301.199 11 .201 17.301.301 34.601.6 51.899 0 2.101-1.199 4.7 1.5 6.301 3.201-1.5 4.9-4.399 7-7 14.9-18.301 29.801-36.601 44.701-55 1.9-2.399 3.6-4.899 7.199-4.5 4.198.5 4.698 4 5.6 7.199 3.801 13.101 7.801 26.101 11.801 39.2.699 2.4 1.301 4.8 3.9 7.9 3-7.301 8.299-11.7 10.1-18.301-4.301 1.7-4.199-1.101-4.1-4 .5-24.601.1-49.101-4-73.399-1.201-7.5-1.9-15.101-3.1-24.2-22 41.9-42.4 82.8-72.5 118 13.1-55.7 13.397-111.2 2-168.1-3.103 3.399-3.603 6.3-4.302 9.1-7.301 28-17.6 55-31.198 80.601-5.201 9.8-11.603 19.101-20.701 26v17.401zm179.1-28.299c14.801 53.399 30.602 106.699 43.102 160.699.299 1.399 1 2.399 2.799 3.2 1.302-5.101 4.802-9.399 4.802-15-3.701-1.601-4.302-4.801-4-8.301.6-8.399-1.701-16.399-2.5-24.6-1.802-18.7-4.4-37.3-7.701-55.8-3-16.9-6.397-33.7-11.199-50.2-6.301-21.7-15.6-42.2-24.698-62.9-2.9-6.5-6.302-12.699-10.302-20.5-2.301 4.301-1.698 7-1.698 9.4-.101 18.5 3.299 36.8 4.198 55.3 4.997.901 6.097 4.801 7.197 8.702zm-310.9-1.701c1.101 10.8 2.398 21.601 3.601 32.399.899 8.2 1.899 16.5 3 25.801 4.1-3.5 7.199-5.801 9-9.5-2.101-2.301-.301-4.7.5-6.4 4.699-10 7.199-20.6 10.199-31.1 3.801-13.301 7.1-26.7 9.7-40.4 2.898-15.3 2.601-30.898 5.398-46.199.899-5.101.102-10.601.102-15.899-3.899 5-6.2 10.1-8.5 15.2-3.7 8.6-9.801 15.8-13.801 24.1-7.5 15.5-16.699 30-25.601 44.7 4.402.399 6.003 3.098 6.402 7.298zm-233.599 374.603s-35.29-9.265-45.04-16.202c-22.333-15.89-49.644-72.711-68.879-85.296-16.107-10.539-38.361-17.465-51.083-16.724-14.877.867-35.503 18.711-37.348 47.309-2.667 41.333 18.616 79.026 34.41 98.571 31.59 39.095 91.923 45.095 91.923 45.095l-18.187 90.543-19.598-27.798-35.103 24.798-14.015-49.712-52.775 18.568s7.782-15.411 17.784-45.376-4.895-60.38-13.175-76.99S1020.5 952.5 1010.537 905s18.8-190.438 18.8-190.438S1072 770 1143 827s164.5-21 164.5-21l-10.684 34.646-16.299 221.1z"/><path id="hl1" fill="#C79050" d="M1069.816 577.744c1.5-.399 3.3-1.601 4.199.699 2.5 6.4 8 10.5 11.801 16 5.601 8.102 14.3 12.7 22.601 17.602 19.199 11.5 39.399 20.199 61.699 24.3 12.399 2.3 24.899 3.5 37.301 5.2 18.699 2.6 37.5 4.199 56.199 6.1 21.801 2.2 43.399 5.9 63.899 13.9 30.5 11.898 54.801 31 68.201 61.898.1.301.299.602.399.9.898 2.1 2.898 4.8.299 6.199-2.6 1.5-3.698-1.8-5-3.6-8.698-12-21.799-16.801-35.1-21.2-14.1-4.7-28.301-9.3-42.4-14-10.399-3.5-21-6.101-32.1-6-12 .101-24.101-1.101-36 .3-28.199 3.301-56.5.7-84.801 1.801-15.1.6-29.6-3.2-44.399-4.801-16.601-1.8-32.2-7.699-48.101-12.1-7.899-2.2-15.399-6.101-23.1-9.301-1.9-.8-3.101-2.5-4.101-4.3 6.204-27.798 15.404-54.398 28.504-79.597zm720.401-94.301c-5 .4-5.201 4.801-6.1 8-2 7.2-6.5 12.102-12.4 16.301-5.201 3.699-10.701 6.899-16.6 9.101-17.103 6.3-33.603 13.8-51.4 18.3-25.801 6.5-51.6 10.8-78.1 10.601-9.302-.101-18.603 0-27.9 0 6.199 2.601 12.6 3.199 19 4.399 23.299 4.101 46.4 1.3 69.4-1.3 14.698-1.601 29.6-3 44.299-4.9 10.801-1.399 21.6-2.6 32.301-4.8 8.4-1.7 16.801-3.899 25.199-5 10.899-1.399 21.399-4.3 32.1-6.399 2.9-.601 4.801-2 6.102-4.601-10.302-14.702-22.401-27.801-35.901-39.702z"/><path fill="none" stroke="#000" stroke-linecap="round" stroke-linejoin="round" stroke-miterlimit="10" stroke-width="6" d="M1772.416 755.143l-16.799-60.7-63.302 72.4-2-84.7-41.801 34.399c-.5-55.5-5.5-101.699-15.199-138.601-18.301 40.801-37.698 78.101-58 111.801-16.801 22.601-35.899 42.601-57.198 59.899l-5-77.899-110.802 105.5c-36.899 38-63.399 81.699-79.399 131.101l-26.101-67.7-16.301 221.101c-9.601-2.601-23.194-5.703-35.017-11.494-10.225-5.009-22.057-8.416-32-24.75-9.354-15.366-15.25-22.5-23.25-37-7.116-12.898-11.916-22.686-19.817-26.785-25.101-9.399-43.899-20.462-62.7-17.861-18.1 2.5-19.232 15.248-27.732 28.146l-5 14.25c-1 2 1.601 7.165 1 8.465-5.699 12.3.4 10.735 0 23.535-.698 16.4 6.7 20.199 16 39.5 5.602 11.399-1.199 1.834 11 18.136 1.301 1.6 6.711 10.415 8.111 12.114 2.7 3.301 14.989 9.7 17.889 13 22.101 26.5 38.601 24.2 79.5 31l-22.185 93.043-19.601-27.8-35.1 24.8-14.801-52.5-53.5 24c18.5-31.899 25.4-62.5 20.7-91.8-.3-2.301-.7-3.601-1-4-1.9-5.101-3.7-9.399-5.3-12.601-4.9-9.5-9.602-19.199-14.2-29.1a981.112 981.112 0 0 1-35.4-87.101c-4.5-14-8.5-29.301-12.198-45.801-6-27-7-57.5-2.9-91.5 2.3-39.8 12.6-103.5 31-191.101 12.3-67.1 59.8-124.3 142.5-171.601h.1c52.2-25.3 111.801-49.799 178.801-73.601l-83.801-17c77.9-29.6 158.201-34.3 240.9-13.899 146.1 22 254.6 83.4 325.4 184.2 42 69.4 65.6 165.101 70.698 287l-29.299-33.6-19.801 51.699-49.4-177.699-47.695 79.105"/></svg>