<svg xmlns="http://www.w3.org/2000/svg" id="hair" viewBox="0 0 3000 3000"><path id="cl1" fill="#796E58" d="M1259.699 418c57.301-39 196.699-38.699 196.699-38.699 211 16 310.301 117.3 310.301 117.3 51 41.899 90.301 134.7 90.301 134.7 12.3 41-11.7 49.3-11.7 49.3-25.3 17.7-93-25-93-25C1635.3 584 1557 587 1557 587c-158.7-3-257.7 62-257.7 62-114.7 77.7-96 181-96 181-1.3 29 26.3 136.7 26.3 136.7-3.699 7.3-52-14-52-14-5-8.3-22-13.3-22-13.3-90-15.7-98.699 28.3-98.699 28.3-24 58 39.601 134.7 39.601 134.7 10 13.3-3.301 22.199-3.301 22.199C1047.6 1170 966.6 1170 966.6 1170c-52-1.699-117.3-23.699-117.3-23.699-15-6.301 59-30.7 59-30.7 16.3-9.699 1.7-11.3 1.7-11.3-6.301.699-73.7 0-73.7 0-37.7-8.301 12.3-12 12.3-12 88-7.7 84.301-79 84.301-79 4-59.3-60.301-170.7-60.301-170.7-45.699-89.3-42-107-42-107-6-61.3 35.301-134.3 35.301-134.3 42.699-72 28-71 28-71-20-16-114 22.699-114 22.699-12.101 1.601-6.301-2.699-6.301-2.699C837.3 470.301 967.3 437 967.3 437c5-.3 8-7 8-7-13.3-15.3-103-13.3-103-13.3-15.7 2-7.7-12-7.7-12 106.301-49.7 203-32.7 203-32.7-4.699-15.699-63.8-52-63.8-52 151.8-5.3 235.101 100 235.101 100 7.298 8.1 20.798-2 20.798-2z"/><path id="sd1" fill="#5F5340" d="M1516.1 395.7c-15.301-2.1-48.1-9.2-96.5-2.2-27.301 10.2-55.6 18-81.699 31.4-16.601 8.5-31.399 19.8-46 31.199-10.2 7.899-20.301 16-29.5 25.101-18.5 18.3-29.601 40.5-36.5 65.2-2.601 9.199-2.301 18.5-1.801 27.699.5 10.7 7.5 17.301 16.4 22.101 17.399 9.5 36.6 13.7 55.5 18.601 8.3 2.199 25.399 7 34.1 6.601 15.4-.7 23.801-1.5 28.801-1-5.5 4.399-36.301 15.5-42.399 18.8-16.4 8.899-13 5.8-27.801 17.3-34.699 26.801-44.3 36.101-69 81.5-4.3 15.7-16.601 57.5-17.4 73.9-2 41.3 1.701 45.199 11.101 85 1.2 5.1 8.5 36.699 9.5 41.899.102.5 11.4 47.101 11.1 47.699-2.5 1.2-48.808-4.589-50.906-5.39-15.344-25.61-23.856-24.11-25.356-22.61-.801.101-39.008-13.271-66.708.329-13.898 6.9-14.631 30.771-24.529 42.671-4.9 2.699-21.699-64.5-22.498-67.7-4-16.8-6.201-27-9-44-6.801-41.101-7.4-84.399-6-126 1-30.5 7.299-63.601 13.799-93.601 6.701-30.899 18.701-59.7 32.701-87.601 14-28.1 33.799-54 55.5-76.8 10.1-10.601 45.299-39.899 54.6-46.601 7.801-5.601 91.199-52.6 119.9-61.399C1334.4 389 1365.6 384.2 1395.9 382.2c14.199-1 29.898-2.7 44.199-2.7 23.9-.1 48.4 2.9 72.101 6.2 22.1 3 41.5 7.7 63 13.3 4.2 1.101 43.7 17.001 47.801 18.4.599.5-83.401-18.5-106.901-21.7zM966.699 1170c26.301-.3 50.801-4.3 75.101-14 14.3-5.8 36-17.399 47.5-27.6 5.2-4.601 31.2-20.9 26.281-28.971-47.649-60.43-46.149-92.229-47.649-96.93 0 0-19.232-44.4-20.531-49.2-10.399-38.5-18-78.601-20.101-118.301-1.5-29.1-.899-40.899-.3-81.899 9-57 14.699-85.899 34.199-143.399 13.1-28.899 48.5-79.899 50.199-81.899 10.801-12.101 21.9-24.801 33.801-35.801 15.899-14.699 29.301-25.1 47.199-37.199 10.2-6.899 18.801-11.899 29.399-18.101 6-3.5 21.601-12 17.101-16.601-12.8-13.5-27.699-28.399-42.601-39.5-8.699-6.4-27.5-19.3-38.399-22.5 1.801 4.2 9.801 13.8 14 20.5 0 0 9 10 11.801 24.5C1184 406 1184 409 1182 411.7c-6.801 8.899-14.601 16.399-25.9 18.899-9.399 2.101-18.5 5.5-28.399 4.601-1.4-.101-2.601.5-3.199 2.601 5.699 3 10.5 7.399 14 13.199 5.1 8.601 4.199 11.4-4.301 16.9-14.3 9.399-30.3 15.3-45.601 22.5-18.301 8.6-37.1 16.1-56.899 21.1-4.3 1.101-8.8 2.101-12.9 4.801 2.2 3.6 6.2 2.899 8.8 4.699 3 2.101 6.301 3.7 9.301 5.801 7.8 5.5 9 13.101 3.101 20.5-2.7 3.399-5.9 6.3-9.301 9-14.9 12.3-32.199 21-48.9 30.5-13.5 7.699-27.199 15.101-41.199 22.899 1.199.899 1.9 1.8 2.699 2 13.301 2.899 18.801 13 21.701 24.7 4 16.1 4.199 32.199-1.101 48.1-5.2 15.7-10.7 31.4-15.601 47.301-5.2 16.8-10 33.8-8.8 51.699.199 2.301.3 4.801-.301 7-4.101 14.7 0 29 1.899 43.301 2.7 20.5 13.5 38 21.3 56.699 9.102 21.7 19.301 43.001 23.602 66.4 1.1 6.199 3.398 12.101 5.398 18.101 7 21.8 15.301 43.1 14.602 66.699-.301 9.9.898 20.101-1.2 29.5-6.8 29.101-27.101 65.801-50.101 85.801-10.1 11.3-19.2 13.399 11.999 12.999zM880.3 598.9c10.399-20.2 23.8-39.2 28.101-62.2 1-5.2 3.5-6.5 8.8-4.899 13 4 26.5 6.101 38.801 12.101 1.699.8 3.699 2 5.299-1.7-4.898-3-9.799-6-14.898-9-18.301-10.8-39.899-12-59.2-19.899-1.699-.7-4-.2-5.9-.301-14.898-1.1-28.898 3.301-42.898 7-7.5 2-15.801 2.101-22.4 7.2 2.7 1.399 5.3 1.399 7.9-.2 2.3-2.1 5.699.301 8-2 1.699-1.699 4.398-.1 6.1-2 5.9-2.3 12.3-2.6 18.4-4.199 10.5-2.801 21.199-2.7 31.8-1.7 15.8 1.5 19.899 10.301 16.899 22.101-1.699 6.5-3.5 12.8-6.6 18.8-10.9 21-21.701 41.9-32.601 62.9 0 1.399.101 2.699.101 4.1C872.3 617.2 875.8 607.7 880.3 598.9zm628.8-120.5c-4.1-20.4-8.1-41-15.301-60.7-2.199-5.899-5.398-10.6-11.199-13.399-2.801-1.4-5.699-2.301-8.5-.301-2.899 2.101-2.899 5.4-2 8.2 3.4 11.399 4.699 23.399 8.601 34.7 5.301 15.399 10.6 30.8 14.7 46.5 4.699 18.5 11.601 36 20.199 52.899 1 2 1.5 4.399 5.301 6C1518.3 527 1514 502.6 1509.1 478.4zM1813.699 591c.699 1.301 1.399 2.601 2.1 4l2 2c1.801.5 2.602-.1 2-2 0-.699-.1-1.3-.1-2-.699-.6-1.301-1.399-2-2l-2-2c0-.6 0-1.3-.101-1.899-.699-.601-1.199-1.399-2-2-9.6-14.8-20.6-28.399-33.5-40.699-11.1-10.601-22.801-20.301-34.6-30-10.301-8.4-21.301-16-33.301-21.801-31.699-15.5-64.199-28.8-99.199-34.8-14.4-2.5-28.7-5.399-43.4-4.801-7 .301-14-.199-21 .2-3.301.2-9.301-2.101-9.5 2.101-.301 5.601 5.9 3.899 9.4 3.699 13.699-.5 27.399.101 40.699 2.7 25.301 4.899 50.5 10.399 75 19.2 41.6 14.899 78.5 37.1 110.2 68.1 13.101 12.801 24.398 27.101 37.101 40.2.902.4 1.602 1 2.201 1.8zm-64.899-36.699c-11.3-7.7-22.5-15.399-34.601-21.7-18-9.3-35.899-19.199-54.5-27.101C1639 496.6 1617 490.9 1595 485.801c-15.301-3.5-30.9-4.2-46.4-1.301-3 .601-8.199 0-7.5 4.301.7 4.101 6 2.8 8.601 1.899 12-4.3 24.2-.899 35.5 1.101 33.101 5.8 65.101 15.699 95.399 30.601 24.801 12.199 49.5 24.5 72.4 40.1 1.399 1 3.1 2.801 5.699 1.2-2.599-4.002-6.099-6.802-9.899-9.401zM1393.4 489.6c-21.2 3.7-42 9.2-62.2 17.101-24.3 9.5-46.8 22.2-68.3 36.8-4.7 3.2-8.5 7.5-12.101 11.9-1.101 1.3-1.3 3.199.3 4.399 1.2.899 2.5.101 3.5-.801 5.9-4.8 11.601-9.899 17.801-14.399 28.2-20.4 60.2-32.2 93.3-41.7 14.301-4.101 29-6.601 43.801-8.301 13.5-1.5 26.8-4.101 40.5-3.899 2.3 0 4.601-.5 6-3.5-21.101-.8-42.001-1.2-62.601 2.4zm5.1 38.3c-20.601 3.199-40.601 9.399-60 17.199-13.6 5.4-26.4 12.4-38.4 20.9-2.699 1.9-5.1 4.2-6.5 7.4-.699 1.6-1.1 3.199.601 4.399 1.2.9 2.5.7 3.7-.2 2.5-1.699 4.898-3.5 7.398-5.1 9.201-6 18.301-12 28.4-16.5 29.801-13.4 61.5-20 93.5-25.4 8.899-1.5 18.301-1.6 26.5-6.8-18.699-1.898-37 1.202-55.199 4.102zm331.3 65c-1.7-3.4-4.399-5.801-7.5-7.801-29.2-18.899-58-38.5-91.101-50.601-26.6-9.8-53.5-17.699-82.3-15.699-2.101.101-4.801-.899-6.101 2.699 4.801 2.2 9.801 3.601 15.101 3.301 8.101-.399 15.8 1.699 23.601 3 19.4 3.2 37.699 10.101 55.9 17.2 23.199 9.101 45.8 19.2 67 32.601 8.2 5.4 15.799 12.1 25.4 15.3zm-341.7-137.099c-24 5.399-47.399 12.899-69.699 23.399-6.801 3.2-13.801 6.7-18.7 12.899-1.101 1.399-1.899 2.801-.699 4.5 1.3 1.899 3.199 2.2 5.199 1.101 1.2-.601 2.5-1.101 3.5-1.899 7.7-7.2 17-11.301 26.7-15.101 30.601-12.101 61.899-21.601 95-23.8 2-.101 4-.101 4.8-3.601-15.601-.799-30.901-.899-46.101 2.502zM1836 623.7c.699-.399 1.3-.899 2-1.3-6.7-8.801-10.2-19.5-18.101-27.5l-2 2c5.901 9 12.001 17.901 18.101 26.8zM882.6 741c-14.5-20.8-15.899-43-7.6-66.3 4.8-13.5 10.699-26.399 18.1-38.7 5.9-9.6 9.801-20.3 13.7-30.899 1.2-3.399 2-7 2.8-10.601.301-1.699-.199-3.5-2.1-4-2.2-.6-2.9 1.2-3.301 2.7-4 14.2-11.601 26.7-18.8 39.399-9.2 16.2-19.101 32-24.301 50.101-6.199 21.7-5.6 42.5 9.2 61.2 7 8.8 17.601 12.699 26 20.1-6.798-6.5-8.599-15.8-13.698-23zm209.599-328.8c-28.5-8.8-57.4-15.6-87.101-19.8-16.3-2.3-31.699-.3-47.199 2.9-2.2.5-4.399 1.5-6.399 2.6-.601.3-1.101 1.7-.9 2.5.199.8 1.101 1.9 1.801 2 1.601.2 3.3.1 4.898-.2 15.201-2.6 30.701-2.3 45.801-.7 22 2.301 43.601 8 65.199 13 15.4 3.601 30.602 8.2 46.701 8.2-7-5.5-15-8.1-22.801-10.5zm-94 37.101c-23.399 1.899-46.601 6.5-68.601 15.101-31.1 12.199-56.199 27.3-60.899 36 62-37.801 128.2-51.9 199.5-42.2-22.899-7.802-46.299-10.901-70-8.901zm-56.5 449.199c-9.899-20.699-21.399-40.6-29.899-61.9-3.399-8.601-6.5-17.399-9.7-26.101-.6-1.6-1.1-3.399-3.3-2.6-1.7.6-2.601 2.1-2.5 3.899 0 1 .399 1.899.601 2.899 1.8 10.5 5.101 20.601 9.199 30.399 9.5 22.7 22.301 43.7 34.2 65.101 3.7 6.601 6.399 13.801 12.5 19-2.4-10.797-6.4-20.896-11.101-30.697zm66-416c-20.5 0-40.101 3.601-59.199 10.5-2.301.801-4.7 1.9-3.7 4.801.899 2.8 3.2 2.699 5.7 1.8 5-1.699 10.1-3.101 15.199-4.8 10.2-3.301 20.801-3.399 31.301-5 6.3-.899 12.8-1.899 18.8-.601 10.8 2.399 21.8.8 32.601 3.399 3.199.801 6.699 3.399 12.3-.101-18.502-5.798-35.101-9.998-53.002-9.998zM941.9 1064.801c16.101-3.101 27-11.899 31.199-28.399 2.5-9.801-.8-19.101-1.899-28.5-.5-4.2-2.199-8.301-3.399-12.5-.601-1.9-1.399-4-4-3.5-2.2.399-1.899 2.5-1.899 4.1 0 3-.101 6 .399 9 3 17.7 1.899 34.101-11.2 48.301-3.201 3.498-6.902 7.097-9.201 11.498zM913.5 716.6c.699 1.801.899 4.301 3.6 3.801 3-.601 1.5-2.801 1.4-4.7-.601-15.8-1.7-31.7.899-47.5 1-5.899 2.3-11.601 4-17.3.699-2.301.699-4.801-2.399-5.601-2.601-.7-4.5.399-5.601 2.8-.7 1.5-1.2 3.101-1.801 4.601-4.199 11.3-6 23-5.8 36.601C906.3 698 910.1 707.301 913.5 716.6z"/><path fill="none" stroke="#231815" stroke-miterlimit="10" stroke-width="6" d="M1259.699 418c57.301-39 196.699-38.699 196.699-38.699 211 16 310.301 117.3 310.301 117.3 51 41.899 90.301 134.7 90.301 134.7 12.3 41-11.7 49.3-11.7 49.3-25.3 17.7-93-25-93-25C1635.3 584 1557 587 1557 587c-158.7-3-257.7 62-257.7 62-114.7 77.7-96 181-96 181-1.3 29 30.7 156.5 30.7 156.5-3.699 7.3-53.25-6-53.25-6-5-8.3-11.749-21.127-11.749-21.127-90-15.7-92.324 12.21-92.324 12.21-24 58 37.316 125.167 37.316 125.167 10 13.3-14.309 22.066-20.793 27.85-50.95 45.445-126.6 45.4-126.6 45.4-52-1.699-117.3-23.699-117.3-23.699-15-6.301 59-30.7 59-30.7 16.3-9.699 1.7-11.3 1.7-11.3-6.301.699-73.7 0-73.7 0-37.7-8.301 12.3-12 12.3-12 88-7.7 84.301-79 84.301-79 4-59.3-60.301-170.7-60.301-170.7-45.699-89.3-42-107-42-107-6-61.3 35.301-134.3 35.301-134.3 42.699-72 28-71 28-71-20-16-114 22.699-114 22.699-12.101 1.601-6.301-2.699-6.301-2.699C837.3 470.301 967.3 437 967.3 437c5-.3 8-7 8-7-13.3-15.3-103-13.3-103-13.3-15.7 2-7.7-12-7.7-12 106.301-49.7 203-32.7 203-32.7-4.699-15.699-63.8-52-63.8-52 151.8-5.3 235.101 100 235.101 100 7.298 8.1 20.798-2 20.798-2zM1066.5 1007S916 583 1248 423"/></svg>