<svg xmlns="http://www.w3.org/2000/svg" id="hair" viewBox="0 0 3000 3000"><path id="cl1" fill="#A47642" d="M1919.2 727.573c0-.1.1-.2.1-.3 34-78.9 39.9-144.4 17.601-196.7-35.101-105.6-106.7-169.1-215.101-190.4-66.7-21.6-147.6-27.8-242.7-18.4-61.5 5.5-112.899 37.5-154 96.1-.1 0-.1 0-.199.101 20 81.899 69.3 143.399 148.199 184.5.101 0 .101.1.301.1 41.399 28.2 93.399 31.2 156 9.2 21.3-6.2 41.399-10.4 60.1-12.8 41.4-19 78.4-30.7 111.1-35.4 38.7 2.8 67.4 24.4 86.2 65-18.8-40.6-47.5-62.2-86.2-65-32.699 4.7-69.699 16.4-111.1 35.4 24.2-3 46.2-2.9 66.1.399 32.5 8.801 54.7 26.4 66.601 52.9 24.5 50.8 42.6 100.3 54.5 148.7 4.8 42.5 2.399 79.3-7.3 110.3-10.101 51-21.801 90.5-35.2 118.4-14.9 24.399-17.9 50.199-8.9 77.5 2.7 21.5 2 50.399-2 86.5 7.2 9.3 38 18.399 92.3 27.3 45.301 4.3 57.7-10.5 37.301-44-15.4-27.9-21.2-50.2-17.5-67 8.199-19.9 31.8-44 70.8-72.3 42.2-40.9 38.7-76.9-10.2-107.801-45.5-27.399-79-56.199-100.5-86.1-14.403-11.098-6.603-49.798 23.697-116.199zm-446.1-125.099c-41.1 93.899-109.8 174.7-206.1 242.3-46.3 28.1-71.7 87.5-76.2 178.3-19.7-27.2-37.6-55.8-53.7-85.8-17.699-33.3-33.1-68.3-46.3-105 13.2 36.7 28.601 71.7 46.3 105-1.699-.3-3.399-.7-5.1-1-12.5-2.3-24-2.7-34.5-1.2-18 2.5-31.3 10.2-39.9 22.9v.3c-1.6 3-2.699 5.1-3.3 6.5-5.7 12.2-8.8 24.8-9.3 37.7-.6 16.3 3.8 34.1 13.1 53.2l-1.199.899c-2-3.1-4.101-6.3-6.101-9.399-13-19.101-29.5-53.101-49.6-101.801-45.5-109.6-26.101-237.899 57.899-384.6 49.4-65 138-112.7 266-142.9-.1 0-.1 0-.199.101 20 81.899 69.3 143.399 148.2 184.5zm-375.8 509.599c21.8 26.301 54.2 43 97.3 49.9.301 0 .7.1 1 .1 16.5 1.801 25.101 10.101 26 25-21.5 52.9-62.6 75-123.199 66.5 11.699-5.899 19.3-21.1 23.1-45.6 6.3-23.1-12.4-69.2-56-138.1l.1-.2c8.299 14.001 18.899 28.1 31.699 42.4z"/><path id="sd1" fill="#856032" d="M1871.6 905.674c1.9 4.399 5.801 6.199 10.101 7.5 15.399 4.6 29.3 12.699 43.6 19.8 9.4 4.7 17 11.7 23.8 19.6 10.601 12.4 12 29.601 3.9 43.8-4.7 8.2-10.9 15.101-17.7 21.601-34.8 33.6-65.8 70.5-95.5 108.6-5.2 6.6-9.6 13.6-11.6 21.8.3-20.399-3.5-40.199-7.3-60.199-2.801-14.5-2-29.101 4.1-43 4.8-11 9.5-22 14.2-32.9 8.3-19.2 14.899-39 19.6-59.5 3.599-15.903 7.499-31.703 12.799-47.102zm-407.8-286c3.7-8.9 14.101-14.601 5.7-19-71-37.801-101.5-71.801-134-149.601-.2-.6-8.7-24.3-8.9-24.899-2.699-9.3-9.699-5.801-19.1-3.801-39.3 8.2-77.4 20.101-114.2 36-9.399 4.101-19.1 7.9-27.7 13.7 9.7.2 19.4-.3 29 .8 42.801 5 81.9 19.9 118.5 42.5 31 19.2 55.9 45.2 82.2 69.601 20 18.6 36.2 40.899 54.601 61.1 5.599-8.201 9.999-17.201 13.899-26.4zM977.3 829.573c-.899 41.2 6 80.8 23.8 118.4 15.4 32.5 31.5 64.7 49.101 96.1 2 .801 29.3-.685 28.8-2.685-6-23.3-13.767-27.771-6.167-50.972 3.2-9.899 4.826-20.807 12.826-27.807 14.1-12.2 16.438-18.027 34.839-16.927 5.8.399 20.969 2.744 18.668-2.556-6-14.4-23.766-52.554-30.966-66.453-3.4 3.1-11.601 9.3-16.101 9.399-13.699.3-27.199-1.2-40.399-4.5-9.5-2.399-18.3-6.6-25.5-13-12.2-10.7-24.2-21.7-34.5-34.3-8-9.8-13.7-20.3-11.601-33.7.4-2.2-.199-4.6-.399-6.899-3.301 11.9-2.101 23.9-2.401 35.9zm906.8-206.5c-3.5-6.8-10-16.5-14.399-22.8-19.5-28.1-40.9-39.8-75.3-35.7-24.101 2.8-51.2 12.7-73.601 21.101-.1.1-21.6 8.6-21.7 9 2.7 1.8 20.4 2.1 23.2 2.199 44.8.5 82 15.601 101.5 56.601 11.2 23.399 21.4 47.3 30.101 71.8 5.399 15 10.399 30.1 15.6 45.2 2.5-3.7 3.4-7.9 4.2-12.2 3.899-21.2 8.399-42.4 11.3-63.7 2.3-17.4 4.9-34.9 1.6-52.5-.6-3.4.101-6.6 1.301-9.8-1.702-5.201-1.702-5.201-3.802-9.201zm-834.918 419.179c8.5 15.801 53.719 95.922 62.519 111.521 10.1 17.9 12.399 36.9 9.6 57-2.3 16.7-9 30.5-23.899 39.6-.301.2-.2 1.101-.4 2.101 4.4 2.399 9.6 2.3 14.4 3 54.699 7.199 90.433-24.64 112.238-46.997 1.3-3.1 18.14-22.988 16.339-26.288-5-9.5-24.139-49.665-37.739-48.464-2.601.199-17.639-4.124-20.239-4.225-24.2-1.5-34.134-13.333-54.333-26.333-13.5-8.7-40.392-52.106-51.092-63.906-4.001-.401-28.694.691-27.394 2.991zM1346.2 388.974c-18.8 27-26.5 22.6-14.2 53.7 4.7 12 17.4 38.199 22.5 50.1 11.4 26.5 30.4 42.7 50.6 62.8 22.9 22.8 58.801 43.5 88.9 55.7-6.6-8.8-13.2-15.2-15.4-18.1-6.6-8.8-11-18.7-14.399-29.101-4.5-13.6-5-27.8-6.101-41.899-5.6-3.601-11.1-7.2-16.699-10.9-30.5-20.3-54.5-46.3-69.9-79.9-5.4-11.8-11.5-23.2-17.3-34.799-1.9-3.9-3.9-7.7-4-12.2-1.401 1.599-2.901 2.999-4.001 4.599zm120.5 72.899c3.2-16 6.7-31.899 9.7-47.899 5.199-27.8 12.8-55 20.199-82.3 1.801-6.6 4.4-12.6 11.5-15.3-24.6 1.1-48.5 6.1-72 13.5-10.399 3.2-20.8 6.5-30.199 12.3 5 .8 5.8 4.8 6.5 8.8 1.899 10.5 3.6 21 5.899 31.4 5.101 22.8 11.8 45.1 24.4 65.1 5.399 8.5 12.8 15.3 19.3 22.8 3.201-1.901 4.001-5.1 4.701-8.401zm-362.9 404.4c12.2 28.8 22.8 46.2 35.3 74.9 2.7 6.1 9.7 18.399 13.5 24.1 11.2 16.6 21.9 33.4 33 50 1.101 1.7 1.601 4.6 4.9 4.1 1.2-3.899.7-7.899.7-11.899.1-17 2.2-33.9 5-50.601 2.8-16.5 15-36.899 19.8-52.8-1.8.9-10.2 6.5-12 7.4-11.3 5.7-22.6 6.2-34.7 1.8-12.199-4.5-20.5-13.5-29-22.3-12.699-13.2-37.1-46.8-48.399-61.2.499 4.1 10.399 32.8 11.899 36.5zm844.1 349.5c12.399-3.3 16.5-11.8 12.1-23.7-4.1-11.199-9.1-22-16-31.899-7.8-4.5-9.5-13.4-14.2-20.101-2.3-3.199-3-6.699-7.899-5.699-2.5 2.899-3.4 6.3-4.101 9.899-3.7 18.9-4.899 37.9-1 57 2.9 14 2.601 14.101-11.2 15.2 14.2 3.3 28.4 3.001 42.3-.7z"/><path id="hl1" fill="#B8894F" d="M1527.9 508.573c14.3 4.2 28.899 4.3 43.6 3.3 12.9-.899 25.8-2.399 38.8-3.3 30.9-2.2 61.7-4.2 92.601-6.5 13.3-1 26.5-2.1 39.8-3.5 12.1-1.3 24 .4 35.8 2 18.7 2.601 37.6 4.4 55.2 12.601 18.5 8.6 32.2 21.1 39 37.899-2.9-.7-3.9-2.8-5.2-4.3-10.9-13.1-24.9-20.9-41.2-24.9-14.199-3.5-28.699-5.8-43.5-5.699-19 .1-38-.101-56.899.199-13.301.2-26.601 1.601-39.601 4.4-29.6 6.4-59.199 12.8-88.8 19.6-35.9 8.2-71.3 5.4-106.5-3.6-11.7-3-37-11.5-40.3-13.6-30.7-19.101-60.3-44.801-77.3-77.301-7.9-15-15.301-30.3-22.9-45.5-2.7-5.4-3.3-10.6-.3-15.9 15.3-18.4 33.8-32.6 55.7-42.3 7-3.1 10-.7 11.5 6.7 4.6 23.4 8 47 16.899 69.5 5.8 14.7 13.7 33.7 24.3 45.5 2.9 3.201 44.1 37.401 69.3 44.701zm-153.7 240c-10.2-3.399-16.7-1.3-31.5-4.1-15 .1-29.9-1.601-44.8-2.8-31.9-2.601-63.4-7.601-94.9-13.101-45.8-8-85.2-27.399-117.2-61.399-10-10.601-17.399-22.601-22.6-36.2-5.5-14.5-7.5-29.601-9.2-44.9-.3-3.1.6-7-4.1-7.899-1.101 1.699-2.301 3.199-3.2 5-19.3 34.199-34.601 70.199-46 107.699-6.3 20.601-12.601 41.2-15 62.801.8 1.199.899 3.8 3.2 2.399 1.899-1.2 3.399-3.1 5.1-4.8 14.8-14.9 29.6-29.8 44.5-44.6 6.2-6.2 6.5-6.2 13-.5 9.9 8.5 20.5 15.899 32.7 20.899 17 7 34.399 12.5 52.3 16.7 44.4 10.2 89.7 12.2 134.9 14.4 28.699 1.399 48.899-2.8 77.6-2.101 11.2-1 17.4-1.6 21.7-3.5 1.6-.998 2.8-2.198 3.5-3.998zm612.6 303.8c14.4-11.399 27.3-24.5 37.9-39.6 16.5-23.3 14-46.8-6.601-66.5-6.8-6.5-14.1-12.2-21.6-17.8-23.9-17.601-47.8-35.101-70.1-54.7-9-7.9-17.5-16.4-24.801-26-11.399-14.9-16.3-31.1-9.199-49.6 2.6-6.801 4.699-13.9 7.199-20.7 13.7-38.2 27.801-76.3 39.2-115.3 8.7-29.801 13.601-59.5 7.3-90.601-6.199-30.5-15.1-60-29.8-87.5-1.8 4.4-.1 8.5.8 12.7 12.5 54.8 11.9 109.7 0 164.5-8.5 39.1-20.199 77.3-35.399 114.4-3.3 8.1-5.9 16.3-6.101 25.1.801 9.8 1.7 19.7 2.5 29.5 11.4 11.4 19.601 25.2 29.5 37.7 19.301 24.3 39.7 47.4 64.7 66.2 6.601 5 13.3 10.2 18.7 16.5 22 25.8 25.1 40.2 6.2 68.8-11.601 17.5-24.9 33.7-38.8 49.4-2.4 2.699-5.7 4.899-4.801 9.3 11.103-8.599 22.203-17.099 33.203-25.799zm-47.6 98.101c-9.9-18.4-5.5-38.5 6-57.2-1.7-.4-10.2 1.4-11.4 2.7-10.3 10.899-17.6 22.699-11.899 38.5 4.899 8.8 11.1 16.6 16.899 24.699 1.2 1.801 2.8 4.4 5.3 1-1.7-3.199-3.2-6.499-4.9-9.699z"/><path fill="none" stroke="#000" stroke-linecap="round" stroke-linejoin="round" stroke-miterlimit="10" stroke-width="6" d="M1325.1 417.873c41.101-58.6 92.5-90.6 154-96.1 95.101-9.4 176-3.2 242.7 18.4 108.4 21.3 180 84.8 215.101 190.4 22.3 52.3 16.399 117.8-17.601 196.7 0 .1-.1.2-.1.3-30.3 66.4-38.101 105.101-23.7 116.2 21.5 29.9 55 58.7 100.5 86.1 48.9 30.9 52.4 66.9 10.2 107.801-39 28.3-62.601 52.399-70.8 72.3-3.7 16.8 2.1 39.1 17.5 67 20.399 33.5 8 48.3-37.301 44-54.3-8.9-85.1-18-92.3-27.3 4-36.101 4.7-65 2-86.5-9-27.301-6-53.101 8.9-77.5 13.399-27.9 25.1-67.4 35.199-118.4 9.7-31 12.101-67.8 7.301-110.3-11.9-48.4-30-97.9-54.5-148.7-11.9-26.5-34.101-44.1-66.601-52.9-19.899-3.3-41.899-3.399-66.1-.399M1325.1 417.873c-.1 0-.1 0-.199.101 20 81.899 69.3 143.399 148.199 184.5m-148-184.601c-128 30.2-216.6 77.9-266 142.9-84 146.7-103.399 275-57.899 384.6 20.1 48.7 36.6 82.7 49.6 101.801 2 3.1 4.101 6.3 6.101 9.399 2.899 4.5 5.8 9 8.6 13.301 43.6 68.899 62.3 115 56 138.1-3.8 24.5-11.4 39.7-23.1 45.6 60.6 8.5 118.949-18.463 140.449-71.364-.899-14.899.901-24.409-15.599-26.209-.3 0-20.094-22.812-20.395-22.812-43.1-6.9-46.305-1.012-68.105-27.313-12.8-14.3-14.513-7.438-22.813-21.438l-17.313-15.313c-2.8-4.601-3.862-7.113-6.063-11.813-9.3-19.101-18.725-19.763-18.125-36.063.5-12.9-1.388-15.487 4.313-27.688.601-1.4-2.037-17.625-.438-20.625 0-.1 10.188-8.4 10.188-8.5 8.601-12.7-1.282-14.42 16.718-16.92 10.5-1.5 18.157-2.942 30.657-.643 1.7.3 8.738 1.388 10.438 1.688M1090.8 832.273c13.2 36.7 28.601 71.7 46.3 105m336.3-334.7c41.399 28.2 93.399 31.2 156 9.2 21.3-6.2 41.399-10.4 60.1-12.8m-216.4 3.501h0c-41.1 93.899-109.8 174.7-206.1 242.3-46.3 28.1-71.7 87.5-76.2 178.3m282.3-420.6c.101.1.101.1.301.1m-.301-.1h0c.101 0 .101.1.301.1M1192 1024.674c-.4-.5-.6-1-1-1.4-.1-.1-.1-.2-.2-.2m696-394.501c-18.8-40.6-47.5-62.2-86.2-65-32.699 4.7-69.699 16.4-111.1 35.4m-552.4 338.3c16.101 30 34 58.6 53.7 85.8"/></svg>