<svg xmlns="http://www.w3.org/2000/svg" id="hair" viewBox="0 0 3000 3000"><path id="cl1" fill="#A47642" d="M1901.1 757.595v-.399c-9.399-103.8-45.199-190.899-107.399-261.399-61.5-66.2-135.3-95.7-221.8-88.2-52.301 8.899-92.2 19.6-119.7 32.1s-41.3 18.7-41.399 18.7c-.101.199-.2.3-.301.3-.1.101-.3.3-.399.5-12.699 12.101-23.601 29.101-32.899 50.899 9.301-21.8 20.199-38.8 32.899-50.899l.101-.8c-114-7.2-203 17.8-266.8 75.199-38.899 40.2-64.7 120.801-77.399 211.899-2.701 19.5-5.701 37.8-9 54.8-.101 0-.101 0-.101.102-6.7 53.199-19.301 93.8-37.601 121.699-3.2 6-6.301 11.601-9.7 16.7-71.901 131.601-36.201 225.101 107.099 280.601-46.8-46.9-63.8-103.801-50.9-170.7 4.7-30.2 20.602-58.6 47.7-85-27.1 26.4-43 54.8-47.7 85-12.898 66.9 4.102 123.8 50.9 170.7 20.372 22.538 37.301 50.854 83.272 60.84 39.58 8.598 79.217-13.323 79.217-13.323 6.301-.399 99.312-71.813 94.312-76.413-105 38.75-174.301-15.204-134.4-80.805 14.4-17.8 27.601-36.3 39.301-55.5.3-.6.6-1.199 1.1-1.699 24.5-41.7 35.5-100.399 32.9-176.2 1.3-61.601 7.1-109.5 17-143.699 12.8-31.801 28.6-69.5 47.5-83.5-14.301-20.9-20.7-47.7-19.4-80.301-1.3 32.601 5.101 59.399 19.4 80.301 4.6 6.699 10.1 12.8 16.3 18.3 26.3 20.5 64.3 19.7 114.2-2.3 30-10.9 61.3-19.601 94.1-26.4h.601l.101-.1h.201c20.699-4.301 42-7.7 63.8-10.301 25.3-3 47.8-3.8 67.5-2.3h.101c26.101 1.899 47.3 7.899 63.601 17.699-16.301-9.8-37.5-15.8-63.601-17.699h-.101c-19.7-1.5-42.2-.7-67.5 2.3-21.8 2.601-43.101 6-63.8 10.301v.1c61.6 6 110.199 26.9 146.1 62.601.101-.5.601-3 1.5-7.601 2.9-28.6-2.5-50.6-16.399-66.2 13.899 15.601 19.301 37.601 16.399 66.2-.899 4.601-1.399 7.101-1.5 7.601v.199c-20.1 66.601-11 123.4 27.301 170.801 14.399 15.101 24.699 26.199 30.899 33.199 6.3 7 12.899 15.601 19.899 25.801 7 10.3 14.5 31.3 22.5 63 2.801 13.101 5.801 30.8 8.801 53.301 3.1 22.398 5.199 44.3 6.5 65.699 1.199 21.301.199 38-3 49.899-3.199 11.8-8.5 20.3-16.101 25.5-13.2 5-25.7 5.8-37.8 2.3l-.301-.1c-16.601-5-32.3-18.2-47.101-39.601-18 30.899-9.101 63.101 26.5 97 34.2 25.5 74.801 31.899 121.7 18.899 33.601-14.399 54.101-45.3 61.601-92.5 2.399-47.899-9.5-97.899-35.601-150.199-31.2-67.301-44.101-138.899-38.601-214.5 4.398-26.402 6.298-43.902 5.398-52.402zm-39.7 405.601c-3.2 11.8-8.5 20.3-16.101 25.5-13.2 5-25.7 5.8-37.801 2.3 13.9-6.5 19.301-30.899 16.5-73.1-2.3-36.7-.8-63.9 4.5-81.801 5.101-17.8 12.101-31.8 20.601-41.8 2.801 13.101 5.801 30.8 8.801 53.3 3.101 22.4 5.199 44.301 6.5 65.7 1.2 21.3.2 38.001-3 49.901z"/><path id="sd1" fill="#896237" d="M1348.3 685.896c-15.3-22.7-19.3-48.102-20.7-74.9-1.1-21.199.102-42.6-5.3-63.5-5-19.1-13.601-35.3-32.5-44.199-10.601-5-21.5-6.801-33-4.899-20.3 3.3-39.2 10.399-56.899 20.699-28.9 16.801-55.801 36.301-80 59.399-1.199 1.101-2.601 2.101-3.9 3.101 14.801-34.899 40.4-59.699 72.9-78 34.301-19.3 71.5-30.5 110.1-37.5 30.2-5.5 60.7-7.699 91.4-7.899 4 0 8 .3 12 .5.6 0 1.199.601 2 1 1 3 17.5-8.101 28.801-11.101 13.1-5.699 27.299-14.101 42.799-18-13.299 12-18.199 25.101-24.5 35-23.899 37.801-25.6 77.301-10 118.301 6 15.6 14.5 29.899 23.5 43.899 7.5 11.5 17.9 19.399 31.101 23.601 9.899 3.199 20.101 4.3 30.2 6.399-16.899 8-34.801 13.101-52.5 18.899-7.301 2.399-14.7 4.101-22.2 5.7-16.399 3.699-35.5 2.3-48.101-8.301-16-13.5-10.699-14.899-29.199-23.899 2.101 3.7-2.699 4.399-5.301 7.8-7.101 9.099-13.802 18.5-20.701 27.9zm518.7 462.6c-2.9 16-8.4 29.801-23.5 45-17.601 3.301-47.301 1.9-68-22-.9-2.3-12.7-18.8-15.4-20.199-10.6 17.801-12 39.399-2.399 59.301 16.7 34.398 46.2 63.898 121.8 61.898 44.7-8.6 80-37.699 88.5-82.5 3.601-19.1 2.301-37.699 0-57-5.199-43.699-22.199-84.699-40.5-124 0 1.7 12 42 4.601 62.4-1.5 8.899-2.699 17.899-7.101 25.8-5.699 10.4-16.1 12.2-25.199 4.7-3.6-3-6.399-6.7-9.1-10.5-12-19.8-12-19.8-19.9-43-10.399-22.9-16.1-35.2-18.6-38.9-.003 2.3 16.698 128.5 14.798 139zm-129.5-522.201c-1.601 3.102 8.399 13.5 9 15.7 1.8 5.7 3.699 12.2 5 18 5.6 24.8-2.301 43.9-9.5 67.8-3.7 12.301-3.9 35.9-3.601 48.7.601 24.3 10.5 46.4 19.399 68.9 7.5 19 24.101 35.6 39.101 49.199-3-7.699-6.899-22.399-10.101-30.101-12.301-29.5-11.801-58.8.5-88.199 5.9-14.101 12.101-28.101 16.4-42.899 6.6-22.801 11.299-45.801 6.299-69.801-1.6-7.699-4.199-14.699-10-20.101-24.497-13.997-51.697-16.898-62.497-17.198zm-639.6 584.3c2.199 1.199 13.101 6.301 12.899 2.699 0 0-10.801-14.699-21.7-27.899-18.8-32.101-29.3-68.199-28.601-104.699.701-41.5 14.201-78.3 42.9-108.899 3.5-3.7 6.801-7.5 12.5-6.9-.801-4 1.199-7.1 3.301-10.1 4.8-7.2 9.699-14.4 14.399-21.601 1.101-1.7 3.601-3.3 1.399-6.3-1.301.5-2.5.898-3.6 1.6-28.9 16.7-54.201 37.801-74 64.7-17.4 23.601-26.9 50.3-27.4 80-.5 29.5 3.699 58.399 10.9 87 1.199 4.699 3.6 9.5 1 14.601 16.703 14.798 36.004 25.798 56.003 35.798zm739.6-198.299c-10.5 18.3-14 43.399-14.4 64.199-.699 35.2 13.9 78-11.399 111.7-.8 3.199 12 4.399 15.399 4.699 18.301 1.9 34.301-20 36.301-40 .899-8.699 1.801-17.699 1.399-26.399-2.101-40.899-10.7-90-17.3-130.399-2.301-1.4-8.801 15.3-10 16.2zm-207.4-366.9c18.101 2.898 36.101 5.898 53.4 12.3 22.199 8.101 42.399 19.3 57.899 37.601 1.101 1.199 2 2.699 4.3 2.399 1.7-2.8 1.5-6.2 1.601-9.5 3.2-15.8 2.3-30-3.101-43.8-3.899-10.102-13-19.102-24.101-18.9-29.8.5-80.899 6.101-110 11.7-1.298 1.099 18.601 6.899 20.002 8.2z"/><path id="hl1" fill="#B6844A" d="M1910.199 955.095c-.8 1.7-1.199 4.5-3.9 2.2-2-1.7-3.5-4-5.1-6.2-13.3-18.399-25.8-37.199-36.4-57.301-9.5-17.8-12.799-36-7.1-55.898 5-17.102 12.899-32.801 19.6-49.2 6.602-16.101 12.602-32.399 10.301-50.3-1.399-10.9-3.1-21.801-5.6-32.5-14.601-63.102-41-120.9-79-173.4-16-22.1-34.5-41.6-55.2-58.899-32.899-27.5-72.101-41.101-114.3-46-14.9-1.8-29.9-4.399-44.7-3.601-18.899 1-37.899.7-56.8 3.9-15.101 2.5-30.301 4.8-45.301 7.6-3.601.7-7.199 1.601-10.8 0 31.101-13.199 63.5-21.8 97-25.899 28.3-3.4 56.5-2.801 84.5 3 50 10.399 92.3 35.1 128.3 71 29.6 29.5 52.1 63.899 70.6 101.101 25.9 52.399 42.4 107.6 48.602 165.8 1 9 .8 17.9-.801 26.8-6.399 35.602-6.5 71.5-3.1 107.4 2.299 23.698 6.199 46.998 9.199 70.397zm-594-74.599c-4 .101-7.9.9-11.699 2.301-36 13.101-73 16.601-111 11.601-32.9-4.4-61.2-17.801-83.2-43-16-18.4-28.399-39.301-37.3-62.2-2.101-5.2-3.7-10.7-7.4-15.2v.101c-1.899 3.899.801 8.5-1.699 12.399-1.5 5.7-2.5 11.5-2.301 17.4 6.801 42.199 26.9 76.899 59.5 104.3 10 8.399 21 15.399 33.301 19.899 17.801 6.5 35.899 12.2 54.801 14.899 11.5 1.601 23.199 2.801 34.5 5.601 20.1 5.101 40.199 4.5 60.398 1.7 5.102-.7 8.801-2.7 9.9-8.2.399-1.899 1.3-3.699 2-5.601 2.8-18.7.9-37.401.199-56z"/><path fill="none" stroke="#000" stroke-linecap="round" stroke-linejoin="round" stroke-miterlimit="10" stroke-width="6" d="M1901.1 757.196v.399m0-.399v.399m-93.6 433.401l-.301-.1c-16.601-5-32.3-18.2-47.101-39.601-18 30.899-9.101 63.101 26.5 97 34.2 25.5 74.801 31.899 121.7 18.899 33.601-14.399 54.101-45.3 61.601-92.5 2.399-47.899-9.5-97.899-35.601-150.199-31.2-67.301-44.101-138.899-38.601-214.5 4.399-26.4 6.3-43.9 5.399-52.4M1748.5 701.296v.2c-20.101 66.6-11 123.399 27.3 170.8 14.399 15.101 24.7 26.2 30.899 33.2 6.301 7 12.899 15.6 19.899 25.8 7 10.3 14.5 31.3 22.5 63m-41.598 196.7c12.1 3.5 24.6 2.7 37.8-2.3 7.601-5.2 12.899-13.7 16.101-25.5 3.199-11.899 4.199-28.601 3-49.899-1.301-21.4-3.4-43.301-6.5-65.7-3-22.5-6-40.199-8.801-53.3m0-.001c-8.5 10-15.5 24-20.6 41.8-5.301 17.9-6.801 45.101-4.5 81.801 2.8 42.199-2.601 66.6-16.5 73.1m93.6-433.801c-9.398-103.8-45.199-190.899-107.398-261.399-61.5-66.2-135.301-95.7-221.801-88.2-52.301 8.899-92.199 19.6-119.699 32.1s-41.301 18.7-41.4 18.7m-.002-.001c-.101.199-.2.3-.3.3-.101.101-.301.3-.4.5-12.699 12.101-23.6 29.101-32.899 50.899m33.598-51.699h-.6c-114-7.2-203 17.8-266.8 75.199-38.899 40.2-64.7 120.801-77.399 211.9-2.701 19.5-5.701 37.8-9 54.8-.101 0-.101 0-.101.101-6.7 53.199-19.301 93.8-37.601 121.699-3.2 6-6.301 11.601-9.699 16.7-71.9 131.601-36.2 225.101 107.1 280.601m680.701-575.7c-16.301-9.8-37.5-15.8-63.601-17.7h-.101c-19.7-1.5-42.2-.699-67.5 2.301-21.8 2.601-43.101 6-63.8 10.3h0-.201 0l-.101.101M1113.5 963.696c-27.101 26.399-43 54.8-47.7 85-12.899 66.899 4.101 123.8 50.899 170.699M1748.5 701.296c.1-.5.6-3 1.5-7.601 2.899-28.601-2.5-50.601-16.4-66.199m14.9 73.8c-35.9-35.7-84.5-56.601-146.101-62.601h-.301m-225.198 10.4c4.601 6.7 10.101 12.801 16.3 18.301 26.301 20.5 64.301 19.699 114.2-2.301 30-10.899 61.3-19.6 94.101-26.399h.6M1376.9 649.095c-18.899 14-34.7 51.7-47.5 83.5-9.899 34.2-15.7 82.101-17 143.7 2.601 75.8-8.399 134.5-32.899 176.2m-.001.001c-.301.4-.601.9-.801 1.301-.199.101-.199.199-.3.399m1.101-1.699c-.5.5-.801 1.1-1.101 1.699m.001 0c-11.7 19.199-24.899 37.699-39.301 55.5-39.9 65.601 22.401 120.804 136.901 78.304 5 4.6-84.698 94.703-150 92.5h-23.5c-40.5-3.5-62.5-36.5-85.801-61.104m240.8-650.6c-1.3 32.601 5.101 59.399 19.4 80.3"/></svg>