<svg xmlns="http://www.w3.org/2000/svg" id="hair" viewBox="0 0 3000 3000"><path id="hl2" fill="#A47642" d="M1748 458s145 127 128 306c-75-129-89-129-119-153 30-44 8-114-19-153 38.667 53.333 38.667 142.667 12.667 156.667s-48 40-174.667-19.333c-110.667-32.667-188 22-215.333 54.667-74 104-99.334 255.999-94.667 332.666C1171.333 960 1130.021 924.979 1083.333 942c-54.705-31.672-64.667-114-63.333-129.333S977 823 967 824c-47 6-93-28-102-72s16-118 51-141 163-35 168-26c-47-12-149 7-173 22-4-44 14-74 51-83s116 14 129 52c-1.667-36.667-94.333-63.333-125-56 11.27-20.922 35.333-40 41.333-41.333 24.667-8 81.277 20.72 117.277 35.387 0 0-93.944 190.613-102.611 291.28 29-119.669 44-183.333 106-298 26-28.667 80.667-89.333 180-122s286.666-32.667 423.333 63.333L1748 458zm-676.094 162.683s-180.285 69.945-108.289 135.941c20.977 17.189 66.75 0 66.75 0"/><path id="sd1" fill="#896237" d="M916 611s1.998-39 7.998-43c5.333-13.333 114-11.333 150 12.26C1026.665 582 944.668 586.666 916 611zm178.665-40.227c-16-66.106-108-73.439-108-73.439l-20 25.333c48.667-.667 90 5.333 128 48.106zm-18.001 48.558s-102.667 26.667-130 87.333c-26.667 32.667-3.333 58 0 65.333s64.667 12 76.667 13.333l-2.667 32s-2.415 84.588 65.585 133.921c20.667-6.667 29.466-2.554 48.132-4.554 16.667 6.667 112.03 39.216 130.869 44.053 4.201-28.105 2.081-52.088 3.414-70.754-63.333 10.667-216-97.333-202-267.333.55-25.932 10-33.332 10-33.332zm666.647-163.957S1789.5 548.75 1757 611c-6-1.333 30.998 24.996 33.664 28.996s3.333-12 3.333-12 44 22.667 48 24.667-29.333-40-35.333-52 35.665 26.667 35.665 26.667-18.331-67.333-21.665-78.667-51.127-75.557-77.353-93.289z"/><path id="hl1" fill="#B6844A" d="M913.332 614.667c60-40.667 174-34 174-34l-5.333 12.667c-140.667 30.667-209.333 98-209.333 98s1.463-34.607 40.666-76.667zm12.663-55.338s79.564-30.312 166.898 15.688l-15.384-28.967s-48.181-30.721-117.515-19.388c-25.735 9.793-31.999 29.333-33.999 32.667zm144-42.667c6 3.333 40.305 24.54 40.305 24.54s13.544-26.125 10.367-29.869c-13.328-9.995-73.339-33.338-106.005-35.338-9.333 0-23.333 14.667-23.333 14.667 9.333-.666 72.666 22.667 78.666 26zm141.333-79.333s84.667-40 376.667-24c-122 5.333-316.667 160.667-376.667 264 151.333-181.333 434.667-230.667 466.667-226.667 0 0 50.666 13.334 65.333 25.334s-11.333-30-11.333-30-279.334-162.001-520.667-8.667z"/><path fill="none" stroke="#000" stroke-miterlimit="10" stroke-width="6" d="M1748 458s145 127 128 306c-75-129-89-129-119-153 26.5-47-.436-126.275-20.979-159.707 38.668 53.333 40.646 149.374 14.646 163.374s-48 40-174.667-19.333c-110.667-32.667-188 22-215.333 54.667-74 104-100.084 264.082-95.417 340.749-94.667-22.667-131.062-55.771-177.75-38.75-54.705-31.672-68.834-124-67.5-139.333S977 823 967 824c-47 6-93-28-102-72s16-118 51-141 163-35 168-26c-47-12-149 9.5-173 24.5-4-44 14-76.5 51-85.5s115.5 1 127.718 45.427c6.935-37.019-97.051-52.76-127.718-45.427 11.27-20.922 39.333-44 45.333-45.333 24.667-8 81.277 20.72 117.277 35.387 0 0-96.343 195.257-105.008 295.923C1042.167 683.833 1069.833 622.5 1128 507.333c26-28.667 80.667-89.333 180-122s286.666-32.667 423.333 63.333L1748 458zm-671.279 157.692S891.62 690.627 963.617 756.624c20.977 17.189 66.75 0 66.75 0"/></svg>