<svg xmlns="http://www.w3.org/2000/svg" id="hair" viewBox="0 0 3000 3000"><switch><g><path id="cl1" fill="#A47642" d="M1615.1 604c-19.5 8.6-39.8 14.7-60.399 20.1-8 2.101-16.101 4-23.7 7.5-14.8 6.7-24.6 17.601-28.6 33.601-2.9 11.7-4.7 23.5-5.2 35.399-.7 16.4-8.4 28.2-21.101 37.7-5.6 4.2-11.3 8.2-17.5 11.5-16.899 9.2-34 18.101-51.6 26-27.9 6.101-55.6 4.7-83.4-.6-14.899-2.8-28.899-7.9-41.899-15.5-22.2-13-43-27.9-57.9-49.4-6.5-9.5-13.1-19.1-10.8-31.8.4-2.3-1.7-4.3-2-6.6 8.4-23.801 32.1-41 56.9-41.101 28.6-.1 57.199-.3 85.6 5 21 3.9 35.4-8.399 38-29.6 2.2-17.5-3-32.7-13-46.9-4.9-7-12-13.5-9.7-23.7 5.7-21.6 8.9-43.699 13.8-65.399 2.9-12.7 7.101-24.9 12.2-36.9 6.101-14.3 15.9-25.3 29-33.4 19.2-12 40.3-18.8 62.601-22.3 11.199-2.2 21.899-.4 32.5 3.4 25.8 9.2 50.6 20.5 73.899 35.1 3.601 2.3 8.4 4.1 7.101 9.6-1.301 5.7-6.601 4.899-10.7 5-12.7.3-24.101 4.399-34.9 10.899-14.6 8.801-29.2 17.4-42.399 28.2-2.2 1.8-6 3.7-4.5 7 1.5 3.2 5.399 1.8 8.199 1.3 11-2 21.9-1.199 32.801.5 18.1 2.9 36.5 2.101 54.8 4 17.2 1.9 32 8.601 46 18.101 15 10.3 15.1 25.5 11.5 40.4-6.503 26.8-22.203 47.8-45.603 62.9zm-571.6 109.1c4.3 7.101 10.4 13 19.3 14.801 17.4 3.5 35.101 4.1 52.7 1.899 11.5-1.399 23.3-2.399 32-6.2-8.1 4.301-16.9 12.5-27.8 16.801-23.2 9.1-42.2 24-59.101 41.699-10.5 11-22 12.601-35.399 6.801-4.5-1.9-8.8-5-14.2-3.101-6.1 9.2-12.2 18.3-18.3 27.5-2.5 5.2-2.2 10.4 0 15.7 14.8 35.1 39.5 62.1 69.5 84.6 8.3 6.2 31.1 15.5 42.2 11.7 12.3-6.5 24.6-13.2 37-19.5 18.899-9.6 26.899-27 25.6-46.8-.5-8.3-3.7-16.7-4.6-24.9-2.601-23.6 0-46.5 6.5-69.1 10.399-36 26.6-69.6 44.5-102.3 6-10.9 14.5-19.8 24.1-27.7 14.1-11.5 29.9-19.8 46.4-27.2 14-6.3 26-13.1 39.5-20.399C1347.8 574 1363.6 554 1370.3 527c4.3-17.1 7.3-34.5 10.2-51.9.5-9.1-12.1-13.5-19.2-9.699-11.3 6.1-23.2 8.399-35.7 6.6-31.8-4.6-63.699-4.9-95.6-1.2-46.9 5.5-86.5 24.4-116.8 62-20.601 25.5-37.9 52.6-50.5 82.8-2.9 7.8-5.8 15.5-8.601 23.3-4.699 13.5-9.699 26.9-20.699 36.9-1.5 13.799 3.3 25.999 10.1 37.299zm298.8 99.1c-24.899 5.5-47.899 2.399-69.1-12.9-13.4-9.7-27.2-19-40.101-29.5-6.199-5.1-12.8-9.899-20.3-12.399-12.899-4.101-26-5.5-37.7 3.899-3.1 2.5-4 7-8.199 8.4-8.2 27.1-9.801 54.3 1.1 81.1 7.5 18.5 15.6 36.8 23.2 55.2 4.6 11.1 8.8 22.3 11.899 33.9.801 3.199 1.9 6.5 1 9.8-.6 2.399-6-19.9-8.399-15.8-4.8 8-24.7 27.1-31.3 33.5-26.4 25.899-24.2 66.699-9.5 95.6 4.199 8.3 9.899 15.7 15.3 23.3 10.7 14.9 12 30.7 3.8 47-5.6 11.101-12.8 20.9-22.7 28.7-12.899 10.1-26.899 18.3-42.199 24.2-4.101 1.6-8.7 3-5.601 9.1 6.4 6.5 13.5 2.2 19.5.1 46-16.199 88.301-38.199 120.801-76 24.899-29 39.3-61.3 36-100.199-1.4-16.801-.101-17.801 17-18.301 22.699-.699 45.699-.899 61.6-21.3.6-.7 1.7-1.1 2.5-1.6.6-4.4-.5-8.6-1.1-12.8-4.5-31.9-11.2-63.4-13.9-95.5-1.7-19.101-.9-37.8 7.5-55.5-2.801-6.5-7.501-2.8-11.101-2zm561.1 57.8c15.8 12.7 32.1 24.7 52.899 27.9 3.2.5 7.3 3.199 9.101-2.301-2.601-5.5-6.9-9.8-10.7-14.399-10.5-12.7-16.4-27.2-18.2-43.601-1.7-14.6-1.2-29.3-.6-43.899 1.6-46.601 2.699-93.3-.9-139.9-.8-9.6-1-19.3-3.7-28.6-2.199-.1-3.699.8-4.899 2.6-14.601 22.7-39.301 29.601-62.601 34.4-14.8 3.1-31 6.7-47 4.5-2.8-.4-5.399-.3-6.399 3.1 1.6 4 3 8.101 4.8 12 16.4 36.8 31.2 74.3 40.9 113.5 3.199 12.9 5.8 25.9 8.6 38.9C1876.3 847.6 1889.7 859 1903.4 870zm-71.1-207c19.3-2.6 33.5-13.3 41.3-30.4 4.801-10.5 11.101-17.199 21.101-22.199 14-7 24.3-17.301 24-34.601-.8-4.399-3.2-8-5.5-11.6-16.5-24.601-35.8-46.9-57.7-66.8-7-2.9-13-7.9-20.7-9.7-18.899-4.4-38.1-5.9-57.199-8.7-4.101-.6-9.101-1.1-11.5 3.7-2.301 4.7 1.899 7.3 4.399 10.2 15.2 17.899 30.601 35.699 47.5 54.1-11.899-1.9-22.5-3-33.1-2.3-8.7.6-11.9 3.899-10 12.1 3 13 6.1 26 11.3 34.4-4.6-5.3-11.5-13.601-20.8-19.2-4.1-2.5-8.1-4.1-8.2 3.4 14.2 17 25.5 35.699 34.8 55.699 5.5 11.7 10.301 23.801 16.801 35 7.898.301 15.598-1.999 23.498-3.099zm50.2 451.7c2.8-3.801-1.7-7.2-3.2-10.7-.7-1.5-1.8-2.8-2.399-4.4-11.601-27.1-14.301-54.1 1.8-80.399 15.6-25.5 37.3-43.101 66.8-50.4 8.7-2.2 17.4-4.5 26.1-6.8 4.801-1.3 9.601-2.7 13.4-6.2 4.7-11.5 1.1-21.9-4-32.2-9.1 1.9-17.8 4.7-27.2 5.4-26.6 1.9-50.8-4.4-73.199-18.4-4.2-2.6-8.4-5.8-13.801-2.899-6 31.399-14.399 62.3-24 92.8-5 15.899-9.899 31.8-12.899 48.2-2.101 11.199-3.601 22.399-1.7 33.8 2.2 13.6 9.8 23.1 22.1 28.899 6.4 3 13.101 5 20.301 4.7 4.097.699 9.097 2.499 11.897-1.401zm-812.4-143.8c5 19.1 12.801 35.899 24.9 51.1 8.5 10.7 25.2 28.8 31.4 40.1 14.1 18.2 5.8 43.301-13.101 64.4-16.6 18.4-37.6 24.2-61.8 18.5-8.4-2-15.7-7.5-24.8-7.2-1.3 0-1.601-9-8.601-13.3-26.5-16.1-41.5-46-62.199-69.1-.601-.7-.801-1.801-1.2-2.9 4.5-2.7 9.6-3 14.3-4.5 9.3-2.9 18.2-6.5 26.4-11.7 22.399-14.2 28.6-29.2 23.3-55.8-2-6.4.5-10.2 6.5-12.7 8.2-3.399 15.8-8.1 23.7-12.3 7.3-3.9 23.3-6.5 23.699 2 .202 5.4-4.698 8-2.498 13.4z"/><path id="sd1" fill="#896237" d="M1381.2 480.2c-.8-1.8-12.5-12.7-15.101-10.9-18.6 13-38.899 7.601-59 6-42.1-3.399-83.699-2-124 12.601C1158.7 496.8 1139.2 512.4 1122.2 531.6c-19.2 21.801-34.5 46.4-49.7 71-2.8 4.5-5.1 9.4-8.9 13.2 7-22.6 13.9-45.1 21.101-67.6 2.7-8.6 6.2-16.9 8.899-25.5 6-19.3 18.5-33.601 34.5-45.2 10.301-7.5 21.2-14 32.801-18.9 32.399-13.5 62.199-31.899 92.8-48.7 37.5-20.6 76.399-37.6 118.1-48.2 24.601-6.2 49.4-7 74.4-5.3 11.6.8 23.2 2.4 34.8 3.7 3.2.4 24.9 4.4 28.4 7.2-6.5 1.5-19.5 7-25.301 8.3-15.899 3.8-31.3 9-45.899 16.6-20.9 10.8-36.4 26.6-44.8 48.899-3.4 9-6.601 18.2-8.9 27.5-.801 4.101-1.001 8.201-3.301 11.601zm-183.9 450.5c-6.8-19.9-14.6-39.3-23-58.5-.7-1.5-1.2-3.2-3-3.8-1.8.699-8 11-8.399 12.399-4 14-13.2 23.7-25.7 30.5-7.601 4.101-16 5.2-23.7 9.3-10.6 5.601-20.4 14.2-29.4 22.301-10.901 9.9-14.701 21.7-10.601 36.1 2.5 8.8 6.3 16.8 11.1 24.4 6.801 10.699 14.801 20.5 22.801 30.3 8.199 10.1 16.5 20 23 31.4 7 12.5 7.6 25.3 2.199 38.399-2.6 6.2-5.899 11.9-10.1 17.2-20.3 25.3-51 34.4-82.6 24.7-3.601-1.101-7-3.801-10.9-2.601-1.6 3.9-.6 7.101.2 10.4 6.2 24.5 30.3 43.8 58.7 47.1 4.3-.699 8.6-.8 12.899-1.3 2.4-.1 4.601-.5 5.2-3.5 0-.5.1-.9.1-1.4 8.4-3.899 17-7.5 25.2-11.8 18.2-9.6 34.101-21.7 45-39.7 13.2-21.6 12.601-40.8-2.3-61.199l-7.5-10.5c-10.8-14.801-15.3-31.7-16.1-49.601-.601-14.5 2.1-28.5 11.199-40.5 8.801-11.6 19.101-22.1 27.101-34.399.699-1 8.199-10 9.3-10.7-.199-1.799-.199-3.499-.699-4.999zm514.3-367.1c8.101-4.199 11.9-11.1 12.5-20.1 1.4-20.8-1.1-41.2-5.3-61.5-1.3-6.3-4.7-9.5-10.6-11.9-42.2-16.899-85.5-19-129.7-10.1-4.2.9-8.3 2.5-12.7 2.3-3-.2 63.4-20.6 139.3 4 2.801.9 5.7 3.3 9.101 1.4-.4-4-10.7-19.601-12.601-22.2-8.6-12.5-19.1-23-30.899-32.5-5.5-4.4-11.601-7.7-18.3-9.9-31-10.2-62.5-18.8-94-27.4-24.2-6.6-47.4-2.3-71 2.2 8.5-.1 16.399 1.9 24 5.6 5.1 2.5 10.5 4.2 15.8 6.2 22 7.9 42.8 18.3 62.7 30.4 1.8 1.1 4.8 1.4 4 5-2.101 1.2-4.5 1.101-6.801 1-9.899-.1-19.199 2.801-27.6 7.5-16.9 9.4-33.4 19.4-48.6 31.301-5.5 4.3-10.4 9.3-14.9 14.699-1.5 1.7-3.3 3.9-1.7 6.2 1.3 1.9 3.601 1.101 5.601.8 1.6-.3 3.199-.8 4.899-1.1 10.5-1.8 21.101-4.4 31.7-2.8 22.4 3.3 45.1 3.1 67.6 5.5 16.4 1.7 30.801 8.1 43.9 17.6 6.6 4.8 9.7 11.3 10 19.601.6 19.399-7.2 35.5-18.8 50.3-7.601 9.6-15.4 19.2-23.101 28.8C1649 593.2 1680.8 579.6 1711.6 563.6zm141.1-70.5c-21.3-20.199-43.601-39.199-67.601-56-13.1-9.199-26-20.5-40.5-27.2-14.899-6.9-31.1-9.1-47.8-9.5-5.5-.1-23.3 3.5-28.5 6.1.2 1.1 6.9 3.9 7.3 4.3 2.101 2.1 5.101 6.2 7.301 8.3 18 22.7 30 28.1 36.1 57 4.9 23.5 12.9 47.7 8.4 71.801-.601 3 7.399 7 10.3 8.399 8 3.8 13.8 14.3 20.6 19.7 5.9-1.1 9.3 3 12.8 6.3 6.801 6.3 13.2 13.101 19.9 19.601 1.7 1.699 3.1 4.399 6.3 3.699.9-2.399-.5-4-1.3-5.699-6-12.7-10.6-25.9-14-39.5-1.9-7.801-.5-9.801 7.3-10.2 6.301-.3 12.601.399 18.9 1.1 7.4.8 14.9 1.8 23.5-.8-7.9-7.3-15.8-12.7-21.7-20.3-5.899-7.601-12.399-14.8-18.899-21.9-6.4-7-12.601-14.2-18.4-21.8 2.2-2.3 4.2-2.2 6.1-1.9 20.4 3.301 41 4.7 61 10 5.5 1.4 10.9 3.101 16.601 3.301-1.202-1.702-2.302-3.402-3.702-4.802zm-780.9 483.7c-2.3-19 5.7-33.3 20.3-44.6 3.9-3 7.9-5.9 11.9-8.8-1.8-.801-15.3-4.7-17.2-5.101-13.6-2.6-24.6-10.1-34.5-19.1-7.399-6.7-14.6-13.7-21.1-21.3-16.5-19-30.6-39.5-37.3-64.3-10.9 11.1-21 23-30.4 35.5-8.899 11.899-9.899 24.1-2.8 37.199 6.3 11.7 13.7 22.801 21.4 33.601 13.899 19.399 28.199 38.6 37.7 60.8.899-2.1 1.8-4.4 3.899-5.5 9.9-5.1 20.1-9.6 29.6-15.6 2.7-1.7 4.301.199 4.5 3 .4 5.199 11.301 13.3 14.101 18.1-.1-1.299.1-2.599-.1-3.899zm230.9-373c-8.8 3.9-17.5 8-26.3 12-13 6-25.7 12.5-37.301 20.9-12.199 8.899-22.8 19.2-29.3 33.1.6 2.2 1.8 3.5 4.3 2.2 1.2-2.4 2.4-4.7 3.601-7.2 8.199-17.3 22.899-26.5 40.899-28.1 22.101-1.9 44.5-1.7 66.801.399 12.899 1.301 25.5 4.9 38.6 4.801 9.7 0 17.4-3.7 23.8-10.7 6.3-6.9 9.3-15.2 10.3-24.4 1.801-17.6-1.899-33.5-12.399-48.1-5.4-7.5-11.7-14.5-15.601-23.101-11.7 33.701-36.2 54.301-67.4 68.201zm614.9 507.6c.4-.101.4-1.101.601-1.601-14.8-9.699-18.8-16.199-19.601-32.1-.1-2.3-.1-4.7.101-7 1.899-23.9 11.3-44.2 28.899-60.6 8.301-7.7 17.4-14.4 26.5-21.2 6.9-5.2 13.9-10.4 20.4-16 5.3-4.601 10.2-9.601 11.5-17-17.6-.101-33.9 6-50.4 11.1-17.6 5.4-32.399 15.1-44.6 28.9-6.2 7-11.8 14.399-16.9 22.2-4.3 6.699-8.1 13.899-9.1 22-2.7 23.5-2.3 46.5 11.2 67.399.7 1.101 1.5 2.2 2 3.4 1.1 2.2.7 3.899-2 4.399-1.601.4-3.3.601-4.9.801 16 2.502 31.3.002 46.3-4.698z"/><path id="hl1" fill="#B6844A" d="M1087.8 1200.2c3.601-2.7 7.8-3.7 12.101-4.301 1.699-1.8 4.399-.1 6.1-1.899h.1c16.5-1.7 31.9-7.4 46.5-14.7 22.601-11.3 45.301-23.1 64.801-39.3 28-23.2 48.8-51.8 57.3-88 2.7-11.4 1.6-23.2.6-34.8-.399-4.601-1.1-9.301-1-13.9.101-6.6 1.3-7.8 7.601-7.6 12 .399 23.899-.7 35.899-1.5 14.8-.9 27.2-5.301 36.3-17.5 3.5-4.7 4-4.4 8 1.199 3 16.9 3.2 33.801.601 50.7-2.9 19.3-12.9 34.601-27.7 47.101-9.2 7.8-19.4 14.1-29.2 20.899-5.699 4-11.3 8.3-16.3 13.101-9.2 8.899-15 19.6-15.8 32.399-.601 9.601-4.7 17.101-11.601 23.5-7.899 7.4-17 12.8-26.8 17.101-46.399 20.1-94.8 24.899-144.6 18.3-1.002 0-1.902-.5-2.902-.8zm293.7-408.9c8.8-5.2 17.7-10.2 26.5-15.2-4.3-2.199-9-2-13.7-2-13.899.101-27.8 1.601-41.7 0-14.199-1.6-28.3-3.399-42.1-7.5-18.1-5.399-33.5-15.699-48.7-26.5-14.3-10.1-26.4-22.1-35.8-36.9-4.1-6.5-7.3-13.4-8-21.2-.4-3.7-1.1-7.2-4.1-9.9-.4 0-.9.101-1.301.101-1.699.5-3.5.6-4.8 1.8-12 20.8-21.5 42.6-30.3 64.899-3.1 8-6.5 16-7.8 24.601-1.3 2 .1 4.7-1.8 6.6 4.3 1.4 6.899-1.7 9.699-3.8 6.101-4.6 12.9-6.1 20.5-6.3 13.101-.5 22.9 6.399 32.2 13.8 15.3 12.2 31.3 23.4 47.6 34.4 11.7 7.899 24.601 11.199 38.4 11.899 13.1.7 25.8-1 38.1-5.8 7.602-9.4 16.802-16.9 27.102-23zm-368.4-66.4c.5 6.899 1.5 13.8 3.301 20.5 2.6 9.5 2.199 19-.5 28.399-1.2 4.101-2.601 8.2-3.9 12.3 6.3 6.5 14.4 9.601 22.9 11.2 10.399 2 19.8.3 27.199-8.399 3.2-3.801 6.801-7.4 10.601-10.601 12.1-10.399 23.699-21.8 38.8-27.7 17.9-7 33-18.6 48.8-29.1 1.8-1.2 4.101-2.5 3-5.6-3.1-1.9-5.7.399-8.5 1.1-27.5 7.4-55.3 11.3-83.899 7-12.2-1.8-20.101-8.1-25-18.8-2.801-6.1-4.601-12.5-6.301-18.9-1-3.8-1.6-7.899-5.3-10.399-15.401 12.8-22.601 29-21.201 49zm953.4 171c-6.7-1.9-13.5-3.601-20.1-5.801-15.101-5.1-27.601-14.6-39.7-24.5-11.5-9.5-22.5-19.699-33.8-29.6-2.101-1.8-4.101-5.2-7.301-1.3 1.7 16.8 3.801 33.6 4.101 50.5-2.2 6.8.899 14.1-1.8 20.9-.4.6-.4 1.199-.2 1.899 8.7 6.101 18.3 10.7 27.5 15.9 25.1 14 51.8 11 78.6 8.399 5-.5 7.8-3.3 8.101-8.399C1978.4 913.7 1973.7 904.1 1966.5 895.9zm-155.1-225.7c9.6 3.5 19.199 4.2 29.1.3 4.3-1.7 9-2.1 13.7-1.5 10.899 1.5 21.1-.9 30.399-6.7 3.101-2 6.4-3.3 10-4.2 11.5-2.899 21.101-9.3 29.7-17.199 4.601-4.2 7.7-9 8.101-15.4-1.7-17.1-5.101-33.8-12.601-49.4-2.6 2.3-3.7 5.4-5.1 8.5-4.2 9.5-11.2 16.4-20.3 21.2-3.801 2-7.7 4-11.601 5.8-5.899 2.7-9.6 6.8-10.7 13.4-1 6.1-3.6 11.5-8 15.8-9.5 9.1-19.399 16.9-33.5 17.8-7.3.4-15.5 1-20.699 8-.099 1.399.301 2.699 1.501 3.599z"/><path id="l" fill="none" stroke="#000" stroke-miterlimit="10" stroke-width="6" d="M1662.6 405.4s78.4 44.6 62.5 146.7m-210.8-181.7c-8.399-5.7-24.6-18-126.3-14.7 0 0-100.2 23.6-150.6 63.4-27.9 19.6-65.9 31.6-86.5 44.2-20.6 12.6-50.6 26.7-57.3 59.4-6.7 32.7-30.6 101.3-40.7 122.4-10.1 21.1-6.8 19.6-16.7 29.1-9.9 9.5-29.7 18.5-24.2 55.2 5.5 36.699 8.6 45.1-6.3 66.1-14.9 21-40.9 45.5-49.8 64.5-7.9 16 2.3 25.3 15.5 44.4 13.199 19.1 46 65.5 47.8 75.3s10.5 41.8-32 61.8l-32.7 10.7s62.9 74.6 67.4 75.1 7.399 13.3 7.399 13.3-3 10.301.601 15.4c5 22 27 43 63.199 45.5 36.2 2.5 113.5 6.2 156.601-26.2 0 0 22-2.699 27.3-38.699s17.5-32.2 27.4-39c9.899-6.801 46.899-15.7 60.199-68.301 6.301-50-10.899-108.6-12.3-118-1.399-9.399-22.7-94.7 27.3-119 26.7-19.399 80.101-33.1 109.2-65.2 20.601-25.1 8.101-50.6 16.601-68.3 4.899-9.399 20.699-26.6 42-32.3 21.3-5.7 88.199-29.1 95.5-32 7.3-2.9 62.8-21.1 76.1-37.1s18.5 1.2 25.4 6.899c6.899 5.7 43.5 46.601 47.5 65.2 4 18.601 69.3 129.7 76.399 232.2 2.601 59.1-32.2 159-38 189.8 0 0-19.399 59.601 40.101 64.601s47.699-6.5 47.699-6.5-30.199-12.301-14-64.7c8.5-22.8 48.801-55.2 76.5-78.2 19.5-21.6 1-46.5-3.6-54.6-4.6-8.101-39.2-52.2-38.7-68 .5-15.801 3.2-190.9-8.399-234.601-11.601-62.2-64.101-107.2-96-133.6-31.9-26.4-98.801-93.8-153.7-73.4l-20.8 3.2c.2.201-78.7-36.999-145.1-35.299zm-312.1 584.7c5.3-34.6-52.9-101.1-39.601-161.399 5.301-33.601 32.7-109 61.5-144.3C1252.9 614.1 1323.9 602 1353.9 565.7c21.899-26.3 19.6-79.2 42.399-133.4 22.8-54.2 117.601-61.8 117.601-61.8m-344.4 488s-1.5 46-56 62c-42.2 17.3-42.3 48-41.2 53.2 1.101 5.2 10.9 37.5 38.3 63.899 27.4 26.4 26.7 45.301 25.4 52.5-1.3 7.2-10.3 38.801-40.2 52.101-29.899 13.3-66.399-1.801-67.3-4.5m532-676s93.8-26.3 156.2 11.6"/></g></switch></svg>