<svg xmlns="http://www.w3.org/2000/svg" id="hair" viewBox="0 0 3000 3000"><switch><g><path id="cl1" fill="#A47642" d="M1317.1 876.2c-.5 10.399-5.5 19.1-10.6 27.7-6.8 11.399-14.2 22.5-21.2 33.8-5.3 8.5-10.3 17.1-13.3 26.7-4.6 14.6-1.1 26.899 9.9 37.1 5.399 5 11.399 9.1 17.8 12.7 12.5 6.899 25.1 13.6 37.5 20.7 8.1 4.6 16 9.5 23.8 14.6 28.5 18.7 45.6 45.8 56.1 77.6 0 7.2-3.899 5.601-7.699 3.301-6.9-4.101-13.2-9-19.7-13.601-12.7-9.199-26.1-17.3-40.3-24-3.2-1.5-6.801-3.899-10.301-1.1-3.399 2.8-1.699 6.8-1.1 10.3 2 11.7 8.6 21.601 13.8 32 1.9 3.8 5.301 7.8.601 11.5-4.801 3.8-8-.7-11.101-3.5-32.699-29-66.6-56.3-105.8-76.3-5.3-2.7-10.9-5.1-16.5-7-2.8-1-5.9-2.5-8.4.2-2.199 2.3-.699 5.1.2 7.5 5 14.8 9.7 29.8 16.101 44.1 2.199 4.9 7.3 10.6 1.8 15.4-5.7 4.899-11.5-.301-16.3-3.301-41.2-26.6-78.301-57.5-105.4-99.1-2.4-3.7-4.1-8.4-10.4-10.7 0 10.8 1.601 20.8 1.5 30.9 0 2 .5 4 .7 5.899.2 2.801-.3 5.301-3.1 6.7-2.9 1.4-5.101.1-7.3-1.6-8.9-7.301-15.301-16.7-21.5-26.101-24.101-36.3-42.2-75.5-53.5-117.699-2.801-10.5-3.601-20.801-.601-31.301 3.8-10 9.7-18.899 14.8-28.199 32.6-58.298 53.3-120.698 65.1-186.298.5-2.6 1.2-5.199 1.8-7.699 6-4.101 10.1.699 14.3 3.399 22 14.4 45.5 25.101 71.601 28.7 23.699 3.3 47.1-.6 70.5-4.2 18.199-2.8 35.899-7.2 52-16.6 6.899-4 13.5-3.9 20.899-.8 25.2 10.399 52.101 14 78.9 15.899 17.8 1.3 35.8-2.399 53.399-6.2 9.9-2.1 19.9-3.199 29.601-5.899 2.6-.7 4.5-.8 5.6 2-10.8 8.899-22.899 15.899-34.7 23.3-48.5 30.5-95.399 58.6-146.6 89-28.4 23.3-105.6 159.5-103.8 157.2 1.7-2.4 2.899-5.2 4.3-7.8 8.9-15.601 24.3-24 38.2-33.9 17.1-12.2 34.8-23.3 52.2-34.9 4.1-2.8 8.1-8.5 13.899-5 5.601 3.5 2.701 9.6 2.301 14.6zm-169.3-302.5c2.8 35.5 18.2 63.7 50.9 78.899 22.6 10.5 47.5 8.7 71.399 2 13.101-3.699 25.9-8.5 38.801-13.1 8.3-3 15.5-2.5 22.1 3.9 3.8 3.7 8.5 6.5 13.7 7.899 50 13.301 100 26.4 152.5 16.801 9.2-4.801 17-11.5 25.3-17.601 20.3-14.7 39.1-31 55.1-50.3 4.9-5.9 7.801-13.2 13.301-18.6 3.899-2 8.199-3.4 9.699-8.301 15.801-49.699 15.7-78.699-22.199-111.899-6-5.3-12.5-9.9-19.2-14.3-8-5.301-16.4-9.7-26.4-9.7-.699-.101-1.3 0-1.899.399-1.4 1.2-3.2 1-4.7 1.601-2.6-.7-5.2-1.2-7.7-2.101-26.1-9.199-52.899-15.899-80.199-20.7-46-8.1-91.4-7-136.4 6.9-40.7 12.601-75 35.5-106.2 63.8-16.1 14.601-31 30.101-43.3 48.101-2.103 12.002-5.603 23.802-4.603 36.302zm437 102.8c14-10.2 27.7-20.8 40.101-32.9 10.3-10 19.8-20.399 23.5-35.199 2.5-10.2 7.5-11.2 15.899-4.7 11.3 8.7 22.5 17.7 34.101 26.1 15.6 11.3 31.199 22.7 48.399 31.6 8.101.801 15.5-1.1 23.101-4.5C1791 647.5 1806.8 632.2 1819.6 613.5c4.7-6.9 9.4-11 18.801-9.5 15.399 2.399 30.5-.3 44.899-6.3 4.601-1.9 9.4-3.801 9.5-10.101-.399-1.3-.6-2.6-1.2-3.8-16.699-33.6-37.1-64.7-63.3-91.8-31.3-32.4-67.7-57-111.6-69.2-24.2-6.7-48.9-10-74.101-7.6-3.399 2.8-3.8 6.3-3.5 10.701 1.2 13.899 1 27.8-1.899 41.6-4.3 20.5-8.9 40.9-13.9 61.2-4.2 17.1-9.3 34-22.399 47.1-3.2 3.1-4.301 7.5-2.301 12 .5 4 1.101 7.9 1.4 11.9 2.1 26 1.1 51.399-15.8 73.3-.5 1.4-.3 2.5.6 3.5zm361.5 247.2c-29.2-46.2-32.8-93.9-9.6-143.4 2.5-5.399 1.1-12.2 6.2-16.6-.101-2.6.1-5.3-.301-7.9-3.3-20.6-6.6-41.2-11.6-61.399-4.5-17.9-8.7-36-15.9-53.101-21.699 1.5-40.899-6.899-60.1-15.2-10.3-4.399-12.1-3.8-16.8 6.5-4.5 10-11.4 17.7-20.5 23.801-9.4 6.3-19.7 10.899-30.101 15.3-3.8 1.6-7.5 3.1-6.899 8.3 4.8 3 9.6 6 14.399 8.9 14.5 8.899 28.301 18.8 39.801 31.5 39.3 43.199 52.8 94.3 45.1 151.399-4.8 35.8-15.1 70.101-27.8 103.8-8.2 21.7-15.9 43.7-23.8 65.501 3.3 16.199 11.399 30.5 18.6 45.1 5.5 11.2 13.3 20.7 22.4 29.1 3.199 3 6.699 5.5 10.899 6.801 6.101 2 10.4 0 12.8-6 .9-2.101 1.301-4.5 1.5-6.801.9-10.3 1.7-20.6 2.301-30.8.899-14.9 5.699-28.7 11.5-42.2 2.199-5.199 4-5.399 8.1-1.8 2.5 2.2 4.9 4.5 7 7.1 10.2 12.7 20.6 25.301 29.1 39.301 1.9 3.199 3.301 8.8 7.801 7.6 4-1.1 2.399-6.4 2.199-9.9-.899-20.3 2.9-40.5 2.301-60.8 0-1.3 0-2.7.3-4 .899-4.1 2.8-4.8 6.3-2.2 3.9 2.801 6.3 7.5 13.2 10.101-2.601-15.2-4-28.9-7.601-42.3C1969.5 959.4 1957.7 941.6 1946.3 923.7z"/><path id="hl1" fill="#B6844A" d="M1152.2 537.3c3.399 5.601 2.5 11.5 1.8 17.5-4.1 31.101 4.7 57.8 27 80.2 11.7 11.8 25.9 17.4 42 18.5 19.4 1.3 38.5.4 56.9-7.6 11.899-5.2 24.6-8.301 36.899-12.601 5.3-1.899 9.101-1.7 12.8 3.5 5.2 7.3 13.301 10.9 21.801 13.3 25.399 7.2 51.1 12.601 77.3 15.5 17.5 1.9 35 4.4 52.8 3.9 5.2-.2 10.5-2.6 15.7.5-1.5 1.9-3.5 3.2-5.8 3.8-16.7 5.8-34 9.3-51.4 12.3-40.5 7-79.5.301-117.7-13.1-5.699-2-10.699-3.3-16.1 0-23.5 14.2-50 17.4-76.5 20.7-19.2 2.4-38.5 3.4-57.7-.2-21.5-4.1-41.199-12.9-59.8-24.5-5.9-3.7-11.7-7.7-17.5-11.6-.6-7-.1-14 2.3-20.7 12.6-36.099 30.6-69.599 55.2-99.399zm740.6 50.3c-19.8 9.801-40.1 16.2-62.399 8.801-3.301-1.101-5.9-.2-7.801 2.6-1.6 2.5-3.1 5.1-4.699 7.6-14.5 23.8-34.5 41-61.2 49.9-3.5 1.2-6.9 2.4-9.8 4.7l.199.1c.801 1.5 2.801 1 3.7 2.2 8 5.7 16.7 10.3 25.7 14.1 1.2 1 3.3.5 4.2 2.101h-.101c9.801-4.301 20-7.5 29.301-12.801 11.3-6.401 22.2-13.401 29.4-24.901 2.601-4.101 2.5-10.7 7.8-12.2 5.301-1.5 10.2 2.6 14.9 4.7 13.5 6.2 27.4 10.2 42 12.2 5.1.699 9.4.199 11-5.601-5.6-18.499-12.8-36.399-22.2-53.499zm81.1 370.4c-1.601-15.3-4.7-30.7-1.2-46.2v-.1c-.601-.7-1.2-1.5-1.8-2.2-4-5.3-8.2-10.4-11.9-15.8-5-7.2-8.1-15.101-8.4-24.101-.399-12.199-1-24.5-1.6-36.699-1.2-23.101-2.2-46.301-6-69.2-2-2.4-4-4.101-5.6.2-3.601 9.3-7.101 18.699-10.801 27.899-7.3 18.2-10.6 36.8-9.899 56.5.7 19.3 4.7 37.5 13 54.9 12.6 26.1 29.399 49.9 43.6 75.1.9 1.5 1.9 2.9 3.8 1.2-1.1-7.199-2.4-14.299-3.2-21.499z"/><path id="sd1" fill="#896237" d="M1012.8 879.8c3.601 30.4 13.601 59.101 25.7 86.9 11.6 26.6 26.1 51.7 44 74.7 2.8 3.6 5.2 7.6 10.8 10-.6-10-.899-18.9-1.7-27.7-.5-5.7-1-11.3-.699-17 .1-2.3 0-5.101 2.6-6 2.7-1 4.3 1.3 5.6 3.1 4 5.3 7.9 10.7 11.7 16.2 12 17.2 24.2 34.3 39.8 48.6 19.9 18.2 40.9 35.2 63.801 49.601 2.8 1.699 5.399 4 9.199 3.6 2.5-2.6.4-5-.699-7.2-9.101-18.6-13.9-38.899-21.801-58-2.8-6.699-.8-8.6 6.301-6.899 21 5.3 39.699 15.5 57.699 27 28.301 18.199 54.9 38.8 79.601 61.8.899.9 2 1.5 4.3 1.5-2.9-5.5-5.5-11.1-8.6-16.3-6.301-10.601-8.4-22.4-10.2-34.301-.9-6.1 1.3-7.899 7.4-6.8 4.3.8 8.199 2.7 12.1 4.5 20.4 9.4 38.7 22.101 56.8 35.3 3.101 2.301 5.9 5.601 10.601 4.7 3 5.2 4 11 5.5 16.9-4.801.5-7-2.3-9.7-4.101-13.9-9.199-27.7-18.5-41.5-27.699-1.9-1.301-3.9-2.7-6-3.601-5-2.1-8.6.101-9 5.601-.2 2.899.3 6 .7 8.899 2.8 18.4 5.699 36.9 8.5 55.301.3 2 .5 4 .8 5.899.6 3.9-1.3 5.5-5 5.601-4 .199-8 .399-12 .8-8.5.9-10 2.3-9.7 10.4.601 14.3 1.5 28.6 2.3 42.899.301 5.2 1.2 10.4.4 15.5-4.8.8-7.8-1.5-11.1-2.899-23-9.801-45.9-19.801-68.801-29.601-2.399-1.1-4.899-2.2-7.3-3.1-9.8-3.8-13.1-1.2-11.6 9.2.5 3.5 1.5 7.1.5 10.699-4.8.101-7.8-2.899-11.2-4.8-30.2-17.6-60.4-35.3-90.6-52.9-2.301-1.3-4.601-2.699-7-3.899-4-2.101-7.7-1.7-10.9 1.699-1.1 1.2-2.2 2.5-3.4 3.601-5.3 5.3-5.5 5.5-11-.101-17.6-17.699-35.1-35.6-52.699-53.3-6.601-6.7-8.301-6.6-15.7-.399-1.4-.2-2.3-1.2-3.101-2.301-21.3-32.8-39.8-66.899-53-103.899-6.699-18.7-8.6-37.5-5.399-57 5.897-32.1 17.497-62.1 32.697-90.7zm953.3 42.1c-.5 5.6.101 11.199.301 16.8.5 13.1 4.8 25.399 6.399 38.3-1.5 3.4-2.3 6.6-.3 10.4 3.1 6 3.5 12.6 3.9 18.8-1.5 1.3-2.301.399-3.101 0-9.5-4.8-12.8-3.101-13.399 7.2-.4 5.6.3 11.3-.2 17-1.2 14.3-2 28.699-2.5 44.1-4.3-2.3-5.5-5.1-7.3-7.5-9.7-12.6-18.7-26-30.601-36.8-7.6-6.9-11.399-6.101-15.5 3.399-6.7 15.7-12.3 31.601-12.2 49 .101 8-1.6 15.9-2.399 23.801-.9 8.8-6.8 11.199-14.2 6.3-5.3-3.5-9.5-8.3-13.4-13.3-11.399-15-18.399-32.301-25.699-49.5-1.601-3.7-1.601-9-7.7-9-4.1 10.3-7 20.8-5.3 32 1.5 10.5 2.8 21.1 4.8 31.6 5.8 30.6 7.1 60.8-4.5 90.5-1.6 4-2.6 8.2-5 11.9-9.8 15.1-19.3 30.399-31.4 43.8-4.8 5.3-4.8 5.6.9 9.8 17.5 12.8 36.6 23.2 56.1 32.601 6.9 3.3 7.4 2.899 8.9-4.9.2-1 .3-2 .5-3 5.3-32.5 11.2-65 17.7-97.3.8-3.801.899-8.301 5.699-9.7 5.5-1.6 7.5 3 10.2 6.2 1.7 2.1 3.2 4.199 4.8 6.399 14 19 28 38.101 42.2 57.101 1.9 2.5 3 6 7.2 7 2.5-2.601 3.3-6.301 4.5-9.601 10.5-28.399 21-56.899 31.7-85.199 3.7-9.7 8.1-10.5 15.1-2.9 8.101 8.8 15.8 18 23.8 26.9 1.7 1.8 2.801 4.699 6.5 4.199 8.4-11 11.9-24.1 13.9-37.699 4.7-31.801 1.1-63.101-4.8-94.4-.8-4.3-4.601-9.1 0-13.1 4.6-3.9 9.5-.301 14.2 1 9.199 2.6 18 6.699 27.899 8.3.5-1.8 1-3 1.101-4.3.6-29.601-6.4-55.7-31.101-75.301-24.5-19.5-48.7-39.399-71.2-61.199-4.799 1.799-6.099 5.799-6.499 10.299zm-433.4-482.6c2.7 2.601 5.899 4.3 9.2 5.8 10.899 5.2 20.8 11.801 30 19.5 20.899 17.5 36.6 37.801 32.899 67.4-2.2 17.8-5 35.5-14 51.5 3.601-.3 5.9 1.7 7.8 4.4 1-3.2 2.801-6.101 5.301-8.301 11.699-10 17.1-23.5 21.3-37.699 6.8-23.4 11.5-47.2 16.7-71 4.1-18.5 4-37 .699-55.601C1604.5 416.3 1567.9 424.9 1532.7 439.3zm-214.6 433.1c-.6-22.801-5.199-44.801-13.3-66.101-1.7-4.6-3-4.6-8 .101-29.3 27.4-54.8 57.9-72.9 93.9-5.601 11.2-11.4 22.5-13.5 35.2 9.899-5.5 18.1-13.5 27.3-20 21.7-15.4 44.1-29.7 66.1-44.7 11.3-7.7 11.601-7.7 13.3 5.4.4-1.2 1.1-2.5 1-3.8z"/><path id="l" fill="none" stroke="#000" stroke-miterlimit="10" stroke-width="6" d="M1773.1 447.4c50.3 30.4 86.1 81.9 113.3 126.2 72.399 117.4 63.199 272.4 64 292 .8 19.601 14.399 42.7 28.199 51.7 96.9 70.3 90.7 90.4 95.4 97.601 4.7 7.199 0 37.6 0 37.6s-25.1-7.4-31.1-9.4-18-10.199-10.9 13.2c7.1 30.1 4.8 94.4-1.4 118.5-6.199 24.1-14.3 9.3-14.3 9.3l-20.3-23c-13.8-23.6-18.7-1.1-18.7-1.1s-18 48.4-28.7 77.2c-10.699 28.8-12.899 13.3-12.899 13.3s-36.4-49.5-48.7-66.2c-12.3-16.699-15.9 3.5-15.9 3.5s-12.199 105-21.6 107.101c-9.4 2.1-74.6-32.801-65.3-41 9.3-8.2 29.7-40.2 43.7-72.801 14-32.6-11.7-93-4.2-125.199 7.5-32.2 7.399-22.801 42.399-121.601 47.4-134.2-25.5-207.7-48.5-230.2S1762.2 665.5 1744 659.7s-74.2-52-76.5-53.8c-2.3-1.801-14.9-10-15.2-1.4s-15.7 28.7-15.7 28.7c-3.899 12.1-70.3 56.7-52.199 39.8 18.1-16.9 12.199-67.2 14.899-80.6 2.7-13.4-13.1-10.601-17.1 3-4 13.6-21.7 27.699-38.2 40.199-11.6 14.801-111.3 76.301-143.8 96-32.5 19.7-74 41.601-95.5 62.101-86.1 67.8-99 150-99 150 26.8-93.5 92.8-140.8 89.3-138.3 0 0 10.5-8.301 9.5-3.801 4.301 7 13 42.301 13.801 68.301.8 26-31.601 68.1-31.601 68.1-17.7 30-20.5 37.3-7.3 57.7 13.2 20.399 75.2 45.399 98.5 66.399s33.5 48.601 41.4 68.5c7.899 19.9-2.5 11.601-2.5 11.601s-26-17.5-45-30.301c-19-12.8-14.5 8.9-14.5 8.9s10.1 60.5 9.699 63.9c-.399 3.399-1.399 9.6-12.5 5.399-11.1-4.199-14.1 14.301-14.1 14.301l2.7 46.3c2.699 13.4-7 7.7-7 7.7s-76-32.9-80.4-34.801c-4.4-1.899-16.7-11.199-11.8 7.5 4.899 18.7-6.9 9.9-6.9 9.9l-88.6-51.9s-17.101-15.1-20.301-7.8c-11.199 19.3-17.6 5.9-17.6 5.9l-59.7-58.301-11.8 2.2s-25.6-42.899-51.7-100.3c-26.1-57.4 10.601-138.5 40.5-179.5 29.9-41 64.101-138.9 66.9-194s65-130.4 65-130.4C1302.5 337 1526.2 441 1526.2 441c119.1-50.1 196.6-24 246.9 6.4z"/></g></switch></svg>