<svg xmlns="http://www.w3.org/2000/svg" id="hair" viewBox="0 0 3000 3000"><path id="cl1" fill="#A47642" d="M1278.276 370.506c23.102-14.101 48.5-21.601 75-25.8 44.399-6.899 88.399-3 132.2 5 97 17.8 186 55.3 269.198 107.602 38.802 24.399 74.302 53.1 108 83.899 35.899 32.8 66.101 70.3 88.399 113.8 5.601 11 10.101 22.398 14 34.2 6.4 19.3 6.601 38.5 1.199 58-6.798 24.8-16.198 48.601-25.897 72.399-22.5 54.899-49 107.899-78.5 159.399-4.699 8.199-9.398 16.601-16.898 24.199-1.602-5.398.898-8.898 2.1-12.398 11.301-32.801 21.699-65.7 28.5-99.801 2.9-14.699 5.602-29.399 5.9-44.5.1-3.601.799-7.301 1.699-10.801 17.801-71.898 6.5-139.398-30.699-203-6.201-10.6-13.301-20.8-19-31.699-12.102-22.899-30.602-39.199-52.5-52.101-4.301-2.5-9-4.3-12.602-7.899-9.398-9.601-22.199-13-34.102-17.899-42.898-17.8-86.5-33.399-131.699-44.399-43.5-10.5-87.5-17.601-132.301-18.898-33.398-.899-60.1 13.3-80.6 39-28.4 35.6-44.601 77-56.5 120.398-2 7.4-1.5 16.301-9.801 20.9-4.898-.102-7.801-3.7-10-7.102-23.801-38.699-46.898-77.699-54.699-123.5-3.301-19.101.301-37.898 3.899-56.5 3.899-19.699 10.101-38.7 17.698-57.2 3-7.3 7.602-14.8-2.299-20.9-1.395-.599-.594-2.799.305-4.399zm8.101 270.301c-29.802 6.3-64.399 29.1-91.802 41.8-25.899 12.102-53.399 22.3-73.1 44.7 25.8-24.2 44.198-55.301 71.8-77.801 2.102-1.699 3.301-4.199 2.2-7.102-1.302-3.398-4.302-3.898-7.4-3.898-5 0-9.801 1.601-14.6 3-47.5 13.7-92.802 33.101-138.2 52.2-6 2.5-10.5 6.698-14.8 11.198-.4.5-1 1-1.301 1.5-21 41.4-34.699 84.602-35.199 131.7-.4 32.102 2.8 63.7 10.5 94.801 6.699 4.5 7.899-1.399 9.6-5.5 7.602-18.7 13.7-38.001 23.602-55.801 10.399-18.7 23.2-35.898 32.6-55.3 0 0-.399.398-.299.398-10.899 22.102-15 46.3-20.399 70-7.399 32.102-6.199 64.899-6 97.5.198 18.399 3.101 36.399 7.601 54.301 5.6 22.199 18.399 40.899 29.198 60.601 11.2 16.399 25.602 29.7 40.602 42.399 34.5 29 73.5 49.101 117.199 60.199 5.399 1.399 10.801 3.102 16.301 2.602 7.646 1.86 10.697-1.205 9.896-2.307-7.398-9.898-15.824-19.001-23.125-28.9-1.899-2.601-23.416-32.648-26.416-33.448-9.301-2.5-7.158-3.2-16.959-3.9-10.699-.698-30.887-8.554-40.787-12.754-17.219-12.642-35.188-23.444-57.088-55.246-16.601-24.1-16.125-39.75-18-59.566.027-10.682 2.875-29.559 11.082-48.219 3.699-2.3 10.12-14.811 14.42-14.21 9.399 1.301 14.176-1.949 23.074.75 17.699 5.4 33.301.7 48-9.1 5.602-9.801 15.399-15.801 22-24.9 11.5-15.898 24.801-30.398 37.5-45.398 14.399-17 29-33.8 43-51.2 5.399-6.699 4-12.6-3.398-13.1-19.2-1.5-38.301-4.7-55.4-4.602 26-10.301 53-23.601 79.9-37.199 12.1-6.102 18.5-15.102 21.3-28.102 4.3-19.5 7.399-39.199 10.899-58.898 1-6 6.5-24 4-29.5-3.602-2.199-7.602-3.399-11.699-3.801-9.903-2.598-20.003-2.098-30.302.103z"/><path id="hl1" fill="#B6844A" d="M1322.576 640.507c-.699-1.199-1.399-2.399-2.101-3.699 6.8-25.101 13.3-50.2 23.601-74.2 10.301-23.898 21.801-47.2 38.301-67.5 16.8-20.8 37.3-36 64.3-40.8 12.301-2.2 24.601-2 36.899-1.101 64.399 4.898 127.199 17.5 188 39.5 28.5 10.3 56.601 21.5 83.601 35.5 3.801 2 7.5 4.3 11.101 6.698 1.7 1.102 1.602 2.7.102 4.102l.199.101c-.899-1.601-2.899-1.2-4.101-2.2l.101.102c-1.101-1.5-3-1.102-4.302-2-42.2-18.602-86.3-31.2-131.7-39.102-49-8.6-98.398-12.3-148.1-7-11.602 1.2-23.102 3.302-34.301 6.602-32.102 9.601-55.199 30-70.199 59.7-12.9 25.5-17.5 52.898-17.7 81.198-.101 13.7.899 13-12.399 10-7.302-1.502-14.302-3.802-21.302-5.901zm-151.3 292.3c27.301-17.801 54.602-35.801 82-53.4 6.801-4.398 12.801-9.5 17.899-15.698 6.2-7.399 12.301-14.899 18.601-22.2 21.102-24.899 34.899-53.102 40.801-85.5 5.699-31.399 12.399-78.102 22-109-7.101-2.899-14.301-4-21.399-5.199-1.899-1.5-4.601 0-6.399-1.801-.5-.5-1.199-.602-1.898-.399-.7 2.899-3.899 20.8-4.399 23.7-3.4 22.1-7.2 44-11.802 65.899-2.5 12.101-8.399 20.101-19.601 25.601-26.301 13-52.6 25.899-79.698 37-3.302 1.3-6.899 2.3-9.302 5.399 2.302 3.101 5.5 3 8.302 3.3 9.601 1 19.198 1.7 28.898 2.5 8.602.7 17.301 1.301 25.899 2.301 5.399.6 6.101 2.6 2.7 7.199-.802 1.101-1.802 2-2.602 3-21.3 25.2-42.601 50.301-63.699 75.601-9.801 11.7-19.399 23.7-28.801 35.8-1.699 2.2-5.898 4.5-1.898 8.4 1.398-1.003 2.999-1.603 4.398-2.503z"/><path id="sd1" fill="#896237" d="M1518.477 619.807c-20.5 8.6-41.801 14.1-63.602 18.1-9.898.602-11.199-1.1-7.101-9.3 22.899-45.7 50.601-88 87.302-124 7-6.898 19.1-18.398 27.698-16.8 18 .3 35.7 2.1 53.302 6 7.398 2.5 3.6 17.3-1.9 22.6-19.801 19.2-41.301 36.5-58.6 58.2-6.2 7.8-12.602 15.399-17.9 23.899-5.199 8.201-11.1 15.701-19.199 21.301zm-376.201 346.299c6.801 6.899 14 13.2 22.5 18 7 4 13.301 8.899 19.301 14.2 24.5 21.3 45.601 45.699 66.801 70.1 1.601 1.801 2.5 4.602 6.3 5-16-56.1-20.899-126.1-12.199-184.1-3.5-.2-15.801 5-18 6.398-20.899 13.7-42 27.102-62.5 41.301-9.5 6.601-19 10.601-30.7 8.899-2.601-.399-5.601-.7-7.8.3-2.2 1 6.699 13 8.3 13.801 4.598-.498 6.897 2.002 7.997 6.101zm243.101-429c-21.5 30.101-26.7 70.101-25.399 106.101.199 5.699 11.699 8.102 17.899 7.801 7.601-.399 15.3-.801 22.601-3.102 3.199-23.5 12.399-44.6 24.899-64.5 7.8-12.398 16.601-24 26.101-35.1 13.199-15.4 26.3-30.7 42.101-43.602 1-.801 8.801-14.801 7.601-17-7.199.602-29.802 1.199-38.9 5.301-31.705 2.802-58.104 17.802-76.903 44.101zm268.199 52.8c10.101.602 20.899 3.801 29.698-3.6 16.302-13.7 32.802-27 51.103-38 3.699-2.301 8.199-14.7 5.601-18.7-21.101-10-43.301-16.7-66-21.7-7.201.102-15.701 13.801-20.5 18.301-18.701 17.301-36.601 35.399-50.601 56.899-.899 1.399-1.899 2.7-2.7 4.101-1.699 3.199.7 4 3 4.801a702.753 702.753 0 0 1 50.399-2.102zm127.2 31.301c5.899 4.801 11.7 9.699 17.602 14.602 10.898 5.6 21.8 2.398 32.698-.102 3.101-.699 15.802-14.699 15.199-17.699-7.799-15.301-20.799-28.801-30.397-43-3.899-5.699-8.802-10.699-15-14.102-4 .5-15.802 12.7-18.899 15.301-11.5 9.899-24.9 17.399-35.802 28 12.3 4.1 24.398 8.8 34.599 17zm108.5 176.8c4-27-1-62.199-6.8-88.899-4.2-19.3-9.601-38.101-19.4-55.398-3.399-6.302-18.899 4.198-24.1 7.3-5.601 3.398-14 5-10.601 14.898 21.898 38.7 37.698 79.602 44.101 123.802.3.8.1 70.198 4.3 69.698 3.9-.401 12.201-70.701 12.5-71.401zm-574.1-156.5c-24.5 3.5-54.699 18.398-78 26.898-22.199 8.102-44.102 17-65.301 27.602-18.898 9.398-36.699 20.301-53.199 33.301-3.102 2.399-6.199 4.699-9.9 6.399 24.4-32.302 48.801-64.5 79-92.399-3.398-3-6.6-1-9.5-.2-17.1 4.5-33.898 9.7-50.398 16.102-32.602 12.601-65.301 25.198-97.301 39.3-4 1.7-8.1 3-12.199 4.5 15.398-35.3 35.301-67.699 61.5-96.102 5.699-6.1 12.5-11 19.398-15.698 19.102-12.802 34.701-24.302 55.9-33.2 7.199-3.102 18.898-11 22-4.5 5.199 10.7 13.1 19.2 22.199 26.601 30.301 24.602 64.801 41.602 100.898 55.7 5.104 1.795 10.003 3.696 14.903 5.696zm-57.5-261.501c-30.5 22.101-52.699 50.301-64.199 86.601-5.801 18.101-10.4 36.5-14.5 54.899-2.7 11.801-2.801 23.398 3.5 34.801 5.1 9.3 11.8 16.898 19.898 23.3 35.899 28.5 76.699 47.399 120.301 60.899 1-2.199.101-3.301-2.1-3.699-9.302-13.9-17.2-28.5-25.2-43.102-11.8-21.301-22.3-43.301-29-66.801-3.601-12.5-6.3-25.199-5.399-38.398 1.801-29.5 9-57.899 19.6-85.399 3.302-8.399 6.9-16.601 10.4-24.899 3.1-7.301 2.699-8.101-4.9-7.801-3.398.102-6.6 0-9.6-1.898-7.5 2.097-12.901 7.198-18.801 11.497zm-264.9 554.801c9.602 37.5 22.102 73.898 40.602 108 10.3 19 21 37.699 35.101 54.3-.9-5-3.601-9.3-5.7-13.8-6.199-12.9-11.699-26.101-16.101-39.801-12.3-38.899-11.601-79-9.399-118.899 1.7-29.7 9.102-58.5 17.301-87.101 3.301-11.5 7.899-22.699 9.899-34.602l.101.102c-3.199 2-5.301 4.898-7.5 7.898-22.899 32.2-43.899 65.4-56.199 103.4-1.899 5.898-3.399 12.199-8.399 16.6.093 1.303-.105 2.702.294 3.903z"/><path id="sd2" fill="#7D5A32" d="M1563.877 489.807c-9.7-.7-20.802 14.699-27.7 21.699-31.101 31.7-55.699 67.801-76.601 106.7-2.5 4.698-4.801 9.5-7.399 14.198-1.899 3.5-1.199 5.7 2.801 6.602-17.801 4.898-36 8.301-54.399 10-5.301-2.5-4.101-6.899-3.199-11.199 5.3-24.5 16.398-46.301 30.898-66.601 16.102-22.5 34.301-43.102 54.301-62.399-3.601-2.601-5.198-10.2-5.601-17 6.3-2.601 13-2.4 19.601-2.801 22.298-1.4 44.798-2.199 67.298.801zm-18.701 120.599c15.1-7.1 30.898-11.8 47.301-14.898 3.6-.699 7.3-.5 10.6-2.301.199-4.898 4.602-6.898 7-10.301 16.699-22.8 34.801-44.3 58.801-59.898 1.601-1.102 5.601-14.102 5.601-15.801-19.101-5.898-38.5-10-58.4-12.101 1.601 2.3-2.399 15.7-4.399 17.601-6.101 5.699-11.899 11.699-18.101 17.102-30 26.3-56.198 55.6-75.1 91.1 9.498-1.902 18.096-6.402 26.697-10.503zm151-14.3c16.801 2.601 33.398 6.101 50.1 9.2 13.301-1.5 22.201-10.9 31.801-18.5 5.301-4.102 19.602-17.4 21.602-25.102-16.602-14.398-39.199-24.601-59.801-32.101-2.102 2.7-7.898 15.399-10.801 17.101-14.898 8.899-29.6 18.399-41.398 30.899-9.9 10.5-20.5 14.8-34.199 13.5 14.296 1.604 28.595 2.803 42.696 5.003zm151.399 22.8c-11.698 4.301-37.198 15.4-49.198 18 10.601 12.9 20.5 26.4 30 40.102 6-8.102 26.3-25.301 37-24-4.601-12.001-10.302-23.501-17.802-34.102z"/><path fill="none" stroke="#000" stroke-miterlimit="10" stroke-width="6" d="M1890.576 790.207c.601-86.699-28.199-138.801-32.601-147.5-8.801-17.601-28.2-77.898-99.899-107.699s-260.101-80.602-353.199-19.199c-55.7 61-45.7 119-45.7 119s-.699 16-7.9 13.199c-156.1-39.199-170.698-95.5-172-99-1.299-3.5-7.399-102.899 62-155.899 105.5-89.8 244.201-43.399 244.201-43.399 332.399 71.699 476.101 282.301 484.601 363.301s-125.199 290.3-125.199 290.3c35.696-80.004 31.196-130.304 45.696-213.104zm-712-239.301s-110.699 19.4-160 152c-49.302 132.602-41 175.801-11.199 280.5 50.5 145.4 162.857 212.062 247.457 222.762-1-4.102-53.131-71.997-53.131-71.997s-29.866 3.25-43.965-4.65c-14.102-7.899-93.572-56.114-85.238-138.353 14.8-46.602 22.168-45.896 35.231-47.314 12.4 4.601 20.845 7.455 40.845 2.955s63.5-46.102 76.4-49c12.899-2.9 41.899-29.2 41.899-29.2s39.101-47.2 45-59.101c5.899-11.899 25.8-55.699 25.5-92.102-.302-36.4 17.1-69.699 17.1-69.699m519.002 261.899c1.1-4.399 1-74.101-.9-108.8-1.898-34.7-35.398-118-69.898-158.7s-89.9-43.3-124.9-48.5-92.699-3.5-132.6 16.7c-39.901 20.199-100.5 31.3-133.4 37.398-47.398 13.699-54.799-2.898-54.799-2.898m-232.103 302.701s22 32.5 50.5 45 71 72.801 78.8 81.101c7.801 8.3-24.3-81.101-12.5-169.5 5.2-20.2 3.301-17.7 3.301-17.7"/></svg>