<svg xmlns="http://www.w3.org/2000/svg" id="hair" viewBox="0 0 3000 3000"><path id="cl1" fill="#774C25" d="M1718.3 463.801c24.802 14 46.7 31.899 66.9 51.8 39.5 38.899 68.1 84.899 87.5 136.801 2.8 7.6 4.3 15.399 5.3 23.3 2.9 21.899-11.2 36.8-33.2 35.601-14.898-.801-28.698-5.601-42-12-22.198-10.7-43.5-23.101-64.898-35.301-8.8-5.8-18.7-9.3-27.7-14.6-38-18.601-78.3-30.301-120.1-35.801-23-3-46.302-4.199-69.5-1.899-5.5.601-11-.5-16.5 1-3.4.5-6.802 0-10.102.399-19.6 3.101-39.3 5.5-58.898 9.399-21.7 4.4-43.102 9.9-64.2 16.301-5.601 1.699-11.7 2.101-16.9 5.3h.102c-14.102 5.399-27.5 3.5-41.2-2.399-13.7-6-27.9-10.899-41.102-18.101-28.8-15.699-34.5-27.8-26.3-61.8 8-33.2 26.9-60.899 54.7-81.301 25.5-18.8 51.5-37.199 80.7-49.6 34-14.4 68.3-28.4 105.7-31.7 14-1.2 27.898.3 41.698 1.9 41.602 4.8 82.4 13.399 121.302 29.399 23.798 9.201 46.798 20.201 68.698 33.302zM919.2 1068.9c-1.8.8-4 1.399-3.602 4 .4 2.699 2.5 2.6 4.9 2.8 13.6.801 27.1 2.5 40.7 3.301 5.7.3 12.8-.601 13.399 6.699.601 6.601-6.899 6.801-11.601 8.7-14.399 5.699-29.6 9.199-43.3 16.6-3.8 2.301-8.101 3.101-12.3 4.5-2.5.801-5.801 1.601-5.602 4.801.2 3 3.301 3.3 5.9 4.101 16.3 5.399 33.2 8.399 50 11.399 12.1 2.199 24.1 1.699 33.899-7.5 6.899-6.399 13.199-13 18.5-20.899 23.301-34.601 23.101-71.9 13.399-110.301-2.398-9.3-6.398-18.3-8.5-27.699-9.2-40.101-23.6-78.301-38.899-116.4-14.5-36.199-17-73.899-9.5-112 4.699-23.899 13.301-46.8 19.5-70.199 6.899-26.399 9.801-53.399-8.601-77.399-3.899-5.2-2.2-8.5 3.101-10.9 7-3.199 13.801-6.6 20.899-9.6 19.602-8.4 39.601-16.101 56.601-29.301 15.801-12.3 17-22.601 3.899-37.5-5-5.8-3.1-7.699 3.2-8.8 31-5.601 60.3-16.801 89.7-27.399 6.6-2.4 12.8-5.601 18.898-9 5.5-3 7-7.101 5.602-13.301-1.4-6.5-6.2-11.399-8.4-17.8 14.601-2 28.2-3.2 40.3-10.501 21.801-13.199 27.101-34.399 8.4-55-6.7-7.399-14.4-13.6-21.5-20.5l.1.2c-1-.399-1.6-1.2-2.199-2-3.199-2.3-6.399-4.8-9.699-7-34.4-21.699-71.7-35-112.2-39.399-3.7-.4-9.2-3.4-10.8.7-1.602 4.1 4.398 5.8 7.398 8 27.4 20.6 54.602 41.6 83.102 60.699 6.398 4.301 8.199 8.7 6.3 12.2-2.2 4-7.2 4.2-14.2-.3-26.8-17.3-56.699-24.3-87.8-28-48.8-5.7-96.3 1.6-143.5 13.3-2.1.5-4.7.7-5.3 4.2 3.2 2.6 7.2 2.7 11 3.2 14.899 1.899 29.6 4.7 44.2 8.1 18.199 4.2 36.3 8.9 52.5 18.7 4.398 2.7 10.198 5.5 8.198 12.1-1.898 6.301-7.898 6.301-13.398 6.4-24.8.6-49.102 4.6-73.102 10.5-41.5 10.399-79.898 27.7-113.698 54.2-2.7 2.1-6.4 3.699-7.102 7.699 3.3 2.5 6.102.801 8.9.2 7.199-1.5 14.3-3.5 21.5-4.601 21.8-3.3 43.6-6.7 65.199 1.399 8.5 5.801 17.301 10.899 27.2 14.301 9.199 3.1 17.899 7.8 23.3 11.3-7.601-4-17.899-10.101-29.5-13.601-6.101-1.8-10.899-.3-10.899 6.399-.101 15.301-8.3 27.301-15 39.899-11.3 21.4-23.601 42.301-32.9 64.7-16.6 39.601-20.1 80-6.5 121.101 13.5 40.8 34.102 78.5 51.2 117.8 18.602 42.601 37.4 85.2 42.5 132 3 27.399 1.3 54.399-19.3 76.2-1.2.699-2.3 1.5-3.5 2.199-6.392 4.603-13.392 9.003-20.992 12.303z"/><path id="sd1" fill="#5D3618" d="M1650 431.9c-46-18.102-93.9-27.102-142.9-31.5-16-1.4-31.198 1.6-46.1 7-18.8 6.8-37.8 13.1-56.8 19.1-10.5 3.301-20.4 8.101-30.102 13.301-27.698 14.8-54.6 31-78.5 51.3-23.6 20.101-38.898 46.101-46.398 76.5-.7 2.899-.802 5.899-1.2 8.899-2.3 17.601 4.6 30.301 20.1 38.9 21.7 12 44.4 21.199 68.2 28.1 5.9 1.7 11.9.601 17.9.601-16.2 7-32.602 13.5-48.2 21.801-35.5 18.899-64.7 44.5-84.5 79.899-10.5 18.8-16.6 39.101-20 60.399-6.8 42.601-1.6 84.399 7.7 125.899 1.5 6.801 3 13.7 4.398 20.5.4 2.2 7.674 29.512 5.573 31.712-4 .7-20.739-8.358-23.939-9.858-25.698-11.5-31.099-21.504-59.401-23.703-15.425 3.766-43.758 19.093-59.656 24.447-5.302 4.2-10.476-24.998-11.876-31.897-3.399-16.601-7.1-33.3-9.399-50.101-5.101-37-2.949-73.298-1.65-110.699 1.7-51.3 4.65-102.301 23.25-150.501 25.8-66.801 70.2-118.101 130-156.4 64.5-41.399 134.898-66.2 211.1-74.8 27.602-3.101 55.301-4.5 82.801-3.2 51.5 2.5 101.899 11.7 149.801 32 1.198.901 1.198 1.702-.202 2.301zm-736 680.2c-4 1.301-8.3 1.7-12 4.101h.1c-2 1.399-5.898.601-5.5 4.5.302 3 3.9 1.8 5.5 3.399 4.602 1.601 9.4 2.601 14.102 3.899h-.102c33.7 10.2 69.11 8.111 103.91 5.911 25.898-1.601 56.741-9.66 80.157-21.471l-8.265 3.661c2.6-2 30.425-11.087 27.527-15.786-9.602-10.301-25.602-26.766-32.403-38.965-13.5-24.2-20.321-31.435-16.121-59.535 4.346-20.063-3.943-43.598-6.503-58.113-9.7-42.7-10.802-74.601-12.5-118.399 1.043-47.612 3.099-92.551 10.22-139.277 11-46.899 27.18-90.622 56.38-129.223 25-33.101 55.7-59.899 90.1-82.7 20.9-13.8 42.9-25.5 65.802-35.699 9.3-4.2-1.602-15.2-7.102-23.3-8-11.9-16.5-23.5-26.199-34-12.899-14-26.301-27.4-42.699-37.301 3.199 5.601 8.3 9.5 12.6 14.101 7.7 8.3 12.8 17.7 14.4 29.1 1 7.101-.602 13.101-5.5 18.4-7.2 7.899-15.9 13.1-26.301 15.3-8.5 1.8-17 3.201-25.699 3.3-2.5 0-5.4-.899-7.2 2.101.7 3.2 3.6 4.801 5.4 7.101 2.898 3.7 5.6 7.5 7.198 11.899 2.2 6.399 1.4 9.2-4.398 12.5-3.7 2.2-7.7 4.101-11.7 5.601-34 12.8-68.1 25.2-104.3 30.8-3.102.5-6.801.101-8.602 3.601.102.5 0 .899.2 1.101 1.9 3 5.3 3.8 8.101 5.7 17.199 11.6 17.601 24.1.899 36.199-1.1.801-2.2 1.5-3.3 2.301-11.5 8.199-24.3 13.8-37.2 19.399-15.6 6.8-31.1 13.601-46.6 20.699-5.9 2.7-6 4.4-.4 7.801 6.9 4.199 11.7 9.899 14.5 17.3 4.1 10.7 5.8 21.7 5.1 33.301-.898 15.5-4.8 30.1-9.398 44.8-10 32.101-19.602 64.2-18.3 98.7 1 26.699 5.8 52.1 15.898 76.8 11.3 27.8 22.8 55.5 29.8 84.8 3.2 13.301 6.4 26.601 11.102 39.4 7.6 21 11 42.5 9.6 64.8-1.898 31.3-15.398 56.7-39.5 76.7-6.6 5.5-13.898 7.5-22.3 6.3-15.8-2.3-31.6-5-47-9.5-2.7-.8-6.1-.8-7.8-4.7 4.2-2.5 8.3-5 12.5-7.399-2.304-1.408-4.304-1.608-6.204-.008zm10.9-602.299c2.1-8.899 4.8-10.2 13.6-7 10.9 4 21.6 8.5 32 13.699 2.2 1.101 4.1 3.5 8.5 1.601-18.5-18.699-40.9-27.899-65.1-34C922.4 491 924.1 500 921.6 510.1c-1 4.2-2.5 8.2-4.1 12.2-2.4 5.8-5 11.601-7.5 17.3.2.899.3 1.801.5 2.7 5.9-10.3 11.5-20.7 14.4-32.499zM1848 622c-22.9-41.399-54.3-75.1-94.1-100.3-47.802-30.3-100.7-45-157.4-45.399-1.7 0-3.3 0-5 .3-2 .301-4.2.801-4.4 3.2-.3 2.5 1.9 3.3 3.802 3.8 6.5 1.601 13.1 2.301 19.8 2.301 9.4-.101 18.7.899 27.8 3 25.101 5.6 49.8 12.3 73.601 22.3 33 13.899 62.399 32.8 87 59 16.601 17.8 32.101 36.5 46.899 55.8 3.898.299 3.398-1.602 1.998-4.002zm-296.5-37.199c.2-2.301.6-4.5.6-6.801 0-27 .602-54-.5-80.899-.8-19.899-1.698-39.899-5.698-59.601-1-4.899-1.802-9.899-5.2-13.8-2.9-3.3-6.3-6.8-11-5.4-5.1 1.601-4.9 6.501-4.9 10.9 0 1.7.4 3.3.5 5 .7 21.7 4 43.101 7.102 64.5 3.198 22.399 4.6 45.101 10.6 67 1.8 6.7 3.3 13.399 6.3 19.601.696-.101 1.396-.301 2.196-.5zm236.1 8c-1.6-1.7-3.3-3.399-5.1-4.7-31.2-23-64-43.3-100.2-57.399-21.698-8.399-43.898-15.7-67.3-17.8-8-.7-16-.7-23.8 1.3-2.7.7-6.9 1-6.102 4.899.7 3.399 4.4 2.2 6.9 1.899 8.3-1.1 16.6-.6 24.9.5 24.3 3.2 47.198 11.101 69.8 20.101 31.4 12.5 60.3 29.7 88.5 47.899 4.4 2.801 8.4 6.4 14.6 6.5-.698-1.199-1.298-2.3-2.198-3.199zM1423.8 512.9c-33.698 3.3-66 12.8-97.1 26.199-14.4 6.2-28.5 12.9-41.4 22.101-2.698 1.899-5.6 3.8-7 6.899-.398.801-.398 2.101 0 2.801.7 1.399 2.302 1.399 3.5.8 1.7-1 3.4-2.101 5-3.3 10-7.301 20.602-13.601 31.9-18.601 45.1-19.601 92.2-30.7 141.399-32 11.301-.3 22.5-1.5 33.699-2.2C1470.4 510.9 1447 510.7 1423.8 512.9zm50.7 39.2c-14.7-.601-29.3.601-43.9 2.2-31 3.5-61.1 10.3-89.6 23.399-6.7 3.101-13.2 6.399-18.8 11.3-2.2 1.9-5.602 4.301-3.7 7.301 2.3 3.699 5.3.3 7.6-1 26.4-15 54.7-24.5 84.5-29.399 20.7-3.4 41.602-5.601 62.5-7.9 4.2-.5 8.602-.3 13.2-3.5-4.4-3.101-8.2-2.301-11.8-2.401zm274.2 69c-8.9-6.399-18.2-12.399-27-18.899-27.7-20.399-58.4-34.601-91.302-44.2-13.1-3.8-26.5-6.6-40.398-5.899-3.102.2-6.8-.699-10.2 5.101 66.3 7.3 122.9 36.101 176.3 72.3-1.3-4.403-4.5-6.303-7.4-8.403zm-275.6-148.7c-12-.4-24-1.101-35.898.5-23.801 3.199-47 9.199-69.9 16.399-5.7 1.8-11.3 4.101-16.7 6.601-3.898 1.8-7.6 4.199-11.1 6.6-2.1 1.5-4.8 3.5-3.2 6.5 1.7 3.2 4.602 1.5 7 .4 2.102-1 4.102-2.2 6.2-3.301 7.4-3.899 15-7.199 23-9.699 19.4-6.101 39-11.101 59.1-14.5 15.4-2.601 30.802-4.5 47.2-5.9-1.602-3.6-3.802-3.5-5.702-3.6zM912 736c-2.3-8.1-6-15.5-10.1-22.8-8.5-15.101-13.602-31-11.9-48.7 1.2-11.8 4.5-22.899 9.5-33.5 5-10.5 10.4-20.899 15.6-31.3 3.802-7.8 7.5-15.601 9.7-24.101 1-3.899 2.4-8.1-1.7-13.3-7.1 21.5-19.198 38.8-29.3 57.101-2.898 5.199-5.898 10.5-8.1 16-5.8 13.899-10.3 28.199-8.602 43.6C879.6 703.6 892.5 721.801 912 736zm71.8-367.9c25.102.8 49.7 4.1 73.8 11.399 22.602 6.9 44.802 14.9 67.102 22.8 7.1 2.5 14.199 4.9 23.1 6.301-2.6-5.5-6.5-6.9-9.9-8.601C1104 382.5 1068 370.7 1030.8 362.5c-15.399-3.399-31.1-3.5-46.7-1.399-3.699.5-7.898.5-10.8 4.5 3.3 3.299 7.1 2.399 10.5 2.499zm111.7 73.201c-44.1-30.601-173.5-17.601-210 20.101 66.9-33.402 136.6-36.702 210-20.101zM972 920c-.4-7.399-3-14.3-5.6-21.1-13.4-35.4-32-68.7-42.4-105.4-.5-1.8-1.2-3.899-4.3-3.8-2.7 3.899-.9 8.101-.102 12.101 4 19.399 12.2 37.199 20.4 55C949.9 878.301 959.9 899.7 972 920zm111.1-443.6c-.8-.5-1.6-1.101-2.398-1.5-34.301-17.801-70.2-21-107.5-11.9-3.2.801-8.9 1.101-7.7 5.7 1.2 4.601 6.3 2.101 9.6 1.399 26.5-5.699 52.8-5.199 79 1.2 9.3 2.3 18.602 4.5 27.9 6.8.298-.499.698-1.099 1.098-1.699zM936.9 694.9c.198-1.301.3-2.601.1-3.9-2.1-20-1.3-39.8 3-59.5.3-1.3.5-2.6.6-3.899.102-2 0-4.199-2.198-5.101-2.802-1.1-4.4.801-5.4 3-1 2.101-1.8 4.301-2.4 6.5-2.6 9.7-4.199 19.601-4.199 29.5 0 12.301 2.199 24.2 8.101 36.601 1.596-2.201 2.296-2.601 2.396-3.201zM966 1050c15.8-3.199 23.8-9.899 25.5-22.6 1.6-11.9 1.1-23.9-2.7-35.5-.7-2.2-1.8-4.301-3-6.2-.398-.601-1.8-1.101-2.5-.899-.7.199-1.7 1.399-1.6 2.101.1 3.3.5 6.6.898 9.899 1.9 16.699.5 32.5-11.6 45.699-2.098 2.2-3.398 5-4.998 7.5z"/><path fill="none" stroke="#000" stroke-miterlimit="10" stroke-width="6" d="M1821.3 706.801c-36-15.899-122-68.801-193.698-86.5-71.7-17.7-170.102-1.7-207 5.399-36.9 7.101-117.9 37.601-153.4 65.7-35.5 28.101-55.9 66.5-65.7 114.8s1.835 105.813 10.7 139.7c2.375 9.08 13.799 46.05 3.799 37.35-96-40.601-81.5-35.25-81.5-35.25s-60.434 34.833-62.833 25.833c-32.4-135.801-25.565-305.933 25.833-385.734 51.4-79.8 135.9-153.5 288.7-182.7s264 24.2 264 24.2c199 70.5 227.9 246 227.9 246C1884.1 702 1857.3 722.7 1821.3 706.801zM1280 433.7s-54.7-121.5-214.7-139.6c0 0-28.698-4.101 58.102 49.5 41.898 29 37.3 29.6 37.3 29.6s6 18.5-23-1.3-129-41.9-227.2-8c-11.2 10.8 31.2 8.6 45.4 11.8 14.2 3.2 68.3 18.2 69.8 29.6 1.5 11.4-33.7 9.301-55 13.4-21.3 4.101-97.7 11.5-152.6 68.399-4.9 10.899 17.8 0 17.8 0s50.8-11.5 76-3.601c25.2 7.9 6.898 52.101-8.602 69C887.8 569.4 862.9 631.6 861.101 670.1c-1.801 38.5 8 76.101 37.399 128C927.9 850 949.9 916 954.4 934s21.898 69.2-7.602 116.601c-13.2 10.399-31.1 20.899-31.1 20.899s3.5 3.9 14.399 4.9 31.101 2.5 31.101 2.5 32.6 3.399-4.5 17.699c-37.101 14.3-60.101 24-60.101 24l19.5 7.301s143.75 25.949 203.151-24.65c0 0-37.5-34.25-49.841-85.428 3.475-38.515 3.775-38.262 4.165-41.489"/></svg>