<svg xmlns="http://www.w3.org/2000/svg" id="hair" viewBox="0 0 3000 3000"><path id="cl1" fill="#A47642" d="M1654.6 387.9c1.601-2.6 5.101-4.7 8.101-5.5 24.3-6.4 48.8-8.4 73.6-2.6 5.2 4.7 12.101 4.8 18.2 6.5 46.3 12.7 78.8 43.2 102.3 82.9 32.3 54.5 47.7 114.7 52.2 177.7.5 6.399.7 12.8 1.3 19.199 0-7-1-13.899-1.1-20.899 0-2.5-.7-5.3 3.1-5.8 2.101 5.399 1.601 11.199 1.601 16.8.1 24.3.5 48.6-.301 72.8-.899 27.3-4.5 54.3-11.6 80.8-.4 1.6-1.2 3-1.9 4.6-2.3-.8-2.399-2.6-2.399-4.8 1.699-62.6-4.4-124.5-19.101-185.399-11.3-46.7-30.399-89.7-65-124.101-24.6-24.399-53.899-41-87.699-49.5-21.5-5.399-38.9-.399-51.101 18.801-2.8 4.3.5 15 .3 20.899-3.5 3.101-6.8 6.3-10.399 9.3-13.8 11.7-20.4 23.7-28.2 39.7-4.9 9.9-22 8.9-33.5 3.9 1.3-2.101 5-7 3.8-9.9-8.8-22.3-16.899-45-33-63.6-21.3-24.601-47.8-32.5-79.1-24.5-20.101 5.2-37.2 16-52.8 29.399-12.601 10.9-15.2 26.2-16.7 41.601-3 29.6-.8 59 3.2 88.399 1.399 10.7-2.301 20.4-6.9 29.7-12.6 25.2-30.8 46.6-48.3 68.4-22.3 27.899-51.9 47.5-80 68.8-10.5 8-21.4 15.5-33.101 21.5-2.1 1.1-5.1 4.8-8.3 1 5.7-9.8 11.3-19.5 17-29.3 9.3-15.8 17.7-32 24.101-49.2 6.1-16.2 8.699-32.9 6.6-50-4.4-36-1.7-71.7 3.5-107.4 3-20.5 6.9-40.6 14.1-60.1 12.9-34.8 35.4-61.601 67.301-80.2 35.1-20.5 72.899-34.5 113.1-40.5 33.8-5.1 66.4.4 96 18.6 1.7 1 3.2 2.4 4.7 3.6 5.3 7.5 13.399 12.7 17 21.6 2.8 6.9 7 13.2 8.399 19.9C1629.8 420.9 1641.4 404.3 1654.6 387.9zm-589.7 352.2c22.5 12.9 47.1 18.4 72.8 18.801 34.8.399 67.8-8.5 100.5-19.7 16.3-5.601 21.5-16 23-31.7 4.1-44.9-.2-89.9 3.1-134.8.3-4.5-.8-8.2-6.7-7-.6 0-1.1.2-1.5.7-.8.6-1.6 1.3-2.6 1.5-18.3 8.899-36.3 18.199-55.7 24.6-38.3 12.6-76.6 17.6-115.199 1.3-4.301-1.8-6.101-.5-7 3.7-2.2 10.1-4.601 20.1-6.601 30.3-5.3 27.1-10.8 54.2-13.3 81.8-2 4.7.8 10-1.7 14.601-.1 1.3-.1 2.6-.199 4C1055 734.3 1059.8 737.2 1064.9 740.1zm34.2-170.6c13.601 2.6 27.4 2.6 40.801.6 42.699-6.399 82.199-21.699 119.199-44 8.101-4.899 13.5-11.1 15.9-20.6 5.8-22.5 17.5-42.1 35.4-56.8 29.899-24.601 64.6-34.8 101.199-48 19.5-6.9 38.9-13.8 58.9-19 53.4-13.6 116.3-2 137.7 28 1.3 1 8.899 21.2 10.3 22.2 2.2 1.699 4.1 1.6 6.1-.601 5.4-6.2 24.4-42 29.801-48-2-3.3-15.301-3.4-17.801-4-9.699-2.2-19.5-4.5-29.3-6.5-34.3-7.2-68.8-13-103.899-13.2-21-.1-42 .7-62.9 2-52.9 3.2-104.5 12.4-154.4 30.5-33 11.9-65.1 25.8-94.199 45.7-44.601 30.5-77.301 70.9-100 119.7-2.501 7.001-.001 10.701 7.199 12.001zm163.8 244.6c-15.2 5.5-31 8.9-46.601 12.801-2.8.699-6.2 2.199-8.399-.5-2.601-3.2.1-6.2 1.399-9.101 1.3-3 3.5-5.6 4.9-8.6 3.2-7 5.8-19.5-3-20.2-2.9.6-5.9 1.1-8.8 1.7-20.601 4.399-41.4 6-62.4 3.1-29.4-4-55.6-15.2-78.7-33.7-2-1.6-3.5-6.399-7.8-3.199-1.9 19.5-3.7 50.399-4.5 70-.4 10.399 2.7 20 8.8 27.699 19.601 24.601 43.8 43.5 75.601 48.2 41.8 6.101 82.8 1.9 122.3-14.2 9.7-4 16-9 16.2-20 1.1-10.5 2.5-21 2.3-31.6 2.2-6-.8-12.5 1.7-18.4v-2c-3.5-5.8-8.3-3.7-13-2zM1020.2 778c6.8.6 24.399 3.7 27.7-3.1 2.1-9.5.399-18.801 1.699-28.301 2.5-18.8 4.601-37.6 7-56.399.7-5.101.101-8.5-5.1-11.3-41.9-22.601-86.2-31.4-131.6 9-18.2 17-32 37.199-41.9 60.1-2.1 6.2.9 9.9 5.9 12.9C894.1 767.2 905 772.1 915.8 777.3c17.601 8.5 35.601 11.2 54.4 4.9 3.899-.7 7.8-1.5 11.8-2.2 5.3-2.3 11 .5 16.3-1.7h7.4c4.9 1.1 9.6-.8 14.5-.3zm-164.1-42.1c2.4 5.1 8.9 21.1 14.6 17.1 9.899-19.4 18.399-40.2 33.399-56 23.601-24.7 51.7-39.3 86.7-38.7 16.9.3 32.9 4.4 48.3 11.101 23.5 17.1 22-4 24.101-15 1.899-10.101 3.8-20.301 5.8-30.4 1.1-5.6 2-11.2 3.5-16.6 1.2-4.601-.4-6.9-4.8-7.9-2.601-.6-17.101-4.1-19.7-4.7-52.8-12.1-101.5-3.3-144.1 30.7-30.601 24.4-47.5 56.9-50.301 96.2C851.9 726.8 854 731.5 856.1 735.9z"/><path id="sd1" fill="#896237" d="M1049.8 767.7c.101 18 .5 35.899.101 53.899-.2 10.2 2.699 18.7 9.1 26.601 17 21.2 37.2 38.2 63.6 46.2 17.301 5.199 35.2 6.699 53.301 4.699 13.5-1.5 27.1-1.399 40.6-4.3 15.7-3.399 30.5-9.2 45.4-15 5.699-2.2 7.899-6.8 10-11.7-.101 15.7-.2 31.301-.4 47-.2 13.101 1.7 25.7 6.2 38.2 6.7 18.8 12.2 38.101 18.2 57.101.6 1.899 2.729 3.433 2.029 5.633 2.325 3.075 2.946 6.342-6.719 12.611-13.585 5.231-24.144.763-36.144-.037-4.8-.3-14.966-7.607-17.566-11.607-9.1-14.4-10.051-9.786-21.551-22.286-10.1-11.101-23.708-20.072-37.008-27.472-12.8-7.1-26.49-23.794-41.19-22.694-27.45-7.673-34.399 4.202-52 8.202-7.1 1.6-9.05-14.15-12.15-21.15-3.5-7.899-6.699-16-9.699-24.1-13.2-34.8-17.4-71-16-108 .396-10.6-1.004-21.4 1.896-31.8zm834.3 40.9c1.2-47.6-4.1-94.399-16.8-140.399-12.3-44.601-29.7-87-57.399-124.601-17.101-23.199-36.801-43.8-62.101-58.5-23.2-13.5-45.6-12.3-67.8 1.9-20 12.8-34.2 30.4-43.5 52.1-1.8 4.101-1.2 6.301 3.4 7 2.3.4 4.5 1.101 6.8 1.601 31.5 7.6 63.3 8.1 95.399 5.2 6.2-.601 11.9 0 17.601 2.1 16.8 6.1 30.1 16.9 41.5 30.3 11.899 14.1 21.2 29.9 29 46.5 22.5 47.6 34.899 98.4 45.899 149.6 2.301 10.7 2.801 21.7 7.7 32.101.101-1.602.301-3.202.301-4.902zM1063 758.3c24.3 19.7 51.4 31.601 82.6 34.2 36.2 3 69.9-6.6 102.5-21 2.9-1.3 22.9-15.4 24.5-18.1 7.9-13.9 12.4-24.9 19-39.4 8.4-18.3 9-36.6 6.601-56.7-1.7-13.899.5-28.399.7-42.399.399-24 3.199-47.801 6.5-71.5.3-2.101 1.899-4.5-1.601-6.801-10.3 6.5-35.8 22.2-46.399 28.9 3.6 6.8.5 13.8.5 20.6.199 28.301.1 56.601-.101 84.9-.1 14.6-1.899 29.2-3.3 43.8-.8 9.2-5.4 14.101-13.9 17.3-26.899 10.4-54.399 17.7-83.1 20.601-21.6 2.2-42.5-.101-63.2-5.8-14.6-4-27.5-11.801-40.5-19.101-4.7 12.7-1.3 22 9.2 30.5zm-14.8 51.6c0-3 .1-6 .1-9-.1-8.4-65.6-10.7-87.3-1.601-22.4 9.4-40.1 24.8-54.6 43.9-4.301 5.7-4.301 6.3.899 10.6 37.5 30 92.367 40.534 138 20.2 8.2-2.4 8.4-2.9 6.9-11.4-2.601-14.8-3.5-29.699-4-44.699l.001-8zm31.4-225.9c-4.699 10.3 4.101 8.5 15.101 12.7 18 6.899 36.899 5.399 56.1 3.5 21-2.101 41.2-7.601 60.8-15.4 26.4-10.5 50.4-25.399 74.5-40.3 8.5-5.2 19.601-7.1 22-16.3 13-50.601 47.7-98.4 94.301-122.1 7.399-3.8 14.8-7.5 22.199-11.3-2.899.6-20.3-1.7-23.1-.8-22.9 7.4-44.8 17-65.4 29.5-33.1 20-58.199 46.4-67.699 85.1-1.5 6.101-5.9 9.4-10.801 12.4-33.399 20.8-69.6 34.7-108.199 42.6-13.801 2.9-27.801 3.101-41.801 2.2-6.199-.399-13-.6-15.899-8-2.802 3.2-10.302 22.3-12.102 26.2zm402.5-34c24.9-6.8 50.301-9.5 76-10.1 8.7-.2 17.301.1 26-.101 5.5-.1 17.5-1 15.101-5.399-10.7-27.2-28.2-49.2-44.9-64.4-22.1-20.2-74.3-6.3-87.899 12.8-1.601 1.7-3.2 3.4-4.5 5.3C1447.6 509.2 1447.1 538.7 1447 565c10.1-4.5 26.8-12.7 35.1-15zM863.5 783.8c-1.3 3.9-.3 7.2 1.1 10.601 5.801 14.3 18.7 34.3 28.5 46.199 5.301 6.5 5.5 6.5 10.7-.199 14-18.101 29.3-29.9 50.101-39.9 31.5-8 62.3-16.6 75.699-22-13.5-5-82.399 4.1-93.699.4-17.801-5.801-34.601-13.5-50.5-23.2-3.2-2-6-4.101-7.301-7.8-6.5 11.399-10.5 23.599-14.6 35.899zm413.7 26.4c.3-5.101-4.5-10.5 0-25.8-3.8 1.1-7.7 2.1-11.7 1.5-5.7-.9-7.9-4.7-5.5-10 1.2-2.7 3.4-4.9 4.9-7.4 1.399-2.4 4.5-4 3.199-8.4-9.5 3.101-47.6 25.4-57 28.4 3.9 2.5-.899 16.7-2.699 19.8-3.4 6.101-6.801 12.2-10.101 18.3-1.2 2.301-3.5 4.601-1.7 7.301 1.801 2.699 4.801 1.6 7.301 1.199 13.699-2.6 27.1-6.1 40.5-10 10.5-3.1 20.699-7.1 31.5-8.899.5-2.101 1.2-4.101 1.3-6.001zm-416.5-33.7c4.1-8 9.2-17.2 12-25.2-8.9-2.8-17.4-21.2-19-29.6-2.4 14 2.5 46.4 7 54.8zm176.3 18.2c12.7 2.5 12.7 2.5 12.2-10.4 0-.3.7-13.3.6-13.6-9.8 4.1-40 15.1-50.3 17.2 6.2 1.1 31.4 5.6 37.5 6.8z"/><path id="hl1" fill="#B6844A" d="M1251.8 793.9c33-22.5 65.5-45.7 95.7-71.9 10.7-9.3 19.7-19.8 28.2-30.8 12.8-16.601 26.1-32.8 36.8-51 7.9-13.601 13-27.5 9.6-43.7-3.3-15.7-2.8-31.8-3.5-47.7-.8-18.1.4-36.6 5.301-54.399 2.399-8.9 6.3-16.7 13.399-22.801 20.5-17.699 43.101-31 70.7-34.399 17.6-2.101 33.7 1.899 48.8 10.7 10.8 6.3 19.3 15.199 26.601 25.199 12.5 17.2 20.5 36.5 26.8 56.601 1.399 4.5-3.101 10.7-9.101 12.2-5.5-18-12.899-32.9-22.3-46.2-5.6-7.9-12.2-15-19.1-21.7-30.8-29.8-85.9-16.3-102.8 16.6-4.9 9.601-8.7 19.5-10.7 30-2.601 13.801-4.4 27.801-3.4 41.7 1 14 .2 27.9.9 41.9.899 19.2-4 36.8-14.2 53.2-12.1 19.5-27.5 35.899-44.3 51.199-29.9 27.101-62.2 51.2-95.8 73.5-12.301 8.101-25.801 13.5-39.801 18-1.499-3.3.601-4.6 2.201-6.2zM1673 493c28.1-18.8 56.3-19.6 85.2-1.2 29.6 18.8 41.1 38.3 59.8 67.4 30.4 47.2 48.2 99.2 58.7 154 7.1 37.1 7.8 63.6 6.5 101.399-.101 2.9 6.899 9.7 9.6 14 1.4-5.699 7.601-9.8 7.5-14.3-.2-9 1.9-17.8 1.9-26.899 0-27.301-1.5-54.601-4.101-81.801-4-43-11.899-85.1-27.699-125.5-15.2-38.8-36.7-73.199-70.2-99C1775 461.7 1747.1 448 1715.4 443c-5.101-.8-9.9-.4-14.801.6-17 3.601-26.5 15.601-34.1 29.801-1.5 2.8-.1 19.6 1.5 22.399 1.601-.8 3.401-1.7 5.001-2.8zm239.3 140.4c-3.2-42.4-12.5-83.5-27.8-123.2-10.5-27.2-24.4-52.601-43.4-74.8-27.6-32.3-62.5-51-104.899-55.601-3.101.3-6.101.5-9.2.8 2.9 1.9 5.7 2.6 8.6 3.3 43.301 10.9 78 34.7 104.9 70.2 19.8 26.101 32.5 55.601 42.4 86.5 9.8 30.801 16.699 62.301 21.5 94.301 2.3 15.1 4.399 30.3 6.5 45.399.5 0 .899 0 1.399-.1v-40.8c0-1.999.2-3.999 0-5.999z"/><path fill="none" stroke="#000" stroke-miterlimit="10" stroke-width="6" d="M1272 795.3s-30.3 12-31 8.3c5.7-4.3 14.8-16.3 35-51.3s24.1-69.2 21.5-116.7 2.4-51.199 9.3-99.199 26.2-73.4 54.3-101.9c77.5-57.5 164.5-64.2 193.301-54.8 28.8 9.4 49.5 8.7 69.3 61.6 4.1-27.8 32.3-58.2 32.3-58.2 86-27.3 176 18.7 203.801 78.1 66.199 115.3 52.5 219.5 52.6 289.3s-19.7 78.3-19.7 78.3-7.3 2.3-9.7-16.7c-2.399-19-33.6-167.699-85.8-230.8-4-4.5-33.2-28.7-49.1-28-85.4 9.8-120-12.2-121.4-7.6-1.399 4.6-22.7.7-26.7-5.3-102.699-3.301-117.899 10-136.699 17.199-11.303-.2-20.303 10.3-19.603 52.2.7 41.9-27.5 66.8-27.5 66.8-61 72.5-142 117.601-142 117.601s2.5 11.899 2.9 16.5c.399 4.6-5.5 112.5-5.101 117.899.4 5.4 18.9 66.301 18.9 66.301l5 15.5s11.867 19.8-18.733 21.1c-30.6 1.3-37.498-14.088-48-26.667-2.276-2.726-16-11.667-42-31.333-28.322-21.423-33.989-24.376-52.915-28.38-17.704-3.746-32.666 2.269-51.751 9.714-11.4-20.6-31.1-68.933-33.999-118.333 6.899-117.2-1-134 27.8-240.8s119.3-159.8 119.3-159.8c219.5-136.7 458.7-52.2 458.7-52.2M1073 601.3s-85.7-34.6-149.6 11c0 0-91.601 45.7-66 151.9 4.6 93.2 111.1 141.2 182.399 112.1l11.601-6.4m-2.4-71.4c-96.5-31.8-148.3 49-148.3 49m155.3-169C909.5 598 860.7 787 860.7 787m217.1-197.3s77.2 50.899 228.8-57.101M1051.8 749.6s104.2 100.601 225.5 0M1601.1 542c-1.1-4.7-7.3-37.5-40.3-66.8-17.5-22.7-77.6-21.5-96.3 8.6-27.5 29.101-18.2 97.601-18.2 97.601M1883.1 814.6C1893 670 1816 556.2 1802.5 538s-45.8-56-87.5-58.3c-56.3-1-82.7 67.6-82.7 67.6"/></svg>