<svg xmlns="http://www.w3.org/2000/svg" id="图层_2" viewBox="0 0 3000 3000"><path id="sd1" fill="#835D34" d="M1191.8 401.6c.2 3.399-.2 6.7-1.3 9.8-6.7 18.9-7.5 38.5-6.301 58.2.899 14.7 6.6 27.601 17.1 39-4.799 2.101-9 1.101-13.1.301-24-5-47.601-3-71.199 3.101-14.5 3.8-23.9 11.6-28.301 26.3-6.4 21.101-12.699 42-12.8 64.399-.2 23.7 11.399 41.101 28.199 56.101 2.601 2.399 5.899 2.8 9.2 3.3 19.5 2.5 39.199 2.5 58.6 5.9 4.9.899 9.9 1.3 14.301 4.1 2.899 4.101 1.399 7.4-1.5 10.7-6.5 7.399-13.801 13.399-23.199 16.7-16.301-3.4-32.4-2.4-48.701.5-6.398 1.1-10.5 4.399-14.1 9-28 13.8-42.5 37.399-39.3 63.899.899 4.3 5 6.5 6.699 10.3-2.8 9-1.601 17.399 3.801 25.301 1.601 2.399 1.199 5.1.399 7.699-1 2.2-3.2 3.2-6 5.5 18.3-1 34.8-5.399 51.8-4.699 14 .5 27.801 2.899 41.399 5.8 4.301.899 8.7 1.7 8.2 7.8-2.899 6.101-1.601 13.601-2.8 21.301-.102 1-.4 2-.801 3-2.801 4.3-6.899 2.8-10.699 2.3-23.102-3.101-46.102-4.101-68.801 2.5-2.5.7-5.1 1.2-7.6 2.2-.701.3-1.201.6-1.701 1.6 6.301.601 13.201-6.699 18.9-.699 2 2.5 2.6 7.1 1.6 10.1-6.799 20.102 2.5 37 10.9 54 .899 1.801 8.984 14.418 8.883 16.518-11.898 4.2-19.328 8.002-29.729 15.602-2.4 1.8-16.355-10.418-17.855-12.817-2.1-3.399-4.3-6.7-6.199-10.3-16.1-30.7-25.6-63.601-31.6-97.5-8.102-46-11.5-92.601-11.4-139.301.101-35.1 3.601-69.8 13.199-103.8 12.301-43.399 33.5-81.7 64.2-115 26.399-28.601 56-53.2 88.8-74 2.806-1.806 5.406-4.006 8.806-4.706zm517.1 201c9.399-1.5 18.899-3.199 27.199-8.601-5.199-1.1-6.199-5.5-7.601-9.6-6.1-18.301-12.399-36.601-18.199-55-5.301-16.801-9.899-33.9-8.399-51.9.199-2 1.199-4.699-2.2-6.199-4.2 8.4-7.9 16.9-10.9 25.7-10.8 31.5-19.7 63.601-24.601 96.601-.8 5.399-2.3 9.7-8.5 10.601 17.801 2.599 35.5 1.198 53.201-1.602zM1585 583.9c5.699 3.899 10.899 8.699 17.199 11.6-1.3-14.899-1.8-29.8-2.601-44.699-.5-10.601-1.101-21.2-2.101-31.801-2.5-27.399-6.6-54.8-5.5-82.399.101-2.399.801-5.101-1.8-7.601-1 1.7-1.8 2.7-2.399 3.9-10.801 22.899-19.2 46.699-26.301 71-3.699 12.8-7.1 25.699-12.5 37.8-2.1 4.601-3.899 9.3-9.5 10.7 15.103 10.5 30.302 21 45.503 31.5zm-71-45.8c-2.301-5.399-2-11.101-1.9-16.699.601-23.301-.899-46.5-2.801-69.801-1.699-21.199-5.199-42.2-5.299-63.6 0-2.1 1-4.699-2.701-7.199-20.1 44.101-31.5 90.399-41.299 137.199 18.5 5.2 36.5 11.9 54 20.1zm140 65.8c0-7.7-1.9-15.2-3.2-22.7-5.5-29.8-11.899-59.399-15.7-89.399-.898-6.7-1.1-13.5-1.699-20.399-3.199 1-3.5 3.101-4.199 4.899-8.5 21.8-13.5 44.399-15.301 67.899-1.101 13.899-1.199 27.899-3.699 41.7-.801 4.399-1.601 8.6-6.4 10.399C1620.1 601.1 1636.8 604.1 1654 603.9zm-198-86.2c-4.2-2.3-5.601-5.899-6.101-10.601-.801-8.899-2.2-17.8-3.7-26.699-4-23.601-11.699-46.5-15.101-70.2-.899-6.1-1.199-12.3-1.8-18.7-3.7 1.2-4 4.101-4.801 6.5-3.399 9.4-6.399 18.9-8.5 28.7-6.6 30.7-8.399 61.899-8 93.2 15.903-2.3 31.803-4.9 48.003-2.2zm-65.7 6.601c-5.3-4.2-6.601-10.7-8.601-16.5-5.5-15.7-10.3-31.601-15.899-47.2-5.7-15.8-12.101-31.3-18.3-47.101-2.4 1.5-2.7 3.3-2.801 4.8-1.601 16.2-4.199 32.301-4.601 48.501-.699 25.3.301 50.399 4.101 75.5 15-6.801 30.401-13 46.101-18zM1315.9 560c-3-.8-5.301-2.6-7.2-5-24.101-29-46.899-58.8-64.5-92.3-.699-1.3-1.101-3.3-3.8-2.601-1.5 14.301 0 28.4 3.101 42.4 6.3 28.6 20.899 53.1 37.3 76.699 2.101 3 4.601 5.801 5.399 9.5 10.2-9.498 18.8-20.198 29.7-28.698zm-97.275 277.625c-4.9-4.899-46.426-5.824-52.726-7.625-1.801 3.301-2.2 6.801-2.399 10.4.3 3 2.5 5.399 5.199 6.5 5.6 2.3 9.399 6.699 13.199 11.1.602-.1 33-6.55 33.602-6.75.1-6.5 3.125-7.025 3.125-13.625z"/><path id="hl1" fill="#C69858" d="M1536 342c30.8 2.301 61.699 4.2 92.5 7.301 38.3 3.899 75.6 11.699 112.3 22.899 1.601.5 3.2.9 4.8 1.4 11.801 3.7 11.9 4 12.5 16.8.602 12.3 2.5 24.5 1.7 36.9-1 16.3-2.101 32.5-3.2 48.8-.898 14.301-1.898 28.5-2.6 42.801-.301 5.899-.601 11.8-3.601 19.899-4-13.5-7.5-24.899-10.801-36.301-4.601-16-7.101-32.5-12.5-48.3-1.699-5-3.601-10.101-6.899-14.399-6-7.801-12.5-9.101-21-4.301-5.899 3.4-10.3 8.301-14.101 13.9-10.101 14.899-15.8 31.399-19.101 49-1 5.5-2.1 10.899-4 16.399-2.6-8.101-3.799-16.5-3.899-24.8-.199-11.7-.5-23.301-2.199-34.801-.601-3.899-1.101-7.899-2.2-11.699-2.699-9.4-7.699-10.801-15.3-4.4-3 2.601-5.7 5.601-8.101 8.801-8.301 10.6-14.801 22.1-19.301 34.8-.699 2.101-.699 4.7-3.399 6.601-2.3-2.899-1.5-6.301-1.5-9.301-.101-26.3 0-52.6 0-78.899 0-4 .2-8-.5-12-1.399-8.7-7.199-11.8-15.199-8.4-7.601 3.2-13.399 8.601-18.2 15.2-5 6.9-9.6 14.1-14.899 22-2.199-4.3-1.199-8-1.3-11.5-.301-9 .3-17.9-1.601-26.9-1.7-8-4.601-15.199-10.601-21.1-6.6-6.5-14.801-9.6-23.899-10.3-.899-1.601-5.301.399-3.801-3.7 6.702-1 13.302-1.7 19.902-2.4zm-362.5 445.4l.899.3h1c2.199-8.3 4.5-26.399 7.3-34.601 7.399-21.8 16.801-42.699 27.101-63.199 6.2-12.5 12.101-25.2 15.8-38.801 6-21.899-1-32.6-23.5-36.8-.699-.101-1.3-.2-2-.3-14.8-2.9-29.8-2-44.8-1.601-2.101 0-4.7-.399-5.8 2.899 4.199 1.301 8.3 2.5 12.399 3.801 9.101 2.8 16.899 7.699 22.899 15.3 11.4 14.399 11.601 22 1.4 37.8-5.602 10-13.5 17.4-24.102 21.801-4.8 1.5-9.8 2.399-14.8 2.899-16.5 1.7-33.399.101-49.2 6.899-2.898 7 3.102 7.699 6.9 9.399 22.199 10 38.3 25.8 47 48.7 1.8 4.7 4.199 17.899 7.699 21.3 3.2.9 6.301 1.8 9.5 2.601 1.305.803 3.004.504 4.305 1.603zm-11.1 35.3c.101.862 1.699 4.601 3.101 5.399l3.25.9 50.375 6.75c2.6-8.602 4.449-32.726 5.25-41.625-3.102-2-55.398-11.466-58.998-12.266-1.4.8-20.776-2.436-20.877-.734-.699 8.101 11.1 32.675 14.399 40.875 1.2.201 2.299.501 3.5.701z"/><path id="cl1" fill="#A47642" d="M1539.4 552.4c9.101 3.5 11.8-3.2 14.5-9.4 8.899-20.899 13.699-43.1 20.899-64.5 4.5-13.1 10.601-25.6 12.9-34.1-1.4 6.3-1.102 17.8.1 29.3 3.3 32.399 6.9 64.8 7.199 97.399.101 8.9 2.101 17.101 7.101 24.4.399.5.899.699 1.601.6 6.1 1.4 9.6-1.3 10.801-7.1.899-4.9 2.199-9.801 2.399-14.801 1.3-29.3 3.8-58.399 13.199-86.5.2-.699.101-1.101-.3-1-1.301.399.399-1.3.199-.101.101 2-.199 3.899.101 5.899 4.301 33.7 11.801 66.9 17.7 100.301.8 4.399 2.8 8.199 6.3 11l.801.3h.8c8.6 2.2 12.1-2.101 13.399-10 5.899-36.8 16-72.601 28.601-107.199-.601 4.601-.9 9.5.1 14.5 6.301 29.699 17.102 58 26.801 86.601 1.9 5.5 5.601 7.899 11.4 6 11.199-4.801 17.8-13.5 21.6-24.801 4.5-13.3 6.699-27.101 8.199-41 5.602-54.101 4.102-108.399 1.701-162.6-.301-5.9-2.601-8.2-8.101-9-43.399-6.8-85.801-18.8-129.5-24.101-25.101-3-50.2-6.1-75.5-6.8-.5-.1.3 3.4-2.7 3.7-4.101.1-8 .1-10.9 5.4-.699 1.3-1 2.199-2.299 5.8-2.201 4.7 2.699 5.7 6.199 6.3 22.399 3.6 45 3.8 67.5 5.8 43.301 3.9 85.699 11.601 127.199 24.5 8.801 2.7 12.4 8.101 13.699 17.2 3.701 27.4-.5 54.4-1.6 81.601-.601 15.399-3.101 30.8-2.199 42.5-5.4-17.301-9.7-38.7-15.5-59.7-1.5-5.399-3.4-10.8-6-15.899-9.101-17.601-23.5-20.301-38-6.7-13 12.3-20 28.101-25 44.8-1.801 6.2-3.7 12.5-2.4 18.2-1.1-2.3-.199-5.5 0-8.7 1.101-16.699.101-33.3-4.301-49.5-3.299-12-11.699-15.101-21-7.601-12.899 10.5-21.5 24.2-26.6 37.2.5-25.7.399-53.9 0-82.101-.101-3.399-1.199-6.399-3.5-9.1-6.101-6.9-12.699-7.601-22.301-2-10.1 5.8-16.699 15-24 25.1.301-14.2.301-26.899-6.398-38.3-2.201-3.7-4.9-6.5-4.9-6.5 2.101 10.8 1.4 18.9 3 33.7 4.101 53.101 2.199 85.4-3.399 123.3-3.2 21.801-5.601 32.7-11.101 36.7.501.703.9.904 1.501 1.003zM1408 519.9c-5.7 2.1-11.601 3.6-17.601 4.399-6.301.899-8.7-3.399-10.801-8.2-5.3-12.199-8.699-25.1-12.899-37.8-5.8-17.5-12.9-34.601-18.699-50.899-.101-2.601 1.3-.7.1-1.2-.399-.2-.6.101-.6.8 1 17.7-3.2 35-2.7 52.7.5 16.3.3 32.601 2.8 48.8.801 5.301.2 9.801-3.5 13.7-9.398 5.9-18.8 11.8-28.199 17.8-4.4 2.101-8.199 1.4-11.5-2.399C1282.5 532 1262.6 505 1245.5 475.901c-.699-1.301-1.1-2.801-1.5-3.601 1.701 14.899 4 30.101 8.9 44.899 6.899 20.8 18.399 39 30.399 57.101 2.899 4.399 6.601 8.699 2.899 14.5-5 3.5-10.699 3.3-16.3 3-11-.601-21.899-1.601-32.801-2.399-2-.2-4-.7-5.899-.7-7.8-.199-10.601 3.7-7 10.601 5.301 10 10.399 20.2 16.899 29.399 8.801 12.5 8.7 25.2 3.899 38.801-5.799 16.399-1.855 23.004-5.719 46.788-2.572 18.831-2.531 23.712-7.281 48.212.625 9.875-4.131 24.757-4.631 32.956-1.399 2.9-37.168-9.856-42.468-9.456-4.7.3-11.101 4.6-13.5-.2-1.801-19.8 9.8-42.3 16.399-59.9 8.3-22.1 20.8-42.3 29.101-64.5 1.5-4.1 3-8.1 4.101-12.3 4.1-16.6-1.2-25-18-29.2-13.101-3.199-26.7-2.1-37-3.699 12.699 3 25.8 14.699 31.3 29.8 4 11.101-1.7 25.301-11.5 28.899-24.399-3.5-48.899-5.399-73.399-7.8-5.199-.5-9.301-2.7-13.199-6.1-24.602-21.101-32-48-26.801-79.2 2.699-16.101 7.199-31.8 12.5-47.3 4.699-13.801 13.801-22.301 27.699-26.2 22-6.2 44.2-9.601 67.102-5.601 2 .3 4 .5 6 .601 1 .101 2 .101 3-.5-13-34.101-15.602-68 3.299-101.2 11.701-9 24.9-15.301 37.9-21.801 59.5-29.699 122.199-48.6 188.399-55.199 43.5-4.301 87-2.5 130.5-.101 2 .101 3.899.8 5.8 1.2-.199 1.8-.8 3.4-2.6 3.7-11.4-.3-11.6 6.899-14.6 14.899-5.5 3.2-11.5.7-17 1.7h2.299c11.201-1.5 20.101 2.4 26.801 11.3 3.301 29.9 5 60 5.4 90.102.399 27.699-3.7 55.699-8.2 82.899-.601 3.3-1.399 5.899-1.899 9.2-1.601 5.8-2.5 9.199-6.699 12.1-8-4.5-16.102-9-24.102-13.5-4.5-3-6.8-7.2-6.699-12.6.699-41-3.699-81.7-7.9-122.4-.199-2 0-4 .5-6.9-14.399 36.2-23.399 73-32.399 109.801-1.199 4.8-1.5 10.1-7.399 12-1.3-.101-2.699-.2-4-.4-6.699-.2-10.101-3.6-10.8-10.399-2.899-27.5-12.101-61.501-18-88.401-1.601-7.301-1.5-7.3-1.2-12.199-2.5 12-6.699 26.399-8.601 41.2-2.5 19.101-4.399 38.3-4.399 57.601-.2 5.397-.001 10.897-5.101 14.496zM1131.666 947c10.282 6.195 12.353 8.111 24.953 20.713 7.601 7.5 29.779 33.567 36.279 41.967 11.936-3.347 25.035-41.879 27.936-42.68 0-14.1-14.668-34-20-47.594-.4-18-9.975-25.015-15.062-42.922 9.062-17.15 2.027-13.885-2.272-15.484-26-9.699-58.4-5.8-85.7-2.3-3.601.5-8.2 1.399-8 7-.601 3.2-.899 6.601-1.8 9.7-3.101 10.6-2.5 20.8 1.8 31 2.7 6.399 5.399 12.8 7.8 19.3 1.602 4.3 4.701 22.081 8.9 22.682 2.601-.401 17.833-6.882 25.166-1.382zM1093.9 705.9c-14.101 6.399-24.2 17.399-32.2 30.1-7.199 11.4-8.199 33.7-3.399 47.4 26.8-9.101 54.038-5.644 81.8-5.2 7.5 1.5 15 3.2 22.4 4.899-7.301-34.8-30.7-66.5-64.4-77.1-1.402-1.299-2.801-1.099-4.201-.099zm-34.8 91.901c2.301 5.8 4.601 16.3 8.101 21.5 4-.301 8-.399 11.899-1 10.199-1.399 20.4-2.7 30.699-3 16.801-.601 33.102 2.899 49.4 5.5 5.2-8.7 4.148-29.715 2.948-39.315-11.5-4.1-21.748.315-33.647-1.885-21.9-3.899-43.4-2-64.601 4.7-8.099 4.5-8.299 5-4.799 13.5zM1162 694c-12.2 0-24.4-.399-36.5.101-11.7.399-22.7 3.7-31.601 11.899M1176 860.9c.8.6 5.3 2.3 6 1.6l16.07 2.752c0-2.301 17.629-11.802 17.43-14.002-.399-7.398-34.2-7.649-42.301-8.25-2.601-.199-8.5-.399-9.699-2.6-2.301 4.399-.601 11.8-3.301 16.1 5.301 1.5 10.5 3 15.801 4.4z"/><path fill="none" stroke="#000" stroke-miterlimit="10" stroke-width="6" d="M1766.9 363.7s1.199 136.601 0 152.899c-1.2 16.3-4.899 55.101-21.5 71.7-47.1 32.7-131.3 10.7-143.3 7.2s-22.1-20.899-62.801-43.1c-74.699-43.101-100.299-35.801-139.398-30-71.301 18.3-115.301 67.3-115.301 67.3-12.699 6.101-42.399 0-47.399-.399s-17.5-.301-12.899 9.899c9.3 27.2 24 29.7 23.899 53.7-6.801 42.899-15.934 114.399-17.032 120.6-1.1 6.201-6.5 36.968-7 42.668-.5 5.699-8.668 39.332-8.668 39.332l-31.101 17.4s35.351 92.2 35.351 94.1c0 1.9-21.602 54.45-28.5 40.75-36.102-47.3-58.496-61.717-70.197-63.116-11.698-1.399-37.754 15.063-37.754 15.063s-13.1-6.296-17.398-13.597c-44-75.899-58-265.6-39.5-337.1s73.898-165 182.1-218.301C1319 316.5 1491 322 1491 322c106-1 272.199 35.601 272.199 35.601l3.701 6.099zm-547.086 473.539l-53.914-7.14-.399-2 6.699-4.399s-7.101 3.2-11.301 0c-46.6-13.8-96.801-1.899-96.801-1.899m130.068 43.699c-52.8-21.3-121.066-2-121.066-2m154.156-67.373c-73.4-27-162.356-13.826-162.356-13.826"/></svg>