<svg xmlns="http://www.w3.org/2000/svg" id="hair" viewBox="0 0 3000 3000"><path id="cl1" fill="#A47642" d="M1542.4 456.8c3.699 4.3 5.5 9.7 8.399 14.4 2.2 3.5-3-7.8-3.899-9.9-.9-6.899 16.699-9.1 21.199-8.399 24.101 3.699 48 8 69.7 20.199 2.7 1.5 5.8 5 9 2.801 3.3-2.2.7-6.2.5-9.301-.899-19.699-1-39.399 8.3-57.6 3.101-6.1 1.15-2.05 9.65-.25 40.6 15.1 78.649 41.6 110.25 71 25.699 27.5 40.6 48.65 51.5 83.45 16.6 52.899 22.1 107.399 19.9 162.6-.801 19.601-4.5 39-9.801 57.9-2.399 8.8-5.8 11-14.6 8.5-21.6-5.9-42.7-13.1-60.4-27.6-4.399-3.601-9.6-6.2-14.199-9.5-19.5-15-38.9-30-58.4-45-4.7-3.601-9.4-7.5-14.5-10.5-25-14.801-41.7-36.7-54.5-62-9-17.801-15.9-36.601-21.2-55.801-.399-1.3-.6-2.6-1-3.899-1.399-4.3-1.6-10.3-8-9.4-6 .9-5.3 6.8-5.8 11.2-.6 5.9 0 12-2 17.8-2.9.1-3.8-1.7-4-2.6-12.7 27.5-28.3 54.7-47.8 79.899-14.4 18.601-34.2 29.5-53.4 41.301-39.899 24.3-80.2 47.699-116.3 77.5-10.2 8.5-20.4 17.1-29.5 26.899-20.2 21.7-28.8 48.101-34 76.5-9.4 51.4-11.6 103.2-10 155.2.5 17.3 2.8 34.5 4.9 51.7.6 4.6-5.567 71.933 138.347 120.348-5.5 2.7-26.938 38.094-30.938 34.993-95.56-6.075-183.843-146.375-202.643-169.075C1164.867 1051.267 1157 970.6 1142.4 922.1c-15.101-50.199-11.7-100 4.8-149.3 7-20.899 14.1-41.6 25.3-60.7 10.2-17.3 24-30.199 42-38.6.4-.2.8-.5 1.1-.7-.1.101.301.2.101.3-.601.101-1 .301-1.5.601-37.101 25.2-77.5 45.7-108.101 79.6-1.6 1.7-2.899 3.9-4.899 4.9-3.4 1.7-6 1.2-5.3-3.601 8.3-21.899 20.1-41.899 32.199-61.8 11.301-18.5 24-36 37.101-53.1 1.6-2.101 3.3-4.2 4.5-6.601 1.399-2.899-64.4 100.5-65.4 102.2-5.1 2.2-16.2-12.7-16.7-16.899-.6-5.301-.1-10.601-.399-16-1.5-29.5-11.301-55-35.101-74.101-16.3-13-28.8-29.399-39.3-47.399-3-5 4.3.699 5.2-4.9 14.5-27.2 55.05-59.9 75.75-82.5 49.25-42.75 106-80.25 172.75-96.5 4.3-.6 22.6-11.4 27-11 14.7.5 27.3-5.7 39.1 3.7 19.9 15.8 23.801 36.6 17.5 59.899-3.899 14.301-10.3 27.7-18.6 39.801 0-.2.1.1.1-.101 16.9-12.5 36.801-18.1 55.801-25.7 42-16.699 86.1-18.699 130.5-17.3 8.998.301 18.498 1.801 24.498 10.501zm370.6 751.4c-36.3.899-64.4-11.5-79.1-46.801-.601-1.5-1.301-3.1-2.5-4.3-1.7-1.6-3.601-1.3-5.5-.1-2.101 3.7-1.801 7.7-1.601 11.6.5 10.4-4.899 19-8.399 28.101-2.7 6.1-.801 11 3.6 15.699 21.2 22.5 43.42 35.495 74.02 40.896 2.481-.295 7.171-6.978 12.871-11.578 7.2-11.699 18.259-8.008 18.259-31.109-3.901-7.6-5.85-2.608-11.65-2.408zm-815.1 5.8c-.9 19.6-1.801 39.1-2.5 58.7-.101 3.5-1 7.1 1 10.8 2.8-1.1 4.399-2.6 5.6-4.6 9.2-46.7 13-106.7 6.7-120.7-6.4 15.6-12.601 29.6-16.601 44.6 5.701 1.7 6.001 6.3 5.801 11.2z"/><path id="hl1" fill="#BD8B4F" d="M1443.811 1198.949c-3.8 1.6-12.264 27-13.063 25.299C1380.5 1216.5 1371.5 1213 1316 1169c-12.183-9.659-25.77-38.543-28.1-53.9-2.245-14.796-2.301-29.899-4.2-44.699-2.601-20.301-1.4-40.601-1.601-60.9-.5-39.4 3.7-78.4 10.801-117.2 3.5-19 8.1-37.899 18.8-54.399 8.5-13.2 18.899-24.801 30.6-35.301 39.601-35.8 85.2-62.6 130.601-90 7.399-4.5 14.6-9.3 22.1-13.6 21.3-12.1 35.6-30.9 48.4-50.9 12.899-20.199 24.8-41.1 34-63.3.6-1.5 1.1-3.2 3.8-3.8 1.7 5.4-.2 11.1 1.2 16.4-.101 22.1-3.9 43.699-10.801 64.699-6.699 20.4-19.3 36.101-37.699 47.301-16.2 9.899-32.7 19.199-49.301 28.399-25 14-49.899 28-73.1 44.9-6.2 4.5-12.3 9.1-18.1 14.1-14.4 12.5-26.2 26.7-35.5 43.9-27 50-41.2 103.7-49.601 159.3-7.2 48-4.05 83.5 14.7 135 26.001 50.25 78.001 59.75 120.812 63.949zM946.7 899.6c4 29.101 10.1 57.601 20.2 85.301 9 24.8 12.899 50.899 15.1 77.199 3.2 38 1.6 75.9-4.2 113.5-5.5 35.601-13.399 70.7-30.5 102.9-.6 1.1-1.5 2.3-.5 3.6.601 0 1.3.101 1.8-.199 2.5-1.601 5-3.301 7.5-4.9 1.4-1.8 2.7-3.8 4.301-5.5 21.5-22.3 35.899-48.6 44.899-78.1 14.601-47.801 15.101-96.601 9.7-145.601-3.7-32.8-9.4-65.3-18.4-97.2-8.399-29.899-17.3-59.5-31-87.5-6-12.3-9.899-25.399-13.199-38.699-4.2-17.2-5.5-34.7-7-53.4-1.4 2.8-2.301 4.5-3.101 6.1-3.7 40.999-1.2 81.799 4.4 122.499zm988.55 258.003c-5.8 3.601-12.75 14.297-16.85 16.897-11.4 7.2-23.601 8.7-36.5 5.5-23.2-5.6-39.5-19.8-50.2-40.9-1.601-3.1-2.101-6.8-5.8-10.3v28.1c1.899 3.801 4 7.601 5.8 11.5 11.3 24.9 30.7 39.101 57.6 43.4 13.5 2.1 21.218.535 34.718.734 4.199-14.8 11.832-37.731 11.232-54.931z"/><path id="sd1" fill="#896237" d="M1020.5 576.5c12.199 24.199 17.3 33.9 38.6 51.4 22.101 18 31.101 43.1 32.9 71 .5 8.199 11.1 22.1 15.1 30-64.199 97.1-63.8 284.8 91.601 455.3 4.5 7.8-4.2 11.5-9.2 16-28.6 26-57.2 51.899-85.9 77.8-.5.4-1.199.6-1.699.9-5-1.801-2.801-6.2-2.4-8.801 5-31.199 6.1-62.699 7.8-94.899-4.7 10.1-5.5 21.399-15.3 27.699-11.6 3.5-21.6 10.2-31.9 16C1029.4 1236.1 999 1253.7 968.3 1271c-4 2.3-7.7 5.1-12.399 6.1-3.5-5.2 1.199-8.2 3.6-11.2 14.5-18.399 27.8-37.3 35.6-59.699 14.801-42.7 19.601-86.4 16.4-131.601-3.8-53.8-14.3-106-30.6-157.199-5.2-16.5-11.301-32.7-18.7-48.4-12.4-26.3-20.101-53.8-18.4-83.3.2-2.9.8-6.101-1.8-8.5-1-13.7 2.1-27.101 4.3-40.5 9.8-60.7 34.8-98.05 64.7-151.45.399-.701 9.099-8.251 9.499-8.751zm56.8 227.5c-15.3 53.8-17 107.6 1.101 161.2 15.899 47.1 35.1 92.8 60.5 135.6 18 30.5 38.3 59.301 64.1 83.801 3.6 3.399 7.352 10.807 12.052 13.107 24.448 29.542 58.948 50.792 97.943 69.481 2.8 1.399 48.505 24.311 95.175-14.82-28.92 2.881-51.003-14.535-92.17-46.369-39.167-32.833-92.167-97.5-111.5-133.167-27.973-50.677-40.2-99.233-56-147.034-10.9-32.8-13.6-66.5-8.9-100.699 4.101-29.9 13.301-58.601 24.801-86.301C1175.3 712.4 1190.3 688.4 1215.9 673c.8-.5 1.399-1.399 2-2.2-2.2.801-4.5 1.301-6.601 2.301-39.6 20-77.6 42.199-108.1 75.3-2.2 2.399-3.8 5.6-7.7 5.899-8.099 15.9-13.399 32.7-18.199 49.7zm676-43.3c20.601 17.899 40.7 36.399 58.7 57 12.8 14.6 24 30.1 30 49 3.9 12.399 12.5 22.075 17 34.175 1 2.7 1.099 12.614 3.999 14.314.6-.5 7.535-9.377 7.735-9.877 1.1-2.399 6.707-14.12 7.606-16.62 17.3-48.8 19.443-62.248 27.043-113.448 4.8-33-8.684-87.995-16.884-120.495-16.7-65.9-47.75-106.25-80-146-6.7-6.4-11.866-11.483-20.166-16.083 1.5 3 16.187 25.815 17.887 28.716 20.7 35.2 12.479 26.518 21.979 66.318 6.5 26.899 10.399 54.1 12.5 81.8 2.7 35.8 1.399 71.1-6.9 106.1-3.2 13.3-4.5 14.101-17.8 9.7-18-6-35.6-13.1-52-22.8-5.1-3-10.3-6.2-16.3-7.4 1.201 2.6 3.701 3.9 5.601 5.6zM1322 499c1.5-.6 3.2-1 4.6-2 18.4-12.3 39.301-19.3 59.601-27.5 14.5-5.8 29.399-10.5 44.899-12.9 27.601-4.3 55.4-6.8 83.301-5.3 9.5.5 19.399.4 28.1 5.5-6.6-13.2-15.5-24.8-25-35.899-14.7-17.3-32.7-28.7-55-34-48-11.4-78.8-10.25-128-7.15-8.2.5-36.75 7.2-44.75 10 12.75-.5 26.851 3.95 35.75 8.25 21.8 10.4 24.5 17.4 21.1 42.3-2.399 17.4-11.199 32.601-19.5 47.8C1325.2 491.7 1322.9 495 1322 499zm290.75-113c-36.8-7-84.75-1.4-120.75 6.7-.4.1-.7 1-1.1 1.5.699 2.8 21.8 22.1 29.1 31.3 9.1 11.5 16.3 24.3 24 36.7 2.8-1.5 21.6-4.601 24.6-4.101 28.4 4.601 56.4 10.301 80.3 28.101 1.899 1.399 4 3.8 7.399 1.6-1.1-6.1-2.399-12.2-3.2-18.399-2.5-19.101-4.699-30.887 3.201-48.887 2.5-5.8 6.586-9.219 12.886-12.119-16.999-8-38.136-18.895-56.436-22.395zm178.55 848.2c-4.1 4.899-7.7 10.699-9 18.3 10.9 1.8 19.64 7.105 30.039 8.605 28.4 4.2 20.117 2.379 48.917 2.179 6.5 0 18.744-.934 21.244-7.034.9-2.1 19.431-5.581 20.431-7.681-38.5-.601-56.53-14.47-82.331-42.27-2.6-2.8-4.199-6-4.699-9.699-7.101 13.4-14.901 26-24.601 37.6z"/><path fill="none" stroke="#000" stroke-miterlimit="10" stroke-width="6" d="M1485.3 396l18-6.3c36.7-8.7 94.8-22.1 175.2 23.8 130.9 72.8 163.899 139.101 179 167.5 51.1 101.101 48.366 178.301 47.666 203.5-.699 25.2-24.636 107.235-40.836 137.135-5.5-34-41.23-90.135-60.83-113.234-19.6-23.101-90.8-86.7-123.5-105.4s-66-56.7-72.7-95.6c-6.7-38.9-17.3-39-22.8-31.101-5.2 103.3-25 109.601-34.5 120.601s-129.4 79.3-160.2 103c-30.8 23.699-65.399 124.199-77.7 177-10.494 29.7-21.064 73.647 10.9 158.1 14.637 38.672 73 69 122.5 60-77.5 185.5-242.5-10.4-242.5-10.4l-3.7 7-6.7 5.301-99.3 86.5s3.5-46.301 4.4-66.4c.899-20.1-11.9-12.1-25.601-5.2-13.699 6.9-78.8 50.5-124.8 66.601 63-138.101 25.7-249.4 23.8-281-8.6-25.7-19-66.301-25.1-103.5-43-283.9 181.5-427.292 181.5-427.292C1282.899 347.708 1455 373.1 1494 400.2c37.7 33.5 58.9 73.5 60.1 74.899M1170.3 629.6c-102.7 160.4-96.9 170.1-103.1 224.2-5.8 187.9 134.1 330.2 134.1 330.2m622.7-57c-2.3 2 9.2 45.4-11.7 76.3-20.899 30.9-31.7 32-30 49.2 47.7 16.2 66.125 12.086 71.45 11.75 11.724-.74 60.483-5.85 73.083-61.75 7.623-33.819 8.057-47.75 8.057-47.75s-16.64 27.5-41.09 26.75c-8.941-.274-41.1-4.2-69.8-54.5z"/></svg>