<svg xmlns="http://www.w3.org/2000/svg" id="hair" viewBox="0 0 3000 3000"><switch><g><path id="sd1" fill="#7C6D58" d="M1118.6 830.5c-12.8 3.601-23.398 18.301-24.5 33.101-.6 8.399 2.102 16.5 1.802 24.801-.5 17.699 1.8 35.199 2.6 52.8 1.5 29.899 3.9 59.7 3.3 89.601-.3 13.899-1.6 27.801-2.8 41.699-.3 3.101-.3 5.9.8 8.801-5.8 11.399-6.5 24.199-9.3 36.399-4.7 20.399-9.6 40.601-21.7 58.2-3 4.3-11 13.199-17.5 8.8-15-10-31.1-18-46.6-27-14.7-8.5-29.6-16.7-44.3-25.101-6-3.399-12.4-17.8-1.102-18.601 4.9-5.1 10.302-9.399 16.102-13.399 8.898-6 16.6-13.3 23.6-21.5 17.9-21.3 32.2-44.8 43.9-70.101 9-19.399 5-31.1 2.5-51.5-4.4-35.699-9.802-71.3-12.4-107.199-1.6-21.899-3.3-43.899-1.6-65.899.5-7 2.3-34.9 2.5-41.9 6.6-2.398 15.3 21.5 17.5 25.5 13.8 24.602 34.198 41.602 59.398 53.4 3.9 1.899 8.1 3.598 7.8 9.098zm82.3-3.5c-10.102 2.301-24.602 3.301-34.9 4-14.4 1-25.7 3.4-20 20.7-3.1 22.8-4.1 44-4.5 66.899-.5 39.2 12.5 79.9 30.6 113.801 22.102 41.399 50.2 76.8 70.9 118.899 9 18.301 5.9 39.899.6 59.399-3.3 12.301-12.898 19.101-12.6 32.301-5.1 10.5-11.5 21.5-17 33 21 1.3 50.2 8.699 69.6 9.899.602-8.101 4.802-20.301 6.5-28.101 4.5-20.199 7.5-40.6 11.5-60.8 3-15.5 2.602-30.4-3.6-45-2.3-5.5-4.1-11.301-6.3-16.801-13-32.399-26-65-44.4-94.899-23.5-38.2-39.7-79.101-46.2-123.5-1.898-13-3.898-26.101-2.1-39.7 2.3-17.199 9-38.5 15.6-54.199-3.7-4.698-9.3 3.102-13.7 4.102zM1389 602.4c-15.3 12.399-29 26.3-41.7 41.399-27.3 32.7-50.398 67.601-62 109.3-10.198 36.801-10.398 74.2-9.1 111.801.2 4.399.899 9.899 8.1 7.199.7-1.199 1.2-2.399 2-3.399 32.2-39.601 69.2-73.7 113.9-98.8 16.1-9.101 33.3-14.801 52-16.2 31.899-2.5 63.8-2.601 95.7-2.601 31.3 0 62.5 1.101 93.698-2.6 11.802-1.4 29.7-1.5 39.4-8.5 17.2-12.301 31.8-27.101 44.3-44.101-.1-.7-.199-1.301 0-2 1.301-4.7 21.9-36 16.2-39.4-5.9-3.6-33.4 24.4-36.5 27.801-10.2 11.2-21.8 20.399-35.2 27.399-10 5.2-20 10.2-29.199 16.801-6.301 3.699-13.5 3.199-20.301 4.399-27.1 4.8-54.199 3.899-81.398.101-12.802-1.801-25.7-3.601-38.602-4.601-22-1.7-43.898 1.199-65.699 2.5-10 .601-19.699 1.101-29.699-.399-12.602-2-20.5-8.801-24.102-20.801-1.5-5.101 3.9-12 3.5-17.3-1.398-20.899 4.7-40.101 12-59.2 4.602-12.101 9.5-24.101 14.302-36.199-7.3-3.399-17.2 3.901-21.6 7.401zm438.3 316.5c-3.398 50.199-8.698 100.199-15.198 150-3.4 26.1-6.7 52.199-16.5 76.899-6.302 15.801-12 31.801-18.302 47.5-10.8 26.899-21.898 53.601-32.898 80.399-1.602 3.801 6.398 7.2 12.198 9.5 22.602 8.899 41.602 25.899 64.5 34.101 4.5-15.601 12.7-37.801 16.5-53.601 11.4-46.5 20.9-93.3 27.2-140.899 3.3-24.899 4.3-49.5 1.5-74.399-4.2-37.7-12-74.801-21.2-111.5-3.398-13.601-6.198-27.2-5.198-41.4.398-5.5-8.5-11.399-11.5-16.699-.402 13.5-.202 26.799-1.102 40.099zm-274.9-436.7c3.398-1.5 7-1.7 10.6-2.3 13.4-2.399 26.4-6.2 39.4-9.899 3.198-.9 6.3-2.601 6.8-6.5.5-4.2-2.2-6.601-5.4-8.601-4.3-2.601-9-4.101-13.898-5.301-17.7-4.199-35.5-7.699-53.802-8.399-11.198 3-22.1 7.101-32.3 12.601-6.3 3.399-12.1 3.7-19.1 2.101-47.802-11.2-96.102-17.2-145.302-12.801-14.198 1.301-28.398 2.601-41.898 7.601 26 .301 51.898 1 77.7 4.301 18.5 2.399 36.398 7.5 53.898 15.101-22.8 5.899-44.8 13.6-68 24.199 25.2 2.801 48.5 3.399 71.9 6-18 7.5-36.9 12.5-54.9 24.399 13.602 1.4 25-1.3 36.4-2.1 11.5-.9 22.8-2.7 34.6-.301-12.1 7.399-25.3 12.399-36.7 20.899 3.7.101 7.2-.5 10.7-1.1 10.2-1.7 20.3-4.101 30.5-5.101 24.9-2.399 49.9-1.899 74.8-2.2 26.4-.399 52.5 1.7 78.302 7.2 4.5 1 9.3.899 13.898 1 4.602.2 9.102 3 14.7.899-31-11.699-62.8-15.699-96-22 13.2-5.8 25.4-7 37.1-10.399-16.8-4-33.898-4.8-51.198-5.5 8.198-3.7 16.6-6.601 24.898-9.5 7.302-2.5 14.7-3.899 22.4-4-.4-2.2-1.8-2.5-3-2.601-7.2-1.101-14.5-2.101-21.7-3.101-2.798-5.597 3.502-2.697 4.602-4.597zm-271.8 247.2c-29.8 13.3-60.6 23.6-92.6 30.199-29.4 6.101-56.8 3.4-81.6-14.8-15.302-11.2-30.2-22.8-41.802-38.101-2.6-3.399-13.8-18.101-18.898-17.3-3.9 6.899-7.9 18.8-11.2 25.899-2 9.399 3.3 23.601 6.7 32.601 15.6 41.5 72.5 93 138.398 82 35.302-5.899 67.802-25.2 95.602-47.301 2.398-1.899 4.3-4 4.8-7.199 2.6-15.801 7.8-30.899 12.2-46.2-3.9-4.498-7.8-1.498-11.6.202zm-28.1-70.099c-28.9 6.699-58.2 11.3-88 9.699-18.3-1-33.5-7.6-39.9-26.1-6.3-18.101-8.8-36.9-4.6-56-7.6 7.199-21.2 18.6-28.5 26-5.4 16.6-7.8 33.699-6.4 51.1 2 26.301 15.9 41.2 42 45.301 14.2 2.3 43.2 2.699 56.802-.7 27-6.601 52.1-18.199 76.5-31 15.6-8.199 31.398-16 45.8-26.199-15.902 4.198-37.902 4.198-53.702 7.899z"/><path id="cl1" fill="#988A75" d="M1696 459c16 4.9 30.4 13.4 44.7 21.9 48 28.6 89.6 64.5 123.698 109 23.9 31.199 37.5 66.399 43.802 104.899 8.1 50 7.6 100.2 3.1 150.5-2.399 27.2-6.399 54.3-10.8 81.2-.4 2.6 0 24.399-.2 27.1-4.899 6.301-7.399 1.101-9-2.5-3.399-7.199-8.899-34.6-11.2-42.199-12-39.101-23.1-77.301-35-116.4-1.8-6-1.8-11.6-.1-17.6 4.4-16.101 10-33.2 10.4-49.801 1.198-56.399-24-99.699-68.102-133-25.199-19-51.3-31.6-85.3-41.8 14.2 4.601 28.5 9.101 41.8 16.2 3.5 1.899 7.301 3.5 9.4 7.199 7.7 7.899 18.2 10.301 27.4 16.301.898.5 1.198.199.3 4.5.898.6 3.3.899 4.1 1.6 10.601 11 21 22.7 29.8 35.4 7.7 11 11.7 23 11.9 36.3.5 28-1.2 55.8-9.9 82.7-1.8 5.5-8.898 20.199-16.698 20.899-4.802-8.301-7.802-20.101-13-28.101-11.9-18.3-21.602-42.399-27.5-63.2-3-10.5-5.587-7.438-5.286-18.637.1-5.301.484-8.163-4.614-8.463-10.2-37.2-38.3-64.9-70.7-75.101-26.1-8.2-53.398-11.101-80.699-12.301-6-.3-11.899-1.5-17.801-2.3 23.102 4.4 44 14.601 65.102 24.4 15.398 7.1 30.8 14.398 43.198 26.6 6.9 6.8 10.4 14.7 9.5 24.2-3.6 37.1-15.398 69.5-51 88-2.198 1.2-.698 2.7-1.5 3.8-3.5 4.4-8.5 4.601-13.398 5.5-34.102 6.101-68.3 4.7-102.2-.899-30.9-5.101-61.7-2.5-92.4.101-11.5 1-22.698.6-33.6-2.2-14.1-3.601-23.1-16.5-24.4-34.101-1.3-17.399.4-34.399 6-51.101 5.7-17 12.802-33.399 20-49.899 9-14.101 24.102-20.5 37.802-28.3 20.1-11.301 41.198-20.2 64.1-24.301-34.4 6.7-76.3 26.7-103.3 49.4-8.5 7.1-17.602 12.3-28.4 15.899-17.2 12.801-30.3 20.399-45.898 29.899-9.302 5.7-22.4 11.7-32.9 15.2-8.7.5-14.9-.3-23.1 2.5-37.602 12.5-76.4 18.3-116 15.1-21.102-1.699-34.9-14.3-39.9-34.898-4.2-17.102-9.1-34.5 2-51.102 26.7-34.3 58.2-63.6 92.6-90 12.9-9.898 26.301-19.199 40.2-27.699 14-8.601 28.8-15 44.9-18.399 41.1-6.2 81.5-3.5 121 9.7 1.3.398 2.5.8 3.8 1.3 4.2 1.7 10 2.6 9.7 8.399-.301 5.601-5.801 6.301-10.4 7.5-9.7 2.5-19.2 5.5-28.6 8.801-6.4 2.3-12.7 5.3-19.602 5.699 18-1.101 35.9 1.399 53.802 2.301 3.698.199 8 .5 8.8 4.898.8 4.9-3.3 6.9-7.102 8.2-12.5 4.4-24.898 9.101-34.5 12.8 12.802-2.199 28.602-4.3 44.602-4.1 4.8.1 11.398-1.2 12.898 4.899 1.602 6.801-5.398 8.199-9.8 10.699-4.3 2.5-9.2 3.801-13.8 4.801 65.2-9 130.399-11.5 191.5 4.301-8.7-.2-20.2-4.7-32.3-6.5-12.4-1.9-25.102-2.9-37.301-5.9-4.699-1.1-12.699-.3-12.199-7.5.398-6.5 7.8-7.399 13.3-8.3 4.2-.7 8.5-1.601 12.3-1.101-10.7 1.199-21.898-.699-33.1-.601-3.801 0-8.102-.7-8.7-5s3.2-6.399 6.9-7.3c10.198-2.601 19.3-9.5 30.698-7.4-4.1-.699-8.6.4-11.698-3.699-1.5-4.399 2.1-5.399 4.698-7 28.2-4.899 55.7.699 82.9 6.301 53.4 11.1 102.7 32.1 146.5 65.199 13.8 10.5 25.9 22.5 36.1 36.399-21.898-28.6-45.6-55.5-71.8-80.3-14.5-13.7-30.2-26-45.399-38.9-3.703-2.691-7.403-5.29-5.103-10.591zm-356.5 828.6c6.7-19.899 19.1-37.3 26-57.101 16-45.899 18.7-92.8 10.2-140.6-3.802-21.601-8.2-42.9-17.7-62.9-.9-3.3-3.6-5.5-5.5-8.199-20.7-28.2-37.1-61.2-53.6-92.101-5-9.399-12.102-23-13.9-33.7-1.5-22.8-6.5-37.1-6.4-60 0-8 2.5-15.8 1.9-23.8-.3-5.101 2.5-19-3.2-22.2-5.698-3.199-13 4.4-17.198 7.301-13.2 9.101-27.2 15.5-41.9 21.601-3 1.3-4.7 1-6.5 4.1-14.7 24.9-20 57.9-16.6 86.801 5.198 44.399 18.698 85.8 41.398 124 24.102 40.601 42.8 83.399 58.602 127.699 2.898 8.101 5.198 16.5 3.698 25.4-4.8 28.5-8.6 57.199-16.698 85.1-1.2 4.301-2.4 13.5 1.6 16.9 16.9 2.8 35.5 5.3 51.6 11.6 2.198-1.301 3.398-7.301 4.198-9.901zm-196.8-89.299c1.1-18.101-3.7-45-6.602-62.7 3.002 17.499 8.502 44.599 6.602 62.7-.802 7.101-6.5 16 5 17.5 23.698 4.8 56.6 8.399 80.3 13.199 5.4 1.7 11.2 2.4 13.6-4 8.302-22.199 13.5-44.399 3-67.699-17.5-38.5-38.398-75.2-58.898-112.101-24.801-44.6-43.301-90.399-39.301-143 1.301-16.899-1.601-47.3.301-64.1.8-7.4 6.5-3-3.4-6.101-8.7-2.7-17.6-6.101-27.2-5.2-19.198 8-28.1 23.101-26.5 46.5 1.602 22.899 2.4 45.801 4.2 68.7 1.2 14.601.6 29.3 2.1 43.8 2.102 20.601 1.802 41.101.2 61.801-.8 10.8-2.7 21.699-.7 32.699 1.7 4.5-2.698 11.699-3.5 16.399-5 29.399-16.3 57.399-32.198 83.301-2.302 3.699-4.7 7.8 1.6 10.399 11.7 6 31.601 15.399 45 17.301 8.4 1.199 18 2.1 26 5.1 12.496 2.101 9.596-2.199 10.396-14.498zM1839.5 927.7c2.2 21.601 8.8 42.3 13.1 63.5 9.9 49.3 14.4 98.399 5.302 148.601-9.602 53.101-19.7 106-34.802 157.899-1.3 4.4-5.898 15.301-1.698 19.4 12.3 6.199 25.198 11.1 38.1 15.899 7.8-1.399 12.8-14.601 15.9-20.2 15.1-27.199 26-56.199 34.6-86 6-21.1 11.9-42.5 10.4-64.8-2.302-35.601-7.602-70.801-14.602-105.7-14.698-72.5-33.1-144-54.1-214.899-2.9-9.7-4.3-33.5-11.4-41.7-9.3 1.5-21.698 16.2-18.8 26.7 3.4 14 3.2 41 6.6 55 1.7 16.1 9.7 30.1 11.4 46.3zm-531.4-230.6c-.1-3.699.5-7.3 2.302-10.601 2.6-4.899 2.698-9.8-1.5-13.699-4.302-4-8.7-1.101-12.9.899-2.1 1-4 2.3-6 3.5-38.4 21.399-77.6 41.101-122.1 46.2-16.5 1.899-32.802.6-47.4-8.801-.8-.6-1.5-4.6-2.4-5-22.5-8.8-32.198-23.3-34.6-46.199-.6-6-.5-12-.1-18 .198-2.601 3.5-22.301.8-21.101-1.6 3.3-13.1 14.399-14.8 17.601-8.602 16.3-15.4 29.399-21.5 50.5 13.5 18.5 36.198 42.1 54.6 55.5 21.7 15.8 45.8 22.6 72.5 18.6 26.4-4 52-10.899 77.1-20.3 13.7-5.101 26.9-11.399 40.302-17.101 5.196-10.598 10.496-21.297 15.696-31.998z"/><path id="hl1" fill="#C6B9A2" d="M1855.9 1336.6c17.1-29.101 34.1-70 44-102.3 5.898-19.101 10.6-38.5 12.8-58.4 1.6-14-.8-27.899-2.3-41.8-6.5-58.7-19.7-116.101-33.802-173.3-10.698-43.3-22.198-86.4-35.198-129.1-1.9-6.399-6.302-27-6.802-33.7-3.1-4.699-1.898-8.899 3-10.3 5.9-1.7 8 3.399 9.4 8 6.6 21.601 15.1 57.601 21.7 79.2 8.3 27 16.6 49.199 25.8 75.899 3.1 9 12.5 19.5 10.2 29.3 1.898 16.899 8.6 30.601 13 47.001 10.5 38.8 23.898 79.699 34.6 118.5 8.1 29.5 4 61.3-2.7 90.6-8.3 36.5-30 81.4-45.6 115.3-2.9 6.4-3.2 6.5-9.2 2.7-12.198-7.5-26.298-11-38.898-17.6zm-479.5-23.2c5.198 1.8 8.898-4.2 11.198-8.801 2.602-5 9.7-9 12.4-14 15.8-29.699 26.7-67.399 28.8-101.199-1.199-51.7-20.5-96.5-42.6-132-9.4-12.5-19.9-23.2-29.6-35.4-2.4 2.301-2.5 9.601-1.7 12.101 7.5 23.2 12.1 46.899 15.7 71 4.6 31.601 2.898 62.899-3.602 94.101-4.7 22.7-13.5 43.7-24.7 63.899-5.1 9.301-9.698 18.899-10.898 29.7 14.802 6.5 29.702 15.199 45.002 20.599zm174.9-830.5c20.4-.801 40.4 2.1 60.5 5 20.102 2.899 39.802 7.8 59.2 14 19.6 6.3 38.9 13.899 57.1 23.6 18 9.5 35 20.5 51.2 32.801 16 12.101 29.2 27.3 45 42.3-.6-3-.6-3.601-.899-4.199-.601-1.2-1.399-2.301-2.101-3.4-26.899-42.699-62.2-77.8-100.2-110.399-9.3-8-19.8-14.5-28-23.8-18.1-9.5-37.5-15.2-57.3-19.301-34.2-7.1-68.5-8.3-102.5 1.5 2.4 3.301 6.2 3.5 9.8 4.2 15.302 3.2 30.602 6.2 45.802 9.601 5.698 1.199 11 3.3 15.698 8.899-20.198 5.399-39.398 9.5-57.398 17.2-.102 3.598 1.898 2.998 4.098 1.998zm196.3 179.401c2.2-4.101 4.102-8.301 3-13.301-.698-3.5.102-6.6 3.802-8.3 3.698-2.5 3.898-5.5 2.3-9.5-4.9-12-17.4-24.3-27.4-32.399-20-16.101-43.3-24.399-68-30-18.199-4.101-36.8-6.2-55.3-7.601-12.4-1-24.9-1.101-38.2.101 3.4 3.101 6.801 3.5 9.801 4.601 27.5 10.1 54.899 20.6 80.801 34.399 8.5 4.601 16.6 9.699 23.898 16.199 6.5 5.801 9.2 12.9 8.7 21.4-1.1 17.899-5.6 34.8-14.3 50.5-7.8 14.3-18.2 26.3-32.3 34.699-1.102.7-4.802 1.301-1.102 3.7 14.7-4.2 28.602-10.2 41.602-18.399 12.8-8.101 40.167-39.435 50.267-51.233 2.9 5.7-2 21-9.067 37.434 8.798-9.701 15.398-20.8 21.498-32.3zm27.4-65.5h.2c.8.5 1.5 1.199 2 1.899 7.1 5.601 13.5 12 19.398 18.7 15.302 17.399 24.2 37 22.802 60.899-.7 11.601-1.2 23.3-2.5 34.8-2 17.2-9.602 39.801-18.602 55.2 6.301 16.3 13 32.399 16.2 49.7 1.7.899 5.3 5.3 8.3 5.399 12.4-27.801 25.5-62.301 26.9-93 2.6-56-13.866-106.567-68.5-133.7-.5-.699-1.2-1.199-2-1.5-.2-.601-.7-.899-1.3-.899-2.198-.799-2.898.401-2.898 2.502zM1355.6 629.2c.102-3.601-1.698-3.899-4.398-2.5-21.2 12.5-42.2 25.3-63.5 37.601-30.9 17.8-63.301 28.199-97.4 39.101-24.1 7.699-49.9 12.699-74.9 6-4.1 1.6.2 8.199 2.602 9.5 14.2 7.399 29.3 11.1 45.3 9.5 19.3-2 37.9-6.7 56.101-13.5 27.5-10.4 53.5-23.601 78.801-38.601 1.699-1 3.3-2.899 5.398-1.899 2.7 1.3 1.7 4 1.602 6.199-.102 2.301-.9 4.601-1.2 6.899-.4 3.301-1.1 6.7 1.6 9.4 14.394-24.2 31.294-46.599 49.994-67.7z"/><path id="l" fill="none" stroke="#080A09" stroke-miterlimit="10" stroke-width="6" d="M1640.2 440.1c146 46.301 219.398 141.5 232.398 161.5C1922.6 685.6 1916.9 791 1915.9 817s-16 115-16 144 59 196 59 226c0 56-50 169-54 169s-162-74-160-80 45-117 58-149 25-230 25-243-9-73-22-103c-46-71-54-136-54-128s-48 77-75 89-105.6 11.301-177.3 11.301C1428.9 749 1389 773.2 1371 788.2s-94.4 73.899-88.4 98.899S1338 1005 1379 1044c53 68 54 147 52 150s-11 90-47 122c-67-34-175-38-170-40s19-44 19-44l-95-18-56-11s-20-12-26-15-118-62-105-69c80-54 97-128 99-137s-16-83-20-176 25.3-156.3 60-191c36.2-36.199 103.9-117.699 191.8-159.8 121-33 210.802 3.8 210.802 3.8s49.598-35.6 147.598-18.9zm-127.5 99.6c-2 0-278 78-230.7 343.3m-193.3-264s-64.7 218 298-13.5M1036 737s64 179.301 243.8 43.4M1147.3 835s-32.698 128 48.7 235.301c81.399 107.3 42 152 38.7 158.699m-180.8-42.1c33.3-18.7 39.398-103.9 39.398-103.9m47.602 131.5c10.198-17.8-6.2-84.899-6.2-84.899m686.6-303.3c118.7-216-135.3-282-135.3-282M1843.7 785.7s41 156.7 52.3 174.7"/></g></switch></svg>