<svg xmlns="http://www.w3.org/2000/svg" id="hair" viewBox="0 0 3000 3000"><path id="cl1" fill="#F6C396" d="M1509.699 630.302c.301-12.399 13.5-51.899 10-52.399-4.102-.5-6.199 1.899-7.102 5.5-1.898 8.1-4 16.199-5.398 24.399-5 28.601-7.4 57.5-7.699 86.5 0 4.698-.301 9.198-2.4 13.601-18.5 40.199-36.898 80.5-55.301 120.699-.799 1.801-1.898 3.5-2.898 5.2-17.398 33.198-34.199 66.8-58 96.3-13.398 16.601-28.602 31.5-43.801 46.398a21.464 21.464 0 0 1-4.801 3.602c-8.899 5.398-14.3 3.301-16.899-6.899-3.5-13.898-5.8-28-7.698-42.199-4-30.301-8.602-59.699-6.699-90.101 1-14.301 5.299-31.9 8.799-45.801 8.4-34 18.601-76.199 33.601-107.899 4.7-9.898 4.802-7.8 11.2-16.7 1-1.398.102-6.198-1.7-3.5-11.198 17-19.601 35.5-26.8 54.5-14.7 38.302-22.2 77.602-28 118.302-4.2 30-8.801 60.398-10.2 90.601-.897 20-1.198 39.899-.897 59.899.3 17.8-1.603 34.898-5.801 52.101-2.199 8.801 1.801 7.399 3.698 13.101 6.2.5 4.603 5.301 4.2 8.801-.801 6.5 2 6.601 6.699 4.5 6.9-3.101 13.5-6.801 20.4-9.899 9.398-4.101 10.801-3.301 12.5 6.801 1.801 14.8 3.698 29.601 5.301 44.398 2.699 24.899 13.5 46.102 29.299 65.2 1.9 2.3 3.701 4.699 5.5 7 4 4.399 7.201 9.5 10.801 14.3 2.5 3.301 4.602 7.301 1.699 10.899-3.199 3.899-7.5 1.7-10.899-.3-9.101-5.5-18.198-11-25.601-18.7 5.801 6 9.9 13.2 13.101 20.801 3 7.199-.5 11.801-8 9.699-20.897-5.899-43.698.399-61.101-14.601-17.1-14-34.799-34.8-43.6-54.899-13.4-30.601-21-64.5-27.802-97.101-7-33.199-13.5-67.899-17.397-101.601-.2-1.699.5-2.399.199-4-.5-3.699 3-3.601-1-3.399-3.9.301-2.302-3.199-2.199.601.1 3.301.6 6.801.897 10.102.5 5.3.399 10.3.899 15.601 1.201 22.8 2.301 45.5 2.5 68.398.4 58.2 18.801 110.801 50.301 159.301 3.602 5.5 8.199 10.5 9 17.5-.199 1.699-1 3.101-2.5 4-5.699 1.699-9.6-1.601-13.398-4.899-39.5-34.101-74.699-72.199-104.899-114.8-7.7-10.801-16-21.2-23.4-32.5-.698 17.898-3.198 35.699 1.5 53.398 1.103 4 3.302 9.2-1.6 11.7-4 2.101-7.5-1.601-10.3-4.5-34.9-36.801-62.603-77.801-76-127.399-.5-1.899-.9-3.899-1.2-6.801-5.8 12.7-11.3 24.602-13.9 37.602-.6 3-1.198 6.601-4.6 7.101-4 .601-5.7-3-6.9-6.101-2.897-7.102-4.6-14.602-5.897-22.2-6.4-36.699-5.603-73.601-2.301-110.5.398-3.898 1.5-7.898 3.801-11.3 7-6.7 15.5-11.399 23.3-17.102 4.2-7.3 5.5-8.398 5.399-11.8-.199-4.101-6-2.899-12.302 1.601-11.1 7.899-22.198 15.899-33.198 24-10.5 7.699-34.068 17.271-50.267 16.771 4.801-5.5 12.867-14.271 17.067-19.671 19.897-25.5 33.199-54.5 43.699-84.8 12.601-36.5 25.801-72.801 38.101-109.301 21.1-62.301 59.3-112.801 106-157.5 66.1-63.199 144.7-103.301 233.3-124.602 3.602-.899 7.102-1.699 10.801-1.699 17.102-2.102 34.301-2.2 51.399-3.602 5.8-.5 11.101 1.602 16.101 4.5 10.699 6.102 22.102 10.9 32.602 17.102 5.3 3.102 8.398 2 11.199-3.102 10.198-18.3 15-38.199 16.698-58.898 2-25.5-2.397-49.602-16.698-71.4-1.699-2.5-3-5.199-2.399-8.399.7-1.601 1.6-2.8 3.6-2.101 31.802 26.801 50 60.7 52.4 102.5.1 1.301 0 2.7.1 4 .5 10.801 1 11.601 11.9 13.301 41.2 6.399 79.899 20.101 116.3 40.301 49.3 27.5 89.8 65 123.5 110.199 24.602 33 44.7 68.5 58.8 107.199 6.302 17.399 19.4 30 31.802 43 3.698 3.801 8.101 6.899 11.198 11.301.5.899 1 1.801 2.2 2.102.2 1.898-.2 3-2.5 2.398-9.3-3.5-19.607.526-28.907-3.176-5.398-2.101-12.491-8.625-16.593-12.525-17.398-16.301-30.1-40.5-43.7-59.899-7.5-10.601-16.198-21.101-23.897-31.5-1.801-2.399.1-4.601-2.2-6.399-2.3-1.699-2.399-2.398-4.8-.301-2.301 2.102 4.6 10.7 6.5 13.399 4.8 8.801 42.397 114.301 77.699 145.601 4.801 4.2 8.801 9 11.5 14.801 10.101 38.301 19.801 76.699 25.698 115.801 4.603 30.801 3.4 61.699-.1 92.601-1.9 16.899-4.2 33.7-8.8 50.101-.801 2.899-1.2 6-2.5 8.601-10.9 21.301-8.9 43.899-6.7 66.5 3.8 39.399-6.3 74.399-32.9 104.301-7.5 8.399-16.397 12.801-28.6 14.399 4.6-6.601 8.3-12.101 12.1-17.5 2-2.801 3.802-5.899 1.302-9.101-2.399-3-6-2.601-9.199-1.399-11.603 4.199-23 8.601-34.603 12.801-2.698 1-5.3 2.5-9.1 2.199 2.3-6.699 5.2-12.399 9.6-17.399 9.603-21 26.2-37.301 37.603-57.101 18.8-32.5 25.3-67.101 18.199-103.601-6.199-31.7-3.399-62.899 1.698-94 2.9-17.899 6.4-35.899 12.9-53 4.3-10.399 8.7-20.899 13-31.3 1-2.5 2-5 2.3-7.602.4-2.801-35.5 67.699-52 89.601-11.8 15.601-25.199 23-36.8 32.899-2.8 3.301-7.4 3.399-10.3 6.601-1 .801-1.9.7-2.7-.199 6.7-26.801 14-53.399 19.6-80.399 3.4-16.601 4.302-33.301 6.4-50.199 3.1-25.301-3-48.199-10-72.301-4.5-15.699-6.2-32.601-12.5-47.601-5.5-13.2-12.101-26.5-15.9-40.399C1739.8 628.5 1673.8 535 1659.5 510.1c-3.301 2.801 12.3 19.899 14.3 21.5 0 0 53.5 106.101 65.899 163.5 5 23 8.301 46.399 6.5 70.101-.601 8.602-2.699 17-4.699 25.301-4.801 14.199-12.5 27-20.602 39.5-5.8-1.199-5.3-5.801-5.601-10.101-1.101-14.399 2.399-27.601 3.5-41.7-1.3-8.199 1.7-29.601 1.399-31.898-.399-3.399-4.899 39.101-28.101 73.898-6.301 11.2-11.399 23.2-18.899 33.801-14.699 15.199-32.5 26.399-50.101 37.801-9.5 6.199-14.101 4.601-18.198-6.301-8.4-22.5-18.602-44.199-29.102-65.699-6.301-13-14.801-24.5-22.699-36.399-14.5-21.899-42.699-32.101-51.102-56.801-7.1-20.699 2.602-50.601 3.4-71.8-.195-6.703 2.106-18.001 4.305-24.501z"/><path id="sd1" fill="#CD7C6A" d="M999 887.9c-.601 26.899-2.9 53.899-1.801 80.8.801 19.7 3.101 39.102 8.601 58.102.899 3 1.2 6.5 4.5 9.101 1.8-19.4 10.602-35.5 19.8-54.101 12.302 60.5 43.5 107.5 86.602 150.3-8.301-26.6-6.899-51.199-3.602-76 3.9 0 4.102 2.9 5.199 4.7 18.4 29.8 39.801 57.398 62.4 84.101 15.5 18.399 32.698 35 50.1 51.6 8.102 7.802 16.4 15.602 26 21.802 2.102.601 3.602.601 2.102-2.199-27.602-37.801-47.199-79.2-56.5-125.2-3-15-5.602-30-5.5-45.398.199-25.2.301-50.5.398-75.7 2.602 16.398 7 32.8 9.701 49.2 5.699 34.5 16 68.398 26.1 101.898 13.9 46.399 41.605 64.954 76.801 105.602 15.102 11 31.102 24.5 48.602 31.3 2.199.801 4.398 1.7 6.199 3.101 9.6 7.602 19 15.5 29.301 23.899-3.102 1.601-5.201.7-7.301.301-31.699-6.101-63.302-12.301-95-18.399-1.602-.301-3.302-.699-4.9-.801-7.199-.5-6.3 1.699-4 8.5 2.4 6.899 1.5 14.801 4.2 21.602 1.5 2.8 1 4.5-2.5 4.5-27.3-23.399-54.7-46.7-82.102-70.102-3.398-2.898-5.698-6.5-7.898-10.199l-38.102-63.301c-1.5-2.601-3-5.199-5-7.398-2-2.2-4.8-2.302-7.3-.602-2.101 1.399 2.399 2.138 3.399 4.539 1.5 3.698-2.301 8.861-.2 12.261 10.2 17.2 20.301 34.399 31 51.302 4.7 7.5 8.2 15.101 9.7 23.8 1.5 8.801 13.667 16.366 14.167 25.366-3.601.399-10.922-9.305-12.621-11.005-34.9-34.8-58.146-38.112-93.046-72.913-4.101-4.101-20.25-35.1-22.25-40.5-4.301-11.5-10.051-20.35-14.649-31.748-1.301-3.399-2.601-6.899-4.101-10.2-2.399-5.3-5.603-7.3-8.899-5.601-4.7 2.5.869 5.146 2.369 9.045 5.1 13 5.332 27.455 10.631 40.455 1.8 4.399 5.72 12.887 5.521 17.687 6.047 17.789 3.714 29.78 14.048 45.78-3.801-2.301-30.234-23.808-39.201-34.573-24.768-44.346-36.296-62.199-47.466-110.094-1.699-4.101-2.3-9.897-8-10.8 0 0-2.7 2.899-5.603 6.801-7 9.199-7.883 20.012-10.283 31.212-.5 2.199-3.717 4.288-5.717 6.888-2.1-1.3-2.299-3.7-3-5.601-11.397-29.199-11.1-59.399-5.897-89.602 6.397-37.8 20.5-72.898 38.397-106.698 1.4-2.908 2.9-5.908 6.601-6.81zm830.8 47.902c-1.398 1.8-2.3 6.101-2.898 8.3-7 27.2-11.102 54.7-7.102 82.801 1 7.3 1.302 14.6.2 21.8-7.2 50-23.9 96.5-51.101 139.2-.399 1.899.101 2.899 2.3 2.3 2.7-.898 5.5-1.898 8.2-2.698 8.397-2.5 10.397-1 11.198 8.398 2.102-.398 3.5-1.898 4.699-3.5 11.601-14.601 22.101-29.898 32.9-45.101 14.1-19.8 20.6-42.5 24.301-65.699 2.6-16.601 2-33.801-2.2-50.5-1.398-5.801-2.898-11.7-3.101-17.601-1-26.602 1.2-53 6.7-79.2 3.198-15.199 20.601-63.851 20.601-79.552-10.094 16.699-35.131 57.023-44.697 81.052zm-324-301.902c-2.698 21.199-3.698 42.399-4.198 63.699-.102 3.301-1.602 6.5-.7 9.7-6.102 31.2 36.898 77.5 56.898 113.8 15.5 28.101 27.2 57.7 35.602 88.7 1.398 5 1.8 10.3 4.398 14.898 1.102-.3 1.802-.3 2.302-.601 21.198-16.699 42.198-33.6 60.6-53.5 4.7-5.1 9.801-10 12.2-16.8-11 4.898-20.2 12.8-30.103 19.398-9.897 6.602-19.697 13.302-30.5 20.602-4.1-10.602-7.5-19.899-11.299-29-11.101-26.399-22.701-52.5-39.398-76.102-8.5-12-16-24.601-22.2-37.898-14.3-30.5-24.103-62-22.3-96.3.398-8.302-8-27.7-9.303-36-.399 1.104-1.899 14.504-1.999 15.404zM1301 845.302c-3.601 46.8-12.4 99-11.7 146 .2 12.398-.698 24.601-3.101 36.698-.399 2.102-.899 16.5.2 18.7 1.198-.398 14.101-10.7 14.601-11 19.1-16.601 35.3-34 54.399-57.101 20-18 36.397-38.602 47-63.8 8.698-20.5 18.698-40.5 27.897-60.802 3-6.6 6.9-12.898 8.5-20.1-2.397 1-3.198 3.3-4.397 5.3-6.7 11.5-13.399 23-20.2 34.5-21.601 36.2-46.8 69.602-77.899 98.3-4.101 3.802-8.198 7.7-14.601 8.5-.8-2.398-1.8-4.5-2.3-6.698-8.302-38.899-12-78.2-12.5-117.899-.103-5.301-3.399-11-4.399-16.301-.5 1.901-1.4 3.801-1.5 5.703zM1483 269.9c-2.7-2.602-5.7-4.7-10.801-5.602 1.698 3.802 2.801 6.2 3.801 8.602 5.8 13.898 9.899 28.398 10.6 43.5 1.102 21.7.302 43.3-2.301 64.899-1.199 9.899-2.398 10.699-12.6 11.699-18.9 1.7-37.802 3.2-56.699 5.5-11.5 1.4-23.2 1.7-34.4 5.301h48.802c4.698 0 9.397 0 13.5 2.601 13.198 8.399 28.3 13.399 41.101 22.5 3.6 2.6 6.199 2 8-1.7 3.899-7.899 8.699-15.1 11.5-23.7 6.5-19.898 10-39.8 9.399-60.699-.7-23.399-7.7-44.301-22.399-62.601-.204-5.1-5.903-6.2-7.503-10.3zm-125.2 981.7c5.899 2.601 14.602 10.7 21.102 10.301 25.3-1.601 47.601-6 75.398-15.101 1.399-.102 2.302-2.5 2.7-5.399-9.601-5-19.4-9.899-29-15.101-21.801-11.699-41.2-26.899-59.101-43.899 1.897 8.899 9.5 15.399 11.5 25.699-16-7.3-27.7-19-43.603-27.699 7.201 13 14.9 23.3 20.603 35.601-5.302.699-9.302-.899-13.399-2.101-18.4-5.601-38.301-3.2-55.9-11.2 19.699 21.299 43.099 37.299 69.7 48.899zm501.5-544.1c-.8-3.3-2.398-6-5.101-8.3-19.699-16.8-35-37.398-49.8-58.398-7.899-11.102-15-22.802-24.2-33C1786 646.601 1801.8 690 1824.1 722c13.898 20.102 31.301 36.802 50.398 51.9-4.898-19.3-10.398-47-15.198-66.4zM1749 765.9c2.5-19.101 3.5-38.4 4.399-57.7.397-8.101-.103-15.8-2.399-23.5-16-53.5-41.5-102.101-76.101-145.898-1-1.3-1.899-2.7-3.7-3.102-.399 3.302 1.601 5.7 3.101 8.2 22.302 37.699 40.2 77.3 52.899 119.3 6.399 21.102 11.2 42.5 13.301 64.399 1.399 14.2 4.102 28.4 1.8 42.801-1.101 6.602-1.397 13.199-1.101 19.899 4.701-7.497 6.701-15.799 7.801-24.399zm-420.166 248.6c-4.601 1.5-9.734 7.2-12.434 9.402-10.7 8.699-23.495 18.901-35.397 26.201 1.9 1.899 5.397 9.599 4.897 11.998-.899 4.7-2.5 9.4-2.2 15 15.5-3.5 28-12.5 41.899-18 1.199 2.601 2.199 4.601 3.199 6.601-.898-14.102 1.036-36.104.036-51.202zM1694.8 845.6c8.602 33.5 25-8.5 27.5-13.899-2.198-3.3-2.698-9-3.101-12.601-1.3-13.899 3.301-56.699 2.101-70.5-5 27.3-33.9 74.4-26.5 97z"/><path id="hl1" fill="#F7DBAB" d="M1144.8 546.5c2.5.4 4.899 1.602 6.899 3.4l33 28.8c8.5 7.5 17.5 14.3 27.899 19.102 3.101 1.398 6.199 2.601 9.601 1.898 8.5-1.601 16.2-.601 22.399 6.2.801.899 2.199 1.5 3.5 1.8 9 1.899 16 7.2 23.699 11.8 5.899 3.5 13 9.9 21.801 5.5 2-1 3.801.4 5.199 1.9 1.801 1.899 3 4.6 5.899 5.1 4.801.9 4.9 8.602 9 7.802 4.9-1 8.4 1.3 12.5 1.898 3.5.5 6.2 2.2 8.4 4.899 4.3 5.4 2.898 10.801-3.5 13.5-3.4 1.4-6.9 2.5-10.302 3.801-2.398 1-4.698.8-6.5-.9-7.8-7.5-19.3-8.5-27.101-15.898-.199-.199-.601-.199-.899-.399-4.898-3.601-12.698 2.2-15.698-3.398-3.302-6.2-9.7-5.2-13.802-8.802-1.601-1.398-3.898-.698-5.601-1.198-6.101-2-13.101-2.5-17.101-8.602-1.301-2-3.5-3.101-5.699-3.898-15.7-5.802-29.5-15.2-44.102-23.102-12.898-7-22.601-17.3-31.698-28.398-2.9-3.602-6.302-6.899-9.5-10.302-1.602-1.698-3.302-3.3-3.7-5.8-.694-3.703 1.607-6.803 5.407-6.703zm621.5 46.6c10.5-3.3 20.802-7 30.602-12.101 6-3.199 6.8-5.199 4.5-10.101-2.602-5.7-6.802-8.2-11.899-5.899-11.2 5-23.101 8.5-32.601 16.899-2.802 2.5-4.7 4.899-3.102 8.5 1.399 3.3 4.5 3.5 8.399 3.5.901-.096 2.601-.298 4.101-.798zM1395 681c2.1 1.7 4.199 3.5 7.1 2s4.9-3.698 3.699-7.198c-1.699-5.2 0-9.802 1.701-14.5 1.699-4.5 1.5-9.102 1.397-13.7 0-3.899-1.198-7.699-5.397-8.5-4-.8-6.801 1.898-8.701 5.301-3.699 6.8-6.5 13.8-5.799 22.1-1 5.799 1.199 10.597 6 14.497zm264.3-32.3c-4.898-3.7-7.601-9.101-11.101-13.8-2.3-3.101-5.699-4.5-9.399-4.801-5.698-.3-8.398 2.601-6.601 7.801 3.5 10.1 8.101 19.5 20 22.6 6.101 1.602 8.899-.1 8.899-6.3-.098-2-.098-4.2-1.798-5.5zm-212.101 23.2c.5 4.3 4 6.899 8.398 6.699 4.302-.199 5.699-3.199 5.4-6.8-.5-6.399 2-12.399 1.899-18.7 0-4.699-3.603-8.199-8-8.5-3.802-.3-7.103 2.601-7.603 7.5-.397 3.301-.1 6.601-.1 9.9-.093 3.303-.393 6.601.006 9.901zm252.901-32.5c-2.5-4.9-5.8-9.5-9.198-13.9-1.802-2.198-4.802-3.898-7.899-2-2.7 1.7-4.301 4.4-3.5 7.5 1.1 4.5 2.6 8.802 4.199 13.102 1.301 3.2 4.301 3.801 7.398 3.7 6.199.198 11.099-4.202 9-8.402zm-112 23.7c-1.898-5.601-4.5-11.101-6.5-16.699-1.198-3.2-4.5-5.2-8.198-3.7-3.2 1.2-4.399 4.2-3.7 7.399 1.2 5.2 2.7 10.301 4.4 15.399 1 3.199 3.6 4.601 6.801 4.5 5.597.101 8.697-2.599 7.197-6.899z"/><path fill="none" stroke="#000" stroke-miterlimit="10" stroke-width="6" d="M1657 506c9.3 13.802 91.699 136.9 98 198.302 5.3 52.3-25.301 110.8-25.301 110.8l-22.4 45.2s-.199 1.698-8.199-7.602-6-19.3-6-19.3c-2.698-26.7 32.699-45.301 25.302-88 1.3 44-34.103 88.899-44.2 106.5-10.1 17.6-55.8 70.1-76.399 72.899.7-22.602-33.398-91.2-44.8-112.7-11.402-21.5-51.2-60.699-53.2-98-2-37.3 7.801-97.6 20-136-12-2.699-22.699 130-22.699 130-2.199 9.301-96.801 211.601-102.801 223.601s-69.199 83.102-69.199 83.102c-3.301 4.7-39.301 33.5-39.301 33.5s1.899-16.802 2.602-28.2c.698-11.399-1.302-22.8 5.3-110.699 8.7-147.301 61.399-245.2 61.399-245.2-42.101 78.602-56.899 175.899-61.198 223.102-4.301 47.202-6.302 125.101-6.302 125.101l-4.601 37.699s1.9-1.199 9.601-6.699c7.699-5.5 37.399-32.301 37.399-32.301s1 98.001 12.601 131.399C1375.699 1206.1 1461.5 1244.1 1461.5 1244.1s-64.5 26.5-89 16c-59-20.5-113.101-81.601-129.5-114.5s-41.101-164.8-44-204c-1.801 47 34.399 180.899 43.101 202.899C1281 1218.6 1367.699 1259 1367.699 1259s30.301 24.102 26.301 25.9c-19 3.8-112.7-18.2-113.5-17.9-.801.302 16 40.5 4 33.5-28-21-88.101-77.3-88.101-77.3s-31.032-50.163-42.603-70.5c-11.299-19.866-5.299 5.8-5.299 5.8s4.899 17.602 10.399 26.9 24.3 40.8 24.3 40.8l18.967 39.968s-104.666-82.917-105.666-83.917-16.029-25.964-16.029-25.964-12.163-41.684-24.271-54.387c-4.902-5.146-9.602-7.699-9.602-7.699l14.9 56.899s25.434 71 17.332 61.398c-8.101-9.601-67.566-50.066-86.666-143.667-4.315-21.15-4.565-20.333-7.668-17.133-12.406 16.541-19.164 51.928-19.164 51.928-25.602-58-1.83-181.627 35.465-217.526 10.87-10.463 34.102-38.2 20.199-28.8-14.1 18-108.699 62.699-86 40.199 22.7-22.5 53.2-76.899 81.301-168.602 28.102-91.699 52.602-144.398 172.199-242.1C1308.101 389.1 1480.699 391 1480.699 391c21.7-80-12.3-126.698-12.3-126.698s69 15.698 78.2 128.198c0 0 173.301 21.5 260.699 169.602 48.801 93.2 43.418 85.052 60.199 113.5 10.014 16.975 33.801 36.101 33.801 36.101s-33.199 4.102-44.5-7.101c-11.301-11.199-75.699-106.5-78.199-105.1-2.5 1.398 78.898 106.5 78.898 106.5s24.2 100.3 37.602 154.698c13.398 54.4 9.301 129-6.399 180.4-15.7 51.397-5.899 66.899-6 77.899s3.8 81-58.601 106.698c-13.102 11.802 9.699-26 9.699-26L1782.9 1213.3l7.1-21.7-21.101-3.7s34.399-62.601 41.399-93c7-30.398 13.699-70.398 5.199-91.398 1-48.5 11.1-60.5 12.301-67.7 1.199-7.199 37.131-75.126 46.699-87.3 8.966-11.407-41.042 73.986-56 98-12.717 20.416-44.5 33-44.5 35.5s24-97.5 25-127 7.5-33.5-27.8-145.102C1758 679 1730 626 1730 626l-73-120z"/></svg>