<svg xmlns="http://www.w3.org/2000/svg" id="hair" viewBox="0 0 3000 3000"><path id="cl1" fill="#212121" d="M1226.495 482.8c2.568-2.1 5.038-4.3 7.705-6.1 58.677-40.8 123.975-64 193.816-75.1 40.6-6.4 81.497-7.9 121.999-2 60.455 8.8 117.75 27.7 169.81 61.3 30.13 19.399 58.086 41.399 83.178 67.1 46.429 47.5 80.113 103 99.772 166.8 16.892 54.6 22.424 110.6 17.386 167.9-4.643 52.3-17.484 102.3-36.649 150.8-4.247 10.8-9.681 21.2-14.422 31.8-2.865 6.3-7.311 9.9-14.226 10.7-8.199 1-16.299 2.6-24.399 3.6-6.52.8-7.804-.5-6.915-7 1.581-11.5 3.853-23 6.816-34.3 5.235-19.7 11.952-38.8 20.35-57.3.691-1.5 1.481-3 1.976-4.601 1.976-6.199.889-8.5-4.939-10.899-1.186-.5-2.568-.7-3.853-1.101-4.742-1.3-5.433-4.3-3.358-8.399 1.777-3.601 3.655-7.101 5.433-10.601 6.224-11.8 12.546-23.5 18.571-35.3 4.545-8.8 4.248-11.2-2.271-18.7-16.102-18.6-13.83-14.199-6.52-34.8 5.729-16 11.854-31.8 17.583-47.8 1.383-3.9 4.248-8.4.593-12.2-3.556-3.8-8.101-1.3-12.15-.2-9.582 2.601-18.967 5.5-28.549 8.101-11.854 3.3-13.73 1.8-14.026-11.101-.298-14-.198-28-.494-42-.1-5-.396-10-1.384-14.899-1.481-7.101-5.335-8.8-11.458-4.8-7.409 4.899-14.522 10.399-21.733 15.6-4.544 3.3-8.989 6.7-13.731 9.7-4.841 3-7.408 1.8-8.101-4-1.186-10.601-1.679-21.2-2.667-31.9-1.284-14.6-2.666-29.2-4.05-43.8-.396-3.7-.691-7.6-4.841-9.1-4.05-1.5-6.915 1.3-9.385 4-3.654 3.899-7.211 7.8-10.471 12-14.422 18.6-28.647 37.399-42.082 56.699-1.778 2.5-2.963 7-6.915 6-3.063-.8-2.667-5-3.358-7.899-3.458-15.3-6.718-30.601-10.175-45.8-.594-2.601-1.186-5.2-2.174-7.7-2.47-6.3-6.322-7.601-11.458-3.3-6.817 5.699-13.336 11.899-19.758 18.1-17.287 16.4-34.476 33-51.665 49.5-.69.7-1.382 1.4-2.172 2-4.545 3.6-6.026 3.3-8.891-2.2-1.384-2.6-2.47-5.399-3.557-8.2-12.249-30.199-25.881-59.8-39.316-89.5-1.877-4.1-3.063-9.5-8.989-9.3-5.73.2-6.816 5.601-8.693 9.7-14.719 31.3-29.338 62.6-44.058 93.9-.592 1.199-1.086 2.5-1.679 3.6-2.964 5.3-4.939 5.6-8.495.6-6.619-9.199-12.744-18.6-19.263-27.899-12.842-18.5-25.782-37.101-38.724-55.5-2.766-4-5.235-9.4-11.261-7.9-6.225 1.5-5.434 7.601-5.927 12.4-3.261 34.8-6.421 69.7-9.583 104.5-.198 1.7-.198 3.3-.494 5-.988 5.3-2.667 6.3-7.409 4.6-2.469-.899-4.741-2.2-7.112-3.399-34.199-10.87-20.287-1.792-56.542-19.993-3.853-1.899-16.052-4.977-20.103-5.977-5.531-1.399-8.874 3.069-7.787 8.77.592 3.2 7.753 12.2 9.136 15.2 11.458 25.8 33.284 55.315 44.742 81.215 5.137 11.5 3.371 16.835-8.878 16.835-8.891 0-51.617 6.742-60.31 4.242-7.311-3.399-37.471-63.292-41.126-70.093-23.808-44.199-39.218-90.5-39.02-141.699.099-36.2 1.58-72 13.73-106.4 8.199-22.402 16.793-44.802 34.97-61.502z"/><path id="sd1" fill="#151515" d="M1226.495 482.8c-18.967 33.4-34.97 67.9-40.107 106.7-4.445 33.5-5.729 67.2-.296 100.5 6.025 37.4 18.868 72.7 38.625 105.2 2.767 4.5 4.658 9.566 7.804 13.899 9.73 13.4 36.394 46.7 37.48 51.4.791 3.2-11.933-1.211-10.747 1.989-20 2.25-17.847.597-20.648 4.994 3.853 10.5 4.993 16.574 12.645 33.267 1.25 18.656 12.582 30.687 16.928 48.687 3.753 15.5-28.63 5.729-25.074 21.329.691 2.8 13.176 63.46 11.892 66.56-2.766 1.8-32.224-24.862-33.805-26.262-14.916-13.6-21.714-20.636-36.334-34.436-6.323-5.9-15.493-21.924-24.384-21.823-3.951.1-33.53-7.786-37.482-8.186-19.362-1.899-15.54-9.265-30.259 3.634-.494.4-9.671 11.05-10.166 11.55-8.891 10.5-4.138 1.883-6.317 15.698-5 13.5-5.704 19.133-6.395 24.034-2.074 15.5-2.459 17.076 3.369 31.475 5.433 13.5 12.492 24.616 20.297 37.016 15.508 24.801 33.374 39.679 57.28 55.278 23.214 15.2 9.689 16.876 36.954 14.276 2.963-.3 13.112-5.678 15.976-5.579 2.767.1 53.025 36.65 53.519 39.75.494 3.5-4.263 8.942-6.831 9.642-1.877.5-32.694-.188-34.669.011-25.387 3.601-39.937-1.949-61.986-5.745-8.2 1.3-12.894-12.108-17.933-18.408-45.737-56.699-84.977-110.05-97.423-182.15-7.606-43.6-7.311-87.5-2.173-131.399.988-8.601 2.075-17.2 3.063-25.8 2.074-17.9 6.124-35.4 10.767-52.801 6.619-24.8 12.744-49.6 22.128-73.5 18.67-47.899 41.588-93.399 73.101-134.3 21.041-27.3 46.429-49.8 72.903-71.2 2.469-2.1 5.531-3.6 8.298-5.3z"/><path fill="none" stroke="#000" stroke-miterlimit="10" stroke-width="6" d="M1770.798 498.1c109.75 83.5 138.101 217.801 144.522 247.9 11.261 53.3 3.062 109.6 2.567 138.2-.494 28.6-27.066 110-30.722 119.899-3.655 9.9-18.275 46.7-26.178 50.001-7.902 3.3-38.526 12.699-37.538 2.8-3.063-16 29.24-100.601 30.129-105.3.889-4.7-18.967-1-13.829-13.301 5.137-12.3 24.992-48.199 27.758-54.699s-21.238-23.301-17.09-30.9c4.149-7.6 26.771-67.7 23.709-76.1-3.063-8.4-55.222 12.699-53.048 7.1 2.173-5.6-1.481-71.4-7.014-73.5s-48.108 33-49.194 28.1c-1.087-4.899-5.927-88.399-13.83-89.899-7.902-1.5-60.654 70.7-60.654 70.7l-10.174 6.5s-9.682-43.801-13.04-57.9c-3.359-14.101-12.15-5.3-12.15-5.3s-55.122 45.2-66.088 62.5c-10.964 17.3-17.287 2.899-17.287 2.899s-36.847-84.399-43.563-99.399-16.793 5.6-16.793 5.6-37.144 74-42.478 90.7c-5.335 16.7-11.064 6-11.064 6s-46.824-71.3-59.369-85.5c-12.546-14.2-15.905 8.5-15.905 8.5s-9.285 66-8.792 95.3c.494 29.3-21.85 13.167-21.85 13.167s-47.071-19.067-63.667-24.667c-16.595-5.6-12.94 8.9-12.94 8.9s39.631 76.799 46.94 87.1c20.333 28.667-3.333 26-3.333 26s-54.603 4.167-70.408 2.667-7.903 13.7-7.903 13.7 21.633 57.6 23.215 61.9c10.668 20.199-.494 19.399-.494 19.399s-5.236 2.2-13.929 5.5-5.927 13.9-5.927 13.9 5.829 24.399 8.99 37.899c3.16 13.5 4.445 24.7.79 24.7s-83.091-76.775-89.216-82.575c-6.125-5.8-17.705-9.241-34.201-9.342-50.578-5.899-51.627 18.551-53.8 23.852-2.173 5.3-6.541 21.898-6.541 21.898l1.354 25.908c10.487 48.592 31.672 58.411 43.23 75.911 60.555 74.5 84.868 41.473 89.018 41.173 4.149-.301 61.339 34.008 53.239 44.508-11.954 12.399-106.61-3.506-106.61-3.506-163.687-170.7-117.751-458.993-25.585-588.493 82.288-122.5 162.501-143.1 162.501-143.1-17.189 6.9 244.294-143.1 484.242 52.7z"/></svg>