<svg xmlns="http://www.w3.org/2000/svg" id="hair" viewBox="0 0 3000 3000"><path id="cl1" fill="#B2D2FB" d="M1330.3 1303.2c-6.899 11-13.8 21.899-20.899 33.199-11.801-10-21.801-20.699-32.301-30.899-8.8-8.601-11.3-8.5-18.699 1.3-1.2 1.6-2.301 3.1-3.5 4.7-3.5-2.101-4-5.601-5.301-8.601-11.1-24.899-22.1-49.899-33.2-74.899-1.7-3.8-2.5-9.2-8.4-7.8-5.4 1.3-5.1 6.399-5.2 10.699-.1 12-.2 24 1.4 35.9.8 2.2 1.6 4.3-2.2 4-19.9-26.2-42-50.7-63.3-75.8-7.9-9.3-17.5-17.5-19.9-30.4-.5-2.399-2.7-3.8-5.399-3.5-2.2.2-3.7 1.601-4.2 3.7-1 4.2-1.7 8.5-1.2 12.9.9 8.899 1.9 17.899 2.9 26.8.3 3.2.699 6.399 1.1 9.899-3.7-.6-4.7-3.399-6.2-5.3-51.1-66.6-84.399-141.1-100.1-223.6-4.4-23.2-7.7-46.601-8.2-70.3-1.7-16-.899-31.5 6.7-46.301 5.6-10.899 10.1-22.3 14.4-33.8 1.399-3.8 3.3-7.2 6.3-9.899.6-.601 1.9-1 2-1.601.1-.899-.3-1.1-.2-.399.101.6-.3 1-1 1.199-18.899 14-36.6 29.5-52.5 46.801-7.399 8.1-13.6 17.1-20.899 25.199-1.5 1.7-3.7 3.7-6 2.5-2.5-1.3-1.9-3.8-.7-6 2.7-12.399 8.2-23.699 14.399-34.699 10.601-18.801 22.5-36.801 35.4-54 5.9-7.9 10.3-16 11.7-25.801.5-3.199 1.8-6.3 2.8-9.5 6.6-16.8 21.5-26.899 33-39.6 15.8-17.5 30.5-36.3 49.5-51-41.1 15.5-76.2 40.3-109.8 67.7-12.7 10.3-24.3 21.8-36.601 32.5-3.199 2.8-6 6.5-11.1 5.399-1.9-1.3-2.7-2.8-1.1-4.899 12-19.2 27-36.2 41.899-53.101 20.4-23.199 41.9-45.399 64.3-66.699 6.301-6 11.9-12.4 16.101-20.101 4.399-3.899 9.7-5.6 15.3-6.899 19.1-4.5 38.4-7.9 57.5-13.801-44.3-7.5-87.7-17.399-130.1-31.5-8.601-2.8-16.7-6.6-24.8-10.5-3-1.399-6.2-3-7.7-6.1-1.9-3.9 0-4.8 3.6-3.7 14.7 2.601 29.3 5.9 44.3 7.101 26.4 2 52.5.199 78.5-4.7 6.2-1.2 9.8-4.9 13.4-9.5 49.8-64 111.3-113.3 185.399-146.6 73.9-33.2 151.301-46.5 231.801-38.1 138.899 14.4 248.8 80.5 333.899 189.9 1 1.3 1.7 2.8 2.5 4.199-3.6 5.2-8.199 3.4-12.399 1.2-13.101-6.899-28.4-9.7-38.7-21.7-3-3.5-7.7-3.8-12.1-3.3-22.9 3.101-45.601 2.4-68.5-1.6-13-2.3-26.601-2.2-39.5 2.399-2.7 1-6.7 1.601-6.301 5.2.4 3.601 4.301 3.601 7.301 3.7 7.3.4 14.699.3 22 .2 8.8-.1 17.199 1.3 25.199 5.3 2.101 1 4.2 2.6 6.5 2.3 21.7-2.8 40.4 10 61.4 11.3 9.1.601 16.5 6.9 24.6 10.7 11.4 5.2 22 8.5 30.601-4.5 1.3-1.899 3.699-2.8 6.1-3.2 19 28.2 44.7 50.9 64.9 78.2 27.5 37.2 50.399 76.7 66.899 119.9.9 2.5 1.601 5.1 2.4 7.6-1.8 4.9-4.2 1.8-6.1.2-7.801-6.4-14.2-14-20.7-21.6-14.4-16.9-28.1-34.4-43.4-51.4-1.199 6-.199 11.2.801 16.4 3.8 19.3 9.399 38.2 16.199 56.6 4.9 13.1 9.101 26.4 12.601 39.9 3.6 24.1 4.699 48.399 4 72.7-1.801 69.699-15.7 136.699-43.4 200.8-12.2 28.199-27.2 54.8-43.3 80.899-11.7 18.9-21.7 39-32.4 58.5-1.5 2.801-2.5 6.101-5.3 8.101-1.5-1.5-1.4-3.2-1.7-4.801-5.5-12.199-4.8-23.699 3.8-34.5 8.5-10.699 15.7-22.199 24-33 16.801-22 20.9-46.3 13.5-72.5-2.8-10-1.699-18.699 3.601-27.6 13.8-23.1 24.6-47.8 36.6-71.9 2.5-4.1 5.1-8.1 6.4-12-1.301 3-2.9 6.601-5.2 9.801-11 19.6-25.9 36.3-38.8 54.5-2 2.899-5.101 6.8-8.9 4.699-4.4-2.399-2.1-7.199-1-10.8 8.8-29.7 17.3-59.5 25.3-89.5 6.2-23.1 7.2-46 .4-69-1.6-5.5-9.6-11.1-9.6-16.7 1-5.899 10.1-24 5.199-25.899-3.3-2.7-4-8.101-4.3-12.3-3.4-44.7-17.3-87-30.1-129.5-3.2-10.801-5.9-21.7-9.7-32.2-1.9-6.5-4.7-12.7-6.5-19.3-.6-1.2-2.1-2.301-.7-3.9-1.699 2.2.801 3.4 1.301 5 1.199 7 4.899 13.2 6.399 20.1 13 37.301 19.2 75.7 20.8 115.101 2.301 54.7-6.8 107.2-25.899 158.3-3.5 9.2-9 17-14 25.1-9.601 12.301-21.3 22.601-32.101 33.7-3.699.2-3.3-1.899-2.3-4.3 4-20.6 2.4-41.2.2-61.8-.4-17.7 5.2-34.7 6.8-52.2 1.2-12.5 2.9-25 3.2-37.7 1-40.2-.2-80.3-2-120.399-.3-6-2.5-11.7-2-17.801.4-9.5-3.1-18.699-3.1-27.699 1.699 12.399 3 25.3 4.199 38.199 3.2 31.4 2.7 62.801-.3 94.2-2.2 23.4-4.3 46.9-6.7 70.3-.6 5.301-1.699 10.5-2.399 15.7-.4 3.101-1.101 6.8-5.5 7.101-2.4-6.2-4.7-12.4-7.101-18.601-3.899-10.3-8.699-20.1-15.399-28.899-8.801-13.601-12.5-29.301-17.801-44.301-18-50.8-35.899-101.699-51.8-153.199-3.7-12.5-7.6-24.9-11.5-37.4-1.4-4.9-3.4-9.6-4.1-14.6.199-.801-1.9-.801-.601-1.9-.8 1.3 1 1.9.9 3 .6 5.2 2.6 9.9 4.1 14.9 4.5 13.1 7.801 26.6 12.7 39.6 18.5 57.9 34.3 116.6 50.4 175.2 2.5 9.3 5.8 18.5 1.899 28.2-3.199 9.3-7.3 18.3-12.1 28.399-12.5-22.2-24.3-43.2-36.1-64.2-6.4-2.5-8.301-8.199-10-14-13.9-47.5-29-94.6-40.801-142.699-.199-.9-.699-1.801-1-2.801-.199-1.5-.699-3-1.5-4.3-.5-1.399-.5-2.899-.6-4.399-2-7-3.7-14.101-5.9-21.101-1.199-7.399-4-14.3-5-19.7 1.9 6.5 3.7 15.2 6.4 23.7 2.2 8 4 16.101 6.3 24 14.101 51.601 26.2 103.601 37.301 155.9 1.3 6 1.1 11.899-.801 17.7-2.199 4.399-4.5 8.8-6.699 13.199-3.5-.899-3.101-3.6-3.7-5.6-13.9-53.8-27.5-107.7-41.9-161.4-10.399-39-25.5-76.399-40.3-113.8-2.9-7.399-7.7-13.899-12.9-20-3.5 2.4-2.8 5.601-2.199 8.4 4.899 22.399 4 45.1 2.6 67.7-4 64.3-13.4 127.8-26.2 190.8-2.5 12.399-5 24.8-7.6 37.6-2.8-1.1-2.8-3.399-3.2-5.399-1.1-5.5-2.3-11.101-3.3-16.601-.7-4-2.5-6.8-6.9-7.3-4.5-2.8-5.7-7.3-5.8-12-.7-18.2-2.7-36.3-4-54.4-1.6-20.699-2.2-41.5-2.2-62.3.4-9-.399-17.899-.8-23.2.9 5.301 1 14.301.8 23.2 1.9 52.601-4.2 104.7-8.2 156.9-.6 8.3-4.1 16-5.6 24.2-.9 7.6-4.7 11.1-12.7 12.3-19 2.899-37.8 6.8-56.6 10.7-5.5 1.1-9 .699-12.101-4.801-5.3-9.5-12.1-18.199-17-28-35.6-66.199-63.199-135.6-83.699-207.899-1.601-7.9-4-15.601-5.601-23.5-.899-4.8-2.1-9.601-3.3-14.3.5 3 1.6 5.899 2.2 8.899.5 2.601.899 5.2 1.7 7.7 2.199 9.1 4.1 18.2 6.899 27.1 14.7 54.2 27.7 108.9 48 161.4 3.8 9.9.8 20.3.5 30.5-.1 10-1.1 19.9-2.5 29.8-.6 1.3-1.3 1.4-2.1.2-9-27.1-17.2-54.5-25.7-81.8-16.8-54.4-29.4-109.9-44.2-164.8-1-3.5-1.8-7.101-2.899-10.601-.7-2.399-2.4-4.1-5-4.2-2.7-.1-4.4 1.7-5.301 3.9-1.6 3.7-2.399 7.6-2.6 11.6-1.3 22.301-.9 44.601.8 66.9 4.2 55.8 12.301 111.2 21.4 166.4 3.4 20.699 7.3 41.3 11 61.899.6 3.2 1.6 6.4.8 11.2-5.399-4.9-10.199-9.2-14.199-14.4-37.5-53.199-59.2-112.6-69.801-176.399-.8-4.601-2.6-9-2-13.7.4-3.5-1.1-6.9-1-9.7 1.7 7.2.101 15.5 3 23.3 4.101 28.601 8.801 57.101 12.5 85.7 3.2 24.7 6.101 49.5 6.4 74.4.1 4.399.8 8.6 1.9 12.7.6 6.699-.5 13.5.8 20.1.2 1.1.3 2.1.3 3.2.1 4.3.1 8.6 0 13 0 1.8 1.2 4.3-1.1 5.399-2.4 1.2-4.601-.199-6.2-2-4.8-5.5-9.5-11-13.4-17.3-23.3-37.399-37.6-78.399-48.2-120.8-5.6-22.4-10.199-45.1-12.699-62.8 5 30.4 12.1 65.6 23 99.9 7.5 23.5 15.6 46.699 26.699 68.8 3.801 7.5 6.265 15.267 2.366 19.967-5.9.3-10.465-3.867-10.366 1.533.101 10.1 15.499 77.84 15.499 88.739-3.899-1.5-27.468-44.667-29.568-47.467-22.601-29.3-29.73-80.673-44.73-113.873-5.3-11.8-8.399-24.399-12.7-36.6-2.1-8-4.5-15.9-6.699-22.2 1 1 1.1 3.9 2.1 6.5 2.2 5.9 3.3 12.101 5.6 18 10.801 31.3 19.601 63.2 31.301 94.2 1.6 4.3 3.899 8.6 1.5 13.4-3.101 2.899-4 6.1-3.2 10.5 2 10.899 5.333 21.1 6.932 32.1.5 3.101 20.845 60.995 15.246 62.394-15.4-25.3-54.527-93.437-69.527-118.937-4.5-7.7-9.65-26.057-11.95-34.757-11.301-41.9-23.2-153.3-30.101-147.6-2.199 25.8-9.399 50.8-11.199 76.6-1.801 24.7 1.199 49 6.6 73.1 1.2 5.4 8.323 27.1 3.724 32.2-10.124 7.425-15.625 27.125-16.57 36.886-4.699 23.699 1.834 30.654 7.935 53.754 2.5 9.7 8.219 19.131 15.719 26.332 2.3 2.3 23.991 26.378 25.791 29.278 7.791 7.058 2.65 7.675 26.75 21.875 1.4.801-5.648 20.775-4.249 21.675 4.5 3.6 7.801 8.1 10.101 13.4 8.399 18.6 21.199 34.6 30.8 52.399-.5-.8-1-1.6-1.3-2.399-2.101-7.9-1.4-15.9-.801-23.801.2-3.399 1.5-6.699 5.301-7.699 3.3-.9 5.8 1.199 7.899 3.399 5 5.301 9.7 11 13.801 17.101 24.399 36.899 56.199 67.5 85.899 99.899 6.2 6.801 7.301 6.5 12.4-1.5 2.7-4.199 5-10 11.2-7.199 6.3 3.209 14.7 5.209 13 15.309z"/><path id="sd1" fill="#7C81CD" d="M1888.9 863c9.8 25.8 20.1 59.7 13.399 86.9-8 32.3-17.399 64.199-26.899 96-.9 3.1-2.601 6-2.2 10.3 5.1-4.4 7.899-9.7 11.5-14.4 11.8-15.699 23.5-31.399 35.2-47.1 3.6-.1 3.5 1.8 2.199 4.3-8.1 21.6-19 41.8-29.6 62.2-3.4 6.5-7 12.9-10.7 19.2-2.5 4.199-2.1 8.199-.6 12.5 2.8 8.199 3.899 16.8 4.8 25.399 2 20-4.6 37.5-15.9 53.301-9.5 13.3-18.399 27-29 39.399-2.3 2.7-3.199 5.7-3.199 9.2 0 6.3-.101 12.7-.2 19-7.3-4.4-8.4-4.3-13.8 2.5-15.4 19.2-30.7 38.5-46.101 57.8-2.899 3.601-5.8 7.101-9 11.101-4.1-3.601-5.699-8-8.1-11.9-5.3-8.8-9.1-9.4-15.9-1.7-14.8 16.7-29.399 33.601-44.1 50.4-2.1 2.399-3.9 5.3-6.7 6.6-.8-.5-1.199-.6-1.3-.8-4.3-16.9-4.4-17 8.6-28.9 14-12.8 28-25.6 43.101-37.199 19.899-15.301 37.199-33.301 53.899-51.801 23-25.5 34.5-55.699 33.9-90.199-.1-4.301-.2-8.601 1-12.9 1.5-4.9 1-9.8-.1-14.8-4.101-20.2-2.301-53.5-13.601-76.4.101-3.6 1.9-40.4 3.4-43.9 13.2-30.899 20.4-38.699 37.3-55.699C1872.6 914.9 1880.3 890.5 1888.9 863zm-543 439.8c.899 1 1.699 2 2.6 3 15.7 17.601 31.5 35.2 47.1 53 3.301 3.7 6.5 5.4 11.2 3.7 9.101-3.5 16.601-.9 23.8 5.3 3.2 2.7 6.101 7 11.5 6.9.601-11.1 7.525-25.1 7.525-35.7 0-5.5-9.635-9.874-14.335-12.273-43.2-22.3-70.277-42.326-111.177-68.726-21.112-18.125-69.97-49-95.569-87.8-2.6-4-23.62-35.181-28.52-34.78-3.3.3-19.413 2.385-22.613 1.785-16-3.1-29.691-16.326-44.591-23.126.432 44.171 33.682 77.522 49.182 98.921 3.7.3 3-1.8 2.2-4 0-8.6-.101-17.3 0-25.899 0-1.7.399-3.601 2-4.301 2.399-1.1 3.6 1 4.8 2.5 5.8 7.301 11.9 14.4 17 22.101 24.7 37.399 58.1 67.5 87.2 101.1 3.6 4.2 7 3.5 10.7-1.1 2.5-3.2 4-6.9 5.5-10.601.8-2 2.399-3.899 4.5-2.3 5.1 3.9 12.5 5.3 14.399 12.8 6.999-7.801 8.899-7.801 15.599-.501zm501.8-631.7c.2 1.301.3 2.7.7 3.9 8.699 31.5 14.699 63.6 17 96.1 1.8 25.2 1.8 50.5-.9 75.801-3.3 31.3-11.7 61.3-21.5 91-3.7 11.399-9.9 21.8-12.8 33.399 5.899-3.3 9.6-9 14.399-13.5 10.9-10.2 18.101-22.8 22.9-36.7 7.6-22.3 16.1-45.3 20.3-68.5.9-4.699-.8-5.8 5.101-6.6-.601-3.9-.5-10.9-.7-14.8-.8-16.601-4.101-32.8-7.7-49-8.5-38.601-21.1-75.9-34.8-113-1.7-.6-2.5-.1-2 1.9zM927.6 788.6c-3.5 4.2-6.399 8.601-7.399 15.4 3.5-2 5.8-3.3 8.1-4.7 19.601-12.5 39.2-25.1 58.8-37.5 5-3.2 10.301-6.2 15.7-8.6 5.9-2.601 9.8.7 9 7.1-.3 3-2.2 5.601-1.7 8.7 11-11.5 22-23.1 32.9-34.7 17.1-18.1 32.6-37.8 51.9-53.8 2.1-1.7 5.1-3.2 5.3-7-1.101 0-2.101-.2-3 0-5 1.7-10.101 3.3-15.101 5.3-29.8 12.2-56.399 29.9-82 49-22.699 16.9-43.3 36.4-64.1 55.4-3.7.4-5.2 4.2-8.4 5.4zm193.224 154.618c-.3-2.7.019-14.534-.382-15.734-7.1-24.3-11.766-48.211-16.067-73.11-4.699-27.2-14.675-53.673-16.675-81.274-3.3 5.2-3.601 11.301-5.101 17-10.899 41.4-14.3 83.101-5.199 125.4 1.699 7.8 5.185 33.267 5.285 41.267 11.1-3.2 26.339-13.649 38.139-13.549zM956.4 562.7c-2.101-.601-4.601-1.8-4.4 2.2 15.7 15 33.7 27.1 52.3 38.199 13.2 7.9 27.3 13.9 42.3 17.4 15.601 3.6 15.601 3.5 9.801 17.7-.101.3-.101.7-.101 1 28.9-3.5 75.601-16.2 84-23.3-5.3-.7-10.1-1.3-14.8-1.9-18.8-2.4-37.2-6.7-55.6-11.1-32-7.7-64.101-15-94-29.5-2.7-1.3-5.601-2.5-7.7-4.5-1.5-1.5 1.3-1.4 2-2.2-4.3-2.399-9-3.499-13.8-3.999zM1259 935.8c.8-6.1-1.5-12.399 1.3-18.399 4.8-8.4 7.101-8.9 14-2.7 2 1.8 3.8 3.7 5.8 5.399 8.7 7.601 16.2 16.5 25.7 23.101.3-2.2-.899-3.8-2-5.5-14.8-24.9-27.6-50.7-38.2-77.601-13.7-34.7-23.9-70.3-29.8-107.1-5.8 3.1-2 7.8-2 11.9 0 12.3 2.2 24.399 3.3 36.699 1.4 15.9 5 31.5 6.9 47.301 2.5 20.699 4.2 41.6 6.3 62.399 1 9.9.601 20 3.601 29.601 5.999 2.6 4.699-2.1 5.099-5.1zm-231-112.7c-5.3.301-9.2 3.4-13.3 6.101-19.4 13.1-35.2 30-50.5 47.5-5.9 6.7-11.101 13.899-17.4 21.8-.5-2.9-.8-4.1-1-5.4-4 9.8-7.8 31.601-6.899 39.101 1.5 0 2.199-1.301 3-2.301 9.8-11.3 19.5-22.699 29.399-34 4.4-5 8.9-9.899 13.9-14.399 4.8-4.4 9.8-2.5 10.8 3.899.4 2.601.1 5.301.1 8 .101 7.301-.8 14.601 1.5 21.801 1.301-4.2.5-8.601.4-12.801-.2-5.399.1-10.6 2.4-15.5 9.899-21 18.5-42.5 27.399-63.899l.201.098zm297.9-148c.699 3.601 1.3 7.2 2.1 10.801 9.9 44.8 21.8 89.1 37.3 132.399 5.601 15.8 13.4 31.3 11.101 48.9 2.1-5.3 1.5-11 2-16.5.199-2.5 1.5-4.4 3.8-5.2 2.7-1 5.2-.4 7.1 1.9 1.2 1.5 2.2 3.3 3.3 4.899 5.9 8.3 10.301 17.5 17.2 25.2.2-3.6-2-6.3-3.3-9.3-10.8-24.601-21.9-49.101-32.3-73.9-17.101-41.1-33-82.6-46.3-125.1-4.901.501-2.601 3.501-2.001 5.901zm476 43.9c.699 33.2-.601 66.2-3.4 99.3-2 23.4-4.3 46.8-6.9 70.2-.699 6.8-.3 13.9-3.399 20.4 2.6 10 5.2 20.1 7.8 30.1 1.6-1.4 1.8-3.5 2.3-5.4 6.9-27.399 10.7-55.3 11.8-83.5.9-24.5.301-49-.1-73.5-.1-3.6-.4-7.3-.7-10.899l-5.399-56.4c-5.202 2.399-2.502 6.299-2.002 9.699zm-106.1-51.8c.5 2.3.8 4.6 1.5 6.8 15.7 56.6 31.5 113.1 47.101 169.7 2.5 8.899 5.699 17.7 5.6 27.1.8-1.399 1.6-2.8 2.3-4.3 3.601-8.1 4.8-8.5 13.4-5.2.899-4.2-1.2-7.8-2.5-11.6-17.101-49.4-34.2-98.8-51.4-148.2-4.5-12.9-9.2-25.7-13.8-38.6-3.901-.1-3.101 2.1-2.201 4.3zm-184.4 213.9c5.199-12.5 10.199-25.1 15.399-37.6 1.5-3.7 2.7-7.6 7.3-8.7-.8-5.6-1.899-11.1-2.1-16.8-.5-12.9-1.3-25.8-2.3-38.7-1.9-24.8-3.9-49.5-5.9-74.3-1.2-1.3-2.399-1.3-3.7 0-.199 6.7-.1 13.3-.5 20-1.8 28.2-3.6 56.4-5.6 84.6-1 13.9-2.8 27.801-3.3 41.7-.4 12-3.5 23.7-2.4 35.8 1.901-1.5 2.201-3.9 3.101-6zm438-119.9c-.801-3.3-1.7-6.5-1.4-9.8.4-3.301 3.6-5.101 6.6-3.7 1.4.7 2.9 1.8 3.801 3.1 9.899 14 23.8 24.101 35.8 36 2.7 2.7 5.2 5.8 10.399 8.2-1.899-4.9-1.399-9-4.3-12.2-6.3 1-8-4.8-10.8-8.1-19.4-22.7-38.4-45.7-57.7-68.5-1.3-1.5-2.399-4.2-5.899-2.7.3 8.1 0 16.3 1.6 24.5 2.8 14.4 7.1 28.3 11.5 42.2 5.8 17.899 11.8 35.8 20.6 52.7-1.101-20.8-5.501-41.3-10.201-61.7zm-693.5 200c1.8-4.3 1.399-8.601.399-13-1.1.7.7-1.4.8 1-1.1 3.8 1.301 9-1.1 13.8v16.5c-2 .3-2.4-1.3-3.2-2.2-16.1-19.5-27.1-41.8-36.699-64.899-16-38.2-26.2-78.101-34.101-118.7-1.8-9.3-3-18.8-7.8-29.601-1.5 12.5.6 22.5 2.4 32.4 9.899 54.1 23 107.3 48.5 156.6 1 2-1.042 9.623-3.141 11.924 12.4 9.8 49.707 62.277 62.707 73.477 1.4-7.5-13.333-55.4-13.333-61.5-.1-18.601-9.833-41-11.034-59.6-3-.801-2.199 1.6-2.3 2.899-.1 4.601-.1 9.2-.1 13.8 0 3.101-.101 6.101-4 6.801.502 6.899-1.098 13.799 2.002 20.299zm392-288c7.199 31.7 14.399 63.5 21.5 95.2 5.899 26.199 12.6 52.3 16.899 78.899 1.4-2.1 3-4.2 4-6.5 2.3-5.3 6-7.3 11.601-5.8-4.301-5-5.4-11.3-7.2-17.3-14.4-48.2-28.7-96.5-43-144.7-.5-.8-1.2-1.5-1.5-2.3-.101-1.2-.3-2.3-.4-3.5-4.8.601-2.4 3.601-1.9 6.001zm-459.567 306.415c6.9 6.1 35.812 70.619 43.512 76.019-2-7.9-28.945-77.034-32.646-84.034-19-36.699-37.101-73.699-51.2-112.5-1.8-.5-2.7 0-2.1 2 9.399 36.801 19.6 73.301 34.5 108.301 4.001-.501 5.135 7.813 7.934 10.214z"/><path id="hl1" fill="#FFFDF9" d="M1866.1 577.1c-3 6.4-8.3 11-13.199 15.801-2.7 2.6-6.101 2.1-9.4 1-8.5-2.9-17.1-5.5-24.8-10.301-6.601-4-13.5-6.6-21.5-7-8.9-.5-18-2-25.601-7.199-4.199-2.9-8.899-2.5-13.5-2.4-9.199.1-18.399 1.4-26.8-4.9-3.8-2.899-9.3-3.2-14.399-3.1-8.301.1-16.601 0-25-.1-1.301 0-2.7 0-4-.101-7.2-.399-11.5-2.899-11.7-7.1-.3-6.2 4.8-7.3 9.1-8.9 14.8-5.399 30.2-4.6 45.4-3 8.2.9 16.5 1.7 24.5 4.5 1.899.7 4 .8 5.899 0 4.801-1.899 9.801-1.399 14.801-1.399 6.3 0 12.5.3 18.8-1.601 9.6-2.899 16.8 2.5 23 8.601 5 4.899 9.399 9.3 17.2 10.1 4.899.5 10.399 2.6 14.199 6.7 3.2 3.399 7 3.399 11 2.1 2.9 2.199 4.6 5.199 6 8.299zm-709.5 74.4c7.4-5 15-10.6 23.801-12 6.3-1.1 12.399-2.4 18.1-5.1 13.2-6.301 26.6-12.2 40.3-17.301 1.5-.6 3.101-1.3 4.3-2.3 2.601-2.2 3.301-4.899 1.4-8-2.6-4-5.7-5.8-10.9-4.1-28.699 9.7-58 17.5-86.1 28.8-8.6 3.5-16.8 8.1-25 12.5-3.4 1.8-5.8 5.1-4.1 9.2 1.699 3.9 3.699 8.1 9.1 7.7 10.299-1.499 20.199-3.499 29.099-9.399zm243.8-85.4c0 3.301-.2 6.7.1 9.9.3 3.1 1.5 5.7 4.8 6.9 7.8 3 15.101 6.8 21.101 12.8 2.899 2.899 5.6 2 8.6-.601 7.2-6.3 9.9-14.899 12.6-23.3 2.101-6.7-.3-8.7-7.5-7.899-7.899.8-9.5-.5-10-8.2-.1-1.3 0-2.7 0-4 0-5.4 0-11.2-5.6-13.9-5.5-2.6-10.4.601-14.8 3.5-5.9 3.9-8.7 9.9-9.4 16.8-.3 2.601 0 5.301 0 8h.099zm-49.1 4.2c-8.7 3.5-18.1 4.7-27 6.101-10.7 1.699-19.6 6.699-29.5 9.699-2.6.801-4.6 3-4.3 6.101.3 3.1 2.6 4.5 5.5 4.7 3.1.199 5.6 1.3 8.1 3.199 5.101 3.9 7 3.801 10.5-1.399 2.4-3.601 4.7-5.101 8.9-3.9 1.1.3 2.9 0 3.8-.8 7.601-6.7 17.5-7.8 26.601-10.6 3.399-1 6-2.801 7.8-5.801 1.2-2 2.399-4.1.7-6.5-1.301-1.8-3.301-2.1-6.2-2.1-1.101.3-3.101.5-4.901 1.3zm317.1-17.7c4.699-3.199 6.699-9.399 4.8-15-1.7-5-6-8.399-11.4-7.699-5.2.699-10.5 2.199-14.8 5.3-3.6 2.5-6.7 5.899-5.9 10.8.801 5 4.7 6.9 9.101 8 2.6.6 5.2 1 6.1 1.2 6.399-.001 9.299-.701 12.099-2.601zm-191.2 10.8c.1 4.3 4.3 7.6 9.8 7.5 6.8-.101 13-5.4 12.9-11-.101-4.801-2.7-6.9-8.7-7-8.3-.2-14 4.1-14 10.5zm104.5-26.2c-3.8.1-7.4 3.3-7.4 6.6 0 3.2 4.4 6.601 8.7 6.601 4.2.1 8.7-3.4 8.6-6.601-.2-3.2-5.4-6.7-9.9-6.6zm-33.4 13.8c-3.899.2-6.2 2.2-6.3 6.2-.1 3.5 3.5 7.3 6.8 7.399 3.4.101 7-3.699 6.8-7.199-.1-3.7-3.4-6.6-7.3-6.4zm-456.5 100.8c-3.7.101-6.899 3.5-6.5 7.101.5 3.699 3.9 6.5 7.7 5.899 3.5-.6 5.9-2.5 6.3-6-.3-3.6-4.2-7.1-7.5-7z"/><path fill="none" stroke="#000" stroke-miterlimit="10" stroke-width="6" d="M1772 476.3c29.3 13.3 84.8 93.3 104.5 114.9 88.1 70.4 127.3 203.4 127.3 203.4s-25.2-22.199-43.1-40.6c-17.9-18.4-10.5 11.2-10.5 11.2l3.3 15.1c34.4 155.7-18.8 279-27.6 302.601-8.8 23.6-66 145.6-86.7 161.199-5.2-16.899-15.5-2.399-15.5-2.399l-41.3 51.699-16.2 14.7s-7.8-6.1-8.9-13.899c-1.1-7.801-15.5 5.8-15.5 5.8l-25.899 29.6-22.101 24.2s-5.399-2.3-3.699-11.5-3.7-11.3 14.6-21.5c133-94.3 127.1-163.9 127.4-182.8.3-18.9 4.899-22-8.101-81s9-81 9-81c49.5-51.5 56.5-134 59-129.5 1 1.8-18.8 57.3-24.5 74.6-5.699 17.3-28.1 49.2-35.699 49.2-7.601 0-27.101 44-36 30.5 4.5-77.5-17.2-103.8-22-126.8-4.801-23-19.7-11.3-20.5-9.7-.801 1.6-14.7 38-15.4 34.8s-29.3-43.5-32.8-58.399c-3.5-14.9-10.601-5.2-10.601-5.2-3.899 6.399-16.5 40.8-17.5 23.1-4.399-24.3-53-215-84.3-272.399-10.7-33.301-14.4-23.301-12.2-7.7 2.2 15.6-4.899 119.8-8.3 147.1s-17.6 159.3-28.9 128.7c-11.3-30.6-16.6-10.8-18-7.4-1.399 3.4-8.699 34.7-17.899 44.101-9.2 9.399-76.101 22.6-79.101 16.6s-30.5-47.4-41.199-62.1C1376.4 830.8 1376 905 1373.8 897s-66.8-205-68.1-232.1c-1.3-27.101-17.7-46.801-19.9-7.801S1320 957.9 1320 957.9s-33.7-31.7-43-40.4-12.3-5.8-15.5-2 25.369 127.62 25.369 127.62c-3.766 1.415-61.27-83.521-68.169-79.12-3.2 3.6 21.633 92.433 13.8 93.5-8.483 1.155-47.5-93.3-52.3-88s26.066 113.367 21.967 108.667c-4.101-4.7-69.667-103.667-79.667-142.367-12.429-48.1-31.8-164.899-31.8-164.899s12.057 78.727 35.757 172.227c-77-6.5-60.614 86.935-36.676 122.742 27.386 40.964 87.386 86.298 109.585 67.992 54.399 82.2 192.634 183.264 248.378 196.807 4.031.979-2.545 51.132-5.645 44.033-3.1-7.101-24.8-13.601-27.5-13.4s-14.6 1.2-16.5 0-42.2-39.5-49.6-55.4c-7.4-15.899-18.2-2.6-18.2-2.6s-20.9 33.2-23.2 31.3c-2.3-1.899-26.199-25.1-35.6-33.699-9.4-8.601-16.6 10.8-16.6 10.8s-19.5-40.5-22.601-47.6c-3.1-7.101-15.3-47.801-24.3-43.601s-3.9 50.4-3.9 50.4-48.1-40.4-71-82c-22.899-41.601-23.699-23.8-23.699-23.8s0 24.399 2.8 49.6c-56.5-50.6-110.8-220.1-111.101-258.3-.3-38.2-8-76.101-8-76.101-1.5-1.399-30 25.5-54 52.2-3-45.5 26.801-83.399 54.301-128.2 27.5-44.8 14.399-51.6 14.399-51.6s-43.6 24-87.6 51.6c12.2-45 120.1-144.8 130-155.6 9.899-10.8 8-24.3 4.8-25.8-28.3-11.8-132.3-67.601-101.4-60.5 121 26.2 150.7 0 150.7 0 108.5-141.9 279.9-179.8 279.9-179.8C1622 340.3 1745.3 456.1 1772 476.3z"/></svg>