<svg xmlns="http://www.w3.org/2000/svg" id="hair" viewBox="0 0 3000 3000"><path id="cl1" fill="#3C322F" d="M1522.2 783.7c-28.9-26.7-57-54.101-83.5-83.2-3.4-3.7-6.7-7.4-10.2-11-1.8-1.8-4.1-2.4-6.4-1-2.3 1.5-2.3 4.1-1.399 6.3 1.2 3.101 2.899 6 4.5 8.9 22.6 38.6 37.5 80.2 47 123.7.7 3.199 1.8 6.399.8 10.399-3.2-.399-3.7-3.399-4.8-5.3-2.9-4.9-6.3-9.4-11.101-12.7-2.6-1.7-5.399-3.1-8.3-1.1-2.5 1.8-2.399 4.6-2 7.3 1.3 9.2 3.7 18.3 3.5 27.7 1 2.3 1.4 4.9-1.6 5.6-2.3.5-2.601-1.899-3.2-3.899-14.2-46.7-46.8-81.7-75.4-119.301-8.1-10.6-18-19.5-25.8-28.3 1.601 7.8 9.601 15.9 4.101 26.4 1.399 21.6 2.699 43.2 4.399 64.8 1.101 13.7 0 27.3-2.8 40.7-7.8 4.5-6.7-3.6-7.2-6.1-4.399-20.601-11.2-40.4-18.1-60.2-5.3-15-12-29.5-20.3-44.9-1.801 7.7 1 13.7.899 19.8-.1 5.5-1.3 9.7-7.1 11.4-6.2 10-6.601 21.4-8 32.6-2.8 23.5-2.3 47.101-2.4 70.601 0 3.5 1 7.199-1.399 11.399-6-6.6-8.101-14.5-9.801-22.3-1.199-5.2-1.699-10.5-1-15.8.801-5.8-.8-10.5-5.399-14.1-7-3.9-7.4-11.4-9.7-17.801-.9-2.6-1.2-6.6-5.1-6.3-3 .2-3.5 3.7-4.4 6.101-5.9 16.3-10.5 33-14.6 49.8-.5 2.3-.9 4.6-1.601 6.8-1.1 3.6-3 6.6-7 7.2-3.899.6-5.899-2.3-7.7-4.9-11.699-16.5-20.1-34.5-24.6-54.2-5.9-25.8-8.1-51.899-5.5-78.3.7-7.1-3-4.9-6.4-4.6-35.699 3.3-65.399-7-87.1-37.101-6.3-8.8-10.3-17.899-10.3-28.699-.2-3.5-.601-7.101 1.7-10.101 5.3-7.3 7.399-16.399 12.899-23.6 2.9-3.8 5.4-9.101 11.4-8 6.1 1.1 6.399 6.8 7.899 11.5.801 2.5.301 5.3 2.7 7.899 6.3-9.6 10.3-20.3 16.5-29.6 5.2-7.8 9.601-16.1 17-22 8.3-6.7 15-5.9 20.9 3.1 3.7 5.7 6.1 6.2 9.899.301 4.2-6.4 9.101-12.301 15.101-17.301 4.899-4.1 10.1-6.399 16.399-2.3 3.9 2.5 8.101 1.4 12.5 1 14.5-1.1 28.2-2.3 38.301-15.3 3.699-4.8 11.199-3.2 17-1 5.5 2.1 9.699.7 13.399-3.6 9.601-11.4 21.9-8 27.2 5 2 4.899 4.1 9.8 5.7 15 1.8-12.801 5.2-25.101 9.8-37.101 1.4-3.8 3-7.6 2.1-11.6-1.399-6-3.699-12.4-10-13.9-6.899-1.8-8 5.601-10.5 9.9-2.699 4.6-4.399 9.8-8.1 13.8-5.8 6.3-11.9 5.7-16.1-1.7-3.2-5.6-3.7-12-4.4-18-2.4 6-5.6 11.8-10.3 16.5-6.8 6.9-13.4 7.9-21.4 2.601-4.7-3.101-7.7-2.7-10.899 1.6-3.5 4.6-8.2 6.8-14 5.7-5.601-1.101-9.5 1.2-13.101 5.399-4.3 5.101-8.7 10.2-14.399 13.801-7.101 4.5-11.101 3.199-15.2-4.2-4.2-7.7-4.4-16.7-7.9-24.7-3.8-.3-4.1 3-5.3 5.1-7.1 11.801-15.6 22.4-26.4 31.101-4.6 3.7-9.8 8.1-16.199 4.2-6.601-4-5.7-10.601-4.2-16.9.7-2.7 1.5-5.2.5-8 24.899-31 55.399-55.6 89.3-75.9 54.7-32.8 114-52.6 177.1-61.7 73.601-10.7 146.101-7.1 217.601 13.6 57.399 16.6 108.899 44.6 155.899 81.1 5.301 4.101 10.4 8.301 15.601 12.5-1 9.7-7.5 13.7-16.101 9.101-6.399-3.4-12.1-5.8-19.699-3.5-5.601 1.7-9.5-3.2-13-7.3-9-10.5-9.2-10.5-20.9-3.5-4.7 2.899-9.1 2.1-12.6-1.7-4.7-5.101-8.801-4.8-13.4.2-3.9 4.199-8.9 4.1-13.9 2.399-5.6-1.899-9.399 0-12.8 4.7-7.3 10.1-10.7 10-18.5.2-.6-.8-1.1-1.7-1.7-2.5-1.699-2.4-3-5.9-6.5-5.3-4.1.699-4 4.899-4.899 8-1 3.5-.8 7.3-2.4 10.699-1.399 3-2.6 6.301-6.6 6.4-3.4.1-5.3-2.4-6.9-5-2.7-4.3-4-9.1-5.3-13.9-2.4-8.699-5.2-17.199-9-25.6-.2 20.6-2.3 41.3 2 61.8.5 2.3 1.2 4.5 2.6 6.4 1.801 2.5 3.801 5.1 7.2 4.3 3.3-.8 3-3.9 3.5-6.5 2.2-12.4 7.3-15 18.7-9.4 2.399 1.2 4.699 2.601 6.899 4 3.801 2.5 6.9 2.5 8.5-2.5 2.601-7.899 8.5-7.5 14.601-5.399 6.899 2.399 13 6.7 19.399 10.2 9.301 5.199 11.5 4.399 16-5.101 4-8.3 9.2-10.3 17.801-6.6 4 1.7 7.399 4.5 11.199 6.6 2.7 1.5 5.801 3.3 8.5 2.101 12-5.2 21.2 1 30.5 6.8 4.4 2.7 7.5 3 7.801-3.5.199-3.601.5-7.601 4.5-8.9 4-1.2 6.899 1.9 9.199 4.601 16.101 19.6 36.101 35.5 51.4 55.8 4.6 6.1 10.1 11.399 16.8 18-1.199-6.7-2.6-11.9-3.3-17.2-.5-3.6-2-8.4 4.3-9.1 10.301 13.199 18.2 27.8 25.301 42.8 22.6 47.7 31.5 97.899 26.8 150.399-1.101 12.601-3.5 25-8.3 36.8-16.801 41.2-40.5 77.7-73.601 107.801-7.1 1.399-5.399-2.7-4-6.5 5.3-14.601 10.3-29.4 14.5-44.4 10.2-36.9 14.4-74.2 6.9-112.2-.601-3.1-1.4-6.2-1.2-8.399-2.1 8.1.7 18.6-8 25.6v-.2c-.6.6-1.3 1.1-2 1.6-6.3 14.601-12.7 29.101-19 43.801-10.2 23.899-22.1 46.8-39.1 66.699-4.801.4-2.9-3.399-3-5.399-.7-18.8 1.1-37.601 1-56.5-.301-35.9-3.4-71.4-15.4-105.7-.4-1.2-.9-2.5-2.9-3.5-2.6 9.1-3.3 18.2-1.5 27.3 1.2 6.3-.199 11-6.199 13.9-5 13.5-6.301 27.8-8.101 41.899-2.5 19.101-5.5 38.101-14 55.801-6.3 7.5-6.5-.601-6.7-3.301-1.699-22.3-8.1-43.399-14.699-64.5-8.9-28.6-20.7-55.6-38.601-79.899-9.199-12.5-16.8-26-22.8-38.9-6.9 28.2-3.2 58-4.5 87.601-.2 3.5 1.2 10.1-6.6 6.8-4.301-9.7-8.301-19.601-13-29.101-8.2-17-19.4-31.699-33.4-44.3-3-2.7-6.3-7.7-10.9-4.5-5.199 3.601-.399 7.601 1.5 11.101 4.7 8.6 7.4 17.8 8.9 27.399 3.5 22 7.4 43.9 12.8 65.5.601 2.4 2.801 5.3-2 5.9-12.6-25.8-27.1-50.5-46-72.3-11.699-13.801-26.1-25.2-37.399-39.4-1.601-2.1-3.601-4.7-6.5-3.8-3.7 1-3 4.7-3.2 7.6-1.1 25.9 3.1 50.9 14 74.601 1.1 2.399 2.4 4.699 2.8 7.399.5 5.199-1.6 6.199-5.8 4.099z"/><path id="sd1" fill="#2D2623" d="M1086 660c5.4 10.7 10.8 21.3 18.5 30.7 14.4 17.7 32.6 27.6 55.5 29.7 11.8 1 23.2.8 34.6-2 1.801-.4 3.9-1.5 6.101.8-10.3 15.1-7.4 32.5-6.2 49.1 1.6 21.2 5 42.3 13.2 62.3 3.8 9.301 8.899 17.9 14.2 26.301 1.199 1.899 2.399 4.399 5.3 3.5 2.2-.7 2.399-3 2.899-4.9 4-17.2 8.801-34.2 14.601-50.8 2-5.601 4.2-11.2 6.5-16.7.899-2.1 1.7-4.8 4.7-4.4 2.199.3 2.899 2.5 3.699 4.3 4.9 11 8.4 22.4 10.2 34.4-4.5 1.5-6.7 5.3-8.6 9.2-11.601 24.8-21.4 50.3-27.801 76.9-3.699 15.399-1.8 31.199-.6 46.8.3 4.3.9 8.6 1.8 12.899 2 9.601 1 18.101-5.699 26.101-4.801 5.6-6.2 13.1-7.101 20.5-.399 3.2.5 6.7-2.1 9.899-3.4-.899-3.8-4.199-5.101-6.6-9.899-18.5-9.766-20-25.1-36.318-.8-1.5-16.866-17.63-17.666-19.13-9.271-5.19-13.372-14.226-32.572-13.125-11.3.6-23.658-5.278-34.958-4.878-8.6.3-8.205-8.648-10.004-17.148-7.5-35.5-16-70.801-18-107.301-1.8-33.3-3.7-66.5-.3-99.8 2.102-20.5 4.302-40.7 10.002-60.3zm567.9 151.2c2.399-3.9 2.1-6.3 1.899-8.5-2-19.9-1.6-39.9-2.399-59.8-.301-7.601-1-15.301-1.301-22.9-.1-3.4.301-6.9 4.2-8.2 3.5-1.1 5.4 1.7 7.5 3.8 15 15.101 25.9 32.801 33.5 52.601 8.3 21.8 15.3 44 20.9 66.6 2.7 11 4.899 22.1 7.399 33.1.4 1.9.5 4.301 2.801 4.9 3.1.7 3.699-2.1 4.699-4.1.4-.9.601-1.9.9-2.8-4-1.5-3.7-5.101-3.9-8.4-.399-5-.199-10-1.1-14.9-7.7-41.6-22.2-80.6-44.3-116.8-10.7-17.6-22.7-34.4-31.101-53.4-.699-1.5-1.5-3-3.6-2.699-1.7.899-2.1 2.5-2.5 4.1-3 11.9-5.8 23.9-5.6 36.4.199 16.3.1 32.6.1 48.899 0 5 .1 10-1.9 14.7C1643.6 786.2 1648.8 797.8 1653.9 811.2zm-106.2-5.1c.1-2.5.399-3.199.1-3.699a89.038 89.038 0 0 0-3-6.301c-10.7-21.3-17.7-43.6-18-67.699-.1-9.101 2.8-11.601 11.4-8 3.899 1.699 7.6 4 11.2 6.399 3 2 5.8 4.5 8.6 6.7-10.2-18.9-25.3-34-39.8-49.6-1.101-1.2-2.601-2.101-4-3-4.2-2.5-6-1.801-7.301 2.699-.5 1.9-.8 3.9-.899 5.9-1.5 28.5.699 56.5 13.199 82.8 1.7 3.601 3.7 7.2 2.801 11.4 7.6 8.301 16.2 15.101 25.7 22.401zm-187.5-68.4c1.5 2.2 2.899 4.5 4.3 6.8 8 13.2 17.2 25.3 29.3 35.1 6.5 5.2 12.101 11.4 18 17.301 11.3 11.3 19.2 24.699 24.5 39.6 5.3 14.8 9.3 29.9 11.8 45.4 1 1 .801 4.199 3.601 1.8-.101-10 1.3-20-1.5-29.9-4.8 0-4.3-4.4-5.4-7.1-7.399-17.4-15.3-34.601-25.7-50.601-5.1-7.8-10-15.699-14.899-23.6-16.8-27-38.101-50.2-60.9-72.1-1.5-1.4-3-3.9-6.5-1.601 2.2 12.2 7.4 23.7 11.4 35.5 5.198-2.799 8.998-.999 11.998 3.401zm408.2 42c8.199 28 12.8 56.399 11.6 85.6-.3 8.3-.1 16.601.2 24.9.1 3-1.2 7.1 3.8 7.899-3.6-13.1-2.6-26.5-1.2-39.699 2.8-25.601 4.4-51.101 1-76.7-2.899-21.9-6.899-43.5-16.8-63.4-1.2-2.399-1.8-5.899-6-6.2-.5 1.301-1.3 2.4-1.5 3.7-2.3 12.8-4.7 25.601-2.8 38.7.7 4.7.7 9.3-.7 13.9 9 .9 9.6 1.6 12.4 11.3zm-458.3-12.4a211.22 211.22 0 0 1 16.4 30.8c6.5 15 10.3 30.9 14.4 46.7.8 3.2.699 7.2 4.6 9.601 2.9-4.9 3.9-9.601 4.4-14.601-2.2-3.8-3.301-8-4.101-12.2-2.2-12.5-5.7-24.6-9.5-36.699-7.2-22.601-16.1-44.4-27.6-65.2-1.9-3.5-3.101-8-8.101-9.601-3.699 8.601-2.5 16.801-1.6 25 .7 6.301 1.5 12.601-.9 18.7 5.502-.1 9.102 3 12.002 7.5zm541 28.8c1.2 21.2 2.301 42.4-2.8 63.4-6 24.5-12.8 48.8-22.5 72.2-1.2 2.8-3.399 5.6-1.6 9.8 4.899-2.6 8.6-5.7 11.899-9.4-1.5-4.1.101-7.8 1.4-11.6 4.2-13 8.7-25.9 12.4-39 12.3-43.2 17.8-86.8 4.899-131-.6-2.1.101-4.8-4.1-6.3-3.101 14-6.2 27.8-6.5 42.1 4.402 1.7 6.702 5 6.902 9.8z"/><path id="hl1" fill="#827470" d="M1865.8 594.2c1.2 7.6 2.5 15.1 3.601 22.7.6 4.1 1.699 8.3.399 14.6-29.6-26.3-50.899-58.2-80.2-83.1-4.6 6.3 1.5 12.899-.5 18.899-4.3 1.4-6.5-1.7-9.199-3.399-5.7-3.5-11.2-7.301-16.9-10.7-4.5-2.7-9.1-4.2-13.3 1.1-3 3.9-6.601 2-9.8 0-5.101-3.2-9.9-6.8-15.2-9.7-8.8-4.899-11.9-3.3-13.7 6.301-2.7 14.399-4.6 15.199-17.1 7.699-7.101-4.3-14.2-8.6-21.5-12.699-2.601-1.4-5.601-3.101-8.5-1.2-3 2-1.9 5.3-1.5 8.3.399 3.1 3.199 7-.4 9.1-3.2 1.8-6-1.899-8.7-3.6-5.3-3.5-10.199-7.5-15.8-10.5-5.9-3.3-8.8-1.4-8.8 5.4 0 4 .899 7.899 1 11.899.1 4.4-1.9 5.9-6.3 5.101-9-1.5-18.5-10.9-19.7-20.2-2.9-22.5-3.101-45.2-2.101-67.9.2-4.3-.399-11 5.301-11.3 4.1-.2 3.899 6.2 5.1 9.8 3.9 12 7.6 24.101 11.5 36.2 1 3.1 1.6 6.4 4.6 8.5 3.9-2.2 3.301-5.9 3.801-9 1-6.2 1.699-12.6 4.5-18.4 2.899-6.1 6.399-6.5 10.199-1.1 3.301 4.6 5.801 9.7 8.7 14.6 1.2 2 2.5 4.301 5.101 4.4 3.5 0 3.8-3.2 4.899-5.5.8-1.8 1.3-3.8 2.2-5.6 2.8-5.301 6.3-6.4 11.5-4 1.2.6 2.2 1.5 3.4 2.1 6.6 3.8 8.199 3.5 12-2.8l.899-1.8c5.7-10.301 7.7-10.301 14.601-.2.899 1.399 1.8 2.8 2.8 4.1 2.399 3 4.8 3.5 7.1-.1 2.3-3.601 3.9-8.2 9.101-8.3 6.1-.101 9.399 4.5 12.899 8.399 2.7 3 5 6.2 7.7 9.2 2.3 2.5 5.2 3.5 7.6.1 3.5-4.899 7.2-3.6 11-.6 1 .8 2 1.7 3.101 2.5 9.8 7.8 10.3 7.8 20.399 0 25.801 21.1 49 44.7 68.5 71.8 2.299 3.2 3.899 6.1 5.699 8.9zm-776.2 47.6c-.699 1.4-.5 3.101-1.3 4.4l-.6 3.6c3.2-.2 4.3-2.8 5.8-5 3.3-4.6 6.4-9.3 9.8-13.8 2.2-2.8 4-7.7 7.8-6.8 4.4 1.1 3.4 6.6 4.2 10.399 1 4.5 1.3 9.2 2.4 13.801.899 3.6 3.3 4 5.5.899 1.8-2.399 3.1-5.1 4.399-7.8 6.101-12.6 12.101-25.2 19.801-36.9 3.5-5.3 7-10.6 12.1-14.5 6-4.699 10.3-3.8 13.7 2.801 1.5 2.899 2.2 6.3 3.5 9.3.8 2 .6 4.8 3.8 5.399 4.2-2.1 5.5-6.5 7.7-10.1 4.5-7.4 9.399-14.6 15.8-20.5 6.4-5.8 8.7-5.7 14.4 1.1 2.699 3.2 5.1 3.9 8.399 1.5 1.9-1.399 3.801-2.8 5.801-3.899 4.699-2.5 9.399-2.601 14.199.2 8.5 4.899 8.601 4.8 13.4-3.301.7-1.1 1.3-2.3 2-3.5 8-12.399 14.7-13.899 26.9-5.8 4.8 3.2 6.199 2.9 9.8-1.899 2-2.7 3.5-5.801 5.7-8.2 5.5-5.9 11.5-5.4 15.3 1.7 3.3 6.1 5.5 12.8 8.4 19.199 1.399 3.101 1.699 7.101 5.6 9.101.7-1.101 1.6-1.8 1.7-2.601 3.1-18.399 7.6-36.5 15.199-53.699 1.301-2.9 1.601-5.801-.3-8.601-4.5-6.6-8.9-13.3-13.8-19.6-2.9-3.8-6-3.5-9.2.2-2.9 3.3-4.3 7.5-6.1 11.399-2.801 6-5 12.4-9.301 17.601-3.6 4.399-6.699 3.899-8.8-1.301-2.3-5.6-2.5-11.699-3.5-17.6-.399-2.2 0-5.4-2.7-6-3.399-.8-3.899 2.9-5.3 4.9-.8 1.1-1.2 2.3-1.899 3.5-2.4 4.8-5.101 9.399-8.801 13.3-6.899 7.2-13.399 6.5-18.699-1.8-1.5-2.4-1.7-5.9-4.9-7.101-3.3.8-3.4 3.8-4.6 6.101-1.4 2.6-2.5 5.5-4.301 7.899-3.899 5.2-7.5 5.4-12.5 1.2-5.1-4.3-5.3-4.5-8.699.8-4.5 7.101-9.5 13.601-16 19-7.101 5.9-10 5.3-12.7-3.5-2.3-7.6-3.5-15.6-5.7-23.3-1-3.5.1-9.4-4.7-9.7-3.8-.2-4.3 5.3-5.8 8.5-7.1 15.5-17.5 28.3-30.7 38.8-7.6 6-11 4.4-12.3-5.1-.6-4.2.7-8.9-3.4-12C1115 574.1 1099.9 606.8 1089.6 641.8zm337.1-82.3c2.1-5.7 4.2-11.3 9.3-15.1 4.2-3.101 7.6-2.2 9.4 2.699 1.199 3.4 1.699 7.101 2.399 10.7.7 3.601 1.4 7.2 3.4 10.3 2.5 3.7 5.7 3.601 7.5-.5 1.399-3.3 1.899-7 2.899-10.6 6.2-22.9 4.9-46.9 9.801-70.1.399-1.9.8-4.301-1.601-5.2-2.399-.9-3.6 1.3-4.6 2.899-5.5 8.801-12.4 16.5-19.5 24-8 8.4-18.6 9-27.7 2-1.6-1.199-3.1-2.6-4.699-3.699-6.4-4.301-9.601-2.801-10.4 5-.9 8.6 1 17 5.8 23.8 4.3 6.1 5.7 12.399 6.4 19.399.6 6.4.399 13.2 4.899 20.2C1424.7 569.9 1425 564.4 1426.7 559.5z"/><path fill="none" stroke="#000" stroke-miterlimit="10" stroke-width="6" d="M1668.5 437.5c105.5 41.5 155.9 106 196.3 155.2 74.601 125.3 51.101 194 46.8 226.1-8.3 48.601-103.699 147.2-90 120.9 13.7-26.3 33.301-106 29.9-135.3s-10.9-13.3-15.9 4.3-55.3 109.7-54.899 87.6c.399-22.1-2.7-71.6-9.7-107-7-35.399-17.1-14.399-17.1-14.399-8 76.399-28.7 104.399-28.4 93.1s-8.1-70.7-38.3-121.4c-30.2-50.699-37.9-36-35.101-26.6 2.801 9.4.9 88.9.9 88.9s-22.3-56.301-41.1-88.9-43.9-26.7-29.301-15.6C1597.2 715.5 1604 805.8 1604 805.8s-11-21.2-20.7-37.8c-9.699-16.6-39.6-55.8-55.399-46.7-3.9 33.3 25.399 85.3 15.399 81.3S1446 718 1436.2 697.8s-26.2-16.5-15.5-2.899c43.3 65.8 54 149.1 48.7 140.1-5.301-9-22.7-25-22.601-8.9 3.5 27.7 3.2 70.601 3.101 58.4-.101-12.2-20.2-70.3-34.4-83.9-14.2-13.6-48.8-45.899-52.3-58.399s-18.9-19-14.301 1.3c4.2 69.2-6.199 117.9-5.399 109.3.8-8.6-23.801-68.9-28-76.4-4.2-7.5-16-24.199-20.9-9.8-4.9 14.4-7 69.5-7.3 105-9.3-14.5-12-25.6-12.7-43.3s-13.3 3.1-22.2 23.3c-8.899 20.2-21 75.2-20.8 85.101.2 9.899 8.4 48-2.6 57.399-11 9.4-7 45.3-9.2 30.4-2.2-14.9-31.467-41.641-45.3-61.5-11.102-15.938-74.598-16.989-74.598-16.989C1059.101 823.812 1078 680.7 1078 680.7c36-202.7 234.399-252.2 234.399-252.2 141.801-51.6 273.101-22.5 356.101 9z"/></svg>