<svg xmlns="http://www.w3.org/2000/svg" id="hair" viewBox="0 0 3000 3000"><path id="cl1" fill="#32255D" d="M1834.1 1088.1c-4-.5-7.699 1.601-11.399 3.2-6.2 2.7-17.8 2-24.2 2.2-4-8.101 1.7-20 3.2-27.5 7.7-39.5 11.5-77.5 18.2-117.2 6-35.5 11.8-67.5 15.8-103.2 3.1-22 11-42.5 16.1-63.8 0-2.7 1.601-5.1 1.9-7.7.2-1.5.399-3.1.6-4.6 2.5-6.3 2.5-13.101 4.4-19.601.2-1.3.7-2.5 1-3.699.2-.7.5-1.2.1-1.801.3.5 0 .9 0 1.5-1.7 5.9-3 11.9-3.899 17.9.1 1.1-.5 2.1-.801 3.1-1.3 2.601-1.199 5.5-1.8 8.301-4.1 17.5-9.8 35.3-14.2 52.699-1.399 4-1.5 8-2.3 8-8.7-.8-5.8-10.6-5.3-15.199 2.699-20.101 5.8-37.2 9.6-58.101 1.7-6.8 2.6-13.8 4.1-20.6-5.1 26.2-8.5 42.9-13.199 74.5-1.4 9-1.2 9.9-1.5 15.6-13.9 2.5-42.4 10.7-56.5 11.8-6.2-2.5-5-8-4.9-12.8.2-37.5-1-75.1.8-106.5-.8 31.4-1.199 68.8-5.199 106.101-.7 7-1.7 14.8-10.7 16.899-3.9.601-7.9 1.4-11.8 1.9-9.101 1.1-10.601.1-11.7-8.9-1.6-14.5-3-29.1-4.4-43.7-2.199-22.8-4.399-45.699-6.699-68.5-.4-3.6-.9-7.3-1.4-10.899-.5-3.5-1.7-6.8-6-6.601-4.1.2-5.4 3.5-5.8 7-1.5 13.9-2.9 27.801-4.2 41.7-.9 9.3-1.6 18.5-2.6 27.8-.301 2.5.199 5.4-3.101 8.101-4-30.9-7.899-61.101-10.6-91.4-2-3.899.399-8.3-1.601-12.2-.199-1.899-.3-3.8-.5-5.8-1.199-5.399-1.3-10.899-5-15.8-2.199-2.9.101.8-6.399 4.2-4.601 14.6-6 29.8-8.101 44.899-1.5 10.801-2.899 21.601-4.399 32.5-4.5 27.9-7.601 55.9-11.4 83.9-.6 4.4-.8 8.8-4.6 11.9-20.4 3.2-39.7.899-60.2 3.1-5.4.6-10.2 1.5-12.4-3.4-1.1-2.399-2.3-4.8-3.5-7.199-.899-1.2-.5-3.2-2.1-4.101v.101c-22.2-46.301-37.2-47.7-54.3-96.4 2.2 7-8.3-13.1-6.601-5.9 1.801 7.4-.199-5-6.899-4-3.4 4.2-1.9 9-1.7 13.7 1.4 1.9 0 4.601 1.7 6.5.2.5.3 1 .3 1.601.2 2.5 3.1 5.899-2.2 6.399-1.2-1-.8-2.7-1.7-3.899l-18.6-47.101c-1.1-2.8-2.1-5.6-3.5-8.2-3-5.5-4.5-5.6-10.4-.8-.6 1.2-.899 2.5-.8 3.9 1 49.3-1.899 98.6-.2 147.899.301 9.801-1.899 19.7-2.1 29.601-.1 6.3-4.6 6.899-8.8 8.5-3.3.1-6.5.3-9.8.399-5.301 2.101-10.9-.399-16.2 1.5h-.9l-.899-.1c-4.5-1.6-7.7-4.6-8.801-9.3-6.6-28.2-14.8-56-18-82.2 4.9 16.7 3.801 36.6 3.801 56.3 0 8.3-.101 16.7 1.399 24.9 1.101 5.9-.3 10.3-6.5 12.2-18.1 1.399-16.5 1.3-20-15.2-9-42-18.399-84-29.7-125.5-1.1-4.2-2.399-8.3-3.8-12.4-.7-2-2.5-3.1-4.8-2.899-2.3.199-3.6 1.699-4.2 3.699-1.2 3.9-.899 7.9-.899 11.9.199 48 .5 96 .8 144 0 3.3-.101 6.7-.101 10 0 5.3-2.699 7.9-7.899 8.1-5.7.301-11.3.601-17 .9-3.5 1.5-7.2.7-10.9.7-5.8 0-9.7-2.5-11.2-8.6-8.6-34.9-19.199-69.301-26-104.7-2-10.5-3-21.101-5.899-30.4 10 43.9 11.8 89.9 18.5 135.3.8 5.2.3 9.101-4.9 11.3-5.5 3.7-3.5 8.7-2.1 13.5 7.5 25.2 15.7 50.101 24.7 74.801 4.899 13.399 10.199 26.699 15.3 40-.7 5.6 2 10.399 3.899 15.399.301.9.5 1.801.601 2.801.899 1.8 1.899 3.5 2.399 5.5 7.5 19.699 12.4 40.3 21.301 59.5 1.3 2.8 3.6 6 .3 8.899-2.9 2.601-6.2 1.601-9.7.9-25.399-5.3-50.699-11.2-76.399-15-5.801-.9-12.301-6.1-18.4-.1-6.3.3-8.3-4.5-10.6-9-17.2-33.101-33.801-66.5-49.301-100.4-12-26.4-18.446-41.581-27.446-69.181-.801-2.5-7.341-1.331-11.52-4.52-9 1.167-16.667 1.167-27.117 10.205-12.216 19.962-13.883 13.995-25.383 39.795-.399.899-6.422 12.133-6.922 12.833-2.5-.3-8.895-25.333-8.995-26.833-3.1-28.9-15.917-63.8-14.417-92.8 7.1-31.5 21.6-60.2 33.3-89.9 3.9-10 12.4-15.399 20.7-21 37.2-25.3 74.7-50.1 113.6-72.6C1289 657.1 1366.7 618.5 1449.7 591.3c49.5-16.3 100-28.6 152.2-31.5 54.5-3.1 108.6-.1 160 21.2 39.3 16.3 73.699 39.7 102.399 71.4 5.3 5.8 8.5 12.899 12.8 19.199 1.4 2 1.9 4.5 4.801 4.9 4.6 6 5.699 13.4 8.3 20.2 43.899 94.55 42.7 192.4 26.1 292-2 11.9.9 23.7 1.4 35.8 2.1 50.3 5.5 91.5 10 141.601 6.1 68 15.1 133.3 24 201 4.3 33 8.2 71.399 13 104.399.2 1.3.3 4.2.5 5.5 1 8.3-1.8 13.601-9.7 15.4-7.1 1.6-14.399 2.7-21.6 4-10.9 1.3-11.9.8-13.6-9.7-4.9-31.2-8.301-62.7-11.5-94.1-6.301-61.5-12.301-123.101-16.4-184.801-2.7-41.1-6.1-82.199-7.8-123.399 0-1 0-2-.2-3-.8-4.5 3.2-14.3-1.8-16.5-4.601-2.101-10.7 6.6-14.2 9-7.1 4.899-14.1 10-21.6 14.3-4.1 2.401-8.4 3.501-12.7-.099zM1109.6 696c-.6 4.6-1.3 10.2 4.2 11.8 5.5 1.601 7.2-4 8.601-7.8 6.3-16.4 15-31.7 21.699-47.9-.199.801-1.1 1.2-1.3 1.801-6.3 17.6-5.4 36.3-7.4 54.5-.3 2.899.5 6.199 3.9 7.399 4.3 1.5 6.8-1.6 9.1-4.3 13.5-16.1 30.301-28.1 48.101-38.6 99.5-58.101 206.199-96.601 319.8-115.4 34.5-5.7 69.3-8.7 104.3-10.8 30.101-1.8 59.801 0 89.7 2.1 29 2 57.5 7.4 86.2 11.5 4.3.601 8.8 1.601 11-3.8-2.9-3.6-5.7-7.4-8.801-10.8-38.699-42.7-83.5-77.7-135.8-102-122.649-61.2-232.2-55-347.399.8-85.101 41.2-146.5 99.25-198.561 177.882-5.8 20.8-4.64 52.218-7.34 73.618zm34.618 425.871c-5.601-3.899-13.152-7.521-18.552-11.621-1.5-1.1-8.966 12.45-11.667 16.15-1.8 1.6-2.5 3.6-2.9 6-4.5 27.6-13.6 54.1-20.8 81-1.3 7-3.2 13.8-5.8 20.5-1.7 4.6-.601 10.199-4.7 13.899-4 9.601-5.6 19.801-8.5 29.7-10.4 34.4-22 68.3-33.4 102.4-.399.8-.8 1.699-1.3 2.399-.2.601-.3 1.2-.4 1.801-.699 1.1-1.1 2.199-.399 3.399s1.5.5 2.2.101c.199-.301.399-.7.6-1.101.3-1.1 1-1.7 2-2.2 10-11.3 17.9-24 25.3-37.1 18.7-33.2 33.7-68.1 45.7-104.2 1.2-3.5 1.9-7.2 4.2-10.1 2.7-3.5 6.8-3.4 9.1.3 1.3 2.2 2.101 4.9 2.7 7.5 3.6 14.3 5.8 28.7 5.5 43.5-.6 40.3-3.9 80.5-7.8 120.6-2.9 29.801-6.2 59.601-9.2 89.5-1 9.801 0 10.9 10.1 11.301 22.601 1 45.301 1.8 67.9 2.699 3.7-.1 7.3-.399 11-.399 16.6 0 17.1-.7 17.4-17.5.8-45.9-2-91.8-2.301-137.8 0-2.801.9-6-3.1-9.301-10.6 19-21 37.7-31.6 56.4-10.7 18.9-20.801 38.1-32.801 57.7-2.699-5-2.199-8.7-2.199-12.3-.2-14-.2-28-.601-41.9-1-28.9-2.399-57.8-3.399-86.8-.9-23.601-.9-47.301-2.601-70.801-1.1-16.3-.7-32.6-2.2-48.899-1.6-16.9-1.5-33.9-1.1-50.9 1.702-2.998 6.62-21.826 3.62-23.927zM1819.7 1332c9.468 61.833 21.298 106.01 34.3 165.6.9 8.9 1.6 13.4 10.5 12.601 16-1.5 28.6-3.101 47.4-6.5.8-3.9-.801-10.9-2.4-14.2-22-42.8-44-85.6-65.8-128.5-6.8-13.3-12.9-26.9-19.4-40.4-1.6-3.199-2.5-7-6.5-8.399-.1 6.798-.3 13.298 1.9 19.798zm-583.8 177.9c.8-.5 1.5-1.101 2.199-1.7 7.7-6.9 14.7-14.5 21-22.7 8.2-10.5 16.7-20.7 26.7-29.6 4.2-3.7 8.3-7.7 12.4-11.601-5-14.5-9.9-28.899-15-43.399-1-2.9-1.2-7.601-5.3-7.5-3.9.1-4.2 4.7-5.4 7.6-13.9 32.4-27.6 64.8-41.5 97.3-1.6 3.7-2.9 7.4-2.9 11.5 2.701.1 5.301.1 7.801.1zm-135.983-426.067c-.8-.6-12.301-13.917-12.801-14.816-.699-.9-1.399-1.801-2.1-2.7-1.4 1.7-1.2 3.4-.3 5.2.1.6-1.083 1.049-.883 1.649 1 1.2-.367 7.567.833 8.667 6 15.301 7.133 46.966 13.133 62.267.8-8.601 9.96-38.38 16.66-44.28-8.499-10-5.941-6.086-14.542-15.987zM1802.6 1459.4c2.5-1.2 1.601-4.101 1.5-6.301-.699-11.6-1.5-23.1-2.199-34.699-5.7 12-5.4 24.899-5.801 37.699 1.9 1.601 3.4 4.701 6.5 3.301z"/><path id="hl1" fill="#696097" d="M1116.939 622.382c2.1 4.2 4.66 16.318 4.16 20.618l-5.699 48.6c-.2 1.9-.301 3.801.399 5.9 10-21.8 20-43.4 35.601-64.7.399 10.3-4.5 16.9-5.4 24.5-1 8.3-2.5 16.5-3.3 24.7-.8 7.9-1.101 15.8-1.601 23.4 2.601 1.8 3.601.1 4.601-1.101 13.399-15.7 29.8-27.5 47.399-37.899 65.5-38.601 134.7-68.5 207.5-90.2 55.4-16.5 111.801-27.8 169.301-33.7 67.6-7 135-5.2 202.1 6.3 11.8 2 23.7 3.7 35.5 5.5 22 24.4 39.6 51.8 55.3 80.4 7.101 12.8 15.775 28.862 21.575 42.362-1.4 1.7-5.275-1.463-6.475-2.963-2.2-2.5-4.2-5.1-6.301-7.699-46.399-56.8-106.199-89.7-178.499-100.5-54.8-8.101-109-4.2-162.899 7-69.9 14.5-136.2 39.5-200.5 70.1-81.4 38.7-158.7 84.5-232.5 136.3-7.101 5-11.8 11.2-15 19.2-9.8 24.4-20.101 48.6-30.2 72.9-1.5 3.699-3 7.399-5.8 10.399 0-2.7.1-5.3.1-8 2-5.1-.5-10.7 1.4-15.8 6.399-66.4 15.949-132.95 44.55-193.25 6.099-12.799 14.874-27.624 24.688-42.367zM1838.9 844c.8-3.9 0-7.2-3-9.9m-608.1 287.8c43.2 5.199 85.101 17.3 127.4 27.399m-256.4 8.201c.7-5.4.9-10.5-.899-15.7m706.799-89.3c-2 12.8-3.8 25.6-5.7 38.4m-491.3-24.6c5.8 20.7 8.8 42.2 18.7 61.7 2 4 .8 5.5-3.601 5-2.3-.2-4.6-.8-6.899-1.2-27.101-5-54.101-10.1-81.2-15.1-3.4-.6-6.9-2.1-10.5-.1.5 2.699 2.5 3.6 3.6 5.199 43.2 5.2 85.101 17.301 127.4 27.4.8-4.2-1.7-5.9-3.101-8-7.5-11.4-14.5-23.1-20.5-35.4-7.399-15.199-14.5-30.6-21.8-46-1.1-1.1-.8-2.899-1.8-4.1l-4.2-9.7c-4-.3 1.101 11.601 2.101 13.9.1.7.199 1.3.3 2 1 1.401.7 3.101 1.5 4.401zm-209.1 57.5c-1.399 5.9-2.699 11.9-.699 18 1.8 5.101 1.6 10.301.899 15.7-2.2 16.8-6.3 33.3-9 50-.1 2.4-2.7 5.6 2.101 6.2 5.899-17.9 11.6-35.801 17.899-53.601 3.9-11 15.621-39.832 15.121-51.632-2.6-2.2-8.443-6.977-11.043-9.177-5.101-2.7-14.078 19.41-15.278 24.51zm737.2-263.1c-11.2 63.8-21.1 127.8-31.1 191.8"/><path id="sd1" fill="#1F173A" d="M1228.2 1507.7c-11.5.399-23 1-34.4-1.5-.1-5.7 4.601-4.601 7.8-5.301 11.601-2.199 15.101-5.399 15.101-17.199 0-27.601 1.6-55.301-1.3-82.9-1.5-14.2-.101-28.6-.601-45.1-8.8 15.199-16.2 29-23.899 42.6-10.101 18-20.301 36-30.301 54.1-1.1 2-2.199 4.101-3.699 5.9-2 2.4-4.5 4.4-7.7 3.2-2.601-.9-3.601-3.5-3.8-6.2-.101-1.3-.301-2.6-.301-4 1.2-28-1.399-55.9-2.3-83.9-1.4-44.6-3.1-89.1-5.3-133.699-1.301-27.2-1.217-51.55.083-78.95.199-3.9.668-8.839 1.316-13.65 1.518-11.266 4.275-20.172 7.775-18.672 17.9 7.8 33.347 13.791 53.347 12.991 3.5-.2 20.787 21.996 20.987 27.396 18.699 28.601 39.766 44.744 63.791 70.086 39.2 29.399 79.5 57.199 122.2 81.199 10.8 6 21.699 11.7 33 16.601 6.199 2.6 9.5 6.5 9.899 13.399.7 11.301 2 22.5 2.9 33.801.6 7.699-.8 8.8-8.5 7.6-4.9-.7-9.8-1.7-14.8-2.4-24.301-3.5-47 .9-68.101 13.7-18.6 11.2-36.199 23.8-53 37.4-3.399 2.699-6.899 5.3-10.3 7.899-6.4-.399-7.6-5.699-9.4-10.199-3.6-8.9-5.3-18.5-10.3-27.7-4.8 2.9-5.6 7.7-7.3 11.7-10.2 23.899-20.1 47.8-30.5 71.6-3.097 7.398-5.997 14.898-12.397 20.198zm593.468-401.867c-2.6 11.3 3.141 24.39 6.44 35.49 1.101 3.5.959 9.476.559 13.176-2.1 21.101-2.884 26.946-14.584 44.946-3.4 4.4-8.457 19.882-11.757 24.382-19.2 26-44.489 43.602-67.89 65.203-17.6 15.1-34.589 33.045-51.889 48.545-15.8 14.3-30.248 31.424-51.748 36.324-4.6 1-5.7 3.8-4.899 8.1 1.399 7.1 3.8 8.9 11.1 7.5 9.5-1.8 18.8-4.2 28.3-6 23.5-4.5 45-1.5 62.4 16.8 5.7.301 6.2-4.399 6.899-8 .9-5.1 1.7-10.3 1.7-14 2.8 15.101 5.5 31.101 15.5 46 1.4 1.9 3.4 3.101 5.5 4.101 13.8 7.199 32.5 20.899 44.7 30.399 4.8-1.199 3.6-5.5 4-8.5 1.2-9.699-11.679-33.453-8.078-43.053-1.2-33.2 5.778-57.247 7.278-90.347.2-3.7.2-7.5 3.899-9.601 3.7-2.1 3.334 6.899 5.734 9.2 7.899 25.199 22.666 42.2 34.366 65.8 16.399 32.801 34.2 64.801 50 97.801 3.2 6.699 8.3 18.199 13.5 23.5 7.399-1.301 14.3-4.601 21.399-7.301-5.5-.8-7.899-6.399-8.399-11.699-.4-4-1.101-7.9-1.5-11.9-5-45.6-11.101-91.1-15.101-136.9-4.3-49.399-9.1-98.699-12.699-148.199-3-41.801-5.4-83.601-8.101-125.5-.2-3.5 1.4-8.4-2.399-10-3.9-1.601-6 3.3-8.601 5.5-13.3 11.1-40.466 26.965-56.966 33.066 2.303 8.6-3.489 4.639 1.337 15.167zM1290.6 913.9c5.301.1 10.601 0 15.7-1.601-1.7-.1-3.3-.3-5-.399-8.6-.9-9.8-1.9-12.3-10.4-.5-1.6-.8-3.2-1.3-4.8l-34.5-135.601c-.9-3.399-1-7.1-3.5-10.1-1.5 1.5-1.4 2.9-1.2 4.1 6.3 51.2 10.1 102.801 18 153.801.4 2.399.4 4.6-.5 6.8 8.1-1.4 16.3-1.9 24.6-1.8zm131.5-26.2c-3.399-6.9-4.8-14.5-6.6-21.9-6.5-26.5-12.8-53-19.3-79.5-.601-2.399-.2-5.3-3.101-6.899-1.8 3.3-.899 6.699-1 9.899-.399 15.601 2.101 31.101 1.9 46.8-.2 14.601-.6 29.301 1.1 43.801.4 3.399-.1 6.6-1.199 9.8 9.4-.701 18.8-1.401 28.2-2.001zM1774 842c.9-45.6-2.1-91.2-2-136.9 0-2.199 1.2-4.899-1.9-6.8-2.1 25.101-4.199 50-6.199 74.9-1.5 18.3-2.801 36.5-4.5 54.8-.601 6.2-.601 12.8-5.4 17.8 6.699-.7 13.399-1.9 19.999-3.8zm-223.5-33.3c-13.8-23.8-27.2-47.7-40.7-71.601-2.7-4.699-5.5-9.199-11.8-9.3M1815.9 835.7c6.699-.5 13.199-2.3 19.899-1.601M1643.8 845.8c6.8-.7 7.101-6 7.7-10.899 1.7-15.4 3.3-30.9 4.6-46.4M1496 756c1.5 7 4.3 13.5 8.2 19.5"/><path fill="none" stroke="#000" stroke-miterlimit="10" stroke-width="6" d="M1764.7 509.5C1882 615.3 1913.5 748.5 1919 789c18.5 153.5-4.1 208.4-4.6 213.4s8.3 84.3 12.3 148.3 27.3 232.7 40.7 331.3c-7.301 16-115.301 38.7-115.301 18s-44.932-215.5-42.899-192.7c-25 73.7-2.798 152.3-4.699 152.2s-32.201-22.6-47.101-31.1c-25-22.4-20.601-41.5-21-50.2 4.399 47.7-10.9 4-49.601 6.4-16.6 0-31-.2-41 3.1s-30-.1-12.6-16.1c15.596-3.716 48.525-35.505 80.446-63.747 29.076-25.725 57.315-47.485 70.854-62.453 42.834-53.067 44.342-92.569 43.8-101.601-.799-13.3-6.399-37.199-6.399-37.199l-2-14.7c-21.325 2.948-7.547.781-19.301 1.7-6.56.513 27.7-206.301 31.7-234.301s5.101-28.399-13.6-23.899-88.4 15.5-87.101 8.1c1.301-7.399-9.8-62-10.6-103.2-.8-41.199-10.7-30.899-10.7-30.899s-6.3 31.3-6 52-7.5 53.5-11 28.899c-4.5-32.899-9.5-128.399-19.5-118.5-5.2 3.601-19.6 157.101-22.6 167.101S1578 851.3 1574 849s-59.2-93.7-69.3-109.7c-10.101-16-8.4-7.5-4.4 10.5s7.5 33.5 0 17.9-28-79.9-35.899-69.6c-.5 4.399-2.601 182.699-2.601 185.699s-82 9-83.8 4-35-158.3-44.7-153.3c-2.6 1 1.5 176.8-5.3 175.601-6.7 3.699-61.3-1.5-65.4 10.699 9.301 41 41.4 126.101 92.9 228.301-11.8-2.2-121.9-21.2-135.4-31.601-23.5-37.7-54.363-100.251-81.464-172.952-3.6 1.2-11.336-3.148-20.735-1.249-18.9 0-30.269 27.8-49.969 69.2C958.5 585.5 1339.6 431.2 1339.6 431.2 1537 344 1708 459 1764.7 509.5zm-666.9 632.3c3.4 8.601-7.1 59.801-9.3 76.9s-51.4 144.3-53 166.6c17.5-11.199 25-39.3 46.2-71 21.2-31.699 32.3-91.3 41-85.1s9.2 79.9 8.2 100.8c-1 20.9-15.2 126-15 170 8.899 7.5 115.899 11.9 120.1 7.8 17.4-24.699 110.6-123.3 175.5-125.6 18.5 3.6 40.5 2.8 40.5 2.8s-1.9-40.8-4.4-48.7c-33.093-22.164-167.944-89.44-246.899-198.1-95.5-11.5-124.2-91.7-124.2-91.7s17.999 86.7 21.299 95.3z"/></svg>