<svg xmlns="http://www.w3.org/2000/svg" id="hair" viewBox="0 0 3000 3000"><path id="cl1" fill="#894447" d="M1774.198 684c3.699 21.9-4.602 62-6.899 88.5-2 22.2-10.299 48.103-17.398 69.4-5.699 2.3-6.199-2.101-6.5-5.601-2.301-22.2-5.5-44.2-7.199-66.399-.399-5.301-4.102-23.601-6.102-28.7-7.801-3.5-5.898 9.899-8.301 17.899-4.199 14-3.699 26.801-7.5 40.898-10.398 38.199-27.398 77-43.699 113.199-2.6 5.7-5.698 11.2-8.6 16.899-.7.7-1.4 1.5-1.602 2.601a3.411 3.411 0 0 1-.602 1.2c-9.2.899-6.398-6.101-5.801-10 3.801-22.5 4.399-45.301 2.699-67.801-3.5-47.101-4.5-94.5-17.602-140.399-5.398-18.8-16.302-34.5-24.898-51.5-.199-.3-.301-.601-.5-.897-1.801-2.899-3.5-5.899-7.602-5.302 1.899 7.199 5.198 7.699-4.302 69.602-3.295 39.5-26.895 100.399-45.895 135-4.399 8.101-10.7 16.397-15.604 25.5-2.396-3.699-1.896-6.399-1.896-8.8-.2-25.603-.302-51.303-.399-76.899 0-4.7-.201-6.801-2.601-11-8.7-4.2-12.399-1.5-16.2 5.199-15.5 27.397-26.101 57-37.101 86.301-.802 2-1.899 4-2.302 6-.601 3.199-1.897 5.399-5.101 5.8-4.101.5-4.899-3.101-5.8-5.8-3.604-11.4-7.399-22.7-10.604-34.2-5.5-19.601-13-38.5-17.896-58.3-1.5-5.9-4.104-9.7-4.399-15.601-.301-4.7-5.801-12.103-10.801-13.7-4.699.5-.199 5.5-1.5 9.397-6.3 18.5-7.103 31.5-8.8 43.5-1.7 13.303-3.5 28.9-4.104 42.103-.1 2.601 1.604 6.601-3.1 7.101-4 .399-4.302-3.8-4.802-5.897-3.898-14.603-7.198-29.303-8.801-44.399-4.801-47.399-2.601-94.399 7.699-140.898 1.7-7.899 1.601-14.699-2.699-21.399-5.801-1.8-4.101 5-5.898 10.101-5.899 16.603-13.102 27.603-17.602 44.7-7.301 28-19.5 57.3-26.5 85.399-14.699 58.897-16.301 118.5-9.101 178.5 3.601 29.8 11.101 58.801 18.5 87.897 3.101 12.302 6.5 24.399 9.699 36.699.601 2.301 1.5 4.7-1.102 6.2-2.398 1.397-4.301-.7-5.601-2-10.301-9.7-20.103-20-30.7-29.3-11.8-10.4-20.3-23.2-27-33.5 2.9 4.197 6.9 11.5 12.104 18 6.6 8.197 14 15.1 14.697 24.397 16.899 39.899 27.303 81.3 49.199 118.603.7 2.197-.3 2.8-2.3 2.397-9.801-7.397-25.7-4.397-34.301-13.101-39.102-34.399-66.5-82.5-90.699-128-6-11.399-10-25.399-16-36.801-10.801-2.699-9-28.699-15.2-23.302.2 13.399 4.2 27.103 9.4 38.603 12.1 26.897 25.1 53.397 40.198 78.8 7.602 12.7 13.699 26.301 21.199 39.2l-.101-.103c.5.699 1 1.5 1.398 2.302 4.199 8.601 8.398 17.198 12.602 25.801 1.3 2.601 0 9.601-3.801 9.5-44.399-24-76.303-70.899-102.699-117.301-12-21.199-24.2-42.899-36.7-63.802-4.1-6.897-14.6-21.397-17-29.198-16.698-54.5-17.398-110.603-18-167.699-.198-21 4.602-69.301 4.7-71.5 0-.4-4.102-3.103-4.801-1.603-3.199 7.103-12.803 13.399-19.602 16.699-10.199 4.9-14.199 13-13.301 24.301 4.301 52.802 11.6 105 30.7 154.802 3.101 8.101-.104 20.601-6.899 22.301-21.701-26.801-41.5-59.603-55.201-91.4-13.299-30.896-16.198-71.896-20.6-105.1-4.302-32.603-4.302-65.103 1.6-97.5.5-2.9 1.201-5.9 2.4-8.603 24.698-57.601 58.6-109.101 103.6-152.897 55.5-54 120.604-91.501 194.701-113.9 53.699-16.2 108.699-23.4 164.5-24.2 21-.3 41.699 4.5 62.101 9.3 41.302 9.802 80.899 24.603 119.302 42.603 1.8.8 3.3 2.101 5 3.2-4.7 9.8-9.899.601-14 .7 18.8 15.5 30.101 36.697 37.8 60.1 2.399 7.301 4.899 14.601 6.399 22.101 2.197 11.001-1.899 15.103-12.803 12.899-10.1-2.1-20.1-4.699-29.6-9-6.199-2.8-9.9-2.199-11.101 5.601-2.102 13.5-11.602 18.2-25.102 13.103-5-1.899-9.398-5-13.898-7.8-4.399-2.803-6.899-1.9-6.899 3.697 0 1.7.1 3.303-.101 5-.699 9.603-5.602 13.7-15.102 12.303-5.699-.9-10.898-3.303-15.398-6.803-7.199-5.697-13.899-5-20.699.803-8.301 6.897-17.5 12-28.801 12.5-5.899.197-10.802-1.303-15.5-5.4-9.5-8.5-12.899-7.899-21.102 2.2-4 4.897-7.5 10.101-13.101 13.601-11.602 7.399-21.399 7.3-32.399-.897-11.801-8.803-11.801-8.803-23.601-1.7-23.602 14.101-33.899 9.3-37.801-17.603-.899-6.601-1.199-13.3-2.899-19.697-2.699-10-9.899-13-19.199-8.2-5.699 3-10.199 7.5-14.601 12.101-5.399 5.5-11.102 10.5-17.7 14.603-3.5 2.1-7.5 4-11.1.8-4.103-3.5-1.103-7.399.8-10.8 2.4-4.4 5.602-8.303 7.7-12.9 1.698-3.8 4.698-8.398 0-11.699-4.103-2.897-7.5.699-10.5 3.199-8.603 7-14.603 16.4-22.5 24.102-3.9 3.802-7.302 9.699-14.103 7-7.301-2.898-8.5-9.5-8.301-16.602.102-5.699.301-11.3-.199-17-.897-9.699-4.897-12.398-14-9.398-3.801 1.302-7.397 3-11.397 3.802-11 2.1-16.302-2.802-13.603-13.7 1.603-6.3 1.899-10.102-5-13.602-5.697-2.898-2.101-7.102 1.699-10.102 11-8.699 22.602-16.5 32.9-26.1 2.3-2.2 5.8-3.5 5.697-7.7-4.197-2.3-7.8.3-11.197 1.897-17.4 8.399-33.9 18.603-50.2 28.899-2.3 1.399-4.8 3-5.8 5.399-7.603 18.5-23 31.601-33.803 47.897-.5.801-1.197 1.603-1.697 2.5-1.4 2.801-5.4 5.7-2.7 8.801 2.5 2.899 6.3.102 9.2-1.101 12.3-5.1 24.897-9.5 37.6-13.5 3.801-1.2 7.7-2.3 11.7-2.8 19.3-2.5 27.199 6.1 24 25.5-1.5 8.897-4.301 17.5-5.2 26.5-1.199 12 3 15.6 14.4 11.897 10.8-3.5 20.697-9.101 30.897-14.101 5.399-2.601 10.699-5.5 16.5-7 10.5-2.601 17.199.5 21.899 10.3.4.9.9 1.801 1.2 2.7 8 19.101 8 19.101 26.3 10 3-1.5 6-3 9-4.399 18.2-8.697 24.601-7.801 39.3 5.803 11.101 10.197 16.301 11 29.601 4.697 3.303-1.601 6.7-3.101 9.803-4.897 18.397-10.4 36.301-9.2 53.801 2.1 1.1.7 2.199 1.5 3.399 2.2 19.697 12.601 19.8 12.7 38.601-1.8 16.399-12.603 34.5-14.603 53.899-9.3 3.5 1 7 2.197 10.3 3.697 12.7 5.603 23.898 4 33.5-6.601 10.801-11.8 23.6-13.8 38.1-7.601 6.701 2.897 13.5 5.698 20.803 6.801 9.697 1.5 15.101-1.301 19.398-10.103 1.5-3 2.3-6.301 3.699-9.301 4.7-9.699 12.898-13.897 23.6-12.1 9.201 1.5 18.201 4.199 27.5 5.3 4.701.601 9.303.7 13.9-.3 5.2-1.103 11.2-1.301 13-7.603 1.7-5.897-2.4-10.101-6.102-13.897-27.398-29-58.802-53-92.802-73.801-7.396-4.5-7.5-4.5-4.6-10.302 16.301 6.199 30.899 15.5 45.301 25 58.399 38.699 108.488 91.091 141.888 152.392 17.303 31.699 25.514 63.51 35.313 98.31 8.2 28.9 9.301 58.301 8.7 88.104-.604 27 2.5 52.896-5.303 79.896-3.697 22.104-11.197 44.2-17.397 65.604-.9 3.1-.4 7.3-4.9 7.6-4 .2-5.3-3.5-7-6.2-9.1-14.896-16.897-30.396-24.198-46.396 5.198 9.197 5.698 19.396 7.399 29.396.601 4-1.201 6.301-3.801 8.5l-.103.104c-.6.8 14 58.5 5.303 65.697 1.601 51.603-18.803 107.302-37.2 142.199-5.3 8.801-11.5 18.301-15.8 27.5-9.803 20.7-31.303 37.5-46.2 54.603-3.699.198-3.4-1.603-1.9-3.899 9.701-19.899 28.9-63.399 29.701-71.5-3.397 4.7-26.201 14.101-33.5 19.7-2.101.5-3-.303-2.397-2.4 32.6-56.398 50.6-117.898 62-181.5 10.897-60.5 15.397-121.5 14.3-183 0-2.7-.103-5.3-.2-8-1.8-1.1-2.1-4.8-5.699-7.8-.197 2.8-1.101 2.8-1.801 6.3-1.899 9.9-5.3 17.3-9.5 26.4-4.6 10-16.199 31-20.8 41-9.5 2.199-4.8-14.801-4.899-18.5-.101-22.7-3-45-6.398-67.4-4.5-29.3-14.102-57.1-25.399-84.398-2.269-6.505-2.971-8.607-8.971-5.307zM1199.8 1659.5c23.302-27.1 41.2-82 39.5-127.396-.398 5-.602 12.396-.3 19.8 1.6 38-6.102 74.2-20.102 109.2-3.102 7.8-2.5 15.3-1.102 23 2.602 16.3 2.898 32.396-3.898 48-2 4.6-4.2 9-6.302 13.5-.398 5.5 2.602 5.699 6.199 3.5 3.7-2.2 6.7-5.5 9.603-8.604 32.3-34.1 58.5-72.3 75.897-116.1 13-32.801 18.603-66.5 9.399-101.4-6.199-23.396-15-45.5-33.602-62.3-11.393-13.741-29.575-31.854-43.398-40.7-7-7.8-16.699-11.197-25.899-15.197-14.101-6.103-27.897-12.699-38.101-24.699-22.801-26.9-26.801-58.5-21.801-92.101-.102-22.2.301-44.399-.5-66.603-.699-20-3.602-39.601-14.102-57.301-1.699-5.6 33.346-28.812 26.445-33.412-22.101-14.698-24.271-4.785-37.071-27.188l-14.333-15.167c-1.5-.8-10.495-13.496-11.896-14.295-6.602-11.103-8.305-8.805-12.504-21.002-6.899-20-12.202-37.267-9.002-58.369-2.5-1.5-23.938-10.268-24.338-13.067-1-6.5-3.301-12.7-6.801-18.2-2.801-4.3-5.699-9.5-12-8.8-5.801.601-9.199 4.8-11.5 9.9-.601 1.197-.898 2.5-1.5 3.697-1.101 2.303-1.199 5.699-4.5 5.803-3 .1-4.397-2.7-5.801-4.9-5.199-8.1-10.3-16.3-15.5-24.399-2.199-3.397-5-5.197-9.1-4.801-4.4.4-5.7 3.604-7.2 7.104-3.399 8-.2 15.197 1.8 22.6-1.898-7.7-4.8-15.1-7.3-22.6-7.899-23.604-15.8-47.303-19.3-72.2-.7-5.2-2.4-10.803 1.896-16.603 7.604 12 11.5 24.399 17.604 35.8.5.803 1 1.603 1.6 2.303 5.801 3.897 8.2 10.3 11.7 15.897 1.898 2.899 4.601 4.699 8.3 4.103 4.102-.603 5.2-3.5 5.7-7l.3-3c.2-1.9 0-4.5 2.102-5.2 2.898-.899 4 1.8 5.102 3.7 2.7 4.6 4.898 9.397 6.8 14.397 1.4 3.699 2.602 7.5 4.102 11.199 1.5 3.801 3.398 7.801 8.102 7.5 5.101-.3 5.7-5.1 6.7-8.8 2-7.1 1.698-14.6.6-21.7-1.199-7.896-1.3-15.399 1.301-22.899.102-1 .301-1.897.399-2.897-.8-6.3-6.602-8-10.5-11.103-18.5-14.101-36.899-28.101-51.7-46.397-6.3-7.8-12-15.8-18-23.8-2.699-3.603-5.398-6.103-9.6-1.9-23.103 48.9-23.802 97.5 1.5 146 6.6 12.7 14.3 24.801 22.3 36.7 16.898 25.2 22.3 52.101 12.7 81.601-6.603 20.303-14.2 40.199-21.4 60.199-7.1 19.7-14.6 39.4-16.5 60.5-2.8 31.103-3.6 61.4 12 90.5 11.602 21.7 25.301 41.301 42.5 58.603 5 1.301 6.7-1 6.4-5.699-.2-3-1.302-5.801-2-8.603-7-27.197-10.9-54.397-7.103-82.697 2.399-18.303 8.603-35.5 12.5-53.303 1-4.5 4.199-7.301 9-7.697 5.899.6 6.399 4.8 6.301 9.5-.302 13.396.898 26.6 2.5 39.8 3.802 30.6 14.602 59.399 23.802 88.6 6.6 21 15.1 41.2 26.198 60.302 21.802 37.302 49.928 70.329 86.331 93.029 11.3 7 14.204 14.66 18.501 26.459 1.9 5 5.924 15.104 7.224 20.305 4.4 18.102 12.043 28.905 8.043 47.905-8.102 38.802-29.602 68.604-60.2 92.5-12.2 9.5-26.3 13.9-41.7 15.104-18.198 1.396-35.896-.9-53.198-6.4-3-1-6.101-1.699-9.698-2.6.601 1.5.698 2.396 1.101 2.698 18.603 13.398 38.3 23.898 61.5 27.102 17.603 2.398 35.199 2 52.8 1.301 22-4.412 40.898-13.012 56-30.612zm758.3-488.4c-.698-2.601-.5-5.5-4-5.899-3.1-.301-4.898 1.801-6 4.301-5.398 11.603-9.6 23.603-9.898 36.603.601-8-2.5-15.603-3.198-23.5-.4-4.9-2.102-9.801-7.602-10.301-5.898-.5-5.898 5.301-7 9.198-5.898 19.699-4.802 39.699-2.802 54.802-1.301-22.199-4-49.399-7.698-76.5-2.398-17.5-3.398-34.699 4.102-51.899 5.698-13.101 7.698-27.601 5.8-38.801-.602 12.397.602 28.101 1.8 43.897.7 9.603 5.2 13 11.4 2.303.1-.303-.7 2-.102 1.1 2.102 13.9 4.602 28 4.5 42.4 0 3.6.398 7.8 5.102 8.5 4.8.697 6.3-3.303 7.398-6.7 2.801-7.699 4.7-15.699 3.898-23 .102 6.897-.5 15 1.5 22.7 2.5 9.5 5 18.8 5 28.697 0 2.803.302 6.103 4 7.103.2-1.603.7-3.199.7-4.899.198-22.2-.302-44.5.698-66.7.5-11.8-1.102-23-3.198-34.396-2.602-14-4.5-28.2-6.7-42.301-1.398-13.303-1.198-26.7-.101-40 .199-.7.301-1.303.5-2 .199-9.103-7.301-12.5-12.899-17.103-8.8-7.101-12-6.601-17.198 3.8-11.5 22.9-22.5 46-30.802 70.303-4.8 14.101-10.5 28.197-11.898 43-2.602 27.397-4.199 55-.398 82.5 6.198 44.897 18.6 89.697 53.5 121.197 17.6 17.803 37.3 31.104 58.398 44.803 17.301 11.197 35.398 21.301 51.8 33.897 33.802 25.899 53.603 59.399 55.603 102.603.603 12.301 1.103 24.601 1.603 36.897l-.2-.2c2.2-1.5 2.2-4 2.7-6.197 4.698-22.699 5.897-45.803 2-68.5-8.802-51.603-31.2-96.399-69.5-132C2024 1307 2006 1295.5 1990.8 1282.1c-17.8-15.699-25.897-35.899-26.601-59.3-.199-6.303-.199-12.603-.199-19-5.1-10.2-2.9-21.9-5.9-32.7zm-681.902 219.3c3.5-15.4 10.203-29.182 13.66-47.596 4.853-18.456 12.306-45.765 5.906-66.862-9.701-31.899-33.455-55.319-62.955-71.518-29.077-17.675-19.878-47.741-25.275-59.138-40.033 26.463-31.734 66.617-18.531 77.016 15.399 12.101 27.699 26.801 37.601 43.601 6.802 11.5 11.399 24.102 17.199 36 6.301 13.102 10.399 26.602 12.699 40.8 3.602 21.803 3.801 43.803 3.7 65.7 0 5.3-4.4 10.7-2 15.7 7.598-10.003 15.198-21.703 17.996-33.703zM1950.5 826c16.898 14.303 30.398 31.4 42.5 49.9 14.6 22.3 24.698 46.399 31.1 71.899a345.384 345.384 0 0 1 10.102 70.897c1.302 33.899-2.5 66.899-16.399 98.399-3.699 8.399-4.897 17.899-7.199 27-.6 2.5-.397 5.101 2.199 6 3.301 1.101 3.301-2.5 4.5-4.101 6.399-9.399 9.899-20.199 14.103-30.699 7.602-19 12.801-38.5 14.102-58.899 2.397-35.7-.103-71.101-8.602-105.897-11.103-45.9-32.398-86.302-64.898-120.7-6.802-7.2-18.5-18-28.102-24.3-2.006 6.803 1.094 15.803 6.594 20.501zM949.4 1278.2c-.898 20.8 7.698 58.603 16.3 76.603 14.898 31.101 37.7 56.397 62 80.197 22.101 21.604 45.101 42.303 70.398 60.4 20.602 14.8 41.899 28.3 64.802 39.199 5.897 2.801 12 5.5 18.5 6.897 2.5-10.3 2.198-11.197-6.399-14.5-15.601-5.897-30.101-14.3-44.101-23.101-35.2-22.3-66.302-49.899-96.7-78.199-11.898-11.101-22.101-23.897-32.398-36.5-18.398-22.397-32.102-67.101-39.199-95.301-2-8.1-6.102-14.5-11.399-21.399-1.904 2.404-1.704 4.004-1.804 5.704zm1104.498-75.2c-6.897-3.5-12.897-7.697-18.3-13.396-10.301-10.7-21.2-21-31.898-31.4-2.802 8.5-1 17-.5 25.603.398 8 4.301 12.301 11.398 15.698 24.399 11.5 50 19.603 75.5 28.103 2.602.897 5.102 1.3 7.8.601-14-9.509-29-17.407-44-25.209zm35.602 107.5c-.398-2.6-1-5.197-1.2-7.8-.8-17.397-4.898-34.101-12.198-50-3.802-8.301-6.7-19.5-17.4-18.601 1.9 4.7 5.4 20 7.302 24.5 11.5 27.398 14.301 55.801 9.602 84.898-1.102 6.602-3.102 14.199 2.898 18.602 5.496-16.297 13.496-35.797 10.996-51.599zm-89.802-288.5c-1.399-1.8 0-4.397-1.602-6.197-.302-1.603-.5-3.303-.898-4.899-6.899-28.7-19.698-57.101-38.198-79.5-2.5 2.8-6.102 10.8-7.5 14.102-3.602 8.602-2 15.102 4.698 22.102 14.5 15 27.101 31.6 36.898 50.199 1.602 3.101 2.802 6.897 7 7.801-.096-1.108-.196-2.306-.398-3.608z"/><path id="sd1" fill="#643134" d="M1956.198 1006c-5.198-4.197-10.198-8.6-15.5-12.6-5.801-4.4-7.198-4.2-10.5 2.399-10.602 21.5-20.602 43.198-29 65.698-2.698 7.199-5.399 14.302-7.399 21.699-8.5 30.5-8.799 61.699-6.601 93 2.302 33 10.898 64.199 26.802 93.301 6.398 11.699 14.3 22.399 22 33.199.8 1.103 1.3 2.301 1.898 3.5-12.7-7.101-22.602-17.5-31.898-28.397-16.5-19.302-30.5-40.302-43.9-61.899-6.301-10.101-9.698-20.7-10.698-32.5-.5-6.601-3.2-13.801-3.5-20.5-.302-7.5 1.698-14.601 5.601-21.2 17.899-30 27-68.8 33.199-103.199.699-4 4-23.198 5.601-26.897 15.5-36.5 31.2-61.301 41.2-99.801.601-2.199.899-4.603 3.899-6.699 6.897 5.6 15.897 19.8 20.8 27.1-.399 5.4-1.198 14.2-2.3 19.603-.802 4.101.897 7.897 3.698 11 17.102 18.601 31.699 38.801 40.602 62.699 3.802 14.398 6.601 29 8 43.898-.102 2.2 3.398 5.602-2 6.102-3.102-10.5-5.899-21.102-9.698-31.5-5.602-15.199-16-26.602-28.4-36.5-3.704-2.606-7.504-3.906-11.906-1.506zm-821.971 152.721c4-.603 7.873-.118 9.373 2.882 2.102 4.1 4.102 8.399 5.602 12.8 3.5 9.802 14.992 20.308 16.492 30.607 2.6 18.199-8.392 36.192-7.992 54.492.101 3.5 2.947 32.096 5.049 34.998 3.75-16 2.765-22.029 4.151-27.998 6.849-29.752 32.8-5.803 45.3 8 4.802 5.197 8.302 11.197 11.2 17.601 5 11 10.398 22.5 12.601 34.3 6.5 35.103 11.399 61.603 12 97.302.101 3.5-.801 6.198 1.5 10.301 7.5-5.5 2.301-3.5 6.699-10.801-.399-6.602 8.601-11.602 8.801-18.199 1.101-39.899-2-78.899-20.5-115.603-11.601-23-22.301-46.897-43.101-62.698-16-12.199-20-26.5-17.399-44.602-.801-5.601 24.87-26.235 24.268-31.834-2.27-14.77-20.803-13.168-29.604-14.27-10.801-1.398-17.59-2.697-26.688-8.495-7.301-4.602-11.254-11.045-24.754-15.045-8.534-3.347-11.651-13.694-17.553-20.595-7-8.301-24.871-38.518-32.171-46.615.2 6.5 3.6 54.753 6.499 60.354 8.699 17.103 20 32 35.8 43.103 5.602 4 9.899 8.6 11.801 15.3.199-3.306-1.874-4.687 2.626-5.285zM1620.698 743.6c1.802 26.601 4.101 53.101 6.601 79.7 4.102 43.8 10.602 87.397 9.201 131.5-.102 2.8-1.102 6 2.698 9.197 7.802-9.5 15-19.3 20.5-30.3-2-4.2-.899-8.5-.198-12.7 4.198-27.397 3.299-55 1.698-82.5-1.102-20.197-3.399-40.3-5.301-60.5-2.399-26.6-7.5-52.6-16.399-77.8-5.101-14.5-13.601-26.5-25.398-36.2a2641.13 2641.13 0 0 1 6.598 79.603zM1201.9 1757.802c2.898 1.801 5 .301 7.101-.399 9.399-3.5 18.801-6.899 28-10.7 39.101-16 63.899-44.397 73.899-85.697 9.8-40.603 12.3-81.7 6.5-123-4.102-29.7-18.102-54.7-38.802-76.103-1-.897-1.898-.801-2.698.302 11.698 12.801 18.398 28.198 23.5 44.698 9.101 29.5 11.898 59.199 3.601 89.5-15.601 57.103-47.899 104.103-88.399 146.103-1.898 1.897-3.801 3.8-6.898 3.397-2.904 3.399-5.204 7.297-5.804 11.899zM1057.198 929.7c1.898 5.3 5.101 10.103 7.302 15.3 1.398 3.5 10.128 21.94 14.227 21.141 5.198-3.601 9.097-8.016 14.398-11.516 16.143-4.627 1.273-20.025-3.025-26.725-10.801-16.9-20.5-34.301-28.6-52.601-1.9-4.302-4.602-7.302-9.4-8-10.698-1.399-18-8-24.5-15.802-17.199-20.697-29.6-44.197-40.6-68.6-4.302-9.398-7-19.398-8.7-29.7-.3-2.101.602-4.8-2.7-6.5-13.3 15.7-25 32.5-33.1 51.5 3.198 1.399 5.1 4.103 7 6.899 12.698 18.801 27.3 35.801 44.8 50.399 11 9.199 22.8 17.199 33.8 26.301 12 14.604 22.598 29.904 29.098 47.904zM1137 977.9c.3-3.4 3.198-12.4 2.5-15.2-2.2-9.101-4.7-18.101-6.602-27.2-10.898-50-11.102-100.8-6.802-152.1 1-11.9 1.602-25.9 2.899-37.801-9.5 5.398-24 13.301-33.699 18.5-5.102 2.7-6.898 6.398-6.398 12.101 2.102 23.5 3.698 47.103 7.301 70.399 5.101 33.301 12 66.101 24.801 97.4 1 2.5-4.602 10.6-5.301 13.3C1120.698 965.2 1129.4 972.5 1137 977.9zm-87.4 399.902c.302.197 1.102-.303 1.802-.5-1.2-4.303-4.302-7.5-6.5-11.103-34.2-55.101-40.2-116-36.802-178.801.302-5.1 1.9-9.8 6.302-13.1-7.398-.802-10.5 4.1-13.2 9.897-10.198 22.199-14 45.699-14.898 69.802-.8 22.397 2.5 44.397 8.8 66 1.2 4.101 3.2 8.198.602 12.5 15.894 17.403 33.894 32.503 53.894 45.305zm1027.798-158c-17.5-8.103-35.897-13.803-53.5-21.699-7.897-3.601-14.397-8.4-15.601-17.7-.899-7.5-2.899-14.8-4.601-22.101-4.102-3.899-6.198-11.102-10.5-14.8-4-3.5-18.8-21.7-24.399-23-2 3.3-1.5 6-1.5 8.601-.199 15.6.301 31.3-.799 46.899-.802 11-1.9 23.397 22.898 38.101 3.397 1.399 6.5 3.3 9.8 4.8 20.802 9.899 43.601 12.103 65.899 14.802 16.602 2 31.801 5.801 46.602 12.898 2.301.3 3.301-.601 2.898-2.898-4.898-5.802-10-11.602-16.699-15.399-7.498-1.406-13.896-5.504-20.498-8.504zM1395.4 670.4c-3.7 9.3-6.302 17.899-9.899 27.3-9.801 25.603-12.101 53.2-7.699 80.399 6.699 41.101 18.602 80.898 33.102 119.9.398 1 .801 2.6 3.198 1.397-2.897-25.601 1.9-55.2 1.603-81.101-2.5 5.699-5.801 15.5-5.801 21.398-.103 7.801 0 15.602 0 23.801-3-1.102-3.103-2.899-3.5-4.399-8-31.8-9.802-64.399-9.398-96.899.299-31.199 5-62.199 11.799-92.699.601-2.897 2.101-5.897.801-8.801-1.398-3.199-5.1.103-7.1-2-.9-.897-2.102-1.601-3.2-2.397 1.892 5.003-2.006 9.301-3.906 14.101zm-200 1005.8c15.8-7.2 15.8-7.301 22.398 8 .301-5.7 2-11.101 4.199-16.397 7.301-16.899 12.5-34.399 16.5-52.303 6.801-30.197 7.399-60.697 3.399-91.396-.5-3.7-.602-7.802-5.399-11.604-.899 11.4-2 21.5-2.5 31.7-1.601 30-8.301 58.699-21.399 85.699-7.898 16.301-18.898 30.5-33.398 41.801-10.699 8.399-22.699 13.699-35.399 18 18.299-.8 35.299-6 51.599-13.5zm585.1-985.5c1.398 5.103 2.898 10.2 4.398 15.3 10.698 36.5 17.8 73.603 17.602 111.803-.2 22.3.698 44.5-.5 66.8-.102 2.101-1 4.5 2.398 7 6-14.3 11.8-28 17.602-41.603-1.602-3-2-6.3-2-9.697.198-12.603-.602-25.2-1.9-37.803-3-29.5-8.301-58.6-18.6-86.5-3.7-10-7.7-19.8-13.302-29-4.301-7.197-6.899-7.6-14.301-3 4.903-.3 7.403 2.302 8.603 6.7zm-559.9 715.9c-12.801-11.699-25.898-22.899-38.6-34.601-10.302-9.5-19.7-19.699-26.802-32-5.899-10.302-9.301-21.302-9.301-33.199 0-6.301.103-12.603.199-18.899-7 18.699-5.601 38-2.199 56.8 4.603 25.7 20.199 44.103 43 56.603 14.301 7.897 29.699 13 45 18.601-1.297-6.305-6.997-9.305-11.297-13.305zM1428 782.7c4.3 10.8 8.698 22 12.698 32.7 11.601 31.199 23.699 61.6 31.199 94.1.5 2.103.301 4.7 3.301 5.4 2.398-2.601 2.601-6.101 3.699-9.2 11.397-33.397 23.699-66.5 38.397-98.601 2.103-4.5 4.603-8.899 6.9-13.3 2.5-4.7 6.301-6.7 11.6-5.302-10.799-4.398-15.1-3-20.799 7.802-14 26.5-26.602 53.601-36.201 82-1.198 3.601-1.198 9.8-5.1 9.897-5 .103-4.699-6.3-5.9-10.101-10.397-32.3-19.397-64.899-27.6-97.8-9.199-14-14.9-17-16.5-12.801 1.106 5.006 2.004 9.606 4.306 15.206zM1890.198 954c2.398 15.5.898 21.5 1.101 37.103 0 2.897 1.301 11 6.701 7.897 1-1.8 1.698-2.897 2.198-4.1 14.398-24.601 24.199-53.601 30.601-81.5 2.801-12.2 5.899-29 4.801-41.801-1.198 3.801-6.5 11.801-7.5 15.7-4 15.5-7.698 31-11.698 46.397-.802 3.303-.802 7.303-5 9.399-3.899-4.601-6.5-9.699-9.103-14.601-7.101-13.199-14-26.5-21.101-39.699-1.301-2.399-1.899-5.801-5.698-5.801-.399.801-1.102 1.398-1 1.898 2.8 16.3 9.198 47.8 11 64.399 8.6.809 3.5-2.989 4.698 4.709zM1736 786.7c-1.7 30.3 6.6 59.399 2.198 82.103.199 1.897-1.698 4.3 1.5 6.101 3.5-11.101 8-21.7 10.199-33.101-3-9.303-3.199-18.899-3.801-28.5-1.302-20.303-5-40.2-12.101-59.303-.797 11.9 2.703 20.802 2.005 32.7zm-492.302 246.5c10.699 22.8 22.802 45 34.302 67.5 10.898 21.399 21.8 45.899 40.398 61 9 12.3 44.198 38 57 44-4.2-7.301-36.7-37.397-41.898-43.897-26.802-32.803-49.5-68.399-71.802-104.303-7-11.3-12.899-23.197-21.5-33.5.302 3.4 2.102 6.2 3.5 9.2zm28.202 80.4c-19.399-35.199-37-71.199-53.899-107.603-2.699 4.2-1.301 8.2.101 12.4 16.199 47.499 39.102 91.602 67 133.199 2 3 3.899 6.2 7.102 8.2-6.604-15.396-12.204-31.494-20.304-46.196zm61.2-31.7c1.199 1.1 2.4 2.3 3.602 3.5 9.898 9.3 19.802 18.6 29.898 27.8 2.302 2.103 4.102 5.303 9.4 4.803-2.9-6.399-4.2-12.803-7.602-18.5-4.602 3.8-6.5-1-8.802-3.103-20.101-19-39.101-39-56.101-60.897-2.199-2.899-4.101-6.399-10.101-8.7 4.601 9.301 8.101 16.801 12 24.101 6.198 11.399 19.198 21.899 22.101 34.802 2.105-9.306-1.395-9.904 5.605-3.806z"/><path id="hl1" fill="#A7585C" d="M1710.1 431.802c2 3.3 5.4 4.8 8.602 6.697 34.699 21 66.199 45.9 94.199 75.303 3.699 3.897 6.801 8.3 8.199 13.601 1.699 6.3.199 9.699-5.801 11.8-9.5 3.399-19.199 5.802-29.399 3.802-8.8-1.699-17.601-3.602-26.5-5.199-10.5-1.801-15.5 1-19.698 10.699-1.399 3.398-2.5 6.898-4 10.198-4.302 9.103-8.899 11.7-19.102 11.103-6.101-.301-11.801-2.103-17.398-4.2-5-1.899-9.899-3.899-15-5.5-9.399-3-17.699-.699-25 5.801-1.199 1.101-2.5 2.199-3.602 3.5-9.601 12.199-21.801 12.699-35.101 7.5-3.399-1.301-6.801-2.7-10.301-3.899-21.199-7-40-3.101-56.399 12.302-13.101 12.3-16.699 12.601-32 2.5-4.699-3.103-9.5-6.2-14.301-9.103-13.699-8.199-27.802-8.3-42-1.397-6 2.897-12 5.698-17.898 9-9.602 5.397-17.898 3.3-25.602-3.603-2.5-2.199-4.898-4.5-7.199-7-7.301-7.897-16-9.199-25.5-4.897-7.899 3.5-15.601 7.5-23.301 11.397-15.302 7.7-17.802 6.7-22.302-9.5-5.397-19.199-11.5-22.101-29.6-13.699-11.5 5.302-22.4 11.899-34.302 16.302-4 1.5-8.198 3-12.398 3.601-8.398 1.3-13-2.601-12.7-11 .302-6.601 1.7-13.2 2.9-19.7 1-5.601 2.398-11.101 3.5-16.601.698-3.602.698-7.3-.2-10.899-1.3-5.198-4.398-8-9.8-8.3-6.802-.398-13.2 1.3-19.602 3.102-15.398 4.398-30.2 10.602-45 16.5-3.102 1.198-6.3 2.5-9.5 3-4.5.801-6.5-1.699-4.898-5.802.898-2.5 2.5-4.698 3.898-6.897 9.5-15 20.8-28.603 31.7-42.399 2.898-3.699 6.1-7 5.5-12.301-.4-3.398 1.8-5.601 4.398-7.199 21.398-13.5 42.698-27.301 66.102-37.199 3.698-1.602 7.5-2.899 11.6-2.801 2.302 0 4.9-.3 6.102 2.4.898 2.101-.398 3.898-1.5 5.5-2.898 4.101-6.5 7.601-10.301 10.8-10.301 8.5-20.301 17.301-31.399 24.7-1.601 1.101-3.398 2.101-4.198 4.3 1.8 2.5 4.198.5 6.198.7 5.602.699 6.899 2.699 4.5 8-1.5 3.3-3.801 6.3-5.101 9.699-2.301 6.398.699 10 7.199 8.699 3.199-.602 6.301-2.102 9.398-3.199 2.802-1 5.5-2.399 8.399-3 7.801-1.602 12.301 1.699 12.899 9.601.5 7.301.101 14.7.398 22.001.199 4.898-.898 11.101 4.699 13.199 5.899 2.101 8.699-3.899 11.699-7.5 6.699-7.899 13.6-15.602 21-22.699 2.898-2.801 6-5.301 10-6.5 8.199-2.301 13.199 1.699 12.398 10.199-.698 6.898-4.5 12.398-8 18.101-2 3.301-4.898 6.102-5.5 10.102 3.399 1.602 5.102-.5 6.899-1.699 6.601-4.602 12.399-10.102 18-15.801 4.199-4.301 8.699-8.301 14.101-11.102 11.102-5.601 22-.5 24.399 11.602 1.699 8.5 2.5 17.102 3.8 25.699.399 3 .899 6 1.803 8.801 2.397 6.801 7.1 9.301 14.1 7.5 6.601-1.699 12.101-5.398 17.7-9.102 10.698-7.199 13.3-6.898 22.101 2.2 10.199 10.5 22.5 10.699 33.5.199 3.3-3.199 5.899-7.199 8.899-10.801 2.3-2.802 4.5-5.802 7.3-8.199 5.301-4.602 8.801-4.301 13.9.601 13.697 13 21.6 13.899 37.6 3.7 4.5-2.801 8.4-6.5 12.801-9.602 7-4.898 9.101-4.898 15.899.602 4.7 3.8 9.397 7.5 15.397 8.898 7.7 1.801 11.603-1.301 11.2-9.199-.2-3.602-1.301-7.199-1.897-10.801-.4-2.801-2.4-6.199.897-8.199 3.103-1.801 5.603 1.101 8 2.601 5 3.301 9.8 6.899 14.8 10.2 3.7 2.398 7.7 4.101 12.103 4.398 7.397.5 11.397-2.602 12-10.102.397-4.601-.3-9.301-.399-14-.101-3.199 1.699-4.199 4.5-3 3 1.399 5.899 3 8.899 4.602 9.8 5.102 20.397 8.199 31.2 10.602 8.6 1.898 10.897-.301 8.8-8.5-7.7-30.602-19.899-58.7-44.103-80.2-2.101-1.898-4.897-3.5-5.3-7.3 9.199-.801 16.399 5.601 25 6 4.317 1.186 8.317 2.984 12.017 5.686zm-629.933 539.364c2-7.1-12.268-21.979-14.867-28.776-5.7-14.899-18.7-26.487-24-41.587-2.3-6.5-.901-15.303-7.102-19.2-4.102.5-7.599 6.101-7.195 8.601 1.5 9.899 1.1 20 .898 29.899-.102 3.7.102 7.897-3.7 10.601-3.5-2.897-3.8-6.8-5-10.101-3.198-8.8-7-17.3-12.3-25-1.898-2.699-4-5.399-6.398-7.603-3.102-2.8-5.5-1.8-6.102 2.4-.5 3.6-.2 7.3-.5 11-.2 2.8 1 7-2.802 7.6-3.5.603-4.3-3.6-5.6-6.1-2.302-4.4-4.102-9.101-6.4-13.5-1.3-2.5-2.5-1.4-3.1.699.5.601.698.7.5.5 0 0-.2-.199-.5-.602-2.2-2.601-3.4-5.698-4.802-8.698-4.698-10.7-9.398-21.302-14.102-32-.898-2.103-1.8-4.802-4.5-4.802-3.398-.101-4 3.102-4.8 5.602-2.602 8.101-2.5 16.5-1.3 24.801 5.5 35.399 16.8 69.199 30.8 102 1 2.199 1.602 5.199 5.398 5.5 1.898-4.2.699-8.4 0-12.601-.898-5.2-2.5-10.399-2.198-15.8.198-3 .3-6.5 3.698-7.603 3.802-1.301 5.199 2.3 6.699 4.699 4.199 6.399 8 13.101 12.199 19.399 3.301 5 6.899 9.801 10.5 14.601 1.2 1.601 2.801 3.2 5 2.5 2.2-.699 2.5-3 2.801-4.899.301-2.3.5-4.601.899-6.897.7-4.3 1.8-8.5 4.5-12.103 3.301-4.5 7.301-4.697 10.699-.3 2 2.603 3.301 5.699 4.699 8.8 2.398 5.5 4.398 11.103 7 16.603 1.601 3.397 19.492 11.561 20.89 10.358 2.513-7.497 5.888-21.291 10.088-27.991zm886.133 225.136c-3.3-11.303-3.198-23-4.198-34.603-1.102-13.198-2.7-26.198-6.802-38.897-1.8 6.197-2.602 12.397-3.898 18.5-1.302 6.197-2.2 12.601-6.102 18.101-1.3-10.5-1.698-20.7-3.198-30.899-2.2-15.301-4.4-23-8.9-28.5-2.6 3.802-1.198 8.899-4.898 12.5-.801-7-.5-14-.898-20.898-.398-7-.802-14-2.199-20.8-1.301-6.4.601-13.7-4.5-19.4-3.103 2.4-2.699 5.301-2.603 7.801.9 20.699-4 40.3-11.3 59.399-2.7 7-3.102 14.2-2.398 21.601 2.801 26.5 5.898 52.899 9.898 79.3 1.8 12.4 3.898 24.803 5.898 37.2 2.5-25.7-.398-51.897 9.7-76.7 2.898 13 6.198 25.604 10.101 38.803 4.101-3.603 3.5-7.103 4-10.303 1.699-10.896 4.301-21.6 8.601-31.697.802-1.899.802-4.899 4.602-4.803 2.101 4.9 2.199 10.2 3.101 15.4 1 5.8 1 12.1 5.701 16.6.69-2.507.69-5.107.292-7.705zM1163.4 927.4c1.101-6.2 1.601-12.601 2.698-18.801 4.102-24.199 11.5-47.199 24.9-68 2.1-3.199 3.6-8.602 8.1-7.8 4.5.8 3.699 6.5 4.4 10.198 5.8 28.102 11.3 56.199 17 84.302.5 2.3.398 5.2 3.198 6.601 2.5-2.801 2-6 2.302-8.9 1.898-21 6.3-41.5 13.8-61.197 3.5-9.103 7.7-17.803 14.602-24.803 4.698-4.8 8.102-3.8 9.602 2.9 1.398 6.199 2 12.5 2 18.899 0 10 0 20 .3 30 .102 3.601-.398 7.897 4.898 10.7 17.102-40.7 31-81.803 41.802-124.103 1.198 11.699 1.5 23.199.101 34.8-1.199 10.2-3.301 20.399-2.898 30.801.101 3.603-2 9.603 3.199 9.899 4.398.3 4.5-5.801 5.301-9.5 2.801-13.399 4.699-27 5-40.601.699-34 .398-68 .301-102 0-3.801.601-9-4.301-10.102-4.301-1-5.699 3.801-7.699 6.699-10.801 15.898-17.602 33.602-23.801 51.602-.801 2.301-.899 5-3.801 7-2.302-6-2.199-11.699-2.398-17.301-.302-5.699.198-11.602-3.302-17.802-3.5 4.399-4.3 8.399-5.5 12.103-7.102 22.199-12.198 45.101-21.698 66.5-1.102 2.397-1.9 5-3.302 7.301-1.899 3.3-4.3 3.199-5.8-.102-1-2.398-1.603-5.102-2.103-7.699-2.5-13.103-4-26.301-4.199-39.699-.301-14-.101-28-.301-42 0-2.602.801-5.9-3.5-8.4-2.3 8-4.5 15.301-6.5 22.602-4.3 16.102-8.397 32.199-12.8 48.302-.899 3.198-1.101 7.101-5.601 9.5-2.899-7.5-3.802-14.7-5.103-21.899-4.101-23-7-46.101-9.897-69.2-.302-2.397.397-5.5-3-6.5-.7.399-1.399.603-1.802 1-.698.7-1.398 1.5-2 2.2-9.6 12-15.1 25.699-17.198 40.899a1390.736 1390.736 0 0 0-9 86.397c-2.5 35.2-3.899 70.5-3.302 105.802.102 3.101-.898 6.801 3.199 9.198 3.303-2.596 3.503-6.394 4.103-9.796zm281.4-184.9c3.5-6.1 7.2-12.1 12.7-16.6 4.5-3.601 7.5-2.5 8.198 3.1.5 4.303.101 8.7.601 13 .701 6.2 3.701 7.4 8.701 3.5 2.898-2.197 5.299-5 8.1-7.397 7-6.103 8.602-5.8 13.4 2.101 3.698 6 6.299 6.5 11.898 2.103 3.102-2.5 5.897-5.5 9.102-7.801 9-6.399 14.299-5.102 18.898 4.801 3.198 6.897 5.602 14.3 8.8 21.199 1.601 3.398 2.5 9.398 6.898 8.601 5.399-1 3.699-7.101 3.602-11-.602-22-2.5-43.899-6.899-65.5C1548.1 689 1547 685.5 1545.6 682.1c-1.801-4.3-3.898-9-9.5-9.103-5.5-.1-6.5 5-8.1 8.9-2.602 6.1-5 12.399-7.602 18.5-.602 1.5-1.7 3.1-3.602 3.1-2.5.103-3.2-2-3.898-3.897-1.302-3.8-2.398-7.603-4-11.3-1.302-3-2.802-6.399-6.898-6.399-3.602 0-4.7 3.399-6.102 5.899-1.898 3.5-3.5 7.197-5.5 10.697-1.302 2.2-2.5 5.2-5.802 4.5-2.698-.6-2.801-3.5-3.398-5.697-.801-2.899-1.301-5.899-1.899-8.803-1.199-5.197-2.898-10.3-5.699-14.897-3.6-5.8-6.698-5.699-9.898.397-2.198 4.103-3.698 8.603-7.198 11.9-3 2.8-5.2 2.3-7-1.4-.602-1.197-.802-2.5-1.302-3.8-1.399-3.5-1.399-9.3-6.602-8.3-4.898.899-3.6 6.5-3.6 10.199-.102 19.7 0 39.301.1 59 0 2.601-.5 5.397 1.5 8.5 3.4-1.794 3.8-5.096 5.2-7.596zm480.3-5.1c-3.1-12.301-6.698-24.4-11.801-36-1.199-2.7-2.5-5.5-4.101-8-2.399-3.601-5.602-6.101-10.102-3.5-4.198 2.5-5.898.3-7.601-3.101-2.601-5.399-5.399-10.7-8.199-16-1.102-2-2.398-4-3.801-5.802-1.199-1.5-2.801-3.398-5-2.198-2.199 1.101-1.601 3.397-1.301 5.397.398 2.301 1.1 4.5 1.5 6.801 1.6 8.802 3.398 17.699 4.801 26.5.601 4.103 1.399 8.399-1 13.399-8.199-10.399-14-21.7-24.5-30.801-.5 7.7 4.301 13.5 2.801 20-2.2 0-2.898-1.199-3.7-2.199-3.898-5-7.601-10.101-11.601-15-3.199-3.899-6.899-7.301-12.199-8.101-6.301-.899-9.602 3.101-7.398 9 .5 1.199 1.198 2.398 1.898 3.5 11.898 19 20.398 39.601 28 60.699.699 1.898.398 4.801 3.802 5.301.198-1.5.5-2.801.5-4.102.198-5-.4-10 1.198-14.898 1.602-4.899 4.602-5.602 7.898-1.602 2.102 2.5 3.602 5.602 5.4 8.398 1.698 2.801 2.198 7.301 5.698 7.7 4.602.601 3.602-4.7 5.302-7.301 3.301-5.102 7-5.801 11.301-1.199 2.897 3.101 5.299 6.898 7.397 10.601 7.603 13.301 15.302 26.5 21.603 40.5 1.397 3.199 3.397 6.199 5.101 9.301-1.302-7.699-4-14.801-6.302-21.898-2.398-7.301-4.698-14.602-6.398-22.102-1.698-7.102-5.698-13.801-4.398-21.898 6.398 1.5 9.398 7.398 15.5 9.101 1.902-4.196.502-7.396-.298-10.496zm-840.8 564.7c3.602 11.101 7.802 21.899 12.398 32.601 3.898 8.899 8.398 17.399 13.802 25.399 1.8 2.801 3.5 8.2 7.602 6.2 3.6-1.803 1-6.603.5-10.103-.2-1.601-.802-3.199-1.102-4.897-1.5-8.2-3.5-16.303-4.5-24.5-1.5-12.9-2.102-25.9 1.602-38.603.6-2 .6-4.897 4.5-4.897 3.6 10.397 4.198 21.8 10.1 31.8.9-9.601.9-19 .9-28.5.1-18.5-4.7-36.199-8.802-54.101-.698-2.802-1.398-6.399-5.198-6.302-3.802.103-4.2 3.802-5.2 6.5-3.199 8-6.102 16.199-9.5 24.199-1.199 2.9-1.699 6.5-5.5 8-3-2.899-2.699-6.8-3.699-10.199-4.199-14.698-8.101-29.5-12.399-44.198-.8-2.899-1-7.802-5.198-7.199-3.399.5-2.198 4.897-2.5 7.801-.5 3.699.898 7.8-1.698 11.399-3.201-1.803-3.4-4.7-4.201-7.103-5.199-14-10.299-28.101-15.5-42.198-1-2.802-2.101-5.603-3.601-8.199-1.698-2.899-3.802-2.399-5 .5-2.198 5.397-1.899 11-1.302 16.699 1.7 14.601 4 29 7.302 43.301 7.898 34 15 68.3 23.898 102.101 1.198 4.601 1.698 9.601 6.801 13.899 2.603-9.103.103-16.801-.397-24.5-.5-7.899-4.603-16 .397-24.399 4.095 2.299 4.393 6.201 5.495 9.499z"/><path fill="#448986" d="M1035.5 686c-6.802 61.603 1.698 123.9 27.8 181.803-7.8 1.5-11.5-2.5-15.198-5.603-7.7-6.5-14.602-13.5-20.5-21.101-13-16.699-25-33.899-34.9-52-8.398-15.3-13.3-31.199-11.8-48.199.5-6 2.898-10.7 8.102-15.301 11.1-9.699 21-20.3 32.698-29.602 2.996-2.397 7.298-9.097 13.798-9.997z"/><path fill="none" stroke="#000" stroke-miterlimit="10" stroke-width="6" d="M1049.6 1377.802c-182.3-129.103-90.3-239.803-75.4-301.201 10.898-30.399 19.802-57.199-14.602-105.8-56.398-82.602-26.898-135.4-22.398-160.5 4.5-25.103 46.802-75.5 52.398-82.899 5.601-7.398 40-38.5 40-38.5l17.199-27.101C1151 401 1444 370 1459.198 370.801 1474.4 371.6 1583 354 1729.4 442c146.4 88 187.6 208 197.6 245 30.5 75.5 5 229 5 229-5 37.5-39 92.5-39 92.5s-4.5-77-4-68.5 3.398 18.2 0 86c-25 153-113 208-101.7 197.4 11.302-10.601 28.7-80.4 30.398-74.9 1.7 5.5-40.602 26.4-36 17.303 55.2-112.803 51.602-153.8 65.5-202.3 16.102-114.2 7.398-189.503 5.398-172.899-2 16.602-71.3 144-52.698 102.699 8.398-148.8-27.302-222.699-23.802-208.699.5 97.3-40.198 196-36.5 190.3 3.7-5.7-9-199-16.101-120.5s-90.899 242.2-84.301 209.603c6.602-32.603-29.3-374.7-29.898-300-.602 74.698-45.301 207.3-69.102 223.897-1.1-107.8-4.398-99.397-16-94.101-11.6 5.301-34.5 81.301-51.1 127.301-21-73.5-49.302-144.899-49.302-144.899s-9.5 32.302-9.698 123.102c-78.5-149.3-11.7-240.602-14.802-243-3.102-2.399-35.698 84-46.602 126.801C1306 916 1374 1121.302 1374 1121.302s-46-49.303-44.2-42c1.802 7.301 4.2 20 47.898 125.101C1298 1190.802 1224 996 1221.5 1003.302c-2.5 7.3 82.6 163 85.898 193.301-65.302-20-130.7-150-159.7-212.7s-21.602-200.101-16.3-239.3c-21.302 113.3 12.698 235 9 234.3-3.7-.7-14-6.3-14-6.3-125-133.7-84.7-335.301-85.302-296.301-8.698 34-5.3 108.301 21.302 195.301-72.7-39.7-84.802-141.2-86-127.5C1007 856 1054.9 868 1058 870c3.1 2 41.342 66.529 44.141 73.127 2.8 6.603-25.56 26.751-25.56 26.751s-42.585-80.778-39.485-76.578c3.102 4.2 33.073 64.391 41.07 77.867-5.8 11.1-10.071 55.049 6.632 85.252 29.7 60.699 66.74 70.548 76.04 74.748 9.302 4.2 49.292 2.62 46.694 14.12 5.3 35.5 5.399 45.914 32.3 64.213 89.466 50.667 52.667 123 38.469 168.104-12.542 37.438-30.861 67.691-31.161 52.792-.3-152.7-51.891-186.146-72.618-176.825-9.3 8.602-10.673 43.73-11.772 40.93-.479-1.217-7.345-17.323-6.5-39 .548-14.069 10.009-30.769 7.305-46.302-2.716-15.599-5.562-32.76-16.853-41.896-15.202-12.303-25.702-22.803-16.451-6.926 22.198 61.5 18.451 74.426 16.053 115.926-8.102 72.5 55.398 113 55.398 113l27.4 24.5s65.502 56.5 81.502 97c25.898 139-15.602 196.5-39.5 215.697-23.9 19.2-77.602 38.303-69.102 31.104 8.5-7.2 19.102-41.802 16.602-69.302s-15.699-15.5-21.302-13.102c-5.601 2.4-32.101 11.4-32.101 11.4-97.101 17.199-143.601-27.801-136.601-28.103 7-.301 44.5 20.302 90.301 2.5 99.199-80.198 72.97-127.902 61.8-161.198-10.339-30.82-18.199-29-74.5-83.199-62.699-68.801-83.8-199.5-85.601-227.301-1.802-27.802-11.102-9-11.102-9-18.601 123.101 41.102 198.897 41.102 198.897m797.3-229.696c-2.102 56.2 16.698 81.104 58 128.5 41.3 47.4 41.3 47.303 105.3 86.9 93.399 57.199 87.301 99.5 92.7 163.1 17.898-65.3-.602-98.1-22.898-150.896-22.298-52.799-62.302-70.9-86.5-91.7s-34.5-44.8-29.5-103.398c5-58.602.698-57.302-6.198-113.898-6.899-56.603.3-63.103.3-63.103s28.2 5.103 47.101 70.802C2009.3 967.7 1934 902.003 1934 902.003m30.6 285.799c8.699 25.301 46.802 40.197 65.302 40.897 18.499.699 60.601 10 84.7 15-8.802-21-60.7-33.601-73.7-49.198-13-15.603-75.2-79.802-75.2-79.802m87.996 116.801s31.802 49.104 20.302 115.104c-6 26 10.5 10.5 12.8 0 2.302-10.5 9.7-74.301-17.398-112.301M1942 818.5s147 113.5 69.1 323.4c-4.801 27.399 12.199-6.2 15.199-13.7S2104 943.302 1944.5 802.5M948 1264s-24 152 233.5 277.4c12.898-8.5-9-14.9-18-22.4-9.5-5.6-184.5-87.5-200.7-227.5"/></svg>