<svg xmlns="http://www.w3.org/2000/svg" id="hair" viewBox="0 0 3000 3000"><path id="cl1" fill="#F2D37E" d="M1266 389c206-94 336-34 441 21s239.067 184.636 248.066 349.628c-3.566 232.872-36.691 275.584-58.691 315.584-46 84-104 125-120 119 20-34 57-112 57-112s-17.282 16.64-45 29c38-53 74.625-245.212 59.625-316.638C1807 903 1787 918 1789 909s0-117 0-141-25-85-25-85v76c0 20-34 159-39 125s-5-134-5-131-17 76-34 127-67 105-68 102 9-52 0-90-27-246-23-236-18 103-22 138.574C1529 916 1514 901 1514 901V790c0 3-48 146-60 133-19-66-40.238-107.33-42-152-7 18-15 51-14 153-24-25-58-139-49-192-73 191 16 411 16 411s-45-34-60-54c8 23 67 144 67 144s-56-36-115-99c3 10 43 79 33 84-17-7-78-75-93-99s-68-161-68-161l-32-187s21 131 25.61 165.62c-16.5-6-94.495 16.499-61.497 113.994 56.387 110.554 153.413 139.154 153.413 139.154s-27.419-43.159-28.919-35.66c-1.5 7.498-53.998-16.5-85.495-44.998-31.498-28.5-87.828-107.589-91.496-128.995C957.618 651.634 1073.113 488.141 1189 434c13 .5 43.58 42.64 40.104 37.643-49.498-68.997-143.992-115.495-143.992-115.495C1170 313 1266 389 1266 389zm-157.227 102.78S987 435 869 521s-95 225-90 245 12.88 146 156.939 203c42.122 16 72.676 11.116 72.676 11.116S948 675 1108.773 491.78zM1051 481s2 38-62 83c-9.06 2.865-76.125-56.972-85.668-58 0 0-54 62.668-30.666 142 13.428 27.965 63.332-4 63.332-4l48-73.765C984 570.235 1045.332 524 1051 481zM936 644c-26 25.334-45.991 10.171-62 15.471-19.334 84 8.666 129.863 21.332 131.197C907.998 792 930 754 930 754l62 50-56.668-53.332 47.334-61.334L1008 686h-24.668l-48-37.332m-47.332-134C792.666 588.668 796.666 644 796.666 644l30.668 46.668 36-39.334c.666-42 7.233-76.834 24.666-136.666zm-99.334 126.666c-21.332 84 0 142 0 142l36.668-86.668-36.668-55.332zm72 268.666l6.15-98.666s-4.15 79.332.574 102c67.941 4.666 105.275-16 105.275-16s6.582 1.664 23.556 6.666C888.666 854 888 793.668 888 793.668L861.334 804l-68-20.666C790 868.668 860.666 910 860.666 910z"/><path id="sd1" fill="#C39958" d="M1107.773 493.78L1139 462l50-28 47 40.636 7 18.364-109-18s7-5-31 22c-115 160-106 307-102 317s13 25 45 35 59-66 59-66l23 165 65 117 9-75 53 92V982l61 77s9-72 9-57 22 85 40 141c-16-9-55-46-64-55 0 16 80 144 63.729 140.074C1295 1173 1255 1125 1257 1134s56 94 32 81-80-69-93-101c-21-26-66-150-66-150s-5.556-19.832-13.168-19.451c-7.611.38-18.084 4.021-31.793 13.088-17.107 33.529-20.653 44.138-5.539 83.752 66.886 132.386 118.86 91.133 118.86 91.133s68.896 80.957 53.355 70.072C1126.5 1169.168 1067.932 1073.527 1057 1058c-7.83-11.121-35-48-53-77-116.834 3.5-171.334-74.334-191-119 31 22 49-29 49-29s9-27-.666-29c-91.334-20-80.25-19.412-80.25-19.412l13.584-33.255S824 775 840 779s24-32.048 24-32.048L866 686l-5-29-35.666 39.668-39.103-64.836s5-18 6-13S819 651 837 646c7-2 18.985-12.005 29-48 16-70 37.229-107.653 27.229-87.653C840.229 656.346 949 623 949 623s-7 9-18 22-47 14-47 18-14 75 21 83c53 11 67-77 67-77 12-122 79-188 79-188l56.773 12.78zM1397 927c-2-6-1-94-1-108s12-42 12-42l46 155 61-138-1 107c54.666-35.666 78-207 78-207s36.666 244.668 26 288c61-56 73.332-106 97-206-1.805 7.879 2.974 75.861 9.974 113.861C1765.974 814.861 1761 677 1763 685c27 73 29 224 29 224s54-89 57-121c-.334 227.334-60.625 323.212-55.625 320.212s40-26 40-26-49 98-48 110C1884.375 1072.212 1899 988 1899 988s-24.625 22.212-33.625 46.212c-3-44-13.375 10.788 5.625-112.212s-22-224-22-224-52 133-41 86-39-156-39-156l-40 174-27-75s-40 151-46 133c-44-183-61.633-194.646-61.633-194.646L1549 808.202 1536 727l-73 133s-46.846-150.236-57-165c-9 11-46.524 143.073-46.524 143.073S1399 933 1397 927z"/><path id="hl1" fill="#FFFDC9" d="M856 542s2.666 76-52 74.668c-1.334-17.334 49.332-71.334 52-74.668zm-23.334 154.668S817.332 757.334 818 762c.666 4.668 22.666-21.332 23.332-26 .666-4.666 10-27.332 10-49.332l-18.666 10zm62.666-10s-6 34.666 5.334 34c11.332-.668 14-15.99 20-16.995s7.332 15.553 10.666 20.939c3.334 5.388 20-5.333 20-18.974s3.334-27.641-8-29.641c-11.332-1.999-42-7.329-48 10.671zm33.334-156l-13.332 14.666s-3.334 60 6.666 60 34.668-16.666 36.668-22.666 8-26.117 0-34.06-30.002-17.94-30.002-17.94zm-9.334-15.334l124-12s9.334-10.668 8-24.668c-1.332-14-133.24 3.095-140.666 22.668-3.666 9.666 8.666 14 8.666 14zM1168 518s-15.334-10.666-31.334 20.668S1096.666 622 1086 632c-10.668 10 90-62 93.332-64 3.334-1.998-18 51.239-16 64.953 2 13.715 52.668-41.619 56-43.619 3.334-2 14.668-14.666 17.334 16 2.666 30.668 26-14.666 42.666-18C1296 584 1302 610.668 1304 612.668s21.725-.666 38.528-19.334c16.804-18.666 12.138 10.666 14.138 12S1374 577.351 1380 579.343c6 1.99 15.332 4.657 22 15.325 6.666 10.666 24.666-17.334 27.332-10 2.666 7.332 9.334 26.034 18.668 32.018 9.334 5.982 25.332-24.018 22-71.352-3.334-47.334-10-46-28.668-18.666-18.666 27.332-28 43.332-33.332 4-1.334-17.334-28.668 30-44.271 32.666-6.397 5.334-27.729-3.334-30.397-21.334-2.666-18-17.332 6-24.666 8-12 6.668-34 4-43.334-5.332-9.332-9.334-17.332 12-28 12-10.666 0-10.666-12.002-22-14.668-11.332-2.666-12.666 6-22 6.668-9.332.666-19.289-28.929-25.332-30.668zm-42.666 181.862s14 214.141 26.666 242.141c7.334.859-3.332-41.333 31.334-97.333 0 19.333 13.332 65.333 18 79.333 6.077-23.894 6.666-69.333 22-75.333 10.123 10.398 15.332 64 34 85.333 7.332-114 21.334-176.667 32.666-204.667 11.334-28-44 75.874-52 91.604s-8-67.604-12.666-75.604c-4.668-8-20 59.732-32.668 64.866-12.666 5.135-6-56.199-13.332-72.199-7.334-16-11.334 65.732-12 70.199-.668 4.468-28-99.813-42-108.34zm-14.668-336.528c2 0 150 48.667 163.334 66.668 82.666-65.334 276-72.668 330.666-57.334C1498 316.001 1297.004 368.074 1270 390.001c-57.334-48.667-163.334-49.132-180-42.898-16.668 6.232 20.666 16.231 20.666 16.231zm434.002 151.334l4.666 75.332s6.668 12 16-25.332c9.334-37.334 10.668-20.668 14-16.668 3.334 4 12.666 57.418 25.334 23.377 12.666-34.043 20.666-11.377 28-2.709 7.332 8.666 10.666-5.334 11.332-19.334.668-14 13.334-28.666 28.668-3.332 15.332 25.334 41.998 29.332 43.332 31.332s17.334 16.668 14-12c-3.332-28.666 6.002-32.162 23.334-12.081 17.334 20.081 26.666 30.081 29.334 5.415 2.666-24.666 50.666 35.332 56 45.332 5.332 10 48.666 48.668 0-17.332-16-37.334-36.668-94.668-150-143.334 32.666 25.334 50.666 71.334 50.666 71.334s-70.668-38.668-83.334-36c9.334 9.332 17.334 24 17.334 24S1627.334 472 1618 488c-9.332 16-5.332 25.334-5.332 25.334s-37.334-22.668-38-14.668c-.668 8 8 24 .666 24.668-7.334.666-30.666-8.666-30.666-8.666z"/><path fill="none" stroke="#000" stroke-miterlimit="10" stroke-width="6" d="M1265 391c206-94 336-34 441 21s240.067 184.636 249.066 349.628C1949.5 1009.5 1916.5 1031 1896.375 1077.212c-46 84-81.43 101.352-121 119 20-34 57-112 57-112s-17.282 16.64-45 29c38-53 74.625-245.212 59.625-316.638C1806 905 1786 920 1788 911s-.88-117.356-5-141c-4.415-25.339-20-85-20-85s-.133 56.087-2 76c-2.25 24-32 159-37 125s-5-134-5-131-17 76-34 127-67 105-68 102 9-52 0-90-27-246-23-236-18 103-22 138.574C1528 918 1513 903 1513 903V792c0 3-48 146-60 133-19-66-40.238-107.33-42-152-7 18-15 51-14 153-24-25-58-139-49-192-73 191 16 411 16 411s-45-34-60-54c8 23 67 144 67 144s-56-36-115-99c3 10 43 79 33 84-17-7-78-75-93-99s-68-161-68-161l-25.5-193.5s18.077 142.455 22.688 177.075c-17.946 2.134-74.356 10.259-47.022 93.259 68.996 134.992 120.193 95.688 120.193 95.688l58.964 71.524s-95.825-21.878-158.212-92.936c-28.025-31.92-87.828-107.589-91.496-128.995C956.618 653.634 1072.113 490.141 1188 436c13 .5 43.58 42.64 40.104 37.643-49.498-68.997-143.992-115.495-143.992-115.495C1169 315 1265 391 1265 391zm-157.227 102.78S986 437 868 523s-95 225-90 245 12.88 146 156.939 203c42.122 16 72.676 11.116 72.676 11.116s-64.781-309.949 100.158-488.336zm-58.441-14.112S1052 521 988 566c-9.06 2.865-81.445-60.346-90.986-61.375 0 0-48.68 66.041-25.348 145.375 13.429 27.965 63.334-4 63.334-4l48-73.765s60.666-49.567 66.332-92.567zM935 646c-26 25.334-63.009 12.311-65.334 6-19.332 84 4.668 142.334 17.334 143.668 12.668 1.334 47.334-43 47.334-43l61.162 57.534-61.162-57.534 47.332-61.334L1007 688h-24.668l-51.035-39.794m-34.283-143.581C798.666 572 786.059 634.941 786.059 634.941l39.275 61.727L868.667 650c-6.779-38.901-10.667-83.334 28.347-145.375zM786.059 634.941c-21.333 84-4.974 149.646-4.974 149.646l43.249-85.92-38.275-63.726zm64.414 283.227L861.334 804s-15.587 91.5-10.861 114.168c67.941 4.666 121.193-18.834 121.193-18.834s6.584 1.664 23.557 6.666C887.666 856 887 795.668 887 795.668L860.334 806l-78.354-16.796C798 868 850.473 918.168 850.473 918.168z"/></svg>