<svg xmlns="http://www.w3.org/2000/svg" id="hair" viewBox="0 0 3000 3000"><path id="cl1" fill="#FFF" d="M874.166 1314.658L894 1156s-42.283-81.063-70.643-112.53c-28.358-31.468-86.724-106.453-81.066-145.47 5.658-39.016 24.565-97.829 24.565-97.829s39.183-72.438 43.449-93.07c4.266-20.632 3.888-30.373-5.884-51.88s-34.188-64.603-29.806-104.661c4.382-40.06 36.222-58.017 49.053-62.287s86.31-55.373 158.319-51.822c72.01 3.552 117.954 37.359 145.232 60.455 27.277 23.097 35.861 36.215 35.861 36.215s77.92-80.659 141.383-106.714c63.463-26.054 143.853-61.907 257.442-37.406s190.229 75.375 210.429 89.74c20.198 14.365 42.158 35.283 54.16 36.272 12.002.988 22.932-10.166 51.563-18.197s76.615-23.41 114.526-11.612c37.912 11.799 53.418 58.847 64.666 85.072 11.246 26.227 13.026 112.151 12.444 130.706s2.49 60.51 24.511 92.358c22.021 31.848 49.08 64.348 61.187 99.005s13.761 80.218-5.242 125.708-27.243 62.827-36.698 70.888c-9.453 8.061-20.056 18.098-24.004 27.569-3.949 9.471-26.75 78.496-33.987 89.542-7.238 11.045-24.352 43.129-28.196 70.588S2021 1345 2021 1345l-53-97-82 89-4.306-124.539-65.585 62.461 24.963-80.075s44.676-149.354 42.051-196.314c-2.623-46.96-.623-50.032-.623-50.032l-50.214-64.5-4.012 128.245-7.063 11.542s-45.048 57.415-43.932 78.75 6.277 86.771-1.438 122.859-18.71 63.526-18.71 63.526 6.44-67.714-.346-119.569c-6.787-51.855-.185-61.972 8.688-89.03 8.873-27.058 29.583-93.791 29.683-119.764.101-25.973-12.078-107.086-27.207-152.201s-37.388-101.953-42.567-111.06c-5.181-9.107-6.601-14.629-25.877-26.35-19.277-11.72-88.337-56.077-125.674-55.117 0 0-40.741-4.43-62.287 11.868-21.546 16.299-55.698 96.675-62.881 122.233-7.184 25.559-20.739 95.879-21.202 112.972 0 0-10.9-27.252-3.683-88.83 7.219-61.577 17.827-94.547 17.827-94.547s-42.417 36.994-60.309 69.479c-17.893 32.483-32.096 59.504-34.447 98.998-2.351 39.493 6.282 95.213 1.958 116.427s-23.832 72.551-56.321 112.559c-32.488 40.009-55.164 76.276-62.891 94.049-7.724 17.772-25.595 77.46-27.595 93.96 0 0-13.031-37.563-5.517-79.281s51.517-101.717 68.017-124.515c16.5-22.797 51.128-76.068 52.149-100.929 1.022-24.86-1.792-44.497-9.416-62.375s-16.574-38.62-16.574-38.62L1253 888l-39.256 149.171-12.646 85.151-19.314 64.487-22.853 52.177 26.254-148.96s2.729-53.872-1.602-97.991c-4.332-44.118-7.188-66.166-7.188-66.166s-29.347 72.44-30.591 100.104 2.448 46.084 2.448 46.084-20.301-69.956-4.599-137.533l5.336-27.302-11.688 22.891s-22.983 10.411-30.302.887l-7.319-9.525L1099 931l-8.203 1.811s-11.072-43.473-11.29-96.875c-.219-53.402 10.411-133.956 10.411-133.956l4.773-16.085-50.234 69.069-24.94 36.063-18.483 57.801s-6.617 46.722-3.44 68.751c3.177 22.03 13.646 72.48 19.961 89.576 6.313 17.097 25.7 45.011 30.947 57.612s29.771 63.818 34.51 84.366S1090 1205 1090 1205l-64-52s-13.636 17.891-3.317 55.445C1033 1246 1051.5 1267.5 1057 1293s-11 43.935-9.5 47.468c1.498 3.533-18.574 23.698-18.574 23.698s-3.626-39.328-18.618-60.552C995.316 1282.391 926 1215 926 1215s-40.166 91.315-51.834 99.658z"/><path fill="#363AE7" d="M1162 535.334l12.666-8s5.334 20.666 6 25.332c.668 4.666-66 127.334-67.332 96.668C1112 618.669 1148.666 530 1148.666 530l13.334 5.334zM1894.666 902L1880 950s8 78.668-1.334 100.668S1847.332 1205.334 1815 1269c-4.193 19.766 64.332-46.332 64.332-46.332L1890 1335.334l76-82 54.666 94s0-84 37.334-151.334c21.998-65.332 67.332-117.998 85.332-165.332 6-9.334 34.666-73.334 15.998-136.668-26.188-53.657-64-86.666-78-138-2-20.666-36.666 186-36.666 186l-40-71.332s-24.666 66.666-23.334 94c-6.087 1.396-34.666-54.668-34.666-54.668l-23.334 76.668c-.001.001-24.66-29.334-28.664-84.668z"/><path fill="#E556A7" d="M1882 579.334c6 18.666-.666 79.332-2 65.332-1.332-14-54.666-123.332-54.666-123.332 40.666 2 50.666 39.335 56.666 58zM782 798.669s-34.757 37.579-37.712 75.122c-2.954 37.543-3.334 59.543 18.854 85.543 22.189 26 130.189 180 130.189 192 5.331 48.668-17 161.5-17 161.5L922.664 1218s3.334-13.332 64.668 56c22.666 28.668 44 64.666 42 83.334-2 18.666 20-16 26.666-33.334 8.502-45.75-42.248-116.25-38-138.666C1015.5 1164 1026 1153 1026 1153l63.998 49.668s14-30-58-169.334c-21.332-27.332-36.666-90-36-97.332.669-7.334-19.332 28-19.332 28l-8-78.668L912 994.669S903.334 926 898.668 912c-8.556-.616-41.334 33.334-41.334 33.334S864.002 824 864.668 814c.668-10-64.666 66-64.666 66l-16.668 11.334L782 798.669z"/><path id="sd1" fill="#514D43" d="M858.666 749.332c-2.669 30-65.334 130-72 144-6.669 13.999-20 37.332-15.334 63.332 4.668 26 60.707 97.37 88.668 128 6.666-3.332 18.625-68.666 18.625-68.666 2.625-10-4.313-60.677 0-110 11.291-42 32.041-51.334 32.041-51.334s-18 16.668-11.332 40c12.666 44 4.5 231.836 4.5 231.836s-7.916 18.043-8.548 31.38c-.666 42.668-13.286 97.452-13.952 134.118C946.666 1183.332 971 1082.5 971 1082.5c10.75-68.25 26-148.332 26-148.332s13.668 31.164 17.668 76.498c4 45.332-54 236.666-62 231.332s-22.34-32.166-28.34-23.5c-6 8.668-56.997 118.168-54.328 104.168 2.666-14 32-133.334 24.666-168.666-7.332-35.334-122.666-175.334-129.335-192.666-6.666-17.334-34-23.334-18-87.543C847.331 755.334 852 668 852 668c9.334 21.337 9.331 51.332 6.666 81.332zM1144 527.334s-100.668-46.002-216-6c79.467-15.767 194 12 204 35.334l-10 18S984.666 562 908 672c0 0 104.666-68.666 168-63.332 0 0-74.668 71.332-97.334 107.332 15.334-7.331 88-16 88-16l18-1.331 6.668-2.669s-34.719 205.673 7.5 247.127c7.73 7.591 41 1.421 41 1.421s4.833 66.786 4.167 84.786c10.666-55.334 30.666-92 30.666-92s20 105.332 14 140.666-29.332 152-29.332 152 32.666-57.332 35.332-78c2.668-20.666 19-102.666 18.668-107.332C1213 1040 1252 891.334 1253 888c1-3.331 30.332-25.332 30.332-25.332l-4.666-41.334-5.334-6s-46 61.334-50.666 78l-22-10.666s13.332-51.334 55.332-123.334c3.334-2-76 105.334-76 105.334l-12.666-11.334 36-96-57.334 66-22.666-34s-14-12.666-10.035-96c2.035-8.666 42.703-44.666 98.035-33.332 9.781 2.186 47.334 25.332 47.334 25.332s-12-34.666-62.668-67.332c0 0 126 20 156.668 38.666-21.93-20.76-57.334-49.334-80.668-62.666-23.332-13.334-78.666-18.668-78.666-18.668s37.332-38.666 109.332-74C1313.65 495.727 1236 514 1187.334 550c6-13.331 40.666-68 40.666-68l-60 49.334-24-4zm342.668 34s-91.334 78-88.668 154.668l37.334-36.668 51.334-118zm-66.666-172.001s83.332-10 139.332 186.001c0 0-30.666-100-8.666-188.001-52.666-15.333-118-2.666-130.666 2zm238.668 126.001s156.337 8.666 161.834 12c5.498 3.332 5.498 6.666 5.498 6.666s-48 48.666-98 76.666c-20 14.669 86.002-26 108.668-21.332-6.668 26-40.668 103.332-43.334 116.666 17.334-16 58-44 66.666-44 8.668 0 25.334 153.334-18 217.334-8.922 15.313 20 48.666 20 48.666s28.668 16 18.668 102.668c-10 52.666 34.666-105.334 34.666-105.334l34 122L1962.002 996s-37.332-140-44-170.666c-6.666-30.668 10-29.334 12-56.668s-13.998-85.332-39.332-107.332c-5.334-17.334-2.891-22.666-2.891-22.666s39.557 19.332 60.891 62c34.666 92-1.334 194.666 36.666 227.334 34 44.666 127.334 111.334 131.334 142.666 5.311 7.826 30-38 30-42.666s-34.668-70-97.334-112.668c-19.334-11.332-34-32.666-50.666-75.332-16.668-42.666 1.334-45.334-2.666-105.334s-21.334-95.332-93.334-154c-15.334-28-28-51.998-41.334-59.332l44-29.334s-68 26.666-72 24.666-75.334-24.668-174.666-1.334z" opacity=".5"/><path fill="none" stroke="#000" stroke-miterlimit="10" stroke-width="6" d="M1811.7 507.902c19.483 15.68 30.3 1.098 30.3 1.098 149-54 175-24 205 35s22 163 22 181 25 79 50 103c47 53 51 120 39 164s-30 89-54 105-27 81-55 119-28 129-28 129l-53-97-82 89-2-118s80.182-161.457 77.182-216.457c-36 157-84.182 216.457-84.182 216.457s-83 83-62 50c85-225 69-315 64-321s-46.714-64-46.714-64S1804 721 1805 734c42 170 23 280 23 280-11 18-47.91 56.396-51 91 5 63 8 128-26 204 17-38 9-118 3-162s25-80 39-174c18-67-58-271-76-289s-120.834-72.666-140.834-67.666c4-26-34.166-166.334-87.166-234.334 61 80 84.832 233.834 84.832 233.834s-3.332-.668-9.332-1.668C1534.907 609.235 1500 635 1500 635c-37.027 56.641-73 160-73 245-19-93 13-237 62-312-29.789 47.648-46.621 108.774-46.621 108.774S1429.313 691 1424 695c-38.82 40.275-80 103-77 159-3 41 7 89 0 123s-69 122-98 163-30 54-47 125c-27-67 11-136 49-186s82-105 62-167c-4-11-39-91-39-91l13 37-6 5-28 25-40 152s-5 53-15 97-42 108-42 108 25-121 30-161-8-147-8-147 29-99 75-173c-27 61-132 242-104 310-44.07-149.207 67.11-322.861 52-311-15.5 12.167-58.937 179.017-58.937 179.017s-30.715 9.186-37.23 0C1100.5 900.5 1117.645 798.146 1149 711c-35.702 68.761-44.694 233.548-44.694 233.548S1091.252 937.25 1089 930c-29.434-193.85 15-263 9-253s-27 50-66 92c-49 75-42 174-5 263 73 112 63 173 63 173s-42-40-64-52c-26 43 20 95 31 140 11 21-31 91-28 68s-22-69-39-84c-12-17-64-62-64-62l-54 113s24-145 22-172-129-190-129-190c-42-60-12.873-117.875-12.873-117.875C747 816 824.125 713.132 813.625 677.134c-12-34.498-55.498-100.495-33-149.993 3-20.999 121.493-98.994 220.488-89.994s160.491 97.494 160.491 97.494C1424.009 263.82 1700 418 1811.7 507.902zM1149 526.5s-44 104.5-41 131 70.5-102.5 73-119-4.5-12-4.5-12l-11.5 11-16-11zm-19.012 48.408S1103.501 534 1044.001 537s-166 58.5-177.5 92.5-6.5 82 0 95S786 892.5 782 900s-19 32.5-17 66m342.854-302.75S1074.109 700.516 1077 699c-20 8.5-134.5 116-141 123.5s-44 56.5-42.5 70c34.5 165 .591 269.479.591 269.479M1152 609l141 108.5m94.5-228c-99-10-216.313 73.59-216.313 73.59m973.574 470.139C2130.261 978.729 2082 939.5 2045 914.5s-45.5-59.5-51-93-6.5-75-19-127-71.5-82-86-92.5c0-11.5-12.671-50.656-41.671-78.156 8.5 4.5 35.171 44.656 37.171 67.156s3.5 32.5 3.5 68.5c46 50.5 44.5 85 39.5 124.5-1.646 12.979-6.039 27.199-12 42.06-12.182 30.363-36.679 70.829-51.785 101.378 60.5-175.5-1.215-311.938-1.215-311.938s-38.733 120.282-53.733 134.282c10-10.5 53.733-139.782 53.733-139.782l-29-58-105.5 60.5 105.5-64c-11.5-25-29-37-29-37-38-17-161.5 3-161.5 3m325 733.5s-5.5-16-8-57.5 25.5-149 8-187.5-52.5-176.94-52.5-176.94"/><path fill="none" stroke="#000" stroke-miterlimit="10" stroke-width="6" d="M997.998 914.535s-16.707 126.571-32.166 189.965C950.375 1167.894 926 1215 926 1215"/></svg>