<svg xmlns="http://www.w3.org/2000/svg" id="hair" viewBox="0 0 3000 3000"><switch><g><path id="cl1" fill="#414141" d="M1541 348c246 20 316 209 316 209s44-46 77-49c71-8 76 196 76 196-11 35-30 146.668-30 146.668-22.666 194.666-46.668 253.332-96 294.666-49.334 41.332-64 11.332-60.668 2.666 3.334-8.666-3.332-32-7.758-44.891-16.499-53.997 20.999-217.489 26.998-236.988 13.5-35.998 0-92.996 0-92.996-20.999-18-38.998-55.496-43.498-91.494-203.99-224.989-560.973 37.498-568.471 40.498-7.5 3-57.573 106.562-53.997 121.494 19.499 29.998 53.997 185.99 55.497 220.488 12 15 50.998 98.995 23.998 142.493-19.498 23.998-116.993 29.998-161.991-38.998-62.997-35.998-175.491-121.494-182.991-238.488-3-76.497 49.498-151.491 46.498-157.491s-20.013-114.406 0-178.491c53.998-133.493 151.492-7.5 151.492-7.5C1121.22 479.27 1272 329 1541 348z"/><path id="hl1" fill="#565656" d="M1044 621c0 16 4 20 21 41.067 17 21.066 13 68.933 13 68.933s-15 5-15-6-25-32-22-44-8-17-11-22-25-9-25-14-2-10-8.5-10-16.5-6-16.5-6l33-37s31 13 31 29zm-80 275s-19 18 7 98c1 24 16-35 16-35s17 30 17 35 18-3 18-10 23 6.483 23 15.742c0 9.26 8-11.742 8-11.742s21.818 10 25.41 19c3.59 9-13.591-68 0-120 13.59-52-18.41 23-22.41 30s-18-17-18-17-12.592 14-8.795 35c3.795 21-4.205 3.242-4.205 3.242l-5.475 9.758v-15L1014 947s-28-46-50-51zm245.332-424.668s-8-3.332-14.666 10c-6.668 13.334 3.332 8 7.332 8s4 6.668 10.668 4.668c6.666-2 18.666-8.668 12.666-17.334s-16-5.334-16-5.334zm28.668-6.666s-2.668 15.332-8 25.332c-5.334 10 .666 14 0 20.668-.668 6.666 11.332-18 16.666-13.334C1252 502 1260 518 1263.334 532s17.332-5.334 17.332-5.334S1292 534 1299.334 546s20.666-14 24-18c3.332-4 16.666 4.666 19.332 10 2.666 5.332 24-26 29.334-28 5.332-2-5.334-6.668-14 2.666-9.334-6.666-19.334-4.666-25.334-.666s-15.332-5.334-24-1.334c-10-14-20-14.666-32-11.332-2-7.334-7.332-15.334-18.666-14-5.009-2.58-1.334-24.002-20-20.668zM1513 490s2.5 15.5 20 20 31.5-5 35 0 22.5 21.5 30 19.5 17-13.5 20.5-17 12.5 0 18 2 18-11.049 24.5-7.773 18.5-.727 27-9.227 10-1 11.5 4 20.5-4 28-11.5 12-.5 18.5-13.5 13-3 14.5-15.5c.371-2.427 5.5-4 5.5-4s-42.5-38.5-57.5-42.5c-4 5-11 11-16.5 10s-4.5 12-8.5 13-12.5-6.5-15.5-1 0 20 0 20-7.5-10-8-8-5 17.5-4.5 32c-1.319 3.411-18-22-31.5-19.5-10.5 14.505-11.5 38-18.5 33.373-10 7.627-15-17.373-26.5-5.373s-13.5-14.5-36 9.5c0 0-13.931-13.198-30-8.5zm431 147l-8 10.5s-12 59-9.5 63.5 14.5-7 17.5-4.5c5.5 8.5.5 22-5 32.5s14.5 1.5 14.5 8.5 3 37.5 0 48.5c5.5 4 9.5 10 7 18.5s22-78 22-85.5c0 0-22.166-2.332-8.938-35.125-9.896-44.875-19.233-38.541-19.233-38.541s-8.66 1-8.994-18.334"/><path id="sd1" fill="#313131" d="M950.409 723.053s90.923 54.28 74.257 97.614C1014 841.334 955.332 828 943.332 832c-26.332 11 17.377-64.966 14.284-60.375-1.999 2.97-7.207-41.906-7.207-48.572zm137.94-159.435s69.649 255.714 55.649 322.38c-.666 80-15.939 266.858-109.273 241.526 0 0 28.564 22.614 54.564 37.28 50.711 58.313 117.049 67.92 153.049 51.254s14.723-91.913 14.057-99.245c-.668-7.334-27.464-74.287-27.464-78.287s-26.616-121.148-26.616-121.148-16.131-52.717-25.682-78.287c55.334-141.333 53.971-116.962 53.971-116.962s138.971-104.475 304.304-127.809c78-10-47.574-31.656-257.575 3.676-68.667 19.334-133.78-6.354-163.114-37.112l-5.106 24.751-20.764-22.017zM1853 560s13 67 14 91-16.428 93.095-24.428 122.125C1840.414 781.382 1846 798 1849 811s-2.002 40.951-11.002 85c-9 44.05-27.316 134.654-26.316 156.654s3.109 38.806 9.109 67.806S1824 1147 1827 1155s28 20 56-12c50.332-40.334 63.396-100.223 65.396-108.223-34 12-70.396-1.777-87.396-18.777s27-156 31-173 48-253 13-320l-52 37z"/><path id="l" fill="none" stroke="#000" stroke-miterlimit="10" stroke-width="6" d="M1541 348c246 20 316 209 316 209s44-46 77-49c71-8 76 196 76 196-11 35-30 146.668-30 146.668-22.666 194.666-46.668 253.332-96 294.666-49.334 41.332-64 11.332-60.668 2.666 3.334-8.666-3.332-32-7.758-44.891-16.499-53.997 20.999-217.489 26.998-236.988 13.5-35.998 0-92.996 0-92.996-20.999-18-38.998-55.496-43.498-91.494-203.99-224.989-560.973 37.498-568.473 40.498-7.498 3-57.572 106.562-53.996 121.494 19.499 29.998 53.996 185.99 55.496 220.488 12 15 50.998 98.995 24 142.493-19.5 23.998-116.994 29.998-161.992-38.998-62.996-35.998-175.49-121.494-182.99-238.488-3-76.497 49.498-151.491 46.498-157.491s-20.014-114.406 0-178.491c53.996-133.493 151.491-7.5 151.491-7.5C1121.22 479.27 1272 329 1541 348z"/></g></switch></svg>