<svg xmlns="http://www.w3.org/2000/svg" id="hair" viewBox="0 0 3000 3000"><path id="cl1" fill="#F8B6B8" d="M1197 509s-65.275-108.368-99-99c-39.385 10.94-92.526 52.814-118.922 73.244C932.474 519.314 806 636 806 636l98-4s-45 225-45 230 65-93 67-98-25 327-24 335 71-115 71-115 27 152 28.5 156 44.5-96 44.5-96l30 171 36-92s-62-70-60-113 12-56 79-67c-10-189 22-367 66-427 39-47 179-130 303-120 139.573-6.068 202.38 54.307 242.556 92.194l30.849 24.625C1795 627 1843 885 1843 885l.037.497c.482 6.283-1.703 45.837-11.037 129.503-7.335 4.012-160-236-160-236l47 178s-46-31-64-53-90-185-90-185 4 252 6 275-89-101-145-306c2-10-99 291-99 291s-20-163-11-292l-5 178-22 83s19 93-14 228c0 33-24-94-24-94l-9 125-47-105-27 123s-29-94-38-280c0 0-24.667-221.667 67-436zm23.667 345.667L1244 1052l45-104s-56.333 304.666-68.333-93.333zM1861 1029l-9 88s16 103 27 134c23-32 47-248 49.016-245 2.017 3 46.984 208 49.984 189 17-36 37-105 38-155s-22-191-22-191 47 92 67 117c19-120-47.667-284-47.667-284L2090 717.333s-168.653-223.742-244.667-268.667c-20.752-12.265-76.237 59.03-76.237 59.03l-.475-15.559L1844.25 884.5l44 63L1861 1029z"/><path id="sd1" fill="#9D7374" d="M872 584s77-41 87-37c-5.028 14.287-39.339 70.671-51 82.333-3.333 3.334-102 6.667-102 6.667l66-52zm117 51.444L871 810l-10.942 45.461L926 764l-22 335 69.798-110.513L1003 1143.5l40.782-94.36 30.552 165.527 55.284-106.169s-63.055-65.546-60.055-102.046c-1-30.5-.154-38.618 28.425-57.796 3.51-1.998-8.488-48.655-8.488-48.655s-22.5 19-50 94.5c-6 19 10-144.5 10-147.5s-56 47.5-91 104C965 933.5 990 806 991 793c-5.72 1.512-60 63.5-63.5 68s14-101.5 61.5-225.556zM1176 550s-28.667-23.333-31.333-27.333-49.999 211.233-25.999 412.566c1.334 4.565 12.333-1.899 12.333-1.899s-1.333 125.333 36.667 295.333c0 0 5 6.666 25-127.334-.667-13.333 40.667 100 50.667 104-.07-15.884 8-120.667 8-120.667l20.479 92.315s34.188-34.313 18.104-223.687L1288 939.331l28.582-82.716 8.751 118.05L1428 687.998s70.667 245.333 134 298.667c4.438 3.732 8 4 8 4l-3.334-258.667s49.406 112.528 80.073 159.104c30.667 46.576 68.677 60.148 70.011 62.148s-41.417-165.919-41.417-165.919L1832 1015s16-124.336 16-126.336 42.227 56.157 42.227 56.157l-24.894 67.176-12.86 108.007L1879 1251s13.666 10.331 44.999-246.336c0-14 54.667 189.999 53.334 191.999s10.667-3.333 35.333-130.667c7.834-16.997-2.754-126.076-8.088-146.076s-23.245 176.076-23.245 176.076l-56.666-144.667s-33.333 116-32 110 2.666-100.667 2.666-100.667L1903 961l-9-195.003s-17.333 58.667-17.333 68.667S1834.086 718 1834.086 718s-9.186 61.927-8.752 176.664l-42.667-164.667-5.333 160.667s-107.334-134-126-179.333c-8-12.667 21.333 162.667 21.333 162.667L1565 719l-12.333 170.997-132-212-99.333 208.837-12-168.834L1252 1017.997l-18 47.333-20.667-70.667-2 48-18.667-99.333-25.333 86L1134 883.997s-12-166 42-333.997zm746.666 144.666s67.501 167.5 72.834 178.834-2.167-28.167-2.167-28.167l67.333 118 2-16.667s-71.333-191.333-140-252zM2010 679.5l59.333 27.166s-140.667-120.667-152-136c4 28.667 104.464 134.082 104.464 134.082L2010 679.5z"/><path id="hl1" fill="#FEEAEB" d="M1104 414c34.391 2.848 93 102 93 102s-12 21-22 32c-17-3-66-65-74-72s-142 52-142 52 99.045-117.806 145-114zm235 201c226 99 486-30 486-30s-32.237-62.606-59-64c-195 151-467 94-467 94 20-8 40 0 40 0zm438.817-94L1834 500c210 204.667 253.334 218 253.334 218s-161.499-236.834-244-264C1821.2 446.712 1772 514 1772 514l5.817 7z"/><path fill="none" stroke="#000" stroke-miterlimit="10" stroke-width="6" d="M1197 509s-65.582-109.409-99-99c-91.5 28.5-292 226-292 226l98-4s-45 225-45 230 65-93 67-98-25 327-24 335 71-115 71-115 27 152 28.5 156 44.5-96 44.5-96l30 171 53.618-106.502s-62.209-55.331-60.209-98.331S1064 954 1131 943c-10-189 22-367 66-427 39-47 179-130 303-120 161-7 242 95 275 122 33 35 140 151 128 443l-60-76s1-151-16-198c2.001 6.284 39 183 5 328-7.335 4.012-160-236-160-236l47 178s-46-31-64-53-90-185-90-185 4 252 6 275-89-101-145-306c2-10-99 291-99 291s-20-163-11-292l-5 178-22 83s19 93-14 228c0 33-24-94-24-94l-9 125-47-105-27 123s-29-94-38-280c0 0-24.667-221.667 67-436zm23.667 345.667L1244 1052l45-104m598.924-6.097L1861 1029l-9 88s16 103 27 134c23-32 47-248 49.016-245 2.017 3 46.984 208 49.984 189 17-36 37-105 38-155s-22-191-22-191 47 92 67 117c19-120-47.667-284-47.667-284L2090 717.333S1923.5 487.5 1845.333 448.666c-22.455-11.156-79.303 61.403-79.303 61.403"/></svg>