<svg xmlns="http://www.w3.org/2000/svg" id="图层_1" viewBox="0 0 3000 3000"><path id="cl1" fill="#424242" d="M1224.666 502l-6.666 6c-140.668 209.334-73.539 441.613-73.539 441.613-11.5-3.166-25.683-10.542-25.683-10.542-37.271 10.942-47.349 34.08-50.849 61.58s20.213 70.735 29.213 75.235c6 133.5-20.146 145.615-20.146 145.615-5.5 23.5 71.674 113.601 53.674 163.601-28.5 56.5-143.668 93.168-143.668 93.168-20.832 10-20 42.332-8.832 53.832 18.5 20.5 15.5 31 11 34s-53 10-89 42.5-15.5 40.5 27 56 18.83 36.502 18.164 39.168c-5.334 17.334-40 48-16.668 50 51.067 2.854 46 30 42.668 33.332-3.334 3.334-41.334 49.334-38.668 50.668 2.666 1.332 50.668 0 50.668 0l-10.666-14.67c28-8 35.334-28.666 35.334-28.666 18-22-19.334-33.332-34.668-40.666-15.334-7.332-18.666-25.334-16-26 2.668-.666 38-6.666 38-20 0-13.332-46.844-47.718-52-58 3.334-11.332 87.334-12 116.668-27.334 29.334-15.332-18-72-92.666-102.666-60-49.334-84.543-60.074-44.045-117.071s56.567-182.285 67.321-221.59C1006 1125.5 992 1014 990 970s-36-174 0-308c46-226 228-164 228-164l6.666 4zm306.668-150.667s-58.668 58-115.334 78.667c-56.668 20.668-149.334 39.58-180 68.668-38.666 30-149.334 194-92.5 430.832 0 0 27.834 298.498 113.834 346.498.504-75.893-12.637-164.67-1.991-298.607 3.475-43.721 9.479-92.254 19.325-146.725C1267.2 875.516 1259.332 976 1259.332 976s128-58.666 184.668-178c-10-44.666-20-106.666-20-106.666s24.666 149.332 57.332 186c86.666 14.668 150-25.998 213.332-39.998 10.668-8 0-173.331-15.332-214.666 2.885 9.403 21.334 96.664 22.834 140.664C1701.504 752.082 1814.5 880 1829 920.5c70-117.5 49-286.5 45.5-300S1870 525 1729 446c-129-70-200-29-207.5-24S1456 522.5 1417 553c-14.5 10.5 98-80 114.334-201.667zm345.332 444.001s8.834 64.166-57.5 260.834c-10.613 31.47 21 72.332.168 133.83 16 104.668 44 152 90 198.668 46 46.666 57.332 104 34 136.666-23.334 32.668-68.668 104.002-18.668 155.334 8 7.334 46.668 37.334 0 57.334 0 0-107.332 34.002-61.332 60.668 22.844 15.858 14.666 25.332 45.332 27.332 30.668 2 24 0 24 0s-38.334-17.998-39-21.666c-.666-3.666-3.998-10.332 17.334-11.332 21.334-1 68.666-16 75.334-68.668 1.539-12.979 0-33 0-33s-20-10-29.666-12.332c-9.668-2.334-27.334-10.666-29-29.334-3.334-18.334 2.568-22.791 16-37.334 16.666-11 38.334-14.666 48-24 9.666-9.332 37.998-38.332 31.332-88.334-9.332-42.332-23.332-39.998-67-100.998-19.332-29.668-59.666-78.334-59-130-1-12.334 1-106.668 12.668-159.668 4.332-14.666 17.332-107.332 44.332-179 0 0 65.347-185.06 33.347-258.56-25-55.5-64.847-94.608-107.191-61.274H1876s13.5 83 .666 184.834z"/><path id="sd1" fill="#313131" d="M1221.332 507.334C1074 702 1147.461 951.613 1144.461 949.613c-6.75-3.5-24.92-11.17-33.352-6.486-18-4-44.609 27.089-54.109 51.589-20-232 44-291.716 44-291.716-29 2-78 84-78 84-1-79 75-160 75-160-11-12-85 59-85 59 31-115 148-188 148-188 43.5-3.75 60.332 9.334 60.332 9.334zM1268 827s-75 335-37 413c15.703 30.548 26.5 33.5 26.5 33.5s-7.877-270 2.563-306.5c33.438-11 111.438-50.5 181.438-168.5-2.203 3.681 2.5-6.5 2.5-6.5s23.668 73.668 30.5 79.5c6.834 5.834 39 14 113-3 17.5-5 109.5-36 109.5-36s1.5-62.946 0-86.225C1715 772.5 1816.5 880.5 1826.5 915.5c2.5 5 13.5-14.5 13.5-14.5s-.5-18-16-42.5-77-98-85-102c1-2.5-43.5-130-53-140.5-2.494-2.757-14.039-.125-14.5 9 5 34.5 13.006 88.528 6 119.5l-25 87.5s-111 30.5-130.5 26-70-96.5-73-109-13-55.5-21-64-8 4-8 7.5 13 36.5-15.5 125.5c-16 29.5-26.5 56.5-59.5 63.5-59.5 17.5-64.5-26.5-66.5-42s-2.5-13.5-4-13.5-6.5 1-6.5 1zm242-393.5c-17.445 24.258-80 112.5-89.5 115.5s97.5-29.5 196.5-138c13.5-9.5-89.555-1.755-107 22.5zm364 362s9.5 3 4 72.5c44.631-67.798 24.5-99 22-104 9.5 3 25 38.5 25 45 0 0 11.25-28.25-8-80.25-.775-1.327 23.5 5.25 47.75 53.25 3 7.25 17.905-86.724-12.595-167.474-18.25-29.75-62.321-54.026-81.655-29.36-3.468 4.424 24 110.668 3.5 210.334zm-806.068 217.318s-4.594 137.843-9.928 155.843c-5.332 18 32.674 79.103 39.341 123.77s-74 102.666-74 102.666-78 56-66.667 98l-26.667-9.334 37.325 36.009s85.342 45.991 93.342 69.324c0 0-72.667-14.667-74-18.667s16.667 1.334 0-31.333c-13.333-25.333-18-38.667-10.667-48s101.334-52 116.667-62 56.22-23.184 39.474-75.429c-21.041-65.646-59.651-107.166-49.479-154.339 7.807-36.196 16.135-112.934 14.475-123.44-1.501-4.233-16.648-11.887-29.216-63.07zm-115.26 669.532c4.75 8.5-3 24.5-3 24.5s19.25 8.75 21 11c14.5.5 21.75-9 21.75-9-29.5-40.75-53-54-53-54l-26.5 1.25c33.25 12.5 35 17.75 39.75 26.25zm-26.25 67.5c3.75 0 33.5 7 41.25 11.5s7 11.5 6.25 22-16.25 20.5-13.75 22.75 33.25.25 37 0c17.25-22 12-34.25 0-40.25-40.25-16.25-39.25-20.75-39.25-20.75l-34.25 2.75s-1 2 2.75 2zm19.916 86.918c1-.168 31.5-.834 31.5-.834s-7-7.666-8-7.832c-1.831 5.334-24.5 7.832-24.5 7.832s0 1 1 .834zm872.994-638.1c19.334 92.332 39.334 120.332 43.334 129 4 8.666 28 37.332 41.666 54 34.668 44.332 31.668 51 38.668 58.666 17 27.668 15.666 57 10 65.668-4 11-39.668 57-36 67.666 19 6 95.666-21 95.666-21 15.668-20.666 11.666-76.666-2-82.668-15.332-4.666-67.334-32.666-67.334-32.666s-12.666-23.334-14.666-28c-2-4.668-21.334-49.334-50.666-82.666-43.334-74-48-175.334-48-175.334-1.828-20.867-1 18.666-10.668 47.334zm88.334 457.334c13.334 21 34.334 36.666 37.668 42.332 10.332 18.668 0 23.668 3.332 23.668 3.334 0 34.146 4.817 35.668 3.332 4-34.332-2.334-34.666-2.334-34.666-10.666-14-52-16.668-52.666-35.334-15.334-24 7.573-41.688 14.334-43-5-3-41.668 21.666-41.668 21.666-.334 5.666 2 13.002 5.666 22.002zm-37.332 146c1.332 2 21 18.666 27.256 22.666s33.078 1 33.078 0-19.334-10.334-28.699-14.274c-9.365-3.942-14.635-8.392-10.801-14.06-1.834-7.666 32.5-7 33.832-9.332 1.334-2.334-67.666-2.668-67.666-2.668 0 9 11.666 15.668 13 17.668z"/><path id="hl1" fill="#565656" d="M1007 855.998c10.666-5.998 18.332 63.336 18.332 63.336s2-25 3.334-19c12 25.668 10.666 87.668 11 78.668.332-9 9.666-37.668 9.666-37.668s3.334 25 5.271 37.334c-12.396 27.666.896 61.332-.104 64.832s.5 75.5 0 101.5c-10.5-22-20.5-136.332-20.5-136.332s-10.668 30-10.668 27.332c0-2.666-6-59.332-6-59.332C1012 984.67 1010 1026 1010 1026c-8.668-28-10-133-10-133 0-38 6-37 6-37m161.666 109.67s-6.666-22-11.332-26.67c-4.666-4.666 9.332 101.334 18 121 7.332 10 5-33.332 15-49.666 3.666-11.334-.334 38 3.332 46.666 3.666 8.668 4.334-27 10.668-29.332 6.334-2.334 12 28.293 13.332 33.813 1.334 5.521 8 4.521 0-51.479-3.332-16 8.406-87.334 3.871-92-4.537-4.668-18.537 64.334-21.203 67.666-6 5.67-2-31.332-6-45.332-8.334-12-11.334 34.332-13 35.666-2.334 6-5.98-10.273-7-24 .666-13.666-.5-36.95-6.168-34.227-1.887 8.882 3.334 38.395.5 47.895zM1248 598s-12.668 38.668-18 37.334c-5.334-1.334-1.479-13.967-8.405-18.648-6.927-4.686-21.595-4.686-28.261 6.648s-38.668 106-30.668 168.666c20.668-34 38-82.666 52-78.666 10 12.666-12.607 54.666-9.973 84 2.639 29.332 31.307-6 43.307-28s27.334-34.668 26.666-18c-.146 30.01-3.332 80 20 40 22.59-31.181 41.334-67.334 43.334-58 2.666-7.334 6.845 35.332 4.666 48.666-6 8 26-46.666 26.668-54.666.666-8-.668-49.334-11.334-58.666-9.146 4.793-18.668 41.332-35.334 58-13.332 3.332 8.668-66 6-77.334-2.666-10-36.666 33.334-46.666 44-10 10.668-21.334 6-6-31.332 15.332-37.334 10.666-35.334 10.666-35.334s-28 31.334-32.666 34.668c-4.668 3.334-20 12.664-10-29.336s4-34 4-34zm125.332-144l-70 46S1364 482 1364 486s-35.334 36-40.668 39.334C1318 528.666 1382 496.668 1382 500c0 3.334-44 42.668-44 46.668s106.666-45.334 128.666-76.668c16.668-20.666-70 21.334-70 21.334s99.334-56-5.332-28.668c-.002.002 92.666-43.333-18.002-8.666zm122 186l-12 27.334s-2 91.332 12 96c11.875-9.416 23.334-47.334 23.334-47.334s9.332 28.668 11.332 38.668 10.668 5.332 31.334-41.334c9.334-8.666 10.666 18 13.334 27.334 2.666 9.332 15.332 30 32-24 0 0 18-42 28.666-15s18 52.332 11.334-13.668l2.549-24s-13.215-53.332-21.883-42c-8.666 11.334-22 50.668-29.334 54-7.332 3.334-17.998-22.666-18.666-29.332-.666-6.666-27.334 38.666-27.334 38.666s-26-8.666-36-35.332c-10-26.668-10 36-10 36L1495.332 640zm213.332-39.332s54.668 61.332 72.668 114.666c-2.953-8.015-6.668-70.666-6.668-74 0-3.33 25.334 33.334 28 37.334 18 12.666-10.666-30-6.666-47.334-4.666-14.666 5.316-22.666 12.657-16 7.343 6.67 26.009 30.67 30.677 34 4.666 3.334-23.082-40.08-16-54.666 0-6.668 36.918 30.582 40.668 33.582s-80-140-119-126.75c0 0 22.5 28.5 44.75 76.5 0 6.5-31.75-31-44.75-29.5-5.75 2 28.25 47 28 52.75s-55.75-45.25-72.75-38.5c-7.5 4.75 41.75 36 46.25 49.25s-17.922-16.166-37.836-11.332zM1840 1000.5s-10.5 100.5 0 142.5c8.5-45 17.5-76.5 25.5-83 0 0-6 27-2.5 40.5s9.5-43 23.5-53c-1 6.5-4.5 23-4 30.5s13.5-23.5 20-26c1.082-1.5.832 5.918 2.5 4.5 1.666-1.416 7-43.166 39-128 3.125-11-4-3.75-6.75.625 0 0-38.75 63.375-50.25 93.875-5.334 12.834 12.332-65 12.832-67.166.5-2.168-18.998 43.332-23.166 47.5-4.166 4.166 9.334-49.668 7.834-61.168s-29.334 49.834-30.668 52.5c-1.332 2.67 4.166-34.334 2.5-39.166-1-3.83-16.332 45-16.332 45zm2.334 206s2.498 14.334 5.332 30.668c2.834 16.332 8.834 68.666 29.334 85.666 4.666-.5-7.166-12-4.666-39.332 0 0 8.666 31.166 14.332 33.332 7.834.5-5.5-26.332-3.332-70.666-2.668-19 .668-36.668-5.166-38.668s-8.334 40.334-9.334 45.168c-1 4.832-7.5-36.834-7.5-37.334s-1.668 16.5-1.5 24.668c.166 8.166-11-38.334-17.5-33.502zm-789.162 72.6s-53 9.5-86.5 87c3.5 10 27-14 27-14l-16.5 29 16-9-21.5 35s55.5-65 63.5-71c53.5-37 8 2-14 36-12.5 16 21-13 24-15.5s6.5 1-25.5 42c33-22 53.621-47 58.312-55.5 4.691-8.5-17.312 4.75-19.812 8s20.18-23.5 20.465-29.25c.283-5.75-18.965 10.25-20.965 11.75s23.75-29.75 20.968-34.75c-2.718-4-34.718 10.75-40.218 16.75s26.75-36.5 14.75-36.5z"/><path fill="none" stroke="#000" stroke-miterlimit="10" stroke-width="6" d="M1224.666 501l-6.666 6c-140.666 209.334-70.5 440.5-70.5 440.5-11.5-3.166-31-4.365-31-4.365-45.162 5.645-43.484 37.466-46.984 64.966s18.629 63.286 27.629 67.786c6 133.5-20.145 144.613-20.145 144.613-5.5 23.5 71.672 113.603 53.672 163.603-28.5 56.5-143.668 93.168-143.668 93.168-20.832 10-20 42.332-8.831 53.832 18.5 20.5 15.5 31 11 34s-53 10-89 42.5-15.5 40.5 27 56 18.829 36.502 18.163 39.168c-5.332 17.334-40 48-16.666 50 51.065 2.854 46 30 42.666 33.332-3.332 3.334-41.332 49.334-38.666 50.668 2.666 1.332 50.666 0 50.666 0l-10.666-14.67c28-8 35.334-28.666 35.334-28.666 18-22-19.334-33.332-34.668-40.666-15.334-7.332-18.666-25.334-16-26 2.668-.666 38-6.666 38-20 0-13.332-46.844-47.718-52-58 3.334-11.332 87.334-12 116.668-27.334 29.334-15.332-18-72-92.666-102.666-60-49.334-84.543-60.074-44.045-117.071s61.397-190.836 67.32-221.59C1002 1121 992 1013 990 969s-36-174 0-308c46-226 228-164 228-164l6.666 4zm306.668-150.667s-58.668 58-115.334 78.667c-56.666 20.668-149.332 39.58-180 68.668-38.666 30-149.332 194-92.5 430.832 0 0 27.834 298.498 113.834 346.498.504-75.893-12.637-164.67-1.99-298.607 3.475-43.721 9.479-92.254 19.326-146.725-7.469 44.85-15.336 145.334-15.336 145.334s128-58.666 184.666-178c-10-44.666-20-106.666-20-106.666s24.666 149.332 57.332 186c86.666 14.668 150-25.998 213.332-39.998 10.668-8 0-173.331-15.332-214.666 2.886 9.403 21.334 96.664 22.834 140.664C1701.504 751.082 1814.5 879 1829 919.5c70-117.5 49-286.5 45.5-300S1870 524 1729 445c-129-70-200-29-207.5-24S1456 521.5 1417 552c-14.5 10.5 98-80 114.334-201.667zm345.332 444.001s12.168 72.5-54.377 247.557c-15.766 41.47 20.379 103.775-2.955 147.107 16 104.668 44 152 90 198.668 46 46.666 57.332 104 34 136.666-23.334 32.668-68.668 104.002-18.668 155.334 8 7.334 46.668 37.334 0 57.334 0 0-107.332 34.002-61.332 60.668 22.844 15.858 14.666 25.332 45.332 27.332 30.668 2 24 0 24 0s-38.334-17.998-39-21.666c-.666-3.666-3.998-10.332 17.334-11.332 21.334-1 68.666-16 75.334-68.668 1.539-12.979 0-33 0-33s-20-10-29.666-12.332c-9.668-2.334-27.334-10.666-29-29.334-3.334-18.334 2.568-22.791 16-37.334 16.666-11 38.334-14.666 48-24 9.666-9.332 37.998-38.332 31.332-88.334-9.332-42.332-23.332-39.998-67-100.998-19.332-29.668-59.666-78.334-59-130-1-12.334 1-106.668 12.668-159.668 4.332-14.666 17.332-107.332 44.332-179 0 0 68.063-178.2 36.063-251.7-25-55.5-80.149-130.829-119.563-92.468l5.5 24.334s13.5 83 .666 184.834z"/></svg>