<svg xmlns="http://www.w3.org/2000/svg" id="hair" viewBox="0 0 3000 3000"><switch><g><path id="cl1" fill="#988A75" d="M1072.6 646.801c4.601-11.899 11.9-22.2 18.601-32.7 27.301-42.699 59.2-81.601 97.2-115.399 4.898-4.399 9.8-9 15.699-12.101 18.3-9.101 38.4-10.601 58.1-13.101 41.5-5.3 83-6.199 123.899 4.601 5.301 1.399 13.101 1.5 14.101 7.5 1.1 6.7-7 7.801-11.699 10.399-20.801 11.5-39.5 25.9-58 41.5 34.899-10.6 70.299-17.3 105.5-24.899 4.6-1 11.699-4.399 13.699.7 2 5.3-5.699 6.699-9.801 8.899-26.3 14.101-47 34.7-66.101 57.101-2.399 2.8-4.399 5.8-8.1 6.699 54-24.699 106-55.3 165.5-60.699-2.5-1.301-7.5-1.899-12.101-3.7-2.399-.899-5.399-1.699-5-5.199.3-2.7 2.9-3.601 5.101-4.2 10.899-3 22.1-4.899 33.399-5.899 2-.2 4 .3 6.8-1.399-4.101-4.301-9.398-5.9-14.3-8.101-4-1.7-8.2-2.899-11.801-5.399-3.3-2.301-3.6-4.601.4-6.601 2.699-1.301 5.699-1.899 8.6-2.5 35.101-7.2 70.301-10 106.2-6.7 25.199 2.301 50.3 4.601 74.899 11.101 8.101 2.101 16 4.399 23.601 7.899 9.601 5.5 17.399 13.2 25.3 20.801 40 38.199 72.301 82.1 97.301 131.399.601 1.199.9 2.5 1.3 3.699-9.3 19.101-15.199 39.2-17.8 60.5-1.1 8.9-11.1 12.4-15.399 20-2.101 3.601-7.601-1.699-12-2.1 1.301 4.3 3.199 8.1 4.6 12.199 1.9 5.601 2.601 12.2 11.9 6.5 2.399-1.5 7.801 0 12.199-2.5 3.899-2.199 6.101 2.7 7.899 5.801 12.2 21.5 23.101 43.6 30.2 67.199 8.601 29 16.5 58.301 23.399 87.801.5 2 .7 3.899.7 5.899 0 3.8 0 7.601 2 11 3 48.5 2.399 97-.5 145.5-1.601 27-11.2 51.8-22.301 76-10.5 22.699-22.6 44.399-38.6 63.8-3.2 3.9-6.7 7.4-10.601 10.5-9.101 7-11.7 6-14.101-5.3-1.801-6.301 1.101-11.7 3.601-17.101 17.699-37.899 26.3-77.899 30.101-119.399 6.699-73.601-5.101-145.399-21.101-216.7-8.301-37-18.899-73.5-26.601-110.699-6.101-29.4-21.301-54.5-38.101-78.601-23.199-33.399-49.601-64.301-79.101-92.399-7.699-7.4-8.5-7-12.899 2.399-3.601 7.601-4 17-11.8 22.5-4.801.199-7.7 3.199-10.2 7-12.5 18.8-24.699 37.8-33.399 58.699-5.7 13.801-14 25.5-23.801 36.4-8.199 9.1-16.5 18.1-26.1 25.899-6.801-1.3-5.601-7.1-5.2-11.1 3.5-36.102 3.101-72.301 4.7-108.4.199-3.7.3-7.3-.2-10.899-.101-2.7.101-5.301-.3-8-.301-2.5-2-4.4-4.4-4.9-2.6-.6-4.6.9-5.899 3-1.8 3.101-3.399 6.5-4.899 9.801-10 22.899-21.699 45-32.601 67.5-14.101 29-35.399 51.101-61.899 69-23.399 15.8-46.601 32.101-68.199 50.601-22.5 19.3-38.5 43.199-51.2 69.5-19.8 41-30.399 84.399-34.399 129.6-2 5.801-1 11.801-.801 17.7.301 7.899-3 7.5-8.199 4.399-8.9-5.3-16.9-11.8-25.5-17.5-7.801-5.1-7.9-4.699-9 4.301-1.801 15.5-1.101 31.3-4 46.699-1.5 8-4.101 8.899-10.4 2.7-15.5-15.101-31.399-29.899-45.699-46.101-12.5-14.2-26.7-26.899-38.399-43.7-3.801 11.899-4.601 22.7-4.7 33.601 0 2.601 1.2 5.899-1.399 7.399-3.2 1.801-5.7-1-7.7-3.101-12.899-13.5-24-28.5-35.699-43-2.6-3.199-4.301-9.399-8.6-8.6-4.102.699-4.102 7-5.701 10.899-5.6 12.8-10 26.101-15.399 39-4 9.601-7.3 10.101-13.8 1.7-13.6-17.7-26.2-36.101-39.1-54.301-5-7.1-9.701-14.399-15-21.199-6.801-8.601-10.9-17.9-10.701-29-1.199-41-2.1-82.101 6.201-122.7.299-1.2 1-2.399 1.5-3.601 14.799-6.199 29.699-11.399 46.299-10.699 18.801.899 29.801 8.199 32.9 26.899 3.199 19.399 6.699 18.899 24 13.101 7.301-2.4 14.801-4 22.399-5.2 11.5-1.8 22.9-1.2 32.8 5.399 23.602 15.399 48.2 11.7 73 4.601 10.602-3 20.102-8.899 29.7-12.601-19.899 1.5-40.301 4.2-61 3.399-13.6-.5-18-8.601-11.6-20.8 1.898-3.601 7.6-7.101 4.8-10.899-2.5-3.399-8 .101-12.2.601-9.3 1-18.399 3.199-27.8 2.899-12.101-.399-17.5-6-17.9-18.101-.199-6.399.5-12.601 1.801-18.801 2-9 .699-10.5-8.699-10.8-9.301-.3-18.7.2-28-.2-11.301-.5-15.4-6.699-11.602-17.5 3.102-9 9.5-16 14.9-23.6 6.899-9.7 5.5-13.6-6.2-16.7-12.6-3.399-25.5-4.5-38.6-4.2-4.197.305-9.097 1.305-12.897-2.594z"/><path id="sd1" fill="#7D7260" d="M1019 888.9c.199.199.699.5.699.699-.101 13.4 9.1 22.301 15.899 32.101 16.199 23.5 33 46.5 49.601 69.7 1.699 2.399 3.399 4.899 7.199 6.6 8.7-20.6 15.7-41.8 25.602-63.3 17.799 21.101 32.6 43 52.6 62.899-2.301-17.1-.1-31.399 5-46.899 29.101 35.101 59.9 66.5 92.601 98.2 3.199-22.5 3.5-43.801 5.6-66.101 16 7 27.4 19.601 42.301 26.8 2.601-7.8-1.6-15.8 2.699-22.699 1.101 14.199-.5 28.5 1.4 42.8 3.801 28.9 12.1 56.5 22.801 83.4 7.799 19.8 16.899 39 26.699 57.899 1.199 2.3 2.699 4.399 2.801 7.199-4.101 1.399-6.701-1.199-9.601-2.399-23-9.601-45.899-19.399-69-28.899-4.301-1.801-9.301-5.601-13.899-1.2-4.801 4.7-1.101 10 .399 14.9 3.398 10.8 8.601 20.899 13.199 31.199 2.301 5.101 4.699 10.199 7.301 15.699-3.102 1.301-4.602-.899-6.301-2-25.899-18-51.801-36.1-77.801-54.199-4-2.801-8.3-7.5-13.3-3.601-5.399 4.101-1 9.101.899 13.399 8.101 17.9 16.301 35.7 24.5 53.5 1.101 1.5 1 2.9-.101 4.301-25.6-20.601-51.199-41.199-76.8-61.899-3.601-2.899-7.2-5.899-10.801-8.801-2.6-2-5.5-2.699-8.3-1-3.101 1.899-2.7 5.301-1.8 8.101 1.5 4.699 3.5 9.301 5.3 13.899 6.2 15.7 12.399 31.5 18.7 47.2.5 2.199-.5 2.8-2.5 2.5-28-20.601-54-43.4-76.301-70.2-11.199-13.5-17.601-29.699-23.601-46-11.6-31.699-18.301-64.699-23.5-97.899-5.6-35.5-8.5-71.399-10.399-107.3-.096-2.599.105-5.599.205-8.599zm692.3-417.3c-17.2-8-34.601-15.601-51.899-23.3-22.899-10-45.899-19.7-70.5-24.5-37.2-7.4-72.301-4-102.899 20.899-3.601 2.899-7.301 3.601-12 3.2-14.9-1.301-29.9-2.301-44.801-2.601-33.3-.801-66.5-.2-99.699 3.199-26.5 2.7-52.9 6.2-78.301 14.5-16.8 5.5-33.4 11.4-46.8 23.601 26.101-5.899 52.5-11.5 79.199-13.101 29.4-1.699 59.199-2.6 88.4 3.801 9.398 2.101 19.398 3.101 29.299 9.5C1386.4 494 1373.1 501.5 1360.9 510.5c-12.2 8.9-24.7 17.5-34.399 29.9 40.5-11.301 81.699-18.801 122.799-27-11.199 7.199-23.199 12.699-33.199 21.399-10 8.601-21.1 16-29.399 26.601-7.9 10.1-17.9 18.6-26 31.199 9.1-5.101 16.199-9.399 23.5-13.199 29.301-15 60.399-26 90.699-38.601 20.102-8.399 41.2-12.5 63.102-11.899 1 0 2.799.899 3-1.2-7-6.5-16.801-6.5-26.5-10.899 8.898-3.601 16.699-4.399 24.299-5.899 7.5-1.5 15-2.5 22.701-2.101 1.6.101 3.6.399 4.299-1.5.9-2.5-1.299-3.301-2.899-4.399-4.601-3.301-9.5-6.101-14.898-8-5.201-1.9-10.302-4.2-17-6.9 25.1-6.398 48.898-9.898 72.898-10.898 23.2-.9 46.301 1.398 69.5 3.5 17.602 1.699 34.602 5.5 51.7 9.3 7.4 1.6 14.199 6 22.199 4.8C1736.699 484.7 1724.3 477.7 1711.3 471.6zm10.2 168.201c35.1 31.899 61.699 69.3 77.399 114.399 16.8 48.101 30.8 96.899 41.699 146.7 3.601 16.199 7.601 32.5 8 49.199 1 41.9 1.301 83.899 2 125.801.199 9.399-1.199 18.5-3.199 27.6-6.301 28.2-13.101 56.301-15.7 85.2-.699 8.199-1.899 16.5.7 24.601.199-4.5 2.101-8.301 4.101-12.2 5.8-11.199 10.3-23 14.5-34.899 11.899-33.7 16.899-68.8 19.3-104.2 1.899-27.5.7-55.199-2.101-82.699-1.8-17.399-4.199-34.801-7.3-52-4.601-26.101-9.601-52.101-15.7-77.801-7.699-32.199-16.8-64.1-23-96.699-3.6-19.101-10.899-36.899-20.699-53.7-15.2-26.101-33.2-50.3-52.7-73.5-16-19.199-33.5-36.899-51.101-54.601-5.1-5.1-6.1-4.899-8.899 1.7-4.3 10.101-8.199 20.3-12.199 30.5 15.799 11.298 30.598 23.599 44.899 36.599zM1581 604.4c-6.7 44-13.5 88-19.9 132-.699 4.899-2.6 9.899-1.6 16.5 8.699-7.801 17-13.9 23.699-21.7-4.5-5.2-3.101-11.7-1.9-17.101 3.201-14.699 1.5-29.699 3-44.5 2.102-20.399.5-41.101.5-61.699 0-2.601.4-5.4-2.299-7.2-.5 1.3-1.301 2.5-1.5 3.7z"/><path id="hl1" fill="#C6B9A2" d="M1072.6 646.801c9 .101 18-.101 27 .3a110.806 110.806 0 0 1 31.199 5.7c8.602 2.899 10.4 7.601 5.4 15.101-4.199 6.399-9.101 12.3-13.5 18.5-2.699 3.8-5.101 7.8-5.801 12.6-.898 7.2 1.2 9.9 8.5 10 9.7.2 19.301 0 29-.1 2.301 0 4.7-.101 7 .1 6.399.5 8.301 2.801 6.7 9.101-2.1 8.101-3.7 16.101-3.399 24.601.399 9.7 4.199 14.101 14 14.2 12.6.1 25-2.4 37.399-4.601.601-.101 1.199-.5 1.9-.601 2.899-.399 6.199-1.8 8.1 1.3 1.699 2.9-1.301 4.801-2.7 6.9-2.3 3.6-5.398 6.8-7.199 10.699-4.301 9.101-1.199 14.2 8.6 14.399 20.301.5 40.4-1.1 60.5-3.6 3.201-.4 6.4-1 10.5.5-8.299 7.399-18.6 9.5-27.5 14.3-20 10.7-41.799 9.601-63.398 8.7-4.301-.2-8.5-1.601-12-4.5-15.602-12.9-33.301-13.4-51.801-8.4-6.1 1.7-12.1 3.5-18.1 5.4-2.5.8-5 1.699-7.701 1.8-6.699.2-8.199-.601-9.699-7.2-1.199-5.199-1.5-10.5-2.801-15.6-3.5-13.9-13.1-21-27.399-21.5-13.5-.5-26.398 1.399-38.8 7.1-2.801 1.301-6.2 4.801-9.801.9 4.7-24.601 13.301-47.9 23.101-70.801 6.6-15.699 13.1-31.298 22.7-45.298zM1917.699 909.9c-.199-6.5.801-13.101-.601-19.5-1.699-53.2-7.1-106-17.399-158.301-5.601-28.5-14.699-55.8-28.5-81.399-6.699 7.899-9.5 18.2-15.4 26.7-1.6 2.3-1.299 5.199-1 7.8.701 7.399-1.398 14.601-2.5 21.7-1 6-2.799 12.8-10.799 13.5-2.5.199-2.4 1.6-2.601 3.199-.2 2.2.699 4.7-2 6.899-4.7-2-9.801-4.199-16.399-7.1 4.6 9.8 7.699 18.5 10.6 27.199 1.699 5.2 5.101 5.7 8.801 1.7 1.3-1.3 1.3-3.899 3.898-4 2.701 1.4 2 5.2 4.5 7.101.701-1.101 1.201-2 1.701-2.801.6-1.199 1.1-2.5 1.899-3.5 3-3.899 4.8-3.899 7.2.5 12.5 23.5 24.698 47.101 32.399 72.7 2.899 9.5 5.199 19.2 7.699 28.8 5.5 20.5 11.7 40.801 15.801 61.7 2.102.203 2.701-1.097 2.701-2.897z"/><path id="l" fill="none" stroke="#231815" stroke-miterlimit="10" stroke-width="6" d="M1591 424.301c165 47.3 199.199 109 199.199 109 79.699 78.8 105.301 180.8 105.301 180.8 16.5 47.601 22.1 195.7 22.1 195.7 5.199 50.899.199 163.399.199 163.399-2.5 58.3-60.6 134.9-60.6 134.9-26.199 31.699-25.801 2.8-25.801 2.8.399-31.3 9.2-77 9.2-77 13.699-56.5 9.3-104.601 9.3-104.601.5-96.5-9.3-128.601-9.3-128.601-8-49.2-48.7-164.5-48.7-164.5C1768.9 669.5 1683 607.7 1683 607.7c-10-7.7-12.5-2.399-12.5-2.399-13.5 12.601-39.801 68.399-39.801 68.399-14 28.899-59.199 68.601-59.199 68.601-15.5 14.601-12.301 8.8-12.301 8.8-.199-4.601 23.1-152.899 23.1-152.899 0-18.5-10.5-7.5-10.5-7.5l-26.898 55.8c-27 67.801-78.4 94.5-78.4 94.5-53.399 33.2-83.3 68.102-83.3 68.102-74.7 106.8-64.101 207.699-64.101 207.699 1.199 62 51.301 155.699 51.301 155.699 5.699 11-1.2 5.9-1.2 5.9-3.101.399-81.3-34.301-81.3-34.301-9.4-4.101-10.4 8.101-10.4 8.101l19.601 47.5c5.899 12.899.101 7.601.101 7.601-3.4 0-85.4-59.699-85.4-59.699-11-4-10.8 6.6-10.8 6.6.3 2.601 25.399 55.101 25.399 55.101 6.601 14.3 2.301 9.399 2.301 9.399-6.2-4.399-87.7-70.6-87.7-70.6-9.8-4.102-10.8 4.1-10.8 4.1 7.899 23.5 20.1 52.9 20.1 52.9 8.301 20.898 2 13.898 2 13.898-53-36.699-83.8-80.898-83.8-80.898-31.8-56.102-42.5-154-42.5-154-17.8-79.102-4.3-198.9-4.3-198.9 15.198-76 45.399-138 75.899-184.899 40.699-64.5 90.199-105.101 90.199-105.101 26-26 95.899-41.2 130.7-45.8 85.398-11.5 161.699-2.101 161.699-2.101 55.7-44.703 110.8-23.002 110.8-23.002z"/></g></switch></svg>