<svg xmlns="http://www.w3.org/2000/svg" id="hair" viewBox="0 0 3000 3000"><path id="cl1" fill="#302136" d="M1111.8 1250.4c-17.698-11.301-33.8-24.801-50.698-37.2-3.9-2.8-4.4-7.398-4.7-11.698-3-34.102-7.602-68.102-10.7-102.302-3.3-36.1-6.8-72.198-10-108.3-2.399-27.5-3.8-55.101-6.1-82.601-3.4-41.899-3.5-83.8-3.9-125.8-.199-28 7-54 18.601-79.102 16-34.699 37.7-65.8 61.399-95.699 21.7-27.5 45.301-53.301 70.2-77.899 30.8-30.399 62.101-60.399 99.3-83.3 40.9-25.301 84-45.102 132.101-51.602 16.102-2.2 32.2-3.4 48.802-1.7 17.5 1.7 35.1 2.7 52.698 4.602 35.2 3.698 69.802 10.698 103.7 20.698 62.1 18.201 118.399 48.002 170.399 86.103 24.8 18.199 47.5 38.601 66.5 63 6.5 8.399 14 16.1 20.601 24.399 24.699 31.398 37.199 68.199 46 106.5 1.8 7.699 4.1 15.5 4 23.601-2.101.5-2.9-.801-3.7-2.4-14-28.6-28.898-56.8-39.3-87-.9-2.5-2.801-4.5-3.101-7.1.101.199.2.5.2.699 4.6 9.2 7.1 18.7 7.1 28.899 0 3.801.601 7.899-3.699 9.301-4.5 1.5-7.601-1.5-9.7-5.2-5.101-9-10.101-18-11.398-23.899 2.3 9.101 5 22.399 4.198 36.2-.3 4.6.2 10.199-5.8 11.3-5.3.899-8.5-3-11-7.2-8.398-14.398-14.101-30.1-21.101-45.199 4 8.899 7.9 17.699 11.5 26.801 1.601 4.101 2.301 8.301-1.699 10.699-4.7 2.899-8-.5-10.9-4.101-4.898-6.3-9-13.2-12.898-20.2-.3-.6-.602-1.1-.899-1.699.102.301.2.5.399.801.801 1.398 1.7 2.699 2.398 4.199 7 10.602 12.5 22 17.102 33.801 1.7 4.301 4.898 8.801.898 13s-7.898-.699-12.898-1.801c8.601 39.102 22 76.801 22.5 116.899-.199-11.3-1.899-22.399-2.602-33.601-.5-7.399.4-14.601 2.9-21.601 1.399-3.899 3.6-7.301 8.3-7.699 5-.399 7.899 2.5 9.899 6.8 4.601 9.801 5.601 20.301 5.7 28.899-1.5-11.301-.2-24.5 2.898-37.5 1.302-5.199 3.399-9.699 9.399-10 5.801-.301 7.801 4.301 9.5 8.801 2.301 5.898 4 12 5.301 17.5.4-14-1.801-28.7 2.301-43.102.898-3.199 1.801-6.398 3.398-9.3 1.9-3.399 4.701-5.7 8.801-5.7 4.4 0 6.4 3.301 7.699 6.801 3.4 9 7.701 17.601 10 27 .602 2.801.201 5.801 2.4 8.101 2.801 20.399 4.699 41 6.199 61.5 3.5 48.301 2.199 96.601 1.301 144.801-.5 25.5-2.4 51.1-4.801 76.699-1.602 16.898-2.801 33.801-4.602 50.699-2.299 21.5-4.5 43-6.799 64.5-1.801 16.899-3.602 33.699-5.301 50.602-1.5 14.6-2.9 29.1-4.4 43.699-.8 7.198-4.699 13.198-8.199 19.101-29.301 49.3-58.699 98.399-88 147.6-5.301 8.9-10.398 17.9-15.699 26.7-1.602 2.699-3 5.8-6.699 8.601 1.699-17 5.301-32.5 7.898-48.199 7.199-43.699 14.199-87.399 19.302-131.399 3.101-26.801 6.601-53.5 9.198-80.301 2.102-21.8 3-43.8 4.699-65.699 3.603-47.2 2.302-94.501.802-141.701-1.698-53.6-2.802-107.099-15.802-159.397C1807.699 790 1757 608 1757.1 602.4c0-1.301-16.155-35.467-21-53-1.697-2.9-3.398-1.4-5.1-4.301-1.9-3.199-.301-9.601-3.9-7.899-3.898 1.899 2.602 7.102 4.2 10.399 4.899 10.601 5.2 16.2 10.103 26.801 1.6 3.5 2.299 10 2.397 14.699-4.3.301-12.2-2.399-15.7-3.3-31.8-8.801-375.8 56.5-380 59.398-3.1-2.699 29.4-74.101 25.7-75.898-3.7-1.801-22 49.8-25.5 54-5.2 1.699-9.601 5.3-12.5 9.199-18.897 24.699-41.601 45.699-64.8 66.101-1 .899.3-.199-.801.7-3.699 3-8.102 6.699-12.302 2.699-4.6-4.399-.8-9 2-13.301 4.103-6.5 9.5-12 14.4-17.8 9.6-11.399 18.6-23.399 28.6-34.5-14 9.5-28 19.199-42.698 27.699-3.199 1.801-6.5 3.5-9.899 4.801-4.5 1.8-9.2 2.699-13-1.2-4.101-4.199-3.3-9.199-1-13.898 4.399-9.2 11.7-16 18.8-22.7-.197.2-.398.399-.5.5-11.6 13.101-26.6 21-41.398 29.101-5.102 2.8-10.699 5.2-15.602.3-5-5-2.197-10.698.803-15.5 11-17 22.697-33.398 38.6-46.3.4-.3.6-.5.6-.5l-.6.602c-13.2 12.698-28.1 23.198-42.7 34.198-2.899 2.2-5.899 4.302-9 6.2-4.7 2.8-10 7.5-15.101 1.899-4.699-5.3-.699-10.5 2.601-15.199 11.399-16.4 24.5-31.301 39.601-44.4 2.199-2.198 4.5-4.398 6.699-6.698.4-.399.801-.802 1.2-1.302-.4.4-.8.802-1.2 1.302l-6.6 6.601c-7.4 5.8-13.301 13-20.2 19.199-2.3 2-4.7 3.7-7.3 5.2-3.6 2.198-7.6 3.398-11.1.398-3.603-3.101-2.5-7.398-1.201-11.2 1.898-5.398 5.301-10 8.201-14.8 3.299-5.398 6.197-11 10.1-18.5-7.6 3.3-12.2 7.8-17.1 11.7-6.701 5.399-13.701 10.6-20.701 15.6-3.199 2.302-7.5 4.7-10.899 1-3.8-4.1.399-7.3 2.8-10.198 1.7-2.102 3.102-4.302 5.102-6.2.601-.602 1.199-1.199 1.801-1.899-.602.602-1.2 1.301-1.9 1.899-19.3 23.7-40.6 45.801-57 71.801-11 17.5-21 35.5-29.5 54.3-2.6 5.801-7.1 10.5-8.898 16.399l.101-.199c4-7.899 8.601-15.101 14.8-21.301 13-12.899 25.9-25.899 38.9-38.899 4-4 8.699-7.3 13.4-10.398 2.6-1.801 5.897-2.399 8.197.398 1.9 2.301.9 5-.6 7.399-4.102 7-10 12.398-15.2 18.5-16.897 19.801-29.1 43-45.3 63 .199-.199.1-.102.199-.3 9.398-14.302 21.898-25 36.199-33.899 5-3.101 10.199-6 15.5-1.5 5 4.3 4 10.399 2.399 15.8-4.3 14.602-13.3 26.602-22 38.7-1.7 2.399-3.899 4.5-5.5 6.8l.101-.199C1110.1 739 1127.8 721.1 1148.6 706.302c4.5-3.2 10.602-9.5 15.102.698-1.199 8.4-7.5 13.9-12 20.4a777.761 777.761 0 0 1-24.301 33c-6.199 8-8.898 16.6-8.898 26.8.199 62 .1 124 .1 186v252.899c0 5.301.2 10.699-.398 16-.405 4.001-.805 8.203-6.405 8.301zm220.5-612.598c-10.8 18.398-18.601 38.198-25 58.601-1.8 5.5-4.101 9.5-10.8 9.699-5.9.2-10.4 4.101-15 7.398-23.4 16.7-39.101 40.2-54 59.2 4.399-8.5 11.5-20.2 15.3-33.398 1.2-4.302 1.7-8.5 1-12.802-.5-3.1-2.3-5.698-5.698-6.1-4.2-.5-6 2-6 6-1.7 6.1-5.5 11.3-7.2 17.399-5.3 18-15.7 34.199-15.8 54.199-.7 124.601 2.1 249.199-1.5 373.801-1.602 55.301-.2 110.601-.302 166 0 9.801 1.102 19.199 4.7 28.301.6 3 2.6 5.399 4.199 7.899 24.5 37.698 49 75.398 73.5 113.101.898 1.3 1.6 3 4.398 1.6 0-3 .102-6.3 0-9.6-.398-18.601-.398-37.301-1.6-55.9-1.5-23.198-.7-46.6-1.9-69.898-1.801-36.199-.1-72.602-2.1-108.899-1.2-22.3-.101-44.601-.5-67-.9-51.601 1.199-103.101 6.199-154.5 2.5-25.8 3.898-51.7 5.5-77.601 1.1-19.3 1.1-38.602 2.699-57.802 1.102-14 1-28 2.199-41.897 2.699-29.801 3.5-59.801 5.4-89.603.799-12.897 1.398-25.897 2.199-38.897.198-2.603.698-5.301 1.698-7.801 6.302-17.199 14.602-33.302 20.899-50.5 3.9-10.602 17.5-24.199 13.5-35.802-7.591.5-13.19 10.2-15.99 14.802zm436 85.898c-51.898-8.5-103.8-16.398-155.8-24.601-24.101-3.8-48.301-5.699-72.601-2.601-45 5.801-88.602 18.199-132 31-11.2 3.301-19.399 9.601-26.7 18-12.8 14.801-26.102 29.399-38.602 44.399-8.1 9.699-27.1 19.101-33.398 31.601-1.8 3.601-.699 7.699-.8 11.899-.399 15.601.5 31.199-.802 46.8-1.198 14.899-5.898 50.602-2.898 53.399 1.5-2 65.699-82.199 92-120 2.301-3.3 4.398-6.699 7.5-9.3 4.199-3.399 7.398-2.8 9.301 2.101 1.1 2.8 2.1 5.5 3.8 8 16.2 23.601 32.302 47.399 48.5 71 3.802 5.601 8 11 13.399 18.3 1.101-8.398.301-14.199-.399-20.101-3-26.1-5.8-52.199-8.601-78.399-.199-1.898 0-4.101.601-5.898 1.802-5.2 6.399-6 9.7-1.602 1.8 2.399 3 5.2 4.3 7.899 11.5 22.9 22.302 46.2 35.102 68.5 2 3.601 3.398 7.7 8 10 1-2.1 1.698-3.6 2.398-5 14.7-29.6 29.302-59.1 44-88.6 1.5-2.9 2.899-6.5 7-6 4.399.5 5.7 4.1 6.302 7.898.6 3.301 1.3 6.5 1.8 9.801 3.398 21.699 6.8 43.398 10.3 65.101.301 1.8-.3 4.3 3.2 4.399 2.3-2.602 3.601-6 5.2-9.301 9.198-19.199 18.398-38.5 27.6-57.699 1.601-3.399 3.301-7 7.9-6.301 4 .602 4.8 4.199 5.6 7.5.301 1 .301 2 .4 3 2.1 15.5 4 31 6.5 46.5 1.3 8 1.6 16.301 4.698 24.102 3.602-1.4 4.602-4.5 6.2-6.801 15.8-23.5 31.5-47.102 47.199-70.699l4.5-6.602c1.6-2.301 3.6-4.101 6.699-3.301 3.5.9 4.801 3.5 4.898 6.7.102 3.3-.199 6.7-.299 10-.701 20.601.6 41.3-1.801 61.899-.602 4.698-.9 9.698.5 14.801 4.1-1.801 5.198-5.2 7-7.801 13-19.399 25.698-39 39-58.102 8.198-11.898 16-23.7 16.801-38.8.1-1.601.699-3.3 1.299-4.8 1.301-3.603 1.301-7.2.701-10.9-1.801-9.8-3.801-19.6-5.701-29.398-2.597-9.89-11.396-10.592-19.496-11.992z"/><path id="hl1" fill="#73508E" d="M1193.5 759.5c6-12.198 13.699-23.398 19-36 1.3-3.198 5-7.198 1.899-9.898-3.302-2.899-6.5 1.601-9.2 3.601C1183.6 732.7 1164 750.4 1146 770c-1.9.5-2.801 0-2.2-2.1 7.602-13.9 15.302-27.801 22.7-41.801 2.8-5.199 5.3-10.601 7.6-16.101 1.4-3.301 3.4-7.301 0-10.101-3.398-2.7-6.8.399-10 2-.898.399-1.6 1.199-2.3 1.8-15 7.2-26.2 19.102-38.101 30.102-10.801 9.898-20.102 21.199-29.899 32.101-1.8.6-2.7.3-1.899-1.801 7.399-12.199 15-24.199 21.301-37 2.801-5.601 5.699-11.3 6.601-17.601.399-2.801 1.399-6.301-1.7-8.199-2.6-1.602-5.1.398-7.3 1.699-9.7 5.801-18.5 12.801-26.7 20.5-6.3 5.898-12 12.301-18 18.5-1.8.5-2.8.101-2-2 17.4-33.399 39.302-63.699 65.5-92.199-13.1 4.199-47.5 38.5-77.398 76.3-1.899.5-2.801-.101-2.399-2.199 21.899-57.7 54.101-108.601 100.2-150.101 2-.301 2.898.5 2.6 2.5-2.898 4.398-5.699 8.898-9.398 14.6 4.898-.699 7.301-3.199 9.898-5.1 10.301-7.801 20.5-15.7 30.9-23.4 2.898-2.199 6.199-3.899 9.398-5.6 1.399-.801 3.301-1.102 4.699.199 1.602 1.398.699 3.199-.1 4.601-3.9 7.3-8 14.5-12.103 21.7-3.397 6.1-7.698 11.699-9.897 18.3-.5 1.5-1.2 3.101.5 5.601 13.699-5.7 23.5-17.2 35.397-25.5 2-.301 2.7.5 2.302 2.399-15.199 18.3-31.699 35.601-43.602 56.5 4 3.2 6.102.8 8.102-.5 12.698-8 24.5-17.3 36.5-26.3 7.5-5.602 14.698-11.5 22.801-16.102 2-.301 2.8.602 2.398 2.5-11.801 14.801-24.199 29.102-35 44.699-2.699 3.801-5.199 7.7-6.301 12.301-.898 3.5.9 5.5 4.2 4.5 3.8-1.101 7.399-2.898 10.899-4.801C1228.8 647 1242.5 637.6 1256 628c2-.398 2.8.4 2.5 2.4-3.4 4.5-7 8.899-10.301 13.5-2.699 3.8-5.301 7.699-7.602 11.699-1.698 3.101-4.198 6.899-.898 10 2.801 2.7 6.301.2 9.301-1.101 10-4.601 19.199-10.601 28.399-16.699 9.198-6.102 18.198-12.399 27.398-18.399 2.899-1.9 5.7-4.5 11.602-4.4-18.302 26.7-40.5 48.7-59.102 75.4 5.7-.101 7.899-2.801 10.3-4.801 21.7-17.8 40.7-38.399 59.803-58.8 4.799-5.102 9.5-10.301 14.299-15.399 1.601-1.601 3.301-2.7 4.201.6-.603 1.302-1.303 2.7-1.9 4-8.301 11.7-13.801 24.9-19.5 38-5.7 13.102-10.6 26.5-14.898 40.2-.802 2.5-1.802 4.899-3.102 8.399-6.6-5.199-12-2.101-17.398 1.399-12.699 8.199-23.4 18.601-33 30.199-10.4 12.602-20.4 25.399-30.602 38.102-2 2.5-3.7 5.5-7.398 6.3-1.9-2.601.1-4.5 1-6.399 5.1-11.2 10.5-22.3 15.398-33.5 2.9-6.7 6.102-13.398 5.699-21-.199-4.1-1.699-6.7-6.199-3.6-11.6 6.2-19.398 16.5-27.801 26-3.5 3.899-6.699 8.101-10 12.101-2.099.299-3-.601-2.699-2.701zm614.4-113.4c6.3 15.101 12.601 30.301 19.3 46.398-8.199-3.398-12.399-10.5-21.101-14.198 13.301 46.601 24.199 92.198 33 138.398.899-13.101.899-26 .899-39 0-6.3 0-12.7 1.699-18.8 1-3.7.801-9.5 5.2-9.9 5.3-.5 5.601 5.7 7 9.5 3.698 9.7 4 20.2 6 30.302.698 3.398.698 7.198 4.3 9.3 2.7-2.5 1.899-5.3 1.899-7.8.199-6.302-.101-12.7.101-19 .399-10.302 1.399-20.602 4.601-30.5.602-1.899 1.399-4.102 3.7-4.2 2.399-.199 3.199 2.101 3.899 3.898 3.3 8 4.898 16.602 7.398 24.9 1.2 4 1.5 8.399 5.7 11.199 3-3.102 2-6.602 2-9.699.1-10.301.1-20.601 0-31-.101-8.801 2.1-17.101 5.399-25.2 1-2.398 1.698-5.601 4.8-5.8 3.7-.2 4.7 3.199 5.899 5.899 4.199 8.698 7.601 17.698 10.399 27 3.899.3 2.699-2 2.101-4-.801-3.899-1.601-7.7-2.399-11.602-2.699-3.5-3.601-7.8-5.199-11.7-12.399-30-24.5-60.1-40.7-88.3-1.898-.5-2.8.102-2.398 2.2 2.898 12.3 5.8 24.699 4.898 39.1-5.101-5.5-6.898-10.898-9.5-15.898-2.698-5.3-4.8-11-7.698-16.199-2.5-4.601-3.102-10.601-9.199-14-.9 6 0 10.8 1 15.699 2.899 13.7 5.799 27.398 5.1 41.5-.1 2.101.9 4.801-3 6.2-14.898-19.302-22.1-43.399-36.898-63 4.1 16.3 12.698 31.198 14.6 48.198-8.6-6.898-14.6-15.6-20.899-24-3.102-.095-3.301 1.605-1.901 4.105z"/><path fill="#D4A879" d="M1374 630.802c38.199-30.5 80.3-39.316 126-50.816 63-15.801 124.4-17.484 187.4-3.784 2 .399 3.898 1.399 5.898 2 17.801 14 25.7 42.7 18.2 65.2-2.601 7.6-6.7 11.6-14.7 11.3-44.699-1.8-89.101 2.2-133.601 6.5-47.101 4.602-93.101 14.899-138.3 29.899-15.802 5.2-30.602 3.7-44.602-5.3-16.596-10.701-17.795-38.301-6.295-54.999z"/><path fill="#927454" d="M1372.3 634c-2.398 1.7-3 4.802-2.698 20.7.198 13.2 5.6 22.5 16.198 28.2 12.302 6.5 25 7.399 38.2 3.5 30.899-9.101 62-17.2 93.6-22.5 27.5-4.601 55-8.5 82.802-11 27.698-2.4 55.5-4.5 83.3-4.101 4.101.101 8.2.199 12.4.5 8.198.601 8.6.3 11.1-7.899 4.101-13.801 3.2-27.101-2.8-40-3.602-7.801-7.302-15.5-11-23.301 18.698 3 36.8 9.101 54.8 15.101 3.2 1.102 5.5 2.899 6.7 6.399 8.601 24.5 16.3 49.301 22.601 74.399-3 3.601-6.2 1.899-9 1.5-29.301-4.301-58.4-9.5-87.9-11.699-110 .601-203.801 18.601-309.1 55-15.7 7.699-30.801 16.8-46.2 25.199-2.7 1.5-8.8 2.801-12.5 2.5-.398-10.801-3-22.399.899-32.601 4.5-11.899 12-26.5 16-38.601 1.801-5.5 5.4-11.399 9.4-15.399C1349 650.1 1360.9 642 1372.3 634z"/><path id="sd1" fill="#25192A" d="M1234.199 716.802c4.801 2.5 1.699 5.898.6 8.601-5.299 14.199-10.699 28.3-16.5 42.3-3 7.301-4.299 14.602-4.199 22.602.102 112.8 1.602 225.699-.398 338.5-1.4 79.101-.5 158.199-1.602 237.301-9-10.2-13.1-21.9-14.398-35.602-2.4-25.101-6.4-50-9.699-75-.2-1.301-.4-2.699-.801-3.898-1-3.102-2.9-5.5-6.301-5.801-3.102-.301-7.5 2.397-8.899 4.697-4.4 7.5-5.9 14.803-10.4 22.303-5.6 21.197-6.198 10.301-15.801 2.801-11.299-8.9-23.399-16.7-34-26.602 3.101-4.199 2.201-9 2.201-13.699v-224.199c0-78.101.1-156.2-.101-234.301 0-8.801 2.101-16.102 7.601-23.199 12.699-16.4 24.6-33.5 36.699-50.4 1.5-2.199 2.6-4.699 3.801-7.1.1-6.801 4.6-8.602 10-7.9 5.899.7 8.1 5.4 7.799 11-.299 4.7-2 9.102-4.299 13.2-8 14.5-15 29.8-25.5 42.5.199-.2 0 0 .1-.2 14.4-21 34.699-35.1 54.302-49.8 3.698-2.8 7.897-4.3 11.897-1.101 4.103 3.301 2.802 7.699 1.4 12-4.699 13.801-14.5 24.601-21.9 36.898-.799 1.4-2 2.602-3 3.9.701-1 1.5-1.9 2.302-2.9 7.698-12.3 15.601-24.5 26.801-34.1 3.696-2.903 7.196-6.003 12.295-2.801zM1780 687.6c-1.4-5.5-1.801-10.174-7.501-11.374-34.699-7.199-72.6-10.025-107.8-11.525-37.602-1.601-75.301-1.3-112.9 3.2-40.199 4.8-79.6 13.1-118.199 25.3-34.301 10.8-65.898 27.5-97.898 43.399-2.4 1.2-4.801 1.801-7.102 3.101-1.5.8-14.801 1.399-16.301 11.602-3 20.8-4.799 65.3-4.898 78.601 2.801-3.5 12.801-12.301 16-15.9 9.301-10.5 18.398-21.198 27.602-31.898 11.5-13.399 7.1-14.399 36.398-35.899 127.5-44.8 248.801-44.3 386.301-21.601 4.898.801 12.699 10.097 15.898 13.897-2.5-14.004-6.1-37.201-9.6-50.903z"/><path fill="none" stroke="#000" stroke-miterlimit="10" stroke-width="6" d="M1664.6 437c121.6 50 235.4 149 251.3 261.601 45.101 171.5-12.2 545.7-12.2 545.7S1813.1 1413.6 1788 1431.2c56.134-350.089 42.046-498.156 30.1-577.101-12-79.3-41-181.601-38-168.601 23.302 109.301 11.7 95.7 9.602 107.2-3.301 16.302-60.7 93.2-60.7 93.2s1.1-69.801 1.6-86.699c.5-16.899-13.4-.8-13.4-.8l-56 81.5s-6.699-37.101-10.602-66.5c-3.898-29.398-14.6-8.4-14.6-8.4l-35.4 65.7s-9.5-60.101-12.6-78c-3.101-17.898-13.4-1.898-13.4-1.898l-46.5 93.698s-36.698-65.5-45.198-82.6c-8.5-17.101-12-2.2-12-2.2l8.398 104.399s-60.699-80-64.601-94.601c-3.899-14.601-10.399-4.899-10.399-4.899L1302.3 937l8.7-189.3c50.1-30 224.899-110.601 466.898-70.601-15-71.199-51-139.8-51-139.8s20 48.8 19 54.8c-249-76-402.301 61-402.301 61l30-83.8-61.5 148s-15.898 280-23.8 392.801c-7.901 112.8 7.8 342 5.6 378.699-9.6-5.602-62.3-90.699-72.3-106.102-10-15.398-18.5-29.601-22.2-39.898-3.698-10.301-5.6-42-10.5-77.102-2.3-32.101-14.5-14.198-14.5-14.198s-5.897 17.897-18.698 30.1c-10.199-5.5-77.199-55-98.102-72.8-6.3-20.301-25.1-267.9-25.1-267.9s-12.602-168.8 0-206.699c68.6-189.898 280.1-308.801 280.1-308.801C1428.4 364.801 1533.4 396 1664.6 437z"/></svg>