<svg xmlns="http://www.w3.org/2000/svg" id="hair" viewBox="0 0 3000 3000"><switch><g><path id="cl1" fill="#AC7D45" d="M1695.3 455.301c160.3 83.3 195.899 195.601 195.899 195.601 43.9 88.3 7.2 307.399 7.2 307.399-2.301 18.601-3.5 46-3.5 46 55.601 177 55.199 245 55.199 245 3.199 45-38.5 141-38.5 141-4.199 22.3-12.801 11.8-12.801 11.8-17.699-9.899-138-62.399-138-62.399-17.699-3-6.399-19.899-6.399-19.899 51.301-125.601 61-180.399 61-180.399 7.801-36.5 21-212.801 21-212.801-2-31.8-5.199-42.699-5.199-42.699-16.601-70.801-10.5-45.101-10.5-45.101-1.801-25.2-24.801-71-24.801-71C1774 742.301 1759.1 672 1759.1 672c-12.699-45.5-13.699-6.8-13.699-6.8-17 57.899-77.602 94.3-77.602 94.3-15.199 10.7-50.1 9.4-50.1 9.4-30-1.101-173 4.6-173 4.6-34.4 3.101-80.5 43.301-80.5 43.301-32.699 23.5-85.199 91.8-85.199 91.8-.7 10 1.199 14.801 1.199 14.801 15.2 61.5 93.4 163.699 93.4 163.699 51.899 66.5 51.1 121 51.1 121 5.1 88.899-32.5 143.7-32.5 143.7-8.8 17.601-14 12.5-14 12.5-9.5-3.7-66.8-23.899-66.8-23.899-24.301-8.601-83.7-9.7-83.7-9.7-8.699-.3-4.699 5.899-5.4-.101-.1-.601.102-1.601.4-2.8 3-10.899 20.2-43.5 20.2-43.5 1.898-5.399-12.801-5.601-12.801-5.601-2.301.8-72.199-14.801-72.199-14.801-10.801-2.3-44-11.1-44-11.1-17.7-.4-27.102-7.4-27.102-7.4-18.799-9.199-34.198-19-34.198-19-.7-.199-95.601-58.399-95.601-58.399 4.101-11.899 24.399-23 24.399-23 41.8-40.601 61.699-91.101 61.699-91.101 13.801-32.3 9.301-56.3 9.301-56.3C1043.5 940.301 1037 848.4 1037 848.4c-3.7-74.601 5.699-104.5 5.699-104.5 9-57.4 56.699-126.101 56.699-126.101 22.102-36.5 76.7-90.399 76.7-90.399 94.601-94.4 159.3-89.101 200.601-88.801 41.3.301 115 16.5 115 16.5 108.901-57.599 203.601.202 203.601.202z"/><path id="sd1" fill="#956D3C" d="M1212.8 851c-13.3 24.7-18.5 51.301-15.7 78.9 3.7 37.1 12.7 72.899 27.601 107.199 11.5 26.601 27.2 51 38.899 77.5 13.7 31 26 62.5 36.4 94.7 3.5 10.8 1.5 21.699.1 32.3-2.399 18.601-5.899 37.2-9.399 55.7-1.699 9.1-4.3 18-6.601 27-.899 3.399-3.3 6.699-1.3 10.399-19.8-1.399-39.5-3.899-60.3-3.899 27.899-62.2 33.899-85.7 23-124.7-13.2-32-28.7-58.3-44.601-89-15.2-29.199-31.2-64.199-43.399-94.8-7.301-18.399-10-38.399-11.5-58.101-2.301-32 .699-69.3 4.8-101 .5-4.101 4.399-2.3 10.2-2.2 18 .002 34.9-5.197 51.8-9.998zM1402 599.301c-19.5 16.699-28.9 24.8-50.2 53.699-22.7 29.4-48.101 66.801-59.601 102.4-12.8 39.699-17.1 78.3-15.1 119.699.3 6.7-1.4 27.301 2.199 33.601 3.801-7.101 16.301-21.601 21.399-27.7 28-33.699 59.2-64.1 96.5-87.6 15.899-10 32.7-18.101 51.601-20.301 23.2-2.699 46.5-3.601 69.801-3.699 21.3-.101 42.6.199 64 0 19.6-.101 39.3.199 58.899-2.2 12.199-1.5 23.5-4.7 33.399-11.899 19-13.899 34.699-30.899 47.899-50.301-1.101-2 .301-3.8.301-5.8 0-3.601 1.199-8.2-2.699-9.899-4.101-1.801-6.101 2.8-8.4 5.399-5.1 5.601-9.6 11.7-15.2 17-13.199 12.2-29.101 19.5-45 27.101-1.601.8-3.3 1.601-4.898 2.399-1.602.8-3 1.8-3.801 3.5-20.801 3.899-41.699 7.3-63.101 6.399-9.301-.399-18.5-1-27.7-1.699-13.601-1-26.898-3.301-40.3-5.2-14.301-1.899-28.6-1.8-42.7-.601-17.101 1.399-34.3 2.899-51.398 3.2-17 .3-28.602-7.801-33.102-21.801-3.3-10.399-5.3-21.5-3.601-32.3 5-31.601 22.201-73.5 36.301-102.2-2.398.502-13.799 7.303-15.498 8.803zM1098.9 1090.1c-1.101-34.8 2-69.699-1.899-104.601-1.2-11.199-1.101-22.5-1.7-33.699-1-19.5-2.8-39-2.8-58.601 1.5-33.2 30.5-43.601 28.8-44.5-19.199-9.601-42.3-23.7-55.8-40.5-7.5-9.3-21.601-27.101-26.9-37.8-2.6 2.1.601 15.1-1.5 17-.399 28.3-.801 56.5 1.699 84.8 2 23.899 4.4 47.7 7.301 71.399 2.301 18.5 4.601 36.9 6.301 55.5 1.101 11.9 1.699 23.899-2 35.7-6.101 19.8-15 38.399-25.7 56.101-13.8 22.899-28.699 44.8-51.1 60.6-6.101 4.301-11.801 9.601-16.301 16.801 10 6.1 19.7 11.8 29.301 17.699 22.1 13.601 51.1 30.2 72.699 44.601 20.101-36.399 32.801-86.899 32.801-86.899s7.097-43.201 6.798-53.601zm-57.8-322.5c7.801 22.601 25.801 44.7 43.9 60 30.6 25.7 71.1 34.601 110 24.899 32-7.899 57.6-26.699 82.699-47.699 2.199-1.801 6.5-17.399 6.899-20.101 2.601-17.101 6.801-26.7 12-42.399-3.5-2.399-12.5 2.399-15.301 3.899-31.699 16.8-65.5 27.601-100.5 35.101-27.699 5.899-52.6 1.199-75.5-15.801-20.299-15-36.899-33.399-52.5-52.899-2.399 2.899-2.699 6.7-3.799 10.2-2.201 7.3-4.201 14.699-6.201 22-.497 7.2-2.197 20.501-1.697 22.8zM1096 621c-6 19.601-10.301 41.4-7.5 62.101 3.8 27.601 22.6 42.801 50.5 43.5 14.899.399 36.199-6.199 50.199-10.699 28.1-9 55.699-21.801 81-36.7 10.6-6.2 30.199-14.8 39.699-22.8-8.699.8-31.5 6.6-39.699 9.1-36.101 10.9-72.699 17.301-110.5 15.301-15.601-.801-27.9-7.5-34.9-22.301-4.898-10.399-7.1-21.3-7.6-32.6-.5-10.301-.101-20.601-.101-30.9C1109.699 602.1 1102.8 613.6 1096 621zm454.6-139.4c14.9-4.8 29.5-10.199 44.9-13.601 4.3-.899 10.699-.899 11-6.5.3-5-5.601-6.8-9.601-9.1-.899-.5-1.801-.9-2.801-1.101-20.301-5-40.5-10.601-61.399-12.399-11.9 2.5-22.5 8-33 13.6-4.301 2.301-8.5 3.4-13.4 2.2C1459.5 447.8 1432.4 442.8 1404.9 440.3c-27.301-2.5-54.5-2.399-81.7 1.399-9.8 1.3-19.699 2.8-28.9 7 18.201 1.2 36.5.5 54.801 1.7 20.801 1.3 40.699 5.6 60.301 11.399 6.601 1.899 13.8 3.5 20.101 8.399-26.7 3.5-49.4 15.601-72.801 26.101 12.899 1 25.699-.601 38.1 1.399 12.301 2 24.9-.899 37.201 3.399-20 7.5-39.601 15-57.101 27.399 12.101-3.5 24.5-2 36.601-3 11.699-1 23.699-4.899 37.899-1.199-15 8.3-29.2 14-41.301 23.601 1.801 1.1 3 .699 4.301.3 17.199-5.3 34.898-7.8 52.699-9 14.301-1 28.699-.8 43-.101 14.5.801 28.801-2.199 43.5-.601 17.801 2 35.4 4.301 53 7.2 9.9 1.7 20 2.3 30 3.5-10.5-4.8-21.301-7.8-31.801-11.399-11.1-3.801-22.6-5-33.899-7.301-10.5-2.199-21.399-3.199-32.199-6.699C1551 519 1565 515.5 1578.9 511.7c-18.9-.899-37.4-4.101-56.5-4.2 16.6-6.3 32.5-14.3 50.6-15.6-12.5-3.5-25.2-5.2-39-5.101 2.4-3.2 4.601-3.7 7-3.801 3.199.303 6.4-.398 9.6-1.398zm284.7 449.6c-.101 16-1.3 31.899-2.601 47.8-1.5 17.9-2.8 35.801-4.699 53.7-2.9 27.399-5.9 54.899-9.4 82.199-2.6 20.4-4.699 40.9-11 60.7-10.199 32.399-22.399 64-34.399 95.7-7.199 19-14.601 37.899-22.101 56.699-1.5 3.899-1.8 6.5 3 8.5 22.9 9.801 45.7 19.899 68.601 29.801.2-2.301 0-4.7.7-6.9 7.8-24 13.3-48.5 18.3-73.199 4.7-23.301 9.7-46.601 13.2-70.101 2.199-14.399 4.399-28.7 6.601-43.101 2.399-15.699 4.3-31.5 5-47.3.899-20.899-2.601-41.5-5.4-62.2-4-29.199-10-57.899-15.801-86.699-3.299-16.801-10.1-33.101-8.799-50.7-.303 2.001-1.102 3.601-1.202 5.101z"/><path id="hl1" fill="#D69956" d="M1330.8 1346.7c3.2-11.5 6.8-22.899 12.7-33.399 11.699-21 19.399-43.601 24.199-67 2.899-13.899 5.1-27.899 5.1-42.2 0-6.601-.199-13.3.102-19.899.898-26.601-3.399-52.7-8.801-78.601-2.301-11-4.6-22-8.199-32.699-1-2.9-2.102-5.801 1.101-8.101 16 21.601 33.699 42.101 45.699 66.5 28.1 57.399 30.699 116.199 9.6 176.3-6.399 18.2-14.6 35.7-24.199 52.5-2.2 4-4.6 6.101-9.5 4.301-16.002-5.802-32.302-10.502-47.802-17.702zm413-676.7c1.8-3.899 3-7.8 2.399-12.399-.899-6.899.301-7.601 8.5-8.399-2.199-9.101-4.899-17.899-10.3-25.7-9.7-14-22.301-24.5-37.301-32.3-30.899-16.3-64.301-22-98.699-24.2-6.899-.399-13.801-.3-20.801-1.5-6.699-1.199-13.801-.3-20.801-.3 1.4 2.3 2.801 3 4.301 3.601 29.699 11.5 59.301 23.399 87.199 39 9.601 5.399 18.601 11.601 26.101 19.699 4.102 4.4 6.5 9 6.301 15.101-.301 9.301.301 18.601-2.101 27.7-4.301 16.5-10.199 32.101-20.301 46.199-6.699 9.4-15.299 16.601-24.199 23.4-1.899 1.399-3 2.399-1.301 4.6 1.201-.6 2.4-1.199 3.701-1.699 1.1-1.101 3-.7 4.1-1.801 13.801-5 26.9-11.399 38.801-20.1 11.601-8.601 20.8-19.7 29.898-31.601 2.802 5.899-1 11.5 3.302 15.601C1731.3 694.2 1738.1 682.4 1743.8 670zm62.6 119.1c5.699 16.301 11.601 32.601 14.399 49.7 0 0 3 8.699 4.101 6 14.8-23.101 21.8-60.2 24.601-85.101 7.699-68.7-6.5-125.3-87-176.5-.801-1.399 21.899 25.2 33.399 42.2 14.199 19.5 17.399 31.6 23.101 56.5 0 0-.101 13.5-.101 24 0 0-2.801 34.899-6.2 52.1-1.8 8.801-6.899 16.5-8.199 25.5.599 1.802 1.198 3.701 1.899 5.601zM1309 719.9c1.1-1.101 75.399-108.601 74.399-109.601-.601.3-100.301 71.399-195 105.899-25.899 9-49.801 13.5-76.801 4.5-2.6 3.7 28.9 23.7 41.4 24.2 19.5.699 38.199-4 56.3-10.5 31.399-11.301 60.5-27.2 88.7-44.801 2.3-1.399 6-3.5 11-4.199-2.698 15.903.002 34.502.002 34.502zm240.1-235.5c4.9-1.801 9.801-1.4 14.801-1.4 17-.1 33.601 3.2 50.199 5.801 34.4 5.399 67 16.399 98.301 31.101 24.101 11.399 46.699 25.5 66.8 43.1 11.2 9.801 23.5 18.5 32.101 31.2 3.899 5.7 9.399 10.2 14.2 15.3-2.301-6.399-5.4-12.1-9-17.6-14.101-22.101-30.4-42.601-47.801-62.301-18.3-20.8-38.601-39.3-59.3-57.5-5.602-5-12.801-8.5-16.602-15.399-.799-.601-1.6-1.2-2.5-1.601C1651.6 437.2 1611.1 428.2 1568.4 431.5c-12.2.9-24.399 2.5-35.801 7.601 1.101 1.5 2.601 1.801 4.301 2.101 17.699 3.899 35.398 8 53.101 11.8 6.199 1.301 11 4.5 16 9.801-23.101 5.101-44.5 11.8-65.301 20.399 2.499 2.698 5.8 2.198 8.4 1.198zm324 904.8c8.601 4.3 17.9 7.199 25.9 12.8 5.8 4 6.1 3.9 9-2.8 13.5-31.2 24.899-63.101 33.6-96.101 10.601-40.101 12.301-79.899.301-120.199-11.601-38.9-21.601-78.301-32-117.5-3.801-14.5-7.899-28.9-9.5-43.9-20.4-70.4-38.9-142.3-56.701-209.9-4.199-.8-7.301 11.7-9.301 19.301 5.4 19.5 13.4 44.699 18.4 64.199 14.8 58 29.5 116.101 40.899 175 5.899 30.5 11.801 61 15.399 91.899 1 8.2 1.101 16.5 2.2 24.7 2.3 17.2 2.7 34.3-.3 51.5-7.7 44.101-21.2 86.2-41.7 126-3.2 6.2-7.101 12.101-8.601 19 4.003 2.001 8.204 4.001 12.404 6.001z"/><path id="l" fill="#231815" d="M1694.1 457.5c73 38.101 141.601 92.9 181.801 166.101C1882.2 635 1887.1 647 1892.2 659c14.2 33.7 16.899 72.301 17.899 108.5 1.801 62.301-3.8 125.2-13.5 186.7-2 12.5-2.699 25.2-3.5 37.899-.199 3.601-.399 7.101-.6 10.7-.2 4.5 2.199 9.2 3.5 13.5 4.5 14.5 8.8 29.101 13 43.801 12 41.699 22.699 83.8 30.6 126.5 3.5 18.8 6.601 37.8 7.7 56.899 1.3 21.8-3 42.899-8.8 63.899-7.7 27.801-17.601 55.301-29.101 81.801-1 2.399-2.801 16.8-8.2 12-2.399-2.101-5.5-3.4-8.399-4.801-12.7-6.199-25.7-12-38.601-17.899-28.3-12.801-56.6-25.301-85-37.7-2.3-1-4.6-2-7-3-2.899-1.3-6.1-1.1-8-4-1.8-2.699-.5-6.8.7-9.399 9.899-22.3 18.5-45.199 27-68.101 16.399-44.3 32.899-89.8 39.199-136.899 8.199-61.5 12.5-123.601 17.301-185.5.399-5.101.399-9.399 0-14.601-.801-11.5-1.801-23.3-4.5-34.6-3-12.601-5.899-25.101-8.899-37.7-.801-3.399-1.601-6.899-2.4-10.3-.1-.601-.5-3.601-.6-2.2-1.601.2-3.301.399-4.9.7.5 1.5.699 3.1 1.101 4.6.6 2.7 5.1 2.2 4.899-.699-1.6-19.5-9.899-38.601-17.699-56.301a547.162 547.162 0 0 0-7.2-15.6c-1.101-2.301-3.3-4.4-4.8-6.5-2.601-3.9-4.899-8.101-7-12.301-8.801-17.601-14.601-36.699-19.7-55.601-3.3-12.199-5.5-24.8-10.3-36.6-1.399-3.4-4.101-10.2-9-7.9-3.2 1.5-3.601 7.4-3.899 10.4-.601 4.899-.9 8.3-2.7 13.1-3.899 11.101-9.8 21.5-16.399 31.2-11.101 16.2-25.301 30.3-40.5 42.5-7.301 5.8-15.5 12.5-24.301 16-13.5 5.3-29.1 5.7-43.5 5.3-12.699-.3-25.399 0-38.1.301-34.801.8-69.601 2-104.301 3.3-9.199.301-18.4.7-27.601 1.101-16.199.601-32.1 9.101-45.801 17.101-27.799 16.399-53 38.3-74.799 61.8-13 14.101-25.4 28.7-37.4 43.601-3.199 3.899-6.301 7.899-9.5 11.899-3.5 4.5-2.1 11.3-1.1 16.601 3.299 16.601 11.199 32.899 18.6 48 9.5 19.101 20.4 37.5 31.9 55.399 13.699 21.5 28.199 42.7 43.699 62.899 25 32.7 46.5 71.601 50.399 113.301 3.601 38-1.801 77.699-14.801 113.5-4.1 11.3-9.1 22.3-15.199 32.601-2.301 3.8-4.199 7.8-6.899 11.199-.9 1.101-3.699 4-4.801 3.5-1-.399.899.5-.601-.399-.899-.5-2.1-.801-3-1.2-22.1-8.199-44.3-16.699-66.899-23.8-15.899-5-33.199-6.101-49.699-7.4-10.699-.8-21.4-1.399-32.199-1.6-3.201-.101-3.201 4.899 0 5h.799v-5c-2 .3-4.199-.101-6.299-.101.199 1.601.399 3.301.699 4.899 1.1-.199 1.699-1.399 1.801-2.399.699-7.899 5.799-16.199 9.199-23.3 3.301-6.801 6.699-13.601 10.301-20.4 2.699-5.1-.4-8.3-5.601-9.699-4.301-1.2-7.899-.801-11-1.2-24.102-3.699-48.2-9.6-72-15.1-8.899-2.101-17.7-4.4-26.5-6.601-5.5-1.399-11.399-3.801-17.2-4-8-.301-17.3-2.2-24-7-2.5-1.801-5.8-2.899-8.6-4.301-3.101-1.6-6.101-3.3-9.2-5-4.7-2.6-9.2-5.3-13.8-8.1-19.101-11.7-38.4-23.4-57.5-35.101-13.601-8.301-27.2-16.601-40.801-25 .399.899.801 1.899 1.101 2.8 3.399-8.899 12.899-15.199 20.7-20 8.6-5.3 15.3-14.399 21.699-22.1 14.2-17.2 26.301-36.101 36.399-56 6.6-13.101 12.2-26.7 15.2-41.101 1.8-8.899 2.601-18.101 2-27.2-.399-6.101-1.7-12.199-2.5-18.3-5.801-41.601-9.5-83.601-12.7-125.601-2.601-33.7-3.199-68.601 2.301-102.101 5.399-33 17.199-64 32.699-93.5 14.899-28.399 32.6-55.601 53.2-80.2 23.398-28 49-55.1 76.699-78.899 32.4-27.699 69.9-50.699 112.199-59.101 27.9-5.5 57.9-4.8 86.102-1.899 21.398 2.2 42.699 5.899 63.898 9.899 6.5 1.2 13.102 2.5 19.602 3.9 1.3.3 2.5.5 3.8.8.5.101 1 .2 1.6.101 3.7-1 7.601-3.801 11.101-5.5 41.7-19.7 89.101-24.7 134.101-15.101C1657.1 441 1677.199 447.2 1694.1 457.5c2.801 1.7 5.301-2.6 2.5-4.3-20.7-12.6-45.9-19.6-69.6-23.399-23.601-3.801-47.7-3.5-71.2.5-14.3 2.5-28.3 6.601-41.8 11.899-6.7 2.601-13.301 5.7-19.7 8.899-2.601 1.301-1 1.7-3.899 1.101-36-7.7-73.101-14.899-110-16-27-.8-53.801.101-79.899 7.601-44.4 12.699-82.801 41.101-116 72.399-25.2 23.7-49 49.5-70.2 76.8-19.399 24.9-36 52.801-49.699 81.101-13.4 27.601-23.101 56.899-27.301 87.301-4.699 33.899-3.8 68.5-1.199 102.5 3.399 42.8 7.199 85.6 13.399 128.1 2.3 15.601 1.5 30.301-2.7 45.7-3.5 12.5-9.101 24.399-15.199 35.8-10.801 20.5-24 39.9-39.4 57.301a250.71 250.71 0 0 1-7 7.601c-1.399 1.5-3.1 3.8-4.899 4.8-2.601 1.5-5.101 3.101-7.601 4.801-7.1 5-14.399 11.1-17.6 19.5-.4 1.1.3 2.3 1.1 2.8 20.301 12.5 40.7 24.9 61 37.301 22.601 13.8 45 28.399 68.801 40 6.4 3.101 12.101 5.8 19.199 7 3.4.601 6.801.3 10.101 1.199 3.3.9 6.601 1.7 9.899 2.601 12.5 3.199 25 6.5 37.601 9.199 14.5 3.2 29.101 6.4 43.601 9.4 6.3 1.3 12.601 2.6 18.899 3.699 4.601.801 5.601.4 9.899 1 .801.101 5.801 1.601 5.9 1.5-.5.9-1 1.801-1.5 2.801-2.4 4.6-4.699 9.199-7 13.8-2.801 5.7-5.601 11.5-8.199 17.4-1.9 4.399-3.9 8.699-4.301 13.5.6-.801 1.199-1.601 1.801-2.4-2.801.5-2.102 4.9.699 4.9 2 0 4.301.399 6.301.1 3.1-.399 3.299-4.8 0-5h-.801v5c12.699.301 25.5 1 38.1 2.101 15.7 1.301 31.9 2.899 46.801 8.199 14 5 28.101 9.9 42.101 14.9 6.6 2.399 13.301 4.699 19.899 7.199.9.301 1.699.601 2.601 1-1.5-.6-.601-.3.199.2 1.601.899 3.5.899 5.2.3 6.199-2.1 8.8-9.399 12.1-14.399 1.601-2.399 3-4.899 4.4-7.399 7-12.801 12.5-26.601 16.8-40.5 7.101-22.7 10.801-46.4 11.7-70.2.5-12.5.399-25.5-1.2-38-5.399-41-26-78.601-50.699-111-16.601-21.899-32.199-44.699-46.801-68-11.3-18-22-36.5-31.3-55.699-4.301-8.899-8.2-18-11.4-27.301-2.5-7.399-4.699-14.699-4.699-22.5 0-2.8-.5-1.899.699-3.399 1.301-1.699 2.7-3.399 4-5.101 4.601-5.8 9.2-11.5 13.9-17.101 13.1-15.8 26.6-31.3 41.1-45.899 9.7-9.8 20.2-18.399 30.9-26.899 15.1-12.101 31.6-23.101 49.399-31 10.3-4.601 20.5-6.601 31.601-7l39-1.5c34.699-1.199 69.399-2.5 104.1-2.899 24.4-.3 52.301 3.399 73.9-10.2 27.3-17.2 51.699-41.7 67.3-69.899 2.601-4.7 4.801-9.601 6.801-14.5 1.399-3.5 3.699-8 3.801-11.801.1-3.5.399-7.1 1.199-10.5.199-.699.399-1.399.699-2.1.399-.7-.699.3-1 0 2.7 2.3 3.801 7.399 4.899 10.6 1.7 5.101 3 10.2 4.301 15.4 6.699 28.399 14.699 58.899 30.601 83.7 2.199 3.5 4.899 6.398 6.699 10.1 2.7 5.601 5.2 11.2 7.7 16.9 6.699 15.6 13.8 32.6 15.3 49.699 1.601-.199 3.301-.399 4.899-.699-.399-1.5-.6-3.102-1.1-4.602-.801-2.8-4.699-2.1-4.9.7-.1 1.7.801 3.899 1.2 5.5 1.601 7 3.3 14 4.899 20.899 3.601 15.301 7.399 30.2 9.101 45.801 1.101 10.3 1.7 19.8.899 30-.899 12.199-1.899 24.399-2.899 36.601-2.899 35.399-5.899 70.8-9.601 106.101-2.101 20.6-4 41.399-8.101 61.6-4.3 20.7-10.6 41.101-17.1 61.2-7 21.8-14.699 43.3-22.801 64.699-5.199 13.899-10.699 27.7-16.199 41.5-1.601 4-3 8.101-5.101 11.899-1.399 2.5-2.399 5.301-2.801 8.101-1.5 11.101 9.301 12.899 17.2 16.301 11.899 5.199 23.8 10.399 35.601 15.699 29.399 13 58.899 25.801 87.8 39.801 2.801 1.3 6.899 3 8.5 4.5 3.301 3.1 7.7 3.3 10.899 0 4-4 3.801-10 5.9-14.9 1.801-4.199 3.5-8.5 5.301-12.8 13.799-34.301 27-70.301 31.799-107.101 1.701-12.601 1-25.199-.299-37.699-2.602-25.9-7.5-51.601-13.102-77.101-10.898-50.5-25.101-100.199-40.5-149.399-.699-2.301-.3-4.601-.199-7.101.301-5.2.6-10.399 1-15.601.6-8.101.899-16.3 2.199-24.3 1-6 1.801-11.899 2.7-17.899 9.8-69.601 15.9-141.301 9.101-211.399-1.699-18-4.5-36-9.5-53.4-2.699-9.399-6.9-18.1-10.199-27.2-5.801-16-14.301-31.199-23.5-45.399-41.801-65.101-105-114.5-173-150-3.201-1.409-5.701 2.891-2.8 4.391zm-632.901 774.7c16.199-18.801 23.801-44 28.801-67.801 2.899-14 5.1-28.399 5.8-42.699.2-3.2-4.8-3.2-5 0-.7 13.5-2.8 27-5.399 40.199-4.7 23.301-11.899 48.4-27.801 66.801-2.1 2.4 1.5 5.9 3.599 3.5zm85.5 26.5c3.199-15.899 1-32.7-1.199-48.601-1.5-10.699-3.301-21.399-5.7-31.899-.7-3.101-5.5-1.801-4.8 1.3 2.1 9.301 3.699 18.801 5.1 28.301 2.4 16 4.9 33.5 1.699 49.5-.499 3.199 4.301 4.5 4.9 1.399zm98.901 26.4c3.801-13.399 5.9-27.5 6.601-41.399.801-15-.101-31.801-7.199-45.399-10.301-19.801-20.5-39.601-30.5-59.601-15.5-30.899-30.801-62-44.7-93.7-7.699-17.5-15.5-35.1-18.5-54-6.8-43.3-3.899-88.699 2.7-131.699.199-1.301-.301-2.801-1.7-3.101-35.101-7-66-25.601-88.101-53.7-9.3-11.8-17.899-25.8-22.3-40.199-.899-3.101-5.801-1.801-4.801 1.3 4.699 15.399 13.9 29.899 23.601 42.5 22.399 28.801 54.7 47.801 90.301 55-.601-1-1.2-2.101-1.7-3.101-6.601 43-9.101 87.4-3.199 130.601.899 6.399 1.3 10.5 3.1 16.7 3.301 11.601 8.101 22.699 12.801 33.8 23.1 54.301 50.3 107 77.6 159.301 6.4 12.3 8 26 7.9 39.8-.2 15.2-2.4 30.9-6.601 45.5-1.003 3.197 3.796 4.497 4.697 1.397zm-93.901-423.9c15.199.399 30.899-2.7 45.5-6.601 33-9 63.199-27.101 86.399-52.199 2.199-2.4-1.301-5.9-3.5-3.5-23.1 24.899-52.6 42.3-85.301 51.199-13.799 3.801-28.699 6.601-43.1 6.2-3.297-.199-3.297 4.801.002 4.901zM1395.9 599.9c-8.801 6.5-16.399 14.899-23.601 23.1-13.101 15-25 31.2-36.101 47.801a758.118 758.118 0 0 0-21.6 34.199c-3.7 6.301-7.301 12.601-10.9 19-3.8 6.801-8.1 13.7-10.699 21-9.5 26.301-14.5 54.2-16.9 81.9-2.399 26.899-2.8 54.8.7 81.699.399 3.101 5.399 3.2 5 0-4.3-32.899-3.101-67.399 1.3-100.199 1.9-14.101 4.7-28.101 8.4-41.9 1.8-6.8 4-13.6 6.3-20.3 2.801-8.101 7.899-15.7 12.101-23.101 13-23.1 27.1-45.6 42.6-67.1 8.6-11.899 17.699-23.399 27.5-34.3 5.699-6.2 11.6-12.601 18.399-17.601 2.601-1.797.101-6.098-2.499-4.198zm-307.3 30.7c-4.199 16.801-5.199 35.2-2.6 52.301 1.899 12.399 6.6 24.699 15.8 33.6 11.3 10.9 27.399 13.4 42.5 12.301 19.899-1.399 40.101-8.301 58.7-14.899 41-14.601 78.199-36.101 114.6-59.7 47.9-31 96.699-61.399 147.801-86.8 10.199-5 20.5-9.9 31.199-13.7 6.4-2.3 13.9-5.2 20.801-4.3 3.199.399 3.199-4.601 0-5-8.7-1-18.2 3-26.101 6-13.601 5.199-26.7 11.8-39.601 18.5-30.6 15.8-60.3 33.5-89.6 51.5-16.4 10-32.601 20.199-48.7 30.699-39.899 26-81.5 49-127.101 63.2-19.101 5.899-40.601 12.601-60.601 8.8-29.399-5.601-36.5-35.899-35.8-61.699.3-9.801 1.399-19.801 3.699-29.301.603-3.301-4.296-4.602-4.996-1.502zm736.5 218.6c23-36.2 28.5-81.7 28.301-123.7 0-10.3-.399-20.8-1.5-31-1.801-16.399-9.399-33.1-17.7-47.1-18.101-30.3-46.601-53.1-77.101-70.2-20.399-11.399-42.3-20.7-64.8-27.2-1.601-.5-3.3-.899-5-1.399-3.101-.8-4.5 4.101-1.3 4.801 15.699 3.899 31 9.899 45.699 16.6 30.699 13.9 59.801 32.7 82.199 58.101 12.602 14.399 22.5 31.101 28.602 49.2 3.398 10.3 4.898 20 5.398 30.699 2.2 39.9-1 82.4-16.898 119.4-2.9 6.699-6.301 13.199-10.201 19.3-1.699 2.698 2.601 5.198 4.301 2.498zm72.3 154.4c-11.301-45.699-22.899-91.3-35.7-136.601-4.8-17-9.5-34.199-15.8-50.699-.899-2.399-2-7.399-4.601-8.899-2.8-1.601-5.3 2.699-2.5 4.3-.899-.5-.7-.899 0 .5 1.3 2.601 1.899 4.101 3 7.3 6.7 18.301 11.899 37.2 17.101 56 12 42.9 22.899 86.101 33.601 129.399.899 3.2 5.698 1.901 4.899-1.3z"/></g></switch></svg>