<svg xmlns="http://www.w3.org/2000/svg" id="hair" viewBox="0 0 3000 3000"><path id="cl1" fill="#AC7D45" d="M1295.9 367.7s61.9-24.6 169.101 7.3c0 0 49-26.6 116-20.8 0 0 100.899-2.8 267.5 110.5 0 0 45.5 30.3 56 92.3 0 0 24.101 7 19.301 208 0 0-3.801 63.102-58.801 160.602 0 0-4.699 19.3-6.801-10.602 0 0-3.6-101.398-16.398-123.398 0 0-10.102-25.8-51.5-65.7 0 0-33.9-26.6-49.9-35.6 0 0-61.4-21.102-106.9-116.2 0 0-12.249-45.95-25.749-20.352 0 0-44.751 110.65-161.751 144.45 0 0-91.898 36.7-143.398 59.7 0 0-54 28.3-62.801 89.2 0 0-6.101 41.1 3.101 83.5 0 0 6.5 41.2 1.6 40.1 0 0-16.7-6-43.8-14.898 0 0-96.6-38-112.6-18.4 0 0-35.602 14.2-38.9 59.5 0 0-12.1 50 47.3 112.5 0 0 12 6.5 3.2 11.5 0 0-16.2 77.2-119.5 83.101 0 0-69.9 16.399-124.3-41.101 0 0-78.602-35-66.8-132 0 0 12.898-53 53.3-55 0 0 43.7-5.1 72.1 17 0 0-64.5 11.101-58.6 46.101 0 0 2.6 36.199 50.3 32.101 0 0 50.1-13.101 56.7-52.102 0 0 11.7-13.698-3.602-75.1 0 0-44.1-168.8-60-196.6 0 0-108.5-149.9-84.898-244.602 0 0 7.5-106.2 127-195.9 0 0 91.7-65.898 219.1-18.8.096-.1 45.396 11.5 135.396 79.7z"/><path id="sd1" fill="#956D3C" d="M1078.5 514c-3.2 18-3 40.102-2.7 58.5.7 43.2 15.5 76.802 44.2 109.602 23.1 26.398 54 46.398 86.198 61 21.4 9.7 49.302 11.7 72.802 13 13.3.8 19.6-1.4 33.8-1.5-8.8 2.898-15.602 8.398-18.5 10-32.8 17.898-49 46.6-54.5 82.6-4.3 28.102-.8 55.7 3.1 83.5 1.601 11.5 4 23 3.4 34.7-.3 5.8 5.251 31.614-.05 29.314-26.101-11.101-56.969-26.129-83.168-36.73-10.801-4.398-26.48-11.406-38.08-13.005-10.602-1.5-18.225-.023-28.625 4.277-8.9 3.698-14.379-9.156-20.379-17.356-35.801-49.1-67.199-94.2-87.801-151.8-9.199-25.8-16.199-61.7-13.3-89 3.9-35.8 17.101-73.5 34.4-105.102 17-31.198 48.898-67.698 72.7-93.898 3.603-.3-2.799 19.998-3.497 21.898zm-41.1 504.2c7.7 28.602 13.9 57.2 8.101 87.5-7.699 40.4-25.899 72.4-64.199 90.602-1.5.698-3 1.5-4.301 2.5-1.5 1.198-4 2.398-2.899 4.6 1.3 2.6 4 1.4 6.1.7 21.102-.102 40.5-6.9 59.602-15 21-9 40.449-17.102 57.19-35.872 7.166-7.651 25.149-36.479 30.349-45.378-1.301-7.301-13.341-12.303-17.039-17.803-1.7-.399-16.783-16.435-17.882-17.734-17.9-20.8-17.208-17.913-23.009-44.813-3.1-14.3-3.678-27.426-1.478-41.325 2.3-14.101 6.263-17.873 17.463-27.772 4-3.6-1.496-17.501-4.496-21.301-11.2-14.5-18-21.602-27.9-37-23-35.9-45.5-66.4-60-106.7-10-28.1-10.198-23.7-17.8-68.7.602-3.6-5.398-38.7-5.2-42.399-.9-8.603.6-17.202.6-25.902 0-27.3 3.2-54.4 8.398-81.2 4.802-24.6 14.102-47.1 30-66.6 12.9-15.801 29.2-24.801 50.302-23.602 5.698.301 18.6 2.2 22.6 7.2 3.4-1.7 1.7-2.2 4.1-4.8 16.7-18 33.602-37.7 53.2-52.5 21.2-16 49.3-30.801 72.7-43.301-35.5-18.399-77.7-36.301-118.3-40.101-19.7-1.899-38.9-1.5-58.2 2.601-25.7 5.5-48.2 17.399-67.102 35.101-12.898 12-22.898 26.7-30.3 42.801-13.3 28.699-18.898 59.3-19.898 90.601-.9 27.5.198 55 3.5 82.399 2.1 17.399 4 34.899 6.898 52.101 5.3 31.6 12.9 62.899 22.602 93.6 6.3 19.9 16.1 38.601 21.1 59 6.7 27 13.8 53.9 20.1 81 2.302 9.9 7.7 29.5 7.7 29.5 9.898 18.099 27.498 60.997 37.398 97.997zM1212 391.4c-36.302 12.5-77 43.4-109.4 77.3-2.6 2.7-14.4 12.8-15.7 16.3-10.2 27.2-9 60.102-7.899 89.102s9.5 58.6 25 83c11.5 18.2 30.199 37.8 46.101 52.1 44.1 39.7 101.8 51.602 160.1 45.5 17.2-1.8 27.4-11.699 43.5-18.898 21.302-9.602 43.2-17.4 64.9-25.801 9.2-3.601 19-6.101 27.399-11.601-2.699 0-5.5-.6-7.899.101-16.601 4.601-33.5 7.899-50.5 10.699-15 2.5-30 4.9-45.3 4.9-21.602 0-43.102-.3-64.7-1.602-15.601-1-31.2-.698-46.4-4.5-7.398-1.898-15.3-2.3-21.898-6.198-12.802-7.7-24.802-16.602-35.7-26.9-17.9-16.899-30.2-37.8-39.4-60.399-8.5-20.801-11-43.101-11.8-65.101-.3-9.5 1.1-19.7 3.1-29.5 8.2-38.5 26.2-70.5 58.5-94 11.4-8.3 26.9-26.102 53-44.7C1249.3 376.2 1212.9 391.1 1212 391.4zM1901.698 555c-2.5 5 .802 19.302 0 24.5-8.398 56.802-32.698 93-83.198 128-8.4 5.302-24.802 8.102-34.5 11.102 2.898 4.898 13.1 14.898 16.398 18.2 9 8.898 17.7 18 25.3 28.198 12.9 17.302 22.5 35.7 24.802 57.802 2.898 28.398 5.5 56.898 7.3 85.398.5 7.5.8 15 2.399 22.4 3.101-.6 3.699-3.2 4.801-5.1 8.3-13.7 15.6-27.9 22.1-42.5 9.7-21.802 19.1-43.802 24.5-67.302-2.7-15.5-6.9-31.3-15.7-43.8-12.698-18.1-9.3-32.7.4-50.7 13.6-25.3 24.5-52.198 27.5-81.398-1.4-26-2.2-42-9.8-66.9-3.5-6.9-5.5-12.9-12.302-17.9zM1465 375c32.5 17.4 60.8 36.102 89 56.7 5.898 4.3 14.398 10.7 19.898 15.5 7.3 7.8 8.9 9.2 20.9 24.102 12.199 7.3 16.898 9.8 26.3 13-8.8-13.5-17.2-27-30.6-37.4 10.6-.1 18.198 4.2 25.398 9.9 3.602 2.898 7.602 5.3 11.4 8 24.5 17.398 51.7 30.898 75.6 49.698-1.1-4.198-3.5-7.898-4.398-11.898-2.2-9.102-7.4-16.3-13.7-22.602-13.602-13.6-26.3-28.198-41.8-40-13.802-10.5-28.2-19.7-44-26.8-8-3.6-16.2-5.6-25-6.3 9.8-3.7 19.6-6.2 31.398-8-9.6-3.3-17.5-5.8-25.2-8.7-7.5-2.9-15.8-2.7-24.1-6.9 5.5-2.698 9.9-3.5 14.7-3.398 7.3.2 14.7 0 22 0 3.5 0 6.899 0 9.5-3-2.101-2.2-4.4-2.7-6.7-3.3-15.7-3.9-31.5-7.8-47.2-11.7-5.1-1.3-10.5-1.8-14.5-5.9C1512.5 358.2 1485.698 364.7 1465 375zM890.9 981.9c-15.7-5.1-31.898-6.6-48.3-5.9-14.9.602-26.9 6.802-35.6 19-16.2 22.7-20.5 48.5-16.102 75.2C796.5 1104 812 1137.4 843 1155.302c22.9 13.198 49.6 20.398 76.3 16.698 30.1-4.198 55.398-19.8 77.898-39.5 8.102-7.1 14.4-17.8 18.4-27.898 4.1-10.102 6.8-37.102 2.899-47.7.5 11.2-4.899 36.3-12.601 45.4-5.8 6.898-11.7 13.8-19.1 19-23 16-49.4 21-76.602 20.198-17.5-.5-34.8-4.8-51.1-11.6-17.7-7.4-32.101-18.7-40.9-36-7.3-14.5-9.8-29.7-8.198-46 2.698-27.3 17.1-46.5 43.1-55.2 15.3-5.1 31.3-4.898 47.1-6.7-2.796-2.6-6.196-3.1-9.296-4.1zm743.7-404c11.6 21.4 24.4 42 39.6 61.1 12.5 15.7 26.301 30.302 44.5 39.4 19.2 9.6 37.102 21 54 34 4.5 3.4 6.4 7.4 11.301 6.3 10.699-2.398 23.801-9 32.301-16.398-3.301-.5-6.602-.302-9.7-1.9-13.9-7.1-28.3-13.3-41.7-21.2-27.398-16.1-52-36.3-76.8-56.1-17.6-14.102-34.4-29.102-49.8-45.602-1.301-1.398-2.7-2.898-4.801-3.398.399 1.298.499 2.598 1.099 3.798z"/><path id="hl1" fill="#D69956" d="M1103.8 274.1c-10.3 4.7-21.5 6.2-32.3 9.398-28.7 8.5-56.7 18.7-83.802 31.5-19.898 9.3-39.198 19.602-57 32.602C915.3 358.8 900.9 370.8 893 389c-1.7 3.8-5 7-7.602 10.4-20.6 26.6-35.898 55.9-42.5 89-3.2 15.9-3.7 31.9-1.6 48.4 3.6 28.398 13.898 54.398 24.1 80.698 11.8 30.4 28.8 58.5 39.8 89.2 7.9 22.2 15 44.7 21.602 67.3 7 23.802 14.1 47.7 19.5 72 6.1 27.4 12.898 54.7 16.1 82.802.8 7.3 1.4 14.5 1.6 21.8.102 2-.1 4-1.898 5.398-6.7-31.6-14.3-62.898-24.102-93.698-10.8-33.9-27.698-67.802-39-101.602-3.8-11.398-11.166-17.866-15.198-32-18.4-31.2-33-61.8-47.5-95.2-14-32.1-23.102-65.3-23.5-100.398-.302-27.5 4.1-54.4 14.8-79.9 19.6-46.9 46.1-89.2 84.3-123.5 41.5-37.3 90.3-56.6 146.2-57.7 15.198-.5 30.498-1 45.698 2.1zm358.398 106.2c-17.698-8.8-36.1-14.898-55.898-16.698-3.5.3-6.9.5-10.9.8 3.4 3 7.1 3.398 10.5 4.5 33.2 10.2 58.4 31.2 77.4 59.601 13.3 19.899 20.398 42.301 24.5 65.801 3.3 18.8 3.6 38 1.5 56.699-3 26.699-14.302 51-29 73.5-5.2 7.899-10.602 15.601-16.302 24 4.9 0 7.302-2.899 9.602-5.399 9.898-10.7 21.199-20 31.1-30.7 16.9-18.2 31.4-37.8 42-60.2 15.3-32.398 14.1-64.7-.3-97.2-6.101-13.898-15.5-25.398-24.5-37.3-18.5-14.704-38.6-26.904-59.702-37.404zM1875.6 641.7c1.4-.898.9-2.8 2-3.8 14.1-25.4 18.6-53 18.9-81.8.398-36.1-14.9-64.6-42.102-86.7-33.5-27.2-70.898-48.3-110.398-65.8-.302 4 3.398 4.7 5.698 6.2 22 15 42.9 31.2 61.5 50.398 5.102 5.302 9.802 10.802 14.5 16.4 11.5 13.4 21.602 27.8 29.9 43.3 11.7 21.8 18.899 44.8 20.8 70 1.102 15.5.602 30.3-2.2 45.3-.398 2.4-.8 4.602 1.302 6.4l.1.102z"/><path fill="none" stroke="#000" stroke-linecap="round" stroke-miterlimit="10" stroke-width="6" d="M1023.1 1069.7c2.4 33.7-17.8 56.3-30.4 69-12.7 12.7-76 51.3-128.7 28-52.698-23.3-73-79.6-73-79.6s-17.698-96.4 39-107.102c56.7-10.698 86.302 10.302 86.302 10.302S868 1001.4 860 1018.698c-13.3 29.301 14 64 59.302 46.7 46.698-10.7 51.3-72 48.698-88-2.6-16-8.698-33.4-17.698-67.1-50.467-153.133-34.786-112.644-59-162.9-23.801-49.399-86-150.6-82-218s36-127.3 77.3-174.7c41.3-47.3 92-84 193.3-83.6 101.3.398 215.9 96.698 215.9 96.698 89.898-26.3 158.199 5.602 169.1 7.302 37.3-16.302 80.7-28 153.3-16 90.7 16 214.7 87 243.7 115.7 29 28.698 38.3 59.698 42.5 82.3 14.5 13 17.5 72.3 19.9 119.3 3 54-2.2 114.7-8.801 134-1.301 5-28.601 72.7-28.601 72.7s-25.399 51.3-26.899 47.6-4.899-94.3-14.199-128.3-52.7-74.7-52.7-74.7l-40.3-29s-35-15.3-72-51.7c-39.7-43.3-50.89-78.309-58.7-96.3-6.6-15.2-11.94-1.275-14.35 3.05-11 19.75-4.352 12.65-45.052 65.95-40.698 53.3-111 76.7-111 76.7s-90.5 31.8-156.1 65.7c-71.4 44.3-56.6 137.3-56.6 137.3s15.801 97.614 9 95.313c-66.699-21.101-128.473-74.459-163.672-36.26-42.9 48.103-2.328 98.549-2.328 98.549s13.639 25.15 45.339 50.852c-20.301 52-78.939 91.55-147.439 96.35-79.1 13.4-116.2-37.398-116.2-37.398M1295.9 367.7s-109.399 9.8-209 117.3C998.5 568.5 979.5 653.802 977 676.4c-16.5 71.1 35.75 185.6 111.25 275.1M1086.9 485s-75.5 260.7 221.7 269.5m271.7-302.198S1499 388 1465 375m316.5 344.1c126.8-40.9 123-162.102 123-162.102"/></svg>