<svg xmlns="http://www.w3.org/2000/svg" id="hair" viewBox="0 0 3000 3000"><switch><g><path id="cl1" fill="#AD7B41" d="M1005.1 866.9c-.8-37.601-1.699-75.301 5.801-112.5.399-1.9.399-4 1.899-5.601 10.3-10.399 24-12.101 37.399-14.301 6.801-1.1 14.1-1.3 20.899.5 15 3.9 22.101 14.7 24.801 29.301 3.3 17.5 4.3 17.899 21.699 12.399 7-2.2 14-4.3 21.199-5.5 14-2.3 27.9-2.399 40.5 5.899 20.601 13.601 43 11.5 65.301 6.4 14.101-3.2 27.199-9.9 39.801-16.3-19.2 1.6-38.601 4.8-58.301 4.3-7.199-.2-15.699 1.3-19.6-6.601-3.601-7.399.6-14.101 5-20.199 1.199-1.602 2.5-3.102 2.899-5.9-3.899-2.5-8.2-1-12.2-.3-10.199 1.6-20.3 3.7-30.699 3.1-13.601-.8-19.7-7.399-19.101-21.199.199-5 1.899-9.801 2.8-14.7 2-10.899-.3-13.7-11.8-14-6.301-.2-12.601.5-18.899 1.3-6.7.9-13.801 1.601-18-5.199-4.301-6.801-1.7-13.601 2-19.7 4.101-6.8 9.199-13 13.601-19.699 5.5-8.4 4-12.601-5.7-15.101C1100.9 629.301 1085 628 1069 629c-3.301.2-6.7.7-9.4-2 18.7-35.699 41.9-68.5 67.7-99.3 18.8-22.399 39.101-43.399 61.7-62 3.1-2.5 6-5.2 9.8-6.8 24.3-9 49.8-11.7 75.3-14.399 24.2-2.601 48.4-3.2 72.7-.301 15.899 1.899 31.601 4.801 46.7 10 3 1 7.1 2 7 6-.102 3.301-3.602 4.5-6.2 5.899-24 12-45.101 28.2-66.7 46.5 37.5-10.5 74.101-18 110.601-25.8 1-.2 1.899-.5 2.899-.7 3.9-.699 9.301-3 11 1.101 1.9 4.601-4 6.101-7.3 7.601-27.601 12.899-48.3 33.9-68 56.2-3.2 3.7-6.5 7.3-9.7 11.1 12.9-8.399 26.4-15.6 40.601-21 22.101-8.5 43.7-18.1 65.601-26.899 20.6-8.2 41.8-13.399 66.7-11.7-7.101-3.3-12.4-4.699-17.5-6.6-2.101-.801-5.101-1.2-5.301-3.801-.301-3.3 2.899-4.3 5.301-5.101 11.8-3.6 24-5.5 36.3-6.699 1.6-.2 3.3.101 6.2-.801-7.101-5.899-14.801-9.1-22.601-12-3.101-1.1-7.5-1.899-7.2-5.699.2-3.7 4.601-4.301 7.801-5 21.1-4.7 42.399-8.399 64.199-8.601 33.301-.3 66.601.3 99.5 6.3 18.7 3.4 37.2 7.4 54.301 16.2 15.6 10.5 28.6 23.8 41.3 37.399 33 35.2 60.399 74.301 82.301 117.301.6 1.199 1 2.399 1.5 3.699-9.699 19.399-16.4 39.601-17.9 61.399-.3 5.101-3.399 9.301-8.1 11.9-1.5.8-3.199 1.699-3.699 3.3-2.801 11.101-9.4 8.899-17.5 3.7 2.898 7.199 5.398 13.199 7.199 19.399.6 2.101 1.5 5.3 4.399 4.101 4.101-1.7 7.601-8.101 11.699 0 .2.399.801-1.301 1.399-1.801 6.9-5.3 8.802-5 13.601 3 19.399 32.2 31.899 67.101 41 103.4 5.601 22.3 11.801 44.5 16.801 67 1.5 2.399 1.199 5.1 1.199 7.8.399 38.601 1.399 77.101.101 115.7-.8 24.899-1.3 49.8-9.601 73.8-12.699 37-29.5 71.8-53.899 102.7-4.101 5.199-8.699 10.1-14.3 13.8-7.2 4.9-9.301 3.9-12-5.3-2.101-6.2.1-11.9 2.6-17.301 17.801-39.199 28.601-80.301 32-123.101 2.4-31.199 2.5-62.6 0-93.8-5.899-75-24.899-147.5-43-220.2-6.5-26.199-11.8-52.6-25.5-76.399-16.199-28.101-35.3-54.101-56.199-78.7-14.399-17-29.301-33.6-45.101-49.399-8.8-8.699-9.101-8.399-14.3 3.2-3.601 8-4.2 17.699-12.2 23.399-4.899.3-7.699 3.399-10.199 7.101-12.5 18.899-24.9 37.899-33.699 58.899-6.5 15.7-15.9 29.101-27.201 41.5-7.899 8.601-15.799 17.101-24.799 24.5-.701.601-1.4 1.2-2.201 1.8l-.1.101c-4.101-.399-3.199-3.699-3.199-6 0-20.899 2.199-41.699 3.199-62.601 1.301-26.399 2.5-52.8 0-79.199-7.4-2.5-8.601-2-12 5.101-7.9 16.8-15.699 33.8-23.801 50.5-8.3 17.1-17.101 33.8-27.199 49.899-8.101 12.899-18.5 23.5-30.699 32.399-23.602 17.3-47.301 34.5-71 51.601C1383 784.2 1357.6 822.1 1340.7 866.2c-16.5 42.899-26 87.2-25.8 133.399 0 1-.2 2-.302 3-4.198 1.601-6.899-1.3-9.8-3.399-7.8-5.699-16-10.899-23.8-16.601-8.5-6.199-10.9-5.399-11.2 4.7-.399 12.601-2.3 25.2-2.5 37.8 0 2.301.101 4.7-.101 7-.199 3.301.301 7.2-3.3 8.9-3.601 1.699-6.301-1.2-8.7-3.4-23.899-22.699-46.199-47-68.3-71.3-5.801-6.399-11.801-12.601-18.301-20.899-4.1 10.8-5.1 20.699-5.399 30.8-.101 3.7 2.5 9.101-2 10.801-4.801 1.8-7.101-3.601-10-6.7-13.301-14.5-25-30.3-37.301-45.601-5.8-7.199-6.398-7.101-9.898 1.601-6.2 15.101-11.4 30.5-17.4 45.7-3.8 9.6-7.399 10.399-13.6 2.199-22-29.3-43-59.3-63.802-89.399-2.5-3.7-3.398-7.7-3.5-12.2.104-5.101 1.204-10.501-.596-15.701z"/><path id="sd1" fill="#99642F" d="M1005.1 866.9c3.2 3.8 1.601 8.3 1.7 12.5.101 4.8.8 9 3.7 13 17.199 24 34.1 48.1 51.199 72.199 4.399 6.2 8.899 12.4 13.399 18.601 1.5 2.101 2.699 4.601 6.601 4.899 8.199-21.3 16.399-42.8 25.199-65.8 18.602 21.899 34.301 44.3 54.399 65.399-1.299-16.8.301-31.5 5.101-45.5 3.2-.5 4.399 1.399 5.602 2.801 12.199 15.399 26.299 29 39.299 43.6 14.101 16 29.701 30.4 44.4 45.899 1.399 1.4 2.801 2.9 4.301 4.2 2.398 1.899 4.199 1.8 4.8-1.7.101-.699.101-1.3.101-2-1.2-15 3-29.699 2.101-44.699-.301-5.7 2.3-10.899 2.699-16.899 4.399.6 7 3.199 9.899 5.1 11.801 8 23.5 16.101 35.199 24.2 3 45.5 17.301 87.8 35.701 129.101 6.6 14.899 13.898 29.399 21.5 43.8-3.301 2-5.4-.399-7.701-1.399-25.299-11-50.6-22.101-76.299-32.2-1.5-.6-3-1.398-4.602-1.8-6.8-2-11.199 1.601-10.101 8.7.601 3.899 2.101 7.699 3.601 11.399 5.102 13.399 11.2 26.3 17.301 39.3.899 1.899 3 3.7 1.801 6.399-2.801.601-4.101-1.6-5.9-2.899-26.801-18.601-53.5-37.3-80.301-55.899-1.898-1.3-3.799-2.7-5.799-3.899-2.4-1.399-5-2-7.5-.199-2.801 2.1-2.9 5-1.801 8.1.6 1.601 1.1 3.101 1.801 4.601 8.799 19 17.699 38 26.5 57 1.299 2.3 1.6 4.101-2 4-28.4-23.101-56.801-46.301-85.201-69.399-1.799-1.5-3.6-3.101-5.6-4.2-5.199-2.8-9.301-.2-9.4 5.7 0 3.1 1.4 5.8 2.5 8.6 6.701 16.7 13.4 33.4 20 50.101 1.301 3.301 2.4 6.7 4.201 11.7-8.601-3.9-13.9-9.2-19.601-13.801-18.2-14.6-35.102-30.6-51.602-47.1-18.198-18.301-29-40.5-37.198-64.2-12-34.7-19-70.601-24.301-106.899-4.601-31.301-7.101-62.801-9.3-94.301-.598-8.806-1.299-17.406-.398-26.106zm711.3-424c-14.301-6.4-28.5-12.9-42.7-19.2-22.199-9.8-44.601-19.2-68.101-25.6-20.8-5.7-41.899-7.4-63.199-4.9-19.601 2.3-37.101 10.3-52.601 22.4-5.101 4-10.199 5.8-16.601 4.8-16.1-2.5-32.5-2.102-48.699-2.7-39.199-1.5-78.399.4-117.399 5.3-28.101 3.5-55.801 8.9-82 20.301-9.4 4.101-18.9 8.101-26.4 15.601 3.301 0 6.601 0 9.9-.801 28.899-7.601 58.6-10.8 88.301-12.899 21.899-1.5 43.799 0 65.399 3.899 12.601 2.2 25.3 4.601 38.101 11-15.301 7.399-29.4 15-42 24.601-12.601 9.7-26.5 18.101-36.101 31.601 42.5-11.899 85.699-19.899 128.8-28.601-18.3 9.7-36 20.101-50.699 34.7-14.4 14.3-29.2 28.199-39.9 45.899 17.9-10.399 35.9-20.399 55.199-27.5 15.3-5.601 30.201-12.101 45.1-18.601 25.8-11.3 52.399-19.2 81-17.101 1.102.101 2.8.5 3.2-2.199-7.801-5.801-17.6-7.5-26.7-11.4 17.2-5.199 34.7-9 54.899-8.5-11.799-11.399-24.6-15.8-37.299-20.5 4.699-3.899 9.898-3.3 14.699-4.3 20.1-4.601 40.399-7.7 61-7.101 18.199.5 36.5-.399 54.801 1.5 15.799 1.7 31.5 3.601 47.199 6.2 16.1 2.699 31.199 9.101 47.1 12.101-12.899-12.2-28.099-20.8-44.299-28zm31.299 191.7c28.399 28.601 49.1 61.801 62.801 99.7 18.3 50.8 33 102.601 44.3 155.3 3.601 16.601 7.601 33.101 8 50.2.899 43.3 1.2 86.601 2 129.899.2 9.399-1.101 18.5-3.101 27.7-6.3 27.899-12.8 55.8-15.899 84.199-1.101 10.5-2.601 21.101.8 31.5 0-4.399 1.301-8.399 3.101-12.399 5.399-12.101 10.801-24.301 15.101-36.899 6.801-19.801 12.2-40 15.301-60.7 2.3-15.3 5.1-30.7 4.8-46.399-.7-35.2 1.5-70.399-3.8-105.5-2.4-16-4.5-32.101-7.301-48-3.601-20.5-8.199-40.899-12.601-61.2-8.5-38.5-19.5-76.399-27.601-115-4.899-23.3-16.699-44-29.5-63.899-27.899-43.601-62.199-81.899-98.6-118.399-1.101-1.101-2-2.7-4.5-1.899-6.5 12-10.601 25.399-16.2 38.199 22.8 15.597 43.399 33.897 62.899 53.597zM1584.9 591.7c-5.301 33.8-10.399 67.601-15.601 101.399-2.101 13.601-3.899 27.2-6.101 42.7 9.4-7.301 16.601-14 23.4-21.101.1-8.399.1-16.899.199-25.3 0-3-.5-6.2.2-9 3.699-13.7 1.6-27.7 3.3-41.601 2-16.399.899-33.3.301-49.899-.301-7.4-.2-15.101-3.9-22 1.202 8.403-.499 16.602-1.798 24.802z"/><path id="hl1" fill="#CCA970" d="M1059.699 627c12.199-2.6 24.399-.5 36.5-.199 8.399.199 16.399 2.5 24.399 4.5 8.699 2.199 10.9 8.101 5.9 15.899-4.101 6.399-9 12.3-13.4 18.5-2.899 4.101-5.6 8.3-6.199 13.399-.899 7.601 2.199 11.301 9.899 11.601 3 .101 6.101.2 8.899-.601 8.2-2.3 16.601-1.199 24.801-1.101 6.899.2 8.199 2.4 8.5 9.5.199 5.101-1.801 9.801-2.7 14.7-.601 2.899-1.5 5.8-1.399 8.8.5 13.9 6.3 16.801 16.8 17 13.801.4 26.9-4.199 40.5-4.5 1.601 0 3.301-.6 4.9-.3 2.699.601 4.199 2.2 2.1 5-2.399 3.2-4.8 6.399-7.3 9.5-1.3 1.601-2.5 3-3.101 5.101-2.899 11.101-1.399 14.3 9.899 14.899 17.9 1 35.801-.8 53.5-3.3 6.9-1 13.9.699 20.4-2.7 1.1 3.101-.801 3.601-2.101 4.3-13.6 7-27.301 13.7-42 18.4-11.199 3.6-22.199 6.199-34 3.8-2.6-.5-5.301-.3-8-.101-9.199.4-17.301-1.399-25.1-7.399-12.602-9.8-27.602-10.5-42.801-7.5-8.5 1.7-16.801 4-24.9 6.899-2.8 1-5.6 2-8.699 2.101-7.899.2-9-.8-10.301-8.5-1-6.2-2.1-12.5-4-18.399C1087 744.5 1076.8 737.7 1064.5 736.9c-18.6-1.2-35.301 4.8-51.801 12.1.101-1.3.301-2.699.399-4 .9-1.3.7-2.899 1.302-4.3 5.799-27.101 15.799-52.8 27.1-78 5.5-12.3 11.1-24.399 18.199-35.7zM1939 888.301s-1.101-5.301-2.9-19c-3-40.7-10-98-18.399-145.101-5.9-33.2-16.101-65-31.5-95-6.3 6.7-8.3 15.8-13.199 23.2-3.301 5-4.601 10.1-4.101 15.899.601 7.699-1.301 15.101-3 22.601-1.101 5-3 9.699-9.2 10.3-3.101.3-3.601 2.399-3.601 4.899 0 2 .301 4-1.399 6.101-6.101-.2-10.699-5.7-18.3-6.7 3.699 4.9 5 9.601 7 13.9 1.8 4 2.5 8.199 3.8 12.3 1 3 2.101 5.8 5.399 6.399 3.801.7 3.7-3 5.101-5 .801-1.101 1.101-2.399 2.7-2.8 3.199 1.3 2.399 5.101 4.8 7.399 1-1.899 1.801-3.7 2.899-5.3 3.4-4.7 5.7-4.601 8.7.5 12.3 20.899 23.101 42.699 30.5 65.8 7 21.7 12.5 44 18.399 66 3.601 13.399 12.9 42.7 16.2 56.2.501 1.903.3-25.998.101-32.597z"/><path id="l" fill="#231815" d="M1555.3 394.7c20.899-1.3 41.8 3 61.8 8.7 20.7 5.9 40.9 13.8 60.5 22.6 13.601 6.101 27 12.601 40.101 19.7 10.7 5.7 21.399 11.3 31.5 17.899 35.899 23.601 65.101 56.7 89.801 91.5 18.101 25.5 34 52.601 47.601 80.7 8.6 17.8 15.8 35.8 20.8 55 9.601 37.101 15 75.399 19.5 113.5 3 24.8 5.5 49.8 7.3 74.699 3.7 49.2 3 98.7-.3 147.9-1.2 17.5-2.7 35.1-4.8 52.5-1.801 15.6-8.5 30.699-14.601 46.1-7.899 19.9-17 39.601-28.301 57.801-6.101 9.801-13.101 19.399-21.601 27.301-2.199 2.1-4.5 4-7 5.6-.8.5-1.6 1-2.5 1.5-.399.2-2.199 1-1.399.7-.699.3-2.3 1.1-2.699.699-2-1.8-2.399-5.899-2.801-8.3-.699-3.601-.899-7.2-1.101-10.9-1.399-28.5 5.9-57.199 11.7-84.899 2.5-11.8 5.101-23.601 7.8-35.3.7-2.899.5-5.801.5-8.801 0-6.6-.1-13.1-.199-19.699-.5-34.101-1.101-68.101-1.7-102.2-.1-7 .2-14.101-.699-21.101-2-16-5.899-31.8-9.301-47.5-9.3-41.899-20.399-83.1-35.1-123.5-6.699-18.5-14.101-36.8-22-54.8-4.301-9.8-8.699-18.601-14.9-27.5-22.3-31.8-51.699-59.2-81.3-84.101-4.5-3.8-19-17.5-24-9.699-1 1.6-.301 0 .601-.5-.601.3-1.101.8-1.601 1.3-1.5 1.399-2.7 3.3-3.899 4.899-3.899 5.5-7.301 11.399-10.7 17.2-8.199 14-15.8 28.399-23.399 42.699-5.2 9.801-10 19.601-16.601 28.5-16.8 22.4-38.8 41.9-60.699 59.101 1.399.801 2.801 1.601 4.199 2.399 7.2-47.899 14.399-95.8 21.601-143.699 1.2-8.2 5-20.101-.399-27-4-5.101-10.7-1.101-12.801 3.3-11.199 23-22.5 46-33.699 69-3.4 6.899-5.801 14-9.601 20.7-5.601 9.601-12.601 18.3-20 26.399-13 14.101-28 26.399-43.7 37.3-9.399 6.5-19.3 12.101-28.8 18.5-18.2 12.2-35.5 26.101-50.399 42.2-21.4 23.2-37.7 49.899-48.9 79.399-12.899 34-20.199 70.301-24.3 106.399-.8 7-1.5 14-1.8 20.9-1 20.1 1.8 40 6.399 59.5 9 38.1 24.3 74.8 41.8 109.699 2.101 4.101 4.2 8.199 6.301 12.199.399.801.8 1.602 1.3 2.4.301.5.601 1.1.899 1.6 1.601 3.102 1.2-.699 2.5-.1-.5-.2-1-.601-1.5-.9-2-1.3-4.6-2-6.8-2.898-5.899-2.5-11.899-5-17.8-7.5-14.4-6.102-28.801-12.2-43.301-18.301-7.601-3.199-20.399-11.101-28.3-6.301-1.801 1.102-3.101 3.102-3.5 5.2-.101.5-.2 2.5.3 4.4 1.601 7.1 4.601 14 7.301 20.8 4.899 12.6 10.1 25.1 15.5 37.6l3.399-3.398c-20.101-13.7-40.2-27.4-60.301-41.2-8.399-5.8-16.899-11.5-25.3-17.3-4.101-2.801-10.5-7.5-15.801-5.2-4.1 1.8-4.199 6.899-3.699 10.7.3 2.3 1.8 4.6 2.8 6.699 2.801 6.199 5.7 12.399 8.5 18.5 5.601 12.199 11.2 24.399 16.801 36.699.199.4.399.801.601 1.2.1.3.3.6.399 1 1.101 2.5 1.3-.2 1.199-.2-.899-.3-2-1.399-2.8-2-4.399-3.3-8.7-6.8-13-10.3-12.899-10.4-25.7-21-38.5-31.5-8.5-7-16.899-14-25.399-21-4.601-3.801-10.5-8.9-16.9-8.801-4.899.101-6.699 5-6.801 9.101-.1 3.5 1.201 6.399 2.5 9.6 2.801 7.2 5.601 14.4 8.4 21.5 5 12.801 10.1 25.5 15.1 38.2.101.2.101.3.201.5 1.199-.899 2.399-1.899 3.699-2.8-33.9-23.2-67.8-51.101-90.199-86.101-5.201-8.101-8.9-17-12.5-25.899-8.301-20.7-14.4-42.3-19.4-64-15.6-68-20.801-139.2-19.699-208.9.199-15.1-.102-30.1 1.3-45.199 2.399-26 8.3-51.699 16.301-76.5 9.1-28.101 21-56.101 36.6-81.301 12.601-20.3 24.699-40.898 38.301-60.5 13.601-19.6 28.199-38.398 44-56.199 18.5-20.801 38.898-40.699 62.3-56 4.6-3 9.301-5.899 14.301-8.199.5-.2.899-.4 1.399-.602.601-.3-.601.301 0 0 6.8-2.699 13-6.6 19.899-9.1 35-12.7 73.7-15.602 110.5-17.3 34.2-1.601 68.5-1.2 102.7.1 8.399.3 16.899.8 25.3 1.101 4.7.101 7.601-3.3 11.399-5.899 11-7.4 23.101-13.301 35.801-17.2C1536.1 396.5 1546 394.2 1555.3 394.7c3.2.2 3.2-4.8 0-5-12.399-.6-25.5 3-36.899 7.3-12.801 4.7-24.7 11.5-35.7 19.5-3.5 2.601-.5.9-.699.9h-.899c-1.101 0-2.2-.1-3.4-.1-25.8-1-51.6-2.101-77.399-2.2-38.601 0-77.5 1.5-115.7 7.7-16.899 2.699-33.8 6.5-49.699 12.899-6.2 2.5-12 5.7-18 8.601-15.5 7.5-29.399 18.699-42.2 29.899-30.6 26.8-56.399 58.8-79.6 92-19.199 27.399-37.601 56.3-52.4 86.3-19.8 40.101-33.5 83.5-38.8 127.9-3.101 25.5-2.399 51.899-2 77.6.5 36.7 2.899 73.5 7.2 110 5.3 44.5 13.6 89.2 29.199 131.301 3.899 10.6 8.101 21.399 13.801 31.199 6.301 10.7 14.199 20.5 22.5 29.801 20.801 23.5 45.6 43.5 71.399 61.199 1.699 1.2 4.5-.8 3.699-2.8-4.5-11.2-8.899-22.5-13.3-33.7-3-7.699-6.101-15.399-9.101-23.1-1.3-3.301-3.399-7.301-3.601-10.5-.1-1.601-.1-3.4.801-4.9 1.5-2.399 7.8 2.101 9.101 2.9 3.301 2.199 6.399 4.899 9.399 7.399l33 27.3c11.8 9.7 23.601 19.399 35.601 28.899 2.6 2 5.301 4.7 8.199 6.101 1.801.899 4.601 1.301 5.801-.8 1.301-2.301.199-4.899-.9-7.101l-15.3-33.301c-3.101-6.699-6.2-13.399-9.2-20.1-.899-2-1.8-4-2.8-6-.2-.5-.5-1-.7-1.601-.399-1 .101.601 0-.101-.899-4.601.601-6.699 5.301-4.601 3.301 1.5 6.301 3.801 9.301 5.801 9.398 6.399 18.8 12.8 28.101 19.199 18.299 12.5 36.6 25 54.899 37.4 2.3 1.6 4.3-1.4 3.398-3.4a1857.5 1857.5 0 0 1-13.5-32.6c-2.699-6.9-5.398-13.7-7.6-20.801-.5-1.699-1.199-3.5-1.4-5.3 0 0 .102-.9.102-.4.199-.8.601-1.5 1.199-2 3.601-2.8 9.801.601 13.601 2.2 5.199 2.2 10.5 4.399 15.699 6.601 14.601 6.199 29.2 12.399 43.801 18.5 5 2.101 9.899 4.199 14.899 6.3 2 .801 4.5 2.601 6.5 3 6.301 1 2.801-6.899 1.4-9.399a239.636 239.636 0 0 1-4.602-8.8c-17.199-33.4-31.898-68.4-41.699-104.7-5.699-21.101-9.699-43-8.801-65 .301-6.601.899-13.3 1.602-19.899 3.699-35.601 11-71.301 23.199-105 11-30.399 27.699-57.7 49.6-81.399 15.7-17 34.2-31.301 53.5-43.9 8.7-5.699 17.801-10.899 26.4-16.899 15.699-11 30.399-23.399 43.399-37.5 7.199-7.8 13.699-16.3 19.3-25.399 4.2-6.899 6.7-14.399 10.2-21.601 11.199-22.899 22.4-45.899 33.699-68.8.4-.899.9-1.7 1.301-2.601-.1.2-.6.601-.301.399.5-.399 1.101-.699 1.7-1 5.101-2.5 3.101 12 2.899 13.7-.8 6.899-2 13.699-3.101 20.5-4.5 30.199-9.1 60.399-13.6 90.601-2.101 13.8-4.199 27.699-6.301 41.5-.399 2.6 2.101 4 4.2 2.399 9.199-7.2 18.101-15 26.699-22.899 14.899-13.7 29.801-28.5 40.7-45.7 5.399-8.5 9.601-17.899 14.3-26.8 7.7-14.5 15.601-29 24.101-43.101 2.801-4.601 5.5-9.5 9.101-13.5.601-.601 2.399-2.801 2.199-2.101 0 0-.1.2-.399.3 1.399-.199 2.899.7 4.1 1.2 10 4.899 19.102 14.399 27.301 21.7 15.9 14.199 31.301 29.1 45.5 45.1 10.9 12.2 22.699 25.5 29.699 40.5 32.701 69.9 53.801 144.4 68.602 220 1.601 8.4 3 16.5 3.199 25 .301 13.4.5 26.7.699 40.101.601 32.399 1.301 64.7 1.4 97.101 0 6.899-3.101 16.101-4.699 23.5-3.701 16.899-7.201 33.899-10.301 50.899-2.5 14.2-5.5 28.9-5.4 43.301 0 4.1.301 7.899.7 12.399.5 5.899.899 13.601 5.101 18.2 6.399 7.1 22.1-9.7 25.5-13.4 9.199-9.899 16.6-21.399 23.3-33.199 11.5-20.2 20.5-41.9 28.601-63.7 3-8 7.199-16.601 8.3-25.101.601-4.199 1.101-8.5 1.5-12.699 2.2-19.301 3.7-38.601 4.9-58 2.801-46.5 3.1-93.3-.5-139.7a1794.706 1794.706 0 0 0-8.101-80.399c-4.699-37.601-10.199-75.399-20.1-112.101-5-18.399-12.4-35.699-20.801-52.8-14-28.601-30.4-56.101-48.9-82.101-24.5-34.2-53.399-66.101-88.399-89.7-10.3-6.899-21.3-12.5-32.101-18.399-12.899-7-26.1-13.399-39.5-19.5-20-9-40.5-17-61.5-23.2-20.699-6.1-42.699-10.6-64.399-9.3-3.3.804-3.3 5.804-.1 5.604z"/></g></switch></svg>