<svg xmlns="http://www.w3.org/2000/svg" id="hair" viewBox="0 0 3000 3000"><switch><g><path id="sd1" fill="#956D3C" d="M1738.3 545.7s-62.198-7-88.398-4.601C1621.8 543.7 1569.8 550.4 1512.3 573.4c-31.898 12.699-57.601 32-79.898 58-39.802 46.3-55.2 81.199-70.102 139.6-8.601 33.7-16.898 85.102-16.101 120 .601 23.4 6.301 43.602 13 66-2.699 6-7.399 12.4-11.3 20.2-8.802 17.3-20.102 33-31.899 48.3-13.4 17.4-26.601 35-40.601 52-23.899 29-30.899 62-24.602 98.302 5.8 33.301 19 63.698 38.3 91.398 14.302 20.602 35.102 32.199 57.802 40.899 15.3 5.9 31.101 9.601 47.3 12 1.9.301 4 .2 5.301 2.801-21.1 16.102-92.5 30.5-94.801 30.801-22.399 3.5-44.8 6.199-67.5 6.399-27 .199-76.8-7.301-78.899-7.899-14.8-4-28.698-10.399-42.698-16.5-37.9-16.399-75-34.301-109.9-56.399-13.8-8.699-26.8-18.601-39.1-29.199-30.2-26.301-38-62.801-21.4-99.398 8.5-18.7 20.101-35.4 33.301-50.7 35.5-41.102 55-89.8 68.399-141.399 3-11.5 5.101-23.2 7.7-34.898 6-10.302 10.698-21.2 17.1-31.302 1.7-2.601 2.9-7.3 6.7-5.898 3.5 1.3 2.2 5.8 1.8 9-3.5 25.7-9 51.101-12.699 76.8-4.5 31.601-6.101 63.5-8 95.301-.199 2.699-.601 5.3-.699 5.8 6.801-23.601 17.601-48 27.801-72.5 6.898-16.601 14.898-32.698 23.1-48.601 2-3.8 3.301-8.1 7.301-10.5 1.102-.399 2-.1 2.699.9 1.801 3.3.801 6.5-.199 9.698-15.198 46.5-22.801 94.399-27.698 142.899-.7 7.301-.302 14.601-.2 22 0 3 .4 6.2 2.5 8.5 15 16.5 32.5 29.9 52.2 44.301-2.399-22.2-5-41.898-4-61.801.198-4.8-1.899-12 3.198-13.5 5.4-1.6 7 5.9 9.699 9.7 17 24.2 36.2 46.7 55.2 68.3-8.8-22.6-15.8-46.399-19.3-71.199-.102-1-.4-2-.4-3-.199-3.601-1.199-8.5 2.5-10 4.101-1.7 5.601 3.5 7.9 6 .398.5.698 1.102 1.1 1.602 13.101 17.198 12.2 19.898 26.5.5a1085.956 1085.956 0 0 0 65.601-100.302c10-17.3 17.302-35.1 19.2-55.898 4.602-50.5 18.399-99.5 28.5-149 4.8-23.5 11.3-46.602 17.602-69.602 6.197-22.898 19.898-42.698 31.6-63.198 15.1-26.5 35.5-49.102 53.6-73.302 2.103-2.8 6.603-5.398 4.9-9-1.6-3.398-6.6-2.6-10-2.898-28.199-2-56.3-3.8-84.699-1-31.101 3-62.301 5.601-93.301 9.5-43.3 5.398-84.1 20.101-123.8 37.7-3.5 1.601-6.899 4.398-11.2 2.5 4.4-10.102 10.5-19.302 16.5-28.399 14.7-22.2 29-44.601 46.9-64.5 18.697-20.801 40.697-37.301 64.898-50.801 44.3-24.8 92.102-39.602 141.899-48.5 31.5-5.602 63.101-9.5 95.101-10 18.102-.2 35.899 2.3 53.602 4.7 32.3 4.398 64.3 10.398 95.6 19.601 45.301 13.3 88.4 31.399 126.7 59.699 21.198 15.601 40.897 33.001 56.698 54.301C1821.5 561.1 1739.1 546.7 1738.3 545.7zm91 251.9c-4.8 5.101-5.101 10.301-4.101 16.5C1829.1 838 1833 862 1836.5 886c5 34.2 9.199 68.5 14.699 102.602 5.5 33.601 4.601 67.001-1 100.301-8.602 50.601-25.301 98.5-51.301 142.899-21 35.801-45.5 68.198-84.5 86.301-3.398 1.6-4 4.1-3.5 7.3 2.5 16.2 6.899 31.802 16.602 45.5 1.5 2.2 31.6 15.899 55.398 23.899 25.199 1.399 55.602.399 79.199-8.5 32.102-12.199 59.801-31 84.5-54.601-.5-1.301 0-2.601.199-3.899 5.601-33.3 15.301-65.699 21.201-98.899.897-5.101 3.1-10.398-1.103-15.101-4 2-6.8 5.399-9.5 8.7-11 13.398-25.397 22.198-39.698 31.601 14.698-23.601 24.898-48.601 27-78.101-17.9 14.898-34.302 29.601-53.9 39.601-2.299-2.801-1.1-4.601-.6-6.5 4.5-16.9 2.6-32.9-3.802-49.5-6.3-16.4-12.698-33.7-7.601-52.2.301-1.198.101-2.698.101-4-.698-51.101 1.899-102.3-3.601-153.3a2101.459 2101.459 0 0 1-4.799-50.4c-.602-6.8-1-13.8-2.102-20.698-1.898-12.399-3.602-24.8-5.5-37.2-2.301-16-4.5-32-7.102-48-1.1-6.399-1.1-12.399.9-18.6 2.301-6.9 4.699-13.802 4.199-21.302-10.19 14.899-19.389 30.399-31.589 43.697zM1465.4 600c-22.302 16.802-34.399 28.7-49.602 52.102-24.601 37.801-42.3 75.5-53.5 119-6.601 25.801-13.8 58.601-14.601 85.398 2.101 64.9-5.699 50.802 12.301 91.4 1.699-7.101 3.601-30.4 5.601-37.4 5.301-17.898 12.899-34.3 28.801-45.5 8-5.698 16.699-9.6 25.898-12.6 39.602-12.9 80-22.5 120.5-32.2 21.102-5 72-22.8 70.899-18.601 9.5-1.199 18.4-2.199 27.2-3.601 20.5-3.101 40.898-6.699 58.898-17.601 22-13.301 44.7-25.101 68.7-34.301 3.699-1.399 12-9.5 12.8-13.6 13.2-30.7 11.5-42.301 14.802-64-2.699 1.1-22.199 28.3-28.602 35.5-24.398 27.898-54.898 46.8-89.6 59.199-3.103 1.101-6.4 1.301-10.603 2.198 19.5-25.397 30.302-52 25.399-83.3-.1-.6-.1-1.3 0-2 .4-9.398-1.899-18.398-3.399-27.5-2.397-14.3-8.198-28.1-6.8-43.1.101-1.5-.899-2.301-3.1-2-1.102 6.897-1.302 14.1-3.802 21.1-4.5 12.3-10.399 23.7-17.301 34.7-12.5 20-27.601 38.1-44.5 54.7-17.601 17.3-37.5 30.5-61.199 37.8-32.601 10.1-65.899 17.399-99.601 22.5-8.301 1.2-8.301 1.3-8.301-6.7 0-1.7-.101-3.398.301-5 3.101-14 1.699-28.398 3.4-42.5 1.1-9.2 1.299-18.7 2.897-27.6 6.301-34.603 19-75.5 32.899-108C1480.3 589.6 1477.699 590 1465.4 600zm329.5 94.802c-7.399 31-11.302 62.698-20.399 93.398-3.4 11.3-7 22.5-9.101 35.602 9.898-5.399 18.398-10.802 27.398-14.899 16.602-7.5 29.5-18.899 39.602-33.801 9.3-13.699 19-27.199 24.898-43-3.898.898-5.8 4.301-8.398 6.801-7.399 7.101-14 15.101-22.802 20.601-8.301 5.102-16.398 10.699-25.898 14.399-.802-9 2.301-16.399 2.6-24.301.4-12.5-1.6-25.199 1.801-37.602.302-1.198 0-2.6-.198-3.898-2-12.699-3.399-25.5-3.7-38.3-3.004 8.098-3.903 16.698-5.803 25z"/><path id="cl1" fill="#AC7D45" d="M1126.6 621.9c32.802-15.5 66.5-28.601 101.9-36.7 14.8-3.398 29.699-5.898 45-7.601 16.1-1.699 32.199-3.101 48.3-5.101 10.102-1.199 20.399-2.399 30.7-2.899 14.6-.699 29.1-1.899 43.699-1.8 19.898.101 39.6 2.898 60.1 4.5-1.898 6.199-6 9.898-9.199 14.3-13.698 19.101-30.5 35.899-42.698 56.2-9.102 15-19.7 29.101-26.399 45.601-2.4 5.899-7 11-9.601 17.199-3.899 9.2-6.7 18.5-9 28.301-3.302 14.1-8.2 27.899-11.102 42.199-8.8 42.101-18.601 84-27 126.2-3.5 17.8-6.8 35.8-6.601 54.101.101 4.399-1.699 8.5-3.5 12.399-8.5 18.101-18 35.601-28.699 52.398-15.898 24.899-31.898 49.7-49.301 73.602-3.699 5.101-5.8 12.101-13 14.199-.5.101-1.102.899-1.102 1.399.7 11.399-4.3 3.699-6.8 1.8-7.7-6.1-12.2-14.8-18-22.698-3.398 13.101 6.2 52.398 21.8 90.101-7.3-3.5-23.6-21.301-37.3-39.5-11.101-14.7-22.7-29-34-44.301 0 12.801-1.101 25.699.3 38.398 1.401 12.699 1.302 25.699 5.2 38.199-4 1.102-6.2-1-8.601-2.699-16.899-11.898-32.399-25.198-47.5-39.301-4.3-4-5.6-8.398-5.699-14.1-.101-16 2.1-31.7 3.699-47.5 3.2-32.7 9.801-64.8 18.4-96.4 2-7.3 4.198-14.6 6.698-21.8 1-2.899 1.302-5.8 1.302-8.8-9.4 14.2-16.302 29.7-23.302 45.2-9.5 21.198-17.898 42.897-26.5 64.498-3 7.399-5.398 15-8 22.602-.698 2.2-1.3 4.301-4 7.2 0-10.9-1.398-20.4.899-29.7 1-4 .801-7.899.801-11.899-.2-15 2.399-29.7 3.602-44.5 1.898-24.5 7.1-48.398 10.6-72.601 1.5-10.102 3.601-20.199 5.5-30.199.301-1.5 1-3.101-1.1-5.101-6.602 12.5-13.2 24.698-19.602 37-1.7 3.3-2.5 2.101-3-.602 2-17.8 3.3-35.7 1.8-53.601-.898-10.899-1.698-21.8-1.5-32.8.102-3.899-.5-8 1.602-11.7 1.898 1.2 2.2 3.2 2.601 5.2 2.899 13.101 6.6 15.198 19.6 11.398 9.602-2.8 18.7-7.101 28.2-10.101 13.602-4.199 26.5-3.899 39.399 3.5 19.301 11 36 1.2 52-8.5 7.101-4.3 13.101-10.199 18.9-16.199 4.698-4.9 10.1-6.301 16.3-3.2 10.3 5.102 19.601 2.102 28.101-3.898 11.699-8.2 22.199-18 33.699-28.7-11.699 4.5-22.3 8.398-33.699 7.301-8-.7-16-1.801-20.5-10-3-5.5-6.4-1.5-9.101.1-12.399 7.4-25.399 13.2-39.399 16.602-6.301 1.5-12.601 2.2-17.7-3.102-3-3.198-5.898-1.8-9 0-4.601 2.802-9.601 4.4-15.101 4.5-12.399.2-16.899-3.198-18.3-15.6-.7-5.9-2.5-5.301-6.899-3.601-21 8.198-32.801 3-40.601-18.102-3.2-8.7-5.8-17.7-6.102-27.101 4.802-17.899 12.5-34.699 20.102-51.6 8.404-18.09 16.704-36.09 27.704-52.59zm592.099-82.2c-33.602-.5-65.102.5-98.602 4.3-31.898 3.602-63 14-93.5 24-19.301 6.302-31.801 14.602-48 27.4-4.801 4.8-7.5 10.8-9.801 17.1-19 50.802-25.699 103.802-28.299 157.602-.5 10.101 2.1 12.5 12.5 10.801 23.299-3.801 46.6-8.301 69.5-14.301 24.5-6.399 49.1-12.8 69.899-28.5 28.3-21.3 50.897-47.8 69.101-78 8-13.3 15.6-27 17.399-41.699-.103 3.101-.399 7.399.698 11.699 4.9 18 8.102 36.2 9.302 54.898 1.5 22.4-3 42.9-14.103 62.2-2 3.5-4.5 6.602-6.6 10-1.602 2.7-5.102 5.602-2.5 8.7 2.398 2.8 6.301 1 9.398.1 7.4-2.198 14.5-5 21.4-8.3 83.699-27.2 99.5-92.398 100-86.101 1.8 25.2 4.399 67.301 1.6 92.5-.398 3.5-2.301 7.7 1.5 10.2 3.5 2.3 7-.301 10.199-1.899 19-9.601 35-22.801 47.5-40.101 5.9-8.602 22.301-35.399 21.701-32.602-.801 3.899-11.601 40.7-18.201 54.5-3.699 12.301-10.299 24-8.299 37.602 9.6 63.199 18.199 126.5 22 190.5 2.399 41.3 2.1 82.601.6 123.898-.698 18.602 1.4 36 7.802 52.802 6 15.8 9.101 31.198 4.897 47.8-.799 3.101-1.897 7 1.201 9.4 3.5 2.8 7 .3 10.101-1.603 10.198-6.3 20.101-13.1 29.301-20.897 3.699-3.2 7.199-6.802 12.101-9.2.199 2.7-.399 5-.801 7.3-3 19.801-11.101 37.601-21.101 54.7-1.601 2.7-4.5 6.398-1.601 9 3 2.7 6.199-.8 8.799-2.5 16.201-10.7 31.201-22.7 42.5-38.899 3.701-31.2 2.103-61.7-11.1-90.899-5.199-11.5-10.101-23.199-16-34.399-11.199-21.101-17.5-43.699-21.699-67.101-7.899-44.699-1.399-89.5-1-134.301 0-1 .301-2 .399-3 2.5-24.801 3.8-49.801 2.3-74.699-.898-14.199 2-17-.699-33.399 1-6.699-1.199-13.199-1.898-19.8-2.602-24.602-8.602-48.2-19.102-70.801-12.301-26.5-25.5-52.602-39.898-78-10-17.699-21.4-34.399-35-49.5 0 0-7.801-9.801-76.7-15.602-3.593-.199-25.593-2.797-29.194-2.899z"/><path id="hl1" fill="#D69956" d="M1946.5 1331.7c-1.9-.301-2.5-1.101-2.301-3.301.801-9.899 3.1-19.6 5.199-29.199 5.301-24.2 11.699-48.101 16.199-72.5.801-4.301 1.102-8.5 1.102-12.801 0-11.699-.199-23.3.1-35 .4-20.399-5.8-39.1-13.399-57.699-7.398-18.2-17.8-35-24.698-53.398-5.5-14.602-9.199-29.699-12-45.102-4.602-24.601-5.199-49.601-3.602-74.398 1.301-19.302 0-38.602 2-57.7 2.5-23.8 3.699-47.602 3.699-71.5 0-17.8-4.199-34.8-8-51.899-.699-3.101-3.199-6-1.3-10.101 4.898 5.801 6.101 13.398 11 18.801 3 10 2.698 20.5 3.601 30.699 2.899 34.5 4.699 69.2 2.699 103.801-1.699 28.699 4.301 55.5 14 82 12.5 34.1 28.2 66.8 43 99.899 7.898 17.601 15.7 35.301 22.601 53.301 18.5 48.5 12.602 94.1-16.398 136.8-12.303 18.297-27.002 34.697-43.502 49.297zm-889.9-506.2c.102 2.7.199 5.302.4 8 .399 9.5 7.1 14.5 16.699 12.602 11.801-2.3 22.5-8 33.898-11.602 13.302-4.1 25.9-4.6 38.102 3.602 4.898 3.301 10.699 6.5 16.801 5.301 15-2.899 29.699-6.5 41.699-17.301 5.199-4.602 10.699-8.899 15.398-14 4-4.3 8.102-5.199 13.302-2.3 2.8 1.601 5.8 4.198 9.101 3.601 7.699-1.399 15.699-2.399 22.199-7.801 11.5-9.5 23.199-18.8 33.5-29.602 1.398-1.5 3.898-2.398 3.5-5.398-4.5.7-8.199 2.7-12.199 4.2-11 4.101-22.2 7.101-34 4.198-7.101-1.8-13.7-4.1-12.101-14.898-5.302 2.7-9.602 4.398-13.5 6.898-11.302 7.2-23.5 12.2-36.5 15.4-3.899 1-7.7 2-11.7 1.199-4.8-.899-5.602-6-8.399-10.101-7.398 7.199-15.398 11.399-25.398 10.5-8.802-.801-11.899-3.5-12.5-12.101-.302-3.5.8-7.101-1-11.101-2.602 1.101-4.802 1.8-6.7 3.101-6.199 4.101-13.1 4.399-20.1 4.101-6.5-.301-11.4-2.899-14.5-8.801-3.2-6.199-6-12.5-7.7-19.398-1.602-6-1.8-12.5-5.7-17.801C1066.9 758.1 1058.9 791.2 1056.6 825.5zm783.9-99.3c6.3-14.601 12.5-29.3 19.199-43.8 4.398-9.601 3.301-9.5 12.801-4.7 3.1 1.602 6.199 3.2 10 5.102-.5-1.802-.601-2.7-.9-3.5-2.898-6.399-9.301-10.602-12-16.602-3-6.601-4.801-13.7-8.301-20.2-.6-1.198-1.299-2.3-2.1-3.398-10.102-13.602-23.301-23.602-38.4-30.8-9.299-4.399-18.6-10.802-30.199-7.2-1.198.398-3.301-.8-4.5-1.899-10.898-9.8-24.301-14.699-37.698-19.699-19.302-7.301-38.899-13.398-59.5-15.398-7.2-.7-14.602-.102-24-.102 3 2 3.698 2.699 4.601 3 21.399 8.899 37.3 23.899 48.1 44.199 8.4 15.7 10.199 32.7 9.602 50.301-.301 9.102-1.699 17.602-4.801 26.199-4.602 12.5-11.699 23.801-17.102 35.899-.6 1.301-2.898 2.898-.398 5 5.602-6.602 9.898-13.5 13.398-21.102 11.102-23.398 24.201-46 33.701-70.1 1.898-4.801 4.5-6.101 8.898-5.5 2 .199 4 .5 5.898.899 19.301 4.601 35.201 14.9 49.102 28.7 5.3 5.302 9.397 10.602 10.3 18.5 2 17 6.899 33.802 2.801 51.102-1.101 4.398-2.2 8.801-3.5 13.7 7.098-5.201 11.898-11.499 14.998-18.601z"/><path id="l" fill="none" stroke="#000" stroke-linecap="round" stroke-linejoin="round" stroke-miterlimit="10" stroke-width="6" d="M1242 1360.1c-11.7-.101-46.301-3.199-58.7-3.8-34.8-1.7-87.601-23.2-159.198-66-29.302-19.9-59.102-41.9-75.5-61.2C921.8 1188.2 938 1155.2 970 1110.301c38.4-45.301 63.9-104.899 78.5-158.101 8.399-56.7 5.3-65.898 6.5-115.101 1.6-56.199 14.899-107.601 48.899-173.3 18.898-40.2 52-96.301 86.101-135.102 37.6-41.601 90.8-69 150.6-87.898 59.9-19 126.5-25.4 200-19.302 158.4 16.4 268 83.602 328.9 201.802 45.3 77.5 67.399 189.5 57.5 309.199-.2 28.101 18 70.899 18 70.899 27.5 63.699 61.8 127.999 68.399 161.3 9.8 86.802-16.102 129-96.102 191.302-77.398 52.198-145.398 41.698-168.101 25.3-8.1-2.399-15.399-6.399-21.5-11.8m-130.997-567.197c-13.602 7.3-59.699 19.398-76.102 23l-89.5 23.5c-31 7.398-66.398 24.898-71.698 108.198m237.3-154.698c49.6-2.5 79.1-8.102 112-26.602 33-18.601 58-29.7 67.398-35.3m19.102-80.4c5.1 40.302-16.301 111.5-29.801 163.7 69.102-23.8 90.102-78.8 111.898-123.398M1598.9 799.2c49.101-24.2 66.898-68.5 80-142.101m97.2 83.301s13.9-27.9 19.102-80.301M1359.3 957c-19.101 37.5-38.198 69.103-69.398 102.603-38.7 43.8-59.7 100-23.899 166.1 39.399 82 86.5 84.4 139.699 94.801-41.602 25.199-76.699 25.102-100.699 33.199M1733 540.2c-156.301-6.5-276.7 27.7-339.7 147.5-47 106.602-60.698 193.2-34 269.3m368.5 412.6c-4-3.601-20.5-23.899-17.101-49.899 33.301-20 61.898-39.301 99.601-108.801 43.602-95.899 42.802-142.6 43.899-196.6 1.101-54-10.899-104.7-29.602-212.602M1242 1360.1c14.199 0 49.8-5.5 62.899-6.399M1234.8 1289.2c31.302 34.899 66.2 59.399 102.5 57.8m-254-125.9c8.7 60.5 46 115.2 115.399 136.2m626-555.6c35.5-42.3 52.199-82.398 52.6-101.3m-127.999 681c70.7 28.899 111.2-32.5 126-53.7"/></g></switch></svg>