<svg xmlns="http://www.w3.org/2000/svg" id="图层_2" viewBox="0 0 3000 3000"><path id="cl1" fill="#3D3D66" d="M1774.198 684c3.698 21.9-4.603 62-6.897 88.5-2 22.2-10.3 48.104-17.397 69.4-5.699 2.3-6.199-2.101-6.5-5.601-2.302-22.2-5.5-44.2-7.199-66.399-.397-5.301-4.103-23.601-6.103-28.7-7.801-3.5-5.897 9.899-8.301 17.899-4.199 14-3.699 26.801-7.5 40.896-10.397 38.199-27.397 77-43.699 113.199-2.601 5.7-5.697 11.2-8.601 16.899-.699.699-1.399 1.5-1.603 2.601a3.432 3.432 0 0 1-.603 1.2c-9.2.898-6.397-6.102-5.803-10 3.803-22.5 4.398-45.301 2.699-67.801-3.5-47.104-4.5-94.5-17.604-140.399-5.396-18.8-16.303-34.5-24.896-51.5-.199-.3-.302-.601-.5-.896-1.802-2.899-3.5-5.899-7.604-5.305 1.898 7.199 5.197 7.699-4.303 69.604-3.295 39.5-26.896 100.396-45.896 135-4.397 8.101-10.699 16.396-15.604 25.5-2.396-3.699-1.896-6.399-1.896-8.8-.199-25.604-.302-51.306-.397-76.899 0-4.7-.201-6.801-2.603-11-8.699-4.2-12.397-1.5-16.199 5.199-15.5 27.396-26.103 57-37.103 86.301-.803 2-1.897 4-2.303 6-.601 3.199-1.896 5.399-5.101 5.8-4.103.5-4.899-3.101-5.801-5.8-3.604-11.399-7.398-22.7-10.604-34.2-5.5-19.601-13-38.5-17.896-58.3-1.5-5.899-4.104-9.7-4.398-15.601-.302-4.7-5.802-12.104-10.802-13.7-4.698.5-.198 5.5-1.5 9.396-6.3 18.5-7.104 31.5-8.8 43.5-1.7 13.306-3.5 28.9-4.104 42.104-.101 2.601 1.604 6.601-3.101 7.101-4 .399-4.304-3.8-4.804-5.896-3.896-14.604-7.196-29.304-8.801-44.399-4.801-47.396-2.601-94.396 7.699-140.896 1.699-7.899 1.602-14.699-2.699-21.399-5.801-1.8-4.101 5-5.896 10.104-5.898 16.603-13.104 27.603-17.604 44.697-7.301 28-19.5 57.303-26.5 85.399-14.699 58.896-16.301 118.5-9.101 178.5 3.601 29.8 11.101 58.801 18.5 87.897 3.101 12.302 6.5 24.396 9.698 36.696.602 2.304 1.5 4.7-1.104 6.2-2.396 1.396-4.301-.7-5.602-2-10.303-9.7-20.104-20-30.699-29.3-11.801-10.4-20.301-23.2-27-33.5 2.898 4.194 6.898 11.5 12.104 18 6.603 8.194 14 15.1 14.697 24.396 16.899 39.899 27.303 81.301 49.199 118.604.699 2.194-.301 2.8-2.301 2.396-9.803-7.396-25.699-4.396-34.303-13.101-39.102-34.399-66.5-82.5-90.697-128-6-11.399-10-25.399-16-36.801-10.803-2.699-9-28.699-15.199-23.305.199 13.399 4.199 27.104 9.398 38.604 12.102 26.896 25.102 53.396 40.197 78.8 7.604 12.7 13.699 26.301 21.199 39.2l-.101-.104c.5.699 1 1.5 1.396 2.304 4.2 8.602 8.399 17.196 12.604 25.802 1.3 2.601 0 9.601-3.804 9.5-44.396-24-76.303-70.899-102.696-117.302-12-21.198-24.2-42.898-36.7-63.804-4.102-6.896-14.602-21.396-17-29.196-16.699-54.5-17.398-110.604-18-167.698-.199-21 4.602-69.302 4.7-71.5 0-.4-4.104-3.104-4.804-1.604-3.196 7.104-12.803 13.399-19.602 16.699-10.199 4.9-14.199 13-13.301 24.301 4.301 52.805 11.6 105 30.697 154.805 3.104 8.101-.104 20.601-6.896 22.301-21.701-26.801-41.5-59.604-55.201-91.4-13.299-30.896-16.197-71.896-20.6-105.1-4.305-32.604-4.305-65.104 1.6-97.5.5-2.9 1.201-5.9 2.4-8.604 24.695-57.601 58.6-109.101 103.6-152.896 55.5-54 120.604-91.501 194.701-113.9 53.699-16.2 108.699-23.4 164.5-24.2 21-.3 41.699 4.5 62.102 9.3 41.303 9.805 80.898 24.604 119.303 42.604 1.801.8 3.301 2.103 5 3.2-4.699 9.8-9.898.601-14 .7 18.801 15.5 30.102 36.696 37.801 60.1 2.396 7.301 4.896 14.604 6.396 22.104 2.197 11.001-1.896 15.103-12.803 12.896-10.1-2.1-20.1-4.699-29.6-9-6.199-2.8-9.9-2.199-11.104 5.604-2.102 13.5-11.602 18.197-25.102 13.103-5-1.898-9.398-5-13.898-7.8-4.396-2.803-6.896-1.9-6.896 3.697 0 1.698.1 3.303-.104 5-.699 9.603-5.602 13.698-15.102 12.303-5.7-.9-10.898-3.303-15.398-6.803-7.199-5.697-13.896-5-20.699.803-8.301 6.896-17.5 12-28.801 12.5-5.896.197-10.803-1.303-15.5-5.4-9.5-8.5-12.896-7.896-21.102 2.2-4 4.897-7.5 10.102-13.103 13.602-11.604 7.398-21.397 7.302-32.397-.896-11.803-8.803-11.803-8.803-23.603-1.7-23.604 14.104-33.897 9.301-37.802-17.603-.896-6.604-1.198-13.302-2.896-19.697-2.699-10-9.9-13-19.199-8.2-5.699 3-10.199 7.5-14.603 12.104-5.397 5.5-11.104 10.5-17.698 14.603-3.5 2.101-7.5 4-11.103.8-4.103-3.5-1.103-7.396.801-10.8 2.399-4.399 5.603-8.303 7.699-12.899 1.698-3.801 4.698-8.396 0-11.697-4.103-2.897-7.5.697-10.5 3.197-8.603 7-14.603 16.399-22.5 24.104-3.897 3.802-7.302 9.699-14.103 7-7.303-2.898-8.5-9.5-8.303-16.604.103-5.697.303-11.301-.197-17-.897-9.697-4.897-12.396-14-9.396-3.803 1.302-7.397 3-11.397 3.802-11 2.103-16.302-2.802-13.603-13.7 1.603-6.3 1.896-10.102-5-13.602-5.697-2.898-2.104-7.104 1.697-10.104 11-8.697 22.603-16.5 32.899-26.101 2.3-2.2 5.8-3.5 5.696-7.7-4.196-2.3-7.799.301-11.196 1.897-17.399 8.396-33.899 18.603-50.2 28.896-2.3 1.399-4.8 3-5.8 5.399-7.603 18.5-23 31.601-33.804 47.896-.5.803-1.196 1.604-1.696 2.5-1.399 2.803-5.399 5.699-2.7 8.803 2.5 2.896 6.303.102 9.2-1.104 12.3-5.1 24.897-9.5 37.601-13.5 3.803-1.199 7.699-2.3 11.699-2.8 19.301-2.5 27.199 6.101 24 25.5-1.5 8.897-4.301 17.5-5.199 26.5-1.197 12 3 15.601 14.399 11.897 10.8-3.5 20.696-9.104 30.897-14.104 5.396-2.601 10.696-5.5 16.5-7 10.5-2.601 17.196.5 21.896 10.3.398.9.898 1.804 1.199 2.7 8 19.104 8 19.104 26.301 10 3-1.5 6-3 9-4.396 18.199-8.697 24.604-7.804 39.301 5.803 11.102 10.197 16.303 11 29.602 4.697 3.303-1.604 6.701-3.104 9.803-4.897 18.398-10.399 36.303-9.2 53.803 2.101 1.102.699 2.197 1.5 3.396 2.199 19.699 12.604 19.801 12.7 38.604-1.8 16.396-12.603 34.5-14.603 53.896-9.3 3.5 1 7 2.197 10.301 3.697 12.699 5.603 23.898 4 33.5-6.604 10.803-11.8 23.602-13.8 38.102-7.601 6.701 2.896 13.5 5.696 20.803 6.801 9.697 1.5 15.102-1.301 19.398-10.104 1.5-3 2.301-6.302 3.697-9.302 4.699-9.698 12.898-13.896 23.604-12.1 9.199 1.5 18.199 4.198 27.5 5.3 4.699.602 9.301.7 13.896-.3 5.199-1.104 11.199-1.302 13-7.604 1.699-5.896-2.396-10.101-6.102-13.896-27.398-29-58.802-53-92.802-73.801-7.396-4.5-7.5-4.5-4.603-10.305 16.303 6.199 30.898 15.5 45.303 25 58.396 38.699 108.486 91.093 141.888 152.395 17.304 31.698 25.515 63.51 35.313 98.31 8.199 28.9 9.302 58.301 8.699 88.104-.604 27 2.5 52.896-5.303 79.896-3.697 22.104-11.197 44.2-17.396 65.604-.899 3.1-.399 7.3-4.899 7.6-4 .2-5.3-3.5-7-6.2-9.101-14.896-16.897-30.396-24.198-46.396 5.198 9.195 5.698 19.396 7.399 29.396.601 4-1.201 6.303-3.802 8.5l-.104.104c-.601.8 14 58.5 5.303 65.695 1.603 51.604-18.803 107.304-37.199 142.198-5.301 8.803-11.5 18.303-15.801 27.5-9.803 20.7-31.303 37.5-46.199 54.604-3.698.196-3.399-1.604-1.899-3.899 9.701-19.898 28.899-63.398 29.701-71.5-3.397 4.7-26.201 14.102-33.5 19.7-2.103.5-3-.303-2.397-2.4 32.603-56.396 50.603-117.896 62-181.5 10.897-60.5 15.397-121.5 14.301-183 0-2.7-.104-5.3-.198-8-1.802-1.1-2.103-4.8-5.698-7.8-.197 2.8-1.102 2.8-1.802 6.3-1.899 9.9-5.302 17.3-9.5 26.4-4.603 10-16.198 31-20.802 41-9.5 2.199-4.801-14.801-4.896-18.5-.104-22.7-3-45-6.398-67.4-4.5-29.3-14.102-57.1-25.397-84.396-2.243-6.503-2.945-8.605-8.945-5.305zM1199.8 1659.5c23.303-27.1 41.2-82 39.5-127.396-.397 5-.604 12.396-.3 19.8 1.6 38-6.104 74.2-20.104 109.2-3.104 7.8-2.5 15.3-1.104 23 2.604 16.3 2.897 32.396-3.896 48-2 4.6-4.2 9-6.303 13.5-.397 5.5 2.603 5.699 6.197 3.5 3.701-2.2 6.701-5.5 9.604-8.604 32.3-34.1 58.5-72.3 75.896-116.1 13-32.801 18.604-66.5 9.399-101.4-6.198-23.396-15-45.5-33.603-62.3-11.395-13.741-29.575-31.854-43.397-40.7-7-7.8-16.698-11.194-25.899-15.194-14.101-6.104-27.896-12.699-38.101-24.699-22.801-26.899-26.801-58.5-21.801-92.101-.104-22.2.301-44.399-.5-66.604-.699-20-3.604-39.601-14.104-57.301-1.697-5.6 1.604-12.3-5.3-16.899-22.101-14.697-17.022-31.961-29.821-54.366l-3.668-7.667c-1.5-.801-4.264-8.482-5.666-9.282-6.604-11.104-5.136-14.856-9.334-27.052-6.898-20-12.771-23.563-9.569-44.667-2.5-1.5-18.941-19.769-19.341-22.567-1-6.5-3.301-12.7-6.801-18.2-2.802-4.3-5.699-9.5-12-8.8-5.802.601-9.199 4.8-11.5 9.898-.602 1.196-.897 2.5-1.5 3.696-1.102 2.304-1.199 5.699-4.5 5.804-3 .102-4.396-2.698-5.802-4.898-5.198-8.102-10.3-16.3-15.5-24.399-2.198-3.396-5-5.194-9.101-4.801-4.399.4-5.699 3.604-7.199 7.104-3.398 8-.2 15.194 1.8 22.6-1.897-7.7-4.8-15.1-7.3-22.6-7.898-23.604-15.801-47.306-19.301-72.2-.699-5.2-2.399-10.806 1.896-16.604 7.604 12 11.5 24.399 17.604 35.801.5.805 1 1.604 1.601 2.305 5.802 3.896 8.2 10.3 11.7 15.896 1.896 2.899 4.602 4.699 8.3 4.104 4.103-.604 5.2-3.5 5.7-7 .102-1 .199-2 .3-3 .2-1.9 0-4.5 2.103-5.2 2.897-.899 4 1.8 5.104 3.7 2.699 4.6 4.896 9.396 6.8 14.396 1.399 3.699 2.604 7.5 4.104 11.199 1.499 3.801 3.396 7.801 8.103 7.5 5.103-.3 5.7-5.102 6.7-8.8 2-7.102 1.697-14.602.601-21.7-1.199-7.896-1.301-15.399 1.301-22.899.104-1 .302-1.896.398-2.896-.8-6.3-6.604-8-10.5-11.104-18.5-14.101-36.898-28.101-51.699-46.396-6.301-7.8-12-15.8-18-23.8-2.699-3.604-5.397-6.104-9.601-1.9-23.104 48.9-23.803 97.5 1.5 146 6.601 12.7 14.3 24.801 22.3 36.7 16.896 25.2 22.301 52.101 12.7 81.601-6.604 20.305-14.2 40.199-21.399 60.199-7.101 19.7-14.601 39.4-16.5 60.5-2.801 31.104-3.601 61.4 12 90.5 11.603 21.7 25.301 41.301 42.5 58.604 5 1.303 6.699-1 6.399-5.697-.2-3-1.303-5.803-2-8.604-7-27.196-10.899-54.396-7.104-82.696 2.399-18.304 8.604-35.5 12.5-53.304 1-4.5 4.199-7.302 9-7.696 5.899.601 6.399 4.801 6.303 9.5-.303 13.396.896 26.601 2.5 39.801 3.803 30.6 14.603 59.397 23.803 88.6 6.602 21 15.102 41.2 26.197 60.303 21.803 37.304 51.897 66.697 88.303 89.397 8.184 12.032 18.102 16.2 22.396 28 1.898 5 3.898 9.899 5.198 15.103 10.841 16.957 14.075 26.945 10.075 45.945-8.104 38.803-35.479 77.856-66.075 101.752-12.198 9.5-26.3 13.9-41.698 15.104-18.198 1.396-35.896-.9-53.198-6.4-3-1-6.101-1.699-9.697-2.6.603 1.5.697 2.396 1.103 2.696 18.603 13.397 38.299 23.897 61.5 27.104 17.603 2.396 35.197 2 52.799 1.301 21.999-4.42 40.897-13.02 55.999-30.62zm758.3-488.4c-.697-2.601-.5-5.5-4-5.899-3.1-.301-4.896 1.801-6 4.301-5.396 11.604-9.6 23.604-9.896 36.604.602-8-2.5-15.604-3.197-23.5-.4-4.9-2.104-9.801-7.604-10.301-5.896-.5-5.896 5.301-7 9.196-5.896 19.698-4.802 39.698-2.802 54.804-1.302-22.199-4-49.399-7.698-76.5-2.396-17.5-3.396-34.699 4.104-51.899 5.697-13.101 7.697-27.601 5.8-38.801-.603 12.396.603 28.101 1.801 43.896.699 9.604 5.199 13 11.399 2.306.101-.306-.699 2-.104 1.1 2.104 13.9 4.604 28 4.5 42.4 0 3.6.397 7.8 5.104 8.5 4.801.694 6.301-3.306 7.396-6.7 2.801-7.699 4.7-15.699 3.897-23 .103 6.896-.5 15 1.5 22.7 2.5 9.5 5 18.8 5 28.694 0 2.806.303 6.104 4 7.104.2-1.604.7-3.199.7-4.899.196-22.198-.304-44.5.696-66.698.5-11.802-1.103-23-3.196-34.396-2.604-14-4.5-28.2-6.7-42.301-1.397-13.304-1.197-26.7-.103-40 .199-.7.303-1.304.5-2 .199-9.104-7.301-12.5-12.897-17.104-8.8-7.101-12-6.601-17.197 3.8-11.5 22.9-22.5 46.003-30.803 70.306-4.8 14.101-10.5 28.197-11.897 43-2.603 27.396-4.199 55-.396 82.5 6.197 44.896 18.601 89.697 53.5 121.197 17.601 17.803 37.301 31.104 58.396 44.803 17.301 11.197 35.397 21.301 51.801 33.896 33.803 25.899 53.604 59.399 55.604 102.604.604 12.301 1.104 24.601 1.604 36.896l-.199-.198c2.199-1.5 2.199-4 2.699-6.196 4.697-22.699 5.896-45.804 2-68.5-8.803-51.604-31.199-96.399-69.5-132C2024 1307 2006 1295.5 1990.8 1282.1c-17.8-15.699-25.896-35.899-26.603-59.3-.197-6.306-.197-12.604-.197-19-5.1-10.2-2.9-21.9-5.9-32.7zm-681.902 219.3c3.5-15.4 6.225-37.3 5.93-52.898-.5-22-1.726-41.655-8.127-62.752-9.701-31.898-34.899-52.246-64.399-68.444-3.101-9.306.399-21.056-1.146-35.311-9.804 14.699-32.654 40.91-19.449 51.311 15.397 12.101 27.697 26.801 37.601 43.601 6.803 11.5 11.399 24.104 17.199 36 6.301 13.104 10.397 26.604 12.698 40.803 3.603 21.803 3.802 43.803 3.699 65.697 0 5.303-.397 10.7 2 15.7 7.596-10.007 11.196-21.707 13.994-33.707zM1950.5 826c16.896 14.306 30.396 31.4 42.5 49.9 14.6 22.3 24.696 46.399 31.1 71.899a345.446 345.446 0 0 1 10.104 70.896c1.303 33.899-2.5 66.899-16.398 98.399-3.699 8.396-4.896 17.896-7.199 27-.6 2.5-.396 5.101 2.199 6 3.301 1.101 3.301-2.5 4.5-4.104 6.398-9.396 9.898-20.196 14.104-30.696 7.604-19 12.803-38.5 14.104-58.899 2.396-35.7-.104-71.103-8.604-105.896-11.104-45.898-32.396-86.303-64.896-120.698-6.803-7.2-18.5-18-28.104-24.302-2.01 6.803 1.09 15.803 6.59 20.501zM949.4 1278.2c-.897 20.8 7.697 58.604 16.3 76.604 14.897 31.101 37.7 56.396 62 80.194 22.103 21.604 45.103 42.306 70.397 60.4 20.603 14.8 41.897 28.3 64.802 39.199 5.898 2.801 12 5.5 18.5 6.896 2.5-10.3 2.198-11.194-6.398-14.5-15.602-5.896-30.102-14.3-44.102-23.101-35.199-22.3-66.302-49.899-96.699-78.199-11.896-11.101-22.102-23.896-32.396-36.5-18.397-22.396-32.104-67.101-39.199-95.301-2-8.101-6.104-14.5-11.398-21.399-1.907 2.407-1.707 4.007-1.807 5.707zm1104.497-75.2c-6.896-3.5-12.896-7.694-18.3-13.396-10.302-10.7-21.2-21-31.897-31.4-2.803 8.5-1 17-.5 25.604.397 8 4.301 12.301 11.397 15.698 24.397 11.5 50 19.603 75.5 28.103 2.603.897 5.103 1.3 7.8.603-14-9.512-29-17.41-44-25.212zm35.603 107.5c-.397-2.6-1-5.194-1.2-7.8-.8-17.396-4.897-34.101-12.197-50-3.803-8.301-6.7-19.5-17.399-18.601 1.899 4.7 5.399 20 7.303 24.5 11.5 27.396 14.301 55.801 9.603 84.896-1.103 6.604-3.103 14.199 2.897 18.604 5.493-16.297 13.493-35.797 10.993-51.599zm-89.802-288.5c-1.397-1.8 0-4.396-1.603-6.194-.302-1.604-.5-3.306-.897-4.899-6.897-28.7-19.697-57.101-38.197-79.5-2.5 2.8-6.103 10.8-7.5 14.104-3.603 8.602-2 15.102 4.697 22.102 14.5 15 27.103 31.602 36.897 50.199 1.603 3.101 2.803 6.896 7 7.801-.095-1.113-.195-2.311-.397-3.613z"/><path id="sd1" fill="#21234C" d="M1956.198 1006c-5.197-4.194-10.197-8.6-15.5-12.6-5.802-4.4-7.197-4.2-10.5 2.399-10.603 21.5-20.603 43.198-29 65.698-2.697 7.196-5.397 14.302-7.397 21.696-8.5 30.5-8.8 61.699-6.603 93 2.303 33 10.897 64.199 26.803 93.304 6.397 11.696 14.301 22.396 22 33.196.801 1.104 1.301 2.304 1.897 3.5-12.7-7.101-22.603-17.5-31.897-28.396-16.5-19.303-30.5-40.303-43.899-61.899-6.302-10.101-9.697-20.7-10.697-32.5-.5-6.601-3.2-13.801-3.5-20.5-.303-7.5 1.697-14.601 5.603-21.2 17.897-30 27-68.8 33.197-103.196.699-4 4-23.198 5.603-26.897 15.5-36.5 31.201-61.301 41.201-99.801.6-2.199.896-4.604 3.896-6.699 6.896 5.603 15.896 19.8 20.8 27.103-.397 5.397-1.196 14.197-2.3 19.603-.803 4.102.896 7.897 3.697 11 17.103 18.602 31.699 38.801 40.603 62.699 3.804 14.396 6.603 29 8 43.896-.103 2.2 3.397 5.604-2 6.104-3.103-10.5-5.897-21.104-9.696-31.5-5.604-15.199-16-26.604-28.4-36.5-3.709-2.61-7.509-3.91-11.911-1.51zM1131.8 1160.7c4-.604 10.3-2.097 11.8.903 2.104 4.1 4.104 8.398 5.604 12.8 3.5 9.802 14.991 20.311 16.491 30.607 2.601 18.198-8.393 36.191-7.991 54.491.102 3.5 12.364 70.409 14.468 73.312 3.75-16 5.038-58.119 6.424-64.087 6.405-52.978 22.655-11.728 31.802 9.97 4.803 5.195 3.678 14.296 6.575 20.702 5 11 6.963 28.59 9.168 40.39 6.5 35.104 10.718 61.228 11.321 96.925.1 3.5-1.149 53.764 1.151 57.867 7.5-5.5 25.489-60.526 29.888-67.83-.399-6.602 3.504-12.166 3.705-18.761 1.1-39.898-9.201-81.88-27.701-118.585-11.603-23-22.301-46.896-43.103-62.697-16-12.197 4.81-31.634 7.411-49.734-.802-5.602-.152-25.419-.753-31.018-1-8.5-24.625-8.301-33.427-9.401-10.801-1.398-28.416-14.41-37.513-20.206-7.302-4.603-19.623-19.646-26.821-24.346-7.5-4.898-4.062-6.246-9.965-13.147-17.431-20.674-34.623-56.096-30.927-51.998.199 6.5 11.691 73.148 14.59 78.749 8.699 17.104 20 32 35.802 43.104 5.603 4 9.897 8.6 11.801 15.3.2-3.31-4.3-2.711.2-3.31zm488.898-417.1c1.803 26.601 4.103 53.101 6.603 79.7 4.103 43.8 10.603 87.396 9.2 131.5-.103 2.8-1.103 6 2.697 9.194 7.803-9.5 15-19.3 20.5-30.3-2-4.2-.897-8.5-.197-12.7 4.197-27.396 3.3-55 1.697-82.5-1.103-20.194-3.397-40.3-5.302-60.5-2.397-26.6-7.5-52.6-16.397-77.8-5.103-14.5-13.603-26.5-25.397-36.2a2648.69 2648.69 0 0 1 6.596 79.606zM1201.9 1757.802c2.897 1.801 5 .301 7.101-.399 9.399-3.5 18.803-6.899 28-10.7 39.103-16 63.899-44.396 73.899-85.694 9.8-40.604 12.3-81.7 6.5-123-4.103-29.7-18.103-54.7-38.803-76.104-1-.896-1.897-.801-2.697.303 11.697 12.803 18.397 28.197 23.5 44.697 9.101 29.5 11.897 59.199 3.601 89.5-15.601 57.104-47.897 104.104-88.397 146.104-1.897 1.896-3.801 3.8-6.897 3.396-2.907 3.397-5.207 7.295-5.807 11.897zM1057.198 929.7c1.897 5.3 5.103 10.104 7.303 15.3 1.397 3.5 10.846 20.813 14.942 20.014 5.197-3.602 10.409-13.014 15.712-16.514 6.6-4.398 2.77-10.304-5.055-20.6-10.801-16.9-20.5-34.301-28.6-52.601-1.9-4.305-4.604-7.305-9.4-8-10.697-1.399-18-8-24.5-15.805-17.198-20.694-29.6-44.194-40.6-68.6-4.304-9.396-7-19.396-8.7-29.7-.3-2.101.603-4.8-2.7-6.5-13.3 15.7-25 32.5-33.1 51.5 3.196 1.399 5.1 4.104 7 6.899 12.696 18.801 27.3 35.801 44.8 50.396 11 9.199 19.7 18.57 30.7 27.673 12 14.609 25.698 28.538 32.198 46.538zM1137 977.9c.3-3.4 3.196-12.4 2.5-15.2-2.2-9.101-4.7-18.101-6.604-27.2-10.896-50-11.104-100.8-6.803-152.1 1-11.9 1.603-25.9 2.898-37.801-9.5 5.396-24 13.301-33.699 18.5-5.103 2.7-6.896 6.396-6.396 12.101 2.104 23.5 3.697 47.104 7.301 70.399 5.103 33.301 12 66.101 24.803 97.4 1 2.5-4.604 10.6-5.303 13.3C1120.698 965.2 1129.4 972.5 1137 977.9zm-87.4 399.902c.303.197 1.104-.303 1.803-.5-1.199-4.303-4.303-7.5-6.5-11.104-34.2-55.101-40.2-116-36.803-178.801.303-5.1 1.9-9.8 6.303-13.1-7.396-.805-10.5 4.1-13.2 9.896-10.196 22.199-14 45.699-14.896 69.802-.8 22.397 2.5 44.397 8.8 66 1.2 4.104 3.2 8.198.604 12.5 15.889 17.405 33.889 32.505 53.889 45.307zm1027.797-158c-17.5-8.104-35.896-13.803-53.5-21.699-7.896-3.601-14.396-8.4-15.602-17.7-.898-7.5-2.898-14.8-4.602-22.101-4.104-3.899-6.197-11.104-10.5-14.8-4-3.5-18.8-21.7-24.398-23-2 3.3-1.5 6-1.5 8.601-.198 15.6.302 31.3-.801 46.899-.801 11-1.897 23.396 22.899 38.101 3.396 1.399 6.5 3.3 9.8 4.8 20.803 9.899 43.602 12.104 65.899 14.802 16.601 2 31.801 5.804 46.601 12.898 2.303.3 3.303-.601 2.899-2.898-4.899-5.802-10-11.602-16.699-15.396-7.496-1.409-13.893-5.507-20.496-8.507zM1395.4 670.4c-3.7 9.3-6.303 17.899-9.899 27.3-9.801 25.604-12.101 53.2-7.697 80.399 6.697 41.101 18.603 80.896 33.103 119.9.397 1 .802 2.6 3.197 1.396-2.896-25.601 1.899-55.2 1.604-81.101-2.5 5.696-5.802 15.5-5.802 21.396-.104 7.801 0 15.604 0 23.801-3-1.102-3.104-2.896-3.5-4.396-8-31.8-9.803-64.399-9.396-96.899.299-31.197 5-62.197 11.799-92.697.603-2.896 2.103-5.896.802-8.803-1.396-3.197-5.101.104-7.101-2-.899-.896-2.104-1.601-3.2-2.396 1.888 5.002-2.01 9.3-3.91 14.1zm-200 1005.8c15.8-7.2 15.8-7.301 22.397 8 .301-5.7 2-11.101 4.197-16.396 7.303-16.899 12.5-34.399 16.5-52.306 6.803-30.194 7.399-60.694 3.399-91.396-.5-3.7-.604-7.802-5.399-11.604-.897 11.4-2 21.5-2.5 31.7-1.601 30-8.301 58.699-21.397 85.699-7.897 16.301-18.897 30.5-33.397 41.801-10.699 8.399-22.699 13.699-35.397 18 18.297-.798 35.297-5.998 51.597-13.498zm585.1-985.5c1.396 5.104 2.896 10.2 4.396 15.3 10.697 36.5 17.8 73.604 17.604 111.806-.2 22.3.696 44.5-.5 66.8-.104 2.102-1 4.5 2.396 7 6-14.3 11.8-28 17.604-41.604-1.604-3-2-6.301-2-9.695.196-12.604-.604-25.2-1.9-37.805-3-29.5-8.301-58.601-18.6-86.5-3.7-10-7.7-19.801-13.304-29-4.302-7.195-6.897-7.601-14.302-3 4.906-.302 7.406 2.3 8.606 6.698zm-559.9 715.9c-12.801-11.699-25.896-22.899-38.6-34.601-10.304-9.5-19.7-19.699-26.804-32-5.897-10.305-9.302-21.305-9.302-33.199 0-6.301.104-12.604.199-18.899-7 18.699-5.603 38-2.199 56.8 4.604 25.7 20.199 44.104 43 56.604 14.302 7.896 29.699 13 45 18.601-1.294-6.306-6.994-9.306-11.294-13.306zM1428 782.7c4.3 10.8 8.696 22 12.696 32.7 11.603 31.199 23.698 61.6 31.198 94.1.5 2.104.302 4.7 3.302 5.4 2.397-2.601 2.603-6.101 3.698-9.2 11.396-33.396 23.699-66.5 38.396-98.601 2.104-4.5 4.604-8.899 6.899-13.3 2.5-4.7 6.302-6.7 11.601-5.305-10.8-4.396-15.101-3-20.8 7.805-14 26.5-26.603 53.601-36.2 82-1.197 3.601-1.197 9.8-5.101 9.896-5 .104-4.698-6.3-5.899-10.101-10.396-32.3-19.396-64.899-27.601-97.8-9.198-14-14.899-17-16.5-12.804 1.111 5.01 2.009 9.61 4.311 15.21zM1890.198 954c2.397 15.5.897 21.5 1.103 37.104 0 2.896 1.301 11 6.7 7.896 1-1.8 1.697-2.896 2.197-4.1 14.397-24.601 24.198-53.601 30.603-81.5 2.801-12.2 5.897-29 4.801-41.801-1.196 3.801-6.5 11.801-7.5 15.7-4 15.5-7.696 31-11.696 46.396-.804 3.303-.804 7.303-5 9.399-3.897-4.604-6.5-9.699-9.104-14.604-7.103-13.196-14-26.5-21.103-39.696-1.302-2.399-1.897-5.804-5.697-5.804-.398.804-1.103 1.398-1 1.898 2.801 16.3 9.197 47.8 11 64.396 8.598.816 3.498-2.982 4.696 4.716zM1736 786.7c-1.7 30.3 6.6 59.399 2.196 82.104.198 1.896-1.696 4.3 1.5 6.101 3.5-11.101 8-21.7 10.198-33.101-3-9.305-3.198-18.899-3.801-28.5-1.303-20.305-5-40.2-12.103-59.305-.792 11.901 2.708 20.803 2.01 32.701zm-492.302 246.5c10.698 22.8 22.803 45 34.303 67.5 10.897 21.399 21.801 45.899 40.397 61 9 12.3 44.197 38 57 44-4.2-7.301-36.7-37.396-41.897-43.896-26.803-32.806-49.5-68.399-71.803-104.306-7-11.3-12.897-23.194-21.5-33.5.302 3.402 2.102 6.202 3.5 9.202zm28.202 80.4c-19.399-35.199-37-71.199-53.899-107.604-2.697 4.2-1.301 8.2.103 12.4 16.199 47.499 39.103 91.604 67 133.199 2 3 3.897 6.199 7.103 8.199-6.607-15.394-12.207-31.492-20.307-46.194zm61.2-31.7c1.199 1.1 2.4 2.3 3.604 3.5 9.896 9.3 19.803 18.6 29.896 27.8 2.303 2.104 4.104 5.306 9.4 4.806-2.9-6.399-4.2-12.806-7.604-18.5-4.604 3.8-6.5-1-8.803-3.104-20.102-19-39.102-39-56.102-60.896-2.199-2.899-4.102-6.399-10.102-8.7 4.602 9.301 8.102 16.801 12 24.101 6.197 11.399 19.197 21.899 22.102 34.805 2.109-9.312-1.391-9.91 5.609-3.812z"/><path id="hl1" fill="#4E4EA5" d="M1708.1 431.802c2 3.3 5.4 4.8 8.604 6.695 34.698 21 66.198 45.899 94.198 75.305 3.698 3.896 6.802 8.3 8.198 13.601 1.699 6.3.199 9.699-5.801 11.8-9.5 3.399-19.199 5.805-29.399 3.805-8.8-1.699-17.601-3.604-26.5-5.199-10.5-1.801-15.5 1-19.697 10.699-1.397 3.396-2.5 6.896-4 10.195-4.303 9.104-8.897 11.7-19.103 11.104-6.103-.301-11.801-2.104-17.397-4.2-5-1.898-9.897-3.898-15-5.5-9.397-3-17.698-.699-25 5.801-1.198 1.104-2.5 2.199-3.603 3.5-9.603 12.199-21.801 12.699-35.103 7.5-3.397-1.301-6.801-2.699-10.301-3.896-21.199-7-40-3.104-56.397 12.302-13.103 12.3-16.699 12.601-32 2.5-4.699-3.104-9.5-6.2-14.303-9.104-13.697-8.197-27.803-8.301-42-1.396-6 2.896-12 5.698-17.896 9-9.604 5.396-17.897 3.3-25.604-3.604a94.456 94.456 0 0 1-7.197-7c-7.303-7.896-16-9.197-25.5-4.896-7.899 3.5-15.603 7.5-23.303 11.396-15.303 7.699-17.803 6.699-22.303-9.5-5.396-19.197-11.5-22.102-29.6-13.697-11.5 5.302-22.4 11.896-34.303 16.302-4 1.5-8.197 3-12.397 3.601-8.397 1.303-13-2.601-12.7-11 .303-6.601 1.7-13.197 2.9-19.697 1-5.604 2.396-11.104 3.5-16.604.697-3.602.697-7.3-.2-10.896-1.3-5.198-4.396-8-9.8-8.303-6.803-.396-13.2 1.303-19.604 3.104-15.396 4.396-30.199 10.603-45 16.5-3.103 1.198-6.3 2.5-9.5 3-4.5.801-6.5-1.699-4.896-5.802.896-2.5 2.5-4.698 3.896-6.897 9.5-15 20.801-28.603 31.7-42.396 2.897-3.699 6.101-7 5.5-12.304-.399-3.396 1.8-5.601 4.397-7.196 21.396-13.5 42.696-27.304 66.103-37.199 3.697-1.604 7.5-2.899 11.601-2.804 2.303 0 4.899-.3 6.103 2.4.897 2.104-.397 3.898-1.5 5.5-2.897 4.104-6.5 7.604-10.3 10.801-10.303 8.5-20.303 17.303-31.4 24.699-1.6 1.104-3.396 2.104-4.197 4.301 1.801 2.5 4.197.5 6.197.699 5.604.699 6.9 2.699 4.5 8-1.5 3.301-3.801 6.301-5.1 9.699-2.303 6.396.697 10 7.197 8.699 3.198-.604 6.303-2.104 9.396-3.199 2.802-1 5.5-2.398 8.398-3 7.801-1.604 12.301 1.699 12.898 9.602.5 7.303.102 14.699.396 22 .198 4.898-.896 11.104 4.698 13.199 5.898 2.104 8.699-3.896 11.699-7.5 6.698-7.896 13.601-15.602 21-22.699 2.897-2.801 6-5.301 10-6.5 8.198-2.301 13.198 1.699 12.397 10.199-.698 6.898-4.5 12.398-8 18.104-2 3.301-4.897 6.102-5.5 10.102 3.397 1.604 5.103-.5 6.897-1.699 6.603-4.602 12.397-10.102 18-15.801 4.198-4.301 8.698-8.301 14.103-11.102 11.103-5.604 22-.5 24.397 11.602 1.698 8.5 2.5 17.104 3.801 25.699.397 3 .897 6 1.804 8.801 2.396 6.801 7.101 9.301 14.101 7.5 6.601-1.699 12.101-5.396 17.698-9.102 10.699-7.199 13.302-6.898 22.103 2.197 10.198 10.5 22.5 10.699 33.5.199 3.302-3.199 5.897-7.199 8.897-10.801 2.302-2.802 4.5-5.802 7.302-8.199 5.301-4.602 8.801-4.301 13.899.604 13.696 13 21.601 13.896 37.601 3.697 4.5-2.801 8.399-6.5 12.801-9.602 7-4.898 9.103-4.898 15.897.602 4.701 3.803 9.396 7.5 15.396 8.898 7.7 1.801 11.604-1.301 11.2-9.199-.2-3.602-1.302-7.199-1.896-10.801-.399-2.801-2.399-6.199.896-8.199 3.104-1.801 5.604 1.104 8 2.604 5 3.301 9.8 6.896 14.8 10.197 3.7 2.398 7.7 4.104 12.104 4.398 7.396.5 11.396-2.604 12-10.104.396-4.602-.299-9.302-.397-14-.103-3.197 1.699-4.197 4.5-3 3 1.398 5.897 3 8.897 4.604 9.802 5.102 20.396 8.199 31.201 10.602 8.601 1.898 10.896-.301 8.799-8.5-7.698-30.602-19.897-58.697-44.104-80.197-2.102-1.898-4.896-3.5-5.3-7.303 9.198-.801 16.397 5.604 25 6 4.331 1.179 8.331 2.977 12.031 5.679zm-630.46 537.851c2-7.1-13.423-23.786-16.022-30.582-5.701-14.898-17.018-23.166-22.317-38.267-2.3-6.5-5.197-12.803-11.397-16.7-4.103.5-3.302 3.601-2.896 6.101 1.5 9.899 1.1 20 .896 29.899-.103 3.7.104 7.896-3.699 10.601-3.5-2.896-3.801-6.8-5-10.101-3.197-8.8-7-17.3-12.301-25-1.896-2.699-4-5.399-6.396-7.604-3.104-2.8-5.5-1.8-6.104 2.4-.5 3.6-.199 7.3-.5 11-.199 2.8 1 7-2.802 7.601-3.5.604-4.301-3.601-5.601-6.101-2.304-4.399-4.104-9.101-6.399-13.5-1.301-2.5-2.5-1.4-3.101.699.5.601.696.7.5.5 0 0-.2-.199-.5-.604-2.2-2.602-3.399-5.696-4.804-8.696-4.696-10.7-9.396-21.304-14.103-32-.897-2.104-1.801-4.804-4.5-4.804-3.397-.102-4 3.104-4.801 5.604-2.603 8.101-2.5 16.5-1.301 24.801 5.5 35.399 16.801 69.199 30.801 102 1 2.199 1.604 5.199 5.397 5.5 1.897-4.2.699-8.399 0-12.601-.897-5.2-2.5-10.399-2.198-15.8.198-3 .301-6.5 3.698-7.604 3.802-1.301 5.199 2.3 6.699 4.699 4.198 6.396 8 13.101 12.198 19.396 3.302 5 6.897 9.804 10.5 14.604 1.197 1.601 2.802 3.2 5 2.5 2.199-.699 2.5-3 2.802-4.899.301-2.3.5-4.601.897-6.896.698-4.3 1.801-8.5 4.5-12.104 3.301-4.5 7.301-4.697 10.698-.3 2 2.604 3.302 5.699 4.699 8.8 2.396 5.5 4.396 11.104 7 16.604 1.601 3.396 17.75 17.071 19.146 15.867 2.52-7.493 7.111-28.313 11.311-35.013zm886.66 226.649c-3.3-11.303-3.197-23-4.197-34.604-1.103-13.196-2.7-26.196-6.803-38.896-1.8 6.197-2.604 12.396-3.897 18.5-1.302 6.197-2.199 12.601-6.103 18.101-1.3-10.5-1.697-20.7-3.197-30.899-2.2-15.301-4.399-23-8.899-28.5-2.601 3.805-1.197 8.899-4.897 12.5-.8-7-.5-14-.897-20.896-.396-7-.803-14-2.197-20.8-1.303-6.4.601-13.7-4.5-19.4-3.104 2.4-2.699 5.301-2.604 7.801.9 20.699-4 40.303-11.3 59.399-2.7 7-3.104 14.2-2.396 21.601 2.801 26.5 5.896 52.899 9.896 79.303 1.8 12.397 3.896 24.803 5.896 37.197 2.5-25.697-.396-51.896 9.7-76.697 2.897 13 6.197 25.604 10.103 38.803 4.101-3.604 3.5-7.104 4-10.303 1.697-10.896 4.301-21.603 8.601-31.697.803-1.899.803-4.899 4.603-4.803 2.103 4.897 2.199 10.197 3.103 15.397 1 5.801 1 12.103 5.701 16.603.682-2.512.682-5.112.284-7.71zM1161.4 927.4c1.101-6.2 1.601-12.601 2.697-18.801 4.103-24.199 11.5-47.199 24.899-68 2.101-3.199 3.601-8.604 8.101-7.8 4.5.8 3.698 6.5 4.399 10.195 5.801 28.104 11.301 56.199 17 84.305.5 2.3.397 5.2 3.197 6.601 2.5-2.801 2-6 2.303-8.9 1.897-21 6.301-41.5 13.801-61.194 3.5-9.104 7.699-17.806 14.603-24.806 4.698-4.8 8.104-3.8 9.604 2.9 1.396 6.199 2 12.5 2 18.899 0 10 0 20 .3 30 .104 3.601-.396 7.896 4.896 10.7 17.104-40.7 31-81.806 41.804-124.104 1.196 11.699 1.5 23.199.102 34.8-1.196 10.2-3.302 20.399-2.896 30.801.101 3.604-2 9.604 3.198 9.899 4.396.3 4.5-5.801 5.302-9.5 2.801-13.399 4.698-27 5-40.601.698-34 .396-68 .301-102 0-3.804.603-9-4.301-10.104-4.302-1-5.699 3.801-7.699 6.699-10.801 15.896-17.601 33.602-23.801 51.602-.802 2.304-.899 5-3.802 7-2.304-6-2.198-11.696-2.397-17.301-.302-5.699.198-11.603-3.302-17.802-3.5 4.396-4.301 8.396-5.5 12.103-7.104 22.199-12.198 45.104-21.698 66.5-1.103 2.397-1.899 5-3.302 7.304-1.899 3.3-4.301 3.196-5.801-.104-1-2.396-1.604-5.103-2.104-7.699-2.5-13.103-4-26.301-4.199-39.696-.301-14-.1-28-.301-42 0-2.604.801-5.9-3.5-8.4-2.299 8-4.5 15.301-6.5 22.602-4.299 16.104-8.396 32.199-12.799 48.305-.9 3.195-1.103 7.101-5.603 9.5-2.897-7.5-3.804-14.7-5.104-21.899-4.101-23-7-46.101-9.896-69.2-.304-2.396.396-5.5-3-6.5-.699.399-1.397.604-1.804 1-.696.7-1.396 1.5-2 2.2-9.6 12-15.1 25.699-17.196 40.899a1393.608 1393.608 0 0 0-9 86.396c-2.5 35.2-3.897 70.5-3.304 105.802.104 3.104-.896 6.804 3.199 9.198 3.303-2.599 3.503-6.397 4.103-9.799zm281.4-184.9c3.5-6.1 7.2-12.1 12.7-16.6 4.5-3.601 7.5-2.5 8.196 3.1.5 4.306.103 8.7.603 13 .701 6.2 3.701 7.4 8.701 3.5 2.896-2.194 5.299-5 8.1-7.396 7-6.104 8.604-5.8 13.4 2.101 3.697 6 6.299 6.5 11.896 2.104 3.104-2.5 5.896-5.5 9.104-7.801 9-6.399 14.299-5.104 18.896 4.801 3.197 6.896 5.604 14.3 8.801 21.199 1.602 3.396 2.5 9.396 6.896 8.601 5.398-1 3.697-7.101 3.604-11-.604-22-2.5-43.896-6.898-65.5C1546.1 689 1545 685.5 1543.6 682.1c-1.801-4.3-3.896-9-9.5-9.104-5.5-.1-6.5 5-8.1 8.9-2.604 6.1-5 12.398-7.604 18.5-.604 1.5-1.7 3.1-3.604 3.1-2.5.104-3.199-2-3.896-3.896-1.303-3.8-2.396-7.604-4-11.3-1.303-3-2.803-6.399-6.896-6.399-3.604 0-4.7 3.399-6.104 5.899-1.896 3.5-3.5 7.194-5.5 10.694-1.303 2.2-2.5 5.2-5.803 4.5-2.697-.6-2.803-3.5-3.397-5.694-.801-2.899-1.301-5.899-1.897-8.806-1.198-5.194-2.897-10.3-5.698-14.896-3.601-5.8-6.698-5.699-9.897.396-2.197 4.104-3.697 8.604-7.197 11.9-3 2.8-5.199 2.3-7-1.4-.604-1.194-.803-2.5-1.303-3.8-1.398-3.5-1.398-9.3-6.603-8.3-4.897.899-3.601 6.5-3.601 10.199-.104 19.7 0 39.301.101 59 0 2.601-.5 5.396 1.5 8.5 3.399-1.791 3.799-5.093 5.199-7.593zm480.3-5.1c-3.1-12.301-6.697-24.4-11.801-36-1.199-2.7-2.5-5.5-4.103-8-2.397-3.601-5.603-6.101-10.103-3.5-4.197 2.5-5.897.3-7.603-3.101-2.603-5.399-5.397-10.7-8.198-16-1.103-2-2.396-4-3.802-5.805-1.198-1.5-2.801-3.396-5-2.195-2.198 1.101-1.603 3.396-1.301 5.396.397 2.301 1.101 4.5 1.5 6.801 1.601 8.805 3.397 17.699 4.801 26.5.603 4.104 1.397 8.399-1 13.399-8.198-10.399-14-21.7-24.5-30.801-.5 7.7 4.302 13.5 2.802 20-2.199 0-2.896-1.199-3.699-2.199-3.897-5-7.602-10.101-11.602-15-3.199-3.899-6.898-7.301-12.199-8.101-6.301-.899-9.603 3.101-7.396 9 .5 1.196 1.197 2.396 1.896 3.5 11.897 19 20.397 39.601 28 60.696.699 1.898.397 4.804 3.803 5.304.197-1.5.5-2.804.5-4.104.197-5-.399-10 1.197-14.896 1.604-4.899 4.604-5.604 7.897-1.604 2.103 2.5 3.603 5.604 5.399 8.398 1.697 2.801 2.197 7.301 5.697 7.697 4.604.604 3.604-4.697 5.303-7.301 3.302-5.102 7-5.801 11.302-1.199 2.896 3.104 5.299 6.898 7.396 10.604 7.604 13.301 15.303 26.5 21.604 40.5 1.396 3.199 3.396 6.199 5.101 9.301-1.302-7.699-4-14.801-6.302-21.896-2.397-7.304-4.698-14.604-6.397-22.104-1.697-7.102-5.697-13.801-4.396-21.896 6.396 1.5 9.396 7.396 15.5 9.101 1.904-4.195.504-7.395-.296-10.495zm-840.8 564.7c3.603 11.101 7.803 21.899 12.396 32.601 3.897 8.899 8.397 17.399 13.804 25.399 1.8 2.801 3.5 8.2 7.603 6.2 3.601-1.806 1-6.604.5-10.104-.2-1.601-.803-3.199-1.103-4.896-1.5-8.2-3.5-16.306-4.5-24.5-1.5-12.9-2.104-25.9 1.603-38.604.601-2 .601-4.896 4.5-4.896 3.601 10.396 4.197 21.8 10.101 31.8.899-9.601.899-19 .899-28.5.101-18.5-4.7-36.199-8.803-54.101-.697-2.805-1.397-6.399-5.197-6.305-3.803.104-4.2 3.805-5.2 6.5-3.199 8-6.103 16.199-9.5 24.199-1.199 2.9-1.699 6.5-5.5 8-3-2.899-2.699-6.8-3.699-10.199-4.197-14.695-8.101-29.5-12.396-44.195-.801-2.899-1-7.805-5.198-7.199-3.397.5-2.196 4.896-2.5 7.801-.5 3.699.897 7.8-1.696 11.399-3.201-1.806-3.4-4.7-4.201-7.104-5.199-14-10.299-28.101-15.5-42.198-1-2.802-2.103-5.603-3.603-8.196-1.696-2.899-3.802-2.399-5 .5-2.196 5.396-1.897 11-1.302 16.696 1.699 14.604 4 29 7.302 43.304 7.897 34 15 68.3 23.897 102.101 1.197 4.601 1.697 9.601 6.801 13.899 2.604-9.104.104-16.804-.396-24.5-.5-7.899-4.604-16 .396-24.399 4.092 2.297 4.39 6.199 5.492 9.497z"/><path fill="#8AA32E" d="M1035.5 686c-6.804 61.604 1.696 123.9 27.8 181.806-7.8 1.5-11.5-2.5-15.197-5.604-7.7-6.5-14.603-13.5-20.5-21.101-13-16.699-25-33.899-34.899-52-8.397-15.3-13.301-31.199-11.801-48.199.5-6 2.897-10.7 8.104-15.301 11.1-9.699 21-20.3 32.697-29.604 2.994-2.397 7.296-9.097 13.796-9.997z"/><path fill="none" stroke="#000" stroke-miterlimit="10" stroke-width="6" d="M1049.6 1377.802c-182.3-129.104-90.3-239.803-75.4-301.201 10.897-30.399 19.803-57.199-14.603-105.8-56.397-82.604-26.897-135.4-22.397-160.499 4.5-25.104 46.803-75.5 52.397-82.899 5.602-7.396 40-38.5 40-38.5l17.198-27.101C1151 401 1444 370 1459.198 370.802 1474.4 371.6 1583 354 1729.4 442c146.4 88 187.6 208 197.6 245 30.5 75.5 5 229 5 229-5 37.5-39 92.5-39 92.5s-4.5-77-4-68.5 3.396 18.2 0 86c-25 153-113 208-101.7 197.4 11.303-10.601 28.7-80.4 30.396-74.9 1.7 5.5-40.603 26.4-36 17.306 55.2-112.806 51.604-153.8 65.5-202.3 16.104-114.2 7.397-189.506 5.397-172.899-2 16.603-71.301 144-52.697 102.699 8.396-148.8-27.303-222.699-23.803-208.699.5 97.3-40.197 196-36.5 190.3 3.699-5.699-9-199-16.102-120.5s-90.898 242.2-84.302 209.604c6.603-32.604-29.301-374.7-29.897-300-.603 74.696-45.301 207.3-69.103 223.896-1.101-107.8-4.397-99.396-16-94.101-11.601 5.301-34.5 81.301-51.101 127.301-21-73.5-49.303-144.899-49.303-144.899s-9.5 32.305-9.697 123.104c-78.5-149.3-11.699-240.604-14.803-243-3.103-2.399-35.697 84-46.603 126.801C1306 916 1374 1121.302 1374 1121.302s-46-49.303-44.2-42c1.803 7.301 4.2 20 47.896 125.101C1298 1190.802 1224 996 1221.5 1003.302c-2.5 7.3 82.6 163 85.896 193.301-65.303-20-130.7-150-159.7-212.7s-21.603-200.101-16.3-239.3c-21.303 113.3 12.697 235 9 234.3-3.7-.7-14-6.3-14-6.3-125-133.7-84.7-335.301-85.303-296.301-8.697 34-5.301 108.301 21.303 195.301-72.7-39.7-84.803-141.2-86-127.5C1007 856 1054.9 868 1058 870c3.1 2 40.369 67.953 43.166 74.549-7.375 4.895-25 21.617-25 21.617s-42.174-77.066-39.071-72.866c3.103 4.199 44.146 67.711 38.35 78.811-5.8 11.1-14.61 43.389 7.379 82.549 31.169 53.173 74.689 75.025 83.989 79.226 9.303 4.199 21.688 5.763 35.128 4.099 22.332 27.764-10.141 55.216 16.763 73.516 65.899 34.806 68.797 115.5 59.603 166.104-6.806 50.396-39.504 130.794-39.806 115.896.668-59.001-3.368-93.43-9.332-135.001-9.84-68.589-30.764-119.802-43.668-113.999-9.301 8.604-12.901 95.301-14 92.5-.479-1.218-16.09-59.819-15.244-81.498.548-14.067 10.009-30.77 7.305-46.303-2.716-15.599-5.561-32.76-16.852-41.896-15.203-12.305-25.703-22.805-16.452-6.928 22.198 61.5 18.452 74.428 16.053 115.928-8.101 72.5 55.399 113 55.399 113l27.397 24.5 6.113 5.446s1.705 67.51 3.917 76.057c1.557 6.016 23.504-49.458 23.504-49.458s39.792 44.256 47.969 64.955c25.897 139-15.603 196.5-39.5 215.695-23.897 19.199-77.603 38.305-69.103 31.104s19.103-41.802 16.603-69.302-15.697-15.5-21.303-13.104c-5.602 2.4-32.102 11.4-32.102 11.4-97.102 17.198-143.602-27.802-136.602-28.104 7-.301 44.5 20.305 90.301 2.5 99.199-80.195 86.088-130.625 68.801-161.195-19.204-33.965-25.198-29-81.5-83.199-62.698-68.801-83.801-199.5-85.602-227.301-1.803-27.805-11.103-9-11.103-9-18.603 123.101 41.103 198.896 41.103 198.896M1847.9 1149.5c-2.103 56.2 16.697 81.104 58 128.5 41.3 47.4 41.3 47.306 105.3 86.9 93.398 57.199 87.301 99.5 92.7 163.1 17.897-65.3-.603-98.1-22.896-150.896-22.3-52.799-62.304-70.9-86.5-91.7-24.197-20.8-34.5-44.8-29.5-103.396 5-58.604.696-57.304-6.197-113.898-6.899-56.603.3-63.103.3-63.103s28.2 5.103 47.103 70.802C2009.3 967.7 1934 902.006 1934 902.006m30.6 285.796c8.699 25.301 46.803 40.197 65.303 40.896 18.499.699 60.602 10 84.7 15-8.803-21-60.7-33.601-73.7-49.196-13-15.604-75.199-79.804-75.199-79.804m87.994 116.802s31.803 49.104 20.303 115.104c-6 26 10.5 10.5 12.801 0 2.303-10.5 9.699-74.301-17.397-112.301M1942 818.5s147 113.5 69.1 323.4c-4.801 27.399 12.199-6.2 15.199-13.7S2104 943.302 1944.5 802.5M948 1264s-24 152 233.5 277.4c12.896-8.5-9-14.9-18-22.4-9.5-5.6-184.5-87.5-200.7-227.5"/><path fill="#E52E2E" d="M1951.066 737.627s-31.846-133.345-116.991-226.487c-62.928-68.838-164.814-117.488-304.353-141.275-183.121-31.216-329.435 25.948-415.729 66.279-73.813 34.498-160.703 177.22-197.873 353.983-15.25 72.52 5.312 246.965.812 253.222s51.397-5.73 51.397-5.73S936.561 879.85 1029.5 792.5c0 0 5.194 22.808 32.896 79.104s32.21 2.226 32.21 2.226 250.228-209.16 425.438-217.529c175.211-8.371 279.529-2.67 431.022 81.326z"/><path fill="#F26161" d="M1400.5 360.899s228.935-6.112 368.801 95.411c139.865 101.523 169.865 241.859 169.865 241.859s-7.332 21.664-30 12.332c-22.666-9.334-5.332-18.668-81.332-40-76-21.334-124-79.334-66-87.334s70.666-24.666 20-70.666c-50.668-45.999-178.002-126.537-381.334-151.602z"/><path fill="#962C2C" d="M1029.5 792.5s21 59.457 22 59 360-178 360-178 164-63 71-85.144-117.153 37.476-148 13.144c-17.801-14.041-50.235 2.345-97.334 4.334-65.134 2.75-90.045-12-100.045-36-3.914-9.392-2.287-37.168 14.713-62.668 36-54 84.668-92.667 84.668-92.667s-100.672 32.669-152.668 75.335c-23.442 19.235-56.037 44.991-107.334 154.666-66.104 141.334-51.507 270.114-51.507 270.114 6.065 40.393 39.436 90.228 40.617 17.192 0 0 13.47-58.251 29.967-96.029 17.374-39.787 33.923-43.277 33.923-43.277z"/><path fill="#F9F2F2" stroke="#000" stroke-miterlimit="10" stroke-width="6" d="M1039.3 900.804c7.227 29.258 34.303 49.29 50.7 38.267 16.397-11.022 27.512-19.603 36.584-41.639 9.071-22.036 22.483-21.474 31.153-29.303 12.396-11.192 15.585-24.613 24.263-35.067 7.984-9.621 14.668-10.341 22.834-15.063 8.164-4.723 22.438-10.28 28.789-22.873 6.35-12.592 24.261-14.034 34.377-18.063 19.832-7.897 29.777-4.226 52-28.565 10.5-11.5 17.613-8.666 28.5-8.666 10.886 0 29.393-6.391 43-15.834s13.263-8.663 22.332-11.164c9.071-2.501 20.537-1.329 34.627-8.553s24.279-5.629 41.509-8.708c21.077-3.768 44.844 7.454 62.53-2.573 18.195-10.316 18.869-6.59 28.668-7 13.696-.573 17.193 3.813 35.338 3.813 18.143 0 23.937-6.049 37.494 3.187 18.403 12.535 30.227 4.983 43.834 13.5 13.605 8.516 28.053.436 43.289 6.334 17.655 6.835 19.889 12.556 32.588 18.851 12.701 6.296 23.07 2.333 42.123 5.481 19.051 3.147 25.916 7.109 34.987 14.98 9.071 7.87 16.052 15.127 29.938 18.889 13.222 3.58 25.887 3.759 34.01 12.188 10.162 10.547 12.604 9.701 24.397 11.275 11.795 1.575 19.334-14.436 21.334-34 1.842-18.009 9.182-42.473-5.332-57.473-10.944-11.311-18.599-11.653-31.301-26.747-12.701-15.095-44.131-24.781-61.367-24.781s-27.446-7.526-46.666-15c-17.271-6.717-28.488-18.617-56.334-26-27-7.159-45.739-1.146-72.332-6-35.666-6.51-49.689-14.476-80.379-9.75-27.088 4.17-38.354-1.033-54.557-4.452-16.202-3.419-45.232-3.419-60.654 9.173-15.421 12.592-27.215 17.313-45.357 15.74-18.144-1.574-46.601-.395-53.721 6.623-7.119 7.017-19.354 7.884-36 15.666-22.783 10.651-26.949 4.277-46 9-19.051 4.722-33.109 21.674-42.951 23.894-9.844 2.219-31.685 9.511-50.213 21.707-21.317 14.03-25.711 21.622-37.504 31.065s-37.386 12.342-47.365 24.934c-9.979 12.591-16.104 20.509-37.705 39.396-20.364 17.805-51.513 35.266-55.597 51.004-4.081 15.742-10.747 18.239.137 62.307z"/><path fill="none" stroke="#000" stroke-miterlimit="10" stroke-width="6" d="M1936.653 688.532s-48.955-192.165-244.557-275.101c-195.602-82.937-372.928-54.949-509.932-6.276-137.003 48.673-154.226 114.479-173.947 140.91-19.723 26.431-119.92 234.916-97.821 391.006 22.098 156.09 36.099 38.721 36.099 38.721s14.248-31.647 21.658-63.178 27.686-95.442 61.348-122.114c33.66-26.671 43.662-39.338 43.662-39.338m-29.792 77.223s-8.199-21.213-13.871-37.886"/><path fill="#FFF" stroke="#000" stroke-miterlimit="10" stroke-width="6" d="M845.221 978.644c14.221-25.958 27.802-30.893 41.232-28.806 13.432 2.087 18.93-7.899 34.352-11.061s39.914 3.159 50.184 11.061c10.271 7.9 23.124 19.4 31.603 26.07 8.478 6.671 7.413 45.021 13.833 53.675 6.419 8.654 8.303 22.657 0 34.265-8.303 11.606-13.043 29.512-13.833 41.101s-18.171 35.9-40.292 42.773c-22.121 6.874-48.192 6.021-61.623-1.893-13.432-7.912-14.221-15.85-37.133-13.479-22.91 2.371-39.502-24.504-39.502-41.095s-5.53-32.04-10.271-49.767 6.313-35.676 15.402-39.107c9.089-3.432 16.048-23.737 16.048-23.737z"/></svg>