<svg xmlns="http://www.w3.org/2000/svg" id="body" viewBox="0 0 3000 3000"><path id="cl1" fill="#EFBC88" d="M898 1349.334c2.575-3.571 7.778-13.72 11.334-18.002C938.666 1296 990 1264.666 1058.666 1228s165.938-37.894 165.938-37.894m-318.073 145.178c-2 1.333-249.863 141.382-289.863 349.382C618 1724 672 1828 731 1893c7 6 46 48 46 78 3.997 29.332 22 90 22 90s3.5 25.5 48.5 18c48.5-5 99.5-26.5 102.5-40s-8.5-63.5-34.5-94c-8.574-8.918-41.5-18-50.5-24-18.5-15-23-9.5-27.5-81.5-6.721-74.474-14.5-145.5-27-162m9.5 28s130.5-9 205.5-128m-61 68.5s30.5 92.5 109.5 174c65 68.5 112 122.002 164 125.334L1442 1905l358.661-68.993s145.333 17.333 178.667-47c23.333-39.334 21.332-102.334 19.999-124.334 0 0-5.333-81.999-17.999-103.333L1970 1343.997l-80-58.943-626-94.947-40.079.259-51.671 25.219-268.885 131.105 3.167-11.406L895.563 1351 788 1672.668l31.334 27.77-4.668 5.063 38-10.166L960 1638l4.5 8zm357.83 731.004l168.668-130 41.668-29.004 106.668-94.666 28-98.666-47.334-148-80.336-26.668-233 43.334-127.332 28.334s75.334 115 72 167.666c-1.334 38.67-28.668 110.67-39.334 135.336-10.666 24.668-39.334 101.334-35.334 130.668 1.334 30 12 44.666 18 51.332 6 6.668 10.666 38 11.334 44 .666 6 10.666 61.334-22 162.002 0 0-31.334 2-38 5.332-35.334 14-42.668 58.668-42.668 74 0 15.334 148.668 22.002 162.668 12.668-.668-24.668-2-49.334 0-65.334s6.666-51.334 12.666-67.334 30-58.666 36-66c21.334-34.666 19.666-100.332 7.666-129m-15.667 3.668s33 7.666 184.333-133.668m-28.332-14.334s79.334 55.334 154-6m-37.334 21.334s122.666 140.666 156 142.666M1572 2241.123l139.663 137.731s-37 61.151-11 128.483c26 67.334 36 78.002 39.333 90.668 8 24 10.667 82.666 8 101.332-.439 3.213 1 3.334 1 3.334s146.334 13.334 173.667-10.666c5.007-28.479-18.667-50.668-22-54.668s-30.709-21.586-93.368-20c-3.965-19.332-6.036-45.998 0-91.332 6.035-45.334 23.368-99.334 30.035-113.334s21.333-42.668 14-70c-4-38-58.666-197.334-68-220 0 0-28.002-46.668 23.965-166 38.7-52.668 75.365-106.334 82.032-121.666l-153.997-4.338-126.662 12.667-29.338 28 37.334 246.667-113.331 43.334-7.333 60.666 26.667 19.121H1572v.001zm426.328-583.783s49.334 27.999 94.668 28.666m18.332-31.333s-16.666 23.333-21.332 41.333c-10 27.998-23.334 123.998-26.666 160.665-3.334 36.667-13.334 36.001-27.334 42.667s-59.332 20.666-62 24.666c-2.666 4-30 28-22 90 3.997 15.624 86.423 56.001 94.666 59.998 6.002 2.668 24-2 32-14s49.334-54.002 52.668-112.668c79.334-130.003 140.004-273.338 138-335.334-49.33-136.002-106.664-170.002-129.33-196.668 0 0-65.343-51.189-102.729-68.855a114.417 114.417 0 0 0-5.605-2.479m11 28.666s-17.334-122.667-267.334-160.667c-13.332-30-65.332-158-65.332-158s-39.998-23.331-103.332-30.665c0 0-28-8-30-8 0 0-65.334-4-72.668-5.333-7.332-1.333-112 4.667-126 7.333s-80 16.668-85.332 19.333c-5.334 2.666-28 10-32.668 27.333-4.666 17.333-19.332 122.667-51.332 144.667m741.867 308.981l45.715 139.692c.205-.436 23.977 7.649 48 14.911 25.103 7.588 50.5 14.375 50.5 14.375l4.582-4.625 30.668-29.334-78-285.332-92-18.668-9.465 168.981z"/><path id="sd1" fill="#D48D59" d="M975.844 1276.182c55.5-38 120.083-72.19 248.078-85.817 27.755-48.957 22.995-111.949 42.495-140.949 21-19 108-35.5 111-36s119-9 129-4.739c10 4.26 78.5 5.739 78.5 5.739 12 6.5 32 7.5 63.5 14.5s61 25 61 25 62.5 147.5 65.475 156.949c21.975-.051 94.521 21.922 94.521 21.922s-15.137 34.153-27.059 47.458c-24.416 27.25-46.519 80.254-236.437 127.67-169 38-289-33-326-51s-136-100-169-108c-28-21-133.083 27.584-133.083 27.584s-5.715 2.236-1.99-.317zm1148.322 358.234c-11.75 28.25-20 47.75-21.25 58.5-11 47-9 148.334-13.362 177-5.306 45.334-38.972 68.002-61.638 70-4.334 3.002-19.334 38.668-39.668 54.334 0 0-16.332 11.334 8.668 22.668 15.666 11.666 35.666 24.332 37.332 25.332 1.668 1 18.002 4.334 20.668 9 2.336 1.49 25.666 0 25.666 0l-4.666 10.334-27.232 12.014-52.102-23.348-29.334-21-15.666-15.666-2.666-27 3.666-27.334 10.666-24.666s-3.666-16.668 59.334-31c39.168-20.729 35.334-23.002 41-41.334 5.668-18.334-1.666-81 22.668-156.666 12-30.334 5-21.668 5-21.668l-11.334.957-29.666-6.623-32-11.666-17.334-8.334-2.643-4.334-8.357-59.666-6.568-20.486c5.066 22.578 14.561 67.244 14.539 84.896 3.029 103.259-12.305 117.925-24.639 138.591-25.666 30-73.337 35.19-73.337 35.19L1886.77 1837l-8.521 15.25-19.668 31-23 32.667-17.332 23.333-18.03 30.642-14.638 40.025-5.332 28.667-7 22.666 3.332 36.667s6.668 28.333 6.668 33-4.666 10.333-12.666 27-56.668 67-101.334 94c62 71 123 123.333 123 123.333-70.666 3-63.334 89.334-64 94.667-.668 5.333-3.334 69.667 19 105 22.332 35.333 22.166 59.5 22.166 59.5-.375 10.5 5.75 28.75 5.75 28.75 3.75 6.5 1.5 18.25 4.5 23.5 64 6.5 144.121-6.499 142-13.5 3.25-3.5 2 14.5 1.248 19.5-47.248 20.25-175.789 11-175.789 11l-.959-3.5c6.75-101-24.25-136.5-27-140.75s-22-56.5-22-56.5l-6.205-31.75 1.955-43.5 10.5-32 6.75-14.25-8.584-10.496-29.334-23.334-48.666-48.666-22.332-26.004-19-20.334-4.668-4.666-15.332 3.666-31.334 1.334s-31.334-4.334-34.334-4.334-11-2.711-11-2.711l-1.332 5.045-12.668 8.666s-16.332-10-32.666-13.711-70.668-32.622-74-34.289c-3.334-1.667-4 .334-5.668.334-1.666 0-6.332 7.333-17.666 20.333s-15.7 22.979-33.668 43.667c-12 21-27.332 32-41 68.25-11.625 24.75-.666 51.75-.666 51.75 7.666 11 6.332 17 2.666 18.666s-7.777 4.662-12.332 11.667c-8.334 14-3.334 20.334-10.668 37-1.666 2.666-8.666 28.334-12.332 42.667s-11.284 78.154-19 109c-12 35-8.668 61.333-8.668 63 35 34.334 59 12.333 59 12.333s.334 11.334-1.332 14c-12.334 2-112.668 8.667-160.694-11.604.973-58.938 30.36-69.729 34.026-72.396 2-4.667 39.668-5.333 43-5.333 6-4.667 16.334-53.334 23-90 6.668-36.666.668-68.667-.666-90.667s3.666-4.333-19.031-44.712c-22.698-40.379 7.197-106.621 12.197-122.121s56.5-131.5 54-182.5c3-39-41-112.5-41-112.5l-12-19-11-19-4-10c-106-89.5-156.357-164.352-156.357-164.352l-33.605-53.252-25.037-56.563-4.166-4-3.5 2.834-12.834 9.5-24 14.666-19.5 9.5-24.332 8.834s-27.5 8.166-33.834 10.833c0 0-22.332 2-26.832-.5 1.5 3.5 4 16.5 4 16.5l4 33 6.5 41s1-2.75 3 23.5 1.75 69.75 13.75 87.75c8.75 18.5 45.25 29.75 57.25 34s32 44.5 32 44.5l10 36.25.75 21.5-13.25 11.5-24.25 10.75-44.25 11.75s-43 5.5-44 5.332-14.25-4.332-15-4.332-10.75-17.5-10.75-17.5l-6.75-22.75s2.75-8.25 3.25-1.75 40.865 9.223 48.75 8.25c19.003-2.344 32.12-2.352 41.25-7.5 2.438-1.375 6.075-7.011 5.5-9.75-1.027-4.894-13.75-27.25-15.5-32.5s3.814-29.271-.75-34.25c-3.383-3.69-23.475-14.044-31-21.25-6.01-5.756-10.86-13.47-15.5-22.5-4.049-7.881-10-55.5-14.5-72s-3-8-6.5-39.5-17.5-97-29.5-118.5c-7.5-19.5-26-41.499-26-41.499l19.5.499c95 11.5 206.5-27 240.5-63 21-16.549 44.61-68.5 44.61-68.5l46.281-47c-7.108 7-34.892 78-24.892 112.451s98 123.883 170.666 168.216c122 72 243.334 43 243.334 43 75-8.334 116-49.333 130.666-88.979 13-18.314 39.666-86.02 39.666-84.687s29.668 83.666 34.002 94.313c21 45.02 47.998 79.687 107.332 86.687 103.666 7 129.334-13.667 129.334-13.667 40-11.333 48.332-52 53.666-73.02 7.127-68.192.843-118.512-2.528-138.5l-3.388-10.564-2.5-11.25s9.75 2 14.25 7.5 18.25 21.75 19.75 29 11.5 33.25 12.75 35 9.5 18.75 27 28.75c11 5.25 35.5 26 46 15.5 16.751-7.501 16.501-26.751 28.251-29.251zM1231 1795.619L1057 1623l-30.858 42s12 39.236 15.429 41.118c3.429 1.883 49.43 53.882 49.43 53.882l37 50.688 96-8.688 6.999-6.381zm63 102.191l31-87.121s1.562-7.839 0-9.689c-5.965-7.069-29.208-4.985-37 0-6.03 3.858-12 26-12 26s-7 55 0 64 18 6.81 18 6.81zm87.5-24.31c1.5-3 4-17.5 4-20s-22.319-43.172-53.759-20.5c-21.395 15.429-33.353 96.068-32.797 100.284S1298.5 1948.5 1328 1953c8.5-3.5 33.5-44 36.5-51.5s15.5-25 17-28zM1599 1905c1.5 0-123.5 5.5-135.5 0s6.5-5.5 11-5.5 63-4.5 65.5-4.5 48.5-2.01 50-2.005 24-12.495 22-26.995c4-9-2-39.764-4.5-46.632-2.5-6.867-4-8.68-4-8.68L1443.023 1846s-31.022 55.5-37.022 69-40 95-30 133.5-1.5 39 193 37.5c0 0 2.5-53 2.5-54.5s-19-18-19-18-77.828-.5-79.664-.5c-1.837 0-26.837-12.5 5.663-34.5 7.5-.5 87 0 93-1.5s8.5-8.079 9.5-10.789c.999-2.711 16.5-61.211 18-61.211zm98.5 105c-2 0-66.322 10.5-84.161 11-4.366.122-19.339 16-19.339 16s-6 45.838 0 49.42c6 3.58 100 .08 106.5-5.42s36.5-37.5 39.5-63.5c5.5-3-40.5-7.5-42.5-7.5zm58.5-129.5c-10.5-18.5-89.5-54.5-95-57s-22.5 0-22.5 0-8.5 51-12 55 12 9.5 12 9.5 72-5 74-1.5 11.5 1.5 0 18.5h-23c-15 0-67-5-70.5 0s-22 67.5-20.5 67.5 20.5 20 24.5 20 75.5 1 125-8.5c0 0 22.401-61.5 8-103.5zm-342.405 104.566s-13.763 11.268-12.763 18.934c1 7.668 2.377 12.168 6.355 12.5 3.979.334 22.645.502 28.145-4.832s10.168-12.334 10.5-16.668c.334-4.332-3.332-9.699-7.332-9.934s-22.908-1.753-24.905 0z"/><path id="hl1" fill="#F7DBBA" d="M1005 1254s-94.5 62.5-113.5 101 3.5 81 3.5 81 5.5-69.5 35.5-105c52.978-62.031 62-47 74.5-77m-249.668 195.334s-126 124-138.666 237.332c8 46.668 50.666 122 52.666 124S642 1676.002 702.666 1543.334c12-24.666 40-75.916 52.668-90.957 12.666-15.043-.002-3.043-.002-3.043zm555.334 931.362s-25.334 7.306-8.666 60.638c6.666 13.334 6.61 8.668 5.306 20-1.305 11.334-13.556 65.416-13.806 70.666s3.5 4 3.5 4l11.25-21.75 14-28.25s7-25.25 7.75-31 1.741-44.25 1.741-44.25l-3.241-22.25-3.25-10.75-14.584 2.946zm450.666-209.028C1762.5 2191.5 1804.666 2276 1802 2319.289c1.457 16.691 8 48.711 10 54.711 4 8.668-4.002 82.668-6.668 89.334 0 0-10.582 86.416-5.582 103.916l4.5 45s-5.5 14-2 20.5 10.25 16.5 27.75 16.5 42.5 1.25 45.75 2.75 16.5 7.75 24.75 9c7 2.75 17 3.5 16.5 2.5s-6-14.25-6-14.25l-19.25-17.75s-28-12-28.75-12-31-2.75-31-2.75l-25.25-1.25-2-10.25s-.75-28.5-.75-29.5-1-22.75-1-22.75 16-100.25 21.5-106c5.813-10.607 22-51.5 22-52.25s4.25-18.75 5.25-24.25 1-27.75 1-28.75-4.75-20.25-4.75-20.25l-15-52.5-23.5-70.5-23.598-63.99s-3.902 2.49-7.402 12.74-17.517 22.431-17.168 24.418zm-151.039-299.041c-2 4-9.113 7.669-12.793 7.373-6.687-.538-30.5 8-42 11.5-41.5-3-36.5-32.5-27.5-47.5s55.5-23.5 63.5-24.5 16 4 16 4c4 9 4.793 45.127 2.793 49.127zm42.457-50.236s-14.75 9.608-13.25 20.608 3 22.5 15.5 27.5 23.5 9 32 9.5c7.729 3.148 12.25 3.969 17.082 4.668 3.61.521 7.219 1.81 13.418-.543 0 0 15.5-6.125 17.5-22.125-.243-2.01-51.575-28.268-72.683-37.897-5.35-2.442-9.567-1.711-9.567-1.711zM1653 1904s-23 2.833-19.5 28.833c0 5-2.402 27.667 10.799 37.667 13.2 10 26.701 9.5 31.201 9.5s23.633-4.755 34-9.5c11.591-5.305 21-8 25.5-9.5s17.5-8.5 18-23.5c.485-14.58.5-34.83-33.482-40.084-.979-.15-13.233 7.961-14.268 7.834m-113.802 22.012c-.534-1.783-2.094-6.496-2.447-6.644-1.5-.619-4-9.619-26-12.119-49.5-6-70 3.5-70 3.5s-19 14.834-14 26.418c5 11.582 5 25.082 20 25.582s60.5 6 71.5 3.5c.688-.155 10.5-1.289 11.109-3.324M1481.332 2013s-14.332 5.5-13.832 23.5c1.5 11 10 22 16 24.5s53 6 64 3 21.729-9.063 23.229-15.063.771-17.438.771-17.438l-19-18s-30.528-.22-34.332-.22c-3.804.001-36.836-.279-36.836-.279zM2005 1304.668s19 25.718 29 38.332c21.332 7.386 77.666 47 100.334 64.334 35.332 24 92.5 109.166 92.5 109.166 3.5.5 42.5 87 42.879 91.825s-8.808 61.298-8.808 61.298l-31.071 92.877-69.5 131-6.5 9.5s-1.5-4 4.5-18c66-210 52-252 51-260s-16-19-16-19-58-8-67.75-9-110.25-78-110.25-78h-36s-10 21-6 28 21 64 21 64-5 8-11 17-17.847 31.686-59.002 48c-130.781 51.843-209.998-29-218.998-36.215s-43.668-26.784-50-20.785c-6.334 5.999-8.201 20.712-51 56-55.315 45.608-191 30-255-5.377s-124-156.623-147-183.623c0 0-26.378-29.352 50.622-145.352 31 19.667 77.416 40.449 104.496 51.318 24.5 9.833 55.013 17.303 88.214 22.7 30.006 4.877 119.834 9.167 199.581-16.873 78.998-23.666 123.754-47.794 146.587-65.293 21.715-16.643 56.166-49.834 76.166-97.834 3.113-3.995 41.332 12.668 41.332 12.668l48.668 24.332 28.666 20 18.334 13.002zm-272.844 735.524c-.909-8.49-3.759-21.39-12.655-27.692-3.653-1.241-13.666-.666-22-2.5-6.599.373-11.275 1.662-15.023 2.183-18.477 2.651-39.208 5.66-55.43 7.675 0 0-16.328 22.645 8.063 36.145s69.391 8.5 74.891 6.5c2.551-.928 7.068-2.875 11.424-5.369"/><g id="l"><path d="M888.868 1380.748c.478-1.286.308-2.813.294-4.158-.026-2.561.179-4.073.728-6.399 2.516-10.656 9.457-20.279 15.912-28.87 13.703-18.237 30.752-33.453 49.032-46.973 21.916-16.21 45.415-30.232 69.124-43.628 13.489-7.622 27.047-15.23 40.857-22.256 11.263-5.73 23.041-10.386 35.022-14.377 37.656-12.545 77.729-18.808 117.319-20.742 2.694-.131 5.392-.252 8.089-.288 3.866-.05 3.871-6.05 0-6-8.619.112-17.25.762-25.833 1.504-20.486 1.773-40.898 4.72-61.017 8.977-24.438 5.171-48.562 12.441-71.196 23.096-13.603 6.403-26.721 13.99-39.849 21.303-12.811 7.137-25.513 14.475-38.009 22.151-21.059 12.936-41.682 26.899-60.208 43.317-7.846 6.953-15.218 14.427-21.9 22.508-8.266 9.998-16.265 20.675-21.196 32.762-1.551 3.803-2.578 7.808-2.83 11.914-.067 1.083-.042 2.167-.024 3.25.006.38.006.761-.016 1.141-.03.515.258-.748-.083.173-1.35 3.635 4.45 5.19 5.784 1.595z"/><path d="M905.275 1332.871c-5.412 3.52-11.102 6.651-16.563 10.103-14.083 8.902-27.847 18.309-41.344 28.075-42.479 30.738-82.425 65.239-117.986 103.811-42.272 45.851-78.612 98.244-100.384 156.995a333.193 333.193 0 0 0-13.428 46.248c-.65 3.047-1.357 5.917-1.112 9.033.197 2.51.571 5.011 1.002 7.489.977 5.612 2.485 11.13 4.16 16.57 9.618 31.246 25.21 60.914 41.638 89.041 19.27 32.992 41.295 64.721 66.801 93.216 2.809 3.138 5.984 5.956 8.846 9.06 4.49 4.87 8.753 9.962 12.795 15.209 9.507 12.342 18.527 26 23.009 41.055 1.904 6.396 1.949 13.05 3.08 19.593 1.256 7.268 2.846 14.479 4.51 21.662 3.416 14.741 7.31 29.372 11.369 43.948 2.955 10.612 4.658 24.021 13.799 31.369 10.43 8.385 25.024 8.78 37.711 7.319 21.154-2.436 41.941-6.479 62.157-13.253 14.531-4.868 30.203-10.813 42.004-20.901 3.173-2.712 5.889-6.086 6.458-10.318.673-5.006.107-10.057-.571-15.032-2.105-15.441-7.135-30.554-13.328-44.8-3.599-8.281-7.878-16.269-12.837-23.814-4.02-6.116-8.224-12.163-14.521-16.065-12.584-7.799-27.387-11.443-40.749-17.625-6.006-2.777-11.849-7.491-16.583-11.958-4.691-4.427-6.893-10.493-8.406-16.913-3.496-14.833-4.181-30.444-5.21-45.591-1.6-23.526-4.119-47.03-6.748-70.463-2.206-19.661-4.676-39.329-8.245-58.796-1.577-8.604-3.398-17.196-5.941-25.572-1.629-5.365-3.558-11.074-6.927-15.628-2.274-3.074-7.485-.087-5.181 3.027 6.556 8.863 8.569 21.56 10.76 32.067 3.92 18.805 6.367 37.923 8.622 56.986 2.753 23.281 4.962 46.626 7.077 69.973 1.536 16.948 1.991 33.993 5.018 50.78 1.378 7.642 3.459 15.291 8.303 21.499 3.7 4.742 9.063 7.977 13.74 11.644 4.388 3.44 9.5 5.441 14.644 7.52 7.378 2.982 14.863 5.697 22.16 8.879 5.92 2.582 12.307 5.307 16.502 10.383 5.791 7.008 10.533 14.89 14.709 22.943 7.627 14.709 13.144 30.717 16.327 46.975 1.06 5.412 1.837 10.959 1.669 16.485-.125 4.1-1.949 6.484-4.985 9.173-5.094 4.511-11.472 7.715-17.555 10.646-8.507 4.101-17.418 7.348-26.405 10.218-20.109 6.421-41.64 10.989-62.754 12.111-10.788.572-23.24-1.052-30.506-9.921-2.297-2.805-2.688-4.947-3.655-8.239-7.262-24.727-14.146-49.688-19.257-74.956-1.318-6.517-1.85-12.994-2.839-19.528-1.106-7.305-3.748-14.221-6.893-20.872-6.587-13.93-15.943-26.598-25.827-38.348-7.617-9.054-16.184-17.162-23.822-26.205-12.517-14.822-24.034-30.475-34.886-46.549-20.389-30.199-38.649-62.184-53.064-95.679-5.336-12.4-10.139-25.182-13.236-38.342-.962-4.088-2.83-9.915-2.009-14.148 1.537-7.924 3.418-15.778 5.551-23.562 16.751-61.127 51.148-116.211 91.993-164.106 35.447-41.566 76.333-78.498 119.94-111.317 22.229-16.73 45.241-32.614 69.239-46.718.397-.233.807-.453 1.193-.705 3.229-2.101.226-7.297-3.029-5.181z"/><path d="M821.642 1709.118c15.581-1.172 31.227-5.103 46.133-9.563 35.207-10.535 68.421-27.481 97.41-50.078 25.111-19.572 46.545-43.618 63.547-70.513 2.074-3.28-3.12-6.288-5.181-3.027-24.55 38.832-58.531 70.719-98.631 93.076-26.363 14.698-55.138 25.347-84.744 31.264a241.568 241.568 0 0 1-8.058 1.467 201.82 201.82 0 0 1-4.697.715c-1.181.165.206-.023-.721.098-1.681.221-3.368.435-5.059.562-3.833.287-3.86 6.289.001 5.999z"/><path d="M962.249 1646.749c2.094 6.341 4.653 12.549 7.238 18.7 6.858 16.314 14.652 32.225 23.18 47.729a528.463 528.463 0 0 0 41.181 63.608c18.439 24.438 39.624 46.31 60.639 68.501 19.343 20.426 38.742 40.937 59.874 59.542 16.474 14.504 34.323 28.055 54.745 36.47 9.412 3.878 19.375 6.3 29.537 6.985 3.864.261 3.839-5.741 0-6-19.604-1.323-37.593-10.121-53.645-20.966-20.728-14.003-38.914-31.657-56.477-49.354-10.523-10.604-20.815-21.437-31.085-32.285-10.9-11.515-22.009-22.867-32.617-34.652-18.703-20.775-35.46-43.257-50.417-66.863-17.77-28.046-33.563-57.947-45.006-89.159a127.448 127.448 0 0 1-1.361-3.852c-1.208-3.655-7.003-2.089-5.786 1.596z"/><path d="M1177.385 1923.133c8.497 12.979 16.4 26.376 24.057 39.863 14.769 26.016 28.689 52.891 38.68 81.144 4.274 12.086 8.001 24.739 8.835 37.594.928 14.313-2.289 28.958-5.565 42.792-7.623 32.18-18.848 63.772-31.523 94.291-11.011 26.51-21.131 53.313-28.944 80.966-4.092 14.483-7.798 29.377-8.832 44.439-1.085 15.81 1.75 32.894 8.051 47.401 2.339 5.385 5.465 10.354 9.15 14.913 3.505 4.335 5.167 8.802 6.655 14.204 2.866 10.396 4.503 21.096 5.938 31.767l.06.45a173.044 173.044 0 0 1 .604 5.147c.366 3.546.612 7.104.784 10.664.554 11.473.204 22.98-.663 34.428-2.799 36.979-11.548 73.421-22.925 108.63l2.893-2.202c-10.822.696-21.766 1.594-32.426 3.633-14.021 2.681-25.875 12.642-34.053 23.931-8.24 11.374-13.079 25.251-15.579 38.975-.896 4.918-1.499 9.929-1.602 14.929-.058 2.806 1.148 4.738 3.351 6.385 5.506 4.116 13.556 5.404 20.113 6.716 11.362 2.272 22.928 3.597 34.454 4.7 25.725 2.465 51.737 3.598 77.575 2.813 8.592-.261 17.406-.587 25.839-2.393 2.253-.482 6.507-1.295 7.221-3.89.681-2.477-.04-5.938-.119-8.497-.094-3.052-.193-6.104-.29-9.155-.201-6.354-.384-12.707-.485-19.063-.292-18.272 1.625-35.94 4.386-53.966 2.388-15.591 4.644-32.004 11.058-46.545 6.221-14.104 13.812-27.683 21.483-41.038 6.26-10.899 13.798-20.745 18.62-32.302 6.79-16.274 9.398-34.298 10.301-51.802.873-16.948-.199-34.205-3.759-50.816-1.174-5.478-2.727-10.895-4.861-16.079-1.453-3.525-7.26-1.982-5.786 1.596 5.78 14.033 7.68 29.623 8.425 44.668.9 18.168-.431 36.615-4.763 54.305-2.005 8.19-4.799 16.202-8.718 23.678-2.366 4.514-5.558 8.576-8.237 12.92-8.132 13.186-15.589 26.847-22.556 40.68-4.11 8.16-7.933 16.374-10.34 25.212-3.409 12.517-5.405 25.449-7.306 38.264-1.736 11.706-3.503 23.46-3.884 35.3-.556 17.27.461 34.585.938 51.845l1.486-2.591c-1.342.861-3.813 1.409-6.193 1.847-3.787.694-7.644 1.01-11.479 1.285-11.321.814-22.706.841-34.05.677-25.858-.374-51.946-1.828-77.531-5.726-8.225-1.253-17.423-2.605-24.919-5.816-1.11-.476-2.188-1.033-3.189-1.71-.092-.063-.146-.073-.641-.574-.208-.209-.272-.464-.123-.063-.087-.234-.116-.771-.021.164-.034-.336-.002-.689.002-1.025.012-.975.061-1.949.117-2.922a84.7 84.7 0 0 1 .814-7.655c4.05-27.146 19.328-57.052 48.853-62 9.196-1.541 18.575-2.291 27.876-2.89 1.391-.09 2.459-.86 2.893-2.202 12.067-37.347 21.02-76.014 23.488-115.271.677-10.763.798-21.576.153-32.344a183.807 183.807 0 0 0-.829-9.605 172.32 172.32 0 0 0-.372-3.037c-.077-.587-.156-1.174-.235-1.76-.103-.762.084.655-.048-.371-1.526-11.837-3.442-23.752-6.91-35.192-1.602-5.282-3.776-9.337-7.244-13.547-3.786-4.598-6.725-9.971-8.954-15.474-12.426-30.668-4.611-63.063 4.428-93.357 7.983-26.754 18.335-52.46 28.794-78.295 12.724-31.429 24.131-63.936 31.196-97.141 2.796-13.143 5.045-26.872 3.609-40.328-1.408-13.19-5.362-26.038-9.886-38.455-10.217-28.048-24.156-54.768-38.892-80.67-7.405-13.016-15.061-25.938-23.265-38.469-2.112-3.228-7.31-.226-5.183 3.022z"/><path d="M1306.509 2383.515c4.572 1.049 10.214-1.184 14.379-2.723 18.141-6.706 34.732-17.909 50.451-28.946 36.792-25.833 70.878-55.565 104.059-85.816a2131.765 2131.765 0 0 0 18.363-16.954c2.834-2.646-1.418-6.879-4.242-4.242-35.758 33.38-72.43 66.193-111.912 95.155-10.915 8.007-22.088 15.7-33.719 22.635a222.033 222.033 0 0 1-12.246 6.817c-1.68.863-3.375 1.695-5.086 2.497a137.263 137.263 0 0 1-3.259 1.468l-.512.22c-.5.214.66-.275-.116.049-3.819 1.596-7.779 3.043-11.863 3.786-.288.053-.577.1-.866.143-.409.061.949-.106-.078.004a15.58 15.58 0 0 1-1.221.085c-.54.016-1.972-.184-.453.054l-.085-.016c-3.766-.865-5.365 4.919-1.594 5.784z"/><path d="M1461.792 2235.212c7.204 5.013 15.402 8.794 23.475 12.14 18.021 7.471 37.581 11.555 57.116 11.142 28.512-.604 55.105-11.845 77.046-29.751 3-2.447-1.272-6.666-4.242-4.242-20.756 16.938-45.913 27.274-72.804 27.993-19.343.518-38.585-3.846-56.373-11.282-7.292-3.048-14.678-6.649-21.189-11.181-3.186-2.217-6.181 2.987-3.029 5.181z"/><path d="M1577.852 2250.076c12.156 13.938 24.658 27.586 37.281 41.102 23.406 25.063 47.352 49.852 73.214 72.406 8.592 7.493 17.452 14.805 26.975 21.095 6.089 4.022 13.173 8.44 20.651 8.942 3.864.26 3.84-5.742 0-6-.241-.017-1.482-.177-.494-.032a17.913 17.913 0 0 1-1.172-.221c-.928-.2-1.838-.479-2.736-.787a32.644 32.644 0 0 1-1.35-.502c-.884-.346-.24-.086-.927-.39a53.944 53.944 0 0 1-3.234-1.579c-5.059-2.651-9.798-5.913-14.397-9.286-12.348-9.056-23.772-19.402-34.937-29.858-24.517-22.959-47.7-47.356-70.379-72.118-8.172-8.923-16.299-17.895-24.253-27.014-2.548-2.922-6.773 1.341-4.242 4.242z"/><path d="M1709.715 2377.293c-13.794 22.9-20.265 51.703-20.662 78.134-.176 11.683 1.201 23.383 3.819 34.761 2.937 12.764 8.192 24.893 13.088 36.997 6.397 15.819 13.18 31.489 20.626 46.845 3.323 6.854 7.303 13.904 9.905 20.805 4.79 12.701 6.422 26.687 7.824 40.092 1.867 17.848 2.806 35.952 2.149 53.895-.163 4.438-3.13 14.396 2.101 16.597 1.145.481 2.896.365 4.101.466a1017.079 1017.079 0 0 0 67.08 3.327c28.395.476 58.312.811 86.038-6.188 4.827-1.219 9.603-2.83 14.031-5.124 1.771-.917 3.39-2.038 4.954-3.268 3.071-2.414 2.297-9.389 2.173-12.88-.593-16.607-9.893-31.487-20.711-43.486-4.55-5.045-9.487-8.304-15.724-11.127-13.811-6.252-28.869-9.32-43.838-11.183-12.838-1.596-25.811-1.958-38.733-1.663l2.893 2.202c-3.209-15.822-3.995-31.942-3.557-48.055.665-24.416 3.96-48.78 9.014-72.656a567.581 567.581 0 0 1 17.19-62.969c4.949-14.747 12.372-28.331 17.573-42.956 3.874-10.895 6.189-22.428 5.878-34.019-.187-6.951-1.845-13.924-3.063-20.769-2.017-11.346-5.048-22.528-8.094-33.632-8.6-31.337-18.551-62.313-28.723-93.169-8.435-25.587-17.036-51.144-26.35-76.427-3.43-9.311-6.795-15.492-8.84-24.932-5.491-25.344-1.554-52.579 4.274-77.457 5.477-23.379 13.628-46.117 23.038-68.18 2.631-6.168 7.488-11.497 11.434-16.91a3636.09 3636.09 0 0 0 12.671-17.498 2566.277 2566.277 0 0 0 22.253-31.386c7.808-11.198 15.517-22.472 22.893-33.959 4.386-6.83 8.982-13.776 12.275-21.223 1.549-3.504-3.619-6.561-5.182-3.027-5.863 13.262-14.896 25.456-22.964 37.415-13.962 20.696-28.509 41-43.169 61.206a3924.442 3924.442 0 0 1-12.004 16.447c-4.032 5.499-6.212 12.519-8.746 18.836a445.899 445.899 0 0 0-12.318 34.761c-5.491 17.819-9.618 36.086-11.688 54.629-2.097 18.789-2.316 39.326 4.083 57.406a49.71 49.71 0 0 0 2.094 5.061c.152.314.311.625.479.93.03.056.062.11.094.164-.604-1.029.198.517.333.856 3.224 8.118 6.107 16.378 9.021 24.611 10.24 28.943 19.967 58.076 29.321 87.317 9.176 28.68 18.321 57.515 25.283 86.828 3.008 12.664 6.216 26.411 5.482 39.384-1.1 19.445-10.663 35.91-17.803 53.476-6.905 16.988-11.928 34.863-16.569 52.576-6.152 23.476-10.696 47.252-13.246 71.39-2.721 25.757-3.325 52.027 1.846 77.524.258 1.273 1.632 2.23 2.893 2.202 21.186-.482 42.577.857 63.12 6.342 9.245 2.468 19.126 5.737 26.87 11.572 1.411 1.063 4.107 4.325 5.752 6.204 5.191 5.93 9.588 12.5 12.875 19.671 1.977 4.313 3.24 8.949 4.008 13.62.437 2.654 1.716 11.424-.491 13.021-3.608 2.609-7.889 4.171-12.108 5.466-12.333 3.783-25.452 5.046-38.262 5.967-15.388 1.107-30.842 1.282-46.263 1.108-23.225-.261-46.462-1.412-69.612-3.284a417.967 417.967 0 0 1-4.18-.354c1.398.126 1.705 1.783 1.962-.091.091-.657.174-1.314.251-1.974.156-1.339.26-2.684.357-4.028.263-3.643.352-7.298.401-10.949.255-18.533-.925-37.182-3.204-55.57-1.471-11.858-3.228-24.177-7.745-35.329-3.129-7.723-7.199-15.072-10.814-22.57-7.309-15.156-13.918-30.637-20.205-46.241-4.532-11.249-9.135-22.464-11.991-34.279-2.729-11.289-3.759-22.91-3.584-34.506.374-24.866 6.856-52.238 19.823-73.764 2.003-3.324-3.186-6.338-5.18-3.029z"/><path d="M1801.304 1838.957c19.06 2.267 38.528 2.55 57.681 1.845 17.121-.631 34.272-2.371 51.05-5.903 16.319-3.435 32.642-8.746 46.841-17.657 6.551-4.11 12.62-9.094 17.662-14.969 5.922-6.898 10.324-15.19 13.957-23.475 9.546-21.769 13.135-45.874 14.576-69.441 1.701-27.813-.459-55.537-3.71-83.15-1.502-12.755-3.282-25.501-5.826-38.094-1.922-9.51-4.01-19.861-8.973-28.335-1.954-3.336-7.141-.318-5.182 3.027 3.324 5.676 5.006 12.366 6.575 18.802 2.159 8.853 3.696 17.858 5.05 26.865 2.409 16.034 4.076 32.188 5.382 48.347 2.688 33.279 2.116 67.771-6.618 100.16-4.848 17.975-12.754 36.369-27.173 48.71-12.201 10.442-27.746 16.564-43.063 20.754-30.61 8.372-63.175 9.58-94.731 8.229-7.836-.335-15.705-.788-23.497-1.715-3.838-.456-3.794 5.549-.001 6z"/><path d="M1997.457 1659.882c9.809 5.557 20.27 10.113 30.734 14.261 20.775 8.232 42.98 14.404 65.446 14.814 3.871.07 3.864-5.93 0-6-21.732-.396-43.096-6.49-63.22-14.353-10.209-3.988-20.384-8.494-29.934-13.904-3.369-1.909-6.392 3.274-3.026 5.182z"/><path d="M2109.38 1653.109c-7.195 10.103-13.656 21.099-18.367 32.577-4.388 10.691-7.122 22.144-9.561 33.413-6.501 30.04-10.938 60.578-15.019 91.026-1.78 13.287-3.449 26.592-4.823 39.928-.78 7.571-1.357 15.144-3.052 22.584-1.223 5.367-3.073 10.917-6.898 15.015-2.747 2.942-6.482 4.643-10.115 6.219-4.252 1.845-8.448 3.814-12.757 5.524-12.912 5.128-26.131 9.457-39.134 14.344-4.76 1.789-9.612 3.562-14.124 5.925-1.294.678-2.5 1.478-3.387 2.651-.504.666.021-.007-.101.145-.278.346-.57.682-.858 1.02-4.648 5.439-8.727 11.219-11.981 17.606-6.036 11.85-9.136 24.893-10.431 38.069-.924 9.406-.705 18.899.142 28.302.498 5.527.922 9.204 4.475 13.392 6.46 7.613 15.787 13.223 24.116 18.517 11.146 7.084 22.698 13.534 34.326 19.787a988.584 988.584 0 0 0 27.929 14.426c2.362 1.175 4.712 2.454 7.164 3.435 5.34 2.136 12.685-.167 17.682-2.157 7.008-2.792 13.219-7.349 17.456-13.636 2.025-3.004 4.394-5.789 6.638-8.627 7.992-10.105 15.604-20.478 22.23-31.54 8.748-14.604 15.663-30.372 19.896-46.876 1.124-4.383 1.993-8.827 2.695-13.295.701-4.455.116-10.561 2.452-14.398a1547.89 1547.89 0 0 0 17.276-29.139c21.887-37.811 42.221-76.545 60.698-116.135 15.826-33.909 30.385-68.541 42.072-104.11 8.262-25.145 15.917-51.603 16.931-78.221.088-2.309.09-4.619.022-6.928-.069-2.376-1.722-5.21-2.548-7.426a689.113 689.113 0 0 0-3.436-9.006 646.4 646.4 0 0 0-12.217-29.265c-7.463-16.729-15.77-33.087-25.03-48.894-13.388-22.847-29.042-44.346-46.983-63.833-11.29-12.262-23.805-23.258-35.35-35.257-1.596-1.659-3.057-3.869-4.86-5.277a783.053 783.053 0 0 0-5.425-4.189 1207.407 1207.407 0 0 0-25.606-19.087c-22.959-16.666-46.589-33.81-72.317-45.988a127.783 127.783 0 0 0-6.095-2.672c-3.579-1.473-5.122 4.335-1.596 5.785 12.018 4.943 23.27 11.893 34.229 18.807 12.715 8.022 25.092 16.58 37.314 25.33 9.499 6.8 18.89 13.751 28.187 20.825 4.131 3.143 6.813 5.228 10.377 9.07 10.982 11.84 23.274 22.413 34.359 34.17 17.801 18.881 33.229 39.769 46.597 61.995 9.277 15.428 17.514 31.467 25.02 47.824 4.491 9.789 8.667 19.72 12.626 29.735a706.27 706.27 0 0 1 5.888 15.479c1.087 2.953.947 5.682.845 8.801-.88 26.693-9.022 53.341-17.336 78.506-11.897 36.014-26.836 71.014-42.964 105.314-18.651 39.666-39.245 78.424-61.301 116.298a1524.722 1524.722 0 0 1-12.449 20.979c-1.255 2.078-3.776 4.826-3.929 7.31-.593 9.667-2.236 19.164-4.781 28.506-4.459 16.368-11.887 31.768-20.824 46.137-6.409 10.305-13.77 19.922-21.289 29.429-2.646 3.344-5.006 7.086-7.9 10.204-5.004 5.39-12.661 9.029-19.929 9.962-6.652.854-13.105-3.922-19.186-7.007-10.774-5.468-21.458-11.117-32.006-17.011-11.141-6.226-22.201-12.705-32.64-20.063-3.855-2.718-7.624-5.6-10.988-8.915-3.759-3.704-3.995-5.723-4.515-11.07-2.536-26.092.907-54.159 17.104-75.59 1.267-1.676 2.778-3.367 4.165-5.038.317-.383.62-.778.917-1.176.302-.403-.532.427.006.049 1.481-1.039 3.226-1.755 4.87-2.484 12.168-5.396 25.018-9.375 37.513-13.931 9.703-3.536 19.428-7.323 28.7-11.893 10.026-4.939 14.31-14.531 16.567-25.021 2.847-13.226 3.294-27.146 4.91-40.576 1.825-15.171 3.893-30.313 6.128-45.429 3.672-24.833 7.552-49.771 13.378-74.205 2.434-10.209 5.398-20.459 9.929-29.941 4.34-9.084 9.618-17.881 15.461-26.085 2.25-3.16-2.957-6.152-5.182-3.029z"/><path d="M2046.2 1371.818c-.633-4.441-2.202-8.843-3.784-13.013-4.45-11.733-10.795-22.678-18.217-32.771-29.246-39.778-73.805-65.837-118.918-83.838-41.182-16.432-84.77-26.45-128.509-33.14l1.793 1.378c-21.155-47.669-40.213-96.338-59.884-144.633l-3.888-9.552c-.515-1.265-1.036-3.427-2.031-4.422-1.305-1.306-3.526-2.065-5.124-2.878-4.501-2.291-9.109-4.367-13.76-6.333-16.54-6.995-33.73-12.341-51.23-16.339-5.483-1.252-11.006-2.327-16.546-3.295a324.797 324.797 0 0 0-8.822-1.397c-2.949-.433-6.354-.389-9.203-1.202a1692.563 1692.563 0 0 0-13.81-3.878c-7.752-2.144-14.985-4.093-22.972-4.594a4824.4 4824.4 0 0 1-38.941-2.579c-9.329-.661-19.763-1.618-28.307-2.455-8.24-.807-16.902.138-25.143.479-28.134 1.167-56.293 2.773-84.351 5.172-22.128 1.892-43.761 7.354-65.407 12.145-22.089 4.889-49.08 8.625-64.953 26.689-7.036 8.007-8.06 18.896-10.025 28.943-2.697 13.781-5.496 27.54-8.76 41.199-4.034 16.882-8.724 33.693-15.148 49.837-4.878 12.258-11.291 26.835-22.465 34.686-3.14 2.206-.146 7.411 3.028 5.181 10.051-7.061 16.351-18.416 21.397-29.328 6.614-14.301 11.302-29.468 15.394-44.654 3.959-14.696 7.198-29.579 10.199-44.497 1.855-9.22 3.297-18.601 5.65-27.712 3.771-14.602 19.29-19.932 31.36-25.81-.321.157.164-.06.779-.264.707-.234 1.423-.439 2.139-.645 2.302-.659 4.627-1.24 6.95-1.818 6.536-1.627 13.106-3.12 19.677-4.6 22.104-4.979 44.708-11.035 67.041-13.075 27.803-2.541 55.74-4.041 83.628-5.283 9.265-.413 18.637-1.06 27.915-.712 1.729.064.259-.04 1.833.179 1.904.266 3.817.456 5.731.636 5.859.55 11.732.975 17.602 1.403 13.464.982 26.935 1.857 40.406 2.709 2.909.184 5.818.366 8.729.545.285.018-.449-.094.473.096.976.201 1.942.45 2.908.691 3.203.8 6.39 1.674 9.574 2.545a1557.287 1557.287 0 0 1 15.848 4.435c3.979 1.133 8.51 1.146 12.608 1.768 6.164.934 12.294 2.085 18.393 3.371 18.11 3.818 35.921 9.247 53.034 16.298 6.464 2.663 12.98 5.537 19.035 9.056l-1.378-1.793c17.717 43.61 35.488 87.204 53.66 130.626 3.929 9.389 7.847 18.787 11.975 28.09.897 2.021 4.505 1.795 6.26 2.07 2.931.459 5.857.944 8.782 1.437a731.523 731.523 0 0 1 18.357 3.35 652.12 652.12 0 0 1 32.788 7.281c34.911 8.688 69.254 20.542 101.085 37.436 35.656 18.925 69.777 45.347 89.441 81.341 4.574 8.372 8.928 17.296 10.317 27.036.546 3.814 6.327 2.184 5.787-1.598z"/></g></svg>