<svg xmlns="http://www.w3.org/2000/svg" id="blush" viewBox="0 0 3000 3000"><path fill="#FF5E7C" fill-rule="evenodd" d="M1465.373 1178.269c-17.384.878-31.983-3.692-44.619-13.97-14.485-11.783-19.733-26.965-14.688-43.263 3.005-9.706 9.355-17.565 17.798-23.436 25.964-18.053 64.119-17.84 88.521 4.477 18.679 17.083 18.985 45.804-5.194 63.464-12.693 9.27-26.686 11.986-41.818 12.728zm345.278-14.516c17.471-10.276 26.139-27.804 19.187-47.243-5.066-14.168-15.878-23.056-30.808-26.896-12.062-3.104-23.743-2.291-35.022 2.425-24.368 10.188-35.277 38.05-18.116 60.568 9.218 12.095 22.355 18.359 39.624 17.458 9.578-.648 17.347-1.73 25.135-6.312z" clip-rule="evenodd"/><path fill="#FFFDFE" fill-rule="evenodd" d="M1441.027 1132.369a14.352 14.352 0 0 1-14.24-14.823c.225-7.814 6.246-13.7 14.143-13.821 8.228-.126 14.758 6.164 14.786 14.244.029 8.048-6.534 14.483-14.689 14.4zm368.046-26.576c-5.204.08-9.282 4.27-9.281 9.535 0 5.286 4.126 9.331 9.441 9.256 5.28-.075 9.323-4.212 9.276-9.491-.046-5.315-4.173-9.382-9.436-9.3z" clip-rule="evenodd"/></svg>