<svg xmlns="http://www.w3.org/2000/svg" id="blush" viewBox="0 0 3000 3000"><path fill="#FC7998" fill-rule="evenodd" d="M1522.333 1133.135c.858 28.07-22.038 54.625-52.987 59.059-27.344 3.918-54.524-10.996-65.07-32.498-10.242-20.881-6.566-49.08 9.928-65.459 19.284-19.149 41.433-24.637 67.516-16.665 23.434 7.163 41.93 32.01 40.613 55.563zm230.849 38.763c14.378 15.718 38.829 21.043 58.792 3.726 23.377-20.278 22.047-60.741-1.211-80.202-16.321-13.658-39.948-13.095-55.418 1.663-10.907 10.404-15.888 23.409-15.718 39.991-.345 12.39 4.205 24.6 13.555 34.822z" clip-rule="evenodd"/></svg>