<svg xmlns="http://www.w3.org/2000/svg" id="blush" viewBox="0 0 3000 3000"><path fill="#F49E9C" fill-rule="evenodd" d="M1459.979 1095.553c13.335-.014 25.61 3.541 36.806 10.623 26.737 16.91 28.124 49.571 3.112 69.093-21.427 16.724-57.266 20.305-82.411 4.106-25.943-16.713-27.475-45.912-7.404-65.08 14.139-13.504 31.184-18.084 49.897-18.742zm286.479.937c-17.272 15.054-19.285 38.76-3.679 55.816 18.973 20.735 56.188 18.863 73.887-1.52 13.62-15.684 13.486-37.861-1.051-52.452-9.545-9.579-21.564-14.045-38.862-14.099-9.171-.152-20.805 3.985-30.295 12.255z" clip-rule="evenodd"/><path fill="#F64141" fill-rule="evenodd" d="M1426.991 1155.95c-3.186-.271-4.994-2.204-4.729-5.194.228-2.562 1.17-5.159 2.264-7.524 3.335-7.209 6.854-14.334 10.399-21.442a24.947 24.947 0 0 1 3.252-4.948c1.319-1.558 3.096-2.593 5.266-1.764 2.496.953 3.545 2.927 3.168 5.51-.237 1.624-.712 3.233-1.256 4.788-3.072 8.782-7.637 16.878-11.758 25.171-1.328 2.673-3.165 5.11-6.606 5.403zm25.006-4.309c4.156-8.676 8.138-17.437 12.144-26.184 1.371-2.994 1.557-5.979-1.703-7.825-3.65-2.066-5.677.568-7 3.333-4.438 9.278-8.694 18.644-12.934 28.016-.825 1.824-1.041 3.85-.436 5.841.536 1.769 1.689 2.772 3.695 2.696 3.258-.648 4.952-3.2 6.234-5.877zm20.391-1.528c4.961-8.276 8.214-17.356 12.009-26.18.131-.303.206-.63.313-.943.83-2.443.64-4.699-1.793-6.049-2.989-1.658-5.008.085-6.683 2.381-.583.799-1.076 1.68-1.501 2.575a6394.782 6394.782 0 0 0-11.455 24.283c-.999 2.131-1.651 4.352-1.02 6.732.479 1.804 1.651 2.777 3.599 2.798 3.314-.506 5.015-3.069 6.531-5.597zm290.819-45.769c-2.239 1.028-3.561 2.984-4.632 5.069-2.89 5.622-5.708 11.281-8.527 16.939-.444.891-.815 1.83-1.104 2.782-.729 2.412-.641 4.756 1.78 6.129 2.646 1.5 4.537-.103 5.744-2.249a347.31 347.31 0 0 0 7.938-14.984c1.63-3.261 2.962-6.669 4.138-9.351.219-3.819-2.493-5.642-5.337-4.335zm8.593 30.122c5.708-7.146 9.248-15.339 11.147-24.234.381-1.784-.738-3.278-2.482-3.828-1.766-.556-3.534.124-4.227 1.761-3.365 7.946-6.646 15.932-9.708 23.999-.646 1.705.667 3.108 2.846 3.515.704-.336 1.875-.526 2.424-1.213zm21.299-28.17c-4.963 7.813-7.704 16.591-10.707 25.241-.214.616.594 1.928 1.28 2.439 1.173.872 2.729.536 3.598-.465 5.988-6.896 9.491-14.993 10.882-23.962.322-2.077-.682-3.888-3.272-3.979-.611.236-1.503.286-1.781.726z" clip-rule="evenodd"/></svg>