<svg xmlns="http://www.w3.org/2000/svg" id="blush" viewBox="0 0 3000 3000"><path fill="#FF5E7C" fill-rule="evenodd" d="M1467.94 1176.293c-15.04.445-28.188-2.1-40.126-9.666-5.69-3.607-10.752-7.829-14.246-13.666-8.595-14.358-6.693-28.74 5.793-41.725 10.538-10.956 23.982-16.208 38.609-19.166 18.739-3.79 36.227-.309 52.825 8.576 11.622 6.221 18.499 15.99 20.174 29.074.962 7.517-2.047 14.192-5.643 20.608-8.365 11.652-20.085 19.364-33.903 23.032-7.944 2.11-15.029 3.036-23.483 2.933zm344.568-26.709c13.467-10.074 17.989-27.879 9.998-42.708-5.199-9.651-13.738-15.847-24.262-19.372-14.449-4.841-28.926-4.188-42.969.643-8.416 2.896-16.265 7.77-21.828 15.155-10.65 14.14-10.035 28.504-2.428 38.864 10.594 14.429 25.84 20.104 41.433 20.218 16.589-.527 29.358-4.797 40.056-12.8z" clip-rule="evenodd"/></svg>