<svg xmlns="http://www.w3.org/2000/svg" id="blush" viewBox="0 0 3000 3000"><path fill="#FF5E5A" fill-rule="evenodd" d="M1434.167 1119.292c3-1.995 5.917-3.5 9.296-3.816 8.057-.311 14.659 2.237 18.807 9.4 4.376 7.557 3.33 15.112-3.011 21.737-6.96 7.273-19.476 9.93-28.457 6.354-9.2-3.662-17.466-13.611-17.25-24.217.262-12.875 7.283-20.558 16.572-26.548 24.823-16.007 48.104-.541 54.794 20.566 2.979 9.402 1.834 19.425-3.746 27.847-9.883 14.918-24.243 24.105-41.896 25.627-28.388 2.445-49.908-15.451-51.969-44.025-.834-11.564 3.315-21.338 8.693-31.549 2.563-4.865 6.733-10.292 10.813-13.542 9.336-7.437 18.382-12.895 29.987-16.322 16.2-3.137 29.324.788 43.176 6.483 12.201 5.016 20.181 14.109 26.487 25.601 11.776 21.456 7.385 58.438-12.365 75.282-5.96 5.082-13.461 6.771-20.508 9.355-2.564.939-4.958-1.023-6.515-3.496-1.699-2.701-1.252-5.232.754-7.289 1.328-1.361 3.203-2.721 5.004-3.008 14.826-2.352 21.366-13.195 24.578-25.801 3.199-12.555 3.18-25.147-2.578-37.901-5.482-12.144-14.771-18.35-26.043-22.925-16.748-6.799-41.457 1.312-46.79 5.229-3.762 2.625-9.583 7.666-13.199 13.009-9.667 14.284-9.143 28.622-1.906 43.237 2.688 5.43 8.165 8.48 13.522 10.98 14.729 6.871 42.039 2.619 50.582-20.252 3.624-9.705-.373-20.458-9.648-26.622-8.619-5.727-18.952-2.961-26.035 1.456-.581.499-2.663 2.579-4.103 4.333-1.172 1.375-2.024 2.993-3.083 5.333-.945 3.222-.667 4.626.329 8.255 1.671 4.078 3.682 5.457 7.458 6.957-1.724-.458 3.13 1.205 5.88-.295.988-.539 2.246-1.545 2.745-2.601 1.008-2.133.571-5.026.125-5.25-.833 2-2.521 5.23-7.5 4.958-2.524-.137-5.417-2.708-6.333-4.167-.833-1.792-1.208-4.208-.542-6.875.77-2.478 2.02-4.265 3.875-5.498zm328.156 1.408c-1.782 1.069-3.621 3.674-4.121 6.674-.547 3.282.378 6.491 2.573 7.706 3.5 1.938 7.667.875 8.438.875 1.5 0 .125 2.063-2 3.875-1.188 1.014-4.307 1.234-6 1-3.999-.555-7.909-5.309-8.333-8.354-.917-6.583 1.691-9.543 3.417-12.5 1.167-2 3.642-4.17 6.583-5.75 8.667-2.667 16.385-1.125 20.319 6.899 4.721 9.628 3.176 19.427-2.617 27.208-5.696 7.65-19.188 11.459-27.881 9.324-15.277-3.752-19.241-19.893-18.285-33.708.83-11.985 8-20.061 17.626-27.334 16.409-12.4 41.607-3.602 49.803 13.763 5.762 12.207 6.248 24.882 2.907 37.796-2.36 9.125-6.677 16.66-16.423 19.699-1.55.484-3.192 1.201-4.354 2.281-2.168 2.014-2.666 4.648-1.012 7.238 1.482 2.318 3.236 4.111 6.556 2.836 8.547-3.287 15.935-7.508 20.54-16.207 6.158-11.631 8.293-23.994 7.107-36.631-2.13-22.724-12.236-40.753-37.118-47.346-12.857-3.407-24.102-.819-34.714 6.693-18.173 12.863-25.228 30.412-21.646 52.098 3.351 20.283 17.701 32.443 36.18 31.684 23.153-.953 41.936-21.93 36.172-46.798-4.715-20.348-25.233-28.835-42.184-17.023-12.099 8.431-15.41 23.742-7.779 35.966 3.543 5.678 14.102 10.668 19.667 9.297 9.402-2.316 14.176-7.191 15.352-16.102 1.039-7.877-3.194-14.281-7.771-16.304-4.611-1.247-7.987-.663-11.002 1.145z" clip-rule="evenodd"/></svg>