<svg xmlns="http://www.w3.org/2000/svg" id="blush" viewBox="0 0 3000 3000"><path fill="#F49E9C" fill-rule="evenodd" d="M1471.5 1095.5c13.552.635 25.87 2.046 38.865 7.842 4.946 2.206 9.137 5.112 13.22 8.637 19.152 16.53 8.912 40.815-5.572 50.018-8.899 5.654-18.616 8.395-29.581 10.582-8.922 1.78-18.014 3.235-27.398 2.833-16.626-.713-32.845-1.854-47.939-10.297-16.182-9.05-22.614-29.124-10.286-45.54 6.791-9.042 16.241-13.344 26.099-17.249 6.438-2.551 13.026-4.274 20.02-5.479 6.926-.71 16.407-1.635 22.572-1.347zm300.509-3.488c-14.523 1.102-28.108 4.861-38.81 15.398-11.218 11.047-11.751 26.157-2.101 38.589 7.295 9.396 20.193 12.597 28.533 14.237 12.026 1.721 24.131.939 36.134-.565 8.335-1.045 15.794-4.295 22.601-9.485 20.165-15.375 13.455-43.974-7.486-52.523-8.505-3.662-14.317-5.162-27.067-5.686-.414-.027-9.84-.115-11.804.035z" clip-rule="evenodd"/><path fill="#FEF9F9" fill-rule="evenodd" d="M1441.878 1128.128c-.265 3.648-5.384 10.915-8.276 11.746-4.034 1.161-9.51-1.77-12.358-6.583-.879-1.485-1.479-2.989-.535-4.648.939-1.649 2.75-2.518 4.2-1.802 4.431 2.187 7.377-.435 10.897-2.334 3.427-1.849 6.321.194 6.072 3.621zm35.162 2.459c-2.115-.026-4.004.972-3.911 3.466.089 2.384 1.941 3.445 4.041 3.498 2.156.054 3.8-1 4.017-3.853-.461-1.904-2.041-3.085-4.147-3.111zm-13.69 1.464c-1.336.135-2.596.999-2.416 2.459.276 2.248 1.773 3.33 4.072 2.758 1.402-.35 1.977-1.467 1.989-3.077-.522-1.66-1.935-2.312-3.645-2.14zm-12.232 2.494c-.971-.057-1.767.481-1.913 1.473-.16 1.08.53 1.722 1.566 1.776.961.051 1.672-.45 1.891-1.229.095-1.311-.503-1.96-1.544-2.02zm351.186-17.794c-3.76.815-7.034.281-10.202-2.043-1.185-.869-2.859.198-2.925 1.625-.158 3.437 1.021 6.579 3.676 8.86 1.649 1.417 3.78 1.351 5.647.355 2.699-1.438 4.939-3.371 5.338-6.117.09-1.724-.679-2.866-1.534-2.68zm-38.068 8.628c-1.468-.554-2.804.063-3.143 1.389-.706 2.765.868 4.357 3.471 4.816 1.381.244 2.498-.476 2.907-1.969.24-2.414-1.293-3.505-3.235-4.236zm11.621-.051c-1.07.111-1.636.967-1.559 2.017.082 1.112.81 1.84 1.941 1.715 1.073-.119 1.539-.966 1.581-2.021-.166-1.131-.85-1.825-1.963-1.711zm11.064.081l-1.507-.66c-.212.495-.693 1.089-.559 1.456.13.354.899.471 1.39.69.227-.496.451-.991.676-1.486z" clip-rule="evenodd"/></svg>