<svg xmlns="http://www.w3.org/2000/svg" id="blush" viewBox="0 0 3000 3000"><path fill="#F85B79" fill-rule="evenodd" d="M1709.147 1129.153c4.347-22.928 12.228-42.739 24.993-61.518 4.078 11.629-12.374 52.58-24.993 61.518zm-28.401.09c10.464-8.306 25.601-44.319 24.873-60.339-12.127 12.188-26.53 47.844-24.873 60.339zm-5.958-60.385c-12.866 20.132-21.684 39.702-25.79 62.764 11.943-7.947 28.294-47.172 25.79-62.764zm-37.102 35.408c7.085-16.964 8.837-24.807 6.587-33.226-12.137 19.671-21.374 39.014-25.266 61.992 8.11-5.182 10.31-8.729 18.679-28.766z" clip-rule="evenodd"/></svg>