<svg xmlns="http://www.w3.org/2000/svg" id="blush" viewBox="0 0 3000 3000"><path fill="#FA5C5C" fill-rule="evenodd" d="M1463.648 1174.43c-.634-16.8 19.626-56.856 32.483-65.32 1.981 13.534-17.802 54.02-32.483 65.32zm-38.802.874c12.451-6.47 33.622-47.966 32.673-64.042-12.427 6.845-33.559 48.266-32.673 64.042zm-36.24 1.332c.807-.565 1.607-1.22 2.201-1.996 13.59-17.803 23.76-37.273 28.698-59.262.219-.974-.341-1.894-1.429-2.267-13.456 9.126-33.541 50.344-31.229 64.095.594-.18 1.277-.232 1.759-.57zm366.783-84.255c-10.104 5.764-25.741 36.961-26.108 52.088 10.264-5.43 26.176-37.174 26.108-52.088zm30.226-2.767c-13.248 16.116-21.658 33.546-25.428 53.125 13.042-9.607 28.138-41.672 25.428-53.125zm7.047 51.593c10.987-8.229 26.106-39.883 24.591-51.483-11.289 8.301-26.19 39.5-24.591 51.483z" clip-rule="evenodd"/></svg>