<svg xmlns="http://www.w3.org/2000/svg" id="eyes" viewBox="0 0 3000 3000"><path d="M1787.5 1093.978c-2.4-4.088-3.5-8.477-3.4-13.263.101-17.252-1-34.605.4-51.658 1.199-13.862 1.199-27.725 1.5-41.585.1-4.887-1.2-9.175-4.7-12.666-10-9.673-17.899-21.241-29.101-29.818-5.8-4.487-11-5.383-17.399-3.688-10.3 2.593-20.5 5.485-30.699 8.176-3.5.898-7.101 2.394-10.101-1.097 0-.598 0-1.296.101-1.895 2-2.992 3.699-6.283 6.699-8.576 19.101-14.958 39.5-28.022 61.2-38.893 2.699-1.296 5.5-2.494 8.5-2.593 9.1.397 16.3 4.587 22.899 10.77 16 14.759 27.601 32.211 35.101 52.556 1.899 5.184 2.6 10.271 1.5 15.655-.801 3.191-2.2 6.284-3.9 9.076-13.199 22.737-17.399 47.469-17.3 73.298-.101 15.957-5.925 28.198-21.3 36.201zm-165.266-54.778c-.099-20 .599-39.8-1.892-59.7-1.99-15.5-7.27-28.6-18.122-39.698-13.641-14-28.478-26.602-43.812-38.802-8.962-7.1-18.521-11.3-30.072-10.198-19.517 7.1-39.431 13.198-58.25 22.3-11.053 5.3-21.607 11.398-33.159 15.7-15.334 5.8-28.577 15-41.622 24.6-.1 4-2.689 7.4-2.292 11.5 4.382 3.8 8.863 1.3 13.145.1 29.672-8.6 59.744-15.1 89.814-22.1 5.677-1.3 11.253-1.7 16.232 2 15.134 11.4 31.663 20.8 47.297 31.4 5.976 4.1 9.063 9.698 9.658 16.6 1.295 15 4.284 29.7 6.871 44.4 1.393 7.898.499 15.1-2.988 22.3-3.484 7.2-6.472 14.6-8.96 22.2-1.794 5.6-1.494 5.8 4.181 7.1 4.88-1.7 7.966-5.7 11.353-9.2 13.143-13.5 26.784-26.3 40.925-38.6.4-.8.896-1.502 1.693-1.902z"/><path fill="#C7C8BC" d="M1395.404 953.5c-2.29-5.3-7.667-7.1-11.849-10.198-2.987-2.2-6.274-3.802-6.274-8.2 7.668-5.8 16.331-10.102 24.893-14.3 29.077-14.302 58.849-27 88.722-39.5 9.16-3.802 18.32-7.7 27.184-12 8.663-4.2 17.725-4.7 27.085-4.102 1.095.102 2.189 1.3 3.285 1.9-3.585-.3-6.473.3-7.667 4.3-.796 2.8-2.092 5.6-2.688 8.4-1.193 5.5-3.984 9.999-9.461 11.699-4.978 1.865-7.119 3.916-11.798 5.5-40.578 16.082-78.315 31.899-114.86 54.399-2.091 1.302-4.083 2.502-6.572 2.102zm167.085 157.802c23.502-14.7 47.001-29.302 69.105-46.102 8.363-6.398 17.725-11.5 24.496-19.8-2.589-1.7-5.477-1.9-8.465-2.5-8.362-1.8-17.126-1.2-25.392-3.7-.496 0-.896 0-1.394.102-.896.3-1.692.698-2.488 1.3-9.759 6.5-17.028 15.6-25.392 23.4-8.664 8.1-15.734 17.898-26.287 23.898-15.234 8.801-29.772 19-46.302 25.602 3.883 1.898 6.971 4.198 6.173 9.398-.498 2.7 1.295 4.2 3.982 4.4 10.756-5.4 22.008-9.7 31.964-15.998zm209.136-13.705c4.75 2.714 23.074-2.821 26.574-3.718 13.399-3.191 23.199-17.153 22-31.114-1.801-20.943 2.899-40.589 11.301-59.736 5.699-12.863 12.199-25.929 10.199-40.888-7.101 1.197-12.801 3.989-13.601 12.167-2.199 4.488-4.3 8.975-6.699 13.363-11.101 19.945-15.301 41.485-15.301 64.023 0 6.182.865 13.109-1.226 19.945-3 9.872-10.375 15.458-17.475 22.139-4.158 1.46-15.772 3.22-15.772 3.819zm6.074-217.031c-7.199-.399-13.601 2.094-19.899 5.085-15.9 7.581-29.301 19.049-44.101 28.323-12.199 7.579-17.699 18.948-19.699 32.51 11.699-9.671 23.899-18.748 36.8-26.825 12.601-7.878 24.899-16.355 39.101-21.242 1.8-3.391 3.699-6.783 5.3-10.273 1.4-3.091 3.101-5.683 6.9-5.784-1.101-1.295-2.701-1.694-4.402-1.794z"/><path fill="#E7E6E2" d="M1530.626 1127.1c-2.291 2.7-5.577 2.2-8.363 1.7-17.229-3-34.553-5.302-50.784-12.5-11.451-5.102-23.4-9.302-34.751-14.602-8.961-4.199-17.425-9.5-26.189-14.3-5.476-3-8.265-7.7-11.251-13.1-5.477-9.9-8.962-20.7-15.334-30.102-6.672-9.898-9.459-21.898-15.734-32.2-2.59-4.198.698-9.698 1.394-14.5 2.789-18.3 5.676-36.6 5.477-55.3 0-2.6-.598-5.398 2.091-7.3 6.075 6.7 16.43 8.8 19.717 18.6.498 4.2-.996 8.102-1.693 12.102-5.376 21.3-4.879 41.898 5.277 62.1 5.577 11.2 9.659 23.4 13.044 35.5 2.389 8.4 7.368 13.602 14.936 17.5 29.076 14.801 59.146 26.801 91.909 30.4 8.66 2.002 8.86 9.402 10.254 16.002z"/><path fill="#86877F" d="M1548.45 867c9.559 4 18.121 9.7 26.088 16.2 24.197 19.7 50.285 36.9 72.688 58.8 4.283 4.2 6.773 8.302 7.468 14.4 2.888 27.5 4.283 55 3.685 82.6 0 2.302.1 4.7-2.19 6.302-11.648.3-23.301.198-34.054-5.4-3.187-4-2.589-8.8-2.589-13.399-.2-15.601.298-31.101-1.794-46.699-1.992-15-7.367-27.9-18.022-38.801-12.945-13.301-27.482-24.801-41.424-37-8.763-7.699-19.416-9.101-29.674-12.5 2.989-7.5 7.967-14 10.655-21.801 1.296-3.602 5.18-4.9 9.163-2.702zm288.249 74.199c-7.399-16.255-19.101-29.519-31.101-42.384-6.601-7.08-14-13.263-23.399-16.554-8.399 1.096-11.301 4.787-12.199 16.055 5.5 1.296 11.3 1.695 15.8 5.586 11.399 9.773 22.399 20.143 29.301 33.605 6 11.57 13.699 22.838 13 36.898 2.1-3.49 3.8-7.377 8.6-7.978 2.601-.299 3.301-2.89 5-4.187.299-7.477-2.002-14.358-5.002-21.041z"/><path fill="#2A2A2A" d="M1787.5 1093.978c-7.801 4.488-15.801 5.285-23.7 2.094-17.3-6.781-32-17.452-44.5-31.014-2.3-2.394-5-4.488-7.101-6.981-8.1-9.673-20.199-15.956-22-30.715-1.5-12.765-5-25.032-3-38.394 1.4-9.375.801-19.147 2.9-28.622.899-4.088 2.399-7.629 3.8-12.067 11.8-1.994 23.399-4.887 34.8-8.477 10.7-3.391 19.7-1.796 28.601 5.784 10.2 8.776 18.2 19.247 27.101 29.12 4.301 4.686 4.301 10.868 4.5 16.953.5 25.529-3.199 50.859-2.101 76.389.399 8.277.348 12.989 2.146 21.167.001 1.198 1.489 1.44-1.446 4.763zm-398.369-89.578c0 1.9.996 3.8 1.691 5.7 7.768 20.1 15.833 40.2 22.305 60.8.996 3.3 2.688 5.9 5.874 7.6 31.864 17.602 64.625 32.2 101.467 34.7 4.281-.398 8.465-.398 12.447-2.6 12.048-6.8 23.631-15.591 35.082-23.492-2.889-.3-3.716.292-2.323-2.808 3.685-8.5 7.271-17.102 10.755-25.7 1.992-4.9 4.58-9.7 3.585-15.3-3.188-17.2-6.57-34.4-7.967-52-.596-7.602-4.282-13.2-11.052-17.602-15.832-10.3-32.262-19.6-47.1-31.398-4.68-3.7-9.76-4.3-14.936-3-27.582 6.6-55.164 13.5-82.747 20.1-7.667 1.8-12.703 5.655-20.867 5.455-4.378 12.902-6.314 26.245-6.214 39.545z"/><path id="cl1" fill="#FBE501" d="M1726.6 1032.647c-8.5 0-15.1-6.581-14.899-15.058.101-7.878 6.5-14.562 14.3-14.859 7.9-.299 15.4 6.781 15.7 14.758.199 8.08-6.901 15.159-15.101 15.159zm-233.513-10.447c.397-11.2-8.564-20.7-19.617-20.8-10.853-.1-20.413 9.5-20.213 20.4.1 10.698 9.062 19.5 19.814 19.6 10.854.1 19.618-8.3 20.016-19.2z"/></svg>