<svg xmlns="http://www.w3.org/2000/svg" id="图层_2" viewBox="0 0 3000 3000"><path fill="#C7C8BC" d="M1395.073 954.174c-2.291-5.256-7.67-7.04-11.854-10.112-2.989-2.182-6.277-3.771-6.277-8.132 7.671-5.751 16.339-10.018 24.905-14.18 29.09-14.183 58.876-26.772 88.764-39.169 9.164-3.769 18.33-7.636 27.197-11.897 8.666-4.165 17.732-4.66 27.095-4.068 1.1.102 2.191 1.289 3.289 1.886-3.588-.298-6.477.297-7.672 4.263-.797 2.776-2.091 5.554-2.688 8.331-1.193 5.453-4.084 9.221-9.563 10.906-2.293 4.165-6.677 5.256-10.66 6.645-40.545 13.783-79.398 31.136-115.962 53.448-2.09 1.285-4.082 2.476-6.574 2.079zm133.195 173.033c11.355-5.352 23.212-9.814 33.771-16.459 23.513-14.576 47.12-29.154 69.236-45.813 8.368-6.345 17.733-11.403 24.604-19.73-2.59-1.688-5.478-1.886-8.468-2.48-8.366-1.786-17.135-1.189-25.403-3.669-.498 0-.896 0-1.395.099a8.495 8.495 0 0 0-2.489 1.291c-9.765 6.446-17.037 15.47-25.505 23.303-8.666 8.03-15.741 17.746-26.398 23.697-16.14 9.422-31.082 21.221-50.109 25.188 1.592 2.875 6.076.496 7.271 3.669 0 4.856-5.081 7.239-4.98 11.899 3.39-.004 6.776.392 9.865-.995zm259.092-32.27c3.48.895 6.464-.892 9.649-1.688 14.122-3.479 24.067-16.892 22.777-31.196-1.792-20.865 2.882-40.438 11.239-59.514 5.571-12.814 12.135-25.831 10.146-40.633-7.063 1.19-12.733 3.975-13.528 12.118-2.188 4.471-4.277 8.941-6.666 13.313-11.04 19.872-15.22 41.331-15.22 63.783 0 6.16 1.095 13.017-2.089 18.479-4.775 8.248-9.351 16.792-16.514 23.448.106.698.206 1.297.206 1.89zm-9.75-214.402c-7.16-.398-13.527 2.086-19.794 5.066-15.817 7.552-29.146 18.978-43.871 28.216-12.133 7.551-17.604 18.877-19.593 32.389 11.636-9.636 23.771-18.678 36.605-26.724 12.533-7.85 24.769-16.295 38.894-21.162 1.792-3.379 3.68-6.758 5.271-10.234 1.396-3.08 3.086-5.662 6.865-5.764-1.095-1.289-2.685-1.687-4.377-1.787z"/><path fill="#86877F" d="M1548.193 868.4c9.265 3.967 17.631 9.322 25.304 15.568 24.506 19.633 50.907 37.085 73.618 59 3.984 3.868 6.478 7.635 7.273 13.387 3.387 24.89 5.081 49.877 5.179 75.064 0 4.759.799 10.015-3.686 13.783-11.654.298-23.312.197-34.069-5.354-3.188-3.966-2.59-8.725-2.59-13.288-.197-15.468.3-30.838-1.793-46.307-1.992-14.873-7.371-27.666-18.032-38.477-12.95-13.188-27.496-24.59-41.443-36.688-8.766-7.633-19.426-9.023-29.686-12.395 2.988-7.438 7.968-13.883 10.658-21.616 1.397-3.568 5.281-4.858 9.267-2.677zm288.106 72.541c-7.359-16.194-19-29.408-30.937-42.225-6.565-7.054-13.927-13.213-23.276-16.492-8.354 1.093-11.24 4.769-12.136 15.996 5.473 1.291 11.241 1.688 15.718 5.564 11.342 9.735 22.28 20.068 29.146 33.479 5.969 11.524 13.627 22.752 12.933 36.76 2.089-3.478 3.779-7.352 8.553-7.947 2.588-.299 3.284-2.88 4.975-4.171.296-7.45-1.994-14.306-4.976-20.964z"/><path fill="#E7E6E2" d="M1518.505 1128.002c-7.472-2.578-15.441-3.173-23.112-4.858-16.637-3.669-31.78-10.908-47.421-17.056-14.146-5.553-27.396-12.892-40.346-20.923-3.487-2.18-5.679-4.857-7.371-8.726-4.981-10.712-10.362-21.318-16.339-31.434-6.176-10.512-9.563-22.41-15.939-32.821-2.49-4.068.698-9.619 1.396-14.28 2.79-18.146 5.678-36.292 5.479-54.736 0-2.576-.598-5.353 2.092-7.238 6.078 6.644 16.438 8.726 19.728 18.345.497 4.166-.997 8.032-1.694 11.998-4.981 20.429-5.08 40.161 4.384 59.795 6.177 13.088 10.858 26.873 15.341 40.756 1.993 6.147 6.177 9.717 11.654 12.691 28.294 14.873 57.98 25.782 89.66 31.038 12.053 4.162 12.55 7.534 2.488 17.449z"/><path fill="#2A2A2A" d="M1787.36 1094.937c-7.759 4.572-15.717 3.479-23.576.298-17.207-6.756-31.83-17.387-44.265-30.899-2.287-2.383-4.976-4.47-7.065-6.954-8.055-9.637-20.09-15.996-21.981-30.601-1.593-12.717-4.873-25.037-2.982-38.251 1.392-9.339.796-19.076 2.885-28.515.895-4.073.796-8.544 3.779-12.021 10.545-1.488 20.892-3.578 30.836-7.352 13.529-5.067 25.17-3.278 35.214 7.451 4.379 4.769 10.743 7.949 12.234 15.102 51.727 17.97 13.63 42.425 15.32 46.797.894 14.106-1.593 28.116-.995 42.225.598 13.114-.397 26.328 1.989 39.346-.003 1.488-.499 2.483-1.393 3.374zm-203.527-115.104c-5.666-32.667-39.427-11.776-37.733-18.419-4.086.197-7.571-.893-11.059-3.371-6.875-5.157-14.246-9.521-21.021-14.775-4.88-3.77-10.16-4.659-15.839-3.273-27.795 6.743-55.888 12.692-83.483 20.229-7.271 1.983-14.146 5.552-22.017 5.157-3.387 8.726-3.288 18.045-3.985 27.168-.697 8.429.797 16.262 4.084 24.097 7.173 17.055 13.749 34.31 19.327 51.958 1.594 5.157 4.483 8.229 9.065 10.908 15.241 8.924 31.777 14.774 47.918 21.518 15.241 6.345 31.082 9.022 47.121 11.204 5.779-.694 11.655.596 17.334-2.776 11.655-6.843 23.512-13.387 34.47-21.221-2.789-.297-4.084-1.387-2.789-4.562 3.686-8.33 7.173-16.856 10.659-25.285 1.894-4.463 4.584-8.924 3.787-13.983-1.695-10.61 9.827-31.907 4.161-64.574z"/><path d="M1771.941 963.794c-6.466-8.445-15.021-14.704-22.978-21.561-4.278-3.674-9.451-2.382-14.127-1.188-10.244 2.582-20.291 5.361-30.535 8.145-3.482.896-7.063 2.386-10.048-1.092 0-.597 0-1.291.1-1.889 1.989-2.98 3.68-6.261 6.664-8.545 19.001-14.901 39.292-27.916 60.878-38.746 2.688-1.291 5.47-2.483 8.456-2.582 9.051.396 16.214 4.569 22.777 10.729 15.917 14.705 27.454 32.09 34.915 52.359 1.891 5.167 2.589 10.233 1.49 15.599-.795 3.177-2.188 6.259-3.878 9.04-13.13 22.653-17.308 47.292-17.209 73.024.102 16.095-7.856 27.818-21.087 36.165-2.685-5.766-3.582-11.823-3.479-18.082.099-15.102.099-30.203.099-45.306 0-7.254 2.885-14.107 1.989-21.461-.1-3.478 2.188-6.06 3.682-8.841 6.364-12.223 2.487-24.145-9.751-30.303-2.886-1.59-6.368-2.087-7.958-5.465zm-149.93 75.359c-.101-19.833.599-39.466-1.893-59.199-1.99-15.368-7.272-28.359-18.131-39.363-13.648-13.884-28.491-26.378-43.834-38.478-8.966-7.041-18.528-11.205-30.085-10.113-19.524 7.04-39.451 13.088-58.277 22.112-11.059 5.255-21.617 11.302-33.176 15.569-15.34 5.75-27.33 13.957-40.379 23.474-1.96 3.155-3 6.993-3.553 12.321 4.284 3.669 8.767 1.388 13.15.098 28.49-8.328 57.68-14.08 86.471-21.418 9.862-2.478 17.734-.595 25.803 5.455 8.268 6.148 16.039 13.981 27.495 14.577 2.292.1 4.683.1 6.974-.101 11.356-.596 20.025 4.066 25.504 13.783 5.58 9.917 4.185 19.634-2.391 28.657-1.596 2.181-3.088 4.263-3.387 7.04 0 5.553.996 11.105 2.291 16.461 2.889 11.899 2.389 23.105-3.885 34.11-3.188 5.651-5.479 11.899-7.172 18.246-.897 3.37-1.796 7.634 4.48 6.047 4.881-1.687 7.969-5.652 11.357-9.122 13.148-13.386 26.798-26.078 40.944-38.276.4-.787.898-1.481 1.694-1.88z"/><path id="cl1" fill="#FF81C0" d="M1735.476 1020.295c-2.52-1.134-5.063-1.961-7.375-3.387-13.003-8.281-15.41-26.096-5.25-39.063 1.208-1.549 2.58-2.879 3.867-4.318 4.261-2.534 8.521-5.066 12.861-7.491 10.742-5.813 13.163-7.881 21.528-18.729 3.949 12.173 13.017 17.966 21.579 24.438 4.245 3.131 8.082 6.846 10.823 11.813 9.113 16.203-.61 38.065-17.678 39.753-6.717.682-12.271-1.835-16.354-8.041-1.198-1.851-1.713-4.367-4.204-5.809-4.938 7.524-11.481 11.52-19.797 10.834zm-253.358-29.361c-7.582 15.709-2.55 34.368 11.442 43.362 7.739 4.941 15.611 5.045 23.576 2.142 5.362-3.977 8.768-9.749 11.762-16.65 2.359 2.817 4.121 5.277 6.208 7.38 5.139 5.366 11.305 7.93 17.801 6.49 10.846-2.507 18.316-10.172 21.371-22.54 2.989-12.147-.17-23.005-8.142-32.094-4.984-5.601-11.101-9.242-17.382-12.005-11.135-5.06-21.958-10.583-29.379-24.132-3.492 11.78-9.419 19.361-16.581 25.808-5.853 5.215-11.679 10.644-17.503 16.068-1.028 2.053-2.145 4.117-3.173 6.171zm47.706 35.31s.13 15.63-7.491 25.529l22.602-6.883c0 .002-10.42.633-15.111-18.646zm224.559-10.421s-2.604 9.278-9.378 15.06l19.277 2.655s-9.377-8.336-9.899-17.715z"/></svg>