<svg xmlns="http://www.w3.org/2000/svg" id="图层_2" viewBox="0 0 3000 3000"><path fill="#C7C8BC" d="M1397.3 957.7c-.699-5.1-4.5-7.8-8.3-10.6-3.4-2.5-7.802-3.8-10-7.9.198-.3.398-.6.6-.8 27.102-13.8 53-29.8 81.4-41 8-3.1 15.8-6.8 23.698-10.1 4.602-1.9 9.102-4.104 14.199-4.2-1.101 8.2-2.899 16.2-6 23.9-20.601 8.3-40.601 17.896-60.899 27-12 5.396-24.5 10.8-32 22.8-.698.9-1.598 1.1-2.698.9zm102.398 132.3c30.898-10.8 60.5-25 90.699-37.5 2.199-.896 4.601-1.196 4.699-4.3-3.102-5-7.102-9.1-12-12.3-4.898-1.9-8.802 1.1-13 2.6-19.302 10.7-41.102 15.304-61.102 24.4-13.198 6-27 10.7-40 17.3 4.898 4.2 5 11.604 10.102 15.604 7.904 1.796 13.804-3.404 20.602-5.804zm297.388-194.8c-12.29-3.8-23.18.7-34.072 5.8-3.598 1.7-7.294 3.104-10.989 4.604-16.287 6.7-31.973 14.396-47.061 23.5-5.995 3.7-10.091 8.396-9.991 15.896 21.582-8.696 43.264-17 64.545-26.3 10.792-4.7 21.181-9.2 33.271-8.1 4.496-4.2 7.395-9 4.297-15.4zm16.587 150.3c4.495-2 6.693-3.396 7.794-8.396 3.996-18.8 9.592-37.102 19.183-54 2.1-3.7 2.798-8.102 4.196-12.102-5.896-4-10.99-2.302-15.688 2.198-9.492 17.7-19.084 35.4-20.583 56-.198 2.7-1.499 4.302-3.896 5.104-3.696 1.198-7.294 3.1-11.39 3.1-1.998 1.2-4.598.101-6.495 1.601-.698.103-1.301.103-1.998.199-3.598 3-7.991 1.801-12.091 2.301 13.192 7.095 26.28 10.495 40.968 3.995z"/><path fill="#E7E6E2" d="M1479.1 1095.9c-20.8-2.9-39.698-12.4-59.898-17.5-5.802-1.5-8.5-4.9-10.602-10.4-8.8-23.6-16.6-47.696-32.3-68-4.302-5.5-3.802-12.1-3-18.196 1.698-13.104 4.198-26.104 4.198-39.4 0-.8 1-2.396 1.5-3.2 9.103 3.804 18.102 8.604 20.5 19.7.2 2.603.5 5.4-.601 7.8-4.5 10-2.101 19.9-.5 29.9-1.601 3.396-2.101 6.6-.301 10.3 7.301 15.2 14.801 30.3 21 45.9 1 2.5 2.698 3.6 5.102 3.8 15.5 6.7 30.802 13.8 45.802 21.7 5.198 4.696 8.198 10.596 9.1 17.596zm209.882-116.7c-1.199-4.1.599-8.1 0-12.2-3.498 2.604-1.999 8.5-6.596 10.4-1.698-.7-1.601-2.2-1.398-3.3 1.198-6.4.699-11.7-6.895-13.7-.999-.3-1.998-1.8-2.396-2.9-.697-2 1.601-6.5-3.099-5.196-2.997.8-1.396 4.6-1.099 7.1.1 1 .999 1.9.898 2.8-.5 7.2 5.994 12.604 4.693 20-.398 2.7-1.498 6.7 1.998 8 4.599 1.803 7.895 8 14.09 4.7 0-3.2-.101-6.397-.101-9.6 1.103-2.002 1.302-4.104-.095-6.104zm-5.398 66.3c.303 1.2 1.302 2.2 2.198 3.2.898.9 1.898 1.9 3.396 1.3 1.499-.6 1.6-1.896 1.698-3.196.101-2 .301-4.2-1.198-5.604-4.396-4.1-6.098-9.896-10.593-14.3 1.503 6.2 2.902 12.5 4.499 18.6z"/><path fill="#F8F7F7" d="M1397.198 997.9c11 19 18.199 39.6 25.802 60-3.2 3.2-5 .7-5.7-1.9-3.199-12.696-11.102-23.396-15.398-35.6-1.898-5.6-5.2-10.8-7.802-16.1-1.6-3.4-1.3-5.8 3.098-6.4z"/><path d="M1694.875 946.9c-.103-.6 0-1.2.101-1.8 2.098-4.3 6.395-5.5 10.291-7.1 21.98-8.9 44.262-17.4 65.942-27.104 6.895-3.1 14.188-2.7 21.382-2.3 5.693.8 9.293 4.7 12.788 8.6 11.49 12.604 18.684 27.803 24.679 43.604 1.499 4.1 1.499 8.396.7 12.7-7.895 18.196-17.484 35.8-20.086 56.1-1.1 8.4-9.99 8.5-16.684 10-2.697.1-5.066.741-9.012 1.066-1.1-.304-.882-1.666-1.479-2.666-2.197-6.2-1.498-12.4-.499-18.7 2.099-12.604 2.695-25.604-1.398-37.4-5.396-15.2-16.686-26.896-31.072-34.5-5.598-2.896-12.391.3-18.587 1-9.492 1.104-18.881 3.8-28.372 4.7-3.797.3-9.406-2.725-8.694-6.2zM1584 1034.302c11.898-14.604 20.898-31.7 35.698-44 1.398-1.2 1.802-2.7 1.699-4.4-.399-12.397-2.301-24.8-8.101-35.6-4.7-8.8-15.302-11.104-24.2-14.7-1.198-.5-2.5-1-3.698-1.4-19.898-6.5-39.7-13.1-59.7-19.3-10.698-3.3-21.398-7.2-32.898-7.1-10.5.7-19.898 4.6-29 9.396-10 5.2-20.102 10-30.5 14.2-10.898 4.3-20.3 11-30.102 17.2-3.6 2.3-4.698 5.3-4.5 9.2-1.8 3.8.102 4.896 3.5 4.6 3-.3 5.602-1.896 8.4-3.1 24-10.2 48.698-18 74.198-23.4 12-2.5 23.102-.896 33.302 6.3 11.1 7.9 22.698 15.303 34.3 22.4 14.2 8.7 18 20.4 14.898 35.6-2.301 11.5-.5 23.303-1.698 34.9-.4 3.8.698 6.898 5.698 5.2 3.802-1.4 7.699-2.9 11.5-4.304.504-.594.804-1.192 1.204-1.692z"/><path fill="#86877F" d="M1498.9 883.9c9.198-.5 17.8 2.6 26.198 5.2 28 8.6 56.302 16 84 25.8 7.302 2.6 14.2 5.5 19.9 10.9 5.1 4.8 10 9.896 15.698 14 8.102 5.7 11.398 13.3 11.898 22.8.5 9.3 2.5 18.5 2.5 27.8 0 3.6-.898 6-3.5 8.7-14.602 15.1-31.302 28-46.198 42.7-4.275 2.824-9.588 6.574-15.698 9.257-6-2.9-8.802-8.358-10.9-15.058 7.698-14.5 16.898-29 28.3-40.699 6.302-6.4 7.602-13.104 6.802-21.7-2-19.7-12.5-31-31.2-36.4-30.3-8.6-59.398-21.6-90.6-27.5-1.302-.3-2.5-.896-3.5-1.896-.7-8.502 1.3-16.604 6.3-23.904zm343.647 67.5c-8.192-22.4-19.598-37.088-36.981-53.088-2.269-.958-4.149-2.375-8.479-3.112-2.138 4.925-3.07 8.204-3.873 13.504 8.595 2.604 12.467 11.996 16.962 18.696 9.293 13.9 20.191 27.883 20.69 45.483 5.296-.5 8.584-2.483 13.979-1.983 1.3-6.7.001-13.098-2.298-19.5z"/><path fill="#2A2A2A" d="M1694.875 946.9c.896 5.5 5.192 4.5 8.492 3.9 8.094-1.5 16.285-2.8 24.278-4.5 6.194-1.3 12.489-.7 18.584-2.9 2.799-1 5.696.2 8.294 2.1 6.994 4.7 12.489 10.804 17.984 17 .897 1 1.3 2.5 2.3 3.2 11.688 8.2 11.09 20.8 12.089 32.9 1.102 13.6-2.914 28.466-1.915 42.065-1.427.848-7.709 1.543-12.072.834-19.284-6.699-38.566-13.5-58.05-19.899-4.497-1.5-7.694-3.5-9.392-7.9 1.101-2.5 3.694-2.5 5.692-3.5 11.791-5.697 15.288-21.896 6.994-32-4.895-6-11.688-7.1-18.585-3.3-3.098 1.7-5.194 5.3-9.292 5.2-1.1-.2-1.896-.8-2.396-1.8-.999-3.9 0-7.5 1.196-11.104 2.101-3.1 1.398-6.896 2.397-10.3.904-3.496.405-7.396 3.402-9.996zm-297.312 14.124c-1.316 4.319-1.137 4.638-2.563 9.176-3.302 7.8-3 15.4.698 23 .699 1.5.898 3.104 1.398 4.7 3.302 14.1 10.398 26.8 15.898 40.1 2.802 6.804 3.602 14.804 9.9 19.9 15.3 7.5 30.6 14.9 45.897 22.4 7.603.199 14.199-3 20.802-6.104 18.397-8.6 37.301-15.8 56.5-22.3 8.801-3 17.198-6.8 25.198-11.6-1.5-.5-4-.7-3.5-2.7 2.699-12.4-.198-25.102 2.5-37.7 3.302-15.5-.101-28.6-15.601-37.1-12.2-6.7-23.5-15-34.899-22.9-10.101-7.1-21.101-9.6-33.101-7.397-13.399 2.5-26.5 6.197-39.399 10.397-14.801 4.8-29.801 9.4-43.698 16.7-2.5 1.3-4.302 1.6-4.899-1.9-.475 1.814-.475 1.814-1.131 3.328z"/><path id="cl1" fill="#FEE801" d="M1691.078 979.1c1.898-2.3 3.496-4.8 6.097-6.5 7.69-5.104 17.684-3.8 23.178 3.5 5.996 7.896 5.496 16.896 2.8 25.7-2.6 8.3-9.293 11.696-17.684 11.8-5.396-6.2-10.893-12.4-16.287-18.604-2.697-2.6-2.697-5.696-1.998-9 .597-2.796 1.896-4.996 3.894-6.896zm-211.978 8.5c0-1.7.102-3.3 0-5-1-11.9-9.6-20.604-21-21.5-11-.9-20.5 6.2-23.5 17.396-1.8 6.9-1.698 13.804.5 20.604 3.2 9.7 11.9 16 21.802 15.8 10.198-.2 19.3-7.4 21.601-17.5.699-3.2.699-6.6.899-9.9-.102.1-.204.1-.302.1z"/><path d="M1454.146 1013.631c-26.186-25.406-1.557-51.333-1.557-51.333 32.927 25.407 1.557 51.333 1.557 51.333zM1704 971.327s-17.541 21.366 1.106 42.304c.001 0 22.344-21.365-1.106-42.304z"/></svg>