<svg xmlns="http://www.w3.org/2000/svg" id="图层_2" viewBox="0 0 3000 3000"><path fill="#C7C8BC" d="M1400.967 1014.352c6.48-10.837 14.758-20.324 22.436-30.225 8.377-10.943 19.446-18.656 30.415-26.371 5.384-3.752 11.665-4.582 17.848-5.836 14.559-3.021 29.118-5.941 43.376-10.214 12.862-3.856 24.331-10.423 35.699-17.613 15.06-9.378 28.118-21.469 41.979-32.622 5.586 11.257 10.17 22.826 7.879 36.061-16.553 19.177-37.796 30.122-61.026 37.105-15.259 4.689-30.812 8.65-46.667 10.526-23.831 2.919-42.379 14.8-57.536 33.457-7.875 8.131-12.166 19.282-20.439 27.1-7.483-5.108-14.263-10.737-13.964-21.368zm113.675 114.544c1.098-1.25 2.891-.833 4.091-1.875 22.533-5.42 43.075-15.946 62.221-29.079 21.04-14.385 39.885-31.998 60.627-46.901 5.286-3.752 11.466-7.189 14.659-13.653-.896-1.563-2.394-2.083-4.09-2.397-9.275-1.355-18.548-2.711-27.919-4.064-.498 0-.896.104-1.396.104-.896.313-1.694.729-2.493 1.251-16.154 13.549-31.011 28.56-45.77 43.671-16.254 12.194-33.004 23.347-52.052 30.227 1.598 1.876 4.291 2.919 1.099 6.255-4.487 4.689-9.173 9.587-10.969 16.363a4.456 4.456 0 0 0 1.992.098zm292.789-113.283c-1.106 8.781-3.118 17.46-2.517 26.539.702 10.673-1.106 20.951-8.756 29.531-4.326 4.889-7.943 10.576-11.869 15.862 2.517.2 4.528-1.197 6.539-2.294 16.804-9.379 29.579-21.054 27.771-42.7-1.309-16.265 4.426-31.327 10.665-46.092 5.836-13.771 12.577-27.236 11.067-42.804-1.309 1.397-2.415 3.596-4.022 4.095-5.132 1.692-7.748 5.586-9.962 9.977-8.05 15.361-16.703 30.427-18.916 47.886zm-80.793-160.526c-17.409 14.366-24.045 33.922-26.563 55.372 3.521-8.479 8.553-16.263 12.477-24.442 4.831-10.176 12.574-15.863 23.342-18.058 2.717-5.487 2.615-11.771 4.327-17.561-5.534-1.394-9.758 1.596-13.583 4.689z"/><path fill="#86877F" d="M1598.502 926.803c1.299-5.626-.2-10.837-1.595-16.153-1.696-6.357-3.89-12.507-4.289-19.177 5.982-1.667 11.167 1.146 16.154 3.855 13.562 7.296 26.822 14.798 36.495 28.034 5.085 6.984 7.38 14.698 8.576 22.828 4.29 27.098 4.688 54.509 6.285 81.816.197 3.544 1.394 8.023-3.79 9.275-11.07-1.146-22.536.207-32.509-6.566-2.89-4.689-2.293-9.9-2.191-15.008.299-19.28-.999-38.459-3.19-57.636-1.698-14.381-6.183-25.639-19.946-31.268zm241.83 26.956c-1.109-16.266-9.559-29.134-19.017-41.805-11.874-15.861-26.262-29.133-41.654-41.104-11.57-9.079-24.249-17.66-39.438-20.453-4.934 4.988-5.838 10.974-4.33 17.561 12.879 1.396 22.641 9.078 32.599 16.263 23.846 17.259 43.868 37.412 54.636 65.546 2.412 6.185 3.621 11.869 3.218 18.155 6.439-3.091 11.57-7.282 13.986-14.163z"/><path fill="#E7E6E2" d="M1400.967 1014.352c2.792 8.337 9.174 14.071 13.961 20.953.6.728.896 1.665.997 2.605-.3 4.793-1.197 9.589 1.496 13.964 3.189 12.301 11.068 19.39 22.038 24.601 26.523 12.716 53.348 23.866 82.463 27.828 5.984 2.396 6.186 6.045 2.392 10.941-3.688 4.692-6.878 9.904-11.563 13.759-8.276-.418-15.556-4.484-23.134-7.089-11.567-4.063-23.134-8.546-34.103-13.965-15.854-7.817-31.312-16.362-46.769-25.118-4.087-2.293-6.281-6.983-7.577-11.675-2.096-7.922-3.691-16.154-6.184-23.972-3.989-12.299-1.595-23.034 5.983-32.832z"/><path d="M1766.281 1087.344c.807-1.1 1.408-2.395 2.413-3.193 11.27-9.376 16.903-21.051 18.814-35.814 2.616-20.853 3.724-41.604 2.516-62.354-.502-9.178-5.33-17.561-10.36-25.542-7.646-12.271-17.608-22.447-28.574-31.726-12.979-10.975-27.567-9.576-42.659-5.188-3.322.999-7.146 4.989-10.868.2-.808-4.688 2.112-8.679 2.616-13.169 2.416-12.271 8.252-23.144 15.192-33.221 4.732-6.785 12.276-10.178 20.524-11.274 7.246-.099 13.786 2.593 19.722 6.384 30.083 19.354 56.345 42.001 69.927 76.322 2.617 6.683 4.427 13.068 2.918 20.152-5.937 15.661-16.603 29.531-18.213 46.991-.806 9.18-3.722 18.258-3.018 27.535 1.509 19.556-7.849 33.421-22.941 44.396-6.037.998-12.074.998-18.009-.499zm-143.647-54.125a9.349 9.349 0 0 1 1.796-2.188c.598-21.783.997-43.567-2.297-65.143-1.395-9.172-1.195-18.655-5.085-27.306-4.388-9.59-8.674-12.403-18.446-11.675-19.145 19.071-41.88 31.269-67.506 37.415-16.454 3.961-33.007 7.295-49.561 10.529-20.738 4.063-36.095 16.153-48.361 33.456 5.587 2.502 9.972-1.563 14.759-3.021 31.711-9.9 63.322-20.218 97.222-18.238 9.574.521 18.247 3.126 26.727 7.088 6.681 3.019 11.466 8.229 14.354 15.215 6.282 14.697 6.382 29.602.398 44.297-2.493 6.046-5.186 11.984-8.975 17.404-1.196 1.667-3.392 3.856-.599 6.254 15.262-14.592 29.518-30.33 45.574-44.087z"/><path fill="#2A2A2A" d="M1766.281 1087.344c-12.978-2.894-24.248-9.181-34.009-17.958-8.352-7.583-16.904-15.064-24.551-23.446-15.19-16.56-23.644-35.716-21.127-58.76 1.711-15.863 3.319-31.729 7.646-47.09 1.51-5.388.604-11.274 3.42-16.462.703-.102 1.31-.198 1.913-.398 28.575-12.072 51.111-3.89 70.125 19.154 14.69 17.758 24.953 36.215 23.847 60.458-.807 17.958-1.609 35.815-4.629 53.477-2.414 13.767-9.554 24.642-22.635 31.025zm-176.054-35.469c9.274-31.268.099-64.305-41.98-67.33-40.285-2.918-77.977 9.172-115.072 23.763-7.28 8.023-14.061 16.467-18.146 26.89 0 .729-.099 1.356-.099 2.084-1.099 4.899-1.198 9.695 0 14.591 1.393 3.856 2.89 7.712 4.089 11.675.997 3.125 2.392 5.522 5.282 7.191 30.813 17.927 62.722 32.623 98.421 35.646 3.59-.938 7.38.833 10.769-.938 15.159-8.337 30.216-16.781 43.678-28.037 3.985-8.755 10.266-16.155 13.058-25.535z"/><path id="cl1" fill="#FFF" d="M1486.242 1012.145s57.037 3.492 78.791 13.408c10.294 4.691-17.744 21.019-30.166 26.164-12.422 5.145-68.52-39.477-48.625-39.572zm286.517-16.445s-41.767 3.493-57.693 13.408c-7.537 4.692 12.994 21.021 22.09 26.165 9.094 5.148 50.17-39.477 35.603-39.573z"/></svg>