<svg xmlns="http://www.w3.org/2000/svg" id="eyes" viewBox="0 0 3000 3000"><path fill="#E7E6E2" d="M1398.074 1007.018c4.743 6.746 11.708 12.003 14.434 20.231 4.14 4.859 1.516 11.307 3.937 16.563.808 8.727 6.159 13.985 13.827 17.854 27.252 14.082 54.609 27.77 85.996 30.546a11.585 11.585 0 0 1 6.361 2.577c3.328 4.463-1.213 6.844-2.828 9.918-2.219 4.267-7.066 6.646-8.478 11.507-1.817 2.28-3.937 1.784-6.256.793-18.272-7.337-36.946-13.782-54.61-22.314-14.334-6.94-27.959-15.47-42.395-22.513-4.643-2.282-7.873-6.248-9.286-11.208-3.029-10.414-6.056-20.829-8.274-31.438-2.117-8.632 2.322-15.873 7.572-22.516z"/><path fill="#2A2A2A" d="M1772.903 1077.48c-20.208-6.467-38.721-16.023-54.746-30.152-5.871-5.17-11.844-10.445-18.215-15.021-3.284-2.289-3.98-5.872-6.271-8.559-7.564-14.925-6.073-30.545-3.385-46.066 2.389-13.535 5.674-26.968 10.949-39.801a6.593 6.593 0 0 1 2.289-2.094c1.793-.197 3.384.499 4.18 1.893 10.353 17.31 23.892 31.938 37.527 46.563.396.398.298 1.194.197 1.893 10.239 5.031 12.239 9.531 14.529 15.815 11.148 9.354 18.516 21.394 23.092 34.93 5.185 15.423 1.203 29.055-10.146 40.599zm-346.565-15.023c24.527 13.289 49.56 24.894 77.115 30.944 6.562 1.388 13.424.595 19.883 2.976 18.875-4.761 34.219-16.166 50.369-25.984-3.229-2.975.304-4.662 1.517-6.545 7.165-10.414 12.92-21.322 14.33-34.216 1.516-13.887-2.524-33.918-23.015-41.556-15.845-5.852-31.691-5.951-47.541-4.065-14.535 1.785-28.969 5.354-43 9.423-19.281 5.553-36.035 15.073-48.146 31.934-4.543 6.346-7.569 13.784-13.426 19.239.203 8.332 4.343 13.786 11.914 17.85z"/><path fill="#86877F" d="M1600.15 927.873c.707-7.336-.808-14.38-2.926-21.22-1.211-4.165-1.617-8.333-1.113-12.596 1.315 0 2.524 0 3.838.097 1.209.993 3.029.697 4.341 1.49 16.856 7.637 32.806 16.265 43.707 31.935 3.33 4.762 5.45 9.818 6.258 15.374 4.239 29.753 5.147 59.607 4.14 89.558-12.922 2.875-25.033-.299-37.146-4.363-1.716-3.173-.908-6.347-.605-9.621 2.12-22.414-.202-44.628-2.122-66.942-1.112-11.512-7.671-19.248-18.372-23.712zm222.126 113.586c1.592-7.263 1.791-14.627-.896-21.592-8.162-20.796-20.306-39.004-38.92-51.642-20.504-13.828-39.715-28.656-53.75-49.353-4.381-6.469-10.75-10.744-17.616-14.229-1.89-.996-3.685-1.395-5.574 0-4.679 10.346-7.962 20.793-1.991 31.841.499-.199.994-.299 1.494-.498 4.777-8.357 6.669-8.56 11.941-1.194 3.484 4.877 7.365 9.354 11.55 13.531 11.444 11.245 25.081 19.504 39.019 26.966 23.888 12.737 36.729 33.333 44.093 58.407.997 3.284.997 6.469.698 9.851 3.977 2.388 7.062.599 9.952-2.088z"/><path fill="#C7C8BC" d="M1398.074 1007.018c7.771-10.313 15.948-20.333 24.93-29.653 8.781-9.223 19.076-16.562 29.775-23.408 7.066-4.563 15.243-4.563 23.016-6.248 7.469-1.687 15.142-2.678 22.711-4.064 35.328-6.349 65.306-23.009 91.549-46.614 1.717-1.585 3.333-3.373 6.057-2.876 4.439 10.414 7.268 21.026 6.159 32.434-.908 4.164-4.14 6.643-7.269 9.023-18.27 13.885-38.558 23.703-61.37 28.266-18.064 3.571-36.235 6.547-54.404 9.521-18.169 2.974-31.897 12.892-43.707 26.083-7.974 8.826-14.738 18.546-22.104 27.868-7.368-5.156-13.323-11.407-15.343-20.332zm121.831 106.915c24.325-6.843 47.34-16.664 67.934-31.045 15.846-11.008 31.187-22.611 47.541-33.025 8.074-5.158 16.049-10.514 22.912-17.255-2.019.196-3.937-.198-5.853-.598-10.095-1.687-20.088-4.464-30.483-3.368-5.654-.104-9.188 3.964-12.721 7.138-11.507 10.116-23.415 19.736-34.014 30.847l-2.122 1.786c-.707.494-1.513 1.091-2.22 1.585-15.746 9.028-31.693 17.553-47.643 26.283-4.238 5.754-8.379 11.406-13.525 16.363-2.221 2.182-1.008 3.173 1.519 3.472 2.821-.694 5.749-1.294 8.675-2.183zm177.947-202.522c-16.818 31.345-17.318 64.678-11.346 98.505.896 5.074 2.486 10.351 7.166 13.732-3.883-17.71-3.187-35.323.794-52.834 2.59-11.541 6.075-22.886 9.062-34.327-1.294-10.747 2.094-21.191 1.99-31.841-4.878-.199-5.973 3.683-7.666 6.765zm82.916 168.156c7.164 4.278 13.04 1.591 18.611-3.383 10.651-9.552 17.815-21.492 22.895-34.724-3.284.696-6.57 1.391-9.952 2.089-7.468 14.724-18.416 26.367-31.554 36.018z"/><path d="M1744.935 985.738c-10.353-6.866-16.923-17.413-25.083-26.47-6.17-6.863-12.743-14.225-16.324-22.783 2.002-4.639 2.84-5.792 5.374-7.961 3.099-2.646 6.073-.297 7.862 2.289 15.13 23.085 39.417 34.528 61.613 48.657 19.808 12.733 28.966 32.731 35.831 54.125.997 3.184 1.099 6.468.103 9.755-5.476 12.832-13.937 23.383-24.883 32.138-2.689 2.188-5.576 3.186-8.661 3.979-2.786-.103-5.374-.601-7.766-2.091.101-2.786 1.295-5.274 2.889-7.162 5.476-6.469 5.476-14.53 6.865-22.191.397-2.187.397-4.873-.599-6.766-5.373-10.844-8.461-22.984-18.215-31.241-2.486-2.19-4.779-4.581-5.377-8.063-3.775-5.967-8.055-11.639-13.629-16.215zm-123.888-35.447c-.405-4.859-2.022-9.618-4.646-13.884-3.635-6.148-8.479-10.116-16.351-8.43-9.388 8.625-20.089 15.173-31.493 21.022-21.803 11.21-45.824 14.282-69.545 18.449-11.809 2.083-24.328 2.28-35.225 7.537-23.418 11.208-39.67 29.753-51.377 52.267 0 5.853-1.918 12.001 1.816 17.457 5.551.693 6.359-4.066 8.275-7.242 13.729-22.813 33.615-37.193 60.058-43.04 11.81-2.581 23.521-5.951 35.431-7.438 15.342-1.982 30.786-2.677 45.728 3.171 17.864 7.044 25.233 20.433 22.812 39.375-1.516 11.505-6.056 21.424-12.416 31.043-1.816 2.778-1.92 4.791-2.274 8.737l3.386-2.688c.705-.598 7.989-4.649 8.697-5.245 15.341-13.388 21.785-20.045 37.833-32.541 5.041-26.385 1.609-52.47-.709-78.55z"/><path id="cl1" fill="#FFD800" d="M1738.29 1036.019a3.948 3.948 0 0 1-1.707-.82l-6.995-5.78-8.729 2.484a3.934 3.934 0 0 1-1.893.066 3.924 3.924 0 0 1-2.119-1.214 3.958 3.958 0 0 1-.747-4.108l3.337-8.438-5.063-7.534a3.954 3.954 0 0 1 3.529-6.15l9.058.565 5.599-7.141a3.957 3.957 0 0 1 3.923-1.43 3.948 3.948 0 0 1 3.018 2.884l2.264 8.789 8.519 3.119a3.953 3.953 0 0 1 .762 7.05l-7.66 4.867-.333 9.068a3.952 3.952 0 0 1-4.763 3.723zm-188.741 13.373a4.962 4.962 0 0 0 2.932-6.998l-5.197-10.134 5.403-10.027a4.962 4.962 0 0 0-5.159-7.252l-11.24 1.81-7.869-8.236a4.962 4.962 0 1 0-8.492 2.664l-1.752 11.253-10.265 4.937a4.961 4.961 0 0 0-.092 8.898l10.163 5.145 1.521 11.287a4.97 4.97 0 0 0 3.337 4.04 4.92 4.92 0 0 0 3.065.03 4.928 4.928 0 0 0 2.032-1.233l8.034-8.073 11.205 2.039c.81.146 1.62.086 2.374-.15z"/></svg>