<svg xmlns="http://www.w3.org/2000/svg" id="eyes" viewBox="0 0 3000 3000"><path fill="#E7E6E2" d="M1398.073 1007.018c4.743 6.746 11.708 12.003 14.435 20.231 4.14 4.858 1.516 11.307 3.937 16.563.808 8.727 6.159 13.985 13.827 17.854 27.252 14.082 54.609 27.771 85.996 30.547a11.584 11.584 0 0 1 6.361 2.576c3.328 4.464-1.213 6.845-2.828 9.918-2.219 4.268-7.066 6.646-8.479 11.508-1.816 2.279-3.938 1.783-6.256.793-18.271-7.338-36.946-13.782-54.609-22.314-14.334-6.939-27.959-15.47-42.396-22.513-4.644-2.282-7.873-6.248-9.286-11.208-3.029-10.414-6.057-20.829-8.273-31.438-2.117-8.633 2.321-15.874 7.571-22.517z"/><path fill="#2A2A2A" d="M1772.903 1077.48c-20.208-6.467-38.721-16.023-54.746-30.152-5.871-5.17-11.844-10.444-18.215-15.021-3.284-2.289-3.98-5.872-6.271-8.56-7.563-14.925-6.072-30.545-3.385-46.065 2.39-13.535 5.674-26.968 10.949-39.801a6.596 6.596 0 0 1 2.289-2.095c1.793-.196 3.384.499 4.18 1.894 10.354 17.31 23.893 31.938 37.527 46.563.396.398.298 1.194.197 1.894 10.238 5.031 12.238 9.531 14.529 15.814 11.147 9.354 18.516 21.395 23.092 34.931 5.185 15.422 1.203 29.054-10.146 40.598zm-346.565-15.023c24.526 13.289 49.56 24.895 77.115 30.944 6.562 1.388 13.424.595 19.883 2.976 18.875-4.761 34.219-16.166 50.369-25.983-3.229-2.976.304-4.662 1.517-6.545 7.165-10.414 12.92-21.322 14.33-34.216 1.516-13.888-2.524-33.918-23.015-41.557-15.846-5.852-31.691-5.951-47.541-4.064-14.535 1.785-28.97 5.354-43 9.423-19.281 5.553-36.035 15.073-48.146 31.934-4.543 6.347-7.569 13.784-13.426 19.239.203 8.331 4.343 13.785 11.914 17.849z"/><path fill="#86877F" d="M1600.15 927.873c.707-7.336-.808-14.38-2.926-21.22-1.211-4.165-1.617-8.333-1.113-12.596 1.315 0 2.524 0 3.838.097 1.209.993 3.029.697 4.341 1.49 16.856 7.637 32.807 16.265 43.707 31.935 3.33 4.763 5.45 9.818 6.258 15.374 4.24 29.753 5.147 59.607 4.141 89.559-12.922 2.875-25.033-.299-37.146-4.363-1.715-3.173-.907-6.347-.604-9.621 2.12-22.414-.202-44.628-2.122-66.941-1.114-11.514-7.673-19.249-18.374-23.714zm222.126 113.586c1.592-7.263 1.791-14.627-.896-21.592-8.161-20.796-20.306-39.004-38.92-51.642-20.504-13.828-39.715-28.656-53.75-49.354-4.381-6.469-10.75-10.743-17.615-14.229-1.891-.996-3.686-1.396-5.574 0-4.679 10.346-7.962 20.793-1.991 31.841.499-.199.994-.299 1.494-.498 4.777-8.356 6.669-8.56 11.941-1.193 3.483 4.877 7.364 9.354 11.55 13.53 11.443 11.245 25.081 19.504 39.02 26.966 23.888 12.737 36.729 33.333 44.093 58.407.997 3.284.997 6.47.698 9.852 3.975 2.388 7.06.599 9.95-2.088z"/><path fill="#C7C8BC" d="M1398.073 1007.018c7.771-10.313 15.948-20.333 24.931-29.653 8.781-9.223 19.076-16.562 29.774-23.408 7.066-4.563 15.243-4.563 23.017-6.248 7.469-1.687 15.142-2.678 22.711-4.063 35.328-6.349 65.306-23.009 91.549-46.614 1.717-1.585 3.333-3.373 6.057-2.876 4.439 10.414 7.268 21.026 6.159 32.435-.907 4.164-4.14 6.643-7.269 9.022-18.271 13.885-38.559 23.703-61.37 28.267-18.064 3.57-36.235 6.547-54.404 9.521s-31.897 12.892-43.707 26.083c-7.974 8.826-14.738 18.546-22.104 27.868-7.368-5.158-13.323-11.409-15.344-20.334zm121.832 106.915c24.325-6.843 47.34-16.664 67.934-31.045 15.847-11.008 31.188-22.611 47.541-33.025 8.074-5.158 16.05-10.514 22.912-17.255-2.019.196-3.937-.198-5.853-.598-10.095-1.688-20.088-4.464-30.483-3.368-5.654-.104-9.188 3.964-12.721 7.138-11.507 10.116-23.415 19.736-34.014 30.847l-2.122 1.786c-.707.494-1.513 1.091-2.22 1.585-15.746 9.028-31.693 17.553-47.644 26.283-4.237 5.754-8.379 11.406-13.524 16.363-2.221 2.182-1.008 3.173 1.519 3.472 2.821-.693 5.749-1.294 8.675-2.183zm177.947-202.522c-16.818 31.346-17.318 64.679-11.346 98.505.896 5.074 2.486 10.352 7.166 13.732-3.883-17.71-3.188-35.323.794-52.834 2.59-11.541 6.075-22.886 9.062-34.327-1.294-10.747 2.094-21.19 1.99-31.841-4.878-.199-5.973 3.683-7.666 6.765zm82.916 168.156c7.164 4.278 13.04 1.591 18.611-3.383 10.65-9.552 17.814-21.492 22.895-34.724-3.284.695-6.57 1.391-9.952 2.089-7.468 14.724-18.416 26.367-31.554 36.018z"/><path d="M1744.935 985.738c-10.353-6.866-16.923-17.413-25.083-26.47-6.17-6.863-12.743-14.225-16.324-22.783 2.002-4.639 2.84-5.792 5.374-7.961 3.099-2.646 6.073-.297 7.862 2.289 15.13 23.085 39.417 34.528 61.613 48.657 19.808 12.732 28.966 32.73 35.831 54.125.997 3.184 1.099 6.468.103 9.755-5.476 12.832-13.937 23.383-24.883 32.138-2.689 2.188-5.576 3.187-8.661 3.979-2.786-.104-5.374-.602-7.766-2.091.101-2.786 1.295-5.274 2.889-7.162 5.476-6.469 5.476-14.53 6.865-22.191.397-2.187.397-4.873-.599-6.766-5.373-10.844-8.461-22.984-18.215-31.241-2.486-2.19-4.779-4.581-5.377-8.063-3.775-5.967-8.055-11.639-13.629-16.215zm-123.888-35.447c-.405-4.858-2.022-9.617-4.646-13.884-3.635-6.147-8.479-10.116-16.351-8.43-9.388 8.625-20.089 15.173-31.493 21.022-21.803 11.21-45.824 14.281-69.545 18.448-11.809 2.083-24.328 2.28-35.225 7.537-23.418 11.208-39.671 29.753-51.377 52.267 0 5.854-1.918 12.002 1.815 17.457 5.551.693 6.358-4.065 8.274-7.241 13.729-22.813 33.615-37.193 60.059-43.04 11.811-2.581 23.521-5.951 35.432-7.438 15.342-1.981 30.785-2.677 45.728 3.171 17.864 7.045 25.233 20.434 22.812 39.375-1.516 11.506-6.056 21.425-12.416 31.043-1.815 2.778-1.92 4.791-2.273 8.737l3.386-2.688c.705-.599 7.989-4.649 8.697-5.245 15.341-13.388 21.784-20.045 37.833-32.541 5.04-26.385 1.608-52.47-.71-78.55z"/><path id="cl1" fill="#7DA5FF" fill-rule="evenodd" d="M1530.33 1007.924c3.62-8.437 19.666-6.61 23.093.599 4.104 8.608-10.233 21.311-15.175 20.214-3.445-.765-10.808-14.07-7.918-20.813zm7.229 27.767c-.41 9.106 25.828 19.353 26.15-2.637.24-16.713-25.916-2.646-26.15 2.637zm-9.858-9.137c6.907-2.889-14.496-33.458-21.999-13.257-2.817 7.597 10.755 17.333 21.999 13.257zm11.393 17.679c-2.709-2.236-9.387-6.509-11.366-5.189-4.988 3.343-5.183 15.47-3.217 18.595 3.158 5.021 12.893 6.133 16.741 3.156 7.041-5.456 4.514-11.057-2.158-16.562zm-15.26-10.479c-2.918-4.693-20.398-4.016-23.126 2.388-4.038 9.483 10.251 21.686 16.151 16.865 2.248-1.831 7.905-17.765 6.975-19.253zm9.727-2.874c-5.679-7.675-7.736 10.481-.469 4.432 1.657-1.381 1.449-3.101.469-4.432zm217.366-18.663c4.545.974 17.841-10.793 14.118-18.674-3.107-6.599-17.878-8.168-21.271-.393-2.708 6.215 3.985 18.388 7.153 19.067zm-.682 6.394c-.44 8.368 23.662 17.603 24.108-2.601.337-15.356-23.857-2.253-24.108 2.601zm-9.019-8.327c6.383-2.701-13.127-30.64-20.177-12.03-2.647 7 9.79 15.852 20.177 12.03zm10.375 16.164c-2.48-2.036-8.604-5.916-10.436-4.69-4.618 3.105-4.88 14.247-3.091 17.105 2.876 4.592 11.836 5.547 15.401 2.786 6.525-5.06 4.235-10.188-1.874-15.201zm-13.986-9.523c-2.656-4.292-18.766-3.551-21.322 2.351-3.784 8.74 9.297 19.854 14.766 15.384 2.081-1.697 7.401-16.374 6.556-17.735zm8.979-2.707c-5.179-7.012-7.198 9.682-.462 4.075 1.536-1.279 1.357-2.858.462-4.075z" clip-rule="evenodd"/></svg>