<svg xmlns="http://www.w3.org/2000/svg" id="eyes" viewBox="0 0 3000 3000"><path fill="#C7C8BC" d="M1397.3 957.7c-.699-5.1-4.5-7.8-8.3-10.6-3.4-2.5-7.801-3.8-10-7.9.199-.3.399-.6.6-.8 27.102-13.8 53-29.8 81.4-41 8-3.1 15.8-6.8 23.699-10.1 4.601-1.9 9.101-4.103 14.199-4.2-1.101 8.2-2.899 16.2-6 23.9-20.601 8.3-40.601 17.897-60.899 27-12 5.397-24.5 10.8-32 22.8-.699.9-1.599 1.1-2.699.9zm102.399 132.3c30.898-10.8 60.5-25 90.699-37.5 2.199-.897 4.601-1.197 4.699-4.3-3.101-5-7.101-9.1-12-12.3-4.898-1.9-8.801 1.1-13 2.6-19.301 10.7-41.101 15.303-61.101 24.4-13.199 6-27 10.7-40 17.3 4.898 4.2 5 11.603 10.101 15.603 7.903 1.797 13.803-3.403 20.602-5.803zm297.387-194.8c-12.29-3.8-23.179.7-34.072 5.8-3.597 1.7-7.294 3.103-10.989 4.603-16.287 6.7-31.973 14.397-47.061 23.5-5.995 3.7-10.091 8.397-9.991 15.897 21.582-8.697 43.264-17 64.545-26.3 10.792-4.7 21.181-9.2 33.272-8.1 4.496-4.2 7.394-9 4.296-15.4zm16.587 150.3c4.496-2 6.694-3.397 7.794-8.397 3.996-18.8 9.592-37.102 19.183-54 2.1-3.7 2.798-8.102 4.196-12.102-5.895-4-10.99-2.301-15.687 2.199-9.492 17.7-19.084 35.4-20.583 56-.199 2.7-1.499 4.301-3.896 5.103-3.696 1.198-7.294 3.1-11.389 3.1-1.998 1.2-4.598.101-6.495 1.601-.699.102-1.301.102-1.998.199-3.598 3-7.992 1.801-12.091 2.301 13.19 7.096 26.278 10.496 40.966 3.996z"/><path fill="#E7E6E2" d="M1479.1 1095.9c-20.8-2.9-39.698-12.4-59.898-17.5-5.802-1.5-8.5-4.9-10.602-10.4-8.8-23.6-16.6-47.697-32.3-68-4.301-5.5-3.801-12.1-3-18.197 1.699-13.103 4.199-26.103 4.199-39.4 0-.8 1-2.397 1.5-3.2 9.102 3.803 18.101 8.603 20.5 19.7.2 2.602.5 5.4-.601 7.8-4.5 10-2.101 19.9-.5 29.9-1.601 3.397-2.101 6.6-.301 10.3 7.301 15.2 14.801 30.3 21 45.9 1 2.5 2.699 3.6 5.102 3.8 15.5 6.7 30.801 13.8 45.801 21.7 5.199 4.697 8.199 10.597 9.1 17.597zm209.882-116.7c-1.199-4.1.599-8.1 0-12.2-3.498 2.603-1.999 8.5-6.596 10.4-1.698-.7-1.6-2.2-1.398-3.3 1.198-6.4.699-11.7-6.895-13.7-.999-.3-1.998-1.8-2.396-2.9-.698-2 1.6-6.5-3.099-5.197-2.997.8-1.396 4.6-1.099 7.1.1 1 .999 1.9.899 2.8-.5 7.2 5.994 12.603 4.693 20-.398 2.7-1.498 6.7 1.998 8 4.599 1.802 7.895 8 14.09 4.7 0-3.2-.101-6.398-.101-9.6 1.102-2.001 1.301-4.103-.096-6.103zm-5.397 66.3c.302 1.2 1.301 2.2 2.198 3.2.898.9 1.898 1.9 3.396 1.3 1.499-.6 1.6-1.897 1.698-3.197.101-2 .301-4.2-1.198-5.603-4.396-4.1-6.097-9.897-10.593-14.3 1.502 6.2 2.901 12.5 4.499 18.6z"/><path fill="#F8F7F7" d="M1397.199 997.9c11 19 18.199 39.6 25.801 60-3.2 3.2-5 .7-5.7-1.9-3.199-12.697-11.101-23.397-15.398-35.6-1.899-5.6-5.2-10.8-7.802-16.1-1.6-3.4-1.3-5.8 3.099-6.4z"/><path d="M1694.875 946.9c-.102-.6 0-1.2.101-1.8 2.098-4.3 6.395-5.5 10.291-7.1 21.981-8.9 44.262-17.4 65.942-27.103 6.895-3.1 14.188-2.7 21.382-2.3 5.694.8 9.293 4.7 12.789 8.6 11.49 12.603 18.683 27.803 24.678 43.603 1.499 4.1 1.499 8.397.7 12.7-7.894 18.197-17.484 35.8-20.085 56.1-1.1 8.4-9.991 8.5-16.684 10-2.697.1-5.067.741-9.012 1.066-1.1-.303-.882-1.666-1.479-2.666-2.198-6.2-1.498-12.4-.499-18.7 2.098-12.603 2.695-25.603-1.399-37.4-5.395-15.2-16.685-26.897-31.072-34.5-5.598-2.897-12.391.3-18.587 1-9.492 1.103-18.881 3.8-28.372 4.7-3.797.3-9.405-2.725-8.694-6.2zM1584 1034.302c11.899-14.603 20.899-31.7 35.699-44 1.398-1.2 1.801-2.7 1.699-4.4-.399-12.398-2.301-24.8-8.101-35.6-4.7-8.8-15.301-11.103-24.2-14.7-1.198-.5-2.5-1-3.698-1.4-19.899-6.5-39.7-13.1-59.7-19.3-10.699-3.3-21.399-7.2-32.899-7.1-10.5.7-19.898 4.6-29 9.397-10 5.2-20.101 10-30.5 14.2-10.898 4.3-20.3 11-30.101 17.2-3.6 2.3-4.699 5.3-4.5 9.2-1.8 3.8.101 4.897 3.5 4.6 3-.3 5.601-1.897 8.4-3.1 24-10.2 48.698-18 74.198-23.4 12-2.5 23.102-.897 33.302 6.3 11.1 7.9 22.698 15.303 34.3 22.4 14.2 8.7 18 20.4 14.898 35.6-2.3 11.5-.5 23.302-1.698 34.9-.4 3.8.698 6.899 5.698 5.2 3.802-1.4 7.7-2.9 11.5-4.303.503-.596.803-1.194 1.203-1.694z"/><path fill="#86877F" d="M1498.9 883.9c9.198-.5 17.8 2.6 26.198 5.2 28 8.6 56.302 16 84 25.8 7.302 2.6 14.2 5.5 19.9 10.9 5.1 4.8 10 9.897 15.699 14 8.101 5.7 11.398 13.3 11.898 22.8.5 9.3 2.5 18.5 2.5 27.8 0 3.6-.898 6-3.5 8.7-14.601 15.1-31.301 28-46.198 42.7-4.275 2.824-9.588 6.574-15.698 9.257-6-2.9-8.802-8.358-10.901-15.058 7.699-14.5 16.899-29 28.3-40.699 6.302-6.4 7.602-13.103 6.802-21.7-2-19.7-12.5-31-31.2-36.4-30.3-8.6-59.399-21.6-90.6-27.5-1.302-.3-2.5-.897-3.5-1.897-.7-8.501 1.3-16.603 6.3-23.903zm343.647 67.5c-8.192-22.4-19.597-37.088-36.981-53.088-2.269-.958-4.15-2.375-8.479-3.112-2.137 4.925-3.07 8.204-3.873 13.504 8.595 2.603 12.467 11.996 16.962 18.696 9.293 13.9 20.192 27.883 20.691 45.483 5.296-.5 8.584-2.483 13.979-1.983 1.299-6.7 0-13.098-2.299-19.5z"/><path fill="#2A2A2A" d="M1694.875 946.9c.897 5.5 5.193 4.5 8.493 3.9 8.093-1.5 16.285-2.8 24.278-4.5 6.194-1.3 12.489-.7 18.584-2.9 2.799-1 5.696.2 8.294 2.1 6.994 4.7 12.489 10.803 17.984 17 .898 1 1.3 2.5 2.3 3.2 11.688 8.2 11.09 20.8 12.089 32.9 1.102 13.6-2.914 28.466-1.915 42.065-1.427.848-7.709 1.543-12.072.834-19.284-6.699-38.567-13.5-58.05-19.899-4.497-1.5-7.694-3.5-9.392-7.9 1.101-2.5 3.695-2.5 5.693-3.5 11.791-5.698 15.288-21.897 6.994-32-4.895-6-11.688-7.1-18.585-3.3-3.098 1.7-5.194 5.3-9.292 5.2-1.1-.2-1.896-.8-2.396-1.8-.999-3.9 0-7.5 1.197-11.103 2.1-3.1 1.398-6.897 2.397-10.3.901-3.497.402-7.397 3.399-9.997zm-297.312 14.124c-1.316 4.319-1.137 4.638-2.563 9.176-3.301 7.8-3 15.4.699 23 .699 1.5.898 3.103 1.398 4.7 3.302 14.1 10.399 26.8 15.899 40.1 2.801 6.803 3.601 14.803 9.9 19.9 15.3 7.5 30.6 14.9 45.897 22.4 7.603.199 14.2-3 20.802-6.103 18.398-8.6 37.301-15.8 56.5-22.3 8.801-3 17.198-6.8 25.198-11.6-1.5-.5-4-.7-3.5-2.7 2.7-12.4-.198-25.101 2.5-37.7 3.302-15.5-.1-28.6-15.6-37.1-12.2-6.7-23.5-15-34.9-22.9-10.1-7.1-21.1-9.6-33.1-7.398-13.4 2.5-26.5 6.198-39.4 10.398-14.8 4.8-29.8 9.4-43.698 16.7-2.5 1.3-4.302 1.6-4.899-1.9-.477 1.812-.477 1.812-1.133 3.327z"/><path id="cl1" fill="#FEE801" d="M1691.079 979.1c1.898-2.3 3.496-4.8 6.096-6.5 7.691-5.103 17.684-3.8 23.178 3.5 5.996 7.897 5.496 16.897 2.8 25.7-2.6 8.3-9.293 11.697-17.684 11.8-5.396-6.2-10.892-12.4-16.287-18.603-2.697-2.6-2.697-5.697-1.998-9 .598-2.797 1.897-4.997 3.895-6.897zm-211.979 8.5c0-1.7.102-3.3 0-5-1-11.9-9.6-20.603-21-21.5-11-.9-20.5 6.2-23.5 17.397-1.8 6.9-1.698 13.803.5 20.603 3.2 9.7 11.9 16 21.802 15.8 10.198-.2 19.3-7.4 21.601-17.5.699-3.2.699-6.6.899-9.9-.102.1-.203.1-.302.1z"/></svg>