<svg xmlns="http://www.w3.org/2000/svg" id="eye" viewBox="0 0 3000 3000"><path fill="#C7C8BC" d="M1395.073 954.174c-2.291-5.256-7.67-7.04-11.854-10.112-2.989-2.182-6.277-3.771-6.277-8.132 7.671-5.751 16.339-10.018 24.905-14.18 29.09-14.183 58.876-26.772 88.764-39.169 9.164-3.769 18.33-7.636 27.197-11.897 8.666-4.165 17.732-4.66 27.095-4.068 1.099.102 2.191 1.289 3.289 1.887-3.588-.299-6.478.295-7.672 4.262-.797 2.776-2.091 5.554-2.688 8.331-1.193 5.452-4.084 9.221-9.563 10.907-2.293 4.164-6.677 5.255-10.66 6.644-40.545 13.783-79.398 31.136-115.962 53.448-2.09 1.285-4.082 2.476-6.574 2.079zm133.195 173.033c11.355-5.352 23.212-9.814 33.771-16.459 23.512-14.576 47.119-29.154 69.235-45.813 8.368-6.345 17.733-11.403 24.604-19.73-2.59-1.688-5.478-1.886-8.468-2.48-8.366-1.786-17.135-1.189-25.403-3.669-.498 0-.896 0-1.395.099a8.495 8.495 0 0 0-2.489 1.291c-9.765 6.446-17.036 15.47-25.505 23.303-8.666 8.03-15.74 17.746-26.398 23.697-16.14 9.422-31.082 21.221-50.109 25.188 1.592 2.875 6.076.496 7.271 3.669 0 4.856-5.082 7.239-4.981 11.899 3.392-.004 6.778.392 9.867-.995zm259.092-32.27c3.48.895 6.464-.892 9.649-1.688 14.122-3.479 24.067-16.892 22.778-31.196-1.793-20.865 2.881-40.438 11.238-59.514 5.571-12.814 12.135-25.831 10.146-40.633-7.063 1.19-12.733 3.975-13.528 12.118-2.188 4.471-4.276 8.941-6.666 13.313-11.04 19.872-15.22 41.331-15.22 63.783 0 6.16 1.095 13.017-2.09 18.479-4.774 8.248-9.35 16.792-16.513 23.448.106.698.206 1.297.206 1.89zm-9.75-214.402c-7.16-.398-13.527 2.086-19.794 5.066-15.817 7.552-29.147 18.978-43.871 28.216-12.133 7.551-17.604 18.877-19.593 32.389 11.636-9.636 23.771-18.678 36.605-26.724 12.533-7.85 24.769-16.295 38.894-21.162 1.792-3.379 3.681-6.758 5.271-10.234 1.396-3.08 3.086-5.662 6.865-5.764-1.095-1.289-2.685-1.687-4.377-1.787z"/><path fill="#86877F" d="M1548.193 868.4c9.265 3.967 17.631 9.322 25.304 15.568 24.506 19.633 50.907 37.085 73.618 59 3.984 3.868 6.478 7.635 7.273 13.387 3.387 24.89 5.081 49.877 5.179 75.064 0 4.759.799 10.015-3.686 13.783-11.654.298-23.312.197-34.069-5.354-3.187-3.966-2.59-8.725-2.59-13.288-.197-15.468.3-30.838-1.793-46.307-1.992-14.873-7.371-27.666-18.032-38.477-12.95-13.188-27.496-24.59-41.443-36.688-8.766-7.633-19.426-9.023-29.686-12.395 2.988-7.438 7.968-13.883 10.658-21.616 1.397-3.568 5.281-4.858 9.267-2.677zm288.106 72.541c-7.359-16.194-19-29.408-30.937-42.225-6.565-7.053-13.927-13.213-23.276-16.492-8.354 1.093-11.24 4.769-12.136 15.996 5.472 1.291 11.241 1.688 15.718 5.564 11.342 9.735 22.28 20.068 29.146 33.479 5.969 11.524 13.627 22.752 12.934 36.76 2.088-3.478 3.778-7.352 8.551-7.947 2.589-.299 3.285-2.88 4.976-4.171.296-7.45-1.994-14.306-4.976-20.964z"/><path fill="#E7E6E2" d="M1518.504 1128.002c-7.471-2.578-15.44-3.173-23.111-4.858-16.637-3.669-31.78-10.908-47.421-17.056-14.146-5.553-27.396-12.892-40.347-20.923-3.486-2.18-5.678-4.857-7.37-8.726-4.981-10.712-10.362-21.318-16.339-31.434-6.176-10.512-9.563-22.41-15.939-32.821-2.49-4.068.698-9.619 1.395-14.28 2.791-18.146 5.679-36.292 5.479-54.736 0-2.576-.598-5.353 2.093-7.238 6.077 6.644 16.438 8.726 19.727 18.345.497 4.166-.997 8.032-1.694 11.998-4.981 20.429-5.079 40.161 4.384 59.795 6.177 13.088 10.858 26.873 15.34 40.756 1.994 6.147 6.178 9.717 11.656 12.691 28.293 14.873 57.979 25.782 89.659 31.038 12.054 4.162 12.551 7.534 2.488 17.449z"/><path fill="#2A2A2A" d="M1787.36 1094.937c-7.759 4.572-15.717 3.479-23.576.298-17.207-6.756-31.83-17.387-44.265-30.899-2.287-2.383-4.976-4.47-7.065-6.954-8.055-9.637-20.09-15.996-21.981-30.601-1.593-12.717-4.873-25.037-2.982-38.251 1.392-9.339.796-19.076 2.886-28.515.894-4.073.795-8.544 3.778-12.021 10.545-1.488 20.892-3.578 30.836-7.352 13.529-5.067 25.171-3.278 35.214 7.451 4.379 4.769 10.743 7.949 12.234 15.102 12.563 12.68 18.938 25.18 15.32 46.797.894 14.106-1.592 28.116-.995 42.225.598 13.114-.397 26.328 1.989 39.346-.003 1.488-.499 2.483-1.393 3.374zM1546.1 961.414c-4.086.197-7.571-.893-11.059-3.371-6.875-5.157-14.246-9.521-21.021-14.775-4.88-3.77-10.16-4.659-15.839-3.273-27.795 6.743-55.888 12.692-83.483 20.229-7.271 1.983-14.146 5.552-22.017 5.157-3.388 8.726-3.288 18.045-3.985 27.168-.697 8.429.797 16.262 4.084 24.097 7.174 17.055 13.749 34.31 19.327 51.958 1.595 5.157 4.483 8.229 9.065 10.908 15.242 8.924 31.777 14.774 47.918 21.518 15.242 6.345 31.082 9.022 47.121 11.204 5.779-.694 11.655.596 17.334-2.776 11.655-6.843 23.512-13.387 34.47-21.221-2.789-.297-4.084-1.387-2.789-4.562 3.687-8.33 7.173-16.856 10.659-25.285 1.894-4.463 4.584-8.924 3.787-13.983-1.695-10.608-3.787-21.121-5.779-31.63-.643-15.447-7.393-36.777-27.793-51.363z"/><path d="M1770.834 964.917c-6.466-8.445-13.914-15.827-21.871-22.684-4.278-3.674-9.451-2.382-14.127-1.188-10.244 2.582-20.291 5.361-30.535 8.145-3.482.896-7.063 2.386-10.049-1.092 0-.597 0-1.291.101-1.889 1.989-2.98 3.681-6.261 6.664-8.545 19.001-14.901 39.292-27.916 60.878-38.746 2.688-1.291 5.47-2.483 8.456-2.582 9.051.396 16.214 4.569 22.776 10.729 15.918 14.705 27.455 32.09 34.916 52.359 1.891 5.167 2.589 10.233 1.49 15.599-.795 3.177-2.188 6.259-3.878 9.04-13.13 22.653-17.308 47.292-17.209 73.024.101 16.095-7.856 27.818-21.087 36.165-2.686-5.766-3.582-11.823-3.48-18.082.1-15.102.1-30.203.1-45.306 0-7.254 2.885-14.107 1.989-21.461-.099-3.478.384-7.991-.301-11.073-1.833-8.247-4.166-13.997-8.666-22.914-1.484-2.941-4.577-6.121-6.167-9.499zm-148.823 74.236c-.101-19.833.599-39.466-1.892-59.199-1.992-15.368-7.273-28.359-18.132-39.363-13.649-13.884-28.491-26.378-43.834-38.478-8.966-7.041-18.528-11.205-30.085-10.113-19.525 7.04-39.451 13.088-58.277 22.112-11.059 5.255-21.617 11.302-33.176 15.569-15.34 5.75-27.33 13.957-40.379 23.474-1.96 3.155-3 6.993-3.553 12.321 4.284 3.669 8.768 1.388 13.15.098 28.49-8.328 57.68-14.08 86.471-21.418 9.861-2.478 17.734-.595 25.803 5.455 8.268 6.148 16.393 10.514 26.455 17.264 4.522 3.937 8.009 7.894 9.063 9.938 1.209 2.346 1.209 2.346 6.688 12.063 5.58 9.917 4.625 7.875 7.25 14.75 1.438 3.125 3.188 6.438 4.74 9.943 0 5.553.996 11.105 2.291 16.461 2.889 11.899 2.389 23.105-3.885 34.11-3.188 5.651-5.479 11.899-7.172 18.246-.897 3.37-1.795 7.634 4.48 6.047 4.881-1.687 7.969-5.652 11.357-9.122 13.148-13.386 26.798-26.078 40.944-38.276.399-.789.897-1.483 1.693-1.882z"/><path id="cl2" fill="#E50012" d="M1528.748 1046.392c4.18 31.641-14.596 38.249-30.395 38.249s-31.599-12.599-26.828-38.249c4.954-26.634 18.49-42.752 28.621-49.062 12.518 10.496 25.076 22.192 28.602 49.062zm232.706-57.892c-8.81 5.798-20.581 20.61-24.889 45.087-4.148 23.571 9.591 35.15 23.329 35.15s30.065-6.072 26.431-35.15c-3.066-24.693-13.986-35.442-24.871-45.087z"/><path id="cl1" fill="#F9BE00" d="M1515.906 1060.284c2.385 18.149-8.379 21.925-17.45 21.925-9.051 0-18.103-7.223-15.371-21.925 2.834-15.276 10.601-24.521 16.41-28.122 7.175 6.022 14.372 12.722 16.411 28.122zm244.981-39.774c-5.052 3.31-11.806 11.805-14.271 25.843-2.375 13.511 5.496 20.149 13.367 20.149 7.888 0 17.248-3.47 15.174-20.149-1.772-14.152-8.03-20.309-14.27-25.843z"/></svg>