<svg xmlns="http://www.w3.org/2000/svg" id="eyes" viewBox="0 0 3000 3000"><path fill="#E7E6E2" d="M1399.9 965.802c-2.899 4.898-3.101 10.698-5.2 15.8-.899 2.3-.3 4.5.5 6.7 1.301 3.698 2.301 7.6 3.4 11.3-1.2 3.7-.602 7.2 1.199 10.6 8.199 16.301 16.4 32.602 22.699 49.7.801 2.3 1.4-1 2.4-.6 16.899 7.1 33.801 14.398 49.699 23.8 2.801 4.6 10.501 10.8 9.601 16.7-8.075-1.552-18.8-3.9-25.5-6.4-13.101-4.8-26.399-8.8-39.801-12.899-4.399-1.301-6.199-3.899-7.699-8-6.5-16.699-11.801-33.899-20.601-49.601-3.301-5.8-6.5-11.6-10-17.3-1.5-2.3-2.899-4.5-2.301-7.3 2.9-12.7 4-25.5 3.9-38.5-.101-6.5 1.301-7.5 7.5-8 2-.2 4 0 6 0 60 0 119.899.1 179.899.2 3.601 0 7.399-1 10.601 1.5-2.199 2.398-5 1.198-7.5 1.3-60.199 2.6-120.5 2.1-180.9 2.2.604 3.098 8.104 4.3 2.104 8.8zm283.7 15.698c-2.399-3.1-1.199-5.8-.301-8.6.801-2.5.201-4.8-2.199-5.9-3.1-1.398-6.6-1.8-9.6.102-2.601 1.6-1 4.3.1 6.2 2.601 4.3 2.301 8.898 2.301 13.6 0 3-.4 6.3 3.199 7.601 4.301 1.5 7.4 7.699 13.199 3.399-.6-10 .101-19.899 1.4-29.8-3.399 3.7-2.699 9.998-8.099 13.398zm9.5 65.5c-2.801-4.898-6.399-9.3-9.6-13.898-.601.3-1.2.6-1.801.898 3.301 6.7 1.699 15.2 9.199 21.4 1.301-3.5 3.502-6.098 2.202-8.4zm-16.401-5.1c-.4 3.1-1.601 6.2 2.5 9.5 1-4.5-1-6.9-2.5-9.5z"/><path d="M1610.199 954.302c1.801 0 3.699 0 5.5.1 6.6 3.101 6 9.9 7.6 15.3 3.801 12.9 3.701 24.602-8.399 34.7-9.3 7.8-15.101 19.2-22.601 28.9-2.199 2.898-4.5 5.8-7.5 7.898-4.1 2.2-8 5-13.1 4.102-2.5-1-3.9-3.102-3.4-5.5 1.9-9-3.899-13.2-10.1-17.5-9.199-6.5-18.101-13.602-26.5-21-6.301-5.5-12.4-6.102-20.101-4.102-29.899 8-59.5 16.7-88.699 27-3.399 1.2-8.476 3.074-12.274 2.675-8.9-7.101-9.025-18.475-14.625-27.573-5.301-12.7-6.2-24.802 4.5-35.602 13.1-4.5 26.899-3.6 40.3-4.398 19.801-1.2 39.601-2.5 59.5-3 2.399-.102 4.601 0 6.7 1.3 3.5 2.3 42.3-1.801 47.3-3.301 18.6-1.801 37.3 2.399 55.899.001zm84 47.398l.1.2c12.201 2.5 23.601-2.3 35.301-3.7 29-3.6 20.699-6.398 41.301 13.7 7.399 7.2 14.699 14.5 15 25.9.1 3.699 2.5 6 6.301 6.5 17-1.7 19.5-3.7 22.699-20.301 2.1-10.5 6-20.199 10.801-29.601 3.299-6.399 7.399-12.6 8.6-19.899-1-13-3.899-18.399-12.1-18.801-12.5-.6-25.101-.6-37.5 2.102-2.5 1.898-34.9-.601-39.201-1.5-17.3-.7-34.5-.2-51.399 3.898-.8 2.602-1.5 5.301-2.3 7.9-.7 4.2-2.601 8.1-3.601 12.2-1.399 6.1-2.899 12.3 2.199 17.6.5 0 .899.101 1.301.3 1.498.702 1.099 2.702 2.498 3.502z"/><path fill="#C7C8BC" d="M1480 1098c-3.101-4.198-5.101-8.8-6-13.898.899-3.4 3.899-4.2 6.6-5.4 27.101-12.398 55.4-21.6 82.801-33.3 2.899-1.2 5.801-.6 8.699-1.5 3.9-1.4 7.801-2.9 11.699-4.3 4 .199 6.301 2.898 8.601 5.6 2.601 3.102 5.601 5.2 9.899 5-30.6 14.4-61.399 28.2-93.199 39.7-8.399 3-16.199 7.7-24.899 9.899-1.301-.999-3.101-.701-4.201-1.801zm325.199-45.8c4.301-1.8 8.801-2.898 13.399-3.8 3.399-.7 4.899-2 5.5-5.7 2.899-18.5 8.601-36 17-52.7 2.2-4.398 5.2-8.6 4.899-13.898-4.699-3.7-9.3-3.4-14 0-8.399 15.8-18.199 31.2-19.899 49.5-1 10.2-6 14.398-15 15.898-1.601.302-3.3.5-4.899.7-3.601 2.8-8.601 1.3-12.199 4.102 7.6 5.098 15.199 10 25.199 5.898z"/><path fill="#2A2A2A" d="M1694.3 1001.802c9.801-3.102 20.2-3.5 30.2-5.7 7.699-1.7 15.699-2.5 23.5-3.8 3.8-.602 7.199-.302 10.1 2.698 8.199 8.7 17.4 16.4 24.801 26 3.399 4.4 5.899 8.602 5.199 14.4-.399 3.2.199 6.1 4.101 6.7-3.95 3.373-7.7 5.274-12.2 4.1-13.625-4.575-25.699-8.2-38.6-12.398-3.5-1.102-6.801-2.5-10.301-3.7-22.1-7.702-22.1-7.702-36.8-28.3zm-123.8 36c3.3-6.302-.2-9.7-4.7-13.102-12.8-9.898-25.601-19.898-38.199-30.1-3.301-2.7-6.399-2.4-10.2-1.4-16.9 4.7-34.101 8.5-50.8 13.802-18.301 5.8-38.476 11.875-55.976 19.874-.601 12.899 7.375 22.324 13.675 32.625 1.801 1.399 3.399 3.199 5.5 4.199 14.7 6.9 29.5 13.7 44.2 20.5 6.199-2.398 12.5-4.5 18.5-7.199 17.399-8.101 35.769-13.83 53.5-21.101 8.824-3.618 16.375-7.899 26.1-12-2.5-1.7-2.7-4-1.6-6.098z"/><path fill="#86877F" d="M1583.699 1039.7c7.801-10.2 15.699-20.398 23.399-30.7 4-5.3 8-10.5 13.399-14.5 2.301-1.698 3.7-3.6 3.301-6.6-1.699-11.4-2.801-22.9-8-33.5 11.601-.1 23.199 0 34.801-.3 5.1-.102 7 2 7.398 6.898.801 10.9 1.9 21.802 3.102 32.7.3 2.8.1 5.102-2.102 7.2-16.1 16.3-33.799 30.9-50.6 46.4-1.576 1.091-3.4 1.573-6.199 3-9.598 2.504-13.499-5.098-18.499-10.598zM1438.3 962.5c18.801-1.6 37.601-2.1 56.5-2.8 4.2-.2 4.877.226 12.601-.1 18.35-.288 30.1-.101 45.475-1.851 15.101-1.3 29.15-.125 44.25-.625 4.199-.2 15.763 1.741 19.763-.357-.962-2.105-.731-1.708-.731-2.37-3.601.1-37.457-.397-41.057-.397-59.1 0-118.199-.1-177.301-.1-3.399 0-6.699.3-12.1.6 5.699 3.102 9.399 5.302 13.199 7.2 2.2 1.102 1.199 1.2 1 2.7 12.9-2.8 24.851-1.547 38.401-1.9zm409.6 8.1c.3-6.4-3.301-11.602-6.5-16.4-2.801-4.2-8-1.898-12.101-1.8-13.6.2-27.301.8-40.899 1.2-27.601.898-55.301-.102-82.801 1.8-4.399.3-8.601.6-11.399 4.7 18-.4 36-3.102 54.1-1.4 13.076 1.05 21.826.8 35.601.102 11.226-1.314 21.801 0 32.7-.7 11.101-.8 12.5.5 14.699 11 .5 2.3.601 4.6.9 6.898h14c1.6-1.4 1.6-3.4 1.7-5.4z"/><path fill="#F7F7F7" d="M1410.625 1026.875c2.699 11.602 10.975 21.025 13.574 32.625-.601 1.602-1 5.102-3.301 1.802-2.6-3.802-3.898-8.4-5.699-12.7-5.4-13.3-11.9-26-18.4-38.7-2.1-4-4.491-6.348.109-9.048 5.901 8.099 8.416 17.621 13.717 26.021z"/><path id="cl1" fill="#F9BABF" d="M1499.62 959.578c3.38 0 22.082-.514 24.066-.193-14.547 14.164-5.547 31.967 7.351 38.979 18.22 9.906 36.112-12.785 25.908-23.084-9.655-9.748-30.42 7.224-18.687 11.263-18.084 2.591-7.828-8.978.631-15.782-.843-1.642-1.962-2.837 1.117-4.84 12.938-8.414 14.257 1.234 20.555 4.713 3.497 1.934 9.131-1.07 12.331 3.229 3.725 5-1.148 5.531-3.421 10.094-2.221 4.46-2.368 4.213-2.474 8.917-.071 3.271 4.827 3.166 1.2 7.698-4.898 6.108-7.175 1.384-14.27 3.767-5.003 1.681-5.586 5.207-11.581 6.262-7.188 1.266-5.178-1.859-9.708-2.501-2.506-.354-9.973-.173-11.557-.507-11.801-2.491-5.089-6.298-9.463-13.438-1.647-2.697-7.027-2.089-8.201-5.438-.949-2.713 2.747-5.598 2.887-8.398.262-4.987-5.701-10.561 1.953-15.496-1.326-.915-3.063-1.968-4.988-2.306m272.469-2.698c-2.772-.079-18.098-.935-19.732-.717 11.603 11.974 3.809 26.39-6.931 31.851-15.172 7.715-29.32-11.342-20.714-19.566 8.145-7.783 24.78 6.641 15.063 9.687 14.772 2.548 6.629-7.194-.151-12.979.729-1.33 1.675-2.286-.804-4.002-10.416-7.212-11.721.683-16.967 3.394-2.912 1.508-7.463-1.091-10.188 2.367-3.17 4.021.813 4.57 2.572 8.371 1.719 3.716 1.845 3.517 1.822 7.383-.018 2.689-4.032 2.488-1.162 6.295 3.875 5.132 5.852 1.304 11.614 3.426 4.065 1.498 4.461 4.408 9.354 5.413 5.866 1.207 4.289-1.407 8.02-1.829 2.063-.233 8.183.089 9.489-.148 9.735-1.771 4.319-5.055 8.072-10.819 1.413-2.177 5.812-1.553 6.852-4.277.841-2.207-2.124-4.662-2.173-6.966-.101-4.104 4.92-8.543-1.243-12.775 1.108-.721 2.557-1.546 4.144-1.778"/></svg>