<svg xmlns="http://www.w3.org/2000/svg" id="eyes" viewBox="0 0 3000 3000"><path fill="#C7C8BC" d="M1397.3 957.7c-.699-5.1-4.5-7.8-8.3-10.6-3.4-2.5-7.802-3.8-10-7.9.198-.3.398-.6.6-.8 27.102-13.8 53-29.8 81.4-41 8-3.1 15.8-6.8 23.698-10.1 4.601-1.9 9.101-4.104 14.199-4.2-1.101 8.2-2.899 16.2-6 23.9-20.601 8.3-40.601 17.896-60.899 27-12 5.396-24.5 10.8-32 22.8-.698.9-1.598 1.1-2.698.9zm102.398 132.3c30.898-10.8 60.5-25 90.699-37.5 2.199-.896 4.601-1.196 4.699-4.3-3.101-5-7.101-9.1-12-12.3-4.898-1.9-8.802 1.1-13 2.6-19.302 10.7-41.101 15.304-61.101 24.4-13.199 6-27 10.7-40 17.3 4.897 4.2 5 11.604 10.101 15.604 7.904 1.796 13.804-3.404 20.602-5.804zm297.388-194.8c-12.291-3.8-23.18.7-34.072 5.8-3.598 1.7-7.294 3.104-10.989 4.604-16.287 6.7-31.973 14.396-47.062 23.5-5.994 3.7-10.09 8.396-9.99 15.896 21.582-8.696 43.264-17 64.545-26.3 10.792-4.7 21.182-9.2 33.271-8.1 4.496-4.2 7.395-9 4.297-15.4zm16.586 150.3c4.496-2 6.694-3.396 7.795-8.396 3.996-18.8 9.592-37.102 19.183-54 2.101-3.7 2.798-8.102 4.196-12.102-5.896-4-10.99-2.302-15.688 2.198-9.492 17.7-19.084 35.4-20.583 56-.198 2.7-1.499 4.302-3.896 5.104-3.696 1.198-7.294 3.1-11.389 3.1-1.998 1.2-4.599.101-6.496 1.601-.698.103-1.301.103-1.998.199-3.598 3-7.991 1.801-12.09 2.301 13.191 7.095 26.279 10.495 40.966 3.995z"/><path fill="#E7E6E2" d="M1479.1 1095.9c-20.801-2.9-39.698-12.4-59.898-17.5-5.802-1.5-8.5-4.9-10.602-10.4-8.801-23.6-16.6-47.696-32.301-68-4.301-5.5-3.801-12.1-3-18.196 1.699-13.104 4.199-26.104 4.199-39.4 0-.8 1-2.396 1.5-3.2 9.103 3.804 18.102 8.604 20.5 19.7.2 2.603.5 5.4-.601 7.8-4.5 10-2.101 19.9-.5 29.9-1.601 3.396-2.101 6.6-.301 10.3 7.301 15.2 14.801 30.3 21 45.9 1 2.5 2.698 3.6 5.102 3.8 15.5 6.7 30.802 13.8 45.802 21.7 5.198 4.696 8.198 10.596 9.1 17.596zm209.882-116.7c-1.198-4.1.599-8.1 0-12.2-3.498 2.604-1.999 8.5-6.596 10.4-1.698-.7-1.601-2.2-1.397-3.3 1.197-6.4.698-11.7-6.896-13.7-.999-.3-1.998-1.8-2.396-2.9-.699-2 1.6-6.5-3.1-5.196-2.997.8-1.396 4.6-1.1 7.1.101 1 1 1.9.899 2.8-.5 7.2 5.994 12.604 4.693 20-.397 2.7-1.498 6.7 1.998 8 4.599 1.803 7.896 8 14.09 4.7 0-3.2-.101-6.397-.101-9.6 1.104-2.002 1.303-4.104-.094-6.104zm-5.398 66.3c.303 1.2 1.302 2.2 2.198 3.2.898.9 1.898 1.9 3.396 1.3 1.499-.6 1.6-1.896 1.698-3.196.101-2 .301-4.2-1.198-5.604-4.396-4.1-6.097-9.896-10.593-14.3 1.503 6.2 2.902 12.5 4.499 18.6z"/><path fill="#F8F7F7" d="M1397.198 997.9c11 19 18.199 39.6 25.802 60-3.2 3.2-5 .7-5.7-1.9-3.199-12.696-11.101-23.396-15.398-35.6-1.899-5.6-5.2-10.8-7.802-16.1-1.6-3.4-1.3-5.8 3.098-6.4z"/><path d="M1694.875 946.9c-.103-.6 0-1.2.101-1.8 2.098-4.3 6.396-5.5 10.291-7.1 21.981-8.9 44.262-17.4 65.942-27.104 6.895-3.1 14.188-2.7 21.381-2.3 5.694.8 9.293 4.7 12.789 8.6 11.49 12.604 18.684 27.803 24.679 43.604 1.499 4.1 1.499 8.396.7 12.7-7.895 18.196-17.484 35.8-20.086 56.1-1.1 8.4-9.99 8.5-16.684 10-2.697.1-5.066.741-9.012 1.066-1.1-.304-.882-1.666-1.479-2.666-2.199-6.2-1.498-12.4-.5-18.7 2.099-12.604 2.695-25.604-1.398-37.4-5.396-15.2-16.686-26.896-31.072-34.5-5.598-2.896-12.391.3-18.587 1-9.492 1.104-18.881 3.8-28.372 4.7-3.796.3-9.404-2.725-8.693-6.2zM1584 1034.302c11.898-14.604 20.898-31.7 35.698-44 1.398-1.2 1.802-2.7 1.699-4.4-.399-12.397-2.301-24.8-8.101-35.6-4.7-8.8-15.301-11.104-24.2-14.7-1.198-.5-2.5-1-3.698-1.4-19.898-6.5-39.699-13.1-59.699-19.3-10.699-3.3-21.399-7.2-32.899-7.1-10.5.7-19.898 4.6-29 9.396-10 5.2-20.101 10-30.5 14.2-10.898 4.3-20.3 11-30.101 17.2-3.601 2.3-4.699 5.3-4.5 9.2-1.801 3.8.101 4.896 3.5 4.6 3-.3 5.601-1.896 8.399-3.1 24-10.2 48.698-18 74.198-23.4 12-2.5 23.102-.896 33.302 6.3 11.101 7.9 22.698 15.303 34.3 22.4 14.2 8.7 18 20.4 14.898 35.6-2.301 11.5-.5 23.303-1.698 34.9-.399 3.8.698 6.898 5.698 5.2 3.802-1.4 7.699-2.9 11.5-4.304.504-.594.804-1.192 1.204-1.692z"/><path fill="#86877F" d="M1498.9 883.9c9.198-.5 17.8 2.6 26.198 5.2 28 8.6 56.302 16 84 25.8 7.302 2.6 14.199 5.5 19.9 10.9 5.1 4.8 10 9.896 15.698 14 8.101 5.7 11.398 13.3 11.898 22.8.5 9.3 2.5 18.5 2.5 27.8 0 3.6-.898 6-3.5 8.7-14.601 15.1-31.302 28-46.198 42.7-4.275 2.824-9.588 6.574-15.698 9.257-6-2.9-8.802-8.358-10.901-15.058 7.699-14.5 16.899-29 28.301-40.699 6.302-6.4 7.602-13.104 6.802-21.7-2-19.7-12.5-31-31.2-36.4-30.3-8.6-59.398-21.6-90.6-27.5-1.302-.3-2.5-.896-3.5-1.896-.7-8.502 1.3-16.604 6.3-23.904zm343.647 67.5c-8.192-22.4-19.598-37.088-36.981-53.088-2.269-.958-4.149-2.375-8.479-3.112-2.137 4.925-3.069 8.204-3.873 13.504 8.596 2.604 12.468 11.996 16.963 18.696 9.293 13.9 20.191 27.883 20.691 45.483 5.295-.5 8.584-2.483 13.979-1.983 1.298-6.7-.001-13.098-2.3-19.5z"/><path fill="#2A2A2A" d="M1694.875 946.9c.896 5.5 5.192 4.5 8.492 3.9 8.094-1.5 16.285-2.8 24.278-4.5 6.194-1.3 12.489-.7 18.584-2.9 2.799-1 5.696.2 8.294 2.1 6.994 4.7 12.489 10.804 17.984 17 .897 1 1.3 2.5 2.3 3.2 11.688 8.2 11.09 20.8 12.089 32.9 1.102 13.6-2.914 28.466-1.915 42.065-1.427.848-7.709 1.543-12.072.834-19.284-6.699-38.567-13.5-58.05-19.899-4.497-1.5-7.693-3.5-9.393-7.9-2.592-4.2-12.693-24.621-14.503-28.387-.714-1.626-2.583-6.013-3.083-7.013-.998-3.9 0-7.5 1.197-11.104 2.101-3.1 1.398-6.896 2.397-10.3.903-3.496.403-7.396 3.401-9.996zm-297.312 14.124c-1.316 4.319-1.137 4.638-2.563 9.176-3.302 7.8-3 15.4.698 23 .699 1.5.898 3.104 1.398 4.7 3.302 14.1 10.399 26.8 15.899 40.1 2.801 6.804 3.601 14.804 9.899 19.9 15.3 7.5 30.601 14.9 45.897 22.4 7.603.199 14.199-3 20.802-6.104 18.397-8.6 37.301-15.8 56.5-22.3 8.801-3 17.198-6.8 25.198-11.6-1.5-.5-4-.7-3.5-2.7 2.699-12.4-.198-25.102 2.5-37.7 3.302-15.5-.101-28.6-15.601-37.1-12.2-6.7-23.5-15-34.899-22.9-10.101-7.1-21.101-9.6-33.101-7.397-13.399 2.5-26.5 6.197-39.399 10.397-14.801 4.8-29.801 9.4-43.698 16.7-2.5 1.3-4.302 1.6-4.899-1.9-.475 1.814-.475 1.814-1.131 3.328z"/><path id="cl1" fill="#EA7E65" d="M1554.589 1015c-2.252 1.246-18.649-9.755-25.104-14.174-1.071.646-2.143 1.34-3.269 1.927-1.511 8.168-5.328 27.08-8.157 27.879-2.774.787-20.517-11.53-28.647-17.336-1.922.211-3.872.447-5.74.564-3.845 8.004-13.293 27.057-15.82 26.916-2.828-.141-15.792-21.015-18.292-28.949-6.399-1.493-10.547-2.28-13.815-5.712-1.51-1.893-.906-4.455 1.318-5.736 2.17-1.234 5.109-.752 6.592 1.058l.028-.047c.33.165.906.435 1.703.741 1.593.552 3.955 1.187 6.839 1.774 5.741 1.14 13.651 1.998 22.385 1.998 23.208 0 51.581-6.041 66.247-26.892 1.346-1.939 4.313-2.574 6.592-1.399 2.253 1.175 3.021 3.703 1.648 5.653-.77 1.046-1.676 1.892-2.472 2.879 3.103 6.947 10.436 27.504 7.964 28.856zm226.086-44.22c.725-.893 1.509-1.634 2.223-2.588 1.286-1.785 1.084-4.368-.4-5.77-1.504-1.405-3.77-1.09-5.035.687-13.733 19.084-35.407 22.06-52.428 19.603-6.405-.924-12.085-2.611-16.132-4.347-2.032-.887-3.673-1.765-4.764-2.48-.54-.386-.924-.715-1.143-.913l-.027.044c-.829-1.949-2.915-2.737-4.684-1.745-1.813 1.032-2.623 3.505-1.786 5.538 1.907 3.743 4.837 4.961 9.317 7.116.699 8.117 7.227 30.149 9.279 30.588 1.834.407 11.486-17.45 15.448-24.965 1.388.082 2.851.056 4.291.05 5.135 6.607 16.388 20.676 18.534 20.191 2.189-.492 7.69-18.806 9.966-26.73.909-.462 1.794-1.036 2.673-1.562 4.102 5.056 14.557 17.681 16.387 16.687 2.007-1.079-.435-22.201-1.719-29.404z"/></svg>