<svg xmlns="http://www.w3.org/2000/svg" id="eyes" viewBox="0 0 3000 3000"><path fill="#E7E6E2" d="M1399.9 965.802c-2.899 4.897-3.101 10.697-5.2 15.8-.898 2.3-.3 4.5.5 6.7 1.301 3.697 2.301 7.6 3.4 11.3-1.2 3.7-.602 7.2 1.199 10.6 8.199 16.302 16.4 32.603 22.699 49.7.801 2.3 1.399-1 2.399-.6 16.899 7.1 33.802 14.397 49.699 23.8 2.801 4.6 10.501 10.8 9.601 16.7-8.074-1.553-18.8-3.9-25.5-6.4-13.101-4.8-26.398-8.8-39.801-12.898-4.398-1.302-6.199-3.899-7.699-8-6.5-16.699-11.801-33.899-20.601-49.602-3.302-5.8-6.5-11.6-10-17.3-1.5-2.3-2.899-4.5-2.302-7.3 2.9-12.7 4-25.5 3.9-38.5-.101-6.5 1.301-7.5 7.5-8 2-.2 4 0 6 0 60 0 119.899.1 179.899.199 3.601 0 7.399-1 10.601 1.5-2.199 2.398-5 1.198-7.5 1.301-60.199 2.6-120.5 2.1-180.9 2.199.606 3.099 8.106 4.301 2.106 8.801zm283.7 15.698c-2.399-3.1-1.199-5.8-.301-8.6.801-2.5.201-4.8-2.199-5.9-3.1-1.397-6.6-1.8-9.6.103-2.602 1.6-1 4.3.1 6.2 2.601 4.3 2.301 8.897 2.301 13.6 0 3-.4 6.3 3.199 7.602 4.301 1.5 7.4 7.698 13.199 3.398-.601-10 .101-19.898 1.399-29.8-3.398 3.699-2.698 9.997-8.098 13.397zm9.5 65.5c-2.801-4.897-6.399-9.3-9.6-13.897-.602.3-1.2.6-1.802.897 3.302 6.7 1.699 15.2 9.199 21.4 1.301-3.5 3.503-6.098 2.203-8.4zm-16.402-5.1c-.399 3.1-1.601 6.2 2.5 9.5 1-4.5-1-6.9-2.5-9.5z"/><path d="M1610.198 954.302c1.802 0 3.699 0 5.5.1 6.601 3.102 6 9.9 7.601 15.3 3.801 12.9 3.701 24.603-8.399 34.7-9.3 7.8-15.101 19.2-22.601 28.9-2.199 2.897-4.5 5.8-7.5 7.897-4.101 2.2-8 5-13.101 4.103-2.5-1-3.899-3.103-3.399-5.5 1.899-9-3.899-13.2-10.101-17.5-9.198-6.5-18.101-13.603-26.5-21-6.301-5.5-12.399-6.103-20.101-4.103-29.899 8-59.5 16.7-88.699 27-3.398 1.2-8.476 3.074-12.273 2.675-8.9-7.101-9.025-18.475-14.625-27.572-5.302-12.7-6.2-24.803 4.5-35.603 13.1-4.5 26.898-3.6 40.3-4.397 19.801-1.2 39.601-2.5 59.5-3 2.399-.103 4.601 0 6.7 1.3 3.5 2.3 42.3-1.801 47.3-3.301 18.6-1.801 37.3 2.399 55.898.001zm84 47.398l.101.2c12.201 2.5 23.601-2.3 35.301-3.7 29-3.6 20.699-6.397 41.301 13.7 7.399 7.2 14.699 14.5 15 25.9.1 3.699 2.5 6 6.301 6.5 17-1.7 19.5-3.7 22.699-20.301 2.1-10.5 6-20.199 10.801-29.602 3.299-6.398 7.399-12.6 8.601-19.898-1-13-3.899-18.399-12.101-18.802-12.5-.6-25.101-.6-37.5 2.103-2.5 1.897-34.899-.602-39.201-1.5-17.3-.7-34.5-.2-51.398 3.897-.801 2.603-1.5 5.302-2.301 7.9-.699 4.2-2.601 8.1-3.601 12.2-1.399 6.1-2.899 12.3 2.199 17.6.5 0 .899.102 1.301.3 1.497.703 1.099 2.703 2.497 3.503z"/><path fill="#C7C8BC" d="M1480 1098c-3.102-4.197-5.102-8.8-6-13.897.898-3.4 3.898-4.2 6.6-5.4 27.101-12.397 55.4-21.6 82.801-33.3 2.899-1.2 5.801-.6 8.699-1.5 3.9-1.4 7.801-2.9 11.699-4.3 4 .199 6.301 2.897 8.601 5.6 2.601 3.103 5.601 5.2 9.899 5-30.601 14.4-61.399 28.2-93.199 39.7-8.399 3-16.199 7.7-24.899 9.899-1.301-1-3.101-.702-4.201-1.802zm325.198-45.8c4.302-1.8 8.802-2.897 13.399-3.8 3.398-.7 4.898-2 5.5-5.7 2.898-18.5 8.601-36 17-52.7 2.199-4.397 5.199-8.6 4.898-13.897-4.698-3.7-9.3-3.4-14 0-8.398 15.8-18.198 31.2-19.898 49.5-1 10.2-6 14.397-15 15.897-1.602.303-3.301.5-4.899.7-3.601 2.8-8.601 1.3-12.198 4.103 7.6 5.097 15.198 9.999 25.198 5.897z"/><path fill="#2A2A2A" d="M1694.3 1001.802c9.801-3.103 20.2-3.5 30.2-5.7 7.698-1.7 15.698-2.5 23.5-3.8 3.8-.603 7.198-.303 10.1 2.697 8.199 8.7 17.4 16.4 24.801 26 3.399 4.4 5.899 8.603 5.199 14.4-.399 3.2.199 6.1 4.101 6.7-3.95 3.373-7.7 5.274-12.2 4.1-13.625-4.575-25.698-8.2-38.6-12.397-3.5-1.103-6.801-2.5-10.301-3.7-22.1-7.702-22.1-7.702-36.8-28.3zm-123.8 36c3.3-6.303-.2-9.7-4.7-13.103-12.8-9.897-25.601-19.897-38.199-30.1-3.301-2.7-6.399-2.4-10.2-1.4-16.9 4.7-34.101 8.5-50.8 13.802-18.301 5.801-38.476 11.875-55.976 19.875-.602 12.898 7.375 22.323 13.675 32.625 1.801 1.398 3.399 3.198 5.5 4.198 14.7 6.9 29.5 13.7 44.2 20.5 6.199-2.397 12.5-4.5 18.5-7.198 17.398-8.102 35.769-13.83 53.5-21.102 8.824-3.618 16.375-7.898 26.1-12-2.5-1.699-2.7-3.999-1.6-6.097z"/><path fill="#86877F" d="M1583.698 1039.7c7.802-10.2 15.699-20.397 23.399-30.7 4-5.3 8-10.5 13.398-14.5 2.302-1.697 3.7-3.6 3.302-6.6-1.699-11.4-2.802-22.9-8-33.5 11.601-.1 23.198 0 34.801-.3 5.101-.103 7 2 7.397 6.897.802 10.9 1.9 21.803 3.103 32.7.3 2.8.101 5.103-2.103 7.2-16.1 16.3-33.799 30.9-50.6 46.4-1.576 1.091-3.4 1.572-6.199 3-9.596 2.505-13.498-5.097-18.498-10.597zM1438.3 962.5c18.801-1.6 37.601-2.1 56.5-2.8 4.2-.2 4.877.227 12.601-.1 18.35-.288 30.1-.101 45.475-1.851 15.102-1.301 29.15-.125 44.25-.625 4.199-.2 15.764 1.74 19.764-.357-.963-2.105-.731-1.708-.731-2.37-3.601.1-37.457-.396-41.057-.396-59.101 0-118.199-.101-177.302-.101-3.398 0-6.698.3-12.1.601 5.699 3.102 9.399 5.302 13.199 7.199 2.2 1.103 1.199 1.2 1 2.7 12.9-2.8 24.851-1.547 38.401-1.9zm409.6 8.1c.3-6.4-3.301-11.603-6.5-16.4-2.801-4.2-8-1.897-12.101-1.8-13.6.2-27.301.8-40.899 1.2-27.601.897-55.301-.103-82.801 1.8-4.399.3-8.601.6-11.399 4.7 18-.4 36-3.103 54.1-1.4 13.076 1.05 21.826.8 35.602.103 11.227-1.314 21.801 0 32.7-.7 11.101-.8 12.5.5 14.698 11 .5 2.3.602 4.6.9 6.897h14c1.6-1.4 1.6-3.4 1.7-5.4z"/><path fill="#F7F7F7" d="M1410.625 1026.875c2.698 11.603 10.975 21.025 13.573 32.625-.601 1.603-1 5.103-3.301 1.803-2.601-3.803-3.897-8.4-5.699-12.7-5.399-13.3-11.899-26-18.399-38.7-2.101-4-4.491-6.348.108-9.048 5.902 8.098 8.416 17.62 13.718 26.02z"/><path id="cl1" fill="#009688" d="M1754.679 961.733a1.006 1.006 0 0 0-.775.011l-27.965 12.028a1.01 1.01 0 0 0-.484 1.427c4.021 7.151 10.479 12.521 18.184 15.123 7.714 2.605 16.121 2.25 23.681-1.001a33.155 33.155 0 0 0 16.16-14.902 1.013 1.013 0 0 0-.522-1.417l-28.279-11.269zm-231.413-1.784a1.151 1.151 0 0 0-.887.013l-31.974 13.752a1.159 1.159 0 0 0-.553 1.631c4.598 8.176 11.981 14.316 20.79 17.291 8.82 2.979 18.433 2.572 27.076-1.146a37.91 37.91 0 0 0 18.477-17.039 1.157 1.157 0 0 0-.597-1.62l-32.332-12.882z"/></svg>