<svg xmlns="http://www.w3.org/2000/svg" id="eye" viewBox="0 0 3000 3000"><path fill="#C7C8BC" d="M1395.073 954.175c-2.291-5.256-7.67-7.04-11.854-10.112-2.989-2.182-6.277-3.771-6.277-8.132 7.671-5.751 16.339-10.019 24.905-14.181 29.09-14.183 58.876-26.771 88.764-39.168 9.164-3.77 18.33-7.637 27.197-11.897 8.666-4.165 17.731-4.66 27.095-4.068 1.1.103 2.191 1.289 3.289 1.888-3.588-.299-6.479.295-7.672 4.262-.797 2.775-2.091 5.554-2.688 8.331-1.193 5.452-4.084 9.221-9.563 10.907-2.293 4.164-6.677 5.255-10.66 6.644-40.545 13.783-79.397 31.136-115.962 53.448-2.09 1.284-4.082 2.474-6.574 2.078zm133.195 173.032c11.355-5.352 23.212-9.813 33.771-16.459 23.512-14.575 47.118-29.153 69.234-45.813 8.368-6.345 17.732-11.403 24.604-19.73-2.59-1.688-5.478-1.886-8.468-2.479-8.366-1.786-17.135-1.188-25.403-3.669-.498 0-.896 0-1.395.099-.896.3-1.693.694-2.488 1.291-9.766 6.446-17.037 15.471-25.506 23.304-8.666 8.029-15.74 17.746-26.397 23.696-16.14 9.423-31.082 21.222-50.109 25.188 1.593 2.875 6.076.496 7.271 3.669 0 4.855-5.082 7.239-4.98 11.899 3.391-.005 6.777.391 9.866-.996zm259.092-32.27c3.48.895 6.464-.892 9.649-1.688 14.122-3.479 24.067-16.893 22.778-31.196-1.793-20.865 2.881-40.438 11.237-59.515 5.571-12.813 12.136-25.83 10.146-40.633-7.063 1.19-12.732 3.976-13.527 12.118-2.188 4.471-4.275 8.941-6.666 13.313-11.04 19.871-15.22 41.33-15.22 63.782 0 6.16 1.095 13.018-2.091 18.479-4.773 8.248-9.35 16.792-16.513 23.448.107.7.207 1.299.207 1.892zm-9.75-214.402c-7.16-.397-13.527 2.086-19.794 5.066-15.817 7.552-29.147 18.978-43.871 28.216-12.133 7.551-17.604 18.877-19.593 32.389 11.636-9.636 23.771-18.678 36.605-26.724 12.532-7.85 24.769-16.295 38.894-21.162 1.792-3.379 3.681-6.758 5.271-10.234 1.396-3.08 3.086-5.661 6.865-5.764-1.095-1.289-2.685-1.687-4.377-1.787z"/><path fill="#86877F" d="M1548.193 868.4c9.265 3.967 17.631 9.322 25.304 15.568 24.506 19.633 50.907 37.085 73.618 59 3.984 3.868 6.479 7.635 7.273 13.387 3.387 24.89 5.081 49.877 5.179 75.064 0 4.759.799 10.015-3.686 13.782-11.654.298-23.313.197-34.069-5.354-3.187-3.966-2.59-8.726-2.59-13.288-.197-15.468.3-30.838-1.793-46.307-1.992-14.873-7.371-27.666-18.032-38.478-12.95-13.188-27.496-24.59-41.443-36.688-8.766-7.634-19.426-9.023-29.686-12.396 2.988-7.438 7.968-13.883 10.658-21.616 1.397-3.564 5.281-4.855 9.267-2.674zm288.106 72.541c-7.359-16.194-19-29.408-30.938-42.225-6.564-7.053-13.927-13.213-23.275-16.492-8.354 1.093-11.24 4.769-12.137 15.996 5.473 1.291 11.241 1.688 15.719 5.563 11.342 9.735 22.279 20.068 29.146 33.479 5.969 11.523 13.627 22.752 12.935 36.76 2.088-3.478 3.777-7.352 8.551-7.947 2.589-.299 3.285-2.88 4.976-4.171.295-7.449-1.995-14.305-4.977-20.963z"/><path fill="#E7E6E2" d="M1518.504 1128.002c-7.471-2.577-15.44-3.173-23.111-4.857-16.637-3.669-31.78-10.908-47.421-17.057-14.146-5.553-27.396-12.892-40.347-20.923-3.486-2.18-5.679-4.856-7.371-8.726-4.98-10.712-10.361-21.318-16.338-31.434-6.177-10.513-9.563-22.41-15.939-32.821-2.49-4.068.698-9.619 1.395-14.28 2.791-18.146 5.68-36.292 5.479-54.736 0-2.575-.599-5.353 2.093-7.237 6.077 6.644 16.438 8.726 19.728 18.345.497 4.166-.997 8.032-1.694 11.998-4.98 20.429-5.079 40.161 4.385 59.795 6.176 13.088 10.857 26.873 15.34 40.756 1.994 6.147 6.178 9.717 11.655 12.691 28.293 14.873 57.979 25.782 89.659 31.038 12.053 4.162 12.55 7.534 2.487 17.448z"/><path fill="#2A2A2A" d="M1787.36 1094.937c-7.759 4.572-15.717 3.479-23.576.298-17.207-6.756-31.83-17.387-44.265-30.899-2.287-2.383-4.976-4.47-7.065-6.953-8.055-9.638-20.09-15.996-21.98-30.602-1.594-12.717-4.873-25.037-2.982-38.251 1.393-9.339.797-19.076 2.887-28.515.894-4.073.795-8.544 3.777-12.021 10.545-1.487 20.893-3.578 30.836-7.352 13.529-5.067 25.172-3.278 35.215 7.451 4.379 4.769 10.742 7.949 12.233 15.102 12.563 12.68 18.938 25.18 15.319 46.797.895 14.106-1.592 28.116-.994 42.226.598 13.114-.397 26.328 1.988 39.346-.003 1.488-.499 2.483-1.393 3.373zM1546.1 961.414c-4.086.197-7.571-.893-11.059-3.37-6.875-5.157-14.246-9.521-21.021-14.775-4.88-3.771-10.16-4.659-15.839-3.273-27.795 6.743-55.888 12.692-83.483 20.229-7.271 1.982-14.146 5.552-22.017 5.157-3.388 8.726-3.288 18.045-3.985 27.168-.697 8.429.797 16.262 4.084 24.097 7.174 17.055 13.749 34.31 19.327 51.958 1.595 5.157 4.483 8.229 9.065 10.908 15.242 8.924 31.776 14.773 47.918 21.518 15.242 6.345 31.082 9.022 47.121 11.204 5.778-.694 11.654.596 17.334-2.776 11.654-6.843 23.512-13.387 34.47-21.221-2.789-.297-4.084-1.387-2.789-4.562 3.687-8.33 7.173-16.856 10.659-25.285 1.894-4.463 4.584-8.924 3.787-13.983-1.695-10.608-3.787-21.121-5.779-31.63-.643-15.448-7.393-36.778-27.793-51.364z"/><path d="M1770.834 964.918c-6.467-8.445-13.914-15.827-21.871-22.685-4.278-3.674-9.451-2.382-14.127-1.188-10.244 2.581-20.291 5.36-30.535 8.145-3.482.896-7.063 2.386-10.049-1.092 0-.597 0-1.291.101-1.889 1.989-2.98 3.681-6.262 6.664-8.546 19.001-14.9 39.292-27.916 60.878-38.745 2.688-1.291 5.47-2.483 8.456-2.582 9.051.396 16.214 4.568 22.776 10.729 15.918 14.705 27.455 32.09 34.916 52.359 1.891 5.167 2.589 10.232 1.49 15.599-.796 3.177-2.188 6.259-3.879 9.04-13.13 22.653-17.308 47.292-17.209 73.024.102 16.095-7.855 27.817-21.087 36.165-2.687-5.767-3.582-11.823-3.479-18.082.1-15.103.1-30.203.1-45.307 0-7.254 2.885-14.106 1.989-21.461-.099-3.478.384-7.991-.302-11.072-1.832-8.247-4.166-13.997-8.666-22.914-1.483-2.941-4.576-6.12-6.166-9.498zm-148.823 74.235c-.101-19.833.599-39.466-1.892-59.199-1.992-15.367-7.273-28.358-18.133-39.362-13.648-13.885-28.49-26.378-43.834-38.479-8.966-7.041-18.527-11.205-30.085-10.113-19.524 7.04-39.45 13.089-58.276 22.112-11.06 5.255-21.617 11.302-33.176 15.569-15.341 5.75-27.33 13.957-40.38 23.474-1.96 3.155-3 6.993-3.553 12.321 4.284 3.669 8.769 1.388 13.149.098 28.49-8.328 57.681-14.08 86.472-21.418 9.86-2.478 17.733-.595 25.803 5.455 8.269 6.148 16.394 10.514 26.455 17.264 4.522 3.938 8.009 7.895 9.063 9.938 1.209 2.346 1.209 2.346 6.688 12.063 5.58 9.916 4.625 7.875 7.25 14.75 1.438 3.125 3.188 6.438 4.74 9.942 0 5.553.996 11.105 2.291 16.461 2.889 11.899 2.389 23.105-3.885 34.11-3.188 5.65-5.479 11.898-7.172 18.246-.897 3.37-1.796 7.634 4.479 6.047 4.881-1.688 7.969-5.652 11.356-9.122 13.148-13.386 26.799-26.078 40.944-38.276.402-.788.9-1.482 1.696-1.881z"/><path id="cl1" fill="#009688" d="M1732.232 1004.984c0-15.362 13.004-27.686 28.603-26.566 13.06.937 23.622 11.466 24.597 24.522.695 9.336-3.428 17.742-10.136 23.005a5.627 5.627 0 0 0-2.148 4.427v6.61a5.647 5.647 0 0 1-5.647 5.647h-17.26a5.646 5.646 0 0 1-5.648-5.647v-6.61c0-1.727-.789-3.36-2.146-4.425-6.218-4.876-10.215-12.451-10.215-20.963zm-227.94 27.578a6.089 6.089 0 0 1 2.324 4.792v7.158a6.116 6.116 0 0 0 6.117 6.116h18.692a6.115 6.115 0 0 0 6.115-6.116v-7.158c0-1.872.855-3.639 2.327-4.794 7.265-5.699 11.729-14.803 10.977-24.914-1.056-14.14-12.494-25.543-26.638-26.557-16.893-1.212-30.976 12.134-30.976 28.771.002 9.219 4.331 17.422 11.062 22.702z"/></svg>