<svg xmlns="http://www.w3.org/2000/svg" id="eyes" viewBox="0 0 3000 3000"><path fill="#C7C8BC" d="M1397.3 957.7c-.699-5.1-4.5-7.8-8.3-10.6-3.4-2.5-7.803-3.8-10-7.9.197-.3.397-.6.6-.8 27.102-13.8 53-29.8 81.4-41 8-3.1 15.8-6.8 23.697-10.1 4.602-1.9 9.102-4.104 14.199-4.2-1.102 8.2-2.898 16.2-6 23.9-20.602 8.3-40.602 17.896-60.898 27-12 5.396-24.5 10.8-32 22.8-.698.9-1.598 1.1-2.698.9zm102.398 132.3c30.898-10.8 60.5-25 90.699-37.5 2.199-.896 4.602-1.195 4.699-4.3-3.102-5-7.102-9.1-12-12.3-4.898-1.9-8.803 1.1-13 2.6-19.303 10.7-41.102 15.305-61.102 24.4-13.199 6-27 10.7-40 17.3 4.897 4.2 5 11.604 10.102 15.604 7.904 1.796 13.804-3.404 20.602-5.804zm297.388-194.8c-12.291-3.8-23.181.7-34.072 5.8-3.598 1.7-7.294 3.104-10.989 4.604-16.287 6.7-31.973 14.396-47.062 23.5-5.994 3.7-10.09 8.396-9.99 15.896 21.582-8.695 43.264-17 64.545-26.3 10.792-4.7 21.182-9.2 33.271-8.1 4.496-4.2 7.395-9 4.297-15.4zm16.586 150.3c4.496-2 6.693-3.396 7.795-8.396 3.996-18.8 9.592-37.102 19.183-54 2.101-3.7 2.798-8.102 4.196-12.102-5.896-4-10.99-2.303-15.688 2.197-9.492 17.7-19.084 35.4-20.584 56-.197 2.7-1.498 4.302-3.896 5.104-3.696 1.197-7.294 3.1-11.39 3.1-1.998 1.2-4.599.102-6.496 1.602-.697.103-1.301.103-1.998.198-3.598 3-7.99 1.802-12.09 2.302 13.193 7.095 26.281 10.495 40.968 3.995z"/><path fill="#E7E6E2" d="M1479.1 1095.9c-20.801-2.9-39.698-12.4-59.898-17.5-5.802-1.5-8.5-4.9-10.602-10.4-8.801-23.6-16.6-47.695-32.301-68-4.301-5.5-3.801-12.1-3-18.195 1.699-13.104 4.199-26.104 4.199-39.4 0-.8 1-2.396 1.5-3.2 9.103 3.805 18.102 8.604 20.5 19.7.199 2.604.5 5.4-.602 7.8-4.5 10-2.102 19.9-.5 29.9-1.602 3.396-2.102 6.6-.301 10.3 7.301 15.2 14.801 30.3 21 45.9 1 2.5 2.697 3.6 5.102 3.8 15.5 6.7 30.803 13.8 45.803 21.7 5.198 4.695 8.198 10.595 9.1 17.595zm209.882-116.7c-1.198-4.1.599-8.1 0-12.2-3.498 2.604-1.999 8.5-6.596 10.4-1.698-.7-1.601-2.2-1.397-3.3 1.197-6.4.698-11.7-6.896-13.7-.999-.3-1.998-1.8-2.396-2.9-.699-2 1.6-6.5-3.101-5.195-2.997.8-1.396 4.6-1.101 7.1.102 1 1 1.9.899 2.8-.5 7.2 5.994 12.604 4.693 20-.397 2.7-1.498 6.7 1.998 8 4.599 1.804 7.896 8 14.09 4.7 0-3.2-.101-6.396-.101-9.6 1.106-2.003 1.305-4.105-.092-6.105zm-5.398 66.3c.303 1.2 1.302 2.2 2.197 3.2.898.9 1.898 1.9 3.396 1.3 1.499-.6 1.6-1.896 1.697-3.195.102-2 .302-4.2-1.197-5.604-4.396-4.1-6.098-9.896-10.594-14.3 1.505 6.199 2.904 12.499 4.501 18.599z"/><path fill="#F8F7F7" d="M1397.198 997.9c11 19 18.199 39.6 25.803 60-3.2 3.2-5 .7-5.7-1.9-3.199-12.695-11.101-23.396-15.398-35.6-1.899-5.6-5.2-10.8-7.802-16.1-1.601-3.4-1.301-5.8 3.097-6.4z"/><path d="M1694.875 946.9c-.104-.6 0-1.2.101-1.8 2.098-4.3 6.396-5.5 10.291-7.1 21.981-8.9 44.262-17.4 65.942-27.104 6.895-3.1 14.188-2.7 21.381-2.3 5.693.8 9.293 4.7 12.789 8.6 11.489 12.604 18.684 27.804 24.679 43.604 1.499 4.1 1.499 8.396.7 12.7-7.896 18.195-17.484 35.8-20.086 56.1-1.101 8.4-9.99 8.5-16.685 10-2.697.1-5.065.741-9.012 1.066-1.101-.305-.882-1.666-1.479-2.666-2.199-6.2-1.498-12.4-.5-18.7 2.1-12.604 2.695-25.604-1.397-37.4-5.396-15.2-16.687-26.896-31.072-34.5-5.599-2.896-12.392.3-18.587 1-9.492 1.104-18.881 3.8-28.372 4.7-3.796.3-9.404-2.725-8.693-6.2zM1584 1034.302c11.897-14.604 20.897-31.7 35.697-44 1.398-1.2 1.803-2.7 1.699-4.4-.398-12.396-2.301-24.8-8.102-35.6-4.699-8.8-15.301-11.104-24.199-14.7-1.198-.5-2.5-1-3.698-1.4-19.897-6.5-39.698-13.1-59.698-19.3-10.699-3.3-21.399-7.2-32.899-7.1-10.5.7-19.898 4.6-29 9.396-10 5.2-20.101 10-30.5 14.2-10.898 4.3-20.3 11-30.101 17.2-3.602 2.3-4.699 5.3-4.5 9.2-1.802 3.8.101 4.896 3.5 4.6 3-.3 5.601-1.896 8.398-3.1 24-10.2 48.698-18 74.198-23.4 12-2.5 23.102-.896 33.302 6.3 11.102 7.9 22.698 15.304 34.3 22.4 14.2 8.7 18 20.399 14.898 35.6-2.302 11.5-.5 23.304-1.698 34.9-.398 3.8.698 6.897 5.698 5.2 3.802-1.4 7.698-2.9 11.5-4.305.505-.593.805-1.191 1.205-1.691z"/><path fill="#86877F" d="M1498.9 883.9c9.198-.5 17.8 2.6 26.198 5.2 28 8.6 56.302 16 84 25.8 7.302 2.6 14.199 5.5 19.9 10.9 5.1 4.8 10 9.896 15.697 14 8.102 5.7 11.398 13.3 11.898 22.8.5 9.3 2.5 18.5 2.5 27.8 0 3.6-.898 6-3.5 8.7-14.602 15.1-31.303 28-46.198 42.7-4.274 2.824-9.588 6.574-15.698 9.257-6-2.9-8.802-8.358-10.9-15.058 7.699-14.5 16.898-29 28.301-40.699 6.302-6.4 7.602-13.104 6.802-21.7-2-19.7-12.5-31-31.2-36.4-30.3-8.6-59.397-21.6-90.6-27.5-1.302-.3-2.5-.896-3.5-1.896-.7-8.502 1.3-16.604 6.3-23.904zm343.647 67.5c-8.192-22.4-19.599-37.088-36.981-53.088-2.269-.958-4.149-2.375-8.479-3.112-2.137 4.925-3.068 8.204-3.873 13.504 8.597 2.604 12.469 11.996 16.964 18.696 9.293 13.9 20.19 27.883 20.69 45.483 5.295-.5 8.584-2.483 13.979-1.983 1.298-6.7-.001-13.098-2.3-19.5z"/><path fill="#2A2A2A" d="M1694.875 946.9c.896 5.5 5.191 4.5 8.491 3.9 8.095-1.5 16.285-2.8 24.278-4.5 6.193-1.3 12.488-.7 18.584-2.9 2.799-1 5.695.2 8.294 2.1 6.994 4.7 12.489 10.805 17.983 17 .897 1 1.301 2.5 2.301 3.2 11.688 8.2 11.09 20.8 12.089 32.9 1.103 13.6-2.914 28.466-1.915 42.065-1.428.848-7.709 1.543-12.072.834-19.284-6.699-38.566-13.5-58.05-19.899-4.497-1.5-7.693-3.5-9.394-7.9-2.592-4.2-12.692-24.621-14.502-28.387-.715-1.626-2.584-6.013-3.084-7.013-.998-3.9 0-7.5 1.197-11.104 2.102-3.1 1.398-6.896 2.396-10.3.906-3.496.406-7.396 3.404-9.996zm-297.312 14.124c-1.316 4.319-1.137 4.638-2.563 9.176-3.303 7.8-3 15.4.697 23 .699 1.5.898 3.104 1.398 4.7 3.302 14.1 10.398 26.8 15.898 40.1 2.801 6.805 3.602 14.805 9.899 19.9 15.3 7.5 30.601 14.9 45.897 22.4 7.603.199 14.198-3 20.802-6.104 18.396-8.6 37.301-15.8 56.5-22.3 8.801-3 17.198-6.8 25.198-11.6-1.5-.5-4-.7-3.5-2.7 2.698-12.4-.198-25.103 2.5-37.7 3.302-15.5-.102-28.6-15.602-37.1-12.199-6.7-23.5-15-34.898-22.9-10.102-7.1-21.102-9.6-33.102-7.396-13.398 2.5-26.5 6.196-39.398 10.396-14.802 4.8-29.802 9.4-43.698 16.7-2.5 1.3-4.302 1.6-4.899-1.9-.473 1.814-.473 1.814-1.129 3.328z"/><path id="cl1" fill="#B5B5CA" d="M1523.343 988.789c-1.98-16.091-19.148-25.867-33.994-19.344-10.646 5.066-15.987 20.121-7.604 29.73 4.729 5.363 13.472 7.73 19.723 2.576 3.591-3.884 5.912-10.429 1.794-13.366-2.151-2.235-5.849-4.284-7.241-.357-1.353 1.73 1.689 3.547.104 5.933-1.354 1.733-4.857 1.225-6.357-.781-3.418-4.899-1.327-10.791 3.338-13.557 6.211-2.957 12.756-.631 16.83 4.499 5.111 8.447 2.514 17.846-5.514 23.84-4.899 3.42-10.833 3.525-16.303 2.323-10.703-3.064-17.313-13.517-16.213-24.92 2.492-15.33 17.188-25.593 32.289-22.442 13.558 3.337 24.092 15.184 24.26 29.248-.445 11.635-5.281 23.185-15.901 29.134-.871 1.159-1.564 2.1-2.198 2.947-5.412 7.75-15.515 11.267-24.854 7.951a21.456 21.456 0 0 1-12.24-11.037 21.498 21.498 0 0 1-1.714-5.231c9.352 4.315 18.473 9.767 29.306 6.241 13.264-4.137 22.259-14.95 22.909-28.044a27.546 27.546 0 0 0-.42-5.343zm258.171-9.548c-.588 11.845-8.725 21.625-20.723 25.367-9.798 3.189-18.048-1.742-26.508-5.646.313 1.64.836 3.235 1.551 4.732a19.403 19.403 0 0 0 11.072 9.982c8.448 3 17.586-.181 22.481-7.191.572-.767 1.2-1.618 1.987-2.666 9.606-5.381 13.98-15.829 14.384-26.353-.151-12.721-9.681-23.436-21.943-26.455-13.659-2.85-26.952 6.434-29.206 20.3-.996 10.315 4.983 19.77 14.665 22.541 4.947 1.087 10.314.993 14.745-2.101 7.262-5.422 9.611-13.923 4.987-21.564-3.685-4.64-9.604-6.744-15.223-4.069-4.22 2.501-6.111 7.831-3.02 12.263 1.357 1.814 4.525 2.274 5.751.707 1.434-2.158-1.317-3.801-.096-5.367 1.261-3.552 4.605-1.698 6.551.324 3.726 2.657 1.626 8.577-1.622 12.09-5.654 4.663-13.563 2.521-17.841-2.33-7.582-8.691-2.749-22.309 6.879-26.892 13.429-5.901 28.957 2.942 30.749 17.497.287 1.6.412 3.217.38 4.831z"/></svg>