<svg xmlns="http://www.w3.org/2000/svg" id="图层_1" viewBox="0 0 3000 3000"><path fill="#C7C8BC" d="M1400.967 1014.352c6.479-10.837 14.758-20.324 22.436-30.225 8.377-10.943 19.446-18.656 30.415-26.371 5.384-3.752 11.665-4.582 17.847-5.836 14.561-3.021 29.119-5.941 43.377-10.214 12.863-3.856 24.33-10.424 35.699-17.613 15.061-9.378 28.118-21.469 41.979-32.622 5.586 11.257 10.17 22.826 7.879 36.061-16.553 19.178-37.796 30.122-61.026 37.105-15.259 4.688-30.812 8.649-46.666 10.525-23.832 2.919-42.38 14.801-57.537 33.457-7.875 8.132-12.166 19.282-20.438 27.101-7.484-5.108-14.264-10.737-13.965-21.368zm113.675 114.544c1.098-1.25 2.891-.833 4.091-1.875 22.533-5.42 43.075-15.946 62.221-29.079 21.04-14.385 39.885-31.998 60.627-46.901 5.286-3.752 11.467-7.188 14.659-13.652-.896-1.563-2.394-2.083-4.09-2.397-9.274-1.354-18.548-2.711-27.919-4.063-.498 0-.896.104-1.396.104-.896.313-1.693.729-2.494 1.251-16.152 13.55-31.01 28.561-45.769 43.671-16.254 12.194-33.004 23.348-52.052 30.228 1.598 1.876 4.291 2.919 1.099 6.255-4.487 4.689-9.173 9.587-10.969 16.363a4.496 4.496 0 0 0 1.992.095zm292.789-113.283c-1.106 8.781-3.118 17.46-2.517 26.539.703 10.673-1.106 20.951-8.756 29.531-4.326 4.889-7.943 10.576-11.869 15.862 2.517.199 4.527-1.197 6.539-2.294 16.803-9.379 29.579-21.055 27.771-42.7-1.31-16.265 4.426-31.327 10.665-46.092 5.836-13.771 12.577-27.236 11.066-42.805-1.309 1.397-2.416 3.597-4.021 4.096-5.132 1.691-7.748 5.586-9.962 9.977-8.05 15.362-16.703 30.427-18.916 47.886zm-80.793-160.527c-17.409 14.367-24.046 33.924-26.563 55.373 3.521-8.479 8.553-16.263 12.478-24.441 4.829-10.176 12.573-15.863 23.342-18.059 2.717-5.486 2.615-11.771 4.327-17.561-5.535-1.393-9.759 1.596-13.584 4.688z"/><path fill="#86877F" d="M1598.502 926.803c1.299-5.626-.2-10.837-1.596-16.153-1.695-6.357-3.89-12.507-4.287-19.177 5.98-1.667 11.166 1.146 16.152 3.854 13.563 7.296 26.822 14.798 36.495 28.034 5.085 6.984 7.38 14.698 8.576 22.828 4.29 27.098 4.688 54.509 6.284 81.816.197 3.544 1.395 8.022-3.789 9.274-11.07-1.146-22.536.207-32.51-6.565-2.89-4.689-2.293-9.9-2.19-15.009.299-19.279-.999-38.459-3.189-57.636-1.698-14.379-6.183-25.637-19.946-31.266zm241.83 26.957c-1.109-16.267-9.56-29.135-19.018-41.806-11.874-15.86-26.262-29.133-41.652-41.104-11.572-9.079-24.25-17.66-39.439-20.453-4.934 4.988-5.838 10.974-4.33 17.562 12.879 1.396 22.641 9.077 32.6 16.263 23.845 17.259 43.867 37.412 54.636 65.546 2.411 6.185 3.62 11.869 3.218 18.155 6.438-3.092 11.569-7.283 13.985-14.163z"/><path fill="#E7E6E2" d="M1400.967 1014.352c2.792 8.337 9.174 14.071 13.961 20.953.6.728.896 1.665.997 2.604-.3 4.793-1.197 9.589 1.495 13.964 3.189 12.302 11.068 19.391 22.039 24.602 26.522 12.716 53.348 23.866 82.463 27.828 5.983 2.396 6.186 6.045 2.392 10.94-3.688 4.692-6.878 9.904-11.563 13.76-8.275-.418-15.556-4.484-23.134-7.09-11.567-4.063-23.134-8.546-34.103-13.965-15.854-7.816-31.313-16.361-46.768-25.118-4.089-2.293-6.283-6.982-7.578-11.675-2.097-7.922-3.691-16.154-6.185-23.972-3.987-12.298-1.594-23.033 5.984-32.831z"/><path d="M1766.281 1087.344c.806-1.101 1.408-2.396 2.413-3.193 11.27-9.376 16.903-21.051 18.814-35.813 2.617-20.854 3.724-41.604 2.516-62.354-.502-9.178-5.33-17.561-10.359-25.542-7.646-12.271-17.608-22.447-28.576-31.726-12.978-10.976-27.565-9.576-42.657-5.188-3.322.999-7.146 4.989-10.868.2-.809-4.688 2.111-8.679 2.615-13.169 2.416-12.271 8.252-23.145 15.192-33.221 4.732-6.785 12.276-10.179 20.524-11.274 7.246-.099 13.786 2.593 19.722 6.384 30.083 19.354 56.345 42.001 69.927 76.322 2.617 6.683 4.428 13.068 2.918 20.152-5.937 15.66-16.603 29.53-18.213 46.99-.806 9.181-3.722 18.259-3.018 27.535 1.509 19.557-7.85 33.421-22.941 44.396-6.038.999-12.075.999-18.009-.499zm-143.647-54.125a9.349 9.349 0 0 1 1.796-2.188c.598-21.783.997-43.566-2.297-65.143-1.396-9.172-1.195-18.655-5.085-27.307-4.388-9.59-8.675-12.402-18.446-11.675-19.145 19.071-41.88 31.27-67.506 37.415-16.454 3.961-33.007 7.295-49.561 10.529-20.738 4.063-36.096 16.153-48.361 33.456 5.587 2.502 9.972-1.563 14.759-3.021 31.711-9.899 63.322-20.218 97.222-18.237 9.574.521 18.247 3.126 26.728 7.088 6.681 3.019 11.466 8.229 14.354 15.215 6.281 14.697 6.381 29.602.397 44.297-2.493 6.046-5.187 11.984-8.974 17.404-1.197 1.667-3.394 3.855-.601 6.254 15.263-14.591 29.519-30.33 45.575-44.087z"/><path fill="#2A2A2A" d="M1766.281 1087.344c-12.978-2.895-24.248-9.182-34.009-17.958-8.352-7.583-16.904-15.064-24.551-23.446-15.19-16.56-23.643-35.716-21.127-58.76 1.711-15.863 3.32-31.729 7.646-47.09 1.511-5.389.604-11.274 3.421-16.462.702-.103 1.31-.198 1.912-.398 28.575-12.072 51.111-3.89 70.125 19.154 14.69 17.758 24.953 36.215 23.848 60.458-.808 17.958-1.609 35.814-4.629 53.477-2.415 13.768-9.555 24.643-22.636 31.025zm-176.054-35.469c9.273-31.268.1-64.305-41.98-67.329-40.285-2.919-77.977 9.172-115.071 23.763-7.28 8.022-14.062 16.467-18.146 26.89 0 .729-.099 1.356-.099 2.084-1.1 4.899-1.198 9.695 0 14.591 1.393 3.856 2.89 7.713 4.089 11.676.997 3.125 2.394 5.521 5.282 7.19 30.813 17.927 62.722 32.623 98.421 35.646 3.59-.938 7.38.833 10.771-.938 15.157-8.337 30.215-16.781 43.676-28.037 3.984-8.756 10.265-16.155 13.057-25.536z"/><path id="cl1" fill="#EB6F24" d="M1504.52 1015.464c.485-8.66 3.831-15.522 9.038-21.119l9.258 9.191c-2.854 3.207-4.734 6.979-5.176 11.927h-13.12zm17.632 14.578c-2.642-3.278-4.313-7.156-4.574-12.104h-13.093c.289 8.66 3.406 15.561 8.388 21.247l9.279-9.143zm2.684-28.904c3.255-2.674 7.746-4.381 11.458-4.686v-13.104c-7.423.337-15.234 3.498-20.896 8.519l9.438 9.271zm15.169-17.773v13.12c4.949.396 8.731 2.236 11.964 5.056l9.206-9.262c-5.625-5.175-12.51-8.479-21.17-8.914zm11.287 50.002c-3.354 2.759-6.338 4.491-12.523 4.715v13.085c8.659-.245 15.877-3.423 21.633-8.531l-9.11-9.269zm-14.998 4.619c-4.949-.486-8.644-2.402-11.825-5.288l-9.211 9.25c5.566 5.245 12.376 8.63 21.036 9.163v-13.125zm18.081-34.394c2.792 3.332 4.564 6.923 4.835 11.872h13.092c-.294-7.423-3.515-15.553-8.656-21.281l-9.271 9.409zm4.773 15.583c-.442 4.949-2.322 8.655-5.176 11.862l9.257 9.226c5.207-5.597 8.554-12.427 9.038-21.087h-13.119zm166.103-33.726c.441-4.949 2.322-8.721 5.176-11.927l-9.258-9.191c-5.207 5.596-8.553 12.458-9.038 21.119h13.12zm4.512 14.579c-2.642-3.278-4.313-7.156-4.574-12.104h-13.093c.289 8.66 3.406 15.561 8.388 21.247l9.279-9.143zm2.685-28.904c3.255-2.674 7.746-4.381 11.458-4.686v-13.104c-7.423.337-15.234 3.498-20.896 8.519l9.438 9.271zm15.168-17.774v13.12c4.949.396 8.731 2.236 11.964 5.056l9.206-9.262c-5.625-5.174-12.509-8.479-21.17-8.914zm11.288 50.002c-3.354 2.759-6.338 4.491-12.523 4.715v13.085c8.659-.245 15.877-3.423 21.633-8.531l-9.11-9.269zm-14.998 4.619c-4.949-.486-8.644-2.402-11.825-5.288l-9.211 9.25c5.566 5.245 12.376 8.63 21.036 9.163v-13.125zm18.081-34.394c2.792 3.332 4.564 6.923 4.835 11.872h13.092c-.294-7.423-3.515-15.553-8.656-21.281l-9.271 9.409zm4.772 15.583c-.442 4.949-2.322 8.655-5.176 11.862l9.257 9.226c5.207-5.597 8.554-12.427 9.038-21.087h-13.119z" opacity=".7"/></svg>