<svg xmlns="http://www.w3.org/2000/svg" id="eyes" viewBox="0 0 3000 3000"><path fill="#C7C8BC" d="M1397.3 957.7c-.699-5.1-4.5-7.8-8.3-10.6-3.4-2.5-7.804-3.8-10-7.9.196-.3.396-.6.6-.8 27.102-13.8 53-29.8 81.4-41 8-3.1 15.8-6.8 23.696-10.1 4.603-1.9 9.103-4.104 14.199-4.2-1.103 8.2-2.897 16.2-6 23.9-20.603 8.3-40.603 17.896-60.897 27-12 5.396-24.5 10.8-32 22.8-.698.9-1.598 1.1-2.698.9zm102.398 132.3c30.898-10.8 60.5-25 90.699-37.5 2.199-.896 4.602-1.194 4.699-4.3-3.103-5-7.103-9.1-12-12.3-4.898-1.9-8.803 1.1-13 2.6-19.303 10.7-41.103 15.306-61.103 24.4-13.198 6-27 10.7-40 17.3 4.897 4.2 5 11.604 10.103 15.604 7.904 1.796 13.804-3.404 20.602-5.804zm297.388-194.8c-12.291-3.8-23.182.7-34.072 5.8-3.598 1.7-7.294 3.104-10.989 4.604-16.287 6.7-31.973 14.396-47.062 23.5-5.994 3.7-10.09 8.396-9.99 15.896 21.582-8.694 43.264-17 64.545-26.3 10.792-4.7 21.182-9.2 33.271-8.1 4.496-4.2 7.395-9 4.297-15.4zm16.586 150.3c4.496-2 6.692-3.396 7.795-8.396 3.996-18.8 9.592-37.102 19.183-54 2.101-3.7 2.798-8.102 4.196-12.102-5.896-4-10.99-2.304-15.688 2.196-9.492 17.7-19.084 35.4-20.584 56-.197 2.7-1.498 4.303-3.896 5.104-3.696 1.196-7.294 3.1-11.391 3.1-1.998 1.2-4.599.103-6.496 1.603-.696.103-1.301.103-1.998.197-3.598 3-7.989 1.803-12.09 2.303 13.194 7.095 26.282 10.495 40.969 3.995z"/><path fill="#E7E6E2" d="M1479.1 1095.9c-20.801-2.9-39.698-12.4-59.898-17.5-5.802-1.5-8.5-4.9-10.602-10.4-8.801-23.6-16.6-47.694-32.301-68-4.301-5.5-3.801-12.1-3-18.194 1.699-13.104 4.199-26.104 4.199-39.4 0-.8 1-2.396 1.5-3.2 9.103 3.806 18.102 8.604 20.5 19.7.198 2.604.5 5.4-.603 7.8-4.5 10-2.103 19.9-.5 29.9-1.603 3.396-2.103 6.6-.302 10.3 7.302 15.2 14.802 30.3 21 45.9 1 2.5 2.697 3.6 5.103 3.8 15.5 6.7 30.804 13.8 45.804 21.7 5.198 4.694 8.198 10.594 9.1 17.594zm209.882-116.7c-1.198-4.1.599-8.1 0-12.2-3.498 2.604-1.999 8.5-6.596 10.4-1.698-.7-1.601-2.2-1.397-3.3 1.197-6.4.698-11.7-6.896-13.7-.999-.3-1.998-1.8-2.396-2.9-.699-2 1.6-6.5-3.102-5.194-2.997.8-1.396 4.6-1.102 7.1.103 1 1 1.9.899 2.8-.5 7.2 5.994 12.604 4.693 20-.397 2.7-1.498 6.7 1.998 8 4.599 1.805 7.896 8 14.09 4.7 0-3.2-.101-6.396-.101-9.6 1.108-2.004 1.307-4.106-.09-6.106zm-5.398 66.3c.303 1.2 1.302 2.2 2.196 3.2.898.9 1.898 1.9 3.396 1.3 1.499-.6 1.6-1.896 1.696-3.194.103-2 .303-4.2-1.196-5.604-4.396-4.1-6.099-9.896-10.595-14.3 1.507 6.198 2.906 12.498 4.503 18.598z"/><path fill="#F8F7F7" d="M1397.198 997.9c11 19 18.199 39.6 25.803 60-3.199 3.2-5 .7-5.699-1.9-3.199-12.694-11.102-23.396-15.398-35.6-1.898-5.6-5.199-10.8-7.802-16.1-1.602-3.4-1.302-5.8 3.096-6.4z"/><path d="M1694.875 946.9c-.104-.6 0-1.2.101-1.8 2.098-4.3 6.396-5.5 10.291-7.1 21.981-8.9 44.262-17.4 65.942-27.104 6.895-3.1 14.188-2.7 21.381-2.3 5.692.8 9.293 4.7 12.789 8.6 11.488 12.604 18.684 27.805 24.679 43.604 1.499 4.1 1.499 8.396.7 12.7-7.896 18.194-17.484 35.8-20.086 56.1-1.102 8.4-9.99 8.5-16.686 10-2.697.1-5.064.741-9.012 1.066-1.102-.306-.883-1.666-1.479-2.666-2.198-6.2-1.498-12.4-.5-18.7 2.101-12.604 2.695-25.604-1.397-37.4-5.396-15.2-16.687-26.896-31.071-34.5-5.599-2.896-12.392.3-18.587 1-9.492 1.104-18.881 3.8-28.372 4.7-3.796.3-9.404-2.725-8.693-6.2zM1584 1034.302c11.896-14.604 20.896-31.7 35.696-44 1.398-1.2 1.804-2.7 1.699-4.4-.397-12.396-2.301-24.8-8.103-35.6-4.698-8.8-15.301-11.104-24.198-14.7-1.198-.5-2.5-1-3.698-1.4-19.896-6.5-39.698-13.1-59.698-19.3-10.698-3.3-21.399-7.2-32.899-7.1-10.5.7-19.897 4.6-29 9.396-10 5.2-20.101 10-30.5 14.2-10.897 4.3-20.299 11-30.101 17.2-3.602 2.3-4.698 5.3-4.5 9.2-1.802 3.8.101 4.896 3.5 4.6 3-.3 5.601-1.896 8.398-3.1 24-10.2 48.698-18 74.198-23.4 12-2.5 23.102-.896 33.302 6.3 11.102 7.9 22.698 15.305 34.3 22.4 14.2 8.7 18 20.398 14.898 35.6-2.303 11.5-.5 23.305-1.698 34.9-.398 3.8.698 6.896 5.698 5.2 3.802-1.4 7.697-2.9 11.5-4.306.506-.592.806-1.19 1.206-1.69z"/><path fill="#86877F" d="M1498.9 883.9c9.198-.5 17.8 2.6 26.198 5.2 28 8.6 56.302 16 84 25.8 7.302 2.6 14.199 5.5 19.9 10.9 5.1 4.8 10 9.896 15.696 14 8.103 5.7 11.398 13.3 11.898 22.8.5 9.3 2.5 18.5 2.5 27.8 0 3.6-.898 6-3.5 8.7-14.603 15.1-31.304 28-46.198 42.7-4.273 2.824-9.588 6.574-15.698 9.257-6-2.9-8.802-8.358-10.899-15.058 7.699-14.5 16.897-29 28.301-40.699 6.302-6.4 7.602-13.104 6.802-21.7-2-19.7-12.5-31-31.2-36.4-30.3-8.6-59.396-21.6-90.6-27.5-1.302-.3-2.5-.896-3.5-1.896-.7-8.502 1.3-16.604 6.3-23.904zm343.647 67.5c-8.192-22.4-19.6-37.088-36.981-53.088-2.269-.958-4.149-2.375-8.479-3.112-2.137 4.925-3.067 8.204-3.873 13.504 8.598 2.604 12.47 11.996 16.965 18.696 9.293 13.9 20.189 27.883 20.689 45.483 5.295-.5 8.584-2.483 13.979-1.983 1.298-6.7-.001-13.098-2.3-19.5z"/><path fill="#2A2A2A" d="M1694.875 946.9c.896 5.5 5.19 4.5 8.49 3.9 8.096-1.5 16.285-2.8 24.278-4.5 6.192-1.3 12.487-.7 18.584-2.9 2.799-1 5.694.2 8.294 2.1 6.994 4.7 12.488 10.806 17.982 17 .897 1 1.302 2.5 2.302 3.2 11.688 8.2 11.09 20.8 12.089 32.9 1.104 13.6-2.914 28.466-1.915 42.065-1.429.848-7.709 1.543-12.072.834-19.284-6.699-38.565-13.5-58.05-19.899-4.497-1.5-7.693-3.5-9.395-7.9-2.592-4.2-12.691-24.621-14.502-28.387-.715-1.626-2.584-6.013-3.084-7.013-.998-3.9 0-7.5 1.197-11.104 2.102-3.1 1.398-6.896 2.396-10.3.908-3.496.408-7.396 3.406-9.996zm-297.312 14.124c-1.316 4.319-1.137 4.638-2.563 9.176-3.304 7.8-3 15.4.696 23 .699 1.5.898 3.104 1.398 4.7 3.302 14.1 10.397 26.8 15.897 40.1 2.801 6.806 3.603 14.806 9.899 19.9 15.3 7.5 30.601 14.9 45.897 22.4 7.603.199 14.197-3 20.801-6.104 18.396-8.6 37.302-15.8 56.5-22.3 8.802-3 17.199-6.8 25.199-11.6-1.5-.5-4-.7-3.5-2.7 2.697-12.4-.199-25.104 2.5-37.7 3.301-15.5-.103-28.6-15.603-37.1-12.199-6.7-23.5-15-34.897-22.9-10.103-7.1-21.103-9.6-33.103-7.396-13.397 2.5-26.5 6.195-39.397 10.396-14.803 4.8-29.803 9.4-43.699 16.7-2.5 1.3-4.301 1.6-4.898-1.9-.471 1.814-.471 1.814-1.127 3.328z"/><path id="cl1" fill="#FFF" d="M1509.333 998.907l-4.047 33.058-4.047-33.058a10.014 10.014 0 0 1-5.069-5.071l-33.062-4.048 33.062-4.044a10.008 10.008 0 0 1 5.069-5.068l4.047-33.065 4.047 33.065a10.01 10.01 0 0 1 5.068 5.066l33.063 4.046-33.063 4.048a10.016 10.016 0 0 1-5.068 5.071zm257.236-13.476l28.979-4.048-28.979-4.046c-.88-2.253-2.469-4.064-4.443-5.066l-3.547-33.065-3.547 33.065c-1.975 1.002-3.563 2.812-4.443 5.068l-28.979 4.044 28.979 4.048c.88 2.256 2.469 4.07 4.443 5.071l3.547 33.058 3.547-33.058c1.974-1.005 3.563-2.815 4.443-5.071z"/></svg>