<svg xmlns="http://www.w3.org/2000/svg" id="eyes" viewBox="0 0 3000 3000"><path fill="#E7E6E2" d="M1399.9 965.802c-2.899 4.896-3.101 10.697-5.2 15.8-.897 2.3-.3 4.5.5 6.7 1.301 3.697 2.301 7.6 3.4 11.3-1.2 3.7-.602 7.2 1.199 10.6 8.199 16.302 16.4 32.604 22.699 49.7.801 2.3 1.398-1 2.398-.6 16.899 7.1 33.803 14.396 49.699 23.8 2.801 4.6 10.501 10.8 9.601 16.7-8.073-1.553-18.8-3.9-25.5-6.4-13.101-4.8-26.397-8.8-39.801-12.897-4.397-1.303-6.199-3.899-7.699-8-6.5-16.699-11.801-33.899-20.601-49.603-3.303-5.8-6.5-11.6-10-17.3-1.5-2.3-2.899-4.5-2.303-7.3 2.9-12.7 4-25.5 3.9-38.5-.101-6.5 1.301-7.5 7.5-8 2-.2 4 0 6 0 60 0 119.899.1 179.899.199 3.601 0 7.399-1 10.601 1.5-2.199 2.397-5 1.197-7.5 1.301-60.199 2.6-120.5 2.1-180.9 2.199.608 3.099 8.108 4.301 2.108 8.801zm283.7 15.698c-2.399-3.1-1.199-5.8-.301-8.6.801-2.5.201-4.8-2.199-5.9-3.1-1.396-6.6-1.8-9.6.104-2.603 1.6-1 4.3.1 6.2 2.601 4.3 2.301 8.896 2.301 13.6 0 3-.4 6.3 3.199 7.603 4.301 1.5 7.4 7.697 13.199 3.397-.602-10 .101-19.897 1.398-29.8-3.397 3.698-2.697 9.996-8.097 13.396zm9.5 65.5c-2.801-4.896-6.399-9.3-9.6-13.896-.603.3-1.2.6-1.803.896 3.303 6.7 1.699 15.2 9.199 21.4 1.302-3.5 3.504-6.098 2.204-8.4zm-16.402-5.1c-.398 3.1-1.601 6.2 2.5 9.5 1-4.5-1-6.9-2.5-9.5z"/><path d="M1610.198 954.302c1.803 0 3.699 0 5.5.1 6.602 3.103 6 9.9 7.602 15.3 3.801 12.9 3.701 24.604-8.399 34.7-9.3 7.8-15.101 19.2-22.601 28.9-2.199 2.896-4.5 5.8-7.5 7.896-4.102 2.2-8 5-13.102 4.104-2.5-1-3.898-3.104-3.398-5.5 1.898-9-3.899-13.2-10.102-17.5-9.197-6.5-18.101-13.604-26.5-21-6.301-5.5-12.398-6.104-20.101-4.104-29.899 8-59.5 16.7-88.699 27-3.397 1.2-8.476 3.074-12.272 2.676-8.9-7.102-9.025-18.476-14.625-27.572-5.303-12.7-6.2-24.803 4.5-35.604 13.1-4.5 26.897-3.6 40.3-4.396 19.801-1.2 39.601-2.5 59.5-3 2.399-.104 4.601 0 6.7 1.3 3.5 2.3 42.3-1.801 47.3-3.301 18.599-1.801 37.299 2.399 55.897.001zm84 47.398l.102.2c12.201 2.5 23.601-2.3 35.301-3.7 29-3.6 20.699-6.396 41.301 13.7 7.399 7.2 14.699 14.5 15 25.9.1 3.699 2.5 6 6.301 6.5 17-1.7 19.5-3.7 22.699-20.301 2.1-10.5 6-20.199 10.801-29.603 3.299-6.397 7.399-12.6 8.602-19.897-1-13-3.899-18.399-12.102-18.803-12.5-.6-25.101-.6-37.5 2.104-2.5 1.896-34.898-.603-39.201-1.5-17.3-.7-34.5-.2-51.397 3.896-.801 2.604-1.5 5.303-2.301 7.9-.699 4.2-2.601 8.1-3.601 12.2-1.399 6.1-2.899 12.3 2.198 17.6.5 0 .899.103 1.302.3 1.495.704 1.097 2.704 2.495 3.504z"/><path fill="#C7C8BC" d="M1480 1098c-3.103-4.196-5.103-8.8-6-13.896.897-3.4 3.897-4.2 6.6-5.4 27.101-12.396 55.4-21.6 82.801-33.3 2.899-1.2 5.801-.6 8.699-1.5 3.9-1.399 7.801-2.899 11.699-4.3 4 .199 6.301 2.896 8.601 5.6 2.601 3.104 5.601 5.2 9.899 5-30.602 14.4-61.399 28.2-93.199 39.7-8.399 3-16.199 7.7-24.899 9.899-1.301-1.001-3.101-.703-4.201-1.803zm325.198-45.8c4.303-1.8 8.803-2.896 13.399-3.8 3.397-.7 4.897-2 5.5-5.7 2.897-18.5 8.601-36 17-52.7 2.198-4.396 5.198-8.6 4.897-13.896-4.697-3.7-9.3-3.4-14 0-8.397 15.8-18.197 31.2-19.897 49.5-1 10.2-6 14.396-15 15.896-1.603.304-3.302.5-4.899.7-3.601 2.8-8.601 1.3-12.197 4.104 7.599 5.096 15.197 9.998 25.197 5.896z"/><path fill="#2A2A2A" d="M1694.3 1001.802c9.801-3.104 20.2-3.5 30.2-5.7 7.697-1.7 15.697-2.5 23.5-3.8 3.8-.604 7.197-.303 10.1 2.697 8.199 8.699 17.4 16.399 24.801 26 3.399 4.399 5.899 8.603 5.199 14.399-.399 3.2.199 6.101 4.101 6.7-3.95 3.373-7.7 5.273-12.2 4.1-13.625-4.574-25.697-8.199-38.6-12.396-3.5-1.104-6.801-2.5-10.301-3.7-22.1-7.702-22.1-7.702-36.8-28.3zm-123.8 36c3.3-6.303-.2-9.7-4.7-13.104-12.8-9.896-25.601-19.896-38.199-30.1-3.301-2.7-6.399-2.4-10.2-1.4-16.9 4.7-34.101 8.5-50.8 13.803-18.301 5.801-38.476 11.875-55.976 19.875-.603 12.897 7.375 22.322 13.675 32.625 1.801 1.397 3.399 3.197 5.5 4.197 14.7 6.9 29.5 13.7 44.2 20.5 6.199-2.396 12.5-4.5 18.5-7.197 17.397-8.103 35.769-13.83 53.5-21.103 8.824-3.618 16.375-7.897 26.1-12-2.5-1.698-2.7-3.998-1.6-6.096z"/><path fill="#86877F" d="M1583.698 1039.7c7.803-10.2 15.699-20.396 23.399-30.7 4-5.3 8-10.5 13.397-14.5 2.303-1.696 3.7-3.6 3.303-6.6-1.699-11.4-2.803-22.9-8-33.5 11.601-.1 23.197 0 34.801-.3 5.101-.104 7 2 7.396 6.896.803 10.9 1.9 21.804 3.104 32.7.3 2.8.101 5.104-2.104 7.2-16.1 16.3-33.799 30.9-50.6 46.4-1.576 1.091-3.4 1.571-6.199 3-9.595 2.506-13.497-5.096-18.497-10.596zM1438.3 962.5c18.801-1.6 37.601-2.1 56.5-2.8 4.2-.2 4.877.228 12.601-.1 18.35-.288 30.1-.101 45.475-1.851 15.103-1.302 29.15-.125 44.25-.625 4.199-.2 15.765 1.739 19.765-.357-.963-2.105-.731-1.708-.731-2.37-3.601.1-37.457-.396-41.057-.396-59.102 0-118.199-.102-177.302-.102-3.398 0-6.698.3-12.101.602 5.699 3.102 9.399 5.302 13.199 7.198 2.2 1.104 1.199 1.2 1 2.7 12.9-2.799 24.851-1.546 38.401-1.899zm409.6 8.1c.3-6.4-3.301-11.604-6.5-16.4-2.801-4.2-8-1.896-12.101-1.8-13.6.2-27.301.8-40.899 1.2-27.601.896-55.301-.104-82.801 1.8-4.399.3-8.601.6-11.399 4.7 18-.4 36-3.104 54.1-1.4 13.076 1.05 21.826.8 35.603.104 11.228-1.314 21.802 0 32.7-.7 11.101-.8 12.5.5 14.697 11 .5 2.3.603 4.6.9 6.896h14c1.6-1.4 1.6-3.4 1.7-5.4z"/><path fill="#F7F7F7" d="M1410.625 1026.875c2.697 11.604 10.975 21.025 13.572 32.625-.601 1.604-1 5.104-3.301 1.804-2.602-3.804-3.896-8.4-5.699-12.7-5.398-13.3-11.898-26-18.398-38.7-2.102-4-4.491-6.348.107-9.048 5.903 8.097 8.417 17.619 13.719 26.019z"/><path fill="#F9B233" d="M1501.337 988.878l19.371-10.307a6.63 6.63 0 0 1 6.631.23l18.611 11.621a6.64 6.64 0 0 1 3.117 5.858l-.761 21.926a6.633 6.633 0 0 1-3.515 5.629l-19.37 10.306a6.628 6.628 0 0 1-6.63-.229l-18.61-11.621a6.635 6.635 0 0 1-3.117-5.858l.759-21.928a6.633 6.633 0 0 1 3.514-5.627zm240.923-10.094l17.797-9.373a6.147 6.147 0 0 1 6.094.211l17.105 10.58a6.03 6.03 0 0 1 2.866 5.332l-.692 19.952a6.024 6.024 0 0 1-3.228 5.121l-17.796 9.372a6.145 6.145 0 0 1-6.093-.21l-17.104-10.581a6.028 6.028 0 0 1-2.866-5.332l.69-19.954a6.02 6.02 0 0 1 3.227-5.118z"/></svg>