<svg xmlns="http://www.w3.org/2000/svg" id="图层_1" viewBox="0 0 3000 3000"><path d="M1787.5 1093.978c-2.4-4.088-3.5-8.477-3.4-13.263.101-17.252-1-34.605.4-51.658 1.197-13.862 1.197-27.725 1.5-41.585.1-4.887-1.2-9.175-4.7-12.666-10-9.673-17.899-21.241-29.101-29.818-5.802-4.485-11-5.383-17.399-3.688-10.3 2.593-20.5 5.483-30.699 8.176-3.5.898-7.101 2.396-10.101-1.097 0-.6 0-1.296.101-1.896 2-2.992 3.699-6.283 6.699-8.576 19.101-14.958 39.5-28.021 61.2-38.893 2.697-1.296 5.5-2.494 8.5-2.593 9.1.396 16.3 4.587 22.897 10.77 16 14.759 27.603 32.211 35.103 52.558 1.897 5.184 2.6 10.271 1.5 15.653-.803 3.191-2.2 6.284-3.9 9.076-13.199 22.737-17.399 47.47-17.301 73.298-.101 15.958-5.924 28.199-21.299 36.202zm-165.266-54.778c-.099-20 .599-39.8-1.892-59.7-1.99-15.5-7.271-28.6-18.122-39.696-13.642-14-28.478-26.604-43.812-38.804-8.964-7.1-18.521-11.3-30.072-10.196-19.519 7.1-39.433 13.196-58.25 22.3-11.053 5.3-21.607 11.396-33.159 15.7-15.334 5.8-28.577 15-41.622 24.6-.1 4-2.689 7.4-2.292 11.5 4.382 3.8 8.862 1.3 13.146.1 29.672-8.6 59.743-15.1 89.813-22.1 5.677-1.3 11.253-1.7 16.231 2 15.135 11.4 31.663 20.8 47.297 31.4 5.977 4.1 9.063 9.696 9.657 16.6 1.296 15 4.284 29.7 6.871 44.4 1.394 7.896.499 15.1-2.987 22.3-3.483 7.2-6.473 14.6-8.959 22.2-1.796 5.6-1.494 5.8 4.181 7.1 4.88-1.7 7.966-5.7 11.353-9.2 13.145-13.5 26.784-26.3 40.926-38.6.399-.802.895-1.504 1.692-1.904z"/><path fill="#C7C8BC" d="M1395.404 953.5c-2.29-5.3-7.667-7.1-11.849-10.196-2.987-2.2-6.274-3.804-6.274-8.2 7.668-5.8 16.331-10.104 24.895-14.3 29.075-14.304 58.849-27 88.722-39.5 9.16-3.804 18.319-7.7 27.186-12 8.662-4.2 17.725-4.7 27.084-4.104 1.096.104 2.188 1.3 3.285 1.9-3.586-.3-6.474.3-7.668 4.3-.795 2.8-2.092 5.6-2.688 8.4-1.193 5.5-3.984 9.999-9.462 11.699-4.978 1.863-7.118 3.916-11.797 5.499-40.578 16.082-78.315 31.898-114.86 54.398-2.093 1.304-4.085 2.504-6.574 2.104zm167.085 157.802c23.502-14.7 47.001-29.303 69.105-46.104 8.363-6.396 17.725-11.5 24.496-19.8-2.59-1.7-5.479-1.9-8.465-2.5-8.362-1.8-17.127-1.2-25.394-3.7-.496 0-.896 0-1.396.104a8.39 8.39 0 0 0-2.486 1.3c-9.76 6.5-17.028 15.6-25.393 23.4-8.664 8.1-15.733 17.896-26.287 23.896-15.233 8.801-29.771 19-46.303 25.604 3.883 1.896 6.971 4.196 6.174 9.396-.498 2.7 1.295 4.2 3.981 4.4 10.76-5.398 22.01-9.698 31.968-15.996zm209.136-13.705c4.75 2.714 23.072-2.821 26.572-3.718 13.399-3.191 23.199-17.153 22-31.114-1.801-20.943 2.899-40.589 11.303-59.736 5.697-12.863 12.197-25.929 10.197-40.888-7.101 1.197-12.801 3.989-13.601 12.167-2.199 4.488-4.302 8.975-6.699 13.363-11.101 19.943-15.301 41.483-15.301 64.021 0 6.184.864 13.109-1.228 19.945-3 9.872-10.375 15.458-17.475 22.139-4.154 1.462-15.768 3.222-15.768 3.821zm6.073-217.031c-7.197-.398-13.601 2.094-19.898 5.085-15.899 7.581-29.301 19.049-44.102 28.323-12.197 7.579-17.697 18.948-19.697 32.51 11.697-9.671 23.897-18.748 36.8-26.825 12.601-7.878 24.899-16.354 39.101-21.241 1.801-3.392 3.699-6.782 5.301-10.272 1.399-3.091 3.102-5.685 6.899-5.784-1.102-1.297-2.702-1.696-4.404-1.796z"/><path fill="#E7E6E2" d="M1530.625 1127.1c-2.291 2.7-5.576 2.2-8.362 1.7-17.229-3-34.554-5.304-50.784-12.5-11.451-5.104-23.4-9.304-34.751-14.604-8.961-4.199-17.425-9.5-26.188-14.3-5.477-3-8.266-7.7-11.252-13.101-5.477-9.899-8.962-20.699-15.334-30.103-6.672-9.897-9.459-21.898-15.732-32.2-2.592-4.198.697-9.698 1.394-14.5 2.789-18.3 5.677-36.6 5.479-55.3 0-2.6-.599-5.398 2.091-7.3 6.074 6.7 16.43 8.8 19.717 18.6.498 4.2-.996 8.104-1.693 12.104-5.375 21.3-4.879 41.896 5.277 62.1 5.577 11.2 9.659 23.4 13.044 35.5 2.39 8.4 7.368 13.604 14.937 17.5 29.076 14.801 59.146 26.801 91.908 30.4 8.655 2.004 8.856 9.404 10.249 16.004z"/><path fill="#86877F" d="M1548.448 867c9.56 4 18.121 9.7 26.089 16.2 24.196 19.7 50.284 36.9 72.688 58.8 4.281 4.2 6.771 8.304 7.468 14.4 2.89 27.5 4.283 55 3.687 82.6 0 2.304.1 4.7-2.19 6.304-11.647.3-23.301.196-34.054-5.4-3.188-4-2.589-8.8-2.589-13.397-.2-15.603.298-31.103-1.794-46.699-1.992-15-7.367-27.9-18.022-38.801-12.944-13.303-27.48-24.803-41.424-37-8.763-7.699-19.416-9.103-29.674-12.5 2.989-7.5 7.967-14 10.655-21.803 1.294-3.604 5.179-4.902 9.16-2.704zm288.25 74.199c-7.398-16.255-19.101-29.519-31.101-42.384-6.603-7.08-14-13.263-23.399-16.554-8.398 1.096-11.301 4.787-12.197 16.055 5.5 1.296 11.3 1.695 15.8 5.586 11.399 9.773 22.399 20.145 29.301 33.605 6 11.568 13.699 22.838 13 36.896 2.101-3.49 3.8-7.377 8.601-7.978 2.602-.3 3.301-2.892 5-4.188.297-7.474-2.005-14.353-5.005-21.038z"/><path fill="#2A2A2A" d="M1787.5 1093.978c-7.803 4.488-15.803 5.285-23.7 2.094-17.3-6.781-32-17.452-44.5-31.014-2.3-2.396-5-4.488-7.101-6.981-8.102-9.673-20.199-15.956-22-30.715-1.5-12.765-5-25.032-3-38.394 1.398-9.375.801-19.147 2.898-28.622.898-4.088 2.398-7.629 3.8-12.067 11.802-1.994 23.399-4.887 34.802-8.477 10.698-3.393 19.698-1.796 28.601 5.784 10.2 8.774 18.2 19.247 27.101 29.12 4.301 4.686 4.301 10.866 4.5 16.951.5 25.529-3.199 50.859-2.101 76.391.399 8.275.348 12.988 2.146 21.167.001 1.198 1.489 1.44-1.446 4.763zm-398.369-89.578c0 1.9.996 3.8 1.689 5.7 7.77 20.1 15.833 40.2 22.307 60.8.996 3.3 2.688 5.9 5.873 7.6 31.864 17.604 64.625 32.2 101.468 34.7 4.28-.396 8.465-.396 12.446-2.6 12.049-6.8 23.631-15.591 35.082-23.492-2.89-.3-3.715.292-2.322-2.808 3.686-8.5 7.271-17.104 10.755-25.7 1.991-4.9 4.58-9.7 3.585-15.3-3.188-17.2-6.57-34.4-7.967-52-.596-7.604-4.282-13.2-11.053-17.604-15.832-10.3-32.263-19.6-47.101-31.396-4.681-3.7-9.76-4.3-14.937-3-27.582 6.6-55.164 13.5-82.746 20.1-7.668 1.8-12.703 5.655-20.867 5.455-4.376 12.904-6.312 26.245-6.212 39.545z"/><path fill="#86877F" d="M1747.082 1060.333c.366-.107.685-.324.904-.589 0 0 1.152-1.393 2.153-2.81.506-.708.98-1.419 1.321-1.954.344-.543.56-.928.56-.928a1.926 1.926 0 0 1 1.674-.94s.287.003.719.005c.432.022 1.005-.028 1.577-.083l2.291-.203 2.263-.418c.566-.101 1.133-.204 1.542-.341.415-.12.692-.197.692-.197.664-.19 1.38-.01 1.862.458 0 0 .312.313.788.745.473.423 1.119.981 1.797 1.529 1.343 1.098 2.826 2.132 2.826 2.132.283.197.647.32 1.031.325a2.685 2.685 0 0 0 1.164-.296l.87-.442c.516-.276 1.225-.605 1.893-1.009l2.631-1.682c.735-.444 1.104-1.266 1.044-1.944 0 0-.162-1.793-.451-3.497-.255-1.69-.72-3.383-.72-3.383a1.907 1.907 0 0 1 .527-1.837s.854-.776 1.563-1.686l1.479-1.759 1.301-1.898a15.447 15.447 0 0 0 1.205-1.957c.331-.606.96-.988 1.63-.999 0 0 1.756-.006 3.451-.211 1.72-.178 3.491-.501 3.491-.501.671-.125 1.363-.699 1.595-1.526l.916-2.985c.209-.751.338-1.523.464-2.094.118-.573.194-.957.194-.957.083-.419.07-.836-.025-1.201a1.866 1.866 0 0 0-.591-.906s-1.393-1.152-2.81-2.153a48.516 48.516 0 0 0-1.953-1.322c-.545-.342-.929-.56-.929-.56-.58-.34-.946-.98-.94-1.672 0 0 .003-.287.005-.719.023-.433-.028-1.005-.083-1.577l-.203-2.292-.417-2.262c-.102-.566-.204-1.131-.342-1.542l-.198-.691a1.926 1.926 0 0 1 .459-1.863s.313-.312.744-.787c.424-.473.982-1.121 1.529-1.797 1.098-1.343 2.132-2.826 2.132-2.826a1.86 1.86 0 0 0 .324-1.031 2.63 2.63 0 0 0-.296-1.165l-.441-.869c-.274-.517-.604-1.227-1.008-1.894l-1.683-2.632c-.444-.734-1.266-1.103-1.944-1.044 0 0-1.794.163-3.497.451-1.688.255-3.383.721-3.383.721a1.908 1.908 0 0 1-1.837-.528s-.777-.853-1.687-1.562l-1.759-1.481-1.897-1.299c-.927-.687-1.956-1.205-1.956-1.205a1.913 1.913 0 0 1-1-1.631s-.006-1.755-.211-3.452a53.485 53.485 0 0 0-.501-3.489c-.125-.67-.699-1.364-1.527-1.595l-2.985-.917c-.751-.21-1.522-.337-2.093-.465l-.957-.192a2.663 2.663 0 0 0-1.202.026 1.85 1.85 0 0 0-.904.589s-1.152 1.392-2.154 2.811a47.2 47.2 0 0 0-1.32 1.954c-.344.543-.56.928-.56.928-.341.58-.982.945-1.673.939l-.72-.004c-.432-.023-1.005.029-1.577.083l-2.292.203-2.263.417c-.565.102-1.131.204-1.542.342l-.691.198a1.929 1.929 0 0 1-1.862-.459s-.312-.312-.788-.744a49.66 49.66 0 0 0-1.797-1.53c-1.343-1.097-2.826-2.131-2.826-2.131a1.87 1.87 0 0 0-1.029-.326 2.662 2.662 0 0 0-1.166.296s-.349.176-.869.443c-.517.275-1.226.604-1.894 1.008-1.316.84-2.631 1.682-2.631 1.682-.735.445-1.104 1.266-1.044 1.945 0 0 .162 1.793.451 3.497.255 1.689.72 3.382.72 3.382a1.91 1.91 0 0 1-.527 1.838s-.853.776-1.563 1.684c-.74.881-1.481 1.76-1.481 1.76l-1.299 1.898a15.475 15.475 0 0 0-1.205 1.956 1.91 1.91 0 0 1-1.63 1s-1.757.005-3.452.211c-1.719.177-3.489.501-3.489.501-.67.124-1.364.699-1.596 1.525 0 0-.457 1.493-.917 2.986-.209.75-.337 1.522-.464 2.094l-.193.955c-.084.419-.071.837.026 1.202.106.367.324.686.589.907a49.032 49.032 0 0 0 4.765 3.474c.544.343.928.56.928.56.581.341.945.981.94 1.673l-.005.719c-.023.432.028 1.004.083 1.577l.202 2.291.419 2.263c.1.566.203 1.132.341 1.542l.197.692c.19.664.011 1.38-.458 1.862 0 0-.313.312-.745.789a46.18 46.18 0 0 0-1.528 1.796c-1.099 1.343-2.132 2.826-2.132 2.826a1.855 1.855 0 0 0-.325 1.03c.004.378.103.784.296 1.166l.442.87c.274.516.604 1.225 1.008 1.893a4881.81 4881.81 0 0 0 1.684 2.631c.443.735 1.265 1.104 1.943 1.043 0 0 1.794-.163 3.497-.45 1.688-.256 3.382-.72 3.382-.72a1.909 1.909 0 0 1 1.838.527s.776.852 1.687 1.562l1.759 1.481 1.898 1.299a15.466 15.466 0 0 0 1.954 1.207c.609.331.988.959 1.001 1.629 0 0 .006 1.755.211 3.452.179 1.718.502 3.491.502 3.491.124.669.698 1.362 1.526 1.595l2.985.916c.751.209 1.522.338 2.093.464l.956.194c.42.082.837.069 1.203-.029zm6.844-17.548l-1.438-.007c-.511 0-1.041-.108-1.595-.149-.275-.026-.558-.054-.843-.08-.284-.031-.563-.115-.849-.169-.567-.129-1.155-.211-1.728-.362a68.989 68.989 0 0 0-1.685-.524l-.417-.122-.394-.174-.776-.331c-1.049-.371-1.922-.945-2.713-1.347-.406-.188-.731-.439-1.029-.646l-.774-.531-.684-.454-.619-.535-.718-.606c-.279-.231-.609-.478-.898-.818-.599-.654-1.387-1.342-2.025-2.252l-.525-.659-.272-.333-.23-.37c-.309-.494-.628-.99-.955-1.483-.297-.511-.534-1.056-.812-1.569-.127-.261-.283-.506-.389-.772l-.303-.792c-.188-.521-.434-1.003-.57-1.495l-.391-1.383-.185-.613-.098-.569-.169-.921c-.102-.51-.158-.801-.158-.801l-.063-.815-.083-.934-.059-.573.013-.639c.004-.445.006-.927.008-1.438 0-.51.107-1.04.149-1.593l.08-.843c.029-.284.116-.563.167-.849.131-.567.214-1.157.364-1.728.183-.563.358-1.127.521-1.686l.124-.417.173-.395.332-.776c.371-1.049.945-1.92 1.348-2.713.187-.404.438-.73.645-1.029.205-.298.385-.56.531-.775l.453-.682.536-.62.605-.719c.231-.279.478-.608.818-.897.654-.599 1.341-1.387 2.254-2.025l.658-.527.334-.271.369-.23c.494-.309.99-.628 1.483-.956.509-.297 1.056-.533 1.566-.811.263-.128.508-.285.773-.389l.79-.302c.523-.189 1.006-.435 1.497-.571l1.383-.392c.215-.063.418-.125.612-.183.2-.035.391-.069.568-.098l.922-.169.802-.159.815-.062.934-.084.574-.057.64.013c.444.003.926.004 1.437.006.511.001 1.041.108 1.594.15l.844.08c.283.03.563.116.849.168.567.131 1.155.211 1.728.362.563.184 1.126.359 1.685.523l.416.123.395.173.776.331c1.049.371 1.922.947 2.713 1.349.406.187.732.438 1.029.646.299.205.561.383.775.531l.682.453.619.536.72.604c.278.231.608.479.896.819.6.655 1.388 1.342 2.025 2.254l.526.659.272.333.23.368c.308.494.628.991.954 1.483.298.511.534 1.055.812 1.568.127.261.284.507.39.772l.303.791c.188.523.434 1.005.57 1.497l.391 1.383.185.612c.034.2.066.391.098.568l.17.922.157.803.063.814.083.933.059.575c-.005.203-.008.416-.014.64l-.007 1.437c0 .51-.107 1.042-.15 1.595l-.079.842c-.029.285-.115.563-.168.85-.13.567-.213 1.155-.361 1.728-.185.562-.36 1.125-.524 1.684l-.123.417-.173.394c-.111.263-.222.521-.332.776-.37 1.049-.945 1.922-1.347 2.713-.188.405-.439.732-.646 1.029l-.53.775-.453.684-.536.619-.605.718c-.23.28-.479.609-.817.898-.655.599-1.342 1.387-2.255 2.024l-.658.527-.334.272-.369.23c-.494.308-.99.626-1.483.954-.509.298-1.056.534-1.567.812-.262.127-.507.284-.773.39l-.79.302c-.521.188-1.005.433-1.496.571l-1.384.391-.611.185-.568.098-.924.169-.801.158-.814.063c-.259.022-.573.051-.934.083-.18.019-.371.037-.574.057l-.64-.013zm-258.68 34.802a2.32 2.32 0 0 0 1.128-.733s1.436-1.736 2.683-3.501a57.621 57.621 0 0 0 1.646-2.435c.428-.677.697-1.156.697-1.156a2.402 2.402 0 0 1 2.085-1.172l.896.006c.538.028 1.253-.036 1.966-.104 1.428-.125 2.854-.252 2.854-.252l2.819-.521c.706-.125 1.411-.254 1.922-.425.517-.149.862-.246.862-.246a2.397 2.397 0 0 1 2.32.57s.389.389.982.928a61.437 61.437 0 0 0 2.238 1.905 66.774 66.774 0 0 0 3.521 2.656 2.34 2.34 0 0 0 1.285.405 3.33 3.33 0 0 0 1.45-.369l1.084-.55c.643-.344 1.526-.755 2.358-1.257 1.641-1.048 3.278-2.096 3.278-2.096.916-.553 1.375-1.578 1.301-2.422 0 0-.202-2.235-.562-4.357a41.728 41.728 0 0 0-.897-4.216 2.38 2.38 0 0 1 .657-2.29s1.063-.967 1.947-2.1l1.844-2.191 1.62-2.365c.854-1.155 1.502-2.438 1.502-2.438a2.373 2.373 0 0 1 2.03-1.244s2.188-.008 4.301-.264c2.143-.222 4.35-.625 4.35-.625.836-.155 1.699-.871 1.987-1.902l1.142-3.72c.261-.937.421-1.897.578-2.609.146-.714.242-1.192.242-1.192a3.355 3.355 0 0 0-.032-1.497 2.331 2.331 0 0 0-.735-1.128s-1.735-1.435-3.501-2.683a60.787 60.787 0 0 0-2.435-1.647c-.678-.426-1.156-.697-1.156-.697a2.397 2.397 0 0 1-1.172-2.083l.006-.896c.029-.539-.035-1.252-.104-1.965l-.253-2.856-.52-2.818c-.127-.705-.255-1.41-.426-1.922-.147-.518-.247-.862-.247-.862a2.403 2.403 0 0 1 .571-2.322s.39-.388.928-.981a59.36 59.36 0 0 0 1.905-2.238c1.368-1.674 2.656-3.521 2.656-3.521.245-.354.4-.809.404-1.285a3.285 3.285 0 0 0-.368-1.451l-.551-1.083c-.342-.644-.753-1.528-1.255-2.359-1.048-1.64-2.098-3.279-2.098-3.279-.553-.915-1.576-1.374-2.422-1.301 0 0-2.235.203-4.357.563-2.104.318-4.216.897-4.216.897a2.38 2.38 0 0 1-2.289-.657s-.968-1.063-2.101-1.946c-1.096-.922-2.191-1.846-2.191-1.846l-2.365-1.618a19.215 19.215 0 0 0-2.437-1.502 2.38 2.38 0 0 1-1.246-2.032s-.008-2.187-.264-4.301a65.947 65.947 0 0 0-.624-4.348c-.155-.835-.871-1.699-1.902-1.987l-3.72-1.143c-.937-.262-1.897-.42-2.608-.58l-1.192-.24a3.326 3.326 0 0 0-1.497.033 2.32 2.32 0 0 0-1.128.734s-1.436 1.734-2.684 3.501a60.657 60.657 0 0 0-1.646 2.435 28.722 28.722 0 0 0-.697 1.156 2.4 2.4 0 0 1-2.085 1.17s-.358-.001-.896-.006c-.537-.028-1.252.037-1.965.104l-2.855.253-2.819.521c-.705.127-1.41.254-1.922.426l-.861.247a2.402 2.402 0 0 1-2.32-.572s-.389-.389-.983-.927a60.381 60.381 0 0 0-2.238-1.906c-1.674-1.367-3.521-2.655-3.521-2.655a2.34 2.34 0 0 0-1.284-.406 3.31 3.31 0 0 0-1.452.369s-.434.22-1.083.552c-.644.343-1.527.753-2.359 1.256l-3.278 2.095c-.916.555-1.375 1.578-1.3 2.424 0 0 .201 2.235.561 4.357.319 2.105.897 4.214.897 4.214a2.38 2.38 0 0 1-.657 2.291s-1.062.967-1.947 2.099c-.922 1.098-1.846 2.193-1.846 2.193l-1.618 2.365a19.431 19.431 0 0 0-1.502 2.437 2.381 2.381 0 0 1-2.031 1.246s-2.188.006-4.301.264a64.791 64.791 0 0 0-4.349.625c-.833.155-1.699.871-1.987 1.9 0 0-.57 1.86-1.143 3.721-.26.935-.42 1.897-.578 2.609l-.242 1.19a3.33 3.33 0 0 0 .034 1.498c.132.457.403.854.733 1.13 0 0 1.736 1.435 3.501 2.683.882.629 1.769 1.22 2.435 1.646.677.428 1.156.697 1.156.697a2.402 2.402 0 0 1 1.172 2.085l-.006.896c-.029.538.036 1.251.104 1.965.125 1.428.252 2.855.252 2.855l.521 2.819c.125.706.254 1.411.425 1.922l.246.862a2.397 2.397 0 0 1-.57 2.32s-.391.389-.928.983a56.205 56.205 0 0 0-1.905 2.238 66.467 66.467 0 0 0-2.657 3.521c-.245.353-.4.807-.405 1.283.005.471.127.977.368 1.452l.552 1.083c.342.643.753 1.527 1.255 2.359l2.097 3.278c.553.916 1.576 1.375 2.422 1.3 0 0 2.235-.203 4.357-.561a42.334 42.334 0 0 0 4.214-.897 2.38 2.38 0 0 1 2.291.657s.967 1.062 2.1 1.945l2.191 1.846 2.365 1.618c1.155.856 2.437 1.504 2.437 1.504a2.376 2.376 0 0 1 1.247 2.03s.007 2.187.263 4.301c.222 2.141.625 4.35.625 4.35.155.834.871 1.697 1.902 1.987l3.72 1.142c.936.261 1.897.42 2.608.578l1.192.242a3.363 3.363 0 0 0 1.503-.036zm8.528-21.865l-1.79-.009c-.637 0-1.298-.135-1.987-.186l-1.051-.099c-.354-.039-.7-.144-1.057-.211-.707-.161-1.44-.263-2.153-.451-.7-.228-1.402-.447-2.099-.653l-.519-.152-.491-.217c-.327-.14-.649-.276-.967-.413-1.307-.462-2.395-1.178-3.38-1.678-.505-.234-.912-.547-1.282-.805l-.966-.662-.851-.565-.772-.667-.894-.755c-.349-.288-.759-.595-1.119-1.02-.747-.815-1.728-1.672-2.523-2.807l-.656-.821-.339-.416-.287-.46a81.013 81.013 0 0 0-1.19-1.848c-.37-.637-.665-1.316-1.01-1.955-.158-.325-.354-.63-.485-.962l-.376-.986c-.234-.649-.541-1.25-.711-1.863l-.487-1.724-.229-.764-.122-.708c-.083-.443-.152-.829-.211-1.148l-.197-.998-.078-1.015-.104-1.164c-.023-.225-.046-.463-.073-.714l.017-.797.009-1.792c0-.635.133-1.295.186-1.985l.099-1.051c.037-.354.144-.701.209-1.057.163-.707.266-1.441.453-2.153.228-.701.446-1.404.651-2.1l.153-.519.215-.492.414-.967c.462-1.307 1.178-2.393 1.679-3.38.232-.503.547-.91.804-1.282.256-.372.479-.697.662-.966l.564-.849.668-.772.753-.896c.29-.348.597-.758 1.02-1.118.816-.747 1.672-1.728 2.808-2.523l.822-.657.415-.338.46-.287a84.59 84.59 0 0 0 1.848-1.19c.635-.371 1.316-.665 1.953-1.011.327-.16.633-.354.964-.485l.984-.376c.651-.236 1.253-.541 1.865-.712.612-.173 1.19-.336 1.723-.488.268-.079.521-.155.763-.228l.709-.123a259.2 259.2 0 0 1 1.148-.21l.999-.197 1.016-.077 1.164-.105.715-.071.797.017 1.79.008c.637.002 1.297.135 1.986.188.346.033.696.065 1.052.1.353.037.7.144 1.057.209.707.163 1.439.264 2.152.451.701.229 1.403.448 2.1.652l.519.153.491.216.968.412c1.307.462 2.395 1.18 3.38 1.68.506.232.912.545 1.282.804l.967.662.85.564.771.668.896.753c.347.289.758.597 1.117 1.02.747.817 1.729 1.672 2.523 2.809l.655.821.34.416.287.459c.384.615.782 1.235 1.189 1.849.371.636.665 1.314 1.011 1.953.158.326.354.632.485.962l.377.986c.234.651.541 1.252.711 1.865l.487 1.724.229.762.122.708c.082.443.151.831.211 1.148l.196 1 .078 1.015.104 1.162.073.716c-.007.252-.011.518-.018.797l-.009 1.79c0 .635-.134 1.297-.187 1.987l-.099 1.05c-.037.354-.145.702-.21 1.059-.162.707-.265 1.439-.45 2.153a75.16 75.16 0 0 0-.653 2.099l-.153.519-.215.491-.414.967c-.462 1.307-1.178 2.395-1.679 3.38-.232.504-.547.912-.805 1.282l-.661.966c-.36.541-.564.851-.564.851l-.668.771c-.21.248-.464.549-.754.895-.288.349-.597.76-1.02 1.119-.816.746-1.672 1.728-2.809 2.521l-.821.657-.415.34-.461.287c-.615.384-1.233.781-1.848 1.189-.635.372-1.315.666-1.953 1.012-.326.158-.632.354-.964.485l-.984.376c-.65.234-1.252.54-1.864.711s-1.19.336-1.724.487l-.763.229c-.249.043-.486.083-.708.123l-1.15.21-.998.197-1.015.078-1.164.104-.715.071-.794-.015z"/><path id="cl1" fill="#2962FF" d="M1753.626 1033.273c-8.074 0-14.618-6.546-14.618-14.619s6.544-14.618 14.618-14.618c8.072 0 14.616 6.544 14.616 14.618 0 8.073-6.544 14.619-14.616 14.619zm-232.012-7.618c0-10.06-8.154-18.214-18.213-18.214-10.061 0-18.215 8.154-18.215 18.214 0 10.059 8.154 18.215 18.215 18.215 10.058-.001 18.213-8.156 18.213-18.215z"/></svg>