<svg xmlns="http://www.w3.org/2000/svg" id="eyes" viewBox="0 0 3000 3000"><path fill="#E7E6E2" d="M1399.9 965.801c-2.9 4.899-3.101 10.699-5.2 15.8-.9 2.3-.3 4.5.5 6.7 1.3 3.699 2.3 7.6 3.4 11.3-1.2 3.7-.601 7.2 1.199 10.6 8.2 16.3 16.4 32.601 22.7 49.7.8 2.3 1.4-1 2.4-.6 16.899 7.1 33.8 14.399 49.699 23.8 2.801 4.6 10.501 10.8 9.601 16.7-8.075-1.551-18.8-3.9-25.5-6.4-13.101-4.8-26.4-8.8-39.801-12.9-4.399-1.3-6.199-3.899-7.699-8-6.5-16.699-11.801-33.899-20.601-49.6-3.3-5.8-6.5-11.6-10-17.3-1.5-2.3-2.899-4.5-2.3-7.3 2.9-12.7 4-25.5 3.9-38.5-.101-6.5 1.3-7.5 7.5-8 2-.2 4 0 6 0 60 0 119.899.1 179.899.2 3.601 0 7.4-1 10.601 1.5-2.2 2.399-5 1.199-7.5 1.3-60.2 2.6-120.5 2.1-180.9 2.2.602 3.099 8.102 4.3 2.102 8.8zm283.7 15.699c-2.399-3.1-1.199-5.8-.3-8.6.8-2.5.2-4.8-2.2-5.9-3.1-1.399-6.6-1.8-9.6.101-2.6 1.6-1 4.3.1 6.2 2.601 4.3 2.301 8.899 2.301 13.6 0 3-.4 6.3 3.199 7.6 4.301 1.5 7.4 7.7 13.2 3.4-.6-10 .1-19.9 1.4-29.8-3.4 3.7-2.7 9.999-8.1 13.399zm9.5 65.5c-2.8-4.899-6.399-9.3-9.6-13.899l-1.8.899c3.3 6.7 1.699 15.2 9.199 21.4 1.301-3.5 3.501-6.099 2.201-8.4zm-16.4-5.1c-.4 3.1-1.601 6.2 2.5 9.5 1-4.5-1-6.9-2.5-9.5z"/><path d="M1610.2 954.301c1.8 0 3.699 0 5.5.1 6.6 3.1 6 9.9 7.6 15.3 3.8 12.9 3.7 24.601-8.4 34.7-9.3 7.8-15.1 19.2-22.6 28.9-2.2 2.899-4.5 5.8-7.5 7.899-4.1 2.2-8 5-13.1 4.101-2.5-1-3.9-3.101-3.4-5.5 1.9-9-3.9-13.2-10.1-17.5-9.2-6.5-18.101-13.601-26.5-21-6.301-5.5-12.4-6.101-20.101-4.101-29.899 8-59.5 16.7-88.699 27-3.4 1.2-8.476 3.074-12.275 2.675-8.9-7.101-9.025-18.475-14.625-27.574-5.3-12.7-6.2-24.801 4.5-35.601 13.1-4.5 26.9-3.6 40.3-4.399 19.801-1.2 39.601-2.5 59.5-3 2.4-.101 4.601 0 6.7 1.3 3.5 2.3 4.7 6.3 7.2 9.399 9.6 12.101 25.1 10.9 32.8-2.6 2.1-3.6 2.3-8.6 7.3-10.1 18.6-1.8 37.3 2.4 55.9.001zm84 47.399l.1.2c12.2 2.5 23.6-2.3 35.3-3.7 29-3.6 20.7-6.399 41.301 13.7 7.399 7.2 14.699 14.5 15 25.9.1 3.699 2.5 6 6.3 6.5 17-1.7 19.5-3.7 22.7-20.301 2.1-10.5 6-20.199 10.8-29.6 3.3-6.4 7.4-12.6 8.6-19.9-1-13-3.899-18.399-12.1-18.8-12.5-.6-25.1-.6-37.5 2.101-2.5 1.899-3.7 4.6-4.9 7.3-2.899 6.3-7.699 10-14.699 9.6-6.601-.3-10.801-4.2-13.301-10.3-1.3-3.3-2-7.2-6.3-8.1-17.3-.7-34.5-.2-51.4 3.899-.8 2.601-1.5 5.3-2.3 7.9-.7 4.2-2.6 8.1-3.6 12.2-1.4 6.1-2.9 12.3 2.199 17.6.5 0 .9.1 1.301.3 1.499.701 1.099 2.701 2.499 3.501z"/><path fill="#C7C8BC" d="M1480 1098c-3.1-4.199-5.1-8.8-6-13.899.9-3.4 3.9-4.2 6.6-5.4 27.101-12.399 55.4-21.6 82.801-33.3 2.899-1.2 5.8-.6 8.699-1.5 3.9-1.4 7.801-2.9 11.7-4.3 4 .2 6.3 2.899 8.6 5.6 2.601 3.101 5.601 5.2 9.9 5-30.6 14.4-61.4 28.2-93.2 39.7-8.399 3-16.199 7.7-24.899 9.9-1.301-1-3.101-.701-4.201-1.801zm325.2-45.8c4.3-1.8 8.8-2.899 13.399-3.8 3.4-.7 4.9-2 5.5-5.7 2.9-18.5 8.601-36 17-52.7 2.2-4.399 5.2-8.6 4.9-13.899-4.7-3.7-9.3-3.4-14 0-8.4 15.8-18.2 31.2-19.9 49.5-1 10.2-6 14.399-15 15.899-1.6.301-3.3.5-4.899.7-3.601 2.8-8.601 1.3-12.2 4.101 7.6 5.099 15.2 10 25.2 5.899z"/><path fill="#2A2A2A" d="M1694.3 1001.801c9.801-3.101 20.2-3.5 30.2-5.7 7.7-1.7 15.7-2.5 23.5-3.8 3.8-.601 7.2-.301 10.1 2.699 8.2 8.7 17.4 16.4 24.801 26 3.399 4.4 5.899 8.601 5.199 14.4-.399 3.2.2 6.1 4.101 6.7-3.95 3.373-7.7 5.274-12.2 4.1-13.625-4.575-25.7-8.2-38.6-12.399-3.5-1.101-6.801-2.5-10.301-3.7-22.1-7.701-22.1-7.701-36.8-28.3zm-123.8 36c3.3-6.301-.2-9.7-4.7-13.101-12.8-9.899-25.6-19.899-38.199-30.1-3.301-2.7-6.4-2.4-10.2-1.4-16.9 4.7-34.101 8.5-50.8 13.801-18.301 5.8-38.476 11.875-55.976 19.874-.6 12.9 7.375 22.325 13.675 32.625 1.801 1.4 3.4 3.2 5.5 4.2 14.7 6.9 29.5 13.7 44.2 20.5 6.2-2.399 12.5-4.5 18.5-7.2 17.4-8.1 35.769-13.83 53.5-21.1 8.825-3.618 16.375-7.9 26.1-12-2.5-1.7-2.7-4-1.6-6.099z"/><path fill="#86877F" d="M1583.7 1039.7c7.8-10.2 15.699-20.399 23.399-30.7 4-5.3 8-10.5 13.4-14.5 2.3-1.699 3.7-3.6 3.3-6.6-1.699-11.4-2.8-22.9-8-33.5 11.601-.1 23.2 0 34.801-.3 5.1-.101 7 2 7.399 6.899.8 10.9 1.9 21.801 3.101 32.7.3 2.8.1 5.101-2.101 7.2-16.1 16.3-33.8 30.9-50.6 46.4-1.576 1.091-3.4 1.574-6.2 3-9.599 2.502-13.499-5.099-18.499-10.599zm-145.4-77.2c18.801-1.6 37.601-2.1 56.5-2.8 4.2-.2 8.4-2.399 12.601-.1 15.199 3 30 1.2 44.699-3 15.101-1.3 30.301-.4 45.4-.9 4.2-.2 8.6.7 12.6-1.399-8-1.601-16.1.1-24.1-.7-3.6.1-7.3.399-10.9.399-59.1 0-118.199-.1-177.3-.1-3.4 0-6.7.3-12.1.6 5.699 3.101 9.399 5.301 13.199 7.2 2.2 1.101 1.199 1.2 1 2.7 12.9-2.8 24.851-1.547 38.401-1.9zm409.6 8.1c.3-6.4-3.301-11.601-6.5-16.4-2.801-4.2-8-1.899-12.101-1.8-13.6.2-27.3.8-40.899 1.2-27.601.899-55.301-.101-82.801 1.8-4.399.3-8.6.6-11.399 4.7 18-.4 36-3.101 54.1-1.4 11.8 2.3 23.6 5.9 35.6 1.101 10.801-2.9 21.801-1 32.7-1.7 11.101-.8 12.5.5 14.7 11 .5 2.3.6 4.6.9 6.899h14c1.6-1.4 1.6-3.4 1.7-5.4z"/><path fill="#F7F7F7" d="M1410.625 1026.875c2.7 11.601 10.975 21.025 13.575 32.625-.601 1.601-1 5.101-3.301 1.801-2.6-3.801-3.899-8.4-5.699-12.7-5.4-13.3-11.9-26-18.4-38.7-2.1-4-4.492-6.348.109-9.048 5.9 8.1 8.416 17.622 13.716 26.022z"/><path id="cl1" fill="#FCE601" d="M1507.5 959.6c.6-.3 1.1-.9 1.7-.9 14.3-.5 28.6-2.8 43-2.1-.601 6.6-3.301 12.1-8.4 16.3-13.3 10.901-30.7 4.401-36.3-13.3zm242 5.9c2.6 7.4 9.1 12.101 16.4 12.101 7.3 0 13.6-4.5 16.5-12.101.699-1.8.899-3.8 1.3-5.8-11.8-.8-23.7-2.3-35.6-1.1.5 2.4.7 4.701 1.4 6.9z"/></svg>