<svg xmlns="http://www.w3.org/2000/svg" viewBox="0 0 3000 3000"><g id="eyes"><path d="M1787.5 1093.978c-2.4-4.088-3.5-8.477-3.4-13.263.101-17.252-1-34.605.4-51.658 1.198-13.862 1.198-27.725 1.5-41.585.1-4.887-1.2-9.175-4.7-12.666-10-9.673-17.899-21.241-29.101-29.818-5.801-4.486-11-5.383-17.399-3.688-10.3 2.593-20.5 5.484-30.699 8.176-3.5.898-7.101 2.395-10.101-1.097 0-.599 0-1.296.101-1.896 2-2.992 3.699-6.283 6.699-8.576 19.101-14.958 39.5-28.021 61.2-38.893 2.698-1.296 5.5-2.494 8.5-2.593 9.1.396 16.3 4.587 22.898 10.77 16 14.759 27.602 32.211 35.102 52.557 1.898 5.184 2.6 10.271 1.5 15.654-.802 3.191-2.2 6.284-3.9 9.076-13.199 22.737-17.399 47.47-17.301 73.298-.101 15.958-5.924 28.199-21.299 36.202zm-165.266-54.778c-.099-20 .599-39.8-1.892-59.7-1.99-15.5-7.271-28.6-18.122-39.697-13.642-14-28.478-26.603-43.812-38.803-8.963-7.1-18.521-11.3-30.072-10.197-19.518 7.1-39.432 13.197-58.25 22.3-11.053 5.3-21.607 11.397-33.159 15.7-15.334 5.8-28.577 15-41.622 24.6-.1 4-2.689 7.4-2.292 11.5 4.382 3.8 8.862 1.3 13.146.1 29.672-8.6 59.743-15.1 89.813-22.1 5.677-1.3 11.253-1.7 16.231 2 15.135 11.4 31.664 20.8 47.297 31.4 5.977 4.1 9.063 9.697 9.658 16.6 1.295 15 4.284 29.7 6.871 44.4 1.393 7.897.499 15.1-2.988 22.3-3.483 7.2-6.472 14.6-8.959 22.2-1.795 5.6-1.494 5.8 4.181 7.1 4.88-1.7 7.966-5.7 11.353-9.2 13.144-13.5 26.784-26.3 40.926-38.6.399-.801.895-1.503 1.692-1.903z"/><path fill="#C7C8BC" d="M1395.404 953.5c-2.29-5.3-7.667-7.1-11.849-10.197-2.987-2.2-6.274-3.803-6.274-8.2 7.668-5.8 16.331-10.103 24.894-14.3 29.076-14.303 58.849-27 88.722-39.5 9.16-3.803 18.319-7.7 27.185-12 8.662-4.2 17.725-4.7 27.084-4.103 1.096.103 2.189 1.3 3.285 1.9-3.585-.3-6.473.3-7.667 4.3-.796 2.8-2.092 5.6-2.688 8.4-1.193 5.5-3.984 9.999-9.462 11.699-4.978 1.864-7.118 3.916-11.797 5.5-40.578 16.082-78.315 31.898-114.86 54.398-2.092 1.303-4.084 2.503-6.573 2.103zm167.085 157.802c23.502-14.7 47.001-29.303 69.105-46.103 8.363-6.397 17.725-11.5 24.496-19.8-2.59-1.7-5.478-1.9-8.465-2.5-8.362-1.8-17.127-1.2-25.393-3.7-.496 0-.896 0-1.395.103-.896.3-1.691.697-2.487 1.3-9.759 6.5-17.028 15.6-25.392 23.4-8.664 8.1-15.734 17.897-26.287 23.897-15.234 8.801-29.772 19-46.303 25.603 3.883 1.897 6.971 4.197 6.174 9.397-.498 2.7 1.295 4.2 3.981 4.4 10.758-5.399 22.009-9.699 31.966-15.997zm209.136-13.705c4.75 2.714 23.073-2.821 26.573-3.718 13.399-3.191 23.199-17.153 22-31.114-1.801-20.943 2.899-40.589 11.302-59.736 5.698-12.863 12.198-25.929 10.198-40.888-7.101 1.197-12.801 3.989-13.601 12.167-2.199 4.488-4.301 8.975-6.699 13.363-11.101 19.944-15.301 41.484-15.301 64.022 0 6.183.865 13.109-1.227 19.945-3 9.872-10.375 15.458-17.475 22.139-4.156 1.461-15.77 3.221-15.77 3.82zm6.073-217.031c-7.198-.398-13.601 2.094-19.899 5.085-15.899 7.581-29.301 19.049-44.101 28.323-12.198 7.579-17.698 18.948-19.698 32.51 11.698-9.671 23.898-18.748 36.8-26.825 12.601-7.878 24.899-16.354 39.101-21.241 1.801-3.392 3.699-6.783 5.301-10.273 1.399-3.091 3.101-5.684 6.899-5.784-1.101-1.296-2.701-1.695-4.403-1.795z"/><path fill="#E7E6E2" d="M1530.625 1127.1c-2.291 2.7-5.576 2.2-8.362 1.7-17.229-3-34.554-5.303-50.784-12.5-11.451-5.103-23.4-9.303-34.751-14.603-8.961-4.199-17.425-9.5-26.188-14.3-5.477-3-8.266-7.7-11.252-13.1-5.477-9.9-8.962-20.7-15.334-30.103-6.672-9.897-9.459-21.898-15.733-32.2-2.591-4.198.698-9.698 1.394-14.5 2.789-18.3 5.676-36.6 5.478-55.3 0-2.6-.599-5.398 2.091-7.3 6.074 6.7 16.43 8.8 19.717 18.6.498 4.2-.996 8.103-1.693 12.103-5.375 21.3-4.879 41.897 5.277 62.1 5.577 11.2 9.659 23.4 13.044 35.5 2.39 8.4 7.368 13.603 14.937 17.5 29.076 14.801 59.146 26.801 91.908 30.4 8.657 2.003 8.858 9.403 10.251 16.003z"/><path fill="#86877F" d="M1548.449 867c9.559 4 18.121 9.7 26.088 16.2 24.197 19.7 50.285 36.9 72.688 58.8 4.282 4.2 6.772 8.303 7.468 14.4 2.889 27.5 4.283 55 3.686 82.6 0 2.303.1 4.7-2.19 6.303-11.647.3-23.301.197-34.054-5.4-3.188-4-2.589-8.8-2.589-13.398-.2-15.602.298-31.102-1.794-46.699-1.992-15-7.367-27.9-18.022-38.801-12.944-13.302-27.481-24.802-41.424-37-8.763-7.699-19.416-9.102-29.674-12.5 2.989-7.5 7.967-14 10.655-21.802 1.295-3.603 5.18-4.901 9.162-2.703zm288.249 74.199c-7.399-16.255-19.101-29.519-31.101-42.384-6.602-7.08-14-13.263-23.399-16.554-8.399 1.096-11.301 4.787-12.198 16.055 5.5 1.296 11.3 1.695 15.8 5.586 11.399 9.773 22.399 20.144 29.301 33.605 6 11.569 13.699 22.838 13 36.897 2.101-3.49 3.8-7.377 8.601-7.978 2.601-.299 3.301-2.891 5-4.188.298-7.475-2.004-14.355-5.004-21.039z"/><path fill="#2A2A2A" d="M1787.5 1093.978c-7.802 4.488-15.802 5.285-23.7 2.094-17.3-6.781-32-17.452-44.5-31.014-2.3-2.395-5-4.488-7.101-6.981-8.101-9.673-20.199-15.956-22-30.715-1.5-12.765-5-25.032-3-38.394 1.399-9.375.801-19.147 2.899-28.622.899-4.088 2.399-7.629 3.8-12.067 11.801-1.994 23.399-4.887 34.801-8.477 10.699-3.392 19.699-1.796 28.601 5.784 10.2 8.775 18.2 19.247 27.101 29.12 4.301 4.686 4.301 10.867 4.5 16.952.5 25.529-3.199 50.859-2.101 76.39.399 8.276.348 12.988 2.146 21.167.001 1.198 1.489 1.44-1.446 4.763zm-398.369-89.578c0 1.9.996 3.8 1.69 5.7 7.769 20.1 15.833 40.2 22.306 60.8.996 3.3 2.688 5.9 5.873 7.6 31.865 17.603 64.625 32.2 101.468 34.7 4.28-.397 8.465-.397 12.446-2.6 12.049-6.8 23.632-15.591 35.082-23.492-2.889-.3-3.715.292-2.322-2.808a1156.14 1156.14 0 0 0 10.755-25.7c1.992-4.9 4.58-9.7 3.585-15.3-3.188-17.2-6.57-34.4-7.967-52-.596-7.603-4.282-13.2-11.053-17.603-15.832-10.3-32.262-19.6-47.1-31.397-4.68-3.7-9.76-4.3-14.936-3-27.582 6.6-55.164 13.5-82.747 20.1-7.667 1.8-12.703 5.655-20.867 5.455-4.377 12.903-6.313 26.245-6.213 39.545z"/><path id="cl1" fill="#468BCA" d="M1555.745 1019.761c2.039 10.906-27.942 17.767-33.642 25.166-7.301 9.444-1.808 24.684-8.486 31.959-25.092 27.375-21.675-30.646-31.229-37.743-8.45-6.267-40.342 1.795-43.938-11.874-3.396-12.936 20.655-17.49 29.836-19.161 2.936-.523 3.684-45.446 21.61-47.599 17.926-2.153 12.642 29.887 25.494 39.883 5.09 3.961 23.445 8.007 33.577 13.169 3.734 1.893 6.356 3.951 6.778 6.2zm225.346-14.236c-7.649-4.522-21.509-8.066-25.352-11.536-9.704-8.756-5.714-36.823-19.248-34.937-13.535 1.886-14.1 41.237-16.316 41.695-6.932 1.464-25.092 5.454-22.527 16.785 2.715 11.973 26.794 4.911 33.174 10.401 7.213 6.216 4.634 57.042 23.578 33.062 5.043-6.374.896-19.723 6.407-27.996 4.304-6.481 26.94-12.491 25.4-22.045-.319-1.969-2.298-3.772-5.116-5.429z"/><path fill="#231815" d="M1508.076 1022.287c0 4.286-3.619 7.763-8.077 7.763-4.456 0-8.075-3.478-8.075-7.763 0-4.287 3.619-7.753 8.075-7.753 4.458 0 8.077 3.467 8.077 7.753zM1750.216 1013.167c0 3.754-2.732 6.8-6.098 6.8s-6.098-3.046-6.098-6.8c0-3.755 2.732-6.792 6.098-6.792s6.098 3.037 6.098 6.792z"/></g></svg>