<svg xmlns="http://www.w3.org/2000/svg" id="图层_1" viewBox="0 0 3000 3000"><path d="M1787.5 1093.978c-2.4-4.088-3.5-8.477-3.4-13.263.101-17.252-1-34.605.4-51.658 1.196-13.862 1.196-27.725 1.5-41.585.1-4.887-1.2-9.175-4.7-12.666-10-9.673-17.899-21.241-29.101-29.818-5.803-4.484-11-5.383-17.399-3.688-10.3 2.593-20.5 5.482-30.699 8.176-3.5.898-7.101 2.396-10.101-1.097 0-.601 0-1.296.101-1.896 2-2.992 3.699-6.283 6.699-8.576 19.101-14.958 39.5-28.021 61.2-38.893 2.696-1.296 5.5-2.494 8.5-2.593 9.1.396 16.3 4.587 22.896 10.77 16 14.759 27.604 32.211 35.104 52.559 1.896 5.184 2.6 10.271 1.5 15.652-.804 3.191-2.2 6.284-3.9 9.076-13.199 22.737-17.399 47.47-17.301 73.298-.101 15.958-5.924 28.199-21.299 36.202zm-165.266-54.778c-.099-20 .599-39.8-1.892-59.7-1.99-15.5-7.271-28.6-18.122-39.695-13.642-14-28.478-26.604-43.812-38.805-8.965-7.1-18.521-11.3-30.072-10.195-19.52 7.1-39.434 13.195-58.25 22.3-11.053 5.3-21.607 11.396-33.159 15.7-15.334 5.8-28.577 15-41.622 24.6-.1 4-2.689 7.4-2.292 11.5 4.382 3.8 8.862 1.3 13.146.1 29.672-8.6 59.743-15.1 89.813-22.1 5.677-1.3 11.253-1.7 16.231 2 15.135 11.4 31.662 20.8 47.297 31.4 5.977 4.1 9.063 9.695 9.656 16.6 1.297 15 4.284 29.7 6.871 44.4 1.395 7.896.499 15.1-2.986 22.3a177.88 177.88 0 0 0-8.959 22.2c-1.797 5.6-1.494 5.8 4.181 7.1 4.88-1.7 7.966-5.7 11.353-9.2 13.146-13.5 26.784-26.3 40.926-38.6.399-.803.895-1.505 1.692-1.905z"/><path fill="#C7C8BC" d="M1395.404 953.5c-2.29-5.3-7.667-7.1-11.849-10.195-2.987-2.2-6.274-3.805-6.274-8.2 7.668-5.8 16.331-10.104 24.896-14.3 29.074-14.305 58.849-27 88.722-39.5 9.16-3.805 18.319-7.7 27.187-12 8.662-4.2 17.725-4.7 27.084-4.104 1.096.104 2.188 1.3 3.285 1.9-3.586-.3-6.475.3-7.668 4.3-.795 2.8-2.093 5.6-2.688 8.4-1.192 5.5-3.983 9.999-9.462 11.699-4.979 1.862-7.118 3.916-11.797 5.498-40.578 16.082-78.315 31.898-114.86 54.398-2.095 1.304-4.087 2.504-6.576 2.104zm167.085 157.802c23.502-14.7 47.001-29.303 69.105-46.104 8.363-6.396 17.725-11.5 24.496-19.8-2.59-1.7-5.479-1.9-8.465-2.5-8.362-1.8-17.127-1.2-25.395-3.7-.496 0-.896 0-1.396.104-.896.3-1.689.697-2.485 1.3-9.761 6.5-17.028 15.6-25.394 23.4-8.664 8.1-15.732 17.896-26.287 23.896-15.232 8.801-29.771 19-46.303 25.604 3.883 1.896 6.971 4.195 6.174 9.396-.498 2.7 1.295 4.2 3.981 4.4 10.761-5.398 22.011-9.698 31.969-15.996zm209.136-13.705c4.75 2.714 23.071-2.821 26.571-3.718 13.399-3.191 23.199-17.153 22-31.114-1.801-20.943 2.899-40.589 11.304-59.736 5.696-12.863 12.196-25.929 10.196-40.888-7.101 1.197-12.801 3.989-13.601 12.167-2.199 4.488-4.303 8.975-6.699 13.363-11.101 19.942-15.301 41.482-15.301 64.021 0 6.185.863 13.109-1.229 19.945-3 9.872-10.375 15.458-17.475 22.139-4.152 1.462-15.766 3.222-15.766 3.821zm6.073-217.031c-7.197-.398-13.601 2.094-19.897 5.085-15.899 7.581-29.302 19.049-44.103 28.323-12.197 7.579-17.697 18.948-19.697 32.51 11.697-9.671 23.897-18.748 36.801-26.825 12.601-7.878 24.898-16.354 39.101-21.241 1.802-3.392 3.699-6.781 5.302-10.271 1.398-3.091 3.102-5.686 6.898-5.784-1.103-1.298-2.703-1.697-4.405-1.797z"/><path fill="#E7E6E2" d="M1530.625 1127.1c-2.291 2.7-5.576 2.2-8.362 1.7-17.229-3-34.554-5.305-50.784-12.5-11.451-5.104-23.4-9.305-34.751-14.604-8.961-4.199-17.425-9.5-26.188-14.3-5.477-3-8.266-7.7-11.252-13.102-5.477-9.898-8.962-20.698-15.334-30.103-6.672-9.897-9.459-21.898-15.731-32.2-2.593-4.198.696-9.698 1.394-14.5 2.789-18.3 5.678-36.6 5.479-55.3 0-2.6-.599-5.398 2.091-7.3 6.074 6.7 16.43 8.8 19.717 18.6.498 4.2-.996 8.104-1.693 12.104-5.375 21.3-4.879 41.896 5.277 62.1 5.577 11.2 9.659 23.4 13.044 35.5 2.39 8.4 7.368 13.604 14.937 17.5 29.076 14.801 59.146 26.801 91.908 30.4 8.654 2.005 8.855 9.405 10.248 16.005z"/><path fill="#86877F" d="M1548.448 867c9.561 4 18.121 9.7 26.09 16.2 24.195 19.7 50.283 36.9 72.688 58.8 4.281 4.2 6.771 8.305 7.468 14.4 2.89 27.5 4.283 55 3.687 82.6 0 2.305.101 4.7-2.189 6.305-11.646.3-23.301.195-34.054-5.4-3.188-4-2.589-8.8-2.589-13.396-.2-15.604.298-31.104-1.794-46.699-1.992-15-7.367-27.9-18.022-38.801-12.943-13.304-27.479-24.804-41.424-37-8.763-7.699-19.416-9.104-29.674-12.5 2.989-7.5 7.967-14 10.655-21.804 1.292-3.605 5.177-4.903 9.158-2.705zm288.25 74.199c-7.397-16.255-19.101-29.519-31.101-42.384-6.603-7.08-14-13.263-23.399-16.554-8.397 1.096-11.301 4.787-12.197 16.055 5.5 1.296 11.301 1.695 15.801 5.586 11.398 9.773 22.398 20.146 29.301 33.605 6 11.567 13.699 22.838 13 36.896 2.102-3.49 3.8-7.377 8.602-7.978 2.602-.301 3.301-2.893 5-4.188.295-7.474-2.007-14.352-5.007-21.038z"/><path fill="#2A2A2A" d="M1787.5 1093.978c-7.804 4.488-15.804 5.285-23.7 2.094-17.3-6.781-32-17.452-44.5-31.014-2.3-2.396-5-4.488-7.101-6.981-8.103-9.673-20.199-15.956-22-30.715-1.5-12.765-5-25.032-3-38.394 1.397-9.375.801-19.147 2.897-28.622.897-4.088 2.397-7.629 3.8-12.067 11.803-1.994 23.399-4.887 34.803-8.477 10.697-3.394 19.697-1.796 28.601 5.784 10.2 8.773 18.2 19.247 27.101 29.12 4.301 4.686 4.301 10.865 4.5 16.95.5 25.529-3.199 50.859-2.101 76.392.399 8.274.348 12.988 2.146 21.167.001 1.198 1.489 1.44-1.446 4.763zm-398.369-89.578c0 1.9.996 3.8 1.688 5.7 7.771 20.1 15.833 40.2 22.308 60.8.996 3.3 2.688 5.9 5.873 7.6 31.863 17.604 64.625 32.2 101.468 34.7 4.28-.396 8.465-.396 12.446-2.6 12.049-6.8 23.631-15.591 35.082-23.492-2.891-.3-3.715.292-2.322-2.808 3.686-8.5 7.271-17.104 10.755-25.7 1.991-4.9 4.58-9.7 3.585-15.3-3.188-17.2-6.57-34.4-7.967-52-.596-7.604-4.282-13.2-11.053-17.604-15.832-10.3-32.264-19.6-47.102-31.396-4.682-3.7-9.76-4.3-14.938-3-27.582 6.6-55.164 13.5-82.746 20.1-7.668 1.8-12.702 5.655-20.866 5.455-4.375 12.905-6.311 26.245-6.211 39.545z"/><path id="cl1" fill="#F7931E" d="M1486.813 1107.562c-.452-.604-4.322-7.468-4.75-8.063-11.494-15.995-8.819-27.354-7.311-45.971 2.471 6.347 4.848 11.935 10.881 16.228 3.03 2.157 8.984 3.457 12.67 5.673.733.907 1.575 1.675 2.548 2.255-.56-.864-1.455-1.599-2.548-2.255-5.369-6.658-4.619-21.067-2.637-27.751 4.104-13.834 8.675-25.853 3.789-40.22-1.832-5.395-6.977-17.402 1.795-9.262 4.328 4.019 7.6 8.409 10.117 13.739 1.424 3.007 2.25 7.059 3.926 9.675 1.048-2.875.745-6.275 1.385-9.346 1.281-6.149 4.526-11.22 7.58-16.594 3.373-5.931 7.23-11.985 9.546-18.43 1.3-3.627 1.079-9.079 3.307-12.071 1.73 7.048 4.828 13.98 4.953 21.342.249 14.452-9.192 25.883-10.099 39.772-.623 9.549 3.299 23.427 12.287 28.695 8.199 4.805 16.663-4.24 18.785-11.872-.458 4.653.826 9.405.304 14.14-.952 8.621-4.915 18.285-8.36 26.158-3.023 6.904-2.894 9.556-7.936 18.349-1.857 1.496-13.759 8.699-14.131 8.847-3.753 1.49-4.514 1.676-7.784 2.195-11.263 1.788-26.667-1.735-38.317-5.233zm279.078-10.739c4.548 1.425 7.544 2.044 13.315.506.315-.084 5.109-1.785 5.423-1.872 4.084-7.902 5.015-19.829 7.464-26.034 2.791-7.075 6.001-15.76 6.772-23.507.423-4.255-.617-8.525-.246-12.707-1.719 6.858-8.575 14.987-15.217 10.669-7.28-4.734-10.457-17.206-9.953-25.788.734-12.482 8.382-22.754 8.181-35.742-.102-6.616-2.61-12.845-4.013-19.179-1.804 2.689-1.625 7.589-2.678 10.848-1.876 5.792-5.001 11.232-7.732 16.563-2.475 4.829-5.103 9.387-6.141 14.913-.518 2.76-.272 5.814-1.122 8.398-1.357-2.351-2.026-5.992-3.18-8.694-2.039-4.79-4.689-8.735-8.195-12.347-7.104-7.315-2.938 3.476-1.454 8.324 3.958 12.911.255 23.711-3.069 36.144-1.605 6.006-2.213 18.956 2.136 24.939.886.59 1.611 1.25 2.064 2.027-.788-.521-1.47-1.211-2.064-2.027-2.985-1.992-7.808-3.16-10.263-5.098-4.887-3.858-6.813-8.88-8.813-14.583-1.223 16.731-6.136 20.593 4.457 34.049 2.313 2.938 12.563 9.563 13.923 10.274 7.967 4.504 11.327 7.079 20.405 9.924z"/></svg>