<svg xmlns="http://www.w3.org/2000/svg" id="eye" viewBox="0 0 3000 3000"><path fill="#C7C8BC" d="M1395.073 954.176c-2.291-5.256-7.67-7.04-11.854-10.112-2.989-2.182-6.277-3.771-6.277-8.132 7.671-5.751 16.339-10.02 24.905-14.182 29.09-14.183 58.876-26.771 88.764-39.168 9.164-3.77 18.33-7.637 27.197-11.896 8.666-4.165 17.731-4.66 27.095-4.068 1.1.104 2.191 1.289 3.289 1.889-3.588-.299-6.479.295-7.672 4.262-.797 2.775-2.091 5.554-2.688 8.331-1.193 5.452-4.084 9.221-9.563 10.907-2.293 4.164-6.677 5.255-10.66 6.644-40.545 13.783-79.397 31.136-115.962 53.448-2.09 1.283-4.082 2.472-6.574 2.077zm133.195 173.031c11.355-5.352 23.212-9.813 33.771-16.459 23.512-14.574 47.117-29.152 69.233-45.813 8.368-6.345 17.731-11.403 24.604-19.73-2.59-1.688-5.479-1.886-8.469-2.479-8.365-1.786-17.135-1.188-25.402-3.669-.498 0-.896 0-1.396.099a8.52 8.52 0 0 0-2.487 1.291c-9.767 6.446-17.037 15.472-25.507 23.305-8.666 8.028-15.739 17.746-26.396 23.695-16.14 9.424-31.082 21.223-50.109 25.188 1.593 2.875 6.076.496 7.271 3.669 0 4.854-5.082 7.239-4.979 11.898 3.391-.004 6.777.392 9.866-.995zm259.092-32.27c3.48.895 6.464-.892 9.649-1.688 14.122-3.479 24.067-16.894 22.778-31.196-1.793-20.865 2.881-40.438 11.236-59.516 5.571-12.813 12.137-25.83 10.146-40.633-7.063 1.19-12.732 3.977-13.527 12.118-2.188 4.471-4.275 8.941-6.666 13.313-11.04 19.871-15.22 41.33-15.22 63.782 0 6.16 1.095 13.019-2.091 18.479-4.773 8.248-9.351 16.792-16.514 23.447.109.702.209 1.301.209 1.894zm-9.75-214.402c-7.16-.396-13.527 2.086-19.794 5.066-15.817 7.552-29.147 18.978-43.871 28.216-12.133 7.551-17.604 18.877-19.593 32.389 11.636-9.636 23.771-18.678 36.605-26.724 12.531-7.85 24.769-16.295 38.894-21.162 1.792-3.379 3.681-6.758 5.271-10.234 1.396-3.08 3.086-5.66 6.865-5.764-1.095-1.289-2.685-1.687-4.377-1.787z"/><path fill="#86877F" d="M1548.193 868.4c9.265 3.967 17.631 9.322 25.304 15.568 24.506 19.633 50.907 37.085 73.618 59 3.984 3.868 6.479 7.635 7.273 13.387 3.387 24.89 5.081 49.877 5.179 75.064 0 4.759.799 10.015-3.686 13.781-11.654.299-23.313.197-34.069-5.354-3.187-3.966-2.59-8.727-2.59-13.288-.197-15.468.3-30.838-1.793-46.307-1.992-14.873-7.371-27.666-18.032-38.479-12.95-13.188-27.496-24.59-41.443-36.688-8.766-7.635-19.426-9.023-29.686-12.396 2.988-7.438 7.968-13.883 10.658-21.616 1.397-3.562 5.281-4.853 9.267-2.672zm288.106 72.541c-7.359-16.194-19-29.408-30.938-42.225-6.563-7.053-13.927-13.213-23.274-16.492-8.354 1.093-11.24 4.769-12.138 15.996 5.474 1.291 11.241 1.688 15.72 5.563 11.342 9.735 22.278 20.068 29.146 33.479 5.969 11.522 13.627 22.752 12.935 36.76 2.088-3.478 3.777-7.352 8.552-7.947 2.589-.299 3.284-2.88 4.976-4.171.293-7.449-1.997-14.305-4.979-20.963z"/><path fill="#E7E6E2" d="M1518.504 1128.002c-7.471-2.576-15.44-3.173-23.111-4.856-16.637-3.669-31.78-10.908-47.421-17.058-14.146-5.553-27.396-12.892-40.347-20.923-3.486-2.18-5.68-4.855-7.371-8.726-4.98-10.712-10.361-21.318-16.338-31.434-6.178-10.514-9.563-22.41-15.939-32.821-2.49-4.068.698-9.619 1.395-14.28 2.791-18.146 5.681-36.292 5.479-54.736 0-2.574-.599-5.353 2.093-7.236 6.077 6.644 16.438 8.726 19.729 18.345.496 4.166-.997 8.032-1.694 11.998-4.979 20.429-5.079 40.161 4.386 59.795 6.176 13.088 10.856 26.873 15.34 40.756 1.994 6.147 6.178 9.718 11.654 12.691 28.293 14.873 57.979 25.782 89.659 31.038 12.052 4.162 12.549 7.534 2.486 17.447z"/><path fill="#2A2A2A" d="M1787.36 1094.937c-7.759 4.572-15.717 3.479-23.576.298-17.207-6.756-31.83-17.387-44.265-30.899-2.287-2.383-4.976-4.47-7.065-6.952-8.055-9.639-20.09-15.996-21.979-30.603-1.595-12.717-4.873-25.037-2.982-38.251 1.394-9.339.798-19.076 2.888-28.515.894-4.073.795-8.544 3.776-12.021 10.545-1.486 20.894-3.578 30.836-7.352 13.529-5.067 25.173-3.278 35.216 7.451 4.379 4.769 10.741 7.948 12.232 15.102 12.563 12.68 18.938 25.18 15.318 46.797.896 14.106-1.592 28.116-.993 42.227.598 13.113-.397 26.328 1.987 39.346-.003 1.487-.499 2.483-1.393 3.372zM1546.1 961.414c-4.086.197-7.571-.893-11.059-3.369-6.875-5.157-14.246-9.521-21.021-14.775-4.88-3.771-10.16-4.659-15.839-3.273-27.795 6.743-55.888 12.692-83.483 20.229-7.271 1.981-14.146 5.552-22.017 5.157-3.388 8.726-3.288 18.045-3.985 27.168-.697 8.429.797 16.262 4.084 24.097 7.174 17.055 13.749 34.31 19.327 51.958 1.595 5.157 4.483 8.229 9.065 10.908 15.242 8.924 31.775 14.772 47.918 21.518 15.242 6.345 31.082 9.021 47.121 11.204 5.777-.694 11.653.596 17.334-2.776 11.653-6.843 23.512-13.387 34.47-21.221-2.789-.297-4.084-1.387-2.789-4.563 3.687-8.329 7.173-16.855 10.659-25.284 1.894-4.464 4.584-8.925 3.787-13.983-1.695-10.608-3.787-21.121-5.779-31.63-.643-15.449-7.393-36.779-27.793-51.365z"/><path d="M1770.834 964.919c-6.468-8.445-13.914-15.827-21.871-22.686-4.278-3.674-9.451-2.382-14.127-1.188-10.244 2.581-20.291 5.359-30.535 8.145-3.482.896-7.063 2.386-10.049-1.092 0-.597 0-1.291.101-1.889 1.989-2.98 3.681-6.263 6.664-8.546 19.001-14.9 39.292-27.916 60.878-38.745 2.688-1.291 5.47-2.483 8.456-2.582 9.051.396 16.214 4.567 22.776 10.729 15.918 14.705 27.455 32.09 34.916 52.359 1.891 5.167 2.589 10.231 1.49 15.599-.797 3.177-2.188 6.259-3.88 9.04-13.13 22.653-17.308 47.292-17.209 73.024.103 16.095-7.854 27.816-21.087 36.165-2.688-5.768-3.582-11.823-3.479-18.082.1-15.104.1-30.203.1-45.308 0-7.254 2.885-14.105 1.989-21.461-.099-3.478.384-7.99-.302-11.071-1.832-8.247-4.166-13.997-8.666-22.914-1.482-2.941-4.575-6.119-6.165-9.497zm-148.823 74.234c-.101-19.833.599-39.466-1.892-59.199-1.992-15.366-7.273-28.357-18.134-39.361-13.647-13.886-28.489-26.378-43.834-38.479-8.966-7.041-18.526-11.205-30.085-10.113-19.523 7.04-39.449 13.09-58.275 22.112-11.061 5.255-21.617 11.302-33.177 15.569-15.341 5.75-27.329 13.957-40.38 23.474-1.96 3.155-3 6.993-3.553 12.321 4.284 3.669 8.77 1.388 13.148.098 28.49-8.328 57.682-14.08 86.473-21.418 9.859-2.478 17.732-.595 25.803 5.455 8.27 6.148 16.395 10.514 26.455 17.264 4.521 3.938 8.009 7.896 9.063 9.938 1.209 2.346 1.209 2.346 6.688 12.063 5.58 9.916 4.625 7.875 7.25 14.75 1.438 3.125 3.188 6.438 4.74 9.941 0 5.553.995 11.105 2.291 16.461 2.889 11.899 2.389 23.105-3.886 34.11-3.188 5.649-5.479 11.897-7.172 18.246-.896 3.37-1.796 7.634 4.479 6.047 4.881-1.688 7.969-5.652 11.356-9.122 13.147-13.386 26.799-26.078 40.943-38.276.405-.788.903-1.482 1.699-1.881z"/><path id="cl1" fill="#FFC500" d="M1555.346 984.068l-71.559 5.364-.76-10.145 71.559-5.364.76 10.145zm.674 8.988l-71.559 5.364.76 10.144 71.559-5.364-.76-10.144zm1.433 19.132l-71.559 5.364.761 10.145 71.559-5.364-.761-10.145zm215.685-33.207l-61.87-4.746-.778 10.144 61.87 4.746.778-10.144zm-1.468 19.131l-61.87-4.746-.778 10.143 61.87 4.746.778-10.143zm-1.468 19.129l-61.87-4.745-.777 10.143 61.87 4.746.777-10.144z"/></svg>