<svg xmlns="http://www.w3.org/2000/svg" id="eye" viewBox="0 0 3000 3000"><path fill="#C7C8BC" d="M1395.074 954.173c-2.291-5.255-7.67-7.04-11.854-10.112-2.989-2.182-6.277-3.77-6.277-8.132 7.671-5.751 16.339-10.017 24.905-14.179 29.09-14.183 58.876-26.773 88.764-39.169 9.164-3.769 18.33-7.636 27.197-11.898 8.666-4.165 17.732-4.66 27.095-4.068 1.099.101 2.191 1.289 3.289 1.886-3.588-.298-6.477.296-7.672 4.262-.797 2.777-2.091 5.554-2.688 8.331-1.194 5.453-4.084 9.221-9.563 10.907-2.293 4.165-6.677 5.255-10.66 6.644-40.545 13.783-79.399 31.136-115.962 53.448-2.091 1.286-4.083 2.478-6.574 2.08zm133.194 173.034c11.356-5.352 23.212-9.815 33.771-16.46 23.512-14.576 47.12-29.154 69.236-45.812 8.368-6.345 17.733-11.403 24.604-19.731-2.589-1.687-5.477-1.885-8.467-2.48-8.366-1.786-17.135-1.19-25.404-3.669-.498 0-.896 0-1.394.099a8.495 8.495 0 0 0-2.489 1.291c-9.765 6.446-17.037 15.469-25.505 23.302-8.666 8.031-15.741 17.747-26.399 23.698-16.139 9.421-31.081 21.22-50.109 25.187 1.592 2.875 6.076.496 7.271 3.669 0 4.857-5.081 7.239-4.981 11.899 3.391-.002 6.777.394 9.866-.993zm259.092-32.27c3.48.895 6.464-.892 9.649-1.688 14.122-3.478 24.068-16.891 22.778-31.196-1.792-20.865 2.882-40.437 11.239-59.513 5.571-12.815 12.135-25.832 10.146-40.633-7.063 1.19-12.733 3.974-13.528 12.118-2.188 4.471-4.277 8.941-6.666 13.313-11.04 19.872-15.22 41.331-15.22 63.784 0 6.16 1.095 13.016-2.089 18.479-4.775 8.248-9.35 16.792-16.513 23.448.104.696.204 1.294.204 1.888zm-9.75-214.402c-7.16-.399-13.528 2.086-19.794 5.066-15.817 7.552-29.147 18.978-43.871 28.216-12.133 7.551-17.604 18.877-19.593 32.389 11.636-9.636 23.772-18.678 36.605-26.724 12.534-7.85 24.769-16.295 38.894-21.162 1.792-3.379 3.68-6.758 5.271-10.235 1.395-3.08 3.085-5.662 6.865-5.763-1.095-1.289-2.685-1.688-4.377-1.787z"/><path fill="#86877F" d="M1548.193 868.4c9.264 3.967 17.631 9.322 25.304 15.568 24.506 19.633 50.907 37.085 73.618 59 3.984 3.868 6.477 7.635 7.273 13.387 3.387 24.89 5.081 49.877 5.179 75.064 0 4.759.799 10.015-3.685 13.784-11.655.297-23.312.197-34.07-5.355-3.187-3.966-2.59-8.725-2.59-13.288-.197-15.468.3-30.838-1.793-46.307-1.992-14.873-7.371-27.666-18.032-38.476-12.95-13.188-27.496-24.59-41.443-36.689-8.766-7.633-19.426-9.023-29.686-12.394 2.988-7.439 7.968-13.883 10.658-21.617 1.397-3.569 5.282-4.858 9.267-2.677zm288.106 72.541c-7.359-16.194-19-29.408-30.936-42.225-6.566-7.053-13.927-13.213-23.277-16.492-8.354 1.093-11.24 4.769-12.135 15.996 5.472 1.291 11.241 1.689 15.718 5.565 11.341 9.735 22.28 20.068 29.146 33.479 5.969 11.525 13.627 22.752 12.933 36.76 2.088-3.478 3.779-7.352 8.552-7.947 2.588-.299 3.285-2.88 4.975-4.171.296-7.451-1.993-14.307-4.976-20.965z"/><path fill="#E7E6E2" d="M1518.505 1128.002c-7.471-2.579-15.441-3.173-23.112-4.859-16.637-3.669-31.78-10.908-47.421-17.056-14.146-5.552-27.396-12.891-40.346-20.922-3.487-2.18-5.678-4.858-7.371-8.726-4.981-10.712-10.362-21.318-16.339-31.434-6.175-10.511-9.563-22.41-15.939-32.821-2.49-4.068.698-9.619 1.395-14.28 2.79-18.146 5.678-36.292 5.479-54.736 0-2.577-.598-5.353 2.092-7.239 6.078 6.644 16.438 8.726 19.727 18.345.497 4.166-.997 8.032-1.694 11.998-4.982 20.429-5.08 40.161 4.384 59.795 6.176 13.088 10.858 26.873 15.34 40.756 1.993 6.147 6.177 9.717 11.655 12.691 28.294 14.873 57.98 25.782 89.66 31.038 12.055 4.162 12.552 7.534 2.49 17.45z"/><path fill="#2A2A2A" d="M1787.36 1094.937c-7.759 4.572-15.717 3.478-23.576.298-17.207-6.756-31.83-17.387-44.265-30.899-2.287-2.383-4.975-4.47-7.065-6.955-8.055-9.636-20.09-15.996-21.982-30.6-1.592-12.717-4.873-25.037-2.982-38.251 1.391-9.339.796-19.076 2.885-28.515.894-4.073.796-8.544 3.779-12.021 10.545-1.489 20.891-3.578 30.836-7.352 13.529-5.067 25.17-3.278 35.214 7.451 4.379 4.769 10.743 7.949 12.234 15.102-5.571 5.066-13.626 6.061-18.999 11.923-2.884 3.079-6.068-.102-8.653-2.089-12.833-9.438-22.681-8.543-31.733 2.785-7.559 9.537-5.271 22.354 5.671 31.493 9.349 7.85 21.883 11.128 30.041 20.966 2.485 2.88 4.775-.3 6.466-2.186 7.061-7.85 16.809-11.724 25.366-17.288 2.584-1.688 5.471-3.179 7.161 1.193.894 14.106-1.592 28.116-.995 42.224.598 13.115-.397 26.329 1.989 39.346-.002 1.488-.498 2.483-1.392 3.375zm-243.352-65.7c-4.781 2.975-7.371 10.513-12.353 10.71-5.679.299-8.27-7.635-13.251-10.909-4.98-3.272-10.161-6.247-15.241-9.319-3.985-2.38-7.97-4.759-11.357-7.933-13.548-12.097-14.743-27.565-3.188-40.06 11.654-12.593 23.413-12.396 37.557.694 2.191 2.083 4.98 5.058 7.471 2.083 3.984-4.562 10.761-6.446 12.454-13.089-4.086.197-7.571-.893-11.059-3.372-6.874-5.157-14.246-9.52-21.021-14.775-4.88-3.769-10.16-4.659-15.839-3.273-27.795 6.743-55.888 12.692-83.483 20.228-7.272 1.984-14.146 5.552-22.017 5.157-3.387 8.726-3.288 18.045-3.985 27.168-.697 8.429.797 16.262 4.084 24.097 7.173 17.055 13.749 34.31 19.327 51.958 1.594 5.157 4.483 8.23 9.065 10.908 15.242 8.924 31.778 14.775 47.918 21.518 15.242 6.345 31.082 9.022 47.122 11.204 5.779-.694 11.655.596 17.333-2.776 11.656-6.843 23.512-13.387 34.47-21.221-2.789-.297-4.084-1.387-2.789-4.561 3.686-8.331 7.173-16.857 10.659-25.286 1.894-4.462 4.584-8.924 3.787-13.983-1.695-10.608-3.787-21.121-5.779-31.63-11.355 2.877-20.321 10.414-29.885 16.462z"/><path d="M1771.941 963.793c-6.466-8.445-15.021-14.704-22.978-21.56-4.278-3.674-9.451-2.382-14.127-1.189-10.244 2.582-20.291 5.362-30.535 8.145-3.482.895-7.063 2.386-10.048-1.092 0-.597 0-1.291.1-1.889 1.989-2.98 3.68-6.26 6.664-8.544 19.001-14.902 39.292-27.917 60.878-38.747 2.687-1.291 5.47-2.483 8.456-2.582 9.051.396 16.214 4.57 22.777 10.729 15.917 14.705 27.454 32.09 34.915 52.359 1.891 5.167 2.589 10.234 1.491 15.599-.795 3.177-2.188 6.259-3.878 9.04-13.13 22.653-17.308 47.292-17.209 73.024.101 16.095-7.857 27.819-21.087 36.165-2.685-5.765-3.582-11.823-3.48-18.082.099-15.101.099-30.203.099-45.305 0-7.254 2.885-14.108 1.989-21.461-.099-3.478 2.188-6.06 3.682-8.841 6.364-12.223 2.487-24.145-9.751-30.303-2.886-1.591-6.368-2.088-7.958-5.466zm-149.93 75.36c-.1-19.833.599-39.466-1.892-59.199-1.991-15.369-7.273-28.36-18.131-39.364-13.649-13.883-28.491-26.378-43.834-38.477-8.966-7.041-18.529-11.205-30.085-10.113-19.525 7.04-39.451 13.087-58.278 22.112-11.058 5.255-21.617 11.302-33.175 15.569-15.34 5.75-27.33 13.957-40.379 23.474-1.96 3.155-3 6.993-3.553 12.321 4.284 3.669 8.767 1.388 13.15.098 28.491-8.328 57.68-14.08 86.471-21.418 9.862-2.478 17.734-.595 25.803 5.455 8.268 6.148 16.039 13.981 27.495 14.577 2.292.1 4.683.1 6.974-.101 11.356-.595 20.025 4.067 25.504 13.784 5.58 9.917 4.184 19.633-2.391 28.657-1.596 2.18-3.088 4.263-3.387 7.04 0 5.553.996 11.105 2.291 16.461 2.889 11.899 2.389 23.105-3.885 34.11-3.188 5.652-5.479 11.899-7.172 18.246-.897 3.37-1.795 7.634 4.481 6.047 4.881-1.686 7.969-5.652 11.357-9.122 13.149-13.386 26.798-26.078 40.945-38.276.397-.788.895-1.483 1.691-1.881z"/><path id="cl1" fill="#FF81C0" d="M1771.941 963.793c2.885.895 5.771 1.491 8.454 2.683 15.12 6.955 19.399 23.943 9.352 37.257-1.193 1.59-2.587 2.98-3.878 4.472-4.476 2.781-8.953 5.562-13.528 8.245-11.34 6.458-13.827 8.643-22.086 19.771-5.47-11.425-16.013-16.294-26.059-21.857-4.977-2.683-9.552-5.961-13.032-10.533-11.539-14.902-2.786-36.761 15.916-39.741 7.359-1.191 13.727.797 18.801 6.458 1.491 1.69 2.287 4.075 5.172 5.268 4.772-7.652 11.637-12.023 20.888-12.023zm-193.564 44.026c10.359-13.684 7.373-31.533-6.673-41.449-7.772-5.452-16.339-6.445-25.405-4.66-6.376 3.073-10.858 8.031-15.042 14.082-2.192-2.876-3.788-5.356-5.78-7.538-4.881-5.552-11.257-8.627-18.529-8.033-12.153 1.091-21.318 7.338-26.3 18.445-4.881 10.907-2.889 21.319 4.583 30.639 4.683 5.751 10.86 9.818 17.333 13.09 11.456 5.95 22.515 12.294 28.79 25.681 5.38-10.51 12.852-16.857 21.518-22.011 7.074-4.164 14.146-8.529 21.22-12.892 1.396-1.785 2.889-3.57 4.285-5.354z"/></svg>