<svg xmlns="http://www.w3.org/2000/svg" id="图层_1" viewBox="0 0 3000 3000"><path fill="#C7C8BC" d="M1400.967 1014.352c6.481-10.837 14.758-20.324 22.436-30.225 8.377-10.943 19.446-18.656 30.415-26.371 5.383-3.752 11.665-4.582 17.847-5.836 14.559-3.021 29.118-5.941 43.376-10.213 12.863-3.857 24.331-10.423 35.7-17.614 15.059-9.378 28.118-21.469 41.979-32.622 5.586 11.257 10.17 22.826 7.879 36.061-16.553 19.177-37.796 30.122-61.026 37.105-15.259 4.69-30.812 8.651-46.667 10.527-23.831 2.919-42.379 14.799-57.537 33.457-7.875 8.131-12.166 19.282-20.439 27.099-7.482-5.108-14.262-10.737-13.963-21.368zm113.675 114.544c1.098-1.25 2.891-.833 4.091-1.875 22.533-5.42 43.075-15.946 62.221-29.079 21.04-14.385 39.885-31.998 60.627-46.901 5.286-3.752 11.466-7.19 14.659-13.654-.896-1.563-2.394-2.083-4.09-2.397-9.275-1.356-18.548-2.711-27.919-4.065-.498 0-.897.104-1.396.104a11.31 11.31 0 0 0-2.494 1.251c-16.154 13.549-31.01 28.559-45.769 43.671-16.254 12.194-33.004 23.346-52.052 30.226 1.598 1.876 4.291 2.919 1.099 6.255-4.488 4.69-9.173 9.587-10.969 16.363a4.416 4.416 0 0 0 1.992.101zm292.789-113.283c-1.106 8.781-3.118 17.46-2.517 26.539.703 10.673-1.106 20.951-8.755 29.531-4.326 4.889-7.944 10.576-11.87 15.862 2.517.201 4.529-1.197 6.54-2.294 16.803-9.379 29.579-21.053 27.771-42.7-1.309-16.265 4.426-31.327 10.665-46.092 5.836-13.77 12.577-27.236 11.067-42.803-1.308 1.397-2.415 3.595-4.022 4.094-5.132 1.693-7.748 5.586-9.962 9.977-8.051 15.36-16.704 30.427-18.917 47.886zm-80.793-160.527c-17.409 14.367-24.045 33.922-26.563 55.373 3.521-8.48 8.553-16.263 12.476-24.443 4.831-10.176 12.575-15.863 23.342-18.057 2.717-5.488 2.615-11.772 4.327-17.561-5.533-1.395-9.757 1.596-13.582 4.688z"/><path fill="#86877F" d="M1598.502 926.803c1.299-5.626-.2-10.837-1.594-16.153-1.697-6.358-3.89-12.507-4.289-19.177 5.982-1.667 11.167 1.146 16.154 3.856 13.561 7.296 26.822 14.798 36.495 28.034 5.085 6.984 7.38 14.698 8.576 22.828 4.29 27.098 4.688 54.509 6.285 81.816.197 3.544 1.394 8.024-3.79 9.276-11.07-1.147-22.536.207-32.508-6.567-2.89-4.689-2.294-9.9-2.192-15.007.299-19.281-.999-38.459-3.19-57.636-1.698-14.383-6.184-25.641-19.947-31.27zm241.83 26.955c-1.109-16.265-9.558-29.133-19.016-41.804-11.874-15.862-26.262-29.133-41.654-41.104-11.571-9.079-24.249-17.66-39.439-20.453-4.933 4.988-5.838 10.974-4.33 17.561 12.879 1.396 22.641 9.078 32.599 16.262 23.845 17.259 43.868 37.412 54.635 65.546 2.413 6.185 3.621 11.869 3.218 18.155 6.441-3.09 11.571-7.281 13.987-14.163z"/><path fill="#E7E6E2" d="M1400.967 1014.352c2.792 8.337 9.174 14.071 13.961 20.953.6.728.896 1.665.997 2.606-.3 4.793-1.197 9.589 1.496 13.964 3.19 12.3 11.069 19.389 22.038 24.6 26.524 12.716 53.348 23.866 82.463 27.828 5.985 2.397 6.186 6.045 2.392 10.942-3.688 4.692-6.878 9.904-11.563 13.758-8.277-.417-15.556-4.484-23.134-7.088-11.568-4.063-23.134-8.546-34.103-13.965-15.854-7.818-31.311-16.362-46.768-25.118-4.087-2.293-6.282-6.984-7.578-11.675-2.095-7.922-3.691-16.154-6.183-23.972-3.989-12.3-1.596-23.035 5.982-32.833z"/><path d="M1766.281 1087.344c.806-1.099 1.408-2.394 2.413-3.193 11.269-9.376 16.903-21.051 18.814-35.815 2.617-20.852 3.724-41.603 2.516-62.354-.502-9.178-5.33-17.561-10.36-25.542-7.647-12.271-17.609-22.447-28.575-31.726-12.978-10.974-27.567-9.576-42.659-5.188-3.322.999-7.145 4.989-10.868.2-.807-4.688 2.112-8.679 2.616-13.169 2.416-12.271 8.252-23.144 15.193-33.221 4.732-6.785 12.276-10.177 20.524-11.274 7.246-.099 13.786 2.593 19.722 6.384 30.083 19.354 56.344 42.001 69.926 76.322 2.618 6.683 4.427 13.068 2.918 20.152-5.936 15.662-16.602 29.532-18.212 46.992-.806 9.179-3.722 18.257-3.018 27.535 1.509 19.555-7.849 33.421-22.941 44.396-6.037.997-12.074.997-18.009-.499zm-143.647-54.126a9.349 9.349 0 0 1 1.796-2.188c.598-21.783.997-43.568-2.297-65.143-1.394-9.172-1.195-18.655-5.085-27.306-4.387-9.589-8.674-12.403-18.446-11.674-19.145 19.071-41.88 31.268-67.506 37.415-16.454 3.961-33.007 7.295-49.56 10.529-20.739 4.063-36.095 16.153-48.362 33.456 5.587 2.502 9.972-1.563 14.759-3.021 31.711-9.901 63.322-20.218 97.222-18.239 9.574.521 18.247 3.126 26.726 7.088 6.681 3.019 11.466 8.229 14.355 15.215 6.282 14.697 6.382 29.602.398 44.297-2.493 6.046-5.185 11.984-8.974 17.404-1.197 1.667-3.392 3.857-.599 6.254 15.261-14.592 29.518-30.329 45.573-44.087z"/><path fill="#2A2A2A" d="M1766.281 1087.344c-12.978-2.893-24.248-9.18-34.009-17.958-8.352-7.583-16.904-15.064-24.551-23.446-15.19-16.56-23.643-35.716-21.127-58.76 1.711-15.863 3.32-31.728 7.647-47.09 1.509-5.387.604-11.274 3.42-16.461.703-.102 1.309-.199 1.913-.399 28.575-12.072 51.111-3.89 70.125 19.154 14.69 17.758 24.953 36.215 23.846 60.458-.806 17.958-1.609 35.816-4.628 53.477-2.415 13.766-9.555 24.641-22.636 31.025zm-176.054-35.47c9.274-31.267.099-64.304-41.981-67.33-40.285-2.918-77.976 9.172-115.072 23.763-7.28 8.024-14.06 16.467-18.146 26.89 0 .729-.099 1.356-.099 2.084-1.098 4.899-1.198 9.695 0 14.591 1.393 3.856 2.89 7.712 4.089 11.674.997 3.126 2.392 5.523 5.282 7.192 30.813 17.927 62.722 32.623 98.421 35.646 3.59-.938 7.38.833 10.769-.938 15.159-8.337 30.215-16.781 43.677-28.037 3.987-8.754 10.268-16.155 13.06-25.535z"/><path id="cl1" fill="#FBE601" d="M1751.894 972.312c7.946 0 14.688 6.784 14.588 14.666-.099 7.882-6.941 14.668-14.79 14.566-7.849 0-14.689-6.882-14.689-14.766.1-7.88 6.84-14.466 14.891-14.466zm-197.763 37.666c.295-11.152-8.477-20.742-19.147-21.053-10.568-.313-19.942 9.171-19.942 20.216-.098 11.466 8.476 20.324 19.645 20.324 10.469 0 19.143-8.649 19.444-19.487z"/></svg>