<svg xmlns="http://www.w3.org/2000/svg" id="eyes" viewBox="0 0 3000 3000"><path fill="#E7E6E2" d="M1398.075 1007.018c4.743 6.746 11.708 12.003 14.434 20.232 4.139 4.859 1.515 11.306 3.936 16.562.808 8.727 6.159 13.985 13.827 17.853 27.252 14.082 54.609 27.77 85.996 30.546a11.584 11.584 0 0 1 6.361 2.578c3.328 4.462-1.212 6.843-2.828 9.917-2.219 4.267-7.066 6.646-8.477 11.507-1.817 2.281-3.937 1.785-6.256.793-18.272-7.336-36.946-13.782-54.61-22.314-14.334-6.941-27.959-15.47-42.395-22.513-4.643-2.282-7.873-6.248-9.286-11.208-3.029-10.414-6.056-20.829-8.275-31.438-2.117-8.631 2.323-15.872 7.573-22.515z"/><path fill="#2A2A2A" d="M1772.903 1077.48c-20.208-6.467-38.721-16.023-54.746-30.152-5.872-5.17-11.844-10.446-18.215-15.022-3.284-2.289-3.98-5.872-6.271-8.558-7.565-14.925-6.074-30.545-3.385-46.067 2.388-13.535 5.674-26.968 10.949-39.801a6.581 6.581 0 0 1 2.289-2.093c1.793-.198 3.384.499 4.18 1.892 10.352 17.31 23.891 31.938 37.527 46.564.396.398.298 1.194.197 1.892-2.189 2.684-5.773 2.984-8.264 5.074-5.672 4.576-6.668 11.243-2.291 16.317 4.582 5.474 11.847 5.474 17.322.396 2.388-2.188 2.586-7.36 7.763-5.971 11.148 9.354 18.515 21.393 23.092 34.929 5.184 15.424 1.202 29.056-10.147 40.6zm-346.565-15.023c24.528 13.289 49.56 24.893 77.115 30.944 6.562 1.388 13.424.595 19.883 2.976 18.875-4.761 34.219-16.167 50.37-25.985-3.23-2.975.303-4.662 1.516-6.545 7.165-10.414 12.92-21.322 14.33-34.216 1.516-13.886-2.524-33.918-23.014-41.555-15.845-5.852-31.692-5.951-47.542-4.066-14.535 1.785-28.968 5.354-43 9.423-19.28 5.553-36.034 15.073-48.146 31.934-4.543 6.346-7.569 13.784-13.425 19.239.203 8.333 4.342 13.787 11.913 17.851z"/><path fill="#86877F" d="M1600.15 927.873c.707-7.336-.808-14.38-2.926-21.22-1.211-4.165-1.617-8.333-1.113-12.596 1.315 0 2.524 0 3.838.097 1.209.993 3.029.697 4.341 1.49 16.856 7.637 32.805 16.265 43.707 31.935 3.33 4.761 5.45 9.818 6.257 15.374 4.24 29.753 5.148 59.607 4.14 89.557-12.922 2.875-25.033-.299-37.145-4.363-1.716-3.173-.909-6.347-.606-9.621 2.12-22.414-.202-44.628-2.122-66.943-1.11-11.51-7.67-19.247-18.371-23.71zm222.126 113.586c1.592-7.263 1.791-14.627-.896-21.592-8.163-20.796-20.306-39.004-38.921-51.642-20.503-13.828-39.715-28.656-53.75-49.352-4.38-6.469-10.75-10.745-17.616-14.229-1.89-.996-3.684-1.394-5.574 0-4.679 10.346-7.962 20.793-1.991 31.841.499-.199.994-.299 1.494-.498 4.777-8.358 6.669-8.56 11.941-1.195 3.484 4.877 7.365 9.354 11.55 13.532 11.444 11.245 25.081 19.504 39.019 26.966 23.887 12.737 36.729 33.333 44.092 58.407.997 3.284.997 6.468.698 9.85 3.979 2.388 7.064.599 9.954-2.088z"/><path fill="#C7C8BC" d="M1398.075 1007.018c7.771-10.313 15.948-20.333 24.929-29.653 8.782-9.223 19.076-16.562 29.776-23.408 7.066-4.563 15.243-4.563 23.016-6.248 7.468-1.687 15.141-2.678 22.711-4.065 35.328-6.349 65.305-23.009 91.548-46.614 1.717-1.585 3.333-3.373 6.057-2.876 4.439 10.414 7.268 21.026 6.159 32.433-.908 4.165-4.139 6.643-7.268 9.024-18.27 13.885-38.558 23.703-61.371 28.266-18.064 3.571-36.235 6.546-54.404 9.521-18.169 2.974-31.898 12.892-43.707 26.083-7.974 8.826-14.738 18.546-22.105 27.868-7.367-5.155-13.322-11.406-15.341-20.331zm121.83 106.915c24.325-6.843 47.34-16.664 67.934-31.045 15.845-11.008 31.186-22.611 47.541-33.025 8.074-5.158 16.048-10.514 22.911-17.255-2.018.196-3.936-.198-5.852-.598-10.095-1.686-20.088-4.464-30.484-3.368-5.654-.103-9.187 3.964-12.72 7.138-11.507 10.116-23.415 19.736-34.014 30.847l-2.122 1.786c-.707.494-1.513 1.091-2.22 1.585-15.746 9.028-31.693 17.553-47.642 26.283-4.239 5.754-8.379 11.406-13.525 16.363-2.221 2.182-1.008 3.173 1.518 3.472 2.821-.695 5.749-1.294 8.675-2.183zm177.947-202.522c-16.819 31.344-17.318 64.677-11.346 98.505.896 5.074 2.487 10.35 7.166 13.732-3.882-17.71-3.186-35.323.794-52.834 2.59-11.541 6.075-22.886 9.062-34.327-1.294-10.747 2.093-21.192 1.99-31.841-4.878-.199-5.973 3.683-7.666 6.765zm82.916 168.156c7.164 4.278 13.04 1.591 18.612-3.383 10.651-9.552 17.815-21.492 22.894-34.724-3.284.697-6.57 1.391-9.952 2.089-7.468 14.724-18.416 26.367-31.554 36.018z"/><path d="M1744.935 985.738c-10.352-6.866-16.923-17.413-25.083-26.47-6.17-6.863-12.743-14.225-16.324-22.783 2.002-4.639 2.839-5.792 5.374-7.961 3.099-2.647 6.073-.297 7.862 2.289 15.13 23.085 39.417 34.528 61.613 48.657 19.808 12.734 28.966 32.732 35.831 54.125.997 3.184 1.099 6.468.103 9.755-5.476 12.832-13.937 23.383-24.883 32.138-2.69 2.188-5.576 3.185-8.661 3.979-2.786-.102-5.374-.6-7.766-2.091.101-2.786 1.295-5.274 2.889-7.162 5.476-6.469 5.476-14.53 6.865-22.191.397-2.187.397-4.873-.599-6.766-5.373-10.844-8.46-22.984-18.215-31.241-2.486-2.19-4.779-4.581-5.376-8.063-3.776-5.967-8.056-11.639-13.63-16.215zm-123.888-35.447c-.405-4.86-2.022-9.619-4.646-13.884-3.635-6.149-8.478-10.116-16.351-8.43-9.388 8.625-20.088 15.173-31.493 21.022-21.802 11.21-45.824 14.283-69.545 18.45-11.809 2.083-24.328 2.28-35.225 7.537-23.418 11.208-39.669 29.753-51.377 52.266 0 5.853-1.918 12.001 1.817 17.457 5.551.694 6.359-4.066 8.275-7.242 13.729-22.812 33.615-37.193 60.058-43.04 11.81-2.581 23.521-5.951 35.43-7.438 15.342-1.983 30.787-2.677 45.728 3.17 17.864 7.044 25.233 20.433 22.811 39.375-1.515 11.505-6.055 21.424-12.416 31.043-1.816 2.779-1.919 4.792-2.274 8.738l3.386-2.689c.705-.597 7.989-4.649 8.697-5.245 15.341-13.388 21.786-20.045 37.833-32.541 5.043-26.384 1.61-52.469-.708-78.549z"/><path id="cl1" fill="#019FFB" d="M1744.935 985.738c9.059 1.591 13.235 7.463 13.835 16.218-.896 2.09-1.69 4.279-2.887 6.169-3.484 5.372-9.258 7.663-15.23 6.17-6.271-1.492-11.05-7.066-11.348-13.235-.3-5.868 3.186-11.443 9.059-13.931 1.992-.693 4.28-.894 6.571-1.391zm-191.821 18.801c.102-10.61-8.981-19.536-19.984-19.34-10.496.102-19.279 8.628-19.481 18.844-.201 10.612 8.881 19.34 19.985 19.24 10.697-.096 19.278-8.432 19.48-18.744z"/></svg>