<svg xmlns="http://www.w3.org/2000/svg" id="图层_2" viewBox="0 0 3000 3000"><path d="M1787.5 1093.978c-2.4-4.088-3.5-8.477-3.4-13.263.101-17.252-1-34.605.4-51.658 1.198-13.862 1.198-27.725 1.5-41.585.1-4.887-1.2-9.175-4.7-12.666-10-9.673-17.899-21.241-29.102-29.818-5.8-4.486-11-5.383-17.398-3.688-10.3 2.593-20.5 5.484-30.699 8.176-3.5.898-7.101 2.395-10.101-1.097 0-.599 0-1.296.101-1.896 2-2.992 3.699-6.283 6.699-8.576 19.101-14.958 39.5-28.021 61.2-38.893 2.698-1.296 5.5-2.494 8.5-2.593 9.1.396 16.3 4.587 22.898 10.77 16 14.759 27.602 32.211 35.102 52.557 1.898 5.184 2.6 10.271 1.5 15.654-.802 3.191-2.2 6.284-3.9 9.076-13.199 22.737-17.399 47.47-17.3 73.298-.102 15.958-5.925 28.199-21.3 36.202zm-165.266-54.778c-.099-20 .599-39.8-1.892-59.7-1.99-15.5-7.271-28.6-18.122-39.697-13.642-14-28.479-26.603-43.813-38.803-8.962-7.1-18.521-11.3-30.071-10.197-19.518 7.1-39.432 13.197-58.25 22.3-11.054 5.3-21.607 11.397-33.159 15.7-15.334 5.8-28.577 15-41.622 24.6-.1 4-2.689 7.4-2.292 11.5 4.382 3.8 8.863 1.3 13.145.1 29.673-8.6 59.744-15.1 89.814-22.1 5.677-1.3 11.253-1.7 16.231 2 15.135 11.4 31.663 20.8 47.298 31.4 5.976 4.1 9.063 9.697 9.657 16.6 1.295 15 4.284 29.7 6.871 44.4 1.394 7.897.499 15.1-2.988 22.3-3.483 7.2-6.472 14.6-8.959 22.2-1.795 5.6-1.494 5.8 4.181 7.1 4.88-1.7 7.966-5.7 11.353-9.2 13.144-13.5 26.784-26.3 40.926-38.6.399-.801.895-1.503 1.692-1.903z"/><path fill="#C7C8BC" d="M1395.404 953.5c-2.29-5.3-7.667-7.1-11.849-10.197-2.987-2.2-6.274-3.803-6.274-8.2 7.668-5.8 16.331-10.103 24.894-14.3 29.076-14.303 58.849-27 88.722-39.5 9.16-3.803 18.32-7.7 27.184-12 8.663-4.2 17.726-4.7 27.085-4.103 1.096.103 2.189 1.3 3.285 1.9-3.585-.3-6.473.3-7.667 4.3-.796 2.8-2.092 5.6-2.688 8.4-1.193 5.5-3.984 9.999-9.461 11.699-4.979 1.864-7.119 3.916-11.798 5.5-40.578 16.082-78.315 31.898-114.86 54.398-2.092 1.303-4.084 2.503-6.573 2.103zm167.085 157.802c23.502-14.7 47.001-29.303 69.105-46.103 8.363-6.397 17.725-11.5 24.496-19.8-2.59-1.7-5.478-1.9-8.465-2.5-8.362-1.8-17.127-1.2-25.393-3.7-.496 0-.896 0-1.394.103a8.4 8.4 0 0 0-2.488 1.3c-9.759 6.5-17.028 15.6-25.392 23.4-8.664 8.1-15.734 17.897-26.287 23.897-15.234 8.801-29.772 19-46.303 25.603 3.884 1.897 6.972 4.197 6.174 9.397-.498 2.7 1.295 4.2 3.981 4.4 10.758-5.399 22.009-9.699 31.966-15.997zm209.136-13.705c4.75 2.714 23.073-2.821 26.573-3.718 13.399-3.191 23.199-17.153 22-31.114-1.801-20.943 2.899-40.589 11.302-59.736 5.698-12.863 12.198-25.929 10.198-40.888-7.101 1.197-12.801 3.989-13.601 12.167-2.199 4.488-4.3 8.975-6.699 13.363-11.101 19.944-15.301 41.484-15.301 64.022 0 6.183.865 13.109-1.227 19.945-3 9.872-10.375 15.458-17.475 22.139-4.156 1.461-15.77 3.221-15.77 3.82zm6.073-217.031c-7.198-.398-13.601 2.094-19.898 5.085-15.9 7.581-29.302 19.049-44.102 28.323-12.198 7.579-17.698 18.948-19.698 32.51 11.698-9.671 23.898-18.748 36.8-26.825 12.601-7.878 24.898-16.354 39.101-21.241 1.8-3.392 3.699-6.783 5.3-10.273 1.4-3.091 3.102-5.683 6.9-5.784-1.101-1.296-2.701-1.695-4.403-1.795z"/><path fill="#E7E6E2" d="M1530.625 1127.1c-2.291 2.7-5.576 2.2-8.362 1.7-17.229-3-34.554-5.303-50.784-12.5-11.451-5.103-23.4-9.303-34.751-14.603-8.961-4.199-17.425-9.5-26.189-14.3-5.476-3-8.265-7.7-11.251-13.1-5.477-9.9-8.962-20.7-15.334-30.103-6.672-9.897-9.459-21.898-15.733-32.2-2.59-4.198.698-9.698 1.394-14.5 2.789-18.3 5.676-36.6 5.478-55.3 0-2.6-.599-5.398 2.091-7.3 6.075 6.7 16.43 8.8 19.717 18.6.498 4.2-.996 8.103-1.693 12.103-5.375 21.3-4.879 41.897 5.277 62.1 5.577 11.2 9.659 23.4 13.044 35.5 2.39 8.4 7.368 13.603 14.937 17.5 29.076 14.801 59.146 26.801 91.908 30.4 8.657 2.003 8.858 9.403 10.251 16.003z"/><path fill="#86877F" d="M1548.449 867c9.56 4 18.121 9.7 26.088 16.2 24.197 19.7 50.285 36.9 72.688 58.8 4.283 4.2 6.772 8.303 7.468 14.4 2.888 27.5 4.283 55 3.686 82.6 0 2.303.1 4.7-2.19 6.303-11.647.3-23.301.197-34.054-5.4-3.188-4-2.589-8.8-2.589-13.398-.2-15.602.298-31.102-1.794-46.699-1.992-15-7.367-27.9-18.022-38.801-12.944-13.302-27.481-24.802-41.424-37-8.763-7.699-19.416-9.102-29.674-12.5 2.989-7.5 7.967-14 10.655-21.802 1.295-3.603 5.18-4.901 9.162-2.703zm288.249 74.199c-7.398-16.255-19.101-29.519-31.101-42.384-6.602-7.08-14-13.263-23.399-16.554-8.398 1.096-11.301 4.787-12.198 16.055 5.5 1.296 11.3 1.695 15.8 5.586 11.398 9.773 22.398 20.144 29.301 33.605 6 11.569 13.699 22.838 13 36.897 2.1-3.49 3.8-7.377 8.6-7.978 2.602-.299 3.302-2.891 5-4.188.299-7.475-2.003-14.355-5.003-21.039z"/><path fill="#2A2A2A" d="M1787.5 1093.978c-7.802 4.488-15.802 5.285-23.7 2.094-17.3-6.781-32-17.452-44.5-31.014-2.3-2.395-5-4.488-7.102-6.981-8.1-9.673-20.198-15.956-22-30.715-1.5-12.765-5-25.032-3-38.394 1.4-9.375.802-19.147 2.9-28.622.899-4.088 2.399-7.629 3.8-12.067 11.801-1.994 23.399-4.887 34.801-8.477 10.699-3.392 19.699-1.796 28.601 5.784 10.2 8.775 18.2 19.247 27.101 29.12 4.301 4.686 4.301 10.867 4.5 16.952.5 25.529-3.199 50.859-2.101 76.39.399 8.276.348 12.988 2.146 21.167.001 1.198 1.489 1.44-1.446 4.763zm-398.369-89.578c0 1.9.996 3.8 1.69 5.7 7.769 20.1 15.833 40.2 22.306 60.8.996 3.3 2.688 5.9 5.874 7.6 31.863 17.603 64.625 32.2 101.467 34.7 4.281-.397 8.465-.397 12.447-2.6 12.048-6.8 23.631-15.591 35.082-23.492-2.89-.3-3.716.292-2.323-2.808 3.685-8.5 7.271-17.103 10.755-25.7 1.992-4.9 4.58-9.7 3.585-15.3-3.188-17.2-6.57-34.4-7.967-52-.596-7.603-4.282-13.2-11.053-17.603-15.832-10.3-32.262-19.6-47.1-31.397-4.68-3.7-9.76-4.3-14.936-3-27.582 6.6-55.164 13.5-82.747 20.1-7.667 1.8-12.703 5.655-20.867 5.455-4.377 12.903-6.313 26.245-6.213 39.545z"/><path id="cl1" fill="#FBE501" d="M1453.263 982.629c4.817-15.573 19.639 1.092 22.051 5.513 2.413 4.42 9.303 6.89 9.303 6.89s15.502 1.375 15.504 10.682c.002 13.779-8.689 6.987-14.547 16.068s6.795 14.939-.269 19.763c-7.063 4.822-12.403-7.927-22.396-7.927s-13.64 5.642-17.996 7.916c-3.717 1.941-16.803 3.111-14.391-8.604 2.41-11.715 12.746-15.771 9.302-21.667-3.445-5.896-12.402-8.31-7.581-15.199 4.828-6.891 16.886-.071 21.02-13.435zm263.888 9.765c-3.932 5.623 3.37 7.59 6.178 12.403 2.811 4.813-5.615 8.122-7.583 17.681-1.964 9.56 8.702 8.606 11.732 7.021 3.551-1.857 6.524-6.459 14.668-6.459 8.146 0 12.498 10.401 18.254 6.466 5.759-3.938-4.554-8.716.22-16.126 4.773-7.411 11.861-1.868 11.858-13.113-.001-7.594-12.639-8.717-12.639-8.717s-5.616-2.016-7.583-5.623c-1.967-3.608-14.047-17.208-17.975-4.5-3.372 10.91-13.201 5.345-17.13 10.967z"/></svg>