<svg xmlns="http://www.w3.org/2000/svg" id="图层_2" viewBox="0 0 3000 3000"><path fill="#E7E6E2" d="M1399.9 965.802c-2.899 4.898-3.101 10.698-5.2 15.8-.899 2.3-.3 4.5.5 6.7 1.301 3.698 2.301 7.6 3.4 11.3-1.2 3.7-.601 7.2 1.199 10.6 8.199 16.301 16.399 32.602 22.699 49.7.801 2.3 1.4-1 2.4-.6 16.899 7.1 33.8 14.398 49.699 23.8 2.801 4.6 10.501 10.8 9.601 16.7-8.075-1.552-18.8-3.9-25.5-6.4-13.101-4.8-26.399-8.8-39.801-12.899-4.399-1.301-6.199-3.899-7.699-8-6.5-16.699-11.801-33.899-20.601-49.601-3.3-5.8-6.5-11.6-10-17.3-1.5-2.3-2.899-4.5-2.3-7.3 2.899-12.7 4-25.5 3.899-38.5-.101-6.5 1.301-7.5 7.5-8 2-.2 4 0 6 0 60 0 119.899.1 179.899.2 3.601 0 7.399-1 10.601 1.5-2.199 2.398-5 1.198-7.5 1.3-60.199 2.6-120.5 2.1-180.899 2.2.603 3.098 8.103 4.3 2.103 8.8zm283.7 15.698c-2.399-3.1-1.199-5.8-.3-8.6.8-2.5.199-4.8-2.2-5.9-3.1-1.398-6.6-1.8-9.6.102-2.601 1.6-1 4.3.1 6.2 2.601 4.3 2.301 8.898 2.301 13.6 0 3-.4 6.3 3.199 7.601 4.301 1.5 7.4 7.699 13.2 3.399-.601-10 .1-19.899 1.399-29.8-3.399 3.7-2.699 9.998-8.099 13.398zm9.5 65.5c-2.8-4.898-6.399-9.3-9.6-13.898-.601.3-1.2.6-1.801.898 3.301 6.7 1.699 15.2 9.199 21.4 1.301-3.5 3.502-6.098 2.202-8.4zm-16.401-5.1c-.399 3.1-1.601 6.2 2.5 9.5 1-4.5-1-6.9-2.5-9.5z"/><path d="M1610.199 954.302c1.801 0 3.699 0 5.5.1 6.601 3.101 6 9.9 7.601 15.3 3.8 12.9 3.699 24.602-8.4 34.7-9.3 7.8-15.1 19.2-22.6 28.9-2.2 2.898-4.5 5.8-7.5 7.898-4.101 2.2-8 5-13.101 4.102-2.5-1-3.899-3.102-3.399-5.5 1.899-9-3.9-13.2-10.101-17.5-9.199-6.5-18.101-13.602-26.5-21-6.301-5.5-12.399-6.102-20.101-4.102-29.899 8-59.5 16.7-88.699 27-3.399 1.2-8.476 3.074-12.274 2.675-8.9-7.101-9.025-18.475-14.625-27.573-5.301-12.7-6.2-24.802 4.5-35.602 13.1-4.5 26.899-3.6 40.3-4.398 19.801-1.2 39.601-2.5 59.5-3 2.399-.102 4.601 0 6.7 1.3 3.5 2.3 4.699 6.3 7.199 9.398 9.601 12.102 25.101 10.9 32.801-2.6 2.1-3.6 2.3-8.6 7.3-10.1 18.6-1.8 37.3 2.4 55.899.002zm84 47.398l.101.2c12.199 2.5 23.6-2.3 35.3-3.7 29-3.6 20.7-6.398 41.301 13.7 7.399 7.2 14.699 14.5 15 25.9.1 3.699 2.5 6 6.3 6.5 17-1.7 19.5-3.7 22.7-20.301 2.1-10.5 6-20.199 10.8-29.601 3.301-6.399 7.4-12.6 8.601-19.899-1-13-3.899-18.399-12.101-18.801-12.5-.6-25.1-.6-37.5 2.102-2.5 1.898-3.699 4.6-4.899 7.3-2.899 6.3-7.699 10-14.699 9.6-6.601-.3-10.801-4.2-13.301-10.3-1.301-3.3-2-7.2-6.301-8.1-17.3-.7-34.5-.2-51.399 3.898-.8 2.602-1.5 5.301-2.3 7.9-.7 4.2-2.601 8.1-3.601 12.2-1.399 6.1-2.899 12.3 2.199 17.6.5 0 .9.101 1.301.3 1.498.702 1.099 2.702 2.498 3.502z"/><path fill="#C7C8BC" d="M1480 1098c-3.101-4.198-5.101-8.8-6-13.898.899-3.4 3.899-4.2 6.6-5.4 27.101-12.398 55.4-21.6 82.801-33.3 2.899-1.2 5.8-.6 8.699-1.5 3.9-1.4 7.801-2.9 11.7-4.3 4 .199 6.3 2.898 8.6 5.6 2.601 3.102 5.601 5.2 9.9 5-30.601 14.4-61.4 28.2-93.2 39.7-8.399 3-16.199 7.7-24.899 9.899-1.301-.999-3.101-.701-4.201-1.801zm325.199-45.8c4.301-1.8 8.801-2.898 13.399-3.8 3.399-.7 4.899-2 5.5-5.7 2.899-18.5 8.601-36 17-52.7 2.2-4.398 5.2-8.6 4.899-13.898-4.699-3.7-9.3-3.4-14 0-8.399 15.8-18.199 31.2-19.899 49.5-1 10.2-6 14.398-15 15.898-1.601.302-3.3.5-4.899.7-3.601 2.8-8.601 1.3-12.199 4.102 7.6 5.098 15.199 10 25.199 5.898z"/><path fill="#2A2A2A" d="M1694.3 1001.802c9.801-3.102 20.2-3.5 30.2-5.7 7.699-1.7 15.699-2.5 23.5-3.8 3.8-.602 7.199-.302 10.1 2.698 8.2 8.7 17.4 16.4 24.801 26 3.399 4.4 5.899 8.602 5.199 14.4-.399 3.2.2 6.1 4.101 6.7-3.95 3.373-7.7 5.274-12.2 4.1-13.625-4.575-25.699-8.2-38.6-12.398-3.5-1.102-6.801-2.5-10.301-3.7-22.1-7.702-22.1-7.702-36.8-28.3zm-123.8 36c3.3-6.302-.2-9.7-4.7-13.102-12.8-9.898-25.601-19.898-38.199-30.1-3.301-2.7-6.4-2.4-10.2-1.4-16.899 4.7-34.101 8.5-50.8 13.802-18.301 5.8-38.476 11.875-55.976 19.874-.601 12.899 7.375 22.324 13.675 32.625 1.801 1.399 3.399 3.199 5.5 4.199 14.7 6.9 29.5 13.7 44.2 20.5 6.199-2.398 12.5-4.5 18.5-7.199 17.399-8.101 35.769-13.83 53.5-21.101 8.824-3.618 16.375-7.899 26.1-12-2.5-1.7-2.7-4-1.6-6.098z"/><path fill="#86877F" d="M1583.699 1039.7c7.801-10.2 15.699-20.398 23.399-30.7 4-5.3 8-10.5 13.399-14.5 2.301-1.698 3.7-3.6 3.301-6.6-1.699-11.4-2.801-22.9-8-33.5 11.601-.1 23.199 0 34.801-.3 5.1-.102 7 2 7.399 6.898.8 10.9 1.899 21.802 3.101 32.7.3 2.8.1 5.102-2.101 7.2-16.101 16.3-33.801 30.9-50.601 46.4-1.576 1.091-3.399 1.573-6.199 3-9.598 2.504-13.499-5.098-18.499-10.598zM1438.3 962.5c18.801-1.6 37.601-2.1 56.5-2.8 4.2-.2 8.399-2.398 12.601-.1 15.199 3 30 1.2 44.699-3 15.101-1.3 30.301-.4 45.4-.9 4.199-.2 8.6.7 12.6-1.398-8-1.602-16.1.1-24.1-.7-3.601.1-7.301.398-10.9.398-59.1 0-118.199-.1-177.3-.1-3.4 0-6.7.3-12.101.6 5.699 3.102 9.399 5.302 13.199 7.2 2.2 1.102 1.199 1.2 1 2.7 12.901-2.8 24.852-1.547 38.402-1.9zm409.6 8.1c.3-6.4-3.301-11.602-6.5-16.4-2.801-4.2-8-1.898-12.101-1.8-13.601.2-27.301.8-40.899 1.2-27.601.898-55.301-.102-82.801 1.8-4.399.3-8.601.6-11.399 4.7 18-.4 36-3.102 54.101-1.4 11.8 2.3 23.6 5.9 35.6 1.102 10.801-2.9 21.801-1 32.7-1.7 11.101-.8 12.5.5 14.699 11 .5 2.3.601 4.6.9 6.898h14c1.6-1.4 1.6-3.4 1.7-5.4z"/><path fill="#F7F7F7" d="M1410.625 1026.875c2.699 11.602 10.975 21.025 13.574 32.625-.601 1.602-1 5.102-3.301 1.802-2.6-3.802-3.899-8.4-5.699-12.7-5.399-13.3-11.899-26-18.399-38.7-2.101-4-4.492-6.348.108-9.048 5.901 8.099 8.416 17.621 13.717 26.021z"/><path id="cl1" fill="#FCE601" d="M1506.874 959.724c.623-.313 1.143-.937 1.766-.937 14.859-.52 29.717-2.909 44.679-2.182-.625 6.856-3.43 12.572-8.728 16.936-13.819 11.328-31.899 4.575-37.717-13.817zm240.445 5.129c2.701 7.688 9.454 12.575 17.039 12.575s14.132-4.677 17.146-12.575c.726-1.87.933-3.948 1.351-6.026-12.261-.831-24.625-2.39-36.989-1.143.518 2.494.726 4.886 1.453 7.169zm-242.955 6.984l-3.449-7.181-15.082 7.244 3.449 7.181 15.082-7.244zm15.501 10.539l-6.807-4.139-8.696 14.294 6.809 4.139 8.694-14.294zm27.938-6.187l-6.689 4.326 9.084 14.051 6.688-4.327-9.083-14.05zm9.851-14.513l-2.153 7.67 16.106 4.527 2.154-7.67-16.107-4.527zm229.04-.542l-1.834 6.522 14.481 4.071 1.832-6.523-14.479-4.07zm-57.361 4.075l1.559 6.594 14.64-3.463-1.563-6.595-14.636 3.464zm13.316 19.617l6.573 5.46 8.239-9.919-6.577-5.458-8.235 9.917zm34.93 5.46l7.281-3.439-5.271-11.156-7.282 3.441 5.272 11.154z"/></svg>