<svg xmlns="http://www.w3.org/2000/svg" id="图层_1" viewBox="0 0 3000 3000"><path fill="none" stroke="#000" stroke-linecap="round" stroke-linejoin="round" stroke-width="6" d="M1670.4 1108.95c-4.312-8.374-10.562-13.732-18.75-16.075-4.821-1.077-7.871.798-9.149 5.625-6.251 16.347-5.034 27.43 3.649 33.25a14.292 14.292 0 0 0 3.575 1.476c3.328.86 6.803.369 10.425-1.476 9.104 7.496 16.854 14.829 23.25 22 2.414 2.7 4.706 4.976 6.875 6.825 14.692 12.577 23.65 5.636 26.875-20.825-1.468-26.836-6.801-48.002-16-63.5-15.932-33.176-25.349-67.192-28.25-102.05"/></svg>