<svg xmlns="http://www.w3.org/2000/svg" id="图层_1" viewBox="0 0 3000 3000"><path fill="none" stroke="#000" stroke-linecap="round" stroke-linejoin="round" stroke-width="6" d="M1661.9 1054.7c7.357-3.261 13.857-3.569 19.5-.925 8.39-6.473 11.224-16.748 8.5-30.825m-8.5 30.825c11.851 5.566 19.935 24.141 24.25 55.725 3.691 26.912-3.008 40.646-20.1 41.2 1.509 8.488 1.509 15.104 0 19.851m0-19.851a38.581 38.581 0 0 1-5.15-.2m-11.75-5c-7.706-20.009-15.623-24.759-23.75-14.25 7.917-.426 15.833 4.324 23.75 14.25zm-15.25-66.55c-25.987 32.368-31.57 51.135-16.75 56.3"/></svg>