<svg xmlns="http://www.w3.org/2000/svg" id="图层_2" viewBox="0 0 3000 3000"><path d="M1669.454 1039.245l.399 1.502c.253.979.623 2.417 1.096 4.245l3.792 15.132c1.553 6.252 3.345 13.539 5.384 21.283a444.502 444.502 0 0 0 3.296 11.86c1.197 4 2.454 8.042 3.943 11.933.733 1.946 1.517 3.86 2.396 5.661.886 1.778 1.85 3.515 2.923 4.771.266.307.529.572.78.792.121.081.246.204.354.266l.604.36c.663.33 2.434 1.618 3.192 2.793.863 1.265 1.432 2.745 1.564 4.135a11.94 11.94 0 0 1-.21 3.867c-.504 2.364-1.388 4.375-2.378 6.212a42.6 42.6 0 0 1-3.222 5.053c-2.269 3.101-4.671 5.752-6.966 8.102a96.426 96.426 0 0 1-6.576 6.043 84.196 84.196 0 0 1-5.404 4.222c-1.529 1.124-2.793 1.921-3.643 2.474l-1.326.814 1.112-1.085c.728-.702 1.763-1.764 3.075-3.106 2.601-2.708 6.234-6.651 10.15-11.659 1.943-2.508 3.977-5.278 5.823-8.318.928-1.517 1.803-3.102 2.537-4.742.723-1.635 1.349-3.334 1.577-4.939.09-.41.062-.776.098-1.16-.018-.358-.021-.72-.081-1.034-.086-.657-.36-1.12-.657-1.562-.197-.196-.375-.428-.538-.513-.018-.093-.603-.408-1.044-.652l-.758-.43c-.346-.206-.621-.431-.93-.654-.28-.227-.53-.461-.793-.696-.243-.237-.464-.477-.694-.718-1.714-1.941-2.867-3.954-3.9-5.996-1.017-2.041-1.882-4.104-2.676-6.176-1.552-4.155-2.83-8.339-3.93-12.486-1.113-4.142-2.046-8.243-2.866-12.221-1.638-7.957-2.797-15.432-3.62-21.858-.812-6.429-1.298-11.807-1.563-15.579-.15-1.884-.205-3.372-.263-4.383-.036-1.012-.057-1.553-.057-1.553z"/></svg>