<svg xmlns="http://www.w3.org/2000/svg" id="nose" viewBox="0 0 3000 3000"><path d="M1693.051 1132.131c-1.071-3.442-3.757-6.829-6.884-8.98-3.264-2.302-7.147-2.471-10.348-2.293-2.343.132-4.439.715-6.336 1.39-.073-.146-.109-.228-.182-.374-.315-.715-.812-1.45-1.117-2.471-.378-.994-.757-2.079-1.249-3.228-.355-1.212-.697-2.534-1.145-3.887-.328-1.372-.67-2.849-1.025-4.367-.492-3.095-1.094-6.359-1.391-9.687-.373-3.341-.574-6.701-.757-9.896a1137.42 1137.42 0 0 1-.446-8.766c-.2-5.196-.469-8.774-.469-8.774s-1.628 3.241-2.813 8.456c-.583 2.617-1.121 5.698-1.358 9.025-.296 3.355-.164 6.947.15 10.548.406 3.592 1.145 7.162 2.216 10.425 1.099 3.241 2.566 6.122 4.089 8.419a47.347 47.347 0 0 0 2.324 2.932c.648.879 1.532 1.445 2.098 1.973.022.014.022.014.022.036l-1.203.438c-4.982 2.042-8.52 4.7-10.973 6.455-2.461 1.847-3.688 3.073-3.688 3.073s1.546-.826 4.221-2.125a67.34 67.34 0 0 1 11.501-4.285c2.398-.515 5.033-1.145 7.722-1.021 2.607.118 5.333.556 7.321 2.201 1.987 1.655 3.638 3.788 4.559 6.852.784 2.689 1.076 5.729.848 8.916-.401 6.317-2.652 12.553-5.671 17.782a50.766 50.766 0 0 1-5.206 7.061 77.526 77.526 0 0 1-3.373 3.205c3.127-.848 6.255-1.864 9.336-3.104.132-.146.292-.269.424-.438 1.025-1.271 2.12-2.58 3.086-3.975 1.851-2.885 3.688-5.953 4.8-9.417 1.3-3.374 1.992-7.016 2.348-10.726.201-3.688-.183-7.585-1.431-11.373z"/></svg>