<svg xmlns="http://www.w3.org/2000/svg" id="nose" viewBox="0 0 3000 3000"><path d="M1653.726 1063s.222.501.68 1.413c.45.914 1.176 2.222 2.141 3.844 1.968 3.208 5.023 7.688 9.642 11.981a44.433 44.433 0 0 0 8.067 6.01c3.199 1.918 6.594 3.954 10.054 6.178 3.46 2.224 7.005 4.612 10.479 7.279 3.479 2.66 6.903 5.582 10.02 9.002 1.538 1.729 2.996 3.588 4.236 5.689 1.23 2.094 2.235 4.491 2.546 7.181.514 5.166-1.225 10.009-3.856 13.724-2.646 3.726-5.996 6.417-9.283 8.529-3.313 2.101-6.618 3.662-9.72 4.889-3.103 1.232-6.01 2.123-8.595 2.839-2.579.735-4.868 1.203-6.742 1.597-1.878.385-3.366.617-4.379.776l-1.555.23 5.598-2.147c3.526-1.411 8.574-3.423 14.215-6.441 2.817-1.5 5.767-3.285 8.6-5.438 2.821-2.149 5.522-4.732 7.446-7.786.933-1.535 1.7-3.162 2.126-4.877.433-1.696.562-3.545.374-5.19-.447-3.173-2.768-6.584-5.472-9.563-2.717-3.038-5.916-5.803-9.152-8.438-3.262-2.615-6.598-5.094-9.878-7.454l-9.545-6.794c-3.178-2.234-5.935-4.813-8.109-7.391-2.202-2.578-3.892-5.169-5.215-7.536-1.348-2.355-2.275-4.527-2.978-6.323a40.59 40.59 0 0 1-1.389-4.248c-.265-.994-.356-1.535-.356-1.535z"/></svg>