<svg xmlns="http://www.w3.org/2000/svg" id="nose" viewBox="0 0 3000 3000"><path d="M1683.51 1139.393c-3.574.002-3.427 2.024.157 4.191.253.153 1.629 3.052 2.041 3.375 1.447 1.135 2.083 2.125 4.292 1.792 2.477-.374 1.194-5.574-.088-6.282-2.058-1.145-3.867-3.072-6.402-3.076zm-27.339-1.696c-1.096 2.036-1.667 4.567-2.651 6.706-.512 1.112-1.067 2.188-1.643 3.301-.525 1.013-1.282 1.629-1.83 2.583-.93 1.621-4.078.854-4.72-.663-.534-1.239-1.09-1.908-.832-3.312.249-1.342 1.06-2.768 1.935-3.732 2.349-2.503 5.404-3.73 8.132-5.619.42-.275 2.022-.032 1.609.736zm12.748-21.538c10.889.535 14.373 9.569 14.879 9.633-1.391.697-6.421-6.619-14.885-6.661-8.809.464-13.913 6.601-15.157 6.314.618-.38 4.052-8.284 15.163-9.286z"/></svg>