<svg xmlns="http://www.w3.org/2000/svg" id="图层_2" viewBox="0 0 3000 3000"><path d="M1681 1040.094c-.677 2.326-1.157 4.688-1.594 7.049-.435 2.362-.714 4.746-.995 7.117a95.46 95.46 0 0 0-.503 7.139 106.63 106.63 0 0 0-.085 7.129c.054 2.374.212 4.74.382 7.101.196 2.359.436 4.712.794 7.049.15 1.171.345 2.336.568 3.497.222 1.16.395 2.326.652 3.478.246 1.154.468 2.312.732 3.46l.86 3.43c.277 1.145.651 2.266.971 3.399l.499 1.694.565 1.675 1.116 3.352 1.234 3.312c.39 1.112.871 2.189 1.325 3.276.47 1.082.893 2.182 1.397 3.247 1.021 2.126 1.98 4.28 3.104 6.357l1.622 3.146 1.754 3.078c1.134 2.073 2.425 4.057 3.657 6.075.604 1.018 1.288 1.985 1.95 2.967l1.968 2.959c1.358 1.942 2.778 3.845 4.165 5.772l.823 1.144-.323 1.128c-.248.864-.475 1.38-.747 2.008-.25.617-.569 1.155-.854 1.733-.627 1.101-1.272 2.182-2.028 3.167-.705 1.031-1.561 1.917-2.354 2.855-.839.892-1.73 1.726-2.603 2.572l-2.801 2.303-2.959 2.048c-1.004.646-2.071 1.183-3.101 1.775-1.021.615-2.114 1.071-3.187 1.565l-1.611.732-.804.364-.828.301-3.312 1.185c-1.092.423-2.243.657-3.363.976l-3.37.896-3.424.631c-1.142.194-2.272.429-3.416.586-2.299.253-4.595.477-6.88.679a345.8 345.8 0 0 1 6.645-1.783c1.098-.313 2.175-.701 3.26-1.046l3.241-1.048 3.159-1.249c1.043-.433 2.118-.781 3.115-1.311l3.039-1.444.76-.356.727-.415 1.452-.829c.964-.555 1.949-1.071 2.839-1.73.905-.633 1.836-1.229 2.714-1.885l2.568-2.039 2.37-2.226c.716-.802 1.454-1.585 2.133-2.407.626-.858 1.324-1.668 1.852-2.575.595-.868 1.096-1.776 1.566-2.685.198-.46.453-.919.61-1.374.175-.427.359-.982.417-1.223l.5 2.272c-1.512-1.931-3.057-3.839-4.543-5.794-1.428-1.999-2.917-3.958-4.245-6.03-1.318-2.078-2.728-4.1-3.917-6.261l-1.852-3.2-1.719-3.276c-1.185-2.165-2.135-4.45-3.18-6.685-.514-1.122-.944-2.282-1.42-3.42-.462-1.146-.949-2.28-1.345-3.452l-1.248-3.489a116.877 116.877 0 0 1-1.103-3.539l-.522-1.778-.454-1.797c-.289-1.202-.631-2.388-.876-3.6l-.758-3.626c-.229-1.213-.415-2.435-.624-3.65-.229-1.213-.353-2.443-.493-3.669a61.324 61.324 0 0 1-.353-3.683c-.213-2.456-.303-4.921-.346-7.381-.046-2.461.065-4.922.219-7.374.178-2.451.409-4.895.76-7.321a97.863 97.863 0 0 1 1.355-7.216 78.638 78.638 0 0 1 1.965-7.052c.767-2.313 1.653-4.591 2.736-6.76z"/></svg>