<svg xmlns="http://www.w3.org/2000/svg" id="horn" viewBox="0 0 3000 3000"><path id="cl1" fill="#7E6046" d="M1507.132 285.973c-2.834-35.91-7.851-57.941-15.05-66.1-15.925-20.352-38.459-20.352-67.602 0-30.287 29.293-47.305 63.009-51.051 101.148.101 14.7 4.101 28.802 12 42.302-16.078 3.406-32.609 1.475-49.6-5.802-19.299-7.548-32.648 1.804-40.051 28.052-14.307 53.391-1.606 81.272 38.101 83.648 34.104-16.899 59.571-24.835 76.399-23.8l-.149-.5c4.263 14.179 9.863 28.695 16.8 43.55-20.988 9.333-46.154 12.102-75.5 8.301-11.41.504-19.76 10.188-25.05 29.051-6.229 23.983-5.43 40.002 2.399 48.051 17.494 19.559 37.562 29.408 60.199 29.55 15.989-1.091 37.239-17.041 63.75-47.851.021-.021.039-.035.051-.051l.551 1.199c24.52 46.563 45.619 70.146 63.3 70.75 26.72 5.51 47.753 1.491 63.101-12.05 12.215-17.399 16.049-41.935 11.5-73.601-.813-10.666-3.313-16.833-7.5-18.5-73.729-52.56-99.264-131.677-76.598-237.347m475.277-9.18c-8.164-16.224-18.336-24.542-30.513-24.953-18.341-3.54-32.158 1.518-41.455 15.167-13.328 20.003-21.943 55.779-25.842 107.327-20.952 87.562-61.338 137.451-121.159 149.67-21.903 35.622-20.421 66.95 4.448 93.981 32.452 8.781 55.612 9.67 69.476 2.668 19.755-13.333 33.32-31.051 40.697-53.152 22.441 4.282 40.2 11.161 53.285 20.638 37.537-5.986 58.486-14.602 62.848-25.841 3.375-16.458-.85-30.721-12.677-42.79-3.158-2.337-6.317-2.337-9.474 0-14.882 4.136-30.227 2.149-46.035-5.959 10.299-18.866 20.113-39.549 29.445-62.048 18.375 15.913 35.453 26.72 51.24 32.424 26.011-.64 47.983-9.698 65.917-27.177 4.31-36.958-.452-60.784-14.277-71.477-39.478 5.289-62.442 5.289-68.897 0 13.88-26.908 17.587-50.008 11.12-69.297-3.337-10.047-9.387-23.108-18.147-39.181z"/><path id="hl1" fill="#A18C75" d="M1987.035 531.165c2.046-4.693-.37-8.103-7.25-10.23-15.766 3.528-33.734 1.424-53.908-6.316-6.016 6.65-7.008 14.805-2.98 24.463 20.91 3.47 42.288.831 64.138-7.917m6.894-143.888l-10.141 9.029 12.053 4.003c17.899.568 35.942 2.095 54.132 4.582l16.901-1.913-7.249-15.7-59.777 2.579-5.919-2.58m-52.662-119.023c8.588-.856 18.61 3.74 30.068 13.788l18.235 9.739c-4.726-9.665-11.027-19.437-18.903-29.31-17.822-17.7-38.46-16.662-61.914 3.113l-19.57 68.852c-.596 33.015-6.629 64.327-18.104 93.939-28.151 53.227-64.075 85.457-107.771 96.694l-14.722 37.63 6.049-2.668c59.198-35.35 99.438-75.146 120.714-119.38l20.905-60.401c6.982-35.516 16.558-70.477 28.732-104.879m-440.052-59.546l-13.25-6.302h-18.052l-20 5.802-12.55 12.25c17.627-6.546 31.71-8.161 42.25-4.852 8.244 2.566 14.377 10.349 18.398 23.352l1.699 113.648c3.5 28.899 7 49.782 10.5 62.65 11.043 27.311 23.645 51.094 37.801 71.35l55.352 46.55h3.25l-6.75-15.55-32.301-26.25-32.801-46.101-6.25-11.25-12.25-54.05V322.47l7.75-36.8-7.5-35.05-7-25.051-8.296-9.744m-156.75 141.398c-7.477-1.06-13.477.957-18 6.05-7.699 9.108-12.552 19.541-14.552 31.302 22.366-16.67 47.416-22.604 75.149-17.802 6.461-2.753 8.628-5.836 6.5-9.25l-49.097-10.3m63.399 150l5-7h-46.301l-13.55 6.25-14 25.3c20.939-17.541 43.889-25.725 68.851-24.55z"/><path id="sd1" fill="#5B3829" d="M1957.101 565.502l-13.166 5.65c-20.757 1.779-34.085-.652-39.985-7.294-4.655-5.189-4.951-14.411-.89-27.667-8.433 7.938-20.813 16.995-37.14 27.178-8.916 5.572-18.954 12.925-30.112 22.061-5.902 4.869-12.025 8.457-18.369 10.765l-11.564 1.467c-24.463-1.127-42.95-5.798-55.465-14.011 2.104 18.681 9.518 31.076 22.239 37.185 21.884 7.591 44.196 8.006 66.939 1.245l11.343-13.031c10.406-11.446 19.54-24.404 27.398-38.875l3.469 1.647c19.628 3.292 35.479 9.311 47.548 18.059 24.908.326 46.183-8.628 63.827-26.864v-9.786l-36.072 12.271M2069.765 461.6l2.002-30.29c-7.061 9.332-26.021 19.102-56.889 29.312h-7.026c-10.365-3.713-20.166-10.933-29.4-21.663-2.407-2.791-3.445-8.573-3.113-17.346-10.467.579-19.925 4.094-28.378 10.542-13.609 17.625-24.193 38.232-31.756 61.825-3.997 11.952-1.877 19.824 6.359 23.618l35.761-64.938c13.546 12.521 27.911 21.758 43.099 27.709 9.988 5.738 19.403 5.738 28.244 0 14.245-4.279 27.947-10.537 41.097-18.769m-483.182 131.024c3.644-7.224 5.06-18.155 4.25-32.8l-17 34.05c-4.836 4.427-21.853 4.427-51.051 0-7.241-2.258-14.259-11.69-21.05-28.3l-30.051-30.301c-8.317-4.197-23.587-5.28-45.801-3.25-28.895 9.563-61.609 11.479-98.148 5.75-12.116 22.59-2.352 41.538 29.3 56.851 14.352 9.179 28.118 11.346 41.301 6.5 13.622-4.204 25.056-12.787 34.3-25.75l20.25-14.55 21.551 36.05c13.313 15.267 27.248 26.2 41.8 32.801h45.351l17.75-12.75c11.571-24.331 13.988-32.431 7.248-24.301m-180.25-200.049l-6.5 3.05c-.666 7.663-2.55 13.027-5.649 16.1-18.797 18.348-36.195 29.946-52.199 34.801-16.006 4.894-32.355-.906-49.051-17.399l3.25 20.75 8 9.301 23.801 9.5 12.75-2.5 66.05-19.648 3.301-4.15 13.802 44.301 19.5 3c7.166-1.962 10.332-8.712 9.5-20.25-5.217-38.078-20.732-63.694-46.555-76.856z"/><path fill="none" stroke="#000" stroke-linecap="round" stroke-linejoin="round" stroke-width="6" d="M1877.929 568.571c-7.377 22.1-20.942 39.816-40.697 53.152-13.865 7.001-37.023 6.112-69.476-2.668-24.869-27.033-26.351-58.359-4.448-93.983 59.82-12.217 100.206-62.107 121.158-149.67 3.9-51.546 12.512-87.323 25.843-107.325 9.294-13.651 23.113-18.706 41.454-15.167 12.178.411 22.354 8.728 30.534 24.952 8.746 16.071 14.788 29.134 18.125 39.185 6.465 19.29 2.758 42.391-11.12 69.298 6.455 5.289 29.42 5.289 68.897 0 13.825 10.692 18.585 34.519 14.277 71.478-17.934 17.478-39.906 26.537-65.917 27.176-15.785-5.703-32.865-16.505-51.24-32.402-9.33 22.483-19.145 43.16-29.445 62.027 15.808 8.108 30.277 10.303 43.411 6.582 4.909-2.752 8.941-2.96 12.101-.623 11.826 12.068 16.052 26.333 12.676 42.79-4.361 11.24-25.311 19.852-62.848 25.842-13.083-9.484-30.845-16.361-53.285-20.644l14.99-14.989m96.384-167.238a214.451 214.451 0 0 1-5.515 9.962m-28.466 56.288a787.54 787.54 0 0 0 6.182-15.325m-576.195-72.746c-7.918-13.5-11.929-27.6-12.025-42.3 3.746-38.141 20.763-71.855 51.051-101.148 29.143-20.352 51.676-20.352 67.6 0 7.199 8.155 12.218 30.188 15.052 66.1-22.665 105.67 2.866 184.787 76.601 237.351 4.188 1.668 6.688 7.834 7.5 18.5 4.547 31.666.713 56.198-11.5 73.601-15.348 13.541-36.381 17.558-63.101 12.051-17.683-.604-38.771-24.188-63.274-70.75-.204-.385-.402-.769-.601-1.148-26.526 30.81-47.784 46.759-63.774 47.85-22.639-.141-42.705-9.99-60.199-29.55-7.83-8.048-8.631-24.064-2.399-48.05 5.29-18.863 13.64-28.548 25.05-29.052 29.346 3.802 54.513 1.033 75.5-8.3-.063-.134-.12-.267-.175-.398-6.778-14.543-12.261-28.761-16.45-42.65-.05-.003-.1-.003-.148 0-16.848-.983-42.271 6.949-76.274 23.801-27.563-1.647-42.114-15.592-43.649-41.825-.676-11.556 1.174-25.498 5.551-41.825 7.4-26.247 20.752-35.598 40.051-28.05 16.975 7.267 33.517 9.2 49.613 5.792 2.836 4.845 6.178 9.609 10.023 14.302m9.501 47.049a260.489 260.489 0 0 0 5.175 20.25c.049.165.101.331.149.5m42.452 110.149a486.767 486.767 0 0 1-2.726-5.25m-23.1-61.849a393.337 393.337 0 0 0 8.601 17.3m483.377 20.276a503.904 503.904 0 0 0 7.116-12.632"/></svg>