<svg xmlns="http://www.w3.org/2000/svg" id="horn" viewBox="0 0 3000 3000"><path id="cl1" fill="#625b57" d="M1305.5 232.3c-.3-4.1-.6-8.1-1.1-12.1-1.6-13.8-4.1-27.2-7.6-40-5.4-20.2-13.3-39.2-23.4-56.9-1.7 16.1-6.8 35.1-15.3 56.9-5.6 14.5-12.8 30.3-21.4 47.3-8.5 16.8-18.5 34.7-29.9 53.9-2.1 3.7-4.4 7.5-7.2 11.6-12.1 18.4-30.8 40.8-55.8 67.2-5.1 5.4-10.5 11-16.2 16.8-32.5 25.5-58.3 52-77.2 79.5-1.8 2.7-3.6 5.4-5.3 8.1-11.7 19.6-20 39.4-25 59.4-11.1 44-6 88.8 15.3 134.4 3.3 7.1 7 14.2 11.1 21.3 6.8 11.9 14.8 23.8 23.8 35.8 15.3 16.9 37.9 31.9 67.9 45.1 5.3 2.3 10.8 4.6 16.6 6.8 7.8 3 16.1 5.9 24.8 8.7 31.9 3.2 63.8-4.5 95.6-22.9 8.2-4.7 15.1-11.4 20.7-20.2 11.6-17.7 18.4-39.3 20.3-64.8 1.5-19.8.2-41.9-4.2-66.5-2.3-24.7-15.7-44.8-40.1-60.3-2.3-1.4-4.7-2.9-7.3-4.3-7.3-4-15.5-7.7-24.5-11-2.7-1.9-5-4-6.7-6.5-1.9-2.8-3.2-5.9-3.8-9.5-1.6-8.1 0-18.3 4.6-30.6 3.6-9.4 9.1-20.1 16.4-32.1 3.7-4.4 7.3-9.3 10.8-14.7 11.7-18.3 22-42.7 30.9-73.1.5-1.6.9-3.2 1.4-4.9 1-4.1 2-8.2 2.9-12.3 8.2-39.4 11.3-76.2 8.9-110.1m661.9 361c1.5-12 2.5-23.7 2.9-35 1.2-27.3-.3-52.7-4.7-76-5.7-30.8-16.3-58.1-31.7-82.1-8.7-13.6-19-26.1-30.8-37.5-7-6.8-14.6-13.2-22.8-19.3-3-2.2-6.1-4.4-9.2-6.5-4.4-2.9-8.9-5.8-13.6-8.5-9.2-7.5-17.6-15.6-25.3-24.2-4.8-5.4-9.3-11-13.4-16.9-16.7-23.5-28.5-50.6-35.2-81.3-1.8-8.4-3.3-17.1-4.4-26-1.7-14.5-2.5-29.6-2.3-45.4-11.4 12.8-20.4 27.9-27.1 45.4-8 20.7-12.7 44.8-14.2 72.1-.2 4.5-.4 9-.5 13.6-.2 12.2.2 25.1 1.3 38.5 0 5.2.5 11.3 1.4 18.5 3.6 26.1 17.5 55.4 41.6 87.9 4.6 6.2 9.6 12.5 15 18.9 5.2 10.2 8.1 20.1 8.5 29.7.3 6.7-.6 13.3-2.6 19.8-1.5 4.8-3.7 9.5-6.5 14.2-3.6 5.9-8.2 11.7-13.9 17.4 54.5 38.3 90.3 120.2 107.7 245.9 7.8-3.3 15.1-8.1 21.8-14.5 5.4-5 10.5-11.1 15.3-18 13.9-20.3 25.1-48.8 33.8-85.5 3.4-13.9 6.4-28.9 8.9-45.2z"/><path id="sd1" fill="#423835" d="M1028.6 533.8c-3.6-2.7-6.4-6-8.3-10-11.1 44-6 88.8 15.3 134.5 3.3 7.1 7 14.1 11.1 21.3 6.8 11.9 14.7 23.8 23.7 35.8 15.3 16.9 37.9 31.9 67.9 45.1 5.3 2.3 10.8 4.6 16.6 6.8 7.8 3 16 5.9 24.7 8.7 31.9 3.2 63.8-4.5 95.6-22.8 8.1-4.7 15-11.5 20.6-20.2 11.6-17.7 18.4-39.3 20.3-64.8-32.4 40.1-87.4 47.2-165.1 21.3l-29.4-16.6c-38.2-23.4-69.2-69.7-93-139.1m205-54.3c3.6-9.5 9.1-20.2 16.4-32.1 3.7-4.4 7.3-9.3 10.8-14.7 11.7-18.3 21.9-42.7 30.9-73.1l-41.8 59c-12.2 16.5-25 30.4-38.4 41.8.8.5 1.7.9 2.5 1.4-17.1 22.3-16.3 43.2 2.3 62.7 2.8 3.2 8.1 6.6 15.8 10.4 16.2 4.7 26.9 5.5 32 2.2-7.3-4-15.5-7.7-24.6-11-2.7-1.9-4.9-4-6.7-6.5-1.9-2.8-3.2-5.9-3.9-9.5-1.6-8.2 0-18.4 4.7-30.6m551.6-101.2c-16.1-10.2-31.8-28.8-46.9-55.6 3.6 26.1 17.5 55.4 41.7 87.9 4.6 6.2 9.6 12.5 14.9 18.9 5.2 10.2 8.1 20.1 8.5 29.7.3 6.7-.6 13.3-2.6 19.8 8.9-4.8 13.9-11 15.2-18.5 15.3-22 15.6-42.2.8-60.5.2-.2.3-.4.6-.6-.1-2.5-10.8-9.5-32.2-21.1m182.5 214.8c1.5-12 2.5-23.7 3-35 1.2-27.3-.4-52.6-4.7-76-.4 12-2.5 27.5-6.4 46.5-17.9 67-49.1 109.5-93.6 127.4 10.8 25.6 18.1 59.1 22.1 100.4 7.8-3.3 15.1-8.1 21.9-14.5 5.4-5.1 10.4-11.1 15.3-18.1 13.8-20.3 25.1-48.8 33.8-85.5 3.1-13.9 6-29 8.6-45.2z"/><path fill="none" stroke="#000" stroke-linecap="round" stroke-linejoin="round" stroke-width="6" d="M1779.7 510.5c5.7-5.7 10.3-11.5 13.9-17.4 2.8-4.7 5-9.4 6.5-14.2 2-6.5 2.9-13.1 2.6-19.8-.4-9.6-3.3-19.5-8.5-29.7-5.4-6.4-10.4-12.6-14.9-18.9-24.2-32.4-38.1-61.7-41.7-87.9-1-7.1-1.4-13.3-1.4-18.5-1-13.5-1.4-26.3-1.2-38.5.1-4.6.2-9.2.4-13.6 1.5-27.3 6.2-51.2 14.1-71.9 6.8-17.6 15.8-32.9 27.3-45.7-.2 15.9.6 31.2 2.4 45.7 1.1 8.8 2.5 17.4 4.4 25.8 6.7 30.6 18.4 57.7 35.2 81.3 4.2 5.9 8.6 11.5 13.4 17 7.6 8.6 16 16.6 25.2 24.1 4.7 2.7 9.2 5.6 13.6 8.5 3.1 2.1 6.2 4.3 9.2 6.5 8.1 6 15.7 12.4 22.8 19.3 11.8 11.4 22.1 23.9 30.8 37.5 15.4 24 26 51.3 31.7 82.1 4.3 23.4 5.9 48.8 4.7 76.1-.5 11.3-1.5 23-3 35-2.5 16.2-5.4 31.3-8.7 45.2-8.7 36.7-20 65.2-33.8 85.5-4.8 7-9.9 13-15.3 18.1-6.8 6.4-14.1 11.2-21.9 14.5m18.4-272.6c24.8 13.5 42.5 28.3 53.1 44.5 6.1 9.4 9.8 19.3 11.1 29.6m-24.7 44c4.3 6.1 8.6 18.2 12.9 36.2m-223.4-372.7c5.4 6 10.8 8.1 16.3 6.5m-15.9-20.1c9.4 8 18.9 8 28.3 0m68.5 52c3.2 14.2.4 26.5-8.3 37.1m56.3 2.2c3.3 9 3.3 18 0 27m-9.3-33.5c2.5 13 .9 26-5 39m-47.1-88.7c3.9 23.8-2.9 43.8-20.4 60.1m-14.9-141.3c1.7 13.2-2.4 23.3-12.3 30.2m-467-16c.5 4 .9 8.1 1.2 12.2 2.4 34-.7 70.7-9.4 110.3-.9 4.1-1.8 8.2-2.8 12.3-.5 1.6-.9 3.3-1.4 4.9-8.9 30.4-19.2 54.8-30.8 73.1-3.5 5.4-7.1 10.3-10.8 14.7-7.3 11.9-12.8 22.6-16.4 32.1-4.7 12.2-6.3 22.4-4.7 30.5.7 3.5 2 6.7 3.9 9.4 1.7 2.5 3.9 4.7 6.7 6.5 9 3.3 17.2 7 24.6 11 2.5 1.4 4.9 2.8 7.2 4.3 24.4 15.4 37.7 35.5 40.1 60.3 4.3 24.5 5.7 46.7 4.2 66.5-2 25.5-8.8 47-20.4 64.8-5.6 8.7-12.5 15.5-20.6 20.2-31.8 18.4-63.7 26-95.6 22.8-8.7-2.8-16.9-5.7-24.7-8.7-5.8-2.2-11.3-4.5-16.6-6.8-30-13.2-52.6-28.2-67.9-45.1-9-12-16.9-23.9-23.7-35.8-4.1-7.1-7.8-14.2-11.1-21.3-21.3-45.6-26.4-90.4-15.3-134.5 5-19.9 13.3-39.7 25-59.4 1.7-2.7 3.5-5.5 5.4-8.1 18.9-27.5 44.6-54 77.2-79.5 5.7-5.8 11.1-11.4 16.3-16.8 25.1-26.5 43.7-48.9 55.8-67.3 2.7-4.1 5-7.9 7.1-11.6 11.4-19.2 21.4-37.2 29.9-53.9 8.6-17 15.8-32.8 21.4-47.3 8.5-21.9 13.6-40.8 15.3-56.9 10.2 17.8 18 36.8 23.5 56.9 3.3 13 5.8 26.4 7.4 40.2-9.6-7.8-21-10.4-34.1-7.8M1933.6 400c2.3 11.2-1.9 26-12.7 44.5m-126.7-15.1l17.5-9.5m-9 39.1c4 1 8.2 1.4 12.6 1.3 8.9-.2 18.6-2.7 29.1-7.4m-50.8 40.1c14.6-10 31.2-11.7 49.7-5.1m59 182.9c9.1 5.6 16.5 23.3 22.2 53m-49.2-59.6c17.7 22.4 29 48.3 33.9 77.6m-129.9-331.3c16.9 2.4 29.1-1.1 36.8-10.6m86.7-37.4c4.7 17.2 2 32.1-8 44.9m-658.5-180c8.7-3.9 17.5-3.9 26.2 0m-119.1 132.8c24.1-4.8 41.9-4.7 53.4.4m63.7-50.1c16.1 2.8 27.9 13.6 35.3 32.2m-96.5-49.7c23.5-10 43.7-11.2 60.7-3.5M1127.2 377c15.7-4.9 28.6-6.3 38.6-4m48.1 25.1c13.6 2.8 25.6 9.8 35.9 20.8 3.9 4.1 7.5 8.8 10.9 14m-102.9 130.9c17.1-3.1 36.6-16.1 58.4-39.1 3.6-3.7 7.8-8.6 12.6-14.5m4 9.5c.5 4.8.3 9.9-.8 15.4-1.9 9.6-6.2 20.3-13.1 32.2M1202.4 456c14.8 8.1 25.2 16 31.1 23.6M1019.7 524c1.9 4 4.7 7.3 8.4 10 10.3 7.5 27.6 9.6 51.7 6.2m-29.7-83.7c24.4-7.4 42-7.4 52.7 0m-67.9 202c15.5 9.2 29.3 9.2 41.3 0m-30.2 21.2c30.7 4.9 55.7 2.6 75-6.7 7-3.4 13.3-7.8 18.8-13m-2.2 100.6l36.8-11m-20.2 17.8c12.5-.9 28.2-6.6 47.3-16.9m69.7-208.9c12.2 21.1 16.8 54.6 13.8 100.4m.5-421.2l19.7 11.5"/></svg>