<svg xmlns="http://www.w3.org/2000/svg" id="horn" viewBox="0 0 3000 3000"><path id="cl1" fill="#2E2C29" d="M1923.3 868c-1.601-1.6-3.2-3.199-4.8-4.6-9.601-8.7-16.5-14.1-26.801-16.2-9.324 27.05-20.445 54.817-34 81.5 3.5.5 14.1-2.3 30-8.399 18.6-7.2 48.6.199 89.9 22.1-1-5.4-3.301-11.5-7-18.2-4.801-8.8-12-18.6-21.6-29.5-7.199-8.301-15.8-17.201-25.699-26.701m-466.601-382.9c-2.4-4.9-5.199-9.601-8.3-14.2-23.5-22.2-49.5-39-78.101-50.4-9.199-3.699-18.699-6.899-28.5-9.5-23.399-6.199-48.299-9.1-74.799-8.8-5.201.3-10.4.8-15.601 1.3-7 .7-14 1.601-20.8 2.7-25.9 4-50.6 10.601-74.1 19.7-8.4 3.2-16.701 6.8-24.801 10.8-41.8 20-79.6 48.601-113.5 85.7-16.2 18.5-30.8 37.4-43.9 56.8-2.3 3.4-4.6 6.8-6.8 10.3-24.3 37.601-43 76.601-56 117.301-18.6 51-19.1 104.5-1.399 160.699 6.899 21.801 16.5 43.9 28.8 66.5.5 1 1.1 2 1.7 3 75.5 99.2 169.1 109.801 280.899 31.5 9.101-6.399 18.3-13.8 27.601-22.1 45.899-46.8 96.699-53.3 152.399-19.3.8.4 1.5.9 2.3 1.4-.1-14.4-3.899-27.2-11.3-38.301-15.399-23.2-46.6-39.399-93.6-48.6-40.7 9.8-81.2 23.6-121.5 41.4-2.101.2-4.2.3-6.4.3-8.6 0-17.399-1.7-26.5-5-7-2.6-14.1-6.2-21.399-10.7-14.601-9-24.801-20.7-30.601-35.1-7.1-24.7-9.899-47.4-8.3-68.2 0-.7.1-1.5.1-2.2.4-4.7 1.101-9.4 2-13.9 2.101-3.899 4.9-9.5 8.5-16.899 16.301-33.101 28-53.2 35.2-60.5l.3-.301c1.801-1.8 3.601-3.399 5.4-5 4.5-4 9-7.399 13.7-10.199 13.3-8 27.3-11.4 42-10.2 32.899-.3 66.8 4.399 101.7 14l40.5 20c64.5-.601 105.5-22 123.199-64.101 1.2-3.5 2.301-7 3.301-10.399 4.699-16.3 7.6-31.7 8.8-46.3 2.302-27.499-1.797-51.999-12.198-73.2M1965.5 651.301c5.399-7.801 9.899-16.101 13.3-24.601 9.8-44.6 9.8-84.899 0-121-24.4-48.3-53.101-74-86.101-77.1h-2.5c-6.8.1-13.399.7-19.8 1.6-17.6 2.5-33.6 8-48.2 16.3a92.39 92.39 0 0 0-9.3 6c-22.399 15.7-40.899 39.1-55.399 70.301 1.3 6.399 2.899 12.699 4.699 19 .1.199.2.5.2.699a271.74 271.74 0 0 0 13.5 36.5c10.2 22.5 23.601 44.301 40.3 65.301 12.4 15.699 26.5 30.899 42.5 45.699 6.301-5.3 12.6-10.1 18.801-14.399-4.301 11.5-3.301 25 3 40.399 39-17.6 67.4-39.199 85-64.699z"/><path id="hl1" fill="#4B433E" d="M1354.5 880c13.8 4.5 26.8 11.2 38.8 20-15.4-23.199-46.601-39.399-93.7-48.6-40.7 9.8-81.2 23.6-121.5 41.4-83.1 36.6-140.9 31.2-173.5-16.301 15.5 24.001 30.3 39.601 44.3 46.801 24.5 5.8 45.3 7.399 62.601 4.8 53.8-10.9 107.5-27.7 161.3-50.4 32.499-6.399 59.699-5.6 81.699 2.3m533.4-22.699l-3.6 10.6c26.1 13 51.3 28.2 77.8 45.4l-16.6-14.5c-7.9-10.5-18.801-20-32.801-28.5l-24.799-13M1457.3 494.9l-75.8-37.7-18-7.5c-31.7-11.8-62.7-17-93.2-15.5l-24 2.601c-47.4 6.399-97.4 27.6-150 63.6-52.601 36-82.4 71.6-89.5 106.8 66.2-68.1 138.8-105.8 217.6-113.2 49.5-6 101-.5 154.4 16.4 17.1 6.5 35 16.9 53.8 31.3l37 26.5c2.2-27.601-1.901-52.101-12.3-73.301m491.2 14.6c5-3.8 8.3-8.699 9.8-14.899-8.4-19.5-23.9-31.601-46.601-36.2v-.1c-39-3.601-70.899 6.399-95.699 30.199-15.4 8.9-33.801 26.7-55.301 53.301.101.199.101.399.2.699a271.74 271.74 0 0 0 13.5 36.5c43.701-62.6 101.8-85.8 174.101-69.5z"/><path id="sd1" fill="#141211" d="M1338.699 890c-7.9-2.399-16.699-2.399-26.199 0l-41.801 15c-16.4 6.801-28.699 14-36.8 21.801-9.399 5.699-16.5 9.5-21.2 11.3-4.699 1.8-15.1 6.899-31.1 15.2-9.7 5-19.9 8.8-30.7 11.3l-33.399 7.6c-18.7 5.8-39.601 7.2-62.801 4.101-57.199-3.601-98.199-29-123-76.101l-18-22.8c6.9 21.8 16.5 43.9 28.801 66.5.5 1 1.1 2 1.6 3 75.5 99.2 169.1 109.8 280.9 31.5 9.1-6.4 18.299-13.8 27.6-22.1C1298.5 909.5 1349.299 903 1405 937c-1.9-15.4-24-31.1-66.301-47m521.147 34.424c3.5.5 13.254 1.876 29.154-4.224 18.6-7.2 48.6.2 89.899 22.101-1-5.4-3.3-11.5-7-18.101-10.8-7.6-21.2-14-31-19.1-24.899-13-46.7-18.101-65.3-15.3-5.513 12.779-7.969 18.248-15.306 33.719M1296.699 669l40.5 20c64.5-.6 105.5-22 123.1-64.1 1.201-3.5 2.301-7 3.301-10.4l-10.1-4.5c-43.4-39.199-121.9-51.699-235.5-37.6-36.601 2.1-73.101 15.4-109.5 40.1-16.101 13.5-32.601 30.5-49.4 50.9-32 40.8-50.2 80-54.6 117.5-1.7 9.3-1.9 18.8-.601 28.5 20-45 51.7-77.4 95.2-97.2l13.699-5.399c6.701-10.301 13.701-19 20.9-26.301l.301-.3c1.8-1.8 3.6-3.399 5.399-5 4.5-4 9-7.399 13.7-10.2 13.3-8 27.3-11.399 42-10.199 32.802-.201 66.702 4.5 101.601 14.199m670.101-17.699c3.2-19.7 4.899-35.7 5-47.801-3.9-7.8-7.9-13.3-12.2-16.5-31.7-6-71 6.801-117.9 38.301l-24.1 19c12.4 15.6 26.5 30.899 42.5 45.699 6.3-5.3 12.6-10.1 18.8-14.399-4.3 11.5-3.3 25 3 40.399 38.9-17.699 67.2-39.199 84.9-64.699z"/><path fill="none" stroke="#000" stroke-linecap="round" stroke-linejoin="round" stroke-width="6" d="M1942 496.801c2.3 3.3 4.5 6.699 6.3 10.3 11.6 21.7 14.3 47.6 8.2 77.6-1.7 8.2-3.801 16.3-6.301 24.101m-17.5 37.999c-10.9 2.3-22 6.399-33.4 12.199a173.85 173.85 0 0 0-11 6c-4.199 2.5-8.399 5.2-12.699 8.2 3 3.7 2.3 6.8-2.301 9.4-1.1 9.3.601 19.6 5.301 31 39-17.601 67.4-39.2 85.1-64.7 5.4-7.8 9.9-16 13.301-24.7 9.8-44.6 9.8-84.899 0-121-24.4-48.3-53.101-74-86.101-77.1h-2.5c8 5.2 15.3 14.3 21.8 27.3l1.2 2.4h0c.4.8.8 1.6 1.2 2.5M1360.199 609c.4 11-20.9 30.7-64 59l37.9 18.7c64.5-.6 105.6-22 123.1-64.1 1.2-3.5 2.301-7 3.301-10.5 4.699-16.3 7.6-31.7 8.8-46.3 2.2-27.601-1.9-52.101-12.3-73.301-2.4-4.899-5.2-9.6-8.301-14.199-23.5-22.2-49.5-39-78-50.4 4.4 4.7 7.9 13.6 10.5 27 .301 1.7.6 3.5.9 5.4m-85.9 207.7l-2.6-1.3c-34.9-9.7-68.801-14.399-101.6-14.1-14.7-1.2-28.801 2.2-42.101 10.2-4.7 2.8-9.2 6.199-13.7 10.199-1.8 1.601-3.6 3.2-5.399 5l-.3.301c-7.2 7.199-14.2 16-20.9 26.3-5.6 8.5-11 18.1-16.301 28.8-4.5 11.3-7.299 23.4-8.5 36.3-.1.7-.1 1.4-.1 2.2-1.6 20.8 1.1 43.5 8.301 68.2 5.8 14.5 16 26.2 30.6 35.1 7.3 4.5 14.5 8.101 21.5 10.7l26.5 5c2.199 0 4.3-.1 6.4-.3 40.199-17.8 80.699-31.601 121.5-41.4 47 9.2 78.3 25.4 93.6 48.601 7.4 11.199 11.1 23.899 11.3 38.3-.8-.5-1.5-1-2.3-1.4-55.7-33.899-106.5-27.399-152.4 19.4-9.199 8.3-18.4 15.7-27.6 22.1-111.801 78.2-205.5 67.7-280.9-31.5-.6-1-1.1-2-1.699-3-12.301-22.6-21.9-44.7-28.801-66.5C893 819 893.5 765.4 912.1 714.4c13-40.6 31.7-79.7 56-117.3 2.2-3.5 4.5-6.9 6.8-10.3 13.1-19.3 27.7-38.3 43.9-56.8 33.899-37.1 71.7-65.699 113.399-85.699 8.1-3.9 16.4-7.5 24.9-10.801 23.5-9.1 48.199-15.699 74.1-19.699 6.9-1.101 13.801-2 20.9-2.7 5.1-.5 10.3-1 15.6-1.3 26.4-.301 51.301 2.6 74.801 8.8 9.8 2.6 19.3 5.7 28.5 9.5m-28.801-9.601c9.5 3.7 16.5 13.301 21 28.801 4.1 14.199 6.6 31.699 7.5 52.5m57.5-9.5c4.2 8.899 5.6 25.3 4.1 49.1-.699 11.2-2.1 24-4 38.4 0 .199-.1.399-.1.6m460.301-152.1c-6.801.1-13.5.6-19.9 1.5 9.1 2.8 17.199 8.5 24.1 17.199m-69.2 27.6c-4.601-11-5.601-20.5-3.101-28.4-3.2 1.8-6.3 3.8-9.399 6-.7 11.8.899 23.8 4.699 36 1.801 5.9 4.2 11.9 7.2 17.9 1.101 2.3 2.3 4.7 3.601 7.1m-6.1-67c14.5-8.399 30.601-13.899 48.101-16.399M1811 450.2c-18.96 20.326-33.9 30.101-48.301 61.3-2.949 7.75-4.1 21.801-2.199 28 .1.2.1.4.199.601 3.6 12.399 8.1 24.6 13.5 36.6 10.2 22.5 23.6 44.3 40.2 65.3 12.399 15.601 26.5 30.9 42.399 45.7 7.601-1.399 13.101-3 16.5-5 .4-3.3 1.201-6.399 2.301-9.399m-1.9-36.802c2 4.301 10.5 11.801 25.6 22.5m-74.499-57.699c4 7.699 8.5 15 13.8 21.8 12.8 16.8 29.4 30.8 49.8 42m-31.6 22.599h12.3m67.2 218.3c.399-1.1.8-2.1 1.5-3.199.6-1 1.3-2 2-3s1.6-2 2.5-3c1.399-1.5 3-3 4.899-4.5C1940 884 1931.4 875.2 1921.5 865.7c-1.601-1.6-3.2-3.2-4.801-4.6-3.699 2.1-6.1 4.5-7.1 7.2-.5 1.199-.6 2.5-.5 3.899m-17.199-27.398c10.2 2.1 15.101 7.5 24.8 16.199m-57.9 65.301c3.5.5 11.1-2.301 27-8.4 18.6-7.2 48.6.2 90 22.1-1-5.399-3.3-11.5-7-18.199-4.9-8.801-12.101-18.601-21.601-29.5M1251.9 411c6.9 1.801 12.9 8.801 18 20.801.5 1.199 1 2.5 1.5 3.899m-40.4-21.899c5.3.899 10.3 7.8 15 20.8 2.399 6.7 4.699 14.899 7 24.8m-36.1 79.099c-.1 10.801-.8 21.301-2 31.601-3.399 28.6-11.1 56.1-23 82.5M1132.1 444.2c-15.7 13.5-27.301 28.7-34.801 45.601m-78.299 272c23.5-52.9 62.5-82.5 117.1-88.801m-30.8-62.8c9.7 25 24.5 42.601 44.5 52.601M1157 433.5c-10.301 7.9-20 19.5-29.2 34.801M974.8 586.7c1.2 16.2 3.7 25.7 7.3 28.3M962 727.2c8.8 7.601 17.699 11.601 26.5 12m-56-27.5c15.199 22.7 35.199 36.4 60.1 41M968 597c-2.801 14.601-.7 29.801 6.1 45.601m170.9 243.2c9.1 3.3 17.899 5 26.5 5m6.3-.301c-83.101 36.601-140.9 31.2-173.5-16.399-3.5-5-6.601-10.5-9.5-16.4M930 875.4c-1.601 6.7-2.101 14.2-1.5 22.4.899 12.7 4.5 27.3 10.8 43.7"/></svg>