<svg xmlns="http://www.w3.org/2000/svg" id="horn" viewBox="0 0 3000 3000"><path id="cl1" fill="#c32c2c" d="M1024.2 347.2c-2.8 10-5.3 19.9-7.3 29.6-25 119.3 10.2 219.1 105.6 299.4 20.7 15.2 38.5 24 53.5 26.3 23.5-.4 44.1-11.5 62-33.1 6.7-8 12.9-17.5 18.8-28.5 4.3-9.7 7.8-19 10.5-27.8 7.7-24.9 9.2-46.3 4.5-64.2-2.8-10.6-7.8-19.9-15-28-63.5-16.4-108.9-34.7-136.1-54.8-33.2-24.6-60.7-64.2-82.8-118.8-4.8-10.8-9.3-10.8-13.7-.1M1952.1 485c4.1-25 7.3-52 9.5-81 3.7-39.9-.5-56.7-12.8-50.4-52 91.6-104 148.1-156 169.6 7.4 5.2 14.4 11.8 21.1 19.5 7.6 8.9 14.7 19.5 21.4 31.7 8.5 15.6 16.1 33.9 23 55 4.7 14.3 9 29.8 13 46.6 39.1-37.6 66-101.2 80.8-191z"/><path id="hl1" fill="#d16764" d="M1270.8 547.4c-54.2-1.3-97.8-13.9-130.9-37.7s-60.1-53.6-80.9-89.6c27.4 86.2 96.6 150 207.4 191.4 7.7-24.9 9.2-46.3 4.4-64.1m653-94.6c.6-1.4 1.1-2.8 1.7-4.2 10.1-25.6 16.5-52.6 19-81.2-6.3 27-15.9 53.5-28.9 79.7-22.5 45.3-56.8 76.8-102.8 94.3 7.6 8.9 14.7 19.5 21.4 31.7 44.3-38.9 74.2-79 89.6-120.3z"/><path id="sd1" fill="#9b1e1e" d="M1067.7 540.5l-7-11.3c-23.3-51.6-38-102.4-44.2-152.4-25 119.3 10.2 219.1 105.6 299.4 20.7 15.2 38.5 23.9 53.5 26.3 23.5-.4 44.2-11.4 62.1-33.1-57.8-15.8-114.4-58.8-170-128.9m790.2 88.9c4.7 14.3 9 29.8 12.9 46.6 39.2-37.6 66.1-101.3 80.9-191-46.4 90.8-77.7 139-93.8 144.4z"/><path fill="none" stroke="#000" stroke-linecap="round" stroke-linejoin="round" stroke-width="6" d="M1792 522.3c7.4 5.2 14.4 11.8 21.1 19.6 7.6 8.9 14.7 19.5 21.4 31.7 8.5 15.6 16.1 33.9 23 55 4.7 14.3 9 29.8 12.9 46.6 39.2-37.6 66.1-101.3 80.9-191 4.1-25 7.3-52 9.5-81.1 3.7-39.9-.5-56.7-12.8-50.4-52 91.6-104 148.2-156 169.6zm-670.2 153c20.7 15.2 38.5 24 53.5 26.3 23.5-.4 44.2-11.4 62-33.1 6.6-8 12.9-17.5 18.8-28.5 4.3-9.7 7.8-19 10.6-27.9 7.7-24.9 9.2-46.3 4.4-64.1-2.8-10.6-7.8-20-15-28-63.5-16.4-108.9-34.7-136.1-54.9-33.2-24.6-60.7-64.2-82.7-118.7-4.8-10.7-9.4-10.7-13.8 0-2.9 10-5.3 19.9-7.3 29.6-25 119.3 10.1 219 105.6 299.3z"/></svg>