<svg xmlns="http://www.w3.org/2000/svg" id="horn" viewBox="0 0 3000 3000"><path id="cl1" fill="#f0e487" d="M1590.7 514.7c-11.8 14.9-14.8 34.4-9 58.6 9.7 28.2 36.3 50.3 79.5 66.3 44 10.6 78.1 5.6 102.4-14.9 10-8.5 18.3-19.6 25-33.5 7.5-20 9.2-32.8 5.1-38.3 17.4-15.7 23-33.1 16.8-52.1 3.7-2.7 7.3-5.7 10.7-9.1 8.8-8.7 12.2-20.4 10.3-35.1 13-10.1 18.2-23 15.6-38.6l31.5-72.6-86.6 51c-15.3-1.3-29.9 2.4-43.8 11-6.8 4.2-10.9 10.6-12.3 19.5-22.6-1.5-36.6 7.8-42.1 27.8-23.1 2.7-41.2 11.9-54.3 27.5-8.7-3.4-25.1 7.4-48.8 32.5z"/><path id="hl1" fill="#f9ffb5" d="M1683 475.3c-5.8-5.8-12.4-5.2-20 1.8-5.8 5.3-8.8 11.7-9 19.2-1.4 16.4 4.4 27.7 17.6 33.8 11.2 4.4 20.9 3.3 29-3.4 3.3-5.3 3.3-10.5 0-15.4-7.6-10.8-13.4-22.8-17.6-36m43.8-33.5c-1.7-2.2-4.1-2.4-7-.7-4.3 2.4-6.8 5.5-7.6 9.1-1.4 6.6-1.3 11.8.5 15.6 5.4 11.3 13.8 17.1 25.2 17.3 12.1.3 17-1.9 14.8-6.5-7.7-12.5-16.3-24.1-25.9-34.8m-107.8 72c-.6-3.5-2.4-4.6-5.6-3.4-7.3 2.2-12.3 8.6-15.2 19.2-5.5 22.8-.2 39.1 16 48.8 7.7 4.6 16 6.6 25 6 3 .1 5.3-.5 6.6-1.8 3.7-2.3 1.6-10.2-6.3-23.9-7.8-13.7-14.7-28.7-20.5-44.9m236.5-146.5l19.2-17.7-89.8 54.2c-2.6 1.4-6 1.7-10.3 1-5.1-1.1-9.6-.1-13.3 3.1-3.9 3.5-5.2 8.3-3.9 14.5 2.4 8.6 8.3 14.2 17.6 16.9 6.9 1.1 11.5-.3 13.9-4.3.7-1.1 1.1-2.3 1.1-3.7-.5-6.1.4-10.9 2.8-14.3l62.7-49.7z"/><path id="sd1" fill="#cca55a" d="M1792.8 474.1c3 3.2 4 7.5 2.9 12.9-1.2 6.2-8.5 11.1-21.8 14.8-25.5 4.5-52.3-2.4-80.4-20.6 5 16.2 21.9 27.3 50.9 33.5 7 1 13.7 1.4 20.2 1.3 4.9 6.9 6.9 13.5 5.9 19.7-6.7 18.2-23 27.9-48.8 29.2-40.5 2.3-72.8-13.3-96.8-46.8-.5 16.8 6.6 31.4 21.3 43.8 25.5 18.9 51.5 26.8 78.2 23.7 5.8 6.1 6.5 13.4 2.1 21.9-5.2 10.1-16.5 15.8-33.9 17.1-43.4-1.6-80.3-18.6-110.7-51.2 9.7 28.2 36.3 50.3 79.6 66.3 44 10.6 78.1 5.7 102.4-14.9 4.9-8.5 9.9-17.4 15-26.7s8.2-19.4 9.2-30.3c-.7-2.2-3-3.9-6.8-5-1.1.7-3.7 2.4-8 5.1 28.4-30.6 39-51.7 32-63.4 15.8-22.2 21.4-36.1 16.9-41.5-.6.3-1.1.6-1.8.9 16.4-19.4 23.2-33.8 20.6-43.1l32.5-67.8-43.5 63.9c-4.5 14.3-11 24.4-19.6 30.4-27.3 15.2-52 13.3-74-5.7.2 2 .5 4 1 6.1 12.2 22.1 29.8 31.1 53 27.1.9-.3 1.7-.5 2.4-.7z"/><path fill="none" stroke="#000" stroke-linecap="round" stroke-linejoin="round" stroke-width="6" d="M1793.8 552.9c4 5.5 2.3 18.3-5.1 38.3-6.7 13.8-15 25-25 33.5-24.3 20.6-58.4 25.6-102.4 14.9-43.3-16.1-69.8-38.2-79.5-66.3-5.8-24.2-2.8-43.7 8.9-58.6 23.8-25.1 40.1-35.9 49.1-32.5h0c13.1-15.6 31.2-24.8 54.3-27.5 5.5-20 19.5-29.3 42.1-27.8 1.3-8.8 5.4-15.3 12.3-19.5 13.9-8.6 28.5-12.3 43.8-11l86.6-51-31.5 72.6c2.5 15.6-2.7 28.5-15.6 38.6 1.9 14.7-1.5 26.4-10.3 35.1-3.4 3.4-7 6.4-10.7 9.1 6 19 .4 36.4-17 52.1-3.7 3.3-7.9 6.6-12.7 9.8-1.1.7-3.7 2.4-8 5.1-1.2.7-4.5 2.4-9.6 5.1-13.2 6.7-26.3 10.9-39.3 12.4-26.7 3.2-52.7-4.7-78.2-23.6-14.7-12.3-21.8-26.9-21.4-43.8.1-4.9.9-10 2.3-15.3 3.5-7.7 7.8-14.6 12.8-20.5m191.9-25.4c-2.8 2.2-6 4.3-9.6 6.3-.6.3-1.1.6-1.7.9-7.7 4-16.9 7.4-27.8 10.2-.8.2-1.5.4-2.3.6-23.2 4.1-40.9-5-53.1-27.1-.4-2.1-.7-4.1-1-6.1-.7-5.4-.7-10.3 0-14.6m-42.1 27.8c-.9 3.2-1.6 6.7-2 10.4-.7 5.8-.3 11.2 1.2 16.1 5 16.2 21.9 27.3 50.9 33.5 7 1 13.7 1.4 20.2 1.2 15.2-.4 28.9-4.3 40.8-11.4 2.3-1.4 4.2-2.6 5.5-3.6"/></svg>