<svg xmlns="http://www.w3.org/2000/svg" id="图层_2" viewBox="0 0 3000 3000"><path id="cl1" fill="#F9DFAF" d="M1545.489 330.685c-.213-25.156-2.701-40.735-7.253-46.794-10.094-14.987-25.846-16.082-47.114-3.273-22.535 18.953-36.016 41.617-40.509 67.986-.642 10.25 1.463 20.271 6.315 30.062-11.387 1.59-22.795-.532-34.288-6.443-13.089-6.162-22.808-.324-29.308 17.642-12.553 36.525-5.053 56.585 22.504 60.11 24.586-10.127 42.739-14.398 54.399-12.889l-.046-.353c2.311 10.105 5.51 20.482 9.604 31.131-15.086 5.464-32.785 6.196-53.021 2.128-7.97-.203-14.294 6.15-18.833 19.07-5.483 16.426-5.701 27.616-.657 33.64 11.248 14.507 24.782 22.312 40.528 23.477 11.205.007 26.75-10.047 46.785-30.295l.073-.064.36.865c14.818 33.664 28.386 51.063 40.688 52.409 18.343 5.126 33.242 3.359 44.56-5.309 9.345-11.537 13.181-28.428 11.579-50.738-.041-7.495-1.488-11.868-4.332-13.258-48.962-40.168-62.974-96.535-42.034-169.104m396.034 23.457c-5.001-11.872-11.772-18.294-20.39-19.146-12.806-3.423-22.885-.514-30.108 8.672-10.437 13.522-18.312 38.431-23.56 74.791-19.181 60.975-50.246 94.339-93.196 100.093-17.252 24.129-17.79 46.442-1.474 66.764 22.567 7.836 38.908 9.604 49.086 5.312 14.646-8.48 25.158-20.352 31.479-35.68 15.67 4.128 27.938 9.856 36.73 17.242 26.885-2.375 42.118-7.458 45.758-15.184 3.205-11.492.881-21.785-6.904-30.938-2.092-1.792-4.36-1.949-6.682-.464-10.724 2.167-21.528.022-32.349-6.49 8.239-12.852 16.19-27.052 23.916-42.536 12.259 12.187 23.829 20.651 34.698 25.522 18.431.838 34.441-4.509 48.034-16.038 4.842-25.942 2.675-43.063-6.567-51.302-28.236 1.773-44.495.645-48.837-3.394 11.153-18.348 14.938-34.548 11.288-48.542-1.83-7.344-5.472-16.905-10.922-28.682z"/><path id="sd1" fill="#AF908B" d="M1909.418 557.385l-9.605 3.385c-14.771.24-24.104-2.118-27.936-7.133-3.022-3.882-2.819-10.454.73-19.643-6.376 5.192-15.582 11.013-27.68 17.453-6.577 3.531-14.059 8.204-22.448 14.144-4.4 3.177-8.924 5.396-13.513 6.723l-8.262.439c-17.271-2.023-30.151-6.211-38.63-12.688.593 13.338 5.216 22.461 13.923 27.437 15.131 6.433 30.926 7.847 47.391 4.179l8.705-8.642c7.938-7.615 15.063-16.303 21.322-26.188l2.375 1.368c13.766 3.299 24.684 8.363 32.823 15.135 17.627 1.479 33.131-3.84 46.567-15.887l.482-6.933-26.244 6.851m84.955-68.055l2.938-21.323c-5.438 6.271-19.404 12.266-41.774 17.993l-4.978-.347c-7.188-3.159-13.768-8.745-19.791-16.825-1.565-2.071-2.037-6.22-1.353-12.44-7.466-.075-14.315 1.918-20.622 6.102-10.509 11.809-19.021 25.906-25.539 42.233-3.423 8.248-2.301 13.96 3.377 17.015l28.526-44.242c8.962 9.55 18.715 16.814 29.14 21.718 6.772 4.586 13.453 5.05 20.039 1.392 10.293-2.326 20.305-6.063 30.037-11.276m-408.398 58.953c2.857-4.844 4.436-12.438 4.585-22.65l-13.495 22.873c-3.557 2.834-15.475 2.006-35.613-2.476-4.904-1.952-9.398-8.847-13.265-20.739l-19.513-22.575c-5.58-3.329-16.19-4.837-31.76-4.52-20.605 5.292-43.488 5.033-68.65-.707-9.528 15.165-3.683 28.808 17.666 41.075 9.591 7.109 19.035 9.236 28.469 6.53 9.683-2.27 18.113-7.705 25.154-16.32l14.851-9.122 13.312 26.137c8.527 11.307 17.688 19.576 27.543 24.884l31.642 2.197 13.024-8.059c9.12-16.384 11.187-21.913 6.05-16.528m-115.902-148.185l-4.675 1.775c-.861 5.333-2.372 8.939-4.682 10.95-13.988 11.844-26.678 19.086-38.066 21.727s-22.538-2.195-33.309-14.499l1.293 14.655 5.125 6.869 16.127 7.773 9.043-1.123 46.947-10.464 2.504-2.769 7.473 31.543 13.445 3.035c5.114-1.045 7.601-5.564 7.604-13.688-1.922-26.742-11.487-45.335-28.829-55.784z"/><path id="hl1" fill="#FFF8E8" d="M1932.345 534.537c1.682-3.237.146-5.752-4.601-7.602-11.328 1.746-23.953-.651-37.878-7.127-4.612 4.428-5.704 10.115-3.346 17.181 14.638 3.486 29.894 2.646 45.825-2.452m11.932-101.56l-7.626 5.865 8.311 3.427c12.641 1.258 25.354 3.281 38.149 5.943l12.069-.555-4.335-11.444-42.472-1.115-4.096-2.121m-31.449-86.906c6.156-.206 12.987 3.561 20.621 11.247l12.441 7.766c-2.863-7.101-6.859-14.279-11.98-21.665-11.732-13.416-26.405-13.676-44.014-.841l-17.252 47.812c-2.064 23.349-7.892 45.231-17.479 65.651-22.53 36.3-49.579 57.405-81.071 63.196l-12.249 25.933 4.416-1.593c43.645-22.105 74.15-48.353 91.388-78.626l17.782-41.759c6.662-24.801 15.188-49.094 25.516-72.881m-367.537-69.557l-8.965-5.034-12.613-.876-14.221 3.074-9.308 7.968c12.581-3.679 22.489-4.181 29.718-1.367 5.59 2.21 9.538 7.876 11.69 17.2l-4.314 79.255c1.04 20.312 2.466 35.047 4.281 44.208 6.344 19.559 13.974 36.757 22.892 51.521l36.358 35.092 2.301.159-3.987-11.132-21.238-19.894-20.627-33.718-3.846-8.181-5.957-38.23 3.129-45.022 7.219-25.27-3.532-24.757-3.669-17.762-5.311-7.234m-116.052 90.891c-5.174-1.13-9.457.043-12.836 3.31-5.807 5.97-9.726 12.98-11.69 21.107 16.42-10.554 34.13-13.456 53.202-8.77 4.666-1.637 6.274-3.626 4.98-6.167l-33.656-9.48m36.853 107.607l3.824-4.636-32.27-2.241-9.714 3.736-10.981 16.955c15.413-11.184 31.84-15.786 49.141-13.814z"/><path fill="none" stroke="#000" stroke-linecap="round" stroke-linejoin="round" stroke-width="6" d="M1853.182 555.695c-6.316 15.264-16.771 27.202-31.479 35.678-10.177 4.295-26.518 2.527-49.084-5.311-16.313-20.382-15.781-42.634 1.477-66.826 42.945-5.69 74.013-39.056 93.195-100.093 5.31-36.293 13.186-61.266 23.617-74.724 7.225-9.186 17.305-12.095 30.11-8.672 8.61.915 15.388 7.274 20.389 19.146 5.384 11.834 9.024 21.396 10.929 28.62 3.65 13.994-.136 30.193-11.287 48.542 4.342 4.038 20.6 5.167 48.837 3.393 9.243 8.24 11.472 25.366 6.563 51.365-13.587 11.467-29.598 16.813-48.028 15.977-10.875-4.809-22.438-13.337-34.705-25.459-7.724 15.482-15.672 29.62-23.908 42.473 10.816 6.514 20.917 8.798 30.428 6.799 3.602-1.712 6.508-1.637 8.602.155 7.785 9.153 10.047 19.44 6.905 30.937-3.64 7.726-18.937 12.805-45.821 15.18-8.806-7.323-21.07-13.052-36.74-17.18l11.39-9.91m76.477-113.729c-1.36 2.248-2.847 4.488-4.398 6.786m-22.938 38.49c1.694-3.43 3.461-6.979 5.103-10.537M1456.8 379.497c-4.853-9.791-6.957-19.812-6.315-30.062 4.424-26.375 17.979-49.104 40.51-67.986 21.27-12.81 37.02-11.715 47.113 3.273 4.62 6.063 7.041 21.638 7.323 46.798-20.938 72.568-6.928 128.937 41.896 169.095 2.845 1.389 4.291 5.762 4.33 13.256 1.603 22.313-2.232 39.203-11.578 50.739-11.316 8.668-26.222 10.503-44.563 5.377-12.306-1.274-25.869-18.745-40.688-52.409-.121-.287-.239-.575-.365-.795-19.959 20.184-35.58 30.304-46.779 30.226-15.746-1.164-29.273-9.037-40.527-23.476-5.049-5.953-4.828-17.213.651-33.569 4.608-12.916 10.858-19.204 18.833-19.071 20.236 4.067 37.936 3.336 53.021-2.129-.065-.074-.056-.213-.121-.288-4.036-10.437-7.178-20.668-9.432-30.558l-.068-.006c-11.66-1.51-29.815 2.761-54.33 12.894-19.159-2.453-28.586-12.911-28.363-31.244.074-8.119 2.071-17.714 5.857-28.867 6.426-17.902 16.221-23.804 29.304-17.573 11.428 5.837 22.899 8.035 34.291 6.375 1.719 3.481 3.856 6.991 6.276 10.451m4.34 33.287a163.05 163.05 0 0 0 2.643 14.399c-.01.14.055.214.045.354m24.289 78.791a173.21 173.21 0 0 1-1.625-3.824m-13.177-44.195c1.604 4.104 3.276 8.282 5.155 12.474m399.397 47.168a304.02 304.02 0 0 0 5.662-8.598"/></svg>