<svg xmlns="http://www.w3.org/2000/svg" id="scar_x5F_f" viewBox="0 0 3000 3000"><path id="cl1" fill="#A20D03" d="M1821.25 1176.015c-4.1-10.1-31.85-37.115-32.25-37.715-.4-.601-20.6-17.101-20.6-17.101s4.6-.3 7.899 2.101c3.301 2.399 21.101 13.1 27.101 19.199 6 6.101 19.909 22.052 19.909 22.052"/><path id="hl1" fill="none" stroke="#F9CECD" stroke-miterlimit="10" d="M1821.25 1176.015c-4.1-10.1-31.85-37.115-32.25-37.715-.4-.601-20.6-17.101-20.6-17.101s4.6-.3 7.899 2.101c3.301 2.399 21.101 13.1 27.101 19.199 6 6.101 19.909 22.188 19.909 22.188"/><path fill="none" stroke="#4B2411" stroke-miterlimit="10" stroke-width="3" d="M1777.7 1151.6s26-23.101 31.3-25.2m14.7 21.5s-28.101 18.8-32.4 23.1"/></svg>