<svg xmlns="http://www.w3.org/2000/svg" id="scar__f" viewBox="0 0 3000 3000"><path id="cl1" fill="#FF9B87" d="M1385.932 1096.662s18.223 52.911 34.949 73.346c2.603 11.259-5.011 15.164-5.011 15.164s8.656 23.625 60.981 59.68c-12.365-16.921-35.794-39.244-40.155-55.319-2.147-7.81.456-12.17.456-12.17l2.798-1.497s1.106-7.81-3.449-12.366c-21.022-21.281-50.569-66.838-50.569-66.838z"/><path fill="none" stroke="#9D4E4C" stroke-miterlimit="10" stroke-width="6" d="M1385.932 1096.662s18.223 52.911 34.949 73.346c2.603 11.259-5.011 15.164-5.011 15.164s8.656 23.625 60.981 59.68c-12.365-16.921-35.794-39.244-40.155-55.319-2.147-7.81.456-12.17.456-12.17l2.798-1.497s1.106-7.81-3.449-12.366c-21.022-21.281-50.569-66.838-50.569-66.838z"/></svg>