<svg xmlns="http://www.w3.org/2000/svg" id="scar__f" viewBox="0 0 3000 3000"><path id="cl1" fill="#FF9B87" d="M1750.135 1075.264s27.39 9.109 47.215 36.949c12.704-13.426 18.702-35.922 18.702-35.922l-.261 16.726-10.783 26.163 19.659 11.987v13.333l-22.39-17.809s-28.518 49.886-44.873 102.857c8.207-42.015 26.149-98.062 37.211-110.384-17.064-23.844-44.48-43.9-44.48-43.9z"/><path fill="none" stroke="#984D4A" stroke-miterlimit="10" stroke-width="6" d="M1823.228 1131.009l-15.894-13.343 8.458-24.719.261-16.726s-5.015 18.853-17.719 32.278c-19.824-27.839-48.197-33.305-48.197-33.305s26.2 20.868 43.197 44.639c-10.921 12.184-27.497 66.786-35.771 108.588 0 .07.068.071.069.001 16.421-52.547 44.576-101.874 44.576-101.874l22.459 17.952"/></svg>