<svg xmlns="http://www.w3.org/2000/svg" id="scar_x5F_f" viewBox="0 0 3000 3000"><path id="cl1" fill="#FF9B87" d="M1400.447 1082.2s-1.205 22.554 30.711 81.918c-43.974 43.122-55.109 58.371-67.237 79.648 21.277-23.546 65.251-67.024 71.138-69.151 5.887-2.128 60.499 110.146 65.959 124.969 5.532 15.461-4.255-54.612-55.108-132.417 23.405-27.447 67.379-52.271 68.301-52.697.922-.497-22.909.497-72.131 41.349-7.944 5.462-41.633-73.619-41.633-73.619z"/><path fill="#9D4E4C" d="M1400.447 1082.2c.139 3.669.936 7.267 1.792 10.816.886 3.549 1.955 7.048 3.128 10.51 2.359 6.919 5.083 13.707 8.06 20.379 2.972 6.676 6.197 13.235 9.534 19.734a506.27 506.27 0 0 0 10.484 19.249l.938 1.641-1.407 1.442c-6.083 6.233-11.985 12.635-18.14 18.769a503.262 503.262 0 0 0-17.911 18.88c-5.787 6.437-11.365 13.028-16.465 19.936-5.12 6.896-9.661 14.165-13.933 21.696l-4.832-3.497c11.019-12.125 22.413-23.788 33.962-35.329 5.784-5.759 11.617-11.469 17.55-17.096a481.174 481.174 0 0 1 9.016-8.354 212.73 212.73 0 0 1 4.658-4.084c1.607-1.347 3.165-2.665 5.078-3.971.518-.332.964-.652 1.849-1.037l.187-.073c.509-.169.194-.062.332-.106a3.532 3.532 0 0 1 1.347-.093 4.085 4.085 0 0 1 1.329.403c.604.306.922.573 1.236.827 1.134.99 1.78 1.841 2.484 2.725 1.343 1.748 2.493 3.487 3.622 5.243 2.239 3.507 4.312 7.051 6.346 10.613 4.055 7.127 7.916 14.325 11.714 21.551 7.582 14.459 14.891 29.037 22.048 43.693 3.574 7.33 7.107 14.68 10.573 22.071a767.79 767.79 0 0 1 5.126 11.14 275.579 275.579 0 0 1 2.476 5.659c.403.961.8 1.918 1.187 2.955l.245.656c.076.188.156.384.222.519.03.064.065.136.073.146.014.035.013-.003-.132-.17a1.777 1.777 0 0 0-.23-.229c-.216-.175-.321-.274-.762-.466-.504-.203-1.188-.341-2.128-.011-.659.208-1.214.876-1.301 1.018a2.8 2.8 0 0 0-.297.555c-.041.097-.078.246-.082.257-.011.042-.02.084-.026.126l-.006.033c-.003.052.007-.14 0-.304-.003-.175-.019-.39-.034-.601a28.637 28.637 0 0 0-.149-1.365 64.192 64.192 0 0 0-.458-2.874 130.335 130.335 0 0 0-1.214-5.839 228.187 228.187 0 0 0-3.04-11.662c-2.225-7.744-4.773-15.413-7.549-22.999-11.162-30.336-25.875-59.393-43.545-86.473l-1.229-1.883 1.457-1.705c4.747-5.553 9.936-10.625 15.326-15.421 5.396-4.792 11.009-9.299 16.753-13.612a360.76 360.76 0 0 1 17.606-12.376c5.995-3.948 12.043-7.746 18.317-11.342l.603-.339.316-.174.184-.099.192-.096c-.875.807.122-.813-1.569 1.848.273 4.528 1.938 3.126 1.878 3.652.426.134.499.114.571.13l.115.009c.027.001.027 0 .012.001l-.167.009-.5.053c-.73.096-1.536.254-2.334.438a53.608 53.608 0 0 0-4.852 1.39c-3.237 1.082-6.442 2.402-9.596 3.851-6.311 2.909-12.433 6.339-18.394 10.04-5.99 3.667-11.697 7.797-17.416 11.912-5.753 4.072-11.446 8.263-17.006 12.64l-.133.105-.046.031a4.131 4.131 0 0 1-1.634.636 4.393 4.393 0 0 1-1.564-.063c-.886-.213-1.498-.567-2.021-.909-1.022-.7-1.747-1.438-2.425-2.179-1.335-1.486-2.416-3.012-3.453-4.556-2.049-3.091-3.841-6.254-5.568-9.445-3.432-6.386-6.548-12.885-9.567-19.423-3-6.545-5.925-13.116-8.692-19.753a903.763 903.763 0 0 1-8.119-19.979zm0 0a913.3 913.3 0 0 0 9.379 19.397c3.217 6.419 6.418 12.84 9.777 19.172 3.353 6.332 6.801 12.616 10.509 18.693 1.859 3.029 3.782 6.021 5.859 8.81 1.04 1.383 2.126 2.733 3.259 3.857.558.558 1.153 1.057 1.636 1.339.232.14.435.195.426.18.006-.041-.413-.037-.62.123l-.179.136c5.392-4.708 10.874-9.335 16.575-13.707 5.735-4.326 11.76-8.269 17.854-12.117 6.125-3.802 12.44-7.345 19.054-10.395 3.311-1.52 6.693-2.917 10.205-4.091a59.5 59.5 0 0 1 5.404-1.545 31.529 31.529 0 0 1 2.91-.541c.262-.034.527-.064.826-.086l.499-.024.345.003.281.021c.129.021.257.01.735.16-.037.537 1.666-.857 1.935 3.703-1.703 2.686-.733 1.08-1.632 1.899l.043-.021-.109.059-.268.147-.561.315c-12.155 7.029-24.004 14.871-35.282 23.298-5.635 4.23-11.125 8.642-16.37 13.298-5.237 4.659-10.245 9.562-14.746 14.829l.229-3.587c17.919 27.467 32.823 56.893 44.157 87.692 2.82 7.706 5.41 15.5 7.683 23.408a235.891 235.891 0 0 1 3.12 11.973c.464 2.019.896 4.049 1.271 6.117.187 1.036.358 2.079.502 3.157.07.541.135 1.088.182 1.67.021.297.043.589.051.923.005.344.018.663-.047 1.22l-.031.222-.066.313a3.58 3.58 0 0 1-.52 1.164c-.114.198-.728.908-1.44 1.142-1.003.354-1.747.207-2.313-.021-.498-.215-.654-.358-.921-.569a4.336 4.336 0 0 1-.364-.366c-.305-.364-.447-.616-.554-.804-.119-.209-.194-.367-.274-.533-.155-.325-.265-.601-.38-.884l-.29-.774a71.444 71.444 0 0 0-1.09-2.71 271.557 271.557 0 0 0-2.419-5.53 770.732 770.732 0 0 0-5.085-11.05 1597.491 1597.491 0 0 0-10.532-21.987c-7.135-14.609-14.425-29.149-21.968-43.534-3.777-7.187-7.616-14.342-11.614-21.37-2.003-3.508-4.044-6.994-6.187-10.35-1.071-1.669-2.175-3.326-3.314-4.806-.55-.715-1.189-1.46-1.598-1.803-.078-.07-.167-.114-.021-.034.082.035.225.117.606.169.082.008.214.02.333.015.099.002.457-.035.635-.099.077-.025-.302.092.149-.05l.009-.003c-.053.015-.467.25-.798.477-1.453.987-3.024 2.287-4.531 3.559a210.153 210.153 0 0 0-4.525 3.968 477.946 477.946 0 0 0-8.901 8.249c-5.882 5.579-11.688 11.261-17.443 16.992-11.488 11.479-22.859 23.122-33.746 35.101l-18.114 19.933 13.282-23.43c4.327-7.633 9.04-15.182 14.319-22.29 5.26-7.123 10.962-13.855 16.831-20.383 5.869-6.533 11.943-12.84 17.996-19.155 6.048-6.321 12.515-12.212 18.88-18.188l-.469 3.083c-6.628-13.168-12.838-26.57-18.032-40.38-2.588-6.904-4.978-13.891-6.876-21.018-.948-3.562-1.789-7.154-2.441-10.781-.622-3.624-1.181-7.292-1.075-10.97z"/></svg>