<svg xmlns="http://www.w3.org/2000/svg" id="scar__f" viewBox="0 0 3000 3000"><path id="cl1" fill="#A20D03" d="M1475.051 1129.588c-.571-.215-67.813 31.765-75.879 115.283 11.636-17.275 14.848-30.909 19.63-38.903 4.783-7.995 14.633-26.055 29.481-45.899 14.847-19.846 26.768-30.481 26.768-30.481z"/><path id="hl1" fill="none" stroke="#D9938F" stroke-miterlimit="10" stroke-width="6" d="M1475.051 1129.588c-.571-.215-67.813 31.765-75.879 115.283 11.636-17.275 14.848-30.909 19.63-38.903 4.783-7.995 14.633-26.055 29.481-45.899 14.847-19.846 26.768-30.481 26.768-30.481z"/><path fill="#4C2513" d="M1431.151 1139.581c6.639.928 37.69 24.127 37.69 24.127s1.285 4.497-1.785 2.355c-3.07-2.141-39.26-26.412-39.26-26.412s-3.284-.998 3.355-.07zm-18.06 26.983s40.188 25.127 40.545 25.269c.356.143 8.781.713 1.071-4.64-7.709-5.354-34.478-20.629-35.691-20.629-1.285-.072-5.568-2.855-5.925 0zm-13.92 26.554s-8.423 0 0 3.426 37.904 18.916 37.904 18.916 6.353 3.426 1-2.355c-5.354-5.782-34.763-18.916-38.904-19.987z"/></svg>