<svg xmlns="http://www.w3.org/2000/svg" id="scar__f" viewBox="0 0 3000 3000"><path id="cl1" fill="#9E322B" d="M1767.933 1114.492s4.308 19.912 6.414 22.784-29.677 6.701-29.677 6.701-4.979 3.063 1.628 3.542c6.509.479 29.867-4.5 29.867-4.5s7.851 19.434 9.095 20.583c1.245 1.149-1.914-18.189-3.351-21.827 4.309-1.724 23.743-8.137 25.082-11.297 1.245-.669 6.031 13.594 8.138 14.552 2.106.957-3.063-16.753-3.063-16.753s11.201-8.329 11.487-11.966c.288-3.638-13.593 5.457-13.593 5.457s-9.095-15.03-10.818-14.168c-1.724.766 4.786 16.466 4.786 16.466s0 3.638-24.412 12.445c-1.053-2.203-7.754-23.934-11.583-22.019z"/></svg>