<svg xmlns="http://www.w3.org/2000/svg" id="scar__f" viewBox="0 0 3000 3000"><path id="cl1" fill="#9E322B" d="M1373.2 1102.54s19.112 20.871 24.999 22.935c-2.293 7.109-6.345 17.583-5.352 22.935.995 5.352 11.697-19.341 11.697-19.341s28.581 13.244 34.581 15.806c-2.25 9.25-7.288 21.348-6.065 29.528 1.3 8.18 13.226-26.528 13.226-26.528s28.287 7.11 36.696 6.346c-1.981 8.154-1.894 30.756 0 30.58s5.94-23.014 6.346-30.045c7.415.23 43.576 0 45.64-7.109-14.525-.229-41.053-.229-44.341-.765.873-4.568 3.058-20.412 2.064-31.344-3.823-7.874-8.639 30.81-8.639 30.81s-28.286-3.288-34.632-7.415c1.33-6.306 9.174-25.993 7.875-30.351s-14.525 27.292-14.525 27.292-12.768-1.758-34.173-14.526l7.874-21.176s-2.293-4.358-14.295 17.813c-3.518.304-25.46-18.503-28.976-15.445z"/></svg>