<svg xmlns="http://www.w3.org/2000/svg" id="scar___f" viewBox="0 0 3000 3000"><path id="cl1" fill="#FF9B87" d="M1548.3 879.301s96.601 77.6 101.301 96.3c-56.801 52.6-126.9 121.6-143.601 171.6 54-54.699 140.7-154 158.7-157.3 13.3 16 102 124.7 102 124.7s-3.101-41.5-92.4-137.5c26-26.7 79.1-79.2 80.4-103.2-15.301 17.3-82.101 84.7-92 88.7-9.2-1.401-43.9-61.8-114.4-83.3z"/><path fill="none" stroke="#9D4E4C" stroke-miterlimit="10" stroke-width="6" d="M1548.3 879.301s96.601 77.6 101.301 96.3c-56.801 52.6-126.9 121.6-143.601 171.6 54-54.699 140.7-154 158.7-157.3 13.3 16 102 124.7 102 124.7s-3.101-41.5-92.4-137.5c26-26.7 79.1-79.2 80.4-103.2-15.301 17.3-82.101 84.7-92 88.7-9.2-1.401-43.9-61.8-114.4-83.3z"/></svg>