<svg xmlns="http://www.w3.org/2000/svg" id="scar_f" viewBox="0 0 3000 3000"><path id="cl1" fill="#FFDBDA" d="M1746.962 1091.026c5.718 24.269 6.257 34.516 0 62.346-9.491-98.694-63.962-189.083-63.962-189.083 44.547 47.458 58.245 102.468 63.962 126.737zm-48.861-165.029s75.826 136.231 92.762 253.476c5.393-32.143 0-56.951-5.933-81.22s-36.135-122.315-86.829-172.256zm39.909 8.414s55.117 93.3 68.276 203.32c5.933-24.808 4.854-31.604 4.314-42.391-.538-10.786-10.57-101.065-72.59-160.929z"/><path fill="none" stroke="#9D4E4C" stroke-miterlimit="10" stroke-width="6" d="M1746.962 1091.026c5.718 24.269 6.257 34.516 0 62.346-9.491-98.694-63.962-189.083-63.962-189.083 44.547 47.458 58.245 102.468 63.962 126.737zm-48.861-165.029s75.826 136.231 92.762 253.476c5.393-32.143 0-56.951-5.933-81.22s-36.135-122.315-86.829-172.256zm39.909 8.414s55.117 93.3 68.276 203.32c5.933-24.808 4.854-31.604 4.314-42.391-.538-10.786-10.57-101.065-72.59-160.929z"/></svg>