<svg xmlns="http://www.w3.org/2000/svg" id="scar__f" viewBox="0 0 3000 3000"><path id="cl1" fill="#FF9B87" d="M1819.769 1106.551s-15.329 24.332-16.26 27.667c-.93 3.335-3.103 10.859 1.01 14.195 2.172 1.396-2.406 19.004-2.406 19.004s-23.425 54.53-32.112 60.892c13.187-5.817 42.953-44.698 47.375-60.832 4.421-16.135-2.386-23.02-2.386-23.02l8.178-14.144"/><path fill="none" stroke="#9D4E4C" stroke-miterlimit="10" stroke-width="6" d="M1819.786 1106.644s-14.83 24.428-16.277 27.574c-3.48 7.564-.74 11.195.616 16.782s-.151 12.153-2.013 16.417-32.112 60.891-32.112 60.891 46.875-53.684 48.25-56.809-4.146-22.962-3.261-27.043 8.06-15.397 8.06-15.397"/></svg>