<svg xmlns="http://www.w3.org/2000/svg" id="eyes" viewBox="0 0 3000 3000"><path d="M1804.093 1027.075c-2.454-4.193-3.579-8.693-3.477-13.602.104-17.693-1.023-35.489.408-52.978 1.228-14.216 1.228-28.435 1.534-42.648.102-5.012-1.228-9.41-4.807-12.989-10.227-9.921-18.306-21.785-29.763-30.581-5.932-4.603-11.25-5.52-17.795-3.781-10.533 2.659-20.966 5.625-31.397 8.383-3.579.921-7.261 2.455-10.329-1.125 0-.613 0-1.33.103-1.943 2.045-3.069 3.783-6.443 6.851-8.795 19.537-15.341 40.399-28.739 62.592-39.887 2.762-1.329 5.626-2.557 8.694-2.659 9.306.407 16.67 4.705 23.42 11.045 16.363 15.137 28.229 33.034 35.898 53.898 1.942 5.315 2.658 10.534 1.534 16.054-.818 3.273-2.251 6.446-3.989 9.31-13.498 23.318-17.794 48.682-17.693 75.171-.103 16.365-6.06 28.919-21.784 37.127zm-174.275-54.921c-.103-20.455.615-40.705-1.941-61.058-2.046-15.853-7.468-29.25-18.614-40.6-14.011-14.318-29.249-27.208-45.001-39.685-9.204-7.261-19.021-11.557-30.885-10.429-20.047 7.261-40.501 13.498-59.831 22.807-11.353 5.42-22.192 11.657-34.058 16.057-15.75 5.932-29.352 15.341-42.75 25.159-.104 4.091-2.762 7.568-2.354 11.761 4.5 3.887 9.103 1.33 13.5.102 30.478-8.795 61.365-15.443 92.25-22.602 5.83-1.33 11.558-1.739 16.671 2.045 15.545 11.66 32.522 21.272 48.58 32.114 6.137 4.193 9.309 9.918 9.92 16.978 1.331 15.341 4.398 30.375 7.058 45.409 1.43 8.077.511 15.443-3.068 22.808a181.597 181.597 0 0 0-9.204 22.705c-1.843 5.727-1.535 5.932 4.293 7.261 5.012-1.739 8.182-5.83 11.66-9.409 13.499-13.808 27.511-26.898 42.033-39.478.412-.818.924-1.536 1.741-1.945z"/><path fill="#C7C8BC" d="M1396.839 884.505c-2.353-5.42-7.875-7.261-12.169-10.429-3.068-2.25-6.445-3.889-6.445-8.387 7.875-5.932 16.773-10.332 25.568-14.625 29.864-14.628 60.445-27.614 91.127-40.398 9.407-3.889 18.817-7.875 27.92-12.272 8.898-4.296 18.206-4.807 27.819-4.196 1.126.105 2.248 1.329 3.374 1.944-3.681-.307-6.647.306-7.874 4.397-.818 2.864-2.148 5.727-2.76 8.592-1.227 5.625-4.092 10.227-9.716 11.965-5.114 1.907-7.313 4.005-12.121 5.625-41.676 16.448-80.437 32.624-117.973 55.636-2.148 1.33-4.193 2.557-6.75 2.148zm171.615 161.39c24.139-15.034 48.273-29.969 70.978-47.15 8.591-6.543 18.205-11.762 25.159-20.25-2.658-1.739-5.624-1.944-8.693-2.557-8.589-1.84-17.589-1.227-26.079-3.784-.511 0-.919 0-1.431.105a8.7 8.7 0 0 0-2.557 1.329c-10.024 6.648-17.49 15.955-26.079 23.933-8.898 8.284-16.162 18.305-27 24.44-15.649 9.001-30.58 19.433-47.558 26.185 3.988 1.94 7.159 4.292 6.341 9.611-.512 2.762 1.33 4.296 4.09 4.5 11.045-5.523 22.602-9.921 32.829-16.362zm219.403-15.11c4.857 2.783 23.599-2.893 27.179-3.813 13.703-3.273 23.725-17.591 22.499-31.91-1.843-21.478 2.965-41.625 11.559-61.263 5.829-13.19 12.477-26.591 10.431-41.932-7.263 1.228-13.093 4.091-13.911 12.478-2.247 4.603-4.396 9.205-6.851 13.705-11.354 20.455-15.649 42.545-15.649 65.658 0 6.34.886 13.445-1.253 20.455-3.068 10.124-10.611 15.853-17.872 22.704-4.254 1.499-16.132 3.305-16.132 3.918zm6.213-222.576c-7.363-.409-13.912 2.147-20.353 5.215-16.262 7.775-29.968 19.537-45.104 29.046-12.477 7.773-18.102 19.433-20.146 33.341 11.964-9.918 24.442-19.228 37.636-27.509 12.889-8.08 25.466-16.773 39.99-21.784 1.841-3.478 3.783-6.957 5.421-10.537 1.431-3.17 3.171-5.827 7.057-5.932-1.126-1.329-2.761-1.738-4.501-1.84z"/><path fill="#E7E6E2" d="M1535.727 1062.053c-2.352 2.761-5.727 2.25-8.589 1.739-17.696-3.069-35.49-5.424-52.16-12.785-11.762-5.219-24.034-9.514-35.693-14.935-9.205-4.294-17.898-9.716-26.899-14.625-5.625-3.068-8.488-7.875-11.557-13.398-5.625-10.125-9.205-21.17-15.75-30.787-6.853-10.123-9.716-22.396-16.16-32.932-2.661-4.293.715-9.918 1.431-14.83 2.865-18.716 5.83-37.432 5.625-56.558 0-2.658-.614-5.52 2.149-7.466 6.24 6.853 16.875 9 20.251 19.022.511 4.296-1.023 8.287-1.739 12.378-5.521 21.784-5.01 42.85 5.42 63.512 5.729 11.455 9.92 23.932 13.399 36.307 2.453 8.591 7.567 13.912 15.341 17.897 29.864 15.138 60.75 27.411 94.399 31.092 8.895 2.05 9.099 9.618 10.532 16.369z"/><path fill="#86877F" d="M1554.033 796.038c9.818 4.091 18.613 9.92 26.796 16.568 24.854 20.148 51.648 37.74 74.66 60.136 4.397 4.296 6.954 8.492 7.67 14.729 2.964 28.125 4.398 56.25 3.782 84.478 0 2.355.104 4.807-2.248 6.446-11.966.307-23.932.202-34.978-5.523-3.272-4.091-2.659-9-2.659-13.703-.205-15.957.307-31.809-1.843-47.761-2.046-15.342-7.566-28.535-18.513-39.683-13.295-13.604-28.227-25.366-42.545-37.841-9.001-7.874-19.943-9.309-30.479-12.784 3.067-7.67 8.182-14.318 10.942-22.298 1.336-3.684 5.325-5.011 9.415-2.764zm300.378 74.353c-7.567-16.67-19.536-30.272-31.81-43.466-6.75-7.261-14.317-13.602-23.93-16.977-8.591 1.125-11.559 4.909-12.477 16.466 5.625 1.329 11.557 1.739 16.159 5.729 11.658 10.023 22.909 20.657 29.967 34.464 6.137 11.866 14.011 23.421 13.295 37.841 2.149-3.58 3.888-7.565 8.797-8.182 2.659-.307 3.376-2.963 5.113-4.293.308-7.67-2.046-14.729-5.114-21.582z"/><path fill="#2A2A2A" d="M1804.093 1027.075c-7.979 4.603-16.16 5.42-24.239 2.147-17.692-6.955-32.728-17.898-45.511-31.807-2.353-2.455-5.114-4.602-7.263-7.159-8.285-9.921-20.658-16.364-22.5-31.5-1.534-13.091-5.113-25.673-3.068-39.375 1.432-9.614.818-19.637 2.966-29.353.919-4.192 2.453-7.824 3.887-12.375 12.067-2.046 23.931-5.012 35.591-8.694 10.943-3.477 20.148-1.844 29.251 5.932 10.433 9 18.614 19.739 27.718 29.864 4.399 4.804 4.399 11.145 4.603 17.386.511 26.182-3.271 52.16-2.149 78.342.409 8.488.357 13.32 2.195 21.707-.002 1.229 1.52 1.476-1.481 4.885zm-413.697-90.512c0 1.944 1.022 3.886 1.738 5.83 7.979 20.557 16.26 41.114 22.908 62.182 1.023 3.375 2.762 6.035 6.034 7.772 32.728 18.003 66.376 32.932 104.218 35.489 4.396-.406 8.692-.406 12.783-2.659 12.375-6.954 24.271-15.945 36.032-24.026-2.967-.307-3.816.299-2.386-2.872a1199.577 1199.577 0 0 0 11.047-26.284c2.046-5.012 4.705-9.921 3.683-15.648-3.272-17.591-6.751-35.182-8.182-53.183-.614-7.775-4.398-13.5-11.354-18.002-16.261-10.534-33.136-20.045-48.376-32.111-4.806-3.784-10.023-4.398-15.342-3.068-28.328 6.75-56.658 13.807-84.99 20.557-7.874 1.841-13.047 5.784-21.433 5.579-4.494 13.195-6.482 26.842-6.38 40.444z"/><path id="cl1" fill="#FBE501" d="M1741.808 964.177c-8.692 0-15.442-6.75-15.236-15.443.102-8.08 6.647-14.935 14.625-15.239 8.08-.307 15.75 6.954 16.057 15.136.203 8.286-7.06 15.546-15.446 15.546zm-244.638-9.41c.407-11.455-8.797-21.171-20.148-21.273-11.147-.102-20.966 9.716-20.762 20.865.103 10.94 9.308 19.943 20.352 20.045 11.148.102 20.149-8.488 20.558-19.637z"/></svg>