<svg xmlns="http://www.w3.org/2000/svg" id="eye" viewBox="0 0 3000 3000"><path fill="#C7C8BC" d="M1399.214 884.793c-2.375-5.472-7.949-7.33-12.284-10.528-3.097-2.272-6.506-3.926-6.506-8.467 7.949-5.988 16.932-10.431 25.813-14.765 30.148-14.768 61.022-27.877 91.998-40.784 9.498-3.926 18.997-7.95 28.187-12.39 8.983-4.336 18.379-4.853 28.085-4.236 1.135.106 2.27 1.342 3.407 1.962-3.717-.31-6.712.31-7.951 4.439-.825 2.891-2.168 5.782-2.784 8.673-1.239 5.679-4.236 9.602-9.915 11.358-2.375 4.336-6.918 5.472-11.048 6.918-42.022 14.35-82.29 32.419-120.183 55.65-2.172 1.345-4.237 2.584-6.819 2.17zm138.047 180.173c11.771-5.573 24.057-10.219 35.002-17.139 24.367-15.178 48.838-30.356 71.759-47.702 8.671-6.605 18.379-11.874 25.501-20.544-2.685-1.755-5.68-1.962-8.776-2.582-8.671-1.86-17.757-1.239-26.329-3.82-.517 0-.927 0-1.443.104a8.798 8.798 0 0 0-2.581 1.344c-10.119 6.711-17.658 16.107-26.435 24.264-8.98 8.363-16.313 18.479-27.361 24.674-16.724 9.809-32.212 22.096-51.935 26.226 1.653 2.993 6.3.517 7.537 3.821 0 5.057-5.266 7.537-5.163 12.39 3.512-.004 7.024.409 10.224-1.036zm267.934-34.383c3.614.93 6.712-.927 10.016-1.755 14.661-3.614 24.986-17.553 23.642-32.418-1.858-21.683 2.995-42.023 11.669-61.848 5.783-13.316 12.595-26.845 10.53-42.227-7.33 1.237-13.216 4.13-14.042 12.595-2.271 4.646-4.439 9.292-6.918 13.835-11.46 20.65-15.797 42.954-15.797 66.287 0 6.401 1.135 13.525-2.169 19.204-4.958 8.571-9.705 17.45-17.142 24.37.109.718.211 1.338.211 1.957zm-10.118-222.814c-7.435-.413-14.045 2.168-20.547 5.266-16.418 7.85-30.253 19.723-45.533 29.324-12.597 7.846-18.275 19.617-20.341 33.659 12.081-10.013 24.678-19.411 37.996-27.772 13.012-8.157 25.71-16.934 40.373-21.992 1.858-3.511 3.819-7.024 5.473-10.638 1.445-3.2 3.2-5.882 7.124-5.988-1.138-1.343-2.789-1.756-4.545-1.859z"/><path fill="#86877F" d="M1557.911 795.482c9.602 4.13 18.275 9.706 26.226 16.21 25.399 20.443 52.761 38.616 76.3 61.434 4.13 4.027 6.711 7.951 7.539 13.939 3.509 25.918 5.266 51.935 5.367 78.161 0 4.956.827 10.428-3.818 14.353-12.08.309-24.16.206-35.312-5.576-3.304-4.13-2.687-9.086-2.687-13.836-.205-16.107.312-32.11-1.858-48.215-2.065-15.487-7.639-28.807-18.689-40.064-13.422-13.732-28.498-25.606-42.953-38.203-9.086-7.947-20.134-9.396-30.769-12.906 3.098-7.744 8.26-14.455 11.048-22.508 1.449-3.718 5.475-5.058 9.606-2.789zm298.084 75.063c-7.642-16.83-19.724-30.562-32.113-43.881-6.814-7.331-14.455-13.732-24.158-17.14-8.674 1.136-11.668 4.956-12.597 16.623 5.679 1.342 11.667 1.756 16.313 5.785 11.771 10.119 23.128 20.854 30.253 34.792 6.195 11.98 14.145 23.645 13.423 38.203 2.17-3.614 3.925-7.638 8.881-8.26 2.684-.31 3.407-2.992 5.162-4.333.308-7.744-2.066-14.871-5.164-21.789z"/><path fill="#E7E6E2" d="M1527.143 1065.794c-7.744-2.687-16.004-3.304-23.955-5.06-17.243-3.82-32.937-11.357-49.146-17.759-14.662-5.782-28.394-13.422-41.816-21.786-3.614-2.271-5.885-5.06-7.641-9.085-5.162-11.154-10.738-22.199-16.933-32.731-6.399-10.944-9.912-23.334-16.52-34.175-2.582-4.236.723-10.016 1.446-14.869 2.891-18.895 5.885-37.789 5.679-56.994 0-2.684-.619-5.573 2.168-7.537 6.301 6.918 17.036 9.085 20.446 19.101.516 4.337-1.033 8.363-1.755 12.493-5.163 21.272-5.268 41.816 4.542 62.263 6.4 13.626 11.253 27.98 15.9 42.436 2.065 6.402 6.401 10.118 12.081 13.216 29.323 15.488 60.092 26.845 92.925 32.318 12.49 4.331 13.006 7.844 2.579 18.169z"/><path fill="#2A2A2A" d="M1805.195 1030.583c-8.053 4.752-16.313 3.614-24.471.31-17.861-7.021-33.04-18.069-45.946-32.11-2.374-2.479-5.162-4.646-7.33-7.228-8.363-10.016-20.856-16.623-22.818-31.801-1.654-13.216-5.06-26.019-3.098-39.751 1.443-9.706.826-19.825 2.992-29.633.93-4.233.825-8.879 3.923-12.493 10.947-1.549 21.683-3.72 32.008-7.641 14.045-5.266 26.125-3.407 36.551 7.744 4.544 4.956 14.766 5.059 16.314 12.493 5.68 1.187 16.159 2.685 10.584 8.776-2.995 3.202 6.813 8.519 4.13 6.454-13.318-9.809 15.074-8.416 5.679 3.355-7.848 9.913 2.888 5.163 1.945 12.132 9.706 8.157-11.444 3.2-2.979 13.422 2.582 2.994-4.853 3.253-3.097 1.291 7.33-8.156-11.719 9.139-2.84 3.355 2.685-1.752-2.892-1.494-1.136 3.046.926 14.662-1.655 29.22-1.033 43.882.619 13.629-.413 27.361 2.065 40.89.004 1.548-.513 2.58-1.443 3.507zm-210.086-113.554c1.729-8.914-3.9-15.403-9.063-15.199-5.886.313-2.582-2.527-7.744-5.937-5.163-3.407-3.459-1.6-6.97-4.904-14.041-12.596-2.323.516-17.036 1.032 5.421-6.453-7.565-11.793-4.904-3.872 2.271 2.17-5.421 4.13-2.84 1.032 4.131-4.75-5.545 4.758-3.792-2.159-4.232.206-4.662-2.501-8.276-5.083-7.123-5.37-4.969-3.028-11.988-8.5-5.06-3.924-10.532-4.851-16.417-3.408-28.808 7.021-57.923 13.217-86.524 21.063-7.537 2.065-14.662 5.781-22.819 5.369-3.51 9.086-3.409 18.791-4.13 28.288-.722 8.776.827 16.934 4.234 25.092 7.435 17.757 14.249 35.725 20.03 54.102 1.652 5.369 4.646 8.569 9.396 11.357 15.797 9.292 32.937 15.385 49.663 22.405 15.797 6.606 32.214 9.396 48.837 11.667 5.991-.723 12.081.621 17.966-2.891 12.081-7.125 24.367-13.938 35.725-22.096-2.891-.31-4.233-1.443-2.891-4.749 3.82-8.674 7.434-17.553 11.048-26.329 1.962-4.646 4.749-9.292 3.923-14.56-1.755-11.046-3.923-21.993-5.988-32.935 5.111-1.393 13.113-12.751 10.56-28.785z"/><path d="M1789.191 894.293c-6.711-8.776-15.59-15.281-23.851-22.406-4.442-3.817-9.809-2.475-14.661-1.236-10.635 2.684-21.063 5.573-31.698 8.463-3.614.93-7.33 2.479-10.428-1.135 0-.619 0-1.342.103-1.962 2.065-3.098 3.82-6.505 6.918-8.879 19.721-15.487 40.784-29.013 63.189-40.268 2.785-1.342 5.679-2.582 8.776-2.684 9.396.41 16.83 4.749 23.642 11.151 16.521 15.281 28.5 33.35 36.244 54.413 1.959 5.369 2.684 10.635 1.549 16.21-.829 3.301-2.272 6.505-4.027 9.396-13.63 23.541-17.967 49.147-17.862 75.889.103 16.727-8.157 28.91-21.89 37.583-2.788-5.991-3.717-12.287-3.613-18.792.103-15.694.103-31.388.103-47.082 0-7.54 2.995-14.662 2.065-22.305-.104-3.614 2.271-6.298 3.82-9.187 6.608-12.702 2.581-25.092-10.118-31.491-2.995-1.651-6.608-2.168-8.261-5.678zm-154.772 78.986c-.103-20.65.622-41.093-1.959-61.641-2.065-16.004-7.539-29.529-18.792-40.987-14.146-14.455-29.529-27.467-45.431-40.064-9.292-7.33-19.204-11.667-31.182-10.528-20.236 7.33-40.887 13.626-60.401 23.024-11.46 5.472-22.402 11.768-34.382 16.21-15.9 5.988-28.325 14.532-41.852 24.443-2.03 3.286-3.108 7.281-3.682 12.829 4.441 3.821 9.088 1.446 13.628.103 29.532-8.67 59.783-14.659 89.623-22.302 10.221-2.581 18.38-.619 26.741 5.679 8.57 6.402 16.624 14.558 28.498 15.178 2.377.103 4.852.103 7.228-.106 11.77-.619 20.755 4.236 26.434 14.352 5.782 10.325 4.337 20.443-2.479 29.84-1.651 2.269-3.2 4.439-3.508 7.331 0 5.782 1.032 11.564 2.375 17.14 2.993 12.39 2.478 24.059-4.026 35.518-3.305 5.885-5.679 12.39-7.435 18.999-.928 3.508-1.858 7.948 4.646 6.298 5.06-1.755 8.26-5.885 11.771-9.5 13.628-13.938 27.773-27.154 42.436-39.854.407-.823.923-1.548 1.749-1.962z"/><path id="cl1" fill="#FF81C0" d="M1745.676 955.304c-2.494-1.124-5.013-1.943-7.306-3.356-12.885-8.206-15.27-25.857-5.202-38.706 1.197-1.535 2.556-2.853 3.832-4.279 4.221-2.511 8.442-5.021 12.744-7.423 10.644-5.759 13.042-7.808 21.331-18.559 3.915 12.061 12.898 17.801 21.383 24.215 4.206 3.103 8.007 6.783 10.724 11.703 9.029 16.056-.604 37.718-17.515 39.39-6.656.676-12.161-1.819-16.205-7.968-1.186-1.833-1.696-4.327-4.164-5.754-4.898 7.457-11.38 11.416-19.622 10.737zm-251.039-29.093c-7.511 15.565-2.527 34.054 11.339 42.966 7.667 4.896 15.468 4.999 23.359 2.122 5.313-3.939 8.688-9.66 11.655-16.498 2.336 2.791 4.084 5.229 6.15 7.312 5.091 5.317 11.2 7.858 17.638 6.431 10.746-2.484 18.149-10.079 21.176-22.334 2.962-12.036-.169-22.794-8.068-31.8-4.938-5.549-10.996-9.158-17.222-11.896-11.031-5.012-21.758-10.486-29.111-23.91-3.46 11.672-9.331 19.184-16.429 25.571-5.797 5.167-11.57 10.547-17.342 15.922-1.019 2.033-2.127 4.08-3.145 6.114zm47.27 34.988s.129 15.487-7.423 25.296l22.394-6.82s-10.325.625-14.971-18.476zm222.505-10.325s-2.582 9.193-9.293 14.922l19.102 2.631s-9.293-8.261-9.809-17.553z"/></svg>