<svg xmlns="http://www.w3.org/2000/svg" id="图层_1" viewBox="0 0 3000 3000"><path fill="#C7C8BC" d="M1397.811 956.465c6.827-10.921 15.544-20.481 23.632-30.459 8.82-11.028 20.481-18.797 32.034-26.572 5.669-3.781 12.286-4.619 18.798-5.881 15.337-3.046 30.669-5.987 45.689-10.293 13.55-3.886 25.628-10.503 37.603-17.75 15.86-9.453 29.618-21.636 44.22-32.875 5.881 11.343 10.712 23.002 8.297 36.341-17.438 19.326-39.807 30.354-64.279 37.394-16.07 4.726-32.455 8.717-49.155 10.607-25.102 2.941-44.638 14.915-60.602 33.717-8.298 8.193-12.814 19.431-21.532 27.308-7.878-5.151-15.021-10.824-14.705-21.537zm119.735 115.43c1.155-1.261 3.043-.84 4.306-1.89 23.737-5.462 45.374-16.07 65.541-29.305 22.161-14.494 42.012-32.245 63.859-47.264 5.565-3.781 12.078-7.245 15.439-13.759-.946-1.575-2.521-2.101-4.31-2.416-9.768-1.368-19.535-2.733-29.409-4.096-.524 0-.942.104-1.467.104a12.16 12.16 0 0 0-2.626 1.26c-17.016 13.654-32.668 28.779-48.21 44.009-17.12 12.289-34.765 23.524-54.826 30.459 1.683 1.891 4.517 2.94 1.157 6.302-4.727 4.727-9.663 9.663-11.553 16.49a4.793 4.793 0 0 0 2.099.106zm307.848-115.637c-1.155 9.243-3.256 18.38-2.626 27.938.735 11.238-1.155 22.057-9.138 31.091-4.517 5.145-8.295 11.134-12.394 16.698 2.626.21 4.726-1.261 6.826-2.415 17.541-9.874 30.88-22.165 28.988-44.954-1.365-17.123 4.622-32.98 11.137-48.525 6.092-14.494 13.129-28.673 11.554-45.059-1.367 1.471-2.521 3.784-4.202 4.309-5.358 1.783-8.088 5.882-10.397 10.503-8.406 16.171-17.439 32.034-19.748 50.414zm-84.34-168.998c-18.172 15.125-25.104 35.71-27.729 58.292 3.676-8.927 8.928-17.12 13.024-25.732 5.041-10.714 13.13-16.701 24.366-19.011 2.834-5.776 2.732-12.394 4.518-18.488-5.778-1.465-10.189 1.686-14.179 4.939z"/><path fill="#86877F" d="M1605.878 868.239c1.364-5.669-.211-10.92-1.681-16.28-1.786-6.407-4.097-12.604-4.52-19.323 6.302-1.683 11.764 1.155 17.016 3.886 14.285 7.353 28.254 14.912 38.442 28.251 5.357 7.038 7.771 14.812 9.034 23.002 4.517 27.308 4.937 54.931 6.616 82.45.21 3.571 1.471 8.087-3.99 9.348-11.66-1.158-23.738.207-34.241-6.62-3.045-4.726-2.418-9.978-2.31-15.122.314-19.431-1.051-38.757-3.362-58.082-1.784-14.495-6.51-25.838-21.004-31.51zm253.861 22.899c-1.159-17.123-9.979-30.669-19.853-44.008-12.394-16.699-27.413-30.669-43.483-43.274-12.078-9.557-25.312-18.588-41.169-21.531-5.147 5.252-6.095 11.554-4.52 18.489 13.447 1.467 23.633 9.557 34.031 17.12 24.892 18.17 45.793 39.387 57.031 69.006 2.521 6.507 3.782 12.494 3.362 19.111 6.723-3.256 12.079-7.668 14.601-14.913z"/><path fill="#E7E6E2" d="M1397.811 956.465c2.94 8.402 9.66 14.179 14.704 21.114.63.736.943 1.681 1.05 2.626-.318 4.831-1.261 9.663 1.576 14.072 3.358 12.396 11.658 19.539 23.211 24.79 27.938 12.814 56.192 24.049 86.862 28.043 6.302 2.416 6.511 6.092 2.518 11.028-3.885 4.727-7.244 9.978-12.184 13.861-8.717-.417-16.385-4.517-24.367-7.142-12.183-4.094-24.365-8.613-35.919-14.072-16.699-7.877-32.979-16.489-49.259-25.314-4.307-2.311-6.617-7.037-7.983-11.763-2.207-7.982-3.885-16.28-6.511-24.158-4.202-12.394-1.681-23.211 6.302-33.085z"/><path d="M1782.435 1031.773c.844-1.155 1.472-2.518 2.521-3.361 11.764-9.871 17.646-22.162 19.641-37.704 2.731-21.952 3.886-43.798 2.626-65.645-.524-9.663-5.566-18.487-10.819-26.89-7.983-12.919-18.38-23.632-29.828-33.401-13.549-11.553-28.778-10.083-44.534-5.46-3.466 1.05-7.456 5.251-11.343.209-.84-4.936 2.205-9.137 2.731-13.863 2.521-12.92 8.611-24.366 15.862-34.977 4.935-7.142 12.813-10.712 21.423-11.868 7.563-.104 14.39 2.731 20.589 6.723 31.401 20.373 58.818 44.218 72.997 80.349 2.73 7.037 4.619 13.759 3.044 21.216-6.195 16.488-17.331 31.09-19.012 49.471-.84 9.663-3.886 19.22-3.15 28.988 1.575 20.588-8.192 35.185-23.946 46.739-6.302 1.049-12.604 1.049-18.802-.526zm-151.14-56.297a9.535 9.535 0 0 1 1.891-2.206c.63-21.951 1.05-43.905-2.416-65.645-1.47-9.245-1.26-18.799-5.358-27.517-4.619-9.664-9.136-12.5-19.432-11.764-20.163 19.221-44.113 31.509-71.104 37.706-17.33 3.992-34.767 7.353-52.199 10.609-21.848 4.095-38.022 16.28-50.94 33.715 5.881 2.521 10.503-1.576 15.544-3.043 33.4-9.978 66.695-20.377 102.406-18.38 10.084.525 19.221 3.151 28.148 7.142 7.037 3.043 12.078 8.295 15.124 15.334 6.617 14.813 6.723 29.83.421 44.639-2.626 6.093-5.462 12.079-9.452 17.541-1.261 1.68-3.572 3.886-.633 6.302 16.07-14.709 31.09-30.566 48-44.433z"/><path fill="#2A2A2A" d="M1782.435 1031.773c-13.546-3.043-25.312-9.664-35.5-18.906-8.717-7.982-17.645-15.859-25.628-24.683-15.859-17.435-24.683-37.601-22.058-61.861 1.787-16.7 3.469-33.403 7.985-49.575 1.575-5.672.63-11.868 3.569-17.33.735-.107 1.368-.21 1.996-.42 29.829-12.708 53.354-4.094 73.207 20.167 15.334 18.695 26.047 38.125 24.892 63.648-.843 18.906-1.683 37.707-4.833 56.3-2.518 14.49-9.976 25.94-23.63 32.66zm-185.275-37.496c9.768-31.51.104-64.801-44.222-67.85-42.43-2.941-82.132 9.242-121.203 23.947-7.668 8.087-14.812 16.595-19.116 27.098 0 .735-.104 1.369-.104 2.101-1.158 4.937-1.26 9.771 0 14.705 1.468 3.886 3.043 7.772 4.306 11.764 1.05 3.151 2.521 5.566 5.566 7.248 32.455 18.065 66.065 32.875 103.667 35.921 3.78-.945 7.772.84 11.343-.945 15.965-8.403 31.825-16.91 46.004-28.254 4.201-8.825 10.818-16.283 13.759-25.735z"/><path id="cl1" fill="#FFF" d="M1498.745 953.49s47.09-23.809 79.65-8.753l-2.102 25.208s-53.217 4.902-67.57 17.855l-9.978-34.31zm235.796-7.352c14.004-4.604 46.213 3.5 46.213 3.5l4.553-24.157c-23.807-12.953-55.598 0-55.598 0l4.832 20.657z"/></svg>