<svg xmlns="http://www.w3.org/2000/svg" id="eyes" viewBox="0 0 3000 3000"><path fill="#E7E6E2" d="M1397.444 953.336c4.979 7.209 12.291 12.825 15.153 21.617 4.347 5.192 1.589 12.08 4.131 17.696.849 9.324 6.465 14.94 14.518 19.073 28.61 15.047 57.327 29.67 90.277 32.637a12.065 12.065 0 0 1 6.679 2.754c3.497 4.768-1.271 7.312-2.97 10.596-2.328 4.561-7.417 7.1-8.897 12.296-1.907 2.437-4.133 1.907-6.569.848-19.18-7.839-38.783-14.727-57.327-23.842-15.047-7.418-29.352-16.53-44.504-24.052-4.877-2.439-8.268-6.677-9.749-11.976-3.179-11.126-6.358-22.252-8.688-33.589-2.227-9.223 2.436-16.958 7.946-24.058z"/><path fill="#2A2A2A" d="M1793.746 1027.302c-21.511-6.888-41.219-17.064-58.279-32.11-6.252-5.507-12.61-11.126-19.392-16.001-3.498-2.437-4.239-6.251-6.676-9.113-8.058-15.894-6.468-32.531-3.603-49.061 2.543-14.415 6.039-28.72 11.656-42.385a6.973 6.973 0 0 1 2.437-2.229c1.907-.212 3.603.53 4.451 2.014 11.02 18.434 25.432 34.014 39.947 49.591.422.423.318 1.271.209 2.012-2.328 2.859-6.146 3.179-8.795 5.405-6.04 4.874-7.099 11.974-2.438 17.377 4.875 5.827 12.608 5.827 18.436.421 2.543-2.332 2.757-7.838 8.267-6.358 11.867 9.961 19.711 22.782 24.583 37.196 5.516 16.429 1.278 30.946-10.803 43.241zm-366.633-14.732c25.749 14.2 52.028 26.597 80.955 33.061 6.889 1.482 14.094.635 20.872 3.178 19.815-5.085 35.923-17.271 52.876-27.762-3.391-3.179.318-4.98 1.59-6.993 7.523-11.126 13.563-22.782 15.046-36.557 1.589-14.835-2.648-36.24-24.162-44.399-16.634-6.252-33.269-6.357-49.909-4.344-15.259 1.907-30.411 5.718-45.141 10.066-20.242 5.933-37.828 16.106-50.543 34.119-4.769 6.779-7.947 14.727-14.094 20.554.219 8.907 4.563 14.735 12.51 19.077z"/><path fill="#86877F" d="M1609.581 868.778c.742-7.837-.847-15.365-3.073-22.672-1.27-4.451-1.694-8.901-1.165-13.458 1.378 0 2.649 0 4.027.105 1.271 1.06 3.18.742 4.556 1.589 17.696 8.159 34.439 17.379 45.884 34.121 3.499 5.085 5.722 10.491 6.569 16.424 4.45 31.79 5.406 63.687 4.347 95.685-13.565 3.073-26.281-.317-38.997-4.659-1.799-3.391-.951-6.782-.636-10.279 2.226-23.948-.212-47.683-2.226-71.525-1.166-12.298-8.053-20.563-19.286-25.331zm236.723 120.162c1.698-7.735 1.91-15.577-.951-22.994-8.688-22.146-21.616-41.538-41.435-54.996-21.827-14.725-42.276-30.517-57.22-52.557-4.659-6.888-11.445-11.444-18.753-15.153-2.012-1.06-3.921-1.484-5.936 0-4.979 11.017-8.478 22.143-2.119 33.908.529-.212 1.06-.318 1.589-.53 5.087-8.901 7.1-9.116 12.715-1.271 3.709 5.193 7.842 9.961 12.295 14.411 12.187 11.978 26.7 20.772 41.535 28.72 25.432 13.563 39.101 35.498 46.944 62.2 1.06 3.497 1.06 6.888.739 10.487 4.238 2.544 7.523.638 10.597-2.225z"/><path fill="#C7C8BC" d="M1397.444 953.336c8.158-11.017 16.742-21.723 26.172-31.679 9.219-9.854 20.025-17.696 31.259-25.011 7.417-4.874 16-4.874 24.16-6.675 7.841-1.802 15.895-2.861 23.842-4.344 37.088-6.782 68.559-24.584 96.107-49.803 1.803-1.695 3.499-3.603 6.358-3.073 4.659 11.126 7.63 22.464 6.464 34.65-.953 4.451-4.344 7.1-7.629 9.643-19.179 14.835-40.475 25.325-64.427 30.199-18.966 3.815-38.039 6.994-57.113 10.173-19.073 3.179-33.488 13.775-45.884 27.868-8.369 9.431-15.47 19.816-23.204 29.776-7.734-5.508-13.986-12.187-16.105-21.724zm127.896 114.232c25.537-7.312 49.695-17.805 71.314-33.169 16.636-11.763 32.742-24.161 49.908-35.287 8.479-5.509 16.85-11.232 24.054-18.434-2.119.209-4.133-.212-6.145-.64-10.597-1.8-21.087-4.768-32.002-3.599-5.935-.11-9.644 4.238-13.352 7.626-12.08 10.808-24.583 21.086-35.709 32.958l-2.226 1.906c-.742.53-1.59 1.168-2.331 1.698-16.531 9.645-33.272 18.753-50.014 28.08-4.451 6.147-8.796 12.186-14.199 17.484-2.329 2.33-1.06 3.389 1.59 3.709 2.967-.743 6.041-1.381 9.112-2.332zm188.51-217.122c-17.905 33.378-18.436 68.876-12.077 104.904.951 5.404 2.649 11.021 7.628 14.623-4.131-18.861-3.389-37.617.849-56.267 2.755-12.291 6.464-24.372 9.644-36.557-1.377-11.444 2.229-22.57 2.119-33.908-5.196-.212-6.362 3.923-8.163 7.205zm88.268 179.078c7.627 4.556 13.882 1.695 19.813-3.603 11.337-10.172 18.968-22.888 24.371-36.978-3.497.742-6.993 1.48-10.596 2.225-7.945 15.68-19.602 28.078-33.588 38.356z"/><path d="M1763.971 929.601c-11.02-7.313-18.013-18.544-26.702-28.19-6.569-7.308-13.563-15.149-17.378-24.262 2.135-4.941 3.023-6.168 5.722-8.478 3.298-2.821 6.465-.317 8.371 2.437 16.104 24.584 41.962 36.77 65.59 51.817 21.086 13.563 30.837 34.858 38.146 57.64 1.06 3.391 1.169 6.888.109 10.388-5.828 13.666-14.835 24.901-26.491 34.226-2.86 2.332-5.937 3.391-9.219 4.239-2.967-.109-5.722-.639-8.266-2.228.105-2.967 1.378-5.617 3.071-7.626 5.827-6.888 5.827-15.474 7.311-23.633.422-2.328.422-5.189-.639-7.207-5.72-11.546-9.008-24.477-19.391-33.269-2.649-2.331-5.087-4.877-5.724-8.587-4.02-6.353-8.576-12.393-14.51-17.267zm-132.454-36.873c-.423-5.193-2.119-10.279-4.877-14.835-3.815-6.57-8.898-10.809-17.164-9.007-9.856 9.216-21.086 16.212-33.059 22.462-22.892 11.977-48.107 15.258-73.009 19.711-12.398 2.225-25.538 2.438-36.982 8.053-24.581 11.977-41.643 31.789-53.933 55.843 0 6.252-2.013 12.824 1.908 18.652 5.828.739 6.675-4.347 8.688-7.738 14.412-24.371 35.287-39.736 63.048-45.984 12.398-2.758 24.69-6.357 37.194-7.947 16.106-2.119 32.318-2.861 48.004 3.388 18.753 7.527 26.491 21.832 23.948 42.067-1.59 12.296-6.358 22.892-13.034 33.169-1.909 2.968-2.015 5.12-2.39 9.336l3.553-2.872c.743-.639 8.39-4.966 9.133-5.603 16.105-14.305 22.871-21.418 39.717-34.77 5.295-28.191 1.69-56.059-.745-83.925z"/><path id="cl1" fill="#FFF" d="M1559.567 976.118l-19.151-8.597-17.939 10.904 2.258-20.871-15.913-13.691 20.547-4.302 8.104-19.366 10.442 18.211 20.921 1.723-14.094 15.56 4.825 20.429zm217.497-25.256l13.396-10.688-16.1-4.556-5.384-16.552-9.296 14.719-16.723.458 10.354 13.652-4.949 16.833 15.693-6.279 13.666 9.946-.657-17.533z"/></svg>