<svg xmlns="http://www.w3.org/2000/svg" id="eyes" viewBox="0 0 3000 3000"><path fill="#C7C8BC" d="M1401.168 889.799c-.724-5.28-4.66-8.076-8.594-10.975-3.521-2.589-8.076-3.935-10.354-8.18.208-.311.415-.621.621-.828 28.063-14.288 54.876-30.854 84.281-42.451 8.283-3.209 16.359-7.041 24.539-10.457 4.763-1.968 9.422-4.25 14.702-4.349-1.143 8.491-3.002 16.774-6.212 24.747-21.333 8.593-42.041 18.529-63.055 27.956-12.425 5.586-25.367 11.182-33.133 23.607-.724.93-1.655 1.137-2.795.93zm106.025 136.982c31.989-11.182 62.642-25.885 93.909-38.827 2.274-.927 4.764-1.238 4.862-4.452-3.209-5.177-7.351-9.421-12.424-12.735-5.069-1.968-9.111 1.138-13.461 2.691-19.982 11.079-42.554 15.847-63.262 25.264-13.668 6.212-27.956 11.079-41.416 17.912 5.069 4.349 5.177 12.015 10.457 16.157 8.185 1.86 14.295-3.525 21.335-6.01zm308.031-200.659c-12.736-3.935-24.021.725-35.312 6.005-3.728 1.761-7.559 3.214-11.39 4.768-16.877 6.938-33.133 14.905-48.767 24.332-6.213 3.831-10.46 8.692-10.354 16.458 22.364-9.003 44.833-17.602 66.887-27.231 11.186-4.866 21.95-9.526 34.482-8.386 4.661-4.349 7.663-9.319 4.454-15.946zm17.186 155.619c4.66-2.071 6.938-3.516 8.077-8.693 4.142-19.465 9.943-38.415 19.879-55.911 2.179-3.831 2.9-8.388 4.349-12.53-6.109-4.142-11.389-2.384-16.256 2.275-9.836 18.327-19.775 36.653-21.328 57.982-.208 2.795-1.554 4.454-4.039 5.285-3.83 1.239-7.558 3.209-11.799 3.209-2.07 1.243-4.768.105-6.729 1.658-.726.106-1.351.106-2.071.206-3.732 3.106-8.283 1.865-12.533 2.383 13.667 7.347 27.23 10.866 42.45 4.136z"/><path fill="#E7E6E2" d="M1485.863 1032.89c-21.536-3.003-41.1-12.839-62.015-18.119-6.007-1.553-8.801-5.074-10.98-10.769-9.111-24.435-17.187-49.384-33.443-70.407-4.452-5.694-3.934-12.528-3.106-18.839 1.76-13.568 4.349-27.028 4.349-40.795 0-.828 1.036-2.48 1.553-3.313 9.423 3.939 18.74 8.909 21.226 20.397.208 2.696.518 5.592-.622 8.076-4.66 10.354-2.178 20.604-.518 30.958-1.66 3.516-2.178 6.833-.314 10.665 7.563 15.738 15.328 31.372 21.744 47.525 1.035 2.588 2.795 3.727 5.285 3.935 16.048 6.937 31.89 14.288 47.421 22.468 5.383 4.861 8.489 10.971 9.42 18.218zm217.33-119.795c-1.242-4.245.621-8.386 0-12.632-3.624 2.697-2.07 8.801-6.833 10.769-1.761-.725-1.661-2.278-1.45-3.417 1.243-6.627.725-12.114-7.145-14.185-1.035-.311-2.07-1.863-2.48-3.003-.725-2.071 1.656-6.73-3.214-5.379-3.106.828-1.445 4.763-1.139 7.351.103 1.035 1.035 1.968.932 2.899-.518 7.455 6.213 13.051 4.862 20.708-.41 2.795-1.554 6.937 2.07 8.283 4.768 1.868 8.18 8.283 14.604 4.867 0-3.313-.107-6.623-.107-9.939 1.144-2.074 1.351-4.251-.1-6.322zm-5.591 68.646c.315 1.243 1.352 2.278 2.278 3.313.933.932 1.968 1.968 3.521 1.346 1.554-.621 1.656-1.962 1.76-3.308.104-2.071.312-4.349-1.242-5.803-4.556-4.245-6.32-10.246-10.979-14.806 1.556 6.42 3.005 12.943 4.662 19.258z"/><path fill="#F8F7F7" d="M1401.065 931.422c11.389 19.673 18.843 41.001 26.713 62.124-3.313 3.313-5.177.725-5.902-1.968-3.312-13.145-11.492-24.224-15.94-36.86-1.967-5.798-5.384-11.182-8.08-16.669-1.657-3.521-1.347-6.006 3.209-6.627z"/><path d="M1709.303 879.652c-.108-.621 0-1.243.104-1.864 2.174-4.452 6.627-5.695 10.664-7.351 22.778-9.215 45.869-18.016 68.336-28.063 7.145-3.209 14.703-2.796 22.158-2.381 5.901.828 9.629 4.867 13.253 8.904 11.906 13.051 19.361 28.788 25.574 45.148 1.553 4.245 1.553 8.693.725 13.15-8.18 18.839-18.119 37.067-20.815 58.085-1.139 8.698-10.354 8.801-17.29 10.354-2.792.103-5.247.767-9.338 1.104-1.143-.315-.914-1.725-1.533-2.76-2.275-6.42-1.554-12.839-.518-19.362 2.177-13.051 2.793-26.511-1.447-38.724-5.592-15.738-17.291-27.848-32.203-35.721-5.8-2.998-12.837.311-19.261 1.035-9.836 1.144-19.566 3.935-29.403 4.867-3.934.309-9.744-2.823-9.006-6.421zm-114.826 89.461c12.322-15.122 21.641-32.822 36.964-45.558 1.445-1.243 1.864-2.795 1.76-4.556-.414-12.835-2.386-25.677-8.391-36.859-4.866-9.111-15.841-11.498-25.057-15.221a57.978 57.978 0 0 0-3.827-1.45c-20.604-6.73-41.104-13.563-61.813-19.983-11.079-3.417-22.157-7.455-34.064-7.351-10.872.725-20.6 4.762-30.027 9.728-10.354 5.384-20.811 10.354-31.58 14.703-11.281 4.452-21.018 11.39-31.165 17.809-3.729 2.381-4.866 5.487-4.659 9.526-1.864 3.935.103 5.069 3.624 4.763 3.106-.311 5.798-1.963 8.696-3.209 24.849-10.562 50.421-18.637 76.823-24.229 12.425-2.589 23.922-.927 34.482 6.522 11.494 8.18 23.5 15.846 35.516 23.193 14.701 9.008 18.637 21.122 15.423 36.86-2.381 11.907-.518 24.128-1.758 36.136-.412 3.934.723 7.142 5.899 5.384 3.938-1.45 7.973-3.003 11.907-4.457.522-.615.833-1.234 1.247-1.751z"/><path fill="#86877F" d="M1506.365 813.386c9.521-.518 18.43 2.692 27.122 5.384 28.991 8.904 58.298 16.566 86.974 26.713 7.563 2.691 14.703 5.694 20.604 11.286 5.28 4.97 10.354 10.246 16.256 14.495 8.387 5.902 11.799 13.771 12.316 23.607.519 9.629 2.589 19.155 2.589 28.784 0 3.727-.927 6.212-3.624 9.008-15.116 15.634-32.407 28.991-47.833 44.211-4.424 2.924-9.928 6.807-16.251 9.585-6.213-3.003-9.116-8.654-11.288-15.591 7.973-15.013 17.498-30.026 29.301-42.14 6.528-6.627 7.874-13.568 7.046-22.468-2.07-20.397-12.942-32.097-32.305-37.689-31.372-8.904-61.503-22.364-93.807-28.474-1.351-.31-2.588-.927-3.624-1.962-.724-8.801 1.347-17.19 6.524-24.749zm355.969 70.925c-8.49-23.193-20.308-38.401-38.327-54.967-2.35-.992-4.297-2.459-8.783-3.223-2.218 5.099-3.185 8.495-4.014 13.982 8.905 2.697 12.917 12.42 17.577 19.358 9.629 14.393 20.924 28.87 21.441 47.093 5.487-.518 8.896-2.571 14.486-2.054 1.347-6.936.001-13.56-2.38-20.189z"/><path fill="#2A2A2A" d="M1709.303 879.652c.927 5.694 5.379 4.659 8.801 4.038 8.387-1.553 16.877-2.899 25.16-4.659 6.42-1.346 12.942-.725 19.258-3.003 2.899-1.036 5.902.207 8.595 2.174 7.247 4.867 12.942 11.187 18.637 17.602.932 1.036 1.35 2.589 2.386 3.313 12.11 8.491 11.492 21.536 12.527 34.065 1.144 14.081-3.02 29.474-1.984 43.555-1.478.877-7.988 1.598-12.511.863-19.983-6.936-39.966-13.978-60.156-20.604-4.659-1.553-7.973-3.624-9.733-8.18 1.144-2.588 3.831-2.588 5.902-3.624 12.218-5.9 15.841-22.67 7.248-33.133-5.074-6.212-12.115-7.351-19.263-3.417-3.21 1.761-5.38 5.488-9.63 5.384-1.139-.207-1.963-.828-2.48-1.863-1.035-4.039 0-7.766 1.239-11.498 2.178-3.209 1.448-7.14 2.484-10.665.931-3.618.413-7.656 3.52-10.348zm-307.862 13.588c-1.363 4.472-1.18 4.802-2.654 9.5-3.417 8.076-3.106 15.945.725 23.814.724 1.553.927 3.214 1.445 4.867 3.42 14.599 10.769 27.749 16.463 41.519 2.899 7.045 3.727 15.329 10.248 20.605 15.844 7.765 31.686 15.428 47.523 23.193 7.871.207 14.703-3.106 21.537-6.32 19.05-8.904 38.622-16.359 58.5-23.089 9.112-3.106 17.809-7.041 26.092-12.01-1.554-.518-4.142-.725-3.624-2.796 2.796-12.839-.206-25.991 2.588-39.035 3.418-16.049-.103-29.612-16.151-38.413-12.632-6.938-24.332-15.531-36.136-23.711-10.457-7.351-21.847-9.939-34.271-7.658-13.875 2.588-27.438 6.416-40.795 10.765-15.324 4.97-30.855 9.733-45.246 17.292-2.588 1.346-4.453 1.656-5.07-1.968-.495 1.878-.495 1.878-1.174 3.445z"/><path id="cl1" fill="#FEE801" d="M1705.367 912.992c1.968-2.381 3.624-4.97 6.32-6.73 7.971-5.285 18.325-3.935 24.02 3.624 6.213 8.175 5.695 17.494 2.901 26.61-2.697 8.594-9.631 12.109-18.327 12.218-5.588-6.42-11.283-12.839-16.877-19.263-2.795-2.691-2.795-5.897-2.07-9.318.617-2.896 1.963-5.174 4.033-7.141zm-219.504 7.766c0-1.761.108-3.417 0-5.177-1.035-12.322-9.939-21.334-21.743-22.261-11.389-.932-21.226 6.42-24.332 18.012-1.864 7.145-1.755 14.293.518 21.333 3.313 10.043 12.322 16.566 22.576 16.359 10.556-.207 19.983-7.662 22.364-18.119.725-3.313.725-6.833.932-10.251-.107.104-.21.104-.315.104z"/><path d="M1461.17 946.797c-26.144-25.367-1.553-51.252-1.553-51.252 32.873 25.367 1.553 51.252 1.553 51.252zm259.801-42.238s-17.514 21.333 1.106 42.238c0 0 22.309-21.332-1.106-42.238z"/></svg>