<svg xmlns="http://www.w3.org/2000/svg" id="图层_1" viewBox="0 0 3000 3000"><path fill="#C7C8BC" d="M1396.156 956.166c6.845-10.948 15.584-20.534 23.693-30.538 8.842-11.057 20.534-18.846 32.117-26.642 5.683-3.79 12.317-4.629 18.846-5.896 15.378-3.054 30.75-6.002 45.808-10.319 13.584-3.896 25.693-10.531 37.7-17.797 15.902-9.478 29.693-21.692 44.334-32.96 5.896 11.373 10.74 23.062 8.317 36.435-17.482 19.376-39.908 30.433-64.443 37.492-16.114 4.738-32.54 8.74-49.284 10.635-25.167 2.949-44.754 14.954-60.758 33.805-8.32 8.215-12.848 19.481-21.587 27.379-7.898-5.166-15.06-10.853-14.743-21.594zm120.046 115.729c1.158-1.264 3.05-.842 4.317-1.895 23.797-5.476 45.49-16.111 65.709-29.38 22.219-14.532 42.122-32.329 64.024-47.387 5.581-3.791 12.11-7.263 15.479-13.794-.947-1.58-2.527-2.106-4.32-2.422-9.794-1.373-19.586-2.742-29.485-4.107-.526 0-.943.104-1.471.104a12.22 12.22 0 0 0-2.632 1.264c-17.061 13.689-32.754 28.854-48.335 44.123-17.164 12.321-34.855 23.584-54.969 30.539 1.688 1.895 4.528 2.948 1.161 6.317-4.738 4.739-9.688 9.688-11.583 16.534a4.848 4.848 0 0 0 2.105.104zm308.645-115.937c-1.158 9.267-3.265 18.428-2.633 28.01.737 11.268-1.158 22.114-9.161 31.173-4.529 5.157-8.316 11.162-12.427 16.74 2.633.21 4.738-1.264 6.846-2.422 17.585-9.899 30.959-22.223 29.063-45.07-1.368-17.168 4.634-33.066 11.166-48.65 6.107-14.531 13.163-28.748 11.584-45.175-1.371 1.475-2.528 3.794-4.213 4.321-5.374 1.786-8.108 5.896-10.425 10.53-8.428 16.212-17.484 32.115-19.8 50.543zm-84.559-169.436c-18.219 15.164-25.168 35.804-27.801 58.443 3.685-8.951 8.951-17.164 13.059-25.799 5.054-10.742 13.162-16.744 24.43-19.06 2.84-5.792 2.737-12.425 4.528-18.537-5.792-1.468-10.215 1.691-14.216 4.953z"/><path fill="#86877F" d="M1604.762 867.711c1.369-5.683-.211-10.948-1.685-16.322-1.79-6.423-4.107-12.636-4.531-19.372 6.318-1.689 11.794 1.158 17.059 3.896 14.324 7.371 28.327 14.95 38.544 28.323 5.371 7.055 7.79 14.852 9.057 23.062 4.528 27.379 4.949 55.073 6.634 82.663.211 3.581 1.475 8.108-4.001 9.373-11.689-1.162-23.799.207-34.329-6.638-3.054-4.739-2.426-10.004-2.316-15.16.315-19.481-1.053-38.858-3.37-58.233-1.793-14.533-6.531-25.905-21.062-31.592zm254.518 22.959c-1.162-17.167-10.003-30.749-19.902-44.123-12.426-16.74-27.483-30.749-43.597-43.385-12.109-9.582-25.377-18.636-41.274-21.587-5.161 5.265-6.111 11.583-4.531 18.537 13.482 1.47 23.693 9.582 34.117 17.164 24.958 18.217 45.912 39.489 57.181 69.185 2.527 6.523 3.791 12.525 3.369 19.159 6.74-3.264 12.11-7.687 14.637-14.95z"/><path fill="#E7E6E2" d="M1396.156 956.166c2.948 8.424 9.684 14.216 14.743 21.169.631.738.944 1.685 1.053 2.633-.319 4.843-1.264 9.688 1.58 14.107 3.366 12.429 11.688 19.59 23.272 24.855 28.01 12.847 56.337 24.111 87.086 28.116 6.318 2.422 6.528 6.107 2.523 11.057-3.894 4.739-7.263 10.004-12.214 13.896-8.74-.417-16.429-4.527-24.432-7.161-12.215-4.104-24.428-8.635-36.011-14.108-16.742-7.897-33.064-16.532-49.386-25.381-4.319-2.317-6.635-7.056-8.005-11.794-2.213-8.002-3.894-16.322-6.527-24.22-4.213-12.424-1.686-23.27 6.318-33.169z"/><path d="M1781.776 1031.669c.847-1.158 1.475-2.523 2.528-3.37 11.794-9.895 17.69-22.219 19.691-37.801 2.738-22.009 3.896-43.912 2.633-65.814-.527-9.688-5.582-18.535-10.848-26.959-8.005-12.954-18.428-23.693-29.905-33.488-13.584-11.583-28.854-10.109-44.649-5.474-3.475 1.053-7.476 5.266-11.371.208-.843-4.947 2.21-9.159 2.736-13.898 2.528-12.954 8.635-24.428 15.904-35.068 4.949-7.161 12.847-10.739 21.479-11.899 7.581-.105 14.426 2.739 20.642 6.74 31.482 20.425 58.971 44.332 73.188 80.558 2.736 7.054 4.629 13.794 3.05 21.271-6.209 16.529-17.375 31.17-19.06 49.598-.843 9.688-3.896 19.271-3.159 29.063 1.579 20.643-8.214 35.276-24.01 46.86-6.317 1.052-12.636 1.052-18.849-.527zm-151.53-56.442a9.557 9.557 0 0 1 1.895-2.212c.631-22.008 1.054-44.02-2.422-65.815-1.475-9.269-1.264-18.849-5.374-27.588-4.63-9.688-9.158-12.532-19.48-11.794-20.217 19.271-44.228 31.591-71.288 37.803-17.376 4.002-34.858 7.371-52.335 10.636-21.904 4.106-38.12 16.322-51.072 33.802 5.896 2.528 10.53-1.579 15.584-3.05 33.486-10.003 66.868-20.429 102.67-18.428 10.109.526 19.271 3.159 28.221 7.161 7.057 3.05 12.11 8.315 15.165 15.374 6.634 14.852 6.74 29.907.422 44.754-2.633 6.111-5.476 12.11-9.478 17.586-1.265 1.686-3.581 3.896-.635 6.318 16.113-14.747 31.172-30.645 48.127-44.547z"/><path fill="#2A2A2A" d="M1781.776 1031.669c-13.58-3.05-25.378-9.688-35.593-18.955-8.74-8.002-17.69-15.9-25.693-24.746-15.901-17.479-24.747-37.698-22.114-62.02 1.791-16.744 3.479-33.49 8.007-49.703 1.579-5.687.631-11.899 3.576-17.375.737-.109 1.374-.211 2.002-.421 29.906-12.742 53.493-4.103 73.396 20.219 15.374 18.743 26.115 38.225 24.957 63.814-.847 18.955-1.688 37.803-4.848 56.445-2.524 14.524-10 26.005-23.69 32.742zm-185.755-37.594c9.793-31.591.105-64.969-44.336-68.026-42.539-2.948-82.345 9.267-121.517 24.009-7.688 8.109-14.852 16.638-19.166 27.168 0 .738-.104 1.373-.104 2.106-1.162 4.95-1.264 9.797 0 14.743 1.471 3.896 3.05 7.792 4.317 11.794 1.053 3.159 2.528 5.581 5.581 7.266 32.54 18.112 66.236 32.96 103.935 36.014 3.792-.948 7.793.842 11.373-.948 16.007-8.424 31.907-16.954 46.123-28.327 4.211-8.844 10.847-16.322 13.794-25.799z"/><path id="cl1" fill="#FFF" d="M1495.07 940.196s56.411 3.453 77.925 13.261c10.179 4.641-17.55 20.788-29.836 25.876-12.286 5.088-67.767-39.044-48.089-39.137zm283.365-16.264s-41.305 3.455-57.058 13.261c-7.454 4.641 12.852 20.789 21.847 25.878s49.62-39.045 35.211-39.139z"/></svg>