<svg xmlns="http://www.w3.org/2000/svg" id="eyes" viewBox="0 0 3000 3000"><path fill="#E7E6E2" d="M1399.144 952.915c4.955 7.175 12.231 12.764 15.078 21.511 4.327 5.167 1.582 12.021 4.112 17.609.845 9.279 6.433 14.868 14.446 18.981 28.47 14.973 57.047 29.524 89.835 32.477a12.008 12.008 0 0 1 6.647 2.741c3.479 4.746-1.266 7.276-2.957 10.544-2.315 4.54-7.382 7.065-8.854 12.237-1.897 2.425-4.112 1.897-6.536.843-19.086-7.799-38.594-14.653-57.047-23.725-14.974-7.381-29.209-16.449-44.287-23.933-4.855-2.429-8.228-6.646-9.702-11.918-3.164-11.072-6.327-22.144-8.646-33.423-2.212-9.182 2.427-16.879 7.911-23.944z"/><path fill="#2A2A2A" d="M1792.51 1024.518c-21.406-6.854-41.02-16.981-57.995-31.953-6.222-5.48-12.549-11.072-19.298-15.924-3.479-2.425-4.217-6.22-6.643-9.067-8.02-15.817-6.438-32.372-3.584-48.821 2.529-14.346 6.01-28.581 11.6-42.178a6.96 6.96 0 0 1 2.423-2.22c1.898-.21 3.586.527 4.431 2.004 10.965 18.343 25.306 33.848 39.752 49.349.418.42 2.117 1.816 2.006 2.554 2.747 1.717 5.822-1.708 3.187.507 5.037 7.938-.157 1.344 4.481 6.722 4.852 5.8.671.932 1.432 4.456 2.529-2.32.201 2.375 5.687 3.849 11.808 9.911 18.423 23.349 23.27 37.692 5.489 16.35 1.271 30.796-10.749 43.03zm-363.842-12.659c25.623 14.13 51.773 26.467 80.559 32.899 6.854 1.475 14.024.632 20.769 3.163 19.718-5.061 35.747-17.187 52.619-27.627-3.376-3.163.314-4.956 1.582-6.959 7.484-11.071 13.496-22.671 14.972-36.378 1.582-14.763-2.636-36.063-24.046-44.183-16.551-6.222-33.104-6.326-49.664-4.322-15.185 1.898-30.263 5.689-44.921 10.017-20.143 5.905-37.643 16.028-50.296 33.952-4.745 6.745-7.908 14.654-14.025 20.453.22 8.865 4.543 14.664 12.451 18.985z"/><path fill="#86877F" d="M1610.245 868.769c.737-7.798-.845-15.29-3.06-22.561-1.264-4.429-1.686-8.857-1.158-13.392 1.371 0 2.636 0 4.008.104 1.265 1.055 3.163.739 4.532 1.582 17.61 8.12 34.271 17.294 45.659 33.953 3.483 5.062 5.694 10.44 6.537 16.345 4.43 31.634 5.382 63.376 4.328 95.217-13.501 3.058-26.154-.316-38.809-4.635-1.789-3.374-.945-6.749-.633-10.229 2.215-23.832-.211-47.45-2.214-71.175-1.159-12.239-8.013-20.464-19.19-25.209zm234.566 117.576c1.691-7.697 1.901-15.5-.945-22.882-8.646-22.039-21.512-41.334-41.233-54.727-21.722-14.652-42.069-30.368-56.94-52.3-4.636-6.854-11.389-11.388-18.66-15.078-2.002-1.055-3.901-1.477-5.909 0-4.954 10.961-8.436 22.033-2.108 33.743.527-.211 1.055-.316 1.581-.527 5.063-8.858 7.064-9.073 12.654-1.266 3.69 5.167 7.803 9.912 12.235 14.339 12.126 11.921 26.568 20.673 41.33 28.582 25.308 13.497 38.909 35.324 46.718 61.896 1.055 3.479 1.055 6.854.733 10.435 4.216 2.53 7.486.634 10.544-2.215z"/><path fill="#C7C8BC" d="M1399.144 952.915c8.119-10.961 16.66-21.617 26.044-31.523 9.174-9.807 19.926-17.61 31.107-24.891 7.381-4.85 15.921-4.85 24.042-6.643 7.802-1.792 15.816-2.847 23.725-4.323 36.906-6.749 68.223-24.463 95.639-49.559 1.792-1.687 3.48-3.586 6.327-3.059 4.636 11.072 7.592 22.354 6.431 34.481-.948 4.429-4.322 7.065-7.591 9.595-19.085 14.762-40.276 25.202-64.11 30.052-18.874 3.797-37.854 6.96-56.835 10.124-18.98 3.163-33.326 13.708-45.662 27.732-8.327 9.385-15.395 19.719-23.089 29.629-7.697-5.479-13.92-12.125-16.028-21.615zm127.271 113.673c25.412-7.276 49.45-17.718 70.966-33.007 16.555-11.706 32.583-24.043 49.665-35.115 8.435-5.482 16.766-11.177 23.935-18.343-2.108.208-4.111-.211-6.114-.638-10.544-1.791-20.984-4.745-31.846-3.581-5.904-.11-9.596 4.218-13.286 7.589-12.021 10.754-24.463 20.982-35.533 32.797-.74.632-1.478 1.264-2.216 1.897-.737.527-1.582 1.163-2.319 1.69-16.451 9.597-33.109 18.662-49.77 27.943-4.429 6.118-8.754 12.126-14.13 17.398-2.317 2.318-1.055 3.373 1.582 3.691 2.952-.739 6.009-1.375 9.066-2.321zm186.589-218.061c-17.817 33.215-18.345 68.54-12.018 104.392.945 5.377 2.637 10.967 7.59 14.551-4.109-18.77-3.372-37.433.846-55.991 2.74-12.232 6.431-24.253 9.595-36.379-1.369-11.388 2.22-22.46 2.108-33.743-5.168-.211-6.329 3.904-8.121 7.17zm87.836 178.203c7.589 4.534 13.814 1.687 19.715-3.585 11.281-10.123 18.875-22.776 24.253-36.795-3.481.738-6.96 1.471-10.545 2.214-7.907 15.6-19.504 27.938-33.423 38.166z"/><path d="M1762.88 927.296c-10.965-7.276-17.926-18.453-26.572-28.054-6.537-7.271-13.498-15.075-17.294-24.142 2.125-4.917 3.01-6.139 5.694-8.437 3.281-2.807 6.433-.316 8.331 2.425 16.023 24.464 41.757 36.59 65.267 51.563 20.983 13.497 30.688 34.687 37.96 57.358 1.055 3.374 1.164 6.854.11 10.338-5.8 13.598-14.764 24.78-26.361 34.059-2.848 2.32-5.909 3.375-9.175 4.218-2.952-.109-5.694-.637-8.225-2.219.105-2.953 1.371-5.589 3.054-7.588 5.8-6.854 5.8-15.399 7.276-23.518.417-2.316.417-5.163-.637-7.171-5.69-11.489-8.963-24.357-19.297-33.105-2.637-2.32-5.062-4.854-5.694-8.545-4-6.322-8.534-12.332-14.437-17.182zm-130.807-34.693c-.422-5.167-2.109-10.228-4.854-14.763-3.797-6.538-8.854-10.755-17.08-8.962-9.809 9.171-20.982 16.133-32.897 22.351-22.779 11.918-47.871 15.183-72.651 19.616-12.337 2.213-25.413 2.425-36.801 8.013-24.459 11.92-41.44 31.634-53.668 55.57 0 6.222-2.003 12.763 1.899 18.562 5.799.735 6.643-4.327 8.646-7.701 14.341-24.253 35.115-39.542 62.74-45.759 12.337-2.746 24.57-6.327 37.012-7.909 16.027-2.109 32.161-2.847 47.77 3.372 18.66 7.489 26.362 21.725 23.831 41.86-1.581 12.236-6.326 22.781-12.97 33.008-1.902 2.954-2.006 5.095-2.377 9.29l3.535-2.858c.738-.637 8.348-4.943 9.086-5.575 16.028-14.235 22.761-21.313 39.523-34.6 5.265-28.054 1.68-55.785-.744-83.515z"/><path id="cl1" fill="#FFF" d="M1548.462 927.36c3.875-1.648 13.06 4.2 15.749 5.908 2.69 1.708 2.753 4.582 2.858 5.904.104 1.324-12.146 13.679-12.146 13.679s-1.176 3.341 2.409 5.619l13 8.255s1.899 2.464 1.635 3.868c-.261 1.405-10.577 11.212-10.577 11.212s-3.24.147-4.441-.931c-1.204-1.08-10.136-11.783-12.783-11.578-2.646.207-8.556 10.612-10.078 11.219-1.518.607-19.347-5.995-20.187-10.615-.841-4.622 14.468-11.89 13.529-14.373-.939-2.483-17.746-6.235-14.964-13.589 2.782-7.355 7.87-10.416 9.6-12.149 1.73-1.733 15.354 14.465 17.103 13.688 1.752-.774 3.302-13.573 9.293-16.117zm217.049 8.804c-1.48.269-8.897-14.626-10.542-13.621-1.642 1.005-6.096 2.403-9.579 7.511-3.485 5.107 8.666 11.079 8.926 13.15.258 2.07-12.784 4.797-12.995 8.484-.212 3.688 12.193 12.025 13.466 11.842 1.275-.183 7.714-7.042 9.773-6.711 2.063.33 6.913 10.161 7.63 11.207.721 1.047 3.224 1.534 3.224 1.534s9.695-5.591 10.155-6.616c.462-1.023-.534-3.258-.534-3.258l-8.412-8.711c-2.318-2.402-.804-4.74-.804-4.74s11.644-7.179 11.81-8.21c.163-1.03.646-3.238-1.095-5.04-1.738-1.802-7.678-7.968-10.944-7.425-5.051.838-8.599 10.335-10.079 10.604z"/></svg>