<svg xmlns="http://www.w3.org/2000/svg" id="eyes" viewBox="0 0 3000 3000"><path d="M1803.941 1028.829c-2.471-4.221-3.604-8.751-3.501-13.692.107-17.811-1.029-35.725.413-53.329 1.235-14.311 1.235-28.625 1.544-42.931.103-5.045-1.235-9.472-4.839-13.075-10.295-9.987-18.425-21.929-29.959-30.783-5.971-4.633-11.324-5.556-17.914-3.806-10.604 2.677-21.104 5.663-31.605 8.438-3.604.927-7.31 2.471-10.398-1.132 0-.617 0-1.338.104-1.957 2.059-3.088 3.809-6.485 6.896-8.853 19.668-15.443 40.666-28.929 63.007-40.151 2.78-1.338 5.663-2.574 8.751-2.676 9.368.408 16.781 4.735 23.577 11.119 16.472 15.236 28.414 33.253 36.136 54.256 1.956 5.35 2.676 10.604 1.544 16.16-.823 3.294-2.266 6.49-4.016 9.372-13.586 23.473-17.91 49.005-17.811 75.669-.102 16.471-6.099 29.109-21.929 37.371zm-172.282-55.286c-.103-20.59.621-40.975-1.953-61.462-2.059-15.958-7.517-29.444-18.737-40.868-14.104-14.413-29.443-27.389-45.299-39.949-9.266-7.309-19.148-11.633-31.092-10.497-20.178 7.309-40.768 13.586-60.227 22.958-11.427 5.457-22.337 11.733-34.283 16.164-15.853 5.971-29.547 15.443-43.034 25.326-.106 4.118-2.78 7.619-2.37 11.84 4.528 3.912 9.161 1.338 13.588.103 30.681-8.854 61.771-15.545 92.863-22.752 5.868-1.338 11.633-1.75 16.781 2.059 15.648 11.737 32.74 21.414 48.901 32.327 6.178 4.221 9.373 9.982 9.987 17.089 1.338 15.443 4.427 30.577 7.104 45.711 1.438 8.129.515 15.545-3.089 22.958a183.27 183.27 0 0 0-9.266 22.855c-1.855 5.765-1.544 5.971 4.321 7.309 5.044-1.75 8.236-5.868 11.736-9.472 13.59-13.898 27.694-27.076 42.313-39.739.417-.825.932-1.547 1.756-1.96z"/><path fill="#C7C8BC" d="M1397.135 885.313c-2.368-5.456-7.927-7.309-12.248-10.497-3.089-2.265-6.489-3.916-6.489-8.442 7.926-5.971 16.883-10.402 25.738-14.722 30.061-14.726 60.847-27.797 91.733-40.666 9.47-3.916 18.94-7.928 28.105-12.354 8.957-4.324 18.326-4.839 28.003-4.225 1.132.106 2.264 1.338 3.397 1.957-3.706-.309-6.692.309-7.927 4.427-.824 2.882-2.162 5.765-2.776 8.648-1.236 5.663-4.12 10.294-9.783 12.043-5.147 1.919-7.359 4.032-12.201 5.663-41.953 16.557-80.968 32.84-118.754 56.004-2.165 1.341-4.225 2.577-6.798 2.164zm172.753 162.461c24.3-15.134 48.594-30.167 71.449-47.464 8.648-6.585 18.325-11.839 25.325-20.384-2.676-1.75-5.662-1.957-8.751-2.574-8.644-1.853-17.703-1.236-26.252-3.81-.515 0-.923 0-1.438.107a8.715 8.715 0 0 0-2.573 1.338c-10.091 6.692-17.608 16.06-26.253 24.091-8.957 8.338-16.269 18.425-27.18 24.602-15.751 9.061-30.78 19.561-47.873 26.359 4.016 1.953 7.207 4.32 6.384 9.674-.515 2.78 1.338 4.324 4.118 4.53 11.115-5.558 22.749-9.985 33.044-16.469zm217.711-15.21c4.89 2.802 23.756-2.912 27.359-3.837 13.792-3.295 23.884-17.708 22.649-32.121-1.854-21.62 2.981-41.902 11.633-61.669 5.869-13.277 12.561-26.768 10.502-42.21-7.313 1.235-13.179 4.118-14.006 12.56-2.262 4.633-4.427 9.266-6.895 13.796-11.431 20.59-15.755 42.828-15.755 66.094 0 6.38.892 13.534-1.261 20.591-3.088 10.188-10.681 15.958-17.992 22.853-4.278 1.508-16.234 3.326-16.234 3.943zm6.254-224.053c-7.413-.412-14.005 2.162-20.488 5.25-16.369 7.828-30.164 19.667-45.401 29.239-12.56 7.824-18.223 19.561-20.281 33.562 12.046-9.982 24.605-19.354 37.886-27.69 12.976-8.133 25.636-16.884 40.258-21.928 1.854-3.501 3.807-7.003 5.456-10.607 1.441-3.192 3.191-5.865 7.104-5.972-1.137-1.338-2.784-1.751-4.534-1.854z"/><path fill="#E7E6E2" d="M1536.943 1064.038c-2.368 2.78-5.766 2.265-8.645 1.75-17.813-3.088-35.725-5.46-52.505-12.869-11.84-5.254-24.194-9.578-35.931-15.034-9.266-4.323-18.017-9.781-27.076-14.722-5.663-3.088-8.545-7.927-11.633-13.487-5.663-10.191-9.266-21.31-15.855-30.991-6.898-10.189-9.781-22.543-16.266-33.15-2.681-4.322.72-9.985 1.438-14.928 2.886-18.84 5.869-37.68 5.662-56.932 0-2.676-.617-5.558 2.166-7.515 6.279 6.898 16.987 9.06 20.384 19.148.515 4.324-1.03 8.343-1.75 12.461-5.556 21.928-5.041 43.133 5.459 63.933 5.766 11.531 9.984 24.091 13.487 36.548 2.47 8.648 7.618 14.005 15.443 18.017 30.062 15.238 61.153 27.592 95.025 31.298 8.95 2.06 9.156 9.678 10.597 16.473z"/><path fill="#86877F" d="M1555.372 796.26c9.883 4.118 18.737 9.987 26.974 16.678 25.017 20.282 51.99 37.99 75.154 60.536 4.427 4.324 7.001 8.549 7.722 14.826 2.982 28.312 4.427 56.624 3.809 85.038 0 2.372.104 4.839-2.265 6.49-12.045.309-24.091.202-35.209-5.56-3.295-4.118-2.677-9.06-2.677-13.793-.206-16.063.309-32.021-1.856-48.078-2.06-15.443-7.615-28.724-18.635-39.946-13.384-13.695-28.414-25.535-42.827-38.092-9.063-7.926-20.075-9.371-30.684-12.869 3.089-7.721 8.236-14.413 11.017-22.446 1.343-3.71 5.359-5.046 9.477-2.784zm299.222 74.846c-7.618-16.781-19.667-30.473-32.021-43.754-6.794-7.309-14.413-13.692-24.087-17.09-8.648 1.132-11.635 4.942-12.561 16.575 5.663 1.338 11.634 1.75 16.267 5.769 11.736 10.089 23.062 20.793 30.166 34.692 6.177 11.945 14.104 23.576 13.383 38.092 2.165-3.603 3.915-7.616 8.857-8.236 2.676-.31 3.396-2.983 5.147-4.321.306-7.723-2.062-14.829-5.151-21.727z"/><path fill="#2A2A2A" d="M1803.941 1028.829c-8.03 4.633-16.266 5.456-24.399 2.162-17.811-7-32.944-18.017-45.813-32.018-2.368-2.471-5.147-4.633-7.31-7.207-8.339-9.986-20.796-16.472-22.649-31.709-1.544-13.177-5.147-25.844-3.089-39.636 1.442-9.678.824-19.767 2.986-29.547.923-4.221 2.468-7.876 3.912-12.457 12.148-2.059 24.087-5.045 35.827-8.75 11.016-3.501 20.281-1.857 29.443 5.971 10.502 9.06 18.738 19.87 27.904 30.062 4.427 4.835 4.427 11.218 4.633 17.502.515 26.355-3.295 52.505-2.166 78.861.412 8.545.361 13.409 2.211 21.851.001 1.234 1.532 1.483-1.49 4.915zm-413.292-91.112c0 1.956 1.029 3.912 1.75 5.868 8.03 20.693 16.366 41.387 23.058 62.595 1.029 3.397 2.78 6.074 6.074 7.824 32.945 18.123 66.814 33.151 104.906 35.725 4.429-.408 8.751-.408 12.869-2.676 12.459-7 24.431-16.051 36.271-24.186-2.986-.309-3.841.3-2.4-2.891a1200.854 1200.854 0 0 0 11.119-26.459c2.059-5.045 4.738-9.986 3.709-15.751-3.295-17.708-6.798-35.416-8.236-53.535-.62-7.828-4.429-13.59-11.431-18.124-16.366-10.604-33.354-20.178-48.696-32.323-4.838-3.809-10.089-4.427-15.443-3.088-28.517 6.794-57.033 13.898-85.552 20.693-7.928 1.853-13.135 5.822-21.575 5.616-4.525 13.283-6.526 27.019-6.423 40.712z"/><path id="cl1" fill="#FBE501" d="M1543.703 923.843c3.089.688 7.207 1.835 4.735 3.947-2.47 2.111-30.473 26.791-33.562 28.625-3.089 1.835-7.894 5.047-11.668-1.606-3.776-6.653-16.524-36.849-14.413-40.143 5.148-8.026 51.82 8.489 54.908 9.177zm217.488 23.65c2.793-2.333 4.445-33.512 4.088-40.676-.355-7.164-5.125-5.727-8.105-5.009-2.981.718-32.981 14.488-35.604 15.642-2.624 1.155.022 3.447 2.072 5.011 2.047 1.563 30.744 30.72 37.549 25.032z"/></svg>