<svg xmlns="http://www.w3.org/2000/svg" id="eyes" viewBox="0 0 3000 3000"><path fill="#E7E6E2" d="M1398.532 951.755c5.011 7.127 12.37 12.682 15.25 21.375 4.374 5.133 1.601 11.946 4.159 17.499.853 9.22 6.507 14.776 14.608 18.863 28.792 14.878 57.696 29.34 90.856 32.273a12.235 12.235 0 0 1 6.721 2.722c3.517 4.716-1.281 7.231-2.988 10.479-2.344 4.509-7.465 7.022-8.957 12.158-1.919 2.408-4.16 1.884-6.609.838-19.305-7.753-39.035-14.562-57.696-23.576-15.144-7.332-29.539-16.344-44.792-23.785-4.906-2.411-8.318-6.601-9.811-11.841-3.2-11.003-6.399-22.007-8.741-33.216-2.236-9.12 2.453-16.771 8-23.789z"/><path fill="#2A2A2A" d="M1792.546 1026.199c-21.351-6.832-40.909-16.929-57.841-31.856-6.202-5.462-12.513-11.035-19.244-15.869-3.47-2.418-4.205-6.204-6.626-9.043-7.99-15.769-6.415-32.271-3.576-48.669 2.525-14.3 5.995-28.492 11.568-42.05a6.962 6.962 0 0 1 2.419-2.213c1.894-.208 3.574.527 4.416 2 10.938 18.288 25.242 33.743 39.647 49.194.419.421.315 1.262.209 2 10.816 5.316 12.93 10.07 15.351 16.708 11.777 9.883 19.562 22.604 24.396 36.905 5.478 16.294 1.272 30.697-10.719 42.893zm-364.152-15.872c25.913 14.04 52.361 26.301 81.474 32.693 6.933 1.466 14.183.628 21.007 3.144 19.942-5.03 36.153-17.08 53.216-27.452-3.412-3.144.321-4.926 1.603-6.915 7.57-11.002 13.65-22.527 15.14-36.149 1.602-14.673-2.667-35.835-24.315-43.905-16.741-6.183-33.482-6.288-50.228-4.294-15.356 1.886-30.607 5.656-45.431 9.956-20.371 5.867-38.071 15.925-50.867 33.738-4.8 6.706-7.997 14.563-14.185 20.327.213 8.801 4.587 14.563 12.586 18.857z"/><path fill="#86877F" d="M1612.03 868.136c.747-7.75-.854-15.193-3.092-22.419-1.279-4.4-1.708-8.804-1.176-13.308 1.39 0 2.667 0 4.055.102 1.277 1.049 3.2.737 4.586 1.574 17.81 8.068 34.661 17.185 46.178 33.74 3.519 5.032 5.758 10.374 6.611 16.243 4.48 31.435 5.438 62.977 4.375 94.621-13.652 3.038-26.448-.315-39.246-4.61-1.812-3.352-.959-6.705-.639-10.165 2.24-23.681-.214-47.15-2.242-70.725-1.174-12.163-8.105-20.336-19.41-25.053zm232.679 120.006c1.683-7.673 1.893-15.454-.946-22.812-8.623-21.972-21.454-41.208-41.12-54.561-21.663-14.609-41.959-30.276-56.788-52.143-4.628-6.835-11.357-11.351-18.61-15.033-1.998-1.052-3.895-1.474-5.89 0-4.943 10.931-8.412 21.968-2.104 33.641.527-.21 1.05-.315 1.578-.526 5.048-8.829 7.046-9.043 12.616-1.261 3.681 5.152 7.781 9.882 12.203 14.295 12.09 11.881 26.498 20.606 41.225 28.49 25.238 13.457 38.805 35.217 46.585 61.708 1.054 3.47 1.054 6.835.737 10.409 4.203 2.522 7.461.632 10.514-2.207z"/><path fill="#C7C8BC" d="M1398.532 951.755c8.21-10.896 16.85-21.482 26.34-31.329 9.277-9.744 20.154-17.498 31.457-24.731 7.466-4.82 16.105-4.82 24.317-6.601 7.891-1.782 15.998-2.829 23.995-4.293 37.325-6.708 68.997-24.309 96.723-49.249 1.814-1.674 3.521-3.564 6.399-3.039 4.69 11.003 7.679 22.215 6.507 34.268-.958 4.399-4.373 7.019-7.679 9.533-19.304 14.669-40.738 25.042-64.839 29.864-19.086 3.772-38.283 6.917-57.479 10.059s-33.701 13.62-46.177 27.557c-8.425 9.325-15.571 19.594-23.354 29.443-7.784-5.449-14.075-12.053-16.21-21.482zm128.716 112.958c25.7-7.229 50.016-17.606 71.773-32.8 16.742-11.63 32.95-23.889 50.229-34.892 8.53-5.45 16.957-11.108 24.207-18.23-2.133.208-4.159-.209-6.184-.631-10.665-1.783-21.224-4.716-32.206-3.559-5.974-.11-9.707 4.188-13.44 7.542-12.156 10.688-24.738 20.852-35.936 32.59-.747.629-1.493 1.258-2.242 1.887-.747.522-1.598 1.152-2.345 1.674-16.637 9.539-33.485 18.545-50.337 27.769-4.477 6.079-8.853 12.051-14.288 17.288-2.347 2.305-1.065 3.352 1.604 3.667 2.982-.732 6.074-1.366 9.165-2.305zm186.005-213.969c-17.769 33.117-18.297 68.334-11.986 104.072.946 5.361 2.627 10.937 7.57 14.508-4.102-18.711-3.367-37.32.839-55.82 2.736-12.193 6.419-24.18 9.574-36.268-1.367-11.354 2.212-22.388 2.103-33.641-5.154-.209-6.311 3.893-8.1 7.149zm87.603 177.66c7.569 4.52 13.777 1.681 19.663-3.574 11.253-10.091 18.821-22.707 24.188-36.686-3.47.735-6.941 1.469-10.515 2.207-7.889 15.555-19.455 27.856-33.336 38.053z"/><path d="M1762.997 929.272c-10.938-7.254-17.879-18.397-26.5-27.966-6.519-7.251-13.464-15.029-17.247-24.071 2.115-4.901 3-6.119 5.678-8.411 3.273-2.795 6.416-.313 8.307 2.419 15.984 24.39 41.645 36.479 65.096 51.407 20.927 13.452 30.603 34.58 37.855 57.184 1.054 3.363 1.161 6.833.109 10.306-5.785 13.557-14.725 24.704-26.29 33.954-2.841 2.312-5.891 3.367-9.15 4.204-2.943-.109-5.678-.635-8.204-2.209.105-2.943 1.368-5.572 3.052-7.566 5.785-6.834 5.785-15.352 7.253-23.446.42-2.31.42-5.148-.633-7.148-5.676-11.457-8.938-24.284-19.244-33.007-2.627-2.314-5.049-4.84-5.681-8.52-3.989-6.303-8.511-12.295-14.401-17.13zm-128.889-37.451c-.428-5.133-2.137-10.161-4.909-14.668-3.84-6.495-8.957-10.688-17.274-8.906-9.918 9.113-21.225 16.031-33.273 22.21-23.035 11.844-48.414 15.089-73.476 19.491-12.476 2.201-25.703 2.409-37.215 7.963-24.742 11.842-41.913 31.435-54.281 55.221 0 6.185-2.026 12.681 1.918 18.444 5.865.732 6.718-4.295 8.742-7.65 14.506-24.103 35.515-39.295 63.453-45.473 12.478-2.727 24.851-6.288 37.435-7.859 16.209-2.094 32.525-2.828 48.312 3.35 18.874 7.443 26.66 21.588 24.101 41.601-1.601 12.156-6.397 22.636-13.117 32.797-1.918 2.936-2.028 5.062-2.402 9.231l3.577-2.839c.745-.632 8.441-4.912 9.189-5.542 16.208-14.144 23.015-21.178 39.971-34.38 5.324-27.878 1.697-55.437-.751-82.991z"/><path id="cl1" fill="#FFD800" d="M1755.977 982.395a4.173 4.173 0 0 1-1.804-.867l-7.39-6.106-9.223 2.624a4.138 4.138 0 0 1-2 .07 4.179 4.179 0 0 1-3.027-5.623l3.525-8.914-5.35-7.96a4.179 4.179 0 0 1 3.729-6.498l9.57.597 5.915-7.545a4.184 4.184 0 0 1 4.145-1.51 4.168 4.168 0 0 1 3.188 3.047l2.393 9.286 9 3.295a4.176 4.176 0 0 1 .806 7.448l-8.093 5.143-.353 9.581a4.177 4.177 0 0 1-5.031 3.932zm-197.408 14.129a5.243 5.243 0 0 0 3.098-7.393l-5.491-10.707 5.709-10.594a5.243 5.243 0 0 0-5.451-7.662l-11.875 1.912-8.314-8.701a5.234 5.234 0 0 0-5.359-1.381 5.24 5.24 0 0 0-3.611 4.196l-1.852 11.889-10.845 5.215a5.244 5.244 0 0 0-.098 9.401l10.737 5.436 1.607 11.925a5.251 5.251 0 0 0 3.524 4.269 5.207 5.207 0 0 0 3.239.032 5.21 5.21 0 0 0 2.146-1.303l8.488-8.529 11.838 2.153a5.256 5.256 0 0 0 2.51-.158z"/></svg>