<svg xmlns="http://www.w3.org/2000/svg" id="eyes" viewBox="0 0 3000 3000"><path fill="#E7E6E2" d="M1397.531 952.753c5.011 7.127 12.37 12.682 15.251 21.375 4.374 5.132 1.602 11.945 4.159 17.499.854 9.22 6.507 14.776 14.609 18.863 28.792 14.878 57.697 29.342 90.858 32.275a12.241 12.241 0 0 1 6.721 2.721c3.517 4.717-1.281 7.233-2.988 10.479-2.344 4.51-7.466 7.022-8.959 12.159-1.918 2.407-4.16 1.883-6.609.838-19.303-7.753-39.035-14.562-57.695-23.576-15.145-7.331-29.54-16.344-44.793-23.785-4.907-2.411-8.318-6.602-9.812-11.842-3.199-11.003-6.399-22.007-8.74-33.216-2.237-9.121 2.451-16.772 7.998-23.79z"/><path fill="#2A2A2A" d="M1792.366 1025.198c-21.533-6.833-41.261-16.929-58.338-31.857-6.256-5.462-12.621-11.034-19.409-15.87-3.499-2.418-4.242-6.204-6.683-9.044-8.059-15.769-6.47-32.271-3.607-48.669 2.548-14.3 6.046-28.492 11.668-42.051a6.995 6.995 0 0 1 2.438-2.214c1.911-.206 3.606.527 4.454 2.001 11.033 18.289 25.461 33.743 39.989 49.195.422.421.318 1.262.211 2.002 10.909 5.314 13.04 10.069 15.482 16.707 11.877 9.884 19.73 22.605 24.606 36.907 5.526 16.294 1.283 30.697-10.811 42.893zm-364.971-13.872c25.912 14.04 52.361 26.303 81.475 32.693 6.933 1.466 14.183.628 21.007 3.144 19.942-5.03 36.153-17.08 53.217-27.451-3.412-3.145.32-4.926 1.603-6.915 7.569-11.003 13.65-22.528 15.14-36.15 1.602-14.674-2.667-35.836-24.315-43.907-16.742-6.183-33.483-6.288-50.229-4.293-15.357 1.885-30.609 5.656-45.431 9.955-20.371 5.867-38.072 15.926-50.868 33.739-4.8 6.707-7.998 14.563-14.185 20.327.213 8.802 4.586 14.564 12.586 18.858z"/><path fill="#86877F" d="M1611.032 869.134c.747-7.751-.854-15.193-3.092-22.419-1.279-4.401-1.708-8.804-1.176-13.308 1.39 0 2.667 0 4.055.103 1.277 1.049 3.2.736 4.586 1.574 17.81 8.068 34.663 17.185 46.179 33.74 3.518 5.033 5.758 10.373 6.611 16.243 4.479 31.435 5.438 62.977 4.375 94.623-13.652 3.038-26.448-.316-39.245-4.61-1.812-3.353-.958-6.706-.639-10.165 2.24-23.682-.214-47.151-2.242-70.725-1.175-12.167-8.106-20.338-19.412-25.056zm233.947 118.006c1.696-7.673 1.908-15.454-.955-22.812-8.696-21.972-21.639-41.209-41.473-54.561-21.851-14.61-42.321-30.276-57.277-52.145-4.668-6.835-11.455-11.35-18.77-15.033-2.016-1.052-3.928-1.476-5.939 0-4.986 10.931-8.484 21.969-2.123 33.641.532-.21 1.061-.315 1.593-.526 5.091-8.828 7.106-9.043 12.725-1.26 3.712 5.153 7.847 9.882 12.308 14.294 12.193 11.881 26.727 20.606 41.581 28.49 25.454 13.457 39.138 35.217 46.985 61.709 1.063 3.47 1.063 6.836.743 10.409 4.236 2.524 7.523.634 10.602-2.206z"/><path fill="#C7C8BC" d="M1397.531 952.753c8.211-10.896 16.85-21.482 26.341-31.33 9.277-9.744 20.154-17.498 31.457-24.731 7.466-4.82 16.105-4.82 24.319-6.602 7.891-1.782 15.998-2.829 23.995-4.292 37.325-6.708 68.997-24.31 96.724-49.25 1.814-1.674 3.521-3.564 6.399-3.039 4.69 11.003 7.679 22.215 6.508 34.27-.959 4.399-4.374 7.018-7.68 9.531-19.305 14.67-40.74 25.043-64.84 29.866-19.086 3.771-38.284 6.917-57.48 10.059s-33.701 13.622-46.178 27.558c-8.424 9.325-15.572 19.594-23.354 29.443-7.784-5.449-14.075-12.054-16.211-21.483zm128.719 112.96c25.701-7.229 50.017-17.606 71.774-32.8 16.743-11.63 32.952-23.89 50.229-34.892 8.53-5.45 16.958-11.108 24.208-18.23-2.133.207-4.159-.209-6.184-.631-10.666-1.784-21.224-4.716-32.207-3.559-5.974-.111-9.707 4.188-13.439 7.541-12.158 10.688-24.739 20.852-35.937 32.59-.747.631-1.493 1.258-2.242 1.887-.747.522-1.599 1.153-2.346 1.675-16.636 9.539-33.485 18.545-50.338 27.769-4.476 6.079-8.853 12.051-14.288 17.288-2.347 2.305-1.065 3.353 1.604 3.668 2.983-.732 6.075-1.368 9.166-2.306zm186.143-215.972c-17.922 33.119-18.455 68.336-12.091 104.073.955 5.361 2.649 10.938 7.637 14.509-4.138-18.711-3.398-37.32.846-55.82 2.759-12.194 6.474-24.18 9.655-36.268-1.379-11.354 2.231-22.387 2.121-33.641-5.197-.21-6.363 3.891-8.168 7.147zm88.355 177.663c7.633 4.52 13.896 1.681 19.832-3.574 11.348-10.092 18.981-22.707 24.396-36.687-3.5.733-7.002 1.469-10.605 2.207-7.957 15.556-19.624 27.856-33.623 38.054z"/><path d="M1762.564 928.27c-11.031-7.254-18.032-18.397-26.729-27.966-6.574-7.251-13.579-15.028-17.396-24.071 2.134-4.901 3.027-6.12 5.727-8.411 3.303-2.795 6.473-.313 8.378 2.418 16.123 24.39 42.003 36.48 65.656 51.408 21.107 13.451 30.866 34.58 38.181 57.185 1.063 3.364 1.172 6.833.109 10.307-5.834 13.557-14.85 24.705-26.515 33.954-2.866 2.313-5.942 3.368-9.229 4.205-2.969-.11-5.727-.636-8.274-2.209.107-2.944 1.38-5.573 3.078-7.567 5.835-6.834 5.835-15.352 7.315-23.446.424-2.31.424-5.148-.638-7.148-5.726-11.457-9.017-24.284-19.409-33.007-2.65-2.314-5.094-4.84-5.73-8.519-4.022-6.306-8.584-12.298-14.524-17.133zm-129.452-35.451c-.429-5.132-2.138-10.16-4.91-14.668-3.84-6.494-8.957-10.688-17.274-8.906-9.919 9.112-21.225 16.03-33.273 22.211-23.035 11.844-48.415 15.087-73.477 19.49-12.477 2.201-25.704 2.409-37.216 7.963-24.742 11.842-41.915 31.435-54.282 55.223 0 6.185-2.026 12.68 1.917 18.444 5.865.731 6.717-4.295 8.741-7.651 14.506-24.103 35.516-39.296 63.455-45.473 12.479-2.727 24.85-6.288 37.434-7.859 16.211-2.092 32.526-2.828 48.314 3.35 18.874 7.443 26.659 21.59 24.101 41.601-1.601 12.157-6.397 22.637-13.118 32.798-1.916 2.936-2.028 5.062-2.4 9.231l3.577-2.84c.745-.633 8.44-4.912 9.188-5.542 16.209-14.145 23.015-21.178 39.973-34.38 5.324-27.878 1.698-55.438-.75-82.992z"/><path id="cl1" fill="#7DA5FF" d="M1537.266 953.711c3.823-8.915 20.777-6.984 24.397.632 4.336 9.095-10.812 22.516-16.032 21.357-3.64-.808-11.42-14.865-8.365-21.989zm7.637 29.336c-.433 9.621 27.289 20.448 27.629-2.786.252-17.658-27.381-2.796-27.629 2.786zm-10.414-9.653c7.297-3.053-15.316-35.35-23.244-14.006-2.976 8.026 11.364 18.312 23.244 14.006zm12.036 18.678c-2.862-2.362-9.917-6.877-12.009-5.482-5.27 3.532-5.476 16.344-3.398 19.646 3.336 5.304 13.621 6.479 17.688 3.335 7.438-5.765 4.768-11.683-2.281-17.499zm-16.122-11.071c-3.083-4.958-21.552-4.243-24.435 2.523-4.266 10.019 10.831 22.912 17.064 17.819 2.375-1.935 8.353-18.77 7.371-20.342zm10.276-3.036c-6-8.11-8.174 11.073-.495 4.682 1.75-1.459 1.531-3.276.495-4.682zm228.27-21.719c4.843 1.029 19.012-11.403 15.044-19.73-3.311-6.972-19.052-8.63-22.667-.415-2.885 6.566 4.247 19.427 7.623 20.145zm-.727 6.755c-.469 8.841 25.214 18.599 25.689-2.748.361-16.224-25.421-2.38-25.689 2.748zm-9.609-8.798c6.801-2.853-13.988-32.372-21.502-12.709-2.821 7.396 10.431 16.748 21.502 12.709zm11.054 17.078c-2.642-2.151-9.169-6.25-11.121-4.955-4.92 3.28-5.199 15.052-3.294 18.071 3.064 4.852 12.613 5.86 16.412 2.944 6.953-5.345 4.513-10.763-1.997-16.06zm-14.904-10.061c-2.829-4.535-19.996-3.752-22.72 2.483-4.033 9.234 9.906 20.977 15.734 16.254 2.219-1.792 7.886-17.299 6.986-18.737zm9.569-2.859c-5.52-7.409-7.67 10.229-.494 4.305 1.639-1.352 1.447-3.02.494-4.305z"/></svg>