<svg xmlns="http://www.w3.org/2000/svg" id="图层_1" viewBox="0 0 3000 3000"><path fill="#C7C8BC" d="M1401.326 960.132c6.774-11.331 15.43-21.25 23.457-31.601 8.758-11.442 20.332-19.506 31.8-27.572 5.629-3.923 12.196-4.791 18.659-6.102 15.224-3.159 30.445-6.212 45.352-10.679 13.449-4.032 25.438-10.898 37.325-18.416 15.746-9.805 29.398-22.446 43.891-34.107 5.841 11.77 10.633 23.866 8.237 37.703-17.306 20.051-39.517 31.493-63.805 38.794-15.953 4.902-32.214 9.043-48.791 11.005-24.917 3.052-44.31 15.475-60.157 34.98-8.234 8.502-12.72 20.16-21.369 28.335-7.823-5.34-14.911-11.225-14.599-22.34zm118.851 119.759c1.147-1.307 3.022-.871 4.276-1.96 23.56-5.667 45.037-16.672 65.055-30.403 21.998-15.04 41.7-33.455 63.387-49.037 5.527-3.923 11.989-7.516 15.327-14.274-.937-1.634-2.503-2.178-4.276-2.506-9.697-1.417-19.393-2.834-29.19-4.249-.521 0-.937.108-1.46.108-.937.328-1.771.763-2.607 1.308-16.888 14.167-32.422 29.861-47.853 45.659-16.994 12.75-34.507 24.411-54.422 31.604 1.671 1.961 4.486 3.052 1.148 6.54-4.691 4.903-9.59 10.023-11.468 17.108a4.659 4.659 0 0 0 2.083.102zm306.12-123.441c-1.157 9.181-3.261 18.255-2.631 27.748.734 11.158-1.157 21.905-9.155 30.875-4.522 5.111-8.305 11.058-12.409 16.584 2.631.208 4.733-1.252 6.837-2.398 17.567-9.806 30.926-22.013 29.034-44.644-1.369-17.005 4.628-32.753 11.151-48.19 6.102-14.399 13.149-28.477 11.57-44.754-1.368 1.461-2.526 3.76-4.205 4.282-5.365 1.769-8.101 5.84-10.415 10.431-8.417 16.061-17.463 31.813-19.777 50.066zm-84.472-167.836c-18.202 15.021-25.141 35.468-27.773 57.895 3.683-8.865 8.942-17.003 13.046-25.555 5.049-10.639 13.146-16.585 24.404-18.881 2.841-5.736 2.734-12.307 4.524-18.36-5.786-1.457-10.202 1.669-14.201 4.901z"/><path fill="#86877F" d="M1607.856 868.597c1.357-5.882-.21-11.331-1.669-16.889-1.772-6.647-4.066-13.076-4.482-20.05 6.253-1.743 11.675 1.198 16.888 4.03 14.181 7.628 28.044 15.472 38.157 29.311 5.316 7.303 7.716 15.368 8.967 23.868 4.485 28.332 4.901 56.991 6.57 85.542.206 3.706 1.458 8.388-3.962 9.697-11.574-1.198-23.563.216-33.99-6.864-3.021-4.903-2.396-10.351-2.29-15.692.313-20.157-1.044-40.21-3.334-60.26-1.777-15.037-6.467-26.808-20.855-32.693zm252.841 23.184c-1.16-17.007-9.995-30.461-19.884-43.709-12.414-16.582-27.457-30.459-43.549-42.975-12.1-9.492-25.354-18.464-41.235-21.385-5.158 5.216-6.104 11.474-4.527 18.361 13.466 1.46 23.672 9.49 34.084 17.003 24.931 18.045 45.865 39.116 57.124 68.53 2.521 6.467 3.784 12.41 3.364 18.982 6.732-3.232 12.096-7.614 14.623-14.807z"/><path fill="#E7E6E2" d="M1401.326 960.132c2.919 8.716 9.591 14.712 14.597 21.907.627.761.937 1.741 1.042 2.723-.313 5.011-1.251 10.025 1.563 14.6 3.334 12.862 11.572 20.273 23.042 25.722 27.73 13.295 55.777 24.953 86.217 29.095 6.256 2.504 6.468 6.32 2.501 11.438-3.856 4.906-7.191 10.355-12.09 14.386-8.652-.437-16.265-4.688-24.188-7.413-12.094-4.248-24.187-8.935-35.655-14.601-16.576-8.172-32.738-17.106-48.897-26.262-4.275-2.397-6.569-7.3-7.923-12.206-2.192-8.283-3.859-16.89-6.466-25.063-4.167-12.858-1.666-24.082 6.257-34.326z"/><path d="M1783.273 1031.448c.843-1.151 1.473-2.505 2.523-3.339 11.782-9.803 17.673-22.009 19.671-37.444 2.736-21.803 3.893-43.499 2.63-65.193-.524-9.596-5.572-18.36-10.831-26.705-7.994-12.829-18.41-23.469-29.877-33.17-13.568-11.476-28.82-10.013-44.6-5.425-3.474 1.044-7.472 5.216-11.363.209-.845-4.901 2.208-9.073 2.734-13.769 2.526-12.83 8.628-24.198 15.885-34.733 4.947-7.094 12.835-10.642 21.459-11.788 7.575-.104 14.413 2.711 20.619 6.674 31.453 20.236 58.91 43.914 73.11 79.797 2.736 6.987 4.63 13.663 3.051 21.07-6.206 16.373-17.358 30.875-19.042 49.129-.842 9.599-3.891 19.09-3.154 28.789 1.577 20.447-8.207 34.942-23.986 46.418-6.313 1.045-12.624 1.045-18.829-.52zm-150.187-51.59a9.766 9.766 0 0 1 1.878-2.288c.624-22.775 1.042-45.55-2.401-68.108-1.46-9.59-1.25-19.505-5.317-28.55-4.587-10.026-9.069-12.967-19.286-12.207-20.016 19.94-43.786 32.693-70.579 39.119-17.203 4.141-34.51 7.627-51.817 11.009-21.682 4.247-37.739 16.889-50.563 34.979 5.841 2.616 10.426-1.635 15.431-3.159 33.155-10.351 66.206-21.139 101.648-19.068 10.011.544 19.078 3.268 27.945 7.411 6.984 3.156 11.987 8.603 15.008 15.908 6.567 15.366 6.671 30.949.415 46.313-2.606 6.321-5.423 12.53-9.382 18.197-1.252 1.743-3.548 4.031-.628 6.539 15.955-15.256 30.861-31.712 47.648-46.095z"/><path fill="#2A2A2A" d="M1783.273 1031.448c-13.568-3.026-25.352-9.6-35.557-18.776-8.732-7.928-17.675-15.75-25.669-24.514-15.882-17.313-24.719-37.342-22.089-61.435 1.789-16.586 3.472-33.175 7.993-49.234 1.58-5.634.633-11.788 3.577-17.211.734-.107 1.369-.208 1.999-.417 29.876-12.622 53.438-4.066 73.318 20.026 15.358 18.566 26.089 37.864 24.933 63.211-.844 18.775-1.683 37.445-4.839 55.911-2.524 14.395-9.99 25.765-23.666 32.439zm-184.07-32.085c9.695-32.691.104-67.232-43.892-70.395-42.12-3.052-81.527 9.589-120.311 24.845-7.612 8.388-14.702 17.216-18.973 28.114 0 .763-.103 1.418-.103 2.179-1.15 5.123-1.253 10.137 0 15.255 1.456 4.032 3.021 8.064 4.275 12.207 1.042 3.268 2.502 5.773 5.523 7.518 32.215 18.743 65.577 34.108 102.902 37.27 3.753-.981 7.716.871 11.261-.981 15.847-8.717 31.59-17.545 45.664-29.314 4.168-9.154 10.735-16.89 13.654-26.698z"/><path id="cl1" fill="#EF8A4E" d="M1555.24 998.933c-16.53-27.736-56.133-23.553-69.471 7.149 2.65-35.685 6.497-51.752 32.574-54.128 25.719-2.346 36.98 32.746 36.897 46.979zm204.977-77.585c-22.219-.779-27.502 14.691-34.283 49.757 15.129-28.84 48.947-28.229 59.3 1.259 1.885-14.102-3.102-50.25-25.017-51.016z"/></svg>