<svg xmlns="http://www.w3.org/2000/svg" id="eyes" viewBox="0 0 3000 3000"><path fill="#C7C8BC" d="M1402.974 888.886c-.723-5.295-4.651-8.1-8.582-11.005-3.516-2.597-8.064-3.945-10.34-8.202.206-.313.413-.623.62-.831 28.023-14.328 54.803-30.939 84.17-42.568 8.272-3.218 16.337-7.06 24.505-10.484 4.759-1.975 9.41-4.262 14.685-4.361-1.142 8.514-2.999 16.817-6.205 24.813-21.301 8.617-41.982 18.582-62.971 28.033-12.409 5.604-25.333 11.212-33.089 23.671-.724.934-1.655 1.142-2.793.934zm105.884 137.36c31.947-11.213 62.558-25.956 93.785-38.934 2.271-.932 4.757-1.243 4.857-4.464-3.207-5.191-7.343-9.448-12.409-12.771-5.063-1.973-9.1 1.143-13.439 2.699-19.958 11.109-42.499 15.888-63.182 25.333-13.646 6.23-27.918 11.11-41.359 17.961 5.063 4.361 5.17 12.046 10.442 16.199 8.175 1.867 14.273-3.531 21.305-6.023zm306.329-202.213c-12.621-3.848-23.806.709-34.991 5.874-3.694 1.724-7.491 3.144-11.287 4.662-16.729 6.786-32.836 14.581-48.331 23.8-6.156 3.748-10.363 8.506-10.261 16.103 22.163-8.81 44.432-17.217 66.286-26.636 11.084-4.762 21.754-9.317 34.173-8.203 4.615-4.254 7.591-9.117 4.411-15.6zm17.033 152.224c4.617-2.025 6.875-3.441 8.005-8.505 4.104-19.041 9.853-37.575 19.7-54.69 2.156-3.748 2.874-8.205 4.312-12.256-6.057-4.051-11.287-2.33-16.11 2.228-9.748 17.928-19.599 35.854-21.139 56.717-.204 2.734-1.539 4.355-4.001 5.169-3.798 1.214-7.49 3.139-11.696 3.139-2.052 1.216-4.723.102-6.669 1.621-.719.103-1.336.103-2.053.202-3.695 3.039-8.209 1.822-12.418 2.331 13.543 7.183 26.985 10.628 42.069 4.044z"/><path fill="#F8F7F7" d="M1402.871 930.625c11.374 19.728 18.817 41.113 26.678 62.295-3.309 3.32-5.17.727-5.895-1.975-3.31-13.183-11.479-24.292-15.923-36.961-1.965-5.813-5.377-11.213-8.066-16.715-1.654-3.53-1.343-6.023 3.206-6.644z"/><path d="M1710.214 876.395c-.104-.607 0-1.215.104-1.823 2.152-4.354 6.564-5.568 10.566-7.188 22.575-9.016 45.458-17.623 67.726-27.449 7.08-3.139 14.569-2.734 21.959-2.329 5.849.811 9.543 4.76 13.135 8.709 11.8 12.764 19.188 28.158 25.344 44.16 1.539 4.15 1.539 8.505.719 12.863-8.104 18.43-17.957 36.257-20.626 56.815-1.13 8.508-10.262 8.609-17.135 10.128-2.771.103-5.204.75-9.255 1.08-1.13-.307-.906-1.688-1.52-2.7-2.26-6.277-1.539-12.559-.515-18.938 2.154-12.765 2.771-25.931-1.438-37.878-5.54-15.396-17.136-27.242-31.911-34.941-5.749-2.935-12.727.305-19.089 1.014-9.748 1.116-19.393 3.85-29.141 4.762-3.895.298-9.653-2.766-8.923-6.285zm-114.187 92.026c12.304-15.161 21.608-32.913 36.913-45.685 1.445-1.246 1.86-2.803 1.757-4.566-.413-12.873-2.378-25.748-8.375-36.963-4.86-9.136-15.822-11.525-25.024-15.262a56.837 56.837 0 0 0-3.823-1.454c-20.577-6.749-41.051-13.601-61.729-20.038-11.063-3.426-22.127-7.476-34.021-7.371-10.854.729-20.574 4.775-29.984 9.758-10.342 5.397-20.785 10.383-31.538 14.742-11.271 4.466-20.991 11.422-31.125 17.858-3.724 2.387-4.859 5.502-4.653 9.552-1.859 3.945.104 5.084 3.619 4.775 3.104-.312 5.791-1.97 8.688-3.218 24.814-10.592 50.354-18.688 76.723-24.295 12.408-2.598 23.888-.934 34.435 6.541 11.479 8.201 23.473 15.888 35.469 23.257 14.684 9.033 18.61 21.181 15.403 36.961-2.378 11.938-.517 24.192-1.756 36.233-.414 3.945.724 7.163 5.894 5.399 3.932-1.454 7.963-3.011 11.892-4.467.511-.62.821-1.24 1.235-1.757z"/><path fill="#86877F" d="M1508.031 812.264c9.51-.521 18.402 2.699 27.089 5.397 28.952 8.931 58.218 16.612 86.857 26.787 7.55 2.699 14.684 5.71 20.576 11.317 5.272 4.981 10.342 10.274 16.233 14.535 8.375 5.918 11.786 13.809 12.303 23.672.519 9.655 2.585 19.208 2.585 28.862 0 3.736-.929 6.229-3.619 9.032-15.098 15.679-32.363 29.07-47.77 44.333-4.421 2.934-9.914 6.825-16.232 9.611-6.204-3.012-9.102-8.678-11.271-15.634 7.961-15.055 17.475-30.109 29.263-42.255 6.516-6.646 7.86-13.604 7.033-22.53-2.068-20.454-12.926-32.188-32.262-37.793-31.33-8.928-61.423-22.425-93.684-28.551-1.347-.313-2.585-.934-3.619-1.972-.721-8.817 1.348-17.231 6.518-24.811zm353.843 68.688c-8.414-22.687-20.126-37.562-37.98-53.767-2.328-.97-4.262-2.405-8.707-3.152-2.193 4.988-3.153 8.311-3.979 13.679 8.826 2.636 12.803 12.147 17.42 18.935 9.543 14.078 20.737 28.24 21.25 46.065 5.438-.509 8.815-2.518 14.355-2.011 1.336-6.785.002-13.264-2.359-19.749z"/><path fill="#2A2A2A" d="M1710.214 876.395c.922 5.57 5.334 4.558 8.723 3.95 8.313-1.521 16.727-2.835 24.936-4.56 6.362-1.314 12.827-.709 19.087-2.938 2.874-1.013 5.849.203 8.519 2.126 7.184 4.761 12.825 10.939 18.471 17.218.923 1.014 1.335 2.532 2.359 3.241 12.006 8.305 11.392 21.064 12.416 33.321 1.131 13.771-2.992 28.83-1.967 42.604-1.465.858-7.917 1.563-12.396.845-19.807-6.783-39.608-13.673-59.618-20.152-4.617-1.521-7.901-3.545-9.646-8.002 1.13-2.532 3.796-2.532 5.849-3.544 12.108-5.771 15.699-22.18 7.184-32.409-5.027-6.077-12.004-7.19-19.086-3.342-3.184 1.722-5.335 5.366-9.544 5.267-1.129-.203-1.947-.81-2.461-1.823-1.026-3.951 0-7.596 1.229-11.245 2.156-3.139 1.438-6.984 2.463-10.432.917-3.542.404-7.492 3.482-10.125zm-306.968 15.945c-1.361 4.483-1.176 4.813-2.649 9.525-3.414 8.1-3.103 15.99.724 23.88.723 1.559.929 3.223 1.444 4.88 3.415 14.641 10.754 27.824 16.44 41.635 2.896 7.063 3.723 15.367 10.237 20.661 15.818 7.785 31.641 15.47 47.459 23.257 7.859.207 14.683-3.115 21.509-6.336 19.023-8.93 38.568-16.404 58.423-23.152 9.1-3.115 17.783-7.06 26.055-12.043-1.551-.519-4.136-.727-3.619-2.803 2.793-12.875-.203-26.063 2.586-39.144 3.414-16.093-.104-29.691-16.131-38.518-12.613-6.957-24.3-15.574-36.088-23.776-10.441-7.372-21.815-9.967-34.226-7.682-13.856 2.596-27.401 6.435-40.741 10.796-15.303 4.983-30.813 9.76-45.185 17.339-2.585 1.352-4.448 1.661-5.066-1.973-.493 1.878-.493 1.878-1.172 3.454z"/><path id="cl1" fill="#FEE801" d="M1706.316 909.009c1.948-2.329 3.591-4.861 6.261-6.583 7.897-5.168 18.16-3.85 23.804 3.545 6.157 7.999 5.646 17.111 2.875 26.027-2.669 8.406-9.545 11.849-18.161 11.951-5.542-6.277-11.186-12.559-16.727-18.84-2.771-2.633-2.771-5.77-2.053-9.115.614-2.835 1.948-5.064 4.001-6.985zm-218.759 10.921c0-1.767.105-3.426 0-5.191-1.034-12.354-9.926-21.391-21.714-22.32-11.375-.937-21.197 6.437-24.3 18.063-1.861 7.165-1.756 14.331.517 21.391 3.311 10.071 12.308 16.612 22.543 16.404 10.545-.208 19.957-7.684 22.335-18.169.725-3.323.725-6.853.932-10.279-.106.101-.21.101-.313.101z"/><path fill="#E7E6E2" d="M1487.258 1032.284c-21.417-2.987-40.875-12.769-61.676-18.02-5.974-1.544-8.752-5.046-10.918-10.709-9.061-24.3-17.093-49.113-33.259-70.02-4.427-5.664-3.913-12.459-3.089-18.737 1.75-13.493 4.325-26.879 4.325-40.571 0-.824 1.03-2.468 1.544-3.295 9.371 3.917 18.638 8.859 21.109 20.285.206 2.68.515 5.561-.619 8.032-4.634 10.297-2.165 20.492-.515 30.789-1.65 3.498-2.165 6.796-.312 10.606 7.52 15.651 15.243 31.2 21.624 47.264 1.03 2.574 2.78 3.707 5.255 3.913 15.96 6.899 31.715 14.21 47.16 22.345 5.356 4.835 8.445 10.91 9.371 18.118zm216.136-119.137c-1.235-4.221.617-8.34 0-12.563-3.604 2.681-2.06 8.752-6.796 10.709-1.75-.721-1.65-2.266-1.441-3.398 1.235-6.591.721-12.048-7.105-14.107-1.03-.309-2.06-1.853-2.468-2.986-.721-2.06 1.647-6.693-3.195-5.351-3.09.823-1.438 4.736-1.133 7.311.103 1.03 1.03 1.957.928 2.883-.516 7.414 6.178 12.978 4.835 20.594-.408 2.78-1.544 6.899 2.06 8.238 4.74 1.856 8.136 8.237 14.522 4.84 0-3.295-.106-6.588-.106-9.885 1.135-2.06 1.341-4.225-.101-6.285zm-5.561 68.27c.313 1.235 1.343 2.265 2.266 3.295.927.927 1.957 1.957 3.501 1.338 1.545-.617 1.647-1.953 1.75-3.291.104-2.06.31-4.325-1.235-5.77-4.53-4.222-6.284-10.19-10.918-14.725 1.547 6.385 2.989 12.871 4.636 19.153z"/></svg>