<svg xmlns="http://www.w3.org/2000/svg" id="eye" viewBox="0 0 3000 3000"><path fill="#C7C8BC" d="M1396.198 885.185c-2.383-5.467-7.978-7.323-12.33-10.519-3.109-2.269-6.529-3.923-6.529-8.458 7.979-5.982 16.995-10.421 25.905-14.75 30.258-14.752 61.24-27.847 92.328-40.741 9.532-3.921 19.066-7.943 28.29-12.375 9.014-4.332 18.443-4.847 28.183-4.231 1.144.106 2.279 1.341 3.421 1.963-3.732-.311-6.738.307-7.979 4.433-.829 2.887-2.175 5.776-2.796 8.665-1.241 5.671-4.248 9.591-9.947 11.346-2.385 4.331-6.945 5.466-11.088 6.91-42.173 14.336-82.586 32.386-120.618 55.594-2.175 1.337-4.248 2.575-6.84 2.163zm138.543 179.98c11.812-5.566 24.144-10.208 35.127-17.12 24.456-15.161 49.011-30.324 72.015-47.652 8.704-6.6 18.444-11.861 25.592-20.523-2.694-1.755-5.698-1.961-8.809-2.579-8.702-1.858-17.822-1.236-26.423-3.816-.519 0-.932 0-1.45.103a8.835 8.835 0 0 0-2.589 1.343c-10.157 6.705-17.721 16.092-26.529 24.239-9.015 8.352-16.373 18.458-27.458 24.647-16.787 9.802-32.33 22.074-52.121 26.2 1.656 2.99 6.32.516 7.563 3.816 0 5.05-5.286 7.53-5.181 12.377 3.529-.004 7.051.408 10.263-1.035zm269.495-33.566c3.62.931 6.724-.927 10.037-1.755 14.689-3.619 25.034-17.571 23.693-32.449-1.865-21.703 2.996-42.062 11.688-61.904 5.795-13.328 12.623-26.867 10.553-42.264-7.347 1.238-13.244 4.135-14.07 12.604-2.275 4.65-4.447 9.3-6.934 13.848-11.483 20.669-15.831 42.989-15.831 66.343 0 6.407 1.139 13.54-2.175 19.221-4.965 8.579-9.726 17.466-17.176 24.39.111.726.215 1.35.215 1.966zm-10.142-223.01c-7.447-.413-14.07 2.17-20.588 5.27-16.453 7.855-30.318 19.74-45.633 29.349-12.62 7.854-18.311 19.635-20.38 33.689 12.104-10.022 24.727-19.428 38.075-27.796 13.036-8.165 25.764-16.949 40.455-22.012 1.864-3.515 3.829-7.029 5.482-10.646 1.453-3.204 3.21-5.888 7.141-5.995-1.138-1.341-2.791-1.755-4.552-1.859z"/><path fill="#86877F" d="M1555.466 795.967c9.637 4.126 18.339 9.697 26.319 16.193 25.49 20.421 52.951 38.574 76.574 61.369 4.145 4.023 6.739 7.941 7.565 13.924 3.522 25.889 5.285 51.879 5.387 78.079 0 4.95.831 10.417-3.833 14.335-12.123.31-24.249.205-35.438-5.568-3.314-4.125-2.694-9.076-2.694-13.822-.205-16.089.313-32.076-1.864-48.166-2.072-15.47-7.667-28.777-18.757-40.022-13.47-13.717-28.6-25.577-43.107-38.16-9.117-7.94-20.205-9.386-30.877-12.894 3.108-7.736 8.287-14.44 11.086-22.484 1.453-3.71 5.494-5.053 9.639-2.784zm299.675 75.454c-7.655-16.845-19.764-30.589-32.18-43.92-6.828-7.336-14.486-13.744-24.211-17.154-8.689 1.136-11.691 4.96-12.623 16.638 5.691 1.343 11.692 1.756 16.35 5.787 11.797 10.126 23.174 20.874 30.315 34.824 6.208 11.986 14.174 23.666 13.454 38.236 2.172-3.617 3.929-7.647 8.895-8.267 2.692-.311 3.417-2.995 5.175-4.338.307-7.75-2.075-14.881-5.175-21.806z"/><path fill="#E7E6E2" d="M1524.585 1065.992c-7.771-2.681-16.06-3.301-24.039-5.053-17.305-3.816-33.056-11.346-49.325-17.741-14.713-5.776-28.496-13.409-41.967-21.763-3.626-2.267-5.907-5.051-7.667-9.076-5.18-11.142-10.777-22.175-16.994-32.696-6.425-10.935-9.948-23.31-16.58-34.139-2.59-4.232.726-10.005 1.451-14.854 2.903-18.874 5.908-37.75 5.699-56.935 0-2.678-.623-5.567 2.177-7.527 6.321 6.91 17.099 9.076 20.52 19.081.518 4.333-1.037 8.354-1.762 12.479-5.18 21.249-5.283 41.774 4.561 62.196 6.424 13.613 11.293 27.952 15.956 42.392 2.074 6.394 6.426 10.107 12.124 13.201 29.429 15.471 60.307 26.817 93.259 32.285 12.537 4.33 13.054 7.837 2.587 18.15z"/><path fill="#2A2A2A" d="M1804.236 1031.599c-8.07 4.756-16.348 3.619-24.522.31-17.897-7.027-33.108-18.084-46.042-32.14-2.379-2.479-5.175-4.649-7.349-7.232-8.379-10.024-20.896-16.638-22.863-31.83-1.658-13.228-5.068-26.042-3.103-39.787 1.448-9.714.829-19.842 3.003-29.66.93-4.237.827-8.887 3.929-12.504 10.969-1.547 21.731-3.722 32.074-7.647 14.072-5.271 26.183-3.41 36.629 7.75 4.555 4.96 11.174 8.269 12.725 15.708 13.067 13.188 19.698 26.19 15.935 48.676.93 14.673-1.656 29.245-1.034 43.921.622 13.641-.413 27.385 2.068 40.925-.004 1.549-.52 2.584-1.45 3.51zm-250.947-138.884c-4.25.205-7.875-.928-11.503-3.505-7.15-5.364-14.817-9.904-21.865-15.369-5.076-3.922-10.568-4.846-16.475-3.405-28.911 7.014-58.132 13.202-86.835 21.042-7.563 2.062-14.713 5.775-22.901 5.364-3.523 9.076-3.42 18.77-4.145 28.259-.726 8.767.829 16.915 4.248 25.064 7.462 17.739 14.301 35.687 20.104 54.044 1.659 5.364 4.663 8.559 9.429 11.346 15.854 9.282 33.052 15.367 49.842 22.382 15.854 6.599 32.33 9.385 49.013 11.654 6.011-.722 12.122.62 18.03-2.888 12.122-7.117 24.455-13.924 35.854-22.072-2.901-.309-4.248-1.442-2.901-4.745 3.835-8.664 7.461-17.533 11.088-26.3 1.97-4.642 4.768-9.282 3.938-14.544-1.763-11.035-3.938-21.969-6.011-32.9-.669-16.069-7.69-38.256-28.91-53.427z"/><path d="M1787.047 896.36c-6.727-8.785-14.473-16.462-22.749-23.595-4.45-3.821-9.831-2.478-14.694-1.235-10.655 2.685-21.105 5.576-31.762 8.472-3.622.933-7.347 2.481-10.452-1.136 0-.621 0-1.343.104-1.964 2.069-3.1 3.829-6.513 6.932-8.889 19.765-15.499 40.87-29.037 63.322-40.301 2.796-1.343 5.689-2.583 8.796-2.686 9.414.411 16.865 4.752 23.69 11.159 16.558 15.295 28.558 33.378 36.318 54.462 1.967 5.374 2.693 10.643 1.55 16.225-.827 3.304-2.276 6.51-4.034 9.403-13.657 23.563-18.003 49.19-17.9 75.956.105 16.741-8.171 28.935-21.934 37.617-2.794-5.998-3.726-12.298-3.619-18.808.104-15.709.104-31.416.104-47.125 0-7.545 3.001-14.673 2.069-22.323-.103-3.617.399-8.312-.313-11.517-1.906-8.578-4.334-14.559-9.014-23.834-1.543-3.061-4.761-6.368-6.414-9.881zm-154.799 77.216c-.104-20.63.623-41.051-1.968-61.576-2.072-15.984-7.565-29.497-18.86-40.943-14.196-14.442-29.635-27.437-45.594-40.024-9.326-7.323-19.271-11.654-31.293-10.519-20.309 7.323-41.035 13.615-60.617 23-11.503 5.466-22.485 11.755-34.508 16.194-15.957 5.98-28.427 14.518-42.001 24.416-2.039 3.282-3.121 7.274-3.696 12.816 4.457 3.816 9.121 1.443 13.678.102 29.634-8.663 59.997-14.645 89.943-22.278 10.257-2.577 18.445-.619 26.839 5.674 8.601 6.396 17.052 10.936 27.518 17.957 4.704 4.096 8.33 8.211 9.427 10.337 1.258 2.44 1.258 2.44 6.956 12.548 5.805 10.314 4.811 8.191 7.541 15.342 1.496 3.25 3.316 6.696 4.931 10.342 0 5.775 1.036 11.551 2.384 17.122 3.004 12.377 2.484 24.033-4.041 35.48-3.316 5.877-5.699 12.376-7.46 18.979-.934 3.506-1.868 7.94 4.659 6.29 5.077-1.755 8.289-5.879 11.813-9.488 13.677-13.923 27.875-27.125 42.588-39.813.416-.822.933-1.543 1.761-1.958z"/><path id="cl2" fill="#E50012" d="M1535.241 981.106c4.347 32.911-15.183 39.785-31.616 39.785s-32.867-13.104-27.905-39.785c5.153-27.703 19.232-44.469 29.771-51.033 13.02 10.918 26.082 23.083 29.75 51.033zm242.048-60.218c-9.163 6.032-21.406 21.438-25.888 46.898-4.315 24.517 9.976 36.561 24.266 36.561 14.289 0 31.272-6.315 27.492-36.561-3.188-25.684-14.547-36.864-25.87-46.898z"/><path id="cl1" fill="#F9BE00" d="M1521.883 995.555c2.481 18.878-8.716 22.806-18.151 22.806-9.414 0-18.829-7.514-15.988-22.806 2.948-15.889 11.027-25.505 17.069-29.251 7.464 6.264 14.949 13.233 17.07 29.251zm254.817-41.371c-5.256 3.443-12.28 12.279-14.845 26.881-2.471 14.053 5.717 20.958 13.904 20.958 8.204 0 17.94-3.61 15.783-20.958-1.842-14.721-8.35-21.124-14.842-26.881z"/></svg>