<svg xmlns="http://www.w3.org/2000/svg" id="eyes" viewBox="0 0 3000 3000"><path fill="#E7E6E2" d="M1400.71 923.811c-3.007 5.08-3.216 11.096-5.394 16.388-.932 2.386-.311 4.668.519 6.95 1.35 3.835 2.387 7.883 3.527 11.721-1.245 3.838-.624 7.468 1.244 10.994 8.504 16.909 17.011 33.817 23.544 51.552.831 2.385 1.452-1.037 2.489-.622 17.529 7.364 35.061 14.934 51.551 24.687 2.905 4.771 10.892 11.202 9.958 17.322-8.375-1.61-19.5-4.046-26.45-6.639-13.588-4.979-27.382-9.128-41.284-13.379-4.562-1.351-6.43-4.045-7.986-8.298-6.742-17.321-12.24-35.162-21.368-51.449-3.424-6.016-6.742-12.032-10.373-17.944-1.556-2.385-3.007-4.667-2.387-7.572 3.008-13.173 4.149-26.45 4.045-39.934-.104-6.742 1.35-7.78 7.779-8.298 2.075-.207 4.149 0 6.224 0 62.235 0 124.366.104 186.602.207 3.734 0 7.675-1.037 10.995 1.556-2.281 2.488-5.187 1.243-7.779 1.35-62.441 2.696-124.989 2.178-187.64 2.281.628 3.212 8.407 4.459 2.184 9.127zm294.269 16.282c-2.489-3.215-1.244-6.016-.313-8.92.831-2.593.209-4.979-2.281-6.12-3.215-1.449-6.845-1.867-9.957.106-2.698 1.659-1.037 4.46.104 6.431 2.697 4.46 2.387 9.229 2.387 14.106 0 3.112-.416 6.535 3.318 7.885 4.461 1.556 7.676 7.985 13.69 3.525-.622-10.373.104-20.64 1.452-30.91-3.525 3.838-2.799 10.371-8.4 13.897zm9.853 67.94c-2.905-5.08-6.638-9.646-9.957-14.416-.624.311-1.245.622-1.869.931 3.425 6.95 1.763 15.766 9.542 22.197 1.35-3.63 3.633-6.324 2.284-8.712zm-17.011-5.29c-.415 3.215-1.66 6.432 2.593 9.854 1.036-4.668-1.038-7.157-2.593-9.854z"/><path d="M1618.843 911.883c1.868 0 3.837 0 5.705.103 6.846 3.217 6.224 10.269 7.884 15.87 3.941 13.381 3.839 25.519-8.713 35.993-9.646 8.09-15.663 19.915-23.442 29.977-2.281 3.006-4.668 6.016-7.779 8.192-4.253 2.282-8.298 5.186-13.589 4.255-2.593-1.037-4.045-3.218-3.525-5.705 1.97-9.335-4.045-13.692-10.478-18.152-9.541-6.742-18.774-14.109-27.487-21.782-6.535-5.705-12.861-6.33-20.85-4.255-31.013 8.298-61.716 17.322-92.003 28.006-3.525 1.245-8.792 3.188-12.73 2.774-9.232-7.365-9.362-19.163-15.17-28.6-5.5-13.173-6.432-25.727 4.667-36.929 13.587-4.667 27.9-3.733 41.801-4.561 20.538-1.245 41.076-2.593 61.716-3.112 2.489-.106 4.772 0 6.95 1.348 3.631 2.385 43.876-1.868 49.062-3.424 19.293-1.869 38.689 2.488 57.981.002zm87.129 49.163l.104.208c12.655 2.593 24.479-2.386 36.616-3.838 30.08-3.733 21.47-6.636 42.839 14.211 7.675 7.468 15.247 15.04 15.559 26.865.104 3.837 2.594 6.224 6.536 6.742 17.633-1.764 20.226-3.838 23.544-21.057 2.179-10.891 6.224-20.952 11.203-30.705 3.422-6.637 7.676-13.069 8.922-20.64-1.037-13.484-4.045-19.085-12.552-19.502-12.966-.622-26.036-.622-38.897 2.181-2.593 1.968-36.199-.624-40.661-1.556-17.944-.727-35.785-.208-53.313 4.042-.83 2.7-1.556 5.5-2.386 8.195-.726 4.356-2.698 8.401-3.735 12.655-1.451 6.327-3.007 12.758 2.281 18.255.519 0 .934.105 1.35.311 1.553.728 1.14 2.803 2.59 3.633z"/><path fill="#C7C8BC" d="M1483.794 1060.932c-3.217-4.354-5.292-9.127-6.224-14.415.932-3.527 4.044-4.356 6.846-5.602 28.11-12.859 57.464-22.404 85.886-34.54 3.007-1.245 6.017-.622 9.022-1.556 4.046-1.453 8.092-3.008 12.136-4.46 4.148.207 6.535 3.005 8.921 5.808 2.697 3.218 5.809 5.394 10.268 5.187-31.74 14.937-63.687 29.25-96.671 41.179-8.712 3.112-16.803 7.987-25.827 10.268-1.349-1.036-3.216-.727-4.357-1.869zm337.313-47.505c4.462-1.867 9.13-3.005 13.899-3.941 3.524-.726 5.08-2.074 5.704-5.912 3.007-19.189 8.921-37.341 17.634-54.664 2.281-4.562 5.393-8.92 5.081-14.416-4.874-3.838-9.646-3.527-14.521 0-8.712 16.389-18.876 32.363-20.64 51.344-1.037 10.58-6.224 14.934-15.56 16.49-1.661.314-3.423.519-5.081.726-3.735 2.904-8.922 1.348-12.653 4.255 7.883 5.288 15.765 10.373 26.137 6.118z"/><path fill="#2A2A2A" d="M1706.077 961.152c10.166-3.218 20.953-3.63 31.325-5.913 7.985-1.763 16.283-2.593 24.375-3.941 3.941-.625 7.467-.314 10.477 2.798 8.504 9.024 18.049 17.012 25.725 26.969 3.525 4.564 6.119 8.923 5.393 14.937-.414 3.32.207 6.327 4.254 6.95-4.098 3.499-7.987 5.471-12.655 4.252-14.132-4.745-26.655-8.505-40.037-12.859-3.631-1.144-7.055-2.593-10.685-3.838-22.924-7.99-22.924-7.99-38.172-29.355zm-128.412 37.341c3.423-6.538-.207-10.062-4.875-13.591-13.276-10.266-26.554-20.639-39.622-31.221-3.424-2.801-6.638-2.49-10.58-1.453-17.53 4.875-35.371 8.817-52.692 14.316-18.982 6.017-39.909 12.317-58.061 20.615-.624 13.379 7.649 23.155 14.184 33.84 1.868 1.451 3.526 3.317 5.705 4.355 15.248 7.157 30.599 14.21 45.847 21.264 6.431-2.487 12.966-4.668 19.189-7.467 18.047-8.403 37.101-14.345 55.493-21.888 9.153-3.753 16.985-8.192 27.071-12.447-2.592-1.762-2.8-4.147-1.659-6.323z"/><path fill="#86877F" d="M1591.356 1000.461c8.092-10.58 16.284-21.157 24.271-31.844 4.148-5.497 8.298-10.891 13.897-15.04 2.387-1.761 3.838-3.733 3.425-6.846-1.763-11.825-2.906-23.753-8.299-34.748 12.033-.103 24.063 0 36.098-.311 5.291-.106 7.261 2.074 7.673 7.154.832 11.307 1.972 22.615 3.218 33.918.312 2.904.104 5.292-2.181 7.468-16.699 16.907-35.058 32.052-52.484 48.129-1.635 1.132-3.527 1.631-6.43 3.112-9.956 2.599-14.002-5.287-19.188-10.992zm-150.815-80.076c19.501-1.659 39.001-2.178 58.605-2.904 4.356-.208 5.059.235 13.069-.103 19.033-.299 31.222-.104 47.169-1.92 15.664-1.349 30.236-.129 45.898-.648 4.355-.207 16.351 1.806 20.5-.37-.999-2.185-.759-1.772-.759-2.459-3.734.104-38.853-.411-42.586-.411-61.303 0-122.603-.104-183.907-.104-3.525 0-6.948.312-12.55.623 5.911 3.217 9.75 5.5 13.691 7.468 2.282 1.144 1.244 1.245 1.037 2.801 13.382-2.906 25.778-1.606 39.833-1.973zm424.858 8.402c.312-6.639-3.424-12.035-6.742-17.011-2.904-4.357-8.298-1.969-12.551-1.867-14.106.208-28.318.83-42.423 1.245-28.629.931-57.361-.106-85.886 1.867-4.563.311-8.921.622-11.824 4.875 18.671-.416 37.342-3.218 56.115-1.453 13.563 1.089 22.639.83 36.928.106 11.645-1.363 22.613 0 33.918-.726 11.515-.83 12.966.519 15.246 11.41.519 2.386.624 4.771.934 7.155h14.521c1.66-1.452 1.66-3.526 1.764-5.601z"/><path fill="#F7F7F7" d="M1411.835 987.158c2.798 12.035 11.383 21.809 14.079 33.84-.623 1.663-1.037 5.292-3.424 1.87-2.697-3.945-4.042-8.713-5.912-13.173-5.601-13.795-12.343-26.969-19.085-40.142-2.179-4.149-4.658-6.584.113-9.385 6.121 8.401 8.73 18.278 14.229 26.99z"/><path id="cl1" fill="#F9BABF" d="M1504.145 917.354c3.506 0 22.904-.533 24.963-.2-15.089 14.692-5.754 33.158 7.625 40.431 18.897 10.275 37.457-13.261 26.872-23.944-10.015-10.111-31.553 7.494-19.382 11.683-18.758 2.688-8.12-9.313.654-16.37-.876-1.704-2.036-2.943 1.158-5.02 13.42-8.728 14.787 1.279 21.32 4.888 3.628 2.006 9.472-1.11 12.791 3.349 3.863 5.186-1.19 5.737-3.549 10.47-2.303 4.627-2.456 4.371-2.566 9.25-.073 3.393 5.007 3.284 1.244 7.984-5.079 6.336-7.441 1.436-14.802 3.908-5.188 1.743-5.794 5.401-12.012 6.495-7.456 1.313-5.37-1.928-10.07-2.594-2.599-.368-10.344-.18-11.987-.526-12.24-2.584-5.278-6.533-9.815-13.939-1.708-2.797-7.289-2.167-8.507-5.64-.984-2.814 2.85-5.807 2.994-8.711.273-5.172-5.913-10.954 2.026-16.073-1.376-.949-3.177-2.041-5.174-2.392m282.621-2.799c-2.875-.082-18.772-.969-20.467-.743 12.035 12.419 3.95 27.373-7.189 33.037-15.737 8.003-30.413-11.765-21.486-20.294 8.449-8.073 25.704 6.888 15.625 10.047 15.321 2.643 6.876-7.461-.157-13.462.757-1.38 1.737-2.372-.833-4.151-10.805-7.48-12.158.708-17.6 3.52-3.021 1.564-7.74-1.131-10.567 2.456-3.288 4.17.844 4.74 2.668 8.683 1.782 3.854 1.913 3.648 1.889 7.658-.019 2.79-4.182 2.581-1.205 6.529 4.02 5.323 6.07 1.353 12.048 3.553 4.216 1.554 4.627 4.573 9.702 5.615 6.083 1.252 4.448-1.458 8.318-1.897 2.14-.241 8.488.093 9.843-.153 10.098-1.838 4.48-5.243 8.373-11.223 1.465-2.258 6.027-1.61 7.107-4.436.871-2.289-2.204-4.836-2.255-7.227-.104-4.256 5.104-8.861-1.288-13.25 1.148-.749 2.651-1.604 4.298-1.845"/></svg>