<svg xmlns="http://www.w3.org/2000/svg" id="eyes" viewBox="0 0 3000 3000"><path fill="#C7C8BC" d="M1398.322 889.936c-.729-5.312-4.688-8.125-8.646-11.041-3.542-2.604-8.127-3.958-10.416-8.229.205-.312.414-.625.625-.833 28.229-14.375 55.206-31.041 84.789-42.707 8.333-3.229 16.457-7.083 24.684-10.52 4.793-1.979 9.48-4.275 14.79-4.375-1.147 8.542-3.02 16.875-6.25 24.895-21.459 8.646-42.291 18.641-63.433 28.124-12.5 5.62-25.52 11.249-33.332 23.749-.728.937-1.666 1.146-2.811.937zm106.659 137.807c32.185-11.25 63.019-26.041 94.475-39.061 2.291-.933 4.793-1.245 4.895-4.479-3.23-5.208-7.396-9.478-12.499-12.812-5.103-1.979-9.169 1.146-13.541 2.708-20.106 11.146-42.813 15.941-63.646 25.416-13.748 6.25-28.124 11.146-41.665 18.02 5.101 4.375 5.208 12.088 10.522 16.254 8.233 1.871 14.378-3.546 21.459-6.046zm309.766-202.908c-12.803-3.958-24.146.729-35.49 6.042-3.747 1.771-7.598 3.234-11.446 4.796-16.965 6.979-33.304 14.994-49.021 24.478-6.244 3.854-10.51 8.745-10.406 16.558 22.48-9.058 45.064-17.708 67.231-27.395 11.241-4.896 22.063-9.583 34.656-8.437 4.684-4.376 7.703-9.375 4.476-16.042zm17.277 156.555c4.684-2.083 6.973-3.537 8.119-8.745 4.163-19.583 9.991-38.646 19.981-56.248 2.188-3.854 2.914-8.439 4.371-12.605-6.142-4.167-11.448-2.398-16.341 2.289-9.887 18.437-19.878 36.874-21.44 58.331-.206 2.813-1.561 4.481-4.058 5.317-3.851 1.247-7.598 3.229-11.863 3.229-2.082 1.25-4.791.106-6.767 1.668-.727.107-1.355.107-2.082.207-3.747 3.125-8.322 1.876-12.593 2.397 13.741 7.39 27.374 10.931 42.673 4.16z"/><path fill="#E7E6E2" d="M1483.526 1033.888c-21.666-3.021-41.351-12.916-62.391-18.228-6.043-1.563-8.854-5.104-11.043-10.833-9.167-24.582-17.291-49.681-33.645-70.83-4.48-5.729-3.959-12.604-3.125-18.953 1.77-13.65 4.374-27.191 4.374-41.041 0-.833 1.042-2.495 1.563-3.333 9.481 3.963 18.855 8.962 21.353 20.52.208 2.711.521 5.625-.626 8.125-4.688 10.416-2.189 20.729-.521 31.145-1.668 3.537-2.189 6.875-.313 10.729 7.604 15.833 15.417 31.561 21.874 47.811 1.042 2.604 2.81 3.75 5.313 3.958 16.146 6.979 32.085 14.374 47.709 22.604 5.413 4.889 8.538 11.035 9.478 18.326zm218.618-121.557c-1.248-4.271.623-8.437 0-12.708-3.644 2.713-2.083 8.854-6.87 10.833-1.77-.729-1.668-2.292-1.456-3.437 1.247-6.667.728-12.187-7.183-14.271-1.041-.312-2.081-1.875-2.495-3.021-.729-2.083 1.666-6.771-3.229-5.412-3.122.833-1.454 4.791-1.146 7.395.105 1.042 1.042 1.979.937 2.917-.521 7.5 6.244 13.129 4.889 20.833-.414 2.813-1.56 6.979 2.081 8.333 4.791 1.878 8.225 8.333 14.677 4.896 0-3.334-.104-6.663-.104-10 1.147-2.085 1.354-4.275-.101-6.358zm-5.622 69.059c.315 1.25 1.355 2.292 2.288 3.333.937.938 1.978 1.979 3.538 1.354 1.562-.625 1.666-1.975 1.768-3.328.106-2.083.314-4.375-1.247-5.838-4.579-4.271-6.351-10.308-11.034-14.895 1.566 6.459 3.023 13.021 4.687 19.374z"/><path fill="#F8F7F7" d="M1398.215 931.81c11.458 19.791 18.957 41.248 26.876 62.497-3.333 3.333-5.208.729-5.938-1.979-3.332-13.224-11.563-24.369-16.039-37.081-1.979-5.833-5.417-11.25-8.126-16.77-1.666-3.543-1.354-6.043 3.227-6.667z"/><path d="M1708.282 878.687c-.108-.625 0-1.25.104-1.875 2.186-4.479 6.662-5.729 10.72-7.395 22.896-9.271 46.104-18.125 68.687-28.233 7.182-3.229 14.778-2.813 22.271-2.396 5.93.833 9.68 4.896 13.321 8.958 11.967 13.129 19.461 28.961 25.706 45.419 1.561 4.271 1.561 8.745.729 13.229-8.224 18.953-18.212 37.29-20.922 58.435-1.146 8.75-10.406 8.854-17.379 10.417-2.81.104-5.276.771-9.387 1.11-1.146-.317-.918-1.735-1.541-2.777-2.291-6.458-1.561-12.917-.521-19.479 2.187-13.129 2.808-26.67-1.456-38.957-5.621-15.833-17.381-28.015-32.365-35.936-5.832-3.016-12.907.313-19.36 1.042-9.888 1.15-19.667 3.958-29.554 4.896-3.952.313-9.793-2.839-9.053-6.458zm-115.49 91.04c12.393-15.212 21.768-33.02 37.184-45.832 1.456-1.25 1.878-2.813 1.77-4.583-.415-12.913-2.396-25.832-8.438-37.081-4.895-9.166-15.938-11.567-25.207-15.313a57.597 57.597 0 0 0-3.852-1.458c-20.726-6.771-41.351-13.645-62.184-20.103-11.145-3.438-22.29-7.5-34.269-7.396-10.937.729-20.727 4.791-30.207 9.787-10.416 5.417-20.937 10.416-31.77 14.791-11.352 4.479-21.145 11.458-31.354 17.916-3.751 2.396-4.895 5.521-4.687 9.583-1.876 3.958.105 5.1 3.646 4.791 3.125-.312 5.834-1.974 8.748-3.229 24.999-10.625 50.725-18.749 77.287-24.374 12.5-2.604 24.063-.933 34.688 6.562 11.564 8.229 23.644 15.941 35.728 23.333 14.792 9.063 18.749 21.249 15.519 37.082-2.397 11.979-.521 24.273-1.769 36.353-.415 3.958.728 7.185 5.936 5.417 3.96-1.458 8.019-3.021 11.979-4.484.523-.618.835-1.241 1.252-1.762z"/><path fill="#86877F" d="M1504.15 813.065c9.581-.521 18.541 2.708 27.289 5.417 29.165 8.958 58.645 16.666 87.496 26.874 7.605 2.708 14.79 5.729 20.729 11.354 5.312 5 10.416 10.307 16.351 14.583 8.439 5.938 11.873 13.854 12.394 23.749.521 9.687 2.604 19.27 2.604 28.957 0 3.749-.936 6.25-3.646 9.062-15.21 15.728-32.606 29.166-48.121 44.478-4.452 2.942-9.987 6.848-16.352 9.642-6.25-3.021-9.169-8.706-11.354-15.685 8.02-15.104 17.602-30.207 29.479-42.393 6.564-6.667 7.918-13.65 7.085-22.603-2.083-20.521-13.021-32.291-32.499-37.916-31.561-8.957-61.869-22.498-94.37-28.645-1.356-.312-2.604-.933-3.646-1.974-.73-8.857 1.353-17.296 6.561-24.9zm357.951 70.309c-8.533-23.333-20.415-38.631-38.521-55.297-2.363-.998-4.322-2.474-8.833-3.242-2.226 5.13-3.196 8.546-4.034 14.066 8.955 2.713 12.988 12.495 17.67 19.474 9.68 14.479 21.031 29.043 21.552 47.376 5.516-.521 8.941-2.586 14.562-2.066 1.351-6.978-.002-13.642-2.396-20.311z"/><path fill="#2A2A2A" d="M1708.282 878.687c.933 5.729 5.407 4.687 8.845 4.063 8.432-1.563 16.963-2.917 25.289-4.688 6.451-1.354 13.008-.729 19.357-3.021 2.915-1.042 5.932.208 8.639 2.187 7.285 4.896 13.01 11.254 18.732 17.708.935 1.042 1.354 2.604 2.396 3.333 12.174 8.542 11.551 21.666 12.592 34.27 1.148 14.166-3.035 29.651-1.995 43.816-1.487.883-8.029 1.607-12.574.869-20.087-6.978-40.172-14.062-60.466-20.728-4.685-1.563-8.014-3.646-9.785-8.229-2.699-4.375-13.221-25.646-15.105-29.568-.744-1.694-2.691-6.263-3.212-7.305-1.04-4.063 0-7.812 1.247-11.566 2.188-3.229 1.456-7.183 2.496-10.729.942-3.641.421-7.704 3.544-10.412zm-309.687 14.712c-1.371 4.499-1.184 4.831-2.669 9.558-3.44 8.124-3.125 16.041.726 23.957.729 1.563.936 3.234 1.457 4.896 3.439 14.687 10.832 27.915 16.561 41.769 2.917 7.088 3.751 15.421 10.312 20.729 15.937 7.813 31.874 15.521 47.808 23.333 7.919.208 14.789-3.125 21.667-6.359 19.163-8.957 38.853-16.457 58.852-23.228 9.167-3.125 17.914-7.083 26.247-12.083-1.563-.521-4.167-.729-3.646-2.813 2.811-12.916-.206-26.147 2.604-39.269 3.439-16.145-.105-29.79-16.251-38.644-12.707-6.979-24.479-15.624-36.351-23.854-10.522-7.395-21.98-9.999-34.479-7.704-13.956 2.604-27.604 6.454-41.039 10.829-15.418 5-31.042 9.792-45.517 17.396-2.604 1.354-4.48 1.666-5.104-1.979-.494 1.889-.494 1.889-1.178 3.466z"/><path id="cl1" fill="#EA7E65" d="M1562.156 949.621c-2.346 1.298-19.425-10.161-26.148-14.764-1.115.673-2.232 1.396-3.406 2.008-1.572 8.508-5.549 28.208-8.495 29.04-2.89.82-21.372-12.01-29.839-18.058-2.003.22-4.034.465-5.979.587-4.006 8.337-13.846 28.184-16.479 28.037-2.946-.146-16.449-21.89-19.054-30.154-6.666-1.554-10.985-2.374-14.39-5.95-1.573-1.971-.943-4.641 1.373-5.974 2.26-1.286 5.322-.783 6.866 1.102l.03-.049c.344.172.944.453 1.774.772 1.659.574 4.12 1.236 7.124 1.847 5.98 1.188 14.218 2.081 23.316 2.081 24.174 0 53.728-6.292 69.004-28.011 1.403-2.021 4.493-2.682 6.867-1.458 2.346 1.224 3.146 3.857 1.717 5.888-.803 1.089-1.747 1.97-2.575 2.999 3.232 7.237 10.87 28.649 8.294 30.057zm235.498-46.06c.755-.93 1.571-1.702 2.315-2.696 1.339-1.859 1.129-4.55-.416-6.01-1.567-1.463-3.928-1.136-5.245.715-14.305 19.878-36.881 22.979-54.61 20.419-6.673-.963-12.589-2.72-16.804-4.528-2.116-.924-3.826-1.838-4.962-2.583a13.175 13.175 0 0 1-1.19-.951l-.028.046c-.863-2.03-3.036-2.851-4.879-1.818-1.889 1.075-2.732 3.651-1.861 5.769 1.987 3.898 5.039 5.167 9.705 7.412.729 8.455 7.528 31.403 9.666 31.861 1.91.424 11.963-18.177 16.091-26.004 1.445.085 2.97.058 4.47.052 5.349 6.881 17.07 21.536 19.305 21.031 2.28-.512 8.011-19.588 10.382-27.842.945-.481 1.868-1.079 2.784-1.626 4.273 5.266 15.162 18.417 17.068 17.381 2.089-1.124-.455-23.125-1.791-30.628z"/></svg>