<svg xmlns="http://www.w3.org/2000/svg" id="eyes" viewBox="0 0 3000 3000"><path fill="#E7E6E2" d="M1400.652 924.167c-3 5.066-3.208 11.067-5.38 16.346-.928 2.379-.31 4.656.518 6.932 1.346 3.825 2.38 7.863 3.518 11.691-1.242 3.828-.623 7.449 1.241 10.966 8.482 16.866 16.968 33.731 23.484 51.419.828 2.379 1.447-1.035 2.481-.62 17.484 7.345 34.972 14.895 51.418 24.623 2.898 4.759 10.864 11.173 9.933 17.278-8.353-1.606-19.45-4.035-26.382-6.622-13.554-4.966-27.311-9.104-41.178-13.343-4.549-1.348-6.414-4.035-7.965-8.277-6.725-17.277-12.209-35.072-21.313-51.318-3.417-6-6.725-12.001-10.346-17.898-1.552-2.379-3-4.656-2.382-7.552 3.001-13.14 4.139-26.382 4.035-39.832-.104-6.725 1.346-7.759 7.76-8.276 2.069-.208 4.138 0 6.208 0 62.075 0 124.046.103 186.123.206 3.725 0 7.655-1.035 10.967 1.552-2.275 2.48-5.173 1.238-7.76 1.346-62.281 2.689-124.668 2.172-187.157 2.275.625 3.205 8.385 4.448 2.177 9.104zm293.513 16.24c-2.482-3.207-1.24-6-.311-8.897.828-2.586.208-4.966-2.275-6.104-3.207-1.445-6.828-1.862-9.932.107-2.692 1.655-1.035 4.449.103 6.415 2.69 4.449 2.381 9.205 2.381 14.07 0 3.104-.414 6.518 3.31 7.865 4.449 1.552 7.656 7.964 13.656 3.515-.623-10.346.104-20.585 1.446-30.831-3.514 3.828-2.791 10.343-8.378 13.86zm9.829 67.766c-2.897-5.066-6.621-9.622-9.932-14.377-.624.31-1.242.62-1.865.927 3.417 6.932 1.758 15.726 9.518 22.141 1.346-3.621 3.624-6.309 2.279-8.691zm-16.969-5.276c-.412 3.207-1.656 6.415 2.586 9.829 1.035-4.656-1.035-7.139-2.586-9.829z"/><path d="M1618.224 912.269c1.865 0 3.827 0 5.69.104 6.83 3.209 6.208 10.243 7.864 15.829 3.933 13.346 3.829 25.454-8.689 35.9-9.622 8.069-15.623 19.864-23.383 29.9-2.275 2.997-4.655 6-7.759 8.169-4.244 2.276-8.277 5.173-13.555 4.246-2.587-1.035-4.033-3.211-3.517-5.69 1.964-9.312-4.034-13.657-10.451-18.105-9.515-6.725-18.727-14.074-27.416-21.727-6.519-5.69-12.827-6.314-20.796-4.246-30.934 8.277-61.559 17.278-91.768 27.934-3.515 1.242-8.769 3.181-12.697 2.769-9.208-7.348-9.337-19.115-15.131-28.526-5.486-13.139-6.415-25.661 4.656-36.835 13.553-4.656 27.828-3.724 41.694-4.548 20.486-1.242 40.971-2.586 61.559-3.104 2.482-.107 4.76 0 6.932 1.345 3.621 2.379 43.763-1.863 48.936-3.415 19.243-1.864 38.59 2.481 57.831 0zm86.906 49.037l.104.207c12.623 2.587 24.417-2.379 36.522-3.828 30.003-3.724 21.415-6.618 42.729 14.174 7.655 7.449 15.207 15.001 15.519 26.796.103 3.827 2.586 6.208 6.519 6.725 17.588-1.759 20.175-3.828 23.484-21.003 2.172-10.863 6.208-20.898 11.175-30.626 3.413-6.619 7.655-13.036 8.898-20.586-1.034-13.45-4.034-19.036-12.52-19.453-12.933-.621-25.969-.621-38.798 2.176-2.586 1.962-36.105-.623-40.557-1.552-17.898-.725-35.693-.207-53.176 4.031-.828 2.693-1.552 5.486-2.38 8.174-.724 4.345-2.69 8.38-3.726 12.622-1.447 6.311-2.999 12.725 2.274 18.208.518 0 .931.106 1.347.31 1.551.729 1.14 2.798 2.586 3.625z"/><path fill="#C7C8BC" d="M1483.523 1060.937c-3.209-4.341-5.279-9.104-6.208-14.377.929-3.518 4.032-4.346 6.828-5.587 28.038-12.825 57.316-22.347 85.665-34.452 2.999-1.242 6.001-.62 9-1.552 4.035-1.448 8.07-3 12.104-4.449 4.139.207 6.519 2.997 8.898 5.793 2.69 3.211 5.794 5.38 10.242 5.173-31.66 14.898-63.523 29.176-96.424 41.074-8.689 3.104-16.759 7.966-25.76 10.242-1.345-1.034-3.207-.726-4.345-1.865zm336.446-47.384c4.452-1.862 9.107-2.997 13.863-3.932 3.515-.724 5.066-2.069 5.69-5.897 2.997-19.14 8.897-37.246 17.588-54.523 2.274-4.548 5.378-8.897 5.066-14.377-4.859-3.828-9.621-3.518-14.483 0-8.688 16.346-18.827 32.279-20.586 51.212-1.035 10.553-6.208 14.895-15.52 16.446-1.657.314-3.416.517-5.068.724-3.726 2.897-8.898 1.345-12.619 4.246 7.863 5.274 15.723 10.346 26.069 6.101z"/><path fill="#2A2A2A" d="M1705.236 961.413c10.14-3.211 20.899-3.621 31.245-5.897 7.964-1.759 16.24-2.587 24.313-3.932 3.932-.624 7.446-.313 10.449 2.791 8.482 9 18.002 16.966 25.659 26.899 3.517 4.551 6.103 8.9 5.379 14.897-.413 3.311.206 6.312 4.242 6.932-4.087 3.49-7.967 5.456-12.622 4.241-14.097-4.732-26.586-8.482-39.935-12.825-3.621-1.142-7.036-2.586-10.657-3.828-22.864-7.969-22.864-7.969-38.073-29.278zm-128.082 37.245c3.414-6.521-.207-10.036-4.862-13.557-13.243-10.239-26.486-20.585-39.521-31.141-3.415-2.793-6.621-2.483-10.554-1.449-17.484 4.863-35.28 8.794-52.557 14.28-18.934 6.001-39.807 12.286-57.912 20.563-.623 13.344 7.63 23.094 14.148 33.753 1.863 1.446 3.517 3.308 5.69 4.342 15.208 7.139 30.521 14.174 45.729 21.209 6.414-2.479 12.933-4.655 19.14-7.446 18-8.383 37.005-14.309 55.35-21.833 9.13-3.743 16.941-8.171 27.003-12.415-2.586-1.757-2.793-4.136-1.654-6.306z"/><path fill="#86877F" d="M1590.808 1000.621c8.072-10.553 16.242-21.102 24.208-31.762 4.139-5.483 8.277-10.863 13.861-15.001 2.383-1.755 3.828-3.724 3.417-6.828-1.758-11.794-2.899-23.692-8.276-34.658 12.002-.104 23.999 0 36.004-.311 5.277-.107 7.242 2.069 7.652 7.135.831 11.277 1.967 22.558 3.211 33.831.311 2.897.104 5.28-2.176 7.449-16.656 16.864-34.969 31.969-52.35 48.005-1.631 1.129-3.519 1.626-6.414 3.104-9.927 2.592-13.964-5.274-19.137-10.964zm-150.427-79.871c19.451-1.655 38.901-2.172 58.455-2.896 4.346-.207 5.046.235 13.036-.103 18.984-.298 31.141-.104 47.048-1.915 15.625-1.347 30.158-.129 45.78-.647 4.345-.207 16.311 1.8 20.448-.37-.996-2.178-.757-1.767-.757-2.452-3.725.103-38.752-.409-42.477-.409-61.146 0-122.288-.105-183.435-.105-3.516 0-6.93.31-12.519.622 5.896 3.209 9.724 5.485 13.656 7.447 2.276 1.142 1.241 1.242 1.035 2.794 13.346-2.896 25.711-1.6 39.73-1.966zm423.768 8.381c.311-6.622-3.415-12.005-6.725-16.968-2.898-4.345-8.277-1.962-12.52-1.862-14.07.207-28.245.827-42.314 1.241-28.555.928-57.213-.106-85.664 1.862-4.552.311-8.898.62-11.794 4.863 18.622-.414 37.245-3.21 55.971-1.449 13.528 1.086 22.581.828 36.834.107 11.616-1.36 22.556 0 33.831-.724 11.484-.828 12.933.517 15.206 11.38.518 2.379.623 4.759.932 7.135h14.484c1.655-1.447 1.655-3.516 1.759-5.585z"/><path fill="#F7F7F7" d="M1411.748 987.352c2.791 12.005 11.354 21.752 14.042 33.753-.621 1.659-1.035 5.28-3.415 1.866-2.691-3.935-4.031-8.69-5.896-13.139-5.585-13.76-12.31-26.899-19.035-40.039-2.174-4.138-4.646-6.567.111-9.361 6.107 8.378 8.707 18.23 14.193 26.92z"/><path id="cl1" fill="#009688" d="M1767.703 919.957a1.049 1.049 0 0 0-.803.011l-28.932 12.444a1.054 1.054 0 0 0-.581.625c-.096.282-.065.592.081.851 4.159 7.399 10.841 12.955 18.813 15.646 7.98 2.696 16.679 2.328 24.5-1.036a34.303 34.303 0 0 0 16.719-15.417 1.05 1.05 0 0 0-.54-1.466l-29.257-11.658zm-239.418-1.846a1.19 1.19 0 0 0-.917.015l-33.081 14.228a1.197 1.197 0 0 0-.572 1.687c4.757 8.458 12.395 14.811 21.509 17.889 9.124 3.082 19.07 2.661 28.013-1.186a39.217 39.217 0 0 0 19.116-17.628c.158-.302.185-.656.065-.974a1.192 1.192 0 0 0-.684-.701l-33.449-13.33z"/></svg>