<svg xmlns="http://www.w3.org/2000/svg" id="eye" viewBox="0 0 3000 3000"><path fill="#C7C8BC" d="M1396.159 884.424c-2.38-5.459-7.967-7.313-12.313-10.504-3.105-2.267-6.521-3.917-6.521-8.447 7.969-5.974 16.973-10.408 25.872-14.731 30.218-14.733 61.159-27.809 92.206-40.688 9.519-3.916 19.041-7.933 28.252-12.357 9.002-4.327 18.419-4.841 28.146-4.227 1.142.107 2.276 1.339 3.416 1.962-3.727-.311-6.729.307-7.969 4.427-.828 2.883-2.172 5.769-2.792 8.654-1.239 5.664-4.242 9.579-9.935 11.331-2.382 4.326-6.936 5.458-11.073 6.901-42.118 14.318-82.477 32.344-120.459 55.521-2.171 1.333-4.241 2.569-6.83 2.158zm138.362 179.742c11.796-5.559 24.112-10.193 35.081-17.097 24.424-15.14 48.945-30.283 71.919-47.589 8.692-6.591 18.419-11.846 25.559-20.496-2.69-1.753-5.69-1.959-8.797-2.575-8.69-1.855-17.8-1.234-26.388-3.812-.518 0-.932 0-1.449.103a8.851 8.851 0 0 0-2.584 1.341c-10.146 6.696-17.698 16.071-26.496 24.208-9.002 8.339-16.35 18.434-27.421 24.614-16.766 9.789-32.287 22.045-52.053 26.166 1.655 2.986 6.313.515 7.553 3.811 0 5.042-5.279 7.52-5.173 12.36 3.523-.004 7.041.408 10.249-1.034zm269.14-33.521c3.615.929 6.715-.926 10.023-1.753 14.67-3.615 25.001-17.549 23.662-32.406-1.862-21.675 2.992-42.007 11.672-61.824 5.787-13.309 12.607-26.832 10.54-42.208-7.338 1.237-13.227 4.131-14.052 12.588-2.272 4.644-4.441 9.288-6.925 13.829-11.469 20.642-15.811 42.933-15.811 66.256 0 6.399 1.138 13.523-2.172 19.196-4.958 8.568-9.713 17.443-17.153 24.357.113.726.216 1.35.216 1.965zm-10.128-222.718c-7.438-.412-14.053 2.167-20.563 5.263-16.431 7.845-30.277 19.714-45.572 29.311-12.604 7.843-18.286 19.609-20.353 33.645 12.087-10.01 24.693-19.402 38.025-27.76 13.017-8.154 25.729-16.927 40.401-21.983 1.862-3.51 3.824-7.02 5.476-10.631 1.45-3.2 3.205-5.88 7.132-5.987-1.136-1.34-2.788-1.753-4.546-1.858z"/><path fill="#86877F" d="M1555.218 795.322c9.624 4.121 18.315 9.684 26.285 16.172 25.457 20.395 52.882 38.523 76.474 61.289 4.139 4.018 6.73 7.931 7.556 13.906 3.519 25.855 5.278 51.812 5.38 77.976 0 4.943.829 10.403-3.829 14.316-12.106.311-24.218.205-35.391-5.561-3.31-4.12-2.69-9.065-2.69-13.804-.205-16.067.312-32.034-1.862-48.103-2.069-15.45-7.657-28.739-18.731-39.971-13.452-13.699-28.563-25.543-43.051-38.11-9.105-7.931-20.179-9.373-30.837-12.877 3.104-7.727 8.276-14.422 11.071-22.455 1.45-3.702 5.485-5.043 9.625-2.778zm299.28 75.355c-7.645-16.822-19.736-30.549-32.138-43.862-6.818-7.326-14.467-13.726-24.177-17.132-8.679 1.135-11.677 4.954-12.609 16.616 5.687 1.341 11.678 1.753 16.33 5.778 11.781 10.113 23.143 20.847 30.275 34.778 6.2 11.969 14.155 23.634 13.437 38.186 2.169-3.613 3.924-7.637 8.884-8.256 2.688-.311 3.411-2.991 5.168-4.333.307-7.737-2.072-14.859-5.17-21.775z"/><path fill="#E7E6E2" d="M1524.378 1064.992c-7.76-2.676-16.039-3.296-24.007-5.045-17.282-3.811-33.013-11.331-49.26-17.719-14.694-5.769-28.458-13.392-41.911-21.734-3.622-2.265-5.9-5.044-7.657-9.064-5.174-11.127-10.763-22.145-16.972-32.652-6.417-10.922-9.934-23.279-16.558-34.094-2.587-4.226.726-9.992 1.449-14.834 2.899-18.849 5.901-37.699 5.692-56.859 0-2.674-.622-5.56 2.174-7.517 6.313 6.901 17.076 9.064 20.494 19.056.515 4.328-1.036 8.344-1.76 12.463-5.172 21.221-5.276 41.719 4.556 62.114 6.415 13.595 11.277 27.915 15.935 42.336 2.071 6.386 6.417 10.095 12.106 13.184 29.39 15.45 60.228 26.782 93.137 32.242 12.519 4.323 13.035 7.826 2.582 18.123z"/><path fill="#2A2A2A" d="M1803.661 1030.645c-8.06 4.75-16.326 3.613-24.491.31-17.874-7.018-33.064-18.062-45.98-32.098-2.376-2.475-5.169-4.643-7.34-7.222-8.367-10.013-20.869-16.617-22.832-31.79-1.656-13.21-5.063-26.008-3.098-39.734 1.447-9.701.828-19.816 2.999-29.621.929-4.231.826-8.875 3.923-12.488 10.954-1.544 21.704-3.717 32.032-7.637 14.054-5.264 26.149-3.405 36.581 7.74 4.549 4.954 11.158 8.257 12.707 15.688 13.05 13.171 19.672 26.156 15.913 48.611.93 14.654-1.653 29.207-1.032 43.864.621 13.622-.412 27.35 2.064 40.872-.001 1.547-.517 2.581-1.446 3.505zm-250.617-138.702c-4.244.205-7.864-.927-11.487-3.5-7.142-5.357-14.799-9.891-21.837-15.348-5.069-3.917-10.554-4.84-16.453-3.4-28.873 7.004-58.055 13.185-86.721 21.014-7.553 2.058-14.694 5.767-22.871 5.357-3.519 9.064-3.416 18.745-4.14 28.222-.724 8.756.828 16.893 4.242 25.031 7.452 17.716 14.282 35.64 20.077 53.973 1.656 5.357 4.657 8.548 9.417 11.332 15.833 9.27 33.008 15.345 49.776 22.352 15.833 6.591 32.287 9.371 48.948 11.639 6.002-.722 12.105.619 18.007-2.884 12.104-7.108 24.423-13.906 35.807-22.043-2.897-.309-4.243-1.44-2.897-4.74 3.829-8.652 7.451-17.509 11.072-26.265 1.967-4.637 4.762-9.271 3.935-14.526-1.762-11.02-3.935-21.94-6.004-32.856-.667-16.049-7.678-38.207-28.871-53.358z"/><path d="M1786.495 895.584c-6.719-8.772-14.454-16.44-22.72-23.565-4.444-3.816-9.817-2.474-14.675-1.233-10.642 2.681-21.078 5.567-31.72 8.46-3.617.931-7.337 2.478-10.438-1.134 0-.62 0-1.341.104-1.962 2.066-3.096 3.823-6.505 6.923-8.877 19.737-15.479 40.815-28.999 63.239-40.248 2.791-1.341 5.682-2.58 8.783-2.682 9.402.411 16.843 4.745 23.66 11.145 16.535 15.275 28.52 33.334 36.271 54.39 1.964 5.367 2.688 10.628 1.548 16.204-.828 3.3-2.273 6.501-4.03 9.391-13.64 23.532-17.979 49.126-17.877 75.856.106 16.719-8.159 28.896-21.904 37.568-2.792-5.991-3.722-12.282-3.613-18.783.104-15.689.104-31.375.104-47.065 0-7.535 2.996-14.653 2.066-22.293-.103-3.612.398-8.3-.313-11.5-1.903-8.567-4.328-14.54-9.002-23.803-1.541-3.058-4.754-6.36-6.406-9.869zM1631.9 972.698c-.104-20.602.622-40.997-1.965-61.495-2.069-15.962-7.556-29.458-18.837-40.888-14.177-14.424-29.595-27.401-45.534-39.972-9.313-7.314-19.245-11.64-31.252-10.506-20.28 7.313-40.979 13.598-60.535 22.97-11.49 5.458-22.456 11.74-34.464 16.173-15.936 5.973-28.389 14.498-41.946 24.384-2.036 3.277-3.117 7.265-3.69 12.799 4.45 3.811 9.109 1.441 13.658.101 29.595-8.651 59.919-14.626 89.827-22.248 10.241-2.574 18.42-.618 26.804 5.666 8.59 6.387 17.03 10.922 27.48 17.934 4.697 4.091 8.319 8.202 9.414 10.324 1.256 2.437 1.256 2.437 6.948 12.532 5.796 10.3 4.804 8.18 7.531 15.322 1.494 3.246 3.312 6.687 4.924 10.327 0 5.768 1.034 11.536 2.38 17.099 3.001 12.361 2.481 24.001-4.036 35.434-3.312 5.868-5.691 12.358-7.45 18.954-.932 3.5-1.866 7.93 4.653 6.281 5.069-1.754 8.277-5.872 11.797-9.476 13.657-13.905 27.838-27.089 42.531-39.761.418-.819.935-1.54 1.762-1.954z"/><path id="cl1" fill="#009688" d="M1746.395 937.203c0-15.958 13.509-28.759 29.712-27.596 13.567.973 24.54 11.911 25.552 25.472.723 9.698-3.561 18.431-10.528 23.897a5.843 5.843 0 0 0-2.231 4.598v6.867a5.866 5.866 0 0 1-5.866 5.866h-17.93a5.865 5.865 0 0 1-5.867-5.866v-6.867a5.84 5.84 0 0 0-2.229-4.596c-6.461-5.064-10.613-12.933-10.613-21.775zm-236.78 28.648a6.326 6.326 0 0 1 2.414 4.978v7.436a6.354 6.354 0 0 0 6.354 6.354h19.416a6.353 6.353 0 0 0 6.353-6.354v-7.436c0-1.945.889-3.78 2.418-4.98 7.546-5.92 12.185-15.376 11.403-25.88-1.098-14.688-12.979-26.533-27.672-27.586-17.548-1.259-32.177 12.604-32.177 29.886.002 9.575 4.499 18.097 11.491 23.582z"/></svg>