<svg xmlns="http://www.w3.org/2000/svg" id="eyes" viewBox="0 0 3000 3000"><path fill="#C7C8BC" d="M1398.254 889.315c-.726-5.298-4.675-8.103-8.622-11.012-3.533-2.597-8.107-3.947-10.389-8.207.204-.312.412-.623.623-.831 28.155-14.337 55.061-30.959 84.566-42.595 8.311-3.22 16.414-7.064 24.618-10.492 4.782-1.975 9.457-4.264 14.751-4.363-1.146 8.519-3.01 16.83-6.233 24.83-21.403 8.623-42.182 18.591-63.266 28.05-12.467 5.605-25.453 11.22-33.245 23.687-.725.933-1.66 1.141-2.803.933zm106.38 137.445c32.101-11.22 62.853-25.972 94.227-38.958 2.284-.931 4.78-1.241 4.882-4.467-3.223-5.194-7.379-9.454-12.467-12.778-5.089-1.974-9.145 1.143-13.506 2.701-20.053 11.116-42.7 15.901-63.479 25.35-13.711 6.233-28.05 11.116-41.556 17.973 5.088 4.363 5.195 12.056 10.496 16.211 8.212 1.864 14.341-3.539 21.403-6.032zm308.954-202.376c-12.77-3.948-24.083.728-35.397 6.025-3.737 1.766-7.577 3.225-11.417 4.784-16.92 6.961-33.216 14.955-48.892 24.414-6.227 3.844-10.481 8.722-10.378 16.514 22.421-9.033 44.945-17.661 67.055-27.323 11.212-4.883 22.005-9.558 34.565-8.414 4.671-4.364 7.682-9.351 4.464-16zm17.231 156.145c4.672-2.078 6.953-3.527 8.099-8.722 4.151-19.531 9.965-38.544 19.929-56.1 2.182-3.844 2.906-8.417 4.359-12.572-6.126-4.155-11.418-2.393-16.298 2.282-9.861 18.389-19.826 36.777-21.384 58.178-.205 2.805-1.557 4.47-4.049 5.303-3.84 1.243-7.577 3.22-11.833 3.22-2.076 1.247-4.777.106-6.749 1.665-.724.106-1.352.106-2.076.205-3.737 3.117-8.3 1.873-12.56 2.393 13.706 7.369 27.304 10.901 42.562 4.148z"/><path fill="#E7E6E2" d="M1483.236 1032.889c-21.61-3.013-41.242-12.883-62.228-18.181-6.027-1.558-8.831-5.091-11.014-10.805-9.143-24.518-17.245-49.549-33.557-70.645-4.468-5.714-3.949-12.57-3.117-18.902 1.765-13.614 4.362-27.12 4.362-40.933 0-.831 1.039-2.488 1.559-3.324 9.457 3.954 18.805 8.939 21.297 20.466.206 2.706.519 5.61-.626 8.103-4.675 10.389-2.185 20.674-.52 31.063-1.665 3.528-2.185 6.856-.313 10.7 7.585 15.791 15.377 31.478 21.816 47.686 1.039 2.597 2.802 3.739 5.301 3.947 16.103 6.961 32.001 14.337 47.585 22.544 5.4 4.879 8.517 11.009 9.455 18.281zm218.044-121.238c-1.245-4.259.622-8.415 0-12.674-3.634 2.706-2.077 8.83-6.853 10.805-1.764-.728-1.663-2.286-1.451-3.428 1.243-6.649.725-12.155-7.164-14.233-1.038-.312-2.075-1.87-2.488-3.013-.727-2.078 1.661-6.752-3.223-5.396-3.113.831-1.45 4.778-1.145 7.375.106 1.039 1.039 1.974.935 2.909-.52 7.48 6.228 13.095 4.876 20.778-.413 2.805-1.557 6.96 2.075 8.311 4.778 1.875 8.203 8.311 14.639 4.883 0-3.325-.104-6.644-.104-9.973 1.148-2.082 1.355-4.267-.097-6.344zm-5.608 68.878c.314 1.247 1.353 2.286 2.281 3.325.934.935 1.973 1.974 3.529 1.35 1.557-.623 1.661-1.969 1.762-3.318.106-2.078.314-4.364-1.242-5.822-4.568-4.259-6.336-10.281-11.007-14.856 1.565 6.439 3.017 12.984 4.677 19.321z"/><path fill="#F8F7F7" d="M1398.148 931.078c11.428 19.739 18.907 41.14 26.806 62.333-3.324 3.324-5.194.727-5.92-1.975-3.324-13.188-11.534-24.305-15.998-36.984-1.972-5.817-5.401-11.22-8.105-16.726-1.663-3.531-1.352-6.025 3.217-6.648z"/><path d="M1707.403 878.095c-.109-.623 0-1.247.104-1.87 2.179-4.467 6.644-5.714 10.69-7.376 22.837-9.247 45.983-18.077 68.508-28.159 7.162-3.22 14.738-2.805 22.212-2.389 5.914.831 9.654 4.883 13.286 8.934 11.936 13.095 19.41 28.886 25.639 45.3 1.558 4.259 1.558 8.722.728 13.194-8.204 18.901-18.164 37.192-20.867 58.281-1.145 8.727-10.379 8.83-17.334 10.389-2.803.104-5.262.77-9.362 1.108-1.145-.318-.918-1.731-1.537-2.77-2.284-6.441-1.557-12.882-.52-19.427 2.182-13.095 2.8-26.6-1.452-38.855-5.605-15.791-17.335-27.941-32.279-35.842-5.816-3.008-12.874.312-19.31 1.039-9.861 1.147-19.615 3.948-29.476 4.883-3.943.312-9.77-2.83-9.03-6.44zm-115.188 90.801c12.359-15.172 21.709-32.933 37.085-45.711 1.452-1.247 1.874-2.806 1.765-4.572-.412-12.877-2.39-25.764-8.417-36.984-4.881-9.142-15.896-11.536-25.14-15.272a58.072 58.072 0 0 0-3.842-1.455c-20.67-6.753-41.242-13.609-62.02-20.051-11.115-3.428-22.232-7.48-34.18-7.375-10.908.727-20.671 4.778-30.127 9.761-10.389 5.403-20.882 10.389-31.686 14.752-11.321 4.467-21.088 11.428-31.271 17.869-3.741 2.389-4.881 5.506-4.675 9.558-1.872 3.948.104 5.086 3.636 4.778 3.117-.312 5.819-1.969 8.726-3.22 24.933-10.597 50.592-18.7 77.083-24.311 12.467-2.597 24-.93 34.597 6.545 11.533 8.208 23.581 15.9 35.634 23.271 14.752 9.039 18.699 21.192 15.478 36.984-2.393 11.947-.52 24.211-1.765 36.258-.414 3.947.726 7.165 5.92 5.402 3.95-1.455 7.997-3.014 11.947-4.473.525-.613.836-1.234 1.252-1.754z"/><path fill="#86877F" d="M1503.805 812.645c9.557-.52 18.492 2.701 27.217 5.402 29.09 8.934 58.492 16.623 87.268 26.803 7.586 2.701 14.751 5.714 20.674 11.324 5.298 4.986 10.389 10.28 16.307 14.545 8.418 5.922 11.842 13.816 12.361 23.686.52 9.662 2.598 19.22 2.598 28.881 0 3.739-.934 6.233-3.637 9.038-15.17 15.687-32.521 29.089-47.994 44.361-4.44 2.934-9.961 6.83-16.31 9.617-6.233-3.013-9.144-8.683-11.323-15.643 7.999-15.064 17.555-30.127 29.401-42.282 6.547-6.649 7.897-13.614 7.066-22.544-2.077-20.466-12.986-32.206-32.413-37.816-31.479-8.934-61.707-22.439-94.123-28.569-1.353-.312-2.598-.931-3.636-1.969-.728-8.833 1.35-17.251 6.544-24.834zm357.012 70.125c-8.511-23.271-20.361-38.53-38.419-55.152-2.357-.996-4.312-2.467-8.81-3.233-2.22 5.117-3.187 8.523-4.023 14.029 8.932 2.706 12.954 12.463 17.624 19.424 9.654 14.441 20.975 28.967 21.494 47.252 5.501-.52 8.918-2.58 14.523-2.061 1.349-6.961-.001-13.608-2.389-20.259z"/><path fill="#2A2A2A" d="M1707.403 878.095c.93 5.714 5.392 4.675 8.82 4.052 8.41-1.559 16.918-2.909 25.223-4.675 6.433-1.35 12.973-.728 19.307-3.013 2.907-1.039 5.915.208 8.616 2.181 7.267 4.883 12.974 11.226 18.682 17.661.933 1.039 1.353 2.597 2.392 3.325 12.142 8.519 11.521 21.609 12.559 34.18 1.146 14.129-3.027 29.573-1.989 43.702-1.484.88-8.009 1.603-12.542.866-20.034-6.959-40.065-14.025-60.308-20.673-4.672-1.558-7.992-3.636-9.76-8.208-2.692-4.364-13.185-25.579-15.065-29.491-.743-1.689-2.685-6.247-3.204-7.285-1.037-4.052 0-7.792 1.244-11.537 2.183-3.22 1.452-7.164 2.489-10.7.94-3.633.42-7.684 3.536-10.385zm-308.876 14.673c-1.368 4.487-1.181 4.818-2.662 9.532-3.432 8.104-3.117 16 .724 23.895.726 1.559.933 3.226 1.453 4.883 3.43 14.648 10.802 27.842 16.516 41.659 2.91 7.07 3.743 15.382 10.285 20.675 15.895 7.792 31.791 15.479 47.682 23.271 7.898.207 14.75-3.117 21.61-6.342 19.112-8.935 38.752-16.415 58.697-23.167 9.145-3.117 17.869-7.064 26.18-12.05-1.559-.52-4.155-.728-3.636-2.806 2.802-12.882-.207-26.08 2.597-39.166 3.43-16.103-.106-29.712-16.209-38.542-12.674-6.961-24.414-15.583-36.255-23.791-10.495-7.375-21.923-9.973-34.39-7.683-13.918 2.597-27.531 6.437-40.93 10.8-15.378 4.986-30.962 9.766-45.398 17.35-2.598 1.351-4.468 1.662-5.089-1.975-.493 1.885-.493 1.885-1.175 3.457z"/><path id="cl1" fill="#B5B5CA" d="M1529.199 921.613c-2.058-16.716-19.894-26.872-35.316-20.096-11.06 5.264-16.609 20.904-7.9 30.887 4.914 5.571 13.997 8.03 20.49 2.677 3.73-4.036 6.142-10.835 1.864-13.886-2.235-2.322-6.077-4.451-7.522-.372-1.405 1.798 1.754 3.685.108 6.164-1.407 1.801-5.046 1.273-6.605-.811-3.551-5.09-1.378-11.211 3.468-14.085 6.453-3.072 13.251-.655 17.485 4.674 5.31 8.776 2.611 18.541-5.729 24.768-5.09 3.553-11.255 3.662-16.938 2.413-11.118-3.183-17.986-14.042-16.844-25.889 2.589-15.926 17.857-26.588 33.545-23.314 14.085 3.467 25.028 15.774 25.203 30.385-.462 12.087-5.485 24.086-16.52 30.267-.904 1.204-1.624 2.181-2.282 3.061-5.623 8.051-16.12 11.706-25.82 8.26a22.286 22.286 0 0 1-12.717-11.466 22.39 22.39 0 0 1-1.781-5.434c9.716 4.482 19.192 10.146 30.446 6.484 13.779-4.298 23.124-15.531 23.8-29.134a28.51 28.51 0 0 0-.435-5.553zm268.211-9.92c-.611 12.307-9.064 22.466-21.528 26.354-10.181 3.313-18.751-1.81-27.54-5.865.326 1.704.869 3.36 1.612 4.916a20.157 20.157 0 0 0 11.502 10.371c8.776 3.117 18.271-.188 23.355-7.471.595-.796 1.246-1.681 2.063-2.77 9.98-5.59 14.524-16.444 14.944-27.377-.157-13.216-10.059-24.348-22.797-27.484-14.19-2.961-28 6.684-30.342 21.089-1.035 10.716 5.177 20.539 15.235 23.417 5.14 1.129 10.716 1.032 15.318-2.182 7.544-5.634 9.984-14.465 5.182-22.403-3.829-4.82-9.979-7.007-15.814-4.228-4.385 2.598-6.35 8.135-3.139 12.74 1.409 1.884 4.7 2.362 5.975.734 1.489-2.242-1.368-3.949-.1-5.576 1.311-3.69 4.784-1.764 6.806.336 3.871 2.76 1.689 8.911-1.685 12.561-5.874 4.844-14.091 2.618-18.535-2.421-7.877-9.029-2.855-23.177 7.146-27.938 13.951-6.13 30.083 3.057 31.945 18.178.3 1.663.43 3.343.397 5.019z"/></svg>