<svg xmlns="http://www.w3.org/2000/svg" id="图层_1" viewBox="0 0 3000 3000"><path fill="#C7C8BC" d="M1401.274 958.895c6.73-11.258 15.332-21.114 23.308-31.4 8.703-11.369 20.202-19.381 31.597-27.396 5.593-3.897 12.119-4.76 18.541-6.063 15.127-3.139 30.251-6.172 45.063-10.611 13.363-4.006 25.275-10.83 37.087-18.298 15.647-9.742 29.211-22.304 43.611-33.891 5.804 11.695 10.565 23.714 8.186 37.463-17.196 19.924-39.266 31.293-63.399 38.548-15.852 4.87-32.009 8.985-48.48 10.934-24.759 3.034-44.028 15.377-59.774 34.758-8.182 8.449-12.639 20.032-21.232 28.155-7.776-5.307-14.819-11.155-14.508-22.199zm118.094 118.997c1.14-1.299 3.003-.866 4.25-1.948 23.409-5.63 44.749-16.566 64.64-30.209 21.857-14.944 41.436-33.242 62.984-48.725 5.491-3.897 11.912-7.467 15.229-14.182-.93-1.624-2.486-2.164-4.249-2.491-9.635-1.406-19.269-2.816-29.004-4.22-.518 0-.932.107-1.451.107-.931.326-1.758.758-2.591 1.3-16.779 14.078-32.216 29.672-47.548 45.369-16.886 12.668-34.287 24.256-54.076 31.404 1.66 1.949 4.458 3.033 1.142 6.498-4.662 4.872-9.529 9.959-11.395 17a4.694 4.694 0 0 0 2.069.097zm304.172-121.688c-1.149 9.123-3.239 18.139-2.614 27.571.73 11.088-1.149 21.766-9.096 30.68-4.495 5.079-8.253 10.987-12.331 16.479 2.614.206 4.702-1.244 6.793-2.383 17.456-9.743 30.729-21.874 28.851-44.36-1.36-16.897 4.598-32.545 11.08-47.884 6.063-14.307 13.065-28.295 11.496-44.47-1.36 1.452-2.51 3.737-4.178 4.256-5.331 1.756-8.049 5.803-10.35 10.364-8.362 15.96-17.351 31.61-19.651 49.747zm-83.933-166.768c-18.086 14.926-24.981 35.243-27.597 57.525 3.658-8.808 8.886-16.895 12.964-25.391 5.016-10.571 13.062-16.479 24.249-18.762 2.822-5.698 2.717-12.228 4.496-18.243-5.751-1.445-10.139 1.659-14.112 4.871z"/><path fill="#86877F" d="M1606.489 867.942c1.35-5.845-.207-11.258-1.658-16.781-1.761-6.604-4.041-12.993-4.453-19.922 6.212-1.732 11.601 1.19 16.779 4.003 14.091 7.579 27.865 15.373 37.914 29.124 5.283 7.256 7.667 15.27 8.91 23.716 4.457 28.151 4.869 56.628 6.527 84.997.205 3.682 1.449 8.333-3.936 9.634-11.501-1.19-23.412.215-33.774-6.819-3.002-4.872-2.383-10.285-2.274-15.592.31-20.029-1.038-39.955-3.314-59.877-1.763-14.94-6.424-26.635-20.721-32.483zm251.232 24.005c-1.152-16.9-9.932-30.269-19.758-43.432-12.336-16.476-27.283-30.266-43.271-42.702-12.022-9.432-25.193-18.347-40.973-21.248-5.126 5.183-6.065 11.4-4.499 18.244 13.38 1.451 23.521 9.43 33.867 16.896 24.773 17.93 45.573 38.866 56.761 68.094 2.504 6.425 3.76 12.331 3.343 18.861 6.69-3.212 12.02-7.566 14.53-14.713z"/><path fill="#E7E6E2" d="M1401.274 958.895c2.9 8.661 9.531 14.619 14.504 21.768.623.756.931 1.73 1.036 2.705-.311 4.979-1.244 9.961 1.553 14.506 3.313 12.781 11.498 20.146 22.896 25.56 27.553 13.21 55.422 24.794 85.669 28.91 6.215 2.489 6.426 6.28 2.484 11.365-3.832 4.875-7.146 10.29-12.014 14.296-8.596-.434-16.16-4.659-24.033-7.366-12.017-4.221-24.033-8.878-35.428-14.508-16.471-8.12-32.531-16.997-48.586-26.095-4.249-2.382-6.528-7.253-7.873-12.129-2.179-8.23-3.835-16.782-6.426-24.904-4.141-12.777-1.655-23.93 6.218-34.108z"/><path d="M1780.79 1030.725c.837-1.145 1.463-2.49 2.507-3.317 11.708-9.741 17.561-21.87 19.546-37.205 2.719-21.666 3.868-43.222 2.613-64.779-.521-9.534-5.537-18.243-10.762-26.535-7.942-12.747-18.292-23.32-29.688-32.959-13.481-11.403-28.636-9.948-44.314-5.39-3.451 1.038-7.425 5.183-11.291.208-.841-4.87 2.192-9.016 2.716-13.681 2.511-12.748 8.573-24.045 15.783-34.512 4.917-7.049 12.754-10.576 21.322-11.713 7.528-.103 14.322 2.693 20.488 6.632 31.253 20.107 58.536 43.634 72.646 79.29 2.719 6.942 4.601 13.577 3.031 20.936-6.168 16.268-17.248 30.677-18.922 48.816-.836 9.539-3.866 18.97-3.135 28.606 1.568 20.318-8.154 34.72-23.833 46.123-6.269 1.036-12.542 1.036-18.707-.52zm-149.231-52.23a9.735 9.735 0 0 1 1.866-2.273c.62-22.63 1.035-45.259-2.387-67.675-1.45-9.528-1.241-19.381-5.282-28.369-4.559-9.963-9.013-12.884-19.164-12.129-19.889 19.813-43.508 32.486-70.13 38.87-17.094 4.115-34.29 7.579-51.487 10.939-21.545 4.22-37.5 16.781-50.242 34.757 5.804 2.599 10.359-1.625 15.333-3.139 32.944-10.283 65.784-21.004 101.001-18.945 9.947.541 18.957 3.248 27.769 7.363 6.94 3.136 11.911 8.548 14.911 15.807 6.525 15.269 6.629 30.752.413 46.019-2.59 6.281-5.388 12.45-9.322 18.081-1.244 1.731-3.526 4.004-.625 6.497 15.855-15.16 30.666-31.511 47.346-45.803z"/><path fill="#2A2A2A" d="M1780.79 1030.725c-13.482-3.008-25.19-9.54-35.331-18.656-8.676-7.878-17.562-15.65-25.505-24.358-15.781-17.203-24.563-37.104-21.948-61.044 1.777-16.48 3.449-32.963 7.942-48.921 1.569-5.599.628-11.713 3.554-17.102.729-.107 1.361-.206 1.986-.414 29.687-12.542 53.099-4.041 72.852 19.898 15.262 18.448 25.924 37.623 24.775 62.809-.84 18.656-1.672 37.206-4.81 55.556-2.507 14.304-9.925 25.602-23.515 32.232zm-182.898-32.849c9.634-32.483.104-66.805-43.612-69.946-41.852-3.033-81.009 9.528-119.544 24.687-7.563 8.333-14.609 17.107-18.852 27.935 0 .758-.103 1.409-.103 2.165-1.144 5.09-1.245 10.072 0 15.158 1.447 4.007 3.002 8.014 4.248 12.131 1.036 3.247 2.487 5.735 5.487 7.469 32.011 18.624 65.16 33.891 102.248 37.032 3.729-.975 7.666.866 11.189-.975 15.746-8.661 31.39-17.434 45.374-29.127 4.139-9.096 10.664-16.782 13.565-26.529z"/><path id="cl1" fill="#EB6F24" d="M1508.853 960.051c.503-8.997 3.979-16.126 9.39-21.94l9.617 9.548c-2.965 3.332-4.917 7.251-5.377 12.392h-13.63zm18.317 15.144c-2.744-3.406-4.481-7.435-4.751-12.575h-13.604c.301 8.997 3.539 16.167 8.715 22.073l9.64-9.498zm2.789-30.028c3.381-2.778 8.047-4.551 11.902-4.869v-13.613c-7.711.35-15.826 3.634-21.708 8.85l9.806 9.632zm15.758-18.464v13.63c5.141.412 9.07 2.323 12.43 5.252l9.563-9.622c-5.844-5.376-12.997-8.808-21.993-9.26zm11.726 51.946c-3.484 2.867-6.585 4.666-13.01 4.898v13.594c8.996-.254 16.494-3.556 22.475-8.862l-9.465-9.63zm-15.581 4.799c-5.141-.505-8.979-2.496-12.284-5.494l-9.569 9.609c5.782 5.449 12.856 8.966 21.854 9.52v-13.635zm18.785-35.731c2.899 3.462 4.74 7.192 5.021 12.334h13.602c-.305-7.713-3.651-16.159-8.992-22.109l-9.631 9.775zm4.958 16.189c-.46 5.142-2.413 8.991-5.377 12.323l9.616 9.585c5.409-5.815 8.887-12.911 9.39-21.907l-13.629-.001zm172.56-39.038c.458-5.142 2.412-9.06 5.378-12.391l-9.619-9.549c-5.409 5.814-8.885 12.942-9.389 21.94h13.63zm4.688 15.145c-2.744-3.405-4.481-7.435-4.752-12.574h-13.602c.3 8.996 3.538 16.166 8.714 22.073l9.64-9.499zm2.789-30.026c3.383-2.779 8.048-4.552 11.903-4.869v-13.613c-7.711.351-15.825 3.633-21.708 8.85l9.805 9.632zm15.758-18.466v13.63c5.142.411 9.071 2.322 12.43 5.252l9.563-9.622c-5.844-5.374-12.995-8.809-21.993-9.26zm11.726 51.946c-3.483 2.866-6.584 4.666-13.009 4.898v13.594c8.994-.254 16.494-3.556 22.474-8.863l-9.465-9.629zm-15.581 4.799c-5.141-.505-8.979-2.496-12.285-5.494l-9.568 9.609c5.782 5.449 12.857 8.966 21.854 9.52v-13.635zm18.784-35.732c2.9 3.462 4.742 7.192 5.023 12.334h13.602c-.307-7.712-3.652-16.158-8.993-22.108l-9.632 9.774zm4.958 16.189c-.459 5.142-2.412 8.992-5.378 12.324l9.618 9.584c5.409-5.814 8.886-12.91 9.388-21.907l-13.628-.001z" opacity=".7"/></svg>