<svg xmlns="http://www.w3.org/2000/svg" id="eyes" viewBox="0 0 3000 3000"><path fill="#C7C8BC" d="M1398.291 889.108c-.727-5.306-4.682-8.114-8.635-11.027-3.538-2.601-8.12-3.953-10.404-8.22.203-.312.411-.624.624-.832 28.196-14.357 55.14-31.003 84.687-42.655 8.323-3.225 16.438-7.075 24.652-10.508 4.79-1.977 9.471-4.27 14.773-4.37-1.148 8.531-3.014 16.854-6.243 24.866-21.436 8.635-42.243 18.618-63.355 28.09-12.485 5.613-25.489 11.236-33.292 23.721-.726.935-1.663 1.144-2.807.935zm106.532 137.643c32.146-11.236 62.942-26.01 94.361-39.015 2.288-.932 4.787-1.241 4.889-4.474-3.229-5.202-7.39-9.467-12.484-12.796-5.096-1.978-9.158 1.144-13.524 2.704-20.082 11.132-42.764 15.925-63.571 25.386-13.73 6.242-28.09 11.132-41.615 17.999 5.095 4.37 5.202 12.073 10.512 16.235 8.223 1.868 14.36-3.542 21.432-6.039zm309.398-202.666c-12.788-3.953-24.119.729-35.448 6.034-3.743 1.769-7.589 3.23-11.434 4.791-16.944 6.971-33.264 14.977-48.962 24.449-6.236 3.85-10.497 8.734-10.394 16.537 22.454-9.044 45.011-17.687 67.151-27.362 11.228-4.89 22.037-9.572 34.615-8.427 4.679-4.37 7.695-9.364 4.472-16.022zm17.256 156.368c4.677-2.081 6.961-3.533 8.109-8.734 4.157-19.559 9.979-38.6 19.957-56.181 2.186-3.85 2.911-8.429 4.365-12.59-6.134-4.161-11.434-2.397-16.32 2.284-9.876 18.415-19.854 36.83-21.415 58.261-.206 2.809-1.559 4.478-4.054 5.311-3.846 1.244-7.589 3.225-11.852 3.225-2.078 1.249-4.785.107-6.758 1.668-.725.107-1.354.107-2.079.204-3.743 3.121-8.312 1.877-12.578 2.397 13.727 7.381 27.344 10.918 42.625 4.155z"/><path fill="#E7E6E2" d="M1483.394 1032.889c-21.641-3.017-41.301-12.901-62.317-18.207-6.036-1.561-8.843-5.098-11.029-10.82-9.156-24.553-17.27-49.619-33.605-70.746-4.474-5.722-3.954-12.588-3.121-18.928 1.768-13.634 4.369-27.159 4.369-40.991 0-.832 1.04-2.492 1.561-3.33 9.47 3.96 18.833 8.952 21.328 20.496.205 2.71.52 5.619-.628 8.115-4.682 10.404-2.188 20.704-.52 31.108-1.668 3.534-2.188 6.866-.315 10.716 7.598 15.814 15.4 31.524 21.848 47.754 1.04 2.601 2.806 3.745 5.31 3.953 16.125 6.971 32.048 14.357 47.654 22.576 5.405 4.883 8.526 11.021 9.465 18.304zm218.356-121.413c-1.246-4.265.623-8.427 0-12.692-3.639 2.709-2.079 8.843-6.861 10.82-1.767-.729-1.665-2.289-1.454-3.434 1.245-6.659.727-12.172-7.174-14.253-1.039-.312-2.079-1.873-2.492-3.018-.728-2.081 1.664-6.763-3.228-5.403-3.118.832-1.452 4.785-1.147 7.387.107 1.04 1.04 1.977.936 2.913-.521 7.491 6.236 13.113 4.882 20.808-.412 2.809-1.559 6.971 2.079 8.323 4.785 1.879 8.215 8.323 14.659 4.89 0-3.33-.104-6.654-.104-9.987 1.151-2.085 1.358-4.273-.096-6.354zm-5.615 68.977c.315 1.249 1.354 2.289 2.284 3.33.935.937 1.976 1.977 3.534 1.353 1.56-.624 1.664-1.972 1.764-3.323.107-2.081.315-4.37-1.244-5.831-4.574-4.265-6.346-10.295-11.023-14.877 1.568 6.448 3.023 13.003 4.685 19.348z"/><path fill="#F8F7F7" d="M1398.184 930.932c11.444 19.767 18.934 41.199 26.845 62.423-3.328 3.33-5.202.729-5.928-1.977-3.329-13.206-11.551-24.34-16.021-37.037-1.974-5.826-5.408-11.236-8.117-16.75-1.666-3.538-1.354-6.036 3.221-6.659z"/><path d="M1707.882 877.872c-.108-.624 0-1.249.104-1.873 2.183-4.474 6.654-5.722 10.707-7.386 22.869-9.26 46.049-18.103 68.605-28.199 7.173-3.225 14.76-2.81 22.244-2.393 5.921.832 9.668 4.89 13.305 8.946 11.951 13.114 19.438 28.929 25.676 45.366 1.56 4.265 1.56 8.734.729 13.213-8.216 18.928-18.19 37.246-20.897 58.365-1.146 8.74-10.394 8.843-17.36 10.404-2.806.104-5.268.771-9.376 1.109-1.146-.319-.919-1.733-1.538-2.774-2.286-6.451-1.559-12.901-.521-19.456 2.187-13.113 2.804-26.638-1.453-38.91-5.614-15.814-17.361-27.981-32.326-35.894-5.824-3.012-12.892.313-19.337 1.041-9.876 1.149-19.644 3.954-29.518 4.89-3.949.314-9.783-2.834-9.044-6.449zm-115.351 90.932c12.376-15.194 21.739-32.98 37.137-45.777 1.454-1.249 1.877-2.809 1.768-4.578-.413-12.896-2.394-25.801-8.431-37.037-4.887-9.155-15.919-11.553-25.175-15.293a57.828 57.828 0 0 0-3.848-1.457c-20.698-6.762-41.301-13.628-62.108-20.079-11.129-3.433-22.263-7.491-34.227-7.386-10.924.729-20.701 4.785-30.171 9.775-10.404 5.41-20.914 10.404-31.732 14.773-11.337 4.474-21.118 11.444-31.317 17.895-3.747 2.393-4.887 5.514-4.682 9.571-1.875 3.954.105 5.093 3.641 4.786 3.121-.312 5.828-1.972 8.738-3.225 24.969-10.612 50.664-18.727 77.193-24.345 12.485-2.602 24.036-.932 34.648 6.554 11.549 8.22 23.613 15.924 35.685 23.305 14.773 9.051 18.727 21.221 15.499 37.037-2.396 11.964-.521 24.247-1.766 36.31-.415 3.953.725 7.174 5.927 5.41 3.956-1.457 8.009-3.018 11.965-4.48.527-.617.839-1.239 1.256-1.759z"/><path fill="#86877F" d="M1503.993 812.328c9.569-.52 18.519 2.705 27.256 5.41 29.131 8.947 58.575 16.646 87.392 26.842 7.597 2.705 14.773 5.722 20.704 11.34 5.306 4.994 10.404 10.295 16.329 14.565 8.431 5.931 11.859 13.837 12.379 23.721.521 9.675 2.602 19.247 2.602 28.922 0 3.745-.936 6.243-3.642 9.052-15.193 15.709-32.569 29.131-48.063 44.424-4.445 2.938-9.976 6.84-16.332 9.631-6.243-3.018-9.158-8.696-11.339-15.666 8.01-15.086 17.579-30.171 29.443-42.343 6.557-6.659 7.908-13.634 7.076-22.577-2.08-20.496-13.005-32.251-32.46-37.87-31.523-8.947-61.794-22.472-94.258-28.611-1.354-.312-2.601-.932-3.642-1.972-.728-8.843 1.353-17.273 6.555-24.868zm357.524 70.226c-8.522-23.305-20.392-38.586-38.475-55.232-2.36-.997-4.316-2.471-8.821-3.238-2.224 5.124-3.19 8.535-4.029 14.049 8.945 2.71 12.974 12.48 17.65 19.451 9.668 14.462 21.004 29.009 21.523 47.32 5.509-.521 8.931-2.584 14.545-2.063 1.35-6.97-.002-13.626-2.393-20.287z"/><path fill="#2A2A2A" d="M1707.882 877.872c.932 5.722 5.399 4.682 8.832 4.058 8.424-1.561 16.943-2.913 25.259-4.682 6.441-1.353 12.99-.729 19.335-3.018 2.911-1.041 5.923.208 8.629 2.185 7.276 4.89 12.991 11.243 18.707 17.686.934 1.041 1.355 2.601 2.396 3.33 12.16 8.531 11.538 21.64 12.577 34.229 1.149 14.149-3.031 29.615-1.992 43.764-1.487.882-8.021 1.605-12.56.867-20.063-6.97-40.122-14.045-60.395-20.703-4.678-1.561-8.004-3.642-9.774-8.219-2.696-4.37-13.203-25.616-15.088-29.533-.743-1.691-2.688-6.255-3.208-7.296-1.039-4.058 0-7.803 1.245-11.553 2.187-3.225 1.455-7.174 2.493-10.716.945-3.636.425-7.694 3.544-10.399zm-309.318 14.695c-1.37 4.494-1.183 4.825-2.666 9.546-3.438 8.115-3.121 16.022.723 23.929.728 1.561.935 3.23 1.455 4.89 3.435 14.669 10.816 27.882 16.539 41.719 2.914 7.082 3.749 15.405 10.299 20.704 15.917 7.803 31.836 15.502 47.75 23.305 7.91.208 14.77-3.121 21.641-6.351 19.138-8.947 38.808-16.438 58.781-23.2 9.157-3.121 17.894-7.074 26.217-12.068-1.561-.52-4.161-.729-3.642-2.809 2.806-12.901-.207-26.118 2.602-39.223 3.434-16.126-.108-29.754-16.234-38.598-12.691-6.971-24.448-15.605-36.306-23.825-10.511-7.386-21.955-9.987-34.44-7.694-13.938 2.601-27.57 6.444-40.987 10.815-15.401 4.994-31.007 9.78-45.464 17.375-2.601 1.353-4.474 1.665-5.096-1.977-.489 1.887-.489 1.887-1.172 3.462z"/><path id="cl1" fill="#FFF" d="M1514.847 931.979l-4.21 34.394-4.211-34.394a10.41 10.41 0 0 1-5.272-5.275l-34.397-4.212 34.397-4.207a10.408 10.408 0 0 1 5.272-5.272l4.211-34.4 4.21 34.4a10.41 10.41 0 0 1 5.273 5.27l34.397 4.209-34.397 4.212a10.416 10.416 0 0 1-5.273 5.275zm267.624-14.019l30.148-4.211-30.148-4.209c-.916-2.344-2.568-4.229-4.623-5.271l-3.69-34.399-3.689 34.399c-2.055 1.042-3.707 2.926-4.623 5.273l-30.148 4.208 30.148 4.211c.916 2.347 2.569 4.234 4.623 5.276l3.689 34.393 3.69-34.393c2.055-1.048 3.707-2.931 4.623-5.277z"/></svg>