<svg xmlns="http://www.w3.org/2000/svg" id="eyes" viewBox="0 0 3000 3000"><path fill="#E7E6E2" d="M1400.629 924.31c-2.997 5.06-3.205 11.056-5.375 16.33-.926 2.377-.31 4.651.517 6.925 1.344 3.821 2.378 7.854 3.514 11.679-1.24 3.824-.622 7.441 1.239 10.955 8.475 16.848 16.95 33.697 23.46 51.366.828 2.377 1.444-1.033 2.478-.62 17.466 7.337 34.936 14.878 51.365 24.598 2.895 4.754 10.853 11.162 9.922 17.26-8.343-1.605-19.43-4.031-26.355-6.615-13.54-4.96-27.281-9.095-41.135-13.329-4.544-1.348-6.407-4.03-7.958-8.268-6.718-17.259-12.196-35.036-21.292-51.267-3.414-5.994-6.718-11.989-10.335-17.88-1.55-2.377-2.997-4.651-2.381-7.544 2.998-13.126 4.134-26.355 4.031-39.791-.104-6.718 1.344-7.751 7.751-8.268 2.067-.207 4.134 0 6.201 0 62.012 0 123.92.103 185.931.206 3.722 0 7.647-1.034 10.956 1.55-2.272 2.477-5.167 1.236-7.751 1.345-62.218 2.687-124.54 2.17-186.966 2.273.632 3.202 8.384 4.444 2.183 9.095zm293.211 16.223c-2.479-3.204-1.239-5.994-.311-8.888.828-2.583.208-4.96-2.273-6.098-3.203-1.442-6.82-1.86-9.921.108-2.69 1.653-1.033 4.444.103 6.408 2.688 4.444 2.378 9.194 2.378 14.056 0 3.101-.413 6.511 3.307 7.858 4.445 1.55 7.648 7.954 13.642 3.51-.622-10.335.104-20.563 1.444-30.799-3.511 3.823-2.787 10.332-8.369 13.845zm9.818 67.696c-2.895-5.06-6.613-9.611-9.921-14.361-.624.31-1.24.62-1.864.926 3.414 6.925 1.756 15.709 9.508 22.118 1.346-3.618 3.621-6.303 2.277-8.683zm-16.952-5.27c-.41 3.204-1.653 6.408 2.584 9.818 1.034-4.65-1.033-7.131-2.584-9.818z"/><path d="M1617.977 912.425c1.863 0 3.823 0 5.685.103 6.824 3.208 6.201 10.232 7.857 15.813 3.929 13.333 3.824 25.429-8.681 35.864-9.611 8.061-15.607 19.844-23.358 29.869-2.272 2.993-4.651 5.994-7.751 8.16-4.24 2.274-8.269 5.167-13.542 4.242-2.584-1.034-4.028-3.209-3.512-5.685 1.961-9.302-4.03-13.643-10.441-18.087-9.505-6.718-18.707-14.061-27.389-21.704-6.512-5.685-12.813-6.309-20.774-4.242-30.901 8.268-61.495 17.26-91.673 27.905-3.511 1.24-8.76 3.177-12.684 2.766-9.198-7.34-9.327-19.096-15.115-28.497-5.48-13.126-6.407-25.634 4.65-36.798 13.54-4.651 27.8-3.72 41.652-4.543 20.464-1.241 40.928-2.584 61.495-3.101 2.479-.108 4.754 0 6.924 1.343 3.617 2.377 43.719-1.861 48.886-3.411 19.223-1.861 38.55 2.48 57.771.003zm86.816 48.986l.106.207c12.609 2.583 24.392-2.377 36.484-3.824 29.972-3.721 21.393-6.61 42.685 14.159 7.648 7.442 15.192 14.986 15.504 26.769.104 3.823 2.583 6.201 6.513 6.718 17.569-1.757 20.153-3.824 23.459-20.981 2.171-10.852 6.201-20.876 11.164-30.596 3.409-6.611 7.646-13.022 8.89-20.563-1.033-13.436-4.029-19.016-12.507-19.434-12.919-.62-25.943-.62-38.758 2.175-2.583 1.959-36.068-.624-40.515-1.551-17.881-.724-35.657-.207-53.121 4.026-.828 2.692-1.551 5.481-2.378 8.166-.723 4.341-2.688 8.371-3.722 12.609-1.446 6.304-2.996 12.712 2.271 18.19.517 0 .93.107 1.347.31 1.545.726 1.134 2.793 2.578 3.62z"/><path fill="#C7C8BC" d="M1483.415 1060.939c-3.208-4.336-5.274-9.095-6.201-14.361.927-3.515 4.027-4.341 6.821-5.582 28.01-12.811 57.258-22.324 85.577-34.416 2.996-1.241 5.995-.62 8.99-1.55 4.031-1.445 8.063-2.996 12.092-4.444 4.135.206 6.512 2.993 8.889 5.788 2.688 3.208 5.789 5.375 10.231 5.167-31.628 14.883-63.458 29.146-96.323 41.031-8.682 3.101-16.743 7.958-25.734 10.231-1.346-1.034-3.205-.726-4.342-1.864zm336.1-47.335c4.447-1.86 9.098-2.993 13.849-3.927 3.512-.724 5.062-2.067 5.685-5.891 2.994-19.12 8.889-37.207 17.569-54.467 2.272-4.542 5.373-8.888 5.063-14.361-4.855-3.824-9.613-3.514-14.47 0-8.679 16.33-18.808 32.247-20.564 51.16-1.034 10.542-6.201 14.878-15.503 16.429-1.656.315-3.412.517-5.063.724-3.722 2.894-8.89 1.343-12.606 4.242 7.852 5.264 15.705 10.331 26.04 6.091z"/><path fill="#2A2A2A" d="M1704.9 961.517c10.129-3.208 20.877-3.617 31.212-5.891 7.955-1.757 16.223-2.584 24.288-3.927 3.928-.625 7.438-.313 10.438 2.788 8.475 8.99 17.983 16.948 25.633 26.872 3.513 4.546 6.097 8.891 5.373 14.881-.413 3.308.206 6.306 4.238 6.925-4.083 3.486-7.959 5.449-12.609 4.237-14.082-4.727-26.558-8.473-39.894-12.811-3.617-1.142-7.029-2.584-10.646-3.824-22.841-7.962-22.841-7.962-38.033-29.25zm-127.951 37.207c3.41-6.514-.207-10.025-4.858-13.544-13.229-10.227-26.459-20.563-39.479-31.109-3.412-2.791-6.614-2.48-10.542-1.447-17.468 4.858-35.244 8.785-52.503 14.267-18.914 5.995-39.765 12.273-57.852 20.541-.624 13.329 7.622 23.07 14.133 33.719 1.861 1.443 3.513 3.303 5.684 4.337 15.193 7.131 30.489 14.16 45.682 21.187 6.407-2.476 12.919-4.65 19.121-7.438 17.979-8.375 36.968-14.293 55.293-21.811 9.12-3.739 16.925-8.161 26.975-12.402-2.584-1.755-2.791-4.132-1.654-6.3z"/><path fill="#86877F" d="M1590.589 1000.685c8.063-10.542 16.226-21.079 24.184-31.729 4.134-5.478 8.269-10.852 13.847-14.986 2.38-1.752 3.823-3.721 3.413-6.821-1.756-11.782-2.896-23.668-8.268-34.623 11.989-.103 23.975 0 35.967-.31 5.272-.108 7.235 2.067 7.645 7.126.83 11.266 1.964 22.536 3.208 33.796.31 2.894.104 5.276-2.174 7.442-16.641 16.846-34.934 31.936-52.297 47.956-1.63 1.127-3.514 1.623-6.407 3.101-9.918 2.59-13.951-5.268-19.118-10.952zm-150.272-79.789c19.431-1.653 38.861-2.17 58.395-2.894 4.341-.207 5.04.236 13.022-.103 18.965-.297 31.109-.104 46.999-1.913 15.61-1.346 30.128-.129 45.734-.646 4.34-.207 16.294 1.796 20.428-.37-.995-2.176-.755-1.765-.755-2.45-3.722.103-38.713-.409-42.434-.409-61.085 0-122.163-.106-183.247-.106-3.512 0-6.923.31-12.507.623 5.891 3.206 9.715 5.479 13.642 7.439 2.274 1.141 1.239 1.24 1.033 2.791 13.334-2.891 25.686-1.596 39.69-1.962zm423.332 8.372c.31-6.615-3.411-11.993-6.718-16.95-2.895-4.341-8.269-1.959-12.507-1.86-14.055.207-28.216.827-42.271 1.241-28.525.925-57.154-.108-85.576 1.86-4.547.31-8.89.62-11.782 4.858 18.604-.414 37.207-3.209 55.914-1.447 13.514 1.085 22.558.826 36.797.108 11.604-1.359 22.533 0 33.797-.724 11.473-.826 12.919.517 15.188 11.369.517 2.377.624 4.754.931 7.126h14.47c1.653-1.446 1.653-3.513 1.757-5.581z"/><path fill="#F7F7F7" d="M1411.714 987.429c2.787 11.994 11.342 21.73 14.026 33.719-.621 1.659-1.034 5.276-3.412 1.865-2.69-3.932-4.026-8.682-5.89-13.126-5.579-13.746-12.296-26.872-19.015-39.998-2.173-4.134-4.642-6.56.111-9.351 6.101 8.369 8.7 18.211 14.18 26.891z"/><path fill="#F9B233" d="M1505.466 948.16l20.021-10.653a6.852 6.852 0 0 1 6.854.238l19.235 12.011a6.864 6.864 0 0 1 3.222 6.054l-.786 22.661a6.858 6.858 0 0 1-3.633 5.819l-20.021 10.651a6.851 6.851 0 0 1-6.852-.237l-19.234-12.011a6.859 6.859 0 0 1-3.222-6.054l.784-22.663a6.854 6.854 0 0 1 3.632-5.816zm249.001-10.434l18.394-9.687a6.353 6.353 0 0 1 6.298.218l17.68 10.935a6.234 6.234 0 0 1 2.961 5.511l-.715 20.621a6.226 6.226 0 0 1-3.336 5.293l-18.393 9.686a6.356 6.356 0 0 1-6.298-.217l-17.677-10.936a6.23 6.23 0 0 1-2.963-5.511l.713-20.623a6.225 6.225 0 0 1 3.336-5.29z"/></svg>