<svg xmlns="http://www.w3.org/2000/svg" id="图层_1" viewBox="0 0 3000 3000"><path d="M1802.018 1030.761c-2.483-4.229-3.621-8.769-3.518-13.721.104-17.848-1.035-35.801.414-53.442 1.237-14.341 1.237-28.683 1.552-43.021.104-5.056-1.241-9.492-4.862-13.104-10.346-10.007-18.518-21.976-30.105-30.849-6.004-4.64-11.381-5.569-18.001-3.815-10.655 2.682-21.208 5.672-31.76 8.458-3.621.929-7.346 2.479-10.449-1.135 0-.621 0-1.341.104-1.962 2.069-3.096 3.827-6.5 6.931-8.873 19.761-15.475 40.865-28.989 63.314-40.236 2.789-1.341 5.69-2.581 8.794-2.683 9.414.409 16.862 4.745 23.688 11.142 16.553 15.269 28.557 33.323 36.315 54.374 1.963 5.363 2.689 10.625 1.553 16.193-.832 3.301-2.276 6.501-4.035 9.39-13.655 23.522-18.001 49.109-17.898 75.83-.107 16.511-6.131 29.175-22.037 37.454zm-170.976-56.67c-.102-20.691.619-41.175-1.957-61.762-2.059-16.036-7.522-29.588-18.748-41.067-14.112-14.484-29.461-27.523-45.325-40.145-9.274-7.345-19.161-11.69-31.11-10.548-20.194 7.345-40.796 13.651-60.263 23.07-11.435 5.483-22.354 11.789-34.305 16.243-15.864 6-29.564 15.518-43.06 25.449-.104 4.138-2.783 7.656-2.372 11.897 4.534 3.931 9.168 1.345 13.6.103 30.696-8.896 61.807-15.621 92.916-22.863 5.872-1.345 11.642-1.759 16.792 2.069 15.657 11.794 32.756 21.519 48.931 32.485 6.183 4.242 9.376 10.03 9.989 17.173 1.342 15.518 4.433 30.726 7.109 45.934 1.442 8.168.516 15.621-3.09 23.07a184.09 184.09 0 0 0-9.269 22.967c-1.858 5.793-1.546 6 4.325 7.345 5.049-1.759 8.241-5.897 11.744-9.518 13.6-13.966 27.71-27.208 42.34-39.933.415-.828.929-1.554 1.753-1.969z"/><path fill="#C7C8BC" d="M1396.376 885.43c-2.369-5.483-7.932-7.345-12.258-10.548-3.09-2.276-6.491-3.936-6.491-8.483 7.933-6 16.896-10.453 25.756-14.793 30.078-14.799 60.881-27.933 91.786-40.865 9.477-3.936 18.952-7.966 28.126-12.414 8.961-4.346 18.337-4.863 28.02-4.247 1.134.108 2.263 1.345 3.398 1.966-3.71-.311-6.698.31-7.933 4.448-.822 2.896-2.165 5.793-2.781 8.69-1.233 5.69-4.121 10.345-9.789 12.104-5.15 1.927-7.364 4.051-12.204 5.688-41.98 16.638-81.021 33.001-118.828 56.278-2.165 1.349-4.227 2.59-6.802 2.176zm172.858 163.254c24.313-15.208 48.624-30.315 71.492-47.697 8.652-6.616 18.337-11.897 25.343-20.483-2.68-1.759-5.669-1.966-8.758-2.586-8.65-1.862-17.719-1.242-26.271-3.828-.514 0-.928 0-1.444.108a8.703 8.703 0 0 0-2.571 1.345c-10.099 6.725-17.617 16.139-26.271 24.209-8.963 8.379-16.275 18.514-27.195 24.721-15.758 9.105-30.799 19.656-47.901 26.489 4.017 1.961 7.211 4.34 6.387 9.72-.516 2.794 1.34 4.346 4.119 4.553 11.129-5.587 22.767-10.035 33.07-16.551zm216.361-14.178c4.914 2.808 23.868-2.918 27.489-3.846 13.861-3.302 24-17.746 22.76-32.189-1.863-21.667 2.999-41.991 11.694-61.8 5.893-13.308 12.617-26.824 10.548-42.3-7.346 1.239-13.242 4.127-14.07 12.587-2.275 4.644-4.451 9.285-6.931 13.825-11.483 20.631-15.829 42.915-15.829 66.232 0 6.398.893 13.562-1.271 20.634-3.104 10.213-10.732 15.992-18.078 22.903-4.297 1.513-16.312 3.333-16.312 3.954zm6.281-224.529c-7.445-.412-14.07 2.166-20.584 5.261-16.449 7.843-30.314 19.707-45.626 29.302-12.619 7.841-18.309 19.603-20.378 33.633 12.101-10.005 24.723-19.396 38.071-27.752 13.036-8.15 25.759-16.918 40.452-21.975 1.863-3.509 3.827-7.015 5.484-10.626 1.447-3.197 3.209-5.882 7.137-5.984-1.139-1.342-2.794-1.756-4.556-1.859z"/><path fill="#E7E6E2" d="M1536.27 1065.028c-2.371 2.793-5.77 2.276-8.651 1.759-17.825-3.104-35.748-5.488-52.539-12.932-11.847-5.281-24.209-9.626-35.952-15.109-9.271-4.344-18.027-9.828-27.093-14.793-5.666-3.104-8.551-7.966-11.641-13.554-5.666-10.24-9.271-21.413-15.864-31.143-6.902-10.239-9.786-22.655-16.274-33.313-2.683-4.343.72-10.033 1.441-15.001 2.886-18.932 5.874-37.864 5.669-57.21 0-2.689-.62-5.585 2.163-7.552 6.284 6.932 16.997 9.104 20.397 19.242.516 4.345-1.03 8.384-1.751 12.522-5.561 22.036-5.047 43.343 5.459 64.245 5.77 11.587 9.993 24.209 13.495 36.727 2.472 8.69 7.623 14.074 15.453 18.104 30.081 15.312 61.189 27.727 95.083 31.451 8.954 2.073 9.162 9.728 10.605 16.557z"/><path fill="#86877F" d="M1554.707 795.942c9.891 4.139 18.747 10.035 26.991 16.76 25.031 20.381 52.021 38.175 75.198 60.831 4.43 4.346 7.006 8.592 7.726 14.898 2.989 28.45 4.432 56.9 3.814 85.453 0 2.384.104 4.863-2.266 6.522-12.049.31-24.105.202-35.229-5.587-3.299-4.138-2.679-9.104-2.679-13.859-.207-16.143.309-32.178-1.855-48.313-2.062-15.518-7.622-28.864-18.646-40.141-13.391-13.763-28.429-25.66-42.854-38.278-9.065-7.965-20.087-9.418-30.699-12.932 3.093-7.759 8.242-14.483 11.023-22.557 1.34-3.728 5.358-5.07 9.476-2.797zm298.207 76.763c-7.652-16.816-19.76-30.538-32.175-43.848-6.83-7.325-14.483-13.721-24.207-17.125-8.688 1.134-11.691 4.952-12.619 16.609 5.69 1.341 11.691 1.754 16.347 5.779 11.792 10.111 23.172 20.841 30.313 34.766 6.207 11.967 14.172 23.627 13.448 38.17 2.175-3.611 3.932-7.632 8.899-8.253 2.691-.311 3.415-2.992 5.173-4.333.308-7.732-2.074-14.849-5.179-21.765z"/><path fill="#2A2A2A" d="M1802.018 1030.761c-8.073 4.644-16.35 5.468-24.519 2.167-17.897-7.016-33.105-18.055-46.037-32.085-2.38-2.479-5.173-4.643-7.347-7.223-8.382-10.007-20.896-16.507-22.76-31.775-1.552-13.206-5.173-25.897-3.104-39.72 1.446-9.699.828-19.809 2.998-29.611.928-4.229 2.48-7.893 3.931-12.484 12.211-2.063 24.208-5.055 36.005-8.769 11.067-3.511 20.378-1.858 29.589 5.984 10.553 9.077 18.829 19.912 28.036 30.126 4.45 4.848 4.45 11.241 4.656 17.536.517 26.411-3.311 52.616-2.174 79.03.414 8.561.36 13.437 2.22 21.898.002 1.238 1.542 1.489-1.494 4.926zm-412.131-92.672c0 1.966 1.03 3.931 1.747 5.897 8.039 20.794 16.38 41.589 23.078 62.9 1.031 3.414 2.78 6.104 6.076 7.862 32.964 18.212 66.857 33.313 104.973 35.898 4.429-.409 8.758-.409 12.876-2.689 12.466-7.034 24.447-16.129 36.295-24.304-2.991-.31-3.844.302-2.403-2.904a1203.508 1203.508 0 0 0 11.127-26.588c2.06-5.07 4.738-10.036 3.709-15.829-3.298-17.794-6.798-35.588-8.242-53.796-.616-7.867-4.431-13.656-11.435-18.212-16.379-10.656-33.379-20.277-48.729-32.48-4.844-3.828-10.098-4.448-15.454-3.104-28.535 6.827-57.069 13.966-85.604 20.794-7.933 1.862-13.141 5.851-21.587 5.643-4.527 13.351-6.531 27.153-6.427 40.912z"/><path fill="#86877F" d="M1760.203 995.955c.378-.111.709-.335.935-.61 0 0 1.192-1.44 2.229-2.906a47.49 47.49 0 0 0 1.365-2.021c.356-.562.58-.96.58-.96a1.994 1.994 0 0 1 1.731-.973s.297.003.744.005c.447.023 1.04-.028 1.633-.086l2.37-.209 2.34-.433c.586-.105 1.173-.211 1.596-.354.429-.124.716-.203.716-.203a1.986 1.986 0 0 1 1.926.474s.322.323.815.77a50.45 50.45 0 0 0 1.859 1.582 54.883 54.883 0 0 0 2.924 2.206c.293.204.669.331 1.066.336a2.773 2.773 0 0 0 1.205-.306l.898-.458c.535-.285 1.269-.625 1.959-1.044l2.722-1.74c.761-.459 1.143-1.31 1.08-2.011 0 0-.167-1.855-.467-3.618a35.037 35.037 0 0 0-.744-3.5 1.968 1.968 0 0 1 .545-1.9s.884-.803 1.617-1.745l1.53-1.82 1.346-1.963c.709-.96 1.247-2.024 1.247-2.024a1.973 1.973 0 0 1 1.685-1.034s1.818-.006 3.571-.218c1.779-.185 3.611-.52 3.611-.52.694-.129 1.41-.722 1.649-1.578 0 0 .476-1.545.948-3.088.216-.777.35-1.575.48-2.167.121-.593.2-.99.2-.99a2.8 2.8 0 0 0-.026-1.243 1.93 1.93 0 0 0-.61-.938s-1.441-1.191-2.907-2.227a50.186 50.186 0 0 0-2.021-1.368c-.563-.354-.961-.579-.961-.579a1.99 1.99 0 0 1-.973-1.73s.004-.296.006-.744c.023-.448-.029-1.04-.087-1.632l-.21-2.371s-.217-1.169-.431-2.34c-.106-.586-.211-1.17-.354-1.595l-.206-.715a1.993 1.993 0 0 1 .475-1.927s.324-.323.771-.814c.438-.49 1.016-1.16 1.582-1.859 1.135-1.391 2.206-2.924 2.206-2.924a1.94 1.94 0 0 0 .335-1.067 2.734 2.734 0 0 0-.307-1.206l-.457-.899c-.282-.535-.624-1.269-1.042-1.959l-1.741-2.723c-.459-.759-1.311-1.142-2.012-1.08 0 0-1.855.168-3.617.465-1.746.265-3.5.747-3.5.747a1.97 1.97 0 0 1-1.9-.547s-.804-.882-1.746-1.615l-1.819-1.533-1.963-1.344c-.958-.711-2.022-1.247-2.022-1.247a1.979 1.979 0 0 1-1.035-1.688s-.006-1.815-.218-3.571c-.186-1.777-.52-3.61-.52-3.61-.129-.693-.722-1.411-1.579-1.65 0 0-1.543-.475-3.088-.948-.777-.217-1.574-.349-2.165-.481l-.99-.199a2.747 2.747 0 0 0-1.244.027 1.91 1.91 0 0 0-.936.609s-1.19 1.439-2.229 2.908a49.466 49.466 0 0 0-1.365 2.021c-.355.562-.578.96-.578.96-.354.6-1.017.978-1.732.972l-.744-.004c-.446-.024-1.04.03-1.632.086l-2.371.21-2.341.431c-.584.105-1.17.211-1.595.354l-.715.205a2 2 0 0 1-1.928-.475s-.322-.323-.814-.77a51.982 51.982 0 0 0-1.858-1.583c-1.391-1.135-2.924-2.204-2.924-2.204a1.935 1.935 0 0 0-1.065-.338 2.76 2.76 0 0 0-1.206.306s-.361.182-.899.459c-.534.284-1.268.624-1.96 1.042l-2.722 1.74c-.76.46-1.142 1.31-1.079 2.012 0 0 .168 1.855.467 3.618a34.66 34.66 0 0 0 .744 3.499 1.97 1.97 0 0 1-.545 1.901s-.882.803-1.617 1.743c-.765.912-1.532 1.821-1.532 1.821s-.67.982-1.343 1.964c-.71.959-1.247 2.023-1.247 2.023a1.975 1.975 0 0 1-1.687 1.034s-1.817.006-3.571.219a53.297 53.297 0 0 0-3.609.519c-.693.128-1.412.722-1.651 1.577l-.948 3.09c-.217.776-.349 1.574-.48 2.166l-.199.988c-.087.433-.074.866.027 1.243.108.38.335.709.608.939 0 0 1.442 1.19 2.907 2.227a51.478 51.478 0 0 0 2.022 1.367c.563.355.96.58.96.58.602.353.978 1.015.973 1.73l-.005.744c-.024.446.028 1.038.086 1.631l.209 2.37.434 2.341c.103.586.21 1.171.353 1.595l.204.716a1.99 1.99 0 0 1-.474 1.926s-.324.323-.771.816a49.308 49.308 0 0 0-1.581 1.858c-1.137 1.39-2.205 2.924-2.205 2.924-.204.293-.332.67-.336 1.065.004.391.106.812.306 1.207 0 0 .184.359.457.9.284.533.626 1.267 1.044 1.958.869 1.361 1.742 2.722 1.742 2.722.458.761 1.308 1.143 2.01 1.079 0 0 1.855-.167 3.617-.464 1.747-.265 3.5-.746 3.5-.746a1.974 1.974 0 0 1 1.901.545s.802.881 1.744 1.617c.909.766 1.82 1.531 1.82 1.531s.98.673 1.964 1.344c.958.711 2.021 1.249 2.021 1.249.63.342 1.022.992 1.036 1.685 0 0 .007 1.815.219 3.571a55.19 55.19 0 0 0 .519 3.612c.129.692.722 1.409 1.578 1.65l3.089.948c.777.216 1.575.35 2.165.479l.989.201c.435.091.865.078 1.244-.023zm7.08-18.155l-1.487-.007c-.528 0-1.077-.111-1.65-.153-.284-.027-.577-.057-.872-.083-.294-.032-.582-.119-.878-.175-.587-.133-1.196-.218-1.788-.375a72.39 72.39 0 0 0-1.743-.542l-.431-.125-.408-.181-.803-.342c-1.086-.384-1.988-.977-2.807-1.393-.42-.195-.757-.454-1.064-.668l-.801-.55-.708-.47-.641-.554a200.53 200.53 0 0 0-.743-.627c-.288-.239-.629-.494-.928-.846-.621-.677-1.436-1.388-2.096-2.33-.178-.224-.359-.452-.544-.682l-.28-.345-.238-.383a63.944 63.944 0 0 0-.988-1.534c-.308-.529-.552-1.093-.84-1.624-.131-.27-.292-.523-.402-.799-.105-.277-.21-.549-.314-.819-.193-.539-.448-1.038-.589-1.547l-.404-1.431-.191-.635a51.767 51.767 0 0 0-.103-.588l-.173-.953c-.106-.528-.164-.83-.164-.83s-.022-.306-.064-.842l-.087-.966-.061-.593.013-.662c.005-.459.007-.959.009-1.487 0-.527.11-1.076.154-1.648l.083-.873c.03-.293.12-.582.173-.878.135-.587.221-1.197.376-1.788.189-.583.37-1.167.539-1.745l.128-.431.18-.408c.115-.271.23-.54.344-.803.383-1.085.977-1.986 1.395-2.807.192-.418.452-.756.666-1.065.213-.308.398-.579.55-.801l.469-.707s.202-.232.555-.642c.174-.205.383-.456.626-.744.239-.289.495-.629.847-.927.677-.621 1.387-1.436 2.331-2.095.224-.179.453-.361.682-.546l.346-.28.381-.238c.512-.319 1.025-.65 1.534-.989.527-.307 1.093-.55 1.62-.838.272-.132.525-.295.801-.402l.816-.313c.541-.195 1.04-.45 1.549-.59.508-.146.987-.28 1.432-.406.222-.065.432-.129.632-.189.207-.036.404-.072.588-.101.368-.069.69-.127.954-.176l.829-.164.844-.064c.267-.023.592-.054.966-.087.188-.019.386-.04.594-.059l.662.013c.46.003.959.004 1.487.006.528.001 1.077.112 1.648.156.286.026.579.054.873.083.293.031.583.12.878.174.587.135 1.196.218 1.788.375.582.19 1.165.371 1.744.541l.431.127.408.179.803.343c1.085.384 1.988.98 2.807 1.395.419.194.757.454 1.063.669.311.212.581.396.803.55l.705.469.641.553c.206.174.456.384.745.625.287.24.629.495.927.848.621.677 1.436 1.388 2.096 2.332.179.223.359.452.544.681l.281.346.238.38c.318.511.648 1.025.986 1.535.309.528.553 1.091.84 1.622.132.271.295.525.403.799l.314.818c.194.541.448 1.039.589 1.548l.405 1.431c.065.22.13.432.191.633.035.207.067.404.102.587.067.369.125.69.176.955.104.527.162.831.162.831s.022.305.065.841l.086.966c.019.187.038.385.061.595-.005.209-.008.43-.015.662l-.008 1.486c0 .528-.11 1.078-.154 1.651-.025.285-.054.576-.082.871-.03.295-.119.582-.174.879-.134.587-.22 1.195-.374 1.789-.19.581-.371 1.164-.541 1.742l-.128.431-.179.408c-.115.272-.229.539-.344.802-.383 1.085-.978 1.988-1.393 2.807-.195.419-.455.758-.669 1.065l-.549.802-.469.707-.555.641-.625.743c-.237.29-.496.63-.846.929-.677.619-1.388 1.435-2.333 2.093l-.68.546-.346.282-.382.237c-.511.318-1.024.647-1.534.987-.526.308-1.093.553-1.622.839-.271.131-.524.294-.799.404l-.817.312c-.539.194-1.041.448-1.548.591l-1.433.404-.632.192-.587.101c-.367.066-.69.126-.956.175l-.829.164-.842.065-.967.086c-.186.02-.384.038-.593.06l-.663-.014zm-267.615 36.005a2.4 2.4 0 0 0 1.166-.759s1.486-1.796 2.776-3.622a60.383 60.383 0 0 0 1.703-2.52c.442-.7.721-1.195.721-1.195a2.48 2.48 0 0 1 2.157-1.212l.927.006c.556.028 1.296-.038 2.034-.108l2.952-.261 2.916-.539c.73-.129 1.46-.263 1.988-.439.536-.155.893-.255.893-.255a2.476 2.476 0 0 1 2.399.589s.403.403 1.017.96a62.347 62.347 0 0 0 2.315 1.97 68.435 68.435 0 0 0 3.642 2.748c.367.253.836.412 1.33.419a3.433 3.433 0 0 0 1.5-.382s.451-.227 1.122-.568c.664-.357 1.578-.782 2.438-1.302 1.698-1.084 3.392-2.168 3.392-2.168.947-.572 1.422-1.632 1.347-2.505 0 0-.21-2.312-.582-4.508-.328-2.178-.928-4.362-.928-4.362a2.463 2.463 0 0 1 .679-2.369s1.1-1 2.015-2.172l1.908-2.267 1.676-2.446c.884-1.195 1.554-2.523 1.554-2.523a2.456 2.456 0 0 1 2.101-1.287s2.263-.008 4.449-.273c2.217-.23 4.5-.646 4.5-.646.864-.161 1.758-.901 2.056-1.968l1.182-3.849c.271-.969.436-1.963.598-2.699l.251-1.232a3.513 3.513 0 0 0-.032-1.549 2.424 2.424 0 0 0-.762-1.167s-1.795-1.485-3.621-2.776a63.874 63.874 0 0 0-2.52-1.703c-.701-.441-1.197-.722-1.197-.722a2.482 2.482 0 0 1-1.212-2.155s.004-.37.006-.926c.03-.558-.036-1.295-.106-2.034l-.262-2.954-.539-2.916c-.131-.729-.264-1.459-.44-1.988-.151-.536-.255-.892-.255-.892a2.483 2.483 0 0 1 .591-2.401s.403-.402.96-1.016a61.06 61.06 0 0 0 1.971-2.315c1.415-1.731 2.748-3.642 2.748-3.642.254-.367.413-.836.417-1.33a3.39 3.39 0 0 0-.38-1.501s-.229-.448-.569-1.12c-.354-.666-.78-1.58-1.3-2.44-1.084-1.697-2.17-3.393-2.17-3.393-.572-.947-1.631-1.421-2.506-1.346 0 0-2.313.21-4.508.582-2.176.329-4.361.928-4.361.928a2.464 2.464 0 0 1-2.368-.68s-1.001-1.099-2.173-2.013l-2.268-1.91-2.446-1.674c-1.194-.884-2.521-1.554-2.521-1.554a2.469 2.469 0 0 1-1.29-2.103s-.008-2.262-.273-4.449c-.229-2.215-.645-4.498-.645-4.498-.161-.864-.901-1.758-1.968-2.056 0 0-1.924-.592-3.849-1.182-.97-.271-1.963-.434-2.698-.6l-1.232-.249a3.43 3.43 0 0 0-1.55.035 2.377 2.377 0 0 0-1.166.759s-1.486 1.794-2.777 3.622a63.74 63.74 0 0 0-1.702 2.52c-.443.7-.722 1.196-.722 1.196a2.483 2.483 0 0 1-2.157 1.21s-.371-.001-.926-.006c-.557-.029-1.296.038-2.034.107l-2.953.262s-1.459.269-2.917.54c-.729.131-1.459.263-1.988.44-.535.152-.89.255-.89.255a2.485 2.485 0 0 1-2.4-.592s-.402-.402-1.018-.959a63.482 63.482 0 0 0-2.314-1.972c-1.733-1.415-3.643-2.747-3.643-2.747a2.423 2.423 0 0 0-1.329-.42 3.44 3.44 0 0 0-1.502.382l-1.121.572c-.666.354-1.579.779-2.439 1.299l-3.392 2.167c-.948.574-1.423 1.633-1.345 2.508 0 0 .208 2.313.58 4.508.331 2.177.928 4.359.928 4.359a2.464 2.464 0 0 1-.679 2.37s-1.099 1-2.015 2.171c-.954 1.137-1.909 2.269-1.909 2.269l-1.674 2.447c-.884 1.194-1.554 2.521-1.554 2.521a2.46 2.46 0 0 1-2.101 1.289s-2.263.006-4.45.273c-2.215.229-4.499.646-4.499.646-.863.161-1.758.901-2.056 1.966 0 0-.59 1.925-1.183 3.85-.269.968-.435 1.963-.598 2.699l-.25 1.23a3.443 3.443 0 0 0 .035 1.55c.137.473.417.884.758 1.17 0 0 1.796 1.484 3.623 2.775.911.65 1.83 1.262 2.519 1.702.7.444 1.195.722 1.195.722a2.48 2.48 0 0 1 1.213 2.157l-.007.927c-.029.557.039 1.294.108 2.033.129 1.477.261 2.953.261 2.953l.539 2.917c.129.73.264 1.46.44 1.988.151.535.254.892.254.892a2.478 2.478 0 0 1-.59 2.399s-.404.403-.96 1.018a57.933 57.933 0 0 0-1.971 2.315c-1.417 1.731-2.749 3.642-2.749 3.642a2.394 2.394 0 0 0-.418 1.328c.005.487.131 1.011.38 1.502l.572 1.121c.354.665.779 1.579 1.298 2.44l2.169 3.392c.572.948 1.63 1.422 2.505 1.345 0 0 2.313-.21 4.508-.58 2.178-.33 4.359-.928 4.359-.928a2.464 2.464 0 0 1 2.37.68s1.001 1.099 2.173 2.013l2.266 1.91 2.447 1.674a20.07 20.07 0 0 0 2.521 1.556 2.46 2.46 0 0 1 1.29 2.101s.007 2.262.272 4.449c.23 2.215.646 4.5.646 4.5.161.863.901 1.756 1.968 2.056l3.849 1.181c.968.271 1.962.436 2.698.598l1.232.251a3.48 3.48 0 0 0 1.556-.037zm8.822-22.621l-1.853-.009c-.658 0-1.343-.141-2.056-.193l-1.087-.102c-.366-.041-.724-.149-1.093-.218-.732-.167-1.49-.272-2.228-.467a86.973 86.973 0 0 0-2.171-.676l-.537-.158-.507-.224c-.339-.145-.672-.285-1.001-.427-1.352-.478-2.477-1.218-3.497-1.736-.522-.241-.943-.565-1.326-.833l-1-.685-.88-.585-.799-.69-.925-.781c-.36-.298-.785-.615-1.158-1.055-.773-.844-1.787-1.73-2.61-2.905l-.679-.849-.352-.43-.296-.476a89.187 89.187 0 0 0-1.231-1.913c-.382-.659-.688-1.361-1.045-2.022-.164-.335-.366-.652-.501-.995l-.39-1.02c-.241-.672-.56-1.293-.735-1.928l-.503-1.783c-.084-.276-.161-.539-.237-.791l-.126-.732c-.086-.458-.158-.857-.218-1.187l-.204-1.033s-.028-.382-.081-1.051c-.03-.334-.064-.738-.107-1.204-.024-.232-.047-.479-.076-.738l.017-.825.01-1.854c0-.656.138-1.339.192-2.054.034-.357.067-.719.103-1.087.039-.366.148-.726.216-1.093.167-.731.274-1.491.469-2.228.235-.725.46-1.452.673-2.172l.158-.538.223-.508c.145-.337.286-.672.428-1.001.478-1.352 1.218-2.475 1.737-3.497.24-.52.565-.942.831-1.326.266-.385.496-.721.686-1l.583-.878.691-.799.78-.926c.3-.36.617-.784 1.055-1.157.845-.773 1.729-1.788 2.906-2.61l.851-.68.428-.35.477-.297a91.77 91.77 0 0 0 1.912-1.232c.656-.384 1.362-.688 2.021-1.045.337-.166.654-.366.997-.502l1.018-.389c.674-.244 1.297-.56 1.93-.737l1.782-.504.791-.236.733-.127 1.187-.217 1.034-.204s.382-.028 1.051-.08l1.204-.108.739-.074.825.019 1.853.008c.658.002 1.341.14 2.055.194.357.034.72.067 1.087.104.365.038.726.148 1.094.216.732.168 1.488.272 2.227.467a78.31 78.31 0 0 0 2.173.674l.536.158.509.224c.338.146.671.287 1.001.426 1.353.478 2.479 1.22 3.497 1.738.523.24.944.563 1.326.832.386.265.724.494 1 .685l.88.583.797.691.928.779c.359.299.784.618 1.156 1.056.771.845 1.788 1.729 2.609 2.906l.678.85.352.43.297.475c.397.636.81 1.277 1.23 1.913.384.657.688 1.359 1.046 2.021.163.337.365.653.502.995l.39 1.021c.242.673.561 1.295.736 1.93l.503 1.783c.083.274.161.539.237.788l.126.732c.085.459.155.86.219 1.188l.202 1.035.08 1.05.108 1.202.076.741c-.009.261-.013.537-.02.824l-.009 1.852c0 .658-.139 1.343-.194 2.056-.032.355-.066.718-.103 1.086-.038.367-.15.727-.217 1.096-.168.731-.273 1.488-.465 2.227a74.859 74.859 0 0 0-.676 2.172l-.158.536-.223.508c-.146.338-.287.672-.428 1-.479 1.353-1.219 2.478-1.737 3.496-.24.522-.565.944-.833 1.327-.266.387-.494.723-.684 1-.373.56-.584.881-.584.881l-.69.797c-.218.257-.48.568-.78.927-.298.36-.618.786-1.055 1.157-.845.772-1.729 1.788-2.906 2.608l-.85.68-.429.352-.478.297c-.636.397-1.276.807-1.912 1.229-.657.385-1.36.689-2.021 1.047-.337.164-.653.367-.997.502l-1.019.389c-.673.242-1.295.559-1.928.735-.634.177-1.231.348-1.784.504l-.789.237c-.258.044-.503.085-.732.127-.459.082-.859.156-1.189.216l-1.033.204-1.05.081c-.334.029-.739.065-1.204.108l-.739.073c-.26-.002-.535-.009-.823-.014z"/><path id="cl1" fill="#2962FF" d="M1766.973 967.96c-8.353 0-15.122-6.772-15.122-15.124 0-8.353 6.769-15.124 15.122-15.124 8.352 0 15.121 6.77 15.121 15.124 0 8.352-6.77 15.124-15.121 15.124zm-240.026-7.882c0-10.407-8.437-18.843-18.843-18.843-10.408 0-18.844 8.436-18.844 18.843s8.436 18.844 18.844 18.844c10.406 0 18.843-8.437 18.843-18.844z"/></svg>