<svg xmlns="http://www.w3.org/2000/svg" id="eyes" viewBox="0 0 3000 3000"><path fill="#E7E6E2" d="M1400.61 923.427c-2.994 5.059-3.202 11.048-5.37 16.315-.929 2.375-.311 4.647.516 6.919 1.343 3.819 2.376 7.849 3.512 11.668-1.239 3.821-.62 7.436 1.238 10.945 8.467 16.833 16.936 33.666 23.44 51.323.826 2.375 1.445-1.033 2.479-.619 17.451 7.331 34.903 14.868 51.321 24.577 2.892 4.75 10.844 11.152 9.914 17.245-8.339-1.604-19.414-4.028-26.333-6.609-13.528-4.957-27.262-9.087-41.101-13.319-4.543-1.344-6.4-4.027-7.949-8.262-6.712-17.244-12.187-35.006-21.273-51.219-3.408-5.989-6.712-11.979-10.327-17.865-1.549-2.375-2.994-4.646-2.375-7.538 2.994-13.114 4.13-26.333 4.026-39.756-.104-6.712 1.343-7.745 7.745-8.261 2.064-.207 4.13 0 6.195 0 61.959 0 123.813.103 185.771.207 3.718 0 7.641-1.033 10.946 1.549-2.271 2.477-5.163 1.237-7.744 1.342-62.164 2.686-124.435 2.168-186.804 2.272.623 3.199 8.368 4.44 2.173 9.086zm292.96 16.211c-2.479-3.201-1.238-5.989-.311-8.88.826-2.582.206-4.957-2.271-6.094-3.2-1.443-6.814-1.858-9.912.104-2.687 1.652-1.033 4.439.103 6.403 2.687 4.439 2.376 9.188 2.376 14.043 0 3.098-.414 6.505 3.304 7.849 4.44 1.549 7.643 7.951 13.632 3.51-.62-10.326.103-20.549 1.444-30.771-3.512 3.823-2.789 10.327-8.365 13.836zm9.809 67.638c-2.891-5.058-6.606-9.603-9.912-14.352l-1.859.928c3.409 6.919 1.755 15.697 9.5 22.099 1.341-3.613 3.614-6.298 2.271-8.675zm-16.935-5.266c-.412 3.201-1.652 6.401 2.582 9.81 1.032-4.645-1.034-7.125-2.582-9.81z"/><path d="M1617.774 911.552c1.858 0 3.818 0 5.68.103 6.814 3.202 6.195 10.225 7.849 15.799 3.925 13.322 3.819 25.405-8.675 35.833-9.604 8.055-15.593 19.827-23.338 29.845-2.271 2.993-4.646 5.988-7.744 8.155-4.234 2.272-8.262 5.163-13.527 4.235-2.582-1.033-4.026-3.203-3.512-5.68 1.962-9.293-4.026-13.631-10.43-18.071-9.5-6.712-18.691-14.045-27.365-21.685-6.507-5.681-12.805-6.302-20.757-4.236-30.875 8.261-61.442 17.246-91.594 27.881-3.511 1.239-8.752 3.175-12.675 2.762-9.19-7.333-9.32-19.077-15.103-28.473-5.474-13.115-6.403-25.611 4.647-36.764 13.526-4.647 27.776-3.718 41.614-4.542 20.447-1.239 40.894-2.582 61.441-3.099 2.479-.104 4.751 0 6.919 1.343 3.614 2.375 4.853 6.506 7.435 9.705 9.914 12.497 25.921 11.257 33.871-2.685 2.169-3.717 2.375-8.88 7.538-10.429 19.208-1.857 38.519 2.48 57.726.003zm86.741 48.946l.104.207c12.597 2.582 24.369-2.375 36.451-3.82 29.946-3.717 21.376-6.607 42.648 14.146 7.642 7.436 15.18 14.974 15.489 26.746.104 3.82 2.582 6.196 6.506 6.712 17.556-1.756 20.137-3.821 23.44-20.963 2.169-10.843 6.196-20.858 11.151-30.567 3.409-6.607 7.644-13.011 8.883-20.549-1.033-13.424-4.026-19-12.496-19.415-12.907-.619-25.918-.619-38.725 2.17-2.581 1.96-3.819 4.75-5.06 7.538-2.994 6.505-7.95 10.326-15.179 9.913-6.816-.31-11.153-4.337-13.735-10.636-1.343-3.408-2.064-7.436-6.506-8.364-17.864-.723-35.626-.207-53.077 4.026-.826 2.687-1.549 5.474-2.375 8.158-.723 4.337-2.687 8.363-3.718 12.599-1.445 6.298-2.994 12.701 2.271 18.174.518 0 .93.104 1.344.311 1.552.723 1.139 2.789 2.584 3.614z"/><path fill="#C7C8BC" d="M1483.324 1059.941c-3.202-4.335-5.268-9.087-6.196-14.353.929-3.512 4.027-4.337 6.814-5.576 27.985-12.804 57.209-22.306 85.505-34.388 2.993-1.239 5.987-.619 8.981-1.549 4.028-1.445 8.057-2.995 12.082-4.439 4.131.206 6.506 2.992 8.881 5.781 2.687 3.203 5.783 5.37 10.225 5.163-31.601 14.871-63.405 29.121-96.242 40.996-8.674 3.099-16.729 7.952-25.712 10.224-1.343-1.031-3.202-.723-4.338-1.859zm335.814-47.295c4.441-1.858 9.088-2.993 13.837-3.924 3.512-.724 5.061-2.065 5.681-5.886 2.994-19.104 8.881-37.176 17.555-54.421 2.272-4.541 5.37-8.88 5.061-14.352-4.854-3.821-9.604-3.511-14.457 0-8.674 16.315-18.793 32.219-20.549 51.116-1.033 10.533-6.196 14.868-15.49 16.417-1.652.312-3.407.516-5.06.723-3.719 2.892-8.882 1.342-12.598 4.235 7.846 5.266 15.694 10.329 26.02 6.092z"/><path fill="#2A2A2A" d="M1704.619 960.603c10.12-3.203 20.858-3.614 31.186-5.886 7.95-1.756 16.212-2.582 24.268-3.924 3.924-.621 7.435-.313 10.43 2.785 8.468 8.984 17.969 16.937 25.61 26.85 3.511 4.544 6.092 8.882 5.369 14.871-.413 3.305.206 6.299 4.233 6.919-4.079 3.482-7.952 5.447-12.599 4.232-14.069-4.725-26.538-8.468-39.859-12.803-3.613-1.138-7.021-2.582-10.637-3.821-22.821-7.951-22.821-7.951-38.001-29.223zm-127.84 37.175c3.407-6.508-.207-10.017-4.854-13.528-13.218-10.223-26.437-20.549-39.445-31.082-3.408-2.789-6.609-2.479-10.533-1.446-17.451 4.854-35.214 8.776-52.458 14.252-18.898 5.989-39.731 12.262-57.804 20.521-.619 13.32 7.616 23.054 14.122 33.69 1.859 1.445 3.511 3.304 5.68 4.336 15.18 7.125 30.463 14.146 45.643 21.169 6.401-2.478 12.908-4.647 19.104-7.434 17.967-8.365 36.936-14.282 55.245-21.79 9.112-3.736 16.909-8.157 26.951-12.393-2.581-1.753-2.788-4.128-1.651-6.295z"/><path fill="#86877F" d="M1590.408 999.738c8.056-10.533 16.212-21.063 24.163-31.702 4.131-5.473 8.261-10.843 13.837-14.973 2.376-1.754 3.821-3.717 3.407-6.815-1.755-11.771-2.892-23.647-8.261-34.594 11.979-.103 23.956 0 35.938-.31 5.266-.104 7.229 2.064 7.641 7.124.826 11.256 1.962 22.513 3.202 33.767.311 2.892.104 5.269-2.169 7.437-16.626 16.832-34.904 31.908-52.253 47.914-1.627 1.127-3.51 1.625-6.401 3.099-9.913 2.582-13.94-5.266-19.104-10.947zm-150.145-79.72c19.415-1.652 38.828-2.168 58.344-2.891 4.338-.207 8.674-2.478 13.013-.104 15.694 3.098 30.979 1.239 46.157-3.098 15.595-1.343 31.291-.414 46.883-.931 4.337-.207 8.881.724 13.011-1.443-8.261-1.654-16.625.103-24.886-.724-3.719.104-7.539.412-11.256.412-61.029 0-122.059-.103-183.088-.103-3.511 0-6.919.31-12.496.619 5.886 3.203 9.707 5.475 13.631 7.435 2.271 1.138 1.237 1.24 1.031 2.789 13.323-2.888 25.664-1.594 39.656-1.961zm422.969 8.366c.31-6.609-3.408-11.98-6.712-16.937-2.893-4.337-8.262-1.96-12.495-1.857-14.046.207-28.192.826-42.234 1.238-28.502.929-57.106-.104-85.504 1.858-4.543.31-8.881.619-11.771 4.854 18.589-.413 37.176-3.203 55.866-1.446 12.187 2.375 24.37 6.093 36.762 1.138 11.153-2.995 22.514-1.033 33.769-1.756 11.463-.826 12.907.516 15.18 11.359.517 2.375.62 4.75.931 7.124h14.457c1.648-1.445 1.648-3.511 1.751-5.575z"/><path fill="#F7F7F7" d="M1411.685 986.494c2.788 11.98 11.334 21.711 14.019 33.69-.62 1.654-1.033 5.268-3.409 1.86-2.686-3.927-4.026-8.675-5.885-13.115-5.576-13.734-12.288-26.85-19-39.963-2.169-4.13-4.64-6.556.111-9.344 6.093 8.366 8.69 18.199 14.164 26.872z"/><path id="cl1" fill="#FCE601" d="M1511.722 917.024c.619-.31 1.137-.93 1.756-.93 14.768-.518 29.533-2.892 44.402-2.168-.62 6.814-3.408 12.494-8.674 16.832-13.733 11.257-31.702 4.545-37.484-13.734zm249.899 6.092c2.684 7.643 9.396 12.497 16.935 12.497s14.044-4.646 17.038-12.497c.724-1.857.929-3.924 1.343-5.988-12.186-.826-24.474-2.375-36.762-1.137.517 2.478.722 4.855 1.446 7.125z"/></svg>