<svg xmlns="http://www.w3.org/2000/svg" id="图层_1" viewBox="0 0 3000 3000"><g id="eyes"><path d="M1804.363 1031.565c-2.497-4.252-3.641-8.816-3.537-13.795.104-17.944-1.04-35.994.417-53.73 1.245-14.419 1.245-28.837 1.56-43.254.104-5.083-1.248-9.543-4.889-13.174-10.401-10.061-18.617-22.094-30.269-31.015-6.034-4.666-11.441-5.599-18.098-3.835-10.713 2.697-21.322 5.704-31.931 8.504-3.641.935-7.386 2.492-10.506-1.141 0-.624 0-1.348.104-1.973 2.08-3.112 3.848-6.535 6.969-8.92 19.866-15.559 41.084-29.145 63.655-40.453 2.806-1.348 5.721-2.595 8.841-2.697 9.465.412 16.954 4.771 23.816 11.202 16.643 15.351 28.71 33.503 36.511 54.666 1.974 5.392 2.704 10.683 1.561 16.281-.835 3.32-2.288 6.537-4.057 9.44-13.729 23.649-18.098 49.375-17.995 76.239-.105 16.599-6.161 29.331-22.152 37.655zm-171.898-56.976c-.103-20.802.622-41.397-1.968-62.096-2.07-16.122-7.563-29.747-18.85-41.289-14.188-14.562-29.62-27.671-45.569-40.361-9.323-7.384-19.265-11.753-31.278-10.605-20.302 7.384-41.015 13.726-60.587 23.194-11.496 5.512-22.474 11.854-34.49 16.331-15.949 6.032-29.724 15.602-43.292 25.586-.104 4.161-2.797 7.698-2.384 11.962 4.558 3.952 9.218 1.352 13.673.104 30.862-8.945 62.14-15.706 93.417-22.986 5.904-1.352 11.704-1.769 16.883 2.08 15.742 11.858 32.934 21.635 49.194 32.66 6.217 4.264 9.427 10.085 10.045 17.266 1.348 15.602 4.456 30.892 7.146 46.182 1.45 8.213.52 15.706-3.106 23.195a185.124 185.124 0 0 0-9.319 23.091c-1.867 5.824-1.554 6.032 4.349 7.384 5.076-1.769 8.285-5.929 11.809-9.569 13.672-14.042 27.858-27.355 42.567-40.148.414-.834.931-1.564 1.76-1.981z"/><path fill="#C7C8BC" d="M1396.533 885.45c-2.382-5.512-7.975-7.384-12.324-10.605-3.107-2.289-6.526-3.957-6.526-8.529 7.976-6.033 16.986-10.509 25.893-14.874 30.242-14.878 61.21-28.083 92.282-41.085 9.528-3.956 19.054-8.009 28.277-12.481 9.009-4.369 18.436-4.889 28.17-4.268 1.14.108 2.276 1.352 3.417 1.977-3.729-.312-6.733.312-7.976 4.472-.826 2.912-2.176 5.824-2.795 8.737-1.241 5.721-4.145 10.4-9.842 12.169-5.178 1.938-7.404 4.073-12.271 5.72-42.206 16.728-81.458 33.178-119.469 56.581-2.174 1.354-4.246 2.603-6.836 2.186zm173.79 164.135c24.445-15.29 48.887-30.479 71.878-47.954 8.699-6.653 18.437-11.961 25.479-20.594-2.694-1.769-5.698-1.977-8.805-2.6-8.698-1.872-17.814-1.249-26.412-3.849-.517 0-.932 0-1.452.107a8.731 8.731 0 0 0-2.586 1.352c-10.151 6.761-17.712 16.226-26.411 24.339-9.012 8.424-16.365 18.615-27.342 24.855-15.845 9.154-30.967 19.763-48.161 26.631 4.039 1.973 7.251 4.365 6.422 9.773-.519 2.809 1.347 4.369 4.142 4.577 11.189-5.615 22.891-10.087 33.248-16.637zm217.527-14.255c4.941 2.822 23.998-2.935 27.639-3.867 13.938-3.319 24.131-17.842 22.883-32.363-1.873-21.784 3.016-42.217 11.757-62.133 5.926-13.379 12.687-26.969 10.606-42.528-7.386 1.245-13.314 4.149-14.146 12.655-2.288 4.668-4.475 9.335-6.969 13.9-11.546 20.744-15.914 43.148-15.914 66.59 0 6.432.898 13.635-1.277 20.745-3.12 10.269-10.791 16.078-18.176 23.027-4.323 1.52-16.403 3.35-16.403 3.974zm6.316-225.739c-7.486-.415-14.146 2.178-20.697 5.289-16.537 7.885-30.476 19.813-45.871 29.459-12.687 7.883-18.407 19.708-20.487 33.814 12.167-10.059 24.856-19.5 38.276-27.901 13.106-8.194 25.898-17.01 40.67-22.094 1.873-3.527 3.848-7.054 5.514-10.685 1.455-3.215 3.226-5.913 7.176-6.016-1.145-1.348-2.81-1.763-4.581-1.866z"/><path fill="#E7E6E2" d="M1537.181 1066.016c-2.383 2.809-5.8 2.288-8.698 1.769-17.921-3.121-35.94-5.517-52.821-13.002-11.911-5.308-24.34-9.677-36.146-15.189-9.32-4.368-18.124-9.881-27.239-14.874-5.696-3.12-8.597-8.009-11.704-13.626-5.696-10.297-9.321-21.53-15.949-31.311-6.939-10.294-9.838-22.777-16.364-33.492-2.695-4.367.726-10.087 1.45-15.082 2.901-19.034 5.905-38.068 5.698-57.519 0-2.704-.623-5.615 2.175-7.593 6.318 6.969 17.089 9.153 20.508 19.346.518 4.369-1.036 8.429-1.761 12.589-5.591 22.154-5.075 43.578 5.489 64.591 5.801 11.649 10.047 24.339 13.567 36.924 2.485 8.737 7.664 14.149 15.536 18.202 30.243 15.395 61.52 27.876 95.596 31.62 9.004 2.086 9.213 9.782 10.663 16.647z"/><path fill="#86877F" d="M1555.719 795.48c9.943 4.161 18.849 10.089 27.136 16.85 25.167 20.491 52.302 38.381 75.604 61.159 4.453 4.369 7.044 8.637 7.768 14.978 3.006 28.604 4.455 57.207 3.835 85.914 0 2.396.104 4.889-2.278 6.557-12.115.312-24.236.204-35.42-5.617-3.315-4.16-2.693-9.152-2.693-13.935-.208-16.229.31-32.351-1.866-48.573-2.071-15.602-7.662-29.02-18.745-40.357-13.464-13.836-28.583-25.798-43.086-38.484-9.114-8.008-20.195-9.468-30.864-13.002 3.109-7.801 8.286-14.562 11.083-22.677 1.344-3.749 5.385-5.099 9.526-2.813zm299.814 77.176c-7.695-16.907-19.867-30.703-32.349-44.084-6.867-7.364-14.562-13.794-24.338-17.218-8.735 1.14-11.754 4.979-12.687 16.699 5.721 1.348 11.753 1.764 16.434 5.81 11.856 10.166 23.298 20.953 30.477 34.954 6.24 12.033 14.249 23.754 13.521 38.377 2.185-3.63 3.952-7.673 8.945-8.297 2.706-.312 3.434-3.008 5.201-4.356.312-7.777-2.083-14.932-5.204-21.885z"/><path fill="#2A2A2A" d="M1804.363 1031.565c-8.116 4.668-16.437 5.497-24.651 2.178-17.994-7.053-33.284-18.152-46.285-32.258-2.393-2.492-5.201-4.668-7.386-7.262-8.427-10.061-21.01-16.596-22.883-31.947-1.56-13.277-5.2-26.037-3.12-39.934 1.454-9.751.833-19.916 3.015-29.771.935-4.251 2.495-7.935 3.952-12.551 12.275-2.074 24.338-5.083 36.198-8.817 11.128-3.529 20.488-1.868 29.748 6.016 10.609 9.127 18.931 20.02 28.188 30.289 4.473 4.874 4.473 11.302 4.68 17.631.521 26.554-3.327 52.9-2.185 79.456.415 8.607.361 13.509 2.231 22.016.001 1.246 1.549 1.498-1.502 4.954zm-414.353-93.172c0 1.977 1.036 3.953 1.757 5.929 8.081 20.906 16.468 41.813 23.201 63.239 1.036 3.432 2.796 6.137 6.109 7.904 33.143 18.31 67.218 33.492 105.539 36.093 4.452-.413 8.805-.413 12.946-2.704 12.532-7.073 24.579-16.216 36.489-24.435-3.006-.312-3.863.304-2.415-2.92 3.833-8.841 7.562-17.79 11.187-26.731 2.07-5.097 4.764-10.089 3.729-15.914-3.315-17.891-6.834-35.781-8.286-54.086-.62-7.909-4.454-13.73-11.497-18.31-16.467-10.713-33.557-20.386-48.99-32.656-4.868-3.849-10.151-4.472-15.535-3.12-28.689 6.864-57.378 14.042-86.066 20.906-7.976 1.872-13.213 5.882-21.705 5.674-4.554 13.42-6.568 27.297-6.463 41.131z"/><path id="cl1" fill="#468BCA" d="M1563.308 954.371c2.121 11.344-29.063 18.479-34.991 26.176-7.594 9.822-1.881 25.674-8.826 33.241-26.1 28.473-22.545-31.876-32.482-39.258-8.789-6.518-41.961 1.867-45.702-12.351-3.532-13.455 21.484-18.192 31.033-19.93 3.054-.544 3.833-47.27 22.478-49.508 18.646-2.24 13.149 31.085 26.517 41.483 5.294 4.12 24.385 8.328 34.924 13.697 3.884 1.969 6.61 4.11 7.049 6.45zm234.387-14.808c-7.955-4.703-22.37-8.389-26.368-11.999-10.094-9.107-5.943-38.301-20.021-36.338-14.078 1.961-14.665 42.891-16.971 43.367-7.21 1.524-26.099 5.673-23.431 17.458 2.824 12.454 27.869 5.108 34.505 10.819 7.502 6.465 4.819 59.331 24.524 34.388 5.245-6.63.932-20.514 6.664-29.119 4.477-6.741 28.021-12.992 26.419-22.93-.33-2.047-2.39-3.922-5.321-5.646z"/><path fill="#231815" d="M1513.727 956.997c0 4.458-3.764 8.075-8.402 8.075-4.634 0-8.397-3.618-8.397-8.075 0-4.459 3.764-8.064 8.397-8.064 4.638 0 8.402 3.607 8.402 8.064zM1765.581 947.512c0 3.904-2.841 7.072-6.343 7.072-3.5 0-6.342-3.168-6.342-7.072 0-3.907 2.842-7.065 6.342-7.065 3.502 0 6.343 3.159 6.343 7.065z"/></g></svg>