<svg xmlns="http://www.w3.org/2000/svg" id="图层_1" viewBox="0 0 3000 3000"><path d="M1804.317 1032.569c-2.496-4.251-3.64-8.816-3.536-13.793.104-17.942-1.04-35.99.416-53.725 1.243-14.417 1.243-28.834 1.561-43.249.104-5.083-1.248-9.542-4.889-13.173-10.4-10.06-18.615-22.091-30.265-31.012-6.036-4.663-11.44-5.598-18.096-3.835-10.712 2.696-21.32 5.701-31.928 8.503-3.641.935-7.385 2.492-10.505-1.141 0-.625 0-1.348.104-1.973 2.08-3.111 3.848-6.534 6.968-8.919 19.864-15.557 41.08-29.142 63.648-40.449 2.804-1.348 5.721-2.594 8.841-2.696 9.463.411 16.951 4.771 23.812 11.2 16.64 15.35 28.709 33.5 36.509 54.663 1.972 5.391 2.704 10.682 1.561 16.277-.837 3.319-2.289 6.536-4.057 9.439-13.728 23.647-18.096 49.369-17.993 76.231-.105 16.598-6.161 29.329-22.151 37.652zm-171.88-56.97c-.103-20.8.623-41.393-1.967-62.089-2.07-16.12-7.563-29.744-18.848-41.282-14.188-14.561-29.616-27.669-45.564-40.358-9.324-7.384-19.263-11.752-31.275-10.603-20.302 7.384-41.013 13.722-60.581 23.192-11.495 5.512-22.472 11.851-34.486 16.328-15.948 6.032-29.721 15.6-43.288 25.584-.104 4.16-2.797 7.696-2.384 11.96 4.557 3.952 9.217 1.352 13.671.104 30.859-8.944 62.134-15.705 93.408-22.984 5.903-1.352 11.703-1.769 16.881 2.08 15.74 11.856 32.928 21.632 49.189 32.657 6.216 4.263 9.425 10.082 10.041 17.264 1.351 15.6 4.456 30.889 7.146 46.177 1.451 8.211.52 15.704-3.104 23.192a184.675 184.675 0 0 0-9.317 23.088c-1.869 5.824-1.555 6.032 4.348 7.384 5.075-1.768 8.284-5.928 11.807-9.568 13.673-14.04 27.856-27.352 42.563-40.144.415-.836.932-1.566 1.76-1.982z"/><path fill="#C7C8BC" d="M1396.531 886.469c-2.382-5.512-7.974-7.384-12.323-10.603-3.107-2.288-6.525-3.958-6.525-8.528 7.975-6.032 16.984-10.508 25.893-14.872 30.237-14.878 61.204-28.08 92.272-41.08 9.526-3.958 19.052-8.009 28.275-12.48 9.009-4.368 18.434-4.888 28.168-4.269 1.14.108 2.274 1.353 3.416 1.977-3.729-.313-6.734.312-7.975 4.472-.827 2.912-2.178 5.824-2.796 8.736-1.24 5.72-4.143 10.399-9.841 12.167-5.178 1.937-7.402 4.073-12.269 5.718-42.202 16.726-81.449 33.175-119.457 56.575-2.178 1.355-4.25 2.603-6.838 2.187zm173.77 164.118c24.442-15.289 48.882-30.476 71.871-47.949 8.698-6.652 18.434-11.96 25.477-20.592-2.693-1.768-5.699-1.977-8.804-2.6-8.697-1.872-17.813-1.248-26.412-3.848-.516 0-.931 0-1.451.108a8.714 8.714 0 0 0-2.585 1.352c-10.151 6.76-17.709 16.224-26.409 24.337-9.011 8.423-16.362 18.611-27.339 24.852-15.843 9.153-30.963 19.76-48.157 26.629 4.039 1.971 7.251 4.362 6.422 9.771-.518 2.808 1.347 4.368 4.14 4.576 11.19-5.615 22.891-10.087 33.247-16.636zm217.506-14.254c4.939 2.823 23.993-2.934 27.633-3.866 13.936-3.319 24.128-17.84 22.881-32.359-1.873-21.781 3.016-42.213 11.757-62.126 5.923-13.378 12.684-26.966 10.604-42.524-7.385 1.245-13.313 4.149-14.145 12.654-2.288 4.668-4.477 9.333-6.968 13.898-11.545 20.739-15.913 43.142-15.913 66.582 0 6.434.897 13.634-1.278 20.744-3.12 10.267-10.79 16.077-18.174 23.025-4.319 1.518-16.397 3.349-16.397 3.972zm6.314-225.716c-7.484-.415-14.145 2.177-20.692 5.289-16.535 7.884-30.475 19.811-45.868 29.456-12.686 7.883-18.405 19.707-20.485 33.811 12.165-10.058 24.854-19.499 38.274-27.899 13.104-8.193 25.894-17.008 40.665-22.091 1.875-3.527 3.848-7.052 5.515-10.682 1.454-3.215 3.227-5.914 7.174-6.016-1.147-1.349-2.812-1.764-4.583-1.868z"/><path fill="#E7E6E2" d="M1537.163 1067.016c-2.383 2.809-5.8 2.289-8.697 1.769-17.919-3.12-35.937-5.518-52.816-13-11.909-5.309-24.336-9.678-36.142-15.189-9.319-4.367-18.122-9.88-27.236-14.872-5.695-3.12-8.596-8.008-11.702-13.626-5.695-10.293-9.32-21.525-15.947-31.307-6.939-10.293-9.838-22.775-16.36-33.489-2.697-4.366.724-10.086 1.451-15.08 2.899-19.032 5.905-38.064 5.698-57.513 0-2.704-.624-5.615 2.174-7.592 6.317 6.969 17.088 9.152 20.506 19.344.518 4.368-1.035 8.429-1.76 12.589-5.59 22.152-5.074 43.572 5.487 64.584 5.801 11.648 10.046 24.337 13.566 36.92 2.486 8.737 7.663 14.148 15.535 18.201 30.239 15.393 61.512 27.873 95.586 31.617 8.998 2.084 9.208 9.78 10.657 16.644z"/><path fill="#86877F" d="M1555.698 796.508c9.944 4.16 18.847 10.088 27.134 16.848 25.163 20.489 52.295 38.377 75.598 61.153 4.451 4.368 7.041 8.638 7.766 14.977 3.007 28.6 4.455 57.201 3.836 85.904 0 2.398.104 4.889-2.277 6.558-12.112.312-24.233.202-35.416-5.616-3.316-4.16-2.693-9.152-2.693-13.932-.208-16.229.311-32.349-1.865-48.568-2.072-15.601-7.662-29.017-18.744-40.354-13.461-13.837-28.578-25.797-43.081-38.48-9.113-8.007-20.192-9.469-30.861-13 3.109-7.8 8.286-14.561 11.082-22.678 1.342-3.747 5.382-5.097 9.521-2.812zm299.785 77.169c-7.692-16.905-19.865-30.7-32.345-44.08-6.867-7.363-14.561-13.793-24.336-17.216-8.732 1.14-11.753 4.979-12.686 16.697 5.72 1.348 11.754 1.763 16.435 5.809 11.854 10.165 23.293 20.953 30.473 34.95 6.24 12.029 14.248 23.752 13.521 38.372 2.187-3.63 3.952-7.672 8.946-8.297 2.706-.314 3.434-3.009 5.2-4.356.306-7.772-2.088-14.925-5.208-21.879z"/><path fill="#2A2A2A" d="M1804.317 1032.569c-8.117 4.668-16.437 5.497-24.648 2.178-17.992-7.053-33.28-18.151-46.28-32.255-2.392-2.492-5.2-4.668-7.385-7.261-8.428-10.06-21.008-16.595-22.881-31.944-1.56-13.275-5.2-26.034-3.12-39.93 1.453-9.75.833-19.914 3.013-29.767.933-4.251 2.492-7.934 3.952-12.55 12.275-2.074 24.336-5.082 36.196-8.816 11.124-3.53 20.484-1.868 29.745 6.016 10.608 9.124 18.928 20.017 28.185 30.286 4.473 4.873 4.473 11.299 4.681 17.627.52 26.551-3.328 52.895-2.186 79.45.416 8.604.362 13.508 2.232 22.014 0 1.244 1.548 1.496-1.504 4.952zm-414.31-93.163c0 1.977 1.036 3.952 1.755 5.928 8.083 20.904 16.467 41.809 23.201 63.233 1.036 3.432 2.795 6.136 6.108 7.904 33.137 18.309 67.211 33.488 105.528 36.088 4.451-.411 8.803-.411 12.943-2.704 12.531-7.072 24.577-16.215 36.486-24.432-3.008-.312-3.863.304-2.415-2.92 3.833-8.84 7.562-17.789 11.185-26.729 2.071-5.097 4.764-10.088 3.729-15.912-3.314-17.889-6.833-35.777-8.285-54.081-.619-7.909-4.453-13.729-11.495-18.309-16.466-10.712-33.556-20.384-48.987-32.652-4.87-3.849-10.151-4.472-15.536-3.12-28.686 6.864-57.372 14.04-86.057 20.904-7.975 1.872-13.209 5.882-21.7 5.673-4.551 13.424-6.564 27.297-6.46 41.129z"/><path id="cl1" fill="#F7931E" d="M1491.597 1046.697c-.47-.627-4.495-7.767-4.94-8.385-11.954-16.635-9.171-28.449-7.604-47.811 2.57 6.602 5.042 12.413 11.316 16.878 3.15 2.244 9.343 3.595 13.177 5.9.762.943 1.638 1.742 2.65 2.345-.582-.899-1.514-1.663-2.65-2.345-5.584-6.925-4.804-21.91-2.742-28.861 4.268-14.388 9.022-26.888 3.941-41.829-1.906-5.611-7.257-18.099 1.866-9.634 4.501 4.181 7.903 8.746 10.521 14.289 1.481 3.127 2.34 7.341 4.083 10.062 1.089-2.99.774-6.525 1.44-9.719 1.333-6.396 4.707-11.669 7.884-17.258 3.508-6.169 7.519-12.465 9.928-19.168 1.352-3.772 1.122-9.441 3.439-12.553 1.798 7.33 5.021 14.539 5.15 22.196.26 15.031-9.56 26.918-10.502 41.363-.648 9.931 3.431 24.365 12.778 29.844 8.526 4.997 17.329-4.41 19.537-12.347-.478 4.839.858 9.782.314 14.706-.989 8.966-5.11 19.017-8.693 27.205-3.145 7.18-3.011 9.938-8.253 19.083-1.933 1.556-14.311 9.046-14.697 9.201-3.903 1.55-4.695 1.743-8.096 2.283-11.71 1.857-27.73-1.807-39.847-5.445zm290.246-11.169c4.729 1.482 7.846 2.125 13.847.526.328-.087 5.314-1.855 5.642-1.947 4.247-8.217 5.215-20.622 7.761-27.075 2.903-7.358 6.242-16.392 7.044-24.449.439-4.425-.641-8.865-.256-13.215-1.788 7.133-8.919 15.587-15.826 11.097-7.571-4.924-10.875-17.896-10.351-26.82.764-12.982 8.717-23.666 8.508-37.172-.105-6.881-2.714-13.359-4.174-19.947-1.876 2.797-1.689 7.894-2.785 11.283-1.95 6.024-5.2 11.681-8.04 17.225-2.575 5.022-5.308 9.764-6.388 15.51-.539 2.872-.283 6.047-1.167 8.735-1.411-2.446-2.106-6.232-3.307-9.042-2.121-4.981-4.877-9.084-8.523-12.841-7.388-7.608-3.055 3.615-1.513 8.658 4.117 13.427.266 24.66-3.191 37.59-1.669 6.246-2.302 19.714 2.222 25.937.921.614 1.676 1.3 2.147 2.107-.82-.541-1.529-1.259-2.147-2.107-3.104-2.072-8.121-3.286-10.674-5.303-5.083-4.013-7.085-9.235-9.165-15.166-1.271 17.401-6.382 21.417 4.635 35.411 2.405 3.056 13.065 9.946 14.48 10.686 8.285 4.682 11.78 7.36 21.221 10.319z"/></svg>