<svg xmlns="http://www.w3.org/2000/svg" id="eye" viewBox="0 0 3000 3000"><path fill="#C7C8BC" d="M1396.101 884.792c-2.375-5.448-7.952-7.298-12.289-10.483-3.099-2.261-6.507-3.909-6.507-8.43 7.952-5.962 16.938-10.388 25.818-14.703 30.157-14.703 61.036-27.752 92.02-40.604 9.5-3.908 19.002-7.917 28.194-12.332 8.984-4.318 18.382-4.831 28.089-4.218 1.14.108 2.271 1.336 3.409 1.959-3.719-.31-6.716.306-7.953 4.418-.826 2.877-2.167 5.757-2.786 8.637-1.236 5.652-4.233 9.559-9.914 11.307-2.377 4.317-6.922 5.448-11.051 6.887-42.032 14.289-82.31 32.277-120.215 55.408-2.167 1.331-4.232 2.563-6.815 2.154zm138.08 179.377c11.772-5.548 24.063-10.173 35.011-17.063 24.373-15.107 48.844-30.22 71.771-47.493 8.675-6.577 18.381-11.821 25.506-20.454-2.686-1.749-5.68-1.955-8.779-2.569-8.673-1.852-17.764-1.231-26.334-3.804-.517 0-.929 0-1.447.103a8.884 8.884 0 0 0-2.578 1.338c-10.125 6.683-17.662 16.04-26.442 24.16-8.984 8.322-16.316 18.397-27.364 24.563-16.732 9.77-32.222 22.002-51.947 26.112 1.652 2.98 6.3.514 7.539 3.804 0 5.031-5.269 7.504-5.162 12.333 3.514-.003 7.024.408 10.226-1.03zm268.595-33.453c3.607.927 6.701-.924 10.003-1.75 14.64-3.607 24.95-17.514 23.614-32.34-1.859-21.631 2.986-41.922 11.647-61.7 5.775-13.282 12.581-26.777 10.518-42.123-7.322 1.234-13.198 4.124-14.022 12.563-2.27 4.634-4.433 9.269-6.911 13.802-11.444 20.599-15.777 42.845-15.777 66.12 0 6.386 1.135 13.497-2.169 19.157-4.947 8.551-9.693 17.408-17.119 24.307.112.727.216 1.349.216 1.964zm-10.108-222.267c-7.423-.41-14.023 2.163-20.521 5.252-16.397 7.829-30.216 19.673-45.479 29.25-12.578 7.828-18.25 19.569-20.312 33.577 12.063-9.989 24.644-19.363 37.948-27.704 12.989-8.137 25.677-16.893 40.319-21.938 1.858-3.502 3.815-7.005 5.464-10.61 1.448-3.193 3.199-5.866 7.117-5.975-1.133-1.335-2.782-1.747-4.536-1.852z"/><path fill="#86877F" d="M1554.836 795.87c9.604 4.112 18.278 9.664 26.232 16.139 25.404 20.353 52.774 38.445 76.318 61.164 4.13 4.01 6.717 7.915 7.54 13.877 3.511 25.803 5.268 51.707 5.368 77.818 0 4.933.828 10.382-3.82 14.286-12.082.311-24.169.204-35.319-5.55-3.303-4.111-2.685-9.048-2.685-13.775-.204-16.035.311-31.969-1.858-48.005-2.065-15.418-7.642-28.681-18.694-39.891-13.425-13.671-28.504-25.492-42.963-38.033-9.087-7.916-20.139-9.354-30.774-12.851 3.098-7.71 8.26-14.392 11.049-22.409 1.448-3.692 5.475-5.031 9.606-2.77zm298.674 75.201c-7.63-16.788-19.697-30.486-32.073-43.773-6.805-7.312-14.438-13.698-24.128-17.097-8.66 1.133-11.651 4.943-12.583 16.583 5.675 1.338 11.653 1.749 16.296 5.767 11.759 10.092 23.096 20.804 30.216 34.707 6.188 11.944 14.127 23.586 13.41 38.108 2.164-3.605 3.915-7.622 8.865-8.239 2.684-.31 3.404-2.985 5.158-4.324.304-7.722-2.07-14.83-5.161-21.732z"/><path fill="#E7E6E2" d="M1524.059 1064.992c-7.744-2.669-16.006-3.289-23.958-5.034-17.247-3.803-32.946-11.308-49.16-17.683-14.665-5.757-28.4-13.365-41.827-21.69-3.614-2.261-5.889-5.034-7.641-9.047-5.164-11.104-10.742-22.1-16.937-32.586-6.405-10.9-9.915-23.232-16.524-34.025-2.582-4.218.724-9.972 1.446-14.804 2.894-18.811 5.89-37.623 5.68-56.743 0-2.669-.62-5.55 2.17-7.502 6.3 6.888 17.041 9.046 20.453 19.018.513 4.319-1.034 8.327-1.757 12.438-5.161 21.178-5.265 41.634 4.548 61.988 6.402 13.568 11.253 27.859 15.902 42.25 2.067 6.373 6.404 10.075 12.081 13.157 29.331 15.418 60.105 26.728 92.947 32.176 12.494 4.316 13.008 7.812 2.577 18.087z"/><path fill="#2A2A2A" d="M1802.776 1030.716c-8.044 4.74-16.293 3.606-24.441.309-17.838-7.003-32.997-18.024-45.888-32.033-2.371-2.47-5.158-4.633-7.325-7.206-8.35-9.993-20.826-16.583-22.784-31.726-1.654-13.183-5.052-25.955-3.092-39.654 1.446-9.681.828-19.776 2.995-29.561.926-4.222.823-8.857 3.913-12.462 10.932-1.54 21.661-3.709 31.968-7.621 14.025-5.253 26.097-3.398 36.508 7.725 4.539 4.943 11.135 8.238 12.68 15.655 13.024 13.145 19.634 26.104 15.88 48.513.929 14.624-1.65 29.147-1.028 43.776.619 13.593-.412 27.292 2.059 40.789-.004 1.541-.519 2.574-1.445 3.496zm-250.109-138.421c-4.236.205-7.849-.925-11.464-3.491-7.128-5.347-14.77-9.871-21.793-15.317-5.059-3.91-10.533-4.83-16.42-3.394-28.814 6.99-57.938 13.158-86.545 20.971-7.537 2.053-14.665 5.755-22.824 5.346-3.512 9.046-3.409 18.707-4.132 28.165-.723 8.738.826 16.858 4.234 24.98 7.437 17.68 14.253 35.568 20.036 53.864 1.653 5.346 4.648 8.53 9.398 11.308 15.801 9.251 32.939 15.313 49.675 22.307 15.801 6.577 32.222 9.351 48.849 11.615 5.988-.72 12.08.618 17.97-2.878 12.08-7.094 24.374-13.877 35.734-21.999-2.892-.308-4.233-1.438-2.892-4.73 3.822-8.634 7.436-17.473 11.051-26.21 1.963-4.629 4.752-9.253 3.926-14.497-1.758-10.997-3.926-21.896-5.991-32.79-.666-16.017-7.663-38.129-28.812-53.25z"/><path d="M1785.644 895.929c-6.706-8.755-14.424-16.408-22.673-23.519-4.436-3.809-9.798-2.47-14.646-1.231-10.62 2.676-21.035 5.555-31.655 8.443-3.609.93-7.322 2.474-10.417-1.132 0-.618 0-1.338.104-1.958 2.063-3.09 3.815-6.493 6.908-8.859 19.698-15.447 40.733-28.939 63.11-40.166 2.786-1.338 5.671-2.574 8.767-2.677 9.383.41 16.809 4.734 23.611 11.122 16.502 15.244 28.463 33.267 36.197 54.28 1.96 5.356 2.684 10.605 1.545 16.17-.827 3.293-2.27 6.489-4.023 9.372-13.611 23.484-17.942 49.026-17.84 75.703.107 16.685-8.142 28.835-21.86 37.491-2.787-5.98-3.714-12.257-3.607-18.745.104-15.659.104-31.311.104-46.97 0-7.52 2.99-14.622 2.063-22.248-.104-3.605.397-8.282-.314-11.477-1.899-8.549-4.318-14.51-8.983-23.754-1.537-3.049-4.743-6.343-6.391-9.845zm-154.281 76.956c-.104-20.561.62-40.914-1.961-61.371-2.065-15.929-7.54-29.396-18.8-40.804-14.147-14.396-29.533-27.345-45.442-39.891-9.294-7.299-19.204-11.616-31.188-10.483-20.238 7.298-40.895 13.57-60.411 22.923-11.467 5.447-22.41 11.716-34.395 16.14-15.903 5.961-28.331 14.469-41.861 24.334-2.032 3.271-3.11 7.25-3.683 12.773 4.441 3.803 9.092 1.438 13.63.101 29.535-8.633 59.798-14.596 89.645-22.204 10.22-2.568 18.381-.616 26.749 5.655 8.574 6.374 16.997 10.9 27.426 17.898 4.687 4.082 8.303 8.185 9.396 10.302 1.254 2.432 1.254 2.432 6.933 12.505 5.785 10.28 4.795 8.164 7.517 15.291 1.49 3.24 3.304 6.675 4.914 10.306 0 5.756 1.03 11.513 2.375 17.064 2.994 12.336 2.477 23.953-4.029 35.361-3.305 5.856-5.68 12.333-7.435 18.916-.929 3.494-1.862 7.914 4.644 6.269 5.06-1.75 8.261-5.86 11.771-9.457 13.63-13.877 27.783-27.035 42.445-39.68.418-.815.934-1.533 1.76-1.948z"/><path id="cl1" fill="#FFC500" d="M1562.252 915.78l-74.183 5.561-.789-10.518 74.185-5.56.787 10.517zm.698 9.318l-74.183 5.561.788 10.516 74.183-5.561-.788-10.516zm1.487 19.833l-74.184 5.561.788 10.517 74.184-5.56-.788-10.518zm223.595-34.424l-64.14-4.92-.807 10.517 64.139 4.919.808-10.516zm-1.522 19.832l-64.139-4.92-.807 10.516 64.139 4.92.807-10.516zm-1.522 19.831l-64.138-4.919-.806 10.516 64.139 4.92.805-10.517z"/></svg>