<svg xmlns="http://www.w3.org/2000/svg" id="eye" viewBox="0 0 3000 3000"><path fill="#C7C8BC" d="M1399.216 884.781c-2.375-5.473-7.95-7.331-12.286-10.531-3.098-2.272-6.507-3.925-6.507-8.467 7.951-5.989 16.935-10.431 25.814-14.766 30.151-14.768 61.027-27.879 92.004-40.787 9.498-3.926 18.998-7.951 28.188-12.391 8.984-4.337 18.38-4.854 28.087-4.235 1.135.105 2.27 1.342 3.407 1.962-3.717-.31-6.712.31-7.951 4.44-.826 2.891-2.168 5.782-2.786 8.674-1.239 5.679-4.235 9.603-9.914 11.358-2.375 4.337-6.919 5.473-11.049 6.919-42.026 14.352-82.297 32.422-120.192 55.655-2.168 1.343-4.233 2.582-6.815 2.169zm138.056 180.185c11.771-5.574 24.059-10.221 35.005-17.141 24.368-15.179 48.84-30.358 71.764-47.705 8.672-6.607 18.38-11.875 25.503-20.547-2.685-1.755-5.68-1.962-8.777-2.581-8.672-1.861-17.758-1.239-26.33-3.821-.517 0-.928 0-1.444.103a8.81 8.81 0 0 0-2.581 1.344c-10.12 6.712-17.659 16.108-26.436 24.266-8.982 8.363-16.314 18.481-27.363 24.677-16.727 9.81-32.215 22.098-51.938 26.228 1.652 2.994 6.299.516 7.537 3.821 0 5.058-5.266 7.538-5.163 12.391 3.512-.003 7.022.41 10.223-1.035zm267.954-34.385c3.614.93 6.712-.928 10.017-1.755 14.661-3.614 24.987-17.554 23.645-32.421-1.858-21.684 2.994-42.026 11.67-61.852 5.781-13.318 12.596-26.847 10.53-42.23-7.331 1.237-13.217 4.13-14.043 12.596-2.271 4.646-4.439 9.293-6.918 13.837-11.462 20.651-15.799 42.956-15.799 66.292 0 6.402 1.136 13.526-2.168 19.206-4.958 8.571-9.706 17.451-17.143 24.37.106.718.209 1.338.209 1.957zm-10.12-222.83c-7.435-.413-14.044 2.168-20.549 5.266-16.418 7.849-30.254 19.724-45.536 29.326-12.598 7.847-18.276 19.619-20.342 33.661 12.082-10.014 24.679-19.412 37.999-27.774 13.012-8.158 25.711-16.935 40.375-21.994 1.858-3.511 3.819-7.023 5.473-10.637 1.445-3.201 3.2-5.884 7.124-5.989-1.136-1.343-2.788-1.756-4.544-1.859z"/><path fill="#86877F" d="M1557.924 795.463c9.603 4.13 18.276 9.707 26.228 16.211 25.401 20.445 52.765 38.619 76.306 61.438 4.131 4.027 6.712 7.951 7.54 13.939 3.509 25.919 5.266 51.938 5.367 78.167 0 4.956.828 10.429-3.818 14.353-12.081.31-24.163.206-35.314-5.576-3.305-4.13-2.687-9.086-2.687-13.837-.204-16.108.312-32.113-1.858-48.22-2.064-15.488-7.64-28.809-18.689-40.065-13.423-13.733-28.5-25.608-42.956-38.206-9.087-7.949-20.136-9.396-30.771-12.907 3.098-7.744 8.261-14.456 11.049-22.51 1.445-3.716 5.472-5.057 9.603-2.787zm298.104 75.068c-7.641-16.831-19.724-30.564-32.114-43.884-6.814-7.331-14.456-13.733-24.161-17.141-8.674 1.136-11.669 4.956-12.598 16.624 5.68 1.342 11.668 1.756 16.314 5.784 11.772 10.119 23.131 20.856 30.256 34.796 6.195 11.979 14.146 23.646 13.424 38.206 2.169-3.614 3.924-7.64 8.88-8.261 2.685-.31 3.408-2.993 5.163-4.335.309-7.744-2.065-14.87-5.164-21.789z"/><path fill="#E7E6E2" d="M1527.153 1065.793c-7.744-2.686-16.005-3.304-23.956-5.06-17.244-3.821-32.939-11.358-49.15-17.76-14.663-5.782-28.396-13.424-41.819-21.787-3.614-2.272-5.886-5.06-7.642-9.086-5.163-11.154-10.739-22.2-16.935-32.733-6.4-10.945-9.912-23.336-16.521-34.178-2.582-4.235.723-10.016 1.446-14.87 2.891-18.896 5.886-37.792 5.679-56.999 0-2.684-.619-5.574 2.168-7.538 6.3 6.918 17.038 9.086 20.447 19.103.517 4.337-1.032 8.364-1.755 12.494-5.163 21.272-5.267 41.819 4.542 62.266 6.401 13.628 11.255 27.982 15.901 42.438 2.065 6.402 6.402 10.119 12.081 13.217 29.326 15.489 60.096 26.847 92.932 32.32 12.494 4.335 13.011 7.848 2.582 18.173z"/><path fill="#2A2A2A" d="M1805.226 1030.581c-8.054 4.751-16.314 3.614-24.472.31-17.863-7.021-33.043-18.07-45.95-32.113-2.375-2.479-5.163-4.646-7.331-7.228-8.363-10.016-20.858-16.624-22.819-31.803-1.653-13.217-5.06-26.021-3.098-39.754 1.444-9.707.826-19.826 2.993-29.635.93-4.233.825-8.88 3.923-12.494 10.947-1.549 21.685-3.719 32.011-7.642 14.044-5.266 26.126-3.407 36.553 7.744 4.544 4.957 11.152 8.261 12.701 15.695-5.782 5.266-14.146 6.298-19.722 12.391-2.995 3.201-6.301-.105-8.984-2.17-13.319-9.81-23.542-8.88-32.938 2.893-7.848 9.912-5.473 23.233 5.885 32.731 9.707 8.158 22.717 11.565 31.185 21.789 2.581 2.994 4.956-.31 6.712-2.271 7.33-8.158 17.45-12.185 26.33-17.967 2.685-1.754 5.68-3.303 7.436 1.239.928 14.663-1.654 29.222-1.033 43.884.619 13.63-.413 27.363 2.065 40.892-.001 1.548-.518 2.581-1.447 3.509zm-251.639-67.634c-4.956 3.098-7.64 10.947-12.803 11.152-5.886.312-8.572-7.949-13.735-11.358-5.162-3.407-10.53-6.505-15.798-9.705-4.13-2.479-8.261-4.956-11.771-8.261-14.043-12.598-15.282-28.706-3.303-41.716 12.079-13.113 24.266-12.907 38.927.723 2.271 2.169 5.162 5.267 7.744 2.169 4.13-4.751 11.153-6.712 12.907-13.629-4.233.206-7.848-.93-11.461-3.511-7.126-5.37-14.766-9.912-21.787-15.386-5.061-3.924-10.533-4.852-16.419-3.407-28.809 7.021-57.927 13.217-86.529 21.065-7.538 2.065-14.663 5.782-22.821 5.37-3.51 9.086-3.408 18.792-4.13 28.291-.722 8.777.827 16.935 4.234 25.092 7.435 17.759 14.25 35.728 20.031 54.106 1.653 5.37 4.646 8.57 9.397 11.358 15.798 9.293 32.939 15.386 49.667 22.407 15.798 6.607 32.217 9.396 48.841 11.668 5.991-.723 12.081.62 17.967-2.891 12.082-7.125 24.369-13.94 35.728-22.098-2.892-.31-4.233-1.444-2.892-4.75 3.821-8.674 7.435-17.554 11.049-26.331 1.963-4.647 4.75-9.293 3.924-14.561-1.756-11.047-3.924-21.994-5.988-32.938-11.773 2.995-21.066 10.843-30.979 17.141z"/><path d="M1789.221 894.281c-6.712-8.777-15.592-15.282-23.852-22.407-4.442-3.819-9.81-2.477-14.663-1.237-10.636 2.684-21.065 5.574-31.7 8.465-3.614.93-7.331 2.479-10.429-1.136 0-.619 0-1.342.103-1.962 2.065-3.098 3.821-6.505 6.919-8.879 19.722-15.489 40.786-29.015 63.193-40.271 2.786-1.342 5.68-2.582 8.777-2.684 9.396.411 16.831 4.749 23.645 11.151 16.521 15.282 28.5 33.352 36.245 54.417 1.96 5.37 2.684 10.635 1.549 16.211-.828 3.303-2.272 6.505-4.027 9.396-13.631 23.543-17.968 49.15-17.864 75.895.104 16.728-8.157 28.912-21.891 37.586-2.788-5.991-3.717-12.288-3.614-18.793.104-15.695.104-31.391.104-47.085 0-7.54 2.994-14.663 2.064-22.305-.103-3.614 2.272-6.298 3.821-9.188 6.608-12.703 2.581-25.093-10.119-31.494-2.996-1.653-6.609-2.169-8.261-5.68zm-154.783 78.992c-.104-20.651.621-41.096-1.961-61.645-2.064-16.005-7.539-29.531-18.793-40.991-14.146-14.456-29.531-27.468-45.434-40.066-9.293-7.331-19.205-11.668-31.184-10.531-20.238 7.331-40.89 13.628-60.406 23.026-11.461 5.473-22.405 11.77-34.384 16.212-15.902 5.989-28.328 14.534-41.855 24.445-2.03 3.287-3.109 7.282-3.684 12.83 4.442 3.821 9.088 1.446 13.63.103 29.533-8.672 59.787-14.661 89.627-22.303 10.223-2.582 18.381-.619 26.744 5.679 8.57 6.402 16.624 14.559 28.499 15.179 2.377.103 4.854.103 7.229-.105 11.771-.619 20.756 4.235 26.436 14.353 5.781 10.326 4.337 20.445-2.479 29.842-1.652 2.27-3.201 4.44-3.51 7.331 0 5.782 1.033 11.565 2.375 17.141 2.994 12.391 2.478 24.06-4.027 35.52-3.305 5.886-5.68 12.391-7.435 19-.928 3.509-1.858 7.949 4.646 6.298 5.06-1.755 8.261-5.886 11.771-9.5 13.63-13.94 27.776-27.156 42.438-39.857.414-.824.93-1.548 1.757-1.961z"/><path id="cl1" fill="#FF81C0" d="M1789.221 894.281c2.995.93 5.989 1.549 8.777 2.789 15.695 7.228 20.135 24.884 9.706 38.722-1.239 1.651-2.687 3.098-4.027 4.646-4.646 2.891-9.293 5.782-14.042 8.57-11.772 6.712-14.354 8.984-22.924 20.549-5.68-11.875-16.624-16.935-27.054-22.717-5.163-2.788-9.912-6.195-13.526-10.947-11.979-15.489-2.891-38.205 16.521-41.303 7.639-1.237 14.249.828 19.514 6.712 1.549 1.755 2.377 4.235 5.37 5.475 4.957-7.953 12.082-12.496 21.685-12.496zm-200.01 46.363c10.739-14.25 7.641-32.835-6.918-43.162-8.055-5.679-16.934-6.711-26.33-4.853-6.608 3.201-11.255 8.363-15.593 14.663-2.272-2.995-3.924-5.576-5.989-7.849-5.06-5.782-11.668-8.984-19.205-8.363-12.598 1.135-22.098 7.641-27.261 19.206-5.06 11.358-2.995 22.2 4.75 31.907 4.854 5.989 11.255 10.223 17.967 13.63 11.875 6.195 23.336 12.802 29.842 26.742 5.574-10.945 13.318-17.554 22.304-22.921 7.33-4.337 14.662-8.882 21.993-13.424 1.446-1.859 2.995-3.718 4.44-5.576z"/></svg>