<svg xmlns="http://www.w3.org/2000/svg" id="图层_1" viewBox="0 0 3000 3000"><path fill="#C7C8BC" d="M1395.693 956.834c6.864-10.981 15.629-20.593 23.761-30.625 8.869-11.088 20.593-18.902 32.209-26.718 5.701-3.801 12.354-4.645 18.902-5.913 15.42-3.063 30.837-6.02 45.938-10.349 13.623-3.908 25.769-10.561 37.808-17.848 15.947-9.505 29.78-21.754 44.461-33.054 5.913 11.405 10.771 23.127 8.343 36.539-17.531 19.432-40.024 30.52-64.631 37.597-16.157 4.752-32.632 8.766-49.423 10.666-25.241 2.956-44.882 14.996-60.935 33.9-8.343 8.237-12.884 19.536-21.65 27.457-7.919-5.177-15.101-10.881-14.783-21.652zm120.39 116.061c1.161-1.268 3.062-.845 4.329-1.9 23.866-5.492 45.622-16.158 65.898-29.465 22.282-14.573 42.242-32.421 64.208-47.522 5.597-3.801 12.144-7.286 15.524-13.834-.951-1.584-2.535-2.112-4.331-2.429-9.822-1.374-19.643-2.748-29.57-4.119-.528 0-.948.105-1.478.105-.951.319-1.795.74-2.639 1.268-17.109 13.728-32.845 28.936-48.474 44.249-17.213 12.356-34.955 23.654-55.126 30.625 1.691 1.901 4.542 2.957 1.162 6.336-4.752 4.752-9.716 9.716-11.616 16.581.74.21 1.479.21 2.113.105zm309.529-116.271c-1.162 9.293-3.273 18.481-2.64 28.091.739 11.299-1.161 22.177-9.188 31.26-4.541 5.174-8.342 11.194-12.463 16.791 2.642.211 4.753-1.268 6.865-2.429 17.637-9.927 31.048-22.285 29.146-45.199-1.372-17.216 4.647-33.16 11.196-48.79 6.124-14.574 13.2-28.831 11.616-45.305-1.375 1.479-2.536 3.803-4.224 4.331-5.388 1.793-8.133 5.914-10.456 10.561-8.446 16.261-17.527 32.208-19.852 50.689zm-84.801-169.92c-18.271 15.208-25.239 35.906-27.879 58.61 3.695-8.976 8.977-17.213 13.095-25.873 5.069-10.772 13.201-16.792 24.5-19.114 2.851-5.808 2.746-12.461 4.542-18.588-5.809-1.476-10.245 1.692-14.258 4.965z"/><path fill="#86877F" d="M1604.896 868.125c1.373-5.701-.211-10.981-1.688-16.369-1.796-6.441-4.119-12.672-4.543-19.429 6.336-1.692 11.827 1.161 17.107 3.907 14.363 7.393 28.408 14.994 38.652 28.406 5.387 7.076 7.815 14.892 9.083 23.128 4.54 27.458 4.964 55.231 6.652 82.9.213 3.591 1.479 8.132-4.012 9.399-11.724-1.163-23.867.209-34.428-6.655-3.063-4.752-2.431-10.033-2.323-15.205.315-19.537-1.056-38.969-3.38-58.4-1.793-14.574-6.545-25.979-21.12-31.682zm255.25 23.024c-1.163-17.216-10.033-30.837-19.96-44.249-12.461-16.791-27.563-30.837-43.721-43.51-12.145-9.61-25.45-18.691-41.396-21.649-5.176 5.28-6.128 11.616-4.543 18.588 13.52 1.477 23.762 9.61 34.217 17.213 25.027 18.27 46.043 39.602 57.344 69.383 2.534 6.544 3.803 12.564 3.379 19.217 6.759-3.272 12.143-7.708 14.68-14.993z"/><path fill="#E7E6E2" d="M1395.693 956.834c2.957 8.449 9.713 14.257 14.784 21.228.634.74.949 1.689 1.057 2.641-.318 4.857-1.268 9.716 1.584 14.149 3.377 12.463 11.722 19.645 23.338 24.924 28.091 12.884 56.5 24.182 87.336 28.197 6.336 2.429 6.546 6.125 2.533 11.088-3.905 4.752-7.285 10.033-12.25 13.938-8.765-.421-16.473-4.541-24.5-7.181-12.25-4.118-24.499-8.659-36.116-14.15-16.792-7.92-33.16-16.579-49.529-25.452-4.329-2.323-6.652-7.075-8.025-11.828-2.22-8.026-3.908-16.369-6.548-24.289-4.225-12.461-1.69-23.338 6.336-33.265z"/><path d="M1782.42 1032.553c.847-1.162 1.479-2.533 2.534-3.379 11.828-9.925 17.742-22.282 19.748-37.911 2.746-22.071 3.907-44.038 2.641-66.003-.528-9.715-5.598-18.588-10.878-27.036-8.027-12.99-18.481-23.762-29.992-33.583-13.624-11.617-28.936-10.138-44.777-5.492-3.483 1.057-7.497 5.281-11.405.212-.844-4.964 2.218-9.188 2.746-13.94 2.535-12.989 8.659-24.498 15.947-35.166 4.963-7.181 12.884-10.772 21.543-11.933 7.604-.105 14.469 2.745 20.7 6.759 31.574 20.485 59.139 44.459 73.396 80.788 2.745 7.075 4.645 13.834 3.062 21.331-6.229 16.58-17.425 31.26-19.115 49.741-.844 9.716-3.907 19.326-3.168 29.147 1.585 20.7-8.237 35.377-24.078 46.994-6.338 1.055-12.674 1.055-18.904-.529zm-151.967-56.604a9.592 9.592 0 0 1 1.901-2.218c.634-22.071 1.056-44.144-2.429-66.003-1.479-9.294-1.268-18.903-5.388-27.668-4.646-9.716-9.187-12.567-19.537-11.828-20.274 19.326-44.354 31.682-71.492 37.912-17.426 4.014-34.957 7.392-52.487 10.667-21.966 4.118-38.229 16.369-51.219 33.899 5.914 2.535 10.561-1.584 15.63-3.062 33.582-10.033 67.059-20.488 102.965-18.48 10.138.528 19.326 3.168 28.303 7.181 7.074 3.06 12.144 8.341 15.206 15.417 6.653 14.892 6.76 29.992.423 44.882-2.64 6.126-5.491 12.145-9.505 17.636-1.267 1.689-3.591 3.908-.635 6.336 16.16-14.785 31.262-30.73 48.264-44.671z"/><path fill="#2A2A2A" d="M1782.42 1032.553c-13.622-3.061-25.451-9.716-35.694-19.009-8.766-8.025-17.743-15.945-25.769-24.817-15.947-17.53-24.817-37.806-22.177-62.199 1.794-16.792 3.485-33.584 8.026-49.846 1.585-5.703.634-11.933 3.589-17.425.74-.108 1.375-.212 2.007-.423 29.993-12.777 53.648-4.117 73.606 20.277 15.419 18.798 26.191 38.334 25.03 63.997-.847 19.009-1.691 37.913-4.86 56.606-2.531 14.569-10.03 26.082-23.758 32.839zm-186.287-37.701c9.819-31.682.104-65.157-44.463-68.221-42.662-2.957-82.581 9.293-121.867 24.078-7.71 8.132-14.892 16.685-19.22 27.246 0 .74-.106 1.375-.106 2.112-1.163 4.963-1.267 9.823 0 14.785 1.478 3.907 3.062 7.815 4.331 11.828 1.055 3.168 2.534 5.597 5.596 7.287 32.632 18.164 66.426 33.054 104.233 36.117 3.802-.951 7.814.845 11.404-.951 16.054-8.448 31.999-17.002 46.257-28.409 4.223-8.869 10.878-16.368 13.835-25.872z"/><path id="cl1" fill="#FBE601" d="M1767.317 910.79c8.344 0 15.42 7.181 15.313 15.525-.105 8.343-7.285 15.523-15.523 15.417-8.238 0-15.419-7.285-15.419-15.629.106-8.343 7.181-15.313 15.629-15.313zm-209.415 41.611c.316-11.3-8.978-21.016-20.276-21.333-11.194-.317-21.121 9.293-21.121 20.486-.105 11.617 8.977 20.593 20.805 20.593 11.088-.001 20.276-8.766 20.592-19.746z"/></svg>