<svg xmlns="http://www.w3.org/2000/svg" id="eyes" viewBox="0 0 3000 3000"><path fill="#E7E6E2" d="M1398.409 952.32c4.938 7.148 12.189 12.717 15.026 21.437 4.31 5.149 1.576 11.98 4.098 17.549.841 9.247 6.411 14.816 14.396 18.915 28.373 14.922 56.851 29.423 89.529 32.365a11.962 11.962 0 0 1 6.622 2.731c3.468 4.729-1.261 7.251-2.944 10.508-2.31 4.521-7.355 7.041-8.825 12.192-1.891 2.417-4.099 1.892-6.514.84-19.021-7.774-38.461-14.604-56.851-23.644-14.922-7.355-29.108-16.393-44.135-23.853-4.835-2.417-8.198-6.621-9.668-11.875-3.152-11.034-6.305-22.067-8.616-33.311-2.206-9.143 2.417-16.813 7.882-23.854z"/><path fill="#2A2A2A" d="M1792.979 1023.671c-21.909-6.831-41.981-16.921-59.355-31.843-6.368-5.462-12.843-11.034-19.75-15.867-3.562-2.417-4.316-6.201-6.799-9.037-8.204-15.762-6.586-32.261-3.668-48.653 2.589-14.294 6.15-28.48 11.871-42.033a7.046 7.046 0 0 1 2.48-2.209c1.943-.21 3.67.525 4.534 1.997 11.223 18.282 25.9 33.731 40.684 49.179.431.421.325 1.261.214 1.997-2.372 2.834-6.258 3.153-8.957 5.359-6.15 4.833-7.229 11.874-2.482 17.234 4.965 5.78 12.842 5.78 18.777.418 2.589-2.312 2.807-7.773 8.418-6.305 12.086 9.878 20.074 22.593 25.037 36.887 5.617 16.287 1.3 30.683-11.004 42.876zm-365.147-12.609c25.535 14.082 51.596 26.375 80.283 32.786 6.831 1.47 13.977.63 20.7 3.152 19.649-5.044 35.623-17.128 52.437-27.532-3.363-3.153.315-4.939 1.576-6.936 7.461-11.033 13.45-22.593 14.921-36.253 1.576-14.711-2.627-35.938-23.961-44.03-16.496-6.2-32.993-6.305-49.494-4.308-15.132 1.892-30.158 5.672-44.765 9.983-20.073 5.884-37.514 15.973-50.124 33.836-4.729 6.724-7.881 14.605-13.977 20.385.215 8.831 4.523 14.611 12.404 18.917z"/><path fill="#86877F" d="M1608.784 868.464c.735-7.773-.841-15.237-3.048-22.485-1.261-4.414-1.681-8.828-1.155-13.346 1.366 0 2.627 0 3.993.105 1.261 1.051 3.153.736 4.519 1.576 17.549 8.092 34.152 17.234 45.502 33.837 3.469 5.044 5.674 10.404 6.515 16.288 4.413 31.525 5.36 63.156 4.31 94.89-13.452 3.048-26.063-.315-38.672-4.621-1.785-3.363-.944-6.726-.631-10.193 2.207-23.75-.21-47.288-2.207-70.931-1.156-12.195-7.986-20.391-19.126-25.12zm237.723 117.164c1.728-7.671 1.944-15.447-.97-22.803-8.849-21.963-22.017-41.192-42.198-54.539-22.23-14.604-43.058-30.264-58.276-52.121-4.746-6.831-11.655-11.349-19.099-15.026-2.051-1.051-3.994-1.472-6.046 0-5.07 10.926-8.633 21.959-2.158 33.626.539-.21 1.079-.315 1.618-.525 5.182-8.828 7.231-9.04 12.951-1.261 3.776 5.149 7.985 9.878 12.521 14.291 12.41 11.877 27.192 20.599 42.302 28.48 25.9 13.45 39.822 35.203 47.81 61.684 1.079 3.467 1.079 6.83.754 10.4 4.316 2.523 7.661.634 10.791-2.206z"/><path fill="#C7C8BC" d="M1398.409 952.32c8.09-10.926 16.603-21.542 25.955-31.417 9.142-9.772 19.859-17.549 31-24.802 7.355-4.833 15.867-4.833 23.959-6.62 7.776-1.787 15.763-2.837 23.644-4.308 36.779-6.726 67.988-24.38 95.31-49.389 1.787-1.681 3.469-3.573 6.306-3.048 4.622 11.034 7.565 22.278 6.409 34.362-.945 4.414-4.308 7.041-7.565 9.562-19.02 14.712-40.14 25.115-63.891 29.949-18.809 3.784-37.724 6.936-56.639 10.088-18.915 3.153-33.209 13.661-45.502 27.637-8.3 9.353-15.342 19.651-23.012 29.528-7.673-5.462-13.873-12.085-15.974-21.542zm126.834 113.282c25.324-7.251 49.282-17.657 70.722-32.894 16.497-11.664 32.47-23.958 49.493-34.992 8.407-5.465 16.709-11.139 23.854-18.282-2.102.207-4.098-.21-6.094-.633-10.509-1.787-20.912-4.729-31.736-3.57-5.884-.108-9.563 4.204-13.24 7.563-11.979 10.719-24.378 20.912-35.412 32.684-.735.63-1.472 1.26-2.207 1.892-.736.525-1.576 1.156-2.313 1.682-16.394 9.564-32.995 18.599-49.598 27.847-4.414 6.097-8.724 12.084-14.081 17.338-2.311 2.312-1.051 3.362 1.576 3.678 2.942-.737 5.989-1.37 9.036-2.313zm186.365-217.318c-18.236 33.101-18.776 68.304-12.302 104.032.97 5.359 2.698 10.929 7.769 14.501-4.206-18.705-3.452-37.305.866-55.799 2.805-12.189 6.582-24.169 9.819-36.253-1.401-11.349 2.27-22.383 2.158-33.626-5.287-.211-6.475 3.891-8.31 7.145zm89.897 177.591c7.769 4.519 14.138 1.681 20.18-3.573 11.547-10.087 19.317-22.697 24.821-36.671-3.563.735-7.123 1.468-10.793 2.206-8.092 15.55-19.964 27.845-34.208 38.038z"/><path d="M1762.655 926.782c-11.224-7.251-18.347-18.39-27.196-27.955-6.69-7.248-13.814-15.023-17.699-24.061 2.173-4.9 3.079-6.117 5.828-8.408 3.358-2.797 6.584-.315 8.526 2.417 16.401 24.379 42.735 36.464 66.799 51.386 21.476 13.45 31.406 34.569 38.852 57.163 1.079 3.363 1.189 6.83.11 10.301-5.937 13.553-15.109 24.694-26.98 33.942-2.914 2.312-6.045 3.363-9.39 4.203-3.021-.107-5.827-.632-8.417-2.208.107-2.943 1.402-5.57 3.128-7.564 5.937-6.831 5.937-15.345 7.445-23.436.431-2.31.431-5.147-.648-7.146-5.826-11.451-9.173-24.273-19.749-32.993-2.698-2.312-5.181-4.837-5.829-8.515-4.097-6.303-8.738-12.293-14.78-17.126zm-132.118-34.567c-.42-5.149-2.102-10.193-4.835-14.711-3.784-6.516-8.825-10.719-17.021-8.932-9.775 9.139-20.912 16.078-32.786 22.275-22.7 11.877-47.707 15.132-72.402 19.548-12.294 2.207-25.325 2.417-36.674 7.986-24.377 11.876-41.298 31.525-53.486 55.379 0 6.201-1.996 12.717 1.892 18.497 5.78.733 6.62-4.31 8.616-7.673 14.292-24.169 34.994-39.406 62.524-45.604 12.295-2.735 24.485-6.305 36.885-7.881 15.973-2.102 32.051-2.837 47.604 3.36 18.598 7.463 26.271 21.65 23.748 41.718-1.576 12.192-6.305 22.701-12.925 32.893-1.894 2.943-1.999 5.078-2.369 9.258l3.522-2.849c.736-.632 8.319-4.925 9.057-5.556 15.972-14.187 22.681-21.24 39.388-34.48 5.251-27.956 1.678-55.593-.738-83.228z"/><path id="cl1" fill="#019FFB" d="M1762.655 926.782c9.82 1.681 14.353 7.881 14.998 17.128-.97 2.207-1.832 4.519-3.128 6.516-3.776 5.672-10.038 8.092-16.513 6.515-6.8-1.576-11.979-7.463-12.302-13.979-.324-6.197 3.453-12.084 9.82-14.711 2.159-.731 4.642-.944 7.125-1.469zm-202.84 22.911c.106-11.241-9.351-20.698-20.807-20.491-10.929.108-20.071 9.143-20.28 19.966-.211 11.244 9.246 20.491 20.806 20.387 11.14-.104 20.072-8.933 20.281-19.862z"/></svg>