<svg xmlns="http://www.w3.org/2000/svg" id="eyes" viewBox="0 0 3000 3000"><path d="M1803.367 1028.878c-2.468-4.215-3.599-8.739-3.496-13.674.105-17.787-1.028-35.677.412-53.258 1.233-14.292 1.233-28.585 1.542-42.874.103-5.039-1.234-9.459-4.833-13.058-10.281-9.973-18.401-21.899-29.919-30.742-5.963-4.626-11.31-5.549-17.89-3.801-10.59 2.673-21.077 5.655-31.564 8.428-3.598.926-7.3 2.468-10.385-1.131 0-.616 0-1.336.104-1.954 2.057-3.084 3.804-6.478 6.888-8.842 19.641-15.422 40.612-28.891 62.924-40.098 2.776-1.336 5.654-2.57 8.739-2.673 9.355.409 16.759 4.729 23.545 11.104 16.45 15.216 28.377 33.209 36.088 54.184 1.954 5.343 2.673 10.59 1.542 16.139-.822 3.29-2.262 6.48-4.01 9.359-13.569 23.441-17.888 48.939-17.787 75.569-.103 16.451-6.092 29.071-21.9 37.322zm-170.057-55.212c-.103-20.563.62-40.92-1.95-61.381-2.057-15.937-7.508-29.405-18.713-40.815-14.086-14.394-29.405-27.352-45.239-39.895-9.253-7.3-19.123-11.618-31.05-10.484-20.152 7.299-40.715 13.568-60.147 22.927-11.412 5.449-22.308 11.719-34.237 16.143-15.833 5.963-29.508 15.422-42.977 25.292-.105 4.113-2.776 7.609-2.367 11.824 4.523 3.907 9.15 1.336 13.571.103 30.64-8.842 61.689-15.525 92.739-22.722 5.861-1.336 11.618-1.748 16.759 2.056 15.629 11.721 32.696 21.385 48.838 32.285 6.169 4.215 9.358 9.97 9.974 17.067 1.336 15.422 4.421 30.537 7.094 45.65 1.438 8.12.515 15.525-3.084 22.928s-6.683 15.011-9.253 22.825c-1.854 5.757-1.543 5.963 4.315 7.299 5.038-1.748 8.225-5.86 11.721-9.459 13.572-13.88 27.658-27.04 42.257-39.687.413-.822.926-1.544 1.749-1.956z"/><path fill="#C7C8BC" d="M1399.096 885.553c-2.365-5.449-7.916-7.3-12.232-10.484-3.084-2.262-6.479-3.91-6.479-8.431 7.916-5.963 16.861-10.387 25.704-14.703 30.021-14.705 60.766-27.76 91.61-40.612 9.458-3.91 18.917-7.917 28.069-12.338 8.944-4.318 18.301-4.833 27.966-4.218 1.13.105 2.26 1.336 3.393 1.954-3.701-.308-6.683.308-7.917 4.421-.822 2.878-2.159 5.757-2.773 8.637-1.233 5.655-4.114 10.281-9.77 12.029-5.141 1.917-7.35 4.026-12.184 5.655-41.898 16.535-80.862 32.796-118.598 55.93-2.162 1.338-4.218 2.572-6.789 2.16zm172.524 162.246c24.268-15.114 48.529-30.128 71.354-47.4 8.637-6.578 18.301-11.824 25.293-20.357-2.673-1.748-5.655-1.954-8.74-2.57-8.634-1.851-17.681-1.234-26.218-3.805-.514 0-.923 0-1.437.105a8.717 8.717 0 0 0-2.57 1.336c-10.078 6.683-17.584 16.039-26.218 24.06-8.945 8.328-16.247 18.401-27.144 24.57-15.731 9.048-30.74 19.535-47.81 26.323 4.01 1.951 7.197 4.315 6.375 9.662-.515 2.776 1.336 4.318 4.112 4.524 11.104-5.552 22.722-9.973 33.003-16.448zm215.426-15.191c4.883 2.798 23.725-2.908 27.323-3.833 13.774-3.29 23.852-17.684 22.619-32.079-1.852-21.591 2.979-41.846 11.618-61.587 5.86-13.261 12.543-26.732 10.487-42.154-7.303 1.234-13.161 4.113-13.985 12.544-2.261 4.626-4.421 9.253-6.888 13.777-11.414 20.563-15.732 42.771-15.732 66.007 0 6.373.89 13.516-1.259 20.563-3.085 10.176-10.667 15.937-17.968 22.823-4.275 1.508-16.215 3.323-16.215 3.939zm6.245-223.755c-7.402-.412-13.985 2.159-20.46 5.243-16.349 7.817-30.125 19.641-45.342 29.2-12.544 7.813-18.198 19.535-20.255 33.518 12.03-9.97 24.573-19.329 37.836-27.655 12.958-8.123 25.602-16.862 40.204-21.899 1.851-3.497 3.802-6.995 5.448-10.593 1.439-3.187 3.188-5.857 7.094-5.963-1.131-1.337-2.777-1.749-4.525-1.851z"/><path fill="#E7E6E2" d="M1538.72 1064.041c-2.365 2.776-5.758 2.262-8.634 1.748-17.789-3.084-35.678-5.452-52.437-12.852-11.824-5.246-24.162-9.564-35.883-15.014-9.253-4.317-17.993-9.767-27.041-14.702-5.655-3.084-8.533-7.917-11.618-13.469-5.655-10.179-9.253-21.283-15.834-30.95-6.889-10.176-9.768-22.514-16.245-33.107-2.676-4.316.719-9.971 1.437-14.908 2.882-18.815 5.861-37.63 5.655-56.857 0-2.673-.616-5.55 2.162-7.505 6.271 6.889 16.964 9.048 20.357 19.124.514 4.318-1.028 8.331-1.748 12.443-5.549 21.9-5.035 43.077 5.451 63.848 5.758 11.516 9.971 24.06 13.47 36.5 2.467 8.637 7.607 13.986 15.422 17.993 30.022 15.217 61.072 27.555 94.898 31.256 8.943 2.058 9.148 9.666 10.588 16.452z"/><path fill="#86877F" d="M1557.124 796.617c9.87 4.113 18.713 9.973 26.938 16.656 24.984 20.255 51.922 37.939 75.056 60.456 4.421 4.318 6.991 8.536 7.711 14.806 2.979 28.274 4.421 56.549 3.804 84.925 0 2.368.104 4.833-2.262 6.48-12.029.309-24.059.203-35.163-5.552-3.29-4.113-2.673-9.047-2.673-13.776-.205-16.041.309-31.977-1.854-48.014-2.056-15.422-7.605-28.686-18.608-39.894-13.366-13.676-28.377-25.5-42.771-38.042-9.051-7.916-20.049-9.358-30.642-12.852 3.084-7.711 8.226-14.395 11.001-22.416 1.34-3.701 5.351-5.036 9.463-2.777zm296.829 74.748c-7.609-16.759-19.641-30.433-31.979-43.697-6.785-7.299-14.395-13.674-24.057-17.067-8.637 1.13-11.619 4.935-12.543 16.553 5.654 1.336 11.617 1.748 16.244 5.76 11.722 10.076 23.031 20.766 30.126 34.646 6.169 11.929 14.085 23.545 13.366 38.042 2.16-3.599 3.908-7.605 8.844-8.225 2.673-.308 3.393-2.979 5.141-4.315.306-7.712-2.058-14.809-5.142-21.697z"/><path fill="#2A2A2A" d="M1803.367 1028.878c-8.02 4.627-16.244 5.449-24.367 2.159-17.787-6.991-32.901-17.993-45.753-31.975-2.365-2.468-5.141-4.627-7.3-7.197-8.328-9.973-20.769-16.45-22.619-31.667-1.543-13.16-5.141-25.809-3.085-39.584 1.44-9.665.822-19.741 2.982-29.508.923-4.215 2.465-7.866 3.906-12.44 12.133-2.056 24.057-5.038 35.78-8.739 11.001-3.496 20.255-1.854 29.404 5.963 10.487 9.047 18.713 19.843 27.866 30.022 4.421 4.83 4.421 11.204 4.626 17.479.515 26.32-3.29 52.436-2.161 78.756.411 8.533.359 13.391 2.208 21.822.001 1.233 1.531 1.482-1.487 4.909zm-410.748-90.992c0 1.954 1.028 3.907 1.748 5.861 8.019 20.666 16.345 41.332 23.028 62.511 1.028 3.393 2.776 6.067 6.066 7.814 32.901 18.098 66.727 33.107 104.769 35.677 4.422-.409 8.739-.409 12.852-2.673 12.441-6.991 24.398-16.03 36.223-24.154-2.982-.308-3.836.3-2.397-2.887a1195.644 1195.644 0 0 0 11.104-26.424c2.057-5.038 4.731-9.973 3.703-15.73-3.291-17.685-6.788-35.369-8.226-53.464-.618-7.816-4.422-13.572-11.414-18.098-16.346-10.59-33.311-20.152-48.633-32.282-4.831-3.804-10.075-4.421-15.422-3.084-28.479 6.786-56.958 13.88-85.439 20.666-7.917 1.851-13.117 5.814-21.546 5.609-4.52 13.266-6.518 26.984-6.416 40.658z"/><path id="cl1" fill="#FBE501" d="M1464.762 927.364c4.792-15.491 19.534 1.086 21.934 5.484 2.399 4.397 9.253 6.854 9.253 6.854s15.421 1.368 15.422 10.625c.002 13.707-8.645 6.951-14.471 15.984-5.827 9.033 6.761 14.86-.266 19.657-7.025 4.798-12.338-7.884-22.277-7.884-9.939 0-13.568 5.611-17.901 7.874-3.696 1.931-16.714 3.095-14.315-8.559s12.68-15.688 9.253-21.553-12.338-8.265-7.54-15.119c4.799-6.853 16.795-.069 20.908-13.363zm262.494 9.715c-3.911 5.593 3.354 7.55 6.146 12.338 2.794 4.787-5.587 8.079-7.542 17.588s8.655 8.561 11.669 6.984c3.533-1.848 6.491-6.425 14.592-6.425s12.432 10.347 18.157 6.432c5.728-3.916-4.53-8.669.218-16.042 4.749-7.372 11.798-1.857 11.796-13.043-.001-7.554-12.572-8.671-12.572-8.671s-5.587-2.004-7.543-5.593c-1.955-3.589-13.973-17.117-17.879-4.476-3.354 10.85-13.132 5.316-17.042 10.908z"/></svg>