<svg xmlns="http://www.w3.org/2000/svg" id="eyes" viewBox="0 0 3000 3000"><path fill="#C7C8BC" d="M1401.18 888.732c-.725-5.282-4.662-8.08-8.598-10.979-3.522-2.59-8.08-3.937-10.359-8.184.208-.311.415-.621.621-.829 28.076-14.294 54.901-30.869 84.321-42.471 8.287-3.211 16.367-7.043 24.55-10.462 4.765-1.969 9.426-4.25 14.709-4.351-1.143 8.494-3.004 16.781-6.216 24.758-21.341 8.597-42.059 18.538-63.084 27.968-12.431 5.59-25.379 11.188-33.148 23.618-.724.932-1.656 1.14-2.796.932zm106.074 137.046c32.005-11.187 62.67-25.896 93.953-38.845 2.276-.929 4.766-1.239 4.865-4.454-3.211-5.179-7.354-9.426-12.43-12.741-5.072-1.969-9.116 1.139-13.467 2.693-19.992 11.084-42.574 15.853-63.291 25.275-13.674 6.215-27.969 11.084-41.436 17.92 5.072 4.351 5.18 12.02 10.462 16.164 8.188 1.862 14.3-3.525 21.344-6.012zm308.173-200.752c-12.742-3.936-24.033.726-35.327 6.008-3.729 1.761-7.562 3.215-11.395 4.769-16.885 6.941-33.148 14.913-48.789 24.343-6.216 3.833-10.465 8.698-10.359 16.467 22.375-9.008 44.854-17.61 66.917-27.243 11.19-4.869 21.961-9.53 34.498-8.39 4.662-4.352 7.665-9.324 4.455-15.954zm17.194 155.692c4.662-2.071 6.94-3.518 8.081-8.697 4.144-19.475 9.947-38.433 19.888-55.938 2.179-3.833 2.901-8.392 4.351-12.536-6.111-4.144-11.395-2.384-16.263 2.277-9.841 18.335-19.785 36.67-21.339 58.009-.207 2.797-1.554 4.456-4.04 5.287-3.832 1.241-7.562 3.211-11.806 3.211-2.071 1.243-4.769.104-6.733 1.658-.725.106-1.35.106-2.071.207-3.733 3.107-8.287 1.865-12.538 2.383 13.673 7.35 27.243 10.872 42.47 4.139z"/><path fill="#E7E6E2" d="M1485.914 1031.89c-21.546-3.004-41.12-12.845-62.045-18.128-6.01-1.554-8.805-5.076-10.984-10.773-9.116-24.446-17.195-49.407-33.458-70.439-4.454-5.697-3.936-12.534-3.108-18.849 1.761-13.574 4.351-27.04 4.351-40.814 0-.828 1.036-2.482 1.554-3.315 9.427 3.94 18.749 8.913 21.235 20.407.208 2.696.518 5.594-.622 8.08-4.661 10.358-2.178 20.614-.518 30.973-1.66 3.518-2.178 6.836-.314 10.669 7.565 15.746 15.334 31.387 21.753 47.547 1.036 2.589 2.797 3.729 5.287 3.936 16.056 6.94 31.905 14.295 47.443 22.479 5.387 4.864 8.494 10.976 9.426 18.227zm217.431-119.85c-1.243-4.247.621-8.391 0-12.638-3.626 2.697-2.072 8.805-6.837 10.773-1.761-.725-1.66-2.279-1.45-3.418 1.243-6.63.726-12.12-7.147-14.192-1.036-.311-2.072-1.864-2.483-3.004-.725-2.072 1.657-6.733-3.215-5.383-3.107.829-1.446 4.765-1.139 7.354.104 1.036 1.036 1.969.933 2.9-.518 7.458 6.216 13.056 4.865 20.717-.411 2.797-1.554 6.94 2.071 8.287 4.769 1.867 8.184 8.287 14.609 4.869 0-3.315-.107-6.627-.107-9.944 1.143-2.072 1.35-4.25-.1-6.321zm-5.595 68.678c.315 1.244 1.351 2.279 2.279 3.315.933.933 1.969 1.968 3.522 1.346 1.554-.621 1.657-1.964 1.761-3.311.104-2.072.312-4.351-1.242-5.805-4.559-4.247-6.323-10.251-10.984-14.813 1.557 6.424 3.008 12.949 4.664 19.268z"/><path fill="#F8F7F7" d="M1401.077 930.375c11.395 19.682 18.852 41.02 26.726 62.152-3.315 3.315-5.179.726-5.905-1.969-3.314-13.151-11.498-24.235-15.949-36.876-1.969-5.8-5.387-11.187-8.083-16.677-1.658-3.523-1.347-6.009 3.211-6.63z"/><path d="M1709.457 878.581c-.107-.621 0-1.243.103-1.864 2.175-4.454 6.63-5.697 10.67-7.354 22.789-9.22 45.89-18.025 68.367-28.076 7.148-3.21 14.71-2.797 22.168-2.382 5.905.829 9.634 4.869 13.259 8.908 11.913 13.056 19.371 28.8 25.587 45.168 1.554 4.247 1.554 8.697.726 13.156-8.185 18.849-18.128 37.084-20.825 58.112-1.139 8.702-10.358 8.805-17.297 10.359-2.796.103-5.252.768-9.343 1.104-1.142-.314-.914-1.726-1.534-2.761-2.277-6.423-1.554-12.846-.518-19.371 2.177-13.056 2.795-26.522-1.449-38.742-5.594-15.746-17.299-27.861-32.217-35.738-5.803-3-12.844.311-19.27 1.036-9.841 1.143-19.576 3.936-29.417 4.869-3.935.309-9.748-2.825-9.01-6.424zm-114.879 89.502c12.327-15.127 21.65-32.837 36.98-45.578 1.446-1.243 1.864-2.797 1.761-4.559-.414-12.842-2.386-25.689-8.394-36.876-4.869-9.116-15.849-11.502-25.068-15.228a58.066 58.066 0 0 0-3.83-1.451c-20.613-6.733-41.123-13.569-61.841-19.992-11.084-3.418-22.168-7.458-34.081-7.354-10.876.726-20.61 4.765-30.041 9.734-10.358 5.387-20.82 10.359-31.594 14.709-11.288 4.454-21.028 11.395-31.18 17.817-3.729 2.382-4.869 5.49-4.661 9.53-1.866 3.936.103 5.072 3.625 4.765 3.107-.311 5.8-1.965 8.701-3.211 24.861-10.566 50.444-18.646 76.859-24.24 12.43-2.59 23.932-.929 34.498 6.526 11.499 8.184 23.512 15.852 35.531 23.204 14.709 9.012 18.646 21.132 15.431 36.877-2.382 11.913-.518 24.139-1.758 36.152-.414 3.936.722 7.146 5.901 5.387 3.939-1.451 7.977-3.004 11.913-4.458.523-.617.833-1.236 1.248-1.754z"/><path fill="#86877F" d="M1506.426 812.285c9.525-.518 18.438 2.693 27.136 5.387 29.005 8.908 58.323 16.574 87.014 26.726 7.565 2.693 14.709 5.697 20.614 11.292 5.282 4.972 10.358 10.251 16.263 14.502 8.391 5.905 11.806 13.777 12.323 23.618.519 9.634 2.59 19.164 2.59 28.797 0 3.729-.929 6.215-3.625 9.012-15.124 15.641-32.423 29.004-47.855 44.232-4.427 2.926-9.933 6.81-16.26 9.589-6.215-3.004-9.119-8.658-11.293-15.598 7.976-15.02 17.506-30.041 29.314-42.159 6.53-6.63 7.876-13.574 7.048-22.479-2.071-20.407-12.948-32.112-32.319-37.707-31.387-8.908-61.531-22.375-93.85-28.486-1.351-.311-2.59-.929-3.626-1.965-.726-8.806 1.346-17.199 6.526-24.761zm356.133 70.957c-8.494-23.204-20.316-38.418-38.344-54.992-2.351-.993-4.3-2.46-8.788-3.224-2.218 5.102-3.186 8.499-4.016 13.988 8.909 2.697 12.923 12.427 17.585 19.367 9.633 14.399 20.934 28.883 21.451 47.115 5.49-.518 8.899-2.572 14.493-2.054 1.347-6.941 0-13.568-2.381-20.2z"/><path fill="#2A2A2A" d="M1709.457 878.581c.929 5.697 5.383 4.662 8.805 4.041 8.39-1.554 16.885-2.9 25.172-4.662 6.422-1.346 12.948-.725 19.267-3.004 2.901-1.036 5.904.208 8.599 2.175 7.251 4.869 12.948 11.191 18.646 17.609.932 1.036 1.35 2.59 2.386 3.315 12.116 8.494 11.497 21.546 12.533 34.081 1.143 14.087-3.021 29.487-1.985 43.574-1.479.878-7.992 1.599-12.517.864-19.992-6.94-39.984-13.984-60.185-20.613-4.661-1.554-7.976-3.626-9.737-8.184 1.144-2.59 3.833-2.59 5.904-3.625 12.224-5.903 15.85-22.682 7.252-33.148-5.076-6.215-12.12-7.354-19.271-3.418-3.212 1.761-5.384 5.49-9.634 5.387-1.14-.208-1.965-.829-2.482-1.865-1.036-4.04 0-7.769 1.24-11.501 2.178-3.211 1.449-7.144 2.485-10.669.932-3.624.414-7.664 3.522-10.357zm-308.004 13.595c-1.364 4.474-1.18 4.804-2.655 9.505-3.418 8.08-3.108 15.953.725 23.825.725 1.554.929 3.215 1.447 4.869 3.421 14.605 10.773 27.761 16.471 41.538 2.9 7.048 3.729 15.335 10.253 20.614 15.851 7.769 31.7 15.435 47.545 23.204 7.875.206 14.71-3.108 21.547-6.323 19.06-8.908 38.639-16.367 58.526-23.1 9.117-3.107 17.816-7.044 26.104-12.016-1.554-.518-4.144-.726-3.626-2.797 2.798-12.845-.206-26.002 2.59-39.052 3.419-16.056-.103-29.626-16.159-38.431-12.638-6.94-24.343-15.538-36.152-23.722-10.462-7.354-21.856-9.944-34.287-7.663-13.881 2.59-27.45 6.419-40.813 10.771-15.331 4.972-30.869 9.738-45.267 17.299-2.589 1.346-4.455 1.657-5.073-1.969-.497 1.879-.497 1.879-1.176 3.448z"/><path id="cl1" fill="#FEE801" d="M1705.52 911.936c1.969-2.382 3.626-4.972 6.322-6.733 7.975-5.287 18.333-3.937 24.03 3.625 6.216 8.18 5.697 17.502 2.902 26.622-2.696 8.598-9.635 12.116-18.335 12.223-5.592-6.423-11.289-12.845-16.885-19.271-2.797-2.693-2.797-5.9-2.071-9.323.619-2.896 1.965-5.175 4.037-7.143zm-219.606 7.769c0-1.761.107-3.418 0-5.179-1.036-12.327-9.944-21.343-21.753-22.271-11.395-.933-21.235 6.423-24.343 18.021-1.864 7.148-1.757 14.299.518 21.343 3.315 10.048 12.327 16.574 22.586 16.367 10.562-.208 19.992-7.666 22.375-18.128.725-3.315.725-6.836.933-10.255-.108.102-.211.102-.316.102z"/><path d="M1468.719 922.537c0 7.723-5.179 13.984-11.568 13.984-6.388 0-11.567-6.262-11.567-13.984 0-7.724 5.179-13.984 11.567-13.984 6.389-.001 11.568 6.26 11.568 13.984zm248.152-13.985c-5.659 0-10.247 5.585-10.247 12.475 0 6.889 4.588 12.475 10.247 12.475 5.658 0 10.247-5.586 10.247-12.475 0-6.89-4.589-12.475-10.247-12.475z"/></svg>