<svg xmlns="http://www.w3.org/2000/svg" id="eyes" viewBox="0 0 3000 3000"><path fill="#E7E6E2" d="M1400.583 923.595c-2.991 5.051-3.2 11.033-5.363 16.296-.929 2.372-.309 4.641.516 6.911 1.341 3.813 2.372 7.838 3.507 11.654-1.238 3.816-.622 7.426 1.235 10.933 8.458 16.813 16.915 33.626 23.413 51.261.825 2.372 1.444-1.031 2.476-.618 17.428 7.322 34.861 14.849 51.258 24.547 2.891 4.744 10.831 11.139 9.904 17.225-8.329-1.602-19.39-4.023-26.3-6.602-13.514-4.95-27.229-9.076-41.052-13.303-4.537-1.343-6.393-4.022-7.94-8.251-6.704-17.224-12.172-34.964-21.25-51.159-3.403-5.982-6.704-11.964-10.314-17.843-1.547-2.372-2.988-4.641-2.372-7.529 2.992-13.099 4.125-26.301 4.023-39.709-.106-6.704 1.341-7.735 7.735-8.251 2.063-.206 4.125 0 6.188 0 61.884 0 123.662.103 185.546.206 3.716 0 7.633-1.031 10.936 1.547-2.269 2.474-5.156 1.236-7.735 1.341-62.091 2.682-124.284 2.166-186.581 2.269.623 3.194 8.358 4.433 2.17 9.075zm292.607 16.19c-2.473-3.197-1.234-5.982-.31-8.87.825-2.579.207-4.951-2.269-6.085-3.197-1.441-6.807-1.856-9.901.105-2.682 1.65-1.031 4.435.103 6.395 2.685 4.435 2.375 9.177 2.375 14.027 0 3.094-.413 6.498 3.298 7.84 4.438 1.547 7.633 7.94 13.615 3.505-.619-10.314.103-20.523 1.444-30.735-3.507 3.816-2.784 10.312-8.355 13.818zm9.799 67.557c-2.888-5.051-6.599-9.592-9.901-14.333l-1.856.925c3.403 6.911 1.753 15.678 9.488 22.072 1.342-3.61 3.61-6.289 2.269-8.664zm-16.915-5.26c-.413 3.197-1.652 6.395 2.579 9.798 1.032-4.641-1.031-7.117-2.579-9.798z"/><path d="M1617.486 911.734c1.856 0 3.815 0 5.673.103 6.807 3.199 6.188 10.211 7.838 15.78 3.919 13.305 3.816 25.375-8.664 35.79-9.592 8.045-15.573 19.803-23.309 29.808-2.27 2.988-4.642 5.981-7.736 8.145-4.228 2.27-8.251 5.157-13.511 4.231-2.578-1.031-4.022-3.2-3.507-5.672 1.96-9.283-4.023-13.615-10.417-18.05-9.489-6.704-18.671-14.03-27.332-21.659-6.499-5.673-12.79-6.294-20.733-4.231-30.836 8.251-61.369 17.225-91.484 27.848-3.506 1.238-8.743 3.171-12.66 2.759-9.18-7.323-9.309-19.055-15.084-28.438-5.466-13.099-6.395-25.582 4.641-36.72 13.511-4.642 27.744-3.713 41.565-4.536 20.422-1.238 40.846-2.579 61.368-3.094 2.477-.106 4.747 0 6.911 1.341 3.609 2.372 4.848 6.498 7.426 9.692 9.901 12.482 25.888 11.243 33.83-2.681 2.165-3.713 2.372-8.87 7.529-10.417 19.186-1.859 38.472 2.473 57.656.001zm86.638 48.885l.103.207c12.584 2.579 24.341-2.372 36.408-3.816 29.911-3.712 21.351-6.598 42.6 14.13 7.63 7.426 15.159 14.956 15.472 26.714.103 3.815 2.578 6.188 6.497 6.704 17.534-1.754 20.112-3.816 23.413-20.938 2.165-10.83 6.188-20.833 11.139-30.531 3.403-6.6 7.631-12.995 8.87-20.523-1.031-13.408-4.021-18.977-12.479-19.392-12.893-.619-25.89-.619-38.678 2.168-2.578 1.957-3.816 4.744-5.055 7.529-2.988 6.498-7.938 10.314-15.158 9.901-6.81-.309-11.142-4.332-13.721-10.623-1.341-3.404-2.063-7.426-6.497-8.354-17.844-.722-35.584-.207-53.015 4.02-.825 2.685-1.547 5.468-2.372 8.148-.723 4.332-2.682 8.354-3.713 12.583-1.444 6.291-2.991 12.686 2.267 18.152.516 0 .929.104 1.344.309 1.544.725 1.131 2.788 2.575 3.612z"/><path fill="#C7C8BC" d="M1483.198 1059.943c-3.197-4.329-5.26-9.076-6.188-14.334.928-3.507 4.022-4.332 6.807-5.57 27.953-12.787 57.14-22.278 85.402-34.345 2.989-1.238 5.982-.619 8.971-1.547 4.022-1.444 8.048-2.991 12.067-4.435 4.126.206 6.498 2.988 8.87 5.775 2.684 3.2 5.778 5.363 10.211 5.157-31.561 14.853-63.328 29.086-96.127 40.947-8.661 3.094-16.706 7.942-25.679 10.21-1.343-1.03-3.2-.723-4.334-1.858zm335.411-47.238c4.435-1.856 9.076-2.989 13.818-3.919 3.507-.722 5.054-2.063 5.673-5.879 2.991-19.081 8.872-37.13 17.533-54.355 2.27-4.536 5.364-8.87 5.055-14.334-4.848-3.816-9.592-3.507-14.439 0-8.664 16.296-18.772 32.18-20.525 51.054-1.031 10.521-6.188 14.85-15.472 16.397-1.649.312-3.403.516-5.051.722-3.716 2.888-8.873 1.34-12.583 4.231 7.838 5.258 15.677 10.315 25.991 6.083z"/><path fill="#2A2A2A" d="M1704.227 960.725c10.108-3.2 20.835-3.61 31.148-5.879 7.942-1.753 16.193-2.579 24.238-3.919 3.919-.622 7.426-.312 10.417 2.782 8.457 8.974 17.946 16.916 25.581 26.816 3.504 4.539 6.083 8.873 5.36 14.853-.41 3.301.207 6.292 4.231 6.911-4.074 3.479-7.941 5.44-12.583 4.229-14.053-4.719-26.507-8.458-39.812-12.787-3.61-1.137-7.016-2.579-10.625-3.816-22.793-7.946-22.793-7.946-37.955-29.19zm-127.687 37.131c3.403-6.5-.207-10.005-4.849-13.514-13.201-10.208-26.403-20.522-39.398-31.044-3.404-2.785-6.6-2.476-10.519-1.444-17.431 4.848-35.173 8.767-52.396 14.235-18.875 5.983-39.684 12.248-57.733 20.499-.618 13.304 7.606 23.024 14.104 33.649 1.859 1.442 3.507 3.299 5.673 4.33 15.162 7.117 30.426 14.13 45.588 21.144 6.395-2.473 12.892-4.642 19.081-7.424 17.947-8.356 36.894-14.265 55.18-21.764 9.103-3.732 16.889-8.146 26.92-12.377-2.58-1.755-2.786-4.127-1.651-6.29z"/><path fill="#86877F" d="M1590.154 999.813c8.045-10.521 16.192-21.038 24.132-31.664 4.126-5.466 8.252-10.83 13.821-14.956 2.372-1.75 3.816-3.712 3.403-6.807-1.751-11.758-2.888-23.62-8.251-34.552 11.967-.103 23.929 0 35.895-.31 5.261-.105 7.22 2.063 7.631 7.114.825 11.243 1.959 22.487 3.199 33.727.31 2.888.104 5.263-2.168 7.426-16.606 16.812-34.861 31.871-52.189 47.857-1.625 1.125-3.506 1.622-6.394 3.094-9.9 2.585-13.921-5.256-19.079-10.929zm-149.966-79.625c19.391-1.649 38.783-2.166 58.274-2.888 4.333-.206 8.665-2.473 12.999-.103 15.675 3.094 30.941 1.238 46.102-3.094 15.576-1.341 31.253-.413 46.825-.929 4.332-.207 8.87.722 12.996-1.441-8.251-1.653-16.606.103-24.857-.722-3.713.103-7.529.41-11.241.41-60.957 0-121.91-.103-182.869-.103-3.506 0-6.909.31-12.479.619 5.878 3.2 9.693 5.469 13.614 7.426 2.267 1.137 1.235 1.238 1.031 2.785 13.304-2.888 25.63-1.595 39.605-1.96zm422.462 8.355c.31-6.601-3.406-11.967-6.704-16.915-2.891-4.333-8.251-1.957-12.482-1.856-14.026.207-28.157.825-42.182 1.238-28.47.926-57.039-.105-85.403 1.856-4.535.309-8.869.618-11.755 4.848 18.565-.413 37.13-3.2 55.798-1.444 12.172 2.372 24.342 6.086 36.719 1.137 11.141-2.992 22.486-1.031 33.727-1.753 11.451-.825 12.893.516 15.161 11.345.516 2.372.618 4.744.929 7.114h14.439c1.65-1.444 1.65-3.507 1.753-5.57z"/><path fill="#F7F7F7" d="M1411.645 986.585c2.785 11.967 11.319 21.686 14.001 33.649-.622 1.653-1.031 5.263-3.404 1.859-2.683-3.922-4.022-8.664-5.878-13.099-5.57-13.717-12.274-26.816-18.978-39.915-2.166-4.125-4.633-6.547.113-9.332 6.084 8.353 8.679 18.175 14.146 26.838z"/><path id="cl1" fill="#FCE601" d="M1493.535 918.794c.924-.462 1.694-1.388 2.62-1.388 22.034-.771 44.069-4.314 66.259-3.235-.928 10.169-5.086 18.645-12.944 25.117-20.494 16.799-47.306 6.783-55.935-20.494zm258.262 7.028c3.58 10.19 12.53 16.665 22.583 16.665 10.052 0 18.728-6.196 22.721-16.665.959-2.478 1.235-5.232 1.79-7.986-16.249-1.101-32.635-3.167-49.02-1.514.687 3.304.963 6.475 1.926 9.5zm-261.985 10.938l-5.116-10.65-22.365 10.744 5.116 10.649 22.365-10.743zm22.989 15.63l-10.093-6.138-12.897 21.198 10.095 6.139 12.895-21.199zm41.431-9.178l-9.92 6.415 13.473 20.838 9.92-6.416-13.473-20.837zm14.614-21.522l-3.196 11.374 23.888 6.716 3.195-11.375-23.887-6.715zm235.135-.795l-2.433 8.644 19.192 5.395 2.43-8.645-19.189-5.394zm-76.019 5.4l2.066 8.74 19.401-4.59-2.071-8.739-19.396 4.589zm17.648 25.998l8.711 7.236 10.918-13.146-8.718-7.233-10.911 13.143zm46.288 7.236l9.652-4.559-6.984-14.786-9.652 4.562 6.984 14.783z"/></svg>