<svg xmlns="http://www.w3.org/2000/svg" id="hair" viewBox="0 0 3000 3000"><path id="cl1" fill="#AC7D45" d="M1698.3 456.3c160.3 83.3 195.9 195.6 195.9 195.6 43.9 88.3 7.2 307.4 7.2 307.4-2.3 18.6-3.5 46-3.5 46 55.6 177 55.2 245 55.2 245 3.2 45-38.5 141-38.5 141-4.2 22.3-12.8 11.8-12.8 11.8-17.7-9.9-138-62.4-138-62.4-17.7-3-6.4-19.9-6.4-19.9 51.3-125.6 61-180.4 61-180.4 7.8-36.5 21-212.8 21-212.8-2-31.8-5.2-42.7-5.2-42.7-16.6-70.8-10.5-45.1-10.5-45.1-1.8-25.2-24.8-71-24.8-71-21.9-25.5-36.8-95.8-36.8-95.8-12.7-45.5-13.7-6.8-13.7-6.8-17 57.9-77.6 94.3-77.6 94.3-15.2 10.7-50.1 9.4-50.1 9.4-30-1.1-173 4.6-173 4.6-34.4 3.1-80.5 43.3-80.5 43.3-32.7 23.5-85.2 91.8-85.2 91.8-.7 10 1.2 14.8 1.2 14.8 15.2 61.5 93.4 163.7 93.4 163.7 51.9 66.5 51.1 121 51.1 121 5.1 88.9-32.5 143.7-32.5 143.7-8.8 17.6-14 12.5-14 12.5-9.5-3.7-66.8-23.9-66.8-23.9-24.3-8.6-83.7-9.7-83.7-9.7-8.7-.3-4.7 5.9-5.4-.1-.1-.6.1-1.6.4-2.8 3-10.9 20.2-43.5 20.2-43.5 1.9-5.4-12.8-5.6-12.8-5.6-2.3.8-72.2-14.8-72.2-14.8-10.8-2.3-44-11.1-44-11.1-17.7-.4-27.1-7.4-27.1-7.4-18.8-9.2-34.2-19-34.2-19-.7-.2-95.6-58.4-95.6-58.4 4.1-11.9 24.4-23 24.4-23 41.8-40.6 61.7-91.1 61.7-91.1 13.8-32.3 9.3-56.3 9.3-56.3-8.9-57.3-15.4-149.2-15.4-149.2-3.7-74.6 5.7-104.5 5.7-104.5 9-57.4 56.7-126.1 56.7-126.1 22.1-36.5 76.7-90.4 76.7-90.4 94.6-94.4 159.3-89.1 200.6-88.8s115 16.5 115 16.5c108.9-57.6 203.6.2 203.6.2z"/><path id="sd1" fill="#956D3C" d="M1215.8 852c-13.3 24.7-18.5 51.3-15.7 78.9 3.7 37.1 12.7 72.9 27.6 107.2 11.5 26.6 27.2 51 38.9 77.5 13.7 31 26 62.5 36.4 94.7 3.5 10.8 1.5 21.7.1 32.3-2.4 18.6-5.9 37.2-9.4 55.7-1.7 9.1-4.3 18-6.6 27-.9 3.4-3.3 6.7-1.3 10.4-19.8-1.4-39.5-3.9-60.3-3.9 27.9-62.2 33.9-85.7 23-124.7-13.2-32-28.7-58.3-44.6-89-15.2-29.2-31.2-64.2-43.4-94.8-7.3-18.4-10-38.4-11.5-58.1-2.3-32 .7-69.3 4.8-101 .5-4.1 4.4-2.3 10.2-2.2 18 0 34.9-5.2 51.8-10zM1405 600.3c-19.5 16.7-28.9 24.8-50.2 53.7-22.7 29.4-48.1 66.8-59.6 102.4-12.8 39.7-17.1 78.3-15.1 119.7.3 6.7-1.4 27.3 2.2 33.6 3.8-7.1 16.3-21.6 21.4-27.7 28-33.7 59.2-64.1 96.5-87.6 15.9-10 32.7-18.1 51.6-20.3 23.2-2.7 46.5-3.6 69.8-3.7 21.3-.1 42.6.2 64 0 19.6-.1 39.3.2 58.9-2.2 12.2-1.5 23.5-4.7 33.4-11.9 19-13.9 34.7-30.9 47.9-50.3-1.1-2 .3-3.8.3-5.8 0-3.6 1.2-8.2-2.7-9.9-4.1-1.8-6.1 2.8-8.4 5.4-5.1 5.6-9.6 11.7-15.2 17-13.2 12.2-29.1 19.5-45 27.1-1.6.8-3.3 1.6-4.9 2.4-1.6.8-3 1.8-3.8 3.5-20.8 3.9-41.7 7.3-63.1 6.4-9.3-.4-18.5-1-27.7-1.7-13.6-1-26.9-3.3-40.3-5.2-14.3-1.9-28.6-1.8-42.7-.6-17.1 1.4-34.3 2.9-51.4 3.2-17 .3-28.6-7.8-33.1-21.8-3.3-10.4-5.3-21.5-3.6-32.3 5-31.6 22.2-73.5 36.3-102.2-2.4.5-13.8 7.3-15.5 8.8zm-303.1 490.8c-1.1-34.8 2-69.7-1.9-104.6-1.2-11.2-1.1-22.5-1.7-33.7-1-19.5-2.8-39-2.8-58.6 1.5-33.2 30.5-43.6 28.8-44.5-19.2-9.6-42.3-23.7-55.8-40.5-7.5-9.3-21.6-27.1-26.9-37.8-2.6 2.1.6 15.1-1.5 17-.4 28.3-.8 56.5 1.7 84.8 2 23.9 4.4 47.7 7.3 71.4 2.3 18.5 4.6 36.9 6.3 55.5 1.1 11.9 1.7 23.9-2 35.7-6.1 19.8-15 38.4-25.7 56.1-13.8 22.9-28.7 44.8-51.1 60.6-6.1 4.3-11.8 9.6-16.3 16.8 10 6.1 19.7 11.8 29.3 17.7 22.1 13.6 51.1 30.2 72.7 44.6 20.1-36.4 32.8-86.9 32.8-86.9s7.1-43.2 6.8-53.6zm-57.8-322.5c7.8 22.6 25.8 44.7 43.9 60 30.6 25.7 71.1 34.6 110 24.9 32-7.9 57.6-26.7 82.7-47.7 2.2-1.8 6.5-17.4 6.9-20.1 2.6-17.1 6.8-26.7 12-42.4-3.5-2.4-12.5 2.4-15.3 3.9-31.7 16.8-65.5 27.6-100.5 35.1-27.7 5.9-52.6 1.2-75.5-15.8-20.3-15-36.9-33.4-52.5-52.9-2.4 2.9-2.7 6.7-3.8 10.2-2.2 7.3-4.2 14.7-6.2 22-.5 7.2-2.2 20.5-1.7 22.8zM1099 622c-6 19.6-10.3 41.4-7.5 62.1 3.8 27.6 22.6 42.8 50.5 43.5 14.9.4 36.2-6.2 50.2-10.7 28.1-9 55.7-21.8 81-36.7 10.6-6.2 30.2-14.8 39.7-22.8-8.7.8-31.5 6.6-39.7 9.1-36.1 10.9-72.7 17.3-110.5 15.3-15.6-.8-27.9-7.5-34.9-22.3-4.9-10.4-7.1-21.3-7.6-32.6-.5-10.3-.1-20.6-.1-30.9-7.4 7.1-14.3 18.6-21.1 26zm454.6-139.4c14.9-4.8 29.5-10.2 44.9-13.6 4.3-.9 10.7-.9 11-6.5.3-5-5.6-6.8-9.6-9.1-.9-.5-1.8-.9-2.8-1.1-20.3-5-40.5-10.6-61.4-12.4-11.9 2.5-22.5 8-33 13.6-4.3 2.3-8.5 3.4-13.4 2.2-26.8-6.9-53.9-11.9-81.4-14.4-27.3-2.5-54.5-2.4-81.7 1.4-9.8 1.3-19.7 2.8-28.9 7 18.2 1.2 36.5.5 54.8 1.7 20.8 1.3 40.7 5.6 60.3 11.4 6.6 1.9 13.8 3.5 20.1 8.4-26.7 3.5-49.4 15.6-72.8 26.1 12.9 1 25.7-.6 38.1 1.4 12.3 2 24.9-.9 37.2 3.4-20 7.5-39.6 15-57.1 27.4 12.1-3.5 24.5-2 36.6-3 11.7-1 23.7-4.9 37.9-1.2-15 8.3-29.2 14-41.3 23.6 1.8 1.1 3 .7 4.3.3 17.2-5.3 34.9-7.8 52.7-9 14.3-1 28.7-.8 43-.1 14.5.8 28.8-2.2 43.5-.6 17.8 2 35.4 4.3 53 7.2 9.9 1.7 20 2.3 30 3.5-10.5-4.8-21.3-7.8-31.8-11.4-11.1-3.8-22.6-5-33.9-7.3-10.5-2.2-21.4-3.2-32.2-6.7 14.3-4.8 28.3-8.3 42.2-12.1-18.9-.9-37.4-4.1-56.5-4.2 16.6-6.3 32.5-14.3 50.6-15.6-12.5-3.5-25.2-5.2-39-5.1 2.4-3.2 4.6-3.7 7-3.8 3.2.3 6.4-.4 9.6-1.4zm284.7 449.6c-.1 16-1.3 31.9-2.6 47.8-1.5 17.9-2.8 35.8-4.7 53.7-2.9 27.4-5.9 54.9-9.4 82.2-17.6 66.8-11.6 60.3-34.9 64.1-10.2 32.4-13.7 63-19.7 91.8-.3 8.5 5.2 11.1 4.2 13.6-6.3 16.5-10.6 27.3-17.1 43.7-1.5 3.9-1.8 6.5 3 8.5 22.9 9.8 45.7 19.9 68.6 29.8.2-2.3 0-4.7.7-6.9 7.8-24 13.3-48.5 18.3-73.2 4.7-23.3 9.7-46.6 13.2-70.1 2.2-14.4 4.4-28.7 6.6-43.1 2.4-15.7 4.3-31.5 5-47.3.9-20.9-2.6-41.5-5.4-62.2-4-29.2-10-57.9-15.8-86.7-3.3-16.8-10.1-33.1-8.8-50.7-.3 1.9-1.1 3.5-1.2 5z"/><path id="hl1" fill="#D69956" d="M1333.8 1347.7c3.2-11.5 6.8-22.9 12.7-33.4 11.7-21 19.4-43.6 24.2-67 2.9-13.9 5.1-27.9 5.1-42.2 0-6.6-.2-13.3.1-19.9.9-26.6-3.4-52.7-8.8-78.6-2.3-11-4.6-22-8.2-32.7-1-2.9-2.1-5.8 1.1-8.1 16 21.6 33.7 42.1 45.7 66.5 28.1 57.4 30.7 116.2 9.6 176.3-6.4 18.2-14.6 35.7-24.2 52.5-2.2 4-4.6 6.1-9.5 4.3-16-5.8-32.3-10.5-47.8-17.7zm413-676.7c1.8-3.9 3-7.8 2.4-12.4-.9-6.9.3-7.6 8.5-8.4-2.2-9.1-4.9-17.9-10.3-25.7-9.7-14-22.3-24.5-37.3-32.3-30.9-16.3-64.3-22-98.7-24.2-6.9-.4-13.8-.3-20.8-1.5-6.7-1.2-13.8-.3-20.8-.3 1.4 2.3 2.8 3 4.3 3.6 29.7 11.5 59.3 23.4 87.2 39 9.6 5.4 18.6 11.6 26.1 19.7 4.1 4.4 6.5 9 6.3 15.1-.3 9.3.3 18.6-2.1 27.7-4.3 16.5-10.2 32.1-20.3 46.2-6.7 9.4-15.3 16.6-24.2 23.4-1.9 1.4-3 2.4-1.3 4.6 1.2-.6 2.4-1.2 3.7-1.7 1.1-1.1 3-.7 4.1-1.8 13.8-5 26.9-11.4 38.8-20.1 11.6-8.6 20.8-19.7 29.9-31.6 2.8 5.9-1 11.5 3.3 15.6 8.7-10.7 15.5-22.5 21.2-34.9zm62.6 119.1c5.7 16.3 11.6 32.6 14.4 49.7 0 0 3 8.7 4.1 6 14.8-23.1 21.8-60.2 24.6-85.1 7.7-68.7-6.5-125.3-87-176.5-.8-1.4 21.9 25.2 33.4 42.2 14.2 19.5 17.4 31.6 23.1 56.5 0 0-.1 13.5-.1 24 0 0-2.8 34.9-6.2 52.1-1.8 8.8-6.9 16.5-8.2 25.5.6 1.8 1.2 3.7 1.9 5.6zM1312 720.9c1.1-1.1 75.4-108.6 74.4-109.6-.6.3-100.3 71.4-195 105.9-25.9 9-49.8 13.5-76.8 4.5-2.6 3.7 28.9 23.7 41.4 24.2 19.5.7 38.2-4 56.3-10.5 31.4-11.3 60.5-27.2 88.7-44.8 2.3-1.4 6-3.5 11-4.2-2.7 15.9 0 34.5 0 34.5zm240.1-235.5c4.9-1.8 9.8-1.4 14.8-1.4 17-.1 33.6 3.2 50.2 5.8 34.4 5.4 67 16.4 98.3 31.1 24.1 11.4 46.7 25.5 66.8 43.1 11.2 9.8 23.5 18.5 32.1 31.2 3.9 5.7 9.4 10.2 14.2 15.3-2.3-6.4-5.4-12.1-9-17.6-14.1-22.1-30.4-42.6-47.8-62.3-18.3-20.8-38.6-39.3-59.3-57.5-5.6-5-12.8-8.5-16.6-15.4-.8-.6-1.6-1.2-2.5-1.6-38.7-17.9-79.2-26.9-121.9-23.6-12.2.9-24.4 2.5-35.8 7.6 1.1 1.5 2.6 1.8 4.3 2.1 17.7 3.9 35.4 8 53.1 11.8 6.2 1.3 11 4.5 16 9.8-23.1 5.1-44.5 11.8-65.3 20.4 2.5 2.7 5.8 2.2 8.4 1.2zm324 904.8c8.6 4.3 17.9 7.2 25.9 12.8 5.8 4 6.1 3.9 9-2.8 13.5-31.2 24.9-63.1 33.6-96.1 10.6-40.1 12.3-79.9.3-120.2-11.6-38.9-21.6-78.3-32-117.5-3.8-14.5-7.9-28.9-9.5-43.9-20.4-70.4-38.9-142.3-56.7-209.9-4.2-.8-7.3 11.7-9.3 19.3 5.4 19.5 13.4 44.7 18.4 64.2 14.8 58 29.5 116.1 40.9 175 5.9 30.5 11.8 61 15.4 91.9 1 8.2 1.1 16.5 2.2 24.7 2.3 17.2 2.7 34.3-.3 51.5-7.7 44.1-21.2 86.2-41.7 126-3.2 6.2-7.1 12.1-8.6 19 4 2 8.2 4 12.4 6z"/><path fill="#231815" d="M1697.1 458.5c73 38.1 141.6 92.9 181.8 166.1 6.3 11.4 11.2 23.4 16.3 35.4 14.2 33.7 16.9 72.3 17.9 108.5 1.8 62.3-3.8 125.2-13.5 186.7-2 12.5-2.7 25.2-3.5 37.9-.2 3.6-.4 7.1-.6 10.7-.2 4.5 2.2 9.2 3.5 13.5 4.5 14.5 8.8 29.1 13 43.8 12 41.7 22.7 83.8 30.6 126.5 3.5 18.8 6.6 37.8 7.7 56.9 1.3 21.8-3 42.9-8.8 63.9-7.7 27.8-17.6 55.3-29.1 81.8-1 2.4-2.8 16.8-8.2 12-2.4-2.1-5.5-3.4-8.4-4.8-12.7-6.2-25.7-12-38.6-17.9-28.3-12.8-56.6-25.3-85-37.7-2.3-1-4.6-2-7-3-2.9-1.3-6.1-1.1-8-4-1.8-2.7-.5-6.8.7-9.4 9.9-22.3 18.5-45.2 27-68.1 16.4-44.3 32.9-89.8 39.2-136.9 8.2-61.5 12.5-123.6 17.3-185.5.4-5.1.4-9.4 0-14.6-.8-11.5-1.8-23.3-4.5-34.6-3-12.6-5.9-25.1-8.9-37.7-.8-3.4-1.6-6.9-2.4-10.3-.1-.6-.5-3.6-.6-2.2-1.6.2-3.3.4-4.9.7.5 1.5.7 3.1 1.1 4.6.6 2.7 5.1 2.2 4.9-.7-1.6-19.5-9.9-38.6-17.7-56.3-2.3-5.2-4.7-10.4-7.2-15.6-1.1-2.3-3.3-4.4-4.8-6.5-2.6-3.9-4.9-8.1-7-12.3-8.8-17.6-14.6-36.7-19.7-55.6-3.3-12.2-5.5-24.8-10.3-36.6-1.4-3.4-4.1-10.2-9-7.9-3.2 1.5-3.6 7.4-3.9 10.4-.6 4.9-.9 8.3-2.7 13.1-3.9 11.1-9.8 21.5-16.4 31.2-11.1 16.2-25.3 30.3-40.5 42.5-7.3 5.8-15.5 12.5-24.3 16-13.5 5.3-29.1 5.7-43.5 5.3-12.7-.3-25.4 0-38.1.3-34.8.8-69.6 2-104.3 3.3-9.2.3-18.4.7-27.6 1.1-16.2.6-32.1 9.1-45.8 17.1-27.8 16.4-53 38.3-74.8 61.8-13 14.1-25.4 28.7-37.4 43.6-3.2 3.9-6.3 7.9-9.5 11.9-3.5 4.5-2.1 11.3-1.1 16.6 3.3 16.6 11.2 32.9 18.6 48 9.5 19.1 20.4 37.5 31.9 55.4 13.7 21.5 28.2 42.7 43.7 62.9 25 32.7 46.5 71.6 50.4 113.3 3.6 38-1.8 77.7-14.8 113.5-4.1 11.3-9.1 22.3-15.2 32.6-2.3 3.8-4.2 7.8-6.9 11.2-.9 1.1-3.7 4-4.8 3.5-1-.4.9.5-.6-.4-.9-.5-2.1-.8-3-1.2-22.1-8.2-44.3-16.7-66.9-23.8-15.9-5-33.2-6.1-49.7-7.4-10.7-.8-21.4-1.4-32.2-1.6-3.2-.1-3.2 4.9 0 5h.8v-5c-2 .3-4.2-.1-6.3-.1.2 1.6.4 3.3.7 4.9 1.1-.2 1.7-1.4 1.8-2.4.7-7.9 5.8-16.2 9.2-23.3 3.3-6.8 6.7-13.6 10.3-20.4 2.7-5.1-.4-8.3-5.6-9.7-4.3-1.2-7.9-.8-11-1.2-24.1-3.7-48.2-9.6-72-15.1-8.9-2.1-17.7-4.4-26.5-6.6-5.5-1.4-11.4-3.8-17.2-4-8-.3-17.3-2.2-24-7-2.5-1.8-5.8-2.9-8.6-4.3-3.1-1.6-6.1-3.3-9.2-5-4.7-2.6-9.2-5.3-13.8-8.1-19.1-11.7-38.4-23.4-57.5-35.1-13.6-8.3-27.2-16.6-40.8-25 .4.9.8 1.9 1.1 2.8 3.4-8.9 12.9-15.2 20.7-20 8.6-5.3 15.3-14.4 21.7-22.1 14.2-17.2 26.3-36.1 36.4-56 6.6-13.1 12.2-26.7 15.2-41.1 1.8-8.9 2.6-18.1 2-27.2-.4-6.1-1.7-12.2-2.5-18.3-5.8-41.6-9.5-83.6-12.7-125.6-2.6-33.7-3.2-68.6 2.3-102.1 5.4-33 17.2-64 32.7-93.5 14.9-28.4 32.6-55.6 53.2-80.2 23.4-28 49-55.1 76.7-78.9 32.4-27.7 69.9-50.7 112.2-59.1 27.9-5.5 57.9-4.8 86.1-1.9 21.4 2.2 42.7 5.9 63.9 9.9 6.5 1.2 13.1 2.5 19.6 3.9 1.3.3 2.5.5 3.8.8.5.1 1 .2 1.6.1 3.7-1 7.6-3.8 11.1-5.5 41.7-19.7 89.1-24.7 134.1-15.1 19.6 4 39.7 10.2 56.6 20.5 2.8 1.7 5.3-2.6 2.5-4.3-20.7-12.6-45.9-19.6-69.6-23.4-23.6-3.8-47.7-3.5-71.2.5-14.3 2.5-28.3 6.6-41.8 11.9-6.7 2.6-13.3 5.7-19.7 8.9-2.6 1.3-1 1.7-3.9 1.1-36-7.7-73.1-14.9-110-16-27-.8-53.8.1-79.9 7.6-44.4 12.7-82.8 41.1-116 72.4-25.2 23.7-49 49.5-70.2 76.8-19.4 24.9-36 52.8-49.7 81.1-13.4 27.6-23.1 56.9-27.3 87.3-4.7 33.9-3.8 68.5-1.2 102.5 3.4 42.8 7.2 85.6 13.4 128.1 2.3 15.6 1.5 30.3-2.7 45.7-3.5 12.5-9.1 24.4-15.2 35.8-10.8 20.5-24 39.9-39.4 57.3-2.3 2.6-4.6 5.1-7 7.6-1.4 1.5-3.1 3.8-4.9 4.8-2.6 1.5-5.1 3.1-7.6 4.8-7.1 5-14.4 11.1-17.6 19.5-.4 1.1.3 2.3 1.1 2.8 20.3 12.5 40.7 24.9 61 37.3 22.6 13.8 45 28.4 68.8 40 6.4 3.1 12.1 5.8 19.2 7 3.4.6 6.8.3 10.1 1.2 3.3.9 6.6 1.7 9.9 2.6 12.5 3.2 25 6.5 37.6 9.2 14.5 3.2 29.1 6.4 43.6 9.4 6.3 1.3 12.6 2.6 18.9 3.7 4.6.8 5.6.4 9.9 1 .8.1 5.8 1.6 5.9 1.5-.5.9-1 1.8-1.5 2.8-2.4 4.6-4.7 9.2-7 13.8-2.8 5.7-5.6 11.5-8.2 17.4-1.9 4.4-3.9 8.7-4.3 13.5l1.8-2.4c-2.8.5-2.1 4.9.7 4.9 2 0 4.3.4 6.3.1 3.1-.4 3.3-4.8 0-5h-.8v5c12.7.3 25.5 1 38.1 2.1 15.7 1.3 31.9 2.9 46.8 8.2 14 5 28.1 9.9 42.1 14.9 6.6 2.4 13.3 4.7 19.9 7.2.9.3 1.7.6 2.6 1-1.5-.6-.6-.3.2.2 1.6.9 3.5.9 5.2.3 6.2-2.1 8.8-9.4 12.1-14.4 1.6-2.4 3-4.9 4.4-7.4 7-12.8 12.5-26.6 16.8-40.5 7.1-22.7 10.8-46.4 11.7-70.2.5-12.5.4-25.5-1.2-38-5.4-41-26-78.6-50.7-111-16.6-21.9-32.2-44.7-46.8-68-11.3-18-22-36.5-31.3-55.7-4.3-8.9-8.2-18-11.4-27.3-2.5-7.4-4.7-14.7-4.7-22.5 0-2.8-.5-1.9.7-3.4 1.3-1.7 2.7-3.4 4-5.1 4.6-5.8 9.2-11.5 13.9-17.1 13.1-15.8 26.6-31.3 41.1-45.9 9.7-9.8 20.2-18.4 30.9-26.9 15.1-12.1 31.6-23.1 49.4-31 10.3-4.6 20.5-6.6 31.6-7l39-1.5c34.7-1.2 69.4-2.5 104.1-2.9 24.4-.3 52.3 3.4 73.9-10.2 27.3-17.2 51.7-41.7 67.3-69.9 2.6-4.7 4.8-9.6 6.8-14.5 1.4-3.5 3.7-8 3.8-11.8.1-3.5.4-7.1 1.2-10.5.2-.7.4-1.4.7-2.1.4-.7-.7.3-1 0 2.7 2.3 3.8 7.4 4.9 10.6 1.7 5.1 3 10.2 4.3 15.4 6.7 28.4 14.7 58.9 30.6 83.7 2.2 3.5 4.9 6.4 6.7 10.1 2.7 5.6 5.2 11.2 7.7 16.9 6.7 15.6 13.8 32.6 15.3 49.7 1.6-.2 3.3-.4 4.9-.7-.4-1.5-.6-3.1-1.1-4.6-.8-2.8-4.7-2.1-4.9.7-.1 1.7.8 3.9 1.2 5.5 1.6 7 3.3 14 4.9 20.9 3.6 15.3 7.4 30.2 9.1 45.8 1.1 10.3 1.7 19.8.9 30-.9 12.2-1.9 24.4-2.9 36.6-2.9 35.4-5.9 70.8-9.6 106.1-2.1 20.6-4 41.4-8.1 61.6-4.3 20.7-10.6 41.1-17.1 61.2-7 21.8-14.7 43.3-22.8 64.7-5.2 13.9-10.7 27.7-16.2 41.5-1.6 4-3 8.1-5.1 11.9-1.4 2.5-2.4 5.3-2.8 8.1-1.5 11.1 9.3 12.9 17.2 16.3 11.9 5.2 23.8 10.4 35.6 15.7 29.4 13 58.9 25.8 87.8 39.8 2.8 1.3 6.9 3 8.5 4.5 3.3 3.1 7.7 3.3 10.9 0 4-4 3.8-10 5.9-14.9 1.8-4.2 3.5-8.5 5.3-12.8 13.8-34.3 27-70.3 31.8-107.1 1.7-12.6 1-25.2-.3-37.7-2.6-25.9-7.5-51.6-13.1-77.1-10.9-50.5-25.1-100.2-40.5-149.4-.7-2.3-.3-4.6-.2-7.1.3-5.2.6-10.4 1-15.6.6-8.1.9-16.3 2.2-24.3 1-6 1.8-11.9 2.7-17.9 9.8-69.6 15.9-141.3 9.1-211.4-1.7-18-4.5-36-9.5-53.4-2.7-9.4-6.9-18.1-10.2-27.2-5.8-16-14.3-31.2-23.5-45.4-41.8-65.1-105-114.5-173-150-3.2-1.4-5.7 2.9-2.8 4.4zm-632.9 774.7c16.2-18.8 23.8-44 28.8-67.8 2.9-14 5.1-28.4 5.8-42.7.2-3.2-4.8-3.2-5 0-.7 13.5-2.8 27-5.4 40.2-4.7 23.3-11.9 48.4-27.8 66.8-2.1 2.4 1.5 5.9 3.6 3.5zm85.5 26.5c3.2-15.9 1-32.7-1.2-48.6-1.5-10.7-3.3-21.4-5.7-31.9-.7-3.1-5.5-1.8-4.8 1.3 2.1 9.3 3.7 18.8 5.1 28.3 2.4 16 4.9 33.5 1.7 49.5-.5 3.2 4.3 4.5 4.9 1.4zm98.9 26.4c3.8-13.4 5.9-27.5 6.6-41.4.8-15-.1-31.8-7.2-45.4-10.3-19.8-20.5-39.6-30.5-59.6-15.5-30.9-30.8-62-44.7-93.7-7.7-17.5-15.5-35.1-18.5-54-6.8-43.3-3.9-88.7 2.7-131.7.2-1.3-.3-2.8-1.7-3.1-35.1-7-66-25.6-88.1-53.7-9.3-11.8-17.9-25.8-22.3-40.2-.9-3.1-5.8-1.8-4.8 1.3 4.7 15.4 13.9 29.9 23.6 42.5 22.4 28.8 54.7 47.8 90.3 55-.6-1-1.2-2.1-1.7-3.1-6.6 43-9.1 87.4-3.2 130.6.9 6.4 1.3 10.5 3.1 16.7 3.3 11.6 8.1 22.7 12.8 33.8 23.1 54.3 50.3 107 77.6 159.3 6.4 12.3 8 26 7.9 39.8-.2 15.2-2.4 30.9-6.6 45.5-1 3.2 3.8 4.5 4.7 1.4zm-93.9-423.9c15.2.4 30.9-2.7 45.5-6.6 33-9 63.2-27.1 86.4-52.2 2.2-2.4-1.3-5.9-3.5-3.5-23.1 24.9-52.6 42.3-85.3 51.2-13.8 3.8-28.7 6.6-43.1 6.2-3.3-.2-3.3 4.8 0 4.9zm244.2-261.3c-8.8 6.5-16.4 14.9-23.6 23.1-13.1 15-25 31.2-36.1 47.8a756.7 756.7 0 0 0-21.6 34.2c-3.7 6.3-7.3 12.6-10.9 19-3.8 6.8-8.1 13.7-10.7 21-9.5 26.3-14.5 54.2-16.9 81.9-2.4 26.9-2.8 54.8.7 81.7.4 3.1 5.4 3.2 5 0-4.3-32.9-3.1-67.4 1.3-100.2 1.9-14.1 4.7-28.1 8.4-41.9 1.8-6.8 4-13.6 6.3-20.3 2.8-8.1 7.9-15.7 12.1-23.1 13-23.1 27.1-45.6 42.6-67.1 8.6-11.9 17.7-23.4 27.5-34.3 5.7-6.2 11.6-12.6 18.4-17.6 2.6-1.8.1-6.1-2.5-4.2zm-307.3 30.7c-4.2 16.8-5.2 35.2-2.6 52.3 1.9 12.4 6.6 24.7 15.8 33.6 11.3 10.9 27.4 13.4 42.5 12.3 19.9-1.4 40.1-8.3 58.7-14.9 41-14.6 78.2-36.1 114.6-59.7 47.9-31 96.7-61.4 147.8-86.8 10.2-5 20.5-9.9 31.2-13.7 6.4-2.3 13.9-5.2 20.8-4.3 3.2.4 3.2-4.6 0-5-8.7-1-18.2 3-26.1 6-13.6 5.2-26.7 11.8-39.6 18.5-30.6 15.8-60.3 33.5-89.6 51.5-16.4 10-32.6 20.2-48.7 30.7-39.9 26-81.5 49-127.1 63.2-19.1 5.9-40.6 12.6-60.6 8.8-29.4-5.6-36.5-35.9-35.8-61.7.3-9.8 1.4-19.8 3.7-29.3.6-3.3-4.3-4.6-5-1.5zm736.5 218.6c23-36.2 28.5-81.7 28.3-123.7 0-10.3-.4-20.8-1.5-31-1.8-16.4-9.4-33.1-17.7-47.1-18.1-30.3-46.6-53.1-77.1-70.2-20.4-11.4-42.3-20.7-64.8-27.2-1.6-.5-3.3-.9-5-1.4-3.1-.8-4.5 4.1-1.3 4.8 15.7 3.9 31 9.9 45.7 16.6 30.7 13.9 59.8 32.7 82.2 58.1 12.6 14.4 22.5 31.1 28.6 49.2 3.4 10.3 4.9 20 5.4 30.7 2.2 39.9-1 82.4-16.9 119.4-2.9 6.7-6.3 13.2-10.2 19.3-1.7 2.7 2.6 5.2 4.3 2.5zm72.3 154.4c-11.3-45.7-22.9-91.3-35.7-136.6-4.8-17-9.5-34.2-15.8-50.7-.9-2.4-2-7.4-4.6-8.9-2.8-1.6-5.3 2.7-2.5 4.3-.9-.5-.7-.9 0 .5 1.3 2.6 1.9 4.1 3 7.3 6.7 18.3 11.9 37.2 17.1 56 12 42.9 22.9 86.1 33.6 129.4.9 3.2 5.7 1.9 4.9-1.3z"/></svg>