<svg xmlns="http://www.w3.org/2000/svg" id="hair" viewBox="0 0 3000 3000"><path id="hl1" fill="#C17517" d="M1930 1088c12-14.6 23.198-29.698 31.5-46.8 6.3-13 6.1-25.5-.9-38-3.9-7-8.1-14-13.9-19.2-25-22.5-43.1-50.1-60.8-78.198-4.399-6.9-9.3-13.5-14-20.302-3 .802-1.2 3.4-2.101 4.9-2.101-3.9-2.5-8.2-3.299-12.4 1.5-7.698-4.4-14.3-3-22 .1-2.198.299-4.398 1.1-6.5 12-24.898 22.199-50.398 29.6-77.1 11.801-42.6 8.5-84.9-2.3-127-1.601-6.1-3.7-12.1-5-18.3-.7-3.2-2.5-7.4 2.899-8.8 15.899 26.6 28.899 54.398 34.899 85 .802 4.198 1.2 8.5 1.7 12.8 4.2 10.1-.5 19.7-2.601 29.1-2.899 12.9-6.399 25.8-12.101 37.9-4.1 13.6-11 26.2-15.6 39.7-.4 1.3-1.2 2.398-1.7 3.6-.7 2.4-2.101 4.5-2.601 7-.5 1.1-1.199 2.1-1.601 3.2-.3.8-.6 1.5-1 2.2-.698 1-1 2.198-1.399 3.398-1.101 1.9-1.5 4.102-2.399 6.102-10.2 18.398-6.8 35 6.399 50.6 18.301 21.7 36.899 42.8 58.399 61.4 11 9.6 22.101 19.398 30.2 31.8 13.102 20.2 12.3 39.1-1.898 58.399-12.102 16.5-26.302 30.899-43.302 42.399-.8.5-1.698.9-2.5 1.3-.899.4-1.8.5-2.698.602-1.4-.4-2.602-.9-1.802-2.801.101-.601.101-1.301.101-1.899.403-.7 1.105-1.4 1.705-2.1zm-90-420c.698.602 1.3 1.302 2 1.9 2.3 1.4 4 1.4 3.898-2-.7-.6-1.3-1.3-2-2-.6-.7-1.3-1.3-2-2-18.7-13.3-39.3-21.7-62.3-24.4-7.301-.898-14.7-.5-21.7-2.1-11.6-2.7-23.398-2.5-34.7-.9-18.5 2.602-37.1 1.2-55.6 2.9-20.4 2-41.1 0-61.7-1.1-13.898-.801-27.699-2.801-41.699-2.7-7.801 0-15.899-1.8-23.301-4.5-29.3-10.5-54.1-27.9-75.1-50.9-.102-2.8-1.5-5.1-3.2-7.1-23.199-27.7-30.3-61.4-36-95.601-2-12.101-2.399-24.399-4.1-36.601-.5-4.1-.2-9.1-6.601-9-21.5 10.3-39.399 25.101-54 44-2.701 4.9-1.201 9.601.5 14.4 4 11.3 8.601 22.3 12.601 33.6 12 33.9 28.3 65.3 55.899 89.4 10 8.8 18.899 19.6 32.899 22.898 2.899 1.7 5.7 3.3 8.601 5 18.5 11 38.899 17 59.5 22.2 12.799 3.2 26 4.6 39.101 6.4 3.899.6 8.198.8 11.899-.2 11-2.9 22.399-1.101 33.601-3.4 11.899-2.5 24.399-2.3 36.3-5 26.601-6 53.7-7.7 80.8-8.898 19.802-.802 39.802-1.602 59.7 1.398 14.899 2.3 29.2 5.9 42.8 12.3C1837.1 667.2 1839 666.7 1840 668zm-423.6 168.6c-.6-3.8-3.2-4.3-6.5-4.602-22.5-1.6-44.5-6.1-66.5-11.198-26.2-6.102-51.7-14.5-77.1-23.4-34.4-12-66.7-27.6-96.8-48.3-30.102-20.602-46.9-48-47.5-84.8-.102-4.4-1.2-8.5-3.7-12.102-17.102 28.602-31.5 58.602-43.7 89.5-8.1 20.7-15.6 41.7-18.9 63.9.302 1.6.5 3.2.9 5.5 3.5-1.8 6.7-3.4 9.2-6 12.3-13.102 27-23.7 39.1-37 1.601-1.7 3.3-3.3 4.9-5 1.898-2 3.6-2.602 5.8-.3 15.6 15.398 35.3 23.3 55.6 30 31.2 10.3 63 18.8 94.7 27.1 23.7 6.2 47.5 11.9 72 14.7 19.101 2.2 38 5.7 57.3 5.5 6.302-.102 12.7.1 19 .2 1.498-.996 1.9-2.298 2.2-3.698zm497.798 331.1c-9.399-16.5-14.399-33.398-4.1-51.5-5.801-1.7-5.4 4.4-7.5 6.7-7.601 8.4-8.9 18.5-4.601 29.1 4.601 6 9.301 12.102 13.899 18.102 2.004.298 3.104-.202 2.302-2.402zm13.702-75.7c-2.7 1.302-4.6 3.602-6.5 5.802-1.2 1.398-1.3 2.898.5 4.1l.101-.1c.699-.602 1.399-1.2 2-1.9 2.5-1.5 4.801-3.2 6.199-5.899-.8-.603-1.502-1.303-2.3-2.003zm-6 92.4c.601.9 1.7.2 2.4-.6-3-5.5-5.8-11.301-10-16.102-.8.802-1.5 1.602-2.3 2.4 2.198 5.502 6.6 9.502 9.9 14.302z"/><path id="cl1" fill="#A15602" d="M1787.698 1193.7c.4-3.398-.5-7 1.9-10.1 15.899 3 29.3-.9 40.199-13.5 9-10.5 14.301-22 14-36.2-.199-9.2 4.399-17.3 10-24.5 18.101-23.4 36.601-46.5 56.601-68.4 17.8-19.5 17.3-39.198-1.7-57.8-12.5-12.2-26.5-22.1-44.1-25.5 2.8-22.398 5.699-44.7 5.3-67.398-.7-2.2-1.898-4.9.7-6.2 2.5-1.3 4.3 1.2 5.6 3 8.2 11.7 16.601 23.398 24 35.6 11 18 23.2 35 38.7 49.4 8.399 7.7 15.5 16.5 21.7 26 9.5 14.6 10.6 29.6 2.698 45.398-8.198 16.2-18.5 30.802-30.1 44.602-.9 1-1.9 2-2.8 3-.5.7-1.101 1.398-1.601 2.1-2.5 2.9-5.601 5.4-5.699 9.7-2.5 6-7.4 10.1-12 14.4-12.7 9.5-13.101 22.898-11.9 36.898-3 19.102-3.3 38.102.9 57.102 3.1 13.898 2.1 15-12.801 15.398-33.699-1.3-65.601-9.2-94.801-26.7-2.094-1.8-4.194-3.4-4.796-6.3zm78.5-343.6c.601-.8 1.4-1.5 1.802-2.3 15.8-32.7 29.1-66.2 34.198-102.602 3.2-22.6 2.302-45.1-.8-67.5-2.399-17.398-6.8-34.5-12.3-51.2-.9-2.898-2.302-5.698.399-8.3-.301-.898-.5-2-1-2.8-19.701-30.6-40.701-60.1-66.399-86-22-22.1-45.802-41.5-73.4-56.4-28.1-15.198-55.8-31.1-85.399-43.5-35.101-14.699-71.5-23-109.5-23.699-15.301-.301-30.601.699-45.899 2.301-6 2.3-7.9 7.6-9.8 13-7.102 20.8-12.102 42.1-16.7 63.5-6.9 31.8-12.8 63.7-16.7 96 4 10.3 13.2 15.6 21.1 22 27 22 56.802 36.398 92.7 36.6 12.8.102 25.9.5 38.8 2 34.302 4 68.4-.1 102.5-1.6 41.5-1.7 81.9.7 118 24.5.9.6 1.7 1.1 2.7 1.6.4.3.8.602 1.2.8.7.602 1.4 1.2 2.2 1.802.7.6 1.3 1.198 2.1 1.8 2.8 3.2 5.601 6.398 8.5 9.6.9 1-.399-.1.5.9-.3-.102-.3-.5-.399-.602-3.399-3.6-6.301-7.698-10.5-10.6-.399-.3-.699-.5-1.101-.8-.7-.5-1.399-1.102-2.2-1.602-.698-.6-1.5-1.1-2.3-1.6-1.6-1.2-3.2-2.4-4.899-3.5-18.601-9.2-38.601-12.6-59-13-44-.9-87.801 2.1-131.199 10.3-23.5 4.4-47.602 8.5-71.4 6.8-33.6-2.398-66.5-10.1-96.6-26.698-3.4-1.9-6.801-4.302-11.102-4.2-3 1.898-3.3 5-3.1 8 1.5 27.3 8.2 52.398 30.4 70.8 2 3.2 5.198 5.1 8.398 6.9 12.7 7.398 26.5 12.1 40.9 14.898 16.1 3.2 32.398 1.8 48.6 1.8 15.301-2.8 30.5-6.1 45.602-9.898 24.198-6 48.3-12.2 72.1-19.7 19.3-6.2 38-14.2 57.8-19.2 41.8-10.5 73.802 5 99.001 37.8 6.551 5.301.25 7.75 2.25 13.5-1.699 2.301 3.149 4.102 3.649 6.9 4.2 24.2-.7 47.7-5.8 71.1-1.302 5.802-3.5 11.5-2.602 17.602.9 3.898 1.7 7.8 2.602 11.7.7 1.5.8 2.598 2.098 2.798zM1456.3 743.9c-4-4.4-8.5-8.4-12.5-12.9-35.3-40.198-71.2-80-109.9-117.1-20.7-19.8-43.5-37.4-70.3-48.6-17.1-7.102-34.301-15-53.7-9.301-14.3 7.5-26.5 17.801-38.399 28.399-21.699 19.4-40.101 41.601-53.301 67.8-.6 45.301 17.9 79.301 56.601 104.102 47.5 30.5 99.899 48.199 153.399 63.5 28.801 8.3 58.601 12.1 88.101 16.8 1-1.7 2-3.4 2.899-5.101 9.2-18 16.801-36.801 27.101-54.199 4.601-7.7 9.101-15.4 13.7-23.102 2.499-4.798-1.101-7.498-3.701-10.298zm-246.4 187.3c-4.2-5.8-7.899-11.898-12.1-17.7-3-4.1-6.7-7.6-8.9-12.398.601.1 1.3.3 2 .6.8.4 1.601.7 2.4 1 3.398 1.4 6.2 3.7 9.1 5.9 18.3 13.8 35.8 28.5 51.3 45.398 10.4 11.302 23.2 18.9 38.5 21.302 11.4 1.8 23.302 4 31.9-7.4 1.3-3 2.9-6 4-9.1 6.8-19.802 18.3-36.802 32.5-51.9 10-10.6 20.7-20.7 31-31.1 10.1-10.302 18.2-21.9 22.9-35.7-3.4-3.8-8-3-12.102-2.8-20.398.8-40.5-2.102-60.5-5-60.8-8.7-119.3-26.602-177.699-45.102-15.601-4.898-30-12.6-42.801-23-8.1-6.6-9.898-6.7-17.5 1.3-11.699 12.302-25.199 22.7-37.1 34.7-2.9 2.9-5.602 7-10.9 5.2-3.398 12.5-5.199 25.2-5.898 38.2.1 2.3.6 4.7.198 7-2 12.8 3.302 22.1 12.302 30.8 15.198 14.6 32 26.9 49.6 38.1 13.1 8.302 27.5 14.4 43.3 16.9 10.8 1.7 21.7 2.7 32.5 4.1 8.4 1.102 16.4 1.7 24.5-.698 1.7-3.5-.702-6-2.5-8.602z"/><path id="sd1" fill="#6E3200" d="M1864.5 957.802c1.8-1.602 2.8-4.2 6.5-2.4 17.5 8.5 34.898 17.601 46.5 33.5 11.5 15.8 13 33.9-2.5 51-21 23.101-40.7 47.2-59.7 72-5.8 7.601-9.4 15.9-9.2 25.7.2 10.3-3.5 18.8-9 27.7-8.4 13.5-20.1 19.8-34.7 22.1-4.2.7-10.3 3.7-12.6-3.7 1.5-2.8 4.7-3 6.899-3 7.5-.1 10.101-4.8 12.199-10.898 2.5-7.5 6-14.802 8.301-22.4 1.801-5.8 4.5-10.4 10.301-12.4 9.899-3.398 14-11.5 17.6-20.3 4-9.8 6.801-19.5 2.801-30-3.5-9.3-6.801-18.8-10.701-27.899-4.799-11.199-4.299-22 .802-32.801 2.399-5.1 4.698-10.3 7.5-15.2C1854.6 992.9 1861.3 976 1864.5 957.802zm.4-100.102c-3.3-24.898-14.6-46.6-27.3-67.7-1.7-2.8-3.2-7-8-6-.301 7.4 1.4 14.4 4.4 21.2 9.698 21.3 18.3 43 29.5 63.602 2.9-3.5.9-7.5 1.4-11.102zm-653.6 80.8c-15 1.602-29.8-.698-44.5-2.5-44.102-5.398-76.4-31.8-106.9-61.1-5.3-5.1-7.5-11.5-7.2-18.9.102-4.198 1-8.8-2.8-12.1-1.399 1.6-1.6 3.6-1.7 5.6-1 23 .2 46 5.102 68.4 6 27.8 12.898 55.3 23.699 82.1 13.699 34.102 30 66.5 48.301 98.102 15.6 27 32.699 53.1 45.199 82.1 6.199 14.4 9.199 27.301 3.699 42.102-5.8 15.6-11.1 31.398-23.899 43.198-3.399 3.102-7.699 4.9-11.101 8.4 3.601 3.6 7.9 2.4 11.7 2.9 23 3.6 44.899.8 65.399-11.102 11.5-6.7 22.5-14.2 33.101-22.3 6.899-5.3 12.399-11.7 17.2-19.2 5-7.6 5.199-16.3 8.199-24.3 6.301-16.8 7-34.3 7.5-51.9.899-32.698-4.399-64.898-8.699-97.1-1.2-9-4.101-17.9-10.801-25.3a136.905 136.905 0 0 1-15.301-20.9c-12.3-20.898-21.398-43.399-30.999-65.7-.899-.9-4.199-.198-5.199-.5zm260.6-207.3c3.7-8.8 12.9-19.45 5.4-23.549-44-23.899-76.144-55.605-98.743-99.807-14.801-29-25.837-57.321-33.137-89.222-1.7-7.6-14.92-5.423-22.222-3.923-11.698 2.4-23.398 4.602-35 7.7-27.698 7.4-54.398 17.3-78.3 33.6 14.8-.698 29 2.4 42.8 7.4 30.602 11 55.9 30.4 79.302 52.1 15.8 14.7 31 30 45.198 46.4 18.5 21.3 38.602 41.2 57.4 62.2 7.3 8.2 14.6 16.3 22.4 24 1.698 1.7 2.8 3.6 3 6.1C1465.1 747 1468.6 739.1 1471.9 731.2zm-126.5-225.898c-1.399 2.8-1.399 5.8-.8 8.8.8 4.2 1.699 8.398 2.8 12.6 6.5 26.602 18.4 51.102 29.101 76.102 8.199 19 20.601 35.398 34 51.199 22.5 26.601 49.101 47.199 81.5 60.301-6-9.4-13.699-17.602-18.199-28.102-6.9-16-10.301-32.6-9.9-50-8.2-6.199-16.6-12.1-24.5-18.699-22.1-18.699-39.6-41.101-51-67.801-7.7-18-14.6-36.3-21.5-54.6-2.3-6.102-5.5-12.2-4.8-19.102-7.602 8.6-11.702 19.2-16.702 29.302zm124.298 60.898c3.101-22.5 7.9-44.8 11.7-67.2 3.601-21.198 9.8-41.8 15.101-62.6 2.5-9.8 4.601-20.101 11.601-28.2-9.101 1.3-18.2 2.2-27.301 3.9-22.399 4-44.199 10-64.801 19.898 4.4 1.802 3.7 5.802 4 9.4.801 9.6 1.4 19.2 2.602 28.7 2.6 20.398 7.3 40.5 13.5 60.1 6 19 15.898 35.7 29.8 50 3.6-3.896 3.1-9.298 3.798-13.998zM1196.6 912.802c6.8 7.398 8.849 19.252 17.95 24.752 9.398 11.399 15.687 28.567 22.086 41.769 9.399 19.4 18.898 37.035 34.499 52.735 1.801 1.801 5.535 13.36 6.937 15.562 6.6 10.6 13.584 11.147 18.384 22.946.101.302 7.672 8.196 8.672 8.396.801-2.4 1.25-17.512 1.75-20.113 3.1-16.6 2.022-32.148 6.123-48.546 3.6-14.102 7.3-28.2 11-42.3-5.2 2.1-9.602 5.898-15.602 6.1-15.3.4-29.5-2.6-42-12.3-5.6-4.3-10.5-9.102-15.5-14-9.7-9.4-18.398-19.9-29.7-27.8-6.8-4.7-13-10.2-19.5-15.4-3.398-2.8-7.1-5-11.698-4.6-2.401 6.697 4.899 8.299 6.599 12.799zM1913 1169c-5-5.698-6.5-14.398-15-17.1-1.102.9-1.7 1.9-2 3.3-3.602 18.2-2.9 36.302.3 54.4.7 4.2 3.8 9.3 2.3 12.3-2.2 4.5-8.5.801-12.8 2.2 14.7 3.1 28.7.5 42.6-4.3.3-.102.601-.301.9-.5 5.7-3.801 7.7-9.801 5.2-16.4-2.602-6.8-5.602-13.4-10.2-19.2-5.4-3.6-7.5-9.8-11.3-14.7zm-52.756-454.507c-22.399-28.399-52.124-33.028-89.224-27.128-20.8 3.3-53.882 20.647-73.781 27.547 41.2-2.301 96.459 8.088 120.86 45.088 4 4.9 8.1 9.802 10 16 2 .7 3 2.4 4.1 4.102C1837.9 789 1843.4 798 1848 807.6c4.6 9.5 9.198 19 13.8 28.5 9.398-27.5 14.5-55.5 12.1-84.602-.3-3.898-2.3-7.6-2-11.698-3.4-8.05-9.156-22.206-11.656-25.307z"/><path fill="none" stroke="#000" stroke-miterlimit="10" stroke-width="6" d="M1871.9 885.5c-3 .802-1.2 3.4-2.101 4.9m20-272.098c15.899 26.6 28.899 54.398 34.899 85 .802 4.198 1.2 8.5 1.7 12.8 1.409 12.654-.5 19.7-2.601 29.1-2.899 12.9-6.399 25.801-12.101 37.9-4.1 13.6-11 26.2-15.6 39.7-.4 1.3-1.2 2.398-1.7 3.6-.7 2.4-2.101 4.5-2.601 7-.5 1.101-1.199 2.101-1.601 3.2-.3.8-.6 1.5-1 2.2-.698 1-1 2.198-1.399 3.398-1.101 1.9-1.5 4.102-2.399 6.102-10.2 18.398-6.8 35 6.399 50.6 18.301 21.7 36.899 42.8 58.399 61.4 11 9.6 22.101 19.398 30.2 31.8 13.102 20.2 12.3 39.1-1.898 58.398-12.102 16.5-26.302 30.9-43.302 42.4-.8.5-1.698.9-2.5 1.3m-516.793-662.3c-21.5 10.3-39.4 25.1-54 44m552.297 691.8c-9.399-16.5-25.038-39.871 21-74.8m-10.898 90.902c-3-5.5-5.8-11.302-10-16.102m-49.7-210c2.8-22.398 5.699-44.7 5.3-67.398-.7-2.2.101-8.052-3.946-18.78m45.294 352.815c-36.754 5.493-89.55-6.837-118.75-24.337-2.1-1.8-4.198-3.398-4.8-6.3.4-3.398-.5-7 1.9-10.1m99.902-565.4c-.302-.898-.5-2-1-2.8-19.701-30.6-40.701-60.1-66.4-86-22-22.1-45.801-41.5-73.4-56.399-28.1-15.199-55.8-31.101-85.399-43.5-35.101-14.699-71.5-23.001-109.5-23.699-15.301-.302-30.601.698-45.899 2.3M1491.6 713.9c2 3.2 5.199 5.1 8.398 6.9 12.7 7.398 26.5 12.1 40.9 14.898 16.1 3.2 32.399 1.801 48.6 1.801a714.236 714.236 0 0 0 45.602-9.899c24.199-6 48.3-12.2 72.1-19.7 19.301-6.2 38-14.2 57.801-19.2 41.8-10.5 81 5.2 106.199 38M1209.9 556c-14.048 5.194-69.557 61.428-86.985 87.401-19.088 34.524-33.177 62.954-44.299 88.363-13.361 35.432-5.396 16.083-16.822 46.532-2.9 2.899-1.775 10.88-5.894 27.104-3.398 12.5-5.2 25.2-5.898 38.2.1 2.3.6 4.7.198 7m273.9 117.3c1.3-3 2.9-6 4-9.1 6.8-19.801 18.3-36.801 32.5-51.9 10-10.6 20.7-20.7 31-31.1 10.1-10.301 18.2-21.9 22.9-35.7m375.3 343.6c1.5-2.8 4.7-3 6.898-3 7.5-.1 10.102-4.8 12.2-10.898 2.5-7.5 6-14.802 8.3-22.4 1.802-5.8 4.5-10.4 10.302-12.4 9.899-3.398 14-11.5 17.6-20.3 4-9.8 6.801-19.5 2.801-30-3.5-9.3-6.801-18.8-10.701-27.9-4.799-11.198-4.299-22 .802-32.8 2.399-5.1 4.698-10.3 7.5-15.2 9.1-15.898 15.8-32.8 19-50.999M1828.1 776c6.229 7.45 14.561 20.117 17.561 26.918 11.169 24.527 17.59 54.332 22.84 73.832M1049.9 843.9c-1.399 1.6-1.6 3.6-1.7 5.6-1 23 .2 46 5.102 68.4 6 27.8 12.898 55.3 23.699 82.1 13.699 34.102 30 66.5 48.301 98.102 15.6 27 32.699 53.1 45.199 82.1 6.199 14.4 9.199 27.301 3.699 42.102-5.8 15.6-11.1 31.398-23.899 43.198-3.399 3.102-7.699 4.9-11.101 8.4 3.601 3.6 7.9 2.4 11.7 2.9 23 3.6 44.899.8 65.399-11.102 11.5-6.7 22.5-14.2 33.101-22.3 6.899-5.3 12.399-11.7 17.2-19.2 5-7.6 5.199-16.3 8.199-24.3 6.301-16.8 7-34.3 7.5-51.9.899-32.698-4.399-64.898-8.699-97.1-1.2-9-4.101-17.9-10.801-25.3M1414.5 840.1c5.1-7.2 54.1-101 57.398-108.9 3.7-8.8 3.7-8.8 6.9-18.1-44-23.9-76.7-59.2-99.301-103.4-14.801-29-25.791-55.128-33.092-87.027-2.005-8.962-2.174-11.49-23.209-7.973-11.699 2.4-23.398 4.602-35 7.7-27.699 7.4-54.398 17.3-78.3 33.6m152.204-80c-7.6 8.602-11.7 19.2-16.7 29.302-1.399 2.8-1.399 5.8-.8 8.8.8 4.2 1.699 8.398 2.8 12.6 6.5 26.602 18.4 51.102 29.101 76.102 8.199 19 20.601 35.398 34 51.199 22.5 26.601 49.101 47.199 81.5 60.301M1508.1 408.2c-9.1 1.3-18.2 2.2-27.301 3.9-22.399 4-44.199 10-64.801 19.898M1209.9 931.2c9.399 11.4 19.564 33.327 25.964 46.527 9.4 19.4 14.1 29.424 30.878 52.443 1.802 1.801 7.692 11.796 9.092 13.996 6.6 10.6 9.833 12.333 19.333 25 .1.302 10.167 10.466 11.167 10.667.802-2.4.167-14.333.667-24.167.5-18.167 1.898-28.968 5.999-45.366 3.6-14.102 7.3-28.2 11-42.3m587.248 256.337c.301-.102 17.752-4.837 18.052-5.036 5.7-3.801 7.7-9.801 5.2-16.4-2.602-6.8-5.602-13.4-10.2-19.2M1871.198 726.7c-22.399-28.399-55.419-46.425-92.519-40.524-20.801 3.3-76.17 22.125-96.069 29.024 41.199-2.301 111.088 7.8 135.488 44.8 4 4.9 10.002 12.157 11.901 18.356"/></svg>