<svg xmlns="http://www.w3.org/2000/svg" id="hair" viewBox="0 0 3000 3000"><path id="cl1" fill="#A47642" d="M1903.1 756.1v-.4c-9.4-103.8-45.2-190.9-107.4-261.4-61.5-66.2-135.3-95.7-221.8-88.2-52.3 8.9-92.2 19.6-119.7 32.1s-41.3 18.7-41.4 18.7c-.1.2-.2.3-.3.3-.1.1-.3.3-.4.5-12.7 12.1-23.6 29.1-32.9 50.9 9.3-21.8 20.2-38.8 32.9-50.9l.1-.8c-114-7.2-203 17.8-266.8 75.2-38.9 40.2-64.7 105.8-77.4 196.9-2.7 19.5-5.7 37.8-9 54.8-.1 0-.1 0-.1.1-6.7 53.2-19.3 93.8-37.6 121.7-3.2 6-6.3 11.6-9.7 16.7-71.9 131.6-36.2 225.1 107.1 280.6-46.8-46.9-63.8-103.8-50.9-170.7 4.7-30.2 20.6-58.6 47.7-85-27.1 26.4-43 54.8-47.7 85-12.9 66.9 4.1 123.8 50.9 170.7 38.7 20.8 75.3 31.8 110.1 32.9h.4c6.3-.4 6.8-2.9 1.8-7.5-33.2-24.4-29.8-69.5 10.1-135.1 14.4-17.8 27.6-36.3 39.3-55.5.3-.6.6-1.2 1.1-1.7 24.5-41.7 35.5-100.4 32.9-176.2 1.3-61.6 7.1-109.5 17-143.7 12.8-31.8 28.6-54.5 47.5-68.5-14.3-20.9-20.7-47.7-19.4-80.3-1.3 32.6 5.1 59.4 19.4 80.3 4.6 6.7 10.1 12.8 16.3 18.3 26.3 20.5 64.3 19.7 114.2-2.3 30-10.9 61.3-19.6 94.1-26.4h.6l.1-.1h.2c20.7-4.3 42-7.7 63.8-10.3 25.3-3 47.8-3.8 67.5-2.3h.1c26.1 1.9 47.3 7.9 63.6 17.7-16.3-9.8-37.5-15.8-63.6-17.7h-.1c-19.7-1.5-42.2-.7-67.5 2.3-21.8 2.6-43.1 6-63.8 10.3v.1c61.6 6 110.2 26.9 146.1 62.6.1-.5.6-3 1.5-7.6 2.9-28.6-2.5-50.6-16.4-66.2 13.9 15.6 19.3 37.6 16.4 66.2-.9 4.6-1.4 7.1-1.5 7.6v.2c-20.1 66.6-11 123.4 27.3 170.8 14.4 15.1 24.7 26.2 30.9 33.2 6.3 7 12.9 15.6 19.9 25.8 7 10.3 14.5 31.3 22.5 63 2.8 13.1 5.8 30.8 8.8 53.3 3.1 22.4 5.2 44.3 6.5 65.7 1.2 21.3.2 38-3 49.9-3.2 11.8-8.5 20.3-16.1 25.5-13.2 5-25.7 5.8-37.8 2.3l-.3-.1c-16.6-5-32.3-18.2-47.1-39.6-18 30.9-9.1 63.1 26.5 97 34.2 25.5 74.8 31.9 121.7 18.9 33.6-14.4 54.1-45.3 61.6-92.5 2.4-47.9-9.5-97.9-35.6-150.2-31.2-67.3-44.1-138.9-38.6-214.5 4.4-26.4 6.3-43.9 5.4-52.4zm-39.7 405.6c-3.2 11.8-8.5 20.3-16.1 25.5-13.2 5-25.7 5.8-37.8 2.3 13.9-6.5 39.8-54.3 37-96.5-2.3-36.7-8.3-39.6-3-57.5 5.1-17.8-.9-32.7 7.6-42.7 2.8 13.1 5.8 30.8 8.8 53.3 3.1 22.4 5.2 44.3 6.5 65.7 1.2 21.3.2 38-3 49.9z"/><path id="sd1" fill="#896237" d="M1350.3 684.4c-15.3-22.7-19.3-48.1-20.7-74.9-1.1-21.2.1-42.6-5.3-63.5-5-19.1-13.6-35.3-32.5-44.2-10.6-5-21.5-6.8-33-4.9-20.3 3.3-39.2 10.4-56.9 20.7-28.9 16.8-55.8 36.3-80 59.4-1.2 1.1-2.6 2.1-3.9 3.1 14.8-34.9 40.4-59.7 72.9-78 34.3-19.3 71.5-30.5 110.1-37.5 30.2-5.5 60.7-7.7 91.4-7.9 4 0 8 .3 12 .5.6 0 1.2.6 2 1 1 3 17.5-8.1 28.8-11.1 13.1-5.7 27.3-14.1 42.8-18-13.3 12-18.2 25.1-24.5 35-23.9 37.8-25.6 77.3-10 118.3 6 15.6 14.5 29.9 23.5 43.9 7.5 11.5 17.9 19.4 31.1 23.6 9.9 3.2 20.1 4.3 30.2 6.4-16.9 8-34.8 13.1-52.5 18.9-7.3 2.4-14.7 4.1-22.2 5.7-16.4 3.7-35.5 2.3-48.1-8.3-16-13.5-10.7-14.9-29.2-23.9 2.1 3.7-2.7 4.4-5.3 7.8-7.1 9.1-13.8 18.5-20.7 27.9zM1869 1147c-2.9 16-8.4 29.8-23.5 45-17.6 3.3-47.3 1.9-68-22-.9-2.3-12.7-18.8-15.4-20.2-10.6 17.8-12 39.4-2.4 59.3 16.7 34.4 46.2 63.9 121.8 61.9 44.7-8.6 80-37.7 88.5-82.5 3.6-19.1 2.3-37.7 0-57-5.2-43.7-22.2-84.7-40.5-124 0 1.7 12 42 4.6 62.4-1.5 8.9-2.7 17.9-7.1 25.8-5.7 10.4-16.1 12.2-25.2 4.7-3.6-3-6.4-6.7-9.1-10.5-12-19.8-12-19.8-19.9-43-10.4-22.9-16.1-35.2-18.6-38.9 0 2.3 16.7 128.5 14.8 139zm-129.5-522.2c-1.6 3.1 8.4 13.5 9 15.7 1.8 5.7 3.7 12.2 5 18 5.6 24.8-2.3 43.9-9.5 67.8-3.7 12.3-3.9 35.9-3.6 48.7.6 24.3 10.5 46.4 19.4 68.9 7.5 19 24.1 35.6 39.1 49.2-3-7.7-6.9-22.4-10.1-30.1-12.3-29.5-11.8-58.8.5-88.2 5.9-14.1 12.1-28.1 16.4-42.9 6.6-22.8 11.3-45.8 6.3-69.8-1.6-7.7-4.2-14.7-10-20.1-24.5-14-51.7-16.9-62.5-17.2zm-639.6 569.3c2.2 1.2 13.1 6.3 12.9 2.7 0 0-10.8-14.7-21.7-27.9-18.8-32.1-29.3-68.2-28.6-104.7.7-41.5 14.2-78.3 42.9-108.9 3.5-3.7 6.8-7.5 12.5-6.9-.8-4 1.2-7.1 3.3-10.1 4.8-7.2 9.7-14.4 14.4-21.6 1.1-1.7 3.6-3.3 1.4-6.3-1.3.5-2.5.9-3.6 1.6-28.9 16.7-54.2 37.8-74 64.7-17.4 23.6-26.9 50.3-27.4 80-.5 29.5 3.7 58.4 10.9 87 1.2 4.7 3.6 9.5 1 14.6 16.7 14.8 36 25.8 56 35.8zm739.6-183.3c-10.5 18.3-9.5 34.7-2.5 49.2 30.9 70-31.5 45-41 120.5-.8 3.2 29.7 10.6 33.1 10.9 18.3 1.9 34.3-20 36.3-40 .9-8.7 1.8-17.7 1.4-26.4-2.1-40.9-10.7-90-17.3-130.4-2.3-1.4-8.8 15.3-10 16.2zm-207.4-366.9c18.1 2.9 36.1 5.9 53.4 12.3 22.2 8.1 42.4 19.3 57.9 37.6 1.1 1.2 2 2.7 4.3 2.4 1.7-2.8 1.5-6.2 1.6-9.5 3.2-15.8 2.3-30-3.1-43.8-3.9-10.1-13-19.1-24.1-18.9-29.8.5-80.9 6.1-110 11.7-1.3 1.1 18.6 6.9 20 8.2z"/><path id="hl1" fill="#B6844A" d="M1912.2 953.6c-.8 1.7-1.2 4.5-3.9 2.2-2-1.7-3.5-4-5.1-6.2-13.3-18.4-25.8-37.2-36.4-57.3-9.5-17.8-12.8-36-7.1-55.9 5-17.1 12.9-32.8 19.6-49.2 6.6-16.1 12.6-32.4 10.3-50.3-1.4-10.9-3.1-21.8-5.6-32.5-14.6-63.1-41-120.9-79-173.4-16-22.1-34.5-41.6-55.2-58.9-32.9-27.5-72.1-41.1-114.3-46-14.9-1.8-29.9-4.4-44.7-3.6-18.9 1-37.9.7-56.8 3.9-15.1 2.5-30.3 4.8-45.3 7.6-3.6.7-7.2 1.6-10.8 0 31.1-13.2 63.5-21.8 97-25.9 28.3-3.4 56.5-2.8 84.5 3 50 10.4 92.3 35.1 128.3 71 29.6 29.5 52.1 63.9 70.6 101.1 25.9 52.4 42.4 107.6 48.6 165.8 1 9 .8 17.9-.8 26.8-6.4 35.6-6.5 71.5-3.1 107.4 2.3 23.7 6.2 47 9.2 70.4zm-594-89.6c-4 .1-7.9.9-11.7 2.3-36 13.1-73 16.6-111 11.6-32.9-4.4-61.2-17.8-83.2-43-16-18.4-28.4-39.3-37.3-62.2-2.1-5.2-3.7-10.7-7.4-15.2v.1c-1.9 3.9.8 8.5-1.7 12.4-1.5 5.7-2.5 11.5-2.3 17.4 6.8 42.2 26.9 76.9 59.5 104.3 10 8.4 21 15.4 33.3 19.9 17.8 6.5 35.9 12.2 54.8 14.9 11.5 1.6 23.2 2.8 34.5 5.6 20.1 5.1 40.2 4.5 60.4 1.7 5.1-.7 8.8-2.7 9.9-8.2.4-1.9 1.3-3.7 2-5.6 2.8-18.7.9-37.4.2-56z"/><path fill="none" stroke="#000" stroke-linecap="round" stroke-linejoin="round" stroke-miterlimit="10" stroke-width="6" d="M1903.1 755.7v.4m0-.4v.4m-93.6 433.4l-.3-.1c-16.6-5-32.3-18.2-47.1-39.6-18 30.9-9.1 63.1 26.5 97 34.2 25.5 74.8 31.9 121.7 18.9 33.6-14.4 54.1-45.3 61.6-92.5 2.4-47.9-9.5-97.9-35.6-150.2-31.2-67.3-44.1-138.9-38.6-214.5 4.4-26.4 6.3-43.9 5.4-52.4m-152.6-56.3v.2c-20.1 66.6-11 123.4 27.3 170.8 14.4 15.1 24.7 26.2 30.9 33.2 6.3 7 12.9 15.6 19.9 25.8 7 10.3 14.5 31.3 22.5 63m-41.6 196.7c12.1 3.5 24.6 2.7 37.8-2.3 7.6-5.2 12.9-13.7 16.1-25.5 3.2-11.9 4.2-28.6 3-49.9-1.3-21.4-3.4-43.3-6.5-65.7-3-22.5-6-40.2-8.8-53.3m52-237.1c-9.4-103.8-45.2-190.9-107.4-261.4-61.5-66.2-135.3-95.7-221.8-88.2-52.3 8.9-92.2 19.6-119.7 32.1s-41.3 18.7-41.4 18.7m0 0c-.1.2-.2.3-.3.3-.1.1-.3.3-.4.5-12.7 12.1-23.6 29.1-32.9 50.9m33.6-51.7h-.6c-114-7.2-203 17.8-266.8 75.2-38.9 40.2-64.7 105.8-77.4 196.9-2.7 19.5-5.7 37.8-9 54.8-.1 0-.1 0-.1.1-6.7 53.2-19.3 93.8-37.6 121.7-3.2 6-6.3 11.6-9.7 16.7-71.9 131.6-36.2 225.1 107.1 280.6m680.7-560.7c-16.3-9.8-37.5-15.8-63.6-17.7h-.1c-19.7-1.5-42.2-.7-67.5 2.3-21.8 2.6-43.1 6-63.8 10.3h0-.2 0l-.1.1m-488.6 310c-27.1 26.4-43 54.8-47.7 85-12.9 66.9 4.1 123.8 50.9 170.7m631.8-503.1c.1-.5.6-3 1.5-7.6 2.9-28.6-2.5-50.6-16.4-66.2m14.9 73.8c-35.9-35.7-84.5-56.6-146.1-62.6h-.3m-225.2 10.4c4.6 6.7 10.1 12.8 16.3 18.3 26.3 20.5 64.3 19.7 114.2-2.3 30-10.9 61.3-19.6 94.1-26.4h.6m-225.2 10.4c-18.9 14-34.7 36.7-47.5 68.5-9.9 34.2-15.7 82.1-17 143.7 2.6 75.8-8.4 134.5-32.9 176.2m0 0c-.3.4-.6.9-.8 1.3-.2.1-.2.2-.3.4m1.1-1.7c-.5.5-.8 1.1-1.1 1.7m0 0c-11.7 19.2-24.9 37.7-39.3 55.5-39.9 65.6-43.3 110.7-10.1 135.1 5 4.6 4.5 7.1-1.8 7.5m-110.5-32.9c38.7 20.8 75.3 31.8 110.1 32.9m130.7-668.5c-1.3 32.6 5.1 59.4 19.4 80.3"/></svg>