<svg xmlns="http://www.w3.org/2000/svg" id="hair" viewBox="0 0 3000 3000"><path id="cl1" fill="#CE7A1B" d="M1362.5 692c.197-16.925 2.363-27.941 6.5-33.05 53.369-4.572 110.619-18.256 171.75-41.05 15.131-7.61 33.131-12.36 54-14.25 2.734-.222 5.551-.422 8.45-.601 28.827-1.603 69.277 5.164 121.35 20.3 24.011 5.427 42.86 13.794 56.55 25.101 4.803 3.979 8.969 8.313 12.5 13 41.205 44.306 68.754 99.389 82.65 165.25 4.945 27.083 1.096 62.699-11.55 106.85-6.698 23.411-15.865 49.211-27.5 77.4 25.168-23.918 52.435-69.385 81.8-136.4 29.363-66.98 45.646-113.997 48.85-141.05 3.002-30.61-18.031-73.66-63.1-129.15-58.749-69.722-131.35-128.139-217.8-175.25-65.604-37.589-138.554-64.123-218.851-79.6-60.797-12.459-119.713-1.942-176.75 31.55-56.938 35.057-92.488 92.974-106.649 173.75-50.082 16.553-86.481 39.854-109.2 69.9-21.076 27.95-43.592 75.084-67.55 141.399-10.604 35.661-13.438 80.061-8.5 133.2 9.19 63.729 30.04 120.796 62.55 171.2 42.326 65.282 104.593 107.199 186.8 125.75-48.516-50.829-61.833-114.462-39.95-190.9 6.113 4.958 17.28 17.108 33.5 36.45 14.801 17.674 24.835 32.691 30.101 45.05-13.255-85.267-12.089-145.467 3.5-180.6 3.142-6.645 7.975-12.161 14.5-16.55 33.452-27.138 55.47-55.987 66.05-86.55 6.263-22.317 8.263-59.367 5.999-111.149z"/><path id="sd2" fill="#874700" d="M1231.4 1189.6c1.6-.399 3.399.4 5.1-1.3-5.1-5.9-9.8-12.3-15.4-17.8-9.5-9.4-17-20.3-24.699-31.2-13.2-18.8-24.801-38.6-32.9-60.1-5.8-15.2-9.5-31-10.1-47.4-.2-6.3.1-12.5-1.5-18.8-1.301-5.1-1.101-10.7.199-15.9 1.101-4.6 1.301-9.2 1.2-13.8-.1-8.7.7-17.3 4.8-25.2 2-4-4.081-11.803-7.081-13.903 8.699 0 22.059-3.042 30.658-4.542 4.5 4.2 2.523 18.145 5.023 23.045-.3 3.6.5 6.899 2.3 10 2.2 3.399 3.301 7.3 4 11.199 1.301 4.9 4.301 9 7.4 12.9 7.199 9.1 7.8 18.9 5.699 30-3.699 19.2-7.3 38.5-6.5 58.2.601 16.3 2.4 32.5 7.601 48 5.1 15.3 13.899 28.7 24 41.1 4 4.9 7.6 9.9 10.6 16.101-4.1 2-7.3 2.2-10.4-.6zm178.1-536.3c1.6-2 3.9-3.3 4-6.5 1.2-21.6 9-41.2 19.3-59.9 12.7-23.1 29.3-43.3 47-62.699 14.7-17.033 33.778-28.789 34.878-28.789 17.4 1.2 45.901 5.909 46.802 6.31-8.643 3.214-13.78 8.979-19.079 13.379-21.601 17.7-37.601 39.9-52.601 63-11.3 17.3-20.2 35.9-27.8 55-.9 2.2-5.6 6.9 1.5 8.4-13.801 4.8-28.1 7.3-42.4 9.8-3.8.699-7.5 2.699-11.6 1.999zm264.41-123.133c-22.2 14.2-46.811 37.333-73.811 73.034 8.2.5 15.601 0 22.9.3 4.2.2 8.7-1.5 12.4 1.8-10.601 0-21.301.1-31.9 0-21.3-.1-41.5 4.4-61.1 12.6-5.5 2.301-11.101 4.5-17 5.4 3.3-12.1 11.5-21.6 18.699-31.2 12.5-16.7 27.601-31.1 43.801-44.3 9.399-7.7 15.433-16.366 24.933-23.966 1.9-1.6 11.313-7.542 10.114-9.642 17.2 4.199 34.764 8.974 50.964 15.974zm-6.71 79.533c6.3.6 11.2-1.5 15.6-6.4 12.8-14 28.7-23.9 44.601-33.9 3.1-2 8.648-7.815 11.962-13.965 22.138 11.732 38.285 24.069 55.285 38.269-9.299 9.9-24.147 18.297-34.548 26.797-3.6 2.899-7.4 5.5-10.6 8.899-23.301-5.8-46.301-12.5-70-17-4.1-.7-8.7.4-12.3-2.7zm184.1 73.8c-8.5 2.7-21.674 8.891-26.174 17.891-9.6-13-20.271-30.173-30.971-42.272 14.345-6.618 42.589-6.471 43.289-7.07 7.2 9.299 8.956 20.851 13.856 31.451zm-36.65 45.55l10.75 56.45c1.388 8.839 3.654 16.14 6.8 21.9 11.854 21.631 22.687 46.597 32.5 74.899v51.25c12.646-44.15 16.495-79.767 11.55-106.85-13.896-65.861-41.445-120.944-82.65-165.25-3.531-4.688-7.697-9.021-12.5-13 13.051 21.272 24.235 48.138 33.55 80.601z"/><path id="sd1" fill="#9D5607" d="M1298.023 377.242c14.804-7.675 30.457-17.204 36.457-17.003 1.2 1.3-12.779 24.761-13.279 25.761-8.9 17.1-16.8 34.7-24.3 52.4-9.301 22.1-17 44.8-18.601 68.8-.8 12.6 2.101 25.6 5.9 38 7.5 23.9 18.3 46.3 31.399 67.5 5.101 8.3 12.101 14.9 19.801 20.7.5.1 1 .1 1.5.2.899.3 1.8.699 2.6 1.199 4.8 3 9 6.801 14.5 8.5 8.2 2.5 10 1.4 10.9-6.899.3-3.2-.4-6.7 2.699-9.101 2.7 7.301 1.601 15.101 2.5 22.601.601 5-2.8 7.8-8.3 7.399-5.899-.5-11.8-1.399-17.6-3-30.5-8.6-59.7-20.399-88.3-33.899-18.7-8.8-48.148-29.393-62.248-44.792-7.823-12.834-10.104-24.724-4.405-42.923 6.5-20.601 12.86-42.013 21.661-61.713 13.699-30.899 34.61-56.451 61.309-76.651 8.102-6.2 16.707-12.979 25.807-17.079zM1335.5 653.5c-29.5 4.9-69.9 14.601-97.8 25.7-15.4 6.1-30.8 12.4-45.9 19.3-19.399 8.9-37.2 20.5-54 33.6-2.6 2.101-5.399 3.8-8.3 5.4-.7.8-1.5.8-2.1-.1 22.699-31.4 45.3-62.9 73.3-90.5-14.9-2.3-116.993 37.997-172.292 66.397 14.2-32.7 26.415-64.624 49.815-92.023 4.8-5.601 22.457-23.022 28.357-27.322 20.5-14.9 50.842-27.938 73.942-38.138 4.3-1.9 7.708 13.024 9.708 18.423 11.367 14.486 17.141 15.91 27.44 23.91 33 25.5 62.566 36.071 101.667 49.671 6.287.806 14.663 4.982 16.163 5.682zM1563 502c19.6 2.3 41.047 6.291 59.947 12.191 9.553-2.191-6.647 12.809-9.147 14.91-16.3 13.6-32.6 27-47.7 41.899-13.8 13.601-25.3 28.8-35.3 45.3-1.5 2.601-3.1 5.101-5.399 7.101-20.101 7.8-40.801 13.5-61.801 18.2-5.899-1.301-6.6-2.301-3.899-9 5.2-13 11-25.7 17.6-38.101 13.101-24.1 29.4-46 47.4-66.6 6.2-7.101 14-12.3 20.899-18.601 4-3.699 12.4-8.9 17.4-7.299zm-153.5 151.3c-6.6.8-28.985 4.396-35.485 5.195-7.8.9-3.314-.495-6.015-7.495-3.1-7.8-1.309-20.605-.209-29.006.7-5-.026-11.471-.026-16.471.2-14.199 4.827-31.153 11.427-43.653 2.9-5.601 9.041-18.467 12.741-23.566 19.601-27.4 52.817-44.356 84.017-42.157 9.3-1.2 21.762-1.345 31.062-1.044 7.666.309 7.666.309-3.912 11.697-1.899 3.7-5.6 5.6-8.6 8.2-30.5 26.3-54.1 57.7-69.6 94.899-4.6 11-8.2 22.5-9 34.7-.2 4.501-1.6 7.801-6.4 8.701zm-227.663 310.546c-4-4.7-1.979-16.208-.16-24.19 24.199-10.101 48.677-20.095 72.877-30.095 5.8-2.4 18.005-11.377 25.106-9.576.6 4.6-9.36 22.016-10.46 25.916-3.9 14-3.8 28.3-4 42.6-.4 29.3 1.1 58.5 2.399 87.7.2 3.899 2.866 16.376 3.366 20.776-4-1.7-14.071-16.287-15.771-18.887-10.399-15.9-22.862-30.625-36.762-43.525-11.6-10.699-15.87-15.757-25.433-30.665-4.099-1.8-12.262-16.654-11.162-20.054zM1011.6 927.4c5.101-6 6.5-13.7 9.2-20.7 11.4-28.9 27.5-55.1 44.9-80.7 5.6-8.2 11.899-15.7 19.2-22.9-2.601 9-5 18.2-7.9 27.101-8.301 25.6-15 51.6-19 78.1-4.1 27.5-5.9 55.4-4.301 83.3 1.601 27.601 6.101 54.601 18.601 79.8 1.601 3.2 5.101 16.773 5 20.573-11.601-13.9-24.357-34.427-32.357-50.528-16.601-33.6-29.78-67.545-38.38-103.845-.199-.901 5.037-9.201 5.037-10.201zm662.047-397.325c19.8 5.1 37.802 13.677 56.702 21.276 3.6 1.5 9.055 4.038 12.555 5.838C1739 562 1739 562 1730.3 570.5c-17.1 10.9-34 22-48.2 36.7-4.1 4.3-9.5 4-14.899 2.5-10.7-.5-21.2-2.5-31.7-4.4-10.199-1.9-20.5-.5-30.699-.8-4.9-.1-7.601-1.4-4-6.2 17-22.7 35.399-44 58.799-60.5 2.199-1.6 10.846-8.525 14.046-7.725zM1749.5 629.4c-.4-1.2-1.5-2.601-.2-3.601 13.4-10.1 26.9-20.1 40.4-30 .5-.399 1.3-.3 1.899-.399 6.7 3.899 12 9.5 16.2 15.7 9.3 13.6 21.944 26.348 29.645 40.947-17.192 2.329-25.685 3.93-44.455 8.612-9.3-7.5-11.151-10.995-22.789-22.26-6.5-3.799-13.8-5.899-20.7-8.999zm104.025 54.087c21.101 37.4 27.325 100.213 22.725 143.213-12.25-56.359-30.374-92.883-51.574-125.982.599-8.6 18.849-19.131 28.849-17.231z"/><path id="hl1" fill="#EF942A" d="M1367.7 627.2c-1.2 4.9-.5 9.8-.3 14.7.199 4.399-1.9 5.7-6 5.5-9.801-.4-17.301-5.4-24-11.9-.7-.7-1.2-1.4-1.9-2.1 2.8-8.8 3.5-18.101 5.6-27.101 4.5-19.1 10.6-37.6 18.6-55.6 7.5-16.7 15.9-32.9 27.701-47 13-15.5 26.699-30.5 45.799-39.2 9.801-4.5 19.801-7.1 30.701-7.2 47.699-.6 93.5 9.101 138.299 24.601 28.301 9.8 56.201 20.399 83.201 33.399 15.299 7.301 31 13.7 46.1 21.301 16.6 8.3 33.699 16.3 48.9 26.8 35.1 24.6 49.313 49.205 60.6 68.8 9.694 17.061 12.501 22.734 21.501 38.633 8.335 18 11.777 27.967 14.699 40.767 1.814 8.26 2.457 13.099 3.457 16.899.413 15.732.522 24.2-2.978 28-3-6.8-11.018-39.177-12.718-46.277-2.6-10.801-8.182-20.677-13.282-30.477-13.199-25.2-20.78-40.496-35.68-64.496-5.5-8.8-15.265-16.579-23.164-23.279-16.7-13.899-31.436-29.37-51.836-37.37-26.6-10.5-53-21.7-80.2-30.7-37.3-12.4-75.3-22.3-114.5-26.601-6.6-.7-13.3-1.3-19.8-2.7-23.4-5-46.4-.3-69.4 2.5-5.3.601-10.1 3.4-14.8 5.801-7.399 3.8-14.5 8.199-22.1 11.5-19.101 8.2-29.8 23.899-38.4 41.6-10.8 22.7-13.9 46.7-14.1 71.2zm-178 310.4c-.8-.699-1.4-1.8-.4-2.5 9.5-6.399 16.4-15.5 24.7-23.1 15.4-14.1 31.4-27.6 46.9-41.6 15.8-14.3 30.3-29.9 45.399-45 1.101-1.101 1.9-2.7 1.5-5.3-26.1-3.301-52.399-6.601-78.7-9.9.5-3.3 2.301-3.8 3.7-4.2 29.2-7.4 56.4-19.8 82.9-33.7 6.5-3.4 12-8.3 18-12.5 5.2-3.7 5.399-10.1 5.5-15.4.2-11.899.399-23.8-1.101-35.8-1.699-13.8-.5-27.899-.699-41.899-.101-4.801-2.225-13.599 1.275-13.999 6.199 1.4 23.742 5.545 29.942 6.745 3.199.601-1.618 7.254-2.318 10.953-4.3 22.4-1.899 45.101-1.899 67.7 0 17.3-.301 34.601-3 51.7-2.9 18.4-10.601 34.8-21.4 49.9-11 15.5-24.3 29-37.9 42.2-3.399 3.3-7.6 5.399-11.6 7.6-20.2 10.9-41 20.6-61.8 30.2-9.3 4.3-18.5 9.1-27.8 13.6-3.699 2-7.099 4-11.199 4.3z"/><path fill="none" stroke="#000" stroke-linecap="round" stroke-linejoin="round" stroke-width="6" d="M1075.525 624.725c22.701-30.063 59.093-53.372 109.175-69.925 14.161-80.776 49.711-138.693 106.649-173.75 57.037-33.492 115.953-44.009 176.75-31.55 80.297 15.477 153.246 42.011 218.851 79.6 86.45 47.111 159.051 105.528 217.8 175.25 45.068 55.49 66.102 98.54 63.1 129.15-3.203 27.053-19.486 74.078-48.85 141.075-29.365 66.999-56.632 112.457-81.8 136.375 11.635-28.189 20.802-53.98 27.5-77.375 12.646-44.167 16.495-79.792 11.55-106.875-13.896-65.861-41.445-120.944-82.65-165.25-3.531-4.688-7.697-9.013-12.5-12.976-13.689-11.323-32.539-19.698-56.55-25.125-52.072-15.136-92.522-21.894-121.35-20.274-2.899.162-5.716.362-8.45.6-20.869 1.873-38.869 6.615-54 14.226-61.131 22.794-118.381 36.478-171.75 41.05-4.137 5.108-6.303 16.125-6.5 33.05 2.264 51.782.264 88.832-6 111.15-10.58 30.563-32.598 59.412-66.05 86.55-6.525 4.389-11.358 9.905-14.5 16.55-15.589 35.133-16.755 95.333-3.5 180.6-5.266-12.358-15.3-27.367-30.101-45.024-16.22-19.359-27.387-31.518-33.5-36.476-21.883 76.438-8.565 140.071 39.95 190.9-82.207-18.551-144.474-60.468-186.8-125.75-32.51-50.404-53.359-107.471-62.55-171.2-4.938-53.14-2.104-97.531 8.5-133.175 23.959-66.334 46.484-113.467 67.576-141.401zM1184.7 554.8c-1.593 14.038 18.274 34.888 59.6 62.55 37.39 20.21 78.956 34.077 124.7 41.601-5.757-51.852.743-90.218 19.5-115.101 23.939-28.802 55.822-45.018 95.65-48.649 63.414-2.562 140.531 14.289 231.35 50.55 25.408 8.418 49.324 22.16 71.75 41.225 22.422 19.063 43.072 48.388 61.95 87.976 24.249 45.688 33.266 96.271 27.05 151.75m-738.1 116.148c10.731 2.856 27.598 1.189 50.6-5 45.303-17.563 79.203-33.613 101.7-48.149M1180.7 961.35c7.415 16.659 16.798 31.326 28.149 44"/></svg>