<svg xmlns="http://www.w3.org/2000/svg" id="hair" viewBox="0 0 3000 3000"><path id="cl1" fill="#5D3618" d="M1321.75 768.95c15.971-41.401 44.654-74.418 86.05-99.05 34.938-20.721 78.904-35.487 131.899-44.3 115.867-19.3 202.934 3.8 261.2 69.3 13.333 15.334 21.333 42.667 24 82 16.033-26.166 20.033-69.184 12-129.05-56.303-178.271-180.503-259.271-372.6-243-54.129 4.601-113.646 16.917-178.55 36.95-19.842-32.413-41.975-60.313-66.4-83.7a336.926 336.926 0 0 0-25.6-22.25c-62.834-36.434-116.184-54.783-160.051-55.05 49.033 33.966 90.384 66.982 124.051 99.05-34.434-22.067-71.768-36.4-112-43-86.967-3.867-143.317 6.467-169.051 31 92.301 8.733 140.967 22.066 146 40-40.066-5.533-89.066 3.467-147 27-12.934 5.473-24.6 11.339-35 17.6a212.007 212.007 0 0 0-10.25 6.601c-18.204 12.485-31.787 26.419-40.75 41.8 39.533-16.5 76.533-22.833 111-19 24.733-.167 19.066 29.167-17 88-38.033 44.5-45.699 100.85-23 169.05l91 203.05c28.5 83.467-4.833 124.467-100 123 35.233 12.667 75.233 17 120 13-18.1 18.733-50.1 29.75-96 33.05 30.106 12.795 58.973 20.945 86.601 24.45 22.434 2.889 44.051 2.705 64.85-.55 46.257-7.172 88.49-29.438 126.7-66.8 24.533 25.866 53.816 47.167 87.85 63.899-20.434-41.966-27.434-82.966-21-123l1.15-.5c.026.033.043.05.05.051 14.71 36.248 32.993 63.064 54.851 80.449 11.567-170.4 26.567-277.083 45-320.05z"/><path id="sd1" fill="#44230D" d="M1058.1 734.85a853.36 853.36 0 0 1 1.4-21.95c9.199-85 51.25-156 126.149-213-15.634.9-46.783 20.05-93.45 57.45-38.133 35.899-62.467 78.566-73 128-21.8 66.066-10.3 159.083 34.5 279.05 30.367 81.167 20.783 138.017-28.75 170.55 46.268-7.2 88.5-29.483 126.7-66.85 24.533 25.866 53.817 47.167 87.851 63.899-20.434-41.966-27.434-82.966-21-123l1.199-.399v-.05c-8-19.767-14.949-42.317-20.85-67.65a8.685 8.685 0 0 0-.1-.45l-23.051-185.1c-17.633 42.3-26.467 92.983-26.5 152.05-33.731-7.333-64.098-64.849-91.098-172.55z"/><path id="hl1" fill="#774C25" d="M1219.35 358.1a336.926 336.926 0 0 0-25.6-22.25c-62.834-36.434-116.184-54.783-160.051-55.05 49.033 33.966 90.384 66.982 124.051 99.05-34.434-22.067-71.768-36.4-112-43-86.967-3.867-143.317 6.467-169.051 31 92.301 8.733 140.967 22.066 146 40-40.066-5.533-89.066 3.467-147 27-12.934 5.473-24.6 11.339-35 17.6 49.769 5.309 100.519 27.042 152.25 65.2-62.363-35.312-116.529-54.845-162.5-58.6-18.204 12.485-31.787 26.419-40.75 41.8 39.533-16.5 76.533-22.833 111-19 24.733-.167 19.066 29.167-17 88-38.033 44.5-45.699 100.85-23 169.05l91 203.05c28.5 83.467-4.833 124.467-100 123 35.233 12.667 75.233 17 120 13-18.1 18.733-50.1 29.75-96 33.05 30.106 12.795 58.973 20.945 86.601 24.45 39.552-29.412 61.952-55.495 67.2-78.25 5.253-22.748-7.713-77.331-38.9-163.75-34.072-53.215-41.289-111.715-21.65-175.5 32.612-75.376 29.612-120.042-9-134 114.209-36.376 142.376-67.043 84.5-92 42.68-3.746 85.83-14.079 129.45-31a594.942 594.942 0 0 0 10-4c-.942-4.151-2.26-7.985-3.95-11.5-3.96-8.261-9.977-14.761-18.05-19.5 63.778 7.643 82.927-14.975 57.45-67.85m-249.95 2.451l-2.149-9.051c72.35-.433 133.033 18.533 182.05 56.9-68.821-32.26-128.788-48.21-179.901-47.849m-5.9 104.75l-4.75-8c56.044-13.684 100.178-7.55 132.399 18.399-40.107-17.392-82.657-20.858-127.649-10.399m-69.2-11.951l-3.75-8.5c68.233-22.667 136.366-26.983 204.399-12.95-82.366-8.467-149.25-1.316-200.649 21.45m41.649 165.6c-4.658 25.852-4.658 51.185 0 76-14.214-30.292-14.214-55.625 0-76m-37.449 11.5c-18.924 26.163-13.273 61.997 16.949 107.5-40.494-40.849-51.494-76.015-33-105.5 21.082-27.884 33.582-52.551 37.5-74-.656 29.171-7.805 53.171-21.449 72m76.9 287.5c-15.141-35.166-34.124-70.333-56.95-105.5-6.791-17.438-7.125-27.771-1-31 24.611 44.912 43.927 90.412 57.95 136.5m-16.451 130.5c30.078-20.714 40.078-44.381 30-71 21.751 36.522 11.751 60.189-30 71m505.351-643.6c-72.444 17.905-126.944 59.172-163.5 123.8-30.845 67.557 4.822 114.641 107 141.25 34.938-20.721 78.904-35.487 131.899-44.3 115.867-19.3 202.934 3.8 261.2 69.3 13.333 15.334 21.333 42.667 24 82 16.033-26.166 20.033-69.184 12-129.05-56.302-178.271-180.502-259.271-372.599-243m141.899 85.8l-2.85-10.6c118.666-8.301 196.184 51.699 232.55 180-47.795-122.132-124.362-178.599-229.7-169.4m-94.399-41.5l-14-22.05c8.229-3.069 18.229-.236 30 8.5 48.136 57.691 73.269 109.358 75.399 155a95.62 95.62 0 0 1 .15 3.85c-.002.438-.002.871 0 1.3-32.868-66.71-63.385-115.576-91.549-146.6M1355.449 532l-5.5-7.8c34.134-32.433 85.9-45.267 155.301-38.5-76 1.634-125.933 17.067-149.801 46.3m15.75 91.65l-6.05-4.45c38.634-43.466 98.233-60.733 178.8-51.8-88.333.767-145.916 19.517-172.75 56.25M1327.3 594.6l-7.5-5.5c47.754-53.687 121.437-75.02 221.05-64-109.207.923-180.391 24.09-213.55 69.5m294.85-69.65l-1.399-7.3c58.166-5.7 113.899 21.934 167.199 82.9-65.633-59.1-120.9-84.3-165.8-75.6m5.35 38.65l-1.4-7.3c58.166-5.7 105.733 19.75 142.7 76.35-49.3-54.733-96.4-77.75-141.3-69.05z"/><path fill="none" stroke="#000" stroke-linecap="round" stroke-linejoin="round" stroke-width="6" d="M1199.65 932.95c.4 1.834.851 3.817 1.351 5.95 5.899 25.333 12.85 47.884 20.85 67.65v.05c14.7 36.2 32.983 63 54.85 80.399 11.566-170.399 26.566-277.083 45-320.05 15.967-41.399 44.667-74.399 86.101-99 34.899-20.767 78.85-35.55 131.85-44.35 115.866-19.3 202.934 3.8 261.2 69.3 13.333 15.334 21.333 42.667 24 82 16.033-26.166 20.033-69.184 12-129.05-56.3-178.267-180.5-259.25-372.6-242.95-54.134 4.566-113.65 16.866-178.551 36.9-37.232 17.399-69.866 36.767-97.899 58.1-74.9 57-116.95 128-126.15 213a853.319 853.319 0 0 0-1.399 21.95c-7.734 148.267 23.449 259.35 93.55 333.25 24.533 25.866 53.816 47.167 87.85 63.899-20.433-41.966-27.433-82.966-21-123m65.046-567.197c-19.833-32.4-41.949-60.301-66.35-83.7a346.6 346.6 0 0 0-25.65-22.25c-62.833-36.434-116.184-54.783-160.05-55.05 49.033 33.966 90.384 66.982 124.05 99.05-34.434-22.067-71.767-36.4-112-43-86.967-3.867-143.316 6.467-169.05 31 92.3 8.733 140.967 22.066 146 40-40.066-5.533-89.066 3.467-147 27-12.933 5.467-24.6 11.333-35 17.6a227.044 227.044 0 0 0-10.25 6.601c-18.2 12.5-31.783 26.434-40.75 41.8 39.533-16.5 76.533-22.833 111-19 24.733-.167 19.067 29.167-17 88-38.033 44.5-45.7 100.85-23 169.05l91 203.05c28.5 83.467-4.833 124.467-100 123 35.233 12.667 75.233 17 120 13-18.1 18.733-50.1 29.75-96 33.05 30.101 12.801 58.967 20.967 86.601 24.5 22.433 2.867 44.05 2.684 64.85-.55 46.267-7.2 88.5-29.483 126.7-66.85"/></svg>