<svg xmlns="http://www.w3.org/2000/svg" id="hair" viewBox="0 0 3000 3000"><path id="cl1" fill="#A35E10" d="M1917.699 739.801c.1 4.699.301 9.5.4 14.199-1.9 26 .257 51.817-5.144 77.417-1.3 6.4-13.456 53.302-16.755 59.102-5.301-10.8 2.599-62.618 3.799-73.618 2-19 1.699-37.9.8-56.8-1.3-26.9-4-53.7-9.601-80.101-5.199-24.899-12.199-48.899-27-70.199-13.199-19-31.899-29.7-52.3-38.4-11.3-4.8-23.3-7.9-35.5-9.9-14.5-2.399-26.5 1.9-35.2 13.601-8.3 11.2-10.245 25.089-13.346 39.089-7.6 9.3-19.288 18.174-27.288 27.073-7.1 8-15.921 19.125-21.722 28.024-6.1 9.5-16.145 5.014-26.645 2.014-.199-1.801-.5-3.5-.699-5.301 4.1-.699 4.199-3 3.3-6.5-12.9-47.3-36.8-87.1-79.4-113.399-24.1-14.9-49.7-18.101-76.7-8.2-7.5 2.8-14.6 6.6-22.1 9.3-20.5 7.3-26.6 23.5-28.1 42.9-2.2 27.6 8.299 54.399 12 81.899 1.899 14.399 1.842 47.515-9.858 55.715-35.7 25-80.917 40.688-122.849 60.787-13.484 5.067-31.793 14.998-52.629 20.286-2.6 1.5-21.364 4.912-24.664 4.212-1-.8 10.555-16.095 11.354-17.095 10.7-16.399 17.231-28.67 28.031-44.97 11.601-17.5 16.786-31.726 13.286-52.426-4-23.8-2.774-53.291.826-77.091 3.101-20.699 4.183-42.495 9.883-62.694 6.101-21.7 12.791-39.578 27.39-57.078 14.9-17.8 36.146-38.872 57.245-47.672 34.9-14.5 76.393-27.833 114.093-31.333 34.8-3.3 64.989 5.208 92.69 27.009 12.6 9.899 31.734 23.717 41.535 36.517 15 25.7 24.166 58.234 31.466 88.634 9.3-32.801 1.2-73.701 12.2-104.801 1.1-9.6 13.406-12.776 22.605-16.076 12.801-4.5 19.958-5.761 33.357-4.961 7.9.5 28.828-2.732 36.328.768-6.699 5.1-28.095-.916-34.294-.716-2.1-.199 12.271 2.823 12.071 1.523-.101-.5 5.932 2.962 6.432 2.962 45.8 5 72.3 32.7 98.9 68.7 26.699 36.101 38.199 77.9 44.299 121.601 3.701 26 6.801 52 7.701 78.3.303 5.898.204 11.731-.197 17.699zm-851.199 6.5c3.8 2 7.699 4 11.699 5.699 31.301 13.301 63.9 14.101 97 9.801 24.5-3.2 48.1-10.601 72-16.301 15.6-3.699 17.9-6.1 19.5-21.8.4-4 .301-8 .301-12 0-22.6.3-45.3-.101-67.899-.3-14.4 2.5-28.5 2.5-42.801 0-3.6 7.463-19.018.263-17.318-1.601.3-12.209 4.339-13.81 4.839-28.3 8.6-54.919 16.765-83.919 22.564-25.7 5.1-51.938 4.21-77.138-5.19-5.399-2-11.096 1.005-12.696 5.505-7.3 20.7-14.005 46.824-19.505 68.124-4 15.4-9.08 31.951-10.58 47.951-2.999 8.9 6.786 14.826 14.486 18.826zm93.752-235.71c-6.2 6.399-14.649 13.755-20.95 20.055-11.4 15.2-23.761 26.684-33.761 42.883-.601.601-4.406 6.427-4.806 7.227-.2.6 5.264 4.646 5.063 5.245 5.9 7.2 14.201 6.601 22 6.2 17.601-1.1 35-3.8 52-8.8 29.4-8.7 58.9-17 86.9-29.8 6.7-3 11.7-7.3 14-14.601 10.2-31.5 32.2-53 59.301-70.199 24.8-15.7 79.376-24.388 106.677-33.588 20.6-6.5 0 0 21.101-4.601 32.199-7.1 66.392-14.388 97.692-2.688 22.6 8.5 30.599 11.976 48.199 27.976 11.3 10.3 34.359 28.033 44.759 39.333 1.7 1.8 15.072 19.833 19.072 18.933 3.5-9.3 12.399-29.967 16-39.667 3.3-9.101 3.049-14.499-5.751-18.6-20.817-17.304-43.11-30.135-64.41-39.635-25.7-11.4-70.094-16.504-97.893-20.704-24.5-3.6-41.442-1.501-65.942-3.201-11.6-.8-27.38 1.881-39.079 2.481-17.301.899-30.611 6-47.812 7.7-1.2.5-19.439 4.606-20.64 4.807-23.8 3.3-26.181 6.908-48.581 15.208-17.801 6.5-38.283 17.625-55.583 25.025-20 11.7-34.059 20.649-52.359 34.85-11.596 9.4-24.897 17.46-35.197 28.161zm135.527 347.94c1.301-2.2 1.107-24.629 1.107-26.929.199-16.9-7.687-13.202-24.386-8.502-17.2 4.899-34.2 10.8-51.9 13.8-2.2.4-4.9 1.8-6.6-.1-2.301-2.601.3-5 1.5-7.101 2.8-5.6 6.899-10.7 8.8-16.7 1.1-3.5 7.054-17.987-.746-16.487-18.801 4.2-41.65 9.339-61.05 9.139-39-.5-75.577-9.619-106.876-33.418-1.5-1.1-6.565-6.264-9.565-4.464-1.9 20.8-2.926 49.007-1.527 70.107 4.3 7.5 17.165 16.523 23.165 22.724 11.5 11.8 24.5 21.5 38.801 29.3 16.199 8.9 33.5 14.3 52.3 14.2 9.899-.1 19.8.7 29.8 1.5 28.7 2.3 57.1-.3 83.801-12.6 5.5-2.5 20.333-.767 23.433-6.167.298-13.4.443-15.002-.057-28.302zM883.3 766.6c27.6 15.399 54.899 32.5 89 23.6 4.6-.8 9.1-1.6 13.7-2.399 7.199-1.9 14.5-.301 21.699-.9 10.101-.8 28.767.2 36.467-8.4 2.9-7.699 1.708-14.396 3.007-22.296 3.5-20.301 7.125-45.071 12.326-65.071 1.199-4.7 1.379-8.386-3.121-10.686-32.899-16.4-75.354-22.716-108.754-5.416-32.199 16.7-60.213 47.341-75.113 80.142-.699 4.599 7.688 9.627 10.789 11.426zm-37.711-39.04c-.1 2.7-.734 4.567-.834 7.267 2.8 5.801 11.181 20.204 19.681 21.104l1.664-5.73c.4-.899 5.812 5.673 6.413 4.973 11.8-23.1 27.404-45.245 47.704-61.545 23.3-18.699 44.428-30.197 74.627-30.397 18.6-.1 36.16 6.343 53.26 13.742 8 3.5 12.875 8.655 17.284-8.241 4.2-13.3 7.368-28.33 11.568-41.63 2.101-6.6 16.212-16.602-1.38-17.559-30.601-8.7-71.086-7.619-102.386-2.218-37.5 6.5-75.328 23.169-99.228 53.169-12.8 16-23.771 34.817-26.271 55.717-1.4 2.599-.402 8.848-2.102 11.348z"/><path id="sd1" fill="#7A4000" d="M1294.781 877.461c-.601 20.301-2.227 43.774-3.827 63.974-1.2 15-1.978 34.047.822 48.847 4.301 22.8 4.844 44.463 9.444 67.263 1.2 6.301 3.354 14.662-2.745 14.162-11-.8-34.903-5.795-45.703-7.995-4.101-.9-3.861-9.072-5.661-13.272-8.801-19.699-20.358-39.527-31.358-58.228-5.807-9.798-2.805-19.621-11.061-28.254-.844-.883.944 3.443.044 2.589.7 5.6 1.363 10.953 5.163 16.054 1 1.3 2.601 2.4 3.101 3.9 1.899 5.8 12.24 19.902 12.339 25.502.1 5.4-4.595 6.018-7.896 10.619-13.199 18.399-20.771 24.477-30.171 45.077-1.5 3.4-8.306 18.435-11.105 21.135-7.601-4.5-25.867-18.734-30.667-25.333-18.7-25.9-32.799-43.838-46.799-72.638-15.801-32.5-39.839-66.023-49.039-101.523-3.801-14.6-4.759-43.915-5.459-58.814 4.6.1 13.396 13.977 15.595 16.676 21.801 27 48.4 48.5 83.301 52.301 41.6 4.399 84.1 10.5 124.9-7.501 6.2-3.002 19.881-13.041 26.782-14.541zm-244.614-129.294c-1.5 6.2-3.516 16.837 1.283 20.738 38.101 31.5 87.029 40.764 134.83 35.264 23.199-2.7 46.718-9.817 68.519-18.118 2.6-1 16.435-2.051 18.036-4.551 8.6-13.4 15.605-25.399 22.705-39.799 5.701-11.6 9.227-34.027 7.026-47.128-4.5-28.1-3.135-50.974 2.264-79.074 1.899-10 5.037-35.541 6.637-46.941-12.701 4.601-36.94 13.235-48.641 17.536 2.701.5 4.474 9.307 4.175 12.507-1.201 15.5-3.301 31-3.101 46.7.399 23 .101 46 .101 69 0 5.6-1 11.199-1.5 16.8-.601 7-4.301 9.3-9.801 10.399-26.9 5.7-53.1 14.301-80.4 18-9.8 1.4-19.8 1.801-29.699 2.4-5.7.4-11-2-16.801-2-21-.1-40.399-6.7-58.899-16.4-6.5-3.399-15.958-10.592-14.859-18.292-3.001 6.5-.276 16.159-1.875 22.959zm-10.488 146.447c4.6-1.3 11.232-2.358 10.032-7.758-4.7-20.8-5.425-53.504-6.125-74.704-.199-8.301-.252-13.786-8.752-15.985-26.2-6.7-63.12-3.521-87.12 8.778-17.8 9.101-36.453 30.242-48.652 45.941-5.2 6.7-8.328 8.883-1.927 13.983 24.199 19.199 49.087 37.923 82.387 38.623 13.3-.4 45.057-4.578 60.157-8.878zm594.542-237.664c-8.7-15.4-21.19-35.36-31.791-49.46-15.699-20.899-29.63-32.09-57.93-34.99-20.3-2-45.109 9.396-54.509 27.695-7.5 14.5-6.971 37.204-8.572 53.104-2 27.244 6.766 7.942 15.565 7.642 13.599-.4 34.129-1.145 47.629.456 27.699 3.3 45.293 6.047 72.894 9.547 4.7.601 23.312 4.47 28.012 3.369 1.001-2.301-10.498-15.963-11.298-17.363zm-541.892-62.888c-2.6 5-2.834 10.034 2.467 11.833 14.6 4.9 35.386 10.506 50.686 8.806 31.8-3.5 57.033-8.941 87.433-18.541 17.8-5.6 43.944-14.983 61.444-21.382 8.8-3.3 17.475-1.278 20.818-20.57 5.301-19.399 12.385-34.042 24.285-50.342 15.4-21.1 29.426-35.756 53.026-47.056 9.6-4.6 49.354-18.599 58.955-23.099-2.301.199-36.143 2.189-38.343 2.89-25.6 7.4-50.9 15.3-73.801 29.6-28.399 17.801-51.299 40.101-61.399 73.101-1.601 5.2-4.8 8.3-9.601 10.7-9 4.3-18.1 8.5-27.6 11.5-35.1 11-69.4 24.8-106.8 27.399-9.899.7-23.963-5.346-33.164-8.146-2.599 2.299-6.705 10.107-8.406 13.307zM857.863 782.898c-7.5 21.199-4.395 14.435 6.305 33.935 5.7 10.399 19.485 35.383 28.186 43.483 2.8-1.1 8.031-12.426 9.531-14.226 8.5-10.6 15.258-19.692 25.857-28.292 13.6-11 41.759-24.599 58.259-29.999-3.7-.101-21 2.5-24.7 2.3-7.3-.4-14.601.8-21.8-1.2-19.801-5.3-37.801-14.3-55.301-24.7-2.6-1.6-10.287-6.226-11.687-9.027-3.6 6.201-12.25 20.826-14.65 27.726zm833.392-302.466c-4.601 12.4-7.857 16.167-12.558 28.568-3 8-2.176 4.232-8.176-1.468-4.601-4.3-7.894-7.5-12.094-12.299-5-5.8-13.588-14.017-19.787-18.517 1.8 7.1 9.658 28.983 13.359 35.384 11.199 19.8 18.399 41.1 24 63.1.5 2-.801 4.9 3.1 5.9 3.4-7.9 4.8-16.4 6.8-24.601 5.9-23.399 8.935-39 12.268-69.333.8-2.4.227-16.752.327-19.352-.7 1.1-6.839 11.519-7.239 12.618zm-393.068 330.085c.1-3.101-8.434-6.1-11.033-5.4-2.2.5-9.791 2.971-11.99 3.671-9.4 3.1-14.563 3.512-24.664 4.212-4.1.199 4.371.925 2.271-3.376-1.8-3.699 3.347-5.492 5.248-8.591 2-3.2 7.981-9.965 8.481-15.666-7.125-.241-38.327 8.372-47.027 12.272 2.601.5 4.827 9.661 3.126 12.86-2.2 4.101-4.3 8.2-6.5 12.301-2.5 4.699-5.2 9.3-7.4 14.1-1.5 3.2-.1 5.3 3.7 4.6 7.5-1.5 14.9-2.899 22.3-4.8 14.7-4 29.301-8.3 43.9-12.6 9.2-2.7 12.567-3.601 12.567 6.399 0 3.699 2.333 15.966 2.333 19.667 3.401-8.801 4.388-30.75 4.688-39.649zm-446.223-16.284c3.4-8.6 18.649-31.361 20.549-39.06-5.1-3.801-21.777-24.836-26.277-29.136-.5 12 1.728 54.896 5.728 68.196zM1041.5 800.5c1.6-5.4 4.291-22.508 4.092-26.708-14.3 6-51.758 10.042-66.285 16.401-2-.199-18.07 7.986-19.57 9.686 16.399.4 65.563-5.079 81.763.621zm776.676-124.063c8.3 5.3 15.975 11.684 20.975 20.083 9.199 15.601 12.209 29.897 17.51 47.097 9.199 30.2 17.039 60.382 23.039 91.382 1.2 6.301 10.688 51.83 12.987 57.93 1.101-7.301.293-49.567-.008-56.767-.9-22.899-1.845-49.629-4.845-72.33-3.9-29.8-10.766-60.741-21.566-88.741-11.399-29.7-28.347-55.507-56.446-71.907-18.701-10.9-44.813-15.506-62.813-3.605-17.3 11.5-32.644 26.282-46.442 41.683-6.701 7.5-19.465 26.893-24.664 36.192 8.399 2.1 24.396 2.024 32.297 2.224 12.4.4 29.561-2.884 41.861-3.384 13.399-3.101 26.04-3.123 39.44-6.323 12.699-2.099 17.875-.433 28.675 6.466z"/><path id="hl1" fill="#BD731C" d="M1266 800c16.8-11.6 35.399-19.699 53.8-28.199 20.8-9.601 42.8-17.2 61.1-31.301 16.101-12.3 33.3-22.899 49.7-34.8 3.5-2.5 6.4-5.8 9.5-8.8 4.5-4.1 6.5-9.2 5.8-15.3-2.5-21.5-2.5-43.2-1.8-64.7.5-15.8 1.199-31.8 5.8-47.2 2.2-7.2 5.5-13.2 12.4-17.3 17-10.2 34.8-18.7 54.3-21.8 21-3.4 41.1 1.5 59.3 12.7 28.101 17.3 49.4 40.899 64.2 70.6 7.8 15.6 14 31.6 18.2 48.4.6 2.399 4.539 8.147 1.238 10.147-3.3 1.9-15.202 1.87-18.502-3.231-7.6-12.899-12.063-23.29-20.063-35.89-11.8-18.601-24.58-35.503-42.78-48.604-16.8-12.1-22.022-14.679-42.722-14.179-23 .601-34.683 5.06-43.683 25.36-6.1 13.899-7.321 22.144-8.722 37.043-.899 9.9-2.102 22.952-2.102 33.052 0 10.399-3.269 23.371-6.169 33.671-3 10.6-15.255 22.445-24.155 28.044-20.3 12.9-38.856 21.385-60.456 31.686-33 15.8-64.33 31.197-98.529 44.197-3.4 1.3-12.993 4.089-16.493 5.19-1.2 1.1-6.33 1.378-12.039 2.925-.601.3-18.213 7.674-6.125-1.213-3.4.1 5.399-7.899 7.1-10.3.601-.897 1.202-.897 1.902-.198zm652.1-69.8c2-4.7 1.3-9.8 1.4-14.6.3-16.7 2.399-33.4-1.301-50 .1-2.601.301-5.101.4-7.7.1-4.7 1.6-9.4-.801-13.9-2.399-3.8-1.699-8.1-1.799-12.199-.4-2-.9-3.9-1.301-5.9.2-2 .801-4.1-.6-5.9-2.301-3.699-2.301-7.8-2.5-11.899-2.4-3.7-2.5-8.101-3.301-12.2.7-1.4 1-2.7-.6-3.6-2.6-5.2-3.6-10.9-5.199-16.4 1.299-2.3 0-4-1.201-5.7-.199-.8-.5-1.6-1.1-2.2-7.1-19.8-17.6-37.8-28-56-6-8.399-7.93-18.186-15.229-25.486-19.801-19.9-46.179-34.883-74.179-36.783-4.299.1-11.028-1.489-15.329-1.489-4.299 0-23.803 1.328-28.103 1.328 20.601 5 55.439 17.13 73.84 27.73 17.6 10.1 32.7 23.3 45.2 38.699 16.7 20.5 28.3 44.101 36.399 69.301 11.601 36.199 15.301 73.8 19.101 111.3 1.3 12.8 3.5 25.7 2.3 38.7-.199 1.699.301 3.3 1.7 4.5.003-3.202.103-6.402.203-9.602zm-193.82-111.955c.699-.6 7.497-7.229 8.197-7.929 8.6-6.199 10.168-8.5 19.568-13.7 14.8-8.2 23.406-10.622 39.206-3.423 26.601 12 47.427 30.168 61.826 55.569 14.5 25.5 23.723 50.205 30.423 78.405 5.699 24.3 5.124 49.219 7.724 74.019 2.1 16.7.967 34.618 1.866 51.318.101 2.7-4.465 40.781.936 41.781 1.3-2.399 8.273-41.285 8.174-44.085-.5-16 1.2-31.8 1.7-47.8 1-32.5-.5-65-5.5-97.2-3.7-23.6-7.601-47.2-16.7-69.399-8.9-21.9-21.8-41-42.5-53.7-20.1-12.4-41.9-20.2-65.1-23.8-9.1-1.4-17.6 1-25.6 6.1-10.4 6.7-15 17.5-21 27.3-3.301 5.3-6.301 10.9-7.9 17.2-.7 2.2-3.52 15.309-1.52 15.509l6.2-6.165z"/><path fill="none" stroke="#000" stroke-miterlimit="10" stroke-width="6" d="M1050.1 888.9s-8.6-42.4-6.1-88.9 4-60.5 16-110 21.5-74 21.5-74m-40 184.5s-16.663-14.873-70.447-3.354S895 858 895 858m166.501-174.115c-26.5-15.114-60.453-25.547-89-18.386S915.5 694 895 719s-41 76.5-41 76.5M1090.5 603s15.5 12.5 39.5 13 111.5-22 111.5-22l71.5-26m383.5-104c-16.524-12.809-52.853-72.534-247.01-71.649-198.6 11.6-297.191 126.149-297.191 126.149s-29.699 21.7-70.199 92.9c-56.7-17.7-132 .1-132 .1s-70 11.7-97.801 89C824.5 777.801 873.6 857 920.699 881.7c48 39.801 122.4 15.2 129.4 7.2 55.4 139.9 123.4 208.601 126.8 196.8 37-65.8 49.2-71.699 49.2-71.699s23.5 33.999 24.3 47.8c7.899 9.1 53.2 10.1 53.2 10.1s-16.3-94.5-13.7-118.1C1292.5 930.2 1298.5 804 1298.5 804s7.5-5.8 75.5-37.6c96-40.4 100.199-60.5 100.199-60.5s1.2-29.3 15.9-41.9c14.7-12.6 98 4.301 153.4 10.101 55.399 5.8 79.199 9.1 116.5 0 37.299-9.101 63.399-4.3 81.199 25.7 17.801 30 40.442 161.436 50.6 197.8 29.801-40.9 32.301-176.4 23.5-261.601-12.263-62.003-27.832-103.858-48.867-137.707-21.203-32.828-72.688-50.051-98.97-50.051-49.77 0-70.962 11.258-70.962 11.258l-20 54.5c-22.5-25-68.5-67.5-99.5-81.5s-71.5-14.5-133.5 3.501-94 50.499-114 82.499-25.5 95-27 124.5 2.5 66 0 81.5-52 88.5-52 88.5c31.586-4.48 45.5-9.5 45.5-9.5M1892.5 887s3.034-57.509-4.5-120.5-24.5-112.5-53-141-47.226-38.351-69-34.5-67 45.5-90.5 83.5m-32-.4c-44-88.101-70.012-94.461-95-101.601-21-6-48.598 1.286-58 26.5-11 29.5-9.5 77.742-9.5 77.742m-434.707 88.348s44.874 35.411 87.874 39.078c68.739 5.862 93.459-10.512 123.667-19l8.667.201m-40.188 228.944s-11.452-27.467-24.299-53.306"/></svg>