<svg xmlns="http://www.w3.org/2000/svg" id="hair" viewBox="0 0 3000 3000"><path id="cl1" fill="#C67011" d="M1505.85 569.052a418.338 418.338 0 0 1 29.8 15.698c19.248 11.116 38.315 24.084 57.2 38.9 4 .975 7.934 1.891 11.8 2.75 17.398 3.84 33.382 6.457 47.95 7.85 3.125.3 6.174.531 9.15.7 27.365 1.708 49.282-1.292 65.75-9 19.854-9.3 31.821-25.416 35.898-48.35 6.138-68.438 5.138-133.938-3-196.5-235.571-60.38-425.986-45.479-571.25 44.7-49.134 30.486-93.101 69.587-131.898 117.3-69.43 133.758-62.75 279.15 25.75 420.15 9.944 19.971 41.911 33.401 56.368 56.463 25.092-18.604 19.323-11.751 48.932-24.412a893.431 893.431 0 0 0-.3-6.051c-1.152-24.444-3.211-60.373-5.059-88.861-32.471-19.085-55.57-20.808-88.566-8.889-.459.165-12.279 4.39-12.755 4.558-5.933 2.23-5.703 4.454-11.671 7.691 5.136-5.184 6.469-5.632 11.8-9.448a.374.374 0 0 0 .101-.052c18.607-13.191 32.125-11.125 53.149-7.5 2.564.461 5.397-.048 8 .625.134.054 4.492.736 4.625.75 1.515.44 1.229.133 2.75.625.294.104 8.729 1.604 9 1.7 8.058 2.688 11.748-.495 20.125 4.55l3-.198a4024.2 4024.2 0 0 0-1.699-24.9v-.05l-1.705-5.288c-6.604-3.124-13.581-.521-21.845-2.962v-.05a199.513 199.513 0 0 0-8.65-2.2 43.58 43.58 0 0 1-1.55-.3c-28.914-6.151-61.647-4.568-98.2 4.75 29.219-14.693 57.186-21.193 83.9-19.5 5.026.317 10.011.918 14.948 1.8 3.271.612 6.521 1.346 9.75 2.2 2.38.621 4.746 1.304 7.102 2.05a150.946 150.946 0 0 1 10.898 4.05l4.2-.3c-.179-2.71-.38-5.442-.6-8.2-.422-5.93-.936-25.729-1.414-31.799-5.495-3.369-10.332-4.071-16.137-6.601-5.041-2.183-10.073-6.447-15.332-8-28.423-8.385-60.973 6.467-95.918 16.649 26.815-16.675 53.466-23.19 79.949-19.55 3.521.485 8.639 1.552 15.352 3.2 2.3.518 6.183 1.867 11.648 4.05.76.314 1.51.631 2.25.95a136.58 136.58 0 0 1 11.95 5.75l4.351-7.9c.19-12.646 8.857-34.979 26-67 32.354-42.79 35.521-84.29 9.5-124.5l38.5 6c6.291 1.013 12.992-.054 20.101-3.2 9.012-3.964 18.679-11.23 29-21.8l4.3-2.45c11.234-6.235 22.186-11.753 32.851-16.55 15.73-7.073 30.849-12.573 45.351-16.5 8.127-2.172 16.061-3.854 23.8-5.05 14.239-2.194 27.822-2.711 40.75-1.55 2.903.278 5.771.63 8.601 1.05 13.896 2.136 26.996 6.303 39.301 12.5a425.488 425.488 0 0 1 12.048 5.452z"/><path id="sd1" fill="#AA5E0D" d="M1156.25 847.5l-1.875 27.125 26.599-2.276-.476-14.474c-7.135-3.365-15.516-6.801-23.248-9M1199.8 536c-26.367-16.966-29.718-53.966-10.05-111-49.135 30.5-93.102 69.602-131.9 117.302-69.435 133.767-64.1 305.198 34.4 430.55 9.933 19.967 32.651 23.794 47.118 46.862 5.132-8.963 19.932-12.545 49.531-25.211l-.75-6c-22.733 2.334-33.366-9.736-55.399 1.998L1085.9 932c-20.411-12.528-25.728-21.945-15.95-28.25 4.075-3.813 8.209-7.213 12.4-10.198l.1-.102c6.533-4.637 51.209-10.513 60.177-8.95l9.25 2.125-1.75-42.5c-44.891-6.731-45.396 3.198-81.963 12.53 29.233-14.698 38.487-14.854 65.187-13.155 10.8.7 21.4 2.734 31.8 6.102 23.602 4.134 13.185-1.033-31.25-15.5-31.333-1.9-54.7 1.8-70.1 11.1l-4.8-7.6c-6.269-7.4-8.984-14.816-8.15-22.25 26.8-16.667 53.45-19.184 79.95-15.55 9.032 1.232 18.05-.334 27.05 3.3 5.467 2.2 10.95 4.833 16.45 7.898 1.333.769 2.667 1.552 4 2.352-.567-1.033-1.067-3.283-1.5-6.75l-16.602-9.8c-16.934-6.967-26.398-9.9-28.398-8.802-12.367-2.166-24.5-2.032-36.4.4-19.433 3.9-35.833 8.3-49.2 13.2-2.231-29.2 9.101-53.866 34-74L1107 716h34.8c14.633-10.198 23.167-18.865 25.6-26-19.634-4.698-43.366-6.3-71.2-4.8-29.231-22.966-37.1-55.898-23.6-98.8l16.4-40c31.733-19.033 68.666-22.5 110.8-10.4m453.398 97.45c-13-49.565-20.8-97.25-23.398-143.05-14.4 42.467-22.583 87.533-24.551 135.2 17.401 3.833 33.384 6.452 47.949 7.85m9.202.75c27.333 1.667 49.25-1.35 65.75-9.05-22-60.767-31.583-106.35-28.75-136.75-21.8 48.134-34.134 96.735-37 145.8m-280.452-78.3c-19.434-41.666-32.948-81.633-40.55-119.899-6.433 43.233-8.033 88.684-4.8 136.351 15.734-7.068 30.85-12.55 45.35-16.452m64.552-6.598c1.332-14.5-.635-31.066-5.9-49.7-9.834-30.167-14.9-57.5-15.2-82-17.5 42.267-24.05 86.667-19.649 133.2 14.232-2.202 27.816-2.702 40.749-1.5m-147.052 42.048l3.75-3.102c-31.731-37.231-54.333-72.782-67.8-106.648-8.134 33.934 3.567 77.783 35.101 131.55 8.968-3.967 18.616-11.232 28.949-21.8m295.952-26.548c-8.065-42.367-9.667-80.102-4.8-113.2-15.6 27.333-27.2 57.866-34.8 91.6-3.2 14.834-9.718 28.417-19.551 40.75 19.232 11.102 38.3 24.067 57.199 38.9 4.769-6.634 5.417-25.985 1.952-58.05m-101-2a319.425 319.425 0 0 1 12.101 5.5c1.601-51.102-.101-104.4-5.101-159.9-19.667 35.935-35.1 83.25-46.3 141.95 13.9 2.098 27 6.248 39.3 12.45z"/><path id="hl1" fill="#FCA021" d="M1150.3 889.1c1.5.398 3.017.85 4.55 1.35l3.25-38.5a122.808 122.808 0 0 0-8.65-2.2l.852 31.352M1161.6 809.4a140.22 140.22 0 0 0-15.45-5.6l2.4 41.699c3.267.566 6.517 1.283 9.75 2.149l3.3-29.25m8.45-160.648c7.7 21.834-1.435 41.034-27.4 57.602-12.3 6.732-32.833 10.6-61.6 11.6 30.433 9.233 52.216 33.301 65.35 72.2 2.3.533 6.2 1.9 11.7 4.101l2.3.301c5.435-39.801 17.185-76 35.25-108.602 17.601-33.732 16.267-53.865-4-60.398-23.533-5.801-45.134-5.801-64.8 0 22 1.664 36.4 9.396 43.2 23.196m419.6-250.8c10.9-3.133 15.7 3.4 14.4 19.602-3.468 30.133-3.468 61.732 0 94.8 7.267-28.634 18.2-47.167 32.8-55.602 8.033-5.731 12.967-3.731 14.8 6 .333 25.2 3 50.4 8 75.602 5.567-45.033 18.102-73.3 37.602-84.8 11.433-5.768 20.1-1.233 26 13.6l25.198 90c8.101-57.8 9.834-112.065 5.2-162.8-88.3-26.733-173.233-36.602-254.8-29.602 45.3 1 62.9 27 52.8 78 12.4-25.6 25.067-40.533 38-44.8z"/><path fill="none" stroke="#000" stroke-miterlimit="10" stroke-width="6" d="M1127.25 843.25c4.311-.568 20 2.866 20.5 3 2.934.635 11.666 1.969 14.5 2.803 8.267 2.434 12.038 4.125 17.202 7.165v2c-.301-4.509.779 1.774.446-2.816a51.595 51.595 0 0 1-.898-.35 160.34 160.34 0 0 1-3.5-1.4 123.422 123.422 0 0 0-10.9-4.05 143.332 143.332 0 0 0-7.1-2.102 111.221 111.221 0 0 0-9.75-2.148c-4.935-.9-9.918-1.518-14.95-1.852-26.7-1.698-37.468-.698-66.7 14 34.567-14.167 39.677-15.632 62.698-14.255m21.353 44.186c-2.6-.7-5.184-1.567-7.75-2-15.189-2.649-45.211-1.853-57.999 7.169-.06.048-.127.098-.2.149l-.1.101a.365.365 0 0 1-.101.05c-5.3 3.8-10.499 6.364-15.601 11.498 6.375-5.314 11.935-10.368 17.9-12.602.433-.167 14.367-4.831 14.833-4.997 18.614-5.697 61.74-.16 81.464 11.45-.334-4.967.333 2.452 0-2.647l-3.05-.4c-8.55-1.6-15.518-3.419-23.55-6.12-.301-.101-.601-.199-.899-.3-1.534-.5-3.05-.85-4.55-1.25-.132-.034-.266-.066-.397-.101m27.285-74.564c-.2-2.232.146 7.417.314.483-1.334-.8-2.668-1.583-4-2.352-.769-.433-1.519-.85-2.25-1.25-4-2.133-8-2.348-12-4.048a30.268 30.268 0 0 0-2.2-.898c-5.5-2.2-9.4-2.565-11.7-3.101-6.7-1.633-11.816-2.698-15.35-3.198-26.5-3.635-50.77 6.644-84.5 18.997 43.004-17.519 65.598-22.543 99.75-17.27 5.16 1.535 13.866 5.204 19.05 7.436 5.8 2.533 7.352 1.836 12.886 5.201zm6.164 96.233c1.8 28.467 3.3 54.917 4.5 79.35.066 2.033.15 4.05.25 6.05-29.6 12.667-26 6.615-51.1 25.213-14.468-23.066-24.964-19.884-49.552-54.863-100.188-142.529-99.833-288.783-30.398-422.549 38.8-47.7 82.767-86.801 131.898-117.301 145.269-90.167 335.685-105.066 571.25-44.699 8.135 62.565 9.135 128.065 3 196.5-4.065 22.934-16.017 39.05-35.85 48.35-16.5 7.7-38.417 10.717-65.75 9.05-3-.199-6.066-.449-9.2-.75-14.565-1.398-30.55-4.017-47.949-7.85a720.18 720.18 0 0 1-11.801-2.75c-18.898-14.833-37.967-27.8-57.199-38.9a417.31 417.31 0 0 0-29.75-15.648 317.29 317.29 0 0 0-12.101-5.5c-12.3-6.2-25.399-10.352-39.3-12.45a104.5 104.5 0 0 0-8.602-1.05c-12.934-1.2-26.517-.7-40.75 1.5-7.731 1.199-15.666 2.898-23.8 5.1-14.5 3.9-29.616 9.384-45.35 16.45-10.667 4.8-21.617 10.333-32.851 16.6a142.468 142.468 0 0 0-4.301 2.4c-10.333 10.565-19.982 17.833-28.949 21.8-7.134 3.134-13.851 4.2-20.149 3.2l-38.5-6c26.033 40.2 22.866 81.7-9.5 124.5-17.134 32.033-25.8 54.366-26 67 .133 1.767.283 3.35.45 4.75.433 3.467.933 5.717 1.5 6.75-.167 6.934-.15 11.517.05 13.75.433 6.065.883 12.065 1.35 18 .2 2.767.399 5.517.602 8.25.032.667.083 1.35.148 2.05.333 4.592.649 9.15.95 13.675v.025c.6 8.458 1.183 18.352 1.75 26.477v.024c.337 5.098.67 8.531 1.004 13.496"/></svg>