<svg xmlns="http://www.w3.org/2000/svg" id="hair" viewBox="0 0 3000 3000"><path id="cl1" fill="#F6C396" d="M1876.8 1220.302c-12.3 4.198-23 9.8-35.3 14-2.9 1-13.5 5.198-17.5 4.898 2.398-6.8 18.6-26.3 23.3-31.398 8.8-6.302 14.398-16 26.5-36 19.898-32.802 23.8-92 16.2-128.9-6.602-32-3.602-63.5 1.8-94.899 3.1-18.101 6.8-36.301 13.6-53.5 4.5-10.5 9.2-21.101 13.8-31.601 1.102-2.5 2.102-5 2.4-7.7.4-2.8-37.6 68.4-55 90.5-12.5 15.801-26.7 23.2-38.9 33.2-3 3.3-7.8 3.4-10.898 6.7-1.102.8-2 .7-2.9-.2 7.102-27.1 5.602-53.1 11.5-80.399 3.602-16.801 2.602-31.601 4.8-48.601 3.302-25.6 8-51.5.602-75.899-4.8-15.899-6.602-32.899-13.2-48.101-5.8-13.3-10.7-26.8-14.7-40.8-23.898-59.4-95.898-153.8-111-179-3.5 2.8 13 20.1 15.102 21.7 0 0 56.6 107.198 69.698 165.1 5.302 23.2 8.802 46.9 6.9 70.8-.6 8.7-2.9 17.2-5 25.602-5.1 14.3-13.2 27.3-21.8 39.898-6.102-1.199-5.602-5.898-5.9-10.199-1.2-14.5 2.5-27.899 3.7-42.101-1.4-8.3 1.8-29.899 1.5-32.2-.4-3.398-5.2 39.5-29.7 74.602-6.7 11.3-12.1 23.398-20 34.1-15.6 15.4-34.399 26.7-53 38.2-10.1 6.3-14.899 4.6-19.3-6.4-8.9-22.7-19.7-44.6-30.801-66.398-6.699-13.102-15.699-24.7-24-36.802-15.299-22.1-45.199-32.398-54.101-57.398-7.5-20.9 2.802-51.102 3.601-72.5-.199-6.8 2.201-18.2 4.5-24.7.301-12.5 14.301-52.399 10.601-52.899-4.3-.5-6.601 1.899-7.5 5.601-2 8.2-4.2 16.399-5.7 24.6-5.3 28.9-7.8 58.102-8.1 87.4 0 4.7-.301 9.3-2.5 13.7-19.6 40.6-39 81.3-58.5 121.898-.801 1.801-2 3.5-3.1 5.301-18.4 33.5-36.2 67.5-61.4 97.301-14.2 16.8-30.301 31.8-46.301 46.898a23.37 23.37 0 0 1-5.101 3.602c-9.399 5.5-15.1 3.3-17.899-7-3.699-14-6.101-28.301-8.101-42.602-4.198-30.6-9.1-60.3-7.1-91 1.1-14.398 5.6-32.199 9.3-46.3 8.9-34.3 19.7-77 35.602-109 5-10 5.1-7.899 11.898-16.899 1.102-1.399.102-6.301-1.8-3.5-11.9 17.199-20.7 35.899-28.4 55-15.6 38.699-27.698 78.399-33.899 119.5-4.399 30.301-5.101 61-6.601 91.5-1 20.199-1.3 40.301-1 60.5.302 18-1.698 35.199-6.1 52.601-2.301 8.899-1.602 2.187.398 7.887 6.601.5 8.401 10.711 7.901 14.211-.8 6.602 2.101 6.7 7.101 4.5 7.301-3.1 14.301-6.898 21.601-10 9.899-4.1 17.5-4 19.3 6.2 1.9 14.9-2.2 30.5-.5 45.5 2.9 25.1 14.3 46.6 31 65.8 2 2.301 3.9 4.7 5.8 7.102 4.2 4.398 7.602 9.6 11.4 14.398 2.6 3.301 4.9 7.4 1.8 11-3.398 3.9-7.898 1.7-11.5-.3-9.6-5.6-19.3-11.1-27.1-18.9 6.1 6.102 10.5 13.302 13.898 21 3.2 7.302-.5 11.9-8.5 9.802-22.1-6-46.198.398-64.698-14.7-18.101-14.101-36.802-35.101-46.101-55.4-14.201-30.898-22.201-65.1-29.399-98.1-7.4-33.5-14.302-68.602-18.4-102.602-.199-1.698.5-2.398.2-4-.5-3.698 3.2-3.6-1.102-3.398-4.1.3-2.398-3.2-2.3.6.102 3.3.602 6.9 1 10.2.5 5.4.4 10.4 1 15.8 1.3 23 2.4 46 2.602 69.102.398 58.8 19.898 111.898 53.198 160.898 3.802 5.602 8.7 10.602 9.5 17.7-.198 1.7-1.1 3.1-2.6 4-6 1.7-10.2-1.6-14.2-4.9-41.8-34.398-79-72.898-111-115.898-8.1-10.9-16.898-21.4-24.8-32.801-.7 18.101-3.4 36.101 1.6 53.899 1.2 4 3.5 9.3-1.698 11.8-4.2 2.102-7.9-1.6-10.9-4.5-36.9-37.198-66.2-78.6-80.4-128.699-.5-1.899-1-3.899-1.3-6.899-6.1 12.8-12 24.8-14.7 38-.6 3-1.3 6.699-4.898 7.199-4.2.601-6-3-7.3-6.199-3.102-7.2-4.9-14.7-6.2-22.4-6.8-37.1-5.9-74.3-2.4-111.6.4-3.9 1.602-8 4-11.4 7.4-6.8 16.4-11.5 24.7-17.3 4.4-7.399 5.8-8.5 5.7-11.899-.2-4.101-6.3-2.899-13 1.601-11.7 8-23.5 16.1-35.102 24.199C964.1 898.4 942.6 904.2 925.5 903.7c5.1-5.601 10.198-10.601 14.6-16.101 21.1-25.8 35.1-55 46.2-85.6 13.3-36.9 27.3-73.5 40.3-110.4 22.3-62.899 62.699-113.899 112.199-159.1 69.899-63.801 153.101-104.301 246.899-125.801 3.802-.9 7.5-1.7 11.4-1.7 18.1-2.1 36.3-2.2 54.399-3.6 6.101-.5 11.699 1.6 17 4.5 11.301 6.199 23.399 11 34.5 17.3 5.601 3.101 8.899 2 11.899-3.101 10.8-18.5 15.9-38.601 17.7-59.5 2.1-25.801-2.5-50.101-17.7-72.101-1.8-2.5-3.2-5.3-2.5-8.5.7-1.6 1.7-2.8 3.8-2.1 33.602 27.1 52.9 61.3 55.4 103.5.1 1.3 0 2.699.1 4 .5 10.898 1.102 11.699 12.602 13.398 43.6 6.5 84.5 20.301 123.1 40.7 52.2 27.801 95 65.601 130.7 111.301 26 33.3 47.3 69.199 62.199 108.3 6.7 17.601 20.5 30.301 33.601 43.399 3.899 3.801 8.601 7 11.899 11.4.5.899 1.101 1.8 2.301 2.1.199 1.9-.2 3-2.601 2.4-9.801-3.5-19.801-7-29.601-10.7-5.7-2.101-9.899-6.3-14.3-10.2-18.4-16.5-32.9-35.899-47.301-55.399-7.899-10.699-16.101-21.3-24.199-31.8a36.945 36.945 0 0 0-6.6-6.5c-2.4-1.7-2.5-2.399-5.102-.301-2.398 2.101 4.9 10.801 6.9 13.5 5.1 8.9 44.898 115.4 82.199 147 5.101 4.2 9.301 9.101 12.199 14.9 10.7 38.699 21 77.5 27.2 116.899 4.899 31.101 3.601 62.301-.101 93.5-2 17.101-4.399 34-9.299 50.601-.802 2.899-1.302 6.1-2.602 8.699-11.5 21.5-5.3 45.7-2.898 68.5 4 39.801-1.201 82.301-29.302 112.5-7.899 8.5-45.8 25.2-58.698 26.801 4.898-6.7 27.898-28.5 31.898-33.9"/><path id="sd1" fill="#CD7C6A" d="M990.9 894.9c.9-.5 2.102.2 2.102 1.2-.7 26.5-3 53.1-1.9 79.6.8 19.9 3.3 39.5 9.1 58.7.7 2.2 1.101 4.7 2.601 6.9.701 1 2.301.699 2.5-.602 2.301-17.198 10.301-32 18.899-48.5.601-1.1 2.302-.898 2.601.302 13.201 57.6 44.301 103.1 87 144.499 1 1 2.701 0 2.301-1.399-6.9-24.5-5.6-47.4-2.5-70.4.1-.8.9-1.3 1.6-1.199 2.7.601 3 3 4 4.601 19.5 30.1 42.101 58 66 84.899 16.4 18.601 34.601 35.301 53 52.101 8.5 7.8 17.2 15.7 27.301 21.899.101.101.301.101.399.199 2.101.5 3.5.5 2-2.3-29.2-38.2-49.899-80-59.8-126.4-3.2-15.1-5.9-30.3-5.801-45.898.201-19.9.301-40 .399-59.9 0-1.7 2.5-1.898 2.7-.2 1.8 11.102 3.601 22.302 5.5 33.4 6 34.8 14.8 69.1 25.5 102.9 14.7 46.898 44.8 82.398 85.5 110.698 16 11.102 32.899 20.7 51.399 27.602 2.301.8 4.7 1.699 6.601 3.1 9.5 7.2 18.899 14.7 29 22.5.899.7.601 2.3-.601 2.4-1.899.3-3.5-.301-5.101-.5-33.5-6.2-67-12.4-100.5-18.602-1.699-.3-3.5-.698-5.199-.8-7.601-.5-6.699 1.7-4.199 8.601 2.5 6.899 1.6 14.899 4.398 21.699 0 .101 0 .101.102.2 1.5 2.6 1 4.3-2.2 4.5-.3 0-.7-.101-.9-.3-28.8-23.5-57.6-46.9-86.5-70.5-3.6-2.9-6-6.602-8.398-10.301-13.4-21.301-30.015-36.345-43.415-57.644-1.602-2.601-6.786-8.755-8.887-10.956-2.1-2.2 1.601-5.1-.998-3.4-2.2 1.399-3.4 3.699-2.302 6.199 1.601 3.7 3.5 7.4 5.7 10.801 10.8 17.399 21.5 34.699 32.8 51.801 5 7.6 8.7 15.199 10.302 24 1.5 8.398 4.698 16.5 5.5 25.1.1.9-.7 1.6-1.5 1.5-2.602-.4-3.802-2.7-5.302-4.1-36.899-35.102-73.8-70.4-110.698-105.5-4.302-4.102-7.4-8.801-9.5-14.2-4.5-11.601-9.4-23.2-14.302-34.7-1.399-3.399-2.8-7-4.3-10.3-2.5-5.4-.899-7.2-4.399-5.5-5 2.5-3.5 3.399-2 7.399 5.399 13.101 9.399 26.699 15 39.801 1.899 4.398 5.199 11.898 5 16.699-.601 15 .601 46.601.3 64.5 0 1.301-1.8 1.899-2.5.699-4.399-6.699-10.8-22.699-11.8-25.1-20.101-46-40-91.9-60.101-137.9-1.8-4.1-2.399-9.699-8.5-10.6-6.602-1-9.102 4.2-12.2 8.2-7.399 9.3-12 19.8-14.5 31.1-.399 1.8-.399 3.8-1.5 6-.5.9-1.699 1-2.3.2-1-1.3-1.3-3-1.8-4.4-12.101-29.5-11.7-60-6.2-90.5 6.8-38.2 21.7-73.6 40.601-107.8 1.195-2.398 2.497-4.798 4.897-6.098zm850.6 319.402c17.5-6.302 37.6-52.802 37.6-52.802 14.9-20 13.1-48.398 17-71.8 2.8-16.8 2.1-34.1-2.301-51-1.5-5.898-3.101-11.8-3.299-17.8-1.102-26.9 1.299-53.5 7.1-80 3-13.7 6.699-27.4 7.5-41.5.1-1.4-1.801-2-2.5-.8-9.7 15.5-19 31.3-30.4 45.8-1.5 1.8-2.399 4.1-3.1 6.4-7.4 27.5-41.9 62.8-37.7 91.199 1.101 7.399 15.8 40.699 14.7 48-.9 15.699-8.9 27.399-12.801 35.5-4.699 6.301-16.399 6.101-19.5 18.801-.5 7.898-18.399 15 24.699 21 7.4 2.3-11.1 23-18.5 34.199-.1.199-.199.301-.199.5-.301 1.699-19.199 18.199-17 17.601 2.899-.9 26-3.3 28.899-4.101 8.102-2.399 6.402-.099 9.802.803M1622.6 916.4c9.6-4.9 51.199-19.7 70.6-39.8 4.101-4.2 8.5-8.3 11.301-13.5.601-1.2-.601-2.5-1.801-1.9-10.199 5-19 12-28.5 18-10 6.4-20 12.9-30.899 19.9-.699.5-1.699.2-2-.6-4.101-10.102-7.5-19.001-11.3-27.7-11.7-26.7-24-53-41.7-76.9-9-12.1-16.899-24.8-23.5-38.3-15.101-30.8-25.5-62.601-23.601-97.3.301-6.7-5.199-20.4-8.199-30-.399-1.4-2.5-1.2-2.699.199-.5 4-1 8.399-1.102 8.899-2.898 21.4-3.898 42.8-4.398 64.3-.102 3.2-1.602 6.4-.801 9.5 0 .2.101.4 0 .602-6.101 31.5 39.199 78.1 60.301 114.6 16.398 28.4 25.1 47.9 34 79.2 1.398 4.7 3.8 5 2.8 10.4-.1.6.3.1.9 0M1308 852.5c-3.801 47.3-11.5 98.601-10.801 145.999.2 12.5 2.301 24.802-.3 37.102-.399 1.8 0 12.3.8 16.899.2 1 1.301 1.5 2.2.899 3.7-2.7 11.8-9.399 12.7-10l.1-.1c20.2-16.7 37.301-34.3 57.4-57.5l.1-.102c21.1-18.198 38.5-38.898 49.7-64.398 9.2-20.7 19.8-40.9 29.5-61.4 2.2-4.6 4.8-9.1 6.8-13.8.7-1.602-1.5-2.7-2.4-1.2V845c-7.1 11.601-14.198 23.199-21.398 34.801-22.9 36.6-49.5 70.3-82.4 99.3-4.1 3.6-8.199 7.3-14.3 8.399-.6.101-1.3-.301-1.5-.899-.8-2-1.6-3.8-2.1-5.7-8.802-39.3-12.7-79-13.2-119.1-.102-3.9-2-8.102-3.4-12.2-.5-1.3-6.2-4.334-6.5-2.934-.203.399-1.001 5.333-1.001 5.833zm197-582.698c-2.302-2.102-4.802-3.802-8.4-4.802-1.1-.3-2.1.802-1.6 1.9 1.198 2.5 2 4.3 2.8 6.1 6.1 14 10.5 28.7 11.2 43.9 1.198 21.899.3 43.7-2.4 65.5-1.301 10-2.5 10.8-13.301 11.8-20 1.7-40 3.2-60 5.601-8 .899-16.101 1.399-24.101 2.601-1.698.3-1.5 2.7.2 2.7h39.101c5 0 9.899 0 14.3 2.6 14 8.5 29.899 13.5 43.5 22.7 3.801 2.601 6.601 2 8.5-1.7 4.101-8 9.2-15.2 12.2-23.898 6.899-20.102 10.601-40.2 9.899-61.302-.7-23.5-8.101-44.5-23.399-62.898-.2-.2-.301-.5-.301-.8-.5-4.7-6-5.9-7.8-9.7-.2-.104-.298-.204-.398-.302zM1372.698 1261.4c6.2 2.6 15.4 10.8 22.302 10.4 26.8-1.602 50.398-6.102 79.8-15.2 1.3-.1 2.2-2 2.7-4.4.1-.6-.2-1.198-.7-1.5-9.9-4.898-19.9-9.698-29.8-14.8-21.5-11-40.7-25-58.5-40.8-1.102-1-2.802.3-2.102 1.6 2.8 5.8 7.3 11 9.602 17.9.398 1.2-.802 2.2-1.9 1.7-14.1-6.7-25.2-16.4-39-24.302-1.2-.698-2.6.7-1.9 1.9 6.5 10.5 13.101 19.5 18.301 29.8.5.9-.199 2-1.199 2-4.602.102-8.301-1.199-12.102-2.3-17.5-5.1-36.198-3.6-53.3-9.1-1.399-.4-2.399 1.3-1.399 2.3 19.799 19.204 42.999 33.902 69.197 44.802zM1903.3 711.9c-.8-3.3-5.902-19.839-8.803-22.14-20.8-17-30.734-32.923-46.435-54.124-7.398-10-17.062-11.536-25.262-20.937-.9-1-2.602-.2-2.4 1.2 6.7 38 23 79.7 45.7 110.7 13.899 19.2 31.199 35.399 50.199 50 1 .8 2.5-.2 2.2-1.4C1913.5 755.9 1908.1 730.2 1903.3 711.9zm-116.7 59c2.6-19.3 3.699-38.8 4.699-58.3.399-8.2-.101-16-2.5-23.7-16.899-54-43.899-103.1-80.5-147.3-.5-.601-.899-1.101-1.399-1.601-1-1-2.7 0-2.3 1.301.6 2 1.899 3.699 3.1 5.5 23.6 38.1 42.5 78.1 56 120.5 6.801 21.3 11.9 42.898 14.1 65 1.5 14.3 4.302 28.699 1.9 43.199-.9 5.101-1.3 10.101-1.3 15.199 0 1.4 1.899 1.9 2.6.602 3.1-6.498 4.698-13.3 5.6-20.4zm-442.8 253.5c-.102-1-1.2-1.6-2.102-1.1-4.6 3.1-11.986 7.699-14.486 9.699-10.898 8.5-18.714 15.601-30.614 23.002-.7.398-.601 7.998-.2 8.697 1 1.602.7 3.4.3 5.4-.898 4.3-2.3 8.5-2.398 13.4 0 .898.8 1.6 1.7 1.398 15.3-3.699 27.898-12 41.698-17.398.5-.2 1.101-.102 1.5.3 1.4 1.5 4.5 2.5 6.7 3.6 1 .5 2.101-.198 2-1.3-1.098-13.498-3.098-31.698-4.098-45.698zm385.5-173c8.8 32.7 25.3-5.8 28.8-13.4.2-.398.1-.898-.1-1.3-2-3.398-2.5-8.7-2.9-12.1-1.1-11.5 1.9-42.7 2.4-61.2 0-1.6-2.2-2-2.7-.5-8.9 28-32.5 68.1-25.5 88.5z"/><path id="hl1" fill="#F7DBAB" d="M1147.3 549.302c2.6.398 5.2 1.6 7.3 3.398 11.6 9.7 23.3 19.4 34.9 29.102 9 7.6 18.5 14.398 29.5 19.3 3.3 1.398 6.6 2.6 10.198 1.898 9-1.6 17.102-.6 23.7 6.302.8.898 2.3 1.5 3.7 1.8 9.5 1.898 16.899 7.3 25.1 11.898 6.2 3.5 13.802 10 23.101 5.602 2.101-1 4 .398 5.5 1.898 1.899 1.9 3.201 4.602 6.201 5.2 5.1.9 5.198 8.7 9.5 7.9 5.198-1 8.898 1.3 13.198 1.899 3.7.5 6.601 2.199 8.9 4.899 4.5 5.5 3.1 10.9-3.7 13.601-3.601 1.399-7.3 2.5-10.898 3.801-2.5 1-5 .8-6.9-.9-8.301-7.6-20.4-8.6-28.7-16.1-.2-.2-.601-.2-1-.4-5.2-3.6-13.399 2.2-16.601-3.4-3.5-6.3-10.299-5.3-14.601-8.898-1.698-1.4-4.1-.7-5.899-1.2-6.5-2-13.899-2.5-18.101-8.7-1.399-2-3.698-3.1-6-3.898C1219.1 618.4 1204.5 608.9 1189 601c-13.602-7.1-23.9-17.5-33.5-28.698-3.102-3.602-6.7-7-10.102-10.4-1.7-1.7-3.5-3.3-3.898-5.899-.6-3.701 1.8-6.803 5.8-6.701zm657.6 47.098c11.101-3.3 22-7.1 32.4-12.2 6.3-3.2 7.2-5.3 4.8-10.2-2.8-5.8-7.2-8.3-12.6-6-11.9 5-24.4 8.602-34.5 17.102-3 2.5-5 4.898-3.302 8.6 1.5 3.301 4.802 3.5 8.9 3.5.902-.102 2.702-.302 4.302-.802zm-392.8 88.7c2.199 1.7 4.4 3.5 7.5 2s5.199-3.7 3.9-7.3c-1.802-5.302 0-9.9 1.8-14.602 1.8-4.5 1.6-9.2 1.5-13.8 0-3.9-1.3-7.8-5.7-8.6-4.2-.802-7.2 1.898-9.2 5.398-3.898 6.9-6.898 13.9-6.1 22.3-1.2 5.806 1.2 10.704 6.3 14.604zm279.598-32.6c-5.198-3.698-8-9.198-11.698-13.898-2.4-3.102-6-4.5-9.9-4.8-6-.302-8.9 2.6-7 7.898 3.699 10.2 8.6 19.7 21.199 22.8 6.5 1.602 9.399-.1 9.399-6.398-.198-2.102-.198-4.3-2-5.602zM1467.3 675.9c.5 4.3 4.2 7 8.898 6.8 4.5-.2 6-3.2 5.7-6.898-.5-6.5 2.102-12.5 2-18.9 0-4.7-3.8-8.3-8.5-8.6-4-.302-7.5 2.6-8 7.6-.398 3.3-.1 6.7-.1 10-.1 3.4-.398 6.698.002 9.998zm267.6-32.8c-2.6-4.9-6.1-9.602-9.7-14-1.898-2.2-5.1-3.9-8.398-2-2.9 1.7-4.5 4.398-3.7 7.6 1.2 4.5 2.8 8.9 4.4 13.2 1.398 3.2 4.5 3.8 7.8 3.7 6.598.202 11.798-4.2 9.598-8.5zm-118.5 24c-2-5.7-4.8-11.2-6.899-16.9-1.301-3.2-4.801-5.3-8.699-3.7-3.4 1.2-4.7 4.2-3.9 7.5 1.3 5.302 2.9 10.4 4.7 15.602 1.1 3.2 3.8 4.6 7.199 4.5 5.897-.002 9.199-2.702 7.599-7.002z"/><path fill="none" stroke="#000" stroke-miterlimit="10" stroke-width="6" d="M1689.3 508.4c9.8 13.9 97 138.3 103.7 200.3 5.6 52.8-26.802 111.9-26.802 111.9l-23.698 45.6s-.2 1.7-8.7-7.7c-8.5-9.398-6.3-19.5-6.3-19.5-2.9-27 34.6-45.698 26.8-88.898 1.398 44.398-36.102 89.8-46.8 107.6-10.7 17.801-63.7 55.602-85.5 58.5.698-22.8-30.7-77-42.7-98.699-12.102-21.699-54.2-61.301-56.3-99-2.102-37.699 8.3-98.601 21.198-137.301-9.614 12.736-24 131.301-24 131.301-2.3 9.399-102.399 213.699-108.8 225.801-6.3 12.1-73.2 83.898-73.2 83.898-3.5 4.7-41.6 33.801-41.6 33.801s-1-17-.2-28.5c.7-11.5-3.398-23 3.602-111.801 9.198-148.8 70-247.6 70-247.6-44.5 79.398-64.4 177.6-69 225.3-4.602 47.7-4.5 126.3-4.5 126.3l-2.802 38.102s2-.102 10.2-5.7c8.101-5.601 41.601-34.9 41.601-34.9s-1 100.102 11.3 133.9c35 64.2 125.801 102.6 125.801 102.6s-68.2 26.8-94.2 16.2c-62.399-20.7-119.7-82.4-137-115.6-17.399-33.2-43.5-166.4-46.6-206-1.9 47.5 33.199 185.698 42.398 207.898 41.2 74.801 132.9 114.602 132.9 114.602s35.2 22.3 31 24.1c-20.101 3.8-119.2-18.4-120.101-18.1-.801.3 16.899 40.898 4.199 33.8C1265.6 1289.4 1202 1232.5 1202 1232.5s-32.2-45.3-49.4-65c-19.767-34.333-5.8 1.2-5.8 1.2s9.699 16.2 15.6 25.602c5.9 9.398 25.7 41.198 25.7 41.198l10.5 41.4s-94.4-87.6-95.4-88.6c-1.1-1-27.1-26.802-27.1-26.802s-15.4-35.1-22.301-51.6c-6.899-16.5-8.101-3-8.101-3l22.301 59s5.801 81.7-2.801 72c-8.6-9.7-65.199-143.2-70.5-164.4-5.3-21.198-13.5-17.6-16.8-14.3-11.1 14.102-21.399 50.3-25.3 42.602-27.101-58.602 1.7-167.602 42.5-209.9 15.399-3.8 36.1-38.6 21.399-29.1-14.899 18.198-115 63.3-91 40.6s56.301-77.7 86-170.3C1041.198 640.5 1067 587.7 1193.6 489c126.6-98.699 309.2-96.699 309.2-96.699 23-80.801-13-127.999-13-127.999s73 15.898 82.7 129.499c0 0 183.398 21.699 275.8 171.301 51.6 94.1 51.6 83.3 63.7 114.6 13.6 15 35.8 36.5 35.8 36.5s-32-4.898-43.9-16.3c-12-11.3-83.3-98.5-85.899-97.1-2.601 1.398 83.5 94.6 83.5 94.6s25.601 114.3 39.801 169.2c14.199 54.898 9.8 130.3-6.801 182.2-6.899 43 1.199 62.6 1.101 73.698-.101 11.102 17.5 115-90.301 134 15-16.3 29.101-34.698 29.101-34.698l-60.8 21 28-28.5-40.802 5.3s55.802-52 55.5-112.8c-.1-31.602 9.7-74.7.7-95.9 1.102-49 13.9-59.1 15.102-66.399 1.3-7.301 47.8-75.5 47.3-90.199 9.1-21.803-41.8 81.3-59.3 99-17.5 17.699-47.102 33.3-47.102 35.898 0 2.602 15.7-98.699 16.9-128.398 1.5-36.9 17.5-35.2-19.9-146.301-14-31.199-38.3-84.699-38.3-84.699L1689.3 508.4zm150.7 656.902s-22.7-9.302-30-6.7"/></svg>