<svg xmlns="http://www.w3.org/2000/svg" id="hair" viewBox="0 0 3000 3000"><path id="cl1" fill="#B2D2FB" d="M1144 1147.302c4.5 3.6 7.8 8.1 10.1 13.398 8.4 18.602 21.199 34.602 30.8 52.4-.5-.8-1-1.6-1.3-2.4-2.1-7.898-1.4-15.898-.801-23.8.201-3.4 1.5-6.7 5.301-7.7 3.3-.898 5.8 1.2 7.9 3.4 5 5.3 9.698 11 13.8 17.1 24.398 36.9 56.2 67.5 85.898 99.9 6.2 6.8 7.302 6.5 12.4-1.5 2.7-4.2 5-10 11.2-7.2 6.3 3.2 14.699 5.2 13 15.301-6.9 11-13.801 21.899-20.9 33.199-11.8-10-21.8-20.699-32.3-30.898-8.801-8.602-11.301-8.5-18.7 1.3-1.2 1.6-2.3 3.1-3.5 4.7-3.5-2.102-4-5.602-5.3-8.602-11.101-24.898-22.101-49.898-33.2-74.898-1.7-3.802-2.5-9.2-8.398-7.802-5.4 1.302-5.102 6.4-5.2 10.7-.102 12-.2 24 1.398 35.9.802 2.199 1.602 4.3-2.198 4-19.9-26.2-42-50.7-63.302-75.801-7.898-9.301-17.5-17.5-19.898-30.399-.5-2.4-2.7-3.8-5.4-3.5-2.2.2-3.7 1.6-4.2 3.7-1 4.198-1.698 8.5-1.198 12.898.898 8.9 1.898 17.9 2.898 26.801.3 3.199.7 6.399 1.102 9.899-3.7-.6-4.7-3.399-6.2-5.3-51.103-66.6-84.401-141.1-100.103-223.6-4.398-23.198-7.698-46.6-8.198-70.3-1.7-16-.9-31.5 6.698-46.3 5.602-10.9 10.102-22.3 14.4-33.8 1.399-3.8 3.3-7.2 6.301-9.9.601-.6 1.899-1 2-1.6.101-.9-.301-1.101-.201-.4.102.602-.299 1-1 1.2-18.898 14-36.6 29.5-52.5 46.8-7.398 8.102-13.6 17.102-20.898 25.2-1.5 1.7-3.7 3.7-6 2.5-2.5-1.3-1.899-3.8-.7-6 2.7-12.4 8.2-23.7 14.4-34.7 10.6-18.8 22.5-36.8 35.399-54 5.899-7.898 10.299-16 11.699-25.8.5-3.2 1.801-6.3 2.801-9.5 6.601-16.8 21.5-26.9 33-39.6 15.8-17.5 30.5-36.301 49.5-51-41.101 15.5-76.2 40.3-109.801 67.699-12.699 10.301-24.3 21.801-36.601 32.5-3.199 2.801-6 6.5-11.1 5.399-1.9-1.3-2.7-2.8-1.101-4.899 12-19.199 27-36.199 41.899-53.101 20.399-23.2 41.899-45.399 64.301-66.7 6.3-6 11.899-12.398 16.1-20.1 4.4-3.9 9.7-5.6 15.301-6.9 19.1-4.5 38.399-7.898 57.5-13.8-44.301-7.5-87.7-17.399-130.101-31.5-8.601-2.8-16.7-6.6-24.8-10.5-3-1.399-6.2-3-7.7-6.1-1.899-3.9 0-4.8 3.601-3.7 14.699 2.6 29.3 5.9 44.3 7.1 26.399 2 52.5.2 78.5-4.699 6.2-1.199 9.8-4.899 13.399-9.5 49.801-64 111.301-113.301 185.4-146.601 73.899-33.2 151.3-46.5 231.8-38.101 138.899 14.399 248.8 80.501 333.899 189.899 1 1.3 1.7 2.8 2.5 4.2-3.601 5.2-8.199 3.4-12.399 1.2-13.101-6.9-28.399-9.7-38.7-21.7-3-3.5-7.699-3.8-12.1-3.3-22.9 3.1-45.601 2.399-68.5-1.601-13-2.3-26.601-2.199-39.5 2.399-2.699 1-6.699 1.601-6.301 5.2.399 3.601 4.301 3.601 7.301 3.7 7.301.399 14.699.3 22 .2 8.801-.102 17.199 1.3 25.199 5.3 2.101 1 4.2 2.6 6.5 2.3 21.7-2.8 40.399 10 61.399 11.3 9.101.601 16.5 6.9 24.601 10.7 11.399 5.2 22 8.5 30.601-4.5 1.3-1.899 3.7-2.8 6.101-3.2 19 28.2 44.699 50.9 64.899 78.2 27.5 37.2 50.399 76.7 66.899 119.9.899 2.5 1.601 5.1 2.399 7.6-1.8 4.9-4.199 1.8-6.1.2-7.801-6.4-14.199-14-20.699-21.601-14.4-16.899-28.101-34.399-43.4-51.399-1.2 6-.2 11.2.8 16.399 3.801 19.301 9.399 38.199 16.2 56.601 4.9 13.1 9.101 26.399 12.601 39.899 3.6 24.101 4.699 48.399 4 72.699-1.801 69.7-15.699 136.7-43.4 200.801-12.199 28.199-27.199 54.801-43.3 80.899-11.7 18.899-21.7 39-32.399 58.5-1.5 2.8-2.5 6.101-5.301 8.101-1.5-1.5-1.399-3.199-1.699-4.801-5.5-12.199-4.801-23.699 3.8-34.5 8.5-10.699 15.7-22.199 24-33 16.801-22 20.899-46.3 13.5-72.5-2.8-10-1.699-18.699 3.601-27.6 13.8-23.101 24.601-47.801 36.601-71.9 2.5-4.1 5.101-8.1 6.399-12-1.301 3-2.899 6.601-5.2 9.8-11 19.602-25.899 36.301-38.8 54.501-2 2.899-5.101 6.801-8.899 4.699-4.399-2.399-2.101-7.199-1-10.8 8.8-29.7 17.3-59.5 25.3-89.5 6.2-23.101 7.2-46 .399-69-1.6-5.5-9.6-11.101-9.6-16.7 1-5.9 10.1-24 5.199-25.9-3.3-2.698-4-8.1-4.3-12.3-3.4-44.7-17.301-87-30.101-129.5-3.2-10.8-5.899-21.7-9.7-32.2-1.899-6.5-4.699-12.698-6.5-19.3-.6-1.2-2.1-2.3-.699-3.898-1.699 2.198.801 3.398 1.301 5 1.199 7 4.898 13.198 6.398 20.1 13 37.3 19.201 75.7 20.801 115.1 2.301 54.7-6.801 107.2-25.899 158.302-3.5 9.198-9 17-14 25.1-9.601 12.3-21.3 22.6-32.101 33.7-3.699.2-3.301-1.9-2.301-4.3 4-20.602 2.4-41.2.201-61.802-.4-17.698 5.199-34.698 6.799-52.198 1.201-12.5 2.9-25 3.201-37.7 1-40.2-.201-80.3-2-120.4-.301-6-2.5-11.7-2-17.8.399-9.5-3.101-18.7-3.101-27.7 1.699 12.4 3 25.3 4.199 38.2 3.199 31.4 2.699 62.8-.301 94.2-2.199 23.398-4.3 46.898-6.699 70.3-.6 5.3-1.699 10.5-2.399 15.7-.4 3.1-1.101 6.8-5.5 7.1-2.4-6.2-4.699-12.399-7.101-18.6-3.899-10.3-8.699-20.102-15.399-28.9-8.801-13.6-12.5-29.3-17.801-44.3-18-50.8-35.899-101.7-51.8-153.2-3.7-12.5-7.601-24.899-11.5-37.399-1.399-4.899-3.399-9.601-4.101-14.601.2-.8-1.899-.8-.6-1.899-.801 1.301 1 1.899.898 3 .602 5.199 2.602 9.899 4.102 14.899 4.5 13.101 7.8 26.601 12.699 39.601 18.5 57.899 34.301 116.601 50.399 175.199 2.5 9.301.8 18.5-3.101 28.2-3.199 9.3-10.843 19.907-15.644 30.007-7.271-29.949-13.002-48.331-24.802-69.331-6.4-2.5-11.055-4.677-12.755-10.477-13.9-47.5-29-94.6-40.8-142.7-.2-.899-.7-1.8-1-2.8-.2-1.5-.7-3-1.5-4.3-.5-1.4-.5-2.9-.602-4.4-2-7-3.699-14.1-5.898-21.1-1.2-7.4-4-14.3-5-19.7 1.898 6.5 3.699 15.2 6.398 23.7 2.2 8 4 16.1 6.301 24 14.101 51.6 26.199 103.6 37.301 155.898 1.3 6 1.101 11.9-.801 17.7-2.199 4.4-4.5 8.8-6.699 13.2-3.5-.9-3.102-3.601-3.7-5.601-13.9-53.801-27.5-107.699-41.9-161.399-10.398-39-25.5-76.4-40.299-113.8-2.899-7.4-7.701-13.9-12.899-20-3.5 2.398-2.802 5.6-2.2 8.398 4.898 22.4 4 45.102 2.601 67.7-4 64.3-13.4 127.8-26.201 190.8-2.5 12.4 2.629 32.953.029 45.754-2.8-1.102-6.396-2.034-11.225-4.539-5.297-2.072-2.1-1.452-7.775-7.836-5.705-4.597-4.225-13.375-8.625-13.875-4.5-2.801.896-18.504.797-23.203-.701-18.199-2.701-36.301-4-54.399-1.601-20.7-2.201-41.5-2.201-62.3.4-9-.398-17.9-.799-23.2.899 5.3 1 14.3.799 23.2 1.9 52.6-4.199 104.699-8.199 156.898-.6 8.301-4.1 16-5.6 24.2-.9 7.601-11.963-15.313-22.44-24.774-11.357-16.004-38.486-84.134-46.857-83.422-11.008.936 9.627 125.049-1.053 127.264-5.5 1.101-4.951 3.632-8.051-1.868-5.301-9.5-15.101-17.2-20-27-35.601-66.2-63.2-135.6-83.7-207.9-1.601-7.898-4-15.6-5.601-23.5-.899-4.8-2.101-9.6-3.3-14.3.5 3 1.601 5.9 2.199 8.9.5 2.6.9 5.2 1.7 7.7 2.199 9.1 4.101 18.198 6.899 27.1 14.7 54.2 27.7 108.9 48 161.4 3.801 9.898 2.801 20.3 2.5 30.5-.101 10 2.899 19.898 1.5 29.8-.601 1.3-7.3 1.399-8.101.2-9-27.102-17.199-54.5-25.699-81.802C1331 763.6 1324.301 728.6 1309.5 673.7c-1-3.5-.699-7.6-1.801-11.1-.699-2.4 1.301-6.7-1.3-6.8-2.7-.101 2.1 2.3 1.199 4.5-1.601 3.7-2 11.2-2.199 15.2-1.301 22.3-1 30.398.699 52.699 4.201 55.801 5.899 100.601 15 155.801 3.399 20.698-3.699 44.5 0 65.1.601 3.2 1.601 6.4.801 11.2-5.4-4.9-10.2-9.2-14.2-14.4-37.5-53.2-59.199-112.6-69.8-176.398-.801-4.602-2.6-9-2-13.7.4-3.5-1.1-6.9-1-9.7 1.699 7.2.1 15.5 3 23.3 4.1 28.601 8.8 57.101 12.5 85.7 3.199 24.7 6.1 49.5 6.4 74.4.1 4.398.8 8.6 1.898 12.698.602 6.7-.5 13.5.8 20.102.2 1.1 5.169 1.098 5.169 2.198.1 4.3 5.099 15.433 5 19.833 0 1.8 31.353 58.608 29.053 59.707-2.398 1.2-27.334-17.538-28.934-19.337-4.801-5.5-26.787-53.802-30.686-60.102-23.3-37.4-37.601-78.399-48.2-120.8-5.6-22.4-10.198-45.101-12.698-62.8 5 30.398 12.1 65.6 23 99.898 7.5 23.5 15.6 46.7 26.698 68.801 3.802 7.5 45.667 72.433 41.768 77.133-5.899.3-10.895-10.369-10.796-4.97.101 10.101 20.616 52.114 20.616 63.016.904.348-60.819-45.879-72.486-74.046-22.601-29.301-30.899-79.033-45.899-112.234-5.3-11.8-8.4-24.399-12.7-36.6-2.1-8-4.5-15.9-6.699-22.2 1 1 1.101 3.899 2.101 6.5 2.199 5.899 3.3 12.1 5.6 18 10.802 31.3 19.601 63.2 31.302 94.2 1.6 4.3 3.898 8.6 1.5 13.398-3.102 2.9.107 6.39.906 10.788 2 10.9 7.904 19.66 9.504 30.66.5 3.1 16.319 39.253 10.72 40.653-24.96-22.714-57.298-72.359-72.298-97.859-4.5-7.7-9.033-24.244-11.332-32.943-11.302-41.899-23.201-153.301-30.102-147.601-2.2 25.8-9.398 50.8-11.2 76.601-1.8 24.699 1.2 49 6.601 73.101"/><path id="sd1" fill="#7C81CD" d="M1766.5 1271c4.698-30.5 19.8-91.198 19.8-91.198 2.2-.5 9.6-1.2 16.5-5.802 2.8-6.8 13.3-25.6 13.7-36 .1-2.398 12.898-5.398 12.8-7.8 3.5-2.398 2.1-1.1 6.898-4.8l-1.1-5c-4.1-20.2-2.3-53.5-13.6-76.4.1-3.6 1.898-40.398 3.398-43.898 13.2-30.9 20.4-38.7 37.3-55.7 12.4-26.5 20.102-50.9 28.7-78.4 9.8 25.802 20.102 59.7 13.4 86.9-8 32.3-17.4 64.2-26.9 96-.898 3.1-2.6 6-2.2 10.3 5.102-4.398 7.9-9.699 11.5-14.398 11.802-15.7 23.5-31.4 35.2-47.102 3.602-.1 3.5 1.8 2.2 4.3-8.1 21.602-19 41.802-29.6 62.2-3.4 6.5-7 12.9-10.7 19.2-2.5 4.2-2.101 8.2-.601 12.5 2.801 8.2 3.899 16.8 4.801 25.399 2 20-4.601 37.5-15.9 53.301-9.5 13.3-18.4 27-29 39.398-2.3 2.7-3.199 5.7-3.199 9.2 0 6.3-.101 12.7-.201 19-7.299-4.399-8.398-4.3-13.799 2.5-15.399 19.2-30.701 38.5-46.101 57.8-2.899 3.602-5.8 7.102-9 11.102-4.101-3.602-5.7-8-8.101-11.9.003-.002 10.805-12.202 3.805-30.702zm-418.6 34.802c.9 1 1.7 2 2.601 3 15.699 17.6 31.5 35.198 47.101 53 3.3 3.698 6.5 5.398 11.199 3.698 9.101-3.5 16.601-.898 23.801 5.302 3.199 2.698 6.1 7 11.5 6.898 8.199 5.302 8.199 5.302 21.899 6 0-5.5-1.601-44.3 0-48-20-8.3-48.301-24.3-79-41.398-12.699-36.7-35.301-81.2-35.301-81.2-36.3-7-41.899-40.8-79.399-71.3-2.601-4-61.8 17.5-66.601 14.6-3.3.3-16.6 1.4-19.8.8-16-3.1-26.899-2.398-41.8-9.198 10.6 24.3 24.399 46.698 39.899 68.1 3.699.3 3-1.8 2.199-4 0-8.6-.1-17.3 0-25.9 0-1.698.4-3.6 2-4.3 2.4-1.1 3.601 1 4.801 2.5 5.8 7.3 11.899 14.4 17 22.1 24.699 37.4 58.101 67.5 87.199 101.102 3.601 4.2 7 3.5 10.7-1.102 2.5-3.198 4-6.898 5.5-10.6.8-2 2.398-3.9 4.5-2.3 5.1 3.899 12.5 5.3 14.398 12.8 7.004-7.904 8.902-7.904 15.604-.602zM1849.698 674.1c.2 1.3.302 2.7.7 3.898 8.7 31.5 14.7 63.602 17 96.102 1.8 25.2 1.8 50.5-.899 75.8-3.301 31.3-11.7 61.3-21.5 91-3.7 11.4-9.899 21.8-12.801 33.4 5.9-3.302 9.601-9 14.4-13.5 10.899-10.2 18.1-22.802 22.899-36.7 7.601-22.3 16.101-45.3 20.299-68.5.9-4.7-.799-5.8 5.102-6.602-.602-3.898-.5-10.898-.7-14.8-.8-16.6-4.1-32.8-7.699-49-8.5-38.6-21.101-75.898-34.801-113-1.698-.598-2.5-.098-2 1.902zM929.6 791.6c-3.5 4.2-6.4 8.6-7.4 15.398 3.5-2 5.801-3.3 8.101-4.698 19.601-12.5 39.2-25.102 58.801-37.5 5-3.2 10.3-6.2 15.699-8.602 5.899-2.6 9.801.7 9 7.102-.3 3-2.199 5.6-1.699 8.698 11-11.5 22-23.1 32.899-34.698 17.101-18.102 32.601-37.802 51.899-53.802 2.101-1.698 5.101-3.198 5.3-7-1.1 0-2.1-.198-3 0-5 1.7-10.1 3.302-15.1 5.302-29.801 12.198-56.4 29.898-82 49-22.7 16.9-43.3 36.4-64.1 55.4-3.7.4-5.2 4.2-8.4 5.4zm214.598 357.6c69.101 25.102 99.5-8.7 128.101-7.398 5.801-4-55.799-28-60.899-31.302-10.601-25.198-19.601-45.698-40-96.5-13.601-33.898-53.601-81.398-53.7-81.8-7.1-24.3-12.199-49.1-16.5-74-4.699-27.2-9.399-54.5-11.399-82.1-3.3 5.2-3.601 11.3-5.101 17-10.899 41.398-14.3 83.1-5.199 125.398M958.4 565.7c-2.1-.6-4.6-1.8-4.398 2.2 15.698 15 33.698 27.1 52.3 38.2 13.199 7.899 27.3 13.899 42.3 17.399 15.6 3.601 15.6 3.5 9.8 17.699-.1.301-.1.7-.1 1 28.898-3.5 75.6-16.199 84-23.3-5.3-.7-10.102-1.3-14.8-1.899-18.802-2.399-37.2-6.699-55.602-11.101-32-7.7-64.1-15-94-29.5-2.7-1.3-5.6-2.5-7.7-4.5-1.5-1.5 1.302-1.399 2-2.2-4.3-2.396-9.002-3.498-13.8-3.998zM1261 938.802c.8-6.102-1.5-12.4 1.3-18.4 4.8-8.399 7.1-8.899 14-2.7 2 1.801 3.8 3.7 5.8 5.4 8.7 7.6 16.2 16.5 25.7 23.1.3-2.199-.9-3.8-2-5.5-14.8-24.898-27.602-50.699-38.2-77.6-13.7-34.7-23.9-70.3-29.8-107.102-5.8 3.102-2 7.802-2 11.9 0 12.3 2.2 24.4 3.3 36.7 1.4 15.899 5 31.5 6.9 47.3 2.5 20.7 4.198 41.6 6.3 62.4 1 9.898.6 20 3.6 29.6 6 2.6 4.7-2.098 5.1-5.098zM1030 826.1c-5.302.3-9.2 3.398-13.302 6.1-19.398 13.102-35.198 30-50.5 47.5-5.898 6.7-11.1 13.9-17.398 21.8-.5-2.898-.8-4.1-1-5.398-4 9.8-7.8 31.6-6.9 39.1 1.5 0 2.2-1.3 3-2.3 9.8-11.3 19.5-22.7 29.4-34 4.398-5 8.898-9.9 13.898-14.4C992 880.1 997 882 998 888.4c.398 2.6.1 5.3.1 8 .1 7.3-.8 14.6 1.5 21.8 1.3-4.2.5-8.6.4-12.8-.2-5.4.1-10.6 2.398-15.5 9.9-21 18.5-42.5 27.4-63.9l.202.1zm297.9-148c.7 3.6 1.3 7.2 2.101 10.8 9.899 44.8 21.801 89.1 37.301 132.4 5.6 15.8 13.398 31.3 11.1 48.898 2.102-5.3 1.5-11 2-16.5.2-2.5 1.5-4.398 3.8-5.2 2.7-1 5.2-.398 7.102 1.9 1.2 1.5 2.2 3.3 3.3 4.9 5.9 8.3 10.3 17.5 17.2 25.198.2-3.6-2-6.3-3.3-9.3-10.802-24.6-21.9-49.1-32.302-73.898-17.1-41.102-33-82.602-46.3-125.102-4.902.504-2.602 3.504-2.002 5.904zm476 43.9c.7 33.2-.6 66.2-3.399 99.302-2 23.398-4.301 46.8-6.899 70.198-.7 6.802-.301 13.9-3.4 20.4 2.601 10 5.2 20.1 7.802 30.1 1.6-1.398 1.8-3.5 2.3-5.398 6.898-27.4 10.7-55.3 11.8-83.5.9-24.5.3-49-.1-73.5-.102-3.602-.4-7.3-.7-10.9l-5.4-56.398c-5.206 2.396-2.504 6.296-2.004 9.696zm-106.1-51.8c.5 2.3.8 4.602 1.5 6.8 15.7 56.602 31.5 113.102 47.1 169.7 2.5 8.9 4.255 9.05 4.155 18.452.801-1.4 2.551-5.186 3.251-6.686 3.6-8.1 7.194-13.966 13.894 5.835.9-4.2-1.198-7.802-2.5-11.602-17.1-49.398-34.198-98.8-51.398-148.2-4.5-12.898-9.2-25.698-13.801-38.6-3.901-.097-3.101 2.101-2.201 4.301zm-184.4 213.9c5.2-12.5 8.2-22.102 13.4-34.602 1.5-3.698 4.476 12.475 9.075 11.376-.8-5.602-1.676-34.176-1.875-39.876-.5-12.898-1.302-25.8-2.302-38.698-1.898-24.802-3.898-49.5-5.898-74.302-1.2-1.3-2.4-1.3-3.7 0-.2 6.7-.1 13.302-.5 20-1.8 28.2-3.6 56.4-5.6 84.602-1 13.898-2.802 27.8-3.302 41.7-.398 12-3.5 23.698-2.398 35.8 1.898-1.5 2.2-3.9 3.1-6zm438-119.9c-.8-3.3-1.7-6.5-1.399-9.8.399-3.3 3.601-5.1 6.601-3.7 1.399.7 2.899 1.8 3.8 3.102 9.9 14 23.8 24.1 35.8 36 2.7 2.698 5.2 5.8 10.4 8.198-1.9-4.898-1.4-9-4.3-12.198-6.301 1-8-4.802-10.801-8.102-19.399-22.7-38.399-45.7-57.699-68.5-1.301-1.5-2.4-4.2-5.9-2.7.3 8.102 0 16.302 1.602 24.5 2.8 14.4 7.1 28.302 11.5 42.2 5.8 17.9 11.8 35.8 20.6 52.7-1.104-20.8-5.504-41.3-10.204-61.7zm-693.5 200c1.8-4.3 1.4-8.6.4-13-1.102.7.7-1.398.8 1-1.1 3.8 1.3 9-1.1 13.8v16.5c-2 .302-2.4-1.3-3.2-2.198-16.101-19.5-27.101-41.802-36.7-64.9-16-38.2-26.199-78.1-34.1-118.7-1.801-9.3-3-18.8-7.801-29.6-1.5 12.5.601 22.5 2.399 32.398 9.9 54.102 23 107.302 48.5 156.602 1 2 33.501 58.599 31.401 60.898 13 16.667 27.22 15.84 40.22 27.04 1.399-7.5-29.498-56.825-29.498-62.926-.101-18.6-5.722-42.112-6.922-60.713-3-.8-2.2 1.601-2.3 2.9-.102 4.6-.102 9.198-.102 13.8 0 3.1-.1 6.1-4 6.8.503 6.901-1.097 13.799 2.003 20.299zm392-288c7.2 31.7 14.4 63.5 21.5 95.2 5.9 26.2 12.601 52.3 16.9 78.9 1.398-2.102 3-4.2 4-6.5 2.3-5.301 2.101-15.801 7.7-14.301-4.3-5-1.5-2.801-3.301-8.801-14.398-48.199-28.698-96.5-43-144.699-.5-.801-1.198-1.5-1.5-2.301-.1-1.199-.3-2.3-.398-3.5-4.801.604-2.401 3.604-1.901 6.002zm-459.309 310.339c6.898 6.1 28.91 64.127 87.41 94.961-2-7.898-73.102-99.899-76.802-106.899-19-36.7-37.1-73.7-51.198-112.5-1.802-.5-2.7 0-2.102 2 9.4 36.8 19.602 73.3 34.5 108.3 4.001-.501 5.392 11.737 8.192 14.138z"/><path id="hl1" fill="#FFFDF9" d="M1868.1 580.1c-3 6.398-8.301 11-13.2 15.8-2.7 2.6-6.1 2.1-9.399 1-8.5-2.9-17.101-5.5-24.801-10.3-6.6-4-13.5-6.602-21.5-7-8.899-.5-18-2-25.6-7.2-4.2-2.9-8.9-2.5-13.5-2.4-9.2.102-18.4 1.4-26.801-4.898-3.799-2.9-9.299-3.2-14.399-3.102-8.3.102-16.601 0-25-.1-1.3 0-2.7 0-4-.1-7.2-.4-11.5-2.9-11.7-7.102-.3-6.2 4.801-7.3 9.101-8.898 14.801-5.4 30.2-4.602 45.399-3 8.2.898 16.5 1.698 24.5 4.5 1.9.698 4 .8 5.9 0 4.8-1.9 9.8-1.4 14.8-1.4 6.3 0 12.5.3 18.8-1.6 9.602-2.9 16.802 2.5 23 8.6 5 4.9 9.4 9.3 17.2 10.1 4.9.5 10.4 2.602 14.2 6.7 3.199 3.4 7 3.4 11 2.102 2.9 2.198 4.598 5.198 6 8.298zm-709.5 74.4c7.4-5 15-10.6 23.8-12 6.3-1.1 12.4-2.398 18.101-5.1 13.199-6.3 26.601-12.2 40.301-17.3 1.5-.601 3.1-1.3 4.3-2.3 2.6-2.2 3.3-4.9 1.4-8-2.602-4-5.7-5.801-10.9-4.102-28.7 9.7-58 17.5-86.1 28.801-8.602 3.5-16.802 8.101-25 12.5-3.4 1.801-5.802 5.101-4.102 9.199 1.7 3.9 3.7 8.102 9.102 7.7 10.298-1.498 20.196-3.498 29.098-9.398zm243.8-85.4c0 3.3-.2 6.7.101 9.898.301 3.102 1.5 5.7 4.801 6.9 7.8 3 15.1 6.8 21.1 12.8 2.9 2.9 5.602 2 8.602-.6 7.198-6.3 9.898-14.9 12.6-23.3 2.1-6.7-.301-8.7-7.5-7.9-7.9.8-9.5-.5-10-8.2-.1-1.3 0-2.7 0-4 0-5.398 0-11.2-5.6-13.898-5.5-2.602-10.4.6-14.802 3.5-5.899 3.898-8.698 9.898-9.399 16.8-.299 2.6 0 5.3 0 8h.097zm-49.1 4.202c-8.7 3.5-18.102 4.698-27 6.1-10.7 1.7-19.602 6.7-29.5 9.7-2.602.8-4.602 3-4.3 6.1.3 3.102 2.6 4.5 5.5 4.7 3.1.2 5.6 1.3 8.1 3.2 5.1 3.898 7 3.8 10.5-1.4 2.4-3.6 4.699-5.1 8.9-3.898 1.1.3 2.898 0 3.8-.801 7.6-6.699 17.5-7.801 26.6-10.601 3.4-1 6-2.8 7.8-5.8 1.2-2 2.4-4.102.7-6.5-1.3-1.8-3.3-2.102-6.2-2.102-1.1.302-3.1.5-4.9 1.302zm317.1-17.702c4.7-3.2 6.7-9.4 4.8-15-1.698-5-6-8.4-11.398-7.7-5.2.7-10.5 2.2-14.801 5.3-3.601 2.5-6.699 5.9-5.899 10.8.8 5 4.699 6.9 9.1 8 2.601.602 5.2 1 6.101 1.2 6.395 0 9.297-.7 12.097-2.6zm-191.202 10.8c.101 4.3 4.302 7.6 9.802 7.5 6.8-.1 13-5.4 12.898-11-.1-4.8-2.7-6.9-8.7-7-8.298-.2-14 4.1-14 10.5zm104.5-26.2c-3.8.102-7.399 3.3-7.399 6.602 0 3.198 4.399 6.6 8.701 6.6 4.198.101 8.698-3.399 8.6-6.6-.2-3.202-5.402-6.702-9.902-6.602zM1550.3 554c-3.9.2-6.2 2.2-6.3 6.2-.102 3.5 3.5 7.3 6.8 7.4 3.398.1 7-3.7 6.8-7.2-.1-3.7-3.402-6.598-7.3-6.4zm-456.5 100.802c-3.7.1-6.9 3.5-6.5 7.1.5 3.7 3.898 6.5 7.7 5.9 3.5-.602 5.898-2.5 6.3-6-.3-3.602-4.2-7.102-7.5-7z"/><path fill="none" stroke="#000" stroke-miterlimit="10" stroke-width="6" d="M1894 849.5c1 1.802-18.802 57.302-24.5 74.602-5.7 17.3-14.666 25.732-35.7 49.2-5.073 5.661-12.632 13.865-36 30.5 4.5-77.5-13.641-104.844-22-126.802-7.472-19.626-16.5-29.852-17.3-28.25-.8 1.6-28.55 59.7-29.25 56.5s-4.057-35.888-12.25-53.5c-7.685-16.52-18.75-24.75-18.75-24.75-3.9 6.399-18.25 52.303-19.25 34.603-4.4-24.3-53-215-84.302-272.4-10.698-33.3-14.399-23.3-12.198-7.699 2.198 15.601-4.9 119.801-8.302 147.101-3.4 27.3-20.698 82.896-16.948 147.646-27.5-10.75-28.552-29.747-29.951-26.347s-13.466 19.264-17.899 44.101c-4.667 4.768-60.05-91.976-65.566-109.837-14-45.333 3 137.554-6.667 127.667-25.125-25.697-37.368-48.629-48.067-63.33C1378 818.5 1383.2 919 1381 911c-1.136-4.131-27.296-61.585-45.742-119.924-17.278-54.644-26.931-110.065-27.56-123.172-1.3-27.1 1.802 7.8-.398 46.8s14.699 246.2 14.699 246.2-33.699-31.7-43-40.399-12.301-5.801-15.5-2C1256 988 1302 1045.5 1302 1045.5c-16-7.5-25-6-43.5-28.5-3.199 3.601 27.799 79.401 24.5 71.5-1.83-4.38-38.422-27.468-65-58.5-21.353-24.931-33.662-59.857-35.801-57.496-4.8 5.301 30.401 93.196 26.301 88.496-4.102-4.7-51.028-46.809-86-122.195-15.415-33.229-30.801-164.9-30.801-164.9M1464 1385.7c-18.7-2-44.7-21.6-47.4-21.398-2.7.198-14.6 1.198-16.5 0-1.9-1.2-42.2-39.5-49.6-55.4-7.4-15.9-18.2-2.6-18.2-2.6s-20.9 33.198-23.2 31.3c-2.3-1.9-26.2-25.102-35.6-33.7-9.4-8.6-16.602 10.8-16.602 10.8s-19.5-40.5-22.6-47.6c-3.102-7.1-15.3-47.8-24.3-43.6-9 4.199-3.9 50.398-3.9 50.398s-48.1-40.398-71-82c-22.9-41.6-23.7-23.8-23.7-23.8s0 24.4 2.801 49.6c-56.5-50.6-110.801-220.1-111.101-258.3s-8-76.1-8-76.1c-1.5-1.4-30 25.5-54 52.2-3-45.5 26.8-83.4 54.3-128.2s14.4-51.601 14.4-51.601-43.602 24-87.602 51.601c12.201-45 120.102-144.8 130-155.602 9.9-10.8 8-24.3 4.802-25.8-28.302-11.8-132.302-67.6-101.4-60.5 121 26.2 150.7 0 150.7 0 108.5-141.898 279.898-179.8 279.898-179.8 237.802-42.3 361.102 73.5 387.802 93.7 29.3 13.3 84.8 93.3 104.5 114.899C1966.6 664.6 2005.8 797.6 2005.8 797.6s-25.2-22.2-43.102-40.601c-17.898-18.399-10.5 11.2-10.5 11.2l3.302 15.101c34.399 155.699-18.802 279-27.601 302.6-8.801 23.602-66 145.602-86.7 161.2-5.199-16.9-15.5-2.4-15.5-2.4l-41.3 51.7-16.2 14.7s-7.8-6.102-8.899-13.9"/></svg>