<svg xmlns="http://www.w3.org/2000/svg" id="hair" viewBox="0 0 3000 3000"><path id="cl1" fill="#41302b" d="M1418.1 882.1c0 .6-.1 1.3-.2 1.9-1.2 1.1-.7 3-1.9 4-6.1 12-12.1 23.9-18.2 35.9l-1.8 2.1c-.7.9-19.3 35.4-19.9 34.5 0-1.3.1-2.6.1-3.9 1.7-1.7.2-4.4 1.8-6.1 1.5-14.5 10.2-54.2 12-68.6 2.5-20 6.1-39.8 9.6-59.6 3.5-19.9 10.4-38.3 16.9-57.5 4.5-13.3 10.8-32.2 16.9-44.7 2.2-4.6 1.1-5.8 1.8-10.8-5.3-2.7 3.2-12.4 3.8-16.6 1.3-9 4.4-17.8 4.3-28.3-36.8 40.9-65.5 85-83.8 135.6-4.9 13.4-9.1 27.1-13.5 40.6-.8 2.5-1.4 22.5-3.8 23.6-3.5 1.6-22.1 37.8-20.7 35 .1-2 7.7-51.6 7.7-53.6 2.4-3.8 1-9.3 3.3-13.1 1.5-16.5 3-30.9 4.6-47.4 1.1-11.2 4.1-28.4 4.7-39.6.9-16.9-1.1-20 1.7-36.7.5-2.9.5-5.9.6-8.9.1-2.8-.5-5.5-3.3-6.7-3.2-1.4-2.4-1.6-4.3.7-2.9 3.6 2.9-4.2.6-.1-8.7 15.6-8.7 31-17.4 50.1-3.1 16.6-7 29.9-8.5 46.7-1.1 11.8-.5 23.9-3.5 35.5-12.1 18.4-29.9 25.6-51.1 25.4-26.9-.3-48-13.9-67.7-30.6-26.2-22.1-47.1-48-59.3-80.3-14.3-37.9-20.2-77.3-8.3-115.7l2.2-3.2c1.3-1.1.6-1.2 1.7-2.3 7.1-21.4 23.5-37.6 37.6-54.9 27.7-34.1 57.4-64.4 96.3-85.5 9.5-5.1 20.6-11.8 30.4-15.9 15.3-6.4 31.8-17.1 47.1-23.5 21.8-9.2 46.9-14.9 70.1-19 21.2-3.7 44-7 65.6-8.1 13.6-.7 32-1.7 45.5-.8 26.7 1.8 48.1 3.4 74.8 7.6 37.9 6 74.5 16.1 110.2 29.8 3.9 1.5 8.7 1 11.7 4.8-1.4 9.8-6.3 21.7-16.4 20.2-10.8-1.6-21.4-4.6-34.2-5.2 6.4 6.4 12.7 10.6 17.5 16.3 8.3 9.9 6.2 17.8-6.1 21.9-9.2 3.1-19 3.2-28.5 4.8-3.9.7-7.1 1.3-5.3 6.9 1.7 5.1-2.7 5.2-6 5.3-4.3.1-8.5-1.2-12.9-1.4-8.7-.4-16.3.7-22.3 8.3-4.5 5.8-11.5 6-18.4 5.4-3.2-.3-6.2-1.7-6.4 4.2-.2 4.7-5.5 4-9 3.7-5-.4-8.7.2-11.9 4.9-3.5 5.1-9.7 3-14.9 3.6-2.2.3-5.2-.3-5.9 2.6-.6 2.8 2.1 4.3 4.2 4.8 17.3 4 27.8 17.6 40.5 28.1 2.3 1.9 4.4 4.9 7.6 3.8 4-1.5 2.6-5.6 2.9-8.7.2-3-.1-6 .8-8.9 2-6.7 6.7-8.9 13.1-6 5.5 2.5 9.8 6.9 14.7 10.3 9.5 6.5 13 5.6 18.5-4.5 4.8-8.8 10.3-10.5 19.9-5.1 5.3 3 9.7 5.1 15.4.7 4-3.1 8.9-1.6 13.4.3 4.3 1.9 8.5 3.9 13.1 4.9 5.3 1.2 8.7-.3 10.9-5.8 5.1-12.1 8.7-13.2 20.7-7.8 2.4 1.1 4.8 2.4 7.3 3.1 5.3 1.5 9.4.7 10.1-5.7.6-5.4 2.8-8.5 8.9-8.2 5.6.3 4.8-4.3 5.1-7.9 1.1-15.8 1.5-16.5 16.9-19.3 5.5-1 9.9-10.8 13.8-14.6 20.1 16.5 35.5 41.1 48.9 63 24.3 40 38.6 86.9 45.3 133.2 2.1 14.8 4.3 29.6 3.7 44.6-.3 8.4 1.9 16.5 2 24.8.3 21.3-1.5 42.5-2.5 63.8-.9 19.4-2.1 39.1-7.5 58-5-.2-4.2-4.5-4.7-7.4-9.7-57.5-30.8-110.6-60.4-160.6-9.2-15.6-18.9-31-32.4-46-4.4 29.6-11.6 56.9-14.5 85-.7 6.3-1.2 12.6-2 18.8-.2 1.9-.8 4.3-3.4 4-1.9-.2-11.1.7-12.3-.3-8.7-20-13.5-36.5-22.1-56.5-.7-.7-1-2.9-1.8-3.4h-1.8c-6.1-.4-.3-10.9-.8-14.9-.9-6.2-1.8-12.3-4.7-19.6-6.7 9.5-12.7 17.7-15.9 27.5-12.2 37.3-25 74.3-43 109.3-2.2 3.6-17.9 33.2-22.3 37.2 3.8-16.4 12.3-61 15.9-76 2.8-11.9 1.7-27.5 2.4-39.6 1-17.5 0-26.3 5-43.3-1.8-1.4 2-8.6 2-8.6-3.3-3.1 5.4-10.7 6-14.3 2.1-12.5 5.4-24.7 8.1-38.6-10.5 11.2-18.9 22.5-28 33.2-24.7 29.2-50.5 57.4-75.2 86.6-3.5 4.1-6.1 8.6-8.5 13.4-13.6 27.8-25.1 56.5-39.4 84-1.2 2.3-14.3 24.2-17 26.5-2.3-4 .1-7.2.6-10.4 5.9-40.6 12.9-76.3 25.9-115.1 9.4-28.2 10.9-57.1 28-81.5 4.6-6.5 5.1-19.4 8.4-26.8 2.2-4.8 8.1-2.1 2.4-5.6-3.4-1.3 21-22.9 17.7-21.1-23.7 15.4-48.6 28.9-71.8 45.2-15 10.5-23.5 26.1-35 39.2-30.8 35.1-41.6 79.1-54.7 122-4.1 14.6-8 29.4-14.1 43.5zM987 785.3c-2.1 3.3-4.6 6.6-5 10.7 0 1.3 0 2.6-.1 4 3.8 1.4 6.2-1.5 9.1-2.8 9.5-4.2 19.3-7.4 29.6-9.1-29.1 27.2-48.8 60.8-67.6 94.9-.7 6.7 3.1 6.3 7.4 4.4 8.1-3.8 13.9-10.4 19.1-17.3 18.1-23.8 40.2-43.4 64.3-60.9 4.1-3 8.4-5.9 10.3-10.6 5.1-13 11.1-25.7 10.4-40.3-.9-17.1 1.6-33.8 5.5-50.4 9.5-40.4 26.3-78.2 41.6-116.5 17-42.7 43.2-77.6 81.6-103.3 9.4-6.3 18.9-12.4 27.6-19.7 3.6-3 6.2-9.7-.2-11.8-76.2-17.5-132.1-8.7-145.3-2.5 2.7 2.8 6.3 3.7 9.4 5.5 8.1 4.6 20.7 13 27.3 19.7 2.5 2.5 4 3.3 3.2 3.9-3.7 2.6-1.2 1.9-1.6 1.7-3.4-2.1-6-3.2-9.8-4.7-8-2.8-16.3-2.1-24.5-3.2-43.2-5.7-80.3 7.4-110.9 37.5-10.1 9.9-20.4 16.9-33.7 21.3-19.3 6.4-35.6 17.6-46 36-.3 1.7-10 8.1-8.8 9.3 7.5-2.7 23.6-13.1 31.4-15.1 6.4-1.7 13-3 19.1-5.4 23.2-9 47.3-9 71.6-8.2 1.9.1 4 .8 5.6 1.8 3.6 2.1-1.6-1-4.2 2.3-1.9 2.4-1.9-1.3-4.6-1.2-5.6 1.9-12 11-17.2 14.2-15.1 9.2-26.1 22.3-39.8 33.5-4.5 3.7-16.9 11.1-18.9 16.5-.8 7.3 8.4 16.8 11 23.3 8.3 20.7 20.7 55.8 27.7 78 1.2-1.8 9.8-29.2 10.1-30.1 8.7-19.9 19.4-38.6 31.8-56.4 9.4-13.5 20.7-25 34.7-33.8 5.2-3.3-10.8-14.2-7.9-10.6 2.5 3.1 1.6 5.6-3.8 9.6-5.9 4.3-12.1 8.2-17.2 13.5-15.9 16.4-15.9 39.2-26.5 59.2-8.4 15.8-10.8 32.7-20 48.2-23.7 45-51.2 63.2-95.8 66.3 5 6.5 32.5 13.5 34 13.2 9-1.6 17.7-.3 26.2-5.6 7.7-4.8 21.6-10.5 28-16.8 24.8-18.9 49.4-39.6 59.3-67.5 2.8-3.7 3.7-8.9 6.9-12.2 2.1-2.3 1.5-4.3 4.7-2.6 3.5 1.8.3 6.2-1.3 10-.5 1.2-3.3 5.6-3.7 6.8-13.6 26.3-18.1 48.1-34.1 73.3zm-76.3-124.4c3.2 10.8 6.8 21.4 10.6 32 2.5 7 .9 11.7-4.8 16.4-4.6 3.8-11.5 5.7-13 12.8 3.9 5.4 8.1 10.5 13.1 14.9 3 2.6 6.4 4.8 10.8 4.2 11.2-1.5 28-21 28.6-32.4.7-12.8-6.5-22-13.1-31.5-9-13-20.3-24.7-24.1-40.8-.7-2.8-7.5-11.9-12.4-9.2-1.5.8 3.4 6.9 3.3 8.5-2.9 8.4-1.5 16.8 1 25.1z"/><path id="hl1" fill="#735d55" d="M1792.1 508.5c0 4.4-1.1 15.2-6.4 15.6-3.6.3-7.1 1.6-10.8 1.9-8.8.8-10.9 3.3-11 12 0 3.3.2 6.7 0 10-.3 5.6-1.1 6.1-6.7 5.3-6.5-.9-6.5-.9-7.2 6-.8 7.8-3.5 10.2-11 8.3-4.4-1.1-8.5-3.7-12.8-5.6-8.6-3.8-12-2.2-14.4 6.8-2.6 9.6-5.2 11.2-15 8.3-4.4-1.3-8.6-3.4-12.9-5.3-7.4-3.2-8.3-3.2-14.3 3.1-2.2 2.3-4 1.9-6.1.7-3.5-1.9-6.8-4.3-10.3-6-7.7-3.8-11.6-2.2-14.8 5.8-.5 1.2-.6 2.6-1.2 3.8-2.9 6.8-6.4 8.4-13.4 5.6-4-1.6-7.7-3.8-10.9-6.8-2.9-2.7-6.2-5.1-9.6-7.2-6.5-4-10.6-1.7-11.2 6.1-.3 4 0 8-.1 12-.1 2.6.6 5.7-2.8 6.8-3 1-5.9.3-8.4-1.9-6.2-5.6-12.8-10.7-18.5-16.7-6.4-6.7-13.6-11.5-22.7-13.5-3.8-.8-7.4-2.4-9.7-6.3-1.9-3.2-1.4-4.7 1.8-6.1 4.2-1.8 8.6-1.1 12.8-1.1 4.8-.1 9.3.4 10.1-6.4.3-3 3.5-3.9 6.4-2.9 4.2 1.4 8.5 1.5 12.8 1 1.5-3.7-3.7-4.5-3.2-7.6.2-1.2 1.1-1.7 2-1.8 5-.1 9.7 2.1 14.8 1.7 5.3-.5 9.7-1.6 12.7-6.5 3.4-5.7 8.8-7.3 15.3-7.6 8.3-.5 16.4 1.7 25.1 1.9-.5-1.5-.6-2.5-1.1-3.2-4.9-7.3-4.8-7.6 3.3-8.8 8.9-1.2 17.7-2.6 26.5-3.9 1.3-.2 2.6-.4 3.9-.8 10.9-2.9 16.5-9 5.5-19.4-3.4-3.2-6.7-6.4-10.3-9.5-3.2-2.7-6.7-5.2-10.9-8.4 5.4-3.1 10.1-2.1 14.4-1.4 8.5 1.4 16.9 3.3 25.3 5 1.9.4 4 .5 5.9.5 4.1.2 5-2 6-6 .4-1.5 1.5-9.2 2.8-9.5 23.5 10 45.8 22.2 65.9 38.1 5.5 4.2 10.4 8.6 14.4 13.9zm-678.3-23.7c-.6-.7-6.9-8.3-7.6-8.8-12.3-8.4-29.7-18.5-44.4-21.2-24-4.3-45.5-.3-64.7 14.9-7.8 6.2-15.9 12-23.6 18.3-16.7 13.7-34.7 29.1-54.2 38.8-15.3 7.6-47 40.5-50.1 60.6-1 2.4-1.3 4.4 2.2 4.4 14.7-19.6 52.5-52.2 76.5-57.6 4.8-1.1 8.5-3.5 11.9-6.7 5.6-5.2 10-11.4 15.8-16.4 24.8-21.7 53.5-32.8 86.4-32.8 12.6 0 25.1 1.5 37.5 3.4 1.8.3 5.8 4.2 7 2.7l7.3.4zm-204 151c-.3 1-.8-11.5-9.8-1.8-18.2 26.3-22.9 47.9-12 77.6.8.5 11.3 11.7 12 12.3 2.2.9 3.2-.2 3.9-2.1 5.7-4.4 11.1-9.4 17.2-13.2 5-3.1 5.5-6.9 4.2-11.8-.7-2.5-1.7-5-2.5-7.5-3.9-13.2-9.3-26-12.2-39.6-1-4.9 2.5-9.7-.8-14.1v.2zm58.7 224.8c15-25.5 31.8-49.6 53.6-69.9 1.8-1.6 4.6-2.8 4.1-7.1-15.6 3.7-30.9 3.1-44.3 12.4l-.8.7c-.9 1.2-8 7.6-9.5 8.5-13.6 20-19.2 42.7-22.4 66.5-1.3 1.9-.1 4.4-1.5 6.3-.2 1.3-.3 2.5-.5 3.8.2.6 6.8-.6 6.8 0 6.7-6 10.2-13.9 14.5-21.2zm236-445.3c-14.7-.3-28.8 2.6-42.8 6.7 8 3.8 17.2 9.1 25.5 9.6 15.5 1 31.1.4 46.7.5 2.9 0 5.6-5.5 7.8-8.3-11.7-5.8-24.1-8.3-37.2-8.5zM1230 608c-.2 3.7 1.7 3.2 4 2 .7-.7 1.4-1.3 2-2 3.7-2.2 7.3-4.8 11.2-6.5 9.2-4.1 14.1-1.7 17.6 7.9.6 1.6 1.1 3.2 1.5 4.7 1.2 4 3.5 6.5 8 5.7 7.9-1.4 12.4 2.9 15.9 9.2 1.1 2 2.4 4 3.9 5.8 4.4 5.5 6.9 5.7 12.5 1.3 1-.8 1.9-1.8 2.9-2.8 13.3-12.8 13.3-12.8 27.6-1.7 4.4 3.4 7.1 3 10.9-1.5.8-1 1.4-2.3 2.3-3.3 5.7-6.6 10.5-6.9 16.9-1 2.7 2.5 5.1 5.3 7.8 7.7 3.5 3.2 7.2 3.1 10.6-.2 1.6-1.6 3-3.5 4.5-5.3 4.3-5.3 9.4-6.7 15.7-4.4 10.3 3.8 11.3 3.4 16.9-5.5 1.2-2 2.3-4.1 3.4-6.1 1.3-2.4 2.9-5.1 5.5-5.4 6.8-.8 7.2-4.3 5.4-9.7-.8-2.5-.5-5.3-.8-7.9-.9-8.1 2.6-15.5 3.9-23.4-1.2.1-2.1-.1-2.3.2-5.7 8.3-13.8 14.3-19.8 22.4-7 9.5-16.5 16.3-25.6 23.5-1.2 1-2.9 2.3-4.6 1.3-2.2-1.3-1-3.4-.6-5.3 1.1-5.2 3.3-10.1 3-15.6-.2-3.7-2.2-4.8-5.3-3.2-3 1.5-5.7 3.5-8.7 4.9-8.9 4.2-15.7 3.3-22.6-3.6-3.8-3.8-6.7-5.3-11.9-1.5-6.3 4.7-6.9 4.4-12.8-1-3.3-3-6.7-4-10.9-3.7-2.7.2-5.3.2-8 .1-8.4-.1-11.2-2.7-12-11.2-.7-7.3-1.3-14.5-2-21.8-.5-5.1-2.1-6.1-6.3-3.6-4.8 2.9-9.4 6.3-13.9 9.6-3.4 2.6-6.8 4.9-11 5.4-2-4.4.7-6.9 2.6-9.5 4.4-6.2 9.1-12.3 13.4-18.6 4.6-6.7 4.4-6.8-3.1-8.7-2.2-.6-4.8-1-6.4-2.5-5.7-5-10.7-3.3-16.2.4-6.6 4.4-12.8 9.3-20.3 12.5-5.4 2.3-8.4.9-10.7-4-3.5 3.8-6.5 6.9-9.4 10.1-12.6 13.8-24.1 28.3-30.2 46.4-1.1 3.3-4.4 6.9-1 10 2.8 2.6 7 1.3 10.4 0 1.6-.6 3-1.4 4.5-2.1 9.2-3.9 18.2-8.1 27.6-11.6 5.4-2 7.5-.4 8 5.2.4 4.6.5 9.4-2 13.6-1.2 1.4-.7 3.3-2 4.3zm-105.2-107.9c-1 1.7-2 3.5-3.1 5.2-5.1 7.3-12.5 11.5-20.5 15.2-11.2 5.2-20.9 12.8-30 21.2-16.3 15.3-30.8 32.2-46.1 48.5-7.5 8-14.2 16.6-21.1 25.1-1.6 2-4 4.2-2.8 8.1 9.4-4.8 15.5-12.5 22.7-18.8 27.2-23.6 55.1-46.1 87.9-61.5 4-1.9 6.3-4.6 7.1-8.9 2-11 5-21.8 8.7-32.4-.9-.5-1.8-1.1-2.8-1.7z"/><path id="sd1" fill="#281d18" d="M1260.5 1021.5c.6 10.6 1.7 27.9.9 38.5-.5 6.6 1.3 10.6 2.4 17.3.7 4.2-.3-1.5 1.9 11.3-1.3.2-2.5 0-3.6-.5-.7-.7-1.5-1.5-1.8-2.5.2-.6 0-1.2-.6-1.5-.4-.8-.9-1.5-1.5-2.2l.1.1c-1.4-.9-1-2.9-2.2-3.8v-.1c-1.1-1.1-.7-2.9-2-4-1.1-1-.6-2.9-2.1-3.7l-.1-.2c-.4-.9.4-1 0-1.8l.3-.5c-.7-.5-1.2-.8-.9-1.2.2-.4-1.1-.6-.8-.6 1.6-1.3 1.4-2.8.5-4.4-9.8-17.4-15-36.9-25.2-54-7.1-11.9-12-30.5-20.1-41.8 19-4.3 22.1-2.4 39-15.5 3.1-2.4 14.6-12 19.8-10m-147.9-317.7c-11.1 30.5-22.4 61-27.1 93.3-1.8 12.4-5.9 23.8-7.5 36.3-1.7 13.1.8 43-1.5 56-1.9 10.5-3 11.3.8 40.4 3.4 25.9 2.8 52.9 10.6 78 4.1 13.3 5.9 29.9 11.6 42.5 12.3 27.3 22.5 52.6 40.2 78.2 4.7 9.2 13.9 17.9 19.3 26.7 4.2 6.7 4.1 3.7 8.1-2.8 12.3-19.7 28.9-38 48.9-51.1 2.9-1.9 9.5-2.8 7.9-5.6-.7-1.2-1.3-2.3-1.8-3.6-5.1-13-16.4-28.2-20.3-41.8-.7-2.4-7.1-.6-9.1-.4-8.1.9-15.9-.2-23.7-1.1-6.3-.7-14.9-3.2-21.9-8.9 9.4.4 18.2 5.3 25.8 5.6 17.7.6 35.1-1.7 52.4-4.7 4.8-.8 9.5-2.5 13.9-5.2 11.2-7.1 23.4-12.3 31.8-22.7 7.3-9 15.3-17.4 22.1-26.9 4.8-6.6 6.7-13.5 6.9-21.2.1-4.3-.2-8.7.4-13 2.1-14.8 2.7-29.7 3.6-44.5-1.1.8-2.3 1.4-3.2 2.3-14.9 14.5-31.8 22.3-53.5 20.1-14.9-1.5-27.6-6.9-39.9-14.2-17.8-10.7-32.6-25.2-46.4-40.5-11.8-13-21.3-27.8-28.3-44.1-6.5-15-11.7-30-13.2-46.6-1.2-14-1.6-27.6 0-41.5 1.3-11.8-3.7-34.8-2.8-46.7-3.1 2.1-2.9 4.3-4.1 7.7zM954.6 881c.1-.4-6.2-.8-6.9-1.1-.6 1.2-1.6 2.3-1.6 3.5-.1 12-.5 23.8-2 35.8-1 8.2 3.7 24.1 3.9 32.3.2 11.4 3.5 21.7 7.6 31.7 2.8 6.8 11.2 22 18.3 27.2-.4-4.1.3-22.3.3-25.5.2-19.9 20-16.5 8.3-53 1.8-10.1-.1-24.9 2.3-34.8.5-2.2 3-7.1 4.5-8.8 4.6-5.2 5.3-6.7 10.5-11.3 21.2-18.8 41.8-31.4 70.2-36.2 4.7-.8 11.2.3 11.1-4.2-.5-24.6-1.7-55.3 1.6-79.8 2.4-17.3 3.6-36.2 7.1-53.5 8.5-42.1 26.2-71.3 47-108.8 6.5-11.6 13.9-22.7 22.5-32.8 12-14.2 25.2-29.6 39.7-41.5 17.8-14.5 41.9-35.1 62-46.3 1.6-.9 3.9-1.2 4-4.1-10.5-3.9-34.2-9.8-45.2-12.1 1.2 1.8 4.7 5.3.4 8.2-11.3 7.6-22.1 15.7-33.3 23.4-12.4 8.5-24.1 18-33.9 29-15.2 17.1-28.2 35.8-37.2 57.2-13.5 32.4-28.2 64.4-38.9 98-9.2 29.2-16.9 58.5-15.4 89.6.6 12.8-5.9 24.3-10.6 36-.9 2.3-3.3 4.3-5.5 5.7-5.6 3.7-10.7 7.8-15.9 11.9-19.8 15.3-37.6 32.4-52.7 52.5-4.9 6.6-10.5 12.9-18.4 16.5-5 2.3-4.8-.7-4.5-4 .5 0 .6-.2.7-.7zm136.9 71.8c6.6-.3 5-5.8 3.7-12.3-1.3-6.5-3.2-12.5-4.3-19.1-2.7-17-7.9-35.1-7.6-52.5.1-4.2-2-10.8-2.7-15-.5-3 .1-14.1-2.6-13.4-4.8 1.2-16.4 3.3-21 4.9-24.4 8.3-50.9 26.5-68.1 45.8-5.5 6.2-9.1 26.7.2 32.7 2.2 1.4 9 6.1 11.1 7.5 23.2 15.5 47.8 18.6 74.5 21.8 2.1.1 14.8-.3 16.8-.4zm329.5-73.4c8.7-20.9 19.7-40.7 30.7-60.5 8.5-15.4 17.8-28.8 27.5-43.5 12.7-19.1 26.3-37 39.8-55.5 19.5-26.5 41.1-53.5 65.4-76 3.9-3.6 6.6-7.4 9.6-11.9-1.3.3-2.7.3-3.8.9-25.7 13.2-50.1 28.3-73.4 45.4-5.3 3.9-10.4 7.8-14.3 13.6-7.9 11.8-16.8 23-25.5 34.2-13.3 17.2-23.4 36-29.8 57-6.6 21.9-14 43.5-20.4 65.5-3.2 11.1-7.3 22-8.8 33.5 1.1-.9 2.5-1.6 3-2.7zm-368.3 71.4c-21.9-4.1-43.4-11.4-61.5-25.9-3.6-2.9-6.9-8.5-6.6 8.2-.7 2.5.4 4.6 1.1 6.7 3.5 60.7 19.8 57.7 34.5 70.4 6.8 9.1 14.3 9.5 25.4 13.1 10.8 3.5 21.2 23.3 26 36.3 5.2-9.3 7.3-29.9 3.9-36.7-7.5-15.1-12.7-30.4-7.3-47.1 2.2-6.8 16.9-14.3 19.7-22.3-8.9.6-27.8-1.3-35.2-2.7zm716.2-95.2c1.4-7.5 4.9-64.6 5-72 7.4-12.7 5.8-32.7 7.5-56.4 1.5-4.6-3.5 4.4 3 4 6.7-.4.6-2.3.6-2.3 7.9 20.1 20.7 38.8 30.2 58.2 4.5 9.2 8.6 18.7 12.5 28.2 12.8 31.3 24.8 62.9 34.6 95.4.6 2.1 4.6 14.1 8.8 14.8 1-6.6 8.5-22.7 8.5-29.5-1.1-.9.7-2 .6-3.5-2.6-24.9-9.2-48.9-17.3-72.4-15.5-44.8-36.7-86.9-64.5-125.4-4.5-6.2-8.4-13.2-15.7-17.9-5.3 37.7-15.4 73.8-16.8 111.8-1.7-1.2-12.7-3.7-13.7-4.4.2 6.8 13.7 65.5 16.7 71.4zm-236.3 5.4c8-11 15.9-22 24.3-32.8 18.3-23.6 36.7-47 55.2-70.4 15-19 31-30.6 48.3-47.7 3.6-3.5-2.7-1 2.3-.5 0-1.7 9.1-15.2 9.5-16.8 3-13.9 6.1-27.8 9.1-41.7.6-2.6 1.8-5.5-1.3-8.5-2.7 5.6-7.2 8.7-10.3 13-15.8 21.3-33.8 40.9-51.4 60.6-11.9 13.4-22.9 27.5-35.4 40.4-5.9 6.1-12.3 12.3-16 20.2-10.9 23.1-21.7 46.3-31.8 69.8-2.7 6.3-7.3 12.1-7.1 19.5 2.4-1 3.2-3.2 4.6-5.1zM1336 874c2-2.7 2.7-3.5 3.1-4.3 17.5-33.5 37.2-66.3 54.5-99.9 10.8-21 22.1-40.9 36.9-59.2 2.9-3.6.1-1 5.6-.5-1-2.1 3.6-10.3 4.3-12.8 1.1-4.1 2.3-8.3 2.9-12.5 1.2-8.3 4.4-16.5 1.9-25.3-5.8 1.8-7.3 7.1-10.4 10.8-18.1 21.6-35.6 43.7-49.5 68.5-16 28.6-28.7 58.4-37.9 89.8-1.7 5.7-3.3 11.5-5.9 16.9-1 2.1-1.2-.8-1.7-1.5-2.3 9.1-3.9 18.4-3.8 30zm358.3-83.6c11.5-17.4 16.7-37.2 27.1-55.2 2.7-4.7 5.8-8.7 10.7-11-3.4-2.8-4-6.6-4.1-10.8-.2-7.9-2.9-15.2-5.8-25-7.8 11-15 20.1-18.6 31-3.6 11-7.6 21.9-11.3 32.9-7.1 21.1-15.5 41.6-24.2 62.1-2.4 5.7-28.2 50.8-28 57.5 53-66.5 44.7-67.3 54.2-81.5zM1021 705c-7.4 9.3-13.7 24.7-22 33.2-18.4 18.7-38.4 38.9-59.8 54.3-9.3 2.4-4.1 9.5-3.5 11.8 2.4 9.8 9.8 39.5 14.2 50.5 5.3-12.5 11.8-39.8 17.5-49.8 4.8-8.4-4.4-2.5 3.7 2.7 1-.8 13.4-13.1 14-14.1 12.6-20.9 25.4-41.8 37.5-63 4-7 5.6-27.9 5.7-36.7-3.3 1.9-5 8.2-7.3 11.1zm141.8-281c-7.8 3-27.9 2.4-42.3 19.5 13-.7 41.1 3.5 51.8 2.6 9-.8 21 4.9 29.8 6.1 22.2 3.2 43.5 9.5 65 16.4 8.2 2.6 18.8-11.4 28.5-13.1-16.4-10.3-36.3-24-52.7-29.7-26.8-1.3-53.5-1.3-80.1-1.8zM971.9 554.1c-6.7-.2-13.1 1.6-19.5 3.1-4.6 1.1-18.6-.5-20.4 4.1-5 12.5-8.7 42-4.2 59.2 9-11.3 25.4-23.3 36.9-31.7 11.8-8.6 29.6-26.8 42-34.5-11.6 0-23.2.1-34.8-.2zm-47 213.9c2.5.2 18.4-17 19.8-19 9.2-12.7 17.1-25.1 13.8-44.2-1.6-9 1.5-19.5-4.1-26.9-12.4-16.3-25.6-40.5-31.3-60.7-3.9 1.3-12.5 7-14.7 9.5 4.8.2 8.4 9.9 9.1 12.6 2.7 11.3 9 20.4 16 29.3 5.1 6.5 10 13.1 14.2 20.3 11.3 19.5 8 29-6.2 40.7-15.9 13.2-16.6 13.6-30.7-2.6-2-2.3-3.3-5-6.8-5l-3.9 2.1c15.7 20.6 17.1 37.7 24.8 43.9z"/><path fill="none" stroke="#000" stroke-linecap="round" stroke-linejoin="round" stroke-width="6" d="M1148.3 958.3c19.7 7.6 38.8 10.1 57.3 7.5 34.6-4.9 66.8-27.8 96.8-68.6 1.7-95.2 14.7-164.8 39-209 .6 88-9.4 166.3-30 235 50.1-102.4 91.4-173.8 124-214-28.2 74.9-48.6 162.9-61 264.1 51.7-123.2 119-229.9 202-320.1-33.9 76.6-56.2 158.9-67 247 44-71.2 94.4-134.6 151.1-190-.8 57.3-9.5 114.7-26.1 172 38.5-46.7 68.2-98.7 89.1-156 21.2 32.2 36.9 83.2 47 153 0-48.4 4.3-99.5 13-153 30.7 54 59.1 122.4 85 205 41.9-129.6 30.2-254.6-35-375-52.1-73.3-129-118.6-230.6-135.8-113.6-19.2-215.8-7-306.5 36.6-9.5 4.8-18.7 9.8-27.6 15-133.2 77.8-195.7 198.5-187.6 362.2 1.4 43.4 7.2 83 17.3 118.6 14.1 49.7 36.7 91.9 67.8 126.5 13.8-24.2 33.4-44.2 59.1-60m-111.1-536.2c-15.9-15-32-24.5-48.2-28.5-.1 0-.2 0-.3-.1-28.1-6.9-56.7 2.6-85.6 28.6-21.3 19.5-46.4 36.7-75.5 51.5-20.1 15.9-33.8 38.7-41 68.6 12.7-19.9 35.5-34.4 68.4-43.3 6.6-1.8 13.7-3.4 21.1-4.8 14.1-3.9 31.6-3.9 52.5 0m-143.5 50.5c.3-.5.5-.9.8-1.3l.7-1.1m162.6 91c-60.9 99.5-116.6 128.8-167 88 23.4 4.4 44 .8 61.8-10.8-.3-16.6-8.4-33.5-24.4-50.6-19.9-21.2-22-45.5-6.3-72.8 8.1-14.2 18.6-24.8 31.5-31.9m-.9 155.3c11.8-7.8 22.4-19.1 31.8-34.1 9.1-32.3 8.2-54.1-2.7-65.3-28.2-38.6-34.2-76-18-112.2m134-105.2c17.3-4.8 35-7.8 53-9.1 3.6-13.4 30.1-23.6 79.8-30.4 37.4 2 69.9 16 97.5 41.9M952.8 737.3c7.7-12.3 14.5-27 20.5-44.1 19.3-52.3 43.6-83.3 73-93m72.8-154.7c47.7-3.4 97.6 5.4 149.7 26.5M983.1 914.4c22.6 41.4 115.4 38.4 115.4 38.4-26.4 10.3-36.2 27.8-29.2 52.5 11.6 25.8 11.6 46.5 0 62 .6-21.4-9.4-36.7-29.9-46-35.5-16-52.6-36.1-51.1-60.1-11.4-.5-15 18.1-11 56-20.5-25-31.8-54-34-87-.2-28.2 2-51.3 6.4-69.3l-17.4-63.7m273.2 168.6l58.8 124.5c-6.1-51.2-6.1-101.2 0-150m-314.7-79.4c1.1-4.5 2.4-8.7 3.8-12.6l16.8-46.2m18 159.1S973 905 994 884.5s67.5-48 86.5-43.5"/></svg>