<svg xmlns="http://www.w3.org/2000/svg" id="hair" viewBox="0 0 3000 3000"><path id="cl1" fill="#7D7D7D" d="M821.699 624.801c-.3 25.1 1.801 52.899 6.301 83.6-27 39.1-54.9 85-83.601 137.6C695.1 925.1 717.5 996.6 811.6 1060.4l40.1 49.1c53.2 49.101 62 134.601 26.301 256.5 22.699-27.8 41.5-64.199 56.3-109 1-4 1.8-8 2.5-12l1.2.2c80.6 81.5 115.8 134.3 105.6 158.4 35-25.101 38.2-67.5 9.6-127.2-26.3-33.6-29.699-67.2-10.399-100.8l69.6 63.2c-11.5-88.601-41-158.301-88.7-209.301-44.899-101.399-42.5-181.8 7.101-241l56.899-58.399-2.399-6.5c.1 0 .199-.101.3-.101-2.9-9.699-5.1-19.1-6.7-28.399-7.5-44.601.8-84 25-118 2.601-3.8 5.5-7.4 8.5-11l-17.6-52c-1.7-8-4-15.3-6.601-22-23.399-58-82.5-66.4-177.399-25.3-58.203 20.1-87.903 72.7-89.104 158.001M1492.3 431c-4-.399-8-.699-11.9-1-11.899-.199-23.5-.1-34.899.4-104.801 4.2-190.4 37.8-256.9 100.8 2 2.4-1.8 6-11.4 10.8L1130 596.4l-3 .5c3.199 15.5 3.6 35.4 1.399 59.5-.399 6.3-1 12.3-2 18.1-4.6 27.9-16.2 50.101-34.8 66.7-.4 1.5-.9 3-1.3 4.5-6.5 24.4-7.4 50.9-2.7 79.5-5.2 40.9 11.3 87.3 33.6 139.2 29.5-11 47.5-22.6 70.101-34.9 16.3 47.301 37.699 93.601 64.3 138.9 20.2-104.5 29.2-176.5 27-216 14.5-17.6 28-48.4 40.4-92.4 2.399 3.301 5 6.601 7.8 10 73.6 50.601 148.6 54.4 224.8 11.2 80.6-14.3 151.8-5.8 213.6 25.601 43.5 35.1 71.2 92.5 83.2 172 .3-2.5.601-5 .8-7.5l2.301.3c37.1-89.9 46.8-169.4 29.1-238.601 0-.1-.1-.199-.1-.3-3.2-12.6-7.4-24.8-12.5-36.7-2.601-6.1-5.4-12.1-8.5-18-21.4-48.199-51.5-98.3-90.4-150.399C1686 472.6 1592.4 440.4 1492.3 431m590.5 292.7c-1.7-3.1-3.4-6.2-5.2-9.2l4.8-2.8c-4.8-128.8-34.5-204.2-89.2-226.399-25.5-21.7-78.899-16.101-160.399 16.8-12.8 5.2-26.3 11.1-40.4 17.6 23.8 18.101 42.7 43.2 56.8 75.3 5.7 13.101 10.601 27.4 14.601 42.801 1.5 5.8 3 11.8 4.3 17.899l8.3 38.601 18.5 22.199c30.101 41.7 35.9 93.9 17.601 156.801-14.4 61-19.5 111.5-15.4 151.5l3.4-.301-2.4 8c-14.3 91.301-36.7 176.101-67.2 254.4 31.7-29.1 56.4-60 74.301-92.7l9.699 155.101 68.801-99.2 48.8 96.8c3.8-105.899 35.5-198.199 95.2-276.8 52.899-78 63.399-143.1 31.3-195.2l-20.1-21.2C2120.699 832.7 2102 789.301 2082.8 723.7z"/><path id="sd1" fill="#5A5656" d="M821.1 625c-.4 25 1.7 52.9 6.3 83.5 68.6-99.699 131.4-155.699 188.3-168 23.301-5.6 43.801-2.199 61.801 10.2-17.2 41.8-25.5 88-24.801 138.5-48.3 1.8-114.5 64-198.6 186.5-3.9 5.7-7.9 11.601-11.9 17.601-1.1 1.6-2.1 3.199-3.2 4.8-.8.8-8.6 12.1-23.5 34-14.899 21.899-16.399 64.7-4.5 128.3l40.101 49.2c53.2 49.1 62 134.5 26.3 256.5 22.7-27.8 41.5-64.2 56.3-109 14.101-58.8 5.101-122.101-27.1-189.9-28.7-50.6-45.9-96.7-51.601-138.3 29.4-64.5 70.9-117.6 124.5-159.3 37.001-23.3 64.501-35.5 82.301-36.5-29.2 14.8-57.801 39.6-85.9 74.6-53.2 56.7-60.4 118.8-21.6 186.4l88 181.6 69.6 63.2c-11.5-88.6-41-158.4-88.7-209.4-44.899-101.399-42.5-181.8 7.101-241l56.899-58.3-2.399-6.5c.1 0 .199-.1.3-.1-2.9-9.7-5.1-19.101-6.7-28.3-7.5-44.601.8-84 25-118 2.601-3.801 5.5-7.5 8.5-11l-17.6-52c-1.7-8-4-15.301-6.7-22C1020.4 471.4 931.6 515.7 821.1 625M1484 436.2l-4.301-6c-11.899-.2-23.5-.1-34.899.3-52.101 29.2-89.4 60.7-111.801 94.601-14.399 1-31.6 1.3-51.699 1.1-27.4-2.5-58.5-.8-93.4 5.2 2 2.4-1.8 6-11.4 10.8l-15.1 17.4c53.2-12 105.3-16.7 156.3-13.9-20.899 32.2-33.699 66.8-38.5 104-62.3 26-112.8 28.3-151.5 6.8-.399 6.301-1 12.4-2 18.2l47.2 17.4c14.9 5 32.7 5 53.6 0 15.7-1.7 31.5-6.2 47.2-13.601-1.3 22 2.2 42.4 10.5 61.2-27.2 3.4-53 19.8-77.3 49.101-10.4 12.5-21.601 22.199-33.8 29.199-40.5-10.1-68.301-34.1-83.5-72.1-6.5 24.4-7.4 50.9-2.801 79.4-5.199 40.899 11.301 87.3 33.601 139.2 29.5-11 47.5-22.601 70.2-34.801 16.3 47.301 37.699 93.601 64.3 138.801 20.2-104.5 29.1-176.5 27-216 14.5-17.601 28-48.4 40.399-92.4 2.4 3.3 5 6.6 7.9 10 73.6 50.6 148.6 54.4 224.8 11.2 80.601-14.3 151.8-5.8 213.601 25.6 43.5 35.101 71.199 92.5 83.199 172 4.4-36.2 3.101-70.5-3.899-103-22.3-40.899-40.4-65.399-54.101-73.5-35.6-27.7-74-45.3-115.199-52.8-41.301-18.4-110.4-5.3-207.2 39.2-56.5 15.6-106.101-5.7-148.8-64 37.8 23 74.1 28.899 108.8 17.6 14.3-4.1 28.6-12.1 43-24.2-52.101 23.301-110.8 12.601-176.101-32.1 3-19.1 6.7-36.6 11-52.5 2.9-10.6 6-20.4 9.5-29.6 40.9 26.399 89.101 36.1 144.601 28.899C1548 615.699 1600.5 603 1620.799 595c-24.899-3.2-50.1-2.601-75.6 1.8-94.7 16.3-165.8 9-213.2-21.8 7.9-14.5 17.2-28.5 27.7-42.301 3.4-4.399 6.9-8.8 10.6-13.1l2.5 4.9c61.601-34.5 162.9-34.5 303.7.1-59.6-31-114.6-46.8-164.899-47.6-46.8-7.399-55.901-20.999-27.6-40.799m593 278.3l4.8-2.8c-8.9-20.2-18.8-38.1-29.601-53.7-20-25.8-46.5-45-79.6-57.6-54.4-14.6-101.1-47.3-140.3-98.3-12.801 5.2-26.301 11-40.5 17.5 23.8 18.1 42.699 43.2 56.8 75.3 5.7 13.1 10.6 27.4 14.7 42.8 1.5 5.8 2.899 11.7 4.3 17.8l8.3 38.7 18.5 22.101C1924.5 758 1930.3 810.2 1912 873.1c-14.4 61.1-19.5 111.6-15.301 151.6l3.301-.399c22.5-57 38.699-121.301 48.8-192.801 8.6-61.899-3.4-103.199-36-123.899v-26.5c27.5 11.3 50.399 33.3 68.8 66 24.2 36.399 35.7 96.6 34.3 180.5-29.399 61.5-59.7 135.1-91.1 220.8-5.3 15.6-12 30.8-20.101 45.7l9.7 155.1 68.8-99.2c-13.899-34-15.8-70.5-5.6-109.5 24.6-74.899 42.2-155.699 52.8-242.5 18.501-108-23-188.399-124.5-241.1-1.699-17.1-9.699-36.3-23.899-57.6C1975.3 614.7 2040.3 653 2077 714.5z"/><path id="hl1" fill="#BBB" d="M1260 568.801c9.6-10.801-.7-17.301-30.801-19.601l-32.6 31.101c-28.8 9.3-40.2 21.6-34.2 36.899 28.101 9.3 33.4 23.4 16 42.4 13.2 7.6 10.4 19.5-8.399 35.6 18.199 6.5 14.6 19.3-10.801 38.4 25.5 7.6 31.801 20.1 18.801 37.6 26.899 13.8 63.1 11.8 108.8-6-26.9-.7-48.9-5.399-66-14-4.2-2.8-4.2-5.6 0-8.399l34-24c-27.4-2-38.2-23.101-32.4-63.2 9.5-8.5 12.101-13.9 7.601-16.4-11.101-3-15.101-7.8-12-14.399L1260 568.801M1550 636c32.6-1 48.8 1.7 48.5 8l-64.5 29.301 34-8c-8.7 4-19.301 8.5-31.801 13.3-4.699 1.8-9.699 3.7-15 5.7-8.3 10.6-25.8 26.3-52.5 47 77.801-48.801 77.801-40 0 26.399 73.7-47 129.7-66.7 168-59.2-14.199-9.6-8.3-9.6 17.601 0-19-20.199-7.7-25.5 33.899-15.899-26.5-17.8-31.399-25.3-14.8-22.5-29.9-22.9-15.8-28.5 42.4-16.8-60.301-32.101-56.9-40.101 10.399-24-32.199-18.5-20-18.5 36.801 0-51-38.2-51-45.601 0-22.4-17.101-12.3-18.4-18.6-4-19 0 0 39.8 31.4 4.1-4.1-76.7-66.801-135.3-74.2-135.3-74.2 82.3 39.3 75.6 49 6.8 23.3 47.5 28.5 39.7 38.5-23.6 30 46.3 24.2 38 33.5-24.801 28C1642.4 595.7 1630.3 614.1 1550 636m467.199-43.199c1.2-8.4-5-17.4-18.699-27a148.031 148.031 0 0 0-7.7-5h11.2c6.199-6.601-3.301-19.7-28.4-39.2h36c-27.9-19.4-68.7-24.2-122.4-14.4L1856 529.6c43.6 27.2 90.8 51.6 141.6 73.2-4.6-8.4-13.6-19.301-26.8-32.801 15.5 13.601 30.899 21.201 46.399 22.802M911.8 517c65.2-38.6 77.2-39.3 35.8-2 36.2-13.3 70-27.199 101.2-41.8l-3-6.6c-16.301-12-48.9-12-98 0-21.801 8.899-37.4 19.899-46.9 33.2 49.1-21.9 52.799-16.1 10.9 17.2m36.6 90.2l-3.399-4c-24 19.5-45.2 41.9-63.801 67.3l43.601-21.199-82 87.6 46.399-32c-38.5 40.7-63 72.9-73.6 96.4l41.6-34.801c-28.2 34.301-49.4 69.9-63.6 106.801 92.2-70.2 155.8-132.7 190.8-187.601-7.399 2.7-35.8 21.101-85.2 55.2 12.4-19.3 30.2-39.7 53.2-61.2 54.9-60 49.3-65.3-16.8-16 24.9-24.7 52.8-46.8 83.6-66.399 8.1-25.101-15.501-21.701-70.8 9.899M2162 988.801c-11.2-9.9-19.4-25.5-24.4-46.801-17 50.7-24.3 45.101-22-16.8-11.5 21.7-19.1 21.7-22.8 0-5.5 26.601-13.7 11.2-24.8-46.399l-10.801 118.8c33.4-43.7 37.7-36 12.801 23.2 49.399-48.301 63.6-40.301 42.8 24 10.6-26.601 27-45.201 49.2-56z"/><path id="cl2" fill="#AB7F39" d="M1112.4 566.801c-3 3.6-5.899 7.3-8.5 11.1-24.2 34-32.5 73.4-25 118 1.601 9.2 3.8 18.7 6.7 28.3.7 2.2 1.4 4.4 2.1 6.7 1.2 3.7 2.5 7.4 3.9 11.1 18.6-16.6 30.2-38.8 34.9-66.6.899-5.8 1.6-11.9 2-18.2 2.199-24.1 1.8-43.899-1.4-59.399-2.901-13.602-7.8-23.902-14.7-31.001M1868 656.5c-1.301-6.1-2.7-12.1-4.301-17.899-4.1-15.4-9-29.7-14.6-42.8-14-32.2-33-57.301-56.8-75.301l-19.2 8c38.9 52.101 69 102.2 90.4 150.4 9 17.4 16 35.7 20.899 54.7l-8.2-38.5-8.198-38.6z"/><path fill="none" stroke="#000" stroke-linecap="round" stroke-linejoin="round" stroke-width="6" d="M1792.4 520.5c14.2-6.5 27.7-12.399 40.5-17.5 81.4-33 134.8-38.6 160.3-16.899 54.7 22.2 84.5 97.7 89.301 226.5 0 .8 0 1.7.1 2.6.1 3.101.2 6.2.3 9.4 19.2 65.7 37.9 109 56 130l20.101 21.2c32.1 52.1 21.6 117.199-31.301 195.199-59.701 78.6-91.401 170.9-95.201 276.801L1983.699 1251l-68.8 99.2-9.7-155.1c-17.899 32.7-42.6 63.6-74.3 92.7 30.5-78.301 52.9-163.101 67.2-254.4-.3-2.5-.6-5-.9-7.6v-.2c-4.199-39.9.9-90.4 15.4-151.5 18.3-62.9 12.5-115.101-17.6-156.8l-18.5-22.2 8.199 38.5c0 .1.101.2.101.3 17.7 69.2 8 148.7-29.101 238.6-1 2.4-2 4.801-3 7.301-12-79.5-39.699-136.9-83.199-172-61.801-31.4-133-39.9-213.601-25.601-76.2 43.2-151.2 39.4-224.8-11.2-2.8-3.399-5.4-6.699-7.8-10-12.4 44-25.9 74.801-40.4 92.4 2.2 39.5-6.8 111.5-27 216-26.5-45.3-47.899-91.5-64.3-138.8-22.6 12.3-41.7 23.9-71.1 34.8-22.301-51.9-37.801-98.3-32.601-139.2-4.7-28.6-3.8-55 2.8-79.5.4-1.5.801-3 1.301-4.5-1.4-3.8-2.7-7.5-3.9-11.1l-56.9 58.3c-49.6 59.3-52 139.6-7.1 241 47.7 51 77.2 120.8 88.7 209.4l-69.601-63.2c-19.3 33.6-15.899 67.2 10.4 100.8 28.6 59.7 25.4 102.101-9.6 127.2 10.199-24.1-25-76.9-105.601-158.4-1.2 4-2.5 8-3.8 11.9-14.8 44.8-33.5 81.1-56.3 108.9 35.7-121.9 26.899-207.4-26.3-256.4-2.801-2.6-5.801-5.2-8.9-7.6m1006.103-507.199c11.5 1.1 22.601 2.6 33.301 4.399 93.5 15.2 158.5 53.601 195.199 115.101 1.801 3 3.5 6.1 5.101 9.199M1130 597.301l47.199-54.4 11.4-10.8c66.5-63 152.1-96.601 256.9-100.8 11.399-.5 23-.601 34.899-.4 4 .3 8 .6 11.9 1 100 9.4 193.7 41.6 280.899 96.6l19.2-8c23.8 18.101 42.7 43.2 56.8 75.301 5.7 13.1 10.601 27.399 14.601 42.8 15.2 5.899 29.399 12.3 42.5 19.2 101.5 52.699 143 133.1 124.5 241.1-10.601 86.8-28.2 167.7-52.8 242.6-10.2 39-8.301 75.5 5.6 109.4M1128.4 657.301c38.7 21.5 89.2 19.199 151.4-6.801 5.399-2.199 15.399-7.6 30-16.1 2.899-10.6 6-20.4 9.5-29.6 4-10.601 8.399-20.3 13.2-29.101 7.899-14.5 17.199-28.5 27.699-42.3 3.4-4.399 6.9-8.8 10.5-13.1-8.899 2.6-21.3 4.399-37.1 5.5-14.4 1-31.6 1.3-51.7 1-27.399-2.5-58.5-.8-93.399 5.2 2 2.399-1.801 6-11.4 10.8m193.7-22.498c10.2-12 21.399-23.7 33.6-35l76-54.4M1087.6 826c32.5 9.301 61.3 6.9 86.3-7.3 12.2-7 23.4-16.7 33.8-29.2 24.301-29.3 50-45.699 77.301-49.199 8.199-1.101 16.6-.9 25.1.399-10.2-19-14-37-11.3-53.899 3-19.101 6.7-36.601 11-52.5m.299 106.5c3.5 6.6 7.8 13.3 12.9 20.1m-24.2-74.1c65.399 44.8 124.1 55.5 176.2 32.199 8.199-3.699 16.3-8.3 24.3-13.699 5.1-3.5 10.1-7.301 14.8-11.301 58.8-40.3 123.8-40.3 195.2 0 59.5 26.5 102.1 74.5 128 144 4.7 12.601 8.5 25.5 11.3 38.7 6.5 30.2 8 62 4.8 95.5-.3 2.5-.5 5-.8 7.5m-520.1-404c47.399 30.8 118.5 38.101 213.199 21.8 25.5-4.399 50.7-5 75.601-1.8 67.399 8.8 132.399 45.5 195.1 110.3 49.1 58.7 62.1 147.5 39 266.4m8.2-293.599c-59.8-68.801-122-120-186.6-153.5-59.601-31-114.601-46.801-164.9-47.601-42.1-.7-78 1.8-107.7 7.5m459.4 153.4c1.5 5.8 3 11.8 4.3 17.899l8.3 38.601c14.4 2.399 26.7 6.899 37 13.5 32.601 20.7 44.5 62 36 123.899-10.1 71.5-26.3 135.801-48.8 192.801m-16.1-291.8c-4.9-19-11.9-37.3-20.9-54.699-21.4-48.2-51.5-98.301-90.4-150.4M1905.1 1195c8.1-14.899 14.8-30.1 20.1-45.699 31.4-85.7 61.7-159.3 91.101-220.8 4.899-10.2 9.699-20.101 14.5-29.601M851.699 1110.4l-40.1-49.2c-94.1-63.8-116.5-135.3-67.2-214.399C773.199 794.2 801 748.301 828 709.2c-4.601-30.699-6.7-58.5-6.301-83.5 1.2-85.3 30.9-138 89-158 94.801-41.1 153.9-32.699 177.4 25.301 2.7 6.699 4.9 14 6.6 21.899l17.601 52c6.899 7 11.8 17.4 14.6 31 3.2 15.5 3.6 35.3 1.4 59.4-.4 6.3-1 12.399-2 18.2-4.601 27.899-16.301 50.1-34.9 66.6m12.5-164.2c2.601-3.8 5.5-7.5 8.5-11.1M828 709.2c68.6-99.7 131.399-155.7 188.399-168 23.3-5.6 43.8-2.2 61.8 10.2 9.301 6.4 17.9 15.2 25.801 26.5-24.2 34-32.5 73.4-25 118 1.6 9.2 3.8 18.7 6.699 28.3.7 2.2 1.4 4.4 2.101 6.7m-2.2-6.599c-.1 0-.2.1-.3.1-7.7 2.5-15.4 5.6-23 9.5-29.2 14.8-57.801 39.6-85.9 74.6-53.2 56.7-60.4 118.801-21.6 186.4l88 181.6m-231.2-115.2c-11.9-63.7-10.4-106.5 4.5-128.3 14.9-21.9 22.7-33.301 23.5-34.101 1.1-1.6 2.1-3.2 3.2-4.8 4-6 8-11.9 12-17.6 84.1-122.601 150.3-184.801 198.5-186.5 9-.5 17.5 1.5 25.6 6m112.4 234.4c33.399-18.2 63.8-43.9 91.2-77.2m-258.801 177.101l.7 1.6M854.8 876.5c-2.101 16.801-1.8 34.601.8 53.301 5.7 41.699 22.9 87.8 51.6 138.3 30 63.1 39.9 122.399 29.7 177.8-.7 4-1.6 8.1-2.5 12.1"/></svg>