<svg xmlns="http://www.w3.org/2000/svg" id="hair" viewBox="0 0 3000 3000"><path id="cl1" fill="#B97838" d="M1508 399c277-10 311 126 327 161 87 143 56 320 51 356s-51 125-50 111 18-261 18-261-46 175-41 127c-21-118-65-151-65-151l-10-190 5 183-40 178-28-325 14 162-80 249-76-239-7-10-20 161-32-222c-1 5-107 262-157 311-19-193 65-368 70-418-8 27-75 226-72 336 0 66-4.4 311.1-4.4 311.1s-49.2-37-70.6-99.1c-73-256 40-532 15-484-72 283-20 472-20 472l-18.5-9S1143 953 1135 936s-47.2 2.4-47.2 2.4S1050 844 1049 860c-79 191-131 251-124 233s-6-75-15-101-20-87-16-101-3-11-3-11-53 51-48 50 23-96 23-156 9-109 15-123 6-18 6-18l-31 6s95-85 116-93 46-9 103 14c42 103-27 325-15 289s45-189 23.6-288.9c204-211.5 405-163.5 405-163.5l61.5 33S1491.4 402 1508 399zm303.3 111.6c152.7 256.4 56 461 51.9 470.1S1896 1155 1896 1139s17.4-209 17.4-209 60.5 44.5 49.5 33c-24.5-45-10-136-10-144s5.5-51 7-28 13.2 24 13.2 24-.2 43-.2-30 7-188-73-277c-36-40-81 0-81 0l-7.6 2.6z"/><path id="sd1" fill="#94602D" d="M891 617l54-22s-55 64-80 133c-2-41 17-96 22-95s-33 10-33 10l17-20 20-6zm54 81s-21 50-27 81-42 96-50 117 31.5-21 31.5-21l-3.5 26.9s28-29.2 49-203.9zm-14.3 388.7C990 1018 1034 868 1054 853.3c0 2.7 28.7 96 34.7 87.3 6.3 18 21.3 42.8 21.3 52.8 49 108 116.7 145.7 116 141s6.8-4.9 8.5-22c-18-97.3-20.5-199.8-19.2-221.2s28.7-202.7 28.7-202.7L1169.3 948l-37.3-42 19.3-24-23.3-10.7 18-56.3-19.3-5-3.3-56 50-53.3-58-16.7 67.3-44.7-62.7-26 55.3-126-14 10c-26 14.7-38.2 39.9-82.7 73.3-60.7-7.3-110.7 16-88.7 14s55 6.6 65.3 18c-60 40.7-80 94.7-79.3 90.7s75.3-52.7 75.3-52.7-52.7 86-44.7 71.3 74-47.3 74-47.3v66s-8.7-58-7.3-27.3C988.7 982 921.8 1018.7 922 1020.7c8.7 35.3.7 59.3 8.7 66zM1384 585l-108 295 16-8s-1.9 284.5 19.1 333.5c7-62 4.4-205.8 4.4-205.8S1350 983 1477 687c2-20 23 167 23 167l-15-225-167 313s-3.5-72.1 10.7-142.1S1384 585 1384 585zm228 413l-63-361-21 110 84 251zm63.6-403s-22 270-30.8 292.5 43.4-146.3 43.4-146.3L1675.6 595zm59.4-35l7.8 168s73.9 113.1 69.6 161.6c-.7 11.4 14.6-30.6 14.6-30.6s-6-192-92-299zm101 462s0 5 18.7-31.3 10-278.7 10-278.7l-10 46.7L1836 1022zm-26-510s58.7 101.3 71.3 152 23.3 191.3-14.7 309l2.7 25s24-22.7 48-173.3c.7-46-7.3-116-8.7-124.7l15.3 12-36-75 36 10.3c.1 0-92.6-133.3-113.9-135.3zm-302-113s-4.7 8.3 7.3 9 47.3 28 66 46.7c5.3-3.3 7.3-53.3 7.3-53.3L1508 399z"/><path id="hl1" fill="#CE9147" d="M962.7 767.3c4-7.3 11.3-22.7 11.3-16s-3.8 46.7 4 43.2c19.8-18.9 19.3-30.5 16.7-6.5s-16 28-1.3 21.3c28.7-16 40-36.7 40-32.7s-4 46-30.7 92.7-12.7 10-1.3-21.3-2.7-16-2.7-16-54 58-46 42.7c16.7-52 10.7-66.7 10.7-66.7S930 843.3 930 840s28.7-94 28.7-94 0 28.7 4 21.3zm332.6-94.6s-3.3-52-23.3-4-18.7 88.7-16.7 94 29.3-46.7 29.3-46.7l-2 30 8.7-20.7 4 34.7s12-37.3 22-48.7 29.3-58 28.7-70.7-41.1 45.3-45.9 54.7 6.5-32 6.5-32l-11.3 9.4zM1238.7 898s-20.7 44-12 102c1.4 7.9 20.7-20.7 20.7-20.7s5.9 41.3 6.9 48.7 11.1-19.3 11.1-19.3 10.7 80.7 12 84.7 14-62.7 0-135.3c-6-12.7-13.3 12.7-14 18.7s-8.7-44-14.7-48.7-1.3 8-1.3 8-4.1-35.4-8.7-38.1zm-3.7-413.3s-10 2-9.7 4.3-17.3 46.3-17.3 46.3 19.3-7.7 39.3-29.3c7-6.7 14-5 9.7 4s-14.7 31.7-13.3 35.7 17-3.7 25-12 11.3-9 8.7 2-9.3 37.3 6.7 27.7 26.3-17.3 28-1.7 10.3 13.9 26 3.8 16.7 6 19.3 7.8 29.3-18.6 31.7-20.2 8.3 6.7 21-4.7c10.3-6.7 9.3-12 3-11s-17 1-17 7.7c-3.3-3.3-9-5-14.7.7 0 0-4 3.2-4.7-4.2.3-3-10.2 3.5-12 4.2-6.3.8-9-8.2-13.3-9.7s-19.2 3.5-21.3 4.8c0 0-6.3-2.2-7.8-11.8.3-4.3-12.5 1.3-15.5 3.2s-3.8-6.8-4.3-11.8-6.8-6.7-13.2-3.7-3.5-5.5-3.2-9.8 1-10-10.8-5.8-11.5 2.5-7-7.3 8.5-18.2-3.2-13.3-26.2 10.3-26.2 10.3-1.8-5.7-2.8-5.8-1.1-.4-1.1-.4zm284.7 73c-.5 1.3-6-44.3-13.7-20-7.7 24.3-5.3 50.3-3.3 54.3-.7 15.3 22-18 39-22.3 10.3-3.3 12.3.3 17.7 8s11 32 31.7 3.3c15.7-20.3 26.3-12 28.7-7.7s13.7 21.3 24.3-8c5.7-18.3 15.7-11.7 20-9.7s24.3 19.7 29-10c3-16.3 17-20.7 29.7-12.3s27.3 22.3 12.7-7.2c-2.1-4.4 14 8.9 15 9.5s9.3 3 8-6.7 7.7 4 7.7 4 3.3-8.3 3.3-10.7 11.7 10.7 14 13 10 3.7-5.7-25.3c-8.3-7.3-11.3 0-11.3 0s-11.7-9.7-13.3-.7c2.7 29.3-15.7-18-24-1.7-2 9.3-16.5-54.2-21-15.7-1 9.7 0 29.3 0 29.3s-12.7-14.7-19.7-11.7 1 11 2.7 13.7-21.7-12.4-22.7 11c-7.7-7-19.7-23.7-15.7 5.3-2.3 1-21.7-20.7-26-9.3 0 0-3 29.7-10 30-9.2 7.9-34.7-51.7-39.7-59.7s-12.7-30.7-17 13.3c-2.1 25.6-1.7 41.7-1.7 41.7s-19.3-25.5-25.7-17.9c-6.4-1.5-7 11.8-13 20.2zm372.3-25s-19.3-9.3-22.3-2.3-1.3 5.5-5.7 7.4 6 22.9 14 29.3 29.7 31.7 34 35.3-1.7-32.3-3.3-37.3 15.3 17 19.7 17.3-2.3-11-2.7-14 11 12 1.7-10-49-51-55-50.3 19.6 24.6 19.6 24.6z"/><path fill="none" stroke="#000" stroke-miterlimit="10" stroke-width="6" d="M1508 399c277-10 311 126 327 161 87 143 56 320 51 356s-51 125-50 111 18-261 18-261-46 175-41 127c-21-118-65-151-65-151l-10-190 5 183-40 178-28-325 14 162-80 249-76-239-7-10-20 161-32-222c-1 5-107 262-157 311-19-193 65-368 70-418-8 27-75 226-72 336 0 66-2 313-2 313s-51.6-38.8-73-101c-73-256 40-532 15-484-72 283-20 472-20 472l-12.5 18.6s-55.1-33.6-96.5-115.6c-22-31-37.3-80.3-37.3-80.3S1050 844 1049 860c-79 191-131 251-124 233s-6-75-15-101-20-87-16-101-3-11-3-11-53 51-48 50 23-96 23-156 9-109 15-123 6-18 6-18l-31 6s95-85 116-93 46-9 103 14c42 103-35.1 331.3-23.1 295.3s53.1-195.3 31.7-295.1c204-211.5 405-163.5 405-163.5l61.5 33c0-.1-58.7-27.7-42.1-30.7zm303.3 111.6c152.7 256.4 56 461 51.9 470.1S1896 1155 1896 1139s17.4-209 17.4-209 60.5 44.5 49.5 33c-24.5-45-10-136-10-144s5.5-51 7-28 13.2 24 13.2 24-.2 43-.2-30 7-188-73-277c-36-40-81 0-81 0l-7.6 2.6z"/></svg>