<svg xmlns="http://www.w3.org/2000/svg" id="hair" viewBox="0 0 3000 3000"><path id="cl1" fill="#EDE57C" d="M1005.05 893.301c-.617.099-1.233.198-1.851.3-35.854 20.892-63.471 53.125-82.85 96.7-20.074 45.196-31.291 102.579-33.65 172.149-.777 22.687-.611 46.67.5 71.95l31.2-50.4 1.7.301c-23.106 125.239-10.873 250.473 36.7 375.699-13.685-57.218-14.034-107.584-1.05-151.1 7.038 30.187 17.722 62.087 32.05 95.7 20.869 48.948 49.47 101.549 85.8 157.8-23.928-67.354-33.261-138.054-28-212.1 1.393-19.46 3.793-39.16 7.2-59.101l.75-.2c7.527 26.554 16.878 52.221 28.05 77-5.902-100.491-6.119-200.774-.65-300.85a2665.617 2665.617 0 0 1 21.45-220.75 306.28 306.28 0 0 0-3.3-3.85c-.408-.471-.825-.954-1.25-1.45-.018.001-.034-.016-.05-.05a89.977 89.977 0 0 1-.7-.75c-31.577-35.393-62.261-51.06-92.049-46.998m927.05-41.151a296.988 296.988 0 0 1-2.7 6.25c-22.881 51.972-52.948 87.172-90.2 105.6 2.836 18.762-1.164 41.428-12 68 17.404 35.492 32.255 70.725 44.551 105.7 49.957 142.189 57.773 280.289 23.449 414.3 42.598-92.392 64.998-189.559 67.2-291.5 1.403-63.331-4.997-128.514-19.2-195.55-.102-.457-.201-.924-.3-1.399-.429-1.979-.862-3.963-1.3-5.95a230.618 230.618 0 0 1 4.2 5.3c28.362 37.307 48.828 91.273 61.399 161.9 26.99-93.587 30.99-173.737 12-240.45-14.886-52.336-43.919-96.402-87.099-132.201m-415.25-121.8a271.625 271.625 0 0 1 4.25 4.2c37.387 37.582 71.67 87.549 102.85 149.899a895.295 895.295 0 0 1 13.551 28.351c2.842-38.367.826-76.667-6.051-114.9 22.554 15.147 43.087 43.197 61.601 84.15 7.156 15.806 14.007 33.522 20.55 53.149 5.568-67.772-.698-129.756-18.8-185.95 24.739 19.781 48.339 59.281 70.8 118.5.229.623.463 1.24.7 1.851 8.605 22.892 17.038 48.691 25.3 77.399a1502.4 1502.4 0 0 1 10.8 39.4c12.106-49.428 19.14-95.812 21.101-139.15L1839.199 964a329.845 329.845 0 0 0 3.65-5c-.747.395-1.497.777-2.25 1.15 14.567-19.568 26.617-39.535 36.15-59.9a6904.28 6904.28 0 0 0 8.199-20c1.492-4.324 2.976-8.658 4.45-13a278.299 278.299 0 0 0 8.851-39.649c2.298-15.338 3.265-30.888 2.899-46.65-.897-40.768-10.614-82.95-29.149-126.55a1089.423 1089.423 0 0 0-3.9-8c-113.947-229.87-287.314-302.137-520.1-216.8-108.586-8.969-199.77 63.298-273.551 216.8a946.287 946.287 0 0 0-12.85 28 1316.11 1316.11 0 0 0-3.15 12.1c-18.444 73.536-23.428 132.887-14.949 178.051l1.899-1.2c7.366 6 14.05 11.899 20.05 17.7 7.167 6.934 13.35 13.717 18.551 20.35 9.133 11.6 15.183 22.717 18.149 33.35.101.301.184.601.25.9l-2 1.7c.029.102.063.201.101.3.082.318.166.618.25.9.867.151 1.734.285 2.6.399 56.406 8.395 109.606 2.961 159.6-16.3 39.215-15.102 76.448-38.718 111.7-70.85A1679.794 1679.794 0 0 1 1333 930.2a159.378 159.378 0 0 1-2.101 3.601 1679.618 1679.618 0 0 1-67.8 109.449c159.013-100.029 242.379-203.096 250.1-309.199.171-2.281.305-4.565.4-6.851a235.707 235.707 0 0 1 3.2 3.101l.051.049m301.15 492.6l-.301-.05-39.899 48.15v.5c0 1.633-.017 3.283-.05 4.949a31.77 31.77 0 0 0-.051.7v.5c-.533 36.667-4.55 80.15-12.05 130.45 26.901-66.865 44.351-128.598 52.351-185.199m-539.051 46.9L1242.75 1246c23.299 73.768 51.467 130.484 84.5 170.15-20.701-42.8-36.801-91.566-48.301-146.3z"/><path fill="#483407" d="M1045.4 863.35l-1.899 1.2-38.9 25.199c30.771-5.059 62.488 10.975 95.15 48.101l.649-.5 2-1.7a8.63 8.63 0 0 0-.25-.9c-2.967-10.633-9.017-21.75-18.149-33.35-5.201-6.633-11.384-13.416-18.551-20.35-6.001-5.8-12.684-11.7-20.05-17.7m853.65-35.65v.05a262.992 262.992 0 0 1-9.65 39.5 2871.971 2871.971 0 0 1-4.45 13 7199.599 7199.599 0 0 1-8.199 20c-9.533 20.365-21.583 40.332-36.15 59.9a99.32 99.32 0 0 0 2.25-1.15c35.331-18.26 64.098-51.844 86.3-100.75.927-2.023 1.844-4.09 2.75-6.199a325.438 325.438 0 0 0 1.601-3.75c-10.434-8.667-21.701-16.851-33.801-24.551a137.21 137.21 0 0 1-.651 3.95z"/><path id="sd1" fill="#DFBF5C" d="M1821.75 1133.45c-5.367 37.9-24.834 51.767-58.4 41.601 9.666 24.333 14.233 58.583 13.7 102.75l40.399-54.9c.467-3.267.9-6.517 1.301-9.75 3.333-27.834 4.333-54.401 3-79.701m-307.551-406.2l5.7-1.199-13.7-63.601c6.733 43.334-5.066 93-35.399 149-30.367 56-99.384 133.283-207.05 231.851 158.967-100.033 242.316-203.101 250.05-309.2.167-2.267.3-4.55.399-6.851M988.25 1503c-9.2-54.5-13.667-100.833-13.4-139-7.867 13.601-14.084 28.051-18.65 43.351 7.033 30.166 17.716 62.049 32.05 95.649m27.4-295.8v80.4c1.5 81.6 11.634 135.316 30.4 161.149 1.399-19.5 3.8-39.216 7.2-59.149l.8-.2c-18.134-64.1-25.601-133.366-22.4-207.8l-16 25.6m-54.701-164.05l-1.3-40.75-72.5 158.45c-.767 22.7-.6 46.684.5 71.95l31.2-50.4 1.7.35c8.601-46.567 22.067-93.1 40.4-139.6m141.901-98.349c-34.1-40.467-67.167-58.066-99.2-52.801-35.866 20.9-63.483 53.15-82.85 96.75 20.5-20.199 44.383-37.383 71.649-51.55 2.167 41.5-1.3 75.5-10.399 102 13.533-23.666 29-43.8 46.399-60.399l-8 119.6v40.4c13.2-22.067 23.867-54.601 32-97.601l10.801 48c7.6 20.3 13.666 45.767 18.199 76.4a2648.218 2648.218 0 0 1 21.401-220.799m228.5-12.551l2.1-3.6a1728.306 1728.306 0 0 0 41.7-78.4c-35.3 32.101-72.55 55.7-111.75 70.801-27.733-19.733-30.583-48.084-8.55-85.051 116.4-67.566 165.367-127.35 146.9-179.35-63.734 73.334-134.867 135.517-213.4 186.55-42.934-9.7-63.301-34.1-61.1-73.2l110.449-172.199c-51.9 48.267-92.767 99-122.6 152.199-36.767-4.133-55.483-25.833-56.15-65.1-18.833 74.967-23.666 135.2-14.5 180.7 7.367 6 14.051 11.899 20.051 17.7 7.166 6.934 13.35 13.717 18.55 20.35 9.133 11.6 15.183 22.717 18.149 33.35.867.134 1.733.268 2.601.4l-.95 7.4c18.934 69.967 53.367 123.283 103.3 159.949 9.5 49.834 20.4 94.801 32.7 134.9 11.934 14.467 23.5 24.467 34.7 30l2.5-5.65c-4.067-20.267-7.517-41.333-10.351-63.199-6.166-47.634-9.434-99.084-9.8-154.351v-4.7c-.066-16 .116-32.316.55-48.949l-.399-2.5c30.633-6.733 55.733-26.083 75.3-58.05m293.05-49.35a934.48 934.48 0 0 1 13.601 28.3c2.799-38.366.766-76.666-6.101-114.899-8.933-49.7-32-90.917-69.2-123.65 23.867 31.5 42.45 73.15 55.75 124.95 8.166 30.799 10.15 59.233 5.95 85.299m308.15-32.349c-23.2 55.399-54.167 92.683-92.9 111.85 2.833 18.767-1.167 41.434-12 68 17.4 35.5 32.25 70.75 44.55 105.75l9.851-140.55 30 46 4-50.8 18 15.199 5.2-24.8 9.699.101c-.767-17.634 3.467-40.733 12.7-69.301 19.333 15.601 38.667 39.184 58 70.75-14.9-52.333-43.933-96.4-87.1-132.199m-98.4 70.849l5.5 41c32.333-43.434 52.033-88.9 59.101-136.4 2.266-15.333 3.232-30.883 2.899-46.649-19.034 72.899-41.534 120.249-67.5 142.049m-42.05 24c3.6 12.566 7.184 25.7 10.75 39.4 12.1-49.434 19.133-95.816 21.1-139.15 1.834-40.9-.833-79.083-8-114.55-1.233 83.534-9.184 154.967-23.85 214.3m-96.85-197.7c-12.434-38.666-30.484-74.566-54.15-107.7 50.3 113.867 67.783 194.034 52.45 240.5 7.133 15.768 13.966 33.467 20.5 53.101 5.566-67.767-.7-129.734-18.8-185.901m-271.2-318.1c-15.333 2.2-28 9.667-38 22.399-7.067-.766-15.601 3.367-25.601 12.4-13.366-5.166-33.767-5.166-61.199 0-32.334 7.867-59.533 17.867-81.601 30 30.934-5.434 63.467-5.3 97.601.4l-56.801 54 97.2-27.601 43.2 99.601 6.4-82.801 76.399 51.2c-8.1-25.533-22.366-49-42.8-70.399 21.867-10.533 50.666-18.134 86.4-22.801-8.5-12.199-33.967-19-76.4-20.399 16.767-9.134 39.967-17.134 69.6-24-34.166-14.333-73.232-12.333-117.199 6 5.968-11.365 13.568-20.699 22.801-27.999z"/><path id="hl1" fill="#FBF9B7" d="M1080.4 1177.85l-.25-38.15c-2.7-5.047-6.083-26.014-10.149-62.899-33.429 76.021-44.229 78.154-32.4 6.399-29.653 48.323-39.92 43.124-30.8-15.6-28.405 39.748-33.338 34.948-14.8-14.4-29.263 47.676-36.863 40.109-22.801-22.7l-5.199-4-30.801 39.9L920 1048l-26 102.4c12.277-12.863 24.194-22.146 35.75-27.85l.149-.051a8.33 8.33 0 0 0 .25-.149 85.382 85.382 0 0 1 4.9-2.15l-2.2 8.2c4.949 15.352 6.532 35.752 4.75 61.2 23.223-29.438 32.023-12.639 26.4 50.399 30.477-72.855 43.677-75.122 39.6-6.8 5.648-21.137 14.715-34.753 27.2-40.85 5.444-21.421 14.378-13.938 26.8 22.45 1.907-29.018 9.507-41.334 22.801-36.949m525.2-553.45c-.043 7.39.156 14.723.6 22 1.27 19.883 4.402 39.35 9.4 58.4 8.652 15.938 18.119 27.805 28.4 35.6-10.42-47.656-2.154-52.189 24.8-13.6-.117-38.178 12.683-39.91 38.399-5.2 1.904-46.981 15.638-50.315 41.2-10-3.85-20.534.95-34.269 14.4-41.2 73.966 85.274 85.382 77.274 34.25-24a890.317 890.317 0 0 0-4.25-8.4c1.743 2.707 3.443 5.323 5.1 7.851.118.19.235.374.351.55 49.69 75.774 64.157 78.191 43.399 7.25a516.723 516.723 0 0 0-2.2-7.25 768.536 768.536 0 0 0-4.25-13.6L1850.9 651l5.351-4.6c-10.401-22.979-22.484-44.047-36.25-63.2-53.935-67.533-61.401-58.066-22.4 28.4-36.773-35.296-44.107-29.029-22 18.8-38.699-36.094-49.232-33.694-31.6 7.2-50.738-39.498-67.537-36.831-50.4 8-41.556-30.085-55.789-29.818-42.7.8.227.525.46 1.059.7 1.6L1632 627.6v36l-26.4-39.2m401.099 398.1c-2.505-6.854-5.205-13.286-8.1-19.3-17.667-38.506-35.334-61.706-53-69.6 17.695 26.388 25.229 58.454 22.6 96.2 24.664 53.747 35.131 52.214 31.4-4.601 1.186-.439 2.368-.89 3.55-1.35l3.55-1.25a.203.203 0 0 0 0-.099m-63.099-35.199c-8.725-9.852-14.458-11.152-17.2-3.9v30.8c-20.668-20.934-30.335-27.268-29-19 5.626 15.466 8.759 29.8 9.4 43-9.923-2.859-20.339-10.826-31.25-23.899l5.05 16.3-14-19.8 12.2 32-4.2 2.199c13.359 24.784 23.96 52.584 31.8 83.4 5.667-23.2 9.2-47.816 10.601-73.85 0-.334.016-.667.05-1l.1-2.101v-.399c0-.467.017-.95.05-1.45l12 26.399c-5.448-45.007 2.419-52.273 23.601-21.8 7.569 11.974 12.703 3.841 15.399-24.399-8.712-19.616-16.912-33.783-24.601-42.5M1380.15 836.5l16.2-29.699c-24.451 8.92-47.102 11.986-67.95 9.199 37.366-22.65 35.099-30.251-6.8-22.8 22.544-26.462 17.561-39.462-14.95-39-29.218 7.519-29.168-3.081.15-31.8-45.251 3.625-56.851-5.175-34.8-26.4-50.137 10.551-60.003-.783-29.601-34-35.562 6.682-47.763 1.482-36.6-15.6 4.151-6.366 11.552-14.383 22.2-24.05h-14.45l-17.2 18.1c-6.096-6.505-.346-22.388 17.25-47.649L1166.4 610c16.524-13.637 27.991-29.104 34.4-46.399 1.944-4.767 1.277-7.967-2-9.601-14.696.213-28.297 4.079-40.8 11.601-25.201 24.243-45.335 51.176-60.4 80.8-7.533 14.796-13.8 30.263-18.8 46.4 15.215-19.45 35.215-33.583 60-42.4-17.128 16.934-28.328 33.867-33.601 50.8l67.95-34.2L1137 715.2c88.869-37.256 94.137-22.989 15.8 42.8 71.807-31.889 79.54-21.223 23.2 32 92.669-33.589 101.603-22.389 26.8 33.601l45.95-21.65c54.799-8.805 60.016 3.212 15.649 36.05 50.612-12.572 58.746-3.906 24.4 26 32.464-6.994 38.997-2.061 19.6 14.801 27.596-10.883 51.513-24.984 71.751-42.302m68.65-11.3c14.231-30.9 6.231-29.167-24 5.2l7.2-31.2-12.801 18-4.399-19.6c-11.515 34.435-28.714 65.769-51.601 94 11.761-1.899 22.828-9.499 33.2-22.8 8.604-1.537 8.604 5.529 0 21.199 14.238-.765 31.972-12.364 53.2-34.8-10.164 17.214-13.497 26.548-10 28 6.385-7.724 11.951-15.857 16.7-24.399a.052.052 0 0 0 0-.051 155.51 155.51 0 0 0 10.899-24.35c16.025-45.57 9.892-48.637-18.398-9.199m-490.15 523.05l10.2 27.75c19.045-22.782 31.162-21.049 36.35 5.2 3.525-28.639 8.459-27.705 14.801 2.8 3.822-22.819 1.557-53.353-6.801-91.6-2.821-14.98-9.088-21.78-18.8-20.4-3.764 13.642-6.497 23.108-8.2 28.4-1.696 5.33-3.18 9.13-4.449 11.4-1.243 2.27-3.293 5.27-6.15 9L970 1283.2c-9.689 9.422-16.356 20.355-20 32.8l-9.6-32.4c-10.531 30.443-13.731 66.844-9.6 109.2l27.85-44.55z"/><path fill="none" stroke="#000" stroke-linecap="round" stroke-linejoin="round" stroke-width="6" d="M1284.6 477.75l72.8 14.4 29.601-42.4m60.799 233.6c-21.233 56.467-45.134 111.35-71.7 164.649a1726.771 1726.771 0 0 1-41.7 78.4l-2.1 3.6a1705.284 1705.284 0 0 1-67.8 109.45l.05-.05c158.966-100.033 242.316-203.1 250.05-309.2.166-2.267.3-4.55.4-6.85l3.25 3.149c1.433 1.4 2.866 2.817 4.3 4.25 37.366 37.534 71.633 87.5 102.8 149.9 4.6 9.167 9.133 18.6 13.6 28.3 2.801-38.366.768-76.666-6.1-114.899-8.934-49.7-32-90.917-69.2-123.65a275.145 275.145 0 0 0-9.45-7.85m78.65 131.502c22.566 15.133 43.117 43.199 61.65 84.199 7.133 15.768 13.967 33.467 20.5 53.101 5.566-67.767-.701-129.733-18.801-185.9-11.833-36.8-28.75-71.1-50.75-102.899-1.133-1.601-2.267-3.2-3.399-4.801a315.624 315.624 0 0 0-4.65-6.399M1815 720.15c.666 2.867 1.3 5.767 1.899 8.7 7.167 35.467 9.833 73.649 8 114.55l15.7 116.75c32.333-43.434 52.033-88.9 59.1-136.4 2.268-15.333 3.233-30.883 2.9-46.649-.934-40.767-10.667-82.95-29.2-126.55-1.3-2.7-2.601-5.367-3.899-8-113.933-229.868-287.301-302.134-520.1-216.801-108.6-8.967-199.767 63.301-273.5 216.801a916.728 916.728 0 0 0-12.899 28c-1.067 4.066-2.101 8.1-3.101 12.1-18.833 74.967-23.667 135.2-14.5 180.7 7.366 6 14.05 11.899 20.05 17.7 9.7-46.033 26.566-90.467 50.601-133.301 20.3-36.199 45.716-71.266 76.25-105.199 14.3-15.934 29.75-31.601 46.35-47 .9-.867 1.817-1.733 2.75-2.601m658.298 230.8c12.1 7.7 23.367 15.884 33.801 24.551 43.166 35.8 72.199 79.866 87.1 132.199 19 66.7 15 146.851-12 240.45-12.556-70.57-32.997-124.487-61.325-161.75l-.075-.1a136.447 136.447 0 0 0-4.199-5.351c.433 2 .866 3.983 1.3 5.95.1.467.2.95.3 1.45 14.2 67 20.617 132.167 19.25 195.5-2.233 101.934-24.65 199.1-67.25 291.5 34.333-134 26.517-272.083-23.45-414.25-12.3-35-27.149-70.25-44.55-105.75 10.833-26.566 14.833-49.233 12-68 38.733-19.167 69.699-56.45 92.9-111.85M1696.199 745.45c24.733 19.733 48.334 59.233 70.801 118.5.232.601.467 1.2.699 1.8 8.6 22.9 17.051 48.7 25.351 77.4 3.6 12.566 7.183 25.7 10.75 39.4 12.1-49.434 19.133-95.816 21.1-139.15m-2.701 288.75c1.334 25.3.334 51.867-3 79.7-.4 3.233-.833 6.483-1.3 9.75-.062.44-.119.882-.175 1.325-7.993 56.604-25.435 118.346-52.325 185.225 7.5-50.3 11.517-93.783 12.05-130.45 0-.399.018-.8.051-1.2.02-1.665.036-3.314.05-4.949a45.938 45.938 0 0 1 0-.525c.097-41.532-4.487-73.957-13.75-97.275M1152.6 972.15c12.7 5.434 24.883 9.684 36.55 12.75 25 6.533 47.616 7.583 67.851 3.15 30.633-6.733 55.732-26.084 75.3-58.051M1045.4 863.35l-40.8 26.399c30.771-5.059 62.496 10.982 95.175 48.125a278.492 278.492 0 0 1 4.025 4.676 66.517 66.517 0 0 0-1.4-6.9 8.63 8.63 0 0 0-.25-.9c-2.967-10.633-9.017-21.75-18.149-33.35-5.201-6.633-11.384-13.416-18.551-20.35m36.7 53.7c.866.134 1.733.268 2.601.4 56.399 8.367 109.6 2.917 159.6-16.35 39.2-15.101 76.45-38.7 111.75-70.801M1188.6 986.551a2126.666 2126.666 0 0 0 4.8 34.3c4.167 28.533 8.733 55.75 13.7 81.649 9.5 49.834 20.4 94.801 32.7 134.9a892.415 892.415 0 0 0 2.675 8.6c23.323 73.764 51.498 130.48 84.525 170.15-20.686-42.799-36.795-91.565-48.325-146.3a18.68 18.68 0 0 0-.125-.65c-.534-2.467-1.05-4.95-1.55-7.45-4.067-20.267-7.518-41.333-10.351-63.199-6.167-47.634-9.433-99.084-9.8-154.351v-4.7c-.066-16 .117-32.316.55-48.949m-.549 53.649c2.566-1.6 5.117-3.183 7.65-4.75m-160.7-96.899c32.966 39.633 62.833 65.733 89.6 78.3M1084 901.4c37.266-18.967 72.366-39.116 105.3-60.45 78.533-51.033 149.667-113.216 213.399-186.55M1207.1 1102.5c-49.934-36.666-84.367-89.982-103.3-159.949a2648.239 2648.239 0 0 0-21.4 220.8c-5.5 100.033-5.3 200.3.601 300.8-11.167-24.767-20.5-50.434-28-77-18.134-64.1-25.601-133.366-22.4-207.8m-58.402-168.001a896.279 896.279 0 0 0-12.3 29.55c-18.33 46.492-31.797 93.018-40.399 139.575v.024c-23.101 125.2-10.867 250.417 36.699 375.65-13.699-57.233-14.05-107.583-1.05-151.05 4.567-15.3 10.783-29.75 18.65-43.351M1004.6 889.75c-35.867 20.9-63.483 53.15-82.85 96.75-20.067 45.167-31.283 102.534-33.65 172.101-.767 22.7-.6 46.684.5 71.95l31.2-50.4m37.35 224.949c7.033 30.167 17.717 62.05 32.05 95.649 20.867 48.934 49.467 101.534 85.801 157.801-23.934-67.367-33.268-138.051-28-212.051 1.399-19.5 3.799-39.216 7.199-59.149"/></svg>