<svg xmlns="http://www.w3.org/2000/svg" id="hair" viewBox="0 0 3000 3000"><path id="cl2" stroke="#000" stroke-miterlimit="10" stroke-width="6" d="M1733.9 1500l65.9-6.9s.1-46.5-.5-69.3c0-97.4 11.7-98.5 11.7-98.5s27.8 121.6 31.6 166.4c18.7-2.2 121.7-25.7 121.7-25.7s-26.4-143.4-28.2-165.1c-1.8-21.7-8.8-141 6.8-322.3S1879 641 1879 641s-35-88.4-193.1-181c-157-84.1-327.9-30.4-327.9-30.4s-204.5 44.8-268 220.4c0 0-71.2 126.1-40 297.7 31.2 171.6 51.1 190.9 51.1 190.9s-46.3 248.8-73.1 279.4c52.8-21.3 84.3-121.2 93.8-166.3 9.8-20.3 12.3 33.6 12.3 33.6s6.3 206.6-4.2 222c16.1 12.7 179.2 6.4 179.2 6.4s22.6-70.5 24.8-74 43.5-56.4 112.1-49.7c38 8 23.9-33.2 23.9-33.2l-.9-21.5-102-2-93.3-87.2L1219 1144l42.3-16.8 116.2 29.4-81.5-232 58.2-11.7s-1.6-66.4-3.5-86.7c-3.5-37.3-7.1-41-7.1-41l7.5-3.5 12.3 32.7 24.8 77.7s89.9-.2 89.7-4.7-6.3-159.8-6.3-159.8l7.5 7.5 42 97-7.6-67.8 58.6 92 89-2.4 19-198.3.1 59 26.8 115.8 9.1-57.8 8-2.5 18.6 86.3 102.4-16.8-.3 79-1.8 72.4-23.4 125.1 56.9.4-60.8 107.6-46.7 135.5-35.1 140.4"/><path id="cl1" fill="#32255D" d="M1770 1492.1c-7.1 2.5-14.6 2.9-21.9 4-1.7 2-4.4 2.3-6.5 3.7-.6.4-1.4.8-2.1 1.1-1.2-.5-2.4-1.2-3.7-.1-.8.1-1.4-.1-1.9-.7l-.1-.2c-1-1.2-.7-2.9-1.9-4.1-.8-.7-1.6-1.5-1.8-2.7.2-.7-.1-1.1-.7-1.4-.4-.7-.9-1.4-1.5-2.1l.1.1c-.8-.6-1.6-1.3-1.9-2.4l.2.2c-1.7-.6-1.1-2.8-2.5-3.6l-.1-.1c-.5-.8-1.1-1.4-1.8-1.9l-.1-.1c-.5-.7-1.1-1.4-1.9-1.9l-.1-.1c-.5-.7-1.1-1.4-1.9-1.9l-.1-.1c-.5-.7-1.1-1.4-1.9-1.9l-.1-.1c-.5-.7-1.1-1.4-1.9-1.9l-.1-.1c-.4-.7-1-1.2-1.8-1.6-.3-.6-.7-.8-1.3-.7-1.2-.3-2.1-1-2.5-2.2l.2.2c-1.1-.3-1.7-1.1-2.4-1.9l.1.1c-.6-.6-1.3-1.1-2.1-1.5-.3-.6-.7-.9-1.4-.7-1.1-.2-1.9-1-2.7-1.8-.6-.4-.8-1-.5-1.7 6.2-6 6-14.5 8.2-21.9 7.9-26.6 15.2-53.5 22.8-80.2.1-.4 1-.6 2.2-1.3 3 9.8 5.7 19.5 9 29.1 7.8 22.6 15.9 45 23.7 67.5 1.3 3.7 2.9 7.4 2.6 11.6-.2 2 .2 4.1 1.7 5.6 6.7 6.6 5.4 13.1.4 19.7zm-517.7 20.5c18.8-.1 37.7 1.4 56.5-.9 1.3-.4 2.3-1.2 3-2.3.2-1.1.4-2.3.6-3.4.7-1.3.5-3 1.5-4.2-.2-.7-.1-1.3.4-1.8.8-1.3.6-3 1.5-4.3-.3-.6-.2-1.2.3-1.7 1-1.4.9-3.1 1.6-4.6-.3-.6-.2-1 .3-1.4 1.6-1.8.2-4.5 1.8-6.3-.2-.7-.1-1.3.4-1.8.7-1.4.7-3 1.5-4.4-.2-.6-.1-1.1.4-1.6.2 0 .4-.3.5-.8.1-.5-.2-.9-1-1.2-1.5.5-3.1 1.5-3.7-1.2-3.3-14.6-8.1-28.7-13.7-42.5-5.2-12.8-8.8-26.3-14.8-39-3.8 2.6-3.7 6.6-4.9 9.9-7.6 21.9-14.3 44.1-22.6 65.9-5.6 14.8-10.7 29.9-16 44.9 1.8 2 4 2.7 6.4 2.7zm595.1-402.5c10.3-6.7 21.7-11.9 31.4-19.3 15.4-11.8 28.7-24.8 28.9-47.2.2-19.1 3.9-38.3 6-57.5 3.6-32.7 7.5-65.3 10.2-98.1 0-5.3-.3-10.6 1-14.5-2 11.2-.1 23.9-2.9 36.1-.9 10.5-2.3 21.1-2.9 31.6-1.7 29.8-5.1 59.5-7.2 89.3-1 14.5-5.2 28.8-2 43.5-.8 21.9-.4 43.8-1.4 65.7-1.2 26.5-4.2 52.8-4.7 79.4 0 1.7.1 3.4-.4 5-3.2 11-2.4 22.4-3.1 33.5-2.1 34.8-.1 69.6 3.8 104.3.7 6.2 1.4 12.5 2.2 18.7 1.7 12.4 3.8 24.8 5.4 37.2 2.1 16.4 3.8 32.8 5.5 49.2.2 2.2.8 3 2.8 3 2 .1 4 .1 6 .2 1.3-.1 2.5-.2 3.8-.2 2.4-2 5.7.1 8.1-1.8 3.7.2 7.2-1 10.8-1.8 7.8-1.8 7.7-1.7 6.3-9.9-3.8-22.6-7.6-45.1-11.2-67.7-2.7-16.7-5.2-33.4-7.4-50.2-3.1-23.4-6.3-46.7-6.4-70.4-.1-16.6.4-33.2 1.3-49.8 1.6-28.9 1.4-57.8 2.2-86.8 1-35.6.2-71.3.2-106.9 0-5.3-.2-10.7.5-16 3.6-27.3 5.1-54.7 4.1-82.3-1-29-4.3-57.5-8.2-86.2-4.8-35.2-10.5-70.2-20.4-104.4-5.9-20.4-13.2-40.3-21.9-59.8-3.8-.5-4-4.3-6-6.5-26-35.1-60.2-59.9-99.7-77.6-35.3-15.8-72.5-23.9-111.1-26.9-49.7-3.9-99.3-3-148 7.7-95 21-186.1 53.3-272.4 98.8-54.7 28.8-106.4 62-154.8 100.4-9.4 7.4-15.4 16-18.2 27.5-6.6 27-16.7 53-23.2 78.1-.5-1.5 3.8-5.7-2.5-7.6-1.4 9 1.2 17.8 1.7 26.6 1.1 20.8 4.5 41.3 7.2 62 1.7 12.4 5 24.6 5 37.3 1.2 1.2 1.7 2.7 1.8 4.4.8 14.7 4.1 29 6.3 43.6 1 1.2.7 3.1 2 4.1 11.5 21.1 26.5 40 39.5 60.2.9.4 1.9.3 2.7-.2 8.7-19.9 16.4-40.3 26.5-55.6-13.2 44.5-24.9 93.3-44.3 139.7-.5 1.7-1 3.5-1.6 5.2-.3.8-.6 1.7-.8 2.5-.5 1.7-1.1 3.3-1.7 4.9-.2.9-.4 1.7-.6 2.6-1.7 4.7-3.2 9.5-3.9 14.5-2.5 6.6-1.8 14.2-6.1 20.3-3.8 10-4.2 20.7-6.7 30.9-8.1 32.2-15.2 64.6-24.6 96.4-1.9 6.5-3.6 13.1-5.4 19.6 4.6-3.4 8.1-7.3 11.1-11.5 21-29 32.5-62.3 43.6-95.7 5.4-16.4 9.6-33.2 14.5-49.7 1-3.4 2.1-7.4 6.7-7.7 5.3-.4 5 4.4 6.5 7.4.7 1.5 1 3.2 1.5 4.8 5.6 18.9 7.7 38.4 8.6 57.9 1.2 24.5.4 49.2 1.9 73.7.8 12.9-.5 25.9-.9 38.8-1 28.2-2.2 56.4-4.4 84.5-1.4 17.8-1 14 13.7 15 6.3 0 12.6-.3 18.8.2 23.7 1.7 47.3 4 71.1 3.5.4-10-1.1-19.9-1.5-29.8-.9-22.6-2.5-45-4.1-67.5-1.2-16.5-3.4-32.9-4.6-49.5-.5-7-1.6-14.2-3-21.6-11 18.6-18 38.9-27.3 58.1-9.5 19.5-18.5 39.4-27.7 59.1-1.7-5.4-3.8-10-3.7-15.2.3-16.9-2.9-33.7-4.5-50.5-.7-7.2-.8-14.5-1.9-21.8-2-12.4-4.1-24.8-5.3-37.3-1.4-14.2-2.8-28.4-4.6-42.4-2.2-17.1-3.9-34.2-5.1-51.3-1.7-24.2-.5-48.5-2.1-72.7-1.6-24.8 1.1-49.7 3.5-74.5 1.4-14.2.8-28.5 1.7-42.8 1.5-23.2.6-46.5 2.4-69.7 1.4-17.8-2.1-35.5-2.9-53.5 4 0 4.7 2.3 4.9 5.2 1.4 1 1 2.8 2 4 1.4 1 1 2.9 1.9 4.1 8.5 18.8 16.9 37.6 25.4 56.3 6.9 15.1 14 30.2 20.9 45.3 10.6 23.3 20.4 46.9 29.6 70.8 1.6 4.2 4 5.8 8.2 5.5 1.7-3.9 4.7-2.4 7.6-1.9 12.7 2.3 25.4 5.2 38.1 7.5 13.7 2.5 27.2 6.3 41.1 8.2 8.8 1.3 12.4-1.9 10.2-9.5-5.1-17.4-4.6-35.6-8.9-53-1-2.9-1.4-6-1.9-9-.2-1.5-.3-3-.6-4.5-1.6-6.5-4.1-12.9-3.6-19.8-1.1-10.3-5.9-19.6-8.9-29.4-8.7-27.8-18.3-55.4-27.4-83.1-2.9-8.7-2.8-8.8 4.5-13.5 1.8-5.4-2.2-9.5-3.2-14.2-11-49.6-25.1-98.3-40.2-146.7 2.9 9 5.9 18.1 9.7 26.8 17.7 40.9 35.7 81.7 49.8 124 2.8 8.5 8 10.7 16 8.2 3.3-.1 6.7 0 10-.2 17.5-.8 16.3 4 15.6-18 0-.3-.1-.7-.1-1-2.6-19.7-4.9-39.5-7.8-59.1-3.5-23.6-7.5-47.1-11.1-70.7-1.2-8.2-2-16.4-2.8-24.7-.2-2.5.6-4.9 3.2-5.5 2.9-.7 5.1.8 6.4 3.5.4.9.6 1.9 1 2.8 19.1 48.9 37.7 97.9 51.4 148.7 4 5.1 9.1 2.9 14 2.1.6 0 1.3 0 1.9-.1 3-3.3 3-7.4 2.4-11.3-1.3-7.9-1.7-15.9-2.7-23.8-3.2-25.1-5.8-50.3-11.4-74.1-.1.3.5 1.5.7 2.8 5.4 26.8 16.6 51.9 23.8 78.2 2.5 8.9 3.5 18.4 9.2 26.2 1.3 1.2 2.7 1.1 4.1.2 8.6-.8 17.5 1.3 25.9-2.1 3.8-4.5 3.1-10 3.1-15.3.2-36.9-4.2-73.8-3.1-110.7v-53.6c0-2.3 0-4.6.2-6.9.3-2.9 1.8-4.9 4.9-5.4 2.7-.4 4.4.9 5.5 3.3 1.1 2.4 2.3 4.8 3.2 7.3 7.5 19.1 14.9 38.2 22.3 57.3 4.8-.6 2.4-3.7 2-6.1.1-5.3-1.8-10.3-3.1-15.3-1-3.8-1-7.1 1.1-10.3 5.6-1.7 6.7-5.8 5.7-10.9-1.9-10.1-2.6-20.4-4.5-25.9 21.2 44.4 41.4 94.3 68.6 140.7.4 3.9 3.8 6.2 4.9 9.6 3.1 9.2 9.7 11.3 18.7 10.1 19.4-2.5 38.9-3.1 58.4-3.9 7.5-5.6 6.2-14.1 6.9-21.9 2-24.7 4.1-49.4 7.2-74 2.5-4.4-.7-9.6 1.9-14 .2-7 1.7-13.8 2.4-20.7 1.5-15.1 3.1-30.3 7.9-45 8.1-8 5.1-18.4 6.3-27.9.1-.6-.2-.8-.8-.6-1.3.5.7-1.2 1 .1-1.6 13.2 1.7 25.7 5.2 38.2.1 2 0 4 .3 6 4 26.9 8 53.8 12.1 80.7 1.3 8.6 3.1 17 4.7 25.8 2.7-1.3 2.8-3 2.7-4.6-.7-16.3 2.3-32.5 2.3-48.8 0-9 2.6-17.8 2.1-26.8-.2-3.3 1.4-5.9 5-6.3 4-.4 6.2 1.5 6.9 5.5.4 2.6 1.3 5.2 1.7 7.8 3.7 28.6 7 57.3 12.3 85.7 2.6 13.7 5.8 27.3 8.8 40.9 1 4.7 3 6.6 8.4 5 6-1.7 12.4-2 18.7-2.9 4-4.5 3.2-10 3.1-15.2-.6-40.6 1.1-81.1.8-121.7 0-6.8 2.9-13.6.1-20.4-.1-.2-.2-.3-.3-.3-1.3.3.8-1.1 1 .2 1.3 7.2-.9 14.3-.8 21.5.7 26.3 1.1 52.5 3.4 78.7 1.4 15.6 3 31.1 5.7 46.6 1.1 6.6 4.3 9.5 11.1 6.8 11.4-1.7 22.8-2.9 34-6 3.7-3.5 4.3-8.1 4.9-12.7 3.9-32.2 12.3-63.5 18.2-95.4.5.2.6.2.7.2-.7.2-1.2.7-1.3 1.4-4.5 23.9-5.8 48.1-7.2 72.3-.5 9.4-2.7 19.3 2.3 28.3 4.4.1 4.5-3.5 4.7-6.2 2-20.8 6.3-41.3 9.5-62-.1-2.7.4-5.3 1.6-7.7.2-1 .3-2 .4-3.1-.6-4.7 2.7-8.7 2.1-13.4-.5-4.1 2.3-7.5 2.1-11.5-.1-1.6 1.1-3.2.8-3.9-1.6 7.3-2.5 15.6-4.4 23.7-.8 4 0 8.3-2.1 12-.3 1.6-.3 3.2-.3 4.8-.2 4.5-1.2 8.8-2.2 13.1-2.5 15.4-4.7 30.9-4.7 46.5-.1 34.8-1.1 69.7-2.1 104.5-1.6 56.2-7 111.9-19.3 166.8-1.1 5.1-4.2 10.9.1 16.2h4c3.9.5 7.1-.8 9.8-2.6zm44.7 366c.6 0 1.3 0 1.9-.1 3-2.4 7 .3 10-2 .4-3.5-1.1-6.5-2.7-9.4-8.3-15.1-16.6-30.2-25-45.2-9.3-16.4-18.9-32.6-28.1-49.1-11.6-20.8-22.7-42-32.5-63.7-.9-2.1-1.2.8-1.7 1.5v1.9c-1.5 4-1.4 8.1-.1 12.1.6 2.6 1.1 5.2 1.9 7.7 7 23.2 13.9 46.4 18.8 70.2 5.2 25.4 9.8 50.8 11.7 76.7.4 6.2 1.1 6.7 7.3 5.8 9.5-1.4 19-3 28.5-4.5 2.9-2.4 6.9.3 10-1.9zm-786.6-791.5c-.4 3.2-.6 7.9 2.9 8.8 4.2 1.1 4.8-3.8 5.9-6.7 7.1-18.3 15.9-35.8 25.7-51.6-7.5 17.8-7.6 37.8-8.5 57.6-.2 3.3-.3 7.6 3.1 8.9 3.9 1.5 6.8-2 9.1-4.8 9-10.9 20.2-19.2 31.8-27.1 31.1-21 65.1-36.4 99.8-50.1 56.5-22.3 114.7-39.2 174.1-51.5 73.9-15.4 148.2-24 224-19.7 42.9 2.4 85.6 6.1 128.1 12.7 3.5.5 7.2 1.9 10.5-.9-10.3-13.3-23.1-23.9-35.9-34.5-26.4-22-55.6-40-86.3-55.5-29.7-15-60.6-27.4-92.8-36.2-43.2-11.7-86.8-18.7-131.9-14.4-21.5 2-42.9 4.1-64.1 8.1-48.3 9.2-94.5 24.2-137.6 48.4-44.3 24.9-83.2 56.1-115.6 95.3-13.6 16.4-25.2 34.2-35.5 52.8-3.2 20-4.6 40.3-6.8 60.4z"/><path id="sd1" fill="#1F173A" d="M1436 1321.7c.3.6.8.8 1.4.5 1.1.3 1.8 1 2.7 1.7l.1.1c.9 1.3 2.9.9 3.9 2.1 1.1 1.1 3 .8 4.1 2h-.1c1.1 1.1 3 .8 4.1 2h-.1c1.1 1.1 2.8.9 4 1.6 1.2.2 2.3.4 3.5.6 1.6 1.1 2.7 2.8 4.6 3.7.3.5.8.7 1.3.3 1.2.3 2 1.1 2.5 2.3-.3.6-.1 1.1.3 1.5 1 1.2.7 3 1.7 4.2-.2 6.6-.7 13.2.3 19.8.6 8 2.4 16-.9 23.8-.7-.1-1.1.1-1.3.8-.7.4-1.4.8-2.2 1.1-1.2.3-2.4.5-3.5.9-.8.3-1.6.2-2.3-.2h-2.1c-1.3.8-2.6.8-3.9 0-2.7-.1-5.3-.2-8-.3-.5-.4-.7-.9-.6-1.4 0-.5.1-.8.2-.7 1.3.2-.2.2.8-.4.7-.4.2-.6-.6-.3-4.5 1.5-9.3 1.2-13.8.7-38.3-3.9-69.3 7.9-90.7 41.2-.5.8-1.3 1.5-1.9 2.3-.4.9-.8 1.8-1.1 2.7l-.2.2c-.8.4-1.4 1-1.8 1.8l-.2.2c-.7.4-1.3.9-1.6 1.7l-.6 1.8c-1 1.2-.7 3.1-2 4.2-1.1 1.1-.8 2.8-1.7 4-.6.3-.8.8-.5 1.4-.7 1.5-.6 3.2-1.7 4.6-.6.3-.7.8-.3 1.4-.7 1.5-.6 3.3-1.7 4.6-.6.4-.7.8-.3 1.4-.7 1.5-.6 3.2-1.6 4.6-.5.5-.6 1.1-.3 1.7-1.3 1.6-.5 4-2.3 5.3-6.9 3.2-6.2-3.4-6.9-6.2-5.2-20-13.7-38.9-20.3-58.5-1.5-4.4-3.2-8.6-5.5-14-11.1 33.9-21.8 66.5-34.2 98.4-2.5 6.3-3.2 13.8-9.5 18.2-1.8.3-3.3-.1-4.4-1.7-3-10-3.1-20.5-3.4-30.6-1.2-43-5.6-85.6-10.5-129.8-14.2 33.4-29 64.9-43.9 96.5-.4.9-.7 1.9-1.2 2.8-2.6 4.4-3.4 12.1-9.5 11-4.7-.9-4.7-8.2-5-13.1-3.5-53.2-12-105.8-17.4-158.8-2.5-24.5-5.9-48.9-4.8-73.6.7-16.4-1.8-32.6-1.9-48.8-.2-37.9 4.9-75.7 5.5-113.5.5-38.2 5.7-76.4.3-114.6-.2-1.6-.3-3.3-.3-5 0-2.3-.2-5 2.5-5.9 3.2-1.1 4.9 1.1 6 3.7-1.1 9.3 2.9 17.5 5.8 26 13.6 39 28.6 77.4 48.3 113.8 6.4 11.7 10.3 24.6 13.8 37.4 2.8 10.2 8.5 16.1 19.1 17.4 3.9.5 7.9 1.4 11.2 3.9 1.4 1.1 2.5 2.6 3.9 3.9 1.6 1.4 3.5 2.5 4.5 4.5h-.1c1.3.8 3.2.5 4.2 2.1l-.2-.1c1.3.9 3.2.6 4.2 2.1l-.2-.1c1.2.9 3.3.5 4 2.3l-.2-.2c1.2.3 1.9 1 2.2 2.2l-.2-.2c1.2.4 1.9 1 2.1 2.3l-.2-.2c2.4 1.1 2.7 4 4.7 5.5l.1.1c.5.7 1.2 1.4 1.8 2.1.7.7 1.4 1.3 1.9 2.2l-.1-.1c.9.6 1.6 1.3 2 2.3l-.2-.2c1 .4 1.8 1.1 2.1 2.3l-.2-.2c1.2.3 2 1 2.1 2.3l-.2-.2c6.9 5.3 12.8 11.4 16.6 19.4l.1.1c.5.8 1.1 1.4 1.8 2 .6.7 1.4 1.4 1.9 2.2l-.1-.1c.9.6 1.6 1.3 2 2.3l-.2-.2c1 .5 1.8 1.1 2.1 2.3l-.2-.2c1.2.4 2 1 2 2.4l-.2-.2c2.9 1.9 4.5 5 6.6 7.6.7.7 1.5 1.3 1.9 2.2l-.1-.1c.9.5 1.6 1.2 2.2 2h-.1c1.2 1.1 2.9.8 4.1 1.7.4.6.9.7 1.5.4 1.4.8 3.2.6 4.5 1.7.3.6.8.7 1.4.4 1.5.7 3.3.6 4.6 1.7l.5.5.7-.2c1.6.6 3.4.6 4.8 1.7 1 1.2 3 .8 3.9 2.2l-.1-.2c1.4 1 1 2.9 2.2 4v-.1c1.2 1.1.9 2.9 2 4.1v-.1c1.2 1.1.9 2.9 2 4.1v-.1c1.3 1.3 1.1 3.1 1.8 4.6-.3.6-.1 1.1.5 1.4.5.8 1.2 1.6 1.5 2.6-.2.6-.1 1.1.5 1.4.5.8 1.2 1.6 1.5 2.6-.2.6-.1 1.1.5 1.4.5.8 1.2 1.6 1.5 2.6-.3.6-.2 1 .3 1.4 1.1 1.1.7 2.9 1.8 4.1v-.1c1.3 1.3 1.1 3.1 1.8 4.6-.3.6-.1 1.1.5 1.4.8 1.2.5 2.9 1.6 4v-.1c1.3 1.3 1.1 3.1 1.8 4.6-.3.6-.1 1.1.5 1.4.5.8 1.2 1.6 1.5 2.6-.3.6-.2 1 .3 1.4 1.1 1.2.7 3 1.8 4.3-.3.7-.1 1.3.5 1.8.5.9 1.2 1.6 1.4 2.6-.3.6-.2 1 .3 1.4 1.1 1.2.7 3 1.8 4.3-.3.7-.1 1.3.5 1.8.5.9 1.2 1.6 1.4 2.6-.3.6-.2 1 .3 1.4 1.1 1.2.7 3 1.8 4.3-.3.7-.1 1.3.5 1.8.5.8 1 1.5 1.4 2.3l-.1-.2c1 .4 1.6 1.1 2.3 1.9h-.1c.6.6 1.3 1.1 2.1 1.5.3.7.7.9 1.4.7 1 .2 1.8.9 2.6 1.5.3.6.7.8 1.3.6 1.1.2 1.9 1 2.7 1.8 1.1 1.1 3 .8 4 2.1l-.1-.1c.6.6 1.3 1.1 2.1 1.5.3.7.7.9 1.4.7 1 .2 1.8.9 2.6 1.5.3.6.8.8 1.4.5 1.1.3 1.8 1 2.7 1.7l.1.1c.9 1.3 2.9.9 3.9 2.1 1.1 1.1 3 .8 4 2.1l-.1-.1c.6.6 1.3 1.1 2.1 1.5.3.7.7.9 1.4.7 1 .2 1.8.9 2.6 1.5.3.6.8.8 1.4.5 1.3-.5 2 .2 2.9.7zm268 44c-.3.6-.8.8-1.4.5-1 .2-1.7.9-2.6 1.4-.5.6-1.1.7-1.8.5-1.2 1-2.9.8-4.2 1.5-1.3.2-2.5.3-3.8.5-1.8 1.6-4.3.4-6.2 1.5-1.9 1-3.8.7-5.8.5-3.2 2.1-7 0-10.2 1.5-4.4 1.3-9 .6-13.4.6-15.7 1.3-31.5 1.3-47.2 0-1.9.2-3.7.4-5.4-.6-1.4-.7-3.1-.7-4.5-1.4-1.2.3-2.4.2-3.5-.6-1.4-.7-3.1-.7-4.5-1.4-1.2.3-2.4.2-3.5-.6-1.4-.7-3.1-.7-4.5-1.4-1.2.3-2.4.2-3.5-.6-1.4-.7-3.1-.7-4.5-1.4-1.2.3-2.4.2-3.4-.6-3.5-1.1-6.7-5.9-10.7-.8-.2.9-.2 1.7-.1 2.6.4.8.9 1.4 1.4 2.1l1.7 1.7c.7.8.9 2.2 2.3 2.4l-.2-.2c-.1 1.2.8 1.8 1.5 2.6.8 3.5 4.2 5 5.8 8 .1 1.3.2 2.5.3 3.8 2.2 2.3-.9 6.1 2.3 8.1l-.2-.2c.9 1.6 2.9 1.2 4.1 2.3l.9-.1.8.4c3.4 1.8 7.3-.2 10.6 1.6 1.8.1 3.6.2 5.4.4 4 1 8 2 11.8-.6l-.2.2c11.1-2 21.9.5 32.8 2l-.2-.1c2.1 3 5.9.3 8.2 2.4l.9-.1.7.6c.8.5 1.6 1.2 2.6 1.4h.8l.6.6c.7.5 1.5 1 2.3 1.5l-.2-.1c.7 1.6 2.8 1 3.6 2.4l.1.1c.8.5 1.4 1.1 1.9 1.8l.1.1c.8.5 1.4 1.1 1.9 1.9l.1.1c.8.5 1.4 1.1 1.9 1.9l.1.1c.8.5 1.4 1.1 1.9 1.9l.1.1c.7.4 1.2 1 1.6 1.8.6.2.9.7.7 1.4.3 1.2 1 2 2.1 2.5l-.1-.2c.5.8.9 1.6 1.5 2.3.6.3.8.7.6 1.3.2 1.2 1 2 1.9 2.6v-.1c.6.6 1.1 1.3 1.5 2.1.6.2.9.7.7 1.4.2 1.1 1 1.9 1.8 2.7 1.2 1.1.7 3.1 2.3 3.9l-.1-.2c.5.8 1 1.6 1.5 2.3.6.3.8.7.6 1.3.2 1.2 1 2 1.9 2.7v-.1c.6.6 1.1 1.3 1.5 2.1.7.3.9.7.7 1.4.2 1 .9 1.8 1.5 2.6.6.3.8.7.6 1.3.2 1.2 1 2 1.8 2.7 1.1 1.1.8 3 2.2 4l-.1-.1c.6 1 1.4 1.7 2.6 2 .7-.2 1.1 0 1.4.7 1 .4 2 .5 3 .4 4.1-2.1 4.8-6.1 5.9-9.9 4.5-15.7 9-31.3 13.3-47 3.5-13.1 7.1-26.2 11.9-41 4.6 17.3 10.4 31.8 15 46.8 8.2 26.9 22.1 52.3 23.4 81.2 0 .2.5.4.8.6 5.9 1.8 11.5 2 15.8-3.4 4.2-30.7 5.6-61.5 6.1-92.4-.2 2-.4 4 .1 5.9 5.1-2.6 6.3-4 5.1-12.1-4-25.9 2.4-51 5.7-76.3.6-4.6 2.4-7.6 7.8-6.6 1 1.1 2.8-3 3.1.4.4 4.5 2.9 8.1 4.7 11.9 22.3 46.8 50 90.7 74.8 136.2 3.4 6.3 4.7 14 11.2 18.4 5.5 1.3 10.9-.5 16.2-1.4 2.3-.4 5.3-1.3 3.4-5-5-3.4-5.8-8.5-6.3-14-1.3-15.3-3.2-30.5-5.6-45.6-10.4-67.4-14-135-6.5-203 4.3-38.7 6-77.6 5.9-116.6 0-4.3.2-8.7-.9-12.9-4.7-7.5-8.3-1.1-10.6 1.6-11.5 13-25.8 21.9-40.8 29.9-4.7 2.5-10 3.9-14 7.6-.6 1.8-1.5 2.5-3.1 1-1.4-.4-2.7-.2-3.8.6-.5.8-.8 1.6-.9 2.5 1 4.6-1.1 7.7-4.7 10.2l.2-.1c-1.3.9-3.3.5-4 2.3l.2-.1c-2.5.6-4.4 2.3-6.4 3.7-1 1.2-3.2.6-3.7 2.6l.3-.3c-2 .6-1.5 2.7-2.3 4l.1-.2c-2.4 1.5-.6 4.4-2.2 6.1l.1-.2c-2.2 1.5-.5 4.4-2.2 6.1l.1-.1c-2 1.5-.3 4.4-2.1 6v-.1c-1.9 1.6-.2 4.4-2.1 6-1.1 1.3-1.1 3-1.6 4.4l.1-.2c-2.6 1.1-.5 4.3-2.5 5.7-1.5 2-4.4.2-5.8 2.2l.1-.1c-2.3 2.1-5.9-.5-8.1 2.2l.2-.1c-2 .7-3.4 2.1-4.1 4.1l.1-.2c-2.5 2.5-.4 6.1-2 8.8l.3.6-.5.5c-2.1 2.6-.2 6-1.8 8.7.4.5.3 1-.2 1.3-2 2.4 0 5.8-1.8 8.3l.1-.2c-2.8 2.9.1 7.1-2.1 10.1l.1-.1c-2.4 2.3-.1 5.8-2 8.2l.1-.2c-2.8 3 .1 7.1-2.1 10.2l.1-.2c-2.7 3 .1 7.1-2.1 10.2l.1-.2c-2.7 3 .1 7.1-2.1 10.2l.1-.2c-2.8 3.7.2 8.4-2 12.2l.1-.2c-3.3 5.8.7 10.6 2.3 15.7l-.1-.2c1 2 0 4.5 1.5 6.4.6 2.7.7 5.4-.1 8-.9 1.4-.9 3.1-1.6 4.6.2.7 0 1.2-.7 1.5-.4.8-.9 1.4-1.5 2.1v-.1c-.8.6-1.6 1.3-1.9 2.4l.2-.2c-1.1.3-1.8 1.1-2.2 2.2l.2-.2c-1.1.3-1.8 1.1-2.2 2.2l.2-.2c-1.1.3-1.8 1.1-2.2 2.2l.2-.2c-1.1.3-1.8 1.1-2.2 2.2l.2-.2c-1.1.3-1.8 1.1-2.2 2.2l.2-.2c-1.1.3-1.8 1.1-2.2 2.2l.2-.2c-1.1.3-1.8 1.1-2.2 2.2l.2-.2c-1.1.3-1.8 1.1-2.2 2.2l.2-.2c-1.1.3-1.8 1.1-2.2 2.2l.2-.2c-1.1.3-1.8 1.1-2.2 2.2l.2-.2c-1.1.3-1.8 1.1-2.2 2.2l.2-.2c-1.1.3-1.8 1.1-2.3 2.1l.2-.1c-1 .3-1.6 1.2-2.4 1.7-.6.7-1.2 1.3-2 1.9l-.1.1c-.5.8-1.1 1.4-1.9 1.8l-.1.1c-.8 1.4-3 .9-3.6 2.5l.2-.2c-1.1.3-1.8 1.1-2.2 2.2l.2-.2c-1.1.3-1.7 1.1-2.4 1.9h.1c-.8.5-1.4 1.3-2.2 1.8l-.1.1c-.4.7-1 1.2-1.8 1.6-.2.6-.7.9-1.4.7-1.2.3-2 1-2.5 2.1l.2-.1c-1 .3-1.6 1.2-2.4 1.7-.5.7-1.1 1.2-1.9 1.6-.2.6-.7.9-1.4.7-1.1.2-1.9 1-2.7 1.8-1.1 1.2-3.1.7-3.9 2.3l.2-.1c-.8.5-1.6.9-2.3 1.5-.3.6-.8.8-1.4.5-1.8-.3-2.5.4-3.4.9zm-387.2-455.8c3.2-.1 6.6.9 9.4-1.8-10.6-.5-10.9-.5-13.8-10.2-5.8-18.8-13.3-36.8-20.8-54.9-10.1-24.5-20.5-49-30.8-73.5-3.7-8.7-7.5-17.4-11.3-26 .8 10 3.2 19.6 5.8 29 9.1 32.9 19.2 65.5 27.2 98.7 3.1 13.1 4.1 27 11.7 38.8 7.4 0 15 .1 22.6-.1zm475.8-64.1c1.1 0 2.3-1.1 3.4-1.7-7.4-1-7.2-1-8.1-7.8-1.6-12.5-3-24.9-4.4-37.4-1.6-14.8-2.9-29.6-3.3-44.5-.5-21.6-3.6-43-2.4-64.6 0-.5-.5-1.1-1-2.2-4.2 21.6-3.5 43.2-4.5 64.5-1.5 31.9-.4 63.8-.5 95.8 7-1 13.8-2.3 20.8-2.1zM1430 884c-.1-2.7-.2-5.2-1-7.9-9.4-32.5-20.1-64.7-31-96.7-.7-2.1-.8-4.5-3.5-5.5 1.8 14.2 3.4 28.3 5.6 42.2 1.7 11.1 2.9 22.3 4.2 33.5 1.4 12.2 3.8 24.2 3.6 36.5 7.5-.1 15 .5 22.1-2.1zm77.2-151.9c14.5 25.3 28.2 51.2 43.8 75.9 4.8 7.5 7.9 16.1 14.9 22.1 0-3.5-2-6.3-3.5-9.2-19.1-37.7-37-75.9-54.2-114.4-4-9-8.5-17.8-13-26.9-2 2.4-1.3 4.7-1 6.8 1.5 9.5 3.1 18.9 5.2 28.3 1 4.7.5 8.4-3.3 11.5 5.3-1.1 8.4 1.1 11.1 5.9zm342.8 45.4c.3-4.3 1.1-8.6 1.2-12.8.5-12.9 3.8-25.6 2-38.7-10.8 36.7-18.1 74.1-23.2 112 6.2.5 11.9-3 18.2-2.1v-3.7c-1.1-18.3.4-36.5 1.8-54.7zm-738.8 319.4c-4.2-6.7-8.8-13.2-13.6-19.5-7.4-9.7-13.1-20.5-21.5-29.5 3.9 10 7.9 20 11.8 30.1.8-.9 1.7-1.1 2.5-.2 8.4 9.8 16.8 19.7 25.2 29.6 1.4-4.7-2.4-7.4-4.4-10.5zm4.3 10.5c-5.5-11.8-15-20.5-23.3-30.1-.9-1.1-3.6-4-4.4.7.1.6.2 1.3.2 1.9 1.1 1.1.7 2.9 1.8 4.1 4.9 14.7 11.5 28.7 15.2 43.8 1 4.1-.6 8.8 2.8 12.3-.4-7 1.2-13.6 3.8-20 1.6-3.9 3-8 4.4-11.9l-.5-.8z"/><path id="hl1" fill="#645B91" d="M1848.2 832.2c3.7-6.3 2.1-13.6 3.1-20.4 2.4-16.7 5.9-33.2 8.9-49.9 1.8-1.7.2-4.4 1.8-6.1 0-.6 0-1.3.1-1.9 5 .6 2.6 3.6 2 6.1 0 1.3-.1 2.6-.1 3.9-2.4 3.7.5 8.3-1.9 12.1-.5 12.6-2.1 25-3.4 37.5-.7 6.6-.6 13.3-.6 19.9.1 36.1-1.4 72.3-2.6 108.3-1.1 33-3.6 66-8.9 98.8-3.5 21.9-7.6 43.7-12.2 65.4-.4 1.9-.3 4-.5 5.9-1.9 1.2-3.3 3.3-6.8 3.2.1-7.2 2.5-13.9 4-20.7 4.1-18.4 7.3-37 10.4-55.6.5-2.9.3-5.9.4-8.9 3.5-15.9 4.3-32.2 5.7-48.4 3.8-44.7 4-89.5 5.1-134.3.1-4.6-.8-8.5-4.6-11.4-1.3-1-1.1-2.3.1-3.5zm-585.6 289.1c32.1 5.7 63.4 14.7 94.8 23.6 2.3.7 4.8 2.4 7.6-.4-7.9-14.6-14.1-30-19.4-45.8-4.8-14.2-9.3-28.4-13.9-42.7-1-1.3-.6-3-1.5-4.3.1-.6 0-1.1-.3-1.6-4.8.7-2.5 3.6-1.9 5.9.1 1.3.1 2.6.2 3.9 2 2.4-.1 5.7 1.8 8.1-.6 6.1 1.4 11.9 2.3 17.7 1.5 9.2 1 18.6 3.6 27.6 1 3.5 2.1 7 3.1 10.5 1.4 5.2.2 6.5-5.2 6-.7-.1-1.3-.2-2-.3-24.3-5-48.6-10.3-73-14.9-5.6-1.1-11.2-4-17.1-2.4-.7 2.9 1.9 3.8 2.4 5.7 6.1 1.2 12.3 2.3 18.5 3.4zM1052.1 870c3.2 2.8.5 7.2 3.1 10.9 1.1-3.2 2.1-6 3-8.7 8.8-25.1 16.4-50.6 23.4-76.2 2.2-8.1 6.2-14.3 12.8-19.4 25.1-19.1 50.1-38.4 76.7-55.4 38.7-24.8 78.7-47.1 120.1-67 32.4-15.6 65.9-28.4 99.7-40.6 41.3-14.8 83.3-27.4 126.1-37 24.7-5.5 49.7-9.1 74.8-10.1 26.5-1 53.1-1.5 79.8 1.1 18.5 1.8 36.9 4.5 55 8.5 62.8 14.2 114.9 45.8 155.4 96 2 .3 3.1-.3 2.4-2.5-17.8-40.7-42-77.2-72.5-109.5-2.9-.6-5.8-1.3-8.8-1.8-34.7-5.5-69.6-10-104.7-11.8-19.5-1-39.1-2.6-58.8-2.4-15.3.1-30.5 1.7-45.8 1.7-20.3 0-40.4 2.6-60.5 4.8-20.4 2.2-40.7 6-60.8 9.9-42.4 8.3-84.4 18.1-125.6 31-54 17-107 36.6-156.1 65.3-18.3 10.7-36.5 21.9-49.9 39.1-1.5 1.9-2.9 4.5-6.9 4.7-.1-25.1 2.2-49.6 10.1-73.5-16.4 19.4-25.8 42.3-35.5 65.1-1-11.5 1.6-22.6 2.5-33.8.7-9.2 2-18.4 2.9-27.7.2-2.3.6-4.7-1.7-6.4-43.2 76.2-63.5 158-60.2 245.7zm47.8 330c.1-.6.2-1.2.2-1.9 1.1-1.2.6-3 1.9-4.1 6.3-16.4 13.1-32.6 18.7-49.2 5.7-16.9 10.3-34.2 15.1-51.4 4.7-16.4 9.1-32.9 13.7-49.3-7.8 8.1-12.6 17.5-17.7 26.7-6.7 11.8-10.3 25-15.6 37.4-9.3 8.9-10.2 20.1-8.3 31.9.3 3-.3 5.9-.9 8.8-2.5 10.9-4.7 21.9-7.1 32.8-1.8 2.5.4 5.9-1.9 8.3-2 2.4.3 5.8-2 8.1-.8 3-3.3 6.4 1.9 7.9.1-.6.1-1.2.2-1.8 1.1-1.3.6-3.1 1.8-4.2z"/><path fill="none" stroke="#000" stroke-miterlimit="10" stroke-width="6" d="M1469 1335.3l.9 21.5s14.1 41.2-23.9 33.2c-68.6-6.7-109.9 46.3-112.1 49.7s-24.8 74-24.8 74-163.1 6.3-179.2-6.4c10.6-15.4 4.2-222 4.2-222s-2.5-53.9-12.3-33.6c-9.5 45.1-41 145-93.8 166.3 26.7-30.6 73.1-279.4 73.1-279.4s-19.8-19.3-51.1-190.9c-31.2-171.6 40-297.7 40-297.7 63.5-175.6 268-220.4 268-220.4s170.9-53.6 327.9 30.4C1844 552.6 1879 641 1879 641s79.5 156.3 63.9 337.6-8.7 300.6-6.8 322.3c1.8 21.7 28.2 165.1 28.2 165.1s-103 23.5-121.7 25.7c-3.9-44.9-31.6-166.4-31.6-166.4s-11.7 1.1-11.7 98.5c.6 22.8.5 69.3.5 69.3l-65.9 6.9m103.1-385.2s-6.5 5.1-17.4 1.2c26.9-41.9 26.2-266.1 26.2-266.1l-6.6-4.7-93.2 13.3-6.3-4.2-14.8-80.8-8.9-1.1-6.3 81.5-29.7-139.4-5.8 1.6-10.9 137.7-91.4 2.4s-37.8-62.2-48.4-80.2-11.8-8.1-11.8-8.1l20.3 100s-36.4-89.9-47.8-118.5-14.5-19.6-14.5-19.6.3 62 8 157.5c-14.2 7.8-89.7 4.7-89.7 4.7l-1.8-4.6s-20.4-67.4-28.5-89.4c-1.8-17.5-11.7-15.5-11.7-15.5s14 118.6 8.2 130.3c-57.3-.7-55 10.2-55 10.2s32.6 103.6 44.7 147.3 34 81.8 34 81.8l-3.2 5.7-116.5-31.4"/></svg>