<svg xmlns="http://www.w3.org/2000/svg" id="hair" viewBox="0 0 3000 3000"><path id="cl1" fill="#894447" d="M1774.199 684c3.7 21.9-4.601 62-6.9 88.5-2 22.2-10.299 48.102-17.399 69.4-5.699 2.3-6.199-2.1-6.5-5.6-2.3-22.2-5.5-44.2-7.199-66.4-.4-5.3-4.101-23.6-6.101-28.7-7.801-3.5-5.899 9.9-8.301 17.9-4.199 14-3.699 26.8-7.5 40.899-10.399 38.199-27.399 77-43.699 113.199-2.6 5.7-5.699 11.2-8.6 16.9-.7.7-1.4 1.5-1.601 2.6-.101.4-.301.802-.601 1.2-9.2.9-6.399-6.1-5.8-10 3.8-22.5 4.399-45.3 2.699-67.8-3.5-47.1-4.5-94.5-17.601-140.4-5.399-18.8-16.301-34.5-24.899-51.5-.199-.3-.301-.6-.5-.898-1.801-2.9-3.5-5.9-7.601-5.301 1.9 7.199 5.199 7.699-4.301 69.601-3.295 39.5-26.895 100.4-45.895 135-4.399 8.1-10.7 16.398-15.602 25.5-2.398-3.7-1.898-6.4-1.898-8.8-.2-25.602-.301-51.302-.399-76.9 0-4.7-.201-6.8-2.601-11-8.7-4.2-12.399-1.5-16.2 5.2-15.5 27.398-26.1 57-37.1 86.3-.802 2-1.9 4-2.302 6-.6 3.2-1.898 5.4-5.1 5.8-4.101.5-4.9-3.1-5.8-5.8-3.602-11.4-7.399-22.7-10.602-34.2-5.5-19.6-13-38.5-17.898-58.3-1.5-5.9-4.102-9.7-4.399-15.6-.301-4.7-5.801-12.102-10.801-13.7-4.699.5-.199 5.5-1.5 9.398-6.3 18.5-7.101 31.5-8.8 43.5-1.7 13.302-3.5 28.9-4.102 42.102-.1 2.6 1.602 6.6-3.1 7.1-4 .4-4.301-3.8-4.801-5.898-3.899-14.602-7.199-29.302-8.8-44.4-4.801-47.4-2.601-94.4 7.699-140.899 1.7-7.899 1.601-14.699-2.699-21.399-5.801-1.8-4.101 5-5.899 10.1-5.9 16.602-13.101 27.602-17.601 44.7-7.301 28-19.5 57.3-26.5 85.4-14.7 58.898-16.301 118.5-9.101 178.5 3.601 29.8 11.101 58.8 18.5 87.898 3.101 12.301 6.5 24.4 9.7 36.7.6 2.3 1.5 4.7-1.101 6.2-2.399 1.398-4.301-.7-5.601-2-10.3-9.7-20.101-20-30.7-29.3-11.8-10.4-20.3-23.2-27-33.5 2.9 4.198 6.9 11.5 12.102 18 6.6 8.198 14 15.1 14.699 24.398 16.899 39.9 27.301 81.3 49.199 118.602.7 2.198-.3 2.8-2.3 2.398-9.8-7.398-25.7-4.398-34.3-13.1-39.101-34.4-66.5-82.5-90.7-128-6-11.4-10-25.4-16-36.8-10.8-2.7-9-28.7-15.2-23.302.2 13.4 4.2 27.102 9.4 38.602 12.1 26.898 25.1 53.398 40.199 78.8 7.601 12.7 13.7 26.3 21.2 39.2l-.101-.102c.5.7 1 1.5 1.399 2.302l12.601 25.8c1.3 2.6 0 9.6-3.801 9.5-44.399-24-76.301-70.9-102.699-117.3-12-21.2-24.2-42.9-36.7-63.802-4.1-6.898-14.6-21.398-17-29.198-16.699-54.5-17.399-110.602-18-167.7-.199-21 4.601-69.3 4.7-71.5 0-.4-4.101-3.102-4.801-1.602-3.199 7.102-12.801 13.4-19.6 16.7-10.2 4.9-14.2 13-13.301 24.3 4.301 52.802 11.6 105 30.7 154.802 3.101 8.1-.102 20.6-6.899 22.3-21.701-26.8-41.5-59.602-55.201-91.4-13.299-30.898-16.199-71.898-20.6-105.1-4.301-32.602-4.301-65.102 1.6-97.5.5-2.9 1.201-5.9 2.4-8.602 24.699-57.6 58.6-109.1 103.6-152.898 55.5-54 120.602-91.5 194.701-113.9 53.699-16.2 108.699-23.4 164.5-24.2 21-.3 41.699 4.5 62.1 9.3 41.301 9.802 80.9 24.602 119.301 42.602 1.8.8 3.3 2.1 5 3.2-4.7 9.8-9.899.6-14 .7 18.8 15.5 30.101 36.698 37.8 60.1 2.399 7.3 4.899 14.6 6.399 22.1 2.199 11.001-1.899 15.102-12.801 12.9-10.1-2.1-20.1-4.7-29.6-9-6.199-2.8-9.9-2.2-11.1 5.6-2.101 13.5-11.601 18.2-25.101 13.102-5-1.9-9.399-5-13.899-7.8-4.4-2.802-6.9-1.9-6.9 3.698 0 1.7.1 3.302-.1 5-.7 9.602-5.601 13.7-15.101 12.302-5.7-.9-10.899-3.302-15.399-6.802-7.2-5.698-13.9-5-20.7.802-8.3 6.898-17.5 12-28.8 12.5-5.9.198-10.802-1.302-15.5-5.4-9.5-8.5-12.9-7.9-21.101 2.2-4 4.898-7.5 10.1-13.101 13.6-11.601 7.4-21.399 7.3-32.399-.898-11.801-8.802-11.801-8.802-23.601-1.7-23.601 14.1-33.899 9.3-37.801-17.602-.899-6.6-1.199-13.3-2.899-19.698-2.699-10-9.9-13-19.199-8.2-5.7 3-10.2 7.5-14.601 12.1-5.399 5.5-11.101 10.5-17.7 14.602-3.5 2.1-7.5 4-11.1.8-4.101-3.5-1.101-7.4.8-10.8 2.4-4.4 5.601-8.302 7.7-12.9 1.699-3.8 4.699-8.4 0-11.7-4.101-2.898-7.5.7-10.5 3.2-8.601 7-14.601 16.4-22.5 24.1-3.9 3.802-7.301 9.7-14.101 7-7.301-2.898-8.5-9.5-8.301-16.6.101-5.7.301-11.3-.199-17-.899-9.7-4.899-12.4-14-9.4-3.801 1.302-7.399 3-11.399 3.802-11 2.1-16.301-2.802-13.601-13.7 1.601-6.3 1.899-10.102-5-13.602-5.699-2.898-2.101-7.1 1.699-10.1 11-8.7 22.601-16.5 32.9-26.1 2.3-2.2 5.8-3.5 5.699-7.7-4.199-2.3-7.8.3-11.199 1.898-17.4 8.4-33.9 18.602-50.2 28.9-2.3 1.399-4.8 3-5.8 5.399-7.601 18.5-23 31.601-33.801 47.899-.5.8-1.199 1.601-1.699 2.5-1.4 2.8-5.4 5.7-2.7 8.8 2.5 2.9 6.3.101 9.2-1.1 12.3-5.1 24.899-9.5 37.6-13.5 3.801-1.2 7.7-2.3 11.7-2.8 19.3-2.5 27.2 6.1 24 25.5-1.5 8.898-4.3 17.5-5.2 26.5-1.199 12 3 15.6 14.4 11.898 10.8-3.5 20.699-9.1 30.899-14.1 5.399-2.6 10.699-5.5 16.5-7 10.5-2.6 17.199.5 21.899 10.3.4.9.9 1.8 1.2 2.7 8 19.1 8 19.1 26.3 10 3-1.5 6-3 9-4.4 18.2-8.698 24.601-7.8 39.3 5.802 11.101 10.198 16.301 11 29.601 4.698 3.301-1.6 6.7-3.1 9.801-4.898 18.399-10.4 36.301-9.2 53.801 2.1 1.1.7 2.199 1.5 3.399 2.2 19.699 12.6 19.8 12.7 38.601-1.8 16.399-12.602 34.5-14.602 53.899-9.3 3.5 1 7 2.198 10.3 3.698 12.7 5.602 23.9 4 33.5-6.6 10.801-11.8 23.6-13.8 38.1-7.6 6.701 2.898 13.5 5.698 20.801 6.8 9.699 1.5 15.101-1.3 19.4-10.102 1.5-3 2.3-6.3 3.699-9.3 4.7-9.7 12.9-13.898 23.6-12.1 9.201 1.5 18.201 4.2 27.5 5.3 4.701.6 9.301.7 13.9-.3 5.2-1.102 11.2-1.3 13-7.602 1.7-5.898-2.4-10.1-6.1-13.898-27.4-29-58.802-53-92.802-73.8-7.398-4.5-7.5-4.5-4.6-10.302 16.301 6.2 30.899 15.5 45.301 25 58.399 38.7 103.3 89.7 136.699 151 17.301 31.7 30.7 64.9 40.5 99.7 8.2 28.9 9.301 58.3 8.7 88.102-.602 27 2.5 52.898-5.301 79.898-3.699 22.102-11.199 44.2-17.399 65.602-.9 3.1-.4 7.3-4.9 7.6-4 .2-5.3-3.5-7-6.2-9.1-14.898-16.899-30.398-24.199-46.398 5.199 9.198 5.699 19.398 7.4 29.398.6 4-1.201 6.3-3.801 8.5l-.101.102c-.6.8 14 58.5 5.301 65.698 1.601 51.602-18.801 107.302-37.2 142.2-5.3 8.8-11.5 18.3-15.8 27.5-9.801 20.7-31.301 37.5-46.2 54.601-3.699.199-3.4-1.601-1.9-3.899 9.701-19.9 28.9-63.4 29.701-71.5-3.399 4.7-26.201 14.1-33.5 19.7-2.101.5-3-.302-2.399-2.4 37.399-49.2 63.5-103.6 74.899-167.2 10.899-60.5 2.5-135.8 1.399-197.3 0-2.7-.102-5.3-.2-8-1.8-1.1-2.1-4.8-5.699-7.8-.2 2.8-1.101 2.8-1.801 6.3-1.9 9.9-5.3 17.3-9.5 26.4-4.6 10-16.199 31-20.8 41-9.5 2.199-4.801-14.801-4.899-18.5-.101-22.7-3-45-6.399-67.4-4.5-29.3-14.101-57.1-25.4-84.4-2.284-6.5-2.985-8.602-8.985-5.302zM1051.5 988.2c-2.5-1.5-2.5-3.8-2.9-6.6-1-6.5-3.301-12.7-6.801-18.2-2.799-4.3-5.699-9.5-12-8.8-5.799.6-9.199 4.8-11.5 9.9-.6 1.198-.898 2.5-1.5 3.698-1.1 2.302-1.199 5.7-4.5 5.802-3 .1-4.398-2.7-5.799-4.9-5.201-8.1-10.301-16.3-15.5-24.4-2.201-3.398-5-5.2-9.101-4.8-4.399.4-5.7 3.6-7.2 7.1-3.4 8-.199 15.2 1.801 22.602-1.9-7.7-4.801-15.102-7.301-22.602-7.9-23.6-15.8-47.3-19.3-72.198-.7-5.2-2.399-10.802 1.899-16.602 7.601 12 11.5 24.4 17.601 35.8.5.802 1 1.602 1.601 2.302 5.799 3.898 8.199 10.3 11.699 15.898 1.899 2.9 4.6 4.7 8.301 4.102 4.1-.602 5.199-3.5 5.699-7l.301-3c.199-1.9 0-4.5 2.1-5.2 2.9-.9 4 1.8 5.101 3.7 2.699 4.6 4.899 9.398 6.801 14.398 1.398 3.7 2.6 7.5 4.1 11.2 1.5 3.8 3.4 7.8 8.101 7.5 5.1-.3 5.7-5.1 6.7-8.8 2-7.1 1.699-14.6.6-21.7-1.2-7.9-1.3-15.4 1.3-22.9.101-1 .301-1.898.4-2.898-.8-6.3-6.601-8-10.5-11.102-18.5-14.1-36.9-28.1-51.7-46.398-6.3-7.8-12-15.8-18-23.8-2.7-3.602-5.399-6.102-9.6-1.9-23.102 48.9-23.801 97.5 1.5 146 6.6 12.7 14.3 24.8 22.3 36.7 16.899 25.2 22.3 52.1 12.7 81.6-6.602 20.301-14.2 40.2-21.4 60.2-7.1 19.7-14.6 39.4-16.5 60.5-2.8 31.101-3.6 61.4 12 90.5 11.601 21.7 25.3 41.3 42.5 58.601 5 1.301 6.7-1 6.4-5.699-.2-3-1.301-5.801-2-8.602-7-27.199-10.9-54.398-7.102-82.699 2.4-18.301 8.602-35.5 12.5-53.301 1-4.5 4.201-7.3 9-7.699 5.9.601 6.4 4.801 6.301 9.5-.301 13.399.9 26.601 2.5 39.801 3.801 30.6 14.601 59.398 23.801 88.6 6.601 21 15.101 41.2 26.199 60.301 21.801 37.301 51.9 66.699 88.301 89.399 11.3 7 18.101 16.2 22.398 28 1.9 5 3.9 9.9 5.201 15.101 4.399 18.101 8.199 36.199 4.199 55.199-8.1 38.801-29.6 68.601-60.199 92.5-12.201 9.5-26.301 13.9-41.701 15.101-18.199 1.399-35.898-.899-53.199-6.399-3-1-6.1-1.7-9.699-2.601.601 1.5.699 2.399 1.101 2.699 18.601 13.4 38.3 23.9 61.5 27.102 17.601 2.398 35.199 2 52.8 1.3 22-4.4 40.899-13 56-30.601 23.301-27.101 41.2-82 39.5-127.399-.399 5-.601 12.399-.3 19.8 1.601 38-6.101 74.2-20.101 109.2-3.101 7.8-2.5 15.3-1.101 23 2.601 16.3 2.899 32.399-3.899 48-2 4.6-4.2 9-6.301 13.5-.399 5.5 2.601 5.7 6.199 3.5 3.701-2.2 6.701-5.5 9.602-8.601 32.3-34.101 58.5-72.301 75.898-116.101 13-32.8 22.201-69.199 13-104.1-6.199-23.4-3.6-23.301-28.6-58-9.6-3.4-7.3-8-15.3-17.301-7.2-5.199-10.602-7.601-16.301-11.301-3.199-4.699-8.6-5.199-8.301-10.398-1.6-1.4-1.6-1.4-12.5-10.801-7-7.801-16.199-3.699-25.399-7.699-14.101-6.102-27.899-12.7-38.101-24.7-22.8-26.9-26.8-58.5-21.8-92.101-.1-22.199 1-39.101.2-61.301-.7-20 2.1-66.3-8.4-84 2.801-7.699-3.399-88.699-10.3-93.3-16.7-25.2-23.399-100.1-36.2-122.5M1958.1 1171.1c-.699-2.601-.5-5.5-4-5.9-3.1-.3-4.899 1.8-6 4.3-5.399 11.602-9.6 23.602-9.899 36.602.6-8-2.5-15.602-3.199-23.5-.4-4.9-2.101-9.8-7.601-10.3-5.899-.5-5.899 5.3-7 9.198-5.899 19.7-4.801 39.7-2.801 54.802-1.301-22.2-4-49.4-7.699-76.5-2.399-17.5-3.399-34.7 4.101-51.9 5.699-13.1 7.699-27.6 5.8-38.8-.601 12.398.601 28.1 1.8 43.898.7 9.602 5.2 13 11.4 2.302.1-.302-.7 2-.101 1.1 2.101 13.9 4.601 28 4.5 42.4 0 3.6.399 7.8 5.101 8.5 4.8.698 6.3-3.302 7.399-6.7 2.8-7.7 4.7-15.7 3.899-23 .101 6.898-.5 15 1.5 22.7 2.5 9.5 5 18.8 5 28.698 0 2.802.301 6.102 4 7.102.2-1.602.7-3.2.7-4.9.199-22.2-.301-44.5.699-66.7.5-11.8-1.101-23-3.199-34.398-2.601-14-4.5-28.2-6.7-42.3-1.399-13.302-1.199-26.7-.101-40 .2-.7.301-1.302.5-2 .2-9.102-7.3-12.5-12.899-17.102-8.8-7.1-12-6.6-17.199 3.8-11.5 22.9-22.5 46-30.801 70.302-4.8 14.1-10.5 28.198-11.899 43-2.601 27.398-4.2 55-.399 82.5 6.199 44.898 18.6 89.698 53.5 121.198 17.6 17.802 37.3 31.102 58.399 44.802 17.3 11.198 35.399 21.3 51.8 33.898 33.801 25.9 53.602 59.4 55.602 102.602.601 12.3 1.101 24.6 1.601 36.898l-.2-.2c2.2-1.5 2.2-4 2.7-6.198 4.699-22.7 5.899-45.802 2-68.5-8.801-51.602-31.2-96.4-69.5-132C2024 1307 2006 1295.5 1990.8 1282.1c-17.8-15.7-25.898-35.9-26.6-59.3-.2-6.302-.2-12.602-.2-19-5.1-10.2-2.9-21.9-5.9-32.7zm-681.901 219.3c3.5-15.4 2.899-31.1 2.6-46.7-.5-22-3.899-43.8-10.299-64.898-9.701-31.9-29.4-56.302-58.9-72.5-10.6-5.9-20.301-12.802-25.699-24.2-9.801 14.7-8.102 29.8 5.101 40.2 15.399 12.1 27.699 26.8 37.6 43.6 6.801 11.5 11.4 24.101 17.199 36 6.301 13.101 10.4 26.601 12.7 40.8 3.601 21.802 3.8 43.802 3.7 65.7 0 5.3-.4 10.7 2 15.7 7.599-10.002 11.199-21.702 13.998-33.702zM1950.5 826c16.899 14.302 30.399 31.4 42.5 49.9 14.6 22.3 24.699 46.4 31.1 71.9a345.392 345.392 0 0 1 10.101 70.898c1.301 33.9-2.5 66.9-16.4 98.4-3.699 8.4-4.898 17.9-7.199 27-.6 2.5-.399 5.1 2.199 6 3.301 1.1 3.301-2.5 4.5-4.1 6.4-9.4 9.9-20.2 14.102-30.7 7.601-19 12.8-38.5 14.101-58.9 2.399-35.7-.101-71.1-8.601-105.898-11.102-45.9-32.399-86.301-64.899-120.7-6.801-7.2-18.5-18-28.101-24.3-2.003 6.802 1.097 15.802 6.597 20.5zM949.4 1278.2c-.899 20.8 7.699 58.602 16.3 76.602 14.899 31.1 37.7 56.398 62 80.198 22.1 21.602 45.1 42.302 70.399 60.4 20.601 14.8 41.9 28.3 64.801 39.2 5.899 2.8 12 5.5 18.5 6.898 2.5-10.3 2.199-11.198-6.399-14.5-15.601-5.898-30.101-14.3-44.101-23.1-35.2-22.3-66.301-49.9-96.7-78.2-11.899-11.1-22.1-23.898-32.399-36.5-18.399-22.398-32.101-67.1-39.2-95.3-2-8.1-6.1-14.5-11.399-21.4-1.902 2.402-1.702 4.002-1.802 5.702zm1104.499-75.2c-6.898-3.5-12.898-7.698-18.3-13.398-10.301-10.7-21.2-21-31.899-31.4-2.801 8.5-1 17-.5 25.602.399 8 4.301 12.3 11.399 15.698 24.4 11.5 50 19.602 75.5 28.102 2.601.898 5.101 1.3 7.8.6-14-9.504-29-17.402-44-25.204zm35.601 107.5c-.399-2.6-1-5.198-1.2-7.8-.8-17.398-4.899-34.1-12.199-50-3.801-8.3-6.7-19.5-17.4-18.6 1.9 4.7 5.4 20 7.301 24.5 11.5 27.399 14.301 55.8 9.601 84.899-1.101 6.601-3.101 14.199 2.899 18.601 5.498-16.298 13.498-35.798 10.998-51.6zm-89.801-288.5c-1.4-1.8 0-4.398-1.601-6.198-.301-1.602-.5-3.302-.899-4.9-6.9-28.7-19.699-57.1-38.199-79.5-2.5 2.8-6.101 10.8-7.5 14.101-3.601 8.601-2 15.101 4.699 22.101 14.5 15 27.1 31.6 36.899 50.2 1.601 3.1 2.801 6.898 7 7.8-.098-1.104-.198-2.302-.399-3.604z"/><path id="sd1" fill="#643134" d="M1956.199 1006c-5.199-4.198-10.199-8.6-15.5-12.6-5.8-4.4-7.199-4.2-10.5 2.4-10.601 21.5-20.601 43.199-29 65.699-2.699 7.199-5.4 14.301-7.4 21.699-8.5 30.5-8.799 61.7-6.6 93 2.301 33 10.899 64.2 26.801 93.301 6.399 11.699 14.3 22.399 22 33.199.8 1.102 1.3 2.301 1.899 3.5-12.7-7.1-22.601-17.5-31.899-28.398-16.5-19.302-30.5-40.302-43.9-61.9-6.301-10.1-9.699-20.7-10.699-32.5-.5-6.6-3.2-13.8-3.5-20.5-.301-7.5 1.699-14.6 5.601-21.2 17.899-30 27-68.8 33.199-103.2.699-4 4-23.198 5.6-26.898 15.5-36.5 31.201-61.3 41.201-99.8.6-2.2.899-4.602 3.899-6.7 6.898 5.6 15.898 19.8 20.8 27.1-.4 5.4-1.199 14.2-2.3 19.602-.801 4.1.898 7.898 3.699 11 17.101 18.6 31.699 38.8 40.601 62.699 3.801 14.399 6.6 29 8 43.899-.101 2.2 3.399 5.601-2 6.101-3.101-10.5-5.9-21.101-9.699-31.5-5.601-15.199-16-26.601-28.4-36.5-3.702-2.603-7.502-3.903-11.903-1.503zm-774.5 159.4c6-21.6 12-100 4.801-104.7-7.5-4.898-34.301-75-40.2-81.898-24.101 9.898-48.399-63.8-65.5-29.9.2 6.5 33.7 74.2 36.601 79.8 8.699 17.102 6.5 60.7 14.3 84.7 5.601 4 .801 36.7 2.7 43.4.199-3.302-4.5.6 0 0 4-.602 2.601 5 4.101 8 2.1 4.1 2.1 7.5 3.6 11.898 3.5 9.802 6.5 19.5 8 29.802-.801 20-.899 32.198-.5 50.5.101 3.5-4.1 9.1-2 12 3.699.3 17.101-1.302 19.4-2.5 16.5-8.602 32.8-5.802 45.3 8 4.8 5.198 8.3 11.198 11.2 17.6 5 11 8.399 22.5 10.6 34.3 6.5 35.102 9.4 70.602 10 106.302.101 3.5-.801 7.198 1.5 11.3 7.5-5.5 12.301-12.5 16.699-19.8-.398-6.602 2.602-12.602 2.801-19.2 1.101-39.9-2-78.9-20.5-115.602-11.6-23-22.301-46.898-43.1-62.698-16-12.2-16.7-18.602-14.101-36.7-.901-5.604-5.101-19.004-5.702-24.604M1614.1 664c11.801 9.7 20.301 21.7 25.4 36.2 8.899 25.2 14 51.2 16.399 77.8 1.899 20.2 4.199 40.302 5.3 60.5 1.601 27.5 2.5 55.102-1.699 82.5-.7 4.2-1.801 8.5.199 12.7-5.5 11-12.699 20.8-20.5 30.3-3.8-3.198-2.8-6.398-2.699-9.198 1.399-44.102-5.101-87.7-9.2-131.5-2.5-26.602-4.8-53.102-6.601-79.7-1.799-26.602-4-53.102-6.599-79.602zm-406.401 1081.9c3.1.4 5-1.5 6.899-3.4 40.5-42 72.801-89 88.4-146.1 8.3-30.3 5.5-60-3.601-89.5-5.101-16.5-11.801-31.9-23.5-44.7.8-1.1 1.699-1.198 2.699-.3 20.699 21.4 34.699 46.4 38.801 76.1 5.8 41.302 3.3 82.4-6.5 123-10 41.302-34.801 69.7-73.899 85.7-9.2 3.8-18.601 7.2-28 10.7-2.101.7-4.2 2.2-7.101.4.603-4.6 2.903-8.498 5.802-11.9zM1028.1 881.802c-11-9.102-22.8-17.102-33.8-26.302-17.5-14.6-32.101-31.6-44.8-50.398-1.9-2.8-3.801-5.5-7-6.9 8.1-19 19.8-35.8 33.1-51.5 3.301 1.7 2.4 4.4 2.7 6.5 1.7 10.301 4.399 20.301 8.7 29.7 11 24.4 23.399 47.9 40.6 68.601 6.5 7.801 13.801 14.399 24.5 15.801 4.801.699 7.5 3.699 9.4 8 8.1 18.3 17.8 35.699 28.6 52.6 4.301 6.7 4 6.8-2.6 11.2-5.301 3.5-3.301 8-8.5 11.6-4.101.8-22.601 38.5-27.4 37.5-4.899-1.7 2-42.2.101-47.5-6.401-17.902-11.601-44.304-23.601-58.902zm87.599 75.5C1116.4 954.6 1122 946.5 1121 944c-12.801-31.3-19.7-64.1-24.801-97.398-3.601-23.3-5.199-46.9-7.3-70.4-.5-5.699 1.3-9.398 6.398-12.1C1105 758.9 1119.5 751 1129 745.6c-1.301 11.898-1.9 25.898-2.9 37.8-4.301 51.3-4.1 102.1 6.801 152.1 1.898 9.102 4.398 18.102 6.601 27.2.699 2.8-2.201 11.8-2.5 15.2-7.602-5.4-16.303-12.7-21.303-20.598zm-120 375.198c2.601-4.3.601-8.398-.601-12.5-6.3-21.6-9.6-43.6-8.8-66 .899-24.1 4.7-47.6 14.899-69.8 2.7-5.8 5.801-10.7 13.2-9.898-4.399 3.3-6 8-6.301 13.1-3.399 62.8 2.601 123.7 36.801 178.8 2.199 3.602 5.3 6.801 6.5 11.102-.7.198-1.5.698-1.801.5C1029.6 1365 1011.6 1349.9 995.699 1332.5zm1102.2-104.198c6.7 3.8 11.801 9.6 16.7 15.398.399 2.302-.601 3.2-2.899 2.9-14.801-7.1-30-10.9-46.601-12.9-22.301-2.698-45.1-4.898-65.899-14.8-3.301-1.5-6.4-3.4-9.801-4.8-24.799-14.7-23.699-27.1-22.899-38.1 1.101-15.601.601-31.301.8-46.899 0-2.601-.5-5.3 1.5-8.601 5.601 1.301 20.4 19.5 24.4 23 4.301 3.699 6.399 10.899 10.5 14.801 1.699 7.3 3.699 14.6 4.6 22.1 1.2 9.3 7.7 14.1 15.601 17.7 17.601 7.899 36.001 13.6 53.501 21.7 6.598 3.001 12.997 7.099 20.497 8.501zm-698.599-572c1.101.8 2.301 1.5 3.2 2.398 2 2.102 5.699-1.2 7.1 2 1.301 2.9-.199 5.9-.801 8.8-6.799 30.5-11.5 61.5-11.799 92.7-.4 32.5 1.399 65.102 9.399 96.9.398 1.5.5 3.3 3.5 4.399 0-8.199-.102-16 0-23.801 0-5.898 3.3-15.699 5.8-21.398.301 25.898-4.5 55.5-1.601 81.1-2.399 1.2-2.801-.4-3.199-1.4-14.5-39-26.399-78.8-33.101-119.898-4.399-27.2-2.101-54.8 7.7-80.4 3.6-9.398 6.199-18 9.899-27.3 1.903-4.802 5.802-9.1 3.903-14.1zM1143.8 1689.7c12.7-4.3 24.7-9.6 35.399-18 14.5-11.3 25.5-25.5 33.399-41.8 13.101-27 19.801-55.7 21.4-85.7.5-10.2 1.6-20.3 2.5-31.7 4.8 3.802 4.899 7.9 5.399 11.602 4 30.7 3.399 61.2-3.399 91.398-4 17.9-9.2 35.4-16.5 52.302-2.2 5.3-3.9 10.698-4.2 16.398-6.601-15.3-6.601-15.198-22.399-8-16.299 7.5-33.299 12.7-51.599 13.5zM1771.9 684c7.399-4.6 10-4.198 14.3 3 5.601 9.2 9.601 19 13.301 29 10.3 27.9 15.6 57 18.6 86.5 1.301 12.602 2.101 25.2 1.9 37.802 0 3.398.399 6.698 2 9.698a7667.301 7667.301 0 0 0-17.601 41.602c-3.399-2.5-2.5-4.9-2.399-7 1.199-22.3.3-44.5.5-66.8.199-38.2-6.9-75.302-17.601-111.802-1.5-5.1-3-10.198-4.399-15.3-1.201-4.398-3.701-7-8.601-6.7zm-540 735.9c-15.301-5.6-30.7-10.7-45-18.6-22.801-12.5-38.399-30.9-43-56.602-3.399-18.8-4.801-38.1 2.199-56.8-.1 6.3-.199 12.601-.199 18.9 0 11.898 3.399 22.898 9.3 33.198 7.101 12.302 16.5 22.5 26.801 32 12.699 11.7 25.8 22.9 38.6 34.602 4.299 4.002 9.999 7.002 11.299 13.302zm191.799-652.4c1.6-4.198 7.301-1.198 16.5 12.802 8.2 32.898 17.2 65.5 27.6 97.8 1.201 3.8.9 10.2 5.9 10.1 3.899-.1 3.899-6.3 5.1-9.898 9.601-28.4 22.201-55.5 36.201-82 5.699-10.801 10-12.2 20.799-7.801-5.299-1.399-9.1.601-11.6 5.301-2.3 4.398-4.8 8.8-6.9 13.3-14.699 32.1-27 65.2-38.399 98.6-1.101 3.102-1.3 6.602-3.699 9.2-3-.7-2.801-3.3-3.301-5.4-7.5-32.5-19.601-62.898-31.199-94.1-4-10.7-8.4-21.9-12.699-32.7-2.303-5.604-3.202-10.204-4.303-15.204zM1885.5 949.302c-1.801-16.602-8.2-48.102-11-64.4-.101-.5.6-1.1 1-1.899 3.8 0 4.399 3.399 5.699 5.801 7.1 13.199 14 26.5 21.1 39.699 2.601 4.899 5.201 10 9.101 14.601 4.2-2.101 4.2-6.101 5-9.4 4-15.398 7.7-30.898 11.7-46.398 1-3.9 6.3-11.9 7.5-15.7 1.101 12.8-2 29.6-4.801 41.8-6.399 27.9-16.199 56.9-30.6 81.5-.5 1.2-1.199 2.3-2.199 4.101-5.4 3.101-6.701-5-6.701-7.899-.199-15.601 1.301-21.601-1.1-37.101-1.199-7.705 3.901-3.907-4.699-4.705zM1734 754c7.1 19.102 10.8 39 12.1 59.302.601 9.6.801 19.198 3.801 28.5-2.2 11.398-6.7 22-10.2 33.1-3.199-1.8-1.3-4.2-1.5-6.1 4.4-22.7-3.899-51.802-2.199-82.102.697-11.898-2.803-20.8-2.002-32.7zm-493.801 270c8.6 10.302 14.5 22.2 21.5 33.5 22.301 35.9 45 71.5 71.801 104.302 5.199 6.5 37.699 36.6 41.899 43.898-12.801-6-48-31.698-57-44-18.601-15.1-29.5-39.6-40.399-61-11.5-22.5-23.601-44.698-34.301-67.5-1.399-3-3.199-5.8-3.5-9.2zm52 135.802c-3.199-2-5.101-5.2-7.101-8.2-27.899-41.6-50.801-85.7-67-133.2-1.399-4.2-2.801-8.2-.1-12.398 16.899 36.398 34.5 72.398 53.899 107.6 8.103 14.698 13.703 30.796 20.302 46.198zm35.301-74.102c-2.9-12.898-15.9-23.398-22.101-34.8-3.899-7.3-7.399-14.8-12-24.1 6 2.3 7.899 5.8 10.101 8.698 17 21.9 36 41.9 56.1 60.9 2.301 2.1 4.199 6.9 8.801 3.1 3.399 5.7 4.699 12.102 7.601 18.5-5.301.5-7.101-2.698-9.4-4.8-10.1-9.2-20-18.5-29.899-27.8-1.199-1.2-2.4-2.4-3.601-3.5-7.002-6.096-3.502-5.498-5.602 3.802zM1869 943s-12 51-30.4 70c-18.399 19 0 51.5 0 51.5"/><path id="hl1" fill="#A7585C" d="M1708.1 431.802c2 3.3 5.4 4.8 8.601 6.698 34.699 21 66.199 45.9 94.199 75.302 3.7 3.898 6.801 8.3 8.2 13.6 1.699 6.3.199 9.7-5.801 11.8-9.5 3.4-19.199 5.801-29.399 3.801-8.8-1.699-17.601-3.601-26.5-5.199-10.5-1.801-15.5 1-19.699 10.699-1.4 3.399-2.5 6.899-4 10.199-4.301 9.102-8.9 11.7-19.101 11.102-6.1-.301-11.801-2.102-17.399-4.2-5-1.9-9.9-3.9-15-5.5-9.4-3-17.699-.7-25 5.8-1.199 1.1-2.5 2.2-3.601 3.5-9.6 12.2-21.801 12.7-35.1 7.5-3.4-1.3-6.801-2.7-10.301-3.9-21.199-7-40-3.1-56.4 12.302-13.1 12.3-16.699 12.6-32 2.5-4.699-3.102-9.5-6.2-14.3-9.102-13.7-8.2-27.801-8.3-42-1.398-6 2.898-12 5.698-17.899 9-9.601 5.398-17.899 3.3-25.601-3.602-2.5-2.2-4.899-4.5-7.2-7-7.3-7.898-16-9.2-25.5-4.898-7.899 3.5-15.6 7.5-23.3 11.398-15.301 7.7-17.801 6.7-22.301-9.5-5.399-19.2-11.5-22.1-29.6-13.7-11.5 5.302-22.4 11.9-34.301 16.302-4 1.5-8.199 3-12.399 3.6-8.399 1.3-13-2.6-12.7-11 .301-6.6 1.7-13.2 2.9-19.7 1-5.6 2.399-11.1 3.5-16.6.699-3.602.699-7.3-.2-10.9-1.3-5.199-4.399-8-9.8-8.3-6.801-.399-13.2 1.3-19.601 3.101-15.399 4.399-30.2 10.601-45 16.5-3.101 1.199-6.3 2.5-9.5 3-4.5.801-6.5-1.699-4.899-5.801.899-2.5 2.5-4.699 3.899-6.898 9.5-15 20.8-28.602 31.7-42.4 2.899-3.7 6.1-7 5.5-12.3-.4-3.4 1.8-5.601 4.399-7.2 21.399-13.5 42.699-27.3 66.101-37.2 3.699-1.6 7.5-2.899 11.6-2.8 2.301 0 4.9-.3 6.101 2.4.899 2.1-.399 3.898-1.5 5.5-2.899 4.1-6.5 7.6-10.3 10.8-10.301 8.5-20.301 17.3-31.4 24.7-1.6 1.1-3.399 2.1-4.199 4.3 1.8 2.5 4.199.5 6.199.7 5.601.699 6.9 2.699 4.5 8-1.5 3.3-3.801 6.3-5.1 9.699-2.301 6.399.699 10 7.199 8.699 3.199-.6 6.301-2.1 9.399-3.199 2.801-1 5.5-2.399 8.4-3 7.8-1.601 12.3 1.699 12.899 9.601.5 7.3.101 14.7.399 22 .2 4.899-.899 11.1 4.7 13.2 5.899 2.1 8.699-3.9 11.699-7.5 6.699-7.9 13.6-15.602 21-22.7 2.899-2.8 6-5.3 10-6.5 8.199-2.3 13.199 1.7 12.399 10.2-.699 6.898-4.5 12.398-8 18.1-2 3.3-4.899 6.101-5.5 10.101 3.4 1.601 5.101-.5 6.9-1.699 6.6-4.602 12.399-10.102 18-15.801 4.199-4.301 8.699-8.301 14.1-11.101 11.101-5.6 22-.5 24.4 11.601 1.699 8.5 2.5 17.101 3.8 25.699.399 3 .899 6 1.801 8.801 2.399 6.801 7.1 9.301 14.1 7.5 6.601-1.699 12.101-5.399 17.7-9.101 10.699-7.2 13.3-6.899 22.101 2.2 10.199 10.5 22.5 10.7 33.5.2 3.3-3.2 5.899-7.2 8.899-10.801 2.3-2.801 4.5-5.801 7.3-8.199 5.301-4.602 8.801-4.301 13.9.6 13.699 13 21.6 13.9 37.6 3.7 4.5-2.8 8.4-6.5 12.801-9.601 7-4.899 9.1-4.899 15.899.601 4.7 3.8 9.399 7.5 15.399 8.899 7.7 1.801 11.601-1.301 11.2-9.199-.2-3.602-1.301-7.2-1.899-10.801-.4-2.801-2.4-6.199.899-8.199 3.101-1.801 5.601 1.1 8 2.6 5 3.3 9.8 6.9 14.8 10.2 3.7 2.399 7.7 4.1 12.101 4.399 7.399.5 11.399-2.601 12-10.101.399-4.6-.3-9.3-.399-14-.101-3.2 1.699-4.2 4.5-3 3 1.4 5.899 3 8.899 4.601 9.8 5.101 20.399 8.199 31.2 10.601 8.6 1.899 10.899-.3 8.8-8.5-7.7-30.601-19.899-58.7-44.101-80.2-2.101-1.899-4.899-3.5-5.3-7.3 9.199-.801 16.399 5.6 25 6 4.308 1.194 8.308 2.992 12.008 5.694zM1058 966c2-7.1.6-13.6-2-20.398-5.7-14.9-11.4-29.7-16.7-44.8-2.3-6.5-5.199-12.802-11.399-16.7-4.101.5-3.301 3.6-2.899 6.1 1.5 9.9 1.1 20 .899 29.9-.101 3.7.101 7.898-3.7 10.6-3.5-2.898-3.8-6.8-5-10.1-3.199-8.8-7-17.3-12.3-25-1.899-2.7-4-5.4-6.399-7.602-3.101-2.8-5.5-1.8-6.101 2.4-.5 3.6-.2 7.3-.5 11-.2 2.8 1 7-2.801 7.6-3.5.602-4.3-3.6-5.6-6.1-2.301-4.4-4.101-9.1-6.4-13.5-1.3-2.5-2.5-1.4-3.1.7.5.6.699.7.5.5 0 0-.2-.2-.5-.601-2.2-2.601-3.4-5.699-4.801-8.699-4.699-10.7-9.399-21.301-14.101-32-.899-2.102-1.8-4.801-4.5-4.801-3.399-.101-4 3.101-4.8 5.601-2.601 8.1-2.5 16.5-1.3 24.8 5.5 35.4 16.8 69.2 30.8 102 1 2.2 1.601 5.2 5.399 5.5 1.899-4.2.7-8.4 0-12.6-.899-5.2-2.5-10.4-2.199-15.8.199-3 .3-6.5 3.699-7.602 3.801-1.3 5.2 2.3 6.7 4.7 4.199 6.4 8 13.1 12.199 19.4 3.301 5 6.9 9.8 10.5 14.6 1.2 1.6 2.801 3.2 5 2.5 2.2-.7 2.5-3 2.801-4.9.3-2.3.5-4.6.899-6.898.7-4.3 1.8-8.5 4.5-12.102 3.301-4.5 7.301-4.698 10.7-.3 2 2.602 3.3 5.7 4.699 8.8 2.399 5.5 4.399 11.102 7 16.602 1.601 3.398 3 .6 4.399-.602C1054.1 980.7 1053.8 972.7 1058 966zm906.3 230.302c-3.3-11.302-3.199-23-4.199-34.602-1.101-13.198-2.7-26.198-6.801-38.898-1.8 6.198-2.601 12.398-3.899 18.5-1.301 6.198-2.2 12.6-6.101 18.1-1.3-10.5-1.699-20.7-3.199-30.899-2.2-15.301-4.4-23-8.9-28.5-2.6 3.801-1.199 8.899-4.899 12.5-.8-7-.5-14-.899-20.899-.399-7-.801-14-2.2-20.8-1.3-6.4.601-13.7-4.5-19.4-3.101 2.4-2.699 5.3-2.601 7.8.9 20.7-4 40.3-11.3 59.4-2.7 7-3.101 14.2-2.399 21.6 2.8 26.5 5.899 52.9 9.899 79.3 1.8 12.4 3.899 24.802 5.899 37.2 2.5-25.7-.399-51.898 9.7-76.7 2.899 13 6.199 25.602 10.101 38.802 4.1-3.602 3.5-7.102 4-10.302 1.699-10.898 4.3-21.6 8.6-31.698.801-1.9.801-4.9 4.601-4.802 2.1 4.9 2.2 10.2 3.1 15.4 1 5.8 1 12.1 5.701 16.6.695-2.504.695-5.104.296-7.702zM1161.4 927.4c1.101-6.2 1.601-12.6 2.699-18.8 4.101-24.2 11.5-47.2 24.9-68 2.1-3.2 3.6-8.601 8.1-7.8 4.5.8 3.699 6.5 4.4 10.199 5.8 28.101 11.3 56.199 17 84.301.5 2.3.399 5.2 3.199 6.6 2.5-2.8 2-6 2.301-8.9 1.899-21 6.3-41.5 13.8-61.198 3.5-9.102 7.7-17.802 14.601-24.802 4.699-4.8 8.101-3.8 9.601 2.9 1.399 6.2 2 12.5 2 18.9 0 10 0 20 .3 30 .101 3.6-.399 7.898 4.899 10.7 17.101-40.7 31-81.802 41.801-124.102 1.199 11.7 1.5 23.2.1 34.8-1.199 10.2-3.3 20.4-2.899 30.801.101 3.601-2 9.601 3.2 9.899 4.399.3 4.5-5.8 5.3-9.5 2.801-13.399 4.7-27 5-40.6.7-34 .399-68 .301-102 0-3.8.601-9-4.301-10.101-4.3-1-5.699 3.801-7.699 6.699-10.801 15.9-17.601 33.602-23.801 51.602-.8 2.3-.899 5-3.8 7-2.301-6-2.2-11.7-2.399-17.301-.301-5.699.199-11.601-3.301-17.801-3.5 4.4-4.3 8.4-5.5 12.102-7.101 22.199-12.199 45.1-21.699 66.5-1.101 2.398-1.9 5-3.301 7.3-1.9 3.3-4.3 3.2-5.8-.101-1-2.399-1.602-5.101-2.102-7.699-2.5-13.102-4-26.301-4.199-39.7-.301-14-.1-28-.301-42 0-2.601.801-5.9-3.5-8.4-2.299 8-4.5 15.3-6.5 22.601-4.299 16.101-8.398 32.199-12.799 48.301-.9 3.199-1.101 7.1-5.601 9.5-2.899-7.5-3.801-14.7-5.102-21.9-4.1-23-7-46.1-9.898-69.2-.301-2.398.398-5.5-3-6.5-.7.4-1.399.602-1.801 1-.699.7-1.399 1.5-2 2.2-9.6 12-15.1 25.7-17.199 40.9a1390.768 1390.768 0 0 0-9 86.398c-2.5 35.2-3.899 70.5-3.301 105.802.101 3.1-.899 6.8 3.199 9.198 3.302-2.598 3.502-6.396 4.102-9.798zm281.4-184.9c3.5-6.1 7.2-12.1 12.7-16.6 4.5-3.6 7.5-2.5 8.199 3.1.5 4.302.1 8.7.6 13 .701 6.2 3.701 7.4 8.701 3.5 2.899-2.198 5.299-5 8.1-7.398 7-6.102 8.601-5.8 13.4 2.1 3.699 6 6.299 6.5 11.899 2.102 3.101-2.5 5.898-5.5 9.101-7.801 9-6.399 14.299-5.101 18.899 4.801 3.199 6.898 5.601 14.3 8.8 21.199 1.6 3.399 2.5 9.399 6.899 8.601 5.4-1 3.699-7.101 3.601-11-.601-22-2.5-43.9-6.9-65.5C1546.1 689 1545 685.5 1543.6 682.1c-1.801-4.3-3.899-9-9.5-9.102-5.5-.1-6.5 5-8.1 8.9-2.601 6.1-5 12.4-7.601 18.5-.601 1.5-1.7 3.1-3.601 3.1-2.5.102-3.2-2-3.899-3.898-1.301-3.8-2.399-7.602-4-11.3-1.301-3-2.801-6.4-6.899-6.4-3.601 0-4.7 3.4-6.101 5.9-1.899 3.5-3.5 7.198-5.5 10.698-1.301 2.2-2.5 5.2-5.801 4.5-2.699-.6-2.801-3.5-3.399-5.698-.8-2.9-1.3-5.9-1.9-8.802-1.199-5.198-2.899-10.3-5.699-14.898-3.6-5.8-6.699-5.7-9.899.398-2.199 4.102-3.699 8.602-7.199 11.9-3 2.8-5.2 2.3-7-1.4-.601-1.198-.801-2.5-1.301-3.8-1.4-3.5-1.4-9.3-6.601-8.3-4.899.9-3.6 6.5-3.6 10.2-.101 19.7 0 39.3.1 59 0 2.6-.5 5.398 1.5 8.5 3.4-1.796 3.8-5.098 5.2-7.598zm480.3-5.1c-3.1-12.3-6.699-24.4-11.801-36-1.199-2.7-2.5-5.5-4.1-8-2.4-3.6-5.601-6.1-10.101-3.5-4.199 2.5-5.899.3-7.6-3.1-2.601-5.4-5.4-10.7-8.2-16-1.101-2-2.399-4-3.8-5.801-1.2-1.5-2.801-3.399-5-2.199-2.2 1.1-1.601 3.398-1.301 5.398.399 2.301 1.1 4.5 1.5 6.801 1.6 8.801 3.399 17.699 4.801 26.5.6 4.101 1.399 8.399-1 13.399-8.2-10.399-14-21.7-24.5-30.8-.5 7.7 4.3 13.5 2.8 20-2.2 0-2.899-1.2-3.7-2.2-3.899-5-7.6-10.1-11.6-15-3.2-3.899-6.9-7.3-12.2-8.1-6.3-.9-9.601 3.1-7.399 9 .5 1.2 1.199 2.399 1.899 3.5 11.899 19 20.399 39.6 28 60.7.7 1.898.399 4.8 3.801 5.3.199-1.5.5-2.8.5-4.101.199-5-.4-10 1.199-14.899 1.601-4.9 4.601-5.601 7.899-1.601 2.101 2.5 3.601 5.601 5.4 8.399 1.699 2.8 2.199 7.3 5.699 7.7 4.601.6 3.601-4.7 5.301-7.3 3.301-5.102 7-5.801 11.301-1.2 2.898 3.1 5.299 6.899 7.398 10.6 7.602 13.301 15.301 26.5 21.602 40.5 1.398 3.2 3.398 6.2 5.1 9.301-1.301-7.699-4-14.801-6.301-21.899-2.399-7.3-4.699-14.601-6.399-22.101-1.699-7.101-5.699-13.801-4.399-21.899 6.399 1.5 9.399 7.399 15.5 9.1 1.901-4.198.501-7.398-.299-10.498zm-840.8 564.7c3.601 11.1 7.801 21.899 12.399 32.6 3.899 8.9 8.399 17.4 13.801 25.4 1.8 2.8 3.5 8.2 7.601 6.2 3.6-1.802 1-6.602.5-10.102-.2-1.6-.801-3.199-1.101-4.898-1.5-8.2-3.5-16.302-4.5-24.5-1.5-12.9-2.101-25.9 1.601-38.602.6-2 .6-4.898 4.5-4.898 3.6 10.398 4.199 21.8 10.1 31.8.9-9.601.9-19 .9-28.5.1-18.5-4.7-36.2-8.801-54.101-.699-2.801-1.399-6.399-5.199-6.301-3.801.102-4.2 3.801-5.2 6.5-3.2 8-6.101 16.2-9.5 24.2-1.2 2.9-1.7 6.5-5.5 8-3-2.9-2.7-6.8-3.7-10.2-4.199-14.699-8.1-29.5-12.399-44.199-.8-2.899-1-7.801-5.199-7.199-3.4.5-2.199 4.898-2.5 7.8-.5 3.7.899 7.8-1.699 11.4-3.201-1.802-3.4-4.7-4.201-7.102-5.199-14-10.299-28.1-15.5-42.198-1-2.802-2.1-5.602-3.6-8.2-1.699-2.9-3.801-2.4-5 .5-2.199 5.398-1.9 11-1.301 16.7 1.7 14.6 4 29 7.301 43.3 7.899 34 15 68.3 23.899 102.1 1.199 4.601 1.699 9.601 6.801 13.9 2.601-9.102.101-16.8-.399-24.5-.5-7.9-4.601-16 .399-24.4 4.097 2.3 4.396 6.202 5.497 9.5z"/><path id="cl2" fill="#448986" d="M1035.5 686c-6.801 61.602 1.699 123.9 27.8 181.802-7.8 1.5-11.5-2.5-15.199-5.602-7.7-6.5-14.601-13.5-20.5-21.1-13-16.7-25-33.9-34.9-52-8.399-15.3-13.3-31.2-11.8-48.2.5-6 2.899-10.7 8.101-15.3 11.1-9.7 21-20.3 32.699-29.601 2.998-2.399 7.299-9.099 13.799-9.999z"/><path fill="none" stroke="#000" stroke-miterlimit="10" stroke-width="6" d="M1256.1 1434.5c19.601 9 54.5 76.302 54.5 76.302 25.9 139-15.6 196.5-39.5 215.698-23.899 19.2-77.6 38.302-69.1 31.102s19.1-41.8 16.6-69.3-15.699-15.5-21.301-13.102c-5.6 2.4-32.1 11.4-32.1 11.4-97.101 17.2-143.601-27.8-136.601-28.101s44.5 20.301 90.301 2.5c99.199-80.199 71.699-126.199 68.8-161.199s-25.199-29-81.5-83.2c-62.699-68.8-83.8-199.5-85.601-227.3-1.8-27.801-11.1-9-11.1-9-18.601 123.1 41.1 198.898 41.1 198.898m139.101-311.498c6 30.3-6.199 89.8-8.3 95.2 4.3 35.8 10.398 30.3 37.3 48.6 65.899 34.802 60.301 137.9 59.6 166.102-.399 17.199-12.699 42.8-22.199 56.898-6.1 9-11.199 13.2-11.301 7.4-.299-152.7-36.699-193.1-69.5-179-9.299 8.6-26.699 8.9-27.799 6.1-1.101-2.8 2.799-42-3.5-101-2.9-13.898-7.701-70-19.9-107.3 17.9 68.3 24.601 174.101 22.199 215.601-8.1 72.5 40.101 103.301 55.4 113 16.6 12.301 30.7 23.899 42.7 34.601m-194.799-46.1C867.3 1248.7 959.3 1138 974.2 1076.601c10.899-30.4 19.801-57.2-14.601-105.8-56.399-82.601-26.899-135.4-22.399-160.5 4.5-25.102 46.801-75.5 52.399-82.9 5.6-7.399 40-38.5 40-38.5l17.199-27.1C1151 401 1444 370 1459.199 370.801 1474.4 371.6 1583 354 1729.4 442c146.4 88 187.6 208 197.6 245 30.5 75.5 5 229 5 229-5 37.5-39 92.5-39 92.5s-4.5-77-4-68.5 3.399 18.2 0 86c-25 153-113 208-101.7 197.4 11.301-10.6 28.7-80.4 30.399-74.9 1.7 5.5-40.601 26.4-36 17.302 61.301-65.802 67.399-144.3 81.301-192.8 16.101-114.2-8.399-199.002-10.399-182.4s-71.301 144-52.7 102.7c8.399-148.8-27.3-222.7-23.8-208.7.5 97.3-40.2 196-36.5 190.3 3.699-5.7-9-199-16.101-120.5s-90.899 242.2-84.301 209.602c6.601-32.602-29.3-374.7-29.899-300-.601 74.699-45.3 207.3-69.101 223.898-1.101-107.8-4.399-99.398-16-94.1-11.601 5.3-34.5 81.3-51.101 127.3-21-73.5-49.3-144.899-49.3-144.899s-9.5 32.301-9.7 123.101c-78.5-149.3-11.699-240.601-14.8-243-3.101-2.4-35.7 84-46.601 126.8C1306 916 1374 1121.302 1374 1121.302s-46-49.302-44.2-42c1.801 7.3 4.2 20 47.899 125.1C1298 1190.802 1224 996 1221.5 1003.302c-2.5 7.3 82.6 163 85.899 193.3-65.301-20-130.7-150-159.7-212.7s-21.601-200.1-16.3-239.3c-21.301 113.3 12.699 235 9 234.3-3.7-.7-14-6.3-14-6.3-125-133.7-84.7-335.3-85.301-296.3-8.699 34-5.3 108.3 21.301 195.3-72.7-39.7-84.801-141.2-86-127.5C1007 856 1054.9 868 1058 870s32.1 57.802 34.899 64.4m755.001 215.1c-2.101 56.2 16.699 81.102 58 128.5 41.3 47.4 41.3 47.302 105.3 86.9 93.4 57.2 87.301 99.5 92.7 163.1 17.899-65.3-.601-98.1-22.899-150.898s-62.301-70.9-86.5-91.7-34.5-44.8-29.5-103.399c5-58.601.699-57.301-6.199-113.899-6.899-56.602.3-63.102.3-63.102s28.2 5.102 47.1 70.802C2009.3 967.7 1934 902 1934 902m30.6 285.802c8.699 25.3 46.801 40.198 65.301 40.898 18.499.7 60.601 10 84.7 15-8.801-21-60.7-33.6-73.7-49.198-13-15.602-75.2-79.802-75.2-79.802m87.998 116.8s31.801 49.102 20.301 115.102c-6 26 10.5 10.5 12.8 0 2.301-10.5 9.7-74.3-17.399-112.3M1942 818.5s147 113.5 69.1 323.4c-4.801 27.4 12.199-6.2 15.199-13.7S2104 943.302 1944.5 802.5M948 1264s-24 152 233.5 277.4c12.899-8.5-9-14.9-18-22.4-9.5-5.6-184.5-87.5-200.7-227.5"/></svg>