<svg xmlns="http://www.w3.org/2000/svg" id="hair" viewBox="0 0 3000 3000"><path id="cl1" fill="#603A3B" d="M1440 326c30 17 112 24 161 43 77 19 101 91 100 81s-52-60-52-60-24-124-18-111 84 74 104 105 16 87 24 98 100.9 90.6 113 119c48 126 22 294 18 313s-59 113-46 74c-7-159-67-277-67-277l5-110s0 51-10 109c-52 118-175 180-172 176s124-170 117-162-135 129-278 178c37-93 194-330 194-330s-72 113-113 167c-82 105-207 147-207 147s-92 31-173 58c12-79 336-336 328-332s-218.4 192.7-247 218c-19 9-101 130-108 139s-26 38-52 112-117 117-97 101c18-52 50-115 48-193 2-18 20-75 39-150s84-179 177-262c-39 20-84 76-163 209-48 29-92 157-126 248-6-21-29-88-1-167s98-190 191-283c-89 83-168 229-168 229l-140 45s91-96 96-107 55-84 55-84c114-163 361-233 361-233-95 16-279 128-334 194-18 3-228 17-239 0 144-46 464-227 502-241s135-18 286 35c-164-64-276.9-43.4-276.9-43.4-115.5-88.5-96-250.5-96-250.5C1189.2 152.3 1410 309 1440 326zM930.7 995.4S878 1048 875 1049s62.7-17.6 62.7-17.6l-7-36zm139.2-209.6C977.1 917.5 949 1024 949 1024l64.1-32.5s39.5-153.5 56.8-205.7zm-7.9 292.4s32 69.8 50 90.8 43 62 42 72 18-68.8 17-81.4-5.7 55.8-5.7 55.8 20 16.7 30.7 96c2 46 23.3-68 23.3-72s-10.7-47.3-10.7-47.3 27.3 91.3 31.3 150.7c-2 20 32.7-55.3 26.7-94.7l.7 41.3s8.6-19.3 59.3 63.3c8 28 12.7-76.7 12.7-76.7s-94.7-59.3-123.3-121.3c-14.4-21-33.9-36.9-42.9-59.7-19.1-48.2-20.5-101.6-32.6-121.5-8.4-13.7-32 14.2-34.8 9.5-3.6-9.2-43.7 95.2-43.7 95.2zm57.4-118.2s51.9 100.7 111.2 141.3c-6.7-53.3-10.7-82.7-10.7-82.7s-20.4-61.3-17.2-95.6c4.2 46 11.2 83.7 21.9 101s25.3 83.3 143.3 180c-31.3-78.7-35.3-87.3-44-148s-9.8-146-20.9-166.7c-136.3 42-183.6 70.7-183.6 70.7zm.7 3.1c-4.5 1.7-21.6 35.9-21.6 35.9l32-19.1s-5.9-18.5-10.4-16.8z"/><path id="sd1" fill="#452A2B" d="M1716.5 489.5c10-20.3 6-75 6-75 12 12 18 89 18 89C1783 516 1832 615 1827 610.5s-72.5-86-82.5-82-12.5 94-12.5 88.5-22-106.5-27.5-111-84.5 22-78 18.5 24-17 30-27 10.5-15.5 29-25.5C1578 459 1557 460 1557 460c96-20 122.5 4 122.5 4s-8-7.5-9-16-5.5-26.5-5.5-26.5l51.5 68zm-90-201.5s20 89.5 21 97 57.5 62 58 66.5S1640 294 1640 294l-13.5-6zm-444-114s7 89.5 39.5 140.5 53.5 65 55.5 66.5 80.5-28.5 273 44c-1-14-28.5-28.5-38.5-30.5-38-21-159.5-27-241-98.5-54.5-35-90.5-112.5-88.5-122zM760 634c20 6.5 233 1.5 243-9 73.5-76.5 202.5-142.5 202.5-142.5s2-5.5-3.5-3.5c-60 0-193.5 70.5-238.5 88.5S816 608 816 608s-53.1 17.7-56 26zm361-45s-64.5 26.5-153.5 153.8c-44 57.7-125 106.2-137 108.7s-12.5 14.5 24 0 104.5-40 104.5-40 68-97.5 73.5-109 78-111.5 88.5-113.5zm103-6s-102.5 21.5-203.5 251c-47 90-78 195.5-78 195.5l44-25s32-116.5 55-140c13.5-49.5 26-72.5 26-72.5s41-118 156.5-209zm218.5 53.9S1141 874.5 1128 948.5c-7 6.5-4.5 15-4.5 15s43.5 83 73.5 107.5c-30-63-39-80-39-102 .7-4.4 44.5-17 44.5-17s5.5 43 16 65.5 50.5 114.5 146 183.5c2.3-10.4-4.5-15.5-4.5-15.5s-139-123.5-130-236c11-13.5 66.5-32 75-42 8 5.5 1.5-21 1.5-21S1173 935.5 1170 936s20-29.5 182-190c24-25.5 70.5-60.5 73-69s16-25.7 17.5-40.1zM1439 902c162.5-66.5 269.5-178 284-179.5 3-1 29-80 20.5-72.5s-285 216.5-285 216.5S1440 896 1439 902zm337-241s-13 71.5-151 207c-15.5 8.5 100-53 148-159.5 7.5-23 69.5 151.4 72.5 264.5 25.6-40.9 16-273-59-362l-10.5 50zm-641.3 327.7s-28.7 25.3-18.2 182.8c.2 5.8 39 65 40 67s8-28 8-28 16.5 17 18 33.5 15 66.5 15 66.5l20.5-68 6 2.5 17.5 96s14.5-13.5 21.5-57c1.1-6.9 2.5-21.5 2.5-21.5l1.5 18s23-1.5 63.3 76.3c8.7 28.7 10.2-74.8 7.7-82.3-.3-.8 57 40.4 75.1 63.9 2.9 3.7 1.5-25.9 2-27.6.5-1.7-28.1-15.5-29.1-19.8-5.1-21.9-29.9-75-32.7-80.3-3.9-7.3-24.8-.5-29.3-9.3-12.8-24.9-42.1-37-52.7-64.7-21.6-4.5-66.7-28-97.9-47.3 11.9-81.4-28.3-92.5-38.7-100.7z"/><path id="hl1" fill="#845354" d="M1220 228.7c59.7 42.7 108.3 64.3 108.3 64.3s-25.5-24.3-43-34c22.3 11.7 120 71 206.3 97.3-64.3-1.3-146-42.7-146-42.7s38.3 31 32 27.7-83-46.7-83-46.7 7.7 14 26.7 36.7c-65.3-38.3-97.7-78.7-97.7-78.7l25 13.7c.1 0-32.9-40-28.6-37.6zM830 601.3c94.7-14.7 150-42 165.3-48.7s160.7-66.7 168-68 50-3.3 50-3.3 88-34 79.3-39.3-73.1 10.7-73.1 10.7 89.1-40.7 95.1-45.1c-8.7-16.4-95.1 0-95.1 0S887.3 582 830 601.3zM1260 466s-160 53.3-253.3 158c-28 33.3 80-63.3 95.3-64.7-95.3 86.7-167.3 197.3-184 235.3 25.3-14 145.3-192 199.3-202 .7-4-12.7 18.7-12.7 18.7l50-32.7s5.3 5.3-114 114c-8.2 9.8-20.7 26-20.7 26s78.7-61.3 92.7-67.3 22.7-8.7 16 1.3 30.7-34 42.7-41.3 43.3-24 45.3-25.3-38.7 34-54.7 52.7-46.7 62-51.3 72 66.7-57.3 66.7-50c4.4-3.4 12-6.7-10 22-31.8 34.3-114.8 167.8-126.8 196.3l-11.5 41.5S1155.5 728 1235 683c17-12.5 12.5-4.5 2 7.5 0 0-138.5 160.5-194.5 256.5-16.5 26.5 145.5-187 297-286.5 37-19.5 16-1.5 11 3.5s-144 133.5-186 192c-9.5 13.5 123.3-132.2 214.5-179.5 10-6.5 16.5-4 14.5-.5s46-33.5 46-33.5-11 35-14.5 34.5-125.5 120.5-125.5 120.5 70-41 73-41.5 29.5-9.5 1.5 17-149.5 136-149.5 136l14-3s234.5-153 282-225c0 0-85.2 121-97.2 126.3s49.3-27.3 49.3-27.3l53.3-49.3 2.7 2 114-86.7s-154 190.7-162 193.3 210-166.7 241.3-234.7c-8.7 7.3-83.3 27.3-91.3 33.3s66.2-53.3 70-92.7c2.7-30.7-163.3 65.3-174.7 72.7s-44 22.7-7.3-6.7 70-60.7 70-60.7-160 82-166.7 82.7-27.3 6.7 10.7-20 52-38 52-38S1342.7 636 1340 636s-38 12.7 4-20 46.7-36.7 46.7-36.7-76.7 30.7-96 40-101.3 54-41.3 5.3 82-67.3 82-67.3-113.4 57.4-130.7 66.7-48 20.7-.7-22.7 74.7-68 78-78-107.3 44.7-110 46 .7-8.7 19.3-20 64-44.7 66.7-53.3-57.3 11.3-64 15.3-26.5 11.2 12-13.3c21.2-10.4 54-32 54-32zm-18.5 488.5s6 73 13 85c3-28 8.5-41.5 8.5-42.5s14.5 66.5 21.5 70.5-.5-43.5 9-61c6.5 41.5 26 105 40 118.5-18.5-46-31.5-110-30-139s-4.5-48-9-54-2 22-3.5 36-3.5 32-3.5 32-5.5-34.5-20-57.5c0 0-1.5 46-5 51s-15-40-15.5-44.2-5.5 5.2-5.5 5.2z"/><path fill="none" stroke="#000" stroke-miterlimit="10" stroke-width="6" d="M1442 326c30 17 112 24 161 43 77 19 101 91 100 81s-52-60-52-60-24-124-18-111 84 74 104 105 16 87 24 98 100.9 90.6 113 119c48 126 22 294 18 313s-59 113-46 74c-7-159-67-277-67-277l5-110s0 51-10 109c-52 118-175 180-172 176s124-170 117-162-135 129-278 178c37-93 194-330 194-330s-72 113-113 167c-82 105-207 147-207 147s-92 31-173 58c12-79 336-336 328-332s-218.4 192.7-247 218c-19 9-101 130-108 139s-26 38-52 112-117 117-97 101c18-52 50-115 48-193 2-18 20-75 39-150s84-179 177-262c-39 20-84 76-163 209-48 29-92 157-126 248-6-21-29-88-1-167s98-190 191-283c-89 83-168 229-168 229l-140 45s91-96 96-107 55-84 55-84c114-163 361-233 361-233-95 16-279 128-334 194-18 3-228 17-239 0 144-46 464-227 502-241s135-18 286 35c-164-64-276.9-43.4-276.9-43.4-115.5-88.5-96-250.5-96-250.5C1191.2 152.3 1412 309 1442 326zM931.2 995s-51.2 53-54.2 54 61.2-18 61.2-18l-7-36zm81.9-3.5l-69.4 35.2m120.3 51.5s32 69.8 50 90.8 43 62 42 72c10.7-8.3 19.8-181.9 18.8-194.5s-7.5 168.8-7.5 168.8 20 16.7 30.7 96c2 46 23.3-68 23.3-72s-10.7-47.3-10.7-47.3 27.3 91.3 31.3 150.7c-2 20 32.7-55.3 26.7-94.7 0 0 .3 39.2.7 39.3s8.7-17.3 59.3 65.3c8 28 12.7-76.7 12.7-76.7s62.7 37.3 70 67.3c6.7 2.7 2.7-36.7 2.7-36.7M1121.4 960s51.9 100.7 111.2 141.3c-6.7-53.3-10.7-82.7-10.7-82.7s-20.4-61.3-17.2-95.6c4.2 46 11.2 83.7 21.9 101 10.7 17.3 25.3 83.3 143.3 180-31.3-78.7-35.3-87.3-44-148s-9.8-146-20.9-166.7c-136.3 42-183.6 70.7-183.6 70.7zm-24.6 39.2l33.7-17.2m138.2 266s.1 39.7.5 39.7 8.9-17.7 59.5 64.9m-60-104.3s-.4 39.2.5 39.7c2.6 1.3 8.9-17.7 59.5 64.9"/></svg>