<svg xmlns="http://www.w3.org/2000/svg" id="hair" viewBox="0 0 3000 3000"><path id="cl1" fill="#F2D37E" d="M1266 389c206-94 336-34 441 21s239.1 184.6 248.1 349.6c4.067 256.899-27.699 296.924-49.699 336.924-46 84-97 125-113 119 20-34 57-112 57-112s-17.302 16.601-45 29c38-53 58.6-266.524 43.6-337.924C1807 903 1787 918 1789 909s0-117 0-141-25-85-25-85v76c0 20-34 159-39 125s-5-134-5-131-17 76-34 127-67 105-68 102 9-52 0-90-27-246-23-236-18 103-22 138.602C1529 916 1514 901 1514 901V790c0 3-48 146-60 133-19-66-40.2-107.3-42-152-7 18-15 51-14 153-24-25-58-139-49-192-73 191 16 411 16 411s-45-34-60-54c8 23 67 144 67 144s-56-36-115-99c3 10 43 79 33 84-17-7-78-75-93-99s-68-161-68-161l-32-187s21 131 25.6 165.602c-16.5-6-94.5 16.5-61.5 114 69 135 157.5 157.5 157.5 157.5s-31.5-61.5-33-54-54-16.5-85.5-45-87.8-107.601-91.5-129c-51-328.5 64.5-492 180.4-546.101 13 .5 43.6 42.601 40.1 37.601-49.5-69-144-115.5-144-115.5C1170 313 1266 389 1266 389zm-157.2 102.802S987 435 869 521s-95 225-90 245 12.9 146 156.9 203c42.102 16 72.7 11.102 72.7 11.102S948 675 1108.8 491.802zM1051 481s2 38-62 83c-9.102 2.9-76.102-57-85.7-58 0 0-54 62.7-30.7 142 13.4 28 63.3-4 63.3-4l48-73.8c.1 0 61.4-46.2 67.1-89.2zM936 644c-26 25.302-46 10.2-62 15.5-19.302 84 8.698 129.9 21.3 131.2C907.9 792 930 754 930 754l62 50-56.7-53.3 47.3-61.3 25.3-3.3h-24.7l-48-37.3M888 514.7c-95.302 74-91.302 129.3-91.302 129.3l30.7 46.7 36-39.3C864 609.302 870.6 574.5 888 514.7zm-99.302 126.602c-21.3 84 0 142 0 142l36.7-86.7-36.7-55.3zm72 268.698l6.2-98.698s-4.2 79.3.602 102c67.898 4.698 105.3-16 105.3-16S979.4 899 996.4 904C888.698 854 888 793.7 888 793.7L861.3 804l-68-20.698C790 868.7 860.698 910 860.698 910z"/><path id="sd1" fill="#C39958" d="M1197 1070l155.5 139 18 46-5.802-1.5S1273.5 1223 1266.5 1223s-47.9-14.898-47.9-14.898-30.1-15.2-45.6-26.102c-77.302-49.3-105-116-116-124s-35-48-53-77c-108-7-171.302-74.3-191-119 31 22 49-29 49-29s9-27-.7-29c-91.3-20-80.2-19.4-80.2-19.4l13.6-33.3s29.301 23.698 45.301 27.698 24-32 24-32l2-61-5-29-35.699 39.7-39.102-64.8s5-18 6-13S819 651 837 646c7-2 19-12 29-48 16-70 37.198-107.698 27.198-87.698C840.198 656.302 949 623 949 623s-7 9-18 22-47 14-47 18-14 75 21 83c53 11 67-77 67-77 12-122 79-188 79-188l56.8 12.802L1139 462l50-28 47 40.602 7 18.398-109-18s7-5-31 22c-115 160-106 307-102 317s13 25 45 35 53-66 53-66l29 165 65 117 9-75 53 92V982l61 77s9-72 9-57 22 85 40 141c-16-9-55-46-64-55 0 16 80 144 63.698 140.102C1295 1173 1255 1125 1257 1134s56 94 32 81-80-69-93-101c-21-26-66-150-66-150m267-37c-2-6-1-94-1-108s12-42 12-42l46 155 61-138-1 107c54.698-35.698 78-207 78-207s36.698 244.7 26 288c61-56 73.3-106 97-206-1.802 7.9 3 75.9 10 113.9 41-75 36-212.9 38-204.9 41.5 74.5 27 224 27 224s34.242-52.574 48.848-90.115l9.821 20.347c8.027 190.684-43.915 293.081-39.269 290.292 5-3 40-26 40-26s-49 98-48 110c99-120 140-286 140-286s-51 104-60 128c-3-44-29.4-10.524-10.4-133.524s-22-224-22-224-52 133-41 86-39-156-39-156l-40 174-27-75s-40 151-46 133c-44-183-61.602-194.6-61.602-194.6L1549 808.2l-13-81.2-73 133s-46.802-150.198-57-165c-9 11-46.5 143.102-46.5 143.102S1399 933 1397 927z"/><path id="hl1" fill="#FFFDC9" d="M856 542s2.698 76-52 74.7c-1.302-17.398 49.3-71.398 52-74.7zm-23.302 154.7S817.398 757.4 818 762c.6 4.602 22.698-21.3 23.3-26 .6-4.698 10-27.3 10-49.3l-18.602 10zm62.602-10s-6 34.7 5.3 34 14-16 20-17 7.3 15.602 10.7 20.9c3.398 5.3 20-5.3 20-19s3.3-27.601-8-29.601-42-7.299-48 10.701zm33.398-156l-13.3 14.7s-3.3 60 6.7 60 34.7-16.7 36.7-22.7 8-26.1 0-34.1-30.1-17.9-30.1-17.9zm-9.398-15.398l124-12s9.3-10.7 8-24.7-133.2 3.1-140.7 22.7c-3.6 9.698 8.7 14 8.7 14zM1168 518s-15.302-10.698-31.302 20.7c-16 31.4-40 83.3-50.698 93.3-10.7 10 90-62 93.3-64s-18 51.2-16 65c2 13.802 52.7-41.6 56-43.6s14.7-14.7 17.3 16 26-14.7 42.7-18 22.7 23.3 24.7 25.3 21.698-.7 38.5-19.3c16.8-18.6 12.1 10.7 14.1 12s17.3-28 23.3-26 15.3 4.7 22 15.3c6.7 10.602 24.7-17.3 27.3-10 2.602 7.3 9.302 26 18.7 32 9.399 6 25.3-24 22-71.398-3.3-47.4-10-46-28.7-18.7-18.698 27.3-28 43.3-33.3 4-1.3-17.3-28.7 30-44.3 32.7-6.4 5.3-27.7-3.302-30.4-21.302-2.699-18-17.3 6-24.699 8-12 6.7-34 4-43.301-5.3-9.3-9.3-17.3 12-28 12-10.699 0-10.699-12-22-14.7-11.3-2.698-12.699 6-22 6.7-9.3.7-19.2-29-25.2-30.7zm-42.7 181.9s14 214.1 26.7 242.1c7.3.9-3.302-41.3 31.3-97.3 0 19.3 13.3 65.3 18 79.3 6.1-23.898 6.7-69.3 22-75.3 10.1 10.4 15.3 64 34 85.3 7.3-114 21.3-176.698 32.7-204.698 11.398-28-44 75.898-52 91.6s-8-67.6-12.7-75.6-20 59.698-32.7 64.898-6-56.2-13.3-72.2-11.3 65.7-12 70.2-28-99.8-42-108.3zm-14.602-336.599c2 0 150 48.699 163.302 66.699 82.698-65.3 276-72.699 330.698-57.3C1498 316 1297 368.1 1270 390c-57.302-48.699-163.302-49.1-180-42.898-16.7 6.199 20.698 16.199 20.698 16.199zm434 151.399l4.7 75.3s6.7 12 16-25.3 10.7-20.7 14-16.7 12.7 57.4 25.3 23.4c12.602-34 20.7-11.4 28-2.7 7.302 8.7 10.7-5.3 11.302-19.3.6-14 13.3-28.7 28.698-3.3 15.4 25.399 42 29.3 43.302 31.3 1.3 2 17.3 16.7 14-12-3.302-28.7 6-32.2 23.3-12.1s26.7 30.1 29.3 5.398c2.6-24.698 50.7 35.301 56 45.301s48.7 48.699 0-17.301c-16-37.3-36.7-94.699-150-143.3 32.7 25.3 50.7 71.3 50.7 71.3s-70.7-38.699-83.3-36c9.3 9.301 17.3 24 17.3 24S1627.3 472 1618 488c-9.302 16-5.302 25.301-5.302 25.301s-37.3-22.7-38-14.7c-.698 8 8 24 .7 24.7-7.298.699-30.7-8.601-30.7-8.601z"/><path fill="none" stroke="#000" stroke-miterlimit="10" stroke-width="6" d="M1007.6 982.1c-51-328.5 64.5-492 180.4-546.102 13 .5 43.6 42.602 40.1 37.602-49.5-69-144-115.5-144-115.5C1169 315 1265 391 1265 391c206-94 336-34 441 21s239.1 184.6 248.1 349.6c1.029 251.566-27.699 296.924-49.699 336.924-46 84-97 125-113 119 20-34 57-112 57-112s-17.302 16.601-45 29c38-53 58.6-266.524 43.6-337.924C1806 905 1786 920 1788 911s0-117 0-141-25-85-25-85v76c0 20-34 159-39 125s-5-134-5-131-17 76-34 127-67 105-68 102 3.754-51.046 1-90c-3.5-49.5-28-246-24-236s-11.925 104.222-22 138.602C1548 878.5 1513 903 1513 903V792c0 3-48 146-60 133-19-66-40.2-107.3-42-152-7 18-15 51-14 153-24-25-58-139-49-192-73 191 16 411 16 411s-45-34-60-54c8 23 67 144 67 144s-56-36-115-99c3 10 43 79 33 84-17-7-78-75-93-99s-68-161-68-161l-32-187m-88.4 209.1c104.5 181.5 172.1 226 296.2 251.5 44.6 9.2 66.6 21.3 66.6 21.3m-262.6-761.098S986 437 868 523s-95 225-90 245 12.9 146 156.9 203c42.102 16 72.7 11.102 72.7 11.102S947 677 1107.8 493.802zm-58.5-14.102S1052 521 988 566c-9.102 2.9-81.4-60.3-91-61.398 0 0-48.7 66-25.302 145.398 13.4 28 63.302-4 63.302-4l48-73.8s60.698-49.5 66.3-92.5zM935 646c-26 25.302-63 12.302-65.302 6-19.3 84 4.7 142.302 17.302 143.7 12.6 1.4 47.3-43 47.3-43l61.2 57.5-61.2-57.5 47.3-61.3 25.3-3.3h-24.7l-51-39.8M897 504.6C798.698 572 786 634.9 786 634.9l39.3 61.7 43.3-46.7c-6.7-38.8-10.6-83.2 28.4-145.3zM786.1 634.9c-21.3 84-5 149.6-5 149.6l43.2-85.898-38.2-63.702zm64.4 283.3L861.3 804s-15.602 91.5-10.8 114.2c67.898 4.7 121.198-18.8 121.198-18.8s6.602 1.7 23.602 6.7C887.698 856 887 795.7 887 795.7L860.3 806 782 789.2c16 78.8 68.5 129 68.5 129z"/></svg>