<svg xmlns="http://www.w3.org/2000/svg" id="hair" viewBox="0 0 3000 3000"><path id="cl3" fill="#FFFDF3" d="M1272.3 770c-14.2 25.101-30.4 44.5-40.3 71.7-2.101 5.601-4.101 11.3-6.5 16.7-2.301 5.2-4.5 10.8-12.2 8.6-8.9-2.5-13-8.5-11.8-16.8 4.1-27.3 12.1-53.5 21.399-79.399 1.5-4.2 4-8.801-1.2-12.5l.101.1c-10-4.5-17.3-2.8-22.9 5.7-11.3 17.2-22.7 34.3-32.399 52.5-5.7 10.8-9.2 11.3-19.4 4-7.5-5.3-12.5-12.8-18-19.8-2.6-3.301-2.4-7.2-2.1-11.4.899-11.3 5.8-21.8 6.5-33.1 1.8-10.2 6-19.7 10.199-29.101 1.801-3.899 4.101-7.6 5.601-11.7 1-2.699 3.199-6.3-.2-8-3.6-1.8-5 2.2-6.4 4.7-6.699 12.601-13 25.5-17.6 39.101-1.6 4.699-3 9.5-5.9 13.699-6.5 6.7-9.1 6.4-12-2-3.6-10.699-2.5-21.8-1.6-32.699.7-8.301 1.7-16.5 1.5-24.9-.2-10 3.5-18.2 11.1-24.6 15.5-12.9 32.9-21.4 53.5-21.601 13.2-.1 26.801-1.8 38.601 6.5 24.1 15.2 48.199 30.5 72.199 45.7 6.2 3.9 12.301 7.9 18.4 11.8 1.1.7 2.2 1.5 3.3 2.2 3.301 1.8 7.101 3.7 9.801-.2 2.8-4-.5-6.8-3.601-8.899-7.1-4.801-14.399-9.5-21.6-14.301-5.8-3.8-11.5-7.8-17.3-11.699-23.101-20.5-45.9-41.5-71.801-58.601-2.699-1.7-7-3.399-5.6-7.2 1.5-4.1 6.2-3.399 9.7-2.8 45.3 7.7 90.8 14.601 134.3 30 4.7 1.7 9.1 4 13.4 6.601-12.5-8.101-23.9-17.5-36.101-26-26-18.2-52.1-36-84.2-42-9.8-1.801-19.6-3.9-29.6-4.101-4.3-.1-9.9-.399-11.4-4.7-1.899-5.199 3.4-8.199 7.101-10.8 27.5-19.7 53.3-43.3 85.3-55.899 20.6-8.101 45.6-17.301 65.5-16.301 16.6-2.199 31.5-5 48.2-4.699 2.7.1 5.5 1.199 8.2.8 2.5-.3.5.899.8-1.7.3-3.1-.4.6-3.2 0-2.9-.6-4.7.6-7.7.5-34.3-1.1-64.7 4.1-97.6 13.8-32.7 9.601-56.101 22.8-86.3 38.601-1 1.199-9 4.3-9.801 5.8l-4.399.5c-1.2.899-11.3 8.5-11.9 10.5-6.899-3 7.7-25.101 9.601-28 8.699-12.8 11.899-32.101 23.899-42 26.9-21.7 63.7-37.5 95-52.4 28.101-13.399 57.8-21.5 87.8-28.7 14.2-3.399 25.4-6.2 40-7.2 22.101-3.6 40.601 10.5 56.4 23.2 25.6 20.601 49.8 42.9 69.3 69.9 14.4 20 26.7 29.7 36.5 51.8.3.601 3.5 9.4 4.101 9.8 9.899 19 16.399 45.301 20.699 66.2 2.7 10.5-1.399 11.601-12.3 13.3-21 3.4-40.3 8-59.7 14.9-4.3 1.1-10.1 4.2-13.6 6.8-34.3 26.101-59.8 54.9-81.9 91.9-1.399 2.3-3.1 5.2-4.5 7.5l-22.1 41.2-.3-7.7 8.399-36.5 1.4-3.101c2.5-12.1 7.2-24.699 12-36 4.4-10.399 5.5-18 17.8-32 1.3-4.899 3.4-14.3 6.8-18.5 11.5-15.1 18.4-31.199 30.2-46.1 8.7-11 9.9-17.3 17.2-29.2 3.1-5.1 12.2-5.2 7.8-9.899-6.8-4.101-6.5-2.601-10.8.899-8 6.5-15 14.2-22.1 21.601-19.801 20.5-41.601 39.199-58.7 62.3-10.101 13.5-17.9 28-22 44.3-1.5 6.2.7 16.5-2.7 21.9-5.8 8.1-13.7 12.8-21 19.5-11.8 11-21.2 22.8-24.9 37.899-5.6 23.101-4.699 46.7-6 70.3-.6 11-.6 21.2-2.5 32-1.5 8.2-.1 16.5-.5 24.801-1.399 31.6-3.899 64.399-8.3 95.8-1.6 11.3-3.6 22.3-9.3 32.3-13.1 23.2-17.5 48.4-15.6 74.5 2.399 32.9 4.6 65.6 6.8 98.5 2.1 6.6-1.7 16.9.7 23.5.1 2.6-.101 1.9 0 4.5 5 5-1.301 13.7-4 13.5-2.801.7-2.801-10.5-4-11.7-.301-.5-.301-2.6-.301-3.2-1.3-1.899-.8-3.5-2.699-5.3-6.7-22.399-12.7-44.5-14.4-67.8-1.7-23.9-6.7-53.8-6.1-77.9.399-16.199 2.1-28.899 9.5-43.3 10.6-20.5 20.199-42.3 21.8-65.1 1.3-19.601 6.1-38.7 7.1-58.3-1.5-23.9-6.399-44.101-13.3-70-5-11.601-10.5-23-13.9-35.2-1.6-3.7-4.3-6.2-8.6-5.101-4.1 1-4.2 4.7-4.3 8.101-.7 25.2-14 46.3-22.9 68.8-2 5.1-6.399 6.4-11.6 5.1-4.5-1.199-8.7-3.3-12.9-5.399-5.899-3.101-8-7.2-5.2-13.9 2.9-7-3.199-12.8-1.899-20.3 5-28.2 12.399-58.6 23.2-85m546.6-56.703c.8.8 1.7 1.4 2.7 1.9 1.699.9 3.699.8 3.8-1.3.9-13.2 3-26.4 2.3-39.7-.399-6.6-3.6-5.4-6.899-2.9-5.4 4-9.7 9.101-12 16.3 1.1-8.5.899-16.5.6-24.399-.8-23 1.2-45.8 2.7-68.7.8-12.4-1-14.4-13.2-11.4-22.5 5.5-42.2 15.801-58 33-2.8 3.101-6 7.4-10.1 1.2-1.101-4.3 3.699-5.399 6.3-8.8 9.899-12.5 19.2-25.1 31.399-35.5 5-4.3 9.101-9.3 13.301-14.5 4.699-4.9 8.3-10.7 13.3-15.2 3.5-3.1 14.1-5.1 11.399-10.2l1.5-3.699c-1.1-1.301-1.6-6.9-2.6-8.2-2.8-6.7-11.3-3.9-19.3-7-11.8-2.5-19.8-3.5-28.7-4.5-27.6-3.2-52.9-6.5-79.8 5.2-8 2.199-7.5 4.8-7.5 4.8-1-5.3-.2-4.2 3.7-5.7 19.1-7.8 28.399-8.9 49-8.3 12.3.399 30 3.1 42.3 4 2 .1 33 8.399 34.8 5-7.3-5.7-36-27.7-43-33.8-25.2-21.801-61.7-32.801-92.2-46-31.3-13.601-63.899-27.4-98-31.001-14.399-1.8-15.5 3.2-13.699 17.001 2.899 21.3 10.6 40.8 21.399 59.1 7.4 13.8 16 26.9 21.601 41.5 8.3 21.4 16.5 42.9 24.699 64.3 3.7 9.7 4.601 22.4 5.9 32.601 1.4 11-2.7 17.8 20.1 14.8 15.4 2.1 30.101 8 45.101 12.3 19.5 5.5 38.1 14 54.899 25.7 2.9.3 4.9 2.1 6.5 4.1 11.2 14.2 22.7 28.2 31.301 44.2 8.3 12.2 10.899 26.9 13.6 41.4.6 1.5 1.3 4.899 1.7 6.5 6.3 25.899 15.699 48.899 26.1 73.5 7.5 17.699 7.3 35.199 3.3 54.399-5.5 18.3-3.3 21.601-2.199 37.601 0 .699 3.3 17 3.3 17.699 6.6 26.801 12.6 49.101 16.3 76.4 2.5 18.8-3.6 41.2-2.3 60.1 3 42.4 9.9 75.7 5.8 118.301-2 3.899 2.101 11.8-.5 15.699-.399.5-.7 4.5-.399 5.101-.4 4.1-11 39.8-5.4 41.2l14-29.801c1.4-1.8 1.8-8.899 3.2-10.699.8-3.2 2.6-12.5 3.3-15.801 6-28.399-2.4-50.1-5-78.699-3.6-39.601-2.4-79.5 5-118.9 8.9-12.8 5.1-30.7-3.6-45-1.2-1.9-5.4-8.4-6.101-10.6-3.399-5.601-7.899-7.5-8.1-14.101-.2-1.1-.3-2.1-.5-3.2-3-13-2.9-25.899.3-38.899.1-1.3.1-2.601.2-4-.3-3.2 0-6.101 1.6-8.9.2-6 2.7-13.5 4.4-19.3-.8-15.7-6.7-29.3-12.2-44-9.4-25.1-5.1-51.8-9.5-77.9-2.6-4.899-4.2-13.899-5.1-19.3m22.898-228.902c-10.101 6.399-10.101 8.3-3.4 18 9.101 13.1 19.101 25.699 24.4 41.1 2.2 6.3 5.899 11.1 11.2 14.8 5.699 4 11.6 7.8 17.699 11.2 20.4 11.4 39 25.1 56.101 41.3 30 28.5 33.8 66.5 34.1 103.101.4 50 7.9 95 47.9 129.199 8.8 8.101 18.7 14.601 29.8 19.301 5.199-2.7 5.399-8.101 6.5-12.9 7.399-31.8 15.1-63.5 19.699-95.8 2-14 11.801-29.2 8-43.601-.8-2.199-2.899-4.5-4-6.5-16.1-30.5-19.699-64.1-22.699-98.3-2.2-25.2-11.9-54.7-23.4-77.2-17.6-23.6-29.399-47.8-52-68.1-17.1-15.4-45.899-21.9-68.699-16.6-14.9 3.5-28.7 8-42.601 14.5-13.9 6.399-25.701 18.299-38.6 26.5zM1055.1 697.9c-4.6-.8-9.3-.2-13.9.7-17.6 3.2-34.7 8.6-52.6 15.1 22.3-34.7 50-62.8 78.8-90 4.101-3.899 12.5-6.899 9.7-13.2-2.5-5.699-10.8-3.1-16.6-2.699-54.9 4.1-100.5 30.3-144.101 61.3-.6.1-.7 1.6-1.3.5-.2-.3 1.1-1.3 1.7-2.101 8.3-11.199 17.3-21.899 26.6-32.3 16.9-18.8 39-29.8 61.601-39.7 27.199-12 55.1-21.6 85.5-21 7.699.2 15.1 2.2 22.699 2.801 4.2.399 18.101-3.601 16.601-10.101-3.301-6.7-14.801-10.7-20.101-15.7-22.3-21.3-46.8-36.8-77.3-29.899-28.1-.3-64.8 22.399-89.4 37.899-21.199 13.4-38.899 25.1-54.399 51-20 24.4-30.9 53.601-26.2 85.2 2.2 14.601 2.2 31.8-.8 46.3-6.9 33.101-22 61.7-40 90-9.101 14.301-18.4 31.2-27.7 45.301-1.4 2.399 3.2 2.6 5.7 3.6 4.5.2 7.2-3 10.3-5.4 8.9-7.1 16.6-15.3 24.6-23.3 6.3-6.3 12.8-12.3 20.3-17 1.301 1.2 1.4 2.2 1.2 3.101-6.7 26.199-7.8 53.199-11.6 79.8-1.6 11.5-3.3 23-4.5 34.6-.4 4.101.4 8.101 4.7 10.101 4 1.8 7.2-.301 9.899-2.801 5.801-5.399 11.7-10.8 16.5-17.199.801-1.301 1.601-2.601 2.2-4.101.4-.899.7-1.899.9-2.899.899-16 9-29.801 14.2-44.4 2.5-7.1 11.5-10.6 17.3-15.9 18.7-22.6 34.2-43.399 53.8-65.3 22.9-25.5 46.3-53.8 72.1-76.7 10.7-9.5 31-20.199 41.9-29.399.601-4.104-15.899-5.803-18.299-6.204zm-16.8-178l22 .9 34.3 21 36 22.3 4-6-6-10-10.8-2-16.5-24.3-37.3-15c-32.4-16.101-65.801-17.7-100.101-7.2.3.1.7.3.9.3 2.2-.7 4.399-1.5 6.5-2.399 36.2-14.801 72.6-14.601 108.7-.301 18.5 7.301 36.199 16.7 52.6 28.2 3.9 2.8 10.3 8.1 15.8 4.6 2.7-2.899 2.9-6 1.601-8-14.101-21.1-31.7-43.699-50-61.5-12.5-12.199-28.7-20.899-44.4-28.699-14.2-7.101-32-14.001-47.6-11.501-37.9 6.101-69.301 24.7-98.601 50.2-24.1 21-48.5 41.7-72.6 62.601-6.3 5.5-12.7 7.2-18.101 13.6-7.8 9.101-13.399 21.4-15.3 33.3-3 18.5 2.7 38 9.101 55.101 3.5 9.3 7.1 18.7 10.199 28.2 6.801 21.3 5.2 42-5.6 61.899-5.7 10.5-11.3 21.101-16.9 31.7-11.399 21.8-23.899 43-34.5 65.3-1.3 1.8-.899 3.3.801 4.601 3.6.5 2.899 2.8 2.399 5.1-1 4.5-2.399 9 .101 13.5 5.1 2.8 7.199-1.6 9.3-4.5 28.2-38.8 51.899-80 69.5-124.9 4.899-12.399 8.399-23 10.5-35.6.1-1.2.399-4.8.399-6 2-3.5-1-7.3 1.301-10.5 5.8-25.6 16.5-45.8 35-64.4 15.699-15.8 29.399-27.6 48.1-39.899 13-8.601 29.2-14.601 42.7-22.3 9.6-5.9 18-7.5 28.7-10.5m-9.199 389.998c.7-30.4 2.8-62.7 7.5-92.7 4.6-29.2 14.6-55.7 29-81.101.2-.199.2-.6.3-.899 1.3-2.101 1.1.1 3-1.601l1.4-2.6c.399-.9 1.1-.8 1.6-1.6l1.6-2.101c2.2-4.199 20.9-24.899 17.801-23.399-2.5 1.3-28.5 18.3-31 19.8-8.301 6.7-22.101 19.1-29.101 27.1-32 36.2-58 65.5-88.7 102.8-6.6 8-14.899 17.9-19.6 27.2-3.4 6.8-5.7 27.7-3.4 35.3 2.101 6.7 2.101 10.801 3.5 17.7 4.5 22.2 5.4 45.5 7.801 68 2.899.101 11.8-7.3 12.3-9.7 1.1-4.699 3.8-8.399 6.399-12.3 15.4-23.2 30.4-46.7 43.7-71.3 2.2-4.2 4.2-8.7 9-13.2-.2 24.4 5.2 46.601 6.101 70 6.899-2.2 19.399-10.2 23.1-13.2 4.899-15-2.701-26.4-2.301-42.199zM1975 896.5c-8.9-33.5-15.301-67.3-16.601-102.1-1.1-28.8-3.2-57.7-12.399-85.6-6.2-18.8-12.301-37.2-28.9-50-9.2-7.101-18.1-14.7-28.1-20.601-4.601-2.8-9.7-9.399-14.7-5.399-4.601 3.7-1.4 12.399-.101 17.7 1.301 3.199 3.601 7.699 5.801 10.1 8.3 8.7 15.699 19.3 21.399 29.9 11.8 21.8 20.101 39.1 16.5 64.199-1.899 13.2-6.899 29.4-10 42.301-2.1 9-4 20-2 29.5 5.8 28.399 14.5 66.1 26 92.699 3 2.2 7.101-9.6 10.3-7.6l.4 3.6c.3.9.4-1.899 1.1-1.199l.2.199c.601.4 1.101 1 1.4 1.7 11.8 12 19.6 27.101 32.3 40.7 2.8-13.9 1.6-26.6 5.1-38.5-.3-.7-.5-1.3-.8-2 .001-7.298-5.099-12.899-6.899-19.599zm-139.301-123.4c2.601 19.7 2.101 40.5 8.4 59.399 3.9 11.601 7.9 24.7 11.9 36.301 2.199-.4 7.6-4.4 7.8-6.801 1.3-16.199 3.5-32.3 3.899-48.5.801-26.6.301-53.199-1.6-79.8-1-13.899-2.1-27.8-4.6-41.5-2-10.8-5.7-21.2-12.301-30.2-1.1-1.5-1.899-4-4.399-3.1-2.101.7-2.601 2.8-2.7 4.9-.1 1-.1 2-.1 3 .199 10.7-3.2 18.5-2.601 29.2.101 2-3.3 4.6-5.3 5.8-1.3 3.1-.5 6.6-.9 9.8-1.399 11.4-3 23.7-2.699 35.8 1.699 3.1 2 6.5 1.899 10 2.403 5.101 2.603 10.501 3.302 15.701zm92.901 211.4c2.2-6.899 0-12.8 1.4-18.5-.601-2.6-1.2-5.3-1.801-7.899-7.399-9.2-12.1-20.601-21.1-29.7-3 9.8 1.2 17.8.8 26 .8 1.7 1.601 3.4 2.4 5.2C1918 966.2 1920.9 976.7 1928.6 984.5z"/><path id="sd2" fill="#D7D3C8" d="M1210.8 771.2c-14.9 37.4-18.8 71.9-24.9 111.601-3.1 20.5-6 40.8-7.3 61.399-.9 13.601-.2 26.8 3.5 40.2 6.5 23.4 16 22.9 8.3 71.4-1.7 11.399 3.101 27.199-4.3 40-3.9.1-7.7-7.101-9.5-9-10.1-10.5-22.3-22.601-28.9-36.301-23.5-39.3-33.199-77-44.399-123.8-4.4-13.5-6.4-27.899-7.4-42.2-5.5-17.5-11-39.399-14.8-61.399-3.9-23.101-9.7-44.7-6-68.2 4.1-26.6 6.899-47 17.199-71.6.5-1.2 9.301-13.7 10.2-14.5 14.9-13.301 21.601-27.2 32.9-43.2.399-.5 11.399-14.5 11.899-14.9 1.801-.1 7.9 4.7 9.2 5.7 18.8 14.4 32.9 35.1 52.8 47.9.4.199.7.899 1 1.5-12.5-4.601-25.399-4.101-38.399-3.801-22 .5-40.4 9.5-56 24.801-3.8 3.8-6.101 8.5-5.9 13.3.7 17.3-3.3 34.399-2.399 51.8.3 6.1 1.699 11.7 4.699 16.8 4.101-.6 2.2-5.8 5.7-6.5 3.601 4.8.9 9.601 0 14.3-7.8 42.5-9.5 85.4-1.3 127.7 5.1 26.2 12.5 52.3 21.9 77.601 5.699 15.3 14.699 29 22.899 43 1.7 1.899 3.2 3.899 4.4 6v.5c.399-.4.399-.7-.101-1.2-1.699-2.601-3.3-5.2-4.8-7.9-17.8-33.3-30.2-68.899-38-105.3-9.399-44-10.899-87.5-4.399-131.9 1-6.6 2.6-13 4.5-19.399 1-3.4 8-9.2 12.6-10 1.5 5.2-1.1 9.8-2.3 14.5-1.801 7.1-2.9 14.2-4.301 21.399-.6 2.9-.199 5.4 1.5 7.5 6.801 8.5 13.4 17.2 22.801 23.2 4.1 2.601 6.1 2.3 8.6-2.6 5-10.1 11-19.7 16.8-29.2 6.4-10.4 12.9-20.8 19.601-31 .1-.001 17.5-3.701 12.4 11.799M1095 681.801c.399-.9 5.699-10.5 6.3-11.301 4.1-5.8 2.1-12.8 1-20.399-.5-3.4 1.2-6.5 2-10 4.899-20.7 9.7-39.5 18.3-59 1.3-2.8 8.7-8.5 4.5-11.3-.7 3.8-9.2 6.199-13 5.3-20.4-4.8-40.7-3.9-61 1-27.9 6.899-54.1 17.899-79 32.1-8.3 4.7-16.7 9.7-23.6 16.5-13.5 13.2-25.9 27.5-36.4 43.3-1.5 2.4-1.3 4 2 4.101C929 661.5 943.6 653.5 958 645.4c20.5-11.5 41.1-22.9 64.3-28.6 12.899-3.2 26.1-4.4 39.1-6.601 4.9-.8 10.2-.899 16.7.601-36.4 32.5-69.7 65.8-95.1 107 2-.2 3.1 0 3.899-.301 18-7.8 36.8-13.199 56.101-16.6 5.699-1 19.199 2.8 24.6 6.9 13.2-6.899 20.8-12.299 27.4-25.998zM1984 910.5c5.3-19.8 15.899-43.1 25.1-61.6-5.4-9.5-13.7-20.4-17.7-30.8-8.1-21-7.5-38.2-9.2-60.6-1.399-18.9-6.699-38-10.199-56.601-3.301-17.7-13.601-40-26.5-52.899-21.101-21-41.4-35.7-68.301-48.9-2.199-1.1-9-6.7-13-4.5-1.199 14.5-1 35.3 1.5 48.6.5 2.5 7.301 3.8 10 5.4 1.601-5-3.8-9.9-.699-15 2.6 0 4.199 1.2 5.8 2.3 10.899 7.6 22.1 14.6 32.2 23.3 11.8 10.2 22.6 20.5 25.3 36.7.2 1.3 1 2.5 1.5 3.7 8.2 20.8 12.6 42.6 13.899 64.8.9 14.5 2.601 29 2.7 43.7.101 8.5.5 17.3 2 25.7 3.5 18.899 7.7 37.6 11.9 56.3 2.1 9.4 5.399 18.4 11.7 26 1.6-1.6 1.5-3.7 2-5.6zm-703.801-395.3c-35.6 11.7-67.199 27.2-98 48.5-2.8 1.9-5.199 3-7 6-5.699 9.7-17.6 24-23.5 33.601-4.399 7.1 1.7 6.8 8.601 12.199 15.5 12.101 31.5 23.4 47.8 34.301 20.9 14 41.8 28.1 63.7 40.699-.101-1.8-1.4-2.899-2.5-4.1-17.5-18.3-36.801-34.5-57.4-49.3-5.5-3.9-11.1-7.7-16.6-11.5.3-.8.699-1.7 1-2.5 54.1 9.7 108.899 16.6 160.399 38.8 0-2.8-1.399-3.8-2.699-4.7-19.4-14-38.2-28.8-58.5-41.399-9-5.601-17.601-12.4-27.301-16.301-20.6-8.3-42-14.8-64.5-15.399-4.3-.101-8.399-.5-12.1-3.101 1-3.3 3.5-5.3 5.8-6.899 20.2-13.9 39.7-28.9 61-41.4 8.5-5 18.101-8.1 25.601-14.899-.801-.102-3.2-2.802-3.801-2.602zM1248.9 860.9c-5.399 20.9-10.399 42-15.8 62.9-.9 3.6-3.1 11.899-2.6 15.6.899 6.3 4.199 10.8 5.399 17 4.601 24.2 7.4 50 6.7 74.9-.7 25.399 9.8 51.5 19.6 75.199 2.7 6.4 5.4 10 7.801 16.5 7.199 20.101 6.899 40 13.3 60.301 2.5 2.3 3 19.8 4.899 22.199l6.2-9.6c5.601-2.3 4.8-13.5 4.4-17.2v-9.199c-2.9-3.7-1.601-5.5-3.8-9.301-.801-7.6-3-13.8-4.801-21.3-4.3-17.8-11.5-34.2-16.8-51.7-7.5-24.6-8.2-42.8 1-67.3 4.7-12.5 8.9-27.5 10.3-40.8 2.801-26.5 5.101-50.4 11.5-76.3 2.5-9.9 7.601-18.2 15.5-25.2 3.2-2.8 7-12 10-15.2 4.5-4.8 2.5-9.2-.5-15-3.5-6.8-4.5-10.399-7.3-17.5-1.2-3-5-5.3-1.5-7.5 3.2-1.899.4-2 2.5.2.2.2 2.4-.5 2.6-.4-.1-6.199-4.399-6.699-9-6.399-5.199.3-6.699 4.2-6.6 8.399.2 14.7-4.8 28-10.7 41-2.6 5.7-5.1 11.5-7.3 17.4-6.9 17.8-7 17.9-24.3 9.2-8.301-4.2-8.101-4.101-5.801-12.9 1.9-7 5.101-13.8 3.801-21.3-.198.601-8.498 2.702-8.698 3.301zm-37.3-90.8c-5 14.1-10.7 27.7-14.2 42.3-9.399 39.9-11.899 83.2-16.7 123.8-1.6 13.3-3.399 28-.5 41.601.7 7.3 9.801 31.3 14.4 37.5 3.2-2.9 8.5-29.9 9.4-32.7 6.3-19.7 16.6-30.7 25.3-49.4 2.399-5.2 5.2-16.399 6.6-21.899 8-31.601 16.9-63.801 24.9-95.301 4.7-18.399 10.1-33.6 15.899-51.6-4 .6-11.199 3.8-12.8 6.5-13.8 23.1-26.399 46.8-35.6 72.1-1.9 5.301-3.8 10.601-6.101 15.801-3.5 8-4.899 8.399-12.5 3.5-1.1-.7-2.1-1.7-3.3-2.301-4-1.899-4.7-5-4-9.1 3.8-20.9 8-41.7 15.3-61.7 2.601-7.2 4.9-14.5 7.301-21.7 2.699-13.5-9.801-12.8-17.4-10.8-1.4.3-3 2-1.6 2.3 6.001 1.499 6.801 7.8 5.601 11.099zm-446.5 84.4c-1.5 10.7-2.2 21.5-3.4 32.2-.7 6.3-.1 19.2 5.601 24.601 10-15.301 22-30.601 32.199-45.7 17.301-25.601 35-54.3 47-83 9-21.601 16.301-46 15.5-69.8-.399-11.2-1.399-22.5-2.1-33.7-2.2 1.6-8 3-7.8 5.3.7 8.2-1.7 15.7-4.2 23.3-8.7 25.9-20.5 50.4-33.9 74a615.6 615.6 0 0 1-39 60c-1.1 1.5-2.1 4.8-5.199 2.3-5.602 1.699-4.201 6.499-4.701 10.499zm1116.599-374.199c-14.399 7-27.5 15.899-41.8 23.199-3.1 1.601-12.9 4.2-13.4 8.301-.5 3.6 6.4 7 8.101 9.8 1 1.7 4.199 3.899 5.199 5.6 9.101 16.7 19.601 30.5 22.101 49.8.7 5.601-1.5 12.301 3.899 14.5 27 10.5 49.9 27.9 72.301 46 20.3 20.801 31.3 42.5 35.899 70.7 2.7 16.8 7.4 32.3 8.4 49.3 1.3 20.7 3.1 47.301 10.5 66.801 7.6 20.1 27.4 32.199 45.2 44.5-2.2-4.9-5.301-15.601-9.4-18.5-9.4-6.601-15.2-15.9-20.1-25.7-14.4-28.7-19.601-59-14.7-91 .7-4.601.5-9.2-.7-13.8-2.3-9-4.1-18-5.3-27.301-1.2-8.8-2.5-17.6-5.5-26.199-7.7-22.4-23.6-38-41.2-52.7C1927.3 602 1911.8 593.1 1896.3 584.1c-10.801-6.3-22.5-12.101-24.5-26.7-.101-.9-.9-1.8-1.301-2.7-7.5-14.899-17.199-28.3-27.8-42.1 5.7-5.2 12.3-8.9 18.7-12.9 9.5-5.899 22.899-14.5 32.5-20.3-3.099-.7-9.899-.2-12.2.901zM1868.8 910c4.5-15.6 12.6-31.8 12.7-48.5 0-6.3 1.8-16 2.5-22.3 2.699-23.2 2.699-46.899 1.899-70.2-1.2-37.399-6.6-78.8-20.7-114-2.699-16.699-14.1-26.899-19.199-39.199-9.4-18.601-9.801 2.699-10.301 6.199-1.899 14.4-2 34.801-3.6 49.301-1.3 11-1.8 23.6-.4 34.699 6.5-.8 10.7-8.1 10.9-11.899.5-9.5 1.5-18.8 3.7-30.3 6.5 8.8 9.3 16.8 11.3 25.199 4.4 18.601 4.4 37.601 6 56.5 3.3 40.301 1.3 80.4-3.5 120.5 0 1.301-5.5 2.9-5.6 4.2 1.899 2.2 2.8 7.8 3 10.5.699 10.2 5.6 25.101 6.3 35.3 1.501-.1 4.601-4.5 5.001-6zm-47.101-189.9c.5.399.7.899.601 1.5.8 1.399.5 3.2 1.899 4.3v-.1c2.5 1.3 2.9-.801 3.601-2.2 1.699-20.2 2.6-40.5 2.8-60.8.1-18.9.7-37.2 5-55.9.5-2.2 2.6-4.6 1.8-6.3-6.899-12.5-15.899-30-21.8-43.101-4.8-9.8-10-8.1-16.5-2.5-21.5 18.301-41.7 37.2-58.6 60.4-1 1.3-3.2 2-4.301 3.2-2.3 2.5-1.899 4.2-3.899 3.3 3.3 5.1 4.699 5.8 8.6 2.2 4.4-4.1 9-7.8 13.7-11.5 15.199-11.7 32.1-19.8 51-23.4 6.1-1.2 7.399-.2 5.8 5.8-.9 3.601-1.2 7.2-1.3 10.801-.101 5.3.3 10.699-.4 15.899-3.5 24.7-.7 49.4-1 74.4 6.1-7.2 9.7-16.3 18.9-20.9 1.8 14.4-1.301 27.9-1.7 41.4-.1 2.8-2.3 1.4-3.7 1.3-.8.701-1.001 1.402-.501 2.201zM1894.6 842c-7.1 23.101-15.9 47.5-24.7 70.101-4.399 11.1-.1 22.8 8.5 31.2 4.9-8.7 5.3-20.2 7.2-29.5.5-2.4-.1-4.601-.6-6.4 1.899 5-.4 10.9 1 16.6 3.1 9.2 7.6 17.7 13.8 25.2 2.2 2.7 4 6.5 8.7 4.9 3.6-7-1.5-14.101 0-20.9 4.3 6.9 8.899 13.7 13.6 20.5 1.5 2.2 2.6 6.9 7.2 3.5 3.899-9.2 8.1-18.5 7.199-28.1-1.199-3.101-3.1-6.9-4.5-9.9-7.1-26.2-22.1-54.1-26.8-81.6-3.899-3.201-8.599-2.501-10.599 4.399zm-442-148c2.6-1.699 10.2-4.6 11.5-7.3 4.4-8.2 9.6-16.1 16.6-25.399 17.9-23.9 33.2-45 47.801-71.2 2.8-5.101 2.899-8.9 8.5-7.5-1.801-3.7-2.101-7.101-4.9-6.3-4.8 1.399-9.1 3.5-12.8 7.3-9.601 10.1-19.801 19.8-29.5 29.899-13.4 13.9-27.5 27-40.2 41.601-18.8 21.399-28.2 52.1-33.8 79.5C1427.699 722 1438.4 712.5 1452.6 694zM1076 514c1.1 1.2 2.899.801 4 2 1 1.2 2.899.801 4 2 1.1 1.2 2.899.801 3.899 2.101.8.6 1.4 1.3 2 1.899 12.7 12.301 29.101 25.9 41.2 38.9 5.3-9.4 12.7-22.4 18-31.8-5.2.6-11.8-3.7-15.4-6.4-16.3-11.8-34.3-20.6-52.6-28.399-21.2-9-43.5-11.4-66.4-10.4-19.5.9-36.7 7.7-53.399 17.2.1-.101 72-13.101 114.7 12.899zm499.9-16.8c-19.899-32.899-47.3-62.5-73-90.8-2.5-2.8-10.399-4.9-13.8-5.101-14.9-1-31.5-.3-43.2 3.301-1.7.1-3 1.899-4.3 3.1 4.8 1.3 9.9-.2 14.8 1.4 14.7 4.699 28.9 10.899 40.4 21.1 17.6 15.601 35.7 30.601 51.2 48.5 17.8 20.601 32.3 42.9 42.6 68 2.4 5.9 11.8 12.7 17.5 17-7.901-22.399-19.7-46-32.2-66.5zm312.799 318.601l-5.399 32.3 2.3 16.2 10.8-29.801 2.5-18.1c4.7-17.7 12.2-36.1 15.101-54.1 7.3-37.7-9.101-64.2-28-90.601-2-2.8-14.601-22.1-19.801-23.5 9.2 28.9 18.301 78.301 20.2 107.801 1.799 20.5 4 39 2.299 59.801l1.301.3M1562.3 407.1c-14.2-.9-27.7-3.101-42-3.801-2-.1-15.101-3.399-17-.199 7.5 8.199 21.899 23.8 29.5 32 14.7 15.8 29 39.899 42.2 57 .6-2.5-.101-12.3-1.101-14.4-7.3-16.6-14-33.399-16.399-51.7-1.801-13.5 2.1-14.899 15.199-15.899-1.899-1.401-8.099-2.801-10.399-3.001zm245 124.701c-1.9-10.101-4.8-11.601-25.8-14-11.9-.4-21.801-3-33.7-4.301-21.101-2.3-42.8-1.899-63.101 3.5-4 1.101-10.5 6.2-13.6 9.601 3.9.899 9.6 1.6 13.1.899 9-1.899 18.101-4.899 27.4-3.1 5.6 1.1 11.1 1.2 16.7 1.4 4.899.2 9.8.7 14.8 1.2 13.7 1.399 27.4 5.199 41.3 1.199 5.8-1.699 19.601.5 22.4 6 1.301-.499 1.4-1.398.501-2.398zm-625.601-9.5c-6.3 4.3-5.5 11.8-5.5 14.3.101 4.8 2.5 20.899 2.5 26.8 4.5-2.1 13-15.8 15.601-19-1.2-1.2-2.5-2.3-1.2-4.2 1.9-2.7 3.8-5.3 5.6-8.1 7.5-11.5 17.101-30.4 25.601-41.2-13.602 8.599-30.701 20.799-42.602 31.4zm-287.199 395C890 905 892.9 898.4 899 887.7c2.8-4.8 10.8-14.399 13.5-19.3-3.801.6-17.101 7.5-19 10.2-7.601 11-11.4 23.6-16.801 35.6-3.5 7.7-5.5 15.4-4.6 23.9 5.8-3.3 17.4-11.3 23.8-13.9.001-1.6-.899-5.5-1.399-6.899zM1805 549.1c4-4.101 5.3-8.601 1.1-16.9.3 4.9-9.1 11.5-12.1 14.7-4.4 4.8-10.4 8.5-12.101 15.4 6.701-2.7 17.701-9.1 23.101-13.2zm99.3 288.1c-.2-1.6.7-16-1.4-16.5-2.2-.399-4.8 10.9-5.3 12.3-1 2.5-3 8-2.3 10.801 2.6-.301 3.699-6.5 8.5-3.7.2-1.001.6-2.001.5-2.901z"/><path id="cl2" fill="#0000F0" d="M2005.5 843.801c7.8 6.5 23 21 50 35.3 47.199 18.6 80.3 69.5 80.3 69.5l23 70.8-11.5 24.5-20.4 25.2c-6.2 10.3-19.2 22.399-26.8 31.5-25.2 30.2-48.9 53.5-66.4 89.1-21.1 42.8-35.1 86-33.199 134.101.199 5.1 3 28.8 3.3 35-4-2.101-9.8-16.801-11.2-19.301-9-16.699-20.5-47.699-26.8-65.6-.7-13.4-2.2-24.4-4.2-42.3-4.5-41.2 6.2-77.7 10.4-124.2 1.699-23.5 3.5-35.2 3.399-48.5-.6-14.8-3.399-22.9-7.8-36.7-4.1-16.5-2.4-40.8-9.8-56.1-7.101-14.7-18.3-29.4-23.7-44.8-.5-.4-.8-.801-.8-1.5-.4-.9-.7-1.7-1.101-2.601-.199-1 7.7-4.899 8.601-5.3h1.399c.9.3 1.801.8 2.5 1.3.4.3.7.601 1.101.9.7.6 1.399 1.3 2.1 1.899 10.5 10.801 18.3 23.601 28.101 35.801 2.6-11.301-.4-23.2 5.399-33.601.1-.299 16.4-80.898 24.1-74.398zm1.8-1.301c7.8 6.5 23 21 50 35.301 45.3 29.199 80 72.5 80 72.5l23.3 67.8-11.5 24.5-20.4 25.2c-6.199 10.3-19.199 22.399-26.8 31.5-25.2 30.199-48.899 53.5-66.399 89.1-21.101 42.8-35.101 86-33.2 134.1.2 5.101 3 28.801 3.3 35-4-2.1-9.8-16.8-11.2-19.3-9-16.7-20.5-47.7-26.8-65.6-.7-13.4-2.2-24.4-4.2-42.3-4.5-41.2 6.2-77.7 10.4-124.2 1.7-23.5 3.5-35.2 3.4-48.5-.601-14.8-3.4-22.9-7.801-36.7-4.1-16.5-2.399-40.8-9.8-56.1-7.1-14.7-18.3-29.4-23.7-44.801-.5-.399-.8-.8-.8-1.5-.4-.899-.7-1.699-1.1-2.6-.2-1 7.699-4.9 8.6-5.3h1.4c.899.3 1.8.8 2.5 1.3.399.3.699.6 1.1.9.7.6 1.4 1.3 2.1 1.899 10.5 10.8 18.301 23.601 28.101 35.8 2.6-11.3-.4-23.199 5.399-33.6.1-.299 16.3-80.899 24.1-74.399zm81.2 57.5c27.1 22.2 37.6 39.2 56 63.301 3.6 10.3 10.3 44.8 14.399 54.899 2.3 1.3 2.899-1 4.101-1.899 8.899-20.9 21.199-68.9 24.5-91.4 5.699-39-4.601-76-28.2-108.1-20.2-27.4-42.8-54.801-59.2-84.7-.5-.8-1.3-1.4-2-2.101-2.3 19.7-6.3 40.2-9.9 59.7-5.7 31-15.2 62.9-23.2 93.3 7.699 6.301 15.1 11.7 23.5 17zM1882 1273.801c-1.2 2.3-8.2 17.5-4.5 17.3 3.8-2.3 43.3-32 41.1-75.3 9.1-38.601 20.1-75.601 30.4-113.9 4.199-15.7 9.5-29.9 10-46.3 4.5-24-8.4-48-17-69.101-2.9-7.199-4.101-15.5-11-20.699-5.2 2.199-1.7 8.199-4.7 11.8-3.8-5-6.2-10.5-10.4-14.601-2.6-2.5-5.5-5.899-7.7.4.801 19.7 1.301 39.4 3.801 59 .3 2.3.3 4.6.8 6.9-.101 33.6 2.2 61.6 3.1 89-.3 20.3-4.3 40.1-8.1 60 .6 4.399-1 8.5-1.8 12.6-2.301 12.6-3.2 25.4-7.801 37.5-2.001 15.6-11.9 30.2-16.2 45.401zM1956 1095c-10.7 36-22.301 67.2-31 103.801-4.5 18.899-10.9 44.1-10.5 63.5.5 24.3.199 55.399.5 79.699 0 1.601-.301 11.2 3.3 12 1-1.5 11.1-14.5 12.1-16.1 11.8-19.5 26.3-44.7 35.4-65.4-.101-5.199-.9-11.8-1.5-19.399-5.7-36.3-4.101-66.7 2.399-102.601 4.5-24.5 6.301-55.8 8.5-80.8 1.601-17.7-3-35.8-9.199-52.5-.2 26.601-5 50.101-10 77.8zm-851.301-432.699c3.301 0 18.601-18 20-20 16.801-23.2 36.7-52.5 51.5-76.9 4-6.6-2.899-28.1-2.8-36.8-8.3 3.8-18 2.5-22-2-14.399 13.2-51.7 105.099-46.7 135.7zM1930 966c4.5 6.601 6.899 14.301 9.6 21.601 7.9 20.899 21.2 49.399 19.2 72.899 1.6-1.899 4.699-14.8 4.699-17.1.601-21.6 2.801-44.2-4.699-65.9-.5-3.3-.7-6.699-2-9.699-6.5-14.5-12.601-29.101-20.7-42.801-3.9 9.4-6.5 23.301-7.9 33-1.7 3.2-.501 5.7 1.8 8zm-43-50.5c-.301-1.899-.101-4.1-3.101-3.6-3.5 9.7-4.6 21.4-5.5 31.4 2.4 5.6 6.8 11.1 10.3 16 9.9 13.8 16.801 26.8 19.4 43.5 1 6.5.9 13.3 3.8 19.399-.2-20.899 1.2-41.8-1.7-62.6.5-2.3-.3-4-2.399-5.2-8.601-8.8-15.3-18.899-19.7-30.399-2.2-2.6-.7-5.699-1.1-8.5z"/><path id="cl1" fill="#EE2BB9" d="M795.3 875.1c12.8-10.101 29-16.601 40.8-27.7 5.8-5.5 11.9-10.6 17.9-15.9 1-.899 2.199-1.6 3.6-1.199 2 .699 1.8 2.6 1.8 4.199-.1 1.601-.4 3.301-.8 4.9-5.9 23.3-7.3 47.2-10.4 70.9-1.7 12.8-3.7 25.6-5.1 38.5-.5 4.3-2.9 10.199 2.3 12.6 4.5 2 7.7-3 10.6-5.9 5-4.899 9.5-10.199 14.2-15.3 1.2-.7 2.101-.5 2.8.7 3.7 17.7 2.601 35.8 1.5 53.5-1.699 28.1-4.6 56.1-10 83.8-.8 4-2.6 13-8.5 13.8-28.1-32.8-59.3-64.6-89-95.899-13.1-13.8-19-33-16.5-49.601 1.801-11.899 12.801-22.899 18.7-33.199 3.8-6.601 7.9-11.4 12.8-17.301 2.5-1.699 4.4-7.699 5.601-10.399C790.8 881.9 790.1 876.2 795.3 875.1zm197.6 122.6c3.8-12.399 12.4-32.7 13.8-45.8-4-1.8-16.199 12.9-19.8 12.4-2.399-17.4-4.3-34.9-6.3-52.4-.4-3.5 1-8.6-3.3-9.5-4-.9-5.5 4.2-7.2 7.2-10.2 17.6-20.3 35.2-31.2 52.4-8.5 13.5-25.7 30.5-31.3 45.8 1.8 36.899 1.6 70.8-.9 107.699-1.3 19.4.801 33.101-7.699 51.5-.4.9.3 7.9.5 8.801 2.5 12.899 3.199 25.3 3.3 38.199.3 33.2.3 80-.5 113.301 0 .899 5.5-6.301 7.2-12.2 1.8-4.8 7.699-9.6 9.3-14.9 15.5-28.5 23.1-70.199 28.2-106.8 1-6.9 2.3-20.8 3.699-27.7 5.601-28.399 9.2-54.3 13.9-82.899 3.5-31 17.8-56.301 28.3-85.101zm13.6 102.601l-2.601 5.899c-5.1.301-5.2 4.601-5.899 7.9-8.101 41.8-15.5 83.7-18.301 126.3-.699 10.4-6.3 21.801-1 31.9 11 13 25.2 29.4 37.7 40.8 28.7 26.101 49.3 61 61.9 97.601.3.8 7.2-3.4 9-3.801 2.6-1.199 5-11.199 6.2-13.8 9.399-19.3 8.6-44.7 2-65.5-9.4-29.6-15.9-48.4-31.301-75.4-6-10.399-17-22.3-21.5-33.399-8-19.801-11.399-36.801-4.399-58 1.399-4.301-3.4-14.4-5.5-17.801-8.101-12.6-14.3-24.1-22.5-36.699-1.199-1.101-2.499-5.101-3.799-6zm17.3-79.301l-3.7 2.9c-5.6-.3-6.1 4.1-7.1 7.8-2.601 10.601-5.301 21.2-7.4 32-1.2 6.2-7.4 17.5-4.8 23.601 8.1 16.8 20 33.699 30.7 48.899 4.199 6 5.5 10 9 16.301 2.399 4.199 11.699 7.899 15.5 10.699 27.199 20 56.3 37.601 88.3 48.801 1.5.5 9.5 3.6 11.3.5-1-1.5-6.2-13.301-7.5-14.801-16.4-26-36.8-50.699-55.8-76.699-23-31.301-47.7-57.7-64.4-93.301-1.201-1.1-3.1-5.5-4.1-6.7zm789.399-491c10.901 24.6 20.801 49.6 34.301 72.9 1.6 2.8 2.399 6.6 7 4.9.6-2.101 7.6-4.7 6.699-6.7-2.5-9.2-2.5-19.1-4.899-28.3-4.2-15.8-11.601-30.5-20-44.4-1.7-2.8-7.601-13.9-11.301-14.4-5.099-.9-15.999 6.6-11.8 16zm-1043.5 313.9c-.5-7.2 3.601-13.9 3.301-21.2-3.101 0-6.801-3.8-8.2-2.5-4.2 1.8-3.2 5.5-5.5 9-1.101 2.2-5.101 6.8-6.7 8.7-6.4 12.3-14.8 29.9-18.7 43.3-1.1 1.101 5.1 1.601 4.3 2.8-.2.601-.3 1.301-.5 1.9.7.6.101 3.6 2 1.7 3.101-3 5.4-6.7 8.2-9.9 6.7-7.7 11.1-17.399 19.5-23.7 1.6-3.199-.3-7.199 2.299-10.1zM1817.8 522.301c-2.9-.5-6.3-1.5-8.3 1.5-1.801 2.699.899 4.899 1.899 7.3 4.4 10 9 20 13.4 30 7.7 17.3 15.5 34.6 25.2 50.899.699.7 1.399 1.5 1.6 2.5.1.5.3 1 .6 1.5.5.801 1.301 1.5 1.4 2.5 0 .5.2 1 .6 1.5 2.301 1.5 3.9 1.5 3.7-1.899-2.4-3 .2-7-1.9-10.101-.699-.8-1.3-.899-2 .101-3.6-1.3-4.5-4.7-6-7.601-3.1-5.899-5.5-12.1-9.1-17.6-11.6-17.9-19.4-44.9-29.3-63.4M1859.9 627c-.399-3.699.601-6.699-1.899-9-.801 1.4-2.2 1.9-3.7 1.9-.102 3.6 1.499 5.8 5.599 7.1z"/><path id="sd1" fill="#C50584" d="M854 1090.801c5.399-6.601 8.3-18.4 9.699-26 3.4-18.801 4.601-38 6.801-57 2.399-20.2 1.199-40.4.899-60.601 0-2.699.601-5.199.601-7.8-.5-.5-.601-.899-.4-1.3s.4-.6.6-.6c3.8-5.801 11.9-19.5 20.8-19 5 13.8 8.301 29.899 10.301 44.3 4.8 33.899 5.8 71.5 5.899 105.7.101 23.6-1.3 48.6-4.2 72-.399 2.899-4.899 14.1-6 19.3-12.5-23.2-30.7-48.999-45-68.999zM978.3 1041c-3.5 4.601-10.9 24.101-12 28.801-5.2 22.3-7.3 48.6-11.101 71.1-4.899 29.2-12.199 60-14.199 89.5-.801 10 5.3 8.7 8.5 12.7 8.899 11.2 21.199 23.399 31.5 33.3-1.9-33.6 5.1-72 9.1-105.1 2.4-19.4 8.6-38.101 10.3-57.601.2-2.699 5.6-8.5 8.1-10.6-8.2-16.2-21.7-45.4-30.2-62.1zM757.9 860.5c-6.8 8.2-16.5 13.9-24.399 21.2-5.601 13-7.301 30.2-7.7 44.2-.4 13.4 12.899 29.6 23 40.8.5-13.3 1.1-26 6.5-36.5 4-7.6 10.5-13.399 14.5-21-1.101-3.5-5.8-11.8-5.5-15.399 1.1-13.5 2.2-26.9 3.399-40.4-5.4-.401-7.2 3.999-9.8 7.099zm248.799 107.301c-6.699 19.8-17.1 42.699-24 62-.8 2.3-2.8 9-1.8 11.199 6.5 14.5 12 33.9 20.601 47.5 1.399-18.8 11.899-43.399 15.3-61.8.3-1.7 6.6-3.3 8.1-4-6.3-16.399-13.4-37.8-18.201-54.899zM1854 607.6c-3.601-1.3-4.5-4.7-6-7.601-3.101-5.899-5.5-12.1-9.101-17.6-11.6-17.9-16.3-38.8-26.2-57.3 2.601-2 5.101-.8 7.301-1.6-.601-.7-1.9-7.101-2.801-7.301-2.899-.5-7.3.5-9.3 3.5-1.8 2.7 1 22.5 2 24.9 4.4 10 8.4 11 12.8 21 7.7 17.3 15.101 33.2 24.801 49.5.699.7 2.8 4.7 3 5.7.1.5 1.399 2.7 1.699 3.2.5.8 3 6.1 3.101 7.1 0 .5 2.6 1.7 3 2.2 2.3 1.5 11.899-.3 4.3-16.2l2.9-9.7c-2.4-3-1.7-5.2-3.801-8.3M1859.9 626.5c-.399-3.699.601-6.699-1.899-9-.801 1.4-2.2 1.9-3.7 1.9-.102 3.6 1.499 5.8 5.599 7.1zm-3.8-19.1c.1 3.5-1.3 7.2 1.9 10.1.199-3.5.8-7.1-1.9-10.1zm3.599-5.2l-.5-8.5c-.3.9-5.399 7.2-5.699 8.101.199 1.899.399 3.8.6 5.699"/><path fill="none" stroke="#000" stroke-miterlimit="10" stroke-width="6" d="M1804 519c2-11.5 24-10 24-10s51.1-33.699 91-45c81.5-14.5 92.5 30.5 115 60 30 22 45.3 117.4 44 137-1.301 19.601 34.5 102 51 115s45.5 65.5 56 90.5 2.3 73.101-11.601 119.301c-.601 34.8-50.399 84.199-52.399 92-2 7.8-37 33.199-55.5 62.699-24.801 30.601-41 70-50.5 95-17.5 65.5-14.301 93-7.7 130.2-16.2-14.8-44.3-104.2-45.3-90.399-1 13.8-50.5 97.699-47.2 80.699s.2-116.5-2.4-106.1c-2.6 10.4-33.399 42.1-33.399 42.1s-18.5 26 12-42.1 23-171.9 19.5-221.4-25-70.5-25-70.5-18-25.5-23.2-47.3-6.101-56.3-8.5-32.7c-15.2 31-5.8 72.5-5.8 72.5s31 41 21 58.5-9.5 88.5-9.101 100.5c.4 12 8.601 62.5 5.601 104s-47.301 112.7-29 73c18.3-39.699 15.5-133 15.5-133s-11-69.5-6.5-92.5-7-77.5-7-77.5-20-59.5-9-81.5-5-67-14-84.5-26-84-26-84c-6.301-26.5-26.9-43.6-40-54.5-11.801-16.8-90-43.5-126.5-40s-50.5 1.5-92.5 32c-47 35.5-74.101 83.5-104.5 150.5 4-28.5 32-114 40-129 22.5-42.699 73.8-114.1 69-110.5-4.801 3.601-50.5 72-58.5 88s-28 30.5-28 30.5-30.301 37.4-54 56.5c-23.7 19.101-24.5 71.5-24.5 71.5L1359 986s-.5 45.5-16 68-11.5 57.5-11.5 57.5l5.5 91s6 64.5-2 61.5c-27-64-25-145-28-167.5s6.899-42.3 6.899-42.3S1328 1045.5 1339 980s-4-100-5.5-109.5-24.301-51.8-21-48c3.3 3.801 12.5 33.5 12.5 33.5s-7 16.5-18.5 26-19 62-19 62 0 52-11.5 77-5 53.5-5 53.5 25 82 27.8 95-10.8 43-10.8 43-9-67-22.5-96-22.5-75.5-22.5-75.5-3.5-116.5-17-101.6-37.5 87.1-35.5 118.1c0 0 3.3 46.5-8.5 37.5-68.5-55.5-89.5-159.167-97.5-216.5-3.488-24.995-6.5-61.5-9.5-100.5s13-82.5 13-82.5-1.5-3-29.5 30S1024 783 1024 783s-27.5 90.5-16.5 176 68.5 136 80.5 155.5 56 65.5 69.5 100.5c-41.5-2-117-62.5-117-62.5s-10.5 20.5-5.5 46.5 23.5 32 50 95.5 10.5 92 9.5 100.5-19.9 25.601-17.5 14.5c2.399-11.1-26-64.5-37.5-74s-58.5-59-58.5-59-40-48-42.5-33.5c-4.5 42-37 89.5-37 89.5s4.4-111.5-2.5-165.5c-15-55.5-87.5-125.5-111.5-148.5s-47.5-58-59.5-77 10.5-86.1 29.5-113C825 712 824 697.5 824 697.5s4.5-28.5-14.5-68.5-2.5-73 15-90.3c9.5-4.899 73.5-60.2 73.5-60.2s60.5-63 127.5-58S1149 517 1154.5 526s14.3 4.4 14.3 4.4c326.8-275.6 617.6-25.899 617.6-25.899S1794.9 510 1804 519zm-629.7 6.9s6.399 29.8 1 41.8c-5.3 12-60.3 86.3-71.3 99.3s-16 28.5-16 28.5-48 26.5-70.7 51.2S921.3 854 906 877.4c-15.301 23.3-13.301 33.3-9.301 50s24.7 152 2.301 239.7m254.699-642.4s-51.199 75-51.199 144.2m27.3-101.7l.7-1.5L1078 530c-52.5-35.699-170 52.601-170 52.601s-1 1.399-22 28.1S856 664 862 703s-18 87-18 87-54.6 99.6-79.2 127c-24.601 27.4-11.101 62.2-11.101 62.2M1007.5 959s-31.5 84.301-36.2 92.301S938.5 1243 938.5 1243m40.6-209.9c-1.5 25.1 61.4 119.399 61.4 119.399M1146 712s-79.801 119.7 15.1 310.2c0 0 17.4 31.8 27.9 46.3m25.699-303.8C1190 799.4 1182 930.7 1177.5 951.4s18.1 66.1 18.1 66.1m81.099-252.8s-43.6 144.101-46.1 174.7M1147.6 608.9s87.9 75.7 166.3 116.3m92.1-231.899c-140-.7-230.7 74.3-230.7 74.3m454 69.7c-26-148.7-132.7-236.501-132.7-236.501m235.599 221.1s49.101-63.2 76.5-74.6c11.301 7.3 37 77.1 51.2 89.3 10.8 16.7 0-51.3 0-51.3s-4.6-46.7-36.6-73.3c-8 5.1-24.9 9.6-24.9 9.6l-17.8-4.5s-87.301-16.4-111.301 7.6m139.401 22.601s1-19.7-4.699-28.301m36.1 85.301c-7.9 3.8-8.1 53.699-8.1 87 0 33.3-4.601 49.3-4.601 49.3M1859.9 636.7s17.3 49 22.8 96c4.9 42.5 6.7 92 0 116 3.601 21.8-17 72.7-17 72.7s34.3-95.3 34.3-102 18.899-50 15.8-69.3c8.899-46.1-55.9-113.4-55.9-113.4zm52.5 613.2s13.601-75.9 24.3-97.9c10.7-22 27.301-104 27.301-114.699v-10.7c0-7.3 10.6-36.7-25.801-97.3-15.6-26-15.8-41.601-25-65.3-9.3-23.7-7.8-62.9-7.8-62.9m253.5 220.399C2150.5 913.7 2052 884 2012.699 852c-39.3-32-22-108-47.199-171.3-25.2-63.3-104.601-89.3-104.601-89.3M1856 870.5s-20.7-52.1-19.7-69.399c1-17.4-6.101-73-16.2-83.4l-10.1-10.399"/></svg>