<svg xmlns="http://www.w3.org/2000/svg" id="hair" viewBox="0 0 3000 3000"><style>.st3{fill:none;stroke:#010100;stroke-width:6;stroke-miterlimit:10}</style><path id="cl1" fill="#f7c7b5" d="M1430.1 800.1c-1.8 11.9-6.3 23.1-9.7 34.5-2.6 8.6-5.6 17.1-8.4 25.6-4.9 2-5.8-1.9-6.8-4.9-12.9-37-29-73.2-37.3-111.4-7.4-33.9-14-68.3-16.6-103.2-.8-10.8-9.1-19.8-5.2-30.8l2.2-2.1c1.1-1.1-.7-.1.2-1.3 0-3.7 2.9-.3-1.1-1-3.9-.7-4.9 3.5-6.3 6.8-13.3 29.8-18.5 42.9-24.5 75.2-6.1 32.8-5.4 66.8 5.5 98.2 4.8 13.9 7.3 22.3 14.7 35 2.1 3.5-1.7 15.7-1.7 19.9 0 64.3 4.3 128.5 4.4 192.8.1 51-1 101.9-.9 152.9.1 37.6 1.3 75.3 1.8 112.9.1 10.3-.3 20.6-.4 31-1.6 1.6.1 4.9-2.8 5.9-3.3-1.4-3.6-4.6-4.1-7.4-7.3-46.4-24.3-90-38.3-134.4-7.5-23.9-14.5-47.8-16.2-73-1.1-15.3.5-30.6 1-45.8.9-29.9 4.6-59.6 1.8-89.7-1-10.5-1-21.3.3-29.4-.2 2-2.5 5.7-4.4 9.6-20.7 39.8-37.1 81.2-47 125-1.1 4.9-1.2 12.4-7.5 12.5-6.2.2-7.2-7.1-8.7-12-8.1-26.6-12.1-53.9-15.5-81.4-5.2-42.3-12.1-84.4-20.1-126.3-5.6-29.1-3.7-58.5-2.4-87.7.8-17.2 2.2-34.6 2.7-51.8 1.1-39.9 1.3-79.8 6.1-119.5.1-3.6 2.3-6.1 4.4-8.7 27.1-34.6 56.4-67.4 85-100.7 14.1-16.4 27.6-33.3 42.3-49.2 4.1-4.4 8.3-7.4 14.6-7.3 31.3.6 62.5-3.1 93.7-1.6 23.6 1.1 47.2 1.9 70.6 4.8 3 .4 8.7-5.9 11.5-7.5 11.5 4.6 21.7 10.9 31.9 17.9 24 16.6 45.7 40.1 67.4 59.8 13.8 12.6 27.4 25.2 38.9 40 9 11.6 14.3 24.5 16 39.2 3 26.7 4.7 53.6 5.6 80.5.1 3.9.5 8-1.8 11.6-4.9 2-7.1-2.3-10-4.5-49.6-38.3-98.4-77.5-146.9-117-8.8-7.1-9.8-7-15.4 3.2-16.1 29.5-31.3 59.6-46.2 89.8-4.3 8.7-4.3 18.2-4.9 27.3-2.2 31.5-5.4 62.9-11.6 93.9-.5 1.3-.9 2.6.1 3.8zm443.7 38.9c.7 2.9 5.6 12.8 6.4 15.6 10.7 30.6 21.4 61.3 32.2 91.9 3.4.1 5.4 2.5 6.6 5.9 1.7 5 3.7 10 5.5 15 5.6 14.9 10.2 30.4 17 44.7 13.2 27.6 28.3 54.3 44.1 80.5.9 1.6 1.4 3.6 3.7 4.1.4-.5.9-1 1-1.5.4-23.3 2-46.6-.9-69.8-1.3-10.6-2.3-21.2-3.4-31.8-4.4-42.4-9.9-84.6-16.9-126.6-.8-4.6-2.2-8.9-4.1-13.2-10.7-24-15.8-47.6-26.2-71.7-1.6-3.8-3.8-5.6-4.6-11.6 3.2.2 3.5 4.6 5 8 7.4 16.7 17.2 32.6 24.6 49.4 2.9 6.7 5.4 13.7 9.4 19.8 11.4 17.6 23.4 34.7 35.2 52 3.5.1 2.6-1.9 1.9-3.9-1.4-6.1-2.7-12.2-4.3-18.2-3.2-12-5.3-24.3-9.8-35.9-.2.8-1.1 1.3-1.4.8-.7-1.1 0 .6-.4-.7-14.2-50.6-30.5-100.6-47.6-150.2-5.9-16.9-10.5-34.8-20.2-49.9-33.1-51.2-61.6-105-91.7-157.9-8.3-14.6-8.3-14.5-25.2-11-9.2 1.9-21.8-4.5-31.7-6.3-11.5 7-22 15.3-32.1 24.2-5.9 6.7-9.7 22.4-15.4 29.4-20.1 24.3-39.6 49.2-59.2 73.9-4 5-5.3 10.2-4.6 16.6 2.2 18.8 4.9 37.5 5.1 56.5.1 10.1.8 20.5 2.6 30.7.7 1.4 1.5 2.4 3.3 2.3.8-.4 1.5-1 2.1-1.6.3-.3.5-.6.8-1l1.5-1.8c.3-.3.5-.6.8-.8l1.6-1.6.8-.8c.5-.5 1.1-1 1.6-1.5l.8-.8c.6-.5 1.1-1 1.6-1.5.3-.3.6-.5.8-.8.6-.5 1.1-1.1 1.7-1.7 1.4-1.5 2.7-3.1 3.9-4.8.5-.7 1-1.3 1.5-2 .3-.3.6-.6.8-1l1.8-1.8c.3-.3.7-.6 1-.9.7-.6 1.3-1.2 2-1.9 24.3-27.6 44.6-58.2 64.2-90.3 2.3 4.3 3.1 7.5 4.2 10.6 11.3 32.7 20.1 66.2 30 99.3 3.3 13.7 7.7 27.2 10.1 41.1 2.9 17.1 7.8 33.9 7.1 51.5 1.2 14.5 2.5 29.1 3.7 43.6 3.6 43 8.3 85.9 16.3 128.4 1.2 1.3 2.4 1.3 3.7 0 5.8-24.2 12.1-48.3 17.4-72.7 9-41.6 19-82.9 25.3-125 1.6-10.5 3.1-21 4.8-31.5.4-2.4 1.2-4.8 4.2-4.6m-175.9-298.8c-.8-.4-1.6-.7-2.5-.9-1.6-.5-3.1-.9-4.7-1.4-.7-.3-1.5-.5-2.2-.7-1.4-.4-2.9-.8-4.2-1.4-.7-.3-1.4-.5-2.1-.7-1.4-.4-2.8-.9-4.1-1.4-.7-.3-1.4-.5-2.1-.7-1.5-.4-2.9-1-4.3-1.6-.7-.3-1.5-.7-2.3-.9-1.7-.7-3.2-1.7-4.8-2.5-44.9-15.2-90.3-28.6-136.9-37-24.5-4.5-49.3-8.3-74.5-6.4-31.6 2.3-62.9 7.1-93.8 14-60.7 13.6-117.6 36.4-169.8 70.7-27 17.8-52.4 37.7-77.4 58.2-11.6 12-21.7 25.1-30.1 39.6-11.1 29.9-12.4 60-1.9 90.3 5.1 14.8 8.6 29.9 11 45.3 1 6.5 1.2 13.2 3.7 19.4 6.5 3.2 2.5-4.4 5.3-5.1 4.8-20.9 12.2-40.7 23.4-59.1 9.4-15.4 19.2-30.4 29.6-45.1 20.1-28.3 42.9-54.4 65.2-80.9 24.7-29.3 49.3-56.9 75.1-85.2 4.5-4.9 8.5-10.3 15.6-10.2 34.3.3 68.6 1.9 102.8 5.1 22.6 2.1 43.6 8.9 63.7 19.1 20.5 10.4 40.2 22.3 59.6 34.6 31.8 20.2 62.1 42.4 92.5 64.7 12.4 9.1 7.7 9.6 21.9.3 18.1-11.9 35.6-24.6 53-37.6 22.4-16.8 44-34.6 67.8-49.4.7-.4 1.8-1.1.5-2.9-11-4-21.1-11.4-32.9-15.1-13.9-3.9-26.6-10.6-40.1-15.1z"/><path id="sd1" fill="#e7937a" d="M1862.8 884.5c-.4-6.2 2.5-18.9 3.8-24.7 1.9-8.1 5.4-14.3 7.5-22.3 2.9 1.7 7.5 12.5 8.4 15.3 8.9 27.1 19 53.7 28.2 80.6 1.4 4.3 7.4 9.6 5.4 14.1-4.2 3.2 2.2 8.4 3.9 12.9 6.8 18.1 7.1 32.3 10.4 51.6 1.8 4.6 1.9 8.6 0 13.3-27.1 69-46 137.7-78.1 208.2-4.3 11.8-9.2 23.3-15.4 35.1-3.2-3.8-2.4-7.6-3-11-6.1-35.1-10.2-70.4-11.7-106-.1-3.4-.8-6.6-1.9-9.7-.6-.4-.8-.9-.7-1.4.1-.5.3-.8.5-.8l.2-.2c1.9-2 3.5-4.5 6.3-5.6l-.1.1c1.2-1.5 3.1-1.2 4.5-2 .5.1 1 0 1.4-.4.7-.6 1.4-1.2 2.2-1.7l-.1.1c.9-1.5 2.9-1.1 4-2.2h-.1c.6-.8 1.3-1.4 2-2.1 1.2-1.1.8-3 2.1-4v.1c1.1-1.1.8-3 2-4.1 1.2-1.1.8-2.8 1.8-4 .3-.5.5-1 .4-1.6.8-1.4.6-3.2 1.7-4.5.3-.5.4-1 .3-1.5 1.4-1.9.2-4.5 1.7-6.4v-8.1c-1.5-1.9-.3-4.5-1.7-6.4.1-.6 0-1.1-.3-1.6-1.1-1.3-.9-3.1-1.7-4.4.1-.6 0-1.1-.3-1.6-1-1.2-.7-2.9-1.8-4.1l.1.1c-1.4-1.2-1.2-3.1-1.9-4.6.1-.5 0-1-.3-1.4-1.1-1.2-.7-2.9-1.8-4.1v.1c-1.3-1.3-1.2-3.1-1.9-4.6.1-.5.1-1-.3-1.4-1.2-1.3-.9-3.1-1.8-4.4.1-.6 0-1.1-.3-1.6-1.6-1.8-.2-4.5-1.8-6.3 0-3 0-6.1.1-9.1-.1 0 34.8-73.9 28.1-151.7zM1070 607.8c-15.1 43.4-31.1 86.4-38.7 132.2-15.4 57.9-29 116.3-37.7 175.7-7.6 52.4-17.4 104.4-30.2 155.8-8.9 35.9-18.2 71.6-26 107.8-.7 3.3-2.1 6.6-.6 10.9 2.1-1.6 3.5-2.4 4.7-3.5 36.1-30.7 74.5-58.3 115.1-82.7 4.2-2.5 6-5.7 6.8-10.2 9.2-49.8 16.8-99.8 20.8-150.3 2.9-36.6 8.3-72.7 15-108.8 4.6-24.4 14.4-47.7 14.5-73.2 0-15.2 2.8-30.4 4.3-45.6-1.9-2.4 1.2-5.8-1.7-8-.1-3.7.2-7.4-.4-10.9-3.3-20.6-7.4-41-14.5-60.7-6-16.8-6.2-34.2-4-51.9 1.3-10.8 4.2-21.4 4.8-32.3-12.6 17.3-25 35-32.2 55.7zm248.3 756c.6.7 1.4 1.3 1.8 2.2l-.1-.1c.9.5 1.8 1.1 1.8 2.3 3.3-.1 4-1.6 2.3-4.3v-.1c-1.1-1.1-.7-2.9-1.9-4s-.8-3-1.9-4.1c-.4-1.3-.8-2.5-1.3-3.8-12.5-62.4-43.8-121.3-68.6-182.1 3.2-9.2-12-29.2-15.8-29.8-.3 1.4-.2 29.3-.4 30.9-1.8 17.6-3.5 35.1-5.4 52.7-.5 4.6 3.9 7.4-3.2 8.4-6.6.9-3.8-2-5.9-6.4-31.8-66.7-54.6-138.6-72.4-210.1-13-52.1-24.4-112.3-28.7-165.9-3-1.8-2.8-56.4-8.4-57-5.1 22.1-18.9 91.9-20.8 114.4-4.6 53.8-12.3 110.5-22.1 163.6-2.2 11.7 3.8 32 4.8 43.8 1 12.2 4.8 24.1 7.6 36.1 11 46.7 24.8 92.6 37.5 138.8 1.7 6 2.4 12.4 5.8 18.3 7-2.9 12.6-7.8 18.1-12.4 9.1-7.8 24-16.1 33-24 6-5.3-2.9-.1 0 7.2 1 2.5 5.7 8.7 6.5 11.2 12.1 38.8 27.4 70 37.6 109.3.6 2.4.3 5.3 4 6.7 2.3-2.8 4.6-5.6 6.8-8.4 15.3-20.2 29.6-41 42.8-62.6 6.9-11.3 2.1-12.5 11-1.4 6.8 8.6 23.9 16.9 31.1 25.2 2.2 1 2.8 3.7 4.4 5.4zm-136.9-736.9c-9.8 12.7-21 24.4-29 38.4-6 10.8-10.3 22.6-18.5 32.3-1.3 1.3-10-2-10.3-.3-6.4 35.5-9 72.2-9.4 108.1-.6 41.7 8.3 90.2 15.5 131.3 26.2 179.4 50.4 198.8 87 283.5.1.4 6.8 6.3 7 6.7.8 2.7 4.7 2.1 4.8-.7v-.5c2.4-19.2 2.3-67.6 4.6-86.8.5-4 1-6.7.3-6.9 3.9-.3 4.9 2.1 6.3 5.4.6 1.5 1.2 3.1 1.8 4.7 15.3 38.7 31.3 77.1 48.4 115 14.5 32.1 28.4 64.6 42.6 96.9 1.2 1.3 2.4 1.3 3.6-.1 2.4-7.7 6.2-15.2 4.1-23.7-2.2.2-.8 4.1-3.6 3.6-1.1-11-3-21.8-5.6-32.4-7.7-31-17.4-61.4-27.9-91.5-14.9-42.6-25.7-85.7-20.8-131.4.2-2.3-.1-4.7.2-7 3-21.8 3.1-43.8 3.1-65.6 0-16.2-1.3-32.5-1.4-48.8v-7.3c-14.1 24.3-26.5 48.8-36.6 74.5-10 25.5-16.3 52.1-23.7 79.7-4.3-3.9-5-7.4-6.2-10.8-8.3-24.3-11.6-49.7-15.2-74.9-2.5-17.7-4.8-35.4-6.9-53.2-2.9-24-8.4-47.6-12.5-71.4-2.5-15-5.2-30-5.1-45.4.2-33.2 1.4-66.4 3.8-99.6 1.8-24.2 0-48.5 2-72.8 1.3-15.5.8-31.2 4.1-46.5.4-2 .4-4-1.6-5.4-2 .2-3.7 1.3-4.9 2.9zm153.3 8.1c-6.7 15.1-14.2 47.9-14 47-7.4 27-6.2 54.1-.3 81 6.1 28.3 16.9 54.8 33.6 78.4 12.5 17.6 25.8 34.7 38.1 52.5 2.2 3.2 3.6 7.1 7.9 9.4 4.2-14.7 8.2-29 12.3-43.3-1.7-.4-3-1-3.7-2.8-10.3-30.1-20.3-60.3-31-90.2-5.5-15.4-9.3-31-11.2-47.2-2.7-23.6-9.3-46.6-11.4-70.4-1.2-13.8-6.1-30.1-7.7-43.9-5.2 9.2-8.2 19.9-12.6 29.5zm340.5 69c.5-.9.8-1.8 1-2.7v-1.5c.9-13-1.8-25.8-1.7-38.7.1-17.7-3.1-34.9-5.2-52.3-.6-4.9.3-8.4 3.1-11.8 1.5-1.8 3.2-3.4 4.7-5.2 23-29.5 45.3-59.7 71.1-86.9.9-.9-1.8-12.6-1.2-13.7-2.8.4-4.5 2.7-6.6 4.3-22.7 17.4-42.7 32.6-66.5 48.5-12.4 8.3-18.1 11.9-23.9 6.9-33.5-24.7-65.7-52.1-101-74.3-2.8-1.7-5.2-4.2-8.7-4.6 1.3 3.4.4 12.7 3.1 14.6 33 22.6 63.8 47.7 91.3 76.8 10.9 11.5 20.1 24.3 22.9 40.2 2.5 14 4 28.3 4.5 42.4.6 19.2 3.1 38.4 2.5 57.7.6.7 1.2 1.3 1.8 2 3.5 2.4 6.3 1.3 8.8-1.7zm-43-8.2c-17.1-12-36.7-26.4-53.7-38.5-21.7-15.4-40.8-32.9-62.5-48.3-6.5-4.6-18.8-6.4-22.2.4-4 8-11.1 25.8-14.9 33.9-3.7 7.8 7.8 10.1 16.3 13.4 17.7 6.8 35.3 13.7 53.1 20.3 24.6 9.2 48.9 19 73.9 27l35.5 10.3.6-2.3-26.1-16.2zm21.7 21.4l-49.8-16.5c-38-14-71.1-29-109.1-43-1.6-.6-11.3-5.3-12.9-5.8-1.8-.6-5.6 2.5-6.4 4.3-4 8.6-14.1 23.3-17 33 4.2.9 17.9 5.6 21.1 6.2 21.3 3.4 40.1 8.3 61.5 11.7 18.7 3 37.8 7 58.6 7.5 57.2 9 54 2.6 54 2.6zm60.4-25.2c6.8-4.1 13.8-7.9 20.4-12.3 11.9-7.8 23.6-16 35.4-24.1 2.5-1.7 10.8-6.4 9.2-10.2-3.3-7.9-5.3-15.7-10.5-24.3l-5.3-8.9-60.6 73.6-2.8 4c-2.1 1.6-17.5 15-17.6 18.4 3.4-.4 20.4-8 22.1-10l9.7-6.2zm15.5 9.3c17.1-5.2 39.6-9 56.3-15.6 2.7-1.1 6.9-4.7 5.3-8.8-1.8-4.7-6.9-20.7-11.3-24.9-17.3 12.9-42 28.7-59.7 40.3-.2 3.8 7.1 10.1 9.4 9zm1 12.9c18.7-3.1 41.4-7.4 59.9-11.7 4-.9 10.4-1.6 5.5-7.6-1.5-4.3.3-11-4.4-9.3-19.3 7.3-51 15.6-70.4 22.7.6 5.3 6.9 6 9.4 5.9zm-23.3-2.2c-.4 2.1 3.2 7 5.4 6.4 6.2-.6 12.3-1.6 18-4.2-2.2-.7-8.3-3.7-9.8-6.4-5.1.3-9 2.5-13.6 4.2zm-22.6 2c6.7-1.4 40.6-9.3 45-12.4-1.5-.5-7.6-8.1-8.4-10-4.4.9-32.2 18.4-36.6 22.4zm17.5 4c-4.4.8-8.7-2.8-14.1 1.2 6.9-1.5 11.9 3.6 16.6 1.2-.3-1.4-1.7-1.6-2.5-2.4zm10.4.4c-.8-.8-5-5.6-5.8-6.5-2.9-.3-5.3 1.5-7.9 2.1.8.8 5 5.6 5.8 6.4 2.7-.3 5.6-.1 7.9-2z"/><path id="hl1" fill="#fbe8de" d="M1686 416c-45.4-14.8-91.1-28.8-138.1-37.4-22.4-4.1-45.1-8.1-68.1-6.5-17.5 1.2-34.9 2.6-52.3 5.3-23.9 3.7-47.6 8.3-71 14.6-25.4 6.8-50.1 15.2-74.3 25.7-43.6 18.9-82.6 45.3-120.3 73.7-9 6.8-17.3 14.4-26 21.7-1.6 1.3-3.2 3.1-3.8-.7 17-21.5 37.2-39.9 57.7-57.9 63-55.4 137.5-83.9 219.6-94.6 25.8-3.4 51.7-5.3 77.7-4.1 32.9 1.5 64.6 9 96 18 37.5 10.7 74 24.3 110.3 38.5.9.3 1.6 1.1 2.4 1.6 1.1 1.5 2.9 1.3 4.4 1.8l-.2-.1c1.2 2.8 4.3.7 5.9 2.4h-.1c1.1 1.4 2.9 1.2 4.3 1.7l-.2-.1c1.2 2.7 4.3.7 5.8 2.4h-.1c1.1 1.3 2.9 1.1 4.2 1.9.1 3.5-1.7 3.6-4.2 2.3-.7 0-1.3-.1-2-.1-1-1.3-2.9-.8-4-1.9-.7 0-1.3-.1-2-.1-1-1.3-2.9-.8-4-1.9-.7 0-1.3 0-2-.1-1-1.3-2.9-.8-4-1.9-.7 0-1.3 0-2-.1-1-1.3-2.9-.8-4-1.9-.7 0-1.3-.1-2-.1-.6-1.4-2.5-.9-3.6-2.1zm-490.3 196.8c13.1-17.9 27.9-34.5 42.2-51.5 10.5-12.4 21.6-24.2 32.2-36.6 17-19.9 33.8-39.9 50.7-59.9 2.7-3.2 6.2-4 9.9-3.4 7 1 14 0 20.9.6 8.7.7 17-2.2 25.7-2.1 29.6.4 59.1-.4 88.6 2.1 4.6.4 9.2.5 13.8 1.4 7.1 1.3 14.5 1 21.7 2.6 3.8.9 7.1-9 6.5-11.5-19.3-12.2-40.2-18.9-63-21.9-35-4.7-71.2-7.9-106.4-9.1-7.7-.2-21.8 6.8-27 12.5-35.2 39-65 76.2-98.9 116.3-16.1 19.1-32.9 41.6-46.5 62.6-10.1 15.6-23.8 31.7-30.8 49.1-.7 1.5-7.5 21.6-9.2 22.6v-.1c-.8 1.3-.6 3.1-1.8 4.2-1.3 1.8-1.6 4-.2 5.4 2 1.9 10.3 2.6 11.5 1.2 3.5-4.3 15.1-26.9 18.4-31.3 9.5-14.9 21.6-27.8 32.1-41.9 2-4.7 6.6-7.3 9.6-11.3zm250.4 120.5c3.5-16.4 4.6-33.2 12.1-48.9 12.3-25.4 23.1-51.6 36.1-76.7 4.2-8.2 7.2-9.1 14.8-3.9 8.5 5.8 16.8 12 25.1 18.1 42 31.1 85.3 60.2 127.9 90.4 4.3 3 7.6 4.1 10.2-1.5 1.3-3.9-2.5-4.2-4.2-5.9-1.2-.7-2.4-1.3-3.8-.9-19.6-16.9-40.6-31.8-60.8-48-17-13.7-34.4-27-51.4-40.8-16-12.9-31.6-26.2-47.5-39.2-5.5-4.5-6.9-4.2-10.4 1.9-18.5 32-34.7 65.2-50.9 98.3-1.9 3.8-2.8 8-3.3 12.4-1.6 13.8-2.1 27.7-3.4 41.5-1.9 20.4-4.4 40.7-8.1 60.9-.6 3.1-1.5 6.7 1.8 9.2 7-22 11-44.5 15.8-66.9zM1995.8 840c-1.6-1.8-.1-4.4-1.7-6.1.3-.7.2-1.3-.4-1.9-1.5-1.8-.1-4.4-1.7-6.1-.1-1 0-2-.2-3-8.5-33.9-16.5-67.9-26.3-101.5-8.6-29.4-14-59.3-29.1-86.1-32.1-57.2-66.6-124-101.9-179.3-4.4-6.9-11.8-12.3-22.8-4.8-2.9.1-5.9 1.4-8.5 2.6-9 4.4-17.6 9.3-25.2 15.9.5 1.3 1.4 12.2 5.5 11.4 11.3-2.2 22.6-4.9 33.9-7.1 8.1-1.6 8.3-1.4 12.3 5.7 9 15.9 18 31.7 26.8 47.7 18.1 32.8 35.9 65.8 56.5 97.2 5.1 7.7 10.8 15.3 14.4 23.8 6.8 15.8 12.8 32 18.2 48.4 15.6 47.2 30.8 94.7 46.2 142 .8 2.4 1 5.2 3.5 7.5.3-2 .5-3.3.7-4.6.4-.6.3-1.2-.2-1.7zm-323.4-136.6l-4.2 4 3.6 4.3 5.1-3.4 35.4-40.1c15-14.6 27.5-31.3 40.2-47.9 2-2.6 3.8-5.5 6.1-7.9 3.5-3.8 6.8-3.4 9.6 1.1 1 1.7 1.7 3.6 2.4 5.4 4.4 11.1 8.8 22.2 13 33.3 5.5 14.5 10.7 29.1 16 43.7 3.7.3 3.2-1.7 2.1-4-.1-1.3-.1-2.7-.4-4-9.4-34.6-19.1-69.1-31.1-102.9-.7-2.1-.5-4.8-4.2-6.1-19.3 33.5-41.8 65-66.4 95-.3.7-.9 1.5-1.6 2.1l-2 2-2 2c-1.4 2-2.7 4-4.1 5.9-.6.7-1.2 1.4-2 2-.6.7-1.3 1.4-2 2-.6.7-1.3 1.4-2 2-.6.7-1.3 1.4-2 2-.6.7-1.3 1.3-2 2l-2 2c-.7.6-1.4 1.3-2.2 1.9-.5.7-.8 1.5-.7 2.4v.3l-2.6.9z"/><path d="M1500 356.7s-192-16-320.7 106.6c0 0-124 84.7-152.7 294C997 867 985.5 946.5 978.5 1007s-42.7 179-42.7 179l113.2-76.5s21-11 18.3-38.9c6.5-40.2 31-233.5 31.6-235.8s13.6-50.8 13.6-50.8 4-48 5.5-55 6-50.5 21.5-77c20-38.5 120.5-162 141-181.5 12-15 24.5-28 24.5-28s17.5-23.5 32-19c27 .5 113 6 124.5 11s62.5 19.5 98 51c40.5 29.3 89.3 63.9 96.5 68 8.5-.5 68.5-44 79.5-55.5s56-39.8 56.5-40-134.3-84.5-292-101.3z" class="st3"/><path d="M1790.4 458.5s32.6-19.5 40.1-9S1943 644.5 1945 652s65.4 213.5 65.9 246c.6 32.5-76.7-127.5-76.7-127.5s28.8 72.5 32.8 87 33 189.5 23 242c-39.8-54-74-152-74-152s14.8 45.5 15.4 68c.6 22.5-85.4 248.5-94.4 255.5s-17.1-131.4-17.1-131.4" class="st3"/><path d="M1112.5 784c19.6 275 107.8 455.3 113.2 448 5.3-7.3 9.3-99.7 9.3-99.7s93.3 228.7 100.7 221.6c8.6-7.6 7.3-28.9 7.3-28.9l-5.1-365.2s-2.1-64.8.1-136.3c-18.5-40.5-48.5-125 11-220.8-41 72.3-40.5 131.8-26.5 178.6 3 27.7 75.6 132.2 77.1 122.2s44.4-131.9 51.9-182.4 18-43.5 30.5-87.5 29.5-28 29.5-28 146 113 159 109 75.2-85.3 94.5-104c39 84 49 143.5 49 143.5s16.6 227.6 28.1 204.1 51.7-233.8 51.7-233.8" class="st3"/><path d="M1067.3 1070.6s-11 33.5 55.3 237.1c8.7 1.6 51.4-36.4 51.4-36.4s42.7 120.8 44.7 134.4 58.7-76.4 58.7-76.4 37 26.6 44.2 39-14.7-67.6-14.7-67.6M1479 651s168.5 70 190 66 112.6-68.2 112.6-68.2" class="st3"/><path d="M1794.3 683s-115.3 37.5-124.8 37-36.5 10-211.5-28.8m341.6 10.8s-53.6 16.5-130.1 18" class="st3"/></svg>