<svg xmlns="http://www.w3.org/2000/svg" id="hair" viewBox="0 0 3000 3000"><path id="cl1" fill="#788FC1" d="M1438.8 673.1c12 33.6 32.399 110 41.1 144.6.3 1.3.3 2.601.5 4 .7 2.2 1.8 5-.8 6.2s-3.9-1.7-5.4-3.4c-33-35.699-66.5-70.899-101.3-105-6.4-6.199-13.1-12-21.3-17.8-.5 6.5.899 11.601 1.8 16.601 6.1 34.1 10 68.6 16.5 102.6.6 3 .9 6 .1 8.9-.899 3.399-2.5 6.1-5.899 2.199-3.801-4.3-5.4-2-6.801 1.7-2.3 5.9-4.899 11.7-8.1 17.2-1.3 2.3-2.8 5.1-5.8 4.9-3.4-.2-3.7-3.601-4.101-6-5.399-31.101-21.399-52.7-19.899-84.9 0-1.1.7-1.2-.2-1.8-2-1.2-.4-6-1.6-2.3-.9 2.8-2.5 2.699-3 5.6-3.4 21.3-1.649 40.35-2.85 61.85-.399 6.7-.175 12.274.625 18.875 2.5 19.1 2.897 37.78 4.197 56.98.101 2.3 1.053 8.47 1.553 10.77.8 15.9 4.405 30.763 5.006 46.663.5 13.6 1.244 19.236.244 32.837-.2 2.899 2 9.45-1 12.25-6.5-4.6-10.399-17.45-14.5-23.25-4.3-5.9-8.675-13.7-12.375-20-3.7-6.301-4.55-14.55-9.75-19.75-.7-.7-5.351 8.976-5.551 7.976l2.426 9.149c-7.199-4.7-13.326-21.449-18.226-28.149-6.5-8.8-11.7-18.7-20.5-25.5.1.1.351-3.601.351-3.601s-.851 3.7-.751 3.801c.5.5 8.251-1.451 8.751-1.051.6.5 3.9 13.75 4.5 14.25 11.4 14.601 13.649 18.2 21.349 35.301.7.8 1.4 1.6 1.7 2.6 8.201 34.85 18.002 65.449 28.701 98.35 2.4 7.4 8.024 17.649 11.625 24.75.5 3.7 4.625 15.825 6.125 19.125 12.1 25.101 20.752 35.675 33.125 62.125 2.1 5.3 5.224 4.95 1.824 4.45-9.9-1.5-19.801-3.2-26.101-12.6-10.5-15.8-30.6-24.101-41.5-39.7-1.8-2.7-2-8.5-3.8-11.2-4.3-6.3 2.3-8.1-2.6-5.2-4.4 2.601-1.5 2.7 1.6 10.301 1.8 2.8-5.6 6.6-3.5 9.3 4.4 5.6 5.5 11.8 3.3 18.8-3.5 11.5-6.6 23.101-9.8 34.601-2.8 9.899-5.5 10.6-13.9 4.199-9-6.899-17.5-14.3-26.699-21-11.4-8.3-11.4-8.5-20.601 2.7-8.899 10.8-18.2 21.3-26.1 32.8-2.5 3.601-4.7 9.2-10.3 8-4.9-1-5.2-6.399-6.5-10.5-10.4-32.1-14.801-65.6-23.4-98.1-8.6-32.6-13.2-66-18.5-99.1-2.5-15.5-4.4-30.9-10.2-45.601-1.6-4-3.1-8.1-5.399-11.8-1.801-2.8-3.5-6-7.601-5.3-4.3.7-7.3 3.2-8.399 7.5-1.601 6.1-2.301 12.4-3.4 18.7-4.2 23-10.2 45.5-16.5 67.899-9.5 33.801-14.8 68.301-16.7 103.301-.399 7-2.1 13.8-2.8 20.699-.2 2.101-1 3.9-3.7 3.601-10-27.2-17.1-55.301-24.899-83.2-9.5-34.2-17.601-66.6-20.4-101.8-2.3-6.601 3.5-15.101.8-21.7-.3-.6 2-2.5 2.2-3.1 3.6-10.7 13.4-16.601 19.5-25.5 7.2-10.5 16.7-18.9 27.9-25 6.699-3.7 8.1-8.601 6-15.7-2.601-8.601-4.7-17.2-6.9-25.9-1.1-4.2-1.6-9.2-6.4-11.5-1.5.8-2.199 2.1-3 3.4-4.8 8.7-9 17.7-13.399 26.6-3.9 7.5-7.601 15.1-13.5 21.4-1.2 1.1-.8 3-2.2 4l.1-.101c-1 1.2-.6 3.101-2.199 4l.1-.1c-.8 1.3-.4 3.3-2.2 4.1l.101-.1c-.801 2.4-2.301 4.3-3.7 6.3-1.2 1.101-.801 3-2.2 3.9-5.7 6.8-8.101 15.8-14.5 22-1.601-.601-1.4-1.7-1.4-2.601 0-2.3.2-4.699 0-7-2.3-42.199 5.5-83.6 10.8-125.1 8.2-64.3 34.4-121.3 69.2-174.9 7.6-11.699 15.1-23.5 24.1-34.199 8.5-.801 15.9-4.9 23.5-8 14-5.7 28.601-8.9 43.4-11.4 9.5-1.6 12.8 1.2 13.5 10.9 1 14.399-.9 28.6-2.9 42.8-.399 3.3-1.6 6.8 1.601 9.3 3.399 2.6 7.1 1.2 10.399-.4 7.801-3.899 14.7-9.199 22.5-13 15-7.3 24.101-4.6 32.601 9.801 2.6 4.3 4.5 8.899 7.3 13.1 4.3 6.5 9.8 7.5 16.3 3.6 5.5-3.3 10-7.7 14.5-12.2 8.301-8.3 17.5-15.5 28-20.699 14.7-7.2 23.2-4.2 31.101 10.6 3.199 5.9 5.5 12.1 8.399 18.1 3.7 7.801 7 8.2 11.9 1 8.1-11.8 16-23.699 26.8-33.399 7-6.3 14.7-11.4 23.601-14.7 9.8-3.6 18.6-2.1 25.199 6.3 4.5 5.9 9.5 7.9 16.4 5.1.9-.399 2-.8 2.9-.699 11.199 1.199 21.899 1 32.6-4.101 5.7-2.7 11.4 2 16.3 5.601 13.7 9.8 14.9 9.8 27.7 0 7.3-5.601 13-5.5 20.8.3 2.101 1.5 3.801 4.6 6.601 3.7 3.3-1 1.899-4.5 2.199-7 1.2-13.101 7.7-17.5 20.301-13.301 9.6 3.2 17.899 8.9 26.1 14.5 7.2 4.9 14.4 9.601 22.4 13 6.399 2.801 11 1.4 13.399-5.5.9-2.5 1.601-5.1 2.801-7.5 4.399-9.5 11.699-12.3 21.3-8 6.1 2.7 11.2 7.2 17.2 10.2 7.899 3.9 9.899 2.7 10.5-6.1 1-13.7 6.1-17.4 19.6-13.5 9.7 2.8 18.5 7.5 27 12.9 23.9 15 49.3 26.399 77 32.199 6.2 1.301 13.4 4.101 18.1-.8 5.2-5.5 1.2-12.6-1.1-18.8-1.5-4.1-3.8-7.8-5.6-11.7-1.5-3.3-3.601-7.1-.5-10.3 2.8-2.9 6.3-.7 9.3.6 6.5 2.7 11.3 3.9 17.399-1 19.9 26 31.5 57.601 48.9 84.801 8.1 18.199 15 36.899 22.4 55.3 1.199 5.7.899 9.899 3.899 14.899 0 .601-.1 2.101.3 2.601.9 1.3-.199 2 .5 3.399.2 1.2-1.199 4.9-1 6.101.9 2.3 6.651 19.149 2.852 18.949-13.6-11.5-23.583-22.917-36.651-36.35-4.1-2.2-5.1-5.899-9.2-8.1-4-2.2-14.5-12.8-13.399-8 13.6 14 21.6 31.6 31.2 48.2 7.399 12.899 14.3 26.1 23.199 38.199 3.9 5.301 9.5 6.101 9.601 12.7.2 11.5 2.1 25.5 4.2 37 .6 13.3-.7 28.7 0 42-.101 6.601-.2 16.2 0 22.7.8 23.4-8.2 44.3-7.4 67.8 1.1 1.9 1.6 3.7-.4 5.3-2.1 4.5-1.8 9.301-2.1 14l-7.5 32.7c.5.5.7.9.4 1.2-.2.3-.5.4-.7.4-2.3 3.6-3.3 7.699-4 11.899-2.7 5-4.4 10.4-6 15.9-.4.7-.8 1.5-1.101 2.3-.399 1.2-.8 2.3-1.1 3.5-4 8.7-7.9 17.5-11.9 26.2-3.199 4.5-5.3 9.5-7.5 14.5-.699.7-1.399 1.4-2.199 2-8.801 5.5-18.301 5.8-27.7 2.5-9.4-3.2-10.9-7.6-5.2-15.6 11.7-16.601 2.635-21.868 13.534-38.868 2-3.101 2.534-12.966 4.334-17.167-23.5 10.101-25.668 15.134-49.269 22.634-3.699 1.2-8.399 5.1-11.6-1.3 4-4.601 6.2-10.4 10.2-15 3.5-8.101 12-12.601 17.5-19.101 10.899-13 20.399-27 29.2-41.5 9.6-23.1 19.5-46.3 17.699-72-1.199-17.6-4.199-35-6-52.6-2.899-28.1-7.3-56.1-7.899-84.4 0-2.2 1.6-5.7-3-5.7-4.441 21.769-11.213 39.525-19.332 68.059-6.3 22.399-13.769 32.141-30.269 56.141-2.6-2.3-3.199 4-4 2 2.2-5.8 3.5-11.8 3.5-18.1-.6-.5-.699-.9-.399-1.2.2-.3.5-.5.7-.5 2.6-8.6 3.8-17.4 3.699-26.3-1-1.9-1.699-3.8.5-5.4 3-13.399 1.9-27 1.4-40.5.7-17.3-5.699-28.558-5.799-45.858 0-1.6-2.335-5.138-2.835-6.738-.7-.301.652-1.613.752-2.012.2-.4-1.574-2.625-1.375-2.625-.5-6.5.42-.134-2.58-5.834-1.2-3.8-2.329-11.958-5.129-14.958-3.4-1.8-5.581-6.261-7.281-9.461-2-4-4.153-11.513-8.453-11.713.4 5.2.776 6.284.776 9.883-.1 8.8-1.677 17.017-1.677 28.317-7.1-10-10-19.7-16.1-27.399-8-15.5-17.1-30.4-27.9-44.101-2.199-3.6-4.5-7.2-6.699-10.8-.5-2-2.601-1.5-3.801-2.5-2-1 1.101-5.9-2.3-6.3 2.1 45-11.3 107.7-34.1 156.3.1-3.1 1-7.5 2-11.6-.601-26.2-4.2-53.4-9-79.3-4.4-23.4-12.9-45.4-22.101-67.2-1-2.5-2.199-4.9-4.399-6.601-2-1.5 2.199-5.3-.101-3.899-2 1.3-1.399 4.8-.8 6.8.6 1.9.8 2.3 1.5 4.2 9.8 26.6 9.6 57.3 13.3 85.399 2.5 19-2.699 37-7.699 54.9-.4 1.6-1.601 2.9-3.5 3.2-2.601-1.3-1-4.3-2.4-6.101-2.3-10.8-3.2-21.899-8.3-32-3.2-13-7.4-25.399-12.9-37.5-.5-1.199-4.3-10.5-5.1-11.5-1.2-1.399-1.301 6.7-3 7-1.9.4-.601 1.2-.601 3 0 2.301 2 5.2 2.5 7.4 11.2 52.4 4.4 122.8-5.3 174.9-.9 4.899-2 9.8-3.1 14.6-1.601 2.5-3.9-14.8-5.7-17.8-1.6-2.601-1.9-5.601-2.5-8.601-11.3-56.699-33.3-110-65.3-158.8-7.7-10.1-10.601-21.3-17.101-32.3-.8-1.4-1.399-2.9-2.1-4.3-.4-.601-.8-1.3-1.2-1.9-.5-.6-1-1.1-1.5-1.7-.3-.3-.5-.6-.8-.8l-1.5-1.8c-.5-.7-.9-1.5-1.2-2.2-.3-.3-.3-.899-.899-.899.699 1 1.1 2.199 1.6 3.3.5.7.9 1.5 1.3 2.2.601 1.1 1.101 2.3 1.601 3.5.399.8.699 1.6.899 2.399.601 1.601 1.5 3.101 2.5 4.601 4.601 9.899 14.9 19 14.7 30.399 10.7 34.8 15.5 72.4 13.2 108.9-.4 6.3-1.4 10.2-1.7 16.5-1.2 1.5-5.6 2.399-7 1.399-11.5-36.199-30.4-68.699-51.3-100.199-17.601-26.301-36-52.101-54.4-77.801-5.6-7.8-10.7-16.1-16-24.1M1747.699 468c-12.399-9.1-25.6-16.699-39-24.3-58.8-33.3-120.3-58.5-188.699-62.8-31-1.9-61.9-1.601-92.5 4.399-43 8.4-84.101 22.7-124.301 40.001-14.6 6.3-29 12.899-42.8 20.7-5.6 3.1-11.1 6.5-16.4 10 4.5.6 4.301 3.199 2.801 6.5-3.5 7.5-7 15.199-12.2 21.699-12.6 16-26.8 30.4-42.6 43.2-3.9 3.1-7.2 7-10.601 10.6-1.2 1.301-1.6 3-.399 4.5 1 1.301 2.399.7 3.6.301 4.1-1.4 8.2-2.9 12.3-4 5.9-1.601 8.101-.2 9.101 5.6.899 5.5 2.199 11 2.199 16.7 0 10.8 4.7 13.5 14.801 9.399 2.5-1 4.8-2.3 7.199-3.5 5.7-2.8 11.2-5.899 17-8.3 9.301-3.899 9.601-3.8 14.7 5.101 3.5 6.1 8.3 9.1 15.5 8.3 8.1-.9 15.4-3.8 22.7-7.101 7.899-3.6 15.3-8 23.399-11.199 5.601-2.2 9.9-2 14.301 2.699 7.3 8 17.399 10 27.3 9.101 9.8-.9 19.7-2.101 29.4-4.8 16.6-4.7 33.199-9.5 49.899-13.9 13.7-3.6 18.3-1.4 25.4 10.6.8 1.4 1.5 3 2.3 4.4 2.9 5.4 7.3 7.1 13.3 6.6 11.4-1 20.601-7.1 29.9-12.899 5.899-3.7 10.8-8.8 16-13.4 8.399-7.399 16.1-5.3 20.3 5 .8 1.8 1.2 3.8 2 5.601 3.6 7.3 6.5 8.199 14.4 5.399 10.8-3.899 20.1-10.2 29.5-16.399 8.399-5.5 14.899-5.601 22.899.5 5 3.8 9.301 8.6 13.9 12.899 7.2 6.601 15.9 8 25.1 6.7 8.4-1.3 10-8.9 13.2-14.9.5-.899.8-1.8 1.2-2.699 3.7-9.4 4.899-10 13.7-5.4 5.6 2.9 11 6.1 16.5 9.2 3.6 2 5.8.2 7.199-2.8.9-1.7.7-3.9 1.4-5.801 2.7-8.1 6.8-10.3 15.2-8.5 2.6.5 5.2 1 7.8 1.301 1.8.199 3.9 2.199 5.5.199 1.8-2 1-4.399-.2-6.5-1.5-2.6-3.399-5-4.6-7.699-1.4-3.101-5.3-4.7-5.5-8.801 4.1.2 7 1.7 10.1 2.9 4.9 2 10.101 3.4 15.4 3.6 9.2.301 11.1-1.899 7.8-10.399-3.5-9-7.7-17.601-11.5-26.5-.9-2.2-3.8-4.4-.5-7-.997-2.102-2.797-2.902-4.398-4.102z"/><path id="hl1" fill="#96AED9" d="M1862.1 589.801c.1 3.899-1.1 6.1-5.7 6.3-5.899.3-11.2-1-16.2-3.9-1.6-.899-3.5-2.7-5.3-.7-1.6 1.801-.2 3.801.7 5.5 2.2 4.5 4.4 8.9 6.6 13.4 2.801 5.8 4.2 11.8 3.801 18.3-.301 4.3-1.9 7.101-6.5 7.101-5.301 0-10.601.6-15.801-1-10.8-3.2-21.899-5.5-32.5-9.2-12.6-4.3-24.3-10.8-35.8-17.601-9.5-5.5-18.9-11.199-28.8-15.899-5.4-2.601-11-4.601-17.2-4.4-4.9.2-7.5 2.2-7.5 7.2v12c0 4.1-2.5 5.2-5.9 4.8-4.8-.5-8.699-3.1-12.6-5.6-4.8-3-9.2-6.601-14.5-8.8-6.9-2.801-12.5-.801-15.6 6-1.601 3.6-2.5 7.6-3.9 11.3-2.9 7.399-6.5 9.1-14 5.8-6.1-2.7-12-5.7-17.6-9.4-8.601-5.6-16.7-12.1-26.2-16.399-3-1.4-6.1-2.7-9.3-3.601-9.301-2.699-14.2.801-14.4 10.301-.1 3.699.1 7.3-.2 11-.199 2.6-1.8 3.199-4.199 2.3-3.601-1.3-5.9-4.2-8.601-6.7-6.5-5.9-11.8-5.8-18.3.2-1.2 1.1-2.3 2.399-3.5 3.5-5.8 5.399-12 6-18.9 1.7-3.6-2.301-7-5.101-10.5-7.5-8.3-5.601-13.1-5.9-20.699.3-3.9 3.2-7.2 4.1-11.7 1.899-5.7-2.899-11.4-2.1-17.4 0-8.5 3-9 2.601-14.2-4.3-7.699-10.3-13.8-12.3-25.899-7.6-15.5 5.899-26.3 17.7-36.3 30.3-4.301 5.5-7.801 11.5-11.7 17.3-2.2 3.3-4.2 7.7-8.601 7.3-4.3-.5-5.6-5.3-7.3-8.8-3.1-6.6-6-13.3-9-20-1.399-3.1-3.3-5.8-5.899-7.899-4.301-3.7-8.7-5-14.7-3-12.4 4.199-22 12.199-31.4 20.5-5.5 4.8-10.3 10.3-16.399 14.5-8.7 6-15.101 5.3-20.7-3.4-2.5-3.9-4.601-8.1-6.601-12.3-1.899-4-4.699-7.3-7.899-10.2-4.601-4.1-9.3-5.3-15.5-3.1-8.601 3.1-15.8 8.399-23.5 12.899-3.7 2.2-7.4 4.7-11.7 5.4-8.1 1.5-11.8-1.601-10.5-9.601.9-5.899.9-12 2.2-17.699 2.399-10 1.3-19.9 1.399-29.801.101-7.899-2-9.1-9.699-7.899-21.801 3.399-42.4 10.5-62.5 19.3-2.7 1.2-5.101 2.4-5.601-2 18.7-26.8 39.9-51.4 63.101-74.4 3-3 6-6.1 9-9.199 13.899-10.101 26.699-21.601 41.1-31 9.4-6.101 18.6-12.601 28.7-17.601 9.399-.8 5.399 5.5 4.1 8.9-5.2 13.2-13.1 24.7-23.1 34.7-10.8 10.899-21.101 22.3-33.2 31.699-2.5 1.9-5.5 3.801-6.1 7.601 23.1-5.7 22.199-2.101 24.899 19.8 1.2 10.3 4.101 12.3 13.601 8.3 7.699-3.3 14.8-7.6 22.5-10.8 7.1-3 12.899-2.3 17 5.1 4.5 8.2 11.6 9.101 19.8 7.101 11.1-2.8 21.1-8.2 31.1-13.5 10-5.2 18.8-6.7 28.3 2 6.801 6.3 16.301 6.899 25.5 5.8 22-2.4 43-8.9 64.101-15.2 4.8-1.4 9.6-2.8 14.5-3.6 10.6-1.8 18.6 1.2 24.3 11.1 7.2 12.4 12.3 13.5 25.5 7.7 10.8-4.7 20.8-10.7 29-19.1 11.2-11.301 24.4-10.5 29.2 5.399 2.2 7.2 7.1 8.7 14.1 5.8 9-3.699 17.101-8.899 25.3-14.1 12-7.6 20-7.1 30.9 2.1 3.8 3.2 7 7.101 10.9 10.301 13.6 11.199 27.3 8 34.3-7.9 5.6-12.7 9-13.8 21.2-7.1 1.199.6 2.3 1.399 3.399 2.1 10.801 6.3 10.9 6.4 16.5-4.3C1715 528.7 1720.5 526.5 1728 528c3 .601 7.1 3.2 9.1-.5 1.8-3.199-2-5.899-3.6-8.699-.301-.601-.801-1.101-1.101-1.601-1.6-2.8-5.1-5.6-2.3-8.8 2.5-2.9 6.3-.6 9.3.4 4.7 1.699 9.5 3.3 14.5 3.8 7.5.7 9.5-1.601 6.9-8.601-3.1-8.1-6.7-16-10.2-23.899-1.199-2.7-4.3-6.601 1.4-8.5 17.1 12 31.9 26.8 46.7 41.399 1.6 1.601 3.399 3.101 5 4.7 15.5 18 31 35.9 46.5 53.9 4 6.301 8 12.202 11.901 18.202z"/><path id="sd1" fill="#5B6D93" d="M1836 1025.5l4.25-11.667c1.1-1.1 12.083-21.483 14.55-29.933 2.307-9.617 11.1-36.4 11.2-37.6 1.5-12.301 1.399-24.601 0-36.9.1-.7-.101-1.2-.601-1.7 0 0 .5-.7.5-.8.3-.7 0-1.2-.7-1.4 0-.699.301-1.199.9-1.5l-.1.101c.5-.7 1-1.4 1.5-2.2.1-.7.899-2.2 1.199-2.8.301.2.7.5.9.7 3.7 3.3 6.1 8.399 6.9 9.899 12.1 23.7 9.699 47.601 4.1 72.7-6.1 27.2-23.3 46.6-40 66.8-2.1 2.5-4.6 4.9-8.3 5.101-1.2-.7-3.3-1.384-2.3-2.384-.101-.7 3.162-13.942 3.063-14.542M1108 998.1c-.601 14.3 2.1 27.7-.101 41.8 3.3 12 4.3 13.5 3 23 5.9 10 5.3 24.1 7.3 35.8 4.2 24.4 15.601 44.9 24.2 68 9.601 25.9 22.8 50.301 33.7 75.7 1.2 2.9 2.7-4.9 6.4-3.3 2.6-2.5 2.899-1 4.199-4 4.301-10.8 9.7-14.8 14.2-25.5 4.3-10.3 7.2-11.101 15.1-3 2.301 2.399 5.5 4.3 7.601 6.899 24.6 30 45.3 62.5 62.699 97.2 3.101 6.2 6.2 12.4 10.7 17.9 2.601-2.2 2.601-5 2.601-7.5.3-15 .399-30 .6-45 .1-5-.8-9.8-1.9-14.8-4.399-19.101-2.8-41.101-8.199-59.9-1.801-6.3-5-8 .1-9.1 4.2-1 .5.699 2.6 7.699.4 1.301 2.9 7.7 3.2 9 2.9 13.7 9.5 22.101 12 35.9 1.2 6.4 4 9.7 10.5 11.2 11.7 2.6 23.101 6.3 34.7 9.2 8.6 2.1 16.9 5.699 25.7 6.699 1.1-2.899-.601-4.3-1.7-5.8-18.2-25.5-24.132-53.994-43.432-78.594-1.899-2.4-6.769-12.034-7.969-14.833-8.899-20.1-18.598-33.123-28.798-52.523-2.399-4.6-5.301-11.149-9.801-14.35-.1 4-4.8 11-2.7 14 3.101 4.3 3.7 8.6 2.101 14-4.2 13.6-7.5 27.5-11.301 41.199-.399 1.4-.699 3.301-3.3 3.7-12.9-10.899-26.4-21.6-40.3-31.8-5-3.7-5.801-3.6-9.7 1.1-11.7 14.4-24.3 28.101-34.8 43.5-1.4 2.101-2.5 5.7-7.101 5.5-2.699-9-5.899-18-8.1-27.3-5-21.3-9.3-42.7-14.1-64-4.101-18.399-8.9-36.7-12.601-55.2-3-14.6-5.1-29.3-7.199-44-1.101-8.199-4.101-16.1-4.101-24.5 0-19.899-8.7-37.199-16.6-54.699-.9-2-2.5-3-4.7-3.2-6-.5-13.8 5.8-14.7 11.8-2 13.1-4.5 26.1-7.2 39-6.3 29.8-17.1 58.5-21.8 88.8-2.6 16.7-5.7 33.3-6.6 50.101-.601 10.899-2.8 21.699-2.5 32.699 0 1.101-1.101 2.301-1.8 3.4-.101 2.8.8 5.1 3.3 6.9 1.5-1.601 1.899-3.5 2.1-5.4 4.101-29.1 13.3-56.7 23.5-84.1 3.101-8.4 5.8-16.801 7.8-25.601 4.101-18 7.101-36.399 12.9-54M1052.4 839.6c-5.1 9.1-8.5 19-13.7 28.1-2.8 6.9-7.8 12.8-8.5 20.601 0 .699-.199 1.199-.6 1.8-.5.8-.9 1.6-1.4 2.399 0 .601-.1 1.101-.5 1.601-.5.8-1.199 1.5-1.399 2.5 0 .6-.101 1.1-.5 1.5-.5.8-1.3 1.5-1.5 2.6 0 .5-.101 1-.5 1.4-.601.8-1.3 1.6-1.5 2.6.1.5-.101 1-.4 1.4-1.1 1.1-.6 2.899-1.899 3.899-1.101 1.101-.7 3-1.9 4-3 8.5-7 17-2.2 26.2 6.101-6.899 12.4-13.6 18.4-20.6 8.199-9.5 15.399-19.8 27-25.8 2.899-1.5 5.399-3.9 8.3-5.4 3.8-2.1 4.8-4.5 3.5-8.9-3-10.399-5.4-21.1-8-31.6-1.4-5.5-3.8-10.7-6.9-15.3-1.899-2.9-3 .1-3.899 1.6 1.197 2.4-1.403 3.601-1.903 5.4zm249.35 280.65c7.6 15.1 22.125 20.75 27.25 31.75 1.399 3.301 10.05 9.774 14.25 10.875 12.125 7.426 17.125 16.25 32.85 26.325-.1-8.6-6.725-4.2-7.225-11.2-2.1-1.7-2.157-6.199-4.556-7.699-.5 1.6-3.527-5.922-5.428-6.422-9.399-2.3-12.266-7.704-18.266-17.504-4-6.6-14.149-13.899-19.25-19.5-7.8-8.5-18.976-7.475-28.775-14.175 1.3 5.4 6.85 2.85 9.15 7.55zm19.05-353.949c.6 18.199.3 35.199 3.1 53.3 1.5 10.1 2.9 24.399 3.8 34.6 2.301 5.9 3.801 7.9 3.601 14.3-.9 1.301.2 6.4 1.899 7.4 2.301 3.7 3 3.5 3.2 7.6 2.5 4.4 1.8 9.301 2 14 .5 1.2 1 2.4 1.4 3.601.399 1.1-.3 3 1.3 3.1.8 0 1.7-1.6 2.6-2.5.301 0 .601-.1.801-.399.3-.301.199-.7-.5-1.2.8-7.101 2.6-13.9 5.8-20.3.3 0 .5-.101.8-.4s.2-.7-.3-1.2c1.2-7.5 3.1-14.899 5.8-22.1 1.7-4.601 2.8 1 5.5 5.1 2.5 3.8 4.2 8.2 6.2 12.4 3.6 5 5.6 10.8 8 16.399 1.2 2.9 1.7 6.4 5.3 7.7.2-17.2-2.4-39.8-1.8-57-.7-5.899 1.3-12.5.7-18.5-1.9-18.899-3.7-37.8-5.4-56.6-.8-8.9 1.9-17.9 1.8-26.9-.1-6.6.9-8.6 6.2-4.7 2.1 1.601 3.9 3.601 5.8 5.5a2336.57 2336.57 0 0 1 88 90.101c1.8 2 3.2 4.8 7.5 5.2-1.899-4.801-.7-9.301-3.5-13.101l-.899 4.8c-.601 0-1 .101-1.2-.1-17.5-19.1-34.5-38.6-52.4-57.3-18.399-19.3-37.3-38.101-56.6-56.5-6-5.7-12.101-11.8-20.2-16.601-1.3 4.5-.9 8-.2 11.601 2.5 13.7 5 27.399 7.101 41.1 3.1 20.3 5.699 40.601 9.3 60.8 1.3 7.2 4.5 14.801 1.9 22.801-3.801-2.5-2-7.801-6.801-9.301-7.5 9.4-8.5 22.7-17.5 32.4-3.8-20.1-8.399-39-12.8-58-3-12.6-6.6-25.1-5.9-38.2.101-2.1-3.699-4.1-5.8-5.2-.002 3.598 2.198 8.598 2.398 12.299zM1550.1 708c-1.3-1-.9-2.899-2.1-3.899-.601-.7-1.301-1.3-1.9-2-.7-.7-1.4-1.2-2-2-1.8-.4-2.8 0-2.1 2.1 0 .601.1 1.3.1 1.9.7.6 1.2 1.399 1.9 2.1 0 .601 0 1.3.1 1.9 1.2 1 .7 3 2 4 4 10.7 8 21.3 12 32 2.8-8.3 3.4-8.601 11.4-3.8.8-.101 1.6-.101 2.399-.2-7.2-10.8-13.7-22.001-21.799-32.101zm128.3 115.6c2.3-2.9 3.8-4.7 5.2-6.4 1.7-6.3 4.4-12.2 8.1-17.6.7-2.2 1-4.601 2.101-6.601.1-19.199 2.3-22.5 1.399-31.8-1-9.2.301-13.899-1.3-23-4.2-24.7-9.5-59.7-20.7-82.1 0 1-3.3 13.8-3.1 14.7 5.1 18.2 9.3 36.6 12.8 55.1 2.5 13 6.4 26 4.8 39.3-1.699 13.8-4.199 27.7-8.6 41.4-1.1-1.8-2-3.1-2.9-4.4-.7 6.801 1.3 13.501 2.2 21.401zm261.1-39.4c0-6.3-2.7-11.2-7.601-15.5-17.5-15.399-34.6-31.1-51.899-46.7-.801-.899-1.4-.8-2.101.2 1.9 6.2 7 10.3 10.101 15.7 12.199 21.3 22.899 43.7 37.3 63.3 11.6 15.601 13.6 31.601 12.8 49.3-.2 3.801 5.5 8 8.7 11.4-.101-25.8-7.101-51.8-7.3-77.7zm-57.6 211.2c2.9-8.1 5.4-16.4 8.8-24.4 9.601-22.699 8-46.1 4.801-69.6-1.7-12.1-4.2-24.2-5.2-36.3-1.7-19.8-3-39.6-6.3-59.3-1.101-6.601-2.2-13.101-2-19.8.1-2.5-1.875-8.813-5.125-15.001-1.188 7.688-3.375 17.001-3.976 20.7-1.8 12.4-9.865 31.5-12.565 43.8-3 13.601 3.565 25.101-.234 38.501-1.3 4.5.6 8.1 3.5 12 5.2 6.899 2.9 4.699 5.1 13.1 6.301 4.5 11.601 18.6 13.4 24.7 3.3 11.7 3.6 24.399 2.6 34.7-1 8-2.399 18.199-5.1 28-2.3 8.399-5.7 16.6-9.4 22.699C1873.1 1008.1 1881 997.9 1881.9 995.4zm-31.632 60.411c-5.334 14.667-1.601 21.356-8.069 37.491-4.698 12.423-7.541 13.625-10.698 25.999-2.4 5.8-2.667 12.433-8.667 16.033-2 3.1-8.291 13.405-1.991 12.306 5-1.8 15.258-13.239 20.258-14.838 3.2-1 2.3-1.5.7 2.399-5.9 14.7-6.2 31.601-15.7 44.7-5.9 13.4-13.9 25.4-23.9 36.1-14.699 21.4-30.6 42-46.5 62.601 29.4-14 53.7-34.2 74.601-58.7 7.7-10.2 14.5-21 23.5-30.1.3-2.4 2-4.101 3.3-5.9 11.7-16.3 23.4-32.5 33.5-49.9 1.4-4.199 5.1-7.399 5.6-12-3.399-.3-6.5.801-9.8 1.4-9 1.5-17.899 1.1-25.6-6.3 16.1-23.8 36.033-104.351 41.45-135.101-9.417 12-20.088 34.441-33.25 50.167-14 14.667-23.9 36.734-42.301 42.634-2.3.699-4.399 1.899-6.3-.5-1.6.6-3.3 1.6-3.2 3.399.101 3.2 2.801 1.9 4.5 2"/><path fill="none" stroke="#000" stroke-miterlimit="10" stroke-width="6" d="M1855.171 837.167l7.229 34c2.567 68-12.078 138.178-31.201 179.833-8.673 18.892-18.008 38.834-18.008 38.834l36.531-31.036s-.123 19.402-10.923 44.003c-10.8 24.6-25.608 50.367-25.608 50.367L1841.1 1133s-6.3 65.801-82.3 141.7c26.6-.6 122.6-103.7 151.2-178.5 60-108.1 29.899-318.1 29.899-318.1l-60-56 60 56s12-38.7-96.5-213.9c-33.1-38.399-115.2-177.1-373.8-184.3-186.5 15.2-295.4 124.6-295.4 124.6s-124.6 112.4-156.399 247c0 0-29 125.2-19.9 177.9 9.3-8.8 31.8-45.9 31.8-45.9s-54.699 56.801 31.7 273.4l46.3-169.1s-16.399 101.199 68.5 254.699c18.9-10.5 28.9-43.899 28.9-43.899s48.3 37.399 92 129.899c0 0 7-75.3-7.7-129.899-14.7-54.601 21.101 52.6 21.101 52.6l68.5 20.601-91.601-170.5s27.767 43.866 88.8 88c0 0-42.078-62.791-69.033-137.468-21.929-60.752-26-100.667-27.447-134.363 8.78 51.696 36.913 71.296 46.113 93.696-2.667-97.333-22.667-179.333-7.134-251.167 3 8-2.8 94.5 25 141.601 7.7-15.8 14.2-48.4 14.2-48.4l21.4 42.8-3.101-163.899L1483.8 834.7l-47.7-174.399s114.1 147.199 135.7 209.5c12.2 2.899-1.8-118.9-9.101-132.7-7.3-13.7 70.2 103.399 72.101 173.2 1.899 69.8 35.2-63 12.2-182.301-6.301-45.399 34.58 62.246 31.399 95.601-3.232 33.899 37.601-41.101-2.5-166.2 24.7 34.5 45 138.2 33.5 164.7 14.5-9.5 40.2-129.9 36.4-150l54.399 84.8 3.101-35s20.2 23.6 25 60.7c6.266 48.433 3.1 110.3-4 127.5 23.868-18.601 33.847-60.182 29.223-47.992l1.649-24.942z"/></svg>