<svg xmlns="http://www.w3.org/2000/svg" id="hair" viewBox="0 0 3000 3000"><path id="cl1" fill="#F8B6B8" d="M1131 935c-10-189 22-359 66-419 39-47 179-130 303-120 139.6-6.1 202.4 54.3 242.6 92.2l30.8 24.6C1795 627 1843 885 1843 885v.5c.5 6.3-1.7 45.8-11 129.5-7.3 4-160-236-160-236l47 178s-46-31-64-53-90-185-90-185 4 252 6 275-89-101-145-306c2-10-99 291-99 291s-20-163-11-292l-5 178-22 83s-29.7 87.3-14 228c0 33-24-94-24-94l-9 125-47-105-27 123s-29-94-38-280c0 0-24.7-221.7 67-436l-99-99-292 226 98-4s-45 225-45 230 65-93 67-98-25 327-24 335 71-115 71-115 27 152 28.5 156 44.5-96 44.5-96l30 171 61-158.5m83.7-201.8L1244 1052l45-104s-56.3 304.7-68.3-93.3zM1861 1029l-9 88s16 103 27 134c23-32 47-248 49-245s47 208 50 189c17-36 37-105 38-155s-22-191-22-191 47 92 67 117c19-120-47.7-284-47.7-284l76.7 35.3-244.7-268.7-76.2 59-.5-15.6 75.6 392.4 44 63-27.2 81.6z"/><path id="sd1" fill="#9D7374" d="M872 584s77-41 87-37c-5 14.3-39.3 70.7-51 82.3-3.3 3.3-102 6.7-102 6.7l66-52zm217.5 316s-22.5 19-50 94.5c-6 19 10-144.5 10-147.5s-56 47.5-91 104C965 933.5 990 806 991 793c-5.7 1.5-60 63.5-63.5 68s14-101.5 61.5-225.6L871 810l-10.9 45.5L926 764l-22 335 69.8-110.5 29.2 155 40.8-94.4 30.6 165.5 37.7-91.7M1176 550s-28.7-23.3-31.3-27.3-50 211.2-26 412.6c1.3 4.6 12.3-1.9 12.3-1.9s-1.3 125.3 36.7 295.3c0 0 5 6.7 25-127.3-.7-13.3 40.7 100 50.7 104-.1-15.9 8-120.7 8-120.7l20.5 92.3s-8.5-73.6 18.1-223.7l-1.9-14 28.6-82.7 8.8 118L1428 688s70.7 245.3 134 298.7c4.4 3.7 8 4 8 4l-3.3-258.7s49.4 112.5 80.1 159.1 68.7 60.1 70 62.1-41.4-165.9-41.4-165.9L1832 1015s16-124.3 16-126.3 22.5 34.8 22.5 34.8-13.7 59.5-24.5 76.5c-28 39-1 67.5 0 89 5 28-14 43.5-14 43.5l47 118.5s13.7 10.3 45-246.3c0-14 54.7 190 53.3 192s10.7-3.3 35.3-130.7c7.8-17-2.8-126.1-8.1-146.1s-23.2 176.1-23.2 176.1l-56.7-144.7s-33.3 116-32 110 2.7-100.7 2.7-100.7l7.7.3-9-195s-17.3 58.7-17.3 68.7-42.6-116.6-42.6-116.6-9.2 61.9-8.8 176.7L1782.7 730l-5.3 160.7s-107.3-134-126-179.3c-8-12.7 21.3 162.7 21.3 162.7L1565 719l-12.3 171-132-212-99.3 208.8-12-168.8-57.3 300-18 47.3-20.7-70.7-2 48-18.7-99.3-25.3 86L1134 884s-12-166 42-334zm746.7 144.7s67.5 167.5 72.8 178.8-2.2-28.2-2.2-28.2l67.3 118 2-16.7c.1.1-71.3-191.3-139.9-251.9zm87.3-15.2l59.3 27.2s-140.7-120.7-152-136c4 28.7 104.5 134.1 104.5 134.1l-11.8-25.3z"/><path id="hl1" fill="#FEEAEB" d="M1104 414l93 102s-12 21-22 32c-17-3-66-65-74-72s-142 52-142 52l145-114zm235 201c226 99 486-30 486-30s-32.2-62.6-59-64c-195 151-467 94-467 94 20-8 40 0 40 0zm438.8-94l56.2-21c210 204.7 253.3 218 253.3 218l-244-264-71.3 60 5.8 7z"/><path fill="none" stroke="#000" stroke-miterlimit="10" stroke-width="6" d="M1197 516c39-47 179-130 303-120 161-7 242 95 275 122 33 35 140 151 128 443l-60-76s1-151-16-198c2 6.3 39 183 5 328-7.3 4-160-236-160-236l47 178s-46-31-64-53-90-185-90-185 4 252 6 275-89-101-145-306c2-10-99 291-99 291s-20-163-11-292l-5 178-22 83s-21 92.7-14 228c0 33-24-94-24-94l-9 125-47-105-27 123s-29-94-38-280c0 0-24.7-221.7 67-436l-99-99-292 226 98-4s-45 225-45 230 65-93 67-98-25 327-24 335 71-115 71-115 27 152 28.5 156 44.5-96 44.5-96l30 171 36-92 25-66.5m83.7-201.8L1244 1052l45-104m543 184.5s36 87.5 47 118.5c23-32 47-248 49-245s47 208 50 189c17-36 37-105 38-155s-22-191-22-191 47 92 67 117c19-120-47.7-284-47.7-284l76.7 35.3-244.7-268.7L1766 510"/></svg>