<svg xmlns="http://www.w3.org/2000/svg" id="hair" viewBox="0 0 3000 3000"><path id="cl1" fill="#5B4224" d="M1439.6 436.95a219.097 219.097 0 0 0-6.55-2.353c-81.017-20.104-144.867-17.507-191.55 7.803-5.998 3.098-12.148 6.665-18.45 10.697-8.968 5.765-18.251 12.479-27.85 20.15-16.872 13.522-34.688 30.008-53.45 49.45-7.67 7.99-15.503 16.477-23.5 25.449-21.422 22.657-33.355 51.957-35.8 87.898-2.403 35.948-7.87 74.131-16.4 114.55-8.514 47.521-25.581 87.839-51.2 120.95-25.576 33.11-33.191 59.294-22.85 78.55 10.365 19.286 18.865 43.069 25.5 71.353-5.732 10.085-15.717 27.435-29.95 52.05-14.235 24.647-14.368 45.849-.399 63.6 11.664 13.145 33.633 27.845 65.899 44.103 30.923 17.121 46.173 37.788 45.75 62-.396 24.207 4.72 40.757 15.351 49.647 35.451 29.891 76.834 44.905 124.149 45.053l11.05 3c84.066 31.101 153.166 45.801 207.301 44.1 23.627-1.755 40.479-22.288 50.552-61.6-31.651 12.969-60.534 17.635-86.65 14-12.37-.855-27.554-18.022-45.55-51.5-8.357-26.792-4.811-49.875 10.648-69.25 15.469-19.374 16.416-42.207 2.852-68.5l-25-38.553c-17.205-24.813-17.538-53.846-1-87.1 21.578-40.552 21.578-75.936 0-106.15l-23.05-36.6c-10.743-17.166-9.91-31.516 2.5-43.05l31.948-31.5c14.612-14.379 15.146-46.445 1.602-96.2 18.768-6.231 37.018-11.134 54.75-14.7 28.111-5.625 54.93-7.892 80.449-6.8 35.221 3.675 80.119 12.356 134.699 26.05 47.369 16.915 93.92 12.065 139.649-14.55.237-.083.47-.167.7-.25 3.604-1.278 6.99-1.679 10.15-1.2 6.338 7.03 12.42 14.563 18.25 22.603 9.106 12.577 17.606 26.395 25.5 41.447 9.143 32.841 14.977 64.023 17.5 93.553 1.506 17.281 1.873 34 1.1 50.147-3.965 8.242-7.098 28.609-9.4 61.103a5323.244 5323.244 0 0 1-2.3 31.197 8076.092 8076.092 0 0 1-5.649 71.303l6.75 20.947-1 13.75-11.5 24.5c-9.957 3.056-15.891 5.57-17.801 7.553-3.089 3.622-7.822 17.139-14.199 40.55-9.604 1.882-14.955 3.549-16.051 5-3.043 16.229-5.71 27.596-8 34.1 15.129 22.688 24.295 41.703 27.5 57.051 3.35 9.666-2.867 18.198-18.648 25.602-15.754 7.431-40.152 14.331-73.201 20.7 32.521 25.685 60.556 40.084 84.102 43.197 23.58 3.153 41.863-10.913 54.852-42.197 2.777-7.872 5.109-18.955 7-33.25 1.668-10.57 10.232-19.521 25.699-26.853 15.496-7.327 26.029-15.994 31.602-26 5.578-10.008 5.511-20.772-.2-32.3a150.67 150.67 0 0 1-3.101-8.351c-6.104-18.357-5.652-31.524 1.351-39.5l31-24.052c8.321-7.558 10.321-16.974 6-28.25-12.88-27.655-24.046-57.174-33.5-88.55a433.655 433.655 0 0 0-1.55-5.2c-.177-.698-.358-1.397-.552-2.1-2.446-9.528-3.696-18.712-3.75-27.55.024-.608.042-1.228.052-1.853a12.606 12.606 0 0 1 0-.55 7.5 7.5 0 0 0 0-.3c.514-30.778-1.055-66.611-4.7-107.5-8.328-88.231-20.944-154.833-37.851-199.8a250.61 250.61 0 0 0-3.25-8.301c-18.828-60.686-72.162-122.752-160-186.199a313 313 0 0 0-13.649-8.7c-74.917-45.266-159.818-54.45-254.706-27.544z"/><path id="sd1" fill="#49351D" d="M1173.5 1215.5c1-3.7 2.1-7.4 3.5-12.3 8.3 9.699 15.4 18.8 23.8 26.699 19.9 18.601 42.601 31.398 69.8 35.5 2.603.398 5.4.601 8 .101 8.303-1.5 13.303 2.399 16.603 9.399 5.5 11.5 15.3 19.301 24.5 27.198 14.601 12.5 30 24 46.8 33.603 15.803 9 32.303 15.3 50.303 18 22.197 3.397 44.6 5.5 66.897 8 2.603.3 5.2 1.197 7.7 1.8-8.9 15.7-22.4 22.2-40.303 22.3-34.8.301-68.6-6.699-102.1-14.8-29-7-57.699-15.3-85.4-26.8-7.397-3.103-14.3-4.6-19.6-9.7-24.4-23.5-48.402-42.289-59.003-74.987-2.3-6.899-8.048-26.55-8.749-28.75-2.2-7.5-2.748-15.263-2.748-15.263zm378-680.1c-10.7-.9-20.3-6-30.6-8.603-30.9-7.6-61.7-15.1-92.7-22.199-3.3-.801-6.5-1.101-9.8-1.198-6.603-.103-13.2.397-19.801-1.603-3-.897-6.699-.8-9.899-.1-11.9 2.5-24.4 1.5-36.5 7.3 3.7-8.101 21.399-22.8 45.6-38.4-6-4.397-13.3-3.897-19.7-4.6-13.8-1.601-27.5-3.601-41.397-5-35.103-3.4-85.015-3.507-120.115-3.606 13-11.602 40.935-23.646 57.335-28.146 13.399-3.7 31.497-6.011 45.297-7.511 14.6-1.601 30.965.401 45.564.901 23.9.8 51.717 8.339 74.816 14.339 9.5 2.5 17.357 7.168 25.558 12.268 24.1 14.8 48.75 30.076 63.252 53.336 5.899 6.3 9.024 9.721 14.424 16.421 2.656 1.84 8.75 10.751 8.666 16.401zm145.334-68.233c-36.1 1.1-77.334 3.734-111.934 14.932.6 3 2.699 2.9 4.6 3.4 15.4 3.7 31.2 6.1 46.2 11.6 8.2 3 15.1 7.803 22.399 13.103-14.199 4.1-28 3.5-41.699 3.2-16-.301-31.7 1.897-47.4 4.1-1.7.2-3.3.6-4.2 2.6 13.3 7.2 23.3 17.7 32.3 31.603-17.3-2.4-31.697-8.9-45.6-16.302.917-5.816-12.206-23.508-7.25-16.899-9.697-13.1-11.982-15.276-23.684-26.677-11.698-11.398-24.116-23.573-37.316-33.073-8.602-6.198-28.352-15.552-37.25-21.75 3.985-2.707 17.5-5.2 21-6 22.5-5.7 47.135-8.3 70.334-7.5 29.5.9 58.9 2.966 87.5 11.167 20.801 5.898 39.899 15.033 59 25.333 2.8 1.495 10.9 4.462 13 7.163zm82.652 746.994c10.199 7.4 30.113 22.339 42.613 25.438 15.102 3.7 30.399 3.303 45.102-.6 15.898-4.2 32-8 47.3-14.5 5.802-2.5 7.601-5.6 7.101-11.1 4.199 9.5 2 18-4.5 25.6-9 10.7-20.398 18.4-32.898 23.8-15.602 6.801-21.4 18.9-22.801 34.4-2.102 23.4-12.399 42.5-30.199 57.5-10.4 8.8-23 8.3-35.2 5.8-23-4.6-42.5-16.6-61-30.399-2.399-1.801-16.3-7.203-16.899-12.103 5.899-1.601 22.155-4.921 28.155-6.222 14-3 26.528-8.278 39.929-12.979 6.898-2.397 10.76-5.723 16.461-10.623 6.5-5.601 7.004-10.474 5.104-18.674-1.799-7.8-4.984-12.091-8.688-19.191-5.104-10.1-14.479-26.147-19.58-36.147zm-714.09-460.025c.854 10.864 10.504 28.264 14.304 34.465 11.6 19.301 24.8 37.601 39.3 54.898 5.7 6.8 12.4 12.9 19.301 18.7 7.5 6.3 15.699 12.1 23 20.6-5.301.603-8.5 3-11.898 5.603-14.803 11-31.602 17.6-49.9 16.8-13.8-.603-27.698-2.2-41.1-6.4-11.102-3.399-22.102-7-33.2-10.399-3.8-1.198-15.991-3.637-20.092-3.237 5.102-10.2 14.177-21.174 21.278-29.875 17.898-22 26.336-46.683 32.635-73.781.798-4.505 3.472-23.475 6.372-27.374zm102.801 568.364c-14.198-6.4-28.398-12.5-41.299-21.8m0 0c-12.899-9.301-25.273-19.688-26.476-34.89-.598-10.799-3.224-31.661-3.424-42.561 7.899 9.399 21.899 27.35 30.899 35.75 6.101 5.7 13.398 8.7 21.199 10.3 6.301 1.301 8.899-.3 10.102-6.6 1.898-10.2 6-19.7 9.5-29.301 2.199-5.899 1.398-12.5 4.699-18-.699 32.398 16.807 59.304 34.807 85.005 8.5 12.199 22.994 24.495 33.794 36.596-12.101 1.899-31.501-.3-42.001-3.101-11-2.899-21.602-6.802-31.803-11.399M1846.55 997.6l-14.899 31.353V1043l9.25 25.9a8114.047 8114.047 0 0 0 5.649-71.3m10.6-142.449c-2.523-29.528-8.357-60.713-17.5-93.553-7.894-15.055-16.394-28.869-25.5-41.447l13 80"/><path id="hl1" fill="#6C4E2A" d="M1915.7 1195.2c-8.3 6.699-18.101 9.699-28.5 10.199-9.3.398-12.2-1.802-13.4-10.899-.8-6-2.3-9.2-8.899-9.2-5 0-7.398-3.5-8.698-8.2-.7-2.6-1.103-5.3-.7-7.897.602-3.603-3.898-7.5-.7-10.302 2.5-2.198 6.7-2.5 10.103-3.601 11.397-3.6 22.6-7.5 34.8-8.1 3.601-.2 7.101-1.603 10.3-3.5 5.4-3.301 10.6-6.9 16.1-9.9 7.201-3.899 10.5-11 14.4-17.399 2-3.301 1.801-7.801-.699-11.398-1.898-2.7-3.5-5.899-5.898-8-13.9-11.8-17.602-29.5-25.4-44.602-3.1-6.101-2.697-14.198-2.898-21.5-.399-9.698-2.102-19.101-5.399-28.198-2-5.4-2.899-10.802-2.8-16.603.199-10.699-.103-21.3.1-32 .2-12.6-3.3-25-2.1-37.699.5-4.898-.301-9.898 1.5-14.801.8-2.1.8-4.699.397-6.897-3.6-18.5-1.198-37.2-1.897-55.7-.301-7.7-1.4-15.2-3.5-22.5-4.9-16.602-10.301-32.899-15.603-49.399-3.198-9.898-5.3-19.801-4.897-30.301.3-7.699-.4-15.398.199-23 .801-11.699-2.399-23.1-2.302-34.699.302-1.699.9-3.199 2.7-4.601 2.398 1.398 2.8 4 3.5 6.3 9.198 29.9 16.1 60.301 21.8 91 5.7 30.7 9.603 61.602 12.603 92.7 2.897 29.2 4.697 58.398 3.5 87.6-1.5 35.4 6.697 68.5 19.897 100.9 6.4 15.7 13.302 31.2 19.302 47.1 6.5 16.9 7.101 23.802-11.5 35.7-6.102 3.9-11.899 8.5-17.302 13.5-9.397 8.6-14.1 19.1-10.8 32.2 1.191 4.597 1.791 9.197 2.691 13.697zm-914-287.7c9.5-1.5 16.6 1.3 21.6 10.2 2.3 4.2 6.7 7.3 10.3 10.8 5.7 5.3 12.9 3.6 19 2.5 7.301-1.4 14.5-1.1 21.801-1.5 4.199-.2 8 .8 11.199 3.4 8.801 7.197 19.603 7.5 30.103 8.5 4.698.397 9.1.697 13.5 2.8 4.5 2.2 9.198 3.8 14.397 3.397 20-1.897 38.7 3.803 57.5 9.5 19 5.7 38.5 6 58.103 3 7.5-1.197 15.1-.697 22.8-2 6.7-1.1 13.301-3.197 20.301-4-5.601 7-9.601 14.603-13.898 22-3.7 6.303-6.5 7.303-12.9 3.2-6.1-3.897-12.4-6-19.699-5.8-4.101.1-7.899.6-11.5 2.7-9.601 5.6-19.899 8.8-31 9.6-4.2.3-8.301 2.3-12.5 3-7.899 1.5-15.801 1.2-23.601-1.6-21.899-7.7-44.3-6.9-66.8-4.102-6.2.802-11.4-.101-14.7-5.698-3.601-6.103-8.7-8.103-15.8-8.103-10.9 0-21.2.5-30 8-1.102 1-2.9 2-4.301.103 3.199-7.7 6.398-15.302 9.5-23 1-2.5 1.898-5 2.301-7.603.398-2.5-1.102-4.5-3.301-5.6-2.5-1.2-4.699 0-6 2-1.5 2.2-2.602 4.7-3.5 7.2-6.801 18.397-19.168 47.334-26.77 65.435-1.898-1.2-5.215-13.79-5.816-15.29-6.101-15.801-7.19-22.557-13.89-38.057-7.104-15.693-4.329-40.382 3.571-54.982zm401.8-238.333c2.4-2.5 12.1.533 14 1.333 9 3.6 17.7 4.4 26.9-.2 8.1-4.1 16.5-4 24.8.9 7.1 4.2 14.8 5.8 22.8 1.9 1.2-.603 2.5-1.303 3.801-1.303 22.5.303 45.199-2.897 67.5 2.7 9.399 2.4 17.699 7.7 26.199 12.103 6 3.1 12.2 3.8 18.4 2.3 12.8-3.103 24.9-1.2 37 3.2 9.699 3.5 19.8 5.397 29.9 7.197 5.299.9 10.397-1.697 15.6-2.5 10.6-1.8 21.1-2 31.6 0 2.7.5 5.1.4 7.801-.3 13.102-3.397 26.299-6.7 39.5-9.8 11.199-2.7 17.799-11 24.399-19.4 2.2-2.8 4.101-5.6 7.3-10 .301 5.5.5 9.103.7 12.603-.601 15.5-6.399 27.2-21.7 33.8-18.699 8-37.699 15.3-57.699 19.1-14.898 2.9-29.801.7-44.601-2-28.2-5.1-55.6-13.1-83.399-19.8-21.601-5.2-43.301-10.5-65.5-13-24.898-2.8-49.801-1.5-74.5 2.4-4.601.7-17.059 2.653-21.656 3.454-5.103.897-10.897-3.786-14.498-6.688-6.402-5.397-10.947-10.199-14.647-17.999zm-221.132-185.204c14.799-9.13 29.731 1.938 36.432 2.438 2.601.197 5.2 1.3 7.8 1.1 10.4-1.1 20.4 2.3 30.7 2.3 5.3 0 11 1.8 13.8 6.8 4.7 8.103 12.603 10.7 20.603 12.603 9.699 2.3 17.3 6.5 21.5 15.897 1.8 4.103 5.5 5.802 9.601 6.302 3.699.398 7.102 1.101 11 3.198-20 4.7-39.699 7.7-59.699 6.9-20-.9-39.801 2.9-59.699 2.1-11.9-.397-23.7-2.6-35.301-5.198-4.899-1.102-10-2.699-13.5-6.199-4.199-4.103-17.381-8.573-22.381-10.972 4.199-7 13.19-13.401 18.892-18.802 9.896-9.303 9.452-10.467 20.252-18.467zm161.155 116.491c3.1 2.5 9.377 18.947 10.076 22.546 2.801 13.8 8.301 26.3 18.699 36.4 4.2 4 9.5 5.897 14.102 9.1 3.101 2.2 6.301.3 9.301-1.4l-.102.103c.399.897 1.199 1.5 1.802 2.197 6 9.5 18.226 17.78 28.124 25.883-12.5 4.3-29.727 7.72-41.124 10.22-3.7.8-7.341 4.557-10.44 2.457-41.602-22.77-52.794-66.46-30.438-107.506zm457.31 86.379c2.199-.8 12.767.567 15.167.667 11.4.9 21.5-3.1 31.4-7.9 1.897-.897 4-3 6.1-.1-10.6 11.6-23.2 19.6-39.5 19.9-2.8.1-18.21 1.5-19.511-2-1.098-2.898 4.344-8.366 6.344-10.567zM1116.9 1189.9c14.8-1.4 28.6-4.603 42.6-7.303 7.4-1.397 15-2.697 22.6-3 26-1 50.5-6.897 72.2-21.897 5.8-4 12.101-6.9 18.8-9 5.301-1.603 10.4-1.9 15.5.397 8.801 4 17.301 3.5 25.801-1 4.699-2.5 9.802-4.197 14.602-6.397 9-4.2 17.898-3.103 25.5 2.6 7.398 5.5 14.398 11.601 15.7 22.101.8 6.5 3.8 12.699 5.1 19.199 2.9 14-3.897 23.801-14.8 31.2-5.7 3.9-12 7.2-18.2 10.3-10.5 5.2-18.198.2-18.897-11.699-.4-6.601.3-13.101-1.4-19.801-1.2-4.8-3.4-7.397-7.5-9.6-11.801-6.101-23.7-5.5-35.7-1.101-3.1 1.198-6 3.101-9.5 2.601-15.1-2.101-28.8 3.2-42.6 8-8.601 3.1-17.3 4.7-26.4 4-18-1.3-35.7 3-53.7 2.1-8.5-.397-16.3-2.6-24.1-5.6-2.206-.9-4.706-2.1-5.606-6.1z"/><path fill="none" stroke="#000" stroke-linecap="round" stroke-linejoin="round" stroke-width="6" d="M1547.25 525.75c-33.354-44.338-69.238-73.93-107.65-88.775a176.819 176.819 0 0 0-6.55-2.375c-81.017-20.104-144.867-17.507-191.55 7.803-5.998 3.098-12.141 6.665-18.426 10.697-8.984 5.765-18.27 12.479-27.852 20.15-16.889 13.524-34.703 30.017-53.447 49.475a888.117 888.117 0 0 0-23.525 25.428c-21.422 22.657-33.348 51.958-35.775 87.897-2.42 35.948-7.895 74.131-16.425 114.55-8.515 47.521-25.572 87.839-51.175 120.95-25.594 33.11-33.21 59.302-22.85 78.575 10.349 19.271 18.84 43.044 25.475 71.325 13.355-31.271 23.689-57.802 31-79.603m306.95-358.497a176.614 176.614 0 0 0-6.175 8.228c-31.799 45.333-23.059 84.475 26.225 117.425 18.768-6.231 37.018-11.125 54.75-14.675-20-10.104-32.109-23.346-36.325-39.728v-.022c-3.192-12.434-1.835-26.674 4.075-42.728m32.25 82.475c28.113-5.644 54.93-7.917 80.45-6.825 35.22 3.675 80.12 12.358 134.7 26.05 47.369 16.915 93.92 12.065 139.647-14.55.237-.083.471-.167.7-.25 6.974-2.688 11.947-8.323 14.925-16.9 2.964-8.554 3.938-20.036 2.926-34.447-.969-13.942-3.802-30.626-8.5-50.053M1779.1 1215.3c15.129 22.688 24.295 41.703 27.5 57.051 3.352 9.666-2.857 18.207-18.625 25.625-15.77 7.414-40.178 14.308-73.225 20.677 32.52 25.685 60.563 40.093 84.125 43.225 23.563 3.136 41.838-10.938 54.825-42.225 2.778-7.872 5.11-18.955 7-33.25 1.667-10.57 10.241-19.521 25.725-26.853 15.479-7.326 26.005-15.994 31.575-26 5.578-10.008 5.511-20.772-.2-32.3a150.105 150.105 0 0 1-3.1-8.35c-6.104-18.358-5.653-31.525 1.35-39.5l31-24.053c8.321-7.558 10.321-16.974 6-28.25-12.88-27.655-24.038-57.174-33.475-88.55-.521-1.729-1.036-3.463-1.55-5.2-.191-.697-.386-1.397-.575-2.1-2.447-9.528-3.688-18.703-3.726-27.525.008-.625.018-1.25.023-1.875a12.606 12.606 0 0 1 0-.55 7.5 7.5 0 0 0 0-.3c.516-30.778-1.053-66.611-4.7-107.5-8.327-88.231-20.937-154.824-37.823-199.775a267.477 267.477 0 0 0-3.274-8.322c-18.829-60.687-72.162-122.753-160-186.2a321.577 321.577 0 0 0-13.625-8.7c-74.929-45.272-159.837-54.447-254.726-27.524M1863.7 668.5c-17.046 24.197-38.08 34.364-63.101 30.5a17.175 17.175 0 0 0-4.699-1.45c6.338 7.03 12.43 14.572 18.272 22.625 9.095 12.563 17.584 26.37 25.478 41.425 9.143 32.841 14.982 64.023 17.522 93.553 1.491 17.282 1.851 34 1.075 50.147-3.965 8.242-7.1 28.617-9.399 61.125a8275.34 8275.34 0 0 1-2.274 31.2c-1.7 22.58-3.592 46.339-5.674 71.275-.08 1.05-.162 2.1-.25 3.147m-54.9-373.297c3.605-1.278 6.99-1.679 10.15-1.2m-622.7 514.7c6.024 51.97 31.409 94.853 76.149 128.65 84.064 31.101 153.166 45.801 207.301 44.1 23.627-1.755 40.478-22.288 50.55-61.6-31.651 12.969-60.534 17.635-86.65 14-12.37-.855-27.554-18.022-45.55-51.5-8.359-26.792-4.809-49.875 10.65-69.25 15.467-19.374 16.416-42.207 2.85-68.5l-25-38.553c-17.205-24.813-17.538-53.846-1-87.1 21.578-40.552 21.578-75.936 0-106.15l-23.05-36.6c-10.743-17.166-9.91-31.516 2.5-43.05l31.95-31.5c14.61-14.379 15.146-46.445 1.6-96.2m-358 312.453c-5.732 10.085-15.717 27.443-29.95 52.075-14.235 24.631-14.368 45.821-.399 63.572 11.664 13.145 33.633 27.845 65.899 44.103 30.923 17.121 46.183 37.788 45.775 62-.413 24.207 4.694 40.757 15.325 49.647 35.451 29.891 76.834 44.905 124.147 45.053l11.052 3"/></svg>