<svg xmlns="http://www.w3.org/2000/svg" id="hair" viewBox="0 0 3000 3000"><path id="cl1" fill="#424242" d="M1842.698 1121.2c1.601.602 2.601 1.7 2.9 3.102 3.5-17.7 10.8-34 18.8-50.102 1.2-2.398 2.7-4.6 4.5-6.6s3.8-4.601 6.602-3.3c2.898 1.3 2.198 4.6 1.5 7.1-2 7-3.302 14.2-5.102 23.6 3.5-10.3 6.4-18.398 10-26.198 2.2-4.9 4.9-9.5 8.8-13.2 1.2-1.102 2.7-2.2 4.5-1.7 2.302.7 2.602 2.9 2.5 4.9-.1 4.398-1.198 8.5-2.8 12.198-.898 1.5 1.4 1.4.102 1.102-.2-.102-.2-.4.198-1 4-6.5 7.601-13.4 14.4-17.602 2.699-1.6 4.199-4.198 5.199-7.198 11.801-34.4 26.899-67.5 38.101-102.102 2-6.198 3.5-12.6 5.399-18.8-10.8 26.9-23.8 52.8-38.699 77.602-3.9 6.6-7.7 13.3-11.801 19.698-1.101 1.7-2.699 3.602-4.8 2.9-3-.9-2.301-3.8-1.601-5.9 3.7-12.1 7-24.3 11.7-36.1 1-1.9 2.3-3.601 2-5.9 0-.898 1.199-1.3.8-2.3-.2.5 0 1.2-.7 1.602-.3 2.198-.399 4.398-2 6.1-2.899 8.5-6.8 16.6-11.8 24.1-1.601 2.4-3.5 5.9-6.899 4.3-3.301-1.5-2.2-5.3-1.2-8 5.101-14.8 10.899-29.3 13.801-44.698.199-1.302.8-2.5.8-3.302-7 15-16 29.302-25.6 43.302-1.301 1.8-3.102 4.198-5.7 3-3-1.4-2.4-4.5-1.6-7 1.6-5 3.398-9.9 4.6-15.102-2 9.5-6.5 18.102-11 26.5-9.4 17.4-15.9 35.801-19.4 55.301-.698 3.899-.3 9.199-6.5 9.699-2.699-6.794-8.229-18.969-9.031-25.368-.829-6.613-1.305-8.094.167-13.833 5.544-21.621 17.166-39.898 17.166-39.898.698-.602 2.398.7 3.198.1 2.4-2.398 3.9-5.5 5.102-8.5 15.1-39.1 35.398-76.2 45.5-117.2 8.2-33.1 13.6-66.5 12.5-100.8-.3-10.7-2.2-21.2-6.7-31.1-1.2-2.602-3.3-6.2 0-8.102 3-1.698 5.5 1.5 7.2 3.9 6.8 9.2 10.898 19.8 16 29.4-1.5-21.102-5.2-42.302-14.7-62.102-1.4-2.898-3.8-6.398-.7-9.1 2.9-2.5 6.5-.5 9.3 1.1 10.9 6.4 19 15.5 25.302 26.4 2.3 4 3.6 8.6 7.6 11.9-.199-7.7-2.1-15.102-4.6-22.301-6.101-18.399-13.7-36.101-24.2-52.5-4.2-6.399-4.101-6.5-1.8-11.199 26.899 21.5 42.6 49.5 48.198 83.5 2.7 16.3 1.7 32.5 1.9 48.8.1 12 .1 24-.3 36-2.101 60.7-10.601 120.1-32.101 177.6-16.601 44.101-28.801 89.801-38 136.2-4.301 21.8-8.699 43.7-11 65.7-3 28.8-3.699 57.6-1.399 86.6 2.5 30.6 15.6 56.7 30.6 82.4 12.2 20.8 27.3 39.1 43.8 56.698 15.802 16.802 32.302 32.5 49.9 47.4 1 .8 1.5 2.1 2.301 3.2-2 5.7-5.899 2.6-8.601 1.398-19.5-9-39.601-17-57.3-29.5-9.9-9.698-17.101-21.5-26-32-15.4-23.198-30.9-46.3-47.4-68.8-3.5-4.8-7.4-9.5-8.1-15.7-1.301-9.5-5.801-18.5-5.101-28.398.3-3.3-.301-7.9 3.199-8.8 4.5-1.102 5.7 3.698 6.9 7 1.8 5 3.698 9.898 4.5 15.198-6.101-29.8 1-60.6-6.302-90.8-4.3 10.601-1.898 22.7-8.198 33-6.7-5.2-5.9-12.1-6.5-18.2.399-1.698-1.5-.698-.2-.8.3 0 .2.3.101 1-.5 2.9-.5 6.7-4.2 6.8-2.8.102-3.601-3.5-4.601-5.898-1.899-4.801-4.199-9.4-5.6-12.9 2.198 14.4 5.3 30 8.698 45.601.802 3.5 1.802 7.301-1.799 10.101-5.101-1.601-5.5-6.4-6.701-10.3-8.6-27.302-17.1-54.602-19-83.302-1-15.8 2.602-31.698.802-47.698.198-1.2 1.5-2.9 1.5-2.9 1.302-5.099 8.7-8.999 8.7-8.999zm-111.5-482.1l2.302 1.5s4.8 8.398 7.8 13.3c14.2 12.7 45.6 66 57.398 104.8 1.5 4.8 1 12.2 4.602 15.9 12.868 26.566 25.3 39.5 38.7 61.8 10.198 16.9 18.668 33.1 27.6 54.2.1 2.898-1.1.898 4.199 1 10.301-22.4 20-43.3 21.301-67.5 1.8-31.5-.5-61.8-4.801-93.2-2.299-16.4-6.5-33-9.299-49.3-3.802-22.4-10.9-46.3-18.5-67.5-7.701-31.7-23.201-47-49.802-68.102-20.698-19.398-41.1-38.398-66.6-51-13.101-6.5-25.9-13.898-38.2-21.8-12.398-8-28-12.5-41.5-18.2-9.101-3.8-19.7-6.5-29.7-7.8-5.698-2-9.899 4.7-14 7.102-41.3 25-84.8 45.6-129.399 64.198-16.5 6.9-34 11.602-49.399 21.2-1.7 1.7-6.7-3.5-8.399-1.8-3.101 2.4-5.301 4.3-8.801 6.1-3.3 1.802-5.399 9-7.8 5.102-2-3.3 1.5-2.602 3.7-4.7 1-.9 2-1.8 3-2.6 9.5-7.302 20.5-16.602 29-25.102 14.5-14.6 32.898-27.6 46.199-43.3 7.699-9.1 23.101-23.2 28.101-34.3 7.3-16 8.1-30.2 5.899-46.7.601-1.601 2.301-3.5-.5-5.3-2.699 1.8-5.399 3.5-8.199 5.398-20.7 14-42.4 26.301-64.7 37.4-22.4 11.2-46.101 18.8-70.5 24.3-29.3 6.5-57.5 16.3-85.101 28-35.801 15.102-70.199 36.602-98.101 63-12.198 11.602-23.1 24.7-33.8 37.9-22.7 27.898-34.101 64.5-38.5 99.8-2.601 21.1-9.101 41.7-12 62.7-2.7 19.398-6 42.1-7 61.6-.8 15 .8 29.3.7 44.3-.102 21.5 1.898 49 15 55.2 11.5 20.2 27.898 41.3 40.1 61.2 14.8 30.1 32.601 54.6 41.4 86.5 8.898 59.4 31.898 80.8 52.198 119.1 4.5 8.5 8.602 17.302 12.5 26.102 7.4 16.699 14.602 33.5 21.802 50.3 1.3 1 .898 2.9 2 4.1 6.1-1.398 4.6-6.5 4.898-10.398.9-13.7-.5-27.3-3-40.7-9.699-53.6-13.5-107.5-4.898-161.7 4.3-26.898 3.898-53.6.6-80.398-5-40.3-16-79.4-24.8-119-1.4-6.4-5.7-13.102-.4-19.802 2.301 1.4-.699 5.802 1.801 14.302 1.101 3.8 2.5 7.5 3.801 11.198 1.699 3.5 3 7.302 5 10.7 13.199 23.4 41.199 29.602 63.6 25.7 19-3.3 36.1-10.8 48.6-26.8 21.302-27.5 39.602-56.601 52.5-89 6.102-15.4 15.5-32.9 13.302-49.9 0-.6 0-1.3-.102-1.898-2.398-2-.1-5.4-2.1-7.802-1.4-10.898-5.5-20-9.5-29.398 9.5-6.2 9-6.102 12.6 4.2 5.9 17 10.102 34.5 14.7 51.8 9.9 36.7 22.2 72.6 42.7 105.1 5.7 9.102 12.899 13.5 23.899 12.9 19-1 37.899 1.5 56.699 3.3 30.2 2.9 60.4 3.7 90.7 2.5 5.8-.2 10.199-2.5 13.6-7.1 9.302-12.602 18.5-25.2 27.302-38.2 19.198-28.2 22.198-59.3 17.8-91.9-3.101-23.6-11.2-45.7-20.5-67.5-1.9-4.398-3.9-6.6-1.601-12l.899-1c.5-1.102.102-1.602 1-2.102M1098 726c-24.302 22.5-48.802 44.9-64.9 74.7 10.4-47.398 30.699-90.398 54.4-132.6-20.5 16.5-41 32.898-61.5 49.398 12.8-30.898 26.6-60.6 43.898-88.698 16.602-27 36.602-50.4 63.5-67.602 1.2-.8 2-1.8.5-3.1-10.6 2.8-20.8 6.898-30.898 11.1-33.9 14-56.2 39.2-71.102 71.9-13.6 29.8-21.898 61.2-29 93.1-4.2 19.2-7.3 38.602-6.5 58.2.5 12.3 1.102 24.5 1.602 36.8.398 10.602 1.1 21.2 2.3 31.8 2.3 20.802 4.7 41.5 7.898 62.102 1.602 10.398 1.602 21.1 5.7 31 3.3-3.2 3.3-7.4 2.7-11.2-2.3-14.5-1-29.3-3.1-43.8-1.102-7.602-1-15.3-.2-22.9.2-2.3.898-4.898 3.898-4.898 2.4 0 3.102 2.3 3.7 4.198 1.101 3.2 1.601 6.5 2.3 9.7 2.2 10.4 4.602 20.8 7.4 31.102 1 3.698 3 9.398 7.4 2.698 5.198 16.4 7.6 34.102 11.3 51.602.5 2.2.8 5.2 3.7 5.3 2.898.1 3.1-3 3.5-5.2.698-3.6 1.5-7.2 1.1-10.8 16.9 55.4 7.4 112.3 10.4 168.5 0-14.4-3.9-28.3-5.2-42.5-2-21.8-2.102-43.9-7.2-65.4-1.1-4.6-.699-11.898-6.8-11.6-5.3.3-6 7.1-6.602 12.1-.1 1-.1 1.302 0 .9-1.6-11.9-3.1-23.8-5.398-35.5-.5-2.5-.8-6-4.102-6-2.898 0-4.198 2.9-5.1 5.5-2.699 7.7-2.4 15.7-2.1 23.7 0 .7.198 1 .399.898 1.299-.5-.399 1.102-.601-.198-.399-6.302-1.8-12.5-2.601-18.802-.399-2.898.399-7.198-4.699-7.198.1 13.3-.801 26.698.6 39.898 2.4 21.8.7 43.8 3.1 65.602 1 9.5-1.898 19.1-1.5 28.8.302 8.6-.5 17.1-1.6 25.8-3.699 27.9-11.5 54.5-25.1 79.2-10.4 18.898-22.7 36.7-34.302 54.898-7.6 12-16.898 23-23.5 35.7.4.3.802.602 1.102.9 3.398-.101 5.3-2.601 7-5 11.398-16.2 29.2-23.7 45.5-33.3 1.898-1.102 4.5-2.802 6.5-.9 2.5 2.3.3 5-.8 7.2-3 6-7.2 11.2-10.601 16.898-1.801 3-5.2 6.602-2.2 9.802 2.801 2.898 6.101-.7 8.899-2 8.601-4 16.801-9.102 27.7-11.4-4.6 9-9.8 15.7-15 22.5-.6.8-1 1.6-1.399 2.5-1.5 4.8-.601 7.5 5 5.3 3.3-1.3 5.699-4.2 9.3-5.898-4.899 6.6-9.899 12.3-13.699 19-.801 1.398-1.7 3.3-.601 4.698 1.5 1.9 3.5 1 5.399.302 4.8-1.7 7.3-6.802 12.4-8.102 10.1-11.398 15.8-25.2 20.699-39.3 1.899-5.6 1.899-11.1.199-16.6-1.5-4.9-1.4-10-.699-14.802 3.399-23 9.601-45.3 18.5-66.898 4.399-10.7 9.601-21.3 12.699-32.4 3.6-13 4-26.8 4.6-40.3.4-10.2-1.5-20.6 1.701-30.7.5-1.5.399-3.5-.201-4.899-2.1-5.199-1.799-10.5-1.398-15.801 1.2-17.699-1.899-35.1-2.602-52.7-.299-9-1.198-18.398-2.799-27.5-1.899-11-4-22.1-5.101-33.3-.7-7.2-1.101-14.5-2.2-21.7-2.5-16.3-5.6-32.6-5.3-49.198.399-20.9-.101-41.7 1.5-62.7 1.8-24.2 9-45.8 20.7-66.7C1086.5 749.1 1094.4 738.6 1098 726zm-127.9 657.7c7.1-8.7 13.9-17.6 20.4-26.8 1.5-2.1 3.198-4.8.698-7.1-2.3-2.102-5.1-.9-7.3.6-5.1 3.5-10.2 6.9-14.1 11.9 10.8-14.5 24.898-26.5 34.199-42.2 1.101-2.2 3.899-4.2 1.399-7-2.2-2.601-4.899-1.4-7.3-.4-9 3.8-16.4 10-23.6 16.5-19.9 17.9-34 40.5-50.102 61.602 3.2-4.2 6.3-8.5 9.102-13 2.5-4 8.6-8.802 4.198-12.9-4.5-4.1-8.398 2.7-12.398 5.3-.602 1.2-.2-.5-.602.801-.3.801-.5 1.301-.6.899-.3-1 1.2-1 1.2-1.899 5.6-4.899 9.199-11.301 12.898-17.601 1.5-2.5 3.7-5.7 1.2-8.2-2.7-2.698-5.5.2-7.899 1.802-6 4.1-11.899 8.3-19.199 13.398 4.5-10 9.6-17.398 14.3-25 2.2-3.6 5.6-6.898 4.1-11.8-.398-.3-.698-.6-1.1-.9-2.5 1.7-4.101 4.302-5.9 6.7-17.5 22.601-34.1 45.9-53.698 66.8-5 5.302-9.302 11.4-13.102 17.602-7.898 12.8-7.1 31.898 1 42.199 8.7 11.101 18.602 20.801 30 29 4-.399 6.8 4.101 11 2.801.4-.801.602-1.4.9-2 3.398-7.5 1.398-15.7 3.3-23.4 3.899-16.1 13.5-28.5 24.6-40 12.2-12.6 25.802-23.6 40.2-33.5.006-1.704 1.106-2.904 2.206-4.204zm19.098 192.2c-16.898-6.1-34.198-10.4-51.6-14.4-3.9-.898-7.8-1-11.601.5-3.601.7-7.199 1.2-10.699 2.302-22.102 6.5-43.9 13.5-62.7 27.5-8.3 6.198-15.9 13.198-21.9 21.698-5.898 8.2-4.3 13.2 4.802 17.2 6.698 2.9 13.198 6.2 20.5 7.602 16.6 3.5 16.898 3.5 20.1-6 2.3-2.7 5.5-3.4 8.8-4.2 24.2-6 49.2-7.4 73.7-11.8 10.1-1.802 20.4-2.9 30.1-6.5 8.5-3.2 11.301-7.4 11.5-16.5.101-3-.1-6-.1-9-2.6-4.602-6.402-6.802-10.902-8.402zM2048.8 1783.2c7.5-1.898 13.8-6.6 19.398-11.5 11.5-9.898 19.9-21.898 22-37.5 1.2-4.2 2-8.5-.398-12.3-2.602-4-20.3-5-25.5-1.9-4.5 6.802-10.602 11.7-18 15-17.5 7.802-33.8 18-50.9 26.5-3.2 1.602-6.3 3.602-9.2 5.802-4.8 3.698-5 5.398-2.198 12.698 6.3 4 13.5 4.7 20.8 4.9 11.1.4 22.2-1.9 33.398-.9 1.302-.1 2.602-.1 4-.198 1.6.298 4.8.898 6.6-.602zM1998 1624c1.8 5.7 4.8 4.9 8.6 1.7 7.1-6 11.199-14.8 19.4-19.8 5.1-3.7 9.6-8 15.5-10.7 9.8-4.5 15.3-12.398 16.698-23.1 1.602-1.8 0-4.4 1.802-6.2.1-1.3.1-2.6.198-3.8-1-8.9-1-8.8-9.198-5.7-15.102 5.8-30.4 10.6-46.302 13.4-5.1.898-11.3-1.5-15 3-3.6 4.3-.8 10.199-1.698 15.398 1.1 12.502 5.5 24.202 10 35.802zM870.9 1806.7c13.102 2.5 31.4 3 36.2 1.102-.2-.602-.3-1.302-.6-1.802-5.9-8.6-5.2-11.398 4.398-15.198 4.602-1.802 9.5-3.102 13.2-6.7-9.1-3.102-18.4-4.2-27.9-4-9.398 7.798-18.5 15.898-25.298 26.598zm2.9-103.1c-4.4 6.399-10.3 12.1-11.5 20.3 7.5 0 15 .1 22.6.1 2.601 0 5.3.5 7.2-2-.9-.5-1.4-1.398-1.9-2.198-.8-1.4-1.6-2.802-2.3-4.302-3.7-8.6-1.8-13.3 6.9-16.898 2.398-1 4.898-1.7 7.3-2.602-2.7-6.1-8-8.6-14-10-4.902 5.802-10 11.4-14.3 17.6z"/><path id="hl1" fill="#565656" d="M1843.225 1071.144c3.3-23.3 14.474-50.444 25.674-70.944 4.2-7.8 7.602-16.1 12.2-24 .699 8.5-3.9 16.102-4.801 26.2 8.101-9.1 12.7-18.3 17.899-26.9 5.101-8.398 9.7-17.1 15.101-25.398.801 21.6-10.101 40.3-14.601 60.6 8.7-8.3 11.801-20 19.301-28.699-2.101 14.399-7.101 28.101-9.899 42.801 6.6-11.4 13-22.9 19.8-34.2 7.2-11.9 13.4-24.4 19.4-37 5.699-12.101 11-24.4 17.5-36.2.6 9.5-2.301 18.2-5.102 26.8-9.3 28.4-20.698 56-31.5 83.8-2.198 5.602-4.1 11.2-6 16.9-1.698 5.4-2.698 10.9-9.698 12.4-2.102.398-3.302 3.1-4.5 5.1-3.302 5.3-6.9 10.5-11.302 17-1.698-9.1 4.102-16 3-25-14.198 13.1-16.1 31.2-24.198 46.2-3-12.2 1.8-23.2 4.698-34.9-11.398 6.8-25.698 40.5-28.898 67-5.602-1.7-1-8.5-5.301-10.6.002-.004 14.171-24.077 1.227-50.96zM1017.9 984c3 2.2 1.8 5.4 2.2 8.302 1.1 9.6 2.3 19.3 6 28.6 4.3-12.8-1.6-27.3 7-40.6 2.6 16.898 5.1 32.398 7.7 49.1 4.898-6.5 3.2-14.6 9.6-21.3 2.7 15.898 6.8 30.398 7.3 45 .602 21.6 3.4 42.9 6.9 64.1.9 5.602.4 12 5.5 17.602v-66.5c0-3-.3-6.2.6-8.9 2.102-6.2 2.102-12.8 1-18.8-1.698-9.3-1.5-18.5-1.698-27.8 0-1.7-.102-3.302-.4-5l-9.6-53.7c-.302-1.9-.2-4.102-3.5-4.5 0 8.3-3 16.1-3.2 24.398-5.102-21.5-7.4-43.698-16.8-64-.302 3.302-.7 6.602-1.102 11.2-2.1-4.398-2.8-7.5-3.398-10.8-2.5-12.7-6.302-25-8.2-37.8-.5-3.602-3.2-7.5-7.102-7-3.398.5-5.898 4-6.5 8 0 .3-.1.7-.1 1 0 8-.6 16.1.3 24 2.102 18.5 2.8 37 3.7 55.5.7 9.998 1.8 19.998 3.8 29.898zm861 333.7c-1.5-4.7-3-9.5-4.1-14.3-1.3-5.9-1.5-11.9.398-19.2 3.9 5.9 4.4 11.4 6.5 16.102 2.2 4.8 2 10.898 7.102 14.6 1.398-2.1 1.1-3.7.6-5.3-2.899-9.602-3.8-19.4-3.6-29.5.5-20.9 0-41.801-1.9-62.7-.3-3.4-1-6.3-4.7-9.6-6.1 12.6-4.698 26-8.398 39-3.7-7.9-2.4-16-6-23.4-1.301 4.5-2.5 8.6-4 13.9-3.801-10.7-7.102-20.102-14.102-27.602.9 9.7 3.102 18.9 4.302 28.4 1.6 12.1 6.198 23.7 6.898 36 5.102 16.7 10 33.399 20 48 1.7-1.2 1.6-2.6 1-4.4zM1228 614c-1.9.802-3 2.4-4.2 4.102-4.8 7.2-9.7 14.2-14.7 21.3-1.3 1.8-2.6 4.3-5.4 3.601-2.198-.5-2.5-2.899-3.3-4.601-.3-.6-.2-1.3-.399-1.899-2.5-8-6.601-10.5-14-7.301-8.801 3.9-16.699 8.801-20.301 19-2.6 7.301-4.3 14.7-5.5 22.102-2.399 14.3-4.3 28.8-6.1 43.199-1.4 10.801-2.7 21.699-4.6 32.399-1.802 10.2-.5 20.5-3.102 30.601-1.3 5-2.1 11.399 1.5 16.899 3.4-2.6 4.602-5.8 5.602-8.899 6.5-19.801 18-37 29.6-54 3.3-4.801 7.199-10.101 13.6-11.801 1.5 2.4 1.2 4.5 1.2 6.4.399 13-3.5 25.5-4.899 38.398-1.201 11.2-3.701 22.2-3.101 33.602.5 8.898 5.3 12.7 13.8 10.6 4.301-1.1 7.9-3.699 10.5-7.199 8.601-11.399 17-22.899 25.601-34.199 5.601-7.4 11.801-14.5 20-19.102 5.601-3.199 7.7-2.398 9.899 3.301 1.4 3.699 2.4 7.5 2.2 11.699-.3 5.301-.399 10.7.101 16 .601 7.602 1.199 15.2 5 22.102 3.799 7.1 6.5 7.5 11.899 1.8.899-1 1.7-2 2.5-3.101 7.8-10.301 13.7-21.801 23-31.199 4.3-4.4 9-8.9 12.5-14.2 7-10.5 16.7-17.9 27-24.7 6.601-4.3 9.899-2.8 9.899 5 0 9.9.899 19.9-1.5 29.8-.799 3.2-3.299 7-1 12.102 8.5-13.602 16.399-26.2 24.101-38.9 8-13.1 15.601-26.3 10.399-42.6-.101-.302 0-.7 0-1-1-10.4-4.5-20-9.899-28.9-3.5-5.7-7.2-5.8-11.399-.1-2.101 2.898-4.399 6.1-5.399 9.5-3.101 11.1-9.601 20.398-15.4 30-4.5 7.5-11.399 13-17.899 18.698-4 3.5-7.899 1.5-8-3.698-.101-6.9-.699-13.802 1.399-20.802 4.801-15.198 9.2-30.5 10.9-46.398.198-1.9 1-3.7.399-5.8-1.399-5.4-2.301-6-7.5-3.5-3 1.398-5.899 3-8.301 5.5-9.4 9.898-19.3 19.3-29.9 27.898-9 7.3-17.6 15.2-28.398 20-8.9 3.9-10.9 2.9-12.4-6.8-.3-1.7.102-3.2.4-4.9 2.7-13.5 8.398-25.698 15.398-37.5 3.102-5.3 6.602-10.5 7.5-16.898-2.698-.3-3.8 1.1-5.1 2-8.6 6.3-16.9 12.898-24.1 20.7-5.4 5.898-11.9 10.698-18.301 15.3-7.199 5.1-11.899 2.3-12.301-6.4-.398-9 .5-17.699 4.2-26.3C1225 628.4 1227.3 621.302 1228 614zm489.3 128.802c-1.102-6.5-2.5-13-3.2-19.5-1.9-16-2.4-32.4-13.3-45.802-6.9-8.5-9.102-19.898-17.7-27.5-8.4-7.6-12.3-7.1-16.5 3.2-.4.9-.6 1.9-.8 2.9-3.2 11-9 20.7-15.7 29.8-7.9 10.7-18.3 10.7-26 .4-6.2-8.2-12.1-16.602-16.3-26.102-1.5-3.398-4-5.199-6.7-1.898-6.1 7.398-14.8 12.398-19.7 21-4.5 7.898-7.5 8.8-15 3.898-11.8-7.8-21.5-17.6-28.2-30.3-1.398-2.7-1.698-6.399-6-7.5-4.5 11-1.5 22-1.3 32.9-5.6-14.2-9.398-28.8-16.2-44.8-3.3 11.1-7.6 20-6.398 29.699 2.398 19 4.898 38 6 57.199.5 8.9 1.398 17.801 1.7 26.7 0 1.601.398 3.3 1 4.8.698 1.801 1.5 3.801 4 3.801 2 0 2.698-1.601 3.6-3 4.2-6.899 6-14.801 9-22.101 2.7-6.5 3.4-13.899 8.9-21.2 3.198 8.4 4.8 15.7 5.398 23.2.4 6.4 2.2 12.4 4.102 18.4 1.1 3.6 3.6 3.6 6.1 1.6 1.5-1.2 3-2.8 3.7-4.6 3.199-7.4 8.699-13.301 12.898-20.102 3.4-5.6 8.102-11.398 14.2-10.5 6.2.9 7.7 8.4 8.9 14.4 1.8 8.8 4.5 17.3 8.1 25.5 5.2 11.899 16.101 14.5 25.7 5.899 4.5-4 9-8.101 12.6-12.801 7.2-9.8 16.601-17.3 26.4-23.8 15-9.899 22.4-9.7 31.5 7.9 4 7.8 8.699 15.3 14 24.6 2.5-6.79 2-11.492 1.2-16.29zM1196 966.5c-10-8.8-16.9-17.5-26.102-23.698 2.8 15.1 11.8 26.898 18.7 39.6 6.8 12.601 12.8 25.601 19.8 38.101s8.8 27.601 19.4 39.601c9-15.8 5.3-34.2 15.3-50 5.6 16.1 2.6 32.399 8.2 46.899 2.6-.601 2.5-2.101 2.8-3.301 1.4-6.1 2.7-12.3 4.1-18.398.802-3.602 2.7-6.2 6.4-6.9 3.8-.6 5 2.6 6.4 5.2 3.398 6.5 5.398 13.5 7.198 20.6.802 3.2 1 6.9 5 9.2 1.602-5.7 1.602-10.8.7-15.5-3.3-16.6-4-33.5-7.6-50-5.2-23.6-9.9-47.3-20.9-69.2-1.899-3.8-3.8-7.6-8.7-9.6C1245 930.1 1247.1 940 1249 950c2 10.802 1.8 21.7 1.1 32.602-.1 1.7-.7 3.5-2.4 4-1.898.5-2.699-1.4-3.6-2.7-3.2-4.7-6-9.5-8-14.899-3.5-9.301-6.6-18.899-14.1-26.101-1.7-1.6-3.5-3.5-6.102-2.1-2.6 1.398-2 4.1-1.6 6.3 1.6 7.398 3.5 14.8 5.3 22.2.7 3.1.9 6.398-2.5 7.8-3.1 1.2-4.699-1.7-6.3-3.8-7.2-9.602-13.301-19.802-19.301-30.102-5-8.7-9.301-18.2-19.101-23.3 7.504 14.8 17.704 28.3 23.604 46.6zM1336 520c1.6-.5 3.3-.698 4.698-1.398 9.7-5.3 19.9-9.2 30.2-12.9 4.5-1.6 9-3.6 16.399-2.5-15.3 15.7-33.8 25.2-48.5 42.301 7.399-1.601 12.301-3.301 17.101-5.301 13.399-5.8 26.899-11.398 40.3-17.199 17.4-7.5 35.101-14.399 51.101-24.601 7.5-4.8 16.201-8.1 22.201-15 2.398-2.7 9.5-3.3 6.799-7.899-1.899-3.399-8-1.199-12.199-1.101-.301 0-.6.2-.9.3-17.3 5.9-35.399 9-52.1 16.801-1.1.5-2.4.899-3.5-1 9-4.199 18.1-8.301 26.9-12.699 4.1-2.102 8.1-4.602 11.698-7.5 2.601-2.102 1.802-5.602-1.3-5.9-6.101-.6-11.8-2.8-18.601-1.2-6.399 1.602-13.3 4.102-21.699 2.2 9.399-6.3 21.199-5.5 29.5-14.1-4.801-1.602-8.5-1.801-11.9-.801-16.899 5.301-34.8 6.399-51 15.399-16.5 9.2-33.5 17.5-49.1 28.2-4.601 3.1-8.601 7-12.9 10.5.4.6.7 1.1 1.101 1.7 3.701-1.301 7.399-2.5 11-4 11.601-4.9 23.601-9 35.601-12.9 4.2-1.3 8.101-2.2 13 0-4.7 7.3-10.399 12.5-16.899 17.101-5.803 4.299-12.303 7.799-17.001 13.497zm498 102c-3-7.1-9.5-12.1-11.802-19.6-1.198-3.8-6.8-7.9-2.399-11.4 3.5-2.8 7.899 1.9 11.601 3.802 3.7 1.898 6.7 5.3 11.5 5.398-7.8-8.898-17.2-16.1-24.2-25.2-8.699-11.3-19.399-20.1-30-29-6.8-5.698-14.1-11.198-23.1-13.3-3.2-.7-6.301-1.898-9.6 1.7 14.5 15.1 27.698 30.8 40 49.5-11.9-4.7-18.9-15-31.5-15 1.398 8.4 8.8 11.6 12.1 17.7 3.199 5.899 10.5 8.899 12.4 15.7-1.7 1.199-2.5.6-3.4.3-9.7-3.601-18.7-8.601-28.1-12.9-6.4-2.898-13.2-5.898-21.4-2.1 4.5 3.8 8.1 6.899 12.3 9.6 8.601 5.5 18.3 9.602 25.4 17.4 1.6 1.7 5.2 3.399 2.7 6.3-1.9 2.2-4.2-.2-6.102-1.5-4.5-3.2-9.3-4.7-15.7-2.4 14.2 11.9 27.2 24.2 38.7 37.7 11.7 13.8 20.2 30 29.4 45.9-2.602-11-6-21.601-9.5-32.2-3.4-10.3-8.2-20.1-10.2-31 2.6 1.5 4.9 3.1 6.2 5.3 3.898 6.4 9.8 10.8 14.8 16.102 1.3 1.3 2.9 3.5 4.9 1.698 1.8-1.6.5-3.8-.4-5.5-2.9-4.898-5.9-9.6-8.8-14.5-3.801-6.3-7.7-12.6-9.4-19.698-.898-3.802-2.6-9.602 1.7-11.9 4.199-2.2 7.699 2.101 11 4.9C1826.5 616.9 1828.6 621.7 1834 622zm-866 766c.6-.698 1.398-1.198 2-1.898 18.5-14.9 35.698-30.9 50-50-1.602-2.3-3.302-1.5-4.9 0-3.3 3.1-7 5.5-12.4 8.3 5.301-11.399 14.4-18.399 19.2-29.399-7.8 1.899-11.899 8.101-18.6 10.801.398-2.5.6-4.102.8-5.7-1.1.8-2.4 1.3-3.2 2.3-10.1 11.5-20.3 22.801-29.899 34.602-2.2 2.698-5.601 5.3-6.5 10.1 10.199-4 15.601-13.9 26.3-17-.101 3.7-1.699 5.6-3.3 7.7-7.2 9.1-14.301 18.198-21.301 27.398-1.9 2.196-.002 2.598 1.8 2.796zm-52.1-40.9c-2.1 4.3-5.5 8-5.6 14.2 11.5-3 18.398-12.102 29.2-17.4-1.9 5.3-4 8.6-6 12-3.2 5.4-8.2 9.7-9.5 16.2 4.8-1.2 7.698-6.102 14.3-6.9-5.5 12-14.3 20.7-19.4 32.101 2.7.301 3.9-.899 4.9-2.101 7.5-9.7 15.398-19.1 22.1-29.399 9.4-14.399 21.3-26.399 33.602-38 5.5-5.199 11.698-9.899 18.8-12.801 1.7-.699 3.5-2.6 5.5-1.199 2.6 1.899-.5 4.301.1 6.399 7.4-5.5 10.8-14.1 16.4-21 1.199-1.5 2.199-3.7.699-5.5-1.899-2.399-4.199-.6-6.301.101-11 4-21.3 9.699-32.8 15.5 4.9-14 18.9-22.5 17.7-38.301-9.2.602-15.6 5.5-22.4 9.5-10.898 6.4-22.1 12-30.6 21.9-3.4 4-5.3 9.4-10.4 11.9-.398 3.898-3 6.1-6 8-2.8 9.3-10.1 16.2-14.3 24.8z"/><path id="sd1" fill="#313131" d="M1865.698 942.1c.636-3.601 2-11.2 1.5-12.3 1.612-13.967-1.164-25.9 1.636-31.301 10.8-21.2 18.542-23.634 21.442-47.435 2.9-23.8 8.122-45.165 7.224-69.065-.5-12.198-2-26.3-3.302-38.5-1.399-14.198-5.698-27.3-7.198-41.398-1.602-14.5-3.602-28.602-8-42.602-5.2-16.198-7.9-32-14.5-47.8-.7-1.8-7-18.1-4.9-21.5 22.699 10.5 51.3 34.5 70.4 51.7-2 3 .6 4.9 1.898 6.9 14.9 22.698 25.2 47.5 31.4 73.898.199.602.5 1.3.5 1.9-.301 3.398 2.3 8.7-1.602 9.898-4.398 1.4-5-4.398-6.398-7.398-6.5-13.8-14.602-26.102-27.801-34.5-1.699-1.102-3.101-2.602-5.199-2.8-1.2-.102-2.4-1.2-4.301.198 12.101 23.602 17.801 49 17 75.802-9.101-12.302-12.801-27.602-23.5-38.9-2.699 2.3-.301 3.9.399 5.3 5.7 10.5 7.3 22 7.601 33.602.399 16.6-1.5 33-3.199 49.5-2.4 22.6-7.4 44.398-13.2 66.1-3.7 14-9.3 27.8-15.6 40.9-10.2 21.3-17.4 43.898-27.7 65.1-1 2.1-2 4.2-3.3 6.1-1 1.4-3.2 2.102-4.102.7-.398-.6-1.5-2.3-1.2-2.898.002.099 10.638-24.801 14.002-49.201zM1103.5 581.9c-37.102 36.9-57.302 83.8-78.802 130-.899 2-2.3 4.7.302 6.3 2.8 1.8 5.1-.398 7.1-2.1 16.699-14.8 35.1-27.5 51.9-42.3-4.802 5.1-8 11.1-11.2 17.3-9.3 18.1-17.4 36.7-25.7 55.3-6.7 15-11.1 30.7-15.1 46.5-.7 2.9-3 7.4 1.1 8.7 3.7 1.2 5.3-3.2 6.8-6.101 4.8-8.399 10.5-16.101 16.4-23.801 12.3-15.898 28.899-27.699 40.6-44.1.2-.9.5-1.2 1-.9-1.398.301-1.3 1.801-2.1 2.5-16.5 25.5-32.8 51.102-37.4 82-4.5 30.4-4.7 61.102-2.5 91.602 3.4 46.7 13.7 92.6 16.102 139.5 1.6 30.6 1.698 61.1.898 91.6-.5 18-4.2 35.5-12.1 52.1-6.4 13.5-11.2 27.802-15.3 42.2-4.602 16-9.5 32.2-7.4 49 1.3 10.7-.1 20.3-4.2 30.102-3.8 9-8.7 17.198-14 25.3-14.2 19.7-32.2 35.7-50.3 51.5l-2.1 1.8c-.7.601-1.5 1.101-2.2 1.601-15.7 9.601-29.2 21.801-41.8 35-12.7 13.5-23.102 28.601-23.5 48-.2 8.601-2.7 13.399-11.802 13.399 6.102 7.8 13.2 14.5 21.302 21.2.398-1.9.8-2.8.8-3.7-1-10.5 3.7-18.3 10.8-25.6 9.7-9.9 22.3-14.302 34.3-19.802 28.102-12.898 56.102-25.8 81.9-43.198 17.3-11.802 29.3-26.9 34.1-47.302 3.102-12.898 4.3-26.198 4.8-39.398 1-25.602-1.198-51.2 1.802-76.8 1.6-14 3.6-27.9 9.3-40.5 7.899-17.5 9.5-36 10.601-54.4 1.601-26.5-1.101-53.2 2.5-79.7 2.5-18.6 1.699-37.199 1.899-55.8 0-2.7.601-5.2 1.2-7.8 6-23.5 10.5-47.5 12-71.5 1.3-22.2 8-44.5 2.8-66.9-2.2-9.7-3.2-22-3.2-32 0-21.898.7-37.398 3.601-59.3 2.5-19 3.701-35.3 6.301-54.4 1.9-13.8 7.9-33.8 9.8-47.6 3.101-22.7 7.601-45.4 18.2-66.1 11.1-21.5 25.4-37.802 41.199-55.7 3.399-3.9 14.101-13.8 15.399-19.602-8.399-.5-24.899 6.4-32.6 8-14.5 3.102-29.101 6-42.9 11.9-10.904 7.2-21.302 14.8-30.602 24zm349.9 95.8c4.5-1.7 2 1.602 3.3 6 5.4 18.102 10.2 36.5 13 55.2 4 26.9 5.4 53.2 10.602 79.9 2.3 12 5.898 25.6 10.3 37.199 2.3 5.899 8.3 5.301 14.1 6 9.5 1.199 19 3.301 28.602 3.699 18.6.9 36.898 3.801 55.5 5.2 18.2 1.3 39.1.4 57.5.7 31 .5 58.7-2.5 89.2-7.6 10.3-1.7 16.698-10.4 18.898-20.2.4-1.9 1.2-3.8 1.7-5.7 6.5-25.6 7.5-51.6 6.1-77.8-1-19-3.3-40.2-8.698-58.3-6.602-22-13.602-43.801-21.602-65.301-3.6 4.199-7.1 8.399-4.8 12.699 1.899 3.5 5.1 10.4 6.5 14.102 10.8 29.1 17.8 58.8 16.8 90.3-.5 15-3.8 28.8-10.2 42.1-9.5 19.5-22.8 36.5-35.698 53.8-3.4 4.602-6.802 6.5-12.4 6.5-19.9-.199-39.7.4-59.6-.3-9.9-.3-19.802-1.399-29.7-2.2-14.8-1.3-29.601-3.398-44.5-3.5-6 0-12-.398-18 .102-6.5.5-10.8-2.4-14-7.5-6.5-10.4-13.9-20.102-18.3-31.9-2.7-7.1-5.302-14.3-8.302-21.3-8.1-18.9-15.3-38.2-19.6-58.4-3.6-17.2-8.2-34.1-15-50.398-4.3-10.4-6.7-10.602-13.8-2 1.598-.702.498-.5 2.098-1.102zm-224.1 445c-.102-8.398-2.5-22.8-6.2-33.8-5.4-16.1-12.1-31-17.8-46.9-3.2-9.1-7.8-20.3-11.8-29-13.802-29.898-26.4-59-45.802-85.698-4.399-6.102-20.8-27.5-25.399-34.102-3 9-3.299 30-4.5 38.5-1.799 12.102-4 29.102-5.5 41.3-.699 5.602 6.201 11.802 8.5 17.302 8.399 20.3 16.701 40.5 28.701 59 10.898 16.698 20 34.6 35.898 47.398 7.5 6.102 14.602 12.602 21.602 19.2 6.698 6.3 15.5 9.5 23.398 14.1 1.902-3.5-.2-5.4-1.098-7.3zm91.8 160.4c4.5-19.2 6-38.601 6.699-58.101.201-4.899-1.601-9.899-1.601-14.801.2-15.1-3.399-29.6-4.899-44.5-1.799-18.1-5-36.1-5.399-54.398-.101-4.302-.8-8.602-1.2-12.9-1.199-11.9-1.1-23.9 0-35.9 1.601-16.6 3.4-32.398 1.601-49 1.399-9.6-3.3-24.3-3.601-35.5-.399-12.398-5.5-23-8.1-35-7.5-34.8-20-68.198-28.801-102.6-1.601-6.1-3.699-12.1-1.601-18.5-3.399 1.2-4.399 3.5-3.698 7.1 5.6 27.2 10.8 54.4 16.8 81.5 5.398 24.602 10.7 49.2 10.7 74.5 0 2.302.5 4.602 1 6.9 1.5 7.6 1.3 15.2.3 22.8-1.3 8.8-2.102 17.8-3.7 26.5-1.8 10.2-1.7 20.4-2.9 30.602-1.198 10.5-4.398 21.3-2.398 31.6 3 15.5 1.199 31.1 3.1 46.6 2 17.4 4.5 34.802 7.3 52 2.4 15.2 3.5 30.302 3.302 45.5 0 2.302.1 4.7-2.102 6.302 4.998 14.596 12.398 25.896 19.198 29.296zm-37.902-425.2c7.4 28.9 16.302 57.4 22.302 86.6 1.1 5.2 12.1 12.9 16.6 17.102 5.4-2.9 9.8-6.4 13.699-10.5 15.101-15.5 28.301-32.5 40-50.7 16.201-25.1 32.899-49.8 53.899-71.399 11.601-11.899 22.5-24.399 32.302-37.801 3-4.1 7-12 7.198-16.8.4-11.3-.198-20.1-2.198-31.2-1.5-8.3-1.802-19.699-5.9-27.5-2.5 12-5.801 28.301-9.9 40-6.399 18.2-14.3 35.7-24.1 52.301-10.1 17.199-21.1 33.801-33.6 49.199-6.302 7.801-14 14.2-23.7 17.7-5.9 2.101-11.8 4.601-18 5.9-17 3.5-32.9.6-43.9-15.4-5.1-7.3-22.2-16.1-27.5-23.3-.5 5.7 1.5 10.7 2.798 15.798zm696.402 610.902c8.1 13 13.699 27 12.6 43-1 14.198-4.6 28-5.3 42.198-.601 11.4-2.7 22.9.899 34.2 2.701-2.1 2.5-5.2 2.899-8.2.5-4.198 2.601-6.8 6.9-7.1 18-1.4 35-7 51.8-13.2 4.398-1.6 7.602-.8 10.7 2.4 3.3-4.5 1.8-9.6 1.398-14.4-1.5-17.3-7.3-33.5-13.8-49.398-5.2-12.602-12.8-23.802-23.8-32.302-1.602 2.2-3.3 1.102-5.2.302-17-7.2-33.3-15.7-49.8-23.9-3.5-1.7-6.8-4.2-10.9-4.5 7.304 10.298 15.004 20.298 21.604 30.9zM1633 445.5c-28.602-6.6-55.802-5.6-85-1.8-21.302-1.898-21 3.602-28.302 12.3-13.8 16.5-30.198 32.9-45.6 48-11.101 10.9-42.101 33-52.2 45 23.3-6.898 67.102-26.8 89.9-34.698 10.8-3.7 19.398-11.5 30.398-14.602 7.4-2 14.4-5.398 20.9-9.398 8.8-5.4 18.1-9.7 27.3-14.5 7.4-3.801 14.7-7.7 22-11.7 8.102-4.5 14.7-11.4 23.8-14.2-.596-.402-1.796-7.702-3.196-4.402zm181.1 726.9c2.1 11.4 3.9 23 7.199 34 10.301 34.3 18.899 69.3 34 102.1 6.601 14.4 15.601 27.102 25.5 39.2 9.899 12.102 20.5 23.5 30.399 35.602 6.5 7.898 12.5 16.398 20.802 22.698-5.102-13-13.102-24.398-20.9-35.8-10.9-16.1-23.5-31.1-33.2-48.2-3.7-12.3-9.7-23.698-13.7-35.898-1.398-4.301-2-9.2-6.3-12.102-.6-.8-1.5-1.398-1.8-2.3-8.1-24.6-15.9-49.3-19.7-74.899-1.6-10.5-3.3-21.199-1.2-32.5 1.9-10.399 2.802-21.801-1.398-32.5-1.301.101-2.5.301-3.801.399-.801 1.4-2 2.2-3.601 2.4-2.1 1.2-4.1 2.5-6.2 3.7-.3 1.5-.6 3-1.898 4 0 2.198-.2 4.398-2 6-.102 2.198-.301 4.3-2.102 5.898 0 2.2-.198 4.4-2.1 5.9.2 2.898-1.3 4.1-4 4-.2.6-.3 1.199-.3 1.8 4.2.404 5.6 2.702 6.3 6.502zm187.098 461.902c4.5 7.698 9.101 15.398 15.7 21.6 12.3 11.601 24.8 23 36.7 34.9 8 7.898 13.5 17.198 10.6 29.198 6.4-2.5 12.102 2 18.302 2.102 7.1.1 7.1.5 7.5 8.1.1 1.301.1 2.602.198 4 2.2-2.1 2-4.898 1.802-7.5-.7-7.898-1.7-15.699-2.602-23.6-.898-7.8-5-13.102-11.602-17.5-6.5-4.3-13.5-7-20.698-9.5-21.2-7.602-32.9-23.3-39.2-44.2-2.399-7.8-.2-14.2 3.899-20.5 1.301-1.899 2.801-3.7 4.101-5.5-5.101 1.5-9.2 4.4-12.399 8.8-2.7 3.7-6.399 6.602-9.301 10.2s-4.3.3-6.199-.899c-.399 3.897 1.401 7.097 3.199 10.299zM924 1784c10-5.1 14.8-13.898 17.5-24.198 1.1-4.2-.102-7.802-3.302-10.802-5.198-4.8-11-8.5-17.5-11.198-10.1-4.2-20.198-8.602-28.698-15.9-10-.399-20.2-3.3-29.802 1.9.9 1.6 2.5 1.8 4.2 2.198 9.7 1.802 19.602 2.602 28.9 6.102 5.199 2 10.5 3.7 13.5 9.2 5.199 9.6 4.199 19.198-3.602 28.3-3 3.5-7 6.1-9.199 10.3C904.9 1784.7 914.4 1784.7 924 1784zm66.9-216.1c-15.2-15-34.1-23.1-53.5-30.8-1.6 2.8.5 4.3 1.102 6 2.898 8.5 1.5 12.1-6.5 15.899-2 1-4.7.699-6.2 2.899 2 .101 4.1-.1 5.898.4 11 3.398 22.4 5.198 33.302 8.6 11.8 3.7 24.3 6.2 34.898 13.101-1.1-6.399-4.4-11.599-9-16.099zM881 1649.5c11.398 6.802 15.3 17.302 10.5 29.4-1 2.4-2.302 4.7-3.5 7.1 3.898 4.5 9.398 6.602 14 10 8.5-1.8 17.5-1.898 25-7.198-.602-1.602-.7-2.7-1.302-3.4-12.898-15.1-25-30.899-42-41.7-4.198-2.698-8.3-5.698-7.6-11.698-2 5.398-6.2 6.6-11.4 6.1-2.898-.3-5.8 0-8.698 0 8 4.396 17 6.698 25 11.396zm1134.198 164.6c8.302 6 28.2 9.5 36.302 7-9-5.8-24.4-11.601-33.5-16.2-7.5-3.8-7.802-11.5-.802-16.3 3.101-2.101 6.7-2.5 10.4-2.7 3.5-.1 7.399 1.2 10.399-1.8-1.101-1.4-2.5-2-4.199-2-16.602-.3-33.301.7-49.9-2 7.402 14.1 18.702 24.8 31.3 34z"/><path fill="none" stroke="#000" stroke-miterlimit="10" stroke-width="6" d="M1854.1 585.802s84.6 217.5 15.9 309.5c-20.24-59.832-69.5-110-72.5-131s-37.5-88.5-48-103-9-1-9-1 18.5 30 23 108-17 90-17 90c-33 21.5-243 14-255-1s-20.5-85.5-20.5-85.5-13.7 34.198-24 40c-24 14.698-73 94.5-73 94.5s-45.9 72.1-56 53c-10.102-19.102-9.302-3.302-9.302-3.302s14 67.5 7.5 95.802c-6.5 28.3 3.5 94.3 3.5 94.3s18.802 110 0 137.5c-29.5-56.4-93.5-180.8-93.5-180.8s8.302 20.698 4.5 28.398c-56-30.398-76.3-73.5-87-88.698-10.698-15.2-23.698-57.5-32.5-64-8.5 33-7.5 60.3-7.5 60.3s-7.198 73.5-5 95c2.2 21.5-4.8 62.8-13.8 83.8s-6.8 82.8-10.5 133.3-62 79-62 79-84.601 33-97.8 54c-13.2 21 12.1 47 18.8 53.5s12.2 21.5-9.3 23.5-62.5 20.5-82.5 37.302c-20 16.8-17.2 23.3-14.601 28.3 2.601 5 10.899 5.1 41.601 17.5 23.3 9.5 25.3 26.5 19.3 42-2.601 5.2-26.7 31.7-26.7 39s1-1.101 24.801 5c42.601 16 21.3 34.7 21.3 34.7s-23.601 21.6-36.399 42c6.899 7.398 36.2 1.1 36.2 1.1s-8.301-8.6-1.801-11.8c29.399-13.3 26.7-16 36.7-33.3 10-17.302-15.301-22.7-40-36-24.7-13.302-12.7-26-12.7-26s38-4.7 36.301-15.2c-1.7-10.5-27.7-34.8-27.7-34.8s-36-18-13.2-22.9c16.2-1.6 111.9-17.8 111.9-17.8s17.4-37.4-27.301-58.7C916 1532.7 906 1504 906 1504s-28-32-43.302-42C847.4 1452 848 1432.6 857 1412.7c9-19.898 96.3-109.398 135-193.398 34-66.7 26.698-138.7 26.698-146.7s8-23.3-16.698-174c-16.7-162 8-191.3 22-242s50.698-80.7 104.698-100 78.802-12.3 112.7-37.3c39.3-44.7 188-77.5 188-77.5 30.601-6.9 105.3-59.2 105.3-59.2 10.601 29.3-8.698 62-8.698 62s83.3-21.4 168 21.3c117.398 58.7 160.698 120.7 160.698 120.7l13.302 10C1986.198 669 1978.8 721.302 1981.5 762c2.698 40.7-5.5 140-20.7 185.2s-40.4 128.3-52.4 183.7c-27 193.6-2.2 184.2 18.601 222.1 18 58 96.301 99.4 117.801 138.9s15.398 67.7 13.398 80.2-28.7 27.9-39.2 47.4c1.698 44.5 30.198 52.2 52 61.2 28 19.5 22.6 30.3 19.198 53.5S2065 1786.5 2041 1786.5s-28.5 8-27 13.5 38.5 18.5 38.5 18.5 10.5 9.602-22 2.602-53.7-44.9-49.2-51.4 9.2-6.699 55.2-29.699 19.698-46.5 19.698-46.5-78.198-62.199-70.698-130c15.198-71.5.698-82.5-11.5-99.5-7-19.5-65-83.699-95.5-119.199S1815 1187 1815 1187s-8.5-45 11.5-55.6m-606.4-599.7s-58.5 49.4-78 112.4c0 0-32.801 143.899-26.1 214.5 0 0 9 53.2-4.802 119.8m115.402 125.3s-13.801-88.2-107.9-214.1m155.498-67.7c-1.1 14.4 34.7 130.8 34.7 130.8M1471 771.802s-6.102-73.302-18.2-95.2m287.7-16.3s-6.302-19.7-10.5-22.4M1419 548.9s69.698-53.7 107-104.3"/></svg>