<svg xmlns="http://www.w3.org/2000/svg" id="hair" viewBox="0 0 3000 3000"><path id="cl1" fill="#302136" d="M1380.1 631.2c-6.199.5-9.6 5.602-12.5 9.5-18.899 24.7-41.6 45.7-64.801 66.102-1 .898.301-.2-.799.698-3.701 3-8.101 6.7-12.301 2.7-4.601-4.398-.8-9 2-13.3 4.1-6.5 9.5-12 14.399-17.8 9.601-11.4 18.601-23.4 28.601-34.5-14 9.5-28 19.2-42.699 27.7-3.201 1.8-6.5 3.5-9.9 4.8-4.5 1.8-9.199 2.7-13-1.2-4.1-4.2-3.301-9.2-1-13.9 4.4-9.198 11.699-16 18.801-22.698-.2.198-.399.398-.5.5-11.602 13.1-26.602 21-41.399 29.1-5.101 2.8-10.701 5.2-15.601.3-5-5-2.2-10.699.8-15.5 11-17 22.7-33.398 38.6-46.3.4-.3.602-.5.602-.5l-.602.601c-13.199 12.699-28.1 23.199-42.699 34.199-2.899 2.2-5.899 4.301-9 6.2-4.699 2.8-10 7.5-15.1 1.9-4.7-5.302-.7-10.5 2.6-15.2 11.4-16.4 24.5-31.3 39.601-44.4 2.2-2.199 4.5-4.398 6.7-6.699.398-.399.8-.801 1.199-1.301-.399.4-.801.801-1.199 1.301l-6.602 6.601c-7.398 5.8-13.299 13-20.199 19.2a46.128 46.128 0 0 1-7.301 5.199c-3.6 2.199-7.6 3.399-11.1.399-3.6-3.1-2.5-7.399-1.199-11.2 1.899-5.398 5.3-10 8.199-14.8 3.301-5.399 6.2-11 10.1-18.5-7.6 3.3-12.199 7.8-17.1 11.7C1199 587.5 1192 592.7 1185 597.7c-3.2 2.3-7.5 4.7-10.9 1-3.801-4.1.4-7.3 2.801-10.2 1.699-2.1 3.101-4.3 5.101-6.198.6-.602 1.199-1.2 1.8-1.9-.601.601-1.2 1.3-1.899 1.9-19.301 23.698-40.601 45.8-57 71.8-11 17.5-21 35.5-29.5 54.3-2.601 5.8-7.101 10.5-8.899 16.4l.1-.2c4-7.9 8.601-15.102 14.801-21.3 13-12.9 25.899-25.9 38.899-38.9 4-4 8.7-7.3 13.399-10.399 2.601-1.801 5.899-2.399 8.2.399 1.899 2.3.899 5-.601 7.4-4.101 7-10 12.398-15.2 18.5-16.899 19.8-29.1 43-45.3 63 .2-.2.101-.102.2-.302 9.399-14.3 21.899-25 36.199-33.898 5-3.102 10.199-6 15.5-1.5 5 4.3 4 10.398 2.399 15.8-4.301 14.601-13.301 26.601-22 38.7-1.699 2.398-3.899 4.5-5.5 6.8l.101-.2c14.199-21.5 31.899-39.398 52.699-54.199 4.5-3.199 10.602-9.5 15.102.699-1.201 8.4-7.5 13.9-12 20.4a777.35 777.35 0 0 1-24.301 33c-6.199 8-8.9 16.6-8.9 26.8.2 62 .101 124 .101 186v252.9c0 5.3.2 10.698-.399 16-.399 4-.801 8.198-6.399 8.3-17.7-11.3-33.801-24.8-50.7-37.2-3.899-2.8-4.399-7.399-4.699-11.7-3-34.1-7.601-68.1-10.699-102.3-3.301-36.1-6.801-72.2-10-108.3-2.4-27.5-3.801-55.1-6.102-82.6-3.398-41.9-3.5-83.802-3.898-125.802-.201-28 7-54 18.6-79.1 16-34.7 37.699-65.8 61.4-95.7 21.699-27.5 45.299-53.3 70.199-77.899 30.801-30.399 62.1-60.399 99.301-83.301 40.898-25.3 84-45.1 132.1-51.6 16.101-2.2 32.199-3.4 48.801-1.7 17.5 1.7 35.101 2.7 52.699 4.6 35.199 3.7 69.801 10.7 103.699 20.7 62.101 18.2 118.4 48 170.4 86.102 24.801 18.199 47.5 38.6 66.5 63 6.5 8.398 14 16.1 20.6 24.398 24.7 31.4 37.2 68.2 46 106.5 1.801 7.7 4.101 15.5 4 23.602-2.1.5-2.899-.801-3.699-2.4-14-28.6-28.899-56.8-39.301-87-.899-2.5-2.8-4.5-3.1-7.1.1.199.199.5.199.699 4.601 9.199 7.101 18.699 7.101 28.899 0 3.8.601 7.9-3.7 9.3-4.5 1.5-7.6-1.5-9.699-5.199-5.1-9-10.1-18-11.399-23.899 2.301 9.1 5 22.399 4.199 36.2-.3 4.6.2 10.199-5.8 11.3-5.301.899-8.5-3-11-7.2-8.4-14.399-14.101-30.1-21.101-45.2 4 8.9 7.899 17.7 11.5 26.801 1.601 4.101 2.3 8.301-1.7 10.699-4.699 2.9-8-.5-10.899-4.1-4.899-6.3-9-13.2-12.899-20.2-.301-.6-.601-1.1-.899-1.7.101.301.199.5.399.801.8 1.399 1.699 2.699 2.399 4.199 7 10.602 12.5 22 17.101 33.801 1.699 4.301 4.899 8.801.899 13s-7.899-.699-12.899-1.801c8.601 39.102 22 76.801 22.5 116.9-.2-11.3-1.899-22.4-2.601-33.601-.5-7.399.399-14.601 2.899-21.601 1.4-3.899 3.601-7.3 8.301-7.7 5-.398 7.9 2.5 9.9 6.801 4.6 9.801 5.6 20.301 5.699 28.899-1.5-11.3-.199-24.5 2.899-37.5 1.3-5.2 3.4-9.7 9.4-10 5.799-.3 7.799 4.3 9.5 8.8 2.299 5.9 4 12 5.299 17.5.4-14-1.799-28.699 2.301-43.1.9-3.2 1.8-6.4 3.4-9.3 1.899-3.4 4.699-5.7 8.8-5.7 4.399 0 6.399 3.3 7.7 6.8 3.399 9 7.699 17.601 10 27 .6 2.8.199 5.8 2.399 8.101 2.8 20.399 4.699 41 6.199 61.5 3.5 48.301 2.199 96.601 1.301 144.801-.5 25.5-2.399 51.1-4.801 76.699-1.6 16.899-2.801 33.801-4.6 50.699-2.301 21.5-4.5 43-6.801 64.5-1.801 16.9-3.601 33.7-5.301 50.602-1.5 14.6-2.898 29.1-4.398 43.698-.801 7.2-4.701 13.2-8.201 19.102-29.299 49.3-58.699 98.398-88 147.6-5.299 8.9-10.399 17.9-15.699 26.7-1.6 2.7-3 5.8-6.7 8.6 1.7-17 5.301-32.5 7.9-48.198 7.2-43.7 9.8-83.802 14.899-127.802 3.101-26.8 2.699-37.698 5.301-64.5-15.7-26.1-64.5-10.8-63-27.5.6-7.8 25 6.802 27.8-22 3.3-33.5 28.2-26.1 35.3-47.5 5.9-17.898-16.8-52.198-17-70.5-.3-26.398 20-35.898 19.5-51.5-1.698-53.6 4.302-114.5-8.698-166.8-5.5-22.1-52-204.5-51.9-210.1 0-1.3-14.301-32.5-23.801-48.5-1.699-2.9-.601-5.9-2.3-8.8-1.899-3.2-.301-9.602-3.899-7.9-3.9 1.9 2.6 7.1 4.199 10.4 4.899 10.6 5.199 16.198 10.101 26.8 1.6 3.5 2.3 10 2.399 14.7-4.301.3-12.199-2.4-15.699-3.302-31.801-8.8-392.301 78.302-396.5 81.2m.596-29.2c-10.801 18.4-18.6 38.2-25 58.602-1.801 5.5-4.1 9.5-10.801 9.7-5.899.198-10.399 4.1-15 7.398-23.399 16.7-39.1 40.2-54 59.2 4.4-8.5 11.5-20.2 15.301-33.4 1.199-4.3 1.699-8.5 1-12.8-.5-3.1-2.301-5.7-5.699-6.1-4.2-.5-6 2-6 6-1.7 6.1-5.5 11.3-7.2 17.399-5.3 18-15.699 34.199-15.8 54.199-.7 124.602 2.101 249.2-1.5 373.801-1.601 55.301-.2 110.601-.301 166 0 9.801 1.101 19.199 4.699 28.301.601 3 2.601 5.398 4.201 7.898 24.5 37.7 51.799 63.7 84.1 92.4 4 8.2 20.101 24 22.9 22.6 0-3 1.6-26.898 1.5-30.198-.4-18.602 2.899-32.9 1.699-51.5-1.5-23.2 2-18.102.801-41.4-1.801-36.2 1.699-70.8-.301-107.1-1.199-22.302-2.101-44.102-2.5-66.5-.9-51.602-6.699-107.5-1.699-158.9 2.5-25.8 4-64.7 5.6-90.6 1.101-19.302 2.4-34.7 4-53.9 1.101-14 1-28 2.199-41.9 2.7-29.8 3.5-59.8 5.4-89.6.801-12.9 1.399-25.9 2.2-38.9.199-2.6.699-5.3 1.699-7.8 6.301-17.2 18-36 24.301-53.2-5.9 1.2-5.4 1.602-9.102 2.4-5.3 1.2-21.398 5.5-27.199 7.1 2.301-5.8 9.4-25.1 11.9-31.699 5-13 4.6-11.601 4.799-12.301-7.797.5-13.397 10.2-16.197 14.8zm436 85.9c-51.899-8.5-103.801-16.4-155.801-24.6-24.1-3.801-48.299-5.7-72.6-2.602-45 5.801-57 8.7-100.4 21.5-11.199 3.301-19.399 9.602-26.699 18-12.801 14.801-26.1 29.4-38.6 44.4-8.101 9.7-27.101 19.1-33.4 31.6-1.801 3.602-.699 7.7-.801 11.9-.399 15.6-4.199 33.8-5.5 49.4-1.199 14.898-1.199 48 1.801 50.8 1.5-2 39.9-70.5 58.4-112 2.3-3.3 4.399-6.7 7.5-9.3 4.199-3.4 7.399-2.801 9.3 2.1 1.101 2.8 2.101 5.5 3.801 8 16.199 23.6 34.3 48.9 50.5 72.5 3.8 5.6 8 11 13.399 18.3 1.101-8.398.3-14.2-.399-20.1-3-26.101-5.801-52.2-8.601-78.4-.2-1.899 0-4.1.601-5.899 1.8-5.199 6.399-6 9.699-1.601 1.801 2.4 3 5.2 4.301 7.9 11.5 22.899 22.3 46.2 35.1 68.5 2 3.6 3.4 7.7 8 10 1-2.101 1.7-3.601 2.4-5 14.699-29.601 29.3-59.101 44-88.601 1.5-2.899 2.899-6.5 7-6 4.399.5 5.699 4.101 6.3 7.899.601 3.3 1.3 6.5 1.8 9.8 3.4 21.7 6.801 43.4 10.301 65.102.301 1.8-.301 4.3 3.199 4.398 2.301-2.6 3.601-6 5.2-9.3 9.2-19.2 18.399-38.5 27.601-57.7 1.6-3.398 3.3-7 7.899-6.3 4 .601 4.8 4.2 5.601 7.5.3 1 .3 2 .399 3 2.101 15.5 4 31 6.5 46.5 1.3 8 1.601 16.3 4.7 24.101 3.6-1.399 4.6-4.5 6.199-6.801 15.801-23.5 31.5-47.1 47.2-70.699l4.5-6.601c1.6-2.3 3.6-4.1 6.699-3.3 3.5.899 4.801 3.5 4.899 6.7.101 3.3-.199 6.699-.301 10-.699 20.6.602 41.3-1.799 61.898-.601 4.7-.9 9.7.5 14.801 4.1-1.801 5.199-5.199 7-7.801 13-19.398 25.699-39 39-58.1 8.199-11.9 16-23.7 16.799-38.8.102-1.602.701-3.301 1.301-4.801 1.301-3.601 1.301-7.199.699-10.899-1.799-9.8-3.799-19.601-5.699-29.4C1817 734 1808.199 733.302 1800.1 731.9z"/><path id="hl1" fill="#73508E" d="M1223.5 767.5c6-12.198 13.699-23.398 19-36 1.3-3.198 5-7.198 1.899-9.898-3.301-2.9-6.5 1.6-9.2 3.6C1213.6 740.7 1194 758.4 1176 778c-1.9.5-2.801 0-2.2-2.1 7.601-13.9 15.301-27.8 22.7-41.8 2.8-5.2 5.3-10.601 7.6-16.101 1.4-3.301 3.4-7.301 0-10.101-3.399-2.7-6.8.4-10 2-.899.4-1.6 1.2-2.3 1.8-15 7.2-26.2 19.102-38.101 30.102-10.8 9.898-20.101 21.199-29.899 32.1-1.8.6-2.7.3-1.9-1.8 7.4-12.2 15-24.2 21.301-37 2.801-5.601 5.699-11.3 6.601-17.601.399-2.801 1.399-6.301-1.7-8.199-2.6-1.602-5.1.398-7.3 1.699-9.7 5.801-18.5 12.801-26.7 20.5-6.3 5.899-12 12.301-18 18.5-1.8.5-2.8.101-2-2 17.4-33.399 39.301-63.699 65.5-92.199-13.1 4.199-47.5 38.5-77.399 76.3-1.899.5-2.8-.101-2.399-2.2 21.899-57.7 54.1-108.6 100.2-150.1 2-.301 2.899.5 2.6 2.5-2.899 4.398-5.7 8.898-9.399 14.6 4.899-.7 7.301-3.2 9.899-5.1 10.3-7.801 20.5-15.7 30.9-23.4 2.899-2.2 6.199-3.9 9.399-5.6 1.399-.801 3.3-1.102 4.699.199 1.601 1.399.699 3.199-.1 4.601-3.9 7.3-8 14.5-12.102 21.7-3.398 6.1-7.699 11.699-9.898 18.3-.5 1.5-1.2 3.1.5 5.6 13.699-5.7 23.5-17.2 35.398-25.5 2-.3 2.7.5 2.301 2.4-15.199 18.3-31.699 35.6-43.601 56.5 4 3.2 6.101.8 8.101-.5 12.699-8 24.5-17.3 36.5-26.3 7.5-5.602 14.699-11.5 22.801-16.102 2-.3 2.8.602 2.399 2.5-11.801 14.801-24.2 29.102-35 44.7-2.7 3.8-5.2 7.7-6.301 12.3-.899 3.5.9 5.5 4.2 4.5 3.8-1.1 7.399-2.898 10.899-4.8C1258.8 655 1272.5 645.6 1286 636c2-.398 2.8.4 2.5 2.4-3.4 4.5-7 8.9-10.301 13.5-2.699 3.8-5.3 7.7-7.601 11.7-1.699 3.1-4.199 6.899-.899 10 2.801 2.7 6.301.2 9.301-1.101 10-4.601 19.199-10.601 28.399-16.699 9.199-6.102 18.199-12.4 27.399-18.4 2.899-1.9 5.7-4.5 11.601-4.4-18.301 26.7-40.5 48.7-59.101 75.4 5.7-.1 7.899-2.8 10.3-4.8 21.7-17.8 40.7-38.4 59.802-58.8 4.799-5.102 9.5-10.301 14.299-15.4 1.601-1.6 3.301-2.7 4.201.6-.602 1.302-1.302 2.7-1.9 4-8.301 11.7-13.801 24.9-19.5 38-5.7 13.102-10.6 26.5-14.899 40.2-.801 2.5-1.801 4.9-3.101 8.4-6.6-5.2-12-2.101-17.399 1.399-12.699 8.199-23.4 18.601-33 30.199-10.4 12.602-20.4 25.4-30.601 38.102-2 2.5-3.7 5.5-7.399 6.3-1.9-2.601.1-4.5 1-6.4 5.1-11.2 10.5-22.3 15.399-33.5 2.9-6.7 6.101-13.398 5.699-21-.199-4.1-1.699-6.7-6.199-3.6-11.6 6.2-19.399 16.5-27.801 26-3.5 3.899-6.699 8.1-10 12.1-2.099.3-3-.6-2.699-2.7zm614.4-113.4c6.3 15.1 12.601 30.3 19.3 46.398-8.199-3.398-12.399-10.5-21.1-14.198 13.3 46.6 24.199 92.198 33 138.398.899-13.1.899-26 .899-39 0-6.3 0-12.7 1.699-18.8 1-3.7.801-9.5 5.2-9.9 5.3-.5 5.601 5.7 7 9.5 3.699 9.7 4 20.2 6 30.302.699 3.398.699 7.198 4.3 9.3 2.7-2.5 1.899-5.3 1.899-7.8.2-6.302-.1-12.7.101-19 .399-10.302 1.399-20.602 4.601-30.5.601-1.9 1.399-4.102 3.7-4.2 2.399-.2 3.199 2.1 3.899 3.898 3.3 8 4.899 16.602 7.399 24.9 1.2 4 1.5 8.4 5.7 11.2 3-3.102 2-6.602 2-9.7.1-10.3.1-20.6 0-31-.101-8.8 2.1-17.1 5.399-25.2 1-2.398 1.699-5.6 4.8-5.8 3.7-.2 4.7 3.2 5.9 5.9 4.199 8.698 7.6 17.698 10.399 27 3.899.3 2.699-2 2.101-4-.801-3.9-1.601-7.7-2.4-11.602-2.699-3.5-3.6-7.8-5.199-11.7-12.4-30-24.5-60.1-40.7-88.3-1.899-.5-2.8.102-2.399 2.2 2.899 12.3 5.8 24.7 4.899 39.1-5.101-5.5-6.899-10.898-9.5-15.898-2.699-5.3-4.8-11-7.699-16.2-2.5-4.6-3.101-10.6-9.199-14-.9 6 0 10.8 1 15.7 2.899 13.7 5.799 27.398 5.1 41.5-.1 2.1.9 4.8-3 6.2-14.899-19.302-22.1-43.4-36.899-63 4.1 16.3 12.699 31.198 14.6 48.198-8.6-6.898-14.6-15.6-20.899-24-3.102-.096-3.301 1.604-1.901 4.104z"/><path fill="#D4A879" d="M1407 655.1c38.199-30.5 75.5-52.102 121.199-63.602 63-15.8 126.301-21 189.301-7.3 2 .4 8.5 2.9 10.5 3.5 17.8 14 21.1 41.2 13.6 63.7-2.6 7.6-6.699 11.6-14.699 11.3-44.7-1.8-89.101 2.2-133.601 6.5-47.101 4.602-89 17.9-134.199 32.9-15.801 5.2-34.7.7-48.7-8.3-16.702-10.698-14.901-21.996-3.401-38.698z"/><path fill="#927454" d="M1430.1 642c-2.199 1.7-2.801 4.802-2.5 20.7.199 13.2 5.199 22.5 15.101 28.2 11.5 6.5 23.301 7.4 35.6 3.5 28.801-9.1 57.801-17.2 87.201-22.5 25.6-4.6 51.199-8.5 77.1-11 25.801-2.4 51.699-4.5 77.601-4.1 3.801.1 7.6.199 11.6.5 7.601.6 8 .3 10.301-7.9 3.801-13.8 3-27.1-2.6-40-3.4-7.8-6.801-15.5-10.201-23.3 17.4 3 34.301 9.1 51 15.1 3 1.102 5.101 2.9 6.201 6.4 8 24.5 15.199 49.3 21.1 74.399-2.801 3.601-5.801 1.899-8.399 1.5-27.301-4.301-54.4-9.5-81.9-11.699-102.5.6-189.8 18.6-287.898 55-14.602 7.699-28.7 16.8-43 25.199-2.5 1.5-8.2 2.801-11.602 2.5-.398-10.801-2.8-22.399.801-32.601 4.199-11.899 11.199-26.5 14.9-38.6 1.699-5.5 5-11.4 8.799-15.4C1408.4 658.1 1419.4 650 1430.1 642z"/><path id="sd1" fill="#25192A" d="M1264.199 724.802c4.801 2.5 1.7 5.898.6 8.6-5.299 14.2-10.699 28.3-16.5 42.3-3 7.301-4.299 14.602-4.199 22.602.101 112.8 1.601 225.699-.399 338.5-1.4 79.1-.5 158.199-1.601 237.3-9-10.2-13.1-21.9-14.399-35.601-2.4-25.101-6.4-50-9.699-75-.2-1.301-.4-2.699-.801-3.899-1-3.101-2.9-5.5-6.301-5.8-3.101-.301-4.8 2-6.199 4.3-4.4 7.5-8.601 15.2-13.101 22.7-6.1 10.3-6.199 10.3-15.801 2.8-11.299-8.9-23.399-16.7-34-26.601 3.101-4.199 2.201-9 2.201-13.699v-224.2c0-78.1.1-156.2-.101-234.3 0-8.801 2.101-16.102 7.601-23.2 12.699-16.4 24.6-33.5 36.699-50.4 1.5-2.199 2.6-4.699 3.801-7.1.1-6.8 4.6-8.601 10-7.9 5.899.7 8.1 5.4 7.799 11-.299 4.7-2 9.102-4.299 13.2-8 14.5-15 29.8-25.5 42.5.199-.2 0 0 .1-.2 14.4-21 34.699-35.1 54.301-49.8 3.699-2.8 7.898-4.3 11.898-1.1 4.102 3.3 2.802 7.699 1.4 12-4.699 13.8-14.5 24.6-21.9 36.898-.799 1.4-2 2.602-3 3.9.701-1 1.5-1.9 2.302-2.9 7.698-12.3 15.6-24.5 26.8-34.1 3.699-2.902 7.199-6.002 12.298-2.8zM1810 695.6c-1.4-5.5-4.601-8.2-10.301-9.4-34.699-7.2-69.8-12-105-13.5-37.601-1.6-74.601 4-112.199 8.5-40.2 4.8-78.9 17.7-117.5 29.9-34.301 10.8-38.2 16.1-70.2 32-2.399 1.2-5.8 6.5-8.101 7.8-1.5.8-14.8 1.4-16.3 11.6-3 20.802-4.801 65.302-4.899 78.602 2.8-3.5 12.8-12.3 16-15.9 9.3-10.5 18.399-21.2 27.6-31.898 11.5-13.4 7.101-14.4 36.4-35.9 127.5-44.8 220.6-47.5 358.1-24.8 4.9.8 12.699 4.898 15.9 8.7-2.4-14.002-6-32.002-9.5-45.704z"/><path fill="none" stroke="#000" stroke-miterlimit="10" stroke-width="6" d="M1694.6 445c121.6 50 235.4 149 251.3 261.601 45.101 171.5-12.2 545.7-12.2 545.7S1843.1 1421.6 1818 1439.2c56.199-350.5 42.1-497.8 30.1-577.1s-41-181.601-38-168.601c23.301 109.301 11.7 95.7 9.601 107.2-3.3 16.302-60.7 93.2-60.7 93.2s1.1-69.8 1.6-86.699-13.401-.8-13.401-.8l-56 81.5s-6.699-37.1-10.601-66.5c-3.899-29.398-14.6-8.4-14.6-8.4l-35.4 65.7s-9.5-60.1-12.6-78c-3.101-17.898-13.4-1.898-13.4-1.898l-46.5 93.698S1521.4 827 1512.9 809.9s-12-2.2-12-2.2l8.399 104.4s-60.699-80-64.601-94.601c-3.899-14.601-10.399-4.899-10.399-4.899L1363.4 945.4l8.699-189.3c50.101-30 193.801-111 435.8-71-15-71.2-51-139.8-51-139.8s20 48.8 19 54.8c-249-76-371.199 61.399-371.199 61.399l30-83.801-61.5 148s-15.9 280-23.801 392.801c16.602 139.5 7.801 342 5.602 378.699-9.602-5.6-93.4-91.1-103.4-106.5-10-15.398-18.5-29.6-22.199-39.898-3.7-10.302-5.602-42-10.5-77.102-2.301-32.1-14.5-14.199-14.5-14.199s-5.899 17.899-18.7 30.101c-10.199-5.5-77.199-55-98.101-72.8-6.301-20.302-25.1-267.9-25.1-267.9s-12.601-168.8 0-206.7c68.6-189.898 280.1-308.8 280.1-308.8C1458.4 372.801 1563.4 404 1694.6 445zm84.9 743s61.5 3 64.5 15.5"/></svg>