<svg xmlns="http://www.w3.org/2000/svg" id="hair" viewBox="0 0 3000 3000"><path id="sd1" fill="#2D2623" d="M1124 983.9c-3.602-12.3-9.033-32.066-12.834-45.066 21.384 4.091 46.467 2.966 66.668 8.666 5.601 1.601 7.926 6.137 9.625 11.137 5.101 14.899 11.041 29.764 18.041 43.764 5.5 11 11 21.9 17.1 32.602 8 14.198 17.199 27.6 27.5 40.3 4 4.899 8.199 9.6 12.199 14.5 2.101 2.6 3.201 5.6 3.701 9.1 2.198 17 8.198 32.7 16.799 47.5 1.899 3.301 6.801 7.101 2.301 11.301-3.9 3.601-7.2-1.101-10.7-2.399-24.7-9.7-45.399-25.801-66.5-41.301-23.399-17.199-41-39.301-55.5-64.399-9.3-16.101-13.2-34-20.5-50.7-1.1-2.398-1.7-5.1-3.899-6.8-1.699-.8-.899-2.9-2-4 0-.7-.101-1.3-.199-2-.502-.803-1.104-1.505-1.802-2.205zm-7.6-322.5c-9.1 18.5-18.899 36.6-23.1 57.2-1.101 5.3-.5 10.6-1.8 15.8-4.602 18.5-3.302 37.6-5.302 56.3-2.8 26 1.9 51.7 6.302 77.102 3.5 19.898 9.3 39.398 15.398 58.698 3.301 10.5 3.833 15.199 15.032 15.699 5.301.2 12.667 1.166 17.966 1.268 8.301.1 19.838.17 27.737 2.67 23.601 7.5 45.964 4.363 70.264 3.665 4.2-.102 8.4-1.602 12.7-2.5 4.5-.9 7.199-3.2 6.5-8.2-.2-1.602-.1-3.3-.1-5-4.602 8.1-6.4 9.7-15.7 7.8-10-2-20.2-3.8-29.9-6.9-26.3-8.398-49.399-22-67-44.198-8.8-11.102-16.3-23-20.6-36.102-6.8-20.699-12.4-42-10.9-64.3.2-2.899.8-6.1-2-8.3-6.2-1.8-7.399-5.5-6.1-11.9 2-9.6 8.3-17.8 8.2-27.898 1.898-9 2.6-18.4 4.6-27.301 5-22.601 15.266-55.034 23.566-76.834-9.597.298-16.329-1.669-25.763 23.231zm-12.9 349.6c.3 2.102-.9 3.802-1.5 5.7-9.2 26.9-11.102 54.3-6.102 82.3 2.9 15.9 11.834 34.434 15.934 49.834 5.602-2.101 11.168-4.934 16.668-4.733 16.3.8 32.5-1.8 48.698-2.7 8.9-.5 18.4-.2 27-5.3 11-6.5 17.868-12.021 7.067-19.621-19.1-13.601-27.186-18.194-39.785-38.295-6.7-10.7-20.146-29.651-26.646-40.353-7.601-12.699-13.813-34.426-18.213-48.426-8.002 1.301-20.321 12.396-23.121 21.594zM1337 453.75c2 3.399 10.902 4.457 13.201 4.457 23.602 0 39.756 4.423 62.756 9.223 14.67 3.111 51.428 13.508 81.416 39.861 10.198 9 32.465 25.205 42.865 33.904 17.602 14.7 34.11 26.727 50.812 42.227 16.3 15.101 28.569 28.26 42.471 45.858 15.899 20.2 25.394 34.613 33.093 59.515 1.899 6.199 1.239 12.385 4.939 18.185 3.6-1.2 11.246-4.479 13.447-6.878-5.602-.9-4-5.4-4-8.7.3-11.1-1.9-21.8-5.602-32.1-11.199-30.802-30-56.7-52.398-80.2-14.9-15.602-30.602-30.4-47.5-43.8-17.302-13.802-34.102-28.4-51-42.7-23.602-20-50.5-34-80.102-43-11.1-3.4-22.1-6.8-33.5-9.4-3.1-.699-2.699-2-2-4.1C1384.8 440.5 1357.6 446.149 1337 453.75zm-79.302 579.15c-1.399-14.9-1.698-29.8-1.698-44.7 0-9 .1-18 0-26.898-.102-6.7 4.069-14.328-2.73-14.429-5.3 0-19.725 3.66-25.124 3.36-11.5-.7-23.047 3.056-34.647.456-7.5-1.7-9.338.748-6.039 7.947 4.201 9.101 9.543 26.512 13.742 35.512 9.4 20.2 21.967 41.361 33.467 60.361 6.699 11 18.644 26.418 30.144 35.618-2-16.4-5.813-42.825-7.115-57.227zm-197.923-18.212c5.601-2 21.424-8.488 27.625-8.788 7.101-.9 19.302-8.9 26.101-11.4 4.301-1.601 13.601-4.898 10.5-10.6-4-8.8-7.109-24.192-9.51-33.492-4.656-26.575-17.677-23.482-28.977-28.284.5 1.5.287 13.076-1.313 14.477-5.399 4.6-8.6 11-13.6 15.8-6.802 6.5-11.101 14.6-15 23.2-3.9 8.7-5.601 17.6-6.7 26.8-.6 5.4-3.3 8.6-8.6 9.2-11.102 1.1-21 6-31.4 9.2-10.8 3.3-10.9 17.5-11 29.199 24.097-12.8 36.074-26.213 61.874-35.312zm61.825 146.114c7.6 6.1 11.699 30.198 6.699 39 6.601 3.398 13.899 4.1 20.899 3.698 14.7-.8 27.302-6.5 37-18.398 9.2-11.3 13.9-34.7 18-49-10.1.7-20.194 6.503-28.694 5.402-9.602-1.199-24.938 4.13-34.338 3.33-11-1-20.989 2.193-31.391 3.594-3.6.5 3.623 9.174 6.323 11.674 1.802-.402 3.702-.702 5.502.7zm7.506-523.069c3 1.699 12.127.366 14.729-.233 16.5-3.8 35.81-5.611 52.709-5.312 14.301.2 33.455.683 47.653 1.683 18.9 1.302 34.236 7.028 52.638 10.629 33.199 6.5 54.353 18.173 87.15 27.207 3.7 1.899 11.115-2.207 14.014-5.707-1.6-.5-3.199-.8-4.699-1.5-35.399-15-71.101-29.1-108.601-38.1-22.899-5.5-46.1-8.5-69.698-8.6-22.201-.102-44.4-.4-66.4 3.5-4.801.8-4.5-2.5-4.7-5.5-4.203 5.2-13.696 15.233-14.795 21.933zM1061.6 1158.6c13.4 12.399 27.9 23.3 44 32 2.699 1.5 18.072 9.29 22.271 7.49-1-12.4-12.082-36.839-18.682-47.038-7.898-12.2-19.454-23.92-25.554-37.221-.101 2.301-3.736 12.269-5.736 14.168-6.3 5.601-12.3 11.601-18.399 17.5-2.101 2-3.899 4.5-7.301 4.399 3.101 2.904 6.201 5.802 9.401 8.702zM1779.9 544c-.6-.698-1.3-1.3-2-2-.6-.698-1.3-1.3-2-1.898h-.1c-1-1.2-2.9-.8-3.9-2.102a9.458 9.458 0 0 1-2-2c-.8-.6-1.399-1.3-2-2-.7-.6-1.399-1.3-2-2-.7-.6-1.399-1.3-2-2-.7-.698-1.3-1.3-2-1.898-2.399-1.5-38.5-24.4-38.399-21.102l27.5 31.5c.699.602 19.281 23.475 19.281 23.475.699.6 14.68 21.851 19.579 30.851 10 18.5 12.89 24.275 14.89 45.677 1.4 15.3 1.897 26.754-.502 41.953-1.801 11.399 5.353 22.946 11.853 33.446.101-4.6-.7-9.5.5-13.899 3.199-11.899 4.199-24.199 5.101-36.199 1.899-26.2 1.6-52.4-10.101-77-1.2-2.5-2.301-4.9.601-7C1803.5 566 1792.4 554.4 1779.9 544zm-698.734 526.5c0-4.699 1.308-19.377 2.508-23.877 3.199-11.899 12.824-27.021 20.524-36.321-7.7 1.3-26 7.8-32.698 11.3-18.802 10-21.9 27.7-20.802 46.2.5 9 5.4 17.6 10.2 25.6.8 1.4 2.398 3.3 3.5 3.3 5.602-.5 15.938 14.832 19.236 17.133-2.397-15.903-2.367-27.436-2.468-43.335zM931.5 812.5c2.898-3.3 5.3-6.898 7.5-10.5 10.5-17 22.1-33.1 35.698-47.8 12.302-13.398 26.9-23.8 42.102-33.2 7.898-4.898 16.1-9.698 25.6-10.8 4.9-.6 9.5-1.5 14.7-3.2-2.9-4.198-4.5-8.698-8.801-11.1-1 1.5-2.601 1.8-4.199 2.3-7.6 2.2-15.1 5-21.9 9.102-15 9.1-28.1 20.898-42.6 30.6-1.6 1.101-3 2.601-4.2 4.2-10 13.7-22.1 25.398-33.399 37.8-1.7 1.8-1.399-1-1.801-1.8-5.9 10.7-7.1 22.498-8.7 34.398zm27.666 3.189c12.2 1.4 26.5 3.938 38.5 5.938 11.898 2 23.865 10.396 34.065 16.796 6.601 4.1 13.546-2.703 18.046-8.804.7-1-6.179-6.317-5.679-7.519-4.399-2.8-8.399-6.101-13.3-8.4-11.301-5.398-23.602-6.6-35.5-9.1-9-1.9-18-4.4-27.301-4.7-4.699 1.8-5.5 9.1-12 8.2 1.403 1.8 1.169 7.39 3.169 7.589zM942.1 915.6c8.2 1.7 15.5 5.3 22.9 8.898 3.8 1.9 7.6 3.9 11.5 5.7 4.198 2 5.198-.7 5.5-4.1-5.302 2.4-9.102-1.1-12.5-3.9-4-3.2-8.2-5.6-12.7-7.7-8.7-4.1-17-8.898-24.9-14.398.298 13 .2 13.4 10.2 15.5zm38.598 137.8c-2.1-6.9-1.398-12.6-4.6-17.4-.5 2.7 1 5.9-2 8 1.402 2.802 2.202 6.302 6.6 9.4zm-6.598-27.5c.1 2.8-1 5.9 1.9 8.1-.2-2.8.8-5.9-1.9-8.1zm-2.2 12.2c.101-1.7-.3-3.2-2-4.101.1 1.701.5 3.201 2 4.101z"/><path id="cl1" fill="#3C322F" d="M1816.3 733.9c3.3-3.8 1.6-8.1 1.2-12.2-.2-2.6-1-5.1-1.602-7.7-4.699-15.3.801-30.198 2-45.198 2.102-26 2.102-51.7-7.3-76.602-1.5-3.898-5.802-9 1.399-12.398 5.801 5.198 9.399 12 13 18.6 14.699 26.5 25.301 54.601 32.801 84 6.898 27.3 9.1 54.9 7.8 82.7-.8 17.1-4.2 34.1-9.399 50.6-2.301 7.5-4.399 15-6.601 22.5-.8.5-1.3.301-1.7-.5v.102c-1.3-1.102-1.1-2.9-1.8-4.301l.101.199c-1.699-.898-1.399-2.8-2.101-4.199l.101.199c-1.699-.8-1.301-2.8-2.301-4.1l.102.2c-1.5-1-1.102-2.9-2.102-4.102l.102.102c-2.102-1.602-.5-4.4-2-6.2l.1.1c-1.5-1-1.2-2.898-2-4.3l.1.2c-1.699-.9-1.3-2.8-2.199-4.102l.101.2c-1.5-1-1.2-2.898-2-4.2l.1.2c-2.8-2.1-.1-5.7-2.3-8v.102c-2.2-2.602-.2-6-1.898-8.7.5-1.102.299-2.2-.302-3.3-2.5-5.2.601-11.102-1.899-16.302.399-.6.301-1.198-.199-1.698-1.801-2.7-.2-6.102-1.7-8.802l.3-.6-.5-.5c-2.199-2.4 0-5.8-1.9-8.2l.102.2c-2.602-2.1.102-5.7-2.3-7.9-1.206-1.8-5.006-2.3-3.306-6.1zm-412.2-69.8c10.4-2 20.8-5.3 31.199-5.7 33.899-1.3 67.701-.7 101.301 5.2 41.1 7.2 81 18.1 118.1 37.7 1.4.699 11.555 6.878 13.854 5.678-.3-7.1-7.653-22.929-10.054-29.729-8.5-23.899-26.5-44.802-43-63.5-19.799-22.5-41.773-42.818-64.975-61.72-19.101-15.5-42.916-34.587-62.217-49.787-12.799-10.1-23.189-14.998-38.491-21.396-24.8-10.4-43.062-15.04-69.36-18.54-20.199-2.602-29.991-5.04-50.291-5.141-3.399 0-24.767 9.033-27.867 10.533-30.699 14.8-59 33.3-84 56.602-20 18.698-37.799 39.3-54.5 60.898-7.5 9.7-15.299 19.2-20 30.7-2.699 9.4 3.899 7.8 9 7.4 34.601-3.2 69.101-4.5 103.601.8 45.3 7 88.2 22.1 130.399 39.8 3.601 1.5 6.899 4.4 11.201 2.2.6 0 1.299 0 1.898-.102 1.202-1.296 3.102-.796 4.202-1.896zm-272.8-5.5c-5.101 16.2-10.2 32.399-13.9 49-2.5 11-4.399 22.1-4.3 33.5 6.3 4 10.6-.4 14.699-4 3.301-2.8 5.301-6.8 8.201-10 7.6-8.3 13.6-7.2 17.698 3.1 3.601 9 4.7 18.7 7.5 28 4.302 14.4 11.802 17.8 25.802 12 2.198-.898 4.299-1.898 6.299-3.1 4.5-2.9 7.601-3 9.601 3.1 2.601 7.9 8.899 9.102 16.2 7.602 5.9-1.302 11.3-4 16.5-7 4.5-2.602 8.199-2.7 10.3 3 .601 1.6 1.399 3 2.5 4.3 6 7.5 16.601-.5 23 7 1.399 1.6 5.399-1.5 7.899-3 2.601-1.5 4.5-4.4 8.801-5.5-2.6 16-14.7 23.7-22.9 35.7-1.8-4.4-2.1-7.102-3.1-9.5-2.801-6.5-8.5-9.2-13.4-4.7-6.6 6.1-13.3 7.7-21.699 5.7-2.899-.7-6 .3-8.801 1.5-4.199 1.8-8.4 1.8-12.699.3-7.5-2.7-15.101-2.5-22.5.5-7.601 3.2-13.301 2-17.601-5.7-3.7-6.7-10-10.3-17.7-8-8 2.4-10-1.5-11.1-8.1-1-5.602-2-12-9.5-12.102-7.2 0-13.9 2-16.4 10.102-.1 21.1 2 41.698 8 62.1 19.102 64.3 68.102 91.2 124.5 100 8.102 1.3 13.602-1.4 14.5-10.4 1.2-8.5 1.7-17.198 3.7-25.5 6.9-29.1 17.3-57.198 26.2-85.698 9.6-30.4 22.8-59.602 37.9-87.801 11.898-22.101 26.3-42.399 48.3-55.899 1-.601 9.207-3.493 9.308-5.692-6.5-4.801-23.919-11.46-31.719-14.26-46-16.6-83.041-24.412-131.541-27.212-15.301-.9-42.43 1.55-57.73 2.449-9.399.5-15.414-.186-24.515 3.515-3.9 2.196-5.003 16.596-6.303 20.696zm274.5-217.298c2.899 1.698 6.2 2.198 9.399 3.1 31.301 8.4 62.5 17.7 88.5 37.8 40.199 31.102 80.5 62.4 115.399 99.7 29.601 31.7 55.399 65.9 56.7 112.2.1 3.398.5 7.898 6.199 5.8 3.101-1.899 6.301-3.7 9.301-5.7 11.898-7.898 24.199-15.3 37.5-20.6 24.3-9.8 47.398-8.102 68.6 8.5 1.7 1.3 3.4 3.2 5.9 2 5-17.3 2.6-34.5-.301-51.5-6-34.602-24.199-62.9-47.699-88.2-26.5-28.5-56.301-53.5-86.301-78.3-4.301-3.602-9.301-6.2-14.5-8.5-13.101-5.9-26.699-10-40.5-14-33.699-9.602-68.101-14.3-103-15.5-20.199-.7-40.5-.3-60.801 1.6-14.9 1.4-29.699 2.9-44.199 6.2-2.597 1.798-3.197 3.598-.197 5.4zM928.694 900.918L931.9 900c1.7 2 1.065 20.563 3.465 22.063 12.3 7.899 28.708 6.656 41.208 14.255 2.5 1.5 7.006-.102 8.706-3.102 6.199-13 11.468-29.058 20.168-40.957 8.4-11.5 22.339-33.157 29.938-45.157 4.898-7.7 3.548-3.58-3.651-8.68-10.101-7.101-29.1-16.371-40.899-18.571-12.7-2.3-27.5-2.251-40-5.351-9 12.398-15.233 32.399-22.832 45.5-.9 10.801 1 21.399 2.1 32 1.997 2.4-3.31 6.617-1.409 8.918zm86.206 120.384c7.4-1.802 14.4-4.802 21.8-6.802 13-3.5 13.801-4.6 15.801-18 2.301-15.8 8.301-29.898 19.399-41.698 4.3-4.602 8-9.7 12.101-14.5 2.101-2.5 8.467-12 4.168-14.802-22.5-12.198-46.594-19.711-71.493-24.109-13 16.8-24.274 44.811-25.374 65.811-1.102 20.301 3 40.4 2 60.7-.102 3 .3 6 2.898 8.2.602 0 1.125 11.586 1.727 11.386 2.498-8.502 8.573-24.186 16.973-26.186zm54.1 74.598c-19.302-11.3-23.2-57.1 1.8-70.9 7.2-4 18.101-4.731 24.7-9.832 2-1.301 14.148-15.118 16.148-16.519 1.5-6.399-15.648 3.851-19.648 5.351-1.5.602-3 1.5-4.602 1.9-33.199 7.8-62.1 24.5-89.5 44.1-2.6 9.602 2.8 18.5 2.3 28 1.302 9 4.302 17.302 10.102 24.4 4.1 5.1 8.5 10.1 12.398 15.4 8.7 11.8 20 21.199 29.5 32.199 1 1 2.4 1.399 3.601.699 10-5.898 17-14.898 24.801-23.1 1.1-1.2 7.634-9.967 6.234-11.768-1.9-6-5.334-7.966-8.334-13.666-2-2.597-6.2-4.362-9.5-6.264zm-18.802-371.8c1.5.3 3.101 0 2.802 0-33.4 15.1-60.5 40.1-84.302 69.399-1.898 2.399-3.1 5.301.102 7.899 1.2.601 2.398 1.2 3.7 1.5 23.8 5.4 48.332 9.601 70.332 21.601.199.1 7.366-1.334 7.668-1.334l-6.5-.967c.5 4.301 8.467 6.333 9.166 5.633 5.899-7.601 14.013-23.147 19.013-31.348 19.987-25.318 16.307-33.104 11.207-52.902-1.699-6.5-8.082-12.634-10.283-18.834-.699-2-11.862-16.469-13.962-16.469-5.2.1-8.342 10.421-13.241 13.721 1.1 1.303 2.6 1.803 4.298 2.101zm18.5 91.1c-10.899 24.7-26.1 46.8-41.6 68.7-2.101 3-11.013 10.625-7.712 15.125 19.9 6.7 49.595 16.824 69.195 24.225 7.8 2.9 20.416 12.65 19.316 3.25 0-3-8.766-29.564-9.566-32.464-8.198-30.101-13.564-62.169-12.166-93.868 0-1 1.308-19.775.907-20.676-.399-.898-13.073 21.01-13.975 21.909-.601.601-.521-5.813-.921-4.915.703 4.199-1.876 15.114-3.478 18.714zM944.8 779.7c6.5-6.7 13.3-13 19.3-20.3 21.3-25.9 47.2-45.7 78.199-58.5 2.5-1 6.399-.7 6-5.2-11.799-13.6-23.899-16.2-39.601-8.1-13.698 7.1-25 16.899-34.6 29.1-14.601 18.602-26.4 38.7-34 61.2-1.298 8.402 2.802 3.8 4.702 1.8zm898.1-56.1c2.101 6.8 1.101 14.7 6.101 21.7 2.5-8.5-.801-16.4 2.699-24.801 3.4 4.801 1.801 10.399 5.9 13.399 2.4-11-2.801-21.3-3.301-32.2 3.601.801 2.801 4.801 6.899 7.9-5.399-16.8-11.1-30.7-21.899-42.102 1.601 7.2 3.601 14.102 6.601 20.602 3.399 7.2-1 13.6-.7 20.398-4-.398-5-5.3-10.6-6.1 3.4 7.604 6.2 14.304 8.3 21.204zm-871 314.5c0 .6.101 1.2.2 1.899.6.699 1.3 1.399 1.8 2.199 0 .602.101 1.2.2 1.801 5.3-1.5 25.736 34.179 25.036 31.179 0-.601-.47-15.343-2.97-21.679-2.199-2.301-12.508-28.111-14.508-30.513-.199-3.3-2.559-9.866-3.059-13.166-1.3-8.5-1.029-10.067-1.329-18.669-.6-14.1-1.129-27.104 2.972-40.505 1.399-4.6 4.383-10.705.482-12.505-6.602-3.1-18.594-7.395-25.395-10.193-4.101-1.7-14.701-9.225-20.201-7.125.5 2.8 2.871 13.875 3.671 16.675 4.7 16.301 9.1 32.601 14.3 48.699 5.2 16.102 9.6 32.5 16.8 48 1.401.803.901 2.703 2.001 3.903z"/><path id="hl1" fill="#5C4D48" d="M1039.834 709.834c4.601 0 14.307-1.555 19.307-1.555-.9 3.6-8.514 19.906-10.712 20.606-17.601 6-25.729 15.614-39.829 27.114-9.8 8-18.8 16.699-27.4 25.801-5.1 5.398-10.699 10.699-13.4 18-1.898 5.699-7.391 16.19-14.991 13.791-6.199-3.101-20.761-.536-17.86-5.438 17.899-29.6 39.648-62.38 69.848-79.38 6.798-3.597 27.137-18.539 35.037-18.939zm62.364 302.366c-1.8 3.2-3.698 6.3-5.399 9.602-8.899 16.5-20.899 33.1-16.899 52.8.5 2.2.918 19.093.817 21.393-.899 21.601 12.447 32.493 24.048 50.093 2.2 3.3 2.935-1.285 7.135-2.187 3.2-3.8 1.399-7.4-.5-11-8-15.3-14.101-31.5-15.2-48.8-1.4-22.5.7-44.9 7.5-66.602.7-2.198 3.4-4.6.5-7.198-1.4-.201-1.6 1.001-2.002 1.899zM999.822 901.828c-1.3 3-10.289 21.361-11.39 24.461-7.7 22.5-14.035 44.513-11.035 69.213 1.6 12.8 6.413 24.131 8.813 36.83.601 3.199 5.791 18.567 9.791 17.868.699-.5 4.114-1.671 4.814-2.271l-1.314-12.43c0-3.699-3.5-6.698-3.5-10.398-.102-10.3.898-20.8-.602-30.9-3.1-21.199-1.7-41.398 6.8-61.3 3.2-7.6 14.501-22.865 16.302-31.065-8.6-1.801-15.38-7.508-18.679-.008zm77.229-112.412c-1.102 1.101-10.75 17.584-12.25 18.484-8.602 13.7-18.518 27.001-29.416 39.202-12 13.5-22.51 33.396-32.01 48.496-3.2 5 8.726 2.303 12.625 2.603 2.301 1.2 4.5 1.102 6.699-.3.602-.8 1-1.6 1.301-2.5v-1.399c4.301-9 10.301-17 16.199-24.801 13.1-17.398 22.801-36.699 32.2-56.1 1.5-3.102 10.839-25.222 7.64-28.021l-2.988 4.336zm51.147 410.386c2.9.1 5.4-.102 5.601-3.9.899-13.8-3.199-26.2-10-37.899-.899-1.601-2.5-2-4.299-2-2.5.101-3.302 1.801-3.602 4 6.602 12.497 9.702 26.097 12.3 39.799zM933.166 815.689C926.967 827.091 929.5 847.2 928 860c.6-.1 1.6-.1 1.898-.5 7.9-12.5 20.048-31.233 24.748-45.332-7.498-2.502-18.28-4.377-21.48 1.521zM996 1050.2c-.7.602-1.4 1.2-2 1.8-.5 9.2 2.8 17.5 6.198 25.802 2-5.802.802-20.302-2.3-28-.598.098-1.298.198-1.898.398zm846.9-326.6c2.101 6.8 1.101 14.7 6.101 21.7 2.5-8.5-.801-16.4 2.699-24.801 3.4 4.801 1.801 10.399 5.9 13.399 2.4-11-2.801-21.3-3.301-32.2 3.601.801 2.801 4.801 6.899 7.9-5.399-16.8-11.1-30.7-21.899-42.102 1.601 7.2 3.601 14.102 6.601 20.602 3.399 7.2-1 13.6-.7 20.398-4-.398-5-5.3-10.6-6.1 3.4 7.604 6.2 14.304 8.3 21.204zM1339 607.2c2.8-1.898 5.198-1.5 7.3-.7 5.8 2.302 11.8 1.302 17.8 1.5 2.3.102 5.1.4 6.2-2.1 1.3-2.9-.9-4.9-2.5-7-2.101-2.8-5.8-4.4-6.4-8.3 6.9-2.3 12.8 1.399 19.101 1.399 2.899 0 6.199.601 8.199-2.301 2.4-3.5-.1-6.398-1.699-9.1-2.601-4.5-6.699-8.2-7.801-13.5 6.4-3.8 13.2-3.7 19.7-2.7 13.399 2.101 26.7 4.601 39.7 8.601 6.3 1.899 12.6 5.601 20.3 4.399-3.399-7-11.899-9.8-12.3-18.1 4.5-2.3 8.5-1 12.699.3 17.101 5.4 33.801 12 50.5 18.4 10.101 3.8 19.5 9.699 30.699 11.3-.699-3.4-3.3-4.3-5.5-5.7-18.3-11.4-36.8-22.5-54.898-34.2-27.2-17.6-55.4-32.899-87-41.2-1.801-.5-3.7-2.3-6.5-.6 5.3 4.1 10.199 7.5 14.699 11.3 2.301 1.9 4.5 4.8 3.301 7.8-1.2 2.9-4.7 3.5-7.801 3.4-2.301-.1-4.601-.4-6.899-.9-5.5-1.3-11-2.6-16.4-4.1-3.399-1-6.6-1.1-10.899-.4 5.699 5.7 12.899 7.801 15.899 14.9-3.399.8-6 3.1-9 2.2-9.2-2.8-18.5-.9-27.8-1.5-3.4-.2-6.6.2-9.801 1.6-1.5.7-3.399.7-3.799 2.7-.602 2.5 1.5 3.3 3 4.6 5 4 11 6.102 16.5 9.2 1.5.8 3.1 1.8 3.1 3.601-.1 2.101-2.1 2.301-3.7 2.301-5 .3-9.7 1.898-14.7 2.3-11.199.8-22.399 2.2-33.399 4.1-3.399.602-7.899.3-10.8 4.4 7.199 4.8 15.899 5.5 22.3 10.5-1.199 2.2-2.899 2.8-4.5 2.6-10-1-19.8 1.7-29.699 2.3-7.899.5-15.601 2.5-23.399 4-2 .4-4 1.102-4.101 3.5-.101 2.102 1.8 2.802 3.3 3.2 9.801 3.3 18.7 8.7 28 13.2 3.801 1.8 7.4 2.9 11.102-.2 3.1-2.6 7-2.3 10.5-1.5 8.398 1.8 16.8 4 25.1 6.2 11.699 3.1 23.3 7 35.6 8.3-7.804-6.898-17.304-11.2-23.304-20zm-215.5 167.4c5.6-2.101 8.898.1 10.3 5.899.899 3.5 1.3 7.199 2.2 10.699 1.698 6.801 2 6.9 8.6 4.602 10.199-3.7 14.3-2.2 19.8 7 5.7 9.5 6.9 10.199 17.601 6.199 8.5-3.199 16.699-4.199 25.101-.301 3.6 1.7 7.1 1.602 10.5-.398 4.198-2.602 9.6-3.801 13.399-1.9 7.801 4 12.199.5 16.699-4.9.6-.8 1.4-1.5 2.2-2 4.601-2.898 8.5-1.6 9.899 3.602 1.201 4.398 1.899 8.898 3.101 14.2 3.7-2.602 6.399-5.4 8.7-8.602 3.8-5 7-10.8 11.8-14.7 7.7-6.398 7.101-14 6-23.5-5.601 4-9.3 8.9-14.5 11.7-4.8 2.602-5.5 2.3-6.899-3.6-.301-1.2.299-2.8-1.801-3-1.699.899-3.3 2-5.1 2.8-6.9 3-10.6 1.5-13-5.6-.301-.9-.2-2-.5-2.9-1.6-4.1-4.2-5.5-8.6-3.9-2.302.802-4 2.4-6 3.5-5.602 3-11.201 5.9-17.602 6.602-6.102.6-8.602-1.102-10.5-6.7-.5-1.5-.602-3.2-.8-4.899-.5-4.399-2.802-5.199-6.101-2.899-4.101 2.899-8.601 5.1-13.201 7-11.1 4.6-16.799 2-20.6-9.101-1-2.801-1.6-5.801-2.1-8.699-1.5-8.2-3.801-16.2-6.801-23.9-3.899-10-10.5-11.4-18.5-4.3-1.699 1.5-3.299 3.3-4.5 5.3-4.299 7.1-9.899 12.3-18.199 14.3-5.5 9.602-8.801 19.9-11.2 30.602-2.101 9.3-.2 11.3 9.101 9.3 2.503-4.606 7.201-5.906 11.503-7.506zM1604 512c-6.602.7-12.2-2.8-18.302-4.398-3.3-.8-6.399-2.602-11-.3 39.4 18.898 74.101 42.698 104.101 73.3-3.601-9.7-13.101-15.7-15.799-27.9 16.398 7.9 30 17.301 46.299 23-.601-6.898-8.399-8.5-8.699-15.398 10.199 2.5 17.8 9.699 27.9 11.699-.7-5.399-5.5-8-5.9-13.699 15.5 5 27.5 15.1 41.8 20.6-29.7-29.7-60.6-57.6-100.2-77.7 2 5.2 4.9 7 7.102 9.2 2.5 2.7 5.199 5.2 7.8 7.8 2.399 2.3 4.8 4.602 7 7.102 2.2 2.398 5.2 4.3 7.2 9.3-16.301-8-30.9-15.2-46.7-22.9 1.8 5.4 5.8 6.5 7.899 10.5-21.199-5.199-40.199-15.1-62.399-20.3C1595.9 507.7 1602.198 507.1 1604 512z"/><path fill="none" stroke="#000" stroke-miterlimit="10" stroke-width="6" d="M1183.849 948.448c5.1 14.9 14.651 39.952 21.651 53.952 5.5 11 11 21.9 17.1 32.602 8 14.198 17.199 27.6 27.5 40.3 4 4.899 8.199 9.6 12.199 14.5 2.101 2.6 3.201 5.6 3.701 9.1 2.198 17 8.198 32.7 16.799 47.5 1.899 3.301 6.801 7.101 2.301 11.301-3.9 3.601-7.2-1.101-10.7-2.399-24.7-9.7-45.399-25.801-66.5-41.301-23.399-17.199-41-39.301-55.5-64.399-9.3-16.101-28.807-66.729-28.905-67.43-.5-.801-2.396-9.87-3.095-10.57-3.601-12.3-5.774-24.761-9.575-37.761m17.009-294.009c-6.334 9-7.035 12.467-11.435 21.566-9.1 18.5-18.899 36.6-23.1 57.2-1.101 5.3-.5 10.6-1.8 15.8-4.602 18.5-3.302 37.6-5.302 56.3-2.8 26 1.9 51.7 6.302 77.102 3.5 19.898 9.3 39.398 15.398 58.698 3.301 10.5 7.068 15.503 18.268 16.003 5.302.199 14.438 1.09 19.738 1.19 8.301.1 24.855 3.046 34.805 3.812 23.602 7.5 33.891 2.995 58.19 2.297 7.466-.18 5.149-.92 12.7-2.5 4.5-.9 5.938 2.388 5.238-2.612-.2-1.601 1.162-8.888 1.162-10.588m-145.832 214.4c5.602-2.1 20.47-4.487 25.97-4.287 16.3.8 22.864-1.914 39.063-2.814 8.9-.5 18.4-.2 27-5.3 11-6.5 17.337-12.413 6.535-20.013m-84.328-126.216c-8 1.301-20.107 11.93-22.906 21.128m162.215 86.305c-2-16.399-6.715-50.004-8.016-64.405-1.4-14.9-1.699-29.8-1.699-44.7 0-9 .101-18 0-26.898.838-16.612-.123-13.813-8.5-13.799m-119.201 252.299c6.601 3.398 13.899 4.1 20.899 3.698 14.7-.8 27.302-6.5 37-18.398 9.2-11.3 16.624-36.363 20.724-50.663m-154.724 15.461c3.101 2.9 6.2 5.8 9.4 8.7 13.399 12.399 27.899 23.3 44 32 2.698 1.5 18.5 11 22.698 9.2m683.902-619.998c-8.698-13.802-54.186-61.833-102.519-82.468M940.198 778.1c-5.898 10.7-7.1 22.5-8.698 34.399 2.898-3.301 5.3-6.899 7.5-10.5 10.5-17 22.1-33.101 35.698-47.801 12.302-13.398 26.9-23.8 42.102-33.199 7.898-4.899 16.1-9.699 25.6-10.801 4.9-.6 9.5-1.5 14.7-3.199-2.9-4.199-4.5-8.699-8.801-11.101M1812 579.802c5.8 5.198 9.398 12 13 18.6 14.698 26.5 25.3 54.601 32.8 84 6.899 27.3 9.1 54.9 7.8 82.7-.8 17.1-4.2 34.1-9.4 50.6-2.3 7.5-4.398 15-6.6 22.5-.8.5-13.4-26.6-13.4-26.6-.197-.105-4-7.9-6.3-15.9v.102c-2.2-2.602-3.8-29.5-4.3-30-.1-5.967-1.4-9.4-1.4-9.4l-4.6-16.4c-.148-.222-.286-.605-.414-1.116-.908-3.62-1.336-13.589-1.686-17.184-.2-2.6-15.356-34.625-15.957-37.226M1404.1 664.1c10.4-2 20.8-5.3 31.199-5.7 33.899-1.3 67.701-.7 101.301 5.2 41.1 7.2 81 18.1 118.1 37.7 1.4.699 2.84 1.647 11.801 4.865.668-6-1.601-13.866-4-20.666-8.5-23.899-21.5-44.635-38-63.334-19.799-22.5-34.8-38.767-58-57.666-19.101-15.5-38.031-30.134-57.332-45.334-12.799-10.1-31.7-26.601-47-33-24.801-10.399-37.366-17.832-63.668-21.332-20.198-2.602-48.035-7.567-68.332-7.668-3.4 0-24.768 9.033-27.869 10.533-30.698 14.801-59 33.301-84 56.602-20 18.699-37.799 39.3-54.5 60.898-7.5 9.7-15.299 19.2-20 30.7-7.299 8.267-12.631 18.601-15.965 23.933 40-8.666 92.834-10.3 127.334-5 45.3 7 86.801 19.301 129 37 3.601 1.5 9.531-3.532 13.832-5.732.601 0 1.299 0 1.899-.102 1.2-1.297 3.1-.797 4.2-1.897zM1257.698 934c1.2-8.5 1.7-17.198 3.7-25.5 6.9-29.1 17.3-57.198 26.2-85.698 9.6-30.4 22.8-59.602 37.899-87.802 11.899-22.1 26.301-42.398 48.301-55.898 1-.602 10.267-5.068 10.367-7.268-6.5-4.801-22.889-9.141-30.688-11.94m313.023 48.274c3.1-1.9 21.8-11.968 24.8-13.968 11.899-7.898 24.2-15.3 37.5-20.6 24.3-9.8 47.399-8.101 68.6 8.5 1.7 1.3 3.4 3.2 5.9 2 5-17.3 2.6-34.5-.3-51.5-6-34.601-24.2-62.9-47.7-88.2-26.5-28.5-47.466-53.234-86.3-78.3-4.302-3.601-9.302-6.2-14.5-8.5-13.102-5.9-26.7-10-40.5-14-33.7-9.601-68.102-14.3-103-15.5-20.2-.7-40.5-.3-60.802 1.6-14.899 1.4-29.698 2.9-44.198 6.2-2.602 1.8-65.9 15.1-62.9 16.9m-304.07 390.102c-10.101-7.1-39.396-20.852-51.195-23.052-12.701-2.3-40.668-8.015-56.334-7.351m184.99 182.124c-1.5.602-27.491 10.877-29.093 11.277-33.2 7.8-62.1 24.5-89.5 44.1-2.6 9.602 2.8 18.5 2.3 28 1.302 9 4.302 17.302 10.101 24.4 4.101 5.1 8.5 10.1 12.399 15.4 8.7 11.8 20 21.199 29.5 32.199 1 1 2.4 1.399 3.601.699m32.27-391.575c-2.49-9.524-6.534-25.353-16.902-36.621-.698-2-11.965-15.502-14.066-15.502m-8.802-11.3c-11.799-13.6-23.899-16.2-39.601-8.1-13.698 7.1-25 16.899-34.6 29.1-14.601 18.602-26.4 38.7-34 61.2M981.5 938.503c-6.602-3.101-18.866-7.534-25.668-10.333-4.1-1.7-16.832-9.102-22.332-7 .5 2.8 3.199 17.532 4 20.333 4.699 16.3 26.666 106.333 61.52 133.393m105.178-64.594c-1.399-.2-1.6 1-2 1.898-1.8 3.2-3.698 6.3-5.399 9.602-8.899 16.5-16.967 32.034-16.899 52.8.5 2.2.2 4.7.101 7-.899 21.6 7.234 41.302 18.834 58.901 2.2 3.3 9.133 8.899 13.332 8M1001.5 898.17c-1.301 3-16.233 34.566-17.334 37.667-7.699 22.5-8.332 51.3-5.332 76 5.332 25.333 13.907 34.68 18.518 46.649m89.971-283.976L1067 804c-1.102 1.102-.7 3-2.2 3.9-8.601 13.7-19.4 28-30.3 40.2-12 13.5-17.668 29.401-33 50.068-3.2 5 6.332.667 17 3.667 11.898 2.31 16.438 4.615 29.666 7.333 14.524 5.327 41.638 14.9 41.938 14 0-.5 19.501 8.49 19.501 8.091m-4.84 214.828c9.565 11.313 20.835 40.015 23.435 53.715M931.5 812.5c-2 24.002-12.668 59.002 2 108.668M1604 512h0"/></svg>