<svg xmlns="http://www.w3.org/2000/svg" id="hair" viewBox="0 0 3000 3000"><switch><g><path id="cl1" fill="#3C322F" d="M1115.9 618.9c8.3-18.5 21.1-33.9 33.6-49.4 34.8-43.1 76.8-77.5 125.4-103.9 6-3.3 12.8-8.1 19.6-8.3 40.7-1.1 79.9 6.9 118.6 19.7 84 27.8 134.101 85.9 152.9 171.8 1.6 7.5 2.9 15.101 3.7 22.7.6 5.4-1.601 6.8-6.601 4.7-6.8-2.8-13.199-6.3-20-9-32-12.6-65.399-18.2-99.6-19.6-35.3-1.4-70.6-.7-105.3 7.6-9.101 1.9-15.601-4.5-22.8-7.7-26.301-12-53-22.6-81.5-28.8-35.801-7.8-70.801-5.6-105.7 4.4-3.899.9-11.799 7.7-12.299-4.2zm257.4-181.3c5.4 1.7 10.9 2.9 16.4 4.4 41.3 11.5 80.899 26.8 116.399 51.4 55.301 38.199 85.2 89.5 82.9 157.8-.2 6.6-2.2 13-1.4 19.8.601 5.4 2 9 8.4 6 4.9-2.1 9.8-4.3 14.7-6.2 54-21 106.6-21.8 156.7 11.3 11.3 7.5 12.399 7.101 18.399-4.8 5.3-10.6 8.2-21.8 8.601-33.6.6-15.3-2.4-29.8-8-43.9-7.9-20.1-19.7-37.8-33.4-54.3-25.7-31-55.6-57.4-88-81.1-5.1-3.801-10.8-6.601-16.6-9.2-65.801-29.3-134.9-40.8-206.601-37.2-24.3 1.2-48.5 3.7-71.899 11-3.499 4.6-1.199 7.1 3.401 8.6zm-274.6 226.7c-3.9 15.5-8.3 30.9-11.101 46.601-1.8 10.1-4.3 20.3-1.399 30.6 5.2 5.6 9.899 3.9 14.2-1.2 1.699-2 3.1-4.3 4.699-6.4 1.801-2.3 3.4-5.399 6.9-4.8 4.1.7 4.3 4.5 5.2 7.7 1.8 5.8 1.1 11.9 2.8 17.7 3.6 12.5 9.8 15.2 21.3 9.2 2.9-1.5 6.3-4.4 9-1.101 6.8 8.2 13.5 4.9 20.101.4 5.5-3.7 9.5-2.1 15.199.9 8.7 4.5 18.301 12.399 30.101.1-4.5 9.8-9.9 15.7-13.301 23-4.3-11.7-8.899-15.4-14.699-10.7-6.601 5.3-13.801 8.2-21.7 9-14.4 1.5-29.5 12.3-43.3-2.2-.801-.8-2.5-1-3.801-.899-5.6 0-9.199-2.7-11.6-7.7-2.2-4.7-5.8-9.9-11.3-7.1-5.801 3-14 5.3-13.2 14.699.8 1.801.9 3.7.7 5.801-1.9 19.1.899 37.699 5.899 56.1 12.7 46.9 39.9 78.7 90 87 6.4 1.1 12 .6 16.9-3.9 5.9-9.8 8.7-20.8 11.8-31.7 7.101-25.1 10.7-50.8 13.4-76.6 3.4-33.4 14.6-64.1 30.6-93.2 13.2-24 30.9-44.1 55.601-57.2 1.199-.6 2.3-1.3 3.399-2.1 2.601-1.8 2.7-3.9-.1-5.4-4.7-2.5-9.5-4.8-14.4-6.899-38.399-16.9-78.3-25.7-120.399-22.8-23.801 1.6-46.801 6.5-68 17.8-4.299 4.498-7.999 9.098-9.499 15.298zm707.4-91.4v-.4c-2-.4-4.3-.9-5.5 1-1.899 3 0 6 1.301 8.7 18 38.5 17.399 76.1-5.801 112.5-2.399 3.8-2.1 7-.3 10.6 15.5 17 29.101 35.4 40.3 55.601 14.301 25.699 25.2 52.8 34.4 80.6 1.1 3.2 1.3 7 4.5 9.4 2.4-2.5 2.4-5.301 2.7-7.9 4.1-34.4 5.3-69 1.7-103.5-.7-6.9-.4-14-3.4-20.6-2.8 1.5-3.3-.801-4-2.5-2.3-5.601-4.9-11.101-8.1-16.101-1.4-2.1-3.5-6-7.301-4.5-3.6 1.4-3.1 5.2-2.699 8.2 1 7.7 3 15.1 6.5 21-2.7-1.7-1.301-9.2-8.101-7.8-6.2 1.3-4.899 7-5.2 11.399-.1 2.5-.3 5.101.101 6.9-2-6.8-5.7-13.6-9.2-19.1 2.4 3.2 6.9 4.7 10.6 1.2 3.801-3.5.7-7.101-2.3-10.101-1.5-1.5-2.5-3.399-3.8-5-.4-.5-.7-.899-.9-1.5 0 0 .2.601.101.601-.101-.101.5.6.399.5.801.899 1.5 2 2.301 3 1.899 2.1 2.8 6.3 6.6 5 4.7-1.601 2.7-5.9 2.5-9.301-.3-8.199-2.5-15.899-5.6-21.199.699 1.6 1.899 5.399 4.5 8.1 8.699 9.3 16.399 19.1 21 31.2.3.8 1.699.7 2.6 0-.2-2.601-.2-5.3-.6-7.9-8.801-52.1-32.5-96.8-67.2-136.1-.801-.599-1.601-1.199-2.101-1.999zm-870 264.2c-3.8 7.801-4.8 16.801-10.3 23.7-.8 14.9-3.6 34.5-.7 49.101 3.301 6.1 7.601 10.399 15 12.199 5.801 1.4 11.101 5.301 16.4 8.4 5.2 3.1 9.6 8.1 16.5 7.3 1.6-4 8.1-12.899 9.7-16.899 2.7-6.4 5-13.101 8.2-19.2 10.1-19 24.699-34.3 32.899-50 3.2-6.101 2.2-8.9-3.6-12.5-6.8-4.3-22.4-4.9-30.3-6.3-14.7-2.601-29.5-5-44.301-7.5C941.3 828.3 938.6 831.9 936.1 837.1zm47.9 136c-2.2 20.101-7.5 52.9-2 72.7 4.3 1.5 7.9.5 12.3-1 11.9-4.3 28.7-22.4 41-25.5 6.5-1.6 8.9-5.5 10.2-11.5 1.6-7.8 1.5-15.8 3.9-23.4 4.399-13.8 21.8-34.199 29.3-46.699 2.399-4 1.899-7.9-2-12.301l-1.9.9c2.101-1.9.2-1.8-.399-2.5-19.2-11-44.801-16.3-66.301-19.4-9.3 18.9-21.7 47.4-24.1 68.7zm92 159.9c-1.9-5.3-3.9-10.6-5.8-15.9-2.101-1.5-.3-4.5-2.101-6.1-6.8-22.8-18.399-44.1-21.5-68.1-.699-5.601-3.399-10.301-10.699-8.101-16.2 6.801-32.2 14.101-47.801 22.2-7.199 9 1.301 19.7 1.101 29.2 1.399 6.8 5.5 12.3 9.8 18.1 14.4 20 30.2 38.7 48.9 54.9C1061 1160.4 1076.4 1146 1076 1133zm-51.8-400.5c.5.2 1.2-1 2-.2-.601-.1-.9.3-1.4.5-30.6 13.2-49.7 38.4-67.9 64.6-2.4 3.5-5.4 7.3-.101 11 2 2.3 4.9 2.199 7.601 2.6 19.899 3.3 40 6.1 58.5 15 4.199 2 11.8 7.1 14.3 3.9 5-10.801 9.8-21.7 15-32.4 7-14.4 17.5-35.7 13.1-50.9-5.5-19.1-13.399-32.899-42.1-20.3-.4 2.1-.5 5.6 1 6.2zm25.7 86c-8.4 23.9-21.4 45.5-32.5 68.1-1.7 3.4-5.301 6.7-.9 10.7 13.9 5.7 28.8 7.9 42.8 13.101 4.601 1.699 29.2 24.699 33.2 21 4.2-3.7.4-10-.8-15.101-.601-2.6-1-5.2-1.7-7.8-7.1-27-26.4-88.4-27.8-116.3-.101-1.5.3-3.9-2-3.8-1.9 0-2.3 2.1-2.4 3.8 1 3.5-10.8 17.8-7.9 26.3zm-112.5-31.3c1.8-2.101 3.5-4.601 5.1-7 20.2-31.5 44.4-58.3 81.4-70.3 3.699-1.2 9.1-5.2 7.8-9.4-13.4-15.5-28.9-15.1-46-4.4-5.4 3.4-10.101 7.5-14.5 12-21 21.601-39.5 44.4-39.5 76.801.1 5.199 2.7 5.699 5.7 2.299zm32.7 257.3c-4.8-29.9-9.399-59.9.4-89.7.1-.3.1-.6.2-1 4.5-12.2-2.2-16.899-5.5-18.7-8.4-4.8-16.7-9.6-26.101-12.199C934.4 921.6 935 933.3 935.4 938c.1 1.6.6 3.3.899 4.9C934.8 955 950 999 958.4 1026.7c2.899 9.5 6.399 18.8 11.8 29.199 2.1-5.099.4-8.199-.1-11.399z"/><path id="sd1" fill="#2D2623" d="M1370 429c4.3 4.2 10 5 15.5 6.4 31.7 8.199 62.5 18.899 91.4 34.199 30.199 16 57.899 35.301 79.399 62.601 23.101 29.399 36.5 62.399 37.7 100 .4 11.3.7 22.6-1 33.899-.6 4.101-.3 8 3.1 11-1.399.9-2.699 2-4.199 2.601-5.5 2.1-23.301 1.899-24.601-4.101-1.5-6.8-4.6-38.8-6-45.6-7.2-48.4-51.5-98.4-79.6-120-97.101-62.8-175.3-52-179.9-55.1C1320.6 447 1351.6 433.2 1370 429zm-285.6 345.2c2.1-7.7 3.399-15.601 6.399-23.101 1.4-3.6 2.2-7-.8-10.199-.4-15.301 2.8-30.2 6.3-44.9 3.7-15.7 7.8-31.4 11.7-47-7.2 1.9-13.7 1.8-17.2 8.5-17.399 33.8-23.899 74.3-24.7 112.1-.699 30.4 2.5 60.5 8.5 90.4 4.601 23 11.4 45.2 23 65.7 3.5 6.1 7.9 9.5 15.2 9 7.7-.5 15.2.7 22.8 2.3 12.101 2.6 24.101 5.4 35.301 10.7 5.8 2.7 10.199 1.399 14.199-3.101 4.7-5.3 8.801-10.899 11-17.699-11.1 0-21.8-2.2-32.399-5.301-25.5-7.6-44.5-23.399-56.8-47-12.4-23.699-17.9-49.3-18.9-75.899-.2-6 .3-12-1.8-17.8-2.6-1.6-2.6-3.6-1.8-6.7zm27.7 399.2c2 4.6 3.301 9.8 5.5 14.1 3.7 7.1.801 15.8 6.301 22.1 8 2.7 28.199 5.9 36.5 5.301 20.5-1.4 40.3-17.601 46-37.4 1.6-5.7.699-7.6-5.301-9.6s-12.3-2.9-18.6-2.9c-12.6-.1-25.2-.1-37.8 0-7 .1-25.8-2.8-32.601-.8-2.799 3.099-1.399 5.999.001 9.199zm686.7-610.3c-16.6-17.199-33.6-33.899-52.7-48.399-2.199-.5-23-8.5-22.1-6.4 18.1 19.2 43 51.8 55.1 75.5 19.101 37.2 24.4 64.4 1.601 102-3.601 6 8.2 12.7 15.1 19.601 2.2-4.101 4.4-8.2 6.7-12.101 12.3-20.399 19.5-42 17.2-66.2-1.4-14.6-4.9-28.699-11-42.1-1.8-3.9-3.8-7.8-2.601-12.4-1.8-3.801-4.6-6.601-7.3-9.501zm-694.3 637.8c1.5.699 3 1.5 4.6 2 4 1.199 5.9-.301 5.4-4.2-.3-2.3-1.1-4.5-1.8-6.7-3.101-9.2-8.4-17.3-14.2-25-8.1-10.899-16.5-21.7-22.5-34-1.4 3.9-4 6.8-7.2 9.4-7 5.6-14 11.3-21 16.899 16.9 16.601 33.8 31.701 56.7 41.601zm-6.2-554.4c4.101 1.8 6-.9 9-2 9.7-3.5 20.9-6.3 31.101-8.2 39.1-7.399 75.199-10.8 113.199.3 20.5 6 40.2 14 59.101 24 4.899 2.601 22.1-2.699 27.5-5.5-3.7-1.5-7.4-2.899-11.101-4.5-19.899-8.6-39.399-18-59.6-25.8-27.3-10.5-55.2-17.399-84.8-15.8-18.101.9-35.7 3.9-53.101 8.6-4.5 1.2-9.6-1.8-14.399-3.5-3.3 4.1-16.1 27-16.9 32.4zm-123.5 412.9c18.2-3.7 33.7-16.101 51-23 22.101-4.5 19.5-20.601 26.601-34.101 0-19.2 7.399-35.6 20.5-49.5 9.399-10 13.6-21.899 1.899-29.899-.5-.4-1.2-.601-1.8-.9-1.2 2.4-6.7 15.6-8.1 17.9-13.101 20.5-21.801 42.5-24.301 66.8-.699 6.6-4.199 9.899-10.5 11.5-13.5 3.399-41.6 24.8-54.699 29.8-8.5 3.4-3.9 7.4-.6 11.4zm-43.9-234.5c3-2.5 4-6.101 5.6-9.301 5.4-10.699 11.5-21 17.7-31.3 12.3-20.6 41.6-41.1 61.6-53.7 8-5 16.5-8.6 25.9-10.1 8-1.3 8.5-2.9 4.2-9.6-.7-1.101-12.801-11.7-13.7-12.7-7 3.1-18.5 8.7-25.2 12.8-21.4 13.2-41.2 28.1-55 49.7-3.8 5.9-8.4 11.2-12.7 16.7-2.2 2.8-3.8 6.399-7.6 7.6-15.5 15.401-2.6 33.201-.8 39.901zm136.4 272.2c.2-19.199-4.2-37.199-11.6-54.8-5.7-13.6-5.601-14.1-19.9-7.5 5.2 3.7 5.601 9.5 6.601 15 4.1 22.2 12.1 42.8 25.6 61.1-.201-4.5-.801-9.2-.701-13.8zM953.4 823.8c22.899 3.2 46.199 4.8 66.6 17.5 3 1.9 8.7 3.7 10.5.601 1.3-2.301 5.1-13.301 6.2-15.7-2.4.1-9.101-3.3-11.2-4.4-9.4-5.2-19.8-7.3-30.1-9.7-12.301-2.899-24.7-4.8-37.101-6.899-9.1 7.6-6.5 16.5-11.6 16.899 2.201.599 4.401 1.399 6.701 1.699zm162.2 340.6c7.801-2.101 15.601-1.601 23.601-2 2.2-.101 9.8 1.6 12-3-13.8-15-36.7-30.601-52.8-44.601 3 12.9 7.699 25.101 12.1 37.4 3.2 8.9 2.6 9.9-6.3 10.9 3.499 3.501 7.499 2.301 11.399 1.301zm-100-261.5c23.9 3.199 46.7 9.399 66.4 24.3.3.3 11.9-1.101 13.4-1.3-4.2-9.5-8.301-18.801-12.4-28.101-.9 13-12 14.2-24 9.601-13.2-5.101-26.8-8.801-40.6-12.101-2.4 4-6 5.8-10.5 6 2.6.501 5.1 1.301 7.7 1.601z"/><path id="hl1" fill="#5C4D48" d="M1021.9 728.9h14.8c.3.6.5 1.3.8 1.899-40.9 18.601-59.8 42.7-85.3 84.4 1 8.4-3.6 9.5-10.3 7.8-5.101-1.6-4.4-4.8-2.4-8.5 6-11.4 17.9-33.2 26.1-43.1C980.8 752.7 998.5 737 1021.9 728.9zm-38 287.8c2.1-39.601 5.8-69.4 21.3-106.3 2.5-3.801 4.5-7.801.2-11.801h-5.7c-1.101.601-8.8 3.801-9.601 4.7-9.5 14.4-9.5 25.8-15.3 42.5-16.7 32.7-13.1 69.4-5.5 102.4 1.601 6.8 10.9 9.6 17.2 6.6.3-4.399-1.7-15.399-1.4-19.8-.499-6.099-.399-12.199-1.199-18.299zm134.1 141.8c5.2-4-2.9-14.9-4.6-18.4-5-10.5-9.9-20.1-19.601-28.8-8-7.6-14-23.8-26.2-31.2-1.6 7.301-5.699 21.7-3.699 27.101 6.1 16.8 16.399 39.699 32.699 52.899 6.001 1.9 16.301 2.3 21.401-1.6zM995.6 895.8c-1.399 1-.899 2.9-1.899 4.101.6.699 13.6-2 14.2-1.301 4.8.301 11.699 4.301 10.5-6 2.5-5.1 4.6-10.399 7.399-15.199 10.5-17.9 18-37.101 24.9-56.601 1.7-4.7 2.399-15-.2-20.1-12.2 29.8-41.9 65.6-54.9 95.1zm110.1 269.6c-1.4 1-3.601 1.399-2.3 3.899 6.3 10.301 10.3 21.601 13 33.301.899 3.899 1.5 8.1 6.899 8.199 3.3-22.5-4.5-32.8-11.899-45.399-1.9.1-3.8 0-5.7 0zM944.2 822.2c-1.3-1-3-.601-4.2-1.601-4.3 0-5.1 3.601-6.3 6.5-4.101 10-7.2 20.301-7.9 31.101 2.601 1.399 3.601-.5 4.5-2.3 5.2-11 11.4-21.601 15.5-33.101-.5-.299-1-.499-1.6-.599zm301.6-245.7c-9.899 1.1-19.8 2.5-29.6 4.7-3.2.7-6.5 1.6-9.5 3-4.2 1.899-4.4 4.1-.601 6.2 6.101 3.399 12.301 6.6 18.601 9.699 3.399 1.7 7 2.301 10.6.7 6.2-2.7 12.4-2 18.601-.2 12.5 3.601 24.899 7.4 37.3 11.101 3.399 1 6.6 2.899 10.3 2.1 0-.899.1-1.399 0-1.5-3-2.6-6.2-5-9.1-7.7-2.801-2.6-8.5-4.8-6.9-8.699 1.8-4.4 7-.801 10.7-.601 4.3.3 8.6 1.5 12.899 1.4 6.801-.101 8.301-2.7 5.7-8.8-.399-.9-1.1-1.7-1.5-2.601-1.5-4-.399-5.899 3.8-5.5 4 .4 7.801 1.5 11.801 2.101 4.3.699 8.899 1.8 12.3-1.801 3.7-4 1-8.1-.7-12-.3-.6-.6-1.199-.8-1.8-2-5.899-.8-8.1 5.4-8.6 3.899-.3 8 .1 11.899.6 18.601 2.3 36.601 7 54.5 12.2 3.5 1 7.301 3.3 11 .7.2-3.1-1.8-4.8-2.699-6.8-2.801-6.5-.801-9.5 6.5-8.9 3.899.3 7.899 1.4 11.6 2.6 15.6 4.9 31 10.101 46 16.7 3.4 1.5 6.9 3.9 12.7 1.5-40.7-36.899-87.4-59.899-139.4-75.899 2.5 4.399 5.8 5.5 8.2 7.699 2.399 2.2 5.199 4.301 7.199 6.9 3.801 4.9 1.9 9.1-4.5 9.3-3.3.101-6.6-.6-9.8-1.3-5.5-1.3-10.899-3-16.399-4.3-3.101-.7-6.301-2.3-9.7-.1.8 3.899 4.399 4.899 6.7 7.1 1.6 1.6 4.399 2.8 3.199 5.5-1.1 2.5-4 2-6.199 2-3.7 0-7.301-.1-11-.4-5-.399-9.9-1.1-14.9-1.399-5.7-.301-11.4-.301-16.8 1.5-5 1.699-5.4 4.5-1.101 7.699 3.2 2.4 6.801 4.2 10.2 6.301 1.9 1.199 4.4 2 4.3 5.3-2.1 2.399-5.199 2.3-8.1 2.6l-38.7 4.2c-3 .3-6 .7-8.899 1.4-2.2.5-5.101.6-5.2 3.699-.101 2.4 2.399 2.9 4 3.9 2.7 1.6 6.5 1.7 8.8 5.9-4.301 1.901-8.501 2.201-12.701 2.601zM1642 563c-.4-4.7-2.5-8.9-4-13.4-.8-2.5-2.3-5.199 0-7.5 2.4-2.399 5.1-.6 7.4.601 8 4.2 15.8 8.6 23.8 12.7 3.1 1.6 6.1 4.199 10 3.1 2-3.3-3.2-6.3.3-9.8 9.3.899 16.2 9.8 26.4 9.5V554.6c-.2-5.6.5-6.3 5-4.8 2.199.7 4.3 1.8 6.3 2.9 7.3 4.1 14.4 8.399 21.7 12.399 3 1.601 5.8 4.101 9.699 3.601-.199-3-2-4.101-3.399-5.4-11.101-10.5-22.101-21.2-33.601-31.399C1698.4 520.1 1684.2 509.7 1668.9 500.8c-3.101-1.8-6.2-4.6-11.2-2.6 5.8 8.6 14.6 13.6 19.6 22.8-4.899 1.1-7.8-1.5-11-3-9.3-4.4-18.6-9-27.899-13.4-.9-.399-1.9-.5-2.4.7.1 2.101 3.1 2.7 2 6.101-9.1-1.301-17.5-5.101-26.3-7.601-8.601-2.399-16.8-7.2-26.3-6.8.3 3.3 4.5 3.6 4 7.1-8.7-.8-16.4-4.8-25.2-4.3 1.6 3.9 4.8 4.4 7.399 5.601 25.601 11.8 47.2 28.5 64.4 50.8 1.8 2.399 4 4.399 6 6.6V563zm-555.1 217.4c11.8-10.9 13.5-10.4 17.199 4.699 1.4 5.5 2.301 6.2 7.4 4.7 8.8-2.5 8.8-2.5 13.9 4.4s6.1 7.1 14 3c3.6-1.9 7.1-4.2 11.199-3.4 6.5 1.2 12.5.4 18.2-3.1 1-.6 2.7-1 3.8-.7 6.101 1.9 9.801-.8 13.5-5.4 4.5-5.5 8.101-4.399 10.5 2.5 1.2 3.301.2 7.4 3.4 10.301 1-.5 2.1-.801 2.6-1.5 5.801-8.9 11.7-17.801 17.101-27 2.899-5 2.7-10.601.5-16.601-5 2.7-7.2 7-10.8 9.9-2.7 2.2-5.301 3.2-7.101-.9-.899-2-1.8-3.2-4.5-2.5-8.2 2-8.3 1.8-12.2-5.399-2.5-4.5-4-5-8.6-1.9-3.3 2.2-6.3 5-9.6 7.1-7.5 4.801-9.7 4-13.2-4.3-2-4.899-2.601-5-7-1.8-3.2 2.3-6.2 5.1-9.7 7-5.8 3.2-9.4 1.8-11.6-4.5-1.2-3.4-1.601-7.1-2.101-10.7-.899-6.6-1.699-13.3-4-19.5-3.1-8.2-8.199-9.1-13.899-2.2-2.5 3.101-4.5 6.601-6.5 10-2.301 3.801-5.101 7-9.601 8.301-1.5 3.3-3.199 6.5-4.6 9.8-3.2 7.899-5.5 16.2-6.2 24.7-.399 5.3.5 5.8 7 5.6.403-.101.603-.401.903-.601zM1840 699c.6 4.5 4.6 8.1 3.7 13.3-6 .9-9.2-5.899-14.9-4.8.7 3.2 17.4 37 19.8 40 5.5-6.8.801-15.8 4.601-22.7 6.1 1.101 5.5 9.2 11.899 10.3 1-11.699-6.5-21.399-5.6-33.1 4.3 1.5 5.1 5 6.8 7.7 2.101 3.399 3.8 7 6.101 10.3 1.5 2.2 2.699.6 3.6-1.1-1-1.7-2.1-3.4-2.9-5.2-5.899-13.8-14.5-26.101-23-38.3-2.1-3-3.8-6.9-9.199-6.9.5 12.3 8.699 22.7 6.899 35.3-3.501-.7-5.201-3.5-7.801-4.8z"/><path id="l" fill="none" stroke="#000" stroke-miterlimit="10" stroke-width="6" d="M1551.9 423c110 20 146.899 69.8 146.899 69.8s-4.8-4.1 43.8 21.7c78.801 45 125.301 156 130.301 183.5 9 24.8 9 174 0 152.9-9-21.101-39-127.7-100.2-164.601-97.2-59.8-169.7-9.8-169.7-9.8l-29.5 5.5-8.899-5C1436.5 622.5 1317 660 1317 660l-6.6 4.9c-48.9 29.1-69.3 77.899-78.1 98.8-8.801 20.899-20.801 132.8-38.2 163.3-5.2 25.4-25.2 20.8-27.5 19.7s-30.2-12.1-50.601-12.1c-20.399 0-17.699-4.9-17.699-4.9C950.9 604 1319.5 444 1319.5 444c29.1-11.5 117.9-38.5 232.4-21zm-486.8 322.6s-28.199-79.699-81.899-49.5c-53.101 38.2-54 88.801-58.4 115.5 2.101 14 8.101 14.2 8.101 14.2.899-1.6-17.101 31.4-8.101 83.2 5.4 7.3 5.4 7.3 7.4 8.7 2 1.399 1.2 5.8 1.5 16-1.5 24.7 5.6 31.7 7.5 38.899 1.899 7.2 26.899 81.7 26.7 83.4-.2 1.7 12.199 2.4 15.699 6.3s-.699 24.7 14.4 44.301c15.1 19.6 65.8 84.199 108.6 96.399l12 3.101s30 16.3 47.801 9.199c17.8-7.1 37.1-24.5 38-43.3.699-10.3-46-9.6-52.301-9.1 1-11.5-44.8-40-54.5-47.801-9.699-7.8-19-24-21.8-25.3s-11.5-14.2-12.6-16.8c-1.101-2.601-8.601-34.4-15.3-41.101-6.7-6.699-4.101-12.399-4.101-12.399s10.101-10.3 6.601-25.8 18.199-38.4 24.3-45.9c6.1-7.5 7.6-12.3 7.3-14.8s14.8-4 14.8-4m-45-210.098c-93.1 10.3-118.5 110.4-116.7 104.6m1.8-1.4s69.8 8.2 92 22.9c20-39.3 34-64.3 35-67.8m-36.4 69.1c.9-1-90.4 98.7-56.4 211.2m114.6-126.7c-50.5-32-96.3-26.7-96.3-26.7m56.3 124.5c-15 5.101-62.8 30.7-62.8 30.7m83.8 21.3s-16.7 35.2 26.1 78.801c17.4 17.699 21.5 42.699 21.5 45.5m36-41.201c-.3-.5-52.7 1.199-52.7 1.199M1312.5 663c-112.9-69.6-220.6-9.8-220.6-9.8m475.5 25.7c-18-239.9-275.1-221.5-275.1-221.5m484.5 231.9c64.7-75.6-68.1-192.2-68.1-192.2M932.9 918.6l39.699 21.7"/></g></switch></svg>