<svg xmlns="http://www.w3.org/2000/svg" id="hair" viewBox="0 0 3000 3000"><switch><g><path id="cl1" fill="#3C322F" d="M1135.8 595.7c7.4-24.101 19.2-46.101 33.4-66.7 25.2-36.7 56.6-67.1 95.1-89.8 8.3-4.9 17-9 26.101-12.5 9.3-3.601 18.399-7.9 27.3-12.2 51-25 104.8-35.7 161.6-32.9 79.601 4 153.9 25.7 223 65.4 1.4.8 2.601 2 3.9 3 2.7 11.4-.4 14.8-12.4 12.8-8.2-1.3-15.399-6.3-25.399-7.399 4.899 6.3 10.1 10.8 12.699 17.3 4.301 10.899 2 16.899-8.899 20.899-6.601 2.4-13.601 3.2-20.601 3.601-4.5.3-8.899.899-10.699 5.8-2.301 6-7.2 6.9-12.2 5.9-12-2.301-22.3-.9-33.101 6.199-6.3 4.2-15.899 3.2-21 10.9-.3.5-1.3.8-1.8.6-11.8-3.3-20.3 6.7-31.2 7.101.4 4.7 4.2 5.399 6.9 6.8 9.3 4.8 13.7 14.3 21.1 21 7.301 6.5 9.101 6.2 11.9-2.9 4.7-14.8 11.1-16.6 22.7-6.3 1.7 1.6 3.3 3.2 5.1 4.8 7.9 6.9 10.5 6.8 16.601-1.7 5-7.1 11.5-7.6 18.399-4.3 5.7 2.8 11.101 3.9 17.3 2.5 6-1.3 10.9 2.2 16 4.601 9.5 4.5 11.7 4.3 17-4.601 4.801-7.899 11.5-7.8 18.101-4.399 8.7 4.6 16 7 21.3-4.2.9-1.8 3-2.8 4.9-3.3 5.8-1.5 8.1-5.5 8.3-11 .2-7.2 4.7-11.7 10.9-12.4 8.1-1 15.1-4.1 22-7.9 19.1 18.4 34.1 39.9 47.199 62.801 28.4 49.699 43.4 103.399 47.101 160.5 2.899 44.3 1.5 88.5-.5 132.699-.301 6-1.2 11.9-1.9 17.9-2.7 3.5 2.2 11.2-4.6 11.5-5.9.2-5-7-6-11-17-68.7-48.7-130.6-87.5-189.2-1.7-2.6-2.9-6.1-7.9-7-3 19.2-9.7 37.3-12.9 56.5-2 11.9-1 24.101-3.699 35.8-.5 2.2 1.1 8.101-5.2 5.4-7.6-20.9-19-40.2-26-61.4-1.3-4-4-5.899-8-6.3-7.3-1.399-5.6-7.899-7.1-12.6-.7-2.2-.2-5.3-2.9-5.9-3.2-.7-4.3 2.5-5.6 4.7-2.7 4.3-4 9.1-5.5 13.9-9.9 32.3-16.7 65.5-30.301 96.6-2.199 5.1-5.199 10-6.399 15.5-.9 2.8-1.7 5.6-4.7 8.4-1.1-4.2.2-7.4.7-10.4 5-30.3 8.399-60.7 7.699-91.4-.3-12 .5-23.899 3.5-35.699 1.2-4.601 1.4-9.301-1.5-13.5-.699-.601-1.3-1.101-2-1.7l-.1.2c-2.4-2.4-3.9-4.801-3.2-8.7 2.101-11 3.7-22.101 6.5-30.5-10.5 14.6-23.3 30.5-36.3 46.2-17.4 21.1-34.5 42.3-51.1 63.899-8.2 10.7-11.301 24-16.5 36.3-9.801 23.4-21.2 46-33.301 68.301v-.103c-5.399-2.399-2.399-6.399-2-9.899 2.9-26.801 8.801-53.101 15.2-79.2 4.4-18.101 9.101-36.101 15.4-53.601 8.8-24.199 20.1-47 34.3-68.5 4.2-6.399 8.1-12.899 11.9-19.6 2.8-4.9 3.5-10-.7-14.8-4-2.3-7.5-1.2-11 1.4-23.7 17.699-50.5 30.3-75.7 45.6-8.699 5.3-14.6 13.4-21.199 20.9-21.601 24.699-40.101 51.1-51.601 82.3-12.899 35-26.3 69.899-42.6 103.6-7 13.9-15.7 26.8-22.101 41.6-3.3-3-2.199-5.8-1.899-8.1 6.6-57.3 16.3-113.9 36.5-168.2 6-16.3 14.399-31.399 23.399-46.2 3.101-5.199 6-10.6 2.101-16.699-6.4-2.101-9.4-5.5-7.601-13 1.601-7 2.9-14.2 4-23-13.399 12-22.899 25.3-33 37.899-33 40.9-61 84.8-79.1 134.601-.9 2.5-2 4.899-3.2 7.3-1.1 2.2-1.899 5.8-5.399 4.4-2.801-1.101-3.2-4-1.9-6.801 6.3-36.399 13.7-72.6 21.1-108.8 3.9-18.899 7.801-37.8 11.601-56.8.899-4.7 3.399-10.7-2.9-13.1-6.1-2.301-8.6 3.8-11.3 7.699-8 11.601-13.6 24.4-18.6 37.5-12.2 32.5-20.801 66-27.101 100.101-.7 3.899-1.8 7.8-2.7 11.7-17.3 33.699-67 43.5-100.8 13-33.6-30.301-49-69-51.899-113.2-.801-13.3-1-26.7.1-40 1.398-19.6 6.198-38.2 12.398-56.5zm-134.3-36.4c-18.1 6-31.5 19-46.2 30.2-7.3 5.6-14.1 11.7-17.5 20.6-2.2 5.801-.6 11.101 1.601 16.5 4.799 11.8 11.399 22.6 19.199 32.6 6.801 8.7 13.5 17.3 16.801 28.1.3.9 3.3 11.1 4.699 10.8 2.801-1.899 3.5-5.3 4.9-8.2 10-20.699 21.3-40.699 34.9-59.399 7.899-10.8 16.8-20.601 27.399-28.9 2.101-1.6-20.2 22.9-29.899 37.7-13.2 20.2-24.301 43.2-34.601 64.8-18.3 38.5-43.899 68.601-82.7 87.2-.5.2-.699 1-1.8 2.5 9.5.7 18.2.5 26.601-3.2 9.899-4.3 38.6-6.399 110.899-95.399 2.8 1.5.3 3.399.101 4.3-2.5 3.899-4.4 5.899-7.101 9.8-15.5 22.3-26.2 47.5-41.899 69.6-3.3 4.698-13.5 12.198-11.1 18.098 1.4 3.7 11.3 1 14.601-.5 8.5-4 17.8-6.101 25.699-11.4.301-.2.5-.1.601.101.6 1.199 1.3-.7-.3-.4-24.9 23.3-47 48.7-63 79.2-1.5 2.899-8.801 8-13.5 8.6-1.5 2.4-2 5-2.2 7.7-1 3.4-1.5 7 1.899 9 2.9 1.8 13.7-1.3 16.2-2.7 6.601-3.5 11.601-9.1 16.2-14.7 20.1-25.1 43.6-47 69.5-65.7 17.6-12.699 25.8-30.5 28.6-49.699 5.2-34.801 13.2-68.7 23.4-102.101 11.4-37.3 24.1-74.1 38.8-110.3 16.601-41 45.601-72.4 80.101-99.1 5.5-4.301 11.399-8.2 16-13.601 4.1-4.899 15-15 8.5-15.6-1.601-.1-3.301.2-4.801-.8-18-7.6-77.899-16-128.399 14 3.7 1.399-10.3 5.699-7 7 8.1 3.1 30 24.8 26.7 23.1-3.5-1.9-11.5-2-15.4-3.1-15.4-.7-30.7-1.5-46.2.8-37.6 5.5-68.399 23.5-93.2 51.5-7.5 8.5-15.199 15.1-25.899 19.1-16.9 6.2-32.3 14.601-43.8 29.3-4.4 5.7-6.801 12.801-12.9 17.2-1.8 2.7-3.5 5.4-2.7 8.8 2.6.101 3.7-1.3 4.9-2.399 10.2-9.5 22.2-15.601 35.7-19.2 4.5-1.2 8.899-2.7 13.3-4.4 22.7-8.899 46.5-11.199 70.5-12.1 8.5-.3 10 2.7 6.399 11.2-4.101 1.699-8.501 2.099-12.601 3.499zm-86.6 108.5c2 3.8 3 8.101 4.399 12.101 5.7 17.3 5.101 19.6-9.399 31.199-3.9 3.101-7.2 6-4 11.4 3.8 5.1 8.5 9.3 13.199 13.5 5.601 5.1 11.801 7 19.2 2.4 7.101-4.4 13.101-10 18.7-16 8.1-8.7 9.1-28.7-3.7-45.301-11-14.199-23.2-27.8-28.6-45.6-.9-2.9-2.9-5.4-6.7-3.5-1.2 1.4-2.5 2.8-3.7 4.3C911.2 644.2 908.8 656 914.9 667.8z"/><path id="hl1" fill="#5D4E49" d="M1779.9 510.2c1.5 9.899.6 11.1-9 11.8-1 .1-2 .1-3 .1-13.2.801-15.101 2.801-16.101 16.2-.6 9-.6 9.2-9.399 9.601-3.801.199-4.9 2.3-6.2 5.3-3.601 8.8-6.601 9.899-15.2 6-3.6-1.7-6.9-4-10.6-5.5-6-2.4-9.2-.9-12 5-.7 1.5-1 3.2-1.801 4.7-2.5 4.899-5.1 6.1-10.6 4.699-4.6-1.199-8.5-3.8-12.5-6.1-4.8-2.7-9.6-4.9-14.8-.8-3.101 2.5-6.3 1.3-9.2-.7-1.9-1.3-3.8-2.8-5.8-3.9-7.101-3.899-10.601-2.699-14.4 4.7-.6 1.2-1 2.5-1.6 3.7-3.601 6.5-7.7 7.5-13.8 3.2-3.2-2.3-5.9-5.3-8.9-8-2.5-2.2-4.8-4.8-7.5-6.601-4.8-3.1-8.3-1.899-9.8 3.801-1.101 4.5-1 9.199-1.8 13.8-1.101 7.2-4.7 8.7-10 3.8-5.9-5.4-11.601-11.1-16.601-17.3-6-7.4-12.8-13.4-21.899-16.8-3.101-1.2-6.101-2.801-8-5.801-2.601-4-1.601-7.1 3-8.3 1.6-.399 3.3-.5 5-.399 6.5.6 12.6.8 16.899-5.7 1.3-2 4.101-1.9 6.5-1.5 2.9.399 5.9.899 8.4 1.3 2.6-1.5 1.3-3.1.899-4.6-.899-3.2.7-4.4 3.601-4.4 2 0 4 .2 6 .4 7.2.6 13.899-.2 19.3-5.9 3.1-3.3 7.5-4.3 11.9-4.2 4.699.101 9.3.5 13.899.9 6.601.6 6.7.7 7.601-6.3.3-2.4 1.399-3.7 3.6-4.101 2.6-.399 5.3-.5 8-.6 7.4 0 14.7-.7 21.8-2.2 12.101-2.7 14.601-8.9 7.9-19.5-1.4-2.2-3.101-4.3-4.9-6.3-1.7-2-3.899-3.7-5.5-5.8-2.1-2.7-7.3-4.9-4.7-8.7 2.2-3.3 6.9-.9 10.301.1 7 2 13.899 4.5 20.899 6.7 9.301 2.9 10.7 2.3 16.2-6.2C1733.2 466.9 1758.8 485.8 1779.9 510.2zm-722.1-64.4c-19.6.2-36.5 6.2-51.899 17.8-12.5 9.5-24 20.2-35.5 30.801-14 12.899-28.801 24.899-45.7 33.8-17.7 9.2-29.601 23.399-36.9 41.7-1 1.199-.6 3.1-1.8 4.199 4.8 2.4 5.6-2.3 7.4-4.5 7.1-8.8 14.5-17.199 24.3-23.399 10.2-6.5 20.6-12.3 32.2-15.601 8.399-2.399 14.8-7.199 19.5-14.6 3.699-5.9 8.6-11 13.8-15.6 24.399-21.301 51.899-35.7 84.7-38.801 7.899-.699 15.899-1.6 23.8-1.8 5.7-.1 11.399-.3 16.3-3.7C1092.4 446.8 1075.5 445.6 1057.8 445.8zM899.9 720.1c2.699 3 5.6 7.4 7.699-.399 4.5-3.4 9.101-6.7 13.601-10.101 9-6.899 9.8-9.399 6.7-20.5-.4-1.6-.9-3.199-1.5-4.8-5.801-15.899-12.2-31.7-11.4-49.1 0-.9-.5-1.9-.8-2.9-20.9 26.6-25.7 55.8-14.3 87.8zm72.1 77.5c-16.7 21.9-27.3 46.5-32.6 73.5.699 1.4 9.899 4.5 11.699 2.7 2.301-2.2 4.101-5.2 5.9-8 19-30.2 40.2-58.5 67.4-82 1.199-1 2.699-2.1 1-4.899C1010.8 781.3 989.1 787 975.6 793.1c-.699.601-1.5 1.2-2.199 1.801-.001.199-1.101 1.699-1.401 2.699zm192.2-399.5c2.899.8 5.899.8 8.8.6 21.8-1.6 43.5-3.1 65.3-4.6 2.9-.2 6.101.1 7.5-3.6-28.3-9.2-55.4-4.9-81.6 7.6z"/><path id="sd1" fill="#2D2623" d="M1135.8 595.2c-1.7 10.5-3.5 21-5 31.5-3.7 26.8-4.6 53.7-.7 80.5 5.101 34.899 18.9 65.7 44.9 90.2 13 12.199 27.8 20.3 46.3 20.1 13.101-.1 24.9-3.7 35.301-11.6 6.399-4.801 12.699-9.601 19.1-14.4-3.7 23.4-6.8 46.8-9.4 70.3-.399 3.7-1 7.3-3 10.5-13.1 20.101-26.1 40.3-43.699 56.9-9.801 9.3-21.2 14.8-34.5 16.7-5.101.699-10 .6-14.7-1.4-15.2-6.4-31-10.4-47.4-11.5-9.899-.6-22.8-5.4-25.6-14.5-7-22.5-10.4-45.5-11.7-68.8.5-5.5-4.399-12.101-3.5-17.601.9-5.199 5.2-.899 5.7-6.1 7.2-76 17.6-145.3 39.3-210.6 2.298-6.999 4.598-13.999 8.598-20.199zM932.6 940.8c.5 18.3 12.9 36.8 21.9 52.7 1 1.8 3.1 3.7 6 3.5.3-.7 0-4.4.4-5.3 1.199-3.4 2.8-4.7 2.699-6.7-.699-25.9-4.899-51 1.7-76.7 4.4-17.1 13.2-30.2 26.5-41 .5-.399 1-.899 1.5-1.3 24-18.8 59.3-32.4 90.4-37.5 5.5-.9 8-4.3 8.1-9.7.101-2 .2-4 .2-6 .6-56.3 9.3-111.399 24.4-165.6 8.6-30.9 19.699-60.9 34.3-89.4 25.8-50.3 63.6-88.899 111.3-119.2 2.1-1.3 45-18.4 44.5-23.2-21.8 3.3-55.7-2.9-86-4.3 5.6 4.4 5.2 15.299 1 19.2-2.7 2.5-5.6 4.7-8.6 6.8-14.2 10.101-26.7 22.101-39 34.3-22.2 21.801-38.301 47.9-49.4 76.801-15.7 40.699-30.3 81.8-42.2 123.899-7.5 26.3-13.899 52.8-16.899 80.101-1.5 13.5-7.801 25.399-14.2 37.1-2 3.6-5.2 6-8.4 8.4-27.6 21.1-53.699 43.699-75.399 71-3.7 4.699-7.9 9.1-13 12.3-3.4 2.1-14.9 6.5-16.9 1.3C933.9 901.6 932.1 921.1 932.6 940.8zm151.5-2.2c9.5-.6 14-6.199 10.9-15.399-5.8-17.5-9.1-35.4-11-53.7-.8-7.6-1.3-15.2-2.2-22.8 8.9-8.9-5.2-16.4-13.1-15.101-4.601.7-11 4.7-15.3 6.4-27.301 10.9-53.2 22.5-73.301 44-2.1 2.2-3.6 4.7-4.8 7.6-3.399 8.5-.1 22.9 6.7 29 7.8 7 16.9 11.9 26.9 14.9 15.1 4.5 30.5 6.7 46.199 7.1 9.802.4 19.402-1.4 29.002-2zm314.8-76.7c37.9-65.5 81.7-126.8 129.8-185.1 15-18.2 30.899-35.7 48.399-51.6 5.5-4.9 10.9-9.9 19-9.7-7.1-3.3-13 .3-18.8 3.4-22.2 12-44.3 24.2-66.5 36.3-7.399 4-13.6 9.5-19.1 15.8-11.5 13.3-22.601 27-33.2 41.1-7.6 10.101-13.8 21.101-18.7 32.801-9.5 22.399-18.699 44.8-26.899 67.699-6.7 18.801-14.4 37.2-18.9 56.7 1.6-2.4 3.4-4.8 4.9-7.4zm352.2-59.4c1.101-5.4 1-10.7 1.2-15.9.7-17.6 1.601-35.3 6.101-52.5 1.3-4.8 2.6-9.699 4.699-14.199 3.2-6.9 8.601-6.9 12.601-.301 1.399 2.301 2.199 4.801 3.3 7.301 4.9 10.899 9.5 22 14.9 32.699 23.899 47.301 46 95.4 65.899 144.5.601 1.5 1.2 3.101 2 4.601.9 1.7 1.5 4.1 4 3.6 1.9-.4 2.2-2.4 2.5-4 1.601-8.2 3.9-16.2 3.5-24.7-1.2 1.5-.899 4-4.1 5.2-8.8-39.2-22.8-76.6-40.601-112.4-17.8-35.6-37.1-70.3-61.5-101.5-3.8 1.301-3.899 3.5-4.3 5.4-1.399 7.2-2.6 14.4-4 21.6-4.5 22.9-9.399 45.7-9.7 69.101-.1 5-1.3 9.899-3.6 14.399 1.401 5.999 3.101 11.899 7.101 17.099zm-699.3 218.2c.3-7.7-.1-15.3-1-22.9-1.6-13.2.5-25.899 6-38 .7-1.5 1.5-3 2.101-4.5 1-2.7 3.899-12.5 1.1-13.1-1.6-.4-3.3-.4-5-.5-25.1-2.2-49.6-6.2-70.6-22-4.4-3.3-14.601-18.2-15-12.601C969.3 909 965.6 919 966.3 920.9c8.601 24.6 25.3 65.399 41.3 86.399 5.7 7.5 12.2 14.101 20.4 18.9 4.3 2.6 8.9 4.5 13.6 4.6 7.4-.299 9.9-2.799 10.2-10.099zm474.4-164.9c26.3-38.899 55-76.1 81.2-115.1 10.899-16.3 22.6-32.2 36.3-46.4 3.5-3.6 6.899-7.2 12-8.6l10.5-49.8c.2-1 .1-2-1.2-2.601-3.4 1-4.7 4.4-6.7 6.8-29.7 36.801-59.2 73.7-88.899 110.5-4.2 5.301-7.5 10.9-10 17.2-7.7 18.8-15.801 37.4-23.5 56.2-5 12.3-10.801 24.3-14.101 37.3 1.5-1.799 3.1-3.499 4.4-5.499zm-222.6-6.1c1.2-2 4-7.7 5-9.4 24.601-43.399 47.2-85.399 77.5-125.1 9.9-13 20.5-25.3 31.9-37 3.9-3.9 8-7.101 13.9-6.4-3.101-4.1-2.9-8.7-2.101-13.399 1.601-8.5 3.2-17 4.7-25.5.3-1.9 1.1-4.301-.7-5.601-2.5-1.899-4.3.4-6.1 1.8-1.8 1.5-3.4 3.2-5.101 4.801-9.1 8.399-16.199 18.5-24.199 27.8-27.7 32.6-51.7 67.6-70.7 106-6.2 12.6-11.1 25.6-16.6 38.5-1.101 2.7-.601 7.1-5.5 7.1-4.399 14.099-3.799 29.399-1.999 36.399zm-269.1-149.4c-26.8 34.2-56.5 64.101-90.8 90.7-2.2 1.7-4.8 5.1-4.7 7.9.4 9.8 4 19.899 7.3 30 4.2-3 5.101-6.2 6.601-9.101 4.6-8.899 10.199-14.6 16.5-22.399 5-6.301 1.6-6.2 6.8.5 2.1 1 2.8.399 2.2-1.801 1.6-4.399 9.899-10.8 12.6-14.5 14.7-19.699 27.8-40.399 40.9-61.1 4.1-6.5 5.3-14.9 5.399-22.8-.9.801-2 1.601-2.8 2.601zm198.9-309.9c-23.601-2.2-46.4 2.6-69.301 7.2-8.1 3.4-16.1 6.9-22.699 13.3.8.7 1.1 1.1 1.3 1.1 1.3.1 2.7.2 4 0 29.399-3.4 59.6-2.1 89.8.4 11.3.9 22.7 2.1 34 3.2 7.6.6 14 1.1 31.6.7 1.601-.6 4.2.2 4-2.1 0-1.8-15.699-8.3-17.1-9.1-13.3-7.5-28.5-10.9-43.3-15.1-3.9 3.5-8.4.7-12.3.4zm425.5 428.4c13-23.6 24.399-47.899 35.199-72.5 4.4-10 8.7-20.1 15.9-28.6-1.1-9.601-2.2-19.2-4.5-28.601-.4-1.6-.9-3.399-2.7-3.899-2.399-.7-3.7 1.1-4.7 2.8-5.699 9-11.5 17.7-14.399 28.3-8.5 31.2-17.7 62.101-26.5 93.2-1.9 6.7-4.3 13.3-4.9 20.4 2.2-3.7 4.5-7.3 6.6-11.1zM928 745.2c8.3 3.399 13 2.3 18.7-4.3 7.6-2.801 14.1-4.9 18.899-11.301 2.2-2.899 9.601-23.5 9.801-27.3.899-13.3-.4-26-9.101-36.899-11.399-14.4-21.6-29.5-28.7-46.7-2.6-6.3-13.399 3.5-19.6 8.8 1.1 2.4 2.6 4.7 3.4 7.2 3.5 11 9.3 20.6 16.899 29.2 6.4 7.3 11.9 15.199 16.9 23.5 8.2 13.5 6 26.3-6.1 36.3-3.101 2.5-6.2 5.1-9.5 7.3-9.601 6.4-12.7 6-20.9-1.9-3.6-3.5-6.6-7.5-11-10.1-2.5 1-5.1 1.5-7.7.4C905.7 732 915.5 740.1 928 745.2zm55.1-187.4c-9.3.8-18.5 2.4-27.5 4.9-6.699 1.8-10.8 5.5-12.8 12.399-3.2 11.301-5.7 22.601-5 34.4 4.5-3.4 9.101-6.8 13.4-10.3 19.7-16.3 39.8-32.2 62.8-43.8-10.3.801-20.6 1.501-30.9 2.401z"/><path id="l" fill="none" stroke="#000" stroke-miterlimit="10" stroke-width="6" d="M1086.1 828.4c-14.6.4-71.7 24.4-94.2 39.4-35.2 37.2-27.2 79.2-27.2 79.2-.3 15 3 64.3-10 49.3-44-77.7-17-97.3-8.3-158.3 4.8-10.5 31.3-48.7 26.5-42.7-4.801 6-26.301 40-27.5 35.3-1.2-4.699-10.301-26.5-7.2-37 82-62.199 100.5-105.5 97.5-98.5-76.9 97.2-118.7 98-118.7 98-7.8 2.5-34.8 4.101-6.8-7.1 84.6-53.2 62.3-112.7 141.1-190.6-24.7 0-69.899 123.6-73.8 108.199 4.5-21.3-21.5-40.199-34.9-69.8-13.399-29.6.2-58.1 5.5-66.8 5.301-8.7 42.5-9.2 50.7-9.8s28.5-6.6 15.7-11C981 539.5 910 566.3 883.2 583c1.3-28.5 35.399-51.3 46.2-57.3 10.8-6-14.2 15.2 61.699-49.9 75.9-65.1 134.101-7.6 132.101-16.899s-26.7-22.7-26.7-22.7c10-18.7 44.8-24.6 44.8-24.6 88.601-60.7 170.2 5.9 170.2 5.9C1063.2 517.6 1100.7 828 1086.1 828.4zm-114.4 70s3.7 53.1 122 41.1c5-31.2-12.7-65.8-10-95.2 5-14-12-12.899-16.601-11.3M965.5 918.6s27.8 106.4 76.1 112.601c18.7 2.5 9.5-44 9.9-54.8 0 0 7.7-32.4 15.4-35.2m27.7-20.401s12.7 13.3 48.301 15.5c23.1 4.5 24.1 10 29.3 11.2 0 0 28.8 17.8 79-52.5 2.6-7.8 14.3-27.3 14.3-27.3s9.3-60.7 11.8-73.7 25-116.7 49.601-155.3c21.6-21.2 7.899 12.7 8.699 23.5.801 10.8-36.399 163.5-34.199 184.1 2.2 20.601 4.399-32.6 121.399-171.6 12.301-7.2 12.7 4.5 5.101 17.8-7.601 13.3-61.301 135.5-57.7 216.7 92.5-145.7 187.3-289.9 223.8-293 7.601 3.9 1.5 17.6-3.8 25.9-5.3 8.3-66.6 103.899-68.3 219.699C1581.6 787 1636.1 695.5 1655.8 686.3c8.7 18.801-9.3 113.801-6.399 150.4 34.199-49.6 51.699-104.9 59.5-117.1.5-6.4 7 2.3 20 31.5 13 29.199 20.899 50.1 20.899 50.1s9.301-69.3 10-71.6c.7-2.301 9.5-24.801 13.101-12.9 3.6 11.899 90.3 186.4 90.199 194.9-.1 8.5 30.9-149.5-5.8-269.601-13.1-34.8-35.3-106.899-130.2-178.1-54.1-41.8-237.6-128.3-415.5-49.3M937.1 612.3s-46 21.7-43.1 80.2c11.4 57 44.5 68.9 57.2 43.2 3.8 11.2 27-11.3 24.1-48.5"/></g></switch></svg>