<svg xmlns="http://www.w3.org/2000/svg" id="hair" viewBox="0 0 3000 3000"><switch><g><path id="cl1" fill="#7D7D7D" d="M1513.3 382l-9.3 7.301C1383.8 469.7 1276.699 552 1303.3 644.6c-25.3 20-73.3 146-78 168s-78 128.7-92 126c-14-2.699-33.3 2.4-33.3 2.4-45.4-200.1-6.7-238-3-263-62.601 103.301-82.4 83.9-86 213-3.601 129.101 56 172 79 226s19 96 19 96l-67-63c-37-71-104-218-92.5-277C989 782 1031 741 1089 677s63-130 64-125-62 177.5-70.801 98.9c-1-69 17.801-96.9 48.801-123.9-9.301 3.101-46 44-50 125-59 17-152 135-213 236-70 73-28.4 139.301-32 162-28-26-85-113-85-113-24-59 45-157 68-231 32-66 123-186 298-172-231-15-289 174-297 155s-66-105-30-166c29-43 165-89 236-76s127 93 127 93c159.699-187.3 360.3-158 360.3-158zm-666.601 688c81.301 108.7 64 112 64 112l-20 138.7s54.7-86.7 55.301-101.301c.6-14.6-7.9-134-18.7-161.3-30.7-60.7-52-174-52-174C807 939 833.1 1037.1 846.699 1070zM946 1230s99 76 98 145c22-7.699 32.699-37 32.699-50.3-1.301-60-38-86-40-121.301 0 0-10.601-28.3 9.1-49.8-22.898-41.899-101.699-219.101-97-275C953.5 822.7 1084.4 682.7 1091.299 674.7c-4.699-3.6-10.199-22.6-10.199-22.6s-77.5 15.5-210.6 232c2.899 26 34.6 117.5 56.899 174-.099-.1 21.3 69.9 18.601 171.9zm353.6-622.5c-12.399 0-45.6 3.5-121.6 93.5-76 101-99.9 81.5-99.9 81.5 29.101 12.2 86.9-72.399 141.101-126.3 37.099-37.1 80.399-48.7 80.399-48.7zm31.9-74.5c-33.5-1-93 30.5-122 42.5s-65.801 9.4-65.801 9.4M1415.4 452.301c-106.601-11.2-200.7 26.899-200.7 26.899s94.7-37.899 200.7-26.899M1513.3 382S1314 508.801 1305.401 580.101c-5.801 27.301-7.899 50.399 2.601 65.399s68.5 79 123.5 99c51 29.5 239 50 264 64 44.5 1 136 154 145 168.5s74.5-82.3 57.5-265.3c14.5 33.5 30 51.7 30.699 80.3 0 0-7.199 106-33.199 150-3 15.5 2 55 5.5 68.5s-7.4 19.101-7.4 40.101-48.899 214.7-56.899 233.399c-8 18.7 69.301-56.699 69.301-56.699l9.3 121.3 74.7-80.699s47.3 82 58 86.699c-2-68 25.3-146 54.699-197.3 0 0 146.301-180.3 87.301-256.3C2163 834 2123 815 2113 775l-33-63 12.5 14s2-85 2-97.5 1.5-88-59.5-131.5-166 3.5-184 12l-22 1.5S1710.199 378 1513.3 382zm331.5 596c-14.899-85.199-70-159.3-142-219.199C1544.1 626.801 1312.4 559 1312.4 559s541.1 184.1 532.4 419zm.7-6.6s-1-2.7 7.1-36.7c56-230.7-147.301-343.3-240-358.7-146.699-25.3-235-92.3-235-92.3C1800 780 1845.5 971.4 1845.5 971.4zm39.8-307.4c-109.3-212.699-433.601-239.5-433.601-239.5M1827 508.301s75.699 157.699 71 203.3c0 0 48.699-131.699-47-202.699l-24-.601zM2080 712c-65.301-86-172.4-109.5-172.4-109.5m2.4 45.5s141.398 82.9 140.1 204.601c-.199 14.2 1.801 28.899-2.8 44-52 93.301-145.8 339.801-141.3 330.7C2228 725 1910 648 1910 648zm-9 372.801c139-300.2 0-318.7 0-318.7 137.699 42.599 0 318.7 0 318.7zM2049 890.6s-1.301 18-3 26.101c-86.7 302.699-56 351.3-56 351.3"/><path id="fl" fill="#AC8039" d="M1152 537.301s4.699 22-6 53.3c-49 87.301-56.7 80-56.7 80-12-120 45.3-144.699 45.3-144.699l17.4 11.399zm677.3-18.601s62.7 114.7 67.3 186c22-44 13.301-75.3 10.7-99.3s-47.7-86.301-52-91.301-26 4.601-26 4.601z"/><path id="sd1" fill="#5A5656" d="M1134.699 524S1124 530 1106 558c-37.301 84.7-8.7 129.301-8.7 129.301 6.7 56.699 44 47.3 49.3 45.3 5.301-2 11.4-4.601 45.4-46.601s82-77.399 82-77.399c-.7-20.101 15.3-49.3 15.3-49.3S1252 566 1226 580.6c-66.7 28-84 18-84 18s4.699-15.3 8-14c3.3 1.301 32.699-4 52-10 16.699-.699 83.3-34.699 92-39.3 8.699-4.601 12.699-6 19.3-13.301 6.601-7.3 25.3-34 49.3-55.3-70.699 2-159.3 32-159.3 32s25.3-24 36-30.7c30-12.699 134-19.3 148.7-20 8-8.699 83.3-61.3 94-62.699 10.699-1.4 64 0 56 0s-49.7 19.199-31.301 29.3c56 5.3 288 119.3 212.699 90-193.3-80-305.3-49.3-305.3-49.3s-36.301 28.3-34 32c80 52 150 65.3 213.3 82.699 126.7 26 216.7 117.301 169.301 82.7s-108-54.7-182-65.3c-132.699-16.7-216-81.301-221.301-78.7-5.3 2.601-42 43.3-40.8 55.3 9.199 11.301 39.8 54.801 192.199 83.301-73.3-1.301-117.3-1.301-192.199-52.7 1.199 8 1.5 29.301 38.199 68.7 22 20 101.301 74 199.301 79.3 82.699 3.301 160 48 194.699 68.7 47.301 25.3 92 101.3 92.7 108 .699 6.699 2.699 74.699-6 51.3-9.5-18.899-74-124-112.7-148.699-21.3-16-143.3-46-249.699-61.2s-170.5-116.3-170.5-116.3c-11.5 1.5-42.5 60.199-42.5 60.199-8 19.7-42 96.301-44 121.301s-81 122-84.7 112.699c-3.699-9.3-33.398 2.4-33.398-3.6s-19-133-19-147 6.699-101 6.699-101S1064 734 1042 761s-24 45-31 82c-8 51 1 128 11 156s64 104 69 122c26 76 18 92 18 92l-64-63c-22-36-106-204-92-272.3C976 787 1072 698 1064 688c-51 38-81 85-105 106s-78 129-78 129 38 102 48 139c19 69 18 159 18 159l-55 89s24-125 20-137-24-49-71-111c-6-16-15-97 3-138s125-178 162.6-219.3c37.6-41.3 56.4-51.7 56.4-51.7-11-49 24.699-120.1 24.699-120.1L1079 531c-133 8-211 88-259 158 1-17-24-60-27-66 134-127 301-142 301-142l40.699 43zm716-10s8.699 8.7 26 26.7 24.699 41.3 28.699 72.7c4 31.399 2.7 62 .7 76.699-2 14.7-12 23.301-8 31.301s5.3 6.699 16.699 31.3c11.4 24.601 12.7 48.7 12.7 61.3 0 12.601-20.7 102-28 130.7-7.301 28.7 2.699 62 2.699 62l9.301-8.601C1922.699 971.4 1972.9 838 1961.6 772c-2.699-23.3-24-53.3-24-53.3l4-20.7c52.699 32 78 102 84 144.7s.699 92 .699 92l-123.3 288.7L1914 1352s80.699-82 76.3-96c-11.7-54 12.3-161.3 19.7-178.699 7.399-17.399 36.699-174.7 39.3-180.7s4.7-58.699-1.3-94.699-46-78-106.7-136c3.3-3.301 1.899-49.7-3.3-50 36 0 106.699 48.699 149.3 100-6-15.301-30-80.7-93.3-107.4-63.301-26.699-100.7-113.899-100.7-113.899L1850.699 514z"/><path id="hl1" fill="#BBB" d="M1037.3 478c-4.7 7.301-75.3 30.7-112.7 45.301-37.399 14.601 6-15.301 13.301-21 7.3-5.7-3.301-3-6.7 0s-60.699 24.3-60.699 24.3l32-27.3s-24.7 8.699-43.301 13.199c-6-12.8 52.7-34.6 52.7-34.6C931.3 477.301 1028 460 1037.3 478zm-98 122.7s-65.3 44-69.3 70c12 0 40.699-18 40.699-18s-66 70-66 76.7c0 6.699 43.301-28 43.301-28s-55.301 78-55.301 87.3S864 758 864 758s-40 76.7-40 101.301c28-25.301 85.3-82 90-85.301 0 0 78-80.699 74.699-90.699C985.4 673.301 914 728.7 914 730c0 1.301-23.301 16.7 8.699-17.3s56-70.7 56.7-76c.699-5.3-15.399 5.3-21.399 8.601-6 3.3-29.301 18-29.301 18S967.4 630 974 628.6c6.6-1.399 41.3-28 43.3-43.3 2-15.301-80.7 22.699-86 27.3s8-11.9 8-11.9zm337.7-124s-35 22.3-46.7 30.3-44 27.7-39.7 30.7c4.301 3 25 3 25 3s12.301 2.7-17.699 27.7c-9.7 7 3.8 8.199 7.699 7.699 3.9-.5-25.3 21-24.699 26.301.601 5.3 10.3 2.699 10.3 2.699s-3 7.7-10.3 15c-7.301 7.301-25 21-24 25s19.3-.3 19 2.7c3.699 3-1 14.3-5.301 22-4.3 7.699-9 17.699 13.7 11.3s82.7-42 82.7-42-38.7 2.301-48.7 0c-10-2.3-.3-14 9.7-19.3 10-5.301 25.3-19.7 27-22.7-21-1.699-22.4-8.601-21.301-17.199 4.301-10.2 23.699-40.5 25.301-42.5 1.6-2-18 2.3-10.301-6.7s55-44.3 57.699-48.3c2.701-4 .602-11.099-29.398-5.7zm428 29c-5 6-55.301-17-50.7-16s31.7 17.7 35.3 32.7c3.601 15-31.699.3-51.3-.7s-16 4.3-5.7 14.7c10.301 10.399 26.7 25.3 13.7 24-12.3 7.699-65-6.7-60-3.7s36.3 26.7 30 32-50.3 9.7-65.7 9.7c-15.399 0-12.3 8-6 10.3 6.301 2.3 36.301 20.101 32 24.399-4.3 4.3-65 2.301-64.3 3.301s15.3 8.699 15.3 8.699l-6.3-.699s-32 1.3-39.3 1c-7.301-.301-32 5.3-35 5.3s59.699 6.3 53 7c-16.7 4-60.301 4.3-63.7 16-.3 3.3 70 14.3 97 16s69.7 15.7 59 7.899c-10.7-7.8-1.7-5.5 1.7-5.199 3.399.3 27.3 7.699 30.3 4.3s-15-16-10.3-16.3c4.699-.301 61.3 14.699 58.3 8-3-6.7-46.3-28.301-30.8-27.7s16.8-.7 4.5-12.7c-12.301-12 4-10.699 10.3-11.699S1714 644 1714 644s-14.301-6.3-32.7-26.3-.7-17 8.3-19 53.301 19 53.301 19-15.7-10.3-20.301-18c-4.6-7.7 16.7-3.3 36.7 7.3 20 10.601 37.7 11 24.7 1.601s-31.301-29.3-31.7-34.601c-.399-5.3 20.3 8.301 31 11.301s13.3 0 13.3 0-12-12.301-11.3-13.7 21.7 2.7 21.7 2.7.3-10.301-6-15c-6.301-4.7-62.301-35.301-76.7-55.7s-68-49.699-68-49.699c9.399-.202 53.7 45.798 48.7 51.798zm329.8 127.101c1.3-6.301-25.3-44-20.3-36.301 5 7.7 35 36.801 35.6 22.5.601-14.3-14.3-31-14.3-31s3.3 3.301 6 0c6.3-18.3-18.8-41.8-18-43.8s27.8 5.8 26.3 2.3c-2.5-9-21.5-15.1-39.5-25-17.8-11.8-57.5-13-62-8.899C1944.1 516.7 1918 533 1918 533c12.3 23.5 88 81.301 116.8 99.801zm53.7 247.699l-5 3.801s-10.301 110.3-13 119.8c-2.7 9.5 23.8-24.3 26-24.5 2.199-.199 3.5 3.5 0 15.801-3.5 12.3-14.301 40.5-12 40.8 2.3.3 26.3-19.8 31.8-25s30.3-20.5 21.8 7.3c-9 32.5-41.5 81 16.301 2.801 17.399-18.5 26.5-22 26.5-22s-22.801-29.5-25-49c-2.301 17.5-9 28-14 32.301-5 4.3-15.301 9.5-11.301-31 3.801-20 4.801-20.301 4.801-20.301s-12.801 18.801-17 17.801c-4.2-1-7.301-14-7.301-22.301s-2.3 10.801-8.8 16.801c-6.5 7.697-4-45.604-13.8-63.104z"/><path id="l" fill="none" stroke="#000" stroke-miterlimit="10" stroke-width="6" d="M1081.1 650.5c-1-69 15.9-96.5 46.9-123.5-9.801 1.301-43 44-47 125-59 17-152 135-213 236-70 73-28.4 139.301-32 162-28-26-85-113-85-113-24-59 45-157 68-231 32-66 123-186 298-172-231-15-289 174-297 155s-66-105-30-166c29-43 165-89 236-76s127 93 127 93c159.699-187.3 360.3-158 360.3-158l-9.3 7.301C1383.8 469.7 1276.699 552 1303.3 644.6c-25.3 20-73.3 146-78 168s-78 128.7-92 126c-14-2.699-33.3 2.4-33.3 2.4-45.4-200.1-6.7-238-3-263-62.601 103.301-82.4 83.9-86 213-3.601 129.101 56 172 79 226s19 96 19 96l-67-63c-37-71-104-218-92.5-277C989 782 1031 741 1089 677s63-142 64-137m-306.301 530c81.301 108.7 64 112 64 112l-20 138.7s54.7-86.7 55.301-101.301c.6-14.6-7.9-134-18.7-161.3-30.7-60.7-52-174-52-174C807 939 833.1 1037.1 846.699 1070zM946 1230s99 76 98 145c22-7.699 32.699-37 32.699-50.3-1.301-60-38-86-40-121.301 0 0-10.601-28.3 9.1-49.8-22.898-41.899-101.699-219.101-97-275C953.5 822.7 1084.4 682.7 1091.299 674.7c-4.699-3.6-10.199-22.6-10.199-22.6s-77.5 15.5-210.6 232c2.899 26 34.6 117.5 56.899 174-.099-.1 21.3 69.9 18.601 171.9zm353.6-622.5c-12.399 0-45.6 3.5-121.6 93.5-76 101-99.9 81.5-99.9 81.5M1331.5 533c-33.5-1-93 30.5-122 42.5s-65.801 9.4-65.801 9.4M1415.4 452.301c-106.601-11.2-200.7 26.899-200.7 26.899m298.6-97.2S1314 508.801 1305.401 580.101c-5.801 27.301-7.899 50.399 2.601 65.399s68.5 79 123.5 99c51 29.5 239 50 264 64 44.5 1 136 154 145 168.5s74.5-82.3 57.5-265.3c14.5 33.5 30 51.7 30.699 80.3 0 0-7.199 106-33.199 150-3 15.5 2 55 5.5 68.5s-7.4 19.101-7.4 40.101-48.899 214.7-56.899 233.399c-8 18.7 69.301-56.699 69.301-56.699l9.3 121.3 74.7-80.699s47.3 82 58 86.699c-2-68 25.3-146 54.699-197.3 0 0 146.301-180.3 87.301-256.3C2163 834 2123 815 2113 775l-33-63 12.5 14s2-85 2-97.5 1.5-88-59.5-131.5-166 3.5-184 12l-22 1.5S1710.199 378 1513.3 382zm331.5 596C1866 818.7 1720 677.301 1520 643.301 1386 646 1312.4 559 1312.4 559m533.1 412.4s-1-2.7 7.1-36.7c56-230.7-147.301-343.3-240-358.7-146.699-25.3-235-92.3-235-92.3M1885.3 664c-109.3-212.699-433.601-239.5-433.601-239.5M1827 508.301s79.199 171.699 71 203.3c0 0 48.699-131.699-47-202.699l-24-.601zM2080 712c-65.301-86-172.4-109.5-172.4-109.5m-1.6 624.801c4-9.301 89.3-237.3 141.3-330.7C2091.3 751.301 1910 648 1910 648m-9 372.801c139-300.2 0-318.7 0-318.7M2049 890.6s-1.301 18-3 26.101c-86.7 302.699-56 351.3-56 351.3"/></g></switch></svg>