<svg xmlns="http://www.w3.org/2000/svg" id="hair" viewBox="0 0 3000 3000"><switch><g><path id="cl1" fill="#B97838" d="M1508 399c277-10 311 126 327 161 87 143 56 320 51 356s-51 125-50 111 18-261 18-261-46 175-41 127c-21-118-65-151-65-151l-10-190 5 183-40 178-28-325 14 162-80 249-76-239-7-10-20 161-32-222c-1 5-107 262-157 311-19-193 65-368 70-418-8 27-75 226-72 336 0 66-18 320-18 320s-35.598-45.828-57-108c-73-256 40-532 15-484-72 283-20 472-20 472l-27 40s-65-205-73-222-53 8-53 8-32-100-33-84c-79 191-131 251-124 233s-6-75-15-101-20-87-16-101-3-11-3-11-53 51-48 50 23-96 23-156 9-109 15-123 6-18 6-18l-31 6s95-85 116-93 46-9 103 14c42 103-27 325-15 289s45-189 23.611-288.862C1287.6 348.649 1488.59 396.646 1488.59 396.646l61.497 32.998c.001 0-58.651-27.664-42.087-30.644zm303.342 111.562C1964 767 1867.305 971.574 1863.248 980.654S1896 1155 1896.078 1139s17.422-209 17.422-209 60.5 44.5 49.5 33c-24.5-45-10-136-10-144s5.5-51 7-28 13.155 23.984 13.155 23.984S1973 858 1973 785s7-188-73-277c-36-40-81 0-81 0l-7.658 2.562z"/><path id="sd1" fill="#94602D" d="M891 617l54-22s-55 64-80 133c-2-41 17-96 22-95s-33 10-33 10l17-20 20-6zm54 81s-21 50-27 81-42 96-50 117 31.5-21 31.5-21l-3.5 26.88s28-29.213 49-203.88zm-14.334 388.667C989.999 1018 1033.999 868 1053.999 853.333c0 2.667 28.667 96 34.667 87.333s50.667-13.333 50.667-3.333c36.667 141.333 74.667 225.333 74 220.667s18.258-34.948 20-52c-18-97.333-19.333-193.333-18-214.667S1244 688.667 1244 688.667L1169.333 948 1132 906l19.333-24L1128 871.334l18-56.35-19.333-4.984-3.333-56 50-53.333-58-16.667 67.333-44.667-62.667-26 55.333-126-14 10c-26 14.667-38.248 39.854-82.667 73.333-60.667-7.333-110.667 16-88.667 14s54.958 6.613 65.333 18c-60 40.667-80 94.667-79.333 90.667s75.333-52.667 75.333-52.667-52.667 86-44.667 71.333 74-47.333 74-47.333v66s-8.667-58-7.333-27.333C988.667 982 921.833 1018.674 922 1020.667c8.666 35.333.666 59.333 8.666 66zM1384 585l-108 295 16-8s-15 269 6 318c7-62 15-195 15-195s37-12 164-308c2-20 23 167 23 167l-15-225-167 313s-3.533-72.12 10.733-142.06S1384 585 1384 585zm228 413l-63-361-21 110 84 251zm63.604-403s-21.957 270-30.779 292.5c-8.823 22.5 43.421-146.25 43.421-146.25L1675.604 595zM1735 560l7.809 168s73.945 113.131 69.568 161.565C1811.724 900.987 1827 859 1827 859s-6-192-92-299zm101 462s0 5 18.667-31.333 10-278.667 10-278.667l-10 46.667L1836 1022zm-25.999-510s58.666 101.333 71.333 152 23.333 191.333-14.658 309.017l2.658 24.983s24-22.667 48-173.334c.666-46-7.335-116-8.668-124.666L1924 712l-36-75 36 10.333S1831.336 514 1810.001 512zM1508 399s-4.667 8.333 7.333 9 47.334 28 66 46.667c5.333-3.333 7.334-53.333 7.334-53.333L1508 399z"/><path id="hl1" fill="#CE9147" d="M962.666 767.332c4-7.333 11.333-22.667 11.333-16s-3.8 46.741 4 43.168c19.839-18.931 19.333-30.501 16.667-6.501s-16 28-1.333 21.333c28.667-16 40-36.667 40-32.667s-4 46-30.667 92.667-12.667 10-1.333-21.333-2.667-16-2.667-16-54 58-46 42.667c16.667-52 10.667-66.667 10.667-66.667S930 843.332 930 839.999s28.667-94 28.667-94-.001 28.667 3.999 21.333zm332.667-94.667s-3.333-52-23.333-4-18.667 88.667-16.667 94 29.333-46.667 29.333-46.667l-2 30.001 8.667-20.667 4 34.667s12-37.333 22-48.667 29.333-58 28.667-70.667-41.052 45.333-45.859 54.667c-4.807 9.334 6.526-32 6.526-32l-11.334 9.333zm-56.668 225.334s-20.667 44-12 102c1.356 7.862 20.667-20.667 20.667-20.667s5.861 41.333 6.931 48.667c1.07 7.334 11.069-19.333 11.069-19.333s10.667 80.667 12 84.667 14-62.667 0-135.333c-6-12.667-13.333 12.667-14 18.667s-8.667-44-14.667-48.667-1.333 8-1.333 8-4-35.334-8.667-38.001zM1235 484.667s-10 2-9.667 4.333S1208 535.333 1208 535.333s19.333-7.667 39.333-29.333c7-6.667 14-5 9.667 4s-14.666 31.667-13.333 35.667 17-3.667 25-12 11.333-9 8.667 2S1268 573 1284 563.333s26.333-17.334 28-1.667 10.333 13.854 26 3.76 16.667 6.016 19.333 7.794c2.666 1.779 29.334-18.553 31.667-20.22s8.333 6.667 21-4.667c10.333-6.667 9.333-12 3-11s-17 1-17 7.667c-3.333-3.333-9-5-14.667.667 0 0-4 3.167-4.667-4.167.333-3-10.167 3.5-12 4.167-6.333.833-9-8.167-13.333-9.667s-19.167 3.5-21.333 4.833c0 0-6.333-2.169-7.833-11.834.333-4.332-12.5 1.335-15.5 3.168s-3.833-6.833-4.333-11.833-6.834-6.667-13.167-3.667-3.5-5.5-3.167-9.833 1-10-10.833-5.833-11.5 2.5-7-7.333 8.5-18.166-3.167-13.333-26.167 10.333-26.167 10.333S1237 485 1236 484.833l-1-.166zm284.667 73c-.457 1.295-6.001-44.333-13.667-20-7.667 24.333-5.333 50.333-3.333 54.333-.667 15.333 22-18 39-22.333 10.333-3.333 12.334.333 17.667 8s10.999 32 31.666 3.333c15.667-20.333 26.334-12.004 28.667-7.669s13.667 21.335 24.333-7.998c5.667-18.333 15.666-11.667 20-9.667s24.334 19.667 29-10c3-16.333 17.001-20.667 29.667-12.333s27.332 22.25 12.666-7.208c-2.115-4.437 14.001 8.874 15.001 9.541s9.334 3 8-6.667 7.666 4 7.666 4 3.334-8.333 3.334-10.667 11.667 10.667 14 13 10 3.667-5.667-25.333c-8.333-7.333-11.333 0-11.333 0s-11.668-9.667-13.334-.667c2.667 29.333-15.666-18-24-1.667-2 9.333-16.48-54.225-21-15.667-1.047 9.662 0 29.333 0 29.333s-12.666-14.667-19.666-11.667.999 11 2.666 13.667-21.748-12.4-22.666 11c-7.667-7-19.667-23.667-15.667 5.333-2.334 1-21.666-20.667-26-9.333 0 0-3 29.667-10 30-9.177 7.87-34.667-51.667-39.667-59.667S1564.333 470 1560 514c-2.119 25.602-1.667 41.667-1.667 41.667s-19.332-25.533-25.666-17.933c-6.334-1.734-7 11.599-13 19.933zm372.333-25s-19.334-9.333-22.334-2.333-1.332 5.467-5.666 7.4c-4.334 1.933 6 22.933 14 29.266s29.667 31.667 34 35.333-1.668-32.27-3.334-37.302S1924 582 1928.333 582.333s-2.334-11-2.667-14 11 12 1.667-10-49-51-55-50.333S1892 532.667 1892 532.667z"/><path id="l" fill="none" stroke="#000" stroke-miterlimit="10" stroke-width="6" d="M1508 399c277-10 311 126 327 161 87 143 56 320 51 356s-51 125-50 111 18-261 18-261-46 175-41 127c-21-118-65-151-65-151l-10-190 5 183-40 178-28-325 14 162-80 249-76-239-7-10-20 161-32-222c-1 5-107 262-157 311-19-193 65-368 70-418-8 27-75 226-72 336 0 66-18 320-18 320s-35.598-45.828-57-108c-73-256 40-532 15-484-72 283-20 472-20 472l-27 40s-65-205-73-222-53 8-53 8-32-100-33-84c-79 191-131 251-124 233s-6-75-15-101-20-87-16-101-3-11-3-11-53 51-48 50 23-96 23-156 9-109 15-123 6-18 6-18l-31 6s95-85 116-93 46-9 103 14c42 103-35.104 331.271-23.104 295.271S1105 660 1083.611 560.138C1287.6 348.649 1488.59 396.646 1488.59 396.646l61.497 32.998c.001 0-58.651-27.664-42.087-30.644zm303.342 111.562C1964 767 1867.305 971.574 1863.248 980.654S1896 1155 1896.078 1139s17.422-209 17.422-209 60.5 44.5 49.5 33c-24.5-45-10-136-10-144s5.5-51 7-28 13.155 23.984 13.155 23.984S1973 858 1973 785s7-188-73-277c-36-40-81 0-81 0l-7.658 2.562z"/></g></switch></svg>