<svg xmlns="http://www.w3.org/2000/svg" id="hair" viewBox="0 0 3000 3000"><switch><g><path id="cl1" fill="#EDE47C" d="M1760 453l50 51c104 154 96.668 334.663 96.668 334.663-44 108.667-80 136-71.334 118.667s-6-80.667-6-80.667l-26-140 22.666 128s-24.666 144-24.666 114.667c-51.334-150-90.662-194-90.662-194l-90.672-178s71.334 136.308 84 172c6 36.667 9.334 180.667 4 145.333-5.332-35.334-75.416-126.667-75.416-126.667l-109.25-182 104 180s7.334 69.333 4.666 111.333c-18.666-12-96-164.667-108-179.333s-40.666-63.333-42-46c-23.332 162.667-62 192-91.332 233.334-136.668 142.667-139.334 122.667-138.668 120s17.213-68.16 22-66c4.789 2.161 141.334-330 141.334-326s-82 200-87.334 218.667c-5.332 18.667-52 100.001-52 100.001-36 30.667-66.666 4.667-81.332-3.333s-66-22-73.334-24c-7.332-2-41.268 6.589-48.666 18.667-34 24-16 102 8.666 134.666 13.334 196.667-3.332 374.667-4 362.667-.666-12-22-69.333-23.332-68-1.334 1.333-29.334-193.333-29.334-193.333s13.334 150.667 27.334 208.667c-26 97.333 6 244.667 6 244.667-22-26.667-100-183.998-100.668-211.332-.666-27.334 5.754-46.686 10.668-53.333-16 18-15.334 44-25.334 140-12.666-17.334-27.332-113.333-32.666-142.667s8-183.333 8-183.333l44-178-45.334 170s-8.666 0-29.332 33.333c-6.668-54-10-213.333 75.998-308.666 14.668-18.667 62.5-45.333 62.5-45.333L992 890.668c36-6 91.125 52.707 91.125 52.707l9.541-6.707c-34.666-64-70-73.334-75.052-84.043 7.5-196.489 44.998-236.987 130.494-346.482 85.495-109.495 182.99-97.495 182.99-97.495C1558.198 276.292 1760 453 1760 453zm88 511c72-54 85.666-108 85.666-108l-26.998-17.336C1901 878 1870.67 914.692 1848 964zm-6 12c-6 12-18 63-17 70s49 96 64.5 153c42.5 151 11.5 333 11.5 333 72-70 71-376 71-376l-27-89s54 146 62 161c95-257-70-370-70-370-48 85-89 106-95 118zm-36 233c-3 1-29 39-31 42s9 69-24 169c25-8 54-118 59-211h-4zm-598-52c16 54 36 194 106 242-14-28-45-176-45-176l-57-66m-62.657-214.365s131.991-32.636 174.927-84.636c0 .001-36.77 46.501-174.927 84.636zm-76.701-37.447s138.024-42.521 296.024-282.521c0 .001-135.166 215.833-296.024 282.521zM1224 596c-164.668 155.334-176.636 281.551-176.636 281.551C1089 696 1224 596 1224 596zm115.332-124.666L1280 471l60 1.334L1374 431"/><path id="sd1" fill="#DFBF5C" d="M998.916 885.084l27.834-21.334-7.334-6.666c-1.082-27.25-6.5-65.5 25.5-181 11.5 91 59.5 65 59.5 65s112.5-147.5 118-149.5 16.5-16 13.5 0c-49.5 104.5-116 149-122 176.5-9.5 66.5 68 66 68 66s46.5-38 50.5-45c6-2 149.668-181.834 145.334-173.834 19.666 31.334-62.334 149.668-147.834 214.834-27.5 38.5-4 80 15.5 76.5s81.5-47 81.5-47-41 89-50.498 101.997c-17.502 15.003-43.273 17.314-53.773 11.814-41-20.5-63.229-27.813-86.729-36.608s-51.5 3.797-51.5 3.797 7 2.5-2.5 3-27 20-28 50c-9.5 48.5 26.5 92.172 26.5 92.172s1 52.328 0 76.828c-13-10.5-12.5-43.5-14-71.5s-14.5-4.5-14.5-4.5l-10.5-42-15 70v-31.5l-16 19.5 8-123s-45 63-42.5 58.5 10.5-96 6.5-101-67 55-67 55c24.5-76 83.5-107 83.5-107zm206-394.5c3.5-2.5 100-11 93.5-6-19.5 27.5-59 59.5-51 59s81-48.5 89-40.5c33.5 56 33 87 35.5 76.5s11.5-78 13.5-71.5 71.5 34.5 71.5 34.5c-2.5-8-6-27.5-37-54.5 25-17.5 91.5-20.5 91.5-20.5-9-12.5-50-18-78-18 32.5-18 78-20.25 78-20.25-41.5-31.251-126.5 9.25-126.5 9.25s15.5-21.001 26-27.001c-13 0-69 35.501-69 35.501-72.5 4-140.5 46-137 43.5zm270.5 116s-4 200.5-215.5 416l-7 19s38.5-19 75-56.5 101-122.5 106-133 26.5-38 49-166.5c1.5-16 0-6.373 0-6.373s10-7.127-7.5-72.627zm59.5 32.5s67 150 68.5 158 9.5 86.5 9.5 86.5l16 22s8-21-5.5-115.5c-5-17-86.086-151-86.086-151h-2.414zm119.5 42l-4 33s38.5 93.5 38.5 110 2 50.5 2 58 17.502 42.162 17.502 42.162 10.498 12.838-5.502-148.162c-2-17.5-48.5-95-48.5-95zm146 59.5s7 152-9 213.5l10.334 24.829 23.666-105.829 13.5 57v23.5s6 4 20.5-16c2-5 0 18.25 0 18.25l-7.5 9.25-15.5 41.5-4 35s34 75 40 95 10.5-133.5 11-138.5 27 41 27 41 10.5-15.5 12.5-53 25.5 18.5 25.5 18.5 6-38 6-48.75 5.5-34.25 6-37.75 49 46 54 58.5-1.03-15.203-9.766-37.103c-8.734-21.899-56.734-72.897-63.234-79.897s-11.5-8.5-11.5-8.5l-26.094-16s4.906-20.5 0-43-6.406-7-6.406-7-4 56-56.5 133.5c0 0-37-174.5-40.5-178zm145 328s-10-11.5-6 15.5 17.5 163.5 23 190 13-103 11.5-120-28.5-85.5-28.5-85.5zm-140 148l-30 34 3 27.062s26.5-26.062 28.5-38.062-1.5-23-1.5-23zm-595.297-54l23.797 84.53 48 32.97-11.5-56-60.297-61.5zm-319.035 49c4.666-13.334 29.332-34 29.332-34l8.668-54.668-44.364 39.668s1.696 62.334 6.364 49zm132.666-20s-8.666-1.834-11.334 29.75c-2.666 31.582 0 144.916 5.668 164.916 5.666 20 20.332 59.334 22.332 62.668 2 3.332 16-56.668 16-56.668l-32.666-200.666zm-52 177.334s-14 50-14 52-6.668 22.666 29.332 83.998c-7.332-77.332-8.666-131.998-8.666-131.998l-6.666-4z"/><path id="fl" fill="#493406" d="M998.332 884l30-19.332s40 30.332 64.334 72c-1-4.668-7.814 7.036-7.814 7.036S1041 899.668 1000 886.334L998.332 884zm908.336-45.336S1890 900.5 1851 956.25c20-.75 81-91 81.25-98.25s-25.582-19.336-25.582-19.336z"/><path id="hl1" fill="#FBF9B7" d="M1184.332 549.668c11.334-3.668 9 13 0 24.666-9 11.668-33.666 37-26.332 32s54.332-18.332 44.666-9.666C1173.332 630 1178 627.334 1201.332 621c23.334-6.332 21-.666-4.666 21-25.668 21.668 5 16.334 16.332 15 11.334-1.332 18.334-7 5.668 13s-6.666 26-.666 20.5c10-1 41.5-15.5 40-6-9 7-18 25.5-13 22 10.5-1 41.5-15.5 39.5-5-25 26-27.5 39-19 35 12 1 40.5-15 45.5-2.5-28 41-15.5 37.5-15.5 37.5 3.5 5 29-9.5 28-7s-29.5 32-26 31.5c22.5.5 60-26 60-26v7.5s-8 18.5-17 36c-61.5 59.5-63.5 48-56 43.5s21-24.5 0-13.5-21.5 3.5-11-10.5 5-15 5-15-52 10-44 5 34.5-36.5 33.5-41.5-44 14.5-50 16.5-36 18-35 16 26-28.5 42-40.5 7.5-15.5-6.5-9-57 21-56 18.5 26.5-30.5 36.513-38 4.987-16-4.513-10c-48.5 22.5-59.5 21-57.5 19.5s33-35.5 40.5-38.325c7.5-2.826 22-23.175 21.5-24.175s-69.5 29-76.5 23.5c0-3-.5-3-.5-3s23.5-32 18.5-35-56 32-45.5 19.5 33.5-49 31.5-49.5-33 16.5-63.5 43.5c3.5-35.5 83-133.5 83-133.5s27-4.166 38.332-7.832zM1381.75 752.25s-6 36-46.75 123.25c-1.178 4.334 4 4.25 13.25-9s13.25-15.75 14.5-16.25 10.75-8.75 6.25 7.25-5.5 26.5 14 9.25 32-34.25 33.5-38.25-10 24-10.5 27.5-3 16.25 9.25-7.25 26.75-68.75 24-92.75c-3.25-10.25-14.25 21-18 28.25s-7.25 12.25-2.25-11.5-7.25-9.5-12-2.25-12.5 20.5-12.5 20.5-8.75 14.75-.25-12.75.5-21-2.75-13-12.25 23.25-9 7.5 2.25-23.75-.75-20.5zM1586 583l5.332 81.334s14.002 46.666 33.334 59c-9.334-27-8.668-49.334-6.334-52 2.334-2.668 16.668 20.332 20.334 26.332s11.666 15.334 13.666 16.668 3.666-12.668 4-22.334 5.666-22 9-14 19.666 36 23 38.334c3.334 2.332 6-6.334 9-20.668s12.334-18.332 19-8.332c6.668 10 19.334 32 22.668 32.332 3.332.334 1.666-14 2.666-22s6.666-31.666 21.666-19c15 12.668 50.668 61 53.334 65s-1.334-58.332-24.666-106c-5-13 34 63.668 47 69.668l2.666 6.666s12-17-6.334-84.332c-5.666-17.668 26 37.666 29.668 41 3.666 3.332-25.334-116-85.668-144-2.429.576 20.334 75.666 20.334 79.332 0 0-28-33.332-34.666-27.666-6.668 5.666 13.666 38.666 12.332 50.332-1.332 11.668-29.666-35-39-31.666-9.332 3.332 4.334 31.666 2.668 36.332-1.668 4.666-35.666-31.666-49.334-40-13.666-8.332-10 11.668-8.666 21 1.332 9.334 7.998 31.668-13.668 4.668s-39.666-25.668-39.332-16c.332 9.666 1.332 20 1.332 20s-14.998-35.668-17.666-28.668c-2.666 7 3 34.334 2.334 39-.668 4.668-30-50.332-30-50.332zm280.334 429.668l13.334 32.332-13.334-12.666s33.666 59 36 101S1915 1055 1915 1052.666c0-2.332 10 22.558 10.334 24.778.334 2.22.668-37.444 9.334-37.11 8.666.332 17.334 17.666 22 23 4.666 5.332 8.666-31.334 10.666-29.334s9 12.668 12.334 22c3.332 9.334 19.998 33.334 19.666-2-.334-35.332 2-24 5.334-12.332 3.332 11.666 25 80.334 13.332 15.666-11.666-64.666-59.666-120.666-72.666-121 24 34.334 24.334 84 23.334 93s-26-47.334-41-48.666c-15-1.334-2 30.666-2 35 0 4.332-20-16.334-24-19.668s-2.002 6 1.666 17.668c3.666 11.666 4.334 22.224 2.666 25.611-1.666 3.389-6.666 4.056-28.666-22.277-6.666-7.667 2.666 15 2.666 15l-13.666-19.334zm-952.334 39S892.334 1152 892.334 1153 920 1124.668 927 1124.668 937.334 1186 937 1194c-.332 8 15-15.666 15.668-13.666.666 2 12.332-1 8 58.666 1.666 14 17-32 23-44.666 6-12.668 14.666-19 13.332 8-1.332 27-4 68.332 17.334 4.666 20.545-35.272 23.666-24 23.666-24s12 34.334 12 35.668 7.334-30 13-38.668c5.668-8.666 12.668 11.668 12.668 11.668s-9.334-89.334-9.334-95.668-5-32-14.666-5.332c-9.668 26.666-24.668 48.666-24.668 48.666s.334-39.666.668-43.332c.332-3.666 5.332-22.668-12.668-1.334-8.334 10.423-16.332 25-16.332 25s-8.668-2.332-.668-48.666c2.668-8-19.332 13.332-22.666 23.666s9.332-42 8.666-43c-4.332-1-17 19-21.666 34.668-4.668 15.666 11.332-65 9.666-71.334-1.666-6.332-15.666 4-26 22.668-10.332 18.666-14.666 31.334-17.332 31.666-2.668.334-14.668-17.668-14.668-17.668zm32.5 259.832s-4.25-39.75-11.75-19.5-6 103.5-6 104.25 26-48.5 31.5-48.5.25 19.5 1.5 28.25 25.25-19 28-15.5 8.75 6.5 13.5 25.25c6.549-19.207 5.5-21.75 7.5-22.75s9.5 26.25 9.5 26.25 10.25-14.5-14-107c-8.75-11-14.5-9.75-17.5 2.5s-15 33.25-16 36 .25-24.5.25-27.75-1.75-12-10.25 2-12.25 31.25-16.25 16.5z"/><path id="l" fill="none" stroke="#000" stroke-miterlimit="10" stroke-width="6" d="M1760 453l50 51c104 154 96.668 334.663 96.668 334.663-44 108.667-80 136-71.334 118.667s-6-80.667-6-80.667l-26-140 22.666 128s-24.666 144-24.666 114.667c-51.334-150-90.662-194-90.662-194l-90.672-178s71.334 136.308 84 172c6 36.667 9.334 180.667 4 145.333-5.332-35.334-75.416-126.667-75.416-126.667l-109.25-182 104 180s7.334 69.333 4.666 111.333c-18.666-12-96-164.667-108-179.333s-40.666-63.333-42-46c-23.332 162.667-62 192-91.332 233.334-136.668 142.667-139.334 122.667-138.668 120s17.213-68.16 22-66c4.789 2.161 141.334-330 141.334-326s-82 200-87.334 218.667c-5.332 18.667-52 100.001-52 100.001-36 30.667-66.666 4.667-81.332-3.333s-66-22-73.334-24c-7.332-2-41.268 6.589-48.666 18.667-34 24-16 102 8.666 134.666 13.334 196.667-3.332 374.667-4 362.667-.666-12-22-69.333-23.332-68-1.334 1.333-29.334-193.333-29.334-193.333s13.334 150.667 27.334 208.667c-26 97.333 6 244.667 6 244.667-22-26.667-100-183.998-100.668-211.332-.666-27.334 5.754-46.686 10.668-53.333-16 18-15.334 44-25.334 140-12.666-17.334-27.332-113.333-32.666-142.667s8-183.333 8-183.333l44-178-45.334 170s-8.666 0-29.332 33.333c-6.668-54-10-213.333 75.998-308.666C978 890 1026.75 863.75 1026.75 863.75L990 888c36-6 94 57.334 94 57.334l8.666-8.668c-34.666-64-70-73.332-75.052-84.041 7.5-196.49 44.998-236.988 130.494-346.483 85.495-109.495 182.99-97.495 182.99-97.495C1558.198 276.292 1760 453 1760 453zm88 511c72-54 83-109 83-109l-24.332-16.336C1901 878 1870.67 914.692 1848 964zm-6 12c-6 12-18 63-17 70s49 96 64.5 153c42.5 151 11.5 333 11.5 333 72-70 71-376 71-376l-27-89s54 146 62 161c95-257-70-370-70-370-48 85-89 106-95 118zm-36 233c-3 1-29 39-31 42s9 69-24 169c25-8 54-118 59-211h-4zm-598-52c16 54 36 194 106 242-14-28-45-176-45-176l-61-66m-58.657-214.365s131.991-32.636 174.927-84.636m-251.628 47.189s138.024-42.521 296.024-282.521M1224 596c-164.668 155.334-176.636 281.551-176.636 281.551M1280 471l60 1.334L1374 431"/></g></switch></svg>