<svg xmlns="http://www.w3.org/2000/svg" id="hair" viewBox="0 0 3000 3000"><switch><g><path id="cl1" fill="#E5D044" d="M1738.001 343.331c136.666 50 188.667 238.667 188.667 238.667l8.667 34c8.667 34 21.329 108.001 17.996 150.668-13.334 138.667-44 167.999-50 181.999s-48.666 184.667-48.666 184.667c-.666 16.667-30 97.333-20.666 134 37.333 103.333 102.666 94 110.667 120-76 11.333-163.333-13.333-173.333-18.667s-8.667 8-8.667 8l22.667 52.125s-99.334-46.792-114.667-54.792-10 2-10 2l7.333 35.333-7.333-4-44-34.667s40-13.333 52-23.333 32.666-30.667 56-51.334 88.666-68.667 101.333-126.667c10.667-32-7.332-90.666-8.666-105.333s14-40 22-65.333c21.333-11.333 52.667-36.667 57.334-52-27.333 42.667-96 66.667-76.666 44 92-104 24-292 26.667-278.667 35.333 170 12 164.667 12 164.667l-100-100.667s40.614 53.167 43.333 94.667C1637.334 822.666 1564 608 1564 618.667s7.917 124.667-7.334 176c-63.333-48.667-101.333-132.667-118-214-24-75.333-8.667-223.333-13.333-196.667-8 71.333 6 181.334 6 181.334l-166.667 250s-2-62-2.564-39.206c-6 49.498-1.5 244.488 67.23 334.539-110-36.667-178.667-146.667-182.667-156s-16.667-26-16.667-26-4.658 10.926-10.389 10.952c-71.996 0-61.497 85.496-61.497 85.496 51.806 138.409 163.491 118.494 163.491 118.494 34.498 58.497 154.493 155.993 236.988 190.49-116.994 103.495-215.988 94.495-215.988 94.495s58.496-94.495 26.998-65.997c-31.497 28.498-110.993 47.998-110.993 47.998l33.226-67.497s-147.22-9-85.723-29.998c64.496-37.498 37.498-70.497 12-131.993s-88.496-127.494-124.494-206.99-31.499-281.986 68.997-467.978c100.495-185.991 347.981-169.492 347.981-169.492 92.598-44.014 214.072-45.316 327.406 6.684z"/><path id="sd1" fill="#CFAB12" d="M1410.596 336.648l31.405-7.98-8.667 37.333c64.667-12.667 180-22.667 276.666 22 68 33.333 142.001 121.333 163.334 154 44 72.667 26.667 100.667 26.667 100.667-8.667-21.333-43.333-97.333-152.666-185.333s-272.667-62.667-272.667-62.667-14 8-22.667 14.667-15.333 14.667-15.333 14.667c185.333 54 257.773 171.889 300 231.333-28-39.333-170-171.333-295.333-199.333 28.667 187.333 116 300.666 116 300.666s3.333 14.667 0 41.334c-115.334-112.667-122-230.667-122-230.667l-6-5.333s-3.334 3.333-5.334 10.666c-180 282.667-162.667 240.667-162.667 240.667s4.667-38.667 4.667-42 128-230 128-230-3.333-46-4.668-54C1298.667 538 1154.667 696 1112 856c52.325-388.542 277.333-413.333 277.333-413.333L1386 407.334c-131.333 17.333-192 80.667-252 152s-93.333 236-93.333 236C1061.333 352 1386 390.667 1386 390.667V342l24.596-5.352zM1746 845c25.5 16.5 53 21.374 53 21.374L1793 856c-52-24-225-235-225-235 88 180.5 178 224 178 224zm115.5 30l4-38s2-24 2.639 19c.64 43-4.139 63-30.639 121.5 111.5-101.5 17-249 9.5-271s-70-129-91-136.5c62 110 85 219.5 85 219.5V837l-144-157 55 90.5c2.267 3.729 109.5 104.5 109.5 104.5zM1840 994s-30 56-25 71 14.771 93.093 12.219 102.046c-2.552 8.953-.552 20.287-41.219 76.287-24 26.667-87.332 73.333-108.666 96s-49.334 32-54.667 28.667-7.334 6-7.334 6l49.417 29.333-4.75-22.667-10.5-16.167 8.25-6 4.75 7.75s11.5 7.5 24 12c12.5 7.75 90.75 47 96.5 47-1.338-9.354-10-24.75-10-24.75s-8.25 2-50.75-28.5c-7-7.75-30-43.75-30-43.75l32.25-27s22.25 52.5 36.75 65l4-1.5s27.417 12.917 71.417 17.583 90.666 9.333 103.333 4c3.597-1.643.666-3.333 0-4.333s-82.25-28.5-100-89c-6.25-21.5-12.5-41.25-5.75-92.25 2.75-23 36.25-136.25 44.25-157.75s21-86.5 22.5-94c0 .001-49 48.001-61 45.001zm-715.333-57.999s4-12 5.333-5.333c72.667 109.333 134.667 146 134.667 146l55.333 30.667-13.333-24c-50.667-14-160-179.333-160-179.333l-15.333-37.628-2.667 40.961-32 28 28 .666zm-87.334-69.627s4.667 112.295 13.333 130.962c5.949-4.709 5.333-15.333 5.333-15.333l-15.334-115.628-3.332-.001zM1122 1129.333S1237.333 1264 1156.667 1336c8-.667 40 0 40 0s58-25.333-32-186.667c-14-3.333-29.334-12-42.667-20zm76 25.333s61.333 74.667 66 104.667 9.333 44-13.333 72.667-52.667 63.333-52.667 63.333l71.604-32.736s37.063-10.598 31.729-82.598c9.333 7.333 91.333 52.667 91.333 52.667s-76.667 88-139.333 86l-4.45 10.125s64.45-6.792 88.45-14.792 94.667-48.667 103.333-65.333 6.667-20.667 6.667-20.667-111.333-40.667-226-178c-3.224-5.939-23.333 4.667-23.333 4.667z"/><path id="l" fill="none" stroke="#000" stroke-miterlimit="10" stroke-width="6" d="M1738.001 343.331c136.666 50 188.667 238.667 188.667 238.667l8.667 34c8.667 34 21.329 108.001 17.996 150.668-13.334 138.667-44 167.999-50 181.999s-48.666 184.667-48.666 184.667c-.666 16.667-30 97.333-20.666 134 37.333 103.333 102.666 94 110.667 120-76 11.333-163.333-13.333-173.333-18.667s-8.667 8-8.667 8l22.667 52.125s-99.334-46.792-114.667-54.792-10 2-10 2l7.333 35.333-7.333-4-44-34.667s40-13.333 52-23.333 32.666-30.667 56-51.334 88.666-68.667 101.333-126.667c10.667-32-7.332-90.666-8.666-105.333s14-40 22-65.333c21.333-11.333 52.667-36.667 57.334-52-27.333 42.667-96 66.667-76.666 44 92-104 24-292 26.667-278.667 35.333 170 12 164.667 12 164.667l-100-100.667s40.614 53.167 43.333 94.667C1637.334 822.666 1564 608 1564 618.667s7.917 124.667-7.334 176c-63.333-48.667-101.333-132.667-118-214-24-75.333-8.667-223.333-13.333-196.667-8 71.333 6 181.334 6 181.334l-166.667 250s-2-62-2.564-39.206c-6 49.498-1.5 244.488 67.23 334.539-110-36.667-178.667-146.667-182.667-156s-16.667-26-16.667-26-4.658 10.926-10.389 10.952c-71.996 0-61.497 85.496-61.497 85.496 51.806 138.409 163.491 118.494 163.491 118.494 34.498 58.497 154.493 155.993 236.988 190.49-116.994 103.495-215.988 94.495-215.988 94.495s58.496-94.495 26.998-65.997c-31.497 28.498-110.993 47.998-110.993 47.998l33.226-67.497s-147.22-9-85.723-29.998c64.496-37.498 37.498-70.497 12-131.993s-88.496-127.494-124.494-206.99-31.499-281.986 68.997-467.978c100.495-185.991 347.981-169.492 347.981-169.492 92.598-44.014 214.072-45.316 327.406 6.684z"/></g></switch></svg>