<svg xmlns="http://www.w3.org/2000/svg" id="hair" viewBox="0 0 3000 3000"><path id="cl1" fill="#7B460B" d="M1558.45 452.15a102.227 102.227 0 0 0-13.05-5.95c-38.296-13.44-74.579-19.307-108.851-17.601-84.792-1.48-174.743 39.92-269.85 124.2-50.237 54.117-80.287 110.85-90.15 170.2-12.308 40.875-19.658 89.642-22.05 146.3-1.977 49.592-10.327 101.325-25.05 155.2-5.078 27.031-18.262 45.548-39.55 55.55-46.136 12.293-82.186 7.293-108.15-15 25.277 35.132 53.994 61.665 86.15 79.601 17.928 9.106 41.979 12.456 72.149 10.05 18.752.479 31.185-2.62 37.3-9.3-26.781 30.854-59.932 53.471-99.449 67.85 62.42 30.021 111.32 43.87 146.699 41.55 54.316-7.245 93.717-19.428 118.2-36.55 6.542-8.875 12.208-10.875 17-6 22.763 20.783 49.296 33.95 79.601 39.5-4.729-11.896-7.445-24.696-8.15-38.4-.666-13.707 3.568-19.073 12.7-16.1 51.493 7.033 89.327 1.667 113.5-16.1-9.424.756-20.424-.411-33-3.5-38.042-17.534-62.208-51.567-72.5-102.101-10.127-38.94-13.81-79.007-11.05-120.2 6.854-33.957 16.72-62.49 29.6-85.6l106.1-58.6c60.3-21.224 102.217-41.074 125.75-59.551 23.129-18.383 43.646-48.267 61.551-89.649 10.651 28.502 20.885 47.902 30.699 58.2 9.814 10.306 16.947 17.272 21.4 20.899 4.451 3.657 21.252 12.79 50.4 27.4 28.664 14.316 51.43 27.467 68.3 39.45 13.188 9.396 22.755 18.063 28.7 26 1.247 14.03 2.247 28.597 3 43.699a1348.642 1348.642 0 0 1 1.399 40.2c.706 31.174.505 64.407-.6 99.7-1.454 27.2-8.804 50.533-22.05 70-17.513 25.839-45.379 44.889-83.601 57.15 29.84 9.901 56.04 13.234 78.601 10-2.641 15.713-2.641 32.746 0 51.1 4.692 20.5 26.059 31.851 64.1 34.05 42.156 2.336 73.123-10.914 92.9-39.75 19.803-28.832 37.92-50.648 54.35-65.45-26.488 6.255-58.188 8.538-95.1 6.851-16.323-.704-23.856-10.82-22.601-30.351v-33.05c2.89-46.032 7.59-96.416 14.101-151.149l8.899-92c-.77-13.506-2.919-28.772-6.45-45.801-17.69-66.655-43.74-127.905-78.149-183.75-33.612-53.12-73.496-94.837-119.65-125.149-41.75-23.798-81.149-36.981-118.2-39.55-34.102-.384-59.403 3.449-75.898 11.502z"/><path id="sd1" fill="#5E3001" d="M1099.5 1113.4c5.3-14.9 14.6-27.5 24.6-39.4 4.301-5.1 9.301-9.5 14.101-14.2 2.3-2.3 4.5-5 8.3-4.8 4.9 36.5-.6 70.7-20 102.3-7.5 12.101-14.4 24.5-24.1 35.301-5.2 5.8-11 10.6-17.2 14.8-13.4 9.2-27.5 17.399-43.3 22.2-2.4.699-6.821 4.076-4.422 8.875-22.071-8.468-43.768-17.839-55.892-26.598C1082 1170 1103.1 1111.6 1099.5 1113.4zm-40-275.9c-.5 7.7 3.9 22.7 10.5 28.2 14.7 12.1 23.7 28.6 27.5 47.399 4.2 21.2 2.3 42-3.6 62.9-6.7 24-21.4 41.4-40 56.7-9.2 7.6-17.601 16.1-27.5 22.9-1.301.899-11.29 5.305-12.79 5.905 19.89-27.506 21.485-61.807 28.485-90.406 4.2-17.1 7.185-37.18 8.685-54.68 2-22.399 4.258-40.899 4.558-63.399.1-2.299 2.361-13.619 4.162-15.519zm831.601 293.513c.899 9.237-2.801 22.287-4.2 26.888-3.2 10.699-1.5 20.5 4.6 29.3 8.4 12.1 19.1 20.5 34.5 22.6 8.1 1.101 16.3 1.9 24.4 3.301 11.1 2 22.199-1.5 33.3-2.7 2-.2 3.899-.5 5.899-.8-12 14.399-27.899 22.5-45.699 26.6-26.9 6.2-53.5 5.6-78.801-6.9-3-1.5-5.899-3.199-8.5-5.199-7-5.2-12.162-7.966-16.854-21.317-.1-11.3-1.466-17.517-1.337-32.288-.9-5.301 1.158-15.37 4.457-16.27 12.601-3.7 25.825-6.442 36.425-14.042.9-.803 10.609-8.774 11.81-9.173zM1678.25 450c-7.25-.5-12.75 2.6-14.15 6.2-4.3 10.8-8.3 21.5-8.6 33.399-.551 21.602-1.109 41.098 9.748 73.542 4.569 9.197 9.785 19.258 9.585 20.358 0 0-11.633-13.4-12.733-15.1-6.5-9.4-15.3-16.4-24.199-23.3-2-1.601-7.951-5.2-10.15-5.601-.891-8.9-.399-7.199-2.5-11.5-5.7-11.699-8.8-20.449-16-31.25-12-16.25-33.142-32.601-47.741-46.001 6.5-5.2 26.041-5.699 32.741-6.999 13.4-2.7 30.791-4.256 44.391-2.756 11.898 1.201 28.008 4.308 39.608 9.008zm111.25 315.5c.4-11.9 2.5-23.7 2.2-35.7-.2-10.6-.9-20.9-3.5-30.9 3.5-2.3 5.899-.199 8 1 7.8 4.4 16.8 6.301 24.1 11.801 1.101.899 6.318 3.125 11.2 4.05 7.601 14.1 10.322 20.611 15.122 35.711 6.2 19.3 10.643 35.348 13.542 55.348.101.6 3.165 19.113 2.665 20.613-7-4.4-22.429-18.722-29.229-23.222-22.699-15.101-45.399-23.604-69.3-36.804-16-8.8-33.556-14.85-48.056-26.15-2.4-1.801-13.72-11.331-15.02-14.231 8.3 2.301 24.075 8.685 31.575 12.685 16.601 8.899 33.3 17.6 50.8 24.699 1.901.8 4.001.8 5.901 1.1zm-343.146 26.499c.231 3.013 9.446 6.301 15.446 4.4 35.7-11.5 70.9-23.899 104.3-41.1 20.4-10.5 38.9-23.8 55.9-39.1 6.4-5.7 13.1-11.1 19.6-16.6-13.1 26.8-30.8 49.3-57 64.5-20.5 11.899-42 21.6-63.8 30.399-39.5 16.101-77.8 34.2-114.3 56.3-.8.5-1.9.601-2.8.9-2 .5-23.455 10.757-22.955 8.857 10.6-14.4 34.106-42.509 44.606-57.009 3.399-4.898 16.302-7.847 21.003-11.547zM1329.3 1203.5c-17.3-22.7-33.3-46.3-47.2-71.2-3.5-6.3-5.699-13.399-8.1-20.3-1-3-1.4-6.4 1.1-9.9 7.101 2.5 12.801 7.301 17.7 12.301 15 15.1 32.2 27.699 47.4 42.6 14 13.6 29.399 25.8 44.1 38.6 1.2 1.101 2.101 2.5 3.101 3.801-14.7.8-29.101-.301-43.5-3.4-8.301-1.802-10.601-.502-14.601 7.498zm298.45-664c-9.801-3.7-31.55-24.9-39.85-30.8-27.4-19.7-54.2-40.4-84.7-55.3-16-7.8-44.3-17.45-61.2-23.15 13.7-1 37.388.128 50.788 2.027 15.7 2.3 34.181 7.672 49.28 12.771 11.199 3.8 20.161 7.168 28.961 15.168 17.801 16.1 35.971 33.733 47.471 54.533.499.801 9.05 23.851 9.25 24.751zm-212.448 200.302c0 3.3.099 26.398.298 29.698.301 5.7 2.2 7 7.601 5.1 9.101-5.045 11.674-6.451 21.7-13.8 12.1-8.966 19.899-14.4 31.199-19.3 11-4.8 21.6-10.2 32.4-15.4 3.5-1.7 7.199-3.2 12.3-3.899-3.7 6.3-8.7 10.699-12.899 15.3-11.301 12.6-22.9 25.1-36.801 35-1 .7-25.933 14.667-24.746 19.499-1.687 2.001-27.254 11.4-41.654 33.001-5.6 8.5-22.333 34.567-31.333 43.167 3.495-20.258 11.548-46.792 15.649-58.992 5-15.1 10.258-33.367 17.258-47.867 1.101-2.5 6.728-19.807 9.028-21.507zm366.448 398.948c4.2 3.399 14.95 5.05 19.35 4.35 20.101-3.199 39.2-10 57.4-19.1 4.5-2.2 8.9-4.5 13.4-6.6 13.3-6.2 26.1-13.101 36.199-24.601.9 8.45.65 18.45-3.6 27.2-5-2.199-3.126 1.25-6.926 4.55-12.3 10.8-26.374 19.049-42.074 24.45-16.2 5.6-34.1 5.7-51.2 3.3-8.6-1.199-30.756-2.947-39.356-6.547 2.101-3.699 13.206-6.603 16.807-7.002zm-530.35 72.55c-3-13.399-1.601-26.8-.801-40.699 21.101 31.399 47.601 56.699 79 77.1-2.399.1-4.6-.4-6.8-1.4-18.899-8-37.6-16.5-53.6-29.8-5.099-4.201-10.399-8.801-17.799-5.201zm591.75-205.25a87.159 87.159 0 0 1-2.45 3.851c-8.934 14.925-11.45 28.125-7.55 39.6 8.615 20.421 11.949 32.755 10 37 13.246-19.467 20.596-42.8 22.05-70 1.104-35.293 1.306-68.526.6-99.7-2.399 38.579-9.948 68.329-22.65 89.249m18.25-173.15c-5.945-7.937-15.512-16.604-28.7-26l31.7 69.699c-.753-15.102-1.753-29.668-3-43.699z"/><path id="hl1" fill="#BC7724" d="M1405.5 731.5c-4.2 7.1-8.3 14.4-12.8 21.4-16.5 25.6-23.8 54.6-31.101 83.6-6.3 25.1-12.199 50.3-20.6 74.8-1.6 4.7-.6 10.101-5 15.5-3.3-6.899-3.8-13.5-4.5-20-1.5-13.8-2.6-27.7-4.2-41.5-.899-8-5.6-10-12.6-5.3-4.4 2.9-8.5 6.4-12.601 9.7-3.8 3.1-8.399 3.9-13 4.7-4.899.899-8.3-1.3-9.6-6.3-1.4-5.4-1.699-11.101-3.199-16.5-6.101-22.101-18.201-40.4-36.4-54.4-6.4-4.9-9.5-4.8-15.7.5-1 .9-1.899 2-3 2.6-2.8 1.6-5.5 4.3-9.101 2.3-3.199-1.7-2.5-5.1-2.899-8-.601-5.3-1.2-10.5-2-15.8-1-6.4-5.3-10.7-10.2-14.2-4.3-3-8.4-.3-11.8 2.4-3.399 2.6-6.399 5.7-10.2 7.9-8.199 4.8-11.5 3.2-11.699-6.101-.101-7 .1-14-.101-21-.3-11.399-6.2-14.699-16.3-9.399-8 4.2-15 10-21.4 16.1-11 10.5-22.3 20.9-31.9 32.9-6.199 7.8-13.5 14.6-23.5 17.899-4.899 1.7-4.699-1.399-5.1-4.399 3.4-26.4 9.9-52.2 15.9-78.101 5.6-24.3 12.5-48.3 22.699-71.1 2.801-6.4 5.601-12.8 9.701-18.5 5.6 9.8 11.399 12.2 24.199 9.6 4.5-.899 8.9-2.5 13.5-3.399 3.9-.8 6.5.6 6.301 5.2-.201 3.6.199 7.3-1.101 10.899-1.3 3.5-1.101 7.2-.8 10.9.8 12.1 8.9 19.899 21.199 20.899 8.4.7 16.4-1.699 24.601-3 3-.5 5.899-.8 8.899-.8 5.2 0 8.801 2.3 10.9 7.101 2.4 5.5 3.6 11.3 4.301 17.3 1.199 10.5 2.899 21 6.1 31.1 4.3 13.601 11.8 18.5 27.5 14 4.8-1.3 9.3-3.6 13.9-5.5 2.799-1.1 5.5-2.399 8.399-3.1 10.601-2.8 16.3-1.5 16.3 9.7 0 3.199 1.5 6.399 1.801 9.699 1.8 16.2 16.1 24.301 31.199 17.9 8.301-3.6 14.9-9.8 22.2-15 1.399-1 2.5-2.3 3.899-3.1 15.4-8.9 28.701-20.301 40.701-33.301 1.1-1.199 2.6-2 3.899-3 .601-.699 1.2-1.3 1.899-1.899l.101-.101c.601-.699 1.2-1.3 1.899-1.899l.101-.101c.601-.699 1.2-1.399 1.899-2 .701-.699 1.4-1.3 2-2 .701-.6 1.5-1.199 2-2 3.301 0 3.5 1.601 2 4-.6.7-1.299 1.301-1.899 2.101-1.601 1.8-2.5 4.1-4.101 5.899v.101c-.295.802-.895 1.502-1.595 2.102zm548.2 87.8v23.3c-4.8-4.1-6.5-9.2-10.3-12.5-5.9-5.3-8.9-5.2-13.7 1.2-2.4 3.2-4.2 6.7-5.4 10.6-1 3.101-1.399 6.5-5 9.4-1.899-6.2-3.5-12.1-5.5-17.8-2.3-6.5-5.2-7.3-9.8-2.4-5.7 6.2-9.7 13.5-12.5 21.4-1.801 5-4.2 9.7-7.2 14.8-3.899-3.1-4.399-7-4.6-10.7-.601-11.899-2.2-23.7-4.101-35.5-1.5-9.5-2.8-19-4.8-28.399-.899-4.4-1.2-8.301.2-12.601 2-6.3 2.4-13 3-19.6.9-9.6 4.5-10.8 12.199-5.2 3.301 2.5 5.9 7.9 10.701 5.7 5.299-2.5 1.799-8.4 2.699-12.7.4-1.9-.5-4 2-6.1 4.5 1.3 6.801 5.2 9 9.2 6.301 11.1 10 23.1 12.9 35.399.6 2.601.699 5.301 3.4 7.301 3.299-9.301 4.899-18.601 4.799-28.2-.1-8.2.5-16.4 3.601-24.2 8.402 25.3 15.602 50.9 18.402 77.6z"/><path fill="none" stroke="#000" stroke-linecap="round" stroke-linejoin="round" stroke-width="6" d="M1902.25 1119.1c-16.135 20.087-36.835 31.938-62.1 35.551-2.641 15.713-2.641 32.746 0 51.1 4.692 20.5 26.059 31.851 64.1 34.05 42.156 2.336 73.131-10.914 92.925-39.75 19.787-28.832 37.896-50.648 54.325-65.45-26.488 6.255-58.188 8.538-95.1 6.851-16.323-.704-23.856-10.82-22.601-30.351v-33.05c2.89-46.032 7.598-96.416 14.125-151.149l8.875-91.976c-.77-13.522-2.919-28.797-6.45-45.825-17.69-66.655-43.74-127.905-78.149-183.75-33.612-53.12-73.496-94.837-119.65-125.149-41.75-23.798-81.149-36.981-118.2-39.55-34.104-.387-59.404 3.446-75.899 11.5 10.906 5.929 20.781 13.862 29.625 23.8 16.376 17.066 29.468 37.333 39.274 60.8m212.8 617.898c-22.561 3.234-48.761-.099-78.601-10 38.222-12.262 66.097-31.303 83.625-57.125 13.229-19.484 20.571-42.825 22.025-70.025 1.104-35.293 1.313-68.526.625-99.7a1403.006 1403.006 0 0 0-1.425-40.2c-.753-15.103-1.744-29.661-2.976-43.675-5.962-7.953-15.528-16.62-28.7-26-16.886-12-39.66-25.158-68.324-39.475-29.148-14.61-45.949-23.735-50.4-27.375-4.453-3.645-11.586-10.619-21.4-20.925-9.814-10.298-20.048-29.698-30.699-58.2-17.905 41.383-38.422 71.267-61.551 89.649-23.533 18.477-65.45 38.327-125.75 59.551l-99.625 55.024-6.475 3.575c-12.88 23.109-22.746 51.643-29.6 85.6-2.76 41.193.923 81.26 11.05 120.2 10.292 50.533 34.466 84.575 72.524 102.125 12.561 3.072 23.561 4.239 33 3.5-24.189 17.75-62.031 23.108-113.524 16.075-9.132-2.974-13.357 2.393-12.675 16.1.688 13.704 3.396 26.504 8.125 38.4-30.305-5.55-56.838-18.717-79.601-39.5-4.792-4.875-10.458-2.875-17 6-24.483 17.122-63.884 29.305-118.2 36.55-35.379 2.32-84.279-11.529-146.699-41.55 39.518-14.379 72.668-36.996 99.449-67.85-6.115 6.68-18.548 9.779-37.3 9.3-30.171 2.406-54.222-.943-72.149-10.05-32.156-17.936-60.873-44.469-86.15-79.601 25.965 22.293 62.015 27.293 108.15 15 21.288-10.002 34.472-28.519 39.55-55.55 14.723-53.875 23.073-105.608 25.05-155.2 2.392-56.658 9.742-105.425 22.05-146.3 9.863-59.351 39.913-116.083 90.15-170.2 95.106-84.28 185.058-125.681 269.85-124.2 34.271-1.706 70.563 4.16 108.875 17.601a103.12 103.12 0 0 1 13.025 5.95M1492.2 621.4c-26.69 31.036-48.841 63.286-66.45 96.75-17.604 33.462-36.021 83.995-55.25 151.6m492.925-35.825a1014.973 1014.973 0 0 0-1.725-17.774c-12.091-78.524-41.957-141.774-89.601-189.75M1473.65 753.05c-25.426 16.933-57.65 54.641-96.676 113.125M1077.35 1145.4l.65-.75 35.1-43.051"/></svg>