<svg xmlns="http://www.w3.org/2000/svg" id="hair" viewBox="0 0 3000 3000"><path id="hl1" fill="#A7585C" d="M1708.1 431.802c2 3.3 5.4 4.8 8.602 6.698 34.699 21 66.199 45.9 94.199 75.302 3.699 3.898 6.801 8.3 8.199 13.601 1.699 6.3.199 9.699-5.801 11.8-9.5 3.399-19.199 5.801-29.399 3.801-8.8-1.699-17.601-3.601-26.5-5.199-10.5-1.801-15.5 1-19.698 10.699-1.4 3.399-2.5 6.899-4 10.199-4.302 9.102-8.9 11.7-19.102 11.102-6.1-.301-11.801-2.102-17.398-4.2-5-1.899-9.9-3.899-15-5.5-9.4-3-17.699-.699-25 5.801-1.199 1.1-2.5 2.199-3.602 3.5-9.6 12.199-21.801 12.699-35.1 7.5-3.4-1.301-6.801-2.7-10.301-3.9-21.199-7-40-3.1-56.4 12.302-13.1 12.3-16.699 12.601-32 2.5-4.699-3.102-9.5-6.2-14.3-9.102-13.7-8.2-27.802-8.3-42-1.398-6 2.898-12 5.698-17.899 9-9.601 5.398-17.898 3.3-25.601-3.602-2.5-2.2-4.899-4.5-7.2-7-7.3-7.898-16-9.2-25.5-4.898-7.899 3.5-15.6 7.5-23.3 11.398-15.302 7.7-17.802 6.7-22.302-9.5-5.398-19.2-11.5-22.101-29.6-13.7-11.5 5.302-22.4 11.9-34.301 16.302-4 1.5-8.199 3-12.399 3.601-8.398 1.3-13-2.601-12.7-11 .302-6.601 1.7-13.2 2.9-19.7 1-5.601 2.399-11.101 3.5-16.601.699-3.602.699-7.3-.2-10.899-1.3-5.199-4.398-8-9.8-8.3-6.801-.399-13.2 1.3-19.601 3.101-15.399 4.399-30.2 10.602-45 16.5-3.102 1.199-6.3 2.5-9.5 3-4.5.801-6.5-1.699-4.899-5.801.899-2.5 2.5-4.699 3.899-6.898 9.5-15 20.8-28.602 31.7-42.399 2.898-3.7 6.1-7 5.5-12.301-.4-3.399 1.8-5.601 4.398-7.199 21.399-13.5 42.699-27.301 66.102-37.2 3.698-1.601 7.5-2.899 11.6-2.8 2.301 0 4.9-.3 6.101 2.4.899 2.101-.398 3.898-1.5 5.5-2.898 4.101-6.5 7.601-10.3 10.8-10.301 8.5-20.301 17.301-31.4 24.7-1.6 1.101-3.398 2.101-4.198 4.3 1.8 2.5 4.198.5 6.198.7 5.602.699 6.9 2.699 4.5 8-1.5 3.3-3.801 6.3-5.1 9.699-2.301 6.399.699 10 7.199 8.699 3.199-.601 6.301-2.101 9.398-3.199 2.802-1 5.5-2.399 8.4-3 7.8-1.601 12.3 1.699 12.899 9.601.5 7.301.101 14.7.398 22.001.2 4.898-.898 11.1 4.7 13.199 5.899 2.101 8.699-3.899 11.699-7.5 6.699-7.899 13.6-15.602 21-22.699 2.898-2.801 6-5.301 10-6.5 8.199-2.301 13.199 1.699 12.398 10.199-.698 6.898-4.5 12.398-8 18.101-2 3.3-4.898 6.101-5.5 10.101 3.4 1.602 5.102-.5 6.9-1.699 6.6-4.602 12.399-10.102 18-15.801 4.199-4.301 8.699-8.301 14.1-11.101 11.102-5.601 22-.5 24.4 11.601 1.699 8.5 2.5 17.102 3.8 25.699.399 3 .899 6 1.802 8.801 2.398 6.801 7.1 9.301 14.1 7.5 6.601-1.699 12.101-5.398 17.7-9.101 10.698-7.2 13.3-6.899 22.101 2.2 10.199 10.5 22.5 10.699 33.5.199 3.3-3.199 5.899-7.199 8.899-10.801 2.3-2.801 4.5-5.801 7.3-8.199 5.301-4.602 8.801-4.301 13.9.601 13.698 13 21.6 13.899 37.6 3.7 4.5-2.801 8.4-6.5 12.801-9.602 7-4.898 9.1-4.898 15.899.602 4.7 3.8 9.398 7.5 15.398 8.898 7.7 1.801 11.602-1.301 11.2-9.199-.2-3.602-1.301-7.199-1.898-10.801-.4-2.801-2.4-6.199.898-8.199 3.102-1.801 5.602 1.101 8 2.601 5 3.3 9.8 6.899 14.8 10.2 3.7 2.398 7.7 4.1 12.102 4.398 7.398.5 11.398-2.601 12-10.101.398-4.601-.3-9.301-.399-14-.101-3.2 1.699-4.2 4.5-3 3 1.399 5.899 3 8.899 4.601 9.8 5.102 20.398 8.199 31.2 10.602 8.6 1.898 10.898-.301 8.8-8.5-7.7-30.602-19.899-58.7-44.102-80.2-2.101-1.899-4.898-3.5-5.3-7.3 9.199-.801 16.399 5.6 25 6 4.312 1.189 8.312 2.987 12.012 5.689zM1058 966c2-7.1.6-13.6-2-20.398-5.7-14.899-11.4-29.699-16.7-44.8-2.3-6.5-5.198-12.802-11.398-16.7-4.102.5-3.302 3.601-2.899 6.101 1.5 9.899 1.1 20 .899 29.899-.102 3.7.101 7.898-3.7 10.601-3.5-2.898-3.8-6.8-5-10.101-3.199-8.8-7-17.3-12.3-25-1.899-2.699-4-5.399-6.399-7.602-3.101-2.8-5.5-1.8-6.101 2.4-.5 3.6-.2 7.3-.5 11-.2 2.8 1 7-2.802 7.6-3.5.602-4.3-3.6-5.6-6.1-2.301-4.4-4.101-9.101-6.4-13.5-1.3-2.5-2.5-1.4-3.1.699.5.601.699.7.5.5 0 0-.2-.199-.5-.601-2.2-2.601-3.4-5.699-4.801-8.699-4.699-10.7-9.399-21.301-14.102-32-.898-2.102-1.8-4.801-4.5-4.801-3.398-.101-4 3.101-4.8 5.601-2.601 8.101-2.5 16.5-1.3 24.801 5.5 35.399 16.8 69.199 30.8 102 1 2.199 1.602 5.199 5.399 5.5 1.898-4.2.699-8.4 0-12.601-.899-5.2-2.5-10.399-2.199-15.8.199-3 .3-6.5 3.699-7.602 3.801-1.301 5.199 2.3 6.699 4.699 4.199 6.4 8 13.101 12.199 19.4 3.301 5 6.9 9.8 10.5 14.6 1.2 1.601 2.801 3.2 5 2.5 2.2-.699 2.5-3 2.801-4.899.301-2.3.5-4.601.899-6.898.7-4.3 1.8-8.5 4.5-12.102 3.301-4.5 7.301-4.698 10.7-.3 2 2.602 3.3 5.699 4.699 8.8 2.398 5.5 4.398 11.102 7 16.602 1.601 3.398 3 .601 4.398-.602C1054.1 980.7 1053.8 972.7 1058 966zm906.3 230.302c-3.3-11.302-3.198-23-4.198-34.602-1.102-13.198-2.7-26.198-6.802-38.898-1.8 6.198-2.601 12.398-3.898 18.5-1.302 6.198-2.2 12.601-6.102 18.101-1.3-10.5-1.698-20.7-3.198-30.899-2.2-15.301-4.4-23-8.9-28.5-2.6 3.801-1.199 8.899-4.899 12.5-.8-7-.5-14-.898-20.899-.399-7-.802-14-2.2-20.8-1.3-6.4.601-13.7-4.5-19.4-3.102 2.4-2.699 5.301-2.602 7.801.9 20.699-4 40.3-11.3 59.399-2.7 7-3.101 14.2-2.398 21.601 2.8 26.5 5.898 52.899 9.898 79.3 1.8 12.4 3.899 24.802 5.899 37.2 2.5-25.7-.399-51.898 9.7-76.7 2.898 13 6.198 25.603 10.101 38.802 4.1-3.602 3.5-7.102 4-10.302 1.699-10.897 4.3-21.6 8.6-31.698.802-1.899.802-4.899 4.602-4.802 2.1 4.9 2.199 10.2 3.1 15.4 1 5.8 1 12.1 5.701 16.6.693-2.506.693-5.106.294-7.704zM1161.4 927.4c1.101-6.2 1.601-12.601 2.698-18.801 4.102-24.199 11.5-47.199 24.9-68 2.1-3.199 3.6-8.601 8.1-7.8 4.5.8 3.699 6.5 4.4 10.199 5.8 28.101 11.3 56.199 17 84.301.5 2.3.399 5.2 3.199 6.601 2.5-2.801 2-6 2.301-8.9 1.899-21 6.3-41.5 13.8-61.198 3.5-9.102 7.7-17.802 14.602-24.802 4.698-4.8 8.101-3.8 9.601 2.9 1.399 6.199 2 12.5 2 18.899 0 10 0 20 .3 30 .102 3.601-.398 7.898 4.899 10.7 17.101-40.7 31-81.802 41.801-124.102 1.199 11.699 1.5 23.199.101 34.8-1.199 10.2-3.301 20.399-2.899 30.801.101 3.602-2 9.602 3.2 9.899 4.398.3 4.5-5.801 5.3-9.5 2.801-13.399 4.7-27 5-40.601.7-34 .399-68 .301-102 0-3.8.601-9-4.301-10.101-4.3-1-5.699 3.801-7.699 6.699-10.801 15.899-17.601 33.602-23.801 51.602-.8 2.3-.899 5-3.8 7-2.302-6-2.2-11.7-2.399-17.301-.301-5.699.199-11.602-3.301-17.802-3.5 4.4-4.3 8.4-5.5 12.103-7.102 22.199-12.199 45.1-21.699 66.5-1.101 2.397-1.9 5-3.301 7.3-1.9 3.3-4.3 3.2-5.8-.101-1-2.399-1.603-5.102-2.103-7.699-2.5-13.103-4-26.301-4.199-39.7-.301-14-.1-28-.301-42 0-2.601.801-5.9-3.5-8.4-2.299 8-4.5 15.301-6.5 22.602-4.299 16.101-8.397 32.199-12.799 48.301-.9 3.199-1.101 7.101-5.601 9.5-2.899-7.5-3.802-14.7-5.103-21.899-4.1-23-7-46.101-9.897-69.2-.302-2.398.397-5.5-3-6.5-.7.399-1.399.602-1.802 1-.698.7-1.398 1.5-2 2.2-9.6 12-15.1 25.699-17.198 40.899a1390.768 1390.768 0 0 0-9 86.398c-2.5 35.2-3.899 70.5-3.302 105.802.102 3.1-.898 6.8 3.199 9.198 3.303-2.597 3.503-6.395 4.103-9.797zm281.4-184.9c3.5-6.1 7.2-12.1 12.7-16.6 4.5-3.601 7.5-2.5 8.199 3.1.5 4.302.1 8.7.6 13 .701 6.2 3.701 7.4 8.701 3.5 2.899-2.198 5.299-5 8.1-7.398 7-6.102 8.602-5.8 13.4 2.101 3.699 6 6.299 6.5 11.899 2.102 3.101-2.5 5.897-5.5 9.101-7.801 9-6.399 14.299-5.101 18.899 4.801 3.198 6.898 5.601 14.3 8.8 21.199 1.6 3.399 2.5 9.399 6.898 8.601 5.4-1 3.699-7.101 3.602-11-.602-22-2.5-43.899-6.9-65.5C1546.1 689 1545 685.5 1543.6 682.1c-1.801-4.3-3.898-9-9.5-9.102-5.5-.1-6.5 5-8.1 8.9-2.601 6.1-5 12.399-7.601 18.5-.602 1.5-1.7 3.1-3.602 3.1-2.5.102-3.2-2-3.898-3.898-1.302-3.8-2.399-7.602-4-11.3-1.302-3-2.802-6.399-6.899-6.399-3.601 0-4.7 3.399-6.101 5.899-1.899 3.5-3.5 7.198-5.5 10.698-1.302 2.2-2.5 5.2-5.802 4.5-2.698-.6-2.801-3.5-3.398-5.698-.801-2.899-1.301-5.899-1.9-8.802-1.199-5.198-2.898-10.3-5.699-14.898-3.6-5.8-6.698-5.699-9.898.398-2.199 4.102-3.699 8.602-7.199 11.9-3 2.8-5.2 2.3-7-1.4-.601-1.198-.801-2.5-1.301-3.8-1.4-3.5-1.4-9.3-6.602-8.3-4.898.899-3.6 6.5-3.6 10.199-.101 19.7 0 39.301.1 59 0 2.601-.5 5.398 1.5 8.5 3.4-1.795 3.8-5.097 5.2-7.597zm480.3-5.1c-3.1-12.301-6.698-24.4-11.801-36-1.199-2.7-2.5-5.5-4.1-8-2.4-3.601-5.602-6.101-10.102-3.5-4.198 2.5-5.898.3-7.6-3.101-2.601-5.399-5.4-10.7-8.2-16-1.101-2-2.398-4-3.8-5.801-1.2-1.5-2.801-3.399-5-2.199-2.2 1.101-1.601 3.398-1.301 5.398.398 2.301 1.1 4.5 1.5 6.801 1.6 8.801 3.398 17.699 4.801 26.5.6 4.102 1.399 8.399-1 13.399-8.2-10.399-14-21.7-24.5-30.801-.5 7.7 4.3 13.5 2.8 20-2.2 0-2.898-1.199-3.7-2.199-3.898-5-7.6-10.101-11.6-15-3.2-3.899-6.9-7.301-12.2-8.101-6.3-.899-9.601 3.101-7.398 9 .5 1.2 1.198 2.399 1.898 3.5 11.899 19 20.399 39.601 28 60.7.7 1.898.399 4.8 3.802 5.3.198-1.5.5-2.8.5-4.101.198-5-.4-10 1.198-14.899 1.602-4.899 4.602-5.601 7.899-1.601 2.101 2.5 3.601 5.601 5.4 8.398 1.698 2.801 2.198 7.301 5.698 7.7 4.602.601 3.602-4.7 5.302-7.3 3.301-5.102 7-5.801 11.301-1.2 2.897 3.101 5.299 6.899 7.397 10.601 7.603 13.301 15.302 26.5 21.603 40.5 1.397 3.199 3.397 6.199 5.1 9.301-1.301-7.699-4-14.801-6.301-21.899-2.399-7.3-4.699-14.601-6.399-22.101-1.698-7.102-5.698-13.801-4.398-21.899 6.398 1.5 9.398 7.399 15.5 9.101 1.901-4.197.501-7.397-.299-10.497zm-840.8 564.7c3.602 11.101 7.802 21.899 12.399 32.601 3.898 8.899 8.398 17.399 13.801 25.399 1.8 2.801 3.5 8.2 7.602 6.2 3.6-1.802 1-6.602.5-10.102-.2-1.601-.802-3.199-1.102-4.898-1.5-8.2-3.5-16.302-4.5-24.5-1.5-12.9-2.101-25.9 1.602-38.602.6-2 .6-4.898 4.5-4.898 3.6 10.398 4.198 21.8 10.1 31.8.9-9.601.9-19 .9-28.5.1-18.5-4.7-36.199-8.802-54.101-.698-2.801-1.398-6.399-5.198-6.301-3.802.102-4.2 3.801-5.2 6.5-3.2 8-6.102 16.199-9.5 24.199-1.2 2.9-1.7 6.5-5.5 8-3-2.899-2.7-6.8-3.7-10.199-4.199-14.699-8.1-29.5-12.399-44.199-.8-2.899-1-7.801-5.198-7.199-3.4.5-2.199 4.898-2.5 7.801-.5 3.699.898 7.8-1.699 11.399-3.201-1.802-3.4-4.7-4.201-7.102-5.199-14-10.299-28.101-15.5-42.198-1-2.802-2.1-5.603-3.6-8.2-1.699-2.899-3.802-2.399-5 .5-2.199 5.398-1.9 11-1.302 16.7 1.7 14.6 4 29 7.302 43.3 7.898 34 15 68.3 23.898 102.101 1.199 4.601 1.699 9.601 6.801 13.899 2.602-9.102.102-16.8-.398-24.5-.5-7.899-4.602-16 .398-24.399 4.096 2.299 4.395 6.201 5.496 9.499z"/><path id="cl1" fill="#894447" d="M1774.199 684c3.699 21.9-4.602 62-6.9 88.5-2 22.2-10.299 48.102-17.398 69.4-5.699 2.3-6.199-2.101-6.5-5.601-2.301-22.2-5.5-44.2-7.199-66.399-.4-5.301-4.102-23.601-6.102-28.7-7.801-3.5-5.898 9.899-8.301 17.899-4.199 14-3.699 26.801-7.5 40.899-10.398 38.199-27.398 77-43.699 113.199-2.6 5.7-5.698 11.2-8.6 16.899-.7.7-1.4 1.5-1.601 2.601a3.411 3.411 0 0 1-.602 1.2c-9.2.899-6.398-6.101-5.8-10 3.8-22.5 4.399-45.301 2.699-67.801-3.5-47.1-4.5-94.5-17.602-140.399-5.398-18.8-16.301-34.5-24.898-51.5-.199-.3-.301-.601-.5-.898-1.801-2.899-3.5-5.899-7.602-5.301 1.9 7.199 5.199 7.699-4.301 69.601-3.295 39.5-26.895 100.4-45.895 135-4.399 8.101-10.7 16.398-15.603 25.5-2.397-3.699-1.897-6.399-1.897-8.8-.2-25.602-.302-51.302-.399-76.899 0-4.7-.201-6.801-2.601-11-8.7-4.2-12.399-1.5-16.2 5.199-15.5 27.398-26.101 57-37.101 86.301-.802 2-1.899 4-2.302 6-.6 3.199-1.897 5.399-5.1 5.8-4.101.5-4.9-3.101-5.8-5.8-3.603-11.4-7.399-22.7-10.603-34.2-5.5-19.601-13-38.5-17.897-58.3-1.5-5.9-4.103-9.7-4.399-15.601-.301-4.7-5.801-12.102-10.801-13.7-4.699.5-.199 5.5-1.5 9.398-6.3 18.5-7.102 31.5-8.8 43.5-1.7 13.302-3.5 28.9-4.103 42.102-.1 2.601 1.603 6.601-3.1 7.101-4 .399-4.302-3.8-4.802-5.898-3.898-14.602-7.198-29.302-8.8-44.399-4.801-47.4-2.601-94.4 7.699-140.899 1.7-7.899 1.601-14.699-2.699-21.399-5.801-1.8-4.101 5-5.899 10.101-5.899 16.602-13.101 27.602-17.601 44.7-7.301 28-19.5 57.3-26.5 85.399-14.7 58.898-16.301 118.5-9.101 178.5 3.601 29.8 11.101 58.801 18.5 87.898 3.101 12.301 6.5 24.399 9.699 36.699.601 2.301 1.5 4.7-1.101 6.2-2.399 1.398-4.301-.7-5.601-2-10.301-9.7-20.102-20-30.7-29.3-11.8-10.4-20.3-23.2-27-33.5 2.9 4.198 6.9 11.5 12.103 18 6.6 8.198 14 15.1 14.698 24.398 16.899 39.899 27.302 81.3 49.199 118.602.7 2.198-.3 2.8-2.3 2.398-9.801-7.398-25.7-4.398-34.301-13.101-39.101-34.399-66.5-82.5-90.699-128-6-11.399-10-25.399-16-36.8-10.801-2.7-9-28.7-15.2-23.302.2 13.399 4.2 27.102 9.4 38.602 12.1 26.898 25.1 53.398 40.198 78.8 7.602 12.7 13.7 26.301 21.2 39.2l-.101-.102c.5.699 1 1.5 1.398 2.302 4.2 8.6 8.399 17.198 12.602 25.8 1.3 2.601 0 9.601-3.801 9.5-44.399-24-76.302-70.899-102.699-117.3-12-21.2-24.2-42.9-36.7-63.802-4.1-6.898-14.6-21.398-17-29.198-16.699-54.5-17.399-110.603-18-167.7-.199-21 4.601-69.3 4.7-71.5 0-.4-4.102-3.102-4.801-1.602-3.199 7.102-12.802 13.399-19.601 16.699-10.2 4.9-14.2 13-13.301 24.301 4.301 52.802 11.6 105 30.7 154.802 3.101 8.1-.103 20.6-6.899 22.3-21.701-26.8-41.5-59.602-55.201-91.4-13.299-30.897-16.199-71.897-20.6-105.1-4.302-32.602-4.302-65.102 1.6-97.5.5-2.9 1.201-5.9 2.4-8.602 24.698-57.601 58.6-109.101 103.6-152.898 55.5-54 120.603-91.5 194.701-113.9 53.699-16.2 108.699-23.4 164.5-24.2 21-.3 41.699 4.5 62.1 9.3 41.302 9.802 80.9 24.602 119.302 42.602 1.8.8 3.3 2.101 5 3.2-4.7 9.8-9.899.601-14 .7 18.8 15.5 30.101 36.698 37.8 60.1 2.399 7.301 4.899 14.601 6.399 22.101 2.198 11.001-1.899 15.102-12.802 12.899-10.1-2.1-20.1-4.699-29.6-9-6.199-2.8-9.9-2.199-11.101 5.601-2.101 13.5-11.601 18.2-25.101 13.102-5-1.899-9.399-5-13.899-7.8-4.399-2.802-6.899-1.9-6.899 3.698 0 1.7.1 3.302-.101 5-.699 9.602-5.601 13.7-15.101 12.302-5.7-.9-10.899-3.302-15.399-6.802-7.199-5.698-13.899-5-20.699.802-8.301 6.898-17.5 12-28.801 12.5-5.899.198-10.802-1.302-15.5-5.4-9.5-8.5-12.899-7.899-21.101 2.2-4 4.898-7.5 10.101-13.101 13.601-11.602 7.399-21.399 7.3-32.399-.898-11.801-8.802-11.801-8.802-23.601-1.7-23.602 14.101-33.899 9.3-37.801-17.602-.899-6.601-1.199-13.3-2.899-19.698-2.699-10-9.9-13-19.199-8.2-5.7 3-10.2 7.5-14.601 12.101-5.399 5.5-11.102 10.5-17.7 14.602-3.5 2.1-7.5 4-11.1.8-4.102-3.5-1.102-7.399.8-10.8 2.4-4.4 5.601-8.302 7.7-12.9 1.698-3.8 4.698-8.399 0-11.699-4.102-2.898-7.5.699-10.5 3.199-8.602 7-14.602 16.4-22.5 24.101-3.9 3.802-7.302 9.7-14.102 7-7.301-2.898-8.5-9.5-8.301-16.601.101-5.699.301-11.3-.199-17-.898-9.699-4.898-12.399-14-9.399-3.801 1.302-7.398 3-11.398 3.802-11 2.1-16.302-2.802-13.602-13.7 1.602-6.3 1.899-10.102-5-13.602-5.698-2.898-2.101-7.101 1.699-10.101 11-8.699 22.601-16.5 32.9-26.1 2.3-2.2 5.8-3.5 5.698-7.7-4.198-2.3-7.8.3-11.198 1.898-17.4 8.399-33.9 18.602-50.2 28.899-2.3 1.399-4.8 3-5.8 5.399-7.602 18.5-23 31.601-33.802 47.898-.5.801-1.198 1.602-1.698 2.5-1.4 2.801-5.4 5.7-2.7 8.801 2.5 2.899 6.3.101 9.2-1.101 12.3-5.1 24.898-9.5 37.6-13.5 3.801-1.2 7.7-2.3 11.7-2.8 19.3-2.5 27.199 6.1 24 25.5-1.5 8.898-4.301 17.5-5.2 26.5-1.199 12 3 15.6 14.4 11.898 10.8-3.5 20.698-9.101 30.898-14.101 5.399-2.6 10.699-5.5 16.5-7 10.5-2.6 17.199.5 21.899 10.3.4.9.9 1.801 1.2 2.7 8 19.101 8 19.101 26.3 10 3-1.5 6-3 9-4.399 18.2-8.698 24.601-7.801 39.3 5.802 11.101 10.198 16.301 11 29.601 4.698 3.302-1.601 6.7-3.101 9.802-4.898 18.398-10.4 36.301-9.2 53.801 2.1 1.1.7 2.199 1.5 3.399 2.2 19.698 12.601 19.8 12.7 38.601-1.8 16.399-12.602 34.5-14.602 53.899-9.3 3.5 1 7 2.198 10.3 3.698 12.7 5.602 23.899 4 33.5-6.601 10.801-11.8 23.6-13.8 38.1-7.6 6.701 2.897 13.5 5.698 20.802 6.8 9.698 1.5 15.101-1.3 19.399-10.102 1.5-3 2.3-6.301 3.699-9.301 4.7-9.699 12.899-13.897 23.6-12.1 9.201 1.5 18.201 4.2 27.5 5.3 4.701.601 9.302.7 13.9-.3 5.2-1.102 11.2-1.3 13-7.602 1.7-5.898-2.4-10.101-6.101-13.898-27.399-29-58.802-53-92.802-73.8-7.397-4.5-7.5-4.5-4.6-10.302 16.301 6.199 30.899 15.5 45.301 25 58.399 38.699 108.488 91.091 141.888 152.391 17.302 31.7 25.513 63.51 35.313 98.31 8.2 28.9 9.301 58.301 8.7 88.103-.603 27 2.5 52.897-5.302 79.897-3.698 22.103-11.198 44.2-17.398 65.603-.9 3.1-.4 7.3-4.9 7.6-4 .2-5.3-3.5-7-6.2-9.1-14.897-16.898-30.397-24.199-46.397 5.199 9.198 5.699 19.397 7.4 29.397.6 4-1.201 6.301-3.801 8.5l-.102.103c-.6.8 14 58.5 5.302 65.698 1.601 51.602-18.802 107.302-37.2 142.199-5.3 8.801-11.5 18.301-15.8 27.5-9.802 20.7-31.302 37.5-46.2 54.602-3.699.199-3.4-1.602-1.9-3.899 9.701-19.899 28.9-63.399 29.701-71.5-3.398 4.7-26.201 14.101-33.5 19.7-2.101.5-3-.302-2.398-2.4 32.6-56.399 50.6-117.899 62-181.5 10.898-60.5 15.398-121.5 14.3-183 0-2.7-.103-5.3-.2-8-1.8-1.1-2.1-4.8-5.699-7.8-.198 2.8-1.101 2.8-1.801 6.3-1.9 9.9-5.3 17.3-9.5 26.4-4.6 10-16.199 31-20.8 41-9.5 2.199-4.8-14.801-4.899-18.5-.101-22.7-3-45-6.399-67.4-4.5-29.3-14.101-57.1-25.399-84.399-2.279-6.502-2.98-8.604-8.98-5.304zM1199.8 1659.5c23.302-27.1 41.2-82 39.5-127.397-.398 5-.601 12.397-.3 19.8 1.6 38-6.101 74.2-20.101 109.2-3.102 7.8-2.5 15.3-1.102 23 2.602 16.3 2.899 32.397-3.898 48-2 4.6-4.2 9-6.302 13.5-.398 5.5 2.602 5.699 6.199 3.5 3.701-2.2 6.701-5.5 9.603-8.603 32.3-34.1 58.5-72.3 75.897-116.1 13-32.801 18.603-66.5 9.4-101.4-6.199-23.397-15-45.5-33.602-62.3-11.392-13.742-29.575-31.855-43.398-40.7-7-7.8-16.699-11.198-25.9-15.198-14.1-6.102-27.897-12.699-38.1-24.699-22.801-26.9-26.801-58.5-21.801-92.101-.102-22.2.301-44.399-.5-66.602-.699-20-3.602-39.601-14.102-57.301-1.699-5.6 1.602-12.3-5.299-16.899-22.101-14.698-35.201-36.898-48-59.301v.101c-1.5-.8-.9-2.898-2.301-3.698-6.602-11.102-13.301-22.302-17.5-34.5-6.9-20-9.9-40.5-6.699-61.602-2.5-1.5-2.5-3.801-2.9-6.601-1-6.5-3.301-12.7-6.801-18.2-2.8-4.3-5.699-9.5-12-8.8-5.8.601-9.199 4.8-11.5 9.9-.6 1.198-.898 2.5-1.5 3.698-1.1 2.302-1.199 5.699-4.5 5.802-3 .1-4.397-2.7-5.8-4.9-5.2-8.1-10.3-16.3-15.5-24.399-2.2-3.398-5-5.198-9.1-4.801-4.4.4-5.7 3.603-7.2 7.103-3.4 8-.2 15.198 1.8 22.6-1.899-7.7-4.8-15.1-7.3-22.6-7.9-23.603-15.8-47.302-19.3-72.2-.7-5.2-2.4-10.802 1.897-16.602 7.603 12 11.5 24.399 17.603 35.8.5.802 1 1.602 1.6 2.302 5.8 3.898 8.2 10.3 11.7 15.898 1.898 2.899 4.6 4.699 8.3 4.102 4.101-.602 5.2-3.5 5.7-7l.3-3c.2-1.9 0-4.5 2.101-5.2 2.899-.899 4 1.8 5.102 3.7 2.7 4.6 4.898 9.398 6.8 14.398 1.4 3.699 2.601 7.5 4.101 11.199 1.5 3.801 3.399 7.801 8.102 7.5 5.1-.3 5.7-5.1 6.7-8.8 2-7.1 1.698-14.6.6-21.7-1.2-7.897-1.3-15.399 1.3-22.899.102-1 .301-1.898.4-2.898-.8-6.3-6.602-8-10.5-11.102-18.5-14.101-36.9-28.101-51.7-46.398-6.3-7.8-12-15.8-18-23.8-2.7-3.602-5.399-6.102-9.6-1.9-23.103 48.9-23.802 97.5 1.5 146 6.6 12.7 14.3 24.801 22.3 36.7 16.898 25.2 22.3 52.101 12.7 81.601-6.603 20.302-14.2 40.199-21.4 60.199-7.1 19.7-14.6 39.4-16.5 60.5-2.8 31.102-3.6 61.4 12 90.5 11.601 21.7 25.3 41.301 42.5 58.602 5 1.301 6.7-1 6.4-5.699-.2-3-1.302-5.801-2-8.602-7-27.198-10.9-54.398-7.103-82.698 2.4-18.302 8.603-35.5 12.5-53.302 1-4.5 4.2-7.301 9-7.698 5.9.6 6.4 4.8 6.301 9.5-.301 13.397.899 26.6 2.5 39.8 3.802 30.6 14.602 59.4 23.802 88.6 6.6 21 15.1 41.2 26.198 60.302 21.802 37.301 51.899 66.698 88.302 89.398 11.3 7 18.1 16.2 22.397 28 1.9 5 3.9 9.9 5.2 15.102 4.4 18.101 8.2 36.198 4.2 55.198-8.102 38.802-29.602 68.603-60.2 92.5-12.2 9.5-26.3 13.9-41.7 15.103-18.199 1.397-35.897-.9-53.199-6.4-3-1-6.1-1.699-9.698-2.6.601 1.5.698 2.397 1.101 2.698 18.602 13.399 38.299 23.899 61.5 27.102 17.602 2.398 35.199 2 52.799 1.301 22.001-4.409 40.9-13.009 56.001-30.609zm758.3-488.4c-.698-2.601-.5-5.5-4-5.899-3.1-.301-4.898 1.8-6 4.3-5.398 11.603-9.6 23.603-9.898 36.603.6-8-2.5-15.603-3.199-23.5-.4-4.9-2.101-9.801-7.601-10.301-5.899-.5-5.899 5.301-7 9.198-5.899 19.7-4.802 39.7-2.802 54.802-1.301-22.199-4-49.399-7.698-76.5-2.399-17.5-3.399-34.699 4.101-51.899 5.699-13.101 7.699-27.601 5.8-38.801-.601 12.398.602 28.101 1.8 43.898.7 9.602 5.2 13 11.4 2.302.1-.302-.7 2-.101 1.1 2.101 13.9 4.601 28 4.5 42.4 0 3.6.398 7.8 5.101 8.5 4.8.698 6.3-3.302 7.399-6.7 2.8-7.699 4.7-15.699 3.898-23 .102 6.898-.5 15 1.5 22.7 2.5 9.5 5 18.8 5 28.698 0 2.802.302 6.102 4 7.102.2-1.602.7-3.199.7-4.899.199-22.2-.301-44.5.699-66.7.5-11.8-1.102-23-3.199-34.397-2.601-14-4.5-28.2-6.7-42.301-1.398-13.302-1.198-26.7-.101-40 .2-.7.301-1.302.5-2 .2-9.102-7.3-12.5-12.899-17.102-8.8-7.101-12-6.601-17.198 3.8-11.5 22.9-22.5 46-30.802 70.302-4.8 14.101-10.5 28.198-11.898 43-2.602 27.398-4.2 55-.399 82.5 6.199 44.898 18.6 89.698 53.5 121.198 17.6 17.802 37.3 31.103 58.399 44.802 17.3 11.198 35.398 21.301 51.8 33.898 33.801 25.899 53.602 59.399 55.602 102.602.602 12.301 1.102 24.601 1.602 36.898l-.2-.2c2.2-1.5 2.2-4 2.7-6.198 4.699-22.699 5.898-45.802 2-68.5-8.801-51.602-31.2-96.399-69.5-132C2024 1307 2006 1295.5 1990.8 1282.1c-17.8-15.699-25.897-35.899-26.6-59.3-.2-6.302-.2-12.602-.2-19-5.1-10.2-2.9-21.9-5.9-32.7zm-681.901 219.3c3.5-15.4 2.898-31.101 2.6-46.7-.5-22-3.898-43.8-10.299-64.898-9.701-31.899-29.4-56.302-58.9-72.5-10.6-5.899-20.301-12.802-25.698-24.199-9.802 14.699-8.103 29.8 5.101 40.199 15.399 12.101 27.699 26.801 37.6 43.601 6.802 11.5 11.4 24.101 17.199 36 6.301 13.101 10.4 26.601 12.7 40.8 3.601 21.802 3.8 43.802 3.7 65.7 0 5.3-.4 10.7 2 15.7 7.598-10.003 11.198-21.703 13.997-33.703zM1950.5 826c16.899 14.302 30.399 31.4 42.5 49.9 14.6 22.3 24.699 46.399 31.1 71.899a345.394 345.394 0 0 1 10.102 70.898c1.301 33.899-2.5 66.899-16.4 98.399-3.699 8.4-4.897 17.9-7.199 27-.6 2.5-.398 5.101 2.199 6 3.301 1.101 3.301-2.5 4.5-4.1 6.4-9.4 9.9-20.2 14.103-30.7 7.601-19 12.8-38.5 14.101-58.899 2.398-35.7-.102-71.101-8.601-105.898-11.103-45.9-32.399-86.301-64.899-120.7-6.801-7.2-18.5-18-28.101-24.3-2.005 6.803 1.095 15.803 6.595 20.501zM949.4 1278.2c-.899 20.8 7.698 58.602 16.3 76.602 14.898 31.101 37.7 56.398 62 80.198 22.1 21.603 45.1 42.302 70.398 60.4 20.602 14.8 41.9 28.3 64.802 39.199 5.898 2.801 12 5.5 18.5 6.898 2.5-10.3 2.198-11.198-6.399-14.5-15.601-5.898-30.101-14.3-44.101-23.101-35.2-22.3-66.302-49.899-96.7-78.199-11.899-11.101-22.101-23.898-32.399-36.5-18.398-22.398-32.101-67.101-39.199-95.301-2-8.1-6.101-14.5-11.399-21.399-1.903 2.403-1.703 4.003-1.803 5.703zm1104.498-75.2c-6.897-3.5-12.897-7.698-18.3-13.397-10.301-10.7-21.2-21-31.898-31.4-2.802 8.5-1 17-.5 25.602.398 8 4.301 12.301 11.398 15.698 24.4 11.5 50 19.603 75.5 28.103 2.602.897 5.102 1.3 7.8.6-14-9.506-29-17.404-44-25.206zm35.602 107.5c-.398-2.6-1-5.198-1.2-7.8-.8-17.398-4.898-34.101-12.198-50-3.802-8.301-6.7-19.5-17.4-18.601 1.9 4.7 5.4 20 7.301 24.5 11.5 27.399 14.301 55.801 9.602 84.899-1.102 6.601-3.102 14.199 2.898 18.601 5.497-16.297 13.497-35.797 10.997-51.599zm-89.801-288.5c-1.4-1.8 0-4.398-1.602-6.198-.301-1.602-.5-3.302-.898-4.899-6.9-28.7-19.699-57.101-38.199-79.5-2.5 2.8-6.101 10.8-7.5 14.101-3.601 8.602-2 15.102 4.699 22.102 14.5 15 27.1 31.6 36.898 50.199 1.602 3.101 2.802 6.898 7 7.801-.097-1.106-.197-2.304-.398-3.606z"/><path id="sd1" fill="#643134" d="M1956.199 1006c-5.199-4.198-10.199-8.6-15.5-12.6-5.801-4.4-7.199-4.2-10.5 2.399-10.602 21.5-20.602 43.199-29 65.699-2.699 7.199-5.4 14.301-7.4 21.699-8.5 30.5-8.799 61.699-6.6 93 2.301 33 10.898 64.199 26.801 93.301 6.399 11.699 14.3 22.399 22 33.199.8 1.102 1.3 2.301 1.899 3.5-12.7-7.101-22.602-17.5-31.899-28.398-16.5-19.302-30.5-40.302-43.9-61.899-6.301-10.101-9.698-20.7-10.698-32.5-.5-6.601-3.2-13.801-3.5-20.5-.302-7.5 1.698-14.601 5.601-21.2 17.899-30 27-68.8 33.199-103.2.699-4 4-23.198 5.6-26.897 15.5-36.5 31.201-61.301 41.201-99.801.6-2.199.899-4.602 3.899-6.699 6.897 5.6 15.897 19.8 20.8 27.1-.4 5.4-1.199 14.2-2.3 19.602-.802 4.101.897 7.898 3.698 11 17.102 18.601 31.699 38.801 40.602 62.699 3.801 14.399 6.6 29 8 43.899-.102 2.2 3.398 5.601-2 6.101-3.102-10.5-5.9-21.101-9.699-31.5-5.601-15.199-16-26.601-28.4-36.5-3.703-2.604-7.503-3.904-11.904-1.504zM1136 1156.302c4-.602 6.1 2.301 7.6 5.301 2.102 4.1 4.102 8.399 5.602 12.8 3.5 9.802 14.992 20.307 16.492 30.607 2.6 18.199-8.392 36.192-7.992 54.492.1 3.5 2.947 32.096 5.049 34.998 3.75-16 2.764-22.029 4.151-27.998 6.849-29.752 32.8-5.802 45.3 8 4.801 5.198 8.301 11.198 11.2 17.601 5 11 8.398 22.5 10.601 34.3 6.5 35.102 9.399 70.602 10 106.302.1 3.5-.801 7.198 1.5 11.3 7.5-5.5 12.3-12.5 16.699-19.8-.4-6.602 2.6-12.602 2.801-19.2 1.1-39.899-2-78.899-20.5-115.602-11.601-23-22.301-46.898-43.101-62.698-16-12.2-20-26.5-17.399-44.602-.801-5.601-1.7-11.101-2.301-16.699-1-8.5-1.301-9.5-10.102-10.602-10.801-1.398-20.301-5.6-29.398-11.398-7.301-4.602-14.602-9.102-21.801-13.801-7.5-4.898-14.199-10.699-20.102-17.601-7-8.3-14.699-16.102-22-24.2.201 6.5 2.801 12.2 5.701 17.801 8.699 17.102 20 32 35.799 43.102 5.602 4 9.9 8.6 11.801 15.3.2-3.305-.1-7.105 4.4-7.703zM1620.699 743.6c1.801 26.601 4.1 53.101 6.6 79.7 4.102 43.8 10.602 87.398 9.201 131.5-.101 2.8-1.101 6 2.699 9.198 7.801-9.5 15-19.3 20.5-30.3-2-4.2-.9-8.5-.199-12.7 4.199-27.398 3.299-55 1.699-82.5-1.102-20.198-3.4-40.3-5.301-60.5-2.399-26.6-7.5-52.6-16.399-77.8-5.101-14.5-13.601-26.5-25.399-36.2 2.599 26.502 4.8 53.002 6.599 79.602zM1201.9 1757.802c2.898 1.801 5 .301 7.101-.399 9.399-3.5 18.8-6.899 28-10.7 39.1-16 63.899-44.398 73.899-85.698 9.8-40.602 12.3-81.7 6.5-123-4.102-29.7-18.102-54.7-38.802-76.102-1-.898-1.898-.801-2.698.302 11.698 12.8 18.398 28.198 23.5 44.698 9.101 29.5 11.898 59.199 3.601 89.5-15.601 57.102-47.9 104.102-88.4 146.102-1.898 1.898-3.801 3.8-6.898 3.398-2.903 3.399-5.203 7.297-5.803 11.899zM1057.199 929.7c1.898 5.3 5.1 10.102 7.301 15.3 1.399 3.5 3.3 5.7 7.399 4.9 5.198-3.601 10.3-7.301 15.601-10.801 6.6-4.399 6.899-4.5 2.6-11.199-10.801-16.9-20.5-34.301-28.6-52.601-1.9-4.301-4.601-7.301-9.4-8-10.698-1.399-18-8-24.5-15.801-17.199-20.698-29.6-44.198-40.6-68.6-4.301-9.399-7-19.399-8.7-29.7-.3-2.101.602-4.8-2.7-6.5-13.3 15.7-25 32.5-33.1 51.5 3.199 1.399 5.1 4.102 7 6.899 12.699 18.801 27.3 35.801 44.8 50.4 11 9.199 22.8 17.199 33.8 26.3 12 14.603 22.599 29.903 29.099 47.903zM1137 977.9c.3-3.4 3.199-12.4 2.5-15.2-2.2-9.101-4.7-18.101-6.601-27.2-10.899-50-11.102-100.8-6.802-152.1 1-11.9 1.602-25.9 2.9-37.801-9.5 5.399-24 13.301-33.7 18.5-5.101 2.7-6.898 6.399-6.398 12.101 2.101 23.5 3.698 47.102 7.3 70.399 5.101 33.301 12 66.101 24.801 97.4 1 2.5-4.601 10.6-5.301 13.3 5 7.901 13.701 15.201 21.301 20.601zm-87.4 399.902c.302.198 1.102-.302 1.802-.5-1.2-4.302-4.302-7.5-6.5-11.102-34.2-55.101-40.2-116-36.802-178.801.302-5.1 1.9-9.8 6.302-13.1-7.399-.801-10.5 4.1-13.2 9.898-10.199 22.199-14 45.699-14.899 69.802-.8 22.397 2.5 44.397 8.8 66 1.2 4.1 3.2 8.198.602 12.5 15.895 17.401 33.895 32.501 53.895 45.303zm1027.798-158c-17.5-8.102-35.897-13.802-53.5-21.699-7.897-3.601-14.397-8.4-15.601-17.7-.899-7.5-2.899-14.8-4.6-22.101-4.102-3.899-6.199-11.101-10.5-14.8-4-3.5-18.8-21.7-24.4-23-2 3.3-1.5 6-1.5 8.601-.199 15.6.301 31.3-.799 46.899-.801 11-1.9 23.398 22.899 38.101 3.397 1.399 6.5 3.3 9.8 4.8 20.801 9.899 43.6 12.102 65.899 14.802 16.601 2 31.801 5.8 46.601 12.898 2.301.3 3.301-.601 2.899-2.898-4.899-5.802-10-11.602-16.699-15.4-7.499-1.405-13.897-5.503-20.499-8.503zM1395.4 670.4c-3.7 9.3-6.302 17.899-9.899 27.3-9.801 25.602-12.101 53.2-7.7 80.399 6.7 41.101 18.602 80.899 33.102 119.9.398 1 .8 2.6 3.198 1.398-2.898-25.601 1.9-55.2 1.602-81.101-2.5 5.7-5.8 15.5-5.8 21.399-.103 7.801 0 15.601 0 23.801-3-1.102-3.103-2.9-3.5-4.4-8-31.8-9.802-64.399-9.399-96.899.299-31.199 5-62.199 11.799-92.699.601-2.898 2.101-5.898.801-8.801-1.398-3.199-5.1.102-7.1-2-.9-.898-2.101-1.601-3.2-2.398 1.895 5.003-2.004 9.301-3.904 14.101zm-200 1005.8c15.8-7.2 15.8-7.301 22.398 8 .301-5.7 2-11.101 4.2-16.398 7.3-16.899 12.5-34.399 16.5-52.302 6.8-30.198 7.399-60.698 3.399-91.397-.5-3.7-.602-7.802-5.399-11.603-.9 11.4-2 21.5-2.5 31.7-1.601 30-8.301 58.699-21.4 85.699-7.898 16.301-18.898 30.5-33.398 41.801-10.699 8.399-22.699 13.699-35.4 18 18.3-.8 35.3-6 51.6-13.5zm585.1-985.5c1.399 5.102 2.899 10.2 4.399 15.3 10.698 36.5 17.8 73.602 17.601 111.802-.2 22.3.699 44.5-.5 66.8-.101 2.101-1 4.5 2.399 7 6-14.3 11.8-28 17.601-41.602-1.601-3-2-6.3-2-9.698.199-12.602-.601-25.2-1.9-37.802-3-29.5-8.301-58.6-18.6-86.5-3.7-10-7.7-19.8-13.301-29-4.301-7.198-6.9-7.6-14.301-3 4.902-.3 7.402 2.302 8.602 6.7zm-559.9 715.9c-12.801-11.699-25.898-22.899-38.6-34.601-10.301-9.5-19.7-19.699-26.801-32-5.9-10.301-9.301-21.301-9.301-33.199 0-6.301.102-12.602.199-18.899-7 18.699-5.6 38-2.199 56.8 4.602 25.7 20.199 44.102 43 56.602 14.301 7.898 29.699 13 45 18.601-1.298-6.304-6.998-9.304-11.298-13.304zM1428 782.7c4.3 10.8 8.699 22 12.699 32.7 11.6 31.199 23.699 61.6 31.199 94.1.5 2.102.301 4.7 3.301 5.4 2.398-2.601 2.6-6.101 3.699-9.2 11.398-33.398 23.699-66.5 38.398-98.601 2.102-4.5 4.602-8.899 6.9-13.3 2.5-4.7 6.301-6.7 11.6-5.301-10.799-4.399-15.1-3-20.799 7.801-14 26.5-26.602 53.601-36.201 82-1.199 3.601-1.199 9.8-5.1 9.898-5 .102-4.699-6.3-5.9-10.101-10.398-32.3-19.398-64.899-27.6-97.8-9.199-14-14.9-17-16.5-12.8 1.104 5.004 2.003 9.604 4.304 15.204zM1890.199 954c2.398 15.5.898 21.5 1.1 37.102 0 2.898 1.301 11 6.701 7.898 1-1.8 1.699-2.898 2.199-4.1 14.398-24.601 24.199-53.601 30.6-81.5 2.801-12.2 5.9-29 4.801-41.801-1.198 3.801-6.5 11.801-7.5 15.7-4 15.5-7.698 31-11.698 46.398-.802 3.302-.802 7.302-5 9.399-3.899-4.6-6.5-9.699-9.103-14.6-7.1-13.2-14-26.5-21.1-39.7-1.301-2.399-1.9-5.8-5.699-5.8-.399.8-1.101 1.398-1 1.898 2.8 16.3 9.199 47.8 11 64.399 8.6.807 3.5-2.991 4.699 4.707zM1736 786.7c-1.7 30.3 6.6 59.399 2.199 82.102.199 1.898-1.699 4.3 1.5 6.101 3.5-11.101 8-21.7 10.199-33.101-3-9.302-3.199-18.899-3.801-28.5-1.301-20.302-5-40.2-12.1-59.302-.798 11.9 2.702 20.802 2.003 32.7zm-492.301 246.5c10.699 22.8 22.801 45 34.301 67.5 10.899 21.399 21.8 45.899 40.399 61 9 12.3 44.198 38 57 44-4.2-7.301-36.7-37.398-41.899-43.898-26.801-32.802-49.5-68.399-71.801-104.302-7-11.3-12.9-23.198-21.5-33.5.301 3.4 2.101 6.2 3.5 9.2zm28.201 80.4c-19.399-35.199-37-71.199-53.899-107.602-2.7 4.2-1.301 8.2.1 12.4 16.199 47.499 39.102 91.601 67 133.199 2 3 3.9 6.2 7.102 8.2-6.603-15.397-12.203-31.495-20.303-46.197zm61.2-31.7c1.199 1.1 2.4 2.3 3.602 3.5 9.898 9.3 19.801 18.6 29.898 27.8 2.302 2.102 4.102 5.302 9.4 4.802-2.9-6.399-4.2-12.802-7.601-18.5-4.602 3.8-6.5-1-8.802-3.102-20.1-19-39.1-39-56.1-60.898-2.2-2.899-4.101-6.399-10.101-8.7 4.601 9.301 8.101 16.801 12 24.101 6.198 11.399 19.198 21.899 22.101 34.802 2.103-9.305-1.397-9.903 5.603-3.805z"/><path fill="#448986" d="M1035.5 686c-6.801 61.602 1.699 123.9 27.8 181.802-7.8 1.5-11.5-2.5-15.198-5.602-7.7-6.5-14.602-13.5-20.5-21.101-13-16.699-25-33.899-34.9-52-8.399-15.3-13.3-31.199-11.8-48.199.5-6 2.898-10.7 8.101-15.301 11.1-9.699 21-20.3 32.699-29.601 2.997-2.398 7.298-9.098 13.798-9.998z"/><path fill="none" stroke="#000" stroke-miterlimit="10" stroke-width="6" d="M1049.6 1377.802C867.3 1248.7 959.3 1138 974.2 1076.601c10.898-30.399 19.801-57.199-14.602-105.8-56.398-82.601-26.898-135.4-22.398-160.5 4.5-25.102 46.801-75.5 52.398-82.899 5.601-7.399 40-38.5 40-38.5l17.199-27.101C1151 401 1444 370 1459.199 370.801 1474.4 371.6 1583 354 1729.4 442c146.4 88 187.6 208 197.6 245 30.5 75.5 5 229 5 229-5 37.5-39 92.5-39 92.5s-4.5-77-4-68.5 3.399 18.2 0 86c-25 153-113 208-101.7 197.4 11.302-10.601 28.7-80.4 30.399-74.9 1.7 5.5-40.602 26.4-36 17.302 55.2-112.802 51.601-153.8 65.5-202.3 16.101-114.2 7.398-189.502 5.398-172.899-2 16.602-71.3 144-52.698 102.699 8.398-148.8-27.302-222.699-23.802-208.699.5 97.3-40.198 196-36.5 190.3 3.7-5.7-9-199-16.1-120.5-7.101 78.5-90.9 242.2-84.301 209.602 6.601-32.602-29.3-374.7-29.899-300-.601 74.699-45.3 207.3-69.101 223.898-1.1-107.8-4.399-99.398-16-94.101-11.6 5.301-34.5 81.301-51.1 127.301-21-73.5-49.302-144.899-49.302-144.899s-9.5 32.301-9.698 123.101c-78.5-149.3-11.7-240.601-14.802-243-3.101-2.399-35.698 84-46.601 126.801C1306 916 1374 1121.302 1374 1121.302s-46-49.302-44.2-42c1.802 7.301 4.2 20 47.899 125.101C1298 1190.802 1224 996 1221.5 1003.302c-2.5 7.3 82.6 163 85.899 193.301-65.302-20-130.7-150-159.7-212.7s-21.602-200.101-16.3-239.3c-21.302 113.3 12.698 235 9 234.3-3.7-.7-14-6.3-14-6.3-125-133.7-84.7-335.301-85.302-296.301-8.698 34-5.3 108.301 21.302 195.301-72.7-39.7-84.802-141.2-86-127.5C1007 856 1054.9 868 1058 870s32.1 57.802 34.899 64.4c2.8 6.602-24.602 15.199-24.602 15.199s-34.3-60.5-31.2-56.3c3.102 4.2 27.4 58.601 21.602 69.7-5.8 11.1-13.602 64.898 3.101 95.101 29.7 60.699 86.7 88.899 96 93.1 9.302 4.2 26.2.2 23.602 11.7 5.3 35.5 10.398 30.3 37.3 48.6 65.9 34.802 60.301 137.9 59.601 166.103-.7 28.201-30.861 67.692-31.161 52.792-.3-152.7-51.891-186.145-72.618-176.825-9.3 8.601-10.673 43.73-11.773 40.93-.478-1.217-7.344-17.324-6.5-39 .548-14.07 10.009-30.769 7.305-46.302-2.716-15.599-5.561-32.76-16.852-41.896-15.203-12.302-25.703-22.802-16.452-6.925 22.199 61.5 18.452 74.425 16.053 115.925-8.101 72.5 55.399 113 55.399 113l27.4 24.5s65.502 56.5 81.502 97c25.898 139-15.602 196.5-39.5 215.698-23.9 19.2-77.602 38.302-69.102 31.103 8.5-7.2 19.102-41.802 16.602-69.302s-15.699-15.5-21.302-13.101c-5.601 2.4-32.101 11.4-32.101 11.4-97.1 17.199-143.6-27.801-136.6-28.103 7-.3 44.5 20.302 90.301 2.5 99.199-80.198 71.699-126.198 68.799-161.198-2.899-35-25.199-29-81.5-83.199-62.699-68.801-83.799-199.5-85.6-227.301-1.802-27.802-11.102-9-11.102-9-18.6 123.101 41.102 198.898 41.102 198.898M1847.9 1149.5c-2.102 56.2 16.698 81.103 58 128.5 41.3 47.4 41.3 47.302 105.3 86.9 93.399 57.199 87.301 99.5 92.7 163.1 17.898-65.3-.602-98.1-22.899-150.897-22.298-52.799-62.301-70.9-86.5-91.7-24.198-20.8-34.5-44.8-29.5-103.399 5-58.601.699-57.301-6.198-113.898-6.899-56.603.3-63.103.3-63.103s28.2 5.103 47.1 70.802C2009.3 967.7 1934 902.002 1934 902.002m30.6 285.8c8.699 25.301 46.802 40.198 65.302 40.898 18.499.699 60.601 10 84.7 15-8.802-21-60.7-33.601-73.7-49.198-13-15.603-75.2-79.802-75.2-79.802m87.997 116.8s31.801 49.103 20.301 115.103c-6 26 10.5 10.5 12.8 0 2.302-10.5 9.7-74.301-17.398-112.301M1942 818.5s147 113.5 69.1 323.4c-4.801 27.399 12.199-6.2 15.199-13.7S2104 943.302 1944.5 802.5M948 1264s-24 152 233.5 277.4c12.899-8.5-9-14.9-18-22.4-9.5-5.6-184.5-87.5-200.7-227.5"/></svg>