<svg xmlns="http://www.w3.org/2000/svg" id="hair" viewBox="0 0 3000 3000"><switch><g><path id="cl1" fill="#603A3B" d="M1440 326c30 17 112 24 161 43 77 19 101 91 100 81s-52-60-52-60-24-124-18-111 84 74 104 105 16 87 24 98 100.941 90.604 113 119c48 126 22 294 18 313s-59 113-46 74c-7-159-67-277-67-277l5-110s0 51-10 109c-52 118-175 180-172 176s124-170 117-162-135 129-278 178c37-93 194-330 194-330s-72 113-113 167c-82 105-207 147-207 147s-92 31-173 58c12-79 336-336 328-332s-218.371 192.675-247 218c-19 9-101 130-108 139s-26 38-52 112-117 117-97 101c18-52 50-115 48-193 2-18 20-75 39-150s84-179 177-262c-39 20-84 76-163 209-48 29-92 157-126 248-6-21-29-88-1-167s98-190 191-283c-89 83-168 229-168 229l-140 45s91-96 96-107 55-84 55-84c114-163 361-233 361-233-95 16-279 128-334 194-18 3-228 17-239 0 144-46 464-227 502-241s135-18 286 35c-164-64-276.895-43.35-276.895-43.35-115.494-88.496-95.996-250.487-95.996-250.487C1189.219 152.326 1410 309 1440 326zM930.669 995.443S878 1048 875 1049s62.669-17.557 62.669-17.557l-7-36zm139.216-209.689C977.091 917.509 949 1024.024 949 1024.024l64.125-32.524s39.466-153.491 56.76-205.746zm-7.884 292.41S1094 1148 1112 1169s43 62 42 72 18-68.836 17-81.418-5.667 55.751-5.667 55.751 20 16.666 30.667 95.999c2 46 23.333-68 23.333-72S1208.667 1192 1208.667 1192 1236 1283.333 1240 1342.666c-2 20 32.667-55.333 26.667-94.667l.699 41.333s8.635-19.333 59.301 63.333c8 28 12.666-76.667 12.666-76.667s-94.667-59.333-123.333-121.333c-99.333-5.333-134.667-72-143.333-86.667-3.562-9.253-10.666 10.166-10.666 10.166zM1119.443 960s51.89 100.666 111.224 141.333C1224 1048 1220 1018.666 1220 1018.666s-20.438-61.295-17.219-95.647c4.161 45.987 11.219 83.697 21.885 101.006C1235.332 1041.333 1250 1107.334 1368 1204c-31.334-78.667-35.334-87.333-44.001-148s-9.787-146.001-20.894-166.667c-136.439 42-183.662 70.667-183.662 70.667zm.682 3.125C1115.669 964.845 1098.5 999 1098.5 999l32.018-19.114s-5.937-18.481-10.393-16.761z"/><path id="sd1" fill="#452A2B" d="M1716.5 489.5c9.991-20.303 6-75 6-75 12 12 18 89 18 89C1783 516 1832 615 1827 610.5s-72.5-86-82.5-82-12.5 94-12.5 88.5-22-106.5-27.5-111-84.5 22-78 18.5 24-17 30-27 10.5-15.5 29-25.5C1578 459 1557 460 1557 460c96-20 122.5 4 122.5 4s-8-7.5-9-16-5.5-26.5-5.5-26.5l51.5 68zm-90-201.5s20 89.5 21 97 57.5 62 58 66.5S1640 294 1640 294l-13.5-6zm-444-114s7 89.5 39.5 140.5 53.5 65 55.5 66.5 80.5-28.5 273 44c-1-14-28.5-28.5-38.5-30.5-38-21-159.5-27-241-98.5-54.5-35-90.5-112.5-88.5-122zM760 634c20 6.5 233 1.5 243-9 73.5-76.5 202.5-142.5 202.5-142.5s2-5.5-3.5-3.5c-60 0-193.5 70.5-238.5 88.5S816 608 816 608s-53.141 17.737-56 26zm361-45s-64.5 26.5-153.5 153.795C923.5 800.5 842.5 849 830.5 851.5s-12.5 14.5 24 0 104.5-40 104.5-40 68-97.5 73.5-109 78-111.5 88.5-113.5zm103-6s-102.5 21.5-203.5 251c-47 90-78 195.5-78 195.5l44-25s32-116.5 55-140c13.5-49.5 26-72.5 26-72.5s41-118 156.5-209zm218.5 53.909S1141 874.5 1128 948.5c-7 6.5-4.5 15-4.5 15s43.5 83 73.5 107.5c-30-63-39-80-39-102 .696-4.438 44.5-17 44.5-17s5.5 43 16 65.5 50.5 114.5 146 183.5c2.316-10.402-4.5-15.5-4.5-15.5s-139-123.5-130-236c11-13.5 66.5-32 75-42 8 5.5 1.5-21 1.5-21S1173 935.5 1170 936s20-29.5 182-190c24-25.5 70.5-60.5 73-69s16-25.683 17.5-40.091zM1439 902c162.5-66.5 269.5-178 284-179.5 3-1 29-80 20.5-72.5s-285 216.5-285 216.5S1440 896 1439 902zm337-241s-13 71.5-151 207c-15.5 8.5 100-53 148-159.5 7.5-23 69.473 151.412 72.5 264.5 25.572-40.882 16-273-59-362l-10.5 50zm-673.5 451.5l14 59s39 65 40 67 8-28 8-28 16.5 17 18 33.5 15 66.5 15 66.5l20.5-68 6 2.5 17.5 96s14.5-13.5 21.5-57c1.102-6.905 2.5-21.5 2.5-21.5l1.5 18s23-1.5 63.305 76.312C1339 1385.5 1340.5 1282 1338 1274.5s-102.5-62-125.5-122c-46 7-93-26.5-110-40z"/><path id="hl1" fill="#845354" d="M1220 228.667C1279.667 271.333 1328.333 293 1328.333 293s-25.542-24.334-43-34c22.333 11.667 120 71 206.333 97.333-64.333-1.333-146-42.667-146-42.667s38.333 31 32 27.667-83-46.667-83-46.667 7.667 14 26.667 36.667c-65.333-38.333-97.667-78.667-97.667-78.667l25 13.667c.001 0-32.999-40-28.666-37.666zM830 601.333c94.667-14.667 150-42 165.333-48.667s160.667-66.667 168-68 50-3.333 50-3.333 88-34 79.333-39.333-73.059 10.667-73.059 10.667 89.059-40.667 95.059-45.112c-8.667-16.445-95.059 0-95.059 0S887.333 581.999 830 601.333zm430-135.335s-160 53.333-253.333 158c-28 33.333 80-63.333 95.333-64.667-95.333 86.667-167.333 197.333-184 235.333 25.333-14 145.333-192 199.333-202 .667-4.001-12.666 18.666-12.666 18.666l50-32.667s5.333 5.333-114 114c-8.168 9.836-20.667 26-20.667 26s78.667-61.333 92.667-67.333 22.667-8.667 16 1.333 30.667-34 42.667-41.333 43.333-24 45.333-25.333-38.667 34-54.667 52.667-46.667 62-51.333 72 66.667-57.333 66.667-50c4.415-3.414 12-6.667-10 22C1135.5 717 1052.5 850.5 1040.5 879l-11.5 41.5S1155.5 728 1235 683c17-12.5 12.5-4.5 2 7.5 0 0-138.5 160.5-194.5 256.5-16.5 26.5 145.5-187 297-286.5 37-19.5 16-1.5 11 3.5s-144 133.5-186 192c-9.5 13.5 123.328-132.177 214.5-179.5 10-6.5 16.5-4 14.5-.5s46-33.5 46-33.5-11 35-14.5 34.5-125.5 120.5-125.5 120.5 70-41 73-41.5 29.5-9.5 1.5 17-149.5 136-149.5 136l14-3s234.5-153 282-225c0 0-85.167 121-97.167 126.333S1472.667 780 1472.667 780L1526 730.667l2.667 2 114-86.667s-154 190.667-162 193.333 210-166.667 241.333-234.667C1713.334 612 1638.667 632 1630.667 638s66.167-53.333 70-92.667c2.667-30.667-163.334 65.333-174.667 72.667s-44 22.667-7.333-6.667 70-60.667 70-60.667-160 82-166.667 82.667-27.333 6.667 10.667-20 52-38 52-38S1342.667 636 1340 636s-38 12.667 4-20 46.667-36.667 46.667-36.667-76.667 30.667-96 40-101.333 54-41.333 5.333 82-67.333 82-67.333S1222 614.667 1204.667 624s-48 20.665-.667-22.667 74.667-67.999 78-77.999-107.333 44.667-110 46 .667-8.667 19.333-20 64-44.667 66.667-53.333-57.333 11.333-64 15.333-26.5 11.166 12-13.334c21.176-10.378 54-32.002 54-32.002zM1241.5 954.5s6 73 13 85c3-28 8.5-41.5 8.5-42.5s14.5 66.5 21.5 70.5-.5-43.5 9-61c6.5 41.5 26 105 40 118.5-18.5-46-31.5-110-30-139s-4.5-48-9-54-2 22-3.5 36-3.5 32-3.5 32-5.5-34.5-20-57.5c0 0-1.5 46-5 51s-15-39.984-15.5-44.242-5.5 5.242-5.5 5.242z"/><path id="l" fill="none" stroke="#000" stroke-miterlimit="10" stroke-width="6" d="M1442 326c30 17 112 24 161 43 77 19 101 91 100 81s-52-60-52-60-24-124-18-111 84 74 104 105 16 87 24 98 100.941 90.604 113 119c48 126 22 294 18 313s-59 113-46 74c-7-159-67-277-67-277l5-110s0 51-10 109c-52 118-175 180-172 176s124-170 117-162-135 129-278 178c37-93 194-330 194-330s-72 113-113 167c-82 105-207 147-207 147s-92 31-173 58c12-79 336-336 328-332s-218.371 192.675-247 218c-19 9-101 130-108 139s-26 38-52 112-117 117-97 101c18-52 50-115 48-193 2-18 20-75 39-150s84-179 177-262c-39 20-84 76-163 209-48 29-92 157-126 248-6-21-29-88-1-167s98-190 191-283c-89 83-168 229-168 229l-140 45s91-96 96-107 55-84 55-84c114-163 361-233 361-233-95 16-279 128-334 194-18 3-228 17-239 0 144-46 464-227 502-241s135-18 286 35c-164-64-276.895-43.35-276.895-43.35-115.495-88.496-95.996-250.487-95.996-250.487C1191.219 152.326 1412 309 1442 326zM931.246 995.049S880 1048 877 1049s61.246-17.951 61.246-17.951l-7-36zm81.879-3.549l-69.387 35.152m120.263 51.512S1096 1148 1114 1169s43 62 42 72 18-68.836 17-81.418-5.667 55.751-5.667 55.751 20 16.666 30.667 95.999c2 46 23.334-68 23.334-72S1210.667 1192 1210.667 1192 1238 1283.333 1242 1342.666c-2 20 32.667-55.333 26.667-94.667 0 0 .324 39.24.665 39.331s8.668-17.331 59.335 65.335c8 28 12.666-76.667 12.666-76.667s-94.667-59.333-123.333-121.333c-99.333-5.333-134.667-72-143.333-86.667-3.562-9.253-10.666 10.166-10.666 10.166zM1121.443 960s51.89 100.666 111.223 141.333C1226 1048 1222 1018.666 1222 1018.666s-20.438-61.295-17.219-95.647c4.161 45.987 11.219 83.697 21.885 101.006C1237.333 1041.334 1252 1107.334 1370 1204c-31.334-78.667-35.334-87.333-44.001-148s-9.787-146.001-20.894-166.667c-136.439 42-183.662 70.667-183.662 70.667zm-24.609 39.224L1130.5 982m138.167 266s.099 39.698.474 39.748 8.859-17.748 59.526 64.919m-59.974-104.415s-.443 39.248.474 39.748c2.583 1.333 8.859-17.748 59.526 64.919"/></g></switch></svg>