<svg xmlns="http://www.w3.org/2000/svg" id="hair" viewBox="0 0 3000 3000"><switch><g><path id="cl1" fill="#F2D37E" d="M1266 389c206-94 336-34 441 21s239.068 184.635 248.067 349.627C1962.567 1029.614 1885 1117 1863 1157c-46 84-97 125-113 119 20-34 57-112 57-112s-17.282 16.639-45 29c38-53 101-327 86-398.426C1807 903 1787 918 1789 909s0-117 0-141-25-85-25-85v76c0 20-34 159-39 125s-5-134-5-131-17 76-34 127-67 105-68 102 9-52 0-90-27-246-23-236-18 103-22 138.574C1529 916 1514 901 1514 901V790c0 3-48 146-60 133-19-66-40.238-107.331-42-152-7 18-15 51-14 153-24-25-58-139-49-192-73 191 16 411 16 411s-45-34-60-54c8 23 67 144 67 144s-56-36-115-99c3 10 43 79 33 84-17-7-78-75-93-99s-68-161-68-161l-32-187s21 131 25.611 165.62c-16.5-6-94.495 16.499-61.497 113.994 68.997 134.993 157.491 157.492 157.491 157.492s-31.498-61.497-32.998-53.998c-1.5 7.498-53.998-16.5-85.495-44.998-31.498-28.5-87.828-107.589-91.496-128.995C957.619 651.633 1073.113 488.141 1189 434c13 .5 43.581 42.639 40.104 37.642-49.498-68.997-143.992-115.495-143.992-115.495C1170 313 1266 389 1266 389zm-157.227 102.78S987 435 869 521s-95 225-90 245 12.879 146 156.939 203c42.122 16 72.676 11.116 72.676 11.116S948 675 1108.773 491.78zM1051 481s2 38-62 83c-9.059 2.865-76.125-56.972-85.667-58 0 0-54 62.667-30.667 142 13.428 27.964 63.333-4 63.333-4l48-73.765C984 570.235 1045.333 524 1051 481zM936 644c-26 25.333-45.991 10.17-62 15.47-19.333 84 8.667 129.864 21.333 131.197S930 754 930 754l62 50-56.667-53.333 47.333-61.333L1008 686h-24.667l-48-37.333m-47.333-134C792.667 588.667 796.667 644 796.667 644l30.667 46.667 36-39.333c.667-42.001 7.233-76.835 24.666-136.667zm-99.333 126.666c-21.333 84 0 142 0 142l36.667-86.667-36.667-55.333zm72 268.667l6.15-98.667s-4.15 79.333.574 102c67.942 4.667 105.275-16 105.275-16s6.583 1.665 23.556 6.667C888.667 854 888 793.667 888 793.667L861.334 804l-68-20.667C790.001 868.667 860.667 910 860.667 910z"/><path id="sd1" fill="#C39958" d="M1107.773 493.78L1139 462l50-28 47 40.635 7 18.365-109-18s7-5-31 22c-115 160-106 307-102 317s13 25 45 35 53-66 53-66l29 165 65 117 9-75 53 92V982l61 77s9-72 9-57 22 85 40 141c-16-9-55-46-64-55 0 16 80 144 63.729 140.074C1295 1173 1255 1125 1257 1134s56 94 32 81-80-69-93-101c-21-26-66-150-66-150s-7.389-27.38-15-27-20.292-.066-34 9c-35 25-35 65-19.886 104.614C1128 1183 1218.605 1208.106 1218.605 1208.106S1199.54 1161.885 1184 1151c-81-16-116-85-127-93s-35-48-53-77c-108-7-171.333-74.334-191-119 31 22 49-29 49-29s9-27-.666-29c-91.334-20-80.249-19.413-80.249-19.413l13.583-33.254S824.001 775 840.001 779s24-32.048 24-32.048L866 686l-5-29-35.666 39.667-39.102-64.835s5-18 6-13S819 651 837 646c7-2 18.986-12.005 29-48 16-70 37.229-107.654 27.229-87.654C840.229 656.346 949 623 949 623s-7 9-18 22-47 14-47 18-14 75 21 83c53 11 67-77 67-77 12-122 79-188 79-188l56.773 12.78zM1397 927c-2-6-1-94-1-108s12-42 12-42l46 155 61-138-1 107c54.667-35.667 78-207 78-207s36.667 244.667 26 288c61-56 73.333-106 97-206-1.804 7.878 2.974 75.861 9.974 113.861C1765.974 814.861 1761 677 1763 685c27 73 29 224 29 224s54-89 57-121c-.334 227.333-87 405-82 402s40-26 40-26-49 98-48 110c99-120 140-286 140-286s-51 104-60 128c-3-44 13-71 32-194s-22-224-22-224-52 133-41 86-39-156-39-156l-40 174-27-75s-40 151-46 133c-44-183-61.632-194.646-61.632-194.646L1549 808.202 1536 727l-73 133s-46.845-150.237-57-165c-9 11-46.524 143.073-46.524 143.073S1399 933 1397 927z"/><path id="hl1" fill="#FFFDC9" d="M856 542s2.667 76-52 74.667c-1.333-17.334 49.333-71.334 52-74.667zm-23.333 154.667S817.333 757.333 818 762s22.667-21.333 23.333-26 10-27.333 10-49.333l-18.666 10zm62.666-10s-6 34.667 5.333 34 14-15.99 20-16.995 7.333 15.553 10.667 20.94c3.334 5.387 20-5.333 20-18.974 0-13.64 3.333-27.64-8-29.64s-42-7.331-48 10.669zm33.334-156l-13.333 14.667s-3.333 60 6.667 60 34.667-16.667 36.667-22.667 8-26.117 0-34.059c-8-7.942-30.001-17.941-30.001-17.941zm-9.334-15.334l124-12s9.333-10.667 8-24.667-133.241 3.094-140.667 22.667c-3.666 9.667 8.667 14 8.667 14zM1168 518s-15.333-10.667-31.333 20.667S1096.667 622 1086 632s90-62.001 93.333-64-18 51.239-16 64.953 52.667-41.619 56-43.619 14.667-14.667 17.333 16 26-14.666 42.667-18S1302 610.667 1304 612.667s21.725-.666 38.529-19.333c16.804-18.667 12.138 10.666 14.138 12S1374 577.351 1380 579.342s15.333 4.658 22 15.325 24.667-17.333 27.333-10 9.333 26.035 18.667 32.018c9.334 5.983 25.333-24.017 22-71.351s-10-46-28.667-18.667-28 43.333-33.333 4c-1.333-17.333-28.667 30-44.271 32.667-6.396 5.333-27.729-3.334-30.396-21.334s-17.333 6-24.667 8c-12 6.667-34 4-43.333-5.333s-17.333 12-28 12-10.667-12.001-22-14.667-12.667 6-22 6.667S1174.043 519.739 1168 518zm-42.666 181.862s14 214.14 26.667 242.14c7.333.86-3.333-41.333 31.333-97.333 0 19.333 13.333 65.333 18 79.333 6.078-23.893 6.667-69.333 22-75.333 10.123 10.399 15.333 64 34 85.333 7.333-114 21.334-176.667 32.667-204.667s-44 75.874-52 91.604c-8 15.729-8-67.604-12.667-75.604s-20 59.733-32.667 64.867-6-56.2-13.333-72.2-11.333 65.733-12 70.2-28-99.813-42-108.34zm-14.667-336.528c2 0 150 48.667 163.333 66.667 82.667-65.333 276.001-72.667 330.667-57.333C1498 316.001 1297.004 368.074 1270 390.001c-57.333-48.667-163.333-49.132-180-42.899s20.667 16.232 20.667 16.232zm434.001 151.333l4.667 75.333s6.667 12 16-25.333 10.667-20.667 14-16.667 12.666 57.418 25.333 23.376 20.667-11.376 28-2.709 10.666-5.333 11.333-19.333 13.334-28.667 28.667-3.333 41.999 29.333 43.333 31.333 17.333 16.667 14-12 6.001-32.163 23.334-12.082 26.666 30.081 29.333 5.415 50.667 35.333 56 45.333 48.667 48.667 0-17.333c-16-37.333-36.667-94.667-150-143.333 32.667 25.333 50.667 71.333 50.667 71.333s-70.668-38.667-83.334-36c9.334 9.333 17.334 24 17.334 24S1627.334 472 1618.001 488s-5.333 25.333-5.333 25.333-37.333-22.667-38-14.667 8.001 24 .667 24.667-30.667-8.666-30.667-8.666z"/><path id="l" fill="none" stroke="#000" stroke-miterlimit="10" stroke-width="6" d="M1265 391c206-94 336-34 441 21s239.068 184.635 248.067 349.627C1961.567 1031.614 1884 1119 1862 1159c-46 84-97 125-113 119 20-34 57-112 57-112s-17.282 16.639-45 29c38-53 101-327 86-398.426C1806 905 1786 920 1788 911s0-117 0-141-25-85-25-85v76c0 20-34 159-39 125s-5-134-5-131-17 76-34 127-67 105-68 102 9-52 0-90-27-246-23-236-18 103-22 138.574C1528 918 1513 903 1513 903V792c0 3-48 146-60 133-19-66-40.238-107.331-42-152-7 18-15 51-14 153-24-25-58-139-49-192-73 191 16 411 16 411s-45-34-60-54c8 23 67 144 67 144s-56-36-115-99c3 10 43 79 33 84-17-7-78-75-93-99s-68-161-68-161l-32-187s21 131 25.611 165.62c-16.5-6-94.495 16.499-61.497 113.994 68.997 134.993 157.491 157.492 157.491 157.492s-31.498-61.497-32.998-53.998c-1.5 7.498-53.998-16.5-85.495-44.998-31.498-28.5-87.828-107.589-91.496-128.995C956.619 653.633 1072.113 490.141 1188 436c13 .5 43.581 42.639 40.104 37.642-49.498-68.997-143.992-115.495-143.992-115.495C1169 315 1265 391 1265 391zm-157.227 102.78S986 437 868 523s-95 225-90 245 12.879 146 156.939 203c42.122 16 72.676 11.116 72.676 11.116S947 677 1107.773 493.78zm-58.44-14.113S1052 521 988 566c-9.059 2.865-81.445-60.346-90.986-61.375 0 0-48.68 66.041-25.347 145.375 13.428 27.964 63.333-4 63.333-4l48-73.765s60.667-49.568 66.333-92.568zM935 646c-26 25.333-63.008 12.31-65.333 6-19.333 84 4.667 142.333 17.334 143.667s47.333-43 47.333-43l61.163 57.535-61.163-57.535 47.333-61.333L1007 688h-24.667l-51.036-39.794m-34.283-143.581C798.667 572 786.059 634.941 786.059 634.941l39.275 61.726 43.333-46.668c-6.779-38.9-10.667-83.333 28.347-145.374zM786.059 634.941c-21.333 84-4.974 149.646-4.974 149.646l43.249-85.92-38.275-63.726zm64.414 283.226L861.334 804s-15.586 91.5-10.861 114.167c67.942 4.667 121.194-18.834 121.194-18.834s6.583 1.665 23.556 6.667C887.667 856 887 795.667 887 795.667L860.334 806l-78.354-16.796c16.02 78.795 68.493 128.963 68.493 128.963z"/></g></switch></svg>