<svg xmlns="http://www.w3.org/2000/svg" id="hair" viewBox="0 0 3000 3000"><switch><g><path id="cl1" fill="#FFFAEA" d="M1811.701 507.902C1831.184 523.582 1842 509 1842 509c149-54 175-24 205 35s22 163 22 181 25 79 50 103c47 53 51 120 39 164s-30 89-54 105-27 81-55 119-28 129-28 129l-53-97-82 89-2-118s81-165 78-220c-36 157-85 220-85 220s-83 83-62 50c85-225 69-315 64-321s-46.713-64-46.713-64S1804 721 1805 734c42 170 23 280 23 280-11 18-47.91 56.396-51 91 5 63 8 128-26 204 17-38 9-118 3-162s25-80 39-174c18-67-58-271-76-289s-122-69-142-64c4-26-33-170-86-238 61 80 83 231 83 231s24-1-6-1-66 23-66 23c-37.027 56.64-73 160-73 245-19-93 13-237 62-312-29.789 47.648-55 116-55 116s-4.688 7-10 11c-38.82 40.275-80 103-77 159-3 41 7 89 0 123s-69 122-98 163-30 54-47 125c-27-67 11-136 49-186s82-105 62-167c-4-11-39-91-39-91l13 37-6 5-28 25-40 152s-5 53-15 97-42 108-42 108 25-121 30-161-8-147-8-147 29-99 75-173c-27 61-132 242-104 310-44.07-149.207 64-326 52-311s-64 168-64 168-23.485 9.185-30 0c-13-27 10.645-132.854 42-220-41 66-50 220-50 220s-7.748 6.25-10-1c-29.433-193.85 15-263 9-253s-27 50-66 92c-49 75-42 174-5 263 73 112 63 173 63 173s-42-40-64-52c-26 43 20 95 31 140 11 21-31 91-28 68s-22-69-39-84c-12-17-64-62-64-62l-54 113s24-145 22-172-129-190-129-190c-42-60-12.873-117.875-12.873-117.875C747 816 824.125 713.131 813.625 677.133c-12-34.498-55.498-100.495-33-149.993 3-20.999 121.494-98.994 220.489-89.994s160.491 97.494 160.491 97.494C1424.009 263.82 1700 418 1811.701 507.902zM1149 526.5s-44 104.5-41 131 70.5-102.5 73-119-4.5-12-4.5-12l-11.5 11-16-11zm-19.012 48.408S1103.501 534 1044.001 537s-166 58.5-177.5 92.5-6.5 82 0 95S786 892.5 782 900s-16 29.5-14 63m339.854-299.75S1074.109 700.515 1077 699c-20 8.5-134.5 116-141 123.5s-44 56.5-42.5 70c34.5 165 5.5 260 5.5 260M1152 609l141 108.5m94.5-228c-99-10-205.961 67-205.961 67m963.222 476.729C2130.261 978.729 2082 939.5 2045 914.5s-45.5-59.5-51-93-6.5-75-19-127-71.5-82-86-92.5c0-11.5-20-57.5-49-85 8.5 4.5 42.5 51.5 44.5 74s3.5 32.5 3.5 68.5c46 50.5 44.5 85 39.5 124.5-1.645 12.979-6.039 27.199-12 42.059-12.181 30.363-30.895 63.393-46 93.941 60.5-175.5-7-304.5-7-304.5s-34 114-49 128c10-10.5 49-133.5 49-133.5l-29-58-105.5 60.5 105.5-64c-11.5-25-29-37-29-37-38-17-161.5 3-161.5 3m325 733.5s-5.5-16-8-57.5 25.5-149 8-187.5-50.5-173.5-50.5-173.5"/><path id="fl_1_" fill="#363AE7" d="M1162 535.334l12.666-8s5.334 20.666 6 25.332c.668 4.666-66 127.334-67.332 96.668C1112 618.668 1148.666 530 1148.666 530l13.334 5.334zM1894.666 902L1880 950s8 78.668-1.334 100.668S1847.332 1205.334 1815 1269c-4.193 19.765 64.332-46.332 64.332-46.332L1890 1335.334l76-82 54.666 94s0-84 37.334-151.334c21.998-65.332 67.332-117.998 85.332-165.332 6-9.334 34.666-73.334 15.998-136.668-26.188-53.658-64-86.666-78-138-2-20.666-36.666 186-36.666 186l-40-71.332s-24.666 66.666-23.334 94c-6.086 1.396-34.666-54.668-34.666-54.668l-23.334 76.668s-24.66-29.334-28.664-84.668z"/><path id="fl" fill="#E556A7" d="M1882 579.334c6 18.666-.666 79.332-2 65.332-1.332-14-54.666-123.332-54.666-123.332 40.666 2 50.666 39.334 56.666 58zM782 798.668s-34.756 37.58-37.711 75.123-3.334 59.543 18.854 85.543c22.189 26 130.189 180 130.189 192 5.332 48.668-20.668 161.334-20.668 161.334l50-94.668s3.334-13.332 64.668 56c22.666 28.668 44 64.666 42 83.334-2 18.666 20-16 26.666-33.334 8-50-34-114-38-138.666-4-24.668 7.334-37.334 7.334-37.334l64.666 54.668s14-30-58-169.334c-21.332-27.332-36.666-90-36-97.332.668-7.334-19.332 28-19.332 28l-8-78.668L912 994.668S903.334 926 898.668 912c-8.555-.617-41.334 33.334-41.334 33.334S864.002 824 864.668 814c.668-10-64.666 66-64.666 66l-16.668 11.334L782 798.668z"/><path id="sd1" fill="#C5C1B5" d="M858.666 749.332c-2.668 30-65.334 130-72 144-6.668 13.999-20 37.332-15.334 63.332 4.668 26 60.707 97.37 88.668 128 6.666-3.332 18.625-68.666 18.625-68.666 2.625-10-4.313-60.677 0-110 11.291-42 32.041-51.334 32.041-51.334s-18 16.668-11.332 40c12.666 44 8 252 8 252s-8.037-4.003-8.668 9.334c-.666 42.668-16.666 99.334-17.332 136 65.332-108.666 77.334-200 77.334-200 3.332-74.666 40-145.332 40-145.332s12 18.666 16 64c4 45.332-54 236.666-62 231.332s-22-34.666-28-26c-6 8.668-57.336 120.668-54.668 106.668 2.666-14 32-133.334 24.666-168.666-7.332-35.334-122.666-175.334-129.334-192.666-6.666-17.334-34-23.334-18-87.543C847.332 755.334 852 668 852 668c9.334 21.336 9.332 51.332 6.666 81.332zM1144 527.334s-100.668-46.002-216-6c79.467-15.767 194 12 204 35.334l-10 18S984.666 562 908 672c0 0 104.666-68.666 168-63.332 0 0-74.668 71.332-97.334 107.332 15.334-7.332 88-16 88-16l18-1.332 6.668-2.668.666 236.668 43.332-.668s9.334 79.334 8.668 97.334c10.666-55.334 30.666-92 30.666-92s20 105.332 14 140.666-29.332 152-29.332 152 32.666-57.332 35.332-78c2.668-20.666 19-102.666 18.668-107.332C1213 1040 1252 891.334 1253 888c1-3.332 30.332-25.332 30.332-25.332l-4.666-41.334-5.334-6s-46 61.334-50.666 78l-22-10.666s13.332-51.334 55.332-123.334c3.334-2-76 105.334-76 105.334l-12.666-11.334 36-96-57.334 66-22.666-34s-14-12.666-10.035-96c2.035-8.666 42.703-44.666 98.035-33.332 9.782 2.185 47.334 25.332 47.334 25.332s-12-34.666-62.668-67.332c0 0 126 20 156.668 38.666-21.929-20.76-57.334-49.334-80.668-62.666-23.332-13.334-78.666-18.668-78.666-18.668s37.332-38.666 109.332-74C1313.65 495.727 1236 514 1187.334 550c6-13.332 40.666-68 40.666-68l-60 49.334-24-4zm342.668 34s-91.334 78-88.668 154.668l37.334-36.668 51.334-118zm-66.666-172.001s83.332-10 139.332 186.001c0 0-30.666-100-8.666-188.001-52.666-15.333-118-2.666-130.666 2zm238.668 126.001s156.337 8.666 161.834 12c5.498 3.332 5.498 6.666 5.498 6.666s-48 48.666-98 76.666c-20 14.668 86.002-26 108.668-21.332-6.668 26-40.668 103.332-43.334 116.666 17.334-16 58-44 66.666-44 8.668 0 25.334 153.334-18 217.334-8.922 15.313 20 48.666 20 48.666s28.668 16 18.668 102.668c-10 52.666 34.666-105.334 34.666-105.334l34 122L1962.002 996s-37.332-140-44-170.666c-6.666-30.668 10-29.334 12-56.668s-13.998-85.332-39.332-107.332c-5.334-17.334-2.89-22.666-2.89-22.666s39.556 19.332 60.89 62c34.666 92-1.334 194.666 36.666 227.333 34 44.667 127.335 111.334 131.335 142.667 5.31 7.826 29.999-38.001 29.999-42.667s-34.667-70-97.333-112.667c-19.334-11.333-34-32.667-50.667-75.333s1.334-45.333-2.666-105.333-21.334-95.333-93.334-154c-15.333-28-28-51.999-41.333-59.333l44-29.334s-68 26.667-72 24.667-75.335-24.668-174.667-1.334z"/><path id="l" fill="none" stroke="#000" stroke-miterlimit="10" stroke-width="6" d="M1811.701 507.902C1831.184 523.582 1842 509 1842 509c149-54 175-24 205 35s22 163 22 181 25 79 50 103c47 53 51 120 39 164s-30 89-54 105-27 81-55 119-28 129-28 129l-53-97-82 89-2-118s80.182-161.457 77.182-216.457c-36 157-84.182 216.457-84.182 216.457s-83 83-62 50c85-225 69-315 64-321s-46.713-64-46.713-64S1804 721 1805 734c42 170 23 280 23 280-11 18-47.91 56.396-51 91 5 63 8 128-26 204 17-38 9-118 3-162s25-80 39-174c18-67-58-271-76-289s-122-69-142-64c4-26-33-170-86-238 61 80 83 231 83 231s24-1-6-1-66 23-66 23c-37.027 56.64-73 160-73 245-19-93 13-237 62-312-29.789 47.648-55 116-55 116s-4.688 7-10 11c-38.82 40.275-80 103-77 159-3 41 7 89 0 123s-69 122-98 163-30 54-47 125c-27-67 11-136 49-186s82-105 62-167c-4-11-39-91-39-91l13 37-6 5-28 25-40 152s-5 53-15 97-42 108-42 108 25-121 30-161-8-147-8-147 29-99 75-173c-27 61-132 242-104 310-44.07-149.207 64-326 52-311s-64 168-64 168-23.485 9.185-30 0c-13-27 10.645-132.854 42-220-41 66-50 220-50 220s-7.748 6.25-10-1c-29.433-193.85 15-263 9-253s-27 50-66 92c-49 75-42 174-5 263 73 112 63 173 63 173s-42-40-64-52c-26 43 20 95 31 140 11 21-31 91-28 68s-22-69-39-84c-12-17-64-62-64-62l-54 113s24-145 22-172-129-190-129-190c-42-60-12.873-117.875-12.873-117.875C747 816 824.125 713.131 813.625 677.133c-12-34.498-55.498-100.495-33-149.993 3-20.999 121.494-98.994 220.489-89.994s160.491 97.494 160.491 97.494C1424.009 263.82 1700 418 1811.701 507.902zM1149 526.5s-44 104.5-41 131 70.5-102.5 73-119-4.5-12-4.5-12l-11.5 11-16-11zm-19.012 48.408S1103.501 534 1044.001 537s-166 58.5-177.5 92.5-6.5 82 0 95S786 892.5 782 900s-19 32.5-17 66m342.854-302.75S1074.109 700.515 1077 699c-20 8.5-134.5 116-141 123.5s-44 56.5-42.5 70c34.5 165 .591 269.479.591 269.479M1152 609l141 108.5m94.5-228c-99-10-216.313 73.589-216.313 73.589m973.574 470.14C2130.261 978.729 2082 939.5 2045 914.5s-45.5-59.5-51-93-6.5-75-19-127-71.5-82-86-92.5c0-11.5-12.67-50.657-41.67-78.157 8.5 4.5 35.17 44.657 37.17 67.157s3.5 32.5 3.5 68.5c46 50.5 44.5 85 39.5 124.5-1.645 12.979-6.039 27.199-12 42.059-12.181 30.363-36.678 70.829-51.785 101.378 60.5-175.5-1.215-311.937-1.215-311.937s-38.733 120.282-53.733 134.282c10-10.5 53.733-139.782 53.733-139.782l-29-58-105.5 60.5 105.5-64c-11.5-25-29-37-29-37-38-17-161.5 3-161.5 3m325 733.5s-5.5-16-8-57.5 25.5-149 8-187.5-52.5-176.941-52.5-176.941"/></g></switch></svg>