<svg xmlns="http://www.w3.org/2000/svg" id="hair" viewBox="0 0 3000 3000"><switch><g><path id="cl1" fill="#F6C7B5" d="M1575.825 712.156L1592 725l6-3.333 103-122.333L1738 702l-143.333 31-181.017-30.542 16.713-35.871L1453 618l122.825 94.156zM1123 657c24-48 165-232 165-232l4-2c4-2 57-4 126 17s154.375 95.867 178 105c15-9 75-60 164.077-116.856-101.995-61.497-310.484-107.995-448.479-73.497-137.993 34.498-242.987 134.994-271.485 242.988-106.495 494.976-119.994 643.468-119.994 643.468l143.993-128.993 35.998-307.485S1105 690 1123 657zm-1.891 3.632c14.999-28.499 151.492-236.988 173.99-236.988s77.996 1.5 122.899 16.356 178 105 178 105c51.912-42.136 166.665-114.334 166.665-114.334h32s120.001 192 128.001 203.333c60 148 88.667 283.333 88.667 283.333l-44.667-54.667-54-87.333 48 85.333s30.001 159.334 30.667 169.334 2 84.667-3.333 78c-49.333-68-86.667-150.667-86.667-150.667s29.334 61.333 26 72C1828 1316 1830 1276.667 1830 1276.667s-8-48.667-12.667-64.667c-82.666 90-120.666 113.333-120.666 113.333s14.666 34.667 24.666 25.333S1806 1212 1820 1188s-4-98-4-98l12-96 34-262-41 261-78.666-269.667-44.334-124-100 122.333L1696.334 602l-99 124L1713 648l-117.333 82 131.667-51-132.667 54L1735 702l-143 34-176-31 176 25-158-62 158 57-142-107-41 88-41 204c-89-99-124-188-49.749-297C1276 664 1275 727 1276 747s23 75 30 81c3 22 26 568 0 541-13-18-94-235-94-235s-7.082 101.828-14 89c-102-256-94-410-94-410 .135-11.131 2.11-123.869 17.109-152.368zm7.502 343.481C1133.111 1046.111 1198 1223 1198 1223l14-89 94 235-1.896 26.594-50.998-64.497-53.997 89.996-37.499-148.493-46.498 50.998s-52.497-197.989-52.497-205.489 34.498-307.485 34.498-307.485 26.999 151.492 31.498 193.489z"/><path id="hl1" fill="#FBE8DE" d="M1064.881 541.938S1142 394 1317 357c194-44 386 38 437 65l13.665 5.666 28.558 4.865S1883.4 567.463 1919 625c40 83 85.666 225.322 94.333 285.661-5.097.004-81.999-225.661-107.999-274.328s-116.666-183-120-185.667-50.667 2.334-56.667 3.001S1750 425 1750 425s-166.151-63.334-322-55.333c-165.333 11.333-272.452 73.604-363.119 172.271zM1112 696.666c2.667-10 181.333-232.667 185-233.333s180.333 10 180.333 10l-8.607-8.417s-23.393-12.917-40.06-22.917S1288 425 1288 427.999s-87.333 119.333-123.333 163.333-48 93.333-48 93.333-7.334 22.001-4.667 12.001zM1414 706l41-88 145.333 108.666L1701.334 602 1791 869.333l-78.667-312.667-112.666 153.333L1451 581.333l-54 109.333-13.333 148L1414 706z"/><path id="sd1" fill="#E7937A" d="M1078 540c-9 17-8 90 4 105s19 91 26 72 68-107 55.791-89.536C1163.582 644.928 1157 879 1165 910.661 1181.5 1057 1199 1118 1200.5 1097c5-73.5 41.5-151.5 49.605-160.381.895 94.881 1.895 136.381 0 187.49 12 43.498 64.497 224.988 64.497 224.988l-10.5 37.499-47.999-55.5-55.496 83.998-37.498-137.992-52.497 44.998-49.498-204.618-140.997 128.122s95.999-524.975 106.498-581.972c10.498-56.997 34.499-110.995 34.499-110.995S1087 523 1078 540zm236.604 72S1262 702 1281 758c23 90 79 146 83 149s12-44 12-44-31-69-37-83-20-82-17-94c0 0 2.206-69-7.396-74zm133.896 7.5l-38 83.5 179.5 33.5 145-36-38.666-98.5-93.834 117.5L1596 593s71.923-95.144 119.5-130-123.5 82.5-123.5 82.5S1443 447 1433 445c-3.066-2.188 124 82 148 132 0 0 9.5 17 8 129l-1 18-139.5-104.5zM1844 843l-20 150-8 97s18 32 7 98c-14 30-103 169-103 169l-27-34s15 3 127.333-111c.667 17 8.667 68 8.667 68s13 23 101-257c2-12-86-180-86-180z"/><path id="l" fill="none" stroke="#000" stroke-miterlimit="10" stroke-width="6" d="M1103.11 804.625l-35.998 307.485-143.993 128.994s13.5-148.493 119.994-643.469c28.499-107.995 133.492-208.49 271.485-242.988s346.482 12 448.479 73.497C1674 485 1614 536 1599 545c-23.625-9.133-109-84-178-105s-122-19-126-17l-4 2h0s-141 184-165 232c-18 33-22.89 147.625-22.89 147.625zM1107 813s-8 154 94 410c6.918 12.828 14-89 14-89s81 217 94 235c26 27 3-519 0-541-7-6-29-61-30-81s0-83 42.251-134C1247 722 1282 811 1371 910l41-204 41-88 140.667 107.833-163.304-59.247 155.756 62.578L1412 706l183 30 143-34-136.771 29.551L1730.334 679l-123.893 46.846L1716 648l-111.814 75.403L1699.334 602l-103.5 122.167L1701 599.333l44.334 124L1824 993l41-261-34 262-12 96s18 74 4 98-88.667 153.333-98.667 162.667-24.666-25.333-24.666-25.333 38-23.333 120.666-113.333c4.667 16 12.667 64.667 12.667 64.667s-2 39.333 97.333-247.333c3.334-10.667-26-72-26-72S1941.667 1040 1991 1108c5.333 6.667 3.999-68 3.333-78s-30.667-169.334-30.667-169.334l-48-85.333 54 87.333 44.667 54.667S1985.666 782 1925.666 634c-8-11.333-128.001-203.333-128.001-203.333h-32S1650.912 502.865 1599 545.001c0 0-133.097-90.144-178-105s-100.401-16.356-122.899-16.356-158.991 208.49-173.99 236.988S1107.135 801.869 1107 813zm-6.887-2.377s-34.498 299.985-34.498 307.485 52.497 205.489 52.497 205.489l46.498-50.998 37.498 148.493 53.997-89.996 50.998 64.497L1309 1369l-94-235-14 89s-64.889-176.889-69.389-218.887-31.498-193.49-31.498-193.49z"/></g></switch></svg>