<svg xmlns="http://www.w3.org/2000/svg" id="hair" viewBox="0 0 3000 3000"><switch><g><path id="cl1" fill="#788FC1" d="M1050.949 838.935L996.951 946.93s-59.997-115.494 88.496-374.98c86.996-130.494 247.488-181.491 302.984-190.491 172.491-49.498 490.477 26.999 562.473 383.98 13.5 32.998-82.496-53.997-82.496-53.997l75.096 63.702s-4.668 145.667-12.668 212.667c-8 67.001-106 277.001-225 312.001-39 26 98-111 103-167 1-10-31 1-31 1s40-53 41-63 41.25-10.5 41.25-10.5l-86.5 4.25 72.25-78.75 18.5-50.5s-3.5-47.5-23-55.5c18-35.5 33-78.5 33-92.5s-1.5 74.5-73 129l-3.25 1.25s44.084-130.084-17.916-209.75c0-3.668-.334 55-1.666 56.332-1.334 1.334-62.002-95.332-64.334-101-2.334-5.666-.334 131.668-69.334 190.334 6-47.668 15-151.668-.666-205.668.469 1.662 15 106.334 2.334 136-13.334 26-25.002 52-35.668 60 4.334-55.666-14.332-111.666-14.666-113.332 0 0-12.334 218.666-12.666 228.666-.334 10-76.334-206.332-76.334-206.332l11.334 144.332-115-220.332 37.667 179.666-103.333-108.666-9.667 164.332-27-48-37.333 61s-6-93.332-5.667-94.332 19-66.334 19-66.334l-23.333 68.334s-18 66.666-14.667 195.332c-2.516 3.229-66.667-120.666-66.667-120.666l93.333 175.666 77 117.334-64.668-13.332-58-82s31.333 64.666 142 174.666c16.667 13.334-87.333-17.332-87.333-17.332l-24.001-61.334s36 88 36 137.332c4.668 19.334-98.666-129.332-98.666-129.332l-16.667 50.666-76.667-200.666-4.667-95.334s6.333 157.334-15 193.334c-13.332-10.334-67.332-176.334-68.332-223.834-.001-6.668 44.113-94.377 44.113-94.377z"/><path id="hl1" fill="#96AED9" d="M1237.333 442.667s18 32-60 86c-30.667 22 5.333 12 12 8.667 15.333-6.667 11.594 18.667 12.797 29.333s25.87 0 31.87-5.333 17.333-10 25.333 6.667 33.333.667 38-2.667 24.667-20 32-.667 30.667 2 51.333 0 64.667-28.667 72.667.667 40.667-1.333 46.667-6 40-43.333 44-6.667c5.334 18.667 41.334-12.667 47.334-18s18-7.334 39.333 13.333c18 13.333 29.334-10 32.667-16.667s7.999-12 30.666 1.333c8.406 4.133 8-6 12-11.333s11.999-6.667 28.666-5.333c8-1.333-12.666-16.666-12.666-21.333s24.666 8.666 38.666 5.333c3.586-4.691-17.332-42-18.666-47.333s-1.334-6.667-1.334-6.667 62 38 124 135.333c8.667 19.333-29.333.666-40-2.667s16.666 29.334 9.333 42.667c-13.333 23.333-112.666-42.667-133.333-47.333s-18 15.333-20 20c-13.333 10-26.001-12.667-34.667-9.333-14 3.333-8.681 8.717-22 25.333-18.666 8.667-46-27.333-61.333-23.333s-17.333 20.667-18 25.333c-1.333 12.667-15.999-10.667-23.333-4s-13.334 10.667-13.334 12.667c-17.999 8.833-21.832 2-28.666-7s-22.167.833-26.833 4.833-14-2.667-17.333-2.333S1424.833 627 1413.5 614s-13.333-15.5-43.167 1.667C1345 635 1338 654.833 1331.167 660.833s-9.334-28.667-14.667-35.167c-4.833-23.333-40.833 7.667-57 23s-15.833-1.667-24.5-17.833-7.167-21.667-51.667 2.5c-23.833 16-4.5-53.833-11.667-63.333s-71.333 12.833-86.5 23 53.501-97.667 152.167-150.333z"/><path id="sd1" fill="#5B6D93" d="M1014 916.28l37-74 7 44-44 30zm61 15l-1.5 222 21.5-97 77.5 201.5 15-53 97.5 133.5s4-38-8.5-71.5c9-3.5 83 15 83 15s5-5.5-84-95.5c.053-2.551 63.5 13 63.5 13l-15-26.5-36.5-5.5-56.5-53 .5 69.5-43-40-20 49-82-268.5-11.5 7zm201-165l-18 61.97 5.762 96.03 36.238-63.5 31 49.5 8.5-158.5 104 102.543-5.366-12.043-124.634-139.5 1.5 143.5-6.5-17-28.5 32-2.831-96.522-1.169 1.522zm216.5-71l12 62.5h6.5l71.5 199 3-27-93-234.5zm126.5 143.5c4.5-5 31-52 31-52s-5.165 66.978-2.5 64.5c2.665-2.479 42-58 44-63.5s22-122.5 22-122.5l5-3.473-10.5-19.027v5.5l-33 125.5-28 74.5s-1-7 7-83-12-117-12-117l-6 110.5-22.5 64.5s1 20.5 5.5 15.5zm253-43.5l-28.939 81.087L1868 932.28l-20.5 59.5s9 10.5 36.5-62c1-22.5-6-140-6-140l-6 5.5zm1.667-.28l-28.938 81.087L1869.667 932l-20.5 59.5s9 10.5 36.5-62c1-22.5-6-140-6-140l-6 5.5zm-7.868-83.72s69.701 108 73.201 114.75 4.5-51.75 4.5-51.75l-77.701-63zm-16.299 349s-28 2.5-28.5 8.5c-.5 21.5-33.623 35.65-40.266 61.15 4.856-1.5 29.585-3.75 28.101 2.881-13.5 65-95.835 141.969-106.835 167.969 113.5-37.5 198-208.5 182.098-193.5-15.901 15-50.098-3.5-50.098-3.5l52.5-75-105 33 68-1.5z"/><path id="l" fill="none" stroke="#000" stroke-miterlimit="10" stroke-width="6" d="M1050.949 838.936L996.951 946.93s-59.997-115.494 88.496-374.98c86.996-130.494 247.488-181.491 302.984-190.491 172.491-49.498 490.477 26.999 562.473 383.98 13.5 32.998-82.496-53.997-82.496-53.997l75.096 63.702s-4.668 145.667-12.668 212.667c-8 67.001-106 277.001-225 312.001-39 26 98-111 103-167 1-10-31 1-31 1s40-53 41-63 41.25-10.5 41.25-10.5l-86.5 4.25 72.25-78.75 18.5-50.5s-3.5-47.5-23-55.5c18-35.5 33-78.5 33-92.5s-1.5 74.5-73 129l-3.25 1.25s44.084-130.084-17.916-209.75c0-3.668-.334 55-1.666 56.332-1.334 1.334-62.002-95.332-64.334-101-2.334-5.666-.334 131.668-69.334 190.334 6-47.668 15-151.668-.666-205.668.469 1.662 15 106.334 2.334 136-13.334 26-25.002 52-35.668 60 4.334-55.666-14.332-111.666-14.666-113.332 0 0-12.334 218.666-12.666 228.666-.334 10-76.334-206.332-76.334-206.332l11.334 144.332-115-220.332 37.667 179.666-103.333-108.666-9.667 164.332-27-48-37.333 61s-6-93.332-5.667-94.332 19-66.334 19-66.334l-23.333 68.334s-18 66.666-14.667 195.332c-2.516 3.229-66.667-120.666-66.667-120.666l93.333 175.666 77 117.334-64.668-13.332-58-82s31.333 64.666 142 174.666c16.667 13.334-87.333-17.332-87.333-17.332l-24.001-61.334s36 88 36 137.332c4.668 19.334-98.666-129.332-98.666-129.332l-16.667 50.666-76.667-200.666-4.667-95.334s6.333 157.334-15 193.334c-13.332-10.334-67.332-176.334-68.332-223.834-.001-6.666 44.113-94.376 44.113-94.376z"/></g></switch></svg>