<svg xmlns="http://www.w3.org/2000/svg" id="hair" viewBox="0 0 3000 3000"><path id="cl1" fill="#424242" d="M1224.667 502l-6.667 6c-140.667 209.333-74.5 421.5-74.5 421.5-11.5-3.167-28 6-28 6-58.5 4.5-59 47.5-62.5 75s21 71.5 30 76c6 133.5-6 135-6 135-5.5 23.5 13 106.5-5 156.5-28.5 56.5-143.667 93.167-143.667 93.167-20.833 10-20 42.333-8.833 53.833 18.5 20.5 15.5 31 11 34s-53 10-89 42.5-15.5 40.5 27 56 18.831 36.501 18.165 39.167c-5.333 17.334-40 48-16.667 50 51.067 2.854 46 30 42.667 33.333s-41.333 49.334-38.667 50.667 50.667 0 50.667 0L913.998 1816c28-8 35.334-28.666 35.334-28.666 18-22-19.333-33.333-34.667-40.666s-18.667-25.334-16-26 38-6.667 38-20-46.844-47.718-52-58c3.333-11.333 87.334-12.001 116.668-27.334s-18-72-92.667-102.667c-60-49.333-84.542-60.074-44.044-117.071s134.994-184.491 125.994-214.489C1010.115 1133.109 992 1014 990 970s-36-174 0-308c46-226 228-164 228-164l6.667 4zm306.667-150.667s-58.667 58-115.334 78.667-149.333 39.58-180 68.667c-38.666 30-149.333 194-92.5 430.833 0 0 27.835 298.498 113.835 346.498.503-75.893-12.635-164.67-1.992-298.61 3.475-43.721 9.482-92.254 19.326-146.723-7.466 44.851-15.336 145.335-15.336 145.335s128-58.667 184.667-178c-10-44.667-20-106.667-20-106.667s24.667 149.333 57.333 186c86.665 14.668 149.999-25.998 213.332-39.998 10.667-8 0-173.333-15.333-214.667 2.886 9.405 21.335 96.665 22.835 140.665C1701.504 752.082 1814.5 880 1829 920.5c70-117.5 49-286.5 45.5-300S1870 525 1729 446c-129-70-200-29-207.5-24S1456 522.5 1417 553c-14.5 10.5 98-80 114.334-201.667zm345.333 444s9.333 78.667-60 252c0 0 26.001 99.332 2.667 142.665 16 104.667 44 152 90 198.667s57.333 104 34 136.667-68.667 104.001-18.667 155.334c8 7.333 46.667 37.333 0 57.333 0 0-107.333 34.002-61.333 60.668 22.844 15.859 14.666 25.333 45.333 27.333s24 0 24 0-38.334-17.999-39-21.666-3.999-10.333 17.334-11.333 68.666-16 75.333-68.667c1.54-12.981 0-33 0-33s-19.999-10-29.666-12.333-27.333-10.666-29-29.333c-3.334-18.334 2.571-22.792 16-37.334 16.666-11 38.334-14.667 48-24s37.999-38.333 31.333-88.334c-9.333-42.333-23.333-39.999-67-100.999-19.333-29.667-59.667-78.333-59-130-1-12.333 1-106.667 12.667-159.667 4.333-14.667 17.333-107.333 44.333-179 0 0 55.999-136.334 23.999-209.834-25-55.5-65.63-86.223-97.844-110H1876s13.5 83 .667 184.833z"/><path id="sd1" fill="#313131" d="M1221.333 507.333C1074 702 1145.5 930.75 1142.5 928.75c-6.75-3.5-18.819.065-27.25 4.75-18-4-46.75 9-56.25 33.5-20-232 42-264 42-264-29 2-78 84-78 84-1-79 75-160 75-160-11-12-85 59-85 59 31-115 148-188 148-188 43.5-3.75 60.333 9.333 60.333 9.333zM1268 827s-75 335-37 413c15.704 30.545 26.5 33.5 26.5 33.5s-7.876-270 2.563-306.5c33.438-11 111.438-50.5 181.438-168.5-2.205 3.678 2.5-6.5 2.5-6.5s23.667 73.667 30.5 79.5 39 14 113-3c17.5-5 109.5-36 109.5-36s1.5-62.949 0-86.225C1715 772.5 1816.5 880.5 1826.5 915.5c2.5 5 13.5-14.5 13.5-14.5s-.5-18-16-42.5-77-98-85-102c1-2.5-43.5-130-53-140.5-2.494-2.757-14.039-.125-14.5 9 5 34.5 13.006 88.528 6 119.5l-25 87.5s-111 30.5-130.5 26-70-96.5-73-109-13-55.5-21-64-8 4-8 7.5 13 36.5-15.5 125.5c-16 29.5-26.5 56.5-59.5 63.5-59.5 17.5-64.5-26.5-66.5-42s-2.5-13.5-4-13.5-6.5 1-6.5 1zm242-393.5c-17.445 24.255-80 112.5-89.5 115.5s97.5-29.5 196.5-138c13.5-9.5-89.555-1.755-107 22.5zm364 362s9.5 3 4 72.5c44.631-67.798 24.5-99 22-104 9.5 3 25 38.5 25 45 0 0 11.25-28.25-8-80.25-.775-1.33 23.5 5.25 47.75 53.25 3 7.25 4.25-36.75-26.25-117.5-18.25-29.75-55.75-50.5-60.5-53.5s.75 168.5-4 184.5zm-815.995 254.494s5.333 100.667 0 118.667-26 72-19.333 116.667-74 102.666-74 102.666-78 56-66.667 98l-26.667-9.334 37.327 36.008s85.34 45.992 93.34 69.325c0 0-72.667-14.667-74-18.667s16.667 1.334 0-31.333c-13.333-25.333-18-38.667-10.667-48s101.334-52 116.667-62 48.667-36 44-90.667-4-96 4.667-132 1.987-102.319.327-112.826c-1.498-4.231-.499 4.5-24.994-36.506zM894 1675.25c4.75 8.5-3 24.5-3 24.5s19.25 8.75 21 11c14.5.5 21.75-9 21.75-9-29.5-40.75-53-54-53-54l-26.5 1.25c33.25 12.5 35 17.75 39.75 26.25zm-26.25 67.5c3.75 0 33.5 7 41.25 11.5s7 11.5 6.25 22-16.25 20.5-13.75 22.75 33.25.25 37 0c17.25-22 12-34.25 0-40.25-40.25-16.25-39.25-20.75-39.25-20.75l-34.25 2.75s-1 2 2.75 2zm19.917 86.917c1-.167 31.5-.833 31.5-.833s-7-7.667-8-7.833c-1.833 5.334-24.5 7.833-24.5 7.833s0 1 1 .833zm931.666-631c19.333 92.333 39.333 120.333 43.333 129s28 37.333 41.667 54c34.667 44.333 31.667 51 38.667 58.667 17 27.667 15.667 57 10 65.667-4 11-39.667 57-36 67.667 19 6 95.667-21 95.667-21 15.667-20.667 11.666-76.667-2-82.668-15.333-4.667-67.334-32.667-67.334-32.667s-12.666-23.333-14.666-28-21.334-49.333-50.667-82.666c-43.333-74-48-175.333-48-175.333-1.828-20.87-1 18.666-10.667 47.333zm88.334 457.334c13.334 21 34.334 36.666 37.667 42.333 10.333 18.667 0 23.667 3.333 23.667s34.146 4.818 35.667 3.333c4-34.333-2.334-34.667-2.334-34.667-10.666-14-52-16.667-52.666-35.333-15.333-24 7.576-41.691 14.334-43-4.999-3-41.668 21.666-41.668 21.666-.334 5.666 2.001 13.001 5.667 22.001zm-37.333 146c1.333 2 21 18.666 27.256 22.666s33.078 1 33.078 0-19.334-10.333-28.699-14.276c-9.365-3.942-14.635-8.39-10.801-14.057-1.834-7.667 32.5-7 33.833-9.333s-67.667-2.667-67.667-2.667c0 9 11.667 15.667 13 17.667z"/><path id="hl1" fill="#565656" d="M1007 855.998c10.667-5.998 18.333 63.336 18.333 63.336s2-25 3.333-19c12 25.667 10.667 87.667 11 78.667s9.667-37.667 9.667-37.667 3.333 25 5.271 37.333c-12.395 27.667.896 61.333-.104 64.833s.5 75.5 0 101.5c-10.5-22-20.5-136.333-20.5-136.333s-10.667 30-10.667 27.333-6-59.333-6-59.333C1012 984.667 1010 1026 1010 1026c-8.667-28-10-133-10-133 0-38 6-37 6-37m161.667 109.667s-6.667-22-11.333-26.667 9.333 101.333 18 121c7.333 10 5-33.333 15-49.667 3.667-11.333-.333 38 3.333 46.667s4.333-27 10.667-29.333 12 28.294 13.333 33.813c1.333 5.52 8 4.521 0-51.479-3.333-16 8.408-87.333 3.871-92s-18.538 64.334-21.204 67.667c-6 5.667-2-31.333-6-45.333-8.333-12-11.333 34.333-13 35.667-2.333 6-5.98-10.276-7-24 .667-13.667-.5-36.953-6.167-34.227-1.888 8.882 3.333 38.392.5 47.892zM1248 598s-12.667 38.667-18 37.333-1.479-13.966-8.405-18.65c-6.927-4.684-21.595-4.684-28.261 6.65s-38.667 106-30.667 168.667c20.667-34 38-82.667 52-78.667 10 12.667-12.608 54.667-9.971 84 2.637 29.333 31.304-6 43.304-28s27.334-34.667 26.667-18c-.146 30.008-3.333 80 20 40 22.59-31.18 41.333-67.333 43.333-58 2.667-7.333 6.845 35.332 4.667 48.667-6 8 26-46.667 26.667-54.667S1368.667 678 1358 668.667c-9.145 4.793-18.667 41.333-35.333 58-13.333 3.333 8.667-66 6-77.333-2.667-10-36.667 33.333-46.667 44s-21.333 6-6-31.333 10.667-35.333 10.667-35.333-28 31.333-32.667 34.667S1234 674 1244 632s4-34 4-34zm125.333-144l-70 46S1364 482 1364 486s-35.334 36-40.667 39.333S1382 496.667 1382 500s-44 42.667-44 46.667 106.667-45.334 128.667-76.667c16.667-20.667-70 21.333-70 21.333s99.333-56-5.333-28.667c-.001.001 92.666-43.333-18.001-8.666zm122 186l-12 27.333s-2 91.333 12 96c11.875-9.416 23.333-47.333 23.333-47.333s9.333 28.667 11.333 38.667 10.667 5.333 31.334-41.333c9.333-8.667 10.666 18 13.333 27.333s15.333 30 32-24c0 0 18.001-42 28.667-15s18 52.333 11.333-13.667l2.549-24s-13.215-53.333-21.882-42-22.001 50.667-29.334 54-17.999-22.667-18.666-29.333-27.334 38.667-27.334 38.667-26-8.666-36-35.333-10 36-10 36L1495.333 640zm213.332-39.333s54.667 61.333 72.667 114.667c-2.952-8.015-6.667-70.667-6.667-74s25.333 33.333 28 37.333c18 12.667-10.666-30-6.666-47.333-4.667-14.667 5.318-22.667 12.659-16s26.007 30.667 30.674 34-23.082-40.083-16-54.667c0-6.667 36.918 30.583 40.668 33.583s-80-140-119-126.75c0 0 22.5 28.5 44.75 76.5 0 6.5-31.75-31-44.75-29.5-5.75 2 28.25 47 28 52.75s-55.75-45.25-72.75-38.5c-7.5 4.75 41.75 36 46.25 49.25s-17.92-16.167-37.835-11.333zM1840 1000.5s-10.5 100.5 0 142.5c8.5-45 17.5-76.5 25.5-83 0 0-6 27-2.5 40.5s9.5-43 23.5-53c-1 6.5-4.5 23-4 30.5s13.5-23.5 20-26c1.083-1.5.833 5.917 2.5 4.5s7-43.167 39-128c3.125-11-4-3.75-6.75.625 0 0-38.75 63.375-50.25 93.875-5.333 12.833 12.333-65 12.833-67.167s-18.999 43.333-23.166 47.5 9.333-49.667 7.833-61.167-29.334 49.833-30.667 52.5 4.166-34.334 2.5-39.167c-1-3.832-16.333 45.001-16.333 45.001zm2.334 206s2.499 14.334 5.333 30.667 8.834 68.667 29.334 85.667c4.666-.5-7.167-12-4.667-39.333 0 0 8.666 31.167 14.333 33.333 7.834.5-5.5-26.333-3.333-70.667-2.667-19 .668-36.667-5.166-38.667s-8.334 40.334-9.334 45.167-7.5-36.833-7.5-37.333-1.667 16.5-1.5 24.667-11-38.334-17.5-33.501zM994.5 1272s-53 9.5-86.5 87c3.5 10 27-14 27-14l-16.5 29 16-9-21.5 35s55.5-65 63.5-71c53.5-37 8 2-14 36-12.5 16 21-13 24-15.5s6.5 1-25.5 42c33-22 53.622-47 58.311-55.5s-17.311 4.75-19.811 8 20.179-23.5 20.464-29.25S1001 1325 999 1326.5s23.75-29.75 20.967-34.75c-2.717-4-34.717 10.75-40.217 16.75s26.75-36.5 14.75-36.5z"/><path fill="none" stroke="#000" stroke-miterlimit="10" stroke-width="6" d="M1224.667 501l-6.667 6c-140.666 209.333-74.5 421.5-74.5 421.5-11.5-3.167-28 6-28 6-58.5 4.5-59 47.5-62.5 75s21 71.5 30 76c6 133.5-6 135-6 135-5.5 23.5 13 106.5-5 156.5-28.5 56.5-143.667 93.167-143.667 93.167-20.833 10-20 42.333-8.833 53.833 18.5 20.5 15.5 31 11 34s-53 10-89 42.5-15.5 40.5 27 56 18.831 36.501 18.165 39.167c-5.333 17.334-40 48-16.667 50 51.067 2.854 46 30 42.667 33.333s-41.333 49.334-38.667 50.667 50.667 0 50.667 0L913.998 1815c28-8 35.334-28.666 35.334-28.666 18-22-19.333-33.333-34.667-40.666s-18.667-25.334-16-26 38-6.667 38-20-46.844-47.718-52-58c3.333-11.333 87.334-12.001 116.668-27.334 29.333-15.333-18-72-92.667-102.667-60-49.333-84.542-60.074-44.044-117.071s134.993-184.491 125.994-214.489C1010.115 1132.109 992 1013 990 969s-36-174 0-308c46-226 228-164 228-164l6.667 4zm306.667-150.667s-58.668 58-115.334 78.667-149.332 39.58-180 68.667c-38.666 30-149.332 194-92.5 430.833 0 0 27.835 298.498 113.835 346.498.503-75.893-12.635-164.67-1.991-298.61 3.475-43.721 9.482-92.254 19.326-146.723-7.467 44.851-15.336 145.335-15.336 145.335s128-58.667 184.666-178c-10-44.667-20-106.667-20-106.667s24.666 149.333 57.333 186c86.665 14.668 149.999-25.998 213.332-39.998 10.667-8 0-173.333-15.333-214.667 2.886 9.405 21.335 96.665 22.835 140.665C1701.504 751.082 1814.5 879 1829 919.5c70-117.5 49-286.5 45.5-300S1870 524 1729 445c-129-70-200-29-207.5-24S1456 521.5 1417 552c-14.5 10.5 98-80 114.334-201.667zm345.333 444s9.333 78.667-60 252c0 0 26.001 99.332 2.667 142.665 16 104.667 44 152 90 198.667s57.333 104 34 136.667-68.667 104.001-18.667 155.334c8 7.333 46.667 37.333 0 57.333 0 0-107.333 34.002-61.333 60.668 22.844 15.859 14.666 25.333 45.333 27.333s24 0 24 0-38.334-17.999-39-21.666-3.999-10.333 17.334-11.333 68.666-16 75.333-68.667c1.54-12.981 0-33 0-33s-19.999-10-29.666-12.333-27.333-10.666-29-29.333c-3.334-18.334 2.571-22.792 16-37.334 16.666-11 38.334-14.667 48-24s37.999-38.333 31.333-88.334c-9.333-42.333-23.333-39.999-67-100.999-19.333-29.667-59.667-78.333-59-130-1-12.333 1-106.667 12.667-159.667 4.333-14.667 17.333-107.333 44.333-179 0 0 55.999-136.334 23.999-209.834-25-55.5-65.63-86.223-97.844-110H1876s13.5 83 .667 184.833z"/></svg>