<svg xmlns="http://www.w3.org/2000/svg" id="hair" viewBox="0 0 3000 3000"><path id="cl1" fill="#BD8542" d="M1578.1 487.9c-28.5 2.9-56.8 5.1-84.8 11.5-41.5 9.5-76.1 31-107.8 58.2-17.8 15.3-33.2 32.6-45.4 52.7-6.5 10.8-14.2 20.9-21.1 31.5-10 22.9-17.6 40.6-21.6 63.7-5.8 34.2-11.2 67.1-9.7 102 1.7 39.6 9.7 76.1 25.5 112.5 1.8 4.3 4.3 9.4 4.2 14.2 3.1 1.9 2.8 5 3.3 7.9 4.9 29.3 10.8 57.5 11.3 87.1.8 43.7 3.1 85.5 8.9 128.8.4 3 3.1 8.6 3.8 11.5 3.3 7.6 13.9 16.9 27.2 20.1 4.9 1.1 14.1 3.4 20.3 4.2-5 4.5-18.2 11.7-23.3 13.8-17.9 7.4-38.7 16.6-58.5 15.7-9.9-6.6-14.9-22.4-20.3-32.2-11.8-21.3-20.6-44-29.5-66.6-13.8-35.1-28.7-69.7-55.6-97.3-3.7-3.8-7.6-4.2-10.6-8.6-2.5-4.4-10.3-6.5-10.8-11.5-.2-2.4 1.1-8.3-.4-10.2-2-2.6 2.1-7.5-1.1-7-3.5.5 1.4 3.9 1.1 7-.3 2.6.9 3.6 1.4 6.2 1.9 11.2 1.4 21.9 5 32.8 9.6 28.4 18.3 58.3 25.8 87.3 9.8 25.3 15 40.2 31.3 60.7 6.5 8.1 16.3 22 24.7 28.2 1.8 1.3 5.9 4.5 7 7.4-20.8 6.9-49.6 7.7-70.2.9-7.5-2.6-12.8-7.8-17.6-14-39.7-51.5-72.2-107.4-99.9-166.1-.6-1.8-1.2-3.6-2-5.3-.5-.9-.8-1.8-1.2-2.7-1.2-5.4-10.4-.9-5.8-14.8 0-1.3 1.8-3.5 1.8-4.8 0-3.8 3.2-7.1-.7-7.4-3.6-.2-.8 3.4-1.7 6.4-2.2 7.3-5 14.7-6.5 22.2-3.2 49.2 2.3 89.3 27.9 130.1 1.4 2.2 10.6 8.3 10.8 11.1 0 .8-11.1 4.3-11.6 1.1-22.4.3-43.7-5.1-63-17.3-11.7-7.4-20.2-17.2-24.6-30.4-1.8-4.6-1.1-9 .1-13.6 8.9-32.4 17.7-64.9 23.6-96.7-9.6 19.2-22.3 37.9-37.7 54.6-8.8 9.5-17.7 19-28.3 26.7-3.5 2.6-7 5.3-11.8 3-17.5-4.3-34.1-10.4-48.4-21.8 3.8-6.2 10.3-9.3 15.6-13.8 44.1-36.6 74.8-82.8 96.8-135.1 3.5-8.4 3.2-17.7 5.3-26.4 2.7-11.1 5.3-12.4 16.6-12.2 27.4.4 54.7-1.1 81-9.1 27.1-8.2 53.7-18.1 78.8-31.4 12.4-6.6 24.2-13.8 34.1-25.1-17.8 6.6-34.7 13.5-51.7 20.2-19.8 7.8-40.3 12.4-61.3 12.8-19.9.4-38.7-6-56.4-15.1-5.4-2.8-7.1-7.7-7.8-13.2-2.4-18.9-1.7-37.9-.6-56.8 1.9-32.7 8.3-64.6 15.7-96.4.4-1.6 0-3.3-.2-5 .1-6.1 2.9-11.6 4.8-17.2 10.1-31.4 22.3-61.9 39.3-90.4 17.5-29.4 40.3-54.4 64.5-78.3.9-.9 2.2-1.3 3.4-1.9 8.1-1.8 15.5-5.9 23.7-7.4 3.9-.7 8.6-1.7 11 2.3 2.4 4.1-.6 7.8-3.3 10.6-12.3 12.8-22.4 27.2-33.1 44.1 11.2-5.5 20.5-10 30-14.2 16-7.1 32.8-11 49.7-15 1-.2 2-.4 3-.4 3.6 0 7.9-.9 9.9 2.9 2.2 4.2-.6 8-3.7 10.5-7.6 6.1-13.8 13.4-19.9 20.9-14 17-25.8 35.4-34.3 53.6 31.3-31.4 70.7-52.5 115.3-68.6-8.5-1.1-14.5 1.9-20.8 1.4-3-.3-6.5.3-8.3-2.5-2-3.1.8-5.7 2.5-8 5.7-7.9 10.3-16.3 13.9-25.3 3.4-8.4 2.2-10-7-9-14.9 1.6-29.5 5.1-44.1 8.4-6.9 1.6-15.2 6-20.4-1.3-5.2-7.3 1.4-13.6 5.5-19.6l6.3-9c9.5-13 9.4-14.2-1.6-24.5 20-10.7 41.1-18.1 63.5-21.5 6.2-.9 12.5-1.6 18.7-2.4 2.2-1.2 4.5-1 6.8-.6 3.5.6 6.2 2.5 7.4 6 1.3 3.9-1.4 6.3-4.1 8.3-7.3 5.3-15.5 9.1-23.1 13.8-4.5 2.8-9.1 5.5-14.7 9.2 34.8-5.4 68.7-7 102.5-10.6 12.3-1.3 24.6-.6 36.9-.3 3.3.1 7.3.6 8.2 4.4 1.1 4.8-3.5 6.2-6.7 7.2-20.3 6.7-39.8 15.2-59.3 23.8-1.7.7-3.6 1.1-5.3 1.7-.8.3-1.6.6-2.4 1-1.2.5-2.3 1.1-3.5 1.7-.7.5 1.8-.1 1 .3-1.8 1.1.6-.6-1.2.4 4.3-1.7 1 .5 5.2-1.4.9-.4 1.8-.7 2.7-1 1.9-.6 3.7-1.6 5.5-2.4 23.3-8.9 46.8-17.3 72-19.1 1.3-.1 2.6-.5 3.9-.5 4.2-.1 10.4-1.6 11.5 2.9 1.2 5.1-5.2 5.8-9 6.8-13.3 3.7-26.3 8.5-38.7 12.8 17.3-7 35.8-4.6 54.5-3.1 17.8 1.4 35.7-1.3 53.7 0 12.3.9 24.4 2.8 36.4 5.3 3.1.7 6.7 1 8.1 5.4-5.3 2.5-11.2 1.2-16.2 3.6zm137 236.9c-3.1-7.4-5.7-15-7.3-22.8-.6-3-2.4-6.3 1-10.1 16.6 22.2 36.6 40.4 57.9 57.6 54.2 43.7 114.9 70.6 185.3 73 5.3.2 10.7.5 15.8-1.7 3.1-1.4 11.5-5.5 6.9-9.5-3.4-2.6-7.6-5.1-11-7.6-15.2-11.3-28.7-21.8-33.6-41-2-7.8-7.1-16.1-11.9-23.1-3 .6-3.9-2-5.4-3.6-12-12.4-24.6-24.2-36.4-36.9-3.8-4.1-7.9-6.2-13.2-3.5-13.1 6.6-27.2 6.8-41 5.3-20.1-2.2-40.5-4.6-55.9-20.3-3.3-3.3-7.8-3-12.2-3.4-9.4-.8-18.5 2.3-27.8 1.5-15.9-1.3-31.7-2.9-47.3-6.4-2.9-.7-5.9-1.1-8.8-2-1-.3-1.9-.5-2.9-.6-28.9-6.1-57.6-13.4-83.9-27.3-11-5.8-22.8-10.9-30.5-21.6-.9-1.3-2.1-2.1-3.7-2.5-5.2-.8-9.8 1.6-14.5 3.2-21.2 7.2-41.6 16.2-60.2 28.6-8.8 5.8-9.1 9.7-2.6 17.9 3.5 4.5 7.9 8 12.1 11.8 20.6 18.6 44 33.3 66.8 48.9 31.3 21.4 61.4 44.6 97 59.1 37.8 15.5 77.1 25.3 117.3 31.8 3.5.6 14.2-.6 15.1-6.7-4.9-5.8-7.1-14.1-12-19.9-13.1-15.5-30.6-27.2-42.5-43.8 3.5-9.8-7-15.7-10.6-24.4zm270.6 418.2c-5.1 2.3-9.6 1.8-14.2 3.2-4.9 1.5-7.2 3.5-13.8.3-3.3-4.7-2-5.9.3-9.8 3-5.2 9.9-11.3 11.2-18.2-7.1 1-13.4.6-19.7.3-5.5-.2-9-2.8-10.7-7.7-2.2-6.2-2.8-13.8-6-19.7-2.2-1-5.1-.6-5.5-2.5-9-34.9-15.5-70.2-16.2-106.3-.8-40.2 1.1-80.5-3.8-120.6-.7-5.4 2.1-8.8 5.1-12.3-5.1-2.6-10.8-4.3-16.2-5-7.9-.9-6.2 6.6-4 10.8 1.6 3.2 5.2 5.9 2.6 9.9-7.8 11.9-6.1 25.5-7.7 38.6-2 16.9 0 34.1-2.9 50.8-6.6 37-7.1 74.2-6.8 111.5.2 22.3 5.3 42.9 21.6 59.4 2.8 2.8 5.6 5.7 8.5 8.4 4 3.6 2.5 5.6-2 6.5-4.5 1-9.3 1.3-13.7 2.9-2.6.9-5.3 2-5.7 5-.3 3.2 2.6 4.3 5 5.5 3.9 1.9 8.1 3.1 12.2 4.4 5.4 1.7 6.9 4.4 3.9 9.6-4.9 8.3-9.4 16.8-15.8 24.3-2.7 3.2-6.1 14.1-.4 18.8 7.1 1.9 10.3-1.2 17.5-.7.9-.4 6.4-2.6 7.4-2.8 20.7-3.4 37.9-13.9 54.1-27.4 8.7-10.1 16.1-23.1 15.7-37.2zM1552 621.9c3.5 5.1 8.8 8 13.9 11 23.8 14.1 49.2 24.6 76.2 31 13.2 3.1 26.2 7.9 40.1 6.2 21-2.1 42.2-5.5 60.5-15.5 17.7-9.6 28.6-7 41.5 7.6 16.9 19 68.2 23.5 100.5 2.6-5-6.5-9.5-10.3-16.5-14.5-4.4.7-19.1 2.6-22.7 1.2-19.2-7.4-38.6-14.1-57.3-22.8-15.3-7.2-31.7-11.2-48.7-12.9-12.1-1.2-24.3-2.4-36.4-4.1-16.1-2.3-32.3-1.8-48.5-3.1-24.8-2.1-49.7-.2-74.3 3.9-10.3 1.7-20.9 3.1-30.5 7.7.8.4 1.5 1.1 2.2 1.7zm-170.4 275.7c9.3-7 15.8-16.1 19.7-27.1 3.7-10.7 7.7-21.3 10.9-32.1 13.9-45.8 28.6-91.4 40.5-137.7 1-3.9 2.3-7.6 5.4-10.5 6.7-5.2 8-13.2 4.1-25.6-5.4 2-9.7 5.5-13.4 9.7-14.1 16.2-28.1 32.5-39.2 51.1-20.6 34.6-39.4 70-52.3 108.2-8 23.5-17 46.8-17.2 72.1 0 1.7-.4 3.5-1.7 4.6-4.5 3.7-4.4 8.6-4.3 13.7 17.5-5.6 32.9-15.3 47.5-26.4zm288.3-411.1c26.7 1.3 52.6 5.5 76.8 17.7 16.2 8.2 32.8 15.9 49.2 23.8 2.1.9 6.1-2.4 5.5-4.2-9.4-8.4-18.4-18.2-27.5-27-29-28.2-67.1-45-103.8-61.4-10.9-4.9-21.9-9.5-33.8-11.9-1.3.1-2.6.3-4 .3-2.5 0-4.8.6-5.6 3.1-.8 2.7 1.3 4.4 3.2 5.6 1.9 1.3 4.1 2.2 6.2 3 2.7 1 5.9 1.2 6.9 4.5-1.7 3.3-6.8 2.8-7.7 7 7.1 1.7 13.9 3.1 20.6 5 3.6 1 4.7 3.6 1.8 6.8-2.3 2.4-4.6 4.8-7 7.1-4.9 4.5-7.4 10-8 16.5 5.4 3.5 12.2-1.2 17.2 3.3 3.4.4 6.7.6 10 .8z"/><path id="sd1" fill="#926633" d="M1834.9 1035.3c1.9-6.2 12.4-23.8 16-33.3s6.8-7.7 6.8-7.7c2.8 6.9 1.3 14.2 1.8 21.3 1.4 19.2-1.2 38.3-4.5 57.3-.7 3.9-.9 7.9-1.8 11.7-3 4.8-5.1 1.6-5.1 1.6s-.3-1.5-.4-2.2c.2-4.6-13.4-38.6-13.4-38.6-1.7-6.1.6-10.1.6-10.1zm-270.3-416.9c22.1-4.7 44.5-7.6 67.2-7.6 27.6 0 55.1 1.8 82.5 4.5 26.1 2.5 52.3 5.6 76.4 17.4 18.5 9.1 38.4 15 57.4 23 2.7 1.1 22.7 2.3 25.6-.2-8.3-9.2-24.4-18.9-34.2-26.3-29.7-22.2-68.4-39.1-105.8-44.5-21.8-3.2-48.4-6.2-70.3-6.8-43.2-1.3-88.5-1-131.4 6.6-31.8 5.6-62.3 15.6-87.9 35.7-21.6 16.9-42.8 34.9-58.8 57.4-25.6 36.2-41.3 80.9-49.6 123.6-4.6 23.5-7 52.3-9.6 76-1.6 14.5-3.5 29.2-4.1 43.8-.1 1.7.3 16.8 3.8 17.3 3-5.9 15.6-25.9 16-32.4 1.7-28.1 10.9-54.3 20.7-80.1 17.6-46.2 40-90.1 70.4-129.5 5.9-7.6 13.1-14.2 19.2-21.7 1.8-2.2 4.3-5.6 7.2-4.4 3.7 1.5 1.4 5.9 2 9 .8 4.3-4.1 6.8-3.3 11 5-.4-1.2 11.7.3 16.5 7.8 12.3 21 27.3 32.7 39.3 33.8 34.7 81.8 61.8 127.3 78 37.6 13.4 76.8 18.5 116.3 21.6 13.3 1 26.6.4 39.9 1.6 6.3.5 19.9-1.2 26.8-4-5.3-7.3-16.8-27.6-22.8-33.3-2.5 3.3-10.1 8-13.4 7.4-20.8-3.9-41.6-8-62.1-13.5-38.4-10.4-75-24.9-107.9-47.8-19.4-13.5-38.5-27.2-58.3-40.1-18.7-12.2-36.3-25.7-53.4-39.9-4.8-4-9.3-8.5-12.8-13.9-1.9-2.9-1.7-4.7.8-6.7 1.6-1.2 3.1-2.5 4.8-3.6 13.3-9 27.8-15.6 42.5-21.8 10.1-4.2 20.2-8.4 31.2-10.2 5 .2 9.8-.3 14.7-1.4zm38.2-161.2c-1.9 2.1 1.6 1.4-1.1 0-1.8-.9-4.9-3.4-6.5-4.6-2.7-2-8.1-4.2-10.7-6.2-21-16.2-45-22.3-69.4-31.1-20.5-7.4-44.1-9.7-66.1-9.4-24.6.4-49.3-.1-73.8 2.3-9.8 1-19.9.3-29.5 3.5 1 .1 2 .3 3 .3 5-.2 9 2.5 9.8 6.8.7 3.4-4.1 4.6-6.8 6.3-12.1 7.5-25 13.7-36.5 22.2-1.4 1.1-4 1.2-3.3 4.1 2 .9 4 .6 5.9.2 21.7-4.9 43.9-5.2 65.9-7.5 10.2-1.1 20.6-1.4 30.6-2.7 15-2 29.8-.8 44.7-1.3 2.2-.1 4.7-.3 5.7 4.1-23.2 8.4-46.6 16.6-68.7 27.9-1 1.2-2.9.8-4 2s-2.9.8-4 2c.7 4.7 3.5 2.9 6 2 .7 0 1.3 0 2-.1 1.1-1.3 2.9-.8 4-1.9 19.5-5.3 37.8-14.6 58-16.9 9.9-1.1 19.7-4.1 32.3-2.4-10.9 4.7-20.3 6.2-29.3 9.3-14.5 4.9-20.9 8.3-25.3 13.5 3.8-1 7.3-1.8 10.8-2.7 12-3.1 24.4-4.2 36.5-2.2 12 1.9 23.8.8 35.7 1.3 4.3.2 8.4-3 12.7-1.5 6.2 2.1 12.5 1.5 18.8 1.6 14.3 0 28 3.5 43 6.8-5.7 2.5-11.6.4-15.7 4.2 27.4-.2 55.2-1.3 82.5-1.2-.7-5.3-5.1-4.1-8.3-4.3-5.5-.4-6-3-3.9-7.2 2.4-4.9 6.8-8 10.1-12.2 4.9-6.1 3.8-9.8-3.4-12.9-4-1.7-8.4-1.5-12.4-3.3 3.9-8 4.1-8.5-4.2-12.2-6.7-3-8.6-5.7-1.5-10.2-.8-.5-1.6-1.3-2.5-1.5-30.1-7.3-60.7-11.6-91.7-12.4-2-.1-29.3.5-31.3.6 3.3 2.8 28.6 11.3 32 12.6 12.1 4.8 25.2 12.1 36.1 19.1m276.5 393.9c-3.9-.8-4 2.6-3.5 5.4 2.4 12.9 7.8 32.3 8.4 45.2.7 16.9-5.8 38.1-4.9 55 1.6 28.9 5.5 59.8 6.4 88.7.8 28-5.9 52.3-13.7 79.3-4.8 16.6-9.1 33.3-11.4 50.5-2.4 18.2 16 42.8 28.7 48.5 7.2 3.2 18 1.5 26 2-2-3.1-2.3-12.7 0-14.7 10.9-9.8 14.9-24 24-35.5-9.1-5.5-20-5.6-28.2-11.5 1.1-2.4 2.8-2.6 4.4-2.9 6.5-1.3 12.9-2.6 19.4-3.9 1.9-.4 4.2-.4 4.5-3 .2-2.2-1.3-3.5-3-4.8-21.5-16.3-31.9-37.9-32.7-64.8-.9-28.9 1.7-57.7 2.2-86.6 0-1.6.6-3.3.9-4.9 3.1-14.9 5.9-29.9 5.1-45.3-.7-13.6 2.7-27 2.3-40.7-.1-5.1 2-10.4 1.7-15.7-.1-2.5 1.2-4.3 2.7-6.2 6.4-8 6.3-8-.6-15.5-3.2-3.5 0-7.9 4.5-9-11.2-3.1-31.8-7.3-43.2-9.6zm-126-85.6c6.2 4.4 22 26.7 28 31.4 29.2 23.1 44.2 32.3 78 48.5 5.4 2.6 10.9 4.7 17 5.5 17.4 2.3 34.1 6 51.5 8 7.9.9 15.5 5.7 23.5 4.9 12.2-1.1 32.9-4.6 45-6.4 7.1-1.1 30.3-6.7 37.7-11.2-8.6-5.3-31.9-16.3-39.5-21 0 1.4.9 7.2-1.6 8-3.8 1.3-7.6 2.4-11.7 2-15.5-1.4-31.2-1.7-46.5-4.4-36.7-6.5-71.2-19.2-102.4-39.9-15.8-10.5-31.4-21.1-46.1-33.1-18.2-14.8-35.1-30.5-49-49.3-2.1-2.8-4.1-5.9-7.6-6.6-2.6 1.8-2 4-2 5.9-.2 10.2 3.6 19.6 7 28.9 3.5 9.8 9.3 18.8 8.1 29.9 0 .2.5.4.7.6 3.3-7.8 3.8-6 9.9-1.7zM1080.1 1024c-5.3.7-2.2 12.2-2.6 15.5-1.6 12.5-2.1 23.7-2.9 36.3-.4 11.5 4.6 28.7 7.9 39.5 7.6 25.1 18.5 40.1 32 62.1 1 1.6 13.1 9.4 14.8 10.6 23.6 17.4 43.5 34.5 88.8 36.8-4.6-4.3-19.7-12.9-23.6-17.7-23.2-28.6-42.5-60-61.5-91.5-15.1-25-27.9-51.3-40.9-77.5-.1 0-5.8-11.1-12-14.1zm105.9-2.2c11.9 35.6 21.4 75.2 33.5 105.3 2 8 2 12.3 6.6 19.4 4 8.5 10 14.5 11.1 22.2 9.8 17.5 24.8 38.6 42.5 47.9 7.1 3.7 25.5 8.8 34.7 6.5-18.5-25-35.5-58.2-46.7-87-10.3-26.3-20.4-52.6-35.1-76.8-10.2-16.8-32.5-40.6-46.7-54.1.2 1.6-.4 15.1.1 16.6zm-187.5 88.1c5.2.6 8.5 2.6 10.3 7.6 1.3 3.7 3.4 7.1 5.1 10.6.3-2.6.4-5.3 1-7.9 6.1-23.1 12.5-46.1 18.3-69.2 3.4-13.6 5.8-27.5 8.7-41.5-1.4.2-1.9.1-2 .2-1 1.3-2 2.6-2.8 4.1-14.6 28.8-33.8 54.1-57.8 75.6-5.7 5.1-10.7 12.1-19.5 12.7 12.6 4.5 25.6 6.1 38.7 7.8z"/><path id="hl1" fill="#DF9D50" d="M1077.7 673.6c2.6 1.9 2.4 4.4 1.9 7.2-3.8 19.1-7.9 38.2-11 57.4-1.6 10.1-1.7 20.5-3 30.6-2.1 17-1.3 33.8-1.4 50.8-.2 19.7 2.3 22.4 21.1 29.2 11.6 4.2 23.5 6.8 35.6 9 1.3.2 2.7.3 4 .2 20.1-1.9 40.1-4.1 59.1-11.8 20-8.1 40.1-15.9 60.2-23.8.5-.2 1.3.1 1.9.2-2.7 5.6-11.3 14.7-18.1 19.6-14.1 10.2-29.8 17.7-45.7 24.4-23.2 9.8-46.9 18.5-71.5 24.3-6.5 1.5-13.3 2.1-19.6 2.4-13.9.8-27.7 3.7-41.7 2.7-2-.2-4-.2-5.9-.6-7.3-1.2-9.6 0-11.1 7.1-1.4 7.1-1.7 14.5-3.5 21.5-4 16.3-11.7 31.1-19.9 45.5-11.5 20.2-23.8 39.9-38.6 57.8-11.7 14.1-24.7 27-38.7 38.7-6.3 5.3-12 11.5-20.1 14.2-5.6-2.5-9.5-7-13.7-11.4.8-1 1.3-2.1 2-2.5 30.9-14.6 54.9-37.3 74.9-64.5 20.8-28.3 38.9-58.3 47.8-92.6 4.2-16.4 6.3-33.3 9.2-50 4.9-28.2 9.3-56.5 14.7-84.6 5.5-28.5 15.7-55.6 25.5-82.9 2.2-1.5.6-4.3 2-6.1v.1c2.3-1.6.7-4.3 1.9-6.2l-.1.1c2.5-1.4.8-4.3 2.1-6.1l-.3.1zm306.5 230c9.3-7 17.4-20.1 21.3-31.1 3.7-10.7 9.5-22.6 12.7-33.4 16.1-45.6 23.5-75.1 35.4-121.4 1-3.9.2-7.5 3.3-10.4 6.7-5.2 9.2-30.3 5.3-42.7-5.4 2-9.7 5.5-13.4 9.7-14.1 16.2-28.1 32.5-39.2 51.1-20.6 34.6-39.4 70-52.3 108.2-8 23.5-17 46.8-17.2 72.1 0 1.7-.4 3.5-1.7 4.6-4.5 3.7-10.2 18.7-10.1 23.8 17.5-5.6 41.3-19.4 55.9-30.5zm-188.3-423.8c-.6.8-1.2 1.6-2.1 2l.1-.1c-.5.9-1.2 1.7-2.2 2l.1-.1c-.4 1-1 1.9-2.2 2h-.1c1.4 2 3.2 1.7 5.3 1 6.3-2.2 12.5-4.5 19-6.2 3-.8 7.2-2.2 9 1.3 1.4 2.7-1.4 5.5-3.4 7.7-.2.2-.4.5-.7.7-8.4 7.3-14.5 16.5-20.9 25.3-5.1 7-11 13.8-13.3 22.9 3.9.1 6.3-1.9 8.8-3.2 23-12.3 47.4-20.9 72.9-26.4 4.5-1 8.9-1.6 14.4.9-7.4 11.4-18.7 17.9-25.9 28.2-7.2 10.3-15.7 19.9-21.9 30.8-6.1 10.8-13.7 21-16.3 34.7 4.3-3.2 7.3-6 9.5-9.8 2-3.5 5-6.3 8.2-8.7 12.7-9.6 25.3-19.3 39.1-27.4 14.3-8.4 28.7-16.7 44.6-22.1 8.5-2.9 17.5-5.6 25.3-12.5-12-3.5-22.9 3.4-35-.1 11.3-12.4 17-26.8 23.3-41.5-4.3-1.9-7.8-3.8-12.5-3-17.3 3-34.6 5.9-51.5 10.6a29 29 0 0 1-5.9.9c-7.1.2-9.7-3.2-7.4-9.9.6-1.8 2.2-3.3 3.3-4.9 4.8-6.8 10.1-13.2 14.2-20.4 5.4-9.4 6.5-13.8-6.5-18.6-.6-.2-1.3-.3-1.9-.5-24.9 11-47.1 26.3-67.4 44.4zM1671.6 669c-1.8.2-4.1-.1-3.6 3h2c2.3 2.1 5.8-.3 8 2 1.1 1.4 2.7 1.8 4.4 2 12.1 1.3 24 4.3 36.3 4.6 6.9.2 13.6.4 20.5 0 10.5-.6 22.6-4.8 30.7 7.2 1.5 2.3 4.8 3.4 7.4 4.8 8.3 4.5 17.2 6.6 26.4 8.3 21 4 41.9 6.7 62.1-3.8 2.8-1.5 4.6-.7 6.8 1.7 9.3 9.9 19 19.5 28.5 29.2 5.3 5.4 10.7 10.7 16.5 16.6.3-2.4.4-3.7.6-5-5.5-13.1-9.3-26.8-14.9-39.9-.6-1.5 2.4-7.1 1.3-8-9-7.4-12.9-22.1-22.8-28.5-4.4-.1-16.1 6.4-20 8.5-5.9 3.3-11.8 2.5-18.5 2.8-24.4.9-46.2-.7-63.1-19.2-2.2-2.5-4.6-4.8-7.1-7.1-7.2-6.8-7.8-7.1-16.4-2.5-17.5 9.2-36.2 14.6-55.3 19-6.5 1.5-13.5-.5-19.5 3.3-3.2 2.1-6.8.6-10.3 1zm262.3 423.9c-2.5-3.2 0-7.2-1.8-10.5-.1-1.1-.3-2.3-.4-3.4-2-3.3.1-7.2-1.6-10.5-.4-5.3.9-10.2.1-15.5-5.1-36.1-6.7-72.3-2.2-108.5 3-24.6 3.1-51.6 1.6-76.2-.3-5-1.3-9.9-2.1-14.8-.8-5.2-9.5-8-14.8-7.2-8.6 1.4-9.2 5.1-8.6 13.4.5 6.9 2.4 13.7 1.9 20.7-.2 3.6-.4 7.4.3 11 3.5 20.4 1.4 41 1.7 61.6.3 20.9-.9 41.9 2.3 62.6 3 18.9 5.1 38 9.7 56.6 2.2 8.9 4.1 17.9 9.1 28.2.6-3.9 2.4-2.4 2.6-3.6l2.2-3.9zm-264.8-425.2c-27.5-5.5-54.6-12.6-79.9-25.1-12.7-6.3-25.5-12.4-37.2-20.7-2.3 3.2 1.1 4.2 2.5 5.3 8.9 6.9 18.5 12.9 28.6 18.1 16.3 8.3 33.5 14.4 51.2 18.9 11.2 2.9 22.2 6.9 33.8 7.7 1.8-2.5 4.5-1.9 7-2s5.2.5 7-2c-4.4 0-8.8.6-13-.2z"/><path fill="#636702" d="M1299.3 880.5c-4.5-12.6-7.5-32.6-9-45.7-2-17.8-3.1-43.6-2.2-61.6 1.6-29.9 7.7-56.6 14.9-85.7 3.4-13.6 8.4-31.7 16.2-43.4 12-18 22.4-38.2 35.2-55.6 19.8-26.8 56.8-49.3 84.8-67.2 24.6-15.8 48.5-21.2 76.6-26.8 26.4-5.2 57.9-7.1 84.8-6 19.9.8 41.1-1.2 61 .6 15.2 1.4 39.4 2.6 54.5 5.4 13.9 2.6 24.9 5.7 37.5 11.7 22.9 10.8 37.9 20.7 61 31.1 14.9 6.8 27 27.4 34.8 41.6 8.3 15.2 15.7 30.1 24.1 45.2 1.6 2.9-4.8 4.4-8 4.2-3.5-.2-6.1-2.5-8.7-4.6-31.9-27.6-69.3-44.2-109.9-54.6-24.9-6.4-50.1-10.1-75.9-10.4-21.9-.3-43.8-3.2-65.6-4.6-44.9-2.9-89.9-4-133 13.1-29.7 11.8-51.7 33.6-72.5 56.6-9.6 10.6-18.3 22-27.3 33.1-22 27.5-32.8 59.9-42 93.1-9.7 35.1-15 70.9-18.3 107.1-.4 4.8-6.1 21.4-13 23.4z"/><path fill="#4F5300" d="M1297.4 872.9c2.7-4.3 12.2-11.9 12.5-16.8 1.9-31.4 7.1-62.4 14.3-93 6.7-28.1 15-55.8 28.4-81.5 6.9-13.1 16.2-25.1 25.6-36.6 12-14.6 23.9-29.3 37.7-42.3 9.4-8.9 19.3-17.3 30-24.6 19.8-13.4 41.9-20.3 65.4-24.5 28.8-5 57.6-3.1 86.4-3.7 7-.1 13.8 1.6 20.7 2.5 7.6 1 15.3.6 22.8 1.6 16.5 2.3 33.2.7 49.7 2.1 26.1 2.3 51.6 7.9 76.6 15.8 27.8 8.8 53.7 21.1 77.1 38.4 6.1 4.5 11.7 9.8 17.7 14.5 1.7 1.3 6.8 3.4 7.7-1.8 11.2 15.8 21.1 33.5 23.3 47.8-6.6-5.6-20.5-18.1-26.4-23.1-24.8-20.9-52.9-35.1-82.3-48.6-21.2-9.7-42.1-12.8-65.3-16.2-43.6-6.4-87.6-4.6-131.5-4-34.3.5-63.5 5.1-96.1 15.9-16.8 5.5-32.9 12.5-46.8 23.6-14.8 11.8-27.8 22.1-41 35.8-21.2 21.9-36.1 45.4-46.6 73.9-12.3 33.5-22.7 65.1-26.6 100.7-1.4 12.7-1.9 26-5.2 38.5-1.7 10.4-2.2 22.5-2.6 33.1-.2 3.6-1 27.6-3.1 31-6.5-6.5-20.6-44.5-22.4-58.5z"/><path fill="none" stroke="#000" stroke-linecap="round" stroke-miterlimit="10" stroke-width="6" d="M1432.1 802c-4.4 14-32.2 88-47.9 101.6-15.7 13.6-42.1 26.8-62 34.7 6.3 18.8 9.7 77.7 9.7 93.8 0 16.1 4 65.9 8.2 117.2 4.2 51.2 59.4 42.6 61.8 40.8-44 28.1-88.3 41.1-122.1 27.9-91 23-131.9-11.6-163.8-40-94 0-111.3-66.1-111.3-66.1s-78.6-6.3-109.1-45.7c109.4-62.3 119.7-130.1 131.8-180.1 12.1-50 17.2-136.8 63.2-258.4 32.1-99.8 141.7-177 141.7-177 90.7-63.7 261-42 261-42m-109.1 494.9c25.8-19.6 43.5-87.5 47.9-101.6l24.8-94.7s17.7 18.9 21.5 24.4c3.8 5.5 110.6 137.5 325.4 112.2 0 0-30.5-36.3-33.2-50.8 8.1 6.1 61.2 41.2 77.6 42.7 9.4 16.1 11.5 36.1 9.4 68.1-2.1 32 3.7 119.2 4.3 126.3.7 7.1-13.7 91.9-20 99.8-6.3 7.9-12.6 50.5 14.1 72.2 26.7 21.7 135.9.9 130.8-62.4-9.1 5.1-20.1 7.7-27.5 5.9-7.4-1.8 10.8-23.6 12.4-27.6 1.6-4-23.6 3.2-28-1.9-7.3-3.7-13.5-46.3-15.8-66.3 0 0-6.1-78.7-1.1-98.1 5-19.4 2.6-89.6.7-103.1 1.4-5 71.8-2.9 84.1-17-23-10.8-64-33.8-74-55.2-10-21.3-32.7-79.7-36-86.3-3.3-6.7-14.3-46.7-20.7-53.7-6.4-7-41.2-83.1-55.4-91.6-14.1-8.5-58.8-57.6-76-70-17.2-12.5-75.5-45.6-123.5-57.2-54.8-13.3-119-9-132.7-9m-410.8 596.4s-33 103.4 33.5 172.9m66-188.2s27.3 184.9 97.8 228.2m551-668.1S1773 506 1716 494.5s-181-3.5-199.1 0c-18.1 3.5-161.9 30.5-211 183.5s16.3 260.3 16.3 260.3S1318 820 1361 722s117-125 153-134 178.5-22.2 265 9 119.7 85.3 119.7 85.3m-295.9-225.1s-67.5-42.5-109.5-48.5M1724 747c4 5 46.6 46.1 46.6 46.1m77.6 42.7l79.3 12.9"/></svg>