<svg xmlns="http://www.w3.org/2000/svg" id="hair" viewBox="0 0 3000 3000"><path id="cl1" fill="#956D3C" d="M1192.6 580.6c23.4-25.101 50.3-44.9 77.6-65.601 2.9-2.199 5.801-5.3 8.5-7.8 2-1.899 4.5-.1 2.5-2.7-2-2.5-.8-1.5-3.199 0-5.301 3.4-10.301 7.801-15.2 11.7-25.601 20.2-47.7 40.101-70.5 63.3-1.4 1.4-4.2 3.5-5.7 4.7-8.6-.399-16.2-8.7-17.6-15.399-2.801-13.5-7.9-29.601-2.801-43.101 5.2-6 8.801-13.6 14.2-19.5 9.9-10.8 21.101-16.1 31.4-26.5 15.7-15.899 38.5-31.6 59.3-39.5 30.067-17.033 59-18.7 89.3-21.5 3.9-2 8.601 1.8 12.5-.3 2-.101 4.3-.2 6.3-.3 25.601 2.6 49.301 13.1 72.801 23 23.1 9.7 32.1 28.6 32.699 52.4-.1 6.3 3.5 22.699-.8 28.3-13.8 4.8-24.899 7.8-38.3 13.7-28.2 12.3-49.9 25.899-69.4 50.1-12.5 15.5-20.1 30.6-26.899 49.1-3.3 9-6.601 18.101-9.9 27.101-4.5-.101-17.1-2.4-20.2 1.3-10.6 12.5-24.399 20.7-39.399 26.399-27 10.301-55 1.101-69.101-26.6C1198.699 639.2 1190.699 607 1192.6 580.6m-83.1 202.701c3.699-25.5.199-50.801-1.301-76.2-1-15.3-4.899-16.8-18-9.3-6.6 3.8-13 8-19.699 11.699-5.2 2.9-10.9 8.101-12.5 13.801-2.7 11.199-1.601 21.399-.5 32.8 2.199 23.3-.9 49.6-3.5 72.8-4.2 37.4-12.601 68.3-34.301 99.2-10.699 15.2-22.199 30-31.6 46.1 9.3 23.4 20.9 45.601 39.5 62.8 18.6 17.2 40.7 23.601 65.4 13 4.899-2.1 7.399.301 10.1 3.601 16 20.1 38.8 36.8 64.2 42.7 11.7-17.101 30.7-37.2 33.8-58.2 2.9-20-2.9-43.2-6.7-63-5-26.601-14.3-51.5-24.399-76.5-17.9-44.3-32.4-89.601-37.101-137.4-9.599-.102-21.599 8.998-23.399 22.099zM1334.6 952.2c-1.8-3.5-16.6-37.5-16.7-41.6-5.8-14.7-5.899-29.9-6.2-45.6-.199-9.301 1.4-19.9 1.601-29.2 2-5.5-11.3-5.101-14.5-7.9-15.7-13.6-33-24.7-51.5-33.8-15.9-7.8-32.9-13.4-50.601-13.4-7.3 0-10.899-1.899-14-7.7-5.199-9.699-11.899-18.399-18.3-27.3-4.5-6.2-9.899-7.1-16.6-4.1-10.5 4.7-16 9.3-13.9 25.8.3 4 2.2 7.7 2.8 11.6 5.5 36.4 14.101 72.301 28.4 106.101 11.7 27.6 21.7 51.3 28.1 80.8.801 3.5.9 12.3 3.5 15.3 2.2-1.5 7.2-2.899 7.2-3.7 7.5 12.301 15.7 21.801 26 33.601 5.5 6.3 13 9.2 21.4 9.2 7.6 0 13.3-2.9 15.3-11.301 1.2 5.7 2.2 11.301 4.8 16.301 2.7 5.199 5.9 10 12.4 10.3 6.8.399 9.8-4.8 12.5-9.9 9.3-17.8 15.3-36.7 17.1-57.899 10.601 26.6 22.5 51.699 20.4 80.3-.2 2.899-24.9 82.1-13.7 124.399 7.1-53.6 22-103.3 24.1-131.5.301-23.5 1.301-37.699-1.6-61-1.4-1.899-3.3-16.3-4.5-18.3m-43.3 214.898c-10.4-20.5-14.3-42.9-18.101-65.2-.6-3.6-.399-8.3-4.8-8.9-4.8-.699-5.2 4.5-6.1 7.7-5.2 17.8-14.8 33.5-22.7 50-1 2-1.5 5-4.3 5-3 0-3.101-3.2-3.7-5.2-3.4-11.5-7-22.899-6.6-35.199.199-8.7.6-17.301 1.699-25.9.301-2.6 0-5.9-3.1-6.6-2.4-.601-4.2 1.699-5.5 3.699-3.5 5.301-6.9 10.601-10.3 16-4.3 6.801-9.101 13.2-14.9 18.7-4 3.8-7.3 3.3-7.6-3-.4-7 .2-14-.2-21-.5-7.5-2.9-20.6-7.5-27.6-9.6 14.899-20 27.3-29.4 42.399-4.5 7.2-9.699 16.801-12 25.101-1.699 4.2 6.7 13.3 8.601 16.8 5.7 10.2 12.5 19.5 20.5 28.1 20.899 22.601 45.3 41 69.7 59.4 41.899 31.7 72.034 55.299 118.833 79.6 2.899 1.5-.867-6.399 2.833-8-.23-17.863-3.5-19.833-4.167-33.5-1.304-26.729-4.167-35.833-11.667-61.333-21.497-12.3-38.731-29.567-49.531-51.067zm-342.601-125.4c3.7 24.601 4.101 54.601 10.801 78.5 5.1 16 22.3 20.9 34.3 31.4 5.6 4.899 9.2 2.6 9.8-5.2.9-11.1 1.3-22.4 9.6-32.7 8.9 19.301 23 33.5 35.7 48.801 14.7 17.6 28 36.399 45 52 6.9 6.3 9 6.1 13.4-2.2 7.5-14.4 22.399-29.2 22.5-46 1-3.9 2.8-10 2.199-14.2-2.199.8-9 6.2-11.699 8-23-29.399-45.101-59.399-64-92.5-1.601 2.9-2.601 5.4-4.101 7.5-7.199 9.7-15.199 17.7-28.899 15.601-6.101-.9-11.5-3.4-16.2-7-8.2-6.2-15.2-13.601-21.2-22.101-12.6-17.899-20.9-37.6-25.4-59-7.301 11.899-13.9 24.599-11.801 39.099zM1640.9 683.4l-2.9-7.4c3.3-4.899-3.101-9.6-4.7-14.199-4.5-12.601-10.3-24.601-17.5-35.801-11-17.1-23.2-33.399-32.601-51.5-6.399-12.3-15-22.8-24.6-32.5-16.8-17-37.2-23.5-60.9-20.1-2.3.2-4.699.1-6.899.6-26 5.7-50.8 14.601-73.5 28.601-7 4.3-14.3 8.3-19.601 14.899.5 1.2 3.601.301 2.301 3.2-8.801 20.2-13.9 41.7-22.5 61.9-4 9.4-5 19.3-4 29.4 1.199 13.3 8.1 19.8 21.3 20.3 5.3.2 10.8.899 16-.3 21.6-5 39.2 3.199 55.3 16.399 6.3 5.2 12.8 6.2 20.5 3.7 10.2-3.4 19-9.6 29.1-13.2 27.2-9.8 52.601-13 81.801-9.7 3.6.4 13.199 3.301 14 8.2 4.8.601 7.1 1.2 11.699.101 3.7-2.6 13.9-.4 17.7-2.6zM1880.3 877c-1.5 5.4 1.3 15.7.5 21.301-3.3 25.6-.4 51.6-5.4 77.1-1 5-1.5 10.7 3.2 14.8 5.5-2.2 3.5-6.899 3.6-10.899.801 1.899 2.101 3.399 3.5 4.8 3.101 3.1 6.301 6.7 11.101 4.6 4.399-1.899 3.6-6.6 4-10.5.5-4-1-8.2 1.199-12.2 2.301 1.101 3 2.601 4.2 3.801 2.5 2.6 4.9 6 9.1 4.5 3.9-1.5 4.7-5.301 5.2-9 .601-4.601.4-9.301.4-13.9-.2-19.2 1.399-38.3 3.1-57.3 0-3 7.9-7 7.601-9.9-2.4-23.1-5.101-46.3-7.4-69.399-4.4-43.301-13.1-85-20.4-128-4-23.2-11.8-46.601-23.8-66.9-15.6-26.5-31.7-52.9-53-75.1-22.8-23.801-47-42.801-72.899-63.2-2.801-.5-7.101-4.7-9.2-6.2-17-11.3-34.5-23.601-53.601-31.3-3.5.7-12.1 4.899-15.5 6-11.3 3.5-23.1 5.7-33.899 11-4.4 2.2-6.7 5.1-8.101 10.3-1.899 7.1-.5 13.7.5 20.399 1.5 9.9 4.601 19.301 11.5 26.9 6.7 7.4 13.601 14.6 24.9 14.1.4 0-.1 5.5.4 6 4.899 2.4 10.399 1.801 15.6 2.7 36.4 6.4 67.3 16.601 100.3 32.8 38.601 18.9 69.3 47.5 88.2 85.5 26.6 53.301 28.7 110 19.3 168.301-2.7 16.5-7.2 29.5-12.3 45.3M1332.3 685c-5.3 22.301-11.101 44.7-13.3 67.5-1.101 12.2-1.601 27.4-4 55-1.601 18.2-3.7 37.2-4.5 55.5 1.699 22-1.301 16.301 15.8 18.5 11.399-.1 24.7 0 36-1.899 3.1-2.2 6.399-2 10-2.4.8.601 3.5-.3 3.899-1.2 1.5-1.8 5-2.3 7.101-2.5 8.1-4.6 18-8.699 26.1-13.3 6.7-5.1 13.3-9.899 19.9-14.899.399-1.601-4.7-7.7-4.3-9.301 2.199-10 5.8-19.899 4.8-30.3-1.8-20.2-5.5-40-12.101-59.2-3.899-11.399-9.199-22-18.6-30.199-6.7-5.9-14.9-8.7-22.5-12.601-10.6-5.399-19.9-2.2-25.6 8.5-2.301 4.4-3.801 9.2-5.101 14-2.3 8.601-3.7 17.5-8.1 25.7 0-25.3 5.3-69.1 5.3-94.5-2.399 2.4-9.998 24.4-10.798 27.599zm376.8-105.699c-3.5 20.5-5.3 41.3-2.9 62.3 1.5 13.6 10 22.7 17.7 32.5 17.9 8.1 35.8 16.1 53.8 24.2 1.7-.2 3.301 0 4.801.899 10.5 5.8 22.1 9.101 33.199 13.5 3.301 1.3 7.2 3.8 10.2.8 3.4-3.5.5-7.5-1.2-11-2.3-5.1-5.1-10.1-7.5-15.199-1-2.2-3.699-4.7-1.199-7.2 1.8-1.8 4.399-.5 6.6 0 7.2 1.5 14 4.3 21.2 5.7 4.199.8 9 2 12.199-1.801 3.5-4.199 1.2-8.899-.699-13.1-2.601-5.9-6.9-10.5-11.301-15.1-6.6-6.8-13.8-13-20.899-21.8 8.1.6 13.8 3 19.5 5.399 3.1 1.4 15.8 3.5 19.899 1-3.5-6.899-10-14.7-15.1-20.3-29-31.8-75-53-114.7-66.3-12.001-1.299-21.4 12.502-23.6 25.502zM1873.8 697.1c-1.8-.8-3.9-2.2-5.601-.8-2.199 1.8-.899 4.3.101 6.399 1.1 2.4 2.6 4.7 3.7 7.101 2.6 5.6 5.5 11.1 4.6 19-7.8-4.601-14.1-9.101-21.8-10.301-4.301-.699-9-2.199-12.4 1.301-3.6 3.699.4 7.399 1.7 10.899 6.1 17 8.5 34.101 1.5 51.5 10.6 33.9 19.199 74.4 23.399 109.8 7.9-13.399 16.5-31.3 20.301-46.1 8.8-33.9 11.1-72.1 6.3-106.8-1.9-14.1-5.1-29.2-10.3-42.6-2.4.101-9.3 1.501-11.5.601zm27 380.701c9.899 24.3 16.899 49.699 25.399 74.5 6.301 18.5 22.7 31.1 41.801 26.699 21.1-4.899 38.3-20.3 52-36.699 1.399-1.7 4.899-7.4 3.899-10.101-4.6-12.199-14.899-42.399-20-56-1.3 4.601-2.2 23.9-3.3 27-2.4 6.9-3.6 14.601-8 20.801-11.9 16.399-25 11.8-37.1 5.199-8-7-13.301-15.6-16.9-25.5-7.2-19.899-6.1-40.899-6.5-62-.3-17.899 1.5-80.5 1.5-98.399-8.9 3.899-17.4 55.7-15.7 65 1.3 7.2-.399 14.5-2.2 21.6-.6 2.1-1.5 4.8-4.399 4.5-2.3-.2-2.601-2.7-3.2-4.6-1.3-4.4-2-9.101-3.9-13.3-1.199-2.601-2.1-6.4-5.8-5.7-2.8.6-2.8 4.2-3 6.8-.6 8.899 0 17.8.5 26.7 1.101 3.5 4.7 6.399 3.3 11-3.899-1.7-4-5.5-5.899-8-1.101-1.5-2.3-2.4-3.8-.5.1 1.199.199 2.399.399 3.6 5.1 8.299 7.1 18.199 10.9 27.4zm-5.5 94c-.2 10.3-.101 20.6-.101 30.899 0 10.2.301 20.4-4 30.101.101-8-1.6-15.7-2.6-23.5-.4-2.801-.3-7-4-7-3.1.1-4.2 3.8-4.8 6.8-.4 1.6-.5 3.3-.5 4.9-.2 12.6-4.4 24.3-8.3 38.199-.7-9.199-2.101-16-2.4-23-.1-3.1 0-7.399-4.4-7.699-3.8-.301-4.3 3.6-5 6.399-2.199 8-5.5 15.7-7.3 23.801-1.2 5.3-5.1 10.399-1.8 16.199 3.399 2.9 4.399 7.301 6.5 11 8.1 14.601 21.8 36.7 38.8 42.801 0-2-1.2-11.301-1.2-13.301-1.399-4.699-1.399-9 0-13.699 1.7-12.2-2-25.601 3.601-37.101 2.399-9.8 2.699-19.7 2.6-29.7-.2-18.6-.2-37.199-.5-55.8 0-3.6.7-7.399-1.4-10.7-3.6 2.901-3.2 6.8-3.2 10.401zm130.5-31.901c-4 .2-12.8 15.8-15.7 17.8-9.8 6.9-20.1 12.9-31 17.9-9.8 4.5-19.9 7.3-30.8 6.3-2.8 3.4.2 5.5 2 7.4 6.1 6.4 12 13.1 18.899 18.7 6 4.8 16 11.899 24.5 12.1 13-18.9 31.5-68.6 32.101-80.2zm-88.3-58.4c.8 7.7 5 24 8.6 30.7 3 5.601 7.1 10.5 12.6 13.9 14.5 12.899 29.101 2 35-7.3 1.7-2.601 7.101-20.301 6.801-24.801-7.5 18-24.4 11.601-31.601 6.9-8.5-5.5-29.899-37.4-33.7-46.3-3.9-.298 1.999 25.101 2.3 26.901zm-39.301 55.7c.101-9.8-2.699-19-7.5-27.399-7.899-14.101-19.199-26.9-32.399-36-3.801 3.1-2 9.1-2.2 12.899-.5 9.5 1 19.101-2.6 28.4-7.101 17.899-9.801 36.7-11.4 55.8-.4 4-1.3 7.7-3.8 10.9 4.5 4.899 5.199 12.5 12.199 17.8v-37.4c8.301 7.101 10.7 16.101 15.101 25 1.8-11.699-.5-21.899-1.5-32.1-1-10.4-2.4-20.8-3.7-31.2 5.6 6.7 10.7 13.4 13.9 21.5 3.1 7.801 6.899 15.4 10.399 23-.8-18-2.3-35.5-5.199-53.1 4.5 5 8.899 9.7 10.6 16.4 2.5 9.5 5.4 18.899 8.1 28.3-.001-7.6-.1-15.199-.001-22.8z"/><path id="sd1" fill="#7F5B30" d="M1842.4 1071.1c-2.899-4.101-.7-7.5-.7-7.5 8.801.7 14.9 5 17.301 13.7 3.399 29-10.5 55.199-13.5 83.199-.801 7.301.6 15.601-5.801 21.601-3.3.1-5.699.8-4.699 5.1 5.8 25.5 7.899 51.5 12.1 77.3.3 1.801 1 3.101 3.2 2.801 3.399.699 4.5 3.6 5.899 6.199 7.801 14.601 15.5 29.2 31.101 37.2 1.399.601 6.7 4 7.399 5.101 2.5 18.5 12.7 42.399 21 60.1-4.699.2-21.399-7.1-24.199-8.5-31.301-15.8-56.2-39.6-80.801-64.2-6.8-6.8-14.1-13.1-16.6-22.2-6.4-22.699-3.4-48.899 3-72.1 2.2-8 2.6-14.6 4.6-22.6.801-3.101-1.5-5 .301-10.7-.7-.3-.9-.7-.7-1 .2-.4.6-.601.6-.601 9.7-12.5 16.3-31.8 16.3-31.8l-.1.2c.9-1.3.5-3.2 2.2-4.1 0 0 20.2-19.5 26.6-45.2 1.199-2.5-1.601-17.799-4.501-22zm-4-15c11 10.2 24.2 17.5 35.2 27.6 16.7 15.4 22.3 35.9 27.9 57.3 1 25.2-1.301 50.4-.301 75.5 1.601 9.7 1.101 19.4.4 29.101.3 1.7-1.8 8.1-.6 9.3 16.1 11.6 46.199 12.1 63.5-.2 11.899-8.399 22.1-22.1 29.199-34.6-16.699-8.7-30.5-23.6-41.199-39.5-9.101-3.6-16.4-10.4-20.9-18.9-2.5-4.699-6.9-9.3-8.8-14.199-9.4-36.9-22.2-63-34.101-94.4-.8-5.6-5.1-9.7-7.6-14.8-9.4-19.3-13.3-39.5-12.5-60.9.2-6.2 1.4-12.7-1.6-18.7-.801-1.1-1.801-1.2-2.9-.5.3.7.2 1.3-.3 1.9 0 0-3.7 26.6-13.601 40.1 0 0-16.699 20.5-16 45.5-.097-.002-.097 6.498 4.203 10.398zm-65.6 237.6c.1 2.7 1 3.5 2.5 4.8.7.7.2 2.2.7 1.301 0-3.2 3.6-1 7.399-2 3.2-.801 5.601-3.801 8.8-4.801 4.301-1.399 2.9-7.8 2-12-.399-1.899-.699-3.899-1.3-5.8-3.7-11.5-5-23.3-4.899-35.3.1-20.8 9.3-35.9 11.699-60.3-2.8-.601-5.399-1.5-7.6.8l.3-.2c-20.099 85-19.599 113.5-19.599 113.5zm78.1-451.899s.8 1.399 1.3 2.199l.101.101c.5.7 4.6.2 5.2-.4-2.2-12.7-6.301-24.5-8.801-37-3.1-15.7-7.899-30.8-13.899-45.399-2.2-5.4-6.2-17.4-10.301-21.9 0 0-3.399 7.4-2 11.8 1.301 4.3 5 26 5.301 31.2.3 5.2 1.699 12.6 1.699 12.6s.4 6.101 5.801 13.601c5.398 7.497 12.999 24.897 15.599 33.198zM1314 818.9c2.699-26.7 4.399-54.4 6.899-81.1 2.3-23.8 7.2-44.7 14.8-67.5 1.2-3.7 3.2-7.4 3-11.5-5.699-6.101-14.3-6.9-18.899-.5-5.9 8.3-13.9 14.2-22.5 19.399-14 8.4-28.101 14.7-45.7 12.801-16.4-1.801-27.6-10.2-35.5-22.7-12.3-19.4-17.8-41.3-18.2-64.3-.1-5.4-2.3-16.2-4.2-21.301-16.199 14.5-28.6 30.101-39.699 48.7-9.101 15.2-19.5 37.2-21.5 55.101-2.5 22.199-.601 45.699-.4 67.899 0 4.2 3 8.601 5.6 12.5.101-2 .601-4.1.2-6-1.6-7.899 2.601-12.3 8.9-15.8 7.5-4.1 10.899-3.4 15.8 3.4 8 11 15.6 22.3 22.3 34.199 1.2 2.101 2.601 4.601 5.301 2.601 5.1-3.8 10.199-1.4 15.3-.601 14.2 2.101 28 6 40.7 12.301 19.3 9.6 37.1 21.8 53.8 35.6 2.2 1.8 12.6 4.9 13 7.6 2.998-6.099.398-14.599.998-20.799zm174.8-298.2c12.399-2.6 24.8-4.899 37.399-4.899 31.2 0 54.601 9.199 82.5 22.6 8.301 4 19.7 4.2 30 .9 6.301-2 13.9-.4 20.801-.4 4 0 8 .1 12 .2.6-2.8-.9-8.7-2.801-9.101-18.3-4.1-26.8-17.399-30.899-34.1-6.3-26.1-2.5-31.7 23.399-39.2 8.5-2.5 25.101-5.7 32.4-11.6-8.5-5.2-19.2-9-28.5-12.3-11.8-4.101-25.9-7.4-37.7-11.4-21.1-6-62.899-9.7-85.899-8.2-2.101.1 2.5 5.6 7.3 6.8 7.8 6 13.6 12.801 21.399 18.9 12.5 9.9 19.4 22.4 26.301 36.8 1.699 3.4 2.399 8.3.6 10.3-4.4 2.301-1.3-7.699-3.1-11-2.101-3.8-7.4-10.899-9.801-14.5-5.399-9.899-20.6-28.6-42.8-40-2-1-6.6-7.5-8.899-7.8-18.4-2.6-47.2-.1-65.9 0-17.7 0-33.6 1.1-51.3 2-11.8.6-25.8.3-37.5 3.4 6.5 4.5 14.5 7.8 21.7 9.8 20.6 5.8 41.899 9.4 60.5 21.1 11.1 7 17.199 16.9 19.899 29.4 2.4 11.1 2.9 31.9 2.9 43.2 2.001-.299 4.001-.4 6.001-.9zM1141.5 1216c7.5 25.101 16.399 44.101 32 62.801 1.8 2.1 15.199 5.1 17.699 6.1 5.801 2.4 13.601 4.8 19.4 7.3 27.4 12 52 26.801 77.7 42.5 20.5 12.5 36.948 29.229 59.962 52.363 1.9 3.3 5.278 10.88 7.878 9.58 7.3-3.601 2.814-23.331 4.36-34.643-2-9.667-1.433-24.625-1.032-32.325-20.601-11.3-22.568-11.775-42.068-24.975-27.7-18.8-54.4-38.899-81.1-58.899-24.2-18.101-47.9-36.7-68.4-59-9.4-10.301-22.8-26.301-27.1-39.801-10.499 21.3-9.899 47.499.701 68.999zm-10-520.3c.399-7.899.5-14.399 2-22.2 4.399-23.699 15.1-41.6 29.8-60.199 7.8-9.9 19-20.801 27.1-30.4-2.8-1.3-10.7-4.5-13-6.2-5.899-4.6-8.1-10.399-7.6-18 .6-10.1.2-20.399.2-30.5-3.2-6.3-6.5-2.6-7.7-1.1-11.101 12.8-22 25.5-32.8 38.5-25.6 30.899-45.801 69.099-58.9 107.399-5.5 16-11.7 33-12.5 50.301 2.8-2.301 6.2-6.9 9.6-8.801 7.801-4.3 15.301-9.1 23.101-13.5 3.899-2.199 7.3-6 13.1-5.1 4.3 29.1 4.7 58.6 4.3 90 2.9-3 3.2-5.3 4.301-7.2 3.399-5.8 11-13.7 18.899-15.3-.601-22.4-1.101-45.5.099-67.7zM987 1194c4.8 11.301 10 19.4 11.199 31.9.801 1.3-.699 18.3 1.601 16.8 8.8-18.5 23.8-50.6 26.3-70.899.6-4.9-.5-10.4.7-15.301.6-2.5-2.8-6-.101-5.6 2.9.4 1.301 3.9 1.7 6.8.2 1.601-1.9 12.5-2.2 14.101-1.5 8.199-4.699 15.199-6.8 23.199-1.899 7.2 9.8 12.801 14.601 18.2 20.899 23.9 42.6 36.3 72.199 48.5 18.9 7.8 43.2 13.9 65.2 16.3-5.1-7.5-14.8-17.899-18.7-24.3-11.3-27.3-23.199-48.899-20-79-4 3.8-7.399 10.2-9.3 14.5-5.9 12.601-10.8 25.601-18.4 38.101-8.199-7.4-15.899-14.7-22.6-22.9-10.7-13-21.4-26.1-32-39.2-11.2-13.8-24.7-26.1-30.7-43.6-1-3-3.2-3.2-5.2-.8a20.24 20.24 0 0 0-3.199 5c-4.5 10.399-7.4 21.1-6.101 32.5.4 3.8-1.8 4.1-4.2 2.699-2-1.1-3.5-3-5.3-4.5-10.899-9.399-26.2-25.3-34.3-37.1 4.101 23 16.501 53.1 25.601 74.6zm717-526c-2.5-3.5-19.601-21.199-21.5-23.5-8.801-10.5-16.101-23.699-23.301-35.3-12.399-19.8-15.8-24.8-27.1-45-2.4-8.5-10.4-16.1-19.3-20.899-25.601-16.601-56.7-23.301-87.7-24.5-9-.4-18.6-.2-27.5 3.1 2.3.1 4.7-.1 7 .3 12.7 1.8 25.2 2.9 36.9 10 15.3 9.3 26.8 22.2 35.399 37 12.5 21.601 26.7 41.9 39.7 63.101 8.3 13.5 17.9 35.699 20.1 51.899C1657.199 683 1683.1 671.7 1704 668zm-9-124.4c-16.601-3.601-33.4-5.5-50.5-4.601-7.601.4-40.2-1.8-13.7 14 5.3 8.5 11.8 23.301 16.3 32.2 9.5 18.7 22.1 37.3 34.2 54.5 6.3 9 12.7 15.3 18.6 24.4 4.601 7 16.4 8.1 24.101 10 2.1-3.4 2-6.1-2-8.1-7.2-3.7-10-10.601-11.5-17.801-1.5-7.399-2.4-15-2.7-22.6-.5-13.4 2-26.4 2.6-39.7.601-14.2 8-28.6 21.7-31.1C1720.4 549 1707.6 546.4 1695 543.6zM1869.9 924c-1.6 22.101-2.6 44.2-1.1 66.4 1.399 20 7 38.3 17.899 55.1 1.7 1.601 4 2.101 5.5 4.101 1.9 2.7 3.301 8.2 7.4 5.899 4.3-2.399.8-7-.4-10.6-.3-.9-.8-1.8-1.3-2.7-3.399-6.199-5-12.899-7.2-19.5-3.699-10.899-3.899-22.899-10.8-32.699-3.7-5.5-2.399-11.7-1.5-17.301 2.4-14.1 4.3-28.1 3.5-42.399-1-16.3.8-40.5-.899-56.8-16.801 30.199-11.4 34.8-11.1 50.499z"/><path id="hl1" fill="#C38A49" d="M1345.198 1233.384c-5.198-2.217-9.099-5.184-11.299-6.884-15.6-12.1-29.399-26.1-38.899-43.399-8.5-15.4-13.7-32.3-16.9-49.7-1.8-9.9-3.6-19.9-5.5-30.6-3.2 2.1-3.5 4.899-4.1 7.1-5.7 20.4-17 38.2-25.9 57.1-.8 1.801-1.7 4-3.9 4-2.899 0-3.399-2.899-4.1-4.899-7.6-20.9-11.3-42.2-6.7-64.4.5-2.6.7-5.3-.7-9.6-4.899 7.6-9.399 14.2-13.5 21-4.1 6.899-9.6 12.6-14.6 18.8-1.2 1.5-2.9 2.8-4.6 3.8-4.9 3-7.601 1.801-8.101-3.8-.399-4.6-.2-9.3-.2-14 0-11.3-4.899-24.9-4.899-36.2 6.7-13.699 18.399-25 20.8-40.3 3.1-19.1-2.4-37.9-5.6-57-.301-2-.5-6.8-.7-8.7.9-2.8-5.4-10.2-3.2-13.7 5.5 8.2 21.5 22.9 26.801 30.801 3.399 4.899 7 9.699 10.399 14.6 4.5 6.5 11.101 9.4 18.4 10.5 10 1.4 13-1 19-14.8 1.1 4.399 1.899 8 2.899 11.5s2 7.1 3.5 10.399c2 4.301 4.7 8.4 9.9 8.9 5.8.6 7.8-4.2 9.9-8.4 10.199-20 17.3-40.8 16.899-63.5 3.2-.5 3.7 1.9 4.4 3.5 7.8 18.301 15.7 36.601 19.899 56.2 1.7 8 1.2 15.9 1.5 23.8.101 3.7.2 7.301.2 11 .3 9.5-3.2 18.4-4.1 27.7-7.601 21.4-12.601 43.5-13.4 66.2-.7 19 9.5 35.2 17.3 52.3 3.503 7.698 5.302 22.882 9.101 30.682zM964 1011.9c-1.601 2.5-1 5.2-.5 7.7 6 25.899 17.899 48.7 36.5 67.6 8.199 8.301 17.6 15.101 30.399 15.301 14.601.3 21.7-9.801 29.5-19.9 15.2 24.8 31.4 48.8 49.101 71.6 3.3 4.2 5.899 8.9 9.6 12.7 5.3 5.5 13.7 3.2 15.2-3.2 4.6-15.399 8.399-28.6 16.8-42.3 5.4-8.8 12.1-16.9 17.5-25.8-.2-2.8-6.2-5.101-8.7-5.8-7.6-2.2-15.2-4.101-22-8.801-13.5-9.199-26.399-18.899-35.3-32.899-2.8-4.4-5.7-4.101-9-1.601-3.5 2.7-7.5 4.601-11.7 5.2-21.899 2.9-41-3.6-55.8-19.6-10.8-11.601-19.7-24.9-26.5-39.5-3.1-6.601-5.9-13.4-11.2-18.601-9 12.001-17.4 24.302-23.9 37.901zm402.699-411.599c-12.6 21.6-20.399 45.199-27.1 69.199-.6 1.5-.4 3.2-1.5 4.5-.3.5-.4 1.101-.4 1.7-4.6 22.101-1.899 44.4-2.5 66.601-.1 4-1.3 10.3 3.801 10.899 4.1.4 4.1-5.899 5.199-9.6 2.801-9.2 4-18.9 8-27.8 4.101-8.9 11.5-14 18.7-11.5 14.9 5.2 29.9 12 36.9 27.1 14.1 30.6 22.8 62.4 16.199 96.6-.8 4.101-6.399 20.101-3.3 24.301.7-.101 8-6.9 8.6-7 4.2.3 6.601-6.5 9.4-8.601 9.9-8.2 21.3-16.1 27.2-28.2 22.5-24 42.8-48.1 63.1-73.8 10.2-12.899 18.9-19.899 33-28.399 14.9-9 38.4-17.301 55.3-21.101.4-1.899-8.199-3.899-9-6.899-11.699-2.801-21.5-10.301-34.1-6.9-5.7 1.6-11.7 1.9-17.7 2.5-15.6 1.6-30.5 5.7-45 11.9-9.399 4-17.899 9.899-28 12.8-6.399 1.8-11.1.899-15.399-3.5-3.101-3.101-6.601-5.601-10.301-7.8-11.8-7.101-24.3-13.5-38.5-10.9-8.699 1.5-17.199 1.3-25.8 1.7-11.6.5-15.899-6-17.399-15.4-1.601-9.8-.801-19.899 3-29.399 2.899-7.4 5.6-14.9 8.6-22.301 6.3-15.5 8.7-32.5 18.2-48.3-3.8 1.4-5.7 3.7-8.5 3.2-12.499 9.199-22.7 20.9-30.7 34.4zm491.601 36c-8.601-5.101-23.3-3.7-33.2-5.7-2.1-.4-4.2-.7-5.4 1.2-1.6 2.3.801 3.6 2 4.899 7.7 7.8 15.601 15.5 23.301 23.3 4.5 4.5 8.199 9.601 9.899 15.9 1.8 6.7.2 9-6.6 7.9-5.9-.9-11.601-2.9-17.3-4.4-6.601-1.6-12.9-5.1-20.7-2.3 4.1 12.4 12.1 22.8 16.2 36.1-3.601-.899-5.601-1.2-7.4-1.899l-35.4-13.5c-2.1-.801-4.199-2.5-6.1.3h.1c.801.399 1.5.899 2.301 1.399.5.4 1 .601 1.6.601.9.3 1.6 1 2.4 1.399 1.899 1.301 3.8 2.7 5.8 3.9 18.899 10.9 33 26.2 42.1 46 4.7 10.2 9.101 20.4 13.7 30.7 3.9-.4 6.4-2.3 6.3-6.3-.399-11.601 1.2-23.2-1.5-34.8-1.6-7.101-5.2-13.2-7.6-19.801 2.8-1.699 5.1-1.3 7.399-1.1 11 .7 19.301 8 29 13.3 3-14.5-5.6-24.6-11.5-37.3 4.301 2.7 6.9 4.7 9.7 6.1 7.8 1.5 7.4-4 7.3-8.899-5.4-20.999-12.7-39.8-26.4-56.999zM1931.5 883c-7.5 5-11.2 18.101-11.4 22.101-.8 17.899-3 35.7-2.1 53.6.1 3 .1 6-.4 8.9-.4 2.2-.9 4.899-3.6 5.399-2.2.4-3.601-1.6-4.7-3.199-2.8-4-5.3-8.101-9.3-11-2.2 1.1-1.9 2.899-2 4.5-.101 6.3 0 12.6-.101 19 0 2 .2 4.199-2.2 5-2.199.8-3.899-.601-5.199-2.101-3.101-3.3-6.101-6.6-10.601-11.5v16.2c4.3 18.3 7.7 36.8 16.101 53.9 3.5-3.2 1.699-7.5 2-11.301.3-3.6 0-7.3.1-10.899.1-3.2-.6-6.601.7-10.3 2.899 2.699 3.2 5.399 3.899 7.899 1.5 5.4 2.7 10.9 4.301 16.2.5 1.8 1.5 3.8 3.899 4.1 2.2.2 3.8-1.1 4.8-2.899 1.7-3.2 4.301-6.3 4.2-10-.2-7.5 3.4-14.8.601-22.5-1-2.7-1.801-8.601 1.199-8.8 5.801-.4 3.4-5.7 6.2-7.5 1.3-31.2 6.701-73.6 3.601-104.8zm-33.301 277c2.101-2.6-.8-5-1.199-7.6-1.7-12.6-3.7-25.1-12.2-35.3-1.5-1.8-3.4-3.7-5.9-3-2.399.7-2.3 3.1-2 5 2.4 14 3.601 28.2 5.8 40.1-3.5-9.899-8.3-21.5-15.6-32-1.6-2.3-3.3-6.1-6.7-4.8-3.3 1.3-2.3 5.1-2 8 2.101 16.8 3.8 33.7 5.8 50.5-.5-6.3-4.1-11.1-7.699-15.9-1.4-1.8-3.301-3.699-5.9-2.899-2.7.8-2.8 3.5-3 5.8-.8 7.5.1 15.1-.6 23.3-3.101-3.5-4.5-8-8.9-9.399-1.3-1.7-1.6-4.5-5.7-5-1.3 16.399 5.301 31.699 6.301 47.6 1.1 16.1 4.899 32.1 7.8 49.9 1.8-3.301 2.6-4.801 3.4-6.2 4.5-15 8.899-30 13.399-45h2.101c.399 12.2 2 24.1 4.399 36.1 5.9-8.3 6.3-18.1 9.9-26.899 3.7-9.101.2-19.5 5.6-30.7 1.2 14.7 3.3 26.899 3.101 40.6 5-3.2 6.5-6.8 7-10 .899-6.2 2.699-12.2 2.699-18.7-.199-17.3.101-34.6.2-51.8.099-.603.099-1.203-.102-1.703z"/><path fill="none" stroke="#000" stroke-linecap="round" stroke-miterlimit="10" stroke-width="6" d="M1866.9 958.7s1.601-58.2-.2-72.2c-1.8-14-14.8-83.8-26.699-112.8-11.9-29-14.7-35.6-23-43.8-9.7-22.2-113-62-113-62s-45.703 14.384-75.601 17.7c-14.301 1.586-73.232 16.566-92.3 37.8-19.502 21.718-36.4 50.2-92.3 108.1-55.9 57.9-105.7 50.2-122.8 49.601-17.101-.5-6.801 20.6-6.801 20.6s20.9 49.101 25.801 66.2c4.899 17.1 11.1 75.4-7.601 131.8-18.7 56.4-3.3 90.101-3.3 90.101s25.024 57.752 28.4 98.699c4.659 56.512 0 110 0 110s-54.301-78.699-189.301-121.5c-84.399.301-150.3-80.8-150.3-80.8s-20.3 59-20.1 54.8c.2-4.199.2-22.8-3.7-33.899-3.9-11.101-22.5-57.601-26.5-70.5-4-13-24.5-89.4-15.7-118.3 8.8-29 76.2-113 87.9-138.5 11.699-25.5 20.3-82 15.199-144-.833-65.634 41.016-132.739 45.4-141.801 9.434-19.5 80.1-97.899 80.1-97.899C1237 449 1296.1 429.5 1296.1 429.5c68-19.8 198-20.8 248-16.1 112.5-3.5 179.899 48.2 213.8 70.6 78.2 53.301 110.4 116 134 156.2 16.3 51.7 23.9 116.3 30 164 11.4 44.3 14.1 162.7 10.2 214.2 3.6 61.9 35.5 83.9 52.3 88.2s17.5-42.601 17.5-42.601 24.3 66.101 23.9 79.7c-11.7 56.7-46.2 100.101-67.9 116.3-36.9 9.301-45.7 0-56.9-5.199-15.899 52.3-2.5 102.3 18.9 123.399-57.5-12.399-121.5-94.6-126.4-87-4.899 7.601-15 6.4-17.8 8.7m-757.8-103.598s9.9-24.101 8.7-45.4M1280 504.5c-27 21-145.5 107.5-148 188-13.5 85 44 221 44 221s35 92 22.5 131.5-42.5 55.5-60.5 105.9c-18.5 62.9 33.199 127.2 33.199 127.2M1704 668c-37-33.5-71.5-110.5-71.5-110.5s-34-42-111-39.5-129.5 50.5-129.5 50.5-36.5 27-59.801 116.5c-23.3 89.5-19.1 198.7-19.1 198.7M1596.5 484c-1-13-19.5-38.5-31.5-47.5s-31-23.8-31-23.8m333.3 486.8C1922.5 806 1898 661.9 1836 609c-62-52.899-119-58.5-154-66.6s-67.101 0-67.101 0M1798.5 1176s7-2.5-6.5 44c-5.101 40 4.199 71.301 4.199 71.301M1901 1254.9c-3-47.9 4-66.4-2.801-117.7-6.8-51.3-54.699-75.699-54.699-75.699M1868 985c-4 26 18.699 60.5 18.699 60.5s24 63.5 26.301 68.5c11.5 48 30 67.9 47 66.5 49-12.5 64.6-45.5 64.6-45.5m-92.2-111.9s-4.399 72.399 19.601 99.399 53.5 1.2 49.199-47.699"/></svg>