<svg xmlns="http://www.w3.org/2000/svg" id="hair" viewBox="0 0 3000 3000"><path id="cl1" fill="#925E1F" d="M1848.5 569.5c5.1 5.102 7.398 11.7 9.898 18.2 7.102 18.4 10 37.9 13.102 57.2 5.1 31.8 9.5 63.6 16.6 95 1.9 5-1.6 5.7-5.1 6-3 .3-5.9-.9-8.802-1.8-25.399-7.601-51.198-11.5-77.8-11-29.3.5-58.601.399-87.899 0-36.601-.5-73.101-3.601-109.301-8.8-5.899-.9-11.6-2.801-17.3-4.2-30.8-10.3-61.5-20.8-92.4-31-19.8-6.601-39.699-12.8-59.6-19.2-4.3-2-6.102-5.9-7.9-9.9-21.398-49.698-38.3-101-43.8-155-4.3-42.198-3.1-84.5 14.8-124.5 3.102-7 5.9-14.199 12.801-18.5 23.199-3.398 46.399-2.5 69.601-.8 20.6 1.5 40.899 4 61.1 8.2 46.102 9.7 88.7 27.6 128.9 51.7 15.899 9.6 31.899 19.3 46.7 30.6-6.102 5.2-14.102 5.5-21.102 8.301-36 14.801-59.699 41.601-58.5 82.999.301 12 .2 24 0 36-.898 53.7-32.398 91.802-87.1 99.9-12 1.8-23.8 2.4-35.8.2-3.802-.7-7.7-.601-13.102.899 36.3 4 70.7 8.899 105.7 4.899 25.3-2.899 45.4-16.2 65.4-30.3 19.198-13.5 31.5-31.2 37.198-53.8 6.7-26.8 25.9-42.7 50.102-51.5 16-5.8 33.6-3.101 50.2 1.899 15.204 4.605 29.704 10.503 43.404 18.303zm-732.302-6.9c5.7 6 10.601 12.8 16.4 18.8 26.699 27.7 56.3 52.2 88.399 73.1 34.101 22.302 67.801 47 112.5 42.2-6.899 3.4-14 4.602-21.399 4.602h-33c-26 0-50.9-5.802-75.2-14.2-44.898-15.602-84.2-41.3-121.7-69.9-3.1-2.398-5.8-5.7-10.3-5.398-11.1 20.898-19 42.898-24 66.1-.7 4.1 1 7.8 2.3 11.5 5.2 15.5 11.9 30.5 21.302 43.8C1088.9 758 1107 782.5 1137 794c3.698 1.4 6.3 3.802 6.5 8 .5 10.5 5.698 19.102 11.198 27.302 26.2 38.8 64.802 58.898 108.5 71C1266.3 901.2 1269.9 902 1272 898c.8-1.8 1.6-3.6 2.198-5.5 8.102-25.198 20.662-41.579 40.462-59.279 15.601-14 32.304-29.437 47.804-43.537 16.199-14.8 31.734-33.783 46.536-50.083 9.898-10.8 14.8-23.3 13.6-38.2-.7-7.8-3-14.9-6.6-21.7-2.4-4.6-3.4-8.8 2.1-11.898 4.7-2.4 2.7-6.302 2-9.602-1.2-5.6-4.5-10.3-7.5-15.1-17.9-28.2-39.7-53.2-61.9-78-25.398-28.4-52.699-54.4-86.1-73.4-8.2-4.7-16.5-10-26.6-9.898-3.9.198-7.602 2.698-11.7 1.398-5.8-1.8-11.2-.1-16.5 1.8-13.9 5.102-26.3 12.802-38.3 21.302-20.7 14.6-40.5 30.198-57.4 49.3-1.6 2.997.3 5.097 2.098 6.997zm-50 818.9c24.302-21.398 52.302-35.6 83.4-43.3 29.5-7.2 51-25.898 69.6-47.8 13.2-15.5 18-34.7 16.2-55.9-2.399-26.8-16-49.198-25.5-73.1-1.399-3.4-3.7-6.5-8.3-5.7-15.2 4.8-28.9 12.602-41.802 21.8-.8 5.602 3.7 4.5 6.5 4.802 5.102.698 10.302 0 15.5.3-13.198 6.6-25.5 14.5-38.3 21.6-4.1 2.302-10.398 5.102-7.7 11 2.5 5.4 8.302 1.602 12.7 1.302.2 0 .5.198.9.5-1.3 4.698-7.5 8.5-3.3 14.198 3.898 5.302 10.6 1.602 15.398 3.602.2 3.699-1.699 5.699-3.3 7.699-3.9 5-8.9 9-12.9 13.899-1.698 2.101-3.698 4.5-1.5 7.101 1.802 2.199 4.302.601 6.5-.199 3.9-1.4 7.102-4.5 11.102-6-3 3.8-6.602 6.8-9.4 10.6-1.7 2.4-3.899 5.2-1.7 8.1 2 2.7 5.302 2.102 8.4 1.602 3.7-.602 6.8-3.5 11.1-3.4-1.398 4.5-6.3 7.7-3.5 11.602 3.102 4.3 8.5 2.698 13 1.898 4.4-.8 8.4-3 12.9-4.8-1.7 2.6-3.7 4.4-5 6.7-1.5 2.5-4.8 5.1-3 7.898 2.2 3.602 5.9 1.102 9.1.5 1.102-.198 2-.898 3.2-1-8.2 4.802-14.2 13.102-24.399 15.302-.199-5.302 4.699-10.602-.399-14.4-5.4-4-10.9-.3-16 2-8.2 3.7-15.601 8.8-23 13.5 2.399-3.8 4.8-7.9 5.3-12.6.4-3.302.602-6.9-2.6-9.102-3.2-2.1-6.4-.5-9.4 1.102-4.1 2.3-6.7 6.398-11.398 9.3 1.5-6.102 3.898-11.2 5-16.7.698-3.399.398-6.7-2.7-9-2.9-2.2-5.7-.8-8.4.601-3.7 1.899-7.2 4.199-11.6 6.801 12.8-11.602 21.398-25.7 32.8-37.301 3-3.101 5.7-7.5 2.5-11.699-3.1-4.102-7.3-1.2-10.9.1-9.5 3.3-18.1 8.8-28.8 13.6 4-6.3 6.8-11.198 9.9-15.898 1.7-2.602 4.6-5.3 1.398-8.8-2.1 1.6-4.398 3-6.3 4.8-16.6 16.398-32.1 33.7-47 51.6-15.7 19-23.1 40.5-24.398 64.9-1.5 27.6-2.102 55.1-1.7 82.7 0 2.5-1 5.3 2.2 8.198 2.6-4 5-7.8 7.5-11.6 8.098-16.408 18.4-30.908 32.098-42.908z"/><path id="sd1" fill="#734814" d="M1047.9 677.9c4.601 7.4 6.601 15.9 9.8 23.9 11.7 28.9 30.8 52.4 52.8 73.7 7.8 7.602 17.398 12.2 27.3 16 5.898 2.2 9.1 4.7 8.2 11.302-.602 4.198 1.3 7.698 3 11.398 12.398 27.102 33.698 45.5 58.398 60.602 16 9.8 33.2 16.3 51.102 21.698 4.398 1.302 8.6 3.4 13.398 1.602-2.1 11.1-6.2 21.6-8.3 32.8-2.101 10.8-2.8 21.8-3.2 32.601-.8 20-.898 40 0 60 .7 15.199 1.9 30.5 4.8 45.5.302 1.601-3.015 11.556-2.814 13.957-6.9.1-8.186-10.957-11.884-16.057-21.302-28.9-37.302-60.5-50.5-93.7-2.102-5.2-4.2-10.398-6.9-15.398 1.316 12.147 11.524 23.31 15.8 34 9 22.3 20.3 38.3 31.102 59.8 4.6 9.1 7 21.399 16.398 26.5 3 1.6 3.9 4.5 4.9 7.2 1.8 5 3.3 10.1 4.8 15.198 4.5 15.7 10.6 30.802 18.7 45 1 1.802-2.229 9.234-3.628 11.034-1.4 1.801-3.907-.819-5.809-1.521-5.398-1.8-6.563-6.313-11.665-8.813-23.898-11.699-47.3-20.398-68.398-36.898-9.3-7.302-22.2-20.802-29.9-29.4-15.2-16.899-24.6-36.3-35.1-56.5-17.2-33.1-34.2-66.3-47.8-100.899-11.2-28.5-24.749-56.102-32.602-84.101-11.6-28.3-15.8-57.5-14.1-87.899C1037.1 725.6 1040.5 701.4 1047.9 677.9zm382.1-8c-6.4-11.3-11-23.6-15.4-35.7-10.1-27.7-19.7-55.6-25.801-84.6-5.399-25.7-10.299-51.3-8.899-77.8.399-7 .101-14 .101-21 0-9 1.5-17.801 3.101-26.602 4-22 11.1-43 22.899-62.2-10.101-.398-19.801 2-29.5 4.102-31.5 6.6-59.899 19.5-83.5 42-10.301 9.898-16.899 22.1-24.101 34.1-8.7 14.5-16.601 29.7-31.2 39.602 1.801.898 3.5 2 5.4 2.699 22.9 20.333 38.5 30.399 61 51.801 17.1 16.199 38.699 33.898 54.199 51.8 16.601 19.1 36.899 43 50.601 64.3 3.7 5.8 5.267 8.099 9.101 15.5C1422 668.5 1426 669.2 1430 669.9zm-359.6 730.2c17.3-6 34.7-11.4 52.4-16.2 26-7.1 52-13.6 76.898-24.1 11-4.602 20.2-11.4 27.5-20.801 11.2-14.5 20.802-30.101 28.602-46.699 9.1-19.102 14.3-39.4 17.3-60 1.9-13 3.3-26.301 4.4-39.5.8-9.2 2.3-18.5.6-27.801-.6-3.5-1.5-6.5-5-8.101-11.2-4.899-22.6-9.7-33.7-14.8-4.398-2-9.1-2-12.3.6-7.7 6.2-17.5 7.801-25.6 12.801 2.898 1.699 5.1 3.899 6.5 7.199 5.8 13.801 12.198 27.301 17.8 41.102 5.399 13.3 8.3 27.8 7.5 41.698-1.101 19.4-8.3 37.2-23.101 51.302-7.801 7.398-16.5 13.398-24.301 20.5-9.3 8.198-19.699 13.1-31.3 16.6-19.7 5.9-39.4 11.5-57.4 22.2-20.198 12-38.398 26.2-52.8 44.7-5.2 6.698-9.7 14.3-10.3 23.3 10.902-9.7 22.1-19 36.302-24zm515.9-677.9c23.1 8.4 46.8 15 70.398 21.602 43.102 12.198 86.5 23.1 130.4 32.1 39.7 8.101 79.1 17.4 116.5 33.5 9.6 4.2 19.3 8 28.9 12 1-1.7.6-2.5.1-3.399-6.3-10.601-13-20.899-20.2-30.899-6.8-9.4-14-18.601-18.199-29.601-2.199-5.801-4.101-11.801-6.101-17.699-1.6 6.398-5.6 3.8-9.3 2.5-19.5-6.801-39.7-11.4-60.2-12.102-50.199-1.699-100.5 1.5-150.699-2-10.899-.8-21.899-1.699-32.7-2.8-17.699-1.8-35.601-2.7-53.3-5.399 1.201 1.397 2.799 1.697 4.401 2.197z"/><path id="hl1" fill="#BA792E" d="M1848.5 569.5c-2.7 3-4.9.2-7-.8-11-5.6-22.5-9.898-34.102-14-15.398-5.398-31.398-5.2-47.3-4.5-7.101.3-13.101 4.9-19 8.5-9.4 5.8-17.2 13.602-24.5 21.8-5 5.602-6.601 12.9-8.601 19.9-4.801 16.4-10.399 32.5-23.801 44.1-18.6 16.2-38.199 31-61.899 39-8.8 3-17.899 5-27.399 4.4-7-.5-13.899 1.5-20.8 1.8-13.9.7-27.7-1.7-41.5-3.2-9.9-1.1-19.802-1.8-29.7-2.6-3.899-.3-8.101.4-11.7-3.1 2.2-3.801 5.802-4.801 9.802-5 5.698-.2 11.198 1.3 16.8 1.699 31.398 2 60.2-6.101 84-27 12.3-10.899 19.3-26 24.1-41.899 3.3-10.9 4.601-22 4.2-33.4-.4-12.3-.2-24.7-.1-37 .3-28.7 12.398-51 35.8-67.5 14.1-9.898 29.398-16.7 46.5-19 26.398 17.4 51.398 36.9 75.8 57 15.7 12.9 30.9 26.4 44.8 41.2 5.798 6.2 11.298 12.402 15.6 19.6zm-776.7 42.302c4.1 3.398 8 7 12.2 10.198 20.698 15.7 42.3 29.802 64.8 42.7 22.7 12.9 46.3 23.3 71.3 30.3 22.5 6.302 45.3 10.102 68.8 9 7.602-.3 15.3-.3 23 0 8.5.4 16.4-2 24.3-4.5 1.9-.6 4.602-1.1 4.5-4.898-8.6-1.402-17.2-.602-25.7-.602-6.802 0-13.101-1.1-19.5-3.198-33-10.7-61.4-29.802-89.2-49.7-15.3-11-29.8-23.2-44.2-35.5-17.699-15.2-33.6-32.102-48.3-50.102-17.5 16.1-32.3 34.302-42 56.302zm81.898 568.898c-17.8 13-35 26.602-50 42.8.601 3-1.6 4.802-3 7-4.198 6.5-9.1 12.7-11.8 20.9 5.2-.8 9.399-2 12.8-4.6 7.302-5.602 16.4-7.2 24.2-11.7 1.5-.9 3.2-1.4 4.7-.2 2 1.602 1.1 3.602.198 5.4-.8 1.5-1.398 3.2-2.6 4.2-11.6 10.6-19.5 24.398-30.9 35.198-2.198 2.102-5.198 3.9-6.1 7.802 3.801.6 6.2-1.302 8.7-2.802 3.7-2.198 7.3-4.6 11.1-6.698 4.2-2.4 7.2-.7 6.8 4.198-.3 2.9-1.398 5.802-2.3 8.602-1.6 5.3-4.2 10.3-4.7 16.699 5.7-1.199 7.9-5.801 11.302-8.601 3.8-3.1 7.899-9.1 12.399-5.6 4.399 3.5 1.199 9.8-1.399 14.6-.9 1.7-2 3.4-3.101 5.101-1.201 1.899-3.101 3.399-2 6.699 3.899-2.8 7.5-5.6 11.399-8 8.2-4.898 16.101-10.699 25.601-13.199 2-.5 4-1 5.699.5 2 1.899 1.2 4.199.5 6.5-.9 3.199-4.1 5.199-4.4 9.801 8.302 1.699 14-3.4 19.4-7.602 5.7-4.398 12.6-7.898 17.4-15.6-7 1.6-12.101 4.6-18.301 5.1 3.5-7.198 9.699-11.8 14.801-20.398-12.101 4.398-21.2 11.8-32.4 8.6-.199-6.7 7.301-8.3 7.7-14.3-9-3.2-15.101 8.1-24.101 4.1 2-9.3 13.399-12.5 15-22.5-8 1.8-13.399 8.602-21.699 9.5 3.5-4.898 7.5-9.2 11.8-13.2 3.7-3.5 6.399-7.698 9-11.898 1.101-1.7 1.101-3.9-.399-5.602-1.301-1.5-3.101-1.1-4.601-.398-2.5 1.1-5.2 1.2-7.899 1-5.701-.5-7.301-3-4.399-7.8 1.698-2.802 4.198-5.102 6.198-7.7.5-.7.9-1.9.7-2.7-.398-1.5-1.898-1.6-3.2-1.3-1.898.5-3.8 1.3-5.698 1.8-3 .8-7.101 3.9-8.7 0-1.5-3.399 3-5.2 5.8-6.8 13.601-7.602 26.5-16.5 40.9-22.602 1.699-.698 4.1-.898 4.199-4.898-6.5 0-13 .1-19.399 0-3.2-.102-6.8 1.1-9.101-2.5-2.099.898-4.297 1.7-6.099 3.098z"/><path fill="#D3B359" d="M1233.315 1134.207l50.185 22.959-4.642 18.677-58.153-27.947z"/><path fill="none" stroke="#000" stroke-miterlimit="10" stroke-width="6" d="M1233.315 1134.207l50.185 22.959-4.642 18.677-58.153-27.947z"/><path fill="none" stroke="#020101" stroke-miterlimit="10" stroke-width="6" d="M1936.649 823.098c-9.275-1.563-14.938-6.151-21.188-9.179-16.308-7.909-33.103-14.842-49.993-21.092-10.74-4.003-21.774-4.812-33.103-7.643-15.915-4.004-31.93-7.813-47.942-11.229-25.191-5.369-50.188-10.936-75.282-16.892-16.014-3.71-32.026-7.713-47.747-12.303-28.415-8.495-57.415-15.134-85.341-25.582-23.825-8.984-48.139-17.088-72.354-25.096-19.627-6.443-40.448-12.303-59.977-19.041-2.441-.878-11.979-4.464-14.52-5.147-14.157-3.808-15.013 1.657-11.498 15.327 4.589 17.869 7 33.394-4.425 47.162-13.083 15.817-28.511 37.391-43.354 51.451-9.666 9.08-19.918 17.673-29.487 26.853-8.397 8.104-17.38 15.427-25.778 23.531-13.865 13.28-29.923 28.902-36.563 46.479-9.276 24.899-16.989 50.287-18.162 77.04-.586 12.011 0 23.922 1.27 35.935.781 7.127.585 14.256 1.074 21.383.977 16.794 1.27 33.687 3.516 50.384.293 2.246 1.038 12.395-4.396 20.043-6.892-4.785-66.281-115.473-68.3-126.682 18.113 47.474 76.276 141.309 66.91 124.272 4.492 8.006 3.594 14.782 6.328 23.375 4.198 13.377 10.154 25.876 16.208 38.471 1.757 3.71 4.11 2.228.613 13.621-1.538 3.42-2.363 9.801-3.34 13.414-2.636 10.545-.501 6.263-.501 16.906 0 10.839-1.465 21.287-3.417 31.833-3.125 16.501-1.762 33.003-8.401 48.626-7.812 18.552-24.576 46.835-36 63.436-11.619 16.892-27.241 26.655-46.185 33.296-25.777 8.885-46.043 14.014-72.407 21.337-15.135 4.199-30.66 7.714-44.72 15.33-22.361 12.107-35.521 17.367-41.183 42.168-.195.977-.78 1.66-2.832 1.953-.293-7.226-.683-14.451-.78-21.579-.195-30.271.022-56.637 1.78-86.905.782-13.866 5.464-19.927 9.371-33.304 2.148-7.03 12.565-20.962 16.569-27.114 9.275-14.062 26.005-26.393 37.137-38.989 20.7-23.434 38.516-35.62 62.73-55.247 11.814-9.568 27.222-16.605 40.892-23.44 13.573-6.835 13.902-4.905 30.015-11.794 2.147-1.366 7.17-11.422 9.806-12.497-.585-4.198 1.768-.619-8.858-7.466-4.886-2.851-31.915-17.6-58.395-49.199-13.572-16.208-25.118-38.469-34.884-57.313-17.479-33.492-31.49-62.472-46.234-97.231-1.27-3.026-5.44-11.081-6.612-14.081-5.91-15.121-11.487-25.402-16.99-39.252-11.013-27.717-19.094-54.096-23.39-83.682-2.735-18.747-2.832-38.08 1.074-57.12 1.464-6.933 1.66-14.158 2.832-21.091 3.515-21.091 8.494-41.889 15.623-61.905 10.446-29.392 24.826-56.321 46.309-79.951 17.674-19.432 36.008-36.813 56.61-52.922 13.962-10.937 27.005-18.995 43.312-26.318 7.616-3.418 18.603-6.479 26.903-5.697 9.57.879 14.347-3.695 19.62-11.215 8.983-12.792 16.599-26.267 24.509-39.644 8.397-14.158 18.407-27.192 31.786-36.664 23.629-16.794 50.183-27.482 78.597-32.56 29.293-5.273 59.393-5.371 88.879-3.321 17.479 1.27 44.664 3.71 61.751 6.934 20.896 3.905 41.401 12.861 61.516 19.989 20.506 7.227 39.937 16.697 58.881 27.146 17.771 9.765 34.954 22.798 51.848 34.124 22.36 14.94 43.549 28.344 64.933 44.749 14.842 11.326 29.099 23.336 42.865 35.933 12.89 11.717 24.289 24.02 35.227 37.593 3.516 4.394 5.956 9.275 8.203 14.158 4.296 9.765 7.42 19.919 9.959 30.27 4.489 18.162 4.346 36.813 7.959 55.168 2.538 12.693 3.318 25.68 5.761 38.374 3.319 16.795 6.444 33.59 12.791 49.604 4.883 12.206 13.084 22.36 20.603 32.809 11.222 15.224 11.618 19.531 21.969 36.91zm-698.95-341.296s124.025 87.193 180.663 187.696"/></svg>