<svg xmlns="http://www.w3.org/2000/svg" id="hair" viewBox="0 0 3000 3000"><path id="cl1" fill="#3E3633" d="M1748 671.301c10.5 5 19.699 9.199 27.8 12.199 6 2.301 13.7 5.5 23.2 9.301 7.899 2.899 15.699 4.5 23.399 4.899-3.7-3.899-8.1-15-13.399-33.2-3.4-10.8-8-20.1-14.101-28-31.7-38-59.899-60.199-84.399-66.3 24.5 6.101 52.699 28.3 84.399 66.3 6.101 7.9 10.7 17.2 14.101 28 5.3 18.2 9.699 29.301 13.399 33.2-7.7-.399-15.5-2-23.399-4.899-9.5-3.801-17.2-7-23.2-9.301 35.2 72.301 60.7 160.5 76.899 264.801L1862.8 1055c1.7 7.801 3.7 14.4 6 19.801 2.899 7 5.8 10.399 8.6 10.3 2-.2 4-.7 5.7-1.7 2-1.1 4.3-2.8 6.8-5.3 7.7-12.5 13.601-26.4 17.601-41.7 4-16 6.399-34.7 7-56.3 3.1-42.8-2-92.399-15.301-148.8-8.199-46-23.1-93.8-44.5-143.5-15.8-43.2-39.4-81.2-70.9-114.1-48.399-48.4-98.5-50.101-150.299-5.4-46.701-29.7-95-36.6-144.9-20.6-75 35.6-117.2 121-126.5 256L1347.6 942.4c-.1.9-.2 1.7-.2 2.601-3.5 30.2-5.601 51.3-6.101 63.3-.799 16.6.101 31.1 2.601 43.6 2 9.9 5.101 18.9 9.5 26.9 4.3 8 9 13.4 14.2 16.3 2.699 3.4 6.199 3.4 10.5-.3 3.5-2.9 8.199-9 14.1-18.1 5.2-13.101 8.7-27.7 10.5-43.9 1.6-13.3 2.2-31.3 2.2-54.1l8.5-157c5.2-37.5 10-65.4 14.2-83.9 6.399-28.3 14.899-52.5 25.5-72.5-1.5-.1-2.5-.3-2.801-.5-.5-.4-1.399-.7-2.699-1 13.5-47.7 44.5-74.8 92.899-81.1-48.399 6.3-79.399 33.399-92.899 81.1 1.3.3 2.199.6 2.699 1 .301.2 1.301.4 2.801.5 12.899.8 32.399-4.1 58.5-14.8 19.399-7.9 41.1-18.3 65-31.2-5.801 13-14.2 26.7-25.2 41-12.3 15.9-26.3 30.7-42 44.2 14.7.2 32.2-6.7 52.399-20.601 14.301-9.899 36.2-27.899 65.301-54.3-.6 2.4-2.301 8.8-4.801 19.2-1.699 6.6-3.1 11.7-4.399 15.4-3.4 9.6-9.4 19-18.101 28.3 10.801-6.5 18.101-11.8 21.7-15.9 2-2.2 4.4-5.5 7.2-9.899 1.8-2.801 5.3-8.2 10.4-16.4 20.399 21 37 36 49.899 45.2 18.601 13.1 38.2 21.3 58.7 24.6-6.1-8.3-11.5-18.2-16.2-29.8-3.6-9.1-7.3-20.5-11.1-34.3 6.602 4.499 15.902 9.499 27.602 15.3zm-9.6-187.701c15 7.5 29 18 42.101 31.6-37.601-22.7-69.5-33.399-95.801-31.8-25.9 1.5-50.1 15.1-72.4 40.6-25.799-12.899-50-22.3-72.6-28.3 23.1-18.899 46.6-30.8 70.301-35.899 6.6-1.4 13.899-2.101 21.5-2.101 6.5 0 13.8.5 21.899 1.601 2.8.3 7 .899 12.601 1.6 4.8.7 9 1.6 12.6 2.7 24.899 5.7 44.799 12.399 59.799 19.999zm143.7 158.8c11.5 17.6 20.8 33.7 27.9 48.4 8.1 16.699 13.899 32.399 17.399 47l21 272.7c3.3 31.8 4.7 56.6 4.3 74.3-.5 19.3-3.199 37.3-8.3 54-5.3 7.399-11.5 12.1-18.6 14.1-6.3 1.8-13.8 1.6-22.3-.6-8.4-.9-14.7-6.7-18.9-17.5-4.1-10.7-6.5-27.301-7.2-49.7 2-.2 4-.7 5.7-1.7 2-1.1 4.3-2.8 6.8-5.3 7.7-12.5 13.601-26.4 17.601-41.7 4-16 6.399-34.7 7-56.3 3.1-42.8-2-92.399-15.301-148.8-8.199-46-23.1-93.8-44.5-143.5-15.8-43.2-39.4-81.2-70.9-114.1-48.399-48.4-98.5-50.101-150.299-5.4-46.701-29.7-95-36.6-144.9-20.6-75 35.6-117.2 121-126.5 256l-14.5 138.7c-.1.9-.2 1.7-.2 2.601-3.5 30.2-5.601 51.3-6.101 63.3-.799 16.6.101 31.1 2.601 43.6-12 23.4-22.101 40-30.5 49.7-10.2 11.9-20 16.5-29.2 13.9-10.3-2.4-17.6-11.801-22.1-28.101-4.1-14.5-5.801-37.899-5.4-70.2 19.801-4.6 34.2-15.699 43.2-33.3 9.2-18 14.2-45.399 14.8-82.2 2.7-73.999 14.301-144.999 34.7-212.999 22.2-69.601 62.8-115.4 121.601-137.101-58.801 21.7-99.4 67.5-121.601 137.1-20.399 68-32 139-34.7 213-.6 36.801-5.6 64.2-14.8 82.2-9 17.601-23.399 28.7-43.2 33.3-.3.101-.699.101-1.1.2-.4-.2-.801-.5-1.2-.7-22.8-13.6-27.1-72.399-12.8-176.5.3-1.5.5-3.2.8-4.7v-.3c27.4-110.2 73.5-209.1 138.3-296.7 37.4-46.5 90.4-60.8 159-42.8 22.601 6 46.801 15.4 72.601 28.3 22.3-25.5 46.5-39.1 72.399-40.6 26.301-1.6 58.2 9.1 95.801 31.8l1.1.601C1824.5 557.2 1858.1 599.5 1882.1 642.4zm-609.8-169.599c30.3-10 58.6-16.5 84.8-19.601 25.7-2.899 51-2.7 76.2.7 14.399 3 25.2 6.2 32.3 9.4 8.8 4.1 17.3 10.399 25.5 18.899-8.2-8.5-16.7-14.8-25.5-18.899-7.1-3.2-17.9-6.4-32.3-9.4 32.2-5.3 53.8-8.6 64.8-9.8 19.9-2.3 37.5-2.601 52.7-1.2l15.2.4c-16.4 2.199-29.4 6.199-38.7 12.199-10.2 6.4-17.3 15.601-21.3 27.601 4-12 11.1-21.2 21.3-27.601 9.3-6 22.3-10 38.7-12.199 16-.2 32.1 1.699 48.5 5.5 4 1 10.1 2.399 18.6 4.199 7.699 1.801 14.4 4 20.3 6.301-8.1-1.101-15.399-1.601-21.899-1.601-7.601 0-14.9.7-21.5 2.101-23.7 5.1-47.2 17-70.301 35.899-68.6-18-121.6-3.7-159 42.8-64.8 87.601-110.9 186.5-138.3 296.7v.3c-.3 1.5-.5 3.2-.8 4.7-14.301 104.101-10 162.9 12.8 176.5-20.601 32.2-37.5 52-50.399 59.2-13.201 7.4-22.301 2.8-27.5-13.8-2.9-9.601-4.701-21.9-5.4-36.8-.7-15.301-.301-35 1.199-59.4-1.5 24.4-1.899 44.1-1.199 59.4.699 14.899 2.5 27.199 5.4 36.8-17.201 17.899-35 14.2-53.4-11.2 1.1-8.8 1.699-16.3 2-22.6.199-7.101.199-15.9-.2-26.2.399 10.3.399 19.1.2 26.2-.301 6.3-.9 13.8-2 22.6-3.5 28.2-10 49.6-19.4 64.3-10.1 16-24.4 25-42.5 27.301-8.699.8-13.4-3.4-14.1-12.7-.7-8.7 2.1-23.2 8.3-43.5l.7-1.4c10-14.8 17.9-26.699 23.699-35.899 10.601-16.7 19.4-33.2 26.4-49.4-7 16.2-15.8 32.7-26.4 49.4-5.8 9.199-13.699 21.1-23.699 35.899l-.5.7c0 .2-.1.5-.2.7-.601.6-1.899 1.3-4.101 2-3 .899-5.199 1.1-6.6.699-12.3-4.199-20.6-12.899-24.9-25.899-3.5-11-4.5-25.8-2.899-44.601.899-.699 2.101-2 3.7-3.6 8.6-7.2 17.199-17.9 25.699-32 9.9-46.2 23.5-92.7 41.201-139.4 23.899-73 49.399-135.5 76.399-187.8-25.7 71.4-47.8 150.3-66.5 236.601-11.2 59.1-7.899 93.899 9.899 104.5 6.101 3 11.9 4 17.301 3.399 15.3-2 27.9-18.399 37.8-49.3l.101-1c3.3 6.4 6.899 11.3 11 14.8 14.199 12.2 32.899 6.7 56.399-16.3-23.5 23-42.2 28.5-56.399 16.3-4.101-3.5-7.7-8.399-11-14.8v-.2c12.8-151.399 41.1-257.899 85-319.5 29.899-57.1 76.6-91.7 139.899-104.2-63.3 12.5-110 47.101-139.899 104.2-43.9 61.601-72.2 168.101-85 319.5v.2l-.101 1c-9.899 30.9-22.5 47.3-37.8 49.3-5.4.601-11.2-.399-17.301-3.399-17.799-10.601-21.1-45.4-9.899-104.5 18.7-86.301 40.8-165.2 66.5-236.601 36-69.8 74.7-121.2 116.2-154.1 47-34.8 97.3-37 151-6.9-53.7-30.1-104-27.899-151 6.9-41.5 32.899-80.2 84.3-116.2 154.1-27 52.3-52.5 114.8-76.399 187.8-17.701 46.7-31.301 93.2-41.201 139.4-8.5 14.1-17.1 24.8-25.699 32-1.6 1.6-2.801 2.9-3.7 3.6-8.899 8.101-15.2 13.301-18.899 15.601-7.201 4.7-14.601 6.7-22.101 6.3-24.5 3.2-36.3-3.3-35.399-19.4 1-16.699 15.699-43.5 44-80.3 25.899-44.6 45.299-88.399 58.399-131.5l35.899-96 62.4-135.2c13-26.899 29.6-48.8 50.1-65.3 21-17.1 48-30.3 81-39.899z"/><path id="sd1" fill="#322C29" d="M1468 556c-13.7 12-43.7 32.301-62.101 72.5-12.1 24.801-21.6 46.601-28.3 73.601-6.7 27.2-9.6 47.2-15.301 81.3 0 13.5-4.6 33.4-6.5 46.9-1.1 7.899-.699 12.5-1.6 20.5-4.6 40-6.3 72.699-7.8 88.699-2.399 24.101-5.3 46.7-5.101 71 0 5.9-.1 13.2 0 19.301.201 10.3 1.101 12.199 2.601 22.3.399 2.7-4 7.4-5.2 10-7.3 15.4-15 30.4-28 42.1-4.3 3.9-9.1 6.9-14.8 7.801-11.101 1.8-18.3-2.301-24.601-12.7-5.1-8.5-7.5-17.9-8.899-27.3-1.7-11.4-6.101-18-5.601-29.7.201-4.6-2.399-23.7 2.101-25.4 16.2-5.899 32.3-12.3 40.7-26.7 12.3-32.899 15.199-46 16.3-77-.601-12-.3-29.399.3-41.399.801-16.2 2.1-28.3 4.2-44.4 2.399-18.1 4.601-34 7.899-51.9 4.301-22.8 11.601-45.3 17.801-67.699 5.8-20.801 12.4-44.7 21.8-64.101 6.9-14.3 20.3-32.6 31.3-44.5 5.101-5.6 11.301-12.6 17.9-16.899C1439.1 566.801 1468.5 554.1 1468 556zm149.3.301c13 8.699 11.1 15.6 19.1 9.5 54.2-40.9 73.2-29.801 96.9-27.9 31.5 10.7 53.399 33.3 73.3 56.7 24.6 33.899 36.8 65.7 52.7 104.1 12.3 29.8 24.1 55.601 28.3 70.601 5.2 18.199 9.1 37.699 12.7 56.3 7.2 37.399 14.3 68 16.3 106 1.7 32.8-74.3 42.1-84.6 101.7-3 24.699 12.3 29 13.699 57-1.199 13.399 2 27.3-18 38.699.301 2.601 3.4 7 3.801 9.601 13.3 9.6 34.3 16.899 51.199-7.601 4.7 11 9.601 13.4 12.601 15 20.6 11.4 48.2.4 52.3-24.3-3.5 1.101-6.9 2.3-10.5 3.2-8.5 2.1-15.8 0-21.7-6.4-5.7-6.199-8.7-13.199-5.2-21.699 3.301-8 6.801-15.9 9.801-23.9 6.8-18.3 14.5-36.5 15.4-56.2.899-19.2 3.399-38.4 2.299-57.7-.5-7.6.801-15.5-.6-22.899-3.4-18.5-5.1-37.2-9.3-55.601-6.2-27-9.2-54.699-13.899-82-5.301-31.3-15.9-60.8-28.101-89.699-8.101-19.2-17.3-38-27.101-56.4-15.1-28.3-28.799-57.6-50.1-82.2-11.8-13.7-24.9-26-41.6-33.5-17.801-8.1-40-11.5-66-9.6C1662 534.301 1645 540.7 1617.3 556.301zM1387.4 526c-13.7 3.7-43.6 12.601-54.5 18.2-29.399 15-52.6 36.8-71.8 63.2-22.9 31.5-41.4 66.6-53.7 103.3-14.2 42.3-25.1 87.8-32 131.7-4.6 29.1-7.6 64-11.6 93.2-.9 6.5-1.9 11.5.399 17.3 3.9 9.6 19.7 17.7 28.9 17.4 11.1-.3 25.4-14 33.4-21.4 6.8-6.2 7-11.6 7-19.2 0-3.7 1-18.1 1-21.8-5 15.5-18.301 26.3-27.2 30.2-4 1.8-6.7 1.3-9.8-1.6-6.5-6.101-9.5-13.5-9.601-22.2-.2-13 2-25.7 3.8-38.5 4-28.2 10.4-56 17.301-83.601 8.5-34.5 19-68.399 32.8-101.3 13.3-31.6 28.5-62 50.3-89 15.7-19.4 35-33.2 57.5-43.1 10.9-2.1 11.9 3.4 13 5C1368.1 557 1383 535.9 1387.4 526zm392.7 159.4c-2.2 3.2 5.3 13.3 5.9 15 10.5 29.4 21.6 58.6 31.399 88.3 10.3 31.5 18.2 63.8 25.8 96.101a963.835 963.835 0 0 1 14.4 75.1c2.8 18.7 1.9 37.7 4 56.5 1.8 16.1 3.7 32.2 6.9 48.2.8 3.8 2.5 7.6 4.3 11.1.5 7 7.2 9 10.5 7.601 4.7-3.4 9.6-9.601 12.1-14.801 11.7-24.3 19.4-69.3 19.7-96.3-3.2 10.101-13.9 32.7-18.5 42.101-1.9 3.8-4.1 7.3-8.1 8.399-1.9-1.399-2.301-2.6-2.601-3.899-2.5-11.9-3.1-24.2-6-36.101-2.2-9-5.399-18-5.7-27-.699-16.7-4.399-32.7-7.8-48.8-4.6-22-9.5-43.9-14.7-65.7-3-12.5-5.8-25.2-10.3-37.3-8.399-22.7-16.7-45.4-26.2-67.6-4.899-11.4-9.8-22.9-12.5-35.5 6.101-1.4 11.7-.4 17.301-.801-11.499-3.5-29.199-10.5-39.899-14.6zm-433.7 268.2c-2.1 16.399-1.6 33.6-2.399 50.1-1 18.2-1.801 38.2 1.8 56.2 2.6 13 9.8 23.2 18.399 32.9 4.9 5.5 15 3.899 18.601-3 3-5.601 9-11.601 11.1-17.601 11.8-33 9.7-67.1 11.7-101.5.1-1.6-.5-3.3-.4-5 .9-11-.8-15.399-1-25.8 1.2-9.3 1.4-18.5 1.5-27.8.1-10.3 1.6-20.5 2.6-30.7.9-8.9.5-17.9 1.801-26.8 2.9-20 4.4-40.101 7.4-60.101 3.3-21.899 6.8-43.8 11.5-65.5 4.3-19.8 10-39.199 18.899-57.6 1-2 4.8-20.8 6-25.7 2.3-9.5 17.9-22.7 20.601-31.899-4 2-27.9 19.199-30 22.899-5.601 9.7-11.5 19.4-15.801 29.8-6.4 15.601-10.3 32.101-13 48.9-2.3 15-5 30-6.6 45.1-1.5 14.4-3.5 28.801-5.5 43.2-1.301 9.2-1.6 18.5-2.4 27.7-1.3 13.8-3.8 27.5-3.5 41.4.2 10.6-1.1 21.3-2.699 31.6-2.4 15.8 0 31.8-3.101 47.5-1.899 9.9-1.5 20.5-1.8 30.6-.4 18.301-3.4 36.4-2.5 54.601.3 6.1-1.6 11.8-2.4 17.7-.6 4.699-3.5 5.699-8.1 3.699-7.7-3.399-11.4-10.1-13.4-17.6-6.1-22.8-8.4-46.2-8.199-69.8 0-2.7-5.9-43.7-6.2-48C1346 928 1347.1 948.4 1346.4 953.6zM1108.699 790c-3.8 9.4-8.5 21.101-10.699 27-5.4 15-8.601 20.2-13.7 35.301-11.2 32.6-22.7 62.899-30 96.699-1.4 6.801-3.9 21.101-6.601 27.7-6.399 16.101-14.899 26.5-27.1 38.3-6.9 6.7-4.3 18.101-4.9 30.5 3.101 14.4 9.101 27 19.9 37.101 4.6 4.3 13.2 6.399 15.9 2.5 12.399-7.9 19.8-27.101 24.5-37.5-.801-.601-11.7 7.5-12.7 7.5-22.3-1.7-29.3-14.601-15.8-32.4 22.8-27.2 31.199-59.399 39.8-95.5-.5 1.601 3.3-15.1 4.5-21.2 4.1-20.8 6-33.399 12.2-53.8 3.899-13 37.3-133.7 37.3-134.3C1142 715.2 1111 785.7 1108.699 790zm84.401 210.1c4.699-.4 9.199-1.5 13.699-2.5 5.101-1.101 8.4.2 9.701 5.6 2.1 8.4 5.199 16.5 10.299 23.601 1.701 2.399 2.201 4.5-.5 6.899-9.5 8.4-21 8.7-30.899.601-5.101-4.2-8.7-8-12.101-14.7-3.1-4.601-7.199-13.101-10-17 0 8.3.101 24.7 0 33-.1 10.399 3.101 22.8 5.601 32.7 4.101 15.899 20.399 11.1 30.3 4.899 14.2-12.1 30.2-32.1 39.5-47.899 1.2-2.101 6.9-5.301 4.9-7.5-8.7-9.7-15.801-18.7-18-31-1.301-7.4-2.2-30.101-3.7-37-2.8-1.101-14.3 9-15.399 10-9.9 8.8-21.9 13.3-37.5 8.5-6.4-2.801-5.2 2-5.4 8.899-.1 2.7 0 11.3 0 14 2.699 6.101 13.899 9.4 19.499 8.9zm-253 19.3c-1.6 6.4.8 11.2 6 13.4 18.4 8 37.1 7.199 53.2-4.301 12-8.6 23-16.3 31.8-28.5 2.9-4 9.699-10.899 10.699-16-4.699 2.4-13.399 4.4-17.799 7.2-14.601 9.101-30.4 12.8-47.301 10.5-8.9-1.2-17.5-3.899-20.8-14C947.8 996.9 943 1007.801 940.1 1019.4zm153.2 85.8c-11.101-.899-16-7.2-14-18.2.6-2.899 1.2-5.899 2.5-8.6 10.3-20.9 21.8-41.3 33-62.3 2 9.7 2.2 19.6 6.2 32.6.6-1.199 3.3-7.699 3.3-8.8.2-9.6-1.4-27.2-1-36.8.2-5.1-5.601-2.7-9.101-3.6-4.1-1-8.5 6.199-9.6 8.899-13.2 25.8-25.1 42.7-40 63.9-4.2 5.899-8.8 14.399-10.1 21.5-2.101 12-5.4 23.899-6.601 36-.8 8.3 1.101 10.1 9.3 10.199 2 0 4 .101 6-.3 19.801-4.2 33.9-15.7 42.801-33.7-4.099-2.298-8.399-.398-12.699-.798zm9.899-238.6c-2.199 10.7-5.8 28.1-8 38.8-4.3 20.7-4.1 40.3-3.1 61.7.5 11.1 6.3 22.5 15.3 29.8 10.8 8.7 25 3.4 34.8-6.3 2.9-2.9 11.301-16.601 12.9-20.2 7.6-16.7 9.5-58.4 10.5-76.8-1.8 7.899-5 34.5-17.9 49.7-3.899 3-7.699 6.3-11.5 9.3-4 3.1-7.899 3.7-12.8 1.3-9.8-4.9-15.1-13.5-16.8-23.2-1.6-9.2-1.1-19.1.4-28.7 2.199-13.899 6.8-46.399 5.199-60.8-1.499 1-8.698 23.7-8.999 25.4zm133.5 103.4c1.1 5 1.7 11.7 1.7 11.7 0 7.4 3.101 13.2 5.3 20.101 4.6 14.8 13.2 17.6 26.301 9.699 17.5-10.399 34-29.1 38-49.5-4.7 0-12.7 5.801-15.5 8.301-10.2 9.199-22.101 10.199-32.5 2.199-8.4-6.399-14.101-14.899-15.9-25.399-.6-3.101-5.4-10.7-8.6-12.101-.9 8.6-.7 26.4 1.199 35zm216.5-305.8c5-.399 21.301-1.6 26.1-2.399 27-4.601 53.201-19.101 76.701-33.4 3.199-1.9 15.899-6.5 18.299-5.4 0 0-6 11.2-7.6 15-1.699 4-4.5 7.4-5.1 11.801 6.5-3.801 10.3-10 15-15.601 9.4-11.5 16.3-24.6 24.699-36.399-1.899-1.9-3.399-1.7-5-1-5.5 2.399-11.1 4.5-16.399 7.199-27.2 13.7-54.5 27.101-83.601 36.601-10.899 3.6-21.699 8-33.5 8-2.399 0-3.799-10-4.199-11.7-5.799 7.399-12.599 27.798-5.4 27.298zm190.701-9.1c2.2 3 7.9 9.8 10.8 12.1 12.4 9.4 25.101 18.7 38.4 26.8 13.4 8.2 28.3 18.9 43.2 23.7 1.6.5 7.8.4 9.2-.8 1.6-1.5-4.7-7-5.4-8.4-2.801-4.899-4.301-10.5-8.2-14.699-.3 3-1.6 4-4.7 2.8-13-5-26.199-9.5-38.1-16.7-13.9-8.4-26.3-18.7-38.3-29.8-5.3-4.9-10.5-10.7-20.4-13.9 4.4 7.4 3.2 13.7 3.601 19.8C1642 653 1639.5 649 1643.9 655.1zm75.9 6.8c.6-9.2 4.3-5.9 12.2-1.2 13.1 7.7 27 15.2 40.699 21.7 10.1 4.8 32 11.3 43.301 12-7-6.9-28.601-18.3-36.5-23.7-20-13.7-40.101-27.1-60.4-40.3-5.6-3.7-11-8.1-17.6-9.8-1.801 2.3-.601 3.8.3 5 4 6.1 7.399 12.6 12.6 17.8 3.7 3.8 5.9 7.6 3.8 13.3-1 2.8-1.6 6.7 1.801 9.101-.101-1.201-.302-2.601-.201-3.901zm-205.601 37.901c7.6 1.1 12.301-.7 16.6-2.7 14.9-6.601 29.4-13.9 42.4-23.8 12.9-9.801 25.6-19.801 38.1-30.2 4.301-3.601 10.9-14.7 15.4-11.8.2-1 .6.3-3.3-2.2-3.399-2.2-6.101 1.2-8.8 2.899-.6.4-1.1.801-1.6 1.2-17.101 11.3-34.101 22.601-51.301 33.9-5 3.3-10.1 6.3-15.199 9.3-2.701 1.6-4.4.8-4.601-2.4-9.398 7.7-15.498 18.5-27.699 25.801zm105.5-183.5c2.301-2.301 5.301-3.9 7.7-6.2 19.7-18.9 43.899-25.7 70.399-26.9 6.701-.3 73.9 23.4 63.9 17.8-3.699-12-50.699-30.6-64.3-32.6-14.3 3.5-23.5 5.3-39.7 9-15.3 6.2-36.8 18.8-47 33.2-1.9 2.7-4.1 5.2-7.199 6.7 9.101 6.299 9.001 6.199 16.2-1zm-494 529.399c0 .3-1.8 6.101-1.699 6.4 5.199 10.399 18.699 18.3 30.1 20.7 10.6 2.199 21-7.101 21.699-13.4-1.199-5-5.5-13.2-5.899-18.1-.3-3.2.899-6.7-1.899-9.5 0 4.899.1 9.899-.101 14.8-.399 6.899-4.399 10.2-11.101 9.1-8.899-1.399-15.299-6.899-21.399-13.2l-4.899-9.199c-.201-3-2.601-12.4-2.701-15.3-4.3 11.099-.101 16.399-2.101 27.699zM1553.5 484.801c16.8-12.601 34.9-20.101 54.8-26.801 3.6-1.199 19.3-1.899 29.899-3.699-8.899-1-32.8-9.601-41-8.801-1.1 2.801-5.8 5.7-8.3 6.801-18.1 8.199-41.2 22.6-53.3 39.3 4.6 3.599 13.701-3.701 17.901-6.8zM1443.6 454c15.699 5 31.8 14.601 42.8 23.7 1.3 1.101 3.4 10 5.8 9.601 5.801-.301 17 4 11.301-11.301.3-.5-18.801-17.399-25.2-20.399-2.8-1.3-5.5-3-8.5-4.601 2.399-1.899 5.399-.6 6.7-3.1-9.201-.7-23.802 4.1-32.901 6.1zm-272.2 528.7c-.2-3.3.8-15.2.3-18.399-.5-3.101-1.899-4.9-6-8.801-3.8-.5-6.8 10.7-7.699 13.801-3.301 11.1-9.4 20.3-19 26.699-15.301 1.301-12.9 4-11.301 22 13.7-7.8 28.7-19 38.301-31.699 2.5 3.1 2 10.899 2.399 13.1 2.9-3.1 3.2-13.201 3-16.701z"/><path fill="none" stroke="#000" stroke-linecap="round" stroke-linejoin="round" stroke-miterlimit="10" stroke-width="6" d="M1780.5 515.2l1.1.601c42.9 41.399 76.5 83.699 100.5 126.6 11.5 17.6 20.8 33.7 27.9 48.4 8.1 16.699 13.899 32.399 17.399 47l21 272.699c3.3 31.801 4.7 56.601 4.3 74.301-.5 19.3-3.199 37.3-8.3 54-5.3 7.399-11.5 12.1-18.6 14.1-6.3 1.8-13.8 1.6-22.3-.6-8.4-.9-14.7-6.7-18.9-17.5-4.1-10.7-6.5-27.301-7.2-49.7M1775.8 683.5c-8.101-3-17.3-7.199-27.8-12.199-11.7-5.801-21-10.801-27.6-15.301 3.8 13.801 7.5 25.2 11.101 34.301 4.699 11.6 10.1 21.5 16.199 29.8-20.5-3.3-40.1-11.5-58.699-24.601-12.9-9.199-29.5-24.199-49.9-45.199-5.1 8.199-8.6 13.6-10.4 16.399-2.8 4.4-5.199 7.7-7.199 9.9-3.601 4.1-10.9 9.399-21.7 15.899 8.7-9.3 14.7-18.699 18.1-28.3 1.3-3.7 2.7-8.8 4.4-15.399 2.5-10.4 4.2-16.801 4.8-19.2-29.1 26.399-51 44.399-65.3 54.3-20.2 13.9-37.7 20.8-52.4 20.6 15.7-13.5 29.7-28.3 42-44.199 11-14.301 19.4-28 25.2-41-23.9 12.899-45.6 23.3-65 31.199-26.1 10.7-45.6 15.601-58.5 14.801M1775.8 683.5c6 2.301 13.7 5.5 23.2 9.301 7.899 2.899 15.699 4.5 23.399 4.899-3.7-3.899-8.1-15-13.399-33.2-3.4-10.8-8-20.1-14.101-28-31.7-38-59.899-60.199-84.399-66.3m166.9 514.9c-2.8.1-5.7-3.3-8.6-10.3-2.3-5.4-4.3-12-6-19.801L1852.699 948.3C1836.5 844 1811 755.801 1775.8 683.5m101.6 401.6c2-.2 4-.7 5.7-1.7 2-1.1 4.3-2.8 6.8-5.3 7.7-12.5 13.601-26.4 17.601-41.7 4-16 6.399-34.7 7-56.3 3.1-42.8-2-92.4-15.301-148.8-8.199-46-23.1-93.801-44.5-143.5-15.8-43.2-39.4-81.2-70.9-114.101-48.399-48.399-98.5-50.1-150.299-5.399-46.701-29.7-95-36.601-144.9-20.601-75 35.601-117.2 121-126.5 256l-14.5 138.7c-.1.9-.2 1.7-.2 2.601-3.5 30.199-5.601 51.3-6.101 63.3-.799 16.6.101 31.1 2.601 43.6m89.399-598c-25.2-3.4-50.5-3.6-76.2-.7-26.2 3.101-54.5 9.601-84.8 19.601-33 9.6-60 22.8-81 39.899-20.5 16.5-37.101 38.4-50.101 65.3L1078.8 713.2l-35.9 96c-13.1 43.101-32.5 86.9-58.399 131.5-28.301 36.8-43 63.601-44 80.3-.9 16.101 10.899 22.601 35.399 19.4 7.5.4 14.9-1.6 22.101-6.3 3.699-2.3 10-7.5 18.899-15.601M1566 443.301c-16.4 2.199-29.4 6.199-38.7 12.199-10.2 6.4-17.3 15.601-21.3 27.601m60-39.8l-15.2-.4c-15.2-1.4-32.8-1.1-52.7 1.2-11 1.2-32.6 4.5-64.8 9.8m57.8 28.299c-8.2-8.5-16.7-14.8-25.5-18.899-7.1-3.2-17.9-6.4-32.301-9.4M1780.5 515.2c-13.101-13.6-27.101-24.1-42.101-31.6-15-7.601-34.899-14.3-59.8-20-3.6-1.101-7.801-2-12.6-2.7-5.601-.7-9.801-1.3-12.601-1.6m.002.001a148.63 148.63 0 0 0-20.3-6.301c-8.5-1.8-14.6-3.199-18.6-4.199-16.4-3.801-32.5-5.7-48.5-5.5m87.4 16c-8.1-1.101-15.399-1.601-21.899-1.601-7.601 0-14.9.7-21.5 2.101-23.7 5.1-47.2 17-70.301 35.899m240.8 19.5c-37.601-22.7-69.5-33.399-95.801-31.8-25.9 1.5-50.1 15.1-72.4 40.6-25.799-12.899-50-22.3-72.6-28.3m0 0c-68.6-18-121.6-3.7-159 42.8-64.8 87.601-110.9 186.5-138.3 296.7v.3c-.3 1.5-.5 3.2-.8 4.7-14.301 104.101-10 162.9 12.8 176.5m176.701-522c-53.7-30.1-104-27.899-151 6.9-41.5 32.899-80.2 84.3-116.2 154.1m-147 362.8c.9-.699 2.101-2 3.7-3.6 8.6-7.2 17.2-17.9 25.7-32 9.899-46.2 23.5-92.7 41.2-139.4 23.899-73 49.399-135.5 76.399-187.8M1055.4 1086.301c.101-.2.2-.5.2-.7l.5-.7c10-14.8 17.9-26.699 23.699-35.899 10.601-16.7 19.4-33.2 26.4-49.4M1016.9 1018.5c-1.6 18.801-.6 33.601 2.9 44.601 4.3 13 12.6 21.7 24.899 25.899 1.4.4 3.601.2 6.601-.699 2.2-.7 3.5-1.4 4.1-2m0 0c-6.2 20.3-9 34.8-8.3 43.5.699 9.3 5.4 13.5 14.1 12.699 18.1-2.3 32.4-11.3 42.5-27.3 9.4-14.7 15.9-36.1 19.4-64.3m417.4-468.2c-48.4 6.3-79.4 33.4-92.9 81.101 1.3.3 2.199.6 2.699 1 .301.199 1.301.399 2.801.5M1343.9 1051.9c2 9.9 5.101 18.9 9.5 26.9 4.3 8 9 13.399 14.2 16.3 2.699 3.4 6.199 3.4 10.5-.3 3.5-2.9 8.199-9 14.1-18.101 5.2-13.1 8.7-27.699 10.5-43.899 1.6-13.3 2.2-31.3 2.2-54.101l8.5-157c5.2-37.5 10-65.399 14.2-83.899 6.4-28.301 14.9-52.5 25.5-72.5m-290.6 284.6c3.3 6.4 6.899 11.3 11 14.8 14.199 12.2 32.899 6.7 56.399-16.3M1163.9 655.7c-25.7 71.4-47.8 150.3-66.5 236.601-11.2 59.1-7.899 93.899 9.9 104.5 6.1 3 11.899 4 17.3 3.399 15.3-2 27.9-18.399 37.8-49.3l.101-1M1387.4 526c-63.3 12.5-110 47.101-139.899 104.2-43.9 61.601-72.2 168.101-85 319.5v.2M1471 551.6c-58.801 21.7-99.4 67.5-121.601 137.1-20.399 68-32 139-34.7 213-.6 36.8-5.6 64.2-14.8 82.2-9 17.6-23.399 28.7-43.2 33.3m-2.299-.5c.4.2.8.5 1.2.7.4-.1.8-.1 1.1-.2m-.001 0c-.4 32.3 1.301 55.7 5.4 70.2 4.5 16.3 11.8 25.7 22.1 28.1 9.2 2.601 19-2 29.2-13.899 8.399-9.7 18.5-26.3 30.5-49.7M1176.5 1062.1c5.199 16.6 14.3 21.2 27.5 13.8 12.899-7.2 29.8-27 50.399-59.2m-131.299 34.2c1.1-8.8 1.699-16.3 2-22.6.199-7.101.199-15.9-.2-26.2m-1.8 48.8c18.4 25.4 36.199 29.1 53.4 11.2m-4.2-96.2c-1.5 24.4-1.9 44.1-1.2 59.4.7 14.899 2.5 27.199 5.4 36.8M1884 1129s-25 43-60 0"/></svg>