<svg xmlns="http://www.w3.org/2000/svg" id="hair" viewBox="0 0 3000 3000"><path id="hl1" fill="#C79050" d="M1071.6 579.7c7.1 6 12.6 13.5 18.5 20.601 1.9 2.3 3.8 4.399 6.5 6 13.3 7.699 26.6 15.3 40.7 21.1 15.6 6.4 32.199 10.1 49 12.5 13.699 2 27.5 3.9 41.3 5.6 13.5 1.601 27 2.801 40.4 4.5 24.3 3.2 49 6 70.699 18.5 23.301 13.4 43.5 30.5 56.801 54.5 3.8 6.801 8.699 13.101 10.3 21.101-3.2.8-4.101-1.3-5.101-2.8-7.699-12-19.1-19.301-31.8-24.7-15.3-6.4-30.7-12.3-46.1-18.2-10.9-4.2-22.2-6.5-34-6.5-30 .1-60-.2-90 0-27 .2-53.4-4.1-79.9-8.6-16.399-2.7-32-8.4-48.1-12.4-7.7-1.9-14.8-5.9-22.2-8.8-4.3-1.601-4.7-5.2-5.1-8.9 6.301-25.502 15.2-50.202 28.101-73.502zm718.7-79.899c-4.601.199-4.8 4.3-5.601 7.199-2.199 8.7-7.1 15.301-13.8 21.2-9.5 8.4-20.6 14.4-31.1 21.4-16.5 11.2-34.7 18.5-52.9 25.3-24.6 9.2-50.5 13.6-77 13-4.6-.1-9.3 0-14.5 0 5.2 5.5 11.7 3.1 17.3 4.5 10.2 2.7 20.801 2.6 30.7.8 18.5-3.399 37.101-6.3 55.4-11.2 22.1-6 44.3-11 65.8-19.199 9.3-3.5 18.3-7.601 27.9-10.5 10.1-3.101 19.899-7.5 29.5-12 3-1.4 4-3 3.8-6C1815.3 521.6 1803.5 510 1790.3 499.801z"/><path id="cl1" fill="#A47642" d="M1859.699 576.1C1872.8 599 1882.5 623.4 1891.9 648c3.3 11.801 6.8 23.5 9.9 35.4 9.6 37 16.199 74.5 20.5 112.4.199 1.6 1 3.1 1.5 4.7 1.199 17.199 2.399 34.399 3.6 51.899-3.4.4-4.3-2.5-5.8-4.3-6.101-7.8-11.9-16-18.2-23.6-4.7-5.7-7.9-5-10.3 2.1-3.301 9.7-6.2 19.6-9.301 29.3-5.399-.6-5.8-4.899-6.1-8.8-1.6-17.9-4.4-35.6-6.4-53.5-6.199-53.9-22.1-104.6-52.399-151.6 2.399 14.1 1.1 27.399 4.399 40.199 2.2 8.4 1.2 15.7-5.1 22-9.3 19-18.9 37.801-30.4 55.601-6.199-1.4-6.1-6.9-6-11.101.4-27.5-4.699-54.3-9.699-80.3-16.601 38.101-35.801 75.4-65.2 106.5-1.6 1.7-3.4 3.9-5.9 2.8-3.3-1.3-2.1-4.5-1.699-7 2.399-14.8 6.3-29.3 6.399-44.399.301-28.601.2-57.2-6.199-85.4-1.101-4.899-2.4-9.7-1.9-16.2-7 31.301-17.2 59.9-32.4 86.601-3.899 6.7-9.6 12-14.6 17.7-4.9 5.699-7.5 2.8-8.5-3.101-2.8-29.1-5.6-58.2-8.4-87.2-.199-2.3-.699-4.6-1.1-6.899-.4-2.601-1.8-4.3-4.4-4.7-2.5-.4-4.6.7-5.899 2.9-1.2 2-2.2 4.1-3.101 6.199-10.3 23.801-22.199 46.801-35.6 69-6.6 10.9-13.8 21-24.3 28.7-9.301 6.9-18 14.7-26.9 22.101-1 .399-1.8 1-2.3 2-7-2.5-2.601-7.101-1.5-10.4 5.5-17.4 11.3-34.7 14.399-52.8 3-17.4 2.7-35 4.9-51.101-11 21.601-23.3 43.7-38.6 64.101-.801 1.1-2.2 1.5-3.4 2-5.9 1.2-9.6 5.8-13.8 9.5-19.801 17.3-39.4 34.8-59 52.3-7.9 7.1-16.9 12.9-23.801 21.2-8.3 10.1-15.1 21.1-21.199 32.6-14 26.5-25.7 54.1-38.101 81.3-1.199 2.7-1.8 5.7-5.5 8.7-6.3-14.8-12.399-29.2-18.5-43.6-11.5-9.7-13.6-24.3-19.6-36.9-.4-1.4-.5-2.9-.8-4.3-.2-.5-.5-.9-1.101-1-.699.7-1 1.7-1.399 2.6-.4.8-.9 1.5-1.4 2.3-29.7 32.7-68.3 46.9-110.6 54.101-53 9-93-12.601-126.7-50.9-14.6-16.5-27.2-34.399-38.5-53.3-3.5-5.8-6.2-11.7-4-18.8.8-20.7 4.8-40.9 9.1-61.101 3.601-17.199 7.101-34.399 12.7-51.199 6.1 7.1 14.5 10.6 23 13.3 31.8 10.1 64.3 17.3 97.6 20.6 36.9 3.7 73.9 1.8 110.9 1.7 22.5-.1 43.6 3.6 64.1 12.6 10.101 4.4 20.301 8.5 30.5 12.601 11.9 4.8 22.601 11.399 30.301 21.7-10.101-18.4-22.5-34.9-38.9-49-26.8-23-58.8-30.101-92.3-34.101-28.4-3.399-56.9-6.7-85.3-10.5-32.301-4.3-61.801-16.7-88.7-34.6-10.101-6.7-18.2-16.5-23.4-28 6.7-15.9 17.7-28.7 29.601-40.8 25.699-25.9 53.899-48.4 85.399-66.301 6.9-3.899 15-10.699 22.601-13.3 1.399-.7 4-.7 5-2.3l2.399-1.1c24.2-7 46.4-2.101 71.2-4.5 17.9-1.7 35.7-3.9 53.7-4.4 41.2-1.1 81.7 5.4 122.2 11.4 19.8 2.899 39.5 6.1 59.399 7.8 4.3.399 8.601 0 12.8-.3 1.301-.2-.3-1.7.101-.5.1.399-.2.399-.9.399-5 .2-8.899-2.6-12.8-5.1-41.4-25.7-86.9-39.9-134.6-48-7.2-1.2-14.301-3.301-21.5-4.7-5.801-1.2-9.5-4-10.4-10-4.9-4.7-11.4-4.9-17.5-6-18.8-3.4-37.6-6.7-56.4-10-1.199-2.3.7-2.9 2.101-3.7 50.199-19.6 102.5-25.1 155.899-21.8 25.9 1.6 51.601 5.3 76.601 12.6 26.8 7.8 54.1 13.8 80.6 22.9 64 22.2 123.2 53.3 177.2 94.4 5.5 4.199 10.6 8.899 15.899 13.399-4.199 19.3-16.899 31.8-32.699 42.2-31.9 21.2-66.301 37.1-103.801 44.9-17.699 3.699-35.899 4.6-48.3 3.199 18.6 3.101 42.6.7 66.5-4.699 35.7-8 71.4-16.2 105.4-30.301 16.199-6.8 33.6-10.8 48.5-20.8 12.8 13.003 23.7 27.203 33.999 41.903z"/><path id="sd1" fill="#7A582E" d="M1812.8 720.9c.6-1.2 1.7-3.1 2.3-4.3 1.3-2.7 6.9-13.7 10.4-13.4 3.899.4 7 13.7 8 17.3 9.3 31 17.6 62.5 24.899 94.101 1.601 7.1 3.5 14.399 6.3 21 4 9.6 1.601 17.6-6.3 24.2-.7-.2-1.1-.5-1-1 .101-.5.3-.801.5-.801.2-.399.4-.899.5-1.3 0-.2-1.2-.5-1.3-.7-1.2-1.199-1.9-3-2.8-4.199 0 0-1.101-2.7-1.9-4.101 0 0-1.399-2.899-2-4.5-1.107-2.242-5.3-9.1-5.3-9.1-.956-1.631-5.683-14.726-5.683-14.726-1.141-3.042-4.018-9.374-4.018-9.374-1.614-2.854-4.897-14.679-6.2-18.5-1.24-3.522-3.823-21.542-4.2-27.601-.1-1.3-2.207-16.317-3-20.2-.699-2.822-6.698-21.699-9.198-22.799zm-556.449 311.182c3.1 3.5 9.749 13.019 13.048 16.318 5.2 5.3 9.633 16.326 16.333 19.526 3.899 1.801 26.785 28.274 27.385 23.473.7-5.899-9.253-40.729-8.153-46.628-3.372-31.766-7.644-63.682-4.244-92.082 3-24.8 7.441-51.231 13.679-72.589 0-1 0-2 .101-3 1.199-7.5 4.3-8.8 11.6-5.1-7.8-12.5-12.8-26.2-18.1-39.8-1.2-1.101-.801-2.9-2-4-2.301-1.2-2.9.899-4 2 0 .699 0 1.3-.101 2-10 18.699-17.1 38.899-30.399 56-7.801 10-16.2 19.3-24.2 29.1-12.7 15.6-28.9 26.3-45.7 36.6-4.3 2.601-9.4 4-14.4 3.7-20.6-1.1-41.199-2.2-59.3-14.3-14.1-9.5-27.6-19.7-40-31.3-24.399-22.9-46.399-47.601-63.7-76.4-1.899-3.1-3.3-7.5-8.399-7.3-.5 2.9-1.5 5.9-1.5 8.8-.2 19-.601 38-.101 56.9.601 21.2 5.7 41.2 16.2 60 10.4 18.6 23.101 35.7 33.2 54.6 12.1 22.601 23.5 45.5 32.4 69.601 3 8.199 6.5 16.699 7.699 25.199 6.468 14.266 20.2 64.2 22.601 72.7 2.399 8.3-3.313 28.836-.914 37.136 1.101 3.7 25.428-37.556 29.327-34.456-1.993 1.256 6.911 6.588 6.62 16.343 4.5 7.542 8.673 32.141 15.173 41.04 4 5.5 7.838-51.828 12.438-45.427 2.2-4.8 59.823 68.595 60.722 65.095-7.174-26.588-21-56.832-18.667-82.832 24 49.333 94.167 69.667 105.085 72.209-21.585-25.375-62.018-84.342-57.418-91.042-7.167-17.667-23.333-43.667-20.333-54.167 1.1-2.301-7.079-38.482-5.479-40.482-.5-8.301 5.282-7.861-.018-14.861M1348 406.4c-29.601 9-58.9 18.9-87.101 31.8-16 7.3-32.7 13.3-47.1 23.601 3.7 0 7.5.699 10.899-.101 12.9-2.899 26.2-3.8 39.301-5.3 21.699-2.4 43.399-4.7 65.199-6.1 23.801-1.5 47.9-1 71.601 2.1 6.2.8 12.5 1.1 18.7 2.2 11.399 2.1 22.8 3.6 34.3 5.3 16.3 2.4 32.6 5.5 49 7.1 12 1.2 24.1 4.601 38.2.2-12.4-5-21.4-12.399-31.7-17.6-15.4-7.9-31.101-14.7-47.5-20.4-17.9-6.3-36-11.6-54.3-16.2-13.7-3.399-28.101-4.1-41.801-8-4.399-1.2-7.399-3.399-9.8-7 .702 6-3.498 7-7.898 8.4zm296.699 340.8c3.4-2.3 6.4-4.2 9.301-6.399 8.199-6.101 16.3-12.601 24.699-18.5 5.301-3.7 9.601-1.801 10.801 4.5.399 2.3.3 4.6.399 7 .8 13.199 1.5 26.5 2.5 39.699.4 4.7 1.4 9.4 2.101 13.9 3-.1 4.1-1.4 5.199-2.6 10.801-11.7 21.7-23.3 32.4-35.101 6-6.6 11.4-13.8 17.5-20.399 3.9-4.2 7.6-3.4 10.2 1.7 1.699 3.199 2.699 6.8 4.199 10.1 4.9 10.7 8 22.3 14.4 34.1 3.5-5.899 6.4-10.6 9.2-15.399-2.301-3.301-3.601-7.101-3.601-11.101-.1-11.899-.3-23.8-1.8-35.8-2.1-16.5-5.3-32.8-9.1-50.7-2.301 4.4-3.9 7.3-5.301 10.3-6.199 12.5-12.399 25-18.5 37.5-9.699 19.801-23.3 37.101-35.899 55-3.2 4.601-7.2 8.7-13 12.301 13.2-53 9.6-104.301-3-155.4-2 3.4-3.601 6.7-4.3 10.2-3.101 16.1-9.301 31.1-14.9 46.3-7.2 19.8-17.5 37.7-32.9 52.9-1.5-1.7-1.199-4.2-3.199-5.2-.399 6.899-.198 13.7 2.601 21.099zm186.101-39.399c6.3 18.899 12.8 37.8 18.5 56.899 10.1 33.4 19.3 67 26.899 101.101.9 1.3 1.301 3.3 3.7 2 .601-4.2 4-7.5 3.9-12-3-2.7-3.8-6.101-3.7-9.9 0-3 .1-6-.3-9-3.2-23.6-6-47.2-9.9-70.7-2.899-17.3-7.2-34.399-12.5-51.1-7.899-24.8-20.5-47.5-32.899-70.2-1.9-3.5-3.601-7.4-8.801-10.1 1.301 14.1 2.301 26.899 3.7 39.699 1.1 10 5.1 20-1.1 29.601 7.9-6.3 9.201-6.001 12.501 3.7zM1512.1 719.4c1.1 9.2 2.3 18.5 4.4 27.5 1.5 6.5.6 13.7 4.699 19.9 3.601-2.7 6.801-5 8.9-8.5-3.6-2.7-.6-5.7.2-8 9.3-26.9 18.199-53.9 17.699-82.8 0-1.301.101-2.7.5-3.9 2.601-8.4 1.101-16.8.7-25.5-2.2 2.5-3.7 5.3-5.2 8.1-3.1 5.9-5.699 12-9.1 17.7-9.5 15.5-19.2 30.8-28.9 46.2 4.002 1.701 5.602 4.9 6.102 9.3z"/><path id="hl2" fill="#966C3C" d="M1302 832c.1 2.4-.301 4.601-1.301 6.801-7.1 15.6-12.6 32.199-24 45.6-4.1 4.8-7.3 10.3-10.8 15.4-6.4 9.399-15.2 16.5-22.3 25.199-11.301 13.7-26.9 22.5-41.9 31.601-4.4 2.7-9.9 3.3-15.4 3.399-9.3.2-18.399-2.1-27.6-2.899-17.6-1.5-31.6-11.3-45.4-21.101-23.5-16.6-42.899-37.8-62.3-58.699-11.2-12-19.2-27-28.6-40.601-2.101-3-4.3-5.899-6.4-8.8 0-2 .101-4 .101-6 2.5-5.9-.5-12.4 1.699-18.3.2-12.8 1.4-25.5 4.101-38-.7 8.7 4.899 14.9 8.899 21.7 12.9 21.8 28 42 45.9 59.899 20.1 20.101 43.9 34.4 72.2 39.9 10.2 2 20.7 1.7 30.8.3 15.3-2.2 30.7-4.5 45.7-9.2 25.399-8 48.5-19.8 67.8-38.3C1296 837.2 1298.3 833.9 1302 832z"/><path fill="none" stroke="#000" stroke-linecap="round" stroke-linejoin="round" stroke-miterlimit="10" stroke-width="6" d="M1778 778l-23.2-51.5-60.5 66.101s-7-68.2-8.7-71.9-49.3 29.9-44.9 27.2c4.4-2.7-6.8-120.8-12.6-120.8s-32.5 54.399-52.8 88.1c-16.8 22.601-35.4 36.7-56.7 54 0 0-3.8-58.3-11.2-58.7-7.399-.399-76.465 56.009-97.2 79.601-41.329 47.021-61.399 131.899-64.8 127.6-3.3-4.3-23.188-53.969-25.5-49.2-40.732 83.999-6.065 225.999-6.065 225.999s-46.735-40.599-58.635-64.599c0 0-4.395 12.124-1.699 37.5 5.002 47.099 31.002 127.724 87.669 179.25-100-27.55-112-76.35-112-76.35l19.333 85.531-59.333-66-12 48.217-21.334-60.587-33.738 39.639c18.5-31.899-20.998-120.601-21.298-121-1.9-5.101-9-30.4-13.601-40.3-12.699-27.4-23.6-47.2-43.6-80.601-7.555-12.616-23.9-38.6-27.6-55.1-6-27-6-57.7-1.9-91.7 2.3-39.8 8.8-95.1 27.2-182.7 12.3-67.1 64.6-129.3 147.3-176.6h.1c52.2-25.3 103-46.2 170-70l-77.1-18.5c77.9-29.601 159.4-33.5 242.1-13.101 140 36.801 240.301 90.2 322.301 185.001 42 69.399 77.6 186.899 82.699 308.8l-32.199-41.3-20.4 52.6s-43.5-175.4-50.2-172.7S1778 778 1778 778m90.1 62.801c.7 8.8-9.8 19-9.8 19"/></svg>