<svg xmlns="http://www.w3.org/2000/svg" id="panties" viewBox="0 0 3000 3000"><path id="cl1" fill="#2755EA" d="M1435.5 1807s100.5 51.5 207 29.5c45.5-9.5 108-38.5 135-66.5 3.834 3.834 18.5 39.168 18.5 39.168s-20.615 5.299-28.75 9.332c-6.366 3.158-41.75 22.168-76.75 63.168-31.666 41.334-65.215 60.334-75.166 56.334-23.953-9.5-31.002-40.168-52.502-49.668-22.5-14.5-45.832-27-69.332-29.5S1418 1861 1418 1861l17.5-54z"/><path fill="#FFF" d="M1521.769 1834.531c-3.667 9-23.103 14.471-25.103 14.617s-21.959 1.561-26.291-3.773c-4.334-5.332-4.709-4.041-19.375-6.707-14.666-2.668-.934-26-.934-26 2.979 1.862 25.274 9.991 43.309 15.957 14.233 4.709 28.394 5.906 28.394 5.906zm15.604 2.733s-9.373 24.737 1.627 29.737 12.573 5.043 19 17.123c2.791 5.248 33.541-6.875 35.875-8.875s29.178-24.548 33.844-37.214c-3 .669-59.682 4.561-90.346-.771zm72.314 96.826s18.647-19.088 9.647-31.422-35.638 2.918-34.668 3.334c4.091 1.755 4.406 10.122 9.084 15.873 5.991 7.371 15.937 12.215 15.937 12.215zm72.815-110.493s-23.838 34.07-11.502 41.404c12.334 7.332 64.574-48.188 67.574-67.521-1.667-.998-46.406 27.783-56.072 26.117zm101.998-27.222c-3.373 3.034-10.771 15.072-4.313 17.627 9.479-2.334 16.063-4.877 16.063-4.877l-6-18.123s-3.722 3.55-5.75 5.373z" opacity=".3"/><path fill="#232323" d="M1431.332 1834.668s16.332-3.183 23.666 22.483c-8.668.668-33-1.188-33-1.188l7.668-19.627 1.666-1.668zm100.143 37.159s3.525-4.823-4.809-13.823c-8.332-9-37.275 1.468-37.275 1.468l42.084 12.355zm111.191-34.493s-18.666 21.668-17.666 31c1 9.334 2.334 10.666 4.334 14.334 2 3.666 13.666 5.332 13.332 8-.332 2.666-11.332 23.334-7.332 26.334s25.332-5.002 32.332-18.334c7-13.334-12-20-11.666-29.334.334-9.332 13.666-13.011 9-34.672-.666-4.66-22.334 2.672-22.334 2.672zm106-43s-7.08 41.935-3 39.666c7.5-4.166 28-17.5 28-17.5s14.668-26.5 0-35.832c-8.332 0-25 13.666-25 13.666z" opacity=".5"/><path id="sd1" fill="#1D3EE2" d="M1486 1835.502c.489 2.784 1 7.666 2.528 11.388-1.333 2.707 79.97 6.61 123.47 66.444 11.531 6.99 59.889-5.683 53.523-4.073 0 0-26.023 30.573-50.021 28.187-8.333-4.668-18.909-10.407-26.335-25.943-6-4.668-47.001-47.334-106.667-53-59.667-5.666-62.354 1.526-62.354 1.526l16.992-52.985 49.132 18.868c.003-.003-.721 7.014-.268 9.588z" opacity=".7"/><path fill="none" stroke="#000" stroke-miterlimit="10" stroke-width="6" d="M1437.748 1807.043s97.771 50.457 204.271 28.457c45.5-9.5 108-38.5 135-66.5 7.613 8.758 20.462 40.716 20.462 40.716s-13.23.034-25.73 6.034c-7.556 3.627-49.084 28.084-84.084 69.084-27.5 32-49.616 53.088-65.488 53.166-25.768.132-25.152-22.352-49.346-41.666-20.918-16.7-55.666-35.498-99.666-38.834-23.565-1.784-53.643 2.616-53.643 2.616l18.224-53.073z"/></svg>