<svg xmlns="http://www.w3.org/2000/svg" id="panties" viewBox="0 0 3000 3000"><path id="cl1" fill="#2C2A2B" d="M1435.563 1813.818s-.563-13.985 5.438-8.651 58.166 20.332 72.5 22.999c18.424-9.333 47.667 6 47.667 6s14.666-10.5 24.999-9.666c10.667.5 22.396 11.985 33.73 5.318 11.332-6.667 15.868-11.84 22.868-13.173s23.736 3.854 36.402 2.188c12.333-22.166 31.834-24.166 39.5-19.5 7.271-.818 22.896-12.848 31.229-17.515 8.332-4.667 21.666-19.666 21.666-19.666s11 7 5.666 11.666c-8.666 5.666-34.248 28.995-42.896 39.515-8.35 10.157-22.833 26.333-22.833 26.333-21 21.333-30.169 38.5-53.501 73.167-12.668 22.333-33.437 20.985-33.437 20.985s-2.666-2.666-6-15.666c-3.332-13-20.666-30.667-47-50.334-26.332-19.667-136.631-50.318-136.965-49.318l.967-4.682z"/><path id="sd1" fill="#261F1F" d="M1510.5 1835.833c31.992 13.846 94.5 38.333 115.168 75.958 6.047 11.008 32.499-.29 35.499-3.624s-12.541 16.313-15.999 24.334c-11.334 7.815-35.002 4.768-36.002 2.003-1-2.764-9.328-28.541-14.994-33.541s-16.301-23.12-22.635-26.12-24.203-19.05-28.535-19.718c-8.021-2.083-34.478-15.293-49.667-20.666-13.191-4.666-49.666-17.668-56.333-16.668s4-13 4-13 17.789 9.91 35.165 16.876c16.143 6.472 33.247 13.696 34.333 14.166z"/><path fill="none" stroke="#000" stroke-miterlimit="10" stroke-width="6" d="M1434.81 1815.354s2-16 8-10.666 60.782 30.155 73.668 23.333c23.022-12.188 32.652 5.716 43.666 6.333 6.946.39 13.731-9.789 26.023-9.854 10.269-.055 21.645 13.521 32.977 6.854 11.334-6.667 10.689-11.854 22.689-14.521 16.659-3.702 22.334 8 33.667 2 13.828-7.32 9.838-13.372 19.905-18.675 15.631-8.233 17.032.697 26.095-1.325 13.296-2.968 49.312-35.145 49.312-35.145s11 7 5.666 11.666c-8.668 5.666-38.05 33.195-46.645 43.146-9.192 10.642-28 31.648-34.688 40.439-18.124 23.825-20.835 30.999-40.979 59.561-19.925 28.251-45.001 16.004-45.001 16.004s.421-5.192-5.666-16.671c-6.287-11.856-14.335-30.333-40.667-50-26.334-19.667-126.796-50.083-128.021-50.479-.478.021-.001-2-.001-2z"/></svg>