<svg xmlns="http://www.w3.org/2000/svg" id="panties" viewBox="0 0 3000 3000"><path id="cl1" fill="#ECAFCE" d="M1464 1810.002c1.667-.668 12.833-3.335 16.833-1.001 8 1 13.167 21.166 36.167 15.333 7.383-4.167 21.497-5.919 28.834 2.167 8.166 9 18.833 18.5 30.521 8.223 10-8.332 20.022-6.503 20.022-6.503s22.29 23.113 39.29 7.781c9.666-11.834 16.499-11.667 36.833-10.001 21.167 6 28.782-20.754 28.782-20.754 10.431-8.957 20.007 1.171 25.719-2.08 10.833-6.166 14.5-21.166 14.5-21.166 11.015-3.397 28.749 2.749 33.026-14.903 7.333 4 18.955 31.061 18.955 31.061s-6.482.51-17.815 3.844c-7.667-1-30.833 15.665-37.833 19.665s-47.018 43.097-60.666 62.5c-27.334 46.666-47 64.001-64.677 50.688-7.568-5.7-21.991-39.605-21.991-39.605-21.999-28.916-46.737-40.591-72.332-49.749-46.783-16.739-91.502-11.833-91.502-11.833l11.179-35.051c2.334 3.329 8.322 19.383 26.155 11.384z"/><path id="sd1" fill="#EC9AC2" d="M1486.203 1813.585s.047 16.583.047 17.915c0 1.334 83.25 11.5 128.416 70.834 20.021 26.301 34.334 11.166 45.084 7.916 1.667 3.334-8.75 12.25-15.25 19.25-3.551 3.823-16.502 16.502-22.168 9.834-15.832-4.334-26.479-39.373-27.479-40.373C1578.5 1877 1540.667 1851.334 1531 1849s-57.794-15.499-102.46-15.499c2.46-14.501 11.96-33.001 11.96-33.001s9.379 15.8 17.835 12.502 17.932-4.331 19.599-3.665c1.667.668 5.936 1.248 8.269 4.248z"/><path fill="none" stroke="#000" stroke-miterlimit="10" stroke-width="6" d="M1462 1811.002c13.45-4.401 20.618-.766 24.333 2 7.05 5.248 20.051 17.839 28.667 12.332 10.692-6.834 25.418-6.378 32 2.334 8.75 11.582 23.137 12.72 28.667 7.666 11.583-10.584 20.099-8.716 25-4.666 9.177 7.582 21.083 16.832 33 6.334 7.242-6.38 12.833-16.502 34.083-10.502 13.799 3.896 24.611-2.394 27.018-9.563 8.506-25.348 21.454-9.245 32.556-14.308 12.086-5.512 8.005-15.752 18.927-21.879 10.25-5.75 22 7.5 27.75-15.082 6.16 6.814 19.736 32.976 19.736 32.976s-6.736-.644-20.069 4.358c-7.239 2.716-24.072 10.048-38.417 20.998-6.408 4.892-50.5 44.832-66.5 73.5-27.334 46.666-39.421 42.72-50.925 40.996-9.37-1.404-19.85-33.417-27.325-43.246-54.793-72.048-164.55-60.663-164.55-60.663l15.009-34.767c2.333 3.33 1.742 17.497 21.04 11.182z"/></svg>