<svg xmlns="http://www.w3.org/2000/svg" id="panties" viewBox="0 0 3000 3000"><path id="cl1" fill="#272727" d="M1460 1825s-.18 3.893.5 4.75c15.181 3.071 42 8.25 42 8.25l.75-6.25s43.25 5.25 93.75 1.5c48.25-1.5 135.75-37.25 135.75-37.25s5.346 6.089 6.5 6.5c2.25 0 23.5-18 23.5-18l-.25-2.75 11.116-15.979 11.811 19.621-11.177 7.358H1771l-21.5 17.75s4.966 7.64 3.216 8.558c-8.75 4.332-42.716 38.192-61.966 59.192-11.5 7.5-31.917 35.917-45.417 49.417-3.75 2.75-21.667 15.666-36.583 5.833-39-60.5-109.584-77.333-109.584-77.333v-6.667c-1.5-3-41.833-9-41.833-9v4.168c-3.667-3-35.333 0-35.333 0 7.333-10.334 8.333-28 8.333-28C1454.5 1826.25 1460 1825 1460 1825z"/><path id="sd1" fill="#231E20" d="M1427 1836.688s113.75-2.688 187.25 72.063c17.083 12.915 43.25 2.498 49.25-.752-5.5 8.75-18.583 21.5-22.833 24-11.25 6.25-24.088 4.305-30.338 2.805-9.334-9.068-9.829-16.053-16.829-21.803-6-8.25-27.5-36.5-93.5-58.179v-5.49s-38.083-9.581-42.667-8.831c-1-.002-4.333 4.495-4.333 4.495s-26.25-1.87-28.5-1.37 2.5-6.938 2.5-6.938z"/><path id="cl2" fill="#E8DDDD" d="M1504 1839.25s6.25 18 24.5 8.25c13.152-7.026 23.5 4.5 23.5 4.5s11.75 14.25 27.5 1.423c10-9.75 20.229-6.157 26-1.673 6.435 5 20.5 7.485 29.75-6.75 9.345-14.381 19.372-1.477 33.25-3.5 12-1.75 12.75-6.417 17.25-14.25s17.75-11.75 27.25-7.75 22-.5 24.024-15.333c2.5-6-5.274-5.667-5.274-5.667s-117 48.875-226 34.375l-1.75 6.375z"/><path fill="none" stroke="#000" stroke-miterlimit="10" stroke-width="6" d="M1458.625 1824.375c.438 0 1.83 4.971 2.509 5.828 15.181 3.071 41.366 7.797 41.366 7.797s0-5.625.75-6.25 43.25 5.25 93.75 1.5c48.25-1.5 134.5-37.375 135.75-37.25s5.346 6.089 6.5 6.5c2.25 0 23.5-18 23.5-18l-2.166-4.333s10.712-17.988 14.291-13.813c.75.875 11.163 18.635 11.163 18.635l-10.954 8.594-4.084-.833-23.125 18.875s7.945 5.383 6.195 6.301c-8.75 4.332-50.32 45.574-68.57 65.824-9.191 10.198-26.125 28.875-41.857 45.789-6.118 6.295-27.518 11.586-34.893 3.961-39-60.5-108.875-76.25-109.5-77.375s.75-6.5.75-6.5c-1.5-3-39.422-9.094-40.005-8.719s-2.204 2.93-2.662 3.762-35.333 0-35.333 0l10.875-28.418c20.75 6.5 25.25 7.688 25.75 8.125z"/></svg>