<svg xmlns="http://www.w3.org/2000/svg" id="panties" viewBox="0 0 3000 3000"><path id="cl1" fill="#8E8DF2" d="M1660.166 1831.834c87.5-32 111.334-70.668 111.334-70.668s26.5 40 23 40-16 8.834-20.5 8.834-37.166 27-45.166 32.5-33 29.166-52 52.666S1628.5 1943 1610.5 1937c-6.5-8.5-31.834-44.5-70.334-69.5s-115.539-38.646-115.539-38.646l21.539-46.021c19 14.501 122 74.001 214 49.001z"/><path id="sd1" fill="#7675EC" d="M1498.75 1809.75L1490 1837s91.75 30.75 117.5 76.5c14.334 23.644 66.666-16.334 66.666-16.334s-31 39.865-52.332 39.978c-14 .072-37.025-32.565-39.002-34.643-20-21-66.664-57.563-156.895-74.139-4.5 1.5 20.063-46.862 20.063-46.862s43.75 27.25 52.75 28.25z" opacity=".63"/><path id="hl1" fill="#FFF" d="M1444.794 1785.765s110.038 62.7 182.372 51.051 132.626-59.891 143.146-73.937l11.834 15.329s-70.647 64.958-122.313 77.958-135.036-2.291-167.852-18.479c-32.815-16.188-58.074-28.663-58.074-28.663l10.887-23.259zm146.169 126.961c17.13 10.56 67.826 2.147 67.826 2.147l34.36-38.489c-60.684 31.551-138.948 1.403-138.948 1.403 11.39 7.955 36.762 34.939 36.762 34.939z"/><path fill="none" stroke="#000" stroke-miterlimit="10" stroke-width="6" d="M1660.5 1831.166c87.5-32 110.211-70.866 110.211-70.866l25.455 39.866s-12.823 4.195-21.166 9.834c-11.741 7.938-27.75 16.428-46.834 32.834-19.084 16.407-34.043 32.159-54.209 54.666-26.09 29.12-33.123 44-64.373 38.351-6.5-8.5-28.272-41.017-66.772-66.017s-116.873-41.472-116.873-41.472l19.563-44.196c23.498 14.5 122.998 72 214.998 47h0z"/></svg>