<svg xmlns="http://www.w3.org/2000/svg" id="图层_3" viewBox="0 0 3000 3000"><path id="cl1" fill="#FFF" d="M1460.478 1828.576c15.18 3.07 31.843 4.884 42 8.25 63.539 21.056 82.111 24.845 116.851 27.859 45.5-6.131 90.434-42.418 116.113-60.303.998-.695 2.753-2.398 3.786-3.058 2.967-1.889 18.232-14.788 23.25-20.75 3.133-3.723 11.114-15.979 11.114-15.979l9.884 14.899-12.498 12.078s-16.545 12.851-21.5 17.75c-15.942 15.763-39.5 46.75-58.75 67.75-11.5 7.5-31.918 35.916-45.418 49.416-3.75 2.75-21.666 15.666-36.582 5.834-39-60.5-109.584-84-109.584-84-1.5-3-29.035-10.643-39.642-12.047-8.404-1.113-35.877-.869-35.877-.869 7.332-10.334 6.685-19.916 6.685-19.916 24.168 9.586 29.488 12.229 30.168 13.086z"/><path id="sd1" fill="#A3A3A3" d="M1428.168 1829.347s15.37-.156 37.96 4.057c39.348 7.342 101.407 26.685 148.1 74.172 17.082 12.916 43.25 2.498 49.25-.752-5.5 8.75-18.584 21.5-22.834 24-11.25 6.25-24.088 4.308-30.338 2.808-9.334-9.068-9.828-16.054-16.828-21.804-6-8.25-38.152-41.698-93.5-63.67-8.469-3.362-16.487-7.896-34.743-11.016-18.257-3.12-38.279-1.459-39.404-1.209-2.252.5 2.337-6.586 2.337-6.586z"/><path fill="none" stroke="#000" stroke-linecap="round" stroke-linejoin="round" stroke-miterlimit="10" stroke-width="6" d="M1502.478 1836.826c29.145 9.082 62.234 24.56 118.854 27.996 48.677-9.205 97.5-46.891 117.896-63.496 26.632-21.686 32.045-40.319 35.625-36.146.75.875 8.623 14.317 8.623 14.317l-35.623 30.953s-44.125 51.875-62.375 72.125c-9.191 10.197-26.125 28.875-41.857 45.789-6.117 6.295-27.518 11.586-34.893 3.961-39-60.5-108.75-83.875-108.75-83.875-33.733-17.77-74.941-12.948-74.941-12.948l6.448-16.853c20.75 6.501 53.502 12.726 70.993 18.177zm-67.054-19.295c.918.33 121.36 14.424 187.703 8.623 53.294-4.658 149.332-61.014 150.465-61.557m-95.034 78c-12.506.383-.054-.787-53.533.545-66.575 1.66-121.65-5.93-122.547-6.316m236.75-35.5c0 2.814-70.682 34.17-108.063 43.494-35.183 8.777-59.521 12.797-59.968 12.642"/></svg>