<svg xmlns="http://www.w3.org/2000/svg" id="图层_2" viewBox="0 0 3000 3000"><path id="cl1" fill="#FFC4DC" d="M1773.639 1765.891c-55.54 22.576-334.35 34.848-336.684 31.52l-11.179 35.052s44.72-4.906 91.502 11.834c25.595 9.157 50.333 20.832 72.332 49.745 0 0 14.423 33.904 21.991 39.605 17.677 13.313 37.343-4.021 64.677-50.688 13.648-19.401 53.666-58.498 60.666-62.498s30.166-20.666 37.833-19.666c11.333-3.334 17.815-3.844 17.815-3.844s-11.62-27.06-18.953-31.06zm-76.925 43.411c-4.063 13.346-12.523 20.086-12.658 20.286-.136.199-21.435-6.604-32.146-22.61-2.44-3.646-2.438-9.914 4.372-11.933 8.068-2.389 12.137 1.298 13.94 2.38 12.823 7.688 7.366-6.199 14.116-7.429 6.474-1.18 16.437 5.957 12.376 19.306z"/><path id="sd1" fill="#FF98BF" d="M1485.315 1812.377s.047 16.584.047 17.916c0 1.334 83.25 11.5 128.416 70.832 20.021 26.302 34.334 11.166 45.084 7.916 1.667 3.334-8.75 12.25-15.25 19.25-3.551 3.822-16.502 16.502-22.168 9.834-15.832-4.334-26.479-39.373-27.479-40.373-16.354-21.959-54.188-47.625-63.854-49.959s-57.794-15.5-102.46-15.5c2.46-14.5 11.96-33 11.96-33s9.379 15.799 17.835 12.502c8.456-3.299 17.932-4.332 19.6-3.666 1.666.668 5.936 1.248 8.269 4.248z"/><path fill="none" stroke="#000" stroke-linecap="round" stroke-linejoin="round" stroke-miterlimit="10" stroke-width="6" d="M1773.113 1764.461c6.16 6.813 19.736 32.976 19.736 32.976s-6.736-.646-20.069 4.358c-7.238 2.715-24.072 10.047-38.417 20.998-6.407 4.892-50.5 44.832-66.5 73.498-27.334 46.666-39.421 42.72-50.925 40.994-9.37-1.401-19.851-33.416-27.325-43.244-54.793-72.047-164.55-60.662-164.55-60.662l15.009-34.768c2.333 3.33 248.594-2.736 333.041-34.15zm-88.774 25.535c-6.75 1.229-1.293 15.117-14.117 7.428-1.806-1.082-5.872-4.768-13.94-2.379-6.81 2.019-6.813 8.287-4.371 11.933 10.713 16.008 32.011 22.811 32.146 22.61.135-.201 8.597-6.94 12.658-20.287 4.06-13.348-5.903-20.485-12.376-19.305z"/></svg>