<svg xmlns="http://www.w3.org/2000/svg" id="图层_2" viewBox="0 0 3000 3000"><path id="hl1" fill="#FFF" d="M1575.392 1851.644c52 1.5 104.196-10.648 143.364-29.98 31.5-19.168 58.067-51.729 58.067-51.729s-.31-.793 3.358 5.717c-8 1-41.196 33.207-45.528 40.207-4.334 7-74.786 97.183-80.264 104.285-7.789 10.104-35.666 23.168-48 12.834-10.666-18.666-39.117-52.783-68.117-70.115-38.666-22.668-106.68-42.751-106.68-42.751l2.271-6.259c13.17 9 92.49 36.375 141.529 37.791z"/><path id="cl1" fill="#F4E987" d="M1776.824 1769.935s-26.568 32.561-58.068 51.729c-39.168 19.332-91.363 31.48-143.363 29.98-49.039-1.416-128.357-28.791-141.523-37.791l-2.271 6.259s68.014 20.083 106.68 42.751c29 17.332 57.451 51.449 68.117 70.115 12.334 10.334 40.211-2.73 48-12.834 5.477-7.104 75.93-97.285 80.264-104.285 4.332-7 37.528-39.207 45.528-40.207-3.672-6.51-3.364-5.717-3.364-5.717zm-207.253 100.049c-2.494 3.845-7.924 4.754-12.126 2.028-4.2-2.726-5.586-8.054-3.091-11.896 2.493-3.848 7.921-4.754 12.122-2.028 4.203 2.725 5.588 8.05 3.095 11.896zm30.068 18.756c-4.201-2.726-5.588-8.053-3.094-11.896 2.494-3.848 7.922-4.754 12.123-2.029 4.202 2.728 5.588 8.053 3.094 11.897-2.493 3.844-7.924 4.754-12.123 2.028zm18.677 38.016c-1.742 2.686-5.532 3.318-8.466 1.417-2.934-1.902-3.9-5.623-2.158-8.308 1.74-2.687 5.53-3.318 8.464-1.417 2.932 1.903 3.901 5.623 2.16 8.308zm18.174-63.569c2.056-3.172 6.527-3.92 9.99-1.674 3.464 2.246 4.604 6.636 2.55 9.805-2.056 3.169-6.529 3.917-9.992 1.672-3.464-2.246-4.604-6.637-2.548-9.803zm15.375 45.613c-1.741 2.686-5.532 3.318-8.466 1.417s-3.9-5.622-2.158-8.308c1.741-2.686 5.53-3.318 8.465-1.417 2.934 1.904 3.901 5.622 2.159 8.308zm27.322-23.99c-1.741 2.686-5.19 3.584-8.125 1.683s-3.899-5.622-2.158-8.308 5.531-3.318 8.465-1.416c2.934 1.903 3.56 5.356 1.818 8.041zm15.162-23.17c-3.06-1.695-4.043-5.886-2.302-8.568 1.74-2.687 6.563-2.432 8.885-.127-2.065 2.551-5.146 7.001-6.583 8.695zm-14.188-20.065c1.497 3.16-.217 6.973-3.194 8.14-2.979 1.169-6.752-1.849-7.297-5.071 3.164-.873 8.272-2.365 10.491-3.069z"/><path id="sd1" fill="#BCB880" d="M1536.98 1856.12c21.994 11.697 39.185 30.098 63.71 48.253 22.029 16.31 62.875 3.375 63.625 1.875s-17.449 22.642-24.75 24.5c-18.938 4.824-24.667 5.755-31.417-.745s-24.905-32.007-30.405-36.007-47.923-43.381-69.923-50.131c-10.25-2.25-66.063-24.507-72.063-25.257s.507-5.137.507-5.137 80.982 32.154 100.716 42.649z"/><path fill="none" stroke="#000" stroke-miterlimit="10" stroke-width="6" d="M1575.392 1851.644c57.25 1.278 98.176-7.466 136.092-26.048 33.111-16.228 65.345-55.661 65.345-55.661s.348.303 3.355 5.717c-8 1-37.868 29.056-47.725 40.207-5.45 6.168-72.983 99.642-82.315 108.053-11.051 9.959-31.416 17.4-43.75 7.066-10.666-18.666-47.116-56.632-76.499-73.308-36.416-20.668-98.3-37.561-98.3-37.561l2.766-6.823c13.166 9.003 92.477 37.272 141.031 38.358h0z"/><g id="l2" fill="none" stroke="#000" stroke-miterlimit="10" stroke-width="6"><path d="M1769.703 1783.648c9.875-21.5 5.875-28.375-3.875-23.5s.75 24.479.75 24.479"/><path d="M1768.547 1783.023c-.844-.75-11.219-25.25-18.969-16s-10.125 17.125 16.125 19.25m-23.875 37.25c29.75-15.125 24.375-36.364 24.375-36.364m14.375 32.614c1-21.5-12.031-32.614-12.031-32.614"/></g><g id="l1" fill="none" stroke="#000" stroke-miterlimit="10" stroke-width="6"><path d="M1438.82 1812.332c9.875-21.5 5.875-28.375-3.875-23.5s.75 24.479.75 24.479"/><path d="M1437.662 1811.707c-.845-.75-11.22-25.25-18.97-16s-10.125 17.125 16.125 19.25m-23.872 37.25c29.75-15.125 24.375-36.364 24.375-36.364m14.375 32.614c1-21.5-12.03-32.614-12.03-32.614"/></g></svg>