<svg xmlns="http://www.w3.org/2000/svg" id="panties" viewBox="0 0 3000 3000"><path id="cl1" fill="#8E8DF2" d="M1660.166 1831.834c87.5-32 111.334-70.668 111.334-70.668s26.5 40 23 40-16 8.834-20.5 8.834-37.166 27-45.166 32.5-33 29.166-52 52.666S1628.5 1943 1610.5 1937c-6.5-8.5-31.834-44.5-70.334-69.5s-115.539-38.646-115.539-38.646l21.539-46.021c19 14.501 122 74.001 214 49.001z"/><path id="sd1" fill="#7675EC" d="M1498.75 1809.75L1490 1837s91.75 30.75 117.5 76.5c14.334 23.644 66.666-16.334 66.666-16.334s-31 39.865-52.332 39.978c-14 .072-37.025-32.565-39.002-34.643-20-21-66.664-57.563-156.895-74.139-4.5 1.5 20.063-46.862 20.063-46.862s43.75 27.25 52.75 28.25z" opacity=".63"/><path id="cl1" fill="#F2AFEF" d="M1484.792 1805.378c-.223 1.42-12.791 34.119-12.791 34.119S1437.5 1833 1440.25 1832s19.25-40.75 19.25-40.75 25.514 12.71 25.292 14.128zm21.077 8.098l-18.358 31.995s35.496 13.351 37.996 13.851 12.268-32.366 12.998-33.338c.73-.973-29.605-9.815-32.636-12.508zm48.631 18.024s-8.984 39.075-9.5 38.5c-.517-.574 41.5 32.5 41.5 32.5s2.531-65.795 3.531-65.795-33.031-3.205-35.531-5.205zm55.223 6.364s32.338 92.332 31.088 93.832 26.347-25.471 26.347-25.471-25.152-68.945-24.152-70.695-33.283 2.334-33.283 2.334zm46.731-4.624s31.275 48.218 29.193 51.354l16.152-17.312s-24.41-41.168-21.41-43.418l-23.935 9.376zm39.248-16.816s23.711 31.715 18.946 38.234l22.198-18.936-20.496-30.109-20.648 10.811zm39.798-21.924s26.338 19.447 20.838 26.947l23.285-13.296s-21.648-31.671-19.398-33.921c0 0-23.182 21.854-24.725 20.27z"/><path fill="none" stroke="#000" stroke-miterlimit="10" stroke-width="6" d="M1660.5 1831.166c87.5-32 110.211-70.866 110.211-70.866l25.455 39.866s-12.823 4.195-21.166 9.834c-11.741 7.938-27.75 16.428-46.834 32.834-19.084 16.407-34.043 32.159-54.209 54.666-26.09 29.12-33.123 44-64.373 38.351-6.5-8.5-28.272-41.017-66.772-66.017s-116.873-41.472-116.873-41.472l19.563-44.196c23.498 14.5 122.998 72 214.998 47h0z"/></svg>