<svg xmlns="http://www.w3.org/2000/svg" id="图层_2" viewBox="0 0 3000 3000"><path id="cl1" fill="#FFF" d="M1785.645 1785.002c-3.668-6.51-8.566-16.209-8.566-16.209s-10.025 12.279-25.054 26.195a18.168 18.168 0 0 0-6.04-1.047c-10.068 0-18.23 8.164-18.23 18.232 0 .846.076 1.67.188 2.482a160.694 160.694 0 0 1-8.932 5.863c-39.168 19.332-91.365 31.479-143.365 29.979-25.575-.736-61.567-3.596-89.937-12.168-.309-9.797-8.326-17.65-18.201-17.65-5.703 0-10.793 2.623-14.137 6.727-10.388-3.959-15.888-12.396-19.25-14.695l-5.81 17.541s9.468 2.191 23.328 6.146c1.188 8.92 8.808 15.806 18.052 15.806 5.307 0 10.067-2.28 13.399-5.897 17.264 6.01 35.583 13.465 50.053 21.947 29 17.332 62.834 44.918 73.5 63.584 12.334 10.334 40.211-2.73 48-12.834 5.478-7.104 35.5-36.5 39.5-40.5 3.041-3.041 30.015-32.521 44.683-49.561a18.154 18.154 0 0 0 7.157 1.464c10.069 0 18.231-8.164 18.231-18.231 0-3.468-.985-6.695-2.666-9.455 8.872-8.499 19.438-17.136 24.097-17.719zm-317.315 65.519c-7.967 0-15.295-7.832-15.295-15.797s3.352-13.771 11.315-13.771 19.129 4.945 19.938 12.869c1.009 9.822-7.993 16.699-15.958 16.699zm277.187-21.32c-7.966 0-17.765-9.063-17.765-17.025s9.572-19.49 17.539-19.49c7.965 0 18.72 9.701 18.72 17.668 0 7.962-10.529 18.847-18.494 18.847z"/><path id="sd1" fill="#C2C2C2" d="M1519.178 1853.396c21.994 11.697 56.213 34.34 80.738 52.496 22.027 16.309 62.875 3.375 63.625 1.875s-17.449 22.641-24.75 24.5c-18.938 4.824-24.15 3.625-30.9-2.875s-24.85-28.5-30.35-32.5-55.5-36.75-77.5-43.5c-10.25-2.25-13.396-2.439-18.009-6.35-3.489-2.959 2.511-8.625 2.511-8.625s14.903 4.483 34.635 14.979z"/><path fill="none" stroke="#000" stroke-linecap="round" stroke-linejoin="round" stroke-miterlimit="10" stroke-width="6" d="M1786.16 1785.767c-3.01-5.414-9.6-16.572-9.6-16.572s-9.612 11.76-23.729 25.078a18.67 18.67 0 0 0-7.541-1.59c-10.354 0-18.75 8.396-18.75 18.752 0 1.393.162 2.746.449 4.053-5.146 3.549-10.447 6.76-15.771 9.369-37.916 18.582-78.842 27.326-136.092 26.047-25.303-.566-61.228-4.082-89.521-12.838 0-.061.008-.119.008-.18 0-10.355-9.688-17.834-20.045-17.834-6.026 0-10.082 1.938-13.512 6.355-9.775-3.846-14.729-11.65-17.964-13.859l-6.301 18.354s9.348 2.316 22.965 6.277c1.729 8.568 9.301 15.021 18.379 15.021 5.001 0 9.533-1.971 12.896-5.162 17.853 6.119 36.702 13.553 50.763 21.529 29.383 16.676 62.668 43 73.334 61.666 12.334 10.334 32.697 2.893 43.75-7.066 9.332-8.41 38.25-39.018 42.25-43.018 3.024-3.027 30.781-33.758 46.479-51.217a18.67 18.67 0 0 0 6.684 1.248c10.354 0 18.752-8.396 18.752-18.75 0-2.857-.658-5.556-1.803-7.979 8.994-8.785 18.809-17.045 23.92-17.684h0z"/></svg>