<svg xmlns="http://www.w3.org/2000/svg" id="图层_3" viewBox="0 0 3000 3000"><path fill="#FFF" d="M1786.299 1784.002c-3.668-6.511-8.566-16.209-8.566-16.209s-10.027 12.279-25.054 26.194a18.18 18.18 0 0 0-6.04-1.046c-10.069 0-18.231 8.163-18.231 18.232 0 .845.077 1.669.188 2.482a161.181 161.181 0 0 1-8.933 5.863c-39.168 19.332-91.364 31.48-143.364 29.98-25.575-.738-61.567-3.597-89.936-12.168-.309-9.798-8.328-17.651-18.202-17.651-5.704 0-10.793 2.623-14.136 6.726-10.388-3.958-15.888-12.397-19.251-14.697l-5.809 17.541s9.468 2.194 23.328 6.147c1.188 8.919 8.808 15.805 18.052 15.805 5.307 0 10.066-2.28 13.398-5.898 17.265 6.01 35.584 13.465 50.054 21.946 29 17.332 62.834 44.918 73.5 63.584 12.334 10.334 40.211-2.729 48-12.834 5.477-7.104 35.5-36.5 39.5-40.5 3.041-3.041 30.015-32.52 44.682-49.559a18.17 18.17 0 0 0 7.158 1.463c10.069 0 18.23-8.163 18.23-18.23 0-3.467-.984-6.695-2.665-9.455 8.871-8.496 19.438-17.134 24.097-17.716zm-317.313 65.519c-7.966 0-15.295-7.832-15.295-15.797 0-7.966 3.351-13.771 11.316-13.771 7.965 0 19.129 4.945 19.938 12.87 1.005 9.82-7.996 16.698-15.959 16.698zm277.185-21.32c-7.966 0-17.765-9.063-17.765-17.026 0-7.966 9.573-19.49 17.539-19.49 7.965 0 18.719 9.701 18.719 17.667 0 7.963-10.528 18.849-18.493 18.849z"/><path id="hl1" fill="#9CF5FF" d="M1485.832 1841.07s63.491 27.159 127.453 22.159c85.146-6.652 118.36-43.545 118.36-43.545l-3.051-6.027c-27.521 26.658-59.3 36.74-123.41 41.424-58.857 4.3-118.821-17.747-118.821-17.747l-.531 3.736zm-2.598.08s-1.305.922-1.99 2.766c58.916 30.286 89.415 38.62 130.581 38.62 81.846 0 126.071-57.062 126.071-57.062l-4.719-3.941s-8.035 9.771-40.02 29.67c-30 18.668-54.001 21.333-80.667 21.333-17.662 0-55.001-2.875-95.667-18.166-30.328-8.795-33.589-13.22-33.589-13.22zm89.672 54.033s20.585 5.018 46.918 4.686c26.333-.334 73.334-19 73.334-19l10.949-13.381s-56.283 20.517-85.616 23.047c-31.394 2.715-64.313-9.971-64.313-9.971l18.728 14.619zm19.258 18.324s6.488 1.286 29.488 1.952 42.521-4.155 42.521-4.155l9.146-10.498s-30.332 5.987-47.998 6.987-41.334-4.002-41.334-4.002l8.177 9.716zm11.66 13.362l44.667-1 6.808-7.867c-4.618 3.979-55.936 2.729-55.936 2.729l4.461 6.138z" opacity=".6"/><path id="sd1" fill="#C2C2C2" d="M1519.832 1852.395c21.993 11.697 56.213 34.34 80.737 52.496 22.029 16.309 62.875 3.375 63.625 1.875s-17.448 22.641-24.75 24.5c-18.936 4.824-24.149 3.625-30.899-2.875s-24.851-28.5-30.351-32.5-55.5-36.75-77.5-43.5c-10.25-2.25-13.395-2.438-18.007-6.349-3.49-2.959 2.51-8.627 2.51-8.627s14.903 4.484 34.635 14.98z" opacity=".5"/><path fill="none" stroke="#000" stroke-linecap="round" stroke-linejoin="round" stroke-miterlimit="10" stroke-width="6" d="M1786.817 1784.766c-3.01-5.414-9.6-16.572-9.6-16.572s-9.612 11.76-23.73 25.079a18.645 18.645 0 0 0-7.54-1.59c-10.354 0-18.751 8.396-18.751 18.751 0 1.393.163 2.746.451 4.053-5.147 3.549-10.449 6.76-15.772 9.369-37.916 18.582-78.843 27.326-136.093 26.047-25.301-.565-61.226-4.081-89.519-12.838 0-.062.008-.119.008-.18 0-10.355-9.688-17.833-20.045-17.833-6.027 0-10.082 1.938-13.512 6.356-9.775-3.847-14.73-11.651-17.964-13.862l-6.302 18.355s9.349 2.317 22.966 6.278c1.729 8.568 9.301 15.021 18.379 15.021 5.001 0 9.532-1.971 12.896-5.161 17.851 6.118 36.702 13.551 50.761 21.528 29.384 16.676 62.668 43 73.334 61.666 12.334 10.334 32.699 2.893 43.75-7.066 9.332-8.412 38.25-39.018 42.25-43.018 3.026-3.026 30.783-33.758 46.48-51.216a18.672 18.672 0 0 0 6.683 1.248c10.355 0 18.751-8.396 18.751-18.751 0-2.857-.658-5.556-1.801-7.979 8.991-8.785 18.805-17.046 23.92-17.685z"/></svg>