<svg xmlns="http://www.w3.org/2000/svg" id="图层_3" viewBox="0 0 3000 3000"><path id="cl1" fill="#8E8DF2" d="M1660.167 1831.834c87.5-32 111.333-70.668 111.333-70.668s26.5 40 23 40-11.75 4.334-20.5 8.834c-4.002 2.058-37.166 27-45.166 32.5s-33 29.166-52 52.666S1628.5 1943 1610.5 1937c-6.5-8.5-31.833-44.5-70.333-69.5s-115.54-28.667-115.54-28.667l16.094-44.364c19 14.5 127.446 62.365 219.446 37.365z"/><path id="sd1" fill="#7675EC" d="M1487.24 1816.029l-.407 17.805s82.407 34.054 116.858 73.666c14.426 16.588 62.365-.786 62.365-.786s-22.892 30.317-44.225 30.43c-14 .072-37.025-32.563-39.001-34.642-20-21-52.581-53.835-158.204-63.669-4.5 1.5 15.343-43.346 15.343-43.346s38.271 19.542 47.271 20.542z"/><path id="sd2" fill="#535391" d="M1685.5 1843.578s4.147-16.014 15.5-9.75c7.25 4 4.25 12.545-5.5 17.5-6.615 3.362-8.819 2.876-16.598 9.042 0 0 1.826-4.903-3.324-9.704s-5.578-10.838-1.578-13.838c3.231-2.423 11.5-.5 11.5 6.75z"/><path fill="none" stroke="#000" stroke-miterlimit="10" stroke-width="6" d="M1660.5 1831.166c87.5-32 112.509-67.267 112.509-67.267l23.158 36.267s-12.824 4.195-21.167 9.834c-11.741 7.938-27.749 16.428-46.833 32.834-19.084 16.407-34.043 32.159-54.209 54.666-26.091 29.12-33.124 44-64.374 38.351-6.5-8.5-28.272-41.017-66.772-66.017s-118.185-31.001-118.185-31.001l16.094-44.364c23.498 14.5 127.779 61.697 219.779 36.697z"/></svg>