<svg xmlns="http://www.w3.org/2000/svg" id="panties" viewBox="0 0 3000 3000"><path id="cl1" fill="#49499A" d="M1653.25 1836.5c16.75-2 56.561-12.569 123.311-67.569 6.5 8.5 42.989 55.354 59.988 101.569-15 4-194 93.5-195.5 91.5s-7-13.5-7-13.5l-8.5 4 .12 16.5c-12.5-6.5-211.62 27.5-211.62 27.5C1398 1858 1437.5 1810 1437.5 1810c18.5 11.334 136.501 39.334 215.75 26.5z"/><path id="sd1" fill="#222673" d="M1545.5 1837l-85.498-1.332s-28 77-21.667 94.332c6.333 17.334 53 16.334 54.333 16.334l114.333.012-33.504-36.347 51.838 26.001 17.333-9 27.333-49.332-15.332 45.666s167.302-59.647 180.302-56.981c-7.667 9.334-182.563 88.087-188.302 91.981-5.5 7.916-12.667-10-12.667-10l-8.333 3.166v17.5s-186.431 22.438-210.75 25.25c-5.059-19.61-9.242-51.192-2.253-104.293 6.036-45.854 15.222-74.097 23.099-77.187C1463 1821.5 1545.5 1837 1545.5 1837z"/><path fill="#FFF" d="M1424.627 1840.896s125.016 37.29 209.373 21.604c85.179-15.839 126.5-39.5 159-74.5 3-1.5-16.439-19.069-16.439-19.069s-65.824 67.874-149.025 70.304c-83.201 2.432-152.202-13.234-188.202-27.9-5.001 1.331-14.707 29.561-14.707 29.561z"/><path fill="none" stroke="#000" stroke-miterlimit="10" stroke-width="6" d="M1653.25 1836.5c16.75-2 56.561-12.569 123.311-67.569 6.5 8.5 42.989 55.354 59.988 101.569-15 4-194 93.5-195.5 91.5s-7-13.5-7-13.5l-8.5 4v17.5c-2.465 1-211.5 26.5-211.5 26.5C1397 1867.5 1437.5 1810 1437.5 1810c18.5 11.334 136.501 39.334 215.75 26.5z"/></svg>