<svg xmlns="http://www.w3.org/2000/svg" id="panties" viewBox="0 0 3000 3000"><path id="cl1" fill="#49499A" d="M1653.25 1836.5c16.75-2 56.562-12.568 123.312-67.568 6.5 8.5 38.688 78.568 65.995 126.262-15 4-200.008 68.807-201.508 66.807s-7-13.5-7-13.5l-8.5 4 .12 16.5c-18.35 3.532-211.62 27.5-211.62 27.5C1398 1858 1437.5 1810 1437.5 1810c18.5 11.334 136.501 39.334 215.75 26.5z"/><path id="sd1" fill="#222673" d="M1545.5 1837l-85.498-1.332s-28 77-21.667 94.332c6.333 17.334 53 16.334 54.333 16.334l114.333.013-33.504-36.348 48.253 32.251 16.25-2.5 32.001-62.082L1652 1935.75s175.624-53.325 190.557-42.679c-7.667 9.334-190.148 61.369-195.888 65.263-5.5 7.916-12.667-10-12.667-10l-8.333 3.166v17.5s-186.431 22.438-210.75 25.25c-5.059-19.609-9.242-51.191-2.253-104.293 6.036-45.854 15.222-74.097 23.099-77.187C1463 1821.5 1545.5 1837 1545.5 1837z"/><path fill="#2B2C33" d="M1424.627 1840.896s125.016 37.29 209.373 21.604c85.179-15.839 118.5-44.858 154.553-69.842 3-1.5-11.991-23.727-11.991-23.727s-65.824 67.874-149.025 70.304c-83.201 2.433-152.202-13.233-188.202-27.899-5.002 1.33-14.708 29.56-14.708 29.56z"/><path fill="none" stroke="#000" stroke-miterlimit="10" stroke-width="6" d="M1653.25 1836.5c16.75-2 56.562-12.568 123.312-67.568 4.918 6.431 27.254 52.044 48.271 94.901 4.694 9.572 10.138 18.883 19.001 31-15 4-202.785 67.167-202.785 67.167l-7-13.5-8.5 4v17.5c-2.465 1-211.5 26.5-211.5 26.5C1397 1867.5 1437.5 1810 1437.5 1810c18.5 11.334 136.501 39.334 215.75 26.5z"/></svg>