<svg xmlns="http://www.w3.org/2000/svg" id="图层_3" viewBox="0 0 3000 3000"><path fill="#E52E2E" d="M1575.392 1851.644c52 1.5 104.197-10.648 143.365-29.98 31.5-19.168 58.066-51.729 58.066-51.729s-.31-.793 3.358 5.717c-8 1-41.196 33.207-45.528 40.207-4.334 7-74.787 97.183-80.264 104.285-7.789 10.104-35.666 23.168-48 12.834-10.666-18.666-39.117-52.783-68.117-70.115-38.666-22.668-106.68-42.751-106.68-42.751l2.271-6.259c13.17 9 92.49 36.375 141.529 37.791z"/><path fill="#962C2C" d="M1536.98 1856.12c21.994 11.697 39.185 30.098 63.71 48.253 22.029 16.31 62.875 3.375 63.625 1.875s-17.449 22.642-24.75 24.5c-18.938 4.824-24.667 5.755-31.417-.745s-24.905-32.007-30.405-36.007-47.923-43.381-69.923-50.131c-10.25-2.25-66.063-24.507-72.063-25.257s.507-5.137.507-5.137 80.981 32.154 100.716 42.649z"/><path fill="none" stroke="#000" stroke-miterlimit="10" stroke-width="6" d="M1575.392 1851.644c57.25 1.278 98.176-7.466 136.092-26.048 33.111-16.228 65.344-55.661 65.344-55.661s.349.303 3.356 5.717c-8 1-37.868 29.056-47.725 40.207-5.45 6.168-72.983 99.642-82.315 108.053-11.051 9.959-31.416 17.4-43.75 7.066-10.666-18.666-47.116-56.632-76.499-73.308-36.416-20.668-98.3-37.561-98.3-37.561l2.766-6.823c13.166 9.002 92.478 37.272 141.031 38.358z"/><g id="l2_7_" fill="none" stroke="#000" stroke-miterlimit="10" stroke-width="6"><path d="M1769.703 1783.648c9.875-21.5 5.875-28.375-3.875-23.5s.75 24.479.75 24.479"/><path d="M1768.548 1783.023c-.845-.75-11.22-25.25-18.97-16s-10.125 17.125 16.125 19.25m-23.875 37.25c29.75-15.125 24.375-36.364 24.375-36.364m14.375 32.614c1-21.5-12.03-32.614-12.03-32.614"/></g><g id="l1_14_" fill="none" stroke="#000" stroke-miterlimit="10" stroke-width="6"><path d="M1438.82 1812.332c9.875-21.5 5.875-28.375-3.875-23.5s.75 24.479.75 24.479"/><path d="M1437.661 1811.707c-.844-.75-11.219-25.25-18.969-16s-10.125 17.125 16.125 19.25m-23.872 37.25c29.75-15.125 24.375-36.364 24.375-36.364m14.375 32.614c1-21.5-12.031-32.614-12.031-32.614"/></g><path id="cl1" fill="#FCC670" fill-rule="evenodd" d="M1635.145 1862.51c2.566-5.984 13.947-4.688 16.379.424 2.91 6.106-7.254 15.116-10.764 14.339-2.445-.543-7.667-9.981-5.615-14.763zm5.126 19.696c-.29 6.458 18.319 13.729 18.547-1.871.172-11.856-18.38-1.875-18.547 1.871zm-6.991-6.482c4.9-2.05-10.282-23.73-15.604-9.403-2 5.389 7.629 12.295 15.604 9.403zm8.082 12.538c-1.924-1.584-6.661-4.615-8.063-3.679-3.538 2.37-3.674 10.973-2.28 13.194 2.239 3.567 9.144 4.358 11.873 2.243 4.994-3.879 3.203-7.85-1.53-11.758zm-10.829-7.43c-2.069-3.331-14.467-2.851-16.401 1.692-2.864 6.728 7.271 15.386 11.457 11.961 1.594-1.297 5.609-12.599 4.944-13.653zm6.61-2.436c-4.591-6.206-6.258 8.478-.375 3.581 1.343-1.109 1.176-2.503.375-3.581z"/></svg>