<svg xmlns="http://www.w3.org/2000/svg" id="图层_3" viewBox="0 0 3000 3000"><path fill="#E52E2E" d="M1575.392 1851.644c52 1.5 104.197-10.648 143.365-29.98 31.5-19.168 58.066-51.729 58.066-51.729s-.31-.793 3.358 5.717c-8 1-41.196 33.207-45.528 40.207-4.334 7-74.787 97.183-80.264 104.285-7.789 10.104-35.666 23.168-48 12.834-10.666-18.666-39.117-52.783-68.117-70.115-38.666-22.668-106.68-42.751-106.68-42.751l2.271-6.259c13.17 9 92.49 36.375 141.529 37.791z"/><path fill="#962C2C" d="M1536.98 1856.12c21.994 11.697 39.185 30.098 63.71 48.253 22.029 16.31 62.875 3.375 63.625 1.875s-17.449 22.642-24.75 24.5c-18.938 4.824-24.667 5.755-31.417-.745s-24.905-32.007-30.405-36.007-47.923-43.381-69.923-50.131c-10.25-2.25-66.063-24.507-72.063-25.257s.507-5.137.507-5.137 80.981 32.154 100.716 42.649z"/><path fill="none" stroke="#000" stroke-miterlimit="10" stroke-width="6" d="M1575.392 1851.644c57.25 1.278 98.176-7.466 136.092-26.048 33.111-16.228 65.344-55.661 65.344-55.661s.349.303 3.356 5.717c-8 1-37.868 29.056-47.725 40.207-5.45 6.168-72.983 99.642-82.315 108.053-11.051 9.959-31.416 17.4-43.75 7.066-10.666-18.666-47.116-56.632-76.499-73.308-36.416-20.668-98.3-37.561-98.3-37.561l2.766-6.823c13.166 9.002 92.478 37.272 141.031 38.358z"/><path fill="#FFF" stroke="#000" stroke-miterlimit="10" stroke-width="4" d="M1505.713 1834.453c3.509-4.135 12-3.225 17 0s12.75 4.975 15.25 5.475 17 0 18 0 8 5.25 11.25 6.25 6.895.25 14.197-1.75 9.553-.617 14.553 2.191 7.5-3.191 12.5-2.941 13.75 3 19 2.5 6-5.127 11-6.438 10 2.688 15.25 1.938 13.25-6.949 19.5-7.225 4.945 1.775 11.723 0 7.527-3.525 14.027-7.775 7-2.953 11.25-2.727 5-4.273 11.25-2.023-2.5 9.801-6.5 12.525-12.5 10.975-17.5 10.475-16.75-.336-21.75 3.957-19.5 5.207-22 3.75-13 .043-20.25 4.543-18.25 6.25-23.5 4-15-2.5-18.25-1.25-16.25 1.75-24.25-1.5-12.383-10-18.941-7.25-11.793 1.164-18.426-2.293-9.238-2.272-14.302-3.811-15.831-3.846-10.081-10.621z"/><path id="cl1" fill="#E52E2E" d="M1719.99 1768.161c3.18-5.479 21.494-2.611 27.095-1.259 5.6 1.352 14.526 3.37 14.526 3.37s-1.124-6.586 2.021-8.276c3.144-1.693 12.21 5.219 12.21 5.219s2.979-17.954 6.107-23.506 11.752-10.823 20.091 2.558c8.339 13.382 13.635 23.797 11.563 28.065-2.07 4.27-16.396 8.52-16.396 8.52s8.884 9.491 19.73 13.993c6.139 2.548 22.977 8.317 24.554 10.123 1.576 1.805-6.093 6.095-6.64 11.308-.547 5.212 1.507 16.534-.882 17.301-2.388.769-48.081-46.065-48.081-46.065l-4.405 2.327 24.69 51.245s2.868 5 1.585 5.806c-1.281.806-10.603-8.755-15.059-7.089-4.455 1.665-7.347 7.089-8.493 7.583s-2.702-1.819-2.702-1.819l-11.033-49.946s-4.702 7.839-8.459 11.061c-3.758 3.223-11.019 8.962-14.378 5.537-3.359-3.426-18.782-23.796-22.272-28.918-3.489-5.125-7.809-12.944-5.372-17.138zm-232.218 39.134c-2.512-5.412-19.456-2.65-24.672-1.337-5.215 1.312-13.519 3.269-13.519 3.269s1.502-6.486-1.25-8.163c-2.752-1.68-11.535 5.1-11.535 5.1s-1.428-17.704-3.888-23.187c-2.46-5.481-9.961-10.707-18.546 2.449-8.585 13.158-14.176 23.403-12.59 27.617 1.584 4.216 14.37 8.455 14.37 8.455s-8.804 9.321-19.041 13.72c-5.794 2.488-21.598 8.114-23.169 9.889-1.571 1.773 5.128 6.027 5.253 11.167.123 5.139-2.569 16.289-.441 17.054 2.127.765 47.263-45.228 47.263-45.228l3.857 2.31-26.259 50.414s-2.981 4.917-1.866 5.715c1.112.8 10.321-8.59 14.273-6.932 3.951 1.656 6.203 7.012 7.216 7.502 1.012.492 2.6-1.782 2.6-1.782l13.685-49.183s3.731 7.742 6.934 10.931c3.202 3.189 9.424 8.87 12.741 5.508 3.316-3.364 18.88-23.385 22.439-28.42 3.557-5.037 8.07-12.727 6.145-16.868z"/><path fill="#8AA32E" d="M1719.227 1770.214c-.916-7.092 28.733-7.15 41.028.273l5.292 5.229s-29.101-1.59-42.804 5.392c0 0-3.152-8.075-3.516-10.894zm29.466 45.303c3.433.942 9.76-4.542 19.356-14.158 9.597-9.617 2.178-18.019 2.178-18.019.171 4.419-28.105 24.935-28.105 24.935s3.138 6.301 6.571 7.242zm30.234-46.669c.043-2.927 21.247-24.979 20.07-26.328s-4.505-6.486-12.413-3.522c-7.906 2.964-11.305 26.733-11.305 26.733s3.603 6.042 3.648 3.117zm4.872 7.476l3.079 5.837s16.727 1.293 20.923-2.344 8.432-.994 3.178-16.988c0 0-14.522 12.748-27.18 13.495zm4.098 67.272s-14.215-44.242-14.605-50.364c0 0-3.391 1.808-2.327 6.618 1.063 4.813 10.757 48.649 10.757 48.649l2.485.883 3.69-5.786zm11.09-1.463s7.041 7.424 7.906 7.089c.865-.333-.115-4.997-.115-4.997l-25.295-52.387-4.588-1.154 22.092 51.449zm-13.099-52.623s45.245 46.316 46.582 46.633c1.339.319 2.478-2.286 2.478-2.286l-.719-4.144-46.602-43.278-1.739 3.075zm6.186-4.574s24.427 21.407 34.685 25.047c10.256 3.638 9.767 4.307 9.767 4.307s4.92-4.636 4.943-5.979c.021-1.344-1.492-2.49-1.492-2.49s-35.274-14.137-39.731-18.803c-4.457-4.666-3.238-4.44-8.172-2.082zm-303.753 24.383c1.349-6.985-25.745-7.147-37.517.124l-5.213 5.136s26.71-1.464 38.73 5.465c.001 0 3.465-7.948 4-10.725zm-30.194 44.542c-3.205.917-8.592-4.511-16.67-14.021s-.692-17.765-.692-17.765c-.474 4.354 23.89 24.673 23.89 24.673s-3.323 6.197-6.528 7.113zm-24.269-46.099c.172-2.884-17.618-24.692-16.445-26.018s4.585-6.376 11.599-3.427c7.012 2.949 8.405 26.385 8.405 26.385s-3.729 5.942-3.559 3.06zm-4.991 7.35l-3.235 5.742s-15.379 1.214-18.952-2.385c-3.574-3.599-7.635-1.01-1.68-16.753 0 .001 12.352 12.616 23.867 13.396zm-8.594 66.282s16.18-43.551 16.979-49.582c0 0 2.968 1.793 1.649 6.53-1.318 4.739-13.337 47.906-13.337 47.906l-2.335.859-2.956-5.713zm-10.03-1.482s-6.97 7.292-7.736 6.958c-.767-.332.466-4.924.466-4.924l26.893-51.537 4.276-1.121-23.899 50.624zm15.765-51.813s-44.689 45.483-45.935 45.791c-1.246.311-2.099-2.262-2.099-2.262l.955-4.081 45.71-42.484 1.369 3.036zm-5.326-4.529s-23.866 21.01-33.504 24.561c-9.635 3.548-9.237 4.209-9.237 4.209s-4.162-4.585-4.086-5.908c.078-1.325 1.544-2.45 1.544-2.45s33.257-13.806 37.666-18.389 3.279-4.365 7.617-2.023z"/><path fill="none" stroke="#000" stroke-miterlimit="10" stroke-width="4" d="M1761.406 1766.82c1.286-9.486 9.308-4.873 13.18-.827 3.871 4.048 16.324 18.483 11.1 23.026-5.226 4.54-12.592 1.07-17.572-8.808-4.983-9.881-7.441-7.989-6.708-13.391zm8.718 31.458l11.829 51.229s1.897 1.339 2.798-1.059c.899-2.4 6.953-7.896 11.1-6.903 4.146.992 9.054 7.143 11.907 7.343 2.854.201-26.715-57.915-26.715-57.915s-8.787-2.956-10.919 7.305zm15.764-8.768s40.372 43.404 46.325 45.954c5.953 2.551-.825-13.781 3.869-19.724 4.694-5.941 7.308-5.329 5.408-8.773-1.9-3.446-38.627-11.339-44.284-24.116 0 0-10.921-.141-11.318 6.659zm-25.225-18.885s-28.405-9.803-39.299-3.698c-10.893 6.104 21.697 43.677 27.116 48.03 5.419 4.354 26.677-19.282 23.775-26.939-3.611-9.532-8.217-11.625-11.592-17.393zm26.215 11.536c2.158 3.065 28.472-.211 26.88-10.179-1.592-9.969-14.629-37.063-24.944-34.438-10.316 2.624-13.534 28.188-13.534 28.188 6.96 4.526 9.021 12.768 11.598 16.429zm-336.861 23.665c-.491-9.354-8.155-4.836-11.985-.861-3.829 3.975-16.251 18.156-11.804 22.651 4.448 4.493 11.431 1.1 16.694-8.616 5.265-9.722 7.376-7.848 7.095-13.174zm-10.235 30.971l-14.503 50.444s-1.831 1.312-2.481-1.054c-.648-2.369-5.785-7.807-9.646-6.843-3.86.963-8.789 7.007-11.411 7.193-2.623.188 28.59-56.979 28.59-56.979s8.242-2.881 9.451 7.239zm-13.774-8.698s-40.026 42.632-45.65 45.123c-5.624 2.493 1.747-13.578-2.114-19.45-3.862-5.872-6.294-5.278-4.31-8.666 1.986-3.39 36.119-11.037 42.21-23.608-.001 0 9.99-.101 9.864 6.601zm24.414-18.521s26.666-9.56 36.183-3.506c9.516 6.055-22.978 42.967-28.244 47.238s-22.99-19.098-19.787-26.634c3.987-9.379 8.348-11.425 11.848-17.098zm-24.79 11.276c-2.193 3.013-26.006-.31-23.833-10.127 2.174-9.818 16.042-36.475 25.28-33.851 9.239 2.623 10.338 27.826 10.338 27.826-6.689 4.437-9.166 12.553-11.785 16.152z"/></svg>