<svg xmlns="http://www.w3.org/2000/svg" id="panties" viewBox="0 0 3000 3000"><path id="cl1" fill="#EBF229" d="M1781 2048.5s-1.572 38.543-.434 51.323c.592 6.634 4.934 26.177 4.934 26.177-15 1.5-78.5 37-89 43s-81.5 57.5-84 65c-22.5 38-77 31.5-84 31s-45.5-4.5-78.5-42.5c-123-93-205.5-103-205.5-103l-7-90.5 543.5 19.5z"/><path fill="#FFF" d="M1237.5 2029l543.5 19.5v18.5l-542.03-19-1.47-19zm477 127c21-12.5 71-30 71-30l-2.621-12.476c-37.121 6.024-138.379 69.476-156.379 86.976s-14 33.5-14 33.5c17-28 81-65.5 102-78zm-470-36.5s76 10 205.5 103c0 0-5.5-14-16-26.5s-90.5-74-189.5-90.5v14z"/><path id="sd1" fill="#C6CD23" d="M1330.5 2053.5c-6.926 5.834-22.438 34.917-24.548 43.724-3.048 12.724 9.222 45.885 9.222 45.885L1244.5 2119.5l-7-90.5 147.549 5.294c.001 0-42.579 9.123-54.549 19.206zm154.832 196.713c-16.5-15-35.332-87.713-41.832-106.213-8 12 8.332 81.213 8.332 81.213s50 40 33.5 25zM1604 2184.5s-.968 60.741-5.968 64.741 15.5-13 15.5-13-.032-46.241-7.032-51.741-2.5 0-2.5 0z" opacity=".4"/><path fill="none" stroke="#000" stroke-miterlimit="10" stroke-width="6" d="M1781 2048.5s-1.572 38.543-.434 51.323c.592 6.634 4.934 26.177 4.934 26.177-15 1.5-78.5 37-89 43s-81.5 57.5-84 65c-22.5 38-77 31.5-84 31s-45.5-4.5-78.5-42.5c-123-93-205.5-103-205.5-103l-7-90.5 543.5 19.5z"/></svg>