<svg xmlns="http://www.w3.org/2000/svg" id="panties" viewBox="0 0 3000 3000"><path id="cl1" fill="#EBF229" d="M1781 2048.5s-1.572 38.543-.435 51.323c.592 6.634 4.935 26.177 4.935 26.177-15 1.5-78.5 37-89 43s-81.5 57.5-84 65c-22.5 38-77 31.5-84 31s-45.5-4.5-78.5-42.5c-123-93-205.5-103-205.5-103l-7-90.5 543.5 19.5z"/><path id="sd1" fill="#C6CD23" d="M1330.5 2053.5c-6.927 5.834-22.438 34.918-24.549 43.725-3.048 12.725 9.223 45.885 9.223 45.885l-70.674-23.61-7-90.5 147.549 5.295c.001 0-42.579 9.123-54.549 19.205zm154.832 196.713c-16.5-15-35.332-87.713-41.832-106.213-8 12 8.332 81.213 8.332 81.213s50 40 33.5 25zM1604 2184.5s-.969 60.741-5.969 64.741 15.5-13 15.5-13-.031-46.241-7.031-51.741-2.5 0-2.5 0z" opacity=".4"/><path id="cl2" fill="#FFF" d="M1273.655 2126.499S1281.5 2069.5 1367.5 2063s413.017 0 413.017 0l-.245 10.524s-261.771 10.976-316.771 27.976c-49.58 15.324-73.143 19.824-97.071 65.912-.001 0-52.62-33.914-92.775-40.913z"/><path fill="none" stroke="#000" stroke-miterlimit="10" stroke-width="6" d="M1781 2048.5s-1.572 38.543-.435 51.323c.592 6.634 4.935 26.177 4.935 26.177-15 1.5-78.5 37-89 43s-81.5 57.5-84 65c-22.5 38-77 31.5-84 31s-45.5-4.5-78.5-42.5c-123-93-205.5-103-205.5-103l-7-90.5 543.5 19.5z"/></svg>