<svg xmlns="http://www.w3.org/2000/svg" id="panties" viewBox="0 0 3000 3000"><path id="cl1" fill="#3E3E3E" d="M1783.334 2043.334c-3.334 7.916-8.222 23.618-2.334 46.916 13.722 54.294 58.5 153.751 58.5 153.751-8.666 12-192.082 102.653-222.75 102.999-6-2.321-33.832-70.916-38.5-70.25-4.666.668-67.502-7.898-88.75-1.5-4.87 1.467-54.654 59.241-70 71.25-29.332 6.666-234.166-75.832-237.5-93.832 9.332-15.334 48.666-144 52.666-160s4.668-66.666 4.668-66.666c91.998 7.332 498 20 544 17.332z"/><path id="cl2" fill="#080808" d="M1234.388 2078.402s238.708 29.394 547.375 20.06c-2.019-7.908-.429-56.128-.429-56.128s-508.668-7.666-542.946-16.599l-4 52.667z"/><path id="sd1" fill="#343434" d="M1324.268 2029.851s-46.768 118.155-48.768 142.314-3.5 59.167 45.166 93.167c48.668 34 89.334 66.001 124.668 26.667l26.5-29.5-23-98 51.167 88.09 78.834 5.933 53-89.689-22.667 96.333s18.324 46.79 32.833 48.167c12.166 1.154 176.501-57.666 176.501-57.666s-124.36 67.464-200.334 91.333c-12.167-3.167-39.667-70.667-39.667-70.667l-88.333-3s-58.166 57.334-67 71.167c-5.287 8.279-140.501-19.498-243.167-92.832 8.5-19.502 38.313-104.345 53.673-165.141 2.504-27.73 5.507-61.525 5.507-61.525l85.087 4.849z" opacity=".5"/><path fill="none" stroke="#000" stroke-miterlimit="10" stroke-width="6" d="M1781.334 2042.334c0 3.646-4.58 28.22 1.416 51.916 13.742 54.312 56.75 149.751 56.75 149.751-8.666 12-192.665 102.486-223.333 102.832-6-2.321-33.333-67.999-37.667-69.833-4.341-1.837-82-7.166-89.25-1.5-2.679 2.094-55.083 54.332-68.25 70.5-29.332 6.666-237.666-76.332-241-94.332 9.332-15.334 48.666-144 52.666-160s4.668-66.666 4.668-66.666c91.998 7.332 498 20 544 17.332z"/></svg>