<svg xmlns="http://www.w3.org/2000/svg" id="panties" viewBox="0 0 3000 3000"><path id="cl1" fill="#C1E3D8" d="M1783.334 2043.334c-3.334 7.916-8.225 23.618-2.334 46.916 13.722 54.295 58.5 153.752 58.5 153.752-8.666 12-192.082 102.652-222.75 102.998-6-2.318-33.832-70.916-38.5-70.25-4.666.668-67.502-7.896-88.75-1.5-4.87 1.47-54.654 59.241-70 71.25-29.332 6.666-234.166-75.832-237.5-93.832 9.332-15.334 48.666-144 52.666-160s4.668-66.666 4.668-66.666c91.998 7.332 498 20 544 17.332z"/><path id="sd1" fill="#15AB80" d="M1324.268 2029.851s-46.768 118.154-48.768 142.314c-2 24.156-3.5 59.166 45.166 93.166 48.668 34 89.334 66.002 124.668 26.668l26.5-29.5-23-98 51.166 88.09 78.834 5.933 53-89.688-22.666 96.333s18.321 46.79 32.832 48.167c12.166 1.153 176.502-57.666 176.502-57.666s-124.36 67.464-200.334 91.333c-12.168-3.167-39.668-70.667-39.668-70.667l-88.332-3s-58.166 57.334-67 71.167c-5.287 8.277-140.502-19.498-243.168-92.832 8.5-19.502 38.313-104.346 53.674-165.144 2.504-27.729 5.507-61.522 5.507-61.522l85.087 4.848z" opacity=".5"/><path id="cl2" fill="#28292B" d="M1236.166 2054.975s235.914 26.879 544.582 17.545c-2.021-7.908.586-30.187.586-30.187s-508.668-7.666-542.946-16.601l-2.222 29.243zm486.401 230.275c40.666-17.382 109.146-58.981 109.146-58.981s8.123 13.565 7.787 17.735c-.334 4.169-78.332 44.498-105.666 58.165-27.332 13.667-114.102 44.336-114.102 44.336l-4.843-.722-9.27-15.849c17.152-5.916 76.282-27.3 116.948-44.684zM1180 2252.502c-.5-4 12.166-27 12.166-27 9.668 11 53 38 103.668 60.666 50.666 22.666 136.332 45.666 136.332 45.666L1421 2346s-7.5.834-16.866-.301-65.06-19.646-109.652-36.148S1180 2253.502 1180 2253.502"/><path fill="none" stroke="#000" stroke-miterlimit="10" stroke-width="6" d="M1781.334 2042.334c0 3.646-4.58 28.223 1.416 51.916 13.739 54.313 56.75 149.752 56.75 149.752-8.666 12-192.666 102.485-223.334 102.832-6-2.319-33.332-68-37.666-69.834-4.344-1.836-82-7.166-89.25-1.5-2.682 2.097-55.084 54.332-68.25 70.5-29.332 6.666-237.666-76.332-241-94.332 9.332-15.334 48.666-144 52.666-160s4.668-66.666 4.668-66.666c91.998 7.332 498 20 544 17.332z"/></svg>