<svg xmlns="http://www.w3.org/2000/svg" id="panties" viewBox="0 0 3000 3000"><path id="cl1" fill="#7BAA25" d="M1782.424 2052.084s.197 59.778 7.531 68.446c33.211 74.972 68.71 204.138 66.044 203.47-2.668-.666-190.833 70.5-190.833 67.834s-74.275-120.854-83.331-130.317c-13.043-13.634-87.141-5.017-87.141-5.017L1369.332 2394s-184.666-52-192.899-66.666c.649-11.993 11.269-47.811 23.877-91.114 17.255-59.27 39.856-124.386 39.856-124.386l3.334-68.846 538.924 9.096z"/><path id="cl2" fill="#3B7105" d="M1313.689 2041.574c0 7.333-13.688 102.857-15.688 108.191s-63.5 200.833-63.5 200.833c-3.737 0-24.313-1.399-24.313-8.007 0-8.771 65.146-196.16 67.146-202.826s-.029-96.777-.029-96.777l36.384-1.414zm40 2.667s-10.356 87.523-18.356 104.19-73.354 206.506-74.346 209.173c-.99 2.667 30.344 14 30.344 14s74.671-216.507 74.671-223.173 24.354-104.19 24.354-104.19h-36.667zm70 3.333s-11.022 96.858-15.688 108.191c-4.668 11.333-84.675 215.229-82.156 221.895 2.518 6.666 26.518 8 26.518 8s80.309-219.229 80.975-223.229 10.354-108.857 9.688-114.857c-.671-6-19.337 0-19.337 0zm49.477-1.74s-1.87 180.082-20.537 257.416c4.417-2.916 36.751-40.822 36.751-40.822s9.046-50.79 18.38-214.79l-34.594-1.804zm53.375 2s17.368 175.129 18.036 208.463c10.589.537 17.923 2.227 17.923 2.227l19.336 2.993s-2.335-21.091-8.002-46.759c-5.667-25.666-12.834-84.324-12.834-90.991s.533-68.399-3.06-75.397c-2.173-1.931-31.399-.536-31.399-.536zm61.209-2.334s.25 50.935 4.584 70.602c4.332 19.667 4.998 45.334 7.666 54.667 2.666 9.333 11.666 33 19 54s50.5 99.731 46.166 167.065c.834 1.795 28.922-10.896 28.922-10.896s-8.422-84.171-69.088-213.505c-3.334-16.333-11.668-67.666-11.668-73.333s.136-32.513-.166-40.269c-.31-8.029-25.416-8.331-25.416-8.331zm51.99 3.477s29.926 132.455 54.591 181.122c20 43.339 28.111 136.422 27.111 141.422s35-12.667 35-12.667-3.442-99.416-55.442-194.083c-9.668-17-22.25-102.271-22.25-114.271-5.024-.731-39.01-1.523-39.01-1.523zm79.748 2.662s15.513 100.133 21.848 114.133c6.332 14 51 127.666 41.666 176.666-8.334 20 35-7.59 35-7.59s-10.334-90.743-55-173.743c-4.666-9-8.423-96.59-5.757-107.923-.355-2.744-37.757-1.543-37.757-1.543z"/><path fill="#FFF" stroke="#000" stroke-miterlimit="10" stroke-width="6" d="M1243 2042.988l538.424 9.182 1.576 24.33h-540z"/><path id="sd1" fill="#58791A" d="M1307.167 2061.5c-3.041 2.741-10.596 13.267-11.834 17.168-6.061 19.09 0 80.119 0 80.119l-46 134.547s86 84.666 125.334 86.666c13.332 1.334 113.084-118 113.084-118s-24.5-56.084-5.166-102.75c4.666 26 21.166 75.899 27.166 81.899 9.829 2.75 58.75 0 58.75 0s39.416-59.978 39.416-66.546-2.498 68.646-18.498 96.646c-.25 2.5-9.5-12.729-9.5-12.729s-69.426-2.512-75.676-2.262c0 0-9.548-.01-11.743 5.904-10.96 14.224-119.418 130.922-124.168 131.922s-140.207-43.202-140.207-43.202-54.958-21.302-54.958-24.052 62.524-196.045 63.856-199.379c1.334-3.332 6.477-83.953 6.477-83.953l93.663 2.195c-.001.002-23.029 9.526-29.996 15.807z" opacity=".4"/><path fill="none" stroke="#000" stroke-miterlimit="10" stroke-width="6" d="M1781.424 2052.17s2.037 52.619 6.778 62.936c37.599 81.792 69.464 209.648 66.798 208.982-2.668-.668-191 69.078-191 66.412s-82.5-129.5-82.5-129.5c-9.375-7.063-86.806-4.5-86.806-4.5s-121.526 135.677-126.36 137.588c-4.834 1.912-184.668-52-192.9-66.668 0-24.92 46.066-152.42 62.066-201.42 8.536-26.144 4.229-83.012 4.229-83.012l539.695 9.182z"/></svg>