<svg xmlns="http://www.w3.org/2000/svg" id="panties" viewBox="0 0 3000 3000"><path id="cl1" fill="#7BAA25" d="M1782.424 2052.084s.197 59.778 7.531 68.446c33.211 74.972 68.71 204.138 66.044 203.47-2.668-.666-190.833 70.5-190.833 67.834s-74.275-120.854-83.331-130.317c-13.043-13.634-87.141-5.017-87.141-5.017L1369.332 2394s-184.666-52-192.899-66.666c.649-11.993 11.269-47.811 23.877-91.114 17.255-59.27 39.856-124.386 39.856-124.386l3.334-68.846 538.924 9.096z"/><path id="cl2" fill="#74BB2D" d="M1233.854 2136.993s175.551 19.506 282.432 22.173 273.547-34.666 273.547-34.666 28.267 63.988 36.467 93.994l-225.133 70.672-22.667-32-83.806-.666-42.194 46-252-74.667 33.354-90.84z"/><path id="sd1" fill="#58791A" d="M1785 2070l-489.668 8.668v80.119l-46 134.547s86 84.666 125.334 86.666c13.332 1.334 113.084-118 113.084-118s-24.5-56.084-5.166-102.75c4.666 26 21.166 75.899 27.166 81.899 9.829 2.75 58.75 0 58.75 0s39.416-59.978 39.416-66.546-2.498 68.646-18.498 96.646c-.25 2.5-9.5-12.729-9.5-12.729s-69.426-2.512-75.676-2.262c0 0-9.548-.01-11.743 5.904-10.96 14.224-119.418 130.922-124.168 131.922s-140.207-43.202-140.207-43.202-54.958-21.302-54.958-24.052 62.524-196.045 63.856-199.379c1.334-3.332 6.477-83.953 6.477-83.953l538.923 8.582L1785 2070z" opacity=".4"/><path fill="none" stroke="#000" stroke-miterlimit="10" stroke-width="6" d="M1781.424 2052.17s2.037 52.619 6.778 62.936c37.599 81.792 69.464 209.648 66.798 208.982-2.668-.668-191 69.078-191 66.412s-82.5-129.5-82.5-129.5c-9.375-7.063-86.806-4.5-86.806-4.5s-121.526 135.677-126.36 137.588c-4.834 1.912-184.668-52-192.9-66.668 0-24.92 46.066-152.42 62.066-201.42 8.536-26.144 4.229-83.012 4.229-83.012l539.695 9.182z"/></svg>