<svg xmlns="http://www.w3.org/2000/svg" id="panties" viewBox="0 0 3000 3000"><path id="cl1" fill="#7BAA25" d="M1782.424 2052.084s.195 59.778 7.529 68.446c33.213 74.972 68.71 204.138 66.044 203.47-2.668-.666-190.833 70.5-190.833 67.834s-74.273-120.854-83.331-130.315c-13.043-13.634-87.141-5.019-87.141-5.019l-125.36 137.5s-184.666-52-192.899-66.666c.649-11.991 11.269-47.811 23.877-91.112 17.255-59.271 39.854-124.388 39.854-124.388l3.334-68.846 538.926 9.096z"/><path id="sd1" fill="#58791A" d="M1307.166 2061.5c-3.041 2.741-10.597 13.269-11.834 17.168-6.062 19.092 0 80.119 0 80.119l-46 134.547s86 84.666 125.334 86.666c13.332 1.334 113.084-118 113.084-118s-24.5-56.084-5.166-102.75c4.666 26 21.166 75.899 27.166 81.899 9.828 2.75 58.75 0 58.75 0s39.416-59.978 39.416-66.546-2.498 68.646-18.498 96.646c-.25 2.5-9.5-12.729-9.5-12.729s-69.427-2.512-75.677-2.262c0 0-9.548-.011-11.743 5.903-10.96 14.225-119.418 130.922-124.168 131.922s-140.207-43.201-140.207-43.201-54.958-21.303-54.958-24.053 62.524-196.045 63.856-199.379c1.334-3.332 6.477-83.952 6.477-83.952l93.663 2.193c-.001.004-23.027 9.528-29.995 15.809z" opacity=".4"/><path fill="#FFF" d="M1252 2076s3 34-4.5 54.5-17.5 44.5-33 95-31.42 106.856-31.42 106.856l-9.915-5.526 33.315-111.336S1238.5 2136 1240 2118s1.299-41.5 1.299-41.5l10.701-.5zm7.5.75s-.112 32.783-3.25 50c-3.26 17.889-22.25 59.238-33 91.744s-34.794 107.086-34.397 116.421L1195 2338s29.25-99.65 36.25-119.2 29.5-73.8 32.75-91.55 3.5-50.75 3.5-50.75l-8 .25zm516.75.75s-.5 20.25 3.5 36 24.75 60.75 35.5 89.75 31.5 122.75 31.5 122.75l8.404-3.5s-19.008-72.795-26.936-98.07-38.266-103.899-40.969-113.18-4.25-33.75-4.25-33.75h-6.749zm-14.5 0s2 26 7.75 47.75 22 56.5 32.5 83.5 33.75 121.25 33.75 121.25l6.25-2s-25-100-31.5-117.75-28.25-72-34.27-85.75-6.73-48.25-6.73-48.25l-7.75 1.25z"/><path id="sd2" fill="#FFF" stroke="#000" stroke-miterlimit="10" stroke-width="6" d="M1243 2042.988l538.424 9.182 1.576 24.33h-540z"/><path fill="none" stroke="#000" stroke-miterlimit="10" stroke-width="6" d="M1781.424 2052.17s2.037 52.619 6.776 62.938c37.601 81.792 69.464 209.646 66.798 208.98-2.668-.668-191 69.078-191 66.412s-82.5-129.5-82.5-129.5c-9.375-7.063-86.806-4.5-86.806-4.5s-121.526 135.679-126.36 137.588c-4.834 1.912-184.668-52-192.898-66.668 0-24.92 46.064-152.42 62.064-201.42 8.536-26.144 4.229-83.012 4.229-83.012l539.697 9.182z"/></svg>