<svg xmlns="http://www.w3.org/2000/svg" id="panties" viewBox="0 0 3000 3000"><path id="cl1" fill="#7BAA25" d="M1782.424 2052.084s.194 59.778 7.528 68.446c33.214 74.972 68.71 204.138 66.044 203.47-2.668-.666-190.833 70.5-190.833 67.834s-74.272-120.854-83.331-130.314c-13.043-13.634-87.141-5.02-87.141-5.02l-125.36 137.5s-184.666-52-192.898-66.666c.648-11.99 11.269-47.811 23.877-91.111 17.255-59.271 39.854-124.389 39.854-124.389l3.334-68.846 538.926 9.096z"/><path fill="#FFF" d="M1281 2076.5s-4.5 31-13.5 70-54.798 199.472-54.798 199.472l-37.269-18.552s9.867-39.824 15.291-61.351 36.137-107.614 46.296-138.618 5.98-50.951 5.98-50.951h38zm66 0s-21 130-31 165-47.374 124-47.374 124l56.053 17.389s36.82-112.416 53.82-171.652S1409 2076.5 1409 2076.5h-62zm110.5 0s-25.5 174-30.5 198-3.392 59.967-3.392 59.967l71.083-77.967 21.594-180H1457.5zm99.5 0l-3.481 177.665 28.313 7.354 22.987 35.45 10.681-220.47H1557zm99.5 3s1.5 177 0 219.5 0 78.746 0 78.746l8.09 12.787 75.782-25.993L1714 2076.5l-57.5 3zm91.5-3s5.5 106.889 21 153.194 35.826 111.716 35.826 111.716l50.171-17.322s-21.966-92.225-34.937-126.608-32.229-78.675-33.107-84.584S1783 2076.5 1783 2076.5h-35z" opacity=".2"/><path fill="#FFF" d="M1243 2076.5h540s2.756 29.338 4.11 35.353 6.382 15.15 6.382 15.15l-556.472.448s6.979-22.451 5.979-30.451.001-20.5.001-20.5zm-35.684 136.249s75.184 10.751 112.184 14.744 220.005 14.763 275.5 6.023 223.849-39.626 223.849-39.626l-15.923-43.861S1621.5 2176.5 1520 2181.5s-295.13-18.045-295.13-18.045l-17.554 49.294zm-23.808 82.173c21.508 12.422 224.908 57.001 224.908 57.001l50.609-56.303s-15.525-7.62-68.485-15.12-193.122-36.526-193.122-36.526l-13.91 50.948zm453.82 52.547c39.328 2.97 211.015-56.011 211.015-56.011l-15.901-54.612c-37.559 15.347-229.893 56.622-229.893 56.622l34.779 54.001z" opacity=".2"/><path id="sd1" fill="#58791A" d="M1307.166 2061.5c-3.041 2.741-10.598 13.27-11.834 17.168-6.063 19.093 0 80.119 0 80.119l-46 134.547s86 84.666 125.334 86.666c13.332 1.334 113.084-118 113.084-118s-24.5-56.084-5.166-102.75c4.666 26 21.166 75.899 27.166 81.899 9.827 2.75 58.75 0 58.75 0s39.416-59.978 39.416-66.546-2.498 68.646-18.498 96.646c-.25 2.5-9.5-12.729-9.5-12.729s-69.428-2.512-75.678-2.262c0 0-9.548-.011-11.743 5.903-10.96 14.225-119.418 130.922-124.168 131.922s-140.207-43.201-140.207-43.201-54.958-21.303-54.958-24.053 62.524-196.045 63.856-199.379c1.334-3.332 6.477-83.952 6.477-83.952l93.663 2.192c-.001.005-23.026 9.529-29.994 15.81z" opacity=".4"/><path id="sd2" fill="#FFF" stroke="#000" stroke-miterlimit="10" stroke-width="6" d="M1243 2042.988l538.424 9.182 1.576 24.33h-540z"/><path fill="none" stroke="#000" stroke-miterlimit="10" stroke-width="6" d="M1781.424 2052.17s2.037 52.619 6.775 62.938c37.602 81.792 69.464 209.646 66.798 208.979-2.668-.668-191 69.078-191 66.412s-82.5-129.5-82.5-129.5c-9.375-7.063-86.806-4.5-86.806-4.5s-121.526 135.68-126.36 137.588c-4.834 1.912-184.668-52-192.897-66.668 0-24.92 46.063-152.42 62.063-201.42 8.536-26.144 4.229-83.012 4.229-83.012l539.698 9.183z"/></svg>