<svg xmlns="http://www.w3.org/2000/svg" id="图层_1" viewBox="0 0 3000 3000"><path id="cl1" fill="#C1E3D8" d="M1783.334 2043.334c-3.334 7.916-8.229 23.618-2.334 46.916 6.832 54.252 55.5 168.272 55.5 168.272-8.666 12-143.332 87.633-174 87.979-6-2.316-75.332-88.646-80-87.979-4.666.668-66.559-6.396-87.807 0-4.87 1.472-97.85 80.469-113.193 92.478-29.332 6.666-189.666-65-193-83 9.332-15.334 51.5-147.5 55.5-163.5s-4.666-78.498-4.666-78.498c91.998 7.332 498 20 544 17.332z"/><path id="cl2" fill="#15AB80" d="M1318.5 2048s3.5 73-9.5 115.5-22.5 120 28 179c0 0-72-24.5-103-43s-40.472-22.532-40.472-22.532-8.298-4.581-5.028-8.968 47.514-134.496 51-147 6.175-32.534 5.116-43.106-3.144-26.818-3.144-26.818L1318.5 2048zm388.5 18.5s9 66 26 96.5 45.441 103.861 11.221 150.931c0 0 81.779-43.886 92.279-55.408l-50-140.022s-10.941-37.5-7.471-52H1707z"/><path id="sd1" fill="#15AB80" d="M1324.268 2029.851s-46.768 118.154-48.768 142.314c-2 24.152-19.812 87 28.854 121 48.668 34 73.479 31.334 99.978 5.781 6.625-7.375 70.834-54.558 70.834-54.558l-26.332-79.894 54.498 69.981 78.834 6.668 49.668-72.314-19.334 78.96s49.485 70.069 64 71.446c12.166 1.153 156.689-60.719 156.689-60.719s-92.36 63.959-168.335 87.827c-12.168-3.166-83.022-87.39-83.022-87.39l-88.332-3.733s-102.5 82.392-111.334 96.225c-5.286 8.277-91-5.951-193.666-79.285 8.5-19.502 40.972-110.198 56.332-171 2.505-27.729-5.652-76.161-5.652-76.161l85.088 4.852z" opacity=".5"/><path fill="#28292B" d="M1242.1 2055.616s228.592 28.246 537.26 18.912c-2.021-7.907 1.975-32.192 1.975-32.192s-508.668-7.666-542.945-16.604l3.71 29.884z"/><path fill="none" stroke="#000" stroke-miterlimit="10" stroke-width="6" d="M1781.334 2042.334c0 3.646-4.985 25.113-.74 57.651 13.735 54.313 55.906 158.537 55.906 158.537-8.666 12-143.332 87.632-174 87.979-6-2.317-75.166-86.146-79.5-87.979-4.348-1.836-86.25-5.666-93.5 0-2.686 2.099-94.834 76.31-108 92.478-29.332 6.666-189.666-62.5-193-80.5 9.332-15.334 52-151.5 56-167.5s-7.166-77.998-7.166-77.998c91.998 7.332 498 20 544 17.332z"/></svg>