<svg xmlns="http://www.w3.org/2000/svg" id="panties" viewBox="0 0 3000 3000"><path id="cl1" fill="#EBF229" d="M1779 2046.308c3.285 14.793-4.821 33.442-2.167 46.859 7.612 38.477 24.982 81.12 24.982 81.12-125.334 111.332-178.981 138.213-178.981 138.213s-33.335-38.667-36.667-44.667c-3.334-6-106.167-3.168-110.835 3.5-4.666 6.666-34 42-34 42-14.666-4-229.461-94.516-229.461-94.516 2-8.668 34.448-85.12 34.795-92.818 1.834-30.499-1.166-76-1.166-76 12.332 2.667 533.5-3.691 533.5-3.691z"/><g id="小鸭子"><path fill="#FFD001" d="M1481.5 2139.455s-26.75 19.795-8.5 41.795c14.332 29.75 84.5 36.584 98.543 0 7.707-13.5-6.388-40.998-15.805-42.635"/><path fill="#FFE100" d="M1483.5 2082.668s-30 25.619-3.5 57.332c7 9.713 45.666 34.834 75 1.834 15.332-14.834 2.698-45.418-1-50.166-12.5-13.668-40.334-30.834-70.5-9zm-16.5 71.5s-10.5 13 2.5 21.334c10.666 2 11.332-11.834 10.832-14.168-.5-2.332-2.332-12.332-13.332-7.166zm100.832-.166s-9.332 15.666 4.334 22.832c6.334.5 7.666-11 4.666-16.832-3-5.834-4.166-7.5-9-6z"/><path fill="none" stroke="#6B5C09" stroke-miterlimit="10" stroke-width="3" d="M1480 2140s-27-33.5 7-60.5c0 0 31.666-18.832 58 4.168 26.332 23 16.332 48.332 12.332 56.332 10 5.668 10.445 10.937 11.668 12.334 10.5.334 13.832 20.668 5.123 24.261-.146.465-.299.934-.457 1.407-2.666 22-67 51.666-103.834 0 0 0-.67-.629-1.607-1.727-5.391-2.273-11.437-15.716.775-24.607 5.832-10.666 11-11.668 11-11.668z"/><path fill="#FD8212" d="M1497.166 2125.002s6.834 0 11-3.5c4.168-3.5 13.5-6.834 21.834 1.75 1 1.082 6.334 4.082 9.834 3.916s-4.168 7.166-4.168 7.166-5.354 8.168-15.178 8.5c-13.322.334-17.792-9.369-21.656-13.832-.829-1.521-1.543-1.666-1.668-3.004-.025-.273-.025-.6.002-.996z"/><path fill="#F2740F" d="M1498.666 2125.834s13.334 9.334 38.5 2.5c2.668-1.166 1.834 1 1.168 2-.668 1-6.834 9.666-14.5 11.834-13.168 2.5-18.972-5.668-21.152-8.168-2.182-2.498-3.848-4.998-3.848-4.998s-1.278-3.83-.168-3.168z"/><ellipse cx="1495.25" cy="2111.5" rx="6.75" ry="7.5"/><ellipse cx="1539.25" cy="2111.5" rx="5.5" ry="6.5"/></g><path id="sd1" fill="#C6CD23" d="M1776.657 2067.536c-2 0-465.325 19.132-465.325 19.132s-7.332 69.301-11.332 71.648c-4 2.35 138.438 130.945 157.666 133.352 2.364 7.021-17.938 22.152-17.938 22.152l-227.857-95.002 34.263-88.484.366-80.834 533.96-3.131-3.803 21.167zm-296.207 202.052l10.216-.64-28.796-62.759 4.682 61.063.076 15.229 13.822-12.893zm93.774-5.839l13.276 4.108s6.797 11.607 8 11c19.75-20.75 50.25-85.607 42.75-75.107s-59 54.773-59 54.773l-5.026 5.226z" opacity=".4"/><path fill="none" stroke="#000" stroke-miterlimit="10" stroke-width="6" d="M1779 2046.308c.55 2.479-6.604 27.195-.5 52.941 8.625 36.375 24.625 76.125 24.625 76.125-125.334 111.332-176.957 137.793-180.291 137.126s-32.335-38.334-35.667-44.334c-3.334-6-107.167-2.501-111.835 4.167-4.666 6.666-29.168 41.833-34 42s-225.756-92.531-229.461-95.516 32.05-71.808 34.795-91.818-2.09-77.041-2.09-77.041c12.332 2.667 534.424-3.65 534.424-3.65z"/></svg>