<svg xmlns="http://www.w3.org/2000/svg" id="panties" viewBox="0 0 3000 3000"><path id="cl1" fill="#E6E6E6" d="M1779.505 2045.838l.995 66.162s-8.395 10.73-5.166 6.002C1674 2268.668 1556 2270.668 1512 2266.668c-122-9.334-275.334-122-275.334-122v-118c235.334 58.332 542.839 19.17 542.839 19.17z"/><path id="sd1" fill="#BCBCBC" d="M1778.666 2062.668S1313 2083.5 1286 2084c27.771 39.004 101.727 102.559 189.834 132.5 5.072 1.724.683-63.198 2.126-58.001 8.75 31.5 22.623 58.229 28.009 59.604 25.698 6.567 49.657 10.597 76.593 11.325 3.164.085 19.938-41.429 21.188-49.679.611-4.034-.833 49.781 3.255 49.605 27.151-1.17 54.416-6.02 81.128-15.514-3.104 5.667-16.133 8.826-16.133 8.826s-83.633 58.416-176.966 43.082c-96.038-28.438-141.534-40.25-258.368-121.082v-118s186.22 59.924 533.72 18.924c9.489-.34 8.28 17.078 8.28 17.078z"/><path id="sd2" fill="#747374" d="M1236.666 2027.668s139.179 29.099 220.174 30.367c80.994 1.271 266.092-2.666 321.876-12.101l1.171 24.899s-133.721 27.666-279.887 22.998c-146.168-4.666-263.334-39.666-263.334-39.666v-26.497z"/><path id="cl2" fill="#FFF" d="M1265.168 2046.668c0 4.879-3.955 8.834-8.834 8.834s-8.834-3.955-8.834-8.834 3.955-8.834 8.834-8.834 8.834 3.955 8.834 8.834zm66.5 4.77c-5.155 0-9.334 4.505-9.334 10.063 0 5.556 4.18 10.062 9.334 10.062s9.334-4.506 9.334-10.062c0-5.558-4.179-10.063-9.334-10.063zm81.666 10.064c-5.522 0-10 4.851-10 10.834 0 5.981 4.478 10.832 10 10.832s10-4.851 10-10.832c0-5.985-4.477-10.834-10-10.834zm94.357 3.666c-6.996 0-12.666 5.625-12.666 12.563s5.67 12.561 12.666 12.561c6.995 0 12.667-5.623 12.667-12.561s-5.672-12.563-12.667-12.563zm93.809 0c-6.444 0-11.668 5.257-11.668 11.74 0 6.482 5.224 11.738 11.668 11.738 6.442 0 11.668-5.256 11.668-11.738 0-6.483-5.224-11.74-11.668-11.74zm84.974-4.209c-5.406 0-9.787 4.478-9.787 9.998 0 5.521 4.381 9.998 9.787 9.998 5.404 0 9.787-4.477 9.787-9.998 0-5.521-4.383-9.998-9.787-9.998zm77.668-6.619c-4.803 0-8.694 3.721-8.694 8.31s3.893 8.31 8.694 8.31c4.8 0 8.692-3.721 8.692-8.31s-3.892-8.31-8.692-8.31z"/><path fill="none" stroke="#000" stroke-miterlimit="10" stroke-width="6" d="M1779.505 2045.838l.995 65.164s-2.662 4.365-5.166 8C1674 2269.668 1556 2271.668 1512 2267.668c-122-9.334-272.834-123.168-272.834-123.168l-2.5-116.832c235.334 58.332 542.839 18.17 542.839 18.17z"/></svg>