<svg xmlns="http://www.w3.org/2000/svg" id="图层_1" viewBox="0 0 3000 3000"><path id="cl1" fill="#C1E3D8" d="M1783.334 2043.334c-3.334 7.916-8.229 23.618-2.334 46.916 6.832 54.252 55.5 168.272 55.5 168.272-8.666 12-143.332 87.633-174 87.979-6-2.316-75.332-88.646-80-87.979-4.666.668-66.561-6.396-87.809 0-4.87 1.472-97.85 80.469-113.191 92.478-29.332 6.666-189.666-65-193-83 9.332-15.334 51.5-147.5 55.5-163.5s-4.666-78.498-4.666-78.498c91.998 7.332 498 20 544 17.332z"/><path id="cl2" fill="#74C291" d="M1271.5 2051.076c3 5.076-20.5-1.576-20 5.924s24.5 10 23 19.42-13.5-.92-16.5 6.08-4.5 8 .5 13 12 9 12 23-9-.5-15.5 5.5-8.5 12-1.5 16 12 8.5 3.346 20.5-10.846-4.5-16.346 1-5 16.5 5.477 22 18.023 21.5 0 25.5-10.977 4.5-15.477 13-14.5 11.5-13.262 23.5 15.262 20 7.262 23.5-14-5-17.5 3 13.292 22 2.83 16.102-21.33-17.602-21.33-17.602 52.5-150.5 56.388-169.517S1241 2042.5 1241 2042.5s27.5 3.5 30.5 8.576zm30 0s-13.5 21.264-7.5 25.344 22.703 10.154 6.602 15.617-28.102 4.463-23.102 17.463 18 1.5 22 7.5-10.341 21.256-15.42 22.378-23.896-.844-15.08 10.122 28 16 20.5 20.5-20.636-2.5-22.818 3.5-7.182 17-2.682 18.5 28.096 3.5 20.798 12.5-19.436-.5-22.617 5.5 5.388 9.408 8.604 15.954S1277 2237.5 1263.5 2238s-23.719-5-25.109 5 10.109 10.5 14.109 14-3.5 11-10 13.5-17.433 11.025-10.966 19.013 3.966 10.987 3.966 10.987l8.588 6.941S1242 2294.5 1251 2296s14.974-.975 17.487-6.487S1254.5 2283 1258 2277.5s3.019-.774 12.5-6.5 11.135-8.5 4.067-11-13.567-4-9.067-9 11.5 1.5 19-3.5-4-9-3.5-14.5-5-10 3.5-12.5 18.5-1 18.5-9-6-3.5-9-8 .5-10.5 10.5-11.5 12-8.982 8-12.741-18.5 1.241-16-4.259 11.5-3.5 21.5-5 14.5-9.5 9.5-14.5-20 3-25-5.5 1.5-12.5 10.5-12.5 22-4.5 22.5-11.5-27-.5-22.5-8 4.5-9 16.5-8 16.5-5 9.5-12.5-13.5 2.5-18-5 7-15.66 16-16.08 20.5-13.42 8.5-16.92-44-8.424-44-8.424zm71 10.924s8 16.5-3 17.5-23 8-14 16.5 24.5 2 13 11.5-26.814 9-16.157 16.5 39.157 8 19.157 16-47 4.5-39.5 15 37.5 18.5 25.5 20.5-33 2.5-23 16 24.5 30 2.5 30-24 8.5-18 15.5 2.5 25-10.5 23.5-20.5 3.5-11.5 12.5 27.026 16.025 2.513 16.513-23.513 13.87-13.013 17.929-3.041 18.107-7.021 14.333L1294.5 2326s-4-9 1-8.5 23 11 22.5 1.5-23.5-12.5-12.5-16 27.5 6.5 28-2-11-16.5-11.5-19.5 1.5-3 11.5-5.5-1-9-2.5-16-1-10.5 11-11 15.819-11 8.66-16.5-.16-3.5 9.84-11 16.5-8 5.5-15.5-28.681-17.5-15.34-20.5 44.84-6.5 33.84-15-28.5-7.5-22-11.5 9-2.5 21.5-9 6.078-14.5 2.789-15.5-1.009-9 4.601-11 16.11-6.5 2.61-14-14.5-10-6.5-14 11.5-10 2.5-14.5-5-16.5-5-16.5l-12.5-2.5zm44.793 1.595s-11.218 24.199-4.173 27.494c7.046 3.295 25.854 6.981 9.446 15.181-16.409 8.2-29.409 9.046-22.077 21.76 7.333 12.715 19.5-1.268 24.697 4.335 5.196 5.603-7.836 23.695-13.104 25.657-5.268 1.964-25.714 2.875-14.605 12.879 11.11 10.002 32.415 12.22 25.07 18.069s-22.475.643-23.898 7.216-5.102 18.779-.056 19.632c5.046.851 30.614-.776 24.171 9.716-6.444 10.49-20.886 2.531-23.378 9.261-2.493 6.729 7.201 8.924 11.64 15.217 4.439 6.292 8.412 11.013-5.966 13.651-14.378 2.639-26.156-1.47-26.123 9.133.034 10.604 12.423 9.316 17.238 12.323s-2.073 11.973-8.652 15.588c-6.578 3.617-16.986 14.186-8.847 21.465 8.139 7.278 2.823 28.828 2.823 28.828l13.348-12.182s-4.206-13.11 5.659-12.965c9.865.145 15.884-3.363 17.735-9.481 1.852-6.119-15.967-4.567-13.057-10.829 2.91-6.26 3.115-1.277 12.394-8.711s10.628-10.574 2.681-12.062c-7.948-1.486-15.136-2.024-11.079-7.922 4.057-5.898 12.541-.247 19.811-6.617 7.269-6.369-5.653-8.717-5.955-14.507-.301-5.79-6.875-9.6 1.845-13.529 8.721-3.931 19.655-3.942 18.438-12.25-1.217-8.307-6.957-2.692-10.854-6.895-3.897-4.202-1.063-10.981 9.491-13.589 10.555-2.609 11.481-11.211 6.626-14.487-4.855-3.275-19.619 4.193-17.779-1.911 1.839-6.104 11.78-5.438 22.259-8.566 10.479-3.127 14.079-12.141 7.964-16.548-6.114-4.407-20.957 6.255-27.604-1.788-6.647-8.041-.296-13.215 9.339-14.628 9.636-1.412 22.871-8.125 22.34-15.473-.53-7.347-28.984 3.719-25.308-4.776 3.676-8.494 3.448-10.051 16.449-10.896 13-.846 16.905-7.781 8.269-14.471-8.637-6.689-14.074 4.715-20.034-2.367-5.959-7.082 5.111-17.36 14.683-19.209 9.573-1.849 19.907-17.152 6.525-18.904-13.381-1.752-48.392-1.842-48.392-1.842zm71.388-16.679s8.964 12.68 1.778 15.418c-7.187 2.737-13.744 10.756-5.843 16.451 7.902 5.695 16.923-2.497 11.245 7.563-5.679 10.063-16.094 12.263-7.294 16.821 8.8 4.561 28.089.101 16.364 10.342-11.725 10.242-30.656 11.891-23.33 19.547 7.325 7.654 29.251 9.323 21.61 13.084-7.644 3.762-21.668 7.788-12.009 17.569 9.659 9.782 22.997 21.348 8.191 25.119-14.807 3.772-14.309 11.354-8.752 16.286s7.106 20.861-1.968 21.813c-9.075.951-13.038 6.496-5.028 12.616 8.01 6.121 15.039 6.245 10.729 10.954-11.498 12.563 19.91 6.633 19.91 6.633-1.508-7.324-10.982-12.166-11.971-14.635-.986-2.469.359-2.812 6.547-6.655s-2.626-7.493-5.153-13.197c-2.528-5.703-2.951-8.77 5.017-11.253 7.967-2.483 8.261-12.08 2.248-15.536-6.012-3.456-.867-2.953 4.236-11.054 5.104-8.102 9.37-9.643.34-14.144-9.031-4.501-23.1-9.984-14.772-14.827 8.327-4.843 28.768-13.224 19.521-18.576-9.248-5.353-20.808-1.5-17.302-6.021 3.507-4.521 5.516-3.671 12.518-11.351 7.003-7.679.944-13.39-1.486-13.678-2.43-.287-2.631-7.491.712-10.155 3.341-2.665 9.432-8.299-1.281-12.371-10.713-4.071-11.929-6.029-7.412-10.807 4.516-4.778 5.57-10.488-1.464-12.776-7.034-2.29-6.944-13.194-6.944-13.194l-8.957.014zm55.504 20.497s-6.591 25.846.939 27.793 26.696 2.123 12.069 13.191c-14.627 11.07-27.252 14.285-17.713 25.438 9.539 11.155 18.938-4.821 25.072-.267 6.136 4.556-3.358 24.73-8.178 27.625-4.818 2.896-24.75 7.541-11.996 15.339 12.756 7.795 34.106 6.069 27.958 13.166-6.148 7.098-21.976 4.753-22.17 11.476-.193 6.723-1.572 19.396 3.545 19.309 5.117-.089 29.953-6.376 25.543 5.12-4.412 11.494-20.068 6.317-21.284 13.39s8.715 7.452 14.233 12.825c5.517 5.371-4.704 5.807-4.704 5.807l17.625 1.375s1.875-2.75-.067-3.768c-5.136-2.69-8.52-8.177-.668-13.639 7.853-5.463 18.601-7.479 15.879-15.423-2.719-7.942-7.333-1.371-11.934-4.787-4.601-3.417-3.058-10.601 6.84-15.099 9.897-4.501 9.23-13.126 3.856-15.457-5.373-2.33-18.517 7.72-17.827 1.381.688-6.337 10.583-7.506 20.311-12.502 9.728-4.995 11.613-14.516 4.795-17.728s-19.455 9.991-27.464 3.304c-8.009-6.687-2.715-12.937 6.499-16.093 9.214-3.155 20.993-12.181 19.124-19.307-1.869-7.124-27.811 8.97-25.755-.055s1.546-10.513 14.173-13.728c12.624-3.215 15.19-10.749 5.474-15.741-9.717-4.993-12.97 7.215-20.127 1.346s1.842-18.003 10.912-21.575c9.071-3.572 16.424-20.512 2.949-19.78-13.475.733-47.909 7.064-47.909 7.064zm82.515-3.226s13.273 12.652 3.321 17.441c-9.953 4.79-18.741 15.551-7.333 20.359 11.407 4.809 23.647-6.71 16.205 6.217-7.443 12.927-21.963 17.823-9.353 21.115 12.608 3.291 39.478-6.226 23.548 8.274-15.93 14.499-42.444 20.68-31.742 27.887 10.703 7.208 41.604 4.19 31.065 10.269-10.539 6.076-30.032 13.901-15.937 23.042 14.096 9.143 33.457 19.517 12.851 27.225-20.605 7.706-19.501 16.368-11.43 20.823 8.072 4.454 11.101 22.539-1.602 25.688-12.701 3.15-17.975 10.46-6.392 15.737 11.583 5.276 32.096 9.371 8.139 14.585-17.917 3.899 5.991 27.446 8.22 28.014 4.869 1.239 23.222 1.852 19.426-6.871-3.797-8.723-26.391-3.475-17.313-10.606 9.076-7.133 28.035-3.546 25.524-11.683-2.509-8.137-16.083-11.601-17.602-14.235-1.52-2.635.354-3.336 8.844-9.181s-4.089-8.079-7.946-14.109c-3.856-6.031-4.615-9.485 6.449-14.157 11.064-4.673 10.964-15.845 2.331-18.488-8.633-2.643-1.376-3.222 5.363-13.75 6.738-10.527 12.651-13.272-.279-16.444-12.93-3.171-32.994-6.344-21.549-13.827 11.442-7.483 39.721-21.797 26.44-25.904-13.281-4.108-29.321 2.96-24.635-3.064 4.687-6.023 7.554-5.494 16.984-15.962 9.432-10.467.613-15.709-2.817-15.494-3.432.216-4.099-8.076.456-11.915 4.554-3.839 12.812-11.731-2.46-14.026-15.272-2.296-17.085-4.287-10.993-10.836 6.091-6.549 7.268-13.396-2.737-14.457-10.007-1.063-10.465-13.703-10.465-13.703l-12.581 2.036zm57.153 3.513s-2.584 26.547 5.155 27.326c7.738.779 26.709-1.962 13.936 11.203-12.773 13.166-24.763 18.264-13.639 27.836 11.125 9.575 17.984-7.646 24.74-4.077 6.758 3.57.442 24.954-3.881 28.548-4.321 3.596-23.315 11.218-9.523 16.985 13.793 5.764 34.633.811 29.635 8.76-4.997 7.95-20.997 8.04-20.166 14.715.831 6.674 1.396 19.409 6.44 18.544 5.044-.865 28.635-10.857 26.024 1.176-2.612 12.032-18.874 9.297-19 16.472s9.747 6.04 16.019 10.511c6.269 4.47 11.58 7.61-1.117 14.856-12.696 7.245-25.169 7.264-21.632 17.259 3.538 9.996 14.805 4.684 20.344 5.928 5.539 1.245 2.003 11.985-3.01 17.572-5.012 5.59-2.198 18.139 7.159 15.013 9.357-3.125 23.538-10.701 26.163-13.701 4.21-4.811-15.73 4.283-15.055-2.589.676-6.869 2.516-2.235 8.814-12.319s6.533-13.494-1.459-12.27c-7.992 1.226-14.953 3.096-13.075-3.813 1.879-6.908 11.754-4.381 16.508-12.796 4.753-8.415-8.218-6.357-10.418-11.721-2.199-5.365-9.664-6.786-2.734-13.379 6.931-6.594 17.247-10.222 13.349-17.658-3.896-7.437-7.456-.24-12.523-2.917-5.066-2.677-4.634-10.012 4.465-15.963 9.098-5.954 7.126-14.377 1.46-15.863-5.665-1.486-17.127 10.445-17.409 4.076-.283-6.368 9.318-9.028 18.173-15.446 8.854-6.416 9.271-16.113 2.043-18.25-7.228-2.138-17.71 12.834-26.643 7.442-8.933-5.391-4.65-12.373 3.976-16.895 8.627-4.52 18.896-15.231 15.966-21.99-2.931-6.757-26.123 13.095-25.464 3.863.659-9.232-.071-10.626 11.92-15.724 11.988-5.098 13.379-12.935 3.016-16.391-10.362-3.457-11.721 9.104-19.688 4.391-7.967-4.712-.918-18.073 7.504-22.983s13.112-22.771-.094-19.999c-13.209 2.773-46.279 14.268-46.279 14.268zm72.385-15.126c-2.424 5.169 17.779-2.229 17.619 5.281-.161 7.511-20.949 10.775-19.3 20.142 1.651 9.365 11.712-1.351 14.579 5.55 2.867 6.898 4.209 7.85.043 13.006-4.168 5.157-10.111 9.378-9.598 23.368.513 13.99 7.813-.787 13.688 5.002 5.876 5.788 7.836 11.72 1.893 15.94-5.943 4.222-10.129 8.878-2.16 20.594 7.971 11.715 9.272-4.844 14.259.478 4.987 5.32 4.956 16.329-3.959 22.159-8.913 5.831-14.891 22.062.937 25.483 15.828 3.422 9.716 4.146 13.942 12.497 4.228 8.351 13.038 11.028 12.4 23.061-.638 12.031-12.544 20.474-5.456 23.716s7.918-2.937 16.251-.976c2.125.5-1.511 4.979 7.375-1.25 8.887-6.229 8.375-9 8.375-9s-51.823-137.147-55.903-156.026c-4.081-18.88 1.237-58.568 1.237-58.568s-23.799 4.374-26.222 9.543z"/><path id="sd1" fill="#15AB80" d="M1324.268 2029.851s-46.768 118.154-48.768 142.314c-2 24.15-19.813 87 28.854 121 48.668 34 73.479 31.334 99.979 5.779 6.625-7.375 70.834-54.558 70.834-54.558l-26.332-79.896 54.498 69.981 78.834 6.668 49.668-72.314-19.334 78.96s49.484 70.069 64 71.446c12.166 1.153 156.688-60.719 156.688-60.719s-92.36 63.959-168.335 87.827c-12.168-3.166-83.021-87.392-83.021-87.392l-88.332-3.731s-102.5 82.392-111.334 96.225c-5.285 8.277-91-5.951-193.666-79.285 8.5-19.502 40.973-110.197 56.332-171 2.506-27.729-5.651-76.16-5.651-76.16l85.086 4.855z" opacity=".5"/><path fill="#28292B" d="M1242.1 2055.616s228.592 28.246 537.26 18.912c-2.021-7.907 1.975-32.19 1.975-32.19s-508.668-7.666-542.943-16.604l3.708 29.882z"/><path fill="none" stroke="#000" stroke-miterlimit="10" stroke-width="6" d="M1781.334 2042.334c0 3.646-4.985 25.113-.74 57.651 13.733 54.313 55.906 158.537 55.906 158.537-8.666 12-143.332 87.632-174 87.979-6-2.317-75.166-86.146-79.5-87.979-4.35-1.836-86.25-5.666-93.5 0-2.688 2.099-94.834 76.31-108 92.478-29.332 6.666-189.666-62.5-193-80.5 9.332-15.334 52-151.5 56-167.5s-7.166-77.998-7.166-77.998c91.998 7.332 498 20 544 17.332z"/></svg>