<svg xmlns="http://www.w3.org/2000/svg" id="图层_1" viewBox="0 0 3000 3000"><path id="cl1" fill="#C1E3D8" d="M1783.334 2043.334c-3.334 7.916-8.229 23.618-2.334 46.916 6.832 54.252 55.5 168.272 55.5 168.272-8.666 12-143.332 87.633-174 87.979-6-2.316-75.332-88.646-80-87.979-4.666.668-66.56-6.396-87.808 0-4.87 1.472-97.85 80.469-113.192 92.478-29.332 6.666-189.666-65-193-83 9.332-15.334 51.5-147.5 55.5-163.5s-4.666-78.498-4.666-78.498c91.998 7.332 498 20 544 17.332z"/><path id="cl2" fill="#71C6CB" d="M1264.5 2173c25.729-28.111 67-46.5 70-19.5s32 51.5 53.5 23.5-9.5-50-11-72 4.5-37.5 38.5-46.5 71 6 71.5 28-17 64 18.5 54 48.5-13 49-37.5 74.5-46.5 93-31 16.5 43.5 16 69-26.5 8-22 56 81-32 78.5-57 55.5-31 42 9.5-45 63.5-26 70.5 29.168-24.959 45.334-30.729S1818.5 2198.5 1815.5 2216s-30 38.5-10.5 40.5 7.29 19.352 7.29 19.352l-91.305 49.563s-16.485-15.914 3.015-35.414-45.5-41.5-55.5-24.5S1621 2291 1621 2291l-16.5-10-20.5-24-43.718-.82S1522 2212 1561.5 2207s36-42.5 23-60-80.5 9-88.5 55-38.5 31.5-63.5 33.5 6.5 25.5-29.5 42-58.5 40.5-74 .5 18-42-1.5-61-25 45.5-67 42.5-23-57 4-86.5zm-31.445-32.324S1257.5 2112 1262.5 2127.5s32.5 20.5 50.5 0 28.5-71.656 28.5-71.656l-99.146-8.267S1251 2082 1247 2099s-13.945 41.676-13.945 41.676zM1188.5 2272.16c4.5 6.16 40.5 24.497 40.5 24.497s5-7.657 0-30.157-29.493-22.863-29.493-22.863S1184 2266 1188.5 2272.16zm127.227 63.709c16.701 1.934 5.273-44.369-15.727-50.369s-29.125 32.631-29.125 32.631 28.151 15.804 44.852 17.738z"/><path id="hl1" fill="#E0F0E5" d="M1371.834 2094.501c13.333 18.667 4 22-13.333 35.333s-24 45.334-28 52.667-33.333 2-36-14.667 29.816-19.248 32-46c2.667-32.667 32-46 45.333-27.333zm26 94.218c-37.258 8.772-40.666 9.783-47.333 30.449s-2.559 29.651-24.946 31.492-41.913-41.744-51.817 7.382 10.453 56.46 20.608 53.126 35.373-34.669 51.488-24-11.417 31.099 19.292 31.216 22.042-61.883 27.375-81.883-6.667-14.667 29.333-14 63.333-9.333 50-42-48.667-53.334-58-22.667.777 26.934-16 30.885zm-148.667-36.885c-6.171 31.15-6.667 18-16 44s1.537 19.835-14.667 28.667-21.105 22.346-21.105 22.346L1188.5 2268l17.35 16.11 17.96 11.768s-22.643-48.71 1.357-53.377 28.667-3.999 30.667-23.333 4.49-35.216 17.579-30.941 7.755 25.608 25.088 14.941-31.91-25.307-17.289-54.653-18.045-67.348-32.045 3.319zm148-50c-6 18.667 5.771 23.147-8.448 31.907s-26.912 37.48-10.564 34.093 18.345-7.961 27.012-31.98 18.667-6.019 20.667-30.686-2.784-32.122-21.333-32-7.334 28.666-7.334 28.666zm-94.919-54.257s-6.414 19.429-13.748 28.843-12 22.747 0 27.414 12.667-9.023 24-17.845 18.166 4.821 23.75 0 41.015 6.049 12.747-20.528-46.749-17.884-46.749-17.884zm240.252 20.924c-8 2-36.334-24.667-42.5 12-6.167 36.667 27.834 38.275-6.833 40.138-34.667 1.862-40-6.805-45.333-2.805s-6 8.705 7.333 18.02 31.333 14.647 28 24.647-4.666 24.206 13.333 28.77 47.926-3.438 36.296-35.438-14.964-43.117 9.703-42.225 24.667-35.107 14.667-47.107-14.666 4-14.666 4zm-67.231 204.894l21.232-17.562 88 2 7.696 13.285s14.304-5.951 30.304-25.285-10.666-21.333-24-12-26.666-1.333-35.066-24 49.057-12.842 64.4-41.724-57.334-50.276-57.334-32.257-16 66.647-42.666 67.89-14 2.091-15.334 16.758-9.168 13.975-37.231 20-30.16 12.236-35.974 30.618c-11.17 35.309 35.973 2.277 35.973 2.277zm173.231-210.227c-32.681 13.087-36.667 26.666-34 31.333s-8.666-3.445-13.333 10.277 16.667 25.878 23.667 20.467 11-12.189 11-20.467 12.666-28.944 17.333-6.277 12 23.999 0 33.333-26.813-3.358-16.667 14.667 29.908 18.205 17.334 26-30.726 9.031-36.852 17.951 2.186 40.05 20.852 26.716 46-2.231 41.333-28.449-10.667-32.219 9.333-32.885 18.667-15.058 20.667-35.195-34-13.472-28-24.805 22.001-12.006 30.667-20.336 52-6.997 52-6.997-28 29.222-22.667 36.277 35.333 3.998 12 15.86-28.667 1.9-28 15.215 9.333 27.199 15.333 32.257 10.668 13.263 23.334 21.16 22 10.401 22 2.482-13.334-49.88-14.667-55.899 18.691 5.839 14.667-12.686-16.666-35.023-18-37.179 7.333-18.821 7.333-18.821L1760.5 2054.5l-112 8.668zm75.334 135.333c-14.684 19.32-15.459-3.333-30.396 14s-24.937 4-33.604 24 6.667 36.666 0 45.333-26.78 5.694-26.472 5.59-17.361 10.929-17.361 10.929l18.248 20.031 13.122 12.443s2.463-18.239 26.463-34.949 35.231-31.37 41.333-11.377 23.333 4.666 20-18.667-22.792 0-41.729-15.333-8.27-9.811 6.396-19.905 22.573 3.417 35.757-4.095.91-44.667-11.757-28zm20.666 32.094c-8 8.095-12 8.572 8 30.024s-4 19.881-15.297 37.624-3.267 20.14-3.267 20.14l41.461-22.506s6.437-10.71 5.937-11.377 18.723-11.987 21.19-13.021-8.024-7.646-16.155-16.313-.535-15.334 18.798-24.572 9.33-10.755-11.333-22.27-35.447-8.979-26 5.508c10 15.335-15.334 8.669-23.334 16.763zm81.334 1.913l-9.77 40.982 17.124-14.974-7.354-26.008z"/><path id="sd1" fill="#15AB80" d="M1324.268 2029.851s-46.768 118.154-48.768 142.314c-2 24.151-19.813 87 28.854 121 48.668 34 73.479 31.334 99.979 5.78 6.625-7.375 70.834-54.558 70.834-54.558l-26.332-79.895 54.498 69.981 78.834 6.668 49.668-72.314-19.334 78.96s49.484 70.069 64 71.446c12.166 1.153 156.688-60.719 156.688-60.719s-92.36 63.959-168.335 87.827c-12.168-3.166-83.021-87.391-83.021-87.391l-88.332-3.732s-102.5 82.392-111.334 96.225c-5.286 8.277-91-5.951-193.666-79.285 8.5-19.502 40.972-110.197 56.332-171 2.505-27.729-5.652-76.16-5.652-76.16l85.087 4.853z" opacity=".5"/><path fill="#28292B" d="M1242.1 2055.616s228.592 28.246 537.26 18.912c-2.021-7.907 1.975-32.191 1.975-32.191s-508.668-7.666-542.944-16.604l3.709 29.883z"/><path fill="none" stroke="#000" stroke-miterlimit="10" stroke-width="6" d="M1781.334 2042.334c0 3.646-4.985 25.113-.74 57.651 13.734 54.313 55.906 158.537 55.906 158.537-8.666 12-143.332 87.632-174 87.979-6-2.317-75.166-86.146-79.5-87.979-4.349-1.836-86.25-5.666-93.5 0-2.687 2.099-94.834 76.31-108 92.478-29.332 6.666-189.666-62.5-193-80.5 9.332-15.334 52-151.5 56-167.5s-7.166-77.998-7.166-77.998c91.998 7.332 498 20 544 17.332z"/></svg>