<svg xmlns="http://www.w3.org/2000/svg" id="panties" viewBox="0 0 3000 3000"><path id="cl1" fill="#E6E6E6" d="M1779.505 2045.838l.995 66.162s-8.395 10.73-5.166 6.002C1674 2268.668 1556 2270.668 1512 2266.668c-122-9.334-275.334-122-275.334-122v-118c235.334 58.332 542.839 19.17 542.839 19.17z"/><path fill="#BCBCBC" d="M1291.166 2054.834l4 128-29-20.666v-110.666l25 3.332zm34.668 9.668l-5.925 132.444 28.257 16.888 5.334-146-27.666-3.332zm62.332 9.666l-4.907 154.776 29.107 13.384 5.8-164.826-30-3.334zm65.334 9l-3.668 171.334 35.086 9.539v-180.873H1453.5zm74 2.666l9.668 182.734 36.539-4.527-15.541-178.207H1527.5zm66.666 0l16.265 169.809 36.101-15.413-27.363-154.396h-25.003zm93.975 128l29.969-25.726-23.941-112.606-30 3.666 23.972 134.666zm39.691-139.666l19.422 82.463 17.246-23.463-12.334-63.334-24.334 4.334z" opacity=".3"/><path id="sd1" fill="#BCBCBC" d="M1778.666 2062.668S1313 2083.5 1286 2084c27.771 39.004 101.727 102.559 189.834 132.5 5.072 1.724.683-63.198 2.126-58.001 8.75 31.5 22.623 58.229 28.009 59.604 25.698 6.567 49.657 10.597 76.593 11.325 3.164.085 19.938-41.429 21.188-49.679.611-4.034-.833 49.781 3.255 49.605 27.151-1.17 54.416-6.02 81.128-15.514-3.104 5.667-16.133 8.826-16.133 8.826s-83.633 58.416-176.966 43.082c-96.038-28.438-141.534-40.25-258.368-121.082v-118s186.22 59.924 533.72 18.924c9.489-.34 8.28 17.078 8.28 17.078z" opacity=".4"/><path id="cl2" fill="#747374" d="M1236.666 2027.668s139.179 29.099 220.174 30.367c80.994 1.271 266.092-2.666 321.876-12.101l1.171 24.899s-133.721 27.666-279.887 22.998c-146.168-4.666-263.334-39.666-263.334-39.666v-26.497z"/><path fill="none" stroke="#000" stroke-miterlimit="10" stroke-width="6" d="M1779.505 2045.838l.995 65.164s-2.662 4.365-5.166 8C1674 2269.668 1556 2271.668 1512 2267.668c-122-9.334-272.834-123.168-272.834-123.168l-2.5-116.832c235.334 58.332 542.839 18.17 542.839 18.17z"/></svg>