<svg xmlns="http://www.w3.org/2000/svg" id="panties" viewBox="0 0 3000 3000"><path id="cl1" fill="#E6E6E6" d="M1779.505 2045.838l.995 66.162s-8.395 10.73-5.166 6.002C1674 2268.668 1556 2270.668 1512 2266.668c-122-9.334-275.334-122-275.334-122v-118c235.334 58.332 542.839 19.17 542.839 19.17z"/><path id="sd1" fill="#BCBCBC" d="M1778.666 2062.668S1313 2083.5 1286 2084c27.771 39.004 83.11 95.893 171.218 125.834 5.072 1.724-1.495-62.531-.051-57.334 8.75 31.5 15.281 61.626 20.667 63.002 25.698 6.567 77.792 13.198 104.728 13.927 3.164.085 9.355-41.346 10.605-49.596.611-4.034 9.75 49.698 13.838 49.522 27.151-1.17 54.416-6.02 81.128-15.514-3.104 5.667-16.133 8.826-16.133 8.826s-83.633 58.416-176.966 43.082c-96.038-28.438-141.534-40.25-258.368-121.082v-118s186.22 59.924 533.72 18.924c9.489-.341 8.28 17.077 8.28 17.077z"/><path id="cl2" fill="#747374" d="M1236.666 2027.668s139.179 29.099 220.174 30.367c80.994 1.271 266.092-2.666 321.876-12.101l1.171 24.899s-133.721 27.666-279.887 22.998c-146.168-4.666-263.334-39.666-263.334-39.666v-26.497zm235.233 180.168l56.602 7.666v-20h-35.334l.668-12 20-1.334-.334-15h-19.332l.666-16.334h33.668v-18.666l-52 6-4.604 69.668zm70.601-60.698l20.666 1-9.666 63.361h29.666v-61.666h21.666V2134.5l-58.332-2.334-4 14.972z"/><path fill="none" stroke="#000" stroke-miterlimit="10" stroke-width="6" d="M1779.505 2045.838l.995 65.164s-2.662 4.365-5.166 8C1674 2269.668 1556 2271.668 1512 2267.668c-122-9.334-272.834-123.168-272.834-123.168l-2.5-116.832c235.334 58.332 542.839 18.17 542.839 18.17z"/></svg>