<svg xmlns="http://www.w3.org/2000/svg" id="panties" viewBox="0 0 3000 3000"><path id="cl1" fill="#EBF229" d="M1781 2048.5s-1.572 38.542-.433 51.323c.592 6.633 4.933 26.177 4.933 26.177-15 1.5-78.5 37-89 43s-81.5 57.5-84 65c-22.5 38-77 31.5-84 31s-45.5-4.5-78.5-42.5c-123-93-205.5-103-205.5-103l-7-90.5 543.5 19.5z"/><path id="sd1" fill="#C6CD23" d="M1777.87 2069.98L1309 2084.5l-7.423 51.805-57.077-16.805-7-90.5 543.5 19.5-3.13 21.48zm-292.538 180.233c-16.5-15-35.332-87.713-41.832-106.213-8 12 8.332 81.213 8.332 81.213s50 40 33.5 25zM1604 2184.5s-.967 60.741-5.967 64.741 15.5-13 15.5-13-.033-46.241-7.033-51.741-2.5 0-2.5 0z" opacity=".4"/><path fill="none" stroke="#000" stroke-miterlimit="10" stroke-width="6" d="M1781 2048.5s-1.572 38.542-.433 51.323c.592 6.633 4.933 26.177 4.933 26.177-15 1.5-78.5 37-89 43s-81.5 57.5-84 65c-22.5 38-77 31.5-84 31s-45.5-4.5-78.5-42.5c-123-93-205.5-103-205.5-103l-7-90.5 543.5 19.5z"/></svg>