<svg xmlns="http://www.w3.org/2000/svg" id="panties" viewBox="0 0 3000 3000"><path id="cl1" fill="#EBF229" d="M1781 2048.5l-7.5 51.5 12 26c-15 1.5-78.5 37-89 43s-81.5 57.5-84 65c-22.5 38-77 31.5-84 31s-45.5-4.5-78.5-42.5c-123-93-205.5-103-205.5-103l-7-90.5 543.5 19.5z"/><g id="小鸭子"><path fill="#FFD001" d="M1496.789 2139.539s-27.813 18.986-8.838 40.086c14.901 28.533 87.852 35.086 102.452 0 8.013-12.947-6.641-39.32-16.432-40.891"/><path fill="#FFE100" d="M1498.867 2085.075s-31.19 24.571-3.64 54.987c7.278 9.314 47.479 33.407 77.976 1.758 15.94-14.228 2.807-43.561-1.039-48.113-12.996-13.107-41.935-29.572-73.297-8.632zm-17.154 68.575s-10.917 12.469 2.599 20.461c11.091 1.918 11.782-11.351 11.263-13.588s-2.426-11.827-13.862-6.873zm104.832-.159s-9.701 15.023 4.506 21.897c6.585.479 7.972-10.55 4.853-16.145-3.121-5.593-4.335-7.191-9.359-5.752z"/><path fill="none" stroke="#6B5C09" stroke-miterlimit="10" stroke-width="3" d="M1495.229 2140.063s-28.071-32.129 7.277-58.023c0 0 32.923-18.063 60.301 3.996 27.379 22.061 16.979 46.354 12.821 54.028 10.396 5.436 10.859 10.487 12.13 11.829 10.916.318 14.381 19.822 5.328 23.268a92.62 92.62 0 0 1-.476 1.351c-2.773 21.1-69.657 49.552-107.953 0 0 0-.696-.604-1.672-1.655-5.604-2.181-11.89-15.072.806-23.602 6.065-10.234 11.438-11.192 11.438-11.192z"/><path fill="#FD8212" d="M1513.076 2125.678s7.104 0 11.437-3.356c4.334-3.356 14.035-6.554 22.698 1.679 1.04 1.038 6.586 3.915 10.226 3.756 3.639-.158-4.334 6.874-4.334 6.874s-5.565 7.832-15.777 8.151c-13.852.318-18.497-8.986-22.516-13.268-.863-1.458-1.605-1.597-1.734-2.88a5.219 5.219 0 0 1 0-.956z"/><path fill="#F2740F" d="M1514.636 2126.477s13.862 8.951 40.027 2.397c2.773-1.119 1.906.959 1.214 1.918-.694.959-7.104 9.271-15.075 11.349-13.688 2.398-19.724-5.436-21.99-7.832-2.27-2.396-4.002-4.795-4.002-4.795s-1.331-3.674-.174-3.037z"/><ellipse cx="1511.083" cy="2112.729" rx="7.02" ry="7.193"/><ellipse cx="1556.829" cy="2112.729" rx="5.718" ry="6.234"/><path fill="#FFD001" d="M1496.789 2139.539s-27.813 18.986-8.838 40.086c14.901 28.533 87.852 35.086 102.452 0 8.013-12.947-6.641-39.32-16.432-40.891"/><path fill="#FFE100" d="M1498.867 2085.075s-31.19 24.571-3.64 54.987c7.278 9.314 47.479 33.407 77.976 1.758 15.94-14.228 2.807-43.561-1.039-48.113-12.996-13.107-41.935-29.572-73.297-8.632zm-17.154 68.575s-10.917 12.469 2.599 20.461c11.091 1.918 11.782-11.351 11.263-13.588s-2.426-11.827-13.862-6.873zm104.832-.159s-9.701 15.023 4.506 21.897c6.585.479 7.972-10.55 4.853-16.145-3.121-5.593-4.335-7.191-9.359-5.752z"/><path fill="none" stroke="#6B5C09" stroke-miterlimit="10" stroke-width="3" d="M1495.229 2140.063s-28.071-32.129 7.277-58.023c0 0 32.923-18.063 60.301 3.996 27.379 22.061 16.979 46.354 12.821 54.028 10.396 5.436 10.859 10.487 12.13 11.829 10.916.318 14.381 19.822 5.328 23.268a92.62 92.62 0 0 1-.476 1.351c-2.773 21.1-69.657 49.552-107.953 0 0 0-.696-.604-1.672-1.655-5.604-2.181-11.89-15.072.806-23.602 6.065-10.234 11.438-11.192 11.438-11.192z"/><path fill="#FD8212" d="M1513.076 2125.678s7.104 0 11.437-3.356c4.334-3.356 14.035-6.554 22.698 1.679 1.04 1.038 6.586 3.915 10.226 3.756 3.639-.158-4.334 6.874-4.334 6.874s-5.565 7.832-15.777 8.151c-13.852.318-18.497-8.986-22.516-13.268-.863-1.458-1.605-1.597-1.734-2.88a5.219 5.219 0 0 1 0-.956z"/><path fill="#F2740F" d="M1514.636 2126.477s13.862 8.951 40.027 2.397c2.773-1.119 1.906.959 1.214 1.918-.694.959-7.104 9.271-15.075 11.349-13.688 2.398-19.724-5.436-21.99-7.832-2.27-2.396-4.002-4.795-4.002-4.795s-1.331-3.674-.174-3.037z"/><ellipse cx="1511.083" cy="2112.729" rx="7.02" ry="7.193"/><ellipse cx="1556.829" cy="2112.729" rx="5.718" ry="6.234"/></g><path id="sd1" fill="#C6CD23" d="M1777.871 2069.98L1309 2084.5l-7.422 51.804-57.078-16.804-7-90.5 543.5 19.5-3.129 21.48zm-292.538 180.233c-16.5-15-35.333-87.713-41.833-106.213-8 12 8.333 81.213 8.333 81.213s50 40 33.5 25zM1604 2184.5s-.966 60.741-5.966 64.741 15.5-13 15.5-13-.034-46.241-7.034-51.741-2.5 0-2.5 0z"/><path fill="none" stroke="#000" stroke-miterlimit="10" stroke-width="6" d="M1781 2048.5l-7.5 51.5 12 26c-15 1.5-78.5 37-89 43s-81.5 57.5-84 65c-22.5 38-77 31.5-84 31s-45.5-4.5-78.5-42.5c-123-93-205.5-103-205.5-103l-7-90.5 543.5 19.5z"/></svg>