<svg xmlns="http://www.w3.org/2000/svg" id="tail" viewBox="0 0 3000 3000"><path id="cl1" fill="#D47B3F" d="M784.32 2269.81s31.263 15.945 43.022-46.543c11.759-62.49 18.943-82.965 28.594-104.672 9.653-21.704 29.606-53.376 49.308-73.901 19.7-20.528 41.761-53.037 92.645-16.415 0 0 30.825 16.023 62.895 95.663 32.068 79.637 73.932 125.231 93.664 142.26 19.729 17.025 69.306 50.745 122.126 34.199 52.821-16.545 95.632-57.23 118.72-93.996 23.088-36.764 30.29-157.578 30.282-168.963-.009-11.387-19.556-170.968-44.928-219.478-25.373-48.509-38.045-92.424-77.94-100.731-39.896-8.307-49.398 7.604-47.225 19.66 2.172 12.056 68.82 107.193 83.333 140.341s40.945 76.582 43.69 140.01c2.746 63.429 4.702 98.768-13.309 146.279-18.011 47.51-78.189 112.093-174.922 56.574 0 0-55.97-41.204-73.245-70.97-17.276-29.769-75.096-133.937-102.805-155.554-27.711-21.618-76.009-50.042-159.523 38.606-83.516 88.648-95.163 134.778-100.542 151.596-5.377 16.819-16.948 58.54 25.433 86.82"/><path fill="#533019" d="M1319.067 1800.508c5.211 6.149 7.618 11.4 7.225 15.757.44 9.609-3.012 17.798-10.106 24.555-10.105-20.237-21.066-42.954-36.887-59.76 17.488 3.213 28.775 8.681 39.768 19.448m56.372 109.002l-.797-1.103c-7.647-7.309-17.124-13.165-28.558-17.559l17.671 43.087c6.746-2.844 11.619-6.935 14.556-12.208 1.288-4.013.247-8.124-2.872-12.217m16.786-56.27c-.762-4.938-2.219-10.04-4.256-15.433-20.429 6.778-29.527 12.169-27.42 16.176 6.225 7.932 16.783 7.644 31.676-.743m-366.857 144.393c4.118 11.916 6.929 24.197 8.497 36.907 6.617.304 11.292-2.395 14.211-8.172-5.249-10.299-12.799-19.941-22.708-28.735m-14.03 46.347c-2.197-19.1-12.475-38.891-30.886-59.177 2.952 12.656 3.318 26.795 2.54 34.186l28.224 21.852m-119.567-37.887l-15.857 14.274c6.982 3.186 13.905 4.863 20.898 5.153 9.07.272 11.807-2.161 8.016-7.359-3.786-5.073-8.094-9.055-13.057-12.068m209.03 194.906c-5.184-23.071-10.694-43.175-10.815-63.866-8.097 2.079-14.005 8.603-17.721 19.696l25.644 45.856m110.917 27.469c.019.502.159.875.23 1.062 5.523 10.916 9.55 23.717 12.022 38.591 1.274 3.599 4.521 2.968 9.678-1.827 6.938-5.935 9.024-15.264 6.139-27.857l-28.069-9.969m159.398-16.208c.963-4.315-2.827-11.086-11.045-20.136l-12.574 16.222 14.437 8.742c4.718 3.274 7.8 1.644 9.182-4.828m-215.843 4.588c7.703-5.713 15.432-9.1 22.936-10.273l-20.84-18.053c-6.25 5.845-9.687 12.836-10.243 21.036.856 9.025 3.592 11.432 8.147 7.29m25.986 70.503c-3.994-15.19-9.006-32.293-15.043-51.431-2.819-1.274-5.276.207-7.053 4.616-3.915 9.215-5.339 17.824-4.137 25.956l26.233 20.859m65.216 20.334c20.908.563 41.949-5.047 63.131-16.699-15.109-14.692-31.948-22.146-50.644-22.479-5.034-.054-8.884 2.804-11.612 8.634-3.092 9.368-3.386 19.507-.875 30.544m149.322-347.644c-2.054 3.792-1.041 7.149 2.898 9.7 5.257 4.134 13.473 5.069 24.461 3.002-2.69-9.268-2.458-14.499-5.162-27.289-11.684 3.605-19.043 8.423-22.197 14.587m10.336 88.48c-3.172-19.88-10.679-34.809-22.843-44.96l4.475 70.594c4.769-.313 9.402-2.446 13.894-6.648 4.006-3.681 5.457-9.965 4.474-18.986m-23.986 130.721c.622 9.411 5.814 19.901 15.576 31.345 7.699-15.4 13.615-34.505 18.067-57.265-11.568.203-20.01 3.052-25.335 8.42-5.995 5.959-8.847 11.796-8.308 17.5m-524.303-56.945l11.366-22.906c-18.787-2.596-34.699-.963-47.681 4.833 13.306 5.642 25.37 11.708 36.315 18.073m-57.578 52.334c12.958 1.568 15.934-1.128 9.055-8.093-9.565-9.688-19.542-17.095-29.875-22.288l-10.955 23.769c8.695 3.56 19.29 5.848 31.775 6.612m18.488 86.213c7.798-16.034 12.092-28.406 12.752-37.239-17.28-20.331-43.235-24.468-77.678-12.483-3.997 18.337 5.377 37.532 27.427 59.123 14.832 6.084 27.696 5.263 37.499-9.401"/><path id="sd1" d="M776.192 2264.719s14.162 3.406 27.073-21.823c12.91-25.229 7.316-74.707 25.886-109.595 18.568-34.89 44.452-96.55 84.645-119.076 40.192-22.53 54.579-24.605 87.15 2.233l19.102 33.029s-36.853-36.484-54.568-37.486c-17.716-1.002-36.936-.246-69.24 40.469-32.308 40.711-35.793 54.437-39.997 65.926-4.203 11.488-22.428 63.158-24.623 77.714-2.197 14.556-6.751 57.07-23.287 70.114-16.535 13.043-32.141-1.505-32.141-1.505zm376.779-.848s69.158 46.977 138.79 14.86c69.633-32.115 79.563-56.348 98.457-87.789 18.895-31.44 18.979-120.458 21.355-140.054 2.374-19.594-7.756-101.226-14.419-121.912-6.665-20.687-47.575-133.188-56.141-147.889-8.568-14.697-19.17-44.349-55.153-65.142 0 0 28.176-3.372 53.13 23.326 24.955 26.695 51.284 109.139 55.024 119.497 3.741 10.359 27.338 114.485 28.224 135.398.823 20.977 7.682 126.581-19.672 192.45-27.353 65.87-96.474 120.611-154.487 118.678-55.43-1.844-95.108-41.423-95.108-41.423z" opacity=".25"/><path fill="none" stroke="#000" stroke-miterlimit="10" stroke-width="6" d="M784.32 2269.81s31.263 15.945 43.022-46.543c11.759-62.49 18.943-82.965 28.594-104.672 9.653-21.704 29.606-53.376 49.308-73.901 19.7-20.528 41.761-53.037 92.645-16.415 0 0 30.825 16.023 62.895 95.663 32.068 79.637 73.932 125.231 93.664 142.26 19.729 17.025 69.306 50.745 122.126 34.199 52.821-16.545 95.632-57.23 118.72-93.996 23.088-36.764 30.29-157.578 30.282-168.963-.009-11.387-19.556-170.968-44.928-219.478-25.373-48.509-38.045-92.424-77.94-100.731-39.896-8.307-49.398 7.604-47.225 19.66 2.172 12.056 68.82 107.193 83.333 140.341s40.945 76.582 43.69 140.01c2.746 63.429 4.702 98.768-13.309 146.279-18.011 47.51-78.189 112.093-174.922 56.574 0 0-55.97-41.204-73.245-70.97-17.276-29.769-75.096-133.937-102.805-155.554-27.711-21.618-76.009-50.042-159.523 38.606-83.516 88.648-95.163 134.778-100.542 151.596-5.375 16.82-16.936 61.94 26.16 86.035z"/></svg>