<svg xmlns="http://www.w3.org/2000/svg" id="tail" viewBox="0 0 3000 3000"><path id="cl1" fill="#C00000" d="M1586.965 2019.372c-.37-1.558-.927-3.261-3.446-3.781-4.165 6.369-4.97 13.909-5.626 21.264-2.081 24.526-5.972 48.778-11.246 72.786-11.541 52.115-28.945 102.029-56.482 148.093-23.991 40.112-54.097 74.758-94.294 99.293-44.349 27.098-92.985 41.904-144.815 45.707-72.255 5.338-133.123-19.021-183.138-71.32-28.812-30.096-47.78-66.449-66.521-102.998-1.801-3.488-.965-4.863 3.067-5.721 1.07-.223 2.204.054 3.317.163.842-.022 1.5.484 2.29.72l3.308.082c3.854-3.54 8.175-4.771 13.521-4.616 10.252.199 18.64-3.586 22.916-13.688 2.552-7.091.002-13.101-3.794-18.951-8.105-12.395-19.359-21.678-31.1-30.14-36.242-26.096-75.768-46.19-116.657-63.743-7.602-3.246-9.191.17-10.24 5.8-.346 1.903-.089 3.898-.092 5.844-.023 10.313-.13 20.64-.153 30.954-.025 23.417-1.143 46.889 1.276 70.243.539 13.37 2.875 26.255 6.979 39.079 8.514 26.712 26.793 29.513 47.252 20.368 7.587-3.429 13.588-8.682 17.824-15.82 1.935-2.7 2.525-5.988 3.75-8.935.507-.658.92-1.387 1.709-1.827.499-.065.904-.201 1.381-.431 3.874-1.43 5.061 1.884 6.442 4.07 13.833 22.73 29.064 44.519 46.537 64.666 18.464 21.287 38.213 41.395 59.609 59.853 26.07 22.589 54.969 40.25 88.394 49.721 60.966 17.246 120.533 11.178 179.03-11.068 59.379-22.609 104.913-63.47 144.607-111.606 10.525-12.767 19.362-26.837 28.855-40.4l-.072.093c.131-.945.732-1.531 1.334-2.115 23.018-36.521 39.432-75.741 46.871-118.37 5.802-33.035 4.823-66.212.725-99.322-.612-4.745-2.136-9.366-3.318-13.947z"/><path id="sd1" fill="#890000" d="M988.024 2237.7c.231-2.142.002-4.563 2.379-5.799 2.393.197 3.087 2.306 3.966 3.883 29.572 49.776 68.049 91.898 111.685 129.467 48.582 41.834 105.337 59.201 169.01 55.477 58.132-3.434 110.661-22.797 158.534-55.337 24.632-16.78 45.703-37.584 65.614-59.506 12.954-14.262 24.864-29.405 35.46-45.563 1.841-2.772 3.659-5.711 6.648-7.449-1.984 6.257-6.166 11.191-9.712 16.466-22.417 33.315-48.839 63.093-79.36 89.254-35.167 30.142-75.381 50.622-119.951 62.874-33.478 9.13-67.507 12.672-102.032 9.09-49.097-5.169-91.667-24.618-128.609-57.47-42.859-38.092-81.054-79.996-109.651-130.067-1.089-1.887-2.654-3.547-3.981-5.32zm-70.992 15.148c7.444 21.694 20.453 27.539 41.664 18.976 10.683-4.336 19.288-11.023 22.487-22.93-8.156 6.883-17.067 12.511-27.654 14.975-15.272 3.488-26.03-1.296-33.465-15.043-4.439-8.22-6.76-17.05-8.188-26.162-.916-5.799-.99-11.621-2.738-17.313-.439 16.284 2.627 32.202 7.894 47.497zm131.292-27.989c12.409-1.429 18.534-7.036 21.646-19.609-8.504 8.788-19.156 10.075-30.618 9.017-3.162-.269-7.528-2.664-9.369.109-2.346 3.429 2.312 6.125 3.644 9.25 4.728 1.926 9.698 1.793 14.697 1.233zm-20.377-2.023c.791.237 1.499.483 2.29.719-.791-.236-1.582-.471-2.29-.719zm-41.305 15.296c-.601.586-1.108 1.242-1.709 1.826.591-.668 1.191-1.251 1.709-1.826zm556.033 12.792c-.414.729-.921 1.387-1.333 2.116.787-.441 1.285-1.181 1.333-2.116z"/><path fill="none" stroke="#000" stroke-miterlimit="10" stroke-width="6" d="M1027.947 2222.836c-1.103-.027-2.248-.386-3.317-.163-4.032.856-4.869 2.233-3.067 5.719 18.74 36.551 37.709 72.901 66.521 102.999 50.014 52.299 110.882 76.659 183.138 71.321 51.829-3.805 100.372-18.682 144.813-45.706 40.199-24.538 70.304-59.183 94.295-99.294 27.549-45.98 44.951-95.893 56.482-148.093 5.273-24.008 9.165-48.26 11.244-72.787.659-7.353 1.379-14.883 5.629-21.264 2.519.522 2.992 2.235 3.445 3.783 1.182 4.58 2.695 9.119 3.308 13.858 4.097 33.11 5.076 66.286-.726 99.322-7.522 42.639-42.967 111.95-46.873 118.37l-10.973 18.488c-22.415 33.316-48.837 63.091-79.361 89.255-35.165 30.141-75.379 50.621-119.95 62.873-33.477 9.131-67.506 12.67-102.03 9.089-49.098-5.169-91.667-24.617-128.611-57.471-42.859-38.091-81.053-79.994-109.65-130.065-1.088-1.889-2.523-4.493-3.981-5.32-.863-.142-1.069.224-1.381.434-.685.594-1.615 1.898-2.325 3.595-1.114 2.51-3.537 7.979-4.213 10.601-4.593 11.58-11.782 16.141-21.325 19.484-21.61 7.433-34.208 2.802-41.663-18.976-5.268-15.295-8.333-31.213-7.813-47.509-2.334-23.365-1.217-46.837-1.274-70.243.023-10.314.129-20.641.152-30.955.004-1.943-.254-3.94.092-5.843 1.05-5.631 2.638-9.047 10.241-5.8 40.888 17.552 80.414 37.647 116.657 63.743 11.739 8.46 22.994 17.745 31.099 30.14 3.797 5.851 4.742 13.844 3.794 18.951-3.604 9.424-7.534 17.622-21.647 19.609-5.341.521-20.73-2.145-20.73-2.145z"/></svg>