<svg xmlns="http://www.w3.org/2000/svg" id="tail" viewBox="0 0 3000 3000"><path id="cl2" fill="#B59077" d="M836 2121.9c3.5 2.6 6.9 5.3 10.4 7.9 5.7 9.1 15.5 13.5 23.9 18.9 29.2 19 59.2 36.8 90.6 52.1 35.2 17.2 71.6 31.3 110.2 38.9 41.4 8.1 77.6-3.9 110.7-28.3 37.4-27.6 67.1-62.6 94-100 30.5-42.4 56-87.6 77.7-135 9.3-20.5 16.1-42.1 27.3-61.9 22.2-39.3 53.8-68.3 95.2-86.1 20.4-8.7 40.4-7.6 58.3 7.2.6.8 1.2 1.6 1.8 2.3 4.4 15.4.5 28.6-10.4 40-5.5 5.8-12 9.6-20 9.9-25.7 1-42.9 16.2-58.2 34.5-44.7 53.5-79.1 114.2-117.8 171.8-19.2 28.6-38.4 57.2-60.8 83.3-31.7 36.8-68.1 67.5-117.1 79.4-41 10-81 4.3-120.6-7.2-47-13.6-89.4-37.3-132-60.6-25.7-14.1-50.5-29.5-75.7-44.4-1.4-1-2-2.4-2.3-4-.2-2.2-.8-4.3.1-6.5 4-5.1 4.2-15 14.7-12.2z"/><path id="cl1" fill="#3C281A" d="M836 2121.9c-5 3.6-7.7 8.7-10.1 14.1-1.2 1.2-.8 2.9-1.6 4.3 0 1.1.1 2.3.1 3.4.4.9.3 1.8-.6 2.4-.6 0-1.2-.1-1.8-.3-3.7-2.4-6.2-.7-8 2.6-1.9 3.3-4.6 6-8.2 6.7-20 4-40 7.8-57.6-7.2-13-14.5-19.7-32.4-25.8-50.4-9.5-28.1-15.7-57.1-20.3-86.5-.4-2.3-.3-4.7-.4-7 3.3-3.5 7.7-2.5 11.3-1.6 32.9 8.4 66.2 15.7 97.6 29.4 13.5 5.9 25.6 13.7 37.7 21.9 3.3 2.6 4.9 6.2 5.8 10.2 3.8 12.9.1 24.6-7.2 34.9-3.9 5.4-6.9 10.9-9 17.1-1.5 1.7-1.8 3.8-1.9 6z"/><path id="sd2" fill="#715A4A" d="M823.9 2146l.6-2.4c12.9 7.5 25.8 15.1 38.8 22.6 42.1 24.4 84.4 48.5 129.4 67.1 34.4 14.2 70.1 23.4 107.5 24.5 47 1.4 88.2-14.4 124.6-43.6 22.2-17.9 41-39 58.2-61.5 34.1-44.5 63.6-92 94.1-139 20.1-31 40.6-61.8 63.9-90.6 5.3-6.5 11.1-12.4 17-18.3 11.6-11.7 24.8-19.6 42-20.6 17.7-1 28.3-11.8 34.5-27.6 2.4-6.1 1.6-12.5 1.6-18.8 11 19.7-2.2 53.4-30.9 54.6-16 .7-28.6 7.7-40 18.1-16.6 15.1-30 33-43.1 51.1-28.1 38.9-53.1 79.8-79.4 119.9-21.6 32.8-43.5 65.5-68.6 95.8-23.3 28.2-49.5 53-82.6 69.7-31.9 16-65.5 21.4-100.9 17.8-36.5-3.7-71.2-13.8-104.4-29-56.2-25.8-109.9-56.6-162.3-89.8z"/><path id="hl2" fill="#C6A48B" d="M1534.3 1835.6c-1.7.7-3.2.2-4.7-.6-19.2-10.4-38.3-8.9-57.5 0-21.4 9.9-40.7 23-57.2 39.6-21.8 22-38 47.8-49 76.9-11.5 30.6-25.9 59.8-41.6 88.5-18.8 34.3-40.1 66.8-64.1 97.6-25.2 32.4-52.9 62.7-87.6 85.2-16.8 10.9-34.7 20.2-55 22.6-19.7 2.3-39.2.4-58.5-4.1-25.4-5.9-49.7-15-73.5-25.4-40.4-17.6-78.1-40.1-115.2-63.8-8.1-5.2-15.9-10.9-23.8-16.5-2.4-1.7-4.5-3.7-.2-5.8 18 11.4 35.7 23.2 54 34.2 40.6 24.5 82.6 46 127.9 60.6 19.7 6.4 39.8 10.8 60.5 12.7 24.4 2.2 46.9-4.2 68.1-15.6 29.2-15.6 53.6-37.3 75.4-61.8 57.2-64 100.7-136.5 132-216.3 17.2-43.8 43.4-80 83.3-105.6 10.7-6.8 22-12.5 34-16.7 18.1-6.3 39.7-1.7 50.8 10.9.7.9 1.2 2.2 1.9 3.4z"/><path id="hl1" fill="#473020" d="M848.3 2053.7c-2.2.9-3.9-.2-5.6-1.3-32.9-20.7-69.6-31.4-107-40.3-11.3-2.7-22.6-5.4-34-8.1-1.2-7.5-1-8 5.6-6.6 28.1 5.7 55.9 12.8 82.9 22.5 15.3 5.6 30.6 11.4 44.2 20.9 5.3 3.7 10.3 7.6 13.9 12.9z"/><path id="sd1" fill="#251911" d="M748.3 2147.8c15.1 9 31.6 6.5 47.7 5.4 6.7-.5 12.6-3.8 16.9-9.6 4.6-6.2 5.5-5.9 9.3 2.1-1.5.8-3 1.6-3.5 3.3-3 9.6-11.1 11.9-19.5 12.6-9.2.8-18.6.8-27.7 0-9.7-.8-17.5-5.9-23.2-13.8zm104.1-50.5c5.7-10.8 7.1-21.9 1.7-33.4 1 14.2-4.2 26.3-13.7 36.2-5 5.3-6 9.8-2.5 15.7 6.6-4.8 10.8-11.5 14.5-18.5z"/><path fill="none" stroke="#000" stroke-miterlimit="10" stroke-width="6" d="M1536.1 1837.9c-.9-1.8-3-4.8-3.8-5.7-11.1-12.6-32.7-17.2-50.8-10.9-12 4.2-23.3 9.9-34 16.7-39.9 25.6-66.1 61.8-83.3 105.6-31.3 79.8-74.8 152.3-132 216.3-21.9 24.5-46.3 46.1-75.4 61.8-21.3 11.4-43.7 17.8-68.1 15.6-20.6-1.9-40.7-6.3-60.5-12.7-45.3-14.6-87.3-36.2-127.9-60.6-18.2-11-36-22.8-54-34.2 0 0-6.8-4.6-10.4-7.9-1.8-1.9 0-4.5 1.9-6 6.6-4.8 10.8-11.6 14.5-18.6 5.7-10.8 7-21.9 1.7-33.4-3.8-7.5-14.4-19.4-19.6-23.1-13.6-9.4-28.8-15.3-44.2-20.9-27-9.8-54.8-16.8-82.9-22.5-6.7-1.4-5.5 10.7-5.3 13.6 2.9 29.6 10.7 58.4 20.3 86.5 6.1 18 12.8 35.8 25.8 50.4 5.8 7.8 13.5 13 23.1 13.8 9.2.8 18.5.7 27.7 0 8.4-.7 15.9-3.2 19.5-12.6 1.4-3.7 3.7-3.8 5.3-3 52.4 33.2 106 64 162.4 89.8 33.2 15.2 67.9 25.3 104.4 29 35.3 3.6 69-1.8 100.9-17.8 33.1-16.6 59.3-41.4 82.6-69.7 25-30.4 47-63 68.6-95.8 26.3-40.1 51.3-81 79.4-119.9 13.1-18.1 26.5-35.9 43.1-51.1 11.4-10.4 23.9-17.4 40-18.1 28.8-1.2 42-34.9 31-54.6z"/></svg>