<svg xmlns="http://www.w3.org/2000/svg" id="tail" viewBox="0 0 3000 3000"><path id="cl1" fill="#D47B3F" d="M741.5 2069.5s22-45.5 70.5-58 105.5-18 166 31.5 89.7 109.3 142 128.5c49 18 125.7 14.7 165.5-66.5 0 0 30.5-63.5 40-119.5s15-97 29.5-113 81.5-67 130.5-29c0 0 28 34.7-9.5 55 0 0-17 .8-31-1-12.1-1.6-29.2 11.2-36.5 19s-33.8 39.2-43.5 76-11.8 46.3-16 77.2-24.8 83-48 105.3-45.3 39.3-76 46.3-95.2 14.8-152.5-15.3-103.2-76.2-106.2-79.2-48-54.3-108.8-41-57.6 20.4-89.2 24.7c-40.6 5.5-26.8-41-26.8-41z"/><path fill="#533019" d="M793.5 2061.7c7.7 15.2 9.7 39.8 9.7 39.8-18.8 7.8-35.8 9-46.3 9.1s-18.9-6.6-16.6-32.2 33.2-46.2 33.2-46.2 12.3 14.3 20 29.5zm616.4-203.4c-2.2 3.1-3.9 7.1-5 12-1 5.6-1.5 11.3-1.4 17 .2 5.8.6 11.5 1.4 17.3.5 4.7 1.2 9.2 2.1 13.8 9.3-9 20.9-15.8 34.6-20.5-3.2-6.1-5.8-11.9-7.7-17.1-1.2-3.5-2.6-6.8-4.1-10-1.4-2.9-2.9-5.7-4.5-8.5-.6-.8-1.5-2.5-2.9-5.2-1.4-2.6-3.4-3.9-5.7-3.8-2.5.2-4.7 1.8-6.8 5m-45.2 58.2c-4.5-.5-12.7-7.7-24.8-21.7l14-25.8c7.9 10.5 12.5 21.5 13.6 32.8 1.2 11.2.2 16.1-2.8 14.7m-15 49.3c8.6 3.8 16 8 22.1 12.3l-9 19.2c-8.1-9.3-14.9-19.2-20.5-29.8-2.1-4.3.4-4.9 7.4-1.7m-31.3 36.3c5.4 4.2 10.1 9.9 14.2 17.2 4.5 10.7-2.6 13.4-21.1 8.4l6.9-25.6m27.4 74.7c-.1 9.8-2.3 18.8-6.3 27.1-8.6-7.8-14.8-17.4-18.6-29.2-2.7-13 5.6-12.2 24.9 2.1m-164.6 122.1c3.3-5.3 6.4-6.8 9.2-4.3 7.4 10.5 11.8 20.8 13.3 31l-29.6 2.2c.5-11.6 2.9-21.2 7.1-28.9m-33-19.9c-2.4 7-5.2 13.4-8.5 19.1-3.2 5.8-6.5 7-9.7 3.8-5.5-7.5-9.5-17.7-11.8-30.6l29.7 7.5m129.4-23.2c8.4-12.9 19.8-12.3 34.4 2-10.9 18.5-25.7 33.4-44.3 44.6-1.9-17 1.4-32.5 9.9-46.6m33.2-58.8c-2.1 19.8-11.7 23-28.7 9.4l20.2-43.8c7.1 9.6 10 21.1 8.5 34.4m-485.7-90c12-3.5 24.4-5.2 37.3-4.9-7.4 47.8-14.9 66.2-22.5 55.2-7.8-16.8-12.7-33.5-14.8-50.3m109.6 35.1c4.1-5.2 6.3-4.6 6.8 1.8 1.5 22.6 2.3 44.1 2.3 64.6l-28-19.3c4-17.1 10.3-32.8 18.9-47.1m170.3 122.4c-3 8.4-5.9 13.7-8.7 15.8-3.9 2.3-7.3 1.6-10.2-2.1-5.8-9.4-9.1-20.7-9.8-33.7l28.7 20M982.1 2113c-1.3-3.2-1.5-8-.8-14.6 2-13.1 6.4-25.9 13.2-38.3.8.2 8.4 8.4 22.7 24.5l-15.5 18.2c-9.8 10.9-16.4 14.3-19.6 10.2m34.8 18.6c3.5-1.4 6.5 1.5 9.1 8.7 3.9 14.2 6.1 28.9 6.7 44.1l-35.4-28.9c5.8-11.4 12.3-19.4 19.6-23.9"/><path fill="none" stroke="#000" stroke-miterlimit="10" stroke-width="6" d="M740.5 2069.5s22-45.5 70.5-58 105.5-18 166 31.5 89.7 109.3 142 128.5c49 18 125.7 14.7 165.5-66.5 0 0 30.5-63.5 40-119.5s15-97 29.5-113 81.5-67 130.5-29c0 0 28 34.7-9.5 55 0 0-17 .8-31-1-12.1-1.6-29.2 11.2-36.5 19s-33.8 39.2-43.5 76-11.8 46.3-16 77.2-24.8 83-48 105.3-45.3 39.3-76 46.3-95.2 14.8-152.5-15.3-103.2-76.2-106.2-79.2-48-54.3-108.8-41-57.6 20.4-89.2 24.7c-40.6 5.5-26.8-41-26.8-41z"/><path id="sd1" fill="#070200" stroke="#533019" stroke-miterlimit="10" d="M740 2082.5s-3 28.5 18 28 72.5-16.5 92.5-22 52.5-18.5 107.5 31 98.5 92 175.5 106.5 138.5-22.5 151.5-34.5 49.5-52.5 64-117 7.5-86.5 39-129.5 40-48.5 64-47.5 53.3-5.5 36.7-49.8c0 0 1 17.3-19.7 22.3s-34.7-8-58 10.7-43.7 56.7-55.3 92-11 85.7-27.3 120-37 79.7-115.7 103.3-166.7-24-188-39-84-78.7-109.3-89.7-36.3-14.7-75.3-6-52.7 18-70 20-30.1 1.2-30.1 1.2z" opacity=".25"/></svg>