<svg xmlns="http://www.w3.org/2000/svg" id="tail" viewBox="0 0 3000 3000"><path id="cl2" fill="#B59077" d="M926.581 2324.041c4.953-25.296 18.288-46.107 34.688-65.223 11.381-13.371 23.485-26.198 38.666-35.582 2.435-.188 4.414-1.573 6.206-2.838 26.966-18.915 57.359-25.935 89.664-26.949 4.132-.113 8.597.781 12.455-1.817 3.424-.882 6.888-1.043 10.41-.124 19.347 2.833 38.958 1.29 58.395 2.201 64.573 2.947 127.188-9.664 189.809-23.666 45.857-10.196 89.255-28.813 135.309-37.967 20.004-3.98 40.212-8.305 60.844-3.32 12.832 3.05 23.103 10.044 31.252 20.432 2.388 3.036 1.881 6.452 1.234 9.904-9.101 23.079-26.871 34.882-52.497 29.503-28.407-5.977-55.729-1.208-83.403 2.191-57.97 7.109-115.435 17.884-174.016 20.914-53.592 2.842-106.642-2.707-159.797-6.11-20.263-1.282-40.417-1.571-60.42 2.409-26.598 5.313-48.521 19.425-68.619 36.938-32.229 26.84-51.129 61.204-56.946 102.713-1.18 7.898-1.382 15.908 2.494 23.308-2.213 7.287-7.524 5.66-12.78 4.53-5.566-3.751-7.148-9.331-6.848-15.541.514-9.918.805-19.849 2.658-29.672-1.081-2.496 1.978-3.941 1.242-6.234z"/><path id="hl3" fill="#715A4A" d="M996.673 2244.885c1.212-3.231 3.924-5.464 6.397-7.487 21.812-17.662 45.575-31.152 74.231-33.855 26.308-2.464 52.586-1.926 78.758.757 70.281 7.247 140.322 7.034 210.082-3.912 38.478-5.961 77.317-9.387 115.544-16.889 17.453-3.397 35.031-3.469 52.634-.04 3.933.813 7.881 1.402 11.86 1.547 21.375.777 39.778-4.032 49.161-26.016-1.628 14.949-9.292 25.173-23.801 30.076-12.217 4.166-24.438 5.194-37.235 2.282-10.323-2.382-20.757-3.2-31.64-2.079-54.327 5.66-108.078 15.26-162.385 21.279-51.686 5.71-103.521 7.151-155.448 2.846-24.917-2.056-49.731-4.284-74.628-5.98-37.971-2.566-72.637 6.575-102.776 30.47-3.288 2.818-6.179 6.336-10.754 7.001zm-70.299 116.082a3813.166 3813.166 0 0 0-1.071-30.828c-5.417 12.712-5.648 26.279-7.031 39.632 4.29.21 8.521 1.896 12.907 1.351-3.977-2.117-4.69-6.023-4.805-10.155z"/><path id="cl1" fill="#3C281A" d="M950.127 2370.698c9.329-.065 19.108-2.071 27.867 2.173 19.515 9.435 25.974 20.914 22.267 47.644-3.004 21.802-11.49 49.541-13.168 52.382-12.65 20.635-23.2 42.626-38.727 61.444-6.557 6.58-11.493 2.155-15.814-2.72-21.745-24.34-41.986-49.649-56.699-79.012a244.61 244.61 0 0 1-13.321-31.327c-2.871-8.315-4.508-16.948-3.884-25.87 5.814-22.232 26.313-33.934 49.114-27.901 3.47 1.004 39.728 3.719 42.365 3.187z"/><path id="sd1" fill="#251911" d="M858.734 2395.463c8.468 36.592 27.021 68.105 48.821 98.053 9.003 12.285 18.708 24.172 29.092 35.299 3.041 3.307 5.969 7.591 11.718 5.527-.986 1.275-1.85 2.739-3.008 3.913-6.232 6.424-7.191 6.67-13.716.609-13.738-12.526-25.364-27.058-36.188-42.16-14.719-20.307-25.763-42.508-33.749-66.154-3.869-11.345-6.282-22.99-2.97-35.087z"/><path id="hl2" fill="#473021" d="M990.424 2463.716c-5.747 9.729-11.442 19.374-17.188 29.104 5.819-16.539 11.76-32.89 17.168-49.323 4.266-12.927 7.178-25.725 6.067-39.969-1.209-16.043-14.704-25.64-27.283-29.119-4.176-1.189-8.55-1.45-12.855-1.438-2.332.017-4.715.118-6.207-2.271 33.816-13.013 56.703 12.931 55.308 36.729-1.114 19.781-5.615 38.608-15.01 56.287z"/><path id="hl1" fill="#C6A48A" d="M1594.193 2149.136c-5.425-3.204-10.951-6.235-16.273-9.611-12.059-7.702-25.294-9.479-39.284-8.799-29.831 1.545-58.607 9.17-86.688 18.368-20.789 6.885-41.176 15.054-62.667 19.782-20.396 4.445-41.053 8.157-61.589 12.056-16.905 3.255-33.947 6.546-50.938 9.751-16.357 3.115-32.718 5.647-49.455 5.866-32.582.501-65.207-.302-97.771-1.996-3.842-.179-8.174.862-10.981-3.233 23.852-.663 47.77-1.636 71.754-.361 7.326.377 14.613.035 21.95-.393 37.833-2.51 75.573-6.236 112.77-13.767 24.509-4.921 48.347-12.443 72.31-19.195 30.777-8.652 61.079-18.861 92.086-26.331 16.095-3.851 32.412-7.686 49.095-8.401 13.081-.52 25.968.471 37.995 6.064 8.897 4.209 15.508 10.32 17.686 20.2zm-487.27 42.402c-.995.109-1.953.356-2.881.157-.603-.356-1.271-.402-1.921-.09-.791-.234-1.561-.109-2.296.153l-.086-.052c-1.045.196-2.055.529-3.103.143-13.896-.658-27.726.93-41.253 3.974-20.547 4.705-39.196 13.667-55.481 27.277 1.59 4.19 3.624.746 5.025-.053 11.257-6.475 22.01-14.062 34.468-17.852 14.564-4.406 29.352-8.797 44.837-9.059 6.327-.096 12.616-.912 18.924-1.366 2.211-.205 4.959.256 5.071-3.277-.432-.253-.879-.284-1.304.045zm-2.932.243c.943-.023 1.937-.134 2.88-.157-1.033-.611-1.941-.449-2.88.157z"/><path fill="none" stroke="#020100" stroke-miterlimit="10" stroke-width="6" d="M918.385 2368.792s-24.154-5.903-38.463.628c-14.31 6.53-24.946 23.359-22.731 38.488 2.214 15.128 8.787 42.934 28.193 73.79 19.354 30.941 44.942 58.017 50.585 60.652 5.644 2.637 8.773-3.646 18.295-15.442 9.436-11.848 32.879-51.542 33.825-56.094.946-4.551 17.536-33.427 17.267-59.717-.268-26.289-11.363-45.85-47.528-42.819 0 0-11.775 3.614-15.798 2.168-3.938-1.396-4.544-39.5 12.076-71.379 16.569-31.791 31.081-43.777 47.834-56.413 16.754-12.636 47.272-36.189 98.196-35.497 50.924.693 77.157 7.011 108.565 7.907 31.409.896 90.792-.15 113.962-2.61 23.17-2.458 138.773-18.268 152.516-19.906 13.744-1.64 41.077-7.215 68.346.297 27.356 7.562 47.759-13.022 50.092-25.233 2.334-12.21 7.088-16.719-10.723-35.135-17.759-18.502-63.733-7.91-75.668-5.202-11.936 2.706-127.711 35.718-143.34 39.961-15.714 4.19-132.814 29.22-198.919 23.162 0 0-48.341.833-68.831 1.507-20.49.675-62.983 1.244-101.033 34.402-38.048 33.158-45.672 46.657-55.237 62.263-9.565 15.604-18.033 48.23-19.307 60.022-1.409 11.825-2.174 20.2-2.174 20.2z"/></svg>