<svg xmlns="http://www.w3.org/2000/svg" id="eyes" viewBox="0 0 3000 3000"><path id="cl1" fill="#010101" d="M1556.1 940.4c.8 8.4-1.9 15.5-8.6 21-3.8 3.1-8.2 4.3-13 3.6-12.4-1.8-21.1-12.8-20.3-25.4.5-7.6 3.4-14.3 8.8-19.4 4.8-4.5 10.6-7.9 17.9-5.1 8.6 3.3 13.1 9.8 15.1 18.3.5 2.2.1 4.6.1 7zm218.1 15.2c1.7 9.4 11.1 16.8 20.1 15.4 8.9-1.4 17.2-4.8 20.6-13.7 3.4-8.6 1.1-17-4.7-24.3-5.5-7.1-16.3-11-23.9-8.6-8.8 2.8-13 9.7-12.8 22.7.1 1.9.1 5.2.7 8.5z"/><path fill="none" stroke="#010101" stroke-miterlimit="10" stroke-width="6" d="M1556.1 940.4c.8 8.4-1.9 15.5-8.6 21-3.8 3.1-8.2 4.3-13 3.6-12.4-1.8-21.1-12.8-20.3-25.4.5-7.6 3.4-14.3 8.8-19.4 4.8-4.5 10.6-7.9 17.9-5.1 8.6 3.3 13.1 9.8 15.1 18.3.5 2.2.1 4.6.1 7zm218.1 15.2c1.7 9.4 11.1 16.8 20.1 15.4 8.9-1.4 17.2-4.8 20.6-13.7 3.4-8.6 1.1-17-4.7-24.3-5.5-7.1-16.3-11-23.9-8.6-8.8 2.8-13 9.7-12.8 22.7.1 1.9.1 5.2.7 8.5z"/></svg>