<svg xmlns="http://www.w3.org/2000/svg" id="eyes" viewBox="0 0 3000 3000"><path fill="#FFF" d="M1538.314 890.299c16.796.361 31.828 16.429 31.735 40.804s-1.159 52.107-11.077 65.107-29.163 19.858-43.975 10.119c-14.813-9.738-40.193-24.619-32.693-58.619s25.271-58.074 56.01-57.411z"/><path fill="#030302" d="M1519.945 946.704c.146 11.665 8.193 19.979 20.292 20.951 10.054.813 16.722-5.537 18.168-17.617.478-3.938.729-8 .452-11.948-.881-12.616-10.789-20.076-21.889-16.748-10.178 3.048-17.169 13.463-17.023 25.362z"/><path id="sd1" fill="#F4C74A" d="M1881.004 951.462c-2.517 10.511-4.935 20.104-8.995 29.126-6.573 14.611-16.488 24.985-27.857 33.051-14.55 10.322-29.588 14.176-44.845 14.164-13.483-.013-26.416-2.225-38.081-8.576-25.817-14.053-40.732-39.251-43.822-76.16-1.407-16.839 3.511-32.508 12.455-47.098 4.549-7.419 10.762-11.868 17.638-13.811 15.739-4.451 31.424-6.693 47.016-7.568 11.128-.625 22.241-.975 33.139.106 3.622.361 7.41.35 10.854 1.03 14.193 2.804 28.519 5.641 39.198 17.373 7.968 8.749 11.495 19.743 8.171 35.188-1.727 8.011-3.511 16.054-4.871 23.175z"/><path d="M1791.156 1027.83s-31.474-.887-51.785-26.023c-20.311-25.135-28.752-65.295-18.696-90.858 10.056-25.566 24.613-30.044 39.903-32.194 15.287-2.151 66.611-12.54 104.777 3.086 0 0-77.093-3.997-103.937 14.656-26.84 18.651-20.375 80.155-5.159 100.958 15.221 20.803 26.857 28.88 34.179 30.247" opacity=".1"/><path id="cl1" fill="#F8D759" d="M1759.854 879.276l38.969 79.206 84.063-58.196c7.738 11.29.78 33.283.78 33.283l-102.188 91.581c-18.903-.485-33.404-17.529-33.404-17.529l41.094-33.23-45.945-91.323c7.104-2.598 16.631-3.792 16.631-3.792zm38.299-4.741l17.883 38.229 40.396-31.906c0 .001-36.106-9.36-58.279-6.323z"/><path fill="none" stroke="#060705" stroke-miterlimit="10" stroke-width="6" d="M1881.004 951.462c-2.517 10.511-4.935 20.104-8.995 29.126-6.573 14.611-16.488 24.985-27.857 33.051-14.55 10.322-29.588 14.176-44.845 14.164-13.483-.013-26.416-2.225-38.081-8.576-25.817-14.053-40.732-39.251-43.822-76.16-1.407-16.839 3.511-32.508 12.455-47.098 4.549-7.419 10.762-11.868 17.638-13.811 15.739-4.451 31.424-6.693 47.016-7.568 11.128-.625 22.241-.975 33.139.106 3.622.361 7.41.35 10.854 1.03 14.193 2.804 28.519 5.641 39.198 17.373 7.968 8.749 11.495 19.743 8.171 35.188-1.727 8.011-3.511 16.054-4.871 23.175zM1500 905.5c8.613-8.96 20.741-13.716 31.172-15.068s22.012 1.487 27.799 9.612c12.853 18.043 14.963 44.097 12.029 67.681-2.181 17.532-8.395 35.705-26.197 40.99s-36.328-3.314-47.5-14.994c-12.143-12.695-16.211-24.765-16.667-42.487-.479-18.668 10.751-36.774 19.364-45.734z"/></svg>