<svg xmlns="http://www.w3.org/2000/svg" id="图层_1" viewBox="0 0 3000 3000"><g id="eyes"><path fill="#FCFCFC" d="M1529.828 1001.52c5.225-6.406 11.293-12.425 12.428-21.17.854-6.572 1.271-13.201 1.904-19.802 1.596-16.564 2.313-33.063-1.817-49.453-2.654-10.533-12.603-19.788-23.313-21.489-12.733-2.021-22.661 4.466-31.503 11.623-13.12 10.618-20.141 24.896-21.9 42.138-1.396 13.646-.362 26.396 6.532 38.338 2.479 4.295 5.433 8.315 8.167 12.458 2.984 2.03 6.025 3.792 9.649 4.703 10.023 9.122 22.375 5.937 33.557 8.936 2.111-2.083 4.433-3.997 6.296-6.282z"/><path id="sd1" fill="#FFF" stroke="#000" stroke-miterlimit="10" d="M1092.251 719.409L1088 736.75l4.5 7 472 110.75-12.5 175-436.25-117.48-5.5 5.85 4.338 21.38 3.162 6 725.75 180.25 9.75-2.25 7.25-28.25-4.307-3.512L1804 1077l-1-5.5 39-141.5s13.664 5.718 18.5 6.55c4.928.847 5.899-.581 9.5-4.05 5.796-5.583 4-29.5 4-29.5l-6.877-7.964L1117.251 726.5l-11-2-14-5.091z"/><path id="cl1" d="M1538.123 944.352c-.404 2.612-.621 5.271-1.246 7.83-2.521 10.321-9 16.245-17.473 16.161-8.169-.081-18.313-8.355-19.863-16.992-2-11.116.535-21.19 9.022-29.13 6.881-6.438 15.854-6.063 22.004 1.043 5.162 5.962 7.982 12.962 7.556 21.088z"/><path fill="none" stroke="#000" stroke-miterlimit="10" stroke-width="6" d="M1544.834 978.166c3.862-16.187 6.382-32.899 1.333-58.667-2.089-10.66-11.333-28.333-27.137-29.894-12.733-2.021-24.355 2.736-33.197 9.894-13.12 10.618-18.447 26.625-20.207 43.867-1.396 13.646-1.688 28.525 5.207 40.466 2.479 4.295 11 13.333 21 19.667s18.141 4.958 29.333 2c2.868-.757 18.021-3.666 23.668-27.333z"/><path fill="none" stroke="#000" stroke-miterlimit="10" stroke-width="6" d="M1519.673 917.661c11.201-.253 16.734 13.988 17.16 23.339s-5.987 27.332-17.16 26.5c-11.173-.834-19.506-8.166-19.673-26.334-.167-18.166 12.513-23.343 19.673-23.505z"/><path fill="none" stroke="#5E5E5E" stroke-miterlimit="10" stroke-width="6" d="M1551.474 1028.771c2.574-1.91 1.92-4.051 2.026-5.938 1.568-27.834 4.053-69.034 5.96-96.844 1.224-17.88 6.747-51.518 7.04-69.489.06-3.642-1.263-4.905-3.962-5.577-5.149-1.281-10.397-2.168-15.563-3.396-28.098-6.663-427.671-97.886-447.704-101.119-2.271-.362-4.552-1.184-6.601-2.23-4-2.051-6.033-10.748-3.157-18.166 2.9-7.483 7.948-6.284 15.536-4.348 9.863 2.516 12.031 2.635 18.451 4.462 27.332 5.53 182.956 41.619 210.143 47.762 38.832 8.77 77.709 17.342 116.522 26.191 42.079 9.598 84.096 19.471 126.161 29.119 31.688 7.271 63.42 14.359 95.121 21.57 29.754 6.77 59.495 13.58 89.237 20.391 32.011 7.327 94.641 20.819 100.395 22.354 8.523 2.271 12.804 10.021 13.181 16.879s-.226 8.96-1.006 14.207c-3.254 11.356-5.279 12.721-15.788 10.284-6.793-1.578-4.123-1.007-10.826-2.93-3.438-.985-5.553-.818-6.613 3.268-5.512 21.162-11.718 42.134-16.434 63.516-2.213 10.032-5.982 19.711-8.775 29.627-3.778 13.422-6.907 27.035-11.055 40.338-3.088 9.916-.111 9.168 7.318 10.953 10.631 2.56 21.485 4.169 32.235 6.244 3.259.629 17.924 5.684 16.66 11.763-1.826 8.807-2.313 17.751-6.727 25.589-1.897 3.379-7.729 4.004-12.173 3.209-6.242-1.116-12.268-2.892-18.378-4.405-33.195-8.243-66.396-16.474-99.595-24.716-29.318-7.282-58.646-14.547-87.953-21.881-27.365-6.851-54.577-14.392-82.104-20.513-34.021-7.563-163.298-40.458-194.201-48.225-20.6-5.177-41.253-10.139-61.863-15.27-29.301-7.291-127.286-31.155-156.568-38.507-6.744-1.694-13.776-2.054-20.306-4.812-6.174-2.604-3.569-1.702-6.608-10.298-1.078-5.08.529-21.818-.333-17 1.418-7.916 1.548-11.634 9.333-9.629 13.179 3.399 419.858 115.131 428.974 117.567z"/></g></svg>