<svg xmlns="http://www.w3.org/2000/svg" id="eyes" viewBox="0 0 3000 3000"><path d="M1613.518 937.218c.231 1.806-.579 3.373-1.639 4.579-4.315 4.91-4.166 9.727-1.35 15.543 3.342 6.9 2.329 8.623-5.301 8.105-21.279-1.44-42.577-.876-63.861-1.326-10.982-.23-21.972-.188-32.949-.51-10.963-.322-21.917-.948-32.875-1.436-3.442-.152-6.707-1.416-4.608-5.295 5.228-9.665.937-17.933-2.781-26.44-.666-1.524-1.364-3.056-1.81-4.65-.967-3.469.164-4.882 4.007-4.49 12.24 1.242 24.517 2.143 36.761 3.348 25.474 2.509 50.936 5.138 76.403 7.697 8.599.864 17.209 1.612 25.799 2.556 1.582.172 3.202.825 4.204 2.319zm129.54 9.44c3.146 4.557 2.956 9.001.831 14.105-3.304 7.938-2.519 8.873 6.56 8.779 9.972-.104 19.881-1.375 29.896-1.391 24.632-.037 49.277-.153 73.873-1.898 7.497-.532 8.261-1.032 5.659-8.427-2.047-5.818-1.244-10.93.645-16.44 1.673-4.882 4.313-9.605 4.217-16.374-41.69 4.599-82.766 9.163-123.402 14.645-.39 3.593.581 5.352 1.721 7.001zm-134.752-31.699c-7.326-6.271-16.428-7.168-25.479-8.146-.854 2.501-.044 3.295.827 3.574 7.73 2.478 15.495 4.854 23.25 7.26.467-.897.934-1.793 1.402-2.688zm124.322 10.582c9.378-3.662 16.488-9.018 23.039-15.332-10.372 1.685-18.949 7.493-23.039 15.332z"/><path fill="none" stroke="#000" stroke-miterlimit="10" stroke-width="6" d="M1613.518 937.218c.231 1.806-.579 3.373-1.639 4.579-4.315 4.91-4.166 9.727-1.35 15.543 3.342 6.9 2.329 8.623-5.301 8.105-21.279-1.44-42.577-.876-63.861-1.326-10.982-.23-21.972-.188-32.949-.51-10.963-.322-21.917-.948-32.875-1.436-3.442-.152-6.707-1.416-4.608-5.295 5.228-9.665.937-17.933-2.781-26.44-.666-1.524-1.364-3.056-1.81-4.65-.967-3.469.164-4.882 4.007-4.49 12.24 1.242 24.517 2.143 36.761 3.348 25.474 2.509 50.936 5.138 76.403 7.697 8.599.864 17.209 1.612 25.799 2.556 1.582.172 3.202.825 4.204 2.319zm129.54 9.44c3.146 4.557 2.956 9.001.831 14.105-3.304 7.938-2.519 8.873 6.56 8.779 9.972-.104 19.881-1.375 29.896-1.391 24.632-.037 49.277-.153 73.873-1.898 7.497-.532 8.261-1.032 5.659-8.427-2.047-5.818-1.244-10.93.645-16.44 1.673-4.882 4.313-9.605 4.217-16.374-41.69 4.599-82.766 9.163-123.402 14.645-.39 3.593.581 5.352 1.721 7.001zm-134.752-31.699c-7.326-6.271-16.428-7.168-25.479-8.146-.854 2.501-.044 3.295.827 3.574 7.73 2.478 15.495 4.854 23.25 7.26.467-.897.934-1.793 1.402-2.688zm124.322 10.582c9.378-3.662 16.488-9.018 23.039-15.332-10.372 1.685-18.949 7.493-23.039 15.332z"/></svg>