<svg xmlns="http://www.w3.org/2000/svg" id="图层_1" viewBox="0 0 3000 3000"><path d="M1625.6 920.8c-.1-.4-.3-.7-.4-1.1-1.8-3.7-5.9-7.1-12.4-10.1-14.3-20.8-31.5-36.6-51.6-47.6 7.1 9.8 21.5 24.5 43.2 44-6.6-3.5-15-6.1-25.4-7.7-53.1-4.2-96.6-.2-130.4 12.1-2.9 2.1-3.1 4.7-.6 7.8 30.3 11.7 62.7 21.8 97.2 30.2h12.8c19.4-3.5 36.1-10.8 50-22 1.6.7 1.6 3 0 6.8-39.1 29.8-79 56.1-119.6 79 27.5-6.6 67.4-29.4 119.8-68.4 7-11.6 12.8-19.3 17.4-23m124-.2c-.4 2.2 1 2.7 4.2 1.4 1.6-9.6 10.9-24 28-43.2-16 8.7-26.7 22.6-32.2 41.8m74.2 62c12.1 5.3 24.1 6.4 36.2 3.4-23.7-7-39.6-12.4-47.6-16.4-25.5-13.5-42.5-26.4-51-38.8h2.8c12.8 7.9 30.6 14.9 53.4 20.8 3.3 1.4 6.4 1.4 9.2 0 12.2-6.4 22.2-14.7 30-24.9 7.8-10.2 11.2-16.5 10.2-18.9-13.8-3.7-33.2-4.9-58-3.8-31 3.8-49.4 9.8-55.2 18-1.5 1.2-1.8 3.7-.8 7.5 16.9 26.1 40.5 43.7 70.8 53.1z"/><path fill="#FFF" d="M1526.4 918c-28.4 1.6-45.5 3.3-51.4 5.3 18.2 6.5 41.7 13 70.7 19.5l1.7.3c2.7 1.3 9.8.5 21.3-2.5 8.5-2.2 18-6.2 28.6-12.3l-18-4.1c-2.1 3.1-4.8 5.7-8.3 7.8-7.2 2.3-15.1 3.1-23.8 2.4-8.4-.9-15.4-6.4-20.8-16.4m321.2 12.4l-6.2-2.8c-6.4 9.7-15.1 12.6-26 8.8-2-.7-3.9-1.6-5.6-2.5-2.9-1.6-5.2-3.6-7-5.9-6.7 1.3-12.4 2.7-17.1 4.1-2.3.7-4.4 1.4-6.2 2.2 4.5 1.8 9.1 3.4 13.8 5 .4.1.8.3 1.2.4.4.1.8.2 1.1.3 7.3 2.4 14.9 4.5 22.8 6.4 3.2.8 6.4.3 9.7-1.6 7.3-3.3 13.8-8.1 19.5-14.4z"/><path fill="#C7CCEA" d="M1608.8 921.4c-3.2-1.3-6.7-2.6-10.5-3.8-4.5-1.4-9.5-2.7-14.8-3.9-.8 4-2.2 7.4-4.2 10.4l18 4.1c3.7-2 7.5-4.3 11.5-6.8m-82.4-3.4c-1.4-2.5-2.6-5.3-3.8-8.4-43.4 2.1-63.9 4.9-61.6 8.2 4.3 1.8 8.9 3.7 14 5.5 5.9-2 23-3.8 51.4-5.3m259.3 14.1c4.7-1.4 10.4-2.8 17.1-4.1-2.7-3.4-4.1-7.6-4.3-12.6-12.7 2.2-22.6 5.3-29.8 9.2-2.5 2.8-2.1 4.7 1.4 5.8.5.2.9.4 1.3.6 2.6 1.1 5.3 2.2 8 3.3 1.9-.8 4-1.5 6.3-2.2m55.7-4.5l6.2 2.8c2.4-2.6 4.6-5.5 6.6-8.6-6.4-4.2-9.8-5.6-10-4.4.1 3.4-.8 6.8-2.8 10.2z"/></svg>