<svg xmlns="http://www.w3.org/2000/svg" id="eyes" viewBox="0 0 3000 3000"><path d="M1572.3 941.3c8.5-6.3 17.5-16 27.3-28.8 9.7-12.9 9.7-21.7-.1-26.4-58.7 1.7-117.9 7.2-177.5 16.4-1 1.6-1.4 3.8-1.1 6.5-.4 14 6.8 27.5 21.6 40.7l.8.8c9.9 10 22 17.2 36.3 21.6 27 5.6 57.9-4.7 92.7-30.8m256.4 10.1c11.4-10.4 22.4-22.3 33-35.9.5-1.7.9-3.4 1.3-5.2-59.8-22.8-95.8-31-108-24.6-8.8 11.9-12.7 26.1-11.9 42.6 0 .3 0 .7.1 1 1.6 13.9 10.4 24.9 26.5 33 15.3 5 35 1.4 59-10.9z"/><path fill="#FFF" d="M1530.4 923.6c-10.8 2.4-19.4-1.5-26-11.9-28.1 3-48.2 7-60.5 12.1 7.2 12.4 18.7 21.5 34.5 27.5 27.9 4.8 51.1 1.9 69.6-8.7 10.6-6.1 20.7-17.1 30.3-33.3l-24.3 1c-4 7-11.9 11.4-23.6 13.3m279.3-6.6c-3.1 2-7 3.3-11.7 3.8-11.2 1.4-17.5-3.5-19-14.8l-17.2-3.5c-5.5 16.3-4.7 28.3 2.5 35.8 8.6 9.1 20.7 12.4 36.4 10 11.6-1.8 22.6-8.2 33.1-19.2l-24.1-12.1z"/><path fill="#C7CCEA" d="M1554 910.2l24.3-1c2.4-4 4.7-8.4 7-13.3-3.7-.6-13.1-.2-28 1.2-.2 5.1-1.2 9.5-3.3 13.1m-49.5 1.5c-1.8-2.9-3.4-6.2-4.9-10.1l-62 6.4c1.5 5.7 3.6 11 6.4 15.8 12.2-5.2 32.4-9.2 60.5-12.1m257.3-9.2l17.2 3.5c-.4-2.9-.4-6.2-.2-10l-12.8-4c-1.6 3.7-3 7.2-4.2 10.5m72 26.5c3.7-3.9 7.4-8.4 11-13.5l-26.8-10c-1.5 5-4.3 8.8-8.3 11.4l24.1 12.1z"/></svg>