<svg xmlns="http://www.w3.org/2000/svg" id="eyes" viewBox="0 0 3000 3000"><path d="M1665.6 911h.7c.6 0 1.1-.1 1.5-.3.1 0 .4-.3.8-.8.9-1.3 1.1-4.5.5-9.6-1.2-17.3-6.1-29.3-14.7-36.2 7.1 15.5 10.1 29 9.2 40.4-47.8-1.6-96.1-1.6-145 0-60 5.3-107.6 11.6-142.9 19-6.2 2.4-6.3 4-.2 4.9l62.5-8.5c45.5 27.9 89.1 46.1 130.8 54.4 26.3-10.1 56.4-29.3 90.2-57.7 2.2-1.7 4.4-3.6 6.6-5.6m194.6 20.8c.3.4 1.1-.1 2.1-1.5-.5-.5-2.2-1.5-5.1-2.8-24.4-6.8-57.7-12.1-100-16.1-4.3.6-5.6 2.3-3.9 5 2.8 4.4 7 9.2 12.8 14.3 9.7 8.8 23.7 18.8 42 29.9 3.3 1 6.2 1.2 8.6.6.4-.1.8-.2 1.3-.3 12.7-5.4 25.5-15.5 38.4-30.1l3.8 1z"/><path fill="#FFF" d="M1632.9 913.3c1.6-1.3 3.2-2.5 4.8-3.8-12.1-.3-24.2-.4-36.4-.3-43.2.2-86.7 2.2-130.8 6 9 13.1 38.8 28.6 89.5 46.6 2 1 4.4.4 7.3-1.8 24.2-15.6 46-31.1 65.6-46.7m173.6 40.5c1.3 1.3 2.8 1.5 4.5.8 15.3-8.5 26.7-17.3 34-26.3-39.8-7.1-68.7-11-86.7-11.8 5 5.5 10.4 10.6 16 15.3 9.8 8.4 20.6 15.7 32.2 22z"/><path id="cl1" fill="#E57C6E" d="M1643.3 909.8c-1.5 1.4-3.2 2.8-4.8 4.3-8.8 7.6-19.5 16-32.2 25-25.4 18.7-39 28.1-40.9 28.1-52.3-14.1-86.5-31-102.6-50.7l-15.8 2c41.5 24.5 80.7 41.3 117.5 50.6 2.4.7 4.3.7 5.7-.2 29.1-14.9 57.2-32.5 84.3-52.7 2.8-2.1 5.6-4.2 8.4-6.4h-19.6m210 20.3l-5.6-1.1c-6.5 9.1-16.4 17.9-29.8 26.3 13.5-6.3 25.3-14.7 35.4-25.2z"/></svg>