<svg xmlns="http://www.w3.org/2000/svg" id="eyes" viewBox="0 0 3000 3000"><path d="M1656.875 899.5c-10.583-6.458-3.275-3.1-5.375 3.7l.6-1.8c-1.5 5.9-5.5 8.8-12 8.8-3.6 0-10.5-.5-21-1.5-1.6-.2-3.1-.3-4.5-.5-8.2-.8-14.9-1.3-19.801-1.7-3.699-.5-13.299-1.199-29-2-15.6-.8-33.299-1.1-53-.899-19.699.3-32.6.5-38.799.8-6.201.3-12.701.8-19.601 1.5s-13.5 1.5-19.8 2.3c-1.301.2-2.801.4-4.5.5-6.4.8-15.4 1.9-27.1 3.4-6.301 2-7.5 3.3-3.4 3.899l24.3-.6c5.5 6.2 11.101 11.9 16.899 17.2 5.801 5.2 9.601 8.7 11.5 10.5 1.9 1.8 4.701 4 8.301 6.8 3.699 2.8 6.6 4.8 8.699 6.1 2.101 1.301 3.9 2.4 5.301 3.301 1.4.899 2.5 1.6 3.4 2.199 1 .601 1.699 1 2.3 1.301l.5.3c13.5 8.7 28 14.2 43.399 16.5l4.7.6c10.5 1.101 20.2-.2 29.3-3.899 21.5-8 42.801-28.301 64-60.9l11.801.9c11.699 1.6 20.1-1.4 25.1-9.2.701-3.902.943-6.436-2.224-7.602m-171.176 11.9h1.101c1.2 4.6 3.8 9.2 7.8 13.7l1.9 37.3c-3.301-1.8-6.4-3.6-9.5-5.4l-1.301-45.6M1525 943.9c2.9.4 6 .4 9.4.3l1.299 29.7c-3.1-.2-6.299-.5-9.6-1.1L1525 943.9m-3-.599l1 28.899c-3-.6-6-1.3-9.301-2v-29.8c2.601 1.3 5.401 2.3 8.301 2.901m-23.4-14c3.2 3 7.1 6 11.6 8.899l-.1 31c-.9-.3-1.8-.5-2.6-.8-.4-.2-.9-.5-1.4-.7-2-1.1-4-2.2-5.9-3.2l-1.6-35.199m102.801-15.5l3.199.3.6 9.899c-1.199 1.9-2.399 3.801-3.699 5.601l-.1-15.8m5.299.5l4.3.3c-1.3 2.3-2.6 4.399-3.9 6.5l-.4-6.8M1590.2 913l7.8.601.6 20c-2.3 3.2-4.6 6.1-6.899 8.899L1590.2 913m-26.299 13.7c2.699-3.399 5.399-7.3 8-11.7l3.5 43.9c-3.5 2.9-7.101 5.3-10.7 7.3l-.8-39.5m-10.301 10.5c2.6-2 5.301-4.6 7.9-7.6V968c-.9.5-1.9.9-2.801 1.301-1.199.6-2.5 1.1-3.799 1.6l-1.3-33.701m-2.401 34.9c-3.699 1.1-7.6 1.7-11.6 1.899l-2-30.1c4.301-.3 8.7-1.8 13-4.5l.6 32.701m36.401-59.299l1.9 32.3c-3.5 4.1-7.1 7.8-10.801 11l-3.8-44.3 12.701 1m-126.1-.601c2.899-.1 5.899-.3 9-.399v34.8c-2-1.4-4.7-3.5-8.2-6.3l-.8-28.101m12.9-.5c2.7-.1 5.5-.199 8.3-.199v43c-2.399-1.5-4.8-2.9-7.1-4.301-.1 0-.1-.1-.199-.1l-1.001-38.4m-26.9 1.101v14c-1.6-1.5-3.4-3.4-5.5-5.5l.3-8.3c1.7 0 3.5-.101 5.2-.2m4.199-.201c1.9-.1 3.801-.2 5.801-.3v24c-1.7-1.5-3.1-2.8-4.2-3.9l-3.2-3.2v-16.5c.5-.1 1-.1 1.599-.1m-12.599.701l-.3 4.899c-1.5-1.5-3-3-4.399-4.6 1.5-.099 3.099-.2 4.699-.299m51.7-2c11.399-.3 23.1-.4 35.2-.3 1.8 9.6 7.699 14.399 17.8 14.199 9.3.2 14.399-4.399 15.399-13.8 2.601.101 5.4.101 8.4.3-2.3 6.7-7.699 13.601-16.3 20.7-7.4 7.3-17.2 9.4-29.3 6.3-16.999-7.199-27.499-16.3-31.199-27.399m380.6 3c1.601-1.8 1.601-3.601 0-5.5-16.1-1.5-41.1-1.2-75.1.7-34 1.899-49.925-.876-54.101-6.2-4.324-4.801-.949-4.426-2.199-5.426-1.6-2-3.881.935-5.75 5-1.802 4.607-2.051 11.126 6.55 12.325 7.6 17.301 17.7 31.4 30.399 42.4 12.601 11 31.2 11.1 55.601.4 17-8.8 30.1-23.4 39.399-43.7h5.201m-18.1.701c1.8.1 3.5.1 5.3.2-1.5 2.5-2.9 4.8-4.4 7.1l-.9-7.3m-6.101-.101H1851l.8 11c-1 1.4-2 2.801-3 4.101l-1.601-15.101m-24.099-.3h4.2l3 34.8c-1.3 1-2.5 1.801-3.8 2.601l-3.4-37.401m7.099.1h4.9l2.801 28c-1.5 1.4-2.9 2.7-4.301 4l-3.4-32m10.701 24.801l-2.6-24.801h5.2l2.5 18.801a80.171 80.171 0 0 1-5.1 6m-44.9.899a24.517 24.517 0 0 0 8.3-2.7l.1 22c-2.899.301-5.6.301-8.3.101l-.1-19.401m20.3-13.7c1.6-2.199 3.1-4.699 4.5-7.5l1.5 35.301c-1.3.699-2.601 1.3-3.9 1.8l-2.1-29.601m-9.101 9.301c2.301-1.601 4.5-3.5 6.5-5.9l.5 27.5c-1.899.5-3.699 1-5.5 1.4l-1.5-23M1791.3 940.7h.7v18.801c-1.5-.4-3.301-.9-5.4-1.7l-.8-17.8c1.8.399 3.7.599 5.5.699m-9.3-1.8l.8 16.8c-3-1.899-5.9-4.199-8.8-6.8V934c2.5 2.2 5.199 3.801 8 4.9m-25.5-23.2c1.6-.1 3.3-.1 4.899-.2v19.301c-1.7-2.301-3.3-4.601-4.899-7.101v-12m-4.2.101V921c-1-1.699-1.9-3.399-2.9-5.1.9 0 1.9 0 2.9-.099m13.7 8.2c1.399 2.5 2.899 4.699 4.5 6.6v15c-1.601-1.6-3.2-3.4-4.801-5.3l.301-16.3m30.6 2.8c7.199-.4 11-4.5 11.4-12.2 2.6 0 4.1 0 4.5-.1-4.5 13.8-12 20.8-22.5 21-10.5.199-18.2-6.5-23.301-20.101 6.1-.2 12.2-.3 18.301-.5.5 8.3 4.3 12.3 11.6 11.901z"/><path fill="#FFF" d="M1490.8 911.301c3.8 11.1 14.2 20.3 31.3 27.399 12.1 3.101 21.9 1 29.3-6.3 8.5-7.1 14-14 16.3-20.7-3-.1-5.8-.2-8.399-.3-1 9.4-6.101 14-15.4 13.8-10.1.2-16.1-4.6-17.8-14.2-12.201-.1-23.902 0-35.301.301m305.8 15.5c-7.3.399-11.1-3.5-11.5-11.9-6.2.1-12.3.3-18.3.5 5.1 13.6 12.8 20.3 23.3 20.1 10.5-.199 18-7.199 22.5-21-.4.101-2 .101-4.5.101-.5 7.699-4.3 11.699-11.5 12.199z"/></svg>