<svg xmlns="http://www.w3.org/2000/svg" id="eyes" viewBox="0 0 3000 3000"><path d="M1536 854.5c-1.4-.199-2.8-.399-4.2-.5-37.399-1.8-63.8 3.7-79.3 16.5-15.5 12.9-27.1 17.9-34.9 15-3 13.5 1.601 24.301 13.601 32.4-3.801 30.3 2.199 60.5 18 90.6C1465.1 990.1 1494 981.6 1536 982.7c21 .601 45.3 3.7 72.8 9.2 2.4-8.5 2.9-25.8 1.601-51.8.199-9-.301-17.3-1.601-24.9-2.399-14.6-7.5-26.5-15.3-35.5-11.3-12.8-30.5-21.3-57.5-25.2m326.2 21.1c-7.5-12.2-20.5-17.5-39-15.8-30.9 2.5-48.801 18.699-53.801 48.399-1.699 5.9-2.899 11.7-3.899 17.5-3.2 20.9-1.5 41.4 5 61.3.899 2 2.8 3.2 5.8 3.601 21.1-8.8 43.5-11.2 67.2-7 8.899-17.5 14.3-34.8 16.399-51.7 1.301-10.6 1.2-21.1-.199-31.5 6-2.7 11.199-9.1 15.399-19.2-5.799-.899-10.099-2.8-12.899-5.6z"/><path fill="#FFF" d="M1592.8 922a89.107 89.107 0 0 1 1.5 7.801c.101 1.1.301 2.199.4 3.3.2.5.5 1 .8 1.5 1.8 3.399 3.5 4.899 5 4.5 1.5-.3 2.4-2.4 2.8-6.3v-1.5c-.1-.601-.199-1.101-.3-1.7-3.2-2.8-6.6-5.3-10.2-7.601m-90.2 56c-11.199-26.3-12.5-50-3.699-71.199-30.101 4.5-51.2 14.5-63.2 30.199-.4 17.9 4.7 38.601 15.3 62.2 13.299-13.1 30.499-20.1 51.599-21.2m321.1-49.8c.3-2.8.5-5.8.8-8.8-.4-6.7-1.3-12.4-2.6-17.3-3-.4-6.101-.6-9.301-.8-.199.8-.399 1.6-.5 2.5 2.801 5.6 4.101 12.399 3.801 20.5 1.8 2.899 3.699 4.3 5.8 4.3.7.201 1.3 0 2-.4m6.5-24.399l.3 1.5c1.4 7.1 1.6 15.3.7 24.699-1.2 12.7-4.601 27.5-10 44.4 4.5-.7 10.699-.1 18.8 1.8 5.5-17 9.2-32 11.1-44.899.9-6 1.4-11.601 1.5-16.801-6.5-5-14-8.6-22.4-10.699z"/><path fill="#B4B7D3" d="M1498.9 906.801c4.8-11.5 12.6-22.301 23.3-32.301-38.8-1.899-65.7 9.9-80.8 35.4-3.2 7.4-5.101 15.5-5.601 24.3 0 .9-.1 1.8-.1 2.7 12.001-15.5 33.101-25.599 63.201-30.099m90.8 5.799c.199.5.399 1 .6 1.6 1 2.5 1.8 5.101 2.5 7.8 3.6 2.301 6.9 4.801 10.1 7.601-1-5.7-2.3-10.601-3.899-14.8-1.8-4.9-3.9-8.9-6.5-11.9l-.5-.5c-1.3.6-2.101 2.6-2.3 6.2-.101 1.2-.101 2.499-.001 3.999m228.1-17.299c-2.199 0-3.8 1.6-4.899 4.899-.101.4-.301.8-.4 1.3 3.2.101 6.3.4 9.3.801-.699-2.4-1.5-4.601-2.399-6.601-.502-.399-1.102-.399-1.602-.399m-8.5-17.101l3.5 1c9 4.9 14.801 13.101 17.4 24.5 8.5 2.101 16 5.7 22.4 10.8.199-9-.801-16.699-3-23-6.3-17.6-19.7-22-40.3-13.3z"/><path id="sd1" fill="#2F4EBB" d="M1534 904.801c1-1.601 2.2-3 3.4-4.4 6.5-7.2 13.899-10.8 22.3-10.8s15.9 3.8 22.5 11.2c3.1 3.5 5.6 7.399 7.5 11.8-.1-1.5-.1-2.8 0-4.101.2-3.5 1-5.6 2.3-6.199-15.8-15.2-32.1-23.101-48.7-23.7-16 2.899-27.6 12-34.899 27.1 8.999-.9 17.499-1.101 25.599-.9m278.9-4.601c1.1-3.3 2.699-4.899 4.899-4.899.5 0 1.101.1 1.601.3-3.601-7.601-9-11.5-16.2-11.8-6.3-.101-11.8 2.899-16.4 9 3-2.2 7.4-2.601 13-1.2 4.601 2.5 8.101 5.7 10.801 9.8h1.899c.1-.401.3-.801.4-1.201z"/><path fill="#26201E" d="M1585.5 928.6c-.6-4.601-1.6-8.8-3.1-12.5-2.101-1-4.301-2-6.601-2.8-9.399-3.801-19.699-6.301-30.899-7.5-.101.199-.301.3-.4.5-1.2 1.5-2.3 3-3.3 4.8-2.601 4.8-4 10.5-4.2 17.3-.3 9.2 2.2 16.9 7.4 23.1 5.3 6.2 12 9.301 20.3 9.101s14.1-3.3 17.4-9.3c3.4-6.201 4.5-13.701 3.4-22.701m220.3-.299c.101-.9.301-1.7.4-2.601.8-7.399-.3-13.8-3.2-19-1-1.8-2.1-3.3-3.3-4.5-11.2 1.8-20 6.8-26.5 14.8-.8 2.7-1.4 5.601-1.8 8.7v.4c-.7 7.2.3 13.4 3.1 18.6 2.8 5.3 6.7 7.9 11.5 7.9s9.1-2.6 13-7.9c3.6-4.6 5.8-10.1 6.8-16.399z"/><path fill="#1A1718" d="M1582.4 916c-.301-.8-.7-1.699-1.101-2.5-1.199-2.6-2.699-5-4.5-7.1-4.8-5.7-10.199-8.6-16.199-8.6-5.9 0-11.2 2.6-15.7 7.8 11.2 1.3 21.5 3.8 30.899 7.5 2.301 1 4.501 1.9 6.601 2.9m217.3-13.8c-2.301-2.2-5-3.3-8.101-3.3-4.8 0-9.1 2.6-13 7.9-2.3 3.1-4.1 6.5-5.3 10.3 6.401-8.2 15.201-13.1 26.401-14.9z"/><path id="cl1" fill="#436CE3" d="M1527 929.2c.4-9.6 2.7-17.7 6.9-24.3-8-.3-16.5 0-25.5.9-1.2 2.5-2.301 5.2-3.301 8-6.8 20-4.699 41 6.2 63.1 33.8-2.9 65.3-.1 94.6 8.2.5-22-.399-39.9-2.8-53.8v1.5c-.3 3.8-1.3 5.899-2.8 6.3-1.5.3-3.2-1.2-5-4.5-.3-.5-.5-1-.8-1.5.8 10.3-.8 19-5 26-4.5 7.8-12.601 11.8-24.101 12-11.5.3-20.899-3.7-28.199-11.8-7.199-8.2-10.599-18.2-10.199-30.1m296.5.3c.1-.399.1-.899.2-1.3-.601.4-1.301.601-2.101.601-2 0-4-1.5-5.8-4.301 0 1.5-.1 3-.3 4.5-.4 3.801-1 7.9-2 12.2-11.3 22.601-25.101 28-41.4 16.2-.2 9.5 1.4 18.3 4.8 26.2 10-5.5 21.301-8.4 33.801-8.8 6.5-10.8 10.7-25.9 12.8-45.3m-12.5-28.1h-.4c.5.8 1 1.6 1.5 2.5.101-.9.301-1.7.5-2.5h-1.6z"/></svg>