<svg xmlns="http://www.w3.org/2000/svg" id="eyes" viewBox="0 0 3000 3000"><path d="M1528.5 954.7c-19.2 1.101-38.6 3.2-58.2 6.3-19.5-3-35.5-7.899-48.1-14.699 5 9.8 16.9 18.5 35.7 26.1-1.7 1.8-8.4 2.6-20.101 2.4 5.5 6 18.4 8.1 38.5 6.3 33.101-9.101 63-11.7 89.5-7.9 12.5 1.7 22.301 4.101 29.4 7.101 7.1 3.1 11 4.8 11.9 5.199 9.399 1 15.3 1.4 17.8 1C1601.7 963.1 1569.6 952.5 1528.5 954.7m40-71.399c-2.5-2.101-6.8-3.7-12.9-4.601-6.1-.899-13.699-.899-23 0-15.8 3.101-30 8.7-42.699 16.8-19.301 13.601-28.9 29.4-28.601 47.301 1.2 4.8 2.2 4.699 3-.101 2.601-17.3 12.801-31.7 30.801-43.1 18.899-12 43.299-17.5 73.399-16.299m294.8-17c4.2-5.7 6.2-9.601 6-11.601-8.1 3-16.5 4-25.3 3-17.7-2.2-35.9 7.9-54.5 30.2-25.9 31.9-35.3 67.3-27.9 106.4 6.601 19 21.9 27 46.101 24 19.899-6.4 33.3-19.5 40.199-39.3 1-3.101 1.801-6.4 2.5-9.9.5-2.6 1-5.3 1.4-8.2 5.3-24.9 8.8-52 10.3-81.2 14.2-1 21.801-4.2 22.7-9.5-6.2.7-13.4-.7-21.5-3.899m-36.9 60.199c2.1 3 3.699 6.801 4.6 11.5 1 4.7 1.5 9.7 1.5 15 0 5.301-.6 12.301-1.6 21-1.101 8.7-5.2 17.5-12.4 26.301-7.2 8.899-16.2 12.8-27 11.8s-18.3-5.9-22.3-14.601c-4-8.699-4.2-19.399-.601-32 3.601-12.699 10.601-23.8 21-33.5 10.4-9.699 18.601-13.8 24.601-12.199 6 1.5 10.1 3.799 12.2 6.699m-2.1-57.199c13.9-2.101 23.301 1.1 28 9.699 1.801 3.2 2.601 11.5 2.4 25-.1 7-.6 14.2-1.5 21.7-.7 7-1.8 14.2-3.2 21.7-4.1 26.1-12.3 45.2-24.7 57.3 12-19.3 16.601-39.399 13.9-60.5-2.4-19.1-12.1-30.3-29-33.8-16.7 2.7-29 13-37 30.9 3.7-12 9.3-25.101 16.8-39.2 7.5-14.299 18.9-25.2 34.3-32.799m-4.4 68.5c-2.2-1.7-5-2.5-8.301-2.5-6.5 0-12.8 3.5-19 10.5-6.1 7.1-10.3 15.6-12.6 25.6-2.3 9.9-2 18.4 1 25.5s7.7 10.7 14.1 10.7c6.5 0 12.7-3.5 18.601-10.7 5.899-7.1 9.8-15.8 11.699-26.2.801-4.6 1.301-8.8 1.301-12.6 0-4.9-.7-9.3-2-13-1-3.3-2.7-5.701-4.8-7.3z"/><path id="cl1" fill="#436CE3" d="M1831 938c-1-4.699-2.5-8.5-4.6-11.5-2.101-2.899-6.2-5.199-12.2-6.8-6-1.6-14.2 2.5-24.6 12.2-10.4 9.7-17.4 20.9-21 33.5-3.601 12.7-3.4 23.4.6 32 4 8.7 11.5 13.6 22.3 14.6s19.8-2.899 27-11.8c7.2-8.899 11.3-17.7 12.4-26.3 1-8.7 1.6-15.7 1.6-21 .1-5.3-.4-10.3-1.5-14.9m-19.3-2.8c3.3 0 6 .8 8.3 2.5 2.1 1.601 3.8 4.101 4.9 7.3 1.3 3.7 2 8 2 13-.101 3.801-.5 8-1.301 12.601-1.899 10.399-5.8 19.1-11.699 26.2-6 7.1-12.2 10.699-18.601 10.699-6.399 0-11.1-3.6-14.1-10.699-2.9-7-3.3-15.5-1-25.5s6.5-18.5 12.6-25.601c6.101-7 12.401-10.5 18.901-10.5z"/><path fill="#B4B7D4" d="M1852.3 879c-4.8-8.6-14.1-11.8-28-9.699C1808.9 877 1797.5 887.9 1790 902c-7.5 14.101-13 27.2-16.8 39.2 8-17.899 20.3-28.2 37-30.899 23.199-3.5 37.5 1.6 43 15.3.8-7.5 1.3-14.7 1.5-21.7.2-13.501-.5-21.801-2.4-24.901z"/><path fill="#FFF" d="M1810.3 910.301c16.9 3.399 26.601 14.699 29 33.8 2.7 21-2 41.2-13.899 60.5 12.399-12.101 20.6-31.101 24.699-57.3 1.4-7.4 2.4-14.7 3.2-21.7-5.5-13.701-19.8-18.8-43-15.3z"/></svg>