<svg xmlns="http://www.w3.org/2000/svg" id="eyes" viewBox="0 0 3000 3000"><path d="M1625.2 924.8c.1-1.2.1-2.5 0-3.8-.1-22.3-7.3-41.1-21.5-56.5-14.2-15.3-31.9-22.9-53.3-23-21.3 0-39.6 7.8-54.8 23.5-15.2 15.7-23 34.6-23.2 56.7-.2 22.2 7.1 41.1 22 56.8 14.9 15.7 33.1 23.5 54.4 23.5 21.3 0 39.4-7.9 54.3-23.8 14.1-14.9 21.4-32.7 22.1-53.4m216.6-59.5c-8.9-15.4-20.9-22.9-36-22.5-15.1.4-27.5 8.4-37.4 23.8-9.6 15-14.5 33.1-14.6 54.2v2c.2 14.6 2.4 27.7 6.8 39.4 2.2 5.9 5 11.5 8.3 16.7 9.8 15.5 21.6 23.2 35.6 23.2s25.8-7.8 35.5-23.5 14.6-34.6 14.8-56.8c.2-22.2-4.1-41.1-13-56.5z"/><path fill="#FFF" d="M1500.6 928.6c.2-.6.4-1.3.5-2 .4-2.8 0-5.3-1.2-7.3s-2.8-2.9-4.8-2.9-3.9 1-5.7 2.9c-1.7 2-2.8 4.4-3.1 7.3-.4 2.8 0 5.2 1.1 7.2 1.2 2 2.8 3 4.9 3 2.1 0 4-1 5.6-3 1.3-1.5 2.2-3.2 2.7-5.2m99.7-57.3c-11.2-13.3-27.3-20.3-48.1-21-20.8-.8-38 5.9-51.4 20-13.4 14.1-20.1 31.2-20.3 51.2v1.8c.9-2.8 2.2-5.4 3.7-7.8 4.5-7.1 10.8-10.5 18.9-10.1 8.1.4 14.7 3.9 19.8 10.6 2.5 3.4 4.6 7.3 6.1 11.7 1.5 4.4 2.6 9.3 3.1 14.6 1 10.8-.7 19.5-5.1 26-4.5 6.5-10.5 9.6-17.9 9.5-1.1 0-2.2-.1-3.3-.3 12.2 10.6 26.6 16 43 16.3 19 .3 35.1-6 48.4-18.8 13-12.5 19.6-29.2 19.9-49.9v-1.5c0-21.6-5.6-39-16.8-52.3m168 37.8c-1.8 0-3.5 1.1-4.9 3.3-1.4 2.1-2.2 4.7-2.4 7.8v.4c-.1 2.9.5 5.4 1.6 7.4 1.2 2.2 2.7 3.3 4.5 3.3 1.8 0 3.5-1.1 4.9-3.3 1.4-2.1 2.2-4.7 2.3-7.8.2-3.1-.3-5.7-1.5-7.8-1.2-2.2-2.7-3.3-4.5-3.3m70.2-37.3c-7.1-13.9-17.6-20.9-31.5-21-13.8 0-25.2 7-34 21-6.9 11-11.1 23.7-12.6 38.1 4.7-5.5 10.1-8.3 16.4-8.3 6.9 0 12.7 3.3 17.4 10 4.8 6.6 7.1 14.6 7 24-.1 9.4-2.6 17.3-7.6 24-4.9 6.6-10.7 10-17.6 10-2 0-3.9-.3-5.7-.9.8 1.4 1.6 2.8 2.5 4.2 1.1 1.8 2.3 3.5 3.5 5.2 8 10.4 17.3 15.7 28.2 16 12.4.3 23-5.9 31.7-18.6 8.6-12.7 13-29.6 13-50.8-.1-21.4-3.6-39-10.7-52.9z"/></svg>