<svg xmlns="http://www.w3.org/2000/svg" id="eyes" viewBox="0 0 3000 3000"><path fill="#FFF" d="M1564.1 944.5c-1.199 11-1 23.301-3.899 35.301-3.2 13.1-11.7 21.899-22.9 28.5-3.3 1.899-7 2.199-10.6 1.8-36.4-4.4-55.801-41.3-50.101-67.101 3.2-14.6 8.101-27.899 19.601-38.199 12.399-11.101 26.5-17.7 43.5-14.4 10.699 2 16.699 10.1 20.6 19.7C1564.6 920.7 1564.2 932 1564.1 944.5zm247.5-38.3c-4.6-4.3-10-7-16.3-5.6-10 2.2-18.2 7.3-24.5 15.8-11.7 15.9-15.7 32.8-11.7 52.5 3.5 16.9 11.7 29.1 26.601 37.3 12.3 6.7 25.199 2.8 32-9.6 8.1-14.7 9.699-30.8 10.399-44.6.2-19.199-4-34.1-16.5-45.8z"/><path d="M1513.2 945.2c.1-9.399 3.3-16.8 9.899-22.6 8.101-7.2 18.5-6.4 25.7 1.7 7.8 8.899 9.2 24.399 3.1 34.6-5.3 9-15.899 12.1-25 7.1-8.299-4.699-14.499-10.8-13.699-20.8zm277.6 28.9c13.801.3 24.2-8.5 24.5-20.7.4-14-11.1-26.2-24.6-26.1-11.1.1-18.5 8.199-18.6 20.199-.1 17.201 6.3 26.302 18.7 26.601z"/><path fill="none" stroke="#010101" stroke-miterlimit="10" stroke-width="6" d="M1564.1 944.5c-1.199 11-1 23.301-3.899 35.301-3.2 13.1-11.7 21.899-22.9 28.5-3.3 1.899-7 2.199-10.6 1.8-36.4-4.4-55.801-41.3-50.101-67.101 3.2-14.6 8.101-27.899 19.601-38.199 12.399-11.101 26.5-17.7 43.5-14.4 10.699 2 16.699 10.1 20.6 19.7C1564.6 920.7 1564.2 932 1564.1 944.5zm247.5-38.3c-4.6-4.3-10-7-16.3-5.6-10 2.2-18.2 7.3-24.5 15.8-11.7 15.9-15.7 32.8-11.7 52.5 3.5 16.9 11.7 29.1 26.601 37.3 12.3 6.7 25.199 2.8 32-9.6 8.1-14.7 9.699-30.8 10.399-44.6.2-19.199-4-34.1-16.5-45.8z"/></svg>