<svg xmlns="http://www.w3.org/2000/svg" id="eyes" viewBox="0 0 3000 3000"><path d="M1610.485 912.5c-3.2-8.5-7.4-16.6-12.601-24.399-5.3-7.9-16.899-13.5-34.8-16.9-14.5-3.7-31.6-1.9-51.5 5.4-19.8 7.3-37.8 22.199-53.899 44.8-3.301 5.2-6.101 10.899-8.301 17.2-5.6 24.899.801 39.6 19.1 44.3 15.9 3.3 31.5 4.6 47 3.899 14.801-.399 33.5-.5 55.9-.199 22.4.3 36-4.5 40.5-14.301 4.6-9.8 6.301-20.1 5.2-30.8-1.2-10.9-3.3-20.5-6.599-29m214.799-27.4c-13.4-11.2-25.2-15.5-35.4-12.9-25.1 7-39.5 28.8-43 65.4-.4 3.5-.6 7.6-.8 12.199 2 21.801 10.3 33.4 24.8 34.801 6.301-1 16.301-1.5 30-1.301 13.7.101 23.6.801 29.7 2.101s12.3 1 18.8-1.101c9.1-5.8 10.6-21.199 4.301-46.5-5.5-23.999-15-41.499-28.401-52.699z"/><path fill="#FFF" d="M1511.584 971.8c-1.1 3.601-3.8 7-8.1 10.2 28.399-2.5 52.6-2.5 72.6 0 18.601 1.5 30.2-6.6 35-24.2 2.3-26.6-5.3-50.5-23-71.6-29-15.8-58.8-14-89.3 5.3-17.6 10.8-29.5 21.9-35.801 33.4-6.299 11.5-9.199 18.7-8.799 21.8 8.899-9.9 18.199-14.4 27.799-13.6 23.801 3.3 33.601 16.3 29.601 38.7m-33.1-25.6c-.399-2.1-1.399-3.7-3.1-4.7-1.699-1-3.5-1.1-5.5-.399s-3.6 2.1-4.8 4.1-1.5 4.1-1.101 6.2c.4 2.1 1.4 3.7 3.101 4.6 1.7 1 3.601 1.101 5.601.4s3.6-2.1 4.799-4.2c1-1.901 1.4-3.901 1-6.001m282.5-8.2c-1.6 0-2.899.601-4 1.9-1.1 1.3-1.699 2.8-1.699 4.6s.6 3.3 1.699 4.601c1.101 1.3 2.5 1.899 4 1.899 1.601 0 2.9-.6 4-1.899 1.101-1.301 1.701-2.801 1.701-4.601s-.5-3.3-1.701-4.6c-1.1-1.3-2.4-1.9-4-1.9m62-48.5c-9.899-11.5-22.299-15.2-37.299-11.1s-26.701 23.1-35.201 56.9c9-6.5 17.601-6.4 25.9.1 5.801 3.7 10.1 9.8 12.801 18.5 2.699 8.6 1.5 16.9-3.801 24.8 19.2-1.4 33-1.2 41.301.7 8.3 1.9 14.899 2 19.8.2 4.899-1.8 6.6-10.601 5.2-26.5-5.101-22.9-9.4-37.301-13-43.101-3.601-5.8-6.4-9.7-8.301-11.899-1.9-2.2-4.4-5.1-7.4-8.6z"/></svg>