<svg xmlns="http://www.w3.org/2000/svg" id="eyes" viewBox="0 0 3000 3000"><path d="M1624.3 905c1.4-3.6 2.8-6.8 4-9.5 1-2.2.4-3.5-1.7-3.7-71.1-1.1-144.5 5.6-220.2 20.2 34.6 16.4 76.2 27.5 124.8 33.2 35.7 5.3 63.6-3.9 83.6-27.6-3.9 16.9-22.8 50.2-56.8 99.8 16.4-11.4 36.2-42.4 59.4-92.9.9-2.7 1.7-5.2 2.5-7.6 1.6-4.4 3-8.3 4.4-11.9m217.6 19.2c4.8-4.1 10.7-9.7 17.7-17l.2-4.4c-23.5-8.9-60.8-11.4-112-7.6-1.2.7-1.2 2.4 0 5 .3 1.4.7 2.7 1 4.1 8.5 32.1 27.3 64.4 56.6 97.1-1-2.2-2.3-4.8-4-7.9-24.9-38.1-38.4-61.7-40.5-70.7 12.1 14.9 23.9 21.9 35.5 20.8 16.9-1.4 32-7.8 45.5-19.4z"/><path fill="#FFF" d="M1544.5 938.7c.9.1 1.8.1 2.7.1 11.6.4 22.7-.9 33.4-4-17-4.2-28.7-10.8-35.1-19.8-23.1 1.6-47.8 5.3-74.2 11 23.3 5.4 47.8 9.6 73.2 12.7m59.5-29.1c4-.9 7.4-2.4 10.2-4.4 3-2.2 5.4-4.9 7-8.4l-41 2.2c5.4 8.1 13.3 11.6 23.8 10.6m213.6 22.2c-11.2-5.1-19-12-23.5-20.6-13.1-1.3-25.4-1.9-36.7-1.7 13 20.3 24 29.9 33.1 28.7 10.6.6 19.6-1.6 27.1-6.4m19.1-21.3c5.1-.1 8.4-1.8 9.9-5.3l-26.2-2.8c.4.5.8 1 1.1 1.4 3.6 4 8.6 6.2 15.2 6.7z"/><path fill="#BFC8E3" d="M1545.5 915c-2.7-3.8-4.5-8.1-5.3-12.8-35.7 2.8-70.7 7.6-105.2 14.4 11.8 3.5 23.9 6.6 36.3 9.5 26.3-5.8 51-9.5 74.2-11.1m248.5-3.8c-1.2-2.3-2.2-4.6-3-7.2-.3-.9-.5-1.9-.7-2.8L1751 899c1.1 1.8 2.1 3.6 3.1 5.3 1.1 1.8 2.2 3.6 3.3 5.3 11.3-.3 23.5.3 36.6 1.6z"/></svg>