<svg xmlns="http://www.w3.org/2000/svg" id="eyes" viewBox="0 0 3000 3000"><path fill="#010102" d="M1579.3 983.801c-.699-.2-1.1 0-1.399.699-.801.4-1.5.9-2.101 1.5h.101c-1 1.301-2.9.801-3.801 2.2l-.1.101c-.8.6-1.6 1.399-2.7 1.699h-.899l-.5.7c-.801.4-1.5.9-2.301 1.4h-1l-.699.6c-.801.4-1.5.9-2.101 1.4h.101c-1 1.3-2.9.9-4 2.1-1.2 1.2-2.9 1-4.301 1.9l.2-.1c-1 1.5-2.9 1.199-4.2 2.1l.2-.1c-1.7 2.199-4.6.699-6.5 2.1-1.2-.3-2.4-.2-3.4.6-1.899 1.101-4.399 0-6.199 1.5-1.301-.2-2.601-.399-3.801.5-1.899 1.101-4.399 0-6.199 1.5-1.301-.2-2.601-.399-3.801.5-8.6.9-17.3 1.101-25.899-.1l-.8-.5-1 .1c-1.101-1.1-2.301-.3-3.4-.2h.3c-2.3-.899-4.899-.399-7.1-1.399-.8-.9-1.8-1.101-2.9-.601-1.7-.399-3.399-.8-5.1-1.399l-.8-.601-1 .101c-1.801-1.7-4.5-.101-6.2-2-1.101-1.101-2.8-.8-4-1.601l-.601-.6-.8.1c-1.399-.8-3.5-.399-4.399-2.199l.199.199c-1.1-.3-1.8-1.1-2.199-2.1l.199.1c-1-.3-1.6-1.1-2.3-1.8l-2-2c-.7-.7-1.3-1.3-2.1-1.899-.7-.801-1.4-1.601-1.7-2.7-.2-1.7-1.5-2.5-2.6-3.4-.4-.7-.9-1.399-1.601-1.899-.7-.801-1.399-1.601-1.7-2.7.301-.601.2-1.101-.5-1.4-.6-.8-1.199-1.5-1.6-2.399.2-.601.1-1.2-.5-1.601-.5-.8-1.2-1.5-1.5-2.399.2-.601.1-1.101-.3-1.601-.7-.8-1.3-1.6-1.601-2.7-.1-1.1-.3-2.199-.399-3.3-1.4-2-.3-4.6-1.601-6.6-.1-1.101-.3-2.3-.399-3.4-1.4-1.8-.101-4.399-1.7-6.2.3-2.6.6-5.199-.3-7.8-.9-1.3-.9-2.6-.2-3.899 0-.7.1-1.4.1-2.101-.399-.7-.399-1.3 0-2 1-1.7 1.4-3.5.5-5.399 1.601-2.7 0-5.9 1.601-8.601.5-.5.6-1.1.3-1.8 1-1.2.8-2.9 1.6-4.2.601-.3.801-.8.5-1.399.801-1.5.5-3.4 2-4.5l-.1.1c.5-.9 1.2-1.7 2.2-2l-.2.1c.4-1 1.1-1.8 2.2-2.1l-.2.2c.7-1.7 2.8-1.2 3.8-2.4 1.101-1.2 2.9-.899 4-2 .7-.8 1.5-1.6 2.7-1.8.7.2 1.1 0 1.4-.7.8-.399 1.5-.899 2.3-1.399.6.3 1.2.199 1.7-.301.8-.6 1.6-1.3 2.699-1.6 1.2.2 2.4.2 3.4-.8.8-.4 1.5-.9 2.3-1.4.601.3 1.2.2 1.7-.3.8-.6 1.6-1.3 2.7-1.6 1.1-.2 2.2-.4 3.399-.601 1.7-1.2 4.301.3 5.801-1.7l.1-.1c1.4-1 3.2-.9 4.6-1.7 1.101-.1 2.301-.3 3.4-.399 2-1.301 4.6-.301 6.6-1.601 1.2.3 2.4.2 3.4-.6 1.9-1.101 4.4 0 6.2-1.5 1.3-.101 2.5-.2 3.8-.4.7-.399 1.3-.399 2 0 .7 0 1.4.101 2 .101 2.2-1.2 4.9-.601 7.2-1.5h-.4c1.9.399 3.8 1.199 5.7-.101l.4.3.5-.3c1.1.601 2.1.601 3.199 0 7.101 0 14.101-.1 21.2-.1.9.8 1.8.6 2.8.1l.5.3.5-.3c4.7 2 9.801-.2 14.5 1.5.5.601 1.101.7 1.801.5 1.8 1.601 4.3.4 6.199 1.5 1 .8 2.2.9 3.4.601 2 1.3 4.6.199 6.6 1.699.9.801 1.9 1 3 .5 1.301 0 2.101.801 3 1.601.4.6.801.7 1.4.3 1.5.7 3.2.6 4.6 1.7.301.6.801.7 1.301.399 1.1.2 1.899 1 2.6 1.9h-.1c.6.6 1.3 1.1 2.1 1.5.2.7.7.9 1.4.7 1.1.2 1.899 1 2.6 1.8 1.1 1.2 3.3.7 3.8 2.7-.2.7 0 1.1.7 1.3.3.7.8 1.2 1.5 1.5.8.8 1.5 1.6 2.3 2.4.5.699 1.101 1.399 1.7 2.1l-.1-.1c.899.699 1.6 1.5 1.899 2.6-.2.7 0 1.2.7 1.4.4.8.9 1.399 1.6 1.899v.101c1.101 1.1.601 2.899 2 3.899l.101.101c1 1.399.899 3.199 1.7 4.6 0 3.5-.101 6.9-.101 10.4 0 1.199-.8 2.1-1.3 3-.6.5-.7 1.1-.5 1.8-1 1.2-.7 3-1.7 4.2-.5.5-.6 1.1-.3 1.699-.5.7-1 1.5-1.4 2.301-.698.198-.898.698-.698 1.398-.2 1.101-1 1.9-1.801 2.601-1.1 1.1-.8 2.899-1.8 4.1l-.1.1c-1.4.9-.801 3-2.5 3.601l.199-.2c-.3 1.1-1.1 1.8-2.1 2.2l.1-.2c-.3 1-1.1 1.6-1.699 2.4l-.101.1c-1.399.9-.8 3-2.5 3.6l.2-.199c-.3 1.1-1.1 1.8-2.2 2.199l.2-.199c-.3 1.1-1.1 1.699-1.9 2.3l.102-.103c-.5.9-1.2 1.5-1.9 2.2l-2 2c-.7.7-1.3 1.4-2.1 2l.1-.1c-.6.8-1.3 1.399-2 2.1-.7.7-1.4 1.5-2.3 1.8l.2-.1c-.4 1-1.101 1.8-2.2 2.1l.2-.199c-.601 1.699-2.801 1.1-3.5 2.5l-.101.1c-.8.5-1.399 1.1-2 1.8-.8.6-1.399 1.4-2.399 1.7l.199-.1c-1.199 1-1.999 1.699-3.199 2zM1778.1 992c1.2 1.2 3.101 1.101 4.5 1.801l.801-.2.6.5c1.3 1 3.1.899 4.6 1.7l.801-.2.6.5c2.5 1.899 5.8-.2 8.2 1.8 1.1 0 2.199-.1 3.199-.1.9-.5 1.9-.801 2.801.1 8.8-.5 17.5-.4 26.3-3.4 16.4-5.699 33.2-24.1 31.8-43.199-.6-9.2-.6-18.4-1.699-27.7-2-15.4-10.5-25.101-23.2-32.101-12.101-6.699-25.2-9.3-38.8-9.199-1.403.698-3.103.698-4.603 1.398-2.399 1.101-4.899.7-7.399.601-2 1.199-4.5.399-6.601 1.399-1.2.8-2.5.7-3.8.5-1.8 1.601-4.4.3-6.2 1.7-.5.5-1.1.6-1.8.3-1.8 1.601-4.4.2-6.2 1.8-.3.601-.8.7-1.399.4-1 .2-1.7.9-2.601 1.4-.5.6-1.1.699-1.8.5-1.3 1-3 .8-4.3 1.8l-.101.1c-.899 1.4-2.899.9-3.8 2.2h.1c-.6.6-1.3 1.1-2.1 1.5-.2.7-.7.9-1.4.7-1.199.3-2.1 1-2.399 2.2l.199-.2c-1.1.3-1.699 1.1-2.3 1.899l.101-.1c-.9.5-1.601 1.2-2 2.2l.1-.2c-1.6.7-1 2.8-2.4 3.7l-.1.1c-2 3.2.4 7.101-1.8 10.3-.101 1.9-.2 3.801-.3 5.801-1.101 1.899-.9 3.899-.2 5.899 1.1 1.9.7 3.8.5 5.8 1.6 1.801.399 4.301 1.5 6.2.8 1 .899 2.2.6 3.4.8 1.5.601 3.2 1.7 4.6.6.3.7.8.3 1.4.3 1.1 1 1.8 1.7 2.7l.1.1c1.4.9.9 2.9 2.101 3.8 1.1 1.101.8 3 2 4 1.199 1.101.699 3.101 2.3 3.9l-.1-.2c.3 1 1.1 1.6 1.699 2.4l.101.1c1.399.8.8 3 2.5 3.6l-.2-.199c.3 1.1 1.1 1.8 2.2 2.199l-.2-.199c.3 1.1 1.1 1.8 2.2 2.199l-.2-.199c.3 1.1 1.1 1.8 2.2 2.199l-.2-.199c.6 1.699 2.8 1.1 3.5 2.5l.1.1c.801.5 1.4 1.1 1.9 1.8l.1.101c.801.5 1.4 1.1 2 1.899.801.601 1.4 1.4 2.4 1.7l-.2-.1c.8 1.6 2.8 1.1 3.9 2.3.7.8 1.5 1.6 2.6 1.8l.8-.1.601.5c1.198.9 2.998.501 4.098 1.7z"/><path id="cl2" fill="#436CE3" d="M1567.7 922.6c-1.5 22.399-13.4 39.3-29 54.1-7 6.601-15.301 11.601-23.2 17.2-20 14.1-55.5 3.7-67.9-18.3-7.399-13.101-10.399-27.2-10.899-43.2 6.8 4.9 13.1 8.4 21.1 7.9 15.1-.9 25-7.4 30.5-21.601.6-1.6 1.2-3.1 1.8-4.7.101-9.1 5.301-11.5 13.4-10.899 5.2.399 10.5-.4 15.7.8 1 .3 2 .8 2.8 1.4 3.6 21.899 14.5 27.3 38.6 19 1.2-.5 2.301-1 3.4-1.801.7-.5 1.4-.899 2.2-1.3.899.001 1.399.401 1.499 1.401zm259.8-1.5c-17.9 10.2-26.9 7.3-34.5-10.9-.2-.6-.9-1-1.5-1.2-.4.9-1.1 1.7-1.3 2.601-2 10.5-8.2 17.6-18.4 20.1-10.4 2.5-18.8-2.1-25.7-9.8-1.8-2-2.5-5.2-6.3-6.6.6 7.3-2.1 13.699-.2 20.5 5.7 20 16.601 36.199 33.9 47.8 3.4 2.3 7.2 4 11.2 3.6 10-1 20.199-3.1 27.699-10 16.801-15.399 23.601-34.8 19.5-57.6-1.699-.401-2.999.7-4.399 1.499z"/><path fill="#26201E" d="M1443.9 926c10.199-2.899 18.8-9.5 29-12.5 3-.899 5.699-3.5 9.1-1.5-3.2 17.601-13.6 24.9-30.8 21.9-2.5-.4-4.2-1.7-5.301-3.9-.699-.699-1.1-1.5-1.899-2.1 0-.599 0-1.2-.1-1.9zm334.3-24.1c-11.601-1.5-23.2-1.5-32.301 8.1-.1 3.301 2.2 5.4 4 7.601 9.4 11 27.101 7.899 32-5.601 1.701-4.4 2.301-9.3-3.699-10.1z"/><path id="sd1" fill="#3155CA" d="M1521 906h-17.9c-9.3 0-9.3 0-13 8 .2-8.399-.6-16.5-4.199-24.8 8.8-3.8 18-5 27.1-6.1 14.5-1.8 29.2-1.7 43.8 0 5 .6 7.9 2.5 8.601 7.6.699 4.9 1.5 9.8 2.199 14.7-3.3 1.4-5.6-1.1-8.1-2.3-9.8-4.3-19.4-5.8-29.2.1-2.901 1.7-5.801 3.4-9.301 2.8zm267.5-14.1c1.8 4.5 3.8 9.1 3.7 14.1 3.3-2.8 7.199-3.8 11.5-4.6 9-1.7 16.399 3.1 24.5 5.1-8-18.1-17.9-21.9-39.7-14.6z"/><path fill="#1C191B" d="M1443.9 926c-6.801-13.5-4.7-20.199 8.399-26.1 7.2-3.3 15-5.2 22.601-7.3 1.699-.5 3.8-.6 4.5 1 2.3 5.9 6.5 11.6 2.699 18.4-10 5.1-20.8 8.5-30.8 13.8-2.299 1.3-4.899 2.4-7.399.2zm339.5-30.1c-.101-2.1-2-3.5-4.301-3.2-12.3 1.7-23.5 6.3-33.6 13.2-1.6 1.1-1.1 2.9.5 4.1 9.1-3.8 18.4-6.5 28.5-6 6.7.301 6.7.301 7.6 8.101 3.701-5.201 1.701-10.8 1.301-16.201z"/><path fill="#BBC8E3" d="M1616.1 928.1c-.6-3.101-1.899-5.2-5.3-6.3-11-3.5-21.9-7.301-33.4-9-3 5.5 1 12.1-3.199 17.199.3-14.6.1-29.1-4.601-43.199 18.101-1.7 39.9 11 46.101 26.899 1.799 4.501 3.099 9.501.399 14.401zm-94.3-21.9l.801-.2c4.399 4.2 10 2.2 15.1 3 10.9 1.601 23.7-.6 28.8 13.5.4 0 .8 0 1.2.101 1.2-5.8.6-11.5-.2-17.2-13.8-10.6-29-12-43.2-1.6-1.1.8-2.199 1.5-3.3 2.3l.799.099zm304.8-13.7c4.301 7.101 9.101 13.7 11.2 21.7.7-1.899 1.3-3.7 4-2.3 4 2.1 8.1 4 12.2 6.1-3.6-14.6-15-20.5-27.4-25.5z"/><path fill="#FEFEFE" d="M1528.2 996.2c23.5-16.5 41-37.1 46-66.3 1.699-4.5.6-9.2.8-13.8.1-3.7 1.4-6 5.2-5.4 11.5 1.601 22.699 4.7 33.199 9.9 2.7 1.3 4.601 3.9 2.801 7.4.199 5.3-2.9 9.5-5.4 13.699-13.5 22.601-33 38.801-56.6 50.101-7.4 3.5-15.5 5.7-23.9 6.6-2.1.6-2.6-.3-2.1-2.2zm314-86.3c-3.4-1-6.2-.4-4.4 4.3.5 2.9 1.1 5.9 1.5 8.9 2.8 21.7-2.7 40.8-17.4 57.2-3.899 4.399-9.3 7.1-15.699 11.399 8.1.101 14-.199 19.8-1.699 19.8-5.2 29.4-19.7 31.8-34.7 1.9-12.2 1.4-25.2-3.8-37.3-2.601-4.8-7.101-6.699-11.801-8.1zm-14.1-3.4c-11.899-10.5-28-10.699-36-.5l-.6 3c.4 5.9-.1 12 5.3 16.2 9.4 7.101 28.301 4.101 35.2-5.5.3-5-1-9.3-3.9-13.2zM1520.8 917c2.101 6 6.2 9.9 12.4 11.7 10.7 3.101 20.8 2.101 30.7-3 .8-.5 1.399-1.1 1.899-1.899.301-.4.5-.801.7-1.301-.6-13.399-.7-12.8-14.1-14.699-9.9-1.4-19.801-1.7-29.801-1.801-3.398 3.2-3.098 7.1-1.798 11z"/><path fill="none" stroke="#000" stroke-miterlimit="10" stroke-width="6" d="M1623.7 927c-5.4 28.4-42 54.801-53 61-11 6.2-63 38.7-118.601 4-42-41.699-13.699-89.8-13.699-89.8 60.699-40.8 142.3-22.2 142.3-22.2 54.3 13.301 43 47 43 47zm176.3-44.699s-54.7 3.3-64 23c-9.3 19.699-1.5 53.899 16.3 68.3 17.801 14.399 23.301 24.1 66.7 24.1 25-.3 39.7-30 39.7-30s9.399-34.399 0-57.899c-9.4-23.501-52.7-28.802-58.7-27.501z"/></svg>