<svg xmlns="http://www.w3.org/2000/svg" id="eyes" viewBox="0 0 3000 3000"><path fill="#FFF" stroke="#000" stroke-miterlimit="10" d="M1447.5 854c22.242-41.431 80.575-26.111 112-4.5s69.5 65 75.5 107.5-4.609 53.923-36 59.5-95.027-6.645-139.001-65.309C1425 904.5 1431.127 884.5 1447.5 854z"/><path d="M1580.1 1022.4c-60.5 1.5-128.301-41.9-146.1-111-5.4-21-3.4-40 7.8-58.1 9.399-15.3 24.7-22.3 41.301-25.3 29.5-5.399 56.8 1.301 80.601 19.801 20.799 16.1 40.1 33.8 54.699 56 12.6 19.1 22.1 39.5 25 62.3 3.301 25.8-14.301 55.7-49.4 56-4.702.099-9.302.099-13.901.299zm281.8-148.9c-2.5-11.5-7-22.198-14.101-31.6-10.601-14-26.899-16.2-41.199-6-6.2 4.4-11.7 9.7-16.5 15.6-15 18.602-24.301 39.802-30.5 62.602-4.801 17.5-8.301 35.2-5.4 53.5 3.5 22 15.5 37.398 36.9 45.2 4.699 1.698 9.1 1.5 13.5 0 7.199-2.4 13.8-5.7 19.6-11.102 7.2-6.8 15.7-12 21.1-20.7 13.802-21.698 20.201-45.5 20.5-75 .399-8.4-1.3-20.5-3.9-32.5zm-231.701 70.302c-1.199-3.5-2.101-7-3.5-10.302-12.199-28.5-31.5-51.398-55.601-70.6-14.899-11.9-29.699-23.3-49.3-26.9-24.101-4.3-46.2-1.398-65.801 14.602-7 5.7-11.601 12.5-14.101 21.1-7.199 24.4-2.101 47.801 10.5 68.102 32 51.398 77.899 78.8 140.101 73.8 6.399-.5 12.899-1.9 19.101-7.2-6.3 0-11.2.2-16-1.2-14.899-4.3-24.7-19-22.899-34.398 2.199-19 12.199-29.4 29.301-30.802 9.799-.8 18.398 1.802 26 8 4 .096 2.9-2.104 2.199-4.202z"/><path fill="#FFF" d="M1763.699 927.802c4.1-22.802 12.301-44.102 24.1-64 4.4-7.5 9.9-14.102 16.701-19.7 13.699-11.102 31.199-8.3 41.299 6.5 8.101 11.898 11.801 25.3 13.4 39.2 2.6 22.8-.199 45-9.101 66.398-6.899 16.5-18.3 29.2-31.699 40.3-6.601 5.5-14.399 8.102-23.2 7.4 0-.8-.199-1.7 0-1.8 21.801-15 18.7-47.4 4.601-65.2-8.199-10.3-21.3-15.5-34-5-3.7.3-2.7-2-2.101-4.098z"/><path fill="#ECECEC" d="M1591.8 960.6c-2.699-.4-6-.2-5.899-4.602.1-3.698 4.801-8 8.699-7.898 3.4.1 5.601 1.6 5.5 5.398-.2 3.902-3.6 6.902-8.3 7.102zm176.5-4.798c4 .8 7.101-1.5 8.601-6.4 1.301-4.1.199-8-2-11.3-1.301-2-4-2.3-6.301-1-3.899 2.3-4.899 6-5.1 10.1-.1 5.398 1.3 7.898 4.8 8.6z"/></svg>