<svg xmlns="http://www.w3.org/2000/svg" id="eyes" viewBox="0 0 3000 3000"><path fill="#010101" d="M1613.8 934.6c-.399.6-.3 1.1.301 1.399 1.6 1.801.199 4.5 1.8 6.301-.3.6-.2 1.199.3 1.699 1.4 1.801.1 4.4 1.7 6.301-.3 1.3-.4 2.6.5 3.8 1.6 4.7-.5 9.899 1.399 14.6v18.8c-.3 1.101-1 1.9-1.699 2.7-.801.601-1.4 1.3-2.2 1.9h.1c-.7.899-1.5 1.6-2.6 1.899-1.2-.199-2.4-.199-3.4.7-.8.4-1.399.9-1.899 1.5-.801.7-1.601 1.4-2.7 1.7l-.8-.1-.601.6c-.8.5-1.6 1.2-2.6 1.5l-.8-.2-.601.5c-1.2 1.101-3 .7-4.2 1.8l-1-.1-.8.6c-.899.5-1.6 1.2-2.6 1.4l-.8-.1-.601.6c-1.2.8-2.899.5-4 1.6-1.3 1.301-3.1 1.101-4.6 1.801l-.8-.2-.601.5c-1.3 1.1-3.1.899-4.6 1.7-1.2-.301-2.4-.2-3.4.6-1.899 1.1-4.399 0-6.2 1.5l-.899-.2-.8.4c-1.801 1.399-4.4.1-6.2 1.7l-.9-.2-.8.399c-2 1.301-4.6.301-6.6 1.601-1.101.1-2.301.3-3.4.399-1.8 1.4-4.4.101-6.2 1.7-5.3-.2-10.5-.7-15.8.3-1.9 1.101-3.9.9-5.9.2-3.8-1.3-7.6-.6-11.399-.6-2-1.2-4.5-.4-6.601-1.4-1.199-.8-2.5-.7-3.8-.5-1.8-1.6-4.399-.2-6.2-1.8l-.6-.5-.8.2c-1.5-.8-3.3-.6-4.601-1.8-1.1-1.101-3-.8-4-2-1.1-1.101-3-.8-4-2-1.1-1.101-3-.8-4-2-1.1-1.2-3.1-.7-3.899-2.3l.2.1c-1-.3-1.601-1.1-2.4-1.7-.5-.7-1.1-1.2-1.9-1.6-.199-.7-.699-.9-1.399-.7-1.2-.3-2.101-1-2.4-2.2l.2.2c-1.101-.3-1.801-1-2.2-2.2l.2.2c-1.101-.3-1.801-1-2.2-2.2l.2.2c-1.101-.3-1.801-1-2.2-2.2l.2.2c-1.101-.3-1.7-1.1-2.4-1.8h.1c-.8-.5-1.399-1.3-2.199-1.8l-.101-.101c-.5-.8-1.199-1.399-1.8-2.2v.101c-.8-.601-1.6-1.3-1.9-2.4l.2.2c-1.7-.6-1.1-2.8-2.5-3.6l-.1-.101c-.5-.8-1.4-1.399-1.7-2.399l.1.199c-1.6-.8-1.1-2.8-2.3-3.899v.1c-1.3-1.3-1.1-3.1-1.899-4.6.3-.601.1-1.101-.5-1.4-.5-.8-1.2-1.6-1.5-2.6.3-.601.199-1-.301-1.4-1.1-1.3-.899-3.1-1.699-4.6.399-.601.3-1.101-.301-1.4-1.6-1.8-.199-4.5-1.8-6.3.3-.6.2-1.2-.3-1.7-1.4-1.8-.1-4.4-1.7-6.3.3-1.3.4-2.6-.5-3.8-1-2.101-.2-4.5-1.399-6.601v-24.8c.3-1.1 1-1.899 1.699-2.7.7-.5 1.2-1.1 1.601-1.899.699-.2.899-.7.699-1.4.301-1.2 1-2 2.101-2.5l-.101.2c.301-1 1.101-1.6 1.7-2.4l.1-.1c1.4-.9.801-3 2.5-3.6l-.199.199c.3-1.1 1-1.8 2.199-2.199l-.199.199c.3-1.1 1.1-1.699 1.899-2.399v.1c.5-.8 1.301-1.4 1.801-2.2l.1-.1c.8-.5 1.4-1.1 1.9-1.9l.1-.1c.8-.5 1.4-1.2 2.2-1.8h-.101c.601-.8 1.301-1.601 2.4-1.8l-.2.199c.301-1.1 1-1.8 2.2-2.199l-.2.199c.4-1.199 1.2-1.899 2.4-2.199.7.199 1.1 0 1.4-.7.699-.4 1.399-.9 1.8-1.601l.1-.1c.8-.5 1.4-1.2 2.2-1.8h-.1c.6-.8 1.3-1.601 2.399-1.8l-.2.199c.601-1.699 2.801-1.1 3.601-2.5l.1-.1c.8-.5 1.4-1.4 2.4-1.7l-.2.101c.8-1.601 2.8-1.101 3.9-2.301 1.1-1.199 2.899-.899 4-2 1.1-1.3 3-.899 4.199-2 .7.301 1.301.101 1.801-.5 1.3-.699 3-.5 4.199-1.5.7.301 1.301.101 1.801-.5 1.5-.699 3.1-.699 4.6-1.399 1.2.3 2.4.2 3.4-.601 1.5-.699 3.1-.699 4.6-1.399 2.5.1 5 .6 7.4-.601 3.3-.8 6.6-1.1 9.899.2 1.9.101 3.8.2 5.8.3 2.5 1.9 5.601.101 8.2 1.5 1 .801 2.2.9 3.4.601 1.5.7 3.2.6 4.6 1.7.4.6.8.699 1.4.3 1.5.8 3.3.6 4.6 1.8 1.101 1.1 2.8.8 4 1.6.3.601.8.801 1.4.5 1.5.801 3.3.601 4.6 1.801 1.101 1.1 3 .8 4 2.1h-.1c.6.6 1.3 1.1 2.1 1.5.2.7.7.9 1.4.7 1.1.3 1.8 1 2.7 1.7l.1.1c.9 1.4 3 .8 3.6 2.5l-.199-.2c1.1.3 1.699 1.1 2.399 1.8h-.1c.8.5 1.3 1.3 2.2 1.7l.1.1c.8 1.4 3 .9 3.5 2.5l-.2-.199c1.101.3 1.8 1.1 2.2 2.1l-.2-.1c1 .3 1.601 1.1 2.4 1.699.6.7 1.2 1.301 2 1.9l.1.1c.5.7 1.101 1.4 1.9 1.9l.1.1c.5.801 1.2 1.4 1.8 2.2v-.1c.801.6 1.601 1.3 1.9 2.4l-.2-.2c1.101.3 1.801 1 2.2 2.2l-.2-.2c1.7.6 1.101 2.8 2.5 3.5l.101.1c.5.8 1.1 1.4 1.8 2 .6.8 1.4 1.4 1.7 2.4l-.101-.2c1.601.7 1.101 2.8 2.4 3.7l.1.1c.601.8 1.4 1.6 1.7 2.7-.3.6-.1 1.1.5 1.4.5.8 1.2 1.6 1.5 2.6-.2.7 0 1.2.7 1.4.399.8.899 1.5 1.5 2.1v-.1c1.3 1.199 1.1 3.1 1.899 4.6-.3.6-.1 1.1.5 1.4.5.8 1.2 1.6 1.5 2.6-.3.6-.1 1.1.5 1.4.801 1.199.5 2.899 1.601 4v-.099c1.201 1.901 1.001 3.7 1.801 5.2zm172.3-72.5c-.699.5-1.3 1.3-2.1 1.7l-.1.1c-.5.8-1.101 1.4-1.9 1.9l-.1.1c-.5.8-1.101 1.4-1.9 1.9l-.1.1c-.5.8-1.101 1.4-1.9 1.9l-.1.1c-.5.8-1.101 1.4-1.9 1.9l-.1.1c-.5.8-1.101 1.4-1.9 1.9l-.1.1c-.5.8-1.2 1.4-1.801 2.2v-.1c-.899.7-1.6 1.5-1.899 2.601.199.7 0 1.1-.7 1.399-.4.801-.9 1.4-1.6 1.9-.601.8-1.4 1.4-1.7 2.4l.1-.2c-1.6.7-1 2.8-2.399 3.7l-.101.1c-.5.8-1.399 1.4-1.699 2.4l.1-.2c-1.6.8-1.1 2.8-2.3 3.9v-.1c-1.2 1.101-.9 2.9-2 4.101v-.101c-1.2 1-.801 2.9-2.101 3.8l-.1.101c-.6.8-1.4 1.6-1.7 2.7.3.6.101 1.1-.5 1.399-.8 1.2-.5 2.9-1.6 4v-.1c-1.3 1.3-1.101 3.1-1.9 4.6.4.601.2 1.101-.3 1.4-1.6 1.8-.2 4.5-1.8 6.3.3.6.199 1.2-.301 1.8-1.399 1.8-.1 4.4-1.699 6.2.3.6.199 1.2-.301 1.8-1.399 2-.3 4.601-1.6 6.601.1 2.5.6 5-.6 7.399-.9 8.7-1.2 17.3.199 25.9.9 3.1.5 6.3.4 9.399.4 1.2.8 2.5 2 3.2 2 .7 4.1-.1 6.1.601 1.101.5 2.101 1.1 3.2 1.6l2.1 1.2c1.101.6 2.2 1.3 3.301 1.8 1.6.9 3.199 1.6 5 2 2.899.6 5.699.6 8.6.1 19-5.8 29.9-22.199 27.8-41.699-2.1-19.2-14.8-31.5-34.6-32.601-5-.3-5.9-1.7-3.5-5.899 7-12.301 15.6-23.301 27.4-31.301 20.399-13.8 39.5-9.8 53.399 10.4a73.736 73.736 0 0 1 9 17.7c1.2 3.399 2.2 7 4.7 9.8 1.6 1.4 3.2 2.7 5.5 1.6 2-.899 1.7-2.699 1.5-4.199-1.2-13.601-2.7-27.2-10.1-39-9.101-14.5-20.7-25.9-39.301-26.7-1.8 1.6-4.3.399-6.199 1.5-1.7 1-3.601.8-5.4.6-1.5.8-3.3.6-4.6 1.8-1.101 1.101-3 .8-4 2-1.101 1.101-3 .8-4 2.101h.1c-.6.6-1.3 1.1-2.1 1.5-.2.699-.7.899-1.4.699a6.11 6.11 0 0 0-2.398 2.099zM1745.8 986c.5.5.601 1.101.301 1.801.699 1.899 2.3 3 3.8 4.3l.1.1c.8.601 1.601 1.4 2.7 1.7l.8-.1.601.6c.8.5 1.6 1.2 2.6 1.5l.8-.1.601.6c1.199.8 2.899.5 4 1.6 1.3 1.2 3.1 1.101 4.5 1.801 1.199-.301 2.399-.2 3.5.6 1.399.7 3.1.7 4.5 1.4 2.5-.101 5.1-.5 7.5.6 8.699.9 17.3 1.2 25.899-.2 1.3-.1 2.5-.2 3.8-.3 1.801-1.7 4.4-.2 6.2-1.8 1.5-.7 2.9-1.601 4.5-2.101 22-7 34.101-22.8 39.9-44.399 3-11.101 1.8-22.4 1.8-33.601-1.3-.699-2.6-1.399-3.9-2-2.899 2.4-2.8 5.9-2.8 9.2.101 7-1.2 13.9-2.5 20.7-4.5 23.2-20.899 39.1-44 43.9-11.899 2.5-23.7 1-35.6.199-3.9.5-7.601-.699-11.4-1.1-2.8-.9-5.399-2.2-8-3.4-.899-.699-1.7-1.3-1.8-2.5 0-.3.1-.699.1-1-2.699-3.3-5.199-1.3-7.8.101-1.202.299-1.402.999-.702 1.899z"/><path fill="#FFF" d="M1473.6 998.301c30-1.4 42.601-12.301 43.5-36.301.7-19.3-13.399-36.3-31.8-38.399-16.8-1.9-40 6.399-44 35.3-5.6-13.8-8.3-26.7-7.4-40.3.101-2.2 1.101-3.7 2.2-5.4 17.8-26.399 42.601-42 74.3-44.7 22.4-1.899 41.9 7.301 57.9 22.301 23.9 22.399 37 50.699 41.6 83 2 13.899 1.9 13.8-11 19.8-19.1 9-39.399 14.6-60.1 17.5-15.7 2.2-31.9 1.7-47.4-3.5-5.8-1.902-11.6-4.202-17.8-9.301zm384-87.801c-3.199-8.8-7.1-17.1-12.899-24.6-12.5-16.2-29.301-20.3-47.7-11.5-14 6.7-23.8 17.8-31.7 30.8-3.199 5.2-6.1 10.5-7.899 17 19.899-5.1 31.3-.399 38.899 15.4 9.9 20.4-.199 44.3-22.199 52.5-1.2 1.2-1.2 2.5 0 3.7 9.1 2.3 18.5 2.3 27.699 1.8 18.9-1.1 35.9-6.1 45.9-24.4 5-9 9.8-17.8 11.2-28.399 1.1-8.301.6-16.601 1.3-24.801-.901-2.5-1.701-5-2.601-7.5z"/><path id="cl1" fill="#3B2E24" d="M1473.9 930.1c1.699-.101 3.3 0 5-.2 19.1-2.9 29.6 14.4 31.1 28.9 2.5 22.8-15.1 35.6-34.3 33.1-14.5-1.9-25.801-10.3-28.7-25.9-2.3-12.199 1.6-22 11-29.899 2.9 4.5 4.1 10.1 8.4 13.8.5 2.2-1 3.7-1.9 5.5-3.4 6.9-.1 11.6 5.6 14.9 5.2 3 12.601.5 15.5-5 3.4-6.2.4-10.801-4.5-14.5-2.399-1.801-5.6-2.2-7.6-4.601-.5-5.5-.9-10.8.4-16.1zm290.5 14.701c.8.6 1.699 1.1 2.699 1.3 6.7 1.5 6.9 6.3 6 11.6-.6 3.3-2.5 5.8-6.1 5-6.1-1.2-6.1-6.2-5.9-11 0-1 .101-2 0-3-1.699-4-3.699-7.8-8.5-8.8-1.199.7-2.1 1.7-2.199 3.1-.7 7.2-1.601 14.5-2.101 21.7-.6 8.3 3.5 14 10.7 17.5 9.3 4.601 22.3 1 28.7-7.2 5.699-7.3 6.8-15.399 6.699-24.3-.199-10.8-5.5-18.2-14.199-23.399-3.5-2.2-7.7-4.2-12.101-1.301 1.802 6.899-1.698 12.699-3.698 18.8z"/><path fill="#FAF9F9" d="M1473.9 930.1c4 5.3 3 10.6 0 15.8-1.9 2.9-4.601 4.2-8 3.9-7.9-3-8.101-3.4-7.9-13.801 4.9-3.099 9.9-5.698 15.9-5.899zm290.2 13.9c7.9-3.899 8.9-6.3 5.7-14.5-.5-1.199-1.2-2.3-1.9-3.5-1.199-1.199-2.5-1.199-4-.399-5.899 3.1-12.699 5.399-11.5 14.3 2.601 2.5 3 7.1 7.4 8 2.4-.401 3.7-1.701 4.3-3.901z"/><path fill="none" stroke="#000" stroke-miterlimit="10" stroke-width="6" d="M1500 1016.4s-81.7-11.4-71.8-111C1507.4 793 1599 902 1599 902c32.7 51.301 19.1 85.4 19.1 85.4-35.6 36.3-118.1 29-118.1 29zm296-160.3s-64.3 39.899-49.7 127.899c7.301 22 47.9 19.101 47.9 19.101s44.1 2.899 64.1-38.4c9.5-27.2 8-63.3 3.301-74C1857 880 1843.4 833.5 1796 856.1z"/></svg>