<svg xmlns="http://www.w3.org/2000/svg" id="eyes" viewBox="0 0 3000 3000"><path d="M1538.8 883.2c-2.699-1.1-5.399-2.2-8.1-3.1-41.1-14.5-75.2-6.8-102.5 23-4 4.4-7 7.3-9.3 8.8v14.8c2.6 18.601 11.6 35.101 27 49.4 19.8 14.6 40.8 21.7 63 21.2 19.6-2.2 38.5-6.2 56.8-12 15.2-3.4 30.6-3.8 46.2-1-2.601-19.9-10.301-39.101-23.2-57.4-12.6-18.4-29.3-32.9-49.9-43.7m247.8 100.2c24 1.5 42.601-6.2 55.801-23 8-10.5 15.8-31 23.6-61.4-10.3-13.199-22.5-21.899-36.6-26-23.301-4.6-43.101 3-59.4 23-5.1 5.7-9.8 11.601-14 17.801-12.7 18.699-20.9 39.5-24.6 62.3l9.8 2.2c11.199.299 26.299 2 45.399 5.099z"/><path fill="#FFF" d="M1495 909.801c-.5-.801-1.1-1.5-1.9-1.9-.899-.5-1.899-.8-3.199-.8-2.301 0-4.7.899-7 2.6-2.301 1.8-3.9 4-4.801 6.5-.399 1.2-.6 2.3-.699 3.3 0 1.2.199 2.2.8 3.2 1.1 1.8 2.8 2.7 5.2 2.7 2.399 0 4.699-.9 7-2.7 2.399-1.8 4-3.899 4.899-6.5.7-2.4.7-4.501-.3-6.4m24-21c-8.3-1.5-16.5-1.9-24.5-1.301 3.3 4.4 6.1 8.801 8.5 13.101 10.4 18.6 12.6 35.7 6.8 51.6-7.199 19.5-16.399 31.8-27.6 36.8 3.7 1.301 7.5 2.4 11.4 3.5 23.1 1.601 47.1-2.3 72.199-11.6 20.9-3.6 34.2-3.8 39.801-.7-11.801-38.7-34.301-67.399-67.601-86.1-6.399-2.401-12.799-4.201-18.999-5.3m289.2 39.799c8.1 16.899 4.5 33.7-10.801 50.2 20.801-2.2 35.2-9.2 43.4-21.2 11.2-19.9 15.4-33.9 12.4-42-10.5-16.9-22.9-26.7-37-29.4-9.2-3.2-21.801 2.8-37.801 17.8 12.502 4 22.402 12.2 29.802 24.6m-18.2-4.9c0-.6-.1-1.1-.2-1.6-.3-1.4-1-2.6-2.199-3.7-1.601-1.5-3.5-2.2-5.7-2.2s-4.101.7-5.7 2.2l-.3.3c-1.4 1.4-2.101 3.101-2.101 5 0 2.101.801 3.8 2.4 5.3s3.5 2.2 5.7 2.2 4.1-.7 5.7-2.2c1.6-1.5 2.4-3.199 2.4-5.3z"/><path id="cl1" fill="#3B2E24" d="M1503.8 934.801c.2-10.2-2-20.101-6.6-29.9-2.7-5.6-6.1-11.1-10.4-16.6C1465 891.6 1444.101 904.2 1424 926c6.6 28.7 23.8 48.801 51.7 60.5 16.9-6 26.2-23.199 28.1-51.699M1493 908c.8.4 1.4 1.101 1.9 1.9 1 1.8 1.1 4 .1 6.5-.9 2.5-2.5 4.7-4.9 6.5-2.3 1.8-4.6 2.7-7 2.7-2.3 0-4-.9-5.199-2.7-.5-.9-.801-2-.801-3.2 0-1 .2-2.1.7-3.3.9-2.5 2.5-4.6 4.8-6.5 2.4-1.8 4.7-2.6 7-2.6 1.5-.1 2.6.2 3.4.7m-20.3 15c.8.801 1.5 1.601 2.1 2.5 3.3 4.601 4.6 10.101 3.9 16.7-.7 6.5-3.2 12-7.5 16.5-4.301 4.601-9.101 6.9-14.4 6.9s-9.5-2.3-12.8-6.9c-3.2-4.6-4.5-10.1-3.8-16.5.699-6.5 3.199-12.1 7.399-16.7 4.3-4.6 9-6.8 14.3-6.8 4.201.101 7.801 1.5 10.801 4.3m314.7 54.801c13-12.2 17.8-25.601 14.5-40.2-3.301-14.5-13-23.7-29-27.601-2.4 2.301-4.301 4.5-5.801 6.5-1.399 1.801-2.399 3.5-3.1 5.101 10.7 6.899 13.7 17.7 9 32.6-9.2 13.3-19.9 17.5-32 12.8l-3 7.9c13.801-1.001 30.301-.1 49.401 2.9m2.4-55.701c.101.5.2 1 .2 1.6 0 2.101-.8 3.8-2.4 5.3-1.6 1.5-3.5 2.2-5.699 2.2-2.2 0-4.101-.7-5.7-2.2s-2.4-3.199-2.4-5.3c0-1.899.7-3.6 2.101-5l.3-.3c1.6-1.5 3.5-2.2 5.7-2.2 2.199 0 4.1.7 5.699 2.2 1.199 1.1 1.899 2.3 2.199 3.7z"/></svg>