<svg xmlns="http://www.w3.org/2000/svg" id="eyes" viewBox="0 0 3000 3000"><path fill="#030303" d="M1806.7 987.301c-9-10.2-20.801-15.2-32.101-20.601-6.6-3.2-12.3-7.8-18.6-11.399-2.9-1.601-4.2-4.301-4.3-7.4 0-5-.4-10.1.5-14.9 4.5-22 12.899-42.399 27-60.1 1.199-1.6 2.399-3.2 3.8-4.6 13.8-14.101 13.2-13.2 25.3 1.6 15.9 19.3 24.9 42 28.801 66.7 1 6.399.3 11.6-5.101 16.899-8 7.9-14 17.7-23.899 23.7-3.9 2.4-.9 6.5-1.4 10.101zM1795.3 865.6c-.8.6-1.5 1.3-2.3 1.899-18.9 18-29.7 40.5-35.2 65.7-.8 3.8-2 7.7-1.5 11.8.301 2.4.7 4 3.301 5.301 13.1 6.5 26 13.3 38.899 20 3.4 1.8 6.601 3.1 9.9-.301 6.2-6.5 12.8-12.699 18.8-19.3 2.9-3.2 3.9-6.899 3.3-11.7-3.399-28.3-16.5-52.1-33.1-74.5-1 .601-1.6.802-2.1 1.101zm-223.6 83.1c-2.5 1.7-4.101 3.8-6.601 3.5-3.899-.5-6.399 2-8.5 4.4-5.8 6.5-12.6 11.9-19.3 17.1-6 4.601-10.1 9.2-7.8 17.8-8.7-9.199-20.101-12.699-30.601-17.699-17.899-8.5-35.6-17.5-51.8-30 6.9-16.101 11.8-33.2 21.5-48.2 11.101-17.2 25.4-31.3 42.8-42.2 8.301-5.2 11.301-5.4 17.2 2.9 5.8 8.1 10.8 16.399 14.3 25.8 5.601 15.1 12.4 29.8 16.7 45.399.8 2.9 1.7 5.7 2.3 8.601 1.702 8.2 1.702 8.299 9.802 12.599zm-15.1-10.899c-6.8-26.2-19.199-49.9-32.199-73.4-4.7-8.5-8-8.9-15.2-2-12.5 11.9-25.2 23.5-34.3 38.4-7.4 12.1-15.101 24-19.2 37.8-1.2 3.899-1.5 5.5 2.6 7.6 19.2 9.9 38.801 18.7 59.5 24.8 3.601 1.101 6.301.9 9.2-1.199 9.8-6.801 19.5-13.7 28.7-21.301 1.899-1.6 2.5-2.8 2.3-5-.401-1.901-.901-3.801-1.401-5.7z"/></svg>