<svg xmlns="http://www.w3.org/2000/svg" id="eyes" viewBox="0 0 3000 3000"><path d="M1626 940.3c.2-1.5.4-2.9.5-4.3 13.5-2 21.5-6.7 24-14-5.2-.3-13 .7-23.4 2.8-37.4-15.1-74.7-24.4-111.8-27.8-49.9-2.3-82.7-2.4-98.5-.2-15.7 2.2-22.2 3.4-19.3 3.6 14.9 2.1 28.6 2.3 41 .8 17.2 34.6 43.3 60.5 78.2 77.8 40.2 10.6 70 5.4 89.6-15.6l10.4-11.2c-8.6 26.7-22.1 51.7-40.6 75-23.3 24.2-50.4 28.3-81.2 12.4 3.3 4.5 10.2 9.5 20.8 14.8 8.5 2.3 18.1 2.5 28.7.5 8.7-2.2 17-6.4 24.9-12.5l1.8-1.5c10.4-8.7 19-18.6 25.8-29.8 16.9-29.3 26.6-52.9 29.1-70.8m237.8-47.1h22.2c4.8-2.7 4.8-4.9 0-6.6-26.6-4.9-54.6-.7-83.8 12.6-18.3 7-34.5 18.4-48.8 34.2-1.6 2.3-2.7 4.6-3.5 6.9-2.5 8.1-.2 16.8 6.8 26.3 9.1 18.1 25.9 29.9 50.4 35.4 13.1 2.9 24 2.9 32.8 0-34.3-6.7-56.3-15.5-66-26.4-11.4-12.3-17.1-21.1-17-26.2 5.6 5 11 8.6 16.2 10.8 16 8.3 31.3 6.5 45.8-5.4 20.6-19.1 35.6-39.6 44.9-61.6z"/><path fill="#FFF" d="M1529.8 917.5c-5.1 11.2-14.9 16.9-29.2 17-14.8-4-24.4-11.2-28.9-21.8l-17.7-.5c14.4 19.9 33.2 37.9 56.4 54 22.1 10.4 44.5 12.4 67.4 5.8 14.9-8.3 26.5-18 35-29.2-1.9-.8-3.7-1.7-5.5-2.4-31.1-13.7-57-21.3-77.5-22.9m285-4.5c-5.1 11.5-12.1 18.3-21.2 20.4-6.4 1.2-11.9-1.2-16.3-7.1-6.2 2.5-13.2 6.7-21 12.7-.1.4-.1.9 0 1.3.4 1.9 2.2 4.3 5.6 7.1 18.9 13.1 35.7 15 50.2 5.8 14.6-11.7 27.4-26.9 38.3-45.7-9.1-.6-21 1.2-35.6 5.5z"/><path fill="#D4DFF7" d="M1471.7 912.7c-1.3-3.1-2.2-6.5-2.7-10.3l-22-.6c2.2 3.5 4.5 7 7 10.4l17.7.5m61.1-4.9c-.7 3.6-1.7 6.8-3 9.7 20.5 1.6 46.4 9.3 77.5 23 1.8.8 3.7 1.6 5.5 2.4.6-.8 1.3-1.7 1.9-2.5 1.8-2.5 3.4-5.1 4.9-7.8-29.8-11-58.7-19.3-86.8-24.8m244.5 18.5c-1.1-1.4-2.1-3.1-3-4.9-7.2 3.5-13.2 9.3-18 17.6 7.7-6 14.7-10.2 21-12.7m73-18.8c2.7-4.6 5.4-9.5 7.9-14.5-10.7.1-23.5 2.5-38.4 7-1.2 3.7-2.9 8.1-5 13 14.6-4.3 26.5-6.1 35.5-5.5z"/></svg>