<svg xmlns="http://www.w3.org/2000/svg" id="eyes" viewBox="0 0 3000 3000"><path d="M1622.8 911.5h-.3c-84.4-7.9-158.9-14-223.6-18.2-1.6 2.5.7 4.8 6.8 6.8l39.2 2.8c22.6 22.1 45.2 39.3 67.8 51.6h24.4c34.2-6 64.3-15.7 90.2-29.2h2.2l-12.8 20.4c4.6.4 10.1-3.4 16.4-11.4 3-4.2 4.3-9 3.8-14.2-.1-.9-.2-1.9-.4-2.8 3.2-.2 7.4-3.9 12.6-11.2 11.1-16.2 19-29.7 23.6-40.4-10.1 8.8-21 21.4-32.6 38-2.7 5.8-7.8 8.5-15.5 8-.5-.1-1.1-.2-1.8-.2m171 47.7c5.9.4 10.1-.8 12.8-3.6 39.2-38 63.5-64.1 73-78.4-16.5 4-52.2 20-107.2 48 6.3-18.3 10.4-31.8 12.2-40.6-7.1 12.8-13.7 26.9-19.6 42.2l-3.4 4.2c-.6 4.8.7 6.9 3.8 6.2 5.9 8 15.3 15.4 28.4 22z"/><path fill="#FFF" d="M1513 947.4c5.3 1.2 12.7 1.5 22.5 1.1 31.5-6.5 56.7-13.8 75.5-22l-35.3-3.8c-3.5 4.2-8.3 6.5-14.6 7-9.8.2-16.8-3.5-21-10.8l-72.8-6c14.6 11.8 29.9 23.3 45.7 34.5m305.5-29.1c-.7 4.6-2.8 7.7-6.1 9.3-7.1 2.3-12 2.2-14.6-.3l-21.5 12.4c6.5 6.2 13.3 10.7 20.3 13.3 2.4 1.5 5.5.2 9.4-3.8 18.2-18.2 34.6-35.5 49.2-51.9l-36.7 21z"/><path fill="#BAC7E3" d="M1467.3 913l72.8 6c-1.4-2.4-2.4-5.2-3.2-8.4l-80.8-6.8c3.6 3.1 7.4 6.1 11.2 9.2m108.3 9.8l35.3 3.8c5.3-2.3 10-4.6 14.3-7l-45.2-5c-1.1 3.2-2.5 5.9-4.4 8.2m243.2-11c.1 2.4.1 4.6-.3 6.5l36.7-21c2.1-2.3 4.2-4.6 6.2-6.9l-42.6 21.4m-21 15.5c-1.2-1.1-2-2.8-2.2-4.9l-24.4 12c1.7 1.9 3.4 3.7 5.1 5.3l21.5-12.4z"/></svg>