<svg xmlns="http://www.w3.org/2000/svg" id="eyes" viewBox="0 0 3000 3000"><path fill="#FEFEFE" d="M1607.749 920.288c4.37-.185 6.378.807 6.65 4.878 2.404 35.897-32.758 66.12-72.957 64.986-21.689-.611-38.889-9.411-50.577-24.677-8.625-11.266-15.886-23.032-15.243-37.039.366-8.002.106-8.014 9.894-8.103 2.007-.018 117.422.158 122.233-.045zm141.693-.02c-4.202-.254-5.819 1.111-5.864 5.541-.217 21.385 7.224 38.811 25.727 50.505 17.828 11.271 36.444 12.438 55.61 3.489 20.958-9.784 28.738-36.617 29.369-56.045.079-2.438-1.294-3.539-3.755-3.434-3.976.176-96.463.226-101.087-.056z"/><path id="cl1" stroke="#000" stroke-miterlimit="10" stroke-width="6" d="M1575.7 920.603c2.234-.094 3.261.411 3.399 2.494 1.231 18.354-16.747 33.808-37.302 33.229-11.094-.313-19.885-4.812-25.862-12.616-4.407-5.762-8.123-11.777-7.795-18.938.187-4.091.057-4.098 5.061-4.143 1.026-.012 60.037.078 62.499-.026zm200.865 1.025c-2.163-.132-2.994.57-3.021 2.852-.111 11.005 3.719 19.974 13.24 25.992 9.176 5.799 18.756 6.398 28.619 1.796 10.784-5.035 14.791-18.844 15.113-28.843.041-1.254-.666-1.821-1.933-1.769-2.04.09-49.638.115-52.018-.028z"/><path fill="none" stroke="#000" stroke-miterlimit="10" stroke-width="6" d="M1607.749 920.288c4.37-.185 6.378.807 6.65 4.878 2.404 35.897-32.758 66.12-72.957 64.986-21.689-.611-38.889-9.411-50.577-24.677-8.625-11.266-15.886-23.032-15.243-37.039.366-8.002.106-8.014 9.894-8.103 2.007-.018 117.422.158 122.233-.045zm141.693-.02c-4.202-.254-5.819 1.111-5.864 5.541-.217 21.385 7.224 38.811 25.727 50.505 17.828 11.271 36.444 12.438 55.61 3.489 20.958-9.784 28.738-36.617 29.369-56.045.079-2.438-1.294-3.539-3.755-3.434-3.976.176-96.463.226-101.087-.056z"/></svg>