<svg xmlns="http://www.w3.org/2000/svg" id="eyes" viewBox="0 0 3000 3000"><path d="M1514.199 904.5v-.199c0-4.601-1.9-8.601-5.6-11.801-3.7-3.3-8.301-5-13.5-5-5.2 0-9.801 1.7-13.5 5-3.2 2.801-5 6.101-5.5 10-.1.7-.1 1.4-.1 2.101 0 4.7 1.899 8.7 5.699 12 3.7 3.3 8.301 5 13.5 5 5.2 0 9.801-1.7 13.5-5 3.601-3.401 5.501-7.401 5.501-12.101m-5.4-.5v.2c0 3.4-1.299 6.3-4 8.7-2.699 2.4-6 3.6-9.799 3.6-3.801 0-7.101-1.199-9.801-3.6-2.699-2.4-4-5.3-4-8.7 0-.5 0-1.1.1-1.6.4-2.7 1.7-5.1 3.9-7.101 2.7-2.399 6-3.6 9.801-3.6 3.799 0 7.1 1.2 9.799 3.6 2.5 2.302 3.9 5.101 4 8.501m289.701 17.7c-.4-2-1.4-3.8-3-5.399-2.301-2.2-5-3.3-8.4-3.3-3.301 0-6.2 1.1-8.6 3.3-2.4 2.2-3.7 4.8-3.801 7.8v1.2c.2 2.5 1.301 4.7 3.301 6.6 1.399 1.3 2.899 2.2 4.6 2.7 1.199.4 2.4.5 3.8.5s2.8-.2 4-.6c1.7-.5 3.2-1.4 4.601-2.601 2.399-2.1 3.699-4.7 3.8-7.8-.102-.799-.102-1.599-.301-2.4m-12.2-2.899c1.6 0 2.899.5 4 1.5.7.6 1.1 1.399 1.399 2.2.2.5.2 1.1.2 1.699-.1 1.5-.7 2.7-1.899 3.801-1.2 1.1-2.5 1.6-4.101 1.6-1.6 0-3-.5-4-1.6-1-1-1.6-2.2-1.6-3.7v-.101c.1-1.5.7-2.699 1.899-3.8 1.202-1.099 2.602-1.599 4.102-1.599zm-131.101-5l-16.6-9.601c-5.1-2-7-3-7-3s-91.5-24.899-135.4-22.6c-63.3 2.3-65.449 3.218-99.199 24 48.75-16.038 42.5-13.8 65-13.6-1.301 39.699 15.1 64.399 49.199 74.199 32.1 8.7 59-.199 80.801-26.699 1.899-2.301 3.8-4.801 5.6-7.301 4.9-6.899 9-15.3 12.4-25.199l41.199 15c4.801 1.1 6.201-.6 4-5.199M1826 955.4c17.699-12.8 30.199-29.3 37.399-49.6h5.8l2.801-8.6c-42.5-.1-75.9 3.2-100.2 10-4.55.425-6.05.675-9 1.601-12.4 2.3-19.4 5.3-21 9 6.399.4 14.399-.6 24-2.8-.601 7.399-.5 14 .5 19.8 1.8 10.7 6.399 18.9 13.7 24.6 16 7.9 31.3 6.6 46-4.001z"/><path fill="#FFF" d="M1522.199 956.7c4.6.7 9.4 1.101 14.6 1.3 18-2.5 32.601-9.6 43.801-21.3 5.6-5.8 10.4-12.8 14.3-21 .101-.2.2-.5.3-.7-14.899-3.199-31.5-5.899-50-8 4.8 23.4-2.8 39.9-23.001 49.7m-13.399-52.5v-.2c-8.9-.6-18.101-1-27.601-1.399-.1.5-.1 1.1-.1 1.6 0 3.4 1.4 6.3 4 8.7 2.7 2.4 6 3.6 9.8 3.6s7.101-1.199 9.8-3.6c2.701-2.501 4.101-5.401 4.101-8.701m310.6 16.101c2.601 9.8.4 20.899-6.399 33.3 14.3-6.2 26.1-17.101 35.3-32.7-9.901-.6-19.501-.801-28.901-.6m-29.3 7.599c1.2-1 1.8-2.3 1.9-3.8 0-.601 0-1.101-.2-1.7-3.8.5-7.601 1.1-11.4 1.8 0 1.4.5 2.601 1.601 3.7 1.1 1.1 2.399 1.6 4 1.6 1.499 0 2.899-.5 4.099-1.6z"/><path fill="#BFC5E3" d="M1595.199 915c2.1-4.5 4-9.399 5.6-14.6-21.699-6.5-42.399-10.9-62.1-13.2 3 7.101 5.2 13.7 6.5 19.8 18.401 2.2 35.1 4.801 50 8m-86.4-11c-.1-3.3-1.399-6.1-4-8.5-2.699-2.399-6-3.6-9.799-3.6-3.801 0-7.101 1.2-9.801 3.6-2.3 2-3.6 4.4-3.9 7.101 9.4.299 18.601.799 27.5 1.399m281.5 16.301c-1.1-1-2.399-1.5-4-1.5-1.6 0-3 .5-4.1 1.5-1.199 1.1-1.8 2.3-1.9 3.8v.1c3.801-.7 7.601-1.2 11.4-1.8-.199-.701-.699-1.401-1.4-2.1m58 .599c2.7-4.5 5.101-9.4 7.301-14.7-18.1-.3-32.301.3-42.4 1.8 3 3.801 5.1 7.9 6.2 12.301 9.399-.201 19 0 28.899.599z"/><path id="cl1" fill="#3B2E24" d="M1538.699 914.5c.2-2.8.1-5.5-.4-8.1-7.699-.8-15.799-1.5-24.1-2.1v.2c0 4.699-1.9 8.699-5.6 12-3.7 3.3-8.301 5-13.5 5-5.2 0-9.801-1.7-13.5-5-3.801-3.301-5.7-7.301-5.7-12 0-.7 0-1.4.101-2.101-1.601-.1-3.2-.1-4.801-.2.1 1.101.1 2.2.301 3.301 2.699 23.699 14.199 39.3 34.5 47 9.899-.7 17.3-3.7 22.199-9.101 7.2-8.2 10.7-17.7 10.5-28.3v-.599m259.801 7.2c.199.801.199 1.601.199 2.5-.1 3.101-1.4 5.7-3.8 7.801-1.399 1.199-2.899 2.1-4.601 2.6-1.299.4-2.6.6-4 .6-1.299 0-2.6-.199-3.799-.5-1.701-.5-3.201-1.399-4.601-2.699-2-1.9-3.101-4.101-3.3-6.601l-3 .601c.1 3.199.4 6.199.8 8.8 1.5 8.8 5.101 14.7 10.8 17.5 4.5 2.2 8.801 3 13.1 2.399 13.4-6 18.4-17.3 15-34-4.198.199-8.499.6-12.798.999z"/><path id="sd1" fill="#2C2420" d="M1527.8 886.301c-19.9-1.5-38.7-.7-56.4 2.3-.6 3.1-.6 7.7-.3 13.7 1.6 0 3.199.1 4.8.199.5-3.8 2.4-7.1 5.5-10 3.7-3.3 8.3-5 13.5-5s9.8 1.7 13.5 5c3.7 3.301 5.601 7.2 5.601 11.801 8.399.6 16.399 1.3 24.1 2.1-.902-7.401-4.402-14.201-10.301-20.1m267.7 30c1.699 1.6 2.699 3.3 3 5.399 4.3-.399 8.6-.8 13-1 0-.2-.101-.5-.2-.8-1.2-5.2-3.4-8.9-6.5-11.1l-32.601 4.8c-.399 4.5-.6 8.6-.5 12.4l3-.601v-1.2c.101-3 1.4-5.6 3.801-7.8 2.399-2.2 5.3-3.3 8.6-3.3s6.099 1.101 8.4 3.202z"/></svg>