<svg xmlns="http://www.w3.org/2000/svg" id="eyes" viewBox="0 0 3000 3000"><path fill="#FFF" d="M1529 963.8c-13.7 11.1-29.5 16.8-47.4 17-18.2-.7-32.7-7-43.6-18.8 17.9 26 46.7 42 86.4 48-.8.6-1.7 1.2-2.6 1.7 23.1 1.5 41-1.9 53.6-10.4 28.9-16.5 42.5-40 40.8-70.5-3.3-7-7.8-13.5-13.3-19.7-10.1-11.2-23.8-21.2-41.3-29.8-15.7-4.2-29.2-5-40.4-2.3 21.8 12.4 30.8 29.8 27.2 52.1-.4 11.5-6.9 22.5-19.4 32.7m-16.5-82.9c-6.9 1.8-13.4 3.9-19.4 6.4-3.8 5.8-5 13.1-3.4 22 3.8.8 7.2 2.5 10.1 5.1 3.8 3.4 5.9 7.5 6.3 12.1 15.6-1.2 26.4-7.5 32.3-18.8-4-11.3-12.6-20.3-25.9-26.8m338.8 64.9c1.1-7 .9-15.1-.6-24.2-5.8-28.7-21.5-44.3-47.1-47.1 23 13.5 30.5 38 22.4 73.4-2.9 23.6-14.6 38-35 43.2-14.3 4.1-27.6 1-40-9.3 7.6 17.9 24.7 26.2 51.3 25 27.5-11.4 43.9-31.8 49-61m-55-65.3h-1.1c-6.2 6.7-10.2 14.5-11.9 23.7 4.2.6 7.9 3.1 11.1 7.3 3.6 5 5.4 11.1 5.4 18.2v1c8.4-5.8 15-12.9 19.5-21.3-5.1-19.4-12.8-29.1-23-28.9z"/><path id="cl1" fill="#3B2E24" d="M1469.7 914.5c4.2-3.7 9.3-5.6 15.1-5.6-.9-7.2.2-13.7 3.4-19.3-25.8 12.1-43.1 31.4-51.8 58.1 3.6 10.4 13.1 17.9 28.4 22.4 37.1 8.4 62-2.4 74.8-32.4 1.5-7.7 1.8-14.8.9-21.3-9.8 11-21.3 16.3-34.7 15.7-.8 3.6-2.8 6.8-5.8 9.5-4.2 3.8-9.2 5.7-15.1 5.7s-11-1.9-15.1-5.7c-4.2-3.7-6.3-8.3-6.3-13.5-.1-5.4 2-9.9 6.2-13.6m351 5.1c-6.5 9.1-13.6 14.5-21.4 16.2-.8 4.6-2.5 8.6-5.2 12.2-3.7 5-8.2 7.5-13.4 7.5s-9.7-2.5-13.4-7.5c-2.6-3.6-4.3-7.8-5-12.5-.3-1.8-.4-3.7-.3-5.7 0-7.1 1.9-13.2 5.7-18.2 2.5-3.3 5.3-5.5 8.3-6.6 2.3-7.2 6.3-14.8 12-22.9-8.5 2.8-17.6 9.4-27.2 20-7.7 11.1-12.9 21.3-15.5 30.8-4.9 17.8-.9 32.9 12 45.4 12.3 8.2 25.3 9.7 38.8 4.6 5.6-2.2 10.2-5.7 13.9-10.4 8-11.3 11.5-28.9 10.7-52.9z"/><path d="M1481.6 980.8c17.9-.2 33.7-5.9 47.4-17 12.5-10.2 19-21.2 19.4-32.8 3.6-22.3-5.4-39.7-27.2-52.1 11.2-2.7 24.7-1.9 40.4 2.3 17.5 8.6 31.2 18.6 41.3 29.8 5.6 6.2 10 12.7 13.3 19.7.3.7.6 1.4 1 2.1.4-6.3-.6-13-2.9-20-3.5-10.9-10.2-22.7-20.1-35.3-16.2-20.6-44.7-24.3-85.4-11-43.8 13.1-70.8 36.7-81.1 70.8-1.4 6.5-1.4 13.4 0 20.7 17.4 34.1 47.2 52.7 89.3 55.8 1.7-.5 3.4-1.2 4.9-2.1.9-.5 1.7-1 2.6-1.7-39.7-6-68.5-22-86.4-48 10.8 11.8 25.3 18.1 43.5 18.8m11.6-93.5c6-2.5 12.5-4.6 19.4-6.4 13.3 6.5 21.9 15.5 25.9 26.9-5.9 11.3-16.6 17.5-32.3 18.8-.3-4.7-2.4-8.7-6.3-12.1-2.9-2.6-6.3-4.3-10.1-5.1-1.6-9-.5-16.3 3.4-22.1m-8.4 21.5c-5.9 0-11 1.9-15.1 5.6-4.2 3.8-6.3 8.3-6.3 13.5 0 5.3 2.1 9.8 6.3 13.5 4.2 3.8 9.3 5.7 15.1 5.7 5.9 0 10.9-1.9 15.1-5.7 3.1-2.7 5-5.9 5.8-9.5 13.4.6 25-4.7 34.7-15.7.9 6.4.6 13.5-.9 21.3-12.8 30-37.7 40.8-74.8 32.4-15.3-4.5-24.8-12-28.4-22.4 8.7-26.7 26-46 51.8-58.1-3.1 5.8-4.2 12.2-3.3 19.4m365.9 12.9c1.5 9.1 1.7 17.1.6 24.2-5.1 29.2-21.4 49.5-49 61.1-2.6 1.1-5.2 2.1-8 3 30.2-.5 50.3-17.2 60.3-49.9 4.8-14.1 6.9-25.9 6.3-35.5l3.8-2.6c.7-2 .7-4.4 0-7.2-1.9-6.6-5.8-13.8-11.8-21.6-13.7-20-29.3-28.3-46.8-25-18.3 1-36.5 13.6-54.4 37.6-5.6 9.2-9.5 17.9-11.8 26.3-4.4 16.4-2.2 31.2 6.5 44.3 1.9 2.8 3.4 4.7 4.6 5.7 12.4 10.3 25.8 13.4 40 9.3 20.4-5.2 32.1-19.6 35-43.2 8.1-35.4.6-59.9-22.4-73.4 25.5 2.5 41.2 18.2 47.1 46.9m-55.4-41.1h1.1c10.2-.2 17.8 9.4 23 28.9-4.6 8.5-11.1 15.6-19.5 21.3v-1c0-7.1-1.8-13.2-5.4-18.2-3.1-4.3-6.8-6.7-11.1-7.3 1.7-9.2 5.6-17 11.9-23.7m4 55.2c7.8-1.7 14.9-7.1 21.4-16.2.9 24-2.7 41.6-10.8 52.8-3.6 4.7-8.3 8.2-13.9 10.4-13.6 5.1-26.5 3.6-38.8-4.6-12.8-12.5-16.8-27.6-12-45.4 2.6-9.5 7.8-19.8 15.5-30.8 9.6-10.5 18.6-17.2 27.2-20-5.7 8.1-9.7 15.7-12 22.9-3.1 1.1-5.9 3.4-8.3 6.6-3.7 5-5.6 11.1-5.7 18.2 0 2 .1 3.9.3 5.7.7 4.7 2.4 8.9 5 12.5 3.7 5 8.2 7.5 13.4 7.5s9.7-2.5 13.4-7.5c2.7-3.5 4.5-7.5 5.3-12.1z"/></svg>