<svg xmlns="http://www.w3.org/2000/svg" id="eyes" viewBox="0 0 3000 3000"><path d="M1630.9 925.801c3.3 2.5 5.601 3.3 6.9 2.3-2.101-2-3.3-3.101-3.5-3.4-40.3-41.899-79.2-63.2-116.7-63.8-28.8-1.2-51.2 15.1-67.2 48.8-14.7-5.5-27.1-17.3-37.2-35.2-.699 25.9 20.4 61.801 63.2 107.601 26.7 26.5 59.7 37.7 98.8 33.399 22.7-3.3 39.9-11.899 51.5-25.699.601-.7 1.301-1.5 1.801-2.301 3.1-4.3 5.5-10 7.3-17.3 2.101-9.7 2.101-19.3.2-28.8-1.1-5.1-2.802-10.301-5.101-15.6m-83.4-37.5c1.4-.7 3.699-1.2 7-1.4 17.199 1.5 25 9 23.5 22.7-.1.6-.1 1.3-.301 1.899-2.399.9-4.699 3-7.1 6.301-3.8 5.399-5.4 11.8-5 19.399v1c-3 1.7-9.6 1.8-19.6.4-10-1.4-15.7-8.6-17-21.6 1.1-3.4 2.4-6.5 3.699-9.5 3.7-8 8.301-14.2 13.601-18.501.501-.198.801-.499 1.201-.698m5-3.101c3.199-1.5 6.6-2.6 10.199-3.1 20.801 6.4 40.5 19.1 59.2 38.2 4.601 4.7 7.3 9.6 8.2 14.8.6 2.1 1.1 4.3 1.5 6.4 0 .1 0 .1.1.199 2.5 13.7 1 26.301-4.5 37.9-2.5 5.4-6.1 10-10.699 13.8-.9.7-1.801 1.3-2.7 1.9-14.101 6.3-31.4 5.7-52.101-1.8-7.8-3-13.5-6.7-17.199-11.3-14.2-16.601-19.801-36.4-16.801-59.301-.399 11.4 6.2 18.2 19.801 20.5 6.399 1 12.699 1.2 19.1.4 1.1 4.9 3.2 9.2 6.4 13 4.399 5.4 9.5 8 15.3 8s10.6-2.7 14.3-8c3-4.2 4.7-9.2 5.1-14.8.101-1.4.101-2.9 0-4.5-.399-7.601-2.899-14-7.3-19.4-.399-.5-.8-.899-1.2-1.399-4.1-4.4-8.8-6.601-14.1-6.601h-1.5c1.4-9.1-1.6-16-9.1-20.6-9.7-4.598-16.9-5.898-22-4.298m-26.5 23.101c-6.1 14.1-7.1 31.3-2.801 51.3 8.2 20.9 22.801 34.7 43.801 41.2 10.6 2.6 20.5 3.9 29.8 3.8-22 9.4-46.399 9.7-73.399 1-12.701-4-23.9-11.6-33.601-23-18.2-19.3-24.3-39.8-18-61.3 1.3-4.4 3.101-8.9 5.5-13.5 14.2-23.3 39.101-32.7 74.601-28.4-12.202 7.6-20.801 17.199-25.901 28.9m300.3-19c-1.3-8.2-4.399-13.2-9.5-15 1.399-2.5 7-3.5 16.8-2.8 9.1 3.5 14.6 12.6 16.6 27.2 1.201 9.199 1 20.6-.6 34.199-1.8 23.301-8.9 44-21.1 62.2-.7 1.101-1.5 2.2-2.301 3.3 17.4-14.1 31.701-37.699 43-70.6 12.201-17.9 18.9-34.3 20.201-49.4-6.201 10.5-13.101 18.301-20.601 23.4h-6.2c-.1-3.7-1.1-8.5-3-14.4-15.6-36.699-42.699-34.6-81.4 6.301-1.199 1.3-2.399 2.6-3.699 4-.801.899-1.6 1.8-2.5 2.8-4.6 5.399-8.6 11.2-11.9 17.3-2 3.8-3.8 7.7-5.3 11.8-1.5 4.101-2.8 8.4-3.8 12.8-3 13.4-3.5 28.101-1.5 44 5.1 18.9 21.5 26.4 49.1 22.5 2.801-.6 5.1-1.8 7.1-3.5-7.8 1.2-16.3 1-25.6-.6 19.7-15.4 32.801-34.8 39.4-58.4 6.401-26.2 8.6-45.1 6.8-57.1m-7.5 2.099c.601 5.601.7 12.7.2 21.2-3.5 28.2-11.7 50.5-24.801 66.9-13 16.5-23.3 22.2-31 17.1-9.699-6.899-12.399-25.1-8.199-54.6.3-1.9.6-3.8.9-5.8.199.699.399 1.399.6 2 .5 1.399 1.1 2.699 1.8 3.699 1.5 2.301 3.3 3.7 5.5 4.101-.3 4.399.399 8.2 2 11.6 2.101 4.3 5.3 6.5 9.5 6.5s8.2-2.2 12.101-6.5c3.799-4.399 6.299-9.6 7.5-15.8 1.199-6.1.699-11.4-1.4-15.8-2.2-4.3-5.301-6.5-9.5-6.5h-.5c0-.101.1-.3.1-.4.7-4.2.801-8.1.5-11.7-.199-2.699-.8-5.199-1.6-7.5-.5-1.3-1.2-3-2.2-4.899 12.899-13.3 23.5-19.5 31.899-18.7 3.499 1.9 5.701 6.9 6.6 15.099m-42.601 9.601c.201.5.301 1.1.4 1.6.6 2.9.801 6.2.6 9.9-.1 1.8-.299 3.699-.699 5.8-.2 1.5-.5 3-.801 4.399-1.299.9-2.5 2.101-3.799 3.5-3.5 4-6 8.7-7.301 14.2-2.199-.1-3.8-2.2-4.699-6.5-.201-1.2-.4-2.399-.5-3.6-.101-.7-.101-1.5-.201-2.3 6.301-13.9 11.901-22.9 17-26.999z"/><path fill="#FFF" d="M1523.199 959.6c-4.3-20.101-3.3-37.2 2.801-51.3-27.2 2.399-45.301 6.699-54.301 13-6.199 21.5-.199 42 18 61.3 9.7 11.399 20.9 19 33.6 23 27 8.7 51.4 8.399 73.4-1-9.3.1-19.199-1.2-29.8-3.8-20.899-6.499-35.499-20.3-43.7-41.2m9.6-52.1c-1.299 2.9-2.6 6.101-3.699 9.5 1.3 13 7 20.2 17 21.601 10 1.399 16.6 1.3 19.6-.4v-1c-.4-7.6 1.2-14 5-19.399 2.4-3.301 4.7-5.4 7.1-6.301.101-.6.201-1.3.301-1.899-13.601-2.902-28.601-3.602-45.302-2.102m226.601 22.7c.101 1.3.3 2.5.5 3.601.899 4.199 2.5 6.399 4.7 6.5 1.3-5.5 3.8-10.2 7.3-14.2 1.2-1.4 2.5-2.601 3.8-3.5.301-1.4.6-2.9.801-4.4.3-2 .5-3.899.699-5.8-6.7 5.299-12.7 11.199-17.8 17.799m69.399-41.6c-.899.2-1.699.399-2.5.7 1.801 12.1-.399 31-6.699 56.8-6.6 23.6-19.7 43-39.4 58.399 9.301 1.601 17.801 1.801 25.6.601 9.301-.9 16.801-4.3 22.701-10 12.299-18.101 19.299-38.8 21.1-62.2 1.6-13.6 1.8-25 .6-34.2-5.201-8.399-12.301-11.7-21.402-10.1z"/><path fill="#B6CAE0" d="M1526 908.301c5.1-11.601 13.699-21.2 25.8-28.801-35.5-4.3-60.4 5.101-74.601 28.4-2.3 4.6-4.199 9.1-5.5 13.5 9-6.4 27.101-10.8 54.301-13.099m28.5-21.5c-3.301.199-5.601.699-7 1.399-.4.3-.7.5-1.101.8-5.3 4.301-9.899 10.501-13.6 18.501 16.7-1.5 31.7-.801 45.2 2 1.501-13.601-6.3-21.2-23.499-22.7m222.1 15.799c-.1-.6-.3-1.1-.4-1.6-5 4.199-10.699 13.199-16.899 27 0 .8.1 1.6.2 2.3 5.1-6.601 11-12.5 17.8-17.8.099-3.699-.102-6.999-.701-9.9m49.7-13.299c.8-.2 1.7-.4 2.5-.7 9.1-1.601 16.2 1.7 21.399 10-1.899-14.601-7.5-23.7-16.6-27.2-9.8-.7-15.4.3-16.8 2.8 5.001 1.799 8.201 6.799 9.501 15.1z"/><path id="cl1" fill="#3B2E24" d="M1566.5 943.6c-6.4.8-12.7.6-19.101-.4-13.6-2.2-20.2-9.1-19.8-20.5-3 23 2.6 42.8 16.8 59.3 3.7 4.5 9.4 8.301 17.2 11.301 20.699 7.5 38 8.1 52.1 1.8.9-.601 1.801-1.2 2.7-1.9 4.601-3.8 8.101-8.399 10.7-13.8 5.5-11.6 7-24.2 4.5-37.9 0-.1 0-.1-.1-.199-9-10.9-19.801-19.2-32.4-25 .4.5.8.899 1.199 1.399 4.4 5.4 6.9 11.8 7.301 19.4.1 1.6.1 3.1 0 4.5-.301 5.7-2 10.6-5.1 14.8-3.801 5.4-8.5 8-14.301 8-5.8 0-10.9-2.7-15.3-8-3.099-3.6-5.199-7.901-6.398-12.801m252.499-31c.5-8.5.5-15.601-.2-21.2-13.1 4.1-24.699 9.5-34.8 16.1.3 3.5.2 7.4-.5 11.7 0 .2-.1.3-.1.4h.5c4.2 0 7.399 2.2 9.5 6.5 2.1 4.399 2.6 9.6 1.399 15.8-1.199 6.2-3.699 11.4-7.5 15.8-3.899 4.3-7.899 6.5-12.1 6.5-4.199 0-7.4-2.2-9.5-6.5-1.6-3.3-2.3-7.2-2-11.6-2.199-.4-4-1.8-5.5-4.101-.699-1-1.199-2.3-1.8-3.699-.2-.7-.5-1.301-.601-2-.3 2-.6 3.899-.899 5.8-4.2 29.5-1.5 47.7 8.2 54.6 7.699 5.101 18.1-.6 31-17.1 13.201-16.5 21.401-38.799 24.901-67z"/><path id="sd1" fill="#2A2420" d="M1562.699 882.1c-3.6.5-7 1.5-10.199 3.1 5-1.6 12.3-.2 21.899 4 7.5 4.7 10.5 11.601 9.101 20.601h1.5c5.3 0 10 2.199 14.1 6.6 12.699 5.8 23.5 14.1 32.4 25-.4-2.1-.9-4.2-1.5-6.4-.9-5.199-3.601-10.1-8.2-14.8-18.601-19.001-38.3-31.701-59.101-38.101M1782.5 900c.8 2.301 1.399 4.801 1.6 7.5 10-6.6 21.6-12 34.8-16.1-.899-8.2-3.2-13.2-6.6-15-8.4-.8-19 5.4-31.9 18.7.9 1.9 1.6 3.6 2.1 4.9z"/></svg>