<svg xmlns="http://www.w3.org/2000/svg" id="图层_2" viewBox="0 0 3000 3000"><path fill="#FFF" d="M1456.502 906.582s142.666 2.588 205.332 20.588c0 0-68.752 48-94.709 58s-93.289-47.176-110.623-78.588zm356.709 73.915c13.377-3.338 44.887-57.598 44.887-57.598-29.737-1.603-104.799 6.937-104.799 6.937 6.797 11.334 46.535 54 59.912 50.661z"/><path id="cl1" fill="#B57754" d="M1591.823 915.891l-9.993 24.159-7.397-25.105 17.39.946zm200.328 9.596l9.286 24.47 8.127-24.85-17.413.38z"/><path fill="none" stroke="#000" stroke-miterlimit="10" stroke-width="6" d="M1476.502 890.502s132.496 2.654 181.248 18.661m200.084.639c-42.666-10.035-104.535 6.6-104.535 6.6m-186.174 68.768c25.957-10 94.709-58 94.709-58-62.666-18-205.332-20.588-205.332-20.588 17.334 31.412 84.666 88.588 110.623 78.588zm246.086-4.673c13.377-3.338 44.887-57.598 44.887-57.598-29.737-1.603-104.799 6.938-104.799 6.938 6.797 11.333 46.535 54 59.912 50.66zm-238.778-65.552l7.396 25.105 9.994-24.159-17.39-.946zm216.875 12.213l11.007 23.746 6.335-25.366-17.342 1.62h0z"/></svg>