<svg xmlns="http://www.w3.org/2000/svg" id="图层_2" viewBox="0 0 3000 3000"><path fill="#FFF" d="M1564 1011s-45.5 3.5-70.5-8-62-87.418-62-87.418c12-3.08 154.559 9.076 163.027 13.747 8.471 4.673 21.473 39.172 21.473 39.172 20 43.002-52 42.499-52 42.499zm213.354-8.95s28.553 3.166 44.241-7.238c15.689-10.404 38.909-79.086 38.909-79.086-7.531-2.788-96.993 8.211-102.31 12.437-5.315 4.228-13.473 35.438-13.473 35.438-12.551 38.902 32.633 38.449 32.633 38.449z"/><path id="cl1" fill="#4F3120" d="M1566.666 951c0 16.018-12.535 29-28 29-15.463 0-28-12.982-28-29 0-16.017 12.537-29 28-29 15.465 0 28 12.983 28 29zm249.193-30.627c-2.135-1.999-31.005 1.251-32.735 4.332-2.83 5.038-5.441 10.521-5.441 16.966 0 14.729 10.669 26.67 23.83 26.67 13.16 0 23.828-11.941 23.828-26.67-.001-8.702-3.957-16.12-9.482-21.298z"/><path fill="#FFF" d="M1819.32 936.125c0 6.146-3.212 11.125-7.172 11.125-3.961 0-7.172-4.979-7.172-11.125 0-6.145 3.211-11.125 7.172-11.125 3.96 0 7.172 4.98 7.172 11.125zm-269.445-5.324c-4.352 0-7.875 5.482-7.875 12.25 0 6.766 3.523 12.25 7.875 12.25 4.35 0 7.875-5.484 7.875-12.25 0-6.769-3.525-12.25-7.875-12.25z"/><path fill="none" stroke="#000" stroke-miterlimit="10" stroke-width="6" d="M1564 1011s-45.5 3.5-70.5-8-62-87.418-62-87.418c12-3.08 154.559 9.076 163.027 13.747 8.471 4.673 21.473 39.172 21.473 39.172m161.354 33.549s28.553 3.166 44.241-7.238c15.689-10.404 38.909-79.086 38.909-79.086-7.531-2.788-96.993 8.211-102.31 12.437-5.315 4.228-13.473 35.438-13.473 35.438M1538.666 922c-15.463 0-28 12.983-28 29 0 16.018 12.537 29 28 29 15.465 0 28-12.982 28-29 0-16.017-12.535-29-28-29zm277.193-1.627c-2.135-1.999-31.005 1.251-32.735 4.332-2.83 5.038-5.441 10.521-5.441 16.966 0 14.729 10.669 26.67 23.83 26.67 13.16 0 23.828-11.941 23.828-26.67-.001-8.702-3.957-16.12-9.482-21.298h0z"/></svg>