<svg xmlns="http://www.w3.org/2000/svg" id="图层_2" viewBox="0 0 3000 3000"><path fill="#FFF" d="M1486.901 947.25s12.385-10.405 40.781-26.303c28.396-15.896 81.318-11.947 94.195.854 12.877 12.799 39.125 25.45 39.125 25.45-7.498 19.75-30.965 55.538-82.002 55.252-88.5-.5-92.099-55.253-92.099-55.253zm369.599-9.948s8.024-13.14-13.334-28.135c-21.359-14.998-65.804-5.699-74.637 7.487-8.831 13.188-30.406 25.646-30.406 25.646 6.305 19.499 24.924 54.522 62.084 52.646 64.435-3.251 56.293-57.644 56.293-57.644z"/><path id="cl1" fill="#89583D" d="M1841.832 940.927c0 15.965-8.433 28.906-18.832 28.906-10.4 0-18.834-12.941-18.834-28.906 0-15.964 8.434-28.906 18.834-28.906 10.402-.001 18.832 12.943 18.832 28.906zm-245.166-18.878c-11.139 0-20.166 12.94-20.166 28.904 0 15.967 9.027 28.907 20.166 28.907s20.166-12.942 20.166-28.907c0-15.964-9.027-28.904-20.166-28.904z"/><path fill="none" stroke="#000" stroke-miterlimit="10" stroke-width="6" d="M1486.901 947.25s37.934-39.642 95.934-35.229 45.668 28.729 78.168 35.229m199.012-10.081s-8.515-47.335-66.466-32.496c-41.184 10.544-32.033 30.125-55.428 37.631M1823 912.02c-10.4 0-18.834 12.942-18.834 28.906 0 15.965 8.434 28.907 18.834 28.907 10.399 0 18.832-12.942 18.832-28.907 0-15.962-8.43-28.906-18.832-28.906zm-226.334 10.029c-11.139 0-20.166 12.94-20.166 28.904 0 15.967 9.027 28.907 20.166 28.907s20.166-12.942 20.166-28.907c0-15.964-9.027-28.904-20.166-28.904z"/></svg>