<svg xmlns="http://www.w3.org/2000/svg" id="图层_3" viewBox="0 0 3000 3000"><path fill="#FFF" d="M1621.025 938.457l-80.534-19.19-93.259 6.979 26.849 27.916 50.863 26.173h52.279l39.566-6.979 26.842 1.744-22.606-36.643zm150.182 1l-15.541 33.151 12.719 1.746 14.127 5.233 29.67-1.743 33.916-31.409 11.304-22.68-43.806-5.236-42.389 20.938z"/><path d="M1495.271 914.031s4.117 27.155 14.133 38.383c10.015 11.23 21.191 22.619 41.228 22.685 20.502.063 38.272-16.37 42.137-24.426 4.523-9.453 8.475-21.902 8.475-21.902l-49.029-14.738-56.944-.002zm280.177 20.194s2.354 23.843 8.478 31.404c6.123 7.562 13.188 9.887 18.367 8.726 5.184-1.164 11.305-5.819 16.955-17.451s12.72-33.148 12.72-33.148l-28.261-1.745-28.259 12.214z"/><path id="cl1" fill="#F99106" d="M1500.928 921.01s8.003 22.101 16.949 31.405c8.951 9.308 14.603 15.704 32.5 15.704s26.846-7.562 32.496-13.957c5.65-6.396 12.717-20.936 12.717-20.936l-43.799-12.216h-50.863zm280.174 13.215s.938 20.354 7.063 27.915c6.123 7.562 8.95 7.562 14.131 6.978 5.181-.583 7.065-.583 12.718-12.215 5.651-11.632 11.303-33.148 11.303-33.148l-22.604-1.747-22.611 12.217z"/><path d="M1540.49 921.01s1.408 12.216 2.821 20.937c1.416 8.727 7.066 22.684 7.066 22.684s.472-8.144 1.414-20.938c.943-12.797 7.064-20.936 7.064-20.936l-18.367-1.745.002-.002zm264.633 4.49v15.703l-2.83 19.19-2.827-19.19-2.824-15.703h8.481zm-171.381 44.365h-16.953s-18.844 4.65-29.676 6.979c-10.837 2.323-35.322 1.743-35.322 1.743s21.19 4.652 36.732 3.489c15.546-1.165 29.672-6.979 29.672-6.979h22.611l-7.064-5.232z"/><path d="M1416.151 917.519s68.525-9.594 117.271-5.236c48.748 4.363 97.492 22.685 97.492 22.685s-.941 18.611 5.649 26.173c6.595 7.562 23.549 14.539 22.604 19.192-.936 4.654-6.588 4.068-12.711 1.744-6.123-2.325-14.604-12.212-19.783-17.447-5.18-5.234-7.065-19.192-7.065-19.192s-51.569-14.83-84.772-17.447c-33.207-2.616-74.89 5.236-74.89 5.236s13.425 17.447 36.737 29.662c23.313 12.211 35.324 15.701 35.324 15.701l-5.651 3.489s-4.944 0-32.501-10.468c-27.548-10.471-77.704-54.091-77.704-54.092zm333.865 63.815c-4.236-.584 9.89-19.193 12.719-27.918 2.822-8.724 1.407-19.189 1.407-19.189s25.907-16.869 46.632-20.941c20.723-4.066 55.102 3.49 55.102 3.49s-8.475 19.775-15.541 31.408c-7.064 11.632-38.151 34.895-38.151 34.895s16.955-23.844 26.85-36.641c9.89-12.792 8.474-19.189 8.474-19.189s-12.715-3.491-35.322 0c-22.605 3.489-36.732 15.699-36.732 15.699l-7.063 13.958-7.065 12.216 8.48 1.746 9.89 5.233 22.604 3.489s-14.131 5.235-22.604 3.491c-8.481-1.745-7.417-5.671-12.719-6.979-5.3-1.307-8.479 0-8.479 0s-4.246 5.81-8.482 5.232z"/><path d="M1485.383 893.095c-4.709-2.912 85.722-2.912 107.385 0 21.663 2.906 53.693 15.7 53.693 15.7s-6.125 18.611-4.243 26.173c1.885 7.562 16.952 29.661 16.952 29.661s-18.361-16.865-22.604-29.661c-4.236-12.793 1.414-19.194 1.414-19.194s-18.37-10.468-45.213-13.958c-26.849-3.49-102.675-5.814-107.384-8.721zm346.582-.747c4.236 1.747-48.041 12.214-48.041 12.214l-24.021 10.469s.942 5.235 0 15.703c-.942 10.469-11.303 33.152-11.303 33.152l7.063-33.152-1.412-24.429s24.963-8.724 35.321-10.47c10.366-1.74 38.157-5.231 42.393-3.487z"/></svg>