<svg xmlns="http://www.w3.org/2000/svg" id="图层_5" viewBox="0 0 3000 3000"><path d="M1673.461 956.952s-60.441-37.772-105.767-43.816c-45.329-6.044-114.834 13.6-114.834 13.6H1403s28.004 16.493 52.886 27.196c24.776 10.661 29.512 5.834 52.948 14.443 22.914 8.418 27.131 18.795 69.437 21.816 42.305 3.023 95.19-33.239 95.19-33.239zM1741.498 950.908s20.146-33.242 55.903-39.287c35.765-6.044 52.888 12.088 60.441 13.602 7.55 1.512 24.175-4.534 24.175-4.534s-7.052 20.651-24.175 28.708c-17.128 8.061-17.634 9.064-28.712 15.112-11.078 6.043-15.609 20.144-40.792 21.15-25.182 1.009-46.84-34.751-46.84-34.751z"/><path fill="#FFF" d="M1480.06 934.287s54.896-15.107 93.679-9.063 89.143 31.729 89.143 31.729-42.305 29.718-83.098 27.196c-51.377-2.518-99.724-49.862-99.724-49.862zM1749.054 950.908s12.592-22.666 46.837-30.221c34.251-7.553 48.354 13.6 48.354 13.6s-24.174 41.806-51.373 45.33c-27.2 3.523-43.818-28.709-43.818-28.709z"/><path d="M1508.765 928.243s33.748 30.725 61.948 33.24c28.207 2.521 63.462-18.131 63.462-18.131s-33.747-16.117-63.461-19.646c-29.714-3.52-61.949 4.537-61.949 4.537zM1762.653 935.801s15.105 22.662 30.219 21.151c15.105-1.513 22.158-12.591 27.199-21.151 5.035-8.564 4.53-15.112 4.53-15.112s-17.626-3.022-31.729 0c-14.105 3.022-30.219 15.112-30.219 15.112z"/><path id="cl1" fill="#008CFF" d="M1516.323 928.243s26.19 26.191 54.393 28.709c28.207 2.52 57.418-16.622 57.418-16.622s-27.703-13.095-57.418-16.622c-29.716-3.522-54.393 4.535-54.393 4.535zm250.861 4.534s10.574 21.152 25.688 19.641c15.105-1.51 17.627-8.058 22.662-16.619 5.035-8.563 4.537-13.601 4.537-13.601s-13.096-4.534-27.199-1.512c-14.105 3.025-25.688 12.091-25.688 12.091z"/><path d="M1576.758 922.199s-30.219.756-25.688 12.087c-1.513 7.936 20.774 16.622 34.757 16.622 13.976 0 30.594-12.465 28.704-18.131-8.686-5.668-37.773-10.578-37.773-10.578zM1794.384 917.665l-13.601 4.534s-5.035 6.548-3.023 12.087c2.017 5.542 16.624 9.569 24.174 6.043 7.557-3.524 15.616-13.597 15.112-19.643-.505-6.043-22.662-3.021-22.662-3.021z"/><path fill="#FFF" d="M1606.976 932.777c8.349 0 15.11 4.059 15.11 9.065 0 5.004-6.763 9.063-15.11 9.063-8.345 0-15.106-4.061-15.106-9.063-.001-5.006 6.763-9.065 15.106-9.065zM1807.977 920.687c5.848 0 10.581 4.061 10.581 9.067 0 5.005-4.733 9.064-10.581 9.064-5.841 0-10.574-4.061-10.574-9.064 0-5.006 4.734-9.067 10.574-9.067z"/></svg>