<svg xmlns="http://www.w3.org/2000/svg" id="图层_3" viewBox="0 0 3000 3000"><path fill="#561B60" d="M1411.705 930.855l165.096-21.026 88.24 57.073-145.17 25.532-108.166-61.579z"/><path fill="#FFF" d="M1444.441 939.869l132.36-16.521 58.351 37.547-111.011 19.526-79.7-40.552z"/><path fill="#561B60" d="M1729.631 962.394l46.561-54.065 81.104 25.532-33.043 49.563-94.622-21.03z"/><path fill="#FFF" d="M1747.654 956.388l33.042-37.548 61.578 19.522-21.027 31.541-73.593-13.515z"/><path fill="#561B60" d="M1531.258 920.344c9.433 0 17.076 5.713 17.076 12.766 0 7.049-7.644 12.77-17.076 12.77-9.437 0-17.077-5.721-17.077-12.77 0-7.053 7.642-12.766 17.077-12.766zM1782.951 918.842c7.877 0 14.265 4.709 14.265 10.515s-6.388 10.515-14.265 10.515c-7.885 0-14.271-4.709-14.271-10.515s6.389-10.515 14.271-10.515z"/></svg>