<svg xmlns="http://www.w3.org/2000/svg" id="eyes" viewBox="0 0 3000 3000"><path fill="#FFF" d="M1475.688 903.155c29.565-1.541 82.28-12.23 107.653 7.615 27.874 21.802 12.616 76.025-13.446 92.624-35.313 22.489-74.521 20.265-99.228.605-29.93-23.816-46.765-71.848-29.053-93.103 6.143-7.371 20.057-7.431 34.074-7.741 10.184-.53-7.819.173 0 0zm252.396 10.155c-48.419 62.903 69.532 139.946 109.998 69.032 9.482-16.617 22.817-74.153-8.792-78.272-23.713-3.091-82.446-15.129-101.206 9.24-6.62 8.6 8.158-10.597 0 0z"/><path fill="#FFF" stroke="#000" stroke-miterlimit="10" stroke-width="6" d="M1475.688 903.155c29.565-1.541 82.28-12.23 107.653 7.615 27.874 21.802 12.616 76.025-13.446 92.624-35.313 22.489-74.521 20.265-99.228.605-29.93-23.816-46.765-71.848-29.053-93.103 6.143-7.371 20.057-7.431 34.074-7.741 10.184-.53-7.819.173 0 0zm252.396 10.155c-48.419 62.903 69.532 139.946 109.998 69.032 9.482-16.617 18.918-71.343-8.792-78.272-23.199-5.803-82.446-15.129-101.206 9.24-6.62 8.6 8.158-10.597 0 0z"/><path fill="#020203" d="M1474.5 905.878c4.122 3.127 3.19 15.603 2 24.622-3.869 9.834-8.976 15.515-17 19.25-1.684.784-4.712 1.307-9.734 2.772-3.145.409-5.666 1.263-9.362-.047-3.679-1.878-4.428-5.856-5.012-11.145-.929-7.108-1.167-13.045-.896-19.858.229-5.771 5.874-9.91 10.516-11.671 8.895-3.375 19.901-5.313 29.488-3.923zm254.783 5.729c-1.131.389-2.095 1.6-2.871 2.629-7.246 9.6-9.688 20.434-8.115 32.267.478.19.945.385 1.41.585 6.197.89 12.389 1.105 18.574-.107 18.899-5.775 24.719-20.479 18.469-37.229-.613-1.167-2.563-6.121-3.25-7.25-8.316-.318-16.604 6.487-24.217 9.105z"/></svg>