<svg xmlns="http://www.w3.org/2000/svg" id="图层_4" viewBox="0 0 3000 3000"><path d="M1654.019 992.977s-2.478-112.876-59.533-115.354c-75.659 0-124.657 106.671-115.354 121.555 9.302 14.888 79.385-6.819 105.432-7.44 26.047-.623 69.455 1.239 69.455 1.239zm86.221-1.241s22.328-106.051 60.776-104.188c45.895 1.859 45.895 111.63 45.895 111.63s-26.05-9.922-48.371-12.401c-22.331-2.483-58.3 4.959-58.3 4.959z"/><path fill="#FFF" d="M1650.299 990.497s1.242-100.469-55.813-102.949c-57.057-2.48-113.494 90.546-104.19 105.43 9.301 14.885 68.221-5.582 94.268-6.202 26.047-.622 65.735 3.721 65.735 3.721zm96.144-3.722s18.604-91.167 57.058-89.306c38.448 1.858 37.211 96.746 37.211 96.746s-19.851-8.682-42.172-11.162c-22.331-2.479-52.097 3.722-52.097 3.722z"/><path d="M1626.73 945.844c5.479 0 9.928 7.221 9.928 16.125s-4.446 16.125-9.928 16.125c-5.476 0-9.922-7.221-9.922-16.125 0-8.906 4.446-16.125 9.922-16.125zm151.963 2.48c4.795 0 8.683 6.109 8.683 13.645s-3.888 13.643-8.683 13.643c-4.799 0-8.687-6.106-8.687-13.643s3.888-13.645 8.687-13.645z"/></svg>