<svg xmlns="http://www.w3.org/2000/svg" id="图层_3" viewBox="0 0 3000 3000"><path d="M1493.586 941.407s-11.145 9.287-12.536 19.503c-1.396 10.213 29.948 45.271 71.042 39.001 33.43-4.177 52.005-34.822 54.32-51.539 2.322-16.715-12.531-41.79-12.531-41.79l-100.295 34.825z"/><path fill="#FFF" d="M1501.942 941.407s-11.145 9.287-12.537 19.503c-1.39 10.213 26.471 37.609 59.899 33.432 33.437-4.18 47.823-29.253 50.147-45.97 2.316-16.715-11.145-39.004-11.145-39.004l-86.364 32.039z"/><path d="M1750.961 928.872s2.787 26.003 8.357 33.433c5.572 7.428 28.322 30.646 43.18 30.646 14.86 0 42.722-23.681 45.97-34.823 3.253-11.146-2.784-27.858-2.784-27.858l-59.896-26.467-34.827 25.069z"/><path fill="#FFF" d="M1756.531 924.692s5.571 30.183 11.144 37.61 21.361 23.681 36.22 23.681c14.86 0 34.358-16.715 37.612-27.856 3.248-11.146-1.396-27.859-1.396-27.859l-54.327-26.467-29.253 20.891z"/><path d="M1540.948 924.692c13.396-8.355 20.893 6.55 20.893 14.626s-9.353 14.626-20.893 14.626c-11.539 0-20.896-6.55-20.896-14.626s8.892-12.768 20.896-14.626zM1784.391 906.587c9.232 0 16.721 7.795 16.721 17.409 0 9.616-7.486 17.412-16.721 17.412-9.229 0-16.715-7.796-16.715-17.412 0-9.614 7.486-17.409 16.715-17.409z"/><path d="M1457.369 952.553c5.111 4.177 79.396-22.289 79.396-22.289s62.224-21.822 68.26-19.501c6.037 2.32 33.896 33.895 36.213 29.252 2.323-4.645-33.43-45.967-33.43-45.967s-36.685 6.501-72.433 25.069c-35.752 18.575-83.112 29.256-78.006 33.436zM1739.817 938.622c-1.396-2.319 40.396-45.967 43.186-45.967 2.783 0 48.75 26.466 48.75 26.466s30.646 16.021 27.857 19.501c-2.781 3.483-20.427-6.031-34.822-11.144-14.393-5.106-40.396-20.896-40.396-20.896s-43.181 34.363-44.575 32.04z"/></svg>