<svg xmlns="http://www.w3.org/2000/svg" id="eyes" viewBox="0 0 3000 3000"><path fill="#FFF" d="M1459.333 877.668l138 69s-3.332 15.332-19.666 27.666-58.717 20.883-86 6c-29.333-16-40.742-46-42.075-55S1445 890 1459.333 877.668zm311.001 112.518c22 7.853 43-1.854 56.333-12.854s23.667-29.333 24-48.333-14.333-38.667-14.333-38.667l-101.667 56c2.333 24.336 13.667 36.002 35.667 43.854z"/><path stroke="#000" stroke-miterlimit="10" stroke-width="6" d="M1818.75 901.75c3.25 5.918 11 24.75-11.5 38.75-23.927 14.888-37.25-12-37.25-12m-273.4-32.199S1483 929.25 1508.75 943s45.25 2.75 53.75-11.5"/><path id="cl1" fill="#066" d="M1559.667 931.334c-6.214 19.086-39.334 17.666-53.667 7-16.05-11.944-10.115-33.168-8.156-38.703.295-.834.49-1.297.49-1.297s62.593 29.131 61.333 33zm211.5-2.502s6.832 14.502 22.166 13.502 23.661-11.877 25.794-19.31c1.813-6.321.54-14.688-2.127-19.356l-45.833 25.164z"/><path fill="none" stroke="#000" stroke-miterlimit="10" stroke-width="6" d="M1459.333 877.668l138 69s-3.332 15.332-19.666 27.666-57.688 18.815-86 6c-31.666-14.332-36.949-36.345-42.032-53.332-2.44-8.155-4.635-37.002 9.698-49.334zm311.001 112.518c22 7.853 43-1.854 56.333-12.854s23.667-29.333 24-48.333-14.333-38.667-14.333-38.667l-101.667 56c2.333 24.336 13.667 36.002 35.667 43.854z"/></svg>