<svg xmlns="http://www.w3.org/2000/svg" id="eyes" viewBox="0 0 3000 3000"><path fill="#F9F9F9" d="M1823.082 896.592c-4.31-4.051-9.306-6.979-15.192-6.043-9.771 1.551-18.145 6.104-24.355 14.094-12.425 15.975-18.123 33.328-13.38 53.87 3.53 15.302 10.145 27.584 23.876 36.063 14.379 8.879 27.895 5.514 35.751-9.446 7.644-14.555 8.566-30.411 10.063-46.034-.71-16.27-4.533-31.016-16.763-42.504z"/><path fill="none" stroke="#000" stroke-miterlimit="10" stroke-width="6" d="M1479.03 1038.668c-7.241-5.027-13.074-8.791-18.599-12.966-30.763-23.247-47.711-54.722-54.438-92.173-1.301-7.244-1.349-7.813-8.776-7.676-19.938.368-39.895-.713-59.818 1.707-9.204 1.118-18.637.419-27.963.438-27.613.056-148.192 7.301-175.824 6.598-2.331-.061-4.67.012-6.991-.167-2.521-.194-4.633-1.331-4.788-4.096-.149-2.669 1.803-4.538 4.061-5.071 3.198-.757 6.588-.91 9.9-.959 27.604-.411 148.24-5.902 175.811-6.856 20.6-.712 41.229-.623 61.797-1.749 28.116-1.541 56.194-2.808 84.026-8.692 27.543-5.825 55.693-8.754 83.552-13.12 22.608-3.544 45.123-7.751 67.788-10.881 16.757-2.315 33.254-6.538 50.239-7.104 4.316-.144 7.535-2.027 10.628-4.764a71206.662 71206.662 0 0 1 90.482-79.874c33.673-29.679 67.362-59.341 101.073-88.978 2.993-2.631 6.063-5.227 9.369-7.429 1.957-1.303 4.576-1.635 6.396.501 1.701 1.996 1.678 4.653.012 6.439-4.078 4.376-8.354 8.603-12.849 12.554-26.46 23.277-52.994 46.469-79.521 69.669-34.528 30.199-69.017 60.449-103.688 90.481-2.213 4.351-3.209 6.788-4.954 13.181-4.993 22.079-9.419 38.694-9.456 56.65-1.734 22.046-4.554 40.858-13.004 59.939-12.098 27.318-33.685 43.035-62.019 50.269-16.794 4.286-22.226 4.28-39.625 3.166-18.275-1.171-36.547-3.527-53.358-11.048-7.254-3.243-11.708-1.598-16.767 2.928-12.641 11.306-25.353 22.528-38.088 33.729-38.197 33.59-76.427 67.146-114.633 100.729-12.486 10.977-50.301 48.756-62.785 59.734-5.637 4.957-8.31 5.544-11.055 2.558-2.521-2.743-1.606-5.767 4.021-10.692 29.014-25.398 83.52-77.409 112.527-102.811 19.512-17.087 38.857-34.361 58.325-51.5 13.971-12.301 28.018-24.515 42.039-36.758 2.005-1.747 4.049-3.439 6.953-5.906zm344.052-142.076c-4.31-4.051-9.306-6.979-15.192-6.043-9.771 1.551-18.145 6.104-24.355 14.094-12.425 15.975-18.123 33.328-13.38 53.87 3.53 15.302 10.145 27.584 23.876 36.063 14.379 8.879 27.895 5.514 35.751-9.446 7.644-14.555 8.566-30.411 10.063-46.034-.71-16.27-4.533-31.016-16.763-42.504z"/><path fill="none" stroke="#000" stroke-miterlimit="10" stroke-width="6" d="M1805.491 924.545c13.016-.326 15.247 9.264 15.503 16.484s-4.158 16.064-16.826 16.644-16.918-6.673-15.918-18.423 5.482-14.41 17.241-14.705z"/><path id="sd1" fill="#399" d="M1479.03 1038.668c-7.241-5.027-13.074-8.791-18.599-12.966-30.763-23.247-47.711-54.722-54.438-92.173-1.301-7.244-1.349-7.813-8.776-7.676-19.938.368-39.895-.713-59.818 1.707-9.204 1.118-18.637.419-27.963.438-27.613.056-180.494 6.61-182.815 6.431-2.521-.194-4.633-1.331-4.788-4.096-.149-2.669 1.803-4.538 4.061-5.071 3.198-.757 158.14-6.861 185.711-7.815 20.6-.712 41.229-.623 61.797-1.749 28.116-1.541 56.194-2.808 84.026-8.692 27.543-5.825 55.693-8.754 83.552-13.12 22.608-3.544 45.123-7.751 67.788-10.881 16.757-2.315 33.254-6.538 50.239-7.104 4.316-.144 7.535-2.027 10.628-4.764a71206.662 71206.662 0 0 1 90.482-79.874c33.673-29.679 67.362-59.341 101.073-88.978 2.993-2.631 6.063-5.227 9.369-7.429 1.957-1.303 4.576-1.635 6.396.501 1.701 1.996 1.678 4.653.012 6.439-4.078 4.376-8.354 8.603-12.849 12.554-26.46 23.277-52.994 46.469-79.521 69.669-34.528 30.199-69.017 60.449-103.688 90.481-2.41 5.146-2.743 3.999-4.954 13.181-2.719 11.289-9.419 38.694-9.456 56.65-.043 20.896-4.554 40.858-13.004 59.939-12.098 27.318-33.685 43.035-62.019 50.269-16.794 4.286-22.226 4.28-39.625 3.166-18.275-1.171-36.547-3.527-53.358-11.048-7.254-3.243-11.708-1.598-16.767 2.928-12.641 11.306-25.353 22.528-38.088 33.729-38.197 33.59-76.427 67.146-114.633 100.729-12.486 10.977-50.301 48.756-62.785 59.734-5.637 4.957-8.31 5.544-11.055 2.558-2.521-2.743-1.606-5.767 4.021-10.692 29.014-25.398 83.52-77.409 112.527-102.811 19.512-17.087 38.857-34.361 58.325-51.5 13.971-12.301 28.018-24.515 42.039-36.758 2.005-1.747 4.049-3.439 6.953-5.906z"/><path id="cl1" fill="#063" d="M1802 924.5c8.442-1.241 18.75 8 19 15.25s-4.25 16.961-14.75 17.855-16.75-7.295-16.25-16.575 3.5-15.28 12-16.53z"/></svg>