<svg xmlns="http://www.w3.org/2000/svg" id="eyes" viewBox="0 0 3000 3000"><path id="sd1" fill="#F4C74A" d="M1660.2 958.1c.199 15.7.1 30-3.4 44-5.5 22.6-19.3 40-36.8 54.399-22.4 18.5-48.8 27.899-77.4 31.699-25.2 3.4-50.5 3.602-75.2-2.5C1412.6 1072.2 1373 1040 1350.2 988c-10.4-23.698-8.5-47.398 1.5-70.6 5.1-11.8 14.6-19.7 26.6-24.3 27.4-10.4 55.7-17.601 84.5-22.9 20.5-3.7 41.2-7.1 62.1-8.3 6.9-.4 14-1.4 20.802-1.3 27.898.399 56 .8 81.398 14.8 19 10.5 30.602 25.3 31.602 48.3.298 11.9.698 23.8 1.498 34.4z"/><path fill="#FFF" stroke="#000" stroke-miterlimit="10" d="M1808.125 889.737c14.709-.57 32.178 16.43 31.776 45.096s-5.94 61.851-29.504 63.425-39.25-27.667-41.24-46.046 10.593-63.238 38.968-62.475"/><path fill="#030302" d="M1826.4 942.4c-.2 11.6-9 19.9-22.302 20.8-11 .8-18.3-5.5-19.898-17.5-.5-3.898-.801-8-.5-11.898 1-12.602 11.8-20 24-16.7 11.2 3.098 18.8 13.398 18.7 25.298z"/><path id="cl1" fill="#F8D759" d="M1400 885.802l109.6 103.3L1640 884.4c19.7 14.2 16.9 47.4 16.9 47.4L1508 1089c-35.6 4.102-70.6-16.5-70.6-16.5l61.5-58.1-128.2-118.9c12.1-5.5 29.3-9.698 29.3-9.698zm69.5-16.602l51.2 50.102 60.8-56c0 .098-71.9-4.102-112 5.898z"/><path d="M1527.4 1090.4s-59.302 6.8-108.9-24-84-86.1-77-125.2c7-39.2 32.2-49.3 59.8-56.3 27.602-7 118.9-35 197.5-22.4 0 0-146.1 14-187.699 47.602-41.601 33.6-1 119.898 37.101 145.8 38.1 25.901 63.6 34.4 78 34.5" opacity=".1"/><path fill="none" stroke="#060705" stroke-miterlimit="10" stroke-width="6" d="M1660.2 958.1c.199 15.7.1 30-3.4 44-5.5 22.6-19.3 40-36.8 54.399-22.4 18.5-48.8 27.899-77.4 31.699-25.2 3.4-50.5 3.602-75.2-2.5C1412.6 1072.2 1373 1040 1350.2 988c-10.4-23.698-8.5-47.398 1.5-70.6 5.1-11.8 14.6-19.7 26.6-24.3 27.4-10.4 55.7-17.601 84.5-22.9 20.5-3.7 41.2-7.1 62.1-8.3 6.9-.4 14-1.4 20.802-1.3 27.898.399 56 .8 81.398 14.8 19 10.5 30.602 25.3 31.602 48.3.298 11.9.698 23.8 1.498 34.4zm162.4-63c-4.698-4.3-10.1-6.3-16.398-5.102-9.102 1.7-16.802 6.2-22.5 13.5-12.7 16.2-18.302 33.9-13.4 54.802 3.8 16.1 11.5 28.5 26.101 36.698 12.301 6.9 26 2.802 32.899-9.698 8.101-14.7 9.101-30.9 10.601-46.7-.703-16.9-4.603-31.9-17.303-43.5z"/></svg>