<svg xmlns="http://www.w3.org/2000/svg" id="eyes" viewBox="0 0 3000 3000"><path fill="none" stroke="#000" stroke-miterlimit="10" stroke-width="6" d="M1771.333 908.163c17.32-2.11 24.469 15.556 24.875 20.53.406 4.978 1.386 21.354-16.411 25.497-17.797 4.146-25.229-5.729-26.263-22.46-1.034-16.73 9.632-22.571 17.799-23.567z"/><path fill="#FFF" stroke="#000" stroke-miterlimit="10" stroke-width="6" d="M1793 887.5c-4.7-4.397-9.9-6.697-16.3-5.6-9.5 1.6-17.4 6.3-23.4 13.9-12.5 15.897-17.9 33.3-13.2 53.897 3.7 16.103 11 28.7 25.603 37 12.698 7.303 26.6 3.303 33.6-9.8 7.801-14.5 8.9-30.3 10.4-45.6-.403-16.995-4.203-31.995-16.703-43.797z"/><path fill="none" stroke="#000" stroke-miterlimit="10" stroke-width="6" d="M1793 887.5c-4.7-4.397-9.9-6.697-16.3-5.6-9.5 1.6-17.4 6.3-23.4 13.9-12.5 15.897-17.9 33.3-13.2 53.897 3.7 16.103 11 28.7 25.603 37 12.698 7.303 26.6 3.303 33.6-9.8 7.801-14.5 8.9-30.3 10.4-45.6-.403-16.995-4.203-31.995-16.703-43.797z"/><path id="cl1" fill="#030303" d="M1753.4 930.5c-.5-9.1 2.3-16.6 11-20.5 8.5-3.8 16.397-1.397 23.1 4.4 7.9 6.9 11 16 8 26.1-2.7 9.4-10.7 13.103-19.7 14.5-10.8 1.7-19-4-21.3-14.6-.6-3.2-.7-6.598-1.1-9.9z"/><path fill="#FFF" d="M1144.4 934.469c-7.803-.5-14.4 1.3-19.9-4.803-3.637-11.27-9.833-21-1.167-27 7.397-2.303 69.667-11.064 77.167-12.167 24-3.397 48.1-5.8 72.1-8.697 20.7-2.5 41.5-5.103 62.2-7.5 20.1-2.303 40.3-4.103 60.4-6.4 17.1-2 34.199-4.398 51.3-6.5 14.5-1.8 29-3.5 43.4-5.3 16.1-2 32.3-3.603 48.397-5.5 13.802-1.603 27.7-3.103 41.5-4.603 15.2-1.6 30.2-4.3 45.4-5.3 17.898-1.2 35.5-4.7 53.3-6.7 27.4-3 54.7-6.5 82-9.6 21.103-2.4 42.3-4.3 63.4-6.6 12.8-1.4 25.6-3.3 38.5-4.9 11.198-1.4 22.397-2.2 33.5-4.5 3-.6 2.1 15.3 1.897 18.6-.1 1.7-.1 3.4-.397 5-2.2 12.103-3.9 13-16.2 14-17.2 1.4-34.3 3.7-51.4 5.603-13.8 1.5-27.697 2.897-41.6 4.5-20.7 2.5-41.5 4.5-62.2 7.2-12.8 1.697-25.699 2.6-38.5 4.5-17.1 2.397-34.199 4.5-51.397 6.197-4.803.5-6.2 2.4-6.2 6.803.1 20.6-1.3 41.197-2.601 61.8-1.5 23.897-.199 47.8-3.102 71.7-1.2 10.5-.398 21.3-.5 32 0 4.3 1.4 5.5 6.102 4.897 20.398-2.698 40.801-4.897 61.198-7.3 27.302-3.2 54.603-6.5 82-9.5 14.5-1.6 29.103-2.8 43.603-4.2 13.197-1.3 26.397-3.1 39.6-4 11.6-.8 12.5.5 11.5 12.2-.2 2-.7 3.9-.9 5.9-2.6 18.6-2 13.897-19.5 17.397-7.397 1.4-15.197 1.4-22.8 2.2-24.1 2.7-48.2 5-72.2 7.8-18.397 2.2-36.897 3.802-55.397 6.103-26 3.397-52.103 5.897-78.103 8.8-20.697 2.3-41.6 4.1-62.3 6.899-15.398 2.101-31 3.301-46.5 4.898-19.1 2-38.3 3.802-57.3 6.9-13.4 2.199-27 3.3-40.5 4.699-16.8 1.698-33.7 3.198-50.4 5.5-8.198 1.101-16.5 1.5-24.8 2.398-23.1 2.5-46.2 4.7-69.2 7.602a1442.235 1442.235 0 0 1-41.6 4.5c-7.6.698-25.9 5.002-33.7 4.502-9.802-.6-11.702-7.432-12.5-15.333-1.1-11.2-4.633-17.633 6.167-19.333 11.5-1.802 37.034-4.139 48.633-5.639 23-3 46.2-4.1 69.2-7.5 8.8-1.3 17.8-1.5 26.8-2.3 14.9-1.399 29.601-4.399 44.601-4.601 5.699-.102 6.899-2.199 6.102-8.899-1.399-11.5-3.2-23-4.8-34.5-3-22-6-44-9-66.101-2.7-20-5.5-40.102-8.2-60.102-.399-3-1.899-3.8-4.8-3.398-18.7 2.5-37.5 4.7-56.302 6.801-19.101 2.1-38.198 4.399-57.301 6.6-12.8 1.5-25.6 3.602-38.398 5.301-4.302.407-55.002 8.674-58.302 8.976z"/><path fill="#FFF" stroke="#777" stroke-miterlimit="10" stroke-width="6" d="M1138.09 935.621c-15.067 2.697-19.007 4.211-21.34-3.622-4.167-12.167-6.774-27.482.796-29.315 7.397-2.303 75.454-11.083 82.954-12.185 24-3.397 48.1-5.8 72.1-8.697 20.7-2.5 41.5-5.103 62.2-7.5 20.1-2.303 40.3-4.103 60.4-6.4 17.1-2 34.199-4.398 51.3-6.5 14.5-1.8 29-3.5 43.4-5.3 16.1-2 32.3-3.603 48.397-5.5 13.802-1.603 27.7-3.103 41.5-4.603 15.2-1.6 30.2-4.3 45.4-5.3 17.898-1.2 35.5-4.7 53.3-6.7 27.4-3 54.7-6.5 82-9.6 21.103-2.4 42.3-4.3 63.4-6.6 12.8-1.4 25.6-3.3 38.5-4.9 11.198-1.4 22.397-2.2 33.5-4.5 3-.6 1.8 22 1.5 23.6-2.2 12.103-3.9 13-16.2 14-17.2 1.4-34.3 3.7-51.4 5.603-13.8 1.5-27.697 2.897-41.6 4.5-20.7 2.5-41.5 4.5-62.2 7.2-12.8 1.697-25.699 2.6-38.5 4.5-17.1 2.397-34.199 4.5-51.397 6.197-4.803.5-6.2 2.4-6.2 6.803.1 20.6-1.3 41.197-2.601 61.8-1.5 23.897-.199 47.8-3.102 71.7-1.2 10.5-.398 21.3-.5 32 0 4.3 1.4 5.5 6.102 4.897 20.398-2.698 40.801-4.897 61.198-7.3 27.302-3.2 54.603-6.5 82-9.5 14.5-1.6 29.103-2.8 43.603-4.2 13.197-1.3 26.397-3.1 39.6-4 11.6-.8 12.5.5 11.5 12.2-.2 2-.7 3.9-.9 5.9-2.6 18.6-2 13.897-19.5 17.397-7.397 1.4-15.197 1.4-22.8 2.2-24.1 2.7-48.2 5-72.2 7.8-18.397 2.2-36.897 3.802-55.397 6.103-26 3.397-52.103 5.897-78.103 8.8-20.697 2.3-41.6 4.1-62.3 6.899-15.398 2.101-31 3.301-46.5 4.898-19.1 2-38.3 3.802-57.3 6.9-13.4 2.199-27 3.3-40.5 4.699-16.8 1.698-33.7 3.198-50.4 5.5-8.198 1.101-16.5 1.5-24.8 2.398-23.1 2.5-46.2 4.7-69.2 7.602a1442.235 1442.235 0 0 1-41.6 4.5c-7.6.698-34.9 7.752-42.7 7.252-9.802-.6-9.952-11.099-10.75-19-3.094-13.553 8.917-18.75 27.45-19.754 11.5-1.802 23-2.802 34.6-4.302 23-3 46.2-4.1 69.2-7.5 8.8-1.3 17.8-1.5 26.8-2.3 14.9-1.399 29.601-4.399 44.601-4.601 5.699-.102 6.899-2.199 6.102-8.899-1.399-11.5-3.2-23-4.8-34.5-3-22-6-44-9-66.101-2.7-20-5.5-40.102-8.2-60.102-.399-3-1.899-3.8-4.8-3.398-18.7 2.5-37.5 4.7-56.302 6.801-19.101 2.1-38.198 4.399-57.301 6.6-12.8 1.5-25.6 3.602-38.398 5.301-4.302.408-61.312 9.827-64.612 10.129z"/></svg>