<svg xmlns="http://www.w3.org/2000/svg" id="eyes" viewBox="0 0 3000 3000"><path fill="#FFF" d="M1544.396 904.367c-4.897-11.56-12.168-20.244-26.319-20.864-10.118-.444-28.517 6.431-36.833 14.17-12 11.164-17.901 25.094-20.779 40.847-4.708 25.769 14.526 61.706 50.944 65.749 4.061.451 8.127-.302 11.48-2.59 10.327-7.043 18.88-15.32 21.646-28.434 2.551-12.085 2.646-24.327 3.752-35.217.174-12.257.477-23.349-3.891-33.661z"/><path id="sd1" d="M1857.266 1079.445c-5.207-4.354-23.252-43.125-38.811-57.639-4.239-3.955-7.701-4.972-13.254-2.725-19.678 7.967-42.647 12.147-57.008 7.283s-23.879-24.55-28.693-41.198c-13.666-50.635 8.802-126.141 10.334-132.667.975-4.147-348.836-195.432-369.223-213.517-6.472-5.739-12.87-11.563-19.127-17.535-2.135-2.033-4.32-4.575-1.886-7.817 1.988-2.646 10.088-4.344 12.052-2.552 11.051 10.095 21.985 20.313 33.073 30.366 25.118 22.772 477.164 266.402 479.157 266.521 3.119 3.034 2.688 8.995.408 11.162-3.539 5.497-10.164.253-11.039 4.372-2.348 11.058-3.417 13.167-8.75 31.75s-19.664 54.61-23 56.917c6.071 5.556 28.48 49.023 30.824 51.156 4.933 4.488 5.48 6.818 4.943 16.123z"/><path id="cl1" fill="#636" d="M1520.399 907.391c11.416-1.095 16.865 11.508 17.768 23.774.902 12.268-5.29 33.707-23.813 30.188-18.521-3.52-21.235-24.685-16.681-34.644s9.959-18.093 22.726-19.318z"/><path fill="none" stroke="#000" stroke-miterlimit="10" stroke-width="6" d="M1513.167 909.166c16.791-6.995 26.488 7.367 26.744 24.685s-8.077 30.954-26.744 27.302c-18.667-3.651-18.667-19.984-16-32.317s8-16.336 16-19.67z"/><path fill="none" stroke="#000" stroke-miterlimit="10" stroke-width="6" d="M1518.076 883.503c25.408 1.017 37.424 15.997 33.424 55.997s-6 67-40 67.5-52.974-32.5-51.737-66 20.889-58.994 58.313-57.497z"/></svg>