<svg xmlns="http://www.w3.org/2000/svg" id="eyebrow" viewBox="0 0 3000 3000"><path id="cl1" d="M1630.3 825.215c6.913 5.252 9.513 12.895 2.7 18.009-3.674 2.701-2.934 7.268-57.037-1.442-51.922-8.333-103.592 1.516-103.592 1.516-28.671-8.739 4.276-25.49 4.276-25.49 32.846-20.603 63.97-20.994 63.97-20.994 42.144-4.012 82.612 23.073 89.683 28.401zm111.595 2.96s-4.651 16.052 13.989 14.652c18.642-1.4 26.889-2.99 36.324-4.132 9.271-1.17 35.861-3.368 52.236-.683 16.373 2.685 23.156 4.891 24.625-2.52 1.371-7.343-6.753-10.607-13.828-14.626-8.236-4.629-25.144-17.91-52.249-20.253-27.107-2.342-44.678 12.011-51.39 16.544-5.023 3.462-8.136 7.576-9.707 11.018z"/><path fill="none" stroke="#000" stroke-miterlimit="10" stroke-width="6" d="M1630.3 825.215c6.913 5.252 9.513 12.895 2.7 18.009-3.674 2.701-2.934 7.268-57.037-1.442-51.922-8.333-103.592 1.516-103.592 1.516-28.671-8.739 4.276-25.49 4.276-25.49 32.846-20.603 63.97-20.994 63.97-20.994 42.144-4.012 82.612 23.073 89.683 28.401zm111.595 2.96s-4.651 16.052 13.989 14.652c18.642-1.4 26.889-2.99 36.324-4.132 9.271-1.17 35.861-3.368 52.236-.683 16.373 2.685 23.156 4.891 24.625-2.52 1.371-7.343-6.753-10.607-13.828-14.626-8.236-4.629-25.144-17.91-52.249-20.253-27.107-2.342-44.678 12.011-51.39 16.544-5.023 3.462-8.136 7.576-9.707 11.018z"/></svg>