<svg xmlns="http://www.w3.org/2000/svg" id="eyebrow" viewBox="0 0 3000 3000"><path id="cl1" d="M1591.4 892.6c-14.9-1-29.9-.3-44.801-.9-17.6-.7-35.1-1.6-52.699-2.6-11.301-.601-22.5-1.2-33.801-2.101-7.899-.6-20.602-6.399-20.602-14.5-.1-12.3 2.699-25.329 11.802-33.8 7.2-6.7 21.036-10.322 27.726-10.381 43.5 5.7 76.274 14.181 118.175 26.781 6.3 1.899 11.767 6.233 17.967 8.733 5.6 2.3 9.765 6.09 11.023 11.445 3.188 13.569.409 17.073-12.69 17.773-3.501.401-18.5-.249-22.1-.45zm276.7-73.799c-8.199-4.2-16.699-2.101-25.1.199-17.9 5.101-34.8 12.7-51.3 21-12.1 6.1-23.7 13.2-35.6 19.6-7.1 3.9-11.7 9.8-13.9 17.4-2.601 8.9 1.399 14 10.6 14.101 3.3.1 6.5-.101 9.9-.8 38.5-7.301 76.1-17.5 112.699-31.2 8.601-3.2 8.601-3.3 8.7-13 .001-12.101-5.099-21.701-15.999-27.3z"/><path fill="none" stroke="#000" stroke-miterlimit="10" stroke-width="6" d="M1591.4 892.6c-14.9-1-29.9-.3-44.801-.9-17.6-.7-35.1-1.6-52.699-2.6-11.301-.601-22.5-1.2-33.801-2.101-7.899-.6-20.602-6.399-20.602-14.5-.1-12.3 4.002-22 11.802-33.8 6.532-9.882 20.234-13.452 29.616-12.091 43.5 5.7 74.335 16.057 116.285 28.491 15.967 4.733 25.061 11.599 27.967 17.733 5.287 11.158 1.433 19.518-11.667 20.218-3.501.401-18.5-.249-22.1-.45zm276.7-73.799c-8.199-4.2-16.699-2.101-25.1.199-17.9 5.101-34.8 12.7-51.3 21-12.1 6.1-23.7 13.2-35.6 19.6-7.904 6.257-11.699 9.8-13.899 17.399-2.601 8.9 1.399 14 10.6 14.101 3.3.1 6.5-.101 9.9-.8 38.5-7.301 76.1-17.5 112.699-31.2 8.601-3.2 8.601-3.3 8.7-13 0-12.1-5.1-21.7-16-27.299z"/></svg>