<svg xmlns="http://www.w3.org/2000/svg" id="eyebrow" viewBox="0 0 3000 3000"><path id="cl1" d="M1446.2 869.6c-.6-4.8.4-10.4 1.9-15.8 2.5-9.6 6.7-12.6 16.5-11.6 19.8 2 39.5 4.6 59 8.2 27.1 4.9 54 10.4 81 15.7 3.2.6 6.5 1.6 9.5 2.8 5.9 2.3 7.7 7 5 12.7-2.3 4.8-6.3 7.3-11.6 8.5-9.1 2-18.6 1.4-27.5.7-17.3-1.2-34.5-.2-51.7-1.3-22.2-1.4-44.4-1.5-66.7-2.2-1.3 0-2.7-.1-4-.3-10.3-1.5-11.4-2.9-11.5-13.3.1-1.2.1-2.2.1-4.1zm317.7 18.8c21.5-2.3 42.5-7.1 63.7-11 15.7-2.9 31.2-6.5 46.5-11.2 7.4-2.3 7.8-2.8 7.3-10.4-.2-3.2-1.3-5.9-3.3-8.1-7.1-8.4-16-12.3-27.2-10.9-14.6 1.7-28.6 5.6-42.6 10-18.7 5.8-37 12.7-55 20.3-5.9 2.5-11.3 5.7-13.9 12.1-2.2 5.4-.1 9.2 5.6 9.9 2.6.3 5.3.1 10 .1 1.7-.2 5.3-.4 8.9-.8z"/><path fill="none" stroke="#000" stroke-miterlimit="10" stroke-width="6" d="M1446.2 869.6c-.6-4.8.4-10.4 1.9-15.8 2.5-9.6 6.7-12.6 16.5-11.6 19.8 2 39.5 4.6 59 8.2 27.1 4.9 54 10.4 81 15.7 3.2.6 6.5 1.6 9.5 2.8 5.9 2.3 7.7 7 5 12.7-2.3 4.8-6.3 7.3-11.6 8.5-9.1 2-18.6 1.4-27.5.7-17.3-1.2-34.5-.2-51.7-1.3-22.2-1.4-44.4-1.5-66.7-2.2-1.3 0-2.7-.1-4-.3-10.3-1.5-11.4-2.9-11.5-13.3.1-1.2.1-2.2.1-4.1zm317.7 18.8c21.5-2.3 42.5-7.1 63.7-11 15.7-2.9 31.2-6.5 46.5-11.2 7.4-2.3 7.8-2.8 7.3-10.4-.2-3.2-1.3-5.9-3.3-8.1-7.1-8.4-16-12.3-27.2-10.9-14.6 1.7-28.6 5.6-42.6 10-18.7 5.8-37 12.7-55 20.3-5.9 2.5-11.3 5.7-13.9 12.1-2.2 5.4-.1 9.2 5.6 9.9 2.6.3 5.3.1 10 .1 1.7-.2 5.3-.4 8.9-.8z"/></svg>