<svg xmlns="http://www.w3.org/2000/svg" id="eyebrow" viewBox="0 0 3000 3000"><path id="cl1" fill="#070102" d="M1683.5 816c-1 3.301-40.8 31-54.5 37.301-13.7 6.3-21.3 2.5-31.8 0s-58.029-37.971-68.729-48.771c-10.7-10.8-22.271-11.229-22.271-11.229s-17 4.3-38.801 11.5C1431.1 818.1 1428 815.5 1428 815.5s42.5-23.301 63-37c20.5-13.7 31.2-4 31.2-4s15.3 9.5 43 29c45.8 29.5 55.3 29 55.3 29 23-.5 63-21 63-21s1 1.301 0 4.5zm77 31s-19.8 6-19.5 12.801c.3 6.8-4.5 14 19.5 14.3 0 0 3.9 2 27.5-13.5 11.3-8.3 25-13.5 25-13.5s21.8-12 33-14.3c11.2-2.301 14.8-4.5 38.3-7.301 23.5-2.8-40.3-5.8-40.3-5.8-16.4 3.3-78.1 24.101-83.5 27.3z"/><path fill="none" stroke="#060001" stroke-miterlimit="10" stroke-width="6" d="M1683.5 816c-1 3.301-40.8 31-54.5 37.301-13.7 6.3-21.3 2.5-31.8 0S1541.699 817.8 1531 807c-10.7-10.8-17.719-13.858-24.8-13.699-10.115.227-17 4.3-38.801 11.5-26.368 8.814-36.671 10.413-36.671 10.413S1470.5 792.199 1491 778.5c20.5-13.7 31.2-4 31.2-4s14.231 11.114 43 29c54.648 33.977 53.229 29.211 71.3 24 22.104-6.375 47-16 47-16s1 1.301 0 4.5zm77.167 29.667c-5.337 2.35-18.02 7.143-19.667 14.134-1.5 6.366.167 17.821 19.5 14.3 4.756-.866 13.167-2.267 27.5-13.5 11.3-8.3 25.166-14.767 25.166-14.767S1834.8 835.1 1846 832.801c11.2-2.301 14.8-4.5 38.3-7.301 23.5-2.8-40.3-5.8-40.3-5.8-16.4 3.3-77.588 23.437-83.333 25.967z"/></svg>