<svg xmlns="http://www.w3.org/2000/svg" id="etebrow" viewBox="0 0 3000 3000"><path fill="#010101" d="M1665.1 822.6c4.301 15.8 2 30.6 1.101 45.399-.601 9.9-4.301 13.301-14.2 13.601-14 .399-27.7-1.7-41.4-4.601-11.199-2.399-21.3-7.399-30.699-13.8-14.801-10.1-29.5-20.3-43.9-31.1-8.9-6.7-18.4-9.1-29.5-8.9-25.8.5-51.7 1.3-79.1-1.8 9.199-4.7 17.699-6.9 26-9.4 16.6-5 32.399-11.699 48.199-18.6 8.801-3.8 18-6.9 26.801-10.7 3.3-1.399 4.8-.1 6.899 1.8 8.101 7.4 17.101 13.601 26.2 19.7 21.2 14.2 44.7 19.601 69.7 19.9 11.199.301 22.499.901 33.899-1.499zm193.6 10.9c-11.7 6.2-23.4 12.601-35.601 17.9-13.1 5.7-25.399 13.5-41.699 17 6.699-7.4 8.399-14.3 7.3-21.9-.4-2.899-.5-6.1 2.4-8.1 1.6-1.1 3.399-2 5.399-2.4 23.101-4.6 45.601-11.5 67.8-19.399 6.9-2.5 13.601-1.3 20.4.899 4.2 1.4 8.6 4.101 13.2.601 1.5-4-.2-6.2-3.9-7.601-5.3-1.899-10.6-3.8-15.8-6-4.5-1.899-8.8-1.899-13.4 0-6.399 2.601-13 5.101-19.5 7.301-18.199 6.3-36.699 11.399-55.6 15.199-10.7 2.2-11.8 3.601-12.1 14.301-.301 11.6-3.9 21.3-14.101 27.899-2.2 1.4-6.562 5.953-6.513 8.422.201 10.1 33.413-.521 46.913-5.922 20-8 38.899-18.6 58-28.6 8.899-4.7 17.3-5.9 26.399-1.6 2.301 1.1 4.9 2.3 7.5.3 1.7-1.3 1.801-2.5 0-3.8-8.397-9.8-23.297-11.8-37.097-4.5z"/><path id="cl1" fill="#271F16" d="M1896 838c-14.75-3.5-25.025-6.176-39.125 2.125-18.9 11.1-37.875 18.65-57.875 27.75-5.6 2.5-23.75 10.75-30.25 6.683-2.551-1.596 5.6-5.607 6.5-6.808 4.9-6.101 9.875-12.125 7.875-20.625-.7-3.1.649-10.699 4.25-13.5 2.5 6.4 5.825 10.575 12.125 4.976 6.5-5.8 16-5.7 24.2-8.2 11.1-3.4 22.5-5.7 33.5-9.1 11-3.301 21.6-.301 32.3 1.5 2.9.5 5.7 1.899 6.8 5.1 0 3.499-.2 6.799-.3 10.099zm-264.3 1.4c-6.301-.2-12.601-.2-18.801-1.3-23.699-4.1-45.1-13.6-64.399-27.7-12.101-8.8-26.949-18.326-43.25-12.525-16.8 6.2-39.95 14.175-56.75 20.375 14.2.2 37.5 1.475 51.5-.625 11.7-1.8 24.274-.275 34.375 7.125 13.399 9.7 27.024 17.751 40.524 27.351 17.7 12.7 37.301 21.266 58.601 23.565 7.4.8 19.675 1.959 26.875-2.041 3.2-15.801-13.175-33.925-28.675-34.225z"/><path id="hl1" fill="#544938" d="M1896.5 828.1c-15.3-5.601-30.5-7.4-46.5-2-12.5 4.2-25.6 7-38.4 10.3-6.199 1.6-12 3.6-16 9-1.3 1.8-3 3.6-6.399 3.8-2.301-4.1-1.425-11.176-1.825-15.575 6.4-3.9 15.4-5.25 22.5-6.75 16.301-3.4 30.226-7.75 45.625-13.75 10.301-4 21.699-5.6 32.199-.5 3.199 1.5 6.676 2.75 10.301 5.375-.701 3.301 1.099 7-1.501 10.1zm-236.125 45.525c3-4.301 1.956-26.905 1.5-33.5-.1-7.8-2-10.875-9.5-10.875-4 0-8.625-.075-12.625.125-30.801 1-56.601-5.1-82.5-22-6.2-4-14.45-9.25-19.75-14.25-5.4-5.101-11.851-4.55-18.25-1.25-4.101 2.1-9.8 3.575-14 5.375 3.2 3 10.25 3.15 13.45 1.95 5.1-1.8 8.5-.3 12.7 2.7 13.8 9.7 27.399 20.1 42.899 27 19.2 8.5 39.2 14.5 60.601 13.1 5.8-.399 10 2.101 12.2 6.801 3.399 7.5 8.399 14.399 9.1 22.899l4.175 1.925z"/></svg>