<svg xmlns="http://www.w3.org/2000/svg" id="eyebrow" viewBox="0 0 3000 3000"><path id="cl1" fill="#271F16" d="M1632.125 826.375c-.399 8.899 2.075 8.5 2.875 17.5 13.75-5.75 3.329 18.097-.571 17.997-9.7-.1-38.729 1.478-48.429 1.878-18 .8-36.3-2-54-4.5-11.4-1.6-27.3-7.476-38-11.875-20.399-8.3-47.107-22.28-66.007-33.48-2.5-1.5-3.467-9.72-5.868-11.52 4.5-3.7 22.875 6.226 27.075 7.125 43.8 9.7 88 14.2 132.899 11.601 9.2-.5 18.5-.7 27.801-.9 6.2-.101 18.125.974 22.225 6.174zM1895.4 822.5c-18.301.4-36.5 4.301-54.7 2.101-19.6-2.4-48.415-2.976-67.915-5.176a2110.108 2110.108 0 0 0-7.789 15.952c-1.806 3.726-4.372-15.971-6.246-12.126-.866 1.777-1.009 27.053-1.893 28.852-.232 10.398 12.413 8.809 15.413 7.91 10-3.101 27.129-2.137 37.229-3.137 19.399-1.9 39.968-6.409 59.167-9.708 15.666-7.667 28.253-12.847 40.652-22.646-3.999-3.002-9.618-2.122-13.918-2.022z"/><path id="hl1" fill="#514736" d="M1634.188 829.687c-9-4.4-26.987-6.688-36.587-6.688-21.301.101-42.5-.1-63.801.101-18 .2-35.5-3.3-53.199-5.3-15.2-1.801-42.278-4.5-57.278-7-3.101-1.8-18.972-15.113-21.072-19.113 2.4-1.2 21.912 2.705 23.712 3.205 21.1 5.9 50.566 11.325 72.367 13.825 23.699 2.8 44.296 5.982 68.296 5.282 10.3-.3 24.25-1.525 34.55-1.125 5.9-1.601 11.9-.101 17.801-.9 18.774-4.764 14.412 11.313 15.112 16.013.099.6.099 1.1.099 1.7zM1628 810.812c-7.5-.101-19.425-1.538-26.725 2.063 5.199 0 20.587-.15 25.787-.75 5.5-.601 5.226 11.262 7.125 15.862.001-3.101-1.288-17.075-6.187-17.175zm290.199 2.792c-2.1-.801-49.414 1.041-51.714 1.041-36.8-.2-47.945-.768-82.885-4.245-3.199 0-9.888 7.758-12.388 10.957 6.3 3.101 23.688 4.543 30.688 4.643 10.3.101 20.699-.5 30.8.9 12.3 1.6 24.5 1.3 36.7.7 12.8-.6 26.17-1.07 38.97-2.27 1.101-1.1 11.43-11.127 9.829-11.726z"/><path fill="none" stroke="#000" stroke-miterlimit="10" stroke-width="6" d="M1404.1 789.9s59.601 13.6 68.101 15.6 87.8 9.301 90.5 8.5c2.699-.8 66.899-2.899 66.899-2.899l2.301 2s4.199 20.6 0 37.6c0 0 13.1-15.8 22.8-35.3s-18.5 47.6-21 47.1-43 2.9-62.8 2.2c-31 1.3-79-15.399-99-25.399S1392.5 794.801 1404.1 789.9zm353.7 20.5s-2.6 30.1-.699 43.8c.399 8.3 5.699 6.3 5.699 6.3s68-3.3 83-6.3 62.305-25.292 72.7-38.45c5.348-6.769-34.869-.688-68-.75-27.625-.051-51.8-2.8-51.8-2.8s-11.9.3-15.1-1.8c-3.2-2.1-10.301 6.6-10.301 6.6l-9.1 19c.001 0-4.499-35.3-6.399-25.6z"/></svg>