<svg xmlns="http://www.w3.org/2000/svg" id="eyebrow" viewBox="0 0 3000 3000"><path id="cl1" fill="#0C0" d="M1355.44 850.155c1.21.251 2.306.108 3.273-.731 1.271-.751 2.978-.62 4.137-1.667.611.275 1.206.152 1.786-.372 1.942-1.479 4.584-.484 6.53-1.864 1.907.124 3.713.251 5.372-.816 2.542-1.503 5.708.071 8.134-1.827 1.294-.151 2.49-.3 3.785-.452 2.634-1.708 5.896-.236 8.528-1.944 1.907.124 3.713.252 5.372-.815 2.058-1.083 4.488-.38 6.538-1.664 2.502 0 5.021.4 7.371-.896 1.619-2.066 7.071 1.619 6.039-4.146l.104.097c-1.007-.16-1.646-1.135-2.467-1.603-.527-.679-1.146-1.155-1.962-1.522l-.527-.68-.9.036c-1.211-.251-2.042-1.02-2.586-2.099a1.274 1.274 0 0 0-.048-1.199c.459-1.019 1.231-1.75 2.11-2.286.611.276 1.208.152 1.687-.368 1.742-1.471 4.392-.276 6.127-1.947 1.894-.176 3.789-.352 5.783-.532a402.68 402.68 0 0 1 55.955-2.244c3.233.771 6.515.239 9.804-.093 3.282 1.971 6.994-.281 10.252 1.09 1.739.931 3.629.656 5.419.384 2.051 1.219 4.605.016 6.66 1.334 1.103.056 2.31.208 3.412.264 3.949 1.143 6.955 1.223 4.332-4.277l-.104-.096c-.731-.771-1.463-1.542-1.807-2.63.275-.611.057-1.103-.556-1.378-.527-.68-1.06-1.459-1.591-2.239l.108.196c-1.632-.735-1.312-2.75-2.455-3.804l.004.1c-1.238-.951-.915-2.866-2.25-3.712l-.104-.097c-.885-2.066-2.067-4.12.566-5.827l.795-.132c5.48 1.882 11.079-.744 16.547.838 1.231.751 2.526.6 3.817.347 1.863 1.526 4.408.124 6.263 1.451.52.479 1.123.555 1.811.228 1.239.951 2.931.683 4.257 1.33 1.031.759 2.234.811 3.422.463 1.527.64 3.221.472 4.664 1.515.323.587.827.668 1.411.244 1.008.16 1.734.832 2.654 1.295.523.579 1.126.656 1.818.428 1.239.951 3.025.579 4.369 1.626.323.587.827.667 1.41.244 1.007.16 1.836.827 2.658 1.395.324.588.832.767 1.419.443 1.007.16 1.734.832 2.654 1.295.523.579 1.127.656 1.818.428 3.645 1.055 7.471 1.602 10.468 3.983-.104-.096.404.084.404.084s-.612-.275-.712-.271c-2.471-1.703-5.128-3.098-5.664-6.479l.104.096c-1.112-.255-1.843-1.026-2.287-2.11l.208.192c-1.111-.256-1.838-.927-2.286-2.11l.208.192c-1.111-.255-1.743-1.031-2.471-1.702l.101-.004c-.82-.467-1.451-1.242-2.271-1.71l-.104-.097c-.427-.683-1.047-1.158-1.862-1.526-.229-.692-.736-.872-1.327-.648-2.134-.814-1.887-2.126-.747-3.673l-.097.104c.472-.72 1.167-.847 1.887-.376.324.587.831.768 1.414.343 2.051 1.219 4.605.016 6.664 1.434.423.583.827.668 1.41.244 1.53.739 3.322.468 4.669 1.614 1.143 1.056 3.029.68 4.077 1.838 1.143 1.056 2.829.688 4.061 1.439.323.587.831.768 1.418.444 1.008.16 1.836.827 2.659 1.395.323.587.831.767 1.418.443 1.008.16 1.836.827 2.659 1.395.323.587.831.767 1.418.443 1.007.16 1.835.826 2.658 1.395.324.587.732.771 1.323.547 1.106.156 1.938.923 2.771 1.69 1.143 1.056 3.029.68 4.076 1.838 1.147 1.155 3.125.576 3.988 2.143l-.202-.092c1.011.259 1.642 1.036 2.465 1.603l.101-.004c.951 1.263 2.934.784 3.885 2.046l-.101.004c.82.468 1.452 1.243 2.267 1.611l.104.095c.855 1.367 3.034.779 3.598 2.358l-.104-.095c1.519.439 2.95 1.182 4.181-.568l.096-.104c.68-.528 1.355-1.156 1.823-1.976l.095-.104c1.367-.856.78-3.033 2.358-3.597l-.191.207c.256-1.111 1.026-1.842 2.01-2.282l-.092.203c.26-1.011 1.035-1.642 1.602-2.465.68-.528 1.155-1.148 1.523-1.963.691-.228.871-.736.644-1.426.252-1.211.919-2.039 1.998-2.582l-.092.203c.26-1.011 1.035-1.642 1.602-2.465.68-.528 1.155-1.148 1.523-1.963.69-.229.871-.736.643-1.428.253-1.21.919-2.038 1.999-2.582l-.093.204c.261-1.011 1.036-1.643 1.603-2.466l-.004-.1c1.363-.955.679-3.03 2.25-3.793l-.092.204c.26-1.011 1.035-1.643 1.603-2.466.68-.527 1.155-1.147 1.521-1.963.692-.228.872-.735.644-1.427.156-1.107.924-1.938 1.795-2.674l.004.1a8.024 8.024 0 0 0 1.415-2.158c.691-.229.87-.736.644-1.428.155-1.106.923-1.938 1.69-2.769l.004.1c1.155-1.147.575-3.125 2.142-3.989l-.092.204c.367-.815.835-1.634 1.407-2.358.587-.324.767-.831.443-1.419.255-1.11.927-1.838 1.59-2.765l.096-.104c1.263-.951.783-2.934 1.942-3.98l.004.099c1.056-1.143.679-3.029 1.834-4.176l.004.1c.755-1.131 1.299-2.554 2.782-3.015 1.007.16 1.63.736 1.97 1.724.092 2.298.688 4.675-.219 7.014-1.023 1.942-.547 3.825-.268 5.815-1.427 1.858-.227 4.312-1.25 6.255-.76 1.031-.812 2.233-.464 3.42-.639 1.527-.575 3.126-1.215 4.653-.759 1.031-.811 2.233-.463 3.42-.64 1.527-.471 3.222-1.414 4.661-.479.52-.556 1.123-.232 1.71-.951 1.239-.683 2.93-1.33 4.257-.579.523-.755 1.132-.428 1.818-.951 1.239-.683 2.93-1.33 4.257-.579.523-.755 1.132-.428 1.818-.951 1.239-.578 3.026-1.626 4.37-.587.324-.668.827-.243 1.41-.16 1.007-.828 1.834-1.396 2.659-.587.324-.767.831-.443 1.418-.739 1.531-.467 3.321-1.714 4.673l-.005-.101c-1.054 1.144-.679 3.03-1.834 4.178l-.004-.101c-1.055 1.144-.687 2.83-1.438 4.061-.588.323-.768.831-.443 1.419-.16 1.007-.828 1.834-1.396 2.658-.587.324-.767.831-.443 1.419-.16 1.007-.827 1.834-1.395 2.657-.587.324-.767.832-.443 1.419-.256 1.111-.927 1.838-1.591 2.766l-.096.104c-1.263.952-.783 2.935-1.942 3.981l-.004-.101c-1.154 1.148-.574 3.126-2.142 3.99l.093-.204a11.416 11.416 0 0 1-1.407 2.358c-.588.324-.771.732-.443 1.419-.252 1.211-1.02 2.042-2.099 2.586l-3.297.132c-1.863-1.527-4.409-.123-6.264-1.45-1.303-.048-2.506-.1-3.809-.147-1.239-.951-2.93-.683-4.257-1.331-1.231-.751-2.525-.6-3.816-.347-2.574-1.799-5.7.128-8.254-1.17-2.442-1.003-4.925-.503-7.419-.304-3.464-1.562-7.194.289-10.646-.974-3.949-1.143-7.817-.288-11.811-.027-5.288-2.089-10.88.736-16.247-.85-5.952-1.163-11.814-.127-17.806.213-8.094-2.177-16.171 1.048-24.241-.529-11.147-.955-22.302.394-33.397.738a948.33 948.33 0 0 0-89.128 3.574c-11.087.545-22.314.094-33.349 1.938-5.224 2.011-11.023-.358-16.127 2.148-1.323-.548-2.55-1.199-3.873-1.747-1.164-1.655-1.521-3.041.542-4.024zm398.394-35.591c.424.583.344 1.087-.244 1.411-1.047 1.344-.774 3.134-1.514 4.665.423.583.344 1.086-.244 1.41-1.051 1.244-.579 3.026-1.626 4.37.327.687.152 1.294-.428 1.818-.464.918-1.136 1.646-1.294 2.653.323.588.144 1.096-.443 1.419-.468.819-1.136 1.646-1.396 2.658.324.588.144 1.096-.443 1.419-.468.819-1.135 1.646-1.395 2.658.228.691.048 1.199-.644 1.427-.651 1.228-2.817 2.115-1.338 4.057 1.343 1.046 2.646 1.095 4-.061l.579-.524.808.168c2.638-1.607 5.792-.332 8.537-1.744a74.422 74.422 0 0 1 22.082-.885c4.665 1.514 9.334-3.002 13.918-.985 2.602-.004 7.397-.47 10.008-.274 19.472 1.421 37.857.644 57.117 4.15 23.18 4.219 22.542 7.792 47.094 17.049 2.011.219 3.194-.229 2.198-2.59-19.206-17.244-14.146-14.374-26.945-19.693-11.411-4.742-27.363-8.511-42.096-11.522 4.588-5.389 10.818-4.737 16.318-7.36-3.794-4.752-8.414-5.167-12.847-5.89-8.865-1.446-17.854-.985-26.782-1.528-13.646-.854-27.146-.613-40.663 1.73-6.163 1.049-7.187.489-7.039-5.822.498-15.032-.902-29.988-1.199-44.888.823-1.934-.204-2.594-1.915-2.825-1.95 1.279-1.158 3.549-2.09 5.288-.056 1.103-.208 2.311-.264 3.413-1.319 2.054-.115 4.609-1.334 6.659.348 1.187.296 2.39-.464 3.421-.644 1.427-.575 3.126-1.214 4.653.348 1.186.295 2.39-.464 3.421-1.022 1.943.177 4.397-1.25 6.255.323.587.248 1.191-.231 1.711-.943 1.438-.775 3.133-1.414 4.66.348 1.187.295 2.391-.464 3.422-.647 1.327-.38 3.018-1.331 4.257.324.587.248 1.19-.231 1.71-.842 1.434-.773 3.133-1.413 4.659zm15.773-63.383c.439-1.519.583-2.926-1.251-3.753l-1.823 1.975c-.336 1.615-.671 3.229-1.103 4.948-.132 1.707-.363 3.418-.495 5.125-.2.008-.287.312-.268.811.021.5.235.891.947 1.163.731.771 1.563 1.539 2.294 2.31 3.251-3.834.261-8.518 1.699-12.579z"/><path stroke="#000" stroke-miterlimit="10" stroke-width="6" d="M1645.437 854.239c-42-11.626-230.604-2.963-230.604-2.963s-63.556 7.352-60.791 1.437c2.765-5.916 68.363-19.755 68.363-19.755l-9.381-9.332s113.801-2.26 113.196-4.839c-.604-2.578-10.665-21.39-10.665-21.39 36.419-2.761 74.063 17.547 71.444 14.649s-25.23-22.708-16.069-18.872c18.298-.434 56.869 25.542 63.133 26.993 6.894-2.779 38.363-54.081 45.564-69.181 5.77-15.844-7.816 94.59-34.19 103.253zm121.759-108.265s-11.671 68.322-24.278 98.352c75.416-8.326 123.715-3.826 152.048 10.34 35.728 17.864 4.396-8.382-11.995-17.103-10.104-5.376-23.82-8.774-42.753-10.149-39.475-2.867 20.575-6.029 20.276-8.52-.301-2.49-72.776-10.393-87.303-5.807-6.752 1.372 0-67.353-5.995-67.113z"/></svg>