<svg xmlns="http://www.w3.org/2000/svg" id="eyebrow" viewBox="0 0 3000 3000"><path fill="#010101" d="M1666.3 776.121c-18.551 26.667-41.971 46.494-73.972 55.537-28.174 8-56.464 15.072-85.565 17.855-17.623 1.739-35.362.348-52.291-5.914-3.941-1.507-7.767-3.246-10.782-6.376-3.014-3.014-6.609-5.681-4.753-10.783 2.087-5.449 5.681-9.159 12.058-8.928 10.783.232 21.681-.231 32.348.929 28.058 2.898 55.884 3.246 83.711-3.016 28.289-6.376 55.883-14.261 80.811-29.797 5.218-3.246 9.393-8 15.537-9.855.926-.812 1.97-.695 2.898.348zm105.935 56.883c24.373 18.495 52.056 29.518 81.573 36.133 6.981 1.592 14.576 1.837 21.802.857 10.901-1.592 14.085-9.553 7.227-18.25-4.899-6.246-11.269-10.166-19.352-11.513-11.147-1.715-22.659-2.818-33.315-6.124-27.559-8.452-56.955-12.126-82.064-28.907 6.859 10.411 14.207 20.333 24.129 27.804z"/><path id="sd1" fill="#261F16" d="M1550.125 831.89c-8.927 4.753-19.131 4.87-28.754 6.145-10.898 1.507-21.913 4.173-33.043 2.899-8.348-.928-16.812-1.507-24.928-3.131-4.405-.927-10.55-1.275-10.667-8.348 14.725-4.869 29.45.464 44.059.464 16 0 32 .58 48.116.464 1.856 0 3.595.115 5.217 1.507zm57.972-17.971c-9.392 2.551-19.362 3.362-28.058 8.348l2.202 2.202c8.697-3.014 18.551-3.478 25.856-10.55zm183.49 19.943c3.797 3.429 7.595 4.899 11.27 6.369.856-.857 1.592-1.837 2.449-2.695-4.042-2.083-7.961-4.532-13.719-3.674z"/><path id="hl1" fill="#43392C" d="M1550.125 831.89c-32.464-.464-65.043 1.16-97.507-2.319 5.565-3.826 11.942-4.985 18.551-4.175a704.04 704.04 0 0 0 54.145 4.175c14.029.463 27.595-2.203 41.16-5.218 4.521-1.043 9.043-1.855 13.681-1.971 2.435-.812 2.783.232 2.204 2.203a6939.253 6939.253 0 0 0-32.234 7.305zm274.287 16.057c14.821 8.574 31.479 6.124 48.871 9.308-7.594-7.349-7.594-7.349-21.801-9.186-9.064 3.552-18.005-5.267-27.07-.122zm-19.106-10.289c-2.449-.612-3.186.367-2.449 2.695 7.593 1.592 13.473 7.716 21.678 7.594 4.41 0 8.819-.122 13.229 1.347 4.531 1.47 9.43 2.573 13.84-1.225-15.801-2.204-31.111-6.369-46.298-10.411z"/></svg>