<svg xmlns="http://www.w3.org/2000/svg" id="etebrow" viewBox="0 0 3000 3000"><path fill="#010101" d="M1666.8 824.1c-9.9 11.9-21.9 16.9-35.3 17.9-16.2 1.2-32.5 0-48.5-3.6-16.1-3.7-27.1-13.6-35.2-27.2-5.4-9.2-2.5-16.9 7.3-20.8 11-4.4 21.9-2.4 28.2 7.9 10.7 17.6 27.8 21 45.7 24.1 12 2.1 24.2.6 37.8 1.7zm106.7-31.2c9.6-5.2 19.8-9.3 30-13.3 6.2-2.4 12.6-3.9 19.4-4 6.7-.1 12.1 2.7 17.6 6.1 7.6 4.7 18 1.7 18.8-5.4 1.2-11.4-4.8-23.7-17.5-24.1-8.4-.2-16.6.6-24.7 2.3-16.8 3.5-31.2 11.1-42.4 24.4-3.6 4.3-5.3 8.9-4.3 14.7 1.3-.3 2.3-.3 3.1-.7z"/><path id="hl1" fill="#4E4434" d="M1621.8 830.1c-9.4 4.2-18 .1-26.2-3.5-7.6-3.3-13.7-8.8-18.6-15.8-4.3-6.1-9.9-11.2-14.9-16.7 6.7-.4 12 3.1 14.8 8.4 9.7 18.1 26.9 23.3 44.9 27.6zm217-70.3c-13.7-.2-26.7 2.9-39.1 8.5-2.9 1.3-6.2 2.5-7.8 5.7 9-3.1 17.6-7.2 27.1-8.6 10-1.4 20-4.3 29.1 3 1.1.9 1.7-1.3 2-2.5-2.3-4.8-6.3-6.1-11.3-6.1z"/><path id="cl1" fill="#271F16" d="M1621.8 830.1c4.4-.4 8.1 1.7 12 3.1-17.8 1.4-35.4 1.4-52.7-3.4-12.4-3.4-21.4-11.6-28-22.3-3.8-6.1-.6-10.5 9-13.4 8.3 3 12.6 10.2 17.7 16.7 10.7 13.4 24.9 19.7 42 19.3zm204.5-67.8c-12.1 1.8-24 4.7-34.4 11.7l.1-.1c-.1 0-.3.2-.4.7-.1.5 0 .9.4 1.4 3.9.4 6.9-1.9 10.3-3.1 13.2-4.5 26.3-6.2 39 1.3 3.7 2.2 7.4 2.2 11.2.9 1.1-1.9.1-3.4-.3-4.9-.4-1.6-.8-3.2-2.2-4.3-7.3-4.8-15.6-4.8-23.7-3.6z"/></svg>