<svg xmlns="http://www.w3.org/2000/svg" id="eyebrow" viewBox="0 0 3000 3000"><path id="cl1" fill="#271F16" d="M1606 844c-13.7-3.6-27.5-7-41.2-10.7-23-6.2-46-11.9-69.4-16.5-6.2-1.2-12.6-.9-18.6-3-4-1.4-6.6-3.5-2.7-7.7 20.8.1 41.6-.1 62.3-.2 5.9 0 10.9 1.3 15.8 4.5 15.1 9.6 31 17.8 46.7 26.3 3.2 1.6 7.3 2.4 7.1 7.3zm34.1 9.2c-4.5-2.2-7.4-3.6-10.3-5-.8 1.7-2.4 1.8-3.9 2 3.8 2.3 7.6 4.3 14.2 3zm244.6-153.9c-20 14.7-37 32.9-55.4 49.5-9.2 9-16.8 19.5-27.3 27.2-11.4 12-21.9 24.7-30.8 38.7 12.2-11.9 25.1-23 38.5-33.1 19-14.3 37.4-29.9 61.2-36.3 2.2-.6 4.6-1.8 6-3.5 7.8-9.5 15.5-19.3 18.5-31.5 1.2-4.8 2.8-10.7-3.2-14.4-3.8-1.6-5.3 1.8-7.5 3.4z"/><path id="hl1" fill="#4D4333" d="M1606 844c-6.2-3.7-12.2-7.9-18.7-11.1-12.5-6.2-24.3-13.6-36.1-20.8-4.4-2.7-8.8-4.1-14-4.1-17.9.2-35.8.1-53.8 0-3.1 0-6.7 1.3-9.3-1.9 23.1-3.9 46.5-1.7 69.7-1.9 1.6 0 3.3.6 4.6 1.5 25.9 16.5 53.6 29.4 81.3 42.5.2 3.5-1.7 3.1-3.9 2-6.9-1-13.3-3.6-19.8-6.2zm280.1-149.3c-21.5 15.5-38.9 35.4-58 53.4-.5 1.8 0 2.6 1.9 1.9 2.3-1.9 4.6-3.7 6.7-5.9 17.2-17.5 36.5-32.6 55.4-48.2-.9-5.5-3.5-3-6-1.2zM1802 776c.7 1 1.7 1.2 2.5.4 8.5-8.8 17.9-16.7 25.6-26.3l-1.9-1.9c-9.4 8.6-17.8 18.3-26.2 27.8z"/><path fill="none" stroke="#000" stroke-miterlimit="10" stroke-width="6" d="M1475.7 803.5s46.6-6.2 71.6.5c14 8.3 94.9 48.8 94.9 48.8s2.3 2.6-1.7 2.6c-4.1 0-104.4-28.1-104.4-28.1s-60.6-11.6-61.8-13-4.7-8.4 1.4-10.8zm409.7-112.2s-91.4 76.4-114.3 123.4c0 1 51.5-44 61.5-50.4 10-6.3 35.7-18.3 41.7-19.3s23.7-28 23.7-34.3c0-6.4 1.4-20.7-12.6-19.4z"/></svg>