<svg xmlns="http://www.w3.org/2000/svg" id="eyebrow" viewBox="0 0 3000 3000"><path fill="#010101" d="M1485.3 817.9c3.7-18 10.2-34.8 19.6-50.8 11.8-20 26-37.7 44.4-51.9 9.9-7.6 20.8-12.8 33-15.7 5.9-1.4 11.4-1 16.5.8 14.2 5.1 25.9 13.2 31.6 28.2 6.9 18.4 11.7 37.3 13.8 56.9 1.1 10.5 2.3 21.1 3.3 31.6.2 2 0 4-.1 6 0 1.4-.6 2.7-2.1 3-1.3.2-2.4-.5-3.1-1.9-3.4-7.2-7.1-14.3-10.3-21.5-6.2-14-13.2-27.6-22-40.2-2.3-3.3-5-6.2-7.5-9.3-10.5-13.4-24.5-13.9-38.9-9.6-22.3 6.6-40.3 20-54 38.8-8.2 11.3-14.8 23.7-21.9 35.7-.6.9-1.5.9-2.3-.1zm295.8-10.1l.9.4c5.5-4.8 10.4-10.2 15.1-15.9 6.6-7.9 13.1-15.9 21.9-21.5 6.3-4 9.2-3.5 13.4 2.7 5.3 7.7 8.6 16.4 11.3 25.4 2.7 9.2 5.4 18.5 8.5 27.6.7 2.1 1.1 5.5 5.3 4.8 1.3-25-2-49.6-6-74.1-.6-3.8-2.5-7.6-4.3-11.1-7.1-13.7-20.5-16.4-32.3-6.3-5.3 4.6-9.9 9.9-13.4 16-6.2 11-11.8 22.3-16.4 34.1-2 5.2-4.5 10.4-4.6 16.1l.6 1.8z"/><path id="cl1" fill="#271F16" d="M1532 750c-.6.1-1.3.1-1.9.1-1.9.5-2.7-.1-2-2.1.7-.6 1.3-1.4 2-2l2-2c.7-.6 1.3-1.4 2-2.1 1.9-2.7 3.4-5.8 6.2-7.8 10.9-5.4 21-12.4 32.4-16.8 20.4-7.9 41.8 1.6 49.4 22.1 1.8 4.9 2.5 10.3 6 14.5 5 9.3 3.5 19.9 4.6 30.4-3.8-6.6-7.7-13.2-11.4-19.8-2.6-4.6-5.6-9-8.9-13.2-17.2-21.9-37.4-21.2-61.8-11.5-4.3 1.7-8.4 4.1-12.5 6.2-.7.7-1.3 1.3-2 1.9-.6 0-1.3.1-1.9.1-.8.7-1.6 1.2-2.2 2zm309.2 10.3c-6.5-16.5-9.5-17.8-25.2-10.3-7.2 5.8-9.9 14.2-14.4 23.2 6-2.3 9.2-5.6 12.9-8.2 9.5-6.6 17.9-4.9 24.5 4.7 2 2.9 4 5.9 5.9 8.8.3-4.5 2.6-8.9-.8-12.6-2.8-.9-2.1-3.8-2.9-5.6z"/><path id="hl1" fill="#42392C" d="M1628.1 753.9c-5.4-2-5.3-7.3-6.8-11.4-3.1-8.3-7.5-15.1-15.6-19.8-12.2-7.1-24.1-8.7-36.6-1.2-6.9 4.1-14.5 6.7-21.1 11.2-2.1 1.4-4.5 4.8-7.7 1.5 8.9-7.4 17.7-15 28.1-20.4 15.3-8 29.6-7.9 43.3 3.8 3.1 2.7 5.9 5.6 7.4 9.1 3.6 8.8 7.6 17.6 9 27.2zm213.1.5c-4.8-14-11.8-16-23.4-6.8-.7.6-1.2 1.6-1.7 2.4 3.4 3.7 5.2-.6 7.3-1.8 3.7-2.1 6.6-2 9.5 1.4 2.1 2.5 4.6 4.5 5.5 8 .9 3.4 2.1 7 4.1 9.9 1.3 1.8 1.2-.9 1.7-1.7 0-4-1.7-7.7-3-11.4z"/></svg>