<svg xmlns="http://www.w3.org/2000/svg" id="eyebrow" viewBox="0 0 3000 3000"><path id="cl1" d="M1447.7 801.7s31.755-14.3 71.005-11.3c39.249 3 75.524 24.2 83.613 31 10.347 8.6 32.47 24 26.522 36.7-5.946 12.7-33.302 10.7-53.521-8.1-20.695-19.2-30.686-30.7-50.43-37.9-20.22-7.4-32.35-9.4-52.333-10.8-7.015-.6-14.984.8-24.856.4zm323.8 63.657c9.301-.6 13.7-11.399 29.301-32 15.699-20.699 23.699-25 32.699-28.3 11.5-4.3 36-5 36-5-3.3-3-15.6-9.1-31.699-9.3-17-.3-34 4.3-54.301 20.3-24.1 18.9-26.699 41.7-26.699 41.7-.001 6.901 5.399 13.3 14.699 12.6z"/><path fill="none" stroke="#000" stroke-miterlimit="10" stroke-width="6" d="M1447.7 801.7s31.755-14.3 71.005-11.3c39.249 3 75.524 24.2 83.613 31 10.347 8.6 32.47 24 26.522 36.7-5.946 12.7-33.302 10.7-53.521-8.1-20.695-19.2-30.686-30.7-50.43-37.9-20.22-7.4-32.35-9.4-52.333-10.8-7.015-.6-14.984.8-24.856.4zm323.8 63.657c9.301-.6 13.7-11.399 29.301-32 15.699-20.699 23.699-25 32.699-28.3 11.5-4.3 36-5 36-5-3.3-3-15.6-9.1-31.699-9.3-17-.3-34 4.3-54.301 20.3-24.1 18.9-26.699 41.7-26.699 41.7-.001 6.901 5.399 13.3 14.699 12.6z"/></svg>