<svg xmlns="http://www.w3.org/2000/svg" id="eyebrow" viewBox="0 0 3000 3000"><path fill="#010101" d="M1393.9 807.8c1.8-2.8 4.6-2.9 7-3.4 22.4-4.6 44.7-9.6 67.5-11.7 19.5-1.8 39.2-1.7 58.8-.5 5.4.3 10.3 2.1 15 4.7 36.8 20 74.5 38 113 54.4 11.5 4.9 22.9 9.9 36.1 15.6-6.6 2.2-11.1-.1-15.6-.3-18.8-1-36.3-7.5-54.1-12.5-40.9-11.3-81.5-23.7-122.8-33.2-20.9-4.8-42.2-8-63.8-9.5-10.6-.7-21.2-1-31.8-1.2-3.3 0-6.7.4-9.3-2.4zM1742 838c2.1-2.6 4.1-5.2 6.2-7.7 29.2-33.4 63.9-59.9 101.6-82.9 6.9-4.2 13.7-7.8 12.2-18-.5-3.3 1.5-7.1 2.7-10.5 2-5.3 4.4-10.4 6.4-15.7 2.7-7.3 6.3-14.3 7.1-22.7-5.2-.2-8.1 2.9-11 5.2-8.3 6.6-16.6 13.4-24.2 20.7-26.7 25.6-52.1 52.3-75.2 81.2-11.7 14.5-23.7 28.8-28.2 47.6-.9 2.6.3 3.1 2.4 2.8z"/><path id="cl1" fill="#271F16" d="M1594 837.9c-13.8-3.5-27.6-7-41.3-10.7-23-6.2-46.1-12-69.5-16.5-6.8-1.3-13.7-2.1-20.6-2.7-3-.3-5.9-.6-8.6-2.1-.2-3.3 2.3-3.5 4.6-3.9 20.1-3.3 40.3-.5 60.5-.3 16 .2 29.4 6.8 42.3 15.3 8.1 5.3 17 9 25.5 13.5 3.1 1.7 7.2 2.6 7.1 7.4zm6 2.1c-1.4-2.3-3.7-2-5.9-2.1 1.3 2.4 3.7 2.1 5.9 2.1zm4.1 1.8c-1-1.5-2.4-1.9-4.1-1.8.9 1.6 2.4 2 4.1 1.8zm248.5-130.7c-13.1 10.7-24.7 23-37.5 33.9-11.1 12.1-22.6 24-33.4 36.3-2.8 3.1-6.3 5.8-5.6 10.7 2.5-.1 4.3-1.5 6-3.1 11.3-11.2 24.1-20.5 37.3-29.2 10.5-6.9 21.1-13.5 31.7-20.2 2.2-1.4 5-2.4 4.8-5.7-.7-9.3 4.6-17.1 6.1-25.8-4.4-2.7-6.7.9-9.4 3.1z"/><path id="hl1" fill="#40382B" d="M1594 837.9c-1-.8-1.9-1.9-3.1-2.4-17.2-8-33.3-18.1-49.8-27.4-1.8-1-3.4-2.2-5.5-2-11.3.7-22.4-2.9-33.8-2.2-6.9.5-13.8-.3-20.8-1.3-9.1-1.3-18.3.6-27.1 3.4-5.3 0-10.5-.1-15.8-.1 1.1-2.1 1.2-2.4 1.9-3.7 21.4-2.8 42.9-3.9 64.5-4.4 20.1-.5 37.9 4.2 54.7 15 13.7 8.8 28.6 15.6 43.6 22 6.2 2.7 12.8 5.2 18.7 11.5-6.7-1.7-12.1-3-17.5-4.3-1.2-1-3-.7-4.1-1.8-1.5-2.1-4.3-.4-5.9-2.3zm-167.7-33.3l.3 1.2c3.9 0 11.6.1 11.6 0 .6-1.2 1.3-2.5 1.9-3.7-4.6.9-9.2 1.7-13.8 2.5zM1862 708c.7-.6 1.3-1.3 1.9-2.1 1.7-3.3 3.4-6.6 3.3-11.7-20 15.5-35.4 33.9-53.1 49.9-.5 1.8 0 2.6 1.9 1.9 8.4-7.4 16.6-14.9 25.1-22.1 6.8-5.5 12.5-12.5 20.9-15.9zm-101.1 98.4c4.6-2.5 8.2-6.1 11.2-10.4.6-.7 1.2-1.5 2-2 .6-.7 1.2-1.5 2-2 1.2-2.7 2.4-5.4 4.5-7.6 9-9.6 17.9-19.2 26.9-28.9 2.9-3.1 6.5-5.6 8.6-9.5l-1.9-1.9c-19.3 19.5-37.5 39.9-53.3 62.3z"/></svg>