<svg xmlns="http://www.w3.org/2000/svg" id="eyebrow" viewBox="0 0 3000 3000"><path fill="#010101" d="M1675.699 780.999c-11.85 20.125-26.197 35.764-44.432 45.584-11.663 6.305-23.326 5.576-35.268 4-16.846-2.425-33.786-2.425-50.632-1.698-39.803 1.577-78.402 12.972-117.279 22.793-18.421 4.728-36.563 10.668-53.873 20.488-.741.363-1.666 0-3.425 0 6.202-10.911 14.255-17.457 22.401-23.155 40.173-28.369 82.845-45.948 128.387-52.373 18.327-2.545 36.748-4.243 55.076-4.364 33.323-.365 66.184-4.608 98.487-15.276.927 1.213 1.113 2.547.558 4.001zm212 73.341c-8.547-6.565-16.784-14.317-25.729-19.678-17.659-10.527-35.781-19.709-54.301-25.951-18.521-6.241-37.118-11.97-55.396-20.126-4.949-2.266-9.862-4.789-15.369-7.429.846 6.021 3.963 8.563 6.523 11.602 7.114 8.246 13.944 16.925 18.955 27.245 4.116 8.406 8.241 11.225 16.407 12.166 31.152 3.349 62.398 9.283 93.288 20.508 4.846 1.792 9.744 2.952 14.63 4.488.336-1.067.722-1.897.992-2.825z"/><path id="cl1" fill="#271F16" d="M1651.354 804.761c-6.849 9.093-15.828 13.457-24.529 18.306-4.258 2.424-8.423 1.576-12.589.728-14.255-2.91-28.51-4.85-42.95-4.729-17.494.121-34.989-.727-52.391 2.545-17.865 3.396-35.729 6.184-53.41 10.911-8.978 2.304-17.865 5.578-27.121 5.941.371-6.062 4.257-6.305 7.405-7.395 27.862-9.821 56.279-16.125 84.974-20.368 36.934-5.456 74.237-5.213 111.263-8.971 3.239-.241 6.664-.727 9.348 3.032zm157.967 16.247c-13.079-5.2-26.198-10.144-39.317-15.088-2.364-.846-4.989-2.009-6.678 1.092 2.589 4.894 5.062 9.688 7.65 14.581 1.772 3.335 4.036 5.446 7.238 4.495 2.391-.772 4.884-.201 7.391-.007 9.937.801 19.885 1.226 29.742 1.672-.352-4.638-3.312-5.603-6.026-6.745z"/><path id="hl1" fill="#524737" d="M1651.354 804.761c-21.104 3.395-42.301.606-63.406 2.788-23.419 2.425-46.93 4.486-70.256 8.85-21.753 4.123-43.691 7.396-64.889 15.034-4.998 1.818-10.182 2.909-14.532 7.031-9.072 3.273-18.235 6.547-27.307 9.941-.278-.729-.463-1.576-.741-2.304 10.09-6.546 20.087-13.579 31.102-16.973 28.047-8.486 56.187-16.851 84.789-21.7 9.071-1.577 18.327-2.667 27.491-2.546 17.865.243 35.638-1.576 53.317-3.273 18.605-1.819 37.119-4.607 55.538-11.274-3.238 8.486-3.238 8.486-11.106 14.426zm164.02 23.111c1.85 1.953 4.005-.754 5.906 1.436 6.63 2.146 13.376 4.391 20.134 4.523-26.697-16.737-55.255-22.516-83.11-35.896.833 5.527 2.862 7.439 5.074 9.313 16.851 4.25 33.267 11.697 49.798 18.375.801.197 1.449 1.421 2.198 2.249z"/></svg>