<svg xmlns="http://www.w3.org/2000/svg" id="eyebrow" viewBox="0 0 3000 3000"><path fill-rule="evenodd" d="M1891.716 834.101l-161.334 33c-6.296-19.069.434-28.084 15.682-33.812 25.468-9.56 50.58-20.239 75.8-30.583 45.147-18.521 45.137-18.562 69.852 31.395zm-429.022 40.815c65.674-1.104 130.453-2.189 196.081-3.291 4.247-21.844-5.208-29.856-24.176-32.328-31.683-4.122-63.129-9.525-94.648-14.545-56.422-8.986-56.418-9.034-77.257 50.164z" clip-rule="evenodd"/><path id="sd1" fill="#252525" fill-rule="evenodd" d="M1658.775 871.625l-196.081 3.291c1.576-4.478 3.032-8.611 4.403-12.433 14.301-14.132 46.131-31.505 79.441-26.25 46.48 7.332 107.131 10.19 107.151 10.194 5.531 5.009 7.474 12.918 5.086 25.198zm209.524-76.493c-8.625 3.432-18.894 6.993-31.144 10.628-59.868 17.767-87.347 45.204-98.239 59.596a2890431 2890431 0 0 1 152.8-31.254c-10.473-21.17-16.507-33.358-23.417-38.97z" clip-rule="evenodd"/><path id="cl1" fill="#464646" fill-rule="evenodd" d="M1658.236 867.72c-.207 1.13-.649 3.17-.843 3.173-.253.004-.068-6.556-2.83-10.045-5.205-6.577-23.647-7.496-29.869-12.97-2.385-2.098-5.197-5.664-8.145-9.97a1181.53 1181.53 0 0 0 21.666 3.042c15.708 2.047 23.341 8.64 20.021 26.77zm211.528-67.675c-9.252-8.91-19.473-4.706-45.453 5.953-23.93 9.815-47.759 19.949-71.925 29.02-14.099 5.296-20.518 13.557-15.311 30.715l15.05-3.079c-5.239-18.685 40.008-44.672 117.639-62.609z" clip-rule="evenodd"/></svg>