<svg xmlns="http://www.w3.org/2000/svg" id="eyebrow" viewBox="0 0 3000 3000"><path id="sd1" fill="#252525" fill-rule="evenodd" d="M1593.158 866.795c-1.304-.944-44.167-29.308-61-21.275-2.234 1.066-2.263-5.91-2.33-6.249 0-7.262 3.348-8.203 5.469-8.907 20.676-6.837 41.529-6.55 61.857 8.114 16.337 28.317 19.671 45.452-3.996 28.317zm232.562-28.013c-.198-.288 1.703-15.942-3.064-17.775-19.089-7.34-37.988-11.074-59.048 8.328-2.813 2.591-13.846 24.035-10.259 41.296 26.373-12.061 47.977-34.781 72.371-31.849z" clip-rule="evenodd"/><path id="cl1" fill="#464646" fill-rule="evenodd" d="M1556.984 826.118c14.011.05 30.371 2.824 44.068 14.327 4.708 3.957 11.412 19.984 10.484 25.761-.033.207-.07.389-.104.588-12.687-18.44-34.064-30.378-54.448-40.676zm206.623 3.217c-4.539 4.179-12.232 22.121-12.117 28.855.009.51.026.982.044 1.454 7.036-8.718 14.039-19.203 24.323-27.4 8.873-7.072 26.554-7.898 38.024-13.01-14.05-3.374-34.736-4.213-50.274 10.101z" clip-rule="evenodd"/><path fill="none" fill-rule="evenodd" stroke="#000" stroke-linecap="round" stroke-linejoin="round" stroke-miterlimit="10" stroke-width="6" d="M1528.884 837.473c.585-3.936 3.349-8.203 5.469-8.907 22.321-7.381 44.849-6.472 66.7 11.879 4.708 3.957 11.412 19.984 10.484 25.761-2.905 18.059-10.361 6.755-17.21 2.777-16.29-9.451-32.866-16.788-49.416-23.843-4.653-1.978-10.562 4.249-14.454.149-1.523-1.605-1.967-5.16-1.573-7.816zm297.443-5.755c-.116-4.068-1.922-9.729-3.672-10.711-18.408-10.324-37.988-11.074-59.048 8.328-4.539 4.179-12.232 22.121-12.117 28.855.37 21.056 8.154 8.622 14.544 4.587 15.197-9.585 30.39-16.716 45.531-23.508 4.255-1.909 8.94 4.52 12.476 1.333 1.862-1.68 2.376-5.725 2.286-8.884z" clip-rule="evenodd"/></svg>