<svg xmlns="http://www.w3.org/2000/svg" id="eyebrow" viewBox="0 0 3000 3000"><path id="sd1" fill="#252525" fill-rule="evenodd" d="M1850.948 876.467c-6.436-4.154-11.979-10.177-19.468-12.121-26.646-6.899-53.497-13.545-81.237-17.911-11.666-1.83-28.573 2.918-21.609-16.946 2.231-6.352 20.973-16.29 29.729-16.209 40.637.371 71.661 18.164 97.404 43.795 2.442 2.438 1.433 8.674 2.023 13.143-2.283 2.085-4.559 4.166-6.842 6.249zm-360.204-4.184c8.501-3.5 16.596-9.057 25.582-10.126 31.975-3.78 64.1-7.274 96.499-8.282 13.625-.419 31.046 6.668 29.497-14.87-.501-6.888-18.344-19.603-28.161-20.633-45.574-4.786-85.869 9.765-122.716 33.137-3.498 2.224-4.327 8.833-6.394 13.407 1.899 2.458 3.793 4.911 5.693 7.367z" clip-rule="evenodd"/><path id="cl1" fill="#464646" fill-rule="evenodd" d="M1521.682 843.296c-15.928 2.017-26.635 15.214-32.882 22.561-.242-.314-3.506-.627-3.748-.941 2.066-4.573 2.896-11.183 6.394-13.407 36.847-23.373 77.142-37.923 122.716-33.137 2.591.272-32.244.75-29.002 2.328-23.419 4.921-36.399 19.167-63.478 22.596zm83.875-27.043c-4.291-.451-74.048 16.634-84.982 25.407-8.498 6.817 107.676-15.056 100.104 10.418 11.598.914 22.903 2.348 21.644-15.183-.502-6.887-26.948-19.612-36.766-20.642zm152.806-2.973c-8.757-.081-27.498 9.857-29.729 16.209-6.002 17.123 5.729 15.96 16.555 16.484 5.835-7.096 17.833-12.492 41.835-10.15 20.596 2.009 35.16 2.142 45.963 1.907-20.95-14.828-45.281-24.182-74.624-24.45z" clip-rule="evenodd"/><path fill="none" fill-rule="evenodd" stroke="#000" stroke-linecap="round" stroke-linejoin="round" stroke-miterlimit="10" stroke-width="6" d="M1491.445 851.51c37.174-22.85 77.142-37.923 122.716-33.137 9.817 1.03 27.66 13.746 28.161 20.633 1.549 21.538-15.872 14.451-29.497 14.87-32.399 1.008-64.524 4.502-96.499 8.282-8.986 1.069-18.437 12.527-25.582 10.126-4.892-1.645-9.826-14.303.701-20.774zm364.323 5.564c-26.246-25.116-56.768-43.424-97.404-43.795-8.757-.081-27.498 9.857-29.729 16.209-6.964 19.864 9.943 15.117 21.609 16.946 27.74 4.366 54.591 11.012 81.237 17.911 7.488 1.944 12.131 9.919 19.468 12.121 3.344 1.004 17.532-7.224 4.819-19.392z" clip-rule="evenodd"/></svg>