<svg xmlns="http://www.w3.org/2000/svg" id="eyebrow" viewBox="0 0 3000 3000"><path id="sd1" fill="#272C3F" fill-rule="evenodd" d="M1854.286 844.622c-45.815-8.146-69.681 23.107-98.028 45.146-5.01 3.896-12.504 4.002-19.708 2.961 36.362-48.487 81.498-71.636 117.736-48.107zm-361.134 9.424c-7.687 4.324-6.934 7.653-21.976 6.813-15.042-.84-16.184-10.281-19.675-10.311-3.492-.029 2.989 6.522 10.186 11.246 7.197 4.725 22.617 11.654 51.797-5.623 26.963-15.965 49.969 5.963 84.15 22.957 17.762 8.831 34.221 17.434 44.625 16.446 11.663-1.106 20.114-9.022 19.145-11.473s-3.021-1.202-2.051.265c1.081 1.634-12.517 4.777-21.469.527-9.171-4.354-49.335-38.35-84.728-49.049s-48.373 11.657-60.004 18.202z" clip-rule="evenodd"/><path id="cl1" fill="#5A5A5B" fill-rule="evenodd" d="M1854.286 844.622c-45.815-8.146-46.881-5.774-75.229 16.265-5.01 3.896-12.667 5.641-9.254-1.619 13.78-13.411 48.245-38.175 84.483-14.646zm-361.134 9.424c-7.687 4.324-6.934 7.653-21.976 6.813-15.042-.84-16.184-10.281-19.675-10.311-3.492-.029 2.989 6.522 10.186 11.246 7.197 4.725 16.838 1.751 46.018-15.526 26.963-15.965 56.318-1.994 90.5 15 17.762 8.831 39.596 30.487 50 29.5 11.663-1.106 14.169-4.216 13.199-6.666s-3.021-1.202-2.051.265c1.081 1.634-12.517 4.777-21.469.527-9.171-4.354-49.335-38.35-84.728-49.049s-48.373 11.656-60.004 18.201z" clip-rule="evenodd"/><path fill="none" fill-rule="evenodd" stroke="#000" stroke-miterlimit="10" stroke-width="6" d="M1854.286 844.622c-45.815-8.146-69.681 23.107-98.028 45.146-5.01 3.896-12.504 4.002-19.708 2.961 36.362-48.487 81.498-71.636 117.736-48.107zm-361.134 9.424c-7.687 4.324-6.934 7.653-21.976 6.813-15.042-.84-16.184-10.281-19.675-10.311-3.492-.029 2.989 6.522 10.186 11.246 7.197 4.725 22.617 11.654 51.797-5.623 26.963-15.965 49.969 5.963 84.15 22.957 17.762 8.831 34.221 17.434 44.625 16.446 11.663-1.106 20.114-9.022 19.145-11.473s-3.021-1.202-2.051.265c1.081 1.634-12.517 4.777-21.469.527-9.171-4.354-49.335-38.35-84.728-49.049s-48.373 11.657-60.004 18.202z" clip-rule="evenodd"/></svg>