<svg xmlns="http://www.w3.org/2000/svg" id="eyebrow" viewBox="0 0 3000 3000"><path id="sd1" fill="#261E16" d="M1717.979 861.335c26.019-18.579 86.642-32.583 103.373-27.506 15.115 4.586 50.362 45.785 50.362 45.785s-31.808-7.276-53.013-9.109c-21.205-1.834-85.115 19.868-100.723 18.339-5.468-.537-4.766-24.106.001-27.509zm-74.071-3.831c-33.203-16.617-79.291-27.435-109.555-20.975-17.127 3.656-59.061 41.29-59.061 41.29s37.301-6.561 62.169-8.215c24.867-1.654 118.12 16.539 118.12 16.539s-5.227-25.413-11.673-28.639z"/><path id="cl1" fill="#514736" d="M1717.979 861.335c26.019-18.579 86.642-32.583 103.373-27.506 15.115 4.586 50.362 45.785 50.362 45.785s-39.965-39.753-62.512-35.158c-5.414 1.103-95.99 20.282-91.223 16.879zm-74.071-3.831c-33.203-16.617-79.291-27.435-109.555-20.975-17.127 3.656-59.061 41.29-59.061 41.29s51.072-32.503 75.94-34.158c24.869-1.653 99.122 17.069 92.676 13.843z"/><path fill="none" stroke="#060001" stroke-miterlimit="10" stroke-width="6" d="M1717.979 861.335c26.019-18.579 86.642-32.583 103.373-27.506 15.115 4.586 50.362 45.785 50.362 45.785s-31.808-7.276-53.013-9.109c-21.205-1.834-85.115 19.868-100.723 18.339-5.468-.537-4.766-24.106.001-27.509zm-74.071-3.831c-33.203-16.617-79.291-27.435-109.555-20.975-17.127 3.656-59.061 41.29-59.061 41.29s37.301-6.561 62.169-8.215c24.867-1.654 118.12 16.539 118.12 16.539s-5.227-25.413-11.673-28.639z"/></svg>