<svg xmlns="http://www.w3.org/2000/svg" id="eyebrow" viewBox="0 0 3000 3000"><path fill-rule="evenodd" d="M1473.102 899.095c5.827-10.758 10.322-23.481 17.693-31.959 38.736-44.514 81.865-60.646 132.124-35.461-1.064 6.806-1.305 11.424-2.546 15.55-1.614 5.375-4.026 10.359-7.523 19.079-49.873-27.031-91.641-.104-130.751 41.613-2.997-2.938-5.995-5.875-8.997-8.822zm382.591-7.28c-5.611-9.998-10.433-22.088-16.964-29.655-34.313-39.714-68.816-50.829-104.147-20.221 1.561 6.621 2.254 11.166 3.653 15.113 1.82 5.139 4.202 9.805 7.821 18.044 34.836-32.391 69.499-10.435 103.79 26.468l5.847-9.749z" clip-rule="evenodd"/></svg>