<svg xmlns="http://www.w3.org/2000/svg" id="eyebrow" viewBox="0 0 3000 3000"><path id="cl1" d="M1469 832.5c1.5 1 45.5.5 61.5-7.5s23-16.5 39-34.5 42.1-41.399 52-15c4.1 11-15 31-28.5 41 0 0-19.5 18.301-47.5 25-43.5 10.5-76.5-9-76.5-9zm296-64.5s-9.5 9.5 4 32.5 35.5 36.5 47 41 40.5 3.101 57.5-7c0 0-30-1.5-45-10.5-13.101-7.8-28-31.3-34-42-3.1-5.5-18-23.5-29.5-14z"/><path fill="none" stroke="#000" stroke-miterlimit="10" stroke-width="6" d="M1469 832.5c7.322-.144 45.5.5 61.5-7.5s23-16.5 39-34.5 42.1-41.399 52-15c4.1 11-15 31-28.5 41 0 0-19.5 18.301-47.5 25-43.5 10.5-76.5-9-76.5-9zm296-64.5s-9.5 9.5 4 32.5 35.5 36.5 47 41 40.5 3.101 57.5-7c0 0-30-1.5-45-10.5-13.101-7.8-28-31.3-34-42-3.1-5.5-18-23.5-29.5-14z"/></svg>