<svg xmlns="http://www.w3.org/2000/svg" id="eyebrow" viewBox="0 0 3000 3000"><path d="M1646.634 830.332c.927.924-.263 1.646-4.634 2.022-4.37.375-109.745 2.144-156.535 10.605-46.79 8.462 15.813-5.313 73.086-9.078s88.083-3.549 88.083-3.549zm-157.353 17.764c-8.756 1.525-15.1 5.365 5.253 2.54 20.353-2.826 96.288-10.124 124.9-9.145 7.683.063 11.735-3.56-.714-2.774-12.445.785-78.078.432-129.439 9.379zm-14.6 12.938c-9.87 1.761-17.062 5.974 5.872 2.654 22.935-3.321 108.449-12.227 140.621-11.577 8.642-.041 13.247-3.987-.765-2.969s-87.831 1.562-145.728 11.892zm14.223-33.781c-15.818 2.586 33.422.299 57.846-1.607 24.424-1.907-21.503 2.823-35.883 5.039-14.378 2.216 11.276-.862 45.961-3.111 34.684-2.249 51.124.564 71.16-.512 20.037-1.077 16.762-3.384 13.804-4.456-2.96-1.071-2.749 1.69-12.677 1.386-21.247-.65-124.394.676-140.211 3.261zm5.691 45.974c11.773-1.916 82.403-8.962 95.431-10.46 13.03-1.498 21.665-6.684 7.462-3.776-14.2 2.907-30.418 3.936-54.994 6.734-24.578 2.8-53.692 5.889-59.893 7.065-6.824 1.296.22 2.353 11.994.437zm262.109-40.62c12.911 2.655 57.81 5.81 91.107 16.925 33.296 11.115 16.297-1.029-25.88-10.141-42.177-9.111-80.39-9.901-65.227-6.784zm-6.808 2.083c-5.814-.139-18.269-.474 4.32 3.473 22.59 3.948 59.247 8.926 82.744 17.53 23.495 8.604 30.696 6.837 20.065 4.337-10.632-2.499-31.563-12.062-57.4-17.11-25.836-5.046-49.729-8.23-49.729-8.23zm-9.561 12.208c8.063 1.7 57.591 10.513 81.935 16.285 11.628 2.757 19.509 5.708 10.129 4.284-9.404-1.427-79.886-17.383-96.563-16.883-16.675.5 10.737 1.073 28.766 4.832 18.028 3.758 59.875 11.698 75.761 16.303s25.487 4.161.335-4.564c-25.15-8.726-47.658-13.816-77.674-18.595s-30.43-3.294-22.689-1.662zm-2.531 16.594c11.209 1.838 26.502 1.654 43.732 4.923 17.231 3.27 31.836 5.487 46.273 9.986 14.439 4.5 34.052 3.641 11.897-.563-22.155-4.205-61.759-11.55-75.102-13.961s-47.353-3.753-26.8-.385z"/></svg>