<svg xmlns="http://www.w3.org/2000/svg" id="eyebrow" viewBox="0 0 3000 3000"><path fill-rule="evenodd" d="M1892.171 831.036c-54.005 14.771-107.077 29.289-163.784 44.795-3.295-8.733-7.606-20.167-12.477-33.091 38.089-14.088 73.74-27.875 109.941-40.126 6.743-2.285 17.105-.2 23.324 2.974 16.225 8.262 31.081 18.247 42.996 25.448zm-445.708 10.949c68.49 11.751 135.797 23.302 207.714 35.638 3.79-8.915 8.751-20.586 14.353-33.777-48.452-11.958-93.827-23.75-139.833-33.978-8.569-1.907-21.514.755-29.204 4.276-20.065 9.164-38.34 19.978-53.03 27.841z" clip-rule="evenodd"/></svg>