<svg xmlns="http://www.w3.org/2000/svg" id="eyebrow" viewBox="0 0 3000 3000"><path id="sd1" fill="#261E16" d="M1734.554 832.521l13.701-10.961s.913-26.486 52.973-27.4c52.06-.913 85.854 69.414 48.406 38.361-37.447-31.053-79.459-5.481-79.459-5.481-74.894 73.98-78.548 52.061-69.415 50.234s18.725-21.244 24.66-35.621c4.97-12.038 9.134-9.132 9.134-9.132zm-68.16 13.63c-12.755 2.806-30.36.447-60.108-8.226-29.748-8.674-77.747-27.834-110.875 0-16.888 14.188-22.311 30.984-22.311 30.984s11.464-11.745 43.945-15.889c66.256-8.451 96.679 28.733 141.299 25.353 37.492-2.84 22.959-25.248 8.134-41.961-2.82-3.178-.084 9.739-.084 9.739z"/><path id="cl1" fill="#514736" d="M1723.43 850.992c1.677-2.962 11.124-19.987 11.124-19.987l13.701-10.961s.913-26.486 52.973-27.4c52.06-.913 85.854 69.414 48.406 38.361-37.447-31.053-72.918-21.444-89.517-10.379-38.733 25.818-37.993 32.67-36.687 30.366zm-57.036-4.841c-12.755 2.806-30.36.447-60.108-8.226-29.748-8.674-77.747-27.834-110.875 0-16.888 14.188-22.311 30.984-22.311 30.984s20.735-27.487 53.217-31.631c66.256-8.451 74.61 25.361 119.231 21.981 37.769-2.861 31.193-11.234 19.788-24.432-3.857-4.462 1.058 11.324 1.058 11.324z"/><path fill="none" stroke="#000" stroke-linecap="round" stroke-linejoin="round" stroke-miterlimit="10" stroke-width="6" d="M1730.258 833.689s15.366-7.383 17.997-12.129c7.228-13.041.913-26.486 52.973-27.4 52.06-.913 85.854 69.414 48.406 38.361-37.447-31.053-79.459-5.481-79.459-5.481-74.894 73.98-78.548 52.061-69.415 50.234s23.747-20.094 24.66-35.621c.913-15.527-5.479-29.227-5.479-29.227m-59.569 34.848c-12.755 2.806-24.339-.675-54.087-9.349-29.748-8.674-77.747-27.834-110.875 0-16.888 14.188-22.311 30.984-22.311 30.984s11.464-11.745 43.945-15.889c66.256-8.451 96.679 28.733 141.299 25.353 44.621-3.38 15.55-34.479 0-50.705"/></svg>