<svg xmlns="http://www.w3.org/2000/svg" id="eyebrow" viewBox="0 0 3000 3000"><path id="cl1" d="M1455.127 842.824s46.758-36.212 98.159-34.466c48.224 1.591 58.195 12.096 69.023 20.005 10.082 7.291-4.052 16-34.313 15.246-30.258-.755-71.952-2.132-91.666 2.665-24.426 5.846-47.475 10.475-41.203-3.45zm295.222-15.917s-7.19 8.8 2.667 15c7.771 4.899 30.733.8 47.549 0 18.905-.9 34.445-1.301 46.97 1.6 12.526 3 28.646 6.4 22.268-5.6 0 0-28.182-21-56.827-26.7-28.648-5.601-56.481 8.7-62.627 15.7z"/><path fill="none" stroke="#000" stroke-miterlimit="10" stroke-width="6" d="M1455.127 842.824s46.758-36.212 98.159-34.466c48.224 1.591 58.195 12.096 69.023 20.005 10.082 7.291-4.052 16-34.313 15.246-30.258-.755-71.952-2.132-91.666 2.665-24.426 5.846-47.475 10.475-41.203-3.45zm295.222-15.917s-7.19 8.8 2.667 15c7.771 4.899 30.733.8 47.549 0 18.905-.9 34.445-1.301 46.97 1.6 12.526 3 28.646 6.4 22.268-5.6 0 0-28.182-21-56.827-26.7-28.648-5.601-56.481 8.7-62.627 15.7z"/></svg>