<svg xmlns="http://www.w3.org/2000/svg" id="eyebrow" viewBox="0 0 3000 3000"><path id="cl1" d="M1533.984 778.387c20.312 5.092 75.749 32.345 96.516 57.446 20.766 25.101-10.861 38.008-33.937 26.124-23.075-11.885-18.473-17.437-57.539-48.231-39.161-30.765-115.688-23.84-115.688-23.84 42.924-17.019 90.336-16.59 110.648-11.499zm261.306 5.775s-40.708 30.205-52.249 57.68c0 0-6.424 37.759 31.453 5.945 37.968-31.776 58.775-52.647 75.531-50.706 14.995 1.743 37.674 9.895 37.674 9.895s-6.108-11.279-19.582-20.518c-13.473-9.238-43.581-18.212-72.827-2.296z"/><path fill="none" stroke="#000" stroke-miterlimit="10" stroke-width="6" d="M1533.984 778.387c20.312 5.092 75.749 32.345 96.516 57.446 20.766 25.101-10.861 38.008-33.937 26.124-23.075-11.885-18.473-17.437-57.539-48.231-39.161-30.765-115.688-23.84-115.688-23.84 42.924-17.019 90.336-16.59 110.648-11.499zm273.077.647c-21.522 6.284-52.479 35.333-64.02 62.808 0 0-6.424 37.759 31.453 5.945 37.968-31.776 53.922-49.443 75.531-50.706 14.995 1.743 37.674 9.895 37.674 9.895s-9.662-16.72-24.161-24.25c-11.861-6.158-27.837-12.053-56.477-3.692z"/></svg>