<svg xmlns="http://www.w3.org/2000/svg" id="eyebrow" viewBox="0 0 3000 3000"><path id="cl1" d="M1449.701 832.367c4.6-13 9.399-26 13.8-39.3 1.1-3.2 2.7-4.301 5.7-4.101s6.1 0 8.899 1c46.4 16 107.1 32.133 151.3 53.733 4.8 2.3 9.3 5.101 13.8 8 9.5 6.2 10.2 8 9.7 21.7-13.301-6.6-27.301-9.8-41.301-12.8-46.1-9.8-106.699-17.833-153.299-25.133-3-.499-6.2-.299-8.599-3.099zM1767.3 862.9c9.101-3.2 18.2-6.4 27.4-9 21.7-6.2 50.387-14.717 72.087-20.617 7.1-1.9 7.3-1.9 5.699-9-2.1-10-4.399-20.1-6.6-30.1-2.1-9.5-4.7-9-11.6-5.7-6.9 3.3-20.387 9.717-26.987 13.518-23.8 13.899-47.899 27.399-69.199 45.1-7.801 6.4-12.2 13.8-10 25.9 6.2-5.301 12.7-7.801 19.2-10.101z"/><path fill="none" stroke="#000" stroke-miterlimit="10" stroke-width="6" d="M1449.701 832.367c4.6-13 9.399-26 13.8-39.3 1.1-3.2 2.7-4.301 5.7-4.101s6.1 0 8.899 1c46.4 16 120.049 37.433 164.25 59.033 4.8 2.3 9.65 14.922 9.15 28.622-11.5-9.122-25.9-14.021-39.9-17.021-46.1-9.8-106.699-17.833-153.299-25.133-3.001-.5-6.201-.3-8.6-3.1zM1767.3 862.9c9.101-3.2 18.2-6.4 27.4-9 21.7-6.2 50.387-14.717 72.087-20.617 7.1-1.9 7.3-1.9 5.699-9-2.1-10-4.399-20.1-6.6-30.1-2.1-9.5-4.7-9-11.6-5.7-6.9 3.3-20.387 9.717-26.987 13.518-23.8 13.899-47.899 27.399-69.199 45.1-7.801 6.4-12.2 13.8-10 25.9 6.2-5.301 12.7-7.801 19.2-10.101z"/></svg>