<svg xmlns="http://www.w3.org/2000/svg" id="eyebrow" viewBox="0 0 3000 3000"><path id="cl1" fill="#020202" d="M1517.2 830.8c-2.7-3.3-3.1-6.1-2.5-9.8 2.6-14.6 9.6-26.8 20.7-36.3 9.6-8.2 20.9-11 33.2-6 2.1.8 4.4 1.9 6 3.4 2.1 2 4 4.7 3.2 7.9-.8 3-3.5 3.6-6.2 4-2.3.3-4.6 1.2-6.8 1.1-16.6-1.1-27.9 8.7-38.9 18.9-4.8 4.5-5.4 11.2-8.7 16.8zm325.1 1.7c-11.9-12.8-26.5-17.3-43.2-14.1-9.7 1.9-19.5 4.8-24.7 14.6-1.4 2.7-3.6 5.9-.7 9.2 2.5 3 5.4 2.8 9 2 8.2-2 15.3-6.2 22.5-10.3 10.9-6.2 20.8-4.6 30.8 1.8 4.2 2.7 7.9 5.9 11.5 10.8.3-6.7-1.8-10.4-5.2-14z"/><path fill="none" stroke="#020202" stroke-miterlimit="10" stroke-width="6" d="M1517.2 830.8c-2.7-3.3-3.1-6.1-2.5-9.8 2.6-14.6 9.6-26.8 20.7-36.3 9.6-8.2 20.9-11 33.2-6 2.1.8 4.4 1.9 6 3.4 2.1 2 4 4.7 3.2 7.9-1.6 4.6-10.8 5.2-13 5-16.6-1.1-27.9 8.7-38.9 18.9-4.8 4.6-7.1 11-8.7 16.9zm325.1 1.7c-11.9-12.8-26.5-17.3-43.2-14.1-9.7 1.9-21 6.8-24.7 14.6-1.4 2.7-2 6.7-.7 9.2 2.5 3 5.4 2.8 9 2 8.2-2 15.3-6.2 22.5-10.3 10.9-6.2 20.8-4.6 30.8 1.8 4.2 2.7 7.9 5.9 11.5 10.8.3-6.7-1.8-10.4-5.2-14z"/></svg>