<svg xmlns="http://www.w3.org/2000/svg" id="eyebrow" viewBox="0 0 3000 3000"><path id="cl1" d="M1397.6 842.2c1.6-4.7 4.8-6.7 7.3-9.2 22.6-22.1 45.3-44 68-66 .7-.7 1.5-1.3 2.1-2.1 2.8-3.6 5.2-3.3 8.9-.4 21.1 16.7 42.4 33 63.8 49.3 19.3 14.7 38.7 29.2 58.9 42.6 3.2 2.1 6.6 4 10.9 6.6 2.4-18.7-2.6-35.4-3.1-52.3 10.6 31.2 17.7 62.7 11.5 96.2-8-1.6-14.1-5.6-20.7-8.6-50.8-23.7-101.6-47.6-152.2-71.5-4.9-2.3-8.9-2.5-14-.3-13.4 5.6-27.1 10.3-41.4 15.7zm300.3 60.5c2.6 5.6 6.3 6.6 12.1 4.7 8.8-2.9 17.9-5 26.8-7.3 35.6-9 71.3-17.9 106.9-27.1 5.4-1.4 10.3-1.5 15.6-.2 6 1.5 12 3.7 18.6 3.3-.1-3.9-2.8-6.2-4.6-8.8-8.4-12.7-17-25.3-25.6-38-4.5-6.6-4.5-6.6-11.7-3.1-37.8 18.4-75.6 36.9-113.4 55.4-9.5 4.6-19 9.4-29.4 14.5 2.1 2.8 3.8 4.5 4.7 6.6z"/><path fill="none" stroke="#000" stroke-miterlimit="10" stroke-width="6" d="M1397.6 842.2c1.6-4.7 4.8-6.7 7.3-9.2 22.6-22.1 45.3-44 68-66 .7-.7 1.5-1.3 2.1-2.1 2.8-3.6 5.2-3.3 8.9-.4 21.1 16.7 42.4 33 63.8 49.3 19.3 14.7 38.7 29.2 58.9 42.6 3.2 2.1 6.6 4 10.9 6.6 2.4-18.7-2.6-35.4-3.1-52.3 10.6 31.2 17.7 62.7 11.5 96.2-8-1.6-14.1-5.6-20.7-8.6-50.8-23.7-101.6-47.6-152.2-71.5-4.9-2.3-8.9-2.5-14-.3-13.4 5.6-27.1 10.3-41.4 15.7zm300.3 60.5c2.6 5.6 6.3 6.6 12.1 4.7 8.8-2.9 17.9-5 26.8-7.3 35.6-9 71.3-17.9 106.9-27.1 5.4-1.4 10.3-1.5 15.6-.2 6 1.5 12 3.7 18.6 3.3-.1-3.9-2.8-6.2-4.6-8.8-8.4-12.7-17-25.3-25.6-38-4.5-6.6-4.5-6.6-11.7-3.1-37.8 18.4-75.6 36.9-113.4 55.4-9.5 4.6-19 9.4-29.4 14.5 2.1 2.8 3.8 4.5 4.7 6.6z"/></svg>