<svg xmlns="http://www.w3.org/2000/svg" id="eyebrow" viewBox="0 0 3000 3000"><path id="cl1" d="M1611.5 800.7c-41.959-3.1-74.372 8-105.634 21.101-18.43 7.8-35.049 17-50.681 26.699-4.114 2.5-7.239 5.9-13.657 6.9-2.961-2.8-.329-5.1 1.152-7.4 20.731-34.899 54.298-64.1 103.497-86.399 13.326-6 28.63-9.5 45.084-11.4 4.277-.5 9.215-1.1 10.036 2.8 3.458 15.8 6.748 31.499 10.203 47.699zm263.3 53.4c-4.5-16.9-12.699-32.101-22-46.5-10.3-15.9-21.8-30.9-37.6-42.101-9.1-6.399-18.8-11-30.8-11.399-2 16.899-4 33.5-6 50.7 14.399-2.301 26.8 1.699 38.8 7.699 13.5 6.7 25.1 16 36.1 26.2 7.301 6.7 14.4 13.5 21.801 20.4.399-1.798.199-3.399-.301-4.999z"/><path fill="none" stroke="#000" stroke-miterlimit="10" stroke-width="6" d="M1611.5 800.7c-41.959-3.1-74.372 8-105.634 21.101-18.43 7.8-35.049 17-50.681 26.699-4.114 2.5-7.239 5.9-13.657 6.9-2.961-2.8-.329-5.1 1.152-7.4 20.731-34.899 54.298-64.1 103.497-86.399 13.326-6 28.63-9.5 45.084-11.4 4.277-.5 9.215-1.1 10.036 2.8 3.458 15.8 6.748 31.499 10.203 47.699zm263.3 53.4c-4.5-16.9-12.699-32.101-22-46.5-10.3-15.9-21.8-30.9-37.6-42.101-9.1-6.399-18.8-11-30.8-11.399-2 16.899-4 33.5-6 50.7 14.399-2.301 26.8 1.699 38.8 7.699 13.5 6.7 25.1 16 36.1 26.2 7.301 6.7 14.4 13.5 21.801 20.4.399-1.798.199-3.399-.301-4.999z"/></svg>