<svg xmlns="http://www.w3.org/2000/svg" id="图层_3" viewBox="0 0 3000 3000"><path id="cl1" d="M1397.6 842.2c1.6-4.7 4.8-6.7 7.3-9.2 22.601-22.1 45.3-44 68-66 .7-.699 1.5-1.3 2.101-2.1 2.8-3.6 5.199-3.3 8.899-.4 21.101 16.7 42.4 33 63.8 49.301C1567 828.5 1586.4 843 1606.6 856.4c3.2 2.1 6.6 4 10.9 6.6 2.399-18.699-2.601-35.399-3.101-52.3 10.601 31.2 17.7 62.7 11.5 96.2-8-1.6-14.1-5.6-20.7-8.6-50.8-23.7-101.6-47.601-152.199-71.5-4.9-2.301-8.9-2.5-14-.301-13.4 5.601-27.1 10.302-41.4 15.701zm300.3 60.5c2.601 5.601 6.3 6.601 12.101 4.7 8.8-2.9 17.899-5 26.8-7.3 35.6-9 71.3-17.9 106.899-27.1 5.4-1.4 10.301-1.5 15.601-.2 6 1.5 12 3.7 18.6 3.3-.1-3.9-2.8-6.2-4.6-8.8-8.4-12.7-17-25.3-25.601-38-4.5-6.601-4.5-6.601-11.699-3.101-37.801 18.4-75.601 36.9-113.4 55.4-9.5 4.6-19 9.4-29.4 14.5 2.099 2.801 3.799 4.501 4.699 6.601z"/><path fill="none" stroke="#000" stroke-miterlimit="10" stroke-width="6" d="M1397.6 842.2c1.6-4.7 4.8-6.7 7.3-9.2 22.601-22.1 45.3-44 68-66 .7-.699 1.5-1.3 2.101-2.1 2.8-3.6 5.199-3.3 8.899-.4 21.101 16.7 42.4 33 63.8 49.301C1567 828.5 1586.4 843 1606.6 856.4c3.2 2.1 6.6 4 10.9 6.6 2.399-18.699-2.601-35.399-3.101-52.3 10.601 31.2 17.7 62.7 11.5 96.2-8-1.6-14.1-5.6-20.7-8.6-50.8-23.7-101.6-47.601-152.199-71.5-4.9-2.301-8.9-2.5-14-.301-13.4 5.601-27.1 10.302-41.4 15.701zm300.3 60.5c2.601 5.601 6.3 6.601 12.101 4.7 8.8-2.9 17.899-5 26.8-7.3 35.6-9 71.3-17.9 106.899-27.1 5.4-1.4 10.301-1.5 15.601-.2 6 1.5 12 3.7 18.6 3.3-.1-3.9-2.8-6.2-4.6-8.8-8.4-12.7-17-25.3-25.601-38-4.5-6.601-4.5-6.601-11.699-3.101-37.801 18.4-75.601 36.9-113.4 55.4-9.5 4.6-19 9.4-29.4 14.5 2.099 2.801 3.799 4.501 4.699 6.601z"/></svg>