<svg xmlns="http://www.w3.org/2000/svg" id="图层_3" viewBox="0 0 3000 3000"><path fill="#FFF" d="M1734.94 846.963l-1.551-48.124s150.582-29.496 174.646 44.245l-13.195 27.942s-35.71-23.285-159.9-24.063z"/><path fill="#E0E0E0" d="M1888.901 855.61c-9.939-5.717-21.808-7.636-30.089-16.086-.882-.9-.378-2.177.683-2.595 6.015-2.372 12.41-3.272 18.611-4.996-16.658-6.892-35.595-4.108-53.125-6.703-18.861-2.793-37.497-11.547-56.834-8.964 4.615 4.979 11.357 7.559 17.25 10.729 1.282.689.779 3.08-.779 2.892-17.198-2.075-33.665-7.805-50.591-11.122l.913 28.197c124.19.778 159.9 24.063 159.9 24.063l4.104-8.699c-3.2-2.419-6.519-4.692-10.043-6.716z"/><path fill="#FFF" d="M1636.503 846.963l1.783-48.124s-172.766-29.496-200.37 44.245l15.137 27.942s40.965-23.285 183.45-24.063z"/><path fill="#E0E0E0" d="M1560.391 832.16c-1.916.501-3.189-2.059-1.368-2.838 8.188-3.498 15.203-8.356 22.051-13.497-16.915-.061-33.331 5.009-49.674 8.325-14.322 2.908-29.74 4.818-42.788 11.029 6.248.492 12.47-.045 18.766-.635 1.883-.179 2.243 2.129.898 2.892-17.075 9.673-39.901 17.522-62.635 19.904l7.412 13.685s40.965-23.285 183.45-24.063l1.147-30.924c-23.085 10.115-53.673 9.935-77.259 16.122z"/><path fill="none" stroke="#000" stroke-miterlimit="10" stroke-width="5" d="M1437.916 843.084s16.584-50.071 91.736-50.071c58.617 0 103.113 3.666 108.634 5.826 5.521 2.161 2.958 45.086-1.783 48.124s-62.787-2.139-94.857 4.699c-32.071 6.838-84.005 20.89-90.449 19.364s-12.573-23.858-13.281-27.942zm296.111-42.584c.935-3.457 57.224-10.622 89.974-7.487s81.07 29.188 84.035 38.587-9.725 41.274-13.195 39.425-52.409-17.141-79.53-19.636-74.931-1.964-80.37-4.427-3.888-35.462-.914-46.462z"/></svg>