<svg xmlns="http://www.w3.org/2000/svg" id="freckle" viewBox="0 0 3000 3000"><path fill="#7F5A49" fill-rule="evenodd" d="M1588.02 1122.916c.087 1.875.852 4.068-1.699 4.907-.78.257-2.351.057-2.64-.455-1.82-3.221-1.506-6.722-.521-10.11.153-.527 1.706-.995 2.545-.898 1.367.156 2.236 1.205 2.304 2.667.057 1.292.011 2.59.011 3.889zm-45.01 13.935c.285-3.108-1.665-4.913-4.774-4.88-2.296.024-3.567 1.698-3.646 3.851-.101 2.74 1.593 4.126 3.911 4.384 2.687.077 4.321-1.299 4.509-3.355zm87.636-91.482c-.134 2.239 1.332 3.737 3.496 3.955 2.265.229 3.716-1.145 3.872-3.412.16-2.313-1.196-3.588-3.513-3.988-2.253-.002-3.722 1.22-3.855 3.445zm-17.987 32.482c.237 2.166 1.73 3.638 3.962 3.494 2.193-.141 3.58-1.6 3.392-3.918-.185-2.282-1.638-3.426-3.898-3.508-2.265.373-3.71 1.617-3.456 3.932zm135.987 25.518c-.134 2.239 1.332 3.737 3.496 3.955 2.265.229 3.716-1.145 3.872-3.412.16-2.313-1.196-3.588-3.513-3.988-2.253-.002-3.722 1.22-3.855 3.445zm-61.307-24.5c-1.959.498-3.321 2.21-2.678 4.457.455 1.589 1.604 2.911 3.537 2.68 2.291-.274 3.258-1.793 3.295-3.94-.635-2.151-1.942-3.758-4.154-3.197zm-174.653 55.111c1.633-.346 2.854-1.677 2.748-3.509-.126-2.177-1.367-3.78-3.647-3.614-2.231.161-3.228 1.85-3.302 4.002.651 2.116 1.921 3.603 4.201 3.121zm173.48-78.086c-1.925.123-3.092 1.573-3.057 3.117.048 2.176 1.688 3.511 3.949 3.087 1.722-.322 2.668-1.639 2.342-4.092-.278-1.26-1.351-2.233-3.234-2.112zm-175.525 48.007c-2.299-.03-3.619 1.354-3.436 3.568.148 1.779 1.542 2.749 3.388 2.66 1.91-.093 2.752-1.337 2.983-3.104-.211-1.763-1.013-3.099-2.935-3.124zm220.707 18.753c-2.198.214-3.555 1.891-3.166 4.105.292 1.667 1.729 2.76 3.597 2.544 2.03-.235 2.432-1.818 2.539-3.208-.152-2.177-1.105-3.622-2.97-3.441zm-80.09-60.741c-.443-2.005-2.111-2.336-3.826-2.058-1.467.238-2.382 1.452-2.188 2.791.255 1.768 1.587 2.771 3.464 2.802 1.731-.565 2.983-1.573 2.55-3.535zm59.94 32.694c-1.329-.054-2.63.596-2.849 2.216-.287 2.139 1.121 3.072 2.868 3.24 1.315.127 2.628-.437 2.713-1.332.209-2.831-.826-4.045-2.732-4.124zm-20.406 9.55c-1.491.288-2.386 1.36-2.465 2.696-.112 1.922 1.21 3.073 3.024 3.106 1.987.036 2.818-1.321 2.7-3.677-.28-1.429-1.191-2.523-3.259-2.125zm-22.459-26.175c-.181 2.1 1.262 3.078 2.94 3.303 1.361.183 2.483-.726 2.715-2.297.318-2.156-.913-2.956-2.831-3.195-1.227.322-2.676.45-2.824 2.189zm-62.399 15.874c.036-1.335-.301-2.618-1.844-2.901-1.992-.366-3.063.887-3.222 2.609-.135 1.452 1.076 2.163 2.452 2.418 1.347-.125 2.569-.47 2.614-2.126zm121.954 11.045c-1.895-.089-2.992 1.013-3.001 2.864-.007 1.604 1.35 2.13 2.641 2.191 1.435.068 2.326-.809 2.469-2.313-.257-1.262-.461-2.664-2.109-2.742zm-160.909 18.038c-.528 2.158.904 2.904 2.637 3.007 1.483.088 2.398-.945 2.342-2.389-.051-1.289-.557-2.512-2.027-2.69-1.549.038-2.611.678-2.952 2.072zm16.013-51.544c.184-1.894-.974-3.07-2.89-3.064-1.672.006-2.175 1.404-2.179 2.736-.004 1.387.72 2.486 2.302 2.674 1.441-.179 2.629-.928 2.767-2.346zm-23.055 31.437c-.007 1.314.341 2.747 2.06 2.83 1.971.095 3.108-1.115 3.021-2.956-.065-1.388-1.255-2.213-2.682-2.461-1.538.178-2.391 1.15-2.399 2.587zm141.113 26.554c.173-1.843-.92-3.046-2.81-2.997-1.547.04-2.234 1.371-2.227 2.674.008 1.342.872 2.371 2.348 2.631 1.41-.176 2.557-.918 2.689-2.308zm-155.539-38.304a2.331 2.331 0 0 0-2.438 2.368c.005 1.313.98 2.422 2.392 2.437 1.391.015 2.228-.963 2.474-2.359-.198-1.426-1.11-2.399-2.428-2.446zm57.11-22.808c-1.081-.245-1.697.449-1.955 1.396-.316 1.16.503 1.642 1.408 1.917 1.201.365 1.557-.54 1.896-1.399.294-1.163-.409-1.7-1.349-1.914zm138 42.1c-.359.184-.616 1.02-.531 1.489.075.414.689 1.033 1.066 1.033 1.024.001 1.555-.702 1.545-1.638-.438-1.059-1.267-1.298-2.08-.884zm-129.258 31.147l-.666-.13.222.743.444-.613z" clip-rule="evenodd"/></svg>