<svg xmlns="http://www.w3.org/2000/svg" id="freckle" viewBox="0 0 3000 3000"><path fill="#835D4C" fill-rule="evenodd" d="M1797.549 1161.946c-3.29-.006-5.046-1.331-5.422-3.985-.402-2.849 1.401-4.414 3.925-4.791 2.745-.411 4.519 1.293 4.807 3.871.291 2.617-1.382 4.216-3.31 4.905zm-38.585-32.09c2.188-.344 3.338-2.024 3.137-4.274-.253-2.839-2.145-4.023-4.752-3.646-2.171.314-3.381 1.836-3.235 4.658.72 1.927 2.152 3.687 4.85 3.262zm-315.59 45.023c.246-2.642-1.583-4.327-4.107-4.622-2.303-.27-3.697 1.408-4.052 3.474-.505 2.938 1.665 3.894 3.864 4.503 2.464.035 4.099-1.25 4.295-3.355zm-9.621-30.423c-.26 2.674.985 4.453 3.723 4.448 2.023-.004 3.748-1.098 4.036-3.37.362-2.856-1.483-3.971-3.958-4.534-2.156.137-3.582 1.207-3.801 3.456zm-5.754-41.642c.027-2.23-1.355-3.689-3.473-3.913-2.253-.237-3.677 1.213-3.835 3.396-.165 2.284 1.318 3.464 3.521 3.871 2.2-.029 3.757-.962 3.787-3.354zm352.128-6.779c.048 2.36 1.775 3.44 3.98 3.433 1.863-.007 3.13-1.212 3.322-3.008.25-2.334-1.045-3.676-3.497-3.984-2.072.245-3.853 1.142-3.805 3.559zm-298.707 43.17c-.25-2.124-1.738-3.562-4.018-3.173-1.683.287-2.854 1.609-2.842 3.412.016 2.24 1.335 3.503 3.516 3.818 2.249-.479 3.602-1.86 3.344-4.057zm-8.335-22.987c-.179 1.911 1.243 3.01 2.905 3.183 2.332.241 3.544-1.225 3.597-3.486.043-1.857-1.127-2.882-2.852-3.398-2.358.082-3.454 1.606-3.65 3.701zm-105.326 12.478c.236 1.372 1.396 2.351 2.686 2.233 1.666-.151 3.038-1.236 2.797-3.154-.217-1.728-1.333-2.77-3.233-2.65-1.872.488-2.549 1.832-2.25 3.571zm88.237-44.249c-1.842.13-2.975 1.326-2.786 3.107.188 1.771 1.54 2.771 3.365 2.644 1.795-.124 2.885-1.108 2.801-3.172-.514-1.546-1.516-2.71-3.38-2.579zm80.618 45.812c-1.589-.561-3.284-.24-3.688 1.821-.279 1.422.56 2.434 1.888 2.904 1.477.522 2.402-.204 2.969-1.535.518-1.4.125-2.734-1.169-3.19zm-142.561 17.84c-1.367-.183-2.633.172-3.045 1.622-.559 1.972.689 3.137 2.371 3.413 1.361.225 2.319-.8 2.56-2.259.031-1.373-.275-2.56-1.886-2.776zm-6.935-71.362c-.72.21-1.58 1.185-1.704 1.926-.222 1.328.569 2.606 2.021 2.507 1.263-.087 2.162-1.128 2.292-2.556-.24-1.508-1.235-2.276-2.609-1.877zm126.713 25.457c-.134-1.522-1.293-2.142-2.646-2.025-1.483.128-2.151 1.328-2.045 2.656.115 1.452 1.25 2.03 2.647 2.063 1.416-.343 2.168-1.282 2.044-2.694zm234.251-26.172c.128.395.86.888 1.26.841.999-.117 1.496-.983 1.361-1.893-.05-.337-.938-.55-1.441-.816-1.047.215-1.484.933-1.18 1.868z" clip-rule="evenodd"/></svg>