<svg xmlns="http://www.w3.org/2000/svg" id="图层_1" viewBox="0 0 3000 3000"><path fill="#8C6351" fill-rule="evenodd" d="M1425.506 1116.843c-.304 3.403-1.827 5.585-5.432 5.648-2.941.053-5.149-1.207-5.536-4.283-.438-3.482 1.53-5.715 4.806-6.154 3.369-.451 5.456 1.495 6.162 4.789zm-37.547 24.453c-.347-2.881-2.273-4.932-5.402-4.704-3.598.261-5.157 2.557-4.876 6.121.257 3.271 2.383 4.462 5.376 4.805 3.382-.651 5.318-2.764 4.902-6.222zm63.929 3.268c-3.371.117-5.382 2.486-5.492 5.891-.101 3.124 1.749 5.038 4.83 5.142 3.422.114 5.448-1.893 6.284-5.224-.69-3.093-2.025-5.933-5.622-5.809zm-38.315 21.422c-3.587-.328-5.593 1.724-5.678 5.227-.077 3.125 1.774 4.91 4.903 4.904 3.029-.006 4.827-1.7 5.329-4.705-.048-3.071-1.493-5.146-4.554-5.426zm369.649-57.52c-2.786-.128-4.34 1.896-4.426 4.217-.104 2.791 1.439 5.078 4.722 4.788 2.605-.229 3.865-2.063 4.125-5.002-.558-2.031-1.774-3.881-4.421-4.003zm-157.81-77.884c-2.467.031-4.599 1.721-4.564 4.157.041 2.813 2.119 4.806 5.108 4.565 2.474-.197 3.872-2.033 4.139-4.588-.666-2.406-2.18-4.166-4.683-4.134zm26.516 39.492c.482 2.201 2.048 3.511 4.259 3.311 2.64-.239 4.333-1.809 3.78-4.666-.494-2.555-2.309-3.88-4.857-4.069-2.603.954-3.768 2.754-3.182 5.424zm134.707 85.829c-.072 2.682 1.626 4.199 4.268 4.253 2.635.055 4.388-1.391 4.462-4.059.075-2.693-1.644-4.051-4.234-4.298-2.669.128-4.426 1.442-4.496 4.104zm-180.688-81.539c-.184-2.674-1.801-4.309-4.521-4.212-2.328.083-3.539 1.702-3.51 3.967.037 2.81 1.702 4.123 4.676 4.213 1.882-.511 3.519-1.583 3.355-3.968zm151.686 63.312c-2.217.01-3.7 1.034-3.786 3.412-.091 2.531.793 4.581 3.62 4.735 2.665.145 4.031-1.569 4.628-4.584-.424-2.078-1.789-3.574-4.462-3.563z" clip-rule="evenodd"/></svg>