<svg xmlns="http://www.w3.org/2000/svg" id="ears" viewBox="0 0 3000 3000"><path id="cl1" fill="#E8A66B" d="M1146.337 972.228c-6.102-21.699-11.5-39.3-16.2-52.699-1.5-4.5-2.6-7.399-3.3-8.801-1.5-3-3.4-5.399-5.801-7.1-11.199-4.301-21.699-7.601-31.601-10-11.2-2.801-22.2-4.5-33-5.301-14.7-1-28 3.9-39.899 14.801-11.399 10.399-18 22.699-20 37-3.199 22.3-.801 42.5 7.301 60.6 16 36.101 39.8 64.101 71.398 84 23.302 14.7 48.602 21.2 76.102 19.5 2.1-.1 5.3-.399 9.5-.899 3.698-.3 6.8-.101 9.5.5 2.5-1.199 4.8-3.199 7-5.8 2.198-2.601 2.898-5.7 2.1-9.301-.7-3.5-1.2-5.601-1.3-6.3-.2-.601-.5-1.801-1-3.7-3.4-11.899-5.9-20.8-7.5-26.8-3-10.601-5.602-19.5-7.9-26.7-2.201-6.6-7.201-24.199-15.4-53z"/><path id="sd1" fill="#A0734A" d="M1077.136 941.728c-5.9 1-10.8 2.601-14.9 4.5-4 2-7.199 5.801-9.399 11.4-2.199 5.599-2.899 10.699-2 15.1.801 4.5 2.399 9.9 4.5 16.2 2.199 6.3 3.699 10 4.601 11s4.8-.601 11.899-4.801c7.101-4.199 16.399-5.3 27.899-3.3-6.5-7.6-12.1-11.899-16.8-13-3.6-.899-8.3-1.2-14-.899-.4-5.899-.4-10.2-.1-13 .6-4.601 2.698-8.301 6.398-11 4.5-3.301 11.301-5 20.301-5.101-6.299-5.699-12.499-8.099-18.399-7.099zm31.5 92.7c-.2-2.101-.4-3.301-.5-3.5-.2-.399-.4-.601-.601-.601-6.199-.8-11.301-3.5-15.301-7.899-3.1-3.399-5.8-8.399-8.199-15-1.601-4.399-1.801-7.5-.5-9.2 1.199-1.6 6.5-2.399 15.801-2.199-8.7-5.7-16.7-7.101-23.9-4.301-7.2 2.801-12.1 5.5-14.6 8s-1.2 6.801 3.8 12.9 9.1 10.899 12.399 14.5c3.301 3.6 6.801 6.8 10.301 9.5 3.5 2.699 6.6 4.1 9.199 4.3 2.601.2 4.601-.6 6-2.3s2.301-2.7 2.899-3.2c.502-.3 1.602-.7 3.202-1z"/><path id="hl1" fill="#BED1EA" d="M1139.036 1070.928c.101 0 1.5 1.699 4.301 4.899 1.699 1.899 4 2.899 6.898 3.101l-1.198-11.899c-2.602-1.301-4.7-1.301-6.2-.101-1.601 1.8-2.801 3.101-3.801 4z"/><path id="cl2" fill="#3178DD" d="M1125.636 1075.228c.899 3.601 1.6 6.601 2 9.2 11.1-1.601 17.8-2.301 20.2-2 2.398.399 3.398.101 3.3-1-.2-1-.601-1.899-1.2-2.601-3.1-1.5-5.2-3.399-6.3-5.8-1.101-2.301.7-4.601 5.3-6.9.101-1.699.2-3.5.3-5.5.102-1.899-1.1-2.5-3.6-1.699-2.4.8-6.3 1.601-11.601 2.399-5.301.801-8.199 1.5-8.801 2.301-.5.699-.8 2-.898 3.6.001 1.801.4 4.4 1.3 8z"/><path fill="none" stroke="#000" stroke-linecap="round" stroke-linejoin="round" stroke-width="5" d="M1168.136 1103.327c-32.4 5.301-62.2.301-89.2-15-27.6-17.699-50.3-41.3-68.1-71-14.4-27.199-19.102-53.699-14-79.399 5.699-25.5 19.699-41.399 42-47.7 17.699-5.1 44.5-.8 80.3 12.801m-23.4 43.599c-22.3-9.4-37.1-3.601-44.399 17.3-2.601 9.399-.101 22.2 7.5 38.399 8-7.899 17-11.899 27.199-12 10.2-.1 17.301 4.301 21.5 13.101m-48.699-1a133.42 133.42 0 0 0 5.5 10.5c13.5 19.3 24.1 28.899 31.699 28.8 5.199-.1 8.601-2.6 10.199-7.399m18.001 27.299l2.5 24.6 26-2.3-3-24.601-25.5 2.301z"/></svg>