<svg xmlns="http://www.w3.org/2000/svg" id="ears" viewBox="0 0 3000 3000"><path id="cl1" fill="#E9A76E" d="M1141.765 920.222c-1-1-1.8-1.602-2.399-1.801-29.2-11.5-61.2-20.199-96-26.199-5.2-.9-8.801-.5-10.801 1.199s-3 5.101-3 10.301c0 12.699-.199 22.5-.5 29.398-.5 10.801-1.5 20.5-3.1 29.301-1.5 8.601 1.199 16.801 8.3 24.801 4.5 5.1 8.5 9.1 11.9 12 5.5 4.8 9.699 10.1 12.6 15.8 3 5.899 4.8 12.399 5.3 19.7.4 6.5 1.9 12 4.5 16.398 3 5.2 7.4 8.7 13.101 10.4 7.399 2.2 14.899 5.8 22.5 10.7 4.801 3.1 11.399 8.1 19.801 14.898 3.8 3.102 7.399 5.602 10.6 7.5 4 2.301 8 4 11.9 5 6.1 1.602 11.5 1.9 16.199.9 5.399-1.101 10-4 13.801-8.5-1-2.5-1.801-4.9-2.301-7.3 0-.102-.5-3-1.5-8.5-.601-3.4-2.601-10-6.101-19.801-.899 1.399-1.899 3.399-3 5.899-1 2.5-3.199 4.9-6.399 7.2-3.199 2.2-5.399 3.398-6.8 3.398-1.301.102-3.101.102-5.301 0-4.6-5.698-8.899-10.5-12.899-14.5-4.601-4.5-9.801-8.1-15.5-10.6-8.699-3.8-15.5-8.4-20.199-13.8-5.601-6.2-8.801-13.8-9.601-22.8-.2-2.802-1-5.4-2.2-7.7-1.3-2.5-3-4.5-5.101-6-13-9.101-23.199-22.2-30.5-39.4-.5-.5-1.3-1-2.3-1.5-1.1-.7-1.899-1.2-2.3-1.5-1-3.5-.801-7.5.5-12.3 1.8-5.2 2.899-9.1 3.3-11.8 1-6.102 12.101-5.3 33.3 2.3 21.301 7.6 36.4 15.7 45.4 24.5 1.3 1.2 2.5 2.4 3.6 3.6h.101l15.801 18.302 10 15.3-14.702-74.794z"/><path id="sd1" fill="#AF7E53" d="M1123.466 970.622c-4.7-7.199-10.4-13.1-17.2-17.8-12.1-8.3-22.8-12-31.899-11.1-9.101.898-17.801 6.398-26.301 16.6 4.301 16 11.9 27.601 22.9 35 4.6 3.101 8.1 6.7 10.6 11 2.4 4.101 3.9 8.9 4.5 14.4.601 6 3.5 11.8 8.801 17.398 3.101 3.2 6.8 6.2 11.3 9 3.101 1.9 7.301 4.102 12.801 6.602 2.8 1.3 5.1 2.6 6.899 3.898 2.301 1.602 4.301 3.4 5.899 5.302l11.101 15.3c6.801-1.4 11.801-3.3 14.801-5.8 3.1-2.5 5.1-7.302 6.199-14.302.801-5.1.801-9.698.199-13.8-1.199-4.6-2.5-8-3.8-10.2-2.1-3.3-4.899-5.5-8.399-6.5-6.7-1.898-12.5-2.8-17.301-2.698-5.8.1-12 1.3-18.699 3.499.101-.199.101-.301.101-.5 1.199-6 6.6-12.699 16.399-20.301 2.199-4.8 2.699-9 1.5-12.6-2.802-8.597-6.302-16.097-10.401-22.398z"/><path id="sd2" fill="#876140" d="M1054.666 927.522c-1.102-.3-2.2.899-3.301 3.5-1.101 2.6-2.399 6.6-4 12.2s-3.199 10.3-4.699 14.3c1.199.899 3 1.3 5.5 1 2-.101 3.8-.9 5.5-2.4.398-.3 1.699-1.8 4-4.3 3.398-3.899 7.3-6.3 11.8-7.2 4-.8 8.5-.398 13.7 1.2l9.5 3c10.6 3.3 20 11 28.3 23 7.8 11.2 11.6 22.3 11.5 33.3.3.7-.4 1.602-2.3 2.7-6.9 3.9-12.4 11-16.7 21.3 5.8-2.199 9.3-3.398 10.7-3.699 1.398-.301 3.5-.399 6.199-.5 2.699 0 5.5.199 8.399.601 4.601.7 8.8 1.8 12.5 3.3s6.601 3.9 8.8 7.101c.102.199.7 1.301 1.801 3.399.699 1.4 1.5 2.4 2.5 3.101.399-3.5.301-7.601-.199-12.199-.5-3.801-1.102-7.3-2-10.5-.9-3.2-1.7-6.2-2.5-9-.7-2.7-1.5-4.7-2.5-5.8-2.2-3.602-3.7-6.302-4.5-8.2-1-2-1.801-3.5-2.301-4.5-9.301-17.8-21.801-32-37.5-42.602-14.601-9.8-27.699-15.898-39-18.3-11.699-2.202-18-3.502-19.199-3.802z"/><path fill="none" stroke="#000" stroke-linecap="round" stroke-linejoin="round" stroke-width="6" d="M1140.166 917.722c-44.7-16.5-81.801-25.5-111.2-27 1.7 14.398 1.6 31.398-.4 51 0 .3-.899 6.199-2.6 17.8-1.7 11.6.6 21 7 28.3 9.7 8.601 17.399 16 23 22.4 4.899 6.6 7.1 14.1 6.8 22.5 1.101 13.3 5.601 22.5 13.3 27.5 4.2 2.3 7.302 3.398 9.302 3.3 8.3 1.1 20.698 9.1 37.3 24 20 16.9 37.6 19.3 52.6 7.2m-130.703-139.799c1.4-9.899 4.101-19.5 8.101-28.801 36.101 5.301 65.301 20.7 87.5 46.301 8.899 12.899 15.101 24.199 18.699 33.801 1.2 3.3 2.2 6.399 2.801 9.399 8.199 39.5 2.5 60.199-17 61.899m14.199-71.3c-24.601-5.2-40.5 3.199-47.601 25.398"/></svg>