<svg xmlns="http://www.w3.org/2000/svg" id="ears" viewBox="0 0 3000 3000"><path id="cl1" fill="#E8A66B" d="M1149.666 990.76c-4.5-17.602-8.801-32.602-12.899-44.8-2.4-5-6-9.602-10.7-13.802-3.398-3-8.1-6.3-14.2-10-7.1-4.3-15.698-9-25.8-14-11.7-5.8-20.5-10.198-26.3-13-21.7-10.8-37.8-20.698-48.4-29.698-10.6-9-16.2-12.5-16.7-10.5s.4 6.898 2.802 14.898c2.398 8 4.6 17.7 6.5 29.3 2.8 17.302 4.398 26.802 4.6 28.5 3.2 22.9 8.5 43.802 15.9 62.802 8 20.698 18.698 39.398 32 56.198 10.8 13.5 22.3 24.4 34.6 32.9 13.5 9.3 28 15.6 43.7 19.1 8.199 1.802 15.398 2.4 21.6 1.602 7.601-.9 14.301-3.801 20-8.7-1.5-3-2.8-6.7-3.899-11.2-1.101-5.1-2-9-2.699-11.6-2.2-8.9-5.601-21.9-10.101-39-4.404-17.5-7.805-30.5-10.004-39z"/><path id="sd1" fill="#AF7D51" d="M1034.166 917.26c2.101 2.5 5.399 6.398 10.101 11.898 4.7 5.4 9.6 11.102 14.6 17 5.102 6 8.802 10 11 12.2 2.302 2.2 5.9 5.2 10.802 9 5.398 4.2 11.5 7.3 18 9.2 2.698.8 4.8 2.1 6.198 3.8 1.602 1.9 2 5.602 1.2 11.2.8 3.6.9 6.8.5 9.5-1.2 8 1.4 13.899 7.8 17.8 6.4 3.8 12.7 7.602 18.7 11.4 6.1 3.8 10.8 7 14.4 9.5 1.198-3.102 1.898-7.301 2.1-12.5.2-5.102-1.5-12.5-5-22.102-3.5-9.6-7.6-17.3-12.4-23-2.698-3.3-7.198-7-13.5-11.198l.302.5c-6.102-7.4-14.302-14.2-24.5-20.602-13-8.1-25-15.8-35.9-23.3-10.9-7.4-25.1-19.4-42.6-36 10.097 14.704 16.097 23.204 18.197 25.704m20.801 53.9c-.301 5-.2 10.4.5 16.301.398 3.801 1.5 10.301 3.3 19.5 1.9 10.101 7.3 19 16.2 26.699 14.699 12.801 34.8 20.602 60.398 23.301-13.1-6.5-22.3-11.601-27.5-15.199a162.389 162.389 0 0 0-17-10.301c-6.198-3.199-12.5-9.3-18.898-18.399-6.4-9-10.5-17.4-12.2-25.2-1.201-4.502-2.8-10.102-4.8-16.702z"/><path fill="none" stroke="#000" stroke-linecap="round" stroke-linejoin="round" stroke-width="6" d="M1016.467 887.962c17.898 20.1 42.8 39.8 74.8 59.1 27.7 17.7 45.8 38.1 54.4 61.1 6.6 17.9 7.398 29 2.3 33.302-7.2-5.2-16.602-11.2-28.4-18-13.398-6.5-17.199-17-11.5-31.602 5-8.3 10.602-13 16.7-14.2m12.098-36.102c-7.3-11.2-26.898-24.2-59-39.2-32-15-60.3-31.898-84.898-51 3.898 16.7 9.1 44.8 15.698 84.3 6.602 39.5 19.2 73.102 38.001 100.9 22.899 32.7 50.899 53.8 83.801 63.2 15.699 4.6 30.398 2.8 44.199-5.2m-117.301-121.9c4 24.5 12.301 41.602 25.102 51.301 12.198 8.801 29.698 18.801 52.5 30"/></svg>