<svg xmlns="http://www.w3.org/2000/svg" id="ears" viewBox="0 0 3000 3000"><path id="cl1" fill="#E8A66B" d="M1029.967 898.907c-13.102 9.601-21 23.5-23.802 41.699-4.5 28.7 1.2 55.4 17.102 80.101 8.7 13.7 16.898 24.601 24.398 32.801 29.4 32.399 63.602 49.5 102.5 51.1 5.602.2 10 .2 13.2-.3 4.9-.601 9.2-2 12.8-4.301-1.898-8.5-3.198-13.899-3.698-16.3l-32.5-161.5c-1.7-8.3-4.602-14.8-9-19.601-3.802-.899-12.7-3.5-26.802-7.899-10.898-3.399-20-5.5-27.1-6.5-18.298-2.3-33.998 1.2-47.098 10.7z"/><path id="sd1" fill="#A1734A" d="M1095.967 994.606c1-1.399 3.698-1.5 8-.5-7-4.5-13.2-5.699-18.7-3.6-5.5 2.099-9.9 4.6-13.3 7.399-3.4 2.899-2.2 8.3 3.3 16.2 5.6 7.899 12.1 15.1 19.3 21.8 7.2 6.699 12.4 7.601 15.4 2.8 3.1-4.8 6.199-6.3 9.5-4.8 0-2-.601-3.399-1.9-4-.3-.2-1.6-.5-3.7-1.101-6.699-1.899-11.898-5.699-15.6-11.399-3.7-5.601-5.101-11.8-4.101-18.601.199-1.397.801-2.698 1.801-4.198m-22.9-48c-7.8 4.602-11.5 11.301-11.1 20.102.398 8.8 2.8 19.5 7.3 32.1 6.6-5.899 12.899-9.2 18.899-9.8 6-.601 13.101.399 21.301 2.899-4.4-7-8.5-11.101-12.301-12.101s-7.899-1.5-12.5-1.399c-2.301.101-3.899-.399-4.899-1.399-.9-1-1.4-2.601-1.5-5-.5-12.7 7.5-20.601 23.8-23.7-11.5-5.702-21.202-6.202-29-1.702z"/><path fill="none" stroke="#000" stroke-linecap="round" stroke-linejoin="round" stroke-width="6" d="M1128.967 902.208c-36.4-15.301-64.802-19.301-85.302-11.9-22 6.601-35.3 25.4-39.699 56.5-3.5 26.601 4.5 54.4 24.101 83.3 21.2 30.601 45.2 51.9 71.9 63.801 22.198 10.801 47.198 13.801 74.898 9m-58.398-68.103c-2.2 2.5-4.4 4.601-6.7 6.3-11.4 3.602-24.601-8.199-39.601-35.199-11-23.301-13-40.301-6-50.801 9.601-13.6 23.101-16.398 40.5-8.398m-35.001 54.199c13.4-10.601 24.9-13.801 34.5-9.5 5.2 3.301 9.5 7.399 12.802 12.199"/></svg>