<svg xmlns="http://www.w3.org/2000/svg" id="ears" viewBox="0 0 3000 3000"><path id="cl1" fill="#E8A66B" d="M1040.004 915.014c-12.801 19.101-17.301 39.3-13.5 60.8 2.398 13.301 6.8 26.301 13.398 39 5.801 11.301 13.5 22.7 23.102 34.301 1.1 1.399 7.199 7.801 18.199 19.301 7.399 7.699 12.801 14.699 16.101 20.899 2.7 5.101 6.899 9.399 12.399 12.899 5.199 3.199 11 5.399 17.601 6.5 6.399 1.101 12.6 1 18.5-.101 6.2-1.3 11.399-3.6 15.5-7.1a51.85 51.85 0 0 1 6.1-4.301c1.4-.899 3.5-2.199 6.4-4 3.2-4.899 3.899-10.101 2-15.8-.3-.9-.9-3.5-1.8-7.7l-30.302-155.7c-6.5-2.5-15-6.3-25.5-11.3a85.22 85.22 0 0 0-22.8-7.101c-12.2-2-22.5-1.699-31 .801-9.898 2.804-18.098 9.003-24.398 18.602z"/><path id="sd1" fill="#A0744A" d="M1128.004 1011.916c-3.2.398-4.5-.801-4.102-3.4.5-3-2.1-6.399-7.699-10.1-5.5-3.7-11-4.102-16.399-1.4-5.4 2.701-10 5.4-14 8-4 2.7-4.601 6.101-2 10.3 2.7 4.2 5.7 9.101 9 14.801 3.3 5.699 6.8 10.199 10.399 13.5 3.699 3.399 6.601 5.101 8.899 5.199 2.3.101 4.3-1 6.3-3.199 1.9-2.101 3.4-3.601 4.302-4.301 1-.8 2.3-.399 4.1 1.2 0-3.1-.6-4.8-1.7-5.2-.8-.199-1.898-.3-3.3 0-2.8.5-5.4 0-7.7-1.3-1.898-1.1-3.8-2.899-5.5-5.399-1.199-1.601-2.8-4.399-5-8.5-1-1.801-1.5-3.2-1.699-4.101-.301-1.6.101-2.899 1.301-4 1.199-1.2 2.6-2 4.199-2.5a9.461 9.461 0 0 1 5 .101c1.899.5 4.699 1.5 8.301 2.899 2.398.798 4.798-.1 7.298-2.6m-40.301-61.2c-5 2.7-8.699 7.399-11 14-2.199 6.6-3 11.6-2.301 15.1.7 3.5 3.4 12.601 8 27.301l16.4-12.101-3.601-5.6c-4-8.101-4.801-14.7-2.199-20 2.6-5.301 8.3-8.7 17-10.2 1.6-.3 2.8-.7 3.699-1.3 1-.7 2.399-2.7 4.199-5.801-3-1.101-5-1.899-6-2.3-1-.5-4-1.101-9.1-1.899-4.996-.902-9.996.098-15.097 2.8z"/><path fill="none" stroke="#000" stroke-linecap="round" stroke-linejoin="round" stroke-width="6" d="M1115.004 950.915c-17.602-7.3-29.9-4.3-36.801 9.101-3.301 7.3-4.5 14.101-3.601 20.399 1.101 9.601 3.5 19.399 7.3 29.501 4.9-7.5 11.2-12.102 18.801-13.801 9.601-2.301 18 2.301 25.199 13.801m-43.898 0c4.3 11.3 11.3 22.199 21 32.6 7.6 7.601 14.5 7.601 20.8 0m20.1-128.601c-43.5-25.699-76.3-28.699-98.6-9-20.8 21.899-26.8 50-18.3 84.501 7.6 24.898 21.1 47.6 40.6 68.199 13.5 12.301 22.8 23.301 28 32.801 9 14.898 23.5 21.8 43.601 20.699 14.699-.699 25.5-6.101 32.199-16.399"/></svg>