<svg xmlns="http://www.w3.org/2000/svg" id="ears" viewBox="0 0 3000 3000"><path id="cl1" fill="#E8A76E" d="M1026.491 933.682c.399 12 1.101 25.898 2 41.5.101 4.5 3.5 10.399 10.3 17.699 1.899 2.101 5 5.301 9.301 9.699 3.699 4.102 6.699 7.7 9 11 2.199 3.2 4.199 7.801 5.8 13.602.9 3.3 2.2 8.5 4 15.398 1.7 5.9 3.9 10.5 6.5 14 3.4 4.5 7.9 7.7 13.5 9.7 9.3 3.3 20 9.6 32.2 19 8.899 6.9 13.399 10.3 13.5 10.5 4.899 3.6 9.199 6.2 12.8 7.8 7.601 3.5 15 4 22.3 1.5 6-2.1 10.4-5.5 13-10.3 1.801-3.3-4.398-34.2-18.699-92.9l-22-87c-17.699-6.5-35.601-12.3-53.801-17.6-36.199-10.6-55.398-12.9-57.5-7-2.3 5.902-2.901 20.301-2.201 43.402z"/><path id="sd1" fill="#AF7E53" d="M1053.991 926.982c-2.2 2.3-3.601 5.899-4.2 10.899-.199 1.899-.3 6.399-.3 13.301 0 4.6.5 8.398 1.5 11.3.899 2.899 2.699 6.1 5.3 9.5 3.399 4.5 12.801 15.2 28 32l2.301 6.3c1.699 4.9 2.8 9.2 3.5 13 .699 4.4 5.1 10.3 13 17.601 7.699 7.101 14.699 11.899 21 14.301 5.1 2 9.8 5.6 14.3 10.898 2.3 2.802 4.7 6 7 9.7.8 1 2.2 1.8 4.4 2.5 2.5.8 5 .9 7.5.5 7-1.2 11.6-6.8 13.6-16.8s.8-23.601-3.6-40.7c-3.2-12.399-6.602-22.2-10.2-29.3-3.8-7.7-9.8-15.8-17.8-24.5-12.801-13.8-28.301-25.3-46.301-34.3-20.099-10.2-33.2-12.3-39-6.2z"/><path id="sd2" fill="#876140" d="M1051.791 933.182c0 2.199-.101 4-.5 5.398-1.399 5.4-3.5 11.4-6.101 18l.5 1c.5.7 1.101 1.301 1.9 1.5 2.6.9 6.6-.5 11.8-4.3 7.3-5.3 12.5-8.2 15.5-8.899 4.9-1.101 11.5.199 20 4 10.601 4.699 19.7 11.601 27.3 20.601 8.9 10.6 13.302 21.7 13.302 33.3-2.802 2.2-5.602 4.7-8.5 7.601-5.7 5.801-8.602 10.5-8.802 14-.1 2 .602 3.101 2.2 3.5 1.101.199 3.3.101 6.4-.5 8.699-1.601 15.1-1.899 19.3-.899 6.8 1.7 11.5 3.7 14 5.899 2.3 1.899 4.899 5.801 7.7 11.601 2.3 4.8 3.3 2.1 3.3-8.101l-.8-16.699c-3-8-6.602-16.301-10.801-25.102-8.399-17.6-15.601-28.398-21.5-32.398-17.5-11.801-28.699-19.102-33.699-22-16.801-9.9-29.301-14.801-37.7-14.9-8.3 0-13 1-14.101 3.2-.597.898-.698 2.297-.698 4.198z"/><path id="cl2" fill="#F3E476" d="M1091.791 1086.382c-1.101-6.399.101-12.699 3.5-18.899 3.399-6 7-8.8 11-8.3.101 2.3.899 4 2.5 5.198 1.399 1 3 1.4 5 1.302 1.899-.2 3.5-.9 4.899-2 1.4-1.302 2.101-2.9 2-4.7-.1-2.4-.8-5-2.1-7.5-1.5-2.9-3.4-5-5.601-6.4-6.199-3.5-13.199-.199-21.199 9.9-8.5 10.8-12.5 22-12.301 33.7.101 4.898 1.101 9 2.899 12.3s4.101 5.3 7 5.899c6.101 1.301 11.3.601 15.5-2.199 5-3.301 8.4-9.4 10.2-18.2-.7-2.3-1.5-4.3-2.4-6.1-1.8-3.5-3.398-3.9-4.699-1.301-2 4.101-4.301 7.301-7.101 9.699-1.399 1.2-2.5 2-3.5 2.301-.7.5-1.5.601-2.399.5-1.597-.5-2.698-2.2-3.198-5.2m-7.399-52c.2-5.399-2.2-9.101-7.2-11.301-5.8-2.5-11.898-1.5-18.398 2.801-6 4.101-10.7 9.801-14 17.301-3.102 7.1-4.102 14-3 20.899 1.1 6.899 3.898 11.801 8.6 14.699 3.601 2.2 7.4 3.2 11.5 3.101 3.7-.101 7.101-1.101 10.2-3 3-1.801 5.1-4 6.3-6.601 1.2-2.699 1.101-5.3-.3-7.6-.5-2-1.801-3.5-3.7-4.5-3.899-1.9-9.399-.301-16.5 4.898-.3-.3-.6-.698-.899-1.1-2.601-3.5-2.101-9 1.5-16.3 2.399-4.9 5-8.5 7.899-10.801 3.4-2.699 5.9-2 7.4 2.199 1.398 3.9 3.3 5.4 5.6 4.7 1.2-.4 2.2-1.1 3.101-2.3 1.197-1.995 1.796-4.395 1.897-7.095m-22.401 33a6.951 6.951 0 0 1-4-2l4 2z"/><path fill="none" stroke="#000" stroke-linecap="round" stroke-linejoin="round" stroke-width="6" d="M1048.991 957.081c1.5-18 3.899-28.6 7.101-31.699 19.1.301 38.6 6.5 58.5 18.5.1 0 .1.101.199.101l.399.2c.4.199.801.5 1.101.699 20.101 12.899 35.601 32.899 46.5 60l1.399 4.199c8 23.801 10.301 41.102 6.801 52-2.601 9.4-8.7 14.9-18.2 16.4m-11.5-163.4c-27.101-8.699-55.899-16.398-86.199-23.1-12.101-3.5-20.7-4-26-1.5v13.399c1.1 15.899 1.199 36 .3 60.399-2.8 15.5 1.601 26.5 13 33 7.101 7.101 13.101 16.3 18 27.3m-.401 42.803c-2.5-.601-4.101-3-4.601-7.199.5-8.4 4.2-15.601 11.101-21.5 3.3-4.101 6.3-2.4 9 5.1l2.601 2c4.199.2 5.899-5.1 5.1-16.1-6.3-8.4-14.699-9.2-25.1-2.301-13.9 11.101-19.101 24.601-15.801 40.801 3.301 10.3 11.101 15.199 23.101 14.5 13-3.601 16.1-11.4 9.2-23.301-5.5-.899-11.102 1.199-16.802 6.199m8.701-26.899c2.3 5.3 3.899 9.8 4.601 13.6 2.899 5.601 7.5 10.2 13.899 14 1.699-3.3 3.8-6.6 6.3-9.899 4.601-5.801 9.301-9.699 14.2-11.5 6.5-.801 11.101 2.301 14 9.399 1.3 4.7 1.3 7.9 0 9.5-3.2 2.8-6.2 3.8-8.899 2.8-2.7-1-4.101-3.1-4.2-6.3-4.899-.399-9.601 5-14.101 16.101-2.5 15.899.601 20.199 9.301 12.801l9.5-10.4-13.801-6m41 28.098c-16.699-13.199-25.8-20.601-27.3-22.101l4.199 8.601c-2.6 13-8.6 20-18 20.899-9.899.7-15.6-4-17.199-14-1.101-9.8.699-19.1 5.101-27.899m32.3-35.5c5.2-21.101 20.8-28 46.7-20.699m14.6 88.399c-12.398 10.899-25.3 12-38.6 3.3"/></svg>