<svg xmlns="http://www.w3.org/2000/svg" id="ears" viewBox="0 0 3000 3000"><path id="cl1" fill="#E9A76E" d="M1153.487 984.865c-1.8-9.601-2.699-14.801-2.699-15.801-.101-1.6-.199-2.899-.399-3.899l-10-50.3c-7-3.399-15.101-6.5-24.2-9.301-5.8-1.699-14.2-3.899-25.1-6.5-22-5.1-40.2-9.199-54.602-12.199-19.898-4.101-38.3-7.399-55-9.801-2.5-.5-5.698-1.199-9.6-2.1-3.9-.801-6.1-.301-6.6 1.6-.5 1.801.698 3.801 3.5 5.801 2.8 2.101 5.3 4.101 7.398 5.899 2.8 2.899 7 7.101 12.7 12.8 5.7 5.601 9.9 9.9 12.7 12.801 7.398 7.699 12.898 14.899 16.5 21.601 4.5 8.399 6.699 17.3 6.699 26.5 0 4.699.801 9 2.399 12.8 1.8 4.2 4.4 7.7 8 10.3 9.101 6.7 16 14.101 20.8 22.301 5.102 8.699 8 18.5 8.7 29.399.3 4.601 1.7 8.601 4.3 12 2.802 3.7 6.4 6.101 11 7.3 6.602 1.7 13.302 4.7 20 9 4.102 2.602 9.9 6.9 17.602 13 5 3.9 8.398 6.5 10.3 7.802 4 2.8 7.7 5 11.3 6.5 6.5 2.8 13 3.698 19.301 2.698 6.399-1 11.899-3.8 16.601-8.398-.5-1.2-1.3-3.602-2.3-7.301-.2-.601-.7-3.5-1.5-8.5-.5-3.399-1.4-8.801-2.7-16-1.9 5-3.4 8.301-4.601 10-1.101 2.101-2 3.601-2.801 4.399-3 3.101-5.699 5.101-8.199 5.9-3.199 1-6.5.5-9.899-1.801-6.3-14.899-16.601-25.601-31-31.899-15.7-6.9-24.4-17.7-26.101-32.5-1-8.8-6.399-16.5-16-23.101-11.5-7.899-17.399-18.399-17.801-31.699-.199-7.5-1.898-14.7-5-21.7-2.6-6-6.5-12.3-11.699-18.9l-13.601-17.199c.7-1 1.601-1.399 2.601-1.101.601.101 1.5.5 2.699 1 12.602 4.5 25.2 9.7 37.801 15.4 18.801 8.699 33.301 16.3 43.399 23 14.9 9.898 24.801 18.6 29.801 26.1s8.101 12.101 9.199 13.9c1.002 1.8 3.002 5.199 6.102 10.199z"/><path id="sd1" fill="#AF7E53" d="M1040.286 924.865a40.436 40.436 0 0 1 6 11.899c1.301 3.899 2.101 8.3 2.399 13 .5 8.5 2.101 15.601 4.8 21.399 3.2 6.9 8.102 12.4 14.802 16.601 4.698 3 8.398 6.601 11.198 11 2.802 4.5 4.5 9.601 5 15.2.4 4.699 2 9 4.802 12.899 2.198 3.199 5.5 6.5 9.698 9.8 2.602 2 5.602 4 9.102 6 2.3 1.301 5.5 3 9.6 5.101 11.601 5.7 18.7 14.601 21.3 26.601.102.3.4.6.9 1 .3.199 1 .5 2 .8-.3-1.399-.1-2.1.6-2.199.7 0 2.4-.301 5-.899 2.602-.601 5-1.601 7.301-3.101 2.301-1.399 4.399-4.801 6.5-10.199 2.101-5.301 2.601-12.4 1.5-21.301-2.101-12.101-7.801-18.7-17.101-19.801-9.3-1.1-16.1-1.399-20.6-1-4.5.5-9.5 2.7-15.102 6.9 1.802-2.601 4.7-8.101 8.7-16.601 8.9-7.7 13.5-12.5 13.602-14.601.1-1.5-.5-3.5-1.602-6-3.398-7.8-9.1-15.899-17-24.3-22-23.101-45-41.3-69-54.601-11-6.601-20.3-11.301-27.8-14.199 6.702 8.102 14.502 18.302 23.401 30.602z"/><path id="sd2" fill="#876140" d="M1047.786 912.265c.899.601 2.399 1.399 4.301 2.5 22.8 15 43.5 32.5 62 52.3 6.199 6.602 11.199 14 14.898 22.102.802 1.699 1.2 3.3 1.102 4.8-.102 1.5-1.9 4.399-5.4 8.8 5.8-1.6 10.7-2.3 14.5-2.3 3.9.1 9.7.399 17.5 1-6.7-18.9-15.1-33.5-25.3-43.9-10.101-10.3-22.5-19.699-37.101-28.3-14.5-8.5-39-19.3-73.399-32.3 16.399 9.199 25.3 14.199 26.899 15.298m100.801 90.1c-6.4-.699-13.301.101-20.5 2.399-7.2 2.299-12.7 10-16.4 23.101 5.8-4.5 11.5-7.101 17.3-7.601 3.301-.3 8.4-.101 15.5.801 2.801.3 5.301 1.199 7.602 2.699 2.5 1.601 4.5 3.899 6 6.801 1.6 2.899 2.6 6.5 3.199 10.8.5 4.2.801 10.7.801 19.5 4.1-12.6 5.6-22.8 4.398-30.5-1.199-7.8-2.398-13.199-3.699-16.399-1.301-3.101-2.301-5.601-3.199-7.5-.902-2-4.602-3.3-11.002-4.101z"/><path fill="none" stroke="#000" stroke-linecap="round" stroke-linejoin="round" stroke-width="6" d="M1138.087 912.365c-48.102-16.7-107.301-29.399-177.7-38.2 27.5 24.601 46.7 45.399 57.5 62.301 3.399 7.5 5.1 16.199 4.899 26.3-.199 10 5.899 19.7 18.199 29.101 14 12.399 20.9 25.5 20.601 39.3-.3 13.7 6.399 22.7 19.899 27 13.5 4.2 26.4 12.301 38.801 24.2 21.899 17.3 39.801 19.8 53.601 7.399m-63.8-64.501c9.3-22.3 25.898-29.399 50-21.3-.602-1.5-1.2-2.9-1.801-4.301-4.601-10-9.399-19.399-14.5-28.199-11.301-14.5-22.801-25.601-34.399-33.2-18.2-13-48.2-27.899-90-44.7m123.399 179.8c14.5 2 22.601-7.601 24.301-28.801-.5-16-2.9-29.5-7-40.5"/></svg>