<svg xmlns="http://www.w3.org/2000/svg" id="ears" viewBox="0 0 3000 3000"><path id="cl1" fill="#E8A66B" d="M1065.307 901.344c-8.1 5-14.899 13.398-20.6 25.198-4.4 9.102-6.601 18.802-6.801 28.9-.101 9.2 1.5 19 4.801 29.4 8.5 26.5 25.8 51.898 51.8 76.199 1.5 1.399 3.5 3.601 6 6.699 2.2 2.801 3.899 4.602 5.101 5.602 3.8 3 8.199 1.898 13.3-3.102 1.899-1.898 4.899-3.5 8.899-4.898 4.301-1.4 7.2-1.5 8.5-.2 1.7 1.7 1 3.6-2.1 5.8-3.801 2.2-6.101 3.7-6.801 4.5-1.699 2.1-2.3 4.3-1.601 6.8.601 2.5 2.2 4.7 5 6.5 5.301 3.7 12.5 5 21.7 4.102 9.899-1 16.8-4.2 20.899-9.5l-15-74.2c-2-10.3-5.5-26.4-10.3-48.4-4.9-22-8.301-38.1-10.4-48.398-6.5-4.602-13-8.301-19.8-10.9-6.5-2.5-13.801-4.3-21.899-5.5-11.897-1.901-22.198-.002-30.698 5.398z"/><path id="sd1" fill="#9F7249" d="M1100.406 976.344c-2.101.1-3.601-.302-4.5-1.2-.899-.9-1.399-2.4-1.399-4.601-.2-5.601 1.8-10.5 6.101-14.801 4.199-4.199 9.199-6.5 15.199-7.1-5.301-3.7-11-4.1-17.301-1.3-5.8 2.6-9.899 6.8-12.1 12.5-1.801 4.7-2.301 9.7-1.601 15.1.5 3.8 1.899 8.9 4.101 15.3 4.199-3.398 8.3-5.8 12.3-7.199 4.301-1.5 8.7-1.899 13.301-1.301-1.601-2.3-3.7-3.8-6.301-4.8a35.455 35.455 0 0 0-7.8-.598zm21 51.701c.399-.399 1.7-1.5 3.899-3.301 1.2-1 1.301-1.5.5-1.6-4.199-.4-7.8-2.2-10.8-5.5-2.101-2.3-4.101-5.8-6-10.5-1.101-2.7-2.101-6.602-3.101-11.8-1-5.4-1.399-9.4-1.3-12.2-4 0-8.7 2.5-14.101 7.6-.7.7-.801 2.602-.301 5.801.4 2.801 1 4.899 1.7 6.301 3.899 8.199 6 12.6 6.3 13.199 2.7 4.899 5.601 8.601 8.9 11.301 2.1 1.699 4.5 2.8 7.199 3.1 2.906.298 5.307-.502 7.105-2.401z"/><path id="cl2" fill="#FAE979" d="M1138.207 1065.844c-3.301-.7-7.101-.4-11.5.8-4 1.1-6.9 2.6-8.7 4.3-6.899 6.602-12.3 14-16.3 22.302-4.2 8.8-6.301 17.698-6.301 26.698 0 6 2.899 10.802 8.801 14.302 5.699 3.5 11.6 4.3 17.5 2.398 6-1.898 11.6-7 17-15.398 5.399-8.5 7.699-15.7 6.699-21.802-.5-3.698-1.5-5.5-3-5.6-1.301-.2-2.399-.3-3.301-.3-1.699 0-3 .5-3.8 1.3-.7 3.8-2 7.8-4 11.8-1.2 2.4-3.101 6.102-5.8 11-1.102 2.2-2.4 3.7-4 4.5-2.2.7-4 1.3-5.5 1.8-2.9-.698-4.7-1.6-5.2-2.5-.4-.6-.7-2.698-.9-6.3-.199-3.1.101-6.398 1-9.898.7-2.602 1.801-5.802 3.4-9.4 3.601-9.002 11.601-19.002 23.902-30.002z"/><path fill="none" stroke="#000" stroke-linecap="round" stroke-linejoin="round" stroke-width="6" d="M1118.807 947.045c-10.399-3.5-19.199-3.101-26.399 1.199-9.601 5.9-11.399 20.301-5.301 43.2.2.8.4 1.5.601 2.3 6.399-9.3 13.5-13.1 21.199-11.5.2.102.4.102.602.2 7.1 2.8 12.1 6.7 15.1 11.601m14.999-83c-26-15.399-47.601-20.699-64.7-16-17.899 5.199-30.101 19.399-36.8 42.5-3.601 18.301-1.5 38 6.1 59.301 7.2 16.8 21.801 36.699 43.7 59.8 6 6.399 13.601 13.1 22.8 19.899 5.4-6.699 11.801-11.199 19.301-13.5 6.3.5 9.899 1.899 10.8 4.101-8.6 4-15.8 10.899-21.399 21-8 16.7-10.699 27.399-8.101 32.1 3.5 3.4 7.5 2.602 12.2-2.5l12.601-26.3h.199l-13.8-7m-34.901-90.702c6.1 22.102 13.899 34.2 23.3 36.5 4.601 1.2 9.301.5 14.101-2.3m-30.302 87.9c-.301 13.1 4.5 20.6 14.699 22.5 15 1.1 25.801-5.102 32.5-18.802 3.801-7 5.5-14.898 5.199-23.5-.3-.5-.6-.898-.899-1.3-1-1.3-2.101-2.2-3.301-2.8-2-1-4.199-1.2-6.699-.6m-25.598-14.998c-9 10.698-14.301 23.198-15.801 37.398m48.099-21.898c4.399 1.8 9.899 2.198 16.5 1.398 5-1.5 9.801-4 14.301-7.6"/></svg>