<svg xmlns="http://www.w3.org/2000/svg" id="ears" viewBox="0 0 3000 3000"><path id="cl1" fill="#E8A66B" d="M1102.668 902.055c-16-3.5-29-2.3-39.102 3.8-10.3 6.2-18.1 17.7-23.5 34.601-4.898 15.601-3.7 32.601 3.7 50.899 8.5 21.101 20.7 40 36.6 56.8 14.5 15.2 32.5 28.802 53.802 40.9 4.6 2.6 9.698 4.1 15.3 4.5 5.1.3 9.398 0 12.8-1.101 4.2-1.399 7.7-3.899 10.3-7.699l-32.898-165.7c-12.304-8.599-24.603-14.298-37.002-17z"/><path id="sd1" fill="#9F7249" d="M1093.968 948.855c-6.602 1.8-10.9 5.5-13 11-2 5.5-2.8 10.5-2.4 14.8.4 4.4 3.3 11.9 8.8 22.5 7.7-5.198 12.602-8.1 14.7-8.5 2.2-.5 7.2-.398 15.2.302-3.1-4.602-5.9-7.4-8.6-8.5a18.98 18.98 0 0 0-8.602-1.4c-2.1.1-3.6-.3-4.5-1.2-.898-.899-1.398-2.399-1.398-4.6-.2-5.7 1.3-10.3 4.5-14 3.198-3.7 8.5-5.8 15.8-6.5-7-4.402-13.8-5.702-20.5-3.902zm12.5 43c-3.7-.5-6.9-.2-9.602.9-2.698 1.199-5.1 2.899-7.3 5.399-2.2 2.399-1.8 5.899 1 10.3 2.8 4.399 5.8 8.5 8.8 12.301 3.102 3.699 6.7 7.5 11 11.3 4.2 3.9 7.5 4.8 9.9 2.8s3.9-3.199 4.5-3.5c.6-.3 1.7-1.1 3.3-2.3.102-1.2-.199-2.1-.8-2.8s-1.5-1.102-2.5-1.2c-4.3-.4-7.8-2.1-10.5-5.2-1.9-2.1-3.8-5.5-5.7-10.1-1.999-4.7-2.598-10.6-2.098-17.9z"/><path id="cl2" fill="#3E7CCC" d="M1140.668 1056.155c-1.802 0-3 .602-3.602 1.802-1.3 2.8-1.1 6.698.8 11.6.5 1.4 1.602 2 3.102 1.9.8-.102 2.1-.2 3.8-.4l2.2-.1c3.8-.2 6-.602 6.6-1.2.601-.601.8-2.5.5-5.8-.3-3.9-1-6.302-2-7.2-1-1-3.3-1.2-6.7-.601l-4.7-.001z"/><path fill="#39A8E5" d="M1153.24 1054.023l-7.573 8.81 9.25 7.417z"/><path fill="#061BB2" d="M1136.238 1057l9.429 5.833-6.917 8.635z"/><path fill="none" stroke="#000" stroke-linecap="round" stroke-linejoin="round" stroke-width="6" d="M1137.968 915.655c-29.102-16.198-52.3-20.698-69.3-13.5-17.102 7.9-27.802 24.302-31.9 49.2 0 .7-.1 1.3-.1 2-.7 20.9 4.898 41.4 17.1 61.7 13 20 30.3 39 51.9 57 30.5 23.899 52.698 29.3 66.6 16.1m-47.1-58.398c-6.102 6.699-12.5 7.1-19 1.3-9.7-10.7-16.302-20.7-19.7-30-.2-.7-.5-1.4-.7-2-.2-.5-.4-1-.5-1.5-8.7-25.9-6.1-42.4 7.8-49.7 8-2.399 15.2-1.7 21.5 2.2m-28.1 50.998c7.398-8.4 15.2-12.4 23.398-11.8 5 .399 10.102 4.199 15.302 11.6m9.698 54.5l1.602 18.101 19.6-1.399-1.9-18.101-19.302 1.399z"/></svg>