<svg xmlns="http://www.w3.org/2000/svg" id="tail" viewBox="0 0 3000 3000"><path id="cl1" fill="red" d="M742.3 2221l219-51-12 78s38 18.7 100.7 24 162.7 10.7 264-38.7 152-108.7 160.7-118.7 38-54 40-62 22-49.3 25.3-87.3c3.3-38 52-135.3 52-136.7s28.7-31.3 42 3.3c13.3 34.7-5.3 110-12.7 142.7s-33.3 124.7-78.7 171.3c-45.3 46.7-91.3 91.3-152 122s-159.3 47.3-162.7 48-103.3 6.7-161.3 0-123.3-22-123.3-22l-20 78-181-150.9z"/><path id="sd1" fill="#C00000" d="M753.8 2225l176.5 108.5-8 38.5-180-149.3 4-2 7.5 4.3zm878-391.5s-2 19.3-4.7 39.9c-2.7 20.6-23.4 114.3-41.4 160.8-18 46.5-54.1 109-94.1 144.2-40.1 35.2-95.5 67.8-150.2 91.7-54.8 23.9-134.2 31.2-204.3 37.2-70.1 6-194.6-22.2-194.6-22.2l-1.8 7.2s53.3 13.6 80.6 17.7c27.3 4.1 99.4 12.6 130.1 9s75.8-2.4 106.6-9.6c0 0 75.1-14.6 101.1-25.7s77.3-39.3 106.5-64.9 82.8-77.6 90.1-87.9 36.5-61.4 46.2-90.3c9.6-28.9 27.3-100.6 29-109.4 1.8-8.8 12-68.9 6.2-85.2-5.8-15.8-5.3-12.5-5.3-12.5z"/><path fill="none" stroke="#000" stroke-miterlimit="10" stroke-width="6" d="M742.3 2221l219-51-12 78s38 18.7 100.7 24 162.7 10.7 264-38.7 152-108.7 160.7-118.7c8.7-10 38-54 40-62s22-49.3 25.3-87.3 52-135.3 52-136.7 28.7-31.3 42 3.3-5.3 110-12.7 142.7-33.3 124.7-78.7 171.3-91.3 91.3-152 122-159.3 47.3-162.7 48-103.3 6.7-161.3 0-123.3-22-123.3-22l-20 78-181-150.9z"/></svg>