<svg xmlns="http://www.w3.org/2000/svg" id="tail" viewBox="0 0 3000 3000"><path id="cl1" fill="red" d="M812.83 2151.356c-4.2-2.2-7.8 0-11.5 1.5-5.101 2.5-10.7 3.8-15.5 6.7-11 6.5-15.601 3.2-18.3-9.2-7-32.8-13.4-65.8-21.101-98.5-4.899-20.7-5.3-42-9-62.8-.399-3.8-1.5-7.7.2-12.8 52.1 41.6 103.4 82.6 154.6 123.5-1 3.8-3.899 4.399-6.1 5.6-11.2 6.5-22.6 12.8-33.8 19.3-6.4 3.8-6.9 5.601-2.601 11.8 11.101 16.601 23.5 32.301 36.801 47.2 30.1 33.9 64 63.101 104.199 84.5 26.301 14 54 24.4 83.9 27.4 33.8 3.5 63-6.7 88-29.601 14.9-13.699 26.4-29.899 36.7-47.1 15.7-26.4 27.8-54.601 40.6-82.301 6.3-13.6 12.8-27.1 19.4-40.5 15-30.5 37.8-53.699 66.8-71 31-18.6 64.8-29.199 100.6-33.6 13.2-1.6 25.4.4 33 13.2.5.8 1 1.6 1.4 2.399.4.5.6 1.101.5 1.7 3.8 26.2-8.3 50-30 59.5-8.9 3.9-18.6 5.8-27.3 2.2-25.7-10.9-44 1.6-60.5 18.4-16.101 16.5-28.9 35.699-41.4 55-26.399 40.8-49.399 83.899-79.7 122.1-36.1 45.4-82.6 69.5-141.5 70.2-63.399.7-116-23-160.5-66.9-33.5-33.1-65.199-67.8-95.699-103.7-3.899-4.796-7.199-10.197-12.199-14.197z"/><path id="sd1" fill="#C00000" d="M812.83 2151.356c4.6 1.1 6.899 5 9.7 8.3 13.6 16 27.399 31.7 41.5 47.2 17 18.8 34.6 36.9 52.8 54.6 37.7 36.801 82 61.601 134.8 68.4 49.5 6.3 95.7-3.3 135.7-34.5 17.399-13.5 31.3-30.7 44-48.8 18.8-26.7 35.3-54.9 52.6-82.5 15.4-24.601 30.7-49.101 49.6-71.2 8.301-9.7 17.7-18.1 28.5-24.8 11.4-7.101 23.5-9.4 36.301-4.3 23.5 9.399 44.8-3 54.699-23.2 5-10.101 6.5-20.9 8.5-31.7 7.4 12.4 5.801 25.6 3.2 38.8-1.2 5.9-3.6 11.4-6.6 16.7-11 19.2-27 25.8-48.101 18.8-15.5-5.1-29.5-2.7-42.8 6-10.7 7-19.6 15.9-27.9 25.601-17.399 20.3-31.6 42.8-45.8 65.399-16.6 26.5-32.5 53.5-50.1 79.4-9.4 13.8-19.101 27.3-30.7 39.3-38.8 40.2-86.8 55.6-141.4 51.2-52.899-4.3-98-27.2-136.199-62.9-43.5-40.8-83-85.5-120.2-132.2-.8-1.199-1.4-2.5-2.1-3.6zm-75.601-152.5c.801 30.9 1.7 61.9 2.601 92.8.8 27.301 1.6 54.601 2.6 81.801.1 3.699-.5 7.8 2.5 11.8 19.2-10.9 38.3-20.9 56.4-32.5-7 .7-13.3 3.9-20 5.9-4.4 1.3-7.101.1-7.8-4.7-.2-1.3-.5-2.601-.801-3.9-9.8-46.399-19.6-92.8-29.5-139.2-1.6-7.399-2.399-15.1-5.699-22-.101 3.4-.4 6.699-.301 9.999z"/><path fill="none" stroke="#010101" stroke-miterlimit="10" stroke-width="6" d="M736.729 1976.156s.5 206.3 7.2 209.2c6.601 2.9 51.2-29.3 51.2-29.3s9.3-13.101 22.1 2.8c12.801 15.8 97.301 115.2 134.9 143.6 37.7 28.4 108.3 66.5 195 38.4 86.7-28 100.2-94.3 125.5-128.7 22.5-30.6 37.8-78.399 84.5-116.5 0 0 21.6-19 45.9-14.5 24.3 4.5 51.399 18.4 62.199-36.7 9.5-48.199-26.199-55-40.1-52.899 0 0-88.9 11-138.8 65.2-49.9 54.199-53.101 102.8-72.601 135.5-20.199 33.699-52.3 118.6-153.399 101.3-101.2-17.3-163.4-100.8-178.801-115.601-15.199-14.6-31.8-41.5-31.8-41.5s-8.899-5.8 9.101-15.6c20.8-11.3 33.5-21.2 33.5-21.2l-155.599-123.5z"/></svg>