<svg xmlns="http://www.w3.org/2000/svg" id="tail" viewBox="0 0 3000 3000"><path id="cl1" fill="#C00000" d="M698.318 2185.795c11.3-38.101 28.2-73.801 48.899-107.601 9.301-15.3 19-30.399 30.801-44 5.699-6.6 11.8-12.699 18.399-18.199 18.8-15.801 48-11.2 64.3 9.699 6.101 12.2 9.9 25 7.801 38.7-.801 4.9.899 6.2 4.6 7.2 3.2-.4 5.3-2.5 7.4-4.7 21.6-22.2 46.899-39.2 74.699-52.5 19.801-9.4 41-14.1 62.601-15.7 34.399-2.6 68.5-.199 101.8 9.4 7.4 2.1 14.5 5 21.2 8.7 18.6 10.3 29.199 24.899 25.6 47.199-5.6 28.2-18 53.601-30.4 79.2-18.6 38.3-44.5 70.8-74.699 100.4-8 7.8-16.2 15.6-19.9 27.1-1.9 6-3.4 11.4-1 17.3 2.5 11.7 8.8 21.301 16.2 30.5 24 30.301 55.399 50.7 89.6 67 38.1 18.101 78.5 26.5 120.5 29.101 23.7 1.5 47.3.601 70.7-2.101 35.1-4.1 66.8-17.5 95.3-38.3 28.1-20.399 54.3-42.899 75.5-70.8 19.4-25.5 25.1-53.5 19.1-84.8-6.1-31.8-20.3-59.5-39.199-85.4-16.7-23-27.601-48.8-31-77.1-3-25.601-1.5-51.2 5.3-76.3 1.9-7.101 4.4-14 7.8-20.5.9-1.7 1.601-4.101 3.9-4 2.9.1 3.5 2.699 4.1 5 .801 2.899 1.4 5.8 1.9 8.8 11.7 64 31.1 125.3 64.4 181.6 12.8 21.7 19.1 45.3 18.199 70.601-.5 13.6-.199 27.3-4.199 40.6-8.801 37.6-32.7 66.1-58.9 92-42.8 42.3-94.5 69.6-153.8 81.1-26.601 5.101-53.7 4-80.5 2.601-55-2.899-107.601-16.899-157.7-39.5-40.9-18.399-74.2-46.601-101.2-82.3-7.5-10.601-12.399-21.9-10.1-35.4 1.899-10.899 7.3-20 14.399-28 4.4-4.899 9.4-9.399 14.5-13.699 44.9-38.601 76.4-85.7 91.801-143.101.3-1.3.899-2.5 1.399-3.7 2.5-8.899 3.8-18 4.7-27.1 1.1-11-3.5-18.4-14.2-23-18.6-8-38.3-6.7-58-7.7-58.5-2.8-106.3 21.4-150.3 56.101-3.2 2.5-9.9 5.199-4.8 11.8 15.8 5.1 26 15.7 30.6 31.7 7.9 29.3-15.6 51.1-38.3 59.1-20.1 7.1-41.1 8.9-62.2 10.3-39.9 2.7-79.4-.3-118.6-7.6-5.202-.802-11.801-1.002-9.001-9.701z"/><path id="sd1" fill="#890000" d="M1006.518 2315.994c6.1 4.2 10.699 10 15.699 15.301 35.801 38 79.5 63.1 128.7 79.3 55.6 18.3 112.8 25.899 171.2 23.3 30-1.3 58.3-10.1 85.699-21.8 62.101-26.601 107.301-71.7 140.7-129.5 3.8-6.601 6.8-13.7 10.101-20.601-1.101 14.801-4.801 29.101-12.9 41.5-45.4 69.101-108.9 112.7-188.7 133.2-20.8 5.3-42.2 5.8-63.5 6-23.6.3-47.3 0-70.6-4.6-43.9-8.601-86.8-20.601-127-40.9-34.2-17.2-62.7-41.3-85-72.5-1.7-2.6-3.8-5.3-4.399-8.7zm-104.901-221.5c13.5-9.699 27-19.399 41.4-27.899 12.3-7.2 24.8-14.5 38.6-18.601 31.9-9.5 64.6-12 97.7-9.699 8 .5 15.8 2.199 23.399 4.899 14.601 5.301 18.801 11.301 18.101 26.9-.301 7.3-1.4 14.5-2.2 21.8 4-7.5 5-15.8 6.5-24 3.4-18-3.7-28.8-21.8-32.8-27.2-6-54.7-7.1-82.4-4.2-35.3 3.601-66.6 17.801-96.2 36.301-11.899 7.399-22.899 16-32.5 26.3-5.199 5.6-4.6 6.899 3.801 8.6-.101-3.901 2.899-5.701 5.599-7.601zm-197.299 103c8.399 1.9 16.899 3.801 25.5 4.9 36.7 4.5 73.5 7 110.5 3.4 19.899-1.9 39.7-4.101 58.7-10.801 25.899-9.199 37.8-34.899 27.6-61.1-.3 8-.9 15.9-4.5 23.3-7.4 15.2-19.5 24.9-35 30.9-30 11.7-61.5 13.5-93.2 13.1-8.6-.1-17.2-1-25.9-1-19.699-.1-39.1-2.7-58.399-6.1-5.101-.9-9.9-2.2-11.2-8.2-2.702 9.101-2.601 9.701 5.899 11.601zm355.899 51.801c1.301-1 2.5-2.2 3.7-3.4 44.6-43.899 77.3-95.3 97.2-154.699 2.899-8.801 5.6-17.801 5.3-27.2-5.5 16-10.9 32.1-18 47.5-16.3 35.399-33.5 70.3-60.4 99.2-9.3 10-18.8 19.699-28.3 29.5-8.1 8.399-15.5 17.399-20.4 28.1-3.1 6.8-3.6 13.4 1.101 19.8.799-15.902 7.499-28.801 19.799-38.801zm-188.1-185.201c4.4-15.2-1.5-27.4-11.3-38.4 2.1 12.8 4.2 25.5 4 38.601-.101 7.1.5 7.1 8.3 7.199-1.599-2.3-1.799-4.6-1-7.4z"/><path fill="none" stroke="#000" stroke-miterlimit="10" stroke-width="6" d="M1544.818 2150.795c-33.3-56.4-52.7-117.601-64.4-181.601-.5-2.899-1.2-5.899-1.899-8.8-.601-2.2-1.2-4.9-4.101-5-2.3-.1-3 2.3-3.899 4-3.5 6.5-5.9 13.4-7.801 20.5-6.699 25.1-8.3 50.7-5.3 76.3 3.3 28.2 14.2 54.101 31 77.101 18.9 25.899 33 53.6 39.2 85.399 6 31.3.399 59.2-19.101 84.8-21.199 27.9-47.399 50.4-75.5 70.801-28.6 20.699-60.199 34.199-95.3 38.3-23.5 2.7-47 3.601-70.7 2.101-42-2.601-82.5-11-120.5-29.101-34.3-16.3-65.699-36.7-89.6-67-7.4-9.3-15.8-19.601-16.2-30.5.9-15.8 7.5-28.7 19.801-38.7 1.3-1 2.5-2.199 3.699-3.399 44.601-43.9 77.301-95.3 97.2-154.7 2.9-8.8 4.6-17.4 5.3-27.2.601-21.899-7-36.899-25.6-47.2-6.7-3.699-13.8-6.6-21.2-8.699-33.3-9.7-67.399-12-101.8-9.4-21.6 1.6-42.8 6.3-62.6 15.7-27.801 13.3-53.101 30.3-74.7 52.5-2.101 2.2-4.2 4.3-7.4 4.7-1.6-2.301-1.8-4.601-1-7.4 4.4-15.2-1.5-27.4-11.3-38.4-16.3-21-45.6-25.5-64.3-9.699-6.601 5.5-12.7 11.6-18.4 18.199-11.8 13.601-21.5 28.801-30.8 44-20.7 33.801-37.6 69.4-48.9 107.601-2.6 9.2-2.5 9.8 6 11.7 8.4 1.899 16.9 3.8 25.5 4.899 36.7 4.5 73.5 7 110.5 3.399 19.9-1.899 39.7-4 58.7-10.8 25.9-9.2 37.8-34.899 27.6-61.1-4.5-16-14.699-26.601-30.6-31.7-.1-4 2.9-5.8 5.6-7.7 13.5-9.699 27-19.399 41.4-27.899 12.3-7.2 24.8-14.5 38.6-18.601 31.9-9.5 64.601-12 97.7-9.699 8 .5 15.8 2.199 23.4 4.899 14.6 5.301 18.8 11.301 18.1 26.9-.3 7.3-1.4 14.5-2.2 21.8-.5 1.2-1 2.5-1.399 3.7-15.5 57.4-47 104.5-91.801 143.1-5 4.301-10 8.801-14.5 13.7-7.199 8-12.6 17.101-14.399 28-2.3 13.5.2 23.899 7.7 34.5 2.5 4.101 5.1 7 7 9.601 22.3 31.3 50.699 55.3 85 72.5 40.199 20.199 83.1 32.199 127 40.899 23.3 4.601 47 4.899 70.6 4.601 21.3-.301 42.7-.7 63.5-6 79.7-20.5 148.7-60.801 188.7-133.2 7.8-14.101 13.3-35.8 13.8-41 2.8-13.601 2.8-27.4 3.3-41.101.399-25.302-5.901-48.802-18.7-70.601z"/></svg>