<svg xmlns="http://www.w3.org/2000/svg" id="tail" viewBox="0 0 3000 3000"><path id="cl1" fill="#66300C" d="M867.557 2146.739c.101 2.3-.699 4.199-1.699 6.199-3.601 7.601-8.601 14.2-14.601 20-17.2 16.601-41.3 10.301-48.8-12.3-2.6-7.8-3.1-15.8-4.4-23.7-1.6-45.199 4.101-89 25.5-129.5 18.4-35 44.9-62.3 80.5-80.199 14-4.4 27.4-10.601 41.601-14.4 30.399-8.5 61.5-10 92.6-7.8 42.4 3 83.2 11.6 122.7 27.2 43.7 17.399 86.9 38 122.6 69.1 34.601 30.1 59.2 68.8 74.2 112.5 8.1 23.6 17.9 44.4 35.9 62.3 14.399 14.3 31.5 23.8 53 20.8 1.899-.3 3.8 1.4 4.899-.5 38.4-11.8 57.101-42.3 72.5-76a673.19 673.19 0 0 0 3.602-8.199c12.6 17.199 20.5 36.199 24.299 57.199 1.6 9 2.301 18.101 3.701 27.101-.102 1.399-.201 2.8-.201 4.2-5.799 9.699-14.4 15.5-24.9 19.1-26.5 9-53.099 17.4-79 28.2-44.6 18.5-77.699 1.7-103.8-33.3-14.8-19.9-21.9-44-31.8-66.601-32-72.899-82-128.8-155.301-162.399-30.6-14-61.3-27.601-95-32.9-44.6-7.1-87 .8-127.6 18.8-23.4 10.3-40.2 28.601-51.9 51.4v-.101c-1.399.9-.899 2.9-2.199 3.9-12.4 25.2-18.301 51.8-16.301 79.9 0 1.199-2.1-.301-1.899 1.899 1.299 12.701.6 25.5 1.799 38.101z"/><path id="sd1" fill="#4A2309" d="M885.958 2023.039c5.6-18.601 17.9-32.4 32.2-44.7 8.399-7.2 17.899-12.6 28.3-16.5 24.9-9.2 50.4-15.1 76.9-16.6 22.5-1.301 44.8 1.1 66.3 7.399 50.3 14.801 97.1 36.801 138.7 69.2 27.699 21.6 49.3 48.1 66.699 78.7 12.7 22.399 23.801 45.3 33 69.399 8.5 22.301 20.9 42.4 38.601 58.9 7.6 7.1 16.1 12.9 25.8 16.7 15.9 6.2 32.1 6.899 47.9.8 31.1-12.1 62.699-22.6 94.099-33.6 7.6-2.7 14-7.7 20.9-11.7-1.699 10.8-8.5 17.8-17.699 22.8-7.4 4-15.301 6.5-23.301 9-23.5 7.4-46.7 15.601-69.5 25.101-31.2 12.899-58.601 6.8-82.301-17-16.3-16.4-27.899-35.801-35.6-57.301-10.2-28.8-25-55.199-40.5-81.199-12.9-21.601-29.2-40.5-48.4-56.801-47.399-40.199-101.899-66.699-161.899-81.199-49.101-11.801-96.7-3.601-142.601 15.699-16.6 7-29 19.801-40.1 33.801-2.498 2.901-4.998 6-7.498 9.101zm-81.1 152.8c6.8 15.4 19.6 19.8 34.199 11.4 13.5-7.7 22.801-19 26.801-34.301-5.5 5.2-9.9 11.601-16.2 16.101-20.2 14.399-37.8 9.3-46.3-14-2.2-5.9-3.601-12.101-5.301-18.101-.699 13.5 1.301 26.601 6.801 38.901z"/><path id="hl1" fill="#8C4512" d="M1451.458 2196.638c1.2 2.101-.2 3.101-1.9 3.7-5.8 1.9-11.6 2.6-17.699 1.7-18-2.7-32.4-11.8-44.101-25.3-12.2-14-20.2-30.5-26.899-47.601-4.601-11.8-7.9-24.1-13.601-35.399-22.899-45.601-54.5-83.601-98-111-58-36.5-120.399-61.4-188.2-72-39.3-6.101-78.399-5.101-117.1 4.5-2.2 1.199-4.2 1.8-3.9-2 26.5-8.801 54-11.9 81.7-11 88.2 2.6 167.4 32.899 239.9 81.399 47.5 31.7 79.5 76 98.3 129.9 5.5 15.8 12.1 31 21.3 45 13.2 20 30.5 34.2 54.601 38.7 4 1.3 8 1.3 12 0a22.716 22.716 0 0 1 3.599-.599zm104.099-11.7c-1.699-3.3.201-7.1-1.398-10.5-.602-9.699-3.201-19-6.102-28.3-3.5-10.8-8.1-21.2-14.6-30.5-1.299-1.899-2.199-5.3-5.9-3.3.602 4.4 2.301 8.3 4.602 12 10.398 16.9 16.5 35.4 19.5 54.9.898 5.899 1.799 11.8 4 17.399-.102-3.798-.102-7.798-.102-11.699zm-688-78.099c-1.699-4.3-1.699-9-2.8-13.4-1.5 18 .3 35.7 2.8 53.4 1.801-13.401 1-26.701 0-40zm40.201-181.5c-.8.5-1.5 1.3-2.5 1.5-.399 0-.8.2-1.2.4 2.601.699 5.101.5 7.7-.4 10.7-3.9 21.4-7.9 32.101-11.8-1.301-.7-2.601-1.3-3.9-2-11.501 2.3-21.902 7.099-32.201 12.3zm646.4 249.099c-.4 3.601.1 7.101 1.398 10.5.501-3.599.102-7.099-1.398-10.5z"/><path fill="none" stroke="#040000" stroke-miterlimit="10" stroke-width="6" d="M1548.057 2146.239c-3.5-10.801-8.1-21.2-14.6-30.5-1.299-1.9-2.199-5.301-5.9-3.301-1.199 2.7-2.398 5.4-3.6 8.2-15.4 33.7-34.099 64.2-72.5 76-1.2.2-10.8 1-15.6.5-24.2-4.5-41.4-18.8-54.601-38.7-9.2-14-15.8-29.3-21.3-45-18.8-53.899-50.9-98.199-98.4-129.899-72.5-48.5-151.699-78.7-239.899-81.4-27.801-.8-80.9 10.8-81.7 11-11.4 2.2-21.9 7.101-32.2 12.3-.8.5-3.4 1.7-3.7 1.9-35.6 17.9-62.1 45.2-80.5 80.2-21.3 40.5-27.1 84.3-25.5 129.5-.7 13.5 1.4 26.5 6.8 38.899 6.801 15.4 19.601 19.801 34.2 11.4 13.5-7.7 22.101-19.2 26.8-34.3.7-1.9 1.101-3.8 1.7-6.2 1.9-13.3 1-26.6 0-39.9-2-28.199 3.8-54.699 16.3-79.899 1.5-2.5 7.101-10 9.601-13.2 11.1-14 23.5-26.8 40.1-33.8 45.9-19.3 93.5-27.5 142.6-15.7 60.101 14.5 114.601 41 161.9 81.2 19.2 16.3 35.5 35.2 48.4 56.8 15.6 26 30.3 52.4 40.5 81.2 7.6 21.5 19.3 41 35.6 57.3 23.7 23.8 51.2 29.9 82.3 17 22.801-9.4 46-17.7 69.5-25.1 7.9-2.5 15.9-5 23.301-9 9.199-5 16-11.9 17.699-22.801.1-1.399.199-2.8.199-4.199v-11.801c0-9.8-4.6-29.5-7.5-38.699z"/></svg>