<svg xmlns="http://www.w3.org/2000/svg" id="tail" viewBox="0 0 3000 3000"><path id="cl1" fill="#66300C" d="M1086 2210c-25.8 27.2-47.1 57.6-64.8 90.7-17.3 32.3-21.4 66.1-14.5 101.6.5 2.6.8 5.2 1.1 7.9 1.3 17 9.9 31 18.5 45.2 13.9 22.8 33 39.5 56 52.4 3.6 4 5 8.8 6 13.9 1 9 2.3 17.7-1.1 27-2 5.5-4.7 8.8-9.7 9.6-13.1 2-25.5 1.3-36.9-7.3-41.6-31.3-69.3-72.2-86.4-120.9v-.1c-2-1.5-.3-4.2-1.9-5.9-8.4-33.6-7.3-67.1 1.2-100.5 8.7-34 25-64.1 46.5-91.7 6.3-3.8 10-10 14.3-15.6 30.6-31.2 63.3-59.2 104.6-76 34.4-14 70.2-22.3 106.6-27.4 45.7-6.4 91.5-12.1 136-24.2 34.3-9.4 68.7-19.8 98.9-39.8 42.7-28.3 76.7-64.8 100.8-110.1 12.2-22.9 21.8-47 29.1-71.9 4.2-14.4 8.8-16.4 22.1-10.8h-.3c.9.9 1.8 1.7 3.1 2.1 11 11.7 15.2 26.2 17.3 41.6 1.5 10.1-1.5 19.1-6.8 27.6-14.9 23.8-32.4 45.7-51.4 66.2-24.4 26.3-48.6 52.9-78.5 73.5-36.9 25.4-78.5 38.9-120.4 52.4-35.2 11.4-72.1 12.3-108.2 17.8-35.2 5.3-70.7 9.5-103.8 23.9-25.2 10.9-49.2 24.1-70.5 41.7-2.8 1.9-5.1 4.2-6.9 7.1z"/><path id="sd1" fill="#4A2309" d="M1086 2210c2.4-6.6 7.8-10.7 12.8-15 36.8-31.2 79.1-49.8 126.8-57.1 30.6-4.7 61.2-9.4 92.1-12.3 21.4-2 42-7 62.4-13.4 23.2-7.3 46.2-15 68.5-24.9 25.8-11.4 49-27 70.2-45.5 22.3-19.5 42.2-41.5 61.6-63.9 16.2-18.7 30.9-38.4 44.3-59.1 3.9-6 7-12.1 7.5-19.3 4.1 16.2 2.8 31.4-6.1 46.1-16.6 27.4-38.1 50.5-61.3 72.1-21.7 20.2-44.6 39.1-69 56.1-48.7 34.1-103.3 53.4-161.3 64.1-28.2 5.2-56.9 6.9-85.4 10-44.5 4.9-86.9 16.8-126.7 37.7-12.9 6.9-24.7 15.5-36.4 24.4zm-129.2 232.6c9.5 30.2 24.3 57.5 44.5 81.8 12.6 15.2 27.3 28.2 43.8 38.9 10.4 6.7 21.8 7.5 33.5 3.6 5.9-1.9 9.5-5.9 10.8-12 2.4-11.2 3.1-22.4-1.2-33.4-.5 6.6.1 13.3-1.9 19.8-1.9 6.2-5.3 10.8-12.1 11.9-10.2 1.6-20.1.8-28.7-5.5-11.3-8.3-22.2-17.1-31.6-27.4-15.7-17.3-29.8-35.9-41.1-56.4-6.3-11.4-12.5-22.7-18.8-34.1.1 4.6 1.5 8.7 2.8 12.8z"/><path id="hl1" fill="#8C4612" d="M1612.2 1855.9c-10.5-1-16.6 3.7-20.2 13.7-6.7 18.5-12.1 37.4-20.9 55.1-18.5 37.3-40.6 71.6-72.9 98.9-26.8 22.7-55.4 41-88.6 52.8-42.9 15.3-87 25.1-131.9 31.5-35 5-69.9 9.9-104.3 18.3-20.7 5.1-41.2 11.3-60.6 20.1-26.2 11.9-49.8 28.3-71.3 47.5-9.4 8.4-19.5 16.2-27.5 26.1-2.6.9-3-.3-2.4-2.5 24.5-31.2 54.6-55.4 90-73.2 31-15.6 64.3-23.6 98.1-30.2 31.1-6.1 62.7-8.3 93.9-13.9 44.1-8 87.1-19.3 128.8-35.7 30.4-12 56-30.6 79.2-53.1 43.7-42.3 72.5-93.4 87.9-152.1 2.7-10.3 10.8-13.2 19.5-6.9 1.2.9 2.1 2.4 3.2 3.6zM1075 2499.7c-33.7-21.4-55.4-51.7-67.2-89.6-1.8 11.1 2.1 21.1 6.8 30.5 10.2 20.3 23.4 38.5 40.8 53.3 7.7 6.5 16.1 12.8 26.8 13.8-1.6-3.3-4-5.9-7.2-8zm-75.1-267.9c7.1-1.2 10-7.3 14.1-11.9-.8-.8-1.6-1.7-2.4-2.5-4.8 4.1-8.3 9.2-11.7 14.4z"/><path fill="none" stroke="#000" stroke-miterlimit="10" stroke-width="6" d="M1632.3 1899.6s0 0 0 0c-2.2-15.4-6.3-29.9-17.3-41.6-1.2-1.6-4.8-4.9-6.1-5.8-8.6-6.2-16.8-3.3-19.5 6.9-15.5 58.7-44.2 109.8-87.9 152.1-23.2 22.4-48.8 41.1-79.2 53.1-41.7 16.4-84.8 27.7-128.8 35.7-31.2 5.6-62.8 7.8-93.9 13.9-33.8 6.6-67.1 14.6-98.1 30.2-35.4 17.8-87.2 70.1-90 73.2-4.5 4.5-9.9 10-13.3 15.2-21.5 27.5-36.2 56.9-44.9 90.9-8.5 33.4-9.5 66.9-1.2 100.5 1.2 5.4 3.3 14.5 4.6 18.6 9.5 30.2 24.3 57.5 44.5 81.8 12.6 15.2 27.3 28.2 43.8 38.9 10.4 6.7 21.8 7.5 33.5 3.6 5.9-1.9 9.2-6 10.8-12 4.1-15.5.9-32.8.9-32.8-1.2-10-10.8-19.7-16.4-23.1-33.9-21.1-54.4-51.1-66.1-88.9-.4-1.9-1.3-5-1.9-8.2-6.8-35.5-2-68.9 15.3-101.2 17.7-33.1 39-63.5 64.8-90.7 11.7-8.9 23.5-17.5 36.6-24.3 39.8-20.9 82.1-32.8 126.7-37.7 28.5-3.1 57.1-4.8 85.4-10 58-10.7 112.6-30 161.3-64.1 24.3-17 47.2-35.9 69-56.1 23.2-21.6 44.7-44.8 61.3-72.1 8.9-14.6 10.1-29.8 6.1-46z"/></svg>