<svg xmlns="http://www.w3.org/2000/svg" id="图层_2" viewBox="0 0 3000 3000"><path id="cl1" fill="#3E3633" d="M1255.5 362.5s-110 22.5-192.5 200c0 0-59 103.5-65 236.5 0 0 0 46 5 83 0 0 3 86-8 114.5 0 0-8 63.5-53 122.5l71.5-27.5 21-8.5s14.5-2 4 9.5l-34 61 88.5-41.5s10-3 10.5 6.5l17.5 62 24.5-18.5s6-7.5 12.5 0l26 16s-11-59-11.5-75.5c0 0-34 3.5-78.5-30 0 0-13-10-27-32 0 0-19.5-18-26.5-40 0 0-7.5-10.5-10.5-26.5 0 0-3.5-14 0-27.5l4-8.5s2-25.5 13.5-35.5c0 0 44.5-34.5 99.5 2.5 0 0 48.5 90 64.5 116.5l33 10.5s-9-155-6-221c0 0 53.5-22.5 78.5-32.5 0 0 85.5-35 100.5-42.5 0 0 83.5-46 103.5-65.5 0 0 66.5-56 110-132 0 0 5-12.5 12 0 0 0 59.5 71 81 86.5l53.5 51.5s110 105 107.5 186.5c0 0 68.5-110 15-246.5 0 0-44.5-95.5-163.5-183 0 0-126.7-114.1-314-89l-30 6.5s-83.1-14-137 11.5z"/><path id="sd1" fill="#322C29" d="M1090 758.5c-37.5 136 53 89 53 89 6.5 78.5 97.8 110.102 97.8 110.102l3.7 74.398-31.4-10-61.6-117.5c-89.333 29.667-83.667 34.333-83.667 34.333-18 14-29.722 6.406-29.722 6.406 7.5 129 131.278 142.339 131.278 142.339.5 18.5 14.61 90.421 14.61 90.421l-25.2-15.5c-3.699-9.5-15.8-2.5-15.8-2.5l-17.801 17.302-22.101-61.2c.601-8.4-10.1-4.1-10.1-4.1l-87.2 39.1 34.2-54.1c13.6-17.2-5.5-14-5.5-14l-86.101 33.5c77.399-106.5 55.101-257.5 55.101-257.5-13-65.5 19-184 19-184C1037 795.5 1090 758.5 1090 758.5zm167.6-397S1352 353 1377 368c0 0-34.5.5-87 77.5 0 0 41.5-52.5 152.5-45.5l-15 27.5S1473 385 1596 481c0 0-32.5-56.5-56.5-80.5 0 0 61-4.5 82 6 0 0-43.5-26-105.5-30.5 0 0-6-11.5 38-27.5 0 0-72-13-129 0l-25 6s-78.301-14.4-142.4 7z"/><path id="hl1" fill="#49403C" d="M1130 459s27.5 104.5 142 89c0 0-30.5 61.5 70 37 0 0-2.5 9.5 2.5 14 0 0 77 44.5 158.5 0 0 0-26.5 57.5-100 87.5 0 0 9.5-21.5-14.5-33 0 0-23 13-39 20 0 0-1-6 1-14 0 0-2.5 4-20 7.5 0 0-5.5-8-14-15.5 0 0-25 3-54.5 2 0 0-119-11.3-152-173.398L1130 459zm702.3 61.5s-28.699 63.4-108.699 52.302l-6.7 1.3s41.3 44.898 87.3 54.3c0 0-12.8-5.5-15.3-34.7 0 0 57.2 24.801 100.899 4.4.1-.002-22.7-41.8-57.5-77.602z"/><path fill="none" stroke="#000" stroke-miterlimit="10" stroke-width="6" d="M1392.5 351l30-6.5c187.3-25.1 314 89 314 89 119 87.5 163.5 183 163.5 183 53.5 136.5-15 246.5-15 246.5 2.5-81.5-107.5-186.5-107.5-186.5L1724 625c-21.5-15.5-81-86.5-81-86.5-7-12.5-12 0-12 0-43.5 76-110 132-110 132-20 19.5-103.5 65.5-103.5 65.5-15 7.5-100.5 42.5-100.5 42.5-25 10-78.5 32.5-78.5 32.5-3 66 6 221 6 221l-33-10.5C1195.5 995 1147 905 1147 905c-51.293 17.142-79.167 33.833-79.167 33.833-11.5 10-24.781-9.483-24.781-9.483l-4.941 15.889c-3.5 13.5-1.144 20.361-1.144 20.361 3 16 9.532 31.333 9.532 31.333 23.333 18.233 21.168 37.586 21.168 37.586 18.5 21.846 32.8 32.699 32.8 32.699 44.5 33.5 68.97 16.906 68.97 16.906.5 16.5 14.563 93.875 14.563 93.875l-26-16c-6.5-7.5-12.5 0-12.5 0l-24.5 18.5-17.5-62c-.5-9.5-10.5-6.5-10.5-6.5l-88.5 41.5 34-61c10.5-11.5-4-9.5-4-9.5l-21 8.5L942 1119c45-59 53-122.5 53-122.5 11-28.5 8-114.5 8-114.5-5-37-5-83-5-83 6-133 65-236.5 65-236.5 82.5-177.5 192.5-200 192.5-200 53.9-25.5 137-11.5 137-11.5zm16.5 258s-195 94-240 222c0 0 39.6-7 69.3-15M1559 436c-54-58-150-88.6-150-88.6"/></svg>