<svg xmlns="http://www.w3.org/2000/svg" id="hair" viewBox="0 0 3000 3000"><path id="cl1" fill="#3E3633" d="M1109.5 467c35-59 136-91.5 136-91.5 89-33 178-30 178-30l14.5-4c169-61.5 279 8 279 8C1806.5 406 1828.5 455 1828.5 455c19 26 39.5 79.5 39.5 79.5l9.5 11C1941 608 1942 672 1942 672c6.5 87-7.5 152.5-7.5 152.5-1.5 13.5-10.5 31-10.5 31-18.5 33.5-56.5 84-56.5 84 3-15.5 3.5-87 3.5-87 0-26.5-23-136.5-23-136.5-4.5-26-15.5-65.5-15.5-65.5l-5.5-1.5c-11.5 13-42.5 22.5-42.5 22.5 10-19-10.5-103.5-10.5-103.5-.5-9-7 0-7 0-23 35.5-73.5 82.5-73.5 82.5C1655 678.5 1560 682 1560 682l35.5-80c6-12-3.5-3.5-3.5-3.5-11 21.5-92 82-92 82-37.5 33.5-96.5 34.5-96.5 34.5-22.5 2.5-62.5-4-62.5-4-4.5 27-13.5 66-13.5 66-11 70-51 104-51 104-52.5 66.5-124 77.5-124 77.5-39.5 8.5-95.5 6.5-95.5 6.5-23.5-2-52 0-52 0-13 0 0-7 0-7 59-37.5 70-115.5 70-115.5 12-56.5-3-124.5-3-124.5-6-29-13.6-97.699-13.6-97.699C1067 558 1109.5 467 1109.5 467zm-50.1 164.4s-18.801 45.6-40.4 217.1c0 0 38 4 59-23.5 0 0 7-63.399-4.8-100.699l-13.8-92.901z"/><path id="sd1" fill="#352F2C" d="M1327.5 777s-10.4 139.9-184 183.2c0 0-81.577 7.971-106.077 9.971 0 0-.757 35.53 71.743 107.43 0 0-107.167-28.7-152.167-45.9l77-20.7-.1-10.8s-38.601-10.8-98.301-58.5c0 0 71.7-21.399 83.801-96.5 0 0 36.1 12.9 79.6-40.1 0 0-6.5 8.5-5 13.5 0 0 14.5 67.5 73-21.5 0 0 30.5 65 133.5-49.5h4s14.5 17.5 23 28M1257 691c30.7 41.301 81.1 35.801 81.1 35.801l6.101-15.301c97.899 17.801 150-26.199 150-26.199C1506.1 667.6 1547 623 1547 623c-181.3 80-284 44.7-284 44.7-22-15.3-48.7-4.7-48.7-4.7 21.4 7.301 42.7 28 42.7 28zm406-169.3s-47.7 53.5-66.7 74c0 0 1.7 10.7-10.1 27.4l-25 56.3s93.6-3.2 126-24.7c0 0 20.4-29.6 11.8-85.6 0 0-56 27.3-72.7 45.3 0-.099 34-62.099 36.7-92.7zM1362.3 353s86.801-10.7 238 112.7c0 0-21-73.3 93.801-127.3 0 0-131.4-52-250.9 6.3-.001-.1-42.901.3-80.901 8.3zm513 190s-20 87.7-42.8 107.5l16.6 70.7s39.9-78.2 33.2-170.899l-7-7.301zM1852 735.6s25.1 107.5 16.1 200.1c0 0 32.9-43.399 60.9-91.399 0 0 24.5-120 7.3-203.7 0 .099-26 136.899-84.3 94.999z"/><path id="hl1" fill="#4B413E" d="M1104 565.5c15.5 21.5 53.5 15.5 53.5 15.5 16-3.5 24.5 0 24.5 0 6.5 44.5 31 32 31 32 28.5-14.5 47.5-12.5 47.5-12.5 6.5 12.5 16 14 16 14 21 7 48 3.5 48 3.5-6.5 9.5-27.5 20.5-27.5 20.5-15.9 6-109.5 5.301-109.5 5.301-16.5-1.7-32-14.301-32-14.301-5.5-4-16.5-1-16.5-1-16 3-26 10-26 10-5.5 1.5-14.5 2.2-14.5 2.2-21 .7-37.3 3.101-37.3 3.101C1058.899 596.1 1079.8 536 1079.8 536l24.2 29.5zm273.5 18.5s-9.5 11-18 27.5c0 0 7.5 1.5 13 0 0 0 37-16 58-19.5 0 0 6.5 1-4.5 11 0 0-38.5 37.301-42 37.7 0 0 81.5-34.7 120-67.2 0 0 1-6.5-14.5 3 0 0-9 3-26.5 5 0 0-7 .5-21 3.5 0 0 6.5-8.5 9.5-19.5 0 0-6.6-2.5-11.8 0 0 0-35.7 9.5-62.2 18.5zm322-223.5c32 35.5 52 71.5 52 71.5 17 34.5 9 51 9 51-7.5 29-24.5 49.5-24.5 49.5h9c15-4 32.5-11.5 32.5-11.5 35.5-27.5 49.1-69.6 49.1-69.6-50.4-69.1-112.9-103.8-112.9-103.8l-14.2 12.9z"/><path fill="none" stroke="#000" stroke-miterlimit="10" stroke-width="6" d="M1109.5 467c35-59 136-91.5 136-91.5 89-33 178-30 178-30l14.5-4c169-61.5 279 8 279 8C1806.5 406 1828.5 455 1828.5 455c19 26 39.5 79.5 39.5 79.5l9.5 11C1941 608 1942 672 1942 672c6.5 87-7.5 152.5-7.5 152.5-1.5 13.5-10.5 31-10.5 31-18.5 33.5-56.5 84-56.5 84 3-15.5 3.5-87 3.5-87 0-26.5-23-136.5-23-136.5-4.5-26-15.5-65.5-15.5-65.5l-5.5-1.5c-11.5 13-42.5 22.5-42.5 22.5 10-19-10.5-103.5-10.5-103.5-.5-9-7 0-7 0-23 35.5-73.5 82.5-73.5 82.5C1655 678.5 1560 682 1560 682l35.5-80c6-12-3.5-3.5-3.5-3.5-11 21.5-92 82-92 82-37.5 33.5-96.5 34.5-96.5 34.5-22.5 2.5-62.5-4-62.5-4-4.5 27-13.5 66-13.5 66-11 70-51 104-51 104-52.5 66.5-124 77.5-124 77.5-39.5 8.5-95.5 6.5-95.5 6.5-23.5-2-52 0-52 0-13 0 0-7 0-7 59-37.5 70-115.5 70-115.5 12-56.5-3-124.5-3-124.5-6-29-13.7-95.699-13.7-95.699C1061 563.7 1109.5 467 1109.5 467zm296.8 72.7c-106 126.7-152.699 120.7-152.699 120.7-14.7 0 0 10.7 0 10.7 26 24 87.3 40 87.3 40M1128.4 962.301s122.6-107.301 141.3-196m560.1-116.5s32.5-42.4 38.2-115.301m-808.6 96.9s-11.101 16.9-17.101 64.2c0 0-18.7 126.7-22 153.3 0 0-4 62-84.7 92.7 0 0 37.4 41.5 100.801 59.5l.1 8.7s-46.2 11.1-79.5 21.8c0 0 129.251 44.57 159.251 49.271M1549 421.5c-43-67.5-114.9-78.899-114.9-78.899"/></svg>