<svg xmlns="http://www.w3.org/2000/svg" id="hair" viewBox="0 0 3000 3000"><path id="cl1" fill="#3E3633" d="M1125 334.301s-.801 1.1-2.301 3.1c-16.4 22.8-117.4 163.8-150.4 240.9L993 603.6s9.299 8.7-2.701 12l-26.699 14v88.7s16.699 2 124.699 29.3c0 0 2-65.3 40.701-129.3 0 0 67.504-115.801 281.504-175.101 0 0 47.795-12.2 77.195-1.6 0 0 60 12.7 116.7 56.7 0 0 70.699 65.3 91.3 94.699 0 0 24-80.699 29.301-272 0 0-59.301-70.699-200-83.3 0 0 22.699 34 21.299 40 0 0-4 2-8.699-6 0 0-18-26.7-42-38 0 0-163.301-51.3-336 60 0 0 20 38.7 18.699 57.3.001.002-3.999 7.303-53.299-16.697z"/><path id="sd1" fill="#352E2B" d="M1025.199 482.1s-48.699 82.5-50.4 99.2l20.602 25.4-31.701 22.9v84.8s102.865 28.1 131.766 35.6c0 0-8.167-76.7 31.035-127.5 0 0 50.5-75.1 105-111.1 0 0-87 12.5-131 48 0 0-32.5-32.5-24-56 0 0-12.5 10-26.5 37.5-.001.1-15.101 13.3-24.802-58.8z"/><path id="hl1" fill="#483F3C" d="M1055.9 434.301S1112.001 352 1129.501 333c0 0 26 17 41.3 18.801l7.5-5.601s-6-25.8-15.899-54.3c0 0 162.699-106.6 340.899-54l39 39.1 3.5-2.6s-12.8-22.9-22.3-38.9c0 0 147 19 198 87l-3 40.5s-44.5-71.5-150-92.5c0 0-4 17-3.5 43.5 0 0-40-47-82-63.5 0 0-118.5-3-240.5 48.5 0 0-34.5 29.5-45.5 73 0 0-5.5 14-18.5 31 0 0-3 4.5-3.5 12 0 0-35.5-6-61-20.5-.001 0-39.701 24.5-58.101 39.801z"/><path fill="none" stroke="#000" stroke-miterlimit="10" stroke-width="6" d="M1178.3 351c1.3-18.699-18.7-57.3-18.7-57.3 172.7-111.3 336-60 336-60 24 11.3 42 38 42 38 4.7 8 8.7 6 8.7 6 1.3-6-21.3-40-21.3-40 140.699 12.7 200 83.3 200 83.3-5.301 191.301-29.301 272-29.301 272-20.699-29.3-91.301-94.699-91.301-94.699-56.699-44-116.699-56.7-116.699-56.7-29.301-10.699-77.195 1.599-77.195 1.599-214 59.3-281.504 175.102-281.504 175.102-38.7 64-33.534 131.699-33.534 131.699-108-27.3-131.867-31.699-131.867-31.699v-88.7l26.7-14c12-3.3 2.7-12 2.7-12l-20.7-25.3c33-77.101 134-218.101 150.399-240.9 1.5-2 2.301-3.1 2.301-3.1C1174.3 358.301 1178.3 351 1178.3 351zM1052 557c26 40 78.6 58.5 78.6 58.5M1568 347c-2 59 0 127.2 0 127.2m66.199 52.601s4.199-29.601 0-116.2"/></svg>