<svg xmlns="http://www.w3.org/2000/svg" id="hair" viewBox="0 0 3000 3000"><path id="cl1" fill="#3E3633" d="M1846.7 407.7s39 55.7 69.7 144.3c0 0 24.3 61.3 20.7 148 0 0 5.7 51-35 138.3l-12 23.7s-7.3 4.3-9-6.3c0 0-3.7-10-6.7-33 0 0-1-101.3-1.3-130.7 0 0-2-27.7-11-53.7 0 0-41-50.3-117-49.7 0 0-4.3-2.3 0-4.7l36-27s1.3-8.7-10 1c0 0-41 32-55 38.3 0 0-36.7 16.5-64.7 38.9 0 0-4.3 7.1 2.7-35.9l13.3-80s-4.3-8.3-7.3 13.3c0 0-5.5 35.1-7.2 44.8 0 0-38.8 51.2-76.5 82.9 0 0-84.3 75.7-180.3 78 0 0-11 8.2 59.5-157.3l-3.5-2s-102.5 55.5-142.5 123c0 0-8.5 17.5-6 41.5 0 0 8 41.5 2 65 0 0-2 13.5-14 28.5 0 0-18.5 28.5-22 45 0 0-5.5 14.5 3 36.5l9.5 31.5s2 24.5 10.5 42.5c0 0 1.5 8-74.5-55.5 0 0-91-94.5-116.5-43.5 0 0-20-15-38 1 0 0-45.5-35.5-66.5-36 0 0-9.5-11.5-47.5 3l-7 2s-11.5-18.5 53-106c0 0 10-11-11-7 0 0-31-1-64.5-19 0 0-65-27-86-35 0 0-4.5-1 11.5-12.5 0 0 15.5-16 60.5-43 0 0 48.5-22.5 106.5-32 0 0 60-13.5 80.5-23.5 0 0 14.5-7-7.5-7 0 0-37 5.5-86-25.5 0 0-85-63-108.5-135.5 0 0-2.5-1.5 16.5-1.5 0 0 87-2.5 138.5 8.5 0 0 126.5 12 153.5 5.5 0 0 14.5.5 24-4.5 0 0 11-5-23-10.5 0 0-44-11-77-59.5 0 0-39.5-65.5-51.5-72 0 0-8-7 30.5-5.5 0 0 93 15.5 124 31 0 0 91 32.5 133.5 51.5 0 0 29.5 9 51.5 12 0 0 52.5 3.5 64.5-.5 0 0 16.5 3.5-21-17 0 0-40.5-34-57.5-69.5 0 0-.2-6.5-12.1-22 0 0-4.4-9 23.6 0 0 0 54.5 21 85 29.5 0 0 55 11.5 94.5 28 0 0 97 49.5 101 90.5 0 0 7.5 15 5-3 0 0-11.5-102.5-24-128 0 0 38.5 22.5 58.5 46.5 0 0 78.5 76 96 154l.5 32s3.5 16 10.5-9c0 0 11.5-69.5 8.5-84.5s-.8-16 2.1-11.7z"/><path id="sd1" fill="#38312E" d="M896.3 422.3S1039 549.6 1221 569c0 0-72.6 9.4-123.3 12.4 0-.1-138 6.9-201.4-159.1zm26.2 310.5c39.5 16.6 77.9 15.5 77.9 15.5 58.7-26.7 150-95.3 150-95.3C1109 665 927 692.6 927 692.6c-45.3 6.3-91.8 0-91.8 0l87.3 40.2zm152.5-447s13.3 12.7 66.3 91.6c0 0 49 42.3 87.7 44.9 0 0 80 11.3 114.7 3.3l21.3-6.7s-96.4-9.6-176-74.7c0 0-37.3-32-74-46 0 .1-29.3-19.6-40-12.4zm313.7-26.2s14.3 23 19.6 37.4c0 0 30 56.9 68.7 71.5v6.5s38.6 29.7 176 53.5c0 0 3.3 4.2 26 0 0 0-73.3-13.5-115.3-42.2 0 0-78.7-58.7-114.7-88 0 0-19.9-19.4-60.3-38.7zm279 21.4s11.4 20.9 17 57.3l10.1 78.3s18.9 55.1 18.9 67.1c0 0 20.1-66.7-8.3-179 0-.1-16.4-15.1-37.7-23.7zm179 126.7s-3 76-14.3 113.3c0 0-2.7 17.3 0 32 0 0 37.3-45.3 50-82.6l-35.7-62.7zm-54.4 125.9s-12 0-33.3 10.7c0 0-108 61.9-107.7 91 0 0 111.7-61.8 128.3-81.7.1-.1 8.7-4 12.7-20zm141.4 92.6s-28.5 80.1-60.2 107.5c0 0 2.1 107.3 8.8 131.3 0 0 68.8-63.6 51.4-238.8zM1655 537.1c-96.7 143.5-259 201.2-259 201.2 159.7-12 255.3-158.9 255.3-158.9l8-42.3h-4.3zM1451.5 525c-65.5 32-114 80.5-114 80.5-68.5 82-80 194.5-80 194.5l50-92.8C1334.5 637.3 1454 574 1454 574l56-63.5c8-13 23.9-34.5 23.9-34.5-18.2 10.5-82.4 49-82.4 49zm-192 282l-10.5-15.5c-10-18.5-39.5-23.5-39.5-23.5-13.5 16-12.5 35.5-12.5 35.5l-54.5-25.5c-9.5-2-16.5 17.5-16.5 17.5-4 8-11 15.5-11 15.5-7.5 15.5-116.4 47.6-116.4 47.6 26.1 3.6 64.9 35.9 64.9 35.9 18-10 33.4-3.7 33.4-3.7l8.4-3.2c29.7-34.9 98.5 35.7 98.5 35.7l56.2 47.8c12.1 9.6 32.6 21.4 32.6 21.4l-27-99-15.9 12.1c8.6-9.9 16.9-29.1 16.9-29.1 9.5-21.4 31.5-58.5 31.5-58.5 12-20 6-50.5 6-50.5-3.5-11.1-6-26.5-6-26.5l-38.6 66z"/><path id="hl1" fill="#463D39" d="M1221 429.5s14.5-1.5 24 3h37.5s20 4.5 36 6.5c0 0 59 2 70 0 0 0 4.9 3.6-.6 5.1 0 0-3.4 1.9-4.5 5.5 0 0 49.9-2.6 54.8 0 0 0 4.4 1.6-8.9 3.9 0 0-16.3 4.5-2 7.9 0 0 33.1-.4 39.5 1.6 0 0 15.3 1.9-1 4 0 0-19.1 4.4-22.5 7.1h63s20.6 2.6 1 4.8c0 0-16.9 5.9-61 5l-38.4 1.6-8.1-7.3s-6.3-.8-13.9.8c0 0-10.6 1.6-19.8-1.1 0 0-.9-4.3-.5-8.9 0 0 1.4-3.6-9.9-2.9 0 0-22.8 6-28 8.1 0 0-2.5-.9 1.6-3.1l5.6-6.3s2.4-9-11.5-5.6c0 0-24.4 5.8-37.4 10.3 0 0-8 .3-12.1.1 0 0-.6-2.8 4-8.9l.4-6.5s-3-5.3-17.8-1.5c0 0-24.5 5.4-32.1 9.3h-6l17.3-14.6s2.8-5-2.3-6c0 0-23.1 2.1-34 5.9 0 0-7.9 1.1-15.6 3.4l-9.3.5s19-13.8 25.6-17.3c0 0 9.4-2.9 16.9-4.4zM1496.2 548l-19.2 27.2s-.3 4.3 5.3.8l8.7-4s5.7-.3 1.8 7l-12.2 22.5s-.5 1.7-.3 3.5h7.8l18-6.5 5.7-.2v6.7l-7.2 15s-2.7 5.7 5.8 2.8l20.3-10s5.3-2.3 4.2 4.7l.2 5.3s7.7-.7 15.8-6.8c0 0 24.5-17.7 29.7-18.5 0 0 5.3-1.7 4.7 6 0 0 3.2 3.3 11-4.3l45.3-32.2-20.2 5.8-1.5-7s-1-3.5-6 .7c0 0-18.7 12.3-25.3 14 0 0-9.8 4.2-4.5-5.8l4-7.8s-3.7-1.5-18.2 2.3c0 0-12.5 5.5-24.7 4.5 0 0-5.3-3.3-10.7-2.8 0 0-4.2-.7-8-10.2l-19.8-13.5c.1 0-6.7-1.2-10.5.8z"/><path fill="none" stroke="#000" stroke-miterlimit="10" stroke-width="6" d="M1846.7 407.7s39 55.7 69.7 144.3c0 0 24.3 61.3 20.7 148 0 0 5.7 51-35 138.3l-12 23.7s-7.3 4.3-9-6.3c0 0-3.7-10-6.7-33 0 0-1-101.3-1.3-130.7 0 0-2-27.7-11-53.7 0 0-41-50.3-117-49.7 0 0-4.3-2.3 0-4.7l36-27s1.3-8.7-10 1c0 0-41 32-55 38.3 0 0-36.7 16.5-64.7 38.9 0 0-4.3 7.1 2.7-35.9l13.3-80s-4.3-8.3-7.3 13.3c0 0-5.5 35.1-7.2 44.8 0 0-38.8 51.2-76.5 82.9 0 0-84.3 75.7-180.3 78 0 0-11 8.2 59.5-157.3l-3.5-2s-102.5 55.5-142.5 123c0 0-8.5 17.5-6 41.5 0 0 8 41.5 2 65 0 0-2 13.5-14 28.5 0 0-18.5 28.5-22 45 0 0-5.5 14.5 3 36.5l9.5 31.5s2 24.5 10.5 42.5c0 0 1.5 8-74.5-55.5 0 0-91-94.5-116.5-43.5 0 0-20-15-38 1 0 0-45.5-35.5-66.5-36 0 0-9.5-11.5-47.5 3l-7 2s-11.5-18.5 53-106c0 0 10-11-11-7 0 0-31-1-64.5-19 0 0-65-27-86-35 0 0-4.5-1 11.5-12.5 0 0 15.5-16 60.5-43 0 0 48.5-22.5 106.5-32 0 0 60-13.5 80.5-23.5 0 0 14.5-7-7.5-7 0 0-37 5.5-86-25.5 0 0-85-63-108.5-135.5 0 0-2.5-1.5 16.5-1.5 0 0 87-2.5 138.5 8.5 0 0 126.5 12 153.5 5.5 0 0 14.5.5 24-4.5 0 0 11-5-23-10.5 0 0-44-11-77-59.5 0 0-39.5-65.5-51.5-72 0 0-8-7 30.5-5.5 0 0 93 15.5 124 31 0 0 91 32.5 133.5 51.5 0 0 29.5 9 51.5 12 0 0 52.5 3.5 64.5-.5 0 0 16.5 3.5-21-17 0 0-40.5-34-57.5-69.5 0 0-.2-6.5-12.1-22 0 0-4.4-9 23.6 0 0 0 54.5 21 85 29.5 0 0 55 11.5 94.5 28 0 0 97 49.5 101 90.5 0 0 7.5 15 5-3 0 0-11.5-102.5-24-128 0 0 38.5 22.5 58.5 46.5 0 0 78.5 76 96 154l.5 32s3.5 16 10.5-9c0 0 11.5-69.5 8.5-84.5s-.8-16 2.1-11.7zM991.1 855.3s92.6-23.7 124.6-49m152.8 79.5l-22.2 23.2m259.4-398.7c-29.3 38-50.2 70.7-50.2 70.7m-9.8-97.3s-268.7 22-194.7 322.7c0 0 3.3 20.7 12.7-6.7 0 0 17-35.5 39.9-74.1"/></svg>