<svg xmlns="http://www.w3.org/2000/svg" id="hair" viewBox="0 0 3000 3000"><path id="cl1" fill="#38312E" d="M1073 516.3s-31.3 66.7-40 120.7c0 0-22 40 54.7 197.3 0 0 6 16.7 9.3 46.7 0 0 95.3-24.7 113.3 59.3l28.7 11.3 28-147.3-35.3-14.7s-12-3.3 0-9.3c0 0 64-39.3 51.3-126.7 0 0-14.7-67.3 94-97.3 0 0 50.7-18.7 111.3-10 0 0 44 6 65.3 15.3 0 0 125.3 32 198 16.7 0 0 48.7-14.7 100 49.3l85.3-49.3s8-3.3-37.3-6c0 0-10-2 10-24l36.7-53.3-62-13.3s-15.3 0 5.3-17.3l32-42h-73.3s-13.3 5.3-4-13.3l10-34.7-77.3 21.3s-8.7 3.3-2.7-14c0 0 18-51.3 13.3-80.7 0 0-26 7.3-50.7 18.7 0 0-88.7 31.3-274 39.3 0 0-66.7 2-112 7.3 0 0-86-2.7-183.3 61.3 0 0-13.3 12-7.3-8l8-36.7s5.3-8-8 4.7l-34 33.3-6 46.7s.7 19.3-16 5.3l-21.3-6.7-48.7 25.3s8 4 21.3 5.3c.1.2 33.4 2.2 17.4 19.5z"/><path id="sd1" fill="#2E2826" d="M1038 626.3s-21 84.7 58 213.7l5.8 40s80.2-30.2 110.5 56.8l26.8 14.9 24.2-142.7s-110.9-5.7-140.3-91.7v-14.7l-17.3 21.3c0 .1-46.7 41.8-67.7-97.6z"/><path id="hl1" fill="#403835" d="M1268 385l6 6.5c.2 12.9 8.5 24.5 8.5 24.5 2.5 12.5 0 14 0 14-13 9.5-7 14-7 14 2.5.5 7 2 7 2 9 20 27.5 21 27.5 21 20.5 2 28 7 28 7 3 15 6 22 6 22 2 10.5 0 14 0 14-3 21 11 19 11 19l17 7c17 4 27 10.5 27 10.5l-24.5 6.5c-5.9-2.2-18.5-10-18.5-10-10.5-11-32.5-9.5-32.5-9.5-22.5 2-30.5-4-30.5-4 16-14.5 8.5-21.5 8.5-21.5-8.5-6-38.3 2-38.3 2-16.8 5.5-29.8 7.5-29.8 7.5 12.5-11.5 22-24 22-24 12.5-15-9.5-11-9.5-11-18.5 5-39.5 14.5-39.5 14.5-8 4.5-19.5 3-19.5 3 29.5-25 36-40 36-40-14 5-63 29-63 29-10 4-23 4.5-23 4.5 9-17 64-74.5 64-74.5v-6c23.6-19 67.1-28 67.1-28zm223-25s-29.5 18-43.5 33.5c0 0 19.9 1.5 40.7-2 0 0 22.3-2.5 30.8 0 0 0 19 8.5-19 34.5 0 0-1 6 10.5 7.5s21-2 15.5 20.5c0 0-2 4.5 15.5 12 0 0 24 7 9 29.5 0 0-2.5 6.5 8 11.5l14.5 10.5s2.5 24 0 46.5c0 0 94 17.5 102.5 14.5l-13-9.5s-9-9 7.5-10c0 0-2-6.5-25.5-19 0 0-10.5-2.5 6-7.5l33-16.5s-12-1.5-37-5.5c0 0-16 .5-28.5-18 0 0-6.5-4-13.5-11.5 0 0-11.5-13.5 9.5-30.5 0 0-2-5-8-12 0 0-7.5-3.5-8.5-33.5 0 0-12-14-32-25 0 0-6.5-7 4.5-24.5 0 0-61 0-79 4.5zm268.5-46.5s15 41.5-19 99c0 0-1.7 6.5 11.1 5 0 0 83.9-18.5 54.9 15 0 0 42.5-31 21.5 15 0 0-4 13 10.5 8 0 0 51.5-21 19 24.5 0 0 31-9 10.8 24.5 0 0 51.2-17 23.2 39 0 0-4.5 14 1.5 25.5l53.3-74-59.8-11.5s-26.9 1.7 6.8-23.9l29.7-40.1-75.5 4.5s-17.3 14.1 6.8-49.7l-75.8 23.2s-16.2 9.6 1.4-33.9c0 0 12-36.6 7.8-62.6 0 0-29.8 6.3-28.2 12.5z"/><path fill="none" stroke="#000" stroke-miterlimit="10" stroke-width="6" d="M1073 516.3s-31.3 66.7-40 120.7c0 0-22 40 54.7 197.3 0 0 6 16.7 9.3 46.7 0 0 95.3-24.7 113.3 59.3l28.7 11.3 28-147.3-35.3-14.7s-12-3.3 0-9.3c0 0 64-39.3 51.3-126.7 0 0-14.7-67.3 94-97.3 0 0 50.7-18.7 111.3-10 0 0 44 6 65.3 15.3 0 0 125.3 32 198 16.7 0 0 48.7-14.7 100 49.3l85.3-49.3s8-3.3-37.3-6c0 0-10-2 10-24l36.7-53.3-62-13.3s-15.3 0 5.3-17.3l32-42h-73.3s-13.3 5.3-4-13.3l10-34.7-77.3 21.3s-8.7 3.3-2.7-14c0 0 18-51.3 13.3-80.7 0 0-26 7.3-50.7 18.7 0 0-88.7 31.3-274 39.3 0 0-66.7 2-112 7.3 0 0-86-2.7-183.3 61.3 0 0-13.3 12-7.3-8l8-36.7s5.3-8-8 4.7l-34 33.3-6 46.7s.7 19.3-16 5.3l-21.3-6.7-48.7 25.3s8 4 21.3 5.3c.1.2 33.4 2.2 17.4 19.5z"/></svg>