<svg xmlns="http://www.w3.org/2000/svg" id="hair" viewBox="0 0 3000 3000"><path id="cl1" fill="#38312E" d="M1106.7 883s-16-55.3-21.3-123.3c0 0-12.7-106.7 32-207.3 0 0 32.699-110.7 188.699-174.7 0 0 110-56.7 212-42.7 2 4 113.301.7 236.7 88 0 0 170.7 134 132 338.7 0 0 .7 8.7-4.7-14l-.699-15.3s-45.301-288-205.301-101.301c0 0-2.699.7-5.3-6 0 0-258.7-254.7-364 25.301 0 0-11.3 30-2 55.3 0 0 12.7 58-49.3 170 0 0-1.301 6.7-13.301-.7 0 0-93.3-41.3-123.3-2-.198 0-7.598 10-12.198 10z"/><path id="sd1" fill="#332C29" d="M1102.7 615.7c14 86 62 30.7 62 30.7-5.3 100.699 47.3 40 47.3 40 28 41.3 86.9 83.399 86.9 83.399-16.4 46.101-47.601 113.3-47.601 113.3-104.7-58-142.7 0-142.7 0-10.699-25.3-21.399-102.8-21.399-102.8-10-92.8 8-161.3 8-161.3l7.5-3.299z"/><path id="hl1" fill="#413935" d="M1484 336s47.3 20 60.3 37c0 0 17 16 19.7 43.7 0 0-.7 10.3 14.3 20 0 0 50.7 27 72.7 64 0 0 18 33 17 44v35s7.4 21 0 40.3l7.3 8.3s42.3-57.3 89-62v-25s-8-24-23.7-30c0 0-11-8.7 4.301-23.3 0 0 31-26.3.699-55.7 0 0-8.3-19.7-86.3-59 0 0-65.6-33-175.3-37.3z"/><path fill="none" stroke="#000" stroke-miterlimit="10" stroke-width="6" d="M1106.7 883s-16-55.3-21.3-123.3c0 0-12.7-106.7 32-207.3 0 0 32.699-110.7 188.699-174.7 0 0 110-56.7 212-42.7 2 4 113.301.7 236.7 88 0 0 170.7 134 132 338.7 0 0 .7 8.7-4.7-14l-.699-15.3s-45.301-288-205.301-101.301c0 0-2.699.7-5.3-6 0 0-258.7-254.7-364 25.301 0 0-11.3 30-2 55.3 0 0 12.7 58-49.3 170 0 0-1.301 6.7-13.301-.7 0 0-93.3-41.3-123.3-2-.198 0-7.598 10-12.198 10zm-15-247l-29.101-10.4M1253 348l21.5 44m81-28.6l-14-42m122 11.4l14-30m212.4 81.4L1705 362m40.3 30l-20.1 11.7"/></svg>