<svg xmlns="http://www.w3.org/2000/svg" id="hair" viewBox="0 0 3000 3000"><path id="cl1" fill="#463D38" d="M1057.7 839l-92 210s-44.7 94-27.3 118c0 0 24 63.3 52 78 0 0 2.7-11.3 0-41.3 0 0-3.3-33.3 13.3-1.3 0 0 44.7 70 64.7 89.3 0 0 14 12.7 26 28.7v-24.7l-4-96s-2.7-22.7 21.3 8c0 0 40.7 38.7 53.3 62.7 0 0 27.3 61.3 45.3 75.3 0 0 2-.7 7.3-22 0 0 50-152.7 48-191.3 0 0-34.7-56.7-66-104 0 0 27.3-49.3 43.3-71.3 0 0 26.7-54 46.7-75.3 0 0 8.7-2 0 23.3 0 0-12.7 78.7-20.7 96 0 0 2 4.7 18-8 0 0 78-39.3 93.3-108l19.3-144.7s8.7-93.3 24.7-119.3c0 0 8-34 63.3-61.3 0 0 66.7-37.3 159.3 30 0 0 5.3-7.3 17.3 8 0 0 8 3.3 15.3-14 0 0 48-78.7 100-10 0 0 68 65.3 89.3 164 0 0 11.3 67.3 7.3 118.7 0 0-2 42.7 13.3-11.3 0 0 32-88.7 18.7-218.7 0 0-4-100.7-149.3-240.7 0 0-128.7-122.7-251.3-30 0 0-164.7-42-277.3 10.7 0 0-135.3 61.3-146.7 193.3.3-.1-17.7 65.9-25.7 279.2z"/><path id="sd1" fill="#3F3733" d="M967.7 1152.3c1.3-34 20-60.7 20-60.7-.7 16.7 6 23.3 6 23.3 17.3 31.3 43.3 76 43.3 76-9.3-39.3 8.7-88 8.7-88 8.7 15.3 14 14.7 14 14.7 23.3 16 28.7 24.7 28.7 24.7 18.7 17.3 50.7 34 50.7 34 20-11.3 31.3-26.7 31.3-26.7 19.3-26.7 42.7-100.9 42.7-100.9l52.7 83.6c-14 115.3-55.3 213.3-55.3 213.3l-35.7-55.2c-15.1-27.9-60.3-74.8-60.3-74.8-24-35.3-24.1-18.7-24.1-18.7l4.1 123.4c-35.3-26-94.1-124.1-94.1-124.1-10.6-17.3-10.2.1-10.2.1l.3 48.7c-21.3-13.3-52-78-52-78-12.1-27 6.7-66.8 6.7-66.8l22.5 52.1zm125.3-68s84-140 117.3-286l30.7-258.7-43.3 202.7s-46 178.7-58.7 211.3c0 0-37.3 104-50.7 130.7h4.7zM1329 731l-132 268.7-106.4 97.4 112-74 92.4-144.9 13.3-49.9 23.3-97.3m-38.7 162.3s-13.9 98.4-27.2 112.4c0 0 72.3-31.8 106.8-97.6 0 0 10.7-41.2 19.8-112.9 0 0 16.8-177 49.9-203 0 0-.5-6.8 18.6-16.4 0 0 38.5-34.6 104-26.9 0 0 29.9.9 79.3 38.6 0 0 12.7 2.4 20.7 12.4 0 0 32.8-40 61.2-56 0 0 26.5-6.8 67.8 42.3 0 0 41.3 49.8 55.3 86.3 0 0 36.9 81 28.8 199.4 0 0 23.2-54.3 33.5-163.9l-3.5-.8-3.8 7.8s-7.5-25.5-8.5-37.2c0 0-11.5 50-24.3-20.8 0 0-14.2-56.2-70.8-95.2 0 0-16-17.2-61.5-31.8 0 0-29.7-10.5-53.5 23.5 0 0-13.8-47-129.8-127h-7.5s12.3 71.5 21.8 83c0 0 3.3 6-2.8 1.8 0 0-12.5-10.5-19.8-15.3 0 0 22.5 29.5 30.3 43.8 0 0-56-23.5-126.3 26.5 0 0-30.8 23-54.3 79.3 0 0-26.3 106.3-24.3 166.8 0 0-16.5 74-21.3 92.3l-58.5 59 1.5-70.3-1.6-.1zM1504 359.5c-84.5-26-171-15.5-171-15.5 22 11 131.5 43.5 131.5 43.5C1488 394 1524 406 1524 406c5.5-15.5 13-20 13-20 27-20.5 42.1-62.5 42.1-62.5-46.8 11.5-75.1 36-75.1 36zm181.3 194S1664 585 1664 596l4 2.1s11.5-20.8 22.5-31.3c0 0-1.9-6-5.2-13.3zm-99.1-.1c28.5 11 56.6 32.8 56.6 32.8-7.3-23.8-67.6-45.5-67.6-45.5l11 12.7z"/><path id="hl1" fill="#504640" d="M1182 527.3c-12.7 5.3-7.7 20.7-7.7 20.7l8.7 17.7c10.3 12.3 27.7 9.3 27.7 9.3-12 4.7-23.7 3-23.7 3l-25.3-8.3C1149.3 565 1147 552 1147 552c-22.3 9.7-59.7 2.7-59.7 2.7 8.3-70.3 51.7-112 51.7-112-11.3 87 43 84.6 43 84.6zm71-166.6s-18 15.3-20 24.7h20s23.7-3 35-1.3c0 0 18.7-.3 2.7 30.7 0 0-5.3 4.3 2.7 8.7l10.7 4s11 2.3 12.7 12c0 0 4 15 17 14 0 0 19.3 2.3 16 13.7 0 0-.9 7.3.4 11.7 0 0 15.9 12.3 28.3 12.7l37.3 1.7s10.7 3.7 1.7 13.7c0 0-5.7 13.3-3.7 22.3 0 0 7.7 9 12.7 10 0 0 1.7 3-1.3 8.7v15s12.3-16.7 26.3-50.7l-6-3.7s-1 1.7-1.7-8c0 0 3.3-3 6.3-16 0 0 2.3-11-12-17.3 0 0-7-2.3-19.3-3.3 0 0-15.7-2.7-28.7-11.7 0 0-.7-.7-10.3-1.3 0 0-.7-3.3-3.7-13.7 0 0-6.7-13-7.7-30 0 0-6-7.7-32.3-6.3 0 0-9.7 1-.7-14.7 0 0 13-18.1 9.3-43-.1-.3-47.1-.3-91.7 17.4zm402-29c13.9 7.2 27.7 25 27.7 25 .7 15.9 1 30.3 1 30.3 8.7 7 29 11.7 29 11.7 13.3 4.7 9.7 10.7 9.7 10.7l-5.7 8.3c-10.7 7-7.7 26.7-7.7 26.7l-5.7 9.7c-9 8.3-8 15.7-8 15.7 12.3 7.7 7.3 13.7 7.3 13.7-8.3 9-6.7 17.3-6.7 17.3l4-3.7c24-12 29.3-34.7 29.3-34.7 10-9.7 16-21.7 16-21.7 2.3-13.7 6.3-17.7 6.3-17.7 1-6-5.3-22-5.3-22-3.7-9 5.3-16 5.3-16-32-32.7-92.3-53.3-92.3-53.3h-4.2zm-408 300.8s-2.2 4.7-10.5 10v7s-8 10-3.5 17c0 0 .5 6 11.5 15.5l27 18s11.5 5.5 23.5-6c0 0 7.5 13.5 21 14.5 0 0 22.5 7.5 36 0l5-3s-69.4 5-62.7-36.5"/><path fill="none" stroke="#000" stroke-miterlimit="10" stroke-width="6" d="M1083.7 559.7c11.3-132 146.7-193.3 146.7-193.3 112.7-52.7 277.3-10.7 277.3-10.7 122.7-92.7 251.3 30 251.3 30 145.3 140 149.3 240.7 149.3 240.7 13.3 130-18.7 218.7-18.7 218.7-15.3 54-13.3 11.3-13.3 11.3 4-51.3-7.3-118.7-7.3-118.7-21.3-98.7-89.3-164-89.3-164-52-68.7-100 10-100 10-7.3 17.3-15.3 14-15.3 14-12.6-6.8-17.3-8-17.3-8-92.7-67.3-159.3-30-159.3-30-55.3 27.3-63.3 61.3-63.3 61.3-16 26-24.7 119.3-24.7 119.3L1380.3 885c-15.3 68.7-93.3 108-93.3 108-16 12.7-18 8-18 8 8-17.3 20.7-96 20.7-96 8.7-25.3 0-23.3 0-23.3-20 21.3-46.7 75.3-46.7 75.3-16 22-43.3 71.3-43.3 71.3 31.3 47.3 66 104 66 104 2 38.7-48 191.3-48 191.3-5.3 21.3-7.3 22-7.3 22-18-14-45.3-75.3-45.3-75.3-12.7-24-53.3-62.7-53.3-62.7-24-30.7-21.3-8-21.3-8l4 96v24.7c-12-16-26-28.7-26-28.7-20-19.3-64.7-89.3-64.7-89.3-16.7-32-13.3 1.3-13.3 1.3 2.7 30 0 41.3 0 41.3-28-14.7-52-78-52-78-17.3-24 27.3-118 27.3-118l92-210c7.9-213.2 25.9-279.2 25.9-279.2zm222.6 266.6l-13 59.3m-83-87.3s-30 116-57.3 170.7c0 0-51.3 107.3-62.7 128.7 0 0-12.7 23.3 8.7 0l100.7-69.3m464.6-430.7S1588.5 482 1572 458.5"/></svg>