<svg xmlns="http://www.w3.org/2000/svg" id="hair" viewBox="0 0 3000 3000"><path id="cl1" fill="#3E3633" d="M1482 404.5c20.5-16.5 158-15.5 158-15.5 161 10.5 218.5 138 218.5 138 61 107 54 219.5 54 219.5-5 67-21.5 54-21.5 54-21.5-14-29-56-29-56 1-19.5-10-63.5-10-63.5-42-92-92-127.5-92-127.5-35-22.5-57.5-25-57.5-25-58.5-4.5-101 60-101 60-86.5-57.5-130-33.5-130-33.5-41 11-56 77-56 77l-2.5 222.5-42-64.5c-4.301-4.5-9 0-9 0l-13.801 85.803L1285 803c-4.5-5.5-10-.8-10-.8l-18 75.8-39.801-45.5c-5.5-6-10.8-.3-10.8-.3l-22.302 79-28.301-54c-3.3-4.8-8.8-2-8.8-2l-17.915 47.3c-39-5.3-53.521 2.561-53.521 2.561-111-217 49.135-397.16 49.135-397.16 83-83 172-99 172-99 93-27 186-5 186-5 41 20 64 52 64 52"/><path id="sd1" fill="#342D2A" d="M1077.6 701.302c28 28.5 66.802 11.6 66.802 11.6 14.601-3.398 53.8-34 53.8-34 2.5-1.6 1.899.4 1.899.4-3.899 3.397-4 5.8-4 5.8-.399 7.3-.301 33-.301 33 15.301 51.5 60.801 16.897 60.801 16.897 8.601-4 26.101-30.397 26.101-30.397-.399 4 .7 6.8.7 6.8 33.3 77.3 126.8 36.7 126.8 36.7v96.3L1373 787.9c-7.2-7-13.7 1-13.7 1l-13.199 80-58.801-67.8c-7-8.3-15.199 0-15.199 0l-16.801 70.7-37.3-42.3c-8.2-7-13.801 1.7-13.801 1.7l-20.8 72-25.5-48.5c-7.302-6.2-12.7-1.2-12.7-1.2l-17.614 46.5c-25.5-5-49.72 2.36-49.72 2.36-29-48.5-38.865-143.66-38.865-143.66-7.5-43.5 11-108.397 11-108.397 6.8 32.397 27.6 50.999 27.6 50.999zM1883 680.7s-3.7 55-16 67c0 0 4.699 37.3 26.3 50.7 0 0 20 0 15-96.3 0-.1-13-6.4-25.3-21.4zm-393-276.399c34.699 17.699 59.699 50.002 59.699 50.002 1.301 5.697-5 4.3-5 4.3-49.3-53.302-64.3-51-64.3-51-12-7.302-75-8.7-75-8.7 19 6.7 44.698 39.3 44.698 39.3-55-8.3-78.301 11.3-78.301 11.3 22.301-7.3 86.301-.697 86.301-.697l6.302 12.697C1452.699 462 1403 503 1403 503c11-6.697 70.5-20.3 70.5-20.3 4.899 18.7 8.8 65.7 8.8 65.7 48-11.7 119.7 34 119.7 34 11-17.7 41.5-41.3 41.5-41.3-8.101-10.3-22.5-36.3-22.5-36.3 14.699-9.301 59.3-17 59.3-17-7.3-5.301-69-9.301-69-9.301-7.3-17.699-3.699-33.302-3.699-33.302 8.301-11.698 38.101-28.3 38.101-28.3-11.699.7-38 10.7-38 10.7-1-11.3 11-35 11-35C1509 392.7 1490 404.301 1490 404.301zm-72.2 238.001c23.801-28.2 38.801-40.303 38.801-40.303 19.801-18.3 39-21 39-21 17.699 1.303 50.199 2.5 50.199 2.5 17.301.803 43.5 0 43.5 0-35.8-22.5-75-30-75-30-33-3.5-41.8 4-41.8 4-38.7 8.5-54.7 74.803-54.7 74.803v10zm285.7-72.5c10.8-10.5 33.5-7.5 33.5-7.5 25 2.8 42.8 13.3 42.8 13.3-28.3-35-75.8-44.5-75.8-44.5-59.801-4.8-95.801 53-95.801 53 66.5.598 95.301-14.3 95.301-14.3z"/><path id="hl1" fill="#504642" d="M1250.699 426.7s-20 44-26.699 55.7c0 0-5 9.4 5 6.2 0 0 22.5-8.3 30.3-13 0 0 13.301-8.8 21.801-9.8 0 0 8-1.801 3.301 5 0 0-12.801 28-14.301 38.8l-.5 12.3s2.801 6 9.801 3.5c0 0 16.3-6 24.8-10.8 0 0 18.801-10.3 27.301-11.8 0 0 3-2 8.5-.301 0 0 4.302 3.301 0 13.5 0 0-5.5 15.301-4.301 28 0 0 4.5-3.802 13.301-7.5 0 0 7-3.5 10.5 7.5 0 0 2.302 36.301-6.301 55.301 0 0 5.5-.301 24.801-15.5l8-5.301s9.802-4.302 9.5 6.801c0 0 4 88 16.302 105v11.5s-39.5-28-47.302-45.301c0 0-13.801-24.5-14.301-40 0 0-1.8-6.5-8.5-2 0 0-39.3 22.301-52 43.5 0 0-2.5-51.5 2.801-72.5 0 0 .5-5.5.5-16.302 0 0-7-3.3-43 17.302 0 0 0-22.302 8-32 0 0 .5-1 2-7.302 0 0-11.801-8-52.5 23.802l3.802-12s1-.302-.5-6.5c0 0-6.5-.802-13 4.301 0 0-17.802 12.5-25.5 18 0 0-5-7.801 14.3-43 0 0 3-7.5-12.3-.5 0 0-30 12.5-61.302 44.5 0 0 7-47 11.5-63-.203.002 47.797-52.7 126.196-86.1z"/><path fill="none" stroke="#000" stroke-linecap="round" stroke-linejoin="round" stroke-width="6" d="M1482 404.5c20.5-16.5 158-15.5 158-15.5 161 10.5 218.5 138 218.5 138 61 107 54 219.5 54 219.5-5 67-21.5 54-21.5 54-21.5-14-29-56-29-56 1-19.5-10-63.5-10-63.5-42-92-92-127.5-92-127.5-35-22.5-57.5-25-57.5-25-58.5-4.5-101 60-101 60-86.5-57.5-130-33.5-130-33.5-41 11-56 77-56 77l-2.5 222.5-42-64.5c-4.301-4.5-9 0-9 0l-13.801 85.803L1285 803c-4.5-5.5-10-.8-10-.8l-18 75.8-39.801-45.5c-5.5-6-10.8-.3-10.8-.3l-22.302 79-28.301-54c-3.3-4.8-8.8-2-8.8-2l-17.915 47.3c-39-5.3-53.521 2.561-53.521 2.561-111-217 49.135-397.16 49.135-397.16 83-83 172-99 172-99 93-27 186-5 186-5 41 20 64 52 64 52M1791.199 584.2c-63.5-36.7-87.8-12.3-87.8-12.3-22.5 13-87.7 14.7-87.7 14.7L1581 586c-24.5 1.103-86-2.5-86-2.5-34 4.5-79.7 66.603-79.7 66.603"/></svg>