<svg xmlns="http://www.w3.org/2000/svg" id="hair" viewBox="0 0 3000 3000"><path id="cl1" fill="#3E3633" d="M1494.5 332s-143.5-23-242 32c0 0-116 43-168 109.5 0 0-46.5 48.5-53 131.5 0 0-9 78.5 19 156 0 0 21 74.5 49 126l15.5 3s8.5-30.5 34.5-35c0 0 30-11 48.5-3.5 0 0 11.5 8.5 19.5 19l87.5-4.5 1.5-76s-21.5-17-12.5-50.5l4-14s28.5-40 45.5-57c0 0 35.5-34 32-48 0 0-12.5-26.5-59.5-60 0 0-5.5-7 4.5-2 0 0 37 13.5 75 4 0 0 24-9 39-19.5 0 0 58.5-38.5 97.5-39 0 0 16.5-2 37.5 0 0 0 16.5-5 82 20.5 0 0 48.5 18 71 29 0 0 13.5 1 28-4.5 0 0 42-12 56.5-6.5 0 0 42.5 5.5 18.5 81.5 0 0-8 29-20.5 47 0 0-3.5 7 13.5-3.5 0 0 81.5-26 105.5-98.5 0 0 27-56-13.5-178.5 0 0-20-75-154-115.5 0 0-108-39.5-190.5-5 0 0-48 10.5-71.5 62z"/><path id="sd1" fill="#37302D" d="M1030.1 640.9c18.6 14.9 88.4 43.6 88.4 43.6l-.5 7.5-32.5 11 .5 7.5 82.4 28.5-49.9 33.5.5 6.5 49.4 2 54.1-7c40-12 72.5-38.1 72.5-38.1-12.5 34.4 11.5 54.1 11.5 54.1l-1.5 76-88.5 3.2c-7-8.8-21.2-18.7-21.2-18.7-19.7-5.4-45.8 4.4-45.8 4.4-24.5 2.5-37 35-37 35h-11v-6.5c-38-49.5-64.5-172.7-64.5-172.7-5.2-23-6.7-64.9-6.7-64.9m106.4-220.4s63.8 74.1 111.3 97.6c0 0 41 32 63 43.5l36 27 2.3-5.5-33.3-27.5s-5.5-8.5 21.7 2.5l.3-4s-59-31.5-90.5-72.5c0 0-48.7-45.3-62.8-90.9 0 0-25 8-47.9 27.9m157.7 3s8.5 62.5 101 132c0 0 22-8 37-18 0 0 15.7-13.6 33-18.5 0 0-83.5-34.5-133.5-66 0 0-16-12-28-24.5l-9.5-5zm124-21.5s31.5 76.5 69.5 107c0 0 19-7.2 44-8l-3-3.5s-53-28.5-110.5-95.5zm85-89.2s-26.8 47.1 3.6 136.9c0 0 23.1 37.8 47 49.1l27.3 2.3s-4.4-28.1-4.9-50.6c0 0 1-53.5 27.5-95.5 0 0 42.5-71.5 84.3-99 0 0-129.8-17.9-184.8 56.8zm251.5 14.7S1620.5 365 1603 444c0 0-12.5 35.6-8 60.1 0 0 18.5 5.4 34.5 7.9 0 0 .5-102 125.5-181.5zm-51.7 214.4c37.8 13.4 35.2 4.6 35.2 4.6 167-52.5 67.7 119.8 67.7 119.8 87.7-84.7 74.8-155.6 74.8-155.6-32-95.8-96-78.7-96-78.7-103.5-3.5-127.4 91.8-127.4 91.8l45.7 18.1z"/><path id="hl1" fill="#483F3B" d="M1147 557s63-20.3 134.7 7.3c0 0 19.1-3.8 42 8.6 0 0 38.8 14.4 51.4 53.9 0 0-8.5 17.8-21.3 31 0 0-35.8 38-48.8 65.2 0 0-24.7 24-53.3 34 0 0 66-90 72-109.3 0 0-20.7 4-56 36l34.7-60.7s-20-57.3-112 22c0 0 7.7-28 44.7-66-.1 0-59.4-26-88.1-22zm650-232c-16.7-2-41.3 16-41.3 16 162 9.3 173.7 165.3 173.7 165.3v-38.4c-3.1-56.4-47.7-116.3-47.7-116.3C1813 279.7 1705 265 1705 265c34.8 8 92 60 92 60z"/><path fill="none" stroke="#000" stroke-miterlimit="10" stroke-width="6" d="M1566 270c82.5-34.5 190.5 5 190.5 5 134 40.5 154 115.5 154 115.5C1951 513 1924 569 1924 569c-24 72.5-105.5 98.5-105.5 98.5-17 10.5-13.5 3.5-13.5 3.5 12.5-18 20.5-47 20.5-47 24-76-18.5-81.5-18.5-81.5-14.5-5.5-56.5 6.5-56.5 6.5-14.5 5.5-28 4.5-28 4.5-22.5-11-71-29-71-29-65.5-25.5-82-20.5-82-20.5-21-2-37.5 0-37.5 0-39 .5-97.5 39-97.5 39-15 10.5-39 19.5-39 19.5-38 9.5-75-4-75-4-10-5-4.5 2-4.5 2 47 33.5 59.5 60 59.5 60 3.5 14-32 48-32 48-17 17-45.5 57-45.5 57l-4 14c-9 33.5 12.5 50.5 12.5 50.5l-1.5 76-87.5 4.5c-8-10.5-19.5-19-19.5-19-18.5-7.5-48.5 3.5-48.5 3.5-26 4.5-34.5 35-34.5 35l-15.5-3c-28-51.5-49-126-49-126-28-77.5-19-156-19-156 6.5-83 53-131.5 53-131.5 52-66.5 168-109.5 168-109.5 98.5-55 242-32 242-32 23.5-51.5 71.5-62 71.5-62zm-71.5 62S1469 460.8 1557 503.2m324 10.5c-28-130-158.7-68.7-158.7-68.7-48.7 22-64.7 81.8-64.7 81.8M1187 648.3s-40 45.3-99.3 57.3c0 0-14.7 5.3 11.3 8l74.7 23.3s12.7 2.7-18 16l-34 20.7s-10.7 6.7 10 5.3l75.3-2.7s46.6-4.5 90-47.2"/></svg>