<svg xmlns="http://www.w3.org/2000/svg" id="hair" viewBox="0 0 3000 3000"><path id="cl1" fill="#3E3633" d="M1098 467s-66 37.5-86.5 137.5c0 0-18 86 30 185.5 0 0 25.5 53 39 68.5 0 0 14.5 18.5 34.5 26.5 0 0 39.5 2 53-5 0 0 36.5-7 50.5 16 0 0 37 37 59 41.5 0 0 10.5-1 9-14 0 0-8.5-91-5.5-108.5 0 0-8.2-6.5-55.7 25.5l65.5-46.5s25.7-15 47.7-60c0 0 10-49-8-91.5 0 0 0-9-24.5-23.5 0 0-30-27-48-57 0 0 46.3 36.5 70.5 44.5 0 0 51.5 19 79.5 17.3 0 0 22.8 4.8 58.5-15.5 0 0 107-58.5 139-71.8 0 0 35.3-14 72.3-5.3 0 0 96.8 22.3 82 60.3 0 0-31.8 57-70-1.8 0 0-.8-2.3-1.8 10.8 0 0 6.8 37.8 36 52.5 0 0 26 22.5 103-32 0 0 5.5-5.5 12.5 6.5 0 0 46.5 102.5 50.5 180.5 0 0 3 10 7-4.5 0 0 20.5-124.5 22-171.5 0 0-7-79.5-35-143.5 0 0-10-50-76-115 0 0-28-40.5-144.5-76 0 0-131-44.5-270-26 0 0-95-.5-201 82.5l-55.5 45.5s-1.5 4 6 4.5l18 17s5.5 10.5-6 1c0 0-42.1-52-146.8-23.5 0 0-16.2 7.5 9.3 8 0 0 68 6.5 87 77 0 0-1.5 14-7-4s.5-12.5.5-12.5z"/><path id="sd1" fill="#342E2B" d="M1204.3 511c-12-63.3-6-156-6-156C1327 249 1513 272.3 1513 272.3c-123.3 64-136 253.3-136 253.3 10.7 48 29.3 60 29.3 60 82-4.7 146.7-54.7 146.7-54.7 89.3-52.7 168-13.3 168-13.3 78 30 62 74.7 62 74.7-19.3 38-44.7 32-44.7 32l-47.7-14.1-1.6-15.9 8 5.3c47.3 47.3 64.2-17.4 64.2-17.4-1.8-30.1-53.3-41.8-53.3-41.8-74.4-30.6-134.9 11.5-134.9 11.5-62.7 43.6-148.6 71.6-148.6 71.6-46.6 7.8-86.7-13.9-86.7-13.9l-59.6-20c15.4 24 31.8 31.7 31.8 31.7 44.9 31.1 35.1 88.3 35.1 88.3-4 60.7-66.3 93-66.3 93 1 33.6 7.6 118.5 7.6 118.5 1.5 17.4-8.8 16.4-8.8 16.4-18.8-3.5-66.3-49.7-66.3-49.7-13.8-14.4-43.2-7.8-43.2-7.8-23 5-58.4 2.5-58.4 2.5-70.1-51.8-93-163.5-93-163.5-27.1-134.6 35-207.1 35-207.1 94.5-21.8 152.7-.9 152.7-.9zm646.5 71.9l-18.3 37.2s33.8 69.8 42.8 106.7c0 0 16.1 60.1 16.8 79.1 0 0 3.6-7.5 14.4-63.8 0 0 9.8-74.5 9.2-107.2 0 0-56.3 21.6-59.7-52.1h-5.2z"/><path id="sd2" fill="#2C2724" d="M1000 403s70-31.5 131.5 0l66-52.8s-4.3 114.8 6.9 160.8c0 0-58.8-19-148.8 0l39-47.5c-.1 0-11.6-47-94.6-60.5z"/><path id="hl1" fill="#3A3330" d="M1040.8 606.5l13 5.8c3.5 7.5 3.3 11.3 3.3 11.3 2.3 9 8 10.5 8 10.5l18.8-.3c8.5 7.8 10.3 13.5 10.3 13.5 13.5 16.3 35 6 35 6 7.3-5 18-3.8 18-3.8l6 8.8c9.5 21.3 33.5 4.8 33.5 4.8 15.3-11.5 15.8-10.5 15.8-10.5 2.3 13.3 4.5 11 4.5 11 17.5-10.8 40.3-41 40.3-41-8.5 11.5-9 25-9 25-5.5 21-22 45-22 45-2 16.5-8 4-8 4-.5-10.5-9-3.5-9-3.5-8 5.5-13.5 23-13.5 23-9.5 13-22.5 1-22.5 1-11-15.5-17-3.5-17-3.5-3.5 8-9 2.5-9 2.5-13-22-21.5 0-21.5 0-7.5 19.5-13.3 11.5-13.3 11.5-7.8-6-12.7-18-12.7-18-7.5-19-16.5-1-16.5-1-11 12.5-13 0-13 0-3-9-3-18-3-18-1.5-21.5-7-15-7-15-10.5 7-16 18-16 18-13 15.5-18 8-18 8-10.4-52 23.5-95 23.5-95m549.5-292.3C1553.7 316 1519 332 1519 332l5.7 3 16 .3c16.3-.3 3.3 7.3 3.3 7.3l-24.7 11.7h19.7c14.3-2 1.7 3.7 1.7 3.7-11.3 2.7-48.7 17-48.7 17-39.7 13.3-92.7 67.3-92.7 67.3 43.7-22 131.3-24.7 131.3-24.7 27.7-1.3 25-3 25-3-11.3-4-49.7-10.3-49.7-10.3 28.3 1 66.3-13.3 66.3-13.3-20.3 1.3-12.7-2-12.7-2 6-4 36.7-14 36.7-14-37-2-9.7-15.3-9.7-15.3 33.7-9.3 26-13.3 26-13.3-34.7-10 6-22 6-22 22-8.3 78.3-11 78.3-11-27-9.3-69.7-22.3-69.7-22.3-26.1-3.4-70 8.7-70 8.7 14.6 1.2 32.2 14.5 32.2 14.5z"/><path fill="none" stroke="#000" stroke-miterlimit="10" stroke-width="6" d="M1097.5 479.5c5.5 18 7 4 7 4-19-70.5-87-77-87-77-25.5-.5-9.3-8-9.3-8C1112.9 370 1155 422 1155 422c11.5 9.5 6-1 6-1l-18-17c-7.5-.5-6-4.5-6-4.5l55.5-45.5c106-83 201-82.5 201-82.5 139-18.5 270 26 270 26 116.5 35.5 144.5 76 144.5 76 66 65 76 115 76 115 28 64 35 143.5 35 143.5-1.5 47-22 171.5-22 171.5-4 14.5-7 4.5-7 4.5-4-78-50.5-180.5-50.5-180.5-7-12-12.5-6.5-12.5-6.5-77 54.5-103 32-103 32-29.3-14.8-36-52.5-36-52.5 1-13 1.8-10.8 1.8-10.8 38.3 58.8 70 1.8 70 1.8 14.8-38-82-60.3-82-60.3-37-8.8-72.3 5.3-72.3 5.3-32 13.3-139 71.8-139 71.8-35.8 20.3-58.5 15.5-58.5 15.5-28 1.8-79.5-17.3-79.5-17.3-24.3-8-70.5-44.5-70.5-44.5 18 30 48 57 48 57 24.5 14.5 24.5 23.5 24.5 23.5 18 42.5 8 91.5 8 91.5-22 45-47.7 60-47.7 60l-65.5 46.5c47.5-32 55.7-25.5 55.7-25.5-3 17.5 5.5 108.5 5.5 108.5 1.5 13-9 14-9 14-22-4.5-59-41.5-59-41.5-14-23-50.5-16-50.5-16-13.5 7-53 5-53 5-20-8-34.5-26.5-34.5-26.5-13.5-15.5-39-68.5-39-68.5-48-99.5-30-185.5-30-185.5C1032 504.5 1098 467 1098 467s-6-5.5-.5 12.5zm735 140.7c71.5-94.8-66.1-175.8-66.1-175.8"/></svg>