<svg xmlns="http://www.w3.org/2000/svg" id="hair" viewBox="0 0 3000 3000"><path id="cl1" fill="#AB0400" d="M1295 222l71.3 78s5.3 9.7-11 9l-170-9.3s-39-2.7-61.3-9.3c0 0-6.7-1 2.7 7 0 0 41.7 38.3 72.3 54.7 0 0 6.3 8.7-11.3 8 0 0-33.7-4-57-11 0 0-58-22.7-81.3-37.7 0 0-11.7-7.7-4.3 7.7 0 0 37.7 79.3 78.7 105.7 0 0 6.3 9.3-17 8.7l-112 1.7-47-20.3s-10.7-1.7 0 9.3l28.7 29.3 112.3 53s17.7 2-1.3 14.3l-114 82.7s-11 7 9 3.3l55.7-11s16 .7-2.7 14.3l-80.7 63s-9 12 10.3 4l107.7-32.7s19 .7-4.3 18.7L974 758s-7 10 9.3 3.7l83.7-30s12.3-2.7 4.3 10.3l-68.7 155s6.7 3.7 17 1.3c0 0 146.7-22.7 160-24.7 0 0 7.3-2.3 12.7 27.3 0 0 16.7 62 19 73.3 0 0 3.3 5.3 8.3-5.3l130-168s9-9.7 9 3.7l-22.3 134s1.7 5.3 9.7-7.3l84-118s9.7-5.7 10 3.3c0 0 4.7 88 2.3 105 0 0 2.3 5.7 12.7-13l104.7-177s8.7-13.3 12 0c0 0 7.3 33.3 10.3 106 0 0 2.7 4 12-16l55.7-123s5.3-9 10 3.3c0 0 31.3 76.7 43.3 121 0 0 6 11.7 6-6.3 0 0 8.3-132.3 6.3-198 0 0-1.3-18.3 10-5.3l30.7 31.3s3.7 1.7 8.7-8l11.3-17s6.3-7.7 11.7 4.3c0 0 74 201.3 74 296.7 0 0 6.3 1.3 9.7-10l10-21.3s3.7-8.3 10.7 2.3l14.7 26.7s6.3 8 6.7-9l6.3-66.3s2.7-10.7 11.7-1.7l28.3 24.7s4.7 4.7 2.7-14.7l-20.7-109s-3-12.3 8.3-7l60.7 21.3s4.3-1.3-2.3-11l-78.7-120.3s-5.7-11.7 6.3-8c0 0 69.3 15.3 83.7 23 0 0 9.3 3.7 1.3-7l-75.3-66s-5.7-11 8.3-12.3c0 0 102.7-4.7 120.7-1.3 0 0 13.7 3.3-9-11.7 0 0-156-69.3-192-79 0 0-12.7-2 2.3-14.7 0 0 90.3-84.7 98-93 0 0 8.7-5-25 2.3 0 0-126.3 24.7-160.3 32.3 0 0-13 4.3-9-10.7 0 0 30.7-156.7 31.7-174.7 0 0 4-10.3-13.3 9.7L1687 329s-12 14.7-10.7-11l-2.7-92.3s.3-10.3-8.7 8.3l-25.7 54.7s-6.3 12-15.7-10c0 0-40.3-72-47-90 0 0-3-8.3-3.7 16 0 0 2 78 7 95.7 0 0 3.3 29-15.7 1.3 0 0-89.7-104.3-111-139 0 0-3.3-5.3-4 10l-9.7 101.7s-1.3 7-13.7-.7c0 0-100-43.3-126-58 .3 0-8-6-4.7 6.3z"/><path id="sd1" fill="#850300" d="M1398.3 459.7s90-40.7 136-21.3c0 0 71.3-45.3 128-54.7 0 0-20 23.3-40 47.3 0 0 112.7-13.3 130.7 11.3 0 0-53.3 6.7-83.3 7.3 0 0 63.3 8.7 80 18.7 0 0-70 4.7-86 23.3 0 0 72-9.3 103.3 36 0 0-87.3-30-135.3-24 0 0-47.3 33.3-72.7 71.3 0 0 10.7-52 16.7-68l7-12.7s-85.7 30.7-121.7 61.3c0 0-10-2 14.7-31.3 0 0 41.9-47.3 62.3-56.7 0 .2-83.7-11.8-139.7-7.8zm-356.6-153.4c3.3 45.3 76 119.3 76 119.3l.7 6-120 2.7-60-22.7 38 41.7 115.3 53.7-2 8.7C1065 527 965 610.3 965 610.3l70.2-14.1 1.8 8.8c-95.3 68.7-88 79.3-88 79.3l117.4-36 12.6 1.3C1037 678.3 969 769 969 769l98-37.3 8 4-74.7 166 185.1-23.3 25.6 104L1349.7 801l8 2-23.3 126 4 16.7 92.8-129.1 6.5.4 1.3 105.3 11.3 3.3 114-194 6.7 5.3 11 100.7 5.7 2.7 62-141.7 9.3 1.7 44.4 123.4c-12.3-127.3-47.7-150-47.7-150-3.3 4.7-57.3 82-57.3 82 0-20.7-7.3-59.3-7.3-59.3l-25.3 16-15.3 7.3 10.7-13.3c16.7-18 21.7-41.3 21.7-41.3-16.3 11.3-96.3 48.7-96.3 48.7 6-14.7 10-20.7 10-20.7 13.3-13.3 35.3-48.7 35.3-48.7l-109.3 41.3c9.3-16.7 10-81.3 10-81.3l-83.3 40-71.3 25.3c19.3-47.3 53.3-92 53.3-92-12.7 1.3-82.7 27.3-82.7 27.3-12.7 6-29.3 5.3-29.3 5.3 8-35.3 96-118.7 96-118.7-35.3 11.3-149.3 20.7-149.3 20.7 30-16.7 153.3-97.3 153.3-97.3 5.3-4.7 12-8 12-8-24.7-3.3-130.9-51.5-130.9-51.5-47.2 11.8-158.7-49.2-158.7-49.2z"/><path id="hl1" fill="#710300" d="M953 679s117.3-47.3 149.3-52.7c0 0-13.5 15.8-23.1 20.6 0 0-34.3 2.1-60.3 15.4L953 679zm113.3 53.3l7.3 3.3-22.3 54c9.7-19.3 51-87.3 51-87.3-25.3 10.7-102 53.2-102 53.2l66-23.2zm120 140l10.7-52-163.3 71.3c14 10.1 152.6-19.3 152.6-19.3zm173.4-77.3l-7.3-58.7C1333.7 755 1229 949.7 1229 949.7c131.3-160 130.7-154.7 130.7-154.7zm80-39.3s-91.6 142.7-101.1 184c0 0 80.6-106 96.2-128-.1 0 4.2-35.4 4.9-56zm80.6-19.4s-58.1 131.6-76.5 186.1c0 0 79.8-129.9 94.1-154.1l-16.5-32M1783 583l-18 53.2s14.8-30.4 20.7-15.7c0 0 52.2 122.4 79.4 299.5 0 0 19.1-35.7 22-33.3 0 0 1.5-5.7 0-17 .1 0-68.1-232.7-104.1-286.7zm112 150s21.2 75.5 28.3 105.1c0 0 11.1 8.3 36.4 27.9l2.7-14.7c-.1 0-48.1-91.6-67.4-118.3zm115.7 23.7l-7.7-12.3c-16-16-96.7-74-96.7-74l35.3 62.7c20.1 8.6 69.1 23.6 69.1 23.6zm-79.6-140l60.7 14.3c-21.9-12.7-96.8-38.7-96.8-38.7 24 16 36.1 24.4 36.1 24.4zm14.6-49.4l16.7-11h112.7v-7.6c-20.6-4.9-180.1-5.8-180.1-5.8l50.7 24.4zm-144-323.6s-40.6 122.4-51.3 161.3l25.7-14c-.1 0 26.9-126 25.6-147.3zM1970.3 359s-116 75.3-140.7 91.3l39.2 9.2c0 .1 72.2-73.8 101.5-100.5zm-390.6-49l22.6 19c-4-25.3-28-139.8-28-139.8-1.9 24.2 5.4 120.8 5.4 120.8zm-140-35.7l54 35.3-9.3-36c-7.3-26-31-111-31-111-4.4 16.4-13.7 111.7-13.7 111.7zm-82.7 23.4l13.3 5.3 40.7 10-114.7-98.8c-3.3 10.6 60.7 83.5 60.7 83.5z"/><path fill="none" stroke="#000" stroke-miterlimit="10" stroke-width="6" d="M1295 222l71.3 78s5.3 9.7-11 9l-170-9.3s-39-2.7-61.3-9.3c0 0-6.7-1 2.7 7 0 0 41.7 38.3 72.3 54.7 0 0 6.3 8.7-11.3 8 0 0-33.7-4-57-11 0 0-58-22.7-81.3-37.7 0 0-11.7-7.7-4.3 7.7 0 0 37.7 79.3 78.7 105.7 0 0 6.3 9.3-17 8.7l-112 1.7-47-20.3s-10.7-1.7 0 9.3l28.7 29.3 112.3 53s17.7 2-1.3 14.3l-114 82.7s-11 7 9 3.3l55.7-11s16 .7-2.7 14.3l-80.7 63s-9 12 10.3 4l107.7-32.7s19 .7-4.3 18.7L974 758s-7 10 9.3 3.7l83.7-30s12.3-2.7 4.3 10.3l-68.7 155s6.7 3.7 17 1.3c0 0 146.7-22.7 160-24.7 0 0 7.3-2.3 12.7 27.3 0 0 16.7 62 19 73.3 0 0 3.3 5.3 8.3-5.3l130-168s9-9.7 9 3.7l-22.3 134s1.7 5.3 9.7-7.3l84-118s9.7-5.7 10 3.3c0 0 4.7 88 2.3 105 0 0 2.3 5.7 12.7-13l104.7-177s8.7-13.3 12 0c0 0 7.3 33.3 10.3 106 0 0 2.7 4 12-16l55.7-123s5.3-9 10 3.3c0 0 31.3 76.7 43.3 121 0 0 6 11.7 6-6.3 0 0 8.3-132.3 6.3-198 0 0-1.3-18.3 10-5.3l30.7 31.3s3.7 1.7 8.7-8l11.3-17s6.3-7.7 11.7 4.3c0 0 74 201.3 74 296.7 0 0 6.3 1.3 9.7-10l10-21.3s3.7-8.3 10.7 2.3l14.7 26.7s6.3 8 6.7-9l6.3-66.3s2.7-10.7 11.7-1.7l28.3 24.7s4.7 4.7 2.7-14.7l-20.7-109s-3-12.3 8.3-7l60.7 21.3s4.3-1.3-2.3-11l-78.7-120.3s-5.7-11.7 6.3-8c0 0 69.3 15.3 83.7 23 0 0 9.3 3.7 1.3-7l-75.3-66s-5.7-11 8.3-12.3c0 0 102.7-4.7 120.7-1.3 0 0 13.7 3.3-9-11.7 0 0-156-69.3-192-79 0 0-12.7-2 2.3-14.7 0 0 90.3-84.7 98-93 0 0 8.7-5-25 2.3 0 0-126.3 24.7-160.3 32.3 0 0-13 4.3-9-10.7 0 0 30.7-156.7 31.7-174.7 0 0 4-10.3-13.3 9.7L1687 329s-12 14.7-10.7-11l-2.7-92.3s.3-10.3-8.7 8.3l-25.7 54.7s-6.3 12-15.7-10c0 0-40.3-72-47-90 0 0-3-8.3-3.7 16 0 0 2 78 7 95.7 0 0 3.3 29-15.7 1.3 0 0-89.7-104.3-111-139 0 0-3.3-5.3-4 10l-9.7 101.7s-1.3 7-13.7-.7c0 0-100-43.3-126-58 .3 0-8-6-4.7 6.3z"/></svg>