<svg xmlns="http://www.w3.org/2000/svg" id="hair" viewBox="0 0 3000 3000"><g id="图层_14"><path id="cl1" fill="#E4D256" d="M1333 69s-36.5 158-44.5 201c0 0 1.5 9.5-24 0l-253-82.5s-12-7 0 15L1111 409s4.5 7-24.5 7.5L930 430s-7.5-.5 9.5 13l119 98s10 8-2 8.5l-149 67.5s-8 0 9.5 5.5l63.5 12s9 4-5.5 14c0 0-50 54-73.5 77.5 0 0-7 5.5 10.5 7l91.5 14s4.5 3.5-2.5 22l-48 137s2.5 4.5 10 0l50-32.5s5.5-3 2 18l-7.5 98.5s-3 9 7-2.5l38.667-37.12S1074 935.5 1068.5 971.167c0 0 29.302-11.786 50.333-22 0 0 1.024-13.685-5.333-56.667 0 0 21.5-26.5 58.5-17.5l2.5 1 23.5-66s44 58 62 63l-.5-69s18.5-145.5 35-182.5l182.5 220s2.5 4.5 5.5-14c0 0 17.5-74.5 32-195 0 0 26 30.5 65 77.5 0 0 14-40 21.5-73 0 0 16 24.5 71.5 127 0 0-2 8.5 79-98 0 0 39 73 59 124.5 0 0 6 11 6-13V697s2.5-15.5 20.5 7.5c0 0 9 0 27.5 87 0 0 12 36 12.5 163.5 0 0 5.5-6.5 19.5-43.5L1916 855s3-10.5 10 1.5l19 27.5s4.5 8.5 4.5-17.5V778l14 9s1.5-9-4-23.5c0 0-30.5-117.5-36.5-142 0 0-1-5 11 2.5l143 52s14.5 11-7.5-17.5l-113-127.3 47.5 17.3s8.5 3-5.5-13.5l-98-91s-8-3.5 9.5-9.5l61-27s4.5-4-20.5-12.5l-128-52.5s0-8.5 13-26L1905 188s-114.5 42-198.5 75c0 0-5 5.5-12.5-24l-62.5-178.5s-.5-5.5-11.5 11l-115 149s-5 12.5-20-11c0 0-130.5-119.5-152-140.5z"/><path id="sd1" fill="#BB8344" d="M1011.5 202.5L1227 455s-67.101 23.101-75 43.101L1150 488l-42.101-74.5L1099 388l-87.5-185.5zm51.199 344.2L1103 555l-143.2-95.3c44.8 38.7 102.899 87 102.899 87zM979 634.2l3.3 7.8 53.7-31-119.5 11.301C929.699 629.1 979 634.2 979 634.2zm129-43.2l-89 111 38-6-41 140.5s36-22.5 54-28.5l-30.51 155.51s37.51-40.51 29.01 7.657c0 0 20.003-7.882 50.333-22 .931-15.185-7-56-7-56s25.667-29 62.667-17.167l23.5-66s-21.4-18.499-31.4-35.499c0 0-18-23-40.5-74C1126 700.5 1108.5 673 1108 591zm247.5-240.699l-31 54.699 81.5-36.5 48 60.5c0-16 10-68 10-68l157.5 33.5c-15.5-6-116.5-51-116.5-51 19.5-6.5 112-26.8 112-26.8l-141.5 2.3-48-39-23 44-30-14-158.5 43.5 139.5-3.199zm18.3 81.199s-85.8 47-126.8 174c0 0-8.5 136.5 9 221.5 0 0 6.3-205 117.8-395.5zm-8.3 19.9s-40 69.199-68.601 173c0 0 139 157.699 152.899 180.699 0 0-21.399-41.699-43.399-82.3 0 0-84.7-122-40.7-246L1511.8 651l2.3-18.699c0-.101-124.6-159.601-148.6-180.901zm8.3-19.9l-5.3 16.5s194.3 240.301 207.399 257.601V701c.001 0-36.099-88.199-202.099-269.5zm254.899 82.1L1601 637l17.3 29.101s30.101-80.8 39.399-104.399c0 0 54.4 80.101 33.9 181.399l59.199-78.601 49.2 100.7s-5.601-43.5-15-66.8c0 0-54.7-189.801-212-267.101l-3.301 5.699s46.7 56.7 53.301 68.301l5.701 8.301zM1731 538.301S1807.699 679 1820.3 697h10l133.3 86-6-12.699-226.6-232zM1842.1 711.5s40.301 104.801 38.301 212.2L1895 749l-52.9-37.5zM1909 769l10.699 76L1945 884l-36-115zm14.3-148.699c4.3-1.301 14.399.699 14.399.699 28 13.301 142.101 51.9 142.101 51.9l-16.101-12.301c-31.301-20.3-237.301-159.699-237.301-159.699l96.902 119.401zM1882.8 447l15.899-5.3 65-32.7c-39.3 6-91.3 22.301-91.3 22.301L1882.8 447zm20.1-255s-95.2 115-113.899 147.7l63.3 20-.601-5.2-25.4-10.4-4-5.101L1902.9 192zm-263-107.6s15.101 145.2 25.8 199.2l40-16-65.8-183.2zM1500 223.801L1361.8 96.1c11.5 21.1 117.8 168.2 117.8 168.2l30-43.301-9.6 2.802zm-217 48.5l-267.301-78.7 293.699 114c-1-43.7 27.301-235.101 27.301-235.101L1283 272.301z"/><path fill="none" stroke="#000" stroke-miterlimit="10" stroke-width="6" d="M1485 209.5c15 23.5 20 11 20 11l115-149c11-16.5 11.5-11 11.5-11L1694 239c7.5 29.5 12.5 24 12.5 24 84-33 198.5-75 198.5-75l-69.5 128.5c-13 17.5-13 26-13 26l128 52.5c25 8.5 20.5 12.5 20.5 12.5l-61 27c-17.5 6-9.5 9.5-9.5 9.5l98 91c14 16.5 5.5 13.5 5.5 13.5l-47.5-17.3 113 127.3c22 28.5 7.5 17.5 7.5 17.5l-143-52c-12-7.5-11-2.5-11-2.5 6 24.5 36.5 142 36.5 142 5.5 14.5 4 23.5 4 23.5l-14-9v88.5c0 26-4.5 17.5-4.5 17.5l-19-27.5c-7-12-10-1.5-10-1.5l-19.5 56.5c-14 37-19.5 43.5-19.5 43.5-.5-127.5-12.5-163.5-12.5-163.5-18.5-87-27.5-87-27.5-87-18-23-20.5-7.5-20.5-7.5v80.5c0 24-6 13-6 13-20-51.5-59-124.5-59-124.5-81 106.5-79 98-79 98-55.5-102.5-71.5-127-71.5-127-7.5 33-21.5 73-21.5 73-39-47-65-77.5-65-77.5-14.5 120.5-32 195-32 195-3 18.5-5.5 14-5.5 14l-182.5-220c-16.5 37-35 182.5-35 182.5l.5 69c-18-5-62-63-62-63l-23.5 66-2.5-1c-37-9-60.167 18.167-60.167 18.167 12.316 44.5 7 56 7 56-13 8-50.333 22-50.333 22 7.731-32.476-15.333-20.787-15.333-20.787L1014.5 987.5c-10 11.5-7 2.5-7 2.5l7.5-98.5c3.5-21-2-18-2-18L963 906c-7.5 4.5-10 0-10 0l48-137c7-18.5 2.5-22 2.5-22L912 733c-17.5-1.5-10.5-7-10.5-7 23.5-23.5 73.5-77.5 73.5-77.5 14.5-10 5.5-14 5.5-14l-63.5-12c-17.5-5.5-9.5-5.5-9.5-5.5l149-67.5c12-.5 2-8.5 2-8.5l-119-98c-17-13.5-9.5-13-9.5-13l156.5-13.5c29-.5 24.5-7.5 24.5-7.5l-99.5-206.5c-12-22 0-15 0-15l253 82.5c25.5 9.5 24 0 24 0 8-43 44.5-201 44.5-201 21.5 21 152 140.5 152 140.5zm352 495s77 51.5 112.5 73.5m7-246.8S1869 431 1837 395m-85.5 271s-35.101-74.3-119.301-169.399c-25.5-28.8-55.4-59.5-90.199-90.601m59 231s29.899-92.1 28.5-143.5m-115 139L1363 446m16-23s-48 74-84.5 198.5M1178 476c-40 25-57 72-57 72-11 34-9 89-9 89 8 86 86 173 86 173"/></g></svg>