<svg xmlns="http://www.w3.org/2000/svg" id="hair" viewBox="0 0 3000 3000"><path fill="#0E294E" d="M1157.3 666.7v189.7c0 12.699 12.601 43.3 12.601 43.3s-43.816 23.237-82.816 38.237-93.386 41.763-93.386 41.763c-14 8-18 31.3-18 31.3-9.3 22.7-10.699 6.7-10.699 6.7 2-38.7 6.699-72.7 6.699-72.7C963 840.302 979 824.302 979 824.302c20.698-32.7 67.3-61.302 67.3-61.302 16.7-12 15.3-13.3 15.3-13.3L1055 660l102.3 6.7zm211.8 5.102s-33.5 74.898-40.398 159.101h66.1c-.104-.003-23.702-130.903-25.702-159.101zm43.2 159.098h290.3c8.9-72.801-16.8-186.101-16.8-186.101-63.899-11.602-235 8.5-235 8.5-8.4 27.503-38.5 177.601-38.5 177.601zm363.1-172.7s-31.7 122.102-59.399 172.8l90.101-.1 1.698-60.2c-.102-.1-20.001-96-32.4-112.5z"/><path id="cl1" fill="#293243" d="M929 297.5s19 42.5 46 85.5c0 0 55 74 83 103 0 0 9.698 10.302-9.7 5.302 0 0-78.7-24.302-134-74 0 0-6.3-4 0 10 0 0 16.3 33.3 34.7 55l84.3 89.3s17.3 13-5.7 10.301c0 0-75.3-9-98.699-7.301 0 0-8.301-.3 2.699 7.7 0 0 97 51.3 119 74l4.3 3.698 102.3 6.7s-6.698 121.3 0 177v12.7s10.7 38 14 47.699l41.7 139.7 21.699 50.698s3.301 2 4.301-10l18.699-184.3s1-24.3 8.7-.3l35 86.3s4.3 4.7 5.3-7.7c0 0 20.301-127.698 21.7-145l6.3-55s20.301-86.3 27-98.3c0 0 5.601-25.3 9.301.8 0 0 11 88 13.3 103.5 0 0 12.302 54.302 15.5 69.5 0 0 5.5 20.5 10.5-12.5l17-85.8s16-80.5 23.5-102.3c0 0 20-74 39.5-92.301 0 0 15.802-16.801 33.5 8.801 0 0 20.302 21 41.302 63.5 0 0 9-38.801 20.5-65.801 0 0 25.3-51 61-9.301 0 0 27.8 37 39.3 86.5 0 0 29.301 100.801 15.801 194.301 0 0-4 33 14.5-8 0 0 44.5-94.5 57.5-166 0 0-1-25.5 13.5 21.5 0 0 20.5 61.5 21.5 94 0 0-7 158.5-12.5 191.5 0 0 1.5 13.5 16-20.5 0 0 14.5-42 26-65.5 0 0 5-12 5 15 0 0 5.5 109.5 2.5 141.5 0 0 4.5 7.5 13-12 0 0 26-53 34.5-79 0 0 21-77 29-226.5 0 0 1-15.5 7.5 2.5 0 0 24 57 27.5 78 0 0 3.5 33 3 51 0 0 4.5 2.5 16.5-52 0 0 15.5-71.5 9.5-124.5 0 0-8-63.5-19-94 0 0-49-136.5-146.5-190 0 0-77.5-58-191-69.5 0 0-155-25.5-274.5 6l-52 8.5s-81.5-8.5-219.5-58c0 0-14-5 7 16 0 0 50.5 55.5 62.5 71.5 0 0 15.5 25.5-19.5 16.5 0 0-97-16.5-201-90.5-.103-.096-5.702-3.795-3.603.904z"/><path id="sd1" fill="#1C222E" d="M1155 520l-95.102-28.1L972.5 379c-16.7-22.898-35.802-65.3-35.802-65.3C1009.3 384.302 1155 520 1155 520zm-207.7-39.698L1037 574.7c9 8 0 8.3 0 8.3-19.7-2-110.9-6.3-110.9-6.3C1043.8 642.1 1055 660 1055 660l102.698 6 3-57.698C1094.3 602 922 434.7 922 434.7l25.3 45.602zM1234 622l-77 198 .3 36.302s44.3 167.3 63.7 206.198l15.398 34.5 5.199-39.198 17.9-167.899s1.3-3.5 8.398 14l36 86.101 20-124.001 8-63s11-60.6 17.102-82.3l15.898-50.101 2-4.5-4.5-37.5L1286 862l-52-240zm169.5 240.5l12-43c9-57 35.3-166.3 35.3-166.3 19.6-11.6 234.1-12.1 234.1-12.1 30.399 58.7 16.601 208.2 16.601 208.2 20.5-39.602 20-91.899 20-91.899 3.5-99-31-173.5-31-173.5-19.5-46.5-53-45-53-45-29 .5-38.5 11.101-38.5 11.101-15.801 8-34 83.199-34 83.199L1535.4 584.1c-27.2-44.5-47-21.199-47-21.199-21.601 17.399-104.899 204.601-104.899 204.601C1387.5 792 1403.5 862.5 1403.5 862.5zm129.5-388s12 73.5 15 93.5l15.5 6 64.5-89.5-41 22.5-2.5-42.5L1556 507l-23-32.5zM1776.5 633s-8 28.5-6 40.5l6-11.5 10.5 21.5s29.5 68.4 18 168.2c0 0-.5 89.3-9 120.3 0 0 3.698 5.802 9.898-7.3l20.602-52.1s7-145 0-181c0-.1-30.5-67.6-50-98.6zm87-6s5.898 98.802.198 118.4l-22.1 135.9s6.899 118.2 3.899 161.199c0 0 4.199 7.199 16.5-19.199 0 0 30.601-61.602 37.301-100.102l9.699-80.101C1909 843 1874 670 1863.5 627zm55.1 6l3.9 88.7s10.398 8.102 33.398 78.7c0 0 4.102 41.1 4.602 62.1l6.198-19.6s2.302-31.4-2.198-52.4c0 0-8.802-122.5-45.9-157.5zM1080 287.5c88.5 86.5 78 101 78 101 18.3.2 14.5-15 14.5-15-6-13.5-35-43-35-43-30.5-39.5-58.302-45.3-58.302-45.3"/><path fill="#133667" d="M1072 660.5l-.5 6.5c1 19 7.5 84.5 7.5 84.5 49 36.5 75.698 49.602 75.698 49.602l.601 15.898-9.799 5.102c-16-7.5-70.701-50.3-70.701-50.3l-18.398-11.2 5.301-10.8L1051 660.6l21-.1zm-21 99.1s-67.5 39.301-78.5 83.601c0 0-3.9 46.7-3.102 63.801l4.602-4.5s4-19 17-34c0 0 9.8-23 19.1-32 0 0 28.9-39 40.9-48 0-.002 9.5-12.902 0-28.902zM974 954s-6.4 42.802-4.7 68.4c0 0 6.866-50.9 52.866-71.232 0 0 38.334-12 11.434-14.866 0 0-16.5-3.7-32.3 13.3 0-.102-8.3 6.898-27.3 4.398zm470.6-276.5c139.101-27 245.199-16.5 245.199-16.5l-4.101-16.198c-22.801-8.302-235 8.5-235 8.5L1444.6 677.5z"/><path fill="none" stroke="#000" stroke-miterlimit="10" stroke-width="6" d="M932.5 296.5c104 74 201 90.5 201 90.5 35 9 19.5-16.5 19.5-16.5-12-16-62.5-71.5-62.5-71.5-21-21-7-16-7-16 138 49.5 219.5 58 219.5 58l52-8.5c119.5-31.5 274.5-6 274.5-6 113.5 11.5 191 69.5 191 69.5C1918 449.5 1967 586 1967 586c11 30.5 19 94 19 94 6 53-9.5 124.5-9.5 124.5-12 54.5-16.5 52-16.5 52 .5-18-3-51-3-51-3.5-21-27.5-78-27.5-78-6.5-18-7.5-2.5-7.5-2.5-8 149.5-29 226.5-29 226.5-8.5 26-34.5 79-34.5 79-8.5 19.5-13 12-13 12 3-32-2.5-141.5-2.5-141.5 0-27-5-15-5-15-11.5 23.5-26 65.5-26 65.5-14.5 34-16 20.5-16 20.5 5.5-33 12.5-191.5 12.5-191.5-1-32.5-21.5-94-21.5-94-14.5-47-13.5-21.5-13.5-21.5-13 71.5-57.5 166-57.5 166-18.5 41-14.5 8-14.5 8 13.5-93.5-15.802-194.3-15.802-194.3-11.5-49.5-39.301-86.5-39.301-86.5-35.8-41.8-61 9.3-61 9.3-11.5 27-20.5 65.802-20.5 65.802-21-42.5-41.3-63.5-41.3-63.5-17.801-25.5-33.5-8.802-33.5-8.802-19.5 18.302-39.5 92.302-39.5 92.302-7.5 21.8-23.5 102.3-23.5 102.3l-17 85.801c-5 33-10.5 12.5-10.5 12.5-3.301-15.301-15.5-69.5-15.5-69.5-2.301-15.5-13.301-103.5-13.301-103.5-3.801-26-9.301-.801-9.301-.801-6.699 12-27 98.301-27 98.301l-6.301 55c-1.3 17.3-21.699 145-21.699 145-1 12.3-5.301 7.699-5.301 7.699l-35-86.3c-7.699-24-8.699.3-8.699.3l-18.699 184.301c-1 12-4.301 10-4.301 10l-21.699-50.7L1171.3 904c-3.3-9.698-14-47.698-14-47.698v-12.7c-6.7-55.699 0-177 0-177L1055 660l-4.302-3.698c-22-22.7-119-74-119-74-11-8-2.698-7.7-2.698-7.7 23.299-1.699 98.698 7.301 98.698 7.301 23 2.699 5.699-10.301 5.699-10.301L949 482.302c-18.302-21.7-34.7-55-34.7-55-6.3-14 0-10 0-10 55.3 49.698 134 74 134 74 19.3 5 9.7-5.302 9.7-5.302-28-29-83-103-83-103-27-43-46-85.5-46-85.5-2.1-4.698 3.5-1 3.5-1zM1251 702.302c-6 84 8.6 187.5 8.6 187.5m581.4-6s20.6-86.102 24-158.102m59.3-6.898s3.3-57.102-12-114.5m-742-20.602c-8 16.7-13 83-13 83m0 0v189.7c0 12.699 12.601 43.3 12.601 43.3s-40.816 21.237-82.816 38.237c-40 11.5-93.384 41.763-93.384 41.763-14 8-18 31.3-18 31.3-9.3 22.7-10.698 6.7-10.698 6.7 2-38.7 6.698-72.7 6.698-72.7C963 840.302 979 824.302 979 824.302c20.698-32.7 67.3-61.302 67.3-61.302 16.7-12 15.3-13.3 15.3-13.3L1055 660l102.3 6.7zm208 11.5c-27.101 64.8-29.5 65.2-36.7 152.7h66.102c-.003 0-24.003-127.7-29.402-152.7zm47 152.7h290.3c8.9-72.801-16.8-186.101-16.8-186.101-63.899-11.602-235 8.5-235 8.5-8.4 27.503-38.5 177.601-38.5 177.601zm363.1-172.7s-31.7 122.102-59.399 172.8l90.101-.1 1.698-60.2c-.102-.1-20.001-96-32.4-112.5zm-720.3 98.2L1097 789s38.898 33.102 58.398 31.2M971 950.4c28.6 3.399 60-35.4 60-35.4 23.3-26.698 66-126 66-126"/></svg>