<svg xmlns="http://www.w3.org/2000/svg" id="hair" viewBox="0 0 3000 3000"><path id="cl1" fill="#FC9556" d="M1394 167s52 79 59 110c0 0 13 35-6 54 0 0-31 40-59 62 0 0-98 74-148 109 0 0-31.7 17-68.3 43.7 0 0-60.7 49.3-83.3 110 0 0-23.3 45.3-25.3 108 0 0-2 74.7 3.3 98.7 0 0-4 6 8.7 10l112.7 44s6.7 4 4.7-21.3c0 0-6.7-95.3-1.3-132 0 0 10-74 20.7-103.3 0 0 14.7-55.3 40.7-82.7 0 0 40.7-52 92-66 0 0 30.7-16 94-18.7 0 0 48-6.7 154.7 24.7 0 0 33.3 6.7 49.3-4 0 0 98-50 90.7-194.7 0 0-10-74-123.3-134.7 0 0-44.7-3.3-62.7-4 0 0-4.7 4.7-11.3 8.7 0 0 2 7.3-63.3-14.7l-12.7 8.7-13.3 8.7s-24-4.7-48.3-26.7l-4.4 2.6z"/><path id="sd1" fill="#D9814A" d="M1108.3 623.7s-6.7 124.7 42 141.3h21.3s4.7-269.3 238.7-292l-26.7-40.7s110.7 44.7 141.3 49.3c0 0 70.7 18 90.7 10.7 0 0 35.3-11.3 52.7-23.3l29.3-23.3s-33.3 69.3-79.3 70c0 0-46.7-4.7-75.3-15.3 0 0-118-34.7-202 8.7 0 0-74 24.1-111.3 102.7 0 0-30 35.9-38.7 151.3 0 0-7.3 65.4 0 151.7L1069.7 870s-5.8-56.3-2.7-108.4c0 .1-2.7-54.6 41.3-137.9z"/><path fill="none" stroke="#000" stroke-miterlimit="10" stroke-width="6" d="M1609.7 183.7C1723 244.3 1733 318.3 1733 318.3c7.3 144.7-90.7 194.7-90.7 194.7-16 10.7-49.3 4-49.3 4-106.7-31.3-154.7-24.7-154.7-24.7-63.3 2.7-94 18.7-94 18.7-51.3 14-92 66-92 66-26 27.3-40.7 82.7-40.7 82.7C1201 689 1191 763 1191 763c-5.3 36.7 1.3 132 1.3 132 2 25.3-4.7 21.3-4.7 21.3l-112.7-44c-12.7-4-8.7-10-8.7-10-5.3-24-3.3-98.7-3.3-98.7 2-62.7 25.3-108 25.3-108 22.7-60.7 83.3-110 83.3-110C1208.3 519 1240 502 1240 502c50-35 148-109 148-109 28-22 59-62 59-62 19-19 6-54 6-54-7-31-59-110-59-110m101 66s-30-61-47-83m121 83l-43-76"/></svg>