<svg xmlns="http://www.w3.org/2000/svg" id="hair" viewBox="0 0 3000 3000"><path id="cl1" fill="#F29847" d="M1126.3 227.7s19.3 161.3 27.3 179.3c0 0 7.301 12-6.699 7.3 0 0-150.7-32.7-180-35.3 0 0-2.7 1.3 11.3 13.3 0 0 154.5 132 177.3 142 0 0 11.3 6.7 0 8.7 0 0-169.3 46.7-210.6 66.7 0 0-5.3 4.7 12 8L1081.6 647s13.301.7-.699 14.7L960.3 821s-4.7 6.7 10 2.7l116-29.3s13.3-2.7 5.3 7.3l-72 125.3s2 8 14.7-4.7c0 0 27.52-19.829 50-34l25.3-16 29.301 3.3 64 128.7 38.699-20-18.699-228 4.699-4.7 34.7 79.301s4.7 5.3 13.3-11.301l32-60.699s5.301-10 10 1.3L1347 817s6-.7 8.7-6.7l56.7-111.3s6.699-14 10 .7l29.3 98s6 13.3 10-2l18-98.7s3.3-10.7 10.7 0l52 96.7s8 14 10.699-4l14.7-125.3s2.7-12 11.3-.7l90 120.7s12.7 14 8-4l-8.699-85.3s-.601-14.699 9.699-2l91.601 106.7s11.3 11.3 7.3-7.3l-14.7-84.7s-.7-14 10-2.7l84 95.301s8 13.3 11.3-2l6-10.7 3.301 2.7s4.699 58 7.3 84.699c0 0 6 25.301 8 44 0 0 2.7 16 7.3-3.3l24-178.7s-.7-12.699 14-.699l88.7 45.3s16 6.7 4-8l-78.7-106s-10-10 .7-12l46-10s14.7 0-.7-8l-59.3-26s-8-3.3 2-7.3l82.7-32.7s12.699-6-4.7-11.3l-152.7-60s-15.3-4 .7-9.301l62.7-33.3s15.3-8-6.7-6l-56 2.7s-15.3 0-.7-7.3l63.3-49.3s13.301-12-6.699-6.7L1815 405.7s-12 2.7-6.7-10.7l46.7-114s12-25.3 18.7-40.7c0 0 12-20.7-15.3.7l-130.7 91.3s-7.3 12-12-14l-42-102s-1.3-22.7-11.3 0l-40.7 102s-6.7 18.7-14.7-.7l-82.7-118s-2.7-14.7-9.3 0c0 0-28 88-31.3 111.3 0 0-3.3 17.3-13.3-.7 0 0-94.7-119.3-99.301-136.7 0 0-2.699-15.3-11.3 3.3-8.6 18.6-52 134.7-60.7 181.3 0 0 .7 12.7-17.3-4.7l-146-122c-.099.3-10.299-10.2-9.499-3.7z"/><path id="sd1" fill="#F37024" d="M1129.6 224.5c20.601 56 103.9 218.5 103.9 218.5 7.5 12.5 4.5 12.5 4.5 12.5-19.5-3.5-79.7-41.8-79.7-41.8-16-56.7-28.8-187.2-28.8-187.2m235.5-57.8s-46.5 100.8-64 191.8l56.5 66s-9-195 10.5-252l-3-5.8zm507 66.8s-96.5 175-105.5 186.5c0 0 16.5 4 39-15 0 0-3.5-4.5 3-19 0 0 55.5-135 63.5-152.5zm51.7 161.8s-62.7 40.7-78 52.7c0 0-28.3 21-34.7 21.7l13.3-2.3s24.7-5.301 34.3-12c0 0-5.699-4.301-1-9.301l66.1-50.799zm103.3 171l-8.7-3.3s-104 21.7-121.3 24.3l35.7 17.7s.7-2 12.3-6.3l82-32.4zm-34.3 75.7l-90-6 41.7 19 48.3-13zm-69 84c-.7-5.4 96.7 46.7 96.7 46.7l-99.301-80 2.601 33.3zm-19.4 69.7l-4.3-53.3-19 46 6.3 75.699c3.7 24.301 9 53.7 9 53.7l16.3-125-8.3 2.901zm-60.3-16s-43-70-104.3-158c0 0-1.7-.7-2.7 9 0 0-4.3 31.7-7.3 41.7 0 0-28.3-23-36.3-34.7 0 0-3.7-4-12-11.7 0 0-6.7-3.7-12.301-18.3v44h-2.699l-47.7-88.7s3 71 2 84l-62-90-2.3 98-25.7-44.7-4.3 41-14.7-39-13.3 63.7-14-37.7s-12.301 36.3-20.301 62l-6.3-64.7-23.3 54-7-28-19 23-3-11L1378 718s0-11.3 6-55.3l-66 69 2.3-32.3-37.7 44.699s10.7-38.699 13.301-48l-44 45.301s10.699-35 14.3-45l-26 27.699-7.3-7.3V691l-49.301 45.7L1204 677s-96 67.3-103.3 73.7c0 0 12.7-26.7 17.3-35 0 0-98 65-154.3 106.7L1090 791s9 1.7 4.3 12L1023 926.3l11-6.7s18.468-10.645 52.3-34.699l23.3-16.301 20.301 2 12.3 5.301 60.3 123.3 25-12.3-4.699-19-16.7-15 1-40.7H1196l8.7-48.7L1197 809l32-63.7 37.9 85.7 39.399-74.7s7.7-10.3 13 .7l30.5 59.1 62.8-122.5s8.301-6.699 11.7 1.301l33 104.699 21-103.3s4.7-13.7 13.3-1l56.7 101.3 18.3-137s3.7-7.699 10.7-.3l97.3 129.7s3.4-12-7.3-94.3c0 0-.3-15.3 9.3-5l97.801 113.2.8-5.2-14.7-91.7s.301-12.7 10.301-4L1844 781.7zM967.1 380.6c19.4 16.3 88.9 73.1 88.9 73.1l107 85.3c38.7 7.7 75.6 5 75.6 5-78.699-19.3-140.6-62.3-140.6-62.3-14.7-4.3-122.3-100-122.3-100l-8.6-1.1zm323.2 98.7l10.7 38.3-75.3 10.7 96.3 16.1 18.3 37.899 4.7-51.5 95.7-19.5H1342c0 .001-26-14.299-51.7-31.999z"/><path id="hl1" fill="#F3E9B7" d="M975.7 381.7s146.3 28.7 166.5 31.6l12.399 1.5L1192.4 465l-216.7-83.3zm184-43.4v9.3l28.7 50.7V385s12.8 14.9 21.3 21.3c0 0-14-23.3-21.3-40.7 0 0 37.3 15.3 79.3 54.7 0 0-34.7-39.3-45.3-62.7 0 0 52.699 33.3 69.3 37.3 0 0-29.3-29.3-40-43.3 0 0 44.7 25.3 58.7 34.7 0 0-34.7-32-53.301-43.3l-61.3-35.3s-1.3 4.7 6 13.3l18.7 26.7-30.7-14 12 15.3-26-13.3 13.3 16.7-29.399-14.1zm215.9-155.4s32.7 87.4 119.7 212.8l-18.3-74s-56.8-67.6-101.4-138.8zm143.6 10.6S1577 313 1626.4 381.6c0 0-2.7-36.1-10-55.7l-97.2-132.4zm202.6 140.9s-4.8 15.9-14.1 32.6c0 0 150-117.7 164.3-131.5l-150.2 98.9zM1836 498.7c-9.3.7-44.7-28-44.7-28 4 10.7 11 32.3 11 32.3 2 7.7-1.3 5-1.3 5-39-41.7-48.3-39.3-48.3-39.3 4.7 9.3 13 31 13 31L1736 473c-17-15.3-20.3-11-20.3-11 4 6.3 10.7 25.3 10.7 25.3 4 13.7 1 19.7 1 19.7-5.7-4.3-8.301-10.3-8.301-10.3-13.3-28.3-23-31.7-23-31.7l-.699 8.7c4.3 12.7 9 40 9 40 .699 13.3 0 24 0 24-6.301-1.7-11-16-11-16-23.2-39.3-27.7-39.3-27.7-39.3 2 11 1.3 53.3 1.3 53.3-2.3 19.3-8 22.2-8 22.2-4.7-1.801-5.7-9.2-5.7-9.2-3-3.7-10.3-54.3-10.3-54.3l-2-2c-4.3 15-1.3 63.699-1.3 63.699-6.3-10.3-29.3-27.3-29.3-27.3 36.3 47.7 53.699 113.7 53.699 113.7-4.3-40.3 3-52 3-52l36.2 60.5c-19.8-54.2-8.9-77.1-8.9-77.1 14 16.7 26 40.7 26 40.7-8-24-12.699-57.301-12.699-57.301 14.699 1.301 23.3 27 23.3 27 16 23 15.3 11 15.3 11-11.3-17.3-15.3-42.699-15.3-42.699 32.7 33.3 38 31.699 38 31.699-10.7-21-12-37-12-37 42 42 48 37 48 37-10-8.3-21.3-31-21.3-31-5.301-14 0-17.3 0-17.3 22.699 9.3 60 33.3 60 33.3-24.7-18-26.7-44.699-26.7-44.699 24 4.699 93.3 52.699 93.3 52.699-18.1-27.899-98.7-112-98.7-112L1836 498.7zm-302.3 95c-8.3-17.3-20-50.7-20-50.7-5.7 31-13.7 43-13.7 43l-18.7-32c-1.7-11.7-4-7.7-4-7.7-3.7 10.7-12 34-12 34l2.7-22c2-11.7-6-4.7-6-4.7-11.7 16.7-44.7 52-44.7 52l3.3-39.3-24.699 35c-19.7 24.7-15.301 6-15.301 6 5.301-12.3 22.301-37.7 22.301-37.7-19 19.301-43.301 40.301-56.7 50-13.399 9.7-10.3 5-10.3 5 19.699-28 21-34.3 21-34.3-9.301 3-42 35-42 35-15 14.3-22.301 14-22.301 14-1.699-6 0-10.3 0-10.3 8.7-14.7 9.301-20.7 9.301-20.7-10 5.3-50.301 37.7-50.301 37.7-19 14.3-12.699 1.3-12.699 1.3 5.3-11 13.3-23.3 13.3-23.3-8.7 3.7-64.7 41-64.7 41-28.699 18.3-1.699-10.4-1.699-10.4 20.3-22.1-25.7 7.801-25.7 7.801-10.7 9-30.7 16.699-30.7 16.699-12.7 4.301-10 .301-10 .301l10.3-13c-12.7 9.699-66.7 75.3-66.7 75.3-17.699 20.3-10.699 18.1-10.699 18.1 30.899-29.6 91.399-65.1 91.399-65.1-9 7.3-36.899 42.7-36.899 42.7-5.601 11.5 0 8.5 0 8.5 11.1-7.601 58.899-48.101 58.899-48.101 24.9-23.7 49.301-30 49.301-30l-14 34.2c27.3-29 49-43.3 49-43.3-7 11.3-10 55.3-10 55.3 18.399-34.6 42.3-56.3 42.3-56.3.3 8.3-6 46-6 46 38.3-46 46.3-46.4 46.3-46.4l-19 41c-3.7 9.7 2.7 3.3 2.7 3.3 24.7-33 46-53.3 46-53.3-1.3 10.7-15.7 44.7-15.7 44.7 40.7-57 58.3-50.3 58.3-50.3 0 12-2.3 42.7-2.3 42.7 15-52 25.3-64.301 25.3-64.301l-.699 9.301c-3.7 9.3-6.7 37.699-6.7 37.699h3c8.7-25.699 18-32.3 18-32.3 3.7 8 4 29.3 4 29.3l2.7-1.3c1-30.7 9.699-41 9.699-41 3.301-11 10.301-10.3 10.301-10.3 5 11.7 8.3 38.5 8.3 38.5h3c.7-26.9 14-41.8 14-41.8l10.3 38.7c4.3 14.3 6 6.3 6 6.3 3.4-54.7 11.7-50 11.7-50 6.3 12.7 12.7 36 12.7 36 1.3-11.3 4-40 4-40 5.699 16.3 20.3 36.7 20.3 36.7v-87.3C1540.7 569 1533.7 593.7 1533.7 593.7zm-398-20.4c-8.3 7.7-68 29-68 29l.3 3.3 72.3-4.3c-13.3 4-46 27.7-46 27.7h11c41.7-7.3 153.3-53.7 153.3-53.7-60.3-9-119.3 8.7-119.3 8.7 42.3-15.3 83.7-38 83.7-38-27.3-1-116.3 14.7-116.3 14.7-40 6.3-90.3 27-90.3 27 21.9-1.4 119.3-14.4 119.3-14.4z"/><path fill="none" stroke="#000" stroke-miterlimit="10" stroke-width="6" d="M1135.7 231.7l146 122c18 17.3 17.3 4.7 17.3 4.7 8.7-46.7 52-162.7 60.7-181.3s11.3-3.3 11.3-3.3c4.7 17.3 99.3 136.7 99.3 136.7 10 18 13.3.7 13.3.7 3.301-23.3 31.301-111.3 31.301-111.3 6.699-14.7 9.3 0 9.3 0l82.7 118c8 19.3 14.699.7 14.699.7l40.7-102c10-22.7 11.3 0 11.3 0l42 102c4.7 26 12 14 12 14l130.7-91.3c27.3-21.3 15.3-.7 15.3-.7-6.6 15.1-18.6 40.4-18.6 40.4l-46.7 114c-5.3 13.3 6.7 10.7 6.7 10.7l107.3-14.7c20-5.3 6.7 6.7 6.7 6.7l-63.3 49.3c-14.7 7.3.7 7.3.7 7.3l56-2.7c22-2 6.699 6 6.699 6l-62.699 33.3c-16 5.3-.7 9.3-.7 9.3l152.7 60c17.3 5.3 4.699 11.3 4.699 11.3l-82.699 32.7c-10 4-2 7.3-2 7.3l59.3 26c15.3 8 .7 8 .7 8l-46 10c-10.7 2-.7 12-.7 12l78.7 106c12 14.7-4 8-4 8l-88.7-45.3c-14.7-12-14 .7-14 .7l-24 178.699c-4.7 19.301-7.3 3.301-7.3 3.301-2-18.7-8-44-8-44-2.7-26.7-7.301-84.7-7.301-84.7l-3.3-2.7-6 10.7c-3.3 15.3-11.3 2-11.3 2l-84-95.3c-10.7-11.301-10 2.699-10 2.699l14.699 84.7c4 18.7-7.3 7.3-7.3 7.3L1678 693c-10.3-12.7-9.7 2-9.7 2l8.7 85.3c4.7 18-8 4-8 4l-90-120.7c-8.7-11.3-11.3.7-11.3.7L1553 789.7c-2.7 18-10.7 4-10.7 4l-52-96.7c-7.3-10.7-10.7 0-10.7 0l-18 98.7c-4 15.3-10 2-10 2l-29.3-98c-3.3-14.7-10-.7-10-.7l-56.7 111.3c-2.699 6-8.699 6.7-8.699 6.7l-29.301-56.7c-4.699-11.3-10-1.3-10-1.3l-32 60.7c-8.699 16.7-13.3 11.3-13.3 11.3l-34.7-79.3-4.699 4.7 18.699 228-38.699 20-64-128.7-29.301-3.3-25.3 16c-23.3 13.1-50 34-50 34-12.7 12.699-14.7 4.699-14.7 4.699l72-125.3c8-10-5.3-7.3-5.3-7.3l-116 29.3c-14.7 4-10-2.7-10-2.7L1081 661.7c14-14 .7-14.7.7-14.7L957 617.7c-17.3-3.3-12-8-12-8 41.3-20 210.6-66.7 210.6-66.7 11.301-2 0-8.7 0-8.7-22.699-10-177.3-142-177.3-142-14-12-11.3-13.3-11.3-13.3 29.3 2.7 180 35.3 180 35.3 14 4.7 6.7-7.3 6.7-7.3-8-18-27.3-179.3-27.3-179.3-.9-6.5 9.3 4 9.3 4zm-.1 643.6S1120 820 1114.5 808m41-102l3.5 150s-3.5 42 9.5 0l68-137.5m666 4.5l-28.8 64.7"/></svg>