<svg xmlns="http://www.w3.org/2000/svg" id="hair" viewBox="0 0 3000 3000"><path id="cl1" fill="#4C4A58" d="M1188 364s-53 25-88 64c0 0-81 72-176 276 0 0-7 13 26-8l41-25.699 49.3-32s12.7-2-13.3 15.3l-31.301 20.7s-20 12.699-25.3 74.699c0 0-4.7 30 8 59.301 0 0 20 64.699 16 96.699 0 0-1.301 20.7 8 0l7.3-12 9.301-16.699-1.301 18.699 8 46 30 155.301s4 2.699 17.301-6.699c0 0 6.699-9.301 13.3 7l18.7 36.3s3.3 4 10-6.7l18.699-26.699 10.7 7.3 14 26.7s9.3 15.3 11.3-5.399l4.7-23.301s-13.9-72.3-46.4-69.8c0 0-10.575-3.725-39.5-25l-18.5-31s-10.5-34 18.255-59.843c0 0 18.846-30.357 42.846-21.057l18.699 4s20 96.699 108.7 153.3c0 0 17.3 12 3.3-12.699 0 0-23.3-57.301-18-110 0 0-5.3-59.301 116.7-198.7l15.3-19.3s16.7-16 6 10.699l-19.3 60.7s-8 25.3 10.699.7l118-162.7s11-13.3 13.5 16.7c0 0 29 145.5 30.5 188.5 0 0 18.5 143.5 25.5 176 0 0 2.5 10.5 10.5-7 0 0 59.301-73.5 94-187.5 0 0 50-128 59.301-184 0 0-4-8 10-2.7 0 0 63.3 32.7 96.699 144 0 0 33.301 99.3-10 218 0 0-6.699 14.7 8-2l9.301-8s3.3-6.7 8.699 4.7l12.7 18s9.3 11.3 7.3-10.7c0 0 4-46 18.7-67.3 0 0 20.699-33.301 29.3-57.301l8-16.699s2-6 5.301 5.3L1939 901s4.699 21.301 9.3-8l12-82.699s2-9.301 10 3.3c0 0 28 39.301 10-6.699 0 0-2.7-2-5.3-27.301 0 0-4-55.3-23.301-121.3 0 0-8.699-10.7 13.301 0 0 0 59.3 29.3 99.3 38.699 0 0 16.7 2.7-20.7-22.699 0 0-24-10-50-44.7 0 0-32.699-48.699-96.699-118.699 0 0-84-96.7-180.699-140.7 0 0-97.2-61.3-220.601-30 0 0-29.399-5.3-52.7-17.3C1443 323 1305.699 303.7 1188 364z"/><path id="sd1" fill="#2F2D38" d="M1044.5 645.5s-58 83-70.5 97.5c0 0 1.6-47.899 19.8-67.1l50.7-30.4zM1063 685s-47.5 63-50 129c0 0-10 63-16 83.7V911s19.699-50 23.3-67.3c0 0 24-89.7 26.7-109.7 0 0 10-39.699 16-49zm12.3 98.7c-5.3 10.7-40.102 206.473-40.102 206.473 35.302-51.673 90.457-40.336 90.457-40.336l-15.02-51.02C1124 895.5 1135.3 896 1135.3 896c-1-70 38.7-185.3 38.7-185.3-42 94.7-76.301 138.3-76.301 138.3l50-159 12.7-29 43-99.699c15.699-34.301 22.699-68.7 22.699-68.7-3 .301-33.3 54-33.3 54L1127 660.301l-65.7 121C1053.3 794 1028 845 1028 845c37-56 47.3-61.3 47.3-61.3zm-33.854 238.81l14.254 73.79s15.301-10 21-12l7 3.3 23.301 46.101 25.199-31.899 14.5 5.2 15.399 31.1 10.7-32-6.688-28.827-10.481-22.851-37.444 65.119s16.214-77.541 9.815-84.541c0 0-63.5-17-60.506-89.884l-31.912 42.897 5.863 34.495zM1280.3 675.301s-33.7 30.699-49.3 52.3c0 .099 40.699-42.3 49.3-52.3zm-55.601 60s-56.699 61-70 127.3l-16.3 34.301s11.699 0 14.699 8.3c0 0 22.801 100.399 113.899 152.199 0 0-42.3-54.8-22.3-146.199 0 0 9.699-39 35.699-77.699l29.301-45.7s57.3-68 68.3-78.3c0 0 12.7-9.7 8.7 7.3l3-5 28-87.7s-25.301 23.3-43 44.7c0 0-51.301 56-83.7 107 0 0-35.3 50.3-51.3 94.7 0 0-5.301-18.7-8.7-43 0 0-20.899 91.1-27.699 131 0 0-17.7-37.7-26.7-55 0 0-2.3-14.7-6.699-28.7.101.197-4.599-51.103 54.8-139.502zM1363.3 795L1494 620.7c4.699-6.3 10 3.7 10 3.7 4 19 28.3 145 28.3 145 4 17.699 9.7 87.699 9.7 87.699 2.699 27.301 19.5 150.7 19.5 150.7C1596.4 967.1 1636 876 1636 876c-9.4 10-61.7 85.301-61.7 85.301-1.3-16.301.7-56.7.7-56.7 4.699-22.3 11.699-49 11.699-49 13-18.699 34-84 34-84 16.301-39 22-111.699 22-111.699 3.7-20 3.301-46 3.301-46l-7 35c-7 60.5-72 186.3-72 186.3L1502 580c-1.301-4-2-10.699-2-10.699l-132.301 211.3L1363.3 795zM1471 363.7s-106.7 85.3-104 205.7c0 0 41.3-142.301 133-217.7l-29 12zm168 48.6s59.8 36.9 85.6 210.801c0 0 36.4-10.101 104.4 127.899 0 0-32-114-61.301-156 0 0-42-73.3-56-100.699 0 0-43.399-70-72.699-82.001zm206 122.001s68 97.3 100 118l8-2.7s76.699 36 114.699 44.601c0 0-103.399-54-114.699-66 0 .099-97.301-77.901-108-93.901zM1929 715s-2.7 11.301-3.301 18.7c0 0-.699 86.3-8.699 115.3h12l10.699 40S1934.3 744.301 1929 715zm-22.7 103.301s-19.3 92.699-64 152c0 0 5.7 5.399 20.8 31.399 0 0 10.301-73.899 32.4-97.7.1.1.8-59 10.8-85.699zm-275.71-480.224s40.582 9.337 61.981 20.038c0 0 106.527-55.715 129.128-87.115 0 0-85.109 55.778-191.109 67.077z"/><path fill="none" stroke="#000" stroke-miterlimit="10" stroke-width="6" d="M1188 364s-53 25-88 64c0 0-81 72-176 276 0 0-7 13 26-8l41-25.699 49.3-32s12.7-2-13.3 15.3l-31.301 20.7s-20 12.699-25.3 74.699c0 0-4.7 30 8 59.301 0 0 20 64.699 16 96.699 0 0-1.301 20.7 8 0l7.3-12 9.301-16.699-1.301 18.699 8 46 30 155.301s4 2.699 17.301-6.699c0 0 6.699-9.301 13.3 7l18.7 36.3s3.3 4 10-6.7l18.699-26.699 10.7 7.3 14 26.7s9.3 15.3 11.3-5.399l4.7-23.301s-16.9-75.8-46.4-69.8c0 0 3-40-2.345-85.164l-12.222-56.351s-41.935-11.485 17.666 4.614l18.7 4s20 96.699 108.699 153.3c0 0 17.301 12 3.301-12.7 0 0-23.301-57.3-18-110 0 0-5.301-59.3 116.699-198.699l15.301-19.301s16.699-16 6 10.7l-19.301 60.7s-8 25.3 10.699.7l118-162.7s11-13.3 13.5 16.7c0 0 29 145.5 30.5 188.5 0 0 18.5 143.5 25.5 176 0 0 2.5 10.5 10.5-7 0 0 59.301-73.5 94-187.5 0 0 50-128 59.301-184 0 0-4-8 10-2.7 0 0 63.301 32.7 96.699 144 0 0 33.301 99.3-10 218 0 0-6.699 14.7 8-2l9.301-8s3.301-6.7 8.699 4.7l12.7 18s9.3 11.3 7.3-10.7c0 0 4-46 18.7-67.3 0 0 20.7-33.301 29.3-57.301l8-16.699s2-6 5.301 5.3L1939 901s4.699 21.301 9.3-8l12-82.699s2-9.301 10 3.3c0 0 28 39.301 10-6.699 0 0-2.7-2-5.3-27.301 0 0-4-55.3-23.301-121.3 0 0-8.699-10.7 13.301 0 0 0 59.3 29.3 99.3 38.699 0 0 16.7 2.7-20.7-22.699 0 0-24-10-50-44.7 0 0-32.699-48.699-96.699-118.699 0 0-84-96.7-180.699-140.7 0 0-97.2-61.3-220.601-30 0 0-29.399-5.3-52.7-17.3C1443 323 1305.699 303.7 1188 364z"/><path id="hl1" fill="#7A778B" d="M1036.5 512.5s25.5-4.5 42 0c0 0 4.5 1.5 14.5-2 0 0 12-1.699 26 1.2 0 0 25.5-1 39 1.2 0 0 12 3.699 16 5.199 0 0-12 4-32.5 4 0 0-26.5 13.5-46 17.5 0 0-10 3.5-21.5 0 0 0-30.5 0-61.5 9 0-.099 14-25.599 24-36.099zm186.8 12l28-12.3h7l16.3-9h8.801l7.301-6.3 8.5.5c8.5 4.5 18.5 3.5 18.5 3.5l19-7.301 22.3-.3c2.801 1.8 10.5 8 10.5 8l6.301-.3 4-12.5V476h-8c-5.5 0-21.5 7.801-21.5 7.801H1328c-7.301 1.5-24.801 10.8-24.801 10.8h-3.5c2-8.3-34-2.3-34-2.3-15.3 1.8-30.8 10.8-30.8 10.8-6.899 7.2-11.599 21.399-11.599 21.399zm221.2-35.1v-2.1l-15.801 4.3 15.801-2.2zm6-1.099l19.5-1c12.5 3.8 29 4.3 29 4.3 39.8 5.2 58.3 2.801 58.3 2.801 16-4 32.5-1 32.5-1l29.8 3.8c14.301 1 34.301 10 34.301 10 6.5 5 26 4.5 26 4.5l6.5 1.301c10.301 2.5 14.101 4.1 14.101 4.1l-5.2-14.899c-8.6-2.399-17.1-8.601-17.1-8.601-7.801-2.3-18.5-3.899-18.5-3.899h-23l-10.301-3.601-14.5-.3-12-3.8c-8-1.5-47.301-2.5-47.301-2.5-4.3 2-20.3 4-20.3 4-11.5 1.5-57 0-57 0-12 3-24.8 4-24.8 4v.798zm311 13s0-1.301-1.5 5.5c0 0-.5 4.899 4.5 10.101 0 0 5.3.199 9.8 5.199 0 0 25.3-2 34 0 0 0 4 1.5 10.5 2.801 0 0 11 3 17 8 0 0 18.3 2.3 26.5 1.8 0 0 7.8-1.5 13.3-3.8 0 0 14.301-1.5 21.301.8l15.301 1-13.301-14.601s-20.5-4.399-32.801-4.601c0 0-10.3-.5-20-4l-46.3-.3s-15.3-3.3-22.3-6.8l-16-1.099z"/></svg>