<svg xmlns="http://www.w3.org/2000/svg" id="hair" viewBox="0 0 3000 3000"><path id="cl1" fill="#3E3633" d="M1315.7 568.7c.7 14.7 9 20.7 9 20.7 15.3 15 8 29.7 8 29.7-4.3 17-20.7 30.3-20.7 30.3-15.3 34.3-10.7 71.7-10.7 71.7 4.3 47 16 81.3 16 81.3 8 20.3-1.3 31.7-1.3 31.7-17.3 25-48.7 48.7-48.7 48.7-27.7 21.7-38.7 51.3-38.7 51.3-7 16-3 63.3-3 63.3-6.7-5-15.3-21.7-15.3-21.7-9-19.3-19-39.3-19-39.3-10.7-14.7-21.3-20.7-21.3-20.7-42.3-17.3-71.7-40-71.7-40-14-33-11.3-127.3-11.3-127.3 5.7-63.7 20-100.7 20-100.7 49.3-98.2 81.7-122 81.7-122 68.7-59.3 124.3-55 124.3-55l2.7 98zm66.6-44.4c88.3-51.7 234.3-78 234.3-78L1555 434c-112 25-172.7 90.3-172.7 90.3zm79 73c73.7-37 325.7-58.7 325.7-58.7-10.3-14.3-52-42-52-42-132.3-12.3-273.7 100.7-273.7 100.7z"/><path id="sd1" fill="#342D2A" d="M1117.6 627.2S1146 702 1203 700c0 0-49.3 81.8 90 158.3 0 0-28.5 21.3-41.3 36 0 0-14.6 8.6-27.8 45.5 0 0-3.8 28.8-1 51.8 0 0-14.3-21.8-29.8-56.3 0 0-8.5-19.8-30.5-25.3 0 0-45.8-17.8-63.3-35.8 0 0-14.5-36.8-10.5-130.8.2.1 3.4-72.4 28.8-116.2zm466.2-184.5c-80 15-180.8 67.1-180.8 67.1 33.7-21 196.2-63.1 196.2-63.1-5.8-2.8-15.4-4-15.4-4zm-87.6 136.5l-19.8 9.5c62.3-28 304.3-52 304.3-52-1.6-2.4-7-7.7-7-7.7-169 11.7-277.5 50.2-277.5 50.2z"/><path fill="none" stroke="#000" stroke-miterlimit="10" stroke-width="6" d="M1315.7 568.7c.7 14.7 9 20.7 9 20.7 15.3 15 8 29.7 8 29.7-4.3 17-20.7 30.3-20.7 30.3-15.3 34.3-10.7 71.7-10.7 71.7 4.3 47 16 81.3 16 81.3 8 20.3-1.3 31.7-1.3 31.7-17.3 25-48.7 48.7-48.7 48.7-27.7 21.7-38.7 51.3-38.7 51.3-7 16-3 63.3-3 63.3-6.7-5-15.3-21.7-15.3-21.7-9-19.3-19-39.3-19-39.3-10.7-14.7-21.3-20.7-21.3-20.7-42.3-17.3-71.7-40-71.7-40-14-33-11.3-127.3-11.3-127.3 5.7-63.7 20-100.7 20-100.7 49.3-98.2 81.7-122 81.7-122 68.7-59.3 124.3-55 124.3-55l2.7 98zm66.6-44.4c88.3-51.7 234.3-78 234.3-78L1555 434c-112 25-172.7 90.3-172.7 90.3zm79 73c73.7-37 325.7-58.7 325.7-58.7-10.3-14.3-52-42-52-42-132.3-12.3-273.7 100.7-273.7 100.7z"/></svg>