<svg xmlns="http://www.w3.org/2000/svg" id="hair" viewBox="0 0 3000 3000"><path id="cl1" fill="#D3D5A4" d="M1888.7 761.2c29.7 13.899 49.399 31.7 59.5 53.3 2.2-47.7-11.101-81.8-39.601-102.3-49.699-43-74.1-88-73.199-134.9-.9 46.9 23.5 91.9 73.199 134.9 28.5 20.5 41.801 54.6 39.601 102.3-10.1-21.6-29.8-39.4-59.5-53.3-.101-.101-.2-.101-.2-.101 0 7.101-1.5 14.5-4.2 22 .2 1.4-.3 4-1.399 8-.101.101-.101.4-.2.5C1868 842.9 1862.7 886.4 1866.6 922.2c.301 20-4.199 37.5-13.5 52.7-8.6 14.6-11.199 32.8-7.699 54.3 1.6 11.6-6 31-23 58.2-7.801 9.199-1.4 13.899 19.199 14.399 3.7-.3 7.301-.6 10.7-1.1 17.2-2.4 31-7.9 41.101-16.4-10.101 8.5-23.9 14-41.101 16.4-10.3 72.6-22.8 121.4-37.1 146.5 2.899 18.3 7.6 32.3 14.2 42.2l38.1-43.101 3.2 44.7 41.3-90.9c22.9-53.199 24.4-96.399 4.5-129.5-25.5-54.6-21.5-117.8 12-189.6 8-11.5 13.6-20.8 16.7-28 3.1-7 4.899-11.3 5.399-12.8.601-1.4.9-2.2 1-2.4.2-.6.4-1.1.5-1.6 35.2-110.3-15.8-241.8-153.1-394.5-35.5-38.7-100.7-73.1-195.6-103.1-41.4-13.8-86.4-16.5-135.101-8.5h-.399c-.2 0-.4 0-.601.1C1351.7 341 1252.4 378.6 1169.4 443.1c-70.301 39.601-123.601 111-160.101 214-26.1 77-29.3 143.801-9.7 200.2 16 40.8 25.2 72.7 27.301 95.7 1.1 48.9.399 87.8-2 116.7-4.9 55.1 8.6 88.5 40.3 100.3l29.6 8.9c12.3 2.399 20 14.399 23.3 35.899 3.2 21.5 7.101 34.5 11.601 39.2l14.6-50.1c-4.8 33.699 3.5 61.199 24.601 82.899 6.899-7.699 13.399-17.899 19.399-30.6l2-4.1c2.2-2 4.8-1.9 7.601.3l4.899 13.899c9.5 20.2 20.5 33 32.9 38.301 8.6-13.101 14.399-26.101 17.399-39.4 1.2-5.5-.5-9.5-5.199-11.9-30.9-28.8-50.5-54.5-58.5-76.899l-12.7-36.601c-2.5-17.5-6.3-25.6-11.1-24.399-31.9-.8-68.801-29.5-110.4-85.9-23.8-36.8-30.8-69.1-20.9-96.899 15.4-38.101 44.5-51.2 87-39.4 14 2.5 28 21.9 42.2 58 24.5 51.3 33.8 104.1 27.7 158.2l20.5-32.7.5-1.4-.5 1.4-10.5 19.1c2.7 32.601 26.1 52 70.399 57.9 16.5-2 31-10.8 43.5-26.4 7.2-9.1 12.301-21.699 15-37.6-22.3 5.6-39.699 6.3-51.8 2.1-6.8-2.3-12-6.199-15.7-11.5 3.7 5.301 8.9 9.2 15.7 11.5-2.399-18.6 1.4-35.199 11.2-49.6 8.3-17.5 12.5-31.9 12.6-43.1 0-11.2-6.399-26.301-19.199-45.4-10.101-19.7-16.301-38.2-18.601-55.4-6.8-40.8-5.6-72.2 3.601-94l-.301-.3c-37.899 12.6-62.899 29.4-75.1 50.5-18.6-46.1-11.2-88.9 22.3-128.399 55.8-47 79.3-77.4 70.5-90.801 8.8 13.4-14.7 43.801-70.5 90.801-33.5 39.5-40.899 82.3-22.3 128.399 12.2-21.1 37.2-37.899 75.1-50.5h.2c.101 0 .101 0 .3-.1 0-.101.2-.2.301-.2 35.199-21 59.5-49.8 72.899-86.4-13.399 36.601-37.7 65.4-72.899 86.4-.101 0-.301.1-.301.2-.199.1-.199.1-.3.1l.101.3 24.5 41.801L1358.9 751l-22.9 71 25.3-32.7 1 36 52.7-55.4c35.4-28.2 55.7-56.601 61.1-85.3l7.601-40C1498.5 664 1514 699.4 1530 750.8l4.6-138.3c27.2-11.3 47.4-.3 60.5 33.101l18.601 74.1c7.3-16.2 12.8-44.6 16.199-85.4l40.4 100.8 1.2-75.8 95.399 142.7 7.5-74.7c28.601 35.9 48.7 68.3 60.101 96.9 3.8-18.7 3-40.6-2.5-65.9 13 8.2 25.1 26.4 36.3 54.7 5.3-8 9.6-15.4 12.8-22.2v-.2c1.301-2.5 2.301-5 3.2-7.5 2.7-7.5 4.2-14.899 4.2-22-10.5-5-22.2-9.399-35.101-13.399-30.6-9.601-52.3-31.4-65-65.4 12.7 34 34.4 55.8 65 65.4 12.9 4 24.601 8.399 35.101 13.399 0-.001.1-.001.2.099z"/><path id="sd1" fill="#B9A756" d="M1169.4 441.6c-.2 1.801-1.4 3-2.601 4.101-33.6 34.3-59.899 73.8-80.3 117.1-13.8 29.3-22.8 60-26.9 92.3-2.699 21.301-2.8 42.7-1.3 63.801 2.101 28.199 8.4 55.8 20.8 81.6 1 2.1 2 4.2 3.301 6.2 3.699 5.7 5.8 6.3 11.199 2 8.2-6.4 17.5-10.9 26.101-16.5 2.1-1.3 4.2-3.3 7.5-2.601-6.9 21.2-7.7 43-7.3 64.9.1 5.5.1 5.5 5.1 10.3 3.3-23.1 12.3-44.5 14.8-67.6 4.601 26.2 3.601 53.3 15.601 78.6 7.199-5.899 9.3-15.6 18-21.3-.801 7.8-1.2 14.5-1.5 21.2-.7 16.3 2.199 32.5 1.899 48.8 0 1.9.5 4 1.101 5.8 6.199 18.601 13.6 36.7 24.1 55.601 8.7-23.301 17.5-45.101 31.5-64.301-.7 11-4.1 21.2-7.4 31.4-6.5 19.6-11.699 39.5-17.8 59.2-2.1 6.7-1.7 12.899.5 19.5 2.8 8.3 6.5 16 10.5 23.699 2.2 4.2 3.3 8.5 3.5 13.301.6 17.199 5 33.199 14 48.199 5.6 9.4 13.4 15.301 23.2 19.4 9.899 4.2 20.399 5.8 30.8 7.9-10.7 9.3-23.2 9.5-35.8 6.1-17.4-4.7-32.4-13.7-43.601-28.2-7.1-9.199-9.6-18.8-2.199-29.3 2.899-4.1 5-8.6 7.399-13 .9-1.6.5-3.5-1-4.4-1.6-.899-3.399 0-4.3 1.5-3.8 6.301-7.4 12.601-11 19-2.1 3.7-4 7.4-6.2 11.5-2.199-2.8-1.199-5.1-1-7.1 6.601-69.6-11.3-133.2-47.6-192.2-4.3-7-8.8-12.6-17.9-15.6-11.1 60-11.1 27.5-29.133 21.656-21.1 1.8-14.872 17.923-26.271 36.224-4.801 7.699.859.878-1.34 9.579-.7 2.9 4.312 16.375 7.653 24.962-2.175-6.588-46.675-12.921-48.608-31.921-8.399-39.8-22.301-80.3-34.301-119-7.2-23.1-7.6-46.5-5.8-70.1 5.1-68.5 29.8-130.601 62.7-189.9 11-19.8 23.3-38.8 36.1-57.5 7-10.2 14.6-19.7 24.3-27.5 19.7-16.4 38.6-33.1 59.5-47.4zm-144.3 605.1c-1.399 23-1.6 45.8.801 68.699 2.8 26.301 16.199 44.301 40.399 54.7 5.5 2.4 11.101 4.4 16.9 5.9 5.5 1.399 11 2.7 16.3 4.6 8.2 2.9 13.3 8.5 14.5 17.4.5 4 1.1 7.899 1.8 11.8 2.5 13.6 6.5 26.8 13.4 41.5 4.4-16.8 7.7-31.3 12.9-45.3 2-3.8 2.5-1.3 2.5.7.1 7.8 1 15.699-.5 23.5.399 4.3.899 8.6 1.199 12.899 1.4 16.9 11.101 29.2 22.801 41.601 6.5-8.9 12.8-16.601 17.5-25.4 2.1-3.9 2.3-9.9 8.699-9.3 5.9.5 6.5 5.899 7.9 10.3 4.6 14.7 13.5 26.6 24.2 37.3 2.8 2.8 5.699 5.601 10.6 5.7 5.3-12.4 10.7-24.9 15.4-37.7 2-5.399 1.399-8.899-3-13-16.4-15.1-31.7-31.3-46.2-48.3-5.1-5.9-9-12.3-11.4-19.7-6.699-20.5-15.199-40.399-18.899-61.899-1.4-8.301-10.4-70.5-18.9-70.7-13.2-.3-17.511 1.447-27.61-6.553-17.9-14.301-19.201-16.832-34.401-34.232-8.215-12.723-7.297-11.291-16.48-26.293C1063 973.25 1030.469 972.313 1026.9 953c1.201 32.4.1 61.6-1.8 93.7zm304.2-303.6c-14.2 22.2-30.1 44.801-54.899 56.801-3.2 1.6-6.601 4-5.101 6.899 4.3 8.2 11.2 18.2 15.5 26.4 1 1.899 3.2 10 6 10.3 18.9-26.6 41.101-57.9 60.9-83.7.8-.6 3.5-4.5 4.2-4.7.8.101 1.1.601 1 1.301 0 1.3-1.801 8.399-2.9 9.6-2.3 8-5.5 15.6-9.1 23.2-3.9 8.399-7.801 16.899-9.4 26.2-.4 2-1.7 4.5 2.2 4.399 1-1.7 2-3.399 3-5.2 4.1-7.199 15.6-23.1 18.3-22.5 2.8.7 3.1 8 2.9 10.301-.5 6.699 1.399 13.8.8 22.3 4.5-4.2 5-7.7 8.3-10.2 10.4-7.9 19.5-17.1 27.8-27.2 5.101-6.2 10.4-12.2 16.2-17.7 12.4-11.6 24-24 35.5-36.5 6.9-7.5 12.1-15.8 15.9-25.1 7.699-18.6 13.5-37.6 13.5-57.9 0-2.3 0-5 2.6-6 2.7-1 4.2 1.4 5.7 3.101 6.7 8 11.1 17.399 15.2 26.899 9.1 21.101 15.8 43.101 22.199 65.2.7 2.4.801 5.1 4.301 7.6v-40.899c-4.2-4-5.9-9.601-8.301-14.601-13.1-27.6-32.1-52-44.399-80.1-.9-2.2-2.2-4.8-5.3-5.4 0 6.2.1 12.101 0 18.101 0 3.6.5 7.399-.801 10.899-5.199 13.601-9.6 27.601-17.3 40.2-10 16.5-20 32.9-28.9 50-5.699 10.9-11.1 22.2-21.5 32.5 3-12.8 8.301-23 9.2-34.399-15.2 16.1-26.8 35.399-47.6 48.5 6.899-28.5 10.6-55.801 17.699-82.601-16.8 17.8-28.3 39.2-42.399 60.8-1.2-9.3 2.5-22 2.399-29-4.798 5.599-9.498 15.999-13.398 22.199zm624.3 82.8c-9.6-26.2-41.5-54.7-62.6-63.7-2.6 16.3-6.2 32.7-12.8 49.6-4.101 7.2-6.3 14.601-7.8 22.4-3.9 19.899-8.5 39.8-6 60.3 1.399 11.3 1.6 22.6.899 33.9-.8 14-2.1 28.1-9.5 40.399-6.5 10.9-8.899 22.8-10 35.2-.5 5.3-1.399 10.7-.899 15.9 2.399 23.899-7.801 43.2-21.301 61.6-7.8 10.5-6.699 12.7 5.801 16.7 2.899.9 5.8 1.4 8.8 1.6 17.8.9 35.5-1.5 48.5-14.1 6.8-4.5 5.8.2 9.6-2.3 8.7-11.801-4-10.601-10.5-7.5-13.8 6-27.899 10.8-42.7 13.199-4.199.7-8.3 1.301-12.3-.1-.5-3.5 1.9-4.6 3.4-6.3 3.7-4.2 7.8-8.2 11.3-12.601 6.1-7.6 9.7-16.199 12-25.8 2.6-10.9 6.8-21.3 6.6-33-.1-7.5 1-15.2 1.801-22.8.6-5.8 1.899-11.5 6-16.5 8.6-10.6 10.1-23.3 6.5-35.9-6.801-23.399-8.4-46.7-4.801-70.8 2.801-18.4 12.7-32.5 24.9-45.3 6.2-6.6 12.2-7.9 18.8-4.1 13.6 7.703 22.6 19.203 26.7 34.403 5.2-7.4 7.5-15.8 9.6-24.4zm-760 26.6c4.5-5.5 18.601-20.9 24.4-24.9 17.9-12.399 32.1-18.199 51.6-27.3 10.101-4.7 26.101-15.399 33.7-23.6 10.101-10.7 18.4-21.101 25.9-33.7 4.6-7.7 8.7-14.4 13.399-22.1 6.101-14.7 6.9-18.801 8.9-40.301.4-3.899 1.5-8.5-2.1-12.899-9.2 11.1-19.601 20.399-27.5 31.899C1312.6 713 1301.6 725 1291.1 737.3c-12.899 15.101-29.3 25.8-45.6 36.7-14.3 9.6-28.4 19.5-39 33.6-6.5 8.7-10.1 18.5-14.5 28.101 0 4.599-2.7 10.299 1.6 16.799zm658.7 248.2c-4 .6-2.899 11.699-2.5 15.899.601 6.7-1.399 13.101-2.399 19.7-5.601 35.8-13.2 71.2-30.301 103.6-1.6 3.101-2.3 6.2-1.1 9.601 2.5 7.5 4.3 15.3 7.9 22.399 5.199-6.899 12-12.399 16.899-19.6 12.7-18.7 23.2-38.1 21-61.8-.399-4.7.7-9.2 2.101-13.7 3.8-12.7 7.699-25.3 8.399-38.8.4-8.9 3.2-17.2 9-24.601 5.601-7.199 16.601-22.3 15.101-28.699-11.6 10.501-28.5 13.801-44.1 16.001zm-63.2-416.5c2.2 6.3 6.7 14.899 10.301 20.5 10.6 16.6 26.899 29.2 43.899 38 14.8 7.6 33.3 10.5 48.7 16.7 18.6 7.399 43.6 32.699 56.4 49 .199.3-4.601-27.301-4.801-30.9-.1-2 0-4-1.399-5.7-.3 2.7-.601 5.5-1 8.601-1-.801-1.601-1.101-1.9-1.601-15.2-24.5-37.8-40.6-62.3-54.399-13.3-7.5-26.7-14.801-40.1-22-7.101-3.9-13.5-8.7-18.101-15.301-12.5-17.8-23.1-36.399-23.6-59.199-4.5 9.3-7.2 18.899-7.4 29.3C1787 668.7 1787.7 680 1789.1 684.2zm-106.1-7.6c25.9 38.7 51.9 77.301 78 115.9 1.1 1.7 1.4 4.6 5 4.1.6-4.899 1.3-9.8 1.7-14.8 1.399-14.6 2.7-29.1 3.899-43.7.2-2.8.9-5.3 4-6.199 3.4-1 5.801.399 7.601 3.199 1 1.7 2 3.4 3.1 5.101 14 23.399 27.9 46.8 42 70.2 1.4 2.3 2.7 9.6 6.8 10.6 2.5-18.1-.199-34.5-3.199-49.3-3.9 1.1-4.7 6.2-9 7.5-15.801-21.101-31.4-42-47.601-63.601-6.1 9.7-11.5 18-16.6 26.5-2.2 3.7-4.2 3.7-6.8.7-.9-1-1.9-1.899-2.801-2.899C1733.4 722.8 1717.2 706.1 1702.2 688.4c-8.601-10.101-18.7-18.9-26.601-29.601-1.699-2.3-3.5-5.3-9.3-6 4.3 6 2.4 12.2 5.8 17.101 5.801-1.3 8.201 2.7 10.901 6.7zm201.3 97.7c1-8.5 6.9-12.399-.899-15.6-11.7-4.7-31-9.8-42.101-15.7-13.8-7.4-25.7-16.3-35.7-28.7-4.1-5.1-15.399-26.1-19.3-31.3-1.2 5.7 4 26.9 6.2 31.4 5.5 11.3 12.1 21.8 24 28.199 10.8 5.801 21.4 11.801 32.1 17.801 13.7 7.6 26 23.899 21.801 49.3 3.599-7.9 12.899-26.9 13.899-35.4zm-609.6 316c3.899.2 2.2-8.399 1.399-10.699-.699-12.9 3.9-24.5 10.9-34.7 10.1-14.7 13.2-30.8 13.6-48.101.2-10.699-2.6-20.3-8.699-29 .5 14.9-.801 29.7-4.4 44.2-4.7 18.9-10.4 37.5-16.2 56.101-1 3.1-5.3 9.1-9 10.399 2 3.6 9.3 9.5 12.4 11.8zm-8.1-282.8c-17.399 2.3-48.5 20.1-59.6 33.2-2.4 2.7-5.4 5.1-5.2 9.3 5.4-1 9.3-4.8 13.601-7.8 12.6-9 27.3-10 41.699-12.9.4 2.9.7 4.8 1 6.8 2.4-8.2 8.1-20.3 8.5-28.6zm402.3-79.7c.199.4 1.1.4 1.1.4V682c0-2-.3-4-.5-5.9-3.4 4.301 0 9.7-2.8 14.9-3.2-2.2-6.3-4-9.101-7.1-5.8-6.301-10-13.801-15.699-20.101 8 21.801 17.4 42.901 27 64.001zm-56.8-16c.801 1.2 1.301 3.101 3.5 1.9 4.801-14.101 7.101-25.3 7.5-37.4-1.899 4.8-7.3 11.101-8.899 16-1 3-2.601 2.2-4.5 1.5-.801 6.3 1.999 12 2.399 18z"/><path fill="none" stroke="#000" stroke-linecap="round" stroke-linejoin="round" stroke-miterlimit="10" stroke-width="6" d="M1835.4 577.3c-.9 46.9 23.5 91.9 73.199 134.9 28.5 20.5 41.801 54.6 39.601 102.3-10.101-21.6-29.8-39.4-59.4-53.3h-.1c-.101-.101-.2-.101-.2-.101m-4.2 22.001c-.899 2.5-1.899 5-3.2 7.5v.2c-3.199 6.8-7.5 14.2-12.8 22.2-11.2-28.3-23.3-46.5-36.3-54.7 5.5 25.3 6.3 47.2 2.5 65.9-11.4-28.601-31.5-61-60.1-96.9l-7.5 74.7-95.4-142.7-1.2 75.8-40.4-100.8c-3.4 40.8-8.9 69.2-16.2 85.4l-18.6-74.1c-13.1-33.399-33.3-44.399-60.5-33.1l-4.6 138.3c-16-51.399-31.5-86.8-46.3-106.2l-7.601 40c-5.399 28.7-25.699 57.1-61.099 85.3l-52.7 55.399-1-36L1336 822l22.9-71-66.5 95.1-24.5-41.8c-9.2 21.8-10.4 53.2-3.601 94 2.3 17.2 8.5 35.7 18.601 55.4 12.8 19.1 19.199 34.2 19.199 45.399-.1 11.2-4.3 25.601-12.6 43.101-9.8 14.4-13.6 31-11.2 49.6M1884.3 783.1c.2 1.4-.3 4-1.399 8-.101.101-.101.4-.2.5-14.701 51.3-20.001 94.8-16.101 130.6.301 20-4.199 37.5-13.5 52.7-8.6 14.6-11.199 32.8-7.699 54.3 1.6 11.6-6 31-23 58.199-7.801 9.2-1.4 13.9 19.199 14.4 3.7-.3 7.301-.6 10.7-1.1m32-317.599c2.7-7.5 4.2-14.899 4.2-22m-100.1-78.8c12.699 34 34.399 55.8 65 65.4 12.899 4 24.6 8.399 35.1 13.399m-36.2 339.601c-10.3 72.6-22.8 121.399-37.1 146.5 2.899 18.3 7.6 32.3 14.2 42.199l38.1-43.1 3.2 44.7 41.3-90.9c22.9-53.2 24.4-96.399 4.5-129.5-25.5-54.6-21.5-117.8 12-189.6 8-11.5 13.6-20.8 16.7-28 3.1-7 4.899-11.3 5.399-12.8.601-1.4.9-2.2 1-2.4.2-.6.4-1.1.5-1.6 35.2-110.301-15.8-241.801-153.1-394.5-35.5-38.7-100.7-73.1-195.6-103.1-41.4-13.8-86.4-16.5-135.101-8.5h-.399c-.2 0-.4 0-.601.1C1351.7 341 1252.4 378.6 1169.4 443.1c-70.301 39.601-123.601 111-160.101 214-26.1 77-29.3 143.8-9.7 200.2 16 40.8 25.2 72.7 27.301 95.7 1.1 48.899.399 87.8-2 116.7-4.9 55.1 8.6 88.5 40.3 100.3l29.6 8.899c12.3 2.4 20 14.4 23.3 35.9 3.2 21.5 7.101 34.5 11.601 39.2l14.6-50.101c-4.8 33.7 3.5 61.2 24.601 82.9 6.899-7.7 13.399-17.9 19.399-30.6l2-4.101c2.2-2 4.8-1.899 7.601.301l4.899 13.899c9.5 20.2 20.5 33 32.9 38.301 8.6-13.101 14.399-26.101 17.399-39.4 1.2-5.5-.5-9.5-5.199-11.9-30.9-28.8-50.5-54.5-58.5-76.899l-12.7-36.601c-2.5-17.5-17.9-89-22.7-87.8-20.951 1.599-34.466-7.032-62.011-40.785-23.8-36.8-29.388-43.914-19.489-71.715 29-12.5 52.275 6.807 48.8-46.3 11.7-1.646 28 21.899 42.2 58 24.5 51.3 33.8 104.1 27.7 158.199l20.5-32.699M1852.3 1100.7c17.2-2.4 31-7.9 41.101-16.4m-608.101-449c8.8 13.4-14.7 43.8-70.5 90.8-33.5 39.5-40.899 82.301-22.3 128.4 12.2-21.1 37.2-37.9 75.1-50.5h.2c.101 0 .101 0 .3-.1 0-.101.2-.2.301-.2 35.199-21 59.5-49.8 72.899-86.4m-129.6 359.4l-10.5 19.1c2.7 32.6 26.1 52 70.399 57.9 16.5-2 31-10.801 43.5-26.4 7.2-9.1 12.301-21.7 15-37.6-22.3 5.6-39.699 6.3-51.8 2.1m-66.599-15.1l.5-1.4m50.4 5c3.7 5.301 8.9 9.2 15.7 11.5"/></svg>