<svg xmlns="http://www.w3.org/2000/svg" id="hair" viewBox="0 0 3000 3000"><path id="cl1" fill="#691314" d="M1801.582 455.014c-15.299-8.8-15.699-14.101-1.299-15.5 25.6-8.199 43.897-17.3 54.897-27.5-39.397.7-77.698-7.199-114.6-23.5-47.199-19.101-88.1-31.8-122.6-38.199l-71.5-4.9c-23.601.801-43.9 5.801-61 15 9.899-14.1 25.199-28.899 45.9-44.399-59.6 19.5-104.6 27.801-135.1 25-59.9 3-100.7 22.101-122.301 57.2l-2-42.801c-22.199 20.7-46.5 38.101-73.199 52.301-19.9 11.5-39.101 36.699-57.301 75.699-6.801-4.6-12.101-18.6-16-41.899-21 22.801-35.601 53.7-43.899 92.801l-18.7-39.399c-6.5 26-5.7 50.899 2.5 74.399-11.8 13.101-21 30.101-27.6 51.101.699 50-2.801 94.6-10.7 133.899-19.2 85.399-15.7 138.899 10.5 160.399 12.6-16.301 29.6-22.5 51.3-18.301l35.801-.199c33.801 5.199 58.199 21.699 73.399 49.5 11.4 17.8 17.7 33 19.301 45.899-5.199 18.101-5.899 35-1.801 50.8l1.301 2.101c23.601 35.301 54.5 56.801 92.899 64.399-14.3-15.1-25.2-30.1-32.5-45.1-8.1-19.101-9.1-40.601-2.8-64.5 5.699-20.2 5.699-38.2 0-53.801-15.102-28.1-17.102-51.8-6-71.199 12.5-16.9 17.5-35.9 15-57.101 2.699-38.2-7.7-72.3-31-102.3l66 59.8 6.699-114.2c27.699 33.7 61.601 69.5 101.699 107.301-.399-17.101-6.1-37.601-16.699-61.801 17 25.9 38.801 49.601 65.399 71.301-15.8-29.301-25.399-59.801-29.2-91.4 6.4 19.801 30.102 38.601 71.302 56.301 40.799 3.199 63.698 31.5 68.299 85 15.399-21.2 22.899-37 22.5-47.5-3.5-26.601-11.101-49.801-22.699-69.801-7.5-7.199-5.899-13.199 4.9-17.699 16.198-10.2 32.6-9.801 48.799 1.3 27.701 21.899 41.899 53.399 42.801 94.601 35-23.601 52-52.699 51-87.399 33.299 31 43.199 69.7 29.601 116.3l41.399-43.3c11.101-10.8 20.9-7.601 29.4 9.7l-17.9 36.899 16.9-4.801-11.701 35.899 20.899-13.1-18.301 102.199c26.801-39.8 42.9-73.8 48.201-102l7 30.9c25.9-29 35.699-64.5 29.6-106.301l31.4 10.301c-11.801-17.5-16.6-32.4-14.6-44.4 7.6-20.8 7.699-36.699.5-47.8-5.701-10.3-15.201-19.5-28.603-27.3-9.299-6.2-13.6-17.5-12.698-34-3-37.601-9.4-70.9-18.802-100-8.192-24.099-29.593-45.599-63.993-64.9zm-602.914 711.385c5.349 23.13 2.62 29.687-8.241 19.534-12.079-14.385-22.698-32.387-31.547-53.981-2.558-17.998 2.293-29.955 14.37-35.95l12.464 16.513c9.493 7.27 14.119 16.467 14.052 27.444l-1.098 26.44z"/><path id="sd1" fill="#3C0A0D" d="M1187.763 1163.485c.307 6.71 3.819 13.491 4.63 20.233.354 2.917 1.937 6.973-2.305 5.157-12.181-14.87-20.473-32.256-28.409-50.303-5.481-12.526-3.942-20.734-.105-28.697 1.418-2.972 3.566-4.166 6.005.01 7.785 13.441 20.021 25.189 19.129 42.353.253 1.266.284 2.535.758 3.792-.04.553-.016 1.153-.059 1.706.186.881.592 1.759.507 2.528-.217.343-.164.798.174 1.292.198.809.128 1.507-.325 1.929zm-151.081-539.37c-.199 27.2.301 54.5-1.699 81.7-1 12.899-1.699 25.8-5.5 38.199-7.301 24.2-12.199 48.899-14.301 73.899-1.699 20.101-2.398 40.601 1.801 60.601 2.899 13.601 8.301 26.301 19 36.601 1.801-1.7 3.301-3 4.699-4.399 9.9-10.5 21.602-16.4 36.301-15.101 3.301.3 6.801-.601 10 .2 9.101 2.199 17.899 1.5 27.101.1 11.1-1.8 21.899 1.801 31.899 6.101 17.801 7.7 34.899 16.8 45.601 34 8.1 13 14.5 26.899 20.399 41 2.801 6.7 5.899 13.899 4.399 21.2-2.6 11.899-1.1 23.899-1.7 35.8-.198 4.5.802 8.601 3.602 12.2 8.1 10.6 17.699 19.8 27.1 29.199 1.5 1.5 3.2 2.399 5.2 2.601-.7-1.5-1.2-3.2-2.2-4.5-7.699-10.101-13.899-21-19.199-32.5-3-6.4-4.801-12.9-4.601-20.2.3-14.3 0-28.6.2-42.899.1-5.699-1.2-10.399-6.4-13.601-4.6-2.899-5.699-7.399-5.899-12.899-.199-7.601 2.199-14.399 4.399-21.301 2.7-8.5 2.601-16.3-2.199-24.699-13.601-24-14.699-49-3.699-74.399 1.199-2.7 2.699-5.5 3-8.4.8-8.398 3.3-17.5-5.5-23.699-8.9-6.199-9.301-14.899-7-24 1.699-7 1.398-13.899 1-20.801-.7-11-4.9-20-16.602-23.5-.898-.3-1.8-1-2.698-1.199-5.7-1.199-7.2-5-6.5-10.301.198-1.6-.102-3.3 0-5 .6-9.398-1.2-17.8-9-24.1-1.2-1-2.7-2.5-2.9-4-1.2-9-8.5-10.7-15.2-13.8-5.6-2.602-10-2.4-14.6 1.6-5.3 4.5-10.7 8.9-16.4 13-7.3 5.3-14.1 4.4-20.398-2.1-4.9-5.102-6.2-11.5-7.802-18-2.5-10.2-4.1-11.102-14.8-12.801-5.8-.899-12.3-.601-17.2-4.199-10.8-7.801-19-17.602-19.898-31.801-1.905 1.497-1.705 3.798-1.806 6.198zm765.601 148.6c8.699-6.7 16.6-6.5 24.897.8 6.201 5.301 6.802 10.399 1.201 20.399-4.801 8.601-9.201 17.301-12.6 26.4 1.799 1.5 2.897.3 4-.2 3.299-1.5 6.397-3.399 10-.2 3.799 3.4 1.198 6.7.397 10-1.699 7.301-5.897 13.7-9.299 22.101 6.199-2.699 8.6-6.899 12.1-9.699 3.699-3 6.601-2 8 2.5.601 1.699.101 3.199-.1 4.899-1.4 12.101-5.9 23.8-4.801 36.199.1.601-.5 1.2-.6 1.9-3.199 16.899-8.5 33.3-13 49.899-1.199 2.2-1.699 4.101 2 4 8.198-16.3 17.198-32.2 26-48.2 7.5-13.6 16.5-26.699 16.1-43.199-.1-2.7 1.301-4.4 4.301-4.2 3.1.2 3.4 2.5 3.699 4.899.701 6.4 1.6 12.801 2.5 19.301 3.4-.4 4.5-2.4 5.5-4.5-2.699-4.601-3.4-9.801-4.1-15-1.302-9.5-3-18.9-4.802-28.301-.299-1.8-1.299-4.1-3.897-3.699-1.701.3-2.603 1.899-2.9 3.699-1.201 6.9-4.5 12.601-9.201 17.9-1-11.5-1.1-22.7-1-33.801.103-8.399-1.799-16.5-4.299-24.399-2.1-6.7-3.6-6.899-8.701-2.399-2.6 2.3-4.5 5.699-8.799 7.1 3.4-28.1 2.4-55.1-7.201-81.399-2.897 16-8.699 30.7-16.199 44.801-4 7.601-8.6 15-11 23.399.603-.5 1.304-.6 1.804-1zm-450.2-80.701c24.1 22.899 45.6 48.2 69.3 71.399 1.2 1.101 2 3.601 4.7 2.4-3.4-13.101-5.8-26.4-11.3-38.9-1.5-3.3-4.301-7.8 1.1-10.399 4.6-2.199 7.2.7 9.6 4.5 3 4.801 6.2 9.399 9.802 13.7 11 13.101 20.1 28 35.398 37.101 0-1.7-.5-3.2-1.6-4.601-6.5-8.5-10.5-18.2-14.7-27.899-3.8-8.9-4.3-18.601-7.699-27.5-6.801-1.601-10.601-7.7-16.101-11.2-8.101-5.2-15.7-11.101-23.7-16.5-1.8-1.2-4-2.899-6.5-1.399s-1.899 4.199-1.6 6.3c.699 6.2 1.699 12.399 2.8 18.601.5 2.601 2.101 5.399-.6 7.3-2.601 1.801-5.101-.5-7.4-1.601-12.5-6.199-23.8-14.6-35.2-22.6-3.8-2.601-7-6.2-11.898-6.801 1.598 2.9 3.197 5.8 5.598 8.099zm444.099-252c1.5-.699 3-1.3 4.603-2 11.299-4.8 22.699-9.3 33.897-14.399 6-2.7 11.9-5.8 17.5-11.8h-35.5c-9.397 5.8-19.897 9.399-30.5 11.5-26.198 5-52.397 10.6-79.1 12.899-6.1.5-12.6.899-18.6 3.3 35.198 7.5 69.899 17.399 106.399 14.101-8.299-6.9-8.098-9.101 1.301-13.601zm-317.7 277.601c18.699 14.8 39.6 25.3 62.5 31.8 17.899 5.101 28.198 18.101 35.1 34 4.801 10.9 7.201 22.7 6.701 34.801-.103 2.8-1.103 5.899 1.897 8.8 6.201-6.3 9.701-14.101 13.9-21.399-1.5-1-1.9-2.601-2-4.301-1.299-14-6.6-26.199-15.9-36.699-.897-1-1.397-2.301-2.299-3.301-13.301-15.399-27.201-29.899-47.301-36.699-4.699-1.601-9.4-3.601-14.199-4.399-17.4-3-33.8-9-50.4-14.5 3.302 4.796 7.602 8.397 12.001 11.897zm15.4-370.201c5.4-4.8 10.401-9.899 15.901-14.699 6.299-5.601 14.299-9.399 18.897-17l.103.101c-8.301 1.699-16.4 4-24.103 7.899-.897 4.3-4.799 5.3-7.898 7-24.7 13.5-49.802 26.3-73.802 41-3.1 1.899-6.8 3.3-9.698 8 17.898-5 34.3-9.801 50.898-14 10.2-2.601 19.8-7.601 30.602-8.101-4.8-2.999-5.199-6.299-.9-10.2zm-223.299 10.701c-8.5 5.3-15.3 10.3-21.8 15.7 3.398 4-.602 6.8-2.102 9.5-7.8 13.899-14.1 28.399-18.6 43.699-1.3 4.301-2.2 8.601-3.7 14.899 8-5.899 11.7-12.6 16.4-18.399 9.199-11.3 18.199-22.699 29.899-31.699-.097-10.7-.097-21.5-.097-33.7zm400.899 375c8.5 17 10 35.101 9.5 53.8.698.2 1.301.5 2 .7 4.5-4 9.1-8.101 13.6-12.101-3.9-6.5-1.6-13.601-1.799-20.399-.301-11-3.301-21.3-9.9-29.7-7.801-9.899-17.201-18.6-28.399-24.8-6.302-3.5-11.802-8.899-19.699-9 13.797 11.899 26.297 24.899 34.697 41.5zm-355.899 41.799c3.1-1.8 3.1-4.199 3.1-6.5.2-21.6-.199-43.199 1.9-64.699 1-10.601.2-21.301.2-31.9-.602.801-1.5 1.5-1.602 2.4-1.8 11.399-4.8 22.5-7.8 33.6-3.5 13.4-10.399 26.7-3 42-5.5-2.1-8.7-5.1-12.3-7.199-7.7-4.399-14.4-10.601-23.2-12.801 13.801 15.3 27.101 31.4 42.702 45.099zm-183-301.5c-2.2-9.199-5.5-18.199-5.8-27.899 0-1.3-.301-2.899-2.2-1.899-.7.399-1.101 1.5-1.601 2.301 3.801 3.1.699 6.3-.399 9-5.4 13.699-7.601 28.1-9.5 42.399-.9 7-.8 14.199 1.1 21.399 3.602-4.2 5.801-8.801 8.9-12.899 5.8-7.601 10.5-16 15.7-24.101-3.401-1.701-5.301-4.4-6.2-8.301zm784.399 291.301c6 2.399 12.301 4 19.899 6.5-2.399-5.5-3.201-9.899-6.201-13.5-3.198 2.5-4-1.101-5.299-2.399-9.701-9.5-19.201-19.101-28.801-28.7-4.299-4.3-9-7.899-16.199-10.101 4.9 11.601 11.199 20.601 16.199 30.2 3.6 7 10 12.601 10.301 21.101 2.502-3.601 5.601-4.902 10.101-3.101zm-164.9-42.6c5.1 5.3 8.1 12 11.301 18.601 7.799 16.399 5.799 33.699 4.4 50.899-.701 8.5-4.201 16.5-6.701 25.3 4.1-1.5 6.201-4 7.801-7-3.5-2.8-.5-5.8.4-8 2.799-6.8 4.699-13.699 6.1-20.899 2.699-14.5 3.299-29.2-1.1-43.2-4-13-12.9-22.199-27.5-24 1.299 2.999 2.899 5.799 5.299 8.299z"/><path fill="none" stroke="#000" stroke-linecap="round" stroke-linejoin="round" stroke-miterlimit="10" stroke-width="6" d="M1197.233 1166.712c5.308 23.139 2.566 29.689-8.275 19.52-12.054-14.406-22.642-32.427-31.452-54.037-2.527-18.003 2.346-29.952 14.434-35.925l12.436 16.535c9.479 7.287 14.09 16.491 14.003 27.468l-1.146 26.439m20.249-120.298l-.601-1.899m.001-.001c23.601 35.301 54.5 56.801 92.9 64.4-14.302-15.101-25.2-30.101-32.5-45.101-8.102-19.101-9.102-40.601-2.802-64.5 5.7-20.2 5.7-38.2 0-53.801-15.1-28.101-17.1-51.8-6-71.199 12.5-16.899 17.5-35.899 15-57.101 2.7-38.2-7.698-72.301-31-102.301l66 59.801 6.7-114.2c27.7 33.7 61.602 69.5 101.7 107.301-.4-17.101-6.1-37.601-16.7-61.801 17 25.899 38.8 49.601 65.4 71.301-15.8-29.301-25.4-59.801-29.2-91.399 6.4 19.8 30.1 38.6 71.299 56.3 40.801 3.2 63.701 31.5 68.301 85 15.4-21.2 22.9-37 22.5-47.5-3.5-26.601-11.1-49.8-22.698-69.8-7.5-7.2-5.9-13.2 4.897-17.7 16.201-10.2 32.603-9.8 48.801 1.3 27.699 21.9 41.9 53.4 42.802 94.601 35-23.601 52-52.7 51-87.399 33.299 31 43.198 69.699 29.6 116.3l41.4-43.3c11.1-10.801 20.899-7.601 29.399 9.699l-17.899 36.899 16.899-4.8-11.701 35.9 20.9-13.101-18.301 102.199c26.801-39.8 42.9-73.8 48.201-102l7 30.899c25.899-29 35.699-64.5 29.6-106.3l31.4 10.3c-11.801-17.5-16.601-32.399-14.601-44.399 7.601-20.8 7.699-36.699.5-47.8-5.7-10.301-15.2-19.5-28.602-27.301-9.299-6.199-13.601-17.5-12.699-34-3-37.6-9.399-70.899-18.801-100-8.199-24.1-29.601-45.6-64-64.899-15.299-8.8-15.699-14.101-1.299-15.5 25.6-8.199 43.899-17.3 54.899-27.5-39.399.7-77.701-7.199-114.602-23.5-47.199-19.101-88.1-31.8-122.6-38.199l-71.5-4.899c-23.601.8-43.9 5.8-61 15 9.898-14.101 25.2-28.9 45.899-44.4-59.6 19.5-104.6 27.801-135.1 25-59.9 3-100.7 22.101-122.3 57.2l-2-42.8c-22.2 20.699-46.5 38.1-73.2 52.3-19.9 11.5-39.101 36.7-57.3 75.7-6.801-4.601-12.102-18.601-16-41.9-21 22.801-35.602 53.7-43.9 92.801l-18.7-39.399c-6.5 26-5.699 50.899 2.5 74.399-11.8 13.101-21 30.101-27.6 51.101.7 50-2.8 94.6-10.7 133.899-19.2 85.399-15.7 138.899 10.5 160.399 12.601-16.3 29.601-22.5 51.3-18.3l35.802-.2c33.8 5.2 58.198 21.7 73.398 49.5 11.4 17.8 17.7 33 19.301 45.899-5.199 18.101-5.899 35-1.801 50.801l1.308 2.1"/></svg>