<svg xmlns="http://www.w3.org/2000/svg" id="hair" viewBox="0 0 3000 3000"><path id="cl1" fill="#0D0C0A" d="M2002.896 471.998l-46.7-2.5c-38.398-8.699-87.898-29.5-148.3-62.301-61.399-31.398-131.301-47.699-209.801-49 63.601-42.199 96.701-89.3 99.4-141.3-18.4 17.5-49.1 34.9-92.199 52.4l-91.301 38c-31.4 10.5-62.5 25.898-93.2 46.199l-12-104.601-61 96.601-41.399-34.199 2.3 44.199c-70-9.601-133-6.101-188.8 10.5 43.699 7.399 78 17 103.1 28.601-16.3 3.899-31.399 11.8-45.199 23.399-50 39.399-102.2 70.699-156.9 93.899l114.4-3.5c-47.301 51.602-104.5 92.9-171.4 123.8 28.801 5.9 63.301 2.302 103.7-10.5-8.2 5.2-17.8 22.302-28.7 51.2-40.199 58.2-62.5 111.3-66.8 159 62.101-42.1 98.399-62.1 108.601-60l1.8 118.8c18.2 2 32.801 6.4 43.801 13.2l16.5-22.3c32.3 78.899 60.5 133.399 84.699 163.7-14-68-18.699-138.4-14-211.102l28.2 58.9 89.601-292.4 9.899 174.2 51.601-212c30.899 81.3 71.399 157.4 121.601 228.3 44 52.301 89.299 90 135.5 113.301-54-55.301-87-155.601-98.9-301.101 31.199 51.101 62.301 94.2 93.4 129.3-12.5-48-19.601-85.5-21.5-112.5l49.899 67.4c34.799 46.6 67.101 102.6 96.699 168.1-9.4-39.699-10.199-79.199-2.601-118.3l197 229.2c-23.2-53.4-42.2-110.7-57.1-172.3 40.199 27.7 77.1 56.1 110.398 85.398-21-78-54.299-157-100.299-236.8 51.899 25.102 102.698 38.3 152.299 39.2-23-19.2-48.299-48-76.199-86.601-24-34.199-54.6-65.199-92-92.801 49.802-5.39 83.802-15.59 101.9-30.691z"/><path id="sd1" fill="#2A2720" d="M1563.196 529.899c-9-1.1-17.199-4.8-25.601-7.8-24.399-8.8-48-19.5-73.6-24.8-9.699-2-19.5-3.5-29.3-5.2-.8-.101-1.7.6-3.601 1.399 18.899 36.801 34.801 74.801 59.5 108.101-1.399 1.7-2.3.2-3.101-.5-17.1-16.3-35.1-31.7-51.1-49.101-11-12-21.5-24.399-31.9-36.899-9.3-11.3-18.699-22.5-29.6-32.4-1.2-1.1-2.4-2.3-5.4-1.6-1.399 29.399 1.5 59.2-3.5 90.399-6.1-27.601-11.199-53.801-20.5-78.601-4 .601-5.1 3.2-6.6 5.3-29.801 43.301-52.101 90.102-66.7 140.801-14 48.801-25.8 98.301-43.1 146.101-2.7 7.5-6.4 14.6-9 22.1-.2.4-1 .602-1.7 1-2.399-1.3-1.399-3.5-1.101-5.198 2-12.102 2.601-24.4 4.101-36.5 2.601-21.4 2.101-43 5.601-64.302.1-.3.1-.698 0-1-1.101-15.3 2.699-30.5 2-45.698-.5-10 1.6-19.802 1.399-30.102-14.601 14.5-25.399 31.7-36 48.8-10.8 17.4-22.199 34.5-29.601 53.9 2.9-43.3 25.4-128.9 71.9-188-33.301 12.8-65.301 25.6-99.5 31.3 24.1-10.1 45.1-25.1 66.5-39.6 19.8-13.5 40.199-26 61.899-36.2 3.5-1.7 7.5-2.8 10.899-6.601-16.5-9.699-34-16.399-51.8-22.399-17.9-6-36.301-9.2-55.301-9.3 42.2-13.9 85-14.301 128.101-4.801.199-4.399-2.601-5.601-4.301-7.5-7.8-8.601-15.399-17.5-23.8-25.5-6.7-6.399-14.2-12-20.5-18.899-1.601-1.7-3.7-2.9-4.9-7.3 16.4 8.3 32 15.5 46.801 23.8 14.699 8.2 27.101 19.7 40 33.3 1.199-17.6-1.399-33.398 4.199-48.3 2.101-5.601 4.4-11.101 6.601-16.7.399-.898 1.101-1.6 2.899-1.6 3.2 19.3-2.399 38.5-1.1 59.5 16.699-19.602 29.199-40.9 44.8-59.9-4 14.2-10 27.9-10.899 42.602 2.399 1 3.899.3 5.199-.7 13.801-11.4 30.301-16.2 47.4-19.2 20.8-3.7 40.199-10.7 58.6-21.3 15.1-8.8 31.301-15.7 47.1-23.7-13.799 15-26.799 30.6-43.6 43.1 15.401 0 30.7-.3 46.1.102 40 1 79.201 6.898 117.201 19.7 20.199 6.8 39.5 15.8 58.699 24.8 15.4 7.2 30.5 14.8 46.301 21.1 2.101.8 4.398 1.602 6.299 4.2-2.299 1.3-4.5.2-6.198-.5-33.302-13.6-68-22.9-103.302-28.9-24.399-4.1-49-7.5-73.6-11-28.801-4-57.699-3.398-86.5-3.698-5.399 0-10.199 2.3-15.5 2.898 15 3.102 30.301 4.3 45.401 6.8 12.198 2.102 24 5.102 35.799 8.5 38.602 11.2 74.5 28.602 109.602 47.602 32.799 17.7 65.601 35.6 99.398 51.2 30.5 14 60.899 28.198 92.5 39.698 2.301.9 5.301.5 7.602 3.2-11.301.9-21.5-2.3-31.602-5.398-33.699-10.5-66.601-22.802-98.601-37.9-19.5-9.2-38.198-20-58-28.6-30.5-13.2-60.698-27.102-92.299-37.5-25.5-8.4-51.701-14.302-78.201-18.802-14.698-2.5-29.299-5.5-44.099-7.1-17.7-1.9-35.601-4-54.4-2 27.5 9.6 51.101 25 75.7 38.7 16.601 9.2 33.899 17.1 50.799 25.7 7.509 3.695 15.009 7.995 22.108 12.896z"/><path fill="none" stroke="#000" stroke-linecap="round" stroke-linejoin="round" stroke-miterlimit="10" stroke-width="6" d="M1956.196 469.498l46.701 2.5c-18.101 15.101-52.101 25.301-101.9 30.699 37.4 27.602 68 58.602 92 92.801 27.9 38.601 53.199 67.399 76.199 86.601-49.601-.9-100.398-14.101-152.299-39.2 46 79.8 79.299 158.8 100.299 236.8-33.299-29.3-70.199-57.7-110.398-85.398 14.898 61.6 33.898 118.898 57.101 172.3l-197-229.2c-7.601 39.1-6.802 78.6 2.6 118.3-29.6-65.5-61.9-121.5-96.699-168.1l-49.899-67.4c1.899 27 9 64.5 21.5 112.5-31.101-35.1-62.201-78.2-93.4-129.3 11.9 145.5 44.9 245.8 98.9 301.101-46.201-23.301-91.5-61-135.5-113.301-50.201-70.898-90.701-147-121.601-228.3l-51.601 212-9.899-174.2-89.601 292.4-28.2-58.9c-4.699 72.7 0 143.101 14 211.101-24.199-30.301-52.398-84.801-84.699-163.699l-16.5 22.3c-11-6.8-25.601-11.2-43.801-13.2l-1.8-118.8c-10.2-2.101-46.5 17.899-108.601 60 4.301-47.7 26.601-100.8 66.801-159 10.899-28.9 20.5-46 28.699-51.2-40.399 12.8-74.899 16.4-103.699 10.5 66.899-30.899 124.1-72.2 171.399-123.8l-114.399 3.5c54.699-23.2 106.899-54.5 156.899-93.9 13.8-11.6 28.899-19.5 45.199-23.398-25.1-11.602-59.399-21.2-103.1-28.602 55.8-16.6 118.8-20.1 188.8-10.5l-2.3-44.199 41.399 34.199 61-96.6 12 104.6c30.699-20.3 61.801-35.699 93.2-46.199l91.301-37.999c43.101-17.5 73.799-34.9 92.199-52.4-2.699 52-35.801 99.101-99.4 141.3 78.5 1.301 148.4 17.601 209.802 49 60.4 32.793 109.9 53.594 148.298 62.293"/></svg>