<svg xmlns="http://www.w3.org/2000/svg" id="hair" viewBox="0 0 3000 3000"><path id="cl1" fill="#271F16" d="M1813.75 383.347c-2.602 7.398-6.4 8.398-11.5 3.1-13.102-17.6-29.301-33.5-48.5-48l-.301 14.601c-1 9-7.699 8-20.101-3l-19.899-18.699c-5.601 3.398-9.4 3.6-11.301.8-8.398-8.101-20.3-16.2-35.601-24.3l-16.299-4-.4 7.1c2.199 8.3-3.6 9-17.5 2.5-12.5-6.1-19.5-4.399-21.2 5.101-.699 5.801-4.8 7-12.398 3.5-3.102-3.399-6.9-3.699-11.102-1-1.8 2.399-6.199.899-13.3-4.601-8-7-19.7-14.5-35.301-22.6l-23.901-9.9c-3.4-4.3-9.4-4.6-17.9-.8l-13.5 4.9c-14.199-.602-26.298-2.7-36.5-6.5-12.699-3.801-19-.801-18.898 9.3-1.399 7.1-6.602 9.398-15.602 6.6l-25.398-8.1.799 12.5c1.5 9.398-4.897 14-19.198 13.6l-32.101-7.1c-8.5-2.801-12 2.199-10.6 15.1.299 8-8.701 9.9-27 5.9-7.801-2.9-11.602-.5-11.5 7 3.6 14.5-.201 20.3-11.301 17.199l-16.801-2.399c-11.699-1.101-16.101 1.7-13 8 1.399 9.1-1.898 14.7-9.898 16.6l-14.602 4.301c3.399 8.301-2.398 15-17.3 20.301-6.2-1.602-11.6 1.1-16 8-8.899 12.199-21.7 20.5-38.5 25l-22.5 1.5 7.5 22.6c3.5 19.601-1 26-13.301 19.4l-19.199-2.801 9.699 30c1.801 8-4.6 11.399-19.199 10.199-12-1.3-24.5 2-37.399 9.5l36.1 22.2c-21.4 5.8-36.699 13.9-45.699 24.7l23.5 4.399-30 24.801c9.5 4.199 14.4 15.3 14.9 33.199l50.898 228.199c1.102 18 6.5 28 16.399 29.9l49 4.899c14.301-.801 24 7.301 29.101 24.399 1.801 11 5.102 23.5 10 37.601l8 32c22.301 14.899 42 21.301 59.399 19l-9-77.601c-9.399-63.5 6.101-91 46.4-82.2l25.399 4.2c4.4-9.6 5.5-23.7 3.199-42.399l-11.5-51.601c-11.6-48.5-13.9-83.7-6.9-105.5 14.5-42.5 39.802-72.8 76.103-91.1 28.199-15.801 65.199-20.4 110.897-13.602 27.803 5.102 64.202 16.301 109.104 33.602 69 30.6 134.898 30.5 197.898-.102 10.5 34.5 30.399 72.5 59.7 114.102 21.9 36.898 36.9 79.898 45 128.6 30.4-66.899 33.5-132.7 9.4-197.5-20.103-44.7-47.301-67.399-81.5-68 11.699-17.2 20.699-36.6 27-58.1 5.199-23.602 5.397-46.7.6-69.301-11-38.699-33.2-69.699-66.5-92.899l.905 43.702zm-645.581 718.763c7.185-1.946 9.416.636 6.792 7.734l8.954 37.161-15.12-3.182-1.622-.655c-4.638-1.797-7.3-3.907-8.101-6.412-7.364-6.227-12.362-12.22-14.979-17.879-4.072-6.545-3.059-9.741 3.122-9.707l20.954-7.06z"/><path id="sd1" fill="#19140E" d="M1327.966 841.927c6-21.7.4-41.2-11-59.8-8.699-14.301-14.897-29.601-15.1-46.7-.101-5-1.9-9.7-2.101-14.7-1.1-20.399 4.601-39.3 11.802-58 6.698-17.3 13.897-34.399 19.397-52.199 5.801-18.801 2.4-36-5.299-53.101-2.6-5.8-6-11.101-9.6-16.3-2.5-3.5-4.5-7.301-5.802-12.101 6.9-.399 12.802 2.199 18.699 3.3 13 2.301 25.4 2.2 38.201-1.601 14.9-4.399 30.1-8.699 45.5-10.199 25.699-2.5 51.4-7 77.298-4.5 18.102 1.8 36.203 5 53.104 12.101 13.799 5.699 28.698 8.5 42.299 14.6 17.801 8.101 36.301 14.2 53.701 23.5 19.698 10.5 40.6 17.801 63.5 17.9 8.5 0 17 1.8 25.698 1.899 31.699.101 60.802-8.301 87.601-25.301 13.201-8.399 26.399-16.6 39.801-24.6 4.299-2.5 6.4-8 12.1-8.301-4 8.399-7.899 16.899-13.5 24.399-3.301 4.5-4 8.4 1.5 11.601 1.101 2.2 0 4.2-1.5 5.301-8.1 6.3-4.198 10.399 2 15.1 12.5 9.601 23.802 20.301 29.302 35.7 1.799 4.3 4.5 8.101 5.397 12.7.4 2 .301 4.1-1.799 5.1-1.701.801-3.201-.3-4.5-1.199-4.301-2.801-6.701-7.2-9.5-11.301-.6-.699-1.201-1.399-1.5-2.3-.301 1.3 1.1 1.601 1.5 2.601 2 4.601 8.9 9.5 4.1 13.699-5.198 4.5-9.6-2.8-14-5.8-2.198-1.5-3.6-3.8-6.801-5.899.201 4 2.701 7 2.301 10.3-.399 1.399-1.198 2.399-2.6 3.101-5.9 2.7-1.701 6.399-.4 9 5.4 10.7 11.699 20.8 18.802 31.399 1.698-6.899 2.198-13.199 4.799-18.899 2.899-6.2 5.899-6.399 9.701-.601 3.6 5.5 6.698 11.5 12.897 14.5 2-2.699.5-7 4.701-8.699 5.4 3.699 6.1 10.1 6.699 15.699 3.6 33.899 13.5 66.2 24.1 98.301-5.1 12.899-8.199 26.6-16.397 40.1-2.603-6-2.103-11.399-2.9-16.199-4.5-25.801-14.201-49.801-25.301-73.2-12.699-26.8-27.302-52.399-42.5-77.899-11.9-20-20.4-41.8-28.5-63.601-3.199-8.699-6.101-10.399-14.5-5.899-13.601 7.3-27.802 12.8-43 15.399-8.5 1.5-16.9 3.899-25.5 3.2-6.5-.5-12.4 2.5-18.802 2-12.5-.899-25-2.301-37.299-5.301-34.201-8.399-67.399-20.199-100.899-30.899-26.601-8.399-53.101-17.101-80.402-22.699-17.199-3.5-34.698-4.5-52.399-1.601-13.5 2.199-27 4.101-39.198 10.5-18.199 9.601-35.699 20.601-50.4 35.3-23.299 23.399-36.899 51.801-41.5 84.2-2.299 15.899 1.101 31.8 4.4 47.399 6 28.899 12.198 57.7 18.5 86.399 2.899 13.2 1.801 27.101-1.199 40.601-7.302 2.9-10.901-1.5-13.702-7.5zm-184.6 49.8c14.701.301 28.701 4 42.6 8.2-5.699-25.5-12.5-50.7-20.199-75.7-.801-2.5-1.6-5.1-2.698-7.5-.302-.699-1.603-1.5-2.302-1.399-.801.101-1.899 1.101-2.1 1.801-.5 1.899-.5 3.899-.701 5.899-.799 7.899-1.5 15.8-2.6 23.601-1.5 10.5-3.199 20.899-3.299 31.5-.201 13.199 0 11.6-12.103 11.8 1.103.599 2.303 1.798 3.402 1.798zm124.401 34.301c-2.5-16.2-1.698-32.2-.1-48.5 1.9-19.899 16.199-29.399 33.4-29.601 11.1-.101 21.698 2.7 32 6.2 5.299 1.8 7.299.1 8.897-4.2-6-.3-9.397-5.2-14-8-6-1.7-11.897-3.601-18-4.899-11.699-2.601-23-2.301-32.299 6.5-5.9 5.5-9 12.8-11.6 20.3 2.198 1.601 1.1 3.399.5 5.301-2.302 7.699-2.802 15.6-2.603 23.6.201 8-.397 16 .301 23.9.699 9.1.601 18.399 3.699 27.199.004-5.8.705-11.901-.195-17.8zm-86.215 211.571c-.386-3.377-2.637-6.341-2.791-9.443-.165-6.725-4.832-12.332-3.616-19.314 1.15-6.674-1.229-8.112-7.959-6.236-7.314 2.044-14.596 4.386-21.957 6.032-4.115.974-4.564 2.333-3.129 6.095 3.887 10.226 11.85 17.367 18.159 25.906.588.738 1.649 1.221 2.49 1.526 6.577 2.067 13.242 4.022 21.057 6.352-.931-4.627-1.89-7.738-2.254-10.918z"/><path id="hl1" fill="#544939" d="M1264.249 1009.046c-3.201-2.399-5.801-4.601-6.201-9.399-3.1-34.7-4.899-69.5-3.899-104.3.301-9.7 2.102-19.102 6-28 .801-1.9 2.2-3.301 4.102-4.2 2.898.2 2.898 1.899 2.299 4.1-5 19.601-4.5 39.4-1.5 59.301.801 5.601-1 11.3 1.1 16.8.802 17.2 4.201 34 6.9 50.899.701 4.601 1.201 9.101 1.9 13.801-3.402 2.399-7.201.697-10.701.998zm313.2-689.699c-18.101-14.2-37.9-25.7-59.303-34.2-.699-.6-1.5-1.1-2.3-1.6-1.2-.2-2.399-.4-3.7-.602-2.3 2.602.399 3.301 1.801 4.301 18.901 12.8 37.201 26.499 55.502 40.199 4.1 3 8.6 5.601 14.399 6.8-.801-4.899-1.5-8.699-2.1-12.6-1.398-.698-2.998-1.298-4.299-2.298zm206.1 47.1c-7.9-8.399-14.5-18.2-25.4-23.3-.1 3 2 4.7 3.701 6.8 11.799 14.2 23.299 28.7 35.299 42.7 3.802 4.399 6.4 10.3 13.9 14.2-2.299-7.301-1.699-13.4-6.9-17.602-6.799-7.598-13.6-15.298-20.6-22.798zm27.701-28.1c.5 5 .799 7.898 1.1 10.8 6.601 4 12.101 9.3 17.4 14.8 7.699 7.8 15.5 15.5 23.299 23.3 1.6 1.601 3.201 3.601 5.201 4.601 1.699.899 1.6-1.3 1.799-2.399-12.1-20.302-29.299-35.502-48.799-51.102zm-676.702 95.1c-3.399.101-7.199-1.8-10.1 1.601 13.698 2.5 26.801 7.5 41.6 9.5-1.299-5.699 5-10.199.101-15.399-10.003 5.596-20.9 3.897-31.601 4.298zm497.702-120.1c-4.5-1.801-8.9-4.2-13.9-3.9 10.699 9.601 23.799 14.8 36.9 22.4-1-7.602-6.801-9.801-9-14.5-5.102.1-9.5-2.2-14-4zm67 16.5c-9.701-7.801-19.602-15.4-31.102-20.5-2 2 0 2.8 1.2 3.6 6.5 4.4 13.101 8.8 19.4 13.4 8.1 6 16.699 11.1 25.199 16.699-.699-4.399-.5-9.101-6-9.899-3.697.899-5.998-1.2-8.697-3.3zm-329.001-14.801c-1.801-1.399-4.4 0-6.201-1.601-6.799-.5-12.899-3.899-19.799-4 3.6 2.8 7.1 5.8 10.897 8.5 9.201 6.7 17.5 3.101 26.5-.2-1.6-3-3.897-2.1-5.698-2.699h-5.699zm-116.103 36.199c7.201 5 15.802 5.801 23.9 8 5.4 1.4 5.5 1.102 6-5.8-9.998.101-19.797-3.298-29.9-2.2zm46.103-22.199c-1.9 1.801-.5 2.801.897 3.699a202.598 202.598 0 0 0 10 6c1.302.7 2.9 2.2 4.302.602 1.198-1.301 1-3.2.1-4.5-.899-1.301-2.299-2.2-3.5-3.301-3.902-.801-7.799-1.599-11.799-2.5zm-60 46.401c-2.801 3.3-7 .8-11.103 3.101 6 1.601 10.302 5.801 16.302 6.101.899-4.5-.601-7.2-3.302-9.4-.598-.004-1.297.098-1.897.198zm441.899 67.798c-.699.7-1.3.7-1.898-.1-1.4-7.2-2.4-14.5-6.4-21.9-4.701 10.4-3.801 21.102-8.399 31-8-15.199-11.302-31.6-19.9-48.398-2.6 14.398-4.699 26.3-6.799 38.3h-1.801c-1.9-3.3-3.802-6.601-5.802-10-5.5 2.6-5.5 8.8-10.399 12.6-4.299-11.5-9.799-21.699-15.601-34-2.399 12.9-4.799 23.5-5.5 36.102-7-10.7-10.399-21.4-18-31.4-8.899 26.8-10.5 53.8-17.899 79.601.602.2 1.301.399 1.899.601 5.101-11 10.201-22 15.601-33.399 6 8.601-.398 19.101 6.301 28.601.699-12 1.699-22.4 4.101-34.801 6.399 12.399 7.5 24.2 14.5 35.601 4.301-15-.8-29.399 4.801-42.899 4.301 7.5 4.6 16.5 9.899 23.899 4.9-7 4.5-15.8 10.4-21.899 3.199 10.199 4.397 20.3 8.699 31.199 6-11.5 5.698-23.199 10.6-35 7.301 18.4 9.699 36.2 17.801 52.801 2.199-13.601 4.4-27.301 6.699-41.899 4.699 5.3 3.699 11.899 8.101 16.399 4.7-8.801 4.1-19.101 9.6-28 4.201 8.399 4.102 17.5 8.201 25.699 7.799-9 10.5-20.399 17.5-29.899 5.399 11.899 3.799 24.5 8.299 36.601 8.102-5.399 10.701-14.8 18.5-20.899l9.201 41.399c2.299-22.2 4.699-44.2 3-66.3-2.801.3-3.101 2.1-4.101 3.399-1.2 1.5-2 3.601-4.399 3.601-2.9-4.301-2-9.601-3.601-14.101-1.7-4.899.199-10.7-4.102-15.899-4.799 10.5-9.299 20.3-14.199 31.1-5.301-13.699-5.801-27.199-10.301-41.199-6.5 15.101-9.199 29.699-13.898 44.601-5.7-9.7-5.301-21-12-31.4-2.602 9.801-4.801 18-6.899 26.301-1.004 1.089-.603 2.987-1.805 3.987zm-316.002-55.098c-4.897-5.9-7.897-13.5-15.1-17.7-4.6 16.2-5.6 32.5-11.299 48.601-12.301-9.5-20.602-21.601-32.102-33.2-4.3 15.301-8.101 28.5-12 42.2-7.199-6.5-8.101-16-15-22.5-5.5 10.3-11.199 19.5-14 30.399 3.7-.101 4.801-2.8 6.602-4.5 8.1-7.8 8.1-7.8 13.299 2.601 2 4 4.201 8 6.801 13a4141.61 4141.61 0 0 0 20.4-35.801c7.699 7.602 11.799 16.5 17.898 23.801 6.102 7.399 9.7 16.8 18.399 23.8 2.5-21.899 4.9-42.3 7.5-64.699 13 18.2 19.201 37.8 32 55.2 2.701-19.5 5.201-37.301 7.601-55.102.602-.1 1.2-.3 1.801-.398 9.801 16.199 19.6 32.3 30.301 49.8 1.699-7.7 3-13.5 4.4-19.3 1.299-5.4.897-11.5 5.1-16.801 4.6 8.899 5.4 18.301 10.9 26.899 2.897-12.8 5.6-24.399 8.198-36 7.4 10.5 12.5 21.3 20.4 30.601-6.301-24.101-12.5-48.101-19.301-74.199-6.9 14.5-9 28.6-15.699 41.898-7.4-12.8-9.701-26.699-17.6-37.8 1.5 15.9 1.299 36.4-1.302 43.3-12.301-11.6-20.801-26.398-34-37.898-3.899 14.199-4.1 28.3-8.399 42.898-5.896-7.002-10.798-13.1-15.798-19.1zm-88.297 403c-9.801-22.2-19.7-44.4-29.5-66.601-3 11.199-4.6 22-4.5 35.199-12.6-12.199-19.2-26.6-30.6-38.3-2.603 11.101-2.801 21.2-4.603 31.2-6.5-6.9-11.6-14.101-17.397-20.8-5.701-6.602-9.301-15.102-17.5-20.602-4 9.5-7.701 18.2-11.603 27.602-3.698-3.602-5.698-7.4-7.698-11.102-4.4-8.199-8.699-16.5-13.302-24.5-2.5-4.398-4.799-4.398-6.6.301-2.9 7.5-7.699 13.699-12 22.399-9.4-18.7-18.1-36.1-26.799-53.5-.701.101-1.301.2-2 .3-2.9 20.9-5.4 41.801-7.9 63.9 7.4-3.4 9.601-9.4 13.601-13.601 4.399-4.601 5.698-4.301 8.198 1.699.4.9.5 2 .802 2.9 4.5 11 9 21.899 14 34.1 9.6-9.898 14.399-21.8 23.301-31.8 5.699 18.601 11.1 36.2 16.5 53.9 3.897-4.801 5.897-9.301 7.897-13.801 4.103-9.101 8-18.301 12.302-27.301 3-6.398 4-6.398 8.301-.199 3 4.399 5.799 8.899 8.699 13.399 7.198 11.3 14.301 22.7 21.899 34.7 4.799-8.8 2.699-18.3 7.199-26.7 8.301 10.9 10.5 24.101 18.4 35.5 5.399-10.7 4.899-21.7 9.801-32.2 7 9.102 13.199 17.2 19.299 25.301.703-.593 1.303-.994 1.803-1.393zm-85.401-246.902c8.698 12.301 12.899 25.7 23.5 37.801 0-12.699.6-22.801 3.301-34 4.799 9.301 9.199 17.699 14 26.899 4.699-8.7 5.5-17.899 11.299-25.399 6.9 8.199 11 17.5 19.701 25.199-1.5-8.699-2.701-15.8-3.9-23-1.301-7.5-2.7-15-4-22.5-1.2-6.8-1.801-13.8-5.2-21.699a12550.139 12550.139 0 0 1-17.398 42.899c-8.701-10.5-11.4-22.899-20.201-34.1-1.4 12.898-2.6 24-4 37.1-10.699-16.2-17.6-32.399-28.6-47.8-1.801 23.3-3.4 44.6-5.101 65.899-7.6-7.801-13.5-16-19.399-24.301-6-8.398-11.601-17.199-19.4-26.3-1.6 13.3.4 24.7-1.6 35.9-2 11.398-.801 22.8.399 34.6 5.101-11 10.101-22 15.199-33 9.601 9.601 18.9 18.9 29.5 29.4 5.598-14.696 5.801-29.098 11.9-43.598zm651.802-88.798c-.5 15.7-5.301 28.8-7.4 43.2 5-3.4 8.4-7.2 11.4-11.601 2.898-4.101 6-8 9.799-13.199.1 13-3.799 23.6-7.299 35.398 22.1-17.6 30.799-54.398 16.5-80.398-2.201 2 .1 5.3-2.701 7.3-4-3.5-3.1-10.101-7.799-13.101-3.301 7.3-1.301 16.101-6.602 23.899-2.601-4.8-4.601-8.5-6.699-12.3-5 3.2-1.699 10.1-6.699 12.899-1.9-2.801.699-6.801-3.4-9.801-7.801 18.4-18.6 35.102-24 54.7 13.699-9.496 23.199-22.996 34.9-36.996zm74.5 159.298c-2.102 5.301 3.299 9.9 2.1 15.7-8.201-6.2-13.5-14.7-22.6-20.6 2.699 11.199 7.5 20.3 9.1 30.1-2.1.9-3.201.2-4.1-.7-4.602-4.699-9.701-9-13.5-14.5-1.801-2.5-3-6.8-7.701-5.5.9 5.7 5.801 10.2 6 17.301-6.199-3.801-9.699-8.899-13.799-13.301-1.9-.5-2.801 0-2 2 1.699 4.4 5.199 8.102 5.5 13.5-10.701-2.699-15.4-12.6-24.701-18 .301 7.2 3.1 11.7 5.5 16.4.801 2.3.1 3.1-2.199 2.3-2.801-.3-7.6-3.399-5.1 3.601 5.898 15.899 15.398 29.601 26.199 44.301 1.6-6.102.5-10.801 2.301-15.2 1.799-4.5 1.5-9.8 6-14.9 3.1 10.5 10.699 16.601 16.699 24 3.5-2.8 1.899-6.8 2.1-10.199.201-5.301.9-10.399 4.4-15.101 6.699 3.3 7.6 11.4 13.1 15.7 1.4-5.5-.9-10.9 3.1-17.601 5.701 18.399 10.701 34.899 15.802 51.399 1.198-10.1 2-19.8.301-29.7-3.201-18-9.201-35.1-14.801-52.398-1.4-1-1.9-2.4-1.9-4-2.701-.9-2.403-4.4-5.801-4.602z"/><path fill="none" stroke="#000" stroke-linecap="round" stroke-linejoin="round" stroke-miterlimit="10" stroke-width="6" d="M1881.75 494.847l-3 7m-6 21c2.398-7 4.398-14 6-21m-710.888 640.101l15.313 3.734-8.471-37.585c2.765-7.043.586-9.67-6.636-7.868l-21.091 6.641c-6.179-.157-7.256 3.02-3.314 9.644 2.502 5.712 7.379 11.803 14.617 18.175.75 2.521 3.37 4.683 7.972 6.573.538.229 1.074.459 1.61.686m1.007-4.839l.552.816m709.329-636.078c5.199-23.602 5.398-46.7.6-69.301-11-38.699-33.201-69.699-66.5-92.899l.9 43.7c-2.602 7.398-6.4 8.398-11.5 3.1-13.102-17.6-29.301-33.5-48.5-48l-.301 14.601c-1 9-7.699 8-20.101-3l-19.899-18.699c-5.601 3.398-9.4 3.6-11.301.8-8.398-8.101-20.3-16.2-35.601-24.3l-16.299-4-.4 7.1c2.199 8.3-3.6 9-17.5 2.5-12.5-6.1-19.5-4.399-21.2 5.101-.699 5.801-4.8 7-12.398 3.5-3.102-3.399-6.9-3.699-11.102-1-1.8 2.399-6.199.899-13.3-4.601-8-7-19.7-14.5-35.301-22.6l-23.901-9.9c-3.4-4.3-9.4-4.6-17.9-.8l-13.5 4.9c-14.199-.602-26.298-2.7-36.5-6.5-12.699-3.801-19-.801-18.898 9.3-1.399 7.1-6.602 9.398-15.602 6.6l-25.398-8.1.799 12.5c1.5 9.398-4.897 14-19.198 13.6l-32.101-7.1c-8.5-2.801-12 2.199-10.6 15.1.299 8-8.701 9.9-27 5.9-7.801-2.9-11.602-.5-11.5 7 3.6 14.5-.201 20.3-11.301 17.199l-16.801-2.399c-11.699-1.101-16.101 1.7-13 8 1.399 9.1-1.898 14.7-9.898 16.6l-14.602 4.301c3.399 8.301-2.398 15-17.3 20.301-6.2-1.602-11.6 1.1-16 8-8.899 12.199-21.7 20.5-38.5 25l-22.5 1.5 7.5 22.6c3.5 19.601-1 26-13.301 19.4l-19.199-2.801 9.699 30c1.801 8-4.6 11.399-19.199 10.199-12-1.3-24.5 2-37.399 9.5l36.1 22.2c-21.4 5.8-36.699 13.9-45.699 24.7l23.5 4.399-30 24.801c9.5 4.199 14.4 15.3 14.9 33.199l50.898 228.199c1.102 18 6.5 28 16.399 29.9l49 4.899c14.301-.801 24 7.301 29.101 24.399 1.801 11 5.102 23.5 10 37.601l8 32c22.301 14.899 42 21.301 59.399 19l-9-77.601c-9.399-63.5 6.101-91 46.4-82.2l25.399 4.2c4.4-9.6 5.5-23.7 3.199-42.399l-11.5-51.601c-11.6-48.5-13.9-83.7-6.9-105.5 14.5-42.5 39.802-72.8 76.103-91.1 28.199-15.801 65.199-20.4 110.897-13.602 27.803 5.102 64.202 16.301 109.104 33.602 69 30.6 134.898 30.5 197.898-.102 10.5 34.5 30.399 72.5 59.7 114.102 21.9 36.898 36.9 79.898 45 128.6 30.4-66.899 33.5-132.7 9.4-197.5-20.103-44.7-47.301-67.399-81.5-68 11.704-17.2 20.704-36.598 27.005-58.098"/></svg>