<svg xmlns="http://www.w3.org/2000/svg" id="hair" viewBox="0 0 3000 3000"><path id="cl1" fill="#57D8B5" d="M1626.775 586.865l26.102-.301c-8.701-6.699-17-12.1-24.5-16.398l-1.602 16.699zm247.602-149.899c-36 20.2-44.201 34.6-24.602 43.2l52.2 9.5c-31.801 34.898-37.5 54.5-16.7 58.8l35.7 7.399c-35.6 31.801-41.2 52.699-17 62.699l40.3-4.699c2.899 23.199-1.8 47.601-13.8 73.199-10.2 14.602-3.7 20.301 19.4 17.102-10.301 17.898-28.5 37-54.701 57.398-7.199 17 8.201 22 45.9 15.102l-26.802 39.1c-10 17.8-4.198 27.7 17.5 29.8l-18.299 21.4c-10.1 7.8-10.201 15.7-.399 23.5l-54.199 44.399c.5-12.399 5.199-30.101 14.199-53.301 14.399-62.199 15.1-113.5 1.801-154.1-8.201-41.9-18-75.101-29.4-99.5l-44.5-43.301-76.6 1.2-30.301.199c-3.302-8-7.101-16.199-11.101-24.399 4 8.2 7.799 16.399 11.101 24.399v.5h.301c7.397 18.101 13 35.5 16.799 52.301-21.699-22-41.199-39.399-58.299-52.301-8.701-6.699-17-12.1-24.5-16.399l-1.603 16.7-2.799 27.699-22.5-27.5-12.399-15.1 12.399 15.1-50 .7c2.4-7.2 5.199-14.5 8.299-21.899-3.1 7.399-5.897 14.699-8.299 21.899-8.399 24.601-12.801 48.101-13.399 70.3-7.302-16.899-13.699-40.199-19.101-69.899-.701-3.8-1.301-7.601-2-11.5.699 3.899 1.299 7.7 2 11.5l-36.801.399c6.299-6.399 12.799-12.399 19.4-18.199-6.603 5.8-13.103 11.8-19.4 18.199-17.801 17.7-34.9 37.801-51.3 60.4-3.601-18.4-3.601-37.301 0-56.301.199-1.101.399-2.3.699-3.5 2.899-13.601 7.699-27.5 14.399-41.5-6.699 14-11.5 27.899-14.399 41.5l-117.699 1.5-31 38.399c-2.9 68.9-10.101 106.2-21.7 111.9-11.601 5.699-22.101 7.199-31.4 4.8-24.3-5.7-37 .3-37.898 17.899l6.199 232.301s-24.56-54.906-52.412-81.847c-7.89-7.63-10.977-7.812-35.964-17.959-31.856-12.937-66.225-44.995-95.725-65.395l28.9-4.699c8.699-2 9.399-8.601 2-19.801l-37-64.5 23.899 1.399-.5-39.399 17.101 5.601c8.5 5.101 11.899-2.3 10.399-22l1.699-108.8c17.4 26 27.601 24.1 30.601-5.4l13.301-70.6c11.899 13.6 19.199 13.199 21.699-1.2 2.301-47.3 9.601-76.399 21.899-87.5 5.7 39.601 12.601 47.7 20.7 24.5l42.1-85.899 30.2 46.399c15.5-28 36.399-51.7 62.8-70.8l47.2-35.101 15 45.899c23.6-21.601 46.199-37.3 67.8-47l10.2 42.601c2.699 13.699 27.301 10.199 74.002-10.301l48-27.699c7.398 10.101 12.299 27.5 14.699 52.101.699 7.699 5.4 7.5 14-.601l41.1-30.7c1.101 41 10.801 58.101 29.201 51.101l83-29.601c-18.102 27.101-19.201 40.301-3.4 39.7l78.601-2.101c-24.9 30.7-30.4 47.101-16.301 49l67.505 11.608zm-677.702 172.099c-5.2-15.699-9.7-35.199-13.601-58.199l65.7 39.301-65.7-39.301c3.901 22.999 8.401 42.499 13.601 58.199-18.7-5-38.5-13-59.5-24.3l41.601 53.899-41.601-53.899c21 11.3 40.8 19.3 59.5 24.3z"/><path id="sd1" fill="#48B295" d="M1187.475 640.265c2.9 2.2 1.4 4.7.4 7.2-2.801 6.8-3.5 14.199-4.301 21.399-1.899 18.101 2.699 35.101 12.399 50.3 6.101 9.5 16.9 12.399 27.2 15.101 13.399 3.5 27.1 1.3 40.7 2.399-2.301 6.899-7.2 9.801-14.4 9.801-8.3 0-16.6.199-24.899-1.301-5.301-1-10.601-1.199-15.899-.8-8.9.699-13.7 5-16 13.8-1.7 6.5-1.4 13.2-1.5 19.899-.4 37.601 2.479 74.628 4.08 112.229 1 24.3 2.438 49.025 3.237 73.325.101 3.5 3.042 34.042 1.441 38.042-4.399-7.3-10.398-22.448-14.798-29.648-14.101-23.7-15.184-32.734-35.326-53.943-3.1-5.399-14.569-14.893-20.47-16.192-16.9-3.7-33.998-10.506-50.693-21.037-19.771-12.474-44.971-38.173-64.571-51.474 9-2.801 17.199-2.699 25.199-3.801 13-1.898 13.9-3.8 7.4-15-13.301-22.699-26.7-45.3-40.101-67.898.199-3.4 2.199-3.602 4.8-2.602 3.601.5 7.2 1 10.801 1.602 9.1 1.398 11.3-.7 10.5-10.2-.801-8.9-1.601-17.8-2.5-27.9 6.6.801 11.1 4.2 16.1 6.2 8.2 3.4 10.7 2.101 12.101-6.8.601-3.9.801-7.9.801-11.9 0-33.6-.101-67.199-.2-100.8v-10.5c3.8.5 4.5 3.9 6.2 5.9 2.8 3.3 5 7.1 8.6 9.6 6.4 4.5 11.301 2.8 13.7-4.5.699-2.2 1.199-4.5 1.601-6.8 4.899-26.8 9.699-53.601 14.6-80.4.2-.898.101-2.1 2.4-2.5 2.8 1.301 3.8 5 5.899 7.7 1.899 2.5 3.899 4.5 7.399 4 3.899-.6 4.199-3.7 4.601-6.7 1.8-13.199 3.3-26.399 5.399-39.5 2.199-14.1 3.899-28.399 9.899-41.6 1.9-4.101 3.5-8.601 7.5-12.101 2.9 6.5 3.601 13.101 4.5 19.601-3.399.1-4.399 2.699-5.3 5.199-6.4 18.801-11.301 37.801-12.9 57.899-1.1 13.601-1.1 27.101-1.699 40.7-.601 13.101 2.101 25.7 4 38.399.5 3.2 2.899 5.2 4 7.899-.199 2-7.101-.5-2.899 4.5 13 15.601 25.101 32 36.8 48.5 3.599 5.104 8.799 4.803 14.199 4.703zm684.8 76.5c14.801 46.601 15.201 93.601 4.899 141-4.6 21.101-11.198 41.8-17.1 62.601-1 3.601-3.4 7.199-1.301 12.699a29069.38 29069.38 0 0 1 55.102-44.699c-10.801-10.301-10.602-13.199 0-22 7.199-5.899 13.299-12.801 18.101-21.199-3.5-.7-6.4-1.102-9.201-2-16.699-5.4-17.799-21.602-6.699-28.801 1.1-.699 2-1.699 2.9-2.699 9.399-10.2 16.799-21.7 22.299-34.602-3.5-1.5-5.699-.3-7.898.102-9.801 1.898-19.701 3.3-29.701.898-4.699-1.1-9.1-2.8-10.5-8-1.399-5.199 1.4-9 5.101-12.199 2-1.699 4.102-3.5 6.301-4.899 6.699-4.4 12.899-9.4 18.801-14.8 11.799-10.801 22.101-22.801 30.5-37.4-5.6-.8-9.201 2.3-13.301 3-5.801.9-12.5 3.4-16.5-2.9-3.801-6 0-11.5 3.801-16.3 3.9-5 7.5-10.2 9.5-16.3 5.601-16.9 8.4-34.2 7.699-52-2.301 2.1-1.9 4.9-1.801 7.4.301 6.199-1.699 11.6-4.199 17.1-12.801 28.5-35.5 47.1-61.699 62.3-2.6 1.5-5.201 3.2-8.301 1.101.098 4.498 1.899 8.597 3.197 12.597zm-639.3-327.2c-6-11.1-12.1-22-18.3-33-1.2-2.1-1.7-5-5.101-5.699-2.399 4.399-5.5 8.3-6.5 13.199 1.899 1.301 2.199 3.2 2.301 5.2.699 20.899 4.199 41.399 8.3 61.8 1.399 6.801 2.2 14.2 8.101 21.9 1-2.101 1.699-3.301 2.199-4.5 6.301-16.4 10.9-33.301 15.4-50.2-3.1-2.299-4.7-5.5-6.4-8.7zm302.402 264.7c.6.899 1.199 1 1.898 0 1.801-30 12-58.101 19.602-86.899.6-2.301 1.6-3.5 4.1-3 .799 1 1.5 1 2.199-.101 5-11.7 9.9-23.3 15.6-36.601-18.198 11.2-29.698 26.101-40.1 42-7.9 12.101-7.799 26.399-9.4 40.2-.397 3.5 1.201 7.399-1.897 10.399 1.098 11.703 4.396 22.802 7.998 34.002zm-103.502-5.099c27.699-38 37.599-49.5 61.199-71 2.301-.801 4.5-1.7 6-3.801 7.901-7.101 10.303-16.899 14.803-26.199-4-.801-5.602.898-7.5 2.199-8.002 5.399-15.002 12-22.502 18-15.5 12.399-28.1 27.101-38.801 43.601-5.899 9.1-10.6 19-15.799 28.5-.1 3.099-.8 6.5 2.6 8.7zm147.4-304.801c-2.199-15.601-3.199-31.5-10-46.101-.699 3.2-1.799 6.399-1.898 9.7-.701 17.199-4.5 33.899-7.4 50.8-2.301 13.399-5.301 26.601-8.1 40.7 10-8 20.799-22.7 33.398-45-5.398-1.299-5.398-5.799-6-10.099zm-218.4-16.3c-2.9-10.8-6.301-21.6-9.5-32.3-.7-2.398-1.4-4.898-4.2-1.6 3.899 3.999 2.601 8.999 1.7 13.199-2.801 12.699-1.2 25.699-3.301 38.601-2.101 13.399 2.199 26.699 1.899 40.8 4.301-2.601 4.2-6.7 5.301-9.899 5-13.699 12.601-26.399 16.5-40.5-4.899-.501-7.099-3.601-8.399-8.301zm375.002 32.8c3.6-7.301 8.199-14.101 12.898-22.2-5.3 1.5-9.699 2.2-13.5 4.899-3.699 6.7-10.8 9.4-16.5 13.7-10.199 7.7-20.398 15.399-29.3 26.7 6.9.399 12.199.1 17.699-.601 10.801-1.301 21-6 32.101-5.2-6.599-6.697-7.5-8.998-3.398-17.298zm-278.502-18.2c-12.801.7-13.301.301-15.5-12.3-1.801-10.101-2.601-20.399-6.2-30.101-1.101.8-1.899 1.8-2.101 3.2-3.899 26.899-7.199 53.899-8.899 81.3 3.399-7.7 8.899-13.8 13.601-20.5 6.9-9.8 12.9-20.8 27.1-21.601-2.7-.098-5.401-.197-8.001.002zm182.4 11.301c-1.699-6.101-2.299-12.4-2-18.8.201-6.102 0-12.2 0-18.301-2.398-.101-3.898 1.101-5 2.899 3.102 5.2-1.101 9.399-2.5 13.8-4.398 14.301-7.5 28.7-7.101 43.7.201 6.8 1.601 8.101 7.601 6 9.301-3.2 18.5-7 26.399-13.2-10.498-.098-14.998-7.199-17.399-16.098zm163.801 51.199c3.9-8.5 10.5-15.101 15.301-23-17.301 9.7-34.9 18.899-51.4 30.7 9.199 6.899 24.699 11.5 36.101 11.101-4.002-6.201-3.002-12.401-.002-18.801zm72.301 121.4c3.799-7 8.699-13.1 13.398-19.398 4.301-5.7 9.602-10.7 12.7-17.4-2.301-1.899-4.6-1.3-6.801-1.1 0 2.6-1.5 4.3-3.299 5.898-13.201 12.102-24.103 26.4-36.801 39-1.699 1.7-4.5 3-4.302 6 7.701 3.5 15.701 5.5 24.101 4.9-3.297-6.2-2.098-12.1 1.004-17.9zm18.398 58.601c3.5-5.102 7.301-9.9 10.899-14.9-6.299 1.6-10.399 6.8-15.6 10-9.801 6-19.301 12.4-29.601 19.2 5 1.8 9 2.8 13.3 2.899 5.899.199 11.801 1.199 16.102 5.801-2.199-8.401.102-16 4.9-23zm-48.298-129.2c1.8-1.8 3.4-3.8 5.101-5.7-17.199 6.101-35.301 17.5-40.301 25.8h30.899c-4.1-7.901-1.199-14.301 4.301-20.1zm-218.901 125.5c4.9 7.3 5 7.3 13.699 4.7-1-3.5-4.299-4.9-6.299-7.4-1.4-1.7-4.101-3.5-1.802-5.8 1.802-1.9 3.601.5 5.101 1.5 2.399 1.8 4.6 3.899 6.899 5.7 11 8.6 20.4 19.1 32.4 26.3-9.101-13.8-33.5-36.2-44.9-41.101-2.5 5.301-2.698 12-8.6 15.301 1.201.199 2.403-.7 3.502.8zm-65.801.899c-.101 4 .899 6.301 5.5 6.199 8.201-.199 16.5-.1 24.5-.1.899-3.5-1.799-4.9-2.101-7.2-.5-3.3.701-5.101 4.101-5.3-8.398-5.9-8.199-5.7-16.898-.301-4 2.5-7.4 6.399-13.102 7v-18.3c-.799 0-1.5.101-2.199.101 0 5.901.301 11.901.199 17.901zm-176.7-136.399c14.5 8.1 27.399 18.899 41.601 27.399 4.5.3 8.1 2.699 11.2 5.699 10.8 10.5 22.099 20.602 30.5 33.4.199 1.199.199 2.5-.4 3.6-4 8.9-12 15.4-15 25 14.4-14.1 29.9-26.8 46-38.898-.5 2.6-1.6 4.6-2.5 6.8-2.799 7.1-5.599 14.2-8.299 21.3-.602 1.5-.801 3.5.601 4.7 1.6 1.5 3 0 4.299-.9 1.602-1.1 3.5-2 5-3.3 10.701-9.5 22.201-17.9 32.303-28 2.1-2.101 3.897-4.9 7.5-4 17.897 4.399 36.5 6.7 52.397 17.6 6.701 4.7 13.302 9.9 21.603 11.9-14.103-13.3-29.5-24.4-48.801-29.2 1.198-2 2-3.399 2.899-4.8 3.5-5.3 9.699-8.101 12.9-13.601.5-.801.897-1.601 1.199-2.399.1-.4.198-.9.301-1.3 1.799-5.602 5.699-9.602 9.6-13.7 8.601-8.7 17.601-17.101 25-27 5.799-7.7 11.799-15.2 17.699-22.7-35.801 14-63 40.4-95 62.101 6-21.101 18.301-39.699 14.699-62.101-16.799 19.101-35.699 36-49.398 57.8-11.603-17.5-19.201-37-35.901-50.3-1.5 3-.9 4.9-.4 6.8 3.4 11.4 7.102 22.801 10.102 34.301 1.699 6.601 6.199 11.601 10.898 18.601-20.898-9.9-39.699-19.2-58.699-27.9-15.699-7.198-31.5-14.1-48-19.198-3.699-1.2-7.199-1.7-12.5-.602 5.801 2.3 10.101 3.9 14.301 5.7 1.5.7 2.899 1.899.899 3.7-.303 1.498.197 2.797 1.397 3.498z"/><path fill="none" stroke="#000" stroke-linecap="round" stroke-linejoin="round" stroke-miterlimit="10" stroke-width="6" d="M1431.575 589.166l-117.699 1.5-31 38.398c-2.9 68.9-10.101 106.2-21.7 111.9-11.601 5.699-22.101 7.199-31.399 4.8-24.301-5.7-37 .3-37.899 17.899l9.722 242.265s-29.778-65.779-48.036-85.063c-7.354-7.769-21.462-16.373-38.733-21.38-33.023-9.574-71.353-48.322-100.853-68.723l28.9-4.7c8.699-2 9.399-8.6 2-19.8l-37-64.5 23.899 1.4-.5-39.4 17.101 5.601c8.5 5.101 11.899-2.301 10.399-22l1.699-108.801c17.4 26 27.601 24.101 30.601-5.399l13.301-70.601c11.899 13.601 19.199 13.2 21.699-1.199 2.301-47.301 9.601-76.399 21.899-87.5 5.7 39.601 12.601 47.699 20.7 24.5l42.1-85.899 30.2 46.399c15.5-28 36.4-51.7 62.8-70.801l47.2-35.1 15 45.899c23.601-21.601 46.2-37.301 67.8-47l10.2 42.601c2.701 13.699 27.302 10.199 74.002-10.301l48-27.699c7.4 10.1 12.299 27.5 14.699 52.1.699 7.7 5.4 7.5 14-.6l41.1-30.7c1.101 41 10.802 58.101 29.201 51.101l83-29.601c-18.102 27.101-19.201 40.3-3.399 39.7l78.6-2.101c-24.9 30.699-30.4 47.101-16.301 49l67.5 11.601c-36 20.199-44.199 34.6-24.601 43.199l52.201 9.5c-31.801 34.899-37.5 54.501-16.701 58.801l35.701 7.399c-35.602 31.801-41.201 52.699-17 62.699l40.299-4.699c2.9 23.199-1.799 47.601-13.799 73.199-10.201 14.602-3.701 20.301 19.398 17.102-10.299 17.898-28.5 37-54.699 57.398-7.199 17 8.199 22 45.9 15.102l-26.802 39.1c-10 17.8-4.198 27.7 17.5 29.8l-18.299 21.4c-10.102 7.8-10.201 15.7-.399 23.5l-54.201 44.399c.5-12.399 5.201-30.101 14.201-53.301 14.399-62.199 15.1-113.5 1.799-154.1-8.199-41.9-18-75.101-29.398-99.5l-44.5-43.301-76.602 1.2m-122.899 1.206l22.5 27.5 2.8-27.699m-.002-.001l26.102-.301m41.199.001h.301m0 0c-.102-.199-.201-.398-.301-.5m0 0c-3.301-8-7.1-16.199-11.1-24.398m-30.099 24.898c-8.701-6.699-17-12.1-24.5-16.398l-1.602 16.699m97.602-1.001l-30.301.199m.301.501l30-.699m-207.4-9.2c.699 3.898 1.3 7.699 2 11.5m-17.401-17.801c-6.603 5.801-13.103 11.801-19.4 18.199m36.801-.398l-36.801.398m119.301-1.499l-12.399-15.1m-29.303-6.1c-3.101 7.399-5.898 14.699-8.299 21.899m.001.001l50-.7m-82.5 1.101c5.4 29.699 11.8 53 19.101 69.898.6-22.199 5-45.699 13.399-70.3m101.4-1.199c17.1 12.9 36.6 30.301 58.299 52.301-3.799-16.801-9.4-34.199-16.799-52.301m-262.802 2.601c-.3 1.199-.5 2.398-.699 3.5-3.601 19-3.601 37.898 0 56.3 16.4-22.601 33.5-42.7 51.3-60.4m-36.201-40.9c-6.699 14-11.5 27.898-14.399 41.5m-182.801 1l-65.7-39.301c3.899 23 8.399 42.5 13.601 58.199-18.699-5-38.5-13-59.5-24.3l41.601 53.899"/></svg>