<svg xmlns="http://www.w3.org/2000/svg" id="hair" viewBox="0 0 3000 3000"><path id="cl1" fill="#42322B" d="M1876.732 1128.165c-.697.1-1.398.3-2.1.398-11.1 1.102-21.9.5-32.1-4.898-10.5-5.602-16.801-13.3-17.102-25.9-.299-13.1 1.9-24.898 10-35.699 11.102-14.601 12.801-32.5 16-49.899.701-3.8-3.299-6.5-2.699-10.4.9-8.7 10.102-11.2 13.5-18.8 3.801-8.6 4.9-16.2 5.102-25.7.299-16.3 1.199-34.1 12-48.3 8.199-10.8 13-22.1 15.199-36 2.5-15.6 7.1-30.8 7.898-47 .5-9.1 6.9-17.2 12-25 6-9.4 8.9-18.3 1.201-28.5-4.5-5.9-.801-12.6 1-18.6 1.799-5.9 5-11.4 7.1-17.301 2-5.699 4.102-11.699 2.4-17.601-3-9.7-1.201-18.899.4-28.5 3.299-19.899-3.701-38.7-6.803-58-.898-5.399-5.398-9.399-10.398-11.5-15.602-6.8-18.9-20.3-19.699-35.2-.301-5.3.1-10.699-.5-16-1.5-14.5-7.801-21.699-22.201-21.898-11.199-.102-18.699-4.5-25.1-13.102-7.299-9.8-17.1-16-28.9-20.199-16.699-6.101-30.398-17.801-43.6-29.5-4.699-4.101-11.6-6.801-12.799-14.301 3.1-4.8 7.697-8.1 11.799-11.898 4.201-3.9 8.201-3.8 10.5 2 2.1 5.398 5.701 7 11 5.398 1.301-.398 3-1.1 3.9-.398 9.398 7 21.898 10.8 27.398 21.8 3.4 6.8 6.4 9 12.701 4.899 5.898-3.801 11.1-3.699 16.1 1.399 2.801 2.9 6.4 4.2 10 2.101 6.9-4 10.4-.5 12.5 5.5 2.5 7.301 6.602 8.301 12.9 4.199 4.699-3 9.6-3.3 13.199 1.801 4 5.5 8.6 5.399 13.898 2.399 4.301-2.399 8.102-2.899 12.102 1.2 3.1 3.2 10.6 1.1 12.301-2.9 1.398-3.398-1.102-4.199-3.4-4.6-5.6-.8-11.301-.4-17-.4-9.199.102-16.699-2.6-22.398-10.398-13.602-18.5-31.602-28.102-55.102-25.602-3 .301-6 .102-9 0-14.5 0-14.5 0-19.5-14.1-1.301-3.602-3.199-6.5-6.398-8.7-.4-.2-.803-.399-1.201-.6-7.699-2.302-14.9-4.5-17.799-13.602-1.602-4.899-7-5.5-12-4.7-4 .602-7.602 2.4-11.5 3.2-10.602 2.2-14.201-.3-16.4-10.899-1.9-9.301-6.1-11.699-14.9-8.301-6.5 2.602-12.1 6.801-17.898 10.7-3.701 2.5-7.602 6.3-12.4 3.101-4.801-3.199-1.701-8.199-1.4-12.301.199-2.6.699-5.5 2.5-7.898-7.398 12.6-.5 22.898 5.301 33.3 2 3.5 6 6.7 2.6 11.602-8 5.398-16.199 3.898-24.199.5-3.898-1.7-7.6-4.102-11.199-6.5-6.9-4.602-14.4-6.9-22.801-5.2-8.6 1.7-15.898-.5-21.301-7.602-7.699-10.1-16.6-14.6-29.5-8.899-5.4 2.399-11.9 1.399-17.699-.399-7.699-2.399-15-1.8-22.398 1.2-8.201 3.399-16.201 3-23.803-2.101-8.197-5.399-16.799-6.101-25.501-1.2-8.8 5-16.6 3.301-23.698-3.3-2.7-2.5-5.7-4.601-8.7-6.801-7.4-5.3-15.2-5.898-22.1 0-11.302 9.4-23.802 10.7-37.602 8.301-13.3-2.301-26-.2-37.3 7.399-11.7 7.8-24.5 11.7-38.6 11.9-11.102.1-18.9 5.398-23.602 15.5-1.3 2.7-2.6 5.398-4.198 7.898-5.302 8.102-9.602 9.4-18.5 5.9-1.9-.7-3.602-1.7-5.5-2.4-10.4-4-15.102-1.898-19.602 8.5-1.2 2.8-2.2 5.602-3.3 8.4-3.5 8.398-9.101 13.898-18.8 13.898-6.602 0-9.5 3.9-10.802 9.7-1.198 5.5-1.898 11.2-2.898 16.7-2.102 11.5-7.9 14.8-19.2 11.7-19.6-5.5-26.4-2.2-31.3 17.4-2.102 8.3-7.4 14.6-10.4 22.198-1.7 4.102-5.6 4.2-9.2 4.5-11 .9-16.6 7.302-18.898 17.5-1.7 7.5-2.602 15.102-5.7 22.2-2.2 5.102-5.1 9.5-11.3 10-9.602.8-13.4 6.8-13.4 15.5 0 9.602-1.4 18.5-8.7 25.7-2.398 2.399-3.1 6-2.6 9.399 1.6 11 .6 22 1.1 32.899.5 10.601 3.2 20.4 10.102 28.7 6.3 7.6 7 15.5 1.898 24-5.8 9.7-10.698 20-16.1 29.9-7 12.8-15 14.6-29.3 12.1-23.602-4.1-34.9-19.5-42-40.3-3.4-9.9-9.7-17.101-19.4-22.8-18.8-11.102-40.4-16.9-57.4-31.2-4.6-3.8-11.8-3-15.698-8.2-4.4-5.7-6.7-12.2-6.302-19.5.9-14.8-1.698-29.1-6.6-43.2-4.9-13.899-2.5-28.2-.6-42.399 3.1-19.5 9.8-37.899 17.8-55.801 15-33.5 34.3-64.398 56.4-93.699 6.8.899 8.5-2 6.1-8 1.2-1.399 2.4-2.899 3.6-4.301 4.8-2.699 10.2 3.602 14.2 0 3.9-3.6 0-9.5 1.7-14.1 1.1-3 3-5.8 2.899-9.3 1.199-1.4 2.5-2.802 3.699-4.2 8.9-2.102 15.2-6.602 15.4-16.7 1.8-2.8 3.8-5.4 6.5-7.4 5.2 1.102 8.398-2 10.898-5.698 5.802-8.7 12.2-14.302 23.602-9.102 5.5 2.5 9.1-1 10.1-6.3 1-5.7 3.602-9.8 9-12.3 2.9-1.3 4.801-4 4.9-7.102.2-7.5 4.1-13.398 7.8-19.3 2.2-2.6 4.9-4.5 8-6 .7.5 1.3.4 1.9-.2l-.302-.1c2.802-1.6 5.802-2.3 9-2.9 5.802-1 10.102-4 9.2-10.999 2.9-2.699 6.102-4.801 9.8-6.301 2.4.5 4.602 1.7 6.602 3 11.398 7.2 12.5 7 19.898-4.8 4.102-6.6 9-12.5 14.9-17.5 2.4-2.1 5.8-4.7 9.1-3.7 12.802 4.102 17.2-5.898 23.102-13.3 3.2-2 6.8-3.1 10.6-3.399 7.102 7.699 14.602 10.301 23.301 2 1.899-1.801 5.601-1.5 7.601.199 6.2 4.9 11 1.801 16.1-1.8 5.3-3.899 11.2-5.2 16.5-.399 4.4 4 6.7 1.5 9.9-1.5 10.3-9.801 14.8-10.199 27-2.301 4.399 2.9 8 2.5 11.8-.699 2.8-2.399 5.4-4.899 8.6-6.899 8.7-5.4 12.9-4.7 17.2 4.6 3.3 7 6.9 7.2 12.102 2.5 1.698-1.6 3.398-3.3 5.3-4.6 8.1-5.8 14.2-5.5 20.898 2 4.802 5.2 8.602 5.5 13-.101 4.2-5.399 10-8.699 16.102-11.399 9.3-4.101 13-2.8 18 5.8 6.7 11.601 7.1 11.601 16.898 2.601 4.4-4 9.102-7.801 14.7-10.199 9.001-3.9 13.501-2.5 18.502 5.898 5 8.5 5.4 8.602 13 1.7 3.4-3.1 6.799-7.3 11.799-5.3 5.102 2.1 6.4 7.2 6.303 12.2 7.6-9.301 28.299-16.102 36.6-9 7.699 6.6 13.199 12.699 23.6 6.6 1.301-.7 3.199.601 4.5 1.7 5.4 4.8 11.4 4.8 17.699 2.6 2.801-1 5.5-.8 7.9.602 14.701 8.398 31.301 5.1 46.898 7.3 30.5 8.399 60.102 19 88.201 33.8 3.9 5.4 8.699 9.101 15.799 8.2 7.201 3.2 13.9 7.1 20.303 11.6 1.799 8 9.5 10.2 15 13.3 9.5 5.302 18.1 10.802 24.6 19.802 2.699 3.698 7.699 4.698 12.5 4.898 1.799.8 3.199 2 4.1 3.8.102 1.4.4 2.7 1.4 3.602 10.9 9.2 17.4 22.7 29.699 30.6 5.5 3.5 9.6 8.3 12.301 14.602 3.4 8.1 9.199 14.199 18.699 15.3 18.701 20.5 33.898 43.6 48 67.399 32.6 54.801 53.701 113.601 60.398 177.301 2.201 20.898 2.303 41.898.701 62.8-.898 11.7-4.398 22.899-8.301 33.899-12.699 36.601-29.4 71.399-46.6 106-26.5 53.399-55.301 105.601-84.199 157.699-1.102 2-2.102 4.2-3.4 6.102-5.5 8.5-6.201 16.3 2 24 5.102 4.8 8.299 11.199 11 17.699 5.102 12.399 4 24.101-4 34.899-5.801 7.801-12.398 14.801-21.701 18.7-.802.804-1.501 1.504-2.302 2.004z"/><path id="hl1" fill="#5B463C" d="M1682.533 260.665c-10.602 3.101-21.801 2.2-32.5 5-3.9 1-7-1.399-9.801-3.899-4.398-4.101-9.398-5-14.699-2.5-6.301 2.899-12 3.399-17.102-2.5-2.898-3.301-5.699-1.601-8.5 1-7.199 6.5-10.199 5.8-15-2.801-7.299-13.199-9.199-13.601-23.398-9.101-9.4 2.9-13.699 9.7-17.801 18.101-1.1-4.699-1.898-9.399-3.5-14-1.898-5.8-5.1-6.399-9.5-2.101-3.199 3.101-4.801 7.2-7.199 10.7-3.301 4.8-6 4.601-8.699-.5-1.701-3.2-2.702-6.8-4.103-10.2-3.6-8.5-7.399-9.8-15.5-5.1-6.101 3.5-11.199 8.1-14.899 14.3-5 8.3-10.2 8.2-15.7 0-2-3-3.2-6.601-5-9.8-3-5.4-5.8-6.4-11.6-4.2-8.102 3.101-14 8.601-17.9 16.5-4 8.101-5.898 8.101-11.7 1.2-1.698-2-3.1-4.301-4.8-6.4-4.7-5.699-8.398-6.3-14.6-2.1-2.7 1.899-5.102 4.3-7.5 6.5-2 1.8-3.7 3.899-5.801 5.5-5.199 4.1-8.399 3.199-10.301-3-.6-1.9-.699-3.9-1.199-5.9-2-7.8-5.301-9-12.101-4.199-4.1 2.899-7.399 6.699-10.7 10.399-5.698 6.399-6.698 6.3-11.698-.899-6.9-9.7-14.602-10.301-22.802-1.301-3.1 3.4-5.5 7.4-8.1 10.9-3-.2-3.1-2.601-4.1-4.2-4.5-7.5-8.2-8.399-15.4-3.899-1.4.899-2.6 2-4 3-2.6 2-4.4 5.399-7.9 5.899-3.698.5-4.198-3.8-6.398-5.601-3.5-2.899-7-1.899-10 .399-3.9 3.101-7.301 6.801-11.2 9.899-3.8 3.101-6.1 2.2-6.9-2.5-1-5.6-1.5-11.199-2.3-16.8 27.3-8.899 55.5-13.8 83.8-18 59.2-8.7 118.7-10.601 178.302-7.601 54.899 2.801 109.302 10.301 162.601 24.399 5.798 1.706 11.499 3.706 17.198 5.406zm-629.901 121.901c7.7 6.3 9.5 5.899 14.9-3.2 5.5-9.3 9.398-10.3 18.6-5.101 7.9 4.5 12.5 2.9 15.6-5.7.7-1.898.9-3.898 1.2-5.8.7-4 2.2-7.2 7-6.7 5.101.5 6.5-2.5 6.5-6.6-.2-9 1.3-17.9 2.4-26.8-23.9 18-45.7 38.2-66.2 59.901zm103.9-86.201c2 5.601 6.1 9.5 10.698 12.899 7.5 5.601 11.4 4.8 15.802-3.5 4.198-7.999 9.1-15.499 15-22.3 5-5.699 5.398-6 12.3-1.899 3.7 2.2 7 2.601 9.899-.601 4.601-4.899 8.199-10.5 11.199-16.399.9-1.7-.1-3.2-1.3-4.5-26.198 8.8-50.598 21.201-73.598 36.3zm706.501 59.701c-.801 5.399.398 10.3 5.1 13.199 5.6 3.4 8.5 8.2 9.801 14.301 1.102 5 4.102 8.399 9.301 9.3 9.5 1.7 14.5 7.5 15.898 16.801.201 1.6.701 3.3 1.301 4.8 2.102 5.899 4.9 7.899 11.199 8 3.4 0 6.602-.7 9.602-2.3-18.702-23.402-39.503-44.702-62.202-64.101zm-854.701 78.199c3.898 3 7.6 6.301 11.7 9 6.6 4.301 9.898 2.801 10-5 .198-9.199-.9-18.399-3-27.399-6.6 7.499-13.2 14.999-18.7 23.399zm798.502-119.9c-1.602 5.899 1.799 9.399 6.299 12.101 4 2.3 8.201 4.2 12.4 6.2 6.398 3 11.5 7.399 15.398 13.399 5.5 8.8 7.201 9.199 18 6.3-15.997-14.6-33.398-27.299-52.097-38zm-678.402 2.1c3.5.7 7.102 1.2 10.602 2 9.8 2.399 13.3-1.101 10.8-11-.5-2-1.7-3.5-3.1-4.899-6.503 4.099-13.302 7.799-18.302 13.899zm-97.6 90.3c4.898 1.5 10.3 4.9 14.6.601 4.7-4.601 3.101-10.8 1.101-16.5-.101-.3-.199-.601-.399-.899-5.702 5.099-10.602 10.798-15.302 16.798zm729.9 63.7c-6.799-6.1-13.898-11-23.898-8.399-4.9 1.301-8.699-2.399-12.301-5.301-5.398-4.398-11-8.398-17.801-10.3-8.199-10.3-12.199-21.899-12.199-35.101 0-8.899 4.699-13.699 11.801-17.5 2.301 2.801 1.1 5 .5 7.199-1 3.5-2.301 7-3.301 10.5-.6 2.102-2 4.7.699 6.301 2 1.101 3.801-.5 5.4-1.601 6.201-4.5 12.6-8.7 19.6-11.899 3-1.399 6.102-2.801 9.5-3.101 6.602-.7 10 1.8 11.5 8.3.201.602.201 1.301.301 2 2.199 13.2 3.602 14.102 16.102 10.4 4.5-1.3 9-2.601 13.699-2.9 5.301-.3 9.5 1.5 10.6 6.9 1.801 8.7 7.701 11.9 15.701 12.7 1.6-.3 2.199.398 2.1 1.898 4.6 2.7 7 6.5 8.1 11.9 1.602 8.3 3.5 9.7 12.199 10 8 .3 16 .2 24 .3 12.602.102 23.4 4.602 32.201 13.602 4.4 4.5 9.199 8.8 13.199 13.6 4.898 5.9 11 8.4 18.301 8.5 7 .1 14 .1 21 .2 2.299 0 4.699 0 7 .3 5.6.9 6.699 3.5 3.199 8.2-3.4 4.7-8 8.1-13.301 10.3-5.199 2.2-10.6 3.7-15.301 5.4-3.699-2.5.701-5.602-2-7.7-3.6-.2-6.1 2.398-9 3.8-7.199 3.4-8.799 3-13.1-3.4-4.102-6-4.602-6.1-10.9-2.1-12.398 7.8-12.398 7.8-16.1-6.4-1.4-5.398-2.602-6-7.602-3.5-8.299 4.2-8.299 4.2-13.6-2.698-4.199-5.5-5.4-5.7-11.6-2.2-2 1.1-3.9 2.6-6 3.6-6.301 2.8-10.801 1.102-11.9-5.6-1.199-6.7-3.5-11-10.5-12.5-2.9-.602-4.299-4-6.199-6.3-5.398-6.7-6.801-7-14.301-3.5-1.199.6-2.299 1.3-3.5 1.8-3.4 1.3-5.9.3-7.199-3.102-.699-1.8-.898-3.898-1.398-5.8-.803-3.1-2.602-3.8-5.102-1.898-2.798 1.9-5.397 4.001-8.599 5.1zm-676.1 52c-4.3 2.8-7.8 6.9-14.3 4.8-6.5-2.1-8.102-.6-9.4 6.2-.8 4.2-1.2 8.601-2.1 12.8-1.9 8.801-2.5 9.4-11.7 9.801-4.1.199-5.5 2.101-4.6 5.699.5 2.2 1.198 4.7 2.698 6.4 5.7 6.4 13.802 5.9 21.302 6.6 5.698.5 6-5.199 8-8.8 1.1-2 2.3-4.1 3.8-5.8 4.6-5 8.399-10.5 10.8-16.7 5.5-14.8 21.602-16.5 31.4-25.898.8-.7 2.6-.602 3.898-.5 7.302.198 11.2-3.5 12.102-10.5.699-5.602 3.8-9 9.199-10.5 4-1.102 7.301-3.5 9-7.302 3-6.398 7.601-7.698 14-5.6 2.601.9 5.601 1.2 7.699-.6 4-3.5 10-5.7 12.301-9.7 4.301-7.4 9.199-7.4 15.801-5.3 1.5.5 3.3.6 5 .3 7.1-1.102 13.898-.8 20.6 2.2 4.102 1.8 7.4.5 8.2-4.2 1-5.9 3.7-8.2 9.7-5.8 3.3 1.3 5-.4 5.198-3.802.102-1.6.102-3.398 2.4-4.1.8.3 1.7.5 2.6.899 2.2 1.101 4.5 2.301 5.9-.801 1.1-2.5-.2-4.5-2.1-6.1-3.4-2.8-7.302-3-11.302-1.7-4.6 1.5-9.1 2-13.698 0-3.4-1.399-6.7-3.2-10.2-4.2-7.6-2.2-15.4-3.1-21.3 3.7-5.102 5.9-11 6.7-18 4.601-13.5-4.101-24.102-.199-32 11.699-4.302 6.5-4.7 6.2-11.802 2.602-5-2.602-7-2.2-9.8 2.6-1.7 2.9-2.899 6-4.2 9.102-2.3 5.198-5.5 9-11.898 8.8-5-.102-7.9 3-9.602 7.398-1 2.5-1.698 5-2.698 7.5-4.102 10.302-5.9 11.2-16.9 8.4-1.7-.4-3.4-.9-4.7.6-1.699 2-.199 3.7.9 5.4-1.398 3.203-3.698 6.502-.198 9.802z"/><g id="sd1_16_"><path id="sd4" fill="#312520" d="M1402.632 514.566c3.2-2.801 6.9-3.801 11.1-3.899 3-.101 6-.4 9-.101 15.2 1.399 29-1.5 40.7-12.301 5.101-4.699 11.9-6.199 18.7-5.6 22.801 1.8 45.001-4.3 67.702-4.5 8.6-.102 16.1-4.5 23-9 14.697-9.602 28.398-7.8 41.6 2.398 6.9 5.4 13.9 7.2 22.299 4.602 9.102-2.8 17.801-1.102 26.102 3.3 3.801 2 7.699 3.9 11.6 5.9 5.4 2.698 10.801 3.398 16.301.398 8.199-4.398 15.4-2.2 22.199 3.102 2.6 2.1 5.201 4.198 7.701 6.398 5.699 4.9 12.199 8 19.6 9.2 6.6 1 13.1 2.4 19.699 3.6 1.6.302 3.4.4 4.9.9 26.398 10.1 51.398 22.2 68.699 45.8 3.602 4.9 7.4 9.5 12 13.4 8.602 7.5 12.4 16.899 13.102 28.1.697 11.3.898 11.4 11.898 14.8 6.5 2 10.699 6.302 11.301 12.602 2 19.6 11.1 37.8 11 57.8 0 4.6 1.898 8.4 5.199 11.5 6.4 5.8 8.5 13.3 8.5 21.6 0 7.102.699 13.9 3.801 20.4 2.199 4.5 1.398 9.1-.301 13.6-2.898 7.5-4.6 15.302-5.5 23.302-.898 8.198-5.801 14.8-8 22.5-5.898 5.198-8.199.1-8.5-4.102-.699-10.6-5.898-18.7-11.398-27.2-5.602-8.6-9.602-18.198-9.303-29.1.201-5.8-2.5-10.6-5.697-15.6-12.602-19.5-25.4-38.9-32.602-61.302-1.199-3.8-1.801-8-4.301-11.1-10.4-13.4-15.1-29.5-21.299-44.9-5.102-12.6-15.701-22.198-19.602-35.6-1.1-4-5.5-5.9-9.801-5.9-6.5 0-11.1-3.398-16-6.898-9-6.5-18.4-13.102-29.5-3.2-2.799 2.5-6 .4-8.9-.8-7.898-3.3-15-2.102-23 1.398-10.799 4.7-22.197 9.302-33.299 12-12.301 2.9-26.201-.8-37-8.698-12.801-9.302-24.5-8.7-36.6.5-1.9 1.398-3.9 2.5-5.9 3.8-6.801 4.6-13.6 5.2-20.301-.2-6.6-5.4-12.799-5.1-18.299 1.6-3.801 4.602-7.9 6.802-13.9 4.602-6-2.3-10.201 1-13.801 5.398-5.401 6.602-11.2 12-20.601 7.4-.602-.3-1.5-.4-2-.1-13.602 9.3-29.602.8-43.802 5.6-.8.3-1.698 1.5-3.198.7-10.2-5.3-20.802-3-31.4-1.4-5 .7-9-1.3-11.7-5.898-1.7-2.9-4.7-6.5-7.8-5.2-8 3.2-14.1.5-21.1-3-5.9-2.9-11.602.7-16.102 5.1-2.6 2.602-4.2 6-6.1 9.102-6 9.898-7.801 10.5-17.801 5.198-5.801-3-10.199-1.8-14.101 3-1.899 2.302-3.399 4.9-5.1 7.4-3.5 5.6-8.4 7.9-14.4 4.7-7.6-4.102-12.3-1.102-17.1 4.8-6.2 7.6-14.3 13.8-15.9 24.6-.5 3.9-4.1 5.802-8.1 6.302-8 .898-12.2 6-14.9 13-3.399 8.5-4.899 17.3-4.899 26.398 0 4.9.601 9.9-.801 14.8-1.1 4-3 7.7-7.6 7-7.7-1.198-9.6 2.9-9.4 9.102.2 8.3-2.5 13.898-9.199 20.1-6.101 5.8-11.101 14.5-15.301 22.3-5.699 10.7-10.699 21-22.8 25.802-3.4 1.3-2.5 4.398-1.8 6.898 1.8 6.602 1.898 13.102 0 19.7-3.301 6.7-6.5 13.4-9.801 20.1-7.399-11.898-14.199-24.1-16.101-38.3-.6-4.7-2.3-8.898-5-12.898-3.1-4.5-4-9.602-.899-14.102 6.899-9.898 6.801-21.3 7.801-32.5.199-2.7.199-5.3.398-8 .4-4.7 2.4-8.5 7.102-9.898 6-1.9 8.1-6.102 8.699-12 .801-8 2.199-15.9 5.5-23.302 1.5-3.398 1.199-6.3-1-9.3-2-2.6-2.5-5.7.699-7.898 2.7-1.802 5.102-.4 7.102 1.6.898.9 1.698 2.1 2.698 2.9 4.4 3.5 8.2 2.398 9.9-3 .8-2.5.7-5.2 1-7.9.4-4.6.7-9.3 1.1-13.9 1-12.5 6.2-21.898 17.802-28 14.1-7.398 19-21.699 24.198-35.5 1.302-3.398-.3-5.699-2.6-7.898-2.1-2-3.3-4.5-1.2-7 2.2-2.7 5.4-3.102 8.102-1 3.8 3 7.698 3 12.198 2.199 5.602-1.101 9.5-3.801 12.5-8.801 5.5-9.5 8-10.199 18.7-6.6 7.4 2.4 8.602 1.9 12-5.8 4.9-11 6.8-11.9 18.2-8.102 7.1 2.4 9.399 1.7 13.399-4.398 2.601-3.9 4.601-8.2 7.301-11.9 6.199-8.6 13.1-10.3 22.6-5.8 5.102 2.399 10 5.3 15 7.9 10.8 5.698 13.5 5 20.602-4.9 4.506 1.395 8.205 1.095 10.106-3.905zm-481.6 306.399c6.5 35.5 16 70.101 35.6 101.101 21.4 34 47.4 64.199 75.5 92.601 1.1 1.1 2.1 2.7 4.8 2.2-.8-5.801-4.398-10.2-7.198-14.9-10.5-17.9-13.302-36.6-7.2-56.6 3.6-11.9 8.8-23 15.7-33.2 2.6-3.9 5.8-7.2 9.898-9.601 18-10.301 36.602-13.699 56.4-5.601 6.5 2.601 13 5.101 20.1 5.7-2.5-4.8-3.6-10-4.3-15.3-.8-5.7-2-11.5-6.2-15.5-13-12.5-23.2-28-40.398-36.4-9-4.399-18.5-7.3-27.602-11.3-8.5-3.7-17.398-6.4-26.3-9.2-14.5-4.5-29.5-8.399-41.9-17.899-3.1-2.399-6.6-3.301-10.3-2.101-11.3 3.4-20.9.3-29.5-7.3-2.2-2-4.8-3.5-7.4-5-6.8-3.9-12.398-8.9-16.1-15.9.099 18.101 3.099 36.2 6.4 54.2z"/><path id="sd3" fill="#241B18" d="M1174.731 812.665c-2.6-9-5.198-17.9-7.698-26.9-.602-2.2-1.102-4.6-1.2-6.898-.1-3.102 1.5-4 4.6-3 8.4 2.898 8 2.398 13.301-3.4 4.801-5.3 9.301-10.2 9.899-17.8.2-2.3 2-4.3 4.2-5.3 6.4-2.802 8.3-8.102 8.8-14.5.101-2 .5-4 1-5.9.4-1.7 1.4-2.9 3.3-3.3 7.5-1.602 7.5-1.602 7.7-8.602.2-4.3.2-8.698 1-12.898 1.5-7.7 4.2-8.7 10.8-4.7 1.102.7 2.102 1.7 4.302 1.2 2.898-3.7 1.8-8.5 1.8-13-.102-10.8 1.3-21.2 5.7-31.2 3.398-7.9 7.398-15 17.5-15.5 4.398-.2 6.1-3.8 6.5-7.7.698-7.1 2.698-12.7 10.398-15.3 3.8-1.3 5.3-5.8 7.7-8.9 6.7-8.698 9.4-9.5 19-4 4.6 2.602 7.4 1.4 10.1-2.398 2.7-3.8 5-7.9 8.102-11.4 5.398-6.1 9-6.3 15.398-1.5 7.602 5.7 9.4 5.7 13.302-2.898 4.098-8.903 10.397-14.303 19.697-16.803 4.5-1.199 8.7-1.5 12.102 2.101 3.699 3.8 6.699 4.2 11 .399 4.5-4 7.898-3.801 10.699 1.301 6.301 11.5 14.899 13.898 26.601 9.5 4.1-1.5 8.699-.7 12.5 1.699 4 2.399 7.699 3.301 12.199 1.101 4.899-2.4 9.801-1.4 14.399 1 5.2 2.7 9.601 1.7 13.601-2.4 5.199-5.3 10.899-7.2 18-3.7 4.301 2.2 7.699.2 10.602-3.1 2.8-3.3 5.399-6.7 8.399-9.9 3.4-3.699 7.4-6 12.199-2.1 3.602 3 6.602 2.1 9.5-1.2 2-2.2 4-4.5 6.4-6.3 5.1-3.8 8.4-3.7 13.6.1 1.602 1.2 3 2.602 4.602 3.9 4.398 3.6 9.1 4 13.898 1.1 4-2.398 7.9-4.898 11.801-7.5 11.301-7.398 22.602-7.898 33.4.4 9.801 7.5 21.301 8.9 32.801 10.7 4.6.7 8.5-1.101 12-3.9 4-3.3 8.6-4.899 13.801-5.1 4.1-.2 7.898-1.3 11.299-3.601 7.201-4.699 15-5.399 22.9-2.301 5 2 8.801 1.5 12.6-2.398 3.701-3.801 8.5-3.7 13-1.602 6.301 3 12.9 5.4 18.201 10.301 3.6 3.301 7.699 5.199 12.699 4.601 7.5-.9 12.301 3.1 14.6 9.6 3.699 10.101 8.4 19.3 15.199 27.8 5.301 6.7 7.102 15.7 9.801 23.9 2.801 8.3 6.301 16.1 11.699 23 3.5 4.5 6.199 9.5 7.5 15.1 3.102 13.9 9.699 26.102 17.801 37.7 2.5 3.601 4.801 7.3 6.199 11.4 1.801 5.2 4.5 9.6 8.699 13.2 4.602 3.898 6.602 9.1 6.5 15.1-.1 13.9 4.5 26.1 13.301 36.8 3.9 4.8 6.102 10.3 6.699 16.4.4 4.1 1.301 7.899 4.102 11 2.1 6.2.1 11.899-2.699 17.2-4.602 8.6-7.701 17.5-7.701 27.5 0 4.699-1.398 9.3-4 13.199-4.299 6.301-5.799 13.301-6.6 20.601-2.5 24.2-9.6 47.5-13 71.5-3.4 5.899-6.6 11.899-8.1 18.5-.801 3.399-1.801 5.7-5.801 3.399 2.199-22.5 4.4-45.101 6.6-67.601 3.301-34.1 6.4-68.3 9.801-102.399.6-6.199-.4-11.699-3.1-17.301-15.102-31-33.699-59.8-53.199-88-21-30.398-42.801-60.3-64.201-90.398-2.1-3-4.6-5.801-6.5-8.801-5.4-8.301-12.6-11.899-22.699-11.5-15 .601-30 .301-45 .101-50.6-.601-101.201 1.6-151.801 2.5-43.601.8-87.201 2.6-130.701 5.8-14.3 1.1-28.5 2.8-42.6 5.3-10.102 1.8-19 5.9-26.9 12.4-9.5 7.899-18 16.8-26.1 26.2-37.102 43.5-68.2 91.1-98.602 139.398-6.5 10.599-12.9 20.698-19.201 30.898z"/><path fill="#362923" d="M1760.732 470.465c10 9.8 20.9 18.5 32.303 26.601 9.1 6.399 18 12.301 29 15.199 10.6 2.801 17.398 11.102 23.697 19.102 6.102 7.8 12.9 11.3 22.9 11.5 17.1.3 24.6 8.1 25.801 25.199.602 9.301 0 18.601 1.9 27.899 1.799 9.101 5.898 16.2 14.799 19.9 10.301 4.3 15.602 12 16.301 23 .301 4.3.801 8.6 1.301 12.898.199 2.302-.199 5.302 1 6.802 8.898 11.1 3 23 1.898 34.398-.799 8.3-2.199 16.2.201 24.602 2.299 8-.701 15.8-3.701 23.3-2.199 5.6-4.898 10.898-7.1 16.5-2.4 6-2.299 11.8 2.398 16.8 6 6.4 5.4 13.1 1.303 20.2-4 6.898-8.102 13.8-12.102 20.7-4.1 7.1-6.199 14.698-5.898 22.898.398 9.5-1 18.5-4.9 27.3-2.301 5.2-3.1 10.9-3.1 16.602.1 7.3-2.102 13.7-6.803 19.3-1.299 1.5-2.197 3.4-3.6 4.8-12.199 11.8-13.6 27.7-16.6 43-.602 3 0 6.101 1.5 8.7 4.398 7.4 2.398 14.3-1.9 20.7-5.199 7.7-11 15-16.5 22.5-.6-.2-1.199-.3-1.799-.5-5-6.3-2.602-13.8-.701-19.602 2.801-8.3 4.6-16 2.4-24.5 7.301-21.698 10.699-44.3 14.6-66.8 1.9-10.7 2.201-21.7 8.6-31.2 1.303-1.898 2.102-4.3 2.201-6.5.699-12.1 4.299-23.3 9.4-34.198 1.898-4 1.398-8.4 1.299-12.7 5.6-6.3 6.701-14.2 8.1-22 1.303-7.9 4.602-15.8 4.602-23.4.1-17.899 1.6-36.7-10.102-52.2-3.697-4.8-5.799-9.199-5.898-15.199-.4-19.199-8.199-37-11.4-55.601-1.1-6.6-6.898-9.7-13.299-10.399-6.701-.699-9.4-4.5-9.1-10.699.697-15.801-7.303-27-16.9-39-13.701-17-29.9-29.9-48.301-41-14.102-8.5-29.5-12.102-45.301-14.5-10.6-1.602-19.799-5.401-27.6-12.701-7.299-6.8-15.398-10-25.5-5.602-5.398 2.4-11.1 1.302-16.398-1.6-14.102-7.6-28.4-13.1-44.9-7.7-5.199 1.7-9.801-1.6-13.699-4.8-13.801-11.3-28-12.6-43.201-2.7-9.398 6.2-20 7.5-31.299 8.4-19.9 1.6-39.702 4-59.702 4-6.898 0-13.1 2.898-18.3 7.3-9.7 8.2-20.6 11-33.3 10.5-7.5-.3-15.801-3.1-22.9 2.3-2.398 3.9-7.3 2.4-10.3 5-10.5 12-13.3 12.4-27.9 4.4-1.698-1-3.5-1.9-5.3-2.8-15.8-8.102-20.7-6.7-29.9 8.8-7 11.8-7.5 12.1-21.398 10-5.4-.8-9.4.898-11.2 5.898-3.2 9-8.9 11.802-17.9 8.302-4.3-1.7-9.698-1.602-11.698 2.6-5.102 10.3-14.7 11.6-23.9 13.9-2.4.6-3.4 1.198-4.3 3.898-6.3 18.102-13.602 35.602-31.8 45.602-6.5 3.6-9.602 9.8-11 17.1-1.602 8.2-2.102 16.5-2.4 24.8-.3 8.102-4.4 12-11.7 11.8-1.8 0-3.7.2-5.2-1.6-.6-.7-1.398-.4-1 0 1.602 1.7-.1 3.4-.8 4.9-4.5 8.8-6.2 18.3-7 28-.5 5.8-2.2 10.3-7.8 12.8-5.9 2.6-7.9 7.7-8.2 13.8-.5 11.7-1.1 23.3-6.5 34-1.1 2.1-1.5 4.7-.5 6.8 6.3 12.602 5.101 27.602 12.9 39.7 3.3 5.1 2.3 11.3 3.2 17 0 .5 0 1-.102 1.5 2.4 5.3-.7 11.1 1.8 16.4 4 26 7.9 52 12 78 2.802 17.398 2.52 30.399 5.332 52.266 1.139 8.854 1.057 37.46 4.762 45.581 7.91 17.334 15.961 14.572 27.36 32.372 4.5 7 6.74 14.508 9.341 22.508 4.6 13.898 1.003 28.28-8.497 39.981-5.5 6.9-11.301 6.008-19.999 2.008-12.2-5.7-19.944-4.997-32.845 3.003-10.7 6.601-27.89 5.233-40.39 3.134-3.601-.602-8.581-3.905-4.117-10.46 1.728-2.537 16.593-2.441 19.218-3.039 5.734-1.306 13.32-1.827 18.393-4.991 6.243-3.894 16.955-15.065 19.757-19.825 10.861-18.451 10.472-18.674 10.606-35.035.077-9.399-7.617-24.232-10.606-33.058-7.344-21.688-8.515-37.544-14.215-56.444-4.3-14-9.2-27.9-15.4-41.2-4.8-10.3-12.3-18-22.6-23-5.5-2.9-8.9-7-9.602-13.5-.8-7.9-5.3-14-10.3-20.101-16.8-20.601-38.6-32.899-63.5-41.199-16.7-5.602-33.8-10.2-50-17.2-3.7-1.601-7.398-2.8-10.8-5-5.2-3.4-10.8-5-17.1-4.101-10.2 1.399-19-1.801-26.802-8.399-1.8-1.5-3.6-3.101-5.698-4-9.7-4.4-14.9-12.101-16.4-22.4-2.9-15.5-2-31.1-2.3-46.7-.7-36.3 1.8-72.398 8.398-108.198 1-5.2 2.5-10.302 3.7-15.5-.7 16.5 2.2 32.5 8 48 3.4 9.198 4.602 18.698 4.3 28.5-.1 4.6 0 9.398.602 14 .898 7.1 4.3 12.5 11.898 14.398 4.602 1.2 8.102 4.4 12.102 6.8 11.2 6.9 21.3 16 35.3 17.602 2.2.2 4.5 1.5 6.2 2.898 4.898 4.2 9.898 7.9 16.398 9.102 2.3.398 4.6 1.798 5.6 3.898 3.899 7.601 10.3 14.101 11.899 22.899 2 11.2 10.301 18.4 16.801 26.7 2.199 2.898 6.199 3.7 9.8 4.7 4.2 1.1 8.4 2.1 12.6 3.198 9 2.5 14.2 1.5 18.9-6.3 7.2-11.898 13.6-24.398 19.9-36.898 2.5-4.9 1-10-2.5-14-9.5-10.7-11.7-23.5-11.5-37.2.1-9.7.3-19.3-2.301-28.8-1.5-5.602-.199-10.802 4.601-14.302 6.199-4.398 7.6-10.6 7.699-17.5 0-5.698.5-11.3 1.899-16.8 1.301-5.3 4.5-7.6 10-7.7 10.7-.1 12.4-1.6 15.101-11.8 1.801-6.8 3-13.7 4.699-20.398 2.602-10 8.2-16.602 19.5-16.602 7.4 0 11.602-4.3 13.801-10.898 1.601-4.7 2.801-9.602 4.301-14.302 1.199-3.8 2.399-7.698 4.199-11.198 4.899-9.4 11.801-12.7 22.301-10.9 3.899.7 7.6 2.3 11.5 3.3 6.8 1.7 10.5-.1 11.699-7 1.899-10.8 4.399-21.5 6.5-32.199.5-2.699.399-5.5 3.399-6.601 3.101-1.2 4.801 1.101 6.801 2.9 5.399 5 9.399 4.5 13.899-1.4 2.601-3.5 3.9-7.7 5.4-11.8 1.3-3.4 2.3-7 4.1-10.2 3.4-6.3 8.3-8.2 15.101-5.899 3.801 1.199 7.301 3.301 11 4.801 8.399 3.6 11.699 2.5 16.199-5.7 1.4-2.602 2.601-5.4 3.9-8.102 4.5-9.198 11.699-14.198 22.1-14.6 5.301-.2 10.601-.8 15.9-1.5 8.1-1 15.6-3.9 22.199-8.601 13.602-9.799 28.802-11.899 44.802-9.199 12.698 2.1 23.398-.2 33.5-8.602 9.5-7.898 16.1-7.3 26.1.102 3.7 2.8 7.2 5.898 10.9 8.8 5.198 4.2 10.8 5.2 16.698 1.7 10.603-6.4 20.702-6 30.804 1.1 5.898 4.101 12.398 4.801 19 1.801 9-4.101 17.898-4.301 27.197-1.2 5.9 2 11.9 1.7 17.5-1.3 10.102-5.399 18.201-2.301 25.803 5.899 1.6 1.7 3 3.601 4.398 5.399 4.301 5.501 9.801 8.001 16.699 6.501 10.6-2.4 19.701.3 28.1 6.8 8.602 6.6 18.4 9.2 29.102 8.1 2.301-5.7 6.301-3.898 9.6-1.7 9.602 6.602 19.5 11.802 31.701 11.602 4.4-.102 8.1 4 11.9 6.5 3.302 1.999 2.802 4.599.901 7.299z"/><path fill="#362923" d="M1854.533 1000.566c-4.5-2.801-5.199.801-6.602 3.699-2.1 4.301-3.699 9.301-3.398 13.4 1.1 13.8-5.9 23.5-14.301 32.8-9.199 11.601-15.699 24.7-21 38.4-2.1 5.3-2.801 10.898-2.699 16.698.1 6 2.199 11.2 7.1 14.7 18.801 13.7 39 18.102 61 8.3-9.699-3.398-20-5-29.4-9.398-7.299-3.5-13-8.4-14-16.8-1.6-12.802-1-25.2 7.803-35.9 5.6-6.8 9.299-14.8 10.5-23.4 2-14.1 5.697-28 5.197-42.398l-.2-.101z"/><path id="sd1" fill="#291F1B" d="M1854.533 1000.566c-5 5.699-8.199 12.199-7.801 20 .801 13.5-5.801 22.801-16.398 29.899 12-17.6 13.799-38.1 16.1-58.399.6-5.199 1.5-10.399 2.299-15.601 3.4-8.1 6.5-16.3 13.803-21.899-1.9 9.101-3.701 18.199-5.803 27.301-1.399 6.199-2.1 12.398-2.2 18.699z"/></g><path fill="#322621" d="M2006.133 704.265c-.1 5.102-2.799 9.102-6.199 8.7-4.301-.5-4.801-4-4.898-7.399-.102-5.101 2.398-9 5.697-9.199 3.3-.202 5.499 3.098 5.4 7.898zm-935.201-2c-.198-3.3-2-5.699-5.5-5.898-3.1-.102-4.898 1.898-4.898 5 .1 3.398 2.1 5.398 6 6 2.697-.501 4.598-2.001 4.398-5.102zm928.201-131.8c-.1-3.1-2.199-4.6-5.199-4.5-2.801.101-5.1 1.601-5 4.8.102 3.2 2.4 4.301 5.4 4.602 2.898-.402 4.898-1.801 4.799-4.902zm-82.5-118.599c-3.299-.102-5.699 1.5-6.1 4.898-.301 2.7 1.398 4.3 4 4.4 3.301.2 5.5-1.5 6.199-4.7 0-2.799-1.398-4.398-4.099-4.598zm-801.001 10.099c.2 3 1.9 5 5 4.7 3-.3 4.5-2.5 4.3-5.5-.198-3-2.1-4.602-5.1-4.8-3.101.6-4.4 2.701-4.2 5.6zm810.401 406.2c0 3 1.699 5 4.801 4.898 3.1-.1 4.6-2.198 4.5-5.198-.102-2.9-1.701-4.802-4.801-5-3.199.4-4.599 2.4-4.5 5.3zm-232.4-583.7c-2.799-.399-5.5 2.801-5.1 5.899.301 2.601 1.801 4.301 4.5 4.301 3.301-.101 4.398-2.399 4.6-5.301-.199-2.598-1.199-4.499-4-4.899zm-580.902 318.5c0-2.7-1.698-4.2-4.398-4.399-3.2-.301-6.2 2.301-5.801 5.199.399 2.7 2.399 3.7 5 4 2.8-.399 5.199-1.5 5.199-4.8zm-77.399 22.901c-.2-2.9-1.802-5-4.9-5.4-2.8-.3-4.399 1.4-4.5 4.1-.1 3.5 2 5.4 5.3 6 2.999-.401 4.4-2.101 4.1-4.7zm53.7 126.2c-.2-2.601-2-4.199-4.602-4-3.1.199-4.699 2.301-4.5 5.301.2 2.6 1.9 4 4.602 4 3-.501 4.8-2.301 4.5-5.301zm841.001-227.901c-2.5-.102-4.699 1-5.102 3.7-.5 3.198 1.5 4.898 4.5 5.398 3.102.5 5-1 5.701-4.5-.4-2.697-1.999-4.498-5.099-4.598zm-191.699-146.3c-2.5.301-4.201 1.899-4.303 4.601-.1 2.7 1.5 4.399 4.201 4.2 3.102-.101 4.5-2.2 4.9-5.101-.499-2.7-2.099-4.1-4.798-3.7zm168.799 577.4c.4-2.699-.9-4.6-3.699-4.8-2.6-.2-4.5 1.3-4.898 3.9-.5 2.7 1.1 4.3 3.697 4.898 2.701-.098 4.499-1.397 4.9-3.998zm-904.501-423.199c.5-3.301-1.4-5-4.5-5.101-2.3-.1-3.8 1.3-4 3.601-.2 2.801 1.5 4.199 4 4.699 2.3 0 4.2-.899 4.5-3.199zm241.5-219.701c-2.2 0-3.8 1.301-4.1 3.5-.302 2.7.898 4.601 3.698 4.899 2.7.3 4.302-1.3 4.802-4.2-.301-2.399-1.6-4.099-4.4-4.199zm600.6 90.8c-.197 2.3 1.303 3.699 3.4 3.898 2.6.301 4.5-.898 4.5-3.699 0-2.301-1.699-3.301-3.9-3.5-2.199.101-3.798 1.001-4 3.301zm-206.798-22.4c.102 2.2 1.4 3.801 3.602 3.7 2.799-.101 3.898-2 3.6-4.601-.301-2.199-1.801-3.301-4-3.301-2.202.503-3.302 2.003-3.202 4.202zm-170.703-10.8c-2.6-.3-4.5 1-4.5 3.8 0 2.3 1.7 3.4 3.9 3.5 2.2.101 3.7-1 4.1-3.3-.099-2.399-1.399-3.8-3.5-4zm-519 289.2c.5-2.8-1.1-4.5-3.698-4.8-2.802-.302-4.4 1.3-4.4 4.1 0 2.3 1.5 3.6 3.7 3.9 2.199-.1 3.999-.999 4.398-3.2zm1018.501 111c-.1-2.3-1.5-3.602-3.799-3.602-2.701 0-4.301 1.5-4.201 4.2.102 2.3 1.5 3.4 3.803 3.7 2.697-.198 4.299-1.597 4.197-4.298zm-484.001-462.5c-.1-2.8-1.898-4-4.5-3.8-1.8.1-3.1 1.3-3.1 3.1.1 2.8 1.9 3.9 4.3 3.9 2.001-.299 3.3-1.299 3.3-3.2zm-298.599 101.6c.1-2.399-1.5-3.5-3.7-3.399-2.198.101-3.8 1.301-3.898 3.5-.102 2.399 1.5 3.399 4.1 3.5 1.698-.401 3.398-1.3 3.498-3.601zm-105.7 108.101c0 3.6 3.302 4.3 6.102 5.1 2.3-3.3 2.698-6.6.1-10-2.802.699-6.202 1.1-6.202 4.9zm71.1-146.8c-2.302 0-3.5 1.601-3.5 3.8 0 2.2 1.3 3.7 3.6 3.7s3.4-1.601 3.6-3.801c-.2-2.3-1.3-3.699-3.7-3.699zm665.2 64.899c.102-1.399-.799-2.6-2.197-2.8-4.5-.602-5.102 3-6 6 .697.6 1.398 1.3 2.1 1.898 2.799-.898 5.898-1.398 6.097-5.098zm-474.2-103.899c0 1.899 1.1 3.199 3.1 3.101 2.3-.101 3.6-1.5 3.3-3.8-.198-1.801-1.6-2.7-3.5-2.602-1.8.301-2.9 1.4-2.9 3.301z"/><path fill="#241B18" d="M1392.632 518.566c.6 2.199 1.3 4.399 3.1 5.899 2.9 2.4 6.4 4 9.7 1.4 3.8-3 1.7-6.3-.7-9.2-.6-.7-1.3-1.4-2-2.1-3.9.301-7.3 1.301-10.1 4.001zm96.8-81.101c-3.8-.2-7.398 2.9-7.398 6.3 0 3.2 1.8 4.8 4.898 4.7 3.5 0 7.4-3.399 7.602-6.6-.102-2.999-2.202-4.2-5.102-4.4zm-130.3 25.2c0-2.7-1.5-4.4-4.3-4.2-2.602.2-4.302 1.8-4.302 4.5-.1 2.8 1.602 4.101 4.302 4.2 2.6-.4 4.3-1.799 4.3-4.5zm302.001 3.401c-2.699-.301-4.5 1.101-4.699 3.801-.1 2.699 1.5 4.398 4 4.699 2.801.399 4.199-1.199 4.699-3.801 0-2.6-1.401-4.3-4-4.699zm201.301 89.899c-2.199.2-3.801 1.4-3.699 3.601.1 2.801 2.1 3.899 4.6 3.601 2.201-.3 3.301-1.7 3.301-4.4-.603-1.701-2.003-3.002-4.202-2.802zm-679.102 12.3c-1.9 0-3.2 1.102-3.302 3-.1 2.4 1.302 3.7 3.7 3.5 1.9-.199 2.8-1.5 2.9-3.398-.198-1.902-1.399-3.001-3.298-3.102zm139.1.7c.302 3.2 2.602 4.4 5.5 4.601 3.7.199 7.102-2.601 6.802-5.601-.2-3.3-2.602-4.3-5.5-4.5-3.802-.099-7.202 2.5-6.802 5.5zm346.601-41.3c-3 .398-5 2-4.9 5.2.1 2.698 1.9 4.3 4.6 4.3 3.4 0 5.602-1.7 6-5.5-.6-2.9-2.6-4.299-5.7-4zm-174.001-11.9c0 2.4 1.6 3.5 3.898 3.4 2.2-.1 3.801-1.3 3.801-3.7 0-2.399-1.699-3.398-3.899-3.5-2.3.401-3.9 1.5-3.8 3.8z"/><path fill="none" stroke="#000" stroke-miterlimit="10" stroke-width="6" d="M1903.033 1011.265s121.898-214.6 130.699-278.6c0 0 21.9-113-62.5-248.2-57.199-77.6-94.699-134.3-175.398-177-29.602-17.3-55.5-27.101-55.5-27.101s-122.303-60.8-341.304-50.601c-66 4.9-172.5 8.9-286.5 93.4-47.3 42.6-106.198 112.8-115.6 125.7-9.4 12.898-71.9 85.8-82.5 201.3-12.299 105.401 5.201 183.401 13.701 211.901s61 121.5 105.5 154.801l2.3.699s2.2-4.899-5.5-14.399c-7.698-9.5-14.7-45.8-7.1-60.7 4.2-11 14.899-32.4 19.399-36s32.399-22.3 62.899-9.3 24.7 3.899 34.3 16.899c9.602 13 21.198 63.868 25.898 73.868 4.698 10 12.605 42.418 19.407 56.718 6.8 14.3 7.853 36.402-15.476 56.238-8.794 7.478-20.962 14.528-31.061 15.329-10.102.8-18.254-.453-20.451 2.985-1.887 2.954-2.75 8.214 5.349 10.514 8.102 2.3 30.122 3.155 38.421-2.045s21.779-10.755 33.479-3.455 25.3-1.398 29-16c3.7-14.6 3.3-40.6-17-61.898-28.768-17.677-21.678-46.572-22.767-52.272-1.395-7.301-2.2-54.881-2.2-54.881s-15.5-89-15.5-90.3c0-1.302-4.601-14.302 4.7-30.5 9.3-16.2 104.898-159.802 130-186 1.6-1.7 16.198-30.9 69.3-31.9 62.6-4.5 328.102-9.8 328.102-9.8s33.699-7.5 45.5 20c0 0 87.5 125.1 93.5 135.1s34.5 51.5 25 80.8c-5 31.9-15.1 124.9-13.898 127.9 1.197 3-9.701 69-9.701 69s-3 15.7-14 29.3c-11 13.601-25 43-21.699 55 3.299 12 16 24 33 26s50.299-1.2 63.299-25.1c13-23.9 6.4-36.9 0-45.102-6.398-8.198-22-18.8-9.697-30.3 7.5-8.498 12.599-21.998 12.599-21.998z"/></svg>