<svg xmlns="http://www.w3.org/2000/svg" id="hair" viewBox="0 0 3000 3000"><path id="cl2" fill="#271E19" d="M1795.183 490.008c4.5 4.199 8.2 9.199 11.802 14.199-.802 4.801 1.398 7.301 6.1 7.9 41.4 56.8 66.4 119.699 70.2 190.399.5 9.3-.308 17.798-.907 27.098-.6 9-.093 11.702-9.193 12.502-6.6.601-13.3 1.199-19.898 1.601-11.4.699-13.301-.801-15.7-11.7-2-9.101-4-18.2-6.2-27.3-.8-3.2-2.1-6.301-3.1-9.5-4.8-14.9-14-23.101-30.602-23.7-16-.7-31.898-1.3-47.898-.3-9 .6-18 .6-27 .899-33 .899-65.9 3.199-98.7 5.399-31.6 2.101-63.1 4.199-94.7 6.601-38.198 2.899-76.398 6.101-114.5 9.101-29.898 2.3-59.698 5.8-89.6 7.1-7.3 1.801-13.8-.8-19-5.1-42.6-34.801-71.4-77.801-77.7-133.7-.898-8-1.398-16.3 4.7-23 6.2-3.7 13.5-2.8 18.8-5.3-6.198.1-14 3.1-21-1.9-.698-.8-1-1.8-1-2.899-1.398-23.8 6.102-45.8 14.4-67.5 2.2-5.8-.3-12.8 5.3-17.399 2.9-2.7 4.5-6.601 8.2-8.399 15.3-3.399 30.2-8.101 43.5-16.301 8.3-5.1 16.3-10.1 26.399-10.6 5-.2 9.699-2.4 14.199-4.5 3.4-1.5 6.801-3.2 10.4-3.301 17.3-.601 32.6-7.601 48.7-12.899 10.5-3.5 23-2.101 34.8-5.399 6.9-2 15.4.5 22.8-3.801 3.8-2.199 7.8-.199 11 2.601 5.8 5 12.7 3.2 19.5 4.101 18.2 2.3 32.4-12.2 50.101-9.899 4.301.5 8.699.601 12.5 2.899 7.601 4.601 15.699 7.3 24.601 7.3 6 0 10.1 3.601 13.2 7.9 5.398 7.6 12.698 10.5 21.6 9.899 10.9-.7 21.1 1 30.9 6.199 6 3.101 13.398 2 19.3 4.5 15.2 6.301 29.899 13.101 47 8 3.2-1 6.899 1.4 9.2 3.5 12.1 10.9 26.398 19.4 36.1 33 2.3 3.301 5.8 5.4 9.4 7.301 7.698 3.899 14.3 9 19.3 16.3 2.796 4.098 6.896 7.699 12.696 8.098z"/><path id="sd2" fill="#201814" d="M1255.083 446.109c-7.4 20.5-15 40.8-18.7 62.399-1.1 6.5-1 13.199-3.398 19.5-.2 4.8-5.802 4.5-7.602 8 3.102-2.7 6.102-1.2 9.2.101.6.8 1 1.601.9 2.601-.102.5-.2.899-.4 1.399-4.3 13.3-1.2 26.601 1.6 39.399 5.7 25.899 16.9 49.5 33.102 70.699 12 15.601 25.1 30.101 40.6 42.301 4.5 3.5 9.101 6.699 14.8 7.8-6.398 2.301-13.1 1.601-19.698 2.301-11.7 1.399-14.5 3.601-15.602 15.3-1.898 21.5-3.3 43-4.8 64.5-.8 11.399-.8 11.5-12.2 14.399-4.398 1.101-8.1 3-10 7.301-3.2 2.899-6.7 4.5-11.2 5.101-42.1 5.1-84.198 9.899-126.398 14-8.2.8-14.7 5.8-22.5 7-12.8-41.101-18-83.101-15.602-126 2.5-43.301 12.602-84.801 30.802-124.2 13.6-29.4 30-57.101 51-81.9 14.1-2.8 24.8-9.898 31.3-23.199 3.5-7.2 8.2-13.7 14.5-18.899 6.3-5.2 12.9-9.5 21.3-8.9 6.496.497 12.396-6.104 18.996-1.003z"/><path id="cl1" fill="#42322B" d="M1102.883 830.308c2-9 2.4-9.8 11.4-10.899 20.1-2.5 40.3-4.5 60.398-6.8 23.4-2.601 46.9-5.399 70.302-8 5.898-.7 11.898-1.601 17.898-.399 2 21.899 4.2 43.8 3.7 65.8-.2 8.3-.8 16.6-1.8 24.899-1.101 8.7-3.601 16.801-8.601 24.2-12.899 19.3-16.199 41.3-17.301 63.8-.898 17.899 3.102 18.7-19.8 21.5-5.9.7-11.9 1.601-17.8 2.2-8.301.8-9.102.199-10.602-8-3.3-19-6.398-38.101-9.6-57.101-1.7-9.801-3.8-19.601-5.6-29.399-1.4-7.899-6.302-12.101-13.7-14.101-9.4-2.5-19.101-2.801-28.7-3.5-3-.2-6-.101-9-.399-8.1-.7-9.5-1.7-11.7-9.801-3.6-13.5-5.5-27.399-7.8-41.199-.694-4.202-1.094-8.5-1.694-12.801z"/><path id="hl1" fill="#392D25" d="M1795.183 490.008c-6.8 2.699-12.1 0-15.398-5.601-4.602-7.7-11.102-12.101-19.602-14.101-3.6-.899-7.1-2.3-9.198-5.601-8.2-13.199-20.602-22.399-31.5-33.101-5.102-4.899-11-5.899-17.5-4.8-6 1-11.602 3.101-17.102 5.601-3.5 1.601-6.5 1.8-8.3-2.3-3.7-8.601-11.2-10.9-19.4-11.7-7.698-.7-15.1-2.5-22-6.2-6.698-3.601-13.898-4.199-21.3-4.199-4.3 0-8.7-.101-13-.2-6.1-.101-11-2.3-13.7-8.2-3-6.5-8.198-9.399-15.198-9.399-7.2-.101-13.602-2.3-19.9-5.8-11.4-6.399-23.1-5.801-34.2.8-7.1 4.2-13.7 8.301-22.3 4.601-2.8-1.2-5.9.3-8.6 1.7-6.102 3.199-11.302 1.899-16.4-2.601-7.9-6.801-8.2-6.801-16.1-1.101-4 2.899-7.7 3.8-12 1.399-6.2-3.3-11.302-1.899-16.302 2.7-7.1 6.601-7.3 6.5-15.5 1.5-3.1-1.899-6.198-2.301-9.5-1-3.1 1.3-6.198 2.601-9 4.199-8.8 5.101-18.1 8.101-28.5 7.801-4.198-.101-8.8.601-12.8 2-10.3 3.699-20.5 7.8-31.6 8.699-4 .301-7.5 2.9-10.602 5.4-7.898 6.399-17.1 10.1-26.8 12.899-7 2-13.899 4.601-20.899 6.899-7.899.899-5.199-3.8-3.601-7.399 4.4-10 11.7-17.801 19.5-25.2 11.4-8.399 24.2-14 37-19.699 68.5-30.5 140.101-41.601 214.601-34.101 88.601 9 166.5 42.699 233.199 101.8 12.002 10.605 23.302 21.906 33.502 34.305zm11.8 14.199c-1.2 7.5-.9 7.801 6.1 7.9-2-2.7-4-5.299-6.1-7.9zm-43.6 92.7c-6.3 1.7-11.6 2.5-18-.7-5.898-3-13.8 1.801-16 8.2-.898 2.7-1.1 5.3 1.301 7.3 2.199 1.801 4.5 1.2 6.399-.399 2.9-2.5 5.2-3 8.7-.399 7.1 5.5 7.5 5.399 14.7.399 3.898-2.8 7-3.5 10.398.399.602.7 1.5 1.4 2.3 1.9 3.7 2 6.7.199 6.802-3.9.3-7.8-8.4-15-16.6-12.8zm-277.2-81.899c-5.6.601-9.8 4-12.698 8.8-1.5 2.399-2.2 5.101.1 7.301 2.5 2.399 5.1 1.101 7-.899 4.3-4.4 8.9-5.301 14.4-2.101 2.1 1.199 4.698 1.601 6.698.3 5-3.101 9.802-3.601 14.9-.199 1.7 1.1 3.9 1 5.5-.7 1.9-2.101 1.4-4.4 0-6.4-3.4-4.899-8-7.899-14.9-8.199-6.3 1.796-13.7 1.296-21 2.097zm-124 132c-.5 2.399-.3 4.699 1.802 6.3 1.8 1.5 3.898 1.101 5.5-.3 4-3.7 7-2.399 10 1.3 1.898 2.399 4.698 5.101 7.5 3.101 5.3-3.8 9.6-2.899 14.398.399 1.7 1.2 3.9.801 5.301-1 1.101-1.399 1.101-3.3.199-4.699-3.6-5.7-7.8-11.399-14.898-12.2-5.802-.699-11.9.101-17-1.3-6.902 0-11.802 3.399-12.802 8.399zm113.4-199.399c1.1-3.399-.5-6.2-3.4-7.5-6-2.7-12.1-5.7-18.5-7-9.3-1.899-18.1 8-15.8 16.8.5 2 1.5 3.801 3.8 4.101 1.802.2 3.2-.7 4.2-2.2.602-.8 1.102-1.7 1.5-2.6 2.2-4.801 5.3-5.4 9.4-2.2 3.6 2.8 7.898 3.3 12.199 3.8 2.901.299 5.601-.103 6.601-3.201zm208.9 81.899c-1.7 2.199-2.302 4.8-.5 7.3 1.6 2.301 4 2.2 6.198 1.101 3.102-1.5 6.2-2.399 9.4-.5 5.2 3.2 11 2 16.5 2.399 5.1.399 7.1-2.5 6-7.5-1.2-5.699-5.5-9-11.5-8.399-3.6.399-7.1 1.399-10.5.801-6.098-.402-11.698-.402-15.598 4.798zm-451.2 7.899l1.8 2.7c3 1.399 6.3 3.5 9.5 1.8 5.8-3.101 10.7-2.399 15.5 1.899 1.8 1.601 4.3 1.9 6.4-.1 1.898-2 1.398-4.301.5-6.5-2.7-6.801-10.7-11-19-9.601-4.302.699-8.5 1.699-12.802.699-2.598 2.504-9.098 4.504-1.898 9.103zm158.4 15.901c.9-3.899-1.8-6.101-4.898-7.601-3-1.5-6.2-2.3-9.5-2.3-6.602 0-14.2 6-15.102 12-.398 2.399-.1 4.7 2.102 6.101 1.898 1.3 4.1.899 5.398-.7 3.9-4.899 8.602-5.601 13.602-3.601 3.898.301 7.398.2 8.398-3.899zm452.4 79.899c-3.5.9-5.9 3.101-6.9 6.601-.8 2.899.2 6.3 3.2 6.101 6.2-.399 9.9 2.601 13.4 6.899 1.6 1.899 4.1 2.3 6.398 1.101 1.9-1 2.802-2.699 3-4.899.302-6.702-12.698-17.401-19.098-15.803zm-617.5 306.601c-3.1-.101-5 1.7-5.3 4.7-.2 2.3 1 3.899 3.3 4.101 3.1.199 4.8-1.601 5.3-4.601 0-2.301-.9-4.101-3.3-4.2zm23.4-44c-3-.3-5 1.2-5.4 4.301-.2 2.199 1 3.899 3.2 4.101 3.1.3 4.8-1.4 5.398-4.301.102-2.202-.898-3.901-3.198-4.101zm-91.6-52.101c-1.8 0-3.1 1.101-3.3 2.9-.2 2.399 1.1 3.699 3.5 3.5 1.8-.2 2.8-1.5 2.9-3.301-.2-1.798-1.2-2.998-3.1-3.099zm78.8 7.402c0-1.801-1.1-3.101-2.898-3.301-2.4-.199-3.7 1.101-3.5 3.399.1 1.801 1.398 2.801 3.3 3 1.798-.199 3.098-1.199 3.098-3.098zm-98 20.199c.102-1.8-1-3.101-2.8-3.199-2.3-.2-3.6 1.101-3.5 3.399.102 1.8 1.4 2.8 3.2 2.899 1.9-.298 3.1-1.298 3.1-3.099zm58 9.899c.102-1.8-1-3.1-2.8-3.199-2.3-.2-3.6 1.1-3.5 3.399.102 1.8 1.4 2.8 3.2 2.899 1.9-.197 3.1-1.197 3.1-3.099z"/><path id="sd1" fill="#2E251E" d="M1276.983 407.707c-3.2 8-8.302 15-12.2 22.601-1.7 3.2-3.9 6.2-3.7 10-2 1.899-4 3.899-6 5.801-5 4.199-10.8 6.101-17.399 6.199-12.699.101-22 6-28.101 17.2-3.2 5.8-6.7 11.399-10.2 17-8 12.5-15.698 15.399-30.3 11.7 27.9-35 61.7-63.301 99.8-86.5 2.6-1.599 5.4-2.7 8.1-4.001zm-44 120.301c-2.602.601-5.302.8-7.7 1.699-6.2 2.4-9.9 8.2-9.8 14.801 0 2.699.1 5.699 3.1 6.699 3.2 1.101 4.8-1.5 5.9-4 1.8-4.1 4.1-7.6 8.6-9.1.7.8 1.3.8 2 0-.9-3.301-.7-6.7 0-10-.7.002-1.4-.099-2.1-.099zm-91.9 145.8c2.1 1 3.7-.3 5.1-1.899 5.4-6.199 5.5-6.3 13.2-2.8 3.4 1.601 6.5 2 8.9-1.101 3-3.801 6.199-4.399 10.398-2.2 2.5 1.301 5.302 1.601 6.802-1.601 1.3-2.8.1-5.199-1.802-7.199-3.698-3.899-8.6-5.301-13.698-4.2-6.602 1.399-13 1.601-19.7.801-8-.899-13.102 4.601-12.9 12.699.2 2.899.5 6 3.7 7.5z"/><path fill="none" stroke="#000" stroke-miterlimit="10" stroke-width="6" d="M1839.583 741.308c-3-4.8-6.2-28.5-12.3-49.101-14.801-23.1-20.2-18.399-48.102-21.399-26.6-8.699-460.398 34.7-473.398 33.301s-15.301 10.5-15.301 10.5-1.699 43.199-2 51.5c-.301 8.3 2.301 25.3-7 28-9.301 2.699-16.199 9.899-16.199 11.199 3.3 15 2.3 63.801 2.5 68.301.199 4.5 1.3 30.199-9.7 45-18.5 29.8-17.3 74.199-17.3 74.199 0 11.301-1.301 9-25 14.101-23.7 5.101-26.301-.8-26.7-2.101-.4-1.3-12.7-72.3-15-88-2.3-15.699-12-16-14-16.699-2-.7-23-5.301-34.7-4.301-11.699 1-13.3-6.3-13.3-6.3s-6.3-39.101-11.3-59.2c-16.301-43.199-16.301-113.199-16.301-113.199 7.699-100 38-154.7 64-196 26-41.301 90.699-106.7 191.301-146.301 156.699-53 287-4.3 318.3 10.301s94.7 60 127.9 94.3c76.398 78 87.398 157.801 87.398 157.801 10.492 33.536 8.274 34.946 9.071 99.418-5.998 11.999-39.869 9.481-42.869 4.68z"/></svg>