<svg xmlns="http://www.w3.org/2000/svg" id="hair" viewBox="0 0 3000 3000"><path id="cl1" fill="#37302D" d="M1767.287 458.843c8.397 6.601 16 14.101 22.397 22.7 4.5 10.8 11.9 18.899 21.802 24.899 24.897 30.399 43.1 64.602 58.301 100.801 11.1 26.301 11.6 53.801 13 81.398.5 9 .199 18 0 27-.103 3.602.5 7.4-2 10.5-3-.699-3.103-3.398-3.801-5.398-16.302-41.9-38.601-80.4-65.5-116.301-5.103-6.801-10.9-9.601-19.603-8.801-14.199 1.399-28.6 1.801-42.897 2.301-47.603 1.699-95.199 3.199-142.802 5-58.198 2.199-116.5 4.602-174.697 6.899-19 .699-38 2.3-56.9 2-20.2-.301-39 3.5-56.8 12.8-5.5 2.2-9.803.301-13.7-3.601-3.3-3.3-6.6-6.699-8.9-10.699-5.897-10.399-14-18.601-24.897-23.7-8.2-3.898-9-9.898-5.603-17.3 1.803-4.101 3.103-8.301 1.803-12.601-5.7-18.7-11-37.5-12.803-57.102-.8-2.198-.897-4.5.103-6.698 2.699-5.102.6-10.5.8-15.7.5-11-.3-21.899 1.101-32.899 1.199-9 4.102-16.899 10-23.7 26.699-18.699 55.5-33.101 86.102-44 20.698-.101 41.3-1 60.198-11 5.602-2.899 11.899-3.8 18.102-4.199 3.3-.2 6.8.602 10-.101 29-6.899 57.999 6.699 87.299-1.102 10.101-2.699 21 4.899 31.699 7.102 6.701 1.398 13 2.5 19.5.101 2.101-.801 3.898-1.101 6.601-.301 11.5 3.5 23.602 5.899 34.899 9.601 7.201 2.302 14.398 3.102 21.5 4.899 12.801 9.399 28.5 13.899 40.5 24.601 3 2.7 6.898 4.102 10.801 4.899 6.9 1.399 12.699 4.801 17.5 9.7 1.601 1.7 3.3 3.5 5.4 4.2 19.6 6.699 33.397 21.899 49.799 33.399h-.299c.694.503 1.294.702 1.995.403z"/><path fill="#7A6E5E" d="M1093.188 764.642c2.399-5.199 7.199-4 11.399-4.1 37.3-.9 74.601-1.601 111.9-2.5 13-.301 26-.9 38.897-1.301-.8 33.601-1.397 67.2-2.3 100.801-.9 35.899-2 71.8-3 107.8-.1 3-.4 5.899-.6 8.7-3.5 1.6-5.5-.601-7.603-1.9-43.897-27.1-87.698-54.398-131.698-81.199-5.699-3.5-7.199-7.898-7.699-13.801-2.9-36.5-5.9-72.898-8.9-109.398-.197-1.102-.296-2.102-.396-3.102z"/><path id="sd1" fill="#2C2624" d="M1257.587 500.343c2.2 5.3 2.7 10.899 3.9 16.399 2.698 13 6.1 25.898 10.897 38.301 2 5.3 2.301 9.897-1 15-3.8 5.8-3.5 8.3 2.801 11.1 12.302 5.602 19 16 25.899 26.602 4.601 7 9.8 13.5 17.9 16.801-12.9 8.3-24.8 17.699-34.9 29.397-18.6 21.5-27.5 46.5-26.899 74.9.199 9.3-.5 18.6-.698 27.8-5.2 6-12.802 6.4-19.5 6.3-44.603-.8-89.103 3.2-133.802 2.302-3-.102-5.898-.899-8.898-.699-2.3-12.9-1.4-25.9-.9-38.801.9-23.199.7-46.399 6.5-69.399 14.5-57.5 40.4-109.101 77.7-155 25.5-31.5 54.8-59 89.2-80.8-4.303 17.5-6.603 35.199-6.103 53.199.2 6.898.7 14-1.897 20.698-3.103.7-6.303 1-11.7.103 5.3 2.297 8.5 3.897 11.5 5.797z"/><path id="hl1" fill="#483F3B" d="M1641.586 382.343c-2.299.5-4.6.898-6.799 1.7-4.4 1.6-8.4 1.3-12.201-1.7-4.6-3.5-9.699-4.3-15.1-2.602-5 1.602-9.103.5-12.801-3.101-5.802-5.7-12.101-6.399-18.898-1.899-4 2.602-8.102 2.399-12.303.199-9.898-5.199-21.299-4.897-31.5-9.1-2.197-.9-5.299-.5-7.898 0-12.102 2.398-24.5 2.199-36.699 3.3-4.5.399-8.6.101-12.199-3-4.301-3.7-9.198-3.601-14-1.3-6.601 3.1-13.398 3.3-20.5 2.3-12.698-1.8-24.601.2-35 8.101-4.5 3.399-9.398 4.899-15 4-4-.601-8.101-.898-11.801.899-10 4.899-18.699 1.899-27.199-3.601 34.802-13.301 70.899-20.899 107.899-23.699 58.899-4.4 116.3 2.8 171.899 23.199 3.398 1.301 6.699 2.898 10 4.398.6.4.801.801.6 1.2-.1.505-.299.706-.5.706zm3.701 3.399c5.799 6.5 12 12.302 20.897 14.602 2.9.7 5.4 2.898 7.103 5.398 4.697 6.802 11.197 10.2 19.299 10.802 6.4.5 11.4 3.397 14.6 9.1 2.701 4.9 7 7 12.4 6.9 7.801 0 13.801 3.397 19.701 8.199 8.199 6.699 16.397 13.6 26.397 17.699-1.799-3.699-5-6.199-8.1-8.699-8-6.5-16-13.102-24.4-19.102-27-19.7-55.696-36.5-87.1-48.3-.799-.399-1.6-.8-2.299-1.3-.701-.2-1.5-.302-2.201-.5v1.897c1.303 1.005 2.602 2.005 3.703 3.304zm144.399 95.801c.5 3 .701 6 1.5 8.897 1.9 7.5 12 15.4 20.4 16.103-6.799-8.8-13.199-17.901-21.9-25zm-191.299-60.401c-5.1-7.5-23.1-10.399-30.1-4.899-1.701 1.302-2.801 2.899-2.4 5.102.4 2.3 2.301 3.7 4.199 3.601 8.5-.5 16.4 1.3 24.301 4.102 2.699 1 5.103-.9 5.4-4.801-.301-.804-.701-2.105-1.4-3.105zm-301.3 7.401c-2.1 2.5-2.8 5.3-.7 8.199 1.803 2.5 4.603 2.898 7.103 1.398 4.5-2.8 8.6-2.2 12.897.3 2.103 1.2 4.603 1 6.2-1.198 1.601-2 1.4-4.302.3-6.501-2.5-5.301-6.897-7.698-12.697-7.898-5.103.1-9.603 1.7-13.103 5.7zm69.701 138.9c-2.603 3.102-1.5 7 2.397 7.399 5.2.601 10.5.399 15.603 1.8 2 .5 3.897-.3 5-2.3 1-1.899.698-3.899-.5-5.601-2.5-4-6.5-5.3-11.5-5.7-3.8.002-8 .802-11 4.402zm55.099-80.9c-.3-4.103-5.8-8.603-10.8-8.7-5.4-.2-10.3 4-10.2 8.8.103 3.9 2.803 6.4 7.2 6.5 8.601.1 14-2.4 13.8-6.6zm256.099 5.7c-1.4 3.801 1.801 5.101 4.5 6.601 2.897 1.601 5.6 3.5 8.5 5.101 2.397 1.399 5.1 2 7.301-.301 2.5-2.6 1.799-5.5.1-8.199-3-4.5-7.5-6.301-12.6-6.699-3.201.097-6.601.197-7.801 3.497zm-107.3.899c2.5-.101 4.603-1 5.304-3.601.799-3-.804-5.199-3.201-6.602-4.299-2.6-8.9-2.6-13.299-.6-3.103 1.399-6.103 3.5-5 7.5 1 3.6 4.299 3.6 7.397 3.5 1 0 2-.101 1.9-.101 2.899-.096 4.899.005 6.899-.096zm95.4 68.701c-1.799 3.5 1 5.3 3.4 7.101 1.301 1 2.6 2 3.897 2.899 2.5 1.8 5.201 3.399 7.9.601 2.301-2.5 1.701-5.5.399-8.301-1.602-3.199-4.301-4.8-8.399-5.398-2.396.198-5.597-.002-7.197 3.098zm163.9 14.1c-3.699-.101-5.199 2.301-5.302 5.699-.1 5.301 4.802 11.7 8.9 11.399 3.699-.3 4.799-2.899 4.799-5.5-.197-5.899-4.496-11.598-8.397-11.598zm-547.198-7.2c-.802-.199-2.302.101-2.603.601-2.197 3.5.4 6.2 1.7 9.1.101.302.3.603.5.802 1 1.301 2.2 2.698 4.101 2.101 1.802-.601 2.102-2.399 2.102-4.101-.3-3.703-2.9-7.803-5.8-8.503z"/><path fill="#39322F" d="M1257.587 500.343c-5.2 2-11.2.5-16.2 3.8-2.1 1.3-4.5 1-6.197-1.1-1.9-2.301-1.7-4.9-.4-7.4 2.5-4.898 9.6-7.6 15.5-6 3 .8 5.3 2.602 7.4 4.8-.103 2-.103 3.9-.103 5.9zm-97.299 145.1c-.2-5.199-6-10.199-11.603-10.101-5.697.199-10.397 5-10.6 10.899-.1 4.5 2.1 6.898 6.3 7 10.303.102 16.103-2.798 15.903-7.798zm44.099 34c.103-4.801-4.5-9.5-9.5-9.699-5.197-.199-10.197 4.101-10.1 8.801.1 4.6 4 7 11.2 7 5.701.097 8.4-2.002 8.4-6.102zm-27.099-114.7c1.5-2.699.397-5.199-1.302-7.301-3.898-4.801-11.398-5.301-16-1.101-3.698 3.399-3.198 7.5 1.602 9.3 3.1 1.102 6.5 1.399 8.5 1.801 3.6.001 5.9-.3 7.2-2.699z"/><path fill="#695D4F" d="M1136.887 880.343c-3.1.2-4.5 2.399-4.3 5.5.2 2.601 1.7 4.3 4.4 4.3 3.197 0 4.697-2 4.897-5-.396-3.001-1.896-5.1-4.997-4.8zm86.2-12.201c-2.3 0-3.8 1.301-4.1 3.5-.4 2.7.897 4.602 3.698 4.9 2.699.3 4.302-1.301 4.802-4-.199-2.699-1.6-4.299-4.4-4.4zm-52.099-89.699c-2.303-.199-3.803 1.102-4.103 3.301-.3 2.601 1 4.601 3.802 4.601 2.301 0 3.398-1.601 3.698-3.8-.197-2.102-1.097-3.802-3.397-4.102zm-35 19.5c.1-2.199-1.2-3.699-3.4-4-2.6-.301-4.5.801-4.9 3.5-.3 2.699 1.2 4.199 4.103 4.699 2.296-.299 4.096-1.399 4.197-4.199zm86.7-1.5c-2.801 0-4.101 1.899-3.801 4.602.2 2.199 1.7 3.6 4 3.398 2.301-.199 3.301-1.801 3.4-4.5-.4-1.7-1.299-3.5-3.599-3.5zm-41.5 28.1c-2.301-.4-3.898.897-4.198 3.1-.4 2.602.698 4.602 3.5 4.8 2.3.103 3.5-1.397 3.897-3.6 0-2.3-.899-3.9-3.199-4.3zm.399 52.4c-.3 2.301 1.101 3.801 3.3 4.102 2.603.398 4.603-.801 4.7-3.7.101-2.3-1.6-3.4-3.8-3.7-2.2-.003-3.9.997-4.2 3.298zm-56.099-51.301c-2.2 0-3.803 1.102-4 3.301-.2 2.801 1.5 4.199 4.197 4 2.2-.199 3.5-1.5 3.603-3.801-.201-2.299-1.6-3.399-3.8-3.5zm88.8 103.601c0 2.301 1.6 3.601 3.897 3.601 2.303 0 3.803-1.3 3.803-3.601s-1.603-3.5-3.803-3.602c-2.298.102-3.897 1.202-3.897 3.602z"/><path fill="none" stroke="#000" stroke-miterlimit="10" stroke-width="6" d="M1817.287 612.243c-8.201-17.301-34.603-15.801-34.603-15.801s-366.098 17-424.598 18.5c-70 3-98.3 82-98.3 82s-9.303 252.5-8.2 268.801c1.101 16.301-11 8.801-11 8.801s-116.2-75-127.7-79.4c-11.5-4.398-12.8-12.2-12.8-12.2s-5-53.198-11-152c7.5-169 101.8-256.198 159-298.397 142.5-109.103 292.499-80.402 330.2-73.202 37.697 7.2 106 29.398 156.397 72.3 96.4 62.801 136.5 179 136.5 179 16.9 37.301 9.699 115.5 9.699 115.5s-36.296-79.702-63.595-113.902z"/></svg>