<svg xmlns="http://www.w3.org/2000/svg" id="hair" viewBox="0 0 3000 3000"><path id="cl1" fill="#42322B" d="M1427.553 397.4c23.172-3.663 45.833-2.34 67.876 6.311 6.771 7.225 6.05 16.688 6.563 25.234 1.537 24.017 3.692 47.929 6.256 71.943.409 4.069.615 8.141-.821 12.109-3.896 4.885-7.793 3.766-12.304.509-10.664-7.938-21.531-15.875-30.863-25.135-14.868-14.653-31.682-26.762-48.396-38.973-4.408-3.256-5.537-6.818-4.408-11.805 2.356-10.276 4.817-20.452 7.688-30.527 1.335-4.68 3.898-7.936 8.409-9.666zm-437.35 942.182c12.416-8.971 20.51-21.666 27.535-35.016 13.592-25.756 27.074-51.605 40.985-77.177 10.858-19.789 19.954-39.882 26.402-61.354 2.229-7.568 6.146-14.317 11.13-20.415 3.833-4.706 7.871-9.423 9.887-15.349 1.749-5.198 3.715-10.203 8.561-13.439 3.792-3.791 3.666-4.391 1.595-6.412-5.649-5.28-11.25-11.174-18.49-15.547-.749 1.266-1.627 2.03-1.887 2.86-4.867 16.896-15.138 30.941-24.132 45.729-7.591 12.465-15.067 25.128-18.334 39.483-2.623 11.364-7.038 21.911-12.923 31.936-10.833 18.461-22.956 37.392-31.672 56.954-9.638 21.35-12.829 44.378-24.255 65.014-.742 1.369-1.78 2.958-.343 4.709 2.168.182 4.362-.864 5.941-1.976zm573.003-934.855c-2.771 12.516-6.05 24.83-8.817 37.345-1.13 4.987-.924 9.871 2.666 14.146 14.146 16.382 27.989 32.969 43.779 47.826 3.487 3.255 7.28 4.781 11.896 3.764 1.946-1.424 3.281-3.154 3.795-5.598 5.433-26.457 10.252-53.116 13.228-79.981.409-3.663-.413-6.614-3.282-9.057-6.254-3.256-12.407-6.919-18.971-9.77-11.584-5.088-23.581-8.445-36.396-8.039-4.309 1.732-6.872 4.785-7.898 9.364zm189.689 166.374c6.769.916 13.431 2.035 19.992 3.969 15.793 4.579 32.198 5.088 48.293 7.938 8 1.425 14.151-.814 17.534-9.159 2.771-6.919 6.871-13.229 11.279-19.232 3.587-4.68 4.408-9.463 1.846-14.755-15.893-17.094-35.887-28.084-57.214-37.039-15.584 21.674-32.913 42.026-49.319 63.09.513 4.883 4.306 4.782 7.589 5.188zm-483.346 14.755c-18.147-23.505-37.117-46.401-55.676-69.602-3.28-4.174-7.075-7.227-11.895-9.158-12.099 4.07-23.377 9.463-33.016 17.909 2.461 15.06 4.921 30.12 7.485 45.181 1.743 9.972 3.178 11.091 13.125 12.313 11.894 1.425 23.89 1.934 35.476 4.579 14.97 3.358 30.043 6.514 45.115 9.26 7.076-3.97 1.641-7.531-.614-10.482zm104.277-67.466a7319.758 7319.758 0 0 0-41.731-71.943c-2.153-3.562-5.023-5.698-9.023-6.411-6.356 0-12.713-.101-19.07.103-9.127.204-18.046 1.425-26.045 6.104 0 11.093.309 22.286-.103 33.378-.308 8.853 2.975 14.246 11.279 18.215 14.149 6.817 28.504 12.517 43.68 16.586 13.433 3.562 27.069 6.717 39.682 12.923 5.228-2.34 3.279-5.598 1.331-8.955zm368.917-31.647c2.563-3.969 5.022-8.04 9.126-10.685-9.844-23.71-27.788-39.992-49.424-52.914-2.356 6.512-7.073 11.6-11.688 16.586-5.334 5.698-6.664 11.193-3.074 18.316 4.405 8.853 7.483 18.418 8.815 28.085 2.152 14.958 7.589 28.797 12.202 42.941.717 2.239 1.436 4.479 2.151 6.818 10.669-16.38 21.228-32.763 31.892-49.147zm-655.909 176.653c6.355 14.856 12.713 29.814 19.174 44.672 2.973 6.817 5.536 8.142 12.816 6.105 7.895-2.139 15.584-4.886 23.273-7.431 14.868-4.884 29.94-9.056 45.525-10.479-21.942-17.604-45.32-33.275-68.698-48.844-4.203-2.748-9.021-4.986-11.277-9.871-8.509 7.226-15.994 15.468-20.813 25.848zm325.955-257.448c.41-2.238 1.537-4.478 2.359-6.613-3.691.305-7.486.305-11.075 1.018-20.302 3.867-38.348 12.821-54.651 25.134 4.615 2.239 6.459 6.818 8.511 10.99 8.818 17.503 17.534 35.005 26.25 52.507 11.688-26.968 22.864-54.036 28.606-83.036zm-251.516 143.479c-.923-4.579-1.641-9.261-3.998-13.434-17.944 20.657-30.762 43.655-34.966 71.027 4.409-3.766 7.484-.102 10.664 1.934 12.099 8.039 22.353 18.216 33.938 26.864 1.232-29.102.206-57.899-5.638-86.391zm695.888 595.857c7.896 11.702 12.202 24.931 14.869 38.667 3.688 19.437 11.688 37.447 18.353 55.865 1.333 3.766 3.487 6.614 7.587 7.429 4.514.915 9.743 4.782 13.534 1.019 4.41-4.479-.307-9.465-2.563-13.738-7.383-13.534-12.305-27.882-14.971-42.941-1.024-5.801-2.767-11.092-6.459-15.671-4.615-5.698-7.793-12.211-8.204-19.436-1.128-18.521-14.97-29.511-25.324-42.738-2.665 11.193-3.384 21.673 3.178 31.544zm-591.406-645.006c2.459-16.078 3.485-32.258-.411-48.335-19.378 10.379-35.784 23.913-46.755 43.146 5.742 2.034 9.229 6.817 13.228 10.989 11.074 11.602 20.098 24.829 29.734 37.55.821-14.554 2.05-29.003 4.204-43.35zm618.793 112.951c2.356-23.913-7.075-43.654-22.045-61.462-11.485 9.463-17.638 21.979-21.124 36.124-2.869 11.804-4.1 24.015-9.843 35.005 17.638-3.359 35.376-6.512 53.012-9.667zm-796.997 79.88c-2.563-5.087-4.204-10.787-8.511-14.958-4.409 9.565-6.459 19.639-6.563 30.222-.204 15.772.309 31.443 2.462 47.114 5.023.307 8.817 3.256 12.714 5.801 7.279 4.783 14.56 9.667 21.839 14.552-2.665-28.799-8.611-56.682-21.941-82.731zm587.418-254.497c6.152-6.003 13.021-11.804 15.071-20.962-17.634-3.765-35.578-2.136-53.421-1.934-.309 5.088-.511 10.175-.819 15.263-1.025 14.552-2.052 29.104-3.076 43.554 14.353-11.601 28.916-22.999 42.245-35.921zm-157.492-33.581c3.59 2.851 3.997 6.818 4.103 10.89.103 7.021 0 14.042.406 21.166.924 15.365.924 30.833 3.798 45.994-.72-11.499 6.15-19.639 12.919-27.678 3.688-4.375 7.586-8.648 9.022-14.449 2.665-11.092 5.64-22.184 7.995-33.377 1.745-8.038 1.335-8.242-7.587-10.684-10.767.812-20.814 4.068-30.656 8.138zm-347.73 698.89c.27 6.021 1.972 14.682-.892 19.984-6.813 12.593-13.229 24.323-22.646 35.468-2.078 2.375-3.339 6.468-4.125 9.397-3.48 14.228-13.24 22.387-23.601 32.093-.316.352.39 3.215.405 3.979 2.967 1.757 6.201.447 9.288.505 10.645-.003 19.501-2.858 23.647-13.772 1.177-3.151 3.699-5.948 5.471-8.834 5.206-8.255 10.723-16.427 13.192-26.055 1.981-7.807 4.559-15.35 8.041-22.545 5.077-10.668 4.884-22.59-3.007-32.031-3.64-1.717-6.418-.742-5.773 1.811zm-107.42-296.334c-.308 1.118-.922 1.933-1.743 2.645-.205.61-.41 1.222-.513 1.935 2.769 3.968 3.896 8.648 4.922 13.229 1.229 5.597 4.716 8.854 10.354 9.871 7.69 1.323 15.381 2.849 23.174 3.663 9.125 1.017 11.176-1.019 10.356-9.972-.513-5.699-1.744-11.397.921-16.894-8.919-6.207-18.763-10.786-28.093-16.179-4.205-2.442-8.306-4.783-9.022-10.176-1.948 8.038-6.049 15.06-10.356 21.878zm570.09-198.633c1.229-1.118 2.87-2.034 3.691-3.46 8.815-13.533 17.53-27.17 26.245-40.805.209-.305.31-.61.411-.916 1.849-4.884-.818-12.313-6.05-15.875-5.433-3.765-7.896 1.323-10.969 4.071-4.718 4.273-9.023 9.158-14.356 12.82-2.256 1.526-4.409 3.46-7.278 1.12-1.948 10.888-4 21.775-6.051 32.563 4.41 4.275 9.229 7.634 14.357 10.482zm-194.508-22.691c6.05-1.424 12.202-1.322 18.354 0h2.152a199.1 199.1 0 0 0 5.845-30.832c.514-4.783.309-9.667-5.022-12.313-8.818-4.375-21.943 0-26.147 9.058-2.563 5.494-4.613 11.294-7.074 16.891-1.334 3.053-2.257 6.614-6.357 7.227 1.025 4.781 3.589 9.157 3.793 14.144 4.715-1.427 9.535-2.751 14.456-4.175zm463.044 94.023c-19.277 13.839-40.295 25.948-50.96 48.642 17.123-2.952 34.144-5.903 51.063-9.974 2.973-12.922 2.665-25.744-.103-38.668zm-399.986-115.697c-5.024-2.748-9.843-5.902-14.867-8.548-5.844-3.054-8.405-2.442-9.843 3.46-2.357 9.36-5.229 18.824-3.487 28.694 7.589 1.73 15.073 3.664 22.659 4.986 8.207 1.425 16.613 2.951 24.712-.408-4.612-1.323-5.846-4.984-6.664-9.259-1.436-7.225-1.127-14.856-3.588-21.878-1.847 4.785-5.025 5.09-8.922 2.953zm238.391 91.073c2.77-2.646 6.151-4.173 9.536-5.699 7.69-3.459 15.481-6.919 23.173-10.379 1.64-6.817-.41-11.804-7.382-14.348-1.232-.407-2.358-1.323-3.59-1.934-9.843-5.088-12.611-4.375-19.175 4.986-3.794 5.495-7.178 11.295-9.229 17.706 2.157 3.256 4.413 6.412 6.667 9.668zm164.774 143.072c1.332-.101-.514-.306.819-.509 0-10.583 2.667-20.555 6.769-30.222 2.152-7.835-.719-10.99-8.717-9.158-9.845 2.239-19.688 4.884-29.12 8.648-3.795 1.526-7.688 3.153-6.15 8.548 2.153 6.004 4.407 12.008 6.563 18.012l29.836 4.681zm-365.944-214.406c10.867-2.748 21.942-1.628 32.914-1.832 2.77-5.8 5.332-11.6 6.563-17.908 1.126-5.801-1.026-8.854-6.463-10.686-4.715-1.525-8.61-.306-12.097 2.85-4.202 3.866-8.202 8.039-12.612 11.6-4.92 3.969-5.33 3.664-10.048-2.238.616 6.107 1.127 12.211 1.743 18.214zm320.007 179.198c3.485 2.34 7.384 3.563 11.483 2.544 11.483-2.85 22.863-6.309 34.145-10.074 5.125-1.729 7.689-5.292 5.739-10.888-.818-2.341-1.843-4.58-4.1-6.004-8.921-.102-17.432 2.646-26.042 4.274-14.049 2.646-27.583 7.53-41.937 8.141a1397.958 1397.958 0 0 0 20.712 12.007zm-164.053-148.567c10.051 6.206 19.377 13.229 28.709 20.352 3.282-5.088 6.871-10.074 9.741-15.366 3.178-5.698 2.358-7.529-3.691-9.972-6.254-2.544-13.021-3.867-18.865-7.53-5.334 4.172-10.666 8.343-15.894 12.516zm147.343 105.32c1.74-3.357 3.688-6.614 1.228-10.379-5.947-9.463-19.379-9.769-26.044-.712 4.922 9.768 8.613 20.046 12.406 30.323 1.13-5.901 6.563-6.31 10.767-8.141-3.589-4.477-.103-7.734 1.643-11.091zm-175.95-107.152c-.82-3.765 1.536-6.411 3.282-9.26 2.868-4.578 5.843-9.057 8.715-13.636-1.438-2.646-2.771-5.393-4.31-8.038-2.151-3.664-4.816-3.562-7.178-.407-6.561 8.649-12.098 17.808-17.121 27.373-1.335 2.544-.513 4.681 2.665 5.292 1.948.407 4 .51 6.05.711 2.769-.305 5.538-.509 7.897-2.035zm225.369 36.43c-12.406 2.646-24.71 5.291-37.117 7.937 8.716 2.951 16.712 7.429 24.711 11.703 9.741 5.188 12.715 4.375 18.66-5.394-1.333-5.088-3.383-9.87-6.254-14.246zm-.205 178.585c4.204 5.495 8.204 5.188 11.896-.712 4.612-7.227 3.997-15.366 3.073-23.404-2.46 3.766-6.355 4.274-10.458 4.375-4.921.102-9.843.203-14.868.203 2.256 7.123 5.846 13.636 10.357 19.538zm-305.142-249.307c-.717 1.831-1.435 3.764-2.254 5.597 5.64 1.831 11.178 3.663 16.816 5.495-.104-5.189-.207-10.481-.309-15.67-9.33-5.802-10.151-5.497-14.253 4.578zm-273.868-21.471c1.641-7.937 3.179-15.977 2.975-24.117-.104-4.578-.616-9.259-5.024-11.499-8.51-4.375-17.124-8.344-25.94-12.107-3.896-1.73-6.563.406-7.384 4.477-.512 2.341-.512 4.682-.923 7.021-1.947 11.702-1.845 23.709-5.74 35.004 10.253 19.029 20.507 37.957 30.759 56.984 2.87-18.825 7.484-37.243 11.277-55.763zm18.97 101.86c11.381-1.425 14.662-4.885 14.867-16.384.206-9.769 0-19.538 0-29.407 0-7.429 0-14.857-.205-22.286-.103-3.765-.718-7.428-4.614-9.463-8.921-4.682-22.25.915-24.506 10.685-1.743 7.225-2.666 14.653-3.999 21.878-.821 4.681-1.438 9.464-5.436 12.821 5.333 10.889 9.639 22.286 15.79 32.868 2.669-.305 5.437-.407 8.103-.712zm35.682-121.907c-9.433-3.154-18.764-6.308-28.504-8.14-7.177-1.323-9.433 0-10.869 7.021-1.333 6.614-2.153 13.433-2.872 20.147-.921 9.057 1.129 11.396 10.049 10.38 10.049-1.119 19.687.305 29.428 2.646 12.92 3.154 25.941 6.411 39.271 6.92-6.768-12.618-14.663-24.626-22.557-36.633-5.026 1.221-9.538-.814-13.946-2.341zm-8.511 76.625c0 5.394-.205 10.786.103 16.179.205 3.866-1.946 9.667 2.462 10.889 4.613 1.323 7.383-4.172 9.433-7.835 5.333-9.057 10.562-18.113 16.61-26.661 1.538-2.238 2.871-4.579 4.203-7.021 4-7.529 2.77-10.583-5.229-12.415-5.639-1.322-11.382-2.34-17.123-3.153-7.589-1.019-9.946.916-10.357 8.648-.41 7.123-.103 14.145-.103 21.268l.001.101zm-87.975-4.072c-10.355-2.238-20.711-4.579-31.066-6.513-9.844-1.831-11.792-.305-12.102 9.362a340.145 340.145 0 0 0 0 20.352c.31 9.158 1.539 10.481 10.973 10.38 11.279-.103 22.455 1.119 33.631 2.646 13.945 1.934 27.376 5.698 41.219 7.632-9.022-15.162-19.48-29.205-30.555-42.84-4.203 1.017-8.1-.103-12.1-1.019zm-55.47 9.465c-.613-20.656-1.538-22.184-22.455-23.913-9.125-.713-11.996 1.424-12.406 10.379-.409 7.123-.103 14.246-.204 21.369 0 6.41.307 12.923-2.359 19.027 12.51 13.434 23.276 28.188 35.067 42.23-.616-23.2 3.076-46.096 2.357-69.092zm37.016 101.655c7.484-5.495 10.971-12.414 9.125-21.878-1.539-8.242-2.462-16.688-3.589-25.032-2.461-17.197-2.461-19.943-24.097-16.18-5.126.916-7.688 3.969-7.997 8.955-.206 3.358-.103 6.716-.307 10.074-.718 9.77 1.538 19.436.205 29.205 5.434 7.632 10.767 15.163 16.2 22.794 3.487-2.647 6.87-5.395 10.46-7.938zm18.763-36.429c.308 2.036.615 4.071 1.128 6.004 1.437 4.884 3.487 5.495 6.973 2.035 4.103-4.172 6.974-9.158 9.639-14.246 6.87-13.229 4.307-17.707-10.663-18.317-7.383-.305-9.331 1.526-9.229 9.261.614 4.477 1.332 9.87 2.152 15.263zm448.381-90.157c8.307.712 15.994 3.358 23.48 6.715 9.021 3.97 17.942 8.242 27.067 12.11 6.975 2.951 9.126 2.239 12.201-4.274 1.846-3.969 3.487-8.141 4.718-12.313 2.151-7.429.922-10.074-6.357-12.211-9.841-2.851-19.687-5.8-29.938-6.105-4.411-.102-8.818-.61-13.024-2.341-6.15 6.106-12.095 12.314-18.147 18.419zm-14.354-46.809c-2.975-3.054-4-7.022-5.335-10.787-2.563-7.326-5.126-14.653-8.099-21.878-2.359-5.799-4.513-6.105-8.817-1.729-3.794 3.866-7.386 7.938-11.073 11.905-7.486 8.04-7.793 9.362-1.643 18.215 7.896 11.397 12.61 23.913 14.869 37.346 7.586-10.585 13.74-21.879 20.098-33.072zm-516.875 160.064c-7.588 1.935-15.176 3.663-22.764 5.698-9.74 2.646-11.38 4.682-11.688 14.857a162.721 162.721 0 0 0 0 14.144c.41 10.481 2.461 12.415 12.612 12.923 14.457.713 28.299-3.562 42.346-5.8 3.896-.61 7.074-3.053 7.998-7.021 1.539-7.022 6.665-9.771 12.815-11.5-8.816-10.379-19.686-18.52-30.555-26.659-3.586 1.223-7.175 2.442-10.764 3.358zm-3.486 109.493c3.384-2.34 6.563-5.188 7.076-9.463 1.333-11.397 1.024-22.896.307-34.293-.205-3.866-2.665-6.308-6.664-6.104-7.074.306-14.252.407-21.327 1.323-7.587 1.019-9.74 3.765-10.254 11.499-.307 6.003-.205 12.108-.205 18.214 0 4.683-.103 9.464-1.947 13.941 5.741 5.292 11.997 10.075 18.456 14.349 4.921-3.258 9.842-6.311 14.558-9.466zm-43.372-82.323c0-1.018 0-2.035-.103-3.053-.615-8.04-2.462-9.464-10.254-7.733-1.641.406-3.28.917-4.922 1.525-9.944 3.46-11.279 5.495-9.536 15.671 1.949 11.295 4.205 22.591 6.358 33.886.82 4.375 1.64 8.648-.102 12.923 6.355 6.004 13.021 11.601 20.301 16.586.002-23.3-2.869-46.502-1.742-69.805zm71.057 35.208c.309-2.34.309-5.188-2.87-5.493-2.462-.204-3.385 2.034-3.795 4.069-1.127 5.291-1.23 10.582.924 16.18 3.689-4.274 5.022-9.362 5.741-14.756zm212.756-227.428c9.741-17.604 11.791-37.346 16.51-56.271 1.435-5.902-.719-10.584-5.537-14.146-4.921-3.561-9.741-7.529-14.766-10.887-7.485-5.087-9.944-4.376-13.739 4.272-3.179 7.124-6.05 14.35-9.229 21.473-2.051 4.68-4.102 9.361-8.921 12.007 8.921 21.674 17.739 43.451 26.659 65.125 2.975-7.226 5.231-14.858 9.023-21.573zm67.57-22.489c-2.151-1.629-4.1-3.562-6.253-5.292-8.407-6.919-16.713-13.94-25.223-20.759-5.127-4.171-7.485-3.459-9.535 2.85-1.949 6.104-3.487 12.415-4.819 18.724-2.358 10.685-.821 12.821 9.946 13.737 6.152.509 12.304 1.118 17.736 4.478 11.895 7.429 24.3 13.941 35.582 22.082-1.95-13.636-2.668-27.475-5.64-40.907-2.36 9.564-4.41 10.48-11.794 5.087zm-369.325 325.423c1.641 9.463 7.279 11.498 15.278 5.8 5.536-3.867 10.253-8.955 17.122-10.583-11.073-7.733-22.762-14.349-34.861-20.353-.308 8.548 1.024 16.894 2.461 25.136zm-15.791 19.639c3.281 0 7.999 1.12 9.024-2.748 1.025-4.171-3.794-5.698-6.87-7.733-.513-.406-1.23-.609-1.846-.813-11.792-3.053-23.891-4.274-36.399-4.783 10.252 9.766 21.736 16.28 36.091 16.077zm681.338-197.512c8.818-.307 16.916 1.933 23.787 7.631 9.537 7.836 20.405 13.33 31.172 19.231 7.586 4.173 13.227 3.97 19.275-1.628 1.436-1.425 3.282-2.441 4.819-3.765 6.869-5.597 6.561-7.938-1.436-12.313-3.282-1.831-6.768-3.256-10.05-5.088-6.151-3.562-12.816-6.513-17.842-11.702-16.504 2.444-33.32 3.767-49.725 7.634zm31.169-42.638c2.153-7.428 4.717-14.855 6.46-22.387 1.949-8.547.204-10.583-8.612-12.516-1.026-.204-2.05-.407-2.975-.51-11.278-2.035-12.508-1.322-16.508 9.464-4.41 12.108-8.818 24.116-13.228 36.226 11.588-3.458 23.277-6.817 34.863-10.277zm-188.867-76.317c17.432-15.773 32.604-33.479 48.703-50.473 3.794-3.969 5.128-8.752 4.103-14.042-.822-4.681-1.846-9.26-3.385-13.736-3.793-11.5-7.075-12.415-16.405-4.986-7.176 5.698-14.354 11.498-21.736 16.891-6.663 4.886-7.278 4.479-9.434-3.967-3.076 9.871-1.741 20.148-2.665 30.12-1.438 14.45-3.589 28.797-3.383 43.35 1.537-1.02 2.972-2.038 4.202-3.157zm-94.229 11.295c16.61-12.211 28.609-27.068 33.837-47.624 5.948-23.506 8.202-22.081-11.175-42.84-6.869-7.429-9.843-7.021-16.508.609-5.332 6.105-9.743 13.127-15.997 18.419 1.846 24.017 4.717 47.828 9.843 71.436zm57.625-53.525c-4.922-4.375-7.587-3.867-9.944 2.035-2.871 7.632-5.536 15.264-7.999 23.1-2.152 6.818-1.333 8.649 5.639 11.805 4.821 2.137 8.717 5.087 12.201 9.057 2.463 2.849 5.437 5.088 8.204 7.631 2.05-12.923 4-25.948 6.05-38.871-5.846-3.97-9.025-10.279-14.151-14.757z"/><path id="sd1" fill="#322620" d="M1417.3 594.608c-6.767 5.393-11.177 12.618-14.97 20.25-4.818 9.667-9.638 19.333-15.79 28.289-8.305 12.109-19.584 19.334-34.042 22.082-8.305 1.526-16.611 3.358-25.018 5.088-.514-.102-1.129-.204-1.642-.305-4.921-2.035-6.049-6.004-5.741-10.786.819-3.765 2.87-5.597 6.973-5.903 8.51-.609 12.714-5.799 13.021-13.939a442.507 442.507 0 0 0 0-40.398c-.206-5.189-1.538-10.583-8.101-10.99-6.049-.407-9.125 3.867-10.663 9.057-2.461 7.733-3.385 15.875-4.614 23.812-1.129 7.225-4.307 10.889-11.792 10.48-4.204-2.646-5.332-7.327-7.688-11.193-.821-1.526-1.438-3.154-2.154-4.681-.409-1.019-.615-2.035-.717-3.155 2.768-4.172 5.332-7.733 3.588-13.941-1.436-5.088 1.23-11.193 2.667-16.791 3.384-13.126 6.357-26.354 7.998-39.786 1.333-11.906-7.383-22.082-19.277-22.997-5.845-.408-7.793 3.255-8.817 7.834-1.742 7.632-2.358 15.365-3.178 23.099-.614 6.106-3.486 9.057-9.127 10.176-6.767-3.256-8.611-10.276-12.61-15.67 2.871-12.72 1.538-25.847 3.794-38.465 2.256-12.719 3.487-25.337 3.179-38.26-.102-5.395.41-10.786 2.872-15.772 3.792-2.748 7.997-4.681 12.508-5.699 3.385 1.527 4.922 3.969 4.922 7.733 0 3.053.514 6.105.104 9.057-3.077 19.945 6.562 31.139 24.71 37.549 11.587 4.069 23.378 7.835 35.271 10.685 10.048 2.442 18.969 9.057 30.042 8.141 1.333-.102 2.563 2.036 3.487 3.46 3.383 5.394 7.383 10.481 9.741 16.383-2.666 6.817-7.588 7.529-13.945 5.597-8.51-2.544-16.713-5.902-25.428-7.733-10.048-2.137-14.765.916-16.098 10.073-1.333 9.464 2.153 13.331 12.611 13.636 16.509.51 32.094 6.105 47.986 9.464 4.408.917 8.613 1.934 13.021 1.119 6.867 6.61 12.405 13.631 12.917 23.4zm-90.948 74.69c-5.845-5.394-6.048-14.856-13.637-19.029-13.124-3.867-26.146-8.039-39.885-9.565-9.741-1.119-19.584-2.034-29.325-2.849-9.126-.814-12.714-7.225-11.278-17.91 1.128-8.242 4.922-10.786 14.56-9.362 9.433 1.425 18.662 3.766 27.89 5.902 6.049 1.424 10.663.305 13.021-5.902-3.896-7.632-9.741-13.839-15.174-20.352-9.64 1.324-18.56-2.238-27.582-4.477-14.868-3.766-29.837-6.208-45.115-7.938-14.765-1.628-16.918-4.681-19.277-19.029-1.333-8.344-2.46-16.789-4.715-24.931-1.024-3.664-1.23-8.344-6.768-8.853-4.305 3.256-8.51 6.512-11.688 10.888-1.641 7.53-1.641 15.06-.103 22.692 4.922 25.847 6.049 51.896 4.511 78.149 4.512 5.189 7.792 11.804 15.791 12.923 5.64-2.137 7.28-6.309 7.177-12.007-.103-8.14-.512-16.281.41-24.422.615-5.495 2.871-9.972 9.126-10.583 6.563-.61 11.177 2.34 13.534 8.548 1.641 4.579 1.538 9.362 1.538 14.042-.103 21.269-1.743 42.331-2.872 63.498 5.126 7.938 9.331 16.483 17.432 22.081 6.255-1.933 8.612-5.698 7.177-12.313-1.641-8.038-1.641-16.18-.82-24.32.615-6.003 3.487-10.378 10.152-10.887 6.869-.509 9.741 4.272 10.766 9.972 1.538 8.345 2.665 16.688 3.588 25.134.922 8.242-2.05 14.552-8.614 19.436-4.306 3.154-9.125 5.801-10.662 11.396 3.384 5.393 6.869 10.48 13.638 11.702 15.584-3.866 25.428-13.229 29.938-28.797 6.255-21.369 21.327-34.088 42.655-39.992 1.947-.508 3.896-1.323 5.844-1.933-.514-.2-.926-.607-1.233-.912zm-96.177 56.983c-9.639 1.527-18.25 4.274-22.352 14.45-1.128 2.748-4.718 3.867-7.793 4.479-7.689 1.321-15.277 3.562-23.07 4.375-11.278 1.222-16.608-1.73-18.353-9.77-2.461-10.99 1.742-18.825 12.304-22.284a144.577 144.577 0 0 1 20.813-5.189c5.64-1.019 9.229-3.663 10.767-9.158-1.949-6.003-7.792-8.141-12.1-11.804-2.051-1.019-4-2.341-6.665-1.526-18.764 5.698-38.041 9.26-56.599 15.671-11.586 3.968-14.253 1.933-19.789-9.261-4.306-8.751-7.588-18.113-12.407-26.661-1.742-3.154-3.076-7.021-7.998-6.207-3.485 5.189-5.845 10.889-7.792 16.79.409 14.653 8.408 26.966 13.124 40.296 6.871 19.334 10.049 39.483 12.919 59.732 4.513 5.495 9.435 10.583 16.816 12.108 6.254-3.053 7.792-7.632 6.357-14.349-2.358-11.905-5.126-23.709-6.051-35.818-.308-4.579 1.23-9.361 6.769-9.565 5.537-.204 6.151 4.884 6.048 8.853-.614 21.979 1.437 43.857 3.077 65.736 3.281 4.172 6.664 8.243 11.586 10.787 6.563-1.425 7.998-6.208 8.203-12.008.205-7.429-.615-14.958.819-22.284 1.437-7.123 6.357-10.075 13.228-10.481 5.743-.306 10.972.61 13.432 6.817 5.127 12.415.205 29.307-11.176 36.938-4.102 2.747-7.689 5.598-9.433 10.177 2.461 6.816 8.407 8.344 14.661 9.667 1.538-.611 3.18-1.222 4.719-1.935 13.329-6.207 21.839-15.771 22.863-30.934.309-4.376 1.334-8.649 2.257-12.923 4.613-21.269 15.38-38.059 36.092-47.317-3.791-7.123-8.816-12.923-15.276-17.402zm185.074-326.947c-4.306 2.34-7.997 5.292-9.125 10.479-5.844 27.78-16.918 53.729-27.375 79.983 1.64 4.272 3.588 8.343 6.254 12.107 8.202 2.443 12.51-1.424 15.688-8.547 2.87-6.513 5.333-13.229 8.715-19.437 2.357-4.171 5.229-7.021 10.664-5.394 9.434 2.85 16.099 12.313 14.149 21.878-3.486 17.198-7.074 34.293-14.663 50.473-3.69 7.938-8.406 15.875-9.944 24.829 1.743 4.579 3.383 9.26 5.332 13.84 5.64 4.885 10.354 3.46 13.535-2.544 3.485-6.513 5.435-13.84 9.022-20.353 3.179-5.698 7.792-10.074 14.765-7.834 7.383 2.34 6.05 8.751 5.229 14.449-1.128 7.734-3.896 15.467.922 22.896 4.819.714 9.639 1.324 14.354 2.036 4.409-4.272 5.024-9.87 6.256-15.467 2.151-8.955 5.536-10.48 13.737-6.412 3.28 1.629 6.462 3.766 9.948 4.885 8.919 2.95 13.634-.917 13.123-10.48-.409-1.934-.818-3.766-1.128-5.699-.615-2.645-1.126-5.495-4.816-5.393-3.59.102-5.129-2.85-7.69-4.478-13.228-8.039-24.813-19.334-41.219-21.267-5.437-.611-9.024-3.358-8.511-9.261.308-3.969.615-8.548 4.408-10.889 4.409-2.747 7.69.916 10.869 3.256 9.125 6.411 16.816 14.755 26.247 20.86 5.64 3.664 10.05.712 13.535-2.849 3.589-3.766 3.999-8.346-.922-12.007a16.255 16.255 0 0 0-3.181 0c-28.094-20.76-52.188-46.402-81-66.348-5.024-3.46-5.946-7.732-4.408-13.228 3.281-12.109 5.639-24.422 9.74-36.227-4.409.108-8.614.514-12.51 2.143zm-259.103 435.828c-5.846 1.018-10.459 4.682-15.381 7.327-8.816 4.682-10.662 3.766-13.842-5.292-2.46-6.919-1.435-14.144-3.794-20.859-3.896-3.154-8.304-5.598-12.815-7.633-7.587 2.239-7.484 8.346-7.793 14.552-.513 10.38-2.974 12.008-13.431 10.991-9.946-.916-17.637-4.376-20.508-14.958-1.025-3.867-2.666-8.243-8.407-4.986-.615 1.934-1.641 3.867-1.744 5.8-1.846 21.777 2.256 42.535 11.896 61.971 3.689 7.529 9.33 14.246 17.225 18.213 6.972 3.461 14.355 6.106 21.532 9.362 4.921 2.239 9.229 1.935 13.125-1.832 3.486-3.256 6.87-6.614 10.458-9.667 16.405-14.145 30.862-29.713 35.989-51.592-2.359-5.799-7.281-8.75-12.51-11.397zm527.025-278.003c-2.151-4.984-4.924-9.563-7.483-14.348-4.104-7.53-2.668-13.33 3.793-18.724 4.102-3.459 7.279-3.256 9.637 1.729 2.667 5.801 4.513 12.008 6.256 18.113 1.435 4.986 4.408 5.902 8.818 3.562 2.255-3.867 4.406-7.732 6.662-11.6.517-4.375 2.463-8.854.82-13.229-6.459-17.808-7.791-36.938-14.66-54.44-5.126-13.024-5.025-24.117 5.229-34.292 3.69-3.663 3.179-7.123.203-10.786-3.589-3.155-7.893-4.682-12.508-5.395-3.485 3.867-8.51 5.902-12.201 9.77-10.869 11.6-22.662 22.184-35.17 32.155-5.126 4.069-10.252 8.344-14.971 13.024-.408 1.425-.715 2.851-1.23 4.274-.715 4.884-3.072 10.075 2.464 13.636 5.74 3.765 10.354.204 14.765-3.053 5.229-3.766 10.355-7.835 15.586-11.498 3.791-2.646 7.073-7.734 12.403-4.885 5.437 2.951 5.437 9.057 5.642 14.449.206 5.495-2.768 9.667-6.459 13.331-5.743 5.8-10.563 12.517-16.51 18.011-10.869 10.176-18.762 23.507-32.4 30.63-.513.915-1.024 1.729-1.437 2.646-1.229 2.951-1.229 6.105-1.64 9.158-.205 2.035-.514 3.969-.819 6.004 1.434 7.53 6.048 10.074 12.202 6.411 5.229-3.154 9.737-7.326 14.354-11.397 2.667-2.44 5.947-6.003 9.639-2.645 3.486 3.154.821 6.919-1.025 10.073-4.613 7.53-9.229 14.958-13.738 22.591-3.383 5.699-7.587 11.092-7.074 18.214 7.482 5.597 15.174 10.38 25.224 6.208-.31-16.791 4.718-23.099 19.995-24.931a504.64 504.64 0 0 1 6.563-9.667c3.682-7.528 2.248-15.364-.93-23.099zm-142.216 19.03c4.511.916 7.484-2.442 10.563-4.884 2.871-2.341 5.33-5.189 8.305-7.429 2.461-1.831 5.229-3.664 8.307-1.831 3.18 1.831 2.667 5.088 2.153 8.141-.72 4.172-3.075 8.446.819 12.313 3.997 1.322 8.101 1.831 12.201 1.934 6.975-.815 11.178-9.261 19.277-6.92 1.022-.305 1.843-.915 2.458-1.729 2.153-3.46 1.746-7.327 1.846-11.092 0-1.526-.1-3.153-.511-4.681-7.486-6.717-11.382-16.485-20.405-22.082-4.922-3.052-3.793-14.754 1.335-20.352 5.843-6.41 8.612.713 12.201 3.358 4.613 3.357 9.021 6.817 13.228-.407.716-5.495 5.434-11.6-2.77-15.568-17.944-14.652-32.094-32.868-47.167-50.065-3.382-3.866-3.997-8.445-2.869-13.329 3.691-15.365 7.382-30.833 11.073-46.199-7.69-.305-15.481-1.221-23.07 1.426 2.256 21.268-2.463 40.5-15.584 57.798-6.36 8.243-9.128 17.808-6.665 28.391.203 1.832.305 3.663.511 5.494 3.896 3.868 6.665 1.526 9.23-1.628 2.767-3.46 5.639-6.818 8.715-9.973 3.178-3.256 7.075-5.189 10.971-2.34 7.278 5.291 14.456 12.108 12.612 21.675-3.282 17.196-6.871 34.698-21.123 47.317-5.023 4.478-9.536 9.362-10.46 16.382.103 2.035.209 4.071.309 6.106 2.154 3.255-1.333 8.953 4.51 10.174zm195.635-.203c-1.537 5.395.923 7.429 6.153 7.327 9.228-.102 18.251 1.628 27.069 4.273 6.254 1.832 10.662 4.986 8.509 12.313-1.847 6.311-7.073 7.938-15.07 4.479-8.717-3.766-17.432-7.53-26.251-11.193-6.458-2.646-12.612-2.748-18.558 1.119-2.871 2.646-5.741 5.292-8.512 7.938-1.845 5.189 1.229 7.326 5.537 8.547 8.103 2.442 12.304 6.718 7.382 15.366-1.742 3.053-.203 6.003-.102 9.057l9.843 10.685c7.486.712 7.793-6.31 10.767-10.277 7.383-9.87 13.534-10.48 22.146-1.629 1.948 2.035 3.178 4.886 6.458 5.292 4.307-.813 8.408-2.34 12.306-4.172 5.845-4.069 9.434-9.667 11.895-16.384 2.256-6.308 4.102-12.821 7.588-18.622 2.359-3.867 6.05-5.393 10.459-3.765 4.1 1.525 5.229 4.986 4.818 8.956-.514 3.968-1.436 7.937-2.975 11.702-1.437 3.662-.717 6.308 3.18 7.835 4.102-.814 8.2-1.527 12.2-2.342 9.536-4.273 11.075-13.33 12.718-21.877 2.563-14.45 7.072-27.881 15.684-39.889 2.053-2.85 2.669-5.902 2.669-9.26-3.589-3.866-7.075-7.835-10.664-11.702-.309.916-.513 2.035-1.026 2.849-5.639 10.379-13.326 19.538-18.454 30.324-2.152 4.579-6.975 5.088-11.587 4.274-15.382-2.85-31.172-3.054-46.242-7.632-9.536-2.849-19.277-4.172-29.224-3.765a217.704 217.704 0 0 1-8.716 10.173zm38.555 99.924c13.125-.712 23.069 4.683 30.245 15.265 4 5.8 7.589 11.905 11.382 17.909 18.561-1.222 18.561-1.222 15.381 17.909-1.026 6.514 1.946 9.77 9.228 9.871 3.589-.713 7.178-1.525 10.563-2.952 7.278-1.017 3.689-8.445 7.278-12.108 8.512-8.649 16.201-18.011 26.966-24.219 6.973-3.968 12.408-9.563 14.869-17.502-.41-5.698-1.435-11.295-3.796-16.587-8.508 1.935-16.301.814-24.298-3.256-5.741-2.849-12.511-3.663-19.175-3.052-5.333.813-10.562 1.628-15.894 2.543-3.796 3.969-1.536 6.412 2.053 8.752 5.433 3.459 11.175 6.512 16.606 9.769 2.36 1.426 4.413 3.358 3.589 6.614-.818 2.951-3.279 4.172-5.946 4.884-3.076.815-6.048.104-8.919-1.118-8.101-3.46-16.508-6.717-23.07-12.721-9.945-9.057-21.43-10.786-34.042-8.444-10.866 1.525-21.631 3.053-32.502 4.477 5.74 4.679 12.611 4.376 19.482 3.966zm92.689 100.131c10.868-5.901 22.968-8.242 34.656-11.701 3.896-1.12 7.483-.917 9.229 3.562 2.87-7.937 1.741-15.569-2.258-22.794-1.844 2.951-4.511 4.884-7.791 5.901-14.458 4.273-28.709 9.26-43.578 12.516 3.281 4.173 6.563 8.343 9.742 12.516zm-705.302 356.623c1.694 4.524 3.266 9.122 4.961 13.646 1-1.008 1.998-2.016 2.924-3.146-1.624-3.98-3.046-8.332-7.885-10.5z"/><path id="hl1" fill="#6D544A" d="M1753.405 478.704c3.589 8.346 10.153 13.025 18.558 15.977 7.589 2.646 15.69 3.968 22.766 8.344 3.589 4.273.613 7.632-1.643 10.887a517.074 517.074 0 0 1-36.809 46.199c-2.872 3.154-4.204 6.411-5.642 9.972-3.279 3.054-9.229 3.563-9.229 9.667-1.741 4.479-6.562 5.495-9.843 8.243-3.59 3.053-7.075 5.902-8.201 10.583-3.691 2.035-8.715 2.646-9.23 8.345-6.047 4.069-11.584 9.463-19.89 8.141a6.53 6.53 0 0 1-1.948-.305c-1.332-.917-3.075-.611-4.306-1.526-7.384-1.629-14.869-1.935-22.251 0-6.769.305-5.947-3.46-3.896-7.53 3.178-6.105 7.176-11.804 9.947-18.214 3.38-2.85 7.277-5.495 7.482-10.583 9.946-8.648 12.51-22.488 21.943-31.545 3.688-3.154 3.073-8.242 5.64-12.007 3.279-2.646 4.611-6.311 6.563-9.871 8.508-15.671 18.354-30.731 29.017-45.078 2.563-3.358 5.742-4.682 9.639-2.34l.103.203c-.102 1.014.72 1.625 1.23 2.438zm.411 193.036c.614.103 1.128.306 1.742.406 3.18.713 6.152.917 9.536.815 8.306-.204 16.61-1.935 25.018-.51 6.974 2.341 12.304-4.681 17.532-4.376 10.869.712 21.327-3.053 31.992-1.018 4.514-4.782 9.844-5.799 15.994-3.866 9.639-4.273 20.201-4.884 30.352-7.123 3.793-.813 4.203-3.765 5.022-6.614-4.513-11.702-5.33-24.015-6.354-36.327-3.18-3.154-7.179-3.663-11.28-3.054-9.947 1.425-20.095 2.239-29.735 5.395-4.408 1.424-8.304.916-12.402.203-3.59 2.543-7.078 5.394-12 3.46-2.563-.713-4.407 1.221-6.563 1.832-9.843 2.441-18.763 7.937-29.118 8.955-4.309 1.221-7.178 6.004-12.408 4.985-8.717 2.85-17.123 6.514-25.223 10.786-3.896 2.035-7.997 4.273-6.563 9.973 3.182 5.494 6.869 10.686 12.101 14.552.82.405 1.538 1.018 2.357 1.526zm-249.67-148.058c-5.846 12.109-1.537 22.285 5.022 32.258.207 1.933.411 3.867.615 5.799 1.128 3.359 0 5.801-1.537 9.058-4.921 10.276 2.051 22.387 11.791 21.979l18.147-8.547c5.331-4.987 6.563-10.787 4.104-17.604-.207-2.441 0-4.986-1.026-7.326-4.614-4.783-2.153-10.99-2.871-16.384-2.665-18.214-6.459-36.326-5.639-54.949-.82-2.238-2.771-3.765-3.383-6.207 3.176-6.818-2.154-13.025-1.849-19.13.821-16.894-1.539-33.684-1.025-50.575.205-5.8-2.871-8.854-9.125-7.225-7.482 1.119-14.766-.103-22.045-1.323-.206 16.79 1.641 33.58 2.869 50.269 1.438 19.742 3.282 39.482 5.025 59.224.104.61.204 1.119.307 1.73 1.542 3.052 1.748 6.613.62 8.953zm-303.91 188.149c8.715 7.43 16.199 16.688 28.299 19.232 6.049 3.46 9.535 10.481 16.713 12.516a27.687 27.687 0 0 1 1.64-.609c.922-.407 1.538-1.12 2.256-1.831-2.667-4.07-5.435-8.039-8.101-12.11.41-10.685-5.742-21.369-16.201-22.794-4.409-5.799-9.125-11.396-12.611-17.808-3.689-15.466-14.354-26.56-24.197-38.159-2.975-3.563-6.769-3.867-10.869-3.968-3.794-3.155-7.28-6.514-10.254-10.481-6.562-16.688-21.737-24.523-35.374-33.784-5.435-3.664-7.896.103-9.229 4.986-1.23 11.905-4.717 22.693-14.458 30.629-4.717 5.495-.512 8.446 3.486 11.193 16.098 11.091 32.811 21.369 48.396 33.274 8.614 6.513 17.534 11.804 28.096 14.348 3.383 2.748 6.87 5.393 10.253 8.141 1.437 2.037-.306 5.09 2.155 7.225zm179.946-172.071c.514 16.484 9.023 28.084 22.559 36.633 5.639 5.393 7.074 14.145 14.458 18.215 2.051-1.425 3.999-2.748 6.049-4.172 7.689-7.123-.718-9.973-3.794-14.144-1.436-4.07-2.871-8.039-4.305-12.109.512-9.972-1.642-19.334-5.846-28.391-3.486-7.633-6.459-15.569-9.535-23.404-2.256-5.698-5.229-10.786-11.278-13.33-1.438-3.357-2.872-6.614-4.308-9.972-2.358-5.292.922-10.99-1.947-16.485-7.28-14.042-14.15-28.289-21.43-42.332-2.563-4.985-5.947-7.021-11.383-4.782-8.304 5.698-16.609 11.396-26.35 14.551 2.768 5.089 5.332 10.177 8.203 15.162 13.738 24.017 27.479 48.03 41.218 72.146 2.563 4.07 5.126 8.242 7.689 12.414zm-98.226 71.129c1.333 2.747-1.538 5.698.82 8.648 9.331 11.905 15.482 26.56 29.838 34.09 5.229 4.681 6.767 12.516 13.739 15.568-1.23-3.155-2.563-6.31-3.793-9.464 1.846-12.822-5.024-27.169-15.791-32.868a405.448 405.448 0 0 0-4.408-9.667 32.442 32.442 0 0 0-1.642-2.34c-.102-.712-.308-1.323-.409-2.035-2.05-19.741-12.92-35.616-22.354-52.202-2.05-3.562-5.126-3.969-8.407-4.783l-7.998-12.516c-3.999-19.334-17.84-32.359-30.452-46.096-3.384-3.766-7.279-6.919-12.406-2.34-4.103 6.003-9.639 9.972-16.714 12.007.923 4.884 4.204 8.446 7.178 12.108 8.511 10.583 17.226 20.859 25.531 31.545 11.895 15.162 24.916 29.408 35.579 45.588 4.511 4.479 8.1 9.669 11.689 14.757zm319.802-50.879c0 1.424-.102 2.747-.102 4.172-2.051 3.154.513 7.021-1.846 10.176-7.997 5.394-3.896 10.481.309 15.671 6.05 2.85 12.097 5.698 18.045 8.547 4.717-1.118 5.434-5.088 7.178-8.853 3.793-8.242-.615-15.875-1.129-23.812.205-2.035.307-4.069.514-6.104 1.64-2.442-.309-5.699 1.64-8.141 8.204-20.656 12.511-41.518 5.641-63.497-1.024-3.154-1.024-6.717.411-9.974.104-1.221.104-2.543.202-3.765 8.819-15.772 7.486-33.275 8.717-50.269.31-3.766-1.743-6.513-4.818-8.548-3.382-.813-6.766-1.627-10.048-2.442-2.77 16.688-5.435 33.378-8.407 49.964-2.563 13.94-3.795 28.188-7.897 41.822.106 5.494-1.022 10.786-2.355 16.077-8.618 7.329-11.283 24.526-6.055 38.976zm-422.439 276.68c-2.359-4.273-6.563-6.919-9.946-10.176-2.77-10.379-7.793-14.349-18.457-14.349-2.871-2.442-5.743-4.985-8.613-7.428-3.998-8.956-8.407-17.198-20.301-16.587-4.307-3.154-8.716-6.104-12.304-10.176-4.614-10.887-14.457-16.281-23.788-22.184-4.614-2.95-7.792-2.441-10.767 1.831 0 10.177-.513 20.25-2.358 30.325-1.948 3.969-.922 7.733 2.152 10.277 10.151 8.446 20.405 17.095 35.067 16.078 3.588 1.729 7.075 3.664 10.151 6.41 7.689 13.432 20.302 18.623 34.861 20.352 4.614 1.73 8.51 5.394 13.738 5.699 2.158-4.882 6.361-7.426 10.565-10.072zm649.861-97.282c1.436 4.986 4.204 9.057 8.201 12.211 6.254 1.832 12.612 3.459 19.073 2.342 13.942-2.545 27.785-5.698 41.628-9.159 3.178-.813 6.971-1.119 7.382-5.598 0-.712-.104-1.322-.204-2.034-1.128-1.222-.718-3.054-1.848-4.273-.104-.611-.307-1.222-.511-1.832-.718-1.425-.517-3.052-1.333-4.478-.206-2.544-.31-5.189-.514-7.733-2.77-2.239-5.946-3.46-9.435-2.849-14.354 2.645-29.528 2.849-41.525 12.82-3.383.814-6.665 1.526-10.048 2.341-5.025 1.018-14.455-3.866-10.866 8.242zm51.266 69.196c.921 1.527 2.869 1.424 4.204 2.239 9.943 5.495 19.069 2.34 21.018-6.818-.204-1.934-.408-3.867-.717-5.801-.308-.916-.615-1.935-.922-2.849-2.154-7.633-2.871-8.345-10.254-6.614-6.563 1.525-12.922 3.562-19.38 5.393.925 5.19 2.668 10.176 6.051 14.45z"/><path fill="none" stroke="#000" stroke-miterlimit="10" stroke-width="6" d="M1878.702 809.011c-7.896-31.239-23.377-44.467-24.915-45.587-1.537-1.119-24.301-5.394-30.453-36.43-23.583-50.879-39.68-48.844-39.68-48.844-3.386-1.323-25.635 8.446-43.576-16.994-27.687-43.756-61.831-49.25-63.881-48.539-2.051.712-29.939 13.025-39.989.508-45.114-36.326-82.743-28.797-89.921-27.168-7.385-.813-30.248 10.889-36.094 10.99-5.844.103-36.705-6.309-59.264-9.667-22.557-5.597-45.115 16.994-45.935 25.136-5.845 22.387-20.2 33.07-30.146 43.043-9.944 9.972-25.223 15.06-46.447 16.076-21.226 1.019-44.603 26.763-45.32 33.887-.718 7.123-12.816 28.187-12.816 28.187s-.513.813-27.993 12.719c-27.478 11.906-31.271 44.266-34.655 63.396s-21.84 24.117-25.735 25.847c-3.897 1.73-12.202 9.158-13.945 17.604-1.743 8.445-22.044 36.124-28.402 40.5-17.225 17.502-21.735 18.011-24.401 18.315-2.666.306-20.814-6.41-32.299-14.755-11.484-8.344-15.174-15.977-19.276-25.846-4.102-9.871-14.047-45.792-3.077-64.414 14.048-19.639 14.253-37.548 11.177-53.626s-1.23-36.938 0-53.525c1.23-16.586 22.354-54.95 33.221-62.785 10.87-7.835 11.688-6.512 14.56-28.391 7.485-52.405 45.115-88.021 68.186-98.501 21.02-5.597 32.503-17.503 34.86-21.167 2.358-3.663 8.203-20.758 36.194-36.022 37.22-20.352 50.549-14.754 62.033-15.264 11.482-.509 40.809-23.2 40.809-23.2 20.507-16.688 82.335-23.202 100.279-19.437 46.961 18.621 61.827 5.189 61.827 5.189 39.27-13.025 64.083-5.597 75.156-3.053 11.072 2.544 11.279 18.113 59.98 16.078 63.368-3.867 87.979 48.335 91.566 55.254 3.587 6.919 4.921 19.843 40.809 30.324 101.814 44.265 95.661 110.204 95.661 110.204-1.33 8.14 2.36 37.244 7.485 41.721 5.127 4.479 16.714 46.3 10.766 58.817-5.947 12.516 1.025 24.93 1.95 26.762.922 1.831 12.713 19.843 6.868 27.474-9.125 13.534-7.689 37.651-7.689 37.651 2.871 24.931-6.05 29.713-6.05 29.713s-13.532 6.618-21.428-22.18zm-782.402 286.44s-3.766 8.447-11.332 24.734c-7.565 16.286-20.943 31.344-22.101 34.767-1.156 3.423-13.787 28.835-13.563 35.039 0 0-8.721 25.619-15.429 34.729-6.71 9.107-34.179 62.9-33.737 71.336.443 8.434-15.845 38.521-18.444 43.748-2.602 5.23-.097 7.953 10.832.97 10.927-6.983 40.663-58.652 41.636-63.593.973-4.942 29.639-61.344 33.521-65.62s6.448-14.089 6.448-14.089 14.343-31.92 15.706-37.29c1.36-5.37 11.985-16.209 12.93-17.788.942-1.577 7.441-10.776 6.97-13.911-.474-3.135 5.043-8.485 6.516-10.832 5.721-9.113-13.317-22.951-19.953-22.2zm69.856 2.749s6.751 17.157 3.802 23.013c-2.949 5.854-10.643 21.092-17.772 28.687-7.128 7.594-12.019 13.568-12.32 20.229-.301 6.659-15.62 24.62-21.45 28.558s1.709 8.664 13.444 7.236c11.736-1.429 18.603-4.881 23.769-17.416 5.164-12.535 15.677-16.919 18.453-35.981 2.777-19.063 10.031-16.832 9.625-34.313-1.195-12.954-13.492-22.098-17.551-20.013zm685.145 13.173s-3.896 15.672 0 25.439c3.896 9.77 6.254 12.823 8.101 16.282 1.848 3.46 5.229 10.277 6.254 16.078 0 0 3.385 16.484 6.768 27.067 0 0 12.714 42.637 18.253 47.215 5.536 4.579 18.559 8.447 21.12 5.19 2.563-3.257 3.897-6.004 0-12.211-3.896-6.208-15.994-35.106-17.942-52.202-1.846-9.158-7.483-13.127-9.843-18.928-2.665-3.459-5.024-18.622-5.743-21.674-.719-3.052-22.766-33.069-26.968-32.256z"/></svg>