<svg xmlns="http://www.w3.org/2000/svg" id="hair" viewBox="0 0 3000 3000"><path id="cl1" fill="#2A201B" d="M1214.3 425.801c2.5 7.8.899 15.899 1.5 23.8.399 4.5-.7 10.5 4.899 12 6.601 1.7 7.9-5 9.801-9.2 16.8-36.8 42.6-66.601 72.399-93.2 12.2-10.9 24.7-21.4 37.601-31.3 2.899-2.2 5.6-4.7 9.199-5.9 5.301-.899 9.301-4.6 14.301-6.1 2.6-.8 5.5-3.2 8.399-.601 2.9 2.7 1.601 5.9.5 8.801-3.6 9.5-7.7 18.899-12.7 27.8-1.699 3.1-1.699 5.6.101 8.399-.601 4-4.3 8.7.899 11.5 4.801 2.7 7.7-2.1 10.7-4.899 6-5.601 11.8-11.4 17.7-17.2 6.5-1.8 10.8-7.3 16.7-10.1.7-.5 1.3-1.101 2.1-1.5 1.2-.601 2.101-1.5 3.2-2.301l2.4-1.199c1.6-.2 2-2.2 3.6-2.301 34.9-18.399 69.199-38.199 107.4-49.5 1.399-.399 2.899-.6 4-1 3.3-1 6.399-2.199 8.3 1.2 1.6 2.9-.3 5.601-2.601 7.7-7.199 6.7-15.6 11.9-22.899 18.4-.9.199-1.4.8-2 1.399-.7.2-1.3.601-1.9 1-.3.2-.6.4-.899.5-.5.4-.9.8-1.301 1.2l-.4.4c0-.101-.399.399-.399.3l-.399.3.399-.4s.399-.399.5-.399c.3-.4.7-.7 1-1.101.399-.399.899-.8 1.399-1a15.465 15.465 0 0 1 1.701-1c.5-1.199 2.299-.699 2.699-2 14.801-12.399 31.1-22.6 48.4-31.199 3-1.5 6.9-5.801 9.6.699-8.199 15.9-16.5 31.801-24.699 47.7-6.101 11.8-12.301 23.5-18.4 35.3-.801 1.5-1.5 3-1.9 4.601-1 4.7 1.7 7.8 6.5 7.5 4.1-.2 7.5-2.5 11-4.4 17.7-9.8 34.801-20.8 53.4-28.8 9.199-1.8 16.8-7.5 25.5-10.4 10.199-4.899 20.8-8.899 31-14 2.8-1.399 6.4-3.3 9.4.301-9 27.399-19.801 54.199-30.301 81.1-1.199 3.1-2.5 6.2-3 9.5-.699 5 2.9 7.4 7.6 5.2 2.601-1.3 4.9-3.3 7.4-5.101 13.801-9.8 26.4-21.1 40.6-30.399 7.5-2.7 12.801-9 19.7-12.601.601-.5 1.2-1 1.9-1.5.7-.399 1.399-.8 2-1.3.6-.6 1.2-1.1 1.8-1.7.6-.6 1.2-1.199 2-1.6.801-.5 1.5-1 2.301-1.4.799-1.399 3-1.1 3.6-2.6 6.9-3.3 8 1.2 9.199 6.3 4.2 17.7 7.4 35.601 10.601 53.4.399 2.2-.101 5.1 2.7 6.399 2.699 9.601 2.5 19.601 3.6 29.4.7 5.601 1.3 11.101 2.3 16.7.7 3.6 1.7 7.4 6.101 8 4.199.6 5.199-3.4 7.199-5.8 7.5-15.3 11.2-32.3 20.4-46.9 4.2-6.6 5.9-14.4 9.9-21.1 5 18 8.899 36.2 12.3 54.5 2.399 12.8 4.399 25.6 8 38.1 1 3.5 2.1 7.101 4 10.2 4 6.5 10.5 6.1 13.8-.8 2.2-4.601 2.801-9.601 3.4-14.5.4-4 .699-8 2.4-11.7 6.799-9.9 8.6-22.2 15-32.4 2.199-3.5 2.199-8.8 7.6-9.699 4.8 25.899 7.6 52 9.699 78.3 1.801 22.3 2 44.6 1.9 66.899 0 5.801.1 11.5 5.9 15 5.6 3.5 2.1 8.2 1.5 12.5-.6 3.9-2.1 7.601-3.801 11.601 20.9-19.101 35.9-43 55-63.3 4.5-1.801 5.7-7.7 10.9-8.601-3.3 56-23.5 106.2-52.5 153.4-8.4 13.7-9.4 13.6-19.1 1.3-8.7-11-18.301-21.1-29.5-29.6-39-29.7-82.2-36-128.7-22.7-29.101 8.3-55.601 22.1-79.899 40.3-10 7.5-10.101 7.3-19.801.3-22.9-16.5-48.199-28.2-75.199-36.399-51.9-15.9-105.201-23.5-159.201-26.801-10.6-.699-21.199-1.8-31.899-1.899-7.399-.101-13.7 2-19.2 6.899-15.199 13.4-25.3 29.9-30.5 49.4-1.3 4.9-1.9 9.8-1.6 14.8 3.6 45.8 4.5 91.8 7.1 137.7.6 11 .4 22 .6 33 .101 5.4-1.5 9.7-6.899 12.1-12.3 5.5-22.601 14.101-33 22.301-5.5 3.5-10.601 3.5-16.2-.301-16.9-11.399-32.5-24-42.5-42.3-5-9.1-7.4-18.7-5.8-29.1 9.7-3 13.5-10.601 16.8-19.5 2.5-6.7 9.1-7.2 15-3.101 1.9 1.301 3.4 3.101 5.2 4.7 7.2 6.3 8.601 5.9 10.601-3.1 1.699-8 3.299-15.7 13.799-16.8 4.701-.5 6.4-10 13.4-5.2.6.5 1.301 1 1.801 1.7.399.699.8 1.3 1.3 2 .399.6.899 1.199 1.3 1.699s.8 1 1.3 1.5l.601.7c.3.4.6.9.8 1.3l.399.601.4.5.4.399.4.4s-.4-.4-.5-.4c0 0-.4-.5-.5-.5-.301-.399-.5-.899-.801-1.3-.3-.6-.6-1-1-1.5-.5-.5-.9-1-1.4-1.6s-.899-1.2-1.399-1.9c-.8-1-1.101-2.399-2.4-2.899-5.1-6.801-8.5-14.4-9.6-22.9.399 4.5 3.1 9.7-2.601 12.4-6.199 3-8.8-2.2-11.6-6.301-2.3-3.3-3.3-7.3-4.9-10.199 3.4 5.3 2.7 11.899 2.301 18.3-.2 3-1.5 5.8-4.6 6.7-3 .899-5.9-.101-8.101-2.4-3.3-3.7-5.899-7.9-6.899-12.8 1.199 2.899 1.799 5.899 1.699 9.1-.199 4.8-2.199 8.4-6.699 10-4.701 1.7-8.5-.1-11.4-3.899-4.7-6-7.5-13.2-12-19.4 2.5-12.2-6.301-16.8-14.1-23.2-22.301-18.3-38.201-41.6-49.201-68.1-3.399-8.2-8.1-16.2-7.5-25.5.301-4.601-5.5-4.601-5.799-8.5 0-2.7 2.5-3.5 3.799-5.2 6.201-.6 8.101-4.3 7.5-10.1-.5-4.801-.799-9.601-1.199-14.4 1.199-4 2-8.1 1.8-12.3.2-1 .3-1.9.601-2.8 1.399-2.4 1.6-5.101 1.5-7.801 8.199-34.699 21.399-67.5 35.699-100 8.9-20.3 19.4-39.6 29.9-59 3.5-6.399 5.6-7 11.8-3.3 1.899 1.202 3.299 1.603 4.999 1.603z"/><path id="sd1" fill="#221A16" d="M1124 638c3.899 10.601 7.899 21.101 11.8 31.7 8.8 23.9 23.7 43.7 41 62 5.8 6.101 13.3 10 20 14.9 9.6 7 9.899 8.7 1.3 17.399-.6 8.301 5.7 14.7 5.2 23.4-.9 15.8-5.7 20.2-21.3 16.9-1.601-.3-2.9-1.6-4.7-1-3.7 13-10.601 15.1-24.101 7.3 2.5 11.7-.6 14.2-16.5 11.8 5 12.5 7.4 25 9.4 35.7-3-5.3-1.9-12.7-.7-20.2.5-2.7 1.601-5.2 4.601-5.8 2.899-.6 4.899 1.1 6.5 3.4 3.6 5.2 7.3 10.2 10.399 16.899 0-7 .2-12.899 2.7-18.5 2.1-4.699 4.2-9.399 10.6-8 3.4.801 4.301-2.5 6.601-3.5 3.899-1.699 7.2-.3 10.1 2 2.8 2.2.8 4-1 5.7 2.2 18.3 11.3 33.2 24.101 45.8 7.8 7.7 16.399 14.5 26 20 3.8 2.2 7.699 3.9 12.1 4.3-32.9 34.9-51.5 77.801-67.801 122.601-4.799-2.7-4.199-6.7-4.799-10-4.5-24.9-9-49.8-15.9-74.101-2.9-10.199-6.1-20.399-8.801-30.699-1.899-6.9-5.899-11.601-12.3-14.8-16.2-8.301-32.899-14.601-51.5-13.301-5.7.4-10.3-1.199-13.399-6.6-7.2-12.4-16.2-23.5-24.301-35.3-21.899-31.8-40.899-65.4-62.3-97.601-1.3-1.899-2.1-4.199-3.1-6.199 3.3-4.2 5.899-.4 8.7.8 23.1 9.6 43.399 24.399 65.399 35.7-6.7-9.2-6.7-9.2-3.899-14.601 4.3-3.899 2.699-8.5 1.199-12.899-5.899-16.9-11.899-33.801-17.899-50.7-1-2.8-2.2-5.601-3-8.4-.7-2.7-3.4-6-.5-8.2 2.7-2 5.5.801 8 2.301 1.3 5.5 6.6 7.1 10.399 9.399 7.4 4.4 13.801 9.9 19.801 14.5.3-3.8-10.4-5-4.101-12 7.601-3.7 8.4-4.8 7.4-13.899-1.9-17.801-4.3-35.5-6.2-53.301-1.4-13.199-2.6-26.399-3.699-39.6-.201-1.9-1-4 1.399-5.8 3.8 1.6 5.399 5.2 7.2 8.6 4 11.601 12.5 20.4 18.8 30.7 2.601 4.2 6 7.9 8.101 12.3 2.6 5.603 6.799 8.603 13 8.902z"/><path id="hl1" fill="#4C3A31" d="M1064.1 755.9c9.1 13.2 9.5 14.1 10.699 21.8-2.899 1.7-5.1-.3-7.299-1.5-15.9-8.3-31.301-17.7-46.601-27-8.8-5.399-17.3-11.2-26.899-15.2l.1-.1c-.7-.7-1.4-1.3-2-2-.7-.6-1.301-1.3-1.801-2.1h.101c-.3-3.601 1.399-3.4 3.7-1.801 1.199 1.2 3 .801 4.199 1.801 20.601 8.1 41.101 16.2 61.701 24.3 1.1 1.1 2.9.701 4.1 1.8zm57.8-121.7c-2.399-2.7-5-5.2-7.2-8.1-10.3-13.3-20.5-26.8-30.699-40.101-1.301 4.4 1.3 7.7 3.199 11.101 7.7 13.6 15.301 27.3 23.101 40.8 1.899 3.3 2.8 8.6 7.399 8.4 3.9-.2 4-5.601 6.301-8.4-.701-1.2-1.401-2.4-2.101-3.7zm-70 43.9c-1.899 1.899-1 3.7.5 5.1 10.9 9.601 21.5 19.601 33.3 28.101.301.199 1.2-.2 1.801-.301.3-10.5-1.7-15-9.5-21-8.701-4-17.401-8-26.101-11.9zm150.2 155.3c5.699 2.8 6.8 2.3 8.1-3.8.9-4.2 1.301-8.601 2.5-12.7 2.6-8.7 6.801-9.7 13.6-3.6 3 2.699 5.601 5.699 8.601 8.399 2.399 2.2 4.2 6.3 7.899 5.101 3.9-1.2 2.601-5.601 3-8.801.4-3 .4-6 .801-9 1.699-11.399 3.6-12.399 13.699-7.1 1.9-2.2 1.301-5 2-7.5.701-3 2.5-4.6 5.701-4.5.6.7 1.299 1.3 2 1.9l.1.1c.6.7 1.199 1.3 1.9 1.9l.1.1c.6.7 1.199 1.3 1.9 1.9l.1.1c.6.7 1.199 1.3 1.9 1.9l.1.1c.6.7 1.199 1.3 1.9 1.9l.1-.1c2.199 1.1 2.6.199 2.1-1.9-.1-.7-.199-1.3-.3-1.9-.601-.7-1.2-1.3-1.9-2-1.3-1-.899-2.9-2-4-1.3-1-.8-3-2-4-2.8-6-5.5-12.1-8.5-18-3.1-6-4.1-13-9.3-18.4-2.5 3.601-.8 6.5-.9 9.4 0 3.2 1.801 7.7-1.699 9.1-3.9 1.601-5-3.399-6.801-5.8-3.8-5.1-7-10.7-12.5-15.7-.899 5.301 1.2 8.5 2 12 1.101 4.601 2 9.101 1.601 13.801-.101 1.699-.4 3.5-2.101 4.199-2.399 1-3.699-.699-4.899-2.3-2-2.7-3.7-5.5-5.7-8.2-1.9-2.5-3.1-5.899-7-6.699-1.2 1.6-.6 3.199-.4 4.8.601 3.3 1.301 6.5 1.601 9.8.2 3 .1 6.4-3.101 7.8-3.5 1.601-5.6-1.2-7.399-3.5-3.7-4.7-7.2-9.5-10.8-14.3-3.301 3.1-1.801 6.8-1.301 10.3.801 4.9 1.5 9.9 1.1 14.9-.699 9.399-6.299 12.899-15.1 9.3-2.699-1.1-5.199-3-7.8-4.4-1.899-1-3.7-3.1-6.3-1.5-1.4 2.4.1 4.5.699 6.7.801 2.9 2.101 5.9-.5 8.5-2.899 2.9-6.3 1.8-9.3.4-3-1.4-5.7-3.4-8.6-5-1.9-1-3.2-3.601-6.5-2.101 1.3 4 2.8 8 3.7 12.101.699 3.5-1.301 5.2-4.601 3.899-3.7-1.5-7.1-3.699-10.7-5.399-1.8-.9-3.899-1.601-5.6 0-1.8 1.7-.699 3.8.2 5.5 8.3 15 11.7 31.8 17.3 47.8.801 2.3.9 5.2 4.5 6.8 1.301-10.899-2.699-21.6 1.9-32.3 8.9 6.8 10.4 17.6 17.6 25.3 3.2-4.399 2.801-8.8 3.1-12.899.301-5.301.5-10.7 2.601-15.7 1.6-3.9 4.1-4.9 7.899-2.5 2.301 1.5 3.801 4.899 7.5 3.399 0-9.699 0-9.699 6.2-7 1.899 1.2 3.899 2.4 6 3.4zm722.2-279.2l-.2.101c-.8.399-1.4.899-1.8 1.699-14.4 12.4-28.5 25.2-44.2 35.9-1.1 1.3-2.9.9-4.1 1.9l-9.9 33c.6.399 1.2.8 1.9 1.199 5.6-3.699 11.1-7.8 15.899-12.699 17.7-18 33-38 46.7-59.2-.099-3.799-1.799-3.799-4.299-1.9zm-239.9-177.899c8.8-1.2 15-7.101 21.7-12.101-.801-.8-1.7-1.6-2.5-2.5-7.1 4-13 9.5-19.2 14.601zm-294.9-26.5c8.1.6 12.8-5.5 18.6-9.4-.9-.9-1.801-1.8-2.7-2.6-6.1 2.799-11.201 7.199-15.9 12zm206.699-9.601c9 .3 16.1-4.6 23.801-8-1.2-.6-2.5-1.3-3.7-1.899-7.101 2.5-13.601 6.099-20.101 9.899zm-468 269.5c2.2-3.7 3.4-7.7 3.7-11.899-.7-2.101-1.5-4.2-2.2-6.301-2.299 6-2 12.1-1.5 18.2zM1498 320c2.899-.8 5.6-2.1 8-4.1-1.301-.6-2.5-1.3-3.7-1.9-1.5 2-2.9 4-4.3 6zm-83.9 17.801c-.7.1-1.301.1-2 .199-.7.601-1.4 1.2-2.1 1.9-.601.2-1.2.3-1.9.4-2.301.6-3.301-.301-2.7-2.601l.4.3c.899-.5 1.5-1.3 2.1-2.1l-.1.1c.7-.6 1.399-1.2 2.2-1.7l.199-.1c.801-1.4 2.801-.9 3.7-2.3 28.899-18.4 59.5-33.601 91.3-46.3 19.1-7.601 38.7-13.9 58.4-19.9 1.9-.6 3.8-1.2 5.699-1.6 1.9-.4 4.101-1.601 5.701-.101 2.299 2.101.199 4.3-.701 6.3-1.199 2.7-2.799 5.301-4.199 7.9-20.1 10-38.801 22.6-58.2 33.8-.7.601-1.3 1.3-2 1.9-.6.1-1.3.1-1.899.2-.7.6-1.5 1.199-2.101 1.899-2.3 1.5-4.1 1.8-3.7-1.899l-.1-.101c.6-.7 1.2-1.3 1.9-1.899l.1-.101c.6-.7 1.3-1.3 1.9-1.899l.1-.101c.6-.7 1.2-1.3 1.9-1.899 7.5-7 15-14 22.899-21.5-3.2-2.101-5.7-.601-8 .1-16.399 4.8-31.8 12-47 19.4C1455.9 315.9 1436 326 1416.1 336c-.7.6-1.401 1.2-2 1.801zM1133.9 590c8.5-32.3 20.7-63.199 34.101-93.6 9.399-21.3 19.6-42.2 31.1-62.5 3.8-6.7 4.9-6.6 9.199-.4.9 1.301 1.5 3 3.801 2.5 2.8-2.899 1.3-6.899 2.3-10.3-1-7.7.5-15.8-2.7-23.2-1.199.301-2.1.2-2.399.601-1.8 2.399-3.601 4.8-5.2 7.3-27.6 43.6-48.6 90.3-64.6 139.3-3.2 9.8-6.301 19.7-7.601 30-1.8 2.5.2 5.8-1.7 8.3-.1 1.2-.3 2.4-.399 3.7-.101 2.4-3.2 5.8 2.2 6.3 0-.6.1-1.199.1-1.8 1.798-1.801.097-4.501 1.798-6.201zm261.2-297.1c-12.6 6.5-23.4 14.6-34.9 21.6-.899.301-1.6.801-2.1 1.601h-.1c-.801.5-1.4 1.3-2.2 1.7-.8 1.399-2.9.899-3.7 2.399h-.1c-.9.4-1.301 1.3-2.2 1.7h-.101c3.801 1.1 7.201-.4 10.701-1.3 2.199-.601 4.699-2 6.5.3 1.6 2.1.1 4.5-.801 6.5-4.3 10-8.8 20-13 30.1-.9 2.2-2.9 4.601-.6 7.101 3.4-.4 5.1-3.2 7.9-4.4C1374.199 340.6 1394 302.9 1395.1 292.9zm335.5 57.6c-.3-1.6-.6-3.3-1.1-4.899-1-3.4-3-4.4-5.9-1.9-4 3.5-7.9 7.101-11.9 10.7-.6.4-1.199.9-1.6 1.5l-.2.1c-.7.601-1.399 1.2-2.1 1.9s-1.3 1.4-2.101 2l.101-.1c-.601.8-1.3 1.5-2.101 2.1l-.199-.2c-.6 2.3.199 3.2 2.5 2.5.6-.1 1.3-.2 1.9-.399.699-.601 1.399-1.2 2-1.9.6-.7 1.399-1.3 2.1-1.9.6 0 1.199-.1 1.9-.199.6-.7 1.399-1.2 2.1-1.9 6.3-.6 6.5 4.5 7.5 8.5 4.1 16 8 32 12 48 .6 2.6 1.3 5.1 2.3 7.5.601 1.3 1.5.7 1.899-.4.201-.6.4-1.3.5-1.899-1.599-23.204-5.099-46.204-9.599-69.104zM1790 400c-.7-.699-1.301-.699-1.9.101-13.9 20.8-23.301 43.5-28.4 68 2.5-2.3 4.301-5 5.5-8.101 6.5-15.899 14.5-31.1 22-46.5 1.999-4.3 2.8-8.8 2.8-13.5zm-126.7-95.4c-16 8.7-31.5 17.2-47 25.7-.2 3.6 1.7 2.899 3.7 1.899 14.199-4.899 28.699-9.1 42.1-16.1 1-3.399 3.199-6.599 1.2-11.499zm190.399 124.3c-1.899-.3-2.699 1.6-3.399 3-5.8 11.5-11.2 23.3-14.4 35.9-.899 1.3-.6 2.899-1.5 4.199-.2 1.2-.399 2.5-.6 3.7 1 2.3 2.399 2.4 3.3.2 5.7-14.4 14.1-27.7 19.3-42.3-.5-1.798-.3-4.199-2.701-4.699zM1235.8 612.7c.1 1.9-.2 4.4 2 5.3 2.3 1 3.5-1.199 4.8-2.699 6.9-8.2 13.1-16.801 19.1-25.601 3.7-5.399 7.601-10.7 13.301-16.399.8 5.399-1.4 8.6-2.301 11.899-1.6 5.8-3.699 11.4-3.899 17.5-.101 1.7.2 3.4 1.899 4.3 1.801.9 3.2-.1 4.5-1.3 4.301-3.8 7.801-8.2 11-12.899 7.301-10.4 13-21.7 19.601-32.601 1.6-2.6 2.5-6.3 6.5-6.6 2.399 3.5 1.399 6.8 1.1 10.1-.399 6-1.2 11.9-1.5 17.9-.1 3.1-2.3 7.5 1.601 9 3.5 1.3 5.5-3 7.5-5.4 10.199-12.3 19.8-25.1 28.699-38.399 1.7-2.601 2.9-5.9 7.7-7.4-1.101 12.6-2.101 24.3.3 36.3 6.5-10.3 13-20.399 18.301-30.899 13.1-25.9 28.699-50.301 43.6-75.2 8-13.4 16.1-26.9 23.8-40.5 1.8-3.2 5.601-7.4 1.5-10.601-3.3-2.6-6.8 1.101-9.8 3.101-16.801 11-31.1 25-44.6 39.899-17.4 19.301-33.801 39.5-52.5 57.601-2.5 2.5-4.601 5.7-8.601 6.6-1.3-3.5 1-5.899 2.2-8.5 9.3-19.6 17.6-39.6 25.8-59.6 1.9-4.601 3.3-9.4 4.7-14.2.6-2.1 1.5-4.9-1.4-6.1-2.1-.9-3.699.899-5.1 2.3-8.2 7.8-16.2 15.8-23.5 24.5-16.9 20-29.5 42.7-43.4 64.7-2.199 3.5-3.9 7.6-9.9 11.5 7.201-27.601 14.201-53 20.701-78.7-16.301 20.8-30.301 42.899-45.301 64.3-15.1 21.6-25.5 46.2-40.4 69.9-2.3-6-1.199-9.9-.699-13.801 2.8-19.899 8.3-39.1 13-58.5.8-3.3 3.5-8-.6-9.899-4.201-2-6 3.1-8.101 5.8-11.101 14.4-18.3 30.9-25.2 47.5-12.9 31.3-19.3 64.4-28 96.9-.4 1.5-1.1 3.199.801 5.199 7.5-7 10.6-16.5 14.8-25.399 4.2-8.9 6.1-18.9 11.899-27.9 2.801 3.2 2.2 6.2 2.301 9.101.1 8.3 0 16.699.1 25 .1 3.199-1.2 7.699 2.6 8.899 3.801 1.2 5.301-3.3 7.2-5.7 9.2-11.6 15.4-24.899 21.9-38 2.2-4.399 3.8-9.199 9.399-14 .299 5.098.399 8.398.599 11.698zm410.1-88.7c0 12.301-.1 24.601.3 37 .301 8 1.301 15.9 2.101 23.9.2 1.6.6 3.5 2.7 3.5 1.5 0 2.3-1.3 2.8-2.5 1.399-3 2.7-6.1 3.899-9.2 2.7-6.8 5.301-13.7 8.101-20.399 1.399-3.4 3.8-3.801 5.8-.5 1.9 3.1 3.4 6.5 5 9.8 3.4 6.8 6.6 13.8 11.2 20.1 1.3 1.8 2.6 4.4 5.399 3.3 2.7-1.1 1.801-4 1.7-6.199-.2-5.301-.7-10.601-.8-15.9 0-2.9-.6-6.6 2.699-8 4.201-1.7 5.701 2.4 7.601 4.9 3.3 4.6 6.2 9.5 9.5 14.1 3.899 5.4 7.899 10.7 12 16 1.399 1.7 2.601 4 6.101 3.2 1.399-3.8-1.201-6.8-2.601-10-2.7-6.2-5.101-12.4-5-19.2 0-5.6 3.2-7.1 7.8-4.1 1.4.899 2.6 2.1 3.801 3.3 9.399 9.5 19 18.6 27.6 28.8 5.199 6.2 10.9 12.1 17.699 16.9-1.3-10.102-7.9-18.702-6.8-30.802 11.899 12.9 19.699 27.2 32.5 38.7.399-5.399-1.801-8.1-3.5-10.8-10.5-17.5-18.9-35.9-25.701-55.1-1.299-3.801-2.6-7.601-4.399-11.101-1.5-3-1.899-8.399-6.5-7.399-3.601.8-2.3 5.699-2.8 8.899-.301 1.9 0 4.3-2 5.3-2.7 1.2-4.2-1.199-5.9-2.699-6.9-6.301-13.699-12.7-20.6-18.9-1.6-1.4-2.801-4-6.301-2.4.5 9.5 6.301 18.601 4.2 29.301-4.6-2.301-6.5-5.9-8.7-9.101-6.399-9.3-12.6-18.8-19-28.2-2.199-3.3-4.6-6.6-8-8.8-2.5-1.6-4.399-.899-5.5 1.9-1.199 3 .4 6.8-3.199 9.6-7.301-3.399-7.9-13.399-15.801-17.5-2.6 8.3.301 16.5-2.8 25.101-7.8-10.5-8.399-23.5-17.8-34.4 1.2 13.5 5.7 24 6.3 36.7-6-4.601-6.3-11.101-11.3-15.5-2 3.099-1.799 5.799-1.799 8.399zm-128.5 39.6c1.7-1.601 3.3-3.3 5-4.9 3.101-2.8 4.601-7.3 9.9-9.7 3 13.301 2.2 26.801 7.399 39 3.5-1 3.5-3.699 4.101-5.8 1.8-7.1 3.899-14.2 5.1-21.399 2.3-13.301 1.9-26.601-.8-39.801-1.7-8.5-5.5-9.899-12.6-4.899-7.101 5-13.801 10.5-19.801 16.8-2.1 2.2-4.3 4.3-6.699 5.9-2.801 1.899-5.4.899-5.9-2.5-.5-3.2-.1-6.601-.1-9.9-.101-3 .3-6.3-3-7.8-2.801-1.3-5.101.899-7.2 2.399-5 3.301-9.7 7.101-14.9 10.101-4 2.3-6.399.6-6.2-4.101.2-4 1-7.899 1.7-11.899.5-3.3 1.2-6.601 1.7-9.8.199-1.301.199-2.801-.9-3.7-1.6-1.3-3.199-.4-4.5.6-1.4 1-2.699 2-3.9 3.2-9 8.9-18.1 17.7-26.799 26.9-5.701 6-10.5 12.899-14.9 20-1.7 2.699-4.7 5.8-1.4 8.899 2.801 2.601 5.6-.2 8.1-1.7 5.9-3.8 11.601-7.8 17.5-11.6 1.801-1.1 3.4-3.5 6.5-1.7.5 4.9-1.899 9.601-2.1 14.5-.1 2.3-.6 4.9 2.1 6.101 2.101 1 3.9-.301 5.5-1.5 4.601-3.4 9-6.9 13.601-10.2 1.7-1.2 3.2-3.7 6-1.8 1 3.5-1 6.5-1.601 9.699-.399 2.301-1.199 4.601-1.199 6.9-.1 5 2.6 6.8 7 4.5 3.8-2 7.1-4.9 10.699-7.3 3-2 5.101-5.4 9-5.8 4.799 9.2 5.698 9.3 13.599 2.3z"/><path fill="none" stroke="#000" stroke-miterlimit="10" stroke-width="6" d="M1878 714s58.5-74 59.5-171c0 0-56.801 48.5-65.2 49.801-8.4 1.3 4.6-70.101-17.7-166.101-5.3-8.7-21.9 49.2-22.9 57.5-1.8 12.101-16.8 46.8-25.8-9.3s-14-77.5-15.7-79.8c-1.699-2.301-27.699 41-32.699 71-9.301 20-12.7-13.3-12.7-24s-13.3-100-16.3-104.3c-25.101 24.1-79.301 64-91.7 71s-11-9.7 2.7-31.5c13.699-21.801 27.3-71.101 26.3-74.801-1-3.699-118.9 64.2-120.3 65-1.4.801-34.4 18.801-12.7-17.399s45-86.101 45-86.7-130.3 23.8-203.4 101.1c-24.6 25.7-11.3-14.1-2.8-22 13.2-15 24.9-52.6 24.9-52.6s-104.7 55.7-156.301 139.7c-11.5 27-24 53-22.3 2-4.3-39-4.7-35.3-4.7-35.3s-66.699 75-87.3 213c5.601 43.699-13.7 12.3-21.399.699-7.701-11.6-28.301-36-28.301-36s-4.699 30.301 6.7 103.7c1.601 8.2-2.7 18.3-27 0-18-10.7-17.899 1.601-12.7 10 5.2 8.4 21 61.3 20.7 62.3s3.899 11.9-23.7-4.699c-19.6-6.3-44.6-19.7-50.1-19.3-3.6 5 70.9 121.7 92.1 149.7.301 2.3 10.801 10.2 23.1 4.4 19.301-6.1 51.601 18.2 53.301 27.2 6.199 15.2 28 107.2 26 115.7 2.3 7.6 12.199-7 12.699-13.101 0 0 25.701-102.2 101.301-135 3.8-51.699-12.301-173.3-7.801-189 0 0 19-63.6 50.9-61.699 31.9 1.899 205.2 17.1 268 66.3 11.801 16.2 28.1-8.7 31.6-11s136.4-85.2 215 14.8C1873.8 716 1878 714 1878 714z"/></svg>