<svg xmlns="http://www.w3.org/2000/svg" id="hair" viewBox="0 0 3000 3000"><path id="cl1" fill="#352E2B" d="M1780.891 490.858c9.601 6.2 18.4 13.399 26.701 21.2 0 2.199-1.103 4.6.397 6.5 7 8.699 12.802 18.699 21.399 25.699 6.9 5.698 13.201 11.101 17.802 19 2.101 3.698 5 8.398 10.601 8.801 4.1 5 6.899 10.6 9.301 16.5-.5 4.5 1.101 8.5 3 12.5 3.199 6.898 6 13.898 4 21.898-1.301 5.399-.603 10.801 3.101 15.102 9.399 10.8 10 24.5 12.5 37.6 1.799 9.5 2.399 19.301 5.799 28.4 1.201 17.3 1.5 34.6.899 51.8-.6 21-2 41.899-3.1 62.899-.5 9.698-1.101 19.301-3.802 28.601-.601 2.101-.698 4.7-3.5 6.2-1.698-3.5-1-7.2-1-10.602-.101-23.398-.601-46.601-6-69.5-10.601-44.801-32.799-82.199-70.799-108.898-19.201-13.4-40.701-22.7-62.601-30.801-46.899-17.302-95.5-26.302-145.399-29.699-59-4-117 4-175 13.3-25 4-49.7 9.8-74 16.8-26.899 7.801-51.399 20-72.899 38.2-34.899 29.601-45.899 68.7-31.601 112.5 4.399 13.399 11.5 25.5 18.699 37.399-2 5.601-6.399 4.5-10.3 3.398-16.899-4.898-34.399-4-51.5-5.898-10.7-1.199-21.399-.102-31.602 3.5-4.398 1.601-8 .898-11.898-.5-7.102-8.802-4.899-19.399-2.801-28.399 3.199-13.5.699-24.5-4.699-37.2-18-42.199-26.801-86.398-22.102-132.6 1.602-16.102 1.232-33.646 9.434-47.443 5.699-10.3 13.801-18.8 21.5-27.5 34.5-38.601 79.435-71.479 124.634-96.68 2.603-1.5 7.108-1.092 9.909-2.292 10.4 3.7 15.9-4 22.199-9.699 5.101-2.7 11.424-1.286 17.125-2.485 9.8 3.601 18.1-2.301 26.399-5.199 8.397-3 16.101-4.899 25-3.5 4.897.8 10.198.8 15-1 6.698-2.602 13.397-1.5 20.3-1.5 13.9-.102 27.601-5.602 41.801-1.399 2.301.699 4.899-1.898 7.199-3.2 5.301-3 10.7-4.5 17.101-3.8 8.2.8 16.801 1.899 24.7-2.101 1.4-.7 3.4-.802 4.601-.102 11.302 6.602 24.699 3 36.399 7.301 5.199 1.899 10.3 2.301 15.601.5 8-2.801 15.899-2.899 23.802.5 2.397 1 5 2 7.6 2.101 16.9.7 30.8 8.899 44.5 17.7 4.199 2.699 8.3 2 12.3-.102 7.802-4.3 15.399-3.601 22.802.801 8.1 4.699 16.898 7.101 25.801 9.5 10.399 2.801 20.1 7.801 29.199 13.301 9.801 5.898 20.301 10.8 29.6 17.601 4.497 3.296 10.198 4.497 15.898 4.997z"/><path id="sd1" fill="#3D3633" d="M1161.09 822.558c.102-.602.102-1.301.199-1.9 19.2-6.898 38.899-6.3 59-4.8 15.301 1.2 30.2 3.7 45.2 6.7 1.899 2.699.8 5.1-.801 7.398-13.699 20.102-18.101 43.301-21.8 66.602-4.801 30.897-6.301 62.1-7.102 93.3-.101 4.3-.301 8.6-.398 12.899-3.399 2.801-5.899.301-7.399-2-23.899-35-49.301-69.102-60.601-110.899-4.102-15.101-8.2-30.2-10.399-45.8-1.199-7.799-.798-15.101 4.101-21.5zm-21.166-245.443c-2.801 10.602.365 24.043-1.533 35.043-6 35.102-5.199 69.602 5.898 103.7 3.602 11.101 7.2 22.2 10.5 33.399 1.802 5.898 4.7 11 8.2 15.898 3.8 5.2 5 11.102 2.8 17-4.698 12.5-4.898 25.4-4.5 38.5.7.7 1.302 1.5 1.7 2.5-2.2 4.5-6.301 7.2-10.399 9.602-14.699 8.5-28.601 18.198-41.898 28.898-2.9 2.3-5.7 4.7-9.801 3.4-2.899-12-3.602-24.301-4.699-36.603-4.2-46.1-3.666-91.945 1.199-138.3 4.355-41.488 17.133-80.436 42.533-113.037zm21.166 245.443c1.5 39.898 12.602 77.1 30.801 112.5 10.101 19.5 21.699 38.1 33.801 56.3 2.801 4.2 5.5 8.3 9.6 11.3.5 4.102 2.102 8.3-.3 13-4-2-5.2-5.7-7-8.6-15.3-23.9-31.601-47-51.101-67.7-18.699-19.8-39.102-37.3-66.102-45.101-4.3-1.302-6.698-4.102-7.398-8.5-1.102-6.899-2.399-13.802-2.602-20.802 10-12.198 23.102-20.5 36.102-28.897 7.699-5.101 16.099-9.101 24.199-13.5z"/><path id="hl1" fill="#4A423D" d="M1780.891 490.858c-9.5 2.899-23.18 2.359-30.68-5.241-2.398-2.397-6-3.1-8.5-5-10.898-8.1-24.398-11.1-35.299-19.1-2.802-2.102-5.9-3-9.302-3.102-6.899-.101-13-2.101-18.698-5.898-9.9-6.602-19.4-7.2-29.4.7-7.399 5.8-8.699 5.2-13.399-3.4-2.5-4.6-5.899-6.897-11-7.2-3-.199-6.399-.199-8.399-2.6-4.5-5.5-10-7-16.799-6.5-4 .3-7.802-1.5-11.302-3.5-7.302-4.2-14.802-4.3-21.802-.102-6.799 4.102-12.698 4.5-19.299-.5-4.5-3.398-10.1-3.101-15.399-1.398-5.899 1.898-11 1.8-14.802-4.2-2.896-4.6-6.896-4.5-11.299-2.1-6.701 3.698-13.602 4.8-21.102 2.198-6.301-2.101-12-.101-16.601 4.302-6.399 6.1-12.899 7.5-20.7 2.5-4.601-2.9-9.699-2.4-14.199.3-6.801 4-13.699 4.7-21 1.6-3.601-1.5-7.199-1.199-10.601.603-6.7 3.6-13.5 3.6-20.2.6-8.3-3.8-16-2.8-23.8 1.601-4 2.302-8.5 3.899-12.899 5.399-4.899 1.601-12.828 1.774-16.828-2.426 31.699-10.9 67.429-16.173 100.527-19.774 54.5-6 108.9-5.1 163.4 1.7 63.5 8 124.824 24.16 178.324 59.46 3.005 2.099 8.157 8.877 11.058 11.078zm87.501 97.621c-1.603 3.5-8.181 7.238-6.681 10.638 3.899 8.603 3.801 17.103 1.5 26.2-1.799 7-.699 13.9 6 18.601 4.102 2.899 5.602 7.102 6.602 11.802 2.5 10.6 6.602 20.6 7.602 31.698.6 6.399 4.198 12.399 5.6 19 .199.899 6.88-1.736 7.679-2.339-.505-40.8-9.505-79.4-28.302-115.6zm-63.84-79.229c-3.802 3.601-9.64 11.468-5.239 15.468 7.199 6.6 12.699 14.198 18.102 22.1.698 1 2 1.8 3.299 2.2 8.701 2.898 14.5 8.8 19.103 16.6 2.799 4.7 11.577 8.441 17.979 6.441-13.405-22.799-33.546-45.309-53.244-62.809zm-492.322-65.107c-.802.5-2.653 1.195-3.554 1.396-6.2 1.899-11.065 5.078-16.467 8.681.5.897.9 1.8 1.5 2.6 5.4 7.5 9.103 7.603 14.201 0 2.6-3.8 5.892-9.735 8.09-13.834-.797.096-3.071 1.059-3.77 1.157zm19.981 83.674c4.3.7 5.399-3.3 6-6.5 1.199-6.1 4.899-8.1 10.699-7.7 2.399.2 4.801-.697 5.399-3.397.801-3.2-1.399-4.9-3.899-6.103-10.8-5.5-23.3 2-23.4 14.7.4 3.402.101 8.101 5.201 9zm143.4-12.201c-1.103 1.7-1.7 3.7-.5 5.603 1.199 1.897 3.199 2.699 5.101 2 6.101-2.2 11.601-1.7 16.899 2.199 1.9 1.398 4.5 1.5 6.4-.5 2.198-2.302 1.899-5 .198-7.302-3.698-5-8.898-7.8-15-8.397-5.498.298-9.998 1.897-13.098 6.397zm85.202 57c-1.398 2-1.898 4.302-.5 6.5 1.398 2.302 3.8 3 6.102 2 4.6-2.1 8.698-2.8 12.398 1.7 1.602 1.9 4.199 2.2 6.3.4 2-1.603 2.2-3.9 1.7-6.4-1.102-5.898-6.398-10-13.602-10.2-4.6.201-9.299 1.5-12.398 6zm119.099-69.397c-3 .699-6 2.1-5.802 5.699.201 3.698 3.201 5 6.399 4.698 5.601-.5 10.4.7 14.199 5.2 1.5 1.8 3.899 2.7 6.301 1.2 2.699-1.7 2.601-4.3 1.9-7-1.701-6.5-7.701-10.4-17.4-10.601-1.097.201-3.398.304-5.597.804zm51.401 52.098c-3.301.8-6.898 1.8-6.898 5.9 0 3.8 3.299 4.7 6.299 5 5.603.6 9.801 3.5 13.801 7.2 1.802 1.697 4.101 2.397 6.4.897 2.6-1.897 2.299-4.5 1.299-7.1-2.397-6.5-10.897-12.2-18.397-12.103-.504.005-1.504.005-2.504.206zm-111.702-25.5c-3.299 1.3-5.899 3.5-5.399 7.4.5 3.8 3.701 4.6 6.801 4.2 4.801-.5 8.199 2 11.699 4.5 2 1.5 4.399 1.6 6.399-.2s1.802-4.103 1-6.5c-1.899-5.603-9.101-10.4-16.601-10.3-.697.199-2.399.302-3.899.9zm-219.5 33c1.3-2.3.699-4.5-.5-6.6-2.5-4.103-6.5-5.5-11-5.3-4.7.197-9.301 1.197-12.103 5.5-2 3.1-.198 6.697 3.9 7 4.6.397 9.301-.2 13.301 1.6 2.802.5 5.104.202 6.402-2.2zm349.301 53.2c-2.201 1.1-3.9 2.8-3.601 5.5.299 2.8 2.299 4.1 4.897 4.1 4.701-.1 9.201.5 13.603 2.603 3 1.397 6.101.698 7.698-2.5 1.9-3.7-.301-6.302-3.301-8.302-3.5-2.301-7.397-2.801-11.5-2.801-2.696-.001-5.296.102-7.796 1.4zm68.199 14.401c-2.698-.699-5.399-1-7.101 1.698-1.801 2.7-.6 5.302 1.5 7.103 3.5 3 6.9 6.1 9.601 9.897 1.5 2.103 3.802 2.7 6.201 1.5 2.299-1.1 3.198-3.198 3.198-5.698.002-5.5-6.598-12.601-13.399-14.5zm-647.9 4.5c-4.301.5-7.5 2.698-8.5 7.101-.801 3.399-.301 6.7 2.699 8.899 3.7 2.698 6.899.5 10-1.399.6-.4 1.1-.7 1.7-1 3.199-1.9 6.601-4 4.897-8.5-1.397-4-5-4.9-7.5-5.101-1.896 0-2.597-.101-3.296 0zm68.3-13.699c2.399-2.7.602-6.5-3.198-7.7-5.802-1.7-14.4 3.8-15.302 9.7-.5 3.5 1.602 6 5.7 5.8 4.199-1.8 9.3-3.8 12.8-7.8zm-18.8-72.702c.102-4-3.898-7.4-8.7-7.5-5.101-.1-9.3 3.6-9.3 8.1 0 3.801 2.699 5.9 7.399 5.801 6.501 0 10.601-2.401 10.601-6.401z"/><path fill="none" stroke="#000" stroke-miterlimit="10" stroke-width="6" d="M1885.99 853.759s17.201-.5 10.701-157.899c0 0 5.198-122.7-122.201-213.3-76-46-188-85.301-373.299-62.7 0 0-174.991 10.166-279.092 181.768-47.979 71.473-23.654 232.326-21.311 288.232 1.399 5.3 10 4.3 10 4.3s63.7 16 120.7 118.5c13.3 25.802 5.602-7.5 4.8-11.198-.8-3.7 7-158.7 30.101-169.7 11.399-19.3-45.899-43-14.199-125.199 14.301-22.7 33.699-54.5 129.699-78.5 51.301-12 61.301-19.301 198-22.7 0 0 135.302 2.7 221.701 57.7 87 52 77.699 156.699 81.699 166.699.201 11.497 2.701 23.997 2.701 23.997h0z"/></svg>