<svg xmlns="http://www.w3.org/2000/svg" id="hair" viewBox="0 0 3000 3000"><path id="cl1" fill="#201816" d="M1509.748 988.214c1.998-7.261 5.8-13.701 9.199-20.347 19.699-39.056 39.299-78.111 59.1-117.167 3.199-6.441 5.5-13.087 7.199-20.04 7.4-31.08 14.9-62.264 22.301-93.345 4.199-17.688 4.101-35.784 4.8-53.881.102-3.067-.3-6.44-3.8-7.565-3.6-1.227-5.6 1.636-7.1 4.191-3.5 5.828-6.801 11.757-10.102 17.585-17.199 30.672-31 62.468-36.1 97.844-1.8 12.78-4.8 25.457-7.4 38.136-.6 2.861-.398 6.134-3.1 8.485-2.5-2.862-2.4-6.44-2.9-9.713-2.799-17.483-5.398-34.966-8.299-52.449-.801-4.601-.601-10.429-5.801-12.167-6-2.044-8.9 3.681-12 7.362-16.801 19.324-33.4 38.953-50.1 58.378-2.602 2.965-4.801 6.544-9.4 8.589-.6-3.68 1.601-5.93 3-8.28 12.199-21.471 24.6-42.941 36.799-64.411 1.5-2.659 3.103-5.317 3.802-8.282 1.198-4.907-2.4-7.975-7.101-6.134-2.699 1.125-5.199 2.965-7.699 4.704-48.102 34.25-96.2 68.603-144.301 102.955-5.399 3.886-11 7.565-17.1 11.757-.602-3.782 1.6-5.112 3-6.747 32.398-39.363 64.898-78.623 97.299-117.986 3-3.68 5.9-7.359 8.701-11.246 1.6-2.249 3-4.908.699-7.463-2.6-2.964-5.5-1.636-8.1.104-1.4.92-2.701 2.045-3.9 3.169-19.301 18.302-38.5 36.704-57.9 54.801-19.9 18.608-40.1 36.909-60.199 55.313-1.201 1.124-2.4 2.557-4.601 1.533-1.101-3.783 1-7.157 2.101-10.633 5.1-16.563 10.399-33.126 15.399-49.688 1.101-3.578 1.8-7.26 2.199-10.939.301-2.454-.699-4.704-3.3-5.727-2.101-.92-4.101-.203-5.5 1.228a96.164 96.164 0 0 0-7.301 8.384c-14.699 18.098-29.3 36.193-44 54.289-2.1 2.557-4.1 5.317-7.199 6.953-2.101-2.863 0-4.805.8-6.749 5.7-13.802 11.7-27.502 17.301-41.304 1.601-3.887 4.086-8.409-.813-11.373-5-2.965-7.086 1.863-9.687 5.136-30.301 37.522-70.012 100.136-77.11 108.826-1.41 1.711 7.857 63.251 9.778 71.046.288 1.167 32.175-7.416 36.093-1.432 2.713 4.144-24.925 13.997-26.127 14.296-3.359.833-7.209 9.374 1.332 10.691 2.705.417 20.727-9.952 21.553-7.325.701 2.228-22.315 15.119-21.658 17.235.441 1.42 2.951 1.159 2.951 1.159.4 1.356 22.129-1.164 22.511.211.312 1.117-20.371 12.561-20.088 13.651 1.938 7.452 23.782 70.975 22.043 70.906-44.207-1.732-81.065-160.796-84.425-168.486-3.101-7.157-43.076-19.4-44.477-27.17-2.984-9.447-.477-10.062-2.777-19.364-4-20.244-6.199-40.691-8.1-61.243-2.601-28.218.6-56.231 5.301-83.938 11-64.514 35.898-123.098 74.799-175.239 11.101-14.927 26.601-24.538 40.601-35.989 4.5-3.68 8.5-1.226 9.601 4.807.7 4.191-.8 8.076-1.899 11.961-9.601 32.207-18.601 64.719-28.101 97.026-1 3.271-1.8 6.543-2.699 9.815-.601 2.556-2.2 5.521.6 7.463 2.2 1.533 4.5-.103 6.602-1.228 10.1-5.214 20.299-10.224 30.299-15.745 47.5-26.379 96.101-50.711 144.3-75.657 5.7-2.966 11.7-5.112 17.301-8.384 2.399-1.433 6.801-3.17 9.801.612 2.5 3.17 1 6.136-.801 8.997-18.699 31.389-35.199 64.208-57.7 93.039-1.199 1.534-2.1 3.271-2.699 4.908.199-.104.101 0 .101-.205 21.1-33.023 46.1-62.776 70.799-92.834 10.701-12.984 20.601-26.686 31.101-37.42-18.5 10.633-40.101 19.017-61.199 28.422-20.699 9.305-40.601 20.245-61.301 29.548-27.1 12.269-54 25.049-80.898 37.829-5.2 2.454-11.4 6.85-16.602 1.738-4.898-4.807-1-10.94 1.102-16.154 16.1-39.67 31.398-79.543 45.8-119.928 2.601-7.464 7.899-11.45 14.399-14.62 29.301-14.314 59.801-24.946 90.9-33.944 56.199-16.255 113.6-24.333 171.801-20.754 93.899 5.828 178.1 37.624 248.899 102.751 69.897 64.31 109.699 145.079 124.699 239.345 2.1 13.394 2.198 26.991 2.6 40.59-4.299 11.654-8.5 23.312-12.799 34.966-2.603-14.313-8.801-26.377-15.5-38.032a1779.615 1779.615 0 0 0-17.399-29.854c-1.9-3.17-4.101-6.75-8.4-6.135-4.4.613-5.4 4.703-6.301 8.281-4.199 15.746-8.199 31.593-12.299 47.44-.802 3.169-1 6.646-4.201 10.429-1.101-13.496-.799-25.663.201-37.727 1.6-19.017.799-38.136 1-57.152.1-5.828-2.302-10.531-6.4-14.416-11.9-11.451-23.699-23.004-35.6-34.455-1.4-1.432-3.101-2.658-4.9-3.477-4-1.841-7.301 0-8.301 4.396-.799 3.374 0 6.748.5 10.121 5.801 42.123 11.5 84.348 17.301 126.471.301 2.353 1.199 4.602-.1 8.078-3.5-3.885-4.601-8.384-6.302-12.474-14.801-36.091-29.6-72.284-44.399-108.375-.9-2.25-1.799-4.396-2.799-6.544-1.4-2.762-2.802-5.726-6.603-5.112-3.601.614-4.397 3.885-5 6.85-.699 2.966-1.101 6.033-1.5 9.101-3.397 28.013-6.799 56.026-10.299 85.268-2.4-3.271-1.701-5.93-1.802-8.281-.6-18.402-1.1-36.705-1.799-55.106-.201-4.293.699-10.122-4.801-11.042-5.699-1.022-6.4 5.01-7.801 8.997-10.898 32.614-22.6 64.819-35.799 96.515-21.301 51.12-21.801 53.778-68.301 93.243-27.4 23.311-56.699 44.065-86.199 64.718-3.6 2.349-7.1 5.007-11.3 6.235zm-428.545 80.202s27.594 42.451 31.406 41.075-79.496 96.114-191.99 118.613c121.495-104.994 160.584-159.688 160.584-159.688zm-18.755-672.685c-14.601 25.764-15.5 17.073-.4 46.521 18.4 35.886 37.301 71.465 56 107.146 2.5 4.805 4.9 9.712 5.4 15.233 6.6-8.997 12.801-18.3 20-26.786 5.301-6.237 6.1-11.86 3.1-19.426-9.6-24.334-18.6-48.871-27.799-73.409-11.101-29.548-22.101-59.196-33.201-88.744-7.701 13.189-15.6 26.174-23.1 39.465zm787.298 169.207c16.201 12.984 32.701 25.354 50.201 36.499-2.301-4.09-5-8.077-6.701-12.473-1.698-4.397 1.5-7.465 5.9-6.033 3.6 1.125 6.301 3.681 9.199 5.93 19 14.927 37.701 30.059 57 44.577 12.4 9.304 24.102 19.324 34.4 30.876 21.6 24.026 43.5 47.747 64.2 72.489 3 3.579 5.898 7.362 9.898 10.02l-.101.103c-.5-4.498-2.301-8.485-4.1-12.473-4.101-9.305-8-18.711-12.201-27.912-11.199-25.355-22.5-50.711-33.799-76.066-1.201 2.146-3.1 2.556-5.1 1.534a118.568 118.568 0 0 1-7.9-4.294c-46.5-26.992-93-53.881-139.5-80.872-4.301-2.454-8.5-5.419-13.5-6.442l.1-.102c6.6 10.326 17 17.791 21.9 30.672-11.095.102-19.995-5.93-29.896-6.033zm-749.498 10.224c-20.101-11.758-40.101-23.72-60.4-35.171-13.301-7.565-25.8-16.665-40.199-22.084l.1-.103c2.2 2.556 4.2 5.315 6.5 7.668 27.9 28.627 55.9 57.356 83.9 85.882 2.301 2.351 5 4.396 7.6 6.646 5.4-12.269 10.7-24.435 16.101-36.703-4.803-1.329-9.202-3.578-13.602-6.135zm841.8-89.767c27.799 1.432 54.799 6.543 80.5 17.688a1996.361 1996.361 0 0 0 34.1 14.416c2.302.92 4.4 2.657 9.4 1.737-21.4-14.007-41.302-26.992-61.101-39.977-4.801 2.761-9.701 1.33-14.602.716-37.6-4.602-75.299-9.303-113.299-9.201-16.5.104-32.301 3.885-47.6 9.917 37.602-.204 75.102 2.863 112.602 4.704z"/><path id="hl1" fill="#514035" d="M1917.448 795.593c-3.102-5.112-3.102-11.042-3.801-16.769-8.301-68.296-29.199-131.992-67.199-189.349-46.4-70.035-109.301-118.496-186.9-146.816-57.6-21.062-117-28.116-178-23.414-66.101 5.011-129.299 21.982-190.2 48.257-.3.104-.601.308-.899.41-13.4 4.295-20.8 13.188-25.5 27.195-12 35.682-26.199 70.649-40.3 105.614-1.601 3.886-5.7 8.895-2.5 12.167 3.899 4.089 8.6-.921 12.6-2.762 67.3-31.388 134.5-62.979 201.7-94.367 3.801-1.738 7.5-4.09 12.301-4.294-.5 4.396-3.201 6.646-5.301 9.1-37.199 45.905-74.4 91.812-111.6 137.615-1.899 2.352-4 4.499-6.101 6.749l.101.102c1.199-5.01 4-9.303 6.601-13.699 18.099-31.082 36.199-62.06 54.199-93.039 1.7-2.863 4.102-5.418 4.102-9.61-4-.818-7 1.635-10.102 3.271-34.8 17.994-69.599 35.887-104.3 54.084-30.199 15.95-60.199 32.206-90.399 48.258-2.3 1.228-4.399 3.17-7.899 1.738-1.199-3.988.7-7.771 1.801-11.553 10.8-37.932 21.8-75.862 32.6-113.691 1.102-3.782 3-7.463 1.9-11.654-1.2 0-2.101-.308-2.5 0-12.601 10.529-26.801 18.914-36.9 32.41-42.6 56.742-67.8 120.744-77.199 191.394-5 38.034-4.4 76.065.801 114.1.6 4.089.899 8.077 1.3 12.167.301 2.352 2.601 5.418-2 6.135-7.899-27.196-11.899-55.211-14.101-83.326-4.199-53.779.5-106.739 14.4-158.883 1-3.68 1.8-7.259 1.199-11.041-.6-.818-1.301-1.534-1.5-2.455-.1-.512-.199-1.125-.301-1.636-2.6-12.167 4.9-29.343 16.101-36.705.601-.715 1.2-1.534 1.899-2.146 2.101-3.988 4.2-7.975 6.2-11.962.399-.92 1.101-1.636 1.5-2.453v-.103c1.601-11.248 7.399-20.143 14.199-28.729 5.301-6.646 4.399-13.803 1.7-21.164-7.6-20.652-15.399-41.203-23.2-61.753-9.601-25.355-19.199-50.609-28.899-75.861-2.601-6.953-3.899-13.701-1.699-20.856 9.1-15.746 18.199-31.49 27.6-47.747 4.801 4.191 4.9 8.793 6 12.883 16.301 59.3 32.5 118.701 48.801 178 1.199 4.294 2.199 8.589 3.801 12.678 2.199 5.418 5.5 6.338 10.3 2.863 3.301-2.352 6.101-5.215 9.2-7.873 55.1-46.826 116.3-81.792 186.399-98.866 51.101-12.371 103.3-15.848 155.8-15.541 31.4.205 62.601 2.25 93.4 8.282 10.5 2.045 20.699 5.214 30.6 9.406 31.801 13.291 62.9 27.911 93.5 43.859 6.201 3.272 12.301 4.192 19.201 3.478 50.398-5.215 100.799-10.224 151.398-11.349 3-.103 6 .103 9-.103 14.5-.92 27.5 2.965 39.602 11.247 11.398 7.77 23.299 14.62 35 21.88 2.6 5.009-.801 5.931-4.301 6.441-4.6.716-9.301.102-13.9-.614-33.6-4.804-67.399-7.668-101.301-9.099-18.799-.818-37.5 1.329-56 4.702-.6.104-1.1.308-1.699.512-4.699 2.556-6.899 9.508-12.801 8.179-2.299.307.201 1.432-.699.409-.301-.409-.1-.614.5-.716 9.101-1.228 16.199 6.134 24.9 6.134 44.1 19.119 88.301 37.829 130.6 60.935 2.101 1.125 4 2.352 6.101 3.374 13.399 6.749 22.801 16.974 28.7 31.082 5.601 13.394 12.3 26.378 18.398 39.567 0 9.202-1 10.224-7.799 6.339-45.6-26.071-91.201-52.143-136.301-79.032-5-2.965-9.1-7.055-13.199-10.838.199.104 0-.102.1.104 6.699 6.031 13.699 11.553 17.601 19.937 1.2 2.658 2.801 5.214.6 8.18-2.198 2.76-5.198 2.965-8.198 2.045-5-1.533-9.802-3.887-14.4-6.135.1.103.1-.103.1.103 16.301 5.418 26.301 18.709 37.602 30.364 2.898 3.272 6.101 6.34 8.699 9.815 10.601 14.007 20.699 28.422 30.699 42.839 15.301 22.188 26.701 46.213 34.5 72.284 6.701 22.493 12.701 45.188 18.102 68.091.898 3.988 1.699 7.975 1.5 12.167-.899 24.128-1.7 48.359-2.602 72.488-.1 2.965 0 6.033-1.898 9.61-2.399-3.477-2.801-6.85-3.602-10.121-7.6-32.513-15.299-64.922-22.898-97.436-1.2-5.01-2.602-9.814-4.602-14.519-11.199-26.276-22.299-52.449-33.5-78.726-.898-2.146-1.898-4.396-3-6.44-1.199-2.146-2.898-3.886-5.699-3.067-2.6.818-3.699 3.067-3.699 5.521 0 3.374.3 6.748.8 10.121 3.399 25.662 7.2 51.223 7.5 77.19.488 8.384.388 16.563-2.41 24.437zm-293.101 65.739c49.801-57.97 82.7-124.938 100.899-199.572 4.701-19.426 4.601-38.137-.699-57.356-8.899-31.796-19.399-63.083-30.7-94.061-.898-2.352-1.101-5.317-3.898-6.544-1.602.92-1.399 2.353-1.301 3.681 1.399 17.075-.101 34.046-.5 51.018-1.101 44.066-5.301 87.724-12.899 131.072-8.3 47.746-20.699 94.367-40.9 138.535-7.199 15.746-15.699 30.672-24 46.111 5.798-3.17 9.897-8.079 13.998-12.884zm-543.89 211.642l15.25 19.207s-114.406 102.682-165.166 131.957c115.297-110.67 149.916-151.164 149.916-151.164z"/><path fill="none" stroke="#000" stroke-miterlimit="10" stroke-width="6" d="M2066.048 519.34c-.302-4.498-80.802-53.574-110.5-69.42 0 0-15.802-8.181-175.302 4.089-27.5 3.579-21.299-.819-45.5-9.714-32.698-11.961-100-61.854-250.5-52.143 0 0-162.5-9.202-300.5 117.577-16 14.313-15.699-9.816-16.8-14.11-1.101-4.293-53.2-188.837-53.2-191.904 0-3.066-64 107.761-64 107.761s-3.899-.408 5.601 17.892c9.5 18.301 67.899 130.767 67.899 133.322s-6 25.968-19.8 12.985c0 0-99-62.163-105-60.63-4.8 5.623 65.2 69.32 95.3 103.264 0 0 6.801 2.556 3.301 13.599-3.5 11.042-16.301 64.922-16.801 101.218-1.699 46.009 8.5 128.823 24.5 165.629 0 0 35.889 9.06 40.112 21.203 4.142 11.905 47.577 174.968 85.065 164.782 2.296-.624-17.096-58.649-22.449-69.919-1.125-2.368 22.279-12.435 21.047-14.976-1.199-2.473-23.059.904-24.285-1.635-1.012-2.096 27.334-16.026 26.35-18.11-.942-1.996-31.105 9.277-31.987 7.34-.455-1.001-.935-8.28-1.365-9.256-.495-1.121 31.982-10.052 30.173-14.271-1.078-2.517-33.318 3.597-34.107 1.392-2.113-5.911-12.933-69.007-11.764-71.005 10.7-18.301 78.512-110.769 78.512-110.769s13.699-6.952 6.199 10.224c-7.5 17.177-17.3 43.248-17.3 46.52s56.399-60.016 59.5-65.74c3.101-5.726 10.5-5.931 5.5 10.735-3.3 12.78-15.8 57.663-15.8 57.663s-2.102 11.757 12.8-3.682c14.899-15.438 110.3-104.898 110.3-104.898s18.199-9.303 7.699 6.236c-10.5 15.541-106.2 126.982-107.7 132.401s3.101.92 9.9-3.783c6.8-4.704 9.6-6.646 9.6-6.646l148.3-103.364s13.5-9.202 7 6.134-42 72.387-42 74.432 2.801 5.624 11.5-3.374c8.701-8.998 53.8-63.187 53.8-63.187s9.301-12.472 12.899 4.602c3.601 17.073 9.101 63.185 10.801 65.944 1.699 2.761 8.4-8.997 8-16.357-.399-7.36 18.302-110.215 49-141.909 4.4-9.202 10.5-11.247 10.5 2.045 4.302 26.071-19.698 126.267-25.198 142.932-5.5 16.666-77.802 157.758-77.802 157.758s62-38.137 65.8-41.204c3.801-3.067 70.5-53.982 73.801-62.775 3.302-8.793 31.302-50.404 33.302-67.172 2.198-10.531 30.899-90.584 31.899-92.937 1-2.352 8.299-9.61 10.101 3.682 1.799 13.291 2.198 55.516 4.299 63.9 2.102 8.383 10.602-81.896 11.301-86.599.699-4.704 5.301-25.765 12.4-9.1s49.6 121.358 52.299 126.165c2.701 4.806 2.399-11.246 2.701-17.381.299-6.135-16.4-110.011-16.4-114.101s-3.9-21.062 12.4-10.327c16.299 10.735 30 31.081 34.897 37.317 4.899 6.237 3 12.576 2.301 19.426 2.9 14.62-.698 82.099 1 88.644 1.699 6.543 20.699-56.744 19.699-61.038s7-8.896 10.301-2.046c0 0 34.302 56.232 33.302 69.218-1 12.984 19.299-36.808 19.299-55.517 0-18.71-7.299-89.664-7.299-89.664s-1.302-16.358 9.799 2.556c8.801 16.153 37.801 92.937 37.801 92.937s20.301 110.419 24.699 109.397c4.399-1.022 8-87.926 8-87.926s-21-93.755-40.699-131.175c-8-12.575-59-80.463-59-80.463s-3-12.576 7.699-3.783c11 5.317 100.5 68.707 170.5 160.723 12.301 16.357-66.4-161.848-70.4-167.981 0 0-10-22.799-107-60.935-37.799-16.665-73.799-30.059-73.799-30.059s5.5-7.157 10.1-8.18c4.6-1.021 133.9 5.317 145.801 7.873 11.897 2.553 87.998 34.146 87.598 29.648h0zM920.619 1228.104c112.495-22.499 195.803-119.989 191.99-118.613s-31.406-41.075-31.406-41.075-39.089 54.694-160.584 159.688z"/></svg>