<svg xmlns="http://www.w3.org/2000/svg" id="hair" viewBox="0 0 3000 3000"><path id="hl1" fill="#EEF2F5" d="M1927.09 470.537c-27-2.5-53.799-1.197-80.299 4.9-3.201.7-6.603.7-9.899 1.3-3.2.603-7.302.5-7.899 4.7-.601 4.4 3.399 5.3 6.399 6.4 12.601 4.3 25.101 8.897 37.8 12.6 22 6.3 44.301 11.9 66.399 18.1 17.601 5 34.899 10.803 51.601 18.5 1.602.803 3.899.9 5 4-7.5.4-14.699 1-21.898 1.103-16.102.397-31.7 3.6-47.102 8.1-.601.2-1.3.2-1.898.5-2.7 1.102-6.2 1.9-6.102 5.602.102 4.301 3.7 5.198 7 5.698 13.801 2.103 27.5 4.9 41 8.4 12.102 3.2 24.301 6.3 37.102 12.6-10.301 3.4-19.602 5.302-28.2 9.103-6.101 2.8-12.199 5.397-17.699 9.1-2.801 1.8-5.5 3.8-7.801 6.2-5.4 5.5-4.601 9.1 2.6 11.5 6.302 2.1 12.802 3.6 19.201 5.398 5.399 1.5 10.699 3 17.699 5-9.101 4.102-16.802 7.602-24.601 11.102-4.399 2.3-8.301.8-12.301-1.2-39.8-19.5-79.101-39.898-107.3-76.2.698 9.7 4.101 18.2 8.601 26.2 9.799 17.5 22 33.2 36 47.602 3.6 3.698 8.399 6.698 9.5 12.5-.201 1-.701 1.698-1.701 2.101-2 .6-4.1.2-5.799-.7-35.301-18.2-69.801-37.6-98.201-69 12.4 23.7 20.9 47.3 34 68.602 3.9 6.398 9.603 11 14.301 16.698 1.601 2 4.101 4.302 2.302 7-1.802 2.7-4.899 1.302-7.302.4-19.198-7.101-36.301-18.2-54.301-27.601-38.699-20.102-72.5-47.199-105.699-75.102-2.801-2.3-5.301-5-9.899-6.6 8.399 32.6 17.802 64 38.399 90.698 1 1.302 2.199 2.5 3.199 3.899 1.4 1.9 3.4 4.101 1.9 6.3-2 2.801-4.9 1.103-7.199-.1-6.5-3.6-11.801-8.7-17.199-13.7-16.801-15.6-33.701-31.399-47.301-51.2 4.699 24.301 11.1 47.103 26 66.603 1.801 2.3 4.301 5.397 2 8.1-2.699 3.101-6.301.601-9.101-.899-17.601-9.801-32.2-23.601-46.802-37.301-11.698-10.897-22.6-22.6-34.1-33.8-2.101-2-4.5-5.399-7.5-3.6-3 1.698-1.199 5.5-.802 8.3 2.201 15.3 6.802 29.8 13.899 43.6 1.4 2.7 4.699 6.103 1 8.801-3 2.199-6.6-.101-9-2.398-12.301-11.2-24.301-22.8-35.198-35.4-5.701-6.5-11.201-13.1-17.201-21.5-1.601 20.102.103 38.302 3.201 56.5.799 4.7 4.399 11.5-.899 13.7-5.9 2.5-8.302-5-11.302-9-4.299-5.898-8-12.3-11.899-18.5-6-9.398-9.397-9.398-16.101-.2-4.899 6.802-8.601 14.2-10.899 22.302-.601 2.198-1 4.601-1.799 6.8-1.4 4.2-1.302 10.898-6.802 10.7-4.698-.102-4.698-6.5-5.601-10.602-1.899-8.5-3.198-17-5.301-25.398-2.299-9-4.6-9.602-12.199-4-11.698 8.5-21.301 19-30.1 30.398-2.701 3.5-5.4 8.8-11 6.4-5-2.103-5-7.5-5.101-12.2-.302-14.3-.603-28.602 2.3-44.9-11.601 6.5-18.9 15-27.5 21.802-9.9 7.8-18.9 16.898-28.8 24.698-2.7 2.102-5.399 6.2-9.302 3.602-3.398-2.199-2.698-6.602-2.198-10.199 1.397-9.601 2.897-19.101 4.8-28.601 3.7-19.302 6.6-38.802 9.899-58.102.5-3.2 1.801-6.5-.899-10-9.3 4.602-16.9 11.7-24.699 18.2-21.199 17.7-43.601 34-64.699 51.898-2.801 2.399-6.102 5.5-9.7 3.302-3.8-2.302-1.8-6.603-.8-10.103 4.601-15.698 7.601-31.698 9.601-49.198-11.101 7.101-19.899 15.698-28.5 24-26.5 25.5-57.601 44-89.899 60.801a29.392 29.392 0 0 1-5.601 2.1c-2.5.7-5.301 2.2-7.5-.2-2.101-2.198-1.399-5.1-.399-7.6 7.101-18 13.399-36.2 20.399-55-14.399 9.1-28.701 17.8-43.399 25.8-29.399 16-59.699 29.5-92.601 36.5-3.601.8-8.601 3.8-9.899-3.3 12.7-14.8 25.301-29.7 38.2-44.4 4.399-5 9.601-9.1 15-13 2.5-1.8 4.899-4 2.899-7.398-1.801-3.102-4.899-3.102-7.899-2.3-14.301 4-28.7 8-43 12.198-8.301 2.4-16.399 5.102-24.601 7.7-2.301.5-3-.6-2.602-2.7 15.301-16.198 30.602-32.5 46.801-47.8 6.5-6.2 13.699-11.6 21.5-16.2 7.301-4.3 14.898-7.3 23.398-8.1 3.301-.3 6.602-.9 9.801-1.9 2.301-.698 4-2.6 3.699-5.3-.199-2.1-1.699-3.6-3.8-4.2-2.2-.6-4.5-1.198-6.7-1.8-33.5-9.6-60.3-28.7-81.5-58.898 23.4 3.398 45.301 4.898 67.4 4.398 21.898-.5 43.899.8 66-8.8-30.799-32.601-53.2-69.4-70.601-111.102 3.802.5 5.699 2.199 7.699 3.602 12.301 8 24.399 16.2 36.801 24.1 9.302 5.9 19.5 10 30.101 13.2 3.399 1 7.201 3.5 10.301.3 3.299-3.397-.1-6.8-1.5-9.897-2.801-6-5.899-11.9-8.801-17.801 2.201-2.5 4.6-1.302 6.6-.899 22.701 3.6 45.302 7.399 68 11 4.104.6 9.104 3.1 12.104-1.2 3.6-5.2-1.802-8.5-4.302-11.898-11.302-15.199-22.899-30.199-34.399-45.302 2.699-2 4.699-.3 6.801.4 18.699 6 37.4 12.1 56 18.1 1.9.603 3.8 1.4 5.699 1.802 6.399 1.5 9-.899 7.101-7.399-1.5-5.399-3.899-10.6-5.8-15.899-.603-2.101.3-2.601 2.199-2.198l38.301 36.499c9.699 9.199 10.8 9 18.897-2.102 15.603-21.398 26.802-45 34.701-70.3.698-.899 1.5-.899 2.198 0 3.302 22.1 3.5 44.5 5.9 66.7.5 5 .698 10 1.5 14.897 1.1 7.2 5 8.603 11.1 4.103 4.802-3.603 9.302-7.603 13.701-11.603 30.799-27.6 64.199-51.897 98.799-74.6 4.4-2.899 8.802-5.8 13.9-7.7 1.5 3.2-.802 5.301-1.802 7.5-5.897 13-12.1 25.9-18.1 38.9-1.601 3.3-3.199 6.6-4.601 10-1.199 2.897-1.5 5.897.899 8.397 2.198 2.302 4.899 1.7 7.399.802a725.494 725.494 0 0 0 20.5-7.802c31.5-12.6 63-25.3 94.5-37.897 1.5-.602 3.101-1 5.5-1.8-.103 8-3.5 14.397-6 21-1.399 3.8-6 7.8-2.103 11.8 4.4 4.6 8.701 0 12.4-2.2 19.1-10.9 38-22 56.899-33.2 7.101-4.199 13.899-9 21.301-15.897-.301 11.8-2.801 21.5-4.6 31.397-1.302 6.9-2.9 13.7-4.4 20.5-1 4.9-1.2 10-.2 14.9 1.2 6 4.603 7.897 10.103 5.6 3.299-1.398 6.397-3.5 9.5-5.398 19-11.802 38.5-22.602 59.698-29.899 13.199-4.6 26.699-6.8 41-5.7-.5 1.2-.601 2-1.101 2.2-22.399 11.5-40.801 28.7-61.5 42.7-2.801 1.897-5.801 3.897-4.301 7.897 1.199 3.4 4.399 3.7 7.5 3.9 10.601.5 21.301.2 31.899 1.8 25 3.8 49.302 11 74.198 15.8 8.802 1.7 17.602 3.5 26.4 5.302 1.1 1.5 5.199-.102 4 3.8-10.699 2.601-21.801 2.101-32.699 3.5-16.5 2.101-31.201 8.7-45.899 15.7-2.601 1.198-4.899 2.898-4.302 6 .701 3.3 3.4 4.698 6.701 4.898 13.299.899 26.5 2.399 39.799 2.8 26.802.802 53.102-1.898 78-12.8 3.302-1.5 6.701-2.898 10-4.398 2.102-.399 3 .5 2.602 2.601-7.5 8.2-16.602 14.2-26.102 19.601-7.6 4.301-15.698 7-24.698 6.5-3.899-.199-7.899.301-11.899.801-2.101.3-3.699 1.699-3.801 3.898-.102 2.2.898 4.102 2.898 4.8 2.802 1 5.701 1.5 8.602 2.102 17.898 3.7 35.5 8.102 52.398 15.301 7.9 3.399 15.5 7.399 22.5 12.601-1.282 4.682-4.485 2.382-7.084 1.981z"/><path id="cl1" fill="#D3E0E6" d="M1899.392 650.34c-4.101-6.2-10.101-10.5-14.899-16-14.699-16.7-28.5-34-37.4-54.7-2.399-5.5-3.399-11.4-5.1-17.103-.5-1.8-1.101-4.197 1.301-5.1 2.299-.8 3.799 1.2 4.699 2.8 5.199 8.3 13.1 14.103 19.5 21.2 12.6 14 28.6 23.6 44.5 33.1 14 8.4 28.699 15.4 43.199 22.7 3.301 1.7 6.602 3.2 10.398 3.103-4.5 2.8-9.1 5.397-13.299 8.5-4.5 3.397-4.603 7.397.299 10.5 13.802 8.8 23.701 21.197 33.602 33.897 3.898 5 7.898 9.9 11.898 14.8.201 2-.6 3-2.698 2.603-13.2-1.9-25.802-6.2-38.302-10.603-4.1-1.397-8.198-2.697-12.398-3.697-2.898-.7-6.102-.9-8 2.197-2 3.303.102 5.603 2 8 3.102 3.9 6.5 7.603 9.398 11.603 11.9 16.397 22.602 33.6 32 51.6.4 2.2-.5 3-2.6 2.7-7.302-3.6-14.199-8-22.5-9.3-4.601-.7-9.101-.3-13.601.7-4.802 1-6.701 3.697-5.701 8.5-5.897 1-8.101-3.803-10.799-7.303-12.701-16.6-25.399-33.197-37.899-51.1 1.5 12.3 2.801 23.8 4.698 35.3.399 2.3.701 4.603.603 7-.103 3.603.799 8.5-3.103 9.8-4.101 1.4-6.101-3.3-7.799-6.397-6.399-11.3-11.802-23.103-17.701-34.7-5.397-10.7-11.698-20.7-19.198-29.9-4.101 1.5-3.601 4.5-3.9 7-1.299 8.9-2.299 17.802-4 26.7-.799 4.5-.398 10.5-5.898 11.602-5.3 1.101-7.699-4.302-10.602-7.802-7.198-8.8-14.198-17.698-21.1-26.698-7-9.199-7.699-9.102-13.9.101-5.6 8.3-11.1 16.6-16.698 24.899-8.802 13.198-11.101 13.101-18.101-.699-3.801-7.4-7.603-14.801-11-23.7-6.603 9.8-9.301 20.1-14.201 29.3-1.299 2.3-1.898 5-3.198 7.3-4.302 8-8.399 8.7-14.5 2.2-9.601-10.2-17.5-21.8-26.2-32.7-2.3-2.8-3.898-6.198-7.398-8.5-3.399 1.802-3.5 5.4-4.301 8.4-3.5 13.6-8.801 26.6-12.399 40.1-1 3.802-1.8 8.9-6.199 9.5-4.801.7-6-4.6-7.601-8-10.399-22.3-21.102-44.6-31.399-67-.899-2-1.399-4.397-4-6.397-14.101 18-27.5 36.199-40.5 54.6-7.301 10.4-15.201 20.3-22.601 30.602-1.7 2.3-3.602 5.5-7.102 4.101-2.8-1.101-2.898-4.4-2.898-7a1684.646 1684.646 0 0 1-.102-50.101c-13 20.198-28.101 41.101-45.5 60.398-2.398 2.602-5.199 6.3-9.101 4.8-4-1.6-3.699-6.3-3.3-9.698 2.199-17.302.699-34.5-.103-51.7-.198-5 .103-10-1.698-15.899-4.699 2.8-8.699 6-12.302 9.602-23.1 23-48.299 43.898-71.299 67.101-22 22.3-48 37.8-77.101 48.699-2.2.801-4.602 2.301-6.5.101-2.102-2.398-.7-5.2.5-7.398 5.398-10 11.5-19.5 17-29.399 8.199-14.899 16.101-29.899 22.101-45.899 1.199-3.3 3.299-6.5 2.699-11-10 4.301-18.199 11.2-27.8 15.601-13.301 6-17.301 3.7-17.7-11.3-.3-10.899.301-21.899-.4-33.801-6.897 2.601-11.198 7.801-16.1 11.7-13.8 11-27.199 22.5-41.101 33.398-1.801 1.398-3.601 3-5.699 4-2.5 1.301-5.301 4-8.102 1.398-2.101-2-.601-5 .2-7.6 4.8-15.2 11.8-29.7 15.5-45.301 3.698-12.399 11-23.399 14.198-36-8 6-9.299 16.398-16.1 23-29.699 38.801-66 71.398-100.302 105.7-8.897 8.898-18.601 17.101-27.698 26-2.802 2.8-5.802 5.601-10.199 5.8-1.603-.399-2.399-1.5-2.701-3 2.9-11.8 12.102-20.5 16.302-31.699 1.802-4.801 4.698-9.301 5.5-16.5-14.601 11-27.899 20.8-42.3 28.8-4.4 2.5-9.601 7.8-14.2 3.102-4.198-4.302 1.399-9.102 3.603-13.302 6.197-12 12.5-24 17.5-37.5-19 4.7-36.4 11.102-54.5 15.4-4.5 1.1-8.9 2.8-13.701 1.899-2.199-.602-3.699-1.802-4.199-4.102-.2-5.601 3.601-9 6.699-12.898 7.301-9 14.5-18 20.101-29.802-36.601.302-72.699 7.4-107.699-5.1-7.698-2.4-14.198-6.9-21.301-11.4 1.899-2.6 4.399-1.398 6.399-1.398 16.601-.102 33.201.101 49.701-2.899 14.6-2.601 28-8.101 40.6-15.8 8.8-5.4 17-11.7 26.3-16.2 2.802-1.3 5.899-2.8 4.899-6.398-1.1-4.2-4.699-3.899-8.199-3.2-12.7 2.7-25.398 5.398-38 8-3.1.7-6.2 1.801-10.5.5 2.8-3.102 4.8-5.898 8-7.8 1.9 2.698 4.5 2.398 7.2 1.698 18.399-4.5 36.399-10.398 53.899-17.8 30.1-12.7 58.199-29.2 85.699-46.8 1.102-.7 2.4-1.101 4.602-2.101-8.602 22.898-16.9 44.8-25.5 67.698 5.197 0 9.197-1.898 12.697-3.898 25-13.699 50.5-26.8 72.104-46 14.896-13.199 30-26.102 45.1-39.199 1.5-1.301 2.602-3.2 5.5-2.2-3.2 21.102-5.898 42.3-12.5 63.2 12.4-7.2 22.699-16.7 33.699-25.4 11.201-8.898 22.9-17.1 33.701-26.3 10.896-9.2 22.1-17.898 34-26.5 3.396 4.602 2.396 9.5 1.699 13.7-3.199 20.6-7.102 41.1-10.602 61.699-2 12-4.898 24-5.5 38.601 23-19.601 44.4-37.898 66.4-56.8 2.699 5.5 2.397 9.899 1.397 13.899-3.101 13.198-.8 26.601-1.5 39.8 0 .7 0 1.398.2 2 .699 2.2.9 4.898 3.4 5.7 2.799.8 4.1-1.7 5.396-3.5 6-8 12-15.899 19.201-22.802 5.799-5.6 11.9-10.6 18.601-14.898 6.5-4.102 8.802-3.199 10.601 4.101 2.5 10.3 4.5 20.7 6.399 31.2.601 3.3 1.601 6.199 3.101 10.1 3.701-5.198 3.701-10.698 5.101-15.698 2.899-10.802 7.801-20.602 14.899-29.102 7-8.3 9.801-8.101 15.701.8 5.896 8.9 11.6 17.802 17.299 26.802 1.301 2 2.5 3.8 6.601 5.698-6-25.8-7.699-50.6-5.897-78.3 19.397 25.7 39.299 47.899 63.198 66.399-2.698-7.899-6.301-15.199-9.399-22.602-4.601-10.898-5.801-22.5-8.101-33.8-.601-2.7-1.5-6.5 1.601-8.2 3.399-1.898 6.6.7 8.899 2.9 11.699 11.399 23.101 23.1 34.802 34.5 14.1 13.6 28.5 26.899 45.198 37.399 3.101 2 6.101 4 11.5 5.3-8.899-13.199-16.899-25.3-21.801-39.399-4.8-13.8-6.8-27.898-9.899-42.2 21.602 27.2 45.102 51.802 73.602 71.602-20.701-23.699-31.201-52.199-39.701-81.5-2.299-8-6.299-15.8-5.5-26.3 29 22.601 55.102 46.601 85 65.698 30 19.102 61.302 35.9 93.102 50.7 2.2-1.3 1.398-2.3.7-2.8-15.7-12.9-24.5-30.601-32.399-48.601-6.801-15.5-15.5-30.102-20.899-46.7 3.101-.102 4.301 2.101 5.7 3.601 23.601 24.899 51.101 44.399 81.699 59.8 7.501 3.988 14.001 9.488 22.303 11.291zm-611.101-137.602c-.801 3.5-2.701 8.4.699 10.103 4.198 2 5.5-3.4 7.5-6.2 10.5-15 20.801-30 31.399-44.9 6.601-9.3 8.399-9.8 19-7.1 2.601.7 5.101 1.6 7.601 2.397 30.6 9.5 59.399 23.2 88.6 36.103 2.802 1.2 5.302 4 10.201 2-7.899-6.9-13.301-14.8-19.399-22.103-11-13-22.302-25.6-38.302-32.698-2.398-1.102-5.898-1.399-6.5-4.899 38.699-13.5 78.802-19.399 119.302-28-33.5-14.102-67-19-104-11.4 10.198-12.8 19.8-22.897 28.8-35.8-17.8 6.603-34.199 10.8-49.199 19-15.5 8.4-30 18.4-45.101 27.5-20 12.2-16.7 13.5-32.101-5.5-6.5-8-12.399-16.5-21-22.5-4.103-2.8-6.2-1.7-6.2 3.2.101 7.7-.601 15.2-2.199 22.7-1.5 6.6-2.5 7.898-9.301 7.7-10.601-.2-20.3 2.6-29.899 6.698-11.601 4.899-23.601 9.199-34.898 14.802-10.602 5.198-22 8.8-31.899 15.897 28.199-1.199 55.799-6.6 85.101-9.6-27.199 27.6-43.802 51.7-45.802 67 31.302-17.602 58.201-40.7 91.5-53.4-5.903 16.102-9.903 32.5-13.903 49z"/><path id="sd1" fill="#636C70" d="M1251.59 700.438c-.698 8.4-4.698 15.9-7.398 23.7-3.3 9.397-6.8 18.7-9.602 28.6 25.102-16.898 47.4-37.398 72.201-57 2 19.102-.103 36.602 2.199 54.7 16.899-5.8 30.399-15.5 44.301-24 3 2.5 1.101 4.7.5 6.6-7.899 25.7-21.201 48.802-34.301 72-3.699 6.5-7.5 13-11.802 20.4 32.802-11.3 60.201-28.5 84.101-52 26.603-26.1 54.399-51.1 81.603-76.5.698-.6 1.601-1 3.8-2.5 2.801 27.8 4.6 54.6 2.7 82.2 23.101-20 38.698-45.8 57.101-71.8v64c.6.197 1.199.3 1.799.5 22.9-31.303 45.801-62.5 69.9-95.4 14 29.9 27.301 58.6 41.7 89.4 7.397-23.2 14.101-44.303 21.3-67 15.301 17.697 26.898 36.6 43.1 53.397 9.4-16 14.603-33 23.701-49.8 6.799 13.9 13.1 26.8 19.899 40.8 11-16.5 21.5-32.1 32.8-48.897 13.2 16.6 25.7 32.3 39.6 49.8 4.701-18.603 5.201-35.8 9.201-52.7 4.399.2 6.299 3.6 8.399 6.3 7.397 9.5 13.5 19.8 18.897 30.602 5 10.101 10.103 20.301 15.302 30.301 1.601 3.1 3.601 6 6.198 8.6.103-19.3-4-37.898-4-57.398 2.201 2.801 4.5 5.398 6.603 8.301 12.101 16.3 24.101 32.699 36.199 49 2.198 2.898 4.101 6.1 7.698 7.6 4.899 5.301 5.802 12.5 9.399 18.5 7.601 12.9 16 25.4 24.802 37.4 0 3.5-1.601 3.6-4.101 1.898-9-4.398-17.603-9.398-27.399-12.101-2.201-.601-4.5-1.399-6.802-1.7-6.198-.699-9 2.102-7.399 8.2 5.302 21 10 42.101 17.701 62.399 3.5 9.199 7 18.5 11.299 29.898-19.698-13.1-36.601-25.5-48.799-43.5-3.601-5.3-5.899-11.199-6.399-17.699-.101-1.699-.101-3.301-.5-5-.5-2.5-2-4.199-4.699-4.5-2.2-.199-4 1-4.801 2.899a107.806 107.806 0 0 0-4.5 11.101c-6.601 17.801-12.5 35.899-21.101 52.801-5.101 10.101-10.899 19.698-19.201 29.198-1.198-4.198.5-6.698 1.302-9.198 13.801-45.899 21.899-92.602 19.198-140.699-.299-5.7-1.299-11.2-2.299-16.801-.399-2.199-1.399-4.5-2.399-6.5-1.399-2.802-3.399-5-6.899-5-3.601 0-5.101 2.398-6.4 5.301-5.897 13.398-12.198 26.6-17.897 40.1-7.5 17.9-16.399 35-29 49.9-4 4.699-8.201 9.3-14.899 14 1.5-8.801 3-15.602 3.698-22.4 2.5-24.899 3-49.8.101-74.699-.5-4.601-1.698-9.2-3-13.601-.899-3.101-2.299-6.399-6.5-6.7-3.5-.199-5.601 2-7.198 4.601-6.5 10.5-13.101 20.899-19.199 31.602-11.5 20.3-22.2 41-36.103 59.8-18.5 25-39.198 48-65.799 64.9-1.899.1-3-.5-2.5-2.7 10.101-18.8 19-38.102 25-58.7 4.698-16 5.399-32.199 4.399-48.5-.399-7-.603-14-.899-20.898-.101-3-.101-6.301-3.601-7.5-3.399-1.2-5.701 1-7.801 3.199-5 5.399-9.9 10.801-14.802 16.301-16.5 18.8-31.5 38.898-49.399 56.3-10.601 10.2-21.897 19.5-34.799 26.7-1.9 1.101-3.5 3.101-6.9 2.199 1.4-3 2.699-5.899 4.101-8.801 11.201-22.3 21.302-45.1 28.5-69.199 7.201-23.801 6.899-48 6.701-72.301 0-3-.103-6.3-3.899-7.3-3.399-.899-5.701 1-7.701 3.5-8.897 11.601-17.897 23.2-26.698 34.898-14 18.7-27.802 37.399-41.699 56.2-19.899 26.899-43.801 50.102-68.701 72.399-2.198 1.899-3.698 4.7-7.1 5.8-1.4-4.5 1-8.5 1-12.699.1-24 2.6-48-1.699-71.801-.201-1.3-.201-2.699-.5-4-.801-2.8-.701-6.3-4.201-7.399-3.897-1.3-6.299 1.399-8.198 4.2-22 31.5-49 58.899-73 88.699a1377.108 1377.108 0 0 1-41.302 48.8c-.897 1-1.6 2.2-4.1 2.301-8.101-12.101-16.5-24.801-25.101-37.301-2.199-3.199-10.542-7.798-14.643-9.598-5.802-5.3 3.849-10.961 6.447-12.461 19.302-11.3 40.595-20.94 58.793-33.741 39.4-27.699 74.701-60 106.101-96.5 1-1.199 2-2.399 2.302-5.1-6.601 4-9.802 10-14.199 14.8-50.301 54.3-107.801 99-174.399 131.601-10.201 5-20.701 9.301-31.201 13.301-3.299 1.301-7.397 3.699-10.299.601-3.5-3.8.199-7.601 2.399-10.601 28.771-32.175 42.699-69.602 63.897-105.399 2.201-3.7 3.5-7.399 4.399-11.7 1.701-8.3 1.9-11.1-6.5-9.3-4 .899-7.399 3-10.899 4.899-27.5 14.898-53.601 31.398-81.698 45.301-1.5.699-2.899 1.6-4.399 2.3-2.101 1-17.629 11.724-19.529 10.023-2.699-2.3 11.529-14.224 12.83-16.323 7.399-11.5 15-22.102 22.101-33.801 15.801-25.899 30.399-52.399 45.1-78.899 1.989-3.104 4.39-8.407 10.39-8.006zm-230.6 67.402c11.899-14.603 24-29.103 32.301-46.4-2.699-1.1-4.601-.6-6.601-.3-30.801 4.7-61.7 4.8-92.601 1.3-4.899-.6-9.602-3-14.7-1.9 13.399 8.9 27.7 15.7 44 17.4 1.7.2 3.301.2 5 .5 1.801.3 3 1.4 3.301 3.2.3 1.8-.301 3.397-1.899 4.3-1.699.9-3.601 1.7-5.5 2.3-31.801 10-52.199 31.9-64.899 62-.699 1.7-2.3 3.5 0 5.7 24.5-10.1 49.601-18.8 73.7-30.2 2.699-1.3 5.398-2.7 8.3-3.3 5.899-1.3 8.801 2.1 7.2 8-1.399 4.9-4.301 9-7 13.2-11.602 18-21.102 37-28.801 57-3.601 9.2-5.801 18.7-7.101 28.6 3.899.2 5.699-2.1 7.899-3.5 12.8-7.8 25.5-15.7 38.3-23.5 3-1.8 6.301-4.6 10.101-2.2 4.102 2.7 3.301 6.7 2.5 10.802-1.8 8.801-2.898 17.801-3 26.698-.101 20.4-7.101 38.302-18.601 54.9-10.899 15.8-24.8 28.7-38.899 41.4-1.601 1.397-4.398 2.197-3.398 5.6 25.601-.6 46.601-11.6 64.898-28.8 24.5-16.8 46.7-36.5 70.9-57-3.2 20.397-6.7 38.3-10.1 56.2-.9 4.8-3.7 11.197 1.398 13.8 5.102 2.7 8.602-3.603 12-6.9 9.602-9.398 19.899-17.6 32-23.6 5.399-2.7 7.399-1.103 6.701 4.7-.802 6.3-2.201 12.5-1.802 18.8.302 3.6-.5 8 3.399 9.8 4.5 2.2 7.5-1.5 10.199-4.3 9.801-10.103 21-18.4 33.2-25.3 8-4.5 8.899-4.103 9.101 4.897.199 9.3.199 18.603-1.4 27.9-.697 4-.398 8.3 3.803 10.5 3.6 2 7.1.1 10.299-1.7 1.201-.6 2.201-1.4 3.301-2.2 15.5-11.5 30.699-23.397 48.199-31.8 4-1.9 6-4.9 5.701-9.5-.201-2.9-.9-6 .799-8.8 1.5-9.3 1.201-18.9 4-28 2.898-4.4-.5-9.7 2-14.2l-.102.1c2.701-5.6-1.123-9.801-3.921-9.204-5.201 1.2-9.977 4.404-14.776 6.704-16.5 7.603-33.602 18.2-53.4 21.303 25.176-21.006 41.6-55.7 58.6-83.4 9.9-16.2 15.701-32.4 25.302-48.8 1.899-3.2 5.198-7.4 1.601-10.9-3.4-3.3-7.5-.3-11.101 1.3-3.601 1.603-7.101 3.603-10.601 5.5-17.102 9.7-33.701 19.103-50.899 28.7-20 11.2-39.899 23.3-62.2 32.8 40.5-46.397 68.602-98.897 96.399-151.698 1.601-3.102 4-6.399 1.399-10.199-2.1.6-2.899 2.6-4.199 4-9 10.6-17.7 21.5-27.2 31.699-33.199 35.801-69 68.898-104.8 102-.801.301-1.399 1.5-2.301.601-.699-.7-.301-1.7.101-2.601 10-16.699 21.601-32.602 24-53.102-19.199 13.102-37.199 27.5-59.101 36.3 8.9-17.698 18.2-34.897 24.9-53.8-5.7.102-10 1.9-14.4 3.2-18.8 5.5-37.5 11.7-56.699 15.8-2.499.998-5.499 2.498-4.8-2.4z"/><path id="sd2" fill="#555D61" d="M1025.59 970.84c1.399-5.603 6.899-6.9 10.602-10.103 19.699-16.7 39.699-33.1 59.5-49.6.7-.603 1.5-1.4 3.7-.5-2.2 24-8.8 47.7-11.2 72.3 16-14.3 30.602-29.9 52.5-35.6 2.801 13.1-4 25.5.2 39.697 16.198-15.8 32.3-29.8 52.101-38 3.199 1.603 2.5 4.2 2.399 6.4-.399 11.6 1.5 23.3-1.802 34.7-.398 1.5-.198 3.3 0 5 .4 3.3 2.102 4.5 5.5 3.5 2.701-.7 4.701-2.2 6.9-3.8 16-11.9 31.5-24.5 49.801-32.7 3.699-1.7 5.897-4 5.601-8.3-.2-2.603-.5-5.4 1.8-7.4 0 16.6-2 33.1-2 49.7 0 19.6-.5 39.2.102 58.8.101 2.5 1 5.2-1.301 8.2-4.601-3.4-8.301-7.5-11.9-11.7-5.5-6.2-10.799-12.6-16.198-18.9-2.201-2.6-4.601-5.3-8.399-3.197-3.302 1.8-3.699 4.897-3.5 8.6 1.801 21.9 6.301 43.3 12.198 64.4.5 1.897.802 3.897 1.302 5.8.801 2.399 1.399 4.7-2.5 4.5-10.4-9.5-18.802-20.7-27.302-31.7-6-7.8-7.299-16.9-6.198-26.5.399-3.3.5-6.6.399-9.9-.101-2.397-1.399-4.6-4.101-5-2.701-.397-4.399 1.5-5.5 3.603-.899 1.8-1.201 3.8-1.602 5.7-3.199 15.6-6.398 31.197-9.602 46.897-.1.603 0 1.4-.198 2-8.802 23.103-11.302 47.8-17.802 71.603-.299 1-.5 1.897-2.198 2.397-2.5-.3-2.7-3-3.399-5-5.199-14.7-10.199-29.5-15.4-44.3-1.1-3.1-1.5-6.7-5.6-7.5-4.601-.9-6.4 2.5-8.699 5.4-11.701 15.3-22.301 31.5-34.701 46.3-1 1.2-1.799 2.8-4.6 3.3-4.9-11.3-7.801-23.5-11.301-35.5-5.699-19.8-4.301-40.3-4.301-60.5.101-13 1.4-25.9 2.101-38.9.199-3.197.802-6.8-2.899-8.897-3.601-2-6.399 0-9.199 1.897-9.6 6.4-19.2 12.9-29.899 20.103.899-10.9 3.601-20.103 5.899-29.4 2.8-11 5.699-21.897 9-32.699 1.5-4.898 1.5-9.898 2.3-14.801.5-3-.3-6.1-3.3-7.8-2.7-1.6-5 0-7.399 1.4-3.204 1.798-5.905 4.898-9.905 6z"/><path fill="none" stroke="#000" stroke-miterlimit="10" stroke-width="6" d="M1484.392 269.938s-101.5 61.399-126.399 93.899c0 0-13.101 8.101-12.301-16.5.801-24.602-6.699-74.102-6.699-74.102s-36.601 76.7-43.5 83.3c-6.9 6.603-51-46.3-51-46.3v27l-69-19.8 36.801 59.1-86.801-8.8 11.399 26.3s-29.899-5.698-85-42.698c-12.5-14 47.901 96.501 67.7 115.001-15.199 20-122.2 5.5-132.2 0s24 52 91.5 65.5c6.5 10.5-12.899 6.897-35.399 18.197-22.5 11.303-70.5 65.803-70.5 65.803l70.5-17.103s9.899.5 5 3.603c-3.699 8.5-54.301 67.897-59.101 69.397s46.899-8.2 46.899-8.2 14.5 4 5 9.303c-9.5 5.3-46.4 26.197-49.301 27.197-2.898 1-69.699 9.803-73.801 9-5.199-.897 32 27.7 69.9 30.803 0 0 8 2.397-8.102 9.8-16.102 7.397-51.699 26.8-60.602 60.5-14 13.7 36-5.8 49-10.8s32.801-17 32.801-17 18.801-3.2 4.699 13.897c-14.1 17.103-43.5 71.103-42.5 94.603 12 .5 52.301-31 52.301-31s8.699-4.5 5.199 13-1 40-7.5 53.5c-10.5 26.1-34.199 52.197-49.398 67.6-15.199 15.399 54.398-5.9 61.5-19.6 2.301-4.4 26.801-21.9 19.898 4.6-6.899 26.5-15.1 66.5-16.199 69s31.199-20.9 31.199-20.9 14.102-9.698 10.5 13.9c-3.6 23.6-8.5 89.3 13.102 130.6 9 1.603 40.699-49.1 40.699-49.1s9.302-18.2 14.302 1.9c5 20.1 11.698 50.1 16 49.397 4.301-.701 33.101-108.199 32.301-116 2-20.699 11.3-20 9-5.699-2.301 14.302-1.2 23.802 4.199 27.699 5.399 3.9 31.101 34.7 32.101 35 1 .301-11.3-76-9.699-82 3-7.3 29.101 18.801 35.899 29.4 6.8 10.6 4.101-150.5 10.3-157.8 10.399-9.2 36.801 31 39.5 40.5 2.7 9.5 113.5-132.2 120.801-139.303 13.899-13.8 16.299 55.5 12.101 90.2-11.5 34.7 135.601-146.8 145.101-162.7 0 0 11.6-15.897 11.1 9.603s-2.397 73.3-41.198 142.5c19.301 8.8 92.899-87 106-98 4-5.603 12.5-12.5 13.301 6-2 15.5 4.699 30-2.301 49.3-4.699 23.5-22.302 68-28.802 74.5s26.103-9.399 33.302-19.3c7.198-9.9 33.301-26.301 87.801-129.103 3.101-4.897 16.199-24.397 19.8 4.4 3.603 28.8 3.801 93.5-4 104-7.8 10.5 28.5-14.5 66-106 0 0 10.399-18 14.7 12.399 4.3 30.398-8 133.898-21.7 157.601 13.5 3.8 46.301-78 47.801-87 0 0 5.5-17.1 10.802 9.3 5.299 26.4 51.6 52.603 53.799 53.8 2.201 1.2-30.601-89.197-29-97.697s40.399 8.5 43.601 11.897c3.2 3.4-29.3-58.3-30.8-60.1s9.9-16 38.3.3-31.601-62.6-35.3-67c-3.7-4.4-.301-13 51.3 7.3 33 14-34.3-53.8-38-56.5-10.5-3.5 33.5-23.8 41.301-26.8s-42.699-14.6-44.801-14c-2.101.6 5.5-15.5 53.2-30.7 15.8-3.1-81-21.6-82.1-24-2.103-12.8 65.698-18.8 77.397-18.6 11.7.2-165.8-52-168.8-57.602-3-5.601 60.101-14.898 103.699-13 43.599 1.899-79.899-31.101-83.399-35.898 12.301-1.5 67.801-20.5 67.301-33.301-83.301 25.801-81.5 9.801-132.101 13.199 0 0-17.2-5.898 2.601-13.898 19.799-8 31.5-12.301 44.199-13.2 12.7-.899 28.1-.7 28.2-3.899.101-3.198-81.2-22-97.301-22.801-16.101-.8-40.899-5.699-43.899-6.3s-6.4-5.899 12.1-16.2c18.5-10.3 50.9-33.8 53.201-36.8 2.299-3-34.801-2.5-62.5 11.3-27.701 13.801-48.801 26.7-52.5 28-13.301 1.5 3-46.8 2.299-65.6 0 0 3.701-8.7 1-7.899-2.698.801-78 52.301-88.1 54.102-7 2 7-30.801 5.899-34.801s-117.802 43.101-125 47.101c-9.102-1.497 24.195-60.497 19.398-63.697z"/><path fill="none" stroke="#000" stroke-miterlimit="10" stroke-width="6" d="M1263.086 664.646s-82.005 154.489-112.295 181.171c0 0 128.001-74.582 133.702-70.079s-56.08 129.614-82.536 144.688c0 0 149.399-48.313 241.639-168.786"/></svg>