<svg xmlns="http://www.w3.org/2000/svg" id="hair" viewBox="0 0 3000 3000"><path id="cl1" fill="#463022" d="M1100.606 375.01c14.5-10.7 30.699-17.1 48.3-19.899 17.7-2.801 35.5-5.301 53.2-8.2 11.6-1.9 23.199-1.5 34.699.399 28.101-2.5 47.7 18 68.801 24.3-3.2-2.199-7.4-8.399-12.301-13.8-19.899-21.3-42.5-38.899-67.699-53.5-3.5-2-6.9-4.1-9.801-6.8-2.399-2.3-3.899-5 .801-6.6 1.399.2 2.8.3 4.199.399 1.9 1.3 4.4.2 6.301 1.5 40.5 5.9 80.8 12.5 118.5 29.7 4.699 2.2 9.6 5 15.199 2.601 2.7-4.301 6.2-4.9 10.5-2.301 7.7 4.601 15.2 9.5 21.7 15.801.8 1.199-1.399 1.1-.3.3.3-.3.4-.5.1-.8-7.899-5.9-12.6-14.7-19.1-21.801-10.6-11.5-21.5-22.6-33.8-32.399-2.2-1.7-5.5-3.7-3.9-7.2 1.3-2.6 4.1-3.2 6.9-1.899 8.199 1.399 16.5 2.6 24.6 4.399 29 6.4 57.4 14.9 85.7 23.8 9.5 3 18.699 7 27.699 11.3 3 1.4 6.101 2.9 9.301 3.5 5 1 7.8-2.2 6.1-7.1-1-2.8-2.7-5.4-4.4-7.8-7.1-9.7-14.8-18.9-23.899-26.8-5.3-4.601-10.5-9.2-15.9-13.9 2.4-2.6 4.601-.899 6.5-.3 5.101 1.5 10.2 3 15.2 4.9 23.5 8.699 47.7 15 72.1 20.199 21.301 4.5 41.9 10.9 61.301 20.9 11.3 5.8 22.3 11.899 31.199 21.3 5.301 5.6 6.4 5.3 13.9 1.8 2.4-5.2 6-6.899 10.7-2.899 12.1 10.199 24.1 20.399 33.3 29.6-16.8-34.6-41.7-67.7-59.7-104.7v-.1c-1.8-2.7-1.7-4.3 2.101-4.2.6.3 1.3.7 1.899 1 .7.3 1.2.8 1.7 1.5 21.6 12.601 43.1 25.3 64.7 37.8 23.7 13.7 42.6 31.601 53.3 57.5 3.5 8.5 5.1 8.601 12.4 4.9 5.699-4.101 5.699-4.101 9.5 5-7.7-20-10.101-41.7-19.9-61l.1.1c-1-1.2-.699-3.1-2-4.1v.1c-1.1-1.2-.699-3-2.1-4.1-1-1.3-2-2.7-1.7-5 2.8-1.2 4.7 1 6.601 2.399 17.5 12.101 31.199 27.9 43.3 45.2 10.399 14.7 19.399 30.2 28.1 46 1.4 2.601 2.8 5.3 4.5 7.8 3.8 5.5 5.3 5.7 11.601 2.601 18.8-9.3 37.6-18.601 56.399-27.8 3.2-1.5 6.101-4.101 10.601-3 .6 4-2 6.899-3.601 9.899-8.399 16.601-17.1 33.101-25.6 49.7-1.2 2.4-2.601 4.7-3.5 7.2-2.2 6-.5 9.1 6 9.2 38.1.699 65.3 21.699 89.899 47.6 2 7.9-3.699 7.4-8.199 6.9-9.601-1-19.2-2.101-28.7-3.5-18.9-2.801-37.8-2.101-56.8-2.101-5.801 0-11.601-.2-15.301-1.2 10.5 1 21.601 6.801 33.301 10.801 5.1 1.8 7.5 6.199 11 9.5 18.899 15.1 36.5 31.5 53.399 48.899 9.2 9.5 18.2 19.2 27.4 28.7 1.7 7.2-2.4 7.3-7.2 5.5-15.3-5.8-30.6-11.5-45.199-18.9-1.101-.899-.5 1.5-.4.2 0-.1.2-.1.6.101 13.101 6.8 25.801 14.3 38.4 22.1 2.1 1.3 5.6 2.4 4 5.8-1.3 2.7-4.1 3.1-6.9 1.8-.5 0-.899 0-1.3-.1-1.3.9-3.3.6-4.3 2.1-.4 4.101 1.8 6.9 4.6 9.4 6.5 5.7 11.6 12.7 16.7 19.6 9.5 12.8 19.6 25.101 31.899 35.3 1.2 1 2.7 2 2.801 4.101-2.4 2.399-5.4 1.2-8.2 1.2-26.3-6-47.7-22.9-72.1-33.101-1.101-.7 1-1.6.1-.6-.1.1.1.2.4.4 11 6.699 18.699 17 27.8 25.8 3.8 3.7-.8 8.1 1.8 11.6 9.4 19.2 26.4 30.9 42.9 43.1-1.4 3.801-4.4 2.801-6.8 3.2-36.2-.5-61.101-21.899-85.301-47.1-2.899 7.2-1.199 12.9-.699 18.6.5 5.4 2.8 11-1.601 16-6 3.5-7-1.899-8.6-5.2-9-18.6-17.601-37.399-28.2-55.1-5.8-9.7-14.4-17.3-19.2-27.6 1.101 2.7 2.601 5.2 2.4 8.3-.2 4.6 1.899 11.1-2.2 13.1-4.7 2.2-10.4-1.5-14.3-5-11.601-10.2-23.601-20.2-33.3-31.1-1.601-1.6-1.801.6-.9-.3.8-.8.5.3.9.6 14 12.2 22.8 28.3 32.699 43.6 3.2-11.1 6.4-13.199 14-5.8 9.4 9.101 19.9 17.5 26.101 29.601-2.9 4-2.5 7.8-2.2 12.8 1.7 28.2 7.2 56.7-2.9 84.5-1.5 4-3.699 7.6-7.6 8.1-3.9.4-5.3-3.8-6.8-7.1-12.2-28.8-23.8-58-41.2-84.2-2.6-4-4-10.7-9.8-10-5.8.8-5.3 7.7-7.101 12.1-2.399 6.2-3.899 12.801-6.8 18.801-1.3 2.699-2.1 6-6.399 6-4.4 0-6.301-2.7-7.5-6-6.601-16.7-18.101-30.2-29.2-43.9-13.101-16.2-29.8-28.5-45.3-42.1-2.4-2.101-7.301-3.4-4.2-8.5 5.3-6.801-2.3-12.5-1.9-19 .2-3.5-2.6-7.4 1.9-9.801 4.1-2.1 6.399 1.4 8.899 3.801 9.4 9.199 19.2 18.199 26.2 29.6-19.3-26.2-38.399-52.6-50.7-83l.4.4c3 9 8.5 16.899 11.4 25.8 1.5 4.6 3 9.3-2 12-4.801 2.6-6.601-2.101-9.4-5.2-6.6-7.4-11.9-15.7-17.5-23.5l.1.2c6.4 8.5 12.601 17.1 18.9 25.5 9.1 12.1 14.2 26.2 14.8 41.6-12.8 12.7-28 22.2-43.5 31.2-5.1 3-10.899 2.1-16.5.8-11.7-2.7-23.2-5.9-34.8-8.5-11.2-2.5-14.8-.9-19.8 9.7-17.9 38.2-31.3 77.6-32.4 120.3 0 1-.3 1.9-.899 2.8-.101 1.3-.2 2.5-.2 3.8-1.101 1.2-1.3 4-3.9 2.101-7.5-19.3-13-39.101-16.7-59.5-.899-4.9-1.1-9.9-1-14.9.101-5 .2-10 .101-15-.101-3.6.3-7.899-3.9-9.5-4.8-1.899-7.5 2-9.6 5.3-12.101 18.301-23.601 37.101-34.2 56.301-5.9 10.699-11.2 21.8-16.8 32.8-3.101-1.5-2.101-4.2-2.3-6.2-1.4-16.9-2.7-33.8-4-50.7-.101-1.3 0-2.7-.301-4-1.3-6.1-5.1-7.7-10-4-1.3 1-2.5 2.2-3.5 3.5-21.399 26.4-46 49.9-67.699 76.101-8.9 2.399-6.9-3.9-5.7-8 4.399-15 9.399-29.9 14.8-44.601 4.7-12.7 10.9-24.8 14.7-37.899-11.101 10.3-19.8 22.399-28.3 34.699-5.7 8.2-12.101 16-17.101 24.601-7.899 13.6-22.7 20.8-30.899 34.1-1.2 2-3.7 4.2-7.101 2.3-3.2-1.8-3.1-4.199-2.2-7 6.601-20.899 13-41.8 19.801-60.699-18.4 21.899-34 48-47.601 75.3-4 8.1-8.2 16-13.7 23.2-2.5 3.3-4.899 7.699-9.6 5.6-4.8-2.1-4-7-3.3-11.4 2.2-14.1 5.1-28.2 5.6-42.6 0-1.3.601-2.6-1.3-4.1-14.4 19.1-24.9 40-32.9 62.3-3.1 8.8-5.3 17.899-9.699 26.2-1.601 2.899-3.101 6.399-7.2 5.8-4.7-.7-5.101-4.8-5.2-8.5-.6-14.7 2.4-29.2 2.5-43.8 0-3.2 1.7-6.5-.6-10.2-4.5.5-6.101 4.5-8.2 7.6-12 18.1-21.9 37.3-29.9 57.5-2.3 5.7-3.1 14.9-12 13.4-8.6-1.5-4.899-10.101-6-15.8-2-10.5-1.3-21.301-3.3-31.801-1.3-7 1.5-13.3 2-18.399-16.6 17.8-28.5 40.2-36.8 64.8-2.5 7.6-7.7 4.9-12.601 3-2.199-4.1-1.399-8.4-.399-12.6 10.6-43.101 24.8-84.9 48.2-123.601-9.2 9.8-17.4 19.7-25.7 29.601-2.3 2.699-5.101 5.899-8.9 4.5-4.5-1.601-4.7-6.2-4.2-10.2.9-8.101 4.2-15.601 6.9-22.8-4.9 8.199-10.5 16.3-16.1 24.399-10.7 15.4-19.301 31.8-26.4 49.2-1.4 3.4-1.4 9.7-8.3 6.6-6.101-2.5-4.101-7.5-3.601-11.899 1.7-14.101 4.5-28 4.9-42.101-4.3-1.399-5.3 1.801-7 3.5-8.9 8.9-17.4 18.301-27.6 25.801-1.9 1.399-3.5 3-5.7 4-3.3 1.5-6.7 3.3-10.2.6-3.6-2.8-2.6-6.4-1.3-9.9 4.7-12.5 8.1-25.3 11.3-38.2.7-3 3.101-7-.5-9.1-2.899-1.6-5.199 2.1-7.5 3.8-11.7 8.4-11.7 8.4-14.1-7.5-.7-.6-1.4-1.2-2.1-1.899-4-3.4-5.2-7.4-3.801-12.601 3.101-11.5 6.101-22.899 10.601-34.899-6.8 1.8-12.2 5.5-18 8.199-4.4 2-8.9 3.101-6.601-4.699 4.101-3.4 8.101-6.801 12.2-10.2.5-.7 1-1.4 1.5-2.2v-1.5c-5.3-8.3.601-12.6 6.4-17.4-15.9.4-30.601 4.5-44.7 10.5-7.3 3.101-14.5 6.601-21.8 9.9-6.7 3-7.8 1-5.7-5.2 4.4-7.899 10.3-14.7 16.1-21.5 15.801-18.5 33-35.7 51.7-51.1 10.5-8.7 21.2-17.2 34.7-21.101 1-.3 1.9-.699 2.8-1.199 1.8-1 3.4-2.301 3.4-4.5 0-2.301-1.5-3.7-3.5-4.4-2.8-.9-5.7-1.7-8.7-2.2-24.6-4-49-9.2-73.9-11.399-2.3-.2-4.699 0-6.699-1.7-.9-2.7 1.399-3.5 3-4.5 13.899-8.5 27.8-17 41.8-25.3 13-7.601 26.8-11.5 42-9 6.2 1 12.6 1.199 18.899 1.8 1.9-1.5 4.601.1 6.4-1.9h-.1c5-4.1 10.6-2.6 16.199-1.8 2.5.4 5.9 1.4 7.101-1.6s-1.9-4.601-3.8-6.301c-14.9-12.3-30.5-23.8-42.601-39.199-6.8-8.601-13.7-17-21-25.101-1.5-1.899-3-3.899-4.399-5.8-.4-2.3.6-3.3 2.899-2.9 19.7 11.5 40.601 19.801 63.2 23.5 2.9.5 5.9.801 8.9.801 2.399 0 4.699-.7 5.6-3.301.7-2.199-.4-3.899-1.8-5.399-5-5.3-10.2-10.5-15.2-15.8-1.4-1.4-3-2.7-3.3-4.9 1.199-3 3.8-2.1 5.899-1.9 5.601.4 11.2 1 16.9 1.5 14.7 1.5 29.2.301 43.6-2.399 4.601-.8 9.2-1.101 13.801-1.7 9.1.8 15.8-4.4 22.5-9.2 8.899-6.2 8.6-15.2-.5-21-5.4-3.5-11.601-5-17.801-6.3-16.5-3.3-33.199-5.1-49.8-7.2-9.8-1.2-19.6-3-29.5-4.1-2.097-.408-6.697 1.092-4.797-4.308z"/><path id="sd1" fill="#332319" d="M1810.406 493.21c6.2 1.5 9.7 4.9 12.6 8.2 22.4 26.1 47 49.899 71.101 74.399.699.7 1.399 1.5.5 3.4-20.5-12.8-41.4-24.8-61.7-39.4-1.5 6.4 4.1 10.4 3.6 16.101-3.899-.5-6.3-3-8.6-5.101-13-12.5-27.9-22.6-42.9-32.5-2.1-1.399-5.5-2.6-4.8-5.699.9-3.801 4.7-3.101 7.5-2.9 7.8.6 14.5 4.5 21.5 7.7 3.4 1.5 7.5 5.899 10.7 2.5 3.3-3.4-1.4-7.101-3-10.601-2.201-4.899-5.501-9.198-6.501-16.099zm-649.7 93.901c-9.9 7.1-20 13.8-27.7 23.8-12.899 16.899-25 34.2-36.7 51.899-1.399 2.101-3.699 3.9-2.8 7 9.101-3.3 21.5-12.899 26.601-20.699 11-16.9 24.6-31.9 36.5-48.101 1.399-4.6 2.699-9.3 4.099-13.899zm-9.9 44c-.699.699-1.5 1.3-2.199 1.899-.601.101-1.301.3-1.9.4-.7.5-1.3 1-1.8 1.7v.1c1.3.6 2.6 1.3 3.899 1.9-11.199 17.699-23.1 35.1-27.5 56.3 6.301-6 9.601-14.101 15.7-20.101h-.1c.5-.8 1.2-1.399 1.899-2.1 5.601-8.2 11.2-16.3 16.7-24.6 5.5-8.4 13.101-15.2 18.9-25.5-9.8.199-15.2 5.6-21.601 8.5-.898.301-1.498.901-1.998 1.502zm418-63.101l11.101-9.899c15.7-14.101 31.5-28.2 47.1-42.5 2.5-2.301 5.7-4.301 6.2-8.301-1.1-.3-1.8-.8-2.3-.6-4 1.4-8.101 3-12.101 4.5-21.1 19-40.199 40-58.399 61.8 3.799-.2 5.899-2.8 8.399-5zm13.9-38.899c7.4-4.4 13.6-10.4 20-16.101 3.2-7.3 9-12.899 13.1-19.6 1.5-2.4 4-5 1.801-8-1.9-2.5-4.801-1.4-7.301-.9-.6.101-1.3.3-1.899.5-6.3 10.4-12.601 20.7-18.9 31.101-2.701 4.099-5.601 8.099-6.801 13zm-58 38c6.6-2.7 11.5-7.7 16.8-12.101 6.9-5.7 13.7-11.399 21.5-15.8 2.9-2.6 5.7-5.3 6.101-9.9-12.801 7.7-25.2 15.9-36.601 25.4-2.5 4.2-6.2 7.6-7.8 12.401zm-395.9 304.099c4.7-1.4 6.601-5.2 8-9.4 8.301-24.3 21.7-45.6 39-64.5 1.7-1.899 3-4.5 7.7-4.399-6.7 23.8-2.399 47.1.4 71.5 5.5-2.801 6-7 7.399-10.5 9.9-24.5 22.2-47.7 38.301-68.7 2.1-2.8 3.8-7.8 7.8-6.601 4.8 1.4 3.2 6.801 3 10.5-.8 14.601-2 29.2-3.101 43.801-.3 4.5-1.6 9 .801 14.399 4.3-4.3 5.199-9.3 6.6-13.899 7.3-23.301 17.2-45.4 30.6-65.9 3.801-5.9 7.7-11.7 12.7-16.7 1.2-1.2 2.5-2.399 4.3-1.7 1.801.7 2.101 2.601 2 4.2-1 11.601-2 23.2-3.3 34.8-.899 7.5-2.2 15-2.5 22.9 5.5-3.6 8.3-9 11.2-14.3 6.5-12 12.7-24.2 19.3-36.101 10.5-19 22.9-36.699 37.101-53.199 2.1-2.4 3.699-5.7 9.1-5.301-1.6 13.2-7.9 24.801-11.1 37.101-3.2 12.399-8.4 24.2-11.7 37.3 5.5-.5 6.8-3.9 8.899-6.3 17.301-19.9 31.5-42.101 46.9-63.5 8-11.101 17.3-21.101 26.1-31.5 1.5-1.7 3.101-4.101 5.801-2.9 3.1 1.4 2.3 4.601 1.6 7.101-1.1 4.199-2.6 8.3-4.3 12.199-10.4 23.5-19.601 47.4-27.2 71.9-1.4 4.4-3.2 8.8-1.4 13.6-8.199 11.7-16.399 23.5-24.699 35.101-.301.399-1.2.3-2.2.6-2.1-3.6-1.2-7.7-1.2-11.5 0-8.7-.8-17.3-2.699-25.8-.7-3.3-1.801-6.7-5.801-7.3-3.5-.5-5.5 2-7.199 4.6-21 31.7-41.9 63.5-54.801 99.6-2.399 6.801-3.899 13.801-6.199 22.301-5.301-6.5-7.101-12.801-9.5-18.9-1.5-3.8-1.801-9.3-7.601-9.1-5.3.199-6.6 5.1-8.2 9-6.399 15.6-8.6 32.199-9.5 48.8-1 18.3-3.5 36.5-3.199 54.899.1 5.601-2 6.601-6.601 3.2-7.8-5.7-15.3-11.8-22.2-18.6-1.399-1.4-2.8-2.9-4.199-4.3-2.9-2.7-5.601-6.3-10.2-4.7-4.5 1.6-5.1 5.8-5.5 9.8-2.8 29.3-3.6 58.6 5.2 87.2.3.899.199 2 .3 3-2.7 2.1-4.5-.2-6.1-1.5-11.9-9.5-25.601-16.9-34.2-30.3-3-4.7-7.6-4.9-12.2-1.7-3.899 2.7-6.399 6.7-8.8 10.8-5.7 9.8-11.2 19.7-17 29.4-4.1 6.699-5.9 7-11.5 1.8-9.3-8.6-17.8-18-24.4-28.9-3.899-6.5-6-13.3-5.1-20.899.2-1.7.4-3.3.4-5-.101-8.2-3.4-10.9-11.5-8.5-10.801 3.2-21.4 7.399-32.301 10.7-10.2 3.1-20.5 5.8-30.899 8.399-3.4.9-7 2.4-10.601.3-1.2-2.899 1-4.5 2.3-6.199 3.301-4.2 6.601-8.301 10.101-12.4 16.7-19.4 28.2-42 38.8-65 3.2-7 .1-11.2-7.5-10.4-3.6.4-7.2 1.5-10.7 2.4-14.3 3.6-28.7 4.6-43.6 3.8-18.7-.899-37.101-3.3-55.7-5.3-1.9-.2-4 0-6-2.1.7-3.7 4.4-4.301 7.1-5.601 24-11.3 45.4-26.5 66.301-42.6 2.899-2.2 5.8-4.6 7.899-7.5 3.3-4.4 1.601-8.7-3.899-9.5-4.2-.6-8.7-.4-12.9.1-25.9 2.9-51.9 1.5-77.9.601-6.3-.2-12.6-.601-19-1-2.6-.101-5.3.3-7.399-1.7.5-3.9 3.699-4.7 6.1-6.3 13-8.7 26.1-17.301 39.2-25.9 19.8-13.1 37.7-28.5 54.5-45.3 8.7-8.7 16.7-18.101 26.5-25.8 5.5-4.301 9-9.801 8-17.301 4.399 8.101 4.5 8.2 11.2 3 3.699-2.8 7-6.1 10.8-8.899 2.3-1.7 4.7-4.9 7.8-2.601 2.8 2 1.3 5.601.7 8.4-1.101 5.5-2.2 11.1-3.7 16.5-3.1 11.2-6.6 22.3-9.9 33.4-.5 1.8-1.8 4.1.301 5.5 2 1.3 3.8-.3 5.399-1.5 11.5-8.5 21.7-18.5 31-29.4 2.4-2.8 4.7-5.6 7.3-8.1 1.801-1.8 3.7-4.601 6.7-2.8 2.7 1.6 2 4.699 1.7 7.3-.7 6.3-1.5 12.5-2.3 18.8-1.7 12.8-3.4 25.7-5.101 38.5 6.5 2.4 1.601 6.5 1.601 8.5 9.1-14.3 21.3-27 37.399-35.4 6.101-3.2 10-.1 9.801 7.8-.301 9.2-3 18.101-5 27-2.9 12.601-5.601 25.301-7.801 38.101-1 2.899-2.699 5.6-1.699 9 .295 1.097.895 1.497 1.795 1.497zm447.2-120.4c6.3-23.5 12-47.1 21.9-69.5 5.7-12.8 12-25.3 19.899-36.899 2.801-4.101 6.101-6.8 11.601-6 15.7 2.399 29.7 8.2 39.7 20.899 11.699 14.9 11.699 10.601 20.3-.6 6.5-8.5 13.899-16.2 22.2-23 5.199-4.3 8-4.3 12.399-.5 16.101 14 31.4 28.8 44.5 45.8 12.601 16.3 19.9 34.3 22.101 54.8 2 18.5 5.3 36.9 8.399 55.301 1 6.199 3.5 6.8 7.7 2.399 5.7-6.1 11.1-12.399 16.7-18.6 2.8-3.101 5.1-7.8 10.2-6.8 5.699 1.1 5.699 6.699 7.199 11 .2.6.301 1.3.5 1.899 5.101 18.2 5.7 36.8 5.601 55.5 0 7.601-.601 15.5.899 22.9 5.601 28.1 8.601 56.6 12.801 84.899.399 2.5-.4 5.5 2.699 7.101 3.2-1.4 3.601-4.7 4.9-7.2 3.7-7.1 7-14.4 10.7-21.4 1.5-2.899 3.5-5.699 5.5-8.3 1.699-2.2 4.1-3.399 7-2.7 3.199.7 4 3.301 4.3 6.101.9 11 6 20.399 11.5 29.6 3.6 6 7.8 11.601 11.9 17.3 1.699 2.301 3.1 6.301 6.5 5.2 4-1.2 2.6-5.6 2.699-8.8.101-2.3-.199-4.7-.399-7-1.101-13.3-2.601-26.5-4.7-39.7-.7-4.399-3.2-9.7 1.1-13.2 4.9-4 9.301.7 13.7 2.5 5.1 2.101 9.5 6 15.3 5.801.4-1.2.801-1.9.7-2.4-.9-2.8-1.9-5.7-3-8.4-8.6-21.8-14.7-44.2-14.7-67.899 0-11.2 2.7-13.801 13.9-11.4 12 2.6 24 5.6 36 8.5 3.2.8 6.5 1.7 9.7 2.3 1.899.4 4.199 1.2 5.6-.7 1.4-2-.2-3.899-1.4-5.3-7.1-8.6-9.5-18.899-11.3-29.5-.8-4.6-1.8-9.2-2.1-13.8-1.4-21.1-11.601-37.9-25.5-52.9-1.101-1.199-2.4-2.3-3.5-3.6-5-5.8-3.801-9.6 3.8-10.8 6.6-1 13.3-.2 19.9.6 11.199 1.3 22.5 2.4 33.699-.8-4.399-1.6-8.6-3.5-13.1-4.9-17.3-5.5-33.2-13.5-47.2-25.399-7.399-6.3-14-13.3-21-20-1.899-1.8-3.8-3.8-5.899-5.4-2-1.5-3.9-.9-4.5 1.6-.5 2.301-.4 4.601-.5 6.9-.7 11 1.6 21.9 1.899 32.9-.8.5-1.5 1-2.199 1.5-.9 1.6-1.101 3.399-2 5-1.4 2 .199 3.3.899 5 5 9.1 6.8 19.5 10.101 26.3-3.9-11.7-9.2-25.7-16.4-39-1.3-2.3-3.1-4.9-2.7-7.4 1.601-8.2-3.899-12.899-8.1-18.2-3-2.8-5.5-6.199-9-8.6-1.101-.2-2.101.1-3 .8l-1.5.601c-1 2.899-1.7 5.8-1.2 8.8 2.3 15.5.8 31.2 2.8 46.8 1.9 14.7-2.5 28.6-7.3 42.7-4.3-2.3-4.7-5.8-5.9-8.8-12.699-31.2-27.3-61.5-45.8-89.7-2.2-3.4-3.1-9.4-8.399-8.601-4.801.7-5.4 6.301-6.7 10.301-3.101 9.199-5.8 18.399-8.9 27.6-.7 2.1-1.1 5-4.1 4.8-2.3-.1-2.8-2.6-3.601-4.3-12.8-26.6-32.5-47.6-54.199-67.1-8.7-7.801-18.4-14.301-26.4-22.9v.1c-4.7-.699-8.4 1.5-12 4-8.2 5.7-16.6 11.101-24.5 17.101-8.4 6.399-17.2 7.6-27.3 4.6-12.101-3.5-24.5-6.399-36.7-9.399-9.6-2.4-12.3-1.2-16.3 8-6 13.699-11.9 27.5-17.3 41.399-11.301 29.101-19.101 58.9-13.801 90.601.602-3.406 1.702-6.906 2.702-10.406zm-572.6-54.699c-21.3 18.899-38.7 40.899-53.3 65.199-.7 1.101-1.101 2.5.6 3.9 3.7-.5 7-2.8 10.5-4.5 14.5-7.4 29.1-14.5 44.2-20.5 7.399-3 14.899-5.6 23.1-4.9 1.9-19.199 8.4-37 16.5-56.3-9 1.7-15.6 5.101-22.3 8.2-3.8 1.7-7.3 4.8-11.9 4.1-2.4 1.5-5.2 2.801-7.4 4.801zm194.4-409.101c1.2 3.601 3.7 4.8 5.7 6.5 13.5 11.3 26.7 23 38.8 35.8 2.301 2.4 4.601 4.9 6.301 7.7 2.399 4 .899 7.2-3.801 8-3.199.5-6.6.3-9.899.4 7.6 2.5 15.7 2.8 22.7 7.2 16.199 10.1 33.8 17.3 51.3 24.6 2 .8 3.8 2.9 6.399 1.1-.699-3.899-3.6-6.399-5.8-9.199-22.3-27.801-48.6-51.101-79.5-69.101-5.5-3.2-11.1-6.1-15.3-11.1-5.5-1.5-10.9-3.9-16.9-1.9zm-103.4 89.601c0 2.6 2.7 2.3 4.5 2.699 1.3.301 2.6.301 3.899.5 18.101 2.7 35.601 7.4 53 12.9 10.2 3.2 19.7 7.8 27.601 15.2 8.8 8.3 8 12.5-3.101 16.3-.6.2-1.199.5-1.8.7 6.7.399 13.2 0 19.7-1.8 4.6-1.301 8.6-3.4 12-6.7 5.7-5.5 6.5-9.7 3.3-17-2.7-6.3-7.7-9.7-14-11.8-19.3-6.601-39.399-8.801-59.5-10.7-13.8-1.3-27.8-.7-41.399-4-1.9.8-4.3 1.4-4.2 3.701zm544.6-114.401c8.3 21.5 12.9 43.7 11.5 66.9 4.8-.801 8.3 1.6 11.601 4.6 6.899 6.2 13.699 12.6 20.8 18.5 5.7 4.7 10.6 10.5 18.3 14 1-6.9-2.2-11.8-4.5-16.7-12-26-28.2-49.5-43.7-73.5-5.5-8.6-10.399-17.8-18.199-24.8 1.498 3.601 2.798 7.3 4.198 11zm285.3 227.2c16.601.3 33.101 1.3 49.7 1.5 4.601.1 11.5 2.7 13.3-2.7 1.601-4.7-4.8-7.9-8.3-11.4-3.8 1.7-7.7 1.7-11.7 1-34.199-5.899-68.8-4.8-103.3-4.7-2.8 0-5.8-.699-9.5 2.301 20.7 7.5 40.3 14.6 59.9 21.699 1.8-7.1 2.3-7.9 9.9-7.7zm-618.1-219.9c1.7 2.7 4.4 4.101 6.7 5.9 13.6 10.6 27.1 21.399 39 34 3.7 3.899 7.3 7.8 6.899 13.8 3.7.5 7.101 1.7 10.301 3.7 6.699 4.399 13.3 8.899 20.1 13.1 2.7 1.7 4.9 4.5 8.8 4 .601-3.6-1.6-5.899-3.2-8.2-5.8-8.6-12-16.7-18.8-24.5-10.1-11.5-20.899-22.3-32.899-31.899-2.101-1.7-4.5-3.4-2-6.5-14.501-3.901-28.701-5.3-34.901-3.401zm-257.5 183.7c10.9 16.1 21.9 32.1 32.9 48.2 3.199 4.7 5.899 9.6 5.1 15.6 8.9 3.1 18.1 4.3 27.5 4 3.2-.1 7.6 1.1 9-2.5 1.8-4.4-3-6.1-5.6-8.3-23.4-19.2-46.7-38.5-67.4-60.7-2.3-2.4-5.1-4.3-7.6-6.4 1.9 3.4 3.9 6.9 6.1 10.1zm-93.6 231.3c2.6 3.601 6.699.2 10.1-.5 2.3-.399 4.4-1.3 6.7-2 12.399-3.7 25.1-6.5 37.899-8.399 5.4-.801 10.7-.9 14.7 3.699.8-4.1 3.101-7.199 6.3-9.8 3.601-2.899 7.101-5.899 10.5-9.1 2.4-2.3 1.801-4.2-1.399-4.8-4.3-.801-8.601-.301-12.9.3-20.899 2.8-40.8 8.5-58.7 20.1-2.899 1.9-6 4.8-9.699 1.2-2.001 2.8-6.001 5.8-3.501 9.3zm1058.4-91.7c-5.7-6.6-11.899-12.399-18.3-18-4.9 1.5-9.1-.8-13.4-2.5-13-5-25.699-11-39.199-14.6-3.2-.9-6.7-2.8-10.2-.4 1.3 4 4.7 5.2 7.3 7 10.6 7.5 22 13.801 33.1 20.4 2.4 1.4 7.101 1.7 5.7 6.7 16.099 3.5 28.099 4.1 34.999 1.4zm-22.1 68.1c9.7 1.1 19.399 3 29.3 2.1-25.9-16-52.1-31.4-82.1-39.6 1 2.3 2.8 3.6 4.3 5.1 12.2 12.7 26.3 23.5 35.8 38.6 2-6.6 7.1-6.8 12.7-6.2zm-227.5-355.4c4.399 14.3 7.7 28.7 7 43.7 6.5 3.5 7.3 12.2 13.6 16.4 2-3.9.5-6.7-.2-9.5-4.5-19.101-11.5-37.4-19.199-55.4-1.2-2.7-3.101-5.1-4.7-7.6 1.199 4.2 2.299 8.3 3.499 12.4zm-431.2 339.601c2-1.7 4.2-3.301 6.1-5.2 20.101-20.4 40.601-40.2 63.5-57.5 20.4-15.4 39-33.3 60.4-47.4 1.5-1 3.7-1.8 3.4-4.8-3.7-1.2-7.101.6-10.4 1.8-10 3.6-19.6 8.2-28.9 13.6-10.1 5.801-19.5 12.801-30.199 17.5 3.1-3.5 6.1-7.1 9.3-10.399 9.3-9.5 18.899-18.8 28.2-28.3 2.399-2.5 7.1-5.101 4.699-8.9-2.6-4.1-7.199-1.1-10.899 0-2.2.6-4.4 1.6-6.5 2.5-18.601 7.4-35.9 17.3-53.8 26.3-13.5 6.8-24.101 16.4-34 27.3-3.101 3.4-6 7.101-9 10.7-21 25.101-35.801 53.601-46 84.601-.301.899-.4 2-.5 1.899 8.8-8.2 16.899-16.1 25.399-23.5 13.601-11.7 26.9-23.899 43.101-32.1-3.201 11.098-10.601 20.598-13.901 31.899zm490.3-143.701c22.4 26.1 47 49.899 71.101 74.399m-800.601 94.001c9.101-3.3 21.5-12.899 26.601-20.699 11-16.9 24.6-31.9 36.5-48.101m-17.901 70.101c5.6-8.2 11.2-16.301 16.7-24.601 5.5-8.399 13.1-15.2 18.899-25.5m444.601-109.8c-21.101 19-40.2 40-58.4 61.8m42.1-60.1c3.199-7.3 9-12.9 13.1-19.601m-46.5 36.001c-12.8 7.7-25.2 15.9-36.6 25.4"/><path id="hl1" fill="#664B38" d="M1144.806 633.31c-5.5 2.801-10.1 7-15.1 10.601-2.9 2.1-5.7 4.5-9.7 3.3-4-2.7-2.1-5.9-.3-8.6 8.9-12.9 18.5-25.2 28.8-37 2.2-2.5 4.7-3.601 7.9-2.5 9.5-9.801 19-19.601 28.6-29.301 6.3-6.399 13.2-12 21.601-16.1-11 14.2-21.9 28.4-28 45.9 7.3-2.5 12.399-8.2 18.199-12.7 6.101-4.7 11.9-9.7 18-14.3 6-4.5 11.601-9.5 19.101-12.301-8.601 16-20.101 30.101-27.101 47.4 20.301-12.4 40.2-25.5 61-37.1 20.2-11.4 39.101-25.801 63.2-29.5-43.5 42.899-90.899 81.399-131 127.699 1-9.8 7.5-16.6 12.4-24.199 5.2-8.101 10.899-16 16.899-23.5 5.7-7.2 12.2-13.9 19.101-21.7-5.9-1.3-9.2 1.7-12.5 3.899-16.4 10.801-32.7 21.801-49 32.801-14.101 9.5-27 20.6-39.9 31.6-2.8 2.4-5.3 6.6-10.2 3.8-.1-.399-.3-.899-.399-1.3-.4-.8-.9-1.6-1.3-2.3 7.1-15.2 17.1-28.5 26.699-39.7-.5.3-2.6 1.9-4.899 3.1-.7.4-1.5.801-2.2 1.101-.7.2-1.5.399-2.3.399-.7.101-1.5.301-2.2.5-.7.101-1.5.101-2.2.101h-2.2c-.201-.1-.601-.1-1.001-.1zm101.1-190.199c-12 5.8-24 11.6-35.9 17.399-10.2 5-20.399 9.8-29.8 16.101-1.7 1.1-4.5 1.899-3.3 5.1 14.699-.8 160.5-37.7 167.699-42.7-11.1-5.6-23.8-4.8-35.399-9.1 4.5-4.9 11.699-4 15.699-10.2-16.5-1.4-31 4.7-48.399 6.3 10.399-8.5 21.3-11.9 30.8-19.3-29.3.8-64.8 14.5-79.6 30.7 7.699 3.2 15.399-1.7 23.199 1-1.199 3.399-3.299 3.799-4.999 4.7zm356.8-53.901c-13.3-11.1-29.5-17.1-45-24.7 15.1-2.7 30.1 3.2 45-1.5-8.4-5.899-17.9-8.5-27.4-11.3-9.8-3-20.199-1.6-30.1-4.7 6.8-3.2 14.3-3 21.3-5-9.399-.8-18.6-1.7-27.8-3.399-9.2-1.801-18.6-1.5-27.9-1.4-9.6.1-19.1-.2-28.699 2.6-8.5 2.5-17.5 3.101-26.301 4.601 10.2 4.3 20.5 6.2 29.9 11.5-15.7 2.2-31.6 2.3-46.9 8.8 1.4 1.3 1.801 2.1 2.301 2.1 2.3.2 4.6.5 7 .4 27.199-1.8 53.699 1.9 80.199 7.7 24.7 5.298 49.6 9.498 74.4 14.298zm-183.5 251c15.8-24 32.2-47.6 50-70.4-8.9 3.7-16.1 9.4-23.3 15.3-18.9 15.4-35.3 33.4-52.7 50.301-2.5 2.399-4.4 5.899-9.4 6.5.4-6.5 1-12.301 1-18.2 0-5.601 3-11.4-.5-17.7-1.699 1.5-2.899 2.2-3.5 3.3-3.699 5.9-7.6 11.8-10.899 17.9-13 24.399-24.3 49.6-35 75.1-.101.2.1.7.3.9.9 1 .9-1 .8.899 1.8-2.1 3.4-3.8 4.9-5.5 12.7-14.199 26.7-26.899 41.7-38.699 2.699-2.101 5.199-5.2 11.3-3.7-9.601 18.1-16.8 36.399-22.3 55.5 18.099-22.6 31.899-47.701 47.599-71.501zm-290.6 232.401c.1-1.101.1-2.2.199-3.301 1.301-14 5.7-27.399 10.2-40.6 10.5-30.9 23.2-61 38.8-89.8 1.601-2.9 3-6 4.301-9 .699-1.5 1.1-3.4-.601-4.5-1.7-1.101-3.2 0-4.5 1-1.8 1.5-3.5 3.1-5.2 4.7-8.8 8.199-16.199 17.6-24 26.8-1.399 1.6-2.3 4.3-6.199 3.1 0-11.2 7.1-21.3 7.6-33.899-7.4 3-11.1 7.8-14.5 12.6-10.3 14.7-20.9 29.3-28.8 45.5-4.5 9.3-8.7 18.7-13 28.1-1.4 7.2-4.4 14.2-5 22.2 3.8-1.2 4.6-3.6 5.899-5.4 8.4-12.6 18.9-23.3 30.301-33 2.3-1.899 4.5-4 7.5-4.8 2.3-.6 4 .4 4.3 2.8.2 1.601 0 3.301-.4 4.9-4.5 20.2-5.199 41-8.699 61.3-1.801 8.199-1.601 9.499 1.799 11.3zm463.1-353.901l-.1.1c5.899-7.5 11.3-15.7 16.3-24 2.1-3.5 2.7-6.5.3-9.899-4.9-2.601-7.4 1.699-10.1 4.1-8.601 7.4-16.801 15.2-25.2 22.8-2.3 2.101-4.2 4.9-8.9 6.601 5.801-13.601 17.9-21.9 22.4-36-9 .699-13.1 6.3-16.9 11.3-14.399 18.8-28.399 37.8-42.399 56.899-1.2 1.601-3.5 3.5-1.301 6 2.7.5 4.5-1.3 6.7-1.899 3.4 1.3 5.5-.7 8-2.7 5.4-4.6 11-9 17.2-12.5 1.8-1 3.2-4.7 5.3-.3-1.3 2.3-2.399 4.8-3.8 7-10.5 16.3-19 33.6-27.4 51-1.8 3.7-4.1 7.5-3.6 12.8 4.4-1.5 5.9-5.1 8.1-7.7 8.101-9.7 15-20.3 24.101-29.2 16.1-15.3 32.7-30.1 47.6-46.699 4.101-4.601 12.2-6.5 10.8-15.101 3.2-3.6 6.301-7.2 10.101-11.5-5.4-1.2-8.601 1.5-11.7 3.4-5 3.1-9.8 6.5-14.6 9.8-6.902-4.502-7.502 2.998-10.902 5.698zm325.6 163c-12.199-29-27.3-56.1-50.6-77.9m-91.9-150.5c14.5-3.8 28.7-8.5 43.601-11 14.6-2.399 29.2-4.5 46.1-7.1-6.399-4.6-11.7-3.8-16.3-5.4-3.5-1.199-9.4-.399-9.5-5.1-.1-3.6 5.6-3.9 8.8-5.4 4.9-2.3 10.7-2.5 16-6-27.7-11.3-93.2 1.7-108 21.301 16.601-3 32.9-4.4 49.3-4.301-11.3 6.9-22.6 13.9-34 20.801-.501 3.899 1.699 3.199 3.999 2.199zm-54 151.6c3.2-6.3-1.399-13.5 1.601-20.9 14.399 11.7 26.1 24.6 39.6 35.6-1.7-4.899-4.3-9.1-6.8-13.399-17.6-30.5-38.4-58.9-56.5-89l.1-.101c1.301 8.301 5.5 15.601 8.101 23.5 2 6.101 4.699 12.2 4.5 20.301-9.101-5.4-14.4-12.5-19.7-19.601-3.6-4.8-6.3-10.2-10.9-14.2l.101-.1c1.6 5.9 4.899 10.9 7.899 16 11.598 20.2 24.298 39.8 31.998 61.9 0 .1 0 0 0 0zm196.5 76.8c-12.199-29-27.3-56.1-50.6-77.9-1.5 2.2.1 4.3.4 6.5.5 4 1.3 7.9 1.5 11.9.199 2.5 1 5.8-2.101 7.1-2.5 1-4-1.7-5.7-3.2-1.5-1.3-2.8-2.899-4.3-4.199-10.5-9.2-20.5-19.101-31.899-27.101-3.301-2.3-6.5-5.399-11.101-5.1-.3 3.1 1.4 4.4 2.7 5.8 14.1 15.7 26.1 32.8 36.5 51.1 1.6 2.801 2.7 7.4 6.3 6.9 4.9-.7 2.7-5.9 3.601-9.1.199-.601.1-1.3.3-2 .3-1.601.6-3.5 2.6-3.7 1.4-.2 2.5.9 3.2 2 6.4 9 15.3 15.7 21.9 24.6h.1c.7.601 1.3 1.3 2 1.9 2 2.7 4 5.3 6 8 7.8 10.4 14.3 21.6 21.1 32.6 1.7 2.7 2.5 6.2 6.601 2.8 0-1.699.1-3.399.1-5.1-.899-1.2-.6-3-1.6-4.2-.101-.7-.2-1.3-.3-2-2.401-6-4.801-11.8-7.301-17.6z"/><path fill="none" stroke="#000" stroke-miterlimit="10" stroke-width="6" d="M1824.406 357.111c14.7 43 30.5 27 31.8 26.3s29.9-12.7 44-21.7 17.8-4.601 17.8-4.601-22.6 44.9-26.6 52.601-11.601 19.2-.101 21.5c56.5 2.899 65.2 31.899 86.5 44.1 21.301 12.2 5.301 16.2 5.301 16.2s-28.601-1.2-50.301-2c-21.699-.8-20.6 6.8-12.6 12.601 8 5.8 93.4 90.6 93.4 90.6s-12.5 1.7-20.9 1.1c-8.4-.6-25.6 2.2-16.9 6.601 8.7 4.399 22 29.699 34.101 41.199 33.899 26.801 15.899 23.601 15.899 23.601s-12.699 1.899-32.699-4.101-11 16-1.4 24.101c9.6 8.1 29.1 28.2 29.1 28.2s-45.199.1-53-.4c-7.8-.5-20 2.7-10.3 11.2s24.101 34.8 24.101 34.8c6.3 12.5.899 33 11.8 54 15.6 19.6 3.7 17.4 3.7 17.4s-26.9-3.7-44.9-10.601c-18-6.899-15.9 8.2-16 13.3-.1 5.101 9.6 51.601 13.4 62.2 3.8 10.601 2.3 14.2 2.3 14.2s-8.5-3.1-16.9-7.3c-8.399-4.2-13 2.8-13 2.8s6.2 28.4 5.5 43.5 3.4 24.6-4.8 20.8-26.8-38.6-29.1-51.899c-2.301-13.301-9.101-3-12.301 5.699-4.699 4.301-18.3 38.7-19.899 26.2-.3-4.5-16.101-94.8-14.4-99.5s-2.3-53.8-7-74.3-21.6 5.3-26 10.3c-4.399 5-15 20.7-14.5 7.101-2.899-19-8.1-67.7-20.1-90.4-6-18.3-39.3-52.8-49.3-62s-15.801-6.4-15.801-6.4-12.3 10.7-22.6 25.2-15.8 7.601-15.8 7.601-1.7-7.2-21.2-20.101c-28.3-14.1-33.2-6.1-39.9 2.9s-33.1 74.3-33.1 74.3l-.7 9.2c-.7 9.2-1.8 26-10.7 34.5-11-8-17.1-71.3-16.899-89.7s-18.5 5.4-18.5 5.4-29.601 42.3-36.3 62.1c-6.7 19.8-11.9 16.6-11.9 16.6s.4-20.699-3.6-48.399-15.7-8.601-15.7-8.601-57.601 64.2-62.3 69.7c-4.7 5.5-17.301 14-24.4 29.101-7.1 15.1-9.7 4.8-9.7 4.8s0-9.9-1.8-28.7-12.1-6.6-15.8-3.8-42.2 71.3-50.9 96.6-9.9 19.8-9.9 19.8-4.3-8-8.8-19.8-10.1-4.7-14.7 3.2-12.399 87-12.6 93 2.7 21.4-6.8 13.9-55.9-72.9-43.5 32.8c25 82.6-33.4 7.899-33.4 7.899-12.9-14.199-21 9.101-32.3 28.7s-11.7 18.3-31-2.6c-19.3-20.9-14.7-23.601-15.4-39.8-.7-16.2-11.5-9.4-14.5-8.5-3 .899-46.1 14.6-51.7 15.999-5.6 1.4-29.399 11.801-16.6-3.8 17.5-20.899 37.2-57.8 44.8-68.7 7.601-10.899 10.4-25.8-14.2-16.699-24.6 9.1-57.1.6-80.1.699-23 .101-27.7-5.1-24.7-5.5 3-.399 58.8-36.199 77.601-50.699 18.8-14.5-11.2-13.2-19-12.4-7.801.8-84.301-.5-91.4-.9-7.1-.399-13.8-1.199 1.4-9.8 33.1-18.7 106.1-81.7 119.699-97 13.601-15.3 1.7-15.3-3.8-17s-55.5 23-57.8 25.9c-2.3 2.899-16.3 9.5-13.3 0s34.6-57.2 55.2-66.7 23.1-15.2 15.199-20.4c-1.6-5.199-40.5 5.5-50.1 8.301-4.3-.601-25 16.3-16 0 26.7-48.7 87.7-88.601 103.5-97.301 15.8-8.699 8.1-12 4.4-13.1-3.7-1.1-46.5-8.3-57.5-9.3s-30.7-3.7-28.2-6.4 17.3-11.7 25.4-16.7c8.1-5 32.5-29.699 64.699-20.199 32.2 9.5 20.5-16.5 4.301-33.9-16.2-17.4-32.101-44.6-30.301-48.8 1.801-4.2 47.7 19.1 63.9 22.8s24.7 2.1 13.4-8.6c-11.3-10.7-19.4-22.601-16.101-23 3.301-.4 44.301 1.6 67.801 0 23.5-1.601 19.199-13.7 10.399-23.301-8.8-9.6-67.899-19.399-85.5-28.3 7.3-12.5 91.3-35.1 132-30.5 40.7 4.601 14.8-18 14.8-18s-50.1-39.6-43.399-41.1 107.3 18.5 140.1 32.2c32.8 13.699 19.8-2.301 16-7.7-.399-4.2-35.2-28.8-47.7-42 30.2-5.2 163.5 39.7 174.801 44.8 11.3 5.1 13.699 3.1 15.399-3.5 0 0-22.7-29.399-44.2-48.5 4.5-1.399 47.801 18.4 80.601 21.8 31.6 3.601 78.6 20.9 93.1 34.4 21.101 23.2 24.5 12.5 24.5 12.5 11.3-11.7-21.8-83.3-14.7-84 29 7.7 100.101 63 106.601 69.899 27.1 53.4 28.6 32.301 28.6 32.301 4.3-13.4-14.1-67.2-14.1-67.2 14.599-4.003 61.599 59.397 66.999 75.098z"/></svg>