<svg xmlns="http://www.w3.org/2000/svg" id="hair" viewBox="0 0 3000 3000"><path id="cl1" d="M2059.081 405.624c-.701.3-1 .8-.801 1.601-.4.899-1.1 1.6-1.801 2.3l-.1.1c-.6.7-1.301 1.3-2.199 1.7-.301 1-1.102 1.6-2 2.1l.1-.1c-.5.8-1.1 1.5-1.801 2.1l-.1.101c-.6.6-1.199 1.3-1.801 1.899l-.1.101c-1.299.8-.6 3-2.5 3.399l.4.5-.4-.5c-.1 1.301-.799 1.9-2 2.101l.4.399-.4-.399c0 1.2-.9 1.7-1.6 2.399-.6.7-1.199 1.301-1.9 1.9l-.1.1c-.6.601-1.199 1.301-1.699 1.9l-.602.4.102.699c-.201 1.301-.801 2.2-2.201 2.5l.1-.1c0 1.2-.898 1.7-1.6 2.4-.6.6-1.199 1.3-1.699 2l-.6.399.1.7c-.201 1.3-.801 2.2-2.201 2.5l.102-.1c-.102 1.199-.9 1.8-1.9 2.199l.1-.1c-.4 1-1 1.8-2.199 1.9l.398.399-.398-.399c0 1.1-.9 1.699-1.5 2.399v.101c-1.201.899-.602 3.1-2.5 3.5l.398.5-.398-.5c0 1.199-.801 1.8-1.701 2.3v-.101c-.5.8-1 1.5-1.6 2.2l-.6.4.1.7c-.1 1.3-.801 2.1-1.9 2.699l.1-.1c-.5.8-1.1 1.5-1.699 2.2l-.1.2c-1.301.899-.699 3-2.5 3.5l.1-.101c0 1.101-.9 1.7-1.5 2.4v.1c-1.199.9-.699 3.101-2.5 3.601l.1-.101c0 1.101-.9 1.7-1.5 2.4v.1c-1.199 1-.799 3-2.199 3.8l.1-.1c-.5.8-1.1 1.5-1.699 2.2l-.1.2c-1.201 1-.701 2.899-2.201 3.8l.1-.101c-.5.801-1 1.5-1.6 2.2l-.6.4.1.8c-.1 1.2-.9 2-1.699 2.8v.101c-1.201 1-.801 2.899-2.1 3.899v-.1c-.801 1.7-2.102 3-3.602 4.2l-.6.399.1.8c-.1 1.2-.799 2-1.5 2.8l-.6.4.1.7c-.1 1.2-.898 2-1.699 2.8v.1c-1.199 1-.801 2.9-2.1 3.9v-.1c-1 1.199-.6 3.1-2.1 4l.1-.101c-.5.8-1 1.5-1.6 2.2l-.602.4.102.8c-.102 1.2-.801 2-1.5 2.8l-.602.4.102.7c-.102 1.199-.801 2-1.5 2.8l-.602.399.102.7c-.102 1.2-.801 2-1.5 2.8l-.602.4.102.7c-.602 1.6-.5 3.5-1.9 4.8v-.1c-1 1.199-.6 3.1-2.1 4v-.101c-.9 1.3-.602 3-1.801 4.2-1.199 1.1-.801 3-2 4l-.5.5.199.7c-.1 1.1-.799 1.899-1.398 2.8-.602.5-.701 1-.4 1.7-.701 1.399-1.5 2.7.1 4 3.4.5 6.801.899 10.1-.3 12.6-1.4 25.301 1 37.9-1.301 12.699-.399 25.4.801 38.1-.699 12.6-1.4 25.301 1 37.9-1.301 12-.199 24-.3 36-.5 10.6-1.899 21.4.9 31.9-1.5 12.699-.399 25.398.801 38.1-.699 14.801-1.4 29.801.899 44.6-1.2 9.801-.2 19.5-.4 29.301-.601 10-1 19.9-1 29.9 0l.5.4c.299.8.898 1.3 1.6 1.7l.199.3c.801 1.4.801 2.7 0 4l-.199.1c-.701.601-1.4 1.2-2.201 1.601-.6 1.5-2.699.899-3.398 2.3l-.4.2c-.699.5-1.301 1.1-2 1.7l-.1.1c-.602.8-1.102 1.6-2.301 1.6-.699 1.9-2.5 1.4-3.9 2l-.1.101c-.5 1.8-2.6 1.2-3.6 2.3l-.1.1c-.9 1.2-2.801.7-3.5 2.101l-.4.199c-.701.601-1.4 1.101-2.201 1.5-.799 1.5-2.699 1.101-3.799 2.2h-.1c-.801 1.3-2.801.7-3.5 2.101l-.4.199c-.701.601-1.4 1.101-2.201 1.5-.6 1.5-2.699.9-3.398 2.301l-.4.199c-.699.601-1.4 1.101-2.199 1.5-.801 1.5-2.701 1.101-3.801 2.2h-.1c-.602.8-1.201 1.601-2.301 1.601l.5.399-.5-.5c-.4 1.9-2.6 1.3-3.6 2.4l-.1.1c-.602.7-1.102 1.601-2.301 1.601-.5 1.899-2.6 1.3-3.6 2.399l-.102.101c-.898 1.199-2.799.699-3.6 2l-.299.1c-1 1.1-2.801.5-3.602 1.9l-.398.199c-.701.601-1.4 1.101-2.201 1.5-.6 1.5-2.699.9-3.4 2.301l-.398.199c-.701.601-1.4 1.101-2.201 1.5-.799 1.5-2.699 1.101-3.799 2.2h-.102c-.799 1.3-2.799.7-3.5 2.101l-.398.199c-.701.601-1.4 1.101-2.201 1.5-.6 1.5-2.699.9-3.398 2.301l-.4.199c-.701.5-1.301 1.101-2 1.7l-.1.101c-.602.8-1.102 1.6-2.301 1.6-.5 1.9-2.6 1.3-3.6 2.4l-.102.1c-1.1 1.2-2.799 1-4.1 1.8h-.1c-.699 1.5-2.699.9-3.4 2.3l-.4.2c-.699.601-1.398 1.101-2.199 1.5-.6 1.5-2.699.9-3.4 2.3l-.398.2c-.801.601-1.5 1.3-2.602 1.5l-.799-.1-.602.6c-.699.5-1.398 1-2.199 1.5-.6 1.5-2.699.9-3.4 2.3l-.398.2c-.701.601-1.4 1.101-2.201 1.5-.6 1.5-2.699.9-3.4 2.3l-.398.2c-.701.5-1.301 1.101-2 1.7h-.102c-1 1.3-2.799.9-3.898 1.9l-.102.1c-.6.7-1.1 1.6-2.299 1.5-.6 1.9-2.6 1.3-3.701 2.2-.699 1.5-2.699.899-3.398 2.3l-.4.2c-.699.6-1.4 1.1-2.199 1.5-.9 1.6-2.701 1.2-4 2-.701 1.5-2.701.899-3.4 2.3l-.4.2c-.699.6-1.4 1.1-2.199 1.5-.602 1.5-2.701.899-3.4 2.3l-.4.2c-.799.6-1.5 1.3-2.6 1.5l-.801-.101-.6.601c-.699.5-1.4 1-2.199 1.5-.701 1.5-2.701.899-3.4 2.3l-.4.2c-.699.5-1.299 1.1-2 1.7l-.1.1c-.6.8-1.1 1.6-2.301 1.6-.6 1.9-2.6 1.301-3.699 2.2-.801 1.5-2.699 1-3.801 2.101h-.1c-.801 1.3-2.801.699-3.5 2.1l-.4.2c-.699.6-1.398 1.1-2.199 1.5-.6 1.5-2.699.899-3.4 2.3l-.4.2c-.699.6-1.398 1.1-2.199 1.5-.9 1.6-2.699 1.2-4 2-.699 1.5-2.699.899-3.4 2.3l-.398.2c-.701.6-1.4 1.1-2.201 1.5-.6 1.5-2.699.899-3.4 2.3l-.398.2c-.701.5-1.301 1.1-2 1.7h-.102c-.898 1.3-2.799.699-3.699 2l-.301.1c-1 1.1-2.799.5-3.6 1.9l-.4.199c-.699.601-1.398 1.101-2.199 1.5-.6 1.5-2.699.9-3.4 2.301l-.398.199c-.701.601-1.4 1.101-2.201 1.5-.799 1.5-2.699 1.101-3.799 2.2h-.102c-.799 1.3-2.799.7-3.5 2.101l-.398.199c-.701.601-1.4 1.101-2.201 1.5-.6 1.5-2.699.9-3.4 2.301l-.398.199c-.701.601-1.4 1.101-2.201 1.5-.799 1.5-2.699 1.101-3.799 2.2h-.102c-.799 1.3-2.799.7-3.5 2.101l-.398.199c-.701.601-1.4 1.101-2.201 1.5-.6 1.5-2.699.9-3.398 2.301l-.4.199c-.701.601-1.4 1.101-2.201 1.5-.6 1.5-2.699.9-3.398 2.301l-.4.199c-.801.601-1.5 1.301-2.6 1.5l-.801-.1-.6.6c-.699.5-1.4 1-2.199 1.4-.602 1.5-2.701.9-3.4 2.3l-.4.2c-.699.6-1.4 1.1-2.199 1.5-.801 1.5-2.701 1.1-3.801 2.2h-.1c-.801 1.3-2.801.7-3.5 2.1l-.4.2c-.699.6-1.4 1.1-2.199 1.5-.701 1.5-2.701.9-3.5 2.3l-.301.101c-.6.699-1.4 1.199-2.301 1.399l.301.5-.4-.399c-.301 1.8-2.6 1.1-3.199 2.5l-.4.199c-.801.601-1.5 1.301-2.6 1.5l-.801-.1-.6.6c-.699.5-1.4 1-2.199 1.5-.602 1.5-2.701.9-3.4 2.301l-.4.199c-.699.601-1.4 1.101-2.199 1.5-.602 1.5-2.701.9-3.4 2.301l-.4.199c-.801.601-1.5 1.301-2.6 1.5l-.801-.1-.6.6c-.699.5-1.4 1-2.199 1.5-.602 1.5-2.701.9-3.4 2.301l-.4.199c-.699.601-1.4 1.101-2.199 1.5-.701 1.5-2.701.9-3.5 2.301l-.301.1c-1.1 1.1-2.801.7-3.801 1.8l-.199.2c-.6.7-1.301 1.2-2.1 1.7-.6 1.5-2.701.899-3.4 2.3l-.4.2c-.699.6-1.4 1.1-2.199 1.5-.6 1.5-2.701.899-3.4 2.3l-.4.2c-.699.6-1.4 1.1-2.199 1.5-.9 1.6-2.701 1.2-4 2-.701 1.5-2.701.899-3.4 2.3l-.4.2c-.699.6-1.4 1.1-2.199 1.5-.6 1.5-2.701.899-3.4 2.3l-.4.2c-.801.6-1.5 1.3-2.6 1.5l-.801-.101-.6.601c-.699.5-1.4 1-2.199 1.5-.801 1.5-2.701 1.1-3.801 2.2l-.1.1c-.6.7-1.1 1.6-2.301 1.5l.301.5-.4-.5c-.301 1.8-2.6 1.1-3.199 2.5l-.4.2c-.699.6-1.4 1.1-2.199 1.5-2.301 1.7-3.701 4.399-6.102 6h.201c-.6.7-.5 1.3.199 1.899 2 .2 4 .301 6 .5 1.699 1.7 4.1.301 5.9 1.5 1.801.2 3.6.4 5.301.601 2.1 1.1 4.5.399 6.6 1.399l5.4.601c1.5.5 3 .8 4.6 1.1 2.5.3 5 .6 7.4.9 1.5.5 3 .8 4.6 1.1 1.9 1 4.1.7 6.1.7 1.699 1.6 4 .5 5.9 1.3 1.9 1 4.1.7 6.1.7 1.699 1.6 4 .4 5.9 1.4.199.8.699 1 1.4.699 1.5.5 3 .801 4.6 1.101 1.9 1 4.1.7 6.1.7 1.699 1.6 4 .5 5.9 1.3 1.9 1 4.1.7 6.1.7 1.699 1.699 4.1.3 5.9 1.5 2 .199 4 .3 6.1.5 1.699 1.699 4.1.3 5.9 1.5 1.799.199 3.6.399 5.299.6 2.102 1.1 4.5.4 6.602 1.4 1.1.199 2.1.399 3.199.699 1.301.101 2.1.9 2.699 1.9l-.1-.1c1.5 2.6 2.199 5.1-.4 7.5l.102-.101c-.4 1.9-2.602 1.3-3.602 2.4l-.1.1c-.9 1.2-2.801.7-3.5 2.101l-.4.199c-.699.5-1.299 1.101-1.898 1.7l-.102.101c-.6.699-1.299 1.3-2.199 1.699-.4 1-1 1.801-2.199 1.801l.5.399-.5-.399c-.4 1.899-2.602 1.3-3.5 2.399l-.201.2c-.6.7-1.299 1.2-2.1 1.7-.801 1.5-2.699 1.1-3.801 2.2h-.1c-.6.8-1.199 1.6-2.299 1.6l.5.4-.5-.5c-.4 1.899-2.602 1.3-3.5 2.399l-.201.2c-.6.7-1.299 1.2-2.1 1.7-.4 1-1 1.8-2.199 1.8l.5.4-.5-.4c-.4 1.9-2.602 1.3-3.5 2.4l-.201.2c-.699.8-1.4 1.5-2.5 1.6l-.799-.1-.602.6c-.699.5-1.398 1-2.199 1.5-.4 1-1 1.8-2.199 1.8l.5.4-.5-.5c-.301 1.8-2.5 1.2-3.201 2.5l-.4.2c-.699.5-1.299 1.1-2 1.699l-.1.101c-.6.8-1.1 1.6-2.299 1.6l.398.5-.398-.5c-.4 1.8-2.602 1.101-3.301 2.4l-.301.1c-.6.7-1.398 1.2-2.299 1.4l.299.5-.398-.5c-.5 1.8-2.602 1.3-3.602 2.399l-.1.101c-.6.7-1.1 1.6-2.299 1.5l.299.5-.4-.5c-.299 1.8-2.6 1.1-3.199 2.5l-.4.2c-.699.5-1.299 1.1-2 1.699h-.1c-1 1.301-2.801.801-3.801 2l-.199.2c-.6.7-1.301 1.2-2.1 1.7-.4 1-1 1.8-2.201 1.8l.5.4-.5-.5c-.299 1.8-2.5 1.2-3.199 2.5l-.4.2c-.699.6-1.4 1.1-2.199 1.5-.4 1-1 1.8-2.199 1.8l.5.399-.5-.399c-.4 1.899-2.602 1.3-3.5 2.399l-.102.101c1.4 5.5 5.9 2.8 8.9 2.899 27.1.2 54.201.101 81.301.2 3.299 0 6.6-.5 9.799.601.701.1 1.5.3 2.201.399.5.7 1.1 1.2 1.9 1.601l.199.3c.699 2.6 1.9 5.3-.801 7.6l.102-.1c-.5 1.899-2.602 1.399-3.701 2.3h-.1c-.4 1-1 1.8-2.199 1.7-.4 1.899-2.602 1.3-3.5 2.399h-.102c-.6.801-1.199 1.601-2.299 1.601-.301 1.8-2.602 1.2-3.301 2.5l-.301.1c-1.1 1.101-2.799.7-3.898 1.8l-.102.101c-.6.7-1.1 1.6-2.299 1.5-.9 2.7-4.1.399-5.301 2.5l-.4.2c-.699.6-1.398 1.1-2.199 1.5-.6 1.5-2.699.899-3.4 2.3l-.4.2c-.699.6-1.398 1.1-2.199 1.5-1 1.6-2.699 1.3-4.1 1.699l-.1.101c-.5 1.8-2.602 1.2-3.602 2.3l-.1.1c-.6.7-1.1 1.601-2.299 1.5l.299.5-.4-.5c-.398 1.801-2.6 1.2-3.299 2.4l-.301.1c-.6.7-1.4 1.2-2.299 1.4l.299.5-.4-.5c-.5 1.9-2.6 1.3-3.6 2.4l-.1.1c-.9 1.3-2.801.7-3.6 2l-.301.1c-1 1.101-2.799.5-3.6 1.9l-.4.2c-.699.6-1.4 1.1-2.199 1.5-.6 1.5-2.701.899-3.4 2.3l-.4.2c-.799.6-1.5 1.3-2.6 1.5l-.801-.101-.6.601c-.699.5-1.4 1-2.199 1.399-.801 1.601-2.701 1.101-3.801 2.2l-.1.101c-.6.699-1.1 1.6-2.301 1.5l.301.5-.4-.5c-.4 1.8-2.6 1.199-3.5 2.399l-.199.2c-.6.7-1.301 1.3-2.1 1.7-.801 1.5-2.701 1.1-3.801 2.2h-.1c-1 1.3-2.801.899-3.9 2l-.1.1c-.6.7-1.1 1.6-2.301 1.5l.301.5-.4-.5c-.5 1.9-2.6 1.3-3.6 2.4l-.1.1c-.602.7-1.102 1.6-2.301 1.5-.9 2.7-4.1.4-5.301 2.5l-.398.2c-.701.6-1.4 1.1-2.201 1.5-.6 1.5-2.699.899-3.4 2.3l-.398.2c-.701.6-1.4 1.1-2.201 1.5-.799 1.5-2.699 1.1-3.799 2.2h-.102c-1 1.3-2.799.899-3.898 2l-.102.1c-.6.7-1.1 1.6-2.299 1.5l.299.5-.398-.5c-.301 1.8-2.602 1.1-3.201 2.5l-.4.2c-.699.6-1.398 1.1-2.199 1.5-.801 1.6-2.699 1.1-3.801 2.2l-.1.1c-1 1.3-2.799.9-3.9 1.9l-.1.1c-.6.7-1.1 1.6-2.299 1.5l.299.5-.4-.5c-.5 1.9-2.6 1.3-3.6 2.4l-.1.1c-.9 1.3-2.801.7-3.6 2.1l-.4.2c-.801.601-1.5 1.3-2.6 1.5l-.801-.1-.6.6c-.699.5-1.4 1-2.199 1.4-.602 1.5-2.701.899-3.4 2.3l-.4.2c-.699.6-1.4 1.1-2.199 1.5-.801 1.5-2.701 1-3.701 2.2l-.199.199c-.6.7-1.301 1.301-2.1 1.7-.801 1.5-2.701 1.101-3.801 2.2h-.1c-.801 1.3-2.801.7-3.6 2.1l-.4.2c-.701.601-1.4 1.101-2.201 1.5-.799 1.601-2.699 1.101-3.799 2.2l-.1.1c-.9 1.301-2.801.7-3.701 2l-.299.101c-1 1.1-2.801.6-3.701 1.899l-.299.101c-.602.7-1.4 1.2-2.301 1.399l.301.5-.4-.5c-.5 1.9-2.6 1.301-3.6 2.4l-.102.1c-.6.7-1.1 1.601-2.299 1.5-.9 2.7-4.1.4-5.301 2.5l-.4.2c-5.6-2.3-2.1-6.6-2.299-10.2 1.4-3.199.699-6.6.5-9.899 2.299-3.8-.201-8.3 1.699-12.101.701-1.399.701-2.699-.1-4.1-1.9-6.7.699-13.7-1.6-20.3.1-3.2.699-6.5-.4-9.7-1.301-2.8-.1-6-1.4-8.8-.1-6.3-.1-12.601-.199-18.9 1.1-1.2.799-2.8 1.5-4.1.9-1.101.799-2.4.6-3.601.9-1.3.699-3.1 1.6-4.399.5-.5.6-1.2.301-1.9 1.1-1.2.799-2.899 1.699-4.1.5-.4.701-1 .4-1.601.5-.8.9-1.6 1.4-2.399.6-.4.799-.9.6-1.601.9-1.399.699-3.1 1.801-4.399l.1-.101c1.299-1 .799-2.699 1.799-3.899.5-.4.701-1 .4-1.601.5-.8.9-1.6 1.4-2.399.6-.4.801-.9.6-1.601.9-1.3.701-3.1 1.801-4.399l.1-.101c1.301-1 .801-2.699 1.801-3.899.6-.4.699-1 .398-1.601.5-.8.9-1.6 1.4-2.399.6-.4.801-.9.6-1.601.9-1.3.701-3.1 1.801-4.399l.1-.101c1.301-1 .801-2.699 1.801-3.899.5-.4.699-1 .4-1.601.5-.8.9-1.6 1.4-2.399.6-.4.799-.9.6-1.601.9-1.3.699-3 1.6-4.399.1-.601.199-1.2.301-1.9 1.699-1.7.299-4.3 1.699-6.1.1-1.2.301-2.4.4-3.601.799-1.3.799-3 1.4-4.399.898-1.101.799-2.4.6-3.601.799-1.3.799-3 1.4-4.399.199-.601.299-1.3.5-1.9 1.1-1.2.799-2.8 1.5-4.1 1.199-2.7 1-5.4.1-8.101-1.5-3.5.1-7.399-1.4-10.8-.1-2.399-.301-4.8-.4-7.1-2.301-1.5 1.5-6.8-4-6.3l-.1.1c-.699 1.5-2.699.9-3.5 2.2l-.301.1c-1 1.101-2.799.5-3.6 1.9l-.4.2c-.699.6-1.4 1.1-2.199 1.5-.9 1.6-2.699 1.2-4 2-.699 1.5-2.699.899-3.5 2.2l-.301.1c-1 1.1-2.799.5-3.6 1.9l-.4.199c-.699.5-1.299 1.101-1.9 1.7l-.1.101c-1.1 1.5-2.299 2.899-3.9 3.8l-.199.2c-.6.699-1.301 1.3-2.1 1.699-.4 1-1 1.801-2.199 1.801l.5.399-.5-.399c-.4 1.899-2.602 1.3-3.602 2.399l-.1.101c-.6.699-1.1 1.6-2.299 1.5l.299.5-.4-.4c-.1 1.2-.799 1.9-2 2-.1 1.3-.699 1.9-2 2-.1 1.3-.699 1.9-2 2l.5.4-.398-.4c-.4 1.9-2.602 1.3-3.5 2.4l-.201.199c-.6.601-1.199 1.2-1.9 1.801l-.1.1c-.6.6-1.199 1.3-1.9 1.9l-.1.1c-.6.7-1.299 1.3-2 1.8h-.1c-.6.8-1.1 1.6-2.301 1.6l.301.5-.4-.399c-.1 1.2-.799 1.899-2 2 0 1.2-.799 1.8-1.699 2.3l.1-.1c-.4.899-1.1 1.5-1.801 2.1l-.1.1c-.6.601-1.199 1.301-1.9 1.9l-.1.1c-.6.601-1.199 1.2-1.699 1.9l-.6.4.1.699c-.201 1.301-.801 2.301-2.201 2.4l.602.4-.5-.4c0 1.2-.801 1.8-1.701 2.3v-.1c-.5.8-1 1.5-1.6 2.2l-.6.399.1.7c-.1 1.3-.801 2.101-1.9 2.8v-.1c-1 1.1-.5 3.2-2.299 3.8l.5.3-.4-.399a9.014 9.014 0 0 1-1.201 2.399c-.5.4-.699 1-.5 1.601-.398.899-1 1.6-1.6 2.399l-.6.4.1.7c-.6 1.6-.6 3.5-1.699 4.899l-.5.5.299.7c-.6 1.601-.5 3.4-1.699 4.9l-.5.5.301.7c-.301 2.5-1.9 3.8-4.1 4.6l-.5-.4-.5.301c-1.102-.2-1.801-.9-2.602-1.5l-.398-.2c-.5-.7-1-1.5-1.602-2.2 0-1.8.102-3.6.102-5.4 1.398-1.899.299-4.5 1.6-6.5l.199-.3c2.6-3.6 0-7.899 1.699-11.7 1.4-10 .9-20 .301-30.1-1.9-3.2.1-7-1.5-10.3l.1.1c-2.799-2.3-.5-6-2.199-8.6.199-1.8.301-3.5-.6-5.2-1.1-2.2-.4-4.7-1.4-6.8-.199-1.101-.4-2.101-.6-3.2-.701-1.5-.9-3.2-1.4-4.8l.301-.7-.5-.5c-1.701-1.8-.301-4.5-1.9-6.3.299-.7.1-1.2-.4-1.7-.801-1.3-.6-3-1.6-4.3.299-.7.1-1.3-.5-1.7-.801-1.2-.301-2.9-1.701-3.8l-.1-.101c-.699-.899-1.5-1.699-1.6-2.899l.199-.7-.5-.5c-1.199-1.2-.898-3-1.898-4.3.299-.7.1-1.2-.4-1.7-.6-.9-1.301-1.7-1.4-2.8l.1-.7-.6-.4c-.699-.8-1.4-1.699-1.5-2.8l.199-.7-.5-.5c-1.199-1.1-.9-2.899-1.9-4.199v.1c-1-.7-1.799-1.5-1.898-2.8l.1-.7-.6-.4a17.423 17.423 0 0 1-1.602-2.2l.102.101c-1.5-.9-1.102-2.8-2.102-4v.1c-1.398-.899-.898-2.899-2.199-3.899v-.101c-.801-.8-1.6-1.6-1.699-2.8l.1-.7-.6-.399c-.6-.7-1.1-1.4-1.6-2.2l.1.1c-1.1-.6-1.801-1.399-1.9-2.7l.1-.699-.6-.4c-.6-.7-1.1-1.4-1.6-2.2l.1.101c-1.1-.601-1.801-1.4-1.9-2.7l.1-.7-.6-.4c-.6-.7-1.1-1.399-1.6-2.2v.101c-.9-.5-1.699-1.101-1.699-2.3-1.801-.301-1.201-2.601-2.5-3.2l-.301-.2c-1.301-1.2-2.6-2.5-3.6-3.9l-.1-.1c-.602-.6-1.201-1.3-1.801-2-.699-.7-1.6-1.2-1.6-2.4l-.4.4.4-.4c-1.201-.1-1.9-.8-2.1-2l-.102-.1c-.799-.4-1.5-.2-2 .5l-.6.4.1.699c-.1 1.301-.799 2.101-1.898 2.801v-.101c-1 1.2-.602 3.101-2 4.101v-.101c-1 1.2-.602 3.101-2 4.101v-.101c-1 1.2-.602 3.101-2.102 4l.102-.1c-.5.8-1 1.5-1.602 2.2l-.6.399.1.7c-.1 1.3-.799 2.101-1.898 2.8v-.1c-1 1.2-.602 3.1-2 4.1v-.1c-1 1.2-.602 3.1-2.102 4l.102-.1c-.5.8-1 1.5-1.602 2.199l-.6.4.1.8c-.1 1.2-.799 2-1.5 2.8l-.6.4.1.7c-.1 1.2-.799 2-1.5 2.8l-.6.4.1.699c-.1 1.301-.799 2.101-1.898 2.801v-.101c-1 1.101-.5 3.2-2.301 3.8l.5.301-.4-.4c-.301.9-.699 1.7-1.301 2.4l-.6.399.1.7c-.1 1.2-.799 2-1.5 2.8l-.6.4.1.7c-.1 1.199-.799 2-1.5 2.8l-.6.399.1.7c-.199 1.3-.799 2.3-2.299 2.4l.1-.1c.1 1.199-.801 1.8-1.6 2.5-1 1.199-.701 3-2 4v-.101c-1 1.2-.6 3.101-2.1 4l.1-.1c-.5.7-1 1.5-1.5 2.2-.6.5-.701 1-.5 1.699-1 1.2-.6 3.2-2.1 4.2l.1-.1c-.5.8-1.1 1.5-1.701 2.2l-.1.1c-1.199 1-.799 2.9-2.1 3.8v-.1c-1 1.1-.5 3.2-2.301 3.8l.5.3-.398-.399c-.301.899-.701 1.699-1.301 2.399l-.6.4.1.7c-.1 1.2-.801 2-1.5 2.8l-.6.4.1.699c-.1 1.2-.801 2-1.5 2.801l-.6.399.1.7c-.199 1.3-.801 2.2-2.199 2.5l.5.3-.5-.3c-.301.9-.701 1.7-1.301 2.4l-.6.399.1.7c-.1 1.2-.801 2-1.5 2.8l-.6.4.1.7c-.1 1.199-.801 2-1.5 2.8l-.6.399.1.7c-.1 1.2-.9 2-1.699 2.8v.101c-1.201 1-.801 2.899-2.201 3.899v-.1c-1 1.1-.5 3.199-2.299 3.8l.5.3-.4-.4c-.301.9-.701 1.7-1.301 2.4l-.6.4.1.699c-.1 1.2-.9 2-1.699 2.801v.1c-1.201 1-.801 2.9-2.201 3.9v-.101c-1 1.2-.6 3.101-2 4.101v-.101c-1 1.2-.6 3.101-2.1 4l.1-.1c-.5.8-1.1 1.5-1.699 2.2l-.1.1c-1.199 1-.801 2.9-2.1 3.8v-.1c-1 1.2-.6 3.1-2 4.1v-.1c-1 1.2-.6 3.1-2 4.1v-.1c-1 1.1-.5 3.2-2.301 3.8l.5.3-.4-.399c-.299.899-.699 1.699-1.299 2.399l-.602.4.102.7c-.102 1.3-.801 2.1-1.9 2.699v-.1c-.5.7-1 1.5-1.5 2.2-.6.5-.701 1-.5 1.7-1 1.199-.5 3.3-2.4 4l.4.3-.4-.3c-.301.899-.699 1.699-1.301 2.399l-.6.4.1.7c-.1 1.199-.799 2-1.5 2.8l-.6.399.1.7c-.1 1.2-.898 2-1.6 2.8l-.1.2c-.699.4-1.1 1-1.4 1.7-.799.1-1.1.5-.9 1.2-.1 1.3-.799 2.1-1.898 2.8v-.1c-1 1.2-.602 3.1-2 4.1v-.1c-1 1.1-.5 3.2-2.4 3.7l.4.399-.4-.399c-.301 1.8-1.474-.742-2.175.559l-.299.1c-2 1.1-2.596 2.736-4.496 1.136l-1.404-1.336c-.801-.6-1.5-1.4-1.9-2.3.199-3.9-.526-5.858-1.427-9.658-1.5-1.801-.199-4.5-1.699-6.301-.1-1.199-.301-2.5-.4-3.699-.801-1.301-.801-2.9-1.301-4.301l.102.101c-2.5-1.601-.9-4.601-2.201-6.601-.199-1.1-.4-2.1-.6-3.199-1.199-1.9-.1-4.4-1.6-6.301.301-.6.199-1.199-.301-1.699-1.799-2.5.201-5.801-1.699-8.301.301-.6.199-1.199-.301-1.699-1.4-2.101-.5-4.7-1.6-6.9-.199-1.1-.4-2.1-.6-3.2-1.199-1.9-.1-4.4-1.6-6.3.299-.6.199-1.2-.301-1.7-1.5-1.9-.4-4.4-1.5-6.3l.1.1c-2.5-1.399-.699-4.399-2.299-6.1-.201-1.2-.301-2.4-.5-3.6-.701-1.5-.9-3.2-1.4-4.801-.1-1.1-.301-2.1-.4-3.199-1.4-2.101-.5-4.7-1.6-6.9-.1-1-.301-2.1-.4-3.1-1.5-1.801-.199-4.5-1.699-6.301-.102-1.199-.301-2.5-.4-3.699-.701-1.5-.9-3.2-1.4-4.801-.1-1.1-.301-2.1-.4-3.199-1.6-1.7 0-4.301-1.799-6v-.101c-1.701-1.8-.301-4.5-1.801-6.399.199-.601.1-1.101-.301-1.601-1.398-2.1-.5-4.7-1.6-6.899-.199-1.101-.4-2.101-.6-3.2-1.1-2.2-.4-4.7-1.4-6.8-.199-1.101-.4-2.101-.6-3.2-1.199-1.9-.1-4.4-1.6-6.3.299-.601.199-1.2-.301-1.7-1.4-2.101-.5-4.7-1.6-6.9-.199-1.1-.4-2.1-.6-3.2-1.301-1.8.1-4.3-1.701-5.899v-.101c-1.1-1.399-1.199-3.2-1.699-4.8-.1-1.1-.301-2.1-.4-3.2-1.5-1.8-.199-4.5-1.699-6.3.299-.6.199-1.2-.301-1.7-1.5-1 .301-5.1-3.699-4l-.6.4.1.7c-.1 1.3-.801 2.1-1.9 2.7l.1-.101c-.5.8-1.1 1.5-1.699 2.2l-.1.1c-1.201.9-.701 3-2.5 3.5l.398.301-.398-.4c0 1.1-.9 1.7-1.5 2.4v.1c-1.201.9-.701 3.1-2.5 3.6l.398.3-.398-.399c0 1.1-.9 1.7-1.5 2.399v.101c-1.201.899-.602 3.1-2.5 3.5 0 1.2-.801 1.8-1.701 2.3v-.1c-.5.8-1 1.5-1.6 2.199l-.6.4.1.7c-.1 1.3-.801 2.1-1.9 2.7l.1-.101c-.5.8-1 1.5-1.6 2.2l-.6.4.1.699c-.199 1.301-.799 2.2-2.199 2.5l.1-.1c-.1 1.2-.9 1.8-1.9 2.2l.1-.101c-.299 1-1 1.7-2 2.101v-.101c-.5.801-1 1.5-1.6 2.2l-.6.4.1.7c-.1 1.3-.799 2.1-1.9 2.7l.102-.101c-.5.8-1 1.5-1.602 2.2l-.6.4.1.699c-.1 1.301-.799 2.101-1.898 2.7l.1-.1c-.5.8-1.1 1.5-1.701 2.2l-.1.1c-1.199.9-.699 3-2.5 3.5l.4.3-.4-.399c0 1.1-.9 1.699-1.5 2.399v.101c-1.199.899-.699 3.1-2.5 3.6l.4.3-.4-.399c0 1.1-.9 1.699-1.5 2.399v.101c-1.199.899-.699 3.1-2.5 3.6l.4.3-.4-.4c0 1.2-.9 1.7-1.6 2.4-.6.6-1.199 1.3-1.699 2l-.6.4.1.7c-.1 1.3-.801 2.1-1.9 2.699l.1-.1c-.5.8-1 1.5-1.6 2.2l-.6.399.1.7c-.1 1.3-.801 2.101-1.899 2.7l.1-.1c-.5.8-1 1.5-1.6 2.2l-.201.3c-.699.399-1.199 1-1.6 1.7l-.301.199c-1.398.7-.799 2.9-2.499 3.4l.4.4-.4-.4c0 1.1-.9 1.7-1.5 2.4v.1c-1.199.9-.699 3.1-2.5 3.6l.4.301-.4-.4c0 1.1-.899 1.7-1.5 2.4v.1c-1.199.9-.6 3.1-2.5 3.5 0 1.2-.8 1.8-1.699 2.3v-.1c-.5.8-1 1.5-1.601 2.2l-.6.399.1.7c-.1 1.3-.8 2.1-1.899 2.7l.1-.101c-.5.801-1 1.5-1.6 2.2l-.601.4.101.7c-.101 1.3-.801 2.1-1.9 2.699l.1-.1c-.5.8-1 1.5-1.6 2.2l-.6.399.1.7c-.2 1.3-.8 2.2-2.2 2.5l.4.3-.4-.3c0 1.101-.899 1.7-1.5 2.4v.1c-1.2.9-.7 3.101-2.5 3.601l.4.3-.4-.4c0 1.101-.899 1.7-1.5 2.4v.1c-1.2.9-.7 3.101-2.5 3.601l.101-.101c-.101 1.2-.9 1.8-1.9 2.2l.1-.1c-.3 1-1 1.699-2 2.1v-.1c-.5.8-1 1.5-1.6 2.199l-.6.4.1.7c-.1 1.3-.8 2.1-1.9 2.7l.101-.101c-.5.801-1 1.5-1.601 2.2l-.6.4.1.7c-.1 1.3-.8 2.1-1.899 2.699l.1-.1c-.5.8-1.1 1.5-1.7 2.2l-.1.1c-1.2.9-.7 3-2.5 3.5l.4.3-.4-.399c0 1.1-.9 1.7-1.5 2.399v.101c-1.2.899-.7 3.1-2.5 3.6l.4.3-.4-.399c0 1.1-.9 1.7-1.5 2.399v.101c-1.2.899-.7 3.1-2.5 3.6l.4.3-.4-.399c0 1.199-.9 1.699-1.6 2.399-.601.601-1.2 1.3-1.7 2l-.601.4.101.7c-.101 1.3-.8 2.1-1.9 2.7l.101-.101c-.5.8-1 1.5-1.601 2.2l-.6.4.1.699c-.1 1.301-.8 2.101-1.899 2.7l.1-.1c-.5.8-1 1.5-1.6 2.2l-.2.3c-.7.4-1.2 1-1.601 1.7l-.3.2c-1.399.699-.8 2.899-2.5 3.399l.4.4-.4-.4c0 1.101-.899 1.7-1.5 2.4v.1c-1.2.9-.6 3.101-2.5 3.5l.101-.1c-3.101 2.399-6.101 2.399-9.2 0l.1.1c-2-.6-1.399-2.7-2.399-3.899.3-.7.1-1.2-.4-1.7-2-11.601.7-23.3-1.4-34.9-.199-7.7.801-15.5-.6-23.1-1.2-1.9-.1-4.4-1.6-6.3 0-25.9 1-51.801-.5-77.7-1.4-9.5-.2-19.101-.7-28.7-.101-2.2 1.6-5.8-3.101-5.5-.3.9-1.1 1.5-1.8 2.1l-.1.101c-.601.6-1.2 1.3-1.8 1.899l-.101.2c-1.3.8-.6 3-2.5 3.4l.4.399-.4-.5c-.1 1.301-.8 1.9-2 2-.1 1.301-.8 1.9-2 2.101l.4.3-.4-.4c0 1.2-.899 1.7-1.6 2.4-.601.7-1.2 1.3-1.9 1.9l-.1.1c-.601.6-1.2 1.2-1.7 1.9l-.6.399.1.7c-.2 1.3-.8 2.3-2.2 2.4l.101-.101c-.301 1.8-2.601 1.2-3.301 2.5l-.6.4.1.7c-.199 1.3-.8 2.3-2.199 2.399l.5.4-.5-.4c0 1.2-.801 1.8-1.7 2.3l.1-.1c-.5.8-1.1 1.5-1.8 2.1l-.1.101c-.601.6-1.2 1.3-1.801 1.899l-.1.2c-1.3.8-.6 3-2.5 3.4l.4.399-.4-.5c-.1 1.301-.8 1.9-2 2-.1 1.301-.8 1.9-2 2.101l.4.3-.4-.4c0 1.2-.9 1.7-1.6 2.4-.601.7-1.2 1.3-1.9 1.9l-.1.1c-.601.6-1.2 1.2-1.7 1.9l-.601.399.101.7c-.3 2-2.601 1.5-3.4 2.9l-.399.2c-.7.5-1.2 1.1-1.7 1.8l-.601.399.101.7c-.2 1.3-.8 2.3-2.2 2.4l.5.3-.5-.4c-.1 1.301-.8 1.9-2 2.101l.4.3-.4-.4c0 1.2-.9 1.7-1.6 2.4-.601.7-1.2 1.3-1.9 1.9l-.1.1c-.601.6-1.2 1.3-1.801 1.9l-.1.199c-1.3.801-.6 3-2.5 3.4l.4.4-.4-.5c-.1 1.3-.8 1.899-2 2.1l.4.3-.4-.399c0 1.199-.9 1.699-1.6 2.399-.601.7-1.2 1.3-1.9 1.9l-.1.1c-.601.7-1.301 1.3-2 1.8-.9 1.7-2.2 3-3.801 4l-.199.2c-.601.601-1.101 1.2-1.601 1.9l-.6.399.1.7c-.199 1.3-.8 2.3-2.199 2.4l.5.3-.4-.4c-.1 1.301-.8 1.9-2 2 0 1.2-.8 1.801-1.7 2.301l.101-.101c-.5.8-1.101 1.5-1.801 2.101l-.1.1c-.6.6-1.2 1.3-1.8 1.9l-.101.199c-1.3.801-.6 3-2.5 3.4l.4.5-.4-.5c0 1.3-.8 1.9-1.899 2.2-1.301 1.8.399 4.7-2.101 6.1l.101-.1c-.9 8.2-1.4 16.3.3 24.4 1.3 1.1 1 3 1.9 4.3-.301.6-.2 1.2.399 1.6.9 1.3.7 3 1.601 4.4-.301.6-.2 1.2.399 1.6.9 1.3.7 3 1.601 4.4-.301.6-.2 1.2.399 1.6.9 1.3.7 3 1.601 4.4-.2.7-.101 1.2.6 1.6.7 1.2.3 2.9 1.6 3.8l.101.101c1.1 1.1.699 2.899 2 3.899v.101c1.1 1.1.699 2.899 1.899 3.899l.101.101c1.1 1.3.899 3 1.8 4.399-.2.7 0 1.2.6 1.601.7 1.3.5 3 1.5 4.1.2.6.301 1.3.5 1.9.7 1.199.301 2.899 1.601 3.8l.1.1c1.1 1.2.8 2.9 1.8 4.101 1.301 1.199 1.101 3 1.9 4.399-.2.7 0 1.2.6 1.601.7 1.3.5 3 1.5 4.1-.1 1-.1 1.9-.199 2.9-2.301 3.199-4.9 2.1-7.5.6h.1c-.8-.4-1.5-1-2.1-1.7l-.2-.2c-.9-1.2-3-.6-3.5-2.399l-.1-.101c-1.4-.5-3.301 0-3.9-2l-.5.4.5-.4c-1.2 0-1.8-.8-2.2-1.8-.8-.4-1.5-.9-2.2-1.5l-.399-.2c-.7-1.399-2.9-.7-3.2-2.5l-.4.4.301-.5c-1.2.1-1.7-.8-2.301-1.5l-.1-.1c-1-1.101-3.1-.5-3.5-2.4l-.5.5.5-.4c-1.3 0-1.9-.7-2-1.899l-.1-.101c-1.4-.5-3.2 0-3.9-2-1.2.101-1.7-.8-2.3-1.6h-.101c-.699-.6-1.3-1.1-2-1.7l-.399-.2c-.7-1.399-2.8-.8-3.4-2.3-.8-.4-1.5-1-2.1-1.7l-.2-.2c-1-1.1-2.9-.699-3.8-2h-.101c-.699-.6-1.3-1.1-2-1.699l-.399-.2c-.7-1.4-2.9-.7-3.2-2.5l-.4.399.301-.5c-1.2.101-1.7-.8-2.301-1.5l-.1-.1c-1.4-.7-2.8-1.7-4.1.2.1.7.199 1.3.3 2 .899 1.2.6 2.9 1.6 4.1 1.9 1.601.3 4.4 2 6.101.2.6.3 1.199.5 1.899.7 1.3.4 3 1.5 4.101.2.6.3 1.3.5 1.899.601 1.4.601 3 1.4 4.4-.3.6-.2 1.2.399 1.6.9 1.3.7 3 1.601 4.4-.2 1.3-.3 2.5.6 3.6.7 1.3.4 3 1.5 4.101.2.6.3 1.199.5 1.899.7 1.101.2 2.8 1.7 3.7l.2.3c.8 1.4.8 3.101 1.6 4.5-.2.601-.1 1.101.4 1.5.899 1.3.7 3 1.6 4.4-.2 1.3-.3 2.5.601 3.6.6 1.4.8 2.7-.7 3.7l.1-.1c-1.1 1.6-2.399 1.399-3.7.5l-.6-.601-.8.101c-1.5-.7-3.4-.4-4.4-2-1.3-.8-3-.5-4.1-1.601l-.601-.6-.8.1c-1.5-.699-3.399-.399-4.399-2-1.301-.8-2.9-.6-4.101-1.6l-.3-.1c-.9-1.301-2.7-.801-3.8-1.801l-.7-.6-.9.2c-1.3-.8-3.1-.6-4.3-1.7l-.3-.1c-1.2-1.3-2.5-1.2-3.7 0-.5 1.399-.6 2.8.3 4.1 1.601 4.6-.8 9.6 1.5 14.1-.3 10.601-.8 21.2.301 31.801.8 1.3.8 2.6.1 3.899-1.4 10.4-.4 20.8-.6 31.101-1.7 3.399.399 7.5-1.801 10.899-.1 1-.199 2.101-.3 3.101-.1 1.199-.8 2-1.6 2.899-.101 1-.301 2.101-.4 3.101-.5 2.199-2.8 1.8-4.1 2.699l-.601-.399-.6.399c-1.4-.899-3.6-.399-4.1-2.699l.1-.7-.6-.4c-.601-.699-1.101-1.5-1.301-2.399v.1c-1.899-.9-1.6-3-2.199-4.5l.1-.7-.6-.399c-.7-.801-1.4-1.7-1.5-2.801l.1-.699-.6-.4c-.7-.8-1.4-1.7-1.5-2.8l.1-.7-.6-.4c-1-1.2-.7-2.899-1.7-4.1v.1c-1.4-1-1-2.899-2-4.1v.1c-1.4-.899-.9-2.8-2.101-3.8l-.1-.1c-.7-.7-1.2-1.4-1.7-2.2l.101.1c-1.5-1-1.2-2.8-1.9-4.2v.101c-1.7-.7-1.3-2.7-2.3-3.9v.101c-1.4-1-1-2.9-2-4.101v.101c-1-.7-1.8-1.5-1.9-2.801.101-.699-.2-1.199-.899-1.199-.301-.7-.7-1.301-1.4-1.7l-.1-.2c-.5-.8-1.5-1.3-1.4-2.4l-.4.4.4-.3c-1.8-.5-1.2-2.7-2.5-3.601v-.1c-.8-.8-1.6-1.6-1.7-2.8l.101-.7-.601-.4c-.6-.699-1.1-1.399-1.6-2.199v.1c-.9-.5-1.7-1.1-1.7-2.3-1.9-.4-1.3-2.601-2.5-3.5v-.101c-.6-.7-1.6-1.301-1.5-2.4l-.4.3.4-.3c-1.4-.3-2-1.2-2.2-2.5l.101-.7-.601-.4c-.6-.699-1.1-1.399-1.6-2.199v.1c-.9-.5-1.7-1.1-1.7-2.3l-.5.399.5-.399c-1.4-.2-2-1.101-2.2-2.4l.101-.7-.601-.399c-.5-.7-1.1-1.3-1.699-1.9l-.101-.1a9.124 9.124 0 0 1-1.8-2.101l.1.101c-.899-.5-1.699-1.101-1.699-2.3-1.301-.101-1.9-.7-2-2-1.7-1-3-2.301-4-4-1.301-.101-1.9-.7-2-2-1.301-.101-1.9-.7-2-2l-.5.399.5-.399c-1.4-.101-2-1-2.2-2.301-12.2-14.399-27.7-24.5-44.3-33.1-7.7-4-15.601-7.3-23.9-9.7-14.6-4.2-29.4-4.7-43.8.3-17.5 6-27 20-32.5 36.601-6.301 19-5.601 38.3 3.199 56.3 9.801 19.9 20.9 39.2 34.9 56.6.7.601 1.5 1.2 2 2.101 1.4.699.8 2.8 2.3 3.399l.4.4c.3.8.8 1.3 1.6 1.6l.5.5c.301.801.801 1.301 1.5 1.5l.5.5c.301.801.801 1.301 1.5 1.5l.5.5c.301.801.801 1.301 1.5 1.5.4 1.101.9 2.2 2.301 2.5.199 1.801-.2 2.9-2.301 1.9l-.699-.5-.801.3c-2.6-1.699-5.8.101-8.399-1.6-1.7-1.3-3.5-.9-5.4-.4-2.1-1.199-4.6-.199-6.6-1.6l-.601-.6-.8.1c-1.5-.6-3.2-.6-4.6-1.6l-.601-.601-.8.101c-2.1-1.2-4.6-.2-6.6-1.601l-.601-.6-.8.1c-1.5-.6-3.2-.6-4.6-1.6-1-1-2.2-.9-3.4-.5-1-.2-1.8-.8-2.6-1.4l-.601-.6-.8.1c-2-1.2-4.7 0-6.5-1.8h-.1c-1.7-1.6-4.301-.2-6-1.7l-.7-.6-.9.2c-1.899-1.4-4.6 0-6.3-1.9h-.1c-2.3-2-5.7.3-7.9-2h-.1c-1.7-1.7-4.4-.1-6-1.9l-.7-.5-.8.301c-1.9-1.4-4.5-.2-6.4-1.601l-.6-.6-.8.1c-2-1.2-4.7 0-6.601-1.7l-.7-.5-.8.301c-1.899-1.4-4.5-.2-6.399-1.601-1-1-2.2-.899-3.4-.399-1.5-.601-3.2-.601-4.6-1.601l-.7-.6-.9.2c-1.899-1.4-4.5-.2-6.399-1.601l-.7-.6-.9.2c-1.9-1.4-4.5-.2-6.4-1.601l-.6-.6-.8.1c-1.9-1.399-4.8.4-6.2-2.2l-.1-.1c-1.4-.4-3-.3-4.3-1.3l-.601-.601-.8.101c-2-1.2-4.7 0-6.5-1.8h-.1c-1.7-1.601-4.301-.2-6-1.7l-.601-.601-.8.101c-1.5-.601-3.2-.601-4.6-1.601l-.601-.6-.8.1c-2-1.199-4.7 0-6.5-1.8h-.1c-1.601-1.7-4.3 0-5.9-2h-.1c-1.601-1.6-4.2-.2-5.9-1.8l-.3-.1c-1.4-1.9-4.2-.101-5.7-2.101h-.1c-1.601-1.699-4.3 0-5.9-2h-.1c-1.101-1.1-2.8-.699-4-1.699l-.601-.601-.8.101c-1.5-.7-3.3-.5-4.6-1.7l-.601-.5-.8.2c-1.5-.7-3.3-.5-4.5-1.801h-.1c-1-1.1-3-.6-3.8-2.1-1.301-.8-2.9-.6-4.101-1.6l-.3-.101c-1.5-1.899-4.1-.2-5.7-1.899l-.3-.101c-.9-1.3-2.7-.8-3.7-1.899l-.3-.101c-.9-1.3-2.7-.8-3.8-1.8l-.6-.6-.801.1c-1.5-.6-3.199-.6-4.5-1.6l-.3-.101c-.899-1.3-2.7-.8-3.7-1.899l-.3-.101c-1.399-1.899-4.3 0-5.6-2.199-1.3-.801-2.9-.601-4.101-1.601l-.3-.1c-.899-1.3-2.7-.8-3.7-1.9l-.3-.1c-.899-1.3-2.7-.8-3.7-1.9l-.3-.1c-.899-1.3-2.7-.8-3.8-1.8l-.6-.601-.8.101c-1.4-.7-3.4-.301-4.2-2.2-.9-.2-1.7-.7-2.3-1.4l-.301-.1c-.8-1.3-2.8-.7-3.5-2.2h-.1c-1.2-.8-3.1-.4-4-2-1.3-.8-3-.5-4-1.8l-.1-.101c-1.101-1.1-3-.6-3.801-2.1-1.199-.9-3.199-.3-3.699-2.2l-.4.4.3-.5c-.899-.2-1.7-.7-2.399-1.3l-.601-.601-.8.101c-1.4-.7-3.4-.301-4.2-2.2-1.2.1-1.7-.8-2.3-1.5l-.1-.101c-1.101-1.1-3-.6-3.801-2.199-.8-.4-1.5-.9-2.199-1.5l-.4-.2c-1.1-2.101-4.4.2-5.2-2.601l-.5.4.5-.4c-1.2 0-1.8-.8-2.2-1.8-.8-.399-1.5-.899-2.199-1.5l-.4-.2c-.7-1.399-2.8-.8-3.4-2.3-.8-.399-1.5-.899-2.2-1.5l-.399-.2c-.7-1.399-2.9-.699-3.2-2.5l-.1-.1c-1.4-.5-3.2 0-3.9-2-1.2.1-1.7-.8-2.3-1.6h-.101c-.699-.601-1.3-1.101-2-1.7l-.403-.2c-.7-1.4-2.9-.7-3.2-2.5l-.5.5.5-.5c-1.3-.101-1.899-.7-2-2-1.3-.101-1.899-.7-2-2-1.3-.101-1.899-.7-2-2-1.3-.101-1.899-.7-2-2-1.3-.101-1.899-.7-2-2l-.3.399.3-.399c-1.2.1-1.7-.801-2.3-1.601h-.1c-.7-.6-1.4-1.2-2-1.899l-.101-.101c-.6-.6-1.3-1.2-1.899-1.899l-.101-.101c-.6-.6-1.3-1.2-1.899-1.899l-.101-.101c-.7-.6-1.3-1.3-1.899-1.899-1.2-1.301-1.2-2.601.199-3.801h-.1c.5-.899 1.3-1.5 2.2-2h16.899c8.801 2 17.801-.1 26.601 1.2 9.3 1.5 18.7.3 28.1.7 9.2 2.3 18.601-.1 27.9 1.3 9.3 1.5 18.7.3 28.1.7 9.2 2.3 18.601-.1 27.9 1.3 9.3 1.5 18.7.3 28.1.7 9.2 2.3 18.601-.1 27.9 1.3 4.7 1.3 9.399.7 14.1.3 1.7-.6.8-1.199 0-1.699l-.6-.5-.8.199c-1.5-.699-3.4-.399-4.4-2-1.3-.8-2.9-.6-4.1-1.6l-.301-.1c-1.399-1.9-4.3 0-5.6-2.2-1.3-.8-3-.5-4-1.8h-.1c-1.101-1.101-2.8-.7-3.9-1.801l-.3-.1c-1.4-1.9-4.3 0-5.6-2.3-.801-.4-1.5-.9-2.2-1.4l-.601-.6-.8.1c-1.5-.7-3.399-.399-4.399-2-1.2-.8-3.101-.399-4-2-1.301-.8-2.9-.6-4.101-1.6l-.3-.101c-.9-1.3-2.7-.8-3.7-1.899l-.3-.101c-.9-1.3-2.7-.8-3.8-1.8l-.601-.6-.8.1c-1.5-.6-3.2-.6-4.5-1.6l-.3-.101c-.9-1.3-2.7-.8-3.7-1.899l-.3-.101c-.9-1.3-2.7-.8-3.7-1.899l-.3-.101c-1.4-1.899-4.3 0-5.6-2.199-1.2-.801-3.101-.4-4-2-1.2-.9-3.2-.301-3.7-2.2l-.4.5.4-.5c-1.2.1-1.7-.8-2.3-1.5l-.101-.101c-1.1-1.1-3-.6-3.8-2.1h-.1c-1.3-.8-2.9-.6-4.101-1.6l-.3-.101c-.899-1.3-2.7-.8-3.7-1.899l-.3-.101c-.899-1.3-2.8-.8-3.7-2l-.1-.1c-1.1-1.1-2.9-.7-3.9-2h-.1c-1.1-1.1-2.8-.7-3.9-1.8l-.3-.101c-.899-1.3-2.8-.8-3.7-2l-.1-.1c-1.1-1.1-3-.6-3.8-2.1h-.101c-1.3-.8-2.899-.601-4.1-1.601l-.3-.1c-.8-1.3-2.8-.7-3.5-2.2h-.101c-1.199-.8-3.1-.399-3.899-2-.8-.399-1.5-.899-2.2-1.5l-.4-.2c-.699-1.399-2.8-.8-3.399-2.3-.8-.399-1.5-.899-2.2-1.399l-.6-.601-.801.101c-1.399-.7-3.399-.301-4.199-2.2-.9-.2-1.7-.7-2.301-1.4l-.3-.1c-.8-1.3-2.8-.7-3.5-2.2h-.1c-1.2-.8-3.101-.4-4-2-1.2-.8-3.101-.4-3.9-2-.8-.4-1.5-.9-2.2-1.5l-.399-.2c-.7-1.4-2.8-.8-3.4-2.3-.8-.4-1.5-.9-2.2-1.4l-.6-.6-.8.1c-1.101-.2-1.8-.899-2.601-1.5l-.399-.2c-.8-1.399-2.7-.8-3.601-2.1l-.1-.1c-1-1.101-3.1-.5-3.5-2.4l-.5.5.5-.4c-1.2 0-1.8-.8-2.2-1.8-.8-.399-1.5-1-2.1-1.7l-.2-.199c-.9-1.2-3-.601-3.5-2.4l-.1-.1c-1.4-.5-3.2 0-3.9-2-1.2.1-1.7-.801-2.3-1.5l-.101-.101c-1-1.1-3.1-.5-3.5-2.399l-.5.5.5-.4c-1.199 0-1.8-.8-2.199-1.8-.801-.4-1.5-.9-2.2-1.4l-.601-.6-.8.1c-1.1-.2-1.8-.899-2.5-1.6l-.2-.2c-.899-1.2-3.1-.5-3.5-2.4l-.5.5.5-.399c-1.199 0-1.8-.8-2.199-1.8-.801-.4-1.5-1-2.2-1.7l-.101-.101c-.6-.6-1.199-1.199-1.899-1.699l-.4-.2c-.7-1.4-2.899-.7-3.2-2.5l-.399.399.3-.5c-1.2.101-1.7-.8-2.3-1.5l-.101-.1c-1-1.1-3.1-.5-3.6-2.4l-.4.5.301-.5c-1.2.101-1.7-.8-2.301-1.6h-.1c-.7-.6-1.3-1.2-2-1.8l-.2-.2c-.899-1.2-3.1-.5-3.5-2.4l-.5.5.5-.399c-1.3-.101-1.899-.7-2-2-1.2 0-1.8-.8-2.2-1.7h-.1c-1.2-.9-3.2-.3-3.7-2.3l-.399.5.5-.4c-1.301-.1-1.9-.7-2-2-1.301-.1-1.9-.7-2-2l-.301.4.301-.4c-1.2.1-1.7-.8-2.301-1.6h-.1c-.7-.601-1.4-1.2-2-1.9l-.1-.1c-.601-.601-1.301-1.2-1.9-1.9l-.1-.1c-.601-.601-1.301-1.2-1.9-1.9l-.1-.1c-.601-.601-1.301-1.2-1.9-1.9l-.1-.1c-.601-.601-1.301-1.2-1.9-1.9l-.1-.1c-.601-.601-1.2-1.2-1.9-1.7l-.4-.2c-.8-1.4-2.699-.8-3.6-2.1h-.1c-.7-.601-1.4-1.2-2-1.9l-.101-.1a9.1 9.1 0 0 1-1.8-2.101l.1.101c-.899-.5-1.699-1.101-1.699-2.3-1.301-.101-1.9-.7-2-2-1.301-.101-1.9-.7-2-2-1.301-.101-1.9-.7-2-2-1.301-.101-1.9-.7-2-2-1.301-.101-1.9-.7-2-2l-.5.399.5-.399c-1.4-.2-2-1.101-2.2-2.4l.1-.7-.6-.4c-.7-1.3-2.9-.699-3.3-2.5l-.5.5.5-.399c-1.301-.101-1.9-.7-2-2l-.4.5.5-.5c-1.9-.4-1.3-2.601-2.5-3.4l-.1-.1c-.601-.601-1.2-1.3-1.801-2-.699-.7-1.6-1.2-1.6-2.4l-.4.4.4-.4c-1.2-.2-1.9-.8-2-2.1l-.4.5.5-.5c-1.899-.4-1.3-2.601-2.5-3.4l-.1-.1c-.7-.7-1.2-1.4-1.7-2.2l.101.1c-1.101-.6-1.801-1.399-1.9-2.699l.1-.7-.6-.4c-.6-.7-1.1-1.399-1.6-2.2l.1.101c-1.1-.601-1.8-1.4-1.9-2.7l.2-.7-.5-.5c-1.2-1.2-1-2.899-1.6-4.399l.1.1c-1.8-1-1.5-3-2.2-4.6l.2-.7-.5-.5c-1.2-1.4-1.2-3.2-1.7-4.9l.301-.7-.5-.5c-1.4-2-1.301-3.899 0-5.899.6.199 1.3.199 1.899.1.601.5 1.3 1 2 1.3 1.4.2 2.7.5 4.101.7 1.1 1.1 2.8.7 4 1.7.199.7.699.8 1.3.5 1 0 1.7.899 2.6 1.1 1.101.3 2.3.601 3.4.8 1.5.601 3.2.7 4.6 1.4.601.2 1.3.3 1.9.5.6.5 1.3 1 2.1 1.4.2.699.601 1 1.3.699 1 0 1.7.9 2.601 1.101 1.1.3 2.3.6 3.399.8 1.5.6 3.2.7 4.601 1.4.7.1 1.399.3 2 .399 1.1 1.101 2.8.7 4 1.601.7.1 1.399.3 2 .399 1.7 1.7 4.2.3 6 1.601.7.1 1.399.3 2 .399 1.1 1.101 2.7.7 4 1.5 1.3.2 2.7.3 4 .5 1.1.9 2.6.9 3.899 1.3 1.101.301 2.301.601 3.4.801 1.5.5 3 .8 4.6 1.1 1.4.2 2.7.5 4.101.7 1.1 1.1 2.7.8 3.899 1.5l3.301.6c2.1 1.101 4.5.4 6.6 1.4 1.1.2 2.2.399 3.4.6 2.1 1.101 4.5.4 6.6 1.4 1.4.2 2.7.3 4.1.5 2.4 1.899 5.5.1 7.9 1.5 1.8.2 3.5.399 5.3.6 3.4 1.601 7.2 0 10.7 1.4 2.6.2 5.2.399 7.7.6.8.5 1.5.9 2.3 1.4 2 .2 4 .3 6 .5 3.1 2.1 6.8-.101 9.9 1.5 3.399.2 6.699.3 10.1.5 3.8 2.1 8 .1 11.9 1.3 4.699 1.4 9.399.4 14.1.7 11.9 2.399 24-.4 35.9 1.5h2.1c13.3-1.9 26.7.899 39.9-1.5 4-.2 8.1.6 12.1-.7 2.8-.8 5.9.2 8.6-1.2 1.301-.399 3.801.9 3.101-2.3-.5-.7-1.101-1.3-1.7-1.9l-.1-.1c-.601-.6-1.301-1.2-1.9-1.9l-.1-.1c-.601-.6-1.301-1.2-1.9-1.8l-.2-.2c-1-1.2-2.9-.6-3.7-2.2-.8-.399-1.5-1-2.2-1.7l-.1-.1c-.6-.6-1.2-1.2-1.9-1.7l-.399-.2c-.7-1.399-2.9-.699-3.2-2.5l-.5.5.5-.399c-1.2 0-1.8-.8-2.2-1.8-.8-.4-1.5-1-2.2-1.7l-.1-.101c-.6-.6-1.3-1.199-1.9-1.8l-.199-.2c-1-1.1-2.9-.699-3.801-2h-.1c-.7-.6-1.3-1.199-2-1.8l-.1-.1c-.601-.601-1.301-1.2-1.9-1.8l-.2-.2c-.899-1.2-3.1-.601-3.5-2.4l-.399.4.5-.4c-1.301-.1-1.9-.7-2-2l-.4.4.3-.5c-1.2.1-1.7-.8-2.3-1.601l-.1-.1c-.7-.6-1.301-1.2-1.9-1.8l-.2-.2c-1-1.2-2.9-.6-3.7-2.2-.8-.399-1.5-1-2.1-1.7l-.2-.199c-.9-1.2-3.1-.601-3.5-2.4l-.4.4.5-.4c-1.3-.1-1.899-.7-2-2l-.399.4.3-.5c-1.2.1-1.7-.801-2.3-1.601l-.101-.1c-.699-.6-1.3-1.2-1.899-1.8l-.2-.2c-.9-1.2-3.1-.6-3.5-2.4l-.4.4.5-.4c-1.3-.1-1.899-.7-2-2l-.399.4.3-.4c-.9-.2-1.7-.7-2.3-1.399l-.3-.101c-.7-1.3-3-.7-3.301-2.5l-.399.5.5-.399c-1.3-.101-1.9-.7-2-2l-.4.399.3-.5c-1.199.101-1.699-.8-2.3-1.6l-.1-.1c-.7-.601-1.3-1.2-1.9-1.801l-.2-.199c-.899-1.2-3.1-.601-3.5-2.4l-.5.4.5-.4c-1.199 0-1.8-.8-2.3-1.7h-.1c-1.2-.9-3.2-.3-3.7-2.3l-.4.4.5-.4c-1.3-.1-1.899-.7-2-2l-.399.4.3-.5c-1.2.1-1.7-.801-2.3-1.601l-.101-.1c-.699-.601-1.3-1.2-1.899-1.8l-.2-.2c-.9-1.2-3.1-.601-3.5-2.4l-.4.4.5-.4c-1.3-.1-1.899-.7-2-2-1.199 0-1.8-.8-2.3-1.7h-.1c-1.2-.899-3.2-.3-3.7-2.3l-.5.4.5-.4c-1.2 0-1.8-.8-2.2-1.8-.8-.4-1.5-1-2.2-1.7l-.1-.1c-.6-.601-1.2-1.2-1.9-1.7l-.399-.2c-.7-1.399-2.9-.7-3.2-2.5l-.5.5.5-.399c-1.2-.101-1.9-.7-2-2l-.1-.101c-1.4-.5-3.301 0-3.9-2l-.4.4.5-.4c-1.2 0-1.8-.8-2.2-1.8-.8-.4-1.5-1-2.199-1.7l-.101-.1c-.6-.601-1.2-1.2-1.899-1.7l-.4-.2c-.7-1.399-2.9-.7-3.2-2.5l-.5.5.5-.399c-1.3-.101-1.899-.7-2-2l-.399.399.3-.5c-1.2.101-1.7-.8-2.3-1.6l-.101-.101c-.7-.6-1.3-1.199-1.899-1.8l-.2-.2c-1-1.1-2.9-.699-3.8-2h-.101c-.7-.6-1.3-1.199-1.899-1.8l-.2-.2c-.9-1.199-3.101-.6-3.5-2.399l-.4.399.5-.399c-1.3-.101-1.9-.7-2-2l-.4.399.301-.5c-1.2.101-1.7-.8-2.301-1.6l-.1-.1c-.7-.601-1.3-1.2-1.9-1.801l-.199-.199c-1-1.101-2.9-.7-3.8-2h-.101c-.699-.601-1.3-1.2-1.899-1.801l-.2-.199c-.9-1.2-3.1-.601-3.5-2.4l-.4.4.5-.4c-1.3-.1-1.899-.8-2-2-1.199 0-1.8-.8-2.199-1.8-.801-.4-1.5-1-2.2-1.7l-.101-.1c-.6-.601-1.199-1.2-1.899-1.7l-.4-.2c-.7-1.4-2.8-.8-3.399-2.3-.801-.4-1.5-.9-2.2-1.5l-.4-.2c-.7-1.4-2.9-.7-3.2-2.5l-.399.5.3-.5c-1.2.1-1.7-.8-2.3-1.6l-.101-.101c-.7-.6-1.3-1.2-1.899-1.8l-.2-.2c-.9-1.2-3.101-.6-3.5-2.399l-.5.399.5-.399c-1.2 0-1.8-.801-2.3-1.7h-.101c-1.2-.9-3.2-.3-3.7-2.3l-.399.399.399-.399c-1.3-.101-1.899-.801-2-2-1.199 0-1.8-.801-2.199-1.801-.801-.399-1.5-1-2.2-1.699l-.101-.101c-.6-.6-1.199-1.2-1.899-1.7l-.4-.199c-.7-1.4-2.899-.7-3.2-2.5l-.5.5.5-.5c-1.199 0-1.8-.801-2.3-1.7h-.1c-1.2-.9-3.2-.3-3.7-2.3l-.5.399.5-.399c-1.2 0-1.8-.801-2.2-1.801-.8-.399-1.5-1-2.199-1.699l-.101-.101c-.6-.6-1.2-1.2-1.899-1.7l-.4-.199c-.7-1.4-2.9-.7-3.2-2.5l-.5.5.5-.5c-1.2 0-1.8-.801-2.3-1.7h-.1c-1.2-.9-3.2-.3-3.7-2.3l-.4.399.5-.399c-1.3-.101-1.899-.7-2-2l-.399.399.3-.5c-1.2.101-1.7-.8-2.3-1.6l-.101-.101c-.7-.6-1.3-1.199-1.899-1.8l-.2-.2c-1.101-1.199-3.5-.699-3.7-3.1v.2c.1-1.2.7-2.101 1.3-3 .6-.4.8-.9.6-1.5 2.301-2.7 5.101-1.3 7.7-.9 1.4.2 2.7.3 4.101.5 1.699 1.7 4.1.3 5.899 1.5 1.101.2 2.3.4 3.4.601 1.5.6 3.1.699 4.6 1.399 1.4.2 2.7.3 4.101.5 1.1 1 2.6.9 3.899 1.3 1.4.2 2.7.5 4.101.7 1.699 1.7 4.199.3 5.899 1.601.7.1 1.4.3 2.101.399 1.1 1 2.6.9 3.899 1.3 1.4.2 2.7.5 4.101.7 1.6 1.7 4.3.2 5.899 1.8l.3.101c1 1.1 2.5 1 3.7 1.3 1.4.2 2.7.5 4.101.7 1.699 1.7 4.1.3 5.899 1.5 1.101.2 2.3.399 3.4.6 1.5.601 3.1.7 4.6 1.4 1.4.2 2.7.3 4.101.5 1.1 1 2.6.899 3.899 1.3 1.4.2 2.7.5 4.101.7 1.699 1.7 4.1.3 5.899 1.5 1.101.2 2.3.399 3.4.6 1.5.601 3.1.7 4.6 1.4 1.4.2 2.7.3 4.101.5 1.1 1 2.6.899 3.899 1.3 1.4.2 2.7.5 4.101.7 1.699 1.7 4.1.3 5.899 1.5 1.101.2 2.3.399 3.4.6 1.5.601 3.1.7 4.6 1.4 1.4.2 2.7.3 4.101.5 1.1 1 2.6.899 3.899 1.3 1.8.3 3.601.6 5.4.8 1.5.601 3.1.7 4.6 1.4 1.101.2 2.3.399 3.4.6 1.5.601 3.1.7 4.6 1.4 1.2.2 2.5.399 3.7.6.8.5 1.5.9 2.3 1.4 1.101.2 2.2.399 3.4.6 1.5.601 3.1.7 4.6 1.4 1.4.2 2.7.3 4.101.5 1.1 1.1 2.699.8 3.899 1.5 1.101.2 2.3.399 3.4.6 1.5.5 3 .8 4.6 1.101 1.4.199 2.7.5 4.101.699 1.1 1 2.6.9 3.899 1.301 1.8.3 3.601.6 5.4.8 1.5.6 3.1.7 4.6 1.399 1.101.2 2.3.4 3.4.601 1.5.5 3 .8 4.6 1.1 1.4.2 2.7.5 4.101.7 1.1 1 2.6.9 3.899 1.3 1.8.3 3.601.6 5.4.8 1.5.601 3.1.7 4.6 1.4 1.101.2 2.3.4 3.4.6 1.5.601 3.1.7 4.6 1.4 1.101.2 2.3.4 3.4.6 1.5.601 3.1.7 4.6 1.4 1.4.2 2.7.3 4.101.5 1.1 1 2.6.9 3.899 1.3 1.4.2 2.7.5 4.101.7 1.6 1.7 4.3.2 5.899 1.8l.3.1c1 1.101 2.5 1 3.7 1.301 1.4.199 2.7.5 4.101.699 1.1 1 2.6.9 3.899 1.301l5.4.899c1 0 1.7.9 2.6 1.101 1.4.199 2.7.5 4.101.699 1.699 1.7 4.1.301 5.899 1.5 1.101.2 2.3.4 3.4.601 1.5.6 3.1.7 4.6 1.399 1.4.2 2.7.301 4.101.5 1.1 1 2.6.9 3.899 1.301 1.4.199 2.7.5 4.101.699 1.699 1.7 4.1.301 5.899 1.5 1.101.2 2.301.4 3.4.601 1.5.6 3.1.7 4.6 1.399 1.4.2 2.7.301 4.101.5 2.899 1.7 5.8 1 8.699.101 1.2 0 1.601-.8 1.5-1.8.5-.801.9-1.601 1.4-2.4.6-.4.8-.9.6-1.6.5-.801.9-1.601 1.4-2.4.6-.4.8-.9.6-1.6.5-.801.9-1.601 1.4-2.4.6-.4.8-.9.6-1.6.301-1 1-1.7 1.7-2.5l.1-.101c1.301-1 .9-2.8 1.9-3.899l.1-.101c1.301-1 .9-2.8 1.9-3.899l.1-.101c1.301-1 .9-2.8 1.9-3.899l.1-.101c1.301-1 .9-2.8 1.9-3.899l.1-.101c1.301-1 .9-2.8 2-3.8l.101-.2c.7-.399 1.1-1 1.3-1.7.3-.6.6-1.1.9-1.699.399-.9 1.1-1.601 1.6-2.5l.2-.301c1.5-.8.899-2.699 2-3.699l.1-.101c1.3-1 .9-2.8 1.9-3.899l.1-.101c1.3-1 .9-2.8 1.9-3.899l.1-.101c1.3-1 .9-2.8 2-3.8l.101-.2c.6-.399 1.1-1 1.3-1.7 1.2-1.1 2.8-2 2.8-4 1.1-1.1.7-3 2-4.1.6-.7 1.1-1.4 1.6-2.1l.2-.3c1.5-.801.9-2.7 2.101-3.601v-.1c.6-.601 1.199-1.3 1.8-1.9l.2-.2c.6-.6 1.199-1.199 1.699-2l.2-.3c1.5-.8.9-2.7 2.2-3.6.6-.7 1.1-1.4 1.6-2.101l.2-.3c1.5-.7.9-2.8 2.3-3.6.5-.8 1.101-1.5 1.801-2.2l.1-.2c.7-.5 1.2-1.1 1.5-1.899l.4-.4c1.5-.6.899-2.7 2.3-3.4.5-.8 1.1-1.5 1.8-2.199l.1-.2c.7-.4 1.101-1 1.301-1.7.3-.5.6-1.101.899-1.601.4-1 1-1.8 1.9-2.399.6-.7 1.1-1.4 1.6-2.101l.2-.3c.7-.399 1.3-.899 1.6-1.7l.4-.3c.7-.399 1.3-.899 1.7-1.6l.3-.4c.7-.3 1.2-.899 1.5-1.7l.5-.5c.7-.199 1.2-.699 1.3-1.399.7-.3 1-.8.9-1.601.399-1 1-1.8 2-2.399v.1c.5-.899 1.2-1.6 2-2 .5-.8 1.1-1.5 1.8-2.2l.1-.199c.7-.5 1.2-1.101 1.5-1.9l.5-.5c.801-.2 1.301-.8 1.5-1.5l.5-.5c.801-.2 1.301-.8 1.5-1.5l.5-.5c.7-.2 1.2-.7 1.301-1.4.699-.3 1-.8.899-1.6.4-1 1-1.8 2-2.4v.101c.5-.9 1.2-1.601 2-2l-.1.1c.6-1 1.5-1.8 2.7-1.899.699.1 1.199-.2 1.3-1 .7-.2 1.2-.601 1.4-1.4l.5-.5c.8-.2 1.3-.8 1.5-1.5l.5-.5c.8-.2 1.3-.8 1.5-1.5l.5-.5c.8-.2 1.3-.8 1.5-1.5l.5-.5c.8-.2 1.3-.8 1.5-1.5l.5-.5c.8-.3 1.3-.8 1.6-1.5l.4-.3c.699-.4 1.399-.9 2-1.5l.1-.1c.6-.7 1.3-1.301 2.1-1.9.5-.9 1.301-1.5 2.2-2 .6-.3 1.2-.5 1.8-.7.7-.3 1.4-.8 1.9-1.3l.1-.1c.601-.7 1.301-1.301 2.101-1.9h-.101c.601-1 1.5-1.8 2.7-1.9.8.101 1.2-.199 1.3-1 .7-.199 1.301-.6 1.601-1.3l.3-.2c.7-.6 1.4-1.199 2.1-1.699h-.1c.6-1 1.5-1.801 2.7-1.9.8.1 1.199-.2 1.3-1 .7-.2 1.2-.6 1.5-1.3l.4-.2c.699-.5 1.399-1.1 2.1-1.7.7-.3 1.3-.6 2-.8.8 0 1.2-.3 1.2-1.2 1.8-2.6 1-5.399.6-8.1-2.2-3.7.7-8.3-1.8-11.9v-.1c-2.2-3.101.3-7.101-1.9-10.3.2-3.301.7-6.5-.399-9.7-1.5-3.5.1-7.4-1.4-10.8-.1-2.4-.3-4.801-.4-7.101-2-4.1.2-8.7-1.6-12.899 0-3.101.6-6.2-.6-9.2-1.5-3.5.1-7.4-1.4-10.8 0-3.101.6-6.2-.6-9.2-1.5-3.5.1-7.4-1.4-10.8 0-3.101.6-6.2-.6-9.2-.801-7.7-2.601-15.2-3.4-22.8-.1-2.4-.3-4.8-.4-7.101-2.1-3.899.5-8.399-1.699-12.3 0-5.1.1-10.1.1-15.2.4-1.1 1.1-1.8 2.1-2.3 2 0 3.9-.1 5.9-.1.5.7 1.1 1.1 1.8 1.399l.5.5c.3.801.8 1.301 1.5 1.7l.2.3c.5.7 1.1 1.4 1.6 2.101.9.6 1.5 1.399 1.9 2.399-.1.801.2 1.301.9 1.601.199.7.6 1.2 1.3 1.399l.5.5c.3.801.8 1.4 1.5 1.9l.1.2c.7.7 1.2 1.399 1.8 2.2 1.4.699.801 2.8 2.301 3.399l.399.4c.301.8.801 1.399 1.5 1.899l.101.2c.6.7 1.199 1.3 1.899 1.8l.301.2c.5.7 1 1.3 1.699 1.8l.101.2c.699.7 1.199 1.4 1.8 2.2 1.4.7.8 2.8 2.3 3.4l.4.399c.3.8.8 1.4 1.5 1.9l.1.2c.7.699 1.2 1.399 1.801 2.199 1.399.7.8 2.801 2.3 3.4l.399.4c.301.8.801 1.399 1.5 1.699l.2.3c.5.7 1.101 1.4 1.601 2.101.899.6 1.5 1.399 1.899 2.399.3.5.601 1.101.9 1.601.2.7.6 1.3 1.3 1.6l.2.3c.5.7 1.1 1.4 1.6 2.101.8.6 1.5 1.2 2 2.1.9.5 1.7 1.2 1.8 2.3l-.1-.1c1.2.2 1.8 1.1 2.2 2.1.3.5.6 1.101.899 1.601.2.7.601 1.3 1.301 1.6l.199.3c.4.801 1.301 1.4 1.4 2.4l-.1-.1c1.1.3 1.8 1.199 2.199 2.199-.1.801.2 1.301.9 1.601.2.7.6 1.2 1.3 1.399l.5.5c.3.801.8 1.4 1.5 1.9l.101.2c.699.7 1.199 1.399 1.8 2.2 1.399.699.8 2.8 2.3 3.399l.4.4c.3.8.8 1.399 1.5 1.899l.1.2c.7.7 1.2 1.4 1.8 2.2 1.4.7.801 2.8 2.301 3.4l.399.399c.301.8.801 1.4 1.5 1.7l.2.3c.5.7 1.1 1.4 1.6 2.101.9.6 1.601 1.399 1.9 2.399-.2.7.1 1.2.8 1.4 4.9-1.601 2.2-5.601 2.301-8.3.8-20.5-.9-41.101 1-61.601l.1-.1c2.7-5.8-.4-12.1 1.8-17.9 1-3.199.601-6.399.4-9.6 2.1-3.9-.3-8.4 1.6-12.4.9-1.899.601-3.899.3-5.899 2.2-3.101-.1-7 1.7-10.101l.3-3.899c2.2-3.101-.1-7 1.7-10.101.101-1.199.3-2.399.4-3.6 1.399-1.9.399-4.3 1.399-6.4.9-1.199.801-2.5.5-3.899 1.601-1.8.4-4.3 1.7-6.2l.2-.3c2.1-1.4.4-4.101 1.8-5.7.101-1.2.3-2.4.4-3.6.8-1.301.8-3 1.399-4.4.9-1.1.801-2.4.601-3.6 1.399-1.9.3-4.4 1.6-6.4.101-.6.2-1.2.3-1.9 1.7-1.699.301-4.3 1.7-6.1.601-.4.7-1 .4-1.6.899-1.301.7-3 1.6-4.4.5-.5.7-1.2.3-1.9 1.101-1.199.801-3 1.801-4.199v-.101c1.3-1 .899-2.6 1.6-3.8.2-.6.3-1.3.5-1.9 1.1-1.199.8-2.8 1.5-4.1.2-.6.3-1.3.5-1.9 1.1-1.199.8-2.8 1.5-4.1.6-.4.8-.9.6-1.6.9-1.301.7-3.101 1.801-4.4l.1-.1c1.3-1 .9-2.601 1.6-3.801.601-.399.801-.899.601-1.6.8-1.4.6-3.2 1.899-4.4.601-.6 1-1.3 1.5-2.1.601-.4.801-.9.601-1.6.899-1.301.7-3.101 1.8-4.4l.1-.1c1.301-1 .9-2.801 1.9-3.9l.1-.1c1.301-1 .9-2.801 1.9-3.9l.1-.1c1.301-1 .9-2.801 2-3.801l.101-.199c.7-.4 1.1-1 1.3-1.7.3-.601.6-1.101.9-1.7.399-.9 1.1-1.6 1.6-2.5l.2-.3c1.5-.8.899-2.7 2-3.7l.1-.1c1.3-.9.8-2.9 2.101-3.801.6-.6 1-1.3 1.5-2.1.6-.4.8-.9.6-1.6.3-1 1-1.7 1.7-2.5l.1-.2c.7-.5 1.2-1.101 1.5-1.9l.4-.399c1.6-.601.899-2.7 2.199-3.4.601-.7 1.101-1.4 1.601-2.1l.199-.301c1.5-.699.9-2.8 2.301-3.6.5-.8 1.1-1.5 1.8-2.2l.1-.2c.7-.5 1.2-1.1 1.7-1.8l.3-.2c.7-.6 1.301-1.199 1.9-1.8l.1-.2c.7-.5 1.2-1.1 1.5-1.899l.4-.4c1.5-.6.9-2.7 2.3-3.399.5-.9 1.2-1.601 2-2 .5-.9 1.2-1.601 2-2 .5-.9 1.2-1.5 2-2.101.601-.7 1.101-1.399 1.601-2.1l.199-.3c.7-.4 1.301-.9 1.5-1.7l.5-.5c.801-.2 1.301-.8 1.5-1.5l.5-.5c.801-.2 1.301-.8 1.5-1.5l.5-.5c.801-.3 1.301-.8 1.601-1.5l.399-.3c.7-.4 1.4-.9 2-1.5l.101-.101c.6-.7 1.3-1.399 2.1-1.899.5-.9 1.2-1.601 2-2l-.1.1c.6-1 1.5-1.8 2.699-1.9.7.101 1.2-.199 1.301-1 .699-.199 1.199-.6 1.399-1.399l.5-.5c.801-.3 1.301-.8 1.601-1.5l.399-.3c.7-.4 1.4-.9 2-1.5l.101-.101c.6-.7 1.3-1.399 2.1-1.899.5-.9 1.3-1.5 2.2-2 .7.1 1.2 0 1.7-.5.699-.5 1.5-1 2.3-1.5.6-.301 1.2-.5 1.8-.801 2-.5 3.9-.6 5.8.2l.5.4c.4.8.9 1.5 1.5 2.2.2.6.301 1.199.5 1.899.601 1.4.7 2.7-.3 3.9-.5.5-.5 1.1-.3 1.7-1.601 1.8-.2 4.5-1.7 6.3-.1 1.1-.3 2.1-.4 3.2-.5 1.6-.699 3.3-1.399 4.8-.101 1.2-.3 2.5-.4 3.7-1.6 1.8-.2 4.5-1.7 6.3-.1 1.2-.199 2.5-.3 3.7-1.6 1.8 0 4.6-2.1 6.199v-.1c-.9 1.2-.7 2.9-1.5 4.1-1 1.801-.601 3.801-.4 5.7-1.899 2.5.101 5.8-1.7 8.3-.1 1.2-.199 2.5-.3 3.7-1.8 2.5-.1 5.7-1.6 8.3-1.101 2.5-.601 5.101-.4 7.7-2.1 3.2.3 7.101-1.7 10.3-.5.5-.5 1.101-.3 1.7-.7.9-.7 1.8 0 2.7 0 .9-.1 1.8-.1 2.7-1.9 4.8.5 10.1-1.601 14.899-.899 6.5-.399 13.101-.3 19.601-1.399 8.2-1.6 16.399.101 24.6-.101 6.601-1 13.3.5 19.9 1.5 3.899-.7 8.3 1.5 12.1-.2 2.7-.801 5.3.5 7.9 1.199 2.7-.301 5.8 1.399 8.399-.2 1.9-.5 3.9.601 5.601 1 2 0 4.399 1.399 6.399.101 1.2.3 2.4.4 3.601 1.3 1.899.2 4.5 1.6 6.399-.2 1.301-.3 2.5.601 3.601.6 1.3.5 2.899 1.5 4 1.899 1.6.3 4.399 2 6.1.1.601.199 1.2.3 1.9.899 1.3.7 3 1.6 4.399-.2 1.301-.3 2.5.601 3.601.6 1.399.6 3 1.399 4.399-.3.601-.2 1.2.4 1.601.899 1.3.7 3 1.6 4.399-.3.601-.2 1.2.4 1.601.899 1.3.7 3 1.6 4.399-.2.7-.1 1.301.601 1.601.6 1.2.399 2.7 1.699 3.6l.2.3c.5.9 1.2 1.5 1.601 2.5-.301.601-.101 1.2.399 1.601.9 1.1.5 2.899 1.8 3.899l.101.101c1.1 1.3.899 3 1.8 4.399-.2.7-.1 1.2.6 1.601.5.8.9 1.6 1.4 2.399-.2.7 0 1.2.6 1.601.5.8.9 1.6 1.4 2.399-.2.7 0 1.2.6 1.601.4.699.9 1.3 1.5 1.899l.2.2c.601.6 1.2 1.3 1.8 1.9v.1c1.2 1.1.9 2.9 1.9 4 1.3.9.7 2.9 2.2 3.6l.2.301c.5.699 1 1.399 1.699 2.1.7.6 1.4.6 2.2.1l1.8-2.1.101-.2c.6-.399 1.1-1 1.3-1.7.3-.5.6-1.1.9-1.6.3-1 1-1.7 1.699-2.5l.101-.2c.6-.399 1.1-1 1.3-1.7.3-.5.6-1.1.9-1.6.399-1 1-1.7 1.8-2.4v-.1c.6-.601 1.2-1.3 1.8-1.9l.2-.2c.6-.6 1.2-1.199 1.7-2l.199-.3c.7-.3 1.101-.8 1.301-1.6.3-.5.6-1.101.899-1.601.4-1 1-1.8 1.9-2.399.6-.7 1.1-1.4 1.6-2.101l.2-.3c1.5-.7.9-2.8 2.3-3.6.5-.899 1.2-1.5 2-2.1.601-.7 1.101-1.4 1.601-2.101l.199-.3c.7-.3 1.101-.8 1.301-1.6.3-.5.6-1.101.899-1.601.4-1 1-1.8 2-2.399.5-.8 1.101-1.5 1.8-2.2l.101-.2c.7-.5 1.2-1.1 1.5-1.9l.5-.5c.8-.3 1.3-.8 1.7-1.5l.399-.199c.7-.5 1.3-1.101 1.8-1.801l.2-.3c.7-.3 1.101-.8 1.3-1.6.301-.5.601-1.101.9-1.601.4-1 1-1.8 2-2.399.5-.9 1.2-1.5 2-2.101.6-.699 1.1-1.399 1.6-2.1l.2-.3c.7-.3 1.3-.9 1.5-1.7l.5-.5c.8-.3 1.3-.8 1.5-1.5l.4-.4c1.5-.6.899-2.699 2.3-3.399.5-.9 1.2-1.601 2-2 .5-.8 1.1-1.5 1.8-2.2l.101-.2c.699-.5 1.199-1.1 1.5-1.899l.5-.5c.8-.3 1.3-.8 1.6-1.5l.4-.3c.699-.4 1.399-.9 2-1.5l.1-.101c.6-.7 1.2-1.3 1.8-2l.101-.2c.699-.5 1.199-1.1 1.5-1.899l.5-.5c.8-.2 1.3-.8 1.5-1.5l.5-.5c.8-.2 1.3-.8 1.5-1.5l.5-.5c.8-.3 1.3-.8 1.5-1.5l.399-.4c1.5-.6.9-2.7 2.3-3.399.5-.9 1.2-1.601 2-2 .5-.9 1.2-1.601 2-2 .5-.9 1.2-1.601 2-2 .5-.9 1.301-1.5 2.2-2 1.101-.101 1.8-.7 1.8-1.9.5-.9 1.101-1.6 1.9-2.2l.1-.1c.601-.7 1.301-1.4 2.1-1.9.5-.899 1.2-1.6 2.001-2 .5-.899 1.199-1.6 2-2 .5-.899 1.199-1.6 2-2 .5-.899 1.2-1.6 1.999-2 .5-.899 1.201-1.6 2-2 .5-.899 1.201-1.6 2-2 .5-.899 1.201-1.5 2-2.1.6-.7 1.1-1.4 1.6-2.101l.201-.3c.699-.399 1.299-.899 1.6-1.7l.5-.3a9.467 9.467 0 0 0 2-1.5l.1-.1c.6-.7 1.301-1.4 2.1-1.9.5-.899 1.201-1.6 2-2 .5-.899 1.201-1.6 2-2 .5-.899 1.201-1.6 2-2 .5-.899 1.201-1.6 2-2 .5-.899 1.201-1.6 2-2 .5-.899 1.201-1.6 2-2l-.1.101c.6-1 1.5-1.801 2.701-1.9.699.1 1.199-.2 1.299-1 .701-.2 1.201-.6 1.5-1.4l.4-.3a9.467 9.467 0 0 0 2-1.5l.1-.1c.6-.7 1.301-1.4 2.1-1.9.5-.899 1.201-1.6 2-2 .5-.899 1.201-1.6 2-2 .5-.899 1.201-1.6 2-2 .5-.899 1.201-1.6 2-2 .5-.899 1.201-1.6 2-2 .5-.899 1.201-1.6 2-2 .5-.899 1.201-1.6 2-2l-.1.101c.6-1 1.5-1.801 2.701-1.9.699.2 1.1-.1 1.199-.8.699-.4 1.301-.9 1.9-1.4l.1-.1c.6-.7 1.301-1.4 2.1-1.9.5-.899 1.199-1.6 2-2 .5-.899 1.199-1.6 2-2l-.1.101c.6-1 1.5-1.801 2.699-1.9.701.1 1.201-.2 1.301-1 .699-.2 1.199-.6 1.4-1.4l.5-.5c.799-.3 1.299-.8 1.6-1.5l.4-.3a9.467 9.467 0 0 0 2-1.5l.1-.1c.699-.9 1.5-1.601 2.699-1.7.701.1 1.201-.2 1.301-1 .699-.2 1.199-.6 1.4-1.4l.5-.5c.799-.199 1.299-.8 1.5-1.5l.5-.5c.799-.199 1.299-.8 1.5-1.5l.5-.5c.799-.3 1.299-.8 1.699-1.5l.301-.199c.699-.601 1.4-1.2 2.1-1.7.5-.9 1.199-1.601 2-2 .5-.9 1.301-1.5 2.199-2 .701.1 1.201 0 1.701-.5.699-.5 1.398-1 2.1-1.5.5-.9 1.199-1.601 2-2 .5-.9 1.299-1.5 2.199-2l1.801-.9c.699-.1 1.199-.6 1.4-1.3l.5-.5c.799-.2 1.299-.8 1.5-1.5l.5-.5c.799-.3 1.299-.8 1.699-1.5l.301-.2c.699-.6 1.398-1.2 2.1-1.7.5-.899 1.299-1.5 2.199-2 .701.101 1.201 0 1.701-.5.699-.5 1.398-1 2.1-1.5.5-.899 1.199-1.6 2-2l-.1.101c.6-1 1.5-1.8 2.699-1.9.699.101 1.199-.2 1.301-1 .699-.2 1.199-.6 1.5-1.399l.398-.301a9.416 9.416 0 0 0 2-1.5l.102-.1c.6-.7 1.299-1.4 2.1-1.9h-.1c.799-1.399 2.799-.899 3.699-2.1l.199-.1a9.13 9.13 0 0 1 2.102-1.801h-.102c.602-1 1.5-1.8 2.701-1.899.699.1 1.199-.2 1.299-1 .701-.2 1.201-.601 1.4-1.4l.5-.5c.801-.3 1.301-.8 1.701-1.5l.299-.2c.701-.6 1.4-1.199 2.1-1.699h-.1c.6-1 1.5-1.801 2.701-1.9.799.1 1.199-.2 1.299-1 .701-.2 1.301-.6 1.6-1.3l.301-.2c.801-.7 1.6-1.5 2.801-1.6.799.1 1.199-.2 1.299-1 .701-.2 1.301-.601 1.6-1.301l.301-.199c.699-.601 1.4-1.2 2.1-1.7h-.1c.6-1 1.5-1.8 2.699-1.9.801.101 1.201-.2 1.301-1 .699-.2 1.301-.6 1.699-1.3.801-.3 1.5-.5 2.301-.8.699-.101 1.199-.601 1.4-1.3l.4-.301a9.518 9.518 0 0 0 2-1.5l.1-.1c.6-.8 1.299-1.4 2.199-1.8l1.801-.9c.699-.1 1.199-.6 1.4-1.3l.5-.5c.799-.3 1.299-.8 1.699-1.5l.301-.2c.699-.6 1.398-1.2 2.1-1.7h-.1c.6-1 1.5-1.8 2.699-1.899.699.2 1.1-.101 1.301-.8.898-.4 1.6-1.2 2.6-1.2.799.2 1.199-.2 1.4-1 .699-.2 1.299-.601 1.6-1.3l.299-.2c.701-.601 1.4-1.3 2.301-1.7l1.801-.9c.699-.1 1.199-.6 1.5-1.3l.4-.3c.699-.4 1.398-.9 2-1.5l.1-.1c.699-.9 1.5-1.601 2.699-1.7l.699.1.5-.6c.701-.601 1.4-1.2 2.301-1.601.6-.3 1.199-.6 1.801-.899.699-.2 1.299-.601 1.6-1.2l.301-.2c.699-.6 1.398-1.2 2.1-1.7h-.1c.6-1 1.5-1.8 2.699-1.899.801.1 1.199-.2 1.301-1 .699-.2 1.299-.601 1.6-1.3l.299-.2c.701-.601 1.4-1.3 2.301-1.7.699.1 1.199 0 1.699-.5.701-.5 1.5-1 2.301-1.5l1.801-.9c.699-.199 1.299-.6 1.6-1.199l.299-.2c.701-.601 1.4-1.3 2.301-1.7l1.801-.9c.699-.199 1.299-.6 1.6-1.199l.299-.2c.801-.7 1.602-1.5 2.801-1.601l.699.101.5-.601c.701-.6 1.4-1.199 2.301-1.6l1.801-.9c.699-.199 1.299-.6 1.6-1.199l.301-.2c.699-.601 1.398-1.3 2.299-1.7l1.801-.9c.699-.199 1.299-.6 1.6-1.199l.301-.2c.699-.601 1.398-1.2 2.1-1.7.799-1.4 2.799-.9 3.699-2.1l.301-.101c.699-.8 1.5-1.6 2.699-1.7.701.2 1.1-.1 1.201-.8.699-.399 1.299-.899 1.898-1.399l.102-.101c.699-.899 1.5-1.6 2.699-1.7l.699.101.5-.601c.701-.6 1.4-1.199 2.301-1.6.699.1 1.199 0 1.699-.5.701-.5 1.5-1 2.301-1.5h5.4c1 .5 1.699 1.2 2.1 2.3 0 1.7.1 3.5.1 5.2-1 1.2-.5 3.3-2.301 4.1l.102-.1c-.801 2.4-2.102 4.4-3.9 6.2l.1-.101c-.4.9-1.1 1.5-1.801 2.2v.101c-1.199.899-.699 3.1-2.5 3.6l.4.3-.4-.399c-.299.899-.699 1.699-1.398 2.399l-.602.4.102.7c-.102 1.199-.9 2-1.701 2.8v.1c-1.199 1-.799 2.9-2.1 3.9v-.101c-1 1.2-.699 3.101-2 4.101v-.101c-1 1.101-.5 3.2-2.301 3.801l.4.3-.4-.3c-.299.899-.699 1.699-1.398 2.399l-.602.4.102.7c-.102 1.199-.801 2-1.5 2.8l-.602.399.102.7c-.102 1.2-.801 2-1.5 2.8l-.602.4.102.7c-.102 1.2-.801 2-1.5 2.8l-.602.4.102.699c-.102 1.2-.801 2-1.5 2.801l-.602.399.102.7c-.602 1.6-.301 3.6-2.201 4.5l.1-.1c-.299.899-.699 1.699-1.398 2.399l-.602.4.102.7c-.102 1.1-.801 1.899-1.4 2.8-.6.5-.701 1-.4 1.7-1 1.3-.6 3.199-2.1 4.199v-.1c-1 1.2-.701 2.9-1.6 4.1l-.602.4.102.7c-.602 1.6-.5 3.5-2 4.7v-.101c-.9 1.3-.602 3-1.801 4.2-1.199 1.1-.801 2.9-2 4l-.5.5.301.7c-.602 1.6-.5 3.5-1.9 4.8v-.1c-.9 1.199-.701 2.899-1.5 4.1-.6.5-.701 1-.4 1.7-1 1.3-.699 3-1.699 4.3l-.602.4.102.699c-.602 1.601-.602 3.4-1.701 4.801l-.5.5.201.699c-.102 1.2-.801 2.101-1.701 2.9l-.5.5.301.7c-.6 1.6-.6 3.399-1.701 4.899l-.5.5.301.7c-.6 1.601-.6 3.4-1.699 4.8l-.5.5.299.7c-.5 1.601-.699 3.3-1.398 4.8-.602.5-.701 1-.4 1.7-.9 1.3-.801 3-1.6 4.3-.701 1-.9 2-.602 3.2-.6 1.601-.6 3.4-1.699 4.9l-.5.5.199.7c-.1 1.199-.799 2-1.6 2.8-.5.5-.5 1.1-.299 1.7-.9 1.3-.801 3-1.602 4.3-.6.5-.699 1-.398 1.7-1.602 1.8-.102 4.5-1.9 6.3l-.5.5.299.7c-.5 1.6-.699 3.3-1.398 4.8-.701 1-.9 2-.602 3.2-.5 1.6-.6 3.399-1.6 4.8-.5.5-.5 1.1-.299 1.7-1.602 1.699 0 4.6-2.102 6.199v-.199c-.799 1.3-.699 2.899-1.398 4.199-.701 1-1 2-.602 3.2-.5 1.601-.6 3.4-1.6 4.8-.5.5-.5 1.101-.299 1.7-1.9 2.5.1 5.8-1.701 8.3-.5.5-.5 1.101-.299 1.7-1.602 1.8-.201 4.5-1.701 6.3-.5.5-.5 1.101-.299 1.7-1.602 1.8-.201 4.5-1.701 6.3-.5.5-.5 1.101-.299 1.7-1.602 1.8-.201 4.5-1.9 6.3v.101c-1.801 1.6-.301 4.3-1.801 6-.1 1.1-.301 2.1-.4 3.2-.5 1.6-.699 3.3-1.4 4.8-.1 1.2-.299 2.5-.398 3.7-1.9 2.5.1 5.8-1.701 8.3-.1 1.1-.299 2.1-.4 3.2-1.1 2.199-.199 4.8-1.6 6.8-.1 1.1-.299 2.1-.4 3.2-1.1 2.199-.199 4.8-1.6 6.8-.1 1-.299 2.1-.4 3.1-1.1 2.2-.1 4.8-1.699 6.8v.1c-2.199 2.301 0 5.601-1.801 7.9-.1 1-.299 2.1-.398 3.1-1.4 2.801.1 6.101-1.602 8.9-.1 1.2-.199 2.5-.299 3.7-1.6 1.8-.201 4.5-1.701 6.3-.1 1.7-.299 3.5-.398 5.2-.201 1-.801 2 .199 2.899h.1c1.4 1.101 2.701 1.101 4.1 0 1.301-.199 2.701-.3 4-.5 2.5-1.399 5.602.4 7.9-1.5 2-.199 4-.3 6.1-.5 2.5-1.399 5.602.4 7.9-1.5 2.1 0 4.201.301 6.1-.699 2.5-1 5.5.6 7.9-1.301 2.1 0 4.201.301 6.1-.699 2.5-1 5.5.6 7.9-1.301 2-.199 4-.3 6.1-.5 2.5-1.399 5.602.4 7.9-1.5 2.701-.1 5.5.5 8.1-.699 1.9-.801 4.201.3 5.9-1.301 2.701-.1 5.5.5 8.1-.699 2.201-.601 4.5-.101 6.602-1.2 2.5-.3 4.898-.601 7.398-.8 2.201-.601 4.5-.101 6.602-1.2 2.5-.3 4.898-.601 7.398-.8 2.201-.601 4.5-.101 6.602-1.2 2.5-.3 4.898-.601 7.398-.8 2.201-.601 4.5-.101 6.602-1.2 2.5-.3 5.1.5 7.398-1 .701-.2 1.301-.601 1.701-1.2 2.1-.1 4.299.5 6.299-.7 2.5-1 5.5.601 7.9-1.3 2-.2 4-.3 6.1-.5 2.5-1.4 5.602.4 7.9-1.5 2-.2 4-.3 6.1-.5 2.5-1.4 5.602.4 7.9-1.5 2-.2 4-.3 6.1-.5 2.801-1.3 5.9 0 8.701-1.4 2.4-.199 4.9-.399 7.299-.6 2.102-1 4.602-.3 6.701-1.4 2.4-.199 4.9-.399 7.299-.6 2.5-1.4 5.602.4 7.9-1.5 2.701-.1 5.5.5 8.1-.7 2.201-.6 4.5-.1 6.602-1.2 2.5-.3 4.898-.6 7.398-.8 2.5-1 5.5.601 7.9-1.3 2-.2 4-.3 6.1-.5 2.801-1.3 5.9 0 8.701-1.4 2.4-.199 4.9-.399 7.299-.6 2.5-1.399 5.602.4 7.9-1.5 2.701-.1 5.5.5 8.1-.7 2.5-1 5.5.601 7.9-1.3 2-.2 4-.3 6.1-.5 2.4-1.5 5.5.5 7.801-1.6l.301-.101c2.299-2 5.6.2 7.898-1.8 2.701-.1 5.5.5 8.102-.7 2.199-.6 4.5-.1 6.6-1.199 2.5-.2 4.9-.4 7.4-.601 2.799-1.3 5.898 0 8.699-1.399 2.4-.2 4.9-.4 7.301-.601 2.799-1.3 5.898 0 8.699-1.399 2.4-.2 4.9-.4 7.301-.601 2.5-1.399 5.6.4 7.898-1.5 2.701-.1 5.5.5 8.102-.7 2.799-.8 5.898.2 8.6-1.199 2.5-.301 4.9-.601 7.4-.801 2.5-1 5.5.601 7.898-1.3 2.701-.2 5.4-.3 8.102-.5 2.5-1.399 5.6.4 7.898-1.5 2.701-.2 5.4-.3 8.102-.5 2.5-1.399 5.6.4 7.898-1.5 2.701-.2 5.4-.3 8.102-.5 3.199-1.6 6.898.601 9.898-1.5 2.701-.1 5.5.5 8.102-.7 2.5-1 5.5.601 7.898-1.3 2.701-.2 5.4-.3 8.102-.5 3.398-1.399 7.299.2 10.699-1.399h4.5c1.1.1 1.801.899 2.699 1.399l.5.4c.4.8.9 1.5 1.5 2.2 0 1.1-.1 2.3-.1 3.399-.4.9-1.1 1.7-1.9 2.3h-.1c-.799 1.301-2.799.7-3.6 2.101l-.4.2c-.699.5-1.299 1.1-2 1.699l-.1.101c-.6.8-1.1 1.6-2.301 1.6l.301.5-.4-.5c-.5 1.8-2.6 1.2-3.5 2.4l-.199.2c-.6.699-1.301 1.3-2.1 1.699-.9 1.601-2.701 1.2-4 2h-.102c-.398 1-1 1.801-2.299 1.7l.5.4-.5-.5c-.301 1.8-2.5 1.2-3.201 2.5l-.398.2c-.701.5-1.301 1.1-2 1.7l-.102.1c-.6.8-1.1 1.6-2.299 1.6l.299.5-.398-.5c-.301 1.8-2.602 1.101-3.201 2.5l-.4.2c-.699.5-1.299 1.1-2 1.7h-.1c-1 1.3-2.799.8-3.799 2l-.201.2c-.6.6-1.299 1.3-1.9 1.8l-.1.1c-.6.8-1.1 1.601-2.299 1.601l.299.5-.4-.5c-.299 1.8-2.6 1.1-3.199 2.5l-.4.199c-.699.5-1.299 1.101-1.898 1.7l-.102.101c-.6.699-1.299 1.3-2 1.8h-.1c-1 1.3-2.801.8-3.801 2l-.199.2c-.6.6-1.199 1.199-1.9 1.8l-.1.1c-.6.7-1.301 1.3-2.199 1.7-.4 1-1 1.8-2.201 1.8-.1 1.3-.799 1.9-2 2l.5.4-.5-.5c-.299 1.8-2.5 1.2-3.199 2.5l-.4.2c-.699.5-1.299 1.1-1.9 1.699l-.1.101c-.6.6-1.199 1.3-1.9 1.899l-.1.101c-.6.7-1.299 1.3-2.199 1.7-.801 1.5-2.701 1-3.701 2.199l-.199.2c-.6.601-1.199 1.2-1.9 1.8l-.1.101c-.6.6-1.199 1.3-1.9 1.899l-.1.101c-.6.6-1.199 1.3-1.9 1.899l-.1.101c-.6.6-1.199 1.3-1.9 1.899l-.1.101c-.6.7-1.301 1.3-2 1.8l-.1.1c-.6.801-1.1 1.601-2.301 1.601l.301.5-.4-.4c-.1 1.2-.801 1.9-2 2l.5.4-.5-.5c-.301 1.8-2.6 1.2-3.199 2.5l-.4.2c-.699.5-1.301 1.1-1.9 1.699l-.1.101c-.6.6-1.199 1.3-1.9 1.899l-.1.101c-.6.6-1.199 1.3-1.9 1.899l-.1.101c-.6.6-1.199 1.3-1.9 1.899l-.1.101c-.6.6-1.199 1.3-1.9 1.899l-.1.101c-.6.6-1.199 1.3-1.9 1.899l-.1.101c-.6.6-1.199 1.3-1.9 1.899l-.1.101c-.6.6-1.199 1.3-1.9 1.899l-.1.101c-.6.6-1.199 1.3-1.9 1.899l-.1.101c-.6.6-1.199 1.3-1.699 1.899l-.201.4c-.699.4-1.299 1-1.699 1.7l-.4.2c-.699.5-1.301 1.1-1.9 1.699l-.1.101c-.6.6-1.199 1.3-1.9 1.899l-.1.101c-.6.6-1.199 1.3-1.9 1.899l-.1.101c-.6.6-1.199 1.3-1.9 1.899l-.1.101c-.6.6-1.199 1.3-1.699 1.899l-.602.4.102.7c-.201 1.3-.801 2.3-2.201 2.399l.5.301-.5-.4c-.1 1.3-.799 1.9-2 2l.5.4-.5-.4c-4.258 10.851-5.957 10.851-6.656 11.851z"/><path id="hl1" fill="#313131" d="M1873.681 632.725c5.699-8.5 13.199-12.5 19.199-17.9 14.9-13.2 30.701-25.4 45.701-38.5 8-7 16-11.8 27.5-10.8 12.6 1.1 25.299.8 38 0 30.6-2 61.199-.601 91.799-2.4 19.6-1.1 39.301 0 58.801-1.7 28.9-2.6 57.9-.7 86.799-2.1 10.9-.5 21.801-1.8 33.801-1.4-5.4 5.8-12.301 4.4-17.9 5.3-43.1 7.101-86.199 14.601-129.299 22.101-36.9 6.399-73.701 13.5-110.5 20-37.801 6.7-75.801 12.7-113.4 20.5-6.5 1.3-12.9 3.2-19.301 4.8-3.2.698-6.402 1.198-11.2 2.099zm-161.1-504.901c-10.801 23.9-22.102 47.601-32.201 71.8-14.9 35.5-29.199 71.301-42 107.7-9.6 27.3-16.299 55.399-24.299 83.1-2 6.8-1.602 7.101 5.799 7.3 7.5.2 14.301-2.899 21.4-4.1 34.199-6 68.6-11.7 102.699-18.4a3039.77 3039.77 0 0 0 163-36.6c15.701-4 31.301-8.7 47.4-11.2-.5-5-3.5-2.399-5.799-2-10.5 1.4-21 2.7-31.5 4.101-17.102 2.399-34.102 4.8-51.102 7.199-15.699 2.2-31.5 4.5-47.199 6.801-15.699 2.199-31.5 4.5-47.199 6.699-16.4 2.4-32.801 4.601-49.102 7.301-13.398 2.199-27.1 2.899-40 7.199-6.199 2.101-12.1 2.5-18.5.9-6.5-1.6-7.199-2.1-6.1-8.5 2.9-16.3 5.801-32.6 8.9-48.9 6.699-34.899 15.301-69.299 24.4-103.6 6.801-25.399 15.801-50.1 23.6-75.1.502-1.799-.398-2.2-2.197-1.7zm-313.301 227.8c1.101-1.5.801-3.1-.3-4.6-1.6-2.101-3-4.4-4.6-6.5-12.2-15.601-20.8-33.101-27.8-51.6-13.301-35-16.601-71.601-17.601-108.4-.6-22.8 1.601-45.6 5.2-68.3 3.4-21.2 5.4-42.7 10.1-63.7.301-1.5 1.2-3.7-1.1-5.3-1 1.2-1.9 2.2-2.5 3.3-1.8 3.6-3.4 7.2-5 10.8-17.3 37.9-25.9 77.9-27 119.5-.4 13 0 26-.1 38.9-.101 10.3 1.899 20.399 3.3 30.6 2.5 18.5 7.6 36.4 13 54.1 8.6 28 18.399 55.5 35.6 81.5 8.001-9.899 12.102-20.899 18.801-30.3zm-602.6 223.901c35.1 11.3 70 23.2 104.8 35.3 36.101 12.6 72.4 24.6 108.601 36.8 12.6 4.3 25.199 8.5 37.899 12.6 5.601 1.801 6.4 1.2 6.601-4.6.199-7.3 0-14.6 0-22.4-3.9-.199-7.101.301-10.301-.6-10.899-2.9-22-5.1-32.899-7.8-52.5-12.8-105-25.7-157.601-38.5-17.7-4.3-35.5-8.5-53.2-12.8-2.2-1.101-4.1-1.5-3.9 2zm888.2-7c15.4 31.3 19.5 64.7 17.201 98.899-1.602 24.4-6.301 48.5-12.602 72.301-3.199 11.899-6 24-8.898 35.899 1.699-.399 2.299-1.1 2.799-2 13-23.2 25.4-46.7 39.201-69.399 5.199-8.7 6.799-17.101 5.6-26.5-.701-5.2-1.301-10.5-2.201-15.7-6.1-36.8-19.898-70.8-38.1-103.101-1.9-3.399-4.199-6.5-6.799-10.399-.201 7.599.5 13.099 3.799 20zm-954.1 165c2.601.6 5.2 1.2 7.7 1.899 16.2 4.801 32.601 8.9 49.2 12.2 28.3 5.601 56.6 10.3 85.5 12.4 18.2 1.3 36.3 3.6 54.6 3.6 18.9-.1 37.9.8 56.7-2 6.4-1 13-1.1 18.8-3.8-.3-2.2-1.699-2.8-2.8-3-14.3-2.5-27.5-7.6-39.6-15.6-2-1.301-3.7-.301-5.7.1-22.8 4.7-46 5.6-69.2 6.3-20.2.601-40.5.4-60.7-1.7-15.8-1.6-31.699-2.699-47.399-5.3-14.4-2.399-28.8-4.6-43.101-6.899-2.3-1.301-4.199-1.801-4 1.8zm1095.1-63.401c-.199.5 0 1.101.5 1.601 2 2.6 4.201 5.199 6.1 7.899 21.602 31.4 24.9 65.8 16.301 102-2.9 12.4-7.4 24.3-12.301 38.3 9-7.8 16.602-13.8 25.301-17.8 5.4-2.5 8.199-6.399 10.1-11.6 5-13.7 6.701-28.3 4-42.3-6-30.601-21.9-56-45.4-76.601-.6-.7-1.299-1.3-2-1.899-.6-.2-1.299-.301-2-.4-.201 0-.4.3-.601.8zm-327.4 105.5c17.201-24.399 34.4-48.8 51.601-73.2 5.398-7.699 9-15.899 10.799-25.399 3-15.9.801-31.8 1.701-47.7.5-9.1-.801-17.9-2.5-26.7-1.602-8.8-4.9-17.2-10.5-24.5-4.301-5.6-8.801-9.2-14.102-11 4.102 10.3 8.301 20.4 11.5 30.9 5.602 18.1 7.4 36.7 5 55.1-2.699 20.9-10.898 40.2-21.799 58.3-5.1 8.5-11.1 16.601-15.4 25.601-5.9 12.3-12.2 24.3-18.3 36.5-.7 1.999.2 2.499 2 2.098zm-262.1-5.899c24.3 39.1 49.1 77.8 76.5 115.1 1.7-1.9.6-3 .1-4.2-6.2-15.5-12-31-10.3-48.2.5-5-2-8.1-5.3-11.1-12.4-11.6-24.601-23.3-37-34.8-7.101-6.5-14.4-12.7-21.601-19-2.099-.5-2.899.299-2.399 2.2zm38.701 152.5c-1.9-11.601-5.101-22.4-8.9-33-6.5-18.2-3.3-18.4-21-26.601-5.4-2.5-10.4-5.899-15.5-9-3.6-2.2-7.2-4.399-12.3-4.3 19.099 24.3 38.399 48.6 57.7 72.901zm717.699-106.7c-.6-.9-.801-1.3-1-1.4-25.9-4.8-51.9-9.5-77.801-14.2-3.799-.7-7.199-.1-9.898 3.101-2.301 2.8-5.602 4.699-7.602 10.8 32.801-1.902 64.202 2.498 96.301 1.699zm-2.5 86h-47.699c-11.701 0-22.801 4.8-32.602 14.399 27.102-4.399 53.5-8.699 79.801-13 .199-.5.301-1 .5-1.399z"/><path fill="none" stroke="#000" stroke-miterlimit="10" stroke-width="6" d="M1860.577 1028.559l199.857-118.926s16.338-19.547-18.256-18.124c-21.987.905-79.053 3.396-81.854-.104s80.258-54.682 88.457-62.482c8.201-7.8 5.707-9.62-8.4-13.8-19.664-5.826-118.656-13.218-117.756-21.319.9-8.1 363.4-220.7 378.4-242.7 5.9-10.5-21.6-6.3-21.6-6.3l-312 7.3s-7.5 4.5 6.5-14.5c3.799-17.699 61-146 226-252.499-1.102-10.801-9.5-10.5-18-9.5s-490.5 64.999-503 70.499c0 0-11 6.5 0-22.5 4.398-34.1 25.898-178.8 102.1-304.499 10.4-15.5-17.9.6-17.9.6s-254.601 155.4-351.801 309.7c-24.399-5.7-72.3-149.8-27.6-303.8-.8-13.5-31.8 11.5-36.3 13.5s-105.5 105.5-90.601 314.399c-2.899 13.101-71.899-92.899-79.899-93.399-11.5 6 10.254 145.417 12.254 182.518-86.5 68-120.754 123.982-137.254 176.482 0 0-326.5-82.2-347-80.301-20.5 1.9 233.8 183.601 236.199 188.7 2.4 5.101-165.255 26.583-294.644-34.481-15.4-13 21.544 112.082 306.945 224.181 37.1 6.4-220.9-13.1-228.4-9.6s29.693 68.692 351.454 156.897c-50.6-73.1-53.553-107.397-36.553-139.198 17-31.8 51.383-52.748 125.284-1.849 51.1 46.601 82.816 106.449 83.016 116.249s12.8 2.8 12.8-21.2-1.342-85.28-1.342-85.28 33.342 11.68 37.342 11.98-13.3-61.9-17.5-61.8c0 0 51.9 36.1 59.2 37.1s.399-14.7-3.4-24.9c-3.8-10.199-31.442-60.08-16.442-76.08 23.048-23.508 84.542-103.52 89.542-100.12 5 3.399 7.445 165.26 5.041 177.802 0 0 1.269 11.626 10.158 5.121 6.737-4.929 16.567-22.027 30.758-40.804 37.956-50.221 107.342-159.919 110.543-159.619 3.199.3 43.685 209.411 53.685 207.011 10-2.399 114.614-189.312 116.515-201.511 0 0 8.753-2.771 21.957 25.819 19.653 42.554 45.573 79.462 31.772 157.762-.9 16.8 15.771-10.281 17.171-14.882 1.398-4.6 28.656-46.78 78.156-73.38 17 41.9-16.557 103.581-22.857 112.981-6.299 9.4-5.699 33.9-3.799 60.9 1.898 27-1.161 36.146-2.661 41.646s5.713 10.31 5.713 10.31z"/></svg>