<svg xmlns="http://www.w3.org/2000/svg" id="hair" viewBox="0 0 3000 3000"><path id="sd1" fill="#A16C44" d="M1300.601 699.628c.2 3.6-2.101 6.3-3.601 9.199-22 43.301-43 87.2-63.1 131.4-.8 1.8-1.8 3.6-2.5 5.5-1.5 4-2.4 14.3-6.1 13.1-6-1.899-12.101-3.6-18.2-5.399-46.4-13.301-92.5-27.601-138.2-43.2-4.9-1.7-10.8-13.7-14.3-17.601-30.8-33.6-60.8-68-90.5-102.6-.601-.7-.9-1.7-1.3-2.6-4-43.7-6.5-87.4-7-131.3-.101-6.9-2.301-13.801-1.7-20.801.399-4.1.399-8.6 4.899-10 4.801-1.399 8.301 2 11 5.301 9.7 11.8 19.7 23.399 29.301 35.399 26.899 33.5 55.5 65.4 83.5 98 2.699 3.2 6.399 4.7 10.199 6 51.5 18.101 103.9 33.3 156.101 49.3 6.8 2.101 12.5 1.7 18.5-3 7-5.5 14.2-11 22-15.5 3.6-2.099 7.001-4.599 11.001-1.198zm-39.201-40.301c20.2 2.801 40.4 6.101 60.7 8.5 20-23 48.8-57.699 68.7-80.699 11.899-13.7 24.6-26.801 35.699-41.2-4.899-2.101-10-3.8-14.699-6.2-12.4-6.5-18.5-16.7-17.9-30.9.3-7.1 2-13.8 5-20.2 10.9-23.199 22.1-46.3 32.9-69.6 14.399-31.2 27.1-63.1 31.5-97.6 3.199-25.9 1.699-51.3-11.5-74.7-4.5-8-9.9-15.5-18.4-22 .5 4.4.8 7.4 1.2 10.3 5.199 35.8-.7 69.601-17.4 101.6-11.6 22.101-27.4 40.9-44.8 58.5-27.7 27.9-55.801 55.4-83.7 83.2-9 9-16.6 19.101-23.2 30-4.899 8-9.399 16.3-9.399 26 0 13 .399 26 1.399 38.9 1.7 21.6 4.9 43 7.101 64.5 1.899 3.099-10 20.599-3.201 21.599zm72.1 337c11.601-49.6 23.4-99.199 34.7-148.8 3.8-16.8 10.4-32.3 20.101-46.5 4.899-7.1 9.8-14.3 15.1-21.2 32.7-42.3 70.9-79.399 108.9-116.8 14.299-14.1 28.998-19.899 48.498-19.2 21.6.7 43.301.2 64.9-2.1 9.299-1 18.6-1.5 27.9-1.8 7.1-.3 9.5 1.2 10.799 7.6 3 14.7 7.5 29.2 6.9 44.3-1.1 29 .5 57.9.699 86.9.201 28.3.4 56.6.5 84.9.701 1.3 1.301 1.3 1.801-.101 9.1-13.6 18.1-27.1 27.301-40.7 2.5-3.6 4.299-7.3 4.6-11.899 2-27.5 4-55.101 6.6-82.601 1.1-11.899.9-24 2.5-35.8.6-4.5.1-8.5-1.6-12.6-7.1-16.5-13.9-33.2-21.1-49.601-4.201-9.699-4.9-10-15.102-8.1-16.398 2.9-32.898 5.2-49 9.3-14.6 3.7-27.5.8-40.299-5.899-2.801-2.601-6.301-3.801-9.5-5.801-2.1-1.6-4.5-1.199-6.801-1.3-15.5-5.8-30.9-12.2-46.098-18.8-9.4-4.1-14.701-2.7-21.2 5-23 27.1-43.9 55.8-65.3 84.3-8.301 11.101-14.601 23.8-25.7 32.601-3.9 1.6-4.2 5.8-6.601 8.6-.899 2.5-2.6 4.6-2.5 7.5-18.199 25.4-36.8 50.4-57.399 74-4.2 4.8-6.2 9.9-6.601 16.2-2.1 36.8-4.3 73.6-6.6 110.399-.9 15.2-2.3 30.5-3.2 45.7-.399 7.3-1.3 14.601-.399 21.9 2.401-2.898 2.502-6.398 3.201-9.598zm-216.199-386.3c22.1 34.601 70.1 37 79.1 40 11.6 3.2 23.6 3.601 35.4 5.5 8.6 1.4 9 .8 8.199-8.399-1.8-21.2-4.6-60.601-6.5-81.801-13.3-6.3-35.199-9.199-44.899-20.6-15.101-17.8-29.101-36.4-43.3-54.9-2.5-3.3-4-6.899-4.5-10.899-3.5-26.101-6.801-52.101-10.5-78.2-1.301-9.5-1.5-19.2-4.801-30.1-1.3 3.5-2.199 5.6-2.699 7.699-9.101 40.301-18.101 80.601-27.2 120.801-.7 3-.8 5.8.1 8.8 8.5 27.399 15.4 55 25.2 81.899 1.9 2.6-10.401 16.5-3.6 20.2zm525.898-11.1c11.4-6.8 22.299-14.3 32.799-22.4 19.102-14.7 38-29.7 55.5-46.2-2.699-4-4.299-15.5-2.898-18.6 12.398-27.601 15.199-56.4 10.299-86-4.299-25.9-16.1-48.601-31.199-69.601-22.6-31.5-51.4-56.6-82.9-78.899-1.5-1-2.9-2.9-5.699-1.3 1.299 2.2 2.6 4.5 4 6.6 10.799 15.7 20.1 32.2 28.299 49.4 15.701 32.8 26.201 67.1 28.4 103.399 2.6 44-7.9 85.2-29.5 123.601-7.199 12.8-11 33-18.6 45.5 4.4-.6 7.9-3.299 11.499-5.5zM2055.1 871.628c-12 4-24.4 7.1-35.801 12.5-16.4 7.699-32.6 10.699-49.699 2.3-4.4-2.101-9.5-3.101-14.301-4.2-20.6-4.9-41.301-9.9-62.801-6.5-10.299 7.8-18.299 17.1-22.398 29.7-2.602 7.899-6 15.5-9.701 23-6.799 13.6-1.9 26.899-1.4 41.3 19.701-4.5 38.301-8.4 56.602-12.9 39.1-9.7 78.1-19.399 117.699-26.8 4.799-.9 7.699-3 9.699-7.3 7.701-16.9 15.701-33.8 23.5-50.6-3.8-3.401-7.7-1.701-11.399-.5zm-88.901-255.301c-1.4.7-3.201 1-4.801 1.301-41.5 7-83.1 13.699-124.199 23.199-3.1.7-5.9.7-8.5-1.199 2 10.199.5 20.6 3.299 31 5.602 20.8 9.5 42 14.102 63 .398-3.801 3.199-5.4 6.199-7.101 26.6-15.8 51.801-33.7 77.5-50.7 2.5-1.6 4.699-3.699 6.801-5.8 22.699-22.399 45.398-44.8 68-67.2 1.699-1.699 4.5-2.899 4.398-6.6-2.299.5-4.5 1-6.6 1.4-12.099 6.2-24.099 12.501-36.199 18.7zm-982.598 300.1c-8.8-2.7-16.3-6.7-22.9-13.4-23.8-24.1-46.8-49-69.7-74-2.199-2.4-4.5-5.3-8.5-3.3.101.7 0 1.4.301 2 19.6 44.8 37.333 89.039 58.033 133.439 2.6 5.5 6 9 11.7 11.3 20.3 8.3 48.916 21.133 69.115 29.633 1.9.8 3.9 2.8 7.101.4-3.3-12.3-4.8-25.1-4.5-38 .1-4-2.244-7.325-.977-11.333 1.705-5.393.228-16.64 2.928-23.34-13.601-6.299-28.401-8.999-42.601-13.399zm202.7-15.9c9.8 25.5 20.1 50.8 30.3 76.101m15.799-548.5c2-1.601 11.5-14.5 12-15.301 17.1-26.6 38.7-59.3 55.7-85.899-1.101-1.601-12.3-4.7-13.2-6.5-13.5-25.7-27-51.3-39.2-77.5-2.2-4.7-4.1-9.6-7.899-14.3-2.2 3-2.601 5.5-2.9 8.1-2.2 15.5-4.3 31-6.5 46.5-3.3 23.7-6.7 47.4-10 71.2-.3 2.3-9.4 11.1-12.1 10.6 6 16.499 17.3 46.1 24.099 63.1zm753.799 258.699c-5.6 5.2-19.1 18.7-24.701 23.9-29.5 27.3-68.6 55.5-106.5 70.2-5.1 2 2.201 13.2 2.9 17.6 3.9 24.601 7.5 49.3 11.301 74 .301 2.101 0 4.7 3.1 6.8 21.6-18.199 43.801-36.1 66.4-53.5.5-.899.4-1.8-.1-2.6-5.1-3-9.701-.4-14.1 1.7-8 4-16.301 7.3-24.5 11-2.301 1-4.602 3-7.102 0-5-6.101-2.699-21.9 4.201-26.101 17-10.399 34.199-20.3 49.4-33.399 5.199-4.5 9.6-9.9 16-12.9 6-17.2 12.1-34.399 18.1-51.6 1.002-2.5 9.4-25.2 5.601-25.1zm-484.398-204.1c8.5 7.3 15.1 16.6 24.5 23 .6-13.3-.801-26.6-1.301-39.8-1.6-43.9-4.6-87.601-6.6-131.5-.1-2 .299-4.3-1.1-6.3-2.5 2.399-2.4 4.8-2.9 7.1-3.6 17.3-7.2 34.5-10.7 51.8-6.399 31.601-13.8 63-19.2 94.8 8.5-5.5 10.101-5.3 17.301.9zm450.799-84.9c-11.201 29.601-22.602 59.101-33.602 88.7-2.199 5.8-5.199 10.601-10.299 14.2-16.1 11.3-32 22.7-48 34.2-3.801 2.7-7.9 3-12.301 3.2-5.9.199-11.9 6.199-17.699 8.5 23.9 1.199 48.5 1 72.4 1.699-1.602-1.8-5.4-9.5-6.801-12 1.699-3.699 5-6.1 7.699-9 7.9-8.6 15.9-17.1 23.9-25.6 2.301-2.5 4-5.2 4.801-8.6 7.299-30.4 14.699-60.9 22.1-91.301.501-1.998 1.6-4.298-2.198-3.998zm-741.295 519.354c-7.399-10.6-11.305-20.254-19.105-30.554-5-6.601-11.2-11.4-19.7-12.5-23.399-3.101-46.399-8.601-69.6-12.801-19.9-3.6-39.2-7.8-55.9-21.6-25.6-21.2-53.1-40-79.8-59.7-1.8-1.3-3.7-2.5-4.8-4.6-4.1-3.101-8.9-3.8-13.6-5-.301 1.2-.7 1.899-.5 2.399 7.3 16.4 14.699 32.801 22 49.2 1.3 2.9 3.5 4.8 5.899 6.601 30 22.699 60.7 44.5 91.5 66.1 2.2 1.5 4.3 3.3 7.3 2.6 6.4-1.5 29.678-3.901 34.073-2.389 20.949 7.206 28.535 17.141 48.755 28.037 6.197 3.339 14.558 10.903 17.158 17.603 9.8 25.5 16.315 38.427 26.516 63.727.8 2 .601 4.7 3.4 5.5 2.3-2.2 1.6-5 1.6-7.5 0-17.3 10.004-62.223 11.304-79.523.4-5.6.9-11.3-.3-16.899-7.5.799-5 7-6.2 11.299z"/><path id="cl1" fill="#F3CC3F" d="M1484.5 481.628c-18.8 21.8-37.8 43.5-57.899 64.1-15.601 2.8-33.8-10.6-35.9-27-1.399-11-.6-21.7 4.101-32.2 14.899-33 32.399-64.9 45.5-98.8 11.3-29.3 20.699-59 19.8-91-.601-20.7-5.3-40.1-18.2-57-3-4-4.9-8.6-6-13.3 9.5 33.7 4.9 66.4-8.1 98.199-11 26.801-28.5 49.4-49 69.801-28.301 28.2-56.4 56.6-84.801 84.7-9.6 9.399-17.3 20.199-24.6 31.3-12.2 18.5-8.5 39-7.7 59.1.9 23.5 5.4 60.5 5.2 84.1-2.7 9.2-9.6 7-16.1 5.801-8.301-1.101-8.5-1.101-9.2-8.4-3.601-41.8-5.8-97.4-9.3-139.1-1.7-19.9-3.101-39.801-4.7-59.7-.3-4-.7-7.8 1.8-11.5 20.8-31.7 41.4-63.5 62.1-95.2 5.7-5 9.601-11.5 14.2-17.5 18.3-26.2 38.3-51 57.3-76.6 23.601-31.601 41.101-66 56.601-101.7 1.6-3.7 3.5-7.2 5.7-10.5 7.5-11.4 14.6-12.1 23.6-1.5 10.3 12.2 20.5 24.5 29.1 38.1 8.601 13.5 16.301 27.4 22.801 41.801-.7-3-.9-6.4-.2-9.5 2.7-12.4 3.7-24.9 3.899-37.601.101-11.1 5.801-13.6 14.801-7.399 15.799 11 27.299 26.199 39.799 40.5 3.299 3.8 6.6 7.5 10.199 11.399-3-14.2-6.4-27.899-11.5-41.1-1.4-3.7-3-8.101 1-11 3.9-2.9 7.6 0 11 2.1 29.5 18.5 54.301 42.4 77.5 68.3 16.199 18.101 31 37.301 46.4 56.101 9.1 11.1 15.699 23.899 23.699 35.8 2.201 3.3 3.801 7 7.1 10.3 3.301-3.9 3.602-10.8 10.201-11 5.4-.2 9 3.8 13.199 6.4 19.301 11.699 35.9 26.199 48.5 45.199 9.5 14.5 15.201 30.2 18 47.2 1.1 6.601 3.6 21.2.9 27-5 7.101-11.801 12.5-17.9 18.5-20.9 20.4-42.199 40.4-64.299 59.601-.9.399-1.602.899-2.102 1.699l-.1.101c-7.5-2.9-8-16.8-6.199-20.7 9.1-20.2 12.199-41.2 11.799-63.2-.398-24.399-8-46.3-19.5-67.3-20.199-36.7-50.299-64.2-82.6-89.7-1.6-1.199-3.199-2.399-4.1-4.199 27.301 41.699 46.699 86.399 52.801 136.499 6.699 55-7.201 104.8-35.4 151.4-5.5 9-7.4 23.8-15.301 30.5-2.799 3.399-10.5-6.101-12.9-8.4-5.898-5.8-11.898-11.5-17.898-17.3l-75.1-72.4c-7.1-12.899-5.1-27.399-5.801-41.1-1.699-36.9-4.1-73.7-5.5-110.6-.299-7.601 1.301-15.101 1.602-22.7-.801 30.2-9.2 59.1-15 88.399-2.601 13.101-5.601 26-8 39.101-1.802 8.598-4.001 16.397-9.302 23.098zm296.199 83.099c-4.6-4.9-9.301-3.9-14.5-1.5-26.1 11.8-50.9 22.6-77 34.3m-475.499-207.2c-.399-.8-.8-1.6-1.2-2.399-5.5-8.601-9.399-18.101-14.699-26.9-2.5-4.2-4.801-9-11.101-8-3 1.7-3.3 5-4.199 7.8-.2 13.601 5.399 26.2 6.199 40.601-5.3-9.3-9.699-17.8-13.8-26.5-9.5-20.4-15.9-42.5-29.9-60.7-2.6-3.399-4.1-8.3-9.399-7.6-5 .7-6.5 5.3-8.101 9.3-7.5 19.2-12.8 39-19.3 58.3-3-11.3-7.1-22.5-11-33.9-1.3-3.7-1.3-8.6-6.2-9.2-4.899-.6-7.8 3.101-10.3 6.801-5.899 8.8-10.5 18.5-15.7 27.8-2.399 4-4 8.5-6.699 12.399-6.301 15.301-12.601 30.7-18.9 46-1.2 2.9-.8 5.9-.5 8.801 2.6 25.1 5.2 50.3 7.8 75.399.301 2.7-4.3 17-2.3 19.2 23.7 26 46.3 53.2 71 78.3 2.9.601 3.9-1.399 4.8-3.6.9-4.5 4.2-20.601 2.9-24.601-6.9-20.899-13.8-41.699-20.3-62.699-2.301-7.2-2.601-14-1-21.5 7.8-36.601 17.199-72.9 23.899-109.7-1.199 2.899-1.3 5.899-.8 8.899 3.5 25 6.8 50 10.1 75 1.5 11.301 4.101 22 11.7 31.2 8.8 10.8 17.101 22.101 25.7 33.101 10.7 13.6 21.8 27 37.6 35.199 4.5 2.301 18.4 10.801 24.2 6.601-.1-3.7-.2-7.3-.5-11-2.5-30.9-2.8-53.5-5.2-84.4-2-25.7-11-26.1 2.2-45.3 2.101-3.1 2.601-5.9 1.101-9.3-2.801-6.4-10.601-19-13.301-25.5-1.699-2.702-3.6-5.101-4.8-7.902zm127.3 504.7c1.301-22.2 3.2-44.399 4.101-66.6.3-5.9 3.1-10.7 6.899-15.101 8.801-10.399 18.101-20.399 25.7-31.8 9.2-13.8 21.7-25.2 29-40.399.8-2.801-.2-5.9 1.101-8.7 2.8-5.4 4.1-11.5 7.5-16.7 1.199-3.9 5.5-7.7 1.6-11.9-3.5-3.699-8.1-1.899-12.2-.5-9.1 3-17.899 7-27 10.9 1.7-8.7 4.101-16.9 6.601-25.1 1.1-3.801 2.199-8.101-1.301-11.301-3.6-3.199-7.699-1.399-11.199.301-12.2 6-24.7 11.6-36.301 18.8-8.399 5.2-27.3 8.7-33.8 16.7-1.5 1.8-2.5 3.899-4.2 5.6-.899 1-1.5 2.3-2.699 3-23 45.5-45 91.4-65.7 138-3.5 7.9 5.899 13.3 10.899 20.5 28.801 42 56.601 84.7 82.7 128.5 1.5 2.4 2.3 5.5 5.4 6.9 2.7-3.101 2.2-6.9 2.6-10.4 6.199-36.599 8.199-73.7 10.299-110.7zm-26.3-220.399c-.6-4.5-4.1-4.5-7.399-5-46.301-6.5-92.5-14-138.801-21.301-9.3-1.5-20.3-.6-27.399-7.5-21.601-20.8-43.3-41.6-63.4-63.8-18.6-20.5-38.8-39.399-58-59.2-2.399-2.399-5.2-4.699-8.8-2.699-3.5 2-3 5.699-2.2 9 1.4 6.1 4.7 11.6 6.3 18-6.8-3.2-11.5-8.5-16.2-13.5-21-22.101-45-40.5-69.699-58-2.601-1.801-4.801-5-8.801-2.9-.5 3 .301 5.9.9 8.8 9.8 50.8 19.4 101.7 29.5 152.5 3.9 19.5 6.8 39.2 12.3 58.4 2.8-1.4 2-3.9 1.9-6.101-1-27.3-1.3-54.6-3.1-81.8-1.4-19.899-.601-40-2.9-59.8-.5-4-1.3-8.4 1.1-13 5.601 3.9 8.601 9.2 12.3 13.8 34.101 41.8 69.2 82.8 104.501 123.5 4.8 5.601 10.1 9.101 17 11.4 48 16 96.399 31 144.899 45.399 21.5 6.4 21.3 6.5 39.5-6.399 7.3-5.101 13.8-11.5 22.4-14.7 6-7.7 8.899-17.099 14.099-25.099zm686.099-72.201c-20.801 16.2-37.9 36.2-56.6 54.5-9.301 9.1-19.1 17.3-30 24.399-20.301 13.2-40.301 26.9-60.801 39.801-4.6 2.899-9 5.899-7.299 12.5 2.898 15.3 5.799 30.5 8.898 47.3 67.201-29.3 116.102-77.8 159.102-133.5 3.6-3.601 6.1-8 9.199-12 5.199-7.9 10.6-15.601 15.699-23.5 1.5-3.7 4.9-6.2 6.5-9.8 1.602-3.4 5.701-6.5 2.801-10.7-2.6-3.8-6.801-2.7-10.801-2.8-7.898-.2-15.199 3.199-23 3.1.103.1-7.698 3.3-13.698 10.7zm-776.198-250.4c3.5-17.6 5.2-35.399 8-53.1 3-19 4.899-38.2 8.8-58.4 12.2 26.7 24.9 51.601 38.4 75.9 2.3 4.1 11.699 16.3 18.399 15.399a284.377 284.377 0 0 0 21.9-33.6c.3-6.5-11.4-17.899-15.101-22.5-8.3-10.3-16.3-20.899-25.6-30.399-7.2-7.4-12-15.2-9.3-26.601 2.3-9.7-.2-19-6.7-27-6.3-7.8-12.4-7.399-16.5 1.601-1.8 3.899-3 8.1-4.1 12.399 0 .2-.5.101-.5.3-4.2-10-11.4-18.3-17.601-27.199-2.699-3.9-6.3-6.4-10.1-.7-.6 3.7-2.8 6.899-3.5 10.6-.2.601-.5 1.3-.5 1.9-1.2 33.3-13.4 73.2-23.3 105-1.2 3.899-.5 7.1.8 10.5 7.4 19.5 14.7 39.1 22.1 58.699 7.202 4.401 13.603-8.899 14.403-12.799zm-23.601 553c-6.699-8.2-11.5-19.2-20.699-23.899-8.7-4.5-20-4.2-30.101-6.2m935.698-45.001c-4.1-2.101-6.699.7-9.699 2.8l-44.4 30c-14.699 9.8-28.801 10.6-44.301 5.5-17.6-5.9-35.898-9.3-53.699-14.5-5-1.4-11-5.3-15.6-2.2-1.5.4-1.5 2.3-2.801 3-8.199 4.2-14.1 13.6-21.299 19.2-.5.7-1 1.4-1.701 1.9v.1c2.201 1.8 5 1.7 7.6 2 17.102 2.4 34.4 3.2 51.102 8.1 11.199 3.3 22.398 6.3 33.398 9.9 6.801 2.2 12.801 1.7 19.301-1 16.6-6.8 33.6-12.5 50.699-18 4.102-1.3 8-3.2 12-4.8 6.9-13.799 13.701-27.7 19.4-42zm-1043.698 80c-.2-4.5-3.5-6.4-7-7.5-17.3-5.8-33.8-13.5-51.1-19.4-21.9-7.6-43.5-15.7-60.601-32.7-9.8-9.7-20.699-18.6-32.8-25.7-3.1-1.8-5.8-4.8-9.899-2.6.5 1.2 1 2.4 1.6 3.7 1.9 1.8 4 3.4 5.8 5.4 23.4 26.3 46.9 52.5 71.601 77.6 4.8 4.9 10.1 8.3 16.699 10.1 13.101 3.601 26.101 7.601 39.2 11.601 3.601 1.1 7.101 1.899 10.5-.601 4-7.8 9.7-14.1 16-19.9zm905.798-94.7c3.301-17.7 9.701-34.4 14.5-51.7-.898-1.4.701-5.9-3.6-3-1.6 1.1-3 2.7-4.6 3.9-13.801 10.399-26.301 22.5-41.6 30.899-7.9 4.301-15.4 9.301-23.201 13.801-3.6 2.1-26.799 21-26 25.399 1.301 7.2 7.201 40.101 8 47.4.5 4.8.801 9.1 4.701 7.1 2.699-1.3 7.299-6.2 10.1-7.3 12-4.9 36.4-46.7 48.9-50.4 6.402.401 11.902-10.899 12.8-16.099zm-375.6-197.599c-18.9-8.9-37.898-17.801-56.799-26.7-7.6-3.601-7.699-3.601-12.699 3.399m105.498 8.5c-1.199-.699-2.5-1.1-3.699-1.699-1.801-.7-3.301-1.9-5-2.601-5.6-3-11.6-4.899-17.9-5.5-3-.3-6.301-.1-7.6 3.2-1.301 3.1.6 5.7 2.4 8.2 2.898 3.899 8.398 4 11.799 8-2-3.601-5.799-3.4-8.5-4.9-3.1-1.7-6.799-1.3-9 1.7-2.699 3.6.4 6 2.701 8.4 2.5 1.5 4.799 3.3 7.1 5 3.1 1.8 4.4 5.399 7.1 7.5 12.301 7.1 25.199 9.399 39.4 6.399 15.9-3.399 32-6.3 48.1-8.899 8.4-1.4 12.6 1.699 15.4 8.8 4.4 11.1 9.299 22.1 14.1 33.1 4.301 9.9 6.699 19.7 5.9 30.8-.701 10.301-2.1 20.5-2.301 30.801-.5 20.6-4 41-4.4 61.699-.299 16.2-5.898 30.2-16 43-6.6 8.301-12.799 17.101-14.299 28.2.199 2.101-.301 4.7 3.299 4.101 13.801-12 27.4-24.2 41.4-36 29.201-24.7 58.5-49.2 87.701-73.801 3.299-2.8 6.299-5.3 6.699-10.399 2.4-30.8 4.9-61.601 5.301-92.5.1-5 .199-9.9-1.301-14.7-4.699-15.1-11.9-28.7-22.199-40.7-5 4.4-2.5 9.9-1.801 14.9 2.199 16 4.4 31.8 2.1 48.2-1.699 11.899-3.699 24.1-2.6 36.399.5 2.2.4 4.3.4 6.5v-1.5c.799-19.5-8-35.1-19.801-49.5-2.699-3.3-5.6-7.399-10.699-5.2-4.4 2-5.301 6.4-5.6 10.9-.701 9.3.398 18.6 1.799 27.7.1.7 0 1-.299.899-1.301-.3.199 1 .199 1.9.5-13.6-5.5-22.5-11-31.5-1.699-2.8-4.5-5.3-8.301-4.2-3.5 1.101-5 4.2-5.398 7.7-.301 2.3.199 4.6.5 7 .299.9.5 1.8.6 2.9-2.1-17.9-12.1-31.7-24-44.4-7.4-7.9-14.5-19.4-27.201-18.8-4 1.7-1-4.9 4.102-7.3-4.9-3.4 17.699-11.601 78.898-39.2 9.602-3.5 9.9-1.601 14.5 1.5.4.3-10.299 3.899-9.898 4.399 20.5 22.101 41.1 44.5 49.6 74.301 5.5 9.3 22 1.1 28.9-.4 23.398-4.9 46.699-10 70.299-13.4 29.6-4.3 59.1-9 83.6-28.3 3-6.3 11-9.7 13.301-9.8 4.699-2.6 10.6-4.8 13.801-9.2 6-8.3 3.5-14.7-6.5-14.7-26-.1-51.701-4.199-77.701-4.199-27 0-53.9-1.301-80.4-6.4-17.898-3.4-36.299-3.1-54-7.7-1.398-1.7-4.1-2.6-3.299-5.6 3.799-.101 36.699 2.1 44 1.899 7.5-.199 14.299-9.199 20.299-13.6 10.701-7.8 21.701-15.3 32.5-22.9 9.5-6.699 15.9-15.3 20-26.399 10.301-27.601 19.801-55.5 28.701-83.601.199-3.6 2.299-6.699 2.9-9.399-1.801 3.7-2.602 8.5-4.4 12.899-8.801 26.801-15.9 54.101-22.301 81.5-1.5 6.601-4.199 12.301-8.5 17.7-7.1 9-15.699 16.3-23.299 24.601-2.5 2.699-5.301 5.5-4.4 9.5 1.1 4.699 4.1 10 6.5 12.199 15.6.601 31.199.9 46.799 2 7.102.5 13.9-2.5 18.4-15.899 17.9-23.4 29.5-49.4 32.1-79.101 0-.3.102-.699 0-1-.1-.199-.299-.5-.5-.5-4.1.101-5.398 3.4-7 6.301-5.5 10.1-13.1 18.1-23.6 23.3-.699-2.8.301-5.3.9-7.8 7.1-30.5 13.6-61 11.301-92.601-.4-5.3-.9-10.6-2.301-15.7-1.9-7-6.4-7.8-12.199-4.899-3.301 1.7-5.801 4.399-8.5 6.899-14.701 13.101-24.801 30.301-38.801 44.2-6.1 6-14 10.4-18.4 18.3-.1.2 0 0-.199.2 3.4-4.8 4.799-10.6 5.799-16.5.701-4.3.801-9.2-3.299-11.7-4.801-2.899-9 .101-12.4 3.4-30.1 29.3-66 50.9-99.5 75.7-1.1.8-2.199 1.7-3.301 2.6-.799.4-1.5.9-2.199 1.5-2.4 1.7-4.801 3.5-7.301 5.101-1.799 1.5-3.6 2.899-5.299 4.5-25.201 23.699-51.1 46.5-78.1 68.199-19.102 15.4-39.201 29.601-61.201 41.5 1.301 1.801 2.201 3.2 3.1 4.5 1.2 1.901-25.2-6.899-26.601-7.999zm-384.297 263.5c.6-2.8-.5-4.3-3.3-4.8-2.601-.399-5.101-1.2-7.601-1.8-4.6-2-9.8-.7-14.3-3.1-28.4-6.7-57.1-11.5-85.9-15.801-12.699-1.899-26-2.5-37.699-8.399-33.4-17-66.301-35-100.5-50.5-3.9-1.8-7.601-4.4-12.301-3.3 1.4 1.5 2.601 3.1 4.101 4.3 30.8 24.899 62.399 48.7 94.5 71.899 3.6 2.601 7.6 3.9 11.899 4.801 25.801 5.1 51.5 10.3 77.301 15.399 10.1 2 21.3 1.7 30.1 6.2 9.1 4.7 14 15.7 20.7 23.9 6 7.399 8.131 15.417 14.731 23.717 2.801-8.1 3.668-16.117 6.469-22.917.899-13.298-1.101-26.599 1.8-39.599z"/><path id="hl1" fill="#FBF3FD" d="M1815.699 450.427c-.301-14-6.9-36.4-11.701-49.7-7.5-20.7-21.5-36.601-37.398-51-10.102-9.101-22.9-14.4-33.102-24.101-4.199 7-3.6 14.5-7 20.601-4.299-1.2-5.199-4.5-6.799-7.3-13-22.9-27.801-44.5-44.301-65.1-14-17.4-28.9-33.9-44-50.301-10.6-11.399-19.9-24.5-33.299-32.8-12.5-7.7-23.701-17.1-35.701-25.399-.699-.5-1.699-.5-4.4-1.2 10.801 20.3 11.602 42.399 19.701 62.6-25-18.6-40.699-46.7-67.299-64.6-2.6 7.8-.701 15.399-1.5 22.8-.9 7.3-2.7 14.4-3.7 21.6-1.1 7.4-.7 15-1.899 22.801-18.4-35.5-37.601-70.2-67.5-98.301-4.801 6.301-8 12.4-10.9 18.7-6.9 14.8-13.6 29.7-20.5 44.4-8.5 18.2-18.9 35.1-31.5 50.7-11.1 13.699-19 29.899-30.9 42.999-12.3 13.5-21.899 29.4-35.399 41.9-1.9 0-3-.8-2.5-2.8 6.199-9.801 12-20 18.8-29.4 13.9-18.8 24.6-39.5 36.8-59.3 8.7-14.2 16.8-28.7 23.9-43.8 5.3-11.101 7.3-22.101 5.5-34.7-5-36.3-8.8-72.7-13-109.1-.3-2.2-1.3-4.5.1-6.7 1.8-.7 3.3.2 4.8.8 64.301 25.7 128.1 52.5 190.1 83.3 25.1 12.5 48.5 27.5 69.1 46.9 56.5 53.2 113.5 105.899 168.9 160.3 15.398 15.1 31 30.3 42.5 48.899 3.6 1.9 13 10.9 15.799 14.301-16.702 16.702-34.003 36.702-51.702 52.001zm-402.199 270.1c6.5.8 8.7-4.7 11-8.5 21.9-34.399 47.9-65.899 70.801-99.6 14-20.601 14.299-20.101 37.799-9.601 13.199 5.9 25.6 14.101 40 17.101 2-.7 3.898-1.4 3.199-4.2-1.4-1.9-4.801-2.3-4.301-6 6.201-.1 11.9 3.3 18.9 2.4-5.1-6.2-12.199-9.301-17-17.301a19924.21 19924.21 0 0 0 27.301 7.4l2.4.9c1.398.199 2.898.399 4.299.6.301 0 .6-.2.801-.5.301-.4 52.301 24.6 1.4-15.1-35.301-34-70.5-68-105.799-101.9-5.9-5.6-18.2-6-25.2 1.7-.7.7-1.3 1.5-2 2.2-49.5 54.899-98.6 110.3-146.8 166.399-12.601 14.7-25.301 45.4-33.101 62.7-.699 2.1 11.2-3.3 13-3.3 23.2-13.2 46.4-26.4 72.801-38.4-4.7 15.5-9.2 28.5-10.9 43.2 15.2-5.2 28.4-12.5 44.3-16-1.699 4.6-2.899 7.7-4 10.8-1.599 2.103-.9 3.702 1.1 5.002zm483.1-282.7c7.199-6.399 14.6-12.6 21.398-19.399 9.701-9.601 18.301-20.101 26.701-30.9 6.1-7.8 13.799-14.399 20.9-21.3 1.5-1.5 3.199-3.6 6.398-2.2 3.301 22.9 4.4 46-.299 69.2-3.301 16.3-6.301 32.7-10.701 48.7-1.1 3.899-2.199 8-.199 12.1 15.699-10.5 29.9-21.2 36.801-38.8 1.6-11.7-1-23.2-2.102-34.7-4-41.6-11-82.899-17.5-124.1-3-19-5.199-38.1-9.6-56.9-.699-1.3-1.5-1.3-2.4-.1-1.199 2.7-2.5 5.4-3.6 8.2-9.699 26.2-19.9 52.2-31.699 77.5-9.699 20.699-21.801 39.899-39.699 54.399-10.602 8.7-20.201 18.3-29.801 28l-72.9 72.601c-.801.3-1.4.8-1.699 1.699l-.201.2c-.799.4-1.398.9-1.799 1.8l-.201.2c-.799.4-1.398 1-1.898 1.8l-.102.101c-.6 1.7 0 2.3 1.701 2.1.799-.399 1.699-.8 2.5-1.1.6 0 1-.3 1.299-.8 20.201-11 38.301-25.301 57.4-37.9 19.4-12.8 34.9-30.4 53.201-44 2.6 2 1.699 3.7 1.699 5.3.1 9.2-4.699 17.3-6.199 26.101-.399 1.999.601 2.598 2.601 2.198zm-684.2-54.199c-1.3-1.2-1-3.101-1.7-4.5-12-32-20.899-65.2-39.399-94.601-14.7-23.399-28.101-47.6-44.601-69.899-2.1-2.8-3.6-6.5-7.7-7.7-.399 1.3-.8 2.6-1.199 3.8-6.9 27.2-16 53.601-25.9 79.8l-25.5 67.2c-1.2 1-.8 2.8-1.7 4-.5.4-.699 1-.6 1.7-1 2.2-1.1 4.1 2 4.5 4.1-6.101 7.7-12.5 12.3-18.2 4.301-5.4 6-13.1 12.7-16.5 5 18.4 10.4 36.1 18.2 53.1 2.5-6.699 4-13.399 5.899-20 2-6.699 4.4-13.3 6.5-19.899 2.2-6.601 3.601-13.601 6.5-19.9 2.7-6 2.4-13.5 8.7-18.899 2.4 6.399 5.8 11.3 9.1 16.3 5.7 8.6 10.4 17.8 14.101 27.399 6.899 18 14.8 35.5 24.5 52.2 2.1 3.7 4.6 7.2 9.399 8.5 1.801-4 .4-7.6-.199-11.1-2.5-13-5-26.101-7.5-39.101-.301-2.8-3.7-6.399 1.8-7.899 4.4 5.399 7.1 11.7 10.6 17.6 4 6.7 7.7 13.601 13.601 18.9 1.598-2.301 1.398-4.502.098-6.801zm107.401 284.099c-27.4-4.1-54.101-7.9-80.7-12.2-28.3-4.5-56.7-7.9-84.8-13.4-5.101-1-9.301-2.899-12.9-6.8-16.8-18.5-34-36.6-50.7-55.1-22.8-25.4-45.6-50.6-71.7-73-35.6-30.601-68.6-64.101-102.699-96.3-2.301-2.2-4.101-5.3-8.601-6.101 4.2 21.2 7.2 42.3 12.5 62.8 3.4 3.101 6.5 6.7 10.2 9.4 25.9 18.2 50.2 38.2 71.9 61.4 5.5 5.899 11.8 11.399 21.3 12.899-4.5-11.899-8.7-23.1-13-34.199.6-.301 1.2-.7 1.8-1 2.801 2.699 5.601 5.399 8.301 8.199 37.8 38.9 75 78.301 113.8 116.301 4.2 4.1 8.6 6.699 14.5 7.699 55 9.801 110.3 18.101 165.5 26.2 2.299-1.698 4.498-3.498 5.299-6.798zm474.398 33.7c1.6-12.2 3.5-24.3 4.799-36.5 2.4-22 .4-43.7-4.699-65.2-5.199-9-12.5-16.3-19.1-24.1-2.699-3.2-5.301-3-8.699-1.5-27.9 12.3-63.4 19.199-90.801 32.6 25.1 15.1 49.1 42.3 57.1 70.5 5.199.5 1.1-4.5 3.4-5.7 0-5.1.5-10.1 3.1-15.6 8.5 11.399 12.801 24 20.199 35.8 1.4-14.3-.799-27.7 3.201-42 15.299 17 25.199 34.5 28 55.7 4 1.3 1.901-3 3.5-4zm244.699-85.5c16-20.4 30.201-41.9 43.9-63.8.6-2.4-.4-3.2-2.801-2.801-30.5 9.2-61.6 10.101-93 7.2-12.299-1.1-24-5.1-36.398-5.7-46.301-2.399-92.602-1.5-139-1.5 1.5 3.5 5 2.9 7.699 3.5 39.1 8.801 78.4 15.301 118.6 15.301 8 0 16 .199 24 .5 22.301.899 44.5 4.1 66.801 3.3 1 0 1.9.399 2.4 2.2-4.602 6.399-10.701 12-16.602 17.8.301 4 3.102 3.399 5.701 3.1 8.699-1 17.299-1.9 26.898-3-4 7.3-7.398 13.7-10.799 20-1.299 2.601-.998 4.3 2.601 3.9zm-715.797-318.9c6.1-6.5 10.6-13.399 7-21-4.7-10-21.7-29.5-28.2-38.399-5.1-7-10.5-13.8-15.1-21-18.9-29.7-37.5-59.601-56.301-89.4-1.1-1.7-1.3-4.6-4.899-4.3-4.9 15.8-10 31.6-11.4 48.3-.2 2.9-2.8 6.4 1.9 8.3 1.3-1 2.7-4.3 4.2-1.1 5.699 11.8 16 20.7 20.5 33.3.899 1.2 1.199 3.3 3.5 1.8 4-8.199 5.699-17.3 10.399-25.5 12.9 14.7 13.8 15.801 10.8 33.4-1.5 8.7.601 15.5 6.2 21.9 13 15 26.9 29.3 37.601 46.199.699 1.101 9.199 11.5 10.3 12.4 1-1.799 2.099-3.5 3.5-4.9zm766.198 523.601c-15.4 10.199-30.1 19.3-44 29.399-10 7.2-19.6 7.9-30.801 3.5-22.299-8.899-43.299-20.2-64-32.1-6.398-2.8-6.6 2.5-8.1 6.1-8 9-16.9 15.5-24.9 24.5.201.3-2.199 3.9 1.602 3.3 3 .4 6.1.4 8.799 1.301 17.701 5.699 36.301 8.199 53.9 14.8 7.5 2.8 15.4 3.8 23.4 4.899 7.4 1 13.9-.6 19.9-4.5 12.898-8.3 26-16.1 38.199-25.399 7.4-5.601 14.301-12 22.6-16.4 1.5-2.701 3.801-5.001 3.401-9.4zM976.7 781.327c31.9 11.301 63.8 22.7 95.7 33.7 40.2 13.8 80.7 26.601 121.4 38.5m-140.199 48.4c-59.4-27.7-117.601-55.5-174.601-87.2m321.4 41.1c-2.2-.8-4.3-1.699-6.6-2.3-40.801-12-81.301-24.7-121.4-38.5-32-11-63.8-22.5-95.7-33.7-2-.8-2.5.301-2.6 2 32.399 19 65.899 35.9 99.1 53.301 3 1.5 6 2.8 9.3 3.399 38.601 7 77.301 13.101 116.101 18.101 1.7 0 2.299-.701 1.799-2.301zm-146.799 46.1c-59.4-27.7-117.601-55.5-174.601-87.2-.8 3.8.601 5.6 1.9 7.4 2.7.699 4.8 2.3 6.8 4 11.9 10 23.8 20.1 35.8 30.1 6.9 5.7 13.101 12.4 21.5 15.9 11.301 4.8 22.601 9.5 34 13.899 21 8.101 42.101 16 63.2 24 4-1.999 7.901-3.999 11.401-8.099z"/><path fill="none" stroke="#000" stroke-miterlimit="10" stroke-width="6" d="M1871.199 397.727c7.5-3.5 40.9-36.8 50.9-55.7s45.6-105.399 45.398-103.399c-.199 2 28.201 165.699 27.5 176 12.701 45.699-8.299 96-37.299 135.3 32.4 9.7 97.199 5.2 107.5 3.2 10.299-2 20.199-8.601 17.699-1-46.199 75.199-91.699 126-91.699 126s-6.301 25.8-8 30.8c-1.701 5-36.801 105-32.5 110 70.799 46.5 87.299 33.5 87.299 33.5 11-3.9 50.801-36.3 51.4-31.8.4 6.3-29.4 62-38.199 84-10.1 26.3-17.9 25.199-17.9 25.199-7 3.301-132.6 30.301-174.301 39.7-2.5-9.6-2-21-1.199-34s14.9-36 16.301-39.5c1.398-3.5-2.102-9.399-4.301-20.7-2.199-11.3-37.6-204.699-39.4-217.3-1.799-12.6-14.699-20.399-12.5-.399 1.701 99-9.5 98.399-11.9 100.5-2.398 2.1-106.6 84.5-115.6 97.8s-17.5 14.7-19 11.2-2-114.5-.4-146c1.602-31.5-3.1-41-4.699-64.801-1.6-23.8-15.4-16.199-23-15.8-7.6.4-57.9 6.101-82.5 3.4s-43.998 15-48.498 19.2c-4.5 4.199-84.4 87-95.7 100.199-10.2 3.2-36 50.4-43.9 68.301-7.899 17.899-43.7 188.899-48.7 184.5-5-4.4-97.6-158.2-98.3-152.5-.7 5.699-20.175 127.611-18.975 139.811 1.2 12.199-3 8.699-3.601 8.1-.6-.601-23.989-58.577-27.32-68.841-1.896-5.841-10.528-14.414-12.928-16.414-14-11.3-45.002-32.346-53.803-31.346-8.8 1-6.673-2.81-20.173-.21s-17.3 2.4-21.3 0c-5.5-.9-84.101-60.6-91.5-66.1-1.101-.9-6.9-6.301-6.9-6.301-2.6-2.199-29.7-55.8-21-53.5 9.2 3.9 106.7 36.801 106.7 36.801s18.5 3.5-.1-12.9c-18.601-16.4-91.9-98.1-94.9-105.6-4.4-2.9-31.5-163.5-32.7-179.101-1.2-15.6-27.1-107.399-21.1-107.7 6-.3 121.7 122 132.3 124.4s6.4-12.1 6.4-12.1-7.7-63-8.301-91c73.301-167.7 76.301-211.5 83-218.3 10.301 7 62.7 95.3 62.7 95.3s1.7 8.899 8.3-7.3c6.601-16.2 17.4-65.9 17.7-102.7 1.3-15.7 14-76 18-67.7 103 163.3 108.601 159.1 108.601 159.1s59.6-77.699 54.3-120.199c-.601-7.7-22.7-108.2-13.7-121.2 224.998 94 264.898 136.5 264.898 136.5 17 14.6 230.1 223.5 230.1 223.5l.8-.9zM1028.5 998.893c-13.2-44.5-2.3-69.166 2.2-76.366s23.4-18 24.4-20.7c-2.3-3.899-71.2-33.1-76.5-38.3s-99.5-50.7-100.7-49.8 2 5 2.3 6.3 43.7 99.5 47 111.6c12.8 38.601 19.7 38.601 19.7 38.601 1.1.899 79.999 34.666 79.999 34.666s4.601-.3 1.601-6.001zm28.9-192.966s160.3 54.399 168 54.399m410.299-247.099s-3-5.5-4.201-7.2c-1.199-1.7-121.398-115.3-129.697-123.4-8.3-8.1-13.301-3.399-19.7 1.7-6.399 5.101-159.4 181.9-159.4 181.9-12.699 12-96.699 196.3-96.699 196.3m405.697-256.899c44.799-10.5 238.6-207 238.6-207M1039.7 524.927s88.8 98.1 101.8 110.399c13 12.301 174.5 36 180.601 31.9m-138-365.598l48.3 126.5m102.299-148s-106.6 154.5-108.8 162c.7 25 15.6 213.8 15.9 213.899m577.3-9c-.701-23.1-46.701-76.399-48.201-76.399s-104.199 37.5-104.199 37.5m138.698-62.5s149.701 8 152.301 4.3M1855.1 780.927c69.398-26.8 136.1-102.8 136.1-102.8m-40.501 140.8c-4.801.3-76.4 73.899-76.4 73.899"/></svg>