<svg xmlns="http://www.w3.org/2000/svg" id="hair" viewBox="0 0 3000 3000"><path id="cl1" fill="#F3CC3F" d="M1649.381 783.505c-2.7-4-1.5-8.4-1.2-12.601 3.899-53.801 6.5-107.699 8-161.699 0-1.602.301-3.301-.8-4.9-2.801-1.4-4.2 1.1-5.7 2.5-6.199 5.6-12.199 11.3-18.399 16.9-1.601 1.5-3.101 4-5.8 2.8-2.101-1-1.7-3.4-1.899-5.3-2-21.602-4-43.102-6-64.7-4-43.5-8.101-86.9-12.101-130.4-.101-1-.5-1.899-1-3.2-3.5.602-3.601 3.602-4.399 5.801-7.601 20.301-15 40.601-22.5 60.899-.9 2.5-1.801 5-2.9 7.4-1.5 3.3-3.699 3.6-6.1.898-1.101-1.199-2.201-2.5-3.301-3.8-30.699-37.8-64.8-72.5-99.5-106.7-6.699-6.6-10.5-13.8-12.3-23-8.5-43.5-15.4-87.199-23-130.899-1.5-8.699-1.4-17 .698-25.6 10.102-41.4 19.802-83 29.602-124.5.5-1.9.6-3.9.8-5.9 3.8-6.5 3.7-6.5 7.9-.699 28.8 40.5 54.399 83 78.8 126.199 13.5 23.801 26.899 47.601 36.399 73.301.601 1.5-.399-.601.7.5 3.101 3.3 3.699-25.801.199-35.801-11.1-31.898-18.8-64.899-26.699-97.699-2.801-11.601-6-23.101-8.899-34.7-1.101-4.601-3.2-11 5.5-11.5 21.399 41.801 42.8 83.601 64.3 125.301 2.301 4.399 2.7 8.899 2.801 13.5 1.1 32.3 5.5 64.699 6.699 96.999.5 13-.3 25.5.5 38.5.5 7.601-.9-76.899-3.199-118.799-1.101-20.602 10.799-47.7 13.799-67.801.602-4.199 1.5-8.399 2.5-13.699 4.301 2.898 5 6.8 6.701 10.1 25.399 50.101 41.399 103.601 55 157.8 13 52.101 23.1 104.601 24.5 158.601.399 15.3-.4 30.5-.4 45.801.101 12.101 4.5 14.601 14.801 8.101 27.6-17.5 49.5-40.102 62.3-70.8 14.8-35.5 26-72.001 31.5-110.102 2-13.8 1.5-27.899 3.5-41.8.601-3.801-.7-9.7 6.8-7.7 12.2 40.899 21.801 82.399 32.101 123.7 5.899 23.899 12.101 47.8 14.7 72.399 2.3 21.5 6.3 42.801 7 64.5.601 18.399.3 36.601-3.5 54.7-.101.699-.2 1.3-.399 2-.601 3.5 5.601-52.601 4-69.899-.5-4.9-1.5-9.4-.2-15 15.301 5.8 41.301 6.6 56.399 3.6 6.7-1.2 8.2 1.3 4.601 6.8-1.8 2.802-4.699 4.7-7.4 6.7-1.5 1.102-4.299 2.102-2.898 4.4 3.898 6.3-.4 9.899-3.9 13.899-3.1 3.601-6.1 6.699-2.899 12.199 2.101 3.7-.699 7.7-2.8 11.101-20.7 33.399-40.899 67.101-61.301 100.601-2.3 3.8-3.9 11.3-11.699 6.7-2.7-6.601-4.899-13.301-5.7-20.4 1.101-12.2 12.101-38 19.801-46.7-6.5 6.7-11.301 14.9-18.301 21.2-3.601 3.2-6.899 5.3-11.3 1.7-4.101-6.8-8.601-13.101-14.2-18.8-1.199-.7-1.101-2.5-2.399-3.101-2.4-6.5-2.699-13.101-1.199-20 1.6-7.399 2.699-15 3.799-22.5 1-7.301 2.102-14.601 3.4-20.601-6.9 14.601-14.199 30.2-24.101 44.4-1.899 2.6-4.8 3.6-7.699 4.6-5.5.4-10.7-1.899-16.101-2.2-8.1-.6-11.301-4.8-10.899-13.1.5-8.9.5-17.9-.2-26.9-.3-3.5 0-7.3-3.899-11-5 10.5-10.3 20.4-14.399 30.7-5 12.5-11.9 23.5-22.5 31.9-34.199 19.398-55.801 49.5-72 84.3-7.711 16.798-15.111 33.598-22.111 50.5zm-127.7-248.902c-13.199-21.3-29.101-40.6-46-59.1-20.8-22.601-43.3-43.5-65.699-64.301-51.301-47.7-105.5-92-158.801-137.3-65.899-55.9-135.199-107.3-207.5-154.601a7.968 7.968 0 0 0-2.101-1.5c-.5-.5-1-.699-1.699-.899-1.2 3.8.199 7.2 1.199 10.7 14.601 48.1 29.301 96.3 43.801 144.398 4.9 16.102 12.199 30.899 21.699 44.801 19.2 28.199 42.101 53.399 66.5 77.1 1.4 1.301 2.601 3.2 6.101 2-4.399-32.899-8.8-66-13.399-100.199 5 1.8 6.2 5.101 8 7.7 25.899 36 52.399 71.5 80 106.199 16 20.101 32.301 39.899 50.7 57.899 4.8 4.7 9.699 9.2 15.5 12.5 10.5 6 16.601 3.101 18.101-8.699 1.199-9-.201-17.899-1.601-26.801-.801-5.199-2.801-10.199-2.2-18 8.899 11.2 15.1 21.7 22 31.7 6.801 9.899 13.399 19.899 20.1 29.8 6.9 10.2 13.701 20.5 20.701 30.7 6.799 10 13.299 20.3 21.5 29.7 4.399-22.7 1.799-45.601 6.799-68.101 47.201 62.899 95.602 124.3 138.701 189.601.699-1.7.699-3 .5-4.301-6.4-38.8-15-77.199-26.4-114.899-1.1-3.5-2.199-7-4.801-9.8-6.401 2.504-9.001-1.797-11.701-6.297zm-154.3 88.902c-.5-.7-1.101-1.4-2-1.8h-.101c-.7-1.602-2.8-1-3.601-2.4-4.5-2.9-8.801-6.1-13.399-8.7-38.2-21.6-79.399-35.8-121.2-48.7-3.399-1.1-6.5-1.1-9.3 1.5-3.101 4.5-7.399 3.4-11.7 2.5-18.6-3.699-36.899-8.8-54.8-15.199-69.601-24.801-135.3-57.301-196.899-98.199-4.399-2.9-9.7-5.102-13.2-8.9-11.601-12.898-25.101-23.8-37.199-36.101-38.301-39.3-76.801-78.5-115.101-117.8-4.399 2.5-2.5 6.399-2 9.899 4.601 34.7 9.101 69.3 13.899 103.899 1.899 13.5 2.3 27.301 6.8 40.301 21.801 63.6 43.7 127.199 65.4 190.899 2.3 6.8 5.898 11.199 12.699 14.101 35.601 15.1 71 30.5 106.4 45.8 2.299 1 4.6 2.899 7.799 1.101-.398-3.899-3.199-6.399-5.199-9.301-22.301-30.699-44.801-61.3-67.1-92-2-2.699-4.9-5.199-5.301-10.5 29.801 13.602 58.6 26.7 87.301 39.7 2.5 1.3 4.5 1.7 4.299-2.2-31.799-28.398-63.198-57.199-92.898-87.8-5.102-5.2-9.8-10.8-14.602-16.399-1.198-1.399-2.698-3.199-1.5-5.399 1.201-2.101 3.4-1.9 5.4-1.601 7.9 1.301 15.6 3.5 23.1 6.199 23.5 8.301 47.201 16.5 70.5 25.301 34.5 13.101 70.102 20.899 106.802 24.101 14.899 1.3 29.8 2.399 44.5 5.899 68.3 16.399 136.698 32.399 204.3 51.899 1.301.899 3 .601 4.301 1.5.601.101 1.199.2 1.899.3 1.9.698 2.601.099 1.701-1.9zm30.199-314.001c-6.699-25.398-13.3-50.898-20.1-76.3-3-11.2-4.9-22.8-9.4-33.7-24.199-58.5-48.3-117-72.5-175.5-1-2.3-1.5-4.898-3.8-7a101.14 101.14 0 0 0-16.101 18.2c-.1 4.2-2.699 7.5-4.6 10.9-7.801 13.6-14.9 27.5-21.201 41.8-16.799 37.5-31.6 75.5-28.799 118 .6 8.5 2.699 13.899 9.899 18.8 57.199 38.4 114.101 77.2 171.699 115 1.899 1.2 3.5 3.2 6.2 2.3 2.8-14 1.699-17.5-6.899-22.5-2.898-2.8-3.398-6.5-4.398-10zM865.381 795.505c-2.601-3.101-5.601-4.2-9.301-4.9-13.399-2.5-26.699-5.399-40.1-7.899-6.4-1.199-11.9-3.699-17.102-7.399-27.1-19.3-54.3-38.5-81.398-57.7-1.301-1.5-2.7-1.398-4.102-.2 4 7.102 8.9 13.7 14.102 20 2.398.7 3.8 2.7 5.3 4.4 28.3 32.399 56.601 64.6 84.7 97.2 4.5 5.199 9.199 9.398 15.5 12.1 32.898 14.7 67.1 26 100.8 38.3 1.2.4 2.601.802 3.3-1-.199-2.1-1.699-3.5-2.899-5.1-13.101-17.2-26.3-34.4-39.399-51.601-2-2.601-4.8-4.699-5.199-8.301-8.202-9.201-16.402-18.401-24.202-27.9zm1053.9-33c-7.8.6-15.7 2.2-23.601.7-8.1 3.699-11.699 9.898-11.899 18.8-.101 5.899.399 12-2.399 17.5.101 4 .3 8 .399 12 3.3 8.6-.3 18.2 2.899 27.1 4.4-1.6 6.5-4.7 8.601-7.6 17-23.5 38.3-43 58.5-63.601 2.3-2.399 4.7-4.699 5.8-7.899-12.7 1-25.501 2.098-38.3 3z"/><path id="sd1" fill="#AD722A" d="M889.481 823.505c7.699 5.399 13.398 12.899 20.1 19.2 23 21.898 47.101 42.199 75.101 57.6 5.2 2.899 10.7 5.399 16.2 7.8 3.199 1.5-81-47.6-127.399-105.8-5.801-6.3-8.2-18.4-12.899-27.5-5-9.6-9.4-19.6-13.201-27.7-15.6-33.1-31.6-66.1-47.499-99-2.399-4.899-3.5-9.899-4-15.3-7.2-84.3-14.5-168.5-21.7-252.801-1.3-15.601-2.5-31.199-3.8-46.8-.101-1.3-.399-2.7-.2-4 2.7-15.7 5.5-31.3 8.4-47.8 5.3 1.7 8.199 4.3 10.5 8.1 4 15.4 6 31.2 8.1 47 3.801 28.4 7.7 56.7 11.301 85.101 1.5 11.7 5.1 22.601 8.8 33.7 18.7 55.9 38 111.601 57.101 167.4 4.199 12.3 10.8 20.199 23 25.3 26.8 11 53.3 22.8 79.8 34.3 2.7 1.101 5.3 2.601 9.3 2.5-9.898-15.3-20.6-28.8-30.6-42.899-11.9-16.899-24.801-33-36.301-50.2-2-3-5.199-5.8-2.399-9.8 3.101-4.301 7.2-2.601 10.8-.899 27.4 12.399 55.9 22.8 81.2 39.3.5.1.899.5.899.5-1 .8.801-.3-.6-.4-9.4-4.6-16.9-11.398-24.301-18.3-27.5-25.7-56.1-50.2-80.399-79.1-.899-1-1.601-2.101-2.5-3.101-2.899-3.301-4-7.101-2.101-11.101 2.101-4.5 6.601-4.2 10.5-3.5 8.601 1.4 16.9 3.8 25.101 6.5 29.8 9.8 58.899 21.2 88.5 31.601 33.399 11.699 68.101 15.8 102.899 18.899 17.699 1.5 34.801 5.8 51.9 10 51.8 12.7 103.8 24.4 155.1 39 7.9 2.3 15.5 5.101 22.801 8.7.399.399.899.7 1.399.7-.101 0 .601.199.5.199s.399.199.3.199.301.2.301.2l-.4-.2s-.5-.199-.6-.199c-.601-.199-1-.5-1.5-.699-42.601-22.301-87-40-133.101-53.102-2.3-.699-4.3-1.699-6-3.3-3.8-1.2-13.5-2.899-18.601-3.899-36.699-7.601-71.699-20.399-105.899-35.399-48.601-21.2-95.5-45.7-139.8-74.9-9-5.899.601-10.5 4.101-20.399 16.101-45.899 32.101-91.699 49.899-136.899 1.3-3.399 2.5-6.899 4.199-10.199 16.7-31.5 20.399-65.801 21.601-100.601.601-18.601.3-37.301.399-55.899 0-2.301-.399-4.7-.101-7 .802-6.2 3.5-4 6.101-1.2 13.301 21.899 16.801 47.2 24.601 71 9.2 27.8 17.2 56 25.8 84.101 9.5 31.1 29.5 55.699 50 79.899 9.602 11.3 19.102 22.899 32 33.3-1.8-18.199-4.8-34.8-6.8-51.5-1.3-10.601-2.899-21.101-4.399-31.601-.601-4.199-1.4-9.3 3.6-11.399 5.4-2.3 7.701 2.4 10.201 5.801 29.699 40.6 59.398 81.199 91.1 120.199 13.9 17.001 27.699 34.101 44 49.101 2.199 2 4.3 4.2 6.8 5.9 3.301 2.3 6.801 4.898 11 3 4.801-2.102 4.7-6.801 4.899-11.2.4-8.7-1.199-17.3-2.899-25.8-.699-3.301-1.3-6.602-.5-9.9 1.399-5.899 5.899-7.399 10.101-3.1 3 3.1 5.2 6.898 7.601 10.5 22.2 34 46 66.898 68.899 102.6 1.2-10 .899-18.6.601-27-.3-9.7 1.101-19.3 2.3-28.8.4-3 .7-6.102 4.102-7.4 4.1-1.5 6.1 1.3 8.199 4 16.6 21.3 32.6 43 48.5 64.801 23.801 32.5 48.199 64.601 70.801 98 3.199 4.699 6.199 9.5 8.1 13.699-1.7-2.699-2.301-6.899-3.1-11-5.801-30.5-13.201-60.5-21.701-90.3-1.199-4.2-5.399-16-7.899-20-9.399-15-22.399-27.5-34-40.899-34.399-39.5-71.199-76.2-110.601-110.601-76.299-67.399-155.5-132.801-236.299-194.399-1.301-1-2.602-2.101-3.9-3.101-3.301-2.301 6.199-11.301 8.8-14 6.601-7 13.101-14.199 19.601-21.301 33.5-36.6 67-73.1 100.5-109.699 1.801-1.899 3.101-4.399 5.899-5.101 5.101 1.101 4 4.4 2.601 7.7-2.199 5.2-5.199 10-7.899 15-17.2 32.1-31.3 65.3-40.399 100.7-4 15.8-3.5 31.699-3.199 47.6.1 6.101 3 10.8 8 14.2 53.699 37 107.5 73.8 162.5 109 1.1.699 2.299 1.3 4 .899 3.699-3.301-5.4-7.7.6-11 1.5-1.399-.399-2.399-2.801-11.899-7.5-28.601-14.8-57.3-22.699-85.8-2.2-8 3-1 13-21.301 23.4-39.5 46.199-79.301 69.3-119 .801-1.399 2-2.601 2.899-4 6.101 1.399 4 6 3.4 9.601-3.101 16.7-7.4 33.2-11.4 49.7-5.199 21.699-10 43.5-15.6 65.1-3 11.8-3.699 23.5-1.4 35.601 7.5 40.899 13.4 82.199 21.601 123 2 9.899 6.601 17.8 13.5 25 29.399 30.399 59.5 60.2 86.801 92.5 1.3 1.5 2.601 3 4.101 4.3 6 5.4 9.5 4.8 12.8-2.8 5.399-12.5 9.399-25.6 14.3-38.399 2.4-6.2 4.7-12.5 7.301-18.601 1.399-3.5 3.5-6.801 8-6.2 4.801.601 4.899 4.7 5.399 8.4 3.399 28.1 5.5 56.3 8.2 84.5 3 31.8 5.9 63.6 8.5 95.5.3 3.3.199 7.3 3.6 8.8 4.301 2 6.5-2.2 9.102-4.4 3.3-2.8 6.199-6.1 9.5-8.898 2.398-2 4.898-3.7 8.1-1.7 2.699 1.7 4.3 4 4.199 7.399-1.399 32.601-1.5 65.199-4.299 97.699-1 12-.9 24-1.5 35.9-.701 15-5.102 29.2-6.301 44-1.699 7.5-5.801 14-8.301 21.2-4.5.1-5.6-3.601-7.5-6-21.199-25.8-43.699-50.2-67.1-74-30.9-31.4-67.801-60.4-111.101-67.2-40.399-6.4-89.82-15.953-129.22-3.754-63.101 14.947-81.458 57.716-98.657 109.015-12.6 37.6-18.323 86.739-22.823 126.339-2.5 21.801 5.299 37.801 24.898 46.2 12.801 5.5 14.801 13.601 14.5 26.101-.898 38-.6 76-.699 113.899 0 10.301 0 10.4-10.199 11.5-9.301 1-18.602 1.9-27.9 2.601-8 .601-21.348-4.107-23.447-11.908-9.199-35.101-8.509-53.6-17.509-88.8-5-19.7-8.446-38.029-12.946-57.83-1.5-6.5-11.417-14.37-17.342-17.436-19.402-10.039-38.294-13.439-44.893-14.439-17.9-2.601-28.579 1.428-39.879 15.127-8.371 19.079-18.667 27.815-13.266 55.315 3.1 16 10.439 36.863 19.638 50.264 15.2 22.1 38.388 51.202 60.888 66.501 7.699 5.2 15.915 13.546 25.37 12.748 15.203-1.284 25.34-6.774 32.566-4.385 3.6.5 8.146 13.465 9.046 16.866 6.8 27.399 3.149 21.896-20.817 23.728-3.988.306-26.528 5.117-30.33 3.621-49.885-19.643-102.479-41.974-152.377-61.474-1.2-.5-2.301-1.3-3.801-2.101 1.5-2.899 4-1.899 6.101-1.899 10 0 20 .101 30 .2 1.7 0 3.3.1 5-.101 3.7-.301 7.8-.601 8.5-5.2.7-4.3-3.3-5.199-6.101-6.8-39.199-21.5-77.399-44.5-115.601-67.601-1.399-.8-3-1.399-3.8-3.899 3.4-1.601 7-.601 10.3-.301 24.9 2.301 49.7 4.7 74.601 7 4.601.4 9.301.801 13.899.801 2.4 0 4.5-1.2 5.4-3.7.898-2.601-.4-4.601-2.4-6-2.399-1.699-5.1-3.199-7.6-4.8-55.102-33.7-111-66.2-165.7-100.7-7.2-4.601-12.9-10.101-17.6-17.199-27-40.9-54.2-81.601-81.302-122.4-1.1-1.6-2.5-3.199-2.5-5.3 4.9-6.3 7.7-.3 10 2.2 15.9 17.899 31.7 35.8 47.5 53.899 13.102 15.101 26.102 30.199 39.5 45 6.5 7.101 15.4 10.399 24 13.8 26 10.2 52.2 19.801 78.102 29.101-13.102-15.399-24.8-32.399-37.4-48.7-2.514-2.805-5.914-6.106.286-8.903zm952.3-523.101c-5.899-22.4-12.2-44.601-18.3-66.9-1.7-.8.5-5.398-3.7-3.898-2.7 18.1-5.601 36.199-8.101 54.398-8 58.4-17.699 116.601-31.899 173.9-5.899 23.899-11.7 47.899-19.8 71.199-1.2 3.5-2.2 7.102-4.801 9.801-1.801 1.801 21.4-78.399 30.101-114.699 1.101-4.501-8.301-10.102-10-14.301-5.399-12.9-11.801-25.4-18.601-37.601-31.5-56.801-63.1-113.601-94.899-170.301-3.899-6.898-6.7-14.5-12.101-20.5-.399 2.801 1 5.2 1.9 7.602 19.299 50.398 35.6 101.8 48.699 154.199 16 63.8 26.699 128.399 23.899 194.601-.3 6.699-.699 13.301-1.199 19.899-.601 8.8.199 9.3 8.699 5.899 7.801-3.101 15-7.199 21.801-12.101 16.3-11.8 30.199-26.1 42.899-41.6 1.5-1.801 2.699-3.801 3.8-5.801 13.101-24.8 23.399-50.899 30.899-77.8 8.5-30.4 13.9-61.7 14.301-93.5 0-3.9-.6-8.101 2.199-11.5-.497-7.496-3.997-13.996-5.796-20.996zm36.7 481.801c.6 5.8 0 11.898 2.898 17.3 6.201 2.2 6.701-2.5 6.9-6.4.399-9 1.399-17.7 7.2-25.2 1.101-1.398.399-3.199.199-4.8-3.399-4.7-.699-8.8 1.2-13.1 27.601-63.4 55.199-126.9 82.899-190.3 1.3-2.9 3.2-5.7 3-10.2-8.8 2.7-17 5.1-25.101 7.6 1.5 1.101 2.4 2.5.699 4-3.5 3.101-7.199 5.9-10.5 9.101-3.1 3-7.398 5-9.6 9.301 3.801 1.3 6.7-1.9 10 .8-4.5 7.399-11.101 13-16.101 19.899-.601.801-.899 1.801-.199 2.5 2.8 1.601 5.8-2.601 8.5.801-.2 2.699-1.801 4.898-3.2 7.199a34422.39 34422.39 0 0 1-61.699 101.301c-1.7 2.8-3.101 6-6.2 7.6 4.405 20.696 7.005 41.597 9.105 62.598zm10.9 44.699c-1.601-3.899-.399-7.699-1.2-11.199-.8-3.4-1.601-6.9-6.399-4.2-.101 8.7-.101 17.3-.3 26 0 3.7.8 7.7-.5 10.899-4.5 11.399-7.101 23.699-13.399 34.399-7.5 12.601-7 26.7-10.101 40.5 1.601-.399 2.5-.3 2.8-.7 38-50.199 75.899-100.398 113.801-150.699 3-4 6.5-7.601 8.6-12.199.101-.301 0-.602-.1-.9-.101-.299-.2-.6-.5-1.2-8.2-.5-16.4.7-24.7 1.9-26.502 18.298-46.902 43-68.002 67.399zm-338.801-736.7c-7 13.7-13.5 27.5-20.899 40.8-3.899 7-13.601 17.9-9.5 24.7 23.601 39.3 47.601 78.601 65.2 121.2 1.699-4.101 8.5-12.8 6.399-17.2-5.601-11.8-3.8-25.7-7.5-38.1-11-37.4-18.3-75.7-29.399-113.102-1.101-3.8-2.601-7.699.601-11.3-.501-2.899-1.101-5.798-4.902-6.998zm244.801 547.001c-4.399-1.602-5.6-4.801-5.399-9.4.699-15.6-.301-31.1-2.399-46.6-.5-3.4 1-8.7-3.301-9.4-4-.7-5.101 4.6-6.601 7.7-11.3 23.2-21.399 47-34.399 69.399 16.599-7.899 33.699-12.801 52.099-11.699zm41.9 16.398c8.1-25.1 12.299-67.8 7.398-76.699-10.199 20-19.6 40.199-31.898 58.801-.701 1.1-.9 2.5-1.4 3.699 9 4.199 17.6 8.899 25.9 14.199zm26.4 45.7c4.301-5.601 7-12.101 10.101-18.3 3.101-6.2 6.301-12.5 8.7-19 2.3-6.101 8.8-10.601 8-18.4-4.5.2-6.7 2.9-8.899 5.2-4.9 5-9.301 10.399-14.301 15.3-4.101 4.102-6.9 9.9-13.4 11.4 4.198 7.6 6.499 15.901 9.799 23.8z"/><path id="cl1" fill="none" stroke="#252524" stroke-linecap="round" stroke-linejoin="round" stroke-miterlimit="10" stroke-width="6" d="M1041.58 115.704l96.101 68.7s142.301-160 154.601-172.4c10.7 13.301 84.801 210.9 84.801 210.9.399-6.4 88.6-152.9 88.6-152.9l51.199 79.4c3.801-5.3 33.801-65.101 34.5-61.4 7.301 7 79.301 164.301 80 146.301.701-18 11.701-63.101 11.701-63.101 11.299 9.2 137.799 263.899 144 247.8 8.699-22.699 24-168.3 33.399-193 48.699 124 78.101 323.601 78.101 323.601s5.199 5.4 13.699 6.4c2.5 4.7 40.6 2 55-1.8 14.399-3.801 15.5-8.9 15.6-4.7.101 4.2-3 10.2-3 10.2s-54.1 132-75.5 173.398c-24.399 37.2 0 29.2 0 29.2s37.7 2 65.101-4.4c27.399-6.398 8.399 9.4 8.399 9.4-6.1 4-102.5 148.3-120.199 155.899-2.699-22.399 16.199-53.899 20-64.899s7.4-15.3 4.199-50c-3.199-34.7-5.399-85-33.5-141.5-41.3-45.8-84-27.9-116.399-10.7-51.199 42.101-82.399 127.2-82.399 127.2s-4.199 37.2-14.801 16.8c-129.398-191.2-306.883-166.803-361.281-121.604-54.4 45.2-66.018 191.004-67.117 197.704-1.102 6.699-7.4 48 17.398 55.899 24.801 7.9 20.801 24.301 20.801 24.301s-1.3 104 0 118.8c.801 9.5-8.1 11.301-8.1 11.301s-19 1.899-31.2 3c-12.2 1.1-22.383-7.505-22.383-7.505s-19.631-95.103-23-120.25c-1.823-13.605-11.305-49.272-23.005-48.772-9.3-9-56.995-18.978-76.124-8.269-16.349 9.15-23.327 25.291-24.027 53.291-3 48.5 46.211 93.243 49.771 97.733 57.688 72.77 84.154 27.617 85.654 31.017S1189 1126.1 1184.9 1130c-4.1 3.9-53.72 8.704-53.72 8.704s-139.3-52.3-150-59c-10.699-6.699-.3-6.3-.3-6.3l27.3-1.7c22.5 1.5 13.801-9 13.801-9s-95.4-55.101-115.8-64.699c-20.4-9.601.399-8.601.399-8.601s27.601-.7 67 6.399c39.399 7.101 30.601-5.7 30.601-5.7s-142-91.399-163.301-100c-21.3-8.6-31.5-27.5-31.5-27.5s-100.8-143.199-96.2-148.699c4.601-5.5 93 65.8 93 65.8l59.102 15.8s-2.301-20.6-4.102-23.399c-11.8-6.8-49.699-107.7-57.1-114.8-7.401-7.101-9.2-33-9.2-33l-24.899-295.101s4.899-53.399 8.399-47.8c13.899 8.6 166.601 161.399 166.601 161.399l10.5-6.8 69.6-189.001c9.201-26 8.601-129 8.601-129-1.501-9.598 7.898-2.298 7.898-2.298zm-177 673.7s29.301 55 143.101 123.5m-62.601-470s125.2 91.8 272.5 121.8m312.601-23c-98.601-143.601-392.5-357.3-392.5-357.3m264.2 135l-24.899-96.5m139.799-73.4l73.101 132.9m41.399 99.199c-.101-15.5-7.3-153.8-7.3-153.8m128.9 313.601c11.3-24.2 33.399-121.801 33.399-121.801m111.3 224.601c6.7-32.399 1-93.101 1-93.101"/></svg>