<svg xmlns="http://www.w3.org/2000/svg" id="hair" viewBox="0 0 3000 3000"><path id="cl1" fill="#2C2C2B" d="M970.481 398.616c10.1-15 22.699-27.899 35.199-40.8 5.7-5.899 10.301-12 13.101-19.8 2.1-6 4.899-11.7 8.899-16.7 3-3.7 6.4-6.1 11.2-3.1s8.8 1.5 12.8-1.7c21.7-17.3 44.601-32.8 68.5-46.7 4.5-2.6 7.601-6.3 10.2-10.8 4.5-7.899 10.101-14.899 16.601-21.2 4-3.899 5.199-3.5 8.6 1 6.2 8.301 6.8 8.601 16.5 4.5 35.9-15.399 72.9-27.199 111-36.3 22.7-5.399 45.8-7 68.8-10 12.601-1.6 25.2-2.6 35.7-11 3.5-2.8 6.6-1.8 9.8.9 12.101 9.899 20.601 10.6 34.3 3.1 7.9-4.3 9.601-3.899 16.4 2.2 7.1 6.3 15.5 6 23.5 3 6.2-2.3 11.2-4.2 15.5 2.5.5.8 1.6 1.5 2.5 1.6 16.4 2.7 32.6 10.7 49.5 1 7.8-4.399 16.3-7.6 24.7-10.8 6.399-2.5 8.5-.899 8.899 6 .301 4.3.101 8.7 0 13-.1 6.101 2.4 10.2 8.301 12.101 24.8 7.899 48.899 17.6 72.8 27.8 2.1.899 4.7 1.8 6.7 1.3 8.8-2.3 17-.8 25.3 2.2 3.5 1.2 7.3-.101 10.9-.601 4.5-.699 6.1 1.7 5.8 5.801 0 .699-.1 1.3-.2 2-.8 5.199-3.2 10.899 2.101 14.8 6.1 4.6 12.1 9.7 20.8 7.7 1.899-.4 4-.601 5.899-.801 10.301-1.1 10.5-.899 10.5 9.4 0 5.6 1.7 7.8 7.4 8.7 6 .899 12 .1 18-.3 2.7-.2 5.3-.601 8-.5 3.1.199 4.3 2 2.4 4.699-1.5 2.2-3.4 4.101-5.101 6.101-3.1 3.699-2.899 7.3.5 10.6 5.101 5 10.601 9 18.101 9.6 9.3.801 18.6 1.9 27.8 3.4 10.1 1.7 12.2 4.5 12 14.9-.101 4-.601 8-1.2 11.899-1.1 6.4 0 12.3 5.3 16.2 12 8.9 19.801 21.3 28.2 33.2 2.3 3.3 5.3 6.1 7.4 9.5 5.6 9.5 14.199 13.2 24.699 14.7 14.2 2 15.601 4 16.9 18.699.5 6 .5 12-.2 18-1.3 10.601 1.5 19.801 9.601 27.101 3 2.7 5.5 5.899 7 9.6 2.3 5.601 5.199 10.8 9.899 14.8 3.2 2.7 4.301 5.9 1.7 9.7-8.8 13.101-1.4 24.101 5.2 34.8 3.3 5.301 8.3 9.5 12.5 14.301 3.7 4.199 4.5 8.399 1.2 13.6-4.4 7-5.2 15-5.5 23.1-.2 6.2 2 11.7 5.8 16.601 1.8 2.399 3.899 4.6 5.399 7.2 3.101 5.399 2.5 9-3.399 11.1-7.9 2.9-10.2 8.2-10.9 15.9-1.5 17.6-3.7 35.1-6 52.6-.7 5.2-2.6 10.3-4.1 15.4-2.3 8.1-2.101 15.899 2.8 23 5.7 8.199 5.9 15.8-1 23.5-1.7 1.899-3 4.5-3.9 6.899-3.699 10.101-9.699 18.101-19.8 22.7-2.8 1.3-4.5 3.9-5.899 6.6-1.5 3-3.101 5.9-4.2 9.101-7.4 22-21.5 40.3-32.4 60.399-.6 1.101-1.5 2.101-2.6 3.5-2.101-2.6-.7-4.8-.2-6.699 1.9-6.7 3.7-13.5 6-20.101 8.8-25.5 10-51.2 5.1-77.7-6.199-33.1-12.8-66.1-19.8-99-5.7-26.6-18-49.199-40.8-65.399-18.3-13-38.6-18.2-60.6-14.8-28 4.3-54 13.699-76.101 32.699-16.899 14.601-34.899 27.801-55.3 37.5-12 5.7-24.6 8.2-37.8 7.301-11.601-.7-21.9-4.9-31.4-11.7-22.8-16.4-47.1-30.2-72.7-41.9-34.3-15.7-70-25.6-108.199-24.7-49.7 1.2-90.601 30.5-107.301 77.301-7.1 19.699-7.1 39.899-3.8 60.199 4.4 26.801 13.8 52.101 25.601 76.5 1.3 2.7 2.8 5.301 3.899 8.101 2.7 6.3 2.5 7.6-3.3 11.7-11.2 7.899-22.5 15.5-33.8 23.199-5.801 3.9-11.801 7.601-17.7 11.301-7.7 5.3-16.2 5.5-25.2 4.3-56.2-7.8-102.6-33.3-139.7-76.3-12-13.9-24-27.7-33.399-43.5-7.5-12.601-12.101-25.7-10.9-40.7 3.8-50.5 16.9-97.8 47.5-138.9 12-16 27.4-29.1 41.8-42.899 1.4-1.301 3-2.7 5.2-2.7-19.6 6.3-38.8 3.2-57.2-3.7-53.199-20-84.699-61.5-107.6-111.101-4.2-8.501 1.2-14.401 5-20.802zm352.2 756.301c-.699-.601-1.399-1.2-2-1.9-16.199-9.3-32.6-18-47.399-29.6-8.5-6.7-14.101-14.9-16.2-25.5-.9-4.601-1.9-9.101-2.6-13.7-4.2-26-6.5-52.2-8.2-78.5-1.2-19.601-1.3-39.3-3.7-58.8-3.4-10.4-1.4-21.101-2-31.7-.2-3.8.8-7.8-2.3-13.2-3.7 11.6-9.2 21-8.5 31.9 1 14.3 2.6 28.5 3.8 42.699 2.4 27.801 4.8 55.601 7.1 83.4 1.5 18.5 2.9 37.1 4.4 55.6.6 7.2 3.9 12.301 10.5 15.7 18.4 9.5 37.6 16.8 57 23.8 3.4 1.2 7 2.601 10.3-.399l-.201.2z"/><path id="sd1" fill="#252524" d="M1322.882 1154.817c-1 0-2.2.601-2.9.3-20-9.3-40.4-17.5-59.8-27.899-6.301-3.4-9.4-9.4-10-16.4-1.601-17.9-2.601-35.8-4.601-53.6-3.199-28.2-4.3-56.5-7-84.7-1.699-18.101-5-36.3-2-54.7 0-.308.12-.493.31-.519-.003.039-.009.072-.009.118-1.9 8.301-1.4 16.7-1 25 .199 4 1.3 7.7 6.699 4.5.3-18.3.2-36.6-1.3-54.8-.5-6.1-.7-12 3.5-17.1-10.4.1-20.6-.4-30.9-2.1-36.1-6.2-69.1-19.4-97.899-42.5-16.2-13-30.4-27.9-43.601-43.801-6.8-8.199-13.1-16.8-19-25.699-10.7-16.4-15.6-33.7-11.399-53.2.5-2.3.399-4.7.699-7 4.2-31.2 12.101-61.3 26.7-89.5 2.4-4.601 4.9-8.7 10.601-9.7 2.399-.4 5.399-2.1 3.699-4.6-4.3-6.301.2-10.101 3.5-13.9 15.801-18 32-35.8 51.4-50.1 1.4-1 3.9-1.5 3.3-4.2-2.2-.8-4 .399-5.899.7-11.2 1.6-22.4 3.399-33.801 2.199-31.899-3.3-58.199-18.3-81.199-39.5-20-18.5-34-41.6-46.7-65.6-4.8-9-6.5-18.1-3.8-27.9-5.101 5.2-11.4 6.4-18.4 6.4-7.399-.4-14.6-1.8-21.7-3.5-7.6-1.8-9-.5-8.3 7.3 1 10.4 4.3 20.2 9.3 29.3 3.2 5.801 3.2 11.101-.199 16.9-4.801 8.3-9.5 16.8-13.9 25.4-3.4 6.699-8.6 9.899-15.8 10.5-6.7.6-13.3 1.199-19.9 2-9.6 1.199-12.2 3.8-13 13.199-1 11.5.101 22.601 5.101 33.2 1.699 3.601 3.5 7.2 4.899 10.9 3.8 10.1 2 15-7.8 18.899-7.4 3-9.9 8.4-9.6 15.7.199 4.601.899 9.2 1.1 13.9.3 5.399-.3 10.8-3.6 15.3-3.601 4.8-4.601 10.2-4.301 16 .5 9.7-2.6 16.7-12.6 20.1-5.7 1.9-6.6 5.5-4.6 11.2 1.7 4.8 4.899 8.7 8 12.601 5 6.199 8.1 12.899 8 21-.101 5.8 1.3 11.199 4.7 16 4.8 6.6 4 13-.9 19.199-3.3 4.2-6.2 8.601-6.3 14.301-.2 10.899-4.9 19.699-12.101 27.699-5.899 6.601-5.699 8.9 1.301 14.601 8.6 7.1 18.199 12 29.899 12 7.4 0 10.5 2.1 10.3 8-.199 6.7 2.4 12 5.4 17.6 4.4 8.2 3.2 11.7-4.4 17.8-5 4-5 4.5.301 8.601 2.1 1.6 4.399 3.1 6.199 5 2.7 2.899 3.2 6.399 1.7 10.2-3 7.699-2.899 7.8 5.3 10.199 1.601.4 3.2.9 4.7 1.5 12.4 5.101 15 14 7.3 24.801-4.1 5.8-3.899 7.8 1.9 12.5 3.9 3.1 8.1 5.899 11 10.1 4.9 7.2 10.1 14.1 16.4 20.1 4.199 4 5.3 9.101 4.399 14.7-.399 3-1.2 5.9-1.8 8.8-1.5 7.7-.5 9.801 7.3 10.9 10.4 1.4 18.9 6.2 26.7 12.6 1.8 1.4 3.5 3.101 5.6 4.101 8.101 4.1 13 10.1 12.9 19.6 0 1.3.3 2.9 1.1 3.8 6.101 6.5 9 15.101 13.9 22.101 5.3 7.6 11.2 14.699 15.5 23 2.6 5.1 7.2 6.8 12.6 5.699 2.9-.6 6-1.399 8.4-3 7-4.6 12.9-3.3 19.2 1.5 9.899 7.301 25.548 31.649 36.548 37.349 11.466 8.841 27.926 18.863 50.246 17.021 9.994-.825 20.95-4.713 33.996-10.059 1.986-.814-5.108-14.672-7.408-16.071-1.9-1.101-17.018 11.235-19.099 12.335-12.581 6.651-19.474 3.196-23.971 1.665-12.469-4.246-18.946-3.765-29.546-11.965-11.684-16.415-33.367-35.074-44.966-48.074-19-21.3-33-44.3-38.8-72.899-5-24.7 2-45.4 14.399-65.301 8.601-13.699 22.101-21.3 38.2-22.3 7.8-.399 12.207 1.478 19.969 1.478 8 0 22.004 6.186 27.504 8.985 11.5 6 17.246 8.171 28.246 15.171 9.5 6.101 13.75 18.5 15.75 30 7.3 42.3 13.831 67.967 22.031 110.066 4.7 24.5 6.3 49.5 11.7 73.9 2 9 6.3 13.8 14.8 16.5 31.7 10.3 63.9 18.699 96.8 24.1 13 2.1 15.4 0 15.5-13.1.002-1.001-.498-1.901-.697-2.901zm-222.599-54.121c-.092.149-.183.297-.285.476.081-.164.179-.322.285-.476z"/><path fill="none" stroke="#252524" stroke-miterlimit="10" stroke-width="6" d="M1314.281 1173.616c-49.3-7-68.7-19.3-94.9-24.3s-24.1-15.3-24.1-15.3-5.3-18.7-6.3-37.301c-1-18.6-23.4-133.499-23.4-133.499-2.7-49.7-15.6-55.101-21.1-59.3-5.5-4.2-29.9-13-33.5-15-3.601-2-14.301-3.7-17-.301-2.7 3.4-21.7 4.7-24.301 3.7-2.6-1-40.3 1.7-50.6 52.4-9.3 61.8 47.3 115.8 47.3 115.8s28.4 26.3 32.8 29.4c14.2 8.3 30.677 35.335 77.088 3.406.577-.397 12.779 18.871 1.396 22.083-20.024 5.65-21.863 18.746-63.64 3.25-13-4.822-48.377-43.421-51.046-46.754-1.007-1.258-6.197-12.185-20.197-2.484-14 9.699-21.5-3-21.5-3s-13.2-17-15.5-23.2-11.9-12.9-16.3-26.8c.8-15.301-12-14.801-16-21.301s-23-13-24.801-13c-1.8 0-15-1.699-12.8-10.699 4-17 .7-21 .7-21-2.7-5.2-10.3-12.2-10.7-13.301-.399-1.1-.8-8.5-16.3-18.8s-5.5-10.7-1.3-21.3-3.2-14.2-7.3-15.5c-3.8-3.5-14.5-5-14.2-8.3s7-12.2-1.8-17.5-10.5-9.8-6.5-13.2 9.2-9.8 7.5-12.7c-6.8-9.2-7.2-17.8-6.5-22.5s-2.3-6.399-8.8-6.8c-11.801 0-18.7-5.2-30-12-11.301-6.8-8.2-12.2-4.5-15.8 3.699-3.6 13.699-15 12.699-24.2s4.301-17.5 6.801-19.5 5.699-2.2 3.5-14.3c-9.5-8-7.7-23.5-7.7-23.5-3-15.8-5.5-12.5-11.7-21.8-12.4-16.3.3-21.2 1.3-21.8 1-.601 6.7-1.801 9.3-8.7 2.601-6.9 1.3-17.8 5.3-23.3s5.7-2.7 4.5-24.301c-1.199-21.6 9.301-23.699 12.7-25.5 3.4-1.8 5-6.3 5-6.3s-.5-9.2-4.3-15c-1.8-6.3-8-17.3-7.3-35.7.7-18.399 9.8-16.5 9.8-16.5s5-3.8 20.2-3.3 16.7-5 18.3-9 8.7-13.7 11.7-20.8c3.5-2 7.8-10.4 5.5-15.8s-7.2-12.3-10-28.8 2.3-15.7 2.3-15.7c3.3-1.8 13.2 1.5 23 3.8 5.8 2.3 17.7 3.3 23-6.2s31.7-35.8 36.2-40.7c4.5-4.899 13.899-20.699 15.8-27.8 1.9-7.1 10.5-15.2 14.2-10.8 8 6.9 15.6-.5 16.8-1.5s27.4-20.3 33.4-24.5 36.1-22.7 39.6-25.899c3.5-3.2 9.3-13.801 16.3-22.5 7-8.7 11.4-8.5 11.7-5.601.3 2.9 5.5 15.101 18 4.9s115.8-35.2 133.9-39.3c18.1-4.101 64.8-1.4 74.6-12.301 9.8-10.899 16.2-6 18.6-2 2.4 4 22.2 8.5 30.2 1.5s16.7-1.199 16.8.7c.101 1.9 10.5 8.101 25.2 3.601s16.3 4.199 16.3 4.199 18.5 4.5 30.5 6.4 22.5-10.1 42.5-14.3c9.801-6.3 13.2-2.7 11.801 5.7-1.4 8.399-.7 23.699 8.3 24.399s60.4 23.601 74.4 28.4c25.8-8.101 22 4.899 38.399 2.8 16.4-2.1 5.4 13.6 7.5 17.7 2.101 4.1 10.4 16.399 29.801 11.3 19.399-5.1 10.6 10.3 12 15.3 1.399 5 22 2.601 26.899 2.2 4.9-.4 13.8-2.1 4.5 8.1s1.3 13.4 5.5 19c4.2 5.601 28.101 5.7 41 7.601 12.9 1.899 9.7 16.1 9.4 20.5-.3 4.399-5.4 13.5 1.8 19.399 18.9 12.4 25 27.5 29.2 33.4 4.2 5.899 9.899 22.6 28.7 25.7 18.8 3.1 17.5 4.699 20 8.399s1.899 27 1.699 29.101c-.2 2.1-.899 18.199 6.7 24.1 15.1 8.8 2.9 12 15.4 22.6 12.5 10.601 6.199 14.4 3.899 18.7s-.5 26.8 12.101 36.4c12.6 9.6 12.899 13 6.699 26.8s-1.8 32.1 5.5 38.2c7.301 6.1 5.101 13.899-2.399 15.7-7.5 1.8-8.5 11-8.801 12.699-.3 1.7-8.1 63.101-8.6 64.7-.5 1.601-6.4 16-2.7 20.5s9.4 18.5 7 25.101c-.8 3-8 4.399-8.199 13.699-.2 9.301-12.801 18.5-13.801 19.2s-9.899 6.7-9.899 6.7-18.5 38.9-20.801 42.9c-2.3 4-27 47.6-21.5 30.899 5.5-16.699 17.101-65 14.5-83-.3-5.3 1-14.3-19.3-103.8s-67.8-91.7-100.8-94.8-98.2 43.6-108.5 55.4c-10.3 11.8-56.4 40.199-89.7 14.699-114.1-74.8-177.8-73.1-205.8-68.5s-68.7 30.8-85.4 66.7c-25 54.399 14.7 142.2 21.5 152.1 6.801 9.9-1.199 12.101-1.199 12.101s-31.9 21.899-47 31.8c-10.301 7-9.7 16.6-9.5 20.899-2.4 5.801 12.399 187.2 12.399 187.2s2 11.7 3.2 17.5c.8 8.7 8.4 18.9 8.4 18.9 1.699 8.7 55.399 37.399 55.399 37.399 7.604.909 8.204 22.508-6.096 20.508z"/></svg>