<svg xmlns="http://www.w3.org/2000/svg" id="hair" viewBox="0 0 3000 3000"><path id="cl1" fill="#252524" d="M1342.493 851.313c-1.787 1.616-3.292 1.029-3.411-1.17-.331-3.597-.163-7.299.004-11 .848-29.009 1.796-57.917 2.644-86.926.934-30.61 1.868-61.219 2.7-91.927.233-7.703.268-15.303.201-23.003-.032-3.6-.068-7.8-3.984-9.565-4.216-1.864-6.889 1.261-9.466 3.882-10.507 10.691-21.216 21.186-31.22 32.373-27.432 30.94-52.246 63.857-73.234 99.741-27.688 47.542-34.25 98-24.484 151.417 4.727 26.061 12.545 51.093 22.857 75.405 1.125 2.79 1.296 15.073 2.221 17.864.204.499-.291 1.203-.483 2.004-3.395.63-5.417-1.953-7.633-3.733-14.196-11.077-27.205-23.464-39.619-36.556-7.67-8.035-13.052-17.387-17.144-27.852-10.224-25.712-5.602-23.253-36.11-35.488-17.763-7.146-33.583-13.253-52.174-12.191-18.092.957-31.1 11.299-40.771 26.283-4.833 7.542-6.564 12.507-8.187 21.421-.476 2.805.655 11.666-1.926 13.79-2.904-.375-8.66-9.112-9.876-10.901-53.271-76.839-126.888-136.322-206.115-185.134-70.581-43.489-141.367-75.653-221.356-97.058-5.111-1.355-10.42-2.309-15.143-4.968.941-6.808 6.539-7.057 11.239-6.999 38.603.164 77.187-1.871 115.806.193 49.625 2.669 98.781 8.841 147.563 17.917 62.703 11.655 123.373 30.928 184.721 47.695 6.816 1.841 13.545 5.083 22.141 4.607-3.659-6.768-9.781-9.215-14.216-13.377-3.227-2.972-8.638-4.225-8.688-10.024 3.046-6.228-.694-10.895-3.834-15.567-18.947-28.237-38.985-55.563-59.025-82.99-20.749-28.521-45.461-52.807-73.15-74.467-66.857-52.32-135.692-101.923-204.724-151.325-29.787-21.341-59.77-42.281-89.657-63.521-1.912-1.384-3.625-2.869-5.437-4.354 6.256-5.055 13.292-.916 19.2-.066 32.441 4.617 64.881 9.135 97.326 14.153 51.673 8.051 100.325 25.328 148.294 44.712 93.132 37.691 181.544 84.724 268.285 135.07 12.262 7.094 23.835 15.394 35.413 24.294 2.158-4.82.029-8.201-1.1-11.491-6.357-17.946-13.209-35.587-25.54-50.48-2.123-2.582-2.439-4.479-.161-6.899 7.77-3.568 8.363-4.373 5.389-12.848-6.358-18.245-12.717-36.49-19.674-54.531-12.993-33.588-26.683-66.77-43.063-98.929-12.818-25.09-29.713-47.444-47.204-69.292-33.061-41.313-68.109-81.11-103.354-120.605-11.108-12.404-22.315-24.706-33.423-37.11-1.718-1.984-3.137-4.272-4.656-6.459 1.236-7.311 6.469-3.556 9.477-2.683 20.556 6.422 40.132 15.052 59.613 24.283 42.576 20.03 82.887 44.18 123.594 67.727 65.03 37.636 126.899 79.799 184.918 127.596 28.907 23.75 54.543 50.727 77.998 79.925 6.269 7.845 12.833 15.288 19.598 22.729 5.554 6.152 12.175 8.495 20.379 8.923 25.912 1.275 51.832 3.449 77.565 7.125 4.104.564 9-.079 10.449 5.609 1.348 5.588-2.933 7.726-6.312 10.155-19.185 13.368-36.954 28.423-56.139 41.79-10.736 7.494-22.791 12.699-33.125 20.39.199-.103.101-.001.3-.103 28.811-21.852 62.858-28.048 97.012-33.546 11.484-1.9 23.071-3.4 34.554-5.5 3.293-.629 6.589-1.257 9.896-.586 2.505.478 5.009 1.056 5.937 4.348 1.134 3.79-1.352 5.412-3.741 6.633-14.832 7.929-28.041 18.443-42.567 26.971 10.346-6.291 22.239-7.094 33.618-9.593 35.135-7.606 69.852-17.409 105.189-24.417 11.383-2.199 22.188-1.593 33.324 2.51 54.479 20.126 105.506 46.184 151.224 82.388 25.981 20.675 48.984 44.075 68.816 70.703 5.263 7.054 10.725 14.107 12.895 22.188-4.177-8.863-4.869-19.357-7.157-29.538-1.974-8.384 1.483-13.313 8.15-17.272 19.797-11.772 39.801-23.047 59.397-35.018 34.417-21.1 70.258-39.513 106.199-57.826 1.196-.61 2.391-1.221 3.383-2.129 13.537-7.218 28.199-11.746 42.145-18.168 12.051-5.604 24.409-10.512 36.763-15.62 2.593-1.123 5.174-3.245 8.486-1.774 1.233 3.789-1.345 6.312-2.922 9.125a252626.236 252626.236 0 0 1-155.749 282.266c-1.28 2.312-2.659 4.624-4.141 6.836-3.161 4.627-3.52 9.231.12 13.799 1.232 3.689-.245 6.403-2.724 8.925-13.287 13.016-24.453 28.213-33.61 33.393 47.878-14.216 101.378-37.583 158.059-51.376 7.187-1.763 14.592-1.027 21.889-1.491 1.599-.113 3.599-.131 4.514 1.461 1.32 2.288-.668 3.707-1.956 5.117-10.503 11.193-22.118 21.094-33.831 31.096-46.357 39.604-94.231 77.223-142.51 114.344-3.181 2.428-6.459 4.756-9.437 7.382-5.458 4.847-5.445 6.248-.982 13.509 3.231 3.572 1.25 5.789-1.933 7.817-6.86 4.56-13.721 9.22-17.809 10.556 20.678-2.581 45.183-2.193 69.714 1.393 5.521 2.252 11.236 4.203 16.66 6.756 3.916 1.865 3.935 3.966.357 6.597-1.589 1.214-3.383 2.029-5.173 3.045-43.099 23.475-84.066 50.233-125.643 76.196-3.979 2.535-8.029 8.07-13.056 5.114-4.423-2.562-2.075-8.583-2.415-13.08-1.341-16.289 1.417-32.513 1.377-48.813-.042-4.7.318-9.403-1.122-13.891-2.875-8.575-5.135-21.261-3.21-29.877 7.609-33.567 17.403-62.95 15.9-97.638-1.758-41.087-14.381-78.378-38.871-111.467-6.679-8.942-14.741-16.272-24.787-21.385-.226-2.998.249-5.903 1.625-8.715 9.633-19.184 16.858-39.348 23.697-57.909-7.394 12.366-17.988 24.358-27.175 37.438-19.952 28.575-33.179 60.091-44.295 92.789-.684 2.006.466 7.496-5.059 4.745-3.394-22.072-4.287-44.464-6.681-66.645-.545-4.995-.787-9.994-1.73-14.885-1.674-8.585-5.384-9.853-12.238-4.494-.796.606-1.388 1.412-2.081 2.118-5.602-.151-4.741-4.558-4.97-7.957-.388-9.896.128-19.901-1.061-29.891-22.956 39.601-33.566 84.395-55.321 124.385-1.275 2.711-2.651 5.423-6.139 6.854-3.217-1.872-3.048-5.373-3.475-8.47-4.389-33.162-8.778-66.426-13.167-99.689-.32-2.297-.54-4.595-.96-6.892-2.099-11.382-4.812-12.659-15.367-7.566-6.306-.745-3.839-4.568-2.668-7.777 5.773-14.651 12.149-28.907 20.533-42.28-3.054 5.326-7.317 9.464-11.581 13.801-39.458 39.444-73.081 82.938-94.929 134.932-3.921 9.233-8.242 18.271-10.555 28.192-.579 2.604-.736 7.407-5.943 6.651-6.53-15.043-9.971-31.014-13.907-46.78-7.559-29.636-14.12-59.58-19.881-89.632-1.783-9.584-2.387-9.979-10.897-11.104-4.6.04-5.633-3.852-7.561-6.934-5.171-8.256-8.373-8.428-13.197.313-9.058 16.28-17.916 32.657-26.373 49.231-19.374 37.57-39.25 74.844-57.319 113.003-9.723 20.386-21.457 39.489-33.693 58.396-1.883 2.118-4.167 3.939-2.941 6.828zM1012.97 988.185c-38.359-6.667-76.624-13.934-115.361-17.998-39.037-4.06-78.263-6.819-116.921-13.483-25.24-4.38-50.095-10.665-75.617-13.143-3.604-.369-9.034-3.822-9.869 3.686 7.441 4.636 15.861 6.862 23.89 10.192 85.821 36.555 171.545 73.411 258.053 108.359 57.804 23.299 132.852 52.561 192.025 72.146 2.809.976 7.106.801 14.769-3.381 4.012-2.19.689-13.346-.151-17.939-.738-4.294-2.173-8.381-3.41-12.57-1.341-4.689-4.363-7.163-9.365-7.419-17.608-.947-50.762 3.72-64.646-5.96-14.992-10.47-28.699-22.751-42.704-34.629-3.827-3.167-6.863-7.241-9.997-11.113-13.038-15.887-21.599-34.313-29.264-53.248-4.006-.565-7.525-2.735-11.432-3.5z"/><path id="hl1" fill="#393938" d="M1367.321 475.183c7.227-8.463 16.576-14.345 25.622-20.624 23.261-16.104 45.205-34.095 68.163-50.595 1.093-.809 2.186-1.618 3.077-2.627 1.782-2.015 1.266-3.911-1.239-4.489-3.907-.866-7.813-1.432-11.817-1.897-24.124-2.69-48.346-5.08-72.653-5.869-6.903-.24-11.926-2.896-16.272-8.159-12.33-14.893-24.859-29.584-37.486-44.176-24.852-28.884-52.974-54.24-82.879-77.78-67.766-53.213-140.959-98.079-215.929-140.327-37.787-21.273-76.161-41.139-116.699-56.787-6.522-2.544-12.946-5.288-19.955-6.327-2.622-2.377-6.234-3.946-6.673-8.343 3.179-2.428 6.495-.656 9.499-.182 45.76 6.702 89.679 20.221 132.334 37.851 71.962 29.774 137.518 70.406 199.131 117.572 61.612 47.166 118.269 99.475 169.678 157.629 4.95 5.657 10.464 7.31 17.563 7.147 30.993-.97 61.993-1.04 92.909.691 54.33 3.128 108.186 9.359 160.817 24.203 50.525 14.26 92.273 42.499 127.904 80.29 20.388 21.623 38.096 45.371 52.921 71.342 5.79 10.15 7.294 10.637 18.354 5.941 59.781-25.422 119.562-50.842 179.442-76.364 3.388-1.43 6.776-2.76 10.163-4.089-2.462 4.321-6.947 6.061-10.927 8.396-49.149 28.928-98.302 57.657-147.452 86.486-1.691 1.015-3.382 2.129-5.174 2.945-6.97 3.461-9.326 8.682-7.659 16.367 1.983 9.483 3.467 18.971 5.05 28.558.421 2.596 1.644 5.085-.029 8.3-3.404-.57-4.232-3.763-5.652-6.051-16.733-26.656-36.545-50.884-59.73-72.183-27.622-25.361-58.208-46.596-91.065-64.611-26.326-14.472-54.029-26.031-82.022-36.788-9.733-3.716-19.24-4.433-29.323-2.445-34.042 6.697-67.361 16.287-101.3 23.382-16.971 3.548-33.84 7.095-50.787 13.242 3.139-7.127 6.114-9.953 23.014-21.5 8.648-5.975 17.6-11.553 26.351-17.33-1.119-1.991-2.515-1.679-3.814-1.467-24.562 4.414-49.541 6.931-73.791 12.842-20.857 5.081-40.897 12.057-59.708 22.42-3.884 2.235-7.972 3.671-11.957 5.406zm-239.313-23.419c-57.664-29.999-115.816-58.694-176.128-82.871-30.307-12.137-61.005-23.371-93.451-28.488-31.246-5.028-62.392-10.258-93.732-14.786-54.972-8.022-110.041-15.743-165.11-23.463-3.404-.471-6.916-1.841-10.502-.208.625 2.894 2.729 3.375 4.337 4.361 9.612 1.216 19.124 2.534 28.732 3.55 40.44 4.349 80.596 10.7 119.989 21.258 65.957 17.626 128.784 43.481 190.536 72.146 55.628 25.917 109.485 55.25 163.046 85.084 18.59 10.339 37.184 20.978 54.296 33.829 4.731 3.559 9.069 7.822 13.702 11.581 3.524 2.77 5.317 1.954 5.778-2.55.459-4.705-.281-9.298-1.62-13.787-5.659-18.252-13.509-35.484-23.353-51.899-2.435-4.079-5.465-7.552-9.587-10.017-2.212-1.382-4.523-2.562-6.933-3.74zm-110.594 242.472c-15.585-9.766-32.154-17.522-49.213-24.273-63.12-24.952-129.104-34.479-196.515-35.292-69.609-.794-139.08 2.81-208.321 9.913-9.492.983-19.191 1.067-28.549 6.048 8.616 1.826 17.233 3.75 25.85 5.575 1.813 1.484 4.301.163 6.213 1.446 1.301.089 2.602.278 3.904.366 5.294-.646 10.583-1.992 15.883-1.938 36.602-.019 73.287-1.837 109.908.344 50.327 2.862 100.184 9.228 149.666 18.399 56.093 10.413 110.543 27.539 165.576 42.461 15.737 4.263 31.379 9.027 47.119 13.49 2.205.582 4.716 1.86 6.497-.456 1.78-2.215.359-4.604-1.156-6.291-9.993-10.713-20.483-20.922-34.826-25.897-4.696.74-8.315-1.528-12.036-3.895zm325.079 157.077c24.023-31.911 47.443-64.215 70.561-96.717 17.586-24.654 33.864-50.197 47.229-77.414M1005.96 975.645c-52.663-7.143-105.43-14.484-158.191-21.325m740.936-263.455c13.859-16.221 29.736-30.46 44.001-46.184m345.19 100.9c-18.353 16.961-35.191 35.508-54.853 51.78 2.713 1.477 3.909.966 5.205.555 54.146-18.071 108.391-36.145 162.021-55.812 3.39-1.23 7.084-2.062 9.254-5.48-40.581 2.352-81.497.708-121.627 8.957zm-289.286-8.484c14.818-21.029 29.635-42.159 44.453-63.188-.742-16.394 1.212-33.111-3.229-49.374-1.198.41-2.099.418-2.294.82-3.056 5.126-6.11 10.254-8.964 15.579-19.092 35.667-31.059 74.172-45.832 111.603-.979 2.509-1.456 5.113-.932 7.809 5.534-7.65 11.267-15.399 16.798-23.249zm69.074 30.9c2.974-3.026 3.345-6.429 4.517-9.439 4.305-11.139 8.306-22.373 12.812-33.313 3.917-9.435 8.237-18.772 14.364-27.126 4.447-6.039 9.814-9.786 17.727-8.555 4.279-2.437 6.343-6.655 8.405-10.874 8.748-17.577 15.688-35.938 21.828-54.492.876-2.507 1.354-5.111 1.831-7.716.284-1.903.362-4.404-1.745-5.285-2.408-.979-3.389 1.329-4.575 2.84-8.104 10.871-16.512 21.644-24.315 32.812-12.346 17.708-25.194 35.121-32.516 55.785-6.541 18.458-13.381 36.818-20.02 55.277.027 3.201-1.043 6.81 1.687 10.086zm229.499 159.91c-16.463-7.157-32.827-14.515-49.975-19.866m-524.155-153.446c17.586-24.654 33.864-50.197 47.229-77.414 7.565-15.567 15.13-31.033 22.695-46.6-1.672-8.386-5.835-15.55-10.594-22.309-2.836-4.076-4.834-3.857-7.601-.033-.791 1.106-1.28 2.311-1.97 3.517-16.037 30.24-32.376 60.284-48.213 90.623-23.901 46.01-45.993 92.904-70.497 138.619-1.771 3.315-3.243 6.528-1.709 10.416 24.123-32.012 47.543-64.316 70.66-96.819zm-407.093 221.05c-52.663-7.143-105.43-14.484-158.191-21.325-52.761-6.741-105.518-13.182-158.649-16.42-4.102-.264-8.312-1.428-13.286 1.615 6.438 4.344 12.852 5.988 19.168 7.833 17.71 1.146 34.749 5.498 52.079 8.847 30.451 5.735 60.899 11.07 91.725 13.903 45.136 4.007 90.078 8.517 134.652 16.83 12.721 2.389 25.539 4.377 38.357 6.466 4.206.664 8.617 2.024 12.286-1.607-3.93-14.965-2.421-13.979-18.141-16.142zm524.286-188.068c1.212 1.489 2.411 1.579 3.498-.131 6.359-27.656 17.238-53.152 35.95-74.816 6.338-7.254 12.776-14.412 19.011-21.766 13.859-16.221 29.736-30.46 44.001-46.184 5.952-16.953 14.515-32.828 22.174-48.995 1.473-3.114 4.047-6.036 3.013-10.027-4.698.24-6.768 3.659-9.246 6.081-8.527 8.374-16.954 16.847-25.279 25.52-25.569 26.724-48.722 55.426-66.438 88.082-12.499 23.109-24.095 46.711-29.368 72.758.928 3.193 1.856 6.385 2.684 9.478zm406.962 120.465c-11.523 8.9-24.466 15.513-37.507 22.327 2.224 2.88 4.718 2.16 6.917 1.94 22.874-3.1 45.887-1.799 68.78-2.499 3.999-.134 7.997-.369 11.784-1.902-16.462-7.158-32.827-14.516-49.974-19.866z"/><path fill="none" stroke="#000" stroke-miterlimit="10" stroke-width="6" d="M1986.883 743.903s92.747-6.407 121.229-8.456c28.483-2.047 12.98 9.088 12.98 9.088l-2.281 2.22s-145.013 125.566-171.286 140.295c-26.271 14.729-7.71 21.768-7.71 21.768s37.528 14.773 57.099 22.804c19.571 8.03 1.911 12.584 1.911 12.584s-114.436 65.498-125.644 76.196c-11.206 10.697-15.073 3.032-15.073 3.032l.939-64.511s-9.484-20.83-5.68-31.863c3.803-11.034 22.223-66.785 15.951-120.732-6.268-53.947-45.308-104.411-57.694-114.103-12.385-9.692-26.496 11.931-26.496 11.931s-6.986 1.561-18.143 41.159c-11.155 39.599-11.817 9.604-11.817 9.604s-5.708-58.552-7.663-76.136c-1.954-17.583-16.617-2.056-16.617-2.056s-35.756 39.713-51.568 73.052c-15.81 33.338-17.636 7.354-17.636 7.354s-11.347-85.805-13.812-104.685c-2.464-18.878-20.022-2.525-20.022-2.525s-24.234 30.712-45.877 48.701c-54.149 63.674-41.346 98.564-51.728 88.954-10.386-9.61-34.907-138.402-36.372-145.889-1.465-7.488-6.749-17.042-12.469-7.892-13.455 39.718-116.144 179.417-128.83 204.128-12.685 24.71-13.493 12.318-13.634 7.519-.143-4.799 4.877-163.548 5.677-198.057.8-34.508-16.904-11.854-24.44-4.487-7.571 3.465-91.465 107.899-110.237 157.165-35.408 91.21 26.492 222.365 18.303 212.136-13.619-2.181-55.343-50.62-56.051-51.714-.71-1.094-9.071-31.022-17.833-38.146-8.763-7.124-63.419-41.338-91.828-30.69-28.409 10.647-40.496 46.555-40.496 46.555s3.681 24.081-1.186 16.424c-169.507-230.034-430.111-290.083-437.83-292.115-7.717-2.034-56.68-9.007-48.302-11.681 18.932-7.865 153.875-14.939 228.868-16.091 75.452-5.857 176.665 18.164 225.996 44.536 48.354 28.98 40.737 15.646 33.602.107-6.064-18.848-86.303-114.854-107.38-135.271-21.079-20.418-303.865-224.466-316.845-233.652-12.98-9.188-9.775-8.716.626-8.506 10.403.209 234.443 26.861 302.235 48.672 67.793 21.812 149.392 55.803 196.454 85.794 47.063 29.992 43.908 12.219 40.306.449-2.667-7.777-46.123-117.402-64.042-154.048-17.92-36.646-185.284-227.197-185.284-227.197s-20.219-13.624 2.826-8.525c295.47 52.731 496.699 308.09 496.699 308.09 9.085 9.721 9.614 13.017 31.605 11.925 337.111-23.233 415.516 160.992 415.516 160.992 14.171 30.978 23.604 23.395 33.77 19.207 10.163-4.189 271.022-113.562 271.022-113.562l-164.288 300.94c-6.2 11.754 10.48 9.209 10.48 9.209zm-968.701 234.136s-290.099-44.579-334.465-40.592c-20.411-1.123-1.05 5.809.054 6.2 1.103.39 464.477 193.964 493.079 194.015 14.619 2.174 8.111-33.664 0-41.069-9.705-8.861-19.737 13.072-24.145 12.21 0 0-97.67-32.982-129.024-119.512 1.516-9.613-2.494-10.778-5.499-11.252z"/></svg>