<svg xmlns="http://www.w3.org/2000/svg" id="hair" viewBox="0 0 3000 3000"><path id="cl1" fill="#3E3633" d="M1169 477.7s-120 93.3-134 178.7c0 0-11.301 48 9.3 110.7 0 0 38.7 121.3 107.3 153.3 0 0 26 3.3 56-7.3 0 0 94.7-34.7 118.7-78.7 0 0 21.3-80 25.3-142 0 0 3.3-38-4-56.7 0 0-2.7 5.3-5.3-14 0 0 17.3-13.3 38-14 0 0 32.7-3.3 83.3 3.3 0 0 50 7.301 87.3 16.7 0 0 64.7 10.7 118.7 13.3 0 0 163.3 14 207.3-46.699 0 0 55.3-57.301 58.7-132 0 0 10-59.301-106-124l-16.7-10.7s2 32.7-10 49.3c0 0-16 30-128 23.3 0 0-60.7 2.7-106.7-19.3 0 0-92.699-42.7-198.699-38.7 0 0-130.7-6-176.7 82L1169 477.7z"/><path id="sd1" fill="#332C2A" d="M1044.699 624.2s2.6 39.101 22.6 66.101c0 0 2.301-69.301 29.301-93 0 0-17 47 11.3 118.3 0 0 15.7 22.7 21.3 41.3 0 0 8.301 2 10.7 7 0 0-4.3-12.7 0-24.3 0 0 5.7-28.3 23.3-42 0 0-11.699 43.3 25 83.7 0 0 35.7 32.699 88.7 16.3 0 0 49.3-15.7 60-22.3L1323.2 835s-31.699 46-85.3 62.7c0 0-34.7 25.3-78.3 23.2 0 0-46.301-10.2-87-88.3 0 0-37.5-79.8-39.9-121.8.1-.1-1.9-63.6 11.999-86.6zm130-150.5c107 3.3 172.7 144.7 172.7 144.7 58.7-23 178.5 3.6 178.5 3.6 52.5 16.601 200.2 20.2 200.2 20.2 98.3-3.5 138.5-34.8 138.5-34.8 13.1-8.8 43.199-61 43.199-61-51 43.3-137 63.7-137 63.7-17.3 1.3-83.699-3-83.699-3-21.7 0-78.7-11.3-78.7-11.3-16-3.301-72.7-15.301-72.7-15.301-22.3-8.3-104-22.3-104-22.3-29-7-52.3-8.7-52.3-8.7 14.3-19.3 26-25 26-25-36.7 13.7-73.7-4.699-73.7-4.699 36-19 49-47.7 49-47.7-2.699-2-4.699.3-4.699.3-15 14.3-58.7 25.7-58.7 25.7-11.3 1.3-24.7 0-24.7 0-55-64-112-46.3-112-46.3-7.6 9.6-5.901 21.9-5.901 21.9z"/><path id="hl1" fill="#483F3B" d="M1174.699 473.7s17.7 28.7 22.301 37c0 0 .3 24.3-3.7 34.7l.3 11s7 15.7 17.3 24c0 0 7.7 12 16.3 19.7l12 11.3s1 14 1.301 25c0 0 .699 7.9 12.699 17.9 0 0 13.9 13 21.101 21.1l6.8 4.4s-6.6-1.5-15.8-6.601c0 0-25.4-18.399-35-29.8 0 0-6.8-7.6-25.3-10.6 0 0-8 .7-13.5-8.5 0 0-4.2-28.2-17.101-36.7l-14.2-.8s-14-3.5-17.3-28.3c0 0-1-6-5.5-14 0 0-4-6.5-21.5 1.5 0 0-11 6.8-9.3-2.8l-.2-7.801 68.299-61.698zM1417 343.301s6.3 29.3-3.301 40.3c0 0 28.7-3.3 41.301-1.7 0 0 14.3-.3 7.3 20.3l17.3 5.3s2 2.3 10.7 13.7c0 0 5.3 2.7 15.3 5.7 0 0 51.7 11.7 27 54l.3 3.3s8.7.7 10.3 4.7c0 0 6.7 8.3-11 27.7 0 0 0 3.7-2 8.7 0 0 2.7.699 12.301-14.301l13-20.699s.699-12.301 4.3-19.7c0 0 2.3-13-6.3-13.3 0 0-9-3 2.699-18.7 0 0 10.7-12.7 7.301-24.7 0 0-16.301-8.3-11.301-18.7 0 0 .7-12.7 0-20.7-.7-8.001-135.2-31.2-135.2-31.2z"/><path fill="none" stroke="#000" stroke-miterlimit="10" stroke-width="6" d="M1193 424.301c46-88 176.699-82 176.699-82 106-4 198.7 38.699 198.7 38.699 46 22 106.7 19.301 106.7 19.301 112 6.699 128-23.301 128-23.301 12-16.699 10-49.3 10-49.3l16.699 10.7c116 64.7 106 124 106 124-3.3 74.7-58.699 132-58.699 132-44 60.7-207.301 46.7-207.301 46.7-54-2.7-118.699-13.3-118.699-13.3-37.301-9.301-87.301-16.7-87.301-16.7-50.699-6.7-83.3-3.3-83.3-3.3-20.7.699-38 14-38 14 2.7 19.3 5.3 14 5.3 14 7.301 18.699 4 56.699 4 56.699-4 62-25.3 142-25.3 142-24 44-118.7 78.7-118.7 78.7-30 10.7-56 7.301-56 7.301-68.699-32.001-107.3-153.301-107.3-153.301-20.7-62.7-9.3-110.7-9.3-110.7 14-85.3 134-178.699 134-178.699L1193 424.301zm151.199 196c-72.8-154.2-174.199-145-174.199-145M1757.5 484c142-60 55.5-156.3 55.5-156.3"/></svg>