<svg xmlns="http://www.w3.org/2000/svg" id="hair" viewBox="0 0 3000 3000"><path id="cl1" fill="#43332A" d="M1153.9 427.1c58-34.4 118.699-62 186.101-72.101 28.899-4.301 57.8-4.301 86.6 1 5.199 1 10.5 2 15.4 4.101 34.1 12.6 64.6 31.5 93.3 53.6 2 1.602 4.101 3.4 5.5 5.602 2.399 3.898 1.399 6.898-2.7 8.8-.898.4-1.898.9-2.898.7-20.4-4.102-37.9 4.8-54.301 12.2 1.6-.102 4.6 0 7.6.8 3.5 1 7 2 10.5 3.3 10.7 3.7 21.601 6.7 32.5 9.9 3.301 1 6.801 2.3 6.9 5.8.1 4-3.5 5.898-7.101 7.1-7.2 2.4-14.899 1.5-22.3 3.101 12.199-2.199 24.199-1 36.1 2 4.699 1.199 9.301 3.399 9.199 8.5-.1 4.601-5.1 5.199-8.898 6.101-8.4 2-16.102 5.7-23.2 10 16.601-2.2 33.3 2.2 50.3 1.8 4.601-.1 8.7 1.9 9.5 7 .9 5.5-4 5.9-7.5 7.3-2.1.9-4.3 1.4-5.8 1.7 6.3-.2 13.399-1.1 20.5.602 5.5 1.3 9-.602 11.2-5.7 2.699-6 6.699-10 14.5-8.9-16.102-8.8-16.5-10.7-5.301-22.6-4.6 0-9.899.898-11.301-5.2-1.3-5.5 2.7-8.602 6.601-11.2 4.2-2.8 8.801-5 11.601-5.7-5.801.5-13.801 1.9-21.801 3.301-3 .5-6.3.801-7.898-2.199-1.602-3.102-1.201-6.4 1.398-9.2 4-4.2 8.301-7.9 13.801-8.4-3.699 0-7.199 2.7-11.301 3.5-3.5.7-7.199 2-9.699-2-2.301-3.6-.699-6.7 1.301-9.8 2.1-3.399 4.3-6.899 7.6-9.2 22.4-16.1 44.301-33.3 71.699-40.5 2.9-.8 6-.3 8.601-1.898 15.399-1.602 30.399.1 45.5 3.898 35.801 9 67 27.3 97.301 47.4 30.3 20.2 57.699 44 79.899 73.1 11.4 14.9 21.301 30.602 25.801 49.102.899 2.698.801 5.698-1.5 7.198-2.9 1.9-4.801-1.198-6.699-2.8-6.601-5.7-11.5-13-17.201-19.6-.898-1 1.5-.8.201-.3-.201.1-.201.398.199.8 9.699 10.1 15.399 22.7 21.301 35.2 1.899 3.898 3.6 8 3.799 12.398.201 6.4-3.699 9-9.699 6.5-4.301-1.8-8.1-4.698-11.699-7.6-15-12.2-30.301-24-46.199-35-4.4-3-7.9-6.9-9.701-8.9 5.601 5.802 11.801 14.302 16.101 24.102 1.5 3.5 1.801 7.3-1.5 9.7-3 2.3-5.899 0-8.601-1.9-10.799-7.4-19.199-17.5-28.5-26.5-18.6-18-39.899-30.7-66.799-35.5 14.699 15.2 29.199 29 42.898 43.4 3.301 3.398 10.9 6.5 6 12.898-4.6 6.102-10.398 1-15.199-1.2-21.301-10-42.101-21.1-62.199-33.398-1.7-1-3.301-2-4.301-2.3 5.1 1.8 10.301 5.398 15.301 8.898 29.199 20.4 60.199 38.2 89.199 58.9 3 2.1 6 4.398 7.699 7.7 1.5 2.8 1.7 5.898-1 8.198-2.898 2.5-4.898-.6-6.8-2-3.2-2.3-5.8-5.198-9.101-7.398 5.801 3.898 11 8.5 16.801 12.5 7.3 5 12.8 12.5 19.399 18.7 5.8 5.5 9.3 12.698 14.3 18.5-.199 0-.1 0-.1-.2-5.9-7.9-11.301-15.8-12.9-25.8-.6-3.802-1.1-7.602 2.4-10 3.199-2.302 6.899-1.7 10.399-.102 3.7 1.7 7 3.8 10.101 6.3 16.1 13 31.899 26.2 43.5 39.302-5.9-8.102-11.5-19.802-11.199-33.4.199-9.1 3.899-10.9 12.199-7 11.301 5.4 17 15.7 22.699 26 5 17.6 9.9 35.3 15 52.9 10.601 36.198 23.801 71.398 40.9 105.1 1 6.7-2.2 7.2-7.301 5-5.801-2.5-11.301-5.7-16.699-8.9-31.4-18.3-61.7-38.3-90.101-61-14-11.198-25.399-24.898-36.399-38.8-8-10-18.301-16.398-28.4-23.5-5.399-3.8-8-2.2-7.699 4.5.399 9 2.699 17.7 5.699 26.3 1.101 3.102 2.699 6.2 3.101 9.5.5 3.4 17.3 36.4 13.601 38.2-3.4 1.7-24.601-15.8-26.601-17.8-13-13.3-38.899-28.2-48.2-44.5-44.5-50.5-45.1-53.8-58.8-81.4-18.101-29.1-15.5-39.198-45-55.198-9-4.9-22.7 11-32.301 14-6 1.898-19.399-17.302-24.199-22-24.899-11.602-41-9.7-63.101 5.698-9.301 6.5-17.199 14.602-24.6 23.102-2.801 3.3-5.7 6.398-8.601 9.6-.7.7-4-7.6-4.5-6.7h.199c-18.699 20.2-37.199 40.7-55.199 61.602-28.899 33.5-55.7 68.698-83.801 102.8-4.899 6-10.8 10.8-16.8 15.5-25.2 19.6-49.301 40.6-76.2 58-1.699 1.1-3.3 2.2-5 3.3-3.699 2.4-7.899 5.101-11.699 1-4.2-4.6.199-7.899 3.101-10.899 19.1-20.101 35.5-42.301 51.199-65 5.199-7.5 10.1-15.199 17.1-21-.1.199 0 0-.1.101-4.101 4.899-9.101 8.399-14.301 11.8-42.5 27.1-88.1 48.4-133.199 70.8-.9.4-1.801.8-2.801 1.2-3.199 1.2-6.6 1.9-9.199-1-2.9-3.1-.801-6 .899-8.9 20.801-33.8 40.2-68.3 59.5-102.6-36.199 22.7-73.5 43.7-115 56.3-8.3 2.5-16.5 5.4-25.3 5.7-8.301.3-11.7-3.8-8.601-11.1 11-26 21.899-52.2 37-76-26.2 14.8-53.5 28.699-79.101 45.6-.801.5-1.699 1-2.6 1.6-3.4 2.2-6.9 4.801-11 2.7-4.601-2.399-3.9-7.2-4-11.5-.101-9.3 2.399-18.5 2-27.899-.801-16.399.3-32.699 3.6-48.801 1.7-7.8 3.4-15.699 5.301-23.5 14.301-41.3 32.699-80.699 57.399-116.898 1.301-1.9 3-3.5 4.5-5.3 5.899.5 4.7 4.3 3.601 8-1.199 4.398-4.5 8.1-4.301 13.999 11.601-4.199 21.601-10.399 32.199-15.399 6-2.8 11.701-6.2 18-8.5 3.301-1.2 6.701-3.2 10.4-.899.801.601 1.399 1.399 1.899 2.3.7 6.301-3.199 9.399-8.3 11.101-3.101 1-5.5 3-8.101 4.5.199 0 0 0 .101-.101 3.699-1.699 6.899-6.8 11.399-2.601 3.5 3.2 1.5 7.9-6.101 15.4 4.5-3.9 9.601-5.801 14.9-7.301 3-.899 5.8-.399 7.899 2.301 1.8 2.399.601 4.699-.399 6.899-3.4 7.2-7.301 14.2-10.7 22.899 7.399-.8 13.101-3.899 18.801-6.699 15.899-7.801 31.699-15.801 47.899-23.101 4-1.8 9.399-5.601 13.699-.601 4.301 5-.1 9.199-2.6 13.399-1 1.7-2.4 3.101-3.602 4.9 12.602-6.601 24.701-14.2 37.701-19.9 3.899-1.7 8-4.399 12.1-.8 4.101 3.8 1.4 8 0 12-6.399 19.3-15.5 37.5-23.5 57.8 9.5-3.7 16.801-8.899 24.5-13 7.4-3.899 15-7.2 22.5-10.8 5-2.4 10.5-4.2 14.9.3 4.199 4.4 1.399 9.4-.701 13.9-8.898 19.399-21 37.1-28.6 57.199-.9 2.399-2.5 4.601-2.3 8.301 9.3-5.101 17.101-11.301 25.5-16.4 8-4.8 16.3-9.1 25-12.399 7.899-3.101 15.399-5.101 24.399-2.301 5.8 1.801 7.399 4 6.399 9.102-.899 4.6-3.399 8.699-5.899 12.6-9.801 15.101-21.101 29-31.801 39.7 12.5-14.8 29.2-29.399 46.801-42.899 18.101-14 35.3-29.5 55-37.5-15.601 9.3-35.399 12.8-54.301 18.899-7 2.3-13.5.8-20-.3-5.6-.9-4.199-5.2-2.199-8.602 6.601-11.199 14.399-21.398 22.3-31-6.101 2.9-12.5 6.4-19.699 8.102-3 .699-6 .5-7.801-2.301-1.699-2.699-1.601-5.801.399-8.301 3.9-5 7.5-10.199 12.2-15.3-7.101 3.3-14 5.5-20.899 7.9-3.801 1.3-7.7 1-10-2.301-2.399-3.5.3-6.399 2.699-8.899 4.101-4.3 8.101-8.7 12.7-10.601-5 3-11 6.601-17.899 8-3.801.801-7.7.7-9.7-3-1.8-3.399.601-6.199 3-8.601 9.301-9.3 19.601-17.3 30.899-23.899-17.699 10.399-37.399 16.101-56.399 23.399-3.199 1.301-6.699.7-9-2.3-2.199-3-.5-5.7 1.301-8.1 7.3-9.802 14.699-19.4 22.199-27.5-12.101 6.398-26.199 11.198-39.899 17.1-3.601 1.5-7.601 2-9.9-1.7-2.3-3.8.7-6.6 3.301-9.398 3.4-3.5 8.301-4.4 11.5-7.2-17.899 11.3-38.6 17.3-58.399 25.3-2.301 1-4.7 2-7 3-3.5 1.5-7.301 1.6-9.5-1.5-2.101-2.9-.2-6.101 2.199-8.5 11.101-11.3 21.7-23.101 34-33.101 3-2.399 5.899-4.899 8-6.3-11.101 10.5-25.8 17.8-39.8 26.199-5.5 3.301-11.2 5.7-17.9 2.7-3.8-1.7-7.898-.1-11.898 0-4.5.101-9.9 1.4-12.5-3.6-2.602-5 1.199-9 4.299-12.102 8.701-8.7 16.301-18.398 24.9-27.3 1.301-1.4 2.699-2.7 4.399-4.5-18.601 5.3-35.699 12.9-53.3 19.1-4 1.4-8.5 4-11.801-.398-3.601-4.7.301-8.8 3.101-12.102C1137 447.699 1144.9 437 1153.9 427.1z"/><path id="hl1" fill="#503D32" d="M1153.9 427.1c-2.7 11.399-9.899 20.2-17 29-2.2 2.7-5.7 4.7-5.899 10.2 12.399-3.102 23.399-8.602 34.899-12.5 11.199-3.9 22.3-8 35-11.301-.899 6.601-4.601 9.699-7.601 13-8.5 9.399-17.2 18.601-25.6 28-2.102 2.301-6 4.601-3.801 8.301 1.699 3 5.399 1.3 8.301 1.199 5.799-.199 11.398-3.301 17.299.801 2.4 1.6 5.5-1.5 8.101-2.9C1209.4 484 1221.2 477 1233 470.199c4.8-2.8 9.8-5.5 15.399-7.398-6.7 9.398-15.2 17.1-23.2 25.199-8.1 8.301-16.199 16.399-23.699 25.5 26.899-8.101 52-20.101 78.5-29.301-4.399 8.102-13.5 11.7-17.699 20.301 17.1-7 34.199-13.899 51.8-21.101 1.3 3.9-.899 5.8-2.399 7.7-6.2 7.9-12.601 15.6-18.7 23.4-2.199 2.8-5.199 5.198-5.601 10.698 23.7-7.6 45.601-17.6 68.7-24.8-10.899 13.2-25.399 22.4-36.7 35.2 11.101.3 20-6.9 31.801-7.8-5.301 9.3-15.601 12.6-20.399 22.3 12.699-.4 22.5-8.8 35.3-9.9-4.699 10.4-13 17.102-18.101 26.9 6.7 2.2 11.101-2.4 16.101-3.9 5.301-1.6 10-5.1 15.899-5.8 1.301 4-1.601 5.9-3.199 8.2-6.399 8.899-13 17.7-19.5 26.6-1.399 1.9-2.7 3.9-3.601 6-1.5 3.5.101 5.302 3.601 4.9 3.3-.3 6.601-1.101 9.8-2 21.2-5.9 42.301-12.101 63-19.5 2.7-.9 5.301-3 9.9-.5-23.801 14.899-46.2 30.3-67.102 47.5-20.799 17.1-41.1 34.7-62.799 53.2 1.199-5.102 4-7.602 6-10.4 10.799-14.8 21.699-29.5 32.5-44.3 2.399-3.2 4.6-6.601 5.6-10.5 1.301-5-.899-7.7-6.1-7.7-4.101 0-7.801 1.5-11.601 2.8-19.302 6.302-35.802 17.603-52.102 29.202-3 2.102-6 4.2-9.1 6.102-1.4.898-3.2 1.398-4.601.1-1.399-1.3-1-3.1-.5-4.7 1-2.8 2-5.6 3.199-8.399 6.7-16 14-31.699 22.801-46.699 3.199-5.4 5.801-11.2 8.601-16.9 1.1-2.4 2.6-5.1.5-7.5-2.5-2.9-5.5-1.1-8.3-.1-1.302.398-2.4 1.1-3.7 1.6-10.4 4.6-20.3 10-30.2 15.6-3.8 2.102-7.5 4.4-11.398 6.2-3.4 1.5-7.302 5.9-10.701 2.602-2.799-2.802 1.201-6.7 2.601-9.9 7.601-17.399 15.5-34.7 22-52.6.8-2.2 1.601-4.4 2.101-6.7.5-2.602-1.101-3.8-3.5-3.102-2.199.602-4.399 1.602-6.399 2.7-7.9 4.2-15.8 8.602-23.8 12.8-6.4 3.4-12.9 6.4-21.802 9 2.7-7.5 6.9-11.898 9.7-16.898.9-1.7 2.6-3.5.8-5.4-1.3-1.3-3.198-.6-4.698 0-4 1.7-7.9 3.5-11.802 5.4-19.198 9.3-37.8 19.898-57.899 27.1-3 1.101-5.801 3.4-10.699 1.101 4.699-11.101 12.1-21.101 16.1-33.601-9.8-.6-16.699 6.9-26.3 7.601 2.101-7 9.7-9.899 10.399-17.899-6.301-.2-10.301 4.899-15.601 5.7 5.302-8.101 13.9-12.801 20-20-5.399.699-10.198 3.1-14.899 5.5-13.699 6.8-27.301 13.699-41.101 20.5-2.899 1.399-5.5 3.8-9.8 2.699.5-11.199 8.5-20 9.7-30.8C1103.6 465 1125.8 443 1153.9 427.1zm496.6 58.3c1.399.8 4.8 1.8 2.3 4-2.5 2.102-2.2 2.9.3 3.9 15.5 5.8 31 11.5 46.5 17.199-8.398-8.699-20-13-27-24.801 9.2 0 16.301 4.102 24 5.5 7.5 1.5 14.9 3.801 24 3.602-6.8-6.602-16.398-7.4-20.398-17.5 28.798 4.3 55.798 10.1 82.898 15.2-5.6-6.101-14.8-6.899-20.699-16.199 8.801 2.699 15.399 5 22.1 6.6 6.4 1.5 12.601 5.102 21 2.9-3.699-2.602-6.199-4.2-8.6-6-3.801-3-11.4-5.9-9.5-10.102 2.5-5.6 9.5-1.3 14.199-.1 17.801 4.4 34.9 11.1 52.301 16.8 1.899.601 3.801 1.9 7.199.8-9.8-6.1-18.398-11.699-27.3-17-13.601-8.1-25.7-19-41.899-22.3-.9-.2-1.801-.8-2.699-1.3-10.602-5.8-22-9.4-33.5-12.8-4.4-1.3-8.801-2.8-14.9-2 8.8 8 19.8 12.2 25.3 24.398-15.3-5.898-28.699-12.3-44-12.398 5.801 7.2 15.7 9.5 21.801 19.5-19.899-5.8-37.801-11.8-59-8 9.199 5.7 18.199 8.1 24.8 14.3-8.399-1.2-16.199-4.3-24.399-5.4-8.3-1.1-16.699-3.898-25.899-.6 4.199 6.4 12.699 6.2 17.399 13.4-15.699-2.602-29.699-4.4-44.101-1.302 5.397 5.002 11.996 6.502 17.797 9.703z"/><path id="sd2" fill="#31251F" d="M1002.199 674.801c-10 31.1-17.5 62.898-29.699 93.3-12.301 30.8-33.4 52.6-66.4 61.2-3.699 1-7.8 1.5-10.399 4.5.101 2.6 1.7 3.3 3.2 3.898 14.199 5.9 28.699 11.5 44 12.5 23.6 1.602 47.3 1.602 70.5-4.3 13.899-3.5 27.801-6.7 41.801-9.8 3.199-.7 6.6-.9 9.898-.9 3.102 0 6.102 1 7 4.5.801 3-1.1 5.102-3.398 6.7-2.701 1.9-5.5 3.7-8.4 5.4-31.5 18.2-64.399 33.398-98.899 45.3-2.601.9-6.101.7-7.399 4.2 2.899 2.898 6.8 2.8 10.3 3.5 34.6 7.3 69.7 10.898 104.899 14.1 29 2.7 57.899 2.2 86.801-.6 14.45-1.396 28.42-6.978 42.578-4.975 4.92.696 34.42 171.175 46.707 156.687 38.442-45.332-2.787-171.217 2.215-178.011 21.6-12.5 43.3-25 65-37.302 20.1-11.398 38.699-24.8 56.699-39.1 4.5-3.601 34-27.4 36.601-32.601 16.399-33.199 33.3-66.101 49.2-99.399 18.5-38.9 41.6-75.5 66.198-110.9 2.302-3.3 7.101-7.198 8.4-11-10.3 5.2-49 32.9-57.5 40.2-10.5 8.9-18.101 20.4-27 30.7-15.2 17.7-31.7 34.2-44.5 53.899-2.9 4.399-6.4 8.5-10 12.399-10 10.8-19.101 22.2-28.101 33.8-4.899 6.301-9.5 13-15.801 17.9-28.1 21.9-55 45.3-85 64.8-1.699 1.101-3.199 3.4-6.3 2.101.899-1.301 1.601-2.399 2.5-3.301 13.601-14.6 26.5-29.898 38-46.3 12-17.2 24.3-34.2 36.399-51.3-11.601 4.6-21.299 12.3-31.699 18.9-40.4 25.398-83.6 45.6-126.2 66.898-2 1-3.899 2.7-6.6 1.5-.601-3.3 2-5.398 3.399-7.898 19.699-32.5 38.301-65.602 56.801-98.7 1.5-2.7 4.3-5.2 2.699-9.102-4-.198-6.601 2-9.399 3.602-15.601 9-31 18.3-46.601 27.1-26 14.601-53.399 25.7-82.301 33.101-3.199.801-6.5 1.399-9.8 1.5-2.7.101-4.4-1.699-3.7-4.601.5-2.2 1.4-4.399 2.4-6.6 11.1-24.2 20.699-49.2 36-71.2 1.199-1.7 3.3-3.6 1-6.8-8.5 2.3-16.5 6.3-24.2 10.7-22 12.5-44.5 24.1-65.601 38.1-2.1 1.4-4.399 3.6-7.199 2.1-2.9-1.5-2.6-4.6-2.2-7.1 3-20.2.3-40.6 3-60.8 1.601-12.2 1.7-24.602 2.5-36.8-9.298 20.904-15.498 42.703-22.399 64.305zm921.301-107.5c-1.4-5.801-2-11.801-4.9-17.102-3.399 2.9-5.5.102-7.6-1.898-6.4-6.301-12.7-12.7-19.2-19-1.7-1.7-3.101-4.301-6.5-3.801.3 4.101 2.8 6.899 4.7 9.899 6.8 11.101 13.1 22.4 18.399 34.3 1.899 4.2 7.199 9.7 2.601 13.2-3.5 2.7-8-3.2-11.5-6-18.4-14.899-37.301-29-56.9-42.3-3.399-2.3-6.6-5.2-12.301-5.7 7.701 12.601 17.201 22.8 22.701 37.5-6.701-3-10.301-6.5-13.801-9.899-6.199-6-12.199-12.301-18.4-18.301-11.8-11.398-25-20.898-40.199-27.3-9.199-3.899-18.699-7.1-28.699-8-3.4-.3-7.2-1.2-8.301.101 5.9 7.301 11.101 14.199 16.801 20.601 5.6 6.2 11.898 11.7 17.5 17.8 5.6 6.102 12.898 10.9 17 18.8-2.602.602-4.102-.3-5.602-1-14-7-28.199-13.6-41.799-21.398-10.101-5.8-20.4-11.3-31.601-14.8-2.301-.7-4.801-2.4-8.5.198 20.101 13.9 39.601 27.7 59.3 41.102 19.7 13.398 41.1 24.3 59.301 39.7-.4.698-.9 1.5-1.301 2.198-6.8-4.5-13.699-8.898-20.5-13.398-.4.5-.699 1.1-1.101 1.6 14.601 12.101 27.5 26 41 39.2 9.301 9.1 17.801 18.9 28 27.1-1.601-3.3-3.3-6.5-4.8-9.898-2.7-6.102-5.5-12.102-7.801-18.301-1.3-3.601-4-8.199-.399-11.101 3.801-3.1 7.5.9 10.5 3.101 6.101 4.601 12 9.399 17.7 14.5 9.399 8.399 18.5 17.101 27.899 25.5 3.5 3.101 6.699 7 12.601 7.601-.601-6.4-3.7-10.8-6.301-15.4-4.5-7.898-8.101-16-9-25.1-.5-5.7 2.301-7.5 7.301-4.7 2.6 1.5 4.8 3.5 7 5.5 5.199 4.7 10.199 9.5 15.399 14.2-6.097-26.406-12.297-52.906-18.697-79.304zm-317.801-5.201c4.6 5.8 17.1 16.5 22.1 10.8 9.102-10.3 23.4-15.8 33.201-10.4 12 6.602 13.699 10.302 21 21.602 11.799 18.2 19.799 35.8 30.399 54.7 28.8 51.198 81.3 92.198 128 123.198 1.699 1.302 3.5 3.5 6.199 1.2.7-3.5-1.199-6.5-2.3-9.5-5.801-16.3-10.9-32.898-15.5-49.6-.601-2.3-1.2-4.5-1.7-6.8-.5-2.7-.5-5.5 2.399-7 2.9-1.5 5.301 0 7.101 2 3.899 4.6 7.601 9.199 11.2 14.1 20.8 28.1 42.199 55.7 65.8 81.7 32.5 35.8 72.899 57.5 118.601 70.8 2 .6 4.301 2.2 7.1-.8-14.399-17.2-29.899-33.7-41.1-53.5-5.101 1.2-9.101-1.5-13.101-3.7-31.199-17.4-60.8-37.2-89.3-58.6-5.601-4.2-11.101-8.5-16.101-13.4-21.7-21.1-42.5-43.2-65-63.6-1.7-1.5-2.899-4.102-5.7-3-2.5 1-2.399 3.8-2.6 6.1-.9 13.8.699 27.2 5.399 40.3 1.2 3.3 3.399 6.4 2.5 10.102-2.5.5-3.8-.802-4.7-2-8.699-10.9-19.5-20.102-26.8-32.2-16.7-28-34-55.7-52.101-82.9-10.899-16.5-22.5-32.3-38.899-43.8-11.399-8-23.2-15.7-34.899-23.3-10.101-6.602-21.199-7.2-32.699-4.3-7.201 1.8-27.5 13.398-34.201 16.3 5.903 4.498 11.103 9.699 15.702 15.498zm42.901-182.2c-28 7.601-51.801 22.399-72.801 42-9.199 8.602-11.799 8.602-20.799-.1-11.701-11.4-24.101-22.001-37.701-31.2-23-15.602-47.5-28.2-75.1-34 2.801 1.699 5.6 3.699 8.5 5.199C1477.4 375.6 1502.5 392 1526.5 409.9c3 2.3 6.899 4 8.699 10.8-26.4-7.2-45.4 8.602-66.5 17.9 7.1 2.5 14.301 3.8 21.2 5.7 6.699 1.8 13.399 4.1 20 6.398 6.601 2.3 13.899 2.7 20.899 7.7-6.7 2.9-12.399 3.2-17.801 4.601-5.399 1.399-11.3 1.899-15.699 6.199 16.5 1.5 33.101.801 48.699 7.602-6.6 3-13.3 5-19.3 8.6-6 3.602-12.7 6.5-18 13.9 12.3-.7 23-1.801 33.399-.102 10.5 1.7 21.5-.1 33.199 3.2-6.399 6.101-15.199 5.5-19.5 12.8 6 2 11.4 1.301 16.601 1.2 8.5 0 16.5.9 23.899 5.601 4.801 3 6.301 2.101 7.5-3.301.2-1 .2-2 .4-3 1.899-11.1 4.5-13.1 16.199-12.5 1.9.102 3.9 1.2 6-1.3-3.301-4.6-8-7.5-12.6-10.6-6.301-4.2-6.301-7.5-.601-12.3 2.5-2.2 6.699-2.302 8.5-6.302-4-2-7.7-1.898-11.301-2.398-2-.3-4.3-.3-5-2.602-.8-2.8 1.601-4.1 3.5-5.398 2-1.3 4-2.4 6.101-3.4 5.399-2.5 10.801-4.8 17.801-7.899-14.101-5.301-27.2-.899-41.2-1.101 6.399-9.5 16.899-10 24-16.399-10.399-3-19.5.699-29.601.399 2.2-7.8 7.5-11.7 12.9-15.399 22.699-15.801 45-32.199 71.199-42.101-7.293-.097-14.393 1.602-21.492 3.502zM1413.1 778c21.9-22.101 41.4-46.101 59.601-71.199 24.899-34.4 44.399-69.9 63.899-107 13.801-19 34.4-36.2 57.9-43.801 1.699-.5 4.199-.301 4.399-3.601-6.399-2.2-26.2-8.5-32.801-7.1-13.399 2.8-24.899 9.3-34.899 18.5-7.601 7-14.601 14.6-20.699 23-17.801 24.2-33.7 49.6-47.801 76.1-20.199 38.3-37.101 78.3-57.699 116.4-.801 1.398-1.601 2.898-.801 5.5 4.401-.998 6.401-4.299 8.901-6.799z"/><path id="sd1" fill="#251C17" d="M1559.4 598.1c-3 0-6 .2-9 0-4.899-.4-6.2-2.3-3.801-6.4 4.899-8.7 10.5-17 19.101-22.7 2-1.3 3.899-2.5 6-3.6 17.801-9.8 24-9.1 39.2 4.4 8.8 7.898 14.5 7.699 23.3-.7 11.801-11.3 20.5-11.601 32.899-.9 7.301 6.3 14.101 13.2 18.7 21.9 2.8 5.3 1.699 7.399-4.2 7.7-5.601.398-11.3.199-17 .199-11.899.101-23.199 2.301-33.3 8.801-5.301 3.398-10.2 3.398-16.101 1.6-18.198-5.701-36.698-9.599-55.798-10.3z"/><path fill="none" stroke="#000" stroke-miterlimit="10" stroke-width="6" d="M1896.9 769.5c-14.399-11.301-46.801-64.199-59.601-75.301-12.801-11.1-9.301 7.801-9.301 7.801s15.2 49.399 16.101 52c.899 2.601 8.399 16.899-.101 11.199C1730.5 700.5 1689.699 600.301 1686.6 591.801s-22.199-29.7-32.1-31.602c-9.9-1.898-15 4.4-18.9 7.5-10.1 10.2-15.801 7.5-17.1 7.102-1.301-.4-26.301-27.2-33.301-28.301s-11.199-2.5-29.5 2c-29.4 8.699-48.3 46.301-59.4 58.101-11.1 11.8-43.1 74.399-49.398 87-6.301 12.6-43.4 88.899-43.4 88.899s-20.647 38.703-154.453 109.141C1246.312 893.08 1278 1058 1243 1069c-14.115 7.896-32.249-159.421-48.866-155.44-85.449 20.471-191.634-4.06-191.634-4.06h0l-30.201-2.699c-30.199-2.7-19.799-10.301-4.398-11.7 15.398-1.4 79.8-35.9 95.6-44.9 15.801-9 2.5-18.7-18.199-11.5-88.801 26.8-119.6 9.102-141.6 1.5-22-7.6 0-10 0-10s33.199-14.6 40.699-20.6 17.1-17.7 43.1-86.2c28-88.2 41.5-134.3 72.801-191.8 31.3-57.5 69.699-97.101 137-128.3 119.101-67.801 216.101-49.2 216.101-49.2 37.199 8.3 81.699 10.8 132.101 57.1 20.1 26.7 30.8 10.7 30.8 10.7s19.101-25.7 57.3-36.5c55.2-16.5 110.5 1.9 174.2 42 106 68.2 112.399 127.3 112.399 127.3 45.899 258.602 119 304 119 304C2005.8 860.301 1913.3 807 1896.9 769.5zm-295.3-209.801c-29.398-5.898-69.5 38.602-87.3 80-23.399 63.301-115.7 149.5-115.7 149.5m146.9-195.898s-4.4 5.3 15.6 4.8 44.801 9.1 54.101 10.1 17.601-1 25.399-6.3c13.601-7.2 43.801-5 47.5-4.9M1194.134 913.56s30.911-8.965 54.913-21.919"/></svg>