<svg xmlns="http://www.w3.org/2000/svg" id="hair" viewBox="0 0 3000 3000"><path id="cl1" fill="#373038" d="M1021.116 545.891c-25.4-.397-50.5-3.397-75-10.397-10.699-3.103-21.5-4.302-32.602-4.4-19-.2-37.898 1.102-56.8 3.7-4.601.6-9.101 1.7-14.398 1.1.698-3.8 3.601-5 5.8-6.6 16.7-12.3 34.7-22.4 52.898-32.102 15.602-8.301 31.5-16 47.2-24 1.5-.801 3-1.398 4.5-2.198 3.3-1.9 8.3-2.9 7.899-7.9-.5-5.5-5.899-5.7-10-6.7-12-2.897-24.301-4.198-36.699-4.1-29.799.298-59.098 4.398-88.198 10.398-21.2 4.302-42.398 8.899-63.2 14.899-1.198.3-2.5.3-4.198.5-.802-3.6 1.898-5 3.601-6.5 12.5-11.1 26.199-20.6 40.199-29.6 22.7-14.603 46.801-26.803 71-38.803 23-11.397 47.5-12.699 72.2-12.5 20.601.2 41.3 1.603 61.8 4.301 1.301.199 2.6.399 4 .5 2.5.199 4.699-.5 5.6-3.101.801-2.6-.397-4.7-2.397-6.1-2.7-1.9-5.603-3.603-8.5-5.2-50.302-28.3-103.802-48.3-160.103-60.8-3.5-.802-7-1.7-10.799-2.603 1.5-2.699 3.699-1.699 5.398-1.699 50 .399 99.899 3.302 149.699 7.5 16.102 1.399 31.301 6.302 46.5 11.399 18.699 6.2 36.9 13.5 54.4 22.601 4.399 2.302 10.1 7.399 14.199 1.802 3.398-4.603-2.5-9.103-5.301-12.802-24.801-32.198-54.602-59.198-88-82.198-30.601-21.1-63.398-38.1-98.3-50.8-2.698-1-5.898-1.198-8.5-4.898 5.602-2 11.102-2.199 16.5-2.399 18.302-.8 36.699-1.101 55-.101 51.602 2.7 101.802 12.5 149.9 31.801 13 5.199 25.6 11.199 38 17.899 3.399 1.8 7.5 5.101 10.799.898 3.201-4.2-.899-7.398-3.5-10.2-24.397-26.498-48.897-52.798-73.298-79.298-3.101-3.3-6.801-6.3-8.5-11.398 4.6-1.5 8.299.3 11.899 1.398 48.5 14 92.8 36.7 134.198 65.3 4.699 3.2 9.199 6.602 13.802 9.9.698.399 1.198.899 1.698 1.5 2 4.199.9 6.399-4 5.899-4.6-.5-9.198-1.5-13.801-2.2-10.1-1.602-12.3 1-9.1 10.898 5.199 15.899 13.398 30.5 20.199 45.7 7.101 15.8 16.301 30.499 23.101 46.499 1.2 2.9 3.3 6 .899 9-2.801 3.5-6.602 2.7-10.102 1.2-18.199-7.5-36.3-15-53.898-23.8-10.5-5.2-21.102-10-32.199-13.602-2.801-.898-6.199-2.5-8.301.602-2 3 .398 5.7 2.101 8.1 8.2 11.301 17.899 21.5 26.5 32.5 1.399 1.801 3.2 3.4 4.399 5.4 1.699 2.898 3.699 6 1.601 9.2-2.399 3.6-6.2 3.6-9.899 2.397-10.5-3.397-20-8.897-29.898-13.699-9.302-4.398-18.302-9.5-30.2-13.898 6.899 9.7 12.899 17.398 19.899 24.3 8.301 8.2 15.601 17.4 23.5 25.9 2.199 2.397 4.898 5 2.801 8.698-1.9 3.399-5.301 3.302-8.699 3.199-32.9-.8-65.601.5-99.201 4.9 11 7.898 21.5 15 30.701 23.6 2.799 2.603 7.1 4.5 5.5 9.303-1.801 5.3-6.801 4.697-10.801 4.6-23.602-.6-47.199-2.899-70.9-1.899-3.6.199-7.3-.698-10.8 1-1 3 1.5 4.302 3.101 5.602 15.9 13.2 32 26.1 51 34.898 3 1.399 6.802 2.302 6.802 6.302 0 4.3-3.802 5.5-7.2 6.8-17.699 6.3-36.6 7-54.699 11.6-3.801.9-7.9.801-11.601 4.2 6.601 5.5 14.2 8.101 21.3 11.2 7.301 3.2 14.5 6.6 21.5 10.7 1.7 1 3.9 1.897 3.5 4.3-.5 2.898-2.9 3.5-5.3 3.398-6.3-.296-12.4.905-18.201-.796zm308.201-152.299l-.399-.2c-4.101 7.102 2 8.5 6.1 10.8 38.802 21.801 74.199 48.103 106.102 79.2 8.301 8 14 18.603 24.2 24.603v-.2c1.198 1 3.101.6 4.198 1.897 6 2.5 10.4 6.803 14.4 11.9 40.199 50.9 80.6 101.8 120.799 152.7 2.701 3.397 5.601 6.7 6.5 11.1-2.5 9.3 2 13.9 12.301 12.5 14.102-1.8 26.102-7.3 34.5-19.5 17.5-25.397 40.4-44.897 66.199-61.5 8.9-5.7 18-11.3 28.5-13.7 16.301-6.897 32.601-7.1 49.701-2.1 16.6 4.9 29.6 14.8 41.799 26.3 1.601 1.5 3.201 4.103 5.801 2.8 2.802-1.5 2.802-4.197 1.699-7-1.1-3.5-2-7-3.299-10.397-14.701-37.8-35.201-72.2-61.5-103-11-12.9-22.103-25.603-35.5-36.2-1.9-.5-3.801-1.3-5.4-2.4-2.801-1.897-6-4.1-8.198.103-1.802 3.5-.103 6.2 3.601 8.397 2.899 1.803 6.299 3 8.199 4.9-3.199-1.4-6.802-3.9-10.5-6-10-5.8-20.699-10-31.699-13.3-4.101-1.2-8.9-1.7-11.4 3.1-2.5 4.9-1.1 8.9 3.5 12.103.602.397 2.602.1 2.4.698-12.801-4.301-24.801-10.898-37.301-16.698-3.802-1.7-8.199-2.802-10.602 1.397-2.6 4.5-.398 9.2 3.102 12.103 2.801 2.198 5.6 4.198 7.898 6.897 1 1.3-3.5 4.4-.398 5.3 15.801 9.2 33 19.9 47.698 33.001 16.2 12.5 30.802 26.899 45.102 39.5-6.399-4.898-12.899-11.801-19.899-18.101-18.399-16.3-36.7-32.6-57.601-45.6-18.2-11.303-38-19.9-54.602-33.803-2.898-2.5-5.5-1.697-7.601 1.303-.6 1.197-.6 2.6-.899 3.897-.101.4.602 1 .5 1.603 0 .8 0 1.1.102 1 .199-1.5-1.2-2.303-1.899-3-6.601-7.303-12.5-6.4-17 2.397-6.5 12.9-7.5 13.2-21.5 7.2-4-1.7-8.101-4.3-12.101-.8-3.801 3.3-1.5 7.6.199 12.397-6.699-4.897-12.101-9.5-19-11.5-3-.897-6-.8-8.101 2.103-2.2 3-.5 5.3 1.3 7.7.899 1.198 2.5 2.198 2.102 4.6-6.7-4.7-12.899-9.8-19.801-13.7-3.601-2-6.801-.8-9.301 1.8-2.601 2.7-.601 5.4 1.301 7.5 3.301 3.603 5.899 7.9 10.301 10.4.398.2.3.6 0 .9-.899.897 1 .5-.899-1.2-7.301-5.9-16.899-9.2-25.899-11.103 2.399.103 7.801 3.103 8.699-1.6 1-4.6 3.102-4.6 6.2-5.8 1.8-.7 5.399-1.2 5-5.103-.4-3.197-2.5-4.5-5.101-5.197-3.899-1.103-8-1.103-13.102-3.2 12.7 3.8 24.2 5.6 36 4.6 5-.397 10.7-1.2 11.899-6.897 1.2-6.2-4.699-7.5-9-9.5-.5-.2-.8-.803-1.399-.5 5.301 2.1 10.801 3.5 16.399 4.397 5.2.8 11.899 2.4 14-3.7 2.101-6.197-4.399-8.5-8.899-10.897-.8-.4-1.199-.603-.8-1.103 4.3.9 6.699-1.3 7.699-5.5-.9-7.1-7.5-7.697-12.199-9.8-32.801-14.8-66.7-26.399-101-37.1-27.601-8.603-55.4-15.2-84.601-10.4-12.5 1.5-24.2 5.7-35.802 10.4a7.6 7.6 0 0 1-1.798 1.803zm-75.201 57.402c9.6 15.198 19.801 30 24.1 47.897 5.701 23.801 11 47.603 15.701 66.7-5.801-38.2-25.9-75.3-50.301-110.5-3.102-4.5-7-6.5-12.301-3.399-14.699 10.399-29.102 21.302-42 34-2.399 5.602-6 10.699-7 17-4.199 26.5-5.399 53.302-7.399 80-.5 6.699-.399 13.802 3.8 19.802 5.2-.302 8.4 1.5 9.4 7.1.398 2.7 2.301 5.5 5.199 6.4 9.601 2.897 18.101-3.603 18.199-13.7 0-2.5.102-4.9.102-7.4 0-10.3 2-11.6 10.6-6.897 10.7 5.897 13.301 4.8 16.2-6.802 3.101-12.301 5.3-13.101 16.101-6.101 7.399 4.7 12.699 2.5 13.699-6.399.801-7.198.2-14.398.1-21.601 0-.8-.397-1-.897-.5-.899 1 .198-1.399.5.9 4.601 12.197 13.198 22.8 22.601 32.897-3.301-3-5.601-6.897-8.801-10-2.602-2.6-5.199-5.7-8.9-4.5-4 1.2-4.1 5.4-4.397 9-1.103 15.2-1.103 15.2-13.802 7.5-.601-.3-1.101-.8-1.698-1.1-6.9-3.602-10.2-2.3-12.603 5.2-1.699 5.1-2.397 10.397-4.5 15.3-1.8 4.2-4.397 4.8-7.397 1.1-2.302-2.8-3.9-6.2-6.7-8.7-2.101-1.8-4.3-3.3-7-2.3-3.101 1.2-3 3.7-3.101 6.8-.101 5.9-.101 11.9-2.399 17.7-2.5 6.2-6.4 8.103-12.601 5.7-4.399-1.7-8.899-3.1-13.302-4.8-7.397-2.9-12-1.9-13.897 6.5-1.5 6.6-5 8.2-10.7 3.6-3.5-2.8-8.3-3.5-10.699.3-4.5 7-11.201 9.603-18.301 12.2-2.101 2.103-2.9 5.103-4.4 7.603-11.1 18.197-19.198 37.5-18.898 59.3.101 5.8-2.699 14.2 4.398 16.397 7.602 2.303 11.7-5.197 15.7-10.8 5.8-8.3 10.9-17.2 18.2-24.7 1.6 2.5.6 4.5.399 6.4-1.302 13.5-1.5 27.2-2.602 40.7-.8 9.7 2.8 12.398 12.5 11.8 5.8-.3 10.899-2.5 15.8-5.6 24.4-15.5 46.802-33.5 67.5-53.7 2.2-2.2 4.603-2.5 7.103-3.4 6.8-8.6 14.199-16.8 19.8-26.3 19.301-33 38.601-66.1 58-99.1 14.101-24.103 28.301-48.302 42.5-72.302 5-8.398 7.2-9.101 16.399-6.301 2.899.9 5.699 1.9 8.5 2.9 20.801 7.1 41.601 14.1 62.399 21.2 1.899.897 4 1.397 5.199-.9-.601-.897-2.399-2.8-3.5-4-8.899-10.5-14.899-17.3-27-28.1-27.801-25.301-57.301-46.7-89.899-65.103-5-2.5-8.898-5.1-11.5-8.1-1.898-2.103-7.601 0-10.801.897-21.398 9.603-45.8 24.5-64.398 38.803-3.604 5.509.396 9.406 2.995 13.509zm295.801 161.5c-17.2-19.9-38.4-33.802-55.301-54-8.602-10.302-16.102-21.9-31-26.4-25.4-7.7-50.4-16.898-75.4-26-6.199-2.3-17.199-15.2-24-15.2-10.799 18.302-24.5 43.4-35.299 61.802-7.701 13.198-16 27.301-23.601 40.601 1.5 3 5.5 10.1 9.897 11.8 4.9 1.9 5.5-3.6 7.701-6.2 1.199-1.397 1.899-3.1 2.699-3.6 0 5.5-11 7.3-5.9 15.8.5.8 1.103 1.5 1.9 2.101 4.399 1 6-2.898 8.399-4.5-2 3.899-7 7.5-3.5 13.302.698.6 1.5 1.1 2.399 1.5 5.699.6 9.299-3 13-6.603-2.701 5.103-5.301 10.2-7.601 15.4-1.2 2.8-2 5.6.5 7.899 2.5 2.398 5.5 2.198 8.397.801 4.9-2.4 8.9-6.103 12-10.7-2.6 3.6-6.198 6.5-7.799 10.7-1.399 3.5-1.301 7.1 2.199 9.8 3.399 2.7 5.699.2 8-1.5 5.699-4 11.1-8.4 15.801-13.5-1.5 1.7-2.701 3.5-3.601 5.7-1.301 3.3-1.801 6.5 1.398 9 3.7 3 6.399.199 9-2 3.802-3.2 6.899-7 8.102-9.103-1.399 2-4.399 5.9-5.5 10.9-.801 3.398-.2 6.898 2.898 8.898 2.602 1.699 5.302.102 7.7-1.5 8.101-5.5 15.5-11.801 21.3-19.801.302-.397.302-.699.102-.8-1.2-.5.898-.7 0 .4-5.7 7.8-9.399 16.5-12.801 25.397-.899 2.4-1.399 4.9.101 7 .399.5 1.801 1.802 3.301 1.2.899-.398 1.199-.5 1-.398-1.301.801-2.801 1.198-4 2.101-7.301 5.8-12.601 13.2-17.301 21.3 0 .101 0 .101-.199.2 3.699-7.9 11.799-14.3 9.101-24.7-.699-.7-1.5-1.3-2.5-1.6-5.199-.801-7.601 3.397-10.699 6.1-13.603 12-31.899 43.9-41.899 42.7-.5.8-.801 1.2-.801 2.2.301 3.3 1 65 24.899 81.3 2.601 4.2 6.801-7.7 8.698-12.5 2-4.9 3.603-10 5.103-15.101 10.8-35.399 24.6-69.602 44.698-100.899 11.699-18.2 24.399-35.7 33.602-55.3.8-2 2.898-1.603 4.398-2.5l.699.1h.7c9.3-.1 9.5-8.8 12.8-14.2 6.9-11.397 9.801-12.1 19.603-3.6 24.698 21.6 48.5 44.2 72.5 66.5 6.3 5.899 12.897 11.5 19.5 16.899 5 4.101 11.5-5 10.3-11.102-11.602-15.7-23-31.6-36.3-46-4.893-1.697-6.194-6.396-9.393-10.094zm-206.301 103.098c5.1-7 8.1-15.2 12-22.899 1.6-3.198 3.6-7-.102-9.801-3.698-2.8-7.198-.8-10.898 1.4-9.199 5.7-12.9 15.6-19.199 23.6-.101 0-.5.7-.5.7s.399-.7.399-.6c6.398-9 12.198-18.603 17.5-28.4 2.198-4.1 5.698-8 3.898-13.399-.7-.801-1.3-1.5-2.2-2-4.898-1.601-8.3 1.302-11.6 4-6.601 5.5-12.2 12.102-16.2 18.399 6.602-8.1 12.302-18.2 19-27.5 2.302-3.2 3.102-6.8 0-9.899-3-3-6-1.101-8.8.699-9.9 6.2-18.7 13.5-24.801 23.9-.1.1 0-.102 0 .1 9.101-12.5 15.4-26.699 22.101-40.699 1.8-3.698 3-8-1.398-10.601-4.102-2.3-7.102.3-10.102 3.5-2.5 2.601-4.398 5.601-6.7 8.4 3.602-6.2 9-10.802 13.302-16.5 2.8-3.7 1.3-6.603-1-8.9-3.102-3.1-6.2-1-8.7 1.5-3.3 3.3-10.1 2-15.699 2.8-8.1 11.4-14 20.9-21.699 32.603-9.301 10.5-11.199 24-13.398 32.8-7.602 30.398-5.201 63.1-10.4 94-1.1 6.398-2.301 12.898 0 20.6 5.802-4 9-9.198 13.302-13 6-5.397 9-12 10.3-19.897 1.6-9.9 3.7-19.603 5.898-29.4 2.5-11.1 5.602-22 9.9-32.399 1.3-3.101-16.801 53.699-18.101 84.602-.5 12 1 27.7.5 39.7-1.102 25.6 3.101 59.6 7 85.198 4.5 30.102 12.698 59.199 21 88.302.398 1.397.601 3.397 3.601 3.1 2.1-6.5 1.399-13.6 2.399-20.398 6-41.899 16-83 26-124.102 4.698-19.398 11.101-38.398 17.3-57.398 2.7-8.102 2.7-15.102-1.8-22.802-7.302-12.5-10.7-26.5-11.802-40.897-.301-3.603-.198-7.302.102-11 .597-5.613 9.597-7.412 9.597-7.412zm-258.099 80.799c-24.698-16.699-51.5-29.199-77.898-42.6-1.9-.9-3.9-3-6.602-.5.7 3.898 3 7.2 4.9 10.6 13.199 24.301 26.6 48.5 39.8 72.801 2.102 3.899 6.399 8.302 2.899 12.802-3.899 5-9.3 1.6-13.8.1-13.899-4.7-27.602-9.7-41.5-14.6-2.302-.802-4.7-2.4-7.7-.2 2 2.8 3.7 5.2 5.5 7.5 18.2 23 36.5 45.898 54.7 68.8 2.101 2.602 4.198 5.2 5.8 8.102 2.101 3.698.5 6.801-3.399 7.698-3.5.802-7.3.7-10.898.5-14.302-.897-28.602-2.1-42.899-3.1-3.4-.2-7.101-1.5-10.7 1.8 4.399 5.4 9.8 8.5 15.102 11.8 6.601.4 12.101 3.603 17.698 6.4 21.302 10.3 41.9 22.2 64.802 28.7 2 .6 4.101 2.198 5.8.6-4.101-4.5-7.899-8.6-11.699-12.8-2.5-2.7-4.801-5.5-6.199-9-.602-1.602-1-3.3.101-4.8 1.5-1.9 3.7-1.802 5.399-.802 5.801 3.302 11.699 6.5 17.101 10.302 6.601 4.6 13.899 7.897 21.399 10.8 2.101.8 4.699 2.2 6.5.1 2-2.3-.399-4.3-1.602-6.1-1.3-1.9-2.8-3.8-4.6-5.3-15.199-12.603-28.199-27.302-41.199-42.103-6.301-7.199-11.801-14.897-17.101-23.897 6.3-1 9.8 1.8 13.397 3.897 17 9.9 35 18 52.5 26.9 2.801 1.4 5.5 3.9 10.5 1.8-19.199-21.5-37.299-43.3-52.397-67.5 4.5-2.2 7.5-.1 10.601.8 17.1 5 34.5 7.603 52.299 5.603 12-1.302 15.201-4.5 17-15.603-2.699-2.6-5.299-5.1-8-7.699-21.705-14-44.105-27.301-65.605-41.801zm563.9-362.699c4.6.302 8.899 1.5 12.899 3.602 2.898 1.5 5.698 3 9.101 2.398l-.101.102c10.698.398 20.601 4.398 30.698 7.5 14 4.3 25.802 13.3 39.5 18.398-2.198-2.101-4.198-4.301-6.5-6.198-25.898-20.7-53.898-38.001-84.198-51.603-68-30.5-139.2-42.5-213.5-36-1.802 1.2-3.899.7-5.802.801-3.198.102-7.398-.898-7.898 3.8-.5 3.802 3.398 4.399 6 5.602 7.398 3.2 15.6 3.398 23.301 5.601 48.899 13.399 97.5 27.5 141.8 53.302 2.5 1.5 5.399 3.897 6.802-1.2 4.898-2.2 9.698-1 14.6.2 11.9 2.8 23.801 5.699 35.801 8.397 3 .7 6.399 2.301 9.8-.8-2.403-6.203-9.303-8.502-12.303-13.902zm-538.9 191.699c4.5-10.8 6.9-10.8 15.102-2 6.398 6.801 9.699 6 13.301-2.897 2.699-6.7 3.899-13.9 6.699-21.4 3.801 5 5.398 10.102 8.1 14.7 2.201 3.8 4.201 8.398 9.201 7.898 4.699-.5 6.5-5.198 7-9.301.699-4.8 3.699-7.397 6.6-10.397.102-3-.398-6.103-1-8.9-5.5-25.398-12.198-50.7-7.5-77.1.302-1.603-.301-3.303-.898-4.803-1.301-3-3.5-2.3-5.801-1.6-23.199 20.4-46.102 41.1-60.399 69.3-2.399 4.7-5.2 9.2-7.7 13.9-12.8 24.5-23.6 49.7-29.898 76.7-.301 5.6-.699 11.3-.899 16.897-.101 2.603-.601 5.7 2.601 6.801 2.5.899 4.399-1.101 6.102-2.698 1.198-1.2 2.398-2.4 3.198-3.802 3.302-6 8.2-10.398 13.2-14.801 7.09-15.696 16.291-30.497 22.991-46.497zm834.755 193.603c.6-.7 1.1-1.7-.699-3-15.601 8.698-31.601 17.5-47.5 26.397-3.101 7.603-6.7 15-9.301 22.801-2.9 8.602-6.199 17.5-3 26.899 20.202-24.399 40.301-48.799 60.5-73.097zm-80.782 155.493c-1.5 6.1 1.399 10.1 7.899 11.6 5.698 1.3 10.198-.897 14.698-3.897 11.4-14.4 21.302-29.9 30.9-46-14.4 4.397-28.101 9.8-41.4 16-7.898 5.397-10.097 13.897-12.097 22.297z"/><path id="sd1" fill="#29242A" d="M1021.116 545.891c5.1-.699 10.5.5 15.898-1.397-1.898-4-5.398-4.7-8.198-6-12.102-5.5-24.302-10.802-36.5-16.2-1.5-.7-3.2-1.102-4.602-2-3.601-2.102-3.601-4.3.2-6.602 4.6-2.801 9.8-4.198 15.1-5.198 15.4-2.9 30.802-5.7 46.2-8.7 4.8-.9 9.8-1.5 14-4.7-1.601-3.6-4.899-3.898-7.399-5.398-18.601-10.699-35.801-23.199-51.199-38-1.699-1.602-3.301-3.302-4.602-5.199-1.5-2.2-.5-3.9 2-4.4 2.301-.398 4.602-.5 7-.5 24 .602 48-1.3 71.9 1.7 4.8.6 9.8 1.1 15.5-1.601-11.9-14-28-21.802-42.7-34.399 39.101-6 76.601-5.802 115.399-7.7-16.397-22.104-37.897-38.903-51.197-61.903 2.1-2.898 4.1-1.7 5.899-1.101 10.101 3.3 20.198 7.101 29.398 12.398 10.2 5.802 21.2 9.699 31.399 15.399 2.2 1.2 5.301 3.3 7.301.9 2.3-2.603-.9-4.802-2.5-6.7-7.2-8.8-14.5-17.4-21.801-26.102-5.1-6.198-10.3-12.301-13.1-20-1-2.698-2.699-5.801.1-8.301 2.301-1.999 5.101-.8 7.601 0 13 4.103 26 8.5 38.2 14.801 17.199 9 35.3 15.802 52.8 23.899 2.602 1.2 5.3 2.9 8.602 2.3 2.3-2.3.398-4.397-.5-6.3-5.399-11.1-11.102-22-16.5-33.1-10.7-21.802-21.399-43.7-29.5-66.7-.399-1.3-1.102-2.399-1.399-3.7-1.101-4.5.1-6.3 5-5.899 6 .5 11.8 1.899 17.699 2.899 4.898.9 9.699 2.4 14.801 1.301 10.3 6.3 19.1 14.399 28.199 22.199 26.199 22.2 51 45.9 71.5 73.7 2.398 3.2 4.801 6.398 6.699 9.898 3 5.399 1.699 7.399-4.101 7.302-.7 0-1.3-.103-2-.2-33.399-4.5-64.101 4.398-93.101 20.1-37.399 20.2-68.5 48.103-97.102 79.103-26.198 28.5-49.898 58.897-71 91.397-2.6 4-5.3 7.7-10.6 8.103-17.9 1.6-35.801 3.3-53.801 1.7-1.792-.099-3.392-.698-4.993-1.099zm136.901 296.801c-7.301 13.802-19.898 14.802-33.398 13.899-13.699-.899-26.801-4.6-40-8.3-3.602-1-7.5-2.2-10.102 1.3-2.801 3.8-1.1 7.4 1.602 10.8 6.199 7.801 11.199 16.603 17.5 24.301 8.398 10.302 15.699 21.602 23 27.899-15.9-8.2-35.199-17.899-54.301-28.1-.898-.5-1.801-.802-2.801-1-3.398-.9-6.801-.802-9.1 2.198-2.5 3.199-.5 5.899 1.398 8.699 1.5 2.2 3 4.4 4.5 6.603 15 21.397 33.5 39.7 53.398 58.8-12.799-5.7-22.299-13.9-33.398-19.2-3.801-1.8-8-2.7-11.199.5-3.5 3.4-3.301 8.1-1.199 12.1 2.899 5.603 6.3 10.9 12.399 13.7.3.103.3.4.198.603-.898 1 1.302.5-1.801-1.603-18.6-7.7-38.799-17.8-59-27.897-3.299-1.603-6.5-3.603-10.1-4.303-3.4-.697-7-1.1-6.602 4.303 2.7 2.397 5.302 5.1 8.2 7.3 23.2 17.397 46.601 34.5 70.601 50.7 31.199 21.1 62.801 41.5 96.699 58.1 6.9 3.4 14 6.2 21 9.2 4.602 1.897 7.699.3 9.199-4.5.5-1.603 1.101-3.103 1.5-4.7 9.601-36.5 15-73.7 19.201-111.1.699-6.2-.701-11.9-4.301-17-6.199-8.7-11.699-18-18.801-25.802-12.5-13.898-19.899-29.698-21.102-48.301-6.89-5.5-14.19-9.599-23.19-9.199zm32-62.301c9.602-24.6 22.302-47.5 37-69.397 6.102-9.103 13.302-17.5 18.602-27.103-3-2.397-5.9-2.5-9 0-10.602 8.603-21.602 16.603-31.699 25.801-11.2 10.102-23.801 18-36.2 26.399-2.7 1.8-5.8 3.3-9 4.2-8.3 2.398-12.601-.8-11.601-9.3 1.801-15.5.5-31.302 4.101-46.603.602-2.698 1.899-5.8-1.101-8.8-5.6 1.8-9 6.3-12.399 10.7-5.8 7.7-11.101 15.7-16.8 23.5-2 2.8-3.601 7.7-7.9 6.2-4.1-1.5-2.5-6.4-2.398-9.9.6-16.6 5.5-32 12.898-46.7 2.802-5.6 6-11.1 6.802-17.6.198-.5.3-1 .5-1.5 0-1.1-.399-2.1-1.302-2.8-1-.4-2.1-.5-3.198-.3-6.7.698-10.5 8.1-16.899 8-5.5-.103-8.601 2.198-11.7 5.8-4.601 5.398-5 13.898-13 16.6-8.101.3-8.5 10.9-15.898 12.3-2.2-8.1-2.2-8.1-6.5-10.198-1.102 3.5-2.302 7-3.2 10.5-5.3 21.398-7.6 43.198-9.8 65.101-1.302 12.5-1.899 27.3 8.698 33.6 28.602 17.103 56.5 35.2 84.699 53 2 1.2 4 2.4 5.801 3.9 5.302 4.5 2.602 1.6 1.9 2.3-2.4 7.4 3.399 9.9 5.899 5.7.601-1 .601-.9.898-1 8.3-.3 14.602 3 22.8 9-4.404-24.797-.003-48.297 8.997-71.4zm267.4-157.897c-2.9 5.198-7.9 9.6-10.601 14.897-3.7 7.301 4 11.4 11.5 15 .601.301 1.198.5 1.8.801 54.301 22.802 108.4 47.1 162.801 69.899 9.699 4.101 10 3.9 16.399-4.8 14.898-20.102 30-40 47.3-58.102 22.101-23.198 44.801-45.698 75.2-58.398-3.399-2.5-6.899-1.3-10.399-.3-11.5.1-21.2 5.1-30.5 11.1-26.2 16.9-49.601 36.9-67.4 62.9-6.698 9.698-16.1 14.397-27.398 16.397-6.602 1.103-11.399-3.3-14.399-10-4.3 3.802-4.8-.897-8.399-5.198-2.5-3-4.101-5-6.699-7.899-4.102 0-5.602.399-8.301-2.101-18.101-16.102-41.601-29.302-59.199-46-13.199-12.602-27-24.602-40.602-36.802-6.1-5.397-7.8-5.198-12.198 1.9-5.602 9-12.302 19.5-16.899 29.1 3.494 3.704.294 3.404-2.006 7.606zm350.5-5.5c8.199 8 14.8 17.1 20.6 26.897 10.602 17.801 19.699 36.301 26.802 55.801 7.198 19.699 14.3 39.5 21.5 59.199.8 2.2 1.101 5 4.3 6.603.7-4.802.101-8.7-.399-12.7-4.101-32.4-11.398-64.3-18.5-96.102-2.5-11.301-5.2-22.698-10.398-33.301-5.899 1.603-8-3.8-11-6.6-9.2-8.4-19.602-14.602-31.2-19-20-7.5-39.102-3.2-58.102 3.898 3.5.102 7 .199 10.4.302 18.497-4.799 33.097 2.4 45.997 15.003zm-390.2-243.302c-16.898 2.602-33.8 5.199-50.601 7.899 12 0 23.801.8 35.601 3.399 46.802 10.301 92.102 25.601 136.302 43.898 7.6 3.2 15.6 5.7 22.398 10.7 8.399 2 16.699 4.1 25.102 5.9 8.1 1.697 16.198 3.897 25.3 3.6-2.5-5.9-6.899-7.1-10.5-9.4-5.5-4.3-11.602-7.697-17.8-10.897-45.701-23.3-94.302-38.102-144.102-49.4-3.399-.8-7.2-.8-9.801-3.897 2.301-2.603 5.301-2.302 7.601-3.603-6.5-.699-13 .801-19.5 1.801zm-186.4 77.9c3.5 1.4 6.3 3.7 8.3 6.9 14.101 22.197 29.2 43.8 37.899 69 4.399 12.897 9.601 25.5 13.301 38.697 1.398 5.2 2.5 10.803 6.8 15.5 2.5-3.897 1.2-7.1.7-10.3-2.102-12.1-4.602-24.2-6.399-36.397-5.301-35.2-17.2-67.603-39.5-95.803-.399-.5-.801-1.1-1.101-1.6-7.4 3.703-13.9 8.503-20 14.003zm669.716 399.443c1.172-4.236 3.931-8.822-.495-12.889-6.634-4.299-7.158-5.083-4.493-12.769 5.332-15.369 11.067-30.653 16.498-46.026 1.012-2.93 3.021-5.895 1.617-9.252-3.901.018-5.515 2.868-7.862 4.641-13.206 9.809-18.608 22.88-17.703 39.36.491 9.49-1.136 18.444-6.259 27.605-7.301 13.128-13.973 27.24-12.577 43.405.932 10.776-2.155 21.076-6.455 30.912-1.401 3.243-3.509 6.309-2.065 10.966a10047.747 10047.747 0 0 1 28.623-38.894c2.716-12.589 7.652-24.545 11.171-37.059zm-729.716-245.843c.398 4.699 3 7.802 7.101 10.199 2.5 1.5 4.899 1.7 7 .301 2.899-1.898 2.8-6.601 2-8.101-1.5-2.7-1.301-7.5-6.101-7.899-1.602-4.101-2.2-8.398-1.7-12.801 2.7-24.8 3-49.897 6.899-74.6 1.399-8.9 2.899-17.8 2.801-26.8-10.2 7-19.102 15.5-28 24.1 1.601 3.8 1.601 7.7 1.101 11.8-2.301 18-1.2 35.801 3.699 53.4 2.5 9 4.7 18 7.101 27-.801 1.1-2.001 2.203-1.901 3.401zm694.499 345.949c-4.489 1.208-6.189 4.203-6.394 8.799-.521 15.499-1.349 31.078-1.868 46.578-.038 2.104-1.015 4.744 3.297 6.23 8.672-11.455 16.31-22.662 24.442-35.054-2.289-.251-4.583-.402-6.864-.753-9.326-1.416-8.387-3.273-5.602-12.109 1.892-5.888 12.858-12.982 17.305-18.61-4.395 1.317-19.927 3.705-24.316 4.919z"/><path id="hl1" fill="#49404A" d="M1751.417 473.692h-7.9c4.302 8.199 13.802 10 17.802 17.802-2.2 1.5-4.2-.103-6.102-.802-13.101-5.5-26.198-11.301-39.398-16.801-3-1.3-6.2-2.397-9.5-2.897-4.399-.603-6.102 2.1-4 6.199 2.3 4.398 6.3 7.5 9.8 11.198-2.6 2.7-4.699.7-6.6 0-12.4-4.8-24.802-9.5-36.5-15.8-2-1.1-4.2-2.2-6.4-2.6-2.8-.603-3.6 1.3-2.6 3.6 1.5 3.5 4.398 5.8 7.198 8.102 1.302 2.198 3.302 4.5.602 6.898-4.302 3.2-4.102.602-6.399-.3-9.101-3.8-19-8.3-27.301-13.7-3.801-2.5-7.602-5.5-12.699-4.898.399 4.101 3.8 7.801 2.1 12.801-5-1.103-7.1-5.301-10.398-7.9-5.301-4.1-7.801-3.398-10.5 2.8-.5 1.2-.801 2.5-1.301 3.802-3.699 10.101-8.301 12.101-18.398 7.601-3-1.3-5.9-3.101-8.9-4.5-1.199-.601-2.6-.9-3.801.1-1.199 1-.899 2.4-.3 3.7.698 1.5 1.698 2.9 2.398 4.4 1 2.3 3.802 4.8 1.102 7.1-2.399 2-5.102-.3-7.302-1.7-4-2.397-7.8-5.1-11.698-7.698-2.899-1.899-5.7-4.399-10.399-4.399 1.5 4.399 4.899 6.3 6.899 9.3 1.3 1.9 2.5 3.9 3.5 6 .8 1.5 1 3.3-.5 4.602-1.399 1.198-3.2.801-4.7.101-5.199-2.399-9.699-5.8-14.1-9.3-4.9-4-9.9-7.801-17.699-11.7 5.299 9.2 11.699 14.899 16.799 21.899-6.6-.199-40.799-14.199-48.199-19.602 3.699-3 8.602-.1 12.5-2.8-.301-3.8-5.199-2.2-6.5-5.7 5.301-.7 10.801 1.7 16.602-1.6-5.602-5.103-13.5-4.9-20.302-9.801 17.7-4.802 34.7 3.801 51.603-1.602-2.9-7-10.9-7.1-13.603-14.3 11.5-2.3 21.899 4.8 33.802 2.8-3.9-5.5-10.302-6.7-13.4-12.5 4.801-3 9.9-1.5 14.5-2.1 1.701-4.603 5.201-3.9 8.9-3.103 10.1 2.103 20.301 4.103 29.5 7.302-1.4-.699-3.9-1.302-3-4.5 3.398-6.802 9.1-7.302 15.698-5.699 12.899 3.1 25.802 6.3 38.5 9.6-2.601-3-6.5-5.2-7.5-9.6a5.912 5.912 0 0 1 .603-3.2c2.6-3.7 6.1-2.601 9.6-1.8 5.801 1.3 11.301 3.897 17.301 4.6 1.102.2 2.199.5 3.301.7 25.699 3.6 46.6 17.6 67.301 31.8 3.388 2.695 6.687 5.397 9.988 8.095zm-430 242c9.6-9 16.5-21 29.6-28.898-.698 7-3.801 11-5.801 15.398-1.898 4.302-7.398 10.102-5.1 14.802 4.699 3.397 10-2.603 12.301-5 12.199-12.902 22.9-27.302 37.1-38.302-3.698 11.399-9.698 22.102-12 34l-.1-.101c13-14.899 27.1-28.899 39.399-44.899-3.802-1.398-5.302 4.102-9.102 1.199 3.602-10.897 9.899-21 12.7-34.6-11.9 8.3-19.301 18.398-31.801 24.1 1.398-10.5 7.898-17.699 8.898-28.8-8.398 7-13.301 15.2-21.898 20.5 0-7.399 7-11.7 5.301-19-5.9 1.9-9.301 6.3-13.5 9.2-4.4 3.1-8.101 7.5-15 9.8 2.199-7.8 7-12.3 9.8-17.8.7-1.5 1.899-3.2.602-4.602-1.802-1.898-3.802-.5-5.302.699-2.6 2-5 4.4-7.6 6.5-2.7 2.2-5.101 5.2-9.2 5.4-1-4.1 1.602-6.7 2.8-9.6 1.9-4.603 4-9.2 5.802-13.802.698-1.801 1.601-4-.7-5.301-1.699-.898-3.1.5-4.399 1.602-4 3.398-7.398 7.699-12.698 9.5 1.5-3.301 3-6.5 4.398-9.801 1-2.301 3.602-4.898.9-7-2.201-1.801-4.102 1-5.9 2.102-2.5 1.5-5 3.1-7.5 4.699l.102.101c2.5-8.3 9.898-14.2 12.6-25-7.6 4.1-11.199 8.899-15.199 13.2-2.5 2.699-12.6-.2-15-3.7-.199.3-.398.7-.5 1.1-.301 1.103-1 1.9-1.801 2.603-4 6.698-7.899 13.5-11.899 20.198 2.7 2.302 12.7 4.399 15 2.899 2.302-1.6 3.802-4.5 8.102-4.8-5.802 10.5-13.7 19-17.802 31.2 10.4-3.102 12.802-14.2 22.4-17.602-.2 6.301-3.4 10.301-5.5 14.602-6.9 14.398-14.801 28.3-20.4 43.199 6.802-4.801 12.102-11.301 18.102-17 5.7-5.399 11.7-10.399 19.101-13.699-7.101 13.8-16.3 26.1-22.101 42.8 5.898-3.3 8.601-7.101 11.898-10.101 6.802-6.199 12.102-14.199 21-18-1.1 4.5-3.698 8.398-5.898 12.398-5.905 10.806-11.805 21.409-14.205 33.607zm237.699-96c-26.602-33.698-56.5-68.898-83-102.698-3.301-4.2-7.5-6.302-12.301-8-24.5-8.4-49-17-73.5-25.5-12.398-4.302-22.301-2.7-28.602 8.6-.299.602-.6 1.2-.799 1.8 2.898 5.103 16.1 13.9 21.199 15.7 27 9.4 54 18.9 81 28.3 5.1 1.802 10 3.603 13.698 7.802 5.802 6.398 11.7 12.698 17.5 19.101 18.5 20.5 36.899 41 55.302 61.5 1.6 1.8 8.698-4.3 11.198-4.2-.594-.706-.994-1.603-1.695-2.405zm-393.299-15.5c-.602 2.602-.802 5.302-1.7 7.802-.899 2.397-3 2.8-4.601.698-1.601-2.101-2.801-4.5-4-6.898-2.5-4.7-4.699-9.602-7.5-14.102-2-3.301-4.301-3.101-5.801.199-1.101 2.4-1.699 5-2.5 7.603-1.699 5.698-3.199 11.6-5.199 17.198-1.5 4.199-3.5 4.302-6.399.802-2.101-2.603-3.699-5.603-5.8-8.103-4.2-5-7.2-4.699-10.899.9-.7 1.1-1.301 2.3-1.9 3.5-7 15.898-14 31.7-20.898 47.6-1.5 3.4-2.602 6.9-1.102 10.603 4.699-5.4 9.4-10.802 14.102-16.2 3.801-3.602 7.801-7.3 11.801-10.5 1.899-1.5 4.1-2.9 6.3-4.5 2.899-2.102 6-3.9 9.7-1.102.6.699 1.399 1.302 2 2 .5.802 1 1.699 1.699 2.5 4.6 5.899 5.6 5.899 10.1-.198 1.801-2.4 3.201-5.103 4.9-7.5 4.301-5.9 6.2-6.103 11.898-1.2 10.9 9.5 10.9 9.5 13.699-4.7 1.801-9.3 3.9-10.398 13-6.8 5.9 2.3 11.603 5.1 17.5 7.2 5.801 2 7.9.6 9-5.5.9-4.603 1.103-9.2 1.801-13.9.602-4.1-.801-8.6 2.199-12.1 3 .198 3.801 2.198 4.9 3.8 1.898 2.8 3.5 5.7 5.5 8.398 1.898 2.602 3.398 6.802 7 6.399 4-.399 3.698-5 4.6-8 1.801-5.7 3.103-11.6 4.9-17.3 2.398-7.9 4.301-8.4 11.301-3.7 3.6 2.4 6.899 5.3 10.5 7.601 4.6 2.899 6.699 2 7.199-3.398.5-4.602.1-9.3.398-14 .4-7 2.102-7.8 7.802-4.3 3.398 2.1 6.698 4.3 10.101 6.397-6.101-16.6-16.601-30.699-25.4-47-3.398 4.5-2.398 8.301-2.6 11.801-.301 6.302 0 12.699-.5 19-.5 5.302-2.801 6.302-7.4 3.602-3.698-2.2-7.1-5-10.801-7.2-5-2.898-7.199-2.1-8.799 3.4-1.301 4.5-1.701 9.198-2.801 13.698-1.5 6.199-3.4 7-9.199 3.602-3.701-2.2-7.101-4.9-10.9-7-4.6-2.5-6.6-1.3-7.301 4-.3 2-.3 4-.1 6 .398 5.3 1.198 10.6 1.301 15.898.1 3.899-1.101 6.899-6 4.399-1.801-.899-3.601-1.8-5.301.2-2.199 2.6-3.302.5-4.4-1.2-2.5-3.7-4-8.3-8.1-11.399-1.602 2.102-1.4 4.199-1.699 6.102.1 3.5 2.1 7-.101 10.898-4.5-1.698-5.899-5.601-8-8.801-3.5-1.599-6.4-2.099-7.5 2.801z"/><path fill="#524335" d="M1197.217 415.592c-1.8 6.7-2.898 17.101-6.601 22.5-4.602 6.8-7.899 13.8-7.199 22.3.399 4.5 6.8 13.603 10.899 16.2-22.602 19.601-56.802 54.8-78 75.9-5.5 5.5-17.899 1.897-24.602 3.897-2.698-2.5-5.101-11.397-4.101-12.897 27.101-40.103 69.301-91.4 104.7-124.501 1.504-1.299 3.303-2.299 4.904-3.399z"/><path fill="#6D5946" d="M1194.517 414.993c28.602-29.199 68-50.102 106.602-62.5 20.898-6.699 42.1-7.699 63.5-2.301 4.301 1.102 8.699 2.102 9.898 7.801.602 3 4.4 18.898 1.5 19.801-1 .3-2 .5-3 .699-31.5 6.601-59.898 21-87.198 37.898-24.602 12.3-55.802 33.4-81.302 54.8-4 3.303-8 6.603-12 9.9-6.198 3.6-12.698-10.4-13.398-15.5-1.5-10.1-8.5-22.6-.699-31 5.597-6.097 10.597-12.999 16.097-19.598z"/><path fill="none" stroke="#000" stroke-miterlimit="10" stroke-width="6" d="M1459.917 613.891s-15.801 32.5-33.7 51.103c-17.898 18.6-43.8 91.1-43.8 91.1-4.601 6.5-14 46.5-14 46.5s-9.7-.7-16.2-11.7-13.101-57.3-15.101-74.3c-6.899 12 12.2 71 12.2 71-6.102 17-30.5 114.9-47.5 211.7-35.802-61.602-32-223.3-32-223.3s26.8-82.103 23-83.103c-3.802-1-24.7 79.2-24.7 79.2s-12.199 20-19.8 21.101c-7.302-27.801 13-128.198 13-128.198m183.8-20.302s173.301 81.699 186 81c12.699-.698 43-62 108.199-111.801 40.898-26.897 62.801-5.699 73.5 8.103 27.398 32.698 65.898 148.5 68.301 143.397 0 0-3.102-353.699-363.9-393.199 0 0-154.799-37.5-316 100.602-67.898 62.8-77.898 64.3-96.6 99.5-18.699 35.2-59 105.3-54.4 179.398-.1-2.198-.398 21.802-.398 21.802l101.6 64.598s-142-88.3-149-87.6c-7 .698 11.799 28.698 20.399 44.397 8.6 15.7 23.601 43.201 23.601 43.201s11.399 19.8-16.301 10-43.4-13.8-43.4-13.8-1.1 6.899 14.801 21.2c15.899 14.3 44.399 55.8 44.399 55.8s14.5 19.2-10.8 16.1c-28 .4-40.602-2.897-40.602-2.897s-19.398-3.5-4.898 7.397c14.5 10.9 146.199 112.603 200.199 129.103 17.301 4.8 16.101 5.1 19.199-18.4 3.102-23.5 17.102-83.5 16-96.398.399-3.199 3.602-11.802-11.801-31.602s-35.8-40.2-33.3-94.2 67.897-138.8 74-146.698c6.101-7.899 68.2-113 79.601-132.5 11.399-19.5 32.399-54.899 32.399-54.899s3.5-10.8 20.5-5 66.7 22.7 66.7 22.7 16.6 2.897 23.697 10.3c7.103 7.399 134 169.7 134 169.7m303.656 86.704s-22.978 5.904-25.569 33.669c-2.592 27.765-2.2 31.955-8.901 41.205-6.697 9.249-11.832 16.862-11.077 37.65.756 20.79-4.202 31.901-8.489 37.194-4.283 5.294-.251 6.707-.251 6.707s89.478-111.585 88.229-113.759c-1.245-2.173-39.955 20.68-45.688 23.806-5.731 3.126-9.397-4.295-6.569-12.159 2.827-7.863 22.589-55.605 18.315-54.313zm6.355 163.612s-57.938 17.698-59.811 20.175c-1.875 2.479-4.14 4.831-3.874 31.81-.003 14.733-1.074 24.585-1.074 24.585s-1.271 21.563 15.65-11.963c21.616-28.895 53.362-62.312 49.109-64.607zm-544.706-555.62s9-31.101-22.602-31.898c-31.6-.799-119-11.9-266 194.3-6.801 23.3 25.102 16 30.9 9.102m242.503-204.703s-113.5-166.801-274.102-190.399c-3.398 3.7 77.301 83.301 81 87.301s19.699 26.8-16.101 6.899c-35.8-19.899-165.101-58.602-232.2-43-28.6 1.601-6.1 7.2 3.102 10.7 9.398 7.398 87.398 29.898 177.101 129.499 13.2 20.801 0 17-24.899 3.198-24.898-13.8-88-34.697-132-29.8-43.898 1.103-106.898-4.897-108-2.3-1.101 2.601 104.102 23.2 167.699 61.5 21.4 8.7 20.9 18-4.8 13s-101.8-6.6-124.601 10.9c-32.699 12.001-108.699 63.399-116.399 72.399s23-2.6 23-2.6 125-29.103 166-17.603c23.602 3.2 14.5 11.9 4 17.2-10.5 5.303-103.3 47.303-107.399 63.402.101 4.2 85.601-9 108.398.897 22.8 9.9 77.899 11.603 83.102 10.7 5.198-.897 50.698-3.7 50.698-3.7"/></svg>