<svg xmlns="http://www.w3.org/2000/svg" id="hair" viewBox="0 0 3000 3000"><path id="cl1" fill="#453329" d="M1865.03 652.148c-5.3 17.101-13.899 32.301-25.5 46-7.699 9.101-17.6 15.301-28.399 19.9-68.7 29.6-134.5 24.8-196.4-18-33.2-22.9-66.1-46.3-102-64.8-24-12.4-48.8-23-75.6-28.101-6.2-1.199-12.5-2.199-18.8-2.6-23.9-1.3-45.7 4.5-63.5 21.3-29.5 27.601-48.2 61-52.4 101.601-2.1 20.6 1.9 39.8 15.3 56.3 5.9 7.3 10.7 15.3 14.2 24 2 5 3.2 10.1 3.4 15.5.399 10.2-4.101 17.3-13.5 21.1-6.5 2.601-13.101 4.9-19.7 7.3-5.9 2.2-11.8 4.7-17.3 7.801-14.601 8.199-21.2 20.3-19.4 37.3 2.4 21.5 4.3 43.1 6.5 64.6 1.6 16.3 1.8 32.6 1 48.9-.3 6.2.7 14.6-5.3 17.2-6.601 2.8-11-4.801-15-9.2-14.601-16.4-28.7-33.3-43.301-49.8-16.5-18.801-34.5-36.101-55.3-50.301-18.6-12.699-38.8-22-61.1-26.199-9.2-1.7-9.2-2-10.301-11.601-.8-1.5-.699-3.2-.8-4.899-.1-11.301 1.5-13 12.5-11.301 25.7 4 51.101 9.4 76.7 13.7 17.2 2.9 34.4 5.7 51 11.5 4.2 1.5 8.3 1.3 12.1-1.399 1.5-1.2 3.101-1.4 4.801-.601 1.899 1.4 3.5 3.2 4.8 5.2 4 6.3 3 9.4-4.2 10-8.7.7-17.4 2.8-24.9.6 10.9 0 22.2 4.7 35.301 7.601-2.5-8.7-3.601-16.2-9.301-22.101-2.3-2.3-3.8-5.3-5-8.3-1.899-4.399-1.5-7.8 3.4-10.2 3.2-1.6 6.4-3.399 9-6.1 2.4-2.4 8.4-1.9 7.5-6.6-.7-3.801-5.8-3.9-9-5.4-2.1-1-4.2-2-6.1-3.4-5.601-4.5-5-6.5 1.8-10.199 8.4-4.5 16.6-9.4 26.5-13.601-6.8-5.8-14.7-6.899-21-10.899-3-1.9-7.1-3-6.8-7.4.399-4.6 4.1-6.5 8.1-7.7 6.4-1.9 13-2.8 19.5-4.5 2.2-.6 5.2-.6 5.6-3.3.4-2.6-2.1-4-3.899-5.4-8.2-6.3-16.4-12.6-24.101-19.399-2.899-2.601-6.699-4.9-4.699-9.601 1.699-4 5.699-3.399 9.199-3.8 6.4-.6 12.5 1.1 19 2-5.6-8.2-12.899-14.6-19.3-21.7-2-2.3-4.6-4.5-3-8.1 1.601-3.7 4.9-4 8.3-3.9 5.101.2 12.101 4.601 14.9-.2 2.9-5-4.2-9.6-6.7-14.5-2.6-5-5.8-9.699-8.8-14.5-4.1-6.5-3.8-11.899 3.7-15.699 6.1-3 5.8-6.601.8-10.5-10.7-8.301-21.6-16.2-33.9-25.5 7.4 18.1 14.9 34.1 20.9 50.699 1.8 5 3.9 10 4.8 15.2 1.301 7.4-2.399 11.2-9.5 9.3-12-3.3-23.8-7.3-34.399-13.899.1.2 0 .1.1.1 12.3 8.9 23.4 19 33.5 30.2 2.3 2.5 5.6 4.9 3.2 9.2-2.2 3.899-6 3.899-9.5 3.3-10.5-1.6-21.101-3.2-31.101-6 16.7 12.2 31.801 26.6 46.9 41 6.9 6.6 5.9 10.4-2.4 15.3-4.3 2.601-9.1 4-13.6 6.2-6.1 3-6.7 7.2-1.7 11.7 4.7 4.2 9.601 8.2 14.301 12.399 5.699 5 5.3 9.9-2.101 12-8.8 2.601-15.8 11.7-26.5 7.801-2-3.7-5-5.9-8.699-7.9a8134.9 8134.9 0 0 1-111.5-62.7c-4.301-2.399-11-4.5-9-10.8 2.3-7.3 9.199-4.2 14.399-3.3 37.7 6.8 75.2 14.6 112.7 22.2 2.5.5 5.1.8 7.4 3.6-33.2-24.1-64.801-49-96.601-73.6-8.399-6.5-17.3-12.5-25.2-19.601-3-2.7-7.3-5.899-4.699-10.399 2.699-4.7 7.5-3.101 11.6-1.4 32 13.7 64.8 25.7 96.1 41.1 1.2.601-1.199 1.301-.199.4.199-.1 0-.4-.4-.6-4.5-1.7-8.3-4.5-11.4-8.101-19.3-22.6-41.399-42.399-62.1-63.6-6.3-6.5-11.9-13.4-17.7-20.3-2.1-2.5-4-5.101-1.1-8.3 2.7-2.9 5.6-2.4 8.8-1 1.2.5 2.3 1.3 3.4 2 25.1 16.399 50 33.1 74.5 50.3 2 1.399 3.699 3.2 5 4.7-7.7-10.5-11.9-23.2-17.4-35.101-12.3-26.6-24.3-53.399-35.4-80.5-.8-1.8-1.699-3.6-2.1-5.6-.7-3-.8-5.7 2.1-7.8 3.101-2.301 5.5-.5 7.801 1.3 18.1 14.7 36.699 28.8 54.5 43.899 3 2.5 5.5 5.7 10.899 6.9-4.899-18.2-9.699-35.8-14.8-53.2-5.4-18.6-10.2-37.3-15.6-55.8-.9-3.2-1.801-6.4-2.4-9.7-.9-5.6-4.5-12.7 2.9-15.7 6.5-2.6 9.399 4.5 12.8 8.4 14.6 16.9 27.9 34.9 42.2 52 7 8.4 14.1 16.9 20.699 25.6 2.5 3.301 4.601 6.7 5.7 10.7-8.899-24.2-11.899-49.8-17.7-74.7-1.8-7.8-3.5-15.6-4.5-23.5-.6-4.5-3.8-10.6 2.9-12.8 5.8-1.899 8.3 3.8 11.1 7.5 14.2 18.9 28.5 37.8 42.4 56.9 5.5 7.5 11.7 14.5 15.9 22.399-7.5-38.899-12.4-78.6-19.301-118-1-5.699-3.6-13.3 3.5-16.3 7.301-3 9.4 5.2 12.5 9.5 22.5 31 44.5 62.3 66.301 92.9-1.5-22-4.5-44.7-5.101-67.5-.1-3.9-1-8.7 3.5-11.101 5-2.6 7.9 1.7 10.7 4.601 23.9 24.899 48.1 49.6 68.8 77.3-8-9.2-12.3-20.5-17-31.5-5.199-12.3-10.899-24.3-15.3-36.9-1.1-3.1-2.7-6.199-.9-9.6.7-.9 1.5-1.6 2.5-2.1 6.101-1.101 9 3.8 12.2 7.199 17.5 18.301 34.7 36.9 51.601 55.7 24.399 27.3 49.699 53.8 73.8 81.4 2.399 2.8 4.899 5.5 6.2 9-9.2-23.2-17.301-46.9-25.301-70.5-6.399-18.9-12.5-38-19.399-56.7-.8-2.2-1.601-4.4-2.2-6.6-1.1-4.301-2-9.2 3.1-11.301 4.601-1.899 7.101 2.2 9.301 5.5 32.6 46.7 66.6 92.5 100.6 138.2 2.5 3.4 5.1 6.8 6.5 10.9-9.6-23.5-14.6-48.4-22-72.601-5.9-19.1-11.6-38.3-16.8-57.6-.7-2.6-1.601-5.1-1.7-7.8-.1-3.9.6-7.8 4.7-9 3.5-1 5.5 2.1 7.3 4.7 15.4 22.199 29.7 45.1 44.5 67.699 14.4 22 28.6 44.101 43.1 66.601-.5-3.101-1.6-5.5-1.699-8.2-.2-32.6-3.2-65.1-4-97.7-.101-5.3-2.2-12.7 4.699-14.6 6.7-1.9 8.5 5.7 11.101 10 20.399 34.399 41 68.6 61.3 103.1 2.3 3.9 3.6 8.2 4.5 10.101 1.3 3.399 2.2 1.399 1.1 2.1-.1.1-.3 0-.399-.3-3.7-8-2.2-16.7-3.3-25-2.2-17.5-2.9-35.2-4.2-52.7-.5-6.7 3.5-9.6 10.3-7.8 5.5 1.5 10.5 4.3 15.3 7.399 33.9 21.7 52.4 53 57.7 92.601 2.297 16.205 4.998 32.205 1.097 48.404zm-666.899 190.901c-22.4-3.2-44.7-6.5-67.101-9.7-3.1-.4-6.3-1.8-10.399.4 3.899 3.8 8 5.7 12.1 7.8 30.9 15.6 61.7 31.1 92.601 46.7 4.199 2.1 8.399 4.1 11.5 7.8.699-.7 1.399-1.3 2.1-2-8.8-7.8-17.5-15.6-27.2-24.3 9.601-3.4 18.601-.101 26.7-4.101-13.7-5.399-28.3-7.699-44.1-14.1 7.199-3.2 11.899-5.3 16.699-7.4-4.301-.399-8.7-.5-12.9-1.099z"/><path id="hl1" fill="#574134" d="M1623.931 646.848c-.7-12.3-1.4-23.899-2.1-35.399-.2-4-.801-8-.601-11.9.3-4.2 2.5-4.8 6-1.9 1.3 1.101 2.4 2.3 3.4 3.601 12.8 15.8 28.6 28.899 41.399 44.699 2.101 2.601 4.601 7.301 8.4 5.801 4-1.5 2.3-6.5 2.3-10-.1-13.301.801-26.7-1.1-39.9-.3-1.9-.8-4.4 1-5.6 2.7-1.801 4.3.8 5.8 2.399 14 13.9 27.801 27.8 41.801 41.7 2.699 2.7 5.199 7.8 9.399 6.4 5.101-1.7 3.2-7.5 3.101-11.5-.301-12.7 1.699-25.3 2.3-37.9.3-6.3 2.3-7.2 7.3-3.1 10.7 9 21 18.5 31.5 27.7 4.2 3.699 8.4 7.6 12.9 11 5.6 4.199 7.6 3.699 10.399-2.9 4-9.5 7.4-19.3 11.101-28.9 1.399-3.7 2.1-7.7 5.199-10.6 4.7 5.4 17.4 49.2 19.7 69.7-5.399-6.601-9.3-11.5-13.5-16.3-2.5-2.9-4.1-8.5-8.3-7.801-4.5.801-3.5 6.601-4.3 10.2-2.2 9.7-3.801 19.601-6.101 29.4-1.5 6.399-4.199 7-8.699 1.899-11.101-12.399-22.101-24.899-33.2-37.399-1.101-1.2-2.101-2.601-3.2-3.8-1.3-1.4-2.8-3.4-5-2.301-2 1.101-1.7 3.4-1.7 5.4 0 1 .101 2 .2 3 2.7 16.8.1 34 3 50.8.2 1 .1 2 0 3-.1 1.3-.2 2.8-1.5 3.5-1.8 1-3.2-.2-4.3-1.399-5.3-6-10.5-12.101-15.601-18.2-10.199-12.3-20.3-24.7-30.5-37-2.5-3-4.899-6.3-8.399-8-3.601 2-2.4 4.899-2.101 7.3 1.5 14.6.601 29.3.801 44 0 2.6.5 5.4-1.801 7.4-3 .6-4-1.9-5.399-3.601-12.9-15.2-25.8-30.5-38.7-45.8-1.5-1.8-2.8-3.7-4.5-5.3-2.3-2.2-4.5-1.7-4.9 1.5-.5 3.899-.5 8-.5 12-.1 10 0 20-.1 30 0 1.899.1 4.3-2 5.2-2.2.899-3.8-.9-5.1-2.301-9-9.8-17.9-19.699-26.801-29.6-7.8-8.7-15.399-17.5-23.3-26.1-6.7-7.301-9.1-7-14.8.5-.4.5-.7 1.1-1.1 1.6-5.2 7.1-6.4 7.3-11.7.6-13.4-17-26.5-34.3-39.601-51.5-7.3-9.6-14.3-19.3-21.3-29-1.5-2.1-3.2-4.399-4-6.899s1-3.8 3.4-3.101c3 .9 5 3.301 7 5.5a4219.474 4219.474 0 0 1 28.3 31c7.4 8.2 14.5 16.5 21.9 24.7 5.1 5.601 6.899 5.4 10-.8 3.699-7.4 5.5-7.7 11-1.1 11.8 14.1 25.5 26.3 38.199 39.5 2.005 2.103 3.804 4.702 9.005 5.902zm-425.6 199.5c-3.601.5-8.601-1.7-9 4.4-.301 5.1 3.8 6.8 7.899 8 9.101 2.7 18.2 5.1 27.2 5.7-3.1-1.2-6.9-.601-10.5-1-3.7-.4-7.3.199-8.5 4.199-1.3 4.101 1.9 6.5 4.9 8 10.1 5.301 18.8 12.7 28.699 18.301 1.301 3.899-1.899 3.699-4 3.8-8.6.8-17.199 2.3-25.899 2.2-2.4 0-5.3-.9-7.3 2 1 .6 1.8 1.399 2.699 1.6 15.7 4.6 31.301 9.3 47 13.8 1.601.5 3.2.8 4.9 1 3.2.2 4.4-1.399 3.3-4.3-1.1-2.8-2.6-5.4-4-8-4.2-7.6-8.6-15-12.7-22.7-3.8-7.2-2.8-9.8 4.4-13.399 4.5-2.2 9.3-3.801 13.7-6.101 3-1.6 8.3-1.5 8.1-6-.2-3.6-4.899-3.899-7.8-5.3-4.2-1.9-8.6-3.5-12.9-5.4-1.8-.8-4-1.6-3.899-4 .1-2.3 2.3-3.1 4.1-3.899 3.4-1.5 6.8-2.8 10.2-4.2 5.899-2.4 11.8-4.7 17.5-7.3 3.399-1.5 3.6-3.8.3-5.9-2-1.2-4.1-2.3-6.2-3.2-6.3-3-12.699-5.8-19.1-8.8-1.5-.7-3-1.7-2.5-3.8.4-1.4 1.8-2 3-2.3 8.4-2 16.9-3.8 25.3-5.9 3.4-.8 7.4-.5 10.2-4.5-12-12.3-27.6-20.4-39.9-33.9 11.601-3.5 21.601 2.801 32.5.4-7.3-12.2-18.1-20.6-27.5-32.8 9.4.2 16.101 1.9 22.9 3 2.3.3 4.9 1.2 6.5-1 1.7-2.3-.1-4.5-1.3-6.4-5.7-9-11.601-17.899-17.2-27-7.2-11.5-6.9-12.2 5.2-17 .6-.2 1.3-.399 1.899-.7 6.801-3.1 7.2-5 1.301-9.5-15.7-11.899-31.4-23.6-47.301-35.3-2-1.399-3.899-3.899-7.3-1.899-.2 4.8 2.4 8.8 4.2 13 7 16.6 14.5 33 20.5 49.899 1.6 4.601 6.1 10.2 2.6 14-4.2 4.601-9.8-.5-14.6-2.1-11.7-3.9-22.5-10.2-34.801-12.2 3.801 4.1 7.4 8.5 11.5 12.4 8.9 8.5 18 16.7 26.9 25.2 1.8 1.699 4.5 3.199 3.5 7.5-7.5-.101-14.8-2.2-22.2-3.2-7.199-.9-14.199-4.3-23.199-1.601 5.3 4.601 9.6 8.301 13.8 11.9 13 11.4 26.1 22.6 38.9 34.2 6.1 5.6 5.5 8.1-1.7 11.7-2.101 1-4.3 1.8-6.4 2.699-4.899 2.101-9.899 3.9-14.6 6.4-4.2 2.2-4.3 4.2-1 7.7 1.3 1.5 2.899 2.7 4.399 4 5.5 4.8 11.2 9.399 16.5 14.399 4 3.9 3.601 5.801-1.699 7.9-6.2 2.5-12.5 4.4-18.801 6.6-3.3.801-6.5 1.601-9.8 2.4-4.297 1.403-8.698 1.703-12.897 2.302z"/><path id="sd1" fill="#372921" d="M1236.831 895.949c-35.801-7.5-71.801-13.4-107.801-20-10.8-2-21.5-4.2-32.3-6-11.399-1.9-12.3-1.101-14 10.399-3.1-12.399-2.399-25.2-3-37.8-2.7-66.4.2-132.6 13.3-197.9 7.9-39 18.7-77.399 38.7-112 53.101-91.699 130.5-149.699 236.5-166.5 23.7-3.8 47.601-6.1 71.601-6.699 19-.5 37.899-1.2 56.899-1.5 56-.801 110 9.5 162.3 29.3 54.601 20.6 105.601 47.6 151.301 84.2 14.6 11.699 28.199 24.399 39.899 39 12.601 15.6 21.3 32.8 23.7 53 3.6 30.199 2.4 59.8-9 88.399-3.7-25.7-4.6-51.8-13.3-76.6-9.101-26.2-25.9-46.2-49.601-60.601-2.3-1.399-4.6-2.699-7-3.8-6.6-2.8-8.699-1.7-8.399 5.5.8 15 2 29.9 3.1 44.8.8 10.301 1.9 20.601 2.8 30.801.2 2.3.4 4.6-1.6 8.3-14.1-21.601-25.8-43.4-38.6-64.5-12.801-21.3-25.5-42.7-38.4-64.3-3.9 2.899-3.1 6.1-2.9 8.8.9 19.3 1.601 38.6 3 57.8 1.301 17.3.2 34.6 2.601 51.8.3 1.9.3 4-2.8 6.101-17-22.7-31.4-47.4-47.101-71-15.8-23.801-31.2-47.801-47.8-71.101 1.9 17.3 7.9 33.4 12.5 49.8 4.6 16.7 9.5 33.301 14.3 50 4.7 16.5 9.4 33.101 12.8 50.2-42-51.2-80.1-105-119.6-158.1 15.1 49.6 32.8 98.3 48.8 147.6-.6.3-1.3.601-1.899.9-7.5-7.9-15.101-15.601-22.5-23.601-19.101-20.899-38.101-41.8-57.2-62.699-17.9-19.7-35.8-39.4-53.7-59.2-4.3-4.7-8.5-9.3-13.7-13.101 4 16.7 12.301 31.601 18.801 47.301 5.3 12.899 11.5 25.399 17.399 38.3-3 1.399-3.6-1.101-4.699-2.3-17.101-18.601-34.2-37.301-51.2-56.101-7.601-8.399-14.7-17.2-23.101-24.899-1.399-1.301-2.899-3.2-5.1-2.2-2.1 1-2.1 3.3-2 5.3.8 12 1.8 23.9 2.7 35.9.899 11 2.1 21.899 2.899 32.8.2 3.1 1.2 6.6-2.5 10.3-26.699-36.1-51.5-73.2-79.1-108.5-2.3 9.7 1 18.5 2.1 27.5 1.301 9.6 3.101 19.1 4.7 28.6 1.5 9.2 2.8 18.4 4.3 27.7 1.5 9.5 3 19.101 4.601 28.601 1.5 9 3.399 17.899 3.5 27-.8.3-1.5.6-2.3.899-23.2-31-46.301-62-69.5-93-.601.3-1.301.601-1.9.8 2.1 19 7.1 37.5 10.8 56.2 3.601 18.5 8.101 36.9 11.3 55.8-28.5-32.3-54.699-66.399-82.8-100.1-3.2 5.5-1.1 9.3-.2 12.9 6.9 25.1 13.9 50.1 20.9 75.1 4.3 15.4 8.9 30.7 13.3 46.1.601 2.2 1.8 4.4.101 7.2-4.301.5-6.9-2.8-9.9-5.2l-61.5-49.5c-1.5-1.199-2.6-3.1-6.4-2.8 18.601 44.101 37.4 87.601 58.301 130.601-17.301-7.601-31.7-19.801-47.301-29.9-15.5-10-30.6-20.6-46.6-30 13.5 19.8 31.3 35.4 47.9 52 16.6 16.6 31.899 34.5 48.899 51.1-10-1.6-18.6-6.399-27.6-10-9.3-3.8-18.5-7.7-27.7-11.5s-18.5-7.5-27.7-11.399c-9.1-3.9-17.899-8.4-28-9.801 42.9 35.101 87.101 68.301 132.4 103.301-7.2 1-12.3-.5-17.3-1.5-35.601-7-71.2-14.2-106.9-21.2-5.1-1-10.2-2.3-16.1-.2 5 3 10 6 15.1 8.9 34 19.1 68 38.1 102 57.199 3.4 1.9 7.6 3.301 7.2 8.5.6 5.801-4.101 6.301-7.8 7.9-5.101 1.7-10.2 3.3-14.601-1.8-.8-.9-2.399-1.3-4.3-1.2-15.1.3-29.8-3.9-44.8-5.2-5.9-.5-11.101-3.2-16.9-3.899-1.3-.2.5 1.699.2.399-.1-.6.2-.899.7-.7 2.199 1.301 4.6 1.7 6.899 2.9 27.801 13.6 55.9 26.4 82.2 42.9 2.1 1.3 4.3 2.8 6.8 2.7 8.202-.2 9.202 4.3 7.902 10.5z"/><path fill="none" stroke="#000" stroke-miterlimit="10" stroke-width="6" d="M1874.631 569.249c8.399 74-23.101 154-103.8 162.3-60.101 13.6-106.601 1.8-156.101-31.4s-118-72.8-160.2-88.8c-37.199-13.8-71.199-2.4-86.399 4.5s-50.5 31.5-62 90.1c-11.5 58.601 6.899 55.4 22.3 94.301 15.4 38.899.1 40.3-31.5 53.5-31.6 13.199-31.7 38.199-31.4 43 .301 4.8 7.9 101.8 7.5 113.6-.399 11.8-2 35.6-20.3 8-44.3-56.3-94.399-111-168.399-130.1-12.7-112.301-9.301-321 105-431.801 114.3-110.8 271.699-98.399 271.699-98.399 292-4.9 406.101 174.899 406.101 174.899l7.499 36.3z"/></svg>