<svg xmlns="http://www.w3.org/2000/svg" id="hair" viewBox="0 0 3000 3000"><path id="cl1" fill="#F3D322" d="M1839.075 846.873c-8 22.8-16 45.6-24.1 68.399-1 1.2-.6 3-1.6 4.2.1.6-.1 1.2-.5 1.7-6.1-1.3-3.701-6.4-3.5-9.601 1.5-31.199 2.5-62.5 1.1-93.699-1-20.5-4.199-41-11.1-60.7-13-36.8-25.9-73.8-47-106.7-17.9-28-38-54.7-64.6-75.5-6.301-4.9-13.4-8.7-21.301-13.1 2.801 6.199 6.4 11.399 5.4 17.8-1.1 6.899-6.5 10.7-10.9 15.1-14.5 14.7-29.1 29.4-43.801 43.8-8.398 8.2-14.199 8.7-23.799 1.801-21.801-15.5-45.4-27.801-68.9-40.301-7-3.699-14.6-6.5-18.801-14.8-11 12.5-19 26-29 37.9-22.2 26.6-42.8 54.3-60.6 84.1-19.101 31.9-30.7 66.101-34.9 103.2-3.7 33.1-5.5 66.2-6.1 99.5-.601 30.6-2.9 61.1-2.801 91.7-.6 2.1 1.601 5.6-3 5.7-10.5-44.801-21-89.7-31.399-134.601-.801-3.6-1.301-7.2-.801-10.899.5-3.7-.899-6.5-3.8-8.601-4.2-3.3-4.399-7.899-4-12.7 1.8-23.199 3.2-46.5 3.4-69.699.1-13.101 2.899-25.801 3.6-34.601-2.899 21.101-11.7 44.9-17.3 69.5-8.7 38.3-19.4 76.2-22.4 115.5-1.5 19.8-1.699 39.8-1.399 59.7.399 25.6 3.1 51.2.3 76.7-.5 4.7 2.3 9.2 0 13.7-.1 1.3-.2 2.5-.3 3.8-1.5 1.1.2 5.1-3.7 4-9.3-44.9-18.7-89.8-28-134.7-4.4-21.1-8.8-42.3-13.3-63.4-1.101-5.199-2.101-10.5-6.7-14-6.6-5.399-4.9-13-3.9-19.6 1.5-10.6 1.101-21.3 1.4-31.9.8-25.199 2.2-50.5 3.5-75.699-.8 13.1-6.4 24.8-10.7 36.899-10.3 28.9-19.8 58-25.6 88.101-4.8 24.399-2.8 49.199-1.601 73.699 1.101 22.2 3 44.4 4.9 66.601 2.5 28.5 6.6 56.899 4.8 85.6-.199 3.5 3.601 8.8-3.1 10.601-9.5-8.7-16-19.5-22.2-30.601-20.1-36-45.3-80.899-56.899-120.2-5.9-19.8-12.2-39.5-14.9-60-5-36.8 4.5-81.3 12.8-117.199 9.101-39.2 31-75.101 52-109.5.5-.801 1.301-1.4 2-2.101 11.2-8.7 21.601-4.399 32.7-13.3 11-8.7 22.8-16.1 34.1-24.4 3.7-2.699 8.7-5.6 12.5-1 3.4 4 .2 8.301-2.6 11.601s-5.2 7-8.2 10.1c-7.1 7.5-14 15.2-20.199 23.1 15.899-9.8 30.899-21.3 47.1-31 4.9-2.899 10.7-8.699 16.2-3.699 6.1 5.6.3 11.8-2.9 16.899-4 6.5-7.4 13.5-12.8 19.2 11.5-5.8 21.5-13.7 32.5-19.9 3.199-1.8 6.3-3.699 9.8-5 3.5-1.3 7.3-2.399 10.1 1.101 2.601 3.3 1.7 7-.199 10.3-4.101 7.3-9.4 13.7-16.301 19.6 13.101-9.699 26.4-17.699 40.4-24.8 1.8-.899 3.7-1.6 5.6-2.2 3.301-1 6.7-1.6 9.4 1.2 3 3.2 1.8 6.9.3 10.3-2.1 4.601-5.199 8.5-8.5 12.301-4.3 5-8.8 9.899-12.6 14.8 9.2-7.3 20.4-12.2 30.9-18.3 3.899-2.301 8.8-5.301 12.8-1.101s.899 9-1.7 12.7c-6.8 9.8-12.9 20.2-21 29-.4.4-.8.9-1.2 1.4.4-.5.8-.9 1.2-1.4 9.6-12.6 23-21.1 34.9-31.1 1.8-1.5 4.6-2.5 5-4.7 3.199-16.7 18.3-25.9 24.899-40.5-5.3 1.5-9 6-13.8 8.399-3.4 1.7-7 3.101-10.3.5-3.9-3-2.601-7.1-1.5-11 1.5-5.399 6.3-9.1 8.399-16.1-12.699 5.2-24 9.9-35.1 14.9-6.1 2.7-12.3 5-18.6 7.1-4.5 1.5-9.5 2.5-12.801-2.2-3.399-5-1-9.6 2.4-13.6 3.6-4.4 7.6-8.5 12.1-11.9 5-3.8 9.5-8.2 14-12.6-15.3 5.3-28.3 15-43.399 20.3-4 1.4-8.9 4.3-11.9-.2-3.1-4.7.7-9.1 4.2-12.1 8.5-7.5 16.5-15.5 25.5-24.6-11.1 5.8-21.8 9.1-31.1 15.399-1.7 1.101-3.5 1.9-5.4 2.5-3.2 1-6.8 2.2-9.2-1-2.399-3.1-.8-6.6 1.2-9.2 7.2-9.3 15.7-17.1 25.7-23.399 2-1.2 3.899-2.5 4.699-2.8-23.8 14.399-50.899 25.3-77.399 37.5-7.601 3.5-14.601 7.899-20.9 13.399-3.3 2.9-6.6-6.6-11.6-11.2 2.6-5.199 7.3-8.6 11.3-12.5 20.8-20.8 43.5-39.3 68.7-54.5 61.8-37.1 124-37.899 186.699-2.199 27.1 15.399 51.1 35 73.1 57 10.301 10.3 12.301 10.199 20.201-1.801 11.898-18.1 24.5-35.699 39.199-51.699 12.5-13.601 26.301-25.5 42.301-34.7 22.199-12.7 45.199-16.101 70.1-7.601 45.799 15.601 81.799 39.7 117.799 71.9 8.301 15.8 23.5 38.9 29.602 53.8-7.4 3.4-8.5-3-10.801-6.6 4.5 9.3 9.1 19.2 11.9 29.899 1 3.801 2.199 8.5-2 10.9-4.201 2.4-7.5-.9-10.5-3.6-6.801-6.301-13.201-13.101-21-20.7.9 7.899 2.199 14.6 1.799 21.3-.299 4.3.201 9.5-4.6 11.2-5.199 1.899-8.799-2.2-11.6-5.9-7.9-10.7-16.301-21-21-31.899 2.9 4.199 5.1 10.3 5.6 17 .301 3.399.6 7.1-3 8.8-3.5 1.7-6.799-.3-8.9-2.8-8.398-9.801-18-18.5-25.398-29.101 5.5 8.101 7.6 17.601 10.398 26.8.9 3.2 1.4 7.101-2 9-3.299 1.801-6.5-.399-9-2.699-6.398-5.801-10.699-13.5-17.898-19.601.6 8.5 3.398 15.601 7.898 22.101 8.301 12.1 15.602 24.8 22.102 37.899 3.699 7.5 6.799 15.2 7.398 23.601-1-10.101-1.299-20.2-2.1-30.301-.299-4.1.4-8.5 4.9-10 5.1-1.699 8.1 2.101 10.301 6 5.199 9.2 9.6 19 16.1 28.5 1.199-6.1.799-12.899 8.4-14.3 7.1-1.3 15.299 4.8 22.799 17.2-2-7.4-3.299-14.6-2.4-22 .4-3.4 1.5-6.7 5.102-7.9 4.1-1.399 7.199.801 9.398 3.9 5 6.7 9.102 13.9 11.602 21-.301-5-4.9-12.6 2.699-15.8 6.801-2.9 10.199 4.2 13.699 9 2.301 3.1 4.301 7.1 9.5 5.2 4.102 13.399 5.602 27.3 7.5 41.1 7.9 54.9 8.102 110.1 5 165.4-1.5 26.6-3.299 53.199-6.799 79.6-7.6-1.3-7.6-8-7.801-13.1-1.9-57.2-13.5-113.4-16.1-170.5-.1-2.9-.301-5.9-2.199-9.301-.201-.399-1 1.4.1.601.299-.2.6 0 .699.7 3 17.699 3.301 35.6 3.9 53.5.4 10.899-.199 21.899 1.5 32.8 1 6.5 1.5 13.5-5.801 17.6-3.398 2.3-3.898 5.9-4.699 9.5-6.5 29.5-13 59-19.6 88.5-.6 2.6-1.4 5.1-2 7.7-7.701-1.4-6.5-7.9-6-12.6 2.1-21.601 2.199-43.2 1.6-64.801-1.301-42.6-5.301-84.899-15.801-126.3-5.299-21-13-41.2-21.898-59.1 3.898 27 7.398 55.8 10.5 84.7.203 6.003-.297 11.602-4.797 16.003zm2.1-307.401c-61.398-79-139.398-134.7-234.299-166.601-27.801-9.3-56.201-16.699-85.5-19.699-3.801-2.101-8.301.399-12.1-1.601-1.9-.2-3.801-.3-5.701-.5-2.2-.899-5-1.7-6.1.7-1.199 2.5 1.4 4.1 3.4 5.2 2.601 1.5 5.401 2.5 8.7 1.399.201 0-.199.101.1.101-7.7.7-15.599 1.2-23.5 2.399-14.1 2.101-28.2 4.801-42.3 6.801-3.8.5-8.8 2.199-8.3 7 .399 4.1 5.1 4.6 8.8 4.8.7 0 1.3.1 2 .1 32.3 1.3 64.7 4.4 93 2-5.201.7-14.5.4-23.801 1.5-11.1 1.3-22.7.2-32.9 6.2-1.6 1.7-2.6 3.7-1.899 6.2 1.8 2.8 4.6 3.5 7.699 4 23.301 3.399 47.2.8 70.301 6.899-14-3.1-27.701.801-41.602 1-4.199.101-8.6 1.2-12.6 2.9-1.8.7-3.601 2-3.399 4.4.199 1.8 1.699 2.8 3.101 3.6 1.799 1 3.799 1.1 5.799 1.4 14.4 2.699 29 3.3 43.5 5.5 15.701 2.399 31.4 4.899 44.6 5.699-13.699 1.5-29.5 6.5-45.6 10.301-2.6.6-5.1 1.699-7.199 3.3-3.701 2.899-3 5.5.9 7.7 2.1 1.199 4.5 1.3 6.799 1.3 19.9.399 39.9-.4 59.801 1.1-6.1.3-12.4-.1-18.4 1.5-3.1.8-7.1 2.2-7.199 6-.102 4.101 3.799 5 7.1 5.601 17.799 3.5 36.1 3.3 51.5 6.899-12.5 1.5-26.801 6-41.4 9.4-3.699.899-8.5 2.5-8 7.5.6 5.5 5.6 5.8 10 6 4 .2 8 .1 12 .2 5.5.1 11.199-.4 18.6.899-8.9 3.5-15.799 6.101-22.799 8-18.602 5.101-32.4 14.8-37.602 34.601-1.799 6.8-6.199 5.399-10.799 2.3-14.4-9.601-29.301-18.601-42.701-29.5-16.1-13.101-34.7-19.4-55.099-20.8-28.7-2-57.4-2.9-86.9-2 11.8-4.2 23.2-6.7 34.5-9.7 15.7-4.2 31.9-6.7 47.5-11.7 3.2-1 6.9-2.1 6.2-6.5-.5-3.8-3.7-5.5-7.2-5.9-6.899-.699-13.7-2.5-20.8-2.5-19.3 0-38.6-.3-57.8 2.2-20 2.601-40.101 4-60.2 6.9 9.6-6.3 19.1-12.5 28.4-18.9 3.399-2.3 7.3-5 5.3-9.5-1.7-3.899-6.101-3.399-9.8-2.7-30.301 5.9-60.9 10.7-90.601 19.5-2.2.301-3.899 1.801-6.1 2.4-.601.2-1.2.4-2 .5-.2 0-.4 0-.7.1h.1c.9-.1 1.9-.399 2.9-.699 20.2-6.801 38.6-17.7 57.7-26.9 8.7-4.2 18-7.1 26.1-12.4 2.7-1.8 6-4 4.4-7.899-1.3-3.101-4.8-3.5-7.8-3.101-9.601 1.101-19 2.801-28.101 6.2-.5.2-1 .3-1.399.4 1-.3 2-.3 2.899-.7 12.7-5.1 24.7-11.6 35.8-19.4 8.101-5.699 7.301-11.3-1.5-15.6-8.899-4.3-18.1-6.4-28-4.2-1.3.3-2.6.4-3.899.9-31.8 11.7-62.4 26.1-91.2 44.1-15.4 9.7-31.1 19-44.7 31.3 1.101 2.4 3.2 3.2 5.5 3.801 10.7 2.699 10.7 2.699 4.801 11.899-9.801 15.101-21.5 28.8-32.2 43.3-3.5 4.801-8.5 10.301-3.9 16.101 4.801 6.1 10.9 1.7 16.301-.8 1.5-.7 2.899-1.7 4.5-2.2 8.199-2.8 15.1-9 26.899-10.3-7.3 8.1-11.6 15.5-18.5 20.8-6.899 5.3-12.7 11.7-19.5 17.1-3.6 2.9-7.6 7-4.3 11.9 3 4.5 7.8 2 11.8.399 5.2-2.199 10.2-5 15.101-7.699 12.5-6.9 24.899-14 37.8-20.5-7.601 8.399-16.101 15.399-24 23-3.601 3.399-8.3 7.6-4.9 12.8 3.8 5.899 9.5 2.2 14.4.399.899-.3 1.8-.899 2.7-1.199 11.1-4.301 21.199-10.9 32.3-15.2-6.8 8.8-14.3 16.8-22 24.7-3.2 3.399-7 6.199-9.9 9.8-2.3 2.8-5.3 6-3.1 9.7 2.5 4.3 7 2.8 10.899 2 2-.4 3.801-1.301 5.601-2.101 9.7-4.2 19.899-7.3 29.6-11.399 4-1.9 6.7-5.301 10-8.101 14.9-12.8 30.5-24.7 47.4-35 32.8-19.899 67.899-32.2 106.8-31.3 29.9.7 57.7 9.2 84.1 22.8 29 14.9 54.5 34.5 78.1 56.9 2.6 2.399 4.5 5.8 8.801 6.7 1.9-2.601 3.799-5.301 5.6-8.101 9.801-14.3 19.9-28.3 31.5-41.3 13.4-15 28.199-28.3 45.5-38.7 26.6-16 54.5-20.8 84.199-9.6 9 3.399 18.102 6.7 27 10.5 22.201 9.399 42.602 21.899 62.602 35.3.898.4 1.6 1.1 2.299 1.7 2.1.5 2.701-.4 2.301-2.3-.1-.601-.4-1.101-.9-1.5.097-1.098-.403-1.797-1.204-2.198zm-807.899 223.8c11.199-22.6 22.8-45.1 35.6-67 1.7-2.899 2.9-6.5 8.1-7.899-.3 33 3.2 64.8 6.4 96.8 7.6-17 11.8-35.101 20.7-51.3 3.7 34.699 4.899 69.199 8.3 105.199 4.3-4.399 3.6-9.3 7-11.8.7-3.3 1.5-6.5 2-9.8 11.8-75.6 42.7-142.2 93.4-199.5 9.899-11.2 20.399-21.8 30.6-32.7-1.8-1.899-3.6-.8-5.4 0-15 6.4-29.699 13.3-44 21-16.399 8.9-31.8 19.3-44.8 30.5 10.9-14.5 20.2-31.899 32.5-47.2 1.7-2.1 3-4.5 3.2-7.199.5-5.301-2.1-7.5-7.2-6.301-3.6.801-6.899 2.9-9.6 5.2-16.601 14.3-34.101 27.601-46.5 40.101 9.3-11.9 20.6-27.801 32.1-43.601 2.3-3.2 4.7-7.399 1-10.8-3.2-3-6.899-.3-10 1.6-2 1.2-4 2.4-5.8 3.9-16.8 13.5-31.9 28.7-45.9 45.1 5.7-6.6 9.301-14.5 14.5-21.5 10.301-13.899 19.5-28.6 31.101-41.5 2.8-3.1 6.1-7.5 2.199-11.399-3.5-3.5-7.399-.2-10.699 2-7.4 4.7-12.601 11.8-19.2 17.399-11.5 9.7-21.6 21.2-35.5 28.801-.3-4.301 1.9-6.5 3.3-9.101 7-12.2 17.3-21.899 25.7-33 5.8-7.7 12.9-14.3 19.1-21.7 1.9-2.199 3.801-5.3 1.5-8.1-2.3-2.9-5.5-1.5-8.199-.1-2.301 1.3-4.7 2.5-6.9 4-15.9 10.199-32.6 19.199-46.9 31.699-16 19.7-29 41.301-39.899 64.301 1.199 48 1.699 96 4.199 144 1.397 1.1 2.697 1.1 3.998-.1zM986.68 1072.14c2.7-1.3 5.7-2.8 5.7-6.199 0-3.5-3-5.2-5.8-6-7.101-2-14.101-4.301-21.7-4.301 2.3-1.199 4-2.699 4.2-5.3-2.4-8.4-9.9-7.5-15.3-8.8 7.1.199 15.3 4.8 22.699-1.9.7-9.6-8.6-9.2-13.1-13.5 6.2-2.2 16 1.6 19-5 3.4-7.5 8.1-6.2 13.3-6 4.5.2 8.3-2 12.5-2.4 8.2.801 16.3 1.5 24.5 2.301 2.4.199 4.7.6 5.7-2.301-4-12.399-12.9-18.6-25.5-20.199-1.6-.2-3.2-.801-4.8-1.2-24.2-5.8-45.8-1.601-65.2 14.7-17.7 14.8-33.5 31.1-48.5 48.5-12.4 14.399-18.1 31.399-20.2 49.899.4 4.601 2.3 5.2 6.5 3.4 15.7-6.8 31.5-13.5 47.5-19.6 8.5-3.301 16.7-8.101 26.4-7.5 10.702-2.299 21.901-3.6 32.101-8.6z"/><path id="sd1" fill="#BC9121" d="M1503.575 350.972c-.899.9-2.7.2-3.299 2 6.299 1.5 12.6 3 18.799 4.4 1.4 1.199 1.301 2.5 0 3.699-27 3.101-53.7 7.9-80.4 13.601 2.7.2 5.5.399 8.2.5 36.2 1.2 72.299 3.899 110.1 4.2-8.4 5.199-16.801 3.399-24.301 5.1-8.1 1.8-16.4 2.3-24.699 3.4-8.2 1.1-16.4 2.199-24.7 3.399-2.4 1.8-5.4 1.7-6.9 2.101 1-.301 3.2-.301 5 1.6 17.3.3 34.5 2.1 51.901 2.7 11.898.399 23.398 4.2 34.898 8.2-20.898 4.8-42.398 4-63.299 8.3 36.1 4.1 72.1 9.399 108 14.6v2.3c-22.201 5.4-44.301 10.801-66.5 16.2 0 .601.1 1.3.1 1.9 26.9-.101 53.9-1 80.6 3.8-11.801 4.6-24.699 5-38.301 8.9 12.602 4 24.201 3.6 35.4 4.699 11.701 1.101 22.801 4.301 34.4 8.601-19.9 4.899-39.699 9.899-59.6 14.8.1.7.1 1.4.199 2.1 16.6 2.7 34-1.199 51.4 4.601-3.9 3.8-8.1 4.7-12 6.2-11.301 4.1-22.5 8.199-33.9 12-9.299 3.1-16.699 7.899-19.6 18.1-1.5 5.1-3.9 9.9-5.801 14.9-2.799 7.399-3.199 7.699-9.5 3.5-16.1-10.7-32.898-20.5-47.799-32.801-18.1-15-39.1-20-61.901-21.6-28.3-1.9-56.6-1.4-84.899-1.9-2.8 0-6 .9-8.601-2.1 2.801-4 7.101-4.6 11.101-5.9 27.899-9.1 56.7-14.699 85.2-21.699 1.5-.4 3.399.1 4.5-3.2-9.301-1.101-18.301-2.7-27.4-3-21.3-.9-42.5 1.2-63.7 3.3-22.1 2.3-44.2 5.1-67.6 7.7 4.2-6.2 10.1-8.4 14.899-11.9 5.4-3.899 11.101-7.399 16.7-11.1 5.2-3.4 10.3-6.8 14.8-11.8-14.6 2.899-29.199 5.8-43.699 8.699l-55.801 11.101c-1.8 1.6-4.399.1-6.1 1.7-1.3.1-2.6.199-3.9.399-2.1.7-2.5-.2-2-2.1.5-.101 1.101-.2 1.7-.3.8-.5 1.5-1.101 2.2-1.801 29.6-15 59.4-29.8 89-45.6-14.6 2.4-29.2 4.9-43.8 7.3 16.399-11.899 35.1-19.899 52.8-32.899-12.3-4.7-23-8.9-34.3-11.101 22.1-8.7 45-14 68.399-17.5 38.601-5.8 77.5-6.3 116.5-4.1 2.404.401 5.105.301 7.504 1.801zm-495.295 654.733c-.9.399-1.8.8-2.6 1.399-.801.601-1.601 1.2-2.301 1.9-5.5 9-3.3 14.4 6.601 15.7 4 .5 8.1.1 11.3.1 1.1 6.8-14.5 9-3.7 17.8-3.8.9-7.5 2.101-9.399 6.2-.4 1.5-.301 2.9.3 4.3 4.399 6.4 11.8 5.2 17.899 7.4-3.199.6-6.3 1.8-9.3 3.1-2.8 1.2-5.899 2.801-5.8 6.2.1 3.9 3.5 5.5 6.8 6.4 5.601 1.5 11.4.5 16.7 1-1.6.399-3.7-.3-5.6.399-3.9 1.4-8 3.101-8 7.801 0 4.5 4.399 5.5 7.699 6.6 5.5 1.9 11.301 2.7 17.5 4-4.3 2.2-9.8 3.1-8.899 8.7.7 4.5 5.3 5.3 9.3 6.399 3.4 1 7.3.7 10 3.301 0 2.1-1.4 3.199-2.6 4.399-2.7 2.9-6.7 5.601-4.601 10.101 2 4.1 6.601 4 10.601 4.1 7.199.2 14.3.1 21.399 0-11.3 7.3-22.399 14.9-33.5 22.3 2.3-4.5 7.5-9.3 3.5-14.399-4.3-5.601-10.399-2-15.6 0-6.9 2.5-13.601 5.399-21 8 5.3-6.5 9.8-13 14.6-19.301 2.5-3.199 4.8-7 2-11-2.7-3.8-7-3.199-11-2.199-6.7 1.6-13.3 3.699-20.3 5.6 2.3-3.8 5.7-6.1 8.2-9.1 2.399-2.9 5.1-5.9 3.3-9.801-2-4.3-6.5-4.5-10.5-3.899-6.2 1-12.5 1.3-20.3 2.8 6.1-4.2 10.899-7.7 14.5-12.4 5.3-7 3.2-12.699-5.5-14.6-3.601-.8-7.3-.6-11-.5-8.7.1-17.3.2-25.7-2.1-10.6-.2-19.7 5-29.4 8.199-17.199 5.801-33.1 14.9-50.6 19.801-3.3 10.699-1.758 25.849-3.559 37.349 3.2-.3 4.7-1.7 6.301-2.8 9.899-6.801 19.699-13.7 29.699-20.2 10.301-6.7 19.891-14.094 31.591-18.294 6.399-2.2 9.54-4.408 16.24-4.408 3.4 0 8.198.691 9.298 4.691 1.101 3.8.13 3.962-2.771 5.962-2.7 1.899-5.5 3.7-8.3 5.5-16.2 10.3-29.7 23.399-40.3 39.6-11.9 18.101-17.791 42.247-27.69 61.547-.5 1-1.7 2.2-.3 3.8 3.3-.399 5.6-2.899 8.3-4.6 19.899-12.8 35.277-25.321 56.377-36.121 11.9-6.1 24.713-10.426 37.313-11.126 2.399-.2 8.505 1.521 9.606 3.921 1.1 2.399.3 4.6-1.4 6.399-1.2 1.2-2.4 2.301-3.6 3.4-10.7 10-20.104 21.795-30.503 32.095-18.7 18.5-36.459 39.595-49.959 62.595-.5 2.1.5 2.7 2.4 2.399 5.2-3.699 10.444-7.835 15.543-11.636 16.9-12.399 31.079-25.199 49.878-34.799 16.2-8.301 29.633-17.274 48.234-16.674 18.3.6 36.6-.3 54.8-2.6 21.8-2.801 43.399-6.2 63.899-14.9 16.601-7 20.238-13.135 25.679-29.772 1.694-5.182 6.521-13.128.821-15.928-15.601-7.7-34.675-23.276-47.975-34.576-27.6-23.5-48.725-50.724-71.425-78.523-5.5-6.8-8.4-15.101-12.4-22.8-.3-.5-.899-.9-1.399-1.301-9.697-1.9-19.297-4.501-29.397-2.9zm107.195-182.332c.601-8.7-1.699-17.101-2.1-25.801-.7-19.5-1.7-39.1-4.1-58.5-.4-3.399-1-7.1-4.801-7.899-3.8-.8-6.3 2.3-7.5 5.399-4.6 11.9-10.199 23.5-11.699 33-.601-21.899-4.101-47-3.801-72.199.101-4.4-.1-9.4-5.1-10.9-5.4-1.6-8.6 2.7-11 6.7-11.4 19.899-23.1 39.6-32 60.899 0 .101-.1-.3-.2-.1 1.7-12-2.2-24-1.5-36.3 1.601-29.101-2.2-58.101-2.1-87.2 0-4.2.2-8.8-4.4-11.3-3.2 6.5-6.6 13-9.7 19.6-18.5 39-28.5 80.2-30.199 123.3-1.4 36.4-.2 72.601 6.1 108.5 6 34.4 12.6 68.801 25.8 101.4.8 2 .601 4.8 4.4 5.3-1.101-16.399 2.399-31.8 9.5-46.399 10.7-22.2 26.3-36.4 52.6-35.801 9 .2 18 0 26.9 1.2 8.6 1.2 9.2.9 8.3-8.2-1.8-16.699-.7-33.3.4-49.899.199-3.601.199-7.3.199-10.9-1.499-1.201-4.099-1.1-3.999-3.9zm257.601 177.8c.7-14 1.3-27.9 2.1-41.9 2.8-51.9 8.8-103.5 20.2-154.3 9.5-42.2 22.9-82.6 49-118.1 14.7-19.9 32.4-35.101 57.599-37.2 25.501-2.101 50.501 1.3 73.901 12.899 18.199 9.101 35.799 19.2 53.5 29.2 2.199 1.2 4.1 3.5 7.4 2.4 2.398-7.8 4.5-15.9 7.398-23.601 5.102-13.5 12-26 23.4-35.399 15.201-12.5 32.4-12.5 47.301 0 3.799 3.2 7.299 6.8 10.5 10.6 12.9 15.4 23.5 32.5 31.4 50.8 31.699 73.2 50.799 149.2 50.5 229.5 0 2-.602 4.301 1.299 7 1.9-4.6 4.201-8 4.301-12.1-2.301-3-1.6-6.3-1.201-9.6 1.701-15.5 3.5-31.101 3.5-46.7 0-12.7.301-25.3 0-38-.6-25.101-4.199-49.7-12.299-73.5-4.1-12-8.6-23.8-13.301-35.5-12.799-31.5-25.799-62.8-47.1-89.9-13.4-17-26.699-34-42.5-48.899-12.4-11.7-27.301-19.2-43.699-27.5 2.398 8 6.898 13.1 9.799 19 4 8.3 4.201 8.3-2 14.6-17.1 17.3-34.199 34.6-51.299 51.8-6.102 6.1-7.5 6.5-14.301 1.5-24.801-18.2-52-32.4-79.301-46.1-6.6-3.3-10.398-6.7-8.1-14.4.301-1.1.1-2.7-2.4-3.2-3.398 3-6.399 6.9-9.299 10.8-8.7 11.7-17.1 23.801-26.4 35.101-19.6 24-38.6 48.399-54.899 74.8-19 30.6-33.4 62.7-38.9 98.7-3.7 24-6.2 48.2-7.1 72.399-1.7 44.9-.8 89.9-.101 134.9.201 1.199.701 1.199 1.102-.1zm-157.101 101.2c1.301-1.301 1-3.101 1.101-4.7 4.8-55.7 9.7-111.4 14.399-167.101 1.5-17.6 2.801-35.199 4.101-52.8.399-5.2.8-10.3 7.7-10.7 2-26.199 1.5-52.5 3.5-78.699 1.5-19.601-.301-39.301 2.1-58.801 0-.399-.6-.899-1-1.399-1.8.8-2.1 2.5-2.7 4-12.3 31.7-23.7 63.7-33.3 96.3-7.8 26.3-11.9 53-11.2 80.7.7 29.3 3.3 58.399 4.9 87.7 1 17.6 3.5 35 5.3 52.6 1.4 14.2 2.7 28.5 3.9 42.7.3 3.2.8 6.7-1.9 9.5.9 1.099 1.799 2.099 3.099.7zm81.4-38.601c1.6-11.899 3.2-23.7 4.9-35.6 5.1-36.9 10.3-73.8 15.399-110.7 2.5-18.1 5.101-36.2 7.5-54.4.7-5.1 2.5-8.899 8.101-9.899.699-9 1.899-17.9 1.8-26.9-.101-21.7 3-43.2 2.399-64.8-.1-2.3.601-4.6.801-6.9 1.199-11.399.899-22.8.899-34.8-3.1 1.7-3.1 3.9-3.6 5.7-11.8 40.6-22.2 81.6-31.6 122.8-7.9 34.8-14.2 69.8-13.101 105.7.2 7.3-2.6 14.5-1.199 21.9 1.5 8.3 1.5 16.6 1.3 24.899-.5 20 2.5 39.9 2.6 59.8 0 3.601 1.101 7.2 1.7 10.801 1.701-2.2 1.701-5 2.101-7.601zm550.501-213.5c.299 1.601.799 3.2 1 4.9 2.9 28.8 6 57.6 8.5 86.5 3 34.5 5.4 69.1 8 103.6.6 1.4 1.199 1.4 1.9.101 2.799-12 6.5-23.801 7.799-36.101-2.699-3.1-1.699-6.899-1.799-10.5-.301-10 1.799-19.8 2-29.8 1.1-46.7-2.201-93-10.201-138.9-5.6-32-15.799-62.5-31.199-91.199-1.4-2.7-2.4-6-6-7.2-1.1 3.2-.701 5.8-.4 8.399 2.301 17.4 5 34.801 6.9 52.301 2 18.1 5.799 36.1 4.699 54.5 4.301-2.401 7.701-2.401 8.801 3.399zm61.199 61.3c.6 11 1.5 21.9 2.201 32.9 2.1 34.9 4.1 69.8 6.1 104.7.6 1.399 1.199 1.399 1.9 0 1.1-6.5 2.6-13 3.299-19.601 1.301-12.8 4.6-25.399 4.6-38.399-3.299-6.8-3.699-14-3.699-21.3-.199-19-2.801-37.7-4.801-56.5-2.699-25.7-6.1-51.4-9.398-77-1.701-13.4-3.102-26.801-7.301-39.9.1 29.1-1.6 58.3.6 87.4.5 6.6 1.4 13.199-1 19.699 5.599-.398 7.3 2.901 7.499 8.001zm-786.095 196.732c12.1 11.101 38.769 33.625 53.869 42.426 4.285-8.438 5.417-11.847 4.016-18.247-1.6-7.3-2.162-33.54-9.461-33.24-8.365 3.712-25.024 13.26-33.124 9.06-2.599-.898-15.599-1.999-15.3.001zm-178.299-73.7c-.101.601-.101 1.2-.2 1.801 7.8 3.5 15.5 6.899 23.3 10.399 6.1-1.8 12.6-2.7 18.2-6.7-3.2-3.199-6.7-4.199-10.2-5.399-10.401-.101-20.701-.101-31.1-.101z"/><path id="hl1" fill="#FCF235" d="M1371.276 711.272c2.8-8.6 7.199-16.399 12.6-23.6 4.1-5.5 8.3-11.101 12-19.101-11.9 2.301-19.5 9.7-28.6 13.801-8.9 4-16 11.399-26.5 14.8 8.399-17.3 24.8-27.8 31.699-45.601-5.6-1.699-9.399 1.2-12.899 3-12.101 6.2-23.9 13.101-35.101 21.101-5.3 3.8-11.1 6.899-17.6 9.2-1.1-4.801 2.1-6.2 3.9-8.2 5.899-6.3 12.5-12 17.3-19.3 1.1-1.7 2.399-3.2 3.3-5 .9-1.7 2.1-3.801.1-5.4-1.5-1.2-3.199-.2-4.6.5-8.8 4.1-17 9.2-24.9 14.7-7.399 5.2-15.399 9.2-23.1 13.899-1.9 1.2-4 2.5-7.5.5 9.2-13.1 19.1-25.8 25.6-40.199-2.8-2.9-4.399-1.101-6.1-.2-19.2 10.7-36.6 24.3-55.2 36-3.3 2.1-6.3 4.899-11.399 4.5.899-8.4 8-12.101 11.699-17.9 4.101-6.2 10.601-10.3 14.601-16.399 4-6 10.7-10 13-17.4-3.4-2.3-5.3.3-7.3 1.7-17.7 12.3-35.4 24.8-52 38.6-4.601 3.9-9.801 6.9-14.7 10.3-1.5 1.101-7.9-6-9.4-7.3.8-.7 1.3-1.5 1.7-2.5 12.8-21.1 28-40.4 45.6-57.8 4.601-4.6 3.801-5.6 6.301-8.2 6.699-6.8 22.5-.9 31-5 21-10 42.8-18.3 63.1-29.8 7.7-4.4 16.1-7.5 24.7-10.6-4.7 9.1-13.8 13.3-20.8 19.8-7 6.399-14.601 12.399-20.301 22.1 11.301-1.7 17.9-9.8 26.9-12.4 9-2.6 16.4-9.8 28-10.6-10 17.9-27.2 27.1-39.3 43.4 24.399-6.601 42.399-23 67.6-27.9-6.8 9.5-13.4 15.9-20.6 21.5-5.301 4.2-9.9 8.9-14.601 13.6-2.6 2.601-5.899 5.601-3.199 9.4 2.399 3.5 6 1 9.1-.1 16.6-6 32.6-13.4 48.7-20.4 1.199-.5 2.399-1.2 3.6-1.7 3.1-1.3 6.8-3.2 9.3-.399 2.601 2.8-1.5 5.199-2.5 7.8-2.3 5.899-8.199 9.7-9.5 16.3-.399 1.9-1.8 4 .2 5.5 1.9 1.4 3.8-.2 5.4-1.3 6.3-4.3 12.199-9.3 19.399-12.101 1.801-.699 3.4-2.1 5.7-1.5 2 2.5-.3 4.2-1.4 6-6.1 9.9-12.8 19.301-20.3 28.301-3.1 3.699-8.5 7.3-5.3 13.8.7 1.5-.7 2.399-1.7 3.2-14.9 11.199-28.4 24-44 34.199-.3.3-1.1.199-1.699.399zm-123.901-127.8c-2.1-2-4.3-1.1-6.5-.4-9.5 3.101-18.9 6.3-28.4 9.3-2.899.9-5.699 3.2-10.199 1.2 8.5-8.6 16.3-16.5 24.199-24.5 13.301-13.5 17.5-19.399 18.9-26.7-1 .101-2.1 0-2.9.4-10.199 4.9-20.3 9.8-30.5 14.7-6 2.9-12 5.6-18.1 8.3-1.5.7-3.3 1.6-4.6.1-1.801-2.1.199-3.699 1.5-5 3.199-3.3 6.199-7.199 10-9.699 7.699-4.9 12.199-13.101 19.5-18.301 2.6-1.899 4.699-5.1 5-9.399-10.2 1.899-18.101 6.899-26.301 11.3-13.399 7.3-26.899 14.6-40.399 21.8-1.8.9-3.8 3.101-6.4.101 2.101-4.301 6-6.801 9.5-9.801 12.2-10.3 24.3-20.6 33.601-33.8 1.6-2.3 4.8-4.8 2.699-7.899-2.199-3.301-6-2-9.199-1.301-1.601.301-3.101 1.101-4.601 1.9-8.899 4.4-17.8 8.9-26.8 13.3-3.2 1.601-6.4 3.3-11.1 2.2.899-4.8 3-8.3 5.699-11.8 9-11.5 17.9-23.101 26.7-34.8 4.8-6.4 9.6-12.8 12.8-20.2 2.2-4.9 1-6.8-4.3-7.2-5.3-.3-10.6-.1-16-.1-18.9 12.5-35.2 28.1-51.2 43.8-20.1 19.7-38.699 40.8-55 63.899 1.7 1.301 3.101.4 4.5-.5 13.301-8.199 26.601-16.399 40-24.5 5.101-3.199 10.2-6.399 15.4-9.6-6.7 9.5-15.1 17.1-21.8 26.2-8.5 11.399-18.9 21.399-26.4 33.7-2.8 4.6-4.8 9.5-6.5 14.5-.8 2.3.6 3.8 3.2 3.399 4.8-.8 8.6-3.6 12.3-6.399 14.1-11.101 27.7-22.801 40.2-35.801 4.5-4.6 9.5-8.5 15.899-10.699-21.5 25.899-39.5 54-58.5 83.899 7.601-2.3 11.4-6 15.2-9.7 11.7-11.699 23.5-23.399 35.2-35.199 6.3-6.4 14.1-10.601 21.7-15.5-4.301 12.5-14.301 21.1-21.301 31.699-7.199 10.9-15.199 21.2-21.1 33.2 24.7-17.1 45.3-39.1 71.4-54.5-14.9 22.8-29.9 45.3-44.101 68.5 3.4 1.4 4.601-.7 6.101-1.8 15-11 29.5-22.6 45.699-32 13.801-8 28.7-14 42.2-22.5 3.601-2.2 6.9-5.4 11.5-5.8.805-.298 1.404-.899 1.604-1.999zm664.001 83.3c-5.301-16.3-10.6-32.7-19.4-47.7-3.5-.899-5.4-3.699-7.199-6.5-2.4-3.699-5.9-5.8-10.801-7.8 6.9 15.7 12.9 30.601 16.199 46.601-12.1-9.801-22.799-20.7-34-33.301-3.199 14.7 4.201 28.101-.398 42-9.102-6.899-13.201-16.699-19.602-24.6-6.5-7.9-10-18.4-19.898-24.9.5 7.7 4.699 12.801 6.699 18.7 2 5.8 3.4 11.7 3.5 20-14.1-15.1-26.699-28.7-39.301-42.399-.699.399-1.299.699-2 1.1 6.6 13.8 10.9 28.4 16.201 44.8-5.701-3.5-8.5-6.4-10.701-9.6-5.1-7.5-11.9-13.4-17.699-20.3-1-1.2-2.1-3-4.1-1.9-1.701 1-1.4 2.8-1.1 4.5 2.199 12.2 5.299 23.7 12.799 34.2 9.6 13.5 17.6 28.1 24 43.6 2.9 7 5 14.7 11 23-1.4-10.2-1.699-18-.699-26 1-7.8-4.4-15.9.299-24.1 3.801 1.3 4.602 4.399 6 6.899 5.102 9.4 10 18.801 15.102 28.101 1.799 3.3 3.398 7.1 9 7.899 0-5.6-.201-10.5.1-15.5.4-6.1 3.1-7.6 8.5-5.1 4.699 2.2 7.9 6 11 10 4 5.1 8.1 10 12.1 15 .6-.3 1.301-.6 1.9-.9-3.201-6.399-3.301-13.399-4.9-20.1-1.1-5-.9-9.9-.6-14.9.1-1.3.5-2.699 1.9-3.3 1.898-.8 3.199.3 4.1 1.8 2.9 4.801 5.9 9.7 8.5 14.7 2.9 5.5 5.6 11.101 11 17 .4-7.7.799-13.8-1.1-19.899-.5-1.601-.9-3.601.799-4.5 2.1-1.101 3.9.399 5.1 1.899 1.201 1.5 2.102 3.4 3.201 5.101 3.4 5.3 7.5 9.8 13 13.1 1.9-3.1.699-5.9 1.4-8.5-1.202-13.1-5.801-25.6-9.901-38.201zm-938.12 373.634c-3.2.9-5.5 3-7 6.101-3.9 1.6-7.9 3.1-11.801 4.699v1.601c11.101 2.6 22.101 5.199 33.2 7.8-4.8 3.3-9.8 4.8-14.6 6.7-7.101 2.699-14.601 4.3-20.8 9.1 14 2.8 28.6.4 43.6 4.6-8.2 10.5-18.8 16.2-26.7 26.801 7.601-1.2 13.601-2.601 19.7-2.9 6.4-.3 12.6-3.2 20.3-1.7-6.399 9.2-15.5 14.801-20.7 25.4 14.9-2.1 26.801-8.8 42-9.9-8.899 13.5-19.3 24-26 37 7.801-2 14.801-4.899 22-7.3 7.301-2.4 14-7 23-7.1-3.699 8.699-10.3 14.8-12.8 23.6 10.3-3.3 48.5-29.7 52.8-36.3-13.1-.8-26.1.8-40.199-.601 5.699-6.6 12.1-10.1 15.8-16.6-8.6-4.7-18.6-2.5-27.3-7.6 6.1-4.101 13.399-3.9 19.3-8.7-11.7-5.2-24.3-4.7-36.6-10.7 8.3-3 15-5.5 21.6-7.899-5.2-2.301-10-3.101-14.8-3.801-4.8-.699-10.101.301-15.5-3 8.6-4.6 17.5-5.3 26.6-11.399-11.3-2.301-20.6-4.101-30-6-1.5-1.301-1.5-2.5 0-3.7 7-2.6 15.1-2 22.6-7.1-6.1-1.5-10.899-2.7-16.3-4 3.5-2.4 6.8-.4 9.3-2.301 1.2-3.1-4.399-3.199-2.899-6.3 3.3-2.6 8.3-1.9 11.399-5.9-8-2.699-15.6-2-23.199-2.5-8.601-.5-9.301-2-4.9-10.199.7-.601 1.3-1.2 1.9-1.9-10.2-4-20.7-1.1-31.101-2 .3 4.3 5.8 3.5 4.9 8.3-9.9 3-21.1 1.5-32.3 5.3 9.2 5.7 18.8 8.4 26.7 14.301-.3 2.097 3.4 4.797-1.2 6.097z"/><path fill="none" stroke="#000" stroke-miterlimit="10" stroke-width="6" d="M1847.376 548.173c-23.4-19.601-73.1-40.9-97.9-50.5-25.801-18-76.199-.5-100 20.399-36.699 26.101-63 82.9-69.699 76.2-123.401-118.1-222.301-98.9-305.5-32.8-135 107.8-153.2 257.9-153.9 261.5s-2.2 57.5-1.9 62.2c.301 4.7 4.101 11.7-4.899 11.6-93.8-17.6-92 80.6-92 80.6l-4.4-5.3c-93.899-248.8 16.101-489.8 289.9-600.2 282.8-80.399 444.599 77.9 444.599 77.9 65.301 42.5 124.801 140.8 124.801 140.8l-29.102-42.399zm-728.401 346.599s35.801 145.5 97.101 207.7c8.2-48.6 19.3-220.6 19.3-220.6s4-30.301 14.7-.7c10.7 29.6 41.3 198.1 41.3 198.1l33.8-216.1s8.2-21 11.8 0c3.601 21 32.4 144.1 32.4 144.1s13-130.5 16-149 19.9-153 96.5-203.6c0 0 59.1-24.601 143.799 35 16.201 18 15.801-10.9 16.701-13.601.9-2.699 16.5-48.899 50.5-50.1s102.699 106.7 115 305.6c6 1 29.9-80.699 29.9-80.699s10.799-16.4 11.699 9.6 15.5 178.2 15.5 178.2 1.5 27 7.801-15.2c6.299-42.2 25.699-116.3 25.699-116.3s5.301-6.7 10.4 1.399c5.1 8.101 8.299 134.801 8.299 134.801s1.301 16.199 5.602-14.801c4.299-31 44.6-291.5-46.102-438.199m-845.367 410.279s-33.334-24.148-70.127-7.893c-36.792 16.254-72.698 66.897-77.128 77.415-13.691 27.662-13.77 67.278-13.77 67.278s-4.162 9.311 10.201-3.964c14.362-13.275 60.066-36.962 64.344-37.873 4.279-.911 25.552-6.061 16.579 10.576-20.977 12.845-34.031 26.386-41.45 37.381-7.419 10.996-36.091 58.95-36.807 69.972 8.963-1.531 56.035-38.157 68.225-42.573 12.19-4.416 34.936-6.803 34.936-6.803s16.5-.227 4.498 11.487c-12.001 11.714-78.375 75.646-82.007 93.847-3.632 18.199 47.653-33.44 64.344-41.774 10.755-5.779 38.602-19.802 73.375-17.398 34.774 2.405 104.417-12.297 116.639-31.019 12.221-18.721 13.266-24.75 7.881-35.715-28.301-19.077-92.637-58.431-139.733-142.944zm143.118 150.059s10.066 2.441 5.937-14.158c-4.13-16.6-3.219-41.629-10.665-39.437-23.004 23.258-53.501 6.681-53.501 6.681"/></svg>