<svg xmlns="http://www.w3.org/2000/svg" id="hair" viewBox="0 0 3000 3000"><path id="cl1" fill="#616ED6" d="M1298.289 275.104c30.101 4.1 59.601 11 88.4 20.5 24 7.9 48.399 15 70.5 27.6.899.5 1.8.9 2.7 1.3 2.899 1.2 5.899 2.101 8.399-.3 3.101-2.899 1.7-6.1 0-9.1-8.3-14.5-18.399-27.7-29.7-40.1-2-2.2-4-4.4-6.399-7 4.6-1.4 7.8.699 10.899 2 29.4 12.899 60.201 21.399 91.201 29.199 19.799 5 38.4 13.3 56 23.5 8.4 4.8 16.4 10.2 22.799 17.7 2.701 3.1 5.9 5.7 10.4 3.6 4-1.899 4.1-5.699 4.1-9.399.102-22.3-5.1-43.6-13-64.3-1.398-3.7-3-7.3-4.299-10.601.799-2 1.799-1.3 2.5-.8 22.799 17 48.199 29.7 72.199 44.7 6.5 4 12.9 8.3 19.201 12.6 13.5 9.2 23.6 21.5 31.299 35.7 2.5 4.7 5.301 9.3 8.1 13.7 1.301 2.1 3.5 3.2 6 2.5 3-.8 4.301-3.101 4.201-6-.1-3-.5-6-1-8.9-3.1-17.5-8.4-34.3-17-49.899-1.201-1-.701-3-2.201-3.9-.299-2 .4-2.899 2.4-2.399.5.199 1.1.5 1.5.8.9.2 1.6.8 2.201 1.5 15.699 9.8 28.799 22.6 40.6 36.699 15.699 18.601 29.5 38.601 43 58.9 1.299 1.9 2.5 3.9 3.9 5.8 2.799 3.9 5.799 4.101 10.299 1.8 21.701-11 44.201-20.1 66.5-29.8.9-.399 1.801-.5 3.4-.8.5 4.2-2 7.1-3.4 10.2-8.299 17.5-16.699 34.8-25 52.3-1 2.1-2.199 4.2-2.799 6.4-1.301 4.5.398 7 5 7.899 1.299.2 2.699.2 4 .101 18.699-.4 34.799 6.399 50.699 15.699 20.199 11.801 36.9 27.2 52.301 44.4 1.299 1.5 2.398 3.1 3.5 4.5-1.5 3.4-4.201 2.1-6.201 2-19.6-1.3-39.199-2.8-58.799-4.1-4.102-.301-9.701-2.5-11.9 2.199-2.701 5.7 3.6 7.801 6.799 10.601 24.801 21.8 48.301 44.899 69.801 70 7.4 8.6 15.199 16.8 22.801 25.2 1.898 2.1 4.6 3.8 5.398 8-7 .3-13.199-1.801-19.6-2.5-5.299-.601-10.5-1.801-15.799-2.601-2.4-.399-4.701-.2-6.201 2.101-1.5 2.399-.699 4.699 1.1 6.3 15.301 13.8 23.5 33.1 36.701 48.5 6.199 7.2 12.6 14.399 21.5 22.5-10.801.8-19.201.3-27.5-1.4-5.201-1-10.4-2.6-15.6-3.2-7.201-.8-9.9 2.801-7.602 9.7 1.701 5.101 4.5 9.601 7.602 14 9.299 13 20.1 24.7 34.1 35.2-12.4 4.8-23.701 4-35.1 2.2-7.5-1.2-14.9-3.5-22.701-3-1.699.1-3.4 0-5 .2-6.299.899-8.199 5-3.799 9.5 7.5 7.8 12.699 17.1 18.299 26.1 6.1 9.8 9.6 20.4 10.1 32 .301 8 1.4 15.9 2.201 23.9 1.4 15.399 4.199 30.399 14.699 43-3.299 2.3-5.699.8-8 0-13.799-4.9-27.4-10.301-41.6-14.2-1.301-.4-2.5-.8-3.801-1.2-8.799-2.5-12-.5-12.299 8.4-.6 13.699-.4 27.3 1.5 40.899 2.5 17.8 5.5 35.5 10.9 52.8.5 1.5 1.5 3.101-.201 5.101-5.6-2-10.299-5.5-15-9-2.1-1.601-4.1-3.5-6.5-4.601-4.6-2.3-7.9-.5-8.4 4.601-.199 2.6.102 5.3.301 8 1.5 21.3 1.9 42.6 0 63.899-.301 3.2.5 6.7-2.9 9.9-9.1-15.4-16.699-31.1-21-48.3-1.5-6.101-2.9-12.3-2.1-18.8.301-3 .5-6.301-3.199-7.5-3.9-1.301-6.301 1.1-8.102 4.199-7 12.101-13.1 24.7-18.699 37.5-1.301 3-1.801 6.4-5.5 9.801-.801-6.601-1-12.301-.301-18 15.602-43.2 25.701-88.101 39.701-131.801-6.201 14.9-19.1 24.4-30.1 35.601-5.102 5.1-6 4.7-9.801 0 2.301-5.9 4.301-11.9 6.9-17.601 9.4-20.6 14.6-42.699 21.5-64.1 2.5-15.1 7.199-29.4 14.5-41.8-4.6 2.399-5 12.7-14.6 9.6-3-18.7-6.201-37.3-10.301-55.7-1.699-1.699-.1-4.5-1.801-6.199-.299-.601-.398-1.2-.398-1.9-1-6.1 2.1-14.3-8-15.9-2.602-4.1-5.201-8.3-8-12.399-1.602-2.4-3.102-5.601-6.701-4.8-3.5.8-3.699 4.399-4.199 7.199-2 10-4.1 19.9-7.201 29.7-2.5 4.101-5.1 7.9-9.799 2.101-4-15.5-8-31-12-46.4-.801-3.2-1.9-6.4-2.9-9.6-.9-2.801-2.699-4.601-5.699-4.801-3-.199-5 1.5-6.301 4-.9 1.801-1.801 3.601-2.699 5.301-6.301 11.6-12.602 23.199-18.801 34.699-2.9-.899-3.5-3-4.6-4.6-12.9-20.6-29.201-38-47.9-53.4-3.301-2.699-6.699-5.399-9.6-8.699-4.1-4.801-6.6-5-11.701-.7-7.199 6-13.5 12.899-18.699 20.7-4.4 6.6-8.699 13.199-13.4 20.199-4.299-5.1-7.9-9.399-11.5-13.699-12.5-14.9-29.699-20.801-47.9-24.601-3.898-.8-6.1 2-8.199 4.601l-24.9 30c-2.5 3-5.199 6-8 9.399-7.4-6.6-12.299-14.6-18.699-21.399-1.4-1.4-2.5-3.101-3.801-4.601-5.4-6-8.4-6.2-13.799-.1-13.301 15-26.201 30.2-38.5 46-1.4 1.8-2.201 4.2-5.201 5.2-2.4-2-3.5-5.101-5-7.9-6.2-12.2-12.3-24.4-18.5-36.5-1.8-3.4-2.7-7.9-7.9-7.8-4.6.1-5.8 4-7.6 7.1-17.3 29.601-34.5 59.3-51.8 89-2.5 4.2-4.601 8.8-8.9 13.3-1.3-3.1-2.3-5.399-3.1-7.699-7.4-23.2-14.8-46.301-22.2-69.5-.8-2.5-1.4-5.2-2.5-7.601-2.9-6.5-8-7.1-11.9-1.1-3.399 5.3-6.199 11-9.3 16.5-27.1 48.6-54.2 97.2-81.6 145.6-3.5 6.101-3.3 12-2.4 18.2 3.5 25.4 7.4 50.8 10.5 76.2 4.601 38 8.7 76.1 12.9 114.2.3 2.3.1 4.699.5 7 1 6.899-.601 9.5-8.3 7.3-3.801-3.5-6.2-7.5-6.801-12.9-3.8-39.1-9.199-78-14.6-116.8-5.5-39.9-12.4-79.6-17.9-119.4-.199-1.6-.399-3.3-2.399-5-6.2 9.5-10.7 19.7-15.2 30-2.3 5.2-4.6 10.4-7.5 15.2-1.8 3-4.2 5.4-8 4.8-3.8-.6-5.3-3.5-6.3-6.899-3.601-12.9-5.2-26.101-8-39.101-1-4.8 0-12.1-4.7-13.3-5.8-1.5-7.7 6.2-10.7 10.2-8 10.6-14.8 22.1-22.5 33-2.8 3.9-5.399 9.6-11.6 6.8-5.7-2.6-4.5-8.399-4-13.3 1.7-14.2 4.3-28.3 6.3-42.5.5-3.3 1.2-6.5.8-10.3-3.699 1-5.399 4-7.6 6.2-15.8 15.699-32.5 30.699-47.1 47.5-19.9 22.899-45.7 36.1-72.5 48.199-19.4 8.801-39.5 15.9-59.601 23-3.8 1.301-7.7 2.4-11.6 2.7-2.9.2-6.3.7-6.3-3.899 15.899-14.601 31.7-29.2 46.2-45.301 7.399-8.1 14.6-16.399 20.699-25.5 10.601-16.1 20.4-32.6 32.801-47.5 2-3.3 1.6-6.6.3-9.899-.4-.601-.601-1.2-.601-1.9-.6-4.1.7-7.5 3.101-11 8.1-11.8 3.499-9.7 13.899-19.2-.101.2.1-.199 0 0-21.3 22.301-33.899 25.7-58.5 43.601-5.6 4.1-11 8.6-16.899 12.3-4 2.5-4 2.5-7.2-2 10.3-26 22.9-50.6 41.3-71.9 4.4-5.1 10.601-9.399 10.5-17.399-2.5-5.4-1.3-9.8 2.3-14.601 10.601-14.6 19.9-30.3 33.101-42.899.399-.4.7-.9.899-1.3-.1.199.2-.301.101-.101-.101.2-.101.101-.101.3 0 .2-.199.4-.3.601-.399.6-.8 1.1-1.3 1.5-26.9 26.5-56 50.3-88.1 70.2-1.101.8-2.101 1.699-3.2 2.399-.8.5-1.7.8-3.3 1.4-1.4-3.2.3-5.9 1.1-8.5 4.7-14 11.3-27 18.7-39.7 12-20.5 24.8-40.3 40.1-58.5 6-7.2 12.5-13.9 21.2-17.9 3-1.399 6.5-2.899 6-7.1-.6-4.7-4.7-5.3-8.3-5.6-21.9-1.9-43.601-6-65.7-5.4-2.601.1-5.3.7-7.4-.7-1.2-1.2-.8-2.2-.2-2.899 12.7-12.7 25.2-25.7 39.101-37.2 9.899-8.101 20.6-13.2 33.899-11.7 5.2.6 10.7 0 15.9-.7 5.1-.7 6.8-3.8 5.1-8.6-1-2.8-2.6-5.4-4.199-8-12.301-21-24.601-41.9-37-62.9-1.801-3.1-3.5-6.399-5.801-10.399 4.601.199 7.2 2.899 10 4.699 14.601 9.2 30.7 14.301 47.7 16.801 3.6.5 7.3.699 11 .399 6.4-.6 8-4.399 4-9.5-5.1-6.5-10.6-12.899-15.9-19.3-.8-1-1.3-2.2-2.5-4 5.4-1.7 10.4-1.2 15.101-.8 22.899 1.899 44.1-5.5 65.5-11.601 6.1-1.699 7.3-5 4.399-10.6-4.6-8.7-12.199-14.2-21-17.7-17.699-7.1-36.199-11.2-55.3-12.399-2.6-.2-5.3 0-7.899 0-1.101-3.601 1.8-4.2 3.3-5.5 18.6-16.601 40.1-27.2 64.7-31.5 7.899-1.4 15.6-3.4 23.3-5.601 14.899-4.399 29.899-6.3 45.399-4 4.4.601 9.7 2.2 12.601-3.1 2.6-4.7-1.101-8.3-3.2-11.8-10-16.301-23.2-30-35.7-44.3 0-3.601 1.801-3.9 4.601-2.601 24.199 4.101 48.5 7.9 72.6 12.6 20 3.9 38.8 11.5 56.9 20.801 3.6 1.899 8.1 5.199 11.8 1 4.4-4.801-.3-8.601-3-12.101-11.3-14.8-24.2-28.199-36.9-41.8-.201-3.397 1.799-3.397 4.5-2.298z"/><path id="hl1" fill="#7786E4" d="M1325.189 667.604c-16.101 24.7-30.4 49.6-43.101 75.6 9.7-3.2 18.101-8.2 28.301-14.1-2.4 9.8-8.301 15.399-12.2 21.899-4.3 7.101-9.101 13.9-13.8 20.801-4.4 6.5-8.5 13.3-14 18.899-3-1.6-2.2-3.899-2-5.7 2.899-20.399 6-40.8 8.899-61.3.5-3.2 1.601-6.5-1.3-10.5-20.8 14.5-40.5 30.601-62.7 45.3-1.3-11.1 3-19.8 3.2-30.199-11.9 3.199-21.9 8.8-32.2 13.699-10.399 4.9-20.2 11-31 14.7-2.2-3.5-.3-5.399.601-7.399 5.5-11.801 11-23.5 16.6-35.301.7-1.5 1.6-3 2.1-4.5.9-2.699 3.5-5.699 1-8.199-2-2-5.1-.2-7.6.399-20.1 4.8-40.2 9.7-60.3 14.5-2.601.601-5.2 1.3-7.8 1.9-10 2.1-11.5.7-8.801-9.4 4.601-17.7 9.601-35.399 14.4-53.1.6-2.2 1.4-4.5 1.7-6.8.399-3.4-1.301-5.2-4.7-4.601-4.6.7-9.2 1.7-13.7 2.7-11.6 2.6-23.1 6.2-35 7.8-1.3-3.2 1.4-3.5 2.7-4.6 2.3-1.9 4.8-3.601 7.2-5.4 13.399-10.2 27.699-18.1 44.899-20.5 10.801-1.5 21.4-5.1 32.101-7.7 3.1-.8 6.199-2.1 10.5-.699-11.801 26.899-26.801 51.8-38.601 80.899 23.5-9.1 43.7-20.2 64.601-29.6 21.1-9.5 41.899-19.5 64.399-26.8-13.3 29.899-30.6 57.199-45.399 87.399 7.6-.2 12.199-3.8 17-6.399 34.199-18.7 68.6-37.101 104.3-52.9 2.6-.898 5.001-3.298 9.701-.798zm573.2-11.4c-8.801-3.899-16.699-9.7-26-12.6-4.6-1.5-6.199-.3-6.199 4.5 0 2.3.398 4.6.898 6.899 1.801 8.2 4.4 16.101 7.602 23.801 1 2.5 2.898 5.1 1.199 9-12.199-8.4-22.6-18.4-35.4-25.2-.6 10.399 4.201 27.899 9.1 33.7 2-1.101 2.102-3.2 2.9-5 2.9-7 3.5-7.301 10-3.5 8.1 4.699 15.9 9.699 24 14.399 3 1.7 5.801 4.4 9.701 3.3 1.1-3.899-.602-7-1.102-10.199-1-6.9-3.1-13.7-2.799-20.7.199-5.9 2.199-7.3 7.699-5 6.1 2.6 12.301 5.1 18.1 8.3 10.801 5.9 20.701 13.5 32 18.5 2 .9 4 2.8 6.801.3-3-15.899-13.801-29.3-17.699-47.6 9.1 4.5 16.199 8.1 23.398 11.399 6.9 3.101 13.102 8.101 21.201 8.4-28.1-25.8-60.4-45.7-92.801-69 4.6 25.8 14.6 46.4 29.801 64.9-8.4-1.599-15.301-5.399-22.4-8.599z"/><path id="sd1" fill="#48529F" d="M944.088 933.504c5.2.801 9.9-1.5 14.5-3.1 32.2-10.8 63.801-23.4 94-39.3 8.601-4.5 16.4-10 23.301-16.9 23.5-23.6 47.199-47.1 70.8-70.6 2.3-2.3 4.2-5.101 9-6.5-1.5 25.8-8.101 50.2-8.601 75.5 9-9.5 15.301-20.601 22.7-31 7.5-10.5 14.101-21.601 24.3-32.8 6.4 25.199 8.9 49.199 15.4 74.6 8.3-11.2 11.3-22.5 16.6-32.6 5.301-10.301 10.2-20.801 15.5-31.801 3.601 2.101 3.7 5.301 4.101 8 7.5 50.101 15.1 100.101 22.3 150.2 4.1 28.7 7.7 57.4 11.3 86.101 1.101 8.6 1.801 17.199 2.7 25.8-9.6-.101-19.3 0-28.9-.2-9.5-.2-9.8-.2-12.699-9.1-9.5-29.801-21.301-58.8-32.301-88.101-9.3-24.6-19.199-48.899-28.6-73.5-2-5.3-5.6-8.5-10-11.8-16.4-11.899-34.4-15.399-53.9-11.1-5 1.1-9.8.399-14.699-.5-36.301-6.3-54 4.899-73.4 31.6-1 1.3-1.9 2.9-2.1 4.5-.9 8.7-6.7 9.9-14 10.4-24.3 1.7-48.601 1.399-72.9 1.8-1 0-2 0-3-1.8 1.799-3.099 4.899-5.799 8.598-7.799zm912.9-2.7c1.6 27.5 3.301 55 5 82.5 1.5-2.5 3.301-5 4.6-7.7 11.9-23.2 20.301-47.7 25.301-73.3 3.301-17 7.4-33.7 13.9-49.9 1.5-3.9 3.299-7.8 3.299-12.2-.898-.1-1.398-.3-1.5-.1-1.1 1.2-2.398 2.3-3.299 3.6-9.5 14.6-21.9 26.7-34.5 38.6-2.301 2.101-3.9 5.801-8.1 4.7-2.5 4.3-5 8.7-4.701 13.8zm-872.799-182.6c11.1-5.1 22.5-9.2 34-13 4.399-1.399 8.3-1.7 11.3 2.601 1-4.301 3.4-7.7 5.9-11.301 10.899-15.6 21.699-31.399 32.6-47.1.6-.8 1.2-1.5 1.9-2.1.6-2-.301-2.601-2.2-2.301-.601.2-1.2.301-1.8.5-.7.5-1.4 1.101-1.9 1.801-20.2 16.6-40.6 33.1-60.6 49.899-9.301 7.9-19.9 14.3-27.5 24.101 3.199 0 5.699-1.9 8.3-3.1zm201.885 397.531c.979-2.497 1.453-5.051.503-7.777-2.71-7.787-7.01-26.399-9.728-34.286-.949-2.726-2.539-6.488-5.445-5.323-8.531 3.379-15.119 15.431-23.419 12.463-1.972-.724-3.061.463-6.122 3.25 6.24 21.326 21.106 32.651 37.526 48.843 2.611-6.661 4.644-11.965 6.685-17.17zM998.689 996.504c-6.8 5.5-15 9.101-21.9 16.2 10.4 1.3 19.601 2.4 28.7 3.5 9.1 1 18.2 2.5 28.3.3-5-12.3-9.3-24.1-13.1-37.5-8 6.4-15.101 11.8-22 17.5zM1082 1073c-3.156-3.082-5.543-1.175-7.843 2.625-4.4 7.399-12.468 17.579-16.868 24.979-2.6 4.399-6.6 8.1-8.399 14.699 19.8-3.6 34.61-8.166 53.81-15.865-10.301-7.5-13.161-19.077-20.7-26.438zm808.189-237.696c8.6-18.101 18.299-35.7 22.5-55.601-9.602 6.101-14.5 16.2-22.602 23.5.102 10.701.102 21.401.102 32.101zm-12.5-95.9c4.799-10.2 6.299-19.1 3.898-25.8-4 3.399-8 6.7-12 10 2.001 5.6 5.001 10.7 8.102 15.8zm-43.8 5.9c.801 3.899 1.699 7.899 2.5 11.8m-700.301-173.7c-.699.6-1.399 1.3-2.1 1.9-.5.1-1 .199-1.6.199-.2 3.4 1.399 3.301 3.6 1.9.6-.1 1.3-.1 1.9-.2 1.199-1 3-.6 4.1-1.8 48.3-15.7 96.6-31.4 146.3-47.6-1.5 4-3.399 5.199-5.1 6.699a12965.896 12965.896 0 0 0-55.7 48.5c-24.5 21.5-49 43-73.5 64.601-.7.5-1.3 1.1-1.8 1.8l.1.1c-.6 1.801-.2 2.7 1.9 2 .6-.1 1.3-.199 1.899-.399.7-.5 1.4-1.101 2-1.8.7-.7 1.4-1.301 2.2-1.9 1.8-.9 3.7-1.6 5.4-2.6 47.1-29.101 94.1-58.2 141.2-87.2 2.899-1.8 5.6-4.5 9.5-4.101.699 2.4-.2 3.801-.9 5.301-5.7 12.1-11.4 24.1-17 36.199-10.8 22.9-21.6 45.801-32.2 68.801-1.399 3.1-3.7 6.199-1.899 10.8 9.5-6 17.399-13.2 25.6-19.8 32.8-26.7 65.6-53.4 98.4-80.2 1.699-1.4 3.5-3.7 6-2.601 2.699 1.2 1.8 4 1.8 6.2.1 11.3-2.3 22.5-1.9 33.9.3 8.3-.7 16.6-1.2 24.899-.8 11.301-.199 22.801-.199 35.601 28.1-32.9 52.699-67.2 81.399-101.4 4.7 28.5 4.7 54.9 9.101 82.101 3.199-3.801 3.8-7.101 4.8-10.101 7.5-22.399 14.901-44.899 22.401-67.399 3.6-10.601 4-10.7 13.199-3.801.5.4 1 .801 1.6 1.2 25.199 19.2 50.4 38.3 75.6 57.4 2 1.5 3.801 3.8 8.1 2.7-5.1-22.4-13.199-43.9-19.699-68.2 18.801 8.8 34.199 18.7 50.301 27.3 16.1 8.6 31.6 18.5 49 25-12.4-23.1-28.5-43.2-44.5-63.9 29.699 8 58.199 19.2 86.9 29.4 28.898 10.3 57.6 21.2 86.398 31.9.5-.801.9-1.601 1.4-2.4-28.199-23.5-57-46.2-86-69.1 8.4.5 16.5 1.699 24.5 3.3 39.5 7.8 79.1 15.8 118.9 21.7 6.4 1 12.801 1.699 19.5-.801-31.4-14.699-64-25.6-96.5-37.1s-65.6-21.2-98.1-33.5c42.1-8.9 84.799-13 127-20.6-5.301-1.301-10.5-2.4-15.801-2.601-38.6-1.5-77.199-3-115.799-4.3-24.301-.8-48.602-1.4-72.9-2.2-8.6-.3-9.1-1.1-6.5-9.7.5-1.6 1-3.199 1.6-4.699 8.4-23.9 16.801-47.801 25.1-71.7 1.5-4.2 3.801-8.4 3.4-14.4-6.6 4.601-11.801 9.101-17 13.7-19.6 17.6-39.199 35.1-58.801 52.6-5.299 4.7-7.1 4.301-10.199-2.3-.699-1.5-1.199-3.1-1.801-4.6-8.5-20.601-17.1-41.3-25.699-61.8-.9-2.2-1.1-5.2-4.4-5.801-1.6 3.601-1 7-1 10.301-.1 18-.1 36-.199 54 0 2.699 0 5.399-.4 8-.5 3.199-2.4 3.899-4.9 1.899-3.9-3.1-7.5-6.6-11.5-9.6-26.2-19.7-55.3-34.7-84.1-49.9-2.8-1.5-5.399-3.899-10.1-3 5 15.5 13.2 29.5 18.7 47.2-14.101-7.5-26.2-13.8-38.101-20.2-12.3-6.6-24.399-13.8-36.899-20-11.9-6-23.101-13.7-36.601-18.8 1.101 5.2 3.7 8 5.801 10.9 7.6 10.6 14.399 21.6 20.899 32.899 2.301 4 4.4 8.3 5.801 12.7 2.399 7.1.3 9.5-7.101 7.7-12.1-2.8-24.399-3.8-36.6-4.5-29.601-1.7-59.2-3.101-88.9-2.2-2.8.1-5.8-.6-10.1 2 37.1 9.2 73.3 15 108.6 25.1-26.8 6.301-53.5 11.7-80.3 16.801-26.7 5.1-53.5 10.199-80 16.699 11.5 1.4 22.6-1 33.9-.8 11.6.2 23.399.601 34.899-.899 11.3-1.5 22.601-1.301 33.9-1 11.3.3 22.7-2.601 34-1.4.1.7.3 1.3.399 2-53.1 32.4-106.3 64.8-159.399 97.2-1.099 1.003-3.099.403-4 1.803z"/><path fill="none" stroke="#000" stroke-miterlimit="10" stroke-width="6" d="M1830.988 403.704l76.701-31.7s-20.4 45.8-21.102 47.101c-.699 1.3-10.5 25.5-10.5 25.5s-7 1.3 26.102 5.8c49.5 6.899 88.1 64.899 88.1 64.899s-56.201-5-63.4-4-20.801 1.301-9.1 9.9c11.699 8.601 101.6 104.4 102.1 106s-8.6-.6-29.801-4.2c-21.199-3.6-6.398 11.601-.398 18.601s49.498 59.6 45.799 60c-3.699.399-51.4-12.4-49.4.3s24.9 38.5 42.5 53.899c-8.898 8.9-47.299-.199-47.299-.199s-29.4-7.101-19.201 9c23.9 25.399 29.4 49.6 29.301 70.6s13.5 55.6 13.5 55.6-23.699-7.699-42.801-14c-19.1-6.3-20.199 3-20.199 3s5.301 69.2 6.699 75.801c1.4 6.6 21 43.6 0 23.6s-27.299-11.7-24.5 0c6.5 23.4-2.799 75.1-2.799 75.1s-22.4-43.399-25-64.1c2-17.3-11-3.5-11-3.5l-22.6 44.5s-4.201-81-4.602-87.7c-.398-6.7-4.799-12.6 1.102-21.2 15.199-34.899 29.1-73.699 31.299-113.1 1.201-30-16.9-77.4-24.199-91.6-7.301-14.2-13.6-14.7-18.701 12.399-5.1 27.101-14 13-14 13s-6.199-23.899-12-46.3c-5.799-22.399-15.398-6.1-15.398-6.1s-14.602 32-20.5 38.1c-19.602-34-45.4-46.7-57.4-62.1-12-15.4-17.801-4.101-17.801-4.101l-30.6 39.7s-17.301-23.2-40.1-33c-22.801-9.8-26.5-2-26.5-2l-33.9 40.601s-6.9-7.2-19.801-22.7c-12.898-15.5-17.699-2.101-17.699-2.101s-17.6 17.801-22.699 26.5c-20.201 34.101-22 20.9-22 20.9s-9.8-19.3-20.3-39.9c-10.5-20.6-17.9-.399-17.9-.399l-59.3 99.899s-14-29.699-23.101-70.399c-9.1-40.7-23.199-3.7-23.199-3.7l-66 118.1s-25.4 41.101-21.2 44.7c4.2 3.601 21.2 171.4 23.6 192.7 2.4 21.3 0 17.7 0 17.7l-37.8 1s-6.9 2.3-9.6-5.301c-15.301-43.199-56.7-135.5-65.9-172.1-15.5-18.2-48.7-18.8-53.1-18.4-4.4.4-19.2 4.801-31-.5-18-12.1-62.7 20.4-64.7 32.801-2 12.399-4.7 11.3-11.4 14.399-6.7 3.101-94.899 9.9-80.399-1.1 57.199-49.3 95.199-110.7 102.5-117.4 7.3-6.7 5.8-7.3 5.5-19.1-.301-11.8 16.6-30.4 16.6-30.4s-40.3 31-45.7 34.8c-5.399 3.801-37.7 36.801-36.6 19.2 1.1-26.899 25.5-47.1 42.6-73.399 17.101-26.301-2.2-18.5-2.2-18.5-12.399 1.6-36.3 20-48.699 19.899 5.899-24.5 35.1-73.1 42.1-86.899 7-13.801 32.3-36.301 42-41.7 9.7-5.4-5.4-8.7-5.4-8.7l-73.1-6s28.2-25.6 38.9-40.1c10.699-14.5 26.3-11.801 43.699-11.7 17.4.1 11.2-9.3 9.4-13.3s-47.4-80.301-43.9-77.301 44.801 21.7 62.7 21.9c17.9.2 6.8-12.2 6.8-12.2.4-2.899-16.3-20.8-16.3-20.8s13.9-2.9 22.5-.5c8.601 2.4 34.3-2.7 47.101-8.7 12.8-6 26.899-1.7 12.1-18.899-14.8-17.2-56.2-16.101-80.6-28.301 17.199-24.199 45.1-25.8 67.6-33.699 22.5-7.9 43.5-8.2 61.1-10.4 17.601-2.2 20.301 1.5 20-9.4-.3-10.899-46.399-47.399-38-51.699 15.601-3.601 118.7 23.6 130.301 32 11.6 8.399 16.5-.601 16.6-1.801.1-1.199-53.6-56.899-41.1-51.999 43.1-1.4 152.8 42.499 152.8 42.499s21.1 17.9 21.399 3.2c.301-14.7-44.699-52.3-36.1-53 8.6-.699 106.4 34.301 129.3 40.4 38.4 7.3 54.1 42.6 61.4 33.6 11.299-22.7-11.301-83.6-11.301-83.6s51 37.9 82 50.7 33.699 29.699 45.1 48.399 15.201 4.601 15.201 4.601c4.199-6-17.701-65.101-17.701-65.101 76.197 64.5 94.496 107.2 94.496 107.2zm-810.199 575.3l-44 33.7s51.101 8.4 55.9 4c4.8-4.4-11.9-37.7-11.9-37.7zm47.9 103.4s-17.7 27-18.8 32.7c-1.101 5.699 51.954-16.528 51.954-16.528l-21.734-26.874s-7.021-.698-11.42 10.702zm104.811 9.721c-5.867 5.516-13.766 18.953-26.92 18.507-14.62-.496-2.871 9.305-1.587 11.883 1.774 3.563 7.897 15.925 32.798 42.125 6.899-7.8 10.6-17.101 9.699-21.8-.899-4.7-7.823-41.986-7.823-41.986s-1.11-13.483-6.167-8.729z"/></svg>