<svg xmlns="http://www.w3.org/2000/svg" id="hair" viewBox="0 0 3000 3000"><path id="cl1" fill="#DBAD3C" d="M1920.451 634.472c-19.399 31.4-25 49.546-41.801 84.745-3.148-3.706-6.363-7.669-9.012-10.604-13.366-14.805-23.066-25.037-34.818-40.222-4.6-5.943-3.299-6.8-10.299-3.897-42.701 17.897-85.5 35.198-129 51.101-30.601 11.199-61.398 22-93.101 29.8-15.603 3.802-30.7 3.899-46.302-.101-29.1-7.399-57.898-15.699-85.698-26.8-64-25.399-128.802-48.802-193-73.603-3.103-1.199-6.399-2-9-4.199-13.103-11.101-15.2-27-17.7-42.198-6.199-37.2-.199-73.5 9.5-109.399 1.301-4.7 3.301-8.7 7.2-11.7 3.601-2.3 7.5-2.101 11.601-1.8 17.899 1.3 35.899 2.5 53.799 2.7 23.303.199 46.5 3.5 69.803 2.397 8.101-.397 14 3.5 17.801 10.603 3 5.6 5.398 11.5 8.898 16.699 4.102 6.101 8 6.198 12.5.198 4-5.301 6.5-11.601 10.602-16.897 5.5-7.2 10-6.9 14.398.897 3.602 6.399 5.801 13.399 9 20 4.898 10.199 9.5 10.699 16.301 1.399 4.699-6.5 9.102-13.2 13.398-19.899 4.899-7.698 11.602-10.801 20.801-11.398 28.898-1.699 57.898-.8 86.802-2.199 43.802-2.101 87.698-3.2 131.399-7.2 16.5-1.5 33.101-2.3 49.697-4 8.4-.8 14.803 2.7 19.803 9.302 8.301 10.898 16.301 21.898 24.601 32.698 8.302 10.603 12.399 10.7 20.601-.101 10.102-13.199 20.399-26.3 30.102-39.8 6.898-9.7 15.699-14.5 27.301-16.103 60.1-8 119.499-19.1 177.999-35.3 4.601-1.301 11.101-5.2 14.101 3.101-3.101 2.399-7.3 3.102-9.896 6.302-31.301 21.601-57.682 47.914-84.579 74.914-35.201 35.3-60.046 77.58-87.246 119.282-.903 1.403-5.354 9.182-6.556 11.282z"/><path id="hl1" fill="#F7EB6A" d="M1216.525 316.893c38.897-2.101 77.897-2 116.897-2.397 73.603-.899 147.302-2 220.899-1.103 72.601.801 145.3 1.603 217.8 4.103 48.302 1.698 96.603 3.8 144.7 7.601 54.101 4.3 108.199 8.899 161.8 17.899 24.902 4.198 49.902 8.698 73.502 18.198 10.4 4.199 21.302 7.899 28.5 17.5-1.1 7.899-8.198 9.102-13.698 11.602-34.9 16.099-71.302 27.398-108.702 36.398-49.898 12-100.5 20.399-151.198 27.699-5.802.801-9.7 3.103-13.302 7.603-11.398 14.397-22.102 29.198-33.398 43.601-9 11.5-14.5 11.399-23.398-.101-8.4-10.802-16.5-21.802-24.602-32.701-3.398-4.5-7.199-6.4-12.699-6.103-22.899 1.103-45.801 3.199-68.6 5.103-13.302 1.1-26.602 1.8-39.802 2.397-20.301 1-40.5 2.199-60.801 3-36 1.302-71.897 1.899-107.897 1.699-6.701 0-11.4 2.301-15 7.899-4.303 6.801-8.803 13.397-13.303 19.897-2.697 3.803-5.3 8.7-10.5 8.303-5.697-.399-7.3-6.103-9.3-10.7-2.101-4.5-3.5-9.399-5.802-13.8-2-4-2.198-9.899-8.101-10.303-5.899-.397-7.101 5.2-9.399 9-2.698 4.603-5 9.4-8.398 13.603-5.102 6.301-9.602 6.2-14.398-.399-3.602-4.897-6-10.397-8.398-15.897-2.301-5.302-5.899-7.699-11.602-7.603-20.3.2-40.5-1.8-60.8-2.397-30.5-1-61.2-1.302-91.5-6.399-4.899-.8-10-.5-14.899.399-4.601.301-8.899-.699-13.101-2.302-22-9.5-45.102-16.101-66.899-26.101-22.699-10.4-45.801-20.101-67.899-31.7-9-4.7-17.101-10.397-23.3-18.5-8.301-10.897-8.103-20.101.5-30.897 4.5-5.603 10.199-9.5 16.5-12.7 38-19.3 78.1-30.199 120.897-30.603 2.801-.097 5.801.702 8.701-.798zm0 0c-1.603 1.399-3.5 1.603-5.603 1.801-43.601 3.199-85 14.199-124 33.802-8 4-14.101 9.8-18.198 17.8-2.399 4.601-2.199 8.7.198 13.301 5.103 9.897 13.302 16.601 22.802 21.601 23.198 12.301 47.198 23 71.301 33.399 20.397 8.8 41.199 17 62.199 24.2 1.198.397 2.198 1.397 3.301 2.1-4.7 5.4-11 4.104-16.801 3.604-29.799-2.805-59.601-5.104-89.199-9.305-2-.301-4-.101-6-.5-7.7-1.601-11.603 1-12.899 9.199-1.899 12.104-4.699 24.2-7.199 36.2-.399 2-.7 3.899-1.301 5.8-3.399 11.2-9.101 12.7-16.699 3.801-15.399-18-29.602-36.801-44.301-55.301-1.199-1.5-2.101-3.396-5.699-4.8.101 11.601-.2 22.601-2 33.5-.399 2.3-.102 4.7-.602 7-.601 2.899-1.101 6.3-4.601 7-2.801.601-5.103-1.3-6.899-3.2-4.5-4.896-8.199-10.5-12-16-7.898-11.5-16.398-22.6-23.8-34.5-5.302-8.5-12.5-12.8-22.302-14.896-44.1-9.104-87.398-20.803-128.698-39.001-11.6-5.103-23.1-10.401-31.2-20.802-4.102-4.5-6.3-10.198-9.398-15.301-1.7-2.699-1.102-4.8 1.199-6.897 3.699-3.5 7.899-6 12.5-8 12.699-5.2 26.101-7.7 39.601-9.899 39.2-6.301 78.899-6.899 118.399-8.5 60.899-2.399 121.699-4.601 182.699-5.7 21.301-.397 42.602-1.199 63.898-1.8 3.902-.104 7.601.194 11.302.294z"/><path id="sd1" fill="#AB8730" d="M1268.822 478.892c-5.7 9.7-7.196 25.603-9.498 36.2-4.5 20.399-7.198 41.2-6.799 62.2.397 21.5 4.101 42.3 13.799 61.699 1 2.101 2.201 4.101 2.201 6.601-5.103.301-9.103-3.8-15.302-3.699 2.898 7.899 9.4 7.397 14.002 13 4.898 5.897 10.199 11.397 15.302 17.101 5.101 5.7 10.198 11.5 15.198 17.2 5 5.699 9.898 11.5 16.302 19-32.701 3.5-66.448 5.924-98.05 9.325 7.75 5.097 17.12 13.215 20.12 15.715 21.698 18.199 38.087 33.119 59.786 51.319.801.6 2.742 2.542 3.543 3.042-3.657 3.021-5.236 4.632-8.635 7.132-11.5 8.5-21.832 18.928-33.332 27.529-11.5 8.601-19.836 17.838-31.336 26.338-3.1 2.301-4.898 4.7-5.398 8.801-3.9 30-8.199 60.103-12.4 90.103-4.6 32.6-9.299 65.3-14 97.897-2.198 1.199.232-6.748-.669-7.948-6.601-26.801-16.63-47.45-27.031-73.15-6.6-16.102-14-31.7-24.6-45.5-5.701-7.5-11.944-11.904-20.244-16.404-9.301-5-20.701-11.28-28.996-11.049-8 2.698-7.551 3.667-11.448-3.536-31.398-56.8-63.812-108.313-95.214-165.214-54.801-99.1-109.5-198.199-164.198-297.3-4.7-8.4-9-17.102-13.5-25.602 1-5.802 5.198-3.7 8.3-3 4.5 1.102 8.601 3.5 12.898 5.3 40.102 16.7 81.802 28.398 124.199 37.302 10.899 2.3 18.7 7.397 24.801 16.601 11 16.699 22.899 32.801 34.199 49.301 2.603 3.801 5.103 8.602 10.899 6.699 5.199-1.699 4.699-6.699 4.898-11 .4-6 1.9-11.801 2.301-17.801.199-3 .899-6.3 4-7.6 3.699-1.5 6.399 1.1 8.602 3.6 8.801 10 16.898 20.603 25.101 31.103 3.5 4.397 6.699 9.198 10.5 13.3 2.899 3.101 5.199 7.601 10.399 6.398 5.801-1.301 5.898-6.801 6.801-11.198 2.102-10.399 4.8-20.802 6.699-31.302.5-3 1.199-5.898 2-8.801 2.601-10.1 6-12.5 16.398-11.6 23.899 1.897 47.699 4.6 71.5 7 21.5 2.197 43.102 2.697 64.602 5.397 3.601.5 6.502-3.053 9.502-.452-.896-3.25 1.498-.447 1.798-.047zm-28.297-12.099c16 .801 31.897 1.601 47.897 2.398 21.603 1.102 43.199 2.5 64.802 3.399 19.601.899 39.301 1.5 58.897 1.899 5 .101 8 2 10.103 6.397 3.897 8.399 8.101 16.7 12.601 25.899 6.801-8.199 10.5-16.8 15.102-24.699 1.601-2.801 2.898-6 6.699-7 6.5-1.7 10.698.199 13.399 6.8 4.101 9.899 8 19.8 12 29.603.198.601.8 1 1.5 1.897 3.5-1.601 4.698-5.2 6.601-8 5.399-8 10.801-16 15.899-24.3 2.698-4.5 6.101-6.5 11.397-6.301 7.699.301 15.302-.103 23 0 36.699.5 73.302-1.199 109.899-2.8 45.601-2 91.101-4.399 136.5-9 21.897-2.2 21.897-2.103 35 15.3 7.199 9.601 14.397 19.2 21.699 28.7 5.198 6.8 5.601 6.8 10.601.197 12.5-16.397 25.1-32.8 37.399-49.397 3.397-4.699 7.301-6.8 13.101-7.5 69-9.399 137.6-21.199 204.301-41.801 24.8-7.699 49.3-16.399 71.8-29.802 5.2 6.399 5.303 6.603-1 9.5-14.897 7-29.897 13.899-44.897 20.7-9 4-16.398 11-26 14-3.8-3.801-7.8-.801-11.199.199-18.5 5.399-37.301 10-56.101 14.301-30.5 6.899-61.2 12.399-92 17.301-13.103 2.102-26.2 4.398-39.399 5.802-6 .601-9.7 3.198-13.101 7.698-12.2 16.199-24.803 32.102-36.803 48.5-9 12.199-15.8 8.699-22.101.5-9.101-11.898-18.5-23.602-26.899-35.898-5.101-7.602-11.3-9.8-19.601-7.699-9.802 2.5-19.899 1.899-29.699 2.6-14.198 1.104-28.5 2-42.698 3.104-16.5 1.199-33.302.199-49.699 3.199-1.301.197-2.7.197-4 .197-33.603-.197-67.103 3.2-100.801 2.303-14.603-.399-29.103 2.801-43.802 1.801-4.1-.301-6.801 1.6-9 5-5.801 9-11.897 17.699-17.6 26.699-2.9 4.601-6.4 7.601-12.104 7-5.396-.603-7.698-4.399-9.5-9-3.698-9.5-7.801-18.803-12-29-6.896 6.301-8.698 14.5-13.6 20.697-1 1.303-1.5 3-2.4 4.303-5.301 7.801-13.5 7.801-18.301-.5-3.799-6.603-7.199-13.603-10.299-20.5-2.201-4.899-5.5-7-10.9-6.699-26.301 1.1-52.5-1.604-78.801-2.5-19.199-.604-38.5-.7-57.601-3.4l-.5-.5c-2.799-4.199-7.5-2.897-11.399-4.1-5.892-1.696-13.792 1.003-16.392-7.497zm-12-2.099c-5.7-.101-11.302 0-17-.5-33.802-3.101-67.603-6.198-101.302-10.5-7-.897-7.198-.897-8.801 6-2.5 11.399-4.5 22.899-7.103 34.199-1.897 8-2.1 16.399-6.6 25.301-20.601-25.801-40.5-50.801-60.5-75.897-.802.3-1.5.5-2.302.8-.5 18.399-1.198 36.7-3.101 55-3.899-.5-4.699-3.398-6.101-5.5-9.399-13.398-19.602-26.3-27.801-40.3-9.199-15.801-21.301-23.801-39.699-27.2-40-7.399-78.899-19.101-116.5-35.2-12.302-5.3-23.398-12.5-35.398-18.397 2.8 8 7.3 15.101 11.8 22.198 3.5-3.301 6.2.102 8.9 1.302 17.896 8.198 36.299 14.8 55 21 28.5 9.501 48.604 15.148 77.805 21.45 5.603 1.198 19.675 5.515 22.875 10.313 7.539 9.751 7.539 9.751 20.439 28.352 1.101 1.602 18.378 26.583 19.68 28.083 3.198 3.698 6.399 8.303 10.899 6.699 4.553-1.7 4.324-4.507 4.824-8.708.197-2 1.028-9.203 1.229-11.203.802-8.102.5-16.04 6.693-16.887 4.308-.903 14.625 12.792 21.125 20.992 7.6 9.601 14.924 19.053 22.625 28.652 2.897 3.602 5.604 6.454 10.205 5.454 4.602-1.102 4.808-4.355 5.509-9.355.897-5.9 2.485-11.28 3.688-17.182 2.198-10.398 3.021-21.643 7.651-31.354.9-3.7 8.351-6.91 14.152-5.311 5.897 1.601 15.979 1.334 21.879 1.935 18.101 2 29.17 2.429 47.269 4.828 10.2 1.3 19.671 1.633 29.974 2.433 16.197 1.301 31.881 3.307 48.279 2.704-1.3-3.199-8.697-3.997-16.099-5.196-8-.397-11.3-2-12.601-6.801-3.592-.804-7.592-1.505-11.592-2.204zm-20.201 482.802c-4.6 32.601-9.299 65.301-14 97.898-.848-2.822.232-6.748-.668-7.948"/><path fill="none" stroke="#000" stroke-miterlimit="10" stroke-width="6" d="M2179.426 387.495s35.101-41.302-284.899-67.899c0 0-966.101-26.5-1093.5 22.8-35.101 14.801-3.601 32.399 12.102 61.5 15.698 29.103 272.94 488.199 272.94 488.199s70.075-9.847 108.359 148.501c18.199-94.898 26.301-188 26.301-188l78.699-65-80.5-69.101 95.1-10.302-60.8-71.198s282.2 106.8 296.101 106.5c13.299 3.198 31.897 12.397 106.197-13.802 59.103-21.301 175-67.101 175-67.101l48.126 56.624s76.576-197.324 229.977-296.525c48.496-27.997 70.797-35.196 70.797-35.196h0z"/></svg>