<svg xmlns="http://www.w3.org/2000/svg" id="hair" viewBox="0 0 3000 3000"><path id="cl1" fill="#1E1E1E" d="M1989.91 384c1.5 28.399-1.8 56.601-4.5 84.699-3.5 35.801-7.8 71.5-13.5 107.102-9.399 58-21.8 115.199-42.399 170.5-7.5 20.1-17.899 38.699-29.8 56.5-1.899 2.898-3.5 6.5-8 7.8-3.101-3.8-2.7-8.7-3.2-13.101-4.5-39.101-11.3-77.801-20-116.199-2.5-10.9-6.8-20.801-12.899-30.102-10.699-16.1-22.8-31.199-35.199-46-6.101-7.3-8.601-7.699-15.4-1-44.1 43.102-78.801 69.5-134.899 93.7-5.7 2.4-13.101 3.4-14.7 10.7-1.899 8.3-.199 16.6 4 24.1 2.101 3.801 4.9 7.2 7.301 10.7 9 13.4 9.3 26.7-.2 40a3105.294 3105.294 0 0 1-18.399 25.4c-.4-5.602 1.6-8.7 3-12 2.399-5.5 4.7-11 7.301-16.4 4.3-8.899 2.6-16.8-3.101-24.3-5.101-6.7-11-12.6-17.2-18.1-11.8-10.302-21.5-21.7-25.399-37.4-1.5-6.3-7-8.4-12.3-10.7-27.9-11.8-73.9-25.6-101.801-37.399-49.699-21-99.5-37-149.199-58-15.301-6.5-17-5.899-25.601 8.301-18.5 30.5-36.101 61.5-53.899 92.398-5.601 9.801-4.301 17.102 1.699 25.602 11.1 15.8 21.6 32.1 32.301 48.1.899 1.4 1.899 2.8 2.699 4.2 3.399 6.3 3 8-3.199 12.3-2.2 1.5-4.5 2.8-6.801 4.2-24.699 15.2-49.5 30.3-74.101 45.5-10.699 6.7-11.101 7.3-7.399 19.399 13.801 44.899 18.168 92.563 28.214 137.462 11.621 44.101 28.271 91.238 49.171 114.838 22.899 25.8 50.1 44.8 84.6 51.7 14.301 2.8 28.4 3 42.301-2.101 8.801-3.199 17.699-5.899 26.601-8.699 2.5-.801 5.3-2.301 7.399.3 2 2.4.5 5.1-.5 7.6-5.199 13-9.899 26.2-12.801 40-6 28.602-6 57.602-3 86.5 1.201 11.801 6.701 22.301 12.5 32.4 4 6.9 8 13.7 11.9 20.4-2.601 3.1-4.9 1.3-6.8.5-60.601-24-116.899-55-165.7-98.7-30.4-27.2-57.699-57.102-82.5-89.5-12.5-16.4-22-33.9-30-52.7-17.3-40.5-9.286-124-24.084-165.4-2.301-6.6-1.912-5.5-5.412-11.6-3.398-5.9-9.899-11.833-16.5-13.333-5.5-1.301-11.729-5.935-17.328-6.834-7.5-1.3-11.359-8.733-13.96-15.434-12.8-33-24.199-66.3-33.199-100.6-12.801-49.101-22.601-98.8-27.399-149.3-3.9-41.801-5.9-83.602-3.601-125.7 2.101-39.3 4.5-78.5 10.399-117.4 2.699-18.3 8.101-35.699 14.601-52.898 2.601-7 4.8-7.602 11.199-3.7 11.601 7.2 23.101 14.6 34.601 21.899 3.801 4.801 9.801 6.399 14.301 10.199.699.7 1.399 1.2 2.199 1.602.899.398 1.699.8 2.5 1.398 21.1 12.301 39.5 27.9 56.199 45.602 11.199 11.898 23.4 22.8 35.301 33.898 5.301 4.9 10.801 5.7 17.399 3.2 57.2-21.7 116.899-30.899 177.301-37.399 39.101-4.199 78.199-7.399 117.399-9.199 30.601-1.4 61.301-1.7 91.801 1.898 33 3.9 66.398 5.2 99.199 11.5 37.699 7.2 74.899 16.2 110.301 31.302 9.699 4.1 19.1 5.1 29.199 2.198 44.101-12.6 84.699-31.898 119.199-62.8 3.294-2.798 6.196-8.098 11.794-3.599zm-143.36 751.43c-9.601 14.602-5.912 18.474-22.113 25.074-8.699 3.5-34.436-6.472-42.386-9.976-7 .7-.927 15.72 3.073 21.321 6.301 8.6 5.137 44.175 6.899 60.72-1.723 23.459-2.273 62.259 1.527 77.459 1.699 6.6 6.648 1.012 11.549-3.39 10.8-9.6 36.67-64.799 42.67-78.197 13-29.102 7.68-66.109 6.881-96.711 0-.6-2.601-3.1-3.301-4.198-3.599.898-5.399 5.697-6.8 7.898h2.001z"/><path id="hl1" fill="#3B3B3B" d="M1989.91 384c-21.1 20.101-44.5 37-71 49.399-19.3 9-38.899 17.3-59.699 22.601-11.101 2.801-21.301 2.301-31.899-2.899-19.801-9.7-41.2-15.5-62.399-20.9-25.801-6.6-51.9-11.898-78.4-14.898-24.801-2.801-49.699-4.602-74.5-7.2-19.301-2.101-38.6-2.2-57.899-1.9-36.3.7-72.5 2.7-108.601 6.4-23.199 2.399-46.399 4.5-69.5 7.5-40.699 5.2-80.699 14-120.1 25.1-8 2.301-15.701 5.4-23 9.7-8.4 4.9-9.801 4.7-16.4-1.7-13.801-13.5-27.801-26.699-41.199-40.6-16.5-17.101-35.2-31.5-53.301-46.601-.699-.601-1.399-1.199-2-1.899-.899-2.5.199-3 2.4-2.4.6.2 1.199.4 1.799.7.701.601 1.5 1.3 2.4 1.601.6.101 1.1.301 1.6.5.701.601 1.5 1.101 2.301 1.5 8.199 3.699 16.301 7.5 24.5 11.199 46.9 21.602 96 30.301 147.699 27.9 58.602-2.7 117-7.3 175.5-10.601 56.9-3.301 113.801-2.601 170.701.5 43.799 2.399 86.399 11.5 129.5 18.101 26 4 52 7.7 78.399 7.6 34.699-.1 66.199-10 95.5-28.199 10.5-6.5 20.3-13.899 29.899-21.699 2.5-2 4.5-5 8.8-4.5 1.7 5.394-1.101 10.496-1.101 15.695z"/><path fill="none" stroke="#000" stroke-miterlimit="10" stroke-width="6" d="M1989.91 384l1.601 27.801c-12.899 178.199-26.601 189.5-28.8 214.5-2.201 25-30.399 112.3-34.7 123.699-4.3 11.399-36.8 72-37 59.601-.199-12.4-15.899-97.4-20.601-119.8-4.699-22.4-12.8-31-13.899-37.102-1.101-6.1-33.899-41.6-34.699-45.699-.801-4.101-8.899-18.899-21.301 1.399-34.899 42.7-127.8 88.3-132.199 90.2s-17.801 4.9-13.399 22.3c30.6 46.601 18.399 44 16.899 51.9-1.5 7.898-22.899 38.2-22.899 34.6 0-3.6 8-33.7 11.1-41.6 3.101-7.9-13.199-15.4-17.301-23.4-4.1-8-23.199-10.1-26.8-31.899-3.601-21.801-18.6-21.801-18.6-21.801s-231.601-87.3-250.7-95.3c-19.101-8-23 9.4-23 9.4s-38.4 69.6-51 87.3c-12.601 17.7-2.8 28.3-2.8 28.3s15 32 32.198 47.9c17.201 15.898-.898 20.5-.898 20.5s-66.7 40.898-80.4 49.398c-13.699 8.5-7.8 9.2-4.899 21 11.801 68.302 34.285 189.702 64.785 235.502 87.801 96.1 148.5 60.398 151.301 59.5 2.801-.9 28.801-16.102 22 .898-24.899 58-17.199 124.302-17.199 124.302 6.699 34.3 35.3 67.1 22.6 59.198-66.3-20.8-153.699-75.5-217-146.398-49-40.602-70-105.7-70-105.7s-10.528-122.408-20.286-156.7c-6.676-23.466-28.049-25.921-28.049-25.921-4-1-17.351-3.479-21.15-13.579-15.1-23.7-44.899-126.3-55.899-195.7s-18-166.6-6.601-259.9c11.4-93.3 24.601-102.898 24.601-102.898s46.101 28.6 72.101 41.199c74 35.101 151 36.5 206 34 174.899-18 302.899-18 390.801 2.601 87.898 20.6 149.699 12.899 149.699 12.899 47.601-6.5 107.399-52.301 107.399-52.301 1.994 4.5-1.006 15.801-1.006 15.801h0zm-142.159 746.729s-3.7 50.799-65.7 20.799c-6.246-.627 1.871 14.153 8.5 40.5 2.613 15.88-.601 91.901 3 118-.101 15.102 19.814-14.366 23.614-18.465 0 0 46.285-64.035 37.386-155.535-.701-13.697-6.8-5.299-6.8-5.299z"/></svg>