<svg xmlns="http://www.w3.org/2000/svg" id="hair" viewBox="0 0 3000 3000"><path id="cl1" fill="#3E3633" d="M1247.5 389.5S1217 396 1195 413c0 0-34.5 25-43 41 0 0-7 15-12.5 28.5 0 0-27.5 28.5-50 41 0 0-37 19-56.5 61.5 0 0-25 50.5-21 120 0 0 .5 11.5 10 32 0 0 5.5 87 57 134 0 0 19 15 46.5 18.5 0 0 20.5 1.5 44 41 0 0 13 24 32.5 27.5 0 0 38.5 9.5 57.5-3.5 0 0 12.5-17.5 9.5-53 0 0-25.5-19-11-45 0 0 9.5-12 18-35.5 0 0 5.5-25 3.5-49 0 0 1-3-12.5-5.5 0 0-28-4-4-48.5 0 0 4.5 2 1-11.5 0 0-8-12 11.5-27.5 0 0 57-41.5 86-29 0 0 17.5 19.5 30.5 28 0 0 36 25 85-8.5 0 0 33.5-30 52.5-36 0 0 25.5-15 62.5 6.5 0 0 36 26 59.5 27.5 0 0 11.5 4 31-15.5 0 0 21.5-15.5 43.5-10.5 0 0 66 10.5 98 3 0 0 34.5-4.5 55.5-39 0 0 14-21.5 13.5-55.5 0 0 .5-27-33-50.5 0 0-23.5-23.5-76.5-32 0 0-22.5-5-35.5-30 0 0-17-34.5-73-53.5 0 0-64.5-31-147.5-13 0 0-38.5 7.5-67.5 24 0 0-69 10.5-118.5-1.5l-94-4z"/><path id="sd1" fill="#332C2A" d="M1061.4 544.9s-.899 56.6 14.3 77.8c0 0 13.5 26 45 16.8 0 0-2.8 1.301-4.8 7 0 0-10 28.301-3.3 56 0 0 4 23 13.3 29.301 0 0 10.5 11.8 32 1.8 0 0-2 14.3 5.5 26.5 0 0 10 28 26 42 0 0 26.3 19.3 39.5 24.8 0 0 41.3-30.8 48.5-34 0 0 1 35.2-22.3 69.9 0 0-7.4 25.699 12.4 37.8 0 0 1.899 46.3-9.2 54.8 0 0-33.101 12.6-66.2-.8 0 0-16.4-15-24.4-26.8 0 0-15.199-30-33-34.801 0 0-39.3-11.6-54-20.6 0 0-22.3-24.1-33.699-48 0 0-25.5-62.5-24.4-80.9l-3.3-12.399-7.8-19.4s-.4-82.1 14.899-110.2c0-.2 21.2-50.2 35-56.601z"/><path id="hl1" fill="#483E3B" d="M1150.3 457.801s43.399-63.5 104.1-68c0 0 67.2.3 85.9 3.699 0 0 61.1 16.301 116.899 1.9l5.5-1.8s60.801-32.101 125.2-28.101c0 0 104.3 5.4 151.601 59.801 0 0 4.5 3.899-24 5.399 0 0-8.5 1-24.5-3.8 0 0-53.801-22.3-82-24.5 0 0-25.801-5.3-40.301-3.8 0 0-60-4.8-95.5 40 0 0-2.4 3.2-5.8-.7 0 0-27.7-14-48.2-18 0 0-48.5-11.8-67 13.5 0 0-1.4 1.3-.4 7.4l-3.799-5s-4.801-6.4-13.301-9.801c0 0-26.1-8.899-45-10.6l-32.5.1s-23.3 2.9-41.3 11c0 0-56 26.4-63.3 31h-2.301l.002.303zm60.2 154.699l50.3-36.3C1275.5 564 1295 556 1295 556c8.8-3 11.3-2 11.3-2 7.3-1.5 14.8 2.301 14.8 2.301 12.3.8 7.5-4.301 7.5-4.301-9.5-7-37.8-13.5-37.8-13.5-27.8-7.8-53.3 3.301-53.3 3.301-48 26.8-43.301 62.8-43.301 62.8l16.301 7.899zm388.9-73.699c18.9 4.3 60.101 20.5 60.101 20.5 8.5 6.5 9.5 9.8 9.5 9.8 9.5 8 9 2.8 9 2.8-36.801-58.8-77.5-63.8-77.5-63.8-16.5-3.8-39.801 2-39.801 2-10.5 5-40 16-40 16 10.8-.3 78.7 12.7 78.7 12.7zm161.4-21.401c4.3.1 54.899 12.6 54.899 12.6 8.5 1.4 35.801 9.9 35.801 9.9 11 3.1 20.399 12.9 20.399 12.9 5.9 4.8 5.8 2.6 5.8 2.6-2-9.1-30.3-36.4-30.3-36.4C1833.5 506 1820 503.6 1820 503.6c-13.601-4-26.4-1.601-26.4-1.601-17 1.601-32.1 15.4-32.1 15.4"/><path fill="none" stroke="#000" stroke-miterlimit="10" stroke-width="6" d="M1247.5 389.5S1217 396 1195 413c0 0-34.5 25-43 41 0 0-7 15-12.5 28.5 0 0-27.5 28.5-50 41 0 0-37 19-56.5 61.5 0 0-25 50.5-21 120 0 0 .5 11.5 10 32 0 0 5.5 87 57 134 0 0 19 15 46.5 18.5 0 0 20.5 1.5 44 41 0 0 13 24 32.5 27.5 0 0 38.5 9.5 57.5-3.5 0 0 12.5-17.5 9.5-53 0 0-25.5-19-11-45 0 0 9.5-12 18-35.5 0 0 5.5-25 3.5-49 0 0 1-3-12.5-5.5 0 0-28-4-4-48.5 0 0 4.5 2 1-11.5 0 0-8-12 11.5-27.5 0 0 57-41.5 86-29 0 0 17.5 19.5 30.5 28 0 0 36 25 85-8.5 0 0 33.5-30 52.5-36 0 0 25.5-15 62.5 6.5 0 0 36 26 59.5 27.5 0 0 11.5 4 31-15.5 0 0 21.5-15.5 43.5-10.5 0 0 66 10.5 98 3 0 0 34.5-4.5 55.5-39 0 0 14-21.5 13.5-55.5 0 0 .5-27-33-50.5 0 0-23.5-23.5-76.5-32 0 0-22.5-5-35.5-30 0 0-17-34.5-73-53.5 0 0-64.5-31-147.5-13 0 0-38.5 7.5-67.5 24 0 0-69 10.5-118.5-1.5l-94-4z"/></svg>