<svg xmlns="http://www.w3.org/2000/svg" id="hair" viewBox="0 0 3000 3000"><path id="cl1" fill="#352E2B" d="M1211.5 496.5s88.5 47 107 60.5c0 0 29.5 37.5-22.5 96.5 0 0-16 18.5-33 22 0 0-17.5 12.5-23.5 34 0 0-12 41.5-13 76 0 0 9 25 30.5 31.5l-9 59.5s-23 24-52 38.5c0 0-33.5-23.5-78.5-26 0 0-31.5-3.5-43.5-25.5 0 0-67-174-53.5-270.5 0 0 4-85.5 93-157 0 0 104-80.5 304-89 0 0 84-8 171 4.5 0 0 185 25 281 87 0 0 21 10.5 25.5 18.5 0 0-12 60.5-51.5 110 0 0-67.5 35.5-148.5-13 0 0-71-33.5-101.5-35.5 0 0-18-7-24.5-29l-17.5-55.5s-6-6.5-5 2c0 0 21.5 54 17.5 76.5 0 0-53.5-13-76-13 0 0-9.5-7-21.5-18 0 0-25-41-41-51.5 0 0-15-11.5-2.5 5.5 0 0 30 23.5 45 65.5 0 0-38.5 11.5-56 26 0 0-28.5 14-49 23.5 0 0-9 7.5-40.5-6.5l-52.5-21s-82-46-58.5-26.5z"/><path id="sd1" fill="#2B2523" d="M1023.4 574.4s31.1 87.6 107.1 69.1V663s11.9 21.7 40 27.5l58.3 20.3s3.7 17.7-33.3 21.7h-74s25.5 27 52 33c0 0 59.8 33.4 61.5 77.5 0 0 4.4 34.4-8.5 52.5L1196 915s-51.5-28.5-78.5-26c0 0-31.8-1.7-46.4-33.3 0 0-73.3-206-47.7-281.3z"/><path id="hl1" fill="#3F3733" d="M1326.8 584c-10.7 72.5-59.3 91-59.3 91-38 14.5-42.4 109-42.4 109 3.1 13.5 32.4 35 32.4 35l-9.5 57.5-21.5 19c15.5-28 8-58.3 8-58.3-14.1-50.8-60.9-71.7-60.9-71.7-32-11.5-50-31-50-31 50 0 84.2-4.1 84.2-4.1 21.7-2.1 28-27.4 28-27.4 7.9-14.1 1.8-23.5 1.8-23.5-39.4-67-89.1-80.7-89.1-80.7 47.5 16.8 87.2 33.7 87.2 33.7 48.2 14.5 60.3-19 60.3-19 7-32.5-43-52-43-52 21 1.5 73.6 20 73.6 20m408.2-198.8S1707.5 490 1702 513.5c0 0 29-45.5 67.5-62 0 0 0 55-7 78.5 0 0 27.5-38 46-51v72s4-6.5 17.5-13c0 0 33.7-13.2 50.8-26.8 0 0 16.2-33.7 18.2-54.2 0 0-71.2-53-160.2-74.3z"/><path fill="none" stroke="#000" stroke-miterlimit="10" stroke-width="6" d="M1211.5 496.5s88.5 47 107 60.5c0 0 29.5 37.5-22.5 96.5 0 0-16 18.5-33 22 0 0-17.5 12.5-23.5 34 0 0-12 41.5-13 76 0 0 9 25 30.5 31.5l-9 59.5s-23 24-52 38.5c0 0-33.5-23.5-78.5-26 0 0-31.5-3.5-43.5-25.5 0 0-67-174-53.5-270.5 0 0 4-85.5 93-157 0 0 104-80.5 304-89 0 0 84-8 171 4.5 0 0 185 25 281 87 0 0 21 10.5 25.5 18.5 0 0-12 60.5-51.5 110 0 0-67.5 35.5-148.5-13 0 0-71-33.5-101.5-35.5 0 0-18-7-24.5-29l-19-55s-2.5-6.9-1.5 1.6c0 0 19.5 53.9 15.5 76.4 0 0-53.5-13-76-13 0 0-9.5-7-21.5-18 0 0-26-35.8-40.4-49.6 0 0-13.6-13.4-.1 2.8 0 0 27 24.3 42 66.3 0 0-38.5 11.5-56 26 0 0-28.5 14-49 23.5 0 0-9 7.5-40.5-6.5l-52.5-21s-82-46-58.5-26.5zm32.8 315.2l-33.3 16m-77.3-74.7l94 16.2M1175 685l62.7 30m51.3-53.3s-24.7-28-44.7-40.7m-46.6-85.3c-46.7-30-136-46-136-46m324 50c-115.3-121.3-211.3-138-211.3-138m289.9 78.6c-35.3-61.3-132.7-126.7-132.7-126.7M1565 486.3c-15.3-67.3-65-141.9-65-141.9m152.3 191.3c9.3-94.7-9.3-172.7-9.3-172.7"/></svg>