<svg xmlns="http://www.w3.org/2000/svg" id="hair" viewBox="0 0 3000 3000"><path id="cl1" fill="#3E3633" d="M1135 441S992 545 967 696c0 0-10 71 39 242 0 0 36.2 124 44.6 151 0 0 10.4 13-18.6 60l-23 39 61-6s1 14-6 42c0 0 87-31 136-32l-11-31s-13-25-16-57c0 0-18 15-24 4 0 0-47.8-16-65.9-41 0 0-59.1-59-55.1-96 0 0-5-55 17-69 0 0 29-20 56-16 0 0 8-2 19 11l88 102s58 84 89 100l-23-90s-1-11 8-3l61 33-45-176s3-23 16-41c0 0 26-27 37-61 0 0-6-115-15-154 0 0-2-19 22 8 0 0 220 158 353 136l11-9-102-77s-15-16 10-2c0 0 119 65 175 76l160 17s-46-48-69-91c0 0-2-140-108-224 0 0-92-62-231-86 0 0-124-35-262 12 0 0-88 39-81-66 0 0-27 47-49 78 0 0-99-8-117 42 0 0 88-12 87 20z"/><path id="sd1" fill="#37302D" d="M1044 780c17 84 130 86 130 86 31 111 116.7 208.301 116.7 208.301L1297 1099c-26-13-89.2-100.199-89.2-100.199L1137.5 915c-38 12.5-77.482-2.979-77.482-2.979-19.2 41.9-3.018 74.516-3.018 74.516 38 87 85.401 107.116 85.401 107.116 15.476-18.079 20.399-23.47 20.399-23.47L1200 1192c-48 2-136 32-136 32l6-42-61 6 15.5-26.3c40.5-54.3 24.6-77.399 24.6-77.399l-57.199-199L972.1 786c41.1 12 71.9-6 71.9-6zm292-234s7.2 26.101 3.1 54.5c0 0 231.9 172.5 371.9 150.5l5.9-4.899C1716.9 746.1 1411 684 1336 546zm275 80l12.7 33.7s130.699 68.7 163.899 74.8c0 0 134.5 22.5 177.5 21.5l-30.899-35.5c-.1 0-132.2 21.5-323.2-94.5zm-492.7-164.3c18-8.7 151.301 6 151.301 6-61.301-31.3-138-36.6-138-36.6 30.199 11.4-31.201 39.3-13.301 30.6zm118.2-93.7s-10.2 58.301-4.2 75c0 0 20.301-47.1 40.801-69.899-.001-.001-23.301 7.999-36.601-5.101z"/><path id="hl1" fill="#473E3B" d="M1065 697.7l22.7 6.7s30.699 36 63.3 35.3c0 0 21.3 3.4 38 0l32.7-4s36.699-13.3 38-32l18 37.5s3.3 12.2 13.3 0c0 0 25.3-14.2 34.7-32.8 0 0-3.4 93.1-9.7 111.5 0 0-11.6 13.8-31-4.9 0 0-22-16.699-40-42.699 0 0-9.3-1.301-16.7 3.3 0 0-22 10.7-56 20.3 0 .099-72 6.4-107.3-98.201zm548-86c40-6.7 66-37.3 66-37.3l34.7-50c7.3-14.7 15.3-20.7 15.3-20.7 32 1.3 70 10.7 70 10.7 21.3 8.7 42 20 42 20-8.7-20.7-40-64-40-64-34.7-33.3-80-44-80-44-7.3 30-44 68.7-44 68.7-21.3 18.7-100 60.7-100 60.7-38.7 27.3-149.3 46.7-149.3 46.7 88.3 37.6 185.3 9.2 185.3 9.2z"/><path fill="none" stroke="#000" stroke-miterlimit="10" stroke-width="6" d="M1135 441S992 545 967 696c0 0-10 71 39 242 0 0 36.2 124 44.6 151 0 0 10.4 13-18.6 60l-23 39 61-6s1 14-6 42c0 0 87-31 136-32l-11-31s-16-57-26.199-90.818c0 0-8.801 9.318-20.399 23.47 0 0-21.702-14.641-50.969-34.443 0 0-45.941-48.209-41.941-85.209 0 0-11.473-47.979 10.527-61.979 0 0 12.482 11.479 39.482 15.479 0 0 27.387-15.479 38-12.5l70.5 84s58 84 89 100l-23-90s-1-11 8-3l61 33-45-176s3-23 16-41c0 0 26-27 37-61 0 0-6-115-15-154 0 0-2-19 22 8 0 0 220 158 353 136l11-9-102-77s-15-16 10-2c0 0 119 65 175 76l160 17s-46-48-69-91c0 0-2-140-108-224 0 0-92-62-231-86 0 0-124-35-262 12 0 0-88 39-81-66 0 0-27 47-49 78 0 0-99-8-117 42-.001 0 87.999-12 86.999 20z"/></svg>