<svg xmlns="http://www.w3.org/2000/svg" id="图层_2" viewBox="0 0 3000 3000"><path fill="#DD3636" d="M1157.3 666.7v189.7c0 12.7 12.6 43.3 12.6 43.3l-20.899 6c-54.699-26.7-73.301-18-73.301-18-19.3 2.7-30.699 22-30.699 22C1028.302 929 1033.7 957 1033.7 957l-40 22.7c-14 8-18 31.3-18 31.3-9.3 22.7-10.699 6.7-10.699 6.7 2-38.7 6.699-72.7 6.699-72.7-8.7-104.698 7.3-120.698 7.3-120.698 20.698-32.7 67.3-61.302 67.3-61.302 16.7-12 15.3-13.3 15.3-13.3L1055 660l102.3 6.7zm211.8 5.102s-33.5 74.898-40.4 159.1h66.101c-.103-.002-23.701-130.902-25.701-159.1zm43.2 159.098h290.3c8.9-72.8-16.8-186.1-16.8-186.1-63.9-11.602-235 8.5-235 8.5-8.4 27.502-38.5 177.6-38.5 177.6zm363.1-172.7s-31.7 122.102-59.399 172.8l90.101-.1 1.699-60.2c-.103-.1-20.001-96-32.401-112.5z"/><path id="cl1" fill="#293243" d="M929 297.5s19 42.5 46 85.5c0 0 55 74 83 103 0 0 9.698 10.302-9.7 5.302 0 0-78.7-24.302-134-74.001 0 0-6.3-4 0 10.001 0 0 16.3 33.3 34.7 55l84.3 89.3s17.3 13-5.7 10.3c0 0-75.3-9-98.7-7.3 0 0-8.3-.3 2.7 7.7 0 0 97 51.3 119 74l4.3 3.698 102.3 6.7s-6.698 121.3 0 177v12.7s10.7 38 14 47.7l41.7 139.7 21.7 50.699s3.3 2 4.3-10l18.7-184.301s1-24.3 8.7-.3l35 86.3s4.3 4.7 5.3-7.699c0 0 20.3-127.699 21.7-145l6.3-55s20.3-86.301 27-98.301c0 0 5.6-25.3 9.3.801 0 0 11 88 13.3 103.5 0 0 12.302 54.301 15.5 69.5 0 0 5.5 20.5 10.5-12.5l17-85.801s16-80.5 23.5-102.3c0 0 20-74 39.5-92.3 0 0 15.802-16.8 33.5 8.8 0 0 20.302 21 41.302 63.5 0 0 9-38.8 20.5-65.8 0 0 25.3-51 61-9.3 0 0 27.8 37 39.3 86.5 0 0 29.3 100.8 15.8 194.3 0 0-4 33 14.5-8 0 0 44.5-94.5 57.5-166 0 0-1-25.5 13.5 21.5 0 0 20.5 61.5 21.5 94 0 0-7 158.5-12.5 191.5 0 0 1.5 13.5 16-20.5 0 0 14.5-42 26-65.5 0 0 5-12 5 15 0 0 5.5 109.5 2.5 141.5 0 0 4.5 7.5 13-12 0 0 26-53 34.5-79 0 0 21-77 29-226.5 0 0 1-15.5 7.5 2.5 0 0 24 57 27.5 78 0 0 3.5 33 3 51 0 0 4.5 2.5 16.5-52 0 0 15.5-71.5 9.5-124.5 0 0-8-63.5-19-94 0 0-49-136.5-146.5-190 0 0-77.5-58-191-69.5 0 0-155-25.5-274.5 6l-52 8.5s-81.5-8.5-219.5-58c0 0-14-5 7 16 0 0 50.5 55.5 62.5 71.5 0 0 15.5 25.5-19.5 16.5 0 0-97-16.5-201-90.5-.102-.098-5.702-3.796-3.602.902z"/><path id="sd1" fill="#1C222E" d="M1155 520l-95.102-28.1L972.5 379c-16.7-22.898-35.802-65.3-35.802-65.3C1009.3 384.301 1155 520 1155 520zm-207.7-39.698L1037 574.7c9 8 0 8.3 0 8.3-19.7-2-110.9-6.3-110.9-6.3C1043.8 642.1 1055 660 1055 660l102.698 6 3-57.698C1094.3 602 922 434.7 922 434.7l25.3 45.602zM1234 622l-77 198 .3 36.302s44.3 167.3 63.7 206.198l15.398 34.5 5.2-39.198 17.899-167.9s1.301-3.5 8.399 14l36 86.101 20-124 8-63s11-60.601 17.101-82.301l15.899-50.1 2-4.5-4.5-37.5L1286 862l-52-240zm169.5 240.5l12-43c9-57 35.3-166.3 35.3-166.3 19.6-11.6 234.1-12.1 234.1-12.1 30.4 58.7 16.601 208.2 16.601 208.2 20.5-39.602 20-91.9 20-91.9 3.5-99-31-173.5-31-173.5-19.5-46.5-53-45-53-45-29 .5-38.5 11.1-38.5 11.1-15.801 8-34 83.2-34 83.2l-29.601-49.1c-27.2-44.5-47-21.2-47-21.2-21.6 17.4-104.899 204.6-104.899 204.6 3.999 24.5 19.999 95 19.999 95zm129.5-388s12 73.5 15 93.5l15.5 6 64.5-89.5-41 22.5-2.5-42.5L1556 507l-23-32.5zM1776.5 633s-8 28.5-6 40.5l6-11.5 10.5 21.5s29.5 68.4 18 168.2c0 0-.5 89.3-9 120.3 0 0 3.698 5.802 9.898-7.3l20.602-52.1s7-145 0-181c0-.1-30.5-67.6-50-98.6zm87-6s5.898 98.802.198 118.4l-22.1 135.9s6.899 118.2 3.899 161.199c0 0 4.199 7.199 16.5-19.199 0 0 30.601-61.602 37.301-100.102l9.699-80.1C1909 843 1874 670 1863.5 627zm55.1 6l3.9 88.7s10.398 8.102 33.398 78.7c0 0 4.102 41.1 4.602 62.1l6.198-19.6s2.302-31.4-2.198-52.4c0 0-8.802-122.5-45.9-157.5zM1080 287.5c88.5 86.5 78 101 78 101 18.3.2 14.5-15 14.5-15-6-13.5-35-43-35-43-30.5-39.5-58.302-45.3-58.302-45.3"/><path fill="#F27979" d="M1072 660.5l-.5 6.5c1 19 7.5 84.5 7.5 84.5 49 36.5 75.698 49.602 75.698 49.602l.601 15.898-9.799 5.102c-16-7.5-70.701-50.3-70.701-50.3l-18.399-11.2 5.3-10.8L1051 660.6l21-.1zm-21 99.1s-67.5 39.3-78.5 83.6c0 0-3.9 46.7-3.102 63.8l4.602-4.5s4-19 17-34c0 0 9.8-23 19.1-32 0 0 28.9-39 40.9-48 0 0 9.5-12.9 0-28.9zM974 954s-6.4 42.802-4.7 68.4c0 0 4.5-49 59.1-62.4 0 0 1.9-11 5.2-23.698 0 0-16.5-3.7-32.3 13.3 0-.102-8.3 6.898-27.3 4.398zm470.6-276.5c139.1-27 245.199-16.5 245.199-16.5l-4.101-16.198c-22.8-8.302-235 8.5-235 8.5L1444.6 677.5z"/><path fill="none" stroke="#000" stroke-miterlimit="10" stroke-width="6" d="M932.5 296.5c104 74 201 90.5 201 90.5 35 9 19.5-16.5 19.5-16.5-12-16-62.5-71.5-62.5-71.5-21-21-7-16-7-16 138 49.5 219.5 58 219.5 58l52-8.5c119.5-31.5 274.5-6 274.5-6 113.5 11.5 191 69.5 191 69.5C1918 449.5 1967 586 1967 586c11 30.5 19 94 19 94 6 53-9.5 124.5-9.5 124.5-12 54.5-16.5 52-16.5 52 .5-18-3-51-3-51-3.5-21-27.5-78-27.5-78-6.5-18-7.5-2.5-7.5-2.5-8 149.5-29 226.5-29 226.5-8.5 26-34.5 79-34.5 79-8.5 19.5-13 12-13 12 3-32-2.5-141.5-2.5-141.5 0-27-5-15-5-15-11.5 23.5-26 65.5-26 65.5-14.5 34-16 20.5-16 20.5 5.5-33 12.5-191.5 12.5-191.5-1-32.5-21.5-94-21.5-94-14.5-47-13.5-21.5-13.5-21.5-13 71.5-57.5 166-57.5 166-18.5 41-14.5 8-14.5 8 13.5-93.5-15.802-194.3-15.802-194.3-11.5-49.5-39.3-86.5-39.3-86.5-35.8-41.8-61 9.3-61 9.3-11.5 27-20.5 65.802-20.5 65.802-21-42.5-41.3-63.5-41.3-63.5-17.802-25.5-33.5-8.802-33.5-8.802-19.5 18.302-39.5 92.302-39.5 92.302-7.5 21.8-23.5 102.3-23.5 102.3l-17 85.8c-5 33-10.5 12.5-10.5 12.5-3.302-15.3-15.5-69.5-15.5-69.5-2.302-15.5-13.302-103.5-13.302-103.5-3.8-26-9.3-.8-9.3-.8-6.7 12-27 98.3-27 98.3l-6.3 55c-1.3 17.3-21.7 145-21.7 145-1 12.3-5.3 7.7-5.3 7.7l-35-86.3c-7.7-24-8.7.3-8.7.3l-18.7 184.3c-1 12-4.3 10-4.3 10l-21.7-50.7L1171.3 904c-3.3-9.698-14-47.698-14-47.698v-12.7c-6.7-55.7 0-177 0-177L1055 660l-4.302-3.698c-22-22.7-119-74-119-74-11-8-2.698-7.7-2.698-7.7 23.299-1.7 98.698 7.3 98.698 7.3 23 2.7 5.7-10.3 5.7-10.3L949 482.302c-18.302-21.7-34.7-55-34.7-55-6.3-14.001 0-10.001 0-10.001 55.3 49.699 134 74.001 134 74.001 19.3 5 9.7-5.302 9.7-5.302-28-29-83-103-83-103-27-43-46-85.5-46-85.5-2.1-4.698 3.5-1 3.5-1zM1251 702.302c-6 84 8.6 187.5 8.6 187.5m581.4-6s20.6-86.102 24-158.102m59.3-6.898s3.3-57.102-12-114.5m-742-20.602c-8 16.7-13 83-13 83m0 0v189.7c0 12.7 12.6 43.3 12.6 43.3l-20.899 6c-54.699-26.7-73.301-18-73.301-18-19.3 2.7-30.699 22-30.699 22C1028.302 929 1033.7 957 1033.7 957l-40 22.7c-14 8-18 31.3-18 31.3-9.3 22.7-10.699 6.7-10.699 6.7 2-38.7 6.699-72.7 6.699-72.7-8.7-104.698 7.3-120.698 7.3-120.698 20.698-32.7 67.3-61.302 67.3-61.302 16.7-12 15.3-13.3 15.3-13.3L1055 660l102.3 6.7zm208 11.5c-27.102 64.8-29.5 65.2-36.7 152.7h66.1c-.002 0-24.002-127.7-29.4-152.7zm47 152.7h290.3c8.9-72.8-16.8-186.1-16.8-186.1-63.9-11.602-235 8.5-235 8.5-8.4 27.502-38.5 177.6-38.5 177.6zm363.1-172.7s-31.7 122.102-59.399 172.8l90.101-.1 1.699-60.2c-.103-.1-20.001-96-32.401-112.5zm-720.3 98.2L1097 789s38.898 33.102 58.398 31.2M971 950.4c28.6 3.4 60-35.4 60-35.4 23.3-26.698 66-126 66-126"/><path id="cl1" fill="#F7E7CD" fill-rule="evenodd" d="M1671.095 684.427c2.919-6.804 17.343-11.846 17.343-11.846l4.729 27.752 3.708 28.229s-6.274 2.152-8.344 1.693c-7.592-1.678-23.801-30.98-17.436-45.828zm15.917 61.148c-.281 6.265 12.814 17.291 12.814 17.291l-.658-16.533-1.747-12.541c0 .001-10.271 8.681-10.409 11.783zm-21.702-20.12c15.211-6.365-31.925-73.676-48.443-29.195-6.21 16.73 23.683 38.17 48.443 29.195zm25.087 38.923c-5.973-4.918-20.679-14.33-25.028-11.42-10.985 7.355-11.404 34.064-7.082 40.959 6.953 11.079 28.387 13.532 36.862 6.969 2.682-2.083 5.947-3.718 6.217-6.273.803-7.613.303-12.946-.399-19.079-.508-4.429-6.082-7.451-10.57-11.156zm-33.614-23.071c-6.424-10.338-44.916-8.848-50.918 5.257-8.896 20.886 22.574 47.764 35.564 37.133 4.949-4.025 17.416-39.112 15.354-42.39zm21.426-6.33c-12.505-16.899-17.042 23.079-1.031 9.759 3.651-3.034 3.2-6.825 1.031-9.759z"/></svg>