<svg xmlns="http://www.w3.org/2000/svg" id="图层_3" viewBox="0 0 3000 3000"><path fill="#E52E2E" d="M1881.823 679.5S1864.802 554.498 1827 512c-61.987-69.686-157.741-118.349-297.278-142.135-183.121-31.216-329.436 25.948-415.729 66.279-73.813 34.498-160.703 177.22-197.873 353.982-15.25 72.521 5.312 246.966.812 253.223s51.396-5.73 51.396-5.73S936.561 879.85 1029.5 792.5c0 0 5.194 22.808 32.896 79.104s32.21 2.226 32.21 2.226 250.228-209.159 425.438-217.529c175.21-8.371 210.288-60.796 361.779 23.199z"/><path fill="#F26161" d="M1400.5 360.899s226.627-2.856 368.801 95.411C1860 519 1879.93 631.094 1879.93 631.094s16.289 70.047-6.378 60.714 30.282.026-45.718-21.306c-76-21.334-124-79.334-66-87.334s70.666-24.666 20-70.666c-50.668-46-178.002-126.538-381.334-151.603z"/><path fill="#962C2C" d="M1029.5 792.5s21 59.457 22 59 360-178 360-178 164-63 71-85.144-117.153 37.476-148 13.144c-17.801-14.041-50.235 2.345-97.334 4.334-65.134 2.75-90.045-12-100.045-36-3.914-9.392-2.287-37.168 14.713-62.668 36-54 84.668-92.667 84.668-92.667s-100.672 32.669-152.668 75.335c-23.442 19.235-56.037 44.991-107.334 154.666-66.104 141.334-51.507 270.114-51.507 270.114 6.065 40.393 39.436 90.228 40.617 17.192 0 0 13.47-58.251 29.967-96.029 17.374-39.787 33.923-43.277 33.923-43.277z"/><path fill="#F9F2F2" stroke="#000" stroke-miterlimit="10" stroke-width="6" d="M1039.3 900.804c7.227 29.258 34.303 49.29 50.7 38.267 16.397-11.022 27.512-19.603 36.584-41.639 9.071-22.036 22.483-21.474 31.153-29.303 12.396-11.192 15.585-24.613 24.263-35.067 7.984-9.621 14.668-10.341 22.834-15.063 8.164-4.723 22.438-10.28 28.789-22.873 6.35-12.592 24.261-14.034 34.377-18.063 19.832-7.897 29.777-4.226 52-28.565 10.5-11.5 17.613-8.666 28.5-8.666 10.886 0 29.393-6.391 43-15.834s13.263-8.663 22.332-11.164c9.071-2.501 20.537-1.329 34.627-8.553s24.279-5.629 41.509-8.708c21.077-3.768 44.844 7.454 62.53-2.573 18.195-10.316 18.869-6.59 28.668-7 13.696-.573 17.193 3.813 35.338 3.813 18.143 0 23.937-6.049 37.494 3.187 18.403 12.535 30.227 4.983 43.834 13.5 13.605 8.516 28.053.436 43.289 6.334 17.655 6.835 19.889 12.556 32.588 18.851 12.701 6.296 11.738-1.333 30.789 1.814 19.052 3.147 25.729 2.601 34.802 10.472 9.071 7.87 5.313 17.516 19.198 21.277 13.223 3.58 17.328-4.486 25.451 3.944 10.162 10.547 6.239 10.252 18.033 11.827C1913.779 782.595 1919 761.565 1921 742c1.84-18.009 10.514-39.5-4-54.5-10.944-11.311-1.119-10.707-13.821-25.801-12.701-15.094-23.442-10.199-40.679-10.199-17.237 0-27.447-7.525-46.666-15-17.271-6.717-28.489-18.616-56.334-26-27-7.158-45.74-1.146-72.334-6-35.664-6.51-49.688-14.475-80.377-9.75-27.089 4.17-38.354-1.032-54.558-4.451-16.202-3.42-45.231-3.42-60.654 9.173-15.421 12.592-27.215 17.313-45.358 15.739-18.143-1.573-46.6-.394-53.719 6.623-7.119 7.018-19.355 7.885-36 15.666-22.785 10.652-26.951 4.278-46 9-19.052 4.723-33.11 21.675-42.953 23.895-9.843 2.219-31.684 9.511-50.213 21.707-21.316 14.03-25.709 21.622-37.503 31.064-11.793 9.444-37.386 12.343-47.364 24.935-9.979 12.591-16.104 20.509-37.705 39.396-20.365 17.806-51.514 35.267-55.598 51.004-4.083 15.738-10.749 18.235.136 62.303h0z"/><path fill="none" stroke="#000" stroke-miterlimit="10" stroke-width="6" d="M1881.823 648S1878 492 1692.094 413.433c-195.698-82.708-372.929-54.949-509.931-6.276-137.004 48.673-154.227 114.479-173.949 140.91-19.722 26.432-119.918 234.916-97.82 391.006s36.099 38.722 36.099 38.722 14.248-31.648 21.658-63.179c7.41-31.529 27.687-95.442 61.347-122.113 33.662-26.672 43.662-39.338 43.662-39.338M1043.371 830.385s-8.199-21.213-13.871-37.886"/><path fill="#FFF" stroke="#000" stroke-miterlimit="10" stroke-width="6" d="M845.221 978.644c14.221-25.958 27.802-30.893 41.232-28.806 13.432 2.087 18.93-7.899 34.352-11.061s39.914 3.159 50.184 11.061c10.271 7.9 23.124 19.4 31.603 26.07 8.478 6.671 7.413 45.021 13.833 53.675 6.419 8.654 8.303 22.657 0 34.265-8.303 11.606-13.043 29.512-13.833 41.101s-18.171 35.9-40.292 42.773c-22.121 6.874-48.192 6.021-61.623-1.893-13.432-7.912-14.221-15.85-37.133-13.479-22.91 2.371-39.502-24.504-39.502-41.095s-5.53-32.04-10.271-49.767 6.313-35.676 15.402-39.107c9.089-3.432 16.048-23.737 16.048-23.737z"/></svg>