<svg xmlns="http://www.w3.org/2000/svg" id="wing" viewBox="0 0 3000 3000"><path id="hl2" fill="#A60300" d="M714.3 1507c-8.8 12 28.3-361.8 487.8-367.6 0 0 12.8-2.8 16.199-.2l2.5 2.101s52-7.101 71.701 10.199c0 0-20.601 12-41.801 41.5 0 0-.8 11.101-1.699 10.801.1.8-6.101 7.6-12.301 13 0 0-5.1 76.899 4.301 109.1 0 0 19.299 104.9 105.299 153.2 39.301 22.399 98.9 24.5 138.201 19.7 0 0-84.201 63.899-109.801 131.899 0 0-15.199-21.399-62.4-19.899-26.8-1.801-57.399 6.3-82.6 35.3 0 0-41.9-83.5-123.199-83.8-75.201-.2-102.201 36.6-117 53.3 0 0-24.9-168.4-110-196.3-43.801-14.4-77.801-10.2-112.701 29.399-27.899 23-43.6 46.3-52.499 58.3zm905.2-7s63.8 58.5 84 129.301c0 0 17-20.301 52-18.7 0 0 38-3.3 61.5 35 0 0 32.5-73.8 82.5-82.5s88 18.3 107 50.8c0 0 20.399-191.8 111.1-204.3 0 0 23.1-2.2 40.7 12.4 17 14.399 39.399 45.399 63.399 82.399 0 0-2.8-100.3-78.399-209.899 0 0-94-153-304.7-153 0 0-8.7-6-13 1.699l-3-1s-36.8-6.8-55 9.301c0 0 22.8 19.199 35.3 44.8 0 0-1 5.3.5 8.8s7.8 8.8 9.3 11.7 1.5 84.8-1.5 97.8c0 0-11.3 125.5-104 175.5.1-.1-27.9 15.7-87.7 9.899z"/><path id="sd1" fill="#8D0300" d="M768.5 1446s80-223.5 351-265.5c0 0 25.3-11.6 46.8-11 11.899 1.9 16.8 15.101 22.399 27.801 0 0 9.601 17.3 15.101 26.199 2.5 4-1.8 17.9-3.4 17.4 0 0-12.6 1-17.3-.4-4.7-1.399-29.801-11.3-35.1-13.899-5.301-2.601-37 5.1-69.2 23.3 0 0-113.101 68.4-173.101 183.1 0-.001-71.199-58.7-137.199 12.999zm356.199 118c-6.3-165.699 42.7-205 45-204 1.1-.899 3.801 2.301 11.6 9.101 7.801 6.8 61.4 38.5 61.4 38.5s-35.4-75.3-38.199-88c-8.801-49.7-42.2-21.7-42.2-21.7-72 42-164.8 307.3-164.8 307.3 48.199-56.9 127.199-41.201 127.199-41.201zm163.701 47.801c-5.899-133.5 1.3-117.9 1.3-117.9 12.1 17.3 80.4 39 82.5 40s1.5 3 1.5 3c-2.5 10.4-10.3 57.9-4.3 59.1 4.399.9 6-2.399 13.899-18.1 11.101-22 31.301-45.3 36.801-53.8s-6.6-8.3-6.6-8.3c-21.801-.5-57.9-13.7-57.9-13.7-41.9-14.4-75.6-69-75.1-68.3.5.699-7.801-14.301-30.301 38.5-22.199 52.1-14.8 167.899-14.8 167.899 28.701-26.6 53.001-28.399 53.001-28.399zm526.799 29.699c16.5-108.8-8.699-208.3-8.699-208.3-4-11.2-9.7-9.2-9.7-9.2-2-.5-5.601 7.801-7.101 11.2-29.5 69.9-103.699 80.601-105.6 83.601-3.8 6-1.3 12.8-1.3 12.8 1 1.2 26.2 50.5 24.8 45.7-1.4-4.801-.3-23.2 0-33 .3-9.801 13.5-15.7 13.5-15.7 27.8-9.2 53.2-33 53.2-33-8.7 55.3-37 116.3-37 116.3 55.4-8.401 77.9 29.599 77.9 29.599zm172.1-52.199c-5.699-37.4-22.6-127.101-38.799-182.5-15.701-63.801-51.201-129.5-51.201-129.5-9-16-46.699-57-46.699-57-.301 4-5.7 9.3-5.7 9.3-5.7 7.3-4 16-4 16 1 66.3-17.8 124.3-17.8 124.3 23.8-11.699 36.1-59 36.1-59 23.7 16.301 42.7 78.7 42.7 78.7 21 93.7 14.399 170.9 14.399 170.9 48.701 0 71 28.8 71 28.8zm210-123.301c-74.699-231-254.3-294.8-254.3-294.8-37.8-13.3-65.5-11.5-65.5-11.5-1.5-4-5.8-1-5.8-1-4.8 5-8.3 27.5-8.3 27.5 3.3 6.9 9 10.8 9 10.8 166 .5 210.5 226.801 210.5 226.801 57.4-53.101 114.4 42.199 114.4 42.199zm-384.1-242c.1 0 11.5-13 12.5-15.1 0 0 .301-11.8 0-13.5 0 0-2.1-.6-3.4-1.2 0 0-6.1-6-7.399-5.8.3 0-2.3 0-10.3 16.6 0 0 7.699 10.2 8.399 10.7s-.099 8.2.2 8.3zm-565-20.5c.7-4.1 0-8.699 0-8.699-.5-.7-4.8-6.7-5.3-7-.5-.301-3.5-.801-3.5-.801-4.2 2.801-10 11.5-10 11.5-.8 5.801 8.7 15 8.7 15 3.9-1.699 9.801-9 10.1-10z"/><path id="hl1" fill="#DB0400" d="M1066.5 1157.6c73-21.2 140.699-17.101 140.699-17.101 8-4 16 0 16 0l12 21.301-14.9 9.399-9.1-18c-282-6.699-419.3 174.7-419.3 174.7 88.3-122.699 203.9-156.098 274.601-170.299zM1141 1300s-71 71-76 82.5-73.5 152-77 167.5c.1 11 11.5 34.801 10.5 45 11.5-62.5 77-194.5 86.5-211 8-22.5 56-84 56-84zm111 135s-45.5 77-46.5 157.5l20 22.5s-6.5-91 26.5-180zm-8.166-86.167S1289.501 1535 1472.3 1500c-164.3 13-215.966-116.667-228.466-151.167zM1810 1414s33 144.5 22.5 209c10-14 17.5-18 17.5-18s-1.5-5.5 0-20.5-20.5-144-37-170.5h-3zm68.5-196.5s93 161 125.5 374c5 9.5 11-33 11-33s-51.5-259.5-136.5-341zm-56-49.5s14.5 5 14 7.5 7.5-25.5 7.5-25.5 299.8-23.5 371.5 337l9 13s6.699-39.5-39.301-140.199c-26-56-68-114-121.3-151.301-34.7-24.699-140.7-76-220-69-.3-1.199-8.601-6.3-13.101 2.101.001-.001-4.798 25.099-8.298 26.399zm-64.5 286.5c48-51 50-104 62.8-134.8 17.8-101-3-95.8-3-95.8-.3 24.1 15.7 128.1-59.8 230.6z"/><path fill="#FFF7ED" d="M1802.3 1195.301s-14.3-30.5-34.5-44.301c0 0 12.3-14.8 55.3-9.5-.1 0-2.3 20.5-20.8 53.801zm-582-53.5s2.1 4.399 5.399 10.6c6.5 12.4 17.4 32.2 24.4 39.2 0 0 30-35 43.3-40.8-.099 0-19.599-17.5-73.099-9z"/><path fill="#ECD6C7" d="M1220.3 1141.9l4.8.1s3.5 9 5.2 9.7c0 0 36.3-6.2 60.5-1.2 0 0-24.5 19.301-41.2 42.2-.1 0-22-30-29.3-50.8zm548.899 8.901s15.801 13 33.301 43.5c0 0 14.8-26 20-52.7h-1.7s-3.7 5.8-5 5.7c0 0-31.7-2.2-35.7-1.7-4.1.2-9.8 2.9-10.901 5.2z"/><path fill="#C9B6A9" d="M1768.5 1150.2s2-1.5 5.699-2.5c0 0 16.2.3 35.7 32.5 0 0-6.8 12.2-6.7 14.5 0 0-20.699-35.2-34.699-44.5zm-476.6-.3c-1.1-.8-3.6 0-3.6 0-17.4 6.5-39.601 32.6-39.601 32.6-.399 1.9 4.301 6.301 4.601 5.9 14.1-22 38.6-38.5 38.6-38.5z"/><path fill="none" stroke="#231815" stroke-miterlimit="10" stroke-width="6" d="M714.3 1507c-8.8 12 28.3-361.8 487.8-367.6 0 0 12.8-2.8 16.199-.2l2.5 2.101s52-7.101 71.701 10.199c0 0-20.601 12-41.801 41.5 0 0-.8 11.101-1.699 10.801.1.8-6.101 7.6-12.301 13 0 0-5.1 76.899 4.301 109.1 0 0 19.299 104.9 105.299 153.2 39.301 22.399 98.9 24.5 138.201 19.7 0 0-84.201 63.899-109.801 131.899 0 0-15.199-21.399-62.4-19.899-26.8-1.801-57.399 6.3-82.6 35.3 0 0-41.9-83.5-123.199-83.8-75.201-.2-102.201 36.6-117 53.3 0 0-24.9-168.4-110-196.3-43.801-14.4-77.801-10.2-112.701 29.399-27.899 23-43.6 46.3-52.499 58.3h0zm905.2-7s63.8 58.5 84 129.301c0 0 17-20.301 52-18.7 0 0 38-3.3 61.5 35 0 0 32.5-73.8 82.5-82.5s88 18.3 107 50.8c0 0 20.399-191.8 111.1-204.3 0 0 23.1-2.2 40.7 12.4 17 14.399 39.399 45.399 63.399 82.399 0 0-2.8-100.3-78.399-209.899 0 0-94-153-304.7-153 0 0-8.7-6-13 1.699l-3-1s-36.8-6.8-55 9.301c0 0 22.8 19.199 35.3 44.8 0 0-1 5.3.5 8.8s7.8 8.8 9.3 11.7 1.5 84.8-1.5 97.8c0 0-11.3 125.5-104 175.5.1-.1-27.9 15.7-87.7 9.899h0z"/></svg>