<svg xmlns="http://www.w3.org/2000/svg" id="wing" viewBox="0 0 3000 3000"><path id="cl1" fill="#FFF8E9" d="M1008.3 1203s16.7 6 56 39.301c0 0 174 125.3 299.3 172.699 0 0 22.7 30.7 14.7 40 0 0-11.3 26-53.3 48.7 0 0-94.7 36.7-102 41.3 0 0-60.7 26-109.301 18.7 0 0-19 1.3-30.3-24.3 0 0-149.3 36.7-139.2-35.4 0 0-70.199-15.6-122.3-46.699-31.5-19-53.2-43.301-39.2-71.5 0 0-114-101.7-143.7-196.301 0-1.3-20.3-56.699 46.7-49 0 0 23.7 10.7 85 15.301 0 0 59.3 7 85.7 16.3-.1-.101 50.601-2.401 151.901 30.899zm635.7 211.5s-15 29-14 37.5c0 0 5 23.5 45.5 51.5 0 0 41 20.5 63 29 0 0 29 16 48.5 22 0 0 85.3 30.301 91.5-16.5 0 0 123.3 40 118.3-33.8 0 0 81.7-23.399 119.6-61.2 16-15.899 26.2-35.8 14.4-57.1 0 0 86.8-90.8 122.5-197.3 0 0 13.5-60.3-46.8-47 0 0-34.5 10.3-64 12 0 0-70.5 16.5-76.5 18-1.301 0-89 10.3-119.5 28 0 0-33.5 16.8-53.301 43 0 0-75.8 65.3-114.5 89.3.1.1-112.699 76.401-134.699 82.6z"/><path id="sd1" fill="#C4CFD2" d="M647 1149s-14.5 51 66 134.5c0 0 38 47.5 119.5 57.5 0 0 88.5-.5 144 7 0 0 13 1-14.5 10.5 0 0-50.5 14.5-115.5 24.5 0 0-55.5 6-60.5 3 0 0-140.5-128-149-214.5 0 0-.5-15 10-22.5zm137 237.801c-20 23.3 18 53.199 18 53.199 27 37 146 64.5 146 64.5-14 31 26.5 40.5 26.5 40.5 20 11.5 109.5-8 109.5-8-.4 19.9 24 25 24 25 44.5 5 98.5-12.5 98.5-12.5 19.5-5.5 65.5-27 65.5-27 59-17 78-37 78-37-143.5 53.5-170.5 49.5-170.5 49.5-38 3.5-58.5-13-58.5-13 33.5-18 38.5-39 38.5-39-102.5 62.5-171.5 39.5-171.5 39.5-19-6.5-19.5-18-19.5-18 17 0 71-34 71-34 35.5-25.5 28-24 28-24-12-.5-73 16.5-73 16.5-40.5 7.5-92-6.5-92-6.5-114.5-33-88.5-69.699-88.5-69.699h-30zm975 155.5c26 18 80.699 20.6 80.699 20.6 34.7 7.9 37.301-25.9 37.301-25.9 12.699 6.7 80 10.7 80 10.7 44.699-.7 37.3-44.7 37.3-44.7 121.3-36 129.3-71.3 129.3-71.3 21.3-22.7 4.7-44.8 4.7-44.8 12.7-12.2 75.3-95.2 75.3-95.2 57.3-100.7 50-127.3 50-127.3-2.7-18-9.3-14-9.3-14-6.7 68-58 142-58 142-25.3 28.7-52.7 45.3-52.7 45.3-56 32-109.3 17.3-109.3 17.3-62.7-16-50.7-4-50.7-4 44 20.7 138 38.7 138 38.7 4.7 30-7.3 37.3-7.3 37.3-52 48.7-104 47.9-104 47.9-46 5.9-111.3-38.5-111.3-38.5 14.699 46.7 94.699 63.7 94.699 63.7-11.3 37-76 25-76 25-54.699-9.3-102.699-61.3-102.699-61.3 1.3 26 58 68.699 58 68.699-4 4.7-4.7 3.301-4.7 3.301-82 4-100-8-100-8-104-48-119.3-76-119.3-76-6-8-9.301-4.7-9.301-4.7C1645 1513 1759 1542.301 1759 1542.301z"/><path fill="#231815" d="M1007.699 1205.4c6.7 2.4 15.801 8.8 22.5 13.4 12.301 8.6 23.301 18.8 35.5 27.5 20.1 14.3 40.6 28.1 61.2 41.699 36.8 24.2 74.3 47.5 112.601 69.301 20.699 11.8 41.699 23 63.1 33.6 10.3 5.1 20.6 9.9 31.1 14.5 4.6 2 9.301 4 13.9 6 2.4 1 4.8 2 7.199 2.9 1.2.5 2.4.899 3.5 1.399.5.2 4.301 2.2 3.2.7 3.2 4.4 6.101 9 8.8 13.8 3.4 5.9 8.801 14.9 6.801 22.101-.7 2.5-3 5.5-4.4 7.6-4.199 6.6-9.6 12.4-15.199 17.8-11.5 11-25.101 20.601-40 26.4-13.4 5.2-26.701 10.4-40 15.7-14.5 5.8-29.101 11.5-43.4 17.6-7.6 3.2-12.7 5.9-19.801 8.5-19.3 7.2-39.5 12.6-60 15.3-12.5 1.601-25.199 2-37.699.601-4.7-.5-9-.9-13.4-3-8.5-4.101-13.9-12.2-17.699-20.5-.5-1-1.801-1.4-2.801-1.101-17.199 4.2-34.9 6.801-52.4 8.301-14.199 1.199-28.699 1.5-42.899-.4-11.7-1.6-24.4-4.9-33.101-13.4-7.399-7.3-8.899-17.6-7.6-27.5.1-1-.9-2.199-1.8-2.399-27.2-6.101-54-15-79.8-25.7-21.601-8.9-43.5-19.6-61.601-34.6-16.399-13.601-28.7-33.101-18.6-54.301.5-1 .5-2.199-.4-3-17.1-15.199-33-31.8-48.3-48.699-30.7-33.7-59.4-70.4-80.1-111.2-6.4-12.7-12.5-26.1-15.8-40-2.101-8.7-2.7-18.5 1.2-26.8 7.1-15.2 26.899-15.801 41.3-14.601 2.399.2 4.399 1.101 6.8 1.9 5.2 1.8 10.6 3.2 15.9 4.5 21.6 5.1 43.5 6.7 65.5 9.3a763.83 763.83 0 0 1 42.5 6.3c10.199 1.801 20.3 3.801 30.399 6.4 4.2 1.1 9.101 3.7 13.4 3.6 7.2-.1 14.5.5 21.7 1.2 43.7 3.799 86.901 15.6 128.7 29.299 3.101 1 4.4-3.8 1.301-4.8-42.2-13.8-85.801-25.5-130.101-30-7.2-.7-14.5-1.3-21.7-1.2-.5 0-.6 0-1.1-.199-4.3-1.5-8.8-2.7-13.3-3.801-10.101-2.5-20.4-4.399-30.601-6.199-13.699-2.4-27.5-4.4-41.399-6.101-22.101-2.7-44.101-4.3-65.9-9.6-8.5-2.101-16.2-5.601-23.8-6.2-14.9-1.2-32.3.5-41.9 13.4-6.1 8.1-6.399 19.199-5.1 28.8.4 3.1 1.2 6.2 2 9.2l.3.899c-.2-.899.601 1.9.8 2.7 1.801 5.5 3.801 10.8 6 16.1 17.5 42.2 45.601 79.801 75.101 114.2 19.399 22.7 40.1 44.7 62.399 64.601-.1-1-.3-2-.399-3-21.7 45.699 39.5 76.8 72.6 91.6 28.9 13 59.5 23.4 90.5 30.3l-1.8-2.399c-8.2 61.3 88.1 47.899 123.199 41.699 6.4-1.1 12.801-2.399 19.101-3.899-.899-.4-1.899-.8-2.8-1.101 5.699 12.5 17.3 26 32.4 25.601 4.899-.101 10.1 1.1 15 1.3 6.6.2 13.199-.2 19.699-.8 11.801-1.101 23.6-3.3 35.1-6.2 13.601-3.3 27.2-7.6 40.101-13 8.8-3.7 17.5-7.8 26.399-11.4 25-10.199 50.2-20 75.4-29.8 9.1-3.5 18-10.399 25.6-16.399 7.7-6.101 14.9-12.801 21-20.5 5.5-6.801 11.801-14.801 10.2-23.9-1.3-7.8-5.8-15.4-9.899-22.1-2.2-3.7-4.801-9.601-9-11.2-21.101-8-41.601-17.5-61.801-27.5-42.199-20.9-83-44.7-123-69.601-30.6-19-60.699-38.8-90.3-59.199-6.8-4.7-13.7-9.5-20.399-14.301-3.5-2.5-6.801-5.5-10.101-8.199-8.899-7.301-18-14.301-27.5-20.7-6.5-4.4-13.5-9.3-20.899-12-3.101-1.001-4.401 3.799-1.401 4.898zm634.101 207.8a297.45 297.45 0 0 0-7.601 16.101c-2.899 6.8-6.8 14.6-6.8 22.1 0 2.6 1.5 5.3 2.5 7.5 2.9 6.3 7 12.1 11.4 17.5 11.6 14.2 26.2 26 42.6 34 9 4.4 18.101 8.7 27.2 12.9 4.8 2.199 9.6 4.399 14.4 6.399 3.899 1.7 8.199 2.9 11.899 4.9 23.101 12.7 47.3 23.3 73.2 28.7 23.9 4.899 64.6 8.399 70.199-23.801 0-.3.101-.6.101-1-1 .601-2 1.2-3.101 1.7 17.4 5.601 35.9 9.101 54.101 10.5 23.7 1.8 55.5-.8 65-26.8 2.3-6.3 2.7-13.2 2.3-19.8l-1.8 2.399c24.899-7.1 49.3-17.1 72.3-28.8 31.9-16.3 85.7-50.5 63.2-93.1-.101 1-.3 2-.399 3 16.199-17 30.899-35.7 44.8-54.601 29.6-40 55.5-83.399 73.399-130 3.7-9.699 6.301-17.699 6.301-28 0-10.699-2.7-22.1-10.7-29.699-10.601-10-28.3-9.7-41.4-5.9-8 2.3-16.2 4.3-24.3 6-6.3 1.4-12.5 2.5-18.9 3.5-6.5 1-13.6.7-20 2.2-24.699 5.8-49.5 11.5-74.199 17.399-6.2 1.5-16.5 2.301-24.301 3.5-18.699 2.801-37.3 6.101-55.6 10.5-15 3.601-29.6 8.101-43.4 15.301-16.1 8.399-31.199 19.5-43.899 32.5-4 4.1-7.101 8.899-11.5 12.6-4.101 3.5-8.101 6.9-12.2 10.4-14.4 12.1-29 24.1-43.8 35.8-22 17.399-44.7 33.399-68 48.899-27.101 18.101-54.4 35.9-82.2 52.801-7.9 4.8-15.8 9.5-23.9 13.899-5 2.7-10.1 5.601-15.6 7.2-3.1.9-1.8 5.7 1.301 4.8 10.299-3 20-9.399 29.1-14.699 14.9-8.7 29.4-17.801 43.9-27.101 20.799-13.3 41.5-26.899 62-40.699 30.799-20.801 60-43.7 88.699-67.4 8.801-7.3 17.5-14.6 26.1-22 2.101-1.8 3.601-4.3 5.301-6.4 4.3-5 9.1-9.5 14-13.8 7.9-6.8 16.5-12.8 25.5-18.2 28.1-16.899 61.6-22.5 93.5-27.699 10.9-1.801 21.899-3.601 32.899-4.601 3.5-.3 7.101-1.6 10.601-2.399 7.399-1.801 14.8-3.5 22.199-5.2 13.9-3.3 27.9-6.5 41.801-9.8 7.399-1.7 15.199-1.7 22.8-2.9 11.8-1.8 23.5-4.4 35-7.3 13.7-3.5 29.5-7.9 42.399.6 9.4 6.2 11.601 18.7 11.5 29.1-.1 11.4-4.3 21-8.5 31.601-9.899 24.899-22.399 48.699-36.199 71.6-20.101 33.3-43.301 64.9-68.801 94.1-3.1 3.601-6.3 7.101-9.6 10.601-.8.8-.9 2-.4 3 12.2 23.1-2.899 44.7-20.3 59.8-14 12.1-30.5 21.4-47 29.5-20.899 10.2-42.899 18.9-65.2 25.3-1 .301-1.899 1.301-1.8 2.4 3.601 59-79.8 42.3-114.5 31.5-.2-.1-.399-.1-.6-.2-1.2-.399-2.9.4-3.101 1.7-4.8 33-50 24.9-72.6 19.4-26.699-6.601-50.4-20.4-75.4-31.2-15.6-6.7-30.899-14.1-46.1-21.6-14.9-7.301-28.199-19.801-38.5-32.801-4-5.1-11.3-14.3-11-20.899.4-7.2 4.5-15 7.4-21.4 2-4.4 4.1-8.8 6.3-13.1 1.801-2.601-2.499-5.101-3.999-2.301zm-859.101-25c12.101.101 24.2-.399 36.2-1 20.101-1.1 40.8-2.6 60.4-7.899 26.2-7.101 52.399-14.2 78.7-21.101 4.6-1.199 9.1-2.399 13.8-3.5 3.1-.699 1.8-5.6-1.3-4.8-27.9 6.5-55.601 14.6-83.2 22-13.3 3.6-26.5 6.5-40.3 8-18.5 2.1-37.2 2.9-55.801 3.2-2.8 0-5.5.1-8.3.1-3.498 0-3.498 5-.199 5zM943.5 1506.301c9.699 3 22-.101 31.399-2.601 35.8-9.8 67.8-32.699 96.4-55.399 2.5-2-1-5.5-3.5-3.5-28 22.3-59.3 44.3-94.2 54.1-8.5 2.4-20.6 5.1-28.7 2.6-3.099-1.001-4.499 3.899-1.399 4.8zM1084 1541.7c11.5-4 22.5-10.1 32.8-16.5 22.5-14 42.3-32.399 56.399-55 1.7-2.699-2.6-5.3-4.3-2.5-13.6 21.9-32.8 39.5-54.6 53.2-9.9 6.2-20.5 12.1-31.601 16-3.098 1.1-1.798 5.901 1.302 4.8zm717.8-73.399c4.7 10.1 11.399 19.5 18.3 28.1 15.3 19.1 35 34.6 57.7 44 3 1.2 4.3-3.6 1.3-4.8-30.8-12.8-58.9-39.3-73-69.9-1.3-2.9-5.6-.301-4.3 2.6zm85.5-22c7.6 9.899 17.5 18.199 27.399 25.6 23.9 17.9 52 29.6 81.4 34.8 3.2.601 4.5-4.3 1.3-4.8-28.7-5.1-55.8-16.4-79.3-33.7-7-5.1-13.6-10.899-19.8-17.1-1.8-1.8-3.5-3.7-5.2-5.6-.3-.4-2.3-2.9-1.5-1.801-1.9-2.5-6.199 0-4.299 2.601zm86-91.601c16.5 6.9 33.7 12.301 50.8 17.2 34.6 9.9 70.5 16.7 106.6 16.6 3.2 0 3.2-5 0-5-36.1.101-72-6.899-106.6-16.8-16.699-4.8-33.4-10.1-49.5-16.899-2.901-1.201-4.199 3.699-1.3 4.899z"/></svg>