<svg xmlns="http://www.w3.org/2000/svg" id="tatoo_x5F_b" viewBox="0 0 3000 3000"><path id="cl1" fill="#1B1B1B" d="M1532.924 2007.392c-.212.637.057 1.104.693 1.313.637.919.978 1.881.921 2.899-.181 4.37-2.752 7.568-5.819 10.129-10.602 9.2-22.362 16.646-35.568 21.773-5.556 2.11-9.105 1.307-9.167-5.453-.087-2.008-1.191-4.071.236-6.096l.014.1a7.99 7.99 0 0 0 1.187-2.292c.649-.396.792-.82.493-1.484.142-1.132.734-1.924 1.301-2.914l.084-.113c1.259-1.089.366-3.083 1.949-4.018l-.17.227c.142-1.133.848-1.84 1.54-2.646l.014.099c.381-.862 1.089-1.569 1.47-2.433l.085-.113a5.762 5.762 0 0 0 1.61-2.15l.085-.113a5.762 5.762 0 0 0 1.61-2.15l.085-.114a5.75 5.75 0 0 0 1.61-2.149l.085-.114c.721-.608 1.229-1.288 1.71-2.164l.1-.015c.707-.708 1.187-1.585 2.133-2.023l-.184.128c.254-1.047.834-1.938 1.88-2.392l-.17.227c.353-1.769 2.616-1.487 3.308-3l.085-.114c.706-.708 1.385-1.612 2.431-2.065.637.212 1.104-.058 1.314-.693.622-.595 1.343-1.203 2.063-1.812l-.169.226c1.442-1.218 2.875-1.211 4.444-1.537 1.668-.341 2.521-.478 4.375.47l1.031.562c1.133.141.479-.251 1.031.781l.75.656c1.132.142 1.198 0 1.75 1.031l.156.406c1.782.452 1.406 2.207 2.75 3.125l.559-.032c.893.578 1.229 1.186 1.598 2.345-.114.623.725 1.16 1.36 1.371.116.79.908 1.384 1.347 2.331zm-44.662 42.879c-.043.41.311.764 1.032.862l-.227-.169c.935 1.583 2.943.79 4.202 1.821 1.457 1.003 3.225.648 4.71 1.143l8.809-1.264c1.528-.623 2.927-2.137 4.682-.47 0 .706-.015 1.314-.014 2.022-.819 1.329-.183 2.955-1.214 4.215-.593.792-1.301 1.5-1.442 2.631l.171-.227c-1.033.553-1.626 1.345-1.866 2.49l.171-.227c-1.033.553-1.626 1.346-1.866 2.49l.171-.227c-1.542 1.231-1.046 2.575-.141 3.961l.214.069c2.078 1.117 4.468-.539 6.476.789l.877-.228.947.268c1.316.721 2.589.438 3.96.139 1.47-.313 2.36-1.147 2.544-2.689-.029-.904-.355-1.768-.864-2.502-.638-.213-.906-.679-.708-1.414-.653-3.847-5.281-7.931.926-11.145l-.113-.085c.454 1.046 1.345 1.626 2.49 1.864l-.227-.168c.935 1.582 2.942.789 4.201 1.821 4.2 1.113 8.117.248 11.906-1.508l.523-.58.807-.015c1.145-.467 1.838-1.273 2.162-2.532l-.17.226c1.584-.934.691-2.927 1.949-4.017l-.014-.1c.099-.014.27-.24.296-.75.028-.509-.128-.89-.68-1.215-11.103-2.045-22.331-1.443-33.476-.955-6.914.387-14.665-.824-20.545 4.666-.462.274-.617.6-.659 1.01z"/><path id="hl1" fill="#4D4D4D" d="M1484.393 2037.39c1.035 3.69 1.531 6.448 7.172 4.224 12.823-4.973 24.076-12.446 34.805-20.755 3.363-2.604 5.992-6.112 7.403-10.356.75-.411 1.372-.298 1.782.451-.112.623.171 1.188.723 1.513.976 1.174 1.021 2.885 2.181 3.931-.099.721.085 1.301.751 1.711.876 1.187 1.02 2.884 2.081 3.944-.113.622.071 1.201.553 1.738 1.669 1.781.951 4.511 2.521 6.306.341 2.376.767 4.639 1.107 7.016-1.327 2.009.216 4.313-.703 6.363-.551.383-.578.893-.296 1.456-.338 1.161-1.145 1.882-2.318 2.151-17.422 1.087-35.073-.826-52.309 2.961-1.173.271-2.122.001-3.041-.775a1.66 1.66 0 0 0-.822-1.499c-.523-.834-1.302-1.328-1.74-2.276-.455-2.46-.824-5.033-1.279-7.493.213-.638.792-.823 1.429-.611zm34.26 33.877c1.104-.058 2.191-.214 3.296-.271.522-.58.622-1.301.323-1.966-.297-.665-.481-1.244-.779-1.908-.494-.637-1.104-.65-1.753-.254-.763 1.019-1.426 2.023-2.204 2.942-.071.92.197 1.387 1.117 1.457z"/><path fill="none" stroke="#1A1A1A" stroke-miterlimit="10" stroke-width="2" d="M1513.56 1995.167s-4.532.527-15.976 15.101c0 0-9.464 10.28-12.694 22.26-3.344 11.896-1.916 15.389 4.278 18.306 5.313 2.503 13.662 2.793 17.991 1.658 5.528-2.309 4.298 1.727 4.298 1.727s.194 3.435-1.206 4.948c-1.498 1.527-6.25 8.5-6.25 8.5s-2.973 1.347 8.129 2.518c7.704.813 10.371.813 10.371.813s.956-.429-1.833-5.079c-2.888-4.638-3.375-7.484-3.588-10.978-.245-4.022 3.82-1.087 4.372-.764.537.227 7.716 2.907 13.895 1.444 5.738-2.037 7.465-4.87 7.465-4.87s4.253-6.538 2.662-16.917c-1.688-10.365-6.362-19.181-18.223-32.833-5.945-8.341-13.691-5.834-13.691-5.834z"/></svg>