<svg xmlns="http://www.w3.org/2000/svg" id="tatoo" viewBox="0 0 3000 3000"><path id="cl1" fill="#D10000" d="M1628.966 1852.282l5.081-4.373h-10.398l1.772 4.492c.827 1.416 2.009 1.416 3.545-.119m40.172-34.382c7.799-10.279 7.208-19.968-1.537-28.947-8.979-5.79-17.485-5.553-25.521.827-6.143-10.162-14.77-13.116-25.758-8.861-.118 0-.118.118-.118.118-9.217 5.08-12.406 13.351-9.571 24.812l14.65 36.153c9.217-.943 19.969-4.488 32.257-10.751l15.598-13.351z"/><path id="hl1" fill="red" d="M1621.286 1842.002l2.362 5.907h10.398l19.377-16.658c-12.169 6.262-22.921 9.807-32.137 10.751z"/></svg>