<svg xmlns="http://www.w3.org/2000/svg" id="tatoo" viewBox="0 0 3000 3000"><path id="cl1" fill="#1A1A1A" d="M1546.009 2048.003c7.68-6.376 8.84-15.503 3.479-27.237-5.216-8.259-12.459-11.59-21.588-9.997-1.737.29-3.332 1.015-4.924 2.028-2.897 1.884-6.085 5.796-9.564 11.735-.288-5.071-.724-8.983-1.158-12.025-3.042-11.155-9.852-17.385-20.283-18.689-8.402.146-13.764 4.492-16.227 13.329-1.593 7.389.436 14.342 6.085 20.861l8.839 8.114c-8.258-.725-14.053-.146-17.532 1.884-9.127 6.665-10.576 16.371-4.491 28.976 7.389 8.548 14.633 11.445 21.442 8.982 2.607-.725 5.07-2.028 7.533-4.058l12.603-17.964c1.596 3.912 2.897 7.678 3.769 11.155.289 1.159.435 2.318.578 3.332 4.493-.146 8.692-1.305 12.751-3.622-3.911-3.331-7.533-7.968-10.865-13.763 7.968.578 15.499.578 22.891 0 2.316-.436 4.489-1.45 6.662-3.041z"/><path id="hl1" fill="#4D4D4D" d="M1514.572 2068.286c1.16 6.52.87 12.024-1.013 16.514l25.788-13.474c-4.346-1.015-8.402-3.188-12.169-6.664-3.913 2.317-8.114 3.476-12.606 3.624z"/></svg>