<svg xmlns="http://www.w3.org/2000/svg" id="tatoo" viewBox="0 0 3000 3000"><path id="hl1" fill="#4D4D4D" d="M1477.919 2091.398l1.478 5.982 14.325 15.485c6.608.551 58.337-.789 65.61 0l-9.027-20.377c-9.447-1.598-63.36-.621-72.386-1.09m-9.044-31.898l3.25 18.875c12.805-.474 54.974-2.331 70.41-.509-9.607-6.433-18.342-13.875-26.382-22.42-6.753-.062-13.064.109-18.84.339m-27.063-9.41c4.118-.086 35.782-2.382 39.983-2.198l-11.346-20.696c-1.972.089-32.756 5.237-34.638 5.374l6.001 17.52z"/><path id="cl1" fill="#1A1A1A" d="M1471.771 2093.618c-12.637 1.014-24.474 4.557-36.271 8.049l2.833 20.833c8.792-3.157 22.602-8.271 37.33-8.745l-3.892-20.137m11.229 18.56c3.53.169 7.014.425 10.722.688l-14.325-15.485 3.603 14.797m-52.993-45.722c.521 6.723 2.395 13.631 3.493 20.544 13.002-5.345 16.565-7.202 35.057-7.951l-3.636-19.923c-20.378 1.109-22.985 2.699-33.914 7.33m-6.632-30.206c.607 7.706 2.474 11.756 3.5 19.125 15.82-5.326 18.987-6.747 35.185-7.01l-3.277-19.511c-14.79 1.235-21.857 3.582-35.408 7.396z"/></svg>