<svg xmlns="http://www.w3.org/2000/svg" id="图层_2" viewBox="0 0 3000 3000"><path id="cl1" fill="#090909" d="M1674.01 1767.257c-8.613 13.788-27.85 22.069-26.285 11.446 1.849-12.552-4.519-13.142-4.519-13.142s.216 6.364-3.644 6.512c-3.86-.153-3.633-6.518-3.633-6.518s-6.367.577-4.542 13.13c1.549 10.626-20.526 2.455-29.115-11.351-10.681-17.166-28.638-20.178-59.2-9.15 0 0 35.783-2.178 36.891 33.206 0 0 30.773-1.133 26.65 15.277 0 0 24.832-9.061 23.815 12.292 0 0 2.318-9.153 9.103-9.146 6.785.006 9.088 9.162 9.088 9.162-.985-21.351 20.982-12.393 20.982-12.393-4.095-16.421 22.553-15.448 22.553-15.448 1.168-35.38 34.408-33.271 34.408-33.271-30.538-11.084-41.847-7.75-52.552 9.394z"/></svg>