<svg xmlns="http://www.w3.org/2000/svg" id="图层_3" viewBox="0 0 3000 3000"><path id="cl1" fill="#00A9A6" d="M1350.896 2357.498c1.534-7.569.747-5.555 1.508-11.942 15.866-1.877 53.75-17.054 62.097-21.791 14.528-8.248 46.672-29.106 39.694-49.434-5.56-16.186-27.435-21.316-37.312-6.215-6.336 9.683-.987 25.613 12.438 20.661 15.183-5.608 3.653-21.883-7.26-14.258 8.122-7.603 19.542.336 21.44 9.478-9.625 30.746-54.777 3.06-27.201-24.621 14.132-14.193 45.6-5.502 49.281 15.028 6.211 34.706-34.892 55.958-61.037 67.189-14.627 6.272-30.07 11.299-45.713 14.424"/></svg>