<svg xmlns="http://www.w3.org/2000/svg" id="图层_2" viewBox="0 0 3000 3000"><path id="cl1" fill="#00A9A6" d="M1351.308 2370.998c.975-4.813.475-3.531.958-7.594 10.088-1.193 34.175-10.842 39.48-13.854 9.236-5.244 29.672-18.506 25.236-31.43-3.535-10.291-17.443-13.554-23.723-3.951-4.028 6.156-.627 16.285 7.908 13.137 9.652-3.566 2.322-13.913-4.615-9.064 5.164-4.832 12.424.213 13.633 6.024-6.12 19.548-34.828 1.946-17.295-15.653 8.984-9.023 28.99-3.498 31.333 9.557 3.946 22.063-22.186 35.575-38.808 42.718-9.301 3.987-19.119 7.184-29.064 9.171m19.293 37.367c-4.969-5.178-14.207-5.846-19.261-11.575-6.788-7.665.628-20.265-5.075-27.219 4.755 5.784 13.969 5.514 17.875 12.049 4.963 8.292-1.286 18.69 6.461 26.745z"/></svg>