<svg xmlns="http://www.w3.org/2000/svg" id="图层_2" viewBox="0 0 3000 3000"><path id="cl1" fill="#0078AE" d="M1693.461 1803.569c12.294-12.464-5.409-38.965-1.582-55.754 2.714-11.887 8.146-13.191 13.215-9.347 6.997 5.306 13.306 20.419 10.833 31.06 14.119-34.135 56.979-3.895 32.099 17.362-15.511 13.248-39.01 4.881-53.898 20.956"/><path id="sd1" fill="#094F68" d="M1705.093 1738.469s-5.941 26.541-2.981 36.462c2.959 9.922 35.372 7.775 35.372 7.775l14.537-.621s-4.371 9.326-19.073 11.993c-14.702 2.666-23.346 4.201-29.646 7.655-6.231 3.415-9.176 6.113-9.176 6.113l-.665-4.276s4.758-4.963 4.411-12.277c-.497-10.479-3.981-16.538-6.124-30.69s1.569-17.729 2.961-20.368c1.449-2.749 6.425-5.892 10.384-1.766z"/></svg>