<svg xmlns="http://www.w3.org/2000/svg" id="图层_3" viewBox="0 0 3000 3000"><path id="cl1" fill="#0078AE" d="M1566.326 1848.705c-5.15-19.143-41.177-16.999-55.395-30.341-10.066-9.45-8.234-15.506-1.577-18.261 9.188-3.805 27.565-1.327 36.552 7.177-25.286-33.322 28.784-57.915 35.327-21.44 4.076 22.735-17.542 40.916-10.347 64.661"/><path id="sd1" fill="#094F68" d="M1509.356 1800.103s13.343 16.665 24.729 19.446c7.886 1.925 8.144.78 24.095 10.614 0 0 11.187 4.496 11.98 7.874 1.839 7.833.727 12.464.727 12.464l-4.56-1.797s-2.129-7.487-9.477-11.332c-10.524-5.51-18.44-5.568-33.497-11.569-15.057-6-16.429-11.673-18.213-14.544-1.855-2.986-2.083-9.647 4.216-11.156z"/></svg>