<svg xmlns="http://www.w3.org/2000/svg" id="图层_3" viewBox="0 0 3000 3000"><path id="cl1" fill="#009092" d="M1600.918 1791.625c-17.175 9.071-7.463 2.35-22.333 12.808-6.951 4.255-11.633 10.421-14.041 18.48-2.418 8.068-.757 15.37 4.984 21.913 7.011 7.979 15.299 11.702 24.501 4.846 4.734-3.527 10.039-14.126.296-15.681-13.668-2.185 1.433 14.053-.85 3.758.59.378 1.804 1.398 2.203 1.959-1.529 7.004-11.67 4.115-12.486-2.11-1.154-8.767 12.544-13.288 19.328-9.594 10.042 5.471 5.961 19.759-.201 26.117-12.684 13.072-35.296 7.514-46.487-4.949-13.03-14.506-15.59-33.346-10.776-51.495.827-3.116 3.439-9.951 7.816-20.492 4.392-10.552 5.829-16.824 7.226-17.929 0 0 11.054 7.165 20.544 13.96 9.49 6.793 19.644 17.684 20.276 18.409z"/><path id="sd1" fill="#0C7575" d="M1563.689 1832.897s2.567 8.199 5.84 11.928c7.011 7.979 15.299 11.703 24.501 4.847.593-.441 1.771-1.623 1.771-1.623l9.927 1.335s-2.151 3.44-3.408 4.737c-12.684 13.072-35.917 8.045-46.487-4.949-14.479-17.801-12.954-31.665-12.954-31.665l20.81 15.39z"/></svg>