<svg xmlns="http://www.w3.org/2000/svg" id="图层_2" viewBox="0 0 3000 3000"><path id="cl1" fill="#5FE4F9" d="M1583.284 1831.606c6.086 0 11.037-4.869 11.037-10.956 0-6.085-4.952-11.158-11.037-11.158-5.222 0-9.597 4.03-10.738 8.404h-11.458v-22.375l11.458-12.617h14.331c1.296 4.373 5.563 8.242 10.623 8.242 6.085 0 11.037-4.869 11.037-10.956 0-6.086-4.952-11.158-11.037-11.158-4.822 0-8.923 2.937-10.421 7.311h-17.25l-15.303 16.46v31.654h18.5c1.62 4.375 5.602 7.149 10.258 7.149z"/><path id="cl2" fill="#5FE4F9" d="M1597.5 1775.043a5.236 5.236 0 0 1 5.229 5.229 5.235 5.235 0 0 1-5.229 5.229 5.235 5.235 0 0 1-5.229-5.229 5.235 5.235 0 0 1 5.229-5.229zm-19.444 45.688a5.235 5.235 0 0 1 5.229-5.229 5.235 5.235 0 0 1 5.229 5.229 5.235 5.235 0 0 1-5.229 5.229 5.234 5.234 0 0 1-5.229-5.229z"/></svg>