<svg xmlns="http://www.w3.org/2000/svg" id="图层_3" viewBox="0 0 3000 3000"><path id="cl1" fill="#555959" d="M1573.706 1810.965c-3.94.528-16.076 2.442-22.313-6.153-6.137-8.46-6.439-22.563 7.865-27.177 4.355-1.404 4.914-4.873 5.155-7.391.425-4.441-3.545-9.589-9.971-7.494 2.179.338 3.649 2.717 3.751 4.615.145 2.642-.825 4.539-3.123 6.155-3.126 2.198-7.817 1.319-10.588-2.099-1.318-1.625-2.057-3.983-1.465-7.373.955-5.487 7.016-9.52 12.217-9.807 6.25-.344 9.954 2.304 12.256 5.439 3.727 5.077 4.889 10.664.412 18.439 7.765 1.99 14.405 13.255 2.309 21.812-2.581 1.827-8.666 1.485-10.91-2.089-3.324-5.297-.852-7.842.471-8.773 3.402-2.395 6.688-1.502 7.973.557 1.343 2.157 1.426 4.035 1.302 5.727 1.794-1.744 1.091-5.26-.257-7.178-2.563-3.645-6.98-3.912-10.805-1.146-5.209 3.766-2.524 10.281-1.188 12.184 4.776 6.793 13.28 4.466 17.14 2.354 12.632-6.906 19.138-6.722 25.178-2.619 2.698 1.834 7.692 6.039 7.573 16.393-.17 14.276 12.284 13.869 17.038 10.526 7.807-5.489 1.332-17.491-4.743-13.222a6.936 6.936 0 0 1 4.441 2.82c1.543 2.191.705 4.69-1.168 6.322-1.631 1.421-6.984 3.304-9.788-.858-2.229-3.308-2.319-9.386 2.632-12.866 5.525-3.882 11.629-1.738 15.339 3.541 4.124 5.861 4.415 14.517-5.55 21.522-3.222 2.266-16.075 5.208-22.201-3.503-1.324-1.886-1.978-2.913-2.957-5.32-1.512-.187-8.77 2.224-13.631-4.73-2.787-3.983-1.36-10.828 4.799-11.871 3.186-.534 5.961.766 6.523 4.988.393 2.949-3.888 5.553-6.541 4.432.326 2.014 4.287 2.314 6.047 1.372 6.06-3.255 3.91-12.053-2.225-13.851-4.508-1.32-7.672.471-9.826 2.123-6.027 4.619-4.346 15.918-5.037 20.516-1.313 8.771-15.447 21.174-24.414 8.429-2.94-4.183-4.631-11.137.111-14.471 6.863-4.828 10.359-2.4 12.549.804 4.143 6.063-4.15 9.001-.794 11.994 1.972 1.76 5.935-.088 7.294-2.473 3.594-6.292-1.074-14.01-.88-20.6z"/><path id="sd1" fill="#3B3F3F" d="M1565.787 1803.975c-8.861-1.333-9.744-6.284-10.67-8.886-.965-2.711.713-5.73.713-5.73l-4.793-6.616c-5.553 6.31-4.222 15.759.355 22.068 5.575 7.685 15.863 6.97 20.799 6.354l-6.404-7.19zm7.967 8.706c.496 6.186 4.118 13.131.834 18.882-1.359 2.386-5.324 4.232-7.295 2.473-3.357-2.992 4.936-5.931.794-11.993-2.188-3.204-5.686-5.632-12.55-.804-4.742 3.333-3.051 10.287-.11 14.471 8.966 12.744 23.102.342 24.415-8.429.321-2.142.129-5.737.439-9.435m19.922 7.567c.746 1.668 1.384 2.642 2.484 4.21 6.127 8.711 18.98 5.769 22.202 3.503 2.407-1.692 4.217-3.482 5.518-5.305"/></svg>