<svg xmlns="http://www.w3.org/2000/svg" id="图层_2" viewBox="0 0 3000 3000"><path id="cl1" fill="#445656" d="M1629.984 1818.613c3.888 3.717 15.632 15.463 29.29 11.028 13.443-4.363 24.995-19.545 13.028-35.97-3.645-5.002-1.494-9.236.246-12.183 3.069-5.192 11.506-7.661 16.864-.258-2.652-1.364-6.151.064-7.773 2.06-2.262 2.772-2.711 5.621-1.483 9.216 1.667 4.892 7.496 7.663 13.245 6.13 2.734-.729 5.419-2.718 7.469-6.893 3.321-6.762-.094-15.99-5.553-20.441-6.561-5.354-12.716-5.405-17.728-3.81-8.115 2.587-13.831 7.768-15.126 19.831-10.072-4.002-26.296 3.029-19.88 22.01 1.369 4.051 8.293 8.521 13.591 6.397 7.848-3.145 7.171-7.896 6.467-9.966-1.813-5.32-6.115-6.963-9.158-5.733-3.186 1.287-4.771 3.274-5.982 5.222-.572-3.334 2.993-6.617 5.993-7.64 5.703-1.945 10.745 1.276 12.724 7.343 2.698 8.262-5.42 13.25-8.396 14.266-10.626 3.623-18.072-5.686-20.61-11.067-8.314-17.603-15.573-22.578-25.442-22.899-4.41-.142-13.215.482-21.324 11.896-11.175 15.741-24.467 5.387-27.004-2.053-4.166-12.213 12.464-20.18 15.707-10.682-2.41-1.182-5.031-1.152-7.099-.448-3.431 1.171-4.505 4.565-3.756 7.841.653 2.85 5.008 9.17 11.386 6.852 5.069-1.842 10.002-8.416 7.359-16.16-2.951-8.643-11.33-11.154-19.586-8.336-9.172 3.128-16.379 12.355-11.06 27.947 1.72 5.04 13.429 18.484 27.06 13.835 2.948-1.007 4.479-1.61 7.465-3.462 1.801.998 7.819 9.407 18.667 5.676 6.218-2.14 10.104-10.758 4.2-16.797-3.058-3.121-7.125-3.908-11.1.26-2.777 2.913-.17 9.164 3.624 10.053-1.96 1.938-6.529-.884-7.703-3.314-4.034-8.379 5.316-16.286 13.452-13.372 5.982 2.147 8.016 6.623 9.055 10.141 2.914 9.847-7.916 20.862-10.819 26.439-5.544 10.634.04 35.442 19.983 28.642 6.543-2.233 13.926-8.49 11.395-15.908-3.662-10.74-9.416-10.869-14.359-9.109-9.353 3.332-2.625 13.145-8.676 13.746-3.557.354-6.418-4.816-6.008-8.507 1.076-9.741 12.322-14.461 17.355-21.823z"/><path id="sd1" fill="#2E3A3A" d="M1555.723 1785.269c2.037-5.66 6.572-9.346 11.728-11.104 8.257-2.818 16.556-.278 19.587 8.337 1.362 3.875.399 7.193.399 7.193l-19.142-1.696s.693-2.96 3.752-4.03c2.063-.721 4.688-.732 7.1.449-2.455-7.189-12.58-4.372-15.551 2.719l-7.873-1.868zm42.196 4.162s17.755-2.125 21.277-2.832c0 0-6.103-2.031-11.636-1.127s-6.415 2.059-9.641 3.959z"/></svg>