<svg xmlns="http://www.w3.org/2000/svg" id="图层_3" viewBox="0 0 3000 3000"><linearGradient id="cl1" x1="-854.16" x2="-637.274" y1="3064.273" y2="3527.96" gradientTransform="matrix(1 0 0 -1 2413.2 5135.298)" gradientUnits="userSpaceOnUse"><stop offset="0" stop-color="#e38d29"/><stop offset=".199" stop-color="#ffe948"/><stop offset=".2" stop-color="#ffe948"/><stop offset=".382" stop-color="#fff497"/><stop offset=".515" stop-color="#ffe50d"/><stop offset=".576" stop-color="#fed854"/><stop offset=".794" stop-color="#ffe453"/><stop offset=".837" stop-color="#fee051"/><stop offset=".878" stop-color="#fad54c"/><stop offset=".919" stop-color="#f4c144"/><stop offset=".96" stop-color="#eba639"/><stop offset="1" stop-color="#e0832a"/><stop offset="1" stop-color="#e0832a"/></linearGradient><path id="cl1" fill="url(#cl1_1_)" d="M1678.121 1773.393c-10.048 2.218-39.192-23.604-30.854-41.117 6.974-14.66 39.604-18.374 46.972-1.219 5.878 13.712-9.102 40.769-16.118 42.336zm-51.759 8.781c.647 44.714 54.01 23.874 53.172 5.366-.477-10.76-53.669-39.363-53.172-5.366zm117.957-40.185c-15.253-41.079-58.788 21.087-44.746 26.959 22.87 8.282 50.482-11.51 44.746-26.959zm-72.29 96.607c7.813 6.052 27.611 3.788 34.035-6.438 4.002-6.351 3.606-31.009-6.547-37.805-4.015-2.699-17.595 5.998-23.113 10.55-13.568 11.196-18.691 22.581-4.375 33.693zm49.607-15.852c11.995 9.797 41.057-15.005 32.843-34.295-5.546-13.022-41.091-14.404-47.038-4.854-1.888 3.023 9.622 35.425 14.195 39.149zm-33.02-35.987c14.785 12.303 10.595-24.627-.946-9.014-2.006 2.707-2.42 6.204.946 9.014z"/><path id="sd1" fill="#B27272" d="M1678.121 1773.393c-10.048 2.218-39.192-23.604-30.854-41.117 3.399-7.858 15.557-11.235 15.557-11.235l25.854 40.437c-.001-.002-5.967 10.943-10.557 11.915zm-51.759 8.781c.647 44.714 54.01 23.874 53.172 5.366-.477-10.76-53.669-39.363-53.172-5.366zm45.667 56.422c7.813 6.052 27.611 3.788 34.035-6.438 4.002-6.351 3.606-31.009-6.547-37.805-4.015-2.699-17.595 5.998-23.113 10.55-13.568 11.196-18.691 22.581-4.375 33.693zm16.587-51.839c14.785 12.303 10.595-24.627-.946-9.014-2.006 2.707-2.42 6.204.946 9.014z"/></svg>