<svg xmlns="http://www.w3.org/2000/svg" id="tatoo" viewBox="0 0 3000 3000"><path id="cl1" fill="#1A1A1A" d="M1553.3 1479.1c5.3-4.4 6.1-10.7 2.4-18.8-3.6-5.7-8.6-8-14.9-6.9-1.2.2-2.3.7-3.4 1.4-2 1.3-4.2 4-6.6 8.1-.2-3.5-.5-6.2-.8-8.3-2.1-7.7-6.8-12-14-12.9-5.8.1-9.5 3.1-11.2 9.2-1.1 5.1.3 9.9 4.2 14.4l6.1 5.6c-5.7-.5-9.7-.1-12.1 1.3-6.3 4.6-7.3 11.3-3.1 20 5.1 5.9 10.1 7.9 14.8 6.2 1.8-.5 3.5-1.4 5.2-2.8l8.7-12.4c1.1 2.7 2 5.3 2.6 7.7.2.8.3 1.6.4 2.3 3.1-.1 6-.9 8.8-2.5-2.7-2.3-5.2-5.5-7.5-9.5 5.5.4 10.7.4 15.8 0 1.6-.3 3.1-1 4.6-2.1z"/><path id="hl1" fill="#4D4D4D" d="M1531.6 1493.1c.8 4.5.6 8.3-.7 11.4l17.8-9.3c-3-.7-5.8-2.2-8.4-4.6-2.7 1.6-5.6 2.4-8.7 2.5z"/></svg>