<svg xmlns="http://www.w3.org/2000/svg" id="tatoo" viewBox="0 0 3000 3000"><path id="hl1" fill="#4D4D4D" d="M1674.3 1479.8l4.1 4.6 19.9 7c6.1-2.6 12.6-5.3 19.4-8l-17.5-13.8c-9.1 3-17.7 6.4-25.9 10.2m-38.1-17.9l11.8 16.4c11.1-6.4 24-12.4 38.5-18-11.5-1.2-22.7-3.7-33.8-7.5-6 3.1-11.5 6.2-16.5 9.1m-5.1-10.6c3.6-2 7.3-3.9 11.1-5.7l-19.7-13c-1.7 1-3.3 2.1-4.9 3.1l13.5 15.6z"/><path id="cl1" fill="#1A1A1A" d="M1651.4 1492.3c-10.7 6.8-20.4 14.6-29.2 23.2l15.3 13.2c6.3-6.9 15.9-14.1 28.7-21.4l-14.8-15m37.1 3.5c3.2-1.5 6.4-2.9 9.8-4.4l-19.9-7 10.1 11.4m-89.9-4.4c3.6 5.7 7.6 11.4 11.8 17 9-10.8 21.5-20.8 37.5-30.1l-11.8-16.4c-17.5 10.5-30 20.3-37.5 29.5m-15-29.1c2.6 6.3 5.6 12.6 9 18.9 11.5-12.1 24.3-22.1 38.5-29.9l-13.5-15.6c-12.5 8-23.8 16.9-34 26.6z"/><path id="sd1" d="M1637.4 1528.7l-15.3-13.2c-.5.5-1 1-1.5 1.6l-1.8 1.8c4.4 5.2 9.2 10.4 14.2 15.5.9-1.4 2-2.8 3.1-4.3.5-.5.9-1 1.3-1.4z"/></svg>