<svg xmlns="http://www.w3.org/2000/svg" id="tatoo" viewBox="0 0 3000 3000"><path id="cl1" fill="#1A1A1A" d="M1567.6 1520.6c-1.3-1.9-2.7-3.7-4.2-5.5-12.3-5.3-25.5-8.6-39.5-9.8 10.1 8 19.5 17.9 28.2 29.8l15.5-14.5m-51.8 53.5c-20.3-4.6-34.4-13.4-42.4-26.4-3.4-5.5-5.6-11.8-6.8-18.8l-13 15.8c-1.5 19.5 15.5 35.1 51 47l11.2-17.6m-23.7-68.3l-15.5 13.3c2.7 5.1 5.6 9.8 8.8 14.2.4.6.9 1.2 1.3 1.8 10.1 13.2 22.9 22.8 38.2 28.8l14.8-15.5c-19.8-5.5-35.7-19.7-47.6-42.6m14.5-12c3.5 1.9 6.9 4 10.3 6.3 7.4-.6 15.2-3.1 23.6-7.7-4.2-3.3-8.6-6.6-13.4-9.8l-20.5 11.2m-41.3-41.5l25.3 28.8 18-11.8c-3.2-2.7-6.1-5.4-8.9-8.1-6-5.8-11.2-11.4-15.6-16.9l-18.8 8m-10.5 55.8c-2.6-4.3-5.2-8.4-8-12.2-6.1-8.4-12.6-15.4-19.5-21.1l-15.3 14.3c4.8 1.6 8.7 5.1 11.8 10.6 8.9-1.1 16.7 3.8 23.3 14.7l7.7-6.3m1.8-50.3l-19.5 10.5c7.4 4.4 14.5 11 21.3 20 2.4 3.2 4.8 6.7 7.2 10.5l16.3-12.5c-2.4-3.2-4.7-6.2-6.8-8.9-7.4-9.1-13.5-15.6-18.5-19.6z"/><path id="hl1" fill="#4D4D4D" d="M1516.9 1500.1c2.4 1.6 4.7 3.3 7 5.2 14 1.2 27.2 4.5 39.5 9.8-6.3-7.8-13.9-15.4-22.9-22.6-8.4 4.5-16.2 7-23.6 7.6z"/></svg>