<svg xmlns="http://www.w3.org/2000/svg" id="tatoo" viewBox="0 0 3000 3000"><path id="hl1" fill="#4C4C4C" d="M1504.6 1503.3c.9-1.3 1.7-2.6 2.5-3.9l-13.5 4.9 11-1m30-13c-2.2 5.5-4.7 10.7-7.3 15.7l21 2.7.3-.7c5.3-11.6 9-21.2 11.1-29l-25.1 11.3z"/><path id="cl1" fill="#1A1A1A" d="M1527.3 1506.1c-1.9 3.7-4 7.3-6.2 10.8-4.5 8.5-8.6 16.5-12.2 23.8-4.2 8.7-7.7 16.5-10.5 23.5l17.5 9.1c2.9-7.6 6.5-14.9 10.9-21.8l21.4-42.6-20.9-2.8m5.5-57l-17.5-11c-4.9 16.8-15.6 36.8-32 60-6.4 9.2-11.8 19.1-16.2 29.8 2.7 7.8 7.3 15.6 14 23.4 3.8-13.5 8.5-24.8 14-33.8.2-.3.4-.6.5-.9 3.2-4.6 6.2-9 9-13.3l-11 1 13.5-4.9c12.9-20.1 21.5-36.9 25.7-50.3m26.9 30c.5-1.8.9-3.5 1.2-5l-15.8-16c-2.9 11.6-6.4 22.4-10.5 32.3l25.1-11.3m-116.4 12.1l13.1 18c4.8-9 10.6-18.1 17.3-27.3 1.6-2.2 3.3-4.4 5-6.6 12.5-17.8 19-33.2 19.5-46.3-8.7-3.7-15.5-5.4-20.5-5 2.4 12.7-5.6 29.9-24.3 51.5-4 6-7.4 11.2-10.1 15.7z"/><path id="sd1" d="M1481.1 1551.3c-6.7-7.8-11.3-15.6-14-23.4-6.7 16.6-10.9 35.2-12.5 55.7l16.5 24.3c2.2-21.9 5.6-40.8 10-56.6m34.8 21.9l-17.5-9.1c-4.8 12-7.6 21.5-8.3 28.6-1.4 11.3-1.8 20.5-1.3 27.5l19.5 9c-1.2-20.4 1.3-39.1 7.6-56m-59.6-64l-13.1-18c-3.7 6.1-6.2 10.9-7.7 14.4 3.4 6.2 6.4 16.4 9 30.5 3.1-8.9 7-17.9 11.8-26.9z"/></svg>