<svg xmlns="http://www.w3.org/2000/svg" id="wing" viewBox="0 0 3000 3000"><path id="cl1" fill="#A60300" d="M248.298 1555.616c-13.166 17.953 42.341-541.313 729.829-549.991 0 0 19.151-4.188 24.237-.3l3.74 3.145s77.8-10.625 107.277 15.258c0 0-30.823 17.954-62.542 62.091 0 0-1.197 16.61-2.541 16.161.148 1.197-9.129 11.371-18.405 19.451 0 0-7.63 115.053 6.437 163.23 0 0 28.875 156.949 157.543 229.213 58.802 33.514 147.971 36.657 206.772 29.478 0 0-125.979 95.601-164.281 197.342 0 0-22.739-32.017-93.36-29.771-40.098-2.696-85.879 9.425-123.584 52.813 0 0-62.688-124.93-184.324-125.378-112.514-.299-152.91 54.76-175.053 79.746 0 0-37.254-251.956-164.577-293.699-65.535-21.545-116.405-15.261-168.62 43.985-41.743 34.412-65.234 69.271-78.548 87.226zm1354.329-10.475s95.455 87.526 125.68 193.459c0 0 25.436-30.375 77.801-27.98 0 0 56.854-4.938 92.014 52.367 0 0 48.627-110.418 123.435-123.434 74.809-13.019 131.663 27.38 160.09 76.004 0 0 30.521-286.965 166.224-305.667 0 0 34.563-3.292 60.896 18.553 25.434 21.542 58.945 67.923 94.854 123.283 0 0-4.188-150.066-117.297-314.044 0 0-140.64-228.914-455.883-228.914 0 0-13.017-8.978-19.449 2.541l-4.488-1.497s-55.059-10.173-82.289 13.917c0 0 34.111 28.724 52.813 67.028 0 0-1.495 7.93.749 13.166 2.243 5.236 11.669 13.166 13.914 17.506 2.243 4.338 2.243 126.875-2.245 146.324 0 0-16.905 187.77-155.602 262.578.146-.15-41.745 23.492-131.217 14.81z"/><path id="sd1" fill="#8D0300" d="M329.391 1464.348s119.693-334.394 525.154-397.232c0 0 37.853-17.354 70.021-16.458 17.802 2.844 25.135 22.596 33.513 41.596 0 0 14.364 25.884 22.594 39.197 3.74 5.984-2.692 26.781-5.088 26.034 0 0-18.851 1.496-25.883-.599-7.031-2.094-44.587-16.907-52.515-20.794-7.933-3.894-55.358 7.629-103.535 34.859 0 0-169.219 102.339-258.989 273.949-.002-.002-106.526-87.824-205.272 19.448zm532.932 176.548c-9.425-247.912 63.887-306.714 67.328-305.218 1.646-1.345 5.688 3.442 17.356 13.616 11.672 10.175 91.864 57.604 91.864 57.604s-52.965-112.661-57.151-131.663c-13.169-74.36-63.138-32.467-63.138-32.467-107.726 62.839-246.568 459.771-246.568 459.771 72.111-85.129 190.309-61.643 190.309-61.643zm244.923 71.52c-8.826-199.737 1.945-176.397 1.945-176.397 18.105 25.884 120.293 58.351 123.434 59.847 3.146 1.497 2.243 4.489 2.243 4.489-3.739 15.562-15.409 86.629-6.433 88.425 6.583 1.346 8.979-3.591 20.797-27.081 16.607-32.918 46.829-67.776 55.059-80.493 8.229-12.72-9.873-12.421-9.873-12.421-32.619-.747-86.63-20.497-86.63-20.497-62.689-21.546-113.108-103.234-112.36-102.188.748 1.045-11.674-21.396-45.336 57.604-33.213 77.95-22.144 251.204-22.144 251.204 42.942-39.801 79.298-42.491 79.298-42.492zm788.18 44.433c24.688-162.783-13.014-311.651-13.014-311.651-5.985-16.757-14.515-13.765-14.515-13.765-2.992-.749-8.381 11.673-10.625 16.757-44.137 104.582-155.149 120.593-157.995 125.082-5.686 8.978-1.943 19.15-1.943 19.15 1.496 1.796 39.197 75.557 37.104 68.375-2.096-7.184-.448-34.71 0-49.373.449-14.664 20.198-23.491 20.198-23.491 41.593-13.766 79.597-49.371 79.597-49.371-13.017 82.737-55.357 174.003-55.357 174.003 82.886-12.569 116.55 44.284 116.55 44.284zm257.492-78.094c-8.528-55.958-33.815-190.167-58.052-273.053-23.489-95.458-76.604-193.754-76.604-193.754-13.466-23.938-69.871-85.28-69.871-85.28-.448 5.984-8.528 13.913-8.528 13.913-8.527 10.923-5.984 23.939-5.984 23.939 1.496 99.194-26.631 185.973-26.631 185.973 35.608-17.502 54.012-88.273 54.012-88.273 35.46 24.39 63.887 117.749 63.887 117.749 31.42 140.19 21.544 255.695 21.544 255.695 72.864-.005 106.227 43.09 106.227 43.091zm314.197-184.483c-111.765-345.615-380.476-441.07-380.476-441.07-56.559-19.897-97.999-17.206-97.999-17.206-2.245-5.984-8.681-1.496-8.681-1.496-7.183 7.48-12.418 41.146-12.418 41.146 4.938 10.324 13.465 16.158 13.465 16.158 248.363.748 314.943 339.333 314.943 339.333 85.882-79.449 171.166 63.135 171.166 63.135zm-574.682-362.073c.151 0 17.206-19.449 18.702-22.591 0 0 .451-17.655 0-20.198 0 0-3.141-.896-5.085-1.796 0 0-9.128-8.977-11.071-8.677.448 0-3.439 0-15.41 24.835 0 0 11.52 15.261 12.567 16.009 1.046.749-.149 12.271.297 12.418zm-845.334-30.671c1.048-6.133 0-13.014 0-13.014-.748-1.048-7.183-10.025-7.929-10.474-.75-.451-5.237-1.199-5.237-1.199-6.285 4.191-14.961 17.206-14.961 17.206-1.197 8.681 13.016 22.442 13.016 22.442 5.838-2.54 14.664-13.465 15.111-14.961z"/><path id="hl1" fill="#DB0400" d="M775.248 1032.855c109.22-31.72 210.508-25.585 210.508-25.585 11.969-5.985 23.938 0 23.938 0l17.954 31.869-22.292 14.062-13.616-26.931c-421.919-10.022-627.343 261.38-627.343 261.38 132.113-183.578 305.072-233.548 410.851-254.795zm111.465 213.053s-106.229 106.229-113.709 123.436c-7.481 17.206-109.969 227.418-115.205 250.606.148 16.459 17.206 52.07 15.71 67.329 17.206-93.512 115.205-291.006 129.418-315.691 11.97-33.664 83.786-125.68 83.786-125.68zm166.074 201.982s-68.076 115.206-69.572 235.646l29.923 33.664c.001.001-9.724-136.15 39.649-269.31zM1043 1318s65.893 279.508 339.392 227.142C1136.573 1564.594 1061.701 1369.618 1043 1318zm844.649 98.471s49.374 216.196 33.663 312.698c14.962-20.944 26.184-26.932 26.184-26.932s-2.245-8.227 0-30.672c2.244-22.442-30.672-215.447-55.358-255.096l-4.489.002zm102.487-293.997s139.144 240.883 187.769 559.567c7.481 14.214 16.458-49.374 16.458-49.374s-77.053-388.255-204.227-510.193zm-83.785-74.06s21.694 7.48 20.944 11.221c-.748 3.741 11.223-38.151 11.223-38.151s448.551-35.16 555.827 504.208l13.464 19.45s10.021-59.1-58.802-209.761c-38.899-83.785-101.738-170.563-181.483-226.373-51.918-36.951-210.513-113.708-329.158-103.234-.446-1.792-12.866-9.425-19.6 3.145.003-.003-7.179 37.55-12.415 39.495zm-96.503 428.652c71.816-76.305 74.809-155.602 93.959-201.684 26.631-151.113-4.489-143.332-4.489-143.332-.45 36.057 23.49 191.659-89.47 345.016z"/><path fill="#FFF7ED" d="M1876.127 1089.262s-21.395-45.634-51.617-66.283c0 0 18.402-22.144 82.736-14.213-.147 0-3.439 30.671-31.119 80.496zm-870.769-80.043s3.143 6.581 8.077 15.857c9.726 18.553 26.034 48.178 36.507 58.65 0 0 44.885-52.366 64.784-61.043-.148 0-29.323-26.183-109.368-13.464z"/><path fill="#ECD6C7" d="M1005.358 1009.365l7.182.149s5.236 13.465 7.78 14.513c0 0 54.312-9.277 90.519-1.795 0 0-36.655 28.878-61.643 63.138-.149 0-32.916-44.885-43.838-76.005zm821.244 13.318s23.643 19.45 49.825 65.083c0 0 22.144-38.9 29.924-78.849h-2.544s-5.536 8.678-7.48 8.528c0 0-47.43-3.292-53.414-2.543-6.133.3-14.663 4.337-16.311 7.781z"/><path fill="#C9B6A9" d="M1825.557 1021.783s2.993-2.244 8.525-3.74c0 0 24.238.448 53.414 48.625 0 0-10.175 18.253-10.024 21.694 0 .001-30.968-52.665-51.915-66.579zm-713.073-.447c-1.646-1.197-5.386 0-5.386 0-26.034 9.725-59.25 48.773-59.25 48.773-.596 2.843 6.436 9.428 6.885 8.828 21.093-32.916 57.751-57.601 57.751-57.601z"/><path fill="none" stroke="#231815" stroke-miterlimit="10" stroke-width="6" d="M248.298 1555.616c-13.166 17.953 42.341-541.313 729.829-549.991 0 0 19.151-4.188 24.237-.3l3.74 3.145s77.8-10.625 107.277 15.258c0 0-30.823 17.954-62.542 62.091 0 0-1.197 16.61-2.541 16.161.148 1.197-9.129 11.371-18.405 19.451 0 0-7.63 115.053 6.437 163.23 0 0 28.875 156.949 157.543 229.213 58.802 33.514 147.971 36.657 206.772 29.478 0 0-125.979 95.601-164.281 197.342 0 0-22.739-32.017-93.36-29.771-40.098-2.696-85.879 9.425-123.584 52.813 0 0-62.688-124.93-184.324-125.378-112.514-.299-152.91 54.76-175.053 79.746 0 0-37.254-251.956-164.577-293.699-65.535-21.545-116.405-15.261-168.62 43.985-41.743 34.412-65.234 69.271-78.548 87.226zm1354.329-10.475s95.455 87.526 125.68 193.459c0 0 25.436-30.375 77.801-27.98 0 0 56.854-4.938 92.014 52.367 0 0 48.627-110.418 123.435-123.434 74.809-13.019 131.663 27.38 160.09 76.004 0 0 30.521-286.965 166.224-305.667 0 0 34.563-3.292 60.896 18.553 25.434 21.542 58.945 67.923 94.854 123.283 0 0-4.188-150.066-117.297-314.044 0 0-140.64-228.914-455.883-228.914 0 0-13.017-8.978-19.449 2.541l-4.488-1.497s-55.059-10.173-82.289 13.917c0 0 34.111 28.724 52.813 67.028 0 0-1.495 7.93.749 13.166 2.243 5.236 11.669 13.166 13.914 17.506 2.243 4.338 2.243 126.875-2.245 146.324 0 0-16.905 187.77-155.602 262.578.146-.15-41.745 23.492-131.217 14.81h0z"/></svg>