<svg xmlns="http://www.w3.org/2000/svg" id="wing" viewBox="0 0 3000 3000"><path id="sd1" fill="#734753" d="M1362.74 1568.597s171.931 180.943-18.813 593.914c0 0-110.002 212.561-406.961 89.492 0 0-135.61-42.064-149.721-345.688 0 0 28.873-66.891 79.434-112.354 0 0 1.83-9.8-7.97-9.8 0 0-315.248 13.195-466.405-611.813 0 0-58.529-440.931 98.246-431.131 0 0 274.355-45.072 807.391 386.059.13 0 280.493 226.148 64.799 441.321zm217.526 467.973c62.71 291.994 260.639 253.715 260.639 253.715 213.605-8.754 243.001-288.987 243.001-288.987 17.638-107.783-54.87-211.646-54.87-211.646 301.79-74.469 389.978-633.241 389.978-633.241 47.032-470.063-103.863-416.498-103.863-416.498-413.494 40.5-740.762 495.146-740.762 495.146-97.984 215.564 31.354 339.025 31.354 339.025-115.624 190.091-31.356 452.687-25.477 462.486z"/><path id="cl1" fill="#FFAFD1" d="M2242.902 1062.218s-30.439-19.206 4.312-41.808c0 0 16.593-4.314 54.872 0 0 0 11.366 19.988-5.228 29.653.128 0-17.375 12.155-53.956 12.155zm59.309-120.982c44.42-47.033-27.04-38.279-27.04-38.279-33.058 5.227-49.906 31.747-49.906 31.747-20.644 38.803 13.326 44.812 13.326 44.812 26.129 1.702 63.62-38.28 63.62-38.28zm-13.975-73.162c41.808-18.291 33.97-51.344 33.97-51.344-35.67-23.516-116.672 29.657-116.672 29.657-39.192 52.259 25.084 52.259 25.084 52.259l57.618-30.572zm-99.686 450.728c11.366 6.141 39.455 10.452 39.455 10.452-1.045-17.376 28.606-37.234 28.606-37.234 94.461-121.762-76.293-180.944-76.293-180.944-40.894-11.365-215.959-15.677-215.959-15.677-21.816 3.527-59.185 19.205-59.185 19.205-25.216 100.206-50.558 124.505-50.558 124.505 254.24 27.826 322.571 73.552 333.934 79.693zm-647.218 115.755s71.855-125.42 216.873-149.332c0 0 88.447-7.187 128.815-167.88v-1.96s-45.072-22.21-162.653 24.169c0 0-71.854 26.783-175.064 171.799.131.002-10.717 68.852-7.971 123.204zm161.611-108.177s60.75 72.508 159.388 113.661c0 0 214.261 81 273.051 64.018 0 0 9.799-9.146 15.678-13.064 0 0 51.605-24.822 57.484-73.814 0 0 1.959-24.169 0-34.621 0 0 5.226-1.96-14.371-22.21-19.598-20.25-92.105-63.363-233.203-90.799 0 0-47.032-7.187-116.274-7.839 0 0-3.92 5.226-10.452 3.266 0 0-44.419 32.008-80.347 41.154-.002-.002-36.583 13.062-50.954 20.248zm-107.129 194.139c27.437 13.848 107.129 32.531 107.129 32.531 41.153 10.451 58.791 20.901 58.791 20.901 13.063 7.841 24.169 20.904 24.169 20.904 21.557 13.064 30.049 22.861 30.049 22.861 15.024 13.063 44.42 28.741 44.42 28.741 6.532 7.187 30.049 23.519 30.049 23.519 35.928 18.289 65.715 22.86 65.715 22.86 44.812 12.412 66.238 5.228 66.238 5.228 37.887-10.451 59.442-27.437 59.442-27.437 28.089-16.983 42.46-65.977 42.46-65.977 3.266-44.418-4.573-74.467-4.573-74.467-103.862-8.492-247.573-65.978-247.573-65.978-82.959-28.089-152.201-87.532-152.201-87.532-16.984-7.839-45.073-34.621-45.073-34.621-4.572-2.613-5.879 0-5.879 0-48.081 21.949-71.202 50.951-71.202 50.951-11.104 10.452-33.314 45.727-33.314 45.727-12.41 16.331-9.146 15.677-9.146 15.677 9.797 42.465 40.499 66.112 40.499 66.112zm-37.236 179.639c21.558 51.734 26.782 56.045 26.782 56.045 11.759 11.105 40.5 40.5 40.5 40.5 6.532 8.492 43.113 23.519 43.113 23.519 28.089 13.717 90.146 71.201 90.146 71.201 7.187 6.532 24.17 28.09 26.129 30.049 1.961 1.959 19.599 20.904 19.599 20.904 9.798 15.022 30.701 50.297 30.701 50.297 22.862 18.291 41.153 13.065 41.153 13.065 4.572-44.42-55.524-164.614-55.524-164.614-20.25-39.847-90.146-188.13-90.146-188.13-14.37-7.186-126.073-75.774-126.073-75.774-42.46 61.404-46.38 122.938-46.38 122.938zm20.25 327.136c32.008-214.259 10.451-235.421 10.451-235.421l2.613-4.967c-24.822-15.024-41.152-58.791-41.152-58.791-17.637 177.678 28.088 299.178 28.088 299.179zm10.453 39.846s26.13 83.613 33.315 92.105c0 0 28.742 8.491 38.54 15.678 0 0 11.758-8.492 15.024-13.064 0 0-13.064-81-12.412-145.018 0 0 2.612-105.17.653-129.992 0 0-3.267-17.637-5.228-19.598 0 0-5.226-20.25-4.571-26.129 0 0-20.903-15.023-21.952-15.023-1.045 0-10.843-11.105-13.456-11.105 0 0-11.758-11.104-16.331-15.678 0 0 9.799 151.549-13.718 264.56m81.136-221.447s12.411 260.639 20.903 305.711c0 0 19.597 30.049 33.313 45.727 0 0 56.179 1.308 73.162-3.92 0 0 9.798-3.918 13.063-11.758 0 0-26.129-219.483-43.112-248.881.003 0-55.523-60.094-97.329-86.879zm123.459 121.502s22.21 80.346 32.662 199.234c0 0 9.798 26.129 16.982 28.088 0 0 37.234 11.758 60.75-9.8 0 0 74.47-71.2 26.783-132.604l1.307-4.572-35.274-28.742s-3.267 16.332-33.71 7.582c0 0-33.572-6.795-41.411-16.592 0-.135-31.485-56.312-28.089-42.594zm48.339-121.502s49.646 101.904 53.565 152.203c0 0 13.718 6.531 41.807 32.66 0 0 26.129 10.453 42.459-28.74 0 0 39.848-41.807-5.227-74.469-3.266-2.613-24.168-12.412-30.7-17.637 3.132 2.221-12.412-10.453-30.702-17.64 0 0-19.077-12.41-36.323-18.289 0 .002-36.838-32.135-34.879-28.088zm-83.612-173.105s51.604 100.599 56.83 117.582c0 0 12.803 15.679 24.688 33.314 0 0 34.103 36.58 88.974 57.484 0 0 33.969 13.063 69.896 32.66 0 0 1.96-32.66 0-41.152 0 0-20.903-43.768-20.25-49.646 0 0-80.348-68.588-92.105-81-.001 0-123.461-66.629-128.033-69.242zm-333.801 52.912c-1.96 2.613-18.29 31.355-18.29 31.355-7.186 12.41-30.049 29.395-30.049 29.395-5.879 4.572-3.919 6.929-3.919 6.929h2.612c-2.612 4.965-5.226 18.682-5.226 18.682-12.412 70.549 15.678 197.93 15.678 197.93 2.611 11.759 5.879 33.314 5.879 33.314 60.097-161.484 33.315-317.605 33.315-317.605zm-82.96 90.799c-7.839 6.531-36.581 22.863-36.581 22.863-11.104 3.267-10.451 15.678-10.451 15.678-3.267 22.209-5.879 20.902-5.879 20.902-7.186 9.799-.652 117.582-.652 120.848.652 85.572-16.984 166.572-16.984 166.572-.652 5.228 16.984 15.025 16.984 15.025 6.531-2.613 52.258-17.637 52.258-17.637 16.331-19.599 39.193-83.48 39.193-83.48-37.233-118.367-20.25-274.49-20.25-274.49l-17.638 13.719zm-127.38 376.912c11.105-3.266 37.889-41.151 37.889-41.151 9.145-23.519 15.677-177.025 15.677-177.025 3.267-70.549 9.146-129.34 9.146-129.34-58.137 33.969-114.968 89.492-114.968 89.492-21.556 37.233-53.563 243.002-48.339 248.881 5.226 5.879 9.402 10.062 9.402 10.062 99.032 6.268 91.193-.919 91.193-.919zm-105.17-198.579c-13.064 16.329-20.25 18.942-20.25 18.942-34.363 21.164-71.202 13.064-71.202 13.064-4.573-.654-9.146-5.484-9.146-5.484-9.146 2.353-39.848 26.387-39.848 26.387 0 3.269-1.307 5.228-1.307 5.228-18.943 19.596-18.943 35.928-18.943 40.5-9.146 39.848 55.524 92.758 55.524 92.758 13.718 16.332 69.241 10.715 69.241 10.715 6.533-8.229 19.598-29.657 19.598-29.657 5.227-72.509 36.581-201.193 36.581-201.193l-20.248 28.74zm-77.08 15.022s45.073 2.613 63.363-32.008c0 0 19.597-30.049 33.968-43.113 0 0 76.429-66.629 91.452-76.428 0 0 54.218-35.928 94.719-47.687 0 0 47.687-36.582 64.018-51.604 0 0 4.572.652 36.58-65.978 0 0-4.572-50.299-55.524-112.354 0 0-125.42 65.977-153.509 74.469 0 0-46.379 79.693-90.799 159.387 0 0-54.871 94.72-68.59 127.381 0 0-25.476 60.097-15.678 67.935zm-10.452-265.863c-17.637 9.797-108.436 78.388-108.436 78.388-6.532 8.491-26.783 54.87-26.783 54.87-1.959 45.072 4.573 34.621 4.573 34.621 9.145-5.227 65.976-27.436 65.976-27.436 86.226-24.822 118.888-62.057 118.888-62.057 10.453-14.371 28.742-31.355 28.742-31.355 6.532-14.371 69.242-118.234 69.242-118.234l-152.202 71.203zm-279.582-209.032s-18.943 70.549 20.25 120.192c0 0 54.218 54.479 133.912 48.474 0 0 80.347-6.015 140.444-43.246 0 0 53.564-26.131 82.96-50.953 0 0 19.597-6.531 42.459-28.742 0 0 22.21-14.371 105.823-31.354 0 0 80.604-15.416 98.769-25.345 0 0 21.033-12.545 32.008-31.487 0 0 14.896-25.477 17.507-31.355 2.613-5.879 1.308-5.226-3.918-10.452-5.227-5.226-37.234-48.339-45.728-52.258 0 0-28.741-27.827-85.572-54.084 0 0-6.532 1.172-22.21 13.584 0 0-34.621 21.557-47.686 28.742 0 0-49.646 35.927-153.51 73.161.001 0-174.411 62.057-315.508 75.123zm403.042-236.471c-26.781-7.839-62.71-30.049-62.71-30.049-5.879.653-10.452-.652-10.452-.652-11.104-4.573-95.371-.653-98.638 0-46.379 3.266-136.524 24.821-136.524 24.821-58.791 10.452-84.92 25.477-84.92 25.477-21.557 5.226-45.072 16.331-45.072 16.331-32.008 10.452-43.113 21.557-43.113 21.557-9.798 10.452-28.089 27.437-28.089 27.437-.653 42.46 6.924 54.613 6.924 54.613 26.392 46.638 68.198 57.742 68.198 57.742 1.959 2.613 14.371 11.758 14.371 11.758 6.531.653 31.354 3.268 31.354 3.268 119.541-12.412 240.388-50.953 240.388-50.953 179.639-50.298 243.654-130.646 243.654-130.646l-95.371-30.704zm-388.017-11.104c86.227-19.598 300.484-46.379 300.484-46.379-32.008-38.541-59.443-124.113-59.443-124.113-9.145-3.919-64.669-15.678-64.669-15.678-11.759-1.307-119.541 0-119.541 0-7.839 1.307-145.018 15.678-145.018 15.678-98.638 35.927-112.354 71.855-112.354 71.855-11.758 26.129-8.492 57.483-8.492 57.483 5.227 22.863 47.686 63.363 47.686 63.363 17.638 13.063 17.638 22.863 17.638 22.863 30.701-2.612 143.709-45.072 143.709-45.072zm264.557-168.534s32.009 145.018 147.63 168.533c0 0 9.797-1.307 33.967 7.186 0 0 160.694 34.621 233.855 148.283 0 0 5.227-63.363-6.531-116.928 0 0-85.574-111.702-173.76-162.001.001.001-143.709-71.201-235.161-45.073zm-491.882-95.371s-18.943 11.758-3.919 25.477c0 0 18.943 13.063 44.419 15.678 0 0 39.194 5.226 38.541-20.643 0 0-5.226-17.375-20.25-20.642 0 .13-47.032-3.136-58.791.13zm91.454-82.306c-5.879-13.064-56.831-34.621-56.831-34.621-47.033-1.307-56.831 8.492-56.831 8.492s-3.4 21.557 40.104 48.992c0 0 41.549 30.049 70.291 12.412 13.456-4.966 3.267-35.275 3.267-35.275zm390.234 1054.708s1.703-42.461 62.711-150.377c0 0-6.791 3.135-35.666 24.955 0 0-58.399 22.602-68.852 28.741 0 0-6.137 4.313-13.976 8.75 0 0-58.399 20.904-63.625 47.947 0 0-10.061 16.984 19.205 48.73 0 0 18.291 30.049 46.118 27.436.001 0 27.956-24.822 54.085-36.182zM502.308 818.168s-7.581 25.737 22.21 41.153c0 0 48.339 23.517 79.041 37.234 0 0 29.396 8.492 47.686-11.105 0 0 14.371-18.942-13.718-41.152 0 0-55.524-27.437-96.678-32.662-.001-.001-35.536-6.138-38.541 6.532z"/><path id="sd2" fill="#231815" stroke="#231815" stroke-miterlimit="10" d="M1026.198 1737.26c29.653-13.064 145.409-67.937 145.409-67.937 95.763-41.807 188.129-97.588 189.044-95.762.911 1.828 17.376 24.43 17.376 24.43-65.323 51.345-207.335 121.109-207.335 121.109-13.064 4.311-128.947 63.625-128.947 63.625-6.924 3.523-37.496 21.814-37.496 21.814-10.451 7.838-33.314 18.159-33.314 18.159-57.223 31.095-167.094 52.39-167.094 52.39 14.764-28.742 61.795-87.14 61.795-87.14s82.174 10.323 160.562-50.688h0zm580.978-160.298l-13.977 22.6c20.903 23.516 192.441 129.729 192.441 129.729 31.354 19.205 134.173 75.775 134.173 75.775 26.129 13.979 133.259 30.441 133.259 30.441l-27.831-41.808c-6.924-8.752 0-7.84 0-7.84-81.911 6.929-139.396-47.03-139.396-47.03-65.323-27.041-292.646-184.604-292.646-184.604 16.588 23.648 13.977 22.737 13.977 22.737h0z" opacity=".25"/><path fill="none" stroke="#231815" stroke-miterlimit="10" stroke-width="6" d="M1362.74 1568.597s171.931 180.943-18.813 593.914c0 0-110.002 212.561-406.961 89.492 0 0-135.61-42.064-149.721-345.688 0 0 28.873-66.891 79.434-112.354 0 0 1.83-9.8-7.97-9.8 0 0-315.248 13.195-466.405-611.813 0 0-58.529-440.931 98.246-431.131 0 0 274.355-45.072 807.391 386.059.13 0 280.493 226.148 64.799 441.321h0zm217.526 467.973c62.71 291.994 260.639 253.715 260.639 253.715 213.605-8.754 243.001-288.987 243.001-288.987 17.638-107.783-54.87-211.646-54.87-211.646 301.79-74.469 389.978-633.241 389.978-633.241 47.032-470.063-103.863-416.498-103.863-416.498-413.494 40.5-740.762 495.146-740.762 495.146-97.984 215.564 31.354 339.025 31.354 339.025-115.624 190.091-31.356 452.687-25.477 462.486z"/></svg>