<svg xmlns="http://www.w3.org/2000/svg" id="nose" viewBox="0 0 3000 3000"><path id="cl1" fill="#C7C8BC" d="M1670.3 1057.7s-4-2.5-7.3 1-28.5 47.3-31.5 56.8c-.2 11.5 22.3 20.3 22.3 20.3s8.5.8 11.2 0c2.7-.8 12.5-8.8 12.7-9.5.2-.7 10.8 6.7 10.8 6.7s3.3 1.8 6.8.5 13.5-10 14.3-13.5c.8-3.5-27.3-56.8-33.3-61.5-2.5-2.3-6-.8-6-.8z"/><path id="sd2" fill="#86877F" d="M1670.6 1072.5c-.1-1.8-.3-14.8-.3-14.8s4.5-2.8 7.7 2.5 16 19.7 31.3 58.7c-1.5.8-4.5 0-4.5 0l-32.3-45.7-1.9-.7z"/><path id="sd1" d="M1635 1120.2s14.2-30.5 29-44.8c10.2-7.8 14.2 3.3 14.2 3.3s7.3 5.7 26.7 40.2c-.6 4.2-14.2 13.3-14.2 13.3s-2.4.5-3.1.2c-4.2-2.2-4.1-6.1-15.6-8.2-1.8-.5-12.2-16.7-12.2-16.7l-9.8 8.8-15 3.9z"/><path id="hl1" fill="#2A2A2A" d="M1660.5 1101s-12.2 12.8-24.2 16.5c-7 9.4 16.4 17.9 16.4 17.9s6.3-.7 16.1-10.4c2.2-2.7 13.3 3.8 13.3 3.8l3.3 2.2s-14.3-14.2-16.5-17.4-8.4-12.6-8.4-12.6z"/></svg>