<svg xmlns="http://www.w3.org/2000/svg" id="nose" viewBox="0 0 3000 3000"><path id="cl1" fill="#C7C8BC" d="M1670.5 1011s-5.8 1.5-17.5 34.5-21.5 69-21.5 69-3 17.3 19.5 36.5c8 2.5 10.5 0 10.5 0s13.8-11.5 13.8-15c4.5 1.3 9.5 10.8 9.5 10.8s3.5 4.3 10 1.3 13.3-24.5 13.3-24.5-22.8-101.3-30-109.8c-1.8-2-5.8-.3-5.8-.3l-1.8-2.5z"/><path id="sd2" fill="#86877F" d="M1672.4 1040.3l-.1-26.8s5.7-3.3 7.6 3.7c3.3 6.5 12.6 32.8 28.1 106.3h-5s-22.9-81-30.6-83.2z"/><path id="sd1" d="M1634.3 1118.5c0-1 19.8-51.5 27-64.5 6.3-12.5 10.3-16.3 13-12.3 6.5 2 25.5 63.3 28.8 81.8-4.8 16.8-15.5 21.8-15.5 21.8l-15.3-13.3-14-39.3-3.8 12.8-16.8 18-3.4-5z"/><path id="hl1" fill="#2A2A2A" d="M1651.3 1102s-6 10.5-17 16.5c-6 12.5 15.3 31.5 15.3 31.5s8.5-2 12.8-11.3 10.8-5 13-2.8 4 2.8 4 2.8-11.3-23.3-18.4-48.6c-.8-1.8-9.7 11.9-9.7 11.9z"/></svg>