<svg xmlns="http://www.w3.org/2000/svg" id="nose" viewBox="0 0 3000 3000"><path id="cl1" fill="#C7C8BC" d="M1737.5 1112h-5.9l-.4 1-32.8 3.8s-44.2-13.2-47 .5c-2.8 13.7-13.7 11.7-13.7 11.7s-40.5-6.8-22.3-35.8c28.5-31.3 59.5-36.7 60.8-36.5 62.3 35 61.3 55.3 61.3 55.3zm-18.3 12.8l10.5-1.3s8.3-7.1 7.9-11.7c-.2-2-6 .2-6 .2l-12.4 12.8zm-28.7-8s6.8 3.7 7.2 5.3c.3 1.7-3 7.7-5 8.5-5.8 1.6-8.2.8-10.7 1.6-.7-1.1 8.5-15.4 8.5-15.4z"/><path id="sd2" fill="#86877F" d="M1671.3 1072s.2-13.8 3.8-14.8c12.3-4.3 64 36.5 62.3 54.8h-6.2l-59.9-40z"/><path id="hl1" fill="#2A2A2A" d="M1613.5 1109.8s-4.2 8.5 13.3 16c13.3-6 20-8 20-8s4.2-3.7 7.5 4.7c3.3 8.3 7.8 8.9 7.8 8.9s17.2 2.8 22.3 0c5.2-2.8 7.3-13.4 7.3-14.1 0-.7 20.5.3 27.3 7.5.6-4.5-16.5-32-16.5-32l-49.2-6.5-22.3 10.2-17.5 13.3z"/><path id="sd1" d="M1648 1079.3s-30.7 14.2-34.5 30.5c12.8-6.3 27-10.5 27-10.5s26.8-10 48.8-.3c13 7.7 21.3 21.2 21.3 21.2s7 5 8.5 4.7c1.5-.3 12.5-9.3 12.8-10.7.3-1.3-8-35.5-57.9-41.8-9.5-1.1-26 6.9-26 6.9z"/></svg>