<svg xmlns="http://www.w3.org/2000/svg" id="nose" viewBox="0 0 3000 3000"><path id="cl1" fill="#C7C8BC" d="M1664.5 1057.9s-30.4 41.5-32.4 58c0 0 6 17.5 23.4 20.3 0 0 11.2-.1 12.3-2s-3.3-76.3-3.3-76.3z"/><path id="hl2" fill="#C7C8BC" d="M1654.5 1134.3s11.2-5.3 12.4-8.5.9-.6.9-.6l-.1 9s-1.3 1.3-2.8 1.6-9.8 1.1-13.3-.4c2.2-.5 2.9-1.1 2.9-1.1zm41.7-.4c13.2-9.1 13.5-15 13.5-15s-6.3-1.4-6.3.4c0 1.8-11.2 8.9-12.3 9.5-1.2.6-8.3.7-8.3.7s6.6 5.6 13.4 4.4z"/><path id="sd2" fill="#86877F" d="M1674.6 1057.9l.3 18.3s11 6.2 29.9 42.4c1.7 1 4.8.3 4.8.3s-24.7-58-35-61z"/><path id="sd1" d="M1667.8 1125.2c-4.7 6.8-14.2 9.3-14.2 9.3s-19.6-6.5-18.8-15.4c7.3-18.4 30.7-45.5 30.7-45.5s2.9 38.5 2.3 51.6zm7-50.2l1.7 49.1s3.8 6.7 14 7.2c7.8-2 14.3-12.7 14.3-12.7s-19.8-38.1-30-43.6z"/><path id="hl1" fill="#2A2A2A" d="M1661 1100.3s-15.6 14.8-25.5 17.6c-4.2 4.5 10.1 17.1 18.1 16.6s14.2-9.3 14.2-9.3l-.1-14.9-6.7-10z"/></svg>