<svg xmlns="http://www.w3.org/2000/svg" id="nose" viewBox="0 0 3000 3000"><path id="cl1" fill="#C7C8BC" d="M1669.5 1056.3s-4.2.2-6 2.2-29.3 45.3-31.5 56.2c1.9 16 42.8 33.3 42.8 33.3s6.3.7 7.8 0 27.5-27.3 27.8-28.8-21-43.8-34.7-61.8c-2.9-1.7-6.2-1.1-6.2-1.1z"/><path id="sd2" d="M1668.3 1073s-4.5 1.7-6.7 5.2-28.1 38.5-27.8 42c7.1 10.7 31.3 24.4 39.3 26.1 10.3-2.7 31.8-25.8 31.8-25.8s2.7-4.8-29.8-46.5c-3.9-3-6.8-1-6.8-1z"/><path id="hl1" fill="#2A2A2A" d="M1661 1102.2s-24.2 19.4-24.5 20.9 23.8 20.2 36.7 23.2c9.5-4 12.3-9.2 12.3-9.2s-4.8-11.3-12-18.3-10.7-16.6-10.7-16.6h-1.8z"/><path id="sd1" fill="#86877F" d="M1669.5 1056.3l.5 16.1s3.3-.1 5.1 1.6c2.2 3.2 27.2 36.4 29.6 44.4 3.2 1.6 5.8.8 5.8.8s-.8-13-34.7-61.8c-1.5-1.2-6.3-1.1-6.3-1.1z"/></svg>