<svg xmlns="http://www.w3.org/2000/svg" id="nose" viewBox="0 0 3000 3000"><path id="cl1" fill="#C7C8BC" d="M1667.9 1073.9s-18-13.6-18-14-17.9 19.8-17.9 19.8v8.3s21 36.6 38.4 47.8c11.6 5.3 34.9-38.5 34.9-38.5l6.9-15s-16.8-17.9-29-25.5c-3.9 6.6-9.3 13.2-12.5 16.1-1.8 1.4-2.8 1-2.8 1z"/><path id="sd2" d="M1649.8 1072.4s-16 9.8-17.8 15.5 31.9 43.3 36.5 45.8 10.9-7.9 10.9-7.9 23-39.4 22.9-40.5-14-12.6-14-12.6l-16.2 8.9s-2.7 2.6-8.4-1.1-13.9-8.1-13.9-8.1z"/><path id="hl1" fill="#2A2A2A" d="M1653.3 1087.5s-15.8 9.3-15.8 10.3 22.4 31.9 29.6 35c5.1 3.6 9.2-2 12.7-7.8s10.6-18.3 10.6-18.3l-12.8-14.5-24.3-4.7z"/><path id="sd1" fill="#86877F" d="M1649.9 1059.9l1.1 13.1s-11.9 3.2-18.9 16v-9.4c-.1 0 11.7-16 17.8-19.7zm19.9 13.5c-.3.7.8 8.8.8 8.8l17.6-9.6 14 12.6 9.9-3.1s-19.3-21.5-29-26.1c0 0-4.8 10.5-13.3 17.4z"/></svg>