<svg xmlns="http://www.w3.org/2000/svg" id="nose" viewBox="0 0 3000 3000"><path id="cl1" fill="#C7C8BC" d="M1667.9 1073.9s-18-13.6-18-14-17.9 19.8-17.9 19.8v8.301s21 36.6 38.399 47.8c11.601 5.3 34.9-38.5 34.9-38.5l6.899-15s-16.8-17.9-29-25.5c-3.899 6.6-9.3 13.2-12.5 16.1-1.798 1.4-2.798.999-2.798.999z"/><ellipse cx="1690.344" cy="1137.594" fill="#2A2A2A" rx="6.532" ry="6.155"/><path id="sd2" d="M1649.8 1072.4s-16 9.8-17.8 15.5c-1.801 5.7 31.899 43.3 36.5 45.8 4.6 2.5 10.899-7.899 10.899-7.899s23-39.4 22.9-40.5c-.101-1.101-14-12.601-14-12.601l-16.2 8.9s-2.7 2.6-8.4-1.1c-5.699-3.699-13.899-8.1-13.899-8.1z"/><path id="hl1" fill="#2A2A2A" d="M1653.3 1087.5s-15.8 9.301-15.8 10.301 22.399 31.899 29.6 35c5.1 3.6 9.2-2 12.7-7.801 3.5-5.8 10.6-18.3 10.6-18.3l-12.8-14.5-24.3-4.7z"/><path id="sd1" fill="#86877F" d="M1649.9 1059.9l1.1 13.1s-11.9 3.2-18.9 16v-9.399c-.1-.001 11.7-16.001 17.8-19.701zm19.9 13.5c-.3.7.8 8.8.8 8.8l17.6-9.6 14 12.6 9.9-3.1s-19.3-21.5-29-26.1c0 0-4.8 10.5-13.3 17.4z"/><path id="cl2" fill="#FAE979" stroke="#000" stroke-miterlimit="10" stroke-width="2" d="M1680.915 1123.132c-5.414-7.798-.29-17.257 8.835-17.882 5.124-.351 9.001 1.228 10.442 2.229 5.526 3.886 8.6 6.812 12.471 11.903 3.198 4.207 6.171 9.987 6.171 15.285 0 3.531-1.392 9.038-6.191 11.623-4.408 2.375-8.052 2.701-12.143 2.003-4.861-.829-8.54-1.977-12.865-6.92-4.323-5.004 2.115-9.873 4.865-7.437 2.375 2.309 4.751 6.813 10.693 6.29 2.351-.207 6.006-2.996 6.307-5.101.375-2.625-3.916-11.792-7.2-15.125-13.068-13.265-17.489-1.995-21.385 3.132z"/></svg>