<svg xmlns="http://www.w3.org/2000/svg" id="mouth" viewBox="0 0 3000 3000"><path id="cl1" fill="#010101" d="M1659.3 1265.801c-15-.301-32.601-5.601-48.8-15.4-25.101-15.2-44.801-36.3-62.5-59.3-4.2-5.5-2.4-9.2 4.699-9.8 9.6-.9 19.2-1.5 28.801-2 27.199-1.4 54.399-2.601 81.5-4.101 32.8-1.8 65.5-3.899 98.3-5.8 1.7-.1 3.3-.2 5 0 6.399.6 8.1 3.4 5.2 9.3-8.4 17.101-18.9 32.8-32 46.7-11.2 11.9-23 22.9-38 30.3-12.1 5.8-24.7 9.2-42.2 10.101z"/><path id="sd1" fill="#492012" d="M1588.161 1233.75c-13.6-9.2-30.598-36.6-42.397-50.5 67.3-3.699 159.904-8.55 227.104-12.25-6.1 10.2-13.867 30.649-21.367 37.75-.6-1.2-10.201-2.449-10.4-3.75-2.1-14.399-11.301-15.5-23.6-14.3-39.4 3.9-79 5.8-118.4 10.3-2.5.301-5.9-.399-6.2 3.4-.3 3.5 2.2 5.3 5.4 6.2 7.8 2.1 15.8 3.3 23.7 1.7 27.199-5.4 54.899-5.801 82.399-7.301 8.3-.399 16.5-2.5 24.9-2 4.3.2 18.601 2.551 22.2 5.75-2.1 4.9-7.801 13.251-12 16.65-30.101 3.101-67.801-2.8-98-.3-5 .399-9.9 1.3-14.7 2.6-10.4 2.5-20.9.7-31.4-1.399l-7.239 7.45zm63.19 29.809c16 2.399 31.399.3 45.399-8.7-2.3-.7-4.699-.3-6.8.3-18 5.601-35.8 4.2-53.8-.5-8.301-2.199-15.7-6.699-24.4-7.699 11.7 9.399 25.1 14.5 39.601 16.599z"/><path fill="#FFF" d="M1587.118 1233.015c2.2-2.9 9.382-11.765 16.382-8.315 8.899 2.4 17.699 2.101 26.3-1.1 1.899-.7 3.899-1.6 5.7-1.4 13 .9 25.699-1.8 38.5-2.8 15.1-1.3 30.399-.1 45.399-3.2 4-.8 18.9 2.016 22.4 7.016-9.9 12-30.749 25.542-45.05 31.843-29.699 12.199-57.699 6.399-85-7.9-5.899-3.2-19.731-9.644-24.631-14.144zm154.682-27.214c-.601-4.601 4.55-24.532 3.65-29.232-.9-4.6-2.7-5.9-7.301-5.5-20.1 1.9-45.454 2.702-65.654 3.603-26.6 1.2-63.396 3.879-89.896 5.179-1.6.1-3.399-.1-4.6 1.4-1.9 2.5 12.299 31.75 15.5 32.051 9.5.899 19 4.899 28.6 2.3 17.5-4.7 35.3-5.1 53.199-5.8l6-.301c20.102-1.601 40.102-4.601 60.502-3.7z"/><path fill="none" stroke="#010101" stroke-miterlimit="10" stroke-width="6" d="M1659.3 1265.801c-15-.301-32.601-5.601-48.8-15.4-25.101-15.2-44.801-36.3-62.5-59.3-4.2-5.5-2.4-9.2 4.699-9.8 9.6-.9 19.2-1.5 28.801-2 27.199-1.4 54.399-2.601 81.5-4.101 32.8-1.8 65.5-3.899 98.3-5.8 1.7-.1 3.3-.2 5 0 6.399.6 8.1 3.4 5.2 9.3-8.4 17.101-18.9 32.8-32 46.7-11.2 11.9-23 22.9-38 30.3-12.1 5.8-24.7 9.2-42.2 10.101h0z"/></svg>