<svg xmlns="http://www.w3.org/2000/svg" id="mouth" viewBox="0 0 3000 3000"><path id="cl1" fill="#4C1A0A" d="M1691 1149c2.399.2 6.1.801 9.699.801 15.301.1 24.5 8.699 30.301 21.8 1.5 3.3 3.199 6.8 3.6 10.3 1.8 18.7 13 33 21.8 48.5 1.601 2.9 3.4 5.7 5.2 8.5 2 3.2 2.6 6.801 2.6 10.5 0 8.601-5.4 12.801-13.6 10.301-11.4-3.601-22.801-6.7-34.7-8.601-46.7-7.399-91.8-1.8-135.399 16.601-4.801 2-9.5 3.8-14.2 1.199-6-3.3-7.5-8.899-6.4-15.399 1.7-10.9 5.7-21.101 10.4-31 9.1-19.2 19.3-37.801 30.1-56.101 2.4-4 4.9-6.399 9.7-7.3 26.299-4.901 52.799-9.1 80.899-10.101z"/><path fill="#FEFEFE" d="M1721.9 1178c-40.899 1.5-81.2 1.5-122.3 10.9 3-7.4 5.9-23.077 9.201-28.478 1.1-1.9 3-2.4 5.1-2.7 26.2-4.3 52.4-9.1 79.1-8.699 2.301 0 4.601.199 7 .399 11.999.801 17.599 15.279 21.899 28.578zm-119.65 79.25c27.3-5.9 79.2-8.95 107-8.25-12.75-21.75-86.75-25.5-107 8.25z"/><path id="cl1" fill="#050505" d="M1683.1 1283.9h3c3.1 0 5.5 1.4 5.699 4.4.018 2.199-3.373.949-6.674.949-17.5.3-32.625 4.3-49.625 7.5-2.699.5-6.296 4.225-7.396 1.125-1.201-3.3.795-3.074 4.295-4.074 1.601-.5 3.101-1.2 4.7-1.601 2.9-.699 5.9-1.199 8.8-1.699 12.3-2.199 24.501-5.699 37.201-6.6z"/><path fill="none" stroke="#000" stroke-miterlimit="10" stroke-width="6" d="M1691 1149c2.399.2 6.1.801 9.699.801 15.301.1 24.5 8.699 30.301 21.8 1.5 3.3 3.199 6.8 3.6 10.3 1.8 18.7 13 33 21.8 48.5 1.601 2.9 3.4 5.7 5.2 8.5 2 3.2 2.6 6.801 2.6 10.5 0 8.601-5.4 12.801-13.6 10.301-11.4-3.601-22.801-6.7-34.7-8.601-46.7-7.399-91.8-1.8-135.399 16.601-4.801 2-9.5 3.8-14.2 1.199-6-3.3-7.5-8.899-6.4-15.399 1.7-10.9 5.7-21.101 10.4-31 9.1-19.2 19.3-37.801 30.1-56.101 2.4-4 4.9-6.399 9.7-7.3 26.299-4.901 52.799-9.1 80.899-10.101h0z"/></svg>