<svg xmlns="http://www.w3.org/2000/svg" id="mouth" viewBox="0 0 3000 3000"><path id="cl1" fill="#3A1A14" stroke="#000" stroke-miterlimit="10" stroke-width="6" d="M1678.699 1190.301l11 23.8s5.6 4.5 19.6 1.6c14-2.899 30.601-11.699 30.601-11.699s3.899 1.5-3.899 7.1c-7.801 5.6-16.9 17-16.9 17s-6.2 14.9 1.9 23.1c8.1 8.2 7.1 9.7 7.1 9.7s-9.1 12.6-16.801 18.3c-7.6 5.7-12.3.9-12.3.9s-37.8 1.6-45.1 4.3-47.9 7.9-64.5 16.4c-16.601 8.5-67.601 1.2-69.3-7.1-1.7-8.301 16.899-31.5 33.6-41s43.7-22.9 72.6-28.4c29-5.5 62.7-9.5 62.7-9.5s-8.5-17.969-10.301-24.501c.1-.201 0 0 0 0"/><path fill="#FEFEFE" d="M1601.276 1295.926c-5.7 1.1-17.619 5.099-22.818 7.898-19.801.301-42.432-1.824-59.332-8.324 3.601-6.7 7.967-17.4 11.467-24.101.101-1.3.7-2.199 2-2.6l-.101.1c.301-1.1 1-1.8 2.101-2.1l-.101.1c.301-1.199 1.201-1.899 2.4-2.1.6.3 1 .1 1.301-.4 1.899-1.199 15.907-3.599 18.107-3.799 6.3 1.4 12.8.2 19.1 1.5 6 1.8 12 1.8 18 .3 3.4-.899 7-.899 10.3-2 1.5-.399 2.9-.6 4.4-.8 6-.3 11.7-2 17.5-3.2 1.5-.399 3-.699 4.5-.899 4.6-.4 9-2.2 13.6-2.101 6.5-1.1 13.101-1.699 19.601-3 2-.6 4-.899 6.1-1.3 3.601-.9 7.2-2.1 10.4 1.1 11.899 4.9 30.4 13.004 37.501 23.604-.2 1.5-12.301 7.971-13.801 7.571-17-4.5-31.197.634-47.897 2.534-16.8 2-32.728 3.817-48.527 10.017-1.3.899-3 .6-4.2 1.699h-.899l-.702.301zm74.324-68.125c-13.801 1.5-27.4 4.899-41.2 6.5-21.6 2.5-42 9.1-61.899 17.399-3.801 1.601-8.601 2.4-8.9 8 3.5 3.5 8.199 2.801 12.5 3.4 3.1 1.1 6.4.8 9.6.8 4.801.7 9-2.699 13.9-2 1.6-.1 3-.5 4.5-1.1 6-.8 11.8-2 17.8-2.9 1.5-.1 3-.5 4.4-1.1 3.899-1.3 8.1-.5 12-2.1 6.7-.301 13.2-2.301 20-2.7 2.2 0 4.2-.3 6.2-1.2 5-1.8 10.6-.4 15.399-3.3 4.4-5 8.8-9.9 12.4-15.5-4.101-7.699-11.101-4.799-16.7-4.199z"/><path fill="#B8C6E2" d="M1692.699 1234c-4.8-3.6-10.5-2.5-15.3-1.6-25.601 4.7-51.8 6.5-76.899 13.8-10.801 3.101-21.101 7.801-31.601 11.801-1.899.699-3.5 1.899-4.3 3.899-1.1 1.5-2.7 1.9-4.5 1.801-2.9-.801-12.725-5.552-10.225-9.451 22.8-9.8 48.226-22.726 72.625-28.125 23.601-5.301 54.644-8.858 78.844-9.758.5 0 1 .6 2.199 1.2-2.598 3.299-7.543 13.734-10.843 16.433z"/><path fill="none" stroke="#000" stroke-miterlimit="10" stroke-width="6" d="M1678.699 1190.301l11 23.8s5.6 4.5 19.6 1.6c14-2.899 30.601-11.699 30.601-11.699s3.899 1.5-3.899 7.1c-7.801 5.6-16.9 17-16.9 17s-6.2 14.9 1.9 23.1c8.1 8.2 7.1 9.7 7.1 9.7s-9.1 12.6-16.801 18.3c-7.6 5.7-12.3.9-12.3.9s-37.8 1.6-45.1 4.3-47.9 7.9-64.5 16.4c-16.601 8.5-67.601 1.2-69.3-7.1-1.7-8.301 16.899-31.5 33.6-41s43.7-22.9 72.6-28.4c29-5.5 58.7-8.5 58.7-8.5s-3.567-19.587-6.301-25.501c.1-.201 0 0 0 0"/></svg>