<svg xmlns="http://www.w3.org/2000/svg" id="mouth" viewBox="0 0 3000 3000"><path fill="none" stroke="#000" stroke-linecap="round" stroke-miterlimit="10" stroke-width="6" d="M1764 1204.3c-1.3 0-19.3-5.3-51-6-6.3 3-10.3 6-19.3 6s-31.3-8-38.3-8.3-37.3-8.7-55.7-6.7c-18.3 2-47.3 3.1-62.7-7.8-.8-.6 13.7 11.8 34.3 3.8 20.7-8 56.3-26.7 56.3-26.7s5-3 9.3-2 43 17.7 43 17.7 8.3.6 12.3-2 35.7-10.8 35.7-10.8 6.7-3.2 10.3 1.5c3.7 4.7 15.7 38.3 15.7 38.3m-176.9-9.1c2.7 1.6 41 39.1 47.3 46.1s26.2 9 26.2 9 35.2 2 50.8 1.7c15.7-.3 21.7-6.3 21.7-6.3s9.3-7.7 17.3-18c7.9-10.3 0-22.6 0-22.6m-47.2 17.9s4-8.4-10.9-17.5m30.8-4.2c8.3-3 19.6-15.7 19.6-15.7"/></svg>