<svg xmlns="http://www.w3.org/2000/svg" id="mmouth" viewBox="0 0 3000 3000"><path fill="#BBCBE2" d="M1580.501 1220.583c23.3 3.899 53.315 8.066 76.916 7.167 9.3-.301 21.167.083 30.167-2.417 5.8-1.6 9.016 2.367 6.115 11.167-1.399 3.2-2.8 6.5-6.3 7.9-4.899 2.4-10.2 2.4-15.5 2.5-25.6.8-51-.4-76.1-5.7-3.101.101-5.2-1.5-6.601-4-1.5-2.1-3.1-4.2-2.8-7.1.301-1-6.698-8.817-5.897-9.517z"/><path id="cl1" fill="#CB5959" d="M1740.501 1214.416c-23.699 26.8-59.883 66.467-91.084 84.667-11.199 6.5-30.899 9.757-43.499 8.158-12.601-1.601-23.771-4.953-34.472-12.953-29.8-22.1-57.339-48.604-82.038-76.305-3.1-3.5-16.941-14.966-19.741-18.567.601-.8 14.316-4.52 14.816-4.72 4.7-2.399 16.104-10.534 20.804-10.534s11.57 11.303 16.371 13.502c17.899 8.2 28.991 15.602 48.091 20.502 4.4 1.1 7.583-.967 10.583 3.333 4.6 2 5.866 16.9 8.267 20.5 5 14.7 20 16.601 32.3 19.9 16.899 4.5 34.2 4.4 50.899-1.3 9-3.101 19.301-10.9 22.9-20.4 1.9-4-2.311-14.611 1.889-17.412 8.7-1.5 27.593-10.429 35.993-13.029 2.201-.398 8.222 2.658 7.921 4.658z"/><path id="sd1" fill="#21191C" d="M1692.5 1236.1c1.3-6.2.717-11.101-7.083-11.101 3.6-3.5 8.683-1.95 12.782-2.25-1.5 4-1.3 13.95-4 17.551-1.799-.9-1.199-2.8-1.699-4.2zm-108.797-14.986c-1.4.601-4.036-1.463-5.536-.864 1.399 3.801 6.732 15.25 9.532 18.25 1.301-.3 2.1-1.199 2.301-2.5l-2.4-5.699c-.6-1.301-.5-2.9-1.301-4.101l-2.596-5.086z"/><path fill="#FDFEFE" d="M1688.6 1242.2c-3 5.9-8 9.4-14 11.7-22.4 8.9-44.5 6.9-66.5-1.7-6.2-2.399-12.7-4.2-14.6-11.8 2.1-3.3 5-2.4 8-1.6 25.399 6.699 51.399 5.1 77.199 5 3.401.001 6.6-1.1 9.901-1.6z"/><path fill="none" stroke="#000" stroke-miterlimit="10" stroke-width="6" d="M1509 1190.5v-3.6l1.899-1.2s.101-6.699-8.3.5c-4 2-19.801 13.2-38.7 10.2-8.3 3.4 9.2 6.9 9.2 6.9l5.6 1.5s4.801 7.3 8.7 10.8c0 0 57.7 69.7 99 86.5 41.3 16.7 75.752-7.168 89.3-19.4 14.479-13.073 29.301-24.2 64.813-71.784 6-1.8 18.79-11.05 18.489-12.75-.3-1.699-40.802-39.766-40.802-39.766s-3.432-1.868 1.969 4.433c5.4 6.3 38.666 36.333 38.666 36.333s-43.334 25.334-93.035 27.134c-49.699 1.8-102.5-2.999-156.799-35.8z"/></svg>