<svg xmlns="http://www.w3.org/2000/svg" id="mouth" viewBox="0 0 3000 3000"><path id="cl1" fill="#5B2F27" d="M1573.699 1166.8c-4.199-.101-4.199 7.3-8.199 3.899-2.101-1.8 3.1-3.3 4.5-5.8 3.6-6.4 2.198-4.768 9.198-7.967 7.4-3.4 4.98-4.18 13.602-6.967-6.5 4.2-8.566 4.643-13.966 8.943 4.299 6.7 13.499 13.458 19.799 17.558 18.8 12.3 41.574 18.052 63.974 19.353 24.101 1.3 50.192-.52 73.293-6.92 3.101-.899 8.436-5.133 10.836-1.933 2 2.8-.235 2.233-1.636 5.333-1.6 3.7-4 6.8-6.5 9.9-18.8 14.1-31.335 21.565-52.634 26.665-19.601 4.8-38.033 6.036-57.833.935-21.1-5.5-31.434-13-40.233-32.5-4.4-9.499-12.201-19.999-14.201-30.499z"/><path fill="#FDFEFE" d="M1643.1 1201.199c-1 6.9-2 13.5-3 20.101-1.1 7.199-1.2 7.399-7.6 5.899-9.101-2-17.7-5.5-25.101-11.5-3.2-2.6-4.8-4.899-2.7-9.2 2.2-4.8 3.601-10 5.101-15.1.899-3.2 2.3-4.4 5.7-2.8 7.6 3.399 15.399 6 23.6 7.7 2.599.601 5.3 1.501 4 4.9zm3 21.101c-.6 4.6.6 7 5.699 6.5 5.601-.5 11.301-.601 16.9-1.2 15.2-1.7 15.2-1.8 15-17.4 0-1-.1-2 0-3 .6-4.899-1-7.1-6.5-7-9.3.2-18.6-.3-28.4-1.8-.999 8.799-1.699 16.4-2.699 23.9zm86.5-29.101c-16.1 3.7-30.4 5.9-44.9 7.3.801 7.5 1.6 14.101 2.4 21.801 17.5-4.9 31-13.601 42.5-29.101zm-133.8 10.5c2.1-5.3 4-10.6 6.2-15.8.899-2.2.8-3.7-1.301-5.1-5.8-3.801-11.5-8.833-18.199-13.333 1 15.301 6.1 28.834 13.3 34.233z"/><path fill="none" stroke="#000" stroke-miterlimit="10" stroke-width="6" d="M1575.633 1161.8c-4.199-.101-9 8.899-10.133 9.899-1.2-2.566 3.1-4.3 4.5-6.8 5.699-6.4 5.699-6.4 12.699-9.6 7.4-3.4 14.767-7 12.767-4.5-8.654 3.065-11.767 3.034-17.166 7.333 4.299 6.7 18.366 15.733 24.666 19.833 23 11.167 39.934 16.733 62.333 18.034 24.101 1.3 47.5-.7 70.601-7.101 3.101-.899 9.733-4.6 10.52-2.612.763 1.412.081 2.913-1.319 6.012-1.6 3.7-6.26 6.855-10.5 10.9-16.337 13.772-28.301 19.8-49.6 24.899-19.601 4.8-39.101 5.601-58.9.5-21.1-5.5-33.4-15.8-42.2-35.3-4.401-9.497-6.268-20.997-8.268-31.497z"/></svg>