<svg xmlns="http://www.w3.org/2000/svg" id="mouth" viewBox="0 0 3000 3000"><path d="M1550.334 1154l14.167 4.926-2.015 30.24s-14.152-8.965-15.152-13.315 3-21.851 3-21.851z"/><path id="cl1" fill="#FE9BAB" d="M1536.1 1158c.601-15.5 7.5-23.3 22.4-25.199 6.6-.9 12.9 4.399 15.8 13.3 2 9.8 1.7 19.7 1.601 29.6 0 3.2.899 7-2.801 8.801-3.8 1.8-7-.5-10-2.5-2.3-1.5-3.699-3.801-5.1-6-.5-4.4-1-8.9-1.5-13.301-.4-3-2-3.8-4.6-2.5-2.5 2.4 1.399 8.101-4.101 8.7-4.1.4-6.1-3.3-8.3-6.1-1.199-1.601-2.399-3.101-3.399-4.801z"/><path id="sd1" fill="#F85C77" d="M1558 1176c5 1.801 8.5 6.4 15.2 7.7 1.699-12.7.199-25.2 1.1-37.6 2.8 5 3.8 10.5 3.5 16.2-.6 14.199 12.331 27.871 18.231 40.671.399.8 2.315 5.299.916 6.698-11-3.1-29.647-14.97-37.147-23.17-2.4-2.698-2.1-6.799-1.8-10.499zm-7.739 4.684c0-5.5 1.64-15.185 1.64-20.484-3.101 1.4-.5 5.8-3.9 7.2-5.1-1.7-7.4-6.9-11.9-9.4 1.699 7.7 5.96 18.984 14.16 22.684z"/><path fill="none" stroke="#000" stroke-miterlimit="10" stroke-width="6" d="M1603 1210.875s-22.268-17.275-24.167-45.875c0 0-.91-28.225-15-32.298-24.333-7.035-26.533 18.665-27.733 26.965 0 2.583 1.282 4.579 1.282 4.579s9.354 13.286 15.618 19.421c8.167 8 24.833 19.167 39 24.5 11.472 3.55 73.977 28.62 110.3-6.667 7.034-6.833-14.512 10.419-21.741 12.827-18.235 6.071-30.858 11.781-77.559-3.452z"/></svg>