<svg xmlns="http://www.w3.org/2000/svg" id="mouth" viewBox="0 0 3000 3000"><path id="cl2" d="M1598 1155.8c.5.5 1.1.6 1.8.3 1.2 1 2.9.8 4.2 1.5.5.6 1.1.7 1.8.5 1.2 1 2.9.8 4.2 1.5.5.6 1.1.7 1.8.5 1.2 1 3 .7 4.2 1.7.5.5 1.1.6 1.8.3 1.2 1 2.9.8 4.2 1.5.5.6 1.1.7 1.8.5 1.2 1 2.9.8 4.2 1.5.5.6 1.1.7 1.8.5 1.2 1 2.9.8 4.2 1.5.5.6 1.1.7 1.8.5 1.2 1 2.9.8 4.2 1.5 1 .8 2.2.9 3.4.6 1.5.7 3.2.6 4.6 1.7.4.6.8.7 1.4.3 1.5.7 3.2.6 4.6 1.6.5.5 1.1.6 1.7.3 1.2 1 2.9.8 4.2 1.5 3.1 1.2 6.3.6 9.4.6 3.3 1.8 7.2-.2 10.6 1.6 5.4.8 10.7 1 16.1-.2 3.2-1.6 7 .5 10.2-1.5 1.3.2 2.6.4 3.8-.5 1.5-.7 3.1-.7 4.6-1.4 1.2.3 2.4.2 3.4-.6 1.5-.7 3.1-.7 4.6-1.4.6.4 1.1.2 1.4-.3 2.6-1.8 5.9 0 8.6-1.7 1 0 2.1-.1 3.1-.1 2.4 2 5.8-.1 8.2 1.8.4.6.8.7 1.4.3 1.5.8 3.3.6 4.5 1.9h-.1c.6.6 1.3 1.1 2.1 1.5.2.7.7.9 1.4.7 1.1.3 1.9 1 2.7 1.7.6.8 1.3 1.4 1.9 2.2v-.1c.8.6 1.6 1.3 1.8 2.4l-.2-.2c1.7.6 1.1 2.8 2.5 3.6l.1.1c.6.8 1.4 1.6 1.7 2.7-.3.6-.1 1.1.5 1.4.5.8 1.2 1.6 1.5 2.6-.3.6-.1 1.1.5 1.4.5.8 1.2 1.6 1.5 2.6-.3.6-.1 1.1.5 1.4 1.1 2 .2 4.5 1.5 6.6.1 1.1.3 2.3.4 3.4 1.2 6 1.2 12 0 18-.1 1.8-.3 3.6-.4 5.4-.7 1.5-.7 3.1-1.4 4.6-.6.5-.8 1.1-.5 1.8-1 1.2-.8 2.9-1.5 4.2-.6.5-.8 1.1-.5 1.8-1 1.2-.8 2.9-1.6 4.2-.6.3-.8.8-.5 1.4-.2 1-.9 1.8-1.5 2.6-.6.3-.8.8-.5 1.4-.2 1-.9 1.8-1.5 2.6-.6.3-.8.8-.5 1.4-.2 1-.9 1.8-1.5 2.6-.6.3-.8.7-.6 1.4-.2 1.1-1 1.9-1.9 2.6v-.1c-.5.8-1.3 1.4-1.7 2.2l-.1.1c-1.4.8-.9 3-2.5 3.5l.2-.2c-.3 1.1-1.1 1.8-2.1 2.2l.1-.2c-.3 1-1.1 1.6-1.7 2.4-.7.6-1.3 1.2-1.8 2l-.1.1c-1.4.8-.9 3-2.5 3.5l.2-.2c-.4 1.2-1.2 1.9-2.4 2.2-.7-.2-1.1 0-1.4.7-.8.4-1.4.9-1.9 1.6-.8.6-1.4 1.4-2.4 1.7l.2-.1c-.5 1.1-1.3 1.8-2.5 2.1-.7-.2-1.1 0-1.4.7-.8.4-1.5.9-2.1 1.5h.1c-.7.9-1.5 1.6-2.6 1.9-.7-.2-1.1 0-1.4.7-.8.4-1.5.9-2.1 1.5h.1c-.7.9-1.5 1.6-2.6 1.9h-.8l-.5.6c-.7.5-1.5 1-2.3 1.5l.2-.1c-.8 1.6-2.8 1.1-3.9 2.3-1.1 1.2-2.9.9-4 2-1.1 1.2-2.9.9-4 2-1.1 1.2-2.9.9-4 2-1.3 1.2-3.1 1.1-4.6 1.8l-.8-.1-.6.6c-1.2.8-2.9.5-4 1.6-1.1 1.3-3 .9-4.2 2l-1-.1-.8.6c-.8.5-1.5 1-2.3 1.4l.2-.1c-1.5 2.3-4.4.5-6.1 2.3l-1-.1-.8.6c-.9.5-1.6 1.2-2.6 1.4l-.8-.2-.6.5c-1.3 1.1-3.1.9-4.6 1.7l-.8-.1-.6.6c-1.3.8-3 .6-4.2 1.6l-1-.1-.8.6c-1.3.7-3 .5-4.2 1.5l-1-.1-.8.6c-.9.5-1.6 1.2-2.6 1.4l-.8-.2-.6.5c-1.3 1.1-3.1.9-4.6 1.7l-.8-.2-.6.5c-1.3 1.1-3.1.9-4.6 1.7l-.8-.2-.6.5c-1.3 1.1-3.1.9-4.6 1.7l-.8-.2-.6.5c-1.3 1.1-3.1.9-4.6 1.7-1.2-.3-2.4-.2-3.4.6-1.5.7-3.1.7-4.6 1.4l-.8-.2-.6.5c-.8.7-1.6 1.4-2.7 1.6s-2.2.4-3.4.6c-1.5.7-3.1.7-4.6 1.4-1.2-.3-2.4-.2-3.4.6-1.9 1.1-4.4 0-6.2 1.5l-.9-.2-.8.4c-2.5 1.7-5.8-.2-8.2 1.7-1.9.1-3.8.2-5.8.3-8.7 1.2-17.3 1.2-26 0-3.8-1-7.6-.5-11.4-.4-3.3-1.8-7.2.2-10.6-1.6-1.8-.1-3.6-.3-5.4-.4-2-1.2-4.5-.4-6.6-1.4-1.2-.8-2.5-.7-3.8-.5-2.5-2-5.7 0-8.2-1.7-1.1-.1-2.3-.3-3.4-.4-1.5-.7-3.1-.7-4.6-1.4-1.2-.8-2.5-.7-3.8-.5-1.8-1.6-4.4-.3-6.2-1.7l-.8-.4-.9.2c-1.2-1-2.9-.8-4.2-1.5-1-.8-2.2-.9-3.4-.6-1.5-.7-3.2-.6-4.6-1.7l-.6-.5-.8.2c-1.5-.7-3.2-.6-4.6-1.7l-.6-.5-.8.2c-1.5-.8-3.3-.6-4.6-1.8-1.1-1.1-2.8-.8-4-1.6l-.8-.6-.9.1c-3.2-1.6-7.8-.3-9.9-4.5l.1.1c-1.2.1-1.8-.8-2.5-1.5-1.2-.9-2.7-1.6-2.3-3.5 1.3-2 3.3-2.3 5.5-2.1 24.4 8.9 49.4 15 75 19.8 39.9 7.4 78 1.2 115.5-12.1 8.1-2.9 16.2-5.9 24.5-8.5 6.1-1.9 7.1-4.4 3.3-9.9-11.1-16.2-23.4-31.4-36.7-45.9-31.4-28.4-66.6-50.6-106.4-65.7-27.6-10.5-55.7-11.8-84.5-7.2-7.1 1.1-12 5.5-16.5 10.4-15.3 16.9-23.1 36.3-19.2 59.4 2 15.7 9.9 28.3 20.4 39.5 3.8 4 21.3 15.1 22.9 20.9 0 1.6-.6 2.9-2 3.7-1 .1-14.6-8-15.5-8.4-.2-.7-.7-.9-1.4-.7-1.1-.2-1.9-1-2.6-1.9h.1c-.8-.5-1.4-1.3-2.2-1.8l-.1-.1c-.5-.8-1.1-1.4-1.9-1.9l-.1-.1c-.5-.8-1.1-1.4-1.9-1.8l-.1-.1c-.8-1.4-3-.9-3.5-2.5l.2.2c-1.2-.4-1.9-1.2-2.2-2.4.2-.7 0-1.1-.7-1.4-.4-.7-.9-1.4-1.6-1.8l-.1-.1c-.5-.8-1.1-1.4-1.9-2-.6-.8-1.4-1.4-1.7-2.4l.1.2c-1.1-.5-1.8-1.3-2.1-2.5.2-.6.1-1.1-.6-1.3-.5-.7-1-1.5-1.5-2.3l.1.2c-1.6-.8-1.1-2.8-2.3-3.9v.1c-1.3-1.1-.9-3-2-4.2.3-.7.1-1.3-.5-1.8-.5-.9-1.2-1.6-1.4-2.6.3-.6.2-1-.3-1.4-1.1-1.3-.9-3.1-1.7-4.6.4-.6.2-1.1-.3-1.4-1.5-2-.4-4.6-1.7-6.6 0-7.7-.1-15.4-.1-23.1 1.6-1.8.4-4.3 1.5-6.2.8-1 .9-2.2.6-3.4.7-1.5.6-3.2 1.7-4.6.6-.3.7-.8.3-1.4.2-1 .9-1.8 1.5-2.6.6-.3.8-.8.5-1.4.2-1 .9-1.8 1.5-2.6.6-.3.8-.8.5-1.4.3-1.1 1-1.8 1.7-2.7l.1-.1c1.4-.9.9-2.9 2.2-3.8v.1c.6-.6 1.1-1.3 1.5-2.1.7-.2.9-.7.7-1.4.3-1.2 1-2 2.1-2.5l-.1.2c.3-1 1.1-1.6 1.7-2.4.7-.5 1.2-1.1 1.6-1.9.7-.2.9-.7.7-1.4.3-1.2 1-2 2.1-2.5l-.1.2c.3-1 1.1-1.6 1.7-2.4.7-.6 1.3-1.2 1.9-2l.1-.1c.8-.5 1.4-1.1 1.9-1.9l.1-.1c.8-.5 1.4-1.1 1.9-1.9l.1-.1c.8-.5 1.4-1.2 2.2-1.8h-.1c.6-.8 1.3-1.6 2.4-1.8l-.2.2c.4-1.2 1.2-1.9 2.4-2.2.7.2 1.1 0 1.4-.7.8-.4 1.4-.9 1.9-1.6.8-.6 1.4-1.4 2.4-1.7l-.2.1c.8-1.6 2.8-1.1 3.9-2.3.7-.8 1.5-1.6 2.6-1.8.6.2 1.1.1 1.3-.6.7-.5 1.5-1 2.3-1.5l-.2.1c.8-1.6 2.8-1.1 3.9-2.3 1.1-1.2 2.9-.9 4-2 1.1-1.3 3-.9 4.2-2 .7.3 1.3.1 1.8-.5.9-.5 1.6-1.2 2.6-1.4.6.3 1.1.1 1.4-.5 1.3-.8 3-.6 4.2-1.6.7.3 1.3.1 1.8-.5 1.3-.7 3-.5 4.2-1.5.7.3 1.3.1 1.8-.5 1.3-.7 3-.5 4.2-1.5.7.3 1.2.2 1.8-.3 1.8-1.4 4.4-.1 6.2-1.7.7.3 1.2.2 1.8-.3 1.8-1.4 4.4-.1 6.2-1.7 1.3.2 2.6.4 3.8-.5 2.6-1.4 5.7.3 8.2-1.5 3.3.2 6.6.8 9.8-.5 12-1 23.9-1 35.9 0 1.2.8 2.5.7 3.8.5 1.8 1.6 4.4.3 6.2 1.7.5.5 1.1.6 1.8.3 1.2 1 2.9.8 4.2 1.5 1 .8 2.2.9 3.4.6 1.5.7 3.2.6 4.6 1.7.4.6.8.7 1.4.3 1.5.7 3.2.6 4.6 1.7.4.6.8.7 1.4.3 1.5.7 3.2.6 4.6 1.7.4.6.8.7 1.4.3 1.5.6 3.2.6 4.6 1.5z"/><path id="cl1" fill="#FF9CAC" d="M1450 1314c-4.2-3.5-9.3-5.4-14-8-3.6-5.2-8.5-9.3-12.7-13.9-10-10.9-17.8-23-19.2-38.3 3.4-6.1 9.6-8 15.5-10.2 25.2-9.5 51.3-13.6 78.2-14.6 39.7-1.5 78.4 3.1 116.2 15.3 7.1 2.3 13.4 5.7 19.5 9.7 9.9 8 17.4 18.3 25.1 28.3 6.4 8.4 13.3 16.6 18.2 26-1.2 3.8-4.7 3.7-7.3 4.7-23.6 9-47.6 17-72.3 22.2-15.3 3.2-31 3.8-46.6 2.3-34.7-3.2-68.5-9.8-100.6-23.5z"/><path id="sd1" fill="#FF5E79" d="M1633.5 1254.1c-23.6-9.1-48-15.2-72.8-19.3-8.4-1.4-16.9-2.9-25.6-2.8-21.9.2-43.8-1-65.6 2.1-22.8 3.3-44.9 8.8-65.3 19.8-3.2-8.5-2-17.1-.1-25.6 3.8-17.5 12.9-31.9 26.3-43.8 3.7-3.3 8.5-3.6 13-4.4 32.7-5.5 64.2-1.7 94.7 11.7 33.8 14.8 65.1 33.6 92.4 58.6 1 1 1.9 2.4 3 3.7z"/><path fill="#FDFDFD" d="M1637.9 1200c-7.2-1.3-14.1-3.7-21.1-5.8-4.3-1.3-7-3.9-8.2-7.9-2.2-7.2-4-14.4-6.3-22.7 13.6 3.8 26.3 7.4 38.9 10.9 7.2 6.8 5.9 16.7-3.3 25.5zm4.4 1.9c21.8 8.5 36.6-4.2 51.7-16.7-10.8-.3-21.2-1.5-31.5-4.4-4.7-1.3-9.3-3.7-14.5-2.8-2.9 7.7-7.4 15-5.7 23.9z"/><path fill="none" stroke="#000" stroke-miterlimit="10" stroke-width="6" d="M1584.7 1151.2c56.8 26.5 107.5 27 109.3 26.5 17.2 0 34-16.4 55-5.7s21.5 37.6 21.5 37.6c1.5 37.3-23.5 73.9-43.2 82.1-27.7 23.6-138 52.2-145.3 52.4-8.5.3-59.6 4.5-134-26.2s-47.7-101.4-47.7-101.4c15.6-47.7 71.8-63 71.8-63s53.5-24.1 112.6-2.3z"/></svg>