<svg xmlns="http://www.w3.org/2000/svg" id="mouth" viewBox="0 0 3000 3000"><path id="cl1" fill="#8E382F" d="M1737.3 1184.2c-1.101.3-8.4 6.9-11.3 9.8-2.9 2.9-67.65 14.25-76.25 12.75-8.601-1.5-108.88-54.562-150.051-65.25 0 0 50.101 61.301 54 78.301 7.4 17.899 11.195 20.693 21.304 33.887 12.497 16.313 46.469 21.022 46.469 21.022s36.528 5.124 53.361-5.71c8.03-6.082 14.833-14.333 14.833-14.333s5.5-18.333 16.434-38.866c10.637-19.975 17.1-22.7 23.9-21.7 7-4.201 14.4-12.101 7.3-9.901z"/><path fill="#FDFDFD" d="M1660.042 1274.779c-2.8 2.601-10.075-1.646-12.875 1.054-1.4 1.4-4.635.81-6.834.109-6-7.776-8.833-11.776-22.233-27.642 8.6.6 15.2 3 21.9 1.699 3.3.9 6.8 1 9.8 0 6-2.199 8.5 1.101 10.399 5.601 2.5 5.8 5.301 11.5 7 17.5-1.096 4.091-4.366-1.6-7.157 1.679zM1644 1246.1c10.899-1.101 17.899-8 24.1-16.101.3-3.199-2.2-3.8-4.4-4.3-10.8-2.1-22-2.3-32.199-7.3-2.5-1.2-5.101 0-7.4 1.5-3.6 5.5-7 11-10.7 16.3-1.3 1.8-1.8 3.4-.6 5.3 10.299 2.001 20.599 4.601 31.199 4.601zm-87.416-22.6c12.6 24.5 12.685 22.596 22.25 35.833 4.333 4.667 5.514 3.171 11.666 7.833 8.416 2.193 19.667 6.833 19.667 6.833s6.833 1.943 15.166 1.943c2.3-1.9 11.033 2.3 9.834 0-6.334-8.943-13.667-17.609-19.768-24.243-4.899-4.6-10-8.399-16.5-10.7-12.2-4.3-23.899-10-34.7-17.3-.899-.699-6.915-1.099-7.615-.199zm28.416-27.6c-2-1.3-4.301-1.7-6.7-.8-5.5 6.2-8.8 13.8-13.3 20.7-.301 1.5-.101 2.899 1.1 4 4.6 2.6 8.9 5.6 13.7 7.699 9.3 3.9 17.8 9.7 28.3 10.5 3.1-7.899 9.5-13.899 12.3-21.899-10.6-8.7-23.9-12.799-35.4-20.2zm-19.6 15c3.7-6.6 9.2-12.5 7.601-20.9-13-12.3-28.5-15.5-43.301-24.8-1.399-.899-10.266-2.373-11.566-1.073.4.601 2.051 4.272 2.45 4.873.3.8 2.119 3.483 2.819 4.083 8.6 13.3 17.864 24.267 26.265 37.667 1.699 2.601 6.583 4.5 10.232 5.45 4.2 2.4 3.4-3.6 5.5-5.3z"/><path fill="#B8C2E0" d="M1668.1 1230c-2.5-3.1-6.1-1.699-9.3-2.199-7.801-1.301-15.7-2.601-23.101-5.601-3.699-1.5-7.5-2.699-11.6-2.199 1-2.601 3.5-15.751 5.9-17.751 2.5 1.2 8.833 2.734 11.333 3.833 4.5 4.5 10 1.417 16.5 2.638 8.101-1.2 7.917.596 15.917-.804 2.1-.5 5.563 8.479 4.55 10.384-2.426 4.56-5.799 8.699-10.199 11.699zm-86.434-55.583c-2.6-1.3-9.66-5.017-12.261-6.417-17.199-9.3-43.989-18.516-62.489-24.916-2.2-.6-1.815 3.083-1.416 5.083 3.9 4.5 7.05 11.85 11.75 15.75 1.6.399 11.449 2.583 12.749 3.384 13.9 9.5 29.7 15.699 43.9 24.699 5.001-3.6 12.668-11.583 7.767-17.583zm42.359 26.84c-13-8-24.701-17.221-38.501-24.021-3.601 4-9.523 13.364-7.124 18.864 4.7.9 8.4 3.6 12.5 5.9 9.5 5.3 18.9 10.899 29.4 14.1 3.3-3 9.125-11.543 3.725-14.843z"/><path fill="none" stroke="#000" stroke-miterlimit="10" stroke-width="6" d="M1737.3 1184.2c-1.101.3-8.4 6.9-11.3 9.8-2.9 2.9-48.435 17.792-76.25 12.75-42.75-7.75-102.25-62.449-150.051-65.25 0 0 40.993 55.537 54 78.301 9.609 16.817 20.168 38.138 35.135 45.366 21.53 10.396 43.565 11.156 58.333 10.667 25.166-.833 32.202-6.203 41.333-21 5.9-9.562 7.333-23.667 17.6-39.033 12.572-18.816 13.1-20.7 19.9-19.7 7-4.201 18.4-14.101 11.3-11.901z"/></svg>