<svg xmlns="http://www.w3.org/2000/svg" id="mouth" viewBox="0 0 3000 3000"><path fill="#D25C5C" d="M1616.199 1229.801c-3.3-1.4-6.6-2.7-9.899-4.101-.7-.3-1-.6-.9-1 .1-.5.3-.699.5-.699 16 1.3 32 1.8 48-.301 9.3-2.399 12-2.1 18-2.899 1-.4 1.8-.5 2.9-.5 2.399.399 4.6-.4 6.899-1.101 1.4-.899 2-1.5 3.301-.6l1.1-.2c.9 1.4.7 4.801 1.4 6.301-.2.5-.101.899.199 1.3 1.301 8.899 6.101 15.8 11.801 22.3-5.601 1.5-11.101-.2-16.4-1.1-21.9-3.801-43.7-7.9-64.3-16.7-.601-.401-1.601-.501-2.601-.7z"/><path fill="none" stroke="#000" stroke-linecap="round" stroke-miterlimit="10" stroke-width="6" d="M1698.4 1173.9s19.5 31.9 17.601 34c-1.9 2.1-30 8.3-52.9 11.8-104.8 17.101-122.1-42.199-122.1-42.199m148.198 38.599s-2.3 15.399 14.5 35.2m9.301 29.2s34.75-25 12.75-26.5c-28.159-1.92-60.25-6.1-68.851-10-14.7-1.6-63.399-20.1-72.6-27.8m-25.199-43.3c-22.8-.9-30.7 13.4-30.7 13.4"/></svg>