<svg xmlns="http://www.w3.org/2000/svg" id="mouth" viewBox="0 0 3000 3000"><path id="cl1" fill="#721A1A" d="M1555.3 1170.3c-4.8 2.699-7.601 14.899-11.7 11.6-3.6-2.9-.1-6 1.7-8.6 1.699-2.4 3.8-4.601 6-6.7 4.3-4.1 4.699-4.2 8.1 1.2 2 3.199 5.2 2.699 7.7 3.399 18 4.7 36.399 7.5 55 8.601 7.899.399 15.8 1.399 23.8 1.5 40.3.5 80.1-3.4 120.1-11.9-1.199-2.4-2.199-4.6-3.399-7.1 7.6.3 19.1 8.699 20.8 14.8.4 1.3.3 2.7-.7 3.7-1.5 1.6-3.3 1.1-4.399-.101-3.833-17.399-14.033-5.899-16.833-2.899-23 25.1-43.268 48.3-77.467 54.399-22.301 4-43.7.9-64.5-7.1-22-8.5-39.133-25.1-56.032-41.3-3.402-2.799-5.47-10.199-8.17-13.499z"/><path fill="#FEFEFE" d="M1741.699 1193.699c-42 36.5-97.3 41.2-144.199 8.601.8-5.9 5.399-3.7 8.5-3.7 28.8-.101 57.699 1.5 86.5-1.601 12.899-1.399 25.6-3.8 38.3-5.899 3.8-.601 8.6-3.601 10.899 2.599z"/><path id="sd1" fill="#D2D3D3" d="M1741.699 1193.699c-1.199-1.5-2.6-1.8-4.399-1.399-31.7 8.3-64 10.3-96.601 9.5-13.6-.301-27.3 1.3-40.8-1.2-.7-.101-1.6 1.1-2.3 1.6-8.5-4.5-15.7-10.7-22.4-18 59.5 10.3 118.7 8.2 178.6-2.5-2.999 5.999-7.499 9.1-12.1 11.999z"/><path fill="none" stroke="#010101" stroke-linecap="round" stroke-miterlimit="10" stroke-width="6" d="M1555.3 1170.3c-4.8 2.699-7.601 14.899-11.7 11.6-2.133-1.1 1.734-4.833 3.534-7.433 1.699-2.4 3.633-4.234 5.833-6.333 4.3-4.1 3.032-5.734 6.433-.333 2 3.199 5.2 2.699 7.7 3.399 18 4.7 36.399 7.5 55 8.601 7.899.399 15.8 1.399 23.8 1.5 40.3.5 80.1-3.4 120.1-11.9-1.199-2.4-2.199-4.6-3.399-7.1 7.6.3 19.1 8.699 20.8 14.8.4 1.3.3 2.7-.7 3.7-1.5 1.6-5.3-6.3-6.399-7.5-4.801-5.3-7.867-1.167-10.667 1.833-23 25.1-47.434 50.966-81.633 57.066-22.301 4-43.7.9-64.5-7.1-22-8.5-40.686-22.34-54.866-40.966-3.851-5.056-6.636-10.534-9.336-13.834zm145.934 75.699c-5.1 1.4-10.1 3.2-15.3 4-12.3 1.801-24.7 3.9-37.3 2.301"/></svg>