<svg xmlns="http://www.w3.org/2000/svg" id="图层_3" viewBox="0 0 3000 3000"><path d="M1656.693 1242.136c5.845-5.395 22.027-13.486 29.671-13.486 7.639 0 13.033 6.742 17.533 12.139 4.494 5.396-6.745 6.742-6.745 6.742s-5.844-11.742-12.139-11.742c-6.293 0-18.884 13.092-18.884 13.092s-15.281-1.351-9.436-6.745zm-60.689-17.533c-1.35-5.395 12.14-35.063 35.065-35.063 22.922 0 37.312 15.282 53.943 14.832 16.634-.446 35.065-17.979 48.55-14.832 13.488 3.145 18.577 12.586 21.277 17.532 2.693 4.944 7.494 11.688.3 13.486-7.188 1.797-9.438-22.433-21.577-24.23-12.139-1.797-24.271 11.587-47.199 12.486-22.927.9-44.359-11.836-56.947-11.836-12.59 0-23.272 23.276-23.272 23.276s-8.789 9.743-10.14 4.349z"/></svg>