<svg xmlns="http://www.w3.org/2000/svg" id="图层_3" viewBox="0 0 3000 3000"><path fill="#542525" d="M1614.813 1203.25l80.161-27.767 58.505-2.704 6.495 15.236v28.292l-75.831-6.531-69.33-6.526z"/><path d="M1522.381 1246.89s88.171-57.42 157.425-71.934c67.104-14.063 66.19-10.43 78.003-10.883 0 0 8.667 15.78 8.667 26.116s-2.165 23.938-2.165 23.938l-8.666-2.179s1.628-13.603 2.164-21.762c.546-8.163-6.501-17.058-6.501-17.058s-15.683-2.909-75.808 12.867c-60.127 15.775-126.576 52.727-135.787 56.534-9.211 3.816-17.332 4.361-17.332 4.361zm248.431-115.457s11.694 22.63 10.831 28.292c-.864 5.654-9.53 14.358-8.666 19.585.864 5.222 17.332-7.403 15.168-19.585-2.173-12.189-17.333-28.292-17.333-28.292z"/><path d="M1788.145 1222.834s-9.212-8.702-47.668-15.233c-38.456-6.527-114.832-4.351-114.832-4.351l-19.497 8.703s94.791.545 132.164 4.354c37.375 3.809 49.833 6.527 49.833 6.527z"/></svg>