<svg xmlns="http://www.w3.org/2000/svg" id="图层_3" viewBox="0 0 3000 3000"><path fill-rule="evenodd" d="M1552.101 1162.015c2.326-2.813 102.51 34.131 143.211 31.505 40.701-2.625 96.854-35.132 100.243-33.005 4.149 4.126-50.121 113.773-105.521 117.025-58.79 1.124-140.442-110.462-137.933-115.525z" clip-rule="evenodd"/><path fill="#FFF" fill-rule="evenodd" d="M1555.12 1164.267s100.243 37.132 140.944 34.507c40.701-2.628 97.985-36.759 97.985-36.759s-51.63 106.896-104.017 110.271c-52.38 3.376-134.912-108.019-134.912-108.019z" clip-rule="evenodd"/><path fill="#D3D3D3" fill-rule="evenodd" d="M1584.512 1184.521l27.138 34.507-12.816-3.75s-8.601-9.232-18.841-21.004c-11.543-13.267-25.625-30.007-25.625-30.007s101.75 37.132 141.697 34.507c46.982-4.628 97.23-36.008 97.23-36.008s-5.986 12.807-12.81 24.003a1315.576 1315.576 0 0 1-13.569 21.755l12.81-30.754s-36.929 29.63-88.939 29.256c-52.006-.377-106.275-22.505-106.275-22.505z" clip-rule="evenodd"/><path fill-rule="evenodd" d="M1565.67 1145.512s-1.507 13.128-10.55 20.254c-9.046 7.127-21.86 6.003-21.86 6.003s12.063-7.878 17.334-10.503c5.279-2.626 15.076-15.754 15.076-15.754zm212.551 1.5s5.278 13.503 14.321 18.002c9.044 4.503 21.107 2.251 21.107 2.251s-12.816-4.876-18.095-8.252c-5.272-3.375-17.333-12.001-17.333-12.001zm-180.894 66.765s18.465 8.626 36.176 12.001c17.717 3.376 39.195 8.252 39.195 8.252s-28.639-2.625-37.684-4.5c-9.043-1.877-32.41-7.505-32.41-7.505l-5.277-8.248zm102.509 19.503s21.478-4.126 36.177-9.753c14.698-5.625 32.41-15.754 32.41-15.754l-7.538 9.753s-14.321 6.001-24.119 9.753c-9.797 3.75-36.93 6.001-36.93 6.001z" clip-rule="evenodd"/></svg>