<svg xmlns="http://www.w3.org/2000/svg" id="图层_3" viewBox="0 0 3000 3000"><path fill-rule="evenodd" d="M1553.85 1184.878s24.785 3.169 50.283 5.458c27.021 2.427 64.444-1.506 64.444-1.506l27.882 11.842 20.644-14.727 43.188-2.954 15.764-2.532-15.764 9.137-38.188 10.47s-16.378 17.907-26.888 17.592c-10.516-.315-31.417-12.872-31.417-12.872s-34.546-1.947-59.564-7.595c-25.16-5.674-50.384-12.313-50.384-12.313zm57.343 45.299s41.737 18.871 74.548 16.985c32.813-1.888 77.415-26.424 77.415-26.424s-34.406 35.544-79.327 37.748c-44.916 2.201-72.636-28.309-72.636-28.309z" clip-rule="evenodd"/><path fill-rule="evenodd" d="M1576.286 1166.004s-.318 16.989-9.556 23.593c-9.244 6.605-30.586 8.493-30.586 8.493l21.023-15.098 19.119-16.988zm181.945-.622l12.34 13.708 19.194 17.823s-3.805-14.857-10.974-21.936c-7.166-7.076-20.56-9.595-20.56-9.595z" clip-rule="evenodd"/></svg>