<svg xmlns="http://www.w3.org/2000/svg" id="mouth" viewBox="0 0 3000 3000"><path fill="#FFF" d="M1538.3 1171.2s224.5 1.5 230.7 2.9c6.3 1.5 1 14.8-9.4 32.2-10.4 17.4-16.7 20.8-29.7 22.5-13.1 1.7-134.7 8.5-142.2 6.5-7.5-1.9-44.7-32.7-51.5-45s-4.4-19.1 1.5-19.1c0 0 225.2 1.5 231.5 2.9 6.3 1.5 1 14.8-9.4 32.2-10.4 17.4-16.7 20.8-29.7 22.5-13.1 1.7-134.7 8.5-142.2 6.5-7.5-1.9-44.7-32.7-51.5-45s-4.4-19.1 1.5-19.1c-5.8 0-8.2 6.8-1.5 19.1s44 43.1 51.5 45 129.2-4.8 142.2-6.5c13.1-1.7 19.3-5.1 29.7-22.5 10.4-17.4 15.7-30.7 9.4-32.2-6.5-1.5-230.9-2.9-230.9-2.9z"/><path id="sd1" d="M1546.7 1195.5s206.7-2.1 217-2.5c11.5-.5 6-18.2 6-18.2l-231.8-3.8s-4.5 3.1-2.8 8.8c-.1 0 .7 14.4 11.6 15.7z" opacity=".25"/><path id="sd1" d="M1585 1172.8s-.7 44 16.3 60.8c1.8 1.8-24.6-5-24.6-5s-55.4-47.2-41.3-57.5c8.9-6.4 47.9.9 49.6 1.7zm54.3-.1s-7.2 8.8 7.8 9.3 77.5-1.3 83.7 2 13 28.2 11.7 37.3 17.8-16.3 18.2-17 10.3-31 10.3-31l-71.5-.7-60.2.1z" opacity=".25"/><path fill="none" stroke="#000" stroke-miterlimit="10" stroke-width="6" d="M1539.3 1170.3s223.9 1.4 230.1 2.9c6.3 1.4 1 14.7-9.4 32.1s-16.6 20.7-29.7 22.4c-13 1.7-134.4 8.4-141.8 6.5-7.5-1.9-44.6-32.6-51.4-44.9s-4.3-19.1 1.4-19.1c0 0 224.6 1.4 230.9 2.9 6.3 1.4 1 14.7-9.4 32.1s-16.6 20.7-29.7 22.4c-13 1.7-134.4 8.4-141.8 6.5-7.5-1.9-44.6-32.6-51.4-44.9s-4.3-19.1 1.4-19.1c-5.8 0-8.2 6.8-1.4 19.1 6.8 12.3 43.9 42.9 51.4 44.9 7.5 1.9 128.8-4.8 141.8-6.5s19.3-5.1 29.7-22.4c10.4-17.4 15.7-30.6 9.4-32.1-6.3-1.3-230.1-2.8-230.1-2.8z"/></svg>