<svg xmlns="http://www.w3.org/2000/svg" id="mouth" viewBox="0 0 3000 3000"><path id="cl1" fill="#4C1A1A" d="M1531.5 1186.301c-3.801 2-3.4 5.1-4.5 7.399-.801 1.601-2 3.2-3.7 2.7-2.101-.5-3-2.5-2.9-4.7 0-.3-.1-.699.101-1 4.699-11.399 9.8-22.6 21.699-28.6 1.6-.8 3-1.3 4.301.4 1.6 2-.301 2.8-1.2 4-1.9 2.6-5.9 3.199-6.7 7.199 2.2 2.101 5 1 7.4 1 46-.199 91.899.301 137.899-1 27-.8 53.9-.5 80.8-.899 10.2-.2 12.2 3.1 7.301 11.699-5.801 10.101-12.1 19.801-17.801 30-2.3 4-5.3 5.4-9.699 5.601-21.301.6-42.5 1.3-63.801 2-32.6.899-65.1 1.899-97.6 3.1-25.8 1-19.6 3.5-35.4-17.1-5.4-7.2-10.6-14.4-16.2-21.799z"/><path fill="#FEFFFF" d="M1646 1179.5c0-1.399 23.399-1 15.399-.899h5c2.601 0 4.5.7 4.5 3.899.101 6.601.7 28.25.9 34.85.101 3.7-2 4.4-5 4.4-5 0-10-.101-15 .3-4.7.4-5.7-1.9-5.399-5.9.3-2.301-.4-34.349-.4-36.65zm-31.8 43.75h5.1c1.2.199 14.2.3 15.4-.301.2-.199-.101-3.699-.2-4-.2-7.3-.7-29.449-.9-36.749 0-1.899.7-2.2-1.3-2.6-1.5 0-15 .2-18.2.2 0 .699.1 13.5.1 14.199-.001 3.302.201 25.95 0 29.251zm145.6-46.15c-10.601.2-26 .3-42 .9l.4 41.648c3.899 0 7.2.101 10.5 0 5-.1 16.399.101 16.399.101l14.701-42.649zm-153.9 17.701c.101-9.301-.1-14.101-.8-14.101-1.4-.1-20.1-.5-21.801.4-.299.2.801 32.649.501 38.549-.2 3.4 1 4.7 4.5 4.5 5.2-.399 10.5-.5 15.7-.699 2.699-1.4 1.9-24.149 1.9-28.649zm-33.7 29.348h3.2s-1.001-18.648-1.001-22.648c0-3.7.601-20.801.601-20.801l-28.2 1.2c4.7 8 18.4 42.649 18.4 42.649l7-.4zm133.499-31.148c-.6-18.601 2.5-15.801-15.6-15.7-8.7.1-8.7.2-8.3 9.5.1 2 .9 25.85 1 29.049.4 5.801.8 4.5 23 3.801.401-.101.001-22.751-.1-26.65z"/><path id="hl1" d="M1546.8 1189.801l215.2-4.5 5.3-11.801-224.3 2 3.8 14.301z" opacity=".25"/><path fill="none" stroke="#010101" stroke-linecap="round" stroke-miterlimit="10" stroke-width="6" d="M1531.5 1186.301c-3.801 2-3.4 5.1-4.5 7.399-.801 1.601-2 3.2-3.7 2.7-2.101-.5-3-2.5-2.9-4.7 0-.3-.1-.699.101-1 4.699-11.399 9.8-22.6 21.699-28.6 1.6-.8 3-1.3 4.301.4 1.6 2-.301 2.8-1.2 4-1.9 2.6-5.9 3.199-6.7 7.199 2.2 2.101 5 1 7.4 1 46-.199 91.899.301 137.899-1 27-.8 53.9-.5 80.8-.899 10.2-.2 12.2 3.1 7.301 11.699-5.801 10.101-12.1 19.801-17.801 30-2.3 4-5.3 5.4-9.699 5.601-21.301.6-42.5 1.3-63.801 2-32.6.899-65.1 1.899-97.6 3.1-25.8 1-19.6 3.5-35.4-17.1-5.4-7.2-10.6-14.4-16.2-21.799h0z"/></svg>