<svg xmlns="http://www.w3.org/2000/svg" id="mouth" viewBox="0 0 3000 3000"><path id="cl1" fill="#3F1D1D" d="M1664.199 1243.9c-20.3 0-40.6.1-60.9 0-10.399-.1-11.399-1-11.199-11.6.4-17.9 3-35.601 8-52.801 4.5-15.399 10.699-20.5 27-21.399 28.199-1.601 56.5-1.5 84.699-.2.701 0 1.301 0 2 .1 5.101.4 10.5-1.3 15.101 3.2 5.399 5.3 9.2 11.2 11.101 18.5 3.199 12.5 2.399 25 .899 37.601-.7 5.899-2.101 11.699-3.399 17.5-1.801 8.1-3.101 9.199-11.4 9.199-20.601 0-41.201-.1-61.902-.1z"/><path id="cl1" fill="#E4A6A6" d="M1719.3 1215.4c-27.3.1-54.601.3-81.8.4-5.301 0-18.867.028-24.167-.171-5.601-.2-12.9 2.5-16.4-1.101-4.1-4.3.199-11.3 1-17 .699-5.199 2.5-20.333 3.9-25.433 3.3-2.9 7.1-4.801 11.6-4.9 21.6-.7 51.366-.629 72.467 4.671 14 3.5 26.3 19.533 31.9 34.233 1.3 2.801 3.1 5.801 1.5 9.301z"/><path id="sd1" fill="#4F4F4F" d="M1719.3 1215.4c-5.9-20-20.2-39.233-40-42.333-23.101-3.601-54.367-4.971-77.567-1.171 2.2-10.7 17.768-13.829 27.667-14.129 13.2-.301 26.5-1.4 39.7-1.601 15.6-.3 31.1 2.3 46.699 1.5 5-.2 9.601.566 12.201 4.167 1 1.3 9.5 5.9 10 7.5 5 13.9 3.101 37.934 1.5 54.334-3.699-5-16.1-8.366-20.2-8.267z"/><path fill="#DBD9D9" d="M1723.8 1243.727c-1.8.2-3.101.5-4.4.5-36.6 0-83.155.122-119.755.022-7.2 0-8.301-12.127-7.2-18.627.5-2.8 1.7-4.2 4.5-4.101 1.7.101 3.3 0 5 0l110.755-.022c9.7.001 9.7 10.728 11.1 22.228z"/><path fill="none" stroke="#020101" stroke-linecap="round" stroke-miterlimit="10" stroke-width="6" d="M1664.199 1243.9c-20.3 0-40.6.1-60.9 0-10.399-.1-11.399-1-11.199-11.6.4-17.9 3-35.601 8-52.801 4.5-15.399 10.699-20.5 27-21.399 28.199-1.601 56.5-1.5 84.699-.2.701 0 1.301 0 2 .1 5.101.4 10.5-1.3 15.101 3.2 5.399 5.3 9.2 11.2 11.101 18.5 3.199 12.5 2.399 25 .899 37.601-.7 5.899-2.101 11.699-3.399 17.5-1.801 8.1-3.101 9.199-11.4 9.199-20.601 0-41.201-.1-61.902-.1h0z"/></svg>