<svg xmlns="http://www.w3.org/2000/svg" id="mouth" viewBox="0 0 3000 3000"><path id="cl1" fill="#592E2E" d="M1500.6 1185.1c-.9 2.1.4 3 .8 4.2.8 2.8.4 5.1-2.399 6.699-2.801 1.601-5.2.7-7.2-1.3-4-3.899-5.7-8.8-5.601-14.399.2-7.4 2.801-13.7 8.801-18.2 2-1.5 4.5-3.2 7.3-1.101 3 2.4 2.399 5.101.5 7.9-.9 1.3-2.8 2-2.2 4.5 12.7 1.7 25.6.2 38.301-.6 19.6-1.2 39.199-1.101 58.799-1.801 27.601-1 55.201-1.399 82.801-2.199 21.6-.7 43.199-1.7 64.8-1.7 8.3 0 16.5-1.9 24.9-1.3 8.1.6 9.5 2.199 8.1 10.399-4.899 28-9.8 56.101-14.7 84.101-1.8 10.3-2.199 10.399-12.899 10.699-29.9.9-59.8 2.2-89.7 3-18.9.5-37.9 1-56.8 2-14.9.801-29.9.601-44.8 1.601-8 .6-9-.601-11.301-8.101-7.6-25.1-15.199-50.199-22.699-75.3-2.801-9.3-2.7-9.3-12.101-9.3-4.401.202-8.702.202-12.702.202z"/><path fill="#DED38E" d="M1616 1265.4c-6.301 0-14.101 3.4-18.4-.4-4.6-4.1-2.801-12.399-3.801-18.899-.699-4.601-1.199-9.2-1.799-13.8-.5-3.301.699-4.9 4.199-5 10.301-.301 20.6-.801 30.801-1.301 3.699-.199 5.399 1.4 5.899 5 1.3 9.9 2.7 19.7 4.2 29.601.5 3.5-.9 4.899-4.301 4.899-5.499-.1-11.099-.1-16.798-.1zm-78.1-82.7c-3.6.101-5.399 1.9-4.2 5.9 2.7 8.5 5.4 17.1 7.801 25.7.8 2.8 2.399 3.699 5 3.6 9.3-.2 18.6-.2 27.899-.4 3.2-.1 4.8-1.5 4.3-5.1-.6-3.9-.6-8-1.399-11.9-1.2-5.8.7-13.399-3.2-17.1-4.5-4.2-12-.7-18.199-.8-6.001 0-12.001-.1-18.002.1zm86.799 33.2c4.4.1 6-1.6 5.301-6-1.301-8.2-2.5-16.5-3.5-24.7-.4-3.699-2-5.1-5.801-4.899-7.3.6-14.6.699-21.899 1-12.9.5-12.9.5-11.3 12.699l.3 3c.8 6.2-.7 14.2 3.6 18 4.3 3.801 12.101 1 18.4.9 4.899-.099 9.899-.2 14.899 0zm33.201-36c-5.3 0-10.6.1-15.899 0-3.2-.1-5 .9-4.5 4.6 1.3 8.9 2.5 17.801 3.699 26.7.4 2.8 1.9 4 4.7 3.9 9.3-.3 18.601-.7 27.899-.8 4 0 5.101-2.101 4.9-5.601-.4-8.3-.699-16.6-.9-24.899-.1-3.4-1.699-4.7-4.899-4.601-5 .101-10 0-14.899 0-.101.201-.101.401-.101.701zm-10 80.3c.3 3.5 2.4 4.301 5.4 4.2 7.6-.2 15.3-.5 22.899-.5 3.4 0 4.801-1.4 4.601-4.8-.4-9.9-.9-19.9-1.2-29.8-.1-3.4-1.6-4.801-4.9-4.7-10.199.5-20.399.899-31 1.399.4 12.101 3.1 23.101 4.2 34.201zm46.2-82.1c-4.1-.1-6.1 1.2-5.801 5.7.601 8.199 1 16.5 1.201 24.8.1 3.9 1.899 5 5.5 5.1 8 .101 15.899-.399 23.799-1.1 2.9-.2 4.201-1.7 4.4-4.3.6-9.801 3-19.5 2.7-30.101-11.399.001-21.6.102-31.799-.099zm-141.901 70.901c2.2 6.199 1.6 15 7.1 17.8 5.201 2.7 13 .6 19.601.5.7 0 1.3-.1 2-.1 3.399 0 4.7-1.4 4.3-4.9-1.4-9.9-2.6-19.8-3.699-29.7-.4-3.7-2.2-5.2-5.9-5-9.301.4-18.5.601-29.4 1 2.199 7.799 3.799 14.2 5.998 20.4zm143.1-24.901c-3.899-.1-5.199 1.8-5 5.5.601 9.6 1 19.3 1.4 29 .1 3.3 1.4 4.9 4.801 4.7 5.3-.301 10.6-.7 16-.801 3.899-.1 5-2.199 5.3-5.699 1-10.601 2.2-21.2 3.5-32.7-9.4 0-17.7.1-26.001 0zm47.801-47.099c-4 0-6 1.6-6.4 5.699-.699 8-1.8 15.9-2.699 23.801-.4 3.399.1 5.899 4.5 5.6 6.3-.3 12.699-.4 19-.4 3.3 0 4.8-1.699 5.3-4.699 1-5.9 2.1-11.801 3.1-17.7 2.3-13.5 2.3-13.5-11.899-12.9-3.602.299-7.303.599-10.902.599zm-2.301 84.699c12.301-.199 12.601-.199 14.4-12.8 1.301-8.6 4.1-17.1 3.801-25.9h-22.5c-3.301 0-4.5 1.7-4.9 4.9-1.1 10.9-2.4 21.7-3.801 33.8h13z"/><path fill="none" stroke="#000" stroke-linecap="round" stroke-miterlimit="10" stroke-width="6" d="M1500.6 1185.1c-.9 2.1.4 3 .8 4.2.8 2.8.4 5.1-2.399 6.699-2.801 1.601-5.2.7-7.2-1.3-4-3.899-5.7-8.8-5.601-14.399.2-7.4 2.801-13.7 8.801-18.2 2-1.5 4.5-3.2 7.3-1.101 3 2.4 2.399 5.101.5 7.9-.9 1.3-2.8 2-2.2 4.5 12.7 1.7 25.6.2 38.301-.6 19.6-1.2 39.199-1.101 58.799-1.801 27.601-1 55.201-1.399 82.801-2.199 21.6-.7 43.199-1.7 64.8-1.7 8.3 0 16.5-1.9 24.9-1.3 8.1.6 9.5 2.199 8.1 10.399-4.899 28-9.8 56.101-14.7 84.101-1.8 10.3-2.199 10.399-12.899 10.699-29.9.9-59.8 2.2-89.7 3-18.9.5-37.9 1-56.8 2-14.9.801-29.9.601-44.8 1.601-8 .6-9-.601-11.301-8.101-7.6-25.1-15.199-50.199-22.699-75.3-2.801-9.3-2.7-9.3-12.101-9.3-4.401.202-8.702.202-12.702.202h0z"/></svg>