<svg xmlns="http://www.w3.org/2000/svg" id="mouth" viewBox="0 0 3000 3000"><path id="cl1" fill="#561815" d="M1742.708 1162.833c4.928.045 8.191.167 13.892.467 8.6.399 11.2 3.6 9 12.399-2.9 11.601-6.7 23.2-13.7 32.9-5.1 7.2-9 14.8-11.6 22.899-4.9 15.2-14.5 23.101-30.5 25.801-29.4 5-58.9 9-88.7 10.5-1.7.1-3.3.1-5 0-20.4-1-32.1-3.801-40.1-29.5-1-3.2-2.2-6.301-3.2-9.5-2.5-8-6.7-13.7-15.101-17.101-9.199-3.699-17.199-10-22.399-19-5.8-10-1.7-18.8 9.7-19.6 21.5-1.6 43-2.8 64.399-4.1 22.5-1.301 45-2.801 67.5-3.9 20.9-1 47.226-1.92 53.976-2.059 1.425-.027 9.126-.231 11.833-.206z"/><path id="sd1" fill="#5C5C5C" d="M1746.8 1195.6c-2.2 8.3-7.601 13.1-11.101 19-1.1 1.899-3.6 1.3-5.5 1.6-16.8 1.9-33.699 3.8-50.5 5.601-24.1 2.6-48.199 5.1-72.399 7.6-6.9.7-14.4 3.2-20.7 1.4-7.1-2-5.6-11.9-9.9-17.301-1-1.3-1.6-2.8-3.3-5.8 58.299-4.6 115.4-7.899 173.4-12.1z"/><path fill="#F8F9F9" d="M1646.199 1256.1c-1.699.1-3.3.3-5 .399-.699.101-1.5.4-2 .101-6.3-3.601-3.399-10.5-5.399-15.7-1.5-3.8 2.199-4.1 4.699-4.4 4.301-.5 8.601-1 12.9-1 3.3 0 8-3.6 9.8.801 2.101 5.1 2.301 11 1.801 16.6-.2 1.9-2.5 1.9-4.101 2.1-4.3.601-8.6.9-12.8 1.301.201-.102.201-.102.1-.202zm-21.099-67.7c.4 3.8 2.1 4.9 6 4.5 8.6-.8 17.3-1 25.9-1.7 8.3-.699 8.1-.8 7.3-8.899-.4-4.301-1.3-6.7-6.5-6.2-11.2 1-22.5 1.5-33.8 2.2-.801 3.699.699 6.799 1.1 10.099zm-36.7 53.5c10-1.1 19.3-1.9 28.4-3.2 4.399-.6 6.2 1.301 6.7 5.101.5 4.3 2.199 8.3 1.8 12.699-19.601 4.2-30.5.1-36.9-14.6zm87.6-52.099c-.7-4.9-1.2-8.801-1.9-13.601 10.6-1.5 21.1-2.3 31.6-2.1 5.7.1 3.301 5.4 4 8.6.7 3-.3 5-4 5.2-9.501.401-19.1 1.2-29.7 1.901zm-61.1 3.899c-8.6.7-16.2 1.101-23.6 2-5.2.7-6.8-1.6-7.5-6.399-1.3-9-1.601-9 7.8-9.4 4.6-.2 9.3 0 13.8-.7 5.5-.8 8 1.3 8.4 6.601.3 2.398.7 4.598 1.1 7.898zm81.299 37.2v18.3c-5 1.5-10.5 2.4-16.1 2.9-1.3.1-3.1.7-3.9.1-5-4.3-1.899-10.5-3.399-15.699-.9-3.101 2.1-3.7 4.399-3.9 5.901-.601 11.901-1.101 19-1.701zm-153.899-47.2c8.899-2.3 17.899-1.7 26.8-1.899 3.9-.101 3.2 3.699 3.8 6 2.2 8.5 1.8 8.899-6.899 9.699-14.101 1.2-17.802-.9-23.701-13.8zm213-10.1c-2.2 11.2-2.2 11.3-12.3 11.899-5.601.301-11.2.601-16.801.801-1.899.1-4.399.699-5.1-1.7-1-3.1-1.5-6.4-.7-9.7.101-.6 1.601-1.199 2.5-1.199 10.601-.101 21.401-.101 32.401-.101zm-25.4 54.701c-2.399 12.8-9.8 18.399-21.7 18.399-.1-.199-.399-.5-.5-.8-2.199-16.1-1.8-16.7 13.9-17.9 2.7-.199 5.3-.9 8.3.301z"/><path fill="none" stroke="#000" stroke-linecap="round" stroke-miterlimit="10" stroke-width="6" d="M1739.6 1163.2c5.7 0 11.3-.2 17 .101 8.6.399 11.2 3.6 9 12.399-2.9 11.601-6.7 23.2-13.7 32.9-5.1 7.2-9 14.8-11.6 22.899-4.9 15.2-14.5 23.101-30.5 25.801-29.4 5-58.9 9-88.7 10.5-1.7.1-3.3.1-5 0-20.4-1-32.1-3.801-40.1-29.5-1-3.2-2.2-6.301-3.2-9.5-2.5-8-6.7-13.7-15.101-17.101-9.199-3.699-17.199-10-22.399-19-5.8-10-1.7-18.8 9.7-19.6 21.5-1.6 43-2.8 64.399-4.1 22.5-1.301 45-2.801 67.5-3.9 20.9-1 41.8-1.7 62.7-2.5l.001.601z"/></svg>