<svg xmlns="http://www.w3.org/2000/svg" id="mouth" viewBox="0 0 3000 3000"><path id="cl1" fill="#6D2213" d="M1677.4 1211.1h-57.8c-4.7-.101-9.7.1-11.9-5.2-2.199-5.2 2.101-7.8 5-10.9 11.9-12.5 24.2-24.699 39.9-32.6 19.9-10.1 40.1-13.5 60.4-1 11.3 7 19 17.4 25.8 28.5 2.399 3.9 4.5 8.1 6.2 12.4 2 4.899.3 7.6-4.7 8.5-2.3.399-4.601.199-7 .199-18.601.101-37.3.101-55.9.101z"/><path fill="#FDFDFD" d="M1652.3 1172.5v33.774h-15.5V1183.2c5.2-3.7 15.5-10.7 15.5-10.7zm8.7-3.699v37.574h14.5v-42.074s-8.2.199-14.5 4.5zm22-4.5v42.074h12v-42.074s-7.5-1.5-12 0zm19.8 4v38.074h13.5v-27.074s-3.7-6.701-13.5-11z"/><path id="sd2" fill="#282828" d="M1636.5 1206.375s-19.301.6-18.9 0c.4-.601 18.9-23.375 18.9-23.375v23.375zm80.5-26.875v26.774h14.6s-11.2-22.973-14.6-26.774z"/><path id="sd1" d="M1616.3 1198.801s115.5-2.801 117.3-2.5c1.8.3 10.968 12.646 10.968 12.646h-134.726m13.357-24.621s53.103-20.229 102.402-12.429l-29.538-17.439-30.938 1.292-41.926 28.576z" opacity=".25"/><path fill="none" stroke="#000" stroke-linecap="round" stroke-miterlimit="10" stroke-width="6" d="M1677.4 1211.1h-57.8c-4.7-.101-9.7.1-11.9-5.2-2.199-5.2 2.101-7.8 5-10.9 11.9-12.5 24.2-24.699 39.9-32.6 19.9-10.1 40.1-13.5 60.4-1 11.3 7 19 17.4 25.8 28.5 2.399 3.9 4.5 8.1 6.2 12.4 2 4.899.3 7.6-4.7 8.5-2.3.399-4.601.199-7 .199-18.601.101-37.3.101-55.9.101z"/></svg>