<svg xmlns="http://www.w3.org/2000/svg" id="body" viewBox="0 0 3000 3000"><path id="cl1" fill="#F5C0A6" d="M1644 1934.1c.5 0 .8 0 .8.1 8 12 17.301 202.7 21.301 265.3 7.302 43.304 25.603 70.304 26 72 8.302 14 20.899 91.104 24.699 129.304 2.7 40 13.2 188.696 8.2 202.696s-14 24-32 42-17.5 29-16 34 8 13.804 13 18.4c3.8 1.1 96.5-.1 99 0s16-8.9 9-29.4-13.5-57-13.5-62.5c-1.5-21 8.5-71 12-89s21.5-123 22.5-165.5c2-48.5-29.5-93.5-33.5-113.5s-4.5-38.5.5-64.5 43.5-254.696 22.5-327.5c-17-77.196-63.7-115.196-73.7-127.196m-56 122.696l12.7-224.3-1.125-150.075-7.375-10.875-4.301-8.446-29.6-21.4L1548 1419.2l-153 52.302s-8.601 64-1.5 68.602c26.5 30.398 56.601 84.5 56.601 84.5 17.302 30.398 31.199 62.5 28.302 83.898-7 52-23.5 48.5-38 93-8 17-46 87.5-20 226.5 11.5 66.998 20.198 112.998 15.6 136.498-5.6 42-32.6 51-61.6 94-23.5 27-31.5 156.5-34 163.5-1 27.5-9 90.5-11.5 97.5s-1 10-22 27.5-20 41-16 49.5 20.5 22 23 30c3.5 1 12.5 18.5 16 30.5s34.5 35.5 42 38.5 77 4.5 87-3.5 4.5-15.5-2-23-39-31-39-31-35.9-61.5-34.2-60.5S1403 2427 1443 2361c16-36 53-100.5 66-114s29-26.5 34.5-44 40-55.5 61-266c0 0-.101-3.3.3-3.3m-67.3-513.898s-4.101-9.2-9.7-10c-6.3-.303-18.3-1.303-20.3-4-2-2.7-37.9-13.7-37.9-13.7l-3.5-1.8m215.525 65.948l-17.125-36.35s-17.301-30.3-67.7-21.7c-8.3 7.3-23.3 9.7-25.3 9.7s-10.301 1-11 2.7c-.7 1.8-.7 1.6-4.301 8.7l125.426 36.95zM1594.4 1400l-6.603-.196s-19.301 3-25-13c-6.698-14.304-10.301-38.304-11-46-.698-7.7-37.698-49-83.698-26.304l-1.699 2s7 56 0 72c-5.2 4.2-65-12-94 6s-44 44-53 84-42 127-51 153-22 6-116 180c-12 19-56 58-99 81s-46 30-46 30 37-4 49-11l1 6s-42.801 36.5-48 49c-5.2 12.5 2.8 9.304 2.8 9.304s46.8-41.304 44.3-36.304-45.5 39.304-52.301 46.804c-.5 5.5 4.801 6.3 8 5.5 8.801-1 25.801-9.304 40.5-19.804s36.301-24 39.301-25 9-2.5 5.5 5-16.301 43.804-15.301 52.804c-1.801 12 6.5 9.8 12 3 5.5-6.804 16.301-34.304 24.301-41.304s25.3-31.3 31-31.5c5.699-.196 24.3 19.804 28.3 21.804s23.803 17 33.803 9.3c5.3-4.8-14.5-20.8-15.303-25.5-.8-4.7-8-11.8-7.5-22.8-2.5-26.304-12.5-38-10.3-46.804 7-23.5 26-42.5 64-83 39.5-36 71.5-72.5 87-92.5s29.5-57 34-69.5 25.5-72 28.5-81 11-40 23-45.5c7.5-4.5 12.8 1.5 12.8 1.5m148 410.5s8.103 12.104 23.7 19.304c20 9.396 50.399 11.8 72.699-19.304m-222-363.3s-1.301 84 81.301 83c77.3-6 79.699-66.3 79.699-75 .301-27.3-18.103-54.3-34.199-67.3m44.5 100.902s60.3 32 99.3-8.7c15.7-21.3 19.913-47.638 14.301-66.3-8.592-28.573-39.373-38.928-47.976-43.928-8.601-5-22.176-12.897-27.875-14.5-11.34-4.402-20.149-10.875-27.149-16.875M1644 1934l-18.7-233.5m112.5-147.698c2.301 10 51.7 76.697 57 80.697 5.301 4 28.301 21.699 36.7 35 5.3 5.303 50.699 83.699 66 110.303 15.3 26.697 31.699 45 47 54.3 5.3 4.7 39.3 18.7 69.3 25.7s19 9.697 19 9.697-43.199 1.399-39 3c53.7 31 45.301 35.699 45.301 35.699s-64.301-29-46-21.699c14.103 5.603 35.103 17.803 44 23.103 2.699 1.6 4.302 2.6 4.302 2.6s9.397 9.303 4.301 10.303c-19 2.301-68-18-68-18s-11.7-5-9.7 0 16.7 25.301 19.302 33.697c.698.7 1.5 21.803-3.302 15.7-10.3-20-58-53-58-53l-2.698-1.3s-1.699 1-2.302 2.3c-.698 1.3-9.698 24.7-26 30.7-22.601 5-17.698-5-17.698-5s12.698-14 12.698-19-1.698-25 0-28.7c1.7-3.7 7.302-18 4-26-3.3-8-62.397-70.5-64.698-74-16.699-18-66.699-73.3-78-104.9l-1.887-1.418L1689.5 1600l28.055-15.814 20.35-31.282m-50.706 107.596l-65.199 172-22.5 79 21.399 5h21.697l22.151-9.375 30.049-46.625 12.302-55.196 29.5-84.304-49.399-60.5z"/><path id="sd1" fill="#EC9674" d="M1445.166 1498.168c13.021 8.666 15.334 23.436 29.834 44.832 22 28 52 35 79.3 32 27.301-3 34.964-15.243 40-24.196 5.7-10.136 0-33.304 0-33.304l-17.836-25.961 2.059-1.287L1589 1494.5s52 44.5 72 45.604c20 1.1 37.332-5.934 44.5-14.104 7.978-9.09 12-20 11.5-26 4 0 14.316 11.666 16.591 35.434 3.534 36.941-41.387 65.801-41.387 65.801s6.962 7.184-4.704 16.069c-15.5 12.3-61 25.321-93.101 30.8-14.45 2.466-55.399 2.5-70.899 12.5-15 14-9.5 32 7.1 44 16.603 12 80.603 3 80.603 3-25.802 5.5-78.199 37.5-93.699 48.5s-23 33-25.7 40c-2.697 7-11.3 41.5 0 61.5 8.865 13.564 19.361 17.536 38.803 27 17.054 8.302 43.6 19 43.6 19l11.57 16.609 18.63 16.891-8.899 69.5-5.5 26.5-8.5 57.8-14 41.304-9.5 33-15 34.5-12.301 26.396-22.199 16.604s-30 46.5-28.5 41.5-3.5-17.5-8.5-22.5-11.399-7.302-30.7 0c-19.3 7.299-41.617 28.479-47.8 41-6.183 12.518-24.501 80.864-27 103-2.499 22.133-24.25 123.698-30.5 137-6.25 13.299-10 29.5-7 45s35 60 45 75 24.5 18 24.5 18 47.5 5.5 52-1.5-3.399-19.2-3.399-19.2 3.399 5.2 6.899 5.2 10 17.5 10 22-8 5.5-8 5.5l-46 4.5-41-3-15-9.5-14-13.5-11-15.5-6.2-17.104-14.8-19.396s-8.5-11.5-14-15.5-7.5-24.5-7.5-24.5l13.5-26 19.5-18.5 6-9 5.5-15 4.5-32 1.5-34.5s3.5-31 6-55.5 13-83.5 13.5-87 11-40.5 19.5-48.5 35-42.5 48-57.5 11-41 12.5-53-9.5-74-9.5-74l-11.5-70s-13.362-28.459-1-106.5c11.833-74.701 29.354-92.65 31-96.535 8.496-20.045 35-46.965 39-48.465s5.241-15.582 5.8-21c1-9.702.97-22.245-.3-37.5-1.667-20.035-9.59-36.647-14-45.5-2.821-5.661-10.667-17.701-18.667-27.201-3.571-4.24-27.667-38-34.667-48.5S1401 1550.6 1394.8 1536.1c-6.199-14.5 30.866-47.101 30.866-47.101s8.459 1.817 19.5 9.169zM1625.3 1737.7c-3.134.634-4.438 3.909-4.465 7.47-.025 3.562 1.064 8.03 2.364 10.53 1.301 2.5 3.897 5.033 8.101 4.5 4.201-.532 5.801-2.799 5.801-6.896 0-4.103-2.399-12.234-4.5-14.104-2.101-1.866-4.168-2.134-7.301-1.5zm5.029-301.065L1646.5 1449s33.5 20.5 14 1.5-30.171-13.865-30.171-13.865M1466.1 1340l1.9 48.4s7.5 11.3 48 18.6c8 1.804 17.5 7 17.5 7s3.399 5.604 1.8 2c-.699-1.6-4.8-11.896-10.5-19.396-9.397-7.9-14.199-15.9-14.199-15.9s18.49 8.952 25.199 9.7c8.366.935 10.603-.6 14.301 0 3.699.601-.934 16.431.316 23.681 1.024 5.949 4.089 7.59 4.089 7.59l3.595-7.87 1.199-4.304s8.801 0 9.801-.3 8-3 8-3l7.232-3.2-4.932-4.398s-8.484 1.482-14.302-7.302c-2.13-3.218-5.801-14.302-5.801-14.302l-3.301-12.198s-1.6-8.898-3.399-10.698c0 0-11-.802-17.3-2-6.301-1.2-65-12.802-68-12.302M1425.666 1489s-11.604-1.981-14.866-.196c-38.613 21.144-87.699 141.3-96.5 147.3-2.699 2.7-24.699-6.6-25.699-5l-2.601 4.4s4.8-.9 14.601 9.896c5.302 6.801 8.399 12.9 8.302 16.4-.103 3.5 1.897 9.5-5.802 23.6-15 36.301-68.301 92.301-86.301 111.301s-34 40.303-36.3 45c-2.301 4.699-6.95 10.302-5.25 30.302 1.8 6 12.25-23.125 12.25-23.125l13.601-14.478 7.302-10.3 17.698-16s58.102-60.601 62.5-65.8c4.399-5.2 55.5-65.5 60.602-81.802 5.199-16.398 38.801-102.398 40.699-109.698 1.801-7.302 14.198-33.302 15.801-36.302 1.601-3-.459-3.171.541-6.171s19.422-19.327 19.422-19.327zM1010.9 1923.2l7.397.104 22.399-6.304s16.476.024 20.55-2.875c1.168-.828 1.25-6.625 1.25-6.625s-1.5-1.396-4.398-2.1c-3.1-2.599-47.1 12.6-47.1 12.6-5.398 3.2-.098 5.2-.098 5.2zm47.5 9c-2.274-2.325-16.303 8.9-22.899 14.604-6.601 5.696-16.801 19.896-19.801 21.396s-4.399.604-4.399.604l-2.101 4.896s2.101 3.3 2.601 2.604c.5-.7 3.899-2.304 3.899-2.304l23.101-17.3 5.603-9 14.726-7.45c-.005 0 1.546-5.725-.73-8.05zm40.975 5.3c-7.726-.75-24.775 8.742-33.075 14.812s-27.101 19.892-35.101 26.892 1.801 4.5 1.801 4.5l8.101-5.1 37.802-23.6 22.476-6.002c-.004-.103 5.721-10.752-2.004-11.502zm-7.875 73.7l18.8-34.3 9.399-14.4 24.801-24.6 7.5-3.2 7.5 7.9 9.399 6.6 8.5 8.8 21.8 9.804s6.5-.604 5.301-1.304c-1.2-.696-6.25-7.049-18-16.896-11.75-9.851-23.924-33.45-31.897-34.4-7.977-.948-15.728 2.251-21.103 6.4-5.375 4.146-27.5 41.396-32 49.5-4.5 8.1-14.397 35.3-17 41.1l7-1.004zm625.1-437.8c-5.118 2.05-14.809 7.906-18.5 12-2.576 2.856-7 13.7-7 13.7l4.303 8.3 14.897 16.6 21.199 24.804 17.801 25.1 11.899 20 27 38.4 42.601 48.6 25.899 29 32.301 38.3 4.3 6.804 1 9.1s-3 9.5-3.601 10.6c-.6 1.104-1.5 10.604-1.5 10.604l-.3 9s0 10.5-.399 10.896c-.399.4-1.399 10.4-1.399 10.4l-9 9.6.5 5.4 10.899 1.1s19.5-11.396 19.8-12c.303-.6 11.803-18.8 11.803-18.8l5.1-.7 9.101 6.5 18.803 14.604 24.8 27.1 7 2v-10.8s-11.399-16.5-13-18.8c-1.602-2.304-17.106-21.038-24.8-25.5-6.429-3.729-18-4.9-27.803-10.5-9.801-5.604-8.652-9.578-9.5-15.604-.35-2.476-7.454-19.239-11.135-24.871-4.383-6.707-26.166-33.629-29.166-37.429s-21.118-28.196-27.498-36.898c-1.438-1.965-18.002-23.802-19.502-26.102s-15.998-14.232-23.199-22.8c-3.188-3.795-19.697-30.104-21.397-34.104s-4.8-9.196-5.5-17.8c-.7-8.7 1.7-12.2 1.7-13.3 0 0-.2-1.801-13.303 0-8-1-13-9-15.301-13-2.3-4-17.699-24.7-22-30.301-4.3-5.603-3.3-14-2.3-17.303 1-3.3 8.568-10.647 8.568-10.647-2-2-6.27-13.451-6.27-13.451s-5.998 1.435-7.901 2.198zm282.8 338.6l30.8 8s14.101.104 8.801-.6c-5.301-.703-55.229-27.137-66.166-24.566-3.832.9-7.5 5.303-7.5 6 0 .7 6.466-.634 6.466-.23L1999.4 1912zm5.9-20.3l12.899 7.104 19.5 9.3 1.101-3.3s-16.397-13.4-16.8-13.804c-.4-.396-23.675-9.676-30.175-11.476s-4.991 5.645-4.991 5.645l18.466 6.531m-416.8 32.602c1.8 2.8 18.199 9.697 27 11.197 8.8 1.5 29-.101 29.1-.101.103 0 10.4 85.601 10.4 85.601l6.699 103.603s6.801 86.397 6.301 90.897 22.5 53.5 27.5 65.5 14 51 23 169c3 8.5 6.6 149.5 6.6 149.5l-2.3 9-4.5 9-12 14-11.4 14.303-10.3 14-6 9.8-1 15 10 10.8 19.3 2.803 37.803.397s28.3-2.897 29-3.897c.697-1 7-12 10.3-14.5 3.301-2.5 0-4.803 0-4.803s-41.3 1.604-50 0c-8.5-4.3-8.433-11.433-4.3-17.5 4.134-6.064 9.697-4.896 26.3-18.5 25.5-22.3 24-39.5 24.5-43s-2.3-78.3-2.8-90.3-6.969-94.466-9.2-118.603c-2.231-24.136-.8-111.5-.8-111.5s-.303-14.5-10.803-17.5c-21.5-7-27.332-23.332-31.697-33.5-4.366-10.166-15.603-51.801-17.303-82.5 0-3.301-4.8-37.301-6.5-60-1.697-22.697 1-72.801 1.303-77.801.8-15.3 5.5-38.3 7-45.8 8.5-25.3 16-36.5 18.3-40 2.301-3.5 11-16.8 17.5-26.5s18-22.5 18-22.5 18.301-29.8-9.3-4.8c-27.603 25-79.5 40-79.5 40-43.5 23.3-100.5-1.5-100.5-1.5s12.597 17.902 14.297 20.704zm-111.801-40.5c-7.034 1.365-18 4.5-24.5 26s0 72 0 72 16.5 105.5 20 113 5.5 45 7 54 1.333 34.865 12.633 49.365c11.2 14.5 23.067 26.436 35.367 7.135 12.301-19.303 21.699-46.865 25.5-67 3.801-20.137 5.801-61.5 5.301-75.5 0 0 3.5-71.303 3.5-73.803s4-29-17.801-64.5c-21.799-35.399-59.965-42.065-67-40.697z"/><path id="hl1" fill="#FBE4D6" d="M1536.733 1422.197s-11.434-9.097-31.533-9.997c-26.801-1.3-68.301-5-75.301-3.5s-53.398 12.466-70.302 36.801c-12.724 18.315-10.5 27.803-16.3 37.803-25 52-48.051 140.647-54.801 153.3s-18.75 24.774-28.5 37.149-80.5 117.647-88.199 128.147c-7.7 10.5-24.176 20.228-24.176 20.228s47.573-84.524 75.875-127.228c30.601-46.1 43.301-52.699 44.301-54.1.899-1.3 25.899-74.9 28.1-83.8 2.2-8.9 26.5-95.7 34.5-114.104 15.9-36.5 29.4-41.896 45.9-52.3 58-11.9 102.5 4.7 102.5 4.7l28.5 10.696 13 3.4 7.399.6 13.522 10.413-4.485 1.792zm30.067 88.003c34.5 18.2 40.103 36.2 40.7 38.7-4.168-55.233-58-77.3-58-77.3s3 2.7 0 9-7.364 9.751-11.101 10.7c-3.854.979-15.899 0-15.899 0l-21.301 12c6.301-2.1 41.301 3.2 65.601 6.9zm64-70.7s-1.699-1.901-2.102-.202c-.301 1.698 2.451 14.71 4.151 17.71 1.699 3 8.052 7.896 11.052 9.492 0 0-5.857 3.388-7.399 5-3.112 3.263-4.7 7.7 15 10 19.699 2.304 29.15 2.474 30.699 2.7 8.801 1.3 20.313 6.21 24.134 8.634 8.667 5.5 9.866 8.332 13.167 13.332s12.843 15.994 13.356 30.797c-2 14.3 8.091-13.766-4.608-33.463-12.7-19.7-42.117-34.5-45.417-34.5-3.301 0-26.667-12.083-26.667-12.083L1630.8 1439.5zm-71.601-24.698l-1.34 6.835s5.34-6.438 17.641-9.835c12.3-3.4 58 .1 73.699 14.6 5.301 1.8 15 10.4 19 15.8 4 5.304 10.601 5.7 10.601 5.7l-18.601-33.397-23.5-14.5-33.5-2.699s-13.801 5.8-16.801 6.896c-2.899 1.104-13.899 3.7-13.899 3.7l-9.899 1.4-3.5 3.896.099 1.604M1691.5 1617.2l-3.5 1.3s-3.523 10.809-9.301 21c-5.949 10.5-8.074 15.25-12.301 21-3.02 4.108-29.802 37.5-35.302 39.7 9.802 4.3 23.5 10.8 28 16.5 6.302 5.5 32.5 48.3 35.802 56.5 5.301 9.3 21 57.8 23.5 71.3 10.5.5 36 19.804 40.301 24.804s10.199 12 18 33.6c7.801 21.603 4.801 103.002 1.801 141.301-3 38.302-8.668 69.304-9 85.302-.334 16-11.5 72.801 15.899 111.801 5.601 19.5 23.101 122 16.101 182-2.9 81.6-8.601 85-8.5 98 .1 13-7.5 61.6-7.5 61.6l-.301 30.801s-5.699 6.199-6.199 12.699 5 51 5 51-9.5 20.301-12.5 20.9c-3 .599 20.5-1.4 20.5-1.4l7.5-10-1.601-18-8.399-36-5-34.5 3.5-34 22-121.5 8.899-99-5.399-37-12.9-31.3-12.5-28.3-5.1-23.5 1.3-41.603 16.801-108.198 13.199-149.302s-4.897-74.301-6.397-80.801-20.802-56.8-25.399-64.5c-4.601-7.699-24.601-38.5-50.101-63.5s-39.603-49.3-39.603-49.3l-1.3-49.404zm33.6-42.7c2.4 11 36.4 44 42.4 53.5s20 28.604 23 32.5c3 3.9 5.5 7 7.5 12.5s11.8 19.5 20.899 32c9.101 12.5 58.101 67 60.601 69.5s32 40.5 33.5 44.5 15 14 25 13.5l-21.5-26.5-21.101-30.696-21.399-36.9-26-45.397-24.801-34.699L1805 1640.5l-13.5-10.396-18.4-22.7-27.6-37.1-9.4-19.5-3.897 7-7.103 16.696m-284.6 785.75s-47.75 88.5-59 119.95c-6.7 17.3-15.571 55.644-18.7 72-1.049 5.482-2.699 18 4 34 6.7 16 14.15 36.354 19.301 42.7 5.15 6.35 18.103 11.7 31.699 9.2l-34.199-60.5 10.302-57.9 14.698-67.1 36.453-96.345-2.296-.03-2.258 4.025z"/><path fill="none" stroke="#000" stroke-miterlimit="10" stroke-width="6" d="M1733.699 1550.802c2.301 10 55.699 78.697 61 82.697s28.301 21.699 36.699 35c5.301 5.303 50.698 83.699 66 110.303 15.301 26.697 31.698 45 47 54.3 5.301 4.7 39.301 18.7 69.301 25.7s19 9.697 19 9.697-43.199 1.399-39 3c53.699 31 45.301 35.699 45.301 35.699s-64.301-29-46-21.699c14.1 5.603 35.1 17.803 44 23.103 2.699 1.6 4.3 2.6 4.3 2.6s9.399 9.303 4.301 10.303c-19 2.301-68-18-68-18s-11.698-5-9.698 0 19.984 26.271 22.586 34.672c.7.698 1.264 25.201-6.586 14.728-10.302-20-58-53-58-53l-2.699-1.3s-1.7 1-2.301 2.3c-.699 1.301-9.699 24.7-26 30.7-22.603 5-17.699-5-17.699-5s12.699-14 12.699-19-1.699-25 0-28.7c1.698-3.699 7.301-18 4-26-3.302-8-62.399-70.5-64.699-74-16.7-18-66.7-73.3-78-104.898-8.7-18.602-56.7-67.102-56.7-67.102s-3.897 53.4-2.698 58.102c4.698 8.102 32.698 41.898 42.698 53.898s56.7 50 73.7 127.2c21 72.8-17.5 301.5-22.5 327.5s-4.5 44.5-.5 64.5 35.5 65 33.5 113.5c-1 42.5-19 147.5-22.5 165.5s-13.5 68-12 89c0 5.5 6.5 42 13.5 62.5s-6.5 29.5-9 29.397c-2.5-.101-95.2 1.103-99 0-5-4.601-11.5-13.397-13-18.397s-2-16 16-34 27-28 32-42-5.5-162.7-8.2-202.7c-3.8-38.3-16.3-115.3-24.698-129.3-.399-1.7-18.699-28.7-26-72-4-62.7-13.302-253.301-21.302-265.301 0-.103-.3-.103-.8-.103m-250.505-393.399s92.199 115.697 85.199 167.697-21.566 48.668-38 93c-8 17-46 87.5-20 226.5 11.5 67 20.198 113 15.601 136.5-5.601 42-32.601 51-61.601 94-23.5 27-31.5 156.5-34 163.5-1 27.5-9 90.5-11.5 97.5s-1 10-22 27.5-20 41-16 49.5 20.5 22 23 30c3.5 1 12.5 18.5 16 30.5s34.5 35.5 42 38.5 77 4.5 87-3.5 4.5-15.5-2-23-39-31-39-31-35.899-61.5-34.199-60.5 19.199-150.5 59.199-216.5c16-36 53-100.5 66-114s29-26.5 34.5-44 40-55.5 61-266c0 0-.102-3.301.301-3.301m-66.299-513.896s-4.303-9.7-10.7-10c-6.3-.303-14.261-2.195-20.3-4-3.222-.962-28.833-9.312-37.899-13.7-1.505-.729-5.5-3.8-5.5-3.8m228.376 84.822l-27.979-53.224s-17.302-30.3-67.699-21.7c-8.301 7.3-23.301 9.7-25.301 9.7s-10.302 1-11 2.7c-.699 1.7-4.302 8.7-4.302 8.7m38.204-19.3s-4.952-.301-6.601-.196c-7.03.437-19.3 3-25-13-6.699-14.304-10.3-38.304-11-46-.699-7.7-37.699-49-83.699-26.304l-1.7 2s7 56 0 72c-5.197 4.2-65-12-94 6s-44 44-53 84-42 127-51 153-22 6-116 180c-12 19-56 58-99 81s-47.601 26-46 30c1.603 4 46.399-10 49-11 2.603-1 4.103 5.304 1 6-3.101.7-42.8 36.5-48 49-5.197 12.5 2.803 9.304 2.803 9.304s46.8-41.304 44.3-36.304-45.5 39.304-52.3 46.804c-.5 5.5 4.8 6.3 8 5.5 8.8-1 25.8-9.304 40.5-19.804 14.697-10.5 36.3-24 39.3-25s9-2.5 5.5 5-16.3 43.804-15.3 52.804c-1.803 12 6.5 9.8 12 3 5.5-6.804 16.3-34.304 24.3-41.304s25.301-31.3 31-31.5c5.7-.196 24.301 19.804 28.301 21.804s23.801 17 33.801 9.3c5.301-4.8-14.5-20.8-15.301-25.5s-8-11.8-7.5-22.8c-2.5-26.304-12.5-38-10.301-46.804 7-23.5 26-42.5 64-83 39.5-36 71.5-72.5 87-92.5s29.5-57 34-69.5 25.5-72 28.5-81 11-40 23-45.5c7.5-4.5 12.801 1.5 12.801 1.5m22.396 47.2s-1.3 84 81.303 83c77.3-6 79.697-66.3 79.697-75 .303-27.3-18.1-54.3-34.197-67.3m44.497 100.902s60.563 31.844 98.756-9.614c12.301-13.353 18.233-35.889 15.534-55.188-6.75-31.13-27.551-45.327-42.022-51.333-9.19-3.814-23.624-10.776-33.417-14.917-8.982-3.797-21.25-13.25-28.25-19.25"/><path d="M1541.313 1419.682a2.984 2.984 0 1 1-2.984-2.984c1.648 0 2.984 1.161 2.984 2.984zm17.8-.401c0 1.648-1.333 2.875-2.98 2.875a2.983 2.983 0 0 1 0-5.966c1.647-.002 2.98 1.445 2.98 3.091zm-128.542 81.668c0 1.672-1.328 2.915-2.971 2.915s-2.974-1.354-2.974-3.024c0-1.672 1.331-3.026 2.974-3.026s2.971 1.464 2.971 3.135zm22.521 47.191c0 1.729-1.348 3.016-3.012 3.016-1.665 0-3.016-1.399-3.016-3.131 0-1.728 1.35-3.129 3.016-3.129 1.664 0 3.012 1.517 3.012 3.244zm126.82-59.202c0 1.666-1.366 2.905-3.059 2.905-1.689 0-3.063-1.352-3.063-3.018 0-1.665 1.37-3.015 3.063-3.015 1.693.003 3.059 1.464 3.059 3.128zm54.907-49.531c0 1.666-1.367 2.905-3.059 2.905-1.69 0-3.063-1.35-3.063-3.016 0-1.665 1.37-3.017 3.063-3.017 1.691.003 3.059 1.464 3.059 3.128zm-59.12 472.093a73.744 73.744 0 0 0 10.612 9.187c3.766 2.693 7.729 5.031 11.865 6.904 8.312 3.761 17.22 6.086 26.164 6.41 8.937.341 17.875-1.475 25.967-5.503 8.134-3.983 15.291-10.062 21.789-16.997-4.464 8.389-11.069 15.917-19.496 21.12a49.317 49.317 0 0 1-13.66 5.811c-4.832 1.245-9.849 1.736-14.815 1.563-9.951-.365-19.625-3.387-28.103-8.226a56.725 56.725 0 0 1-11.604-8.847c-3.397-3.438-6.497-7.183-8.719-11.422z"/></svg>