<svg xmlns="http://www.w3.org/2000/svg" id="ears" viewBox="0 0 3000 3000"><path id="cl1" fill="#E8A66B" d="M1179.033 1003.152c-3.3-16.4-5.699-30-7.199-40.601-13.9-8.399-27.7-14-41.301-16.699-13.101-2.601-24.399-1.301-34 3.8-9.601 5.2-16.899 14-21.8 26.399-7.7 19.399-7 40.399 1.8 63.101 5.399 13.7 13.301 27 23.801 39.7 8.5 10.3 19.399 21.199 32.8 32.699 7.601 6.5 14 11.5 19.3 14.801 7.5 4.8 14.9 8.199 22.2 10.199 12.3 3.301 22.399.899 30.2-7.199-1-1.7-1.801-3.9-2.301-6.5-7.101-35.101-12.3-61.5-15.5-79.101-.699-3.699-3.298-17.199-8-40.599z"/><path id="sd1" fill="#A0734A" d="M1138.934 1034.252c-3.699-.699-6.899-.6-9.699.301-2.7.801-5.2 2.399-7.5 4.801-2.2 2.399-1.601 6.1 1.899 11.199 3.5 5.101 6.2 9 8.101 11.899 2.6 3.801 5.399 7.101 8.399 9.801 2.2 2 4.101 3.101 5.8 3.5 2.101.399 4-.101 5.5-1.601 1.601-1.5 3.601-1.1 6 1 .9-3.5-.199-5.6-3.3-6.3s-5.899-2.5-8.601-5.4c-2.199-2.5-4.101-5.899-5.601-10.3-.8-2.2-1.199-4.8-1.3-7.8.103-3.5.202-7.2.302-11.1m8.4-37.6c-9.7-2.601-17.2-2.601-22.4.1-5.199 2.602-8.6 7.9-10.3 15.801-1.601 8-.2 16.699 4.199 26.301 5.101-4.5 9.699-7.4 13.899-8.801 4.4-1.399 10.301-.301 17.5 3.199-4-5-7.399-8-10.199-9-2.101-.699-4.801-1-8.199-.898-1.801.1-3.101-.301-4-1.2-.801-.8-1.301-2.101-1.5-4-.5-5.8.5-10.5 3-14.101 3-4.101 8.901-6.601 18-7.401z"/><path fill="none" stroke="#000" stroke-linecap="round" stroke-linejoin="round" stroke-width="6" d="M1169.834 959.852c-23.301-13.5-44-18.801-62.101-16-5.899.899-10.899 3.1-15 6.399-14.5 11.8-22.801 28.601-24.801 50.399 0 30.101 13.5 59.5 40.5 88.3 31.2 33.601 57.2 50.5 78.2 50.7 6.899-.3 12.6-2.8 17.1-7.3m-56.199-138.398c-22.101-4.8-33.8 2.801-35.199 22.801 0 8.199 1.899 16.699 5.699 25.8 15.601-14.199 28.399-13.699 38.5 1.601m-38.5-1.602c4.2 9.899 10.601 20.301 19.399 31.301 5.5 5 11.2 5.5 17 1.5"/></svg>