<svg xmlns="http://www.w3.org/2000/svg" id="ears" viewBox="0 0 3000 3000"><path id="cl1" fill="#E8A66B" d="M1050.617 966.819c-5.7 12.601-8.5 25.601-8.5 39 0 13.4 2.3 27.2 6.8 41.3 4.5 14.101 12.8 27.9 25.1 41.2 12.2 13.3 26 26.3 41.2 38.9 1.9 1.5 4.5 3.8 8 6.899 3 2.4 5.6 4.101 7.8 5 .801.301 1.5.5 2.301.7 7.699 4.9 12.8 7.7 15.199 8.3 2.4.7 6.301 2.301 11.5 4.7 5.301 2.4 10.2 3.9 14.9 4.5 4.6.601 9.4.5 14.2-.3 11.5-1.8 19.3-5.9 23.6-12l-22.4-86.1c-3.1-12.101-8.3-30.801-15.399-55.801-7.2-25.6-12.4-44.3-15.4-55.8-7.9-5-15.8-8.8-23.8-11.399-7.7-2.5-16.3-4.2-25.9-5-14.1-1.2-26.1 1.3-35.899 7.6-9.902 6.201-17.601 15.701-23.302 28.301z"/><path id="sd1" fill="#9F7249" d="M1115.818 990.019c-7.301 3.2-11.7 8.1-13.301 14.8-1.5 6.7-1.699 13.2-.5 19.5.801 4.4 2.801 10.3 5.801 17.5 4.699-4.2 9.3-7.3 13.899-9.1 4.9-2 10.3-2.6 16-1.7-2.399-3-5.2-4.9-8.2-5.8-2.6-.7-5.6-.9-9.199-.5-2.4.3-4.2-.1-5.301-1.1-1.1-1-1.8-2.801-2-5.301-.6-6.5 1.4-12.3 6.101-17.6 4.6-5.2 10.7-8.4 18.399-9.6-7.199-3.899-14.5-4.198-21.699-1.099zm36 88.901c-4-1-7.601-3.101-10.801-6.301-3.199-3.199-6-7.399-8.6-12.6-1.5-3.1-3-7.6-4.5-13.6-1.6-6.2-2.3-10.9-2.3-14.101-4.5.301-9.801 3.5-16 9.801-.801.8-.801 3.1 0 6.8.699 3.3 1.5 5.7 2.399 7.3 1.801 3.3 4.601 8.3 8.301 14.899 3.399 5.5 7.1 9.7 11.1 12.7 2.6 1.9 5.2 2.9 7.8 3.101 2.7.199 4.9 0 6.601-.7 1.699-.7 4.1-1.8 7.3-3.4 3.099-1.6 2.7-2.8-1.3-3.899z"/><path id="cl2" fill="#FAE979" d="M1175.517 1114.92c-3.8-.801-8.1-.5-13.1 1-4.5 1.3-7.8 2.899-9.9 4.899-7.8 7.4-14 15.9-18.5 25.4-4.699 10-7.1 20.1-7.199 30.3 0 6.801 3.3 12.2 9.899 16.2 6.5 3.9 13.101 4.8 19.9 2.7 6.7-2.101 13.2-7.9 19.399-17.5 6.2-9.601 8.7-17.801 7.601-24.7-.7-4.1-1.9-6.3-3.4-6.3-1.5-.2-2.8-.301-3.8-.301-1.9 0-3.4.5-4.3 1.4-.801 4.3-2.301 8.8-4.601 13.5-1.3 2.7-3.5 6.9-6.6 12.5-1.3 2.5-2.8 4.2-4.6 5-2.4.8-4.5 1.5-6.2 2.1-3.3-.8-5.3-1.8-6-2.899-.4-.7-.7-3-1-7-.2-3.5.2-7.3 1.2-11.3.699-2.9 2-6.5 3.8-10.801 4.301-10.299 13.501-21.698 27.401-34.198z"/><path fill="none" stroke="#000" stroke-linecap="round" stroke-linejoin="round" stroke-width="5" d="M1160.117 944.92c-19.5-10.301-38.8-15.7-58-16.2-17.9 1-32 8-42.2 21-9.2 12.7-15.1 27.6-17.6 45-1.801 17 .399 34.8 6.6 53.5 4.9 13.399 13.8 27.2 26.8 41.399 9.601 10.9 20.4 21.4 32.5 31.601m45.8-38.8c-9.899 6.1-18.399 6.399-25.6.8-8.6-7-15.9-19.5-21.9-37.2-.899-2.6-1.699-5.3-2.5-8.1-6.5-23.7-4.8-38.8 5.301-45.4 7.6-4.6 17.199-5.8 29-3.5m-31.801 56.9c4.601-8.4 10.301-13.301 17.2-14.801 7.9-1.899 16.9 2.7 27 13.801m-41.7 77c7.301 6.399 16 12.8 26.101 19.3 6.899-13.4 16-22.9 27.3-28.5 3-1.6 8.9-1 17.4 1.9-10 5-17.2 11.1-21.801 18.3-3.6 5.6-6.399 11-8.6 16.2 5.1 2.8 10.8 5.199 17.1 7.199m-17-7.2c-3.8 9-5.6 17.2-5.399 24.9 1 6 5.199 6.6 12.699 1.9m.7-.7c5-8 9.5-17 13.301-26.9 2.699-7.1 7.399-7.1 14.3 0 1.899 5.9-.101 15.4-6 28.601m-.601 1c-5.5 10.699-14 17.1-25.6 19.3h-.8c-16.301.7-25-5.7-26-19.5 0-9.8 1.5-18.6 4.6-26.4 1.4-3.6 2.8-6.899 4.5-10m51 17.799c10.2-.199 19.4-4.3 27.4-12.1"/></svg>