<svg xmlns="http://www.w3.org/2000/svg" id="ears" viewBox="0 0 3000 3000"><path id="cl1" fill="#E8A66B" d="M1188.337 1008.561c-6.101-21.699-11.5-39.3-16.2-52.699-1.5-4.5-2.6-7.4-3.3-8.801-1.5-3-3.4-5.399-5.8-7.1-11.2-4.3-21.7-7.6-31.601-10-11.2-2.8-22.2-4.5-33-5.3-14.7-1-28 3.9-39.899 14.8-11.4 10.4-18 22.7-20 37-3.2 22.3-.801 42.5 7.3 60.6 16 36.101 39.8 64.101 71.399 84 23.301 14.7 48.601 21.2 76.101 19.5 2.1-.1 5.3-.399 9.5-.899 3.699-.3 6.8-.101 9.5.5 2.5-1.2 4.8-3.2 7-5.8 2.199-2.601 2.899-5.7 2.1-9.301-.7-3.5-1.2-5.6-1.3-6.3-.2-.6-.5-1.8-1-3.7-3.4-11.899-5.9-20.8-7.5-26.8-3-10.6-5.601-19.5-7.9-26.7-2.2-6.6-7.2-24.199-15.4-53z"/><path id="sd1" fill="#A0734A" d="M1119.136 978.061c-5.9 1-10.8 2.601-14.9 4.5-4 2-7.199 5.801-9.399 11.4s-2.9 10.7-2 15.1c.8 4.5 2.399 9.9 4.5 16.2 2.199 6.3 3.699 10 4.6 11s4.8-.6 11.9-4.8c7.1-4.2 16.399-5.3 27.899-3.3-6.5-7.6-12.1-11.9-16.8-13-3.6-.9-8.3-1.2-14-.9-.4-5.899-.4-10.2-.1-13 .6-4.6 2.699-8.3 6.399-11 4.5-3.3 11.301-5 20.301-5.1-6.3-5.7-12.499-8.1-18.4-7.1zm31.5 92.7c-.2-2.1-.4-3.3-.5-3.5-.2-.399-.4-.6-.6-.6-6.2-.8-11.301-3.5-15.301-7.9-3.1-3.399-5.8-8.399-8.199-15-1.601-4.399-1.801-7.5-.5-9.2 1.199-1.6 6.5-2.399 15.8-2.199-8.7-5.7-16.7-7.101-23.9-4.301-7.2 2.801-12.1 5.5-14.6 8s-1.2 6.801 3.8 12.9 9.1 10.9 12.4 14.5c3.3 3.6 6.8 6.8 10.3 9.5s6.6 4.1 9.2 4.3c2.6.2 4.6-.6 6-2.3 1.399-1.7 2.3-2.7 2.899-3.2.501-.3 1.602-.7 3.201-1z"/><path id="hl1" fill="#BED1EA" d="M1181.037 1107.261c.1 0 1.5 1.7 4.3 4.9 1.7 1.899 4 2.899 6.899 3.1l-1.199-11.899c-2.601-1.301-4.7-1.301-6.2-.101-1.601 1.8-2.8 3.101-3.8 4z"/><path id="cl2" fill="#3178DD" d="M1167.636 1111.561c.9 3.601 1.6 6.601 2 9.2 11.1-1.6 17.8-2.3 20.2-2 2.399.4 3.399.101 3.3-1-.2-1-.6-1.899-1.2-2.6-3.1-1.5-5.2-3.4-6.3-5.8-1.1-2.301.7-4.601 5.3-6.9.101-1.7.2-3.5.3-5.5.101-1.9-1.1-2.5-3.6-1.7-2.4.8-6.3 1.601-11.6 2.4-5.301.8-8.2 1.5-8.801 2.3-.5.7-.8 2-.899 3.6.001 1.801.4 4.4 1.3 8z"/><path fill="none" stroke="#000" stroke-linecap="round" stroke-linejoin="round" stroke-width="5" d="M1210.136 1139.661c-32.4 5.3-62.2.3-89.2-15-27.6-17.7-50.3-41.3-68.1-71-14.4-27.2-19.101-53.7-14-79.4 5.7-25.5 19.7-41.399 42-47.7 17.7-5.1 44.5-.8 80.3 12.801m-23.4 43.599c-22.3-9.4-37.1-3.6-44.399 17.3-2.601 9.4-.101 22.2 7.5 38.4 8-7.9 17-11.9 27.199-12 10.2-.1 17.301 4.3 21.5 13.1m-48.699-1c1.6 3.4 3.399 6.9 5.5 10.5 13.5 19.3 24.1 28.9 31.7 28.8 5.199-.1 8.6-2.6 10.199-7.399m18 27.299l2.5 24.6 26-2.3-3-24.6-25.5 2.3z"/></svg>