<svg xmlns="http://www.w3.org/2000/svg" id="ears" viewBox="0 0 3000 3000"><path id="cl1" fill="#E8A66B" d="M1193.167 1029.76c-4.5-17.601-8.801-32.601-12.9-44.8-2.4-5-6-9.601-10.7-13.801-3.399-3-8.1-6.3-14.2-10-7.1-4.3-15.699-9-25.8-14-11.7-5.8-20.5-10.199-26.3-13-21.7-10.8-37.8-20.699-48.4-29.699-10.6-9-16.2-12.5-16.7-10.5s.4 6.899 2.801 14.899c2.399 8 4.6 17.7 6.5 29.3 2.8 17.301 4.399 26.801 4.6 28.5 3.2 22.9 8.5 43.801 15.9 62.801 8 20.699 18.699 39.399 32 56.199 10.8 13.5 22.3 24.4 34.6 32.9 13.5 9.3 28 15.6 43.7 19.1 8.199 1.801 15.399 2.4 21.6 1.601 7.6-.9 14.3-3.8 20-8.7-1.5-3-2.8-6.7-3.9-11.2-1.1-5.1-2-9-2.699-11.6-2.2-8.9-5.601-21.9-10.101-39-4.402-17.5-7.802-30.5-10.001-39z"/><path id="sd1" fill="#AF7D51" d="M1077.667 956.26c2.1 2.5 5.399 6.399 10.1 11.899 4.7 5.4 9.6 11.101 14.6 17 5.101 6 8.801 10 11 12.2 2.301 2.2 5.9 5.2 10.801 9 5.399 4.2 11.5 7.3 18 9.2 2.699.8 4.8 2.1 6.199 3.8 1.601 1.9 2 5.601 1.2 11.2.8 3.6.9 6.8.5 9.5-1.2 8 1.4 13.9 7.8 17.8 6.4 3.8 12.7 7.601 18.7 11.4 6.1 3.8 10.8 7 14.4 9.5 1.199-3.101 1.899-7.3 2.1-12.5.2-5.101-1.5-12.5-5-22.101-3.5-9.6-7.6-17.3-12.4-23-2.699-3.3-7.199-7-13.5-11.199l.301.5c-6.101-7.4-14.301-14.2-24.5-20.601-13-8.1-25-15.8-35.9-23.3-10.9-7.4-25.1-19.4-42.6-36 10.098 14.702 16.098 23.202 18.199 25.702m20.8 53.9c-.3 5-.2 10.4.5 16.301.399 3.8 1.5 10.3 3.3 19.5 1.9 10.1 7.3 19 16.2 26.699 14.7 12.801 34.8 20.601 60.399 23.301-13.1-6.5-22.3-11.601-27.5-15.2-5.199-3.6-10.899-7.1-17-10.3-6.199-3.2-12.5-9.3-18.899-18.4-6.4-9-10.5-17.4-12.2-25.2-1.201-4.501-2.8-10.101-4.8-16.701z"/><path fill="none" stroke="#000" stroke-linecap="round" stroke-linejoin="round" stroke-width="6" d="M1059.967 926.961c17.899 20.1 42.8 39.8 74.8 59.1 27.7 17.7 45.8 38.1 54.4 61.1 6.6 17.9 7.399 29 2.3 33.301-7.2-5.2-16.601-11.2-28.4-18-13.399-6.5-17.2-17-11.5-31.601 5-8.3 10.601-13 16.7-14.2m12.099-36.101c-7.3-11.2-26.899-24.2-59-39.2-32-15-60.3-31.899-84.899-51 3.899 16.7 9.1 44.8 15.699 84.3 6.601 39.5 19.2 73.101 38.001 100.9 22.899 32.7 50.899 53.8 83.8 63.2 15.7 4.6 30.399 2.8 44.2-5.2m-117.301-121.9c4 24.5 12.301 41.601 25.101 51.301 12.199 8.8 29.699 18.8 52.5 30"/></svg>