<svg xmlns="http://www.w3.org/2000/svg" id="ears" viewBox="0 0 3000 3000"><path id="cl1" fill="#E8A66B" d="M1070.004 957.014c-12.8 19.101-17.3 39.3-13.5 60.8 2.399 13.301 6.8 26.301 13.399 39 5.801 11.301 13.5 22.7 23.101 34.301 1.1 1.399 7.2 7.8 18.2 19.3 7.399 7.7 12.8 14.7 16.1 20.9 2.7 5.1 6.9 9.399 12.4 12.899 5.199 3.2 11 5.4 17.6 6.5 6.4 1.101 12.6 1 18.5-.1 6.2-1.3 11.4-3.6 15.5-7.1a51.85 51.85 0 0 1 6.1-4.301c1.4-.899 3.5-2.199 6.4-4 3.2-4.899 3.9-10.1 2-15.8-.3-.9-.9-3.5-1.8-7.7l-30.301-155.7c-6.5-2.5-15-6.3-25.5-11.3a85.193 85.193 0 0 0-22.8-7.1c-12.2-2-22.5-1.7-31 .8-9.899 2.802-18.099 9.002-24.399 18.601z"/><path id="sd1" fill="#A0744A" d="M1158.004 1053.915c-3.2.399-4.5-.8-4.101-3.4.5-3-2.1-6.399-7.699-10.1-5.5-3.7-11-4.101-16.4-1.4s-10 5.4-14 8c-4 2.7-4.6 6.101-2 10.3 2.7 4.2 5.7 9.101 9 14.801 3.3 5.699 6.8 10.199 10.4 13.5 3.699 3.399 6.6 5.1 8.899 5.199 2.3.101 4.3-1 6.3-3.199 1.9-2.101 3.4-3.601 4.301-4.301 1-.8 2.3-.399 4.1 1.2 0-3.1-.6-4.8-1.7-5.2-.8-.199-1.899-.3-3.3 0-2.8.5-5.4 0-7.7-1.3-1.899-1.1-3.8-2.899-5.5-5.399-1.199-1.601-2.8-4.4-5-8.5-1-1.801-1.5-3.2-1.699-4.101-.301-1.6.1-2.899 1.3-4 1.2-1.2 2.6-2 4.2-2.5 1.6-.399 3.3-.399 5 .101 1.899.5 4.699 1.5 8.3 2.899 2.399.799 4.799-.1 7.299-2.6m-40.3-61.2c-5 2.7-8.7 7.4-11 14-2.2 6.6-3 11.6-2.301 15.1.7 3.5 3.4 12.601 8 27.301l16.4-12.101-3.6-5.6c-4-8.1-4.801-14.7-2.2-20 2.6-5.3 8.3-8.7 17-10.2 1.6-.3 2.8-.7 3.7-1.3 1-.7 2.399-2.7 4.199-5.8-3-1.101-5-1.9-6-2.3-1-.5-4-1.101-9.1-1.9-4.998-.901-9.998.099-15.098 2.8z"/><path fill="none" stroke="#000" stroke-linecap="round" stroke-linejoin="round" stroke-width="6" d="M1145.004 992.915c-17.601-7.3-29.9-4.3-36.8 9.1-3.301 7.3-4.5 14.101-3.601 20.4 1.101 9.6 3.5 19.399 7.3 29.5 4.9-7.5 11.2-12.101 18.801-13.8 9.6-2.301 18 2.3 25.199 13.8m-43.899 0c4.3 11.3 11.3 22.2 21 32.6 7.6 7.601 14.5 7.601 20.8 0m20.1-128.6c-43.5-25.7-76.3-28.7-98.6-9-20.8 21.899-26.8 50-18.3 84.5 7.6 24.899 21.1 47.6 40.6 68.2 13.5 12.3 22.8 23.3 28 32.8 9 14.899 23.5 21.8 43.601 20.7 14.699-.7 25.5-6.101 32.199-16.4"/></svg>