<svg xmlns="http://www.w3.org/2000/svg" id="ears" viewBox="0 0 3000 3000"><path id="cl1" fill="#E8A76E" d="M1068.992 984.182c.399 12 1.1 25.899 2 41.5.1 4.5 3.5 10.399 10.3 17.699 1.899 2.101 5 5.301 9.3 9.7 3.7 4.101 6.7 7.7 9 11 2.2 3.2 4.2 7.8 5.8 13.601.9 3.3 2.2 8.5 4 15.399 1.7 5.9 3.9 10.5 6.5 14 3.4 4.5 7.9 7.7 13.5 9.7 9.3 3.3 20 9.6 32.2 19 8.9 6.9 13.4 10.3 13.5 10.5 4.9 3.6 9.2 6.2 12.8 7.8 7.601 3.5 15 4 22.3 1.5 6-2.1 10.4-5.5 13-10.3 1.801-3.3-4.399-34.2-18.699-92.9l-22-87c-17.7-6.5-35.601-12.3-53.801-17.6-36.199-10.6-55.399-12.9-57.5-7-2.3 5.901-2.9 20.3-2.2 43.401z"/><path id="sd1" fill="#AF7E53" d="M1096.492 977.482c-2.2 2.3-3.601 5.899-4.2 10.899-.2 1.9-.3 6.4-.3 13.301 0 4.6.5 8.399 1.5 11.3.899 2.899 2.699 6.1 5.3 9.5 3.399 4.5 12.8 15.2 28 32l2.3 6.3c1.7 4.9 2.8 9.2 3.5 13 .7 4.4 5.1 10.3 13 17.6 7.7 7.101 14.7 11.9 21 14.301 5.1 2 9.8 5.6 14.3 10.899 2.3 2.801 4.7 6 7 9.7.8 1 2.2 1.8 4.4 2.5 2.5.8 5 .9 7.5.5 7-1.2 11.6-6.8 13.6-16.8s.8-23.601-3.6-40.7c-3.2-12.4-6.601-22.2-10.2-29.3-3.8-7.7-9.8-15.8-17.8-24.5-12.8-13.8-28.3-25.3-46.3-34.3-20.1-10.2-33.2-12.301-39-6.2z"/><path id="sd2" fill="#876140" d="M1094.292 983.682c0 2.199-.101 4-.5 5.399-1.4 5.4-3.5 11.4-6.101 18l.5 1c.5.7 1.101 1.3 1.9 1.5 2.6.9 6.6-.5 11.8-4.3 7.3-5.3 12.5-8.2 15.5-8.9 4.9-1.1 11.5.2 20 4 10.601 4.7 19.7 11.601 27.3 20.601 8.9 10.6 13.301 21.7 13.301 33.3-2.801 2.2-5.601 4.7-8.5 7.6-5.7 5.801-8.601 10.5-8.801 14-.1 2 .601 3.101 2.2 3.5 1.101.2 3.3.101 6.4-.5 8.7-1.6 15.1-1.899 19.3-.899 6.8 1.7 11.5 3.7 14 5.899 2.3 1.9 4.9 5.801 7.7 11.601 2.3 4.8 3.3 2.1 3.3-8.101l-.8-16.699c-3-8-6.601-16.301-10.8-25.101-8.4-17.6-15.601-28.399-21.5-32.399-17.5-11.801-28.7-19.101-33.7-22-16.8-9.9-29.3-14.801-37.7-14.9-8.3 0-13 1-14.1 3.2-.599.898-.699 2.298-.699 4.199z"/><path id="cl2" fill="#F3E476" d="M1134.292 1136.881c-1.101-6.399.1-12.699 3.5-18.899 3.399-6 7-8.8 11-8.3.1 2.3.899 4 2.5 5.199 1.399 1 3 1.4 5 1.301 1.899-.2 3.5-.9 4.899-2 1.4-1.301 2.101-2.9 2-4.7-.1-2.4-.8-5-2.1-7.5-1.5-2.9-3.4-5-5.6-6.4-6.2-3.5-13.2-.2-21.2 9.9-8.5 10.8-12.5 22-12.3 33.7.1 4.899 1.1 9 2.899 12.3s4.101 5.3 7 5.899c6.101 1.301 11.3.601 15.5-2.199 5-3.301 8.4-9.4 10.2-18.2-.7-2.3-1.5-4.3-2.4-6.1-1.8-3.5-3.399-3.9-4.699-1.301-2 4.101-4.301 7.301-7.101 9.7-1.399 1.2-2.5 2-3.5 2.3-.7.5-1.5.601-2.399.5-1.599-.5-2.699-2.2-3.199-5.2m-7.4-52c.2-5.399-2.2-9.1-7.2-11.3-5.8-2.5-11.899-1.5-18.399 2.8-6 4.101-10.7 9.801-14 17.301-3.101 7.1-4.101 14-3 20.899 1.1 6.9 3.899 11.801 8.6 14.7 3.601 2.2 7.4 3.2 11.5 3.1 3.7-.1 7.101-1.1 10.2-3 3-1.8 5.1-4 6.3-6.6 1.2-2.7 1.101-5.3-.3-7.6-.5-2-1.8-3.5-3.7-4.5-3.899-1.9-9.399-.301-16.5 4.899-.3-.3-.6-.699-.899-1.1-2.601-3.5-2.101-9 1.5-16.3 2.399-4.9 5-8.5 7.899-10.801 3.4-2.699 5.9-2 7.4 2.2 1.399 3.9 3.3 5.4 5.6 4.7 1.2-.4 2.2-1.1 3.101-2.3 1.198-1.997 1.798-4.398 1.898-7.098m-22.4 33a6.948 6.948 0 0 1-4-2l4 2z"/><path fill="none" stroke="#000" stroke-linecap="round" stroke-linejoin="round" stroke-width="6" d="M1091.492 1007.581c1.5-18 3.899-28.6 7.1-31.7 19.1.301 38.6 6.5 58.5 18.5.1 0 .1.101.2.101l.399.2c.4.199.801.5 1.101.699 20.1 12.9 35.6 32.9 46.5 60l1.399 4.2c8 23.8 10.301 41.101 6.801 52-2.601 9.4-8.7 14.9-18.2 16.4m-11.5-163.4c-27.101-8.7-55.9-16.399-86.2-23.1-12.1-3.5-20.7-4-26-1.5v13.399c1.1 15.9 1.2 36 .3 60.4-2.8 15.5 1.601 26.5 13 33 7.101 7.1 13.101 16.3 18 27.3m-.4 42.801c-2.5-.6-4.101-3-4.601-7.199.5-8.4 4.2-15.601 11.101-21.5 3.3-4.101 6.3-2.4 9 5.1l2.6 2c4.2.2 5.9-5.1 5.1-16.1-6.3-8.4-14.699-9.2-25.1-2.301-13.9 11.101-19.1 24.601-15.8 40.801 3.3 10.3 11.1 15.199 23.1 14.5 13-3.601 16.1-11.4 9.2-23.301-5.5-.899-11.101 1.2-16.801 6.2m8.701-26.899c2.3 5.3 3.899 9.8 4.6 13.6 2.9 5.6 7.5 10.2 13.9 14 1.699-3.3 3.8-6.6 6.3-9.9 4.6-5.8 9.3-9.699 14.2-11.5 6.5-.8 11.1 2.301 14 9.4 1.3 4.7 1.3 7.9 0 9.5-3.2 2.8-6.2 3.8-8.9 2.8s-4.1-3.1-4.2-6.3c-4.899-.4-9.6 5-14.1 16.1-2.5 15.9.6 20.2 9.3 12.801l9.5-10.4-13.8-6m41 28.098c-16.7-13.199-25.8-20.6-27.3-22.1l4.199 8.6c-2.6 13-8.6 20-18 20.9-9.899.7-15.6-4-17.199-14-1.101-9.8.699-19.1 5.1-27.9m32.3-35.5c5.2-21.1 20.8-28 46.7-20.699m14.6 88.399c-12.399 10.9-25.3 12-38.6 3.3"/></svg>