<svg xmlns="http://www.w3.org/2000/svg" id="ears" viewBox="0 0 3000 3000"><path id="cl1" fill="#E9A76E" d="M1199.487 1042.199c-1.8-9.601-2.699-14.801-2.699-15.801-.101-1.6-.2-2.899-.4-3.899l-10-50.3c-7-3.4-15.1-6.5-24.2-9.301-5.8-1.699-14.2-3.899-25.1-6.5-22-5.1-40.2-9.199-54.601-12.199-19.899-4.101-38.3-7.4-55-9.801-2.5-.5-5.699-1.199-9.6-2.1-3.9-.8-6.1-.3-6.6 1.6-.5 1.801.699 3.801 3.5 5.801 2.8 2.1 5.3 4.1 7.399 5.899 2.8 2.9 7 7.101 12.7 12.8 5.7 5.601 9.9 9.9 12.7 12.801 7.399 7.699 12.899 14.899 16.5 21.6 4.5 8.4 6.7 17.3 6.7 26.5 0 4.7.8 9 2.399 12.8 1.8 4.2 4.4 7.7 8 10.3 9.101 6.7 16 14.101 20.8 22.301 5.101 8.699 8 18.5 8.7 29.399.3 4.601 1.7 8.601 4.3 12 2.801 3.7 6.4 6.101 11 7.3 6.601 1.7 13.301 4.7 20 9 4.101 2.601 9.9 6.9 17.601 13 5 3.9 8.399 6.5 10.3 7.801 4 2.8 7.7 5 11.3 6.5 6.5 2.8 13 3.699 19.301 2.699 6.399-1 11.899-3.8 16.6-8.399-.5-1.2-1.3-3.601-2.3-7.3-.2-.601-.7-3.5-1.5-8.5-.5-3.4-1.4-8.801-2.7-16-1.9 5-3.4 8.3-4.6 10-1.101 2.1-2 3.6-2.801 4.399-3 3.101-5.699 5.101-8.199 5.9-3.2 1-6.5.5-9.9-1.8-6.3-14.9-16.6-25.601-31-31.9-15.7-6.9-24.4-17.7-26.1-32.5-1-8.8-6.4-16.5-16-23.1-11.5-7.9-17.4-18.4-17.801-31.7-.199-7.5-1.899-14.7-5-21.7-2.6-6-6.5-12.3-11.7-18.9l-13.6-17.199c.7-1 1.601-1.4 2.601-1.101.6.101 1.5.5 2.699 1 12.601 4.5 25.2 9.7 37.801 15.4 18.8 8.7 33.3 16.3 43.399 23 14.9 9.899 24.801 18.6 29.801 26.1s8.1 12.101 9.199 13.9c1.001 1.8 3.001 5.2 6.101 10.2z"/><path id="sd1" fill="#AF7E53" d="M1086.287 982.199a40.436 40.436 0 0 1 6 11.899c1.3 3.9 2.1 8.3 2.399 13 .5 8.5 2.101 15.601 4.8 21.4 3.2 6.9 8.101 12.4 14.801 16.6 4.699 3 8.399 6.601 11.199 11 2.801 4.5 4.5 9.601 5 15.2.4 4.7 2 9 4.801 12.9 2.199 3.199 5.5 6.5 9.699 9.8 2.601 2 5.601 4 9.101 6 2.3 1.3 5.5 3 9.6 5.1 11.601 5.7 18.7 14.601 21.3 26.601.101.3.4.6.9 1 .3.199 1 .5 2 .8-.3-1.4-.1-2.1.6-2.2.7 0 2.4-.3 5-.899 2.601-.601 5-1.601 7.301-3.101 2.3-1.399 4.399-4.8 6.5-10.199 2.1-5.301 2.6-12.4 1.5-21.301-2.101-12.1-7.801-18.7-17.101-19.8s-16.1-1.4-20.6-1c-4.5.5-9.5 2.7-15.101 6.9 1.801-2.601 4.7-8.101 8.7-16.601 8.9-7.7 13.5-12.5 13.601-14.6.1-1.5-.5-3.5-1.601-6-3.399-7.8-9.1-15.9-17-24.3-22-23.101-45-41.3-69-54.601-11-6.6-20.3-11.3-27.8-14.199 6.701 8.101 14.501 18.3 23.401 30.601z"/><path id="sd2" fill="#876140" d="M1093.787 969.598c.899.601 2.399 1.4 4.3 2.5 22.8 15 43.5 32.5 62 52.3 6.2 6.601 11.2 14 14.899 22.101.801 1.7 1.2 3.3 1.101 4.8-.101 1.5-1.9 4.4-5.4 8.8 5.8-1.6 10.7-2.3 14.5-2.3 3.9.1 9.7.4 17.5 1-6.7-18.9-15.1-33.5-25.3-43.9-10.1-10.3-22.5-19.699-37.1-28.3-14.5-8.5-39-19.3-73.4-32.3 16.4 9.2 25.3 14.2 26.9 15.299m100.8 90.101c-6.4-.7-13.3.1-20.5 2.399s-12.7 10-16.4 23.101c5.8-4.5 11.5-7.101 17.3-7.601 3.301-.3 8.4-.1 15.5.801 2.801.3 5.301 1.199 7.601 2.699 2.5 1.601 4.5 3.9 6 6.801 1.6 2.899 2.6 6.5 3.2 10.8.5 4.2.8 10.7.8 19.5 4.1-12.6 5.6-22.8 4.399-30.5-1.199-7.8-2.399-13.2-3.699-16.4-1.301-3.1-2.301-5.6-3.2-7.5-.901-2-4.601-3.3-11.001-4.1z"/><path fill="none" stroke="#000" stroke-linecap="round" stroke-linejoin="round" stroke-width="6" d="M1184.087 969.699c-48.101-16.7-107.3-29.4-177.7-38.2 27.5 24.6 46.7 45.399 57.5 62.3 3.4 7.5 5.1 16.2 4.9 26.3-.2 10 5.899 19.7 18.199 29.101 14 12.399 20.9 25.5 20.601 39.3-.3 13.7 6.399 22.7 19.899 27 13.5 4.2 26.4 12.3 38.801 24.2 21.899 17.3 39.8 19.8 53.6 7.399m-63.8-64.501c9.3-22.3 25.899-29.399 50-21.3-.601-1.5-1.2-2.9-1.8-4.3-4.601-10-9.4-19.4-14.5-28.2-11.301-14.5-22.801-25.6-34.4-33.2-18.2-13-48.2-27.899-90-44.7m123.4 179.801c14.5 2 22.6-7.601 24.3-28.801-.5-16-2.9-29.5-7-40.5"/></svg>