<svg xmlns="http://www.w3.org/2000/svg" id="ears" viewBox="0 0 3000 3000"><path id="cl1" fill="#E8A66B" d="M1098.807 950.344c-8.1 5-14.899 13.399-20.6 25.199-4.4 9.101-6.6 18.801-6.8 28.9-.101 9.2 1.5 19 4.8 29.4 8.5 26.5 25.8 51.899 51.8 76.199 1.5 1.4 3.5 3.601 6 6.7 2.2 2.8 3.9 4.601 5.101 5.601 3.8 3 8.199 1.899 13.3-3.101 1.899-1.899 4.899-3.5 8.899-4.899 4.301-1.4 7.2-1.5 8.5-.2 1.7 1.7 1 3.6-2.1 5.8-3.8 2.2-6.1 3.7-6.8 4.5-1.7 2.1-2.3 4.3-1.601 6.8.601 2.5 2.2 4.7 5 6.5 5.301 3.7 12.5 5 21.7 4.101 9.9-1 16.8-4.2 20.9-9.5l-15-74.2c-2-10.3-5.5-26.4-10.3-48.4-4.9-22-8.301-38.1-10.4-48.399-6.5-4.601-13-8.301-19.8-10.9-6.5-2.5-13.801-4.3-21.9-5.5-11.898-1.901-22.199-.001-30.699 5.399z"/><path id="sd1" fill="#9F7249" d="M1133.907 1025.344c-2.101.1-3.601-.301-4.5-1.2-.9-.9-1.4-2.4-1.4-4.601-.2-5.6 1.8-10.5 6.101-14.8 4.199-4.2 9.199-6.5 15.199-7.1-5.3-3.7-11-4.1-17.3-1.3-5.8 2.6-9.9 6.8-12.1 12.5-1.801 4.7-2.301 9.7-1.601 15.1.5 3.8 1.9 8.9 4.101 15.3 4.199-3.399 8.3-5.8 12.3-7.2 4.3-1.5 8.7-1.899 13.3-1.3-1.6-2.3-3.7-3.8-6.3-4.8a35.337 35.337 0 0 0-7.8-.599zm21 51.7c.399-.399 1.7-1.5 3.899-3.3 1.2-1 1.301-1.5.5-1.6-4.199-.4-7.8-2.2-10.8-5.5-2.1-2.3-4.1-5.8-6-10.5-1.1-2.7-2.1-6.601-3.1-11.8-1-5.4-1.4-9.4-1.3-12.2-4 0-8.7 2.5-14.101 7.6-.7.7-.8 2.601-.3 5.8.4 2.801 1 4.9 1.7 6.301 3.899 8.199 6 12.6 6.3 13.199 2.7 4.9 5.6 8.601 8.9 11.301 2.1 1.699 4.5 2.8 7.199 3.1 2.903.299 5.304-.501 7.103-2.401z"/><path id="cl2" fill="#FAE979" d="M1171.707 1114.844c-3.3-.7-7.1-.4-11.5.8-4 1.1-6.9 2.6-8.7 4.3-6.899 6.601-12.3 14-16.3 22.301-4.2 8.8-6.3 17.699-6.3 26.699 0 6 2.899 10.801 8.8 14.301 5.7 3.5 11.6 4.3 17.5 2.399 6-1.899 11.6-7 17-15.399 5.4-8.5 7.7-15.7 6.7-21.801-.5-3.699-1.5-5.5-3-5.6-1.301-.2-2.4-.3-3.301-.3-1.699 0-3 .5-3.8 1.3-.7 3.8-2 7.8-4 11.8-1.2 2.4-3.1 6.101-5.8 11-1.101 2.2-2.4 3.7-4 4.5-2.2.7-4 1.3-5.5 1.8-2.9-.699-4.7-1.6-5.2-2.5-.4-.6-.7-2.699-.9-6.3-.199-3.1.101-6.399 1-9.899.7-2.601 1.801-5.801 3.4-9.4 3.601-9.001 11.601-19.001 23.901-30.001z"/><path fill="none" stroke="#000" stroke-linecap="round" stroke-linejoin="round" stroke-width="6" d="M1152.307 996.044c-10.399-3.5-19.199-3.1-26.399 1.2-9.601 5.9-11.4 20.3-5.301 43.2.2.8.4 1.5.601 2.3 6.399-9.3 13.5-13.1 21.199-11.5.2.101.4.101.601.2 7.1 2.8 12.1 6.7 15.1 11.6m15-83c-26-15.399-47.601-20.699-64.7-16-17.9 5.2-30.101 19.4-36.8 42.5-3.601 18.301-1.5 38 6.1 59.301 7.2 16.8 21.8 36.699 43.7 59.8 6 6.399 13.6 13.1 22.8 19.899 5.4-6.699 11.8-11.199 19.3-13.5 6.3.5 9.9 1.9 10.8 4.101-8.6 4-15.8 10.899-21.399 21-8 16.7-10.7 27.399-8.101 32.1 3.5 3.4 7.5 2.601 12.2-2.5l12.601-26.3h.199l-13.8-7m-34.9-90.701c6.1 22.101 13.899 34.2 23.3 36.5 4.6 1.2 9.3.5 14.1-2.3m-30.301 87.9c-.3 13.1 4.5 20.6 14.7 22.5 15 1.1 25.8-5.101 32.5-18.801 3.8-7 5.5-14.899 5.199-23.5-.3-.5-.6-.899-.899-1.3-1-1.3-2.101-2.2-3.301-2.8-2-1-4.199-1.2-6.699-.6m-25.599-14.999c-9 10.699-14.301 23.199-15.801 37.399m48.1-21.899c4.399 1.8 9.899 2.199 16.5 1.399 5-1.5 9.8-4 14.3-7.6"/></svg>