<svg xmlns="http://www.w3.org/2000/svg" id="ears" viewBox="0 0 3000 3000"><path id="cl1" fill="#E8A66B" d="M1133.168 948.055c-16-3.5-29-2.3-39.101 3.8-10.3 6.2-18.1 17.7-23.5 34.601-4.899 15.6-3.7 32.6 3.7 50.899 8.5 21.101 20.7 40 36.6 56.8 14.5 15.2 32.5 28.801 53.801 40.9 4.6 2.6 9.699 4.1 15.3 4.5 5.1.3 9.399 0 12.8-1.1 4.2-1.4 7.7-3.9 10.3-7.7l-32.899-165.7c-12.302-8.599-24.602-14.299-37.001-17z"/><path id="sd1" fill="#9F7249" d="M1124.468 994.855c-6.601 1.8-10.9 5.5-13 11-2 5.5-2.8 10.5-2.4 14.8.4 4.4 3.3 11.9 8.8 22.5 7.7-5.199 12.601-8.1 14.7-8.5 2.2-.5 7.2-.399 15.2.301-3.1-4.601-5.9-7.4-8.6-8.5a19.005 19.005 0 0 0-8.601-1.4c-2.1.1-3.6-.3-4.5-1.2-.899-.899-1.399-2.399-1.399-4.6-.2-5.7 1.3-10.3 4.5-14 3.199-3.7 8.5-5.8 15.8-6.5-7-4.401-13.8-5.701-20.5-3.901zm12.5 43c-3.7-.5-6.9-.2-9.601.9-2.699 1.2-5.1 2.9-7.3 5.4-2.2 2.399-1.8 5.899 1 10.3 2.8 4.399 5.8 8.5 8.8 12.3 3.101 3.7 6.7 7.5 11 11.3 4.2 3.9 7.5 4.8 9.9 2.8s3.9-3.199 4.5-3.5c.6-.3 1.7-1.1 3.3-2.3.101-1.2-.2-2.1-.8-2.8s-1.5-1.101-2.5-1.2c-4.3-.4-7.8-2.1-10.5-5.2-1.9-2.1-3.8-5.5-5.7-10.1-2-4.7-2.599-10.6-2.099-17.9z"/><path id="cl2" fill="#3E7CCC" d="M1171.168 1102.155c-1.801 0-3 .601-3.601 1.801-1.3 2.8-1.1 6.699.8 11.6.5 1.4 1.601 2 3.101 1.9.8-.101 2.1-.2 3.8-.4l2.2-.1c3.8-.2 6-.601 6.6-1.2.601-.6.8-2.5.5-5.8-.3-3.9-1-6.301-2-7.2-1-1-3.3-1.2-6.7-.6l-4.7-.001z"/><path fill="none" stroke="#000" stroke-linecap="round" stroke-linejoin="round" stroke-width="6" d="M1168.468 961.655c-29.101-16.199-52.3-20.699-69.3-13.5-17.101 7.9-27.801 24.301-31.9 49.2 0 .7-.1 1.3-.1 2-.7 20.9 4.899 41.4 17.1 61.7 13 20 30.3 39 51.9 57 30.5 23.9 52.699 29.3 66.6 16.1m-47.1-58.399c-6.101 6.7-12.5 7.1-19 1.3-9.7-10.7-16.301-20.7-19.7-30-.2-.7-.5-1.4-.7-2-.2-.5-.4-1-.5-1.5-8.7-25.9-6.1-42.4 7.8-49.7 8-2.399 15.2-1.7 21.5 2.2m-28.1 50.999c7.399-8.4 15.2-12.4 23.399-11.8 5 .4 10.101 4.2 15.301 11.6m9.699 54.5l1.601 18.101 19.6-1.4-1.9-18.1-19.301 1.399z"/></svg>