<svg xmlns="http://www.w3.org/2000/svg" id="beard" viewBox="0 0 3000 3000"><path id="cl1" fill="#262626" d="M1452 1166.9c15.5 20.3 35.5 27.1 60 20.9 11.8-3 21.7-9.8 31.2-17.2 13.9-10.8 25.8-23.9 38.8-35.9 15-13.8 30.1-27.1 50.1-33.4 21.4-6.7 42.8-8.8 64.4-.8 4.1 1.5 7.6.9 11.6-.3 18.8-5.7 35.2-1.2 49.8 11.6 12.6 11 20.2 25.4 28.6 39.3 2.2 3.7 4.6 7.3 6.8 11 9.1 15.4 31.2 21 43.8-.4 1.5 2.4 1.1 4.5.4 6.4-5.9 16.6-16.5 24.9-34.9 22.6-8.9-1.2-17.4-4.2-25.1-9.1-8.1-5.2-16.7-9.5-25.4-13.6-9.7-4.6-19.7-5.3-30.1-4.1-2 .2-4.2 1.5-5.8.9-12.3-5.3-23.9 0-35.8 1.6-4.9.7-10.1 1.3-14.9.3-22.3-4.6-42.1 2.3-60.7 13.3-21 12.4-42.8 22.8-66.5 28.8-22.9 5.8-45 4.1-64.8-9.8-11.2-7.6-18.2-18.6-21.5-32.1z"/><path fill="none" stroke="#000" stroke-miterlimit="10" stroke-width="6" d="M1452 1166.9c15.5 20.3 35.5 27.1 60 20.9 11.8-3 21.7-9.8 31.2-17.2 13.9-10.8 25.8-23.9 38.8-35.9 15-13.8 30.1-27.1 50.1-33.4 21.4-6.7 42.8-8.8 64.4-.8 4.1 1.5 7.6.9 11.6-.3 18.8-5.7 35.2-1.2 49.8 11.6 12.6 11 20.2 25.4 28.6 39.3 2.2 3.7 4.6 7.3 6.8 11 9.1 15.4 31.2 21 43.8-.4 1.5 2.4 1.1 4.5.4 6.4-5.9 16.6-16.5 24.9-34.9 22.6-8.9-1.2-17.4-4.2-25.1-9.1-8.1-5.2-16.7-9.5-25.4-13.6-9.7-4.6-19.7-5.3-30.1-4.1-2 .2-4.2 1.5-5.8.9-12.3-5.3-23.9 0-35.8 1.6-4.9.7-10.1 1.3-14.9.3-22.3-4.6-42.1 2.3-60.7 13.3-21 12.4-42.8 22.8-66.5 28.8-22.9 5.8-45 4.1-64.8-9.8-11.2-7.6-18.2-18.6-21.5-32.1z"/></svg>