<svg xmlns="http://www.w3.org/2000/svg" id="beard" viewBox="0 0 3000 3000"><path id="cl1" fill="#262626" d="M1695.9 1112.6c18.6-20.6 40-24.9 64.1-14.3 16 7 30.2 16.3 42.8 28.5 15.1 14.7 21.7 33 25.1 53 3.8 22.2 1.1 44.4-2.7 66.3-1.6 9.2-5.2 18.1-8.6 29.2-3.1-8.7 1.9-17.3-5.9-22.4-1.5 3.9.5 8.3-2.2 13.5-3.1-7.5-5.4-13.9-9.3-19.6-3.3 4.9 1.3 9.7 0 14.7-2.6-.8-3-2.9-3.5-5.1-2.1-9.1-10.5-13.6-15.4-20.7-8.9-12.8-21.9-21.1-35.6-28.1-2.1-1-4.2-2-6.4-2.8-18.8-6.5-34.3-17.2-44.5-35.8-8.3 10.3-16.3 19.6-27.1 26.1-6.6 4-13.3 7.5-20.3 10.5-12.8 5.5-25.7 10.7-38.6 16-15.9 6.6-26.3 18.8-34.1 33.6-1.5 2.8-2.1 6.2-5.2 8.1-2.2-3.9 2.1-7 1-11.2-8.3 5.8-5.8 17-13.1 24.6-1.9-10.9 1-20.4 1.7-32-8.1 14.5-7.5 29.8-14.8 43-2-4.5-.5-9.2-4.9-13.6v30.4c-7.9-9.5-11.9-20.3-14.6-31.3-3.3-13.5-7.6-26.8-7.9-40.9-.4-22.3.8-44.5 9.3-65.5 6.4-15.9 15.5-30.1 29.6-40.4 27.6-20.2 58-33.7 92.4-36.2 16.3-1.2 31.7 2.5 43.4 15.5 1.6 2 3.1 4.2 5.3 6.9zm-43.7 165.5c-8.1.7-9.1 1.8-10.4 9.3-3.2 18.6-7.2 37-9.8 55.7-1.5 10.4.4 10.2 9.6 11.9 1.9.4 4 0 6 .1 12 .4 23.9-.7 35.9-1.1 9.5-.3 15.3-4 18.6-13.2 6.9-19.7 14.5-39.2 21.8-58.8 1.7-4.7 1.2-5.8-4-5.9-10.6-.2-21.2-.9-31.6.1-12.3-1.2-24.2.9-36.1 1.9z"/><path fill="none" stroke="#000" stroke-miterlimit="10" stroke-width="6" d="M1695.9 1112.6c18.6-20.6 40-24.9 64.1-14.3 16 7 30.2 16.3 42.8 28.5 15.1 14.7 21.7 33 25.1 53 3.8 22.2 1.1 44.4-2.7 66.3-1.6 9.2-5.2 18.1-8.6 29.2-3.1-8.7 1.9-17.3-5.9-22.4-1.5 3.9.5 8.3-2.2 13.5-3.1-7.5-5.4-13.9-9.3-19.6-3.3 4.9 1.3 9.7 0 14.7-2.6-.8-3-2.9-3.5-5.1-2.1-9.1-10.5-13.6-15.4-20.7-8.9-12.8-21.9-21.1-35.6-28.1-2.1-1-4.2-2-6.4-2.8-18.8-6.5-34.3-17.2-44.5-35.8-8.3 10.3-16.3 19.6-27.1 26.1-6.6 4-13.3 7.5-20.3 10.5-12.8 5.5-25.7 10.7-38.6 16-15.9 6.6-26.3 18.8-34.1 33.6-1.5 2.8-2.1 6.2-5.2 8.1-2.2-3.9 2.1-7 1-11.2-8.3 5.8-5.8 17-13.1 24.6-1.9-10.9 1-20.4 1.7-32-8.1 14.5-7.5 29.8-14.8 43-2-4.5-.5-9.2-4.9-13.6v30.4c-7.9-9.5-11.9-20.3-14.6-31.3-3.3-13.5-7.6-26.8-7.9-40.9-.4-22.3.8-44.5 9.3-65.5 6.4-15.9 15.5-30.1 29.6-40.4 27.6-20.2 58-33.7 92.4-36.2 16.3-1.2 31.7 2.5 43.4 15.5 1.6 2 3.1 4.2 5.3 6.9zm-43.7 165.5c-8.1.7-9.1 1.8-10.4 9.3-3.2 18.6-7.2 37-9.8 55.7-1.5 10.4.4 10.2 9.6 11.9 1.9.4 4 0 6 .1 12 .4 23.9-.7 35.9-1.1 9.5-.3 15.3-4 18.6-13.2 6.9-19.7 14.5-39.2 21.8-58.8 1.7-4.7 1.2-5.8-4-5.9-10.6-.2-21.2-.9-31.6.1-12.3-1.2-24.2.9-36.1 1.9z"/></svg>