<svg xmlns="http://www.w3.org/2000/svg" id="beard" viewBox="0 0 3000 3000"><path id="cl1" d="M1525.3 1180.6c2.8-8.4 8.3-13.7 13.2-19.2 11.8-13.1 23.9-25.8 35.8-38.8 5.6-6 12.9-3.9 19.4-3.6 3.6.2 7.2 1.4 10.6-.3 8.2-4.1 16.9-3.2 25.4-2.2 3.8.4 7.2-.5 10.7-.5 12.1-.1 23.8-7.6 36.2-2.2 2.8 1.2 5.4-1.5 9.4-2.3-3.9 16.4-.3 32.3-3.4 50-3.4-4.5-6.6-5.8-9.6-7.3-2.3-1.1-3.9-.9-5.9 1.3-5.3 6-5.5 5.8-9.7-1-.3-.5-.6-.9-1-1.4-7.3 8.2-19.9 3.8-26.6 12.6-2.3-2.8-1.4-4.8-1.2-7-2.9-1.5-6.2 4.8-9.1-.3-.8-1.3-2.2.4-3.2 1.1-.8.6-2.1 1.8-2.3 1.6-7.3-5.6-11.5 2-16.9 3.9-.9.3-1.8.6-2.7-.2-4.6-4.1-8.6-2.5-12 1.7-2.3 2.9-4.2 0-6.2.1-2 .2-3.8 2.4-5.6 3.7-1.8-1.9.1-4.1-1-6.2-6.7 1.4-7.6 10-14.9 11.5-.4-2.8 1.8-4.7 2.5-8.1-10.5 4.4-20.4 8.4-31.9 13.1zm217.1-28.7c3-2.9 6-1.3 8.9.4 2.3 1.3 4.7 2.2 7.6 1.9 4.7-.5 8.8.1 12 4.6 2 2.9 4.6 2.5 4.4-2.1-.2-3.6 2.8-3.7 4.9-2.9 9.5 3.6 19.6 5.6 30.1 11.2-6.5-13-12.2-24.6-18.1-36-1.6-3.2-2.1-7.6-5.8-8.9-5.5-2-11.4-5-17.1-3.8-4.1.8-7-.1-10.3-1.5-11.4-5-23-4.5-35.2-2.3 1.6 12.3 4.6 23.9 4.5 35.8 0 3.2 1.9 5.5 4.5 7.2 2.1-1.2.8-3.7 2-5.3 2.8-1 4.1 5 7.6 1.7zm-48.8-41.8c-3 1-6.5 1.1-6.1 6 1 12.5 1.1 25.1-1.2 37.5-.2 1.1.2 1.8 1 2.5 1.4 1.1 2.4.3 3.3-.7 1-1.2 1.1-3.2 3-3.7 5.8-13.9 3.3-27.8 0-41.6zm23.8 26c1.7 5.8-.7 12.1 1.8 18.4 6.2-5.7 6.8-6.6 6.2-10.8-1.2-8.4-2.6-16.9-4-25.3-.5-2.9-1.7-4.9-5.2-4.4-1.4 3.2.4 6.5-.2 9.7.7 4.1-2.4 8.6 1.4 12.4zm-19.6 17.8c3.3-10.7.8-21.4 0-32.2l.2.3c-1.8-2.7-1.7-5.5-.1-8.2-.4-2.4-1.8-3.6-4.2-3.6.5 13.9.5 27.7-.1 41.5 1.3.7 2.8 1.4 4.2 2.2zm16.5-8.6c3.3-2.7.9-6.7 3.1-9.3.2-4.2 1.6-8.6-1.4-12.5-7 6.8-3.8 14.2-1.7 21.8zm-15.8 9.2c.2.1.7-.1.7-.2 1.3-2.9 3-6 2.2-9.2-1.8-7-.9-14.2-2-21.2-.2-1.1-.9-1.6-1.7-2.1v32.2c.3.1.5.4.8.5zm-.7-40.8c-2.5 2.8-2.6 5.5.1 8.2 0-2.7 0-5.4-.1-8.2z"/></svg>