<svg xmlns="http://www.w3.org/2000/svg" id="beard" viewBox="0 0 3000 3000"><path id="cl1" fill="#828282" d="M1649.4 1284.2c-11.601 9-12.301 18.3-2.301 28 5.899 4.102 8.2 11.2 7 21.2-3.699 13.5-9 24.9-16.101 34.3-6.601 8.8-15.601 12.5-26.699 11.102-21.1-2.9-40.7-11.4-58.7-25.5-7.3-6.102-11.3-14.102-11.899-24.102-.898-31.398 2.102-63.5 8.899-96.3 3.801-13 10.5-22.8 20-29.5 18.7-13.8 37.5-25.3 56.301-34.3 28.399-15.5 54.399-21.602 78.199-18.2.2 0 .301 0 .399.1 23 8.4 42.5 20.9 58.399 37.4 8.399 8.9 11.899 18.1 10.399 27.7.3 26-1.5 50.7-5.399 74.2-4.5 18.3-12 32.6-22.801 43.1-8.897 9.1-20.199 18.2-33.897 27.2-22.701 10.398-33.4 6.5-31.802-11.802 1.101-16 5.199-27.6 12.199-34.698 14-13.4 18.399-23.5 12.899-30.4-5.5-3.5-13.5-4.6-23.699-3.4-13.896.002-24.396 1.3-31.396 3.9m0 0c.199-.2.5-.398.699-.6m94.701-161.4c-4.101-5.6-8.101-10.1-12-13.398-10.101-11.9-18.601-17.2-25.7-16.2-41.1 1.6-63.398 4.1-66.8 7.8-38.7 25.9-71.5 53.2-98.5 81.9-9 5.6-15.399 21.198-19.399 46.6 0 .601-.101 1.2-.301 1.7l-13.399 90.3c-5.899 34.2-3.8 57.8 6.5 70.8 20.399 25.2 39.8 47.2 58.2 65.7l.699-6.3 15.4 20-.1-8.102c3.899 5.4 6.899 8.102 9 8-1.301-2.6-.899-4.8 1.101-6.398 3.601 6.3 6.899 9.8 9.601 10.7l1.601-5.602c2.399 7.2 5.602 11.602 9.7 13l.897-4.101 12.4 14.601 6.1-8.8 6.302 9.699 5.198-9.5 4.9 8.301 3.399-10.2 5 12.8 4.301-14.8 1.8 13.5 9.1-19.8 3.802 10.6 3.698-6.898 1.603 7.5 5.3-14.199 1.602 6.5c10.199-9.301 19-20.601 26.5-33.9 1-1.398.398 1.2-1.801 7.9 7.5-9.4 15.399-20.9 23.399-34.5-1.103 7.1-1.2 10.3-.103 9.6 3.701-5.3 7.201-12.8 10.701-22.6-.201 4.9.101 6.8 1.101 5.6 18.698-40.198 29.601-82.398 32.899-126.6 1.399-37.7 1-71.5-1-101.4-13-20.398-27-40.3-42-59.398"/><path id="sd1" fill="none" stroke="#686868" stroke-linecap="round" stroke-linejoin="round" stroke-miterlimit="10" stroke-width="4" d="M1623.4 1119.1h.699m6.701-2.7h.601m-.601-7.3c-.3 0-.5 0-.7.1-.199.2-.5.4-.699.602m-2.601 2.598c.2.3.399.5.601.7m-5.301 2.702h.699M1596.6 1143.1v.7m7.5-10.7h-.699m1.797 5.3c-1.101.2-1.698.6-1.601 1.4m27.203-11.4h-.7m-10.7-5.3v-1.3m-1.3 7.3h.699m-4.999-1c.101 0 .5-.101 1-.3m-.2 8.6v1.4m12.2 2.3c.101-.2.3-.2.5-.4.8-.8.601-1-.399-.6m1.199-6h-.699m-4.001-6h-.601m-30.899 12c-.601.3-1.2.7-1.601 1.3m-5.999 12.8c.3.2.7.3 1.101.3m-.203-5.698v1.3m-3.398-3.002c0 .3.101.5.3.8m-.7 12.6h-.601m-7.399 6.6c0 .8.399 1.1 1.399 1.1m.601-7.1h-.601m14.301 6.8c0 .4 0 .7.199 1.1m-5.399-4.9c-.301-.2-.601-.2-1.101-.2m9.801-6.5v-.6m-31.2 10.3c-.101 0-.301 0-.601.1-1 .2-1 .4 0 .7m11.301 10.6c-.5 0-.801.102-1.199.2m-4.703-.8c.601-1.2.7-2.5.601-4m.601 6v.6m-10.5-5.1c.699-.3.899-1 .5-2.3m.7 19.4c-.5 0-.801.102-1.199.2m.499-8.8c.101.9.399 1.7.899 2.5m6.201.5c.198-.1.398-.3.6-.4m4.2 4.302c.2-.2.399-.302.601-.4.801-.899.699-1.2-.4-.7m13.299-14.602c.3.3.5.399.601.399.301 0 .5-.101.699-.399m8-2c-.199.5-.399 1-.5 1.5m-2.3 3.9c0 .102 0 .4.101.5m-10.001-9.9c-.101.3-.301.5-.301.8 0 .2.2.4.301.6m-.6 4h-.7m-.5 13.9h.601m1.899-4.5c-.199.2-.301.4-.5.7m4.5 2.5c-1 0-1.5.399-1.699 1.3m-1.601-6.5c-.5.2-.899.4-1.2.7m-8.2-24.1c0 .7.5.9 1.399.7m57.801-12.7c-.1.102-.301.2-.5.4m-13 1.2c-.399-.7-1-.7-1.699-.101m3.499 6.101c.199-.101.399-.2.601-.4m-5.101 4.4c.199-.101.399-.2.5-.4m7 8.4c-.101-.2-.301-.2-.601-.3m-1.999-5.6c-.2.2-.399.2-.601.4m-2.899 4.3c-.399 0-.7.2-1.101.5m12.401-3.3l-.5.399c-.199.101-.399.199-.5.399m3.7-5.096c-.2.1-.399.3-.601.398m-5.501-4.3c-.3-.5-.8-.5-1.5.2m-11.098-4.2c0-.3 0-.5-.199-.7-.101-.1-.4-.3-.601-.3m-5.4-1.9c-.399-.1-.601 0-.801.102-.199.2-.3.398-.3.6m-2.601 8.398h1.399m-7.797 5.8c-.7.4-.899 1.1-.7 2m3.098.2h.7m8.002-3.298h-1.301m2.599 8.598h-1.3m-2.998-1.5c-1.101.3-1.801.7-2.101 1.2m-5.999 10v1.4m8.6-3.4h-1.301m-5.999-5.2c0 .4.101.7.301 1.1m11.199 5.4v-.5m6.5-7.8c-.899.1-1.5.3-1.699.7m7.797-.8c.101-.3 0-.6-.101-.698M1592.8 1184.1c-.399.5-.7 1.1-1 2m.8-37.7h.601m26.699-5.3c-.101 1.3.5 1.8 2 1.399m-12.9-.697c-.2.1-.4.3-.602.398m-60.498 47c.199-.1.399-.3.601-.5m-.401-5.2h.699m-8.199 1.4c-.199-.3-.5-.5-1.1-.7m8.4-5.5c.399-.1.899-.3 1.3-.6m2.2-3.1c0-.1-.101-.198-.2-.3m-1.8 17.2c-.301.2-.5.3-.7.5m-2.8 8.902c-.399.1-.801.3-1.101.6m6.801-4.202c.101-.3 0-.6-.199-.8-.101-.2-.301-.3-.601-.4m-6.2-2.1c-.301 0-.6 0-.699.2-.301.1-.4.3-.5.6m-5.001 6.5c-.601-.1-.801.4-.601 1.3v.7m2.101-7.8c.199-.1.399-.3.5-.4m-7.1 18.9c.3.5.8.7 1.8.5m-1-4c-.199.2-.5.3-.699.5m-.101-3.5c.101-.3.101-.7.101-1.1m9.199-.4c-.6 0-.801.4-.699 1.3.1.2.1.4.1.7m4.599 5.3c-.301.5-.5 1.2-.301 1.9m4.501-6.7c-.399 0-.899.2-1.2.5m-7.5-3.3c-.199.5-.399 1-.5 1.5m.8 1.4c-.301.5-.5 1.102-.301 1.9m-14.699 4.8c.199-.1.399-.2.699-.398m3.701-14.602c-.2-.2-.399-.3-.7-.398m-2.3 33.598c-.2.1-.399.2-.601.4m-3.599 1.8c-.301-.101-.6 0-.699.1-.301.2-.301.4-.4.602m7.299 2.198c.101-.3 0-.6-.2-.698-.1-.2-.3-.4-.6-.4m-1.9-9.802c.101-.101.301-.2.5-.4m.7-8.7c-.399-.1-.899-.1-1.399.102m22.199-1.402c-.699 0-.899.4-.699 1.4v.6m-10.801 0c.199-.1.301-.2.5-.3m-5.2 5.5c-.101-.3-.301-.5-.5-.7m5.298 12c.2-.1.399-.3.601-.398m-2.499-5.702c-.399-.601-.899-.601-1.7 0m11.5 0c.101-.101.301-.2.5-.4.699-.7.5-.898-.399-.5m-2.701 11c-.4-.6-.9-.5-1.5.2m.9-14.9c-.301-.6-.801-.6-1.5.2m-8.1 26.5v.602m5.3 0h.699m-5.101-6c-.198.1-.3.3-.5.398m5.602-4.2c-.2.2-.399.2-.5.4m2.3 14.8c-.1-.2-.301-.3-.6-.398m-5.4-3.902c-.5 0-.801.3-1.199.5m-.301 4.402c.301.3.601.5 1 .698m6.7 2.7v.602m-.7-2.602v.602m-7.3 1.398h-.7m9.8-1.6c.101-.4 0-.601 0-.8m-20.8-3.3c-.301-.198-.699-.3-1.199-.3m6.499-2.7h-.601m-3.499-5.1h.601m3.699-4.5h-.6m-4 17.2h.6m1.3 4.5c.199-.3.399-.5.5-.8m3.5-4.7c0-.5-.301-.9-1.101-1.3m-4.899 12.002c0 .3 0 .398.199.6m7.599 3.198c.302-.7.601-1.3.802-1.9m-5.9 3.4c-.399-.2-.899-.4-1.301-.601m-5.799 5.901h-.602m10.902-1.2c.5.2 1 .4 1.399.5m-5.099 1.5v.602m4.3 6.198v-1.3m-5.5.5h-.801m-2.499-10v-.7m12.9 5.7c.1 0 .5-.1 1-.398m4 1.398h-.7m1.3-6v-1.398m-.3-6h.7m-1.2-4.302c-.2 0-.7.102-1.3.302-.9 0-1.602.398-2 1m38.6-73.902c-.199.1-.301.2-.5.3m-6.5-1.1c-.699-.601-1.5-.9-2.5-1m-8.7 14.8c.199-.2.399-.3.601-.5m.899 8c-.399.1-.801.3-1.101.6m4.701-12.6c.198-.1.398-.3.6-.4m-2.7-6.4c-.399-.7-1-.7-1.899 0m9.399 6.6c-.5-.6-1-.6-1.801.2m-10.699 19.7c-.301.5-.5 1.2-.301 2m-14.901-32.5c.2-.5.399-1 .601-1.5m39.899 1.1c.101.2.2.4.399.7m139.403-94.098h-.602m-3.398 3.298c-.102.3-.2.5-.2.7m8.2 2.6c-.102.3-.302.5-.5.7 0 .3-.102.5-.102.7m1.402 6.6h.601m-8.601 2h.601m-.601-7.3c-.3 0-.5 0-.7.1-.199.2-.5.4-.699.602m11.399-.702c.2.3.399.5.601.7m4.599 8.6h-.602m2.002-4.598c-.2.3-.399.398-.5.698m-5.5 10.6h.601m5.999-3.298c.3.3.5.398.8.6m-6 7.4h-1.399m-4.601-2h.601m-3.001-2.702c0 .3.101.5.399.7m-3.999 2.6h-.8m4 11.5c.3.2.5.3.8.5m-.8-1.3h.8m4 4.702v-.7m10.6-4.002h-.601m-3.399-6.7c.5 0 .899 0 1.3-.1.399-.102.899-.2 1.301-.5m10.799-3.4h-.8m-.6-4c-.2.3-.399.5-.5.7-.101.3-.101.5-.101.7m-3.399-4.7h-.601m2.001 16h-1.402m8.602-5.298c-.102.3-.2.398-.2.6m2.398 9.198c.302.1.802.2 1.2.2m-3.598-7.4c0 .3.101.5.2.7m-12-8.7h-1.2m-16-8c-1.2 1.1-.899 1.6.601 1.5m31.999 35.2c.101-.2.101-.5.199-.7m-1.699-3c-.399-.2-.7-.3-1.101-.3m-1.999-3.298h.601m-6.601.598h.601m-4.001-2.598c0 .698.399.898 1.399.698m.601 7.9c-.101.8.399 1.2 1.399 1.1m4.001 6.302h-.8m1.4-5.402c-.2.3-.301.5-.301.7 0 .3.101.5.301.7m-7.4 5.002c-.302 0-.602.1-.9.1m15.5-5.902v.602m-3.8 4.798c.2.3.399.4.601.4.199 0 .5-.102.6-.4m-1.701 2.2c-.5.3-.899.5-1.3.8m-30.7-18.3c0 .3 0 .5.101.6m15.999 10.9c.399-1 .5-2.2.399-3.5m-10.299-5c.6-.4.8-1.101.5-2.3m5 .002h-.602m.002 6.598c-.2 0-.399 0-.601.1-1.1.2-1.1.4 0 .602m27.201 13.998c-1 0-1.5.399-1.602 1.3m-5.398 0c.198-.3.398-.5.5-.8m21.3-14.4c-1 .4-1.7.7-2 1.2m1.2 8h1.401m-11.401-4c-.102.5-.4 1-.5 1.5m4.5-2.8c0 .5.1.8.3 1.2m-1.5 6.1v1.4m0-18.7c-.8.5-1 1.2-.8 2m2.198 30.1c.399-1 .7-2.1.601-3.398m9.601 8.598c.199-.2.5-.3.601-.5m3.599 7.6l-.301-.6c-.199-.3-.299-.5-.5-.6m-6.199-1.2c.199 0 .301-.2.4-.3m-11.2-18.4c-.399.5-.8 1.2-1 2m18.6.2c-.301.3-.399.8-.399 1.2m-4.001-4.7v.7m-4 7.3h.8m8.8 5c-.1 0-.301.3-.6.899m9.6-3.197c-.6.1-1.1.1-1.6.3m2.5 4.598c.1.7.398 1.5.6 2.2m-5.8.2c-.2 0-.399.3-.8.899m-.5-11.099c.1.2.3.4.5.7m-2.6-4.5c.199-.101.5-.2.601-.4m-23.401-18.8s.199 0 .301-.1m-49.001-50.7v.7m4.6-6.7h.8m-12.4 4.702c.199.3.601.398 1 .6m-1.4-7.302v.7m-.6 9.3h.601m3.399 12h-2m4.6-10.7c-.102 0-.602.2-1.2.3-.899 0-1.601.4-2 1.102m10 2.598c.2.3.399.5.601.7m-4.001 6h.601m-1.201-3.298h-.8m0-8.702v.7m-2-9.998h-.602m-12.398-.702c.1-.2.398-.2.5-.4m-5 4.2c-.2.1-.4.2-.5.3m7.1 3.9c.101-.5-.199-1-1.1-1.3m-10.7-7.3c.101.4.7.602 1.601.4m-6.901.7c.1 0 .398-.2.6-.4m4.8 8c.199.2.199.4.399.602m-4.101-5.202c-.3-.101-.8-.101-1.3 0m1.702 14.5h.699m-1.699-6.798c-.199.1-.399.3-.5.398m10.5 7c0 .3.101.5.301.7m1.699-5.9c.199-.3.4-.5.601-.8m1.699-2.6h-.601m-7.399 10.702c-.601 0-.5.3.5.898m5.5 9v-.6m.6-2c.5.3 1 .5 1.5.6m-8.7.7h-.7m1-2.3c-.199.1-.399.3-.699.5m-4.301-3.5c-1 .3-1 .5 0 .6.199.102.4.102.699.102m-5.399 4.598c0 .5 0 1 .199 1.3.101.302.301.5.5.7m3.201 9.7c.101-.101.3-.2.5-.4m8.6 2.7h1m.7-7.3h-.699m19.999-6h-.601m-3.399-4v-1.3m-1.4 7.3h.8m-5-1c.101 0 .5-.101 1-.3m-4.5 1.8c.3 0 .7-.2 1.101-.5m-.601 9.5c-.2.1-.3.3-.5.399m10.5 1.401c-1 .9-.8 1.5.601 2m5.999-9.3h.601m-8.001 1.9c.3-.6.398-1.3.398-1.898M1693.3 1119.1c-.3.6-.5 1.3-.8 2m-22.5-18.798c-.102-.2-.2-.4-.4-.602m1.7 1.2c.101.2.3.5.399.7m-14.099-3.9l-.5.4m4.7 5.6c.2-.1.3-.3.5-.5.101-.2.101-.5.2-.8m.6-3.7c-.301-.1-.6-.1-.801-.1m-4.899 11.5c.101-.3.101-.601 0-.9 0-.1-.101-.3-.301-.6m12.801 5.1h-.601m-4.199-.8c-.199.1-.399.2-.5.3m6.3-3.6c.199-.2.399-.3.5-.5m-5.5-.9c0-.3 0-.5-.2-.7m-20.6-8.8c-.301.2-.699.5-1.1.8m7.1-1.4c-.1-.2-.301-.3-.699-.4m1.297 6.7c.2-.1.399-.2.5-.3m-11.798-.6c-.301-.1-.601-.1-1-.1m-1.3 1c-.199.3-.399.5-.5.7-.199.3-.199.5-.199.7m-1.001 1.3c.199 0 .399-.2.601-.3m3.799.3c.2.3.399.5.601.7m-2.601 4.6h.601m6.199-3.7v.9m1.3 2.9c.199-.3.3-.398.5-.698m-2 4.598h.699m-2.199-11.3c.199-.2.399-.3.5-.5m5.7 19.8h-1.301m-.699-4.598c.199.3.4.398.699.6m4.601-1.302h-.601m-18.399 4c0 .3.101.5.399.7m2.001 2.002h.601m5.399 2h-1.399M1634 1139.9c.3.2.5.3.8.5m-.7-1.3h.699m4.001 4v.7m10.6-4.7h-.601m-3.399-6.7c.5 0 .899 0 1.3-.1.399-.102.899-.2 1.399-.5m21.701-4.498c-.399-.4-.8-.602-1.2-.9m-11.2-2.002c-.2.3-.301.5-.5.7-.101.3-.101.5-.101.7m2.001 2.6h-.7m4 3.402c-.199.3-.301.398-.301.6m.001 1.998c0 .3.101.5.3.7m-8.7 2h1.399m9.399 4.5c.399.1.7.2 1.2.2m7.202 1.6c-.5 0-1 .2-1.5.3m-.8-9.3h1m-1.2 1l-.6.3m2.4 5.7c-.101-.2-.2-.4-.301-.5m-7.199-17.5c-.301-.2-.7-.3-1.101-.3m-9.601-11.5c-.3-.101-.601-.2-.899-.2m5.001 40c-.2.2-.399.3-.5.5m3.5-4.098h.601m-6.601.598h.601m4.499-.9c.199-.1.399-.3.5-.398m4.2-1.702c-.199.1-.399.4-.699.8m3.399 3.602c.101.1.2.3.3.6.2.101.301.3.4.5m-19.9 4.498c-.199-.2-.399-.3-.699-.3m3.999-9.298c0 .698.399.898 1.399.698m-2.799 3.1c.1-.101.398-.2.6-.4m-9.2 5.2c-.2 0-.399 0-.601.1-1.1.2-1.1.4 0 .602m1.301-7.3h-.699m-1.001-.202c.199.1.5 0 .8 0m-5.7.1c-.102-.1-.2-.3-.4-.5m6 1.5c.199-.1.4-.3.601-.5m-1.701 12.7c.398-.2.8-.5 1.1-.8m-4.7.202c-.399.3-.801.6-1 .898-.301.4-.601.7-.801 1.2m11.501-3.3c-.199.1-.399.2-.5.3m7.8-5c-.101.8.399 1.2 1.399 1.1m49.101-7.698c.101-.9.101-1.7 0-2.7m-6 1.998v-2m13.4 4.702v-2m-30.9 1.5c-.101-.2-.301-.4-.601-.4m7.801-3.902c.199-.1.4-.3.5-.398m-14.7 3.2c.101.6.199 1.3.5 2m39.4-6v.6M1648.1 1288c.5 0 1-.1 1.301-.198.5-.102 1-.2 1.399-.5m2-1.802h-1.3m8.8 3.302c-.2.3-.3.5-.3.698m3-5h-.7m-5.2.5c-.199.2-.301.4-.5.7 0 .2-.1.4-.1.602m15.1.398c-.199 0-.399.102-.6.2-.102 0-.102.1-.2.2m-4.4-1.9c.101 0 .199-.1.199-.3m-.599 6.6c0 .2.1.4.3.7m6.3-1.5h.301m4.199-7.3c-.301-.2-.699-.2-1.199-.2m4.499 7.602c.199-.2.399-.5.5-.7m1-6.002a3.1 3.1 0 0 1-.5.7c0 .198-.101.398-.101.6m1.301 6.7h.7m-8.4-6c-.101-.3-.301-.4-.601-.7m11.001 2l-.7-.7m2.9-3c-.4-.1-.7-.3-1.2-.3m4.5 8.8c.2-.3.3-.5.5-.8m1.8-2.5c.199-.2.4-.5.5-.7m2.4-2.8h-.7m5.3 6.7h.699m2.001-5.4h-.7m-7 4.8h1m89.2-86.6c.7-.5 1.101-1.3 1.101-2.3m-4.401-5.5h.8m-7.3 4c.198-.101.398-.2.6-.4m.7 6.102h.2m-.9 4.898c.101-.2.199-.5.301-.8m.699 6.6c0-.3 0-.6-.1-.8m4.8-8.1c-.2-.2-.3-.4-.5-.601m3.8 5.001c-.1-.198-.199-.398-.399-.6m-1.901-6.3c.2-.2.5-.5 1-1.2m-11-6.3c-.2.1-.399.2-.5.3m15 24.7c-.3.1-.399.3-.7.5m-3.2-5.5c-.301.1-.399.3-.7.399m-7.1 4.101c.199-.101.4-.2.601-.4m4.799-.1c0-.4 0-.601-.102-.9m-4.398 9.4c.3-.2.5-.2.6-.4m2.5 8c-.5.102-1 .2-1.5.4m.9-2.4c-.102-.1-.2-.3-.4-.5m6.2-2.8c.2 0 .3-.2.5-.3m-1.3-5c.198 0 .398-.2.6-.4m1.4 17c-.2-.3-.4-.398-.7-.5m-4.9 1.5c.101.602.3 1.3.5 2m-1.4-.3c-.102-.2-.302-.3-.602-.3m-.098 12.3c-.399.5-.7.8-.8 1m-1 2.3c0-.1 0-.2-.102-.3-.101-.1-.199-.2-.301-.3m1.803 1.202c.101.198.199.398.399.6m-4.199-8.002c.199-.1.301-.2.4-.3m11.4 10.6c-.2-.3-.301-.5-.399-.6m-.701-4.7c-.399-.1-.8-.1-1.3 0m-5.2-4.9c.7-.5 1.101-1.198 1.101-2.1m3.899 1.6c.2-.1.601-.398 1.2-1.1m-11.4 20.8c-.1.102-.301.2-.5.4m-3.7 12.1c0 .2.101.5.199.7m16.701-13h-.7m-7.1-3.9c-.2.2-.4.2-.602.4m-1.598 4.2h.7m7.4 14.202c-1 .3-1 .398 0 .6.199.101.5.101.699.101m-4.099-4.201c0 .398 0 .898.1 1.3.199.2.301.5.5.7m-4.8-1.102c-.3-.398-.8-.6-1.2-.898m10-5.402c-1 .3-1 .5 0 .7.301.1.4.1.699.1m-1.699-13.5c-.1.102-.301.2-.5.4m-9.6 0c0-.3-.102-.5-.2-.8m.2 15.4c-.4-.1-.7-.3-1.2-.3m.7-35c.1.7.3 1.4.5 2m5.1 53.3c-.5.102-1 .2-1.5.4m5.2-5.7c.2-.1.3-.2.5-.3m-7.3-2c.3-.2.5-.3.6-.4m.2-1h1m.7 7c-.102-.1-.2-.398-.4-.5m-1.2 8.5c.101.3.101.602.199.9.101.3.2.7.301 1.1m6.298-5.2c-.5.102-1 .2-1.399.302m1.001 2c-.5 0-1 .1-1.5.3m-1.9 6.7c.601-.5 1-1.2 1-2.102m-5.4 3.2c.198-.2.398-.2.5-.4m-7.4-17.8c-.1 0-.301.4-.6.8m.3-4.698c.3.1.7.3 1.2.3m1.3 6.798c.3.2.7.3 1.2.3m-.7-7.398c0 .3.101.398.3.698m-8.7 16.302c-.301.1-.399.3-.5.398m1.1-4h-.7m3.7-.398c.1-.102.398-.2.5-.4m3.5-.802c.3-.4.5-.8.6-.9m-.902 8.5c-.198-.2-.198-.398-.3-.5-.2-.3-.301-.5-.398-.6m-3.5 3.702c-.2.3-.4.398-.4.698 0 .2.199.4.4.7m2.5 2c-.102.102-.4.2-.5.4m1.1 5.4c-.1-.1-.199-.1-.301-.1m-10.699-.8l-.5.399m2.7-4.197l.5-.4m-.3-2.202c.198.102.5.102.8.102m2.5 6.398h-.7m-2.8 11.7c-.399-.1-.7-.2-1-.2m-1-4.898c.101-.102.3-.2.5-.4m12.8 8.798c-.1.102-.301.2-.5.4m1.4-5c0-.3-.102-.5-.2-.8m-5.4-2.2c.101-.2.3-.3.399-.5.101-.3.199-.5.199-.9m6.402-11c.199.2.399.4.601.4.301 0 .5-.2.601-.4m2.298 16.7c.199-.2.399-.2.601-.4m-1.401-11.4c-.1-.2-.199-.4-.399-.601m3.199 5.701c.101.2.199.4.399.602m.701-11c.1-.102.5-.5.898-1m-7.798 9.098h.601m-23.701 4.5c.1-.2.398-.2.5-.4m-.4 5.6v.8m-8 2.7c.199-.2.4-.3.601-.4.8-.898.7-1.1-.399-.7m2.498-3.1c.2-.2.3-.3.601-.5.699-.8.6-1.1-.4-.6m7.799-2.4v.8m-.2-6c.199-.1.4-.3.5-.398m-6.6 19.398c-.2.102-.5.2-.602.4m6.002 2.1c-.101-.3-.301-.5-.399-.6m-14.401-.2c-.301-.7-1-.7-1.801-.1m6.301 5.2c-.301-.698-.899-.6-1.6.2m2.8-5.5c-.399-.6-.899-.5-1.7.3m-2.8-5.3c-.3-.8-1-.8-1.8-.1m-3.2 12.1c.2-.1.399-.3.601-.398m7.999 9.798c-.301.1-.399.3-.601.5m-5.399-.5l.601-.4m16.399-7c-.5.4-.899.7-1.2 1-.3.5-.699.9-.898 1.4m-6.002.202c.2-.102.399-.302.7-.5m-24.302 5.398c.302.5.802.602 1.802.4m7-11.1c-.302.2-.5.302-.602.4m-.598 4.8c-.3.2-.399.4-.5.5m3.7-10.1c-.102.1-.4.2-.5.399m-7 5.001c0-.3-.102-.6-.2-.8-.2-.2-.399-.398-.8-.398m-1.5 5.898c-.2.102-.5.2-.602.4m-5.798 2l-.6.6m14.8 4.5c-.5.102-.899.3-1.3.602m-11.302-.102h-1.399m6.201 3.7c.1-.1.398-.2.5-.4m-8.6 3.4c.101.3.199.4.399.7m5.801 10.202c.199.198.301.398.4.6.1.101.198.3.398.5M1716 1384.9c.1-.1.3-.2.5-.4m2.6-4.3c-.1.102-.301.2-.5.4m15.2 6.8c-.5 0-1 .1-1.399.3m.399-2.898c.2.198.2.398.399.6m-7.399 3.998c-.2.1-.3.4-.601.8m5.601-10.5c.2-.1.3-.2.5-.398m-8-.802c-.2.102-.399.4-.7.802m21.5-10.602c.4-.3.601-.5.801-.7m4.499 20.6c-.2.1-.399.2-.5.399m-9.9-6.899c.1-.101.398-.2.5-.4m0-6.5c.1-.398.1-.6 0-.8m5.9 1.3c-.301.102-.399.3-.601.5m3.801 2.7v-1c-.1-.2-.1-.5-.199-.7m5.297-8.8l-1.198.8m-17.4 3.3c-.1-.198-.301-.3-.699-.3m41.099-27c-.2.102-.4.2-.5.4m-8.2-1.798c-.2-.5-.3-1-.3-1.2s-.102-.4-.302-.6m4.302 4.8c.198-.102.398-.302.6-.5m-1.5 5.5c.301-.102.4-.302.699-.5m-5.399-.902c.101-.1.3-.2.5-.4m-9.5-6.4c.3 0 .601 0 .899-.101m2.801 5.701c.301-.1.5-.3.801-.5m-1.901 9.8c.398-.3.8-.6 1.1-.898m-2.1 8.598c.398-.1.8-.3 1.1-.5m11.7-7.898c.2-.102.399-.2.7-.4m-1.9 5.9c-.1-.2-.301-.4-.699-.4m-3.801-6.202c.301 0 .4-.2.699-.398m-7.799 33c.198-.102.398-.2.5-.4m-2-5.902c.198-.1.398-.3.5-.398m8.1-.602c.101-.3.101-.6 0-.898m-6.8-6.102c.3.102.7.2 1.101.2m3.999 1.7c.101-.1.399-.2.601-.4m1.299-7c-.2-.3-.399-.3-.8-.398m-9 9.798c-.102.1-.4.3-.5.4m-55-79.8c-.7.2-1.2.7-1.7 1.302m4.8-7.402h-.6m-3.9 10.8v-.7m-9-5.3c-.6.102-1.199.602-1.6 1.2m6.3 2.8v.602m-4.5-6.702h.7m-8.1 3.1h.699m-5.999 2.9c-1 1.1-.801 1.6.699 1.399m-2.699-9.399h.699m3.701 12.1c-.102.102-.302.2-.4.4-.399.5-.5 1-.301 1.6m-44.699 72.2c-.199.3-.399.5-.6.8m43.698-70.3c-1.101.3-1.698.8-2.101 1.3m12.403.102c-1 .3-1.602.698-2 1.198m7.6-6.198h.699m-6.499-1.402h.601m2.399 2.1v-1.3m-6.9-13.3h1m-7.6 24.1c-.2.4-.399.9-.5 1.4m1.2 10.6c-.4.4-.7 1.102-1 1.9m1.4 6.8c.5-1 .699-2.1.601-3.398M1677.1 1323h-.6m7.5-1.5h-.7m-3-5.3c0 .5.101.8.3 1.102m12.7-22.602h1m-23.2 7.5c.4.102.801.2 1.301.2m-2.601-7.3c.3.1.8.2 1.2.2m-2.7 4.502c-.399-.102-.7-.2-1.2-.2m-2.8-1.902h-.7m-8.3 6.2h.601m3.099-9.7h-.7m-4.102 7.102h.7m4.602-2h-.602M1656.1 1316c0 .7.4 1.102 1.4 1.102m2.1-5.602h-.6m-.6-3.9c-.301-.2-.601-.3-1.101-.3m13.801 2.2c-.301-.198-.699-.3-1.1-.3m-4 5.7h-.602m3.202-9h-.6m-5.1-2.098c.399.198.8.3 1.199.3m-.499 4.898c-.199.2-.199.4-.199.7 0 .2 0 .5.199.602M1648.4 1293h-.7m3.8 1.802h.698M1645 1297.5c-.2-.198-.5-.3-.7-.5m4.7 3.802v-.602m-4.6-4h.601m-.901 8.602h.699m6.801 6.698c-.199 0-.301 0-.6.102-.102 0-.302 0-.4.1m.5-6.302c0 .7.5.9 1.4.7m20.5 17.4v1.302m-6-5.302c.3.2.398.302.6.302.301 0 .5-.102.699-.302m-3.299 6.7c-.5.2-.9.5-1.2.8m.5 1.2c-.2.2-.399.5-.5.7m-3.8-6c-.5.3-.9.5-1.2.8m3.5-4.898h.7m-4.6 18.5c-.301.1-.5.3-.601.398m2.501-6.5c-1 0-1.5.4-1.7 1.4m12.2 4.8c-.3.2-.5.3-.7.5m-1.8-6.4c-1-.1-1.5.302-1.7 1.302m-3.2 6.398c.101.2.199.4.399.602m8.301 6c.199-.102.301-.2.601-.4m-2.401-1.1c-.3.1-.5.398-.7.5m-.8-1.202c.3.1.601 0 .899 0m2.901 7.8c-.199-.2-.5-.3-.801-.4m-3.699-.198c.199-.102.301-.2.601-.4m-10.901 1.4c-.5.398-.899.698-1.2 1-.3.5-.699.898-.898 1.398m2.198-10c-.301.102-.5.2-.601.4m5.601 1.5c.101.2.199.399.399.6m-.199 5c-.5.3-.801.602-1.199.9m2.399 5.202c-.5.398-.899.6-1.2 1-.3.398-.699.898-.898 1.3m2.898 5.298l-1.199.9m5.699-8.6c-.5.2-.801.5-1.199.9m-20.401 8c-.102-.2-.4-.3-.7-.4m6-7c-.2.102-.399.2-.7.4m-2.7-.2l.601-.4m-1.101 10.2c.101-.3.101-.5 0-.8m-.1 8.1v-.698m.6 2v.698m-5.4-7.3c.1-.5-.2-.898-1.102-1.2m-8.798 7.802h.699m6.001 0h.601m1.399-2.602c-.399-.3-.7-.5-1-.7m8.3 12h-.699m-4.001-4.698c-.101 0-.601.1-1.301.398-.8 0-1.5.302-2 1m8.701 6.602h.601m-6.601 0h-2m21.1-16.5c.199-.102.399-.2.5-.4m8.5-2.402c-.301.2-.5.302-.601.5m-5.101-1.9c.399.1.7.1 1.101.1m-2.899 8c-.101.2-.301.4-.5.602 0 .198-.101.398-.101.698m-7.399-4.698c-.101.198-.301.398-.301.698m.901-1.6c.1-.3.1-.7 0-1-.102-.2-.102-.5-.2-.6m-3-1.6c-.2.102-.399.3-.601.5m5.901 19c-1 1-.801 1.5.699 1.3m-1.999-3.3h-.7m-3.3-3.398c-.2-.2-.399-.4-.7-.602m4-3.398c-.199 0-.399 0-.6.1-.2.2-.4.3-.7.601m12-.003c-.2-.3-.399-.5-.7-.698m-1.3 5.398h-.7m3.098 3c.2-.1.399-.3.601-.398M1666.1 1390c-.301-.1-.6 0-.699.2-.301.102-.301.3-.4.5m-11.501-36.5c-.2.102-.4.3-.602.5m53.102 11.8c-.102-.198-.2-.3-.4-.6m7.4-3.4c.198-.1.398-.3.6-.6m-36 4.402c-.199-.2-.5-.302-.801-.4m-.399-11.502c-.301.2-.5.3-.7.5m1.4-9.098c0 .3.199.5.4.698m10.4 30.2c.101-.398.101-.7 0-1 0-.2-.101-.398-.301-.7m5.201-5.5c.2-.1.399-.3.5-.5.2-.3.2-.6.3-1.1m-11.5 2c-.199.1-.5.3-.699.4m-6.801 4.9v.9m8-.298c.4.1.801.198 1.101.198m-5.401 15c-.399-.6-.899-.6-1.7 0m.3-5.5h-.601m2.001-4.6c-.2.3-.399.4-.5.7m1.1 7.3c.3.3.5.4.699.6m8.401-5.4c.198-.2.398-.3.5-.4.8-.8.6-1-.302-.5m3.202 6.602c.101-.102.399-.102.5-.302m-7.6-1.3h-.7m26.9-15.8c-.2.1-.4.3-.5.4m-6.5-3.4c.1.3.3.4.398.6m-3.898-1.3c.1.3.3.5.5.7m3.1 6.2c-.199.1-.399.3-.6.399m-5.6-1.499c0-.3 0-.5-.2-.8m3.998 10.8l.302.602m-5.302-1.902c.2-.1.302-.2.5-.398m-.198-3.102c-.2.2-.5.3-.602.5m15.902-1c-.2.2-.399.3-.5.5m-1.4 8c-.301.2-.399.3-.601.5m-1.499-2.6c-.3.1-.399.3-.7.399m-.7-.999c.3 0 .601 0 .899-.1m2.201-17.7c-.102-.2-.302-.398-.5-.6m-35.9-5.298c.199-.102.301-.2.601-.4m33.099 37.298c.2-.1.3-.2.601-.398m-.501-.602h-.899m6.399 1.5c-.2.102-.399.2-.601.3m-4.999 4.4c.2-.1.3-.2.601-.4m-9.801-2.198c-.301.3-.699.6-1 .898-.301.302-.6.802-.801 1.102m.001-7.402c.2-.1.3-.2.5-.4m4.8 2.302l-.301-.602m.801-5c.301 0 .601 0 .9-.1m.5.6c-.2.2-.5.3-.602.5m-3.098 22.8c-.2.2-.3.4-.5.7-.101.102-.2.3-.2.602m-4-11.5h.699m6.101 6.898c.3.102.601.102.899.2m-4.299-2.7l1-.7m3.4-4.8c-.399.2-.801.5-1.101.8m9.501.7c-.2-.2-.3-.398-.7-.398m-2.5 5.898c.199-.2.4-.3.5-.5m5.2 3c.2-.2.3-.2.5-.398M1686.5 1397c-.4-.698-.9-.6-1.602.2m6.102 3.602c-.2.198-.4.198-.5.398m-14.2-1.7c.5 0 .899 0 1.3-.1.5-.1.9-.2 1.301-.5m1.999-5.4h-1.301m-3.901 7.6c.2-.101.302-.2.5-.4m4.602-4c-.2.2-.399.3-.601.5m2.401 16.9v.7m.5-2.6c-.1-.2-.301-.398-.6-.398m-5.9 1.698c-.399-.3-.699-.5-1-.698m-1 3.298h.699m1.801-8.298c-.5.1-.801.3-1.199.5m4.699-1.5h.699m-5.999 0v-.7m12 1.998h.7m-.7-2.2c.2-.2.3-.2.601-.4l.5-.398m.699 10.2c.199-.102.4-.302.5-.4m1.7-2.802c-.2.2-.3.399-.3.7m-6.6 1.7c.101-.3 0-.5 0-.698m8.1 4v-.9c0-.2-.102-.399-.2-.6m-.3 1.798c-.2 0-.5.1-.602.1-.301.2-.5.3-.801.602m-1.997 3.298c-.1-.2-.301-.4-.6-.601m-3.4 6.601h.699m6.701-2.6h.6m-11.3-8c-.2 0-.7 0-1.3.2-.9 0-1.602.4-2 1.102m-3 18.298c.1 0 .5-.101 1-.3m4.6-5.998v1.3m-1.3 5.998h.7m4-2h.6m7.4 1.4h-.7m-.3-5.8c0 .2 0 .4.3.7m-8-7.598h.7m24.198-7.702c.101-.3.101-.601 0-.9m-.098 7.3c.199-.3.4-.5.5-.698m-1.3 4.698h-.7m-10-8.3c.199-.1.4-.2.601-.398m6.497.698a2.29 2.29 0 0 0-.698-.698m-2.4 4.698h-.6m-1.4 6.302h-.6m.1 9.198c.199-.1.4-.198.5-.398m5.4-5.702h-1.4m8.7 2.6h-1.3m0-4c-.2-.3-.5-.5-.7-.698m-26-14v-.7m-11-23.202c.101-.2 0-.5-.2-.7-.1-.198-.3-.3-.6-.398m-6.2 6.698h-.7m4.7 2h1.3m-1.3-4.698h.601m-12.001 3.398h.699m3.701-3.398c0 .198.101.398.3.698m0 14.7c-.199-.2-.5-.398-.699-.5m.699-.898h-.699m-6.601-6h.601m.699 11.398v-.7m10 0v-.698m2.7-6.302h-.7m1.8 6.5c0-.5-.301-.8-1.101-1.198M1668 1416.1h.6m-22-16.298h-.699m4.699-2h.699m-3.999-5.302v1.302m-5.7 5c.199 0 .5-.102 1-.302m-8.7-2.698c.5.198 1 .398 1.5.6m2.7 3.9c.4 0 .801-.2 1.199-.5m-5.999-1.302v-.698m4.898 11.898c.2-.1.302-.2.5-.398m5.402.698c.4 0 .801-.198 1.301-.5m3.199 1.7c-1 .8-.699 1.5.699 1.8m-3.299 11.7h.6m-2.5-4.2c.199 0 .4-.198.601-.398m-8.601 7.2c.199-.102.301-.302.5-.5m4.598 5.598c-.3-.2-.8-.3-1.198-.3m-5.4 4.5c.199-.2.301-.5.301-.601m7.399 4.001c-.2.102-.3.4-.399.602m2.099-8.002l-.302.6m7.702 2.9c.199-.2.199-.5.199-.601 0-.399-.101-.699-.199-1.101m-2.3-3.596c.199-.102.5-.102.801-.302m19.999-12h-.601m-4.899 6.2c0 .3 0 .5.199.7m1.801-5.9c.199-.3.399-.5.5-.8m-12.3.8v-1m.8 5.5h.601m1.899 14.302c-.101-.302-.301-.4-.601-.602m2.701-2.3h-.602m7.202 1.3v-.6m.7-2c.5.3 1 .399 1.399.6m.499-4.7c.302-.6.601-1.3.802-1.898m-22.7-9.602c.101-.8.101-1.8 0-2.698m-6 2v-2m24.1 26.298h-.801m1.801 5.4c-1.101 0-1.601.5-1.601 1.302m4.899 4.398c.2-.1.399-.2.601-.398m-10.999-8.902l.3-.6m-1.8 8.8v.7m6 11.3h-1.399m-8.601 1.3v-.6m0-7.3h.601m17.899.5c.101-.398 0-.6-.2-.8-.1-.2-.3-.3-.6-.3m-5.4-1.9c-.301 0-.6 0-.699.102-.301.2-.301.398-.4.6m.599 8.298c-.199.102-.301.302-.5.4m0-10.5c.301 0 .801-.3 1.301-.5m-13.801-5.8c-.199.1-.5.399-.899.7m-1.101-3.6c-.1-.3-.199-.6-.5-.8-.1-.2-.301-.3-.5-.4m3.5 4.6c-.6.3-1.199.7-1.6 1.399m-4.5-6.099h1m-2.4 3.1c.301 0 .699-.1 1-.3m-11.2 4.5c-.301.2-.5.3-.601.4m3.899-.4c-.101-.3-.3-.6-.399-.8m-1.601 10.8c.2-.1.399-.2.601-.398m11.601 5.098c-.101-.2-.301-.3-.7-.4m-1.8-8.198v1.3m.1 4.898c-.102.102-.4.2-.602.4m-1.398 10.8c.1.8.398 1.5.6 2.3m4.2-6.4c-.2.101-.399.2-.5.301m-8.7 2.099c-.5.102-1 .102-1.6.302m.5-6.402c.1.199.3.5.398.699m-3.798 16.501c-.1-.3-.199-.5-.399-.699m3.099-3.301c.101-.101.5-.5 1-1.101m5.8 8.701h1.301m1.699-6.8c.199-.101.301-.2.601-.4m-4.901 1.6c.101.2.3.399.5.5m24.1-4.7h-1.301m-1.299-8.598h1.3m-8.7 3.298h.699m-2.099-1c.198-.101.398-.199.6-.399m-3.5 7.799c-.1.4-.1.7-.199 1.102m.899 2.998c-.3.2-.5.301-.7.5m6.8-4c.3.5.899.7 1.899.5m43.801-38.1c.5 0 .9-.1 1.4-.198a7.348 7.348 0 0 0 1.3-.5m-4 9.698c.3.102.601.2 1 .2m3.7-2.6h.6m-6.3-2.5c.101-.101.3-.2.5-.4m-5-2.5v.9m-3.8 5.9c-.2-.3-.5-.398-.7-.5m0-.9h.7m4 4.702v-.7m3 5.098c-.2.2-.5.3-.602.5m.202-.898h.699m-6.899-.602c.101.2.199.3.399.5m5.801 6.8h-.6c-1 .2-1 .4 0 .602m-.4-7.502c.301.1.601 0 .9 0m8.8 2c.101-.101.3-.2.5-.4m.8-3.398c0 .698.4.898 1.4.698m-25.4-13.4h.699m-1.299 7c.198-.101.398-.2.5-.4.8-.7.6-1-.302-.6m-12.398-2.6v1.302m2.5 9.198c-.399-.5-.899-.5-1.7 0m3.598 6.1c.2-.101.399-.2.601-.4m11.101-7.2c-.101.102-.399.2-.5.4m-6.5 7.1c-.301-.6-.801-.6-1.5.102m-2.3-10.002c-.1 1.3.5 1.8 2 1.399m5.3 16.601l-.5.399c-.301.101-.399.199-.601.399m3.701-5.096c-.2.1-.4.3-.5.398m-10.6 2.4c.199-.199.5-.199.699-.399m2.501 8.899c-.1-.199-.301-.199-.6-.3m-5.4-3.9c-.5 0-.801.199-1.199.5m-.203-7.3c.2-.101.302-.2.5-.399m8.202 13.799c.101-.3 0-.6 0-.698m4.7 1.5c.199-.102.4-.2.5-.399m11.7-10.003c.3-.2.7-.5 1.101-.801m-4.801.203c-.301.3-.699.601-1 .898-.301.399-.6.7-.801 1.2m-21.999 12.7c-.899.101-1.399.301-1.7.7m83.598-86.8c.101-.3.101-.6.101-1m-5.399-3.3c-.2-.3-.399-.398-.7-.5m-2.6 3.5c-.1.3-.1.602-.1 1m-.9 4.9c-.1.1-.301.2-.5.399m-4-9.697c-.1-.2-.301-.4-.6-.4m-5.9 3.4c-.199-.602-.301-1.4-.5-2m4.9 15.198c-.4 0-.802 0-1.302.102m5.302 5.2c-.102-.2-.2-.4-.4-.602m4.098-.5h-.698m1.698-3.898l-.399.398c.801.5 1.201.9 1.102 1.4m-8.203-8.5c-.698.6-1.101.899-1.198 1.1m11.4-.5c.199.5.699.5 1.601.3m-28.401-7.3c.199.2.301.4.4.602.1.198.3.398.398.5m-6.398-2c.198-.102.398-.2.5-.4m3.698 7.298c.2-.1.302-.2.601-.398M1723 1414.7c.3-.1.398-.2.5-.5.1-.2.198-.5.3-.898m-5-4.602l-.5.5m13.8-.2c.199-.1.5-.398.9-1m-.5 4c.198.2.3.302.5.5m-7.4-7.8c.301-.2.4-.3.601-.5m4.699 6.5c.101.3.199.5.399.602m-7.799-1.802c.3.102.5.2.898.2m8.602-5c.698-.5 1-1.2 1-2.1m-1.302 17.6c-.198.102-.399.2-.601.3m-4.997-1.3c0-.2 0-.5-.1-.7m-1.2 5.7c.2-.1.3-.2.5-.398m4.2.898h.6m-12.402-3.5c.101-.398.101-.7 0-1-.101-.2-.198-.398-.3-.5m1.602 17.8h-.7m-.7-4c-.1.2-.301.4-.5.602-.1.3-.1.398-.1.7m7.698-2.402c-.3-.2-.698-.3-1.198-.3m6.5 4.202c-.4-.302-.7-.602-1.2-.802m9.1-18.198c-.301.198-.399.198-.601.398m1.601 6.3h.601m4.399-7c.199-.198.399-.5.601-.698M1714.6 1446.1h.699m7.701-2.6c0 .2.1.4.3.602m-5.9 3.798v-.9c-.101-.3-.2-.5-.399-.6m-.601-3.8h-.801m7.701-1.798c-.2.198-.3.398-.3.698m-9-21.198c.3.1.6.198 1 .198m-1 9.6h.6m-78.7-38.4c.199-.6.5-1.3.699-1.898m85.099 1.298c-.198.1-.3.2-.601.399m-24.697-.299c.101.102.199.3.399.5m17.501 1.602c-.3.1-.399.198-.7.398m.4-12.2c.3-.198.5-.3.6-.398m-153.3-14.902c-.2-.3-.399-.5-.7-.7m-5.7-3.3c.199-.1.5-.3.699-.398l.5-.5m15.001 10.598c-.399-.1-.699-.1-1.1-.2m-3.4 4.3c.301-.1.5-.3.699-.398m-1.101-6.702l1.2-.8m1.202 2.1h-1.301m-6.699-1.398h-.699m-7.001 0c0 .198.199.398.399.698m6.601 4h1.399m-4.699 1.7c-.1.102-.199.3-.199.602m-3.801 7h.699m.001 4.398c-.2-.3-.5-.398-.7-.5m6.3-1.7h-.601m2.501-4.9c.101-.4.101-.7 0-1 0-.3-.101-.5-.2-.7m-5.1 1.902c.1-.102.398-.302.6-.5m8.2 7.5h.601m-1.001-6.602c.5 0 1-.1 1.399-.2.4-.1.8-.3 1.3-.5m19.501-2.198c.199-.102.301-.302.5-.4m-9.3-5.202h-.7m-1 1c-.199.102-.301.3-.5.5m1.8 4.102v.898m3.4-.5c0 .2.101.4.3.602m0-3.302c-.199.2-.301.4-.301.7m-6.999 10.2h.601m-.601-5.598h-1.399m10.899 4.398c.3.2.7.3 1.101.3m3.399-2.198c.3.1.601.198 1 .198m4.2.7c.1-.398.1-.7 0-1-.102-.2-.102-.398-.302-.7m15.702 3.4c.199-.1.399-.2.5-.4m-4-3.3c-.2.2-.399.3-.601.5m-4.999-.3c-.2.1-.399.3-.601.4m4.701 6.4c0-.398-.101-.6-.301-.898M1631 1386.4c0 .3.1.5.3.7m-4 1.4c-.601 0-.399.302.5.9m-2.102-6.4c.2-.1.399-.198.601-.3m-11.399.602c-.301.198-.5.3-.601.398m7.701 2h.6m-9.3.7h-.7m-74.8-93.098c-.2 1.198.399 1.698 1.7 1.5m-.4 21.398c-.199.2-.5.3-.699.5m-3.703-2.898c-.198.1-.3.3-.5.398m4.5-4c.2-.1.399-.3.601-.398m-2.499-5.702c-.399-.601-.899-.601-1.7 0m-.8-10.6v1.302m2.3 5.398c-.1 1.102.5 1.602 1.801 1.5m-13.801-3.898h.699m-.699 5.298c-.301-.101-.6 0-.699.1-.301.102-.301.4-.4.602m4.697-2.5c.2-.102.399-.302.601-.5m-11.899 2.5c.399-.2.601-.4.8-.602m-1.4-2.5v.602m4.1-8.302c-1.101.102-1.601.602-1.601 1.302m2.101 18.398h1.399m-6.999 1.3v-.698m9 4h1.3m3.2-8.5c.3 0 .8-.2 1.101-.5m.899-1.802c.101-.3 0-.6-.2-.698-.1-.2-.3-.4-.6-.4m-.6 12.4c-.301.1-.399.3-.5.398m-3.3 7.8h1.301m-10.001-5.3h.699m-3.199 7.8c-.101-.198-.301-.3-.601-.398m-1.999-4.3c.101-.102.3-.2.5-.4m7.5 9.4c.101-.2.101-.602.101-.9m-1.501 6.298c.199-.1.399-.3.5-.398m-6.6 1.5c.101-.102.601-.4 1.2-1m10.198.598c.2.4.7.5 1.601.3m-3.699-15c.199-.1.4-.3.5-.398m10.5 18.198v-.698m5.3.698h.699m-.699-8.698c-.101.3-.301.398-.301.698m-1.999-12.6c-.5 0-.801.3-1.199.5m-2.101 10.8c-.899 0-1.399.2-1.7.602m-19.402 0c-.101.398-.101.698-.101 1m.003 18.598c.199-.2.301-.2.5-.4m-1.8 19.1c.101-.101.3-.2.5-.4m34.6-22.1c-.399-.7-1-.7-1.899 0m3.999 3.8c.198-.1.398-.2.6-.4m-13.7-3.8c-.399-.3-.7-.5-1-.7m7.7 4v-.698m-8 0h-.699m5.999 14.698v1.302m3.4-7.302h-.7m-4-4.698c-.199 0-.699.1-1.301.398-.898 0-1.5.302-2 1m2.601 6.602h-2m9.5 1.598c-.399.1-.801.3-1.101.6m7.601-4.8h-.601m-3.399-3.398c-.101-.2-.301-.4-.601-.602m4.501 9c-1.101 1-.899 1.5.601 1.4m-1.101-10.798c-.2 0-.399 0-.7.1-.199.2-.398.3-.699.601m-5.301 6.299h-.699m-.001-6c.199-.102.399-.2.601-.4m-.901-13.6h.699m-11.199 1.598c-.301-.1-.6 0-.699.2-.301.1-.4.3-.5.6m-2.301 3.5c.199-.5-.199-.898-1-1.2m-7.5 6.7c.301-.3.5-.5.699-.8m1.201-8.8c-.102.1-.4.2-.5.3m-4.6 4c.199.2.3.4.5.6m1.5 12c-.5 0-.399.302.5.9m-5.8 2.402c-1 .3-1 .398 0 .6.301.101.5.101.699.101m.001-6.803h-.7m13.9 6c.3-.6.6-1.3.8-1.898m-2-7.5h.601m-4.301 4.098c0 .3.199.5.301.7m5.599 9.3c-.4-.2-.9-.4-1.4-.6m4.2 7.502c.3 0 .8-.2 1.101-.5m-7.501-4.402v-.6m-1.3 6.002h-.699m-5.301-3.702h.699m-.399-4.798c.399-.2.601-.4.8-.602m-5.3 10.102c-.101-.2-.301-.4-.601-.4m5.701 9.9c-.2.1-.4.198-.602.398m-1.598-4.7c.101-.3.101-.6.101-.898m13.999.2c-.301.1-.399.3-.5.398m-3.8 5.602c-.1.1-.301.198-.5.398m-3.7-4.5h1m26.9-12c-.2-.2-.399-.3-.7-.3m-3.3 4.8h-.7m7.7-.3c0-.4 0-.6-.2-.8m-10.3-4.798h.601m-5.301 2h.699m-4.999-1c.101 0 .5-.102 1-.302m-1.4 19.302v-2m6 1.198c.101-.8.101-1.8 0-2.698m1.4-7.602c-1 .8-.8 1.5.601 1.8m7.399 6.7v-.7m-.7-6.198h-.699M1512.3 1344.2c-.399 0-.8 0-1.3.102m35.8 49.198v-2m-4.7 5.9c.301-.6.301-1.2.301-1.9m-1.301 6.802c-.801.398-1.399.8-1.699 1m-4.801-5.102c-.199-.2-.399-.5-.699-.7m5.199 18.5c-.301-.5-.899-.8-1.801-.8m9.101-2.5c.399 0 .899-.2 1.3-.5m1.6-8.7c0 .5.101.9.2 1.302.1.198.3.5.398.698m-6.498 2.7c-.899.3-1.601.9-2.301 1.602m-7.199-6.402c-.2.1-.5.4-.801.7m-5.799-9.9c-.8.102-1.2.8-1.3 2m1.1 6.3c-.199.102-.399.2-.5.302m-5.7-10.5c.199 0 .399 0 .5-.102m28.7 39.5c.101-.398 0-.6-.199-.7-.101-.3-.301-.5-.601-.5m-1.4-4.5c-.301.102-.5.2-.7.5m-.8-3.3c.199-.1.399-.2.601-.5m-3.401-5.2h.699m-12.699-7.5c.199-.5.301-1.1.301-1.698m100.099-4.5h-.4s-.199.1-.199.198c-.199.102-.4.2-.601.5m-4.5-9.198c.3-.2.601-.4.8-.602m-1.1 2.4h.6m-9.3.1c0 .4.101.8.2 1.3l.1.102c0 .2.199.398.301.6m3.999-7.4c-1 .198-1 .398 0 .6.3.101.5.101.699.101m-7.699 18.997c.199.2.3.4.5.602m5.7-3.3c.199-.102.4-.2.5-.302m-8-3.4h1m16.9 10.202c-.102.198-.4.198-.5.398m-.7-4.5h1m-25.9-8.7c-.101.2-.301.5-.301.7m2.801-9.2c-.399-.1-.801-.198-1.301-.198m-10.499-2h.699m5.301 7.398h-.699c-1 .102-1.801.5-2.101 1m1.5-5c-.2.2-.399.4-.5.602-.101.198-.2.398-.2.698m-6.8 13.7v1.3m4.8-3.698h-1.3m3.8.398h1.301m5.699 4c.301.2.801.3 1.199.3m-3.699-7.3c0 .2.199.4.301.602m-.801 9.698v-.698m-10-12c0 .5.101.898.301 1.198m13.999 14.302c-.2.398-.301.698-.301 1.198m-13.799-3c0 .7.399 1 1.3.7m4.5 5.602h.699m-6.499 2.098c.399-1 .601-2.2.5-3.4m-.8 17c.198-.1.398-.3.6-.398m-1.2-5.602c.199-.1.399-.3.601-.5m8.099 2.5a1.24 1.24 0 0 0-.5.5m-9.2-5.5c0 .2.199.5.399.7m11.601-.1c.3-.101.5-.3.699-.4m2.801 6.3c.101.102.199.4.399.602.101.2.3.398.4.6m.999-9.502c-.101.102-.399.5-.698 1m7.8 12.2h-.7m8.4-21.4l.6-.3m-6.5 6.3c-.5 0-1 .2-1.5.302m.9-2.602c-.102-.2-.302-.398-.4-.6m2 7.8c.101.8.301 1.5.5 2.2m8.9 6.6c.1-.3.1-.7.1-1.1m-1.6-6c-.102-.3-.4-.4-.7-.4m-10.9-15.2c-.2.102-.399.2-.601.4m-7.899-.8c-.101.1-.301.399-.5.899m5.5-10.499c.199-.198.399-.3.5-.5m-.3-8c-.301-.3-.699-.6-1.199-.8m-21.601-4.398c-.7.5-.899 1.198-.7 2m-1.8 4.098c-.101-.1-.2-.2-.3-.1-.102 0-.302.199-.5.5m-7.1-7.8h-.601m-1.399 8.7c-.101.2-.301.4-.301.602 0 .3.2.5.301.698m4.5-6.4c-.301-.2-.601-.3-1.101-.3m-3.999 10.7h-.7m1.5 10c.199-.198.301-.398.5-.698m.7-2c-.5.198-.899.5-1.2.898m3.2-7.5c.3.2.5.3.601.3.301 0 .5-.1.699-.3m8-2c-.199.4-.399.9-.5 1.3m-4.402 6.4c-.101-.1-.101-.2-.3-.1-.102 0-.301.199-.5.5m-17.498-12.6c0 .7.399 1 1.399 1m-8.199-7.7h-.699m-7.001 1.4v-.6m7 4.4h-.601c-1 .2-1 .4 0 .602m.899 10.098c.601-1.2.7-2.6.601-4.1m-5.399 1.7c.699-.398.899-1.198.5-2.3m16.2 9.7c0-.1-.199-.2-.199-.1-.199 0-.301.199-.5.5m-3.801-4.8c-.5 0-.801.102-1.199.2m5.199 18.5c.199-.1.301-.2.5-.398m-4.3-6c.2-.102.399-.302.601-.5.801-.802.699-1.102-.4-.602m-2.901 6.3c-.699-.5-1.5-.8-2.5-.8m3.3-9.398v.698m-9.3 6c-.5 0-.801.102-1.199.2m6.099 16.8c-.2.102-.4.2-.602.4m-3.998-11.3c-.399-.7-1-.7-1.899-.101m4.599 6.501c-.199.102-.399.302-.6.5m5.4-.3c-.5-.7-1-.6-1.801.3m25.201-13.6c-.101-.1-.2-.2-.3-.1-.102 0-.302.199-.5.5m-11.9-.4c-.1-.1-.199-.2-.301-.1-.199 0-.299.199-.5.5m6.301 14.9c.699-.5 1.101-1.2 1.101-2.2m-4.503-6.3c.101.3.2.5.399.602m7.003.698c-.301.102-.5.302-.699.5m-.801-1.3c.301.102.601 0 .9 0m-1.4-12c-1-.2-1.5.3-1.699 1.3m10.399-3.3c-.399.4-.7 1-1 1.8m-37.4-3.198c.101 1 .399 1.898.899 2.5M1582 1455.7c.398.102.698.2 1.1.2m5.8 5.902v.898m-1.8-5.1c.199-.101.301-.2.5-.4m-9-12.7c-.5.302-.801.602-1.199 1l-.9 1.2m2.899 5.4l-1.2.899m4.4-7.799c.5-.3.801-.6 1.301-.898m4.999-.802c.199-.1.399-.3.601-.5m-22.601 3.2c.199-.1.5-.2.699-.398l.5-.4m61.501-2.702c.301-.1.5-.2.699-.398m-4.799 8.098c-.4-.1-.9-.1-1.4 0m5.4-4.598c.3.5.898.698 1.8.398m-7.7.9c.199-.101.4-.2.699-.5m-8.399 5.1c.101.3.199.4.399.602m1.001-2.5c.2-.2.601-.602 1-1.2.8-.5 1.101-1.2 1.101-2.2m-1.501 15.798c-.2.2-.399.3-.601.5m13.801 1.9c-.1.1-.301.399-.699 1m-5.501-6.6c-.301.2-.5.4-.601.5m5.301-4c.199.302.301.5.5.7m-12.3-3.2c.101.302.3.5.399.7m-7.599-9.3c-.199.1-.301.3-.5.5m-2.5 5.5c.301 0 .601.1 1 .1m-1.902-7.9c.2-.101.399-.2.7-.4m-8.298 4.8c.199-.1.4-.3.699-.5m2.601 3l-.601.4m-3.799 12.8c-.4-.1-.7-.2-1.102-.2m-.498-6c-.301.2-.5.302-.601.5m6.399 6.4c.101-.4.101-.8 0-1-.101-.3-.101-.4-.3-.7m5.202-5.5c.301-.2.4-.3.5-.6.199-.2.301-.601.301-1m3.797 6.6c0-.3-.101-.6-.198-.8m-1.302 6.402c.2-.102.399-.2.601-.399m12.801 4.997c-.199.1-.5.199-.6.399m8 6.401c.198-.101.398-.3.6-.5m-12.7-2.3c.199-.2.5-.301.699-.5m-1.299-5.5c.2-.2.399-.301.601-.5m10.899 1c-.101 0-.2-.101-.3 0-.102 0-.302.199-.5.5m-4.9 5.6c.301-.1.5-.3.699-.398m1.101-8.702c.199-.101.5-.301.699-.4M1593.4 1444c-.2-.3-.5-.398-.801-.398m.301 6.098c-.301.2-.5.3-.801.5m-21.599-9.2c.198-.1.398-.3.6-.5m42-48.6c0-.2 0-.5-.199-.7m-43.001.102c0 .698.5.898 1.399.698m62.301 94.1c-.199-.3-.301-.5-.5-.699m139.5-193.201c-.199.2-.301.4-.301.602m-89.899 14v1.4"/></svg>