<svg xmlns="http://www.w3.org/2000/svg" id="beard" viewBox="0 0 3000 3000"><path id="cl1" fill="#3B3A3A" d="M1479.7 1337.9c2.7-9.2-4.1-16.1-6.1-24.1-.6-2.4-3.2-2-5.1-1.6-2.8.6-2.6 2.9-1.9 4.7 2.6 7.2 2.5 14.7 2.8 22.2.1 1.7.2 3.3-2.3 4.4-5.3-6.7-1.2-14.9-2.9-22.2-1.7-7.4-6.8-14.6-4.2-23 6.3 1.3 2.3 7.3 5.4 10.9-.4-9.1 3.6-17.2 2.2-25.8-.1-.3-.2-.8 0-1 7.4-7.9 3.4-17.5 4-26.4.1-.9.3-1.9 1.5-2.1 1.6.1 2.4 1.1 2.4 2.5.3 8.3 1.4 16.6.2 24.9-.2 1.6.2 3.3-.9 4.8-5.5 7.3-3 13.9 1.2 20.7 2.3 3.8 4.7 7.9 4.4 12.8-.4 5.1 4.5 8.6 4.1 14-.3 4-2.1 4.2-5 4l.2.3zm-65.2-2.4c1.5-.6.8-3.5 3-3.3 2.7.3 2.4 2.7 2.5 4.6.1 3 .5 5.7 3.7 6.1 4.6-10.2-6-17.2-4.3-27.1 1.6-9.5-8.3-16.7-7.5-27.6 1.2 1.6 1.7 2 1.9 2.6.4 1.2.5 2.8 2.2 2.7 1.8 0 1.8-1.6 1.7-2.8-.3-2.9 1-6.1-1.1-8.7-3.2-4.1-3.8-8.9-4.6-13.8-.5-3-2-5.9-3.4-9.9-3.6 4.5-2.2 8.1-1.5 11.9 1.2 6.1 5.6 12.2.6 18.8-1.1 1.4-.8 5.2.4 6.7 4.1 5 3.8 11.2 5.4 16.7 1.1 3.9 6.2 10.1-2.7 12.6-1.3.4-1.2 2.5-.5 3.5 1.6 2.3.1 5.4 2.3 7.4.7-.1 1.3-.2 1.9-.4zm193.5 10.3c-.2 3.9-.6 7.9-.6 11.8 0 1.8-.7 4.6 1.7 5 3 .5 5.6-1.9 5-4.6-1.1-4.9 3-7 4.6-10.3 1.3-2.8 4.1-5.7 6.4-.3 8.4.3 3.9 6.4 4.6 10.2l-.2-.2c1.7.5 3.7.7 3.9-1.4.3-3.6 1.1-7 2.1-10.4.8-2.7.7-6.5-.7-8.6-1.3-2-3.9-2.9.2-3.9 5-1.1 2.4-4.8 2.4-7.2-.1-3.8-3.4-1.8-5.4-2-1.2-.1-2.6-.4-3.5 1.2-.4 3.1 3.2 7.4-1.8 9.4-3.7 1.5-2.1-4.6-5.5-4.3-2.7 5.3-7.5 9.2-7.7 16.3-.1 3.5-3 1.9-4.1-.8-.5.1-1 .1-1.4.1zm.2-19.1c-.1-1.4-.6-2.6-2.1-2.8-1.7-.2-3.9 0-3.8 2.1.2 5.2-3.3 6.3-6.9 5.9-4.8-.6-5.8 1.6-5.3 5.5 1.1 7.2.8 14.2-.6 21.4-.5 2.8-.2 5.8 1.1 8.7 1.2 2.6 2 5.9-.4 8.3-3.7 3.7-.4 6 .9 8.8.9-6 7.1-10.8 3.4-17.6-.3-.5.7-1.8 1.3-2.5 3.9-4.9 2.5-9.9-.1-14.6-1.2-2.2-1.8-4.1-.9-7.1 4.7 3.9 6.8-1.1 9.5-3.2 2.4 1.8.9 5.1 3.6 6.2h1.4c2.7-6.5-.7-12.7-1.1-19.1zm91.9-212.1c-.9-1.4-.3-2.9-.6-4.4-.3-1.3-.8-2.5-2.2-3-.6.1-1.1.3-1.6.6-.7.7-1.2 1.5-1.7 2.4-1.4 2.5 1.7 8.5-5.3 6.9-.1 0-.5 1.8-.8 2.7-4.3-.8-8.3-1.8-7.4-7.8.3-1.8-.7-3.9-1.4-5.7-.5-1.2-1.9-1.6-3.4-1.3-1.4.4-2.4 1.3-2 2.8.4 1.9 1.6 3.7 1.8 5.6.2 2.1-.9 4.3-3.3 3.4-5.1-2-4.6 1-4.5 4.2.1 1.9.2 3.6-1.9 5.1-3.7 2.5-1.6 6.5-1.7 9.9-.1 1.4 1.5 2 2.9 2s2.5-.5 3.1-1.9c1-2.6-.7-5.6.8-8.2 2 .7 3.5 1.3 5 1.8.3-.3.6-.5.9-.8.6-.7.4-1.8 1.4-2.2-.1 1 .3 1.9.8 2.7.7.7 1.5.8 2.4.3 1.5-2.8 3.9-3.4 4.2.1.6 5.8 3.6 2.7 6 2.3 3.9-2.9 5.7-8 10.1-10.4v-6c-.5-.4-.9-.9-1.6-1.1zm8 2.9c.6-1.6-.8-4.3 2.6-4.2 1.9 0 3.1.5 3.2 2.7.1 1.3 1.1 2.7.8 3.8-2.4 8.9 2.7 17.4 1.2 26.3-.2 1.5-.3 3.5 2.4 3.4 2.4-2.2.1-5.9 2.5-8.1 1-1 2-1.8 3.4-1.1.9.4 1.4 1 1.6 2.2.4 2.8-1.4 6.5 2.6 8.4 2.9-7.2 2.4-13.5-2.8-19l.2.2c-6.2-1.8-8.2-5.5-4.2-9.7 2.4-2.6 2.6-6.1 1.5-6.7-4.7-2.7-5.1-6.7-5.4-11.3-.1-1.3-1.8-2.1-3.1-1.3-.5.3-.4 1.8-.6 2.7l.2-.2c-9.6 2-11.1 4.8-7 12.7.3-.3.6-.6.9-.8zm-208.2 151.8c-.2 1-1.5 1.8-1.5 1.3-.1-4.2-7.6-1.5-6.3-7.1.5-1.9.8-4.7-3.2-5.5-1.3 4.6-1.6 8.9.6 13.3.6 1.1.9 2.8-.5 3.6-1.3.7-3 .9-4.5.2-1.4-.7-.8-4.5-3.9-2.6-1.4 5.7-1.4 10.6 5.1 13.5 2.7 1.2 3.3 4.3 4 7.4 1 4.3.2 9.7 5.1 13.5 2-7.9-.9-14.4-2.4-20.9-.2-.9-3.1-1.7-.5-2.5 1.6-.5 2.5-4.2 4.7-1.8 2.8 3.2 3.6 2.1 3.7-1.3.1-2.1.7-3.5 2.2-5.2 2.9-3.3 2.8-7-.5-10.3-2.4 1.1-1.8 2.9-2.1 4.4zm306 2.5c-2 5.4-3.2 10.7-.4 16.2.6 1.2.9 3.1-.7 4.3-1.3-3-3.4 1.8-5.5-.8-2.3-2.9-5.3-4.6-2.2-8.8 2.1-2.9 2.2-7.1.4-9.4-3.1-4.1-2.4-8.7-3.8-12.8-1.2-3.4.1-7.7-4.2-11.5.8 8.9-2.1 16.7 3.7 23.8 1.4 1.8 3.3 5.8-.1 8.9-2 1.7-1.3 4.5-1 6.6.8 4.7 4.5 8.2 5.1 13.3.2 1.6 3.8 4 6.8 0 6-8.1 10-16 3.8-25.8-.6-.9-.2-2.5-.2-3.8-.5-1.1-1.1-1.1-1.7-.2zm-26 10.1c-.1 2.1 1.1 5.3-2 5.8-3.4.5-1.3-3.9-3.3-5-.5-.3-1.2-.2-2.7-.3 0 3.7.4 7.3-.1 10.8-.7 5.1 3.4 5 6 6 4.1 1.5 1-4.4 4-4.4 1.3.2 1.2 1.4 1.4 2.3.2 1.3.3 2.6 2.6 2.5.9-10.5 2.4-20.9-1.3-31.5-4.2 4-4.2 4.1-4.6 13.8zm-20.7 16.4c.8 3.2-2 4.4-3.9 6.3-2.1 2.1-5.4-.1-7.3 2.6.4 2 1 4.3 1.1 6.5.2 5.4 5.6 4.1 6.5 3.1 4.4-4.6 9.3-9.4 11.5-15.1 1.8-4.8 1.4-11.1-2.2-17.2-2.8 4.4-7.1 7.8-5.7 13.8zm-332.2-7.5c.4 7.7-2.2 15.8 1.6 23.2 1.4 2.7-.3 9.2 5.3 7.3 2.9-1 1.2-7.2-.2-9.5-4.5-7.4-2-13.9.1-21.2 2.1-7.3-1.7-14-4.3-20.8-2.3 7-2.8 14.2-2.5 21zm14.5 18.6c-1.6-2.9-2.4-4.2 1-7 2.7-2.2 5.6-6.1 5.2-10.8-.2-2.4-.6-4.6-2.8-6-1.7 2.6-5.4.9-7.2 5-5.1 11.2.7 20.2 3.4 31 3.1-6.4 3.4-6.6.4-12.2zm153.5-170c.7 2.5.6 5.9-3.6 4.6-4.7-1.4-3.7 1.7-4.2 4.2-1.1 5.5 4.1 5.1 6.6 6.3 2.1 1.1 2.4-2.2 2.5-4.2.1-1 .3-1.9.4-3 2.9 3 1 8.3 5.6 11.3 4.9-12-6.7-19.8-6.1-30.1-3 3.5-2.2 7.1-1.2 10.9zm-13.3 182.4c-2.2 4.4-3 8.3.1 12.1 2.1 2.7.3 6.9-.5 7.1-5.3 1.5-3.9 5.3-3.9 8.8.1 5.3 5.3 3.7 7.9 5.7 3.5-21.7 3.5-21.7-3.6-33.7zm-241.9-95.7c-1-3.4-3.1-7.1-.5-10.3 6.1-7.3 8.3-10.5 8.2-14.8 0-1.8.8-4.5-1.5-5.2-3.2-.9-2.4 2.1-2.8 3.7-.4 1.7-1.4 2-2.8 1.3-4.2-2.1-5.2 0-5.2 3.8s.5 7.6-1.3 11.4c-1.2 2.7.5 5.8 1.6 8.5.7 1.9 3 .6 4.4 1.2l-.1.4zm216 130c-2.8 4.2-1.3 9.1-.2 9.8 4.6 2.8 3.8 8.9 7.7 12.1 1.7-3.1 1.1-5.8 1-8.4-.1-3.4-4.5-2.8-5.5-5-1.8-4 5.9-2.5 4.4-6.1-2-4.8 1.4-9.1.6-13.7-.4-2.5.8-5.5-3.2-6.9-3.3 6.1-1.6 13.4-4.8 18.2zm-273.9-132c-4.3-.3-5.1-2.9-3.3-6 4.3-7.7 4.5-8.8 1-18.4-2.4 3.3-1.3 6.6-1.6 9.7-.2 1.9.9 4.6-.8 5.7-6.8 4.2-3.7 9.2-1.7 14.2 1 2.4 1.2 5.2 2.9 7.3 5.9-1.3 5.9-1.3 7.2-4.7-1.6-2.5-1.1-5.9-3.7-7.8zm112.4 91.6c.7-3.1-3-5.7-1.4-8.4.4-.6 3.6.8 3.7-3.1.2-6.6-2.9-10.6-8.2-15-1.7 12.7.2 23.6 4.6 35.6 2.8-3.9.7-6.6 1.3-9.1zm-68-65.3c.3-.2.7-.4.7-.6 1.5-5.1 1.5-5.1 7.1-6.1 1.7-.3 2.1-1.4 2.1-2.7-.4-5.1-.2-10.4-3.6-15-10.9 13.7-11.7 16.9-6.3 24.4zm370.9-102.5c2.9-8.9 5.5-17.2 4.5-26.1-5.6.2-7.9 2.6-10.1 10.4 3.7 4.4.8 11.2 5.6 15.7zm-465.3 32c1.4 0 3.8-1.2 2.8 1.9-1.1 3.5-1.6 7-1.3 10.6.1 1.3.8 2.6 2.5 2.3 1-.2 1.4-1 1.7-2.1.7-3.2-.8-6.7 1.1-9.8 1.9 1.1.6 4.5 3.3 4.5 3-.1 2.1-2.8 2.2-4.5.6-6.3-3-11.1-10.1-13.5-3 3-3.1 6.7-2.2 10.6zm66.3 8.8c1.2-2.8 4.7-4.5 6.6-7.1 1.7-2.4 1.1-5.3-1.5-7-2.5-1.7-4.3-.1-5.7 2.1-3.6 5.8-5.5 12.3-7.7 18.6-.8 2.3-.9 5.5 4.5 6.7-1.9-5.5 1.9-9.1 3.8-13.3zm217.6 138.6c-.8 1 .1 3.2.3 4.9.3 2.5 2 3.2 4.3 3 1.9-.1 3-1.2 3.1-3.2.6-9.6-.7-18.8-4.7-27.8-3 7.5 2.6 15.8-3 23.1zm-201.7-63.4c-5.3-1.3-.9 5.4-5.4 5.5-1.2-2.6-2.1-5.6-2.5-8.8-.1-1.3-.7-2.7-2.5-2.2-1.6.4-1.5 1.8-1.5 3.2-.1 7.2 7.5 12 6 19.7-.1.3 1.5 1.2 2.3 1.5 1.2.4 1.6-.6 2.1-1.5 3.1-5.6 4.4-11.3 1.3-17.4h.2zm251.5-110.4c.7-2.5 1.7-5.5-.4-7.4-1.6-1.5-4.6-1.3-6.4-.2-2.6 1.7-1.6 4.8-.8 7.2.5 1.5 2.3 2.8.3 4.1-5.2 3.5-2.5 7.7-2.1 12 8.6-2.5 7.7-9.9 9.4-15.7zm-252.3 58.2c-.5 6.4 3.2 11.8 3.8 17.8.2 1.9-.5 4.5 2.6 4 2.7-.4 2.5-3.4 1.9-4.8-4-8.3-.7-17-1.9-25.5 0-.3-.4-.5-1-1.5-5.4 5.4-5 5.5-5.4 10zm16.7-17.3c-1.2 2.2-.5 4.5-.7 6.8-.1 1.5.3 2.9-1.2 4.4-5.7 5.7-5.7 7.7-.7 16.5 8.7-5.2 1.6-15 6.2-21.4.8-1.2 1.5-6.1-2.9-7-.2.3-.5.4-.7.7zm486.2 9.5c-1 4.4-4.3 8.9-2.1 12.4 3.5 5.6 1 10.7 1.1 16 .1 3-1.1 6.4 1.7 9.9 3.7-13.1 7.5-25.5-.7-38.3zm-590-18.9c1.8-4.6-3.2-7.8-2.6-12.1.5-4-3.1-7.4-1.9-11.5 1.2-4.4-1.1-7.6-3.7-12.8-1.9 6.4-2.5 10.3-.9 15.1 2.7 8.1 4.3 16.6 6.5 24.9.6 2 1.7 1.1 2.5-.2.7-1.1.8-2.2.1-3.4zm221.5 136.5c3.2 2.9 3 6.1 1.2 8.7-2.7 3.9-.6 7.6-.7 11.4 0 .4 1.5 1 2.4 1.3.3.1 1.1-.7 1.3-1.2 3.8-11.5 1.3-22.1-5.7-34.3-1.1 6.4-2.1 10.9 1.5 14.1zm-243.2-153.1c-3.9-3.7-2.6-7.3-1.7-10.8 1-4.1 1-7.4-2.3-10.6-3.9 8.6-3.2 19.3 3.1 33.4-1-4.3 4.5-8.6.9-12zm532.9 145c-.6-3-3.8-1.8-5.7-2.8-1.4-.7-1.8.6-2.1 1.3-.6 1.7-.1 2.9 1.7 4 4.3 2.8 3.5 7 .8 9.7-3.7 3.6-2.1 7.1-1.5 10.7.2 1.2 2.8 1.9 2.8.4-.2-5.3 8.1-7.4 5-12.6-.3-4.1-.3-7.5-1-10.7zm-341.2-100c.1-1.2-.3-2.9-1.8-3-2.3-.2-2.6 1.8-2.4 3.3.9 8.7 1.7 17.3-.7 25.9-.2.9 0 2 .3 2.9.2.5.8 1 1.3 1.1 1.1.3 2.4-.6 2.3-1.3-.8-5.4 2.9-10 2.5-16.4.8-3.5-1.8-7.8-1.5-12.5zm41.6 54c-1.6-3.3-5.9-13.7-7.9-15.8-2.9 13.3 9 21.3 10.5 32.9 4.2-6.8.1-11.7-2.6-17.1zm84.1-102.3c-.1-.4-1.3-1-1.5-.8-2 1.6-6.1.5-6.6 3.4-.6 3.2-2.3 7.9 2.6 9.4 2.7.9 4.8 2.8 7.4 3.6 4.9-6.2-.7-10.6-1.9-15.6zm125.5-37.6c0 1.2 0 2.8 1.9 2.7 1.5-.1 2.5-1.1 2.4-2.5-.5-7.4 4.3-14.7-.3-22.1-.7-1.2.1-3.5-2.4-3.2-1.9.2-2.8 1.8-2.3 3.6 1.1 4.5 1.3 9.1 1.1 13.7-.1 2.5-.4 5.1-.4 7.8zM1313.9 1244c-1-.3-2.5-.1-2.5.7 0 6.5-1 13.2 2.7 19.2l-.2-.1c3.3-3.7 4.3 3.1 7.7 1.3.3-3.5 1.6-8.4-1.5-10.4-4.5-2.8-4.7-7.1-6.4-10.9l.2.2zm411.8-112.2c5.7.9 3.8-3.7 4.9-6.4 4-10.1 4.1-10-4.7-17v23.6l-.2-.2zm-239.8 175.8c.6-6.6-5.9-11-5.4-17.6 0-.5-.6-1.2-1.1-1.5-1.2-.6-3.1-1-3.2.6-.3 4-2.4 9.2 1.7 11.7 3.6 2.2 4 4.6 4 7.9 0 2.4.4 4.8 3.9 3.1 1.3-1.4 1.2-2.8.1-4.2zm23.6-117.7c.3-1.4-.3-3.4-1.3-3.2-4.6 1-4.2-2.9-5.7-5.1-.5-.7-1.5-1.4-2.4-1.5-1.5-.1-2 1.1-2.3 2.5-1.6 7.7 2.7 11.9 9.5 15.5 1-3.2 1.6-5.7 2.2-8.2zm178-79.2c-1-.9-1.3-1.7-.4-2.6 1.6-1.6 4.1-3.7 1.2-5.5-2.8-1.7-2.8 2.8-4.9 3.7-1.8.7-1.5 2.8-.3 4.2 2.4 2.8 2.2 6.9 5.1 9.4.6-.7 1.4-2.2 1.8-2.1 6.4 1.2 6.5-2.5 5.8-7.1-.1-.9.1-1.9.1-2.9-3.9-1.9-5.2 3.4-8.4 2.9zm-210 132.7c-.1 1.5.9 2.5 2.5 2.2.9-.2 1.7-1 1.6-2.2-1.2-7.8.8-15.2 2.1-22.8.3-1.7.7-4-2.9-5.2-5.4 9-2.7 18.7-3.3 28zm70.8 120.3c.3-4.3-1.8-9.9 1-12.5 4.9-4.5 2.8-8.3 1.9-13.1-6.1 2-7.7 5.6-7.6 11.1.1 5.1 1.5 9.8 2.5 14.6.8.6 1.5.6 2.2-.1zm-316.5-161.5c-.1-2.5.6-5.3-3.9-4.8-6.5.7-6.6.8-5.1 12.1 9.3 0 9.3 0 9-7.3zm521.9-46.1c2.1-.1 1.8 2.2 2.2 3.8.2.8.7 2.1 2 1.4.8-.4 1.5-1.1 1.9-1.9 2.6-5.1-3.1-6.8-4.2-10.5-1.5-5.1-5.3-1.4-7.9-2.5-1.3 5.5-1.6 10 6 9.7zm23.8 112.5c1-4.3 1.1-8.6-.5-14.9-6 9.2-7.8 16.9-5.8 26-2-6.3 5.3-6.8 6.3-11.1zm-117.9-138.1c.5-.5.1-1.9.1-2.9-.1-1.3-.5-2.7-1.9-3.1-2-.6-3.6 1-3.8 2.2-1 6.9-3.6 13.7.3 20.9 1.2-5.9.9-12.2 5.3-17.1zm44.5 15c1.1 4.6 5.3 4.8 9 6.4 1.6-6.1-1.5-10.9-1.2-18.1-4.8 4.6-9.1 6.5-7.8 11.7zm-182.8 1.3c-1.5.7-3 1.4-4.4 2.3-2.1 1.3-3.3 3.1-2.9 5.8.6 4.1 4.9.8 7 3.7 1.5 2 2.6-2.4 3.3-4.3.6-1.5.9-3.1 1.3-4.4.1-3.6-1.3-4.6-4.3-3.1zm244.1 175.8c-.6-1-1.9-2-3.2-1-2.6 2-5.5 13.7-4.1 16.5 1.1 2.2 3.4 2.7 5.6 3.2.5.1 1.3-.4 1.6-.9.6-.8.7-1.9-.4-2.4-4.6-2-4.2-3.6-.1-6 1.2-.7 1-3.6 1.5-5.6-.2-1.3-.2-2.7-.9-3.8zm-425.4-96.8c0 3.3-.8 6.9 1.2 9.7 3.3 4.6 4.1 9.9 5.2 15.2.1.3 1 .5 2.3 1 1.2-4.5 2.8-9.6-.6-12.8-3.1-3-4-5.8-3.8-9.5.2-3.4-2-3.7-4.5-3.4 0 .1.2-.2.2-.2zm104.2 10.6c-6.3 5.6-8.7 10.9-4.8 19.2 5-5.9 8.1-11.1 4.8-19.2zm159.1 122.5c-.3-.8-1.4-1.6-2.4-1-.7.4-1.4 1.4-1.5 2.1-.9 7.1 2.5 12.7 7.1 20 2.3-9-1-15-3.2-21.1zm-231.1-117.7c4.5-7.8-1-13.5-3.4-20.1-4.6 6.9-4.1 9.6 3.4 20.1zm139.5 85c.4-5.9 1.1-11.8-6.6-14-2.3 11.5-2.1 11.8 6.6 14zm61.9-168.4c1.3.1 2.9.7 3.7-.5 4.4-6.9 3.5-16.9-2-23.6-1.9 1.4-2 4-1.3 5.4 2.2 4.8 1.3 9.3-.3 14-.5 1.5.1 3.3.1 4.9l-.2-.2zm212.6 38.5c-1.3-.4-3.2-.9-3.4.5-.8 4.6-3.1 8.5-4.5 12.8-1 3-1.2 6.9 2.3 12.3 1.5-10.2 5.9-17.3 5.5-25.8l.1.2zm-242.2-24.6c-.3 2-.2 4.6 2.4 4.6 2 0 2.7-2.5 3.2-4.5 1.7-5.8-1.8-10.6-3.6-16-4.3 5-1.3 10.6-2 15.9zm-51.9 166.5c.5-2.1-.2-4.6-.7-6.8-.1-.6-1.4-1.3-2.3-1.4-1-.1-1.7 1-1.5 1.9.6 4-.1 7.5-1.9 11.3-1.3 2.8-.8 6.8 3.2 9.6-.1-5.3 2.1-9.8 3.2-14.6zm60.5 48.4c2.1-.8 2-1.6 2.1-2.6.9-7.7-4.2-13.6-6.4-20.3-.7.1-1.5.1-2.2.2-2.4 9 5.2 14.8 6.5 22.7zm23.4-26.8c.5-4.6-1.1-9-2.5-13.4-.1-.4-1-.7-1.6-.8-1.2-.3-2 .6-2.2 1.4-.9 5.4-2.3 10.8.9 16.8 2.8-.5 5.1-1.5 5.4-4zm-344.2-175c-.1-1.6.1-3.3.1-4.9 2-3.3 1.9-7 2.3-10.7-2.1-3.3-3.8-2.2-4 .8-.5 5.3-2.6 10-4 15 0 1.1-.1 2.2-.1 3.3 3 .6 6.1 1.5 5.7-3.5zm535.4 139.3c.2 4.7 3.8 4.5 6 4.5 3.4.1 2.5-3.4 2-5.3-1-3.9-2.7-7.7-4.4-12.2-2.9 4.4-3.7 8.3-3.6 13zm-514.7-96.6c2.7-7.1 1.4-12.2-5.4-17.4-2 7.7-1.5 13.2 5.4 17.4zm3.7-27.5c0-3.7.1-7.3-.1-11 0-.9-.6-1.8-1.9-1.7-1.2.1-2 .9-2 1.8-.1 6.6-.1 13.3.1 19.9 0 .8.7 1.8 2 1.8s1.8-1 1.8-1.8c.1-3 0-6 .1-9zm276.4 129.4c-6.9 5.4-6.9 8.5.8 21.9 1.3-8.7.9-15.2-.8-21.9zm-166.4-49.9c.2-.4 0-.7-.4-1.1-3.3-5.1-1.9-11.4-4.2-16.8-.6-1.4-1.4-2.3-2.8-1.8-.6.2-1.3 1.4-1.4 2.2-.5 5.7 1.9 10.9 3.1 16.3.6 2.5 3.4 1.3 5.1 1.8.3 0 .4-.2.6-.6zm419.3-31.3c-.3-2.6-1.3-4.7-4.2-4.2-3.2.6-3.4 2.5-3 5.8.6 5.2 5.8 7.4 6.5 12.3 2-4.8 1.2-9.4.7-13.9zm-362.7 14.6c1.4-7.7 1.5-15.3-1.8-22.8-1.5 7.7-2.6 15.5 1.8 22.8zm-60.3-11.3c.1.2 1.5.4 1.8.1.6-.6 1.2-1.6 1.3-2.4.4-6.6-5.1-10.1-8.1-16.2-6.6 9.5 3 12.7 5 18.5zm215.1 128.3c3.3-5.1 9.8-8.2 4.9-16.3-9 6.6-9 6.6-4.9 16.3zm-39.4-51.2c.2 2.4 2.2 3 4.2 3.3 1.4.2 2.9-.4 3-1.8.2-2.9.7-6.2-.4-8.7-1-2.2-4.2-2.6-7.3-1.4.2 2.8.2 5.7.5 8.6zm203.9.7c.1 1.4 1.2 2.5 2.6 2.6 2 .2 2.7-1.2 3-3.1.7-5.4-1.7-10.1-4.1-15-2.2 5.2-1.8 10.4-1.5 15.5zm-66.4-199.3l.1-.2c-.1 1.6.3 3.4-1.8 4.1-4.4 1.6-1.7 5-1.8 7.5-.1 1.2 1.9 1.6 2 1.1 1.2-3.8 5.5-2.4 7.1-4.3 1.9-2.2 1.4-5.6-.1-8.4-.8-.1-1.6-.3-2.4-.4-1.1-.7-2.2-.7-3.1.6zm-66.2 20.7c-.6 2.3.2 4.7 4 4.8-.1-7.7 6-15.2-1.2-23.2-.2 6.3-1.2 12.3-2.8 18.4zm-125.4 41.6c-2.2-.1-2 2.1-2.2 3.7-.1 1.3.3 3-1.2 3.5-5.7 1.9-2.7 6.5-3.3 9.9-.2 1 .4 2 1.4 2.2 1.5.3 2.4-.4 2.7-2 .4-2.1-.9-5 2-6.1 3.5-1.3 2.6-4.1 2.8-6.6-.3-1.8.7-4.5-2.2-4.6zm187.9 122.9c.2 1.6.2 3.5 2.4 3.6 1.7.1 3.3-.9 3.5-2.6.5-5.3 1.1-10.7-1.6-15.9-2.6 4.8-5 9.5-4.3 14.9zm-118.6-162c1.3-6.3-1.9-12.3-1.4-18.6.1-.7-1-1.7-2.2-1.2-.9.4-1.7.9-1.8 2.1-.6 6.8.6 13.3 2.5 19.4 2.1.2 2.7-.8 2.9-1.7zm-118.8 181.3c.3.2.4.7.5 1.1.7 1.8-.6 5.8 3.2 4.3 2.1-.8 1.6-4 .9-6.3-.9-3-2.2-5.4-5.5-6.6-.9-.3-.4-3.5-2.8-3.1-2.3.4-1.3 2.6-1.6 3.9.1 3.3.3 3.5 5.3 6.7zm-80.6-117.7c-.2-1.5-1.2-2.3-2.6-2.5-.5-.1-1.4.5-1.5.9-.7 6.1-3.6 12.3.1 19.7 4.2-6.2 4.9-12 4-18.1zm180.5-48.1c.3-.5.1-1-.4-1.6.1-8.2 3.4-16.3 1.5-26.7-4.8 9.9-4.1 18.8-5.3 27.2-.3 2.2 1.8 2.3 3.5 1.7.2.1.4-.1.7-.6zm-86.9 103.3c2.1 3.2 1.9 6.8 2.4 10.4.5 3.3.9 6.8 5.2 8.7 1.1-7.7.9-14.3-5.3-19.2-.8-.7-1.6-.7-2.3.1zm-49.1-18.2c.3 7-6 13.1-1 21.6 6.3-14.5 6.3-16.4 1-21.6zm4.6 28.2c-1.2-2.8-3.5-2.6-5.6-.9-1.8 1.5-.7 11.3 1.5 12.4 1.4.8 3.4.8 4.2-1 .6-1.4.4-3.2.6-5-.2-1.7 0-3.8-.7-5.5zm155.3 33.9c-1.8 5.3-2.8 10.7-2.4 16.2.1 2 .6 3.9 4.2 3-.9-6.4 4.6-12.9-.8-19.4l-1 .2zm247-60.2c-3 .5-4.4 1.8-5.5 4.7-2.2 6.4 4.4 7.4 6 11.4h1.6c2-5.7-.8-10.8-2.1-16.1zm-479 20c-3.3.3-4.9 2.3-5 6-.1 3.7 0 6.6 4.7 6.4 1.9-.1 4.2 0 3.5-3.1.4-5-1-9.6-3.2-9.3zM1491 1221c-1.8 7.1-1.4 12.7 2.5 17.8 2.8-6 3.2-11.7-2.5-17.8zm14.1 112.3c-6.4 5-4 10.7-2.5 17.2 7-5.3 5-10.9 2.5-17.2zm-133-74.9c0 2.2.9 4.4 1.8 6.5.7 1.7 3.2.6 3.2.1-.8-5.9 3.2-12.7-3.8-18.8-.5 4.8-1.2 8.5-1.2 12.2zm148.5 42.5c.1.4 1.8 1 2.5.7.7-.3 1.1-1.5 1.2-2.4.6-6.2-3.6-9.9-7.1-14.3-4.6 7 2.6 10.7 3.4 16zm-22.4-47c0-4.2.9-8.6-2.9-11.8-.9-.8-2.2-.3-2.4.4-1.8 4.8-1.6 9.5 1.8 13.7.3.4 1.1.5 2.5 1 .5-1.5 1-2.4 1-3.3zm-195.7-37.4c.2 1 1.6 1.4 2.4 1 .7-.4 1.1-1.5 1.3-2.3.9-5.9-1.6-10.8-4.6-16.8-4.6 7.3-.4 12.6.9 18.1zm404.7-98.3c-5.4 6.8-4.8 11.2 2.3 15.3-.8-5.5 3.3-11-1.4-16-.3.3-.6.5-.9.7zm-15.3 256c2.9-7.4-2.3-11.4-7.3-17.1-1 9.2-1 9.2 7.3 17.1zm-187.8-210.5c-3.6-.5-2.4 3-2.7 5.1-.7 4.2 1.8 6.5 5.3 6.9 3.6.4 2.6-2.9 3-6.5.5-2.8-2.2-5-5.6-5.5zm-115.6 100.5c-.4-.2-1.6.1-1.7.5-1.4 3.8-1.5 7.7.4 11.4.7 1.4 1.4 3.3 3.5 2.8 2-.5 1.6-2.5 1.6-4-1.1-3.8.4-8.3-3.8-10.7zm355-121.2c5-13.9 5-13.9-2.1-22.6 4.7 6.7-1.3 14.4 2.1 22.6zm-169.7 15c-2.6-2-1.1-4.9-1.6-7.3-.2-1.3-.5-2.6-2.2-2.6-1.6 0-2.1 1.1-2.4 2.6-.6 3.7 1.4 6.9 2.2 10.3.5 2.1-1.5 6.2 3.4 5 4.5-1.2 1-4.2 1-6.4 0-.6-.4-1.2-.6-1.8l.2.2zm-75.9 156.3c-5.2 9.9-5.2 9.9-2.5 17.1 6-8.6 6.3-10.5 2.5-17.1zm-139.8-99.2c-.1 1.6-.1 3.5 2.2 3.5 1.7-.1 3.2-1.1 3.6-2.8.7-3.5.8-7.1-.4-11.4-7.7 1-5.2 6.6-5.4 10.7zm-144.2-73.8c.1-.4-1-1.7-1.8-2-1.6-.6-2.5.5-2.7 1.9-.5 4.3-1.9 8.2-3.2 12.3-.8 2.5-1.4 5.7 1.7 9.1 3.4-7.1 3.6-14.6 6-21.3zm189.2 179c1.5 1.2 2.8 2 3.9 0 1.8-3.3-1-6.3-1.1-9.5-.1-2.1-2.5-3.7-5.5-3-.5 4.4-1.6 8.9 2.7 12.5zm243.2 3c-.5-.7-1.4-1.6-2.1-1.6-.8 0-2 .8-2.2 1.5-1 3.2-1 6.5-.2 9.6.6 2.4 3.1 3 5.7 3.5.9-4.4 1.7-8.8-1.2-13zm54.8 32.9c4.7-7.8-4.3-13-4.1-19.9-3.3 6.4-1.2 14.6 4.1 19.9zm-413.9-138.4c-2.5 1.6-2.1 5.5-5.3 6.4.6 2.9-1.3 6.9 3.6 7.7 5.2-5 5.3-6.2 1.7-14.1zm484.8-66.2c-.8-1.6 0-4.5-3-3.6-2.3.6-1.8 3.2-1.6 5.1.4 4.5 5.9 6.1 6.2 10.9 4.5-5.5.2-8.6-1.6-12.4zm-268.3 67.9c0-2.5-.8-5.1-3.3-5.2-3.6-.1-2.2 3.2-2.4 5.2-.2 2.2-.6 4.6.9 6.6.5.7 1.4 1.5 2.3 1.6 1.5.2 2.3-.8 2.4-2.3.1-1 .1-2 .1-2.1v-3.8zm257.6-60.8c0 3.1 1.3 6.6-2 9.2-1.8 1.4-1 3 1 3.5 1.9.5 3.7-.7 3.5-2.4-.8-6.9 3-13.4 1.9-21.8-3.7 3.8-4.4 7.4-4.4 11.5zm-470.4 83.5c-.5-.3-1.6-.3-1.9 0-2.1 3-1.2 6.3-.8 9.5.2 2 1.7 3.9 4.1 3.3 2.1-.5 1.7-2.4 1.5-4-.5-3.1 1-6.9-2.9-8.8zm226.9 99.2c0-.9-1.4-1.6-2.3-1.1-.7.4-1.5 1.6-1.4 2.2 1 5.3.3 11 4 16 2.4-5.7-.1-11.4-.3-17.1zm90-228.4c1.3 3.1 2 6.1 1.9 9.5 0 1.3.6 2.6 2.2 2.7 2.4.1 2.9-1.9 2.6-3.3-1-4.6-2.4-9-3.6-13.5-3.3.6-3.8 2.8-3.1 4.6zm-400.1 75.7c.5 2.1 1.3 5 4 4.8 3.3-.2 2.2-3.3 2.3-5.4.1-3.8-.6-7.2-5.8-7.8-1.2 3.2-1.1 5.9-.5 8.4zm579.7 116.6c-.2-1.6-.8-3.7-2.7-3.4-1.6.2-3.2 2.5-2.7 3.7 1.9 4.7.6 9.8 2.5 14.7 2.3-4.7 3.6-9.7 2.9-15zm-409.9 2.7c-1.3-3.2-.1-9.9-3.1-9.2-5.3 1.1-.9 6.4-1 9.9-.1 2.1-.7 4.8 3 6.3 1.8-2.4 1.9-5.1 1.1-7zm189.4-178.2c-4.2-.2-4.5 3-4.9 5.9-.3 2.3 1 3.8 3.5 3.6 3.3-.2 4.4-2.3 4.2-5.3.1-2.1-.2-4-2.8-4.2zm-87.2 208.1c-1.2.2-2.8-.2-3.3 1.4-1.4 5-1.4 10 2 15.6 4.4-6.2 1.6-11.7 1-17.1 0-.1.3.1.3.1zm167.7 18.1c3.5-3.2 2.1-7.1 1.6-10.9-.2-1.1-1.6-1.5-2.3-1.2-4 2-3.4 5.9-3.3 9.4 0 1.3.3 2.5.5 4.8 1.9-1.1 2.8-1.5 3.5-2.1zm-350.1-117.7c.5-6.2 2.3-12.4-1.5-18.3-1.9 6.3-3.2 12.6 1.5 18.3zm342.5-106.3c1-5.7.4-11.2-1.5-16.7-.3-.9-.8-1.8-2-1.8-1.7 0-2.5 1.4-2.2 2.6 1.6 5.3.9 11.5 5.8 15.6l-.1.3zm87.8 225.4c0 .7.8 1.7 1.5 2 1 .5 2.2-.5 2.2-1.3-.4-5.4 2.6-11.5-3.1-16.8-1.5 5.8-.9 11-.6 16.1zm-238.9-189.3c-5.6 6.3-2.8 11.8-.3 17.4 2.6-5.5 1.9-11 .3-17.4zm194.1 179.9c3.8.4 2.6-2.9 2.7-4.9.2-2.9.6-6.5-3.4-6.9-3.6-.4-2.4 2.9-2.8 4.8.1 3-.5 6.5 3.5 7zm-170.4-168.2c-1.4 7.8-1.4 7.8 2 13.3 4.8-9.1 4.7-9.5-2-13.3zm174.5 127.8c-6.3 4.1-6.3 4.1-3.3 13.7 1.4-4.5 7.1-7.9 3.3-13.7zm-46.9-175.8c0 4.9-.8 10 3.7 14.4 3-9.1 2.2-11.7-3.8-14.2-.1 0 .1-.2.1-.2zm21.4 189c0-1.7-1-3.3-3-3.1-2 .2-2.6 1.8-2.3 3.6.6 3.5 1.3 6.9 2.3 12.2 4.5-5 3.1-9 3-12.7zm-134.6-22.4c.2 5.8 6.3 9.8 5 16.1-.2.9 1.3 1.4 2.3 1.1.9-.3 1.5-1.1 1.5-2.2.1-6.4-5-11.1-5.9-17.1 0-.3-1-.5-1.5-.7-2.1.3-1.5 1.4-1.4 2.8zm104.6-170.9c.2-.8-.6-1.8-1.8-1.9-1.8-.2-1.9 1.1-2.3 2.4-1.3 4.1 3.3 6.9 2.3 11-.4 1.8.8 3.4 2.7 3.2 2.2-.2 1.7-2.3 2-4.2 1.1-3.7-4.3-6.1-2.9-10.5zm-178.9 112c.3-7.1-1-13.6-6.5-19.3-1.3 8.1-.2 14.7 6.7 19.3h-.2zm37.7 81.5c2.5-2.8 1.3-5.8 1.5-8.6.4-4.2-2.7-4.6-5.8-4.9 0 1.4 0 2.9-.1 4.3 3.2 2.1.4 7.2 4.4 9.2zm92.7-202c-4.2 3.8-9.7 5.8-5.9 13.1 1.9-4.1 9.6-5.3 5.9-13.1zm225.4 100.7c2.1 4.5 4.3 8.6 1.5 14-1.5 2.8-1.4 6.8 1.2 10.8 2-5 1.7-9.7 2.8-14 .8-3.2 1.4-9-4.5-10.6-.3-.1-.6-.1-1-.2zm-426.1 33.4c.2.9.7 1.8 2 1.8 1.2 0 1.8-1 1.7-1.8-.7-4.2 1.2-9.1-3.1-14-2.4 5.6-1.3 9.8-.6 14zm66.2 6.2c-.5-.8-1-1.8-2.3-1.4-.9.3-2.1.8-1.5 2 2 3.8-1 8.8 3 12.1.8-.1 1.6-.1 2.3-.2.4-4.3 1.2-8.6-1.5-12.5zm178.8-150.2c-2.2-.1-3.8.7-3.8 3.2 0 3 1 5.1 4.5 5 1.7-.1 3.2-.5 3.5-2.7-.8-2.2-.6-5.3-4.2-5.5zm-43.6 21.8c-.8 3-3.1 6.3 1.4 8.4 1.4.7 2.5.7 3.4-.7 2.6-4 1-6.8-2.7-8.9-.3-.2-.6-.2-.9-.4-.4.6-1.1 1-1.2 1.6zm244.4 82c0-1.4-.6-2.6-2.2-2.7-1.7-.1-2.1 1.3-2.2 2.5-.3 3.5-.8 7 .5 10.5 8.4-1.1 3.9-6.5 3.9-10.3zm-88.7-74.6c-2.9-7.2 3.4-12.8-2.8-18.1-3 12.8-3 12.8 2.8 18.1zm91.4 74.2c1.7-5.6 7.2-11.2-.4-17.4-1.9 6.5.1 11.9.4 17.4zm-613.3-64.6c3.4-4.3 4.9-8.5 3.1-15.1-5.6 7.9-5.6 7.9-3.1 15.1zm280.8 51.4c-.1-1.5-.1-3.5-2.5-3.1-1.5.2-1.7 1.7-1.8 3-.1 1.3-.3 2.6 0 3.9.5 2.2-1.6 6.3 2.1 6.3 3.8 0 1.4-4 2.1-6 .2-1.5.2-2.8.1-4.1zm-238.4-25.3c.1 3.6.1 7.1.3 10.7 0 1 .6 1.8 1.7 2 .5.1 1.4-.2 1.6-.6 2-3 1.2-6.2.8-9.4-.3-2.6-2.7-2.3-4.5-2.5l.1-.2zm21.4 76.2c-.2-.3-1.4-.4-1.8-.1-3.5 2.8.9 6-.2 8.9-.1.3 0 .6.1 1 .3 1.2.6 2.7 2.2 2.8 2.4.1 2-2 2.3-3.4.1-3.4-.7-6.5-2.6-9.2zm421.9-143.9c0-1.9-.3-5.1-3.6-4.8-2.7.3-2 2.9-2.2 4.7v1c.1 1.4.2 2.8.4 4.2 1.3 1.2.6 3.4 2.3 4.4h1.6c.5-3.2 1.5-6.3 1.5-9.5zm-312.8 151.1c0 .8 1 1.8 2.1 1.5.5-.1 1.4-.6 1.4-1 .3-4.3 1.6-8.9-3.1-12.2-2.8 4.1-.5 8-.4 11.7zm361.8 79.4c-.4-1-1.3-1.5-2.4-1-.5.2-1.3 1-1.2 1.3 1.7 4-.7 9.2 4 13.6 2.1-5.4 1.3-9.7-.4-13.9zm-481.5-126.9c.1.4 1 .8 1.5 1 1.3.4 1.8-.8 1.9-1.6.4-3.6 1.1-7.2-1.4-12.1-3.8 4.6-2.8 8.7-2 12.7zm445 106.6c-3.2-2-6.5.1-9.3 1.6 1.6 5.2 6.1 3.1 9 4.6 1.3-2.1 2-5.2.3-6.2zm-50.6 23.3c-4.9 4.5-3.6 9.4-3.2 15.2 7.1-4.8 4.4-9.8 3.2-15.2zm49.4 6.2c1.9-5.6 1.8-9.9-.6-14.2-2.4 4.4-3.4 8.8.6 14.2zm-185.2 7.9c-.1-.6-1.3-1.4-2.1-1.6-1.2-.3-1.6.9-1.6 1.8.1 4-.7 8.2 3.7 13.2 1.2-5.8.6-9.6 0-13.4zm-21.3 17c.2 1.1 1.7 1.4 2.4 1 .7-.4 1.3-1.7 1.2-2.4-.9-4.7-.9-9.7-5-13.9-2.7 5.7.6 10.4 1.4 15.3zm-166.4-85.3c.3.9.8 1.7 2.1 1.5 1.1-.1 2.1-.9 1.9-1.8-1.2-3.7.6-8.4-4.5-12-2.2 5.1-.6 8.7.5 12.3zm-73.2-61.6c-.4-2.6 1.3-5.9-2.1-7.7-.4-.2-1.4.2-1.6.7-1.6 2.7-1.4 5.6 0 8.3.7 1.3.6 3.3 3.3 3.7 1.5-1.9.6-3.5.4-5zm393.8-102.7c3.2.2 4-2.6 4.2-5.4.2-2.7-.8-4.5-3.6-4.8-3.5-.3-3.3 2.3-3.4 4.7.3 2.2-.1 5.3 2.8 5.5zm-209.4 118.2c-3.7 4.4-3.9 8.9 0 13.4 2.1-4.5 2.5-8.9-.1-13.4h.1zm-119 10.6c-.1 4.8-1.9 9.3 3.1 12.8 1.3-9.1 1.3-9.1-3.1-12.8zm-5.4 6.4c-.1 6-2.2 10.7 3.1 14.8 1.3-5.3 1.9-9.7-3.1-14.8zm132.1 32.5c0 .6 1.3 1.4 2.2 1.5 1.1.3 1.5-.9 1.6-1.8.3-3.8.5-7.6-3.9-12.5 0 5.8-.1 9.3.1 12.8zm-5.3 24.1c1.3-6.9 1.3-6.9-2.2-12.9-.2 4.2-3.5 9.2 2.2 12.9zm170.4-177.8c-1.9 5.5-3.2 9.8-.8 15 4.4-6.6 4.4-6.6.8-15zm-87.7 41.7c3.1-2.2 1.9-5.4 1.8-8-.2-4.6-3.1-2.7-5.4-1.8-.1.7-.2 1.5-.3 2.2 3 1.5-.6 6.6 3.9 7.6zm-272.3 36.4c1.1-4.9 1.6-8.9-1.2-12.8-2.3 4.2-4.5 8.5 1.2 12.8zm28.4 2c.1.4.9 1 1.4 1.1.5.1 1.5-.3 1.6-.6.7-4.1 3.3-8.7-2.3-12.1-1.9 4.1-1.3 7.9-.7 11.6zm187.2 51.3c.2.2 1.5-.1 1.6-.4 1.6-4.1 1.9-8.1-1.3-11.7-.2-.2-.6-.2-2.3-.5 1 4.4-2 8.7 2 12.6zm-167.4-22.8c1.6-.4 3.7-.7 3.4-2.7-.5-2.9-.7-5.7-.7-8.7 0-.7-.9-2-1.5-2.1-1.3-.2-2.5.6-2.8 2.1-.7 4 1.7 7.6 1.7 11.5.1 0-.1-.1-.1-.1zm90.5-4.4c-3.7 0-1.9 4.1-2.3 6.4-.2.9-.1 2 .2 2.9.3.8 1 1.8 1.7 2.1 1.7.5 2.2-.8 2.5-2.1.2-1 .2-2 .3-3.5-1.3-1.6 1.7-5.9-2.4-5.8zm4-23.7c0-.9-.5-2-1.6-1.9-.8.1-2.2.7-2.3 1.2-.3 3.3-1.4 6.9 1.8 10.6 3.3-3.5 2.1-6.8 2.1-9.9zm62.9 20.7c-2.8.1-1.4 3.8-1.7 5.9-.2 1.3-.1 2.7.2 3.9.2.9 1 1.7 2.2 1.3.6-.2 1.3-.6 1.4-1.1.3-1.3.4-2.6.5-3.8-.8-2.3 1.5-6.4-2.6-6.2zm-10.2 19c.1.2 1.6 0 1.7-.3 1.6-3.7 1.8-7.4-.2-11-.1-.2-.6-.2-2.2-.7-1.1 4.2-2 8.2.7 12zm-151.3-67c-.2 1.3.2 2.7 1.7 3 2.1.4 2.9-1.4 2.9-2.9 0-2.9 1.3-6.5-2.7-8.4-2.4 2.6-1.5 5.6-1.9 8.3zm44.7 11.9c-.1-1.7.8-4.5-2-4.7-2.9-.2-2.4 2.6-2.4 4.3.1 2.4-1.1 5.3 2.7 7.3 2.2-2.3 1.8-4.7 1.7-6.9zm88.7 132c-3.1.4-1 4.4-1.1 6.8 0 1 0 2 .3 2.9.3.9.9 1.6 2.1 1.6 1.2-.1 1.6-.9 1.7-1.8.1-.9-.1-1.9-.2-2.8-.8-2.5 2-7.3-2.8-6.7zm127-.7c-.2-.2-1.5 0-1.7.3-1.5 3.4-1.6 6.9.2 10.3.1.2.6.2 2.2.6 1-4.1 2.1-7.7-.7-11.2zm-296.5-141.3c3-5.3 2.9-8.9-.1-14.7-2.5 6-2.8 9.7.1 14.7zm9.3-14.2c-.1-.2-1.5.1-1.7.4-1.4 3.7-2.3 7.4.7 10.7.2.2.6.1 1.6.2 1.2-3.8 2.1-7.6-.6-11.3zm442.2 163.5c2.5-4 .8-7.7-.1-11.6-4.2 4.9-4.2 6.3.1 11.6zm-436.7-141.9c0-.7.1-1.3 0-2-.2-1.5.4-3.7-1.7-3.8-2.8-.1-2.4 2.4-2.5 4.3-.1 1.6 0 3.3.1 4.9.1 1.4.7 2.5 2.3 2.4 1.7-.1 1.7-1.6 1.8-2.9v-2.9zm123.1 35c.3 1.7-.8 4.5 1.9 4.7 2.9.2 2.2-2.6 2.3-4.4.1-1.6 0-3.3-.1-4.9-.1-1.5-1-2.4-2.5-2.4-1.1 0-1.4 1.1-1.5 2-.1 1-.1 2-.1 2.4-.1 1.3-.1 2 0 2.6zm-147.2 12.9c-.1-1.1-.9-1.6-1.9-1.8-1.2-.2-2 .6-2.1 1.4-.5 4.1-.1 8 5 10.8-.4-4.1-.7-7.3-1-10.4zm227.9 105.1c-1.2 4.5-1.9 8.4 2.5 11.3.7-3.9 2.9-8.2-2.5-11.3zm-107.5-70.9c-.5-1.1-.7-2.7-2.5-2.4-2.6.5-1.4 2.3-1.1 3.7.6 2.8-.4 6 3 9.4 2.4-4.2 2-7.5.6-10.7zm-180.5-137.6c.2.8.9 1 1.6.7 4.4-1.9 1.2-5.9 2.4-8.7.2-.4-.4-1.1-1.5-3.6-3.2 4.2-3.6 7.7-2.5 11.6zm335.4 199.6c-3.9.2-1.1 4.2-1.6 6.4-.3 1.2.3 2.6.7 3.8.2.4 1 .8 1.5.9.5 0 1.3-.5 1.4-.9.3-1.2.3-2.6.4-3.6-1.1-2.5 1.8-6.8-2.4-6.6zm-277.9-125.1c-.2-.8-.7-.9-1.4-1-.8-.1-1.4 0-1.5.8-.6 3.9-2.1 8 2.3 11.7 2.1-4.2 1.5-7.8.6-11.5zm-45.5-32c-1.3 4-.9 7.7-.2 13.2 5.1-6.9 5-9.1.2-13.2zm85.3 52.8c0 1-.1 2 0 2.9.2 1.2.1 2.8 1.8 2.9 2.4.2 2.3-1.7 2.4-3.3 0-2.3 0-4.6-.3-6.8-.1-.6-1.4-1.3-2.2-1.5-1.2-.2-1.5 1-1.6 1.9-.1 1.3 0 2.6-.1 3.9.1 0 0 0 0 0zm242.3 126.1c-.1-.8-.9-1.6-2.1-1.7-1.3 0-2 .9-1.9 1.7.5 3.3-.7 7.2 3.2 11.1 1.5-4.6 1.2-7.8.8-11.1zm127.1 10.1c.2.3 1.6.1 1.8-.2 1.7-3.7 1.6-7.4 0-11.1-.1-.2-.5-.2-2.3-1-.4 4.6-2.3 8.5.5 12.3zm-36.7-5.6c-.2-.2-1.6 0-1.7.3-1.3 3.5-1.1 6.9.7 10.2.1.2.6.2 2.3.6.7-4 1.4-7.7-1.3-11.1zm-218-112.8c-.1-.9-.5-1.7-1.8-1.8-1.2-.1-2.1.8-2.1 1.5.2 3.2-2.5 7 2.9 10.1 1.7-3.5 1.3-6.7 1-9.8zm-94-63.3c0-1.8.7-4.4-2.2-4.6-3-.1-2.4 2.6-2.4 4.3.1 2.4-1.2 5.4 3.1 7.1 2.1-2.1 1.5-4.5 1.5-6.8zm62 31.8c-.1-.9-.5-2-1.9-1.7-1 .2-1.8.7-1.9 1.8-.5 3.7.2 7 3.3 10.8 1.1-4.3.7-7.6.5-10.9zm401.7-4.1c-2.2-.1-2.1 2.1-1.9 3.6.2 2.3-1.4 5.3 1.9 6.8 1.2.5 1.9-.4 2.1-1.3.3-1.2.3-2.6.4-4.3-.9-1.3 1-4.5-2.5-4.8zm-116.2-117.7c-2.8 0-4.3 1.3-4.1 4.1.1 1.6.1 3.5 2.3 3.5 2.7 0 4-1.8 4.3-4.3-.1-1.7-.2-3.3-2.5-3.3zm-400.5 143.5c.2.2 1.5-.1 1.6-.5 1.8-3.8 1.3-7.4-1.3-10.7-.2-.2-.6-.2-2.1-.5 1 4.1-1.6 8.1 1.8 11.7zm100.1 44.3c1.9-3.9 1.2-7.4-.1-10.8-.6-1.6-2.1-1-3.4-.8 0 .6 0 1.1-.1 1.7.9 3.3-.9 7.5 3.6 9.9zm-18.9-8.2c-.8 4.3-.5 8.2 3.3 12.9.8-9.8.8-9.8-3.3-12.9zm7.7 1.1c.1 4.8-1.2 8.9 3.2 12.5.4-4.1 2.9-8.8-3.2-12.5zm431.1-114.8c-3.8 4.5-4.9 8.5-2.7 13.4 4.8-3.6 4.3-7.9 2.7-13.4zm-16.1 9.1c.9-4.2 1.4-7.6-1.2-10.9-2.3 3.8-3.6 7.4 1.2 10.9zm-576.9-40.4c2.2-5.1 2.2-5.1 1.3-10.4-4.1 5.2-4.1 5.2-1.3 10.4zm344.5 16.8c4.3-4.2 4-7.7.1-12.3-1.9 4.5-1.9 8-.1 12.3zm-331.8 21.4c.1.4 1.3.9 1.6.7 3.8-2.2 1.3-5.9 1.8-8.9.1-.9-.2-1.9-1.8-2.4-3.5 3-2.5 6.8-1.6 10.6zm573.5-6.1c1.8-4.8 2.5-8.2-2.9-13.1.1 5.6-1.1 9.2 2.9 13.1zm-536.8-14c-2.1 4.1-2.5 7.6-1.5 13 4.5-5.9 4.5-5.9 1.5-13zm328.1 162.7c-.2-.7-1.4-1.2-2.2-1.5-.3-.1-1.4.4-1.4.7-.3 3.6-2.3 7.7 2.9 10.1 2.1-3.1 1.4-6.3.7-9.3zm142.6 38.9c-.2-2.8 1.1-5.9-1.6-8.1-.3-.2-1.4 0-1.7.4-2.2 2.9-1.7 6.1-.4 9.1.3.7 1.4 1.2 2.9 2.3.5-1.9.9-2.8.8-3.7zm41.6-222.8c-2.7.6-1.7 3.1-1.8 4.9-.1 1.7.3 3.6 2.5 3.1 2.1-.5 3.1-2.3 3.1-4.5-.5-2-1.4-4-3.8-3.5zm-232 235.8c-.2-.2-1.5.1-1.6.4-1.4 3.5-1.4 6.8 1.6 9.7.2.2.6.2 1.6.4.1-3.8 1.7-7.4-1.6-10.5zm297.1-162.6c3.7-3.6 4-7.9 2.2-13.5-4 7-4 7-2.2 13.5zm-312.2-52.6c-.4-.4-1.4-.7-1.7-.4-2.9 2.2-1.4 5.2-1.4 8 0 .6.5 1.2 1.3 2.6 3-6.1 3.4-8.5 1.8-10.2zm144.8 213.6c0 .8.5 1.9 1.8 1.8 1.1-.1 1.9-.7 2-1.6.6-3.6.1-6.9-2.9-9.8-1.8 3.2-.9 6.5-.9 9.6zm-424.8-217.6c-.2-.3-1.5-.5-1.7-.3-2.6 3.1-1.9 6.6-.9 10 .1.2.4.3 1.2.8 1.9-3.3 3.7-6.6 1.4-10.5zm-36.4-30.9c.1.3 1.3.6 1.7.4 3.2-2 2.6-5.5 3.1-8.6 0-.2-.4-.5-1.7-1.8-2.5 3.5-4.3 6.2-3.1 10zm223.1 92.4c-1.7-.3-2 1.4-1.6 2.7.6 2.3-1.3 5.8 2.6 6.5 1.6.3 1.6-1.6 1.9-2.9-1.3-2 1.1-5.7-2.9-6.3zm261.1 140.1c-3.5-.2-2.5 3-2.6 5 0 1.8-.6 4.6 1.9 4.7 3.6.2 2.2-3 2.5-5.1-.2-1.6.7-4.5-1.8-4.6zm-55.3-226.8c-.2-.8-.9-1.1-1.6-.7-3.1 1.7-1.6 4.5-1.6 6.9 0 .6.6 1.1 1.4 2.4 3.3-2.5 2.7-5.6 1.8-8.6zm18.5 252.6c.3.2 1.4 0 1.6-.4 1.6-3.1 1.3-6.2-.5-9.1-.1-.2-.6-.1-2.3-.3-.2 3.5-2.1 6.8 1.2 9.8zm-176.4-148c.5.3 1.6.3 1.8.1 2.1-3 1.9-6-.2-8.8-.1-.2-.6-.2-1.8-.4-1.3 6.9-1.3 8.2.2 9.1zm-205.7-55.4c.2-1.3.9-2.7.6-3.8-.8-2.8 3.3-5.5 0-8.1-.4-.3-1.6-.2-1.7.1-1.6 2.9-2.1 6-1.6 9.2.1.9 1.9 1.6 2.9 2.5 0-.1-.2.1-.2.1zm15.8-6.6c2.2.1 2.4-1.8 2.3-3.4-.2-2.2 2.4-5.9-1.4-6.2-3.7-.3-1.6 4.1-2.8 6 0 1.6-.3 3.5 1.9 3.6zm-93.6-52c0 .3.9 1.1 1.3 1 4.2-.9 2.7-4.7 3.5-7.2.1-.4-.6-1-1.2-1.8-3.6 1.6-3.6 4.8-3.6 8zm323.7 183.7c0 1.4.7 2.5 2.3 2.3 1.5-.3 1.9-1.6 1.7-2.9-.3-3.1-.7-6.2-4.1-8.6.1 3 0 6.1.1 9.2zm310.2-41.2c-2.6 5-2.5 8.1 1.4 11.9.7-4.2 1.4-7.4-1.4-11.9zm-461.5-64.3c1.4-.3 1.6-1.9 1.4-3.2-.7-4-3.6-2.6-7.4-2.4 2.1 2.4 1.9 6.5 6 5.6zm163.6 178.6c0 .8 1.2 1.5 2.3 1.1.9-.3 1.8-.9 1.6-2.1-.7-3.1-1.5-6.1-2.9-11.2-2.8 5.5-1.1 8.9-1 12.2zm-331.1-248.8c.1.1.7.2.9.1 3.6-2.5 2.6-6.3 2.2-9.8-2.1 3-5.3 5.7-3.1 9.7zm612.9 125c.1.1.7 0 .8-.1 2-3.4-.5-6.6-.7-9.9 0-.1-.6-.3-2.4-1 .1 4.3-.7 8 2.3 11zm-12.3-13.9c.4 3.6-1 7.5 3.9 12.6-.6-5.8-1-9.3-1.4-12.8-.8 0-1.6.1-2.5.2zm-551.1-32.3c.2 4-2.4 8.3 2 11.9-1.2-3.9 1.4-8.2-2-11.9zm472.5 147.5c-.2-.2-1.5.1-1.7.5-1.7 3.3.9 6.2.9 9.3 0 .1.6.3 2.7 1.2-1.3-4.4 1.3-7.9-1.9-11zm-344.6-161.3c-2.5-.3-2 1.9-2.1 3.3-.1 1.5-.3 3.5 1.9 3.7 2.4.2 2.1-1.8 2.4-3.3-.1-1.6-.2-3.4-2.2-3.7zm239.3-53.1c-.1 1.2.6 2 1.5 2.2 1.4.3 2.6-.4 2.6-2 0-2.1 1.1-4.5-2-6.1-2.2 1.5-1.9 3.8-2.1 5.9zm120 228c.1-3.5 1.6-7.1-1.5-10.3-.5 3.5-1.1 7.1 1.5 10.3zm-436.3-199.1c-1.3.2-1.4 2-1.3 3.4.1 1.3.2 2.9 1.9 3 2.3.2 2.3-1.8 2.6-3.2-.2-2.1-1.4-3.5-3.2-3.2zm490.6 141.3c-.1 3.2-1 6.4.8 9.4.1.2 1.4.2 1.7-.2 3.1-3-1.1-5.9-.3-9 .1-.3-.7-.9-1.4-1.7-.5.9-.8 1.2-.8 1.5zm-216.2 8.1c1.1-1.8 1-3.8-.3-5.5-.3-.4-1.2-.7-1.6-.5-2.4 1.1-1.5 3.2-1.5 5.1 0 1 .2 2 .3 2.9l1-.1c.7-.6 1.7-1.1 2.1-1.9zm228.4-1.6c0 1.8-.7 4.1 1.9 4.8 1.8.4 2.3-1.3 2.3-2.4 0-1.8.3-3.9-1.9-4.9-2-.1-2.3 1.3-2.3 2.5zm-160.3 45.4c-7.5 3.4-.9 7.7-.6 11.6 1-3.9 1.9-7.8.4-11.8 0 .1.2.2.2.2zm-27.9-239.9c-.1-1.7-1.6-2.6-2.7-1.8-1.8 1.3-1.4 3.6-1 5.5.2.9.8 1.9 2.2 1.5 2.3-1.2 1.6-3.4 1.5-5.2zm-218.6 98.9c-.4-3.5-.9-7.1-1.5-11.9-4.7 4.8-1.7 8.4-1.3 12 .9 0 1.8 0 2.8-.1zm370.3-88.2c.5-.7-.3-1.9-1.4-2.2-1-.2-1.9.3-2.2 1.4-.6 2.9-1.2 5.8.6 8.7 3.3-1.9 1.2-5.6 3-7.9zm67.9 103.5c.6 4-1 7.2 1.9 11.5.9-4.5 4.3-7.8-1.9-11.5zm-279.5 76.5c.1 1.2.3 2.9 2.2 2.6 1.6-.2 2-1.6 1.9-2.9-.1-1.7-.4-3.3-2.5-3.7-2.2.6-1.7 2.5-1.6 4zm-185.9-9c-.4-1.6-.6-3.8-2.7-3.4-3 .6-1.3 3.1-1 4.8.2 1.4 1.6 1.9 2.9 2.2 1-1 1.2-2.2.8-3.6zm465.8-50.2c0-1.2 0-2.8-1.8-2.9-2.4 0-2.1 2-2.1 3.5 0 1.7.9 3.1 2.7 3.6 1.8-1.1 1.2-2.8 1.2-4.2zm-154 61.7c.1-1.3.2-2.8-1.7-2.8-2.1.1-2.6 1.7-2.7 3.5 0 1.3.1 2.6 1.8 2.9 2.1-.4 2.6-1.9 2.6-3.6zm-79.5-151.3c-.2 2.3 1.5 2.5 3.2 2.3 1.2-.1 2.8-.2 2.8-1.8 0-2.1-1.8-2.3-3.2-2.6-1.5.1-2.7.6-2.8 2.1zm-109.6 29.2c.2.3 1.4.5 1.7.3 2.7-2.3 1.7-4.9.6-7.9-.7 2.7-4.1 4.4-2.3 7.6zm-35.3 157.4c-1-.2-1.5.8-1.5 1.9 0 2.1.2 4.1 2.7 4.6 1.1.2 1.6-.8 1.6-2.1-.3-1.7-.2-3.9-2.8-4.4zm-205.6-122.9c.1-1.7-.3-3.7-2.4-3.4-3 .4-2 2.8-1.2 4.4.5 1.1 1.7 1.9 3 3.4.3-1.9.6-3.1.6-4.4zm377.2-112.7c0 1.7 0 3.4 1.4 4.5.3.3 1.3-.1 1.8-.4 2.1-1.3 2-3.2 1-5.1-.6-1.2-1.3-2.3-2.8-2.4-1.1.8-1.3 2-1.4 3.4zm44.9-8.2c-1.7 0-1.8 1.5-1.8 2.8 0 1.8.7 3.3 2.6 3.4 1.7.1 1.4-1.7 1.7-2.9-.4-1.4-.3-3.3-2.5-3.3zm-352 97.1c.4-5.7.8-9.3-.6-12.8-1.9 6.7-1.9 6.7.6 12.8zm131.9 21.2c-1.9-.3-2.1 1.3-2.3 2.4-.2 1.3.2 2.6 1.9 2.7 1.6.1 2.3-.8 2.4-2.2-.1-1.4-.5-2.6-2-2.9zm341.4-40.8c-.6-3.3-1.2-6.6-1.9-9.9-1.8 3.5-3.2 6.9.1 10 .7.8 1.3.8 1.8-.1zm-518.8-27.4c-1.3.4-2 1.6-2.2 3-.2 1.5.5 2.7 2 2.8 2.6.2 1.9-2.1 2.2-3.5-.4-1 .2-3-2-2.3zm373.8-51.2c-.7 4.3-1.1 7.3 1.2 10.1 1.1-3.1 1.5-6.2-1.2-10.1zm155.2 130.5c.8-5 1.4-8.4-.7-12.8-1.4 4.5-1.9 7.9.7 12.8zm-93.8 138.5c-1.6.3-1.7 1.7-1.6 3 .1 1.5.8 2.5 2.4 2.2 1.4-.3 1.9-1.5 1.8-3.1-.4-1.1-.9-2.5-2.6-2.1zm101.4-145.1c1.4-3.4 1.5-6.8-.3-10.1-1.2 3.4-1.8 6.8.3 10.1zm-555.6-20.1c.5-3.6 1.9-7.3-1-10.9-.2 3.7-1.9 7.3 1 10.9zm570.5-8.5c.1 1.2.2 2.6 1.9 2.6s1.9-1.4 1.9-2.6c.1-1.2-.3-2.5-1.9-2.6-1.6.1-1.9 1.3-1.9 2.6zm-567.5-16.2c-.6 3.6-1.2 7.2.7 10.7 1.1-3.6 2-7.2-.7-10.7zm88.1 110.7c-.1 2.5 2 2.9 3.8 3.4.4.1 1.4-.4 1.4-.7.3-2.3-1.2-3.3-3-3.9-1.1-.1-2.2.2-2.2 1.2zm440.7-36.8c1.8-4.2 1-7.6 0-11.1-1 3.3-2.4 6.8 0 11.1zm16.3-38.4c.8-4.6 1.3-7.7-.6-12.7-1.6 4.5-2.2 7.8.6 12.7zm-96.8 99.9c-1.6 3.1-1.7 5.8.5 8.4.6-2.9 2-5.6-.5-8.4zm82.1-92.1c-1.8 3.5-1.3 6.3-.3 11.2 2.2-4.5 2.3-7.5.3-11.2zm-33.7 124.5c1.4-4.1 1.8-7.1-.3-10.6-1.8 3.6-1.8 6.6.3 10.6zm38.3-158.5c1.1-3.7 1.3-6.8-.2-9.8-.6 0-1.2.1-1.8.1.7 3-1.1 6.5 2 9.7zm27.3 20.1c-1.6 3.9-1.6 6.9-.3 9.9l.6-.1.5.2c1-3.1 1.4-6.2-.8-10zm-404.3 117.5c-.3 1.8.5 3.3 2.3 3.9 1.4.5 1.5-.9 1.6-1.7.2-1.6.4-3.3-1.6-3.8-1.5-.1-2.2.5-2.3 1.6zm381.7-131.2c3.1-3.2 2.7-6.6.3-11.7-1 5-1.2 8.5-.1 11.9l-.2-.2zm-120.1-44.3c0-4.3 1.2-7-1.7-11-.8 4.4-1.6 7.1 1.7 11zm-156.1 52.3c-.2-.3-1.6-.3-1.7-.1-1.1 1.8-1.1 3.7.5 6.1 1.8-2.5 2.6-4.2 1.2-6zm-18.8 165.7c.4.2 1.6-.1 1.6-.3.4-2.1.3-4.2-2.1-5.2-1.3 1.9-2.1 3.9.5 5.5zm214.1 3c1.4-2.5 2-4.7-.6-7.2-1.2 2.5-1.8 4.8.6 7.2zm109.5-93.6c1.2-2.3 2-4.5-.3-8.7-1 4-1.6 6.3.3 8.7zm-73.4-125.7c1.2-2.7 1.5-5.1-.6-7.6-1.1 2.7-2.4 5.1.6 7.6zm-64.4-32.5c-.4 3.3-.8 6.1-1.1 9 1.1-.2 2.2-.4 3.3-.5-.1-3 1.5-6.3-2.2-8.5zm21.5-4.9c.3 1 1.3.8 1.7-.2-.8-1.5-1.5-2.9-2.3-4.4.2 1.5.1 3.1.6 4.6zm15.9-10.6c-.5 1.9-.9 3.8 1.1 5.3.3-2 .2-3.7-1.2-5.2l.1-.1z"/></svg>