<svg xmlns="http://www.w3.org/2000/svg" id="beard" viewBox="0 0 3000 3000"><path id="cl1" fill="#363535" d="M1701.8 1273.9c-2.7 4.7-7.1 7.7-10.6 11.6-2.3 2.6-4.3 5-3.9 9.8-1.2-2.5-1.9-3.9-2.6-5.4-6.2 4.1-4.1 11-5.8 16.8-2.7-3.3-6.5-18.8-5.1-22.1 1.7-4 5.2-4.6 9.5-4.3.2-8.4-3.6-16.6-1.4-24.8-1.9-2.3-4-1.4-5.9-1.7-3-.5-5.8-1.9-5-4.8.8-3.1 4.5-1.9 6.9-1.8 4.6.3 6 6 10.6 6.6 3.5-1.8-.2-5.6 2.8-8.3 2.3 4.1 8 4.7 9.4 10 .2-.6.4-1.1.6-1.6.7-1.9-1.8-5 1.7-5.8 2.1-.5 4.1.9 4.8 2.8.7 2.1 4 5 .2 6.7-3.8 1.7-2.8 4.1-1.9 6.4 2.2 5.2 0 8.1-4.6 10-1.3-1.7-.5-3.8-1.8-7.2 1.4 3.3.4 5.5 2.1 7.1zm-222.3-11.2c.2 3.3 1.5 7.1-.2 9.8-5.4 8.9-3.1 19.1-5.9 28.4-.1.4-.3.8-.5 1.2-1.7-1.9-.8-5.5-4.8-6-2.6 7.3 2 13.9 3.1 20.6 1.1 7-4.8 14.6 1.8 22.2 2.2-9.1 3.7-17 1.4-25.3-.6-2.2-1.2-5.6 2.9-6.2 3-.4 3.4 1.8 4.5 4 3.3 6.9 5.7 13.9 6.9 23.7 3.6-6 3.8-10.1 1.6-13.8-1.3-2.1-2.1-4-2.1-6.4.2-5-1.9-9.1-4.9-13.1-3.6-4.9-5.6-11-2.5-16.6 5.6-10.1 2.8-20.3 1.6-30.5-.2-1.4-.8-2.5-2.9-2.3 0 3.3-.2 6.9 0 10.3zm166.2-6.6c1.4-.5 2.9-.5 3.6.7 4.7 6.9 10.1 13.4 10 22.5 0 3.3-.6 7.7 1.1 9.7 4.1 4.6.4 8.5.8 12.3-5.5.8-2.1-7.2-7.8-6.4.1 4.1-1.7 8.4 2.9 11.5 2.3 1.5 1 3.2 0 5-1.6 2.9-2.3 6.1-2.6 9.4-.4 5.5 1.6 8.7 7.5 9 1.5-4 1.1-7.6-.5-10.9-2.3-4.8.7-9.9 2.8-11.4 4.8-3.5 4.3-7.3 4-11.9-.5-10-6.3-18.7-7.3-28.5-.6-6.1-5.1-9.5-7.3-14.5-1.2-2.9-5-3.6-7.8-2-3.1 1.9 1 3.8.6 5.8v-.3zm-92.3 83.2c.5 10.2-5.1 17.9-10.1 26-2.2 3.5-2.1 7.4 1.1 12.8 1.9-6.4 2.8-11.5 7.7-13.5 4.7 4.8 2.8 11.8 6.1 18.9 2.9-6.5 4.5-11.6 3.9-17.2-.4-3.6-4.8-4.3-5.3-8.4-.7-5.2 5.2-5.4 5.3-9.1.1-5.5.8-11-1.2-18.8-1.9 5.3-7.7 4.2-7.5 9.3zm-48.3-60.6c.7 1.1 1 2.6 2.8 1.8 1.4-.7 1.2-1.9 1.3-3.3.8-10-9.4-13.3-12.4-21.2-1.1 4-1.5 7.8.2 11.5.8 1.7 1.3 3.4-.5 4.2-1.3.6-3.4.8-4.4-1-.8-1.4-1.4-3.1-4-1.4 1 4-3.8 10.5 5.4 11 0 3.7 5.6 4.3 4.6 9-.7 3.5 2.5 6.8 2.1 10.6-.1 1 .7 1.8 1.8 1.9 1.8.2 2.2-1.1 2.3-2.5.3-7.3-1.4-13.9-6.1-19.7 2-.8 6.6-1.5 6.9-.9zm288.6 8.3c1.4-1.8-.5-4.4 1.1-6.1 3.6 0 1.1 6.4 5.7 5.2-1.2-25.7-1.2-25.7-6.2-31.7-3.8 2.6-2.5 6.5-2.3 9.9.2 2.6.9 5.2 1.2 7.8.2 1.2.5 2.9-1.1 3.2-1.4.3-3.4.7-3.9-1.6-.4-1.5-.3-3.3-3.3-4 .2 14.6.2 14.6 8.8 17.3zm-149.9 64.7c2.3.6 4.2-.1 3.9-2.7-.7-6.5 4.5-12.6 1.1-19.2 4.1-4.8 2.2-9.6.6-14.4-5.6 1.3-.5 5.9-4 8.3-4.5 3.1-7.8 7.9-11.6 12l-.2-.2c9.7 8.8 9.7 8.8 10.4 16.5l-.2-.3zm129.1-66.8c1.8 6.7-2.6 9.3-6.4 10.2-6.5 1.7-2.6 5.6-2.7 8.4-.2 3.2 2.6 2.7 5.1 2.8 3.8 0 7-1.8 6.3-5.2-.7-3.5.8-5.7 2.9-6.3 4.2-1.2 3.8-3.9 3.4-6.8-.6-4.4-1.6-8.8-2.4-13.2-3.3 3.4-6.8 8-6.2 10.1zm-114.2-165c-1.4 6.4 2.7 9.1 7.9 11 .9-.2 1.7-.8 2.2-1.6.3-1.7 0-3.3 0-5 0-.7-.3-.9-.6-.7-1.1.8-.3-1.5-.1-.6 1.8 2.2.2 8.1 5.9 5 4.1-1.3 3.1 2.3 3.8 4.2 5.9-1.5 7.8-5.5 4.8-10-2.1-3.2-6.1-2.1-8.6-4.4.2-2.6.6-5.2.5-7.8-.1-1.5.1-3.6-2-4-2.7-.5-2.8 2.1-3.7 3.7-1 1.7.3 3.2.3 4.7-.1 3.5-2.4 4-5.3 3.5-2.8-2-4.6-.6-5.1 2zm-158.8 102.3c-.4 1.1 0 2.7-2.2 1.6-3.7-1.9-4.2 1-3.6 3.3 2.3 8.2 5.1 16.3 6.6 24.8.2 1.2.9 3.6 3.2 2.9 2-.6 2-2.6 1.7-4.1-1.4-5.7-3-11.4-4.5-17.1-.3-1.1-.8-3.2.1-3 5.6 1.2 6.4-3.2 6.1-6.2-.3-3.2.2-7.7-4.4-9.3-2.1 2-2.1 4.8-3 7.1zm212-110.4c-3.6 9.1-4 18.4-1.2 29.3 3.8-3.9 8.6-5.2 11.5-9.4l-.2.2-.3-3.9.2.2c-1.8-2.2-4.7 3.5-6.2-.9-1.1-3.3-2.4-6 2.8-7.5 2.8-.8 2.6-4.5 2.5-7.4-3.5-.3-6.3-2-9.3-.4l.2-.2zm-100.1 240.4c-.4-.5-1.2-.9-1.3-1.4-.4-3.6-.4-8.6-4.9-8.2-3.5.3-4.4 5.2-4.3 8.8.2 4.1-1.8 8.2.4 12.4 2.6 5-4.6 7.5-3.9 12.3.2 1.6-.3 3.3-.3 4.9 0 1.3.4 2.7 2.2 2.4 1.1-.1 1.8-1 1.7-2-.7-6.9 5.8-12 4.7-19.3-.5-3.4 2.7-5.7 5.3-7.8.8-.5 1-1.2.4-2.1zm-24.1-201c.2 2.8 1.9 4.6 4.5 3.5 2.4-1 .9-3.2.3-5.1-1.5-4.9-6.3-8.4-6.1-14.1 0-1.5.1-3.7-2.2-3.4-2.8.3-2.1 2.9-2.1 4.7 0 .9.7 1.8 1 2.7 1.1 4.4 1.1 4.4-4.1 6.8-.5.2-1.2.6-1.3 1.1-.4 2.3-1.2 5 .5 6.6 1.4 1.4 4 2.7 6 2.5 3.2-.3 2.1-3.4 2.1-5.6 0-.6.2-1.3.4-3.3.6 2.5.9 3 1 3.6zm-160.4 172.7c-6.2-5.4-3.2-11.9-3.6-18.1-.2-2.9-.9-5.9-1.3-8.8-.2-1.3-.6-2.8-2.1-2.8-2.4 0-2.1 2-2.2 3.6-.6 5.7 3.1 11.4 2 16.4-1.8 8.1 2.2 13.4 6.3 20.7 1.9-4.7 2.6-9.5.9-11zm71.3-20.6c-4.7-5-7.2-9.6-8.8-15.4-.5-1.9-1.3-3.1-3.3-2.9-2 .2-2.3 1.7-2.8 3.5-1.4 5.3 2.2 7.5 5.6 10-2.5 7.3 7.6 8.8 7 15.3 0 .4 1.5 1.3 2.3 1.3.9 0 1.6-1 1.5-2.1-.1-1-.2-2-.4-3.3-.3-2 .8-4.3-1.1-6.4zm-120.6-15.5c-.3 8.9-2.6 18.1 3.7 26.1-1 7.3 4.5 8.5 9.2 10.9.9-2.4 1.3-4.1-.3-5.3-1-.7-3.5-1.2-3.4-1.5.8-6.2-5.1-10.3-4.9-16.3.1-3.6-.4-7.2-.6-10.9-.1-2.7-1.7-3.3-4-3h.3zm261.8-24.4c3.6 1.9 5.4 5.2 5.3 8.9-.2 6.8 5 10 8.5 16.4.8-5.5 1.3-9.7-1-12.2-5.6-6-6.4-13-6.8-20.5l.2.2c-2.1-.5-4-.7-5-3.3-.6-1.6-2.5-1.2-3.4.6-1.5 3.8-.5 7.1 2.2 9.9zm-230.7 28.8c1.5 2.8 2.4 7.4-1.1 9.7-5.1 3.3-2.2 7.5-2.3 11.3 0 .8.9 1.7 2.2 1.4 1.1-.2 1.6-1 1.7-2 .6-3.9-1.1-8.7 4.6-10.4.3-.1.1-1.9.3-2.8.7-5.9-3.7-10.8-3.4-16.7.1-1.6-3.1-3.1-7.7-1.9 4.1 3.2 3.7 7.7 5.7 11.4zm146.9-126c.6-5.1 1.5-10.3-.1-15.4-.3-.9-1.1-1.6-2.3-1.3-1.6.4-3.7-.7-4.7.8-1.5 2.3-1.7 5.1.2 7.2 1.2 1.3 2.9 2.1.8 3.6-4.2 3-1.8 6.3-1.1 9.7 3.4-.5 6.8-1.1 7.2-4.6zm-60.5 191.5c4.8-2.3 6.6-8.5 3.6-12.3-4-5.1-4.4-5.5-1.2-9.3 2.9-3.4 1.2-6.8 1.6-10.2.1-.8-.8-1.7-2-1.7s-2 .7-2 1.6c.2 4.5-1.5 8-3.9 11.7-1.4 2.2-1.6 7.3.4 8.4 5.6 3.2 3.6 7.7 3.7 12l-.2-.2zm197.9-240.9c-1.1 0-2 .4-2.9 1-4.5 4.4-10.3 8.3-6.7 16 1.7 1.2 1.9 4.5 5.2 3.5 2.9-.9 4.3-2.7 4.7-5.7.2-1.9-1.4-3.8.3-5.6 4-3.3 5.6-6.5-.6-9.2zm-205.7 120.3c1.2-9.5.4-18.8-3.5-27.7-.4-.9-.6-1.8-1.8-1.8-1.8 0-2.3 1.2-2.2 2.6.1 1.6.1 3.6 1 4.7 3.3 4 2.6 8.5 2.3 13.1-.2 3.3-.3 6.6 0 9.9.3 2.7-.6 6.1 3.2 7.7 2.2-2.7.6-5.7 1-8.5zm146 98.5c-4.9 1.9-7.2 8.5-13.9 6.7.4 5.6-.6 10.5 1 16.1 3.5-1.7 7-2.8 6.7-6.7-.3-4.4 1.5-7.4 4.4-10.2 1.7-1.7 2.8-3.6 1.7-6.1-.1 0 .1.2.1.2zm173.5-81.4c-1.2-.8-2.2-1.6-3.5-.6-1.4 1.1-.8 2.8.2 3.4 4.7 2.9 4 5.7 2 10.4-1.7 4.1-1.2 9.8 3.8 13.1.8.5 1.4 1.5 2.4.8 1.2-.8 2-2.7 1.3-3.3-4.5-4.2-4-8.8-2.1-11.9 1-6-.5-9.4-4.1-11.9zm-485.1 11.7c-2.4-.1-6.4 4.9-6.6-2.1-.1-1.5-1-2.4-2.6-2-1.1.3-1.3 1.3-1.4 2.3-.9 7.2 5.3 12 5.1 19.7 5.7-6 9.1-11.1 5.2-18.1l.3.2zm399.6-138c1.8-.1 4.1.7 4.4-2 .5-4.8 3.9-6.7 7.9-8l-.2.2c1.1-6.1-2.9-8.9-8.1-12.6.4 8.6-5.6 14.8-3.8 22.7-.1-.1-.2-.3-.2-.3zm-188.5 43.2c-7.3-2.8-3.9-8.8-5-13.3-.6-2.4.2-5.2.3-7.9.1-1.5-.6-2.7-2.2-2.7-1.5-.1-2.3 1-2.4 2.5-.4 10.9-1.6 22 9.4 30.2 1.5-3.6 2.4-7.9-.1-8.8zm-227.5 84.9c-1.9-1.8-2.4-2.5.1-4.1 4.8-3.1 2.2-6.8.3-10.5-.5 5.3-7.3 6.5-7 12.3.3 5.5 5.1 8.4 6.5 13.4 1.9-3.8 3.9-7.6.1-11.1zm16.2 9.7c8.2-6.7 9.2-15.7 2.4-23.9-2.7 8-4.2 15.8-2.2 24 0 .1-.2-.1-.2-.1zm195.8-95.8c-.6-1.4-2.2-2.1-3.2-1.2-1.6 1.4-5.2.4-5 3.8.1 2.8-1 6 2.9 7.5 2.7 1 5.3 2.4 8.3 3.7 2.4-6-1.1-9.7-3-13.8zm235.8-28.6c-2.5-2.9-5.7-1.4-8.1-1-2.6.4-1.6 3.8-1.5 6 .2 3.5 2.4 2.9 4.9 2.5 3.7-.6 4.6 3.6 7.6 5.5 3.6-6.3.2-9.4-2.9-13zm-95.6-27.5c-2.6 2.1-3.3 4.7-2.3 7.8 5.1 3.5-2.1 4.2-1.5 6.7 2.5 2.1 2.8 5.9 5.8 7.7 2.2 2.3 4.7 3.2 7.8 1.9 2-2.6 2.4-5.3.1-8-2.8.2-3-2.4-4.4-3.7-4.7-4.6-5-4.7.3-8.1-1.1-2.7-4-2.7-5.8-4.3zm-72.2 228.9c-.6-1.6-.8-3.3-2.9-3.2-2 .1-2.6 1.6-2.7 3.4-.3 5.2-1.7 10.4.3 16.3 8.1-5.3 8.8-7.9 5.3-16.5zm-1.8 27.8c.4 1.2.2 2.7 1.6 3.2 1.3.5 2.5 0 3.5-1 4.2-4.2 7.5-8.6 3.9-16.5-4.6 4.5-11.4 6.3-9 14.3zm-148.6-57.6c.2 1.3.4 2.8 2 2.8 2.3 0 2.3-1.9 2.4-3.5.5-6.4-3.5-12.7-.4-19.3.4-.9-1-2.4-2.5-2.6-1.5-.2-2.5.4-2.7 2-.3 2.6-.4 5.3-.8 9.1.5 3.1 1.3 7.3 2 11.5zm194.5-179.2c.6-5.1-1.4-9.8-1.6-14.8-.1-4.6 4.4-8.8.8-15-3.1 6.9-5 12.9-5.4 19.2-.2 3.2.9 6.6 2 9.6.6 1.8 2.7 1.5 4.3.8l-.1.2zm-86.8 210.5c1.9-7.3.7-13.7-1.8-20.9-7.5 6.7-7 12.8 1.8 20.9zm240.9-28.4c.8 3.4 4.8 1.7 7.2 2.6 2.1-7.5-2-12.7-5-19.3-4.9 5.9-3.4 11.5-2.2 16.7zm-145-203.3c0 2.6-.2 5.1-.4 7.7-.3 3.8-4.3 8.6-.1 10.9 1.8.9 1.6-6 3.7-8.7 1-1.3 2-2.6 2.6-4.1.6-1.5 1.3-4.2.7-4.6-4.2-2.9-.1-6.2-.9-9.8-5.7 1-5.6 5.3-5.6 8.6zm-321.7 125c-.4-2.9-3.2-1.3-4.5.2-2.7 3.3-2.2 7.8.2 10 2.3 2.1 2.2 5.4 5.9 7.5 2.9-6.7-.7-12.1-1.6-17.7zm252.3 115c.5 1 .1 4.5 2.3 1.8 2.3-2.8 1.7-6.9 2-10.4.5-6.9.5-6.9-7.7-8.7.5 5 1.1 9.8 1.6 14.6.1 1.2 1.3 1.7 1.8 2.7zm217.2-111.5c-1.1-.3-2.1-.1-2.9.9.2 2.4-.9 4.4-1.4 6.6-1.5 6.3-3.6 12.8.4 19.6 3.9-8.8 6.9-17.2 4.8-26.4-.3-.3-.6-.5-.9-.7zm-104.9-133c-5-1.6-4.6 1.9-3.9 4.7.4 1.7 2.7 2.7 1.7 5 4.1 5.5 8.2 3.2 12.2 0l-.1.1c2.4-3.9 4.1-7.7-1.9-10.1-.8 2.2-3.2 1.9-4.7 2.9-4.1 2.6-2.9-1.2-3.4-2.9l.1.3zm-114 20.3c-3.5-1.2-3.5 1.2-3.9 3.6-1.6 9.5 2.5 18.5 1.9 27.9 5.3.6 1.5-4.6 3.8-5.9 1.2-2.3.9-4.8 0-6.7-2.5-5.3-2.1-10.7-1.4-16.2 1-1.1.8-1.9-.4-2.7zm183.2 178.6c-3.7 2.6.3 6.7-2.7 9.2-5.3 4.3-2.5 8.6.4 14.6 2.6-8.9 9.7-15.6 2.3-23.8zm-413-19.4c-3.4-7-.8-14.6-2.4-21.8l.2.2c-2.8-1.1-4.2-.4-4.3 2.9-.3 10.2 1.9 19.9 6.3 29.1 3.2-3.4 2.5-6.8.2-10.4zm336-169.7c-.2.2-.6.5-.6.7 0 .2.3.6.5.7 1.9.6 3.8.7 5.4 2 4.2 3.4 3.6 7.9-1.6 10.9 1.4 3 4.1 1.2 6.1 1.6-.7-4-.4-7.4 3.5-10.3 1.7-1.3 5-2.4 4.5-5.8-.3 0-.6.1-1 .1l-11.3-.2c-1.8.3-3.7.3-5.5.3zm-110 243.4c4 3.2 3.3 6.6 4.2 10.1.2.9.8 1.9 2.1 1.7.6-.1 1.4-.5 1.5-.9.5-3.7 2.6-8.2-1.2-10.8-4.2-2.9-3-5.6-1-8.7 0-1.3-.7-2.2-1.9-2.7-5.7 2.4-6.3 9.3-3.7 11.3zm217.8-49.2c-.2-.9-.9-1.7-2-1.8-1.8-.3-2.4.9-2.3 2.3.2 2.6-.2 4-2.6 6.2-3.8 3.4-.6 10.1 4.4 12 1.5.6 2.5.7 3.2-.5 1-1.8-.4-1.9-1.7-2.3-3.5-1-3.5-4.4-1.2-5.3 3.8-1.7 1.8-4.4 2.6-7-.2-1-.2-2.4-.4-3.6zm-109.8-38.4c.1.3.1.6.2 1 .5 2.4 2.6 2.8 4.5 3.1 1.4.3 2.5-.4 2.8-1.9.8-3.7-.7-7.2-1.8-10.5-.7-2-3.7-3.3-7.5-2.9.6 4.3 1.2 7.7 1.8 11.2zm118.1-91.4c-2.2.2-3.7 1.2-4.1 3.5-.4 2.2.6 4.6-1.6 6.4-4.2 3.6-1 7.9-1 12 0 1.3 1 1.6 1.9 1.6 1.2.1 1.9-.9 1.8-1.8-.3-7.4 4.6-14.2 2.7-21.8l.3.1zm-175.9 189.3c0 1.1.7 1.8 1.7 2 1.7.3 2.1-1 2.2-2.4.3-5.9-.1-11.7-1.9-17.4-.9-2.7-2.3-2.6-4.3-1.5-.1.7-.3 1.4-.4 2.2-1.7 6.1 2.7 11.2 2.7 17.1zm-123-166.6c.3 3.3-1 7.1 2.4 10.2 1.7-2.8 6.5-2.4 6.4-5.4-.1-3.9 1.3-8.6-3.2-12.2-1.8 2.8-1.2 7.2-5.6 7.4zm-38.3 110c2.4 3.2 3.3 6.2 3.2 9.8 0 1.3.3 2.8 1.9 2.9 2.5.2 2.1-1.8 2.4-3.3 1.3-7.5-5.9-12.7-5.8-20.1-3.5 3.4-3.7 7.9-1.7 10.7zm-59-12.5c2.9-.6 6.6 2.5 8-1.5 2-5.6-1.5-9.7-6.1-13.9-3.1 5.5-2.6 10.3-1.9 15.4zm303.8-172.5c1.4.3 2.9 3.2 4 1.2 3.8-6.8 5.4-14 .3-21.1-5.9 5.7-5.9 12.6-4.3 19.9zm-395.4 102.8c2.5-2.1 2-5.3-.8-6.6-2.6-1.3-4.9.7-6.2 3.2-2.3 4.3.6 8.2 1.5 12.5 3.8-2.2 2.5-6.6 5.5-9.1zm397.3-122.8c-2.9.4-4.1-1.9-5.5-3.8-1.6 0-3.5-.5-4.3 1.7 1.9.5 2.4 1.8 2.1 3.5-.4 2.2-.9 4.3-.1 6.5 5.8 1.3 3.4 4.9 2.3 8.2 2.1.4 1.4 3.6 3.7 3.9-.6-7 3.1-13.2 4.2-19.8-.9-.1-1.7-.2-2.4-.2zm-170.9 219.4c3.4.1 3.6-2.2 3.6-4.6 0-3.2.8-7.2-3.5-8-2.7-.5-5.2 1.1-4.8 4.5-.6 5.6.9 8 4.7 8.1zm235.1-168.8c-3.8-7.4 5.2-13.4 1.5-21.2-6.6 7.9-7.4 15-1.5 21.2zm24 81.4l-.2-.3c3.7.9 5.6 4.2 7.7 7.6 2.2-6.7-.4-11.8-2-17-8-.8-8.8.6-5.5 9.7zm-275.6 85.9c-4.9 4.6-4.8 9.9-3.2 16.9 9-7.9 6.9-5.3 3.2-16.9zm157.9-5.4c-.1 1.4.9 2.6 2.3 2.6 1.2 0 2.7-.7 2.9-2.2.9-6.2-.6-11.8-4.9-17.8-2.2 6.5.1 12-.3 17.4zm37.5 45.7c3.2-7.3-1.7-11.5-6.9-17.3-2.3 11.9-2.3 11.9 6.9 17.3zm-346.6-55.4c5-8.9-4.6-12.2-5.7-18.5-5 8.6 1.5 12.9 5.7 18.5zm456-70.6c-1.6 1.7-4 3.1-4.5 5-1.4 5.3 5.6 6.1 6.5 10.4 3.3-6.4 3-8.5-2-15.4zm-167.5-112c.6-1.3.3-3.4-1.7-4-1.8-.5-3.3.3-4 2-1.8 4.1-3.3 8.3-.7 14.4 2.6-4.9 4.7-8.5 6.4-12.4zm-134.7 21.7c-2.9 1.4-7 1.8-6.7 6.2.4 5 2.8 3 5 1 0 .3-.1.7 0 1 .3 1.7.8 3.5 3.1 2.7 1.9-.6 2-2.6 2-4.2-.1-2.2.1-4.6-1.3-6.6-.8 0-1.6-.3-2.1-.1zm-12.2 174.5c8.2-8.8 8.2-8.8 4.5-16.3-5.9 4.1-7.3 9.3-4.5 16.3zm17.5-14.6c-.4-3.1-3.3-4.3-5.7-4.2-3.4.2-2.4 3.4-2.2 5.4.3 4.3 2.4 7.3 7.4 7.5 1-2.8.9-5.8.5-8.7zm242.2 12c3.2-8-1.4-13.8-3.9-20 0 6.5-3.2 13.8 3.9 20zm19.1-95.2c.7 5.6-1.9 10 2.5 13.4 1.3.4 2.6.9 3.9 0 0-1.9.3-3.8.1-5.7-.5-4.6 2.2-4.5 5.4-3.9-3-4.5-7.6-1-11.9-3.8zm-275.2-38.1c-2.8-.7-4.3-.3-4.2-3.6 0-1.3-.9-2.5-2.5-2.5-2.5 0-2 2-2.2 3.5-1 7.3 5.6 8.3 10.5 12.7.3-4.7 1.9-9.3-1.6-10.1zm5.5 176.4c.1.4 1 .8 1.6.9 1.1.1 2-.6 2.1-1.6.6-5.6 1.1-11.3-1.7-17.3-5.3 6-2.9 12.1-2 18zM1740 1122c2.5 3.1 1.1 5.1-.3 7.9-1 2-1 4.7.8 7.2 4.3-7.4 8.4-14.1 1.5-21.6-2.7 1.6-3.8 4.3-2 6.5zm-238.1 45.8c-4.7-.1-4 3.3-3.9 6.1.2 5 4.3 4.5 7.3 6 2.3-5.7-.2-9.2-3.6-12.3l.2.2zm215.1 181.8c3.9-9-2.1-13.7-5.4-21.1-4.2 10 4 13.7 5.4 21.1zm-117.4-201.4c-.7 1.3 0 2.9 1.4 3 1.1.1 2.7-.7 3.3-1.7 3.4-5.3.4-9.6-2.5-14.8-3.9 4.7 0 9.6-2.2 13.5zm101.1-41c.6-1.7 2.3-3.8.1-5.1-1.7-1-3.8-.2-5 1.6-.5.8-1.1 1.5-1.7 2.3-.1 3.2-1.5 6.8 1.6 9.4 2.6-1.4 1.2-4.8 3.9-5.6.3-.8.8-1.7 1.1-2.6zm-19.1 229.9c0-1.6-.1-3.6-2.3-3.6-1.7 0-2.8 1.6-3.4 3.1-1.3 3.5-.5 7 .9 11.3 6.1-2.3 4.8-6.8 4.8-10.8zm-18.1 3c.1-1.5-.7-2.5-2.2-2.7-1.5-.2-2.7.9-3.1 2-1.3 3.8-1.4 7.6.2 11.5 7.3-1.2 4.7-6.7 5.1-10.8zM1536.1 1162c.6 3.6 1.5 7.1 2.4 10.6.3 1.2 1.2 2.5 2.7 2.1 1.3-.4 2.2-1.4 2.4-2.8 1-5-3.9-7.8-4.5-12.2 0-.1-.5-.2-.9-.2-1.4.1-2.4 1.1-2.1 2.5zm-247.3 89.2c2.2-6.6 4.3-11.9.6-17.6-2.7 5.2-5.5 10.7-.6 17.6zm194.4-56.1c-3.4.2-3.2 2.6-3.1 4.9.2 2.9 0 6.1 4.4 6.1 2.9 0 4.1-1.4 3.5-4.3-.7-2.9.4-7-4.8-6.7zm151.2 60.9c-.1 2.8-1.2 5.8 1.2 8.2-2 4.5-1.4 8.2 3 10.8 2.1-3-.2-5.3-.5-7.8-.2-1.7-.6-3.2 1.6-3.8.2-3.5-.3-6.9-2.2-9.9-.7 1.1-2.7.8-3.1 2.5zm136 86c2-7 .5-12-4.1-16.2-.1 5.5-1.7 11.3 4.1 16.2zm-553.8-177.3c-.1 7.3-4.8 14.4-.5 21.9 1.2-7.3 3.6-14.6.5-21.9zm309.6 179.4c0-2.3.1-4.6-.1-7-.1-.9-.5-2-1.9-1.8-1 .1-2 .5-2.1 1.7-.1 4.9-.1 9.7.1 14.6 0 .7 1.1 1.9 1.8 2 1.6.2 2.2-1.1 2.2-2.5.1-2.4.1-4.7 0-7 .1 0 0 0 0 0zm-182.7-45.2c1.8-2.7 1.2-6.4.4-9.4-.7-2.6-3.7-1.9-5.9-2-.1 3.5-.1 6.9-.2 10.4 1.7 1.8 4.2 3.2 5.7 1zM1746 1351c.1.3 1.1.7 1.6.6.6-.1 1.6-.7 1.6-.9-1.3-6.1-.2-12.8-3.7-18.5-2.7 6.4-.7 12.6.5 18.8zm-186-199c-.6 7.2-.6 7.2 4.3 12.3 3.8-2.5 6.3-5.5 5.3-10.4-2.4 1.3-1.2 4.8-3.8 5.9-3.2-1.6-1.2-7.1-5.8-7.8zm242.2 140.2c-.3-1.4-.7-2.6-2.3-2.6-1.6 0-2.2 1.3-2.2 2.6-.2 5.5 1.3 10.6 3.6 15.8 1.7-5.3 2-10.5.9-15.8zm-12.4-122c4.9-4.4 5.4-8.9 2.9-15.6-4.5 5.6-6.3 9.8-2.9 15.6zm-103.6 204.3c2.8-9.2 2.8-10.2.7-18-4.1 10.6-4.1 11.9-.7 18zM1543 1159.4c3-8.2-1.3-14.5-3-21.1-.3 6.8-1.2 13.9 3 21.1zm47.2 181c-3.6 7.1 2.6 7.8 7.3 10.2.6-7.8.6-7.8-7.3-10.2zm26.5-205.3c1.7 1.9 2.5 3.6 2.6 6 0 1.3.3 2.7 2 2.7 2.3 0 2.3-1.8 2.4-3.4.3-5.2-5.1-7.4-5.2-13.9-3 3.9-3.5 6.7-1.8 8.6zm83.1 196c0-1.2-2-1.3-3.3-1.2-1.6.1-2.5 1-2.3 2.5.4 4.2.8 8.5 6.3 9.4 2.6-4-.7-7.2-.7-10.7zm-186.3-147.7c-.2-.8-1.1-1.5-2.3-1.4-1.1.2-1.7 1-1.7 1.9.3 4.4-.4 9.2 5.1 11.4 2.7-4.3-.2-8-1.1-11.9zm144.4-69.7c-2.7-1.6-5.4-2.1-7.8.5-.1 2-.1 3.9.5 5.9 1 3.5 2.8 2.8 5 1.5 1.8-2.3 1.8-5.2 2.3-7.9zM1549 1346.8c2.4.3 3.1-2.1 2.9-4.3-.3-2.9-.7-6.2-4-7.1-2-.6-2.5 1.6-2.4 3.7 1.2 2.4-1.4 7.1 3.5 7.7zm5.9-212.9c-1.9 0-3 1.2-2.9 3.1.1 2.5-.9 5.6 2.9 6.2 2.7.4 3.2-1.5 3.4-3.8-.2-2.3.6-5.4-3.4-5.5zm-119 184.5c-3 0-1.7 3.7-1.9 5.7-.2 1.6 0 3.3.3 4.9.2.9.9 1.9 2.1 1.5.6-.2 1.3-.6 1.4-1.1.4-1.6.5-3.2.7-4.6-.8-2.4 1.3-6.4-2.6-6.4zm222-206.7l.1.1c-.5-.4-1-.7-1.4-1.2-1.8-2 2.7-6.7-2.2-6.8-3.6-.1-3.4 3.8-3.7 6.7-.1 1.3-.4 2.5-.7 3.7 2.6-.2 5.2-.4 7.8-.5.1-.7.1-1.4.1-2zM1483 1349.8c4.1-6.3 3.3-11.1 1.4-16-4 4.3-3.3 9-1.4 16zm186.9 11.6c0 1.3.2 2.9 1.7 3.2 2.2.4 2.6-1.5 2.7-3.2.1-1 .2-2 0-3-.6-2.3 1.5-6.4-2.2-6.4-3.9 0-1.4 4.2-2.2 6.3v3.1zm-16.4-228.5c-.2 5.5.4 5.8 6.5 3-.3-3.8-.1-7.9-5.8-7.7-.3 1.6-.6 3.2-.7 4.7zm68.7-1.2c-.7 3.1-1.7 6.2-2 9.4-.1 1.6 1.4 3.3 3.2 2.2 2.5-1.6 2.2-4.5 2.3-7.1.1-2.8-.7-4.5-3.8-4.3.1-.1.3-.2.3-.2zm8.3 192.2c-.4-.3-1.7-.5-1.8-.3-2.4 4.3-1.3 8.6.4 12.9.1.2.6.2 1.8.6 1.3-7.5 1.2-11.8-.4-13.2zm30.9 5.3c-.1-.6-1.2-1.4-2-1.7-1.2-.5-1.9.7-1.9 1.5.1 3.7-.4 7.5 2.8 12.6 2.1-5.3 1.4-8.9 1.1-12.4zm-103.5-217.5c5.4.9 8-2.3 10.2-6.8-7.5-2.8-8.5 2.4-10 7 0-.1-.2-.2-.2-.2zm-85.6 22.2c-1.8 4.7-.7 8.1 5.3 10.4.4-4.7 2.3-8.7-3.6-10.7-.7-.8-1.3-.8-1.7.3zm151.3 207.3c-.4 4.5-1.3 8.6 2.2 13.9 3-9.5 3-9.5-2.2-13.9zm-190.5 15.6c-.4 1.3-.8 2.5 1 2.9 1.8.3 1.9-1.1 2.2-2.4.2-.9.8-1.9.8-2.8.1-2.9 2.6-7.6-1.9-7.9-3.3-.2-1.2 4.8-1.9 7 0 1.3.1 2.3-.2 3.2zm-8.5.6c-4.1-.3-2.5 3.7-2.8 6-.2 1.3 0 2.6.3 3.9.2.9.9 1.7 2 1.7 1.2 0 1.7-.9 1.9-1.8.3-1.3.3-2.6.4-3.7-.3-2.3 1.1-5.9-1.8-6.1zm119.2 6c2.7 2.3 1 5.5 1.6 8.3.2 1.1.8 2 1.7 2 .8 0 2-.6 2.3-1.3 1.9-4.5-.4-9-5.3-11-.8.6-.9 1.2-.3 2zm-430.5-171.2c-.7-.9-1.7-2.2-3.3-1.9-1.7.3-2.1 1.6-1.8 3 .6 3.2 1 6.6 6.1 8.6-.4-4 .9-7.1-1-9.7zm520.7-74.3c-.9 3.4-1.8 6.9-2.8 10.3-.5 1.9-1.7 4 2 4.1 1.4-4 3.1-7.9 4.1-12 .7-3-1.2-3.2-3.5-2.3 0 .1.2-.1.2-.1zm6.8 212.8c2.8-.3 1.2-4.5 1-6.9-.1-1.3-.4-2.5-.8-3.7-.2-.4-1.1-.8-1.6-.8s-1.4.5-1.5.9c-.2 1.3-.1 2.6-.1 3.9.8 2.3-1.6 7.1 3 6.6zm-370.5-21.9c.1-.5-1.2-1.7-1.9-1.7-1.4-.1-2.2.9-2.5 2.4-1 4.8 0 5.7 9.4 7.8-1.7-2.9-5.7-4.2-5-8.5zm382.7-183.1c.8-1.8 1.6-4.2-.8-5.2-2.5-1-3.3 1.9-4.1 3.4-1.3 2.4-1.1 5 1.6 7.5 2.4-1.8 2.5-4 3.3-5.7zm-355.7 193.1c3.2.2 2.4-3.2 2.5-5.3.1-1.3 0-2.6-.1-3.9-.2-1.5-1-2.5-2.5-2.3-1 .1-1.7.9-1.7 2-.1 1.3-.2 2.6-.2 3.8.3 2.1-1.1 5.5 2 5.7zm276.2-188.5c-1.8-2.3-3.8-1.7-5.8-.3l.1-.2c0 2.7-.1 5.3-.1 8 7.2 1.5 5.8-3.6 5.8-7.5zm-29.7 221.4l.2.2c-3.9-.4-4.4 2.3-3.9 5 .5 2.4-2.3 6.3 2.8 6.8.3 0 .6-.2.9-.2.1-.7.2-1.4.2-2.1.3-3.3.7-6.5-.2-9.7zm-28.1-212.4c-3.4.3-3.1 3.7-3.7 6-.3 1.3.5 2.4 2.2 2.3 3.1-.2 3.5-2.4 3.8-4.9.1-1.6-.3-3.6-2.3-3.4zm123.8 217.3c.2.2 1.4-.1 1.7-.5 2.3-3.5.9-6.9-.5-10.2-.1-.1-.6-.1-2.2-.3-.6 3.9-2 7.6 1 11zm-25.9 5.6c-2.2 5.5-2.6 9.1.9 14.4 2.5-5.7 2.2-9.3-.9-14.4zm-266.1-46.8c3.3-.1 1.8-3.5 2.1-5.6.2-1.3.1-2.7-.2-3.9-.2-.9-.7-1.8-2.1-1.7-1.3.1-1.6 1-1.8 1.9-.2 1.3-.2 2.6-.3 4.5 1.1 1.2-1.2 4.9 2.3 4.8zm246.1 40.2c.5.2 1.5.1 1.7-.3 2.1-3.4 1-6.9-.2-10.3-.1-.3-.4-.4-1.3-1.4-2.5 7.8-2.5 11.1-.2 12zm68.7-225.8c-.3-2.5-2.1-3.4-4.3-2.7-3.1.9-2.3 3.6-2.1 5.8.1 1.5 1.1 2.2 2.7 2.2 2.1-1.2 4.1-2.5 3.7-5.3zM1446 1335.1c0 1.4.5 2.6 2.2 2.8 2 .2 2.1-1.3 2.1-2.5 0-3.1 0-6.3-2.3-10.5-2.8 4.2-2 7.3-2 10.2zm-184.7-98.4c.2.3 1.5.5 1.8.2 2.2-2.6 1.4-5.6 1.1-8.5-.1-.6-.6-1.2-1.5-3.1-3.9 4.2-3.3 7.8-1.4 11.4zm148.1 94.9c.1.3 1.6.2 1.8-.1 2.1-3 .9-6.4.9-9.6 0-.6-.6-1.1-1.9-3.4-2.7 5.4-3.1 9.2-.8 13.1zm370.8-163.9c1.9 3.1 0 7.8 4.8 10.7.8-5.3 2.4-9.8-2.9-12.9-1.3.2-1.4 1.4-1.9 2.2zm-588.3-28.7c-3.5-.4-2.5 2.9-2.6 4.9-.1 1.8-.5 4.6 1.7 4.9 3.4.4 2.4-2.9 2.8-4.8-.3-1.9.6-4.7-1.9-5zm529.2 230.4c4.3.2 2-3.9 2.5-6.1.2-.9 0-2-.1-3s-.6-1.9-1.7-2.1c-1.8-.3-2.2.9-2.3 2.3-.1 1-.1 2-.2 3.6 1 1.4-1.4 5.2 1.8 5.3zm-65.6-9.3c-2.4 5.3-2.6 9 .5 12.7 2.1-3.8 2.9-7.7-.5-12.7zm-124.3 4.4c-.4-.8-2-.6-2.5.2-1.9 3.4-1.1 6.9.4 10.2.2.4 1.1.4 2.2.7 1.5-3.7 1.6-7.4-.1-11.1zm-173.4-85.3c-2.8 4.3-2.5 7.8 1.5 12.9 1-8 1-8-1.5-12.9zm442.4-48.4c-.6-4.1.6-8-3.4-12.7-1.2 9.5-1.2 9.5 3.4 12.7zm-226.5-104.9c-.1-1.5-.8-2.7-2.2-2.7-1.5 0-2 1.2-2.3 2.7-.2.9-.9 1.6-1.3 2.4.1.9.3 1.8.4 2.7 1.6.7 3.8.5 4 2.9h.9l.8-.3c-.1-2.5-.3-5.1-.3-7.7zm155.9 223.8c.1.9.5 1.8 1.8 1.9 1.2.1 1.9-.7 2-1.6.4-3.5.6-7-2.8-9.9-2 3.3-1.2 6.5-1 9.6zm-464.1-136.4c-2.9 0-2.3 2.6-2.3 4.4.1 2.1-.4 5.3 2.9 5 2.4-.2 1.5-3.1 1.8-4.9-.2-1.9.4-4.5-2.4-4.5zm517.6-3.2c-.4-.3-1.5-.3-1.8 0-2.9 2.9.4 5.9 0 9-.2 1.2.9 2.5 2.5 2.1 1.4-.4 1.9-1.6 1.7-3.2-1.5-2.3.1-5.8-2.4-7.9zm-537-10.3c-3.1 7.6-3.1 7.9 1.3 11.4 1.8-3.7.6-7.6.5-11.4-.5-.6-1.2-.6-1.8 0zm-11.2 9.1c.2.2 1.5-.1 1.7-.5 1.9-3.4 2-6.8-.9-9.8-.2-.2-.6-.2-2.2-.5.2 3.8-1.5 7.4 1.4 10.8zm253.8-20c1.7 0 1.8-2.4 1.3-4-.5-2 .7-5.2-2.6-5.5-2.4-.2-1.9 2-2 3.9 1.3 1.6-.8 5.6 3.3 5.6zm-193.1 69.5c0-1.8.7-4.5-2.1-4.6-3-.2-2 2.7-2.2 4.4-.1 1.9-.2 3.9 2.1 5.6 3-1.5 2.2-3.7 2.2-5.4zm82.2 29.6c-.1-3 0-6-.4-8.9-.2-1.2-1.9-2.3-3-1.1-1.9 2.2-1.1 5-.9 7.6.2 2.8 2.5 2.5 4.5 2.2l-.2.2zm-9.9-25.6c-2.1 0-1.9 2.1-1.9 3.7 0 1.8-.5 4.4 2 4.7 2.7.3 2.2-2.4 2.4-4.1-.2-1.9.1-4.4-2.5-4.3zm-98.9-4.9c.2.2 1.5 0 1.7-.4 1.5-3 1.8-6.1-.3-9.1-.1-.2-.6-.2-2.1-.6-1 3.6-2.1 7 .7 10.1zm-11.1-59.6c-3-.5-2.5 2.4-2.4 4.1 0 2-1 5.2 2.2 5.4 2.6.1 1.8-2.8 2-4.6-.3-1.8.8-4.5-1.8-4.9zm-31.8-12.2c-.1 1.6-.3 3.6 2 3.8 2.5.2 2.3-2 2.2-3.5-.1-2.2.9-4.7-1.7-6.8-3.5 1.8-2.4 4.4-2.5 6.5zm21.9 32.1c-2.7 0-2.1 2.8-2 4.6.1 2-1.1 5.2 2.4 5.2 2.8 0 1.7-2.9 2-4.5-.3-2.1 1.1-5.3-2.4-5.3zm545.9 72.8c-3.5 5.2-1.2 8.8 1 12.5 1.6-3.9 1.8-7.8-1-12.5zm-558.7-74.9c-2.1 0-1.8 2.4-1.7 3.9.1 2.1-1.1 5.3 1.9 5.8s2-2.6 2.4-4.8c-1-1.4 1.3-4.9-2.6-4.9zm41.8 12.1c-1.9.1-1.7 2.6-1.5 4.1.2 2-1.3 5.3 2 5.6 2.9.3 1.9-2.8 2.3-5.1-.9-1.3 1-4.9-2.8-4.6zm-66.3-68.1c-2.7-.5-2.8 2-2.7 3.9.1 2.1-.9 5.2 2.2 5.4 2.5.2 1.9-2.7 2.2-4.4-.3-1.8.7-4.5-1.7-4.9zm70 88.5c-.2-.2-1.5.1-1.7.4-2 3.6-1 6.8 3.2 11.1-.4-4.9 1.7-8.4-1.5-11.5zm-32.1-58.1c-.1-.3-1.5-.6-1.7-.4-2.8 2.7-1.3 6-1.1 9.2 0 .3.2.6.3.9h.9l.9.1c2.8-3.1 2.2-6.5.7-9.8zm551.8 45.6c-1.7 3.8-1.4 7.4.6 11.8 4.6-4.9.9-8.3-.6-11.8zm-576.7-28.4c0-1.6.1-3.6-2.1-3.6-3 0-2.1 2.6-2.2 4.3-.1 2.2-.3 4.7 3.3 5.4 1.5-2.2 1-4.2 1-6.1zm393.7-94.1c-2.3-.1-3.8.5-3.9 3.2-.1 2.5 1 3.5 3.5 3.5 2.8 0 3.1-1.8 3.4-3.9.2-2.2-1.2-2.7-3-2.8zm-115.7 54.4c5.9-1.4 6.2-2.9 1.9-9-3.1 2.6-1 6.1-1.7 9.2l-.2-.2zm272.1-21.7c-2.9-1.7-.1-5.9-3.2-7.6-4.8 7.1-4.5 8.2 2.9 10 .8-.7.9-1.5.3-2.4zm-566.6 28.2c-2.6.1-1.7 3-1.7 4.7 0 1.7-.8 4.4 1.8 4.7 3 .4 2.2-2.5 2.5-4.7-.9-1.3 1.1-4.9-2.6-4.7zm-7.8-18.4c-2.8.1-2 2.8-2 4.4 0 1.7-.7 4.4 2 4.4s2-2.7 2.2-4.4c-.2-1.7.7-4.5-2.2-4.4zm582.1-6.5c0 2.3-.6 4.8 1.8 6.3.4.3 1.5.2 1.8-.1 1.8-2 1.1-4.3.7-6.6-.3-1.3-1.3-2.3-3.6-2.9-.3 1.4-.7 2.3-.7 3.3zm-248.6-2.1c-.3-.3-2.3.2-2.5.7-1.3 3.6 1.1 6.3 3.1 9.2.5-3.4 2.2-6.9-.6-9.9zm-136.3 130.5c.4-1.3-.8-1.6-1.6-1.9-1-.4-2.4-.1-2.4.8.2 3.4-.4 7.3 4.6 10.7-.1-4.5-1.4-6.9-.6-9.6zm315.1-165.6c0-1 .1-1.9.1-2.9.1-2 .1-4.3-2.7-3.8-2.5.5-3.8 3.2-3.2 5.2.9 2.6 3.9 1.2 6 1.3l-.2.2zm6.9-9.3c-.1-.4-1.3-.8-1.6-.6-2.1 1.6-3.2 3.9-3.1 6.6 0 .3.3.6 1.1 2.2 2.9-2.5 4.7-4.7 3.6-8.2zm-230.1 150.9c-.4-.2-1.4.2-1.7.6-1.9 2.9 1.2 5.5.8 8.4-.1.7 1.4 1.3 2.4.9.9-.4 1.6-1.1 1.3-2.5-1.9-1.9.3-5.7-2.8-7.4zm-152.9 12.1c2.6.3.6 4.7 3.9 4.4 1.3-2.5.7-5.1.6-7.6 0-1.3-.4-2.6-2.2-2.4-1.6.2-1.9 1.5-2 2.8-.1 1-.1 1.9-.2 2.9.1.2-.1-.1-.1-.1zm458.9-55.3c-.3-2 .8-5.6-2.6-5.1-3.6.5-1.5 3.5-1.1 5.6.1.7.2 1.3.2 2 .2 1.6.1 3.6 2.5 3.2 2.7-.4 1.6-2.2 1.1-3.8.1-.6 0-1.3-.1-1.9zm-332.8 97.1c2.3 0 1.9-2.3 1.9-3.8 0-1.9.3-4.5-2.5-4.5-2.2 0-1.5 2.4-1.8 3.8.2 1.9-.4 4.5 2.4 4.5zm-135.2-22.7c-3.8 4.2-4.4 7.4 1.2 11.2.4-4.5 1.4-7.6-1.2-11.2zm472.5-69.1c1.8-4.2.4-7.4-2.6-12.2-2.1 6.1-.9 9.3 2.6 12.2zm-163.3 48.5c-.1-2.8.9-5.7-1.2-8.2-4.9 6.5-4.8 6.9 1.2 8.2zm-354.3-45.8c.1 1.6 0 3.5 2.4 3.2 1.6-.2 1.8-1.6 1.8-2.9-.1-1.8.5-4-3-4.9-1.4 1.3-1.3 3-1.2 4.6zm318.5-98.6c-.4 3.2-3.3 6.6.7 9.8 3.1-6.9 3.1-6.9-.9-9.7l.2-.1zm-12.9 6.7c.3.4 1.4.7 1.7.5 2.5-1.9 2-4.4 1.1-6.9-.1-.2-.4-.4-.8-.8-2.5 2-4.2 4-2 7.2zm24 1.1c-.2-.2-1.5-.1-1.8.3-1.8 2.6-2.2 5.2 1.5 8.2 2.1-3.3 2.3-5.9.3-8.5zm-115.3 230.3c-.3 0-.6 0-1 .1-3.5 1-3.3 3.5-2.3 6.1.3.9 1.3 1.7 2.3 1.3 2.8-1.3 1.4-3.8 1.3-5.8 0-.6-.4-1.2-.5-1.8 0-.1.2.1.2.1zm134.3-224.4c-.1 2.3-.4 4.5-.4 6.8 0 .8.5 1.8 1.8 1.8 1.5 0 2.6-.7 2.6-2.2 0-2.9.1-6.1-4.2-6.2l.2-.2zm.2 240.6c-1.6 0-2.1 1.2-2.2 2.5-.1 1.6-.2 3.5 1.7 4 2.3.6 2.2-1.5 2.6-3.3-.4-1 .4-3.1-2.1-3.2zm-36.2-240.5c-2.1.2-2.1 2.1-2 3.7.1 1.6.2 3.6 2.3 3.4 2.1-.2 1.6-2.3 1.9-4-.4-1.1.4-3.4-2.2-3.1zm79.9-5.6c-5.7 1-2.3-5.5-5.4-6.7-1.1 2.8-1.3 5.7-.8 8.6 2-.6 3.9-.7 5.8.3.1-.7.2-1.4.4-2.2zm-74.2-8.1c.5-.8 1.2-1.6 1.6-2.5.7-1.5 1.2-3.1-.1-4.5-.3-.3-1.2-.5-1.7-.3-2.3.8-2.7 2.6-2.2 4.7.3 1.4 1.3 2.2 2.6 2.5l-.2.1zm-413.8 24.4c.5-3.6 1-6.6-2.4-9.1-.4 5.2-.4 5.2 2.4 9.1zm604 37.7c4-2.6 2.3-6.1 1.5-9.5-.1-.2-1.4-.5-1.7-.3-3 2.6.9 5.4-.2 8.2-.2.5.4 1.2.6 1.8 0 0-.2-.1-.2-.2zm-202.6 202c0 1.7.5 3.3 2.5 3.3 1.6 0 1.8-1.5 1.8-2.8 0-1.7-.4-3.1-2.3-3.3-1.7.3-2 1.5-2 2.8zM1340 1252.4c.1.9.7 2.2 1.3 2.4 1.4.4 2.6-.3 2.8-1.9.2-1.4-.2-2.6-2-2.9-1.4 0-2.2 1-2.1 2.4zm-5.1-4.7c-1 0-1.5 1-1.5 2.1.1 1.6-.3 3.5 2 3.8 1.7.2 2-1.2 2-1.4.3-3.2-.5-4.5-2.5-4.5zm175-42.7c-1.5.3-2.1 1.4-2.1 2.9s.7 2.8 2.1 3c2.7.3 1.4-2.3 2.2-3.3-.3-1.3-.2-3-2.2-2.6zm-62.3 89c-.4 0-1.3.7-1.2.9.4 1.9 1.1 3.8 3.4 4 1.1.1 1.6-.7 1.9-2.3-.4-1.7-2.1-2.4-4.1-2.6zm349.1-93.2c1.7-4.9 2-8-.7-13.1-.9 5.3-.8 8.4.7 13.1zm-21.2-46.5c.7-2.8 1.7-4.9 1.7-6.9 0-2.1-1.7-2.3-3.4-1.4l-.3 2.4c-.1 1.8-.8 4 2 5.9zm4.9 4.3c-1.5 3-1.4 6-.3 9.1.6-.7 1.2-1.5 1.8-2.2-.1-2.3 1.4-5-1.5-6.9zm-43.8-18.9c-1.5 3.2-1.8 5.8 0 9.9 1.8-4 2.3-6.8 0-9.9zm-132.4-24c-.1 1.8 1.3 2.2 2.5 1.9 2-.5 1.6-2.4 1.4-3.9-.1-.7-.1-1.9-2-1.6-.9.8-1.8 2-1.9 3.6zm169.2 49.7c1-3.1 1-5.8-.7-10.3-1 6.2-1 6.2.7 10.3zm-486.9 100.2c-1.6-.2-2.3.9-2.2 2.3.1 1.7.9 3.3 2.6 3.3 1.6 0 1.2-1.7 1.4-3-.3-1-.1-2.5-1.8-2.6zm374.4-10.1c.4.2 1.6-.1 1.7-.4.8-2.4.1-4.3-2.9-5.7.3 2.3-1.7 4.5 1.2 6.1zm-235.3 33.8c-.1 1.3.2 2.5 1.9 2.4 1-.1 1.7-.6 1.8-1.6.2-1.5-.7-2.2-1.5-2.3-1.8-.3-2.2.7-2.2 1.5zm279.7-153c.3-1.3-.3-2.4-1.8-2.7-1.4-.3-1.7.7-2 1.5-.4 1.3 0 2.5 1.9 2.7 1 .1 1.7-.7 1.9-1.5zm28.3 229.7c.5-1.2.3-2.5-1.5-2.5-1.2 0-1.7.8-1.9 1.7-.3 1.1.4 1.7 1.4 2.4.5-.5 1.6-.9 2-1.6zm-51.9-258.2c1 0 2.1.3 2.9 0 1.4-.5 2-1.8 1.1-3.1-1.2-1.7-2.3-.2-3 .7-.5.6-.6 1.7-.8 2.6-.1 0-.2-.2-.2-.2zm6.4 159.2c-4.1.2-1.9 3.4-2 5.2 0 2.8 0 6.1 4.3 5.8 3.3-.2 2-2.4 1.6-4.6-.6-2.1 1.8-6.7-3.9-6.4zm13.6 7c-.7-3.8 1.7-8.4-3.3-11.8-1.3 5.1 1.3 8.3 3.5 11.7-.1 0-.2.1-.2.1z"/></svg>