<svg xmlns="http://www.w3.org/2000/svg" id="beard" viewBox="0 0 3000 3000"><path id="cl1" fill="#3D3B3B" d="M1491.9 1332c-1.3-8-6.1-14.1-10-20.8-1.8-3.1-3.6-3.9-6.1-2.9-3 1.2-1.6 4-.6 5.9 3.8 6.8 5.4 14.1 4.7 22-3.5.4-3.7-2.3-3.9-4.4-1.1-10.2-4.1-19.8-9.5-28.6-1.5-2.5-2.4-5.8-1.1-9.3 5 1.6 3.3 6.3 6.1 9-1.5-16.2 5.8-32.1.2-48.1 3.4-1.1 3.8.6 4.1 2.2 1.8 7.2 3.5 14.5 3.7 22 0 1.6.5 3.8-.4 4.8-6.4 7.2-1.3 13.2 2.6 18.3 5.9 7.9 9.2 17 13.3 25.7 1.6 3.4-.3 4-3.1 4.1v.1zm128.1-.8c.7-4.1-2.2-7.4-2.6-11.4-.4-3.2-4.7-4-5.5-1.3-1.9 6.3-6.4 6.1-11.7 5.7.7 4.7 1.5 8.9 1.9 13.1.9 9 .3 18.3 4.6 26.7.9 1.9-.6 2.7-1.4 4.1-1.9 3.5-.3 7.3 4.6 11.6-2.4-7.8 2.3-14.6-.7-21.5-.8-1.8.6-2.4 1.7-3.1 2.7-1.6 2 1 2.7 2.2 2.4 4.3 5 8.5 8.4 14.4 1.3-9.4-2.7-15.2-4.8-21.6-.4-1.2-1.4-1.8-2.9-2.2-3.1-.7-8.3-8.1-8.1-10.7.1-1 .4-2.2 1.6-1.6 3.4 1.7 4.1-1 6.1-2.8 3.4-3.1 3 1.4 4.1 2.8 3.9.1 2.6-2.3 2-4.4zm.2 18.2c.4 2.1.9 5.2 4.2 4.1 2.1-.6 4.4-2.2 3.3-5.1-1.9-4.9 1.3-7.8 4-10.9.5-.6.1-2.2 2.4-1.3 7.4 2.9 9.3 5.5 6.8 13.1-1.4 4.4-.3 7.7 2.6 11.9 1.7-5.8.8-10.7 2.2-15.5 1-3.4 2.3-8 .8-12.4-.8-2.5-2-4.1-3.5-6.2-2.4-3.4 4.4-.8 4.4-4 0-.7.1-1.3 0-2-.5-5.6-2-6.3-10.3-4.2-1 3 3.6 6.4-.1 8.9-3.8 2.5-3.5-4.3-7.7-3.6 1.3 5.1-7.1 6.3-4.9 12.5.6 1.6 2 4.4-1.2 4.5-3 0-1.3-3.1-1.6-4.7-.3-1.3-.5-2.6-1.6-3.5-.2 1.7-.4 3.5-2 4.6.7 4.7 1.3 9.3 2.2 13.8zm-198.1-18.9c1.1-1 3.5 1.4 3.9-1.2.5-3.5 2.5-2.6 3.9-1.2 1.9 2 3.6 5 1.6 7.3-1.7 2-2 2.2.7 2 1.8-.1 2.9 3 5.3.8-1.2-4.3-2.7-8.6-3.5-13.1-.6-3.8-6.1-3.3-5.8-7.4.7-9.6-4.4-16.9-9.5-24.2-.9-1.3-1.7-3.6 0-4.4.9-.4 1.9 3.3 4.9 1.8-1.4-3.7-1.4-7.7-4.1-11.4-2.9-3.8-4.5-8.8-3.7-14l.2.2c-3 .2-1.5-5.5-5.5-4.1-1.3 3.2-.1 6.3 1 9.4 1.9 5.4 5.6 10.4 2.1 16.7-1 1.7 0 4.7 1.5 6.5 4.7 5.4 4.7 12.9 8.5 18.7 1 1.5 1.2 4.1.4 4.6-5.3 3.8-1.4 8.7-1.8 13h-.1zm-168.4-122.7c4-2.7 6.1-8.4 3.1-9.8-6.3-2.9-8.6-11.9-17.3-11.4-.3 2.2-.4 4.2-.9 6.1-.5 1.5-1.2 3.2-3.3 3-2.1-.1-2.6-1.5-2.8-3.4-.4-4.5-3.3-8.3-3.2-13.2 0-2-.4-6-4-7.2-2 7.2-2 7.2 9.1 34 8.1 2.2 7.4-4.1 8.9-8.6-.4 3.8-.5 7.4 0 11 .1.9 1 1.7 2.2 1.5 1-.2 1.7-.5 2.1-1.6 1.1-3.3-1.6-6.2-.2-9.8-.1 4.9 8 3.6 6.4 9.5l-.1-.1zm242.7 75.9c-.9-2.4.4-2.9 1.1-3.9 2-2.8 2.1.3 2.9 1.2 1.1 1.1 3.3.8 3.1-.1-1.1-4.5 3.7-7.7 2.2-12.1-.7-2-1-3.7-3.9-2.4-4.3 1.9-6.3 1-8.4-3-1-2-.8-5.3-5.2-5 .9 4.5 1.4 8.6 3.4 12.5.8 1.7-.6 2.7-2.5 3.4-2.3.8-2.8 0-3.1-2-.2-1.4-.9-2.4-3.6-1.2 1.4 3.2-1.1 9.1 2.9 10 7.3 1.7 7.9 7.2 10.4 12.3 1.5 3.1.5 7.6 5.8 9.8 1.2-7.9-2.9-13.5-5.1-19.5zm-65.1-13.1c.4 7.4.7 14.8 1.3 22.2.7 8.6 3.5 16.5 6.5 24.6 1.2 3.3-.7 8.3 2.3 11 2.3 2.1 5.5 3.8 8.4 6.5.8-4.2.8-8.6-1.3-9.4-7.2-2.9-4.6-9-5.9-13.8-.3-1.3-.2-3.1-1-3.8-4.4-3.7-2.4-9.4-4.5-13.5s3.5-4.6 2.4-7.7c-2-5.4-2.8-11.3-5.6-16.4-.9.2-1.7.3-2.6.3zm350.7 3.1c-1.6 3.9.2 7.8-.1 11.7-.4 5.6 4.8 4.9 7.3 5.9 4.1 1.6.8-4.2 3.6-5.1 2.2 1.2.5 4.7 3.2 5.6.5.8 1.1.8 1.6 0 .8-10.8.7-21.5-4.5-32-3.3 2.9-3.8 6.1-3.6 9.9.2 3.4 2.7 8-1.1 9.8-3.8 1.8-2.4-5.8-6.5-5.6l.1-.2zm-4.5 22.5c.5-6.8-.7-13.2-3.4-20.3-2.9 4.7-7.8 7-6.2 12.5 1.8 6.1-1.3 8.7-6.7 8.9-3.7.2-3.6 2.2-3.1 4.6.4 2.2 1.3 4.4 1.8 5.8 11.9 4.7 9.8-10.4 17.6-11.5zm-451.2-33.9c.9-1.3.3-2.3-.8-3.1-2.5-3.7-3.7-7.3-1.9-12 2.4-6.5 6-13.4.4-20.3-.4-.5 0-2 .5-2.8 2.2-4.1-.4-7.4-.9-11.1-3.7.7-6 3.2-5.1 5.5 1.6 4.6-.5 10 3.5 14 1.8 1.7 3.2 4.5-1.3 5.6-1.8.5-1.3 2.8-1.2 4.4.1 2.6.4 4.9-.2 7.7-2.2 10.4 1.5 15.7 10.4 16.6.5-2.7.2-5.2-1.5-7.5-1.3.6-1 2.2-1.9 3zm-44.1-33.9c-1.1.7.2 3.7.6 5.6.6 2.6 2.9 4.2 3.3 7.1.3 2.8 6.1 3.5 8.2 1.2 4.4-4.8 4.4-6.8.2-14.4-.9 1.4-1.7 2.8-2.8 3.9-1.1 1.1-2.5 2.5-4.1.7-1.1-1.2-2.1-3.2-.7-4.4 6.6-5.2 2.2-10.1.1-17.2-3.2 7.2 1.8 13.6-4.8 17.5zm309.2 98.5c1.9 2.8.7 5.4 1.4 7.9-1.5.1-3.8-2.4-4.4.8-1.2 7.1 2.7 10.8 11.6 10.7-2.4-5.4-2.2-11-2.5-16.5-.2-5.7-3.6-9.8-7.3-15-.7 8.1-1.2 8.5 1.2 12.1zm-139.7-17.2c-1.7-2.3-3.9-4.4-5-6.9-1.7-3.8 3.6-3.6 4.6-6.9 1.3-4.2.8-7.5-.2-11.2-.4-1.5-2-1.4-3.3-.8l.1-.2c-5.8 3.3-7.2 9.4-6.2 14.5 1.3 6.6 5.3 12.7 8.3 19.4 2.7-3.1 1.8-5.6 1.4-8.1l.3.2zm369.2-98.4c4.6 4.3 4.2 8.4 3.3 13.3-.7 3.9.4 7.1 3.2 10.7 3.9-13.8 2.9-25.9-6.1-37.7-2.4 5.2-3.5 10.8-.4 13.7zm-340.5 76.7c.7 2.8 0 6.9 2.5 8.3 6.5 3.5 6.3 11.9 12.2 15.7 1 .6 1.1 3.3 3.2 2.7 1.9-.6 1.7-2.7 1.2-4.2-.7-2.1-.7-4.5-2.7-6.1-4.3-3.6-9.2-10.6-10.7-15.2-.5-1.7-1-3.1-3.3-3.2-1 .2-2.9.1-2.4 2zm-139.7-77.7c-1.3-.6-2.8.3-2.7 1.9.4 6.3 1 12.6 1.7 18.8.1.9 1.2 1.5 2.3 1.2.5-.2 1.1-.7 1.3-1.3.8-2.5-3.1-6 2.3-8 2.1-.8.5-5.7 3.4-8.3 2.3-2.1 1.7-6.1-1.7-9.2-2.6 1.7-1.3 7.6-6.6 4.9zm-4.2 36c1.6.6 1.9 2.9 4 2.5 1.9-.4 1.4-2 1.3-3.1-.2-4.6-1.1-8.9-4.5-12.9-4.6 7.2-11.8 13.2-4.4 22.9 1.3-3.6 2.4-6.5 3.6-9.4zm232.4 108.1c-.2 1.5.5 3.3 1.4 4.6.7 1.1 3.2.7 3-.2-1-3.8 2.8-6 2.7-8.4-.1-6.3-.2-13-4.6-18.9-3.3 7.4-1.4 15.3-2.5 22.9zm-166.8-46.4c-3.1-3.9 3.8-4.4 2.2-8.6-1.8-5.1-4.8-7.7-9.2-10.4-.7 11.3 2.8 20.5 8.2 29.4 1.1-3.7 1.1-7.5-1.2-10.4zm122-7.8c-1.5 2.6-.6 5.3.1 7.7 1.1 3.9 3.9 7.1.3 11.5-1.1 1.3.2 5.8 2.2 7.9 1.3 1.4 3.7.8 6.4-.3-3.2-18.4-4.4-21.7-9-26.8zm-211-38c-2.6 1.4-1.7 4.1-1 5.2 4.5 6.5 5.1 14.2 7.5 21.3.1.3 1.1.4 2.4.8-1.8-6.5 3.5-12 1.6-18.4-.4-1.5-.4-3.8-2.6-3.2-1.1.3-1.7 2.3-2.9 3.9-3.5-2.8-.8-7.9-5-9.6zm17.8-46.8c-5.8 4.1-1.8 8-.9 12.1.3 1.4 1.7 2.4 2.9 2 1.1-.3 2.5-1.7 2.5-2.7.2-7.5 1.8-15.2-1.2-24.1-3.9 5.1 0 10.3-3.3 12.7zm128.5 73c3.3-9.3-5.9-14.9-6.6-23-.2-1.9-.7-3.9-2.5-5.3-.9-.7-1.7-.8-2.7-.5.1 8.1 7.1 25.2 11.8 28.8zm-153.2-91.7c2.6-3.1 3.5-6.1-.2-8-3.1-1.6-4.3 1.5-4.9 4.2-.2.9-1.5 1.5-1.6 2.3-1 5.9-6.9 11.5.1 19.6.6-7.7 2.7-13.4 6.6-18.1zm475.6 77.2c-.2-3.2-1.1-6.5 1.8-9 3.3-2.8 2.5-6.4 1.8-9.9-.5-2.5-1.2-5-1.8-7.5l.2.2c-.7.1-1.4.1-2.1.2l.2-.2c-2.9 5.2-3.1 11.1-4.4 16.7-.8 3.6-.9 8.1 4.5 9.3l-.2.2zm-334.1 10c-1.5-5.8-3.2-11.3-7.1-16.4-3.8-5.1-7-11.9-10.3-13.9.6 3.2.3 6.5 1.7 8.8 4.1 6.4 8.6 12.6 11.4 19.7.7 1.9 2.7 1.5 4.4 1.7l-.1.1zm-233.2-94.9c-3.4-2.7-2.7-5.5-2.7-8.7 0-2.3.4-4.7-.8-6.8-.7-1.3-.4-3.7-2.7-3.4-2.9.4-2.5 3-2.1 4.7 1 4.4 3.5 8.7 3.4 13-.2 5.3 2.1 8.6 5.8 11.8-.3-3.7 2.1-8.2-.9-10.6zm532.6 133.3c3.6-.6 3-3.2 2.5-5.2-1.2-4.7-.4-10.1-3.3-14.2-1.2-1.7-4.8-1.9-6.7.5-.7.9-.2 2.4 1 3.4 3.9 3.1 6.3 8.6 4.2 9.5-7 3.3-2.1 7.4-2.3 11.1 5 .7 1.9-4.6 4.6-5.1zm-289.3 9.7c2.4.5 1.1 4.8 5.8 4.1-1.1-3.4-1-6.8.7-10.4 1-2.1.1-6.6-2.2-8.2-3.6-2.5-4.7-5.9-5.8-9.6-.4-1.4-1-2.5-2.6-2.1-2.1.5-1.5 2.6-2 4.1l-.2-.2c3.3 1.2 1.3 5.6 4.4 7.1 4.5 2.2 4.8 5.5 2.3 9.7-.9 1.4-.2 3.8-.2 5.8l-.2-.3zm-120.4-52.4c-.8-2.5-2.4-2.2-4.6-1.4-4.6 1.7-.7 7.1-4.5 9.5-1.5 1-.7 4.4.3 6.5.8 1.5 3.9 2.1 3.8 1.5-.3-5 6.1-6.5 6-9.3-.5-3.6-.5-5.3-1-6.8zm31.1-.8c3.2 2.9 4.5 5.6 5.8 9.1.5 1.3 1.5 2.1 3.6 1.3.6-3.5-.3-9-2.3-9.7-6.7-2.3-4.9-8.7-7.7-12.8-1-1.5-.3-4.1-4.1-4.6-1.1 6.7 1 13.4 4.7 16.7zm29-30.5c1.1-10.9 2.1-21.1-4.8-31.3-1.3 8.9 1.4 27.3 4.8 31.3zm164.8 107.4c.1-3.3 0-6.6-1.2-9.7-.5-1.3-1-2.4.3-3.5 5.1-4 2-7.6-.2-11.4-6.3 1.6-7.1 5.7-5.6 10.8 1.4 4.7 3.1 9.3 4.6 13.9.8.6 1.5.5 2.1-.1zm34.3-1.5c-8.8 7.5-8.8 7.5-3.5 16.9 7.5-7.7 7.5-7.7 3.5-16.9zm208.8-89.9c.1 2.3 1.1 5.2 0 6.8-5.7 8.5 1.4 13 5.3 20.8.7-5 2.1-8.1-.5-10.3-3.1-2.5-2-4.4-1.1-7.5.9-3.4 3.1-8.5-2.6-10.8-1.1-.4-1.5-.1-1.1 1zm12 1.2c5.7-4.6 1.6-9.4.2-14-.5-1.6-1.2-4.4-3.8-3.2-2.3 1-3.1 2.7-3.5 5.9-.9 6.7 6.9 6.6 7.4 11.5l-.3-.2zm-34.1 37.8c-.8-1.9-2.6-.9-2.9.1-1.3 4.1-1.7 8.3-.5 12.6 1 3.9 4.7 2.6 7.6 3.7 2-7-2.2-11.4-4.2-16.4zm-215.4.8c.1-.9-.9-1.8-2-1.8-1 0-1.9.6-1.8 1.8.5 7.3 1.1 14.6 1.8 21.9.1 1.3 1.2 2.3 3.2 2 2.8-8-1.9-15.8-1.2-23.9zm-25.8 19.9c-.8-3-2.7-2.3-4.1-.4-1.1 1.5-1.6 3-1.1 5.3 1.2 5.2 3.5 9.4 9.3 12-1.3-5.6-2.6-11.3-4.1-16.9zm18.1 37.5c2.9 5.4 6 10.8 9.1 16.2.1.1.6 0 .9 0 .9-.6.9-1.4.9-2.4.2-8-6-13-8.8-19.6-.7.1-1.3.1-2 .2-.7 1.8-1 3.8-.1 5.6zm22.5-9.8c.5 1.5.3 4.6 3.2 3.8 2.1-.6 4.3-1.7 3.8-4.7-.7-4.2-2.2-8.2-4.4-11.8-.5-.8-1.2-1.5-2.4-1.1-1.1.4-1.3 1.3-1.4 2.2-.1 1.3 0 2.6 0 5.7.2.9.4 3.5 1.2 5.9zm200.8-104.2c4 1.8 6.5 5.5 9.8 8.7 1.4-4.1.8-7.4-.7-10.3-1.5-2.9-1.8-8.1-6.9-6.6-4.3 1.3-1.3 5.6-2.1 8.4.1 0-.1-.2-.1-.2zm-377.9 10.7c-.2-1.1-.8-1.7-1.8-2-1.1-.4-2.3.5-2.2 1.3.6 5.8-5 11.5.3 17.9 5.8-5.2 4.7-11.1 3.7-17.2zm-60.3-20.5c.6 6.1 6.1 10.2 6.9 16.3 0 .3 1.1.7 1.6.7 1.7-.3 1.8-1.6 1.6-3-1-7-5.9-12.2-7.9-18.7-2.6 1.4-2.4 3.2-2.2 4.7zm-.9 64.8c.8 1.4 2.1 2.5 4 1.5 1.2-.6 2.4-1.3 2.2-2.8-.6-4.4-.5-9.2-5.5-12-3.5 4.8-3.1 9.1-.7 13.3zm161.6 7c-5.7 5.3-5.5 10.6-.4 17.3 3.9-6.5 5.3-11.8.4-17.3zm-67.8-57.3c.5 1.5.8 3.3 2.8 3.6 3.5.6 1.4-2.7 2.7-3.9 4.2-3.9.8-7.6-.7-13.9-3.7 5.8-6.5 9.2-4.8 14.2zm64.5 78.4c-.3-2.2.3-6.6-3-6.2-3.8.4-1.4 3.8-.8 6 .5 1.9-1.1 3-1.3 4.3-.5 4-.8 8.3 4.6 11.9-1.2-6.2 1.2-11.1.5-16zm16.7-10.2c.7-9.8.7-9.8-7.1-12.6-.7 9.7-.7 9.7 7.1 12.6zm-164.5-80.3c4.4-11.8 4.2-12.9-2.6-18.5-.1 6.6-2.6 12.7 2.6 18.5zm185.1 70.6c3.8-8.7-4.4-13-7.3-19.2-3 8.7 6.5 12.1 7.3 19.2zm259.4.5c.5-6.7 1.6-13.2-1.9-19.4h-1.6c-2.8 7.3-1.4 15.5 3.5 19.4zm7-47.9c-2.9-6.6-3.7-14.1-10-21.2-.3 8.8 2.5 15 5.3 21 .4.8 2.4.8 3.6 1.2.4-.4.8-.7 1.1-1zm-54.3 41.4c.7 5.1 1.3 10.3 2.3 15.4.3 1.7 1.8 3 3.7 2.6 1.5-.3 1.9-2 1.4-3.2-1.8-5-1.6-10.9-5-15.3-.8.1-1.6.3-2.4.5zm-93.9 18.4c0-4.3-2.5-7.3-5.9-9.5-.3-.2-2.1 1-2.1 1.6-.4 4-.6 8 2.9 11 1.2 1 2.7 2 4.5 1.6 1.3-1.4.6-3.1.6-4.7zm-143.3 4.4c-3.8 7.3-3.8 7.3 1.1 15.3 3.6-6.9 3.5-8-1.1-15.3zm188.5 35.8c.8 1.3 1.4 2.1 2.9 1.4 1-.5 1-1.5 1-2.5 0-6.3-3.9-9.9-8.8-12.9-4.2 6.9 2.3 9.7 4.9 14zm74.7-44c0-2.3 1.4-6.2-1.7-7-4.9-1.3-1.9 3.5-3.2 5.2-.6.8-1.6 1.2-2.1 2-2.1 3.7-2.4 7.3 2.2 11.1.4-4.8 4.8-7.1 4.8-11.3zm-98.4-12.2c.4 1.9.8 4.2 3.4 3.7 2.1-.4 3.4-1.9 2.9-4.3-.2-1-.2-2-.5-2.9-.9-3.2-.6-9.2-3.3-8.9-4.2.5-1.3 6.3-3.1 8.9.4 1.6.4 2.5.6 3.5zm141.5-70.7c-.5-7.1 3.5-14.6-2.8-20.9 1.8 7-3.9 14.8 2.8 20.9zm-585.9-12.8c7.9-1.9 7.9-1.9 5.6-11.1-7.9 1.4-7.9 1.4-5.6 11.1zm478.5 123.2c3-8.4-3.6-13.1-6.7-19.2-3.1 8.6 5.1 12.5 6.7 19.2zm-401.9-148.2c-4.6 2.1-2.4 6.1-2.3 9.4 0 1.5 1.8 2.5 2.8 1.6 2.2-2 2.8-5.1 5-7.4 1.7-1.8 1.5-6.3-1.8-8.6-3.5.1-1.5 4-3.7 5zm49.2 96.8c-.1 7.3 2.6 13 7.3 19 .6-8.6-1.7-14.5-7.3-19zm86.8-54.3c.2 1.1 1.8 1 2.5.4.6-.5 1-1.7 1-2.5-.4-5.7-4.6-9.2-8.3-14.4-4.2 8.3 3.8 11.2 4.8 16.5zm98.1 77.1c.3 3.6 1.8 6.2 5.7 6.7 1.6.2 2.5-.9 2.3-2.3-.3-3.3.7-7.4-3.9-8.9-1.1-.4-2.4-.3-4.5-.6.2 2.6.3 3.8.4 5.1zm-24 30.7c-.3-.9-1-1.7-2.2-1.3-1.7.5-1.8 1.7-1.4 3 1.5 5.2 2.3 10.8 8.1 15.8.6-7.7-2.8-12.4-4.5-17.5zm-100.9-107.3c-.9 12 .7 17.9 6 22.8-1.1-7.8-1.3-14.8-6-22.8zm255.9 89.5c-8 3.8-3.5 8.9-3 15.1 7.4-5.2 4.2-9.9 3-15.1zm-254.8-.4c-3.4-2.2-1-7.9-5.7-9.3-.4.4-1 .8-1.3 1.3-1 1.8-4.9.4-4 4.3.8 3.2 2.9 3.7 5.5 4.5 2.3.7 3.7 0 5.4-.9 0-.1.1.1.1.1zm-160.1-128.9c-1 8.2-1.8 14.9 2.4 21.2 1.5-6.9 2.4-13.7-2.4-21.2zm145.6 103.5c1.7 4.5.7 10.4 7.5 11.4.6-9.8-.2-11.1-7.5-11.4zm84.2 26.7c-1.6-.2-3.8-.7-4.1 1.3-.9 5.1-.5 10.1 4.2 14.3 4.1-6-1-10.8-.3-15.8 0 .1.2.2.2.2zm-122-104.5c-2.5 7.8 2.1 12.3 5.6 19.1 2.7-8.8-1.5-13.4-5.6-19.1zm159.5 107.8c-.1-.6-1.6-1.2-2.4-1.2-.9.1-1.6 1-1.3 2.1 1.4 5.2 1.5 10.8 5.8 15.2 2-5.7-.9-10.8-2.1-16.1zm163.2-36.2c-4.2 4.3-4.3 8.9-1.2 14.3 5.7-9.1 5.7-9.1 1.2-14.3zm-290.1-16.7c.5 3.3.1 7.1 3.5 9.3.7.4 2.4.5 2.8 0 2.7-3.1 0-6-.5-8.9-.3-1.7-1.2-3-3.4-2.8-1.2.3-2.6 1.1-2.4 2.4zm267.7 31.4c-.2-2.1-1.3-4.1-3.5-3.8-4.2.5-.9 3.5-1.3 5.2-.3 1.5.3 3.2.6 4.8.3 2 .7 4.1 3.5 3.3 1.8-.5 2.2-2.2 2.1-4.4-1-1.2-1.2-3.1-1.4-5.1zm160.1-114.6c4-3.5 2-7.1.4-10.7-.4-.8-1.7-1.2-2.5-.4-2.5 2.6-3.1 5.7-2.2 9.1.3 1.2 1.1 2.3 1.6 3.2 1.6.2 2-.6 2.7-1.2zm-135 139.8c3 .2 2.6-2.7 2.2-4.3-.8-2.9-.1-7.1-4.8-7.3-1.9-.1-2.8 1.3-2.4 3.4 1.6 2.7-.2 7.8 5 8.2zm-332.9-113.4c2 .2 4-1.8 3.6-3.8-.5-2.7 1.1-6.2-2.4-8-1.1-.5-1.9.3-2.6.9-1.4 1.2-1.7 2.8-1.4 4.6 1.3 1.9-1.1 5.8 2.8 6.3zm379 122.3c.2.9.6 2 1.9 1.7.6-.1 1.6-.6 1.5-.8-1.1-5.7 0-11.9-3.9-17.1-2.1 5.6-.5 10.9.5 16.2zm-87-8.9c.8 2.9-.5 7.2 3.3 8.5 2.2.8 3.5-1.6 3.7-3.6.4-3.3-.8-6.2-2.8-9-2.4.9-4.7 2.3-4.2 4.1zm30.3 14.7c-.6 5.8-3.2 11.9 2.7 18.3.3-7.3 2.4-13.4-2.7-18.3zm-306.2-102.3c-1.5 9.3-1.5 9.3 2.3 16.1.6-5.3 3.7-11.2-2.3-16.1zm1.5 44.4c1.6 6 1.7 11.4 6.2 18 .2-11.7-.6-13.9-6.2-18zm-122.5-71.4c-.2 5.1-.6 10.1 5.5 12.3 1.3-9.1 1.3-9.1-5.5-12.3zm135.2 52.4c.3 1 1.6 2.2 3.2 1.9 1.6-.4 2.1-1.8 1.7-3-.9-3.3-.3-7.4-5.5-9.9-1.5 4.1-.5 7.6.6 11zm-168.4-69.3c-.1-2.8 1-6.2-2.7-7.8-1.4-.6-2.9-.1-3.2 1.2-.9 3.5-.2 6.6 3.1 8.7.5.3 1.2.4 2 .6.2-.9.8-1.8.8-2.7zm135.2 96.2c-1.8-2.4 0-8.1-4.5-7.5-3.3.4.7 5.5-1 6.7-5.4 4-2.7 3.6 1.4 3.4 1.2 0 2.4.9 4.2-.1-.1-1.2.2-2.1-.1-2.5zm358.6 4.2c-.7-.4-2 .2-2.2 1.3-.3 1.5.4 2.7 1.6 3.3 2.5 1.2 5.2 2.1 7.9 1.9 1.4-2.8.4-5-.2-7.6-2.9.1-4.6 2.6-7.1 1.1zm-412.8-76.7c0-.6-1.4-1.3-2.2-1.4-1.1-.2-1.7 1-1.6 1.8.6 4.7-.1 9.7 4.3 15.2 1.3-6.2-.1-10.9-.5-15.6zm5.8-2.3c2.4-7.9-.6-12.4-4.7-17.7-2.6 7.5 1.4 11.6 4.7 17.7zm215.6 68.8c.6-.1 1.3-.2 1.9-.4 1.2-.5 1.1-1.6.8-2.5-1.6-5.1-5.2-8.7-9-12.6-3.3 7.8 5.2 10.1 6.3 15.5zm236.7 40.5c.3.9.9 1.7 2.1 1.5 1.1-.2 2.1-1.1 1.8-1.9-1.6-4 .6-9.5-5.2-12.5-1.4 4.9-.1 8.9 1.3 12.9zm-222.3 19.2c.1.3 1.6.5 1.7.3 2.8-4.2-.9-7.9-1.2-11.9-.1-.8-.8-1.8-2.8-1.4-1.5 4.6.8 8.8 2.3 13zm215-17.2c2-5.5 2.7-9.4-2.5-14.7-.5 6.2-1 10.1 2.5 14.7zm-295.2-42.3c-.2-.4-1.1-.7-1.7-.7-1 .1-1.7.7-1.6 1.9.4 3.7.9 7.5 6.2 11.4-.7-5.5-1.3-9.1-2.9-12.6zm264.4 24.4c-.1-.1-1.6.1-1.6.3-.9 3.5-.7 6.9.3 10.4.2.6.7 1.1 2.1 3.1 2.8-5.8.9-9.8-.8-13.8zm-2 28.4c-.4-3.7 3-8.1-4-11.6.5 5.2-.8 9.3 4 11.6zm-333-91.6c-.5-5.8-.5-9.9-4.5-13.2.7 3.9-1.9 8.9 4.5 13.2zm-166.1-89.1c3-4 2.2-8 1.1-13.7-4.7 7.4-4.8 7.9-1.1 13.7zm11.2-1.1c-1.9 5.2-2.3 8.5.5 13.9 2.5-5.4 2.9-8.7-.5-13.9zm15.9 16c.2.2 1.5 0 1.7-.4 1.7-3.1 1.4-6.2-.2-9.3-.1-.2-.5-.2-2.1-.7-.9 3.8-2.1 7.2.6 10.4zm46.8 71.8c.3 1.8 1.1 3.3 3.2 3 3.1-.5 2.2-2.5 1.5-4.4-.4-.9-.4-1.9-.6-2.9-.3-1.8-1.1-3.3-3.2-2.8-1.5.4-1.5 1.9-1.5 2.7.2 1.8.4 3.1.6 4.4zm95.1-7.6c.1 5-.1 8.7 3.6 11.6.6-3.8 1.7-7.9-3.6-11.6zm-166-46.6c-2.3.1-1.8 3.1-1.7 4.9 0 2.2-.3 5.2 2.7 5.4 2.6.1 2.1-2.6 2.3-4.6-.9-2 .6-5.9-3.3-5.7zm432.5 167.3c.6 4.2-.6 9 4.5 11.5-1.3-3.9 3.4-10.1-4.7-11.3l.2-.2zm-309.1-82.9c.2.3 1.6.2 1.7-.1 1.4-3.9 0-7.3-1.8-10.6-.1-.2-.6-.1-2.4-.5-.6 4.3-.1 8 2.5 11.2zm14.7-3.9c.5 5.2 0 9.4 5 11.7-1-3.7 1.3-8.5-5-11.7zm139.8 72.3c5.6 2 5.7-1.3 4.4-5-.8-2.2-.3-6.6-3.6-6-4.2.8-.5 4.1-.5 6.3-.1 1.6.9 3.2-.1 4.8l-.2-.1zm-38.3-66.6c.3.3 1.7.1 1.7 0 .8-3.7.4-7.2-1.8-10.4-.3-.4-1.1-.4-2.7-.9-.4 4.7-.4 8.4 2.8 11.3zm324.5-67.2c-2-2 .5-6.4-3.7-7.3-.5-.1-1.4.2-1.6.6-1.5 3.4.2 6.4 1.4 9.4.1.3.4.6.6.8 2.6 1.2 3.5-.3 4-2.5-.2-.4-.4-.7-.7-1zm-544-5.3c-3.8.5-1.2 4.3-1.5 6.5-.1.9 0 2.1.4 2.9.4.7 1.5 1.4 2.3 1.4 1 .1 1.6-.9 1.6-2v-3.3c-.9-1.7 1.6-6-2.8-5.5zm423.5 144.4c.2.3 1.5.4 1.7.1 3-3.9-.1-7.4-.8-11 0-.2-.5-.4-2.1-1.8-1.2 5.2-1.3 9.1 1.2 12.7zm-212.9-28.4c-2.9-.9-.9-6.4-5.5-5.7-1.8 3.8.5 7 1.9 10.1.8 1.8 2.8 1.5 3.3-.8.3-1.2.1-2.6.1-3.9.1.1.2.3.2.3zm-54.6-104.2c.2 1.3.7 2.8 2.3 2.8 2.4 0 2.3-2 2.2-3.6-.1-1.6-.8-3.2-1.2-4.8-.3-1.2-.5-2.8-2.4-2.3-1.5.4-1.9 1.6-1.6 3 .2 1.7.4 3.3.7 4.9zm-68.1 34.1c.8 3.8-.6 8 4.1 11.6 1.1-10.2 1.1-10.2-4.1-11.6zm28.6-12.6c3 .8 1 6.3 5.5 5.8 1.1-3.2.8-6.5-.8-9.4-2.8-4.7-2.9.9-4.4 1.3-.7.7-.8 1.4-.3 2.3zm-40.1-39.8c2.1.4 3-1.6 2.3-3.1-1-2.3 1.5-6.5-3.1-6.9-2.4-.2-1.6 2.2-1.5 3.8.7 2.1-1.5 5.5 2.3 6.2zm186.7 77.3c-.5 6.2-.4 6.2 3.5 10.3-.8-3.3 2.2-8-3.5-10.3zm226.9 34.2c-.1-.7-1.2-1.4-2-1.7-1.2-.5-1.7.6-1.9 1.5-.5 3.2-.3 6.2 3.1 10.9 1.5-5 1.4-7.9.8-10.7zm-469.1-131.6c-.9 4-1.7 7.9.7 12.1 3.9-6.4 3.9-6.7-.9-11.9l.2-.2zm-49 5c.3.4 1.5.6 1.7.4 2.5-2.8 1.7-5.9.4-9-.1-.3-.4-.5-1.8-2.4-1.8 4.7-2.6 7.8-.3 11zm-1.7-20.7c2.5-3 3.4-6.4 2.3-10.2-.3-1-1.1-1.4-2.2-1.6-1.4-.2-1.9.9-1.9 1.7-.1 3.3-.1 6.6-.1 9.9.5.7 1.2.8 1.9.2zm246 83.2c.4-4.6 1-8.8-4.5-10.7 1.4 3.5-1.3 8.4 4.5 10.7zm-279.9-115.6c0 1.2.2 2.8 1.9 2.9 1.4.1 2.8-1 2.6-2.4-.2-2.4.8-5.3-2.6-7.6-2 2.5-2 4.8-1.9 7.1zm506.1 199.9c-.7 4.7-.4 8.2 2.5 11.2 1.7-3.8 2.4-7.5-2.5-11.2zm-111.5-17.4c-1.6 4.2-.7 7.6 2.5 10.8 0-3.6 2.9-8-2.5-10.8zm215.8-85.1c.1.7.8.9 1.6.6.9-.4 2.1-1 1.7-2-1.2-3-.4-6.5-3.7-10.4-3 4.9-.3 8.3.4 11.8zm-339.3 15.4c-.7-4 .2-7.9-4.1-10.1.2 3.5-2.6 8.3 4.1 10.1zm-42.4-23.1c-.2-.1-.7 0-.9.2-3 3.1.5 6.1.3 9.2-.1.8 1.1 1.6 2.2 1.2.9-.3 1.8-.8 1.6-2.6-1.1-2.3.4-6.2-3.2-8zm169.8 82.1c.1-2.2-1.4-3.8-3.7-3.5-3.6.5-.9 2.9-.9 4.4-.1 2.7 1.3 4.8 4.4 6.4 1.8-3 .1-5.1.2-7.3zm197.1-83.8c.2.2 1.5-.4 1.5-.8.8-3.6-.3-6.8-2.2-9.8-.2-.4-1.1-.3-2.3-.6.2 4.2-.4 8.2 3 11.2zm-419.4 62.1c.2.4 1 .8 1.5.7.6-.1 1.6-.8 1.6-.9-1.4-3.3.5-8.1-4.6-10.2-1.5 4-.1 7.2 1.5 10.4zm-18.8-29.8c.4 1.5.4 3.7 2.7 3.2 2.2-.4 1.8-2.1 1.2-3.8-.5-1.5-.6-3.2-1-4.8-.3-1.4-1-2.5-2.6-2.3-1.7.3-1.7 1.6-1.4 4.4.2.2.7 1.7 1.1 3.3zm493.9-58.7c-.5-.8-1.9-1.1-2.4-.4-2.3 2.9-1 6.1-.5 9.2.1.3.2.6.8 2.3 3.3-4.1 4.5-7.3 2.1-11.1zm-175.3 166.8c.6-3.6-.9-6.9-1.4-10.4-.1-.9-.8-1.8-2.1-1.5-.9.2-2.2.6-1.7 1.7 1.4 3.5-.7 9 5.4 10l-.2.2zm51.7-10.2c-2.9 4.7.6 7.7 2 11.2.9-3.8 2.2-7.9-2-11.2zm-171.3 1.9c-.3-.2-1.6.5-1.6.7.5 3.6-.1 7.7 3.8 10 .2.1.6 0 2.1 0-1.4-3.8-.3-8-4.3-10.7zm8.8-27c1.3 3.5-.8 8.3 5.2 10.8.2-5 .3-9-5.2-10.8zm-142.8-81.4c.3.4 1.2.5 1.7.4.6-.1 1.5-1 1.5-1-1.7-2.8.6-7.3-4-9.5-1.9 4-1.6 7.2.8 10.1zm-129.5 7.5c-1.2-3.4 1-7.9-4.7-10.6-.3 5.1-.1 8.9 4.7 10.6zm13.6-5c-.9 4.7-1.5 8.5 3.2 11.8 1.1-4.7 1.6-8.6-3.2-11.8zm125.7 10c1.2-.2 3 .7 3.5-.9 1-3.6-.1-6.8-4.4-9.1l1.2 10.2c-.1 0-.3-.2-.3-.2zm68.1.5c.5-4.4.7-7.9-3.4-10.4-.1 3.6-2 7.8 3.4 10.4zm-180-47.2c-.1-1.4-.5-2.7-2.1-2.8-2.6-.2-2.1 1.8-2.1 3.4 0 1 .2 2 .2 3 .1 1.8.5 3.6 2.6 3.3 2.2-.3 1.6-2.3 1.4-3.9 0-1.1.1-2.1 0-3zm88.3 70.7c-.6-4.9.9-9-5.8-13.4 2 5.5-.6 9.9 5.8 13.4zm335 59.8c.2.2 1.5 0 1.6-.3 1.7-3.8.9-7.3-3-11.3-.6 4.6-1.4 8.3 1.4 11.6zm64.9-53c-.2-.8-.8-1.7-2.1-1.5-1.5.3-2.2 1.3-2 2.7.3 2.2.8 4.4 1.3 6.6.4 1.6 1.7 1.8 3 1.5.9-.2 1.7-.8 1.6-2.8-1.3-1.4-1.2-4.1-1.8-6.5zm-591.9-156.4c-.1-1.5.4-3.6-1.8-3.9-2.2-.2-2.5 1.7-2.4 3.4.2 2.1-1.1 4.6 2.3 6.3 2-1.9 2-3.9 1.9-5.8zm-8.7 9.4c2.9 0 2.2-2.8 2.2-4.6 0-1.8.7-4.6-2.2-4.6-2.8 0-1.8 2.8-2.1 4.6.3 1.8-.8 4.6 2.1 4.6zm11.3 2.8c-.2-.4-1.3-.8-1.6-.6-3.5 2.3-1.7 5.6-1.4 8.6 0 .4.8.7 1.8 1.4 2.9-2.8 2.6-6 1.2-9.4zm8.8 13.2c.3.2 1.4-.1 1.6-.5 1.6-3.1.9-6-1.8-8.8-.9 3.2-3.4 6.4.2 9.3zm66.5 11.7c0 2.2-.9 4.6 1.2 6.4.4.3 1.5.4 1.8.1 2.2-2.1 1.4-4.8.9-7.3-.2-.9-.8-1.7-3.1-1.9-.3.9-.9 1.8-.8 2.7zm9.1 23.9c.2.4 1.4.7 1.7.5 2.9-2 .8-4.7.8-7 0-.9-.5-1.8-1-3.4-4 3.1-3.1 6.5-1.5 9.9zm-8.1 1.9c.2.4 1.4.7 1.7.5 2.8-1.9.9-4.6.9-7 0-.9-.5-1.8-1-3.3-4.1 3-3 6.4-1.6 9.8zm276.6 151.2c-.3-.2-1.5.2-1.6.6-.8 3.6-.5 7 2.5 9.7.2.2.6.1 1.3.3.2-3.9 1.5-7.7-2.2-10.6zm256.3-149.7c-.2 3.7-1.6 7.7 3.1 10.5.5-5.8.5-5.8-3.1-10.5zm-457.4 11.7c1.3-4 2-7.3-2.2-12.4-.9 5.6-2.7 9.3 2.2 12.4zm437.5 6.2c1.2.9 1.4 3.3 3.5 2.9 1.9-.4 1.2-2.2 1-3.3-.6-3 .2-6.9-4.2-8.1-2.2 2.3-.9 5-1 7.5.2.3.5.7.7 1zm-216 135.2c-1 5-1.4 9 3.1 11.8.4-4.1.8-8.1-3.1-11.8zm-162.3-140.1c-.6 4.1-.9 7.3 3.1 9.5.5-3.3 2.6-6.8-3.1-9.5zm-144.6 8c-2 4.7-1.8 8.1 3 12.6 0-5.6.9-9.3-3-12.6zm93.8 15.1c-.1-.5-1.9-1.1-2.5-.8-1.6 1-1.4 2.7-.9 4.2.8 2.2-1.3 6.7 4.1 5.4.1-.8.2-1.5.3-2.3-.2-2.1-.4-4.3-1-6.5zm274 141.9c1.5-5 .6-8.6-3.3-13.8-.3 6-1.1 10 3.3 13.8zm-359.5-141.3c0 4.9-1.2 8.7 4.5 12.7-.7-5.5 1-9.5-4.5-12.7zm401 128.5c-1.1 4.4-1.3 8 3.4 11.8.5-5.2 1.3-8.9-3.4-11.8zm-400.2-135.5c0-2.2.4-4.7-1.7-6.3-.3-.2-1.4 0-1.7.3-2 2.4-1.4 4.9-.1 7.3.5.8 1 1.6 2.5 4.1.7-3.5 1-4.4 1-5.4zm-5.9-20.7c-1.6 3.8-1.2 7 1.5 12.1 2.3-5.8 2.6-9.1-1.5-12.1zm6.7-2.1c-1.4 4.3-2 7.6 2.9 11.5.4-5.2.9-8.5-2.9-11.5zm524.8 9c-.2-4.7 1.5-8.7-3.7-11.4-.9 4.5-.7 7.9 3.7 11.4zm-550-12.5c-6.3 1.1-1.7 5.7-2.6 8.4-.3 1 .3 2.7 2 2.7 1.8 0 1.9-1.4 1.8-2.7-.4-2.9-.9-5.7-1.3-8.6l.1.2zm213.9 31.4c.3 4.1-.8 7.6 4.3 12 .1-5.6 1.2-9.4-4.3-12zm373.7-49c.3-1.4-.8-2.4-2.3-2.4-1.8-.1-3.6.6-3 2.7.6 2.1.7 4.5 2.9 6.2.8-2.2 1.8-4.3 2.4-6.5zm-103.1 163.4c-.1-3.8 0-7.1-3.2-12-1 8.2-1 8.2 3.2 12zM1312.3 1242c-.3-1.2-.3-2.8-2.2-2.4-2.8.5-1.1 2.3-1 3.6.2 1.3.1 2.6.4 3.9.2 1.2.3 2.8 2.2 2.5 1.7-.2 1.8-1.5 1.8-2.6-.4-1.8-.8-3.4-1.2-5zm493.4-1.9c.1.9.8 1.9 2.1 1.5 1-.3 2.1-.9 1.6-2-1.2-2.5-.3-5.9-4.3-9.1-1.2 4.1.4 6.8.6 9.6zm-155.7 121c-.2-.9-.8-1.8-2.1-1.5-1 .3-2 .7-1.8 1.8.5 2.5 1.1 5 1.8 7.5.2.8.9.9 1.6.7 1-.3 1.8-.7 1.8-1.4-.4-2.6-.7-4.9-1.3-7.1zm-263.9-121.7c3-2.3-.3-4.8.1-7.3.2-1.3-.5-2.6-2.3-2.4-.3 0-.7.1-.9.3-1.5 1.5.1 8.9 2.1 9.5.3-.1.8 0 1-.1zm232.8 143.3c-.8-1.6.3-4.4-2.5-4.7-1.7-.2-2.5 1.2-1.9 2.5.9 1.8 0 4.9 2.4 5.2 3-.4 2.6-1.9 2-3zm-83.7-16.6c1.5-4.5.8-7.8-2.9-11-1.3 4.5-1.1 7.9 2.9 11zm-155.5-144c.1.9.6 1.9 1.9 1.6 1-.2 2.2-.7 1.7-1.7-1.2-2.6 0-6.3-4.5-9 .4 3.8.5 6.5.9 9.1zm324 93.7c.3.2 1.5 0 1.6-.2 1-2.8 1.2-5.4-1.5-7.5-.2-.2-.6-.2-1.5-.3-.7 2.8-1.6 5.6 1.4 8zm-244.5 29.3c-.7-1.9 0-5-3.4-5.1-1 0-1.9.6-1.7 1.9.4 2.2.8 4.5 3.4 5.3 1.3-.4 2.1-1.1 1.7-2.1zm259.6 20.5c.2.2 1.6-.1 1.7-.4.8-3.4.1-6.5-2.7-9.3 0 3.2-1.6 6.7 1 9.7zm62.9-117.7c.2-3.6 1.6-7.6-3.4-9.4 3.9 2.1-2.9 8 3.6 9.1 0 .1-.2.3-.2.3zm-564.4-63.3c1.3-4.4 1.5-7.6.2-10.7-.7.1-1.3 0-1.9-.1-1.8 3.7-.5 6.8 1.7 10.8zm135.4 14.1c-1.3-.2-3.1.3-2.7 1.9.4 1.8 1.8 3.5 4.1 3.2.9-.1 1.8-.8 1.6-2.3.2-1.8-1.3-2.6-3-2.8zm152.6 156.8c-1.4 2.8-2.6 5.6 1 7.7.4.2 1.6 0 1.7-.2 1.2-2.9-.3-4.9-2.3-6.8-.2-.2-.4-.5-.6-.8 0-.1.2.1.2.1zm-211.5-149c-.1-.4-1-.9-1.5-.9-1-.1-2.2.5-1.9 1.6.8 2.4-.2 5.6 2.9 7.5 1.4-3 1.3-5.6.5-8.2zm67.8-5.8c-.3 1.9-.6 4 1.8 4.9 1.2.4 1.9-.5 2.1-1.4.3-1.9.9-4-2.1-4.8-1.1-.7-1.6.5-1.8 1.3zm72.4 27.8c.1 1.3.6 2.6 2.2 2.6 1.7.1 2-1.4 2.1-2.6.1-1.3-.4-2.5-2.1-2.5-1.6.1-2.3 1.1-2.2 2.5zm-185.6 9c.4 0 1.1-.8 1.2-1.3.1-2.1-.6-3.9-2.6-4.7-1-.4-1.5.8-1.6 1.8.1 2.1.4 4 3 4.2zm19.5-47.6c-1-3.3-1.9-6.6-3.1-10.8-1.8 3.5-1.5 6.1-1.2 8.6.3 3 2.7 2.1 4.6 2.1 0-.2-.2.1-.3.1zm279.8 111.7c.1 1.6.4 3.1 2.1 3.9 1.3.5 1.9-.4 2.1-1.2.3-2.1-.5-3.7-2.6-4.4-1.2 0-1.7.7-1.6 1.7zm123.5 3.5c.5.9 1 1.7 2.7 1.7.4-2 .8-4 1.3-6.9-3.1 1.2-6.1 1.3-4 5.2zm-74.4 74c0 1.6.3 3.4 1.9 4.1 1.3.5 2.5-.3 2.3-2-.2-1.6-.6-3.1-2.3-3.7-1 0-1.9.6-1.9 1.6zm-303.1-196.3c-.2-1.3-1-2.6-2.4-2.3-1.5.2-1.4 1.8-1.4 3 0 1.4.7 2.3 2.1 2.3 1.7-.5 1.9-1.7 1.7-3zm101.7 138.8c0 1.7.5 3.1 2.4 3.4 1 .2 1.7-.5 1.7-1.6-.1-1.7-.9-2.9-2.4-3.6-1.3.1-1.7.9-1.7 1.8zm421.4-131.7c.5 1.1.7 2.6 1.5 3.3 1.2 1 1.7-.5 1.8-1.2.2-1.5.2-3.2-2-3.8-.6.5-2.1.1-1.3 1.7zm-25.9 19.6c.4.2 1.5 0 1.7-.3 1.2-2.4.2-4-2.4-5.4-.6 2.1-1.8 4.1.7 5.7zm-524.3-37.9c-.5.2-1 1.5-1 2.4 0 .9.5 1.7 1.7 1.7 1.6 0 2.1-1 2.1-2.3-.4-1.7-1.6-2.2-2.8-1.8zm59.8 86.1c-.4.1-.6 1-.9 1.6.6.9-.1 2.7 1.6 2.6.4 0 .6-1.7 1-2.6-.2-.9-.5-2-1.7-1.6zm491.2 8c-1 .4-1.5 1.2-1.6 2.2-.1 1 0 2 1.2 2.2.1 0 .6-1.1.6-1.7 0-1-.3-1.9-.4-2.9l.2.2zm-38.6 63.4c0-1-1.2-1.2-2-.9-1 .3-1.3 1.1-1 2.1.2.8.7 1 1.8.5.2-.4 1.2-1.1 1.2-1.7zm25.8-29c-.4.8-1.2 1.5-1.2 2.3-.1 1-.3 2.7 1.5 2.4.5-.1.8-1.5 1.3-2.5-.6-.7-1.1-1.4-1.6-2.2z"/></svg>