<svg xmlns="http://www.w3.org/2000/svg" id="beard" viewBox="0 0 3000 3000"><path id="cl1" fill="#797979" d="M1187.05 1127.785c-3.4-1.3-5.8 0-7.3 4.102l.898 12.398c.2.5.301.899.4 1.302 12.8 42.898 39.199 79.198 79.5 108.8 55.398 33.601 116.8 64.898 184.199 94.2 42.899 17.1 89.801 28.5 140.699 34 54.399-1.102 98.899-6.602 133.301-16.302a44.021 44.021 0 0 0 2-.601c22-7.399 42.801-19 62.399-35 15.899-21.899 28.3-49.699 37.101-83.399l-36.101 33.102.399-103.899c-18.301-32.2-42.6-59.301-73-81.5l-87.5 2.699c-.2 0-.399.101-.5.2-49 23.3-92.801 46.398-131.399 69.601-13.8 6.5-23.101 15.3-27.899 26.3-12.101 30.602-20.199 57.899-24.101 81.7-3.8 11.8-11.6 14.5-23.6 8.1-107-41.5-180.8-90.6-221.601-147.3-3.095-5.003-5.795-7.803-7.895-8.503zm294.3 132.399c.699-14.8 4.9-30.8 12.8-48 9.8-20.899 29.199-34.699 58.399-41.199 28.101-5.7 56.199-9.301 84.3-11v-.301l77.7 2c29.5 3.5 46.699 14.101 51.699 31.7 2.5 33.198.301 66.601-6.5 100.198-3.101 15.5-11.699 21.7-26 18.5-27.699-8.898-46.899-19.698-57.199-32.3h-.399c-12.301.5-26.899 0-43.601-1.8-1.5-.2-3.1-.4-4.7-.5-2.899-.603-5.601-1.103-8.101-1.7h-.101c-50.101 38.8-91.601 49.899-124.601 33.5-15.098-6.797-19.696-23.198-13.696-49.098z"/><path id="sd1" d="M1811.25 1255.985v6.5h4v-6.5h-4zm-5.2 22.5v-10.2h4v10.2h-4zm-5.8-8.5v8.3h-3.5v4.2h-4v-9.5h3.5v-3h4zm-2.5 9.8h4v7h-4v-7zm-565.802-88.101v8.7h-4v-9.2h2.302l.3-10.399 4 .102-.4 10.8-2.202-.003zm10.102 6.101l-4-.3.8-10.2 4 .302-.8 10.198zm-49.2-49.9l-4-.102.3-11.5 4 .102-.3 11.5zm12.8 18.9v-7.198h4v7.198h-4zm-.6-3.4l-4-.102.5-8 4 .102-.5 8zm-10.5-2.201l-4-.199.399-10 4 .199-.399 10zm3.6 16.201l-4-.102.3-11 4 .102-.3 11zm5-8.701h4v11h-4v-11zm15.1 5.101l-.4 9-4-.198.4-9 4 .198zm2.5 26.7l-4-.2.8-12 4 .2-.8 12zm10.1 3.8l.4 9.802-4 .198-.4-9.8 4-.2zm45.098 20.299l-2.399-.198v4.101h-4v-11.601h2.801l.3-4.302 4 .2-.702 11.8zm12.402 3.301l3.699.198-.601 14-4-.198.4-8.5-4-.302.899-10.3 3.899.399-.296 4.703zm-11.8-1.701l4 .101-.3 11.2-4-.101v1l1.8-.102.899 10.801-4 .301-.399-5.602h-2.3v-11.8h4v3.8l.3-9.598zm23.3 25.201l-4-.399 1.1-11.398 4 .3-1.1 11.497zm-43.8-26.201l-4 .101-.7-13 4-.199.7 13.098zm-12.8-23.899l4 .302-.7 12-4-.302.7-12zm-2 21.6l-4-.399 1.198-10.2 3.9.399-1.098 10.2zm21-5.201h4v10.101h-2.2l.2 6.399-4 .101-.4-10h2.4v-6.601zm-6.2 25.701l-4-.2.8-12.3 4 .3-.8 12.2zm11 4.299l-4-.3.8-11.5 4 .3-.8 11.5zm42.1 9.101h-3.899l.301-12.601 4 .101-.402 12.5zm5.9-7.3l-4-.5 1.5-12 4 .5-1.5 12zm20.6 28.4l-4 .198-.7-13.5 4-.198.7 13.5zm8.798-4.4l-4 .101-.399-13 4-.101.399 13zm-26-3.401l-4-.198.7-12.7 4 .2-.7 12.698zm9 4.1l-4 .2-.8-12 4-.2.8 12zm20 2.9l-.399 12.7h-4l.399-12.8 4 .1zm11.102-4.4l-4-.3.7-11.7 4 .2-.7 11.8zm9.5 17.9h-3.7l.3 11.2-4 .102-.2-8.802h-2.1v-12.6h1.5v-8.2h4v12.8h-1.5v4.2h1.7v-12.3h4v13.6zm2.1-14.5l-.399-10 4-.198.101 2.101h3.6v10h-4v-2.101l-3.302.198zm19.298 10v13.2h-.1l.3 10.102v-2.102h4l-.3 11.602-4-.102.198-6.3-3.799.1-.399-13.198 2-.102h-1.9v-9h-2.3v-11h4v6.8h2.3zm-15.298 13.401l-4 .101-.3-14.801h4l.3 14.7zm93.6-90.2l-3.5-.101-.302 7.801-4-.101.4-10.2 3.5.101.3-7.898 4 .101-.398 10.297zm-1.2 26.2h-3.5v8.3h-4v-9.3h3.5v-4.5h-2.8v-11.301h4v7.301h2.8v9.5zm3 13.3l-4-.101.3-11.8 4 .101-.3 11.8zm6.3-26l-.2 5h2l.5-7.698 3.7.3v-4h4v11.601h-4v-2.301l-.5 5.2-3.1-.2-.2 6.101-4-.101.2-5.899-2.802-.101.4-8 4.002.098zm-20.7 22l-4-.101.4-10.8 4 .101-.4 10.8zm-25.702 52.5h-4v-9h4v9zm-7.798 6h-4v-12h4v12zm-6.3 1l-4 .102-.4-12.801 4-.101.4 12.8zm56.2-41h-4v-9.3h4v9.3zm-8.7-13.5l-.4 11-4-.101.4-11 4 .101zm-13.2 12.5v-14.8h4v14.8h-4zm12.5 11.5l-4-.101.5-10 4 .101-.5 10zm-13.202-4.5v-5h4v10.5h-1.698l.1 1.802-2.9.198v.5h-1.4l-.299 7.802 1.699-.102.2 6.3 3-.101.399 7.101h3.801l-.301 12.302h2.699v13h-4v-11.2l-2.8-.1.2-7-3.301.1-.399-8.1-3.101.1-.199-4.8h-.5l.199 5.1-4 .2-.699-13 3.1-.102.4-8h1.3v-7.8h4v.3h.5zm14.602-1.8h4v9.199l3.399.301-.601 7.3h1.8l-.398 12.802-4-.102.3-9.898-1.9-.2.7-8.899h-3.3v-10.503zm-7.2 22.199l-4-.3.8-12.2 4 .2-.8 12.3zm6 9.801l-4 .101-.4-13 4-.101.4 13zm158.4-187.2h-4v5h-4v-1h-3.2v-11.5h4v4.7h3.2v-7h4v9.8zm3 13h-4v-10.698h4v10.698zm5-1h-4v-8.698h4v8.698zm-5.2-25h4v13.2h-4v-13.2zm-14.102 39.5h-4v-11h4v11zm-9-18.201v9.7h-4v-9.7h4zm0 26.5h-4v-6.5h4v6.5zm15.802-17.5v12.5h-4v-12.5h4zm5 21.301h-4v-10.802h4v10.802zm8.3-6.6h2.5v9.102h-4v-4.801h-2.5v-10h4v5.699zm-6.5-17.5h4v9.802h-4v-9.802zm13.2-1.701v-6.5h4v6.7h-4v11.8h-4v-12h4zm-64.6 13.401l3.399.199-.399 10-4-.199v-1.7h-3v-9.5h4v1.2zm-8.3 10.4h2v10.5h-1.801l-.5 7.398-4-.3.5-7.5 1.801.199v-7.5h-2v-9.1h4v6.303zm-2.5-19.1h4v11.5h-4v-11.5zm19.3 5h4v7.302h-4v-7.302zm12.5 11h-4v-10.198h4v10.198zm-4.5 5.399v6.7h-4v-3h-3.2v-10.602h4v6.899l3.2.003zm-11.3 14.801l-.399-8v3.699h-4v-8.5h4v2.601l3.899-.3.5 10.3-4 .2zm-19-10.401l.4 10.7-4 .2-.4-10.7 4-.2zm54.2-3.199v7.3h-4v-10h1.7v-5.899h4v8.602l-1.7-.003zm-10.602 4.799h-3.5v5.2h-4v-8.7h3.5v-6.5h4v10zm-109.098 18.701h3.5v9h-4v-2.5h-3.5v-9.7h4v3.2zm-4.2 24.9l-4 .302-.7-11.802 4-.198.7 11.698zm17-29.601h4v8.7h-3.801v7.3h-4v-4h-2.5v-10h4v4.5h2.301v-6.5zm46.6-7.199l-4 .3-.4-10.5 4-.3.4 10.5zm-12.9-8.801v10.7h-4v-10.2h-2.199v-11.399h4v10.899h2.199zm7.5-1.399l.4 11.302-4 .198-.4-11.3 4-.2zm-18.2 11.899h-4v-12.8h4v12.8zm-9-4.199l.601-9.7 4 .2-.699 12-3.899-.2-.301 10.899-4-.1.301-14.5 4 .1-.003 1.301zm4.5 8.9l-.301 11-4-.102.301-11 4 .102zm5.298-3.6l4 .2-.399 9.5-4-.2.399-9.5zm-39.698 37.6l.398-10 4 .101-.398 10-4-.101zm-16.5 1.4l4-.101.398 11.2-4 .101-.398-11.2zm6.698-4.201l4 .2-.8 11.8-4-.3.8-11.7zm2.102 45.701h-4v-10h4v10zm-5.2 3.2h-4v-10h4v10zm135.7 49.8h-4v-11.198h4v11.198zm5.7-19.8v8.101h-4v-8.101h4zm14.3 19.8h-4v-12h4v12zm-5.3-20.8v10.8h-4v-10.8h4zm0 20.3h-4v-9.198h4v9.198zm105.1-168.8h-4v-10.7h4v10.7zm-20.2 10.3v-7.5h4v7.5h-4zm9.2 9.5h-2.699v6.5h-4v-10.198h2.699v-7.802h4v11.5zm9-19.5v10.2h-4v-10.2h4zm11.3 3.5h-4v-8.5h4v8.5zm-3.8-17.8v7.3h-4v-7.3h4zm1 28.599h-4v-8.1h4v8.1zm3 16.201h-4v-11h4v11zm10.598 9h-4v-12.698h4v12.698zm-9.198-19.201h4v10.5h-4v-10.5zm-13.6 10.5v-11.3h4v11.3h-4zm27.1-1.5v-10.8h4v12.3h-2.802v9h-4v-10.5h2.802zm8.698 2.5h-4v-12h4v12zm4.802 8h-4v-11.8h4v11.8zm4.698 17.1h-4v-11h4v11zm-8.198-15.299v8.5h-4v-8.5h4zm10.198 26.5h-4v-10.2h4v10.2zm-76.098-72.1h-3.199v5.5h2.699v6.2h-4v-6.2h-2.699v-11h3.199v-4.3h4v9.8zm14-7.8h-4v-9.7h4v9.7zm-4.5 1.3h-4v-10.8h4v10.8zm-8.7-21.101h4v11.601h-4v-11.601zm-13.5 2.301v12.8h-4v-.5h-3.801v-9.5h3.801v-2.8h4zm-3.8 38.3h-4v-8h-3v-9.5h4v7.5h3v10zm5.8 1h-2.801v8.802h-4v-9.5h2.801v-9.102h4v9.8zm21.2-8h-4v-10.3h4v10.3zm-10 19.299h-3.199v6.5h-4v-6h-3v-8.5h4v4.7h2.199v-9.2h4v12.5zm9.3-3.299h-4v-11h-3.5v-13.3h4v11h3.5v13.3zm-37.1-32.701h-4v-10.8h4v10.8zm-4.2-5.799h-4v-10.5h4v10.5zm-9.5 19h-4v-13.198h4v13.198zm9.2-9.5h-4v11h-4v-13.5h4v-5h4v7.5zm-19.7-23.3h4v6.5h-4v-6.5zm-10.3.3h4v6.2h-3.8v7.3h-4v-8.8h3.8v-4.7zm.7 11.5h4v9.302h-4v-9.302zm10.6 1v8.5h-4v-8.5h4zm-1.5 9h4v7.302h-4v-7.302zm5.2 16.5h3v13.802h-4v-7.5h-3v-12h4v5.698zm-11.2-7h4v6.802h-2.5v5.5h-4v-9.302h2.5v-3zm-.6 24.1h-4v-11.602h4v11.602zm29.1-19.301h-4v-11.8h4v11.8zm-8.8 17.301h-4v-10.102h4v10.102zm4.8-15.801v1.7h2.699v11.5h-4v-5.7h-2.699v-7.5h4zm-12.3-23.599v7.601h-4v-7.601h4zm20 37.599v8h-4v-8h4zm29.8 2.701h4v9.5h-4v-9.5zm-21.7 5.299h-4v-9.5h4v9.5zm-5.1-23v10h-4v-10h4zm-36.7 164.701h-4v-14.698h4v14.698zm17-4l.801-.101.199 2.9v-3.302h3.5l-.301-12.5h4l.301 14h2.199l-.199-5.698 4-.102.199 8.199.102-3.399h4l-.301 14.399 3.699-.199.301 5.802-.301-8.9 4-.1.399 12.8-3.899.1.102 3-3.602.301.5 5.602-4 .5-1.101-12.5 3.899-.4-.199-4.897h-3.801l.199-8.802-3.699.102-.199 9.698h-4l.199-11.698h-2v6.5h-3.5l.101 1.1-2.899.101.602 12.2-4 .199-.699-14.101 2.898-.101-.699-10.399h-.699l-.102-2.801h-3.5v-8.199h3l-.199-1.899 4-.3.699 12.895zm24.5-7v11.302h-4v-6.102l-3.699.102-.4-9.5 4-.2.2 4.398h3.899zm96.9-93.4h4v10.8h-4v-10.8zm-4.7 23.299v-10.8h4v10.8h-4zm-.102 11.701h-4v-12.2h4v12.2zm9.602 13.299h-4v-10.5h4v10.5zm-6.8 3.701h-4v-12h4v12zm5.5-.1v10.2h-4v-10.2h4zm-11.302 9.7h4v10.8h-4v-10.8zm-3.5 21.5v9.601h-4v-10.101h2.302v-8.7h4v9.2h-2.302zm-2.698 16.599h3.5v12h-4v-9.8h-3.5v-8.7h4v6.5zm10.5-16.099h4v8.3h-3.802v6h-4v-10.5h3.802v-3.8zm5 22.099h-4v-9.8h4v9.8zm11-5.799h-3.2v9.5h-4v-10.5h3.2v-10.8h4v11.8zm-12.2-31.5v12.5h-4v-12.5h4zm13.2 46.299h-4v-8.8h4v8.8zm-12.7.5h-4v-7.3h4v7.3zm2.5 15.701h-4v-12.5h4v12.5zm-8.102-14.5h-4v-11.198h4v11.198zm-6.698 18.799h-4l.3-13.8 4 .102-.3 13.698zm-4.1 10.5l-4 .102-.399-12.199 4-.2.399 12.297zm12.9-25.299v9.302h-4v-9.302h4zm-29.9 10.1l-3.899.398-1.199-11.198 4-.5 1.098 11.3zm-19 .199l-4 .5-1.101-12.8 3.9-.398 1.201 12.698zm-7-11h-3v5.2h-4v-9.5h3v-1.5h4v5.8zm14.9 22l-4 .5-2.601-16.898 3.898-.602 2.703 17zm-3.9 6.5l-3.899.5-1.199-11.3 4-.398 1.098 11.198zm-9.3 3l-4 .5-1.399-12.5 3.899-.5 1.5 12.5zm21.2-7.299l-4 .602-2.3-16.301 3.898-.5 2.402 16.199zm-6.4 4.6l3.899-.802 2.101 9.9-3.899.8-2.101-9.898zm-19.202 12l3.899-.399 1.301 10.399-4 .5-1.2-10.5zm5.702-7.4l4-.601 1.601 10.699-4 .601-1.601-10.699zm31.798-1.1l-1.198-10.602 4-.398 1.198 10.5-4 .5zm-54.898-35.1l4-.398.8 9.8-4 .4-.199-2.102v3.3h3.199v6.5h-4v-5.198h-3.199v-4.5l-2.601.1-1-20.8 4-.2.8 17.9h2.5l-.3-4.802zm-8.602 2.5l-4 .102-.698-13.5 4-.2.698 13.598zm-1.098 18.299l-4 .5-1.5-14 4-.5 1.5 14zm-11.402 18.5l-4 .102-.198-5.699-2.602.399-1.301-9.2 4-.6.5 3.5h3.199l.402 11.498zm14.202-2.299l-4 .602-1.301-9.801 3.899-.5 1.402 9.699zm17.6-18l-4 .2-.4-11.601 4-.102.4 11.503zm.9 18.1l-4 .5-1.399-12.602 3.899-.398 1.5 12.5zm-45.5-23.1h-4v-13h4v13zm-28.3-18.5h3.5v-9.698h4v14.698h-3.5v5.802h-4v-4.602l-.301 9.602h-3v4h3.801v10.698h-4v-6.5h-3.801v-10.198h3l.301-9.302 4 .102v-4.602zm12 16.5h2.699v11.5h-4v-9h-2.699v-10.198h4v7.698zm9.2 25.1h-3v6.3h-4v-12.1h3v-3.5h4v9.3zm14.6 12.5h-4v-10.5h4v10.5zm-6.5-1v9.8h-2.5v4.7h-4v-9.5h2.5v-5h4zm-34.6-5.701v-11.101h2.8v-1.199h4v9.8h-2.8v2.5h-4zm18.3 12.201h-4v-10.7h4v10.7zm-8 0h-4v-7.2h4v7.2zm-2 5.299v6.899h-4v-6.899h4zm-11 0v-9.8h4v9.8h-4zm83.4-10.399l-4 .2-.5-10.301 4-.101.5 10.202zm-10.9-9.8l4-.601 1.601 10.699-4 .601-1.601-10.699zm-8.3 6.199l-.5-10.199 4-.2.5 10.2-4 .199zm-4.5 13.5l-4 .301-.899-10.5 4-.301.899 10.5zm-6.3-4l-4 .301-.802-10.7 4-.3.802 10.699zm12.6-2l.9 5.899-4 .601-.9-6 4-.5zm-68-54.899h-4v-8h4v8zm5 5h-4v-11h4v11zm-16.8-8.701h4v13.2h-1.8v3.3h2.8v6.7h-4v-5.7h-2.8v-7.3h1.8v-10.2zm10.2 14.5h-4v-9.8h4v9.8zm-34.2-5.5v-11.3h4v11.3h-4zm17-11h4v12h-1.3v9.5h-4v-10.8h1.3v-10.7zm-8.5 20.5h-4v-11.8h4v11.8zm10.2 12.201h-2.7v5.5h-4v.5h-4v-10.5h4v-.5h2.7v-5.198h4v10.198zm-20.1-8.701v7.7h-3.7v3.5h-4v-7.7h-3.5v-7.3h4v4.5h3.2v-3.5h3.899v-8.5h4v11.3h-3.899zm1.9 12.201v-11.5h4v11.5h-4zm26.7 2.299h-4v-11.8h4v11.8zm6.8-21.799v10.5h-4v-10.5h4zm-2.5 24.6h-1v7.8h-3.3v7.7h-4v-8h3.3v-9.302h1v-8h4v9.802zm-8.5-.801h-4v-10h4v10zm-47.7-22.4l3.5-.199.699 13.8-2.5.2.5 12.101-4 .101-.699-16.699 2.5-.101-.199-3.801h-4l.399-11.801 4 .102-.2 6.297zm-11.7 19.5l3.399-.101.8 11.101-4 .301-.3-3.899h-1.2l.5 5.399-4 .3-1.101-12.698 1.899-.102v-5.301h-1.601l-.7-14 4-.199.603 13.102h1.699l.002 6.097zm9.7 5.301l-4 .3-1-13.698 4-.4 1 13.798zm13.098-7.401h-4v-14.5h4v14.5zm-2-31.5v10.7h-4v-10.7h4zm13.202 46.801h2.8v5.3h2.602v9.7h-4v-5h-2.602v-8h-2.8v-8h4v6zm-10.702-12.801v11.302h-2v3.5h3.2v14.3h-2.398l.299 9.4-4 .198-.398-13.3 2.5-.101v-7.2h-3.2v-10.1h2v-8h3.997v.001zm4.5 0v12.802h-4v-12.802h4zm-15.398 24.6l-4 .101-.399-13.3 4-.2.399 13.399zm-5 2.101l-4 .302-.7-12.102 4-.2.7 12zm25.1 12.7h-4v-6.801h4v6.801zm38.4-10.1h-4v-9.5h4v9.5zm-25-12.5h-4v-14.5h4v14.5zm-4.3-16v10h-4v-10h4zm12.8 36h-4v-8.7h4v8.7zm-76.8-31.301l-4 .102-.9-20.5 4-.102.9 20.5zm-14.2-4.9l-4-.101.3-14 4 .101-.3 14zm8.6 8.201l-4 .101-.301-21.301 4-.102.301 21.302zm-27.3-23.301h-4l.301-15h4l-.301 15zm-4.1-5.699l-4-.102.398-10.698h4l-.398 10.8zm-19.7-8.301h-3.5l.1 5.2-4 .2-.399-13.301 3.801-.102v-5h4l-.002 13.003zm2.3 5.201h4v12.802h-2.301l.101 4.698-4 .102-.399-13.399 2.601-.2-.002-4.003zm4.8 27.799h2.7v13.802h-4v-8.2h-2.5l-.7-13.699 4-.199.5 8.296zm28.2-7.799l-4 .2-.1-5.7-2.7.302-1.101-14 3.398-.4v-1.6h4l.503 21.198zm-4.3 15.2l-4 .3-1.399-16 4-.3 1.399 16zm-12.5-7.1h-4v-20.5h4v20.5zm1.3 1.1l1.199 13.199-4 .399-1.199-13.301 4-.297zm42.8 10.3l-3.899.2-.399-13.5 4-.2.298 13.5zm6.5 10.1l-3.899.101-.399-13.5 4-.2.298 13.599zm-79.202-60.801h-4l.4-12.8h4l-.4 12.8zm-1.298 19.1l-2.399-.101.301 11.699-4 .102-.4-13.802h2.602l.6-8.898 4 .301-.704 10.699zm-15.8-2.399l-.2-3.8 4-.2.5 11.5h-2.2l.2 4.302-4 .1-.5-11.699 2.2-.203zm-27.902-22.101l4-.101.302 13.5h-3.9l-.402-13.399zm-5.698 23.4h-3.9l-.4-13.398 4-.102.3 13.5zm401.9-70.299h-2.101v-4.101l2.3-2.199h1.5c-.599 2.099-1.099 4.199-1.699 6.3zm-16.9 36l2.6-.101.199 3c-.601 1.4-1.199 2.601-1.799 3.9-.4.8-.701 1.5-1 2.198h-4v-10h4v1.003zm7-10v3c-.602 1.602-1.302 3.2-2 4.802h-2v-7.802h4zm-14.5 28.5v-8.5h4v5.802l-1.5 2.698h-2.5zm-601.4-174.5h-4v-5.8h1.5c.8.8 1.6 1.8 2.5 3v2.8zm-8.5-1h-3.9l-.1-2.601c.8-2.3 1.9-3.6 3.4-4.199h.6v6.8zm.8 15.2l-2.399-.2c-.5-1.3-.899-2.5-1.199-3.698v-.102l.6-5.101 3.9.4-.902 8.701zm31 17.599h-4v-7.5h2.4c.5.602 1.1 1.2 1.6 1.802v5.698zm-19.9 12.201l3.898-.3.4 3.899 3 .101-.4 9.3h-.8c-.4-.601-.802-1.398-1.2-2-.6-1.101-1.3-2.101-1.8-3.198v-.802l-.5.102c-.802-1.5-1.601-3-2.4-4.5l-.198-2.602zm12.1 22.1c-.7-1-1.2-1.899-1.9-2.802-.6-.898-1.3-1.898-1.8-2.8l.101-4 4 .2-.401 9.402zm6.9 9.4l1.198-8.101 3.9.601-1.2 9.102-2.8-.301a12.099 12.099 0 0 0-1.098-1.301zm84.6 25l-2.5-.398-.7 10.699-4-.199.8-12.7 2.602.101.8-6 3.7.5s.199 0 .199.102l-.901 7.895zm8.4 5.2l-4-.601 1.3-8.399 2.899.399c.399.199.601.398 1 .601l-1.199 8zm-43.2-30.301l-4-.399.899-8.398c1.199.898 2.399 1.898 3.601 2.8l-.5 5.997zm-22.3 18.5l4 .101-.302 10.7h-3.399l-.601-.601.302-10.2zm16 23.601c-.7-.5-1.2-1-1.802-1.398l.4-6.2 3.899.2-.399 7.398h-2.098zm41.5 5.5v7.2l.698-7.899 4 .399-1.1 12.399-4-.301v-.101h-2.9l.2 3.199-2.3.101.1 1c-1.399-.8-2.899-1.601-4.198-2.398l-.4-4.399 2.5-.2-.2-2.601 3.601-.3v-6.102l3.999.003zm-11.2 3.2l.1 1.899-3.1.199v5.199h-.8c-1.102-.699-2.2-1.3-3.2-1.898v-7.602h2.8l-.3-5h-2.5v-11.101h4v8.801l2.399-.101v.898l.101-4.398 4 .101-.3 13-3.2.003zm18.2 7.3h4v3.5h2v10.5h-3a4.915 4.915 0 0 0-1-.5v-4.5h-2v-9zm161.1-71.9l-4-.5.3-2.102c0-.198 0-.3.101-.5.801-1.698 1.601-3.398 2.601-5l2 .2-1.002 7.902zm-129.902 56.4l2.101.2-1.299 9.8-3.9-.5.8-6.5-1.899-.101.399-8.8 1.399.101c.801.399 1.701.8 2.5 1.3l-.101 4.5zm-10.598 30l1.6-.101.5 9-2.1.101c-.7-.398-1.301-.698-2-1l-.301-6.5h-1.699v-10.3h4v8.8zm63.8-10v6h-4v-6.5h2.7c.4.1.8.299 1.3.5zm9.5 4c1.4.5 2.7 1 4 1.602l-.3 7.199h-2.4l.2 6.199h2l-.3 12.5h.1l-.4 12.602-4-.102.4-12.5h-.1l.199-9.199h-1.801l-.398-12h2.6l.2-6.301zm16.798 6.799v5.7h-4v-7h1.101c.701.3 1.301.5 2 .8.301.1.601.301.899.5zm20.602 1l-.4 8.7h2l.4 11.8h2.8l-.4 10.802-1.898-.102v11.302h-4v-11.802h2l.199-8-2.699.102-.301-12.302-2.101-.1.4-10.4.1-.1 3.9.1zm160.398-166.799h-4v-6.3c1.399-.7 2.7-1.301 4-2v8.3zm8-12.201v10.7h-4v-8.8c1.402-.599 2.702-1.3 4-1.9zm-18.5 10.701v11.802h-4v-11.4c.2-.1.601-.199.802-.399l3.198-.003zm-16 8.1l-.3 12.3-4-.199.3-11.601c.399-.2.7-.399 1.101-.601l2.899.101zm-22.798 23.6l.399-10.5 2.5.199.199-4.5c.101-.101.101-.101.101-.199l3.801.199-.301 10.5-2.601-.101-.101 4.601-3.997-.199zm-51.1 23.9h-4v-6c1.101-.602 2.2-1.399 3.3-2h.7v8zm6.6-4h-4v-5.899c.601-.398 1.3-.801 2-1.2.601-.398 1.3-.8 2-1.101v8.2zm5 .799h-4v-9.699c1.3-.7 2.601-1.5 4-2.2v11.899zm-33.3 15.101l3 .399-1.301 9.7-3.899-.5.601-5.399-2.899-.301.8-6.899c.5-.601 1-1.101 1.5-1.699l2.602.301-.404 4.398zm280.4-42.3h-3.5v5.601h-4v-11.601h3.5v-.5h3c.3.399.6.8 1 1.199v5.301zm-35.1-30.5h3v12.3h-4v8h-4v-12.8h4v-6h-3v-10.5h3.699c.101 0 .2.199.301.199v8.801zm7.7 8h-4v-10.7h3.601c.2.2.3.2.399.399v10.301zm19.4 12h-1.802v12.101h-4v-14.301h1.802v-4.3h1.398c.899 1 1.699 1.8 2.602 2.8v3.7zm29.198 40.8h-4v-9.698h2.101c.701.898 1.201 1.898 1.899 2.898v6.8zm6.602 4.2v6.699h-2.5v9.5h-4v-10h3.5v-7.3h2.3c.3.401.4.8.7 1.101zm-71.2-68h-4v-12.5h3.5c.199.199.4.199.5.399v12.101zm-13.2 7.3h-4v-3h-2.5v6.5h-2.5v9.7h-3v2h-4v-8h3v-3.7h2.5v-11h3v-5.8h-3v-6.801l4-.199v1.699h3v6.301h3.5v12.3zm-22.3-5.3h1.801v8h-3.301v12.101h-4v-12.301h3.301v-7h-1.801v-10.3h4v-5l4-.101v8.3h-4v6.301zm-14.3-4h-3.7v4.5h-4v-11.5h3.7v-2.899l4-.101v10zm120.8 116.4h-3.301v-9.7h3.301v9.7zm-.1 46.9h-3.2v-9.3h3.2v9.3zm-.1 10.6l1.601-1.399h.5v9.8h-4v-9.8h1.899v1.399zm-12.1 58.199h-3.2l.2 2.7c-1.2.8-2.3 1.602-3.399 2.3l-.5.102-.4-10.699 3.302-.2v-4.698h4l-.003 10.495zm18.2-18.5c-.602 1.102-1.4 2.102-2 3.102-.602 1-1.4 2-2 3v-8.899h4v2.797zm-14.2 15.201v-5.698h4v3.6c-1 .801-1.899 1.4-2.8 2.101l-1.2-.003zm16.5-25.201h3.7c-.602 1-1.2 2-1.7 3-.7 1.102-1.399 2.2-2 3.302v-6.302zm-42.8 33.6l3-.199.6 7.699c-1.199.7-2.5 1.399-3.801 2.101l-.299-3.5-2.802.301-1.198-11 4-.5.5 5.098zm-45.5 26.301c-1.102.199-2.302.5-3.5.699l-.4.101-.6-7.699 4-.399.5 7.298zm-135.802 10.5c-.601-.101-1.3-.2-2-.301-.601-.101-1.3-.101-2-.199v-6.101h4v6.601zm-62.898-12.6l-.899.101c-1.101-.2-2.101-.5-3.199-.801l-1-11.602 3.898-.398 1.2 12.7zm25-7.9h.7l-.2-3.399 4-.399 1.101 13.301-2.4.199.2 5.101c-1.3-.398-2.7-.601-4.101-.898l-.301-10.2-2.799.101-.701-12.3 4-.2.501 8.694zm-6.7-15.901l.601 15.7-2.601.2.101 2.6-2.399.102.399 8.398-2.3.102c-.602-.102-1.102-.199-1.7-.399l-.7-13.8 2.4-.102-.4-7.898 2.802-.102-.2-4.699 3.997-.102zm-54.8 3.801h-2.2l.2.101-1.2 8.399c-1.3-.399-2.6-.899-3.8-1.399l1-7.601 2 .198v-12.198h4v12.5zm-21.2 1.799l.5-3.601 4 .601-.7 4.5c-.6-.199-1.3-.5-2-.699-.6-.301-1.202-.5-1.8-.801zm-69.8-32.199l-1 .101c-1-.601-2-1.101-3.101-1.601l-.601-11.101 4-.2.702 12.801zm-21.5-10.1c-1.3-.602-2.601-1.302-3.9-2l.3-5.602 4 .102-.4 7.5zm-18.602-13.301l3.9.5-.7 5c-.6-.398-1.199-.698-1.898-1-.7-.398-1.2-.698-1.802-1l.5-3.5zm134.602-30.299v-3.3h4v7.399l3.1.3-.8 9.7-4-.301.699-7.801h-3v-4.199l-.399 10.899-4-.101.399-12.7 4.001.104zm111.898-98.601v-6.8h4v6.398c-.698.102-1.399.2-2.101.399l-1.899.003zm-84.598 26.201l2.9.198-.602 7.7a62.59 62.59 0 0 0-2 2.7l-2.199-.2.398-5.101h-2.5v-9.8h4l.003 4.503zm7.3-.4l-.399-10.5 4-.2.399 9.7c-.301.3-.601.601-1 .899l-3 .101zm42.5-19.301c-.301.101-.601.101-.801.2h-3.199v-6.5h4v6.3zm-59.5 43.9l.5-7.3 4 .3-.101 3.102c-.2.101-.2.301-.399.5-.5 1.101-1 2.301-1.5 3.601l-2.5-.203zm-13.5 50.801l.5-8.302 4 .2-.3 4c-.301 1.5-.5 2.899-.801 4.3l-3.399-.198zm174.9-106.4l-4-.101v-10.2h4v10.301zm35.5 130.8h1.3c.5.302.801.602 1.301.899v7.101h-4v-4l-3-.198.699-6.5 1.801.198c.699.5 1.399 1 2 1.5l-.101 1zm82.898-44.9h-3.698c.3-3.602.5-7.102.698-10.7h3v10.7zm-1.698 10.1v10.3h-4c.5-3.5.898-6.898 1.198-10.3h2.802zm-7.802 45.099l1.802 14.2-4 .5-1.602-12.7c.199-.6.5-1.1.699-1.698l3.101-.302zm-5.698 16.201l.698 5.302-3.899.5-.299-1.302.5 3.302-4 .5-1.201-10.5 3.801-.5-.1-1.5 2.898-.302-.699-4.198c.101 0 .199-.102.301-.2l3.6-.602 1.4 9-3 .5zm-42.7-5.601l-4 .301-.5-8.101 3.7-.2c0 .101.1.101.3.101l.5 7.899zm-6.2-10.5v9.101h-4v-10.5h1.301c.899.5 1.797 1 2.699 1.399zm-148.3 10.201l.8 10.101-4 .199-.8-9.199c1.101-.398 2.101-.7 3.3-1l.7-.101zm-15.7 16l-2-.102v2.5l3.9.2-.2 5.399 1.3-.102.301 14.802-4 .1v-5.3l-2.101-.102.3-6.8-3.699-.2.301-13.698h2l.199-8.302c1.399-.101 2.699-.398 4-.601l-.301 12.206zm-21.2-9.301h1.699l.2-1.6c1.3.1 2.601.1 4 .1l-.899 8.5-2.2-.3-.101 3.7-4-.2.2-6h-2.899v-6.2h1.399c.8.102 1.699.2 2.601.302v1.698zm15.298-2l-.3 7.9-4-.2.199-7.3c1.403-.099 2.803-.199 4.101-.4zm-47.898-11.299v10.302h-4v-3.802l-3.7.102-.3-11 4-.102.1 3.5h2.9c.3.399.6.7 1 1z"/><path fill="#2B2B2B" d="M1627.85 1277.485c1.601.101 3.199.3 4.699.5 16.701 1.8 31.301 2.3 43.602 1.8h.398c1.899-.198 3.801-.3 5.801-.5 14.601-1.198 21.4-4 20.5-8.5-1.301-4.601-11-7-29-7.3-18.199-.2-35.6-1-52.199-2.2-16.699-1.3-25 .2-25 4.2.1 3.5 7.699 6.899 23 10.3h.1c2.499.6 5.197 1.1 8.099 1.7z"/></svg>