<svg xmlns="http://www.w3.org/2000/svg" id="beard" viewBox="0 0 3000 3000"><path id="cl1" fill="#333232" d="M1638.375 1253.9c-7.234 0-13.186-.01-19.135.004-3.266.008-6.285-.842-6.75-4.462-.406-3.194 2.49-4.442 4.938-5.461 3.373-1.405 6.782-2.659 10.545-2.854 21.912-1.139 43.807-2.678 65.774-2.01 4.672.144 9.315.232 13.754 1.896 1.236.464 2.463.99 2.439 2.697-.02 1.579-1.029 2.488-2.242 2.948-4.666 1.772-9.535 2.831-14.496 3.233-5.172.42-7.728 2.488-7.22 8.174.382 4.263-.528 8.625-.503 12.938.105 16.854 10.477 26.512 27.393 24.812 14.98-1.506 29.349-5.114 41.616-14.768 9.911-7.798 20.089-15.229 27.294-25.854 6.176-9.104 9.299-18.784 6.848-29.971-1.056-4.819-.383-10.025-1.498-14.822-2.698-11.623-9.063-21.319-17.557-29.556-17.92-17.382-39.556-27.69-63.808-32.719-2.983-.618-5.876-1.209-8.427-2.806-4.394-2.749-7.058-6.145-7.481-11.965-1.594-21.762 1.173-24.353 22.229-21.414 21.147 2.952 40.834 11.396 59.162 22.46 12.771 7.71 25.893 15.05 36.521 25.768 3.346 3.37 7.144 3.342 11.065 2.809 11.738-1.596 20.072-7.912 25.265-18.603 6.901-14.217 9.545-29.508 11.978-44.911 1.099-6.955.91-14.274 4.297-20.906 1.979 1.051 1.746 2.496 1.651 3.597-1.45 16.884 4.396 32.744 6.796 49.084 3.707 25.277 13.687 49.099 17.541 74.267 2.541 16.588 3.531 33.354.75 50.293-1.691 10.291-2.254 20.836-4.396 31.088-4.271 20.442-13.803 38.433-26.119 55.152-6.915 9.391-13.374 19.089-22.975 26.074-1.87 1.363-3.61 2.988-5.65 4.021-26.314 13.332-52.28 27.02-81.705 33.346-25.924 5.572-51.388 13.479-77.392 18.881-21.769 4.522-43.659 8.52-66.152 7.622-20.94-.834-41.854.632-62.762 1.874-17.332 1.029-34.472-2.004-51.71-2.942-19.52-1.062-38.898-3.743-58.206-6.939-11.474-1.9-22.836-4.197-34.207-6.616-25.399-5.403-49.376-14.836-73.465-24.193-16.356-6.353-32.955-12.468-47.984-21.249-24.866-14.527-45.076-34.373-61.075-58.73-10.021-15.261-20.621-30.059-25.609-47.814-6.416-22.827-13.643-45.241-14.67-69.562-1.162-27.53-.375-54.997-.9-82.485-.279-14.604-1.475-29.056-3.929-43.512-2.38-14.008-2.796-28.338-4.776-42.428-2.005-14.268-2.923-28.711-7.591-42.597-1.968-5.854-1.708-12.438-2.636-18.665-1.756-11.769-5.615-23.026-8.532-34.516-.464-1.83-.721-3.713-1.317-6.857 10.719 2.9 20.258 5.285 29.678 8.071 21.598 6.388 15.83.69 23.428 22.084 12.503 35.212 27.582 69.313 43.697 102.949 10.145 21.172 20.561 42.291 32.283 62.607 11.285 19.562 27.28 34.49 48.471 44.018 14.723 6.617 29.809 11.292 45.533 13.867 16.393 2.686 33.037 3.092 49.633 2.674 6.382-.161 12.242-3.287 17.502-6.656 31.521-20.192 65.871-34.207 101.175-45.878 13.782-4.558 28.472-6.296 42.519-10.151 24.521-6.729 49.583-8.313 74.771-9.161 7.229-.243 14.363-2.388 21.744-.045 3.65 1.16 6.135 2.528 6.24 6.454.127 4.653 1.529 9.1 1.538 13.818.021 11.672-5.748 17.967-17.51 17.665-18.616-.479-37.126 1.077-55.224 4.969-33.494 7.205-66.444 16.708-95.604 35.354-15.317 9.793-28.958 22.013-37.558 38.81-8.635 16.864-4.288 42.259 9.013 55.913 7.245 7.438 15.862 11.756 25.327 15.032 24.434 8.456 49.453 12.911 75.341 9.943 12.878-1.476 23.757-6.491 31.302-18.142 7.149-11.03 15.653-21.187 21.72-35.046zm-502.238-358.094c.05 2.878 1.719 4.027 4.179 4.686 12.976 3.467 25.563 8.441 39.024 10.349-.039-11.279-2.274-14.539-11.104-16.734-10.524-2.616-21.036-5.291-32.083-8.073-1.126 3.925-.067 6.843-.016 9.772zm48.893 25.968c-.846-3.845-3.169-5.354-6.744-6.18-12.759-2.94-25.471-6.082-38.412-9.198 1.082 11.776 1.056 11.869 10.162 14.584 5.392 1.608 10.678 3.512 16.016 5.229 7.068 2.271 14.193 4.832 22.059 5.443-.217-4.041-2.396-6.758-3.081-9.878zm-52.991-57.661c11.549 3.379 23.069 7.117 35.388 8.941-.175-7.008-2.956-11.041-9.169-12.855-9.438-2.757-18.73-6.044-29.494-6.632 2.115 3.454-1.592 9.122 3.275 10.546zm6.858 13.341c9.502 2.814 19.089 5.349 28.628 8.041 1.351.382 2.736.698 3.549-.612.931-1.503.729-3.263-.491-4.54-2.359-2.479-5.468-3.556-8.737-4.338-7.37-1.768-14.694-3.725-22.073-5.446-2.813-.657-5.678-2.127-8.799-.342-.017 5.314 4.266 6.154 7.923 7.237z"/><path fill="none" stroke="#000" stroke-miterlimit="10" stroke-width="6" d="M1638.375 1253.9c-7.234 0-13.186-.01-19.135.004-3.266.008-6.285-.842-6.75-4.462-.406-3.194 2.49-4.442 4.938-5.461 3.373-1.405 6.782-2.659 10.545-2.854 21.912-1.139 43.807-2.678 65.774-2.01 4.672.144 9.315.232 13.754 1.896 1.236.464 2.463.99 2.439 2.697-.02 1.579-1.029 2.488-2.242 2.948-4.666 1.772-9.535 2.831-14.496 3.233-5.172.42-7.728 2.488-7.22 8.174.382 4.263-.528 8.625-.503 12.938.105 16.854 10.477 26.512 27.393 24.812 14.98-1.506 29.349-5.114 41.616-14.768 9.911-7.798 20.089-15.229 27.294-25.854 6.176-9.104 9.299-18.784 6.848-29.971-1.056-4.819-.383-10.025-1.498-14.822-2.698-11.623-9.063-21.319-17.557-29.556-17.92-17.382-39.556-27.69-63.808-32.719-2.983-.618-5.876-1.209-8.427-2.806-4.394-2.749-7.058-6.145-7.481-11.965-1.594-21.762 1.173-24.353 22.229-21.414 21.147 2.952 40.834 11.396 59.162 22.46 12.771 7.71 25.893 15.05 36.521 25.768 3.346 3.37 7.144 3.342 11.065 2.809 11.738-1.596 20.072-7.912 25.265-18.603 6.901-14.217 9.545-29.508 11.978-44.911 1.099-6.955.91-14.274 4.297-20.906 1.979 1.051 1.746 2.496 1.651 3.597-1.45 16.884 4.396 32.744 6.796 49.084 3.707 25.277 13.687 49.099 17.541 74.267 2.541 16.588 3.531 33.354.75 50.293-1.691 10.291-2.254 20.836-4.396 31.088-4.271 20.442-13.803 38.433-26.119 55.152-6.915 9.391-13.374 19.089-22.975 26.074-1.87 1.363-3.61 2.988-5.65 4.021-26.314 13.332-52.28 27.02-81.705 33.346-25.924 5.572-51.388 13.479-77.392 18.881-21.769 4.522-43.659 8.52-66.152 7.622-20.94-.834-41.854.632-62.762 1.874-17.332 1.029-34.472-2.004-51.71-2.942-19.52-1.062-38.898-3.743-58.206-6.939-11.474-1.9-22.836-4.197-34.207-6.616-25.399-5.403-49.376-14.836-73.465-24.193-16.356-6.353-32.955-12.468-47.984-21.249-24.866-14.527-45.076-34.373-61.075-58.73-10.021-15.261-20.621-30.059-25.609-47.814-6.416-22.827-13.643-45.241-14.67-69.562-1.162-27.53-.375-54.997-.9-82.485-.279-14.604-1.475-29.056-3.929-43.512-2.38-14.008-2.796-28.338-4.776-42.428-2.005-14.268-2.923-28.711-7.591-42.597-1.968-5.854-1.708-12.438-2.636-18.665-1.756-11.769-5.615-23.026-8.532-34.516-.464-1.83-.721-3.713-1.317-6.857 10.719 2.9 20.258 5.285 29.678 8.071 21.598 6.388 15.83.69 23.428 22.084 12.503 35.212 27.582 69.313 43.697 102.949 10.145 21.172 20.561 42.291 32.283 62.607 11.285 19.562 27.28 34.49 48.471 44.018 14.723 6.617 29.809 11.292 45.533 13.867 16.393 2.686 33.037 3.092 49.633 2.674 6.382-.161 12.242-3.287 17.502-6.656 31.521-20.192 65.871-34.207 101.175-45.878 13.782-4.558 28.472-6.296 42.519-10.151 24.521-6.729 49.583-8.313 74.771-9.161 7.229-.243 14.363-2.388 21.744-.045 3.65 1.16 6.135 2.528 6.24 6.454.127 4.653 1.529 9.1 1.538 13.818.021 11.672-5.748 17.967-17.51 17.665-18.616-.479-37.126 1.077-55.224 4.969-33.494 7.205-66.444 16.708-95.604 35.354-15.317 9.793-28.958 22.013-37.558 38.81-8.635 16.864-4.288 42.259 9.013 55.913 7.245 7.438 15.862 11.756 25.327 15.032 24.434 8.456 49.453 12.911 75.341 9.943 12.878-1.476 23.757-6.491 31.302-18.142 7.149-11.03 15.653-21.187 21.72-35.046zm-502.238-358.094c.05 2.878 1.719 4.027 4.179 4.686 12.976 3.467 25.563 8.441 39.024 10.349-.039-11.279-2.274-14.539-11.104-16.734-10.524-2.616-21.036-5.291-32.083-8.073-1.126 3.925-.067 6.843-.016 9.772zm48.893 25.968c-.846-3.845-3.169-5.354-6.744-6.18-12.759-2.94-25.471-6.082-38.412-9.198 1.082 11.776 1.056 11.869 10.162 14.584 5.392 1.608 10.678 3.512 16.016 5.229 7.068 2.271 14.193 4.832 22.059 5.443-.217-4.041-2.396-6.758-3.081-9.878zm-52.991-57.661c11.549 3.379 23.069 7.117 35.388 8.941-.175-7.008-2.956-11.041-9.169-12.855-9.438-2.757-18.73-6.044-29.494-6.632 2.115 3.454-1.592 9.122 3.275 10.546zm6.858 13.341c9.502 2.814 19.089 5.349 28.628 8.041 1.351.382 2.736.698 3.549-.612.931-1.503.729-3.263-.491-4.54-2.359-2.479-5.468-3.556-8.737-4.338-7.37-1.768-14.694-3.725-22.073-5.446-2.813-.657-5.678-2.127-8.799-.342-.017 5.314 4.266 6.154 7.923 7.237z"/></svg>