<svg xmlns="http://www.w3.org/2000/svg" id="beard" viewBox="0 0 3000 3000"><path id="cl1" d="M1245.4 1387.1c6.8-7 8.1-12.9 1.8-19.2-3.7-3.6 3-6.1 1.6-10.3-14.5.9-29.2 2.2-43.1-2.4-2.2-10.3 2.1-17.1 9.4-22.8 2.5-1.9 5.3-4 6.2-7.1-2.2-3-4.6-1.5-6.6-.9-2.9.9-5.7 1.6-8.8 1.6-10.7.3-11.6-.9-12.4-11.3-1.5-18.8-9.3-34-26.9-42.8-3.5-1.8-7.1-3.3-11.2-5.3 8.2-10.5.4-17.9-4.5-26-2.4-4.1-7.1-6.5-7-12.6.2-7.3 2.4-13.9 6.3-19.4 3.6-5.1 4.9-9.3.9-14.2-2.1-2.7-2.1-5.4-.8-8.3 3.2-6.6 1.8-12.6-1.8-18.8-5-8.4-11.7-16.2-12.4-26.6-.2-3-2.4-2.7-4.2-3.1-3.5-.8-7.3-1.1-10.6-2.4-5.5-2.1-6.2-5.1-3.1-10 2.1-3.3 4.7-6.4 6.7-9.8 1.6-2.8 3.5-5.9 3.1-9.3-.8-6.2 1.2-10.9 5.9-14.7.7-.6 1.8-1.9 1.6-2.3-3.8-7.8 4.2-16.3-1.5-24-1.2-1.6-.5-3.7.6-5.6 6.4-10.2 4-20.4-1.3-29.8-2.2-3.9-7.3-6.2-11.6-9.7 15.5-22.1 28.1-45.2 26.1-73.2 11 1.2 23.8 12.2 26.1 20.9 8.6 32.3 19.6 63.7 35.8 93.1 9.9 18 20.5 35.6 32 52.6 8.1 11.9 20.4 19.6 30.8 29.3 25.8 24.1 57.7 37.4 89.4 51.1 1.8.8 3.4 1.7 5.6 1 28.5-8.7 58-14.6 84.6-28.6 11.1-5.8 21.6-12.9 32.4-19.3 8.8-5.2 17.8-10 25.4-17 13.4-12.3 30.4-18.8 45.7-27.9 9-5.4 18.7-8.4 28.8-10.6 15.9-3.5 31.9-6.3 48.3-6.2 16.5.2 32.2 4 47.4 10.2 5.7 2.3 9.9 6.6 14.3 10.5 2.7-.4 3.4-2.9 4.8-4.6 6.2-7.6 13.9-11.5 23.9-12.2 23.5-1.7 44.7 4.2 63.8 18 9.7 7 18.2 15.6 24.8 25.4 8.9 13 19.5 24.2 31.6 34.8 8.3-11.6 8-25.1 8.5-38.3.3-7.6.3-7.6 8-13.1v18.1c0 2-.3 4.3.6 5.9 6 10.2 3.4 20.7 1.6 31.2-.3 1.6-.3 4.5 1.2 4.3 6.9-.7 2.8 6.7 6.4 8.3 1.4.6.8 2 0 3.3-3.8 5.9-3.2 12-2.3 18.9 1.4 10 1.1 20.3 5.8 29.7.6 1.2.9 2.8-.2 3.7-4.8 3.9-3 9.1-3.2 13.9-.3 9.9-2 19.3-5.4 28.9-3.7 10.5-6.6 22.1-5.1 33.7.7 5.4-.9 9.3-4.8 12.1-6.2 4.5-11 10.5-16.8 15.4-1.9 1.6-3.8 2.9-1.6 5.6 1.4 1.7 1.2 3.8 1 5.8-.8 6.4 1.7 11.7 6 16.2-2.6 3.5-6.2 3.9-9.9 4.4-9.1 1.3-13.9 6.6-11.7 15.5 1.5 5.9.7 9.8-3.4 13.8-1.8 1.8-2.9 4.4-3 7.3-.1 5.5-3.2 9.3-7.7 11.9-7.3 4.3-10.6 11-9.9 19.1.4 4.8-1.2 7.2-5 9.4-6.4 3.7-12.2 8.2-15.9 14.7-1.5 2.6-3.9 3.5-6.1 4.7-6.5 3.3-11 7.8-13.6 14.9-2.6 7.2-3.7 7.2-11.5 5.6-3.9-.8-7.9-1.2-11.7-2.1-5.5-1.3-10.3-1-14.7 3.2-2.3 2.2-5.6 3.5-8.4 5.2-6.9 4.1-12.9 4.6-18.3-2.3-3.1-3.9-7.1-3.2-10.9-1.7-4.7 1.9-8.7 4.8-12 8.7-2.6 3.1-5.2 3.5-8.7 1.2-3.3-2.2-7-3.8-10.3-6.1-4.4-3-8.5-3.1-12.9-.1-6.3 4.4-13.5 7.1-20.2 10.7-3.9 2.1-7.2 2.5-11.2.4-16.5-8.8-31.2-5.2-44.5 7.1-1 .9-2.1 1.7-3.3 2.2-7.3 2.9-24.4-2.6-28.3-9.6-2.4-4.2-3.8-5.9-9-2.9-7.4 4.4-16.1 4.1-24.3 2.2-5.9-1.4-11.5-1.1-16.3 2.2-7.1 4.9-13.4 3-19.1-1.6-3.7-3-5-2.2-8.9.2-5.8 3.5-13 4.9-19.7 6.8-3.1.9-5.6-1.3-8-3.1-5.3-4-9.1-9.6-14.3-13.7-3.6-2.8-6.5-4.1-10.7-2.5-2.1.8-4.5 1-6.8 1.6-8.7 2.6-14.5.8-19.8-7.8-6.2-10.1-16.9-15.4-28.8-17.3-4.9-.8-9.7-2.1-14.2-4.3-5.1-2.6-9-5.8-10.4-12.1-1.5-6.9-6.3-11.3-12-16-6.3-5.2-13.5-11.1-16.8-19.2-3.1-7.5-6.6-13-15.7-12-3.3.4-4.3-2.2-6.3-3.9-6.5-6.7-10.6-17-23.4-18.5zm334.6-145.4c15.6 2.1 30.9 1.8 46.5-1.1 30.2-5.6 60.6-7.2 91.1-1.6 7.1 1.3 14 1.9 21.1-1.6 9.3-4.6 19.8-6 29.3-10.7-6.3-12.5-17.9-17.2-28.8-22.7-14.6-7.4-28.2-16-38.6-29.1-3.3-4.1-4.2-9.8-9.2-13.1-7.6 8.3-15.1 16-24.3 22.1-16.6 11-35.4 16.3-54.2 21.7-17.5 5-35 10.2-51.1 18.8-5.4 2.9-10.9 6.1-14.8 13 12 1.6 22.5 2.9 33 4.3z"/></svg>