<svg xmlns="http://www.w3.org/2000/svg" id="beard" viewBox="0 0 3000 3000"><path id="cl1" d="M1448.8 1229.4c19.7 13.5 37.7 25.6 57.2 35.5 20.7 10.5 41.6 20.5 63.8 27.3 21.5 6.6 43.2 6.4 64.8 1.1 10.1-2.5 17.2-8.5 19.4-19.1 1-4.8 3.5-9.2 3.4-14.3-.1-4.1-1.3-5.6-5.7-6.2-12.8-1.5-25.6-3.7-38.3-5.9-3.4-.6-8.8-.8-8.8-4.7-.1-4.7 5.6-5.1 9.2-5.6 9.2-1.1 18.5-2 27.7-1.9 16.3.1 32.5.3 48.8-1.6 9.9-1.1 19.9-.8 29.9-1 1.6 0 3.3.1 5 .5 2.9.7 6.3 1.4 6.6 5 .3 4-3.6 4.2-6.2 5.3-9 3.7-18.5 4.8-28.1 6.1-12.7 1.8-12.9 2.4-13.5 14.9-.1 2-.3 4-.6 6-1.4 11 4.3 15.2 12.9 16.7 23.7 4.2 45.8.4 66.9-12 18.2-10.6 35-22.8 50.4-37.1 4.1-3.8 7.6-8.3 11.9-13 4.8 7.8 4.2 16 3.7 23.9-1.5 24.1-8 47.4-13.6 70.7-.5 1.9-.4 3.9-1.6 5.7-9.2 13.3-17.1 27.6-29.6 38.4-13.7 11.8-29.8 19.5-46.1 26.9-20.8 9.5-43.2 11.9-65.5 14.9-26.8 3.6-53.2 1.3-79.1-4.5-32.2-7.2-65.1-13.1-95.1-28.1-8.4-4.2-15.8-9.8-23.2-15.4-4.2-3.2-7.5-7.7-9.2-12.8-3.4-9.9-10.3-18.8-8.9-30.1-6-15.2-6.3-31.4-8.8-47.2-1.4-8.5.8-17 .2-25.6-.2-3.3.3-7.3.1-12.8z"/></svg>