<svg xmlns="http://www.w3.org/2000/svg" id="beard" viewBox="0 0 3000 3000"><path id="cl1" fill="none" stroke="#000" stroke-linecap="round" stroke-linejoin="round" stroke-miterlimit="10" stroke-width="3" d="M1549.2 1155v-9.3m-4.3 20.3v-9.2m3 8.5v-5.6m-15.4 12.1v-8.6m2.5 10v-4.4m-7.699 5.9v-2.4m-9.101 6.2v-1.2m29.2-33.6v-1.7m6.6 5.7v-9m2.5 2v-7.7m.9 16.8v-7.5m2.6.9v-6.5m-1.5 25v-6.7m-2.8 8.7v-4.9m-2.5 8.7v-10m13.601 3.8v-19.2m1.5 1.4v-10.4m5 8.7v-8.8m-2.101-6v-5m9 10.5v-10.7m.601 22.2v-8.7m-3.801 21v-9m2.5 11.7v-5.9m-2.3 10.9v-4m-7 3v-4.9m15.3-1v-7m2.801 5.4v-8.2m-.801 17.5v-4.2m2.801-8v-6.8m.699-2.2v-9m-3.8 7.9v-6.9m3.3-11.5v-4.6m2.301 9.6v-10.8m3 30.7v-12m2.199 19.8v-9.2m2.2 8.5v-4m3.5 8v-7.1m-3.2-5.4v-10.3m2.2 5V1128m-2.399 1.3v-8.2m.699-2.5v-3m5.9 10.2v-10m2.5 11.8v-9.8m1.6 20.8v-7.8m1.2 25v-8.8m3 10v-7.4m1.7 8.7v-2.7m-1.9-12v-9.1m2.5-1v-11m-1.5.1v-7m3.9 23.2v-9.8m2 15.3v-6.5m2 20.7v-9.9m9 8.7v-3.2m-2.2-8.6v-6.4m-1.7.4v-6.5m2.5 2v-9.9m-1.8.7v-8.3m-5.7 6v-7.2m14.2 2.2v-5.2m-2.399 4.2v-2.5m5.199 19.6v-12.8m-2.3 17v-11m4.5 9.5v-5.8m-3.2 23.5v-7m6.2-21.4v-8.6m-2.2.8v-4.5m7.2-.2v-2.3m3.101 17.8v-13.3m1.399 14.8v-8.8m-3.899 23.5v-9.2m-2.301 17.9v-3.2m7.5.2v-8.7m2.5 4.3v-8.1m3.2 8.8v-10.3m-.399-7.4v-8.1m2.199 3.3v-7.2m.7-1.6v-4.9m-5.2 4.2v-4.5m13.5 9.2v-7.7m3.301 3.3v-5.8m-7.301 25.2v-10.4m-.3 25.7v-9.7m6.5 1.2v-10m4.101 0v-11.2m2.5 11.7v-7.5m2.5-4.7v-7.6m3.099 5v-9m-6.2 2.5v-1.9m11.3 4.9v-5.4m2.7 17v-13.3m1.7 1.2v-4.4m5.6 10.9v-10.2m-2.6 14.3v-6.8m.8 13.5v-3.8m3 10.8v-9.8m2 18v-9.2m-7.7 9.5v-9.8m-1.8 3v-6.2m-7.7 11v-10m4.4 16.5v-10.2m-5.5 11.5v-3.8m-8.7 2.5v-4m1.601 7.8v-3.6m-7.101 8v-2.2m-17.899 1.3v-2m39.199-.6v-.9m16.4.4v-.9m-3.2-25v-11.8m3.2 14.7v-8.4m1.6 1.9v-8.4m1.4 23.4v-10.7m-3.4-15.5v-1.8m-4.1.1v-1.6m10.6 13.6v-10.6m4.2 8.5v-10m-2 18v-15.7m2.7 23.2v-8.2m-2.2 12.8v-5.3m7 8.7v-5m-2.3 12.5v-3.7m9.3-2.7v-9.6m-5-3.5v-9.4m1.2-2v-5.6m2.1 12.6v-9m-6.1.5v-9.8m3.6 1.7v-1.5m6.7 8v-7m4 25.6v-11.5m2.7 5v-9.5m-.2-3.3v-6.2m2.7 9.4v-8.2m5 5.2v-5.4m-1.9 21.9v-7m3.5 11.5v-11.7m-5 21.2v-5m-3.1 5.3v-4.8m7.8 5.5v-3m4.8-3.5v-9m2.801 6.3V1131m1.099 21.1v-14.5m-2.599 16.2v-4.8m-3.601-22.5v-8.9m3.8 8.5v-9m3.5 2.9v-4.7m1.5 14.7v-9m1.4 17.3v-8.5m3.6 9.7v-10.7m1.9 2.2v-8.4m-3-2.5v-4m8.6 6.4v-4.5m4 5.1v-3.1m-.199 19.8v-7.7m1.199 17.5v-9.8m-7.199 4.3v-7.5m-.5 17.4v-6.5m-2.901 5.5v-6.5m7.1 7.6v-3.3m7 4v-5.3m3.801 3.3v-5m-1.901 7.3v-1.5m6.5-.6v-7.9m2.1 8.9v-3.4m-31.1-1.8v-5m-52.2 4.5v-9.3m-27.5 4v-5.2m5.7-5.3v-7.5m-45.9 21v-4.2m-8.8 7.5v-4.6m13.5-10.5v-2.2m-41.399 16.8v-5.1m-34.801 10v-5m13.5-22v-3.4m79.9 32v-3.6m74.1 1.5v-7.2m45.9-4v-4.7m.6-9.3v-2.3m5.801 13.6v-3m-253.101 24v-2.6m4-5v-2"/></svg>