<svg xmlns="http://www.w3.org/2000/svg" id="beard" viewBox="0 0 3000 3000"><path id="cl1" fill="#1E1E1E" d="M1330.649 1293.061c11.173 3.513 22.085 7.125 33.105 10.372 23.928 7.051 48.561 11.057 72.936 16.058 35.485 7.278 71.471 11.116 107.771 10.375 28.623-.584 56.938-4.062 84.668-11.411 20.207-5.354 36.336-25.433 37.141-44.48.609-14.438-5.669-24.149-18.073-30.401-5.937-2.993-11.586-6.405-17.337-10.146 2.085-2.628 4.891-1.363 7.229-1.412 18.627-.394 37.313.995 55.867-1.021 9.271-1.007 18.574-.479 27.813-1.689 2.752-.361 5.829-.955 8.79 1.02-7.222 5.962-14.284 11.703-21.245 17.565-12.173 10.251-15.921 23.975-15.732 39.177.057 4.576 2.897 7.862 5.877 11.116 9.868 10.78 22.885 13.555 36.346 12.716 16.315-1.019 32.936-3.841 44.925-16.226 17.351-17.92 33.466-36.986 42.481-60.846 1.041-2.757 2.028-5.492 4.021-8.054 4.176 2.031 3.177 5.748 2.525 8.623-2.92 12.923-5.979 25.833-11.896 37.832-1.317 2.672-2.708 5.364-3.558 8.198-7.611 25.389-24.306 45.296-39.713 65.966-5.103 6.842-13.17 9.507-20.696 10.957-12.642 2.435-23.466 8.512-34.871 13.655-17.397 7.845-36.108 11.221-54.81 13.988-22.106 3.274-44.313 3.61-66.39-.921-1.604-.329-3.383-.428-4.976-.104-15.74 3.167-30.971-.833-46.285-3.309-3.333-.537-7.02-1.779-9.768-.211-5.182 2.96-9.547.954-14.27-.574-21.473-6.953-42.984-13.792-64.453-20.76-7.293-2.365-14.313-5.499-20.521-9.996-5.719-4.143-11.229-8.13-18.848-7.652-1.76.107-3.943-1.045-5.385-2.266-9.57-8.104-21.296-12.1-32.338-17.437-15.252-7.374-30.365-15.039-45.478-22.701-2.137-1.091-5.152-1.763-4.852-6.001z"/><path fill="none" stroke="#000" stroke-miterlimit="10" stroke-width="6" d="M1330.649 1293.061c11.173 3.513 22.085 7.125 33.105 10.372 23.928 7.051 48.561 11.057 72.936 16.058 35.485 7.278 71.471 11.116 107.771 10.375 28.623-.584 56.938-4.062 84.668-11.411 20.207-5.354 36.336-25.433 37.141-44.48.609-14.438-5.669-24.149-18.073-30.401-5.937-2.993-11.586-6.405-17.337-10.146 2.085-2.628 4.891-1.363 7.229-1.412 18.627-.394 37.313.995 55.867-1.021 9.271-1.007 18.574-.479 27.813-1.689 2.752-.361 5.829-.955 8.79 1.02-7.222 5.962-14.284 11.703-21.245 17.565-12.173 10.251-15.921 23.975-15.732 39.177.057 4.576 2.897 7.862 5.877 11.116 9.868 10.78 22.885 13.555 36.346 12.716 16.315-1.019 32.936-3.841 44.925-16.226 17.351-17.92 33.466-36.986 42.481-60.846 1.041-2.757 2.028-5.492 4.021-8.054 4.176 2.031 3.177 5.748 2.525 8.623-2.92 12.923-5.979 25.833-11.896 37.832-1.317 2.672-2.708 5.364-3.558 8.198-7.611 25.389-24.306 45.296-39.713 65.966-5.103 6.842-13.17 9.507-20.696 10.957-12.642 2.435-23.466 8.512-34.871 13.655-17.397 7.845-36.108 11.221-54.81 13.988-22.106 3.274-44.313 3.61-66.39-.921-1.604-.329-3.383-.428-4.976-.104-15.74 3.167-30.971-.833-46.285-3.309-3.333-.537-7.02-1.779-9.768-.211-5.182 2.96-9.547.954-14.27-.574-21.473-6.953-42.984-13.792-64.453-20.76-7.293-2.365-14.313-5.499-20.521-9.996-5.719-4.143-11.229-8.13-18.848-7.652-1.76.107-3.943-1.045-5.385-2.266-9.57-8.104-21.296-12.1-32.338-17.437-15.252-7.374-30.365-15.039-45.478-22.701-2.137-1.091-5.152-1.763-4.852-6.001z"/></svg>