<svg xmlns="http://www.w3.org/2000/svg" id="beard" viewBox="0 0 3000 3000"><path id="cl1" d="M1816.2 1260c-.6-8.3-5.3-13.7-7.6-20.5-2.6 4.8.1 9.7-1.4 15.6-3.1-5.8-4-12-8.2-15.5-9.6-7.9-15.1-19.5-25.8-26.7-10.3-6.9-20.7-13.1-32.2-17.4-16.8-6.4-29.5-17.4-38.6-33.7-13.6 20.9-33.7 32.1-55.8 40.5-9.6 3.7-19 8-28.5 11.9-16.5 6.8-27.7 19-35.7 34.5-1.2 2.3-2.4 4.7-3.8 7-.3.5-1 .8-1.8 1.4-1.2-4.6 2.2-8.1 2.6-13-9.4 6.2-6.8 18.2-13.5 25.2-2.2-5.9-1.8-13.2.7-29.5-8.2 12.4-7.3 28.1-14.4 41.7-1.2-5.7-2.3-10.9-3.8-18-1.9 12.7-.3 23.6-1.4 36.2-7.8-11.6-11.8-23-14.8-34.6-3.5-13.4-7.7-27.1-7.7-40.9-.1-33.9 3.6-67.1 27.6-94.1 9.7-10.8 21.8-18.7 34.4-25.3 20.3-10.8 41.6-18.8 64.9-21 19.7-1.8 36.9 1.9 50.4 17.3 1.1 1.2 2.4 2.2 3.4 3.1 1.1-.4 1.9-.4 2.2-.8 14.1-20.9 38.6-20.3 59.3-12.8 17 6.1 31.7 16.3 44.8 29.1 13.5 13.1 20.9 29.2 24.2 47 5.1 28.1 3.4 56.1-4.9 83.5-1.4 4.7-1.3 9.9-4.2 14.2-.5.8-.8 1.9-2.5 1.5-.5-6.7 2-14.2-3.6-20.1-2.4 4 .7 9.4-4.3 14.2z"/></svg>