<svg xmlns="http://www.w3.org/2000/svg" id="beard" viewBox="0 0 3000 3000"><path id="cl1" fill="#212121" d="M1195.4 872.6c-.8 14.7 2.6 29.5 6.4 44.1 3 11.6 5.6 23.5 10.3 34.7 6.6 15.8 11.4 32.2 17.1 48.4 9.7 27.4 24.2 52 40.5 75.7 14.9 21.6 31.2 42 49.7 60.6 8.4 8.5 17.1 16.7 26.9 23.5 15.5 10.8 30.3 22.6 47.4 31.1 8.7 4.4 15.1 12.9 23.7 18 2.3 1.3 4.2 3.3 6.9 3.7 25.4-26.2 56-44.5 89.4-58.5 12.8-5.4 25.3-11.6 39.4-13.5 8.2-1.1 15.9-.2 23.3 3.3 4.1 2 6.8 5.1 7.1 10 .2 3.6-.4 6.4-4.1 8.1-3.6 1.7-7 3.8-10.6 5.5-22.4 11.1-44.1 23.2-61.4 41.8-3.9 4.2-7.5 8.5-10.3 13.4-13.4 23-10.3 40.6 13.9 61 25.7 21.6 56.5 28.4 89.4 27.4 8.6-.3 15.5-3.7 20.2-12 6.6-11.6 13-23.2 17.1-35.9 3.4-10.4 10.7-14.7 20.9-15.1 5.6-.2 11.3-1 16.9.3 3.7.8 6.1 2.5 7 7.1 1.3 6.7 1 13.3.8 19.9-.5 21.4 12.3 31.9 33.6 26 23.1-6.4 42.4-19.6 55.3-40 9.5-15.1 14-31.6 6.2-49.3-4.3-9.7-11.9-16.8-19.6-23.5-9.8-8.5-20.6-15.7-32.1-21.8-1.2-.6-2.2-1.5-3.4-2.1-5.4-2.6-10.1-5.9-9-12.7.7-4.4 10.6-9.4 16.7-8.4 11.2 1.8 22 5.2 32 10.7 19.6 10.6 37.8 23.4 54.3 38.5 5.7 5.2 5.7 5.1 11.1-.1 6.8-6.5 12.1-13.9 16.2-22.6 1 10.3.9 20.5-.5 30.7-1.3 9.9-2.8 19.6-5.4 29.2-2.5 9.2-2.4 19-4.9 28.3-5.6 20.8-11.3 41.6-18.1 62.1-1.8 5.5-4.6 10.3-8.6 14.4-27.8 29.4-61.5 47.7-101.4 55.5-19.2 3.8-38.6 6.4-57.9 8.8-7.9 1-15.9 1-23.9.9-23-.2-46 1.1-68.9-.8-25.8-2.2-51.6-4.9-75.8-15.2-16.2-6.9-32.2-14.3-45.1-26.9-4.3-4.2-8-8.8-11.3-13.8-2-3.2-4.4-5.7-8-7.1-38.6-15-73.9-36.2-109.7-56.5-17.1-9.7-33.6-20.2-49.1-32.3-.8-.6-1.6-1.2-2.4-1.7-31.2-18.4-48.7-47-59.2-80.5-10-31.9-19.7-64-27.4-96.6-6.3-26.8-11.4-53.8-13.4-81.3-1.4-18.6-4.1-36.8-9.5-54.7-3.1-10.2-7.8-19.8-12.3-29.3-2.3-4.9-8.7-6.9-13.3-9.9-3.5-2.3-7.2-4.6-7-9.9.1-3.6 1-5.4 5-5.4 9-.1 18 .4 26.9-.4 15.9-1.4 31.7-3.1 47.4-5.6 1.3-.2 2.6-.5 4.6.7z"/><path fill="none" stroke="#000" stroke-miterlimit="10" stroke-width="6" d="M1195.4 872.6c-.8 14.7 2.6 29.5 6.4 44.1 3 11.6 5.6 23.5 10.3 34.7 6.6 15.8 11.4 32.2 17.1 48.4 9.7 27.4 24.2 52 40.5 75.7 14.9 21.6 31.2 42 49.7 60.6 8.4 8.5 17.1 16.7 26.9 23.5 15.5 10.8 30.3 22.6 47.4 31.1 8.7 4.4 15.1 12.9 23.7 18 2.3 1.3 4.2 3.3 6.9 3.7 25.4-26.2 56-44.5 89.4-58.5 12.8-5.4 25.3-11.6 39.4-13.5 8.2-1.1 15.9-.2 23.3 3.3 4.1 2 6.8 5.1 7.1 10 .2 3.6-.4 6.4-4.1 8.1-3.6 1.7-7 3.8-10.6 5.5-22.4 11.1-44.1 23.2-61.4 41.8-3.9 4.2-7.5 8.5-10.3 13.4-13.4 23-10.3 40.6 13.9 61 25.7 21.6 56.5 28.4 89.4 27.4 8.6-.3 15.5-3.7 20.2-12 6.6-11.6 13-23.2 17.1-35.9 3.4-10.4 10.7-14.7 20.9-15.1 5.6-.2 11.3-1 16.9.3 3.7.8 6.1 2.5 7 7.1 1.3 6.7 1 13.3.8 19.9-.5 21.4 12.3 31.9 33.6 26 23.1-6.4 42.4-19.6 55.3-40 9.5-15.1 14-31.6 6.2-49.3-4.3-9.7-11.9-16.8-19.6-23.5-9.8-8.5-20.6-15.7-32.1-21.8-1.2-.6-2.2-1.5-3.4-2.1-5.4-2.6-10.1-5.9-9-12.7.7-4.4 10.6-9.4 16.7-8.4 11.2 1.8 22 5.2 32 10.7 19.6 10.6 37.8 23.4 54.3 38.5 5.7 5.2 5.7 5.1 11.1-.1 6.8-6.5 12.1-13.9 16.2-22.6 1 10.3.9 20.5-.5 30.7-1.3 9.9-2.8 19.6-5.4 29.2-2.5 9.2-2.4 19-4.9 28.3-5.6 20.8-11.3 41.6-18.1 62.1-1.8 5.5-4.6 10.3-8.6 14.4-27.8 29.4-61.5 47.7-101.4 55.5-19.2 3.8-38.6 6.4-57.9 8.8-7.9 1-15.9 1-23.9.9-23-.2-46 1.1-68.9-.8-25.8-2.2-51.6-4.9-75.8-15.2-16.2-6.9-32.2-14.3-45.1-26.9-4.3-4.2-8-8.8-11.3-13.8-2-3.2-4.4-5.7-8-7.1-38.6-15-73.9-36.2-109.7-56.5-17.1-9.7-33.6-20.2-49.1-32.3-.8-.6-1.6-1.2-2.4-1.7-31.2-18.4-48.7-47-59.2-80.5-10-31.9-19.7-64-27.4-96.6-6.3-26.8-11.4-53.8-13.4-81.3-1.4-18.6-4.1-36.8-9.5-54.7-3.1-10.2-7.8-19.8-12.3-29.3-2.3-4.9-8.7-6.9-13.3-9.9-3.5-2.3-7.2-4.6-7-9.9.1-3.6 1-5.4 5-5.4 9-.1 18 .4 26.9-.4 15.9-1.4 31.7-3.1 47.4-5.6 1.3-.2 2.6-.5 4.6.7z"/></svg>