<svg xmlns="http://www.w3.org/2000/svg" id="beard" viewBox="0 0 3000 3000"><path id="cl1" d="M1294.1 1044.5c25.3-3.7 50.5-4.4 75.4.2 22.5 4.2 42.2 15.6 60.7 28.8 18.2 12.9 35.2 27.3 51.4 42.5 18.1 16.9 40 26.4 63.6 31.1 21.3 4.2 43 3.6 63.9-3.8 10.4-3.7 17.8-11.5 25-19.3 6.5-7.1 12.9-14.1 20.6-20 14.8-11.3 31.2-13.5 48.3-4 3.3 1.8 4.9 1.2 7.8-.4 13.5-7.4 26.6-5.6 38.7 4.1 7.3 5.8 13.3 12.9 21.2 18 19.8 12.9 41.5 17.3 64.6 16.1 11.6-.6 23-2.5 34.2-6.1 15.1-4.9 25.9-15.9 37.3-25.9 12.4-10.8 21.8-24.1 31.2-37.4 11.1-15.8 25.8-27.6 43.9-34.7 13-5.1 26.7-6.5 40.5-7.3-10.4 4.3-20.8 8.5-30.7 13.8-10.3 5.6-19.4 12.6-26.4 22.3-9.9 13.8-19.4 27.7-27.7 42.6-16 28.8-38 51.9-66.9 68.1-14.5 8.1-30.5 11.4-46.8 12.6-17.6 1.3-35.1.1-52.3-4.8-24-6.9-42.6-21.2-58.5-39.7-.9-1-1.6-2.1-2.5-3.1-3.6-3.9-5.3-3.9-8.7 0-.9 1-1.7 2-2.4 3.1-12.1 18.3-29.1 30.9-48.3 40.6-24.6 12.5-50.9 19.2-78.5 20.2-36 1.3-66.7-11.2-93.5-35-20-17.8-36.4-38.6-53.3-59-10.2-12.3-20.1-24.6-33.3-33.9-20.9-14.8-44.6-21.6-69.3-26.1-9.5-2-19.5-1.8-29.2-3.6z"/></svg>