<svg xmlns="http://www.w3.org/2000/svg" id="beard" viewBox="0 0 3000 3000"><path id="cl1" d="M1520.7 1415.7c-12.2 1.8-22.1-2.9-30-11.1-4.4-4.6-8-4-12.9-2.1-13.5 5.1-26.2 3.2-37.5-5.6-6.1-4.7-10.9-10.9-12.5-18.6-.9-4.2-2.1-6.3-6.8-6.7-4.9-.4-9.7-2.1-14.5-3.5-17.4-4.9-27.7-22.5-23.6-40.3.4-1.6.5-3.3 1.3-4.8 1.8-3.5.5-5.5-2.8-7-3.3-1.6-6.6-3.1-9.3-5.6-14.4-13-13.1-38.4 2.5-50.8 7.8-6.2 17-9 26.6-10.2 6.2-.8 6.9-.2 6.8 6.1-.1 12 2 23.8 4.2 35.5 4.3 23.4 18.2 40.2 37.8 52.5 23.7 14.8 49.8 23.2 77.5 26.5 32.1 3.8 63.6 1.7 94.2-9.4 7.7-2.8 15.9-4.7 23-9.1 3.8-2.4 5.6-.9 6.3 2.7 4.3 22-1.8 41.5-29.5 43.7-5.8.5-9.1 1.8-12.7 6.7-5.8 7.7-15.1 10.6-24.6 11.4-10 .9-20 .1-28.9-5.4-4.2-2.6-7.6-2-11.9.3-7 3.5-14.6 6.3-22.7 4.8zm143.5-51c2.1 19.2 12.2 28.3 30.2 29.1 6.4.3 12.6-1.2 18.3-4.2 4.1-2.1 7-2.4 10.4 1.4 8.1 9.1 31.6 10.9 42.2-.3 8.1-8.5 15.5-10.3 26.6-8.6 14.2 2.3 31.6-10.9 28.3-25.6-1.6-7.1 2.3-9.6 8.4-11.9 13.3-5.1 19.5-20.9 13.4-33.8-2.1-4.5-1.7-7.5.4-11.8 7.6-15.6-1.2-32.2-18.4-35.3-3.2-.6-6.6-.5-9.9-.6-3.3-.1-4.6 1-4.3 4.7.5 6 .7 12 .4 17.9-1.3 23.4-11.2 42.3-31.2 54.7-26.9 16.6-56.4 20.3-87.2 14-8.9-1.8-17.4-6.5-27.4-4.5-.2 5-.7 9.9-.2 14.8z"/></svg>