<svg xmlns="http://www.w3.org/2000/svg" id="beard" viewBox="0 0 3000 3000"><path id="cl1" d="M1149.1 959.6c12.7 1.3 24.3 6.2 36.4 9.2 2.7.7 3.6 2.7 4.3 5 4.2 14.3 9.1 28.3 13.7 42.5 9.5 28.7 20.9 56.2 38.2 81.4 15.3 22.2 32 43.3 50.5 62.6 16.3 17 36.3 29.9 57.4 40.5 10.6 5.3 20.5 12.1 32.1 15.6 26 7.9 50.2 3.4 73.4-9.4 13.9-7.6 27.5-15.9 40.6-24.9 10.7-7.3 20.3-16.1 29.2-25.6 14.6-15.6 30.6-29.3 50-38.7 2.1-1 3.9-2.4 5.9-3.6 18.8-12.1 40-17.3 61.7-20.5 8.2-1.2 16.6-.2 24.9-.7 18.3-1 36.4 1 54.2 4.5 14.9 2.9 27.4 11.6 38.5 21.8 13.3 12.2 23 27.3 34.3 41.2 8.3 10.3 16.7 20.6 25 31 3.6 4.5 7.7 8.7 12.8 10.9 5.3 2.4 4.8 5.7 3.5 9.5-3.6 11.4-8 22.5-11.3 33.9-7.9 27.5-20.8 52.9-31.2 79.4-5.1 13-14.5 23.5-21.5 35.5-12 20.7-28.9 37.5-46.8 52.4-20.1 16.7-43.1 29.1-71.4 28.1-21-.8-41.3-4.3-61.7-8.5-17.3-3.6-34-8.7-49.8-16.1-13.1-6.1-25.9-13.2-38.9-19.6-18.4-9-37-17.8-55-27.7-18.9-10.4-38.1-19.8-57.5-29.2-16.1-7.7-31.5-16.8-47.1-25.5-24.3-13.5-48.8-26.8-72.8-40.9-28.2-16.6-51.4-38.3-65-68.7-3.1-6.9-5.3-14.2-7.5-21.4-5.8-19.6-11.7-39.2-16.7-59-3.4-13.5-7.6-26.7-10.2-40.4-2.2-11.7-5.2-23.2-8.8-34.6-3-9.8-4.5-20-6.1-30-2.7-17.6-6.3-35.1-7.2-53 0-1.8-1.5-3.5-.1-7zm22.5-31.3c-7.6-1.9-15.3-3.7-22.9-5.6-1.7-.4-3.3-1-4.2.9-1.9 3.7 1.9 12.8 6 13.7 10.5 2.5 21.1 4.7 32.4 7.2-.3-13.4-.3-13.4-11.3-16.2zm2.7 19.3c-8.6-2.1-17-4.5-25.8-5.4-1.6 11-1.7 11.8 5 13 10.7 2 20.8 6.3 32.1 8.5 0-15.3 1.5-13-11.3-16.1zm-5.5-50.3c-7.1-1.5-14-4-21-5.8-5-1.3-5.7-.4-5.7 4.6 0 3.5 1 5.2 4.8 6 9.6 1.9 19 4.5 29.1 7 1.1-7.1-1-10.5-7.2-11.8zm4.9 15.3c-8.9-2.4-17.9-4.3-26.8-6.3-2.6-.6-4.2 1.7-3.3 4.2.6 1.7 1.9 2.6 3.5 3.1 9.9 2.5 19.7 5.1 29.6 7.5 2 .5 3-.7 3-2.9-.2-3.6-3.3-4.9-6-5.6zm535.7 375c3.1 15.3 16.1 23.4 31 18.7 15.7-5 29.5-13.2 41.1-25.1 6.1-6.2 10.1-13.9 15.1-20.8 6.8-9.3 9.2-20.4 12.9-31 .9-2.6.5-5.3-.2-7.9-2.2-7.8-5.4-15.1-11.1-20.8-6.8-6.8-13.5-13.8-21-19.8-7.9-6.3-16.1-13-27-13.3-16.5-.4-33.1-1-49.6-.3-25.3 1.1-50.5 1.2-75.7.3-20.1-.7-38.8 3.4-56.8 11.2-22.6 9.7-43.7 22.2-63 37.4-9.9 7.8-18.9 16.3-25.2 27.6-3.4 6.1-3.1 11.3.2 16.7 2 3.4 4.5 6.5 7.1 9.5 17.6 20.6 41.4 31.6 66.1 40.6 17.7 6.4 36.3 9.6 55.4 8.7 8.5-.4 15.4-2.9 21.2-9 6-6.3 9.3-14.4 14-21.5 8.2-12.2 12.7-26.2 17.2-40 2.6-8.1 7.5-13.1 15.5-14.5 6.5-1.2 13.1-1.6 19.8-.3 8 1.5 10.2 3.5 11 11.5 1 9.5 2 19 .7 28.5-.5 4.5.4 9 1.3 13.6z"/></svg>