<svg xmlns="http://www.w3.org/2000/svg" id="beard" viewBox="0 0 3000 3000"><path id="cl1" d="M1413.1 1333.8c-12.4-4.5-25.6-7.5-37.9-13.6-21-10.4-42.7-19.5-62.6-32.1-29.9-19-59.8-38-87.2-60.7-16.6-13.7-28.1-30.6-35.8-50.3-7.5-19.1-12.1-39-16.5-59-4.8-21.9-7.9-44-12.4-65.9-3.8-18.7-6.1-37.7-9.2-56.6-3.8-22.5-5.7-45.2-10.6-67.5l-.3-.9c-2.3-11.3-1.5-12.6 9.7-14.9 8.1-1.6 16.4-2.4 24.3-4.6 4.9-1.4 6.5.5 7.8 4.3 2.4 7.2 4.9 14.4 7 21.7 6.5 22.2 12.3 44.5 19.3 66.5 3.9 12.2 9.7 23.9 14.3 35.9 8.8 22.8 22.1 42.8 36.9 62.2 11.9 15.6 24.7 30.3 37 45.4 7.7 9.4 17.2 17.5 26.4 25.5 14.3 12.4 29.2 24 43.7 36.2 7.1 6 15.1 10.8 22.7 16.1 2.6 1.8 4.2 3.3 4.6 6.8 4.2 33.7 14.4 65.9 23.9 98.3 1.8 6.1.5 7.9-5.1 7.2zm-238.6-432.2c5.6-1.1 5.9-4.5 4.1-8.8-1.4-3.5-.6-9.2-7.7-7.1-9.4 2.8-18.9 5.5-28.5 7.8-4.1 1-5.3 3.3-5 7.1.2 2.3-.4 4.6 1.4 8.2 12-2.4 23.9-4.9 35.7-7.2zm-8.3-36.5c3.6-1 4.2-4.8 2.7-10.1-1.3-4.4-4.1-3.4-7-2.7-6.7 1.7-13.3 3.5-20 5.2-10.2 2.5-10.7 3.3-8.2 13.5.1.6.7 1.1 1.3 2.1 10.3-2.6 20.8-5.1 31.2-8zm-5.6-19.5c5.5-1.4 3.6-5.5 3-8.8-.6-3.9-3.8-3-6.2-2.3-6.6 2-13.2 4.1-19.7 6.3-7.6 2.6-7.6 2.6-5.4 11.9 9.9-2.5 19.1-4.8 28.3-7.1zm8.3 33.9c3.8-.8 5.4-2.4 4.4-5.9-.9-3.2-3-4.7-6.8-3.5-8.2 2.6-16.5 4.8-24.7 7.2-1.9.5-4.1.6-5.7 1.7-2.1 1.4-2.7 3.8-1.6 6.2.7 1.6 1.7 2.8 3.7 2.1 10.3-2.7 20.4-5.6 30.7-7.8z"/></svg>