<svg xmlns="http://www.w3.org/2000/svg" id="beard" viewBox="0 0 3000 3000"><path id="cl1" d="M1853.1 1135.3c-3.6 13.5-3.6 27.4-4.8 41.2-2.4 27.1-6.1 54.1-13.9 80.2-7 23.1-16.2 45.1-32.1 64.2-27.2 32.6-60.3 56.3-99 73-17.8 7.7-36.3 12.7-54.3 19.5-6.2 2.3-12.4 1-18.5-.4-21.6-5-43.6-9-64.7-15.5-45-13.9-89.9-28-133.5-46.5-34.8-14.7-68.4-31.9-102-49.1-20.4-10.5-39.3-23.5-57.5-37.5-7.6-5.9-15.3-11.7-22.4-18.2-17-15.4-32.3-32-45.1-51.2-17.5-26.2-26.1-55.5-32.2-85.9-.1-.6.1-1.3.3-1.9.1-.2.5-.3 1.2-.9 4.5 9.1 8.7 18.3 13.5 27.2 8.3 15.5 18.1 29.9 29.4 43.3 8.9 10.6 17.9 21.2 28 30.8 6.1 5.8 12.9 10.5 19.6 15.2 34.5 24.2 69.8 47 109.2 62.9 34.1 13.8 68.3 27.4 103.6 37.8 29.2 8.6 58.6 17.3 89.2 19 17.9 1 35.9-1.2 50.1-14.8 4.3-4.1 9.1-7.5 13.1-12.1 7.3-8.5 9.4-18.5 10.9-29.1 1.2-8.5 2.8-16.9 4.1-25.4.4-2.6 1.8-3.4 4.4-4.4 6.7-2.5 13.8-1.6 20.6-2.9 4.1-.7 8.5-.1 13.3-.1.2 13.3 3.5 26.3 6.9 39.3 2.3 8.8 6.9 16.7 15.2 22.3 19.2 13 37.8 10.4 56.8 0 10.6-5.8 19.9-12.9 28.3-21.6 5.1-5.3 9.5-11.3 12.8-17.5 8.7-15.9 19.3-30.9 24.8-48.3 4.5-14.2 8.4-28.5 11.2-43.2 2.6-13.3 5.5-26.6 8.9-39.7.7-2.9.7-5.9 1.6-8.7.5-1.5 1.5-1.5 3-1l-1.5-1.2 1.5 1.2zm-420-1.4c19.5 16.7 41.6 28.9 65.6 38 15.8 6 31.6 12.4 48.4 13.8 16.5 1.3 33 2.3 49.7 1.7 25.7-.9 50.7-5.2 74.5-14.2 12-4.5 22.9-5.1 34.5-1.2 1.9.6 3.7 1.4 5.6 2 10.8 3.3 22.1 6.2 33.2 5.5 15.7-1 31-4.1 45.3-12 18.3-10.1 33.2-23.8 47.7-38.5-6.8 1.4-13.4 3.3-20.2 4.2-19.1 2.5-37.8.1-56-5.3-8.1-2.4-14.7-7.5-19.7-14.5-3.2-4.5-4.9-9.3-2.9-15.1-15-4.1-29.8-5.9-45.3-3.8-13.5 1.8-25.6 3.8-37.6 12.3-21.6 15.3-47.7 21-73.4 26.3-13.2 2.8-26.8 2.9-40.2 3.8-24.2 1.7-48.3-.2-72.3-3-13.4-1.5-26.7-4-40.3-6.1-.1 3.9 1.9 4.8 3.4 6.1zm420 1.4c-1.7-1.5 1.6-3.8-.6-5.4-1.5 2.2.4 3.7.6 5.4-.1.1 0 0 0 0z"/></svg>