<svg xmlns="http://www.w3.org/2000/svg" id="beard" viewBox="0 0 3000 3000"><path id="cl1" d="M1141.8 894.2c9.7 5.9 18.8 9.2 25.7 17.1 8.3 9.4 17.7 17.8 25.1 28.1 4.8 6.6 8.1 13.6 9.7 21.6 4.5 22.1 11.5 43.5 17.4 65.2 4.9 17.9 9.4 35.9 17.6 52.7 10.4 21.5 20.7 43 31.1 64.4 2.3 4.8 5 9.4 7 14.3 2.5 6.3 7.5 7.8 13.5 7.8s11.7-1.3 17.5-3.2c24.3-7.7 48.7-15.2 73.3-22.1 34.7-9.7 69.9-17.5 105.5-23.8 40.2-7.1 80.5-13.4 120.9-19 19.1-2.6 38.2-3.6 57.4-4.2 9.6-.3 19.1-1 28.7-1.1 9.1-.2 9.4 0 9.8 9.2.3 6.9.4 13.8-1.8 20.7-2 6.3-3.3 12.9-3.8 19.4-.3 4.5-2.2 5.6-6 6.1-18.7 2.5-37.3 6.3-56.2 7.8-29.2 2.3-57.8 8.1-86.5 13.2-22.5 4-45.1 7.9-67.4 12.7-35.3 7.6-70.2 17-104.5 28.3-16.1 5.3-31.2 13-46.2 20.5-6.6 3.3-13.3 5.8-20.3 7.7-7 2-14.1 4-20.7 6.9-12.9 5.5-26.2 4.1-39.4 3-4.1-.4-7.5-2.8-10.5-5.4-11.7-10.2-23.2-20.3-29.1-35.6-11.5-29.2-23.2-58.3-31.5-88.6-8.2-29.9-15.5-60.2-19.5-91-1.9-14.4-4.6-28.8-6-43.2-1.8-19.4-5.6-38.6-7.5-58-1.3-9.7-3.9-19.4-3.3-31.5zm568.4 207.4c1.1 13.1-2 25.8-5.1 38.3-1.5 6.2.4 8.2 5.3 10.1 3.7 1.4 7.3 3.2 10.8 5.1 20.8 11.1 41.4 22.5 62.3 33.4 12.6 6.5 23.3 14.9 31.9 26.2 2.7 3.5 3.2 8.6 7.1 11 9.2-5.2 15.8-12 18.3-21.9 1-3.9 2.8-7.5 4-11.2 3-9.2 4.2-18.8 4.3-30.3-6.1 6-9.9 3.2-13.7-.5-2.3-2.4-4.9-4.5-7.2-6.8-10.7-10.5-22-20.1-35.6-26.8-6.2-3.1-12.3-6.5-18.1-10.4-17.1-11.5-36.4-17.3-55.7-23.3-2.5-.8-5.3-.4-8.1-.5-1.8 3.1-.7 5.4-.5 7.6z"/></svg>