<svg xmlns="http://www.w3.org/2000/svg" id="beard" viewBox="0 0 3000 3000"><path id="cl1" fill="#232323" d="M1534 1201.5c-1-5.8.2-10.9 2.4-15.7 15.1-33.5 39.7-57.4 73.2-72.2 6.1-2.7 12.7-3.9 19.4-3.6 3.8.1 7.4 1 8.7 5.2 1.3 4.2.1 7.7-3.2 10.7-4.2 3.9-9.3 6.5-14.3 9-26.5 13.2-48.2 32.6-69.2 52.9-5.1 5-10.1 10.3-17 13.7zm206.8-88.5c-5.2-3.6-10.9-4.9-17.1-3.4-6 1.4-7.9 6.3-4.9 11.4 1.8 3 4.6 4.7 7.4 6.6 13.7 9.4 26.7 19.7 38.2 31.8 6.4 6.7 12.6 13.6 21.8 19.7-6.7-29.4-22.5-50.2-45.4-66.1z"/><path fill="none" stroke="#010000" stroke-miterlimit="10" stroke-width="6" d="M1534 1201.5c-1-5.8.2-10.9 2.4-15.7 15.1-33.5 39.7-57.4 73.2-72.2 6.1-2.7 12.7-3.9 19.4-3.6 3.8.1 7.4 1 8.7 5.2 1.3 4.2.1 7.7-3.2 10.7-4.2 3.9-9.3 6.5-14.3 9-26.5 13.2-48.2 32.6-69.2 52.9-5.1 5-10.1 10.3-17 13.7zm206.8-88.5c-5.2-3.6-10.9-4.9-17.1-3.4-6 1.4-7.9 6.3-4.9 11.4 1.8 3 4.6 4.7 7.4 6.6 13.7 9.4 26.7 19.7 38.2 31.8 6.4 6.7 12.6 13.6 21.8 19.7-6.7-29.4-22.5-50.2-45.4-66.1z"/></svg>