<svg xmlns="http://www.w3.org/2000/svg" id="图层_2" viewBox="0 0 3000 3000"><path fill="#E0E0E0" d="M1098.434 805.442c33-28.295 100.772-53.32 129.706 2.058 12.811 24.52-39.64 89-39.64 89s27.915 22.805 17.958 53.402S1190.5 980.5 1190.5 980.5s23 1.511 23 29.755-7.042 32.869-7.042 32.869 30.245-7.418 57.749 19.514C1285 1083 1280 1116.5 1280 1116.5s18.5-33.5 40.5-36.5 49 16.5 49 16.5 25-23 54-24 55 20.223 58 41.111 71.329 35.174 75 49.556c40.667 159.333 115.5 31.656 115.5 31.656l54-3.75s22.979 30.2 33.224 14.65c24.996-37.943 17.276-57.01 17.276-57.01s99.146 43.339 100 77.119-13.471 23 5.333 56 14.001 69.712-5.999 88c-28.029 25.63-40.482 47.667-47.728 69.667s-45.938 68.5-82.938 71-127.334 7.333-178.001 10.667c-48.557 3.195-147.473-51.123-170.167-73.123s-23.167 1.456-79.167-17.544-101 4-120-52-60.416-41.246-72-89.333c-12.5-51.887-.333-99.333 4.667-135.333s50.782-49.3 36-72.333c-21.5-33.5 2.508-29.448-6-53.5-5.866-16.582-33-17.745-25-45.5 5.608-19.457-14-34-16-61s-6.709-30.81-6.709-30.81l-14.357-85.248z"/><path fill="#FFF" d="M1704.752 1083.249s12.787 93.507-98.488 109.116c-111.275 15.609-132.257-48.231-132.257-48.231s45.577 20.688 66.466 11.797c0 0-7.284 12.091-26.124-16.373 0 0 73.347-24.129 111.544-64.082 38.2-39.951 78.859 7.773 78.859 7.773z"/><path fill="#FFF" d="M1704.196 1082.457s-21.66 92.011 87.664 117.218c109.321 25.211 136.31-36.539 136.31-36.539s-47.366 16.643-67.317 5.975c0 0 6.103 12.67 27.575-14.041 0 0-70.735-30.402-104.963-73.502-34.226-43.104-79.269.889-79.269.889z"/><path fill="#E0E0E0" d="M1703.727 1102.606c-2.742 18.319-10.845 34.52-30.097 47.358-25.979 17.322-60.873 25.167-92.232 21.303-7.695-.945-9.264-9.249-4.395-14.053 6.775-6.675 15.175-13.563 21.323-21.492-26.369 12.598-54.378 11.825-83.491 4.54 7.725 11.504 13.479 16.152 17.548 17.624-22.689 2.437-58.376-13.752-58.376-13.752s20.981 63.84 132.257 48.231c77.757-10.909 96.188-32.697 98.215-88.328-.253-.475-.503-.953-.752-1.431z"/><path fill="#E0E0E0" d="M1868.724 1171.758c4.277-1.138 10.607-5.372 19.703-16.687 0 0-21.158-9.103-45.919-24.387.12.41.281.813.386 1.227 3.048 11.641-4.881 20.41-16.188 23.952-11.936 3.736-26.619 2.389-40.459-1.954-1.527 2.907-4.617 5.146-8.242 4.708-21.843-2.654-41.715-10.229-57.982-24.632-7.274-6.441-12.51-13.229-16.82-20.374-1.09 87.38 52.07 77.627 88.657 86.064 109.321 25.211 136.31-36.539 136.31-36.539s-37.089 13.02-59.446 8.622z"/><path fill="#FFF" d="M1829.625 1212.113s-2.12 68.909-69.625 19.387c-15.721-11.533-34-40.426-34-40.426l-54 3.75s2.122 65.074-68.889 78.633c-86.416 16.503-77.628-73.358-103.111-98.218-8.692-8.48-35.614-4.285-36.833-31.667-1.333-29.96-80-50.405-80-50.405s33.648 23.056 41.333 34.011c5.382 7.671 12.542 35.322 12.542 35.322s-48.747-51.831-100.542-48.889c-21.832 1.241-40.518 23.85-67.333 31.555-54.19 15.571-71.333-3.333-106.667 68-9.727 19.637-5.575 80.138 38.667 127.657 18 19.333 14.787-40.505 26.973-60.323 16.555-26.923 63.717-43.321 63.717-43.321s-14.519 22.806-25.357 55.321c-6 18 1.142 50.156 2.153 58.184 1.592 12.641 49.847-61.517 35.847-18.309-10.514 32.448 19.27 90.743 18.667 80.124-3.333-58.667 18.288-32.751 20.667-26 14.134 40.116 40.397 36.561 56 61.333l24.616 27.51s104.433 113.097 362.523 48.867c0 0-34.382-4.993.645-31.394l11.922 20.266c-.002.001 79.571-120.256 30.085-300.968z"/><path fill="#E0E0E0" d="M1474.007 1210.5c-54.5 58.107-110.007 130.323-44.788 187.451 3.774 3.306 11.216.689 9.968-4.539-.892-3.715-2.159-7.485-2.741-11.305 5.847 5.291 10.417 11.996 15.347 17.793 8.248 9.686 16.594 19.235 25.918 28.106 16.854 16.044 36.222 29.892 58.835 38.929 47.646 19.038 101.828 16.807 153.395 14.064 6.247-.333 8.855-7.932 2.491-10.014-12.646-4.128-22.336-11.921-30.641-20.984 22.604 10.442 49.555 15.935 73.112 8.95 31.615-9.377 25.075-3.706 45.175-26.447 23.063-26.087 43.099-35.336 51.921-68.006 13.556-50.199-9.64-107.228-2.375-152.387.502-.8 0 0 0 0 130.375 136.553-30.087 300.969-30.087 300.969l-11.922-20.266c-35.026 26.4-.645 31.394-.645 31.394-258.09 64.229-362.523-48.867-362.523-48.867l7.216 35.907C1289.5 1289 1430.201 1245.94 1474.007 1210.5z"/><ellipse cx="1221.099" cy="1124.5" fill="#FFF" rx="43.401" ry="52.667"/><path fill="none" stroke="#000" stroke-miterlimit="10" stroke-width="6" d="M1098.434 805.443s45.862-36.894 77.964-30.917 59.435 13.977 53.435 47.977-42.667 75.333-42.667 75.333 22 13.333 20.667 36-16.667 46.667-16.667 46.667 15.441 2.044 20.387 17.022-5.095 45.6-5.095 45.6 36.042-4.622 52.042 15.378 21.098 22.884 23.216 55.109c0 0 18.785-29.775 38.118-33.775s49.807 13.331 49.807 13.331 31.279-27.756 67.403-19.543 43.058 46.208 51.924 50.876 24.164 13.786 24.164 13.786 46.855-13.083 76.112-31.767 37.185-39.602 55.206-44.113 37.424.479 58.737 19.137c0 0 19.313-22.742 46.646-17.892s40 28.851 62.667 47.518 65.855 42.471 75.928 43.902l-23.944 16.821s26.845 1.157 41.519-2.614 22.168-9.609 22.168-9.609-5.671 24.143-30.337 35.155-33.04 8.966-33.04 8.966 15.686 10.713 11.696 28.046-11.99 23.333-3.99 34.667 26.465 34.679 20.899 64.673-15.565 36.661-15.565 36.661-9.319 43.333-31.993 83.333-47.396 64-47.396 64l-8.611-24s-18 9.999-18 19.333 15.168 17.334 15.168 17.334-95.835 21.333-175.835 15.333-124-19.334-183.333-66c0 0 0 24 4.667 33.333 0 0-29.333-38-40.667-66.667 0 0-19.718-6.003-22.192-5.668s-41.265 2.334-60.203-4.999-47.604-9.999-64.938-13.333-35.802-14.543-45.568-38.271-7.766-27.061-25.766-37.728-43.334-22-48.667-52.667-8.452-114.92 11.161-153.075c13.842-26.928 28.175-37.595 28.175-37.595s5.55-8.942 5.667-12.333c.32-9.33-10.996-22.25-12.667-32.333s6-11.709 3.333-23.667c-2.195-9.845-15.379-13.264-24-32.667-4.135-9.307.138-15.753.333-21 .564-15.123-17.335-57.998-17.335-57.998s-7.716-29.593-9.666-39.594c-3.65-18.716-11.067-75.466-11.067-75.466z"/></svg>