<svg xmlns="http://www.w3.org/2000/svg" id="scar_x5F_f" viewBox="0 0 3000 3000"><path id="cl1" fill="#A20D03" d="M1820.6 1174.7c-4.1-10.1-31.2-35.8-31.6-36.4-.4-.6-20.6-17.1-20.6-17.1s4.6-.3 7.9 2.1c3.3 2.4 21.1 13.1 27.1 19.2s18.4 20.8 18.4 20.8"/><path id="hl1" fill="none" stroke="#F9CECD" stroke-miterlimit="10" d="M1820.6 1174.7c-4.1-10.1-31.2-35.8-31.6-36.4-.4-.6-20.6-17.1-20.6-17.1s4.6-.3 7.9 2.1c3.3 2.4 21.1 13.1 27.1 19.2s18.4 20.8 18.4 20.8"/><path fill="none" stroke="#4B2411" stroke-miterlimit="10" stroke-width="3" d="M1777.7 1151.6s26-23.1 31.3-25.2m14.7 21.5s-28.1 18.8-32.4 23.1"/></svg>