<svg xmlns="http://www.w3.org/2000/svg" id="scar_f" viewBox="0 0 3000 3000"><path id="cl1" fill="#FF9B87" d="M1351.3 906s28 81.3 53.7 112.7c4 17.3-7.7 23.3-7.7 23.3s13.3 36.3 93.7 91.7c-19-26-55-60.3-61.7-85-3.3-12 .7-18.7.7-18.7l4.3-2.3s1.7-12-5.3-19c-32.3-32.7-77.7-102.7-77.7-102.7z"/><path fill="none" stroke="#9D4E4C" stroke-miterlimit="10" stroke-width="6" d="M1351.3 906s28 81.3 53.7 112.7c4 17.3-7.7 23.3-7.7 23.3s13.3 36.3 93.7 91.7c-19-26-55-60.3-61.7-85-3.3-12 .7-18.7.7-18.7l4.3-2.3s1.7-12-5.3-19c-32.3-32.7-77.7-102.7-77.7-102.7z"/></svg>