<svg xmlns="http://www.w3.org/2000/svg" id="scar_f" viewBox="0 0 3000 3000"><path id="cl1" fill="#FF9B87" d="M1764.3 988.7s39 12.3 67.7 51.3c17.7-19.3 25.7-51.3 25.7-51.3v23.7l-14.7 37.3 10.3 13.7-1 13.3-13-16.3s-39.3 71.3-61.3 146.7c10.7-59.7 37.3-136.3 52.7-154-24.7-33.4-66.4-64.4-66.4-64.4z"/><path fill="none" stroke="#984D4A" stroke-miterlimit="10" stroke-width="6" d="M1853.3 1063.3l-10.3-13.7 14.7-37.3v-23.7s-8 32-25.7 51.3c-28.7-39-67.7-51.3-67.7-51.3s41.7 31 66.3 64.3c-15.2 17.5-41.6 93.2-52.4 152.6 0 .1.1.1.1 0 22.1-74.8 60.9-145.3 60.9-145.3l13 16.3"/></svg>