<svg xmlns="http://www.w3.org/2000/svg" id="scar_f" viewBox="0 0 3000 3000"><path id="cl1" fill="#FF9B87" d="M1365.8 938.2s-1.7 31.8 43.3 115.5c-62 60.8-77.7 82.3-94.8 112.3 30-33.2 92-94.5 100.3-97.5 8.3-3 85.3 155.3 93 176.2 7.8 21.8-6-77-77.7-186.7 33-38.7 95-73.7 96.3-74.3 1.3-.7-32.3.7-101.7 58.3-11.2 7.7-58.7-103.8-58.7-103.8z"/><path fill="none" stroke="#9D4E4C" stroke-miterlimit="10" stroke-width="6" d="M1365.8 938.2s-1.7 31.8 43.3 115.5c-62 60.8-77.7 82.3-94.8 112.3 30-33.2 92-94.5 100.3-97.5 8.3-3 85.3 155.3 93 176.2 7.8 21.8-6-77-77.7-186.7 33-38.7 95-73.7 96.3-74.3 1.3-.7-32.3.7-101.7 58.3-11.2 7.7-58.7-103.8-58.7-103.8z"/></svg>