<svg xmlns="http://www.w3.org/2000/svg" id="scar_f" viewBox="0 0 3000 3000"><path id="cl1" fill="#A20D03" d="M1521.8 1041.3c-.8-.3-95 44.5-106.3 161.5 16.3-24.2 20.8-43.3 27.5-54.5s20.5-36.5 41.3-64.3 37.5-42.7 37.5-42.7z"/><path id="hl1" fill="none" stroke="#D9938F" stroke-miterlimit="10" stroke-width="6" d="M1521.8 1041.3c-.8-.3-95 44.5-106.3 161.5 16.3-24.2 20.8-43.3 27.5-54.5s20.5-36.5 41.3-64.3 37.5-42.7 37.5-42.7z"/><path fill="#4C2513" d="M1460.3 1055.3c9.3 1.3 52.8 33.8 52.8 33.8s1.8 6.3-2.5 3.3-55-37-55-37-4.6-1.4 4.7-.1zm-25.3 37.8s56.3 35.2 56.8 35.4 12.3 1 1.5-6.5-48.3-28.9-50-28.9c-1.8-.1-7.8-4-8.3 0zm-19.5 37.2s-11.8 0 0 4.8 53.1 26.5 53.1 26.5 8.9 4.8 1.4-3.3-48.7-26.5-54.5-28z"/></svg>