<svg xmlns="http://www.w3.org/2000/svg" id="scar_f" viewBox="0 0 3000 3000"><path id="cl1" fill="#9E322B" d="M1359.7 981.7s25 27.3 32.7 30c-3 9.3-8.3 23-7 30 1.3 7 15.3-25.3 15.3-25.3s35.7 21.3 44 20.3c-.1 13-8.3 28.3-6.7 39 1.7 10.7 17.3-34.7 17.3-34.7s37 9.3 48 8.3c-3.3 10.7 0 40 0 40s9-29.7 8.3-39.3c9.7.3 57 0 59.7-9.3-19-.3-53.7-.3-58-1-.7-5.5 4-26.7 2.7-41-5-10.3-11.3 40.3-11.3 40.3s-37-4.3-45.3-9.7c6.2-6.7 12-34 10.3-39.7-1.7-5.7-19 35.7-19 35.7s-16.7-2.3-44.7-19l10.3-27.7s-3-5.7-18.7 23.3c-4.6.4-33.3-24.2-37.9-20.2z"/></svg>