<svg xmlns="http://www.w3.org/2000/svg" id="scar_f" viewBox="0 0 3000 3000"><path id="cl1" fill="#FF9B87" d="M1608.3 828.1s96.6 77.6 101.3 96.3C1652.8 977 1582.7 1046 1566 1096c54-54.7 140.7-154 158.7-157.3 13.3 16 102 124.7 102 124.7s-3.1-41.5-92.4-137.5c26-26.7 79.1-79.2 80.4-103.2-15.3 17.3-82.1 84.7-92 88.7-9.2-1.4-43.9-61.8-114.4-83.3z"/><path fill="none" stroke="#9D4E4C" stroke-miterlimit="10" stroke-width="6" d="M1608.3 828.1s96.6 77.6 101.3 96.3C1652.8 977 1582.7 1046 1566 1096c54-54.7 140.7-154 158.7-157.3 13.3 16 102 124.7 102 124.7s-3.1-41.5-92.4-137.5c26-26.7 79.1-79.2 80.4-103.2-15.3 17.3-82.1 84.7-92 88.7-9.2-1.4-43.9-61.8-114.4-83.3z"/></svg>