<svg xmlns="http://www.w3.org/2000/svg" id="scar_f" viewBox="0 0 3000 3000"><path id="cl1" fill="#FFDBDA" d="M1790.3 979.5c5.3 22.5 5.8 32 0 57.8-8.8-91.5-59.3-175.3-59.3-175.3 41.3 44 54 95 59.3 117.5zm-45.3-153s70.3 126.3 86 235c5-29.8 0-52.8-5.5-75.3S1792 872.8 1745 826.5zm37 7.8s51.1 86.5 63.3 188.5c5.5-23 4.5-29.3 4-39.3s-9.8-93.7-67.3-149.2z"/><path fill="none" stroke="#9D4E4C" stroke-miterlimit="10" stroke-width="6" d="M1790.3 979.5c5.3 22.5 5.8 32 0 57.8-8.8-91.5-59.3-175.3-59.3-175.3 41.3 44 54 95 59.3 117.5zm-45.3-153s70.3 126.3 86 235c5-29.8 0-52.8-5.5-75.3S1792 872.8 1745 826.5zm37 7.8s51.1 86.5 63.3 188.5c5.5-23 4.5-29.3 4-39.3s-9.8-93.7-67.3-149.2z"/></svg>