<svg xmlns="http://www.w3.org/2000/svg" id="图层_2" viewBox="0 0 3000 3000"><path id="cl1" fill="#3E3633" d="M1255.5 363.5s-110 22.5-192.5 200c0 0-59 103.5-65 236.5 0 0 0 46 5 83 3.91 3.695 92.426 82.305 80 114.5 0 0-8 63.5-53 122.5l71.5-27.5 21-8.5s14.5-2 4 9.5l-34 61 88.5-41.5s10-3 10.5 6.5l17.5 62 24.5-18.5s6-7.5 12.5 0l43.633 9.383s-28.362-28.571-28.862-45.071c0 0-19.547-38.198-33.547-60.198 0 0-16.223-45.441-15.723-44.614L1199 917s36.5-39 39.5-105c0 0 53.5-22.5 78.5-32.5 0 0 85.5-35 100.5-42.5 0 0 83.5-46 103.5-65.5 0 0 66.5-56 110-132 0 0 5-12.5 12 0 0 0 59.5 71 81 86.5l53.5 51.5s110 105 107.5 186.5c0 0 68.5-110 15-246.5 0 0-44.5-95.5-163.5-183 0 0-126.7-114.1-314-89l-30 6.5s-83.1-14-137 11.5z"/><path id="sd1" fill="#322C29" d="M1090 759.5c-37.5 136 53 89 53 89 6.5 78.5 56 68.5 56 68.5l5.272 71.793s7.53 25.471 8.827 34.207c4.9 33 39.317 91.887 39.317 91.887 16.567 24.414 37.216 57.496 37.216 57.496l-42.833-8.883c-3.7-9.5-15.8-2.5-15.8-2.5l-17.802 17.302-22.1-61.2c.6-8.4-10.101-4.1-10.101-4.1l-87.199 39.1 34.199-54.1c13.601-17.2-5.5-14-5.5-14l-86.101 33.5C1153 923 981 943.5 1003.498 860.002c-13-65.5 19-184 19-184C1037 796.5 1090 759.5 1090 759.5zm167.6-397S1352 354 1377 369c0 0-34.5.5-87 77.5 0 0 41.5-52.5 152.5-45.5l-15 27.5S1473 386 1596 482c0 0-32.5-56.5-56.5-80.5 0 0 61-4.5 82 6 0 0-43.5-26-105.5-30.5 0 0-6-11.5 38-27.5 0 0-72-13-129 0l-25 6s-78.302-14.4-142.4 7z"/><path id="hl1" fill="#49403C" d="M1130 459s27.5 104.5 142 89c0 0-30.5 61.5 70 37 0 0-2.5 9.5 2.5 14 0 0 77 44.5 158.5 0 0 0-26.5 57.5-100 87.5 0 0 9.5-21.5-14.5-33 0 0-23 13-39 20 0 0-1-6 1-14 0 0-2.5 4-20 7.5 0 0-5.5-8-14-15.5 0 0-25 3-54.5 2 0 0-119-11.3-152-173.398L1130 459zm702.3 61.5s-28.7 63.4-108.7 52.302l-6.7 1.3s41.3 44.898 87.3 54.3c0 0-12.8-5.5-15.3-34.7 0 0 57.2 24.801 100.9 4.4.1-.002-22.7-41.8-57.5-77.602z"/><path fill="none" stroke="#000" stroke-miterlimit="10" stroke-width="6" d="M1392.5 352l30-6.5c187.3-25.1 314 89 314 89 119 87.5 163.5 183 163.5 183 53.5 136.5-15 246.5-15 246.5 2.5-81.5-107.5-186.5-107.5-186.5L1724 626c-21.5-15.5-81-86.5-81-86.5-7-12.5-12 0-12 0-43.5 76-110 132-110 132-20 19.5-103.5 65.5-103.5 65.5-15 7.5-100.5 42.5-100.5 42.5-25 10-78.5 32.5-78.5 32.5-3 66-39.5 105-39.5 105l3.5 56c1.5 24 7.29 37.581 13 59.5s16 46.956 27.502 67.495c8.066 14.403 49.498 73.005 49.498 73.005l-46.5-10c-6.5-7.5-12.5 0-12.5 0l-24.5 18.5-17.5-62c-.5-9.5-10.5-6.5-10.5-6.5l-88.5 41.5 34-61c10.5-11.5-4-9.5-4-9.5l-21 8.5-71.5 27.5c45-59 50-122.5 50-122.5.5-34-57-73-71.56-98.963C990.177 865.972 998 800 998 800c6-133 65-236.5 65-236.5 82.5-177.5 192.5-200 192.5-200 53.9-25.5 137-11.5 137-11.5zm42.116 150.14c-164.992 95.995-217.782 224.36-262.782 352.36 0 0 36.966-34.5 66.667-42.5M1559 437c-54-58-150-88.6-150-88.6"/></svg>