<svg xmlns="http://www.w3.org/2000/svg" id="hair" viewBox="0 0 3000 3000"><path id="cl1" fill="#3E3633" d="M1109.5 467c35-59 136-100.5 136-100.5 89-33 178-21 178-21l14.5-4c169-61.5 279 8 279 8C1806.5 406 1828.5 455 1828.5 455c19 26 39.5 79.5 39.5 79.5l14.5 8C1946 605 1942 672 1942 672c6.5 87-7.5 152.5-7.5 152.5-1.5 13.5-10.5 31-10.5 31-18.5 33.5-56.5 84-56.5 84 3-15.5 3.5-87 3.5-87 0-26.5-31-136.5-31-136.5-4.5-26-11.634-55.943-11.634-55.943L1827 649c-16.833 26.167-62.248 28.137-62.248 28.137 10-19 4.082-102.759 4.082-102.759-.5-9-5.834-2.377-5.834-2.377-23 35.5-69.5 78.5-69.5 78.5C1655 678.5 1560 682 1560 682l35.5-80c6-12-3.5-3.5-3.5-3.5-11 21.5-92 82-92 82-37.5 33.5-96.5 34.5-96.5 34.5-22.5 2.5-62.5-4-62.5-4-4.5 27-13.5 66-13.5 66-11 70-51 104-51 104-52.5 66.5-124 77.5-124 77.5-39.5 8.5-95.5 6.5-95.5 6.5-23.5-2-52 0-52 0-13 0 0-7 0-7 59-37.5 70-115.5 70-115.5 12-56.5-3-124.5-3-124.5-6-29-13.601-97.699-13.601-97.699C1052 530.5 1109.5 467 1109.5 467zm-50.1 164.4s-18.8 45.6-40.399 217.1c0 0 38 4 59-23.5 0 0 7-63.399-4.801-100.699l-13.8-92.901z"/><path id="sd1" fill="#352F2C" d="M1327.5 777s-25 150.5-207.5 186c0 0 17 51.5 34.781 78.236 0 0-1.781 25.764 84.867 58.963 0 0-157.044-12.433-211.148-17.199l40.5-17 39-33.5s-89.8-24.3-149.5-72c0 0 53.333-14.74 61.655-66.476 2.186-13.588-3.655-27.024-.756-48.824 0 0 36.101 12.9 79.601-40.1 0 0-6.5 8.5-5 13.5 0 0 14.5 67.5 73-21.5 0 0 30.5 65 133.5-49.5h4s14.5 17.5 23 28M1257 691c30.699 41.301 81.1 35.801 81.1 35.801l6.1-15.301c97.9 17.801 150-26.199 150-26.199C1506.1 667.6 1547 623 1547 623c-181.301 80-284 44.7-284 44.7-22-15.3-48.7-4.7-48.7-4.7 21.399 7.301 42.7 28 42.7 28zm406-169.3s-47.7 53.5-66.7 74c0 0 1.7 10.7-10.101 27.4l-25 56.3s93.601-3.2 126-24.7c0 0 20.4-29.6 11.801-85.6 0 0-56 27.3-72.7 45.3 0-.099 34-62.099 36.7-92.7zM1362.3 353s86.8-10.7 238 112.7c0 0-21-73.3 93.8-127.3 0 0-131.4-52-250.9 6.3-.001-.1-42.9.3-80.9 8.3zm513 190s-27 89.7-49.8 109.5l14.6 68.7s48.9-83.2 42.2-175.899l-7-2.301zM1845 735.6s38.5 113.179 23.1 200.1c0 0 32.9-43.399 60.9-91.399 0 0 24.5-120 7.3-203.7 0 .099-22.8 121.899-91.3 94.999z"/><path id="hl1" fill="#4B413E" d="M1104 565.5c15.5 21.5 53.5 15.5 53.5 15.5 16-3.5 24.5 0 24.5 0 6.5 44.5 31 32 31 32 28.5-14.5 47.5-12.5 47.5-12.5 6.5 12.5 16 14 16 14 21 7 48 3.5 48 3.5-6.5 9.5-27.5 20.5-27.5 20.5-15.9 6-109.5 5.301-109.5 5.301-16.5-1.7-32-14.301-32-14.301-5.5-4-16.5-1-16.5-1-16 3-26 10-26 10-5.5 1.5-14.5 2.2-14.5 2.2-21 .7-37.301 3.101-37.301 3.101C1046.5 593.5 1071.8 532 1071.8 532l32.2 33.5zm273.5 18.5s-9.5 11-18 27.5c0 0 7.5 1.5 13 0 0 0 37-16 58-19.5 0 0 6.5 1-4.5 11 0 0-38.5 37.301-42 37.7 0 0 81.5-34.7 120-67.2 0 0 1-6.5-14.5 3 0 0-9 3-26.5 5 0 0-7 .5-21 3.5 0 0 6.5-8.5 9.5-19.5 0 0-6.601-2.5-11.801 0 0 0-35.699 9.5-62.199 18.5zm322-223.5c32 35.5 52 71.5 52 71.5 17 34.5 9 51 9 51-7.5 29-24.5 49.5-24.5 49.5h9c15-4 32.5-11.5 32.5-11.5 35.5-27.5 49.1-69.6 49.1-69.6-50.4-69.101-112.9-103.8-112.9-103.8l-14.2 12.9z"/><path fill="none" stroke="#000" stroke-miterlimit="10" stroke-width="6" d="M1112.5 467c35-59 132-101.5 132-101.5 89-33 179-20 179-20l14.5-4c169-61.5 279 8 279 8C1806.5 406 1828.5 455 1828.5 455c19 26 39.5 79.5 39.5 79.5l15.5 10C1947 607 1942 672 1942 672c6.5 87-7.5 152.5-7.5 152.5-1.5 13.5-10.5 31-10.5 31-18.5 33.5-56.5 84-56.5 84 3-15.5 3.5-87 3.5-87 0-26.5-23.26-102.373-31-136.5-5.837-25.733-13.5-65.5-13.5-65.5l-4.5 5.5c-11.5 13-58.166 23.167-58.166 23.167 10-19 5.166-103.167 5.166-103.167-.5-9-6-4-6-4-23 35.5-69.5 78.5-69.5 78.5C1655 678.5 1560 682 1560 682l35.5-80c6-12-3.5-3.5-3.5-3.5-11 21.5-92 82-92 82-37.5 33.5-96.5 34.5-96.5 34.5-22.5 2.5-62.5-4-62.5-4-4.5 27-13.5 66-13.5 66-11 70-51 104-51 104-52.5 66.5-124 77.5-124 77.5-39.5 8.5-95.5 6.5-95.5 6.5-23.5-2-52 0-52 0-13 0 0-7 0-7 59-37.5 70-115.5 70-115.5 12-56.5-3-124.5-3-124.5-6-29-13.7-95.699-13.7-95.699C1050.5 528.5 1112.5 467 1112.5 467zm293.8 72.7c-106 126.7-152.7 120.7-152.7 120.7-14.7 0 0 10.7 0 10.7 26 24 87.3 40 87.3 40m-212.5 251.201s122.601-107.301 141.3-196m557.1-116.5s35.5-42.4 41.2-115.301m-808.6 96.9s-11.1 16.9-17.1 64.2c0 0-19.755 126.591-22 153.3-4.8 57.1 18.9 80.899-61.8 111.6 0 0 51.601 41.5 115 59.5l34.5 12.5s-43.7 40.3-77 51c0 0 184.664 14.937 214.664 19.637M1549 421.5c-43-67.5-114.9-78.899-114.9-78.899"/></svg>