<svg xmlns="http://www.w3.org/2000/svg" id="hair" viewBox="0 0 3000 3000"><path id="cl1" fill="#3E3633" d="M1139.456 355.301s-.789 1.101-2.266 3.101c-16.141 22.8-115.548 163.8-148.028 240.9l20.375 25.299s9.152 8.7-2.659 12l-26.278 14v88.7s16.436 2 122.733 29.3c0 0 1.968-65.3 40.06-129.3 0 0 68.107-133.552 266.096-150.498 0 0 52.011-4.893 88.661-4.888 0 0 57.34-8.614 113.146 35.386 0 0 64.276 70.764 89.86 94.698 0 0 23.622-80.698 28.84-272 0 0-58.367-70.699-196.847-83.3 0 0 22.34 34 20.963 40 0 0-3.937 2-8.563-6 0 0-17.716-26.7-41.338-38 0 0-160.726-51.3-330.702 60 0 0 19.685 38.7 18.404 57.3.002.001-3.935 7.302-52.457-16.698z"/><path id="sd1" fill="#352E2B" d="M1041.227 503.1s-47.931 82.5-49.605 99.2l20.276 25.399-31.2 22.9v84.8s94.388 22.5 122.833 30c0 0 13.957-79.15 42.401-121.9 0 0 44.704-75.1 98.345-111.1 0 0-85.628 12.5-128.935 48 0 0-31.988-32.5-23.622-56 0 0-12.303 10-26.083 37.5.001.101-14.861 13.301-24.41-58.799z"/><path id="hl1" fill="#483F3C" d="M1071.445 455.302S1126.661 373 1143.885 354c0 0 25.59 17 40.65 18.801l7.382-5.601s-5.905-25.8-15.65-54.3c0 0 160.135-106.601 335.526-54l38.386 39.1 3.444-2.6s-16.771-36.504-26.122-52.504c0 0 145.5 13.604 199.052 100.604L1723.6 384s-43.799-71.5-147.635-92.5c0 0-3.938 17-3.445 43.5 0 0-39.369-47-80.707-63.5 0 0-116.632-3-236.708 48.5 0 0-33.956 29.5-44.783 73 0 0-5.413 14-18.208 31 0 0-2.953 4.5-3.445 12 0 0-34.94-6-60.038-20.5-.002 0-39.076 24.5-57.186 39.802z"/><path fill="none" stroke="#000" stroke-miterlimit="10" stroke-width="6" d="M1191.915 372c1.279-18.699-18.405-57.3-18.405-57.3 169.978-111.3 330.702-60 330.702-60 23.622 11.3 41.338 38 41.338 38 4.627 8 8.563 6 8.563 6 1.279-6-26.613-55.804-26.613-55.804 138.48 12.7 202.496 99.104 202.496 99.104-5.218 191.302-22.851 271.5-28.84 272s-89.86-94.698-89.86-94.698c-41.296-35.392-85.676-34.828-85.676-34.828-47.12-.563-104.674 3.828-104.674 3.828-68.35 9.128-132.988 22.652-182.438 55.97-59.541 40.116-91.115 95.03-91.115 95.03-38.09 64-44.059 129.3-44.059 129.3-106.297-27.3-122.734-29.3-122.734-29.3v-88.7l26.279-14c11.811-3.3 2.658-12 2.658-12l-20.374-25.3c32.48-77.102 131.888-218.102 148.027-240.9 1.477-2 2.266-3.1 2.266-3.1 48.522 23.999 52.459 16.698 52.459 16.698zm-124.308 206c25.59 40 81.644 59.75 81.644 59.75M1575.472 368c-1.969 59 0 127.2 0 127.2m65.154 57.602s4.134-34.602 0-121.2"/></svg>