<svg xmlns="http://www.w3.org/2000/svg" id="hair" viewBox="0 0 3000 3000"><path id="cl1" fill="#38312E" d="M1057 576.301S1025.699 643 1017 697c0 0-22 40 54.699 197.301 0 0 45.52 39.231 48.821 69.231 0 0 55.78-47.231 73.78 36.769l28.7 11.3-11.295-140.192-3.006-21.808s-5-3.3 7-9.3c0 0 64-39.301 51.301-126.7 0 0-14.7-67.3 94-97.3 0 0 50.699-18.7 111.3-10 0 0 44 6 65.3 15.3 0 0 125.301 32 198 16.7 0 0 48.7-14.7 100 49.3l47.376-18.897 43.699-41.063s-1.725-1.886-43.175 11.205c0 0-9.9-8.545 10.1-30.545l50.901-76.801-76.201 10.2s-15.3 0 5.3-17.3l36.318-66.541L1832.3 482.4s-13.3 5.3-4-13.3l10.893-50.928L1789.5 446.5s-47.334 23-31.2-4.8c0 0 18-51.3 13.3-80.7 0 0-29.067 20.766-53.767 32.167 0 0-80.333 32-270.933 25.833 0 0-66.699 2-112 7.301 0 0-86-2.7-183.301 61.3 0 0-13.3 12-7.3-8l8-36.7s5.3-8-8 4.7c0 0-28.699 22.648-34 33.3-5.245 10.538-6 46.7-6 46.7s.7 19.301-16 5.301l-21.3-1.7-48.7 20.301s8 4 21.3 5.3c.1.197 33.401 2.197 17.401 19.498z"/><path id="sd1" fill="#2E2826" d="M1022 686.301S1001 771 1080 900l39.883 59.716S1146 938.5 1193.3 999.801l29.8 11.899-11.681-142.494s-75.018-5.905-104.418-91.905v-14.7l-17.301 21.301c-.001.098-46.7 41.798-67.7-97.601z"/><path id="hl1" fill="#403835" d="M1252 445l6 6.5c.199 12.9 8.5 24.5 8.5 24.5 2.5 12.5 0 14 0 14-13 9.5-7 14-7 14 2.5.5 7 2 7 2 9 20 27.5 21 27.5 21 20.5 2 28 7 28 7 3 15 6 22 6 22 2 10.5 0 14 0 14-3 21 11 19 11 19l17 7c17 4 27 10.5 27 10.5l-24.5 6.5c-5.9-2.199-18.5-10-18.5-10-10.5-11-32.5-9.5-32.5-9.5-22.5 2-30.5-4-30.5-4 16-14.5 8.5-21.5 8.5-21.5-8.5-6-38.301 2-38.301 2-16.8 5.5-29.8 7.5-29.8 7.5 12.5-11.5 22-24 22-24 12.5-15-9.5-11-9.5-11-18.5 5-39.5 14.5-39.5 14.5-8 4.5-19.5 3-19.5 3 29.5-25 36-40 36-40-14 5-63 29-63 29-10 4-23 4.5-23 4.5 9-17 64-74.5 64-74.5v-6C1208.5 454 1252 445 1252 445zm223-25s-29.5 18-43.5 33.5c0 0 19.899 1.5 40.699-2 0 0 22.301-2.5 30.801 0 0 0 19 8.5-19 34.5 0 0-1 6 10.5 7.5s21-2 15.5 20.5c0 0-2 4.5 15.5 12 0 0 24 7 9 29.5 0 0-2.5 6.5 8 11.5l14.5 10.5s2.5 24 0 46.5c0 0 94 17.5 102.5 14.5l-13-9.5s-9-9 7.5-10c0 0-2-6.5-25.5-19 0 0-10.5-2.5 6-7.5l33-16.5s-12-1.5-37-5.5c0 0-16 .5-28.5-18 0 0-6.5-4-13.5-11.5 0 0-11.5-13.5 9.5-30.5 0 0-2-5-8-12 0 0-7.5-3.5-8.5-33.5 0 0-12-14-32-25 0 0-6.5-7 4.5-24.5 0 0-61 0-79 4.5zm270.326-39.039S1758.5 415 1724.5 472.5c0 0-1.7 6.5 11.1 5 0 0 83.9-18.5 54.9 15 0 0 42.5-31 21.5 15 0 0-4 13 10.5 8 0 0 51.5-21 19 24.5 0 0 31-9 10.8 24.5 0 0 51.2-17 23.2 39 0 0-4.5 14 1.5 25.5l67.501-97.5-58.577 11.646S1843.6 545.2 1877.3 519.6l33.869-64.108L1831.5 484s-17.301 14.101 6.8-49.699l-75.8 23.199s-16.2 9.601 1.399-33.899c0 0 12-36.601 7.8-62.601 0 0-27.973 13.761-26.373 19.961z"/><path fill="none" stroke="#000" stroke-miterlimit="10" stroke-width="6" d="M1057 576.301S1025.699 643 1017 697c0 0-22 40 54.699 197.301 0 0 45.52 39.231 48.821 69.231 0 0 33.98-33.532 73.78 36.769l28.7 11.3-10.5-134.101-3-23s-5.801-8.199 6.199-14.199c0 0 64-39.301 51.301-126.7 0 0-14.7-67.3 94-97.3 0 0 50.699-18.7 111.3-10 0 0 44 6 65.3 15.3 0 0 125.301 32 198 16.7 0 0 48.7-14.7 100 49.3 0 0 35.136-11.12 45.452-17.606 14.285-8.982 49.248-46.162 49.248-46.162-26.807 9.634-26.807 9.634-48.7 14.468 0 0-8-8 12-30l50.901-78.468s-47.753 18.715-76.201 11.867c-4.397-1.059-11.899 3.384 5.3-17.3 12.839-15.44 39.568-69.9 39.568-69.9s-44.769 22.667-72.667 27c-3.525.547-21.501 6.2-12.201-12.399l11.535-53.934s-47.334 36-78.835 40.534c-3.528.508-8.7 3.3-2.7-14 0 0 18-51.3 13.3-80.7 0 0-37.146 26.37-62.699 35.7-63.544 23.203-100.399 22.466-262 22.3 0 0-66.699 2-112 7.301 0 0-86-2.7-183.301 61.3 0 0-13.3 12-7.3-8l8-36.7s5.3-8-8 4.7c0 0-23.699 22.648-29 33.3-5.245 10.538-11 46.7-11 46.7s5.867 12.899-16 5.301c-5.752-1.999-18.739-2.187-24.3-1.7-13.668 1.195-45.7 20.301-45.7 20.301s8 4 21.3 5.3c.099.196 33.4 2.196 17.4 19.497z"/></svg>