<svg xmlns="http://www.w3.org/2000/svg" id="hair" viewBox="0 0 3000 3000"><path id="cl1" fill="#38312E" d="M1120.084 919.179s-2.894-19.129-7.88-87.129c0 0-11.95-106.7 30.111-207.3 0 0 30.77-110.7 177.559-174.7 0 0 103.505-56.7 199.483-42.7 1.882 4 106.61.7 222.724 88 0 0 155.333 73.037 118.918 277.737 0 0-2.198 4.902-10.134-5.037l-3.658-15.3s-20.706-255.917-179.179-49.3c0 0-2.541.7-4.988-6 0 0-243.424-254.7-342.508 25.3 0 0-10.633 30-1.882 55.3 0 0 11.951 58-46.389 170 0 0-1.223 6.7-12.515-.7 0 0-83.095-80.833-112.696-52.933-.188 0-22.637 24.762-26.966 24.762z"/><path id="sd1" fill="#332C29" d="M1128.482 688.05c13.173 86 58.339 30.7 58.339 30.7-4.987 100.7 44.508 40 44.508 40 26.347 41.3 81.769 83.4 81.769 83.4-15.431 46.1-39.647 110.917-44.79 109.3s-95.475-93.284-131.35-48.623c-3.277 4.08-26.324 19.422-26.324 19.422-10.068-25.3-9.738-69.599-9.738-69.599-9.409-92.8 20.528-161.3 20.528-161.3l7.058-3.3z"/><path id="hl1" fill="#413935" d="M1487.27 408.35s44.507 20 56.74 37c0 0 15.996 16 18.537 43.7 0 0-.659 10.3 13.455 20 0 0 47.707 27 68.408 64 0 0 16.937 33 15.996 44v35s6.962 21 0 40.3l6.868 8.301s45.309-52.913 85.823-72.82l-2.078-14.18s-7.527-24-22.301-30c0 0-10.351-8.7 4.046-23.301 0 0 29.17-26.3.659-55.699 0 0-7.81-19.7-81.204-59.001.001 0-61.727-33-164.949-37.3z"/><path fill="none" stroke="#000" stroke-miterlimit="10" stroke-width="6" d="M1108.542 915.85s-4.351-15.8-9.338-83.8c0 0 1.05-106.7 43.111-207.3 0 0 30.77-110.7 177.559-174.7 0 0 103.505-56.7 199.483-42.7 1.882 4 106.61.7 222.724 88 0 0 154.521 77.772 118.105 282.473.52 6.858-3.384-5.54-7.02-12.656 0 0-4.995-9.111-5.96-12.416-13.024-44.596-28.626-236-179.179-49.3 0 0-2.541.7-4.988-6 0 0-243.424-254.7-342.508 25.3 0 0-10.633 30-1.882 55.3 0 0 11.951 58-46.389 170 0 0-1.223 6.7-12.515-.7 0 0-90.2-86.466-118.429-47.167-.187-.001-29.524 32.048-32.774 15.666zm9.59-207.5l-27.381-10.399m179.158-277.601l20.23 44m76.218-28.6l-13.173-42m114.796 11.4l13.173-30m199.86 81.4l14.209-22.2m37.92 30l-18.914 11.7"/></svg>