<svg xmlns="http://www.w3.org/2000/svg" id="hair" viewBox="0 0 3000 3000"><path id="cl1" fill="#463D38" d="M1057.699 879l-92 210s-1.999 103.16 15.402 127.16c0 0 24 63.301 52 78 0 0 2.699-11.3 0-41.3 0 0-3.301-33.301 13.3-1.301 0 0 44.7 70 64.7 89.301 0 0 33.211 16.403 45.211 32.403 0 0-10.866-36.152-10.866-67.551l-12.346-56.852s-2.7-22.7 21.3 8c0 0 40.7 38.699 53.301 62.699 0 0 13.209 10.514 30.927 20.961 0 0 42.321 26.75 64.655 34.291 0 0-41.45-71.645-44.684-202.412 0 0-3.247-91.912-2.1-152.399 0 0-6.222-20.93 9.778-42.93 0 0 3.322-33.97 23.322-55.27 0 0 8.7-2 0 23.3 0 0-12.699 78.7-20.699 96 0 0 2 4.699 18-8 0 0 78-39.3 93.301-108l19.3-144.7s8.7-93.3 24.7-119.3c0 0 8-34 63.3-61.3 0 0 66.7-37.301 159.301 30 0 0 5.3-7.301 17.3 8 0 0 8 3.3 15.301-14 0 0 48-78.7 100-10 0 0 68 65.3 89.3 164 0 0 11.3 67.3 7.3 118.699 0 0-2 42.7 13.301-11.3 0 0 32-88.7 18.699-218.7 0 0-4-100.699-149.3-240.699 0 0-128.7-122.7-251.3-30.001 0 0-122.902-49.299-200.156-19.151 0 0-109.747 20.353-189.657 198.381.297-.101-33.234 107.813-59.891 303.971z"/><path id="sd1" fill="#3F3733" d="M1008.401 1201.46c1.301-34 11.433-84.293 11.433-84.293 4.667 51.333 14 58.667 14 58.667 17.301 31.3 43.868 64.227 43.868 64.227-9.301-39.3-14.535-113.56-14.535-113.56 8.7 15.3 32 40.667 32 40.667 23.301 16 33.934 24.293 33.934 24.293 18.699 17.301 50.699 34 50.699 34 20-11.301 31.301-26.699 31.301-26.699 19.3-26.7 47.622-216.625 47.622-216.625l-3.402 59.869s-1.154 53.161 3.478 130.296c6.962 115.939 44.701 207.546 44.701 207.546l-97.798-60.289c-17.328-18.614-50.502-54.797-50.502-54.797-24-35.301-24.101-18.7-24.101-18.7l20.942 124.392c-64.339-44.294-110.942-125.093-110.942-125.093-10.601-17.3-10.199.101-10.199.101l12.262 73.334c-21.3-13.301-63.962-102.634-63.962-102.634-26.033-62.772-13.435-111.649-13.435-111.649l42.636 96.947zm84.599-77.159s84-140 117.3-286l30.7-258.7-43.301 202.7s-46 178.7-58.699 211.3c0 0-37.301 104.001-50.7 130.7h4.7zM1329 771l-132 268.7-106.4 97.399 114-75 56.123-79.963L1293 918.2l15.3-49.899L1331.6 771m-38.7 162.301s-13.899 98.399-27.2 112.399c0 0 72.301-31.8 106.801-97.601 0 0 10.699-41.199 19.8-112.899 0 0 16.801-177 49.899-203 0 0-.5-6.8 18.601-16.399 0 0 38.5-34.601 104-26.899 0 0 29.899.899 79.301 38.6 0 0 12.699 2.4 20.699 12.4 0 0 54.431-78.289 86.809-52.901 57.392 45 51.392 47 87.42 109.27 0 0 2.51 45.002 10.197 61.661 10.122 21.935 36.774 35.571 28.675 153.97 0 0 23.2-54.3 33.5-163.899l-3.5-.8-3.8 7.8s-7.5-25.5-8.5-37.199c0 0-11.5 50-24.301-20.801 0 0-14.199-56.199-70.8-95.199 0 0-16-17.2-61.5-31.801 0 0-29.7-10.5-53.5 23.5 0 0-13.801-47-129.801-127h-7.5s12.301 71.5 21.801 83c0 0 3.3 6-2.801 1.801 0 0-12.5-10.5-19.8-15.301 0 0 22.5 29.5 30.3 43.801 0 0-56-23.5-126.3 26.5 0 0-30.801 23-54.301 79.3 0 0-26.3 106.3-24.3 166.8 0 0-16.5 74-21.301 92.301l-58.5 59 1.5-70.301-1.598-.103zM1504 399.5c-84.5-26-171-15.5-171-15.5 22 11 131.5 43.5 131.5 43.5C1488 434 1524 446 1524 446c5.5-15.5 13-20 13-20 27-20.5 42.1-62.5 42.1-62.5-46.8 11.5-75.1 36-75.1 36zm181.3 194S1664 625 1664 636l4 2.101s11.5-20.8 22.5-31.3c0 0-1.9-6-5.2-13.301zm-99.101-.1c28.5 11 56.601 32.8 56.601 32.8-7.301-23.8-67.601-45.5-67.601-45.5l11 12.7z"/><path id="hl1" fill="#504640" d="M1182 567.301c-12.7 5.3-7.7 20.699-7.7 20.699l8.7 17.7c10.3 12.3 27.699 9.3 27.699 9.3-12 4.7-23.699 3-23.699 3l-25.301-8.3C1149.3 605 1147 592 1147 592c-22.301 9.7-36.099 7.356-36.099 7.356 12.599-62.856 38.454-90.166 38.454-90.166-11.301 87 32.645 58.111 32.645 58.111zm71-166.601s-18 15.3-20 24.7h20s23.699-3 35-1.3c0 0 18.699-.3 2.699 30.7 0 0-5.3 4.3 2.7 8.7l10.699 4s11 2.3 12.7 12c0 0 4 15 17 14 0 0 19.3 2.3 16 13.699 0 0-.9 7.301.399 11.7 0 0 15.899 12.3 28.3 12.7l37.301 1.699s10.699 3.7 1.699 13.7c0 0-5.699 13.3-3.699 22.3 0 0 7.699 9 12.699 10 0 0 1.7 3-1.3 8.7v15s12.3-16.7 26.3-50.7l-6-3.699s-1 1.699-1.699-8c0 0 3.3-3 6.3-16 0 0 2.301-11-12-17.301 0 0-7-2.3-19.3-3.3 0 0-15.7-2.7-28.7-11.7 0 0-.699-.699-10.3-1.3 0 0-.7-3.301-3.7-13.7 0 0-6.699-13-7.699-30 0 0-6-7.7-32.301-6.3 0 0-9.699 1-.699-14.7 0 0 13-18.101 9.3-43C1344.6 383 1297.6 383 1253 400.7zm402-29c13.899 7.2 27.699 25 27.699 25 .7 15.9 1 30.3 1 30.3 8.7 7 29 11.7 29 11.7 13.301 4.7 9.7 10.7 9.7 10.7l-5.7 8.3c-10.699 7-7.699 26.7-7.699 26.7l-5.7 9.699c-9 8.301-8 15.7-8 15.7 12.3 7.7 7.3 13.7 7.3 13.7-8.3 9-6.699 17.3-6.699 17.3l4-3.7c24-12 29.301-34.699 29.301-34.699 10-9.7 16-21.7 16-21.7 2.3-13.7 6.3-17.7 6.3-17.7 1-6-5.3-22-5.3-22-3.7-9 5.3-16 5.3-16-32-32.7-92.3-53.3-92.3-53.3H1655zm-408 300.8s-2.2 4.7-10.5 10v7s-8 10-3.5 17c0 0 .5 6 11.5 15.5l27 18s11.5 5.5 23.5-6c0 0 7.5 13.5 21 14.5 0 0 22.5 7.5 36 0l5-3s-69.4 5-62.7-36.5"/><path fill="none" stroke="#000" stroke-miterlimit="10" stroke-width="6" d="M1116.5 578.5c24-78.667 89.463-143.35 131.511-173.248 111.434-79.233 259.688-9.552 259.688-9.552 122.7-92.7 251.301 30 251.301 30 145.3 140 149.3 240.7 149.3 240.7 13.3 130-18.7 218.699-18.7 218.699-15.3 54-13.3 11.301-13.3 11.301 4-51.301-7.3-118.7-7.3-118.7-21.301-98.7-89.301-164-89.301-164-52-68.7-100 10-100 10-7.3 17.3-15.3 14-15.3 14-12.601-6.8-17.301-8-17.301-8-92.699-67.3-159.3-30-159.3-30-55.301 27.3-63.301 61.3-63.301 61.3-16 26-24.699 119.301-24.699 119.301L1380.3 925c-15.3 68.7-93.3 108-93.3 108-16 12.7-18 8-18 8 8-17.3 19.003-77 19.003-77 8.7-25.3 1.696-42.3 1.696-42.3-20 21.3-30.699 90.3-30.699 90.3-3.377 42.757-2 72.5-2 72.5-3.167 54.801 1.699 87.801 1.699 87.801 2 38.699 8.75 101.207 8.75 101.207 10.702 45.589 38.05 106.34 38.05 106.34-18-14-69.175-33.542-97.7-60.387-19.773-18.609-53.3-62.699-53.3-62.699-24-30.7-21.301-8-21.301-8l9.893 48.325c0 31.3 13.22 76.177 13.22 76.177-12-16-33.759-24.482-45.113-32.502-22.702-16.036-64.7-89.301-64.7-89.301-16.699-32-13.3 1.301-13.3 1.301 2.7 30 15.002 67.898 15.002 67.898-28-14.7-67.002-104.599-67.002-104.599-17.3-24-23.596-96.204-15.402-127.16 14.667-55.409 83.58-153.305 92.001-210C1088.311 673.493 1116.5 578.5 1116.5 578.5zm189.8 287.801l-15.7 55.499m-80.3-83.499s-30 116-57.3 170.699c0 0-51.301 107.301-62.7 128.7 0 0-12.7 23.3 8.7 0 0 0 82.861-51.891 105-74.7 21.443-22.093 66.385-100.729 66.385-100.729M1664.3 637.7s-64.189-113.867-92.3-139.2"/></svg>