<svg xmlns="http://www.w3.org/2000/svg" id="hair" viewBox="0 0 3000 3000"><path id="cl1" fill="#463D38" d="M1175 499.5s-47.5 16-77.5 96.5c0 0-.5 14.5 0 30.5 0 0-4.5 20-32.5 40 0 0-29 20-31.5 31 0 0 13.5 12.5 15.5 30 0 0-3.5 57-8.5 80.5 0 0 4.5 1 18-8 0 0 32-18.5 17.5 15 0 0-11 26.5-9.5 37 0 0 17.5 75.5 33.5 98.5 0 0 2.8-.5 4.3-9.3 0 0 8.8-31.8 55.3-30.5 0 0 36 2.5 50 15.8 0 0 42.801 49.3 52 71.8 0 0 6 9.3 6.5-8.3 0 0 9-82.5 10.301-94 0 0 3-4-13.301-2.5 0 0-45 11.8-45-19.2 0 0-1.3-24.7 20-88.7 0 0-23.8-8.8-69.6-17.699-.5-.101-.9-.2-1.4-.301 0 0-6.3-7.3 4-6.699l117.7-14.301s16.3-2-46.7-22.699c0 0-15-7.301 3-10.7l45.601-10.7s4.399-7.3-38.601-15c0 0-17.699-4.7 1-10.3 0 0 35.301-13.3 43.301-13.7 0 0 9.3 2-30.7-18.7 0 0-7.3-8 4.3-3 0 0 55 21 71.7 17 0 0 87-24.3 116.3-27.7 0 0 36.301-4.7 50.7 1 0 0 76.3 43.3 133 50 0 0 62 9.3 97.7-13 0 0 24.699-16.7 48-14.3 0 0 21.622 5.219 41.322 54.519 0 0 17.802 27.167 22.201 68.167 0 0 15.678 73.781 27.378 86.781 0 0 4.7 8.7 9.3 0 0 0 13-17.3 15.301-37.3 0 0-4.979-27.081-6.678-56.481 0 0-11.202-33.867-21.502-71.867l8.377-25.519s-8.3-17.7-21-39.7c0 0-16.3-27.3-19-72.699 0 0 1.301-30.301-29.699-55.7 0 0-23.7-19.3-43.301-26.3 0 0-16.699-10.7-40.3-43.7 0 0-40.7-20.3-94.3-5.3 0 0-30 2.7-78.7-11 0 0-12.3-2 .7-8.7l33.7-17.7s13-4.7-37.7-2.7c0 0-37.3.3-67.7 7 0 0-83.3 27.7-123.3 27.7 0 0-70.3-5.7-96.3 38 0 0-9.7 21.7-90.7 37.7"/><path id="sd1" fill="#3F3733" d="M1088.7 703.7c5.3 14.3 15.3 9.7 15.3 9.7 8.7-5 21-12.301 21-12.301-6 12.7-3.3 34.301-3.3 34.301 3 42.699 24.3 19 24.3 19-9 70.699 77.5 89.199 77.5 89.199-24.5 76 54.5 46.5 54.5 46.5l-13.5 113.5c-11-23-55-77-55-77-75.5-40-104.4 12.301-104.4 12.301-4.399 20.8-8.6 5.8-8.6 5.8-39-103.3-26.3-113.7-26.3-113.7 24.7-52-11.7-31-11.7-31-14 12.5-17.2 4.1-17.2 4.1 21.3-81.399-7.8-106.6-7.8-106.6 10.5-14.5 36.7-35 36.7-35l18.5 41.2zm287.6-55.5c105.3-29.5 135.3-17.5 135.3-17.5 21 14.3 69.801 34.8 69.801 34.8 118.8 40.8 168.5-1.1 168.5-1.1 36.699-20.301 61-.7 61-.7 25 17 29.622 67.519 29.622 67.519v-7c-7.7-53.7-35.022-78.219-35.022-78.219-9.3-3.7-13.699-13-13.699-13-5.301-5.3-2.7-14.3-2.7-14.3-11.7 1.3-32.7 12-32.7 12-16 8-56.3 15-56.3 15-74.7 8.3-116-5.3-116-5.3C1570 637.7 1485 597 1485 597c-14.3-11-38.3-21.3-38.3-21.3-14.7-4.7-28.3-7.3-28.3-7.3 6.699 13.699 10 20.3 10 20.3 11.3 14 24.3 23 24.3 23-12 5-76.3 34-76.3 34v2.5h-.1z"/><path id="hl1" fill="#504641" d="M1100.5 596.5s2-50 69-94.5c0 0 45.3-9.2 70.4-19.8 0 0 12.899-4.5 29.399-21.6 0 0 18.101-28.7 82.2-36.1 0 0 90.6-5.2 129.5-25.4 0 0 76-10.1 110-9.6l-11 5.5s-61 5.5-84 13.5c0 0-99 32-98 47 0 0-98.5-9.5-152 50.5 0 0-19 14-17.5 25 .001 0-52.499-14-127.999 65.5zM1737 493c2.5-13 7.5-19 7.5-19 76.4 47 80.5 141 80.5 141 9-19.5 9.1-88.7 9.1-88.7-7.399-15.5-46-39.7-46-39.7-24.899-6.8-42.6-33.5-42.6-33.5C1725 415.9 1661 428 1661 428c52 9 76 65 76 65z"/><path fill="none" stroke="#000" stroke-miterlimit="10" stroke-width="6" d="M1175 499.5s-47.5 16-77.5 96.5c0 0-.5 14.5 0 30.5 0 0-4.5 20-32.5 40 0 0-29 20-31.5 31 0 0 13.5 12.5 15.5 30 0 0-3.5 57-8.5 80.5 0 0 4.5 1 18-8 0 0 32-18.5 17.5 15 0 0-11 26.5-9.5 37 0 0 17.5 75.5 33.5 98.5 0 0 2.8-.5 4.3-9.3 0 0 8.8-31.8 55.3-30.5 0 0 36 2.5 50 15.8 0 0 42.801 49.3 52 71.8 0 0 6 9.3 6.5-8.3 0 0 9-82.5 10.301-94 0 0 3-4-13.301-2.5 0 0-45 11.8-45-19.2 0 0-1.3-24.7 20-88.7 0 0-23.8-8.8-69.6-17.699-.5-.101-.9-.2-1.4-.301 0 0-6.3-7.3 4-6.699l117.7-14.301s16.3-2-46.7-22.699c0 0-15-7.301 3-10.7l45.601-10.7s4.399-7.3-38.601-15c0 0-17.699-4.7 1-10.3 0 0 35.301-13.3 43.301-13.7 0 0 9.3 2-30.7-18.7 0 0-7.3-8 4.3-3 0 0 55 21 71.7 17 0 0 87-24.3 116.3-27.7 0 0 36.301-4.7 50.7 1 0 0 76.3 43.3 133 50 0 0 62 9.3 97.7-13 0 0 24.699-16.7 48-14.3 0 0 21.622 5.219 41.322 54.519 0 0 17.802 27.167 22.201 68.167 0 0 15.678 73.781 27.378 86.781 0 0 4.7 8.7 9.3 0 0 0 13-17.3 15.301-37.3 0 0-4.979-27.081-6.678-56.481 0 0-11.202-33.867-21.502-71.867l8.377-25.519s-8.3-17.7-21-39.7c0 0-16.3-27.3-19-72.699 0 0 1.301-30.301-29.699-55.7 0 0-23.7-19.3-43.301-26.3 0 0-16.699-10.7-40.3-43.7 0 0-40.7-20.3-94.3-5.3 0 0-30 2.7-78.7-11 0 0-12.3-2 .7-8.7l33.7-17.7s13-4.7-37.7-2.7c0 0-37.3.3-67.7 7 0 0-83.3 27.7-123.3 27.7 0 0-70.3-5.7-96.3 38 0 0-9.7 21.7-90.7 37.7"/></svg>