<svg xmlns="http://www.w3.org/2000/svg" id="hair" viewBox="0 0 3000 3000"><path id="cl1" fill="#463D38" d="M1054.5 578s-25.5 68-14 162.5c0 0 4 47.5 32 76.5 0 0-62 46-68.5 99l-27.5 235s5 13.5-86 111.5c0 0-1 3.5 27 0 0 0 84-8.5 129-41 0 0 48.5-66.5 71-131 0 0-14.5-8-29-25 0 0-19.5-12.5-31.5-34.5 0 0-9.5-10.5-18.5-35.5 0 0-5-8-8-29 0 0-3-89 68-77 0 0 5 2 8-6.5 0 0 18.5-32.5 46-33 0 0 38-7.5 45.5 13l4 22.5s14.5 53.5 78 75.5c0 0 3.5 2.5 0-22l-23.5-129s55.5-25 17-128c0 0 64.5-4 71-114 0 0 5.5-4.5 19.5-9 0 0 53-25.5 87-30 0 0 75-20 148 40 0 0 23.5 25 37 30.5 0 0 31 15.5 47.5-7.5 0 0 11-13.5 38-39 0 0 29-37.5 72 3.5 0 0 41.5 46 77 117.5 0 0 2.5-1.5 6.5-20 0 0 11.5-73.5-44.5-160.5 0 0-50-89.5-180.5-136 0 0-101-37-226.5-15.5 0 0-121 18-229.5 81 0 0-90.5 40-123.5 112l-18 43z"/><path id="sd1" fill="#3F3733" d="M1117.5 1090.5c-11.5 40.8-63.1 119.6-63.1 119.6-22.7 35.8-113.4 45.6-113.4 45.6l-44.7 8.4 11.3-14.4c144.7-48 165.7-197 165.7-197l44.2 37.8zM1075 538.3s-56 101.8-23.7 244.9c0 0 35.2 95.5 173.8 46.6 0 0-57.4-14.2-64.8-51.5L1193 743s15.4-25.1 85.4-46.9l-4.9-14.1-83.2 29s-30 4.7-69.3-.7c0 0-13.3-6-10.7-22 0 0 28.4-47.4 213.2-118.4 0 0-139.9 19.7-190.5 62.4 0 0-79.4 16-58-94zm124.3 312l29.7 3c5.7 48.7 27 93.7 27 93.7 14.9 7 23.3 11.3 23.3 11.3-9.3-58.3-23.3-140-23.3-140-10.3 11-56.7 27-56.7 27v5zm-130.4-30.5l-13.6 11.9s23.2 27.8 21.2 53.3c0 0 18.1-4.2 25 4.4 0 0 7.5-28.4 32.5-39.9 0 0-34.8-.3-65.1-29.7z"/><path id="hl1" fill="#4C433D" d="M1282.7 458s-1.3-2.3 16.3-10.7c0 0 34.7-22 62-21.7 0 0 6.7-.7 14.7 5 0 0 13 2.3 24-3.7 0 0 59.3-28 102.3-25.3 0 0 6.7 3.3 7 10v18.1s-1 7.9 57.7 1.9c0 0 53.3-8 67 3.7 0 0 6.3 7.3 6.7 10.3 0 0 22.7 2.3 37.7 1.7 0 0 22.3 13.3 40.7 15.3 0 0 65 16.7 69 29.7v5s.3-3-14-7.7c0 0-19-7.7-47-5 0 0-4 4.7-12.7 3.7 0 0-18.3-14-26-17.3 0 0-13.7-1.7-23 1.7 0 0-28.7 7-41.7-11.7 0 0-12.3-4.3-32.7.3 0 0-12 .7-43 7 0 0-16 4.7-38.7 4.3 0 0-9-10.7-20-30.3 0 0-3.7-16-19-13.7 0 0-33.7 5.7-51 6.7 0 0-31.3 12-47.3 4.3 0 0-47.3-2.2-73.3 9.7-.1.1-5.7 2-15.7 8.7zm-36.8 127.6s-28.9 14.8-29.6 37.4c0 0 17.3 7.3 0 22.7 0 0-6.7 6 0 16.7 0 0 7.4 4.7-3 10.7 0 0-3 3.7 0 8.7 0 0-26.4 12.7-39.4 28.3l20.6-.5s-4.3 12.2-3.6 28.5c0 0 6.3 7.3 3.3 17 0 0-7 13-23.7 24 0 0 6.7 10.3 3 16.7 0 0-6 11-7.7 20.3h8.3s2.7 4.7-2 10.7c0 0 0 6.7 3 9.3l28.3-1.7s17.3-5.1 21.6-9.6c0 0-6.8-1-22.3-6 0 0-4.8 1-.5-11.3 0 0 19-12.5 22.3-23.5 0 0-3.3-13 3-22 0 0 9.5-9.5 15-22.5 0 0-2.4-9.5 3.2-15.5 0 0 12.1-10.2 18.8-13.2 0 0-10.8-12.8-30.5-12.5l7.5-11 .8-5.5s0-.3-13.5-3.3c0 0-6-2.3 1.3-5.3l13.5-10s-1.5-9-.5-15.8c0 0 1.8-6.5 7.3-12.5 0 0-3.8-10.5 2.3-17.3 0 0 22.3-22.9 29.9-28.8l4.4-10.3-41.1 7.1zm-237.1 310.9s-13 68.5-11.8 78.8l17.9 3s-1.7 34 8.7 46l7.7 10 10.7-1.3s-1.3 14 4 22.3c0 0 18.3 7 16.7 30 0 0 27.4-5.4 33-12.1 0 0-81.1-52.8-64.7-143.3 0 .1-22.7-8.8-22.2-33.4z"/><path fill="none" stroke="#000" stroke-miterlimit="10" stroke-width="6" d="M1072.5 535c33-72 123.5-112 123.5-112 108.5-63 229.5-81 229.5-81 125.5-21.5 226.5 15.5 226.5 15.5 130.5 46.5 180.5 136 180.5 136 56 87 44.5 160.5 44.5 160.5-4 18.5-6.5 20-6.5 20-35.5-71.5-77-117.5-77-117.5-43-41-72-3.5-72-3.5-27 25.5-38 39-38 39-16.5 23-47.5 7.5-47.5 7.5-13.5-5.5-37-30.5-37-30.5-73-60-148-40-148-40-34 4.5-87 30-87 30-14 4.5-19.5 9-19.5 9-6.5 110-71 114-71 114 38.5 103-17 128-17 128l23.5 129c3.5 24.5 0 22 0 22-63.5-22-78-75.5-78-75.5l-4-22.5c-7.5-20.5-45.5-13-45.5-13-27.5.5-46 33-46 33-3 8.5-8 6.5-8 6.5-71-12-68 77-68 77 3 21 8 29 8 29 9 25 18.5 35.5 18.5 35.5 12 22 31.5 34.5 31.5 34.5 14.5 17 29 25 29 25-22.5 64.5-71 131-71 131-45 32.5-129 41-129 41-28 3.5-27 0-27 0 91-98 86-111.5 86-111.5l27.5-235c6.5-53 68.5-99 68.5-99-28-29-32-76.5-32-76.5-11.5-94.5 14-162.5 14-162.5l18-43zm272 33s-246.2 11.1-301.4 188.5m230.4-74.5l-75.5 23s-51 29.1-129.5 107.6m4 4.4s49.3 44.7 121.3 25c19.4-5.3 40.5-15.3 62.7-32m-62.7 32l4.2 21"/></svg>