<svg xmlns="http://www.w3.org/2000/svg" id="hair" viewBox="0 0 3000 3000"><path id="cl1" fill="#3F3733" d="M1200.3 501s-120.7 103.3-128 270.7c0 0-8.7 103.3 26 179.3 0 0 4.7 7.3 10 0 0 0 22-57.3 72-36 0 0 45.3 20.7 88 65.3 0 0 4 1.3 8-19.3l24-90s-61.3 6.7-29.3-54l42-76.3s3.3-6.3-4.7-43.7c0 0-2-4.7 13.3-8.7 0 0 41.301-18 78-8 0 0 88.7 37.3 236.7 45.3 0 0 120 12 210.7-46 0 0-10-131.3-162.7-216.7 0 0-118-82-280-54 0 .1-126.6 8.8-204 92.1z"/><path id="sd1" fill="#39322E" d="M1113 628.5S1032 775 1101.5 949h5s27.5-113 161 26c0 0 20-72.6 28.5-103.8 0 0-44.5 9.3-33.5-34.7 0 0-53.5-29.5-36.5-77 0 0-75 43-51-81 0 0-.6-8.3 6.5-14 0 0-66.5 36.8-68.5-36z"/><path id="hl1" fill="#483F3B" d="M1226.7 482s-13.3 26-12 33c0 0 2.6 4 6 3.3l36.399.101s11.301 2.899-3 22.3c0 0-3.699 7.3-.699 9.3 0 0 11 4.7 23 7.3 0 0 21 4 18 21.3 0 0 1.3 5.7 11 6.301 0 0 15.699-.7 25 21 0 0 8.699 6.699 37.3 4.3l14.7.5s11 3.2 7.699 14.5c0 0-4.699 13.7-2.3 21.7l17.7 8s12.7 10.3 19 17.699c0 0 20 10 28.7 13 0 0 12.699 9.7 22.3 14.7 0 0 48.3 9.7 60 10.7 0 0-24.7.7-29.3-26.7 0 0-4.7-11-29-17 0 0-17-9.3-4.7-21 0 0-2-1.3-17.3-7 0 0-3-.3-10-42.8 0 0 0-8.5-12.7-9.2l-36.3 1s-8.301-2-9-17.3c0 0-16.7-15.3-45.301-24.3 0 0-12.3-3.3-21.3-12 0 0-4-5-.3-14.3 0 0 3-17.301 1.7-29 0 0-2-36.7 4.699-61.7C1326.3 429.7 1279 436.4 1226.7 482z"/><path fill="none" stroke="#000" stroke-miterlimit="10" stroke-width="6" d="M1200.3 501s-120.7 103.3-128 270.7c0 0-8.7 103.3 26 179.3 0 0 4.7 7.3 10 0 0 0 22-57.3 72-36 0 0 45.3 20.7 88 65.3 0 0 4 1.3 8-19.3l24-90s-61.3 6.7-29.3-54l42-76.3s3.3-6.3-4.7-43.7c0 0-2-4.7 13.3-8.7 0 0 41.301-18 78-8 0 0 88.7 37.3 236.7 45.3 0 0 120 12 210.7-46 0 0-10-131.3-162.7-216.7 0 0-118-82-280-54 0 .1-126.6 8.8-204 92.1z"/></svg>