<svg xmlns="http://www.w3.org/2000/svg" id="hair" viewBox="0 0 3000 3000"><path id="cl1" fill="#3E3633" d="M1482 404.5c20.5-16.5 158-15.5 158-15.5 161 10.5 218.5 138 218.5 138 61 107 54 219.5 54 219.5-5 67-21.5 54-21.5 54-32.5 5.333-43.215-53.071-43.215-53.071 1-19.5-17.285-73.595-17.285-73.595-25.666-91-70.5-120.333-70.5-120.333-35-22.5-57.5-25-57.5-25-58.5-4.5-101 60-101 60-86.5-57.5-130-33.5-130-33.5-41 11-56 77-56 77l-2.5 222.5-42-64.5c-4.302-4.5-9 0-9 0l-13.802 85.802L1285 803c-4.5-5.5-10-.8-10-.8l-18 75.8-39.802-45.5c-5.5-6-10.8-.3-10.8-.3l-22.3 79-28.302-54c-3.3-4.8-8.8-2-8.8-2l-25 36c-39-5.3-49.3-2.3-49.3-2.3-111-217 52-381 52-381 83-83 172-99 172-99 93-27 186-5 186-5 41 20 64 52 64 52"/><path id="sd1" fill="#342D2A" d="M1077.6 701.302c28 28.5 66.8 11.6 66.8 11.6 14.601-3.399 53.8-34 53.8-34 2.5-1.6 1.9.4 1.9.4-3.9 3.398-4 5.8-4 5.8-.4 7.3-.3 33-.3 33 15.3 51.5 60.8 16.898 60.8 16.898 8.6-4 26.1-30.398 26.1-30.398-.398 4 .7 6.8.7 6.8 33.3 77.3 126.8 36.7 126.8 36.7v96.3L1373 787.9c-7.2-7-13.7 1-13.7 1l-13.2 80-58.8-67.8c-7-8.3-15.2 0-15.2 0l-16.8 70.7-37.3-42.3c-8.2-7-13.802 1.7-13.802 1.7l-20.8 72-25.5-48.5c-7.3-6.2-12.7-1.2-12.7-1.2l-37.438 53.063c-25.5-5-35.76-17.363-35.76-17.363-29-48.5-37-130.5-37-130.5-7.5-43.5 15-108.398 15-108.398 6.8 32.398 27.6 51 27.6 51zM1883 680.7s-23.131 64.329-35.431 76.329c0 0 24.264 60.471 45.73 41.371 0 0 20 0 15-96.3.001-.1-12.999-6.4-25.299-21.4zm-393-276.399c34.698 17.699 59.698 50.001 59.698 50.001 1.302 5.698-5 4.3-5 4.3-49.3-53.301-64.3-51-64.3-51-12-7.301-75-8.7-75-8.7 19 6.7 44.7 39.3 44.7 39.3-55-8.3-78.302 11.3-78.302 11.3 22.302-7.3 86.302-.698 86.302-.698l6.3 12.698C1452.698 462 1403 503 1403 503c11-6.698 70.5-20.3 70.5-20.3 4.898 18.7 8.8 65.7 8.8 65.7 48-11.7 119.7 34 119.7 34 11-17.7 41.5-41.3 41.5-41.3-8.102-10.3-22.5-36.3-22.5-36.3 14.698-9.301 59.3-17 59.3-17-7.3-5.301-69-9.301-69-9.301-7.3-17.699-3.7-33.301-3.7-33.301 8.3-11.699 38.1-28.3 38.1-28.3-11.698.7-38 10.7-38 10.7-1-11.3 11-35 11-35-109.7.102-128.7 11.703-128.7 11.703zm-72.2 238.001c23.8-28.2 38.8-40.302 38.8-40.302 19.8-18.3 39-21 39-21 17.7 1.302 50.2 2.5 50.2 2.5 17.3.802 43.5 0 43.5 0-35.8-22.5-75-30-75-30-33-3.5-41.8 4-41.8 4-38.7 8.5-54.7 74.802-54.7 74.802v10zm285.7-70.5c13.666-4.688 34.087-2.107 34.087-2.107 25 2.8 56.579 22.56 56.579 22.56-28.3-35-40.666-58.421-90.166-63.153-59.722-5.709-95.802 55-95.802 55 66.5.598 95.302-12.3 95.302-12.3z"/><path id="hl1" fill="#504642" d="M1250.698 426.7s-20 44-26.698 55.7c0 0-5 9.4 5 6.2 0 0 22.5-8.3 30.3-13 0 0 13.3-8.8 21.8-9.8 0 0 8-1.801 3.3 5 0 0-12.8 28-14.3 38.8l-.5 12.3s2.8 6 9.8 3.5c0 0 16.3-6 24.8-10.8 0 0 18.802-10.3 27.302-11.8 0 0 3-2 8.5-.301 0 0 4.3 3.301 0 13.5 0 0-5.5 15.301-4.302 28 0 0 4.5-3.801 13.302-7.5 0 0 7-3.5 10.5 7.5 0 0 2.3 36.301-6.302 55.301 0 0 5.5-.301 24.802-15.5l8-5.301s9.8-4.301 9.5 6.801c0 0 4 88 16.3 105v11.5s-39.5-28-47.3-45.301c0 0-13.802-24.5-14.302-40 0 0-1.8-6.5-8.5-2 0 0-39.3 22.301-52 43.5 0 0-2.5-51.5 2.802-72.5 0 0 .5-5.5.5-16.301 0 0-7-3.3-43 17.301 0 0 0-22.301 8-32 0 0 .5-1 2-7.301 0 0-11.802-8-52.5 23.801l3.8-12s1-.301-.5-6.5c0 0-6.5-.801-13 4.301 0 0-17.8 12.5-25.5 18 0 0-5-7.801 14.3-43 0 0 3-7.5-12.3-.5 0 0-30 12.5-61.3 44.5 0 0 7-47 11.5-63-.202.002 47.798-52.7 126.196-86.1z"/><path fill="none" stroke="#000" stroke-linecap="round" stroke-linejoin="round" stroke-width="6" d="M1482 404.5c20.5-16.5 158-15.5 158-15.5 161 10.5 218.5 138 218.5 138 61 107 54 219.5 54 219.5-5 67-32.667 55.333-32.667 55.333-21.5-14-27.586-37.387-32.048-54.405-4.951-18.887-10.114-50.479-15.422-65.647-33.403-95.458-48.396-107.156-72.363-128.281-31.214-27.513-57.5-25-57.5-25-58.5-4.5-101 60-101 60-86.5-57.5-130-33.5-130-33.5-41 11-56 77-56 77l-2.5 222.5-42-64.5c-4.302-4.5-9 0-9 0l-13.802 85.802L1285 803c-4.5-5.5-10-.8-10-.8l-18 75.8-39.802-45.5c-5.5-6-10.8-.3-10.8-.3l-22.3 79-28.302-54c-3.3-4.8-8.8-2-8.8-2l-38.546 51.358c-29.284-3.358-35.754-17.658-35.754-17.658-111-217 52-381 52-381 83-83 172-99 172-99 93-27 186-5 186-5 41 20 64 52 64 52m247.47 136.355c-63.5-36.7-90.768-20.354-90.768-20.354-22.5 13-87.7 14.7-87.7 14.7L1581 586c-24.5 1.102-86-2.5-86-2.5-34 4.5-79.7 66.602-79.7 66.602"/></svg>