<svg xmlns="http://www.w3.org/2000/svg" id="hair" viewBox="0 0 3000 3000"><path id="cl1" fill="#3F3733" d="M1141 586.3s-54.7 22-74.7 143.3c0 0-13.3 68.7 34.7 208.7 0 0 5.3 4.7 8.7-6 0 0 36.7-75.3 175.3 35.3 0 0 16-9.3 29.3-50 0 0 12-65.3-29.3-120 0 0-12-37.3 10.7-84 0 0 30-36.699 72-35.3 0 0 41.3 10.7 54.7-2 0 0 17.3-24 36-22.7 0 0 20.699-6 100 28 0 0 31.3 16.7 75.3.7l84-24s48-6.7 87.3 26c0 0 38.7 35.3 59.3 92.7 0 0 5.3 44.7 10.7 86.7 0 0 4 30.7 15.3 3.3 0 0 16-76 11.3-155.3 0 0 3.301-66-38.699-137.3 0 0-24.7-50-94-110 0 0-58-62-164-78.7 0 0-117.301-24.7-223.301 15.3 0 0-52 12.7-107.3 77.3 0 0-15.3 58-133.3 108z"/><path id="sd1" fill="#342E2A" d="M1080 828c1.7-15.8 24-30.5 24-30.5l26 58.5.5-11c4.5-15 11-24.5 11-24.5C1201 897.5 1307 925 1307 925c-6.5 24.5-20 41.1-20 41.1-151.5-125.9-182.5-26.9-182.5-26.9C1087.6 903 1072 810 1072 810l8 18zm55.3-238.5s-10.8 118.5 6.7 157c0 0-8.5-45 64.5-92 0 0 10.5-7 8.5 7 0 0-7.5 33-6 79 0 0 24.5-37 50.5-58 0 0-1.5 58.5 6.5 92 0 0 5-10.3 12.5-22.5 0 0 6-29 18.5-45 0 0 30.5-40.5 82-30.5 0 0 33.5 13.5 46.5-9.5 0 0 15.5-26 71.5-11.5 0 0 50.5 15.5 77 28.5 0 0 37.5 8.8 79.5-11.1 0 0 81-32.4 121-10.9 0 0 60.5 24.5 92.5 112.5l7.5 48s-.5 37 7 51c0 0 5.5-19.5 0-42 0 0-7.5-67-17.5-84 0 0-27.5-74.5-64.5-101.5 0 0-30-31-121-13.5 0 0-47.5 5-76 14.5 0 0 12.5-21 41.5-29.5 0 0-67 3.5-92.5 11 0 0-68 16.5-87.5 1 0 0 41.5-38.5 68.5-50 0 0 11-9-4.5-7.5 0 0-16-1.8-23.5-.2 0 0-71.5 17.7-87.5 23.2l54.5-38s-91.5-10.5-140 4.5c0 0 89.5-64 111-91.5 0 0-136-5.5-162 7 0 0-41.9 66.5-145.2 112.5zm34.7-13c34 2 45.5 16.5 45.5 16.5-20.5 8-21.5 18.5-21.5 18.5 88.5-8.7 155.4 64.5 155.4 64.5 15.8-4.4 18.1-3.1 18.1-3.1C1355 652.3 1288 601 1288 601c-16.5-12-7.5-15-7.5-15 13.5-11.5 34.5-20.5 34.5-20.5-12.5-6-32.5-1-32.5-1-13.5 2-29 11-29 11 5-20-7.5-52.5-7.5-52.5-19.5 23.5-76 53.5-76 53.5z"/><path id="hl1" fill="#463D39" d="M1395.5 399.5s111-4 139.5 9.5c0 0-6 6.5-36.5 18.5 0 0 14.5 2.5 30 3 0 0 28.5.5 40.5 3.5 0 0 17 2 5 11 0 0 11.5 7.5 32 10.5 0 0 23.5 1.5 32 8 0 0 1 6-20.5 12.5 0 0 37.5 1.5 62.5 17.5 0 0 56.5 22.5 85 48.5 0 0-23.5-27-45-42 0 0-19.5-10.5-31-18 0 0 21-1.5 30-5l-63.5-30.5 12-3s-34.5-20-71-31c0 0 7-6 24.5-8 0 0-32-13.5-64.5-13.5 0 0-39.1-4.1-53.5-8s-99 10.5-107.5 16.5z"/><path fill="none" stroke="#000" stroke-miterlimit="10" stroke-width="6" d="M1141 586.3s-54.7 22-74.7 143.3c0 0-13.3 68.7 34.7 208.7 0 0 5.3 4.7 8.7-6 0 0 36.7-75.3 175.3 35.3 0 0 16-9.3 29.3-50 0 0 12-65.3-29.3-120 0 0-12-37.3 10.7-84 0 0 30-36.699 72-35.3 0 0 41.3 10.7 54.7-2 0 0 17.3-24 36-22.7 0 0 20.699-6 100 28 0 0 31.3 16.7 75.3.7l84-24s48-6.7 87.3 26c0 0 38.7 35.3 59.3 92.7 0 0 5.3 44.7 10.7 86.7 0 0 4 30.7 15.3 3.3 0 0 16-76 11.3-155.3 0 0 3.301-66-38.699-137.3 0 0-24.7-50-94-110 0 0-58-62-164-78.7 0 0-117.301-24.7-223.301 15.3 0 0-52 12.7-107.3 77.3 0 0-15.3 58-133.3 108z"/></svg>