<svg xmlns="http://www.w3.org/2000/svg" id="hair" viewBox="0 0 3000 3000"><path id="cl1" fill="#3E3633" d="M1103.806 517.84s-63.638 36.158-83.404 132.579c0 0-17.356 82.922 28.926 178.86 0 0 24.587 51.104 37.604 66.049 0 0 13.981 17.837 33.266 25.551 0 0 38.086 1.928 51.103-4.821 0 0 35.193-6.75 48.692 15.427 0 0 35.676 35.676 56.888 40.015 0 0 10.125-.964 8.678-13.499 0 0-8.196-87.743-5.303-104.617 0 0-7.907-6.268-53.707 24.587l63.156-44.836s24.78-14.463 45.993-57.853c0 0 9.642-47.246-7.713-88.225 0 0 0-8.678-23.624-22.659 0 0-28.926-26.033-46.282-54.959 0 0 44.643 35.193 67.977 42.907 0 0 49.657 18.32 76.655 16.682 0 0 21.984 4.628 56.406-14.945 0 0 103.17-56.406 134.025-69.231 0 0 34.036-13.499 69.712-5.11 0 0 93.335 21.502 79.065 58.142 0 0-30.662 54.96-67.495-1.735 0 0-.771-2.217-1.735 10.414 0 0 6.557 36.448 34.712 50.621 0 0 25.069 21.695 99.313-30.854 0 0 5.303-5.303 12.053 6.268 0 0 17.065 3.571 29.49 85.439 0 0 19.586 50.444 23.442 36.463 0 0 22.275-72.246 23.722-117.563 0 0-6.749-76.655-33.747-138.364 0 0-9.643-48.21-73.28-110.884 0 0-26.998-39.051-139.328-73.28 0 0-126.312-42.907-260.336-25.069 0 0-91.6-.482-193.806 79.547l-53.514 43.872s-1.446 3.856 5.785 4.339l17.356 16.392s5.303 10.124-5.785.964c0 0-40.594-50.139-141.547-22.659 0 0-15.62 7.231 8.968 7.714 0 0 65.566 6.267 83.886 74.244 0 0-1.446 13.499-6.75-3.857-5.302-17.36.483-12.056.483-12.056z"/><path id="sd1" fill="#342E2B" d="M1206.302 560.265c-11.57-61.034-5.785-150.417-5.785-150.417 124.094-102.207 303.437-79.74 303.437-79.74-118.888 61.709-131.133 244.235-131.133 244.235 10.316 46.282 28.251 57.853 28.251 57.853 79.065-4.532 141.45-52.743 141.45-52.743 86.104-50.814 161.987-12.824 161.987-12.824 75.208 28.926 59.78 72.027 59.78 72.027-18.609 36.64-43.1 30.854-43.1 30.854l-45.993-13.596-1.543-15.331 7.714 5.11c45.607 45.607 61.901-16.777 61.901-16.777-1.735-29.022-51.392-40.304-51.392-40.304-71.737-29.504-130.071 11.088-130.071 11.088-60.456 42.039-143.282 69.037-143.282 69.037-44.932 7.521-83.597-13.402-83.597-13.402l-57.466-19.284c14.849 23.141 30.662 30.565 30.662 30.565 43.293 29.986 33.844 85.14 33.844 85.14-3.857 58.527-63.928 89.671-63.928 89.671.964 32.397 7.328 114.259 7.328 114.259 1.447 16.777-8.485 15.813-8.485 15.813-18.127-3.375-63.928-47.92-63.928-47.92-13.306-13.885-41.653-7.521-41.653-7.521-22.177 4.821-63.311 3.41-63.311 3.41-67.59-49.946-82.671-158.648-82.671-158.648-26.129-129.782 33.748-199.688 33.748-199.688 91.118-21.018 147.236-.867 147.236-.867zm623.361 69.327l-17.646 35.869s15.3 10.658 23.3 39.325c0 0 12.85 70.048 34.183 91.714 0 0 9.571-13.748 19.985-68.032 0 0 3.333-17.207 2.754-48.737 0 0-54.285 20.827-57.563-50.235h-5.014v.096z"/><path id="sd2" fill="#2C2724" d="M1009.314 456.13s67.495-30.373 126.793 0l63.638-50.91s-4.146 110.691 6.653 155.044c0 0-56.695-18.32-143.474 0l37.604-45.8c-.097.001-11.185-45.317-91.214-58.334z"/><path id="hl1" fill="#3A3330" d="M1048.653 652.347l12.535 5.593c3.375 7.231 3.182 10.896 3.182 10.896 2.217 8.678 7.713 10.124 7.713 10.124l18.127-.289c8.196 7.521 9.931 13.017 9.931 13.017 13.017 15.717 33.748 5.785 33.748 5.785 7.04-4.821 17.355-3.665 17.355-3.665l5.786 8.486c9.16 20.537 32.301 4.628 32.301 4.628 14.753-11.088 15.235-10.124 15.235-10.124 2.217 12.824 4.339 10.606 4.339 10.606 16.874-10.414 38.857-39.533 38.857-39.533-8.196 11.088-8.678 24.105-8.678 24.105-5.303 20.249-21.213 43.39-21.213 43.39-1.928 15.909-7.713 3.856-7.713 3.856-.482-10.124-8.678-3.375-8.678-3.375-7.713 5.303-13.017 22.177-13.017 22.177-9.16 12.535-21.695.964-21.695.964-10.606-14.945-16.392-3.375-16.392-3.375-3.375 7.714-8.678 2.411-8.678 2.411-12.535-21.212-20.73 0-20.73 0-7.231 18.802-12.824 11.088-12.824 11.088-7.521-5.785-12.246-17.355-12.246-17.355-7.231-18.32-15.91-.964-15.91-.964-10.606 12.053-12.535 0-12.535 0-2.893-8.678-2.893-17.356-2.893-17.356-1.446-20.73-6.75-14.463-6.75-14.463-10.124 6.75-15.427 17.355-15.427 17.355-12.535 14.945-17.356 7.714-17.356 7.714-10.028-50.139 22.659-91.6 22.659-91.6m529.836-281.838c-34.326 1.639-67.783 17.067-67.783 17.067l5.495 2.893 15.428.289c15.717-.289 3.183 7.039 3.183 7.039l-23.816 11.281h18.995c13.788-1.928 1.639 3.568 1.639 3.568-10.896 2.604-46.957 16.392-46.957 16.392-38.279 12.824-89.382 64.892-89.382 64.892 42.136-21.213 126.601-23.816 126.601-23.816 26.709-1.254 24.105-2.893 24.105-2.893-10.896-3.857-47.922-9.932-47.922-9.932 27.287.964 63.927-12.824 63.927-12.824-19.573 1.253-12.244-1.928-12.244-1.928 5.785-3.857 35.386-13.499 35.386-13.499-35.676-1.929-9.353-14.752-9.353-14.752 32.493-8.967 25.069-12.824 25.069-12.824-33.458-9.642 5.785-21.213 5.785-21.213 21.213-8.002 75.498-10.606 75.498-10.606-26.034-8.967-67.206-21.502-67.206-21.502-25.165-3.279-67.494 8.389-67.494 8.389 14.075 1.155 31.046 13.979 31.046 13.979z"/><path fill="none" stroke="#000" stroke-miterlimit="10" stroke-width="6" d="M1109.324 529.892c5.303 17.355.75 3.857.75 3.857-18.32-67.977-83.886-74.244-83.886-74.244-24.587-.482-8.968-7.714-8.968-7.714 100.953-27.48 141.547 22.659 141.547 22.659 11.088 9.16 2.785 2.036 2.785 2.036l-18.356-15.392c-7.231-.482-2.785-7.339-2.785-7.339l54.514-44.872c102.206-80.029 193.806-79.547 193.806-79.547 134.025-17.838 260.336 25.069 260.336 25.069 112.33 34.229 139.328 73.28 139.328 73.28 63.638 62.673 73.28 110.884 73.28 110.884 26.998 61.709 33.747 138.364 33.747 138.364-1.446 45.319-24.922 121.567-24.922 121.567-1 5-22.242-40.465-22.242-40.465-15.336-70.234-25.092-84.202-25.092-84.202-6.75-11.571-12.899-8.705-12.899-8.705-74.244 52.549-102.865 32.054-102.865 32.054-28.252-14.27-34.712-50.621-34.712-50.621.964-12.535 1.735-10.414 1.735-10.414 36.929 56.695 67.495 1.735 67.495 1.735 14.27-36.64-79.065-58.142-79.065-58.142-35.676-8.485-69.712 5.11-69.712 5.11-30.855 12.825-134.025 69.231-134.025 69.231-34.52 19.573-56.406 14.945-56.406 14.945-26.998 1.735-76.655-16.682-76.655-16.682-23.431-7.714-67.977-42.907-67.977-42.907 17.355 28.926 46.282 54.959 46.282 54.959 23.624 13.981 23.624 22.659 23.624 22.659 17.355 40.979 7.713 88.225 7.713 88.225-21.212 43.39-45.993 57.853-45.993 57.853l-63.156 44.836c45.8-30.855 53.707-24.587 53.707-24.587-2.893 16.874 5.303 104.617 5.303 104.617 1.446 12.535-8.678 13.499-8.678 13.499-21.212-4.339-56.888-40.015-56.888-40.015-21.993-21.986-48.692-15.427-48.692-15.427-13.017 6.749-58.103 5.821-58.103 5.821-19.284-7.714-26.266-26.551-26.266-26.551-13.017-14.945-37.604-66.049-37.604-66.049-46.282-95.938-28.926-178.86-28.926-178.86 19.766-96.421 83.404-132.579 83.404-132.579s.214-5.302 5.517 12.054zm702.694 135.664c68.941-91.407-63.734-169.508-63.734-169.508"/></svg>