<svg xmlns="http://www.w3.org/2000/svg" id="hair" viewBox="0 0 3000 3000"><path id="cl1" fill="#E4D256" d="M1333 69s-36.5 158-44.5 201c0 0 1.5 9.5-24 0l-253-82.5s-12-7 0 15L1090 397s4.5 7-24.5 7.5L872 418s-7.5-.5 9.5 13l119 98s10 8-2 8.5l-91 79.5s-8 0 9.5 5.5l63.5 12s9 4-5.5 14c0 0-50 54-73.5 77.5 0 0-7 5.5 10.5 7l91.5 14s4.5 3.5-2.5 22l-48 137s2.5 4.5 10 0l50-32.5s5.5-3 2 18l60 142s3-41.5 13-53l49.256 34.399s-15.944-45.193-21.871-72.517c0 0-6.001-28.399-7.942-42.806l6.057-7.077s21.5-26.5 58.5-17.5l2.5 1 23.5-66s44 58 62 63l-.5-69s18.5-145.5 35-182.5l182.5 220s2.5 4.5 5.5-14c0 0 17.5-74.5 32-195 0 0 26 30.5 65 77.5 0 0 14-40 21.5-73 0 0 16 24.5 71.5 127 0 0-2 8.5 79-98 0 0 39 73 59 124.5 0 0 6 11 6-13V697s2.5-15.5 20.5 7.5c0 0 9 0 27.5 87 0 0 12 36 12.5 163.5 0 0 5.5-6.5 19.5-43.5L1916 855s3-10.5 10 1.5l19 27.5s4.5 8.5 4.5-17.5V778l14 9s1.5-9-4-23.5c0 0-30.5-117.5-36.5-142 0 0-1-5 11 2.5l143 52s14.5 11-7.5-17.5l-113-127.3 47.5 17.3s8.5 3-5.5-13.5l-98-91s-8-3.5 9.5-9.5l61-27s4.5-4-20.5-12.5l-128-52.5s0-8.5 13-26L1905 188s-114.5 42-198.5 75c0 0-5 5.5-12.5-24l-62.5-178.5s-.5-5.5-11.5 11l-115 149s-5 12.5-20-11c0 0-130.5-119.5-152-140.5z"/><path id="sd1" fill="#BB8344" d="M1011.5 187.5L1206 443s-46.102 35.102-54 55.102L1150 488l-63.102-86.5L1078 376l-66.5-188.5zm-6.802 347.2L1082 543l-180.2-95.3c44.8 38.7 102.898 87 102.898 87zM979 634.2l3.3 7.8 53.7-31-119.5 11.302C929.698 629.1 979 634.2 979 634.2zm129-43.2l-89 111 38-6-41 140.5s36-22.5 54-28.5l5.595 219.116S1082.398 887.9 1111 890.5l36.25-16.563 23.35-1.436 5.699-1.301L1198 810s-21.4-18.498-31.4-35.498c0 0-18-23-40.5-74C1126 700.5 1108.5 673 1108 591zm247.5-240.699l-31 54.699 81.5-36.5 48 60.5c0-16 10-68 10-68l157.5 33.5c-15.5-6-116.5-51-116.5-51 19.5-6.5 112-26.8 112-26.8l-141.5 2.3-48-39-23 44-30-14-158.5 43.5 139.5-3.199zm18.3 81.199s-85.8 47-126.8 174c0 0-8.5 136.5 9 221.5 0 0 6.3-205 117.8-395.5zm-8.3 19.9s-40 69.2-68.602 173c0 0 139 157.7 152.9 180.7 0 0-21.4-41.7-43.4-82.3 0 0-84.7-122-40.7-246L1511.8 651l2.3-18.698c0-.102-124.6-159.602-148.6-180.902zm8.3-19.9l-5.3 16.5s194.3 240.302 207.398 257.602V701c.002 0-36.098-88.198-202.098-269.5zm254.898 82.1L1601 637l17.3 29.102s30.1-80.8 39.398-104.4c0 0 54.4 80.102 33.9 181.4l59.2-78.602 49.199 100.7s-5.601-43.5-15-66.8c0 0-54.699-189.8-212-267.1l-3.301 5.698s46.7 56.7 53.301 68.302l5.701 8.3zM1731 538.302S1807.698 679 1820.3 697h10l133.3 86-6-12.698-226.6-232zM1842.1 711.5s40.3 104.802 38.3 212.2L1895 749l-52.9-37.5zM1909 769l10.698 76L1945 884l-36-115zm14.3-148.698c4.3-1.302 14.398.698 14.398.698 28 13.302 142.102 51.9 142.102 51.9l-16.102-12.3c-31.3-20.3-237.3-159.7-237.3-159.7l96.902 119.402zM1882.8 447l15.898-5.3 65-32.7c-39.3 6-102.3 22.302-102.3 22.302L1882.8 447zm20.1-255s-95.2 115-113.899 147.7l63.301 20-.602-5.2-25.4-10.4-4-5.102L1902.9 192zm-263-107.6s15.101 145.2 25.8 199.2l40-16-65.8-183.2zM1500 223.802L1361.8 96.1c11.5 21.1 117.8 168.199 117.8 168.199l30-43.301-9.6 2.804zm-217 48.5l-267.302-78.7 293.7 114c-1-43.7 27.3-235.102 27.3-235.102L1283 272.302z"/><path fill="none" stroke="#000" stroke-miterlimit="10" stroke-width="6" d="M1485 209.5c15 23.5 20 11 20 11l115-149c11-16.5 11.5-11 11.5-11L1694 239c7.5 29.5 12.5 24 12.5 24 84-33 198.5-75 198.5-75l-69.5 128.5c-13 17.5-13 26-13 26l128 52.5c25 8.5 20.5 12.5 20.5 12.5l-61 27c-17.5 6-9.5 9.5-9.5 9.5l98 91c14 16.5 5.5 13.5 5.5 13.5l-47.5-17.3 113 127.3c22 28.5 7.5 17.5 7.5 17.5l-143-52c-12-7.5-11-2.5-11-2.5 6 24.5 36.5 142 36.5 142 5.5 14.5 4 23.5 4 23.5l-14-9v88.5c0 26-4.5 17.5-4.5 17.5l-19-27.5c-7-12-10-1.5-10-1.5l-19.5 56.5c-14 37-19.5 43.5-19.5 43.5-.5-127.5-12.5-163.5-12.5-163.5-18.5-87-27.5-87-27.5-87-18-23-20.5-7.5-20.5-7.5v80.5c0 24-6 13-6 13-20-51.5-59-124.5-59-124.5-81 106.5-79 98-79 98-55.5-102.5-71.5-127-71.5-127-7.5 33-21.5 73-21.5 73-39-47-65-77.5-65-77.5-14.5 120.5-32 195-32 195-3 18.5-5.5 14-5.5 14l-182.5-220c-16.5 37-35 182.5-35 182.5l.5 69c-18-5-62-63-62-63l-23.5 66-2.5-1c-37-9-58.5 17.5-58.5 17.5-17.5 22 25 125.5 25 125.5l-50.5-37.5c-10 11.5-13 53-13 53l-60-142c3.5-21-2-18-2-18L963 906c-7.5 4.5-10 0-10 0l48-137c7-18.5 2.5-22 2.5-22L912 733c-17.5-1.5-10.5-7-10.5-7 23.5-23.5 73.5-77.5 73.5-77.5 14.5-10 5.5-14 5.5-14l-63.5-12c-17.5-5.5-9.5-5.5-9.5-5.5l91-79.5c12-.5 2-8.5 2-8.5l-119-98c-17-13.5-9.5-13-9.5-13l193.5-13.5c29-.5 24.5-7.5 24.5-7.5l-78.5-194.5c-12-22 0-15 0-15l253 82.5c25.5 9.5 24 0 24 0 8-43 44.5-201 44.5-201 21.5 21 152 140.5 152 140.5zm352 495s77 51.5 112.5 73.5m7-246.8s-80.307-94.172-185-122.7m-20 257.5s-35.102-74.3-119.302-169.398A1095.5 1095.5 0 0 0 1542 406m59 231s29.898-92.1 28.5-143.5m-115 139L1363 446m16-23s-48 74-84.5 198.5M1178 476c-40 25-78 60-78 60-11 34 12 101 12 101 8 86 86 173 86 173"/></svg>