<svg xmlns="http://www.w3.org/2000/svg" id="hair" viewBox="0 0 3000 3000"><path fill="#0E294E" d="M1157.3 666.7v189.7c0 12.7 12.6 43.3 12.6 43.3l-20.899 6c-54.7-26.7-73.301-18-73.301-18-19.3 2.7-30.699 22-30.699 22-16.7 19.3-11.301 47.3-11.301 47.3l-40 22.7c-14 8-18 31.3-18 31.3-9.3 22.7-10.699 6.7-10.699 6.7 2-38.7 6.699-72.7 6.699-72.7-8.7-104.699 7.3-120.699 7.3-120.699 20.699-32.7 67.3-61.301 67.3-61.301 16.7-12 15.3-13.3 15.3-13.3L1055 660l102.3 6.7zm211.8 5.101s-33.5 74.899-40.4 159.1h66.1c-.101-.001-23.7-130.901-25.7-159.1zm43.2 159.099h290.3c8.9-72.8-16.8-186.1-16.8-186.1-63.9-11.601-235 8.5-235 8.5-8.4 27.501-38.5 177.6-38.5 177.6zm363.1-172.7s-31.7 122.101-59.399 172.8l90.1-.1 1.699-60.2c-.101-.1-20-96-32.4-112.5z"/><path id="cl1" fill="#293243" d="M929 297.5s19 42.5 46 85.5c0 0 55 74 83 103 0 0 9.699 10.301-9.7 5.301 0 0-78.7-24.301-134-74 0 0-6.3-4 0 10 0 0 16.3 33.3 34.7 55l84.3 89.3s17.3 13-5.7 10.3c0 0-75.3-9-98.7-7.3 0 0-8.3-.3 2.7 7.7 0 0 97 51.3 119 74l4.3 3.699 102.3 6.7s-6.699 121.3 0 177v12.7s10.7 38 14 47.7l41.7 139.7 21.7 50.699s3.3 2 4.3-10l18.7-184.3s1-24.3 8.7-.3l35 86.3s4.3 4.7 5.3-7.7c0 0 20.3-127.699 21.7-145l6.3-55s20.3-86.3 27-98.3c0 0 5.6-25.3 9.3.8 0 0 11 88 13.3 103.5 0 0 12.301 54.301 15.5 69.5 0 0 5.5 20.5 10.5-12.5l17-85.8s16-80.5 23.5-102.3c0 0 20-74 39.5-92.3 0 0 15.801-16.8 33.5 8.8 0 0 20.301 21 41.301 63.5 0 0 9-38.8 20.5-65.8 0 0 25.3-51 61-9.3 0 0 27.8 37 39.3 86.5 0 0 29.3 100.8 15.8 194.3 0 0-4 33 14.5-8 0 0 44.5-94.5 57.5-166 0 0-1-25.5 13.5 21.5 0 0 20.5 61.5 21.5 94 0 0-7 158.5-12.5 191.5 0 0 1.5 13.5 16-20.5 0 0 14.5-42 26-65.5 0 0 5-12 5 15 0 0 5.5 109.5 2.5 141.5 0 0 4.5 7.5 13-12 0 0 26-53 34.5-79 0 0 21-77 29-226.5 0 0 1-15.5 7.5 2.5 0 0 24 57 27.5 78 0 0 3.5 33 3 51 0 0 4.5 2.5 16.5-52 0 0 15.5-71.5 9.5-124.5 0 0-8-63.5-19-94 0 0-49-136.5-146.5-190 0 0-77.5-58-191-69.5 0 0-155-25.5-274.5 6l-52 8.5s-81.5-8.5-219.5-58c0 0-14-5 7 16 0 0 50.5 55.5 62.5 71.5 0 0 15.5 25.5-19.5 16.5 0 0-97-16.5-201-90.5-.101-.099-5.701-3.798-3.601.901z"/><path id="sd1" fill="#1C222E" d="M1155 520l-95.101-28.1L972.5 379c-16.7-22.899-35.801-65.3-35.801-65.3C1009.3 384.301 1155 520 1155 520zm-207.7-39.699L1037 574.7c9 8 0 8.3 0 8.3-19.7-2-110.9-6.3-110.9-6.3C1043.8 642.1 1055 660 1055 660l102.699 6 3-57.699C1094.3 602 922 434.7 922 434.7l25.3 45.601zM1234 622l-77 198 .3 36.301s44.3 167.3 63.7 206.199l15.399 34.5 5.2-39.199 17.9-167.9s1.3-3.5 8.399 14l36 86.1 20-124 8-63s11-60.6 17.101-82.3l15.899-50.1 2-4.5-4.5-37.5L1286 862l-52-240zm169.5 240.5l12-43c9-57 35.3-166.3 35.3-166.3 19.6-11.6 234.1-12.1 234.1-12.1 30.4 58.7 16.601 208.2 16.601 208.2 20.5-39.601 20-91.9 20-91.9 3.5-99-31-173.5-31-173.5-19.5-46.5-53-45-53-45-29 .5-38.5 11.1-38.5 11.1-15.801 8-34 83.2-34 83.2l-29.601-49.1c-27.2-44.5-47-21.2-47-21.2-21.6 17.4-104.899 204.6-104.899 204.6 3.999 24.5 19.999 95 19.999 95zm129.5-388s12 73.5 15 93.5l15.5 6 64.5-89.5-41 22.5-2.5-42.5L1556 507l-23-32.5zM1776.5 633s-8 28.5-6 40.5l6-11.5 10.5 21.5s29.5 68.4 18 168.2c0 0-.5 89.3-9 120.3 0 0 3.699 5.801 9.899-7.3l20.601-52.1s7-145 0-181c0-.1-30.5-67.6-50-98.6zm87-6s5.899 98.801.199 118.4l-22.1 135.9s6.9 118.2 3.9 161.199c0 0 4.199 7.2 16.5-19.199 0 0 30.6-61.601 37.3-100.101l9.7-80.1C1909 843 1874 670 1863.5 627zm55.1 6l3.9 88.7s10.399 8.101 33.399 78.7c0 0 4.101 41.1 4.601 62.1l6.199-19.6s2.301-31.4-2.199-52.4c0 0-8.801-122.5-45.9-157.5zM1080 287.5c88.5 86.5 78 101 78 101 18.3.2 14.5-15 14.5-15-6-13.5-35-43-35-43-30.5-39.5-58.301-45.3-58.301-45.3"/><path id="hl1" fill="#133667" d="M1072 660.5l-.5 6.5c1 19 7.5 84.5 7.5 84.5 49 36.5 75.699 49.601 75.699 49.601l.6 15.899-9.799 5.101c-16-7.5-70.701-50.3-70.701-50.3l-18.399-11.2 5.3-10.8L1051 660.6l21-.1zm-21 99.1s-67.5 39.3-78.5 83.6c0 0-3.9 46.7-3.101 63.8l4.601-4.5s4-19 17-34c0 0 9.8-23 19.1-32 0 0 28.9-39 40.9-48 0 0 9.5-12.9 0-28.9zM974 954s-6.4 42.801-4.7 68.4c0 0 4.5-49 59.1-62.4 0 0 1.9-11 5.2-23.699 0 0-16.5-3.7-32.3 13.3 0-.101-8.3 6.899-27.3 4.399zm470.6-276.5c139.1-27 245.199-16.5 245.199-16.5l-4.1-16.199c-22.8-8.301-235 8.5-235 8.5L1444.6 677.5z"/><path fill="none" stroke="#000" stroke-miterlimit="10" stroke-width="6" d="M932.5 296.5c104 74 201 90.5 201 90.5 35 9 19.5-16.5 19.5-16.5-12-16-62.5-71.5-62.5-71.5-21-21-7-16-7-16 138 49.5 219.5 58 219.5 58l52-8.5c119.5-31.5 274.5-6 274.5-6 113.5 11.5 191 69.5 191 69.5C1918 449.5 1967 586 1967 586c11 30.5 19 94 19 94 6 53-9.5 124.5-9.5 124.5-12 54.5-16.5 52-16.5 52 .5-18-3-51-3-51-3.5-21-27.5-78-27.5-78-6.5-18-7.5-2.5-7.5-2.5-8 149.5-29 226.5-29 226.5-8.5 26-34.5 79-34.5 79-8.5 19.5-13 12-13 12 3-32-2.5-141.5-2.5-141.5 0-27-5-15-5-15-11.5 23.5-26 65.5-26 65.5-14.5 34-16 20.5-16 20.5 5.5-33 12.5-191.5 12.5-191.5-1-32.5-21.5-94-21.5-94-14.5-47-13.5-21.5-13.5-21.5-13 71.5-57.5 166-57.5 166-18.5 41-14.5 8-14.5 8 13.5-93.5-15.801-194.3-15.801-194.3-11.5-49.5-39.3-86.5-39.3-86.5-35.8-41.8-61 9.3-61 9.3-11.5 27-20.5 65.801-20.5 65.801-21-42.5-41.3-63.5-41.3-63.5-17.801-25.5-33.5-8.801-33.5-8.801-19.5 18.301-39.5 92.301-39.5 92.301-7.5 21.8-23.5 102.3-23.5 102.3l-17 85.8c-5 33-10.5 12.5-10.5 12.5-3.301-15.3-15.5-69.5-15.5-69.5-2.301-15.5-13.301-103.5-13.301-103.5-3.8-26-9.3-.8-9.3-.8-6.7 12-27 98.3-27 98.3l-6.3 55c-1.3 17.3-21.7 145-21.7 145-1 12.3-5.3 7.7-5.3 7.7l-35-86.3c-7.7-24-8.7.3-8.7.3l-18.7 184.3c-1 12-4.3 10-4.3 10l-21.7-50.7L1171.3 904c-3.3-9.699-14-47.699-14-47.699v-12.7c-6.7-55.7 0-177 0-177L1055 660l-4.301-3.699c-22-22.7-119-74-119-74-11-8-2.699-7.7-2.699-7.7 23.299-1.7 98.699 7.3 98.699 7.3 23 2.7 5.7-10.3 5.7-10.3L949 482.301c-18.301-21.7-34.7-55-34.7-55-6.3-14 0-10 0-10 55.3 49.699 134 74 134 74 19.3 5 9.7-5.301 9.7-5.301-28-29-83-103-83-103-27-43-46-85.5-46-85.5-2.1-4.699 3.5-1 3.5-1zM1251 702.301c-6 84 8.6 187.5 8.6 187.5m581.4-6s20.6-86.101 24-158.101m59.3-6.899s3.3-57.101-12-114.5m-742-20.601c-8 16.7-13 83-13 83m0 0v189.7c0 12.7 12.6 43.3 12.6 43.3l-20.899 6c-54.7-26.7-73.301-18-73.301-18-19.3 2.7-30.699 22-30.699 22-16.7 19.3-11.301 47.3-11.301 47.3l-40 22.7c-14 8-18 31.3-18 31.3-9.3 22.7-10.699 6.7-10.699 6.7 2-38.7 6.699-72.7 6.699-72.7-8.7-104.699 7.3-120.699 7.3-120.699 20.699-32.7 67.3-61.301 67.3-61.301 16.7-12 15.3-13.3 15.3-13.3L1055 660l102.3 6.7zm208 11.5c-27.101 64.8-29.5 65.2-36.7 152.7h66.1c-.001 0-24.001-127.7-29.4-152.7zm47 152.7h290.3c8.9-72.8-16.8-186.1-16.8-186.1-63.9-11.601-235 8.5-235 8.5-8.4 27.501-38.5 177.6-38.5 177.6zm363.1-172.7s-31.7 122.101-59.399 172.8l90.1-.1 1.699-60.2c-.101-.1-20-96-32.4-112.5zm-720.3 98.2L1097 789s38.899 33.101 58.399 31.2M971 950.4c28.6 3.4 60-35.4 60-35.4 23.3-26.699 66-126 66-126"/></svg>