<svg xmlns="http://www.w3.org/2000/svg" id="hair" viewBox="0 0 3000 3000"><path id="cl1" fill="#FC9556" d="M1414 187s52 79 59 110c0 0 13 35-6 54 0 0-31 40-59 62 0 0-98 74-148 109 0 0-31.7 17-68.301 43.7 0 0-60.699 49.3-83.3 110 0 0-23.301 45.3-25.301 108 0 0 15 74.7 20.301 98.7 0 0-4 6 8.699 10l95.7 44s6.699 4 4.699-21.301c0 0-6.699-95.3-1.301-132 0 0 10-74 20.7-103.3 0 0 14.7-55.3 40.7-82.7 0 0 40.699-52 92-66 0 0 30.699-16 94-18.699 0 0 48-6.7 154.699 24.699 0 0 33.301 6.7 49.301-4 0 0 98-50 90.699-194.7 0 0-10-74-123.3-134.7 0 0-44.7-3.3-62.7-4 0 0-4.699 4.7-11.3 8.7 0 0 2 7.3-63.301-14.7L1480 202.4l-13.302 8.7s-24-4.7-48.3-26.7L1414 187z"/><path id="sd1" fill="#D9814A" d="M1122.9 641.167S1121.6 768.4 1170.3 785h21.3s4.7-269.3 238.7-292l-26.7-40.699s110.7 44.699 141.301 49.3c0 0 70.699 18 90.699 10.7 0 0 35.301-11.301 52.7-23.301l29.3-23.3s-33.3 69.3-79.3 70c0 0-46.7-4.7-75.3-15.3 0 0-118-34.7-202 8.699 0 0-74 24.101-111.301 102.7 0 0-30 35.899-38.699 151.3 0 0-7.301 65.4 0 151.7L1106.699 890s-27.486-70.402-24.385-122.501c0 .099-7.147-50.666 40.586-126.332z"/><path fill="none" stroke="#000" stroke-miterlimit="10" stroke-width="6" d="M1629.699 203.7C1743 264.3 1753 338.3 1753 338.3c7.3 144.7-90.7 194.7-90.7 194.7-16 10.7-49.3 4-49.3 4-106.7-31.3-154.7-24.699-154.7-24.699-63.3 2.699-94 18.699-94 18.699-51.3 14-92 66-92 66-26 27.301-40.7 82.7-40.7 82.7C1221 709 1211 783 1211 783c-5.301 36.7 1.3 132 1.3 132 2 25.301-4.7 21.301-4.7 21.301l-95.699-44c-12.699-4-8.699-10-8.699-10-5.301-24-20.397-73.509-20.301-98.7.198-51.767 9.116-82.745 20.301-108 24.698-55.767 88.3-110 88.3-110C1228.3 539 1242.71 528.636 1260 518c51.984-31.979 148-105 148-105 28-22 59-62 59-62 19-19 6-54 6-54-7-31-59-110-59-110m101 66s-30-61-47-83m121 83l-43-76"/></svg>