<svg xmlns="http://www.w3.org/2000/svg" id="hair" viewBox="0 0 3000 3000"><path id="cl1" fill="#F29847" d="M1126.3 227.7s19.3 161.3 27.3 179.3c0 0 7.3 12-6.7 7.3 0 0-150.7-32.699-180-35.3 0 0-2.7 1.3 11.3 13.3 0 0 154.5 132.001 177.301 142.001 0 0 11.3 6.699 0 8.699 0 0-169.301 46.7-210.601 66.7 0 0-5.3 4.7 12 8l124.7 29.3s13.3.7-.7 14.7L960.3 821s-4.7 6.7 10 2.7l116-29.3s13.3-2.7 5.3 7.3l-72 125.3s2 8 14.7-4.699c0 0 28.918-19.103 50-34l25.3-16 29.3 3.3 64 128.7 38.7-20-18.7-228 4.7-4.7 34.7 79.3s4.7 5.3 13.3-11.3l32-60.7s5.3-10 10 1.3L1347 817s6-.699 8.699-6.699L1412.4 699s6.7-14 10 .7l29.3 98s6 13.3 10-2l18-98.7s3.301-10.699 10.7 0l52 96.7s8 14 10.7-4l14.699-125.3s2.7-12 11.301-.7l90 120.7s12.699 14 8-4l-8.7-85.3s-.6-14.7 9.7-2l91.6 106.7s11.3 11.3 7.3-7.3l-14.699-84.7s-.7-14 10-2.7l84 95.3s8 13.3 11.3-2l6-10.7 3.3 2.7s4.7 58 7.3 84.7c0 0 6 25.3 8 44 0 0 2.7 16 7.301-3.3l24-178.7s-.7-12.7 14-.7l88.699 45.3s16 6.7 4-8l-78.699-106s-10-10 .699-12l46-10s14.7 0-.699-8l-59.301-26s-8-3.3 2-7.3l82.7-32.7s12.7-6-4.7-11.3l-152.699-60s-15.301-4 .699-9.3l62.7-33.3s15.3-8-6.7-6l-56 2.7s-15.3 0-.699-7.301l63.3-49.3s13.3-12-6.7-6.7L1815 405.7s-12 2.7-6.7-10.7l46.7-114s12-25.3 18.699-40.7c0 0 12-20.699-15.3.7l-130.7 91.3s-7.3 12-12-14l-42-102s-1.3-22.699-11.3 0l-40.7 102S1615 337 1607 317.601l-82.7-118s-2.7-14.7-9.3 0c0 0-28 88-31.301 111.3 0 0-3.3 17.3-13.3-.7 0 0-94.7-119.3-99.3-136.7 0 0-2.7-15.3-11.301 3.3-8.6 18.601-52 134.7-60.699 181.301 0 0 .699 12.699-17.301-4.7l-146-122c-.099.298-10.298-10.202-9.498-3.702z"/><path id="sd1" fill="#F37024" d="M1129.6 224.5c20.6 56 103.9 218.5 103.9 218.5 7.5 12.5 4.5 12.5 4.5 12.5-19.5-3.5-79.7-41.8-79.7-41.8-16-56.7-28.8-187.2-28.8-187.2m235.5-57.8s-46.5 100.8-64 191.8l56.5 66s-9-195 10.5-252l-3-5.8zm507 66.8s-96.5 175-105.5 186.5c0 0 16.5 4 39-15 0 0-3.5-4.5 3-19 0 0 55.5-135 63.5-152.5zm51.699 161.8s-62.699 40.7-78 52.7c0 0-28.3 21-34.699 21.7l13.3-2.3s24.7-5.3 34.3-12c0 0-5.7-4.3-1-9.3l66.099-50.8zM2027 568.301l-8.7-3.301s-104 21.7-121.3 24.301L1932.699 607s.7-2 12.301-6.3l82-32.399zM1992.699 644l-90-6 41.7 19 48.3-13zm-69 84c-.699-5.399 96.7 46.7 96.7 46.7l-99.3-80 2.6 33.3zm-19.399 69.7l-4.3-53.3-19 46 6.3 75.7c3.7 24.3 9 53.7 9 53.7l16.3-125-8.3 2.9zm-60.3-16s-43-70-104.301-158c0 0-1.699-.7-2.699 9 0 0-4.301 31.7-7.301 41.7 0 0-28.3-23-36.3-34.7 0 0-3.7-4-12-11.7 0 0-6.7-3.699-12.3-18.3v44h-2.7l-47.7-88.7s3 71 2 84l-62-90-2.3 98-25.7-44.699-4.3 41-14.7-39L1498.4 678l-14-37.699s-12.3 36.3-20.3 62l-6.301-64.7-23.3 54-7-28-19 23-3-11L1378 718s0-11.3 6-55.3l-66 69 2.3-32.3-37.7 44.7s10.7-38.7 13.3-48l-44 45.3s10.7-35 14.3-45l-26 27.7-7.3-7.3V691l-49.3 45.7L1204 677s-96 67.301-103.301 73.7c0 0 12.7-26.7 17.301-35 0 0-98 65-154.301 106.7L1090 791s9 1.7 4.3 12L1023 926.301l11-6.7s13.447-5.93 52.3-34.7l23.3-12.3 20.3 2 10.3 1.3 62.301 123.3 25-12.3-4.7-19-16.7-15 1-40.7H1196l8.699-48.7L1197 809l32-63.699L1266.9 831l39.4-74.699s7.7-10.301 13 .699l30.5 59.101 62.8-122.5s8.3-6.7 11.7 1.3l33 104.7 21-103.3s4.7-13.7 13.3-1l56.7 101.3 18.3-137s3.7-7.7 10.7-.3L1674.6 789s3.4-12-7.3-94.3c0 0-.3-15.3 9.3-5l97.8 113.2.8-5.2-14.7-91.7s.3-12.699 10.3-4l73.2 79.7zM967.1 380.6c19.4 16.3 88.9 73.1 88.9 73.1l107 85.3c38.699 7.7 75.6 5 75.6 5-78.7-19.3-140.6-62.3-140.6-62.3-14.7-4.3-122.301-100-122.301-100l-8.599-1.1zm323.2 98.701l10.7 38.3-75.301 10.7L1322 544.4l18.3 37.9 4.7-51.5 95.699-19.5H1342c0 .001-26-14.3-51.7-31.999z"/><path id="hl1" fill="#F3E9B7" d="M975.699 381.7s146.301 28.7 166.5 31.6l12.4 1.5 37.8 50.201-216.7-83.301zm184-43.4v9.301l28.7 50.699V385s12.8 14.9 21.3 21.3c0 0-14-23.3-21.3-40.699 0 0 37.3 15.3 79.3 54.699 0 0-34.699-39.3-45.3-62.699 0 0 52.7 33.3 69.3 37.3 0 0-29.3-29.3-40-43.3 0 0 44.7 25.3 58.7 34.699 0 0-34.7-32-53.3-43.3l-61.301-35.3s-1.3 4.7 6 13.3l18.7 26.7-30.7-14 12 15.3-26-13.3 13.301 16.7-29.4-14.1zM1375.6 182.9s32.7 87.399 119.7 212.8l-18.301-74c.001 0-56.8-67.6-101.399-138.8zm143.599 10.6S1577 313 1626.399 381.601c0 0-2.7-36.101-10-55.7l-97.2-132.401zM1721.8 334.4s-4.8 15.899-14.101 32.6c0 0 150-117.7 164.301-131.5l-150.2 98.9zM1836 498.7c-9.301.7-44.7-28-44.7-28 4 10.7 11 32.3 11 32.3 2 7.7-1.3 5-1.3 5-39-41.699-48.301-39.3-48.301-39.3 4.7 9.3 13 31 13 31L1736 473c-17-15.3-20.301-11-20.301-11 4 6.301 10.7 25.301 10.7 25.301 4 13.699 1 19.699 1 19.699-5.7-4.3-8.3-10.3-8.3-10.3-13.301-28.3-23-31.7-23-31.7l-.7 8.7c4.3 12.7 9 40 9 40 .7 13.3 0 24 0 24-6.3-1.7-11-16-11-16-23.2-39.3-27.7-39.3-27.7-39.3 2 11 1.301 53.3 1.301 53.3-2.301 19.3-8 22.2-8 22.2-4.7-1.8-5.7-9.2-5.7-9.2-3-3.7-10.3-54.3-10.3-54.3l-2-2c-4.301 15-1.301 63.7-1.301 63.7-6.3-10.3-29.3-27.3-29.3-27.3 36.3 47.7 53.7 113.7 53.7 113.7-4.301-40.301 3-52 3-52l36.199 60.5c-19.8-54.2-8.899-77.101-8.899-77.101 14 16.7 26 40.7 26 40.7-8-24-12.7-57.3-12.7-57.3 14.7 1.3 23.3 27 23.3 27 16 23 15.301 11 15.301 11-11.301-17.3-15.301-42.7-15.301-42.7 32.7 33.3 38 31.7 38 31.7-10.699-21-12-37-12-37 42 42 48 37 48 37-10-8.3-21.3-31-21.3-31-5.3-14 0-17.3 0-17.3 22.7 9.3 60 33.3 60 33.3-24.7-18-26.7-44.7-26.7-44.7 24 4.7 93.301 52.7 93.301 52.7-18.101-27.9-98.7-112-98.7-112L1836 498.7zm-302.301 95c-8.3-17.3-20-50.7-20-50.7C1508 574 1500 586 1500 586l-18.7-32c-1.7-11.699-4-7.699-4-7.699-3.7 10.699-12 34-12 34l2.7-22c2-11.7-6-4.7-6-4.7-11.7 16.7-44.7 52-44.7 52l3.3-39.3-24.7 35c-19.7 24.699-15.3 6-15.3 6 5.3-12.301 22.3-37.7 22.3-37.7-19 19.3-43.3 40.3-56.7 50-13.399 9.7-10.3 5-10.3 5 19.7-28 21-34.3 21-34.3-9.3 3-42 35-42 35-15 14.3-22.3 14-22.3 14-1.7-6 0-10.301 0-10.301 8.7-14.699 9.3-20.699 9.3-20.699-10 5.3-50.3 37.699-50.3 37.699-19 14.301-12.7 1.301-12.7 1.301 5.3-11 13.3-23.301 13.3-23.301-8.699 3.7-64.699 41-64.699 41-28.7 18.301-1.7-10.399-1.7-10.399 20.3-22.101-25.7 7.8-25.7 7.8-10.699 9-30.699 16.7-30.699 16.7-12.7 4.3-10 .3-10 .3l10.3-13c-12.7 9.7-66.7 75.3-66.7 75.3-17.7 20.3-10.7 18.101-10.7 18.101 30.9-29.601 91.4-65.101 91.4-65.101-9 7.3-36.9 42.7-36.9 42.7-5.6 11.5 0 8.5 0 8.5 11.101-7.6 58.9-48.1 58.9-48.1 24.899-23.7 49.3-30 49.3-30L1201 702c27.3-29 49-43.3 49-43.3-7 11.3-10 55.3-10 55.3 18.4-34.6 42.3-56.3 42.3-56.3.301 8.3-6 46-6 46 38.301-46 46.301-46.399 46.301-46.399l-19 41c-3.7 9.699 2.699 3.3 2.699 3.3 24.7-33 46-53.3 46-53.3C1351 659 1336.601 693 1336.601 693c40.699-57 58.3-50.3 58.3-50.3 0 12-2.3 42.7-2.3 42.7 15-52 25.3-64.3 25.3-64.3l-.7 9.3c-3.7 9.3-6.7 37.7-6.7 37.7h3c8.7-25.7 18-32.3 18-32.3 3.7 8 4 29.3 4 29.3l2.7-1.3c1-30.7 9.7-41 9.7-41 3.3-11 10.3-10.3 10.3-10.3 5 11.699 8.3 38.5 8.3 38.5h3c.7-26.9 14-41.801 14-41.801l10.301 38.7c4.3 14.3 6 6.3 6 6.3 3.399-54.699 11.699-50 11.699-50 6.301 12.7 12.7 36 12.7 36 1.3-11.3 4-40 4-40 5.7 16.301 20.3 36.7 20.3 36.7v-87.3c-7.802 19.401-14.802 44.101-14.802 44.101zm-398-20.399c-8.3 7.699-68 29-68 29l.301 3.3 72.3-4.3c-13.3 4-46 27.699-46 27.699h11c41.7-7.3 153.3-53.699 153.3-53.699-60.3-9-119.3 8.699-119.3 8.699 42.3-15.3 83.7-38 83.7-38-27.301-1-116.301 14.7-116.301 14.7-40 6.3-90.3 27-90.3 27 21.901-1.399 119.3-14.399 119.3-14.399z"/><path fill="none" stroke="#000" stroke-miterlimit="10" stroke-width="6" d="M1135.699 231.7l146 122c18 17.3 17.301 4.7 17.301 4.7 8.699-46.7 52-162.7 60.699-181.3 8.7-18.601 11.301-3.3 11.301-3.3 4.699 17.3 99.3 136.699 99.3 136.699 10 18 13.3.7 13.3.7 3.3-23.3 31.3-111.3 31.3-111.3 6.7-14.7 9.3 0 9.3 0l82.7 118c8 19.3 14.7.7 14.7.7l40.7-102c10-22.7 11.3 0 11.3 0l42 102c4.7 26 12 14 12 14l130.7-91.3c27.3-21.301 15.3-.7 15.3-.7C1867 255.7 1855 281 1855 281l-46.7 114c-5.3 13.3 6.7 10.7 6.7 10.7l107.3-14.7c20-5.3 6.7 6.7 6.7 6.7l-63.301 49.3c-14.699 7.301.7 7.301.7 7.301l56-2.7c22-2 6.7 6 6.7 6l-62.7 33.3c-16 5.3-.7 9.3-.7 9.3l152.7 60c17.3 5.3 4.7 11.3 4.7 11.3l-82.7 32.7c-10 4-2 7.3-2 7.3l59.3 26c15.301 8 .7 8 .7 8l-46 10c-10.7 2-.7 12-.7 12l78.7 106c12 14.7-4 8-4 8l-88.7-45.3c-14.699-12-14 .7-14 .7l-24 178.7c-4.699 19.3-7.3 3.3-7.3 3.3-2-18.7-8-44-8-44-2.7-26.7-7.3-84.7-7.3-84.7l-3.301-2.7-6 10.7c-3.3 15.3-11.3 2-11.3 2l-84-95.3c-10.7-11.3-10 2.7-10 2.7l14.7 84.7c4 18.699-7.3 7.3-7.3 7.3L1678 693c-10.301-12.699-9.7 2-9.7 2l8.7 85.301c4.699 18-8 4-8 4l-90-120.7c-8.7-11.3-11.301.7-11.301.7L1553 789.7c-2.7 18-10.7 4-10.7 4l-52-96.7c-7.3-10.699-10.7 0-10.7 0l-18 98.7c-4 15.3-10 2-10 2l-29.3-98c-3.3-14.7-10-.7-10-.7l-56.7 111.301c-2.7 6-8.7 6.699-8.7 6.699l-29.3-56.699c-4.7-11.301-10-1.301-10-1.301l-32 60.7c-8.7 16.7-13.3 11.3-13.3 11.3l-34.7-79.3-4.7 4.7 18.7 228-38.7 20-64-128.7-29.3-3.3-75.3 50c-12.7 12.7-14.7 4.7-14.7 4.7l72-125.3c8-10-5.3-7.3-5.3-7.3l-116 29.3c-14.7 4-10-2.7-10-2.7L1081 661.7c14-14 .699-14.7.699-14.7L957 617.7c-17.301-3.3-12-8-12-8 41.3-20 210.6-66.7 210.6-66.7 11.3-2 0-8.699 0-8.699-22.7-10-177.3-142.001-177.3-142.001-14-12-11.3-13.3-11.3-13.3 29.3 2.7 180 35.3 180 35.3 14 4.7 6.699-7.3 6.699-7.3-8-18-27.3-179.3-27.3-179.3-.899-6.5 9.3 4 9.3 4zm-.099 643.601S1120 820 1114.5 808m41-102l3.5 150s-3.5 42 9.5 0l68-137.5m666 4.5l-28.801 64.7"/></svg>