<svg xmlns="http://www.w3.org/2000/svg" id="hair" viewBox="0 0 3000 3000"><path id="cl1" fill="#012127" d="M1285 422s-141 65-225 247c0 0-59 130 20 282 0 0 75-47 132 34 0 0 8 12 4-13 0 0-10-45-7-101 0 0 6-22 8 20 0 0 23 141 56 192 0 0 20 22 4-14 0 0-10-39-9-77 0 0 2-13 10 10 0 0 13 30 33 48 0 0-22-96-12-160 0 0 3-17 12 2 0 0 51 112 73 135 0 0 38 22 29-13 0 0-12-61 2.5-164 0 0 3.5-24 15.5 1l51 79s35 16.7 25-9l-63.3-165.2s2.3-14.8 11.7 1.5l86.699 80.3s6.7.301-1.699-20.3c0 0-16-81.3 8.3-146 0 0-.3-9.7 27.7 9.7 0 0 70 43 109.699 11.7l55.7-36.3s-13.7-6.7-5.3 25.3c0 0 34 107.3 39.3 168 0 0 1.3 27.7 8.7-3.7 0 0 16.699-63 17.3-83.3 0 0 3-13 8.3 2 0 0 15 73.7 15.301 138 0 0-2 22 11.699-3.7l46.7-82.7s10-4.7 0 11c0 0-1.7 24.7-2 40.7 0 0-5.3 43.7-20 83 0 0-1 12.7 9.3-1 0 0-6.699-35 13-86 0 0 6.301-7 7 2.7 0 0 3.301 45-13.699 81 0 0-3 8 11.3-6.3 0 0 36-19 50.3-124 0 0 3-13.301 8 1.3l6.3 35s3 14.3 7.3-8c0 0 9.301-49.3 9-110.3 0 0 2.7-65.7-11.3-113.7 0 0-4-49-78-119.3 0 0-44.3-60.3-114-88.7 0 0-50.3-35.3-128.3-22.7l-17.7-6-142.7-2.7s-81.699 2.3-94.3 7.3c0 .1-74.6 14.1-98.3 32.4z"/><path id="sd1" fill="#01161A" d="M1070.5 844c7-60.9 42-106 42-106-5.5 17.5 1.5 28 1.5 28 7 22.5 9.5 96.5 9.5 96.5 5.5-62 24.5-105 24.5-105-3 13-2 56.5-2 56.5 2 22 9 59.7 9 59.7-.5-34.8 34-90.7 34-90.7 26.5-37.5 35-34.5 35-34.5-9.5 10.5-10.5 23.5-10.5 23.5-3 17 .5 76.5.5 76.5 8-48.5 27-87 27-87-1.5 13.5 1.5 17.5 1.5 17.5l7.5 61c36.1-120.4 62-131.5 62-131.5l1 13c-7 27-6.5 97.5-6.5 97.5 18.5-66.5 55-109.5 55-109.5l1 92.5c17.5-103.5 93.5-144.5 93.5-144.5-7 16.5-5 39-5 39l2.5 52.5c-9-10-11.5 1.5-11.5 1.5l66.4 174.2c5.3 18.6-.801 10.1-.801 10.1-17.399-26.2-79.1-88.6-79.1-88.6-10.2-16.7-10.4-4.101-10.4-4.101C1408.6 876.8 1405 971 1405 971c-.5 23 9.3 62.4 9.3 62.4-34.7-29.1-106.2-146.6-106.2-146.6-6.6-13.2-10.6 0-10.6 0C1287 996.9 1311 1050 1311 1050c-18-20-38.1-59.5-38.1-59.5l-4.4-.6c-4.9 35.5 8.4 79 8.4 79 5 25 .5 20.699.5 20.699-38-55.3-61-206.899-61-206.899-2.9-22-5.2-16.9-5.2-16.9-8.7 31.8 3.2 116.2 3.2 116.2-70-78.5-131.9-32.5-131.9-32.5-35.4-63.5-40.1-154.5-40.1-154.5-2-33 15.5-111.5 15.5-111.5l12.6 160.5zm522-456s-35 8.5-50.5 12c0 0 36.5 3 46 12 0 0 40 7.5 50.5 9.5 0 0-71.5 1-103.5 18.5 0 0-61 16.5-78 21.5 0 0 145.5-13 163-10 0 0-25 0-44 4 0 0-104.5 30.5-123.5 54 0 0 97-21 128.5-16 0 0-112 25-137.5 43 0 0 75.5-23 134 0 0 0-38 13.5-53.5 28l-53 19.5s67-26 99-28c0 0 39.5 9.5 56 45 0 0 8 4 9.5 14 0 0 0-31 17-53l10.5-11.5s5.5-2 82.5 21.5c0 0-23-43.5-50-54.5l-20.5-6s21.5-11 43-10c0 0-21-12.5-43-18 0 0 13-8 31.5-10.5 0 0 8-4 31.5 2l-43.5-26.5s8-4.5 31.5-6c0 0-6.5-5-21-12.5 0 0-56.5-13-71.5-16.5 0 0 52-6.5 85.5-3 0 0-13-11.4-21.5-22.2l-66 4.2s-25-7.9-39-4.5zm-55 232s-2.5 16-8.5 26.5c0 0-25 84.5 8.5 172.5 0 0-17.5-81.5 10.5-153l5-.5s58.4 17.3 71.5 27c0 0 28 18.5 57.5-1.5l59.5-37.5s-16-7-4 22.5c0 0 40.4 129.4 43 182.7l10.5-50.2s-16-67-31.5-94.5l-18-84s-6-23-22.5-26.5c0 0-16 2-27.5 17L1633 663l-11.5 1s-44.5-21.5-57.5-34c0 0-9.5-9.5-26.5-10zm273.5 85s-3.5 2.5-3.5 15v34.5s19.5 11.1 18 154.3l8.3-4.2V795s-1.8-54.5-22.8-90zm68 84.5l10.5 22.5-5.8 15.3v41.2s-12.9 66.7-21 87.4l18.2-20.9s.699-56.5 1.699-83.5c-.099 0 3.901-44.5-3.599-62zm23 24s-2.5-2-4.5 14l-8.5 31.2s13.2 27.8-10.7 86.8c0 0 5.4-1.6 20-12.8 0 0 9.601-34.2 11.101-56.2l-7.401-63zm38-82.4s-5 12.9-4 27.4c0 0-.1 38.8 1.9 54.9h9.6s8.7 32.699 10.1 43.1l4.9-39.5s-14.5-75.3-22.5-85.9z"/><path fill="none" stroke="#000" stroke-miterlimit="10" stroke-width="6" d="M1285 422s-141 65-225 247c0 0-59 130 20 282 0 0 75-47 132 34 0 0 8 12 4-13 0 0-10-45-7-101 0 0 6-22 8 20 0 0 23 141 56 192 0 0 20 22 4-14 0 0-10-39-9-77 0 0 2-13 10 10 0 0 13 30 33 48 0 0-22-96-12-160 0 0 3-17 12 2 0 0 51 112 73 135 0 0 38 22 29-13 0 0-12-61 2.5-164 0 0 3.5-24 15.5 1l51 79s35 16.7 25-9l-63.3-165.2s2.3-14.8 11.7 1.5l86.699 80.3s6.7.301-1.699-20.3c0 0-16-81.3 8.3-146 0 0-.3-9.7 27.7 9.7 0 0 70 43 109.699 11.7l55.7-36.3s-13.7-6.7-5.3 25.3c0 0 34 107.3 39.3 168 0 0 1.3 27.7 8.7-3.7 0 0 16.699-63 17.3-83.3 0 0 3-13 8.3 2 0 0 15 73.7 15.301 138 0 0-2 22 11.699-3.7l46.7-82.7s10-4.7 0 11c0 0-1.7 24.7-2 40.7 0 0-5.3 43.7-20 83 0 0-1 12.7 9.3-1 0 0-6.699-35 13-86 0 0 6.301-7 7 2.7 0 0 3.301 45-13.699 81 0 0-3 8 11.3-6.3 0 0 36-19 50.3-124 0 0 3-13.301 8 1.3l6.3 35s3 14.3 7.3-8c0 0 9.301-49.3 9-110.3 0 0 2.7-65.7-11.3-113.7 0 0-4-49-78-119.3 0 0-44.3-60.3-114-88.7 0 0-50.3-35.3-128.3-22.7l-17.7-6-142.7-2.7s-81.699 2.3-94.3 7.3c0 .1-74.6 14.1-98.3 32.4z"/></svg>