<svg xmlns="http://www.w3.org/2000/svg" id="hair" viewBox="0 0 3000 3000"><path id="cl1" fill="#4C4A58" d="M1208 394s-53 25-88 64c0 0-81 72-176 276 0 0-7 13 26-8l41-25.699 49.3-32s12.7-2-13.3 15.3l-31.301 20.7s-20 12.699-25.3 74.699c0 0-4.7 30 8 59.301 0 0 20 64.699 16 96.699 0 0-1.301 20.7 8 0l7.3-12 9.301-16.699 4.699 18.699s1.302 30.839 6.928 41.066c21.873 39.767 32.873 63.101 32.873 63.101s5 15.667 13.872 38.571c0 0 22.324 33.997 28.925 50.298l56.87 44.729s-52.033-84.232-45.333-94.932l45.261 48.782 31.59 29.814 57.816 17.072s-99.617-117.981-97.617-138.68l-4.339-37.955-.744-54.765s20 96.699 108.7 153.3c0 0 17.3 12 3.3-12.7 0 0-23.3-57.3-18-110 0 0-5.3-59.3 116.7-198.699l15.3-19.301s16.7-16 6 10.7l-19.3 60.7s-8 25.3 10.698.7l118-162.7s11-13.3 13.5 16.7c0 0 29 145.5 30.5 188.5 0 0 18.5 143.5 25.5 176 0 0 2.5 10.5 10.5-7 0 0 59.302-73.5 94-187.5 0 0 50-128 59.302-184 0 0-4-8 10-2.7 0 0 63.3 32.7 96.698 144 0 0 33.302 99.3-10 218 0 0-6.698 14.7 8-2l9.302-8s3.3-6.7 8.698 4.7l12.7 18s9.3 11.3 7.3-10.7c0 0 4-46 18.7-67.3 0 0 20.7-33.302 29.3-57.302l8-16.698s2-6 5.302 5.3L1959 931s4.699 21.301 9.3-8l12-82.699s2-9.301 10 3.3c0 0 28 39.301 10-6.699 0 0-2.7-2-5.3-27.301 0 0-4-55.3-23.301-121.3 0 0-8.699-10.7 13.301 0 0 0 59.3 29.3 99.3 38.699 0 0 16.7 2.7-20.7-22.699 0 0-24-10-50-44.7 0 0-32.699-48.699-96.699-118.699 0 0-84-96.7-180.699-140.7 0 0-97.2-61.3-220.601-30 0 0-29.399-5.3-52.7-17.3C1463 353 1325.699 333.7 1208 394z"/><path id="sd1" fill="#2F2D38" d="M1064.5 675.5s-58 83-70.5 97.5c0 0 1.6-47.899 19.8-67.1l50.7-30.4zM1083 715s-47.5 63-50 129c0 0-10 63-16 83.7V941s19.699-50 23.3-67.3c0 0 24-89.7 26.7-109.7 0 0 10-39.699 16-49zm12.3 98.7c-5.3 10.7-24.3 101.8-24.3 101.8-32.833 114.333 106.414 243.19 106.414 243.19l-39.58-90.856 36.545 43.842 36.993 31.628 59.128 19.462C1139.834 1032.167 1155.3 926 1155.3 926c-1-70 38.7-185.3 38.7-185.3-42 94.7-76.301 138.3-76.301 138.3l50-159 12.7-29 43-99.699c15.699-34.301 22.699-68.7 22.699-68.7-3 .301-33.3 54-33.3 54L1147 690.301l-65.7 121C1073.3 824 1048 875 1048 875c37-56 47.3-61.3 47.3-61.3zm205-108.399s-33.7 30.699-49.3 52.3c0 .099 40.699-42.3 49.3-52.3zm-55.601 60s-56.699 61-70 127.3l-16.3 34.301s11.699 0 14.699 8.3c0 0 22.801 100.399 113.899 152.199 0 0-42.3-54.8-22.3-146.199 0 0 9.699-39 35.699-77.699l29.301-45.7s57.3-68 68.3-78.3c0 0 12.7-9.7 8.7 7.3l3-5 28-87.7s-25.301 23.3-43 44.7c0 0-51.301 56-83.7 107 0 0-35.3 50.3-51.3 94.7 0 0-5.301-18.7-8.7-43 0 0-20.899 91.1-27.699 131 0 0-17.7-37.7-26.7-55 0 0-2.3-14.7-6.699-28.7.101.197-4.599-51.103 54.8-139.502zM1383.3 825L1514 650.7c4.699-6.3 10 3.7 10 3.7 4 19 28.3 145 28.3 145 4 17.699 9.7 87.699 9.7 87.699 2.699 27.301 19.5 150.7 19.5 150.7C1616.4 997.1 1656 906 1656 906c-9.4 10-61.7 85.301-61.7 85.301-1.3-16.301.7-56.7.7-56.7 4.699-22.3 11.699-49 11.699-49 13-18.699 34-84 34-84 16.301-39 22-111.699 22-111.699 3.7-20 3.301-46 3.301-46l-7 35c-7 60.5-72 186.3-72 186.3L1522 610c-1.301-4-2-10.699-2-10.699l-132.301 211.3L1383.3 825zM1491 393.7s-106.7 85.3-104 205.7c0 0 41.3-142.301 133-217.7l-29 12zm168 48.601s59.8 36.899 85.6 210.8c0 0 36.4-10.101 104.4 127.899 0 0-32-114-61.301-156 0 0-42-73.3-56-100.699 0 0-43.399-70-72.699-82zm206 122s68 97.3 100 118l8-2.7s76.699 36 114.699 44.601c0 0-103.399-54-114.699-66 0 .099-97.301-77.901-108-93.901zM1949 745s-2.7 11.301-3.301 18.7c0 0-.699 86.3-8.699 115.3h12l10.699 40S1954.3 774.301 1949 745zm-22.7 103.301s-19.3 92.699-64 152c0 0 5.7 5.399 20.8 31.399 0 0 10.301-73.899 32.4-97.7.1.1.8-59 10.8-85.699zM1653.699 363s37.301 8 58.7 18.7c0 0 106.699-49.3 129.3-80.7 0 0-82 50.7-188 62z"/><path id="hl1" fill="#7A778B" d="M1056.5 542.5s25.5-4.5 42 0c0 0 4.5 1.5 14.5-2 0 0 12-1.699 26 1.2 0 0 25.5-1 39 1.2 0 0 12 3.699 16 5.199 0 0-12 4-32.5 4 0 0-26.5 13.5-46 17.5 0 0-10 3.5-21.5 0 0 0-30.5 0-61.5 9 0-.099 14-25.599 24-36.099zm186.8 12l28-12.3h7l16.3-9h8.801l7.301-6.3 8.5.5c8.5 4.5 18.5 3.5 18.5 3.5l19-7.301 22.3-.3c2.801 1.8 10.5 8 10.5 8l6.301-.3 4-12.5V506h-8c-5.5 0-21.5 7.801-21.5 7.801H1348c-7.301 1.5-24.801 10.8-24.801 10.8h-3.5c2-8.3-34-2.3-34-2.3-15.3 1.8-30.8 10.8-30.8 10.8-6.899 7.2-11.599 21.399-11.599 21.399zm221.2-35.1v-2.1l-15.801 4.3 15.801-2.2zm6-1.099l19.5-1c12.5 3.8 29 4.3 29 4.3 39.8 5.2 58.3 2.801 58.3 2.801 16-4 32.5-1 32.5-1l29.8 3.8c14.301 1 34.301 10 34.301 10 6.5 5 26 4.5 26 4.5l6.5 1.301c10.301 2.5 14.101 4.1 14.101 4.1l-5.2-14.899c-8.6-2.399-17.1-8.601-17.1-8.601-7.801-2.3-18.5-3.899-18.5-3.899h-23l-10.301-3.601-14.5-.3-12-3.8c-8-1.5-47.301-2.5-47.301-2.5-4.3 2-20.3 4-20.3 4-11.5 1.5-57 0-57 0-12 3-24.8 4-24.8 4v.798zm311 13s0-1.301-1.5 5.5c0 0-.5 4.899 4.5 10.101 0 0 5.3.199 9.8 5.199 0 0 25.3-2 34 0 0 0 4 1.5 10.5 2.801 0 0 11 3 17 8 0 0 18.3 2.3 26.5 1.8 0 0 7.8-1.5 13.3-3.8 0 0 14.301-1.5 21.301.8l15.301 1-13.301-14.601s-20.5-4.399-32.801-4.601c0 0-10.3-.5-20-4l-46.3-.3s-15.3-3.3-22.3-6.8l-16-1.099z"/><path fill="none" stroke="#000" stroke-miterlimit="10" stroke-width="6" d="M1208 394s-53 25-88 64c0 0-81 72-176 276 0 0-7 13 26-8l41-25.699 49.3-32s12.7-2-13.3 15.3l-31.301 20.7s-20 12.699-25.3 74.699c0 0-4.7 30 8 59.301 0 0 20 64.699 16 96.699 0 0-1.301 20.7 8 0l7.3-12 9.301-16.699 2.699 18.699 10 46s16.816 25.506 20.801 34.833c4.621 10.817 5.423 19.292 16.667 44 7.209 15.842 21.481 47.663 31.667 62 10.529 14.82 62.333 50.933 62.333 50.933s-8-15.395-23.333-42.932l-22-52 33 40.667 38.807 34.76s23.959 15.725 60.859 19.506c0 0-69.497-70.375-93.333-130.266-9.307-23.383-7.367-100.398-7.367-100.398s20 96.699 108.7 153.3c0 0 17.3 12 3.3-12.7 0 0-23.3-57.3-18-110 0 0-5.3-59.3 116.7-198.699l15.3-19.301s16.7-16 6 10.7l-19.3 60.7s-8 25.3 10.698.7l118-162.7s11-13.3 13.5 16.7c0 0 29 145.5 30.5 188.5 0 0 18.5 143.5 25.5 176 0 0 2.5 10.5 10.5-7 0 0 59.302-73.5 94-187.5 0 0 50-128 59.302-184 0 0-4-8 10-2.7 0 0 63.3 32.7 96.698 144 0 0 33.302 99.3-10 218 0 0-6.698 14.7 8-2l9.302-8s3.3-6.7 8.698 4.7l12.7 18s9.3 11.3 7.3-10.7c0 0 4-46 18.7-67.3 0 0 20.7-33.302 29.3-57.302l8-16.698s2-6 5.302 5.3L1959 931s4.699 21.301 9.3-8l12-82.699s2-9.301 10 3.3c0 0 28 39.301 10-6.699 0 0-2.7-2-5.3-27.301 0 0-4-55.3-23.301-121.3 0 0-8.699-10.7 13.301 0 0 0 59.3 29.3 99.3 38.699 0 0 16.7 2.7-20.7-22.699 0 0-24-10-50-44.7 0 0-32.699-48.699-96.699-118.699 0 0-84-96.7-180.699-140.7 0 0-97.2-61.3-220.601-30 0 0-29.399-5.3-52.7-17.3C1463 353 1325.699 333.7 1208 394z"/></svg>