<svg xmlns="http://www.w3.org/2000/svg" id="hair" viewBox="0 0 3000 3000"><path id="cl1" fill="#3E3633" d="M1262.55 593.216c-20.549 53.284 15.055 99.405 15.055 99.405C1296 725 1353.5 756.5 1353.5 756.5c-4.3 17-7.892 17.827-7.892 17.827-15.301 34.3-12.949 25.8-12.949 25.8C1308.5 820.5 1291 854.5 1291 854.5c8 20.3 7.472 49.502 7.472 49.502-16.773 19.188-31.172 27.798-31.172 27.798-27.7 21.7-38.7 51.3-38.7 51.3-7 16-3 63.301-3 63.301-6.699-5-15.3-21.7-15.3-21.7-9-19.3-19-39.3-19-39.3-10.7-14.7-21.3-20.7-21.3-20.7-42.301-17.3-63.7-36-63.7-36-12.3-33.95-19.3-131.3-19.3-131.3 5.699-63.7 20-100.7 20-100.7 49.3-98.199 81.699-122 81.699-122 68.7-59.3 124.769-65.276 124.769-65.276l-50.918 83.791zm119.75-19.915c94.867-31.467 234.3-78 234.3-78L1555 483c-131.5 16.167-172.7 90.301-172.7 90.301zm79 73c74.988-11.435 325.7-58.7 325.7-58.7-10.301-14.3-52-42-52-42-132.301-12.3-273.7 100.7-273.7 100.7z"/><path id="sd1" fill="#342D2A" d="M1117.6 676.2S1146 751 1203 749c0 0-49.301 81.801 90 158.301 0 0-28.5 21.3-41.301 36 0 0-14.601 8.601-27.8 45.5 0 0-3.801 28.8-1 51.8 0 0-14.301-21.8-29.801-56.3 0 0-8.5-19.801-30.5-25.301 0 0-36.8-15.8-54.3-33.8 0 0-23.5-38.8-19.5-132.8.202.1 3.401-72.4 28.802-116.2zm466.2-184.5c-80 15-201.3 83.133-201.3 83.133 49-11 231.976-78.192 231.976-78.192-5.8-2.799-30.676-4.941-30.676-4.941zm-87.601 136.5l-29.177 17.477C1529.834 645.5 1787 587.6 1787 587.6c-1.601-2.399-13.301-9.601-13.301-9.601-169 11.701-277.5 50.201-277.5 50.201z"/><path fill="none" stroke="#000" stroke-miterlimit="10" stroke-width="6" d="M1259 605c-7.5 47.5 10.014 74.088 22 93 22.5 35.5 72.5 58.5 72.5 58.5-15.301 34.3-17.985 42.396-24.933 47.73C1309.293 819.027 1291 854.5 1291 854.5c8 20.3 7.472 49.502 7.472 49.502-12.869 15.584-31.172 27.798-31.172 27.798-27.7 21.7-38.7 51.3-38.7 51.3-7 16-3 63.301-3 63.301-6.699-5-15.3-21.7-15.3-21.7-9-19.3-13.85-29.679-19-39.3-7.682-14.352-16.466-19.9-27.3-24.7-41.784-18.513-57.7-34-57.7-34-14-33-18.859-96.622-18.3-129.3 1.095-63.945 19-100.7 19-100.7 29.5-70.2 57.011-100.133 81.699-122 67.937-60.173 125.597-65.383 125.597-65.383S1263.309 577.71 1259 605zm123.3-31.699c2.2 2.533 227.867-70.801 234.3-78C1619.928 491.576 1555 483 1555 483c-120.48 16.5-174.9 87.768-172.7 90.301zm79 73c4.2.866 324.866-51.6 325.7-58.7s-39.172-39.298-52-42c-106.5-22.435-277.9 99.833-273.7 100.7z"/></svg>