<svg xmlns="http://www.w3.org/2000/svg" id="hair" viewBox="0 0 3000 3000"><path id="cl1" fill="#D3D5A4" d="M1058.365 956.953c15.4-38.101 30.436-55.553 72.936-43.753 14 2.5 28 21.9 42.2 58 24.5 51.301 33.8 104.101 27.699 158.2l20.5-32.699.5-1.4-.5 1.4-10.5 19.1c2.7 32.601 26.101 52 70.399 57.9 16.5-2 31-10.801 43.5-26.4 7.2-9.1 12.301-21.699 15-37.6-22.3 5.6-39.699 6.3-51.8 2.1-6.8-2.3-12-6.199-15.7-11.5 3.7 5.301 8.9 9.2 15.7 11.5-2.399-18.6 1.399-35.199 11.2-49.6 8.3-17.5 12.5-31.9 12.6-43.101 0-11.2-6.399-26.301-19.199-45.399-10.101-19.7-16.301-38.2-18.601-55.4-6.8-40.8-5.601-72.2 3.601-94l-.301-.3c-37.899 12.6-62.899 29.399-75.1 50.5-18.601-46.101-11.2-88.9 22.3-128.399 55.8-47 79.3-77.4 70.5-90.801 8.8 13.4-14.7 43.801-70.5 90.801-33.5 39.5-40.899 82.3-22.3 128.399 12.199-21.101 37.199-37.899 75.1-50.5h.2c.101 0 .101 0 .3-.101 0-.101.2-.199.301-.199 35.199-21 59.5-49.801 72.899-86.4-13.399 36.601-37.7 65.4-72.899 86.4-.101 0-.301.1-.301.199-.199.101-.199.101-.3.101l.101.3 24.5 41.801L1368.9 771l-22.9 71 25.3-32.699 1 36 52.7-55.4c35.399-28.2 55.699-56.601 61.1-85.3l7.601-40c14.8 19.399 30.3 54.8 46.3 106.2l4.6-138.301c27.2-11.3 47.4-.3 60.5 33.102l18.601 74.1c7.3-16.199 12.8-44.6 16.199-85.399l40.4 100.8 1.199-75.8 95.399 142.7 7.5-74.7c28.601 35.899 48.7 68.3 60.101 96.899 3.801-18.699 3-40.6-2.5-65.899 13 8.2 25.101 26.399 36.301 54.7 5.3-8 9.6-15.4 12.8-22.2v-.2c1.301-2.5 2.301-5 3.2-7.5 2.699-7.5 4.199-14.899 4.199-22-10.5-5-22.199-9.399-35.101-13.399-30.6-9.601-52.3-31.399-65-65.399 12.7 34 34.4 55.8 65 65.399 12.9 4 24.601 8.399 35.101 13.399.001-.001.101-.001.2.099 29.7 13.899 49.399 31.7 59.5 53.3 2.2-47.699-11.101-81.8-39.601-102.3-49.699-43-74.101-88-73.199-134.899-.899 46.899 23.5 91.899 73.199 134.899 28.5 20.5 41.801 54.601 39.601 102.301-10.1-21.601-29.8-39.4-59.5-53.301-.101-.101-.199-.101-.199-.101 0 7.101-1.5 14.5-4.2 22 .2 1.4-.3 4-1.399 8-.101.101-.101.4-.2.5C1878 862.9 1872.699 906.4 1876.6 942.2c.301 20-4.199 37.5-13.5 52.7-8.6 14.6-11.199 32.8-7.699 54.3 1.6 11.601-6 31-23 58.2-7.801 9.199-1.4 13.899 19.199 14.399 3.7-.3 7.301-.601 10.7-1.101 17.199-2.399 31-7.899 41.101-16.399-10.101 8.5-23.9 14-41.101 16.399-10.301 72.601-22.801 121.4-37.101 146.5 2.899 18.301 7.601 32.301 14.2 42.2l38.1-43.101 3.2 44.699 41.3-90.899c22.9-53.199 24.4-96.399 4.5-129.5-25.5-54.601-21.5-117.8 12-189.601 8-11.5 13.601-20.8 16.7-28 3.1-7 4.899-11.3 5.399-12.8.601-1.399.899-2.2 1-2.399.2-.601.399-1.101.5-1.601 35.2-110.3-15.8-241.8-153.101-394.5-35.5-38.7-100.699-73.1-195.6-103.1-41.4-13.801-86.4-16.5-135.101-8.5h-.399c-.2 0-.4 0-.601.1C1361.699 361 1262.4 398.6 1179.4 463.1c-70.301 39.601-123.601 111-160.101 214-26.101 77-29.301 143.801-9.7 200.2 16 40.8 24.799 24.864 26.899 47.864"/><path id="sd1" fill="#B9A756" d="M1060.508 961.312c-72.1-88.202-65.509-153.811-63.709-177.412 5.101-68.5 29.801-130.601 62.7-189.899 11-19.801 23.3-38.801 36.101-57.5 7-10.2 14.6-19.7 24.3-27.5 19.7-16.4 38.601-33.101 59.5-47.4-.2 1.801-1.399 3-2.601 4.101-33.601 34.301-59.899 73.801-80.301 117.101-13.8 29.3-22.8 60-26.899 92.3-2.699 21.301-2.8 42.7-1.3 63.801 2.101 28.199 8.399 55.8 20.8 81.601 1 2.1 2 4.199 3.301 6.199 3.699 5.7 5.8 6.301 11.199 2 8.2-6.399 17.5-10.899 26.101-16.5 2.101-1.3 4.2-3.3 7.5-2.601-6.899 21.2-7.699 43-7.3 64.9.1 5.5.1 5.5 5.1 10.3 3.301-23.101 12.301-44.5 14.801-67.601 4.601 26.2 3.601 53.301 15.601 78.601 7.199-5.899 9.3-15.601 18-21.3-.801 7.8-1.2 14.5-1.5 21.199-.7 16.301 2.199 32.5 1.899 48.801 0 1.899.5 4 1.101 5.8 6.199 18.601 13.6 36.7 24.1 55.601 8.7-23.301 17.5-45.101 31.5-64.301-.699 11-4.1 21.2-7.399 31.4-6.5 19.6-11.699 39.5-17.8 59.199-2.101 6.7-1.7 12.899.5 19.5 1.364 4.045 21.425 76.462 50.199 90.299 30.274 14.557 69.349-29.447 71.399-25.5l-22.192 46.266s41.299 37.947 37.087 53.711c-2.339 8.756 5.325 32.674 5.229 54.683-.138 31.561-7.325 62.006-7.325 62.006s-30.241-23.472-54.039-54.247c-19.327-24.993-30.287-54.071-30.884-58.254-1.854-12.975-16.315 10.182-20.442 39.5-3.351 23.8.551 50.097.551 50.097s-45.551-62.43-48.881-80.298c-2.734-14.671-9.458 58.942-9.458 58.942l-26.92-38.881-16.848-44.824-52.392-20.819s-24.548-19.322-28.388-36.609c-8.608-38.751 9.332-172.61-1.991-186.462zM1339.3 763.1c-14.2 22.2-30.101 44.801-54.899 56.801-3.2 1.601-6.601 4-5.101 6.899 4.3 8.199 11.2 18.199 15.5 26.399 1 1.899 3.2 10 6 10.3 18.899-26.6 41.101-57.899 60.899-83.699.801-.601 3.5-4.5 4.2-4.7.8.101 1.101.601 1 1.301 0 1.3-1.801 8.399-2.899 9.601-2.301 8-5.5 15.6-9.101 23.199-3.899 8.399-7.801 16.899-9.399 26.2-.4 2-1.7 4.5 2.199 4.399 1-1.7 2-3.399 3-5.2 4.101-7.199 15.601-23.101 18.301-22.5 2.8.7 3.1 8 2.899 10.301-.5 6.699 1.399 13.8.8 22.3 4.5-4.199 5-7.699 8.301-10.199 10.399-7.9 19.5-17.101 27.8-27.2 5.101-6.2 10.399-12.2 16.2-17.7 12.399-11.6 24-24 35.5-36.5 6.899-7.5 12.1-15.8 15.899-25.1 7.699-18.601 13.5-37.601 13.5-57.9 0-2.3 0-5 2.601-6 2.699-1 4.199 1.4 5.699 3.101 6.7 8 11.101 17.399 15.2 26.899 9.101 21.101 15.8 43.101 22.199 65.2.7 2.399.801 5.1 4.301 7.6v-40.899c-4.2-4-5.899-9.601-8.301-14.601-13.101-27.6-32.101-52-44.399-80.1-.899-2.2-2.199-4.8-5.3-5.4 0 6.2.1 12.101 0 18.101 0 3.601.5 7.399-.801 10.899-5.199 13.601-9.601 27.601-17.3 40.2-10 16.5-20 32.9-28.9 50-5.699 10.9-11.1 22.2-21.5 32.5 3-12.8 8.301-23 9.2-34.399-15.2 16.101-26.801 35.399-47.601 48.5 6.899-28.5 10.601-55.801 17.699-82.601-16.8 17.8-28.3 39.2-42.399 60.8-1.199-9.3 2.5-22 2.399-29-4.796 5.598-9.497 15.998-13.396 22.198zm624.3 82.8c-9.6-26.2-41.5-54.7-62.6-63.7-2.601 16.3-6.2 32.7-12.801 49.601-4.101 7.199-6.3 14.601-7.8 22.399-3.9 19.899-8.5 39.8-6 60.3 1.399 11.301 1.6 22.601.899 33.9-3.466 3.267-8.799 17.1-14.966 32.6-6.5 10.899-10.167 26.333-7 31-.5 5.3 1.066 22.699 1.566 27.899 2.399 23.899-7.801 43.2-21.301 61.601-7.8 10.5-6.699 12.699 5.801 16.699 2.899.9 5.8 1.4 8.8 1.601 17.801.899 35.5-1.5 48.5-14.101 6.801-4.5 5.801.2 9.601-2.3 8.699-11.801-4-10.601-10.5-7.5-13.801 6-27.899 10.8-42.7 13.199-4.199.7-8.3 1.301-12.3-.101-.5-3.5 1.899-4.6 3.399-6.3 3.7-4.2 7.801-8.2 11.301-12.601 6.1-7.601 9.699-16.199 12-25.801 2.6-10.899 6.8-21.3 6.6-33-.1-7.5 1-15.199 1.801-22.8.6-5.8 1.899-11.5 6-16.5 8.6-10.6 10.1-23.3 6.5-35.899-6.801-23.399-8.4-46.7-4.801-70.801 2.801-18.399 12.7-32.5 24.9-45.3 6.199-6.6 12.199-7.899 18.8-4.1 13.6 7.703 22.6 19.203 26.7 34.403 5.2-7.398 7.501-15.798 9.601-24.398zm-760 26.6c4.5-5.5 18.601-20.899 24.4-24.899 17.899-12.399 32.1-18.199 51.6-27.3 10.101-4.7 26.101-15.399 33.7-23.601 10.101-10.7 18.399-21.101 25.899-33.7 4.601-7.699 8.7-14.399 13.399-22.1 6.101-14.7 6.899-18.801 8.899-40.301.4-3.899 1.5-8.5-2.1-12.899-9.2 11.101-19.601 20.399-27.5 31.899C1322.6 733 1311.6 745 1301.1 757.301c-12.899 15.101-29.3 25.8-45.6 36.699-14.301 9.601-28.4 19.5-39 33.601-6.5 8.7-10.101 18.5-14.5 28.101 0 4.599-2.7 10.298 1.6 16.798zm627.7 247.75c-4 .601-7.594 19.051-10.442 24.503.601 6.7-19.446.018-20.446 6.618-6.288 40.208-11.502 66.994-17.661 111.238-1.6 3.101 16.3 41.99 17.5 45.391 2.5 7.5 29.65-27.172 33.25-20.073 5.199-6.899 12.399-8.427 17.299-15.627 12.699-18.7 23.199-38.101 21-61.801-.399-4.699.699-9.199 2.101-13.699 3.8-12.7 7.699-25.301 8.399-38.801.399-8.899 3.199-17.199 9-24.601 5.601-7.199 16.601-22.3 15.101-28.699-11.601 10.501-59.501 13.351-75.101 15.551zm-32.2-416.05c2.2 6.3 6.7 14.899 10.301 20.5 10.6 16.601 26.899 29.2 43.899 38 14.8 7.601 33.3 10.5 48.7 16.7 18.6 7.399 43.6 32.699 56.399 49 .199.3-4.601-27.301-4.801-30.9-.101-2 0-4-1.399-5.699-.3 2.699-.601 5.5-1 8.601-1-.801-1.601-1.101-1.899-1.601-15.2-24.5-37.801-40.601-62.301-54.399-13.3-7.5-26.699-14.801-40.1-22-7.101-3.899-13.5-8.7-18.101-15.301-12.5-17.8-23.101-36.399-23.601-59.199-4.5 9.3-7.2 18.899-7.399 29.3-.798 11.498-.099 22.798 1.302 26.998zm-106.1-7.6c25.899 38.7 51.899 77.301 78 115.899 1.1 1.7 1.399 4.601 5 4.101.6-4.899 1.3-9.8 1.699-14.8 1.399-14.601 2.7-29.101 3.899-43.7.2-2.8.899-5.3 4-6.199 3.399-1 5.801.399 7.601 3.199 1 1.7 2 3.399 3.101 5.101 14 23.399 27.899 46.801 42 70.2 1.399 2.3 2.699 9.601 6.8 10.601 2.5-18.101-.199-34.5-3.199-49.301-3.9 1.101-4.7 6.2-9 7.5-15.801-21.101-31.4-42-47.601-63.601-6.101 9.7-11.5 18-16.601 26.5-2.199 3.7-4.199 3.7-6.8.7-.899-1-1.899-1.899-2.801-2.899-15.699-17.101-31.899-33.801-46.899-51.501-8.601-10.101-18.699-18.9-26.601-29.601-1.699-2.3-3.5-5.3-9.3-6 4.3 6 2.399 12.2 5.8 17.101 5.802-1.3 8.202 2.7 10.902 6.7zm201.3 97.701c1-8.5 6.899-12.399-.899-15.601-11.7-4.7-31-9.8-42.101-15.7-13.8-7.399-25.7-16.3-35.7-28.699-4.1-5.101-15.399-26.101-19.3-31.301-1.2 5.7 4 26.9 6.2 31.4 5.5 11.3 12.1 21.8 24 28.199 10.8 5.801 21.399 11.801 32.1 17.801 13.7 7.6 26 23.899 21.801 49.3 3.599-7.899 12.899-26.899 13.899-35.399zm-609.601 316c3.899.199 2.2-8.399 1.399-10.699-.699-12.9 3.899-24.5 10.899-34.7 10.101-14.7 13.2-30.8 13.601-48.101.2-10.699-2.601-20.3-8.699-29 .5 14.899-.801 29.7-4.399 44.2-4.7 18.899-10.4 37.5-16.2 56.101-1 3.1-5.3 9.1-9 10.399 2 3.599 9.3 9.499 12.399 11.8zM1276.6 827.5c-17.399 2.301-48.5 20.101-59.6 33.2-2.4 2.7-5.4 5.101-5.2 9.3 5.399-1 9.3-4.8 13.601-7.8 12.6-9 27.3-10 41.699-12.899.4 2.899.7 4.8 1 6.8 2.4-8.201 8.099-20.3 8.5-28.601zm402.3-79.699c.199.399 1.101.399 1.101.399V702c0-2-.301-4-.5-5.899-3.4 4.301 0 9.7-2.801 14.899-3.199-2.199-6.3-4-9.101-7.1-5.8-6.301-10-13.801-15.699-20.101 8 21.801 17.4 42.901 27 64.002zm-56.8-16c.801 1.199 1.301 3.101 3.5 1.899 4.801-14.101 7.101-25.3 7.5-37.399-1.899 4.8-7.3 11.101-8.899 16-1 3-2.601 2.199-4.5 1.5-.801 6.299 1.998 12 2.399 18z"/><path fill="none" stroke="#000" stroke-linecap="round" stroke-linejoin="round" stroke-miterlimit="10" stroke-width="6" d="M1845.4 597.301c-.899 46.899 23.5 91.899 73.199 134.899 28.5 20.5 41.801 54.601 39.601 102.3-10.101-21.6-29.8-39.399-59.399-53.3h-.101c-.101-.101-.199-.101-.199-.101M1894.3 803.1c-.899 2.5-1.899 5-3.2 7.5v.2c-3.199 6.8-7.5 14.199-12.8 22.199-11.2-28.3-23.3-46.5-36.3-54.699 5.5 25.3 6.3 47.199 2.5 65.899-11.4-28.601-31.5-61-60.101-96.899L1776.9 822l-95.4-142.699-1.2 75.8-40.4-100.8c-3.399 40.8-8.899 69.199-16.2 85.399l-18.6-74.1c-13.1-33.399-33.3-44.399-60.5-33.101L1540 770.8c-16-51.399-31.5-86.801-46.301-106.2l-7.601 40c-5.399 28.7-25.699 57.1-61.099 85.3l-52.7 55.399-1-36L1346 842l22.899-71-66.5 95.101-24.5-41.8c-9.2 21.8-10.399 53.199-3.601 94 2.3 17.199 8.5 35.699 18.601 55.399 12.8 19.101 19.199 34.2 19.199 45.399-.101 11.2-4.3 25.601-12.601 43.101-9.8 14.4-13.6 31-11.199 49.601M1894.3 803.1c.2 1.399-.3 4-1.399 8-.101.101-.101.399-.2.5-14.7 51.3-20.001 94.8-16.101 130.6.301 20-4.199 37.5-13.5 52.7-8.6 14.6-11.199 32.8-7.699 54.3 1.6 11.601-6 31-23 58.199-7.801 9.2-1.4 13.9 19.199 14.4 3.7-.3 7.301-.601 10.7-1.101m32-317.598c2.7-7.5 4.2-14.899 4.2-22m-100.1-78.799c12.699 34 34.399 55.8 65 65.399 12.899 4 24.601 8.399 35.101 13.399M1783.25 1257c-.864 26.461 20 51 20 51s32.486-27.86 28.05-20.073c1.081 6.842 3.575 13.614 8.1 21.473l38.101-43.1 3.199 44.699 41.301-90.899c22.899-53.2 24.399-96.399 4.5-129.5-25.5-54.601-21.5-117.8 12-189.601 8-11.5 13.6-20.8 16.699-28 3.101-7 4.899-11.3 5.399-12.8.601-1.399.899-2.2 1-2.399.2-.601.399-1.101.5-1.601 35.2-110.301-15.8-241.801-153.101-394.5-35.5-38.7-100.699-73.1-195.6-103.1-41.4-13.801-86.4-16.5-135.101-8.5h-.399c-.2 0-.4 0-.601.1C1361.699 361 1262.4 398.6 1179.4 463.1c-70.301 39.601-123.601 111-160.101 214-26.101 77-29.301 143.8-9.7 200.2 16 40.8 52.2 72.699 54.301 95.699 1.101 48.899.399 87.801-2 116.7-4.899 55.101 8.601 88.5 40.3 100.3l29.601 8.899c12.3 2.4 20 14.4 23.3 35.9 3.2 21.5 28.943 51.031 33.443 55.731l8.758-66.632c5.866 39.089 29.123 66.879 50.223 88.58-2.107-29.099-7.024-48.087.476-65.978l14.5-31c2.199-2 4.699 16.8 7.5 19l16 28.487c9.5 20.2 50.4 63.012 62.8 68.313 8.601-13.101 7.559-37.541 8.034-51.999.185-5.626-.216-19.067-2-34.134-9.333-18.333 3.366-16.767-4.634-39.167l-37.175-43.234c-51.024 28.695-101.524-11.395-101.824-46.965l10.501-19.102M1862.3 1120.7c17.2-2.399 31-7.899 41.101-16.399m-608.101-449c8.8 13.399-14.7 43.8-70.5 90.8-33.5 39.5-40.899 82.301-22.3 128.399 12.199-21.1 37.199-37.899 75.1-50.5h.2c.101 0 .101 0 .3-.1 0-.101.2-.2.301-.2 35.199-21 59.5-49.8 72.899-86.399M1221.699 1096.7l-10.5 19.101c2.7 32.6 26.101 52 70.399 57.899 16.5-2 31-10.801 43.5-26.399 7.2-9.101 12.301-21.7 15-37.601-22.3 5.601-39.699 6.3-51.8 2.101m-66.599-15.101l.5-1.399m50.401 5c3.7 5.301 8.9 9.199 15.7 11.5"/></svg>