<svg xmlns="http://www.w3.org/2000/svg" id="图层_4" viewBox="0 0 3000 3000"><path id="cl1" fill="#691314" d="M1810.7 447.2c-15.3-8.8-15.7-14.1-1.3-15.5 25.6-8.2 43.9-17.3 54.9-27.5-39.4.7-77.7-7.2-114.6-23.5-47.2-19.1-88.1-31.8-122.6-38.2l-71.5-4.9c-23.6.8-43.9 5.8-61 15 9.9-14.1 25.2-28.9 45.9-44.4-59.6 19.5-104.6 27.8-135.1 25-59.9 3-100.7 22.1-122.3 57.2l-2-42.8c-22.2 20.7-46.5 38.1-73.2 52.3-19.9 11.5-39.1 36.7-57.3 75.7-6.8-4.6-12.1-18.6-16-41.9-21 22.8-35.6 53.7-43.9 92.8l-18.7-39.4c-6.5 26-5.7 50.9 2.5 74.4-11.8 13.1-21 30.1-27.6 51.1.7 50-2.8 94.6-10.7 133.9-19.2 85.4-15.7 138.9 10.5 160.4 12.6-16.3 29.6-22.5 51.3-18.3l35.8-.2c33.8 5.2 58.2 21.7 73.4 49.5 11.4 17.8 17.7 33 19.3 45.9-5.2 18.1-5.9 35-1.8 50.8l1.3 2.1c23.6 35.3 54.5 56.8 92.9 64.4-14.3-15.1-25.2-30.1-32.5-45.1-8.1-19.1-9.1-40.6-2.8-64.5 5.7-20.2 5.7-38.2 0-53.8-15.1-28.1-17.1-51.8-6-71.2 12.5-16.9 17.5-35.9 15-57.1 2.7-38.2-7.7-72.3-31-102.3l66 59.8 6.7-114.2c27.7 33.7 61.6 69.5 101.7 107.3-.4-17.1-6.1-37.6-16.7-61.8 17 25.9 38.8 49.6 65.4 71.3-15.8-29.3-25.4-59.8-29.2-91.4 6.4 19.8 30.1 38.6 71.3 56.3 40.8 3.2 63.7 31.5 68.3 85 15.4-21.2 22.9-37 22.5-47.5-3.5-26.6-11.1-49.8-22.7-69.8-7.5-7.2-5.9-13.2 4.9-17.7 16.2-10.2 32.6-9.8 48.8 1.3 27.7 21.9 41.9 53.4 42.8 94.6 35-23.6 52-52.7 51-87.4 33.3 31 43.2 69.7 29.6 116.3l41.4-43.3c11.1-10.8 20.9-7.6 29.4 9.7l-17.9 36.9 16.9-4.8-11.7 35.9 20.9-13.1-18.3 102.2c26.8-39.8 42.9-73.8 48.2-102l7 30.9c25.9-29 35.7-64.5 29.6-106.3l31.4 10.3c-11.8-17.5-16.6-32.4-14.6-44.4 7.6-20.8 7.7-36.7.5-47.8-5.7-10.3-15.2-19.5-28.6-27.3-9.3-6.2-13.6-17.5-12.7-34-3-37.6-9.4-70.9-18.8-100-8.2-24.1-29.6-45.6-64-64.9zm-655.5 656.2c10.1 4.3 16.7 12.2 19.6 23.8l10.2 18c-10.3 8.7-23.2 8.4-38.7-1.1-16.3-16.7-28.6-33.6-37-50.4-5-14 2.1-13.9 21.2.2l24.7 9.5z"/><path id="sd1" fill="#3C0A0D" d="M1137.8 1097.6c.3.6.8.8 1.4.6 1 .1 1.7.9 2.6 1.4.7.1 1.4.3 2.1.4 1.1 1 2.6 1.4 3.9 2.1 21.4 3.6 24.9 23.6 34.3 38 2.9 4.5-.4 7.1-5.2 8.2-12.9 3-24.1 2.8-34.4-8.2-14.8-15.9-28.5-32.1-35.8-52.9 1.5-6.3 5-3 8.2-1.7 7.4 3 12.5 9.7 20.3 12 .9-.5 1.8-.4 2.6.1zm-92-481.3c-.2 27.2.3 54.5-1.7 81.7-1 12.9-1.7 25.8-5.5 38.2-7.3 24.2-12.2 48.9-14.3 73.9-1.7 20.1-2.4 40.6 1.8 60.6 2.9 13.6 8.3 26.3 19 36.6 1.8-1.7 3.3-3 4.7-4.4 9.9-10.5 21.6-16.4 36.3-15.1 3.3.3 6.8-.6 10 .2 9.1 2.2 17.9 1.5 27.1.1 11.1-1.8 21.9 1.8 31.9 6.1 17.8 7.7 34.9 16.8 45.6 34 8.1 13 14.5 26.9 20.4 41 2.8 6.7 5.9 13.9 4.4 21.2-2.6 11.9-1.1 23.9-1.7 35.8-.2 4.5.8 8.6 3.6 12.2 8.1 10.6 17.7 19.8 27.1 29.2 1.5 1.5 3.2 2.4 5.2 2.6-.7-1.5-1.2-3.2-2.2-4.5-7.7-10.1-13.9-21-19.2-32.5-3-6.4-4.8-12.9-4.6-20.2.3-14.3 0-28.6.2-42.9.1-5.7-1.2-10.4-6.4-13.6-4.6-2.9-5.7-7.4-5.9-12.9-.2-7.6 2.2-14.4 4.4-21.3 2.7-8.5 2.6-16.3-2.2-24.7-13.6-24-14.7-49-3.7-74.4 1.2-2.7 2.7-5.5 3-8.4.8-8.4 3.3-17.5-5.5-23.7-8.9-6.2-9.3-14.9-7-24 1.7-7 1.4-13.9 1-20.8-.7-11-4.9-20-16.6-23.5-.9-.3-1.8-1-2.7-1.2-5.7-1.2-7.2-5-6.5-10.3.2-1.6-.1-3.3 0-5 .6-9.4-1.2-17.8-9-24.1-1.2-1-2.7-2.5-2.9-4-1.2-9-8.5-10.7-15.2-13.8-5.6-2.6-10-2.4-14.6 1.6-5.3 4.5-10.7 8.9-16.4 13-7.3 5.3-14.1 4.4-20.4-2.1-4.9-5.1-6.2-11.5-7.8-18-2.5-10.2-4.1-11.1-14.8-12.8-5.8-.9-12.3-.6-17.2-4.2-10.8-7.8-19-17.6-19.9-31.8-1.9 1.5-1.7 3.8-1.8 6.2zm765.6 148.6c8.7-6.7 16.6-6.5 24.9.8 6.2 5.3 6.8 10.4 1.2 20.4-4.8 8.6-9.2 17.3-12.6 26.4 1.8 1.5 2.9.3 4-.2 3.3-1.5 6.4-3.4 10-.2 3.8 3.4 1.2 6.7.4 10-1.7 7.3-5.9 13.7-9.3 22.1 6.2-2.7 8.6-6.9 12.1-9.7 3.7-3 6.6-2 8 2.5.6 1.7.1 3.2-.1 4.9-1.4 12.1-5.9 23.8-4.8 36.2.1.6-.5 1.2-.6 1.9-3.2 16.9-8.5 33.3-13 49.9-1.2 2.2-1.7 4.1 2 4 8.2-16.3 17.2-32.2 26-48.2 7.5-13.6 16.5-26.7 16.1-43.2-.1-2.7 1.3-4.4 4.3-4.2 3.1.2 3.4 2.5 3.7 4.9.7 6.4 1.6 12.8 2.5 19.3 3.4-.4 4.5-2.4 5.5-4.5-2.7-4.6-3.4-9.8-4.1-15-1.3-9.5-3-18.9-4.8-28.3-.3-1.8-1.3-4.1-3.9-3.7-1.7.3-2.6 1.9-2.9 3.7-1.2 6.9-4.5 12.6-9.2 17.9-1-11.5-1.1-22.7-1-33.8.1-8.4-1.8-16.5-4.3-24.4-2.1-6.7-3.6-6.9-8.7-2.4-2.6 2.3-4.5 5.7-8.8 7.1 3.4-28.1 2.4-55.1-7.2-81.4-2.9 16-8.7 30.7-16.2 44.8-4 7.6-8.6 15-11 23.4.6-.5 1.3-.6 1.8-1zm-450.2-80.7c24.1 22.9 45.6 48.2 69.3 71.4 1.2 1.1 2 3.6 4.7 2.4-3.4-13.1-5.8-26.4-11.3-38.9-1.5-3.3-4.3-7.8 1.1-10.4 4.6-2.2 7.2.7 9.6 4.5 3 4.8 6.2 9.4 9.8 13.7 11 13.1 20.1 28 35.4 37.1 0-1.7-.5-3.2-1.6-4.6-6.5-8.5-10.5-18.2-14.7-27.9-3.8-8.9-4.3-18.6-7.7-27.5-6.8-1.6-10.6-7.7-16.1-11.2-8.1-5.2-15.7-11.1-23.7-16.5-1.8-1.2-4-2.9-6.5-1.4s-1.9 4.2-1.6 6.3c.7 6.2 1.7 12.4 2.8 18.6.5 2.6 2.1 5.4-.6 7.3-2.6 1.8-5.1-.5-7.4-1.6-12.5-6.2-23.8-14.6-35.2-22.6-3.8-2.6-7-6.2-11.9-6.8 1.6 2.9 3.2 5.8 5.6 8.1zm444.1-252c1.5-.7 3-1.3 4.6-2 11.3-4.8 22.7-9.3 33.9-14.4 6-2.7 11.9-5.8 17.5-11.8h-35.5c-9.4 5.8-19.9 9.4-30.5 11.5-26.2 5-52.4 10.6-79.1 12.9-6.1.5-12.6.9-18.6 3.3 35.2 7.5 69.9 17.4 106.4 14.1-8.3-6.9-8.1-9.1 1.3-13.6zm-317.7 277.6c18.7 14.8 39.6 25.3 62.5 31.8 17.9 5.1 28.2 18.1 35.1 34 4.8 10.9 7.2 22.7 6.7 34.8-.1 2.8-1.1 5.9 1.9 8.8 6.2-6.3 9.7-14.1 13.9-21.4-1.5-1-1.9-2.6-2-4.3-1.3-14-6.6-26.2-15.9-36.7-.9-1-1.4-2.3-2.3-3.3-13.3-15.4-27.2-29.9-47.3-36.7-4.7-1.6-9.4-3.6-14.2-4.4-17.4-3-33.8-9-50.4-14.5 3.3 4.8 7.6 8.4 12 11.9zm15.4-370.2c5.4-4.8 10.4-9.9 15.9-14.7 6.3-5.6 14.3-9.4 18.9-17l.1.1c-8.3 1.7-16.4 4-24.1 7.9-.9 4.3-4.8 5.3-7.9 7-24.7 13.5-49.8 26.3-73.8 41-3.1 1.9-6.8 3.3-9.7 8 17.9-5 34.3-9.8 50.9-14 10.2-2.6 19.8-7.6 30.6-8.1-4.8-3-5.2-6.3-.9-10.2zm-223.3 10.7c-8.5 5.3-15.3 10.3-21.8 15.7 3.4 4-.6 6.8-2.1 9.5-7.8 13.9-14.1 28.4-18.6 43.7-1.3 4.3-2.2 8.6-3.7 14.9 8-5.9 11.7-12.6 16.4-18.4 9.2-11.3 18.2-22.7 29.9-31.7-.1-10.7-.1-21.5-.1-33.7zm400.9 375c8.5 17 10 35.1 9.5 53.8.7.2 1.3.5 2 .7 4.5-4 9.1-8.1 13.6-12.1-3.9-6.5-1.6-13.6-1.8-20.4-.3-11-3.3-21.3-9.9-29.7-7.8-9.9-17.2-18.6-28.4-24.8-6.3-3.5-11.8-8.9-19.7-9 13.8 11.9 26.3 24.9 34.7 41.5zm-355.9 41.8c3.1-1.8 3.1-4.2 3.1-6.5.2-21.6-.2-43.2 1.9-64.7 1-10.6.2-21.3.2-31.9-.6.8-1.5 1.5-1.6 2.4-1.8 11.4-4.8 22.5-7.8 33.6-3.5 13.4-10.4 26.7-3 42-5.5-2.1-8.7-5.1-12.3-7.2-7.7-4.4-14.4-10.6-23.2-12.8 13.8 15.3 27.1 31.4 42.7 45.1zm-183-301.5c-2.2-9.2-5.5-18.2-5.8-27.9 0-1.3-.3-2.9-2.2-1.9-.7.4-1.1 1.5-1.6 2.3 3.8 3.1.7 6.3-.4 9-5.4 13.7-7.6 28.1-9.5 42.4-.9 7-.8 14.2 1.1 21.4 3.6-4.2 5.8-8.8 8.9-12.9 5.8-7.6 10.5-16 15.7-24.1-3.4-1.7-5.3-4.4-6.2-8.3zm784.4 291.3c6 2.4 12.3 4 19.9 6.5-2.4-5.5-3.2-9.9-6.2-13.5-3.2 2.5-4-1.1-5.3-2.4-9.7-9.5-19.2-19.1-28.8-28.7-4.3-4.3-9-7.9-16.2-10.1 4.9 11.6 11.2 20.6 16.2 30.2 3.6 7 10 12.6 10.3 21.1 2.5-3.6 5.6-4.9 10.1-3.1zm-164.9-42.6c5.1 5.3 8.1 12 11.3 18.6 7.8 16.4 5.8 33.7 4.4 50.9-.7 8.5-4.2 16.5-6.7 25.3 4.1-1.5 6.2-4 7.8-7-3.5-2.8-.5-5.8.4-8 2.8-6.8 4.7-13.7 6.1-20.9 2.7-14.5 3.3-29.2-1.1-43.2-4-13-12.9-22.2-27.5-24 1.3 3 2.9 5.8 5.3 8.3z"/><path fill="none" stroke="#000" stroke-linecap="round" stroke-linejoin="round" stroke-miterlimit="10" stroke-width="6" d="M1130.5 1093.9l24.7 9.5c10.1 4.3 16.7 12.2 19.6 23.8l10.2 18c-10.3 8.7-23.2 8.4-38.7-1.1-16.3-16.7-28.6-33.6-37-50.4-5-14 2.1-13.9 21.2.2m96.1-55.3l-.6-1.9m0 0c23.6 35.3 54.5 56.8 92.9 64.4-14.3-15.1-25.2-30.1-32.5-45.1-8.1-19.1-9.1-40.6-2.8-64.5 5.7-20.2 5.7-38.2 0-53.8-15.1-28.1-17.1-51.8-6-71.2 12.5-16.9 17.5-35.9 15-57.1 2.7-38.2-7.7-72.3-31-102.3l66 59.8 6.7-114.2c27.7 33.7 61.6 69.5 101.7 107.3-.4-17.1-6.1-37.6-16.7-61.8 17 25.9 38.8 49.6 65.4 71.3-15.8-29.3-25.4-59.8-29.2-91.4 6.4 19.8 30.1 38.6 71.3 56.3 40.8 3.2 63.7 31.5 68.3 85 15.4-21.2 22.9-37 22.5-47.5-3.5-26.6-11.1-49.8-22.7-69.8-7.5-7.2-5.9-13.2 4.9-17.7 16.2-10.2 32.6-9.8 48.8 1.3 27.7 21.9 41.9 53.4 42.8 94.6 35-23.6 52-52.7 51-87.4 33.3 31 43.2 69.7 29.6 116.3l41.4-43.3c11.1-10.8 20.9-7.6 29.4 9.7l-17.9 36.9 16.9-4.8-11.7 35.9 20.9-13.1-18.3 102.2c26.8-39.8 42.9-73.8 48.2-102l7 30.9c25.9-29 35.7-64.5 29.6-106.3l31.4 10.3c-11.8-17.5-16.6-32.4-14.6-44.4 7.6-20.8 7.7-36.7.5-47.8-5.7-10.3-15.2-19.5-28.6-27.3-9.3-6.2-13.6-17.5-12.7-34-3-37.6-9.4-70.9-18.8-100-8.2-24.1-29.6-45.6-64-64.9-15.3-8.8-15.7-14.1-1.3-15.5 25.6-8.2 43.9-17.3 54.9-27.5-39.4.7-77.7-7.2-114.6-23.5-47.2-19.1-88.1-31.8-122.6-38.2l-71.5-4.9c-23.6.8-43.9 5.8-61 15 9.9-14.1 25.2-28.9 45.9-44.4-59.6 19.5-104.6 27.8-135.1 25-59.9 3-100.7 22.1-122.3 57.2l-2-42.8c-22.2 20.7-46.5 38.1-73.2 52.3-19.9 11.5-39.1 36.7-57.3 75.7-6.8-4.6-12.1-18.6-16-41.9-21 22.8-35.6 53.7-43.9 92.8l-18.7-39.4c-6.5 26-5.7 50.9 2.5 74.4-11.8 13.1-21 30.1-27.6 51.1.7 50-2.8 94.6-10.7 133.9-19.2 85.4-15.7 138.9 10.5 160.4 12.6-16.3 29.6-22.5 51.3-18.3l35.8-.2c33.8 5.2 58.2 21.7 73.4 49.5 11.4 17.8 17.7 33 19.3 45.9-5.2 18.1-5.9 35-1.8 50.8l1.3 2.1"/></svg>