<svg xmlns="http://www.w3.org/2000/svg" id="hair" viewBox="0 0 3000 3000"><path id="cl1" fill="#0D0C0A" d="M1999.5 472l-46.7-2.5c-38.4-8.699-87.9-29.5-148.3-62.3-61.4-31.4-131.301-47.7-209.801-49 63.601-42.2 96.7-89.3 99.4-141.3-18.4 17.5-49.1 34.9-92.2 52.4l-91.3 37.999c-31.4 10.5-62.5 25.9-93.2 46.2l-12-104.6-61 96.6L1303 311.3l2.3 44.2c-70-9.6-133-6.1-188.8 10.5 43.699 7.4 78 17 103.1 28.601-16.3 3.899-31.4 11.8-45.2 23.399-50 39.4-102.2 70.7-156.899 93.9l114.399-3.5c-47.3 51.6-104.5 92.9-171.399 123.8 28.8 5.9 63.3 2.3 103.699-10.5-8.199 5.2-17.8 22.3-28.699 51.2-40.2 58.2-62.5 111.3-66.801 159 62.101-42.1 98.4-62.1 108.601-60l23.091 118.09c7.415 12.188 10.859 24.209 21.859 31.009L1139.4 881.6c32.3 78.9 60.5 133.399 84.7 163.7-14-68-18.7-138.4-14-211.101l28.2 58.9 89.6-292.4 9.9 174.2 51.6-212c30.9 81.3 71.4 157.4 121.601 228.3 44 52.301 89.3 90 135.5 113.301-54-55.301-87-155.601-98.9-301.101 31.2 51.1 62.3 94.2 93.4 129.3-12.5-48-19.601-85.5-21.5-112.5l49.899 67.4c34.8 46.6 67.101 102.6 96.7 168.1-9.4-39.699-10.2-79.199-2.6-118.3l197 229.2c-23.2-53.4-42.2-110.7-57.101-172.3 40.2 27.7 77.101 56.1 110.4 85.399-21-78-54.3-157-100.3-236.8 51.899 25.101 102.699 38.3 152.3 39.2-23-19.2-48.3-48-76.2-86.6-24-34.2-54.6-65.2-92-92.8C1947.4 497.301 1981.4 487.1 1999.5 472z"/><path id="sd1" fill="#2A2720" d="M1559.8 529.9c-9-1.1-17.2-4.8-25.601-7.8-24.399-8.8-48-19.5-73.6-24.8-9.7-2-19.5-3.5-29.3-5.2-.8-.1-1.7.6-3.601 1.4 18.9 36.8 34.801 74.8 59.5 108.1-1.399 1.7-2.3.2-3.1-.5-17.1-16.3-35.1-31.7-51.1-49.1-11-12-21.5-24.4-31.9-36.9-9.3-11.3-18.7-22.5-29.6-32.4-1.2-1.1-2.4-2.3-5.4-1.6-1.4 29.4 1.5 59.2-3.5 90.4-6.1-27.601-11.2-53.801-20.5-78.601-4 .601-5.1 3.2-6.6 5.3-29.801 43.301-52.101 90.101-66.7 140.801-14 48.8-25.8 98.3-43.101 146.1-2.699 7.5-6.399 14.6-9 22.1-.199.4-1 .601-1.699 1-2.4-1.3-1.4-3.5-1.101-5.199 2-12.101 2.601-24.4 4.101-36.5 2.6-21.4 2.1-43 5.6-64.301.1-.3.1-.699 0-1-1.1-15.3 2.7-30.5 2-45.699-.5-10 1.6-19.801 1.4-30.101-14.601 14.5-25.4 31.7-36 48.8-10.801 17.4-22.2 34.5-29.601 53.9 2.9-43.3 25.4-128.9 71.9-188-33.3 12.8-65.3 25.6-99.5 31.3 24.1-10.1 45.1-25.1 66.5-39.6 19.8-13.5 40.2-26 61.9-36.2 3.5-1.7 7.5-2.8 10.899-6.6-16.5-9.7-34-16.4-51.8-22.4-17.9-6-36.3-9.2-55.3-9.3 42.199-13.9 85-14.3 128.1-4.8.2-4.4-2.6-5.601-4.3-7.5-7.8-8.601-15.4-17.5-23.8-25.501-6.7-6.399-14.2-12-20.5-18.899-1.601-1.7-3.7-2.9-4.9-7.3 16.4 8.3 32 15.5 46.8 23.8 14.7 8.2 27.101 19.7 40 33.3 1.2-17.6-1.399-33.4 4.2-48.3 2.1-5.601 4.4-11.101 6.6-16.7.4-.9 1.101-1.6 2.9-1.6 3.2 19.3-2.4 38.5-1.1 59.5 16.699-19.601 29.199-40.9 44.8-59.9-4 14.2-10 27.9-10.9 42.601 2.4 1 3.9.3 5.2-.7 13.8-11.4 30.3-16.2 47.4-19.2 20.8-3.7 40.199-10.7 58.6-21.3 15.1-8.801 31.3-15.7 47.1-23.7-13.8 15-26.8 30.6-43.6 43.1 15.4 0 30.7-.3 46.1.101 40 1 79.2 6.899 117.2 19.7 20.2 6.8 39.5 15.8 58.7 24.8 15.4 7.2 30.5 14.8 46.3 21.1 2.101.8 4.4 1.601 6.3 4.2-2.3 1.3-4.5.2-6.199-.5-33.301-13.6-68-22.9-103.301-28.9-24.399-4.1-49-7.5-73.6-11-28.8-4-57.7-3.399-86.5-3.699-5.4 0-10.2 2.3-15.5 2.899 15 3.101 30.3 4.3 45.4 6.8 12.199 2.101 24 5.101 35.8 8.5 38.6 11.2 74.5 28.601 109.6 47.601 32.8 17.7 65.601 35.6 99.4 51.2 30.5 14 60.899 28.199 92.5 39.699 2.3.9 5.3.5 7.6 3.2-11.3.9-21.5-2.3-31.6-5.399-33.7-10.5-66.601-22.801-98.601-37.9-19.5-9.2-38.199-20-58-28.6-30.5-13.2-60.699-27.101-92.3-37.5-25.5-8.4-51.7-14.301-78.2-18.801-14.699-2.5-29.3-5.5-44.1-7.1-17.7-1.9-35.6-4-54.4-2 27.5 9.6 51.101 25 75.7 38.7 16.601 9.2 33.9 17.1 50.8 25.7 7.504 3.698 15.004 7.998 22.105 12.898z"/><path fill="none" stroke="#000" stroke-linecap="round" stroke-linejoin="round" stroke-miterlimit="10" stroke-width="6" d="M1952.8 469.5l46.7 2.5c-18.101 15.101-52.101 25.301-101.9 30.7 37.4 27.601 68 58.601 92 92.8 27.9 38.601 53.199 67.4 76.2 86.601-49.601-.9-100.4-14.101-152.3-39.2 46 79.8 79.3 158.8 100.3 236.8-33.3-29.3-70.2-57.7-110.4-85.399 14.9 61.6 33.9 118.899 57.101 172.3l-197-229.2c-7.601 39.1-6.801 78.6 2.6 118.3-29.6-65.5-61.9-121.5-96.7-168.1l-49.899-67.4c1.899 27 9 64.5 21.5 112.5-31.101-35.1-62.2-78.2-93.4-129.3 11.9 145.5 44.9 245.8 98.9 301.1-46.2-23.3-91.5-61-135.5-113.3-50.2-70.899-90.7-147-121.601-228.3l-51.6 212-9.9-174.2-89.6 292.4-28.2-58.9c-4.7 72.7 0 143.101 14 211.101-24.2-30.301-52.4-84.801-84.7-163.7L1122.25 921c-11-6.8-13-20-23.75-33.5l-21.2-115.6c-10.2-2.1-46.5 17.9-108.601 60 4.301-47.7 26.601-100.8 66.801-159 10.899-28.9 20.5-46 28.699-51.2-40.399 12.8-74.899 16.4-103.699 10.5 66.899-30.9 124.1-72.2 171.399-123.8l-114.399 3.5c54.699-23.2 106.899-54.5 156.899-93.9 13.8-11.6 28.9-19.5 45.2-23.4-25.1-11.6-59.4-21.199-103.1-28.6 55.8-16.6 118.8-20.1 188.8-10.5l-2.3-44.2 41.399 34.2 61-96.6 12 104.6c30.7-20.3 61.8-35.7 93.2-46.2l91.3-38c43.101-17.5 73.8-34.899 92.2-52.399-2.7 52-35.8 99.1-99.4 141.3 78.5 1.3 148.4 17.6 209.801 49C1864.9 440 1914.4 460.801 1952.8 469.5"/></svg>