<svg xmlns="http://www.w3.org/2000/svg" id="hair" viewBox="0 0 3000 3000"><path id="cl1" fill="#271F16" d="M1799.4 378c-2.6 7.4-6.4 8.4-11.5 3.1-13.1-17.6-29.3-33.5-48.5-48l-.3 14.6c-1 9-7.7 8-20.1-3l-19.9-18.7c-5.6 3.4-9.4 3.6-11.3.8-8.4-8.1-20.3-16.2-35.6-24.3l-16.3-4-.4 7.1c2.2 8.3-3.6 9-17.5 2.5-12.5-6.1-19.5-4.4-21.2 5.1-.7 5.8-4.8 7-12.4 3.5-3.1-3.4-6.9-3.7-11.1-1-1.8 2.4-6.2.9-13.3-4.6-8-7-19.7-14.5-35.3-22.6l-23.9-9.9c-3.4-4.3-9.4-4.6-17.9-.8l-13.5 4.9c-14.2-.6-26.3-2.7-36.5-6.5-12.7-3.8-19-.8-18.9 9.3-1.4 7.1-6.6 9.4-15.6 6.6L1373 284l.8 12.5c1.5 9.4-4.9 14-19.2 13.6l-32.1-7.1c-8.5-2.8-12 2.2-10.6 15.1.3 8-8.7 9.9-27 5.9-7.8-2.9-11.6-.5-11.5 7 3.6 14.5-.2 20.3-11.3 17.2l-16.8-2.4c-11.7-1.1-16.1 1.7-13 8 1.4 9.1-1.9 14.7-9.9 16.6l-14.6 4.3c3.4 8.3-2.4 15-17.3 20.3-6.2-1.6-11.6 1.1-16 8-8.9 12.2-21.7 20.5-38.5 25l-22.5 1.5 7.5 22.6c3.5 19.6-1 26-13.3 19.4l-19.2-2.8 9.7 30c1.8 8-4.6 11.4-19.2 10.2-12-1.3-24.5 2-37.4 9.5l36.1 22.2c-21.4 5.8-36.7 13.9-45.7 24.7l23.5 4.4-30 24.8c9.5 4.2 14.4 15.3 14.9 33.2l50.9 228.2c1.1 18 6.5 28 16.4 29.9l49 4.9c14.3-.8 24 7.3 29.1 24.4 1.8 11 5.1 23.5 10 37.6l8 32c22.3 14.9 42 21.3 59.4 19l-9-77.6c-9.4-63.5 6.1-91 46.4-82.2l25.4 4.2c4.4-9.6 5.5-23.7 3.2-42.4l-11.5-51.6c-11.6-48.5-13.9-83.7-6.9-105.5 14.5-42.5 39.8-72.8 76.1-91.1 28.2-15.8 65.2-20.4 110.9-13.6 27.8 5.1 64.2 16.3 109.1 33.6 69 30.6 134.9 30.5 197.9-.1 10.5 34.5 30.4 72.5 59.7 114.1 21.9 36.9 36.9 79.9 45 128.6 30.4-66.9 33.5-132.7 9.4-197.5-20.1-44.7-47.3-67.4-81.5-68 11.7-17.2 20.7-36.6 27-58.1 5.2-23.6 5.4-46.7.6-69.3-11-38.7-33.2-69.7-66.5-92.9l.9 43.7zm-646.2 770.4c-7.4.8-9.2-2.1-5.5-8.7l-4.6-38.7 16 6.1 1.5.9c4.3 2.5 6.6 5 7 7.6 6.3 7.3 10.3 14 12 20 3 7.1 1.5 10.1-4.6 9.1l-21.8 3.7z"/><path id="sd1" fill="#19140E" d="M1311.8 835.9c6-21.7.4-41.2-11-59.8-8.7-14.3-14.9-29.6-15.1-46.7-.1-5-1.9-9.7-2.1-14.7-1.1-20.4 4.6-39.3 11.8-58 6.7-17.3 13.9-34.4 19.4-52.2 5.8-18.8 2.4-36-5.3-53.1-2.6-5.8-6-11.1-9.6-16.3-2.5-3.5-4.5-7.3-5.8-12.1 6.9-.4 12.8 2.2 18.7 3.3 13 2.3 25.4 2.2 38.2-1.6 14.9-4.4 30.1-8.7 45.5-10.2 25.7-2.5 51.4-7 77.3-4.5 18.1 1.8 36.2 5 53.1 12.1 13.8 5.7 28.7 8.5 42.3 14.6 17.8 8.1 36.3 14.2 53.7 23.5 19.7 10.5 40.6 17.8 63.5 17.9 8.5 0 17 1.8 25.7 1.9 31.7.1 60.8-8.3 87.6-25.3 13.2-8.4 26.4-16.6 39.8-24.6 4.3-2.5 6.4-8 12.1-8.3-4 8.4-7.9 16.9-13.5 24.4-3.3 4.5-4 8.4 1.5 11.6 1.1 2.2 0 4.2-1.5 5.3-8.1 6.3-4.2 10.4 2 15.1 12.5 9.6 23.8 20.3 29.3 35.7 1.8 4.3 4.5 8.1 5.4 12.7.4 2 .3 4.1-1.8 5.1-1.7.8-3.2-.3-4.5-1.2-4.3-2.8-6.7-7.2-9.5-11.3-.6-.7-1.2-1.4-1.5-2.3-.3 1.3 1.1 1.6 1.5 2.6 2 4.6 8.9 9.5 4.1 13.7-5.2 4.5-9.6-2.8-14-5.8-2.2-1.5-3.6-3.8-6.8-5.9.2 4 2.7 7 2.3 10.3-.4 1.4-1.2 2.4-2.6 3.1-5.9 2.7-1.7 6.4-.4 9 5.4 10.7 11.7 20.8 18.8 31.4 1.7-6.9 2.2-13.2 4.8-18.9 2.9-6.2 5.9-6.4 9.7-.6 3.6 5.5 6.7 11.5 12.9 14.5 2-2.7.5-7 4.7-8.7 5.4 3.7 6.1 10.1 6.7 15.7 3.6 33.9 13.5 66.2 24.1 98.3-5.1 12.9-8.2 26.6-16.4 40.1-2.6-6-2.1-11.4-2.9-16.2-4.5-25.8-14.2-49.8-25.3-73.2-12.7-26.8-27.3-52.4-42.5-77.9-11.9-20-20.4-41.8-28.5-63.6-3.2-8.7-6.1-10.4-14.5-5.9-13.6 7.3-27.8 12.8-43 15.4-8.5 1.5-16.9 3.9-25.5 3.2-6.5-.5-12.4 2.5-18.8 2-12.5-.9-25-2.3-37.3-5.3-34.2-8.4-67.4-20.2-100.9-30.9-26.6-8.4-53.1-17.1-80.4-22.7-17.2-3.5-34.7-4.5-52.4-1.6-13.5 2.2-27 4.1-39.2 10.5-18.2 9.6-35.7 20.6-50.4 35.3-23.3 23.4-36.9 51.8-41.5 84.2-2.3 15.9 1.1 31.8 4.4 47.4 6 28.9 12.2 57.7 18.5 86.4 2.9 13.2 1.8 27.1-1.2 40.6-7.3 2.9-10.9-1.5-13.7-7.5zm-184.6 49.8c14.7.3 28.7 4 42.6 8.2-5.7-25.5-12.5-50.7-20.2-75.7-.8-2.5-1.6-5.1-2.7-7.5-.3-.7-1.6-1.5-2.3-1.4-.8.1-1.9 1.1-2.1 1.8-.5 1.9-.5 3.9-.7 5.9-.8 7.9-1.5 15.8-2.6 23.6-1.5 10.5-3.2 20.9-3.3 31.5-.2 13.2 0 11.6-12.1 11.8 1.1.6 2.3 1.8 3.4 1.8zm124.4 34.3c-2.5-16.2-1.7-32.2-.1-48.5 1.9-19.9 16.2-29.4 33.4-29.6 11.1-.1 21.7 2.7 32 6.2 5.3 1.8 7.3.1 8.9-4.2-6-.3-9.4-5.2-14-8-6-1.7-11.9-3.6-18-4.9-11.7-2.6-23-2.3-32.3 6.5-5.9 5.5-9 12.8-11.6 20.3 2.2 1.6 1.1 3.4.5 5.3-2.3 7.7-2.8 15.6-2.6 23.6s-.4 16 .3 23.9c.7 9.1.6 18.4 3.7 27.2 0-5.8.7-11.9-.2-17.8zm-109.8 191c0 3.4 1.9 6.6 1.7 9.7-.6 6.7 3.4 12.8 1.4 19.6-1.9 6.5.3 8.2 7.2 7.1 7.5-1.2 15-2.7 22.5-3.5 4.2-.5 4.8-1.8 3.8-5.7-2.7-10.6-9.8-18.6-15.1-27.8-.5-.8-1.5-1.4-2.3-1.8-6.3-2.8-12.7-5.5-20.2-8.7.4 4.7 1 7.9 1 11.1z"/><path id="hl1" fill="#544939" d="M1249.9 1003.7c-3.2-2.4-5.8-4.6-6.2-9.4-3.1-34.7-4.9-69.5-3.9-104.3.3-9.7 2.1-19.1 6-28 .8-1.9 2.2-3.3 4.1-4.2 2.9.2 2.9 1.9 2.3 4.1-5 19.6-4.5 39.4-1.5 59.3.8 5.6-1 11.3 1.1 16.8.8 17.2 4.2 34 6.9 50.9.7 4.6 1.2 9.1 1.9 13.8-3.4 2.4-7.2.7-10.7 1zM1563.1 314c-18.1-14.2-37.9-25.7-59.3-34.2-.7-.6-1.5-1.1-2.3-1.6-1.2-.2-2.4-.4-3.7-.6-2.3 2.6.4 3.3 1.8 4.3 18.9 12.8 37.2 26.5 55.5 40.2 4.1 3 8.6 5.6 14.4 6.8-.8-4.9-1.5-8.7-2.1-12.6-1.4-.7-3-1.3-4.3-2.3zm206.1 47.1c-7.9-8.4-14.5-18.2-25.4-23.3-.1 3 2 4.7 3.7 6.8 11.8 14.2 23.3 28.7 35.3 42.7 3.8 4.4 6.4 10.3 13.9 14.2-2.3-7.3-1.7-13.4-6.9-17.6-6.8-7.6-13.6-15.3-20.6-22.8zm27.7-28.1c.5 5 .8 7.9 1.1 10.8 6.6 4 12.1 9.3 17.4 14.8 7.7 7.8 15.5 15.5 23.3 23.3 1.6 1.6 3.2 3.6 5.2 4.6 1.7.9 1.6-1.3 1.8-2.4-12.1-20.3-29.3-35.5-48.8-51.1zm-676.7 95.1c-3.4.1-7.2-1.8-10.1 1.6 13.7 2.5 26.8 7.5 41.6 9.5-1.3-5.7 5-10.2.1-15.4-10 5.6-20.9 3.9-31.6 4.3zM1617.9 308c-4.5-1.8-8.9-4.2-13.9-3.9 10.7 9.6 23.8 14.8 36.9 22.4-1-7.6-6.8-9.8-9-14.5-5.1.1-9.5-2.2-14-4zm67 16.5c-9.7-7.8-19.6-15.4-31.1-20.5-2 2 0 2.8 1.2 3.6 6.5 4.4 13.1 8.8 19.4 13.4 8.1 6 16.7 11.1 25.2 16.7-.7-4.4-.5-9.1-6-9.9-3.7.9-6-1.2-8.7-3.3zm-329-14.8c-1.8-1.4-4.4 0-6.2-1.6-6.8-.5-12.9-3.9-19.8-4 3.6 2.8 7.1 5.8 10.9 8.5 9.2 6.7 17.5 3.1 26.5-.2-1.6-3-3.9-2.1-5.7-2.7h-5.7zm-116.1 36.2c7.2 5 15.8 5.8 23.9 8 5.4 1.4 5.5 1.1 6-5.8-10 .1-19.8-3.3-29.9-2.2zm46.1-22.2c-1.9 1.8-.5 2.8.9 3.7 3.3 2.1 6.6 4.1 10 6 1.3.7 2.9 2.2 4.3.6 1.2-1.3 1-3.2.1-4.5-.9-1.3-2.3-2.2-3.5-3.3-3.9-.8-7.8-1.6-11.8-2.5zm-60 46.4c-2.8 3.3-7 .8-11.1 3.1 6 1.6 10.3 5.8 16.3 6.1.9-4.5-.6-7.2-3.3-9.4-.6 0-1.3.1-1.9.2zm441.9 67.8c-.7.7-1.3.7-1.9-.1-1.4-7.2-2.4-14.5-6.4-21.9-4.7 10.4-3.8 21.1-8.4 31-8-15.2-11.3-31.6-19.9-48.4-2.6 14.4-4.7 26.3-6.8 38.3h-1.8c-1.9-3.3-3.8-6.6-5.8-10-5.5 2.6-5.5 8.8-10.4 12.6-4.3-11.5-9.8-21.7-15.6-34-2.4 12.9-4.8 23.5-5.5 36.1-7-10.7-10.4-21.4-18-31.4-8.9 26.8-10.5 53.8-17.9 79.6.6.2 1.3.4 1.9.6 5.1-11 10.2-22 15.6-33.4 6 8.6-.4 19.1 6.3 28.6.7-12 1.7-22.4 4.1-34.8 6.4 12.4 7.5 24.2 14.5 35.6 4.3-15-.8-29.4 4.8-42.9 4.3 7.5 4.6 16.5 9.9 23.9 4.9-7 4.5-15.8 10.4-21.9 3.2 10.2 4.4 20.3 8.7 31.2 6-11.5 5.7-23.2 10.6-35 7.3 18.4 9.7 36.2 17.8 52.8 2.2-13.6 4.4-27.3 6.7-41.9 4.7 5.3 3.7 11.9 8.1 16.4 4.7-8.8 4.1-19.1 9.6-28 4.2 8.4 4.1 17.5 8.2 25.7 7.8-9 10.5-20.4 17.5-29.9 5.4 11.9 3.8 24.5 8.3 36.6 8.1-5.4 10.7-14.8 18.5-20.9l9.2 41.4c2.3-22.2 4.7-44.2 3-66.3-2.8.3-3.1 2.1-4.1 3.4-1.2 1.5-2 3.6-4.4 3.6-2.9-4.3-2-9.6-3.6-14.1-1.7-4.9.2-10.7-4.1-15.9-4.8 10.5-9.3 20.3-14.2 31.1-5.3-13.7-5.8-27.2-10.3-41.2-6.5 15.1-9.2 29.7-13.9 44.6-5.7-9.7-5.3-21-12-31.4-2.6 9.8-4.8 18-6.9 26.3-1 1.1-.6 3-1.8 4zm-316-55.1c-4.9-5.9-7.9-13.5-15.1-17.7-4.6 16.2-5.6 32.5-11.3 48.6-12.3-9.5-20.6-21.6-32.1-33.2-4.3 15.3-8.1 28.5-12 42.2-7.2-6.5-8.1-16-15-22.5-5.5 10.3-11.2 19.5-14 30.4 3.7-.1 4.8-2.8 6.6-4.5 8.1-7.8 8.1-7.8 13.3 2.6 2 4 4.2 8 6.8 13 7.2-12.5 13.7-23.9 20.4-35.8 7.7 7.6 11.8 16.5 17.9 23.8 6.1 7.4 9.7 16.8 18.4 23.8 2.5-21.9 4.9-42.3 7.5-64.7 13 18.2 19.2 37.8 32 55.2 2.7-19.5 5.2-37.3 7.6-55.1.6-.1 1.2-.3 1.8-.4 9.8 16.2 19.6 32.3 30.3 49.8 1.7-7.7 3-13.5 4.4-19.3 1.3-5.4.9-11.5 5.1-16.8 4.6 8.9 5.4 18.3 10.9 26.9 2.9-12.8 5.6-24.4 8.2-36 7.4 10.5 12.5 21.3 20.4 30.6-6.3-24.1-12.5-48.1-19.3-74.2-6.9 14.5-9 28.6-15.7 41.9-7.4-12.8-9.7-26.7-17.6-37.8 1.5 15.9 1.3 36.4-1.3 43.3-12.3-11.6-20.8-26.4-34-37.9-3.9 14.2-4.1 28.3-8.4 42.9-5.9-7-10.8-13.1-15.8-19.1zm-88.3 403c-9.8-22.2-19.7-44.4-29.5-66.6-3 11.2-4.6 22-4.5 35.2-12.6-12.2-19.2-26.6-30.6-38.3-2.6 11.1-2.8 21.2-4.6 31.2-6.5-6.9-11.6-14.1-17.4-20.8-5.7-6.6-9.3-15.1-17.5-20.6-4 9.5-7.7 18.2-11.6 27.6-3.7-3.6-5.7-7.4-7.7-11.1-4.4-8.2-8.7-16.5-13.3-24.5-2.5-4.4-4.8-4.4-6.6.3-2.9 7.5-7.7 13.7-12 22.4-9.4-18.7-18.1-36.1-26.8-53.5-.7.1-1.3.2-2 .3-2.9 20.9-5.4 41.8-7.9 63.9 7.4-3.4 9.6-9.4 13.6-13.6 4.4-4.6 5.7-4.3 8.2 1.7.4.9.5 2 .8 2.9 4.5 11 9 21.9 14 34.1 9.6-9.9 14.4-21.8 23.3-31.8 5.7 18.6 11.1 36.2 16.5 53.9 3.9-4.8 5.9-9.3 7.9-13.8 4.1-9.1 8-18.3 12.3-27.3 3-6.4 4-6.4 8.3-.2 3 4.4 5.8 8.9 8.7 13.4 7.2 11.3 14.3 22.7 21.9 34.7 4.8-8.8 2.7-18.3 7.2-26.7 8.3 10.9 10.5 24.1 18.4 35.5 5.4-10.7 4.9-21.7 9.8-32.2 7 9.1 13.2 17.2 19.3 25.3.7-.6 1.3-1 1.8-1.4zm-85.4-246.9c8.7 12.3 12.9 25.7 23.5 37.8 0-12.7.6-22.8 3.3-34 4.8 9.3 9.2 17.7 14 26.9 4.7-8.7 5.5-17.9 11.3-25.4 6.9 8.2 11 17.5 19.7 25.2-1.5-8.7-2.7-15.8-3.9-23-1.3-7.5-2.7-15-4-22.5-1.2-6.8-1.8-13.8-5.2-21.7-6.1 15.1-11.6 28.7-17.4 42.9-8.7-10.5-11.4-22.9-20.2-34.1-1.4 12.9-2.6 24-4 37.1-10.7-16.2-17.6-32.4-28.6-47.8-1.8 23.3-3.4 44.6-5.1 65.9-7.6-7.8-13.5-16-19.4-24.3-6-8.4-11.6-17.2-19.4-26.3-1.6 13.3.4 24.7-1.6 35.9-2 11.4-.8 22.8.4 34.6 5.1-11 10.1-22 15.2-33 9.6 9.6 18.9 18.9 29.5 29.4 5.6-14.7 5.8-29.1 11.9-43.6zm651.8-88.8c-.5 15.7-5.3 28.8-7.4 43.2 5-3.4 8.4-7.2 11.4-11.6 2.9-4.1 6-8 9.8-13.2.1 13-3.8 23.6-7.3 35.4 22.1-17.6 30.8-54.4 16.5-80.4-2.2 2 .1 5.3-2.7 7.3-4-3.5-3.1-10.1-7.8-13.1-3.3 7.3-1.3 16.1-6.6 23.9-2.6-4.8-4.6-8.5-6.7-12.3-5 3.2-1.7 10.1-6.7 12.9-1.9-2.8.7-6.8-3.4-9.8-7.8 18.4-18.6 35.1-24 54.7 13.7-9.5 23.2-23 34.9-37zm74.5 159.3c-2.1 5.3 3.3 9.9 2.1 15.7-8.2-6.2-13.5-14.7-22.6-20.6 2.7 11.2 7.5 20.3 9.1 30.1-2.1.9-3.2.2-4.1-.7-4.6-4.7-9.7-9-13.5-14.5-1.8-2.5-3-6.8-7.7-5.5.9 5.7 5.8 10.2 6 17.3-6.2-3.8-9.7-8.9-13.8-13.3-1.9-.5-2.8 0-2 2 1.7 4.4 5.2 8.1 5.5 13.5-10.7-2.7-15.4-12.6-24.7-18 .3 7.2 3.1 11.7 5.5 16.4.8 2.3.1 3.1-2.2 2.3-2.8-.3-7.6-3.4-5.1 3.6 5.9 15.9 15.4 29.6 26.2 44.3 1.6-6.1.5-10.8 2.3-15.2 1.8-4.5 1.5-9.8 6-14.9 3.1 10.5 10.7 16.6 16.7 24 3.5-2.8 1.9-6.8 2.1-10.2.2-5.3.9-10.4 4.4-15.1 6.7 3.3 7.6 11.4 13.1 15.7 1.4-5.5-.9-10.9 3.1-17.6 5.7 18.4 10.7 34.9 15.8 51.4 1.2-10.1 2-19.8.3-29.7-3.2-18-9.2-35.1-14.8-52.4-1.4-1-1.9-2.4-1.9-4-2.7-.9-2.4-4.4-5.8-4.6z"/><path fill="none" stroke="#000" stroke-linecap="round" stroke-linejoin="round" stroke-miterlimit="10" stroke-width="6" d="M1867.4 489.5l-3 7m-6 21c2.4-7 4.4-14 6-21m-705.3 610.6l-16-6.1 4.6 38.7c-3.7 6.6-1.9 9.5 5.5 8.7l21.8-3.7c6.1 1 7.6-2 4.6-9.1-1.7-6-5.7-12.7-12-20-.4-2.6-2.7-5.1-7-7.6l-1.5-.9m0 0l-.4-.9m705.7-609.7c5.2-23.6 5.4-46.7.6-69.3-11-38.7-33.2-69.7-66.5-92.9l.9 43.7c-2.6 7.4-6.4 8.4-11.5 3.1-13.1-17.6-29.3-33.5-48.5-48l-.3 14.6c-1 9-7.7 8-20.1-3l-19.9-18.7c-5.6 3.4-9.4 3.6-11.3.8-8.4-8.1-20.3-16.2-35.6-24.3l-16.3-4-.4 7.1c2.2 8.3-3.6 9-17.5 2.5-12.5-6.1-19.5-4.4-21.2 5.1-.7 5.8-4.8 7-12.4 3.5-3.1-3.4-6.9-3.7-11.1-1-1.8 2.4-6.2.9-13.3-4.6-8-7-19.7-14.5-35.3-22.6l-23.9-9.9c-3.4-4.3-9.4-4.6-17.9-.8l-13.5 4.9c-14.2-.6-26.3-2.7-36.5-6.5-12.7-3.8-19-.8-18.9 9.3-1.4 7.1-6.6 9.4-15.6 6.6L1373 284l.8 12.5c1.5 9.4-4.9 14-19.2 13.6l-32.1-7.1c-8.5-2.8-12 2.2-10.6 15.1.3 8-8.7 9.9-27 5.9-7.8-2.9-11.6-.5-11.5 7 3.6 14.5-.2 20.3-11.3 17.2l-16.8-2.4c-11.7-1.1-16.1 1.7-13 8 1.4 9.1-1.9 14.7-9.9 16.6l-14.6 4.3c3.4 8.3-2.4 15-17.3 20.3-6.2-1.6-11.6 1.1-16 8-8.9 12.2-21.7 20.5-38.5 25l-22.5 1.5 7.5 22.6c3.5 19.6-1 26-13.3 19.4l-19.2-2.8 9.7 30c1.8 8-4.6 11.4-19.2 10.2-12-1.3-24.5 2-37.4 9.5l36.1 22.2c-21.4 5.8-36.7 13.9-45.7 24.7l23.5 4.4-30 24.8c9.5 4.2 14.4 15.3 14.9 33.2l50.9 228.2c1.1 18 6.5 28 16.4 29.9l49 4.9c14.3-.8 24 7.3 29.1 24.4 1.8 11 5.1 23.5 10 37.6l8 32c22.3 14.9 42 21.3 59.4 19l-9-77.6c-9.4-63.5 6.1-91 46.4-82.2l25.4 4.2c4.4-9.6 5.5-23.7 3.2-42.4l-11.5-51.6c-11.6-48.5-13.9-83.7-6.9-105.5 14.5-42.5 39.8-72.8 76.1-91.1 28.2-15.8 65.2-20.4 110.9-13.6 27.8 5.1 64.2 16.3 109.1 33.6 69 30.6 134.9 30.5 197.9-.1 10.5 34.5 30.4 72.5 59.7 114.1 21.9 36.9 36.9 79.9 45 128.6 30.4-66.9 33.5-132.7 9.4-197.5-20.1-44.7-47.3-67.4-81.5-68 11.7-17.2 20.7-36.6 27-58.1"/></svg>