<svg xmlns="http://www.w3.org/2000/svg" id="hair" viewBox="0 0 3000 3000"><path id="cl1" fill="#57D8B5" d="M1636.342 609.257l25.188-.3c-8.396-6.7-16.406-12.1-23.645-16.399l-1.543 16.699zm238.939-149.9c-34.74 20.2-42.654 34.6-23.74 43.2l50.375 9.5c-30.688 34.899-36.188 54.5-16.115 58.8l34.451 7.4c-34.355 31.8-63.76 52.699-40.406 62.699L1905.5 644c2.799 23.199-4.479 34.4-16.06 60-9.844 14.601-9.82 26.167 12.471 22.967-9.939 17.899 16.198 31.813-9.085 52.212-6.947 17 3.571 24.829 39.952 17.93L1916 828c-9.65 17.8-14.011 32.819 6.931 34.919l-12.444 21.66c-9.746 7.8-12.193 16.371-2.736 24.171l-30.953 43.729c.482-12.4 5.018-30.101 13.703-53.301 13.896-62.199-29.193-103.322-42.027-143.921-7.914-41.9-14.08-80.5-25.08-104.9l-18.943-43.3-73.922 1.2-29.24.199c-3.184-8-6.852-16.199-10.711-24.399 3.859 8.2 7.527 16.399 10.711 24.399v.5h.289c7.143 18.101 12.545 35.5 16.213 52.301-20.939-22-39.758-39.4-56.26-52.301-8.396-6.699-16.406-12.1-23.645-16.399l-1.543 16.7-2.703 27.699-21.713-27.5-11.967-15.1 11.967 15.1-48.25.7c2.314-7.2 5.016-14.5 8.01-21.899-2.994 7.399-5.695 14.699-8.01 21.899-8.107 24.601-12.354 48.101-12.932 70.3-7.045-16.899-13.223-40.199-18.432-69.899-.676-3.8-1.256-7.601-1.932-11.5.676 3.899 1.256 7.7 1.932 11.5l-35.516.399c6.082-6.399 12.354-12.399 18.723-18.199-6.369 5.8-12.641 11.8-18.723 18.199-17.177 17.7-33.678 37.801-49.505 60.4-3.474-18.4-3.474-37.3 0-56.3.193-1.1.386-2.3.676-3.5 2.798-13.6 7.43-27.5 13.896-41.5-6.465 14-11.098 27.9-13.896 41.5l-113.583 1.5-29.916 38.4c-2.799 68.899-9.746 106.199-20.941 111.899-11.194 5.7-21.327 7.2-30.301 4.8-23.451-5.699-35.707.301-36.575 17.9l3.088 213.3-53.656-90.5c-1.64-8.6-11.29-14.8-29.047-18.6-32.907-4.4-63.596-16.7-92.064-37.101l27.89-4.699c8.396-2 9.071-8.601 1.93-19.801l-35.706-64.5 23.064 1.4-.482-39.4 16.501 5.601c8.203 5.1 11.484-2.3 10.037-22l1.64-108.8c16.792 26 26.635 24.1 29.531-5.4l12.834-70.6c11.485 13.6 18.529 13.199 20.942-1.2 2.219-47.3 9.263-76.4 21.133-87.5 5.501 39.6 12.16 47.7 19.976 24.5l40.627-85.9 29.144 46.4c14.958-28 35.127-51.7 60.604-70.801l45.549-35.1 14.476 45.9c22.775-21.601 44.584-37.301 65.428-47l9.844 42.6c2.605 13.7 26.345 10.2 71.412-10.3l46.322-27.7c7.141 10.1 11.869 27.5 14.186 52.1.674 7.7 5.211 7.5 13.51-.6l39.662-30.7c1.063 41 10.424 58.101 28.18 51.101l80.096-29.601c-17.467 27.101-18.527 40.3-3.279 39.7l75.852-2.1c-24.031 30.7-29.338 47.1-15.73 49l65.135 11.603zm-653.998 172.1c-5.018-15.7-9.36-35.2-13.124-58.2l63.402 39.301-63.402-39.301c3.764 23 8.107 42.5 13.124 58.2-18.046-5-37.154-13-57.419-24.3l40.146 53.9-40.146-53.9c20.266 11.3 39.374 19.3 57.419 24.3z"/><path id="sd1" fill="#48B295" d="M1212.406 662.657c2.798 2.2 1.35 4.7.385 7.2-2.702 6.8-3.377 14.2-4.15 21.4-1.834 18.1 2.606 35.1 11.967 50.3 5.886 9.5 16.308 12.399 26.248 15.1 12.932 3.5 26.153 1.3 39.277 2.4-2.219 6.899-6.948 9.8-13.896 9.8-8.01 0-16.019.2-24.029-1.3-5.115-1-10.23-1.2-15.345-.8-8.589.699-13.221 5-15.44 13.8-1.641 6.5-1.352 13.2-1.448 19.899-.386 37.601.096 75.2 1.641 112.801.965 24.3 1.64 48.6 2.413 72.899.096 3.5 0 7-1.545 11-4.246-7.3-8.395-14.6-12.641-21.8-13.606-23.7-27.407-47.4-40.82-71.3-2.992-5.4-6.949-8.101-12.643-9.4-16.309-3.7-32.424-8.2-48.734-11.7-22.099-4.699-39.662-17.899-58.576-31.199 8.685-2.801 16.598-2.7 24.317-3.801 12.546-1.899 13.415-3.8 7.142-15-12.834-22.699-25.766-45.3-38.697-67.899.192-3.4 2.123-3.601 4.632-2.601 3.474.5 6.949 1 10.422 1.601 8.782 1.399 10.905-.7 10.133-10.2-.772-8.9-1.544-17.8-2.413-27.9 6.369.8 10.712 4.2 15.537 6.2 7.913 3.4 10.326 2.1 11.677-6.8.579-3.9.772-7.9.772-11.9 0-33.6-.096-67.2-.194-100.8v-10.5c3.668.5 4.343 3.9 5.984 5.9 2.702 3.3 4.825 7.1 8.299 9.6 6.176 4.5 10.905 2.8 13.221-4.5.676-2.2 1.158-4.5 1.544-6.8 4.728-26.8 9.36-53.6 14.089-80.4.193-.899.096-2.1 2.316-2.5 2.702 1.3 3.667 5 5.693 7.7 1.833 2.5 3.764 4.5 7.141 4 3.763-.6 4.054-3.7 4.438-6.7 1.737-13.2 3.185-26.399 5.212-39.5 2.124-14.1 3.763-28.399 9.553-41.6 1.833-4.101 3.377-8.601 7.238-12.101 2.799 6.5 3.474 13.101 4.343 19.601-3.281.1-4.246 2.7-5.115 5.2-6.175 18.8-10.904 37.8-12.448 57.899-1.063 13.601-1.063 27.101-1.641 40.7-.58 13.1 2.027 25.7 3.86 38.4.483 3.2 2.798 5.2 3.86 7.899-.193 2-6.852-.5-2.798 4.5 12.545 15.601 24.223 32 35.513 48.5 3.476 5.102 8.494 4.802 13.706 4.702zm636.85 76.5c-2.946 41.029 46.244 77.093 39.201 136.222-4.439 21.1-4.809 41.8-10.502 62.6-.965 3.601-9.283 7.2-7.254 12.7 18.045-15.2 21.742-27.799 39.4-42.6-10.42-10.3-6.078-21.528 4.148-30.329 6.949-5.899 6.617-5.351 11.25-13.75-3.379-.7-11.797-7.601-14.5-8.5-16.115-5.4-1-16.845 4.944-29.206 1.061-.699 9.65-14.903 10.52-15.903 9.07-10.2 5.349-3.211 10.657-16.112-3.377-1.5-6.389 1.055-8.512 1.456-9.457 1.899-5.438 3.897-15.088 1.497-4.535-1.1-20.303-1.927-21.654-7.127s3.328-13.348 6.898-16.548c1.93-1.699 4.859-7.907 6.984-9.306.859-5.856-5.693-8.851 0-14.25-.5-6-8.715-8.843-.609-23.442-5.404-.8-3.68.084-7.637.784-5.598.9-10.895.459-14.754-5.842-3.668-6 3.024-12.7 6.69-17.5 3.764-5 7.13-10.1 9.06-16.199 5.404-16.9 9.176-24.501 8.5-42.301-2.219 2.1-10.098 8.808-10 11.308.289 6.199-5.147 5.942-7.56 11.442-12.352 28.5-9.979 42.007-35.265 57.207-2.51 1.5-5.018 3.2-8.01 1.101.101 4.498 1.837 8.598 3.093 12.598zm-592.942-327.2c-5.79-11.1-11.677-22-17.661-33-1.157-2.1-1.64-5-4.921-5.7-2.317 4.4-5.308 8.3-6.273 13.2 1.834 1.3 2.124 3.2 2.219 5.2.676 20.899 4.054 41.4 8.01 61.8 1.352 6.8 2.123 14.2 7.817 21.9.965-2.101 1.641-3.3 2.123-4.5 6.08-16.4 10.518-33.3 14.86-50.2-2.989-2.3-4.534-5.5-6.174-8.7zm291.823 264.7c.58.9 1.158 1 1.834 0 1.738-30 11.58-58.1 18.914-86.9.58-2.3 1.545-3.5 3.959-3 .77 1 1.447 1 2.121-.1 4.826-11.7 9.555-23.3 15.055-36.6-17.564 11.2-28.66 26.1-38.697 42-7.623 12.1-7.527 26.399-9.07 40.2-.387 3.5 1.156 7.399-1.836 10.399 1.062 11.701 4.247 22.801 7.72 34.001zm-99.88-5.1c26.731-38 36.285-49.5 59.06-71 2.221-.801 4.344-1.7 5.791-3.801 7.623-7.1 9.939-16.899 14.281-26.199-3.859-.801-5.402.899-7.238 2.199-7.719 5.4-14.475 12-21.712 18-14.958 12.4-27.117 27.101-37.443 43.601-5.694 9.1-10.229 19-15.247 28.5-.097 3.1-.772 6.5 2.508 8.7zm142.245-304.8c-2.123-15.6-3.088-31.5-9.648-46.1-.678 3.2-1.738 6.399-1.836 9.7-.676 17.199-4.342 33.899-7.141 50.8-2.219 13.399-5.115 26.6-7.816 40.7 9.65-8 20.072-22.7 32.232-45-5.213-1.301-5.213-5.801-5.791-10.1zm-210.761-16.3c-2.798-10.8-6.08-21.6-9.168-32.3-.675-2.4-1.35-4.9-4.053-1.601 3.764 4 2.51 9 1.641 13.2-2.702 12.7-1.158 25.7-3.185 38.601-2.026 13.399 2.123 26.7 1.834 40.8 4.149-2.601 4.052-6.7 5.114-9.9 4.825-13.7 12.159-26.399 15.923-40.5-4.729-.5-6.852-3.6-8.106-8.3zm361.884 32.8c3.475-7.3 7.914-14.1 12.449-22.2-5.113 1.5-9.361 2.2-13.027 4.9-3.57 6.7-10.422 9.4-15.924 13.7-9.844 7.7-19.686 15.399-28.273 26.7 6.656.399 11.771.1 17.08-.601 10.422-1.3 20.264-6 30.977-5.2-6.37-6.699-7.239-9-3.282-17.299zm-268.76-18.201c-12.352.7-12.835.301-14.958-12.3-1.737-10.1-2.509-20.399-5.984-30.1-1.061.8-1.833 1.8-2.026 3.2-3.764 26.899-6.949 53.899-8.589 81.3 3.282-7.7 8.589-13.8 13.125-20.5 6.658-9.8 12.448-20.8 26.152-21.601-2.605-.098-5.21-.198-7.72.001zm176.022 11.301c-1.641-6.101-2.219-12.4-1.93-18.801.193-6.1 0-12.199 0-18.3-2.316-.1-3.766 1.101-4.826 2.9 2.992 5.2-1.063 9.399-2.412 13.8-4.246 14.3-7.238 28.7-6.854 43.7.195 6.8 1.547 8.1 7.336 6 8.975-3.2 17.854-7 25.477-13.2-10.133-.099-14.477-7.199-16.791-16.099zm158.07 51.199c3.766-8.5 10.133-15.1 14.766-23-16.695 9.7-33.68 18.9-49.602 30.7 8.877 6.9 23.834 11.5 34.836 11.101-3.859-6.2-2.894-12.4 0-18.801zm69.772 121.401c3.668-7 8.396-13.1 12.932-19.399 4.15-5.7 9.264-10.7 12.256-17.4-2.221-1.9-4.439-1.3-6.563-1.1 0 2.6-1.447 4.3-3.184 5.899-12.738 12.101-23.258 26.4-35.514 39-1.641 1.7-4.342 3-4.15 6 7.432 3.5 15.15 5.5 23.258 4.9-3.184-6.2-2.025-12.1.965-17.9zm17.756 58.6c3.379-5.101 7.045-9.9 10.52-14.9-6.08 1.6-10.035 6.8-15.055 10-9.457 6-42.625 12.4-52.564 19.2 4.826 1.8 8.686 2.8 12.834 2.899 5.693.2 11.389 1.2 15.537 5.801-2.124-8.4 24.097-16 28.728-23zm-46.61-129.2c1.736-1.8 3.281-3.8 4.922-5.7-16.6 6.1-34.066 17.5-38.891 25.8h29.818c-3.956-7.9-1.155-14.3 4.151-20.1zm-211.244 125.5c4.729 7.3 4.824 7.3 13.221 4.7-.965-3.5-4.15-4.9-6.08-7.4-1.35-1.7-3.957-3.5-1.738-5.8 1.738-1.9 3.475.5 4.922 1.5 2.316 1.8 4.439 3.899 6.66 5.7 10.615 8.6 19.688 19.1 31.266 26.3-8.781-13.8-32.328-36.2-43.328-41.101-2.414 5.301-2.605 12-8.299 15.301 1.157.2 2.316-.7 3.376.8zm-63.498.9c-.098 4 .867 6.301 5.307 6.2 7.914-.2 15.924-.1 23.643-.1.869-3.5-1.736-4.9-2.025-7.2-.484-3.3.674-5.1 3.957-5.3-8.107-5.9-7.914-5.7-16.311-.3-3.859 2.5-7.141 6.399-12.641 7v-18.3c-.771 0-1.449.1-2.123.1 0 5.9.289 11.9.193 17.9zm-170.521-136.4c13.993 8.1 26.442 18.899 40.145 27.399 4.342.301 7.817 2.7 10.808 5.7 10.422 10.5 21.327 20.601 29.434 33.4.192 1.2.192 2.5-.387 3.6-3.86 8.9-11.58 15.4-14.475 25 13.896-14.1 28.855-26.8 44.391-38.899-.482 2.6-1.543 4.6-2.412 6.8-2.703 7.1-5.404 14.2-8.01 21.3-.579 1.5-.771 3.5.578 4.7 1.545 1.5 2.896 0 4.15-.9 1.545-1.1 3.379-2 4.826-3.3 10.324-9.5 21.422-17.9 31.17-28 2.025-2.1 3.764-4.9 7.238-4 17.273 4.4 35.223 6.7 50.566 17.6 6.465 4.7 12.836 9.9 20.846 11.9-13.607-13.3-28.469-24.4-47.094-29.2 1.156-2 1.93-3.399 2.799-4.8 3.377-5.3 9.359-8.1 12.447-13.6a13.71 13.71 0 0 0 1.158-2.4c.098-.4.193-.9.289-1.3 1.738-5.601 5.502-9.601 9.266-13.7 8.299-8.7 16.984-17.1 24.125-27 5.598-7.7 11.389-15.2 17.082-22.7-34.549 14-60.799 40.4-91.678 62.101 5.789-21.101 17.658-39.7 14.186-62.101-16.213 19.101-34.451 36-47.674 57.8-11.193-17.5-18.527-37-34.644-50.3-1.447 3-.869 4.9-.386 6.8 3.282 11.4 6.851 22.801 9.747 34.301 1.641 6.6 5.983 11.6 10.52 18.6-20.17-9.9-38.312-19.2-56.647-27.9-15.151-7.199-30.398-14.1-46.321-19.199-3.571-1.2-6.948-1.7-12.063-.601 5.597 2.3 9.748 3.9 13.8 5.7 1.448.7 2.799 1.9.869 3.7-.29 1.499.192 2.799 1.351 3.499z"/><path fill="none" stroke="#000" stroke-linecap="round" stroke-linejoin="round" stroke-miterlimit="10" stroke-width="6" d="M1447.968 611.557l-113.583 1.5-29.916 38.399c-2.798 68.9-9.746 106.2-20.941 111.9-11.194 5.7-21.327 7.2-30.301 4.8-23.45-5.7-35.707.3-36.575 17.9l3.088 213.3-53.655-90.5c-1.641-8.6-11.291-14.8-29.048-18.6-32.907-4.4-63.595-16.7-92.063-37.101l27.889-4.7c8.396-2 9.071-8.6 1.93-19.8l-35.706-64.5 23.064 1.4-.482-39.4 16.501 5.601c8.203 5.1 11.484-2.301 10.037-22l1.641-108.801c16.791 26 26.634 24.101 29.53-5.399l12.834-70.601c11.485 13.601 18.529 13.2 20.942-1.199 2.219-47.301 9.263-76.4 21.134-87.5 5.5 39.6 12.159 47.699 19.976 24.5l40.628-85.9 29.143 46.399c14.958-28 35.127-51.699 60.604-70.8l45.548-35.1 14.476 45.899c22.775-21.6 44.584-37.3 65.429-47l9.843 42.601c2.605 13.7 26.346 10.2 71.412-10.3l46.322-27.7c7.141 10.1 11.869 27.5 14.186 52.1.674 7.7 5.211 7.5 13.51-.6l39.662-30.7c1.063 41 10.424 58.1 28.18 51.1l80.096-29.6c-17.467 27.1-18.527 40.3-3.279 39.7l75.852-2.101c-24.031 30.7-29.338 47.101-15.73 49.001l65.139 11.6c-34.74 20.2-42.654 34.6-23.74 43.2l50.375 9.5c-30.688 34.899-36.189 54.5-16.117 58.8l34.451 7.4c-34.354 31.8-63.758 52.699-40.404 62.699L1907 645.5c2.799 23.199-9 38.357-20.582 63.957-9.842 14.601-3.57 20.301 18.723 17.101-9.939 17.899 12.969 32.222-12.314 52.621-6.949 17 7.914 22 44.295 15.101l-25.863 39.1c-9.65 17.8-4.053 27.7 16.889 29.8l-17.66 21.4c-9.746 7.8-9.844 15.7-.385 23.5l-38.305 44.4c.482-12.4 8.018-30.101 16.703-53.301 8-87.179-25.271-97.323-38.105-137.923-7.914-41.9-16.002-86.498-27.002-110.898l-18.945-43.3-73.92 1.2m-118.603 1.199l21.713 27.5 2.703-27.7m0 0l25.188-.3m39.757 0h.289m0 0c-.096-.2-.193-.399-.289-.5m0 0c-3.184-8-6.852-16.2-10.711-24.399m-29.046 24.899c-8.396-6.7-16.406-12.1-23.645-16.399l-1.543 16.699m94.186-1l-29.24.2m.288.5l28.951-.7m-200.146-9.2c.676 3.899 1.256 7.699 1.932 11.5m-16.793-17.8c-6.369 5.801-12.641 11.801-18.723 18.2m35.516-.4l-35.516.399m115.129-1.499l-11.967-15.1m-28.273-6.1c-2.994 7.4-5.695 14.7-8.01 21.9m0 0l48.25-.7m-79.613 1.1c5.209 29.699 11.387 53 18.432 69.899.578-22.2 4.824-45.7 12.932-70.3m97.853-1.199c16.502 12.9 35.32 30.3 56.26 52.3-3.668-16.8-9.07-34.199-16.213-52.3m-253.609 2.6c-.29 1.199-.482 2.399-.676 3.5-3.474 19-3.474 37.899 0 56.3 15.827-22.601 32.328-42.7 49.505-60.4m-34.932-40.9c-6.466 14-11.098 27.899-13.896 41.5m-176.407 1l-63.402-39.301c3.764 23 8.106 42.5 13.124 58.2-18.046-5-37.154-13-57.419-24.3l40.146 53.9"/></svg>