<svg xmlns="http://www.w3.org/2000/svg" id="hair" viewBox="0 0 3000 3000"><path id="cl1" fill="#42322B" d="M1884.1 1106.6c-.699.1-1.399.3-2.1.399-11.102 1.101-21.9.5-32.102-4.899-10.5-5.601-16.801-13.3-17.101-25.9-.302-13.1 1.899-24.897 10-35.7 11.101-14.6 12.801-32.5 16-49.897.698-3.8-3.302-6.5-2.699-10.4.899-8.698 10.101-11.198 13.5-18.8 3.8-8.6 4.899-16.2 5.101-25.7.301-16.3 1.199-19.1 12-33.3 8.199-10.8 13-22.1 15.199-36 2.5-15.6 7.102-30.8 7.899-47 .5-9.1 6.899-17.2 12-25 6-9.398 8.899-18.3 1.198-28.5-4.5-5.898-.8-12.6 1-18.6 1.802-5.9 5-11.4 7.102-17.303 2-5.697 4.101-11.697 2.398-17.6-3-9.7-1.198-18.9.4-28.5 3.301-19.9-3.699-38.7-6.801-58-.899-5.4-5.399-9.4-10.399-11.5-15.601-6.8-18.899-20.3-19.7-35.2-.3-5.3.102-10.7-.5-16-1.5-14.5-7.8-21.7-22.198-21.897-11.199-.103-18.699-4.5-25.101-13.103-7.301-9.8-17.101-16-28.899-20.2-16.699-6.1-30.399-17.8-43.601-29.5-4.699-4.1-11.601-6.8-12.801-14.3 3.1-4.8 7.699-8.1 11.801-11.897 4.199-3.9 8.199-3.801 10.5 2 2.101 5.397 5.699 7 11 5.397 1.301-.397 3-1.1 3.899-.397 9.399 7 21.899 10.8 27.399 21.8 3.398 6.8 6.398 9 12.699 4.897 5.899-3.8 11.101-3.697 16.101 1.4 2.801 2.9 6.399 4.2 10 2.1 6.899-4 10.399-.5 12.5 5.5 2.5 7.303 6.601 8.303 12.899 4.2 4.699-3 9.601-3.3 13.199 1.8 4 5.5 8.602 5.4 13.899 2.4 4.301-2.4 8.101-2.9 12.101 1.2 3.102 3.2 10.602 1.1 12.301-2.9 1.399-3.397-1.101-4.2-3.399-4.6-5.601-.8-11.3-.4-17-.4-9.199.103-16.699-2.6-22.399-10.397-13.601-18.5-31.601-28.103-55.101-25.603-3 .3-6 .103-9 0-14.5 0-14.5 0-19.5-14.1-1.3-3.603-3.199-6.5-6.399-8.7l-1.199-.6c-7.699-2.303-14.899-4.5-17.801-13.603-1.601-4.9-7-5.5-12-4.7-4 .603-7.601 2.4-11.5 3.2-10.601 2.2-14.199-.3-16.4-10.9-1.898-9.3-6.1-11.697-14.898-8.3-6.5 2.603-12.102 6.8-17.899 10.7-3.698 2.5-7.601 6.3-12.399 3.101-4.801-3.198-1.699-8.198-1.399-12.301.2-2.6.7-5.5 2.5-7.897-7.399 12.6-.5 22.897 5.301 33.3 2 3.5 6 6.7 2.601 11.602-8 5.398-16.199 3.898-24.199.5-3.899-1.699-7.602-4.102-11.199-6.5-6.898-4.602-14.398-6.899-22.801-5.199-8.602 1.699-15.899-.5-21.301-7.603-7.699-10.1-16.601-14.6-29.5-8.899-5.399 2.399-11.899 1.399-17.699-.398-7.699-2.4-15-1.8-22.399 1.2-8.198 3.397-16.198 3-23.801-2.103-8.199-5.397-16.8-6.1-25.5-1.199-8.8 5-16.601 3.302-23.699-3.301-2.698-2.5-5.698-4.6-8.698-6.8-7.4-5.3-15.2-5.897-22.102 0-11.301 9.4-23.801 10.7-37.601 8.3-13.302-2.3-26-.199-37.302 7.4-11.698 7.8-24.5 11.7-38.6 11.9-11.101.1-18.9 5.397-23.601 15.5-1.3 2.699-2.601 5.397-4.199 7.897-5.301 8.103-9.601 9.4-18.5 5.9-1.899-.7-3.601-1.7-5.5-2.4-10.399-4-15.101-1.897-19.601 8.5-1.2 2.8-2.2 5.603-3.301 8.4-3.5 8.397-9.101 13.897-18.801 13.897-6.601 0-9.5 3.9-10.801 9.7-1.199 5.5-1.899 11.2-2.899 16.7-2.101 11.5-7.899 14.8-19.198 11.7-19.602-5.5-26.4-2.2-31.302 17.399-2.101 8.301-7.399 14.601-10.399 22.198-1.699 4.103-5.601 4.2-9.199 4.5-11 .9-16.6 7.302-18.899 17.5-1.7 7.5-2.601 15.103-5.7 22.2-2.198 5.102-5.1 9.5-11.3 10-9.601.8-13.399 6.8-13.399 15.5 0 9.602-1.399 18.5-8.699 25.7-2.399 2.399-3.102 6-2.602 9.399 1.602 11 .602 22 1.102 32.898.5 10.602 3.199 20.4 10.101 28.7 6.302 7.6 7 15.5 1.899 24-5.801 9.7-10.699 20-16.102 29.898-7 12.802-15 14.602-29.3 12.102-23.601-4.102-34.899-19.5-42-40.3-3.399-9.9-9.7-17.102-19.398-22.802-18.802-11.101-40.4-16.898-57.4-31.198-4.6-3.802-11.8-3-15.699-8.2-4.398-5.7-6.7-12.2-6.301-19.5.9-14.8-1.699-29.102-6.6-43.2-4.9-13.898-2.5-28.2-.602-42.398 3.102-19.5 9.8-37.899 17.8-55.802 15-33.5 34.302-64.397 56.4-93.699 6.8.899 8.5-2 6.1-8 1.2-1.398 2.4-2.898 3.602-4.301 4.8-2.699 10.199 3.603 14.199 0 3.899-3.6 0-9.5 1.699-14.1 1.102-3 3-5.802 2.899-9.302 1.2-1.398 2.5-2.801 3.7-4.198 8.898-2.103 15.199-6.603 15.398-16.7 1.801-2.8 3.801-5.4 6.5-7.4 5.2 1.103 8.399-2 10.899-5.699 5.801-8.698 12.2-14.301 23.601-9.101 5.5 2.5 9.102-1 10.102-6.3 1-5.7 3.601-9.8 9-12.3 2.898-1.302 4.8-4 4.898-7.103.2-7.5 4.102-13.397 7.801-19.3 2.199-2.6 4.899-4.5 8-6 .699.5 1.301.4 1.899-.2l-.301-.1c2.801-1.602 5.801-2.3 9-2.9 5.801-1 10.101-4 9.2-11 2.898-2.699 6.101-4.8 9.8-6.3 2.399.5 4.601 1.7 6.601 3 11.399 7.2 12.5 7 19.899-4.8 4.101-6.602 9-12.5 14.899-17.5 2.399-2.102 5.801-4.7 9.101-3.7 12.801 4.101 17.2-5.899 23.101-13.3 3.2-2 6.801-3.102 10.602-3.4 7.101 7.7 14.601 10.301 23.3 2 1.899-1.8 5.601-1.5 7.601.2 6.2 4.9 11 1.8 16.102-1.8 5.3-3.9 11.199-5.2 16.5-.4 4.398 4 6.699 1.5 9.898-1.5 10.301-9.8 14.801-10.199 27-2.3 4.399 2.9 8 2.5 11.801-.7 2.801-2.397 5.399-4.897 8.601-6.897 8.7-5.4 12.899-4.7 17.2 4.6 3.3 7 6.898 7.2 12.101 2.5 1.699-1.6 3.399-3.3 5.3-4.6 8.102-5.802 14.2-5.5 20.899 2 4.801 5.198 8.601 5.5 13-.103 4.2-5.397 10-8.699 16.101-11.397 9.301-4.103 13-2.802 18 5.8 6.7 11.6 7.102 11.6 16.899 2.6 4.399-4 9.101-7.8 14.7-10.199 9-3.898 13.5-2.5 18.5 5.899 5 8.5 5.398 8.601 13 1.7 3.398-3.102 6.8-7.3 11.8-5.3 5.101 2.1 6.399 7.198 6.301 12.198 7.601-9.301 28.302-16.101 36.601-9 7.699 6.602 13.199 12.699 23.601 6.602 1.301-.7 3.2.6 4.5 1.7 5.399 4.8 11.399 4.8 17.7 2.6 2.8-1 5.5-.8 7.898.601 14.7 8.399 31.301 5.102 46.899 7.302 30.5 8.397 60.101 19 88.2 33.8 3.898 5.398 8.699 9.1 15.8 8.2 7.2 3.198 13.899 7.1 20.301 11.6 1.802 8 9.5 10.2 15 13.3 9.5 5.302 18.101 10.802 24.601 19.802 2.699 3.698 7.699 4.698 12.5 4.898 1.801.8 3.199 2 4.101 3.8.101 1.4.399 2.7 1.399 3.603 10.899 9.198 17.399 22.698 29.699 30.6 5.5 3.5 9.602 8.3 12.301 14.602 3.399 8.101 9.199 14.198 18.699 15.301 18.7 20.5 33.899 43.6 48 67.399 32.602 54.801 53.7 113.601 60.399 177.301 2.2 20.897 2.301 41.897.7 62.8-.899 11.7-4.399 22.899-8.301 33.899-12.699 36.601-29.399 71.398-46.601 106-26.5 53.398-55.301 90.601-84.2 142.698-1.101 2-2.101 4.2-3.398 6.103-5.5 8.5-6.2 16.3 2 24 5.101 4.8 8.3 11.199 11 17.699 5.101 12.398 4 24.101-4 34.898-5.801 7.801-12.399 14.801-21.7 18.7-.803.806-1.503 1.506-2.303 2.006z"/><path id="hl1" fill="#5B463C" d="M1689.9 254.1c-10.601 3.1-21.801 2.2-32.5 5-3.899 1-7-1.4-9.801-3.9-4.399-4.1-9.399-5-14.699-2.5-6.301 2.9-12 3.4-17.101-2.5-2.899-3.3-5.699-1.6-8.5 1-7.199 6.5-10.199 5.8-15-2.8-7.301-13.2-9.199-13.603-23.399-9.103-9.399 2.9-13.7 9.7-17.801 18.103-1.101-4.7-1.899-9.4-3.5-14-1.899-5.8-5.101-6.4-9.5-2.103-3.199 3.103-4.8 7.2-7.199 10.7-3.301 4.8-6 4.603-8.7-.5-1.699-3.2-2.699-6.8-4.1-10.2-3.602-8.5-7.4-9.8-15.5-5.1-6.102 3.5-11.2 8.1-14.9 14.3-5 8.3-10.199 8.2-15.699 0-2-3-3.199-6.6-5-9.8-3-5.4-5.801-6.4-11.601-4.2-8.101 3.103-14 8.603-17.899 16.5-4 8.103-5.898 8.103-11.699 1.2-1.699-2-3.102-4.3-4.801-6.4-4.699-5.697-8.398-6.3-14.601-2.1-2.7 1.9-5.101 4.3-7.5 6.5-2 1.8-3.7 3.9-5.8 5.5-5.2 4.102-8.4 3.2-10.301-3-.602-1.899-.699-3.899-1.199-5.899-2-7.801-5.301-9-12.102-4.198-4.101 2.897-7.398 6.698-10.699 10.397-5.699 6.4-6.699 6.301-11.699-.897-6.9-9.7-14.601-10.302-22.801-1.302-3.1 3.399-5.5 7.399-8.1 10.899-3-.2-3.102-2.6-4.102-4.2-4.5-7.5-8.199-8.397-15.398-3.897-1.4.897-2.602 2-4 3-2.602 2-4.4 5.397-7.9 5.897-3.699.5-4.199-3.8-6.399-5.6-3.5-2.9-7-1.9-10 .397-3.899 3.103-7.3 6.803-11.2 9.9-3.8 3.1-6.1 2.2-6.898-2.5-1-5.6-1.5-11.2-2.301-16.8 27.301-8.9 55.5-13.8 83.801-18 59.199-8.7 118.699-10.603 178.301-7.603 54.899 2.803 109.301 10.303 162.602 24.4 5.795 1.709 11.494 3.709 17.195 5.409zM1060 376c7.698 6.301 9.5 5.9 14.898-3.199 5.5-9.301 9.399-10.301 18.602-5.101 7.898 4.5 12.5 2.9 15.6-5.7.699-1.897.9-3.897 1.199-5.8.699-4 2.199-7.2 7-6.7 5.101.5 6.5-2.5 6.5-6.6-.199-9 1.301-17.9 2.399-26.8-23.899 18-45.698 38.201-66.198 59.9zm103.9-86.199c2 5.602 6.101 9.5 10.699 12.899 7.5 5.601 11.399 4.8 15.801-3.5 4.199-8 9.101-15.5 15-22.3 5-5.7 5.399-6 12.3-1.9 3.7 2.2 7 2.603 9.9-.6 4.6-4.9 8.199-10.5 11.199-16.4.898-1.699-.102-3.199-1.301-4.5-26.198 8.801-50.598 21.2-73.598 36.301zm706.5 59.699c-.801 5.4.399 10.301 5.101 13.2 5.601 3.4 8.5 8.2 9.801 14.3 1.101 5 4.101 8.4 9.301 9.301 9.5 1.699 14.5 7.5 15.898 16.802.199 1.6.699 3.3 1.301 4.8 2.101 5.898 4.898 7.898 11.199 8 3.399 0 6.602-.7 9.602-2.3C1913.9 390.2 1893.1 368.9 1870.4 349.5zm-854.702 78.2c3.899 3 7.602 6.3 11.7 9 6.602 4.3 9.899 2.8 10-5 .199-9.2-.898-18.399-3-27.399-6.598 7.5-13.2 15-18.7 23.399zm798.5-119.899c-1.601 5.899 1.802 9.399 6.302 12.102 4 2.3 8.198 4.2 12.398 6.2 6.399 3 11.5 7.397 15.399 13.397 5.5 8.801 7.198 9.2 18 6.301-15.997-14.601-33.397-27.301-52.099-38zM1135.8 309.9c3.5.7 7.101 1.2 10.601 2 9.801 2.398 13.301-1.102 10.801-11-.5-2-1.699-3.5-3.101-4.9-6.501 4.1-13.301 7.801-18.301 13.9zm-97.601 90.3c4.898 1.5 10.301 4.9 14.601.601 4.698-4.601 3.1-10.801 1.1-16.5-.1-.301-.198-.601-.399-.898-5.702 5.097-10.601 10.797-15.302 16.797zm729.901 63.7c-6.8-6.1-13.898-11-23.898-8.4-4.899 1.303-8.701-2.397-12.302-5.3-5.399-4.397-11-8.397-17.8-10.3-8.2-10.3-12.2-21.9-12.2-35.102 0-8.898 4.7-13.698 11.802-17.5 2.299 2.802 1.101 5 .5 7.199-1 3.5-2.302 7-3.302 10.5-.6 2.103-2 4.7.7 6.301 2 1.102 3.8-.5 5.398-1.601 6.2-4.5 12.602-8.7 19.602-11.899 3-1.398 6.101-2.801 9.5-3.101 6.601-.7 10 1.8 11.5 8.3.199.603.199 1.301.3 2 2.2 13.2 3.601 14.103 16.101 10.4 4.5-1.3 9-2.603 13.7-2.9 5.3-.3 9.5 1.5 10.601 6.9 1.801 8.7 7.699 11.9 15.699 12.7 1.602-.3 2.2.397 2.102 1.897 4.601 2.7 7 6.5 8.101 11.9 1.601 8.3 3.5 9.7 12.199 10 8 .3 16 .2 24 .3 12.601.103 23.399 4.603 32.198 13.603 4.4 4.5 9.201 8.8 13.201 13.6 4.898 5.9 11 8.4 18.299 8.5 7 .1 14 .1 21 .2 2.302 0 4.701 0 7 .3 5.602.9 6.701 3.5 3.201 8.2-3.399 4.7-8 8.1-13.302 10.3-5.198 2.2-10.6 3.7-15.3 5.4-3.7-2.5.699-5.603-2-7.7-3.602-.2-6.102 2.397-9 3.8-7.2 3.4-8.801 3-13.102-3.4-4.101-6-4.601-6.1-10.898-2.1-12.399 7.8-12.399 7.8-16.102-6.4-1.398-5.397-2.601-6-7.601-3.5-8.3 4.2-8.3 4.2-13.6-2.697-4.2-5.5-5.4-5.7-11.601-2.2-2 1.1-3.899 2.6-6 3.6-6.302 2.8-10.802 1.103-11.899-5.6-1.2-6.7-3.5-11-10.5-12.5-2.9-.603-4.302-4-6.2-6.3-5.398-6.7-6.8-7-14.3-3.5-1.2.6-2.302 1.3-3.5 1.8-3.4 1.3-5.9.3-7.2-3.103-.699-1.8-.898-3.897-1.398-5.8-.802-3.1-2.602-3.8-5.102-1.897-2.797 1.9-5.398 4.002-8.597 5.1zm-676.1 52c-4.301 2.8-7.801 6.9-14.301 4.8-6.5-2.1-8.102-.6-9.399 6.2-.802 4.2-1.2 8.6-2.101 12.8-1.899 8.8-2.5 9.4-11.699 9.8-4.102.2-5.5 2.103-4.602 5.7.5 2.2 1.199 4.7 2.699 6.4 5.7 6.399 13.801 5.899 21.301 6.6 5.699.5 6-5.2 8-8.8 1.102-2 2.301-4.1 3.801-5.8 4.601-5 8.399-10.5 10.801-16.7 5.5-14.8 21.601-16.5 31.398-25.898.801-.699 2.602-.602 3.899-.5 7.301.198 11.2-3.5 12.101-10.5.7-5.602 3.801-9 9.2-10.5 4-1.102 7.3-3.5 9-7.302 3-6.397 7.601-7.698 14-5.6 2.601.899 5.601 1.2 7.699-.601 4-3.5 10-5.699 12.301-9.699 4.3-7.4 9.199-7.4 15.8-5.301 1.5.5 3.301.601 5 .301 7.102-1.103 13.899-.801 20.602 2.199 4.101 1.801 7.398.5 8.199-4.199 1-5.9 3.699-8.2 9.699-5.801 3.301 1.301 5-.399 5.199-3.802.102-1.6.102-3.397 2.398-4.1.802.3 1.701.5 2.602.899 2.2 1.101 4.5 2.301 5.898-.802 1.102-2.5-.198-4.5-2.1-6.1-3.4-2.8-7.301-3-11.301-1.7-4.6 1.5-9.1 2-13.699 0-3.4-1.398-6.699-3.2-10.199-4.2-7.601-2.2-15.399-3.1-21.301 3.7-5.101 5.9-11 6.7-18 4.602-13.5-4.102-24.101-.199-32 11.698-4.301 6.5-4.699 6.2-11.801 2.603-5-2.603-7-2.2-9.8 2.6-1.7 2.9-2.9 6-4.2 9.102-2.3 5.198-5.5 9-11.898 8.801-5-.103-7.899 3-9.602 7.397-1 2.5-1.699 5-2.699 7.5-4.101 10.302-5.9 11.2-16.9 8.4-1.698-.4-3.398-.9-4.698.6-1.699 2-.199 3.7.899 5.4-1.396 3.205-3.696 6.503-.196 9.803z"/><path id="sd2" fill="#241B18" d="M1182.1 806.1c-2.6-9-5.199-17.9-7.699-26.9-.601-2.2-1.101-4.6-1.199-6.897-.101-3.103 1.5-4 4.601-3 8.399 2.897 8 2.397 13.301-3.4 4.8-5.3 9.3-10.2 9.899-17.8.199-2.3 2-4.3 4.199-5.3 6.399-2.803 8.301-8.103 8.801-14.5.101-2 .5-4 1-5.9.398-1.7 1.398-2.9 3.3-3.3 7.5-1.603 7.5-1.603 7.7-8.603.199-4.3.199-8.697 1-12.897 1.5-7.7 4.199-8.7 10.8-4.7 1.101.7 2.101 1.7 4.301 1.2 2.899-3.7 1.8-8.5 1.8-13-.101-10.8 1.301-21.2 5.7-31.2 3.399-7.9 7.399-15 17.5-15.5 4.399-.2 6.101-3.8 6.5-7.7.699-7.1 2.699-12.7 10.399-15.3 3.8-1.3 5.3-5.8 7.699-8.9 6.699-8.697 9.399-9.5 19-4 4.601 2.603 7.399 1.4 10.101-2.397 2.7-3.8 5-7.9 8.101-11.4 5.399-6.1 9-6.3 15.399-1.5 7.601 5.7 9.399 5.7 13.301-2.897C1361.698 571.4 1368 566 1377.3 563.5c4.5-1.197 8.7-1.5 12.101 2.103 3.7 3.8 6.7 4.2 11 .397 4.5-4 7.899-3.8 10.7 1.303 6.3 11.5 14.899 13.897 26.6 9.5 4.101-1.5 8.7-.7 12.5 1.697 4 2.4 7.7 3.303 12.2 1.103 4.898-2.4 9.8-1.4 14.398 1 5.199 2.7 9.602 1.7 13.602-2.4 5.199-5.3 10.898-7.198 18-3.698 4.3 2.198 7.699.198 10.6-3.102 2.801-3.3 5.4-6.7 8.4-9.898 3.398-3.7 7.398-6 12.199-2.102 3.601 3 6.601 2.102 9.5-1.2 2-2.198 4-4.5 6.398-6.3 5.102-3.8 8.4-3.7 13.602.102 1.601 1.198 3 2.601 4.601 3.898 4.399 3.602 9.101 4 13.899 1.102 4-2.399 7.898-4.899 11.801-7.5 11.3-7.399 22.6-7.899 33.398.398 9.802 7.5 21.302 8.9 32.802 10.7 4.6.7 8.5-1.103 12-3.9 4-3.3 8.6-4.898 13.8-5.1 4.1-.2 7.899-1.3 11.301-3.603 7.199-4.697 15-5.397 22.899-2.3 5 2 8.8 1.5 12.601-2.397 3.699-3.803 8.5-3.7 13-1.603 6.301 3 12.899 5.4 18.199 10.3 3.6 3.303 7.7 5.2 12.7 4.603 7.5-.9 12.3 3.1 14.6 9.6 3.7 10.102 8.4 19.302 15.2 27.802 5.3 6.698 7.1 15.698 9.8 23.898 2.8 8.3 6.3 16.102 11.7 23 3.5 4.5 6.199 9.5 7.5 15.102 3.1 13.898 9.699 26.101 17.8 37.698 2.5 3.602 4.8 7.302 6.2 11.4 1.8 5.2 4.5 9.6 8.699 13.2 4.601 3.897 6.601 9.1 6.5 15.1-.102 13.9 4.5 26.102 13.301 36.8 3.898 4.802 6.1 10.302 6.699 16.4.398 4.1 1.301 7.897 4.101 11 2.101 6.2.101 11.897-2.7 17.2-4.6 8.6-7.699 17.5-7.699 27.5 0 4.697-1.398 9.3-4 13.197-4.301 6.303-5.801 13.303-6.601 20.603-2.5 24.2-9.6 32.5-13 56.5-3.399 5.897-6.6 11.897-8.1 18.5-.802 3.397-1.802 5.7-5.802 3.397 2.199-22.5 1.399-30.1 3.602-52.6 3.3-34.1 9.768-66.4 9.8-102.4-1.301-7.65-3.399-11.697-6.1-17.3-15.101-31-27.7-59.8-47.2-88-21-30.397-42.8-60.3-64.199-90.397-2.101-3-4.601-5.803-6.5-8.803-5.399-8.3-12.601-11.897-22.699-11.5-15 .603-30 .303-45 .103-50.602-.603-101.2 1.6-151.801 2.5-43.601.8-77.951.397-113.789 15.147-14.301 1.102-27.162 19.5-40.453 30.468-10.102 1.801-23.396 23.167-31.295 29.667-9.5 7.897-32.229 27.115-40.329 36.516-37.101 43.5-63.585 55.102-85.085 74.852-6.501 10.598-26.85 23.147-33.151 33.347z"/><path id="sd1" fill="#312520" d="M1410 508c3.198-2.8 6.898-3.8 11.1-3.897 3-.103 6-.4 9-.103 15.199 1.4 29-1.5 40.699-12.3 5.101-4.7 11.899-6.2 18.699-5.6 22.801 1.8 45-4.3 67.7-4.5 8.601-.103 16.101-4.5 23-9 14.699-9.603 28.399-7.8 41.601 2.397 6.899 5.4 13.899 7.2 22.301 4.603 9.101-2.8 17.8-1.103 26.101 3.3 3.8 2 7.699 3.9 11.601 5.9 5.399 2.697 10.801 3.397 16.301.397 8.199-4.397 15.398-2.2 22.199 3.103 2.601 2.1 5.199 4.197 7.699 6.397 5.7 4.9 12.2 8 19.602 9.2 6.601 1 13.101 2.4 19.699 3.6 1.601.303 3.399.4 4.899.9 26.399 10.1 51.399 22.2 68.699 45.8 3.601 4.9 7.399 9.5 12 13.4 8.601 7.5 12.399 16.899 13.101 28.1.699 11.3.899 11.4 11.899 14.8 6.5 2 10.7 6.303 11.301 12.603 2 19.6 11.101 37.8 11 57.8 0 4.6 1.899 8.4 5.199 11.5 6.399 5.8 8.5 13.3 8.5 21.6 0 7.103.7 13.9 3.801 20.4 2.199 4.5 1.399 9.1-.301 13.6-2.899 7.5-4.601 15.303-5.5 23.303-.899 8.197-5.8 14.8-8 22.5-5.899 5.197-8.199.1-8.5-4.103-.699-10.6-5.899-18.7-11.399-27.2-5.601-8.6-9.601-18.197-9.301-29.1.199-5.8-2.5-10.6-5.699-15.6-12.601-19.5-25.4-38.9-32.601-61.303-1.199-3.8-1.8-8-4.3-11.1-10.4-13.4-15.102-29.5-21.302-44.9-5.101-12.6-15.698-22.197-19.601-35.6-1.102-4-5.5-5.9-9.801-5.9-6.5 0-11.101-3.397-16-6.897-9-6.5-18.399-13.103-29.5-3.2-2.801 2.5-6 .4-8.899-.8-7.899-3.3-15-2.103-23 1.397-10.8 4.7-22.199 9.303-33.3 12-12.301 2.9-26.2-.8-37-8.697-12.801-9.303-24.5-8.7-36.602.5-1.898 1.397-3.898 2.5-5.898 3.8-6.801 4.6-13.602 5.2-20.301-.2-6.601-5.4-12.801-5.1-18.301 1.6-3.8 4.603-7.898 6.803-13.898 4.603-6-2.3-10.2 1-13.801 5.397-5.399 6.603-11.199 12-20.601 7.4-.601-.3-1.5-.4-2-.1-13.601 9.3-29.601.8-43.801 5.6-.8.3-1.699 1.5-3.199.7-10.2-5.3-20.801-3-31.399-1.4-5 .7-9-1.3-11.699-5.897-1.7-2.9-4.7-6.5-7.801-5.2-8 3.2-14.101.5-21.101-3-5.899-2.9-11.601.7-16.101 5.1-2.602 2.603-4.2 6-6.102 9.103-6 9.897-7.8 10.5-17.8 5.197-5.801-3-10.2-1.8-14.101 3-1.899 2.303-3.399 4.9-5.102 7.4-3.5 5.6-8.398 7.9-14.398 4.7-7.602-4.103-12.301-1.103-17.102 4.8-6.199 7.6-14.3 13.8-15.898 24.6-.5 3.9-4.102 5.803-8.102 6.303-8 .897-12.199 6-14.898 13-3.399 8.5-4.899 17.3-4.899 26.397 0 4.9.601 9.9-.801 14.8-1.101 4-3 7.7-7.601 7-7.699-1.197-9.601 2.9-9.399 9.103.198 8.3-2.5 13.897-9.199 20.1-6.101 5.8-11.101 14.5-15.301 22.3-5.699 10.7-10.699 21-22.802 25.803-3.398 1.3-2.5 4.397-1.8 6.897 1.8 6.603 1.899 13.103 0 19.7-3.301 6.7-6.5 13.4-9.801 20.1-7.399-11.897-14.199-24.1-16.101-38.3-.601-4.7-2.301-8.897-5-12.897-3.101-4.5-4-9.603-.899-14.103 6.899-9.897 6.801-21.3 7.801-32.5.199-2.7.199-5.3.399-8 .4-4.7 2.4-8.5 7.101-9.897 6-1.9 8.101-6.103 8.699-12 .801-8 2.2-15.9 5.5-23.303 1.5-3.397 1.2-6.3-1-9.3-2-2.6-2.5-5.7.7-7.897 2.699-1.803 5.101-.4 7.101 1.6.899.9 1.699 2.1 2.699 2.9 4.399 3.5 8.2 2.397 9.899-3 .801-2.5.699-5.2 1-7.9.399-4.6.699-9.3 1.101-13.9 1-12.5 6.2-21.897 17.801-28 14.101-7.397 19-21.698 24.199-35.5 1.301-3.397-.3-5.698-2.601-7.897-2.101-2-3.301-4.5-1.199-7 2.199-2.7 5.398-3.103 8.101-1 3.8 3 7.699 3 12.199 2.199 5.601-1.102 9.5-3.802 12.5-8.802 5.5-9.5 8-10.198 18.7-6.6 7.398 2.4 8.601 1.9 12-5.8 4.898-11 6.8-11.9 18.199-8.103 7.101 2.4 9.399 1.7 13.399-4.397 2.601-3.9 4.601-8.2 7.3-11.9 6.2-8.6 13.102-10.3 22.602-5.8 5.101 2.398 10 5.3 15 7.9 10.8 5.697 13.5 5 20.601-4.9C1404.4 513.302 1408.1 513 1410 508zm358.1-44.1c10 9.8 20.9 18.5 32.301 26.6 9.1 6.4 18 12.303 29 15.2 10.6 2.8 17.399 11.103 23.699 19.103 6.101 7.8 12.9 11.3 22.9 11.5 17.1.3 24.6 8.1 25.8 25.197.601 9.303 0 18.603 1.899 27.9 1.801 9.1 5.899 16.2 14.801 19.9 10.3 4.3 15.601 12 16.3 23 .301 4.3.801 8.6 1.301 12.897.199 2.302-.2 5.302 1 6.802 8.899 11.101 3 23 1.899 34.398-.801 8.3-2.2 16.2.199 24.602 2.301 8-.699 15.801-3.699 23.301-2.2 5.6-4.899 10.897-7.102 16.5-2.398 6-2.3 11.8 2.399 16.8 6 6.399 5.399 13.1 1.301 20.2-4 6.897-8.101 13.8-12.101 20.699-4.102 7.101-6.199 14.698-5.899 22.898.399 9.5-1 18.5-4.899 27.3-2.301 5.2-3.101 10.9-3.101 16.603.101 7.3-2.101 13.699-6.801 19.3-1.3 1.5-2.199 3.4-3.601 4.8-12.199 11.8-13.601 27.7-16.601 43-.601 3 0-8.9 1.5-6.3 4.399 7.4 2.399 14.3-1.899 20.7-2.528 3.744-21.855 43.891-21.863 79.366-.008 37.488 19.309 70.403 16.482 74.256-14.197 7.768-61.982-1.256-62.605-28.256-.193-8.381 15.624-41.535 20.137-48.292 7.486-11.209 16.094-25.951 15.82-26.042-5-6.3 5.335-44.927 7.236-50.729 2.801-8.3 10.394-13.906 8.192-22.406 7.3-21.697 10.699-29.3 14.601-51.8 1.899-10.7 2.199-21.7 8.601-31.2 1.301-1.897 2.101-4.3 2.2-6.5.699-12.1 4.3-23.3 9.398-34.198 1.899-4 1.399-8.399 1.301-12.699 5.601-6.301 6.699-14.2 8.101-22 1.301-7.9 4.601-15.801 4.601-23.4.102-17.9 1.602-36.7-10.101-52.2-3.699-4.8-5.8-9.2-5.899-15.2-.398-19.197-8.199-37-11.398-55.6-1.102-6.6-6.899-9.7-13.301-10.4-6.699-.697-9.399-4.5-9.101-10.697.699-15.803-7.301-27-16.899-39-13.699-17-29.899-29.9-48.301-41-14.101-8.5-29.5-12.103-45.3-14.5-10.601-1.603-19.8-5.401-27.601-12.701-7.301-6.8-15.398-10-25.5-5.602-5.398 2.399-11.101 1.302-16.398-1.601-14.102-7.6-28.4-13.1-44.9-7.7-5.199 1.7-9.8-1.6-13.699-4.8-13.801-11.3-28-12.6-43.199-2.7-9.399 6.2-20 7.5-31.301 8.4-19.898 1.6-39.699 4-59.699 4-6.899 0-13.102 2.898-18.301 7.3-9.699 8.2-20.601 11-33.301 10.5-7.5-.3-15.8-3.1-22.898 2.3-2.399 3.9-7.301 2.4-10.301 5-10.5 12-13.301 12.4-27.899 4.4-1.699-1-3.5-1.9-5.3-2.8-15.801-8.103-20.7-6.7-29.9 8.8-7 11.8-7.5 12.1-21.398 10-5.399-.8-9.399.898-11.201 5.898-3.198 9-8.898 11.802-17.898 8.302-4.3-1.7-9.699-1.603-11.699 2.6-5.101 10.3-14.699 11.601-23.898 13.9-2.4.6-3.4 1.198-4.301 3.897-6.301 18.103-13.602 35.603-31.801 45.603-6.5 3.6-9.601 9.8-11 17.1-1.601 8.2-2.101 16.5-2.4 24.8-.3 8.103-4.398 12-11.698 11.801-1.802 0-3.7.199-5.2-1.601-.6-.7-1.398-.399-1 0 1.602 1.7-.1 3.4-.8 4.9-4.5 8.8-6.2 18.3-7 28-.5 5.8-2.2 10.3-7.802 12.8-5.898 2.6-7.898 7.7-8.198 13.8-.5 11.7-1.101 23.3-6.5 34-1.101 2.101-1.5 4.7-.5 6.8 6.3 12.603 5.101 27.603 12.899 39.7 3.301 5.101 2.301 11.3 3.199 17 0 .5 0 1-.101 1.5 2.399 5.3-.7 11.101 1.8 16.4 4 26 7.898 52 12 78 2.801 17.397 5.801 34.8 9.602 52.1 2 8.7 6 16 11.898 22.7 14 15.6 31.801 30.6 43.2 48.397 4.5 7 6.5 14.303 9.101 22.303 4.6 13.897-.601 23.897-10.101 35.6-5.5 6.9-9.603 9.601-17.399 14.2-16.202 3.233-9.036 5.566-24.702 4.858-10.7 6.603-36.645-7.948-49.145-10.048-3.601-.602-2.689-1.41-6.688-6.745 2.102.198-9.407-5.079-6.507-9.779-4.161-9.719-3.091-10.232-3.191-22.323-3.301-8.8 4.53-13.896 2.854-23.654-9.089-17.617-3.485-9.529-11.386-21.163-9.862-10.179-11.771-13.746-23.53-21.756-8.661-6.443-11.608-6.156-21.909-11.156-5.5-2.9-14.46-8.447-20.954-12.295-4.572-2.791-10.61-3.599-15.61-9.701-23.103-13.337-32.437-19.337-45.603-36.139-18.167-10.365-21.833-18.532-35.45-30.932-3.7-1.603-13.36-17.361-16.762-19.562-5.199-3.4-12.372-16.33-13.747-25.705-11.125-18-8.875-29.5-11.25-39-1.8-1.5-1.651-22.353-3.75-23.25-3.625-18.125-3.375-29.375-3.072-39.048-2.899-15.5-2-31.1-2.301-46.698-.699-36.302 1.801-72.399 8.399-108.199 1-5.2 2.5-10.301 3.7-15.5-.7 16.5 2.199 32.5 8 48 3.398 9.199 4.601 18.699 4.3 28.5-.101 4.6 0 9.397.601 14 .899 7.1 4.301 12.5 11.899 14.397 4.601 1.2 8.101 4.4 12.101 6.802 11.2 6.898 21.301 16 35.301 17.601 2.199.2 4.5 1.5 6.199 2.899 4.899 4.198 9.899 7.898 16.399 9.101 2.299.397 4.6 1.798 5.6 3.897 3.898 7.602 10.3 14.102 11.898 22.899 2 11.2 10.301 18.4 16.801 26.7 2.199 2.898 6.199 3.7 9.801 4.7 4.199 1.1 8.399 2.1 12.601 3.198 9 2.5 14.199 1.5 18.899-6.301 7.199-11.897 13.601-24.397 19.899-36.897 2.5-4.9 1-10-2.5-14-9.5-10.7-11.7-23.5-11.5-37.2.101-9.7.3-19.3-2.301-28.8-1.5-5.603-.199-10.802 4.601-14.302 6.199-4.398 7.601-10.601 7.699-17.5 0-5.698.5-11.301 1.899-16.801 1.301-5.3 4.5-7.6 10-7.699 10.699-.101 12.399-1.601 15.101-11.801 1.801-6.8 3-13.699 4.7-20.398 2.601-10 8.199-16.602 19.5-16.602 7.398 0 11.601-4.3 13.8-10.898 1.602-4.699 2.801-9.602 4.301-14.301 1.199-3.801 2.399-7.699 4.199-11.199 4.899-9.399 11.801-12.699 22.301-10.899 3.899.7 7.601 2.3 11.5 3.3 6.801 1.7 10.5-.1 11.699-7 1.899-10.8 4.399-21.5 6.5-32.2.5-2.698.399-5.5 3.399-6.6 3.101-1.2 4.801 1.1 6.801 2.899 5.399 5 9.399 4.5 13.899-1.399 2.601-3.5 3.899-7.7 5.399-11.8 1.301-3.4 2.301-7 4.101-10.2 3.399-6.3 8.3-8.2 15.101-5.9 3.801 1.2 7.301 3.302 11 4.802 8.399 3.601 11.699 2.5 16.199-5.699 1.399-2.603 2.601-5.4 3.899-8.103 4.5-9.198 11.699-14.198 22.101-14.6 5.301-.2 10.601-.8 15.899-1.5 8.101-1 15.601-3.9 22.199-8.603 13.603-9.799 28.802-11.897 44.802-9.197 12.699 2.1 23.398-.2 33.5-8.603 9.5-7.897 16.102-7.3 26.102.103 3.698 2.8 7.198 5.897 10.898 8.8 5.199 4.2 10.801 5.2 16.699 1.7 10.601-6.4 20.699-6 30.801 1.1 5.898 4.1 12.398 4.8 19 1.8 9-4.1 17.898-4.3 27.199-1.2 5.9 2 11.9 1.7 17.5-1.3 10.101-5.397 18.199-2.3 25.801 5.9 1.602 1.7 3 3.6 4.398 5.397 4.302 5.502 9.802 8.002 16.701 6.502 10.6-2.399 19.698.301 28.1 6.801 8.601 6.6 18.4 9.199 29.101 8.1 2.302-5.7 6.302-3.898 9.601-1.7 9.602 6.603 19.5 11.802 31.699 11.603 4.4-.103 8.102 4 11.9 6.5 3.301 1.997 2.801 4.597.902 7.297z"/><path fill="#322621" d="M2013.5 697.7c-.102 5.103-2.802 9.103-6.2 8.7-4.3-.5-4.8-4-4.899-7.4-.101-5.1 2.399-9 5.699-9.197 3.3-.203 5.5 3.097 5.4 7.897zm-935.2-2c-.199-3.3-2-5.7-5.5-5.897-3.101-.103-4.899 1.897-4.899 5 .1 3.397 2.1 5.397 6 6 2.699-.501 4.599-2.001 4.399-5.103zm928.2-131.8c-.102-3.1-2.2-4.6-5.2-4.5-2.8.1-5.101 1.6-5 4.8s2.399 4.3 5.399 4.603c2.901-.403 4.901-1.803 4.801-4.903zM1924 445.302c-3.302-.103-5.7 1.5-6.102 4.897-.301 2.7 1.399 4.3 4 4.4 3.301.2 5.5-1.5 6.199-4.7.003-2.799-1.399-4.399-4.097-4.597zM1123 455.4c.198 3 1.898 5 5 4.7 3-.3 4.5-2.5 4.3-5.5-.199-3-2.101-4.603-5.101-4.8-3.099.6-4.399 2.7-4.199 5.6zm810.4 406.2c0 3 1.699 5 4.8 4.897 3.102-.1 4.602-2.197 4.5-5.197-.1-2.9-1.699-4.803-4.8-5-3.202.4-4.6 2.4-4.5 5.3zM1701 277.9c-2.802-.4-5.5 2.8-5.102 5.897.301 2.603 1.801 4.303 4.5 4.303 3.301-.103 4.399-2.4 4.602-5.303-.2-2.597-1.2-4.496-4-4.897zm-580.9 318.5c0-2.7-1.699-4.2-4.399-4.4-3.2-.3-6.2 2.303-5.801 5.2.399 2.7 2.399 3.7 5 4 2.798-.398 5.2-1.5 5.2-4.8zm-77.402 22.902c-.198-2.9-1.801-5-4.899-5.4-2.801-.3-4.399 1.4-4.5 4.102-.101 3.5 2 5.398 5.301 6 3-.404 4.4-2.104 4.098-4.702zM1096.4 745.5c-.2-2.6-2-4.197-4.601-4-3.102.2-4.699 2.303-4.5 5.303.199 2.6 1.898 4 4.601 4 3-.501 4.798-2.303 4.5-5.303zm841-227.9c-2.5-.103-4.7 1-5.101 3.7-.5 3.197 1.5 4.897 4.5 5.397 3.101.5 5-1 5.699-4.5-.398-2.697-1.998-4.497-5.098-4.597zm-191.702-146.299c-2.5.302-4.198 1.899-4.301 4.602-.101 2.7 1.5 4.398 4.2 4.2 3.101-.103 4.5-2.2 4.898-5.103-.495-2.699-2.095-4.1-4.797-3.699zM1914.5 933.7c.398-2.7-.9-4.6-3.7-4.8-2.601-.2-4.5 1.3-4.899 3.9-.5 2.7 1.1 4.3 3.699 4.897 2.699-.097 4.5-1.395 4.9-3.997zM1010 525.5c.5-3.3-1.4-5-4.5-5.1-2.302-.1-3.802 1.3-4 3.6-.2 2.803 1.5 4.2 4 4.7 2.3 0 4.198-.898 4.5-3.2zm241.5-219.699c-2.2 0-3.802 1.302-4.102 3.5-.301 2.699.899 4.602 3.699 4.899 2.699.3 4.301-1.3 4.801-4.2-.298-2.4-1.598-4.1-4.398-4.199zm600.6 90.799c-.199 2.3 1.301 3.697 3.4 3.897 2.6.3 4.5-.897 4.5-3.7 0-2.3-1.7-3.3-3.9-3.5-2.2.103-3.801 1.004-4 3.303zm-206.801-22.4c.102 2.2 1.399 3.8 3.602 3.7 2.8-.103 3.898-2 3.6-4.603-.3-2.197-1.8-3.3-4-3.3-2.202.503-3.303 2.003-3.202 4.203zM1474.6 363.4c-2.6-.3-4.5 1-4.5 3.8 0 2.3 1.699 3.4 3.9 3.5 2.198.101 3.698-1 4.1-3.3-.1-2.4-1.402-3.8-3.5-4zm-519 289.2c.5-2.8-1.1-4.5-3.699-4.8-2.801-.303-4.4 1.3-4.4 4.1 0 2.3 1.5 3.6 3.7 3.9 2.199-.1 3.997-.998 4.399-3.2zm1018.5 111c-.1-2.3-1.5-3.603-3.801-3.603-2.699 0-4.301 1.5-4.199 4.2.101 2.3 1.5 3.4 3.801 3.7 2.699-.197 4.297-1.595 4.199-4.297zm-484-462.5c-.1-2.8-1.899-4-4.5-3.8-1.801.1-3.1 1.3-3.1 3.1.1 2.8 1.898 3.9 4.3 3.9 2-.3 3.3-1.3 3.3-3.2zm-298.6 101.6c.1-2.399-1.5-3.5-3.7-3.399-2.199.102-3.8 1.302-3.899 3.5-.101 2.399 1.5 3.399 4.1 3.5 1.697-.401 3.399-1.301 3.499-3.601zm-105.7 108.102c0 3.6 3.301 4.3 6.101 5.1 2.301-3.3 2.699-6.6.1-10-2.803.698-6.202 1.098-6.201 4.9zM1156.9 364c-2.301 0-3.5 1.603-3.5 3.801 0 2.199 1.3 3.699 3.601 3.699s3.399-1.6 3.601-3.8c-.202-2.3-1.303-3.7-3.702-3.7zm665.2 64.9c.102-1.4-.8-2.6-2.199-2.8-4.5-.603-5.101 3-6 6 .699.6 1.399 1.3 2.1 1.897 2.799-.897 5.899-1.397 6.099-5.097zM1347.9 325c0 1.9 1.101 3.2 3.101 3.103 2.301-.103 3.601-1.5 3.301-3.8-.199-1.803-1.602-2.7-3.5-2.603-1.802.3-2.902 1.4-2.902 3.3z"/><path fill="#241B18" d="M1400 512c.6 2.2 1.3 4.4 3.1 5.9 2.9 2.4 6.4 4 9.699 1.4 3.801-3 1.699-6.301-.699-9.2-.6-.7-1.301-1.4-2-2.101-3.902.303-7.301 1.303-10.1 4.001zm96.8-81.1c-3.8-.2-7.399 2.9-7.399 6.3 0 3.2 1.801 4.8 4.899 4.7 3.5 0 7.399-3.4 7.601-6.6-.101-2.998-2.203-4.2-5.101-4.4zm-130.3 25.2c0-2.7-1.5-4.4-4.302-4.2-2.601.2-4.301 1.8-4.301 4.5-.101 2.8 1.601 4.1 4.301 4.2 2.601-.4 4.302-1.798 4.302-4.5zm302 3.4c-2.7-.3-4.5 1.103-4.7 3.803-.101 2.697 1.5 4.397 4 4.697 2.801.4 4.2-1.197 4.7-3.8 0-2.6-1.4-4.3-4-4.7zm201.3 89.9c-2.199.2-3.8 1.4-3.699 3.6.101 2.803 2.101 3.9 4.601 3.603 2.199-.3 3.301-1.7 3.301-4.4-.603-1.703-2.003-3.003-4.203-2.803zm-679.102 12.3c-1.899 0-3.198 1.103-3.301 3-.101 2.4 1.301 3.7 3.7 3.5 1.898-.2 2.8-1.5 2.898-3.397-.196-1.903-1.395-3.001-3.297-3.103zm139.101.7c.302 3.2 2.602 4.4 5.5 4.6 3.701.2 7.102-2.6 6.802-5.6-.2-3.3-2.601-4.3-5.5-4.5-3.802-.098-7.201 2.5-6.802 5.5zm346.601-41.3c-3 .397-5 2-4.899 5.2.101 2.697 1.899 4.3 4.601 4.3 3.399 0 5.601-1.7 6-5.5-.602-2.9-2.602-4.298-5.702-4zm-174-11.9c0 2.4 1.601 3.5 3.899 3.4 2.199-.101 3.801-1.3 3.801-3.7s-1.7-3.398-3.9-3.5c-2.3.402-3.901 1.5-3.8 3.8z"/><path fill="none" stroke="#000" stroke-miterlimit="10" stroke-width="6" d="M1910.4 989.7s121.899-199.6 130.699-263.6c0 0 21.899-113-62.5-248.2-57.199-77.602-94.699-134.3-175.399-177-29.601-17.3-55.5-27.103-55.5-27.103s-122.301-60.8-341.301-50.6c-66 4.9-172.5 8.9-286.5 93.4-47.3 42.6-106.199 112.8-115.6 125.7-9.4 12.897-71.9 85.8-82.5 201.3C909.5 749 927 827 935.5 855.5s51.832 72.366 96.332 105.668c0 0 31.313 20.666 46.334 28.821 17.176 9.324 12.653.241 42.332 25.845 39.953 34.468 20.004 52.896 20.668 62.668 3.332 49.197 57.709 46.096 71.332 43.957 28.668-4.498 44.346-23.305 48.045-37.904 3.699-14.601 1.655-29.953-18.646-51.253-18.101-18.5-43.199-44.399-43.399-50.199-2.5-7-8.601-50.5-8.601-50.5s-15.5-89-15.5-90.301c0-1.302-4.601-14.302 4.7-30.5 9.3-16.199 165.634-151.769 190.734-177.968 26-26.051 49.565-44 102.666-45 62.601-4.5 234-4.731 234-4.731s33.7-7.5 45.5 20c0 0 87.5 128.1 93.5 138.1s24.103 39.999 25 77.8c-5 31.9-15.101 109.9-13.898 112.9 1.199 3-9.7 69-9.7 69s-3 15.7-14 29.3c-11 13.603-25 43-21.699 55 3.3 12 16 24 33 26s50.3-1.2 63.3-25.1c13-23.9 6.4-36.9 0-45.103-6.398-8.197-22-18.8-9.698-30.3 7.498-8.5 12.598-22 12.598-22h0z"/></svg>