<svg xmlns="http://www.w3.org/2000/svg" id="hair" viewBox="0 0 3000 3000"><path id="cl2" fill="#271E19" fill-rule="evenodd" d="M1790.1 483.9c4.5 4.2 8.2 9.2 11.8 14.2-.8 4.8 1.4 7.3 6.1 7.9 41.4 56.8 66.4 119.7 70.2 190.4.5 9.3 2 18.6 1.4 27.9-.6 9-2.4 10.9-11.5 11.7-6.6.6-13.3 1.2-19.9 1.6-11.4.7-13.3-.8-15.7-11.7-2-9.1-4-18.2-6.2-27.3-.8-3.2-2.1-6.3-3.1-9.5-4.8-14.9-14-23.1-30.6-23.7-16-.7-31.9-1.3-47.9-.3-9 .6-18 .6-27 .9-33 .9-65.9 3.2-98.7 5.4-31.6 2.1-63.1 4.2-94.7 6.6-38.2 2.9-76.4 6.1-114.5 9.1-29.9 2.3-59.7 5.8-89.6 7.1-7.3 1.8-13.8-.8-19-5.1-42.6-34.8-71.4-77.8-77.7-133.7-.9-8-1.4-16.3 4.7-23 6.2-3.7 13.5-2.8 18.8-5.3-6.2.1-14 3.1-21-1.9-.7-.8-1-1.8-1-2.9-1.4-23.8 6.1-45.8 14.4-67.5 2.2-5.8-.3-12.8 5.3-17.4 2.9-2.7 4.5-6.6 8.2-8.4 15.3-3.4 30.2-8.1 43.5-16.3 8.3-5.1 16.3-10.1 26.4-10.6 5-.2 9.7-2.4 14.2-4.5 3.4-1.5 6.8-3.2 10.4-3.3 17.3-.6 32.6-7.6 48.7-12.9 10.5-3.5 23-2.1 34.8-5.4 6.9-2 15.4.5 22.8-3.8 3.8-2.2 7.8-.2 11 2.6 5.8 5 12.7 3.2 19.5 4.1 18.2 2.3 32.4-12.2 50.1-9.9 4.3.5 8.7.6 12.5 2.9 7.6 4.6 15.7 7.3 24.6 7.3 6 0 10.1 3.6 13.2 7.9 5.4 7.6 12.7 10.5 21.6 9.9 10.9-.7 21.1 1 30.9 6.2 6 3.1 13.4 2 19.3 4.5 15.2 6.3 29.9 13.1 47 8 3.2-1 6.9 1.4 9.2 3.5 12.1 10.9 26.4 19.4 36.1 33 2.3 3.3 5.8 5.4 9.4 7.3 7.7 3.9 14.3 9 19.3 16.3 2.8 4.1 6.9 7.7 12.7 8.1z" clip-rule="evenodd"/><path id="sd2" fill="#201814" fill-rule="evenodd" d="M1250 440c-7.4 20.5-15 40.8-18.7 62.4-1.1 6.5-1 13.2-3.4 19.5-.2 4.8-5.8 4.5-7.6 8 3.1-2.7 6.1-1.2 9.2.1.6.8 1 1.6.9 2.6-.1.5-.2.9-.4 1.4-4.3 13.3-1.2 26.6 1.6 39.4 5.7 25.9 16.9 49.5 33.1 70.7 12 15.6 25.1 30.1 40.6 42.3 4.5 3.5 9.1 6.7 14.8 7.8-6.4 2.3-13.1 1.6-19.7 2.3-11.7 1.4-14.5 3.6-15.6 15.3-1.9 21.5-3.3 43-4.8 64.5-.8 11.4-.8 11.5-12.2 14.4-4.4 1.1-8.1 3-10 7.3-3.2 2.9-6.7 4.5-11.2 5.1-42.1 5.1-84.2 9.9-126.4 14-8.2.8-14.7 5.8-22.5 7-12.8-41.1-18-83.1-15.6-126 2.5-43.3 12.6-84.8 30.8-124.2 13.6-29.4 30-57.1 51-81.9 14.1-2.8 24.8-9.9 31.3-23.2 3.5-7.2 8.2-13.7 14.5-18.9 6.3-5.2 12.9-9.5 21.3-8.9 6.5.5 12.4-6.1 19-1z" clip-rule="evenodd"/><path id="cl1" fill="#42322B" fill-rule="evenodd" d="M1097.8 824.2c2-9 2.4-9.8 11.4-10.9 20.1-2.5 40.3-4.5 60.4-6.8 23.4-2.6 46.9-5.4 70.3-8 5.9-.7 11.9-1.6 17.9-.4 2 21.9 4.2 43.8 3.7 65.8-.2 8.3-.8 16.6-1.8 24.9-1.1 8.7-3.6 16.8-8.6 24.2-12.9 19.3-16.2 41.3-17.3 63.8-.9 17.9 3.1 18.7-19.8 21.5-5.9.7-11.9 1.6-17.8 2.2-8.3.8-9.1.2-10.6-8-3.3-19-6.4-38.1-9.6-57.1-1.7-9.8-3.8-19.6-5.6-29.4-1.4-7.9-6.3-12.1-13.7-14.1-9.4-2.5-19.1-2.8-28.7-3.5-3-.2-6-.1-9-.4-8.1-.7-9.5-1.7-11.7-9.8-3.6-13.5-5.5-27.4-7.8-41.2-.7-4.2-1.1-8.5-1.7-12.8z" clip-rule="evenodd"/><path id="hl1" fill="#392D25" fill-rule="evenodd" d="M1790.1 483.9c-6.8 2.7-12.1 0-15.4-5.6-4.6-7.7-11.1-12.1-19.6-14.1-3.6-.9-7.1-2.3-9.2-5.6-8.2-13.2-20.6-22.4-31.5-33.1-5.1-4.9-11-5.9-17.5-4.8-6 1-11.6 3.1-17.1 5.6-3.5 1.6-6.5 1.8-8.3-2.3-3.7-8.6-11.2-10.9-19.4-11.7-7.7-.7-15.1-2.5-22-6.2-6.7-3.6-13.9-4.2-21.3-4.2-4.3 0-8.7-.1-13-.2-6.1-.1-11-2.3-13.7-8.2-3-6.5-8.2-9.4-15.2-9.4-7.2-.1-13.6-2.3-19.9-5.8-11.4-6.4-23.1-5.8-34.2.8-7.1 4.2-13.7 8.3-22.3 4.6-2.8-1.2-5.9.3-8.6 1.7-6.1 3.2-11.3 1.9-16.4-2.6-7.9-6.8-8.2-6.8-16.1-1.1-4 2.9-7.7 3.8-12 1.4-6.2-3.3-11.3-1.9-16.3 2.7-7.1 6.6-7.3 6.5-15.5 1.5-3.1-1.9-6.2-2.3-9.5-1-3.1 1.3-6.2 2.6-9 4.2-8.8 5.1-18.1 8.1-28.5 7.8-4.2-.1-8.8.6-12.8 2-10.3 3.7-20.5 7.8-31.6 8.7-4 .3-7.5 2.9-10.6 5.4-7.9 6.4-17.1 10.1-26.8 12.9-7 2-13.9 4.6-20.9 6.9-7.9.9-5.2-3.8-3.6-7.4 4.4-10 11.7-17.8 19.5-25.2 11.4-8.4 24.2-14 37-19.7 68.5-30.5 140.1-41.6 214.6-34.1 88.6 9 166.5 42.7 233.2 101.8 12 10.6 23.3 21.9 33.5 34.3zm11.8 14.2c-1.2 7.5-.9 7.8 6.1 7.9-2-2.7-4-5.3-6.1-7.9zm-43.6 92.7c-6.3 1.7-11.6 2.5-18-.7-5.9-3-13.8 1.8-16 8.2-.9 2.7-1.1 5.3 1.3 7.3 2.2 1.8 4.5 1.2 6.4-.4 2.9-2.5 5.2-3 8.7-.4 7.1 5.5 7.5 5.4 14.7.4 3.9-2.8 7-3.5 10.4.4.6.7 1.5 1.4 2.3 1.9 3.7 2 6.7.2 6.8-3.9.3-7.8-8.4-15-16.6-12.8zm-277.2-81.9c-5.6.6-9.8 4-12.7 8.8-1.5 2.4-2.2 5.1.1 7.3 2.5 2.4 5.1 1.1 7-.9 4.3-4.4 8.9-5.3 14.4-2.1 2.1 1.2 4.7 1.6 6.7.3 5-3.1 9.8-3.6 14.9-.2 1.7 1.1 3.9 1 5.5-.7 1.9-2.1 1.4-4.4 0-6.4-3.4-4.9-8-7.9-14.9-8.2-6.3 1.8-13.7 1.3-21 2.1zm-124 132c-.5 2.4-.3 4.7 1.8 6.3 1.8 1.5 3.9 1.1 5.5-.3 4-3.7 7-2.4 10 1.3 1.9 2.4 4.7 5.1 7.5 3.1 5.3-3.8 9.6-2.9 14.4.4 1.7 1.2 3.9.8 5.3-1 1.1-1.4 1.1-3.3.2-4.7-3.6-5.7-7.8-11.4-14.9-12.2-5.8-.7-11.9.1-17-1.3-6.9 0-11.8 3.4-12.8 8.4zm113.4-199.4c1.1-3.4-.5-6.2-3.4-7.5-6-2.7-12.1-5.7-18.5-7-9.3-1.9-18.1 8-15.8 16.8.5 2 1.5 3.8 3.8 4.1 1.8.2 3.2-.7 4.2-2.2.6-.8 1.1-1.7 1.5-2.6 2.2-4.8 5.3-5.4 9.4-2.2 3.6 2.8 7.9 3.3 12.2 3.8 2.9.3 5.6-.1 6.6-3.2zm208.9 81.9c-1.7 2.2-2.3 4.8-.5 7.3 1.6 2.3 4 2.2 6.2 1.1 3.1-1.5 6.2-2.4 9.4-.5 5.2 3.2 11 2 16.5 2.4 5.1.4 7.1-2.5 6-7.5-1.2-5.7-5.5-9-11.5-8.4-3.6.4-7.1 1.4-10.5.8-6.1-.4-11.7-.4-15.6 4.8zm-451.2 7.9l1.8 2.7c3 1.4 6.3 3.5 9.5 1.8 5.8-3.1 10.7-2.4 15.5 1.9 1.8 1.6 4.3 1.9 6.4-.1 1.9-2 1.4-4.3.5-6.5-2.7-6.8-10.7-11-19-9.6-4.3.7-8.5 1.7-12.8.7-2.6 2.5-9.1 4.5-1.9 9.1zm158.4 15.9c.9-3.9-1.8-6.1-4.9-7.6-3-1.5-6.2-2.3-9.5-2.3-6.6 0-14.2 6-15.1 12-.4 2.4-.1 4.7 2.1 6.1 1.9 1.3 4.1.9 5.4-.7 3.9-4.9 8.6-5.6 13.6-3.6 3.9.3 7.4.2 8.4-3.9zm452.4 79.9c-3.5.9-5.9 3.1-6.9 6.6-.8 2.9.2 6.3 3.2 6.1 6.2-.4 9.9 2.6 13.4 6.9 1.6 1.9 4.1 2.3 6.4 1.1 1.9-1 2.8-2.7 3-4.9.3-6.7-12.7-17.4-19.1-15.8zm-617.5 306.6c-3.1-.1-5 1.7-5.3 4.7-.2 2.3 1 3.9 3.3 4.1 3.1.2 4.8-1.6 5.3-4.6 0-2.3-.9-4.1-3.3-4.2zm23.4-44c-3-.3-5 1.2-5.4 4.3-.2 2.2 1 3.9 3.2 4.1 3.1.3 4.8-1.4 5.4-4.3.1-2.2-.9-3.9-3.2-4.1zm-91.6-52.1c-1.8 0-3.1 1.1-3.3 2.9-.2 2.4 1.1 3.7 3.5 3.5 1.8-.2 2.8-1.5 2.9-3.3-.2-1.8-1.2-3-3.1-3.1zm78.8 7.4c0-1.8-1.1-3.1-2.9-3.3-2.4-.2-3.7 1.1-3.5 3.4.1 1.8 1.4 2.8 3.3 3 1.8-.2 3.1-1.2 3.1-3.1zm-98 20.2c.1-1.8-1-3.1-2.8-3.2-2.3-.2-3.6 1.1-3.5 3.4.1 1.8 1.4 2.8 3.2 2.9 1.9-.3 3.1-1.3 3.1-3.1zm58 9.9c.1-1.8-1-3.1-2.8-3.2-2.3-.2-3.6 1.1-3.5 3.4.1 1.8 1.4 2.8 3.2 2.9 1.9-.2 3.1-1.2 3.1-3.1z" clip-rule="evenodd"/><path id="sd1" fill="#2E251E" fill-rule="evenodd" d="M1271.9 401.6c-3.2 8-8.3 15-12.2 22.6-1.7 3.2-3.9 6.2-3.7 10-2 1.9-4 3.9-6 5.8-5 4.2-10.8 6.1-17.4 6.2-12.7.1-22 6-28.1 17.2-3.2 5.8-6.7 11.4-10.2 17-8 12.5-15.7 15.4-30.3 11.7 27.9-35 61.7-63.3 99.8-86.5 2.6-1.6 5.4-2.7 8.1-4zm-44 120.3c-2.6.6-5.3.8-7.7 1.7-6.2 2.4-9.9 8.2-9.8 14.8 0 2.7.1 5.7 3.1 6.7 3.2 1.1 4.8-1.5 5.9-4 1.8-4.1 4.1-7.6 8.6-9.1.7.8 1.3.8 2 0-.9-3.3-.7-6.7 0-10-.7 0-1.4-.1-2.1-.1zM1136 667.7c2.1 1 3.7-.3 5.1-1.9 5.4-6.2 5.5-6.3 13.2-2.8 3.4 1.6 6.5 2 8.9-1.1 3-3.8 6.2-4.4 10.4-2.2 2.5 1.3 5.3 1.6 6.8-1.6 1.3-2.8.1-5.2-1.8-7.2-3.7-3.9-8.6-5.3-13.7-4.2-6.6 1.4-13 1.6-19.7.8-8-.9-13.1 4.6-12.9 12.7.2 2.9.5 6 3.7 7.5z" clip-rule="evenodd"/><path fill="none" fill-rule="evenodd" stroke="#000" stroke-miterlimit="10" stroke-width="6" d="M1834.5 735.2c-3-4.8-6.2-28.5-12.3-49.1-14.8-23.1-20.2-18.4-48.1-21.4-26.6-8.7-460.4 34.7-473.4 33.3s-15.3 10.5-15.3 10.5-1.7 43.2-2 51.5 2.3 25.3-7 28-16.2 9.9-16.2 11.2c3.3 15 2.3 63.8 2.5 68.3s1.3 30.2-9.7 45c-18.5 29.8-17.3 74.2-17.3 74.2 0 11.3-1.3 9-25 14.1s-26.3-.8-26.7-2.1-12.7-72.3-15-88-12-16-14-16.7-23-5.3-34.7-4.3-13.3-6.3-13.3-6.3-6.3-39.1-11.3-59.2c-16.3-43.2-16.3-113.2-16.3-113.2 7.7-100 38-154.7 64-196s90.7-106.7 191.3-146.3c156.7-53 287-4.3 318.3 10.3s94.7 60 127.9 94.3c76.4 78 87.4 157.8 87.4 157.8 10.7 34.2 11.5 98.9 11.5 98.9-6 12-42.3 10-45.3 5.2z" clip-rule="evenodd"/></svg>