<svg xmlns="http://www.w3.org/2000/svg" id="hair" viewBox="0 0 3000 3000"><path id="cl1" fill="#37302D" d="M1772.374 510.131c8.399 6.6 20 14.1 26.399 22.7 11.32 11.354 13.009 13.329 20.801 24.899 24.899 30.4 20.394 29.235 35.593 65.436 11.101 26.3 6.935 50.068 8.334 77.667.5 9-1.331 23.692-1.531 32.692-.1 3.602-7.47 27.875-9.97 30.974-3-.7-1.348-9.051-2.048-11.051-16.3-41.901-6.478-58.818-33.378-94.718-5.101-6.8-10.899-8.6-19.601-7.8-14.199 1.4-28.601-2.2-42.899-1.7-47.601 1.7-95.2 3.2-142.801 5-58.199 2.2-116.5 4.602-174.699 6.9-19 .7-38 2.3-56.899 2-20.2-.3-39 3.5-56.801 12.8-5.5 2.2-9.801.3-13.699-3.6-3.301-3.3-6.601-6.7-8.9-10.7-5.899-10.4-14-18.6-24.899-23.7-8.2-3.898-9-9.898-5.601-17.3 1.801-4.1 3.101-8.3 1.801-12.6-5.7-18.7-11-37.5-12.801-57.102-.8-2.198-.899-4.5.101-6.698 2.699-5.102.601-10.5.8-15.7.5-11-.3-21.9 1.101-32.9 1.2-9 4.101-16.9 10-23.7 26.7-18.7 55.5-33.1 86.101-44 20.699-.1 41.301-1 60.199-11 5.601-2.9 11.9-3.8 18.101-4.2 3.301-.2 6.801.602 10-.1 29-6.9 58 6.7 87.301-1.102 10.1-2.698 21 4.9 31.699 7.102 6.7 1.398 13 2.5 19.5.1 2.101-.8 3.899-1.1 6.601-.3 11.5 3.5 23.601 5.9 34.899 9.6 7.2 2.302 14.399 3.102 21.5 4.9 12.801 9.4 28.5 13.9 40.5 24.6 3 2.7 6.899 4.102 10.801 4.9 6.899 1.4 12.699 4.8 17.5 9.7 1.6 1.7 3.3 3.5 5.399 4.2 19.601 6.7 33.399 21.9 49.801 33.4h-.301c.696.501 1.297.701 1.996.401z"/><path id="sd1" fill="#2C2624" d="M1261.675 552.631c2.199 5.3 2.699 10.9 3.899 16.4 2.699 13 6.101 25.898 10.899 38.3 2 5.3 2.301 9.898-1 15-3.801 5.8-3.5 8.3 2.801 11.1 12.3 5.602 19 16 25.899 26.602 4.601 7 9.8 13.5 17.899 16.8-12.899 8.3-24.8 17.7-34.899 29.398-18.601 21.5-27.5 46.5-26.899 74.9.199 9.3-.5 18.6-.7 27.8-5.2 6-12.8 6.4-19.5 6.3-44.601-.8-89.101 3.2-133.8 2.302-3-.102-5.9-.9-8.9-.7-2.3-12.9-1.399-25.9-.899-38.8.899-23.2.7-46.4 6.5-69.4 14.5-57.5 40.399-109.1 77.7-155 25.5-31.5 54.8-59 89.199-80.8-4.301 17.5-6.601 35.2-6.101 53.2.2 6.898.7 14-1.899 20.698-3.101.7-6.301 1-11.699.102 5.3 2.298 8.5 3.898 11.5 5.798z"/><path id="hl1" fill="#483F3B" d="M1645.675 434.631c-2.301.5-4.601.898-6.801 1.7-4.399 1.6-8.399 1.3-12.199-1.7-4.601-3.5-9.7-4.3-15.101-2.602-5 1.602-9.101.5-12.801-3.1-5.8-5.7-12.101-6.4-18.899-1.9-4 2.602-8.101 2.4-12.301.2-9.899-5.2-21.3-4.898-31.5-9.1-2.199-.9-5.3-.5-7.899 0-12.101 2.398-24.5 2.2-36.699 3.3-4.5.4-8.601.1-12.2-3-4.3-3.7-9.199-3.6-14-1.3-6.6 3.1-13.399 3.3-20.5 2.3-12.699-1.8-24.6.2-35 8.1-4.5 3.4-9.399 4.9-15 4-4-.6-8.1-.898-11.8.9-10 4.9-18.7 1.9-27.2-3.6 34.801-13.302 70.9-20.9 107.9-23.7 58.899-4.4 116.3 2.8 171.899 23.2 3.399 1.3 6.699 2.898 10 4.398.601.4.8.8.601 1.2-.101.504-.301.704-.5.704zm3.699 3.4c5.801 6.5 12 12.302 20.899 14.602 2.899.7 5.399 2.898 7.101 5.398 4.699 6.802 11.199 10.2 19.301 10.802 6.399.5 11.399 3.398 14.6 9.1 2.7 4.9 7 7 12.4 6.9 7.8 0 13.8 3.398 19.699 8.2 8.199 6.698 16.4 13.599 26.4 17.698-1.8-3.698-5-6.198-8.1-8.698-8-6.5-16-13.102-24.4-19.102-27-19.7-55.699-36.5-87.1-48.3-.801-.4-1.601-.8-2.301-1.3-.699-.2-1.5-.302-2.199-.5v1.898c1.301 1.002 2.601 2.002 3.7 3.302zm144.401 95.8c.5 3 .7 6 1.5 8.898 1.9 7.5 12 15.4 20.4 16.102-6.801-8.799-13.2-17.9-21.9-25zm-191.3-60.4c-5.101-7.5-23.101-10.4-30.101-4.9-1.699 1.302-2.8 2.9-2.399 5.102.399 2.3 2.301 3.7 4.2 3.6 8.5-.5 16.399 1.301 24.3 4.102 2.7 1 5.101-.9 5.399-4.8-.3-.804-.699-2.104-1.399-3.104zm-301.3 7.4c-2.101 2.5-2.801 5.3-.7 8.2 1.801 2.5 4.601 2.898 7.101 1.398 4.5-2.8 8.6-2.2 12.899.3 2.101 1.2 4.601 1 6.2-1.198 1.6-2 1.399-4.302.3-6.502-2.5-5.3-6.899-7.698-12.699-7.898-5.101.1-9.601 1.7-13.101 5.7zm69.699 138.9c-2.601 3.102-1.5 7 2.399 7.4 5.2.6 10.5.4 15.601 1.8 2 .5 3.899-.3 5-2.3 1-1.9.699-3.9-.5-5.6-2.5-4-6.5-5.3-11.5-5.7-3.8 0-8 .8-11 4.4zm55.101-80.9c-.3-4.102-5.8-8.602-10.8-8.7-5.4-.2-10.301 4-10.2 8.8.101 3.9 2.801 6.4 7.2 6.5 8.6.101 14-2.399 13.8-6.6zm256.099 5.701c-1.399 3.8 1.8 5.1 4.5 6.6 2.899 1.601 5.601 3.5 8.5 5.101 2.399 1.399 5.101 2 7.3-.301 2.5-2.6 1.801-5.5.101-8.199-3-4.5-7.5-6.301-12.601-6.699-3.199.097-6.599.197-7.8 3.498zm-107.299.899c2.5-.1 4.601-1 5.301-3.6.8-3-.801-5.2-3.2-6.602-4.3-2.6-8.899-2.6-13.3-.6-3.101 1.4-6.101 3.5-5 7.5 1 3.6 4.3 3.6 7.399 3.5 1 0 2-.1 1.899-.1 2.901-.098 4.901.003 6.901-.098zm95.4 68.7c-1.801 3.5 1 5.3 3.399 7.1 1.3 1 2.601 2 3.899 2.9 2.5 1.8 5.199 3.4 7.899.6 2.301-2.5 1.7-5.5.4-8.3-1.601-3.2-4.301-4.8-8.4-5.398-2.397.198-5.597-.001-7.197 3.098zm163.899 14.1c-3.7-.1-5.2 2.302-5.301 5.7-.101 5.3 4.801 11.7 8.899 11.4 3.7-.3 4.801-2.9 4.801-5.5-.198-5.9-4.498-11.6-8.399-11.6zm-547.2-7.199c-.801-.2-2.301.1-2.601.6-2.199 3.5.399 6.2 1.7 9.101.1.301.3.601.5.801 1 1.3 2.199 2.699 4.1 2.1 1.801-.6 2.101-2.4 2.101-4.1-.3-3.703-2.899-7.803-5.8-8.502z"/><path fill="#7A6E5E" d="M1097.275 816.931c2.4-5.2 7.2-4 11.4-4.1 37.3-.9 74.6-1.6 111.899-2.5 13-.3 26-.9 38.899-1.3-.801 33.6-1.399 67.2-2.301 100.8-.899 35.9-2 71.8-3 107.8-.1 3-.399 5.9-.6 8.7-3.5 1.6-5.5-.6-7.601-1.9-43.899-27.1-87.699-54.398-131.699-81.2-5.7-3.5-7.2-7.898-7.7-13.8-2.899-36.5-5.899-72.898-8.899-109.398-.198-1.102-.299-2.102-.398-3.102z"/><path fill="#39322F" d="M1261.675 552.631c-5.2 2-11.2.5-16.2 3.8-2.101 1.3-4.5 1-6.199-1.1-1.9-2.3-1.7-4.9-.4-7.4 2.5-4.898 9.601-7.6 15.5-6 3 .8 5.301 2.602 7.4 4.8-.101 2-.101 3.9-.101 5.9zm-97.301 145.1c-.199-5.198-6-10.198-11.601-10.1-5.699.2-10.399 5-10.601 10.9-.1 4.5 2.101 6.898 6.301 7 10.302.1 16.101-2.8 15.901-7.8zm44.101 34c.101-4.8-4.5-9.5-9.5-9.698-5.199-.2-10.199 4.1-10.101 8.8.101 4.6 4 7 11.2 7 5.701.098 8.401-2.002 8.401-6.102zm-27.101-114.699c1.5-2.7.399-5.2-1.301-7.302-3.899-4.8-11.399-5.3-16-1.1-3.699 3.4-3.199 7.5 1.601 9.3 3.101 1.102 6.5 1.4 8.5 1.8 3.601.001 5.9-.299 7.2-2.698z"/><path fill="#695D4F" d="M1140.975 932.631c-3.101.2-4.5 2.4-4.3 5.5.199 2.6 1.699 4.3 4.399 4.3 3.199 0 4.699-2 4.899-5-.399-3-1.899-5.1-4.998-4.8zm86.2-12.2c-2.301 0-3.801 1.3-4.101 3.5-.399 2.7.899 4.602 3.699 4.9 2.7.3 4.301-1.3 4.801-4-.2-2.7-1.599-4.299-4.399-4.4zm-52.101-89.7c-2.301-.198-3.801 1.102-4.101 3.302-.301 2.6 1 4.6 3.801 4.6 2.3 0 3.399-1.6 3.699-3.8-.198-2.102-1.099-3.801-3.399-4.102zm-35 19.5c.101-2.198-1.2-3.698-3.399-4-2.601-.3-4.5.802-4.9 3.5-.3 2.7 1.2 4.2 4.101 4.7 2.299-.3 4.099-1.399 4.198-4.2zm86.701-1.5c-2.8 0-4.1 1.9-3.8 4.602.199 2.2 1.699 3.6 4 3.398 2.3-.198 3.3-1.8 3.399-4.5-.399-1.699-1.3-3.5-3.599-3.5zm-41.5 28.1c-2.3-.4-3.899.898-4.199 3.1-.4 2.602.699 4.602 3.5 4.8 2.3.102 3.5-1.398 3.899-3.6 0-2.3-.901-3.9-3.2-4.3zm.4 52.4c-.301 2.302 1.1 3.802 3.3 4.102 2.601.398 4.601-.8 4.7-3.7.1-2.3-1.601-3.399-3.801-3.7-2.199-.002-3.899.998-4.199 3.298zm-56.101-51.3c-2.2 0-3.801 1.102-4 3.3-.2 2.802 1.5 4.2 4.199 4 2.2-.198 3.5-1.5 3.601-3.8-.199-2.3-1.599-3.399-3.8-3.5zm88.8 103.601c0 2.3 1.601 3.6 3.899 3.6 2.301 0 3.801-1.3 3.801-3.6 0-2.302-1.601-3.5-3.801-3.602-2.298.102-3.899 1.201-3.899 3.602z"/><path fill="none" stroke="#000" stroke-miterlimit="10" stroke-width="6" d="M1821.374 664.532c-8.199-17.302-34.6-15.802-34.6-15.802s-366.1 17-424.6 18.5c-70 3-98.301 82-98.301 82s-9.301 252.5-8.199 268.802c1.101 16.3-11 8.8-11 8.8s-116.2-75-127.7-79.4c-11.5-4.398-12.8-12.199-12.8-12.199s-5-53.199-11-152c7.5-169 101.8-256.199 159-298.399 142.5-109.103 292.5-80.402 330.199-73.202s106 29.398 156.399 72.3c96.399 62.8 114.24 123.49 123.5 179 10.24 61.388-9.106 99.236-9.106 99.236s-16.666-70.668-31.792-97.636z"/></svg>