<svg xmlns="http://www.w3.org/2000/svg" id="hair" viewBox="0 0 3000 3000"><path id="cl1" fill="#42322B" d="M1428 378.2c22.6-3.6 44.699-2.3 66.199 6.2 6.601 7.1 5.9 16.399 6.4 24.8 1.5 23.601 3.6 47.101 6.1 70.7.4 4 .601 8-.8 11.9-3.8 4.8-7.6 3.7-12 .5-10.4-7.8-21-15.601-30.1-24.7-14.5-14.4-30.9-26.3-47.2-38.3-4.3-3.2-5.4-6.7-4.3-11.601 2.3-10.1 4.699-20.1 7.5-30 1.301-4.599 3.801-7.799 8.201-9.499zm-408.301 882.7c12.601-8.1 22-19.3 29.601-32 14.7-24.5 29.3-49.1 44.3-73.4 11.7-18.8 21.7-38 29.2-58.699 2.6-7.301 6.8-13.7 12-19.4 4-4.4 8.199-8.8 10.5-14.5 2-5 4.199-9.8 9.1-12.7 2.5-1.5 2.8-3.699.9-5.8-5.2-5.5-9.301-12-16.101-16.7-.8 1.2-1.699 1.9-2 2.7-5.699 16.3-16.5 29.5-26.1 43.5-8.1 11.8-16.1 23.8-20.1 37.7-3.2 11-8.101 21.1-14.4 30.6-11.6 17.5-21.4 36-31 54.7-10.6 20.4-18.1 42.2-30.4 61.8-.8 1.3-1.899 2.8-.6 4.601 2.1.298 3.501-1.402 5.1-2.402zM1560.3 385.4c-2.7 12.3-5.9 24.399-8.601 36.7-1.1 4.899-.899 9.7 2.601 13.899 13.8 16.101 27.3 32.4 42.7 47 3.399 3.2 7.1 4.7 11.6 3.7 1.9-1.399 3.2-3.1 3.7-5.5 5.3-26 10-52.2 12.899-78.6.4-3.601-.399-6.5-3.199-8.9-6.101-3.2-12.101-6.8-18.5-9.6-11.301-5-23-8.301-35.5-7.9-4.2 1.701-6.7 4.701-7.7 9.201zm185 163.5c6.6.9 13.1 2 19.5 3.9 15.399 4.5 31.399 5 47.1 7.8 7.8 1.4 13.8-.8 17.101-9 2.699-6.8 6.699-13 11-18.9 3.5-4.6 4.3-9.3 1.8-14.5-15.5-16.8-35-27.6-55.8-36.399-15.2 21.3-32.101 41.3-48.101 62 .5 4.799 4.2 4.699 7.4 5.099zm-471.4 14.5c-17.7-23.1-36.2-45.6-54.3-68.399-3.2-4.101-6.9-7.101-11.6-9-11.801 4-22.801 9.3-32.2 17.6 2.399 14.8 4.8 29.6 7.3 44.4 1.7 9.8 3.1 10.899 12.8 12.1 11.601 1.4 23.3 1.9 34.601 4.5 14.6 3.3 29.3 6.4 44 9.1 6.899-3.9 1.599-7.4-.601-10.301zm101.7-66.3c-13.4-23.601-27-47.2-40.7-70.7-2.1-3.5-4.899-5.601-8.8-6.3-6.2 0-12.4-.101-18.6.1-8.9.2-17.601 1.4-25.4 6 0 10.9.3 21.9-.1 32.801-.301 8.699 2.899 14 11 17.899 13.8 6.7 27.8 12.3 42.6 16.3 13.1 3.5 26.4 6.601 38.7 12.7 5.1-2.3 3.2-5.5 1.3-8.8zm359.8-31.1c2.5-3.899 4.9-7.899 8.9-10.5-9.601-23.3-27.101-39.3-48.2-52-2.3 6.4-6.9 11.4-11.4 16.3-5.199 5.601-6.5 11.001-3 18.001 4.301 8.699 7.301 18.1 8.601 27.6 2.1 14.7 7.399 28.3 11.899 42.2.7 2.2 1.4 4.399 2.101 6.7C1714.699 498.2 1725 482.1 1735.4 466zm-639.701 173.6c6.2 14.6 12.4 29.3 18.7 43.899 2.9 6.7 5.4 8 12.5 6 7.7-2.1 15.2-4.8 22.7-7.3 14.5-4.8 29.199-8.899 44.399-10.3-21.399-17.3-44.199-32.7-67-48-4.1-2.7-8.8-4.9-11-9.7-8.299 7.102-15.598 15.201-20.299 25.401zm317.901-253c.4-2.2 1.5-4.4 2.3-6.5-3.6.3-7.3.3-10.8 1-19.8 3.8-37.4 12.6-53.3 24.699 4.5 2.2 6.3 6.7 8.3 10.801 8.6 17.2 17.1 34.399 25.6 51.6 11.4-26.5 22.3-53.1 27.9-81.6zm-245.3 141c-.9-4.5-1.601-9.101-3.9-13.2-17.5 20.3-30 42.9-34.1 69.8 4.3-3.7 7.3-.1 10.399 1.9 11.801 7.9 21.801 17.9 33.101 26.4 1.2-28.6.2-56.9-5.5-84.9zm686.7 600.701c7.699 11.5 11.899 24.5 14.5 38 3.6 19.1 11.399 36.8 17.899 54.899 1.3 3.7 3.4 6.5 7.4 7.301 4.399.899 9.5 4.699 13.2 1 4.3-4.4-.301-9.301-2.5-13.5-7.2-13.301-12-27.4-14.601-42.2-1-5.7-2.7-10.9-6.3-15.4-4.5-5.6-7.6-12-8-19.1-1.1-18.2-14.6-29-24.7-42-2.598 11-3.298 21.299 3.102 31zm-584.801-649c2.4-15.801 3.4-31.7-.399-47.5-18.9 10.199-34.9 23.5-45.601 42.399 5.601 2 9 6.7 12.9 10.8 10.8 11.4 19.6 24.4 29 36.9.801-14.3 2.001-28.5 4.1-42.599zm603.5 111c2.301-23.5-6.899-42.9-21.5-60.4-11.199 9.3-17.199 21.6-20.6 35.5-2.8 11.6-4 23.6-9.6 34.4 17.2-3.301 34.501-6.401 51.7-9.5zm-777.299 78.5c-2.5-5-4.1-10.601-8.3-14.7-4.3 9.399-6.3 19.3-6.4 29.7-.199 15.5.301 30.899 2.4 46.3 4.9.3 8.6 3.2 12.4 5.7 7.1 4.699 14.199 9.5 21.3 14.3-2.601-28.3-8.4-55.701-21.4-81.3zM1669.3 418.7c6-5.9 12.7-11.6 14.7-20.6-17.2-3.7-34.7-2.101-52.101-1.9-.3 5-.5 10-.8 15-1 14.3-2 28.601-3 42.8 14.001-11.4 28.201-22.6 41.201-35.3zm-153.601-33c3.5 2.8 3.9 6.7 4 10.7.101 6.899 0 13.8.4 20.8.9 15.101.9 30.3 3.7 45.2-.7-11.3 6-19.3 12.6-27.2 3.6-4.3 7.4-8.5 8.8-14.2 2.601-10.899 5.5-21.8 7.801-32.8 1.699-7.9 1.3-8.1-7.4-10.5-10.5.8-20.3 4-29.901 8zM1177.9 1074c1.7 5.5 2.101 11.101.8 16.7-3.1 13.3-5 26.8-10.8 39.4-1.3 2.7-2.5 5.7-2.5 8.6.3 14-5.7 25.7-12.7 37.2-.199.4.301 1.1.5 1.8 3.101.9 5.7-1.1 8.5-1.8 9.601-2.6 16.9-7.4 18-18.5.301-3.2 1.9-6.4 2.801-9.5 2.699-8.9 5.699-17.8 5.6-27.3-.1-7.7.4-15.3 1.8-22.8 2-11.101-.7-20.5-10.1-27.301-3.701-.698-3.102 1.302-1.901 3.501zm-106.1-292.699c-.3 1.1-.9 1.899-1.7 2.6-.2.6-.4 1.2-.5 1.9 2.7 3.899 3.8 8.5 4.8 13 1.2 5.5 4.601 8.699 10.101 9.699 7.5 1.301 15 2.801 22.6 3.601 8.9 1 10.9-1 10.1-9.8-.5-5.601-1.699-11.2.9-16.601-8.7-6.1-18.3-10.6-27.4-15.899-4.1-2.4-8.1-4.7-8.8-10-1.901 7.899-5.901 14.799-10.101 21.5zm556-195.201c1.2-1.101 2.8-2 3.6-3.4 8.6-13.3 17.1-26.7 25.6-40.1.199-.3.3-.601.399-.9 1.8-4.8-.8-12.1-5.899-15.6-5.301-3.7-7.7 1.3-10.7 4-4.601 4.2-8.8 9-14 12.6-2.2 1.5-4.3 3.4-7.101 1.101-1.899 10.699-3.899 21.399-5.899 32 4.3 4.199 9 7.5 14 10.299zm-189.7-22.299c5.9-1.4 11.9-1.301 17.9 0h2.1c2.7-10 4.6-20.101 5.7-30.301.5-4.699.3-9.5-4.9-12.1-8.6-4.3-21.4 0-25.5 8.9-2.5 5.399-4.5 11.1-6.9 16.6-1.3 3-2.199 6.5-6.199 7.1 1 4.7 3.5 9 3.699 13.9 4.6-1.4 9.3-2.7 14.1-4.099zm453.15 88.699c-18.8 13.601-40.851 29.2-51.25 51.5 16.699-2.899 33.3-5.8 49.8-9.8 9.2-11.825 4.15-29 1.45-41.7zm-391.65-110c-4.9-2.699-9.6-5.8-14.5-8.399-5.7-3-8.2-2.4-9.6 3.399-2.301 9.2-5.101 18.5-3.4 28.2 7.4 1.7 14.7 3.601 22.1 4.9 8 1.4 16.2 2.9 24.101-.4-4.5-1.3-5.7-4.899-6.5-9.1-1.4-7.1-1.101-14.6-3.5-21.5-1.801 4.701-4.901 5-8.701 2.9zm232.5 89.5c2.7-2.6 6-4.1 9.3-5.6 7.5-3.4 15.101-6.8 22.601-10.2 1.6-6.7-.4-11.6-7.2-14.1-1.2-.4-2.3-1.3-3.5-1.9-9.601-5-12.3-4.3-18.7 4.9-3.7 5.4-7 11.1-9 17.4 2.098 3.2 4.299 6.301 6.499 9.5zm160.7 140.6c1.3-.101-.5-.3.8-.5 0-10.4 2.6-20.2 6.6-29.7 2.101-7.7-.699-10.8-8.5-9-9.6 2.2-19.199 4.8-28.399 8.5-3.7 1.5-17.153 4.738-15.653 10.039 2.1 5.899 4.763 10.491 6.862 16.39l38.29 4.271zm-356.9-210.7c10.601-2.7 21.4-1.6 32.101-1.8 2.699-5.7 5.199-11.4 6.399-17.6 1.101-5.7-1-8.7-6.3-10.5-4.6-1.5-8.4-.301-11.8 2.8-4.101 3.8-8 7.899-12.301 11.399-4.8 3.9-5.199 3.601-9.8-2.199.601 6 1.101 12 1.701 17.9zM1848 738c3.399 2.301 7.199 3.5 11.199 2.5 11.2-2.8 22.301-6.199 33.301-9.899 5-1.7 7.5-5.2 5.6-10.7-.8-2.3-1.8-4.5-4-5.9-8.7-.1-17 2.601-25.4 4.2-13.699 2.601-26.899 7.4-40.899 8A1332.112 1332.112 0 0 0 1848 738zm-160-146c9.8 6.101 18.899 13 28 20 3.199-5 6.699-9.899 9.5-15.1 3.1-5.6 2.3-7.4-3.601-9.8-6.1-2.5-12.7-3.8-18.399-7.4-5.2 4.101-10.4 8.2-15.5 12.3zm143.699 103.5c1.7-3.3 3.601-6.5 1.2-10.199-5.8-9.301-18.9-9.601-25.4-.7 4.801 9.6 8.4 19.7 12.101 29.8 1.1-5.8 6.399-6.2 10.5-8-3.5-4.401-.1-7.6 1.599-10.901zM1660.1 590.2c-.8-3.7 1.5-6.3 3.2-9.1 2.8-4.5 5.699-8.9 8.5-13.4-1.4-2.6-2.7-5.3-4.2-7.899-2.1-3.601-4.7-3.5-7-.4-6.4 8.5-11.8 17.5-16.7 26.9-1.3 2.5-.5 4.6 2.601 5.199 1.899.4 3.899.5 5.899.7 2.7-.3 5.4-.5 7.7-2zm219.8 35.8c-12.1 2.601-24.1 5.2-36.2 7.801 8.5 2.899 16.301 7.3 24.101 11.5 9.5 5.1 12.399 4.3 18.2-5.301-1.302-5-3.302-9.699-6.101-14zm-6.618 173.591c4.101 5.4 14.417 7.01 18.018 1.21 4.5-7.101 3.899-15.101 3-23-2.4 3.699-6.2 4.199-10.2 4.3-4.8.1-14.056-.611-18.956-.611 2.2 7 3.739 12.301 8.138 18.101zM1582.1 556.5c-.7 1.801-1.4 3.7-2.2 5.5 5.5 1.801 10.9 3.601 16.4 5.4-.101-5.1-.2-10.3-.3-15.4-9.1-5.699-9.9-5.4-13.9 4.5zM1315 535.4c1.6-7.8 3.1-15.7 2.899-23.7-.1-4.5-.6-9.1-4.899-11.3-8.301-4.3-16.7-8.2-25.301-11.899-3.8-1.7-6.399.399-7.199 4.399-.5 2.3-.5 4.601-.9 6.9-1.9 11.5-1.8 23.3-5.6 34.399 10 18.7 20 37.3 30 56 2.8-18.499 7.3-36.599 11-54.799zm18.5 100.1c11.1-1.399 14.3-4.8 14.5-16.1.199-9.6 0-19.2 0-28.9 0-7.3 0-14.6-.2-21.899-.101-3.7-.7-7.3-4.5-9.3-8.7-4.601-21.7.899-23.9 10.5-1.7 7.1-2.6 14.399-3.899 21.5-.801 4.6-1.4 9.3-5.301 12.6 5.2 10.7 9.4 21.9 15.4 32.3 2.599-.301 5.3-.4 7.9-.701zm34.8-119.8c-9.2-3.1-18.3-6.2-27.8-8-7-1.3-9.2 0-10.601 6.9-1.3 6.5-2.1 13.2-2.8 19.8-.9 8.9 1.1 11.2 9.8 10.2 9.8-1.1 19.2.3 28.7 2.6 12.6 3.101 25.3 6.3 38.3 6.8-6.6-12.399-14.3-24.199-22-36-4.899 1.2-9.299-.8-13.599-2.3zM1360 591c0 5.301-.2 10.601.1 15.9.2 3.8-1.9 9.5 2.4 10.7 4.5 1.3 7.199-4.1 9.199-7.7 5.2-8.9 10.301-17.8 16.2-26.2 1.5-2.2 2.8-4.5 4.1-6.899 3.9-7.4 2.7-10.4-5.1-12.2-5.5-1.3-11.1-2.3-16.7-3.101-7.399-1-9.699.9-10.1 8.5-.4 7-.1 13.9-.1 20.9l.001.1zm-85.801-4c-10.1-2.199-20.199-4.5-30.3-6.399-9.6-1.8-11.5-.3-11.8 9.2-.2 6.699-.2 13.3 0 20 .3 9 1.5 10.3 10.699 10.199 11-.1 21.9 1.101 32.801 2.601 13.6 1.899 26.699 5.6 40.199 7.5-8.8-14.9-19-28.7-29.8-42.101-4.098 1-7.898-.1-11.799-1zm-54.099 9.301c-.6-20.301-1.5-21.801-21.9-23.5-8.899-.7-11.699 1.399-12.1 10.199-.4 7-.1 14-.2 21 0 6.301.3 12.7-2.3 18.7 12.2 13.2 22.7 27.7 34.2 41.5-.601-22.8 3-45.3 2.3-67.899zm36.099 99.899c7.301-5.399 10.7-12.2 8.9-21.5-1.5-8.1-2.4-16.399-3.5-24.6-2.4-16.9-2.4-19.6-23.5-15.9-5 .9-7.5 3.9-7.8 8.8-.2 3.301-.101 6.601-.301 9.9-.699 9.6 1.5 19.1.2 28.7 5.3 7.5 10.5 14.9 15.8 22.4 3.402-2.6 6.701-5.3 10.201-7.8zm18.301-35.8c.3 2 .6 4 1.1 5.9 1.4 4.8 3.4 5.399 6.8 2 4-4.101 6.8-9 9.4-14 6.7-13 4.2-17.4-10.4-18-7.2-.3-9.1 1.5-9 9.1.6 4.401 1.299 9.7 2.1 15zm437.3-88.599c8.1.699 15.6 3.3 22.899 6.6 8.801 3.9 17.5 8.1 26.4 11.9 6.8 2.899 8.9 2.199 11.9-4.2 1.8-3.9 3.399-8 4.6-12.101 2.1-7.3.9-9.899-6.2-12-9.6-2.8-19.2-5.699-29.2-6-4.3-.1-8.6-.6-12.699-2.3-6 6-11.801 12.101-17.7 18.101zm-14-46c-2.9-3-3.9-6.9-5.2-10.601-2.5-7.2-5-14.399-7.9-21.5-2.3-5.7-4.399-6-8.6-1.7-3.7 3.801-7.2 7.801-10.8 11.7-7.3 7.9-7.601 9.2-1.601 17.9 7.7 11.2 12.301 23.5 14.5 36.7 7.401-10.4 13.401-21.499 19.601-32.499zM1193.699 683.1c-7.399 1.899-14.8 3.6-22.199 5.6-9.5 2.601-11.101 4.601-11.4 14.601-.2 4.6-.2 9.3 0 13.899.4 10.3 2.4 12.2 12.3 12.7 14.101.7 27.601-3.5 41.3-5.7 3.801-.6 6.9-3 7.801-6.899 1.5-6.9 6.5-9.601 12.5-11.301-8.601-10.199-19.2-18.199-29.801-26.199-3.501 1.199-7.001 2.399-10.501 3.299zm-3.399 107.6c3.3-2.3 6.399-5.1 6.899-9.3 1.301-11.2 1-22.5.301-33.7-.2-3.8-2.601-6.2-6.5-6-6.9.3-13.9.4-20.801 1.3-7.399 1-9.5 3.7-10 11.301-.299 5.899-.199 11.899-.199 17.899 0 4.601-.101 9.3-1.9 13.7 5.6 5.2 11.7 9.9 18 14.1 4.8-3.199 9.599-6.199 14.2-9.3zm-42.3-80.899c0-1 0-2-.101-3-.6-7.9-2.399-9.301-10-7.601-1.6.4-3.2.9-4.8 1.5-9.7 3.4-11 5.4-9.3 15.4 1.899 11.1 4.1 22.2 6.199 33.3.801 4.3 1.601 8.5-.1 12.7 6.2 5.9 12.7 11.4 19.8 16.3.001-22.9-2.798-45.7-1.698-68.599zm69.3 34.599c.3-2.3.3-5.1-2.8-5.4-2.4-.199-3.301 2-3.7 4-1.101 5.2-1.2 10.4.899 15.9 3.601-4.2 4.901-9.2 5.601-14.5zm207.5-223.5c9.5-17.3 11.5-36.7 16.1-55.3 1.4-5.8-.7-10.4-5.399-13.9-4.801-3.5-9.5-7.399-14.4-10.699-7.3-5-9.7-4.301-13.4 4.199-3.1 7-5.899 14.101-9 21.101-2 4.6-4 9.2-8.699 11.8 8.699 21.3 17.3 42.7 26 64C1418.9 535 1421.1 527.5 1424.8 520.9zm65.899-22.099c-2.1-1.601-4-3.5-6.1-5.2-8.2-6.8-16.3-13.7-24.6-20.4-5-4.1-7.301-3.399-9.301 2.8-1.899 6-3.399 12.2-4.699 18.4-2.301 10.5-.801 12.6 9.699 13.5 6 .5 12 1.1 17.301 4.4 11.6 7.3 23.699 13.699 34.699 21.699-1.899-13.399-2.6-27-5.5-40.199-2.298 9.399-4.298 10.299-11.499 5zM1130.5 818.6c1.6 9.3 7.1 11.3 14.899 5.7 5.4-3.801 10-8.801 16.7-10.4-10.8-7.6-22.2-14.1-34-20-.299 8.401 1.001 16.6 2.401 24.7zm-15.4 19.3c3.2 0 7.8 1.1 8.8-2.7 1-4.1-3.7-5.6-6.7-7.6-.5-.4-1.199-.6-1.8-.8-11.5-3-23.3-4.2-35.5-4.7 10 9.6 21.2 16 35.2 15.8zm664.5-194.099c8.6-.301 16.5 1.899 23.2 7.5 9.3 7.699 19.899 13.1 30.399 18.899 7.4 4.101 12.9 3.9 18.801-1.6 1.399-1.4 3.199-2.4 4.699-3.7 6.7-5.5 6.4-7.8-1.399-12.1-3.2-1.8-6.601-3.2-9.801-5-6-3.5-12.5-6.4-17.399-11.5-16.1 2.4-32.5 3.7-48.5 7.501zM1810 601.9c2.1-7.3 4.6-14.6 6.3-22 1.899-8.4.2-10.4-8.4-12.3-1-.2-2-.4-2.899-.5-11-2-12.2-1.3-16.101 9.3-4.3 11.9-8.6 23.7-12.899 35.6 11.299-3.4 22.698-6.699 33.999-10.1zm-184.2-75c17-15.5 31.8-32.899 47.5-49.6 3.7-3.9 5-8.601 4-13.8-.8-4.601-1.8-9.101-3.3-13.5-3.7-11.301-6.9-12.2-16-4.9-7 5.6-14 11.3-21.2 16.6-6.5 4.801-7.101 4.4-9.2-3.899-3 9.7-1.7 19.8-2.6 29.6-1.4 14.2-3.5 28.3-3.301 42.601 1.5-1.002 2.901-2.002 4.101-3.102zm-91.9 11.1c16.2-12 27.9-26.6 33-46.8 5.8-23.1 8-21.7-10.899-42.1-6.7-7.3-9.601-6.9-16.101.6-5.2 6-9.5 12.9-15.6 18.101 1.8 23.599 4.6 47 9.6 70.199zm56.2-52.6c-4.8-4.3-7.4-3.8-9.7 2-2.8 7.5-5.399 15-7.8 22.7-2.1 6.7-1.3 8.5 5.5 11.6 4.7 2.101 8.5 5 11.9 8.9 2.399 2.8 5.3 5 8 7.5 2-12.7 3.899-25.5 5.899-38.2-5.7-3.9-8.799-10.099-13.799-14.5z"/><path id="sd1" fill="#322620" d="M1418 572c-6.601 5.301-10.9 12.4-14.601 19.9-4.7 9.5-9.399 19-15.399 27.8-8.101 11.9-19.101 19-33.2 21.7-8.101 1.5-16.2 3.3-24.4 5-.5-.1-1.1-.2-1.6-.3-4.8-2-5.9-5.9-5.601-10.6.801-3.7 2.801-5.5 6.801-5.801 8.3-.6 12.399-5.699 12.699-13.699a437.3 437.3 0 0 0 0-39.7c-.199-5.101-1.5-10.4-7.899-10.8-5.9-.4-8.9 3.8-10.4 8.899-2.399 7.601-3.3 15.601-4.5 23.4-1.1 7.1-4.2 10.7-11.5 10.3-4.1-2.6-5.2-7.2-7.5-11-.8-1.5-1.399-3.1-2.1-4.6-.4-1-.601-2-.7-3.101 2.7-4.1 5.2-7.6 3.5-13.7-1.4-5 1.2-11 2.6-16.5 3.301-12.899 6.2-25.899 7.801-39.1 1.3-11.7-7.2-21.7-18.801-22.6-5.699-.4-7.6 3.199-8.6 7.699-1.7 7.501-2.3 15.101-3.1 22.7-.601 6-3.4 8.9-8.9 10-6.6-3.2-8.4-10.1-12.3-15.399 2.8-12.5 1.5-25.4 3.7-37.801 2.199-12.5 3.399-24.899 3.1-37.6-.1-5.3.4-10.6 2.8-15.5 3.7-2.7 7.8-4.6 12.2-5.6 3.3 1.5 4.8 3.899 4.8 7.6 0 3 .5 6 .101 8.9-3 19.6 6.399 30.6 24.1 36.899 11.3 4 22.8 7.7 34.4 10.5 9.8 2.4 18.5 8.9 29.3 8 1.3-.1 2.5 2 3.399 3.4 3.301 5.3 7.2 10.3 9.5 16.1-2.6 6.7-7.399 7.4-13.6 5.5-8.3-2.5-16.3-5.8-24.8-7.6-9.8-2.101-14.4.899-15.7 9.899-1.3 9.301 2.1 13.101 12.3 13.4 16.101.5 31.3 6 46.8 9.3 4.301.9 8.4 1.9 12.7 1.101 6.7 6.504 12.1 13.404 12.6 23.004zm-88.7 73.4c-5.7-5.3-5.9-14.6-13.3-18.7-12.801-3.8-25.5-7.899-38.9-9.399-9.5-1.101-19.1-2-28.6-2.801-8.9-.8-12.4-7.1-11-17.6 1.1-8.1 4.8-10.6 14.199-9.2 9.2 1.4 18.2 3.7 27.2 5.8 5.9 1.4 10.4.301 12.7-5.8-3.801-7.5-9.5-13.6-14.801-20-9.399 1.3-18.1-2.2-26.899-4.399-14.5-3.7-29.101-6.101-44-7.801-14.4-1.6-16.5-4.6-18.8-18.699-1.301-8.2-2.4-16.5-4.601-24.5-1-3.601-1.2-8.2-6.6-8.7-4.2 3.2-8.3 6.399-11.4 10.7-1.6 7.399-1.6 14.8-.1 22.3 4.8 25.399 5.899 51 4.399 76.8 4.4 5.1 7.601 11.6 15.4 12.7 5.5-2.101 7.1-6.2 7-11.8-.1-8-.5-16 .4-24 .6-5.4 2.8-9.801 8.899-10.4 6.4-.6 10.9 2.3 13.2 8.4 1.6 4.5 1.5 9.199 1.5 13.8-.1 20.899-1.7 41.6-2.8 62.399 5 7.801 9.1 16.2 17 21.7 6.1-1.899 8.399-5.6 7-12.1-1.601-7.9-1.601-15.9-.8-23.9.6-5.899 3.399-10.2 9.899-10.7 6.7-.5 9.5 4.2 10.5 9.801 1.5 8.199 2.601 16.399 3.5 24.699.9 8.101-2 14.301-8.399 19.101-4.2 3.1-8.9 5.7-10.4 11.2 3.3 5.3 6.7 10.3 13.3 11.5 15.2-3.801 24.8-13 29.2-28.301 6.1-21 20.8-33.5 41.6-39.3 1.9-.5 3.801-1.3 5.7-1.899-.496-.201-.896-.601-1.196-.901zm-93.8 56c-9.4 1.5-17.801 4.2-21.801 14.2-1.1 2.7-4.6 3.8-7.6 4.4-7.5 1.3-14.9 3.5-22.5 4.3-11 1.2-16.2-1.7-17.9-9.601-2.399-10.8 1.7-18.5 12-21.899 6.601-2.2 13.4-3.9 20.301-5.101 5.5-1 9-3.6 10.5-9-1.9-5.899-7.601-8-11.801-11.6-2-1-3.899-2.3-6.5-1.5-18.3 5.6-37.1 9.1-55.199 15.4-11.301 3.899-13.9 1.899-19.301-9.101-4.199-8.6-7.399-17.8-12.1-26.2-1.7-3.1-3-6.899-7.8-6.1-3.4 5.1-5.7 10.7-7.601 16.5.4 14.4 8.2 26.5 12.801 39.6 6.699 19 9.8 38.801 12.6 58.7 4.4 5.4 9.2 10.4 16.4 11.9 6.1-3 7.6-7.5 6.199-14.1-2.3-11.7-5-23.301-5.899-35.2-.301-4.5 1.199-9.2 6.6-9.4s6 4.8 5.9 8.7c-.601 21.6 1.399 43.1 3 64.6 3.199 4.101 6.5 8.101 11.3 10.601 6.4-1.4 7.8-6.101 8-11.801.2-7.3-.6-14.699.8-21.899 1.4-7 6.2-9.9 12.9-10.3 5.6-.301 10.7.6 13.1 6.699 5 12.2.2 28.801-10.899 36.301-4 2.699-7.5 5.5-9.2 10 2.399 6.699 8.2 8.199 14.3 9.5 1.5-.601 3.1-1.2 4.6-1.9 13-6.1 21.301-15.5 22.301-30.4.3-4.3 1.3-8.5 2.199-12.699 4.5-20.9 15-37.4 35.2-46.5-3.701-7-8.6-12.699-14.9-17.1zM1416 380.1c-4.2 2.3-7.801 5.199-8.9 10.3-5.7 27.3-16.5 52.8-26.7 78.6 1.601 4.2 3.5 8.2 6.101 11.9 8 2.4 12.199-1.4 15.3-8.4 2.8-6.399 5.2-13 8.5-19.1 2.3-4.1 5.1-6.9 10.399-5.3 9.2 2.8 15.7 12.1 13.801 21.5-3.4 16.899-6.9 33.7-14.301 49.6-3.6 7.8-8.199 15.601-9.699 24.4 1.699 4.5 3.3 9.1 5.199 13.6 5.5 4.8 10.101 3.4 13.2-2.5 3.4-6.399 5.3-13.6 8.8-20 3.101-5.6 7.601-9.899 14.4-7.7 7.2 2.301 5.9 8.601 5.1 14.2-1.1 7.601-3.8 15.2.9 22.5 4.7.7 9.4 1.3 14 2 4.3-4.2 4.9-9.7 6.1-15.2 2.101-8.8 5.4-10.3 13.4-6.3 3.2 1.601 6.3 3.7 9.7 4.8 8.7 2.9 13.3-.899 12.8-10.3-.4-1.899-.8-3.7-1.1-5.6-.601-2.6-1.101-5.4-4.7-5.3-3.5.1-5-2.8-7.5-4.4-12.9-7.9-24.2-19-40.2-20.899-5.3-.601-8.8-3.301-8.3-9.101.3-3.899.6-8.399 4.3-10.7 4.3-2.7 7.5.9 10.6 3.2 8.9 6.3 16.4 14.5 25.601 20.5 5.5 3.601 9.8.7 13.2-2.8 3.5-3.7 3.899-8.2-.9-11.8-1-.101-2.1-.101-3.1 0-27.4-20.4-50.9-45.601-79-65.2-4.9-3.4-5.801-7.601-4.301-13 3.2-11.9 5.5-24 9.5-35.601-4.3.101-8.4.501-12.2 2.101zm-252.7 428.3c-5.7 1-10.2 4.6-15 7.2-8.601 4.6-10.4 3.7-13.5-5.2-2.4-6.8-1.4-13.9-3.7-20.5-3.8-3.1-8.1-5.5-12.5-7.5-7.4 2.2-7.3 8.2-7.6 14.3-.5 10.2-2.9 11.8-13.101 10.8-9.7-.899-17.2-4.3-20-14.699-1-3.801-2.6-8.101-8.2-4.9-.6 1.9-1.6 3.8-1.699 5.7-1.801 21.399 2.199 41.8 11.6 60.899 3.6 7.4 9.1 14 16.8 17.9 6.801 3.4 14 6 21 9.2 4.801 2.2 9 1.9 12.801-1.8 3.399-3.2 6.699-6.5 10.199-9.5 16-13.9 30.101-29.2 35.101-50.7-2.302-5.7-7.101-8.6-12.201-11.2zm514-273.2c-2.101-4.899-4.8-9.399-7.3-14.1-4-7.4-2.601-13.1 3.699-18.4 4-3.399 7.101-3.199 9.4 1.7 2.6 5.7 4.4 11.8 6.1 17.8 1.4 4.9 4.301 5.801 8.601 3.5 2.199-3.8 4.3-7.6 6.5-11.399.5-4.3 2.399-8.7.8-13-6.3-17.5-7.6-36.3-14.3-53.5-5-12.8-4.9-23.7 5.1-33.7 3.6-3.601 3.1-7 .2-10.601-3.5-3.1-7.7-4.6-12.2-5.3-3.4 3.8-8.3 5.8-11.9 9.601-10.6 11.399-22.1 21.8-34.3 31.6-5 4-10 8.2-14.6 12.8-.4 1.4-.7 2.801-1.2 4.2-.7 4.8-3 9.9 2.4 13.4 5.6 3.7 10.1.2 14.399-3 5.101-3.7 10.101-7.7 15.2-11.3 3.7-2.601 6.9-7.601 12.1-4.801 5.301 2.9 5.301 8.9 5.5 14.2.2 5.4-2.699 9.5-6.3 13.101-5.6 5.699-10.3 12.3-16.1 17.699-10.601 10-18.301 23.101-31.601 30.101-.5.899-1 1.7-1.399 2.6-1.2 2.9-1.2 6-1.601 9-.199 2-.5 3.9-.8 5.9 1.4 7.399 5.9 9.899 11.9 6.3 5.1-3.1 9.5-7.2 14-11.2 2.6-2.399 5.8-5.899 9.399-2.6 3.4 3.1.801 6.8-1 9.899-4.5 7.4-9 14.7-13.399 22.2-3.301 5.601-7.4 10.9-6.9 17.9 7.3 5.5 14.8 10.2 24.6 6.1-.3-16.5 4.601-22.7 19.5-24.5 2.101-3.2 4.2-6.3 6.4-9.5 3.602-7.4 2.202-15.099-.898-22.7zm-138.7 18.7c4.4.9 7.3-2.4 10.3-4.8 2.8-2.3 5.2-5.1 8.101-7.3 2.399-1.8 5.1-3.601 8.1-1.8 3.1 1.8 2.6 5 2.1 8-.699 4.1-3 8.3.801 12.1 3.899 1.3 7.899 1.8 11.899 1.9 6.8-.801 10.9-9.101 18.8-6.801 1-.3 1.801-.899 2.4-1.699 2.1-3.4 1.7-7.2 1.8-10.9 0-1.5-.1-3.1-.5-4.6-7.3-6.601-11.1-16.2-19.899-21.7-4.801-3-3.7-14.5 1.3-20 5.7-6.3 8.399.7 11.899 3.3 4.5 3.3 8.801 6.7 12.9-.4.7-5.399 5.3-11.399-2.7-15.3-17.5-14.399-31.3-32.3-46-49.2-3.3-3.8-3.899-8.3-2.8-13.1 3.6-15.101 7.2-30.3 10.8-45.4-7.5-.3-15.1-1.2-22.5 1.4 2.2 20.899-2.399 39.8-15.199 56.8-6.2 8.101-8.9 17.5-6.5 27.9.199 1.8.3 3.6.5 5.399 3.8 3.8 6.5 1.5 9-1.6 2.699-3.4 5.5-6.7 8.5-9.8 3.1-3.2 6.899-5.101 10.699-2.3 7.101 5.199 14.101 11.899 12.301 21.3-3.2 16.899-6.7 34.1-20.601 46.5-4.899 4.399-9.3 9.2-10.199 16.1l.3 6c2.098 3.201-1.302 8.801 4.398 10.001zm190.8-.2c-1.5 5.3.9 7.3 6 7.2 9-.1 17.8 1.6 26.4 4.2 6.1 1.8 10.399 4.9 8.3 12.1-1.8 6.2-6.9 7.8-14.7 4.4-8.5-3.7-17-7.4-25.6-11-6.3-2.6-12.3-2.7-18.101 1.1-2.8 2.601-5.6 5.2-8.3 7.8-1.8 5.101 1.2 7.2 5.4 8.4 7.899 2.4 12 6.6 7.2 15.1-1.7 3-.2 5.9-.101 8.9l9.601 10.5c7.3.7 7.6-6.2 10.5-10.1 7.199-9.7 13.199-10.3 21.6-1.601 1.9 2 3.1 4.801 6.3 5.2 4.2-.8 8.2-2.3 12-4.1 5.7-4 9.2-9.5 11.601-16.101 2.199-6.199 4-12.6 7.399-18.3 2.3-3.8 5.9-5.3 10.2-3.7 4 1.5 5.1 4.9 4.7 8.801-.5 3.899-1.4 7.8-2.9 11.5-1.399 3.6-.7 6.199 3.101 7.699 4-.8 8-1.5 11.899-2.3 9.3-4.2 10.8-13.1 12.4-21.5 2.5-14.2 6.899-27.399 15.3-39.2 2-2.8 2.6-5.8 2.6-9.1-3.5-3.8-6.899-7.7-10.399-11.5-.3.9-.5 2-1 2.8-5.5 10.2-13 19.2-18 29.8-2.101 4.5-6.8 5-11.3 4.2-15-2.8-30.4-3-45.101-7.5-9.3-2.8-18.8-4.1-28.5-3.7a210.749 210.749 0 0 1-8.499 10.002zm37.6 98.2c12.8-.7 22.5 4.6 29.5 15 3.899 5.7 7.399 11.7 11.1 17.6 18.1-1.199 18.1-1.199 15 17.601-1 6.399 1.9 9.6 9 9.7 3.5-.7 7-1.5 10.3-2.9 7.101-1 3.601-8.3 7.101-11.9 8.3-8.5 15.8-17.699 26.3-23.8 6.8-3.899 12.1-9.399 14.5-17.2-.4-5.6-1.4-11.1-3.7-16.3-8.3 1.9-15.9.8-23.7-3.2-5.6-2.8-12.2-3.6-18.7-3-5.199.801-10.3 1.601-15.5 2.5-3.699 3.9-1.5 6.301 2 8.601 5.301 3.399 10.9 6.399 16.2 9.6 2.3 1.4 4.3 3.3 3.5 6.5-.8 2.9-3.2 4.101-5.8 4.8-3 .801-5.9.101-8.7-1.1-7.899-3.4-16.1-6.6-22.5-12.5-9.7-8.9-20.899-10.6-33.2-8.3-10.6 1.5-21.1 3-31.699 4.399 5.598 4.599 12.298 4.3 18.998 3.899zm81.298 102.058c10.601-5.801 31.502-11.758 42.901-15.157 3.801-1.101 7.301-.9 9 3.5C1903 734.5 1901.9 727 1898 719.9c-1.801 2.9-4.4 4.8-7.601 5.8-14.1 4.2-28 9.101-42.5 12.3-2.539 3.295-2.701 11.857.399 15.958zM1169.9 1064.2c2.7 3.9 5.3 7.9 8 11.8.7-1.199 1.4-2.399 2-3.699-2.5-3.401-4.9-7.201-10-8.101z"/><path id="hl1" fill="#6D544A" d="M1745.8 458.1c3.5 8.2 9.899 12.8 18.1 15.7 7.4 2.6 15.3 3.899 22.2 8.2 3.5 4.199.6 7.5-1.6 10.699-11.101 15.801-23.101 31-35.9 45.4-2.8 3.1-4.1 6.3-5.5 9.8-3.2 3-9 3.5-9 9.5-1.7 4.4-6.4 5.4-9.6 8.1-3.5 3-6.9 5.801-8 10.4-3.601 2-8.5 2.6-9 8.2-5.9 4-11.301 9.3-19.4 8-.6 0-1.3-.1-1.9-.3-1.3-.9-3-.601-4.199-1.5-7.2-1.601-14.5-1.9-21.7 0-6.601.3-5.8-3.4-3.8-7.4 3.1-6 7-11.6 9.699-17.9 3.301-2.8 7.101-5.399 7.301-10.399 9.699-8.5 12.199-22.101 21.399-31 3.601-3.101 3-8.101 5.5-11.8 3.2-2.601 4.5-6.2 6.4-9.7 8.3-15.4 17.899-30.2 28.3-44.3 2.5-3.301 5.6-4.601 9.4-2.301l.1.2c-.1 1.001.7 1.602 1.2 2.401zm.399 189.701c.601.1 1.101.3 1.7.399 3.1.7 6 .9 9.3.8 8.101-.199 16.2-1.899 24.4-.5 6.8 2.301 12-4.6 17.1-4.3 10.601.7 20.801-3 31.2-1 4.4-4.7 9.6-5.7 15.6-3.8 9.4-4.2 19.7-4.8 29.601-7 3.699-.8 4.1-3.7 4.899-6.5-4.399-11.5-5.199-23.6-6.199-35.7-3.101-3.1-7-3.6-11-3-9.7 1.4-19.601 2.2-29 5.3-4.301 1.4-8.101.9-12.101.2-3.5 2.5-6.899 5.3-11.699 3.4-2.5-.7-4.301 1.2-6.4 1.8-9.6 2.4-18.3 7.8-28.4 8.8-4.199 1.2-7 5.9-12.1 4.9-8.5 2.8-16.7 6.4-24.6 10.6-3.801 2-7.801 4.2-6.4 9.8 3.1 5.4 6.7 10.5 11.8 14.301.799.399 1.5 1 2.299 1.5zm-243.5-145.5c-5.699 11.899-1.5 21.899 4.9 31.699l.6 5.7c1.101 3.3 0 5.7-1.5 8.9-4.8 10.1 2 22 11.5 21.6l17.7-8.399c5.2-4.9 6.4-10.601 4-17.301-.2-2.399 0-4.899-1-7.199-4.5-4.7-2.1-10.801-2.8-16.101-2.601-17.899-6.301-35.7-5.5-54-.801-2.2-2.7-3.7-3.301-6.1 3.101-6.7-2.1-12.8-1.8-18.8.8-16.601-1.5-33.101-1-49.7.2-5.7-2.8-8.7-8.899-7.101-7.301 1.101-14.4-.1-21.5-1.3-.2 16.5 1.6 33 2.8 49.4 1.399 19.399 3.2 38.8 4.899 58.2.101.6.2 1.1.301 1.7 1.501 3.001 1.701 6.501.6 8.802zM1206.3 687.2c8.5 7.3 15.8 16.4 27.6 18.9 5.9 3.4 9.3 10.3 16.3 12.3.5-.2 1-.4 1.601-.6.899-.4 1.5-1.101 2.2-1.8-2.601-4-5.301-7.9-7.9-11.9.4-10.5-5.6-21-15.8-22.4-4.301-5.7-8.9-11.2-12.301-17.5-3.6-15.2-14-26.1-23.6-37.5-2.9-3.5-6.6-3.8-10.6-3.899-3.7-3.101-7.101-6.4-10-10.301-6.4-16.399-21.2-24.1-34.5-33.199-5.301-3.601-7.7.1-9 4.899-1.2 11.7-4.601 22.3-14.101 30.101-4.6 5.399-.5 8.3 3.4 11 15.7 10.899 32 21 47.2 32.699 8.399 6.4 17.1 11.601 27.399 14.101 3.301 2.7 6.7 5.3 10 8 1.402 1.999-.298 4.999 2.102 7.099zm175.5-169.1c.5 16.2 8.8 27.6 22 36 5.5 5.3 6.899 13.899 14.1 17.899 2-1.399 3.9-2.699 5.9-4.1 7.5-7-.7-9.8-3.7-13.9-1.4-4-2.8-7.899-4.2-11.899.5-9.8-1.6-19-5.7-27.9-3.399-7.5-6.3-15.3-9.3-23-2.2-5.6-5.1-10.6-11-13.1-1.399-3.3-2.8-6.5-4.2-9.8-2.3-5.2.9-10.801-1.899-16.2-7.101-13.8-13.8-27.8-20.9-41.601-2.5-4.899-5.8-6.899-11.1-4.7-8.101 5.601-16.2 11.2-25.7 14.301 2.7 5 5.2 10 8 14.899 13.4 23.601 26.8 47.2 40.2 70.9 2.499 4.001 4.999 8.101 7.499 12.201zM1286 588c1.3 2.7-1.5 5.601.8 8.5 9.1 11.7 15.1 26.101 29.1 33.5 5.101 4.601 6.601 12.301 13.4 15.301-1.2-3.101-2.5-6.2-3.7-9.301 1.8-12.6-4.9-26.699-15.4-32.3-1.399-3.2-2.8-6.3-4.3-9.5-.5-.8-1-1.5-1.6-2.3-.101-.7-.3-1.3-.4-2-2-19.4-12.6-35-21.8-51.3-2-3.5-5-3.9-8.2-4.7l-7.8-12.3c-3.9-19-17.4-31.8-29.7-45.3-3.3-3.7-7.1-6.8-12.1-2.3-4 5.899-9.4 9.8-16.3 11.8.899 4.8 4.1 8.3 7 11.899 8.3 10.4 16.8 20.5 24.899 31 11.601 14.9 24.3 28.9 34.7 44.801C1279 577.9 1282.5 583 1286 588zm311.9-50c0 1.4-.1 2.7-.1 4.101-2 3.1.5 6.899-1.8 10-7.801 5.3-3.801 10.3.3 15.399 5.899 2.801 11.8 5.601 17.6 8.4 4.601-1.1 5.3-5 7-8.7 3.7-8.1-.6-15.6-1.1-23.399.2-2 .3-4 .5-6 1.6-2.4-.3-5.601 1.6-8 8-20.301 12.2-40.801 5.5-62.4-1-3.1-1-6.6.4-9.8.1-1.2.1-2.5.2-3.7 8.6-15.5 7.3-32.7 8.5-49.4.3-3.7-1.7-6.399-4.7-8.399-3.3-.801-6.601-1.601-9.8-2.4-2.7 16.4-5.301 32.8-8.2 49.101-2.5 13.7-3.7 27.7-7.7 41.1.1 5.4-1 10.601-2.3 15.8-8.4 7.197-11 24.098-5.9 38.297zm-412 271.9c-2.3-4.2-6.399-6.8-9.7-10-2.699-10.2-7.6-14.1-18-14.1-2.8-2.4-5.6-4.9-8.399-7.3-3.9-8.801-8.2-16.9-19.8-16.301-4.2-3.1-8.5-6-12-10-4.5-10.699-14.101-16-23.2-21.8-4.5-2.899-7.601-2.399-10.5 1.8 0 10-.5 19.9-2.3 29.801-1.9 3.899-.9 7.6 2.1 10.1 9.9 8.3 19.9 16.8 34.2 15.8 3.5 1.7 6.899 3.6 9.899 6.3 7.5 13.2 19.801 18.3 34 20 4.5 1.7 8.301 5.3 13.4 5.601 2.099-4.801 6.2-7.301 10.3-9.901zm633.799-95.599c1.4 4.899 4.101 8.899 8 12 6.101 1.8 12.301 3.399 18.601 2.3 13.6-2.5 27.1-5.601 40.6-9 3.1-.8 6.8-1.101 7.2-5.5 0-.7-.101-1.3-.2-2-1.1-1.2-.7-3-1.8-4.2-.101-.6-.301-1.2-.5-1.8-.7-1.4-.5-3-1.301-4.4-.199-2.5-.3-5.1-.5-7.6-2.699-2.2-5.8-3.4-9.199-2.8-14 2.6-28.801 2.8-40.5 12.6-3.301.8-6.5 1.5-9.801 2.3-4.899.999-14.1-3.801-10.6 8.1zm46.302 68.199c.9 1.5 6.499 1.2 7.799 2 9.699 5.4 18.6 2.301 20.5-6.699-.2-1.9-.4-3.801-.7-5.7-.3-.9-.6-1.9-.9-2.8-2.1-7.5-2.8-8.2-10-6.5-6.399 1.5-21.891 3.729-28.19 5.528.898 5.099 8.191 9.971 11.491 14.171z"/><path fill="none" stroke="#000" stroke-miterlimit="10" stroke-width="6" d="M1865 782.7c-17.737-18.304-19.801-43.7-21.301-44.8S1820 732.6 1814 702.1c-23-50-38.7-48-38.7-48-3.3-1.3-25 8.3-42.5-16.7-27-43-60.3-48.4-62.3-47.7s-29.2 12.8-39 .5c-44-35.7-80.7-28.3-87.7-26.7-7.2-.8-29.5 10.7-35.2 10.801-5.7.1-35.8-6.2-57.8-9.5-22-5.5-44 16.699-44.8 24.699-5.7 22-19.7 32.5-29.4 42.301-9.7 9.8-24.6 14.8-45.3 15.8s-43.5 26.3-44.2 33.3-12.5 27.7-12.5 27.7-.5.8-27.3 12.5c-26.801 11.7-30.5 43.5-33.801 62.3-3.3 18.8-21.3 23.7-25.1 25.4-3.8 1.699-11.9 9-13.6 17.3-1.7 8.3-21.5 35.5-27.7 39.8-16.8 17.2-21.2 17.7-23.8 18-2.601.3-20.301-6.3-31.5-14.5-11.2-8.2-14.8-15.7-18.8-25.4-4-9.699-13.7-45-3-63.3 13.699-19.3 13.899-36.899 10.899-52.7-3-15.8-1.2-36.3 0-52.6s21.8-54 32.4-61.7c10.6-7.7 11.399-6.399 14.2-27.899 7.3-51.5 44-86.5 66.5-96.801 20.5-5.5 31.699-17.199 34-20.8 2.3-3.6 8-20.399 35.3-35.399 36.3-20.001 49.3-14.501 60.5-15.001s39.8-22.8 39.8-22.8c20-16.399 80.3-22.8 97.8-19.1 45.8 18.3 60.3 5.1 60.3 5.1 38.301-12.8 62.5-5.5 73.301-3 10.8 2.5 11 17.8 58.5 15.8 61.8-3.8 85.8 47.501 89.3 54.301s4.8 19.5 39.8 29.8c99.301 43.5 93.301 108.3 93.301 108.3-1.301 8 2.3 36.601 7.3 41 5 4.4 16.3 45.5 10.5 57.8-5.8 12.301 1 24.5 1.899 26.301.9 1.8 12.4 19.5 6.7 27-8.899 13.3-7.5 37-7.5 37 2.8 24.5-5.899 29.199-5.899 29.199S1872.699 811 1865 782.7zm-727 242.601s-4.101 8.1-12.301 23.699c-8.2 15.601-22 29.7-23.3 33-1.3 3.301-14.9 27.601-15 33.7 0 0-9.8 24.7-16.8 33.3-7 8.601-36.5 60-36.5 68.301 0 8.3-17.4 37-20.2 42s-.5 7.8 10.5 1.5c11-6.301 42.6-55.5 43.8-60.301 1.2-4.8 32-58.699 36-62.699s7-13.5 7-13.5 15.601-30.601 17.2-35.801c1.6-5.199 12.5-15.3 13.5-16.8s7.8-10.2 7.5-13.3 4.2-10 6.9-10.3c5.701-.6-11.799-23.2-18.299-22.799zm31.8 41.099s10.7 14.6 9.399 20.9c-1.3 6.3-4.699 22.699-9.5 31.699-4.8 9-7.899 15.9-6.5 22.301 1.4 6.399-8.5 27.3-13 32.5-4.5 5.199 3.801 7.8 14.5 3.5 10.7-4.301 16.301-9.301 18-22.5 1.7-13.2 10.5-20 8.301-38.801-2.2-18.8 5.199-18.5.399-35C1187 1069 1173.1 1063.4 1169.8 1066.4zm679.7 29.5s-3.801 15.4 0 25c3.8 9.6 6.1 12.6 7.899 16s5.101 10.1 6.101 15.8c0 0 3.3 16.2 6.6 26.601 0 0 12.4 41.899 17.8 46.399s18.101 8.301 20.601 5.101 3.8-5.9 0-12c-3.801-6.101-15.601-34.5-17.5-51.301-1.801-9-7.301-12.899-9.601-18.6-2.6-3.4-4.899-18.3-5.6-21.3s-22.2-32.5-26.3-31.7z"/></svg>