<svg xmlns="http://www.w3.org/2000/svg" id="hair" viewBox="0 0 3000 3000"><path id="cl1" fill="#3E3633" d="M1413 399s-150.7 11.3-210 59.3c0 0-35.3 31.3-56 76 0 0-64 124-82.7 192 0 0-23.3 43.3-62.7 96 0 0-16.7 28.7 4.7 34.7 0 0 37.3 8 51.3-5.3 0 0 10.7-7.9 6.7 7.7 0 0 9.3 33 32.7 41l6.7 4s1.3 11.3-4.7 30.7c0 0 5.3 13.3 26 5.3 0 0 33.3-8 39.3-39.3l3.3-26.7 5.3.7s16 16 34.7 13.3l12.7-10s4 10.7 14 16c0 0 20 6.7 48-42.7l12.7 1.3s-9.3 47.3 30 66c0 0 28 5.3 50-44.7h4s8 18.7 24.7 29.3c0 0 21.3 18 29.3-63.3 0 0-3.3-60-4-86 0 0 2-69.3 8-104.7 0 0 8.7-58.7 27.3-84.7 0 0 38-50.7 72.7-56.7 0 0 13.3-8 31.3-2.7 0 0 30 2.7 62 18.7 0 0 14.7-18 42-24 0 0 18-6 34.7 14 0 0 40 58.7 65.3 101.3 0 0 34.7 58 64 114.7 0 0 22 54.7 35.3 104.7 0 0 6.7 27.3 24 38.7l3.3 4s2.7 28.7 17.3 43.3c0 0 44.7 26.7 60-17.3 0 0 2-20.7-4-44.7l-8.7-28s-52-162.7-67.3-226c0 0-42.7-70-68-93.3l-78.7-79.3s-26.7-15.3-51.3-22l-4.7-11.3s-60-20-101.3-14c0 0-4-6-27.3-5.3 0 0-38.7-.7-83.3 4L1413 399z"/><path id="sd1" fill="#322C29" d="M1090.3 813.8c-32 62.1-86.1 42.5-86.1 42.5-20.8-3 3.8-42.5 3.8-42.5 24.9 32.8 82.3 0 82.3 0zm77.4-185.5s-62 126-69.3 175.3c0 0-6.9 21.4-33.2 51.4 0 0 9.4 32.2 34.6 43.1l16.6-23.1s-25.4 1.7-26.1-21.3l22.7-32 24-77.3c0-.1-4-13.4 30.7-116.1zm-23.1 101.6s-19 82.9 2.4 91.7c0 0 45 31 53.1-43.1L1175 795s-41.3 6.7-24-62l-6.4-3.1zm8.4 96.9s-19.7 40.8-53 74.1c0 0 8.3 8.8 3.7 21.5 0 0-5.8 21.1 12.7 20.6 0 0 30.7-7.1 44.6-31.5 0 0-16.2 7.6-29.1-2.4 0 0-9.7-11.7 0-24.2l29.1-52.5-8-5.6zm47.1-29.2s-7.4 17.2-29.1 31.7v16.3s34-23.2 42-41.3l-12.9-6.7zm-29.1 61.6l2 15.8s29.1 29.1 44.5 5.5c0 0-3-8.5-4.8-16.5 0 0 1 9.5-16.8 6.5 0 0-1 3-20.3-10.3l-4.6-1zm42-50.6l2 14c.5 1.6 8 2.4 8 2.4 11.5 2 31.3-2.4 31.3-2.4 2.1 15.5 17.3 29.7 17.3 29.7-6.8 4.8-18.8 7.8-18.8 7.8-5.3 1.8-10.5.3-10.5.3-18.8-5.8-18.8-22-18.8-22-1.8-4-9.5-.1-9.5-.1 5.3 61 27 51.6 27 51.6 27.8-14.3 42.3-44.9 42.3-44.9-18.3-11.3-18.7-47.2-18.7-47.2-10.8 15-45.3 11.7-45.3 11.7l-6.3-.9zm58.8-21.3s-1 49.8 15.8 55.8c0 0 25 10.5 45-37v-2.7s-3.8 3.5-16.8 10.8c0 0-24.8 12.3-43-26.8h-1zm103.5 5s-2.3 53.8 5 73c0 0 1.3 20.5 25.5 35.3 0 0 9.8 6.5 20.8-34.8 0 0-1.8 1.8-11.5 6.3 0 0-25.5 5.8-29.8-32.5 0 0-9.3-29.8-7.3-47.3h-2.7zm47.7-274.6s-26 13.9-46.4 60c0 0-36.3 95.3-31.6 178 0 0 2.5 14.5-.4 36.6 0 0-10.3 47.4-50.3 56.4 0 0 2.3 41.6 7.8 49.5 0 0 12.5 20.8 30.4 20.5 0 0 24.2-15.9 42.1-43.4l.8-16s-9.1-12.2-5.8-39.5l3.3-60s13.7-77.3 7.3-123.3c.1-.2-6.6-25.6 42.8-118.8zm-46.4-42.1s-56.3 11.7-84 46.9c0 0-31 33.1-51.9 81.4 0 0-29.1 71.5-34.4 123.8 0 0-2.8 37.1-6.1 55.8 0 0 9.3 23.7 24.6 23 0 0 30.8 4 42.1-16l-1.1-20.7s-45.3 40.3-42.7-17.7c0 0 22.7-154 82.7-217.3 0 0 30.4-37.3 52.2-36.7l18.6-22.5zm44.2-75.1s39 9.9 55 22.9l7.3-8.1c-.1 0-34.3-26.8-62.3-14.8zm138.9-20.9s-38 21.1-52 46.6l13 1.8s-11.8-6.9 61.5-44.2l-22.5-4.2zM1589 417c-8 12.7-18 21.3-18 21.3l13.3 7.7c37.3-54 110.8-40.3 110.8-40.3C1642.7 379.5 1589 417 1589 417zm16.7 64.3c17.3-14.3 68.7-32.3 68.7-32.3 104 22 156 134.7 156 134.7 20.7 19.3 60 116 60 116l27.2 92.6-12.5 22.1c-4 14.7-8.7 8.7-8.7 8.7-10.7-22-57.3-128-57.3-128-16.7-36.7-58.7-98.7-58.7-98.7-17.3-26-38-55.3-38-55.3-13.3-30.7-42-42.7-42-42.7-12.7-7.3-16.7-.7-16.7-.7 29.3 8 38 34 38 34 79.3 108.7 146 287.3 146 287.3l10.7 34.7 20 23.3 9.8 32.4c21.1 26.4 38.9 16.2 38.9 16.2 28.7-4 29.6-29.3 29.6-29.3-39 21.4-45-15.4-45-15.4 22-66.7 0-124.7 0-124.7-19.7-35.9-40-90.7-40-90.7-4-28.7-42-78-42-78-27.3-44-82-108-82-108-34-33.3-66-37.3-66-37.3-22-5.3-56.7 6-56.7 6-34.7 2-48.7 27.3-48.7 27.3l9.4 5.8z"/><path fill="none" stroke="#000" stroke-miterlimit="10" stroke-width="6" d="M1481.6 383.7c44.7-4.7 83.3-4 83.3-4 23.3-.7 27.3 5.3 27.3 5.3 41.3-6 101.3 14 101.3 14l4.7 11.3c24.7 6.7 51.3 22 51.3 22l78.7 79.3c25.3 23.3 68 93.3 68 93.3 15.3 63.3 67.3 226 67.3 226l8.7 28c6 24 4 44.7 4 44.7-15.3 44-60 17.3-60 17.3-14.7-14.7-17.3-43.3-17.3-43.3l-3.3-4c-17.3-11.3-24-38.7-24-38.7-13.3-50-35.3-104.7-35.3-104.7-29.3-56.7-64-114.7-64-114.7C1747 573 1707 514.3 1707 514.3c-16.7-20-34.7-14-34.7-14-27.3 6-42 24-42 24-32-16-62-18.7-62-18.7-18-5.3-31.3 2.7-31.3 2.7-34.7 6-72.7 56.7-72.7 56.7-18.7 26-27.3 84.7-27.3 84.7-6 35.3-8 104.7-8 104.7.7 26 4 86 4 86-8 81.3-29.3 63.3-29.3 63.3-16.7-10.7-24.7-29.3-24.7-29.3h-4c-22 50-50 44.7-50 44.7-39.3-18.7-30-66-30-66l-12.7-1.3c-28 49.3-48 42.7-48 42.7-10-5.3-14-16-14-16l-12.7 10C1189 891 1173 875 1173 875l-5.3-.7-3.3 26.7c-6 31.3-39.3 39.3-39.3 39.3-20.7 8-26-5.3-26-5.3 6-19.3 4.7-30.7 4.7-30.7l-6.7-4c-23.3-8-32.7-41-32.7-41 4-15.6-6.7-7.7-6.7-7.7-14 13.3-51.3 5.3-51.3 5.3-21.3-6-4.7-34.7-4.7-34.7 39.3-52.7 62.7-96 62.7-96 18.7-68 82.7-192 82.7-192 20.7-44.7 56-76 56-76 59.3-48 210-59.3 210-59.3l68.5-15.2zm-71.2 15.5s52.1 14.8 65.1 27.8l41.5-46.1m71.5 0s-56 25.1-69 49.1m178.8-19.7s-74.8-28.8-113.3 37.7c0 0-118.5-50-180.5 5 0 0-56.5 48.5-107 176.5 0 0-34 74.5-30 144 0 0-6.6 61.5 20.3 74h5.4s21.9-6.3 34.5-24.1c0 0 14.4-14.7 13.7-51 0 0-4.3-64.3 8.3-115.3 0 0 8.3-83.7 62.3-136.7 0 0 10.2-14.8 37.2-29.9 17.1-9.5 40.9-19.2 73.2-25.1 0 0 57.7 2 83.3 16 0 0 35.7-36.7 73.7-30 0 0 47-8 114.3 80 0 0 102.3 124.7 125.3 269.7 0 0 11.3 40.3-23.4 72.7m-446.4-383.3S1386 571 1384 629c0 0-2 23 0 54 0 0-2 28-9 72 0 0-9 77.6 4 119.3m41.1-432.4S1309 378.3 1226.3 521c0 0-39.3 38.7-80.7 145.3 0 0-36.7 84-47.3 130.7 0 0 6.3 18.4-34.2 53.2M1196 562.4s-61.6 168.6-59 223.3c0 0-7.3 36 22.7 41.3 0 0 26.7 10 39.3-30.7 0 0 8.3-295.4 186.5-323m-186.2 316.3s19.4 40.8 67.5 4.7m-53.8 10s-.7 54.7 7.3 74m-49.3-3.6v-47m-74 72.6c40-30.7 53.1-76.7 53.1-76.7"/></svg>