<svg xmlns="http://www.w3.org/2000/svg" id="hair" viewBox="0 0 3000 3000"><path id="cl1" fill="#2A201B" fill-rule="evenodd" d="M1214.3 425.8c2.5 7.8.9 15.9 1.5 23.8.4 4.5-.7 10.5 4.9 12 6.6 1.7 7.9-5 9.8-9.2 16.8-36.8 42.6-66.6 72.4-93.2 12.2-10.9 24.7-21.4 37.6-31.3 2.9-2.2 5.6-4.7 9.2-5.9 5.3-.9 9.3-4.6 14.3-6.1 2.6-.8 5.5-3.2 8.4-.6 2.9 2.7 1.6 5.9.5 8.8-3.6 9.5-7.7 18.9-12.7 27.8-1.7 3.1-1.7 5.6.1 8.4-.6 4-4.3 8.7.9 11.5 4.8 2.7 7.7-2.1 10.7-4.9 6-5.6 11.8-11.4 17.7-17.2 6.5-1.8 10.8-7.3 16.7-10.1.7-.5 1.3-1.1 2.1-1.5 1.2-.6 2.1-1.5 3.2-2.3l2.4-1.2c1.6-.2 2-2.2 3.6-2.3 34.9-18.4 69.2-38.2 107.4-49.5 1.4-.4 2.9-.6 4-1 3.3-1 6.4-2.2 8.3 1.2 1.6 2.9-.3 5.6-2.6 7.7-7.2 6.7-15.6 11.9-22.9 18.4-.9.2-1.4.8-2 1.4-.7.2-1.3.6-1.9 1-.3.2-.6.4-.9.5-.5.4-.9.8-1.3 1.2l-.4.4c0-.1-.4.4-.4.3l-.4.3.4-.4s.4-.4.5-.4c.3-.4.7-.7 1-1.1.4-.4.9-.8 1.4-1 .6-.4 1.1-.7 1.7-1 .5-1.2 2.3-.7 2.7-2 14.8-12.4 31.1-22.6 48.4-31.2 3-1.5 6.9-5.8 9.6.7-8.2 15.9-16.5 31.8-24.7 47.7-6.1 11.8-12.3 23.5-18.4 35.3-.8 1.5-1.5 3-1.9 4.6-1 4.7 1.7 7.8 6.5 7.5 4.1-.2 7.5-2.5 11-4.4 17.7-9.8 34.8-20.8 53.4-28.8 9.2-1.8 16.8-7.5 25.5-10.4 10.2-4.9 20.8-8.9 31-14 2.8-1.4 6.4-3.3 9.4.3-9 27.4-19.8 54.2-30.3 81.1-1.2 3.1-2.5 6.2-3 9.5-.7 5 2.9 7.4 7.6 5.2 2.6-1.3 4.9-3.3 7.4-5.1 13.8-9.8 26.4-21.1 40.6-30.4 7.5-2.7 12.8-9 19.7-12.6.6-.5 1.2-1 1.9-1.5.7-.4 1.4-.8 2-1.3.6-.6 1.2-1.1 1.8-1.7.6-.6 1.2-1.2 2-1.6.8-.5 1.5-1 2.3-1.4.8-1.4 3-1.1 3.6-2.6 6.9-3.3 8 1.2 9.2 6.3 4.2 17.7 7.4 35.6 10.6 53.4.4 2.2-.1 5.1 2.7 6.4 2.7 9.6 2.5 19.6 3.6 29.4.7 5.6 1.3 11.1 2.3 16.7.7 3.6 1.7 7.4 6.1 8 4.2.6 5.2-3.4 7.2-5.8 7.5-15.3 11.2-32.3 20.4-46.9 4.2-6.6 5.9-14.4 9.9-21.1 5 18 8.9 36.2 12.3 54.5 2.4 12.8 4.4 25.6 8 38.1 1 3.5 2.1 7.1 4 10.2 4 6.5 10.5 6.1 13.8-.8 2.2-4.6 2.8-9.6 3.4-14.5.4-4 .7-8 2.4-11.7 6.8-9.9 8.6-22.2 15-32.4 2.2-3.5 2.2-8.8 7.6-9.7 4.8 25.9 7.6 52 9.7 78.3 1.8 22.3 2 44.6 1.9 66.9 0 5.8.1 11.5 5.9 15 5.6 3.5 2.1 8.2 1.5 12.5-.6 3.9-2.1 7.6-3.8 11.6 20.9-19.1 35.9-43 55-63.3 4.5-1.8 5.7-7.7 10.9-8.6-3.3 56-23.5 106.2-52.5 153.4-8.4 13.7-9.4 13.6-19.1 1.3-8.7-11-18.3-21.1-29.5-29.6-39-29.7-82.2-36-128.7-22.7-29.1 8.3-55.6 22.1-79.9 40.3-10 7.5-10.1 7.3-19.8.3-22.9-16.5-48.2-28.2-75.2-36.4-51.9-15.9-105.2-23.5-159.2-26.8-10.6-.7-21.2-1.8-31.9-1.9-7.4-.1-13.7 2-19.2 6.9-15.2 13.4-25.3 29.9-30.5 49.4-1.3 4.9-1.9 9.8-1.6 14.8 3.6 45.8 4.5 91.8 7.1 137.7.6 11 .4 22 .6 33 .1 5.4-1.5 9.7-6.9 12.1-12.3 5.5-22.6 14.1-33 22.3-5.5 3.5-10.6 3.5-16.2-.3-16.9-11.4-32.5-24-42.5-42.3-5-9.1-7.4-18.7-5.8-29.1 9.7-3 13.5-10.6 16.8-19.5 2.5-6.7 9.1-7.2 15-3.1 1.9 1.3 3.4 3.1 5.2 4.7 7.2 6.3 8.6 5.9 10.6-3.1 1.7-8 3.3-15.7 13.8-16.8 4.7-.5 6.4-10 13.4-5.2.6.5 1.3 1 1.8 1.7.4.7.8 1.3 1.3 2 .4.6.9 1.2 1.3 1.7s.8 1 1.3 1.5l.6.7c.3.4.6.9.8 1.3l.4.6.4.5.4.4.4.4s-.4-.4-.5-.4c0 0-.4-.5-.5-.5-.3-.4-.5-.9-.8-1.3-.3-.6-.6-1-1-1.5-.5-.5-.9-1-1.4-1.6-.5-.6-.9-1.2-1.4-1.9-.8-1-1.1-2.4-2.4-2.9-5.1-6.8-8.5-14.4-9.6-22.9.4 4.5 3.1 9.7-2.6 12.4-6.2 3-8.8-2.2-11.6-6.3-2.3-3.3-3.3-7.3-4.9-10.2 3.4 5.3 2.7 11.9 2.3 18.3-.2 3-1.5 5.8-4.6 6.7-3 .9-5.9-.1-8.1-2.4-3.3-3.7-5.9-7.9-6.9-12.8 1.2 2.9 1.8 5.9 1.7 9.1-.2 4.8-2.2 8.4-6.7 10-4.7 1.7-8.5-.1-11.4-3.9-4.7-6-7.5-13.2-12-19.4 2.5-12.2-6.3-16.8-14.1-23.2-22.3-18.3-38.2-41.6-49.2-68.1-3.4-8.2-8.1-16.2-7.5-25.5.3-4.6-5.5-4.6-5.8-8.5 0-2.7 2.5-3.5 3.8-5.2 6.2-.6 8.1-4.3 7.5-10.1-.5-4.8-.8-9.6-1.2-14.4 1.2-4 2-8.1 1.8-12.3.2-1 .3-1.9.6-2.8 1.4-2.4 1.6-5.1 1.5-7.8 8.2-34.7 21.4-67.5 35.7-100 8.9-20.3 19.4-39.6 29.9-59 3.5-6.4 5.6-7 11.8-3.3 1.9 1.2 3.3 1.6 5 1.6z" clip-rule="evenodd"/><path id="sd1" fill="#221A16" fill-rule="evenodd" d="M1124 638c3.9 10.6 7.9 21.1 11.8 31.7 8.8 23.9 23.7 43.7 41 62 5.8 6.1 13.3 10 20 14.9 9.6 7 9.9 8.7 1.3 17.4-.6 8.3 5.7 14.7 5.2 23.4-.9 15.8-5.7 20.2-21.3 16.9-1.6-.3-2.9-1.6-4.7-1-3.7 13-10.6 15.1-24.1 7.3 2.5 11.7-.6 14.2-16.5 11.8 5 12.5 7.4 25 9.4 35.7-3-5.3-1.9-12.7-.7-20.2.5-2.7 1.6-5.2 4.6-5.8 2.9-.6 4.9 1.1 6.5 3.4 3.6 5.2 7.3 10.2 10.4 16.9 0-7 .2-12.9 2.7-18.5 2.1-4.7 4.2-9.4 10.6-8 3.4.8 4.3-2.5 6.6-3.5 3.9-1.7 7.2-.3 10.1 2 2.8 2.2.8 4-1 5.7 2.2 18.3 11.3 33.2 24.1 45.8 7.8 7.7 16.4 14.5 26 20 3.8 2.2 7.7 3.9 12.1 4.3-32.9 34.9-51.5 77.8-67.8 122.6-4.8-2.7-4.2-6.7-4.8-10-4.5-24.9-9-49.8-15.9-74.1-2.9-10.2-6.1-20.4-8.8-30.7-1.9-6.9-5.9-11.6-12.3-14.8-16.2-8.3-32.9-14.6-51.5-13.3-5.7.4-10.3-1.2-13.4-6.6-7.2-12.4-16.2-23.5-24.3-35.3-21.9-31.8-40.9-65.4-62.3-97.6-1.3-1.9-2.1-4.2-3.1-6.2 3.3-4.2 5.9-.4 8.7.8 23.1 9.6 43.4 24.4 65.4 35.7-6.7-9.2-6.7-9.2-3.9-14.6 4.3-3.9 2.7-8.5 1.2-12.9-5.9-16.9-11.9-33.8-17.9-50.7-1-2.8-2.2-5.6-3-8.4-.7-2.7-3.4-6-.5-8.2 2.7-2 5.5.8 8 2.3 1.3 5.5 6.6 7.1 10.4 9.4 7.4 4.4 13.8 9.9 19.8 14.5.3-3.8-10.4-5-4.1-12 7.6-3.7 8.4-4.8 7.4-13.9-1.9-17.8-4.3-35.5-6.2-53.3-1.4-13.2-2.6-26.4-3.7-39.6-.2-1.9-1-4 1.4-5.8 3.8 1.6 5.4 5.2 7.2 8.6 4 11.6 12.5 20.4 18.8 30.7 2.6 4.2 6 7.9 8.1 12.3 2.6 5.6 6.8 8.6 13 8.9z" clip-rule="evenodd"/><path id="hl2" fill="#4C3A31" fill-rule="evenodd" d="M1064.1 755.9c9.1 13.2 9.5 14.1 10.7 21.8-2.9 1.7-5.1-.3-7.3-1.5-15.9-8.3-31.3-17.7-46.6-27-8.8-5.4-17.3-11.2-26.9-15.2l.1-.1c-.7-.7-1.4-1.3-2-2-.7-.6-1.3-1.3-1.8-2.1h.1c-.3-3.6 1.4-3.4 3.7-1.8 1.2 1.2 3 .8 4.2 1.8 20.6 8.1 41.1 16.2 61.7 24.3 1.1 1.1 2.9.7 4.1 1.8zm57.8-121.7c-2.4-2.7-5-5.2-7.2-8.1-10.3-13.3-20.5-26.8-30.7-40.1-1.3 4.4 1.3 7.7 3.2 11.1 7.7 13.6 15.3 27.3 23.1 40.8 1.9 3.3 2.8 8.6 7.4 8.4 3.9-.2 4-5.6 6.3-8.4-.7-1.2-1.4-2.4-2.1-3.7zm-70 43.9c-1.9 1.9-1 3.7.5 5.1 10.9 9.6 21.5 19.6 33.3 28.1.3.2 1.2-.2 1.8-.3.3-10.5-1.7-15-9.5-21-8.7-4-17.4-8-26.1-11.9zm150.2 155.3c5.7 2.8 6.8 2.3 8.1-3.8.9-4.2 1.3-8.6 2.5-12.7 2.6-8.7 6.8-9.7 13.6-3.6 3 2.7 5.6 5.7 8.6 8.4 2.4 2.2 4.2 6.3 7.9 5.1 3.9-1.2 2.6-5.6 3-8.8.4-3 .4-6 .8-9 1.7-11.4 3.6-12.4 13.7-7.1 1.9-2.2 1.3-5 2-7.5.7-3 2.5-4.6 5.7-4.5.6.7 1.3 1.3 2 1.9l.1.1c.6.7 1.2 1.3 1.9 1.9l.1.1c.6.7 1.2 1.3 1.9 1.9l.1.1c.6.7 1.2 1.3 1.9 1.9l.1.1c.6.7 1.2 1.3 1.9 1.9l.1-.1c2.2 1.1 2.6.2 2.1-1.9-.1-.7-.2-1.3-.3-1.9-.6-.7-1.2-1.3-1.9-2-1.3-1-.9-2.9-2-4-1.3-1-.8-3-2-4-2.8-6-5.5-12.1-8.5-18-3.1-6-4.1-13-9.3-18.4-2.5 3.6-.8 6.5-.9 9.4 0 3.2 1.8 7.7-1.7 9.1-3.9 1.6-5-3.4-6.8-5.8-3.8-5.1-7-10.7-12.5-15.7-.9 5.3 1.2 8.5 2 12 1.1 4.6 2 9.1 1.6 13.8-.1 1.7-.4 3.5-2.1 4.2-2.4 1-3.7-.7-4.9-2.3-2-2.7-3.7-5.5-5.7-8.2-1.9-2.5-3.1-5.9-7-6.7-1.2 1.6-.6 3.2-.4 4.8.6 3.3 1.3 6.5 1.6 9.8.2 3 .1 6.4-3.1 7.8-3.5 1.6-5.6-1.2-7.4-3.5-3.7-4.7-7.2-9.5-10.8-14.3-3.3 3.1-1.8 6.8-1.3 10.3.8 4.9 1.5 9.9 1.1 14.9-.7 9.4-6.3 12.9-15.1 9.3-2.7-1.1-5.2-3-7.8-4.4-1.9-1-3.7-3.1-6.3-1.5-1.4 2.4.1 4.5.7 6.7.8 2.9 2.1 5.9-.5 8.5-2.9 2.9-6.3 1.8-9.3.4-3-1.4-5.7-3.4-8.6-5-1.9-1-3.2-3.6-6.5-2.1 1.3 4 2.8 8 3.7 12.1.7 3.5-1.3 5.2-4.6 3.9-3.7-1.5-7.1-3.7-10.7-5.4-1.8-.9-3.9-1.6-5.6 0-1.8 1.7-.7 3.8.2 5.5 8.3 15 11.7 31.8 17.3 47.8.8 2.3.9 5.2 4.5 6.8 1.3-10.9-2.7-21.6 1.9-32.3 8.9 6.8 10.4 17.6 17.6 25.3 3.2-4.4 2.8-8.8 3.1-12.9.3-5.3.5-10.7 2.6-15.7 1.6-3.9 4.1-4.9 7.9-2.5 2.3 1.5 3.8 4.9 7.5 3.4 0-9.7 0-9.7 6.2-7 1.9 1.2 3.9 2.4 6 3.4zm722.2-279.2l-.2.1c-.8.4-1.4.9-1.8 1.7-14.4 12.4-28.5 25.2-44.2 35.9-1.1 1.3-2.9.9-4.1 1.9l-9.9 33c.6.4 1.2.8 1.9 1.2 5.6-3.7 11.1-7.8 15.9-12.7 17.7-18 33-38 46.7-59.2-.1-3.8-1.8-3.8-4.3-1.9zm-239.9-177.9c8.8-1.2 15-7.1 21.7-12.1-.8-.8-1.7-1.6-2.5-2.5-7.1 4-13 9.5-19.2 14.6zm-294.9-26.5c8.1.6 12.8-5.5 18.6-9.4-.9-.9-1.8-1.8-2.7-2.6-6.1 2.8-11.2 7.2-15.9 12zm206.7-9.6c9 .3 16.1-4.6 23.8-8-1.2-.6-2.5-1.3-3.7-1.9-7.1 2.5-13.6 6.1-20.1 9.9zm-468 269.5c2.2-3.7 3.4-7.7 3.7-11.9-.7-2.1-1.5-4.2-2.2-6.3-2.3 6-2 12.1-1.5 18.2zM1498 320c2.9-.8 5.6-2.1 8-4.1-1.3-.6-2.5-1.3-3.7-1.9-1.5 2-2.9 4-4.3 6z" clip-rule="evenodd"/><path id="hl1" fill="#4C3A31" fill-rule="evenodd" d="M1414.1 337.8c-.7.1-1.3.1-2 .2-.7.6-1.4 1.2-2.1 1.9-.6.2-1.2.3-1.9.4-2.3.6-3.3-.3-2.7-2.6l.4.3c.9-.5 1.5-1.3 2.1-2.1l-.1.1c.7-.6 1.4-1.2 2.2-1.7l.2-.1c.8-1.4 2.8-.9 3.7-2.3 28.9-18.4 59.5-33.6 91.3-46.3 19.1-7.6 38.7-13.9 58.4-19.9 1.9-.6 3.8-1.2 5.7-1.6 1.9-.4 4.1-1.6 5.7-.1 2.3 2.1.2 4.3-.7 6.3-1.2 2.7-2.8 5.3-4.2 7.9-20.1 10-38.8 22.6-58.2 33.8-.7.6-1.3 1.3-2 1.9-.6.1-1.3.1-1.9.2-.7.6-1.5 1.2-2.1 1.9-2.3 1.5-4.1 1.8-3.7-1.9l-.1-.1c.6-.7 1.2-1.3 1.9-1.9l.1-.1c.6-.7 1.3-1.3 1.9-1.9l.1-.1c.6-.7 1.2-1.3 1.9-1.9 7.5-7 15-14 22.9-21.5-3.2-2.1-5.7-.6-8 .1-16.4 4.8-31.8 12-47 19.4-20 9.8-39.9 19.9-59.8 29.9-.7.6-1.4 1.2-2 1.8zM1133.9 590c8.5-32.3 20.7-63.2 34.1-93.6 9.4-21.3 19.6-42.2 31.1-62.5 3.8-6.7 4.9-6.6 9.2-.4.9 1.3 1.5 3 3.8 2.5 2.8-2.9 1.3-6.9 2.3-10.3-1-7.7.5-15.8-2.7-23.2-1.2.3-2.1.2-2.4.6-1.8 2.4-3.6 4.8-5.2 7.3-27.6 43.6-48.6 90.3-64.6 139.3-3.2 9.8-6.3 19.7-7.6 30-1.8 2.5.2 5.8-1.7 8.3-.1 1.2-.3 2.4-.4 3.7-.1 2.4-3.2 5.8 2.2 6.3 0-.6.1-1.2.1-1.8 1.8-1.8.1-4.5 1.8-6.2zm261.2-297.1c-12.6 6.5-23.4 14.6-34.9 21.6-.9.3-1.6.8-2.1 1.6h-.1c-.8.5-1.4 1.3-2.2 1.7-.8 1.4-2.9.9-3.7 2.4h-.1c-.9.4-1.3 1.3-2.2 1.7h-.1c3.8 1.1 7.2-.4 10.7-1.3 2.2-.6 4.7-2 6.5.3 1.6 2.1.1 4.5-.8 6.5-4.3 10-8.8 20-13 30.1-.9 2.2-2.9 4.6-.6 7.1 3.4-.4 5.1-3.2 7.9-4.4 13.8-19.6 33.6-57.3 34.7-67.3zm335.5 57.6c-.3-1.6-.6-3.3-1.1-4.9-1-3.4-3-4.4-5.9-1.9-4 3.5-7.9 7.1-11.9 10.7-.6.4-1.2.9-1.6 1.5l-.2.1c-.7.6-1.4 1.2-2.1 1.9-.7.7-1.3 1.4-2.1 2l.1-.1c-.6.8-1.3 1.5-2.1 2.1l-.2-.2c-.6 2.3.2 3.2 2.5 2.5.6-.1 1.3-.2 1.9-.4.7-.6 1.4-1.2 2-1.9.6-.7 1.4-1.3 2.1-1.9.6 0 1.2-.1 1.9-.2.6-.7 1.4-1.2 2.1-1.9 6.3-.6 6.5 4.5 7.5 8.5 4.1 16 8 32 12 48 .6 2.6 1.3 5.1 2.3 7.5.6 1.3 1.5.7 1.9-.4.2-.6.4-1.3.5-1.9-1.6-23.2-5.1-46.2-9.6-69.1zM1790 400c-.7-.7-1.3-.7-1.9.1-13.9 20.8-23.3 43.5-28.4 68 2.5-2.3 4.3-5 5.5-8.1 6.5-15.9 14.5-31.1 22-46.5 2-4.3 2.8-8.8 2.8-13.5zm-126.7-95.4c-16 8.7-31.5 17.2-47 25.7-.2 3.6 1.7 2.9 3.7 1.9 14.2-4.9 28.7-9.1 42.1-16.1 1-3.4 3.2-6.6 1.2-11.5zm190.4 124.3c-1.9-.3-2.7 1.6-3.4 3-5.8 11.5-11.2 23.3-14.4 35.9-.9 1.3-.6 2.9-1.5 4.2-.2 1.2-.4 2.5-.6 3.7 1 2.3 2.4 2.4 3.3.2 5.7-14.4 14.1-27.7 19.3-42.3-.5-1.8-.3-4.2-2.7-4.7zm-617.9 183.8c.1 1.9-.2 4.4 2 5.3 2.3 1 3.5-1.2 4.8-2.7 6.9-8.2 13.1-16.8 19.1-25.6 3.7-5.4 7.6-10.7 13.3-16.4.8 5.4-1.4 8.6-2.3 11.9-1.6 5.8-3.7 11.4-3.9 17.5-.1 1.7.2 3.4 1.9 4.3 1.8.9 3.2-.1 4.5-1.3 4.3-3.8 7.8-8.2 11-12.9 7.3-10.4 13-21.7 19.6-32.6 1.6-2.6 2.5-6.3 6.5-6.6 2.4 3.5 1.4 6.8 1.1 10.1-.4 6-1.2 11.9-1.5 17.9-.1 3.1-2.3 7.5 1.6 9 3.5 1.3 5.5-3 7.5-5.4 10.2-12.3 19.8-25.1 28.7-38.4 1.7-2.6 2.9-5.9 7.7-7.4-1.1 12.6-2.1 24.3.3 36.3 6.5-10.3 13-20.4 18.3-30.9 13.1-25.9 28.7-50.3 43.6-75.2 8-13.4 16.1-26.9 23.8-40.5 1.8-3.2 5.6-7.4 1.5-10.6-3.3-2.6-6.8 1.1-9.8 3.1-16.8 11-31.1 25-44.6 39.9-17.4 19.3-33.8 39.5-52.5 57.6-2.5 2.5-4.6 5.7-8.6 6.6-1.3-3.5 1-5.9 2.2-8.5 9.3-19.6 17.6-39.6 25.8-59.6 1.9-4.6 3.3-9.4 4.7-14.2.6-2.1 1.5-4.9-1.4-6.1-2.1-.9-3.7.9-5.1 2.3-8.2 7.8-16.2 15.8-23.5 24.5-16.9 20-29.5 42.7-43.4 64.7-2.2 3.5-3.9 7.6-9.9 11.5 7.2-27.6 14.2-53 20.7-78.7-16.3 20.8-30.3 42.9-45.3 64.3-15.1 21.6-25.5 46.2-40.4 69.9-2.3-6-1.2-9.9-.7-13.8 2.8-19.9 8.3-39.1 13-58.5.8-3.3 3.5-8-.6-9.9-4.2-2-6 3.1-8.1 5.8-11.1 14.4-18.3 30.9-25.2 47.5-12.9 31.3-19.3 64.4-28 96.9-.4 1.5-1.1 3.2.8 5.2 7.5-7 10.6-16.5 14.8-25.4 4.2-8.9 6.1-18.9 11.9-27.9 2.8 3.2 2.2 6.2 2.3 9.1.1 8.3 0 16.7.1 25 .1 3.2-1.2 7.7 2.6 8.9 3.8 1.2 5.3-3.3 7.2-5.7 9.2-11.6 15.4-24.9 21.9-38 2.2-4.4 3.8-9.2 9.4-14 .3 5.1.4 8.4.6 11.7zm410.1-88.7c0 12.3-.1 24.6.3 37 .3 8 1.3 15.9 2.1 23.9.2 1.6.6 3.5 2.7 3.5 1.5 0 2.3-1.3 2.8-2.5 1.4-3 2.7-6.1 3.9-9.2 2.7-6.8 5.3-13.7 8.1-20.4 1.4-3.4 3.8-3.8 5.8-.5 1.9 3.1 3.4 6.5 5 9.8 3.4 6.8 6.6 13.8 11.2 20.1 1.3 1.8 2.6 4.4 5.4 3.3 2.7-1.1 1.8-4 1.7-6.2-.2-5.3-.7-10.6-.8-15.9 0-2.9-.6-6.6 2.7-8 4.2-1.7 5.7 2.4 7.6 4.9 3.3 4.6 6.2 9.5 9.5 14.1 3.9 5.4 7.9 10.7 12 16 1.4 1.7 2.6 4 6.1 3.2 1.4-3.8-1.2-6.8-2.6-10-2.7-6.2-5.1-12.4-5-19.2 0-5.6 3.2-7.1 7.8-4.1 1.4.9 2.6 2.1 3.8 3.3 9.4 9.5 19 18.6 27.6 28.8 5.2 6.2 10.9 12.1 17.7 16.9-1.3-10.1-7.9-18.7-6.8-30.8 11.9 12.9 19.7 27.2 32.5 38.7.4-5.4-1.8-8.1-3.5-10.8-10.5-17.5-18.9-35.9-25.7-55.1-1.3-3.8-2.6-7.6-4.4-11.1-1.5-3-1.9-8.4-6.5-7.4-3.6.8-2.3 5.7-2.8 8.9-.3 1.9 0 4.3-2 5.3-2.7 1.2-4.2-1.2-5.9-2.7-6.9-6.3-13.7-12.7-20.6-18.9-1.6-1.4-2.8-4-6.3-2.4.5 9.5 6.3 18.6 4.2 29.3-4.6-2.3-6.5-5.9-8.7-9.1-6.4-9.3-12.6-18.8-19-28.2-2.2-3.3-4.6-6.6-8-8.8-2.5-1.6-4.4-.9-5.5 1.9-1.2 3 .4 6.8-3.2 9.6-7.3-3.4-7.9-13.4-15.8-17.5-2.6 8.3.3 16.5-2.8 25.1-7.8-10.5-8.4-23.5-17.8-34.4 1.2 13.5 5.7 24 6.3 36.7-6-4.6-6.3-11.1-11.3-15.5-2 3.1-1.8 5.8-1.8 8.4zm-128.5 39.6c1.7-1.6 3.3-3.3 5-4.9 3.1-2.8 4.6-7.3 9.9-9.7 3 13.3 2.2 26.8 7.4 39 3.5-1 3.5-3.7 4.1-5.8 1.8-7.1 3.9-14.2 5.1-21.4 2.3-13.3 1.9-26.6-.8-39.8-1.7-8.5-5.5-9.9-12.6-4.9s-13.8 10.5-19.8 16.8c-2.1 2.2-4.3 4.3-6.7 5.9-2.8 1.9-5.4.9-5.9-2.5-.5-3.2-.1-6.6-.1-9.9-.1-3 .3-6.3-3-7.8-2.8-1.3-5.1.9-7.2 2.4-5 3.3-9.7 7.1-14.9 10.1-4 2.3-6.4.6-6.2-4.1.2-4 1-7.9 1.7-11.9.5-3.3 1.2-6.6 1.7-9.8.2-1.3.2-2.8-.9-3.7-1.6-1.3-3.2-.4-4.5.6-1.4 1-2.7 2-3.9 3.2-9 8.9-18.1 17.7-26.8 26.9-5.7 6-10.5 12.9-14.9 20-1.7 2.7-4.7 5.8-1.4 8.9 2.8 2.6 5.6-.2 8.1-1.7 5.9-3.8 11.6-7.8 17.5-11.6 1.8-1.1 3.4-3.5 6.5-1.7.5 4.9-1.9 9.6-2.1 14.5-.1 2.3-.6 4.9 2.1 6.1 2.1 1 3.9-.3 5.5-1.5 4.6-3.4 9-6.9 13.6-10.2 1.7-1.2 3.2-3.7 6-1.8 1 3.5-1 6.5-1.6 9.7-.4 2.3-1.2 4.6-1.2 6.9-.1 5 2.6 6.8 7 4.5 3.8-2 7.1-4.9 10.7-7.3 3-2 5.1-5.4 9-5.8 4.8 9.2 5.7 9.3 13.6 2.3z" clip-rule="evenodd"/><path fill="none" fill-rule="evenodd" stroke="#000" stroke-miterlimit="10" stroke-width="6" d="M1878 714s58.5-74 59.5-171c0 0-56.8 48.5-65.2 49.8s4.6-70.1-17.7-166.1c-5.3-8.7-21.9 49.2-22.9 57.5-1.8 12.1-16.8 46.8-25.8-9.3s-14-77.5-15.7-79.8-27.7 41-32.7 71c-9.3 20-12.7-13.3-12.7-24s-13.3-100-16.3-104.3c-25.1 24.1-79.3 64-91.7 71s-11-9.7 2.7-31.5 27.3-71.1 26.3-74.8-118.9 64.2-120.3 65-34.4 18.8-12.7-17.4 45-86.1 45-86.7-130.3 23.8-203.4 101.1c-24.6 25.7-11.3-14.1-2.8-22 13.2-15 24.9-52.6 24.9-52.6s-104.7 55.7-156.3 139.7c-11.5 27-24 53-22.3 2-4.3-39-4.7-35.3-4.7-35.3s-66.7 75-87.3 213c5.6 43.7-13.7 12.3-21.4.7s-28.3-36-28.3-36-4.7 30.3 6.7 103.7c1.6 8.2-2.7 18.3-27 0-18-10.7-17.9 1.6-12.7 10s21 61.3 20.7 62.3 3.9 11.9-23.7-4.7c-19.6-6.3-44.6-19.7-50.1-19.3-3.6 5 70.9 121.7 92.1 149.7.3 2.3 10.8 10.2 23.1 4.4 19.3-6.1 51.6 18.2 53.3 27.2 6.2 15.2 28 107.2 26 115.7 2.3 7.6 12.2-7 12.7-13.1 0 0 25.7-102.2 101.3-135 3.8-51.7-12.3-173.3-7.8-189 0 0 19-63.6 50.9-61.7s205.2 17.1 268 66.3c11.8 16.2 28.1-8.7 31.6-11s136.4-85.2 215 14.8C1873.8 716 1878 714 1878 714z" clip-rule="evenodd"/></svg>