<svg xmlns="http://www.w3.org/2000/svg" id="hair" viewBox="0 0 3000 3000"><path id="cl1" fill="#352E2B" d="M1759.978 476.302c9.354 6.198 17.928 13.398 26.015 21.198 0 2.2-1.07 4.602.392 6.5 6.819 8.7 12.471 18.7 20.85 25.7 6.724 5.7 12.861 11.102 17.345 19 2.045 3.7 4.87 8.4 10.326 8.8 3.994 5 6.723 10.602 9.062 16.5-.487 4.5 1.071 8.5 2.923 12.5 3.118 6.9 5.846 13.9 3.896 21.9-1.267 5.4-.584 10.8 3.021 15.1 9.158 10.802 9.743 24.5 12.18 37.602 1.754 9.5 2.338 19.3 5.65 28.398a510.95 510.95 0 0 1 .877 51.802c-.585 21-3.87 40.366-6.598 41.866-4.756-2.258-11.893-12.687-11.893-16.086-5.354-11.986-6.716-16.237-11.977-39.139-10.328-44.8-23.855-46.52-55.469-77.943-18.707-13.398-39.654-22.698-60.992-30.8-45.695-17.3-93.047-26.3-141.666-29.7-57.483-4-113.994 4-170.504 13.302-24.358 4-48.424 9.8-72.101 16.8-26.209 7.8-42.375 23.158-63.323 41.358-16.824 26.842-25.793 51.067-11.86 94.868 4.286 13.399 29.59 40.416 36.604 52.314-1.949 5.602-6.234 4.5-10.035 3.4-16.467-4.9-78.535-4.441-95.194-6.342-10.427-1.2-20.851-.101-30.788 3.5-4.288 1.601-7.794.899-11.596-.5-6.916-8.801-4.773-19.399-2.728-28.399 3.117-13.5.681-24.5-4.58-37.2-17.538-42.2-26.11-86.4-21.532-132.601 1.56-16.101 8.185-30.601 16.174-44.399 5.554-10.3 13.444-18.8 20.947-27.5 33.614-38.601 73.073-69.7 117.113-94.9 2.533-1.5 5.262-2.5 7.988-3.699 10.133 3.699 15.492-4 21.63-9.699 4.969-2.7 10.133-4.7 15.687-5.9 9.549 3.601 17.636-2.3 25.722-5.2 8.185-3 15.687-4.899 24.358-3.5 4.773.801 9.938.801 14.614-1 6.528-2.6 13.056-1.5 19.778-1.5 13.543-.1 26.892-5.6 40.727-1.399 2.241.7 4.773-1.899 7.014-3.199 5.166-3 10.427-4.5 16.662-3.801 7.99.801 16.369 1.899 24.066-2.101 1.363-.699 3.313-.8 4.48-.1 11.011 6.6 24.065 3 35.466 7.3 5.065 1.899 10.036 2.3 15.198.5 7.795-2.8 15.492-2.899 23.188.5 2.339 1 4.872 2 7.405 2.101 16.466.699 30.009 8.899 43.357 17.7 4.09 2.699 8.086 2 11.982-.101 7.6-4.3 15.004-3.601 22.215.8 7.893 4.7 16.466 7.101 25.137 9.5 10.135 2.801 19.584 7.801 28.45 13.301 9.548 5.899 19.778 10.8 28.84 17.601 4.39 3.295 9.944 4.497 15.497 4.997z"/><path id="sd1" fill="#3D3633" d="M1156.098 808c.098-.6.098-1.3.195-1.898 18.707-6.9 37.9-6.3 57.483-4.8 14.907 1.198 74.441 4.141 89.056 7.141 1.852 2.7.779 5.101-.779 7.4-13.348 20.1-33.096 46.827-36.7 70.127-4.676 30.899-23.521 62.865-33.474 89.332-.099 4.3-3.293 8.6-3.391 12.898-3.313 2.8-5.749.3-7.21-2-23.286-35-48.034-69.1-59.043-110.898-3.995-15.102-7.989-30.2-10.133-45.802-1.168-7.8-.779-15.1 3.996-21.5zm-13.641-242.198c-2.728 10.6-6.625 20.8-8.477 31.8-5.846 35.1-5.064 69.6 5.749 103.7 3.507 11.1 7.015 22.198 10.229 33.398 1.754 5.9 4.58 11 7.989 15.9 3.702 5.2 4.872 11.1 2.729 17-4.58 12.5-4.774 25.399-4.384 38.5.682.7 1.266 1.5 1.655 2.5-2.144 4.5-6.138 7.2-10.133 9.6-14.322 8.5-27.865 18.2-40.823 28.9-2.826 2.3-5.554 4.7-9.549 3.399-2.824-12-3.507-24.301-4.579-36.601-4.092-46.1-6.139-92.3 1.168-138.3 6.434-41.098 23.68-77.198 48.426-109.796zM1156.098 808c1.461 39.9 12.277 77.102 30.009 112.5 9.841 19.5 21.144 38.102 32.933 56.302 2.729 4.198 5.359 8.3 9.354 11.3.487 4.1 2.046 8.3-.292 13-3.897-2-5.067-5.7-6.819-8.602-14.908-23.898-30.789-47-49.789-67.698-18.22-19.802-38.096-37.302-64.402-45.102-4.189-1.3-6.528-4.1-7.21-8.5-1.071-6.898-2.337-13.8-2.533-20.8 9.743-12.2 22.506-20.5 35.172-28.9 7.501-5.1 15.685-9.1 23.577-13.5z"/><path id="hl1" fill="#4A423D" d="M1759.978 476.302c-9.256 2.898-17.927 2.5-25.233-5.102-2.339-2.398-5.847-3.1-8.281-5-10.62-8.1-23.773-11.1-34.395-19.1-2.729-2.101-5.748-3-9.063-3.101-6.723-.101-12.666-2.101-18.219-5.899-9.646-6.601-18.901-7.2-28.646.7-7.21 5.8-8.478 5.199-13.056-3.4-2.438-4.6-5.75-6.9-10.719-7.2-2.923-.2-6.236-.2-8.185-2.6-4.386-5.5-9.743-7-16.368-6.5-3.896.3-7.6-1.5-11.01-3.5-7.112-4.2-14.42-4.302-21.24-.102-6.625 4.102-12.374 4.5-18.805-.5-4.385-3.398-9.84-3.1-15.004-1.398-5.75 1.898-10.719 1.8-14.42-4.2-2.826-4.602-6.724-4.5-11.011-2.102-6.526 3.7-13.25 4.802-20.558 2.2-6.139-2.1-11.692-.1-16.174 4.3-6.235 6.102-12.568 7.502-20.168 2.5-4.48-2.898-9.45-2.398-13.834.302-6.625 4-13.349 4.7-20.461 1.6-3.506-1.5-7.015-1.2-10.327.6-6.528 3.602-13.153 3.602-19.681.602-8.087-3.8-15.59-2.8-23.188 1.601-3.897 2.301-8.282 3.899-12.569 5.399-4.773 1.601-9.646 1.9-13.542-2.3 30.886-10.9 62.843-16.301 95.093-19.9 53.101-6 106.104-5.1 159.205 1.7 61.867 8 119.157 28.5 171.283 63.8 2.924 2.1 5.752 4.398 8.576 6.6zm83.985 97.798c-1.559 3.5-2.045 7.2-.584 10.6 3.8 8.602 3.703 17.102 1.462 26.2-1.753 7-.683 13.9 5.847 18.6 3.994 2.9 5.455 7.102 6.43 11.802 2.437 10.6 6.432 20.6 7.405 31.698.584 6.4 4.093 12.4 5.456 19 .195.9.779-1.698 1.559-2.3-.488-40.8-9.257-79.398-27.575-115.6zm-57.972-76.6c-3.702 3.602-7.696 8.802-3.409 12.802 7.016 6.6 12.373 14.198 17.635 22.1.683 1 1.949 1.8 3.216 2.2 8.477 2.898 14.128 8.8 18.608 16.6 2.729 4.7 6.724 8.301 12.959 6.301-13.054-22.803-29.813-42.503-49.009-60.003zm-477.901-67.1c-.778.5-1.559 1.2-2.436 1.4-6.041 1.898-11.887 4.398-17.148 8 .488.898.877 1.8 1.462 2.6 5.261 7.5 8.866 7.6 13.836 0 2.532-3.8 4.286-8.2 6.43-12.3-.779.1-1.461.202-2.144.3zm19.39 83c4.188.7 5.261-3.3 5.846-6.5 1.169-6.1 4.773-8.1 10.425-7.7 2.338.2 4.677-.7 5.262-3.398.779-3.2-1.364-4.9-3.799-6.102-10.523-5.5-22.702 2-22.799 14.7.389 3.402.096 8.1 5.065 9zm139.717-12.2c-1.071 1.7-1.655 3.7-.487 5.602 1.17 1.898 3.119 2.7 4.971 2 5.943-2.2 11.302-1.7 16.465 2.2 1.852 1.398 4.384 1.498 6.236-.5 2.144-2.302 1.852-5 .194-7.302-3.604-5-8.672-7.8-14.614-8.398-5.36.298-9.745 1.898-12.765 6.398zm83.01 57c-1.362 2-1.851 4.3-.486 6.5 1.363 2.3 3.701 3 5.943 2 4.481-2.1 8.477-2.8 12.082 1.7 1.56 1.9 4.092 2.2 6.137.4 1.949-1.602 2.145-3.9 1.656-6.4-1.07-5.9-6.233-10-13.25-10.2-4.481.2-9.059 1.5-12.082 6zm116.043-69.398c-2.924.698-5.848 2.1-5.652 5.698.195 3.7 3.118 5 6.236 4.7 5.455-.5 10.133.7 13.834 5.2 1.463 1.8 3.801 2.7 6.14 1.2 2.631-1.7 2.532-4.3 1.853-7-1.658-6.5-7.504-10.4-16.955-10.601-1.072.201-3.313.303-5.456.803zm50.078 52.098c-3.216.8-6.723 1.8-6.723 5.9 0 3.8 3.215 4.699 6.138 5 5.456.6 9.55 3.5 13.445 7.199 1.754 1.699 3.995 2.399 6.235.899 2.533-1.899 2.241-4.5 1.268-7.1-2.339-6.5-10.62-12.2-17.928-12.102-.485.004-1.46.004-2.435.204zm-108.83-25.5c-3.217 1.3-5.748 3.5-5.262 7.4.486 3.8 3.604 4.6 6.625 4.199 4.676-.5 7.989 2 11.399 4.5 1.948 1.5 4.286 1.601 6.235-.199 1.947-1.801 1.754-4.102.974-6.5-1.851-5.602-8.865-10.4-16.173-10.301-.681.201-2.337.303-3.798.901zm-213.862 33c1.267-2.3.682-4.5-.487-6.6-2.436-4.102-6.333-5.5-10.718-5.301-4.578.199-9.062 1.199-11.789 5.5-1.949 3.101-.195 6.699 3.8 7 4.48.399 9.061-.199 12.958 1.601 2.729.5 4.969.202 6.236-2.2zm340.329 53.2c-2.146 1.1-3.801 2.8-3.51 5.5.293 2.8 2.241 4.1 4.774 4.1 4.58-.1 8.964.5 13.251 2.602 2.923 1.398 5.943.698 7.502-2.5 1.852-3.7-.292-6.302-3.215-8.302-3.41-2.3-7.21-2.8-11.205-2.8-2.629 0-5.161.102-7.597 1.4zm66.447 14.4c-2.631-.698-5.262-1-6.918 1.7-1.754 2.7-.584 5.3 1.461 7.102 3.41 3 6.725 6.1 9.354 9.898 1.461 2.102 3.703 2.7 6.041 1.5 2.24-1.1 3.117-3.2 3.117-5.7.001-5.5-6.43-12.6-13.055-14.5zm-631.258 4.5c-4.188.5-7.307 2.7-8.282 7.102-.778 3.398-.291 6.7 2.631 8.898 3.604 2.7 6.723.5 9.744-1.398.584-.4 1.071-.7 1.655-1 3.118-1.9 6.431-4 4.774-8.5-1.364-4-4.872-4.9-7.307-5.102-1.851 0-2.533-.1-3.215 0zm66.545-13.698c2.338-2.7.584-6.5-3.119-7.7-5.65-1.7-14.029 3.8-14.906 9.7-.487 3.5 1.559 6 5.554 5.8 4.093-1.8 9.061-3.8 12.471-7.8zm-18.316-72.702c.097-4-3.801-7.4-8.478-7.5-4.969-.101-9.061 3.6-9.061 8.1 0 3.8 2.631 5.9 7.209 5.8 6.334 0 10.33-2.4 10.33-6.4z"/><path fill="none" stroke="#000" stroke-miterlimit="10" stroke-width="6" d="M1854.023 767.082s25.115 71.618 18.782-85.78c0 0 5.064-122.7-119.063-213.3-74.048-46-183.172-85.302-363.712-62.7 0 0-160.53 13.698-265.11 186.3-47.491 78.379-28.84 252.7-27.573 283.7 1.364 5.3 9.743 4.3 9.743 4.3s62.063 16 117.6 118.5c12.958 25.8 5.456-7.5 4.676-11.2-.779-3.7 51.82-158.7 74.327-169.7 11.107-19.3-69.412-51.167-38.526-133.367 13.934-22.698 12.525-46.332 106.061-70.332 49.982-12 59.727-19.301 192.915-22.699 0 0 131.825 2.699 216.006 57.699 60.021 39.301 60.82 80.326 64.718 90.326.193 11.498 9.156 28.253 9.156 28.253z"/></svg>