<svg xmlns="http://www.w3.org/2000/svg" id="hair" viewBox="0 0 3000 3000"><path id="cl1" fill="#201816" d="M1500 938c2-7.1 5.8-13.399 9.199-19.899 19.7-38.2 39.301-76.4 59.101-114.601 3.199-6.3 5.5-12.8 7.199-19.6 7.4-30.4 14.9-60.9 22.301-91.3 4.199-17.3 4.1-35 4.8-52.7.1-3-.3-6.3-3.8-7.4-3.601-1.199-5.601 1.601-7.101 4.101-3.5 5.7-6.8 11.5-10.1 17.2-17.2 30-16.938 35.273-22.037 69.873-1.801 12.5-4.563 34.826-14.737 48.59-.6 2.8-26.626 27.936-29.325 30.236-2.5-2.8 5.5-26.3 5-29.5-2.8-17.101 6.199-21.6 3.3-38.699-.801-4.5-.601-10.2-5.801-11.9-6-2-8.899 3.6-12 7.2-16.8 18.899-33.399 38.1-50.1 57.1-2.6 2.9-4.8 6.4-9.4 8.4-.6-3.601 1.601-5.8 3-8.101 12.2-21 24.601-42 36.801-63 1.5-2.6 3.1-5.199 3.8-8.1 1.2-4.8-2.4-7.8-7.1-6-2.7 1.1-5.2 2.9-7.7 4.6-42.299 39.394-90.146 76.463-144.3 103.7-5.4 3.8-11 4.4-17.101 8.5-.6-3.7 1.601-5 3-6.6 32.4-38.5 64.9-76.9 97.3-115.4 3-3.6 5.9-7.2 8.7-11 1.601-2.2 1-4.8-1.3-7.3-2.6-2.9-3.5-1.6-6.1.1-1.4.9-2.7 2-3.9 3.101-19.3 17.899-38.5 35.899-57.9 53.6-19.899 18.2-40.1 36.101-60.199 54.101-1.2 1.1-2.4 2.5-4.601 1.5-1.1-3.7 1-7 2.101-10.4 5.1-16.2 10.399-32.4 15.399-48.6 1.101-3.5 1.8-7.101 2.2-10.7.3-2.4-.7-4.601-3.3-5.601-2.101-.899-4.101-.199-5.5 1.2-2.601 2.601-5 5.3-7.301 8.2-14.699 17.7-29.3 35.4-44 53.1-2.1 2.5-4.1 5.2-7.199 6.801-2.101-2.801 0-4.7.8-6.601 5.7-13.5 8.7-26.899 14.3-40.399C1258 742 1262 739 1257.1 736.1c-5-2.9-5.6.399-8.2 3.6-30.3 36.7-60.6 73.601-90.899 110.3-7 8.5-14 16.9-21.101 25.4-10.7 12.7-27.7 10.6-34.399-4.4-3.101-7-6.7-13.8-8.101-21.399.101-9.601-3.6-18.4-5.899-27.5-4-19.8-6.2-39.8-8.101-59.9-2.6-27.6.601-55 5.3-82.1 11-63.101 35.9-120.4 74.801-171.4 11.1-14.6 26.6-24 40.6-35.2 4.5-3.6 8.5-1.199 9.6 4.7.7 4.101-.8 7.9-1.899 11.7-9.601 31.5-18.601 63.3-28.101 94.9-1 3.199-1.8 6.399-2.699 9.6-.601 2.5-2.2 5.4.6 7.3 2.2 1.5 4.5-.1 6.6-1.2 10.101-5.1 20.301-10 30.301-15.399 47.5-25.8 96.1-49.601 144.3-74 5.7-2.9 11.7-5 17.3-8.2 2.4-1.4 6.8-3.101 9.8.6 2.5 3.101 1 6-.8 8.801-18.7 30.699-35.2 62.8-57.7 91-1.199 1.5-2.1 3.199-2.699 4.8.199-.101.1 0 .1-.2 21.1-32.3 46.1-61.4 70.8-90.8C1407.3 504.4 1417.2 491 1427.7 480.5c-18.5 10.4-40.101 18.601-61.2 27.8-20.7 9.101-40.6 19.801-61.3 28.9-27.101 12-54 24.5-80.9 37-5.2 2.4-11.4 6.7-16.6 1.7-4.9-4.7-1-10.7 1.1-15.8 16.1-38.8 31.4-77.8 45.8-117.3 2.601-7.301 7.9-11.2 14.4-14.301 29.3-14 59.8-24.4 90.9-33.2 56.199-15.899 113.6-23.8 171.8-20.3 93.899 5.7 178.1 36.8 248.899 100.5 69.9 62.9 109.7 141.9 124.7 234.101 2.101 13.1 2.2 26.399 2.601 39.7-4.301 11.399-8.5 22.8-12.801 34.199-2.6-14-8.8-25.8-15.5-37.199-5.699-9.801-11.5-19.5-17.399-29.2-1.9-3.101-4.101-6.601-8.4-6-4.4.6-5.4 4.6-6.3 8.1-4.2 15.4-8.2 30.9-12.301 46.4-.8 3.1-1 6.5-4.199 10.2-1.101-13.2-.801-25.101.199-36.9 1.601-18.6.801-37.3 1-55.9.101-5.699-2.3-10.3-6.399-14.1-11.9-11.2-23.7-22.5-35.601-33.7-1.399-1.399-3.1-2.6-4.899-3.399-4-1.801-7.3 0-8.3 4.3-.801 3.3 0 6.6.5 9.899 5.8 41.2 11.5 82.5 17.3 123.7.3 2.3 1.2 4.5-.101 7.9-3.5-3.8-4.6-8.2-6.3-12.2-14.8-35.3-29.6-70.7-44.399-106-.9-2.2-1.801-4.3-2.801-6.4-1.399-2.699-2.8-5.6-6.6-5-3.6.601-4.4 3.801-5 6.7-.7 2.9-1.1 5.9-1.5 8.9-3.4 27.399-6.8 54.8-10.3 83.399-2.4-3.199-1.7-5.8-1.8-8.1-.601-18-1.101-35.9-1.801-53.9-.199-4.199.7-9.899-4.8-10.8-5.7-1-6.4 4.9-7.8 8.8-10.9 31.9-22.601 63.4-35.801 94.4-21.3 50-21.8 52.6-68.3 91.2-27.399 22.8-56.7 43.1-86.2 63.3-3.598 2.301-7.098 4.902-11.297 6.101zm-447.301-579.5c-14.6 25.2-15.5 16.7-.399 45.5 18.399 35.101 37.3 69.9 56 104.801 2.5 4.699 4.899 9.5 5.399 14.899 6.601-8.8 12.801-17.899 20-26.2 5.301-6.1 6.101-11.6 3.101-19-9.601-23.8-18.601-47.8-27.801-71.8-11.1-28.9-22.1-57.9-33.199-86.8-7.7 12.9-15.601 25.6-23.101 38.6zM1840 524c16.199 12.7 32.699 24.801 50.199 35.7-2.3-4-5-7.899-6.699-12.2-1.7-4.3 1.5-7.3 5.899-5.899 3.601 1.1 6.3 3.6 9.2 5.8 19 14.6 37.7 29.4 57 43.6 12.4 9.101 24.1 18.9 34.4 30.2 21.6 23.5 43.5 46.7 64.199 70.9 3 3.5 5.9 7.2 9.9 9.8l-.101.1c-.5-4.399-2.3-8.3-4.1-12.199-4.101-9.101-8-18.301-12.2-27.301-11.2-24.8-22.5-49.6-33.8-74.399-1.2 2.1-3.101 2.5-5.101 1.5-2.699-1.3-5.3-2.7-7.899-4.2-46.5-26.4-93-52.7-139.5-79.1-4.3-2.4-8.5-5.301-13.5-6.301l.1-.1c6.601 10.1 17 17.4 21.9 30C1858.8 530 1849.9 524.1 1840 524zm-749.5 10c-20.101-11.5-40.101-23.199-60.4-34.399-13.3-7.4-25.8-16.3-40.2-21.601l.1-.1c2.2 2.5 4.2 5.2 6.5 7.5 27.9 28 55.9 56.1 83.9 84 2.3 2.3 5 4.3 7.6 6.5 5.4-12 10.7-23.9 16.101-35.9-4.801-1.3-9.201-3.5-13.601-6zm841.8-87.8c27.8 1.4 54.8 6.4 80.5 17.3 11.3 4.801 22.7 9.5 34.1 14.101 2.3.899 4.4 2.6 9.4 1.7-21.4-13.7-41.3-26.4-61.101-39.101-4.8 2.7-9.699 1.3-14.6.7-37.6-4.5-75.3-9.1-113.3-9-16.5.101-32.3 3.8-47.601 9.7 37.602-.2 75.102 2.8 112.602 4.6z"/><path id="hl1" fill="#514035" d="M1907.699 749.6c-3.1-5-3.1-10.8-3.8-16.4-8.3-66.8-29.2-129.1-67.2-185.2C1790.3 479.5 1727.4 432.1 1649.8 404.4c-57.601-20.601-117-27.5-178-22.9-66.101 4.9-129.301 21.5-190.2 47.2-.3.101-.6.3-.9.4-13.399 4.2-20.8 12.899-25.5 26.6-12 34.9-26.199 69.101-40.3 103.3-1.6 3.801-5.7 8.7-2.5 11.9 3.9 4 8.6-.9 12.6-2.7 67.301-30.7 134.5-61.6 201.7-92.3 3.8-1.7 7.5-4 12.3-4.2-.5 4.3-3.199 6.5-5.3 8.9-37.2 44.899-74.4 89.8-111.6 134.6-1.9 2.3-4 4.4-6.101 6.601l.101.1c1.199-4.9 4-9.1 6.6-13.4 18.1-30.399 36.2-60.699 54.2-91 1.7-2.8 4.1-5.3 4.1-9.399-4-.8-7 1.6-10.1 3.2-34.8 17.6-69.601 35.1-104.3 52.899-30.2 15.601-60.2 31.5-90.4 47.2-2.3 1.2-4.4 3.1-7.9 1.7-1.199-3.9.7-7.601 1.801-11.3 10.8-37.101 21.8-74.2 32.6-111.2 1.1-3.7 3-7.3 1.9-11.4-1.2 0-2.101-.3-2.5 0-12.601 10.3-26.801 18.5-36.9 31.7-42.6 55.5-67.8 118.1-77.2 187.2-5 37.2-4.399 74.399.8 111.6.601 4 .9 7.9 1.301 11.9.3 2.3 2.6 5.3-2 6-7.9-26.601-11.9-54-14.101-81.5-4.199-52.601.5-104.4 14.4-155.4 1-3.6 1.8-7.1 1.2-10.8-.601-.8-1.301-1.5-1.5-2.4-.101-.5-.2-1.1-.301-1.6-2.6-11.9 4.9-28.7 16.101-35.9.6-.699 1.2-1.5 1.899-2.1 2.101-3.9 4.2-7.8 6.2-11.7.4-.899 1.101-1.6 1.5-2.399v-.102c1.601-11 7.4-19.7 14.2-28.1 5.3-6.5 4.4-13.5 1.7-20.7-7.601-20.2-15.4-40.3-23.2-60.4-9.6-24.8-19.2-49.5-28.9-74.2-2.6-6.8-3.899-13.399-1.699-20.399 9.1-15.4 18.199-30.8 27.6-46.7 4.8 4.1 4.9 8.6 6 12.6 16.3 58 32.5 116.101 48.8 174.101 1.2 4.2 2.2 8.4 3.8 12.4 2.2 5.3 5.5 6.199 10.301 2.8 3.3-2.3 6.1-5.101 9.199-7.7 55.101-45.8 116.301-80 186.4-96.7 51.1-12.1 103.3-15.5 155.8-15.2 31.4.2 62.601 2.2 93.4 8.101 10.5 2 20.7 5.1 30.6 9.199 31.801 13 62.9 27.301 93.5 42.9 6.2 3.2 12.301 4.1 19.2 3.4 50.4-5.101 100.8-10 151.4-11.101 3-.1 6 .101 9-.1 14.5-.9 27.5 2.899 39.6 11 11.4 7.6 23.3 14.3 35 21.4 2.6 4.899-.8 5.8-4.3 6.3-4.601.7-9.3.1-13.9-.601-33.6-4.699-67.399-7.5-101.3-8.899-18.8-.8-37.5 1.3-56 4.6-.6.101-1.1.3-1.7.5-4.7 2.5-6.899 9.3-12.8 8-2.3.3.2 1.4-.7.4-.3-.4-.1-.601.5-.7 9.101-1.2 16.2 6 24.9 6 44.1 18.7 88.3 37 130.6 59.6 2.101 1.101 4 2.301 6.101 3.301 13.399 6.6 22.8 16.6 28.699 30.399 5.601 13.101 12.301 25.8 18.4 38.7 0 9-1 10-7.8 6.2-45.601-25.5-91.2-51-136.3-77.3-5-2.9-9.101-6.9-13.2-10.601.2.101 0-.1.1.101 6.7 5.899 13.7 11.3 17.601 19.5 1.199 2.6 2.8 5.1.6 8-2.2 2.699-5.2 2.899-8.2 2-5-1.5-9.8-3.801-14.399-6 .1.1.1-.101.1.1 16.3 5.3 26.3 18.3 37.6 29.7 2.9 3.2 6.101 6.2 8.7 9.6 10.6 13.7 20.7 27.8 30.7 41.9 15.3 21.7 26.699 45.2 34.5 70.7 6.699 22 12.699 44.199 18.1 66.6.9 3.9 1.7 7.8 1.5 11.9-.9 23.6-1.7 47.3-2.6 70.899-.101 2.9 0 5.9-1.9 9.4-2.4-3.4-2.8-6.7-3.6-9.9-7.601-31.8-15.301-63.5-22.9-95.3-1.2-4.9-2.6-9.6-4.6-14.2-11.2-25.7-22.301-51.3-33.5-77-.9-2.1-1.9-4.3-3-6.3-1.2-2.1-2.9-3.8-5.7-3-2.6.8-3.7 3-3.7 5.4 0 3.3.301 6.6.801 9.899 3.399 25.101 7.199 50.101 7.5 75.5.496 8.201.396 16.201-2.405 23.901zM1614.6 813.9c49.8-56.7 82.7-122.2 100.9-195.2 4.699-19 4.6-37.3-.7-56.1-8.9-31.1-19.4-61.7-30.7-92-.9-2.3-1.1-5.2-3.9-6.4-1.6.9-1.399 2.301-1.3 3.601 1.4 16.7-.1 33.3-.5 49.899-1.1 43.101-5.3 85.801-12.899 128.2-8.301 46.7-20.7 92.3-40.9 135.5-7.2 15.4-15.7 30-24 45.101 5.799-3.101 9.899-7.901 13.999-12.601z"/><path fill="none" stroke="#000" stroke-miterlimit="10" stroke-width="6" d="M2056.3 479.4c-.3-4.4-80.8-52.4-110.5-67.9 0 0-15.8-8-175.3 4-27.5 3.5-21.301-.8-45.5-9.5-32.7-11.7-100-60.5-250.5-51 0 0-162.5-9-300.5 115-16 14-15.7-9.6-16.801-13.8-1.1-4.199-53.199-184.7-53.199-187.7s-64 105.4-64 105.4-3.9-.4 5.6 17.5c9.5 17.899 67.9 127.9 67.9 130.4s-6 25.399-19.801 12.699c0 0-99-60.8-105-59.3-4.8 5.5 65.2 67.8 95.301 101 0 0 6.8 2.5 3.3 13.3-3.5 10.801-16.3 63.5-16.8 99-1.7 45 8.5 126 24.5 162 0 0 2.6 23.2 13.899 29.2s25.2 4.101 35.9-13.8c10.7-17.899 105.5-128.1 105.5-128.1s13.7-6.8 6.2 10-17.301 42.3-17.301 45.5 56.4-58.7 59.5-64.3c3.101-5.601 10.5-5.801 5.5 10.5-3.3 12.5-15.8 56.399-15.8 56.399s-2.1 11.5 12.8-3.6C1316.1 777.2 1411.5 689.7 1411.5 689.7s14.743-10.978 7.699 6.101C1402 737.5 1313 820 1311.5 825.301c-1.5 5.3 37.2-13.701 44-18.301 6.8-4.601 35.813-22.542 57.5-37.5 17.794-12.272 66.3-55.5 66.3-55.5s13.5-9 7 6-42 70.801-42 72.801 2.8 5.5 11.5-3.301c8.7-8.8 53.8-61.8 53.8-61.8s9.3-12.2 12.9 4.5c3.6 16.7-8.7 67.6-7 70.3s27.239-20.266 36-43.5c11.5-30.5 8.1-86.1 38.8-117.1 4.399-9 15.2-17.9 10.5 2 4.3 25.5-19.7 123.5-25.2 139.8S1497.8 938 1497.8 938s62-37.3 65.8-40.3 65.9-51.2 73.8-64.399c4.73-7.904 22.491-37.125 33.3-62.7 4.1-9.702 30.9-88.601 31.9-90.9s8.3-9.399 10.1 3.601c1.801 13 2.2 54.3 4.301 62.5 2.1 8.199 10.6-80.101 11.3-84.7.7-4.601 5.3-25.2 12.4-8.9 7.1 16.3 49.6 118.7 52.3 123.4s2.4-11 2.7-17S1779.3 651 1779.3 647s-3.9-20.6 12.399-10.1c16.301 10.5 30 30.4 34.9 36.5s3 12.3 2.3 19c2.9 14.3-.7 80.3 1 86.7s20.7-55.5 19.7-59.7 7-8.7 10.3-2c0 0 34.3 55 33.3 67.7s19.301-36 19.301-54.3-7.301-87.7-7.301-87.7-1.3-16 9.801 2.5c8.8 15.8 37.8 90.9 37.8 90.9s20.3 108 24.7 107c4.399-1 8-86 8-86s-21-91.7-40.7-128.301c-8-12.3-59-78.699-59-78.699s-3-12.301 7.7-3.7C1904.5 552 1994 614 2064 704c12.3 16-66.4-158.3-70.4-164.3 0 0-10-22.3-107-59.6-37.8-16.3-73.8-29.4-73.8-29.4s5.5-7 10.1-8 133.9 5.2 145.8 7.7c11.9 2.5 87.999 33.401 87.6 29z"/></svg>