<svg xmlns="http://www.w3.org/2000/svg" id="hair" viewBox="0 0 3000 3000"><path id="hl1" fill="#EEF2F5" d="M1919.698 444.2c-27-2.5-53.8-1.2-80.3 4.9-3.2.7-6.6.7-9.9 1.3-3.199.6-7.3.5-7.898 4.7-.602 4.399 3.398 5.3 6.398 6.399 12.602 4.301 25.102 8.899 37.801 12.601 22 6.3 44.301 11.899 66.399 18.1 17.601 5 34.9 10.8 51.601 18.5 1.601.8 3.899.9 5 4-7.5.4-14.699 1-21.899 1.102-16.101.398-31.7 3.6-47.101 8.1-.601.2-1.301.2-1.899.5-2.7 1.101-6.2 1.9-6.101 5.601.101 4.301 3.699 5.199 7 5.699 13.801 2.102 27.5 4.9 41 8.4 12.101 3.2 24.301 6.3 37.101 12.6-10.3 3.4-19.601 5.301-28.2 9.102-6.1 2.8-12.199 5.398-17.699 9.1-2.801 1.8-5.5 3.8-7.801 6.2-5.398 5.5-4.6 9.1 2.602 11.5 6.3 2.1 12.8 3.6 19.199 5.399 5.399 1.5 10.699 3 17.699 5-9.1 4.101-16.8 7.601-24.6 11.101-4.4 2.3-8.301.8-12.301-1.2-39.801-19.5-79.101-39.9-107.301-76.2.7 9.7 4.102 18.2 8.602 26.2 9.8 17.5 22 33.2 36 47.6 3.6 3.7 8.398 6.7 9.5 12.5-.2 1-.7 1.7-1.7 2.102-2 .6-4.101.2-5.8-.7-35.301-18.2-69.801-37.6-98.2-69 12.399 23.7 20.899 47.3 34 68.601 3.899 6.399 9.6 11 14.3 16.699 1.6 2 4.1 4.301 2.301 7-1.801 2.7-4.899 1.301-7.301.4-19.199-7.102-36.3-18.2-54.3-27.602-38.7-20.1-72.5-47.198-105.7-75.1-2.8-2.3-5.3-5-9.9-6.6 8.4 32.6 17.802 64 38.4 90.699 1 1.301 2.2 2.5 3.2 3.899 1.399 1.9 3.399 4.101 1.899 6.3-2 2.801-4.899 1.102-7.199-.1-6.5-3.602-11.801-8.7-17.2-13.7-16.8-15.6-33.7-31.399-47.3-51.2 4.699 24.301 11.1 47.102 26 66.602 1.8 2.3 4.3 5.398 2 8.1-2.7 3.1-6.301.6-9.102-.9-17.6-9.8-32.199-23.6-46.8-37.3-11.7-10.898-22.6-22.6-34.1-33.8-2.101-2-4.5-5.4-7.5-3.6-3 1.699-1.2 5.5-.802 8.3 2.2 15.3 6.802 29.8 13.9 43.6 1.4 2.7 4.7 6.102 1 8.8-3 2.2-6.6-.1-9-2.398-12.3-11.2-24.3-22.8-35.199-35.4-5.699-6.5-11.199-13.1-17.199-21.5-1.602 20.102.1 38.301 3.199 56.5.801 4.7 4.399 11.5-.899 13.7-5.9 2.5-8.302-5-11.302-9-4.3-5.899-8-12.3-11.898-18.5-6-9.399-9.4-9.399-16.102-.2-4.898 6.801-8.6 14.2-10.898 22.301-.602 2.199-1 4.601-1.801 6.801-1.399 4.199-1.301 10.898-6.801 10.699-4.699-.101-4.699-6.5-5.6-10.601-1.9-8.5-3.2-17-5.3-25.399-2.3-9-4.601-9.601-12.2-4-11.7 8.5-21.3 19-30.1 30.399-2.7 3.5-5.4 8.8-11 6.4-5-2.102-5-7.5-5.102-12.2-.3-14.3-.6-28.602 2.301-44.9-11.601 6.5-18.899 15-27.5 21.801-9.899 7.801-18.899 16.899-28.801 24.699-2.699 2.102-5.398 6.2-9.3 3.602-3.399-2.2-2.7-6.602-2.2-10.2 1.4-9.601 2.9-19.101 4.801-28.601 3.699-19.301 6.601-38.801 9.899-58.101.5-3.2 1.8-6.5-.899-10-9.301 4.601-16.899 11.7-24.699 18.2-21.2 17.7-43.602 34-64.7 51.898-2.8 2.4-6.101 5.5-9.7 3.302-3.8-2.302-1.8-6.602-.8-10.102 4.601-15.7 7.601-31.7 9.601-49.2-11.101 7.102-19.899 15.7-28.5 24-26.5 25.5-57.601 44-89.899 60.802a29.35 29.35 0 0 1-5.601 2.1c-2.5.7-5.301 2.2-7.5-.2-2.101-2.199-1.399-5.1-.399-7.6 7.1-18 13.399-36.2 20.399-55-14.399 9.1-28.699 17.8-43.399 25.8-29.4 16-59.7 29.5-92.602 36.5-3.6.8-8.6 3.8-9.898-3.3 12.7-14.8 25.3-29.7 38.198-44.4 4.4-5 9.602-9.1 15-13 2.5-1.8 4.9-4 2.9-7.398-1.8-3.102-4.9-3.102-7.9-2.301-14.3 4-28.698 8-43 12.199-8.3 2.4-16.398 5.102-24.6 7.7-2.3.5-3-.6-2.6-2.7 15.3-16.199 30.6-32.5 46.8-47.8 6.5-6.2 13.7-11.6 21.5-16.2 7.3-4.3 14.899-7.3 23.399-8.1 3.301-.3 6.601-.9 9.801-1.9 2.3-.699 4-2.6 3.699-5.3-.199-2.1-1.699-3.6-3.801-4.2-2.199-.6-4.5-1.199-6.699-1.8-33.5-9.6-60.301-28.7-81.5-58.899 23.399 3.399 45.301 4.899 67.399 4.399 21.9-.5 43.9.8 66-8.8C1083.9 406.5 1061.5 369.7 1044.1 328c3.8.5 5.699 2.2 7.699 3.602 12.301 8 24.399 16.199 36.801 24.1 9.3 5.9 19.5 10 30.1 13.2 3.4 1 7.2 3.5 10.301.3 3.301-3.399-.101-6.8-1.5-9.899-2.801-6-5.899-11.899-8.801-17.801 2.2-2.5 4.602-1.3 6.602-.898 22.699 3.6 45.3 7.398 68 11 4.1.6 9.1 3.1 12.1-1.2 3.6-5.2-1.8-8.5-4.3-11.9-11.302-15.199-22.9-30.199-34.4-45.3 2.7-2 4.7-.3 6.8.4 18.7 6 37.4 12.1 56 18.1 1.9.601 3.801 1.4 5.7 1.8 6.4 1.5 9-.898 7.101-7.398-1.5-5.4-3.899-10.602-5.801-15.9-.6-2.1.301-2.6 2.2-2.2 12.8 12.2 25.5 24.301 38.3 36.5 9.7 9.2 10.801 9 18.9-2.1 15.6-21.4 26.8-45 34.699-70.3.699-.9 1.5-.9 2.199 0 3.301 22.1 3.5 44.5 5.9 66.699.5 5 .7 10 1.5 14.899 1.1 7.2 5 8.601 11.1 4.101 4.801-3.601 9.301-7.601 13.7-11.601 30.8-27.6 64.2-51.899 98.8-74.6 4.4-2.9 8.801-5.801 13.9-7.7 1.5 3.2-.8 5.3-1.8 7.5-5.9 13-12.101 25.899-18.101 38.899-1.601 3.301-3.199 6.601-4.601 10-1.2 2.899-1.5 5.899.899 8.399 2.199 2.3 4.899 1.7 7.399.8 6.9-2.5 13.7-5.1 20.5-7.8 31.5-12.6 63-25.3 94.5-37.899 1.5-.601 3.101-1 5.5-1.801-.1 8-3.5 14.4-6 21-1.399 3.801-6 7.801-2.1 11.801 4.399 4.601 8.7 0 12.399-2.199 19.101-10.9 38-22 56.899-33.2 7.101-4.2 13.9-9 21.3-15.9-.3 11.801-2.8 21.5-4.6 31.4-1.3 6.899-2.9 13.7-4.4 20.5-1 4.899-1.199 10-.199 14.899 1.199 6 4.601 7.899 10.101 5.601 3.3-1.4 6.399-3.5 9.5-5.4 19-11.8 38.5-22.6 59.7-29.898 13.199-4.602 26.699-6.801 41-5.7-.5 1.2-.602 2-1.102 2.2-22.398 11.5-40.8 28.699-61.5 42.699-2.8 1.899-5.8 3.899-4.3 7.899 1.2 3.4 4.4 3.7 7.5 3.9 10.601.5 21.3.199 31.9 1.8 25 3.8 49.3 11 74.198 15.8 8.802 1.7 17.602 3.5 26.4 5.3 1.1 1.5 5.2-.1 4 3.801-10.699 2.601-21.8 2.101-32.699 3.5-16.5 2.101-31.199 8.699-45.899 15.699-2.601 1.2-4.9 2.9-4.302 6 .7 3.301 3.4 4.7 6.7 4.9 13.3.899 26.5 2.399 39.8 2.8 26.802.8 53.102-1.899 78-12.8 3.302-1.5 6.7-2.9 10-4.4 2.102-.399 3 .5 2.602 2.601-7.5 8.2-16.602 14.2-26.102 19.601-7.6 4.3-15.698 7-24.698 6.5-3.9-.2-7.9.3-11.9.8-2.1.301-3.7 1.7-3.8 3.9-.102 2.199.898 4.1 2.898 4.8 2.802 1 5.7 1.5 8.602 2.101 17.898 3.699 35.5 8.101 52.398 15.301 7.9 3.399 15.5 7.399 22.5 12.6-1.292 4.692-4.493 2.392-7.094 1.992z"/><path id="cl1" fill="#D3E0E6" d="M1892 624c-4.102-6.198-10.102-10.5-14.9-16-14.7-16.698-28.5-34-37.4-54.698-2.398-5.5-3.398-11.4-5.1-17.102-.5-1.8-1.1-4.2 1.3-5.1 2.3-.8 3.8 1.2 4.7 2.8 5.199 8.3 13.1 14.1 19.5 21.2 12.6 14 28.6 23.6 44.5 33.1 14 8.4 28.699 15.4 43.199 22.7 3.301 1.7 6.601 3.2 10.399 3.1-4.5 2.802-9.1 5.4-13.3 8.5-4.5 3.4-4.6 7.4.3 10.5 13.802 8.802 23.7 21.2 33.601 33.9 3.899 5 7.899 9.9 11.899 14.8.2 2-.6 3-2.698 2.602-13.2-1.9-25.802-6.2-38.302-10.602-4.1-1.398-8.198-2.7-12.399-3.7-2.899-.698-6.101-.898-8 2.2-2 3.3.101 5.602 2 8 3.101 3.9 6.5 7.602 9.399 11.602 11.9 16.398 22.601 33.6 32 51.6.4 2.2-.5 3-2.6 2.7-7.3-3.602-14.2-8-22.5-9.3-4.601-.7-9.101-.302-13.601.698-4.801 1-6.699 3.7-5.699 8.5-5.9 1-8.102-3.8-10.801-7.3-12.699-16.6-25.399-33.2-37.899-51.1 1.5 12.3 2.8 23.8 4.7 35.3.398 2.3.699 4.6.6 7-.1 3.6.8 8.5-3.1 9.8-4.102 1.4-6.102-3.3-7.801-6.398-6.399-11.302-11.801-23.102-17.699-34.7-5.4-10.7-11.7-20.7-19.2-29.9-4.101 1.5-3.601 4.5-3.9 7-1.3 8.9-2.3 17.801-4 26.7-.8 4.5-.399 10.5-5.899 11.601-5.301 1.101-7.699-4.301-10.601-7.801-7.198-8.8-14.198-17.699-21.1-26.699-7-9.199-7.7-9.101-13.9.101-5.6 8.3-11.1 16.6-16.698 24.899-8.802 13.199-11.102 13.101-18.102-.699-3.8-7.4-7.6-14.801-11-23.7-6.6 9.8-9.3 20.1-14.199 29.3-1.301 2.3-1.899 5-3.199 7.3-4.301 8-8.4 8.7-14.5 2.2-9.602-10.2-17.5-21.8-26.2-32.7-2.3-2.8-3.9-6.2-7.4-8.5-3.399 1.8-3.5 5.4-4.3 8.4-3.5 13.6-8.8 26.6-12.4 40.1-1 3.8-1.8 8.9-6.199 9.5-4.801.7-6-4.6-7.601-8-10.399-22.3-21.1-44.6-31.399-67-.899-2-1.399-4.398-4-6.398-14.101 18-27.5 36.198-40.5 54.6-7.301 10.4-15.199 20.3-22.601 30.601-1.7 2.301-3.6 5.5-7.1 4.101-2.8-1.101-2.9-4.4-2.9-7-.3-17.3-.3-34.601-.1-50.101-13 20.199-28.101 41.101-45.5 60.399-2.4 2.601-5.2 6.3-9.101 4.8-4-1.6-3.699-6.3-3.301-9.699 2.2-17.301.7-34.5-.1-51.699-.2-5 .1-10-1.7-15.9-4.7 2.8-8.7 6-12.3 9.6-23.102 23-48.301 43.9-71.301 67.102-22 22.3-48 37.8-77.101 48.699-2.2.801-4.6 2.301-6.5.101-2.1-2.399-.7-5.2.5-7.399 5.4-10 11.5-19.5 17-29.399 8.2-14.9 16.101-29.9 22.101-45.9 1.199-3.3 3.301-6.5 2.699-11-10 4.3-18.199 11.2-27.8 15.601-13.3 6-17.3 3.699-17.7-11.301-.3-10.899.301-21.899-.398-33.8-6.9 2.601-11.2 7.8-16.102 11.7-13.8 11-27.199 22.5-41.1 33.399-1.8 1.399-3.6 3-5.7 4-2.5 1.301-5.3 4-8.1 1.399-2.101-2-.601-5 .2-7.6 4.8-15.2 11.8-29.7 15.5-45.301 3.699-12.399 11-23.399 14.199-36-8 6-9.301 16.399-16.101 23-29.7 38.801-66 71.399-100.3 105.699-8.9 8.9-18.602 17.102-27.7 26-2.8 2.801-5.8 5.602-10.2 5.801-1.6-.399-2.398-1.5-2.699-3 2.899-11.801 12.101-20.5 16.301-31.699 1.8-4.801 4.699-9.301 5.5-16.5-14.602 11-27.9 20.8-42.301 28.8-4.399 2.5-9.601 7.8-14.199 3.101-4.2-4.301 1.398-9.101 3.6-13.301 6.2-12 12.5-24 17.5-37.5-19 4.7-36.4 11.101-54.5 15.4-4.5 1.1-8.9 2.8-13.7 1.898-2.2-.6-3.7-1.8-4.2-4.1-.198-5.6 3.602-9 6.7-12.9 7.3-9 14.5-18 20.102-29.8-36.602.3-72.7 7.4-107.7-5.1-7.7-2.4-14.2-6.9-21.3-11.4 1.898-2.6 4.398-1.399 6.398-1.399 16.602-.101 33.2.101 49.7-2.899 14.602-2.601 28-8.101 40.602-15.8 8.8-5.4 16.998-11.7 26.3-16.2 2.8-1.3 5.899-2.8 4.899-6.399-1.101-4.2-4.699-3.899-8.199-3.2-12.7 2.7-25.4 5.399-38 8-3.102.7-6.2 1.801-10.5.5 2.8-3.101 4.8-5.899 8-7.8 1.898 2.699 4.5 2.399 7.199 1.699 18.399-4.5 36.399-10.399 53.899-17.8 30.101-12.7 58.2-29.2 85.7-46.8 1.1-.7 2.398-1.102 4.6-2.102-8.6 22.9-16.9 44.801-25.5 67.7 5.2 0 9.2-1.899 12.7-3.899 25-13.699 50.5-26.801 72.1-46 14.9-13.199 30-26.101 45.101-39.199 1.5-1.301 2.601-3.2 5.5-2.2-3.199 21.101-5.899 42.3-12.5 63.2 12.399-7.2 22.699-16.7 33.699-25.4 11.2-8.899 22.9-17.1 33.7-26.3 10.9-9.2 22.101-17.899 34-26.5 3.4 4.601 2.4 9.5 1.7 13.7-3.2 20.6-7.1 41.1-10.6 61.699-2 12-4.9 24-5.5 38.601 23-19.601 44.398-37.899 66.398-56.8 2.7 5.5 2.4 9.898 1.4 13.898-3.102 13.2-.801 26.602-1.5 39.801 0 .699 0 1.399.199 2 .699 2.199.899 4.899 3.399 5.699 2.8.801 4.101-1.699 5.4-3.5 6-8 12-15.898 19.2-22.8 5.8-5.6 11.898-10.6 18.6-14.899 6.5-4.101 8.8-3.199 10.6 4.101 2.5 10.3 4.5 20.7 6.4 31.2.6 3.3 1.6 6.199 3.1 10.1 3.7-5.199 3.7-10.699 5.102-15.699 2.898-10.801 7.8-20.601 14.898-29.101 7-8.3 9.801-8.101 15.7.8s11.601 17.801 17.3 26.801c1.301 2 2.5 3.8 6.602 5.699-6-25.8-7.7-50.6-5.9-78.3 19.4 25.7 39.3 47.899 63.2 66.399-2.7-7.899-6.302-15.199-9.4-22.601-4.6-10.899-5.8-22.5-8.1-33.8-.601-2.7-1.5-6.5 1.6-8.2 3.4-1.899 6.601.7 8.9 2.9 11.698 11.399 23.1 23.1 34.8 34.5 14.1 13.6 28.5 26.899 45.2 37.399 3.1 2 6.1 4 11.5 5.301-8.9-13.2-16.9-25.301-21.802-39.4-4.8-13.8-6.8-27.9-9.898-42.2 21.6 27.2 45.1 51.8 73.6 71.601-20.699-23.699-31.199-52.199-39.699-81.5-2.301-8-6.301-15.801-5.5-26.301 29 22.602 55.101 46.602 85 65.7 30 19.101 61.301 35.9 93.101 50.7 2.2-1.3 1.399-2.3.7-2.8-15.7-12.9-24.5-30.601-32.4-48.601-6.8-15.5-15.5-30.101-20.9-46.699 3.102-.102 4.301 2.1 5.7 3.6 23.601 24.9 51.101 44.4 81.7 59.8 7.502 3.992 14.002 9.492 22.304 11.292zm-611.1-137.6c-.8 3.5-2.7 8.4.7 10.1 4.199 2 5.5-3.398 7.5-6.198 10.5-15 20.8-30 31.4-44.9 6.6-9.3 8.398-9.8 19-7.1 2.6.698 5.1 1.6 7.6 2.398 30.6 9.5 59.4 23.2 88.6 36.102 2.801 1.198 5.301 4 10.2 2-7.899-6.9-13.3-14.802-19.399-22.102-11-13-22.301-25.6-38.301-32.7-2.4-1.1-5.9-1.398-6.5-4.898 38.7-13.5 78.801-19.4 119.301-28-33.5-14.102-67-19-104-11.4 10.199-12.8 19.801-22.899 28.801-35.8-17.801 6.6-34.2 10.8-49.2 19-15.5 8.399-30 18.399-45.101 27.5-20 12.2-16.699 13.5-32.101-5.5-6.5-8-12.399-16.5-21-22.5-4.1-2.8-6.2-1.7-6.2 3.2.102 7.699-.6 15.199-2.199 22.699-1.5 6.601-2.5 7.899-9.301 7.699-10.6-.199-20.3 2.602-29.898 6.7-11.602 4.9-23.602 9.2-34.9 14.8-10.6 5.2-22 8.802-31.898 15.9 28.198-1.2 55.8-6.6 85.1-9.6-27.2 27.6-43.801 51.699-45.801 67 31.301-17.602 58.199-40.7 91.5-53.4-5.903 16.1-9.903 32.5-13.903 49z"/><path id="sd1" fill="#636C70" d="M1249.125 653.75c-.699 8.399-9.625 36.25-12.325 44.052-3.302 9.398-6.802 18.698-9.601 28.6 25.101-16.899 47.399-37.399 72.199-57 2 19.101-.1 36.601 2.2 54.7 16.899-5.8 30.399-15.5 44.3-24 3 2.5 1.1 4.7.5 6.6-7.9 25.7-21.199 48.801-34.3 72-3.7 6.5-7.5 13-11.802 20.4 32.802-11.3 60.201-28.5 84.102-52 26.6-26.102 54.398-51.102 81.6-76.5.7-.602 1.602-1 3.801-2.5 2.801 27.8 4.601 54.6 2.699 82.2 23.102-20 38.7-45.802 57.102-71.802v64c.6.2 1.199.302 1.8.5 22.899-31.3 45.8-62.5 69.899-95.398 14 29.898 27.301 58.6 41.699 89.398 7.4-23.198 14.102-44.3 21.301-67 15.301 17.7 26.899 36.602 43.101 53.4 9.399-16 14.601-33 23.7-49.8 6.8 13.899 13.1 26.8 19.898 40.8 11-16.5 21.5-32.1 32.801-48.9 13.199 16.602 25.699 32.302 39.601 49.802 4.7-18.602 5.2-35.802 9.2-52.7 4.398.2 6.3 3.6 8.398 6.3 7.4 9.5 13.5 19.8 18.9 30.601 5 10.101 10.1 20.301 15.3 30.301 1.601 3.1 3.601 6 6.2 8.6.1-19.3-4-37.9-4-57.4 2.2 2.802 4.5 5.4 6.6 8.302 12.102 16.3 24.102 32.698 36.2 49 2.2 2.898 4.101 6.1 7.7 7.6 4.898 5.3 5.8 12.5 9.398 18.5 7.602 12.9 16 25.4 24.802 37.4 0 3.5-1.601 3.6-4.101 1.898-9-4.398-17.601-9.398-27.399-12.1-2.2-.601-4.5-1.4-6.802-1.7-6.198-.7-9 2.1-7.398 8.2 5.3 21 10 42.1 17.699 62.399 3.5 9.199 7 18.5 11.301 29.899-19.7-13.1-36.602-25.5-48.801-43.5-3.601-5.3-5.899-11.2-6.399-17.7-.101-1.699-.101-3.3-.5-5-.5-2.5-2-4.199-4.7-4.5-2.199-.199-4 1-4.8 2.9-1.7 3.6-3.2 7.3-4.5 11.1-6.601 17.801-12.5 35.9-21.101 52.801-5.101 10.101-10.899 19.699-19.199 29.199-1.2-4.199.5-6.699 1.3-9.199 13.8-45.899 21.9-92.601 19.2-140.699-.301-5.7-1.301-11.2-2.301-16.801-.399-2.199-1.399-4.5-2.399-6.5-1.399-2.801-3.399-5-6.899-5-3.601 0-5.101 2.399-6.399 5.301-5.9 13.398-12.2 26.6-17.9 40.1-7.5 17.9-16.399 35-29 49.9-4 4.699-8.2 9.3-14.899 14 1.5-8.801 3-15.602 3.699-22.4 2.5-24.9 3-49.8.1-74.7-.5-4.6-1.698-9.2-3-13.6-.898-3.101-2.299-6.4-6.5-6.7-3.5-.2-5.6 2-7.198 4.6-6.5 10.5-13.101 20.9-19.2 31.602-11.5 20.3-22.199 41-36.1 59.8-18.5 25-39.2 48-65.801 64.9-1.899.1-3-.5-2.5-2.7 10.101-18.8 19-38.102 25-58.7 4.699-16 5.399-32.2 4.399-48.5-.399-7-.6-14-.899-20.899-.101-3-.101-6.301-3.601-7.5-3.399-1.199-5.7 1-7.8 3.199-5 5.4-9.9 10.801-14.801 16.301-16.5 18.801-31.5 38.899-49.399 56.301-10.601 10.199-21.899 19.5-34.8 26.699-1.9 1.101-3.5 3.101-6.9 2.199 1.4-3 2.7-5.898 4.1-8.8 11.2-22.3 21.302-45.1 28.5-69.2 7.2-23.8 6.9-48 6.7-72.3 0-3-.1-6.3-3.899-7.3-3.399-.9-5.699 1-7.699 3.5-8.9 11.6-17.9 23.2-26.7 34.898-14 18.7-27.8 37.4-41.7 56.2-19.898 26.9-43.8 50.102-68.699 72.4-2.199 1.899-3.699 4.7-7.101 5.8-1.399-4.5 1-8.5 1-12.7.101-24 2.601-48-1.7-71.8-.198-1.3-.198-2.7-.5-4-.8-2.8-.698-6.3-4.198-7.4-3.9-1.3-6.302 1.4-8.2 4.2-22 31.5-49 58.9-73 88.7-13.4 16.6-27.2 32.9-41.3 48.8-.9 1-1.601 2.2-4.101 2.3-8.101-12.1-16.5-24.8-25.101-37.3-2.2-3.2-3.399-7.3-7.5-9.1-5.8-5.3.075-8.726 2.676-10.226 19.3-11.301 37.224-23.676 55.425-36.476 39.399-27.7 74.699-60 106.101-96.5 1-1.2-2.151 4.841-1.853 2.142-6.6 4-5.647 2.76-10.049 7.56-50.3 54.3-107.8 99-174.398 131.6-10.2 5-20.7 9.3-31.2 13.3-3.3 1.302-14.875 4.726-17.774 1.625-3.5-3.8 6.982-13.674 9.182-16.674 24.102-34 40.494-65.4 61.693-101.201 2.2-3.699 4.7-11.05 5.6-15.35 1.7-8.3 3.601-7.6-4.801-5.8-4 .899-7.398 3-10.898 4.899-27.5 14.899-53.602 32.399-81.7 46.301-1.5.699-2.9 1.6-4.4 2.3-2.1 1-4.6 2.5-6.5.8-2.698-2.3-.5-5 .802-7.1 7.398-11.5 16-22.102 23.1-33.801 15.8-25.899 28.199-55.838 42.898-82.338 1.992-3.104 9.518-25.316 15.519-24.915zM1013.6 741.5c11.9-14.6 24-29.1 32.3-46.398-2.7-1.102-4.6-.602-6.6-.3-30.8 4.698-61.7 4.8-92.602 1.3-4.898-.602-9.6-3-14.698-1.9 13.398 8.9 27.698 15.7 44 17.4 1.698.2 3.3.2 5 .5 1.8.3 3 1.398 3.3 3.2.3 1.8-.3 3.398-1.9 4.3-1.7.898-3.6 1.7-5.5 2.3-31.8 10-52.2 31.9-64.899 62-.699 1.7-2.301 3.5 0 5.7 24.5-10.102 49.601-18.8 73.699-30.2 2.7-1.3 5.4-2.7 8.301-3.3 5.899-1.3 8.801 2.1 7.199 8-1.398 4.898-4.3 9-7 13.2-11.6 18-21.1 37-28.8 57-3.6 9.198-5.8 18.698-7.1 28.6 3.898.2 5.7-2.1 7.898-3.5 12.802-7.8 25.5-15.7 38.302-23.5 3-1.8 6.3-4.6 10.1-2.2 4.1 2.7 3.3 6.7 2.5 10.801-1.8 8.801-2.9 17.801-3 26.699-.1 20.4-7.1 38.301-18.6 54.9-10.9 15.8-24.802 28.7-38.9 41.398-1.6 1.4-4.4 2.2-3.4 5.602 25.602-.602 46.602-11.602 64.9-28.8 24.5-16.802 46.7-36.5 70.9-57-3.2 20.398-6.7 38.3-10.102 56.198-.898 4.802-3.699 11.2 1.4 13.802 5.1 2.698 8.6-3.602 12-6.9 9.6-9.399 19.898-17.6 32-23.6 5.398-2.7 7.398-1.102 6.699 4.698-.801 6.302-2.199 12.5-1.801 18.802.301 3.6-.5 8 3.4 9.8 4.5 2.2 7.5-1.5 10.199-4.3 9.801-10.102 21-18.4 33.199-25.302 8-4.5 8.9-4.1 9.102 4.9.199 9.3.199 18.6-1.4 27.9-.699 4-.4 8.3 3.801 10.5 3.601 2 7.101.1 10.301-1.7 1.199-.6 2.199-1.4 3.3-2.2 15.5-11.5 30.7-23.4 48.2-31.8 4-1.9 6-4.9 5.699-9.5-.199-2.9-.899-6 .801-8.8 1.5-9.3 1.199-18.9 4-28 2.898-4.4 3.949-11.676 6.449-16.176l-.125-2.25c2.7-5.601 1.426-7.852-1.375-7.25-5.199 1.199-17.65 6.452-22.451 8.752-16.5 7.601-29.498 11.357-49.299 14.457 18.601-29.198 34.199-48.534 51.199-76.234 9.9-16.2 17.27-34.718 26.869-51.118 1.898-3.2 4.932-9.483 4.031-8.583-3.4-3.3-7.5-.3-11.1 1.3-3.602 1.602-7.102 3.602-10.602 5.5-17.1 9.7-33.473 14.166-50.671 23.766-20 11.2-22.679 13.909-44.979 23.409 40.5-46.398 51.149-84.573 78.949-137.375 1.602-3.1 13.275-18.6 10.676-22.398-2.1.6-12.176 14.8-13.476 16.2-9 10.6-17.7 21.5-27.2 31.698-33.199 35.802-69 68.9-104.8 102-.8.302-1.399 1.5-2.3.602-.7-.7-.301-1.7.1-2.602 10-16.698 21.602-32.6 24-53.1-19.199 13.1-37.199 27.5-59.1 36.3 8.9-17.7 18.199-34.898 24.9-53.8-5.701.1-10 1.9-14.4 3.2-18.801 5.5-37.5 11.7-56.7 15.8-2.493 1.002-5.493 2.502-4.793-2.398z"/><path id="sd2" fill="#555D61" d="M1018.198 944.5c1.4-5.6 6.9-6.898 10.601-10.1 19.701-16.7 39.701-33.1 59.5-49.6.701-.602 1.5-1.4 3.701-.5-2.201 24-8.802 47.7-11.201 72.3 16-14.3 30.601-29.9 52.5-35.6 2.801 13.1-4 25.5.201 39.698 16.198-15.8 32.299-29.8 52.1-38 3.199 1.602 2.5 4.2 2.4 6.4-.4 11.6 1.5 23.3-1.802 34.7-.399 1.5-.198 3.3 0 5 .4 3.3 2.101 4.5 5.5 3.5 2.7-.7 4.7-2.2 6.9-3.8 16-11.9 31.5-24.5 49.8-32.7 3.7-1.7 5.9-4 5.602-8.3-.201-2.602-.5-5.4 1.799-7.4 0 16.6-2 33.1-2 49.7 0 19.6-.5 39.2.101 58.8.101 2.5 1 5.2-1.3 8.2-4.6-3.4-8.301-7.5-11.9-11.7-5.5-6.2-10.8-12.6-16.199-18.9-2.199-2.6-4.601-5.3-8.399-3.198-3.3 1.8-3.7 4.898-3.5 8.6 1.8 21.899 6.3 43.3 12.2 64.399.5 1.899.8 3.899 1.3 5.801.8 2.398 1.399 4.699-2.5 4.5-10.4-9.5-18.8-20.7-27.3-31.7-6-7.8-7.302-16.899-6.2-26.5.399-3.3.5-6.6.399-9.899-.101-2.399-1.399-4.601-4.101-5-2.7-.399-4.399 1.5-5.5 3.601-.899 1.8-1.2 3.8-1.601 5.7-3.199 15.6-6.399 31.199-9.601 46.898-.1.601 0 1.4-.198 2-8.802 23.101-11.302 47.801-17.802 71.601-.3 1-.5 1.899-2.198 2.399-2.5-.3-2.7-3-3.4-5-5.2-14.699-10.2-29.5-15.4-44.3-1.1-3.101-1.5-6.7-5.6-7.5-4.6-.899-6.4 2.5-8.7 5.399-11.7 15.301-22.3 31.5-34.7 46.301-1 1.199-1.8 2.8-4.6 3.3-4.9-11.3-7.8-23.5-11.3-35.5-5.7-19.8-4.3-40.3-4.3-60.5.1-13 1.398-25.899 2.1-38.899.199-3.199.8-6.801-2.9-8.899-3.6-2-6.398 0-9.199 1.899-9.601 6.399-19.199 12.899-29.899 20.101.899-10.9 3.6-20.101 5.899-29.4 2.801-11 5.699-21.899 9-32.699 1.5-4.899 1.5-9.899 2.301-14.801.5-3-.301-6.1-3.301-7.8-2.699-1.6-5 0-7.399 1.4-3.202 1.8-5.904 4.898-9.904 5.998z"/><path fill="none" stroke="#000" stroke-miterlimit="10" stroke-width="6" d="M1477 243.6s-101.5 61.398-126.4 93.898c0 0-13.1 8.102-12.301-16.5.801-24.6-6.699-74.1-6.699-74.1s-36.6 76.7-43.5 83.3c-6.9 6.602-51-46.3-51-46.3v27l-69-19.8 36.8 59.1-86.8-8.8 11.4 26.3s-29.9-5.7-85-42.7c-12.5-14 47.898 96.501 67.698 115.001-15.198 20-122.2 5.5-132.2 0s24 52 91.502 65.5c6.5 10.5-12.9 6.899-35.4 18.199C1013.6 535 965.6 589.5 965.6 589.5l70.5-17.101s9.9.5 5 3.601c-3.7 8.5-54.3 67.899-59.1 69.399-4.802 1.5 46.898-8.2 46.898-8.2s14.5 4 5 9.301-46.398 26.199-49.3 27.199-69.7 9.801-73.8 9c-5.2-.898 32 27.7 69.898 30.801 0 0 8 2.399-8.1 9.801-16.1 7.398-51.7 26.8-60.6 60.5C898 797.5 948 778 961 773s32.8-17 32.8-17 18.8-3.198 4.7 13.9C984.4 787.002 955 841 956 864.5c12 .5 52.3-31 52.3-31s8.7-4.5 5.2 13-1 40-7.5 53.5c-10.5 26.102-34.2 52.2-49.4 67.602C941.4 983 1011 961.7 1018.1 948c2.3-4.398 26.8-21.898 19.9 4.602-6.9 26.5-15.102 66.5-16.2 69-1.102 2.5 31.2-20.9 31.2-20.9s14.1-9.699 10.5 13.9c-3.602 23.6-8.5 89.3 13.1 130.6 9 1.602 40.699-49.1 40.699-49.1s9.301-18.2 14.301 1.899c5 20.101 11.699 50.101 16 49.399 4.3-.701 33.1-108.199 32.3-116 2-20.7 11.3-20 9-5.699s-1.2 23.801 4.2 27.699c5.398 3.9 31.1 34.7 32.1 35 1 .301-11.3-76-9.699-82 3-7.3 29.101 18.801 35.899 29.4 6.8 10.6 4.101-150.5 10.3-157.8 10.4-9.2 36.801 31 39.5 40.5 2.7 9.5 113.5-132.2 120.801-139.302 13.899-13.8 16.301 55.5 12.101 90.2-11.5 34.7 135.601-146.8 145.101-162.7 0 0 11.601-15.898 11.101 9.602s-2.4 73.3-41.2 142.5c19.3 8.8 92.9-87 106-98 4-5.602 12.5-12.5 13.3 6-2 15.5 4.7 30-2.3 49.3-4.7 23.5-22.3 68-28.8 74.5s26.1-9.399 33.3-19.3 33.3-26.3 87.8-129.102c3.101-4.898 16.2-24.398 19.8 4.4 3.602 28.8 3.802 93.5-4 104-7.8 10.5 28.5-14.5 66-106 0 0 10.4-18 14.7 12.4 4.3 30.398-8 133.898-21.7 157.6 13.5 3.8 46.302-78 47.802-87 0 0 5.5-17.1 10.8 9.3 5.3 26.4 51.6 52.602 53.8 53.8 2.2 1.2-30.6-89.198-29-97.698 1.601-8.5 40.4 8.5 43.601 11.898 3.199 3.4-29.301-58.3-30.801-60.1s9.9-16 38.301.3c28.399 16.3-31.601-62.6-35.301-67-3.699-4.4-.3-13 51.301 7.3 33 14-34.301-53.8-38-56.5-10.5-3.5 33.5-23.8 41.301-26.8 7.8-3-42.7-14.6-44.801-14s5.5-15.5 53.199-30.7c15.801-3.1-81-21.6-82.1-24-2.1-12.8 65.7-18.8 77.4-18.6 11.699.2-165.801-52-168.801-57.601s60.101-14.899 103.699-13c43.6 1.899-79.9-31.101-83.4-35.899 12.302-1.5 67.802-20.5 67.302-33.301-83.302 25.801-81.5 9.801-132.101 13.199 0 0-17.199-5.898 2.601-13.898s31.5-12.301 44.198-13.2c12.7-.9 28.102-.7 28.2-3.9.101-3.199-81.2-22-97.3-22.8s-40.9-5.7-43.9-6.3c-3-.601-6.398-5.9 12.102-16.2s50.898-33.8 53.199-36.8-34.801-2.5-62.5 11.3-48.801 26.7-52.5 28c-13.301 1.5 3-46.8 2.301-65.6 0 0 3.699-8.7 1-7.9-2.7.8-78 52.3-88.102 54.101-7 2 7-30.801 5.9-34.801s-117.8 43.102-125 47.102c-9.104-1.499 24.196-60.499 19.396-63.7h0z"/><path fill="none" stroke="#000" stroke-miterlimit="10" stroke-width="6" d="M1253.838 639.887S1181 781.999 1159 806.499c0 0 104.021-53.657 115.511-59.328 11.489-5.672-43.335 91.903-80.308 142.164 0 0 119.096-17.034 239.695-158.935"/></svg>