<svg xmlns="http://www.w3.org/2000/svg" id="hair" viewBox="0 0 3000 3000"><path id="cl1" fill="#463022" fill-rule="evenodd" d="M1075.9 387.9c14.5-10.7 30.7-17.1 48.3-19.9 17.7-2.8 35.5-5.3 53.2-8.2 11.6-1.9 23.2-1.5 34.7.4 28.1-2.5 47.7 18 68.8 24.3-3.2-2.2-7.4-8.4-12.3-13.8-19.9-21.3-42.5-38.9-67.7-53.5-3.5-2-6.9-4.1-9.8-6.8-2.4-2.3-3.9-5 .8-6.6 1.4.2 2.8.3 4.2.4 1.9 1.3 4.4.2 6.3 1.5 40.5 5.9 80.8 12.5 118.5 29.7 4.7 2.2 9.6 5 15.2 2.6 2.7-4.3 6.2-4.9 10.5-2.3 7.7 4.6 15.2 9.5 21.7 15.8.8 1.2-1.4 1.1-.3.3.3-.3.4-.5.1-.8-7.9-5.9-12.6-14.7-19.1-21.8-10.6-11.5-21.5-22.6-33.8-32.4-2.2-1.7-5.5-3.7-3.9-7.2 1.3-2.6 4.1-3.2 6.9-1.9 8.2 1.4 16.5 2.6 24.6 4.4 29 6.4 57.4 14.9 85.7 23.8 9.5 3 18.7 7 27.7 11.3 3 1.4 6.1 2.9 9.3 3.5 5 1 7.8-2.2 6.1-7.1-1-2.8-2.7-5.4-4.4-7.8-7.1-9.7-14.8-18.9-23.9-26.8-5.3-4.6-10.5-9.2-15.9-13.9 2.4-2.6 4.6-.9 6.5-.3 5.1 1.5 10.2 3 15.2 4.9 23.5 8.7 47.7 15 72.1 20.2 21.3 4.5 41.9 10.9 61.3 20.9 11.3 5.8 22.3 11.9 31.2 21.3 5.3 5.6 6.4 5.3 13.9 1.8 2.4-5.2 6-6.9 10.7-2.9 12.1 10.2 24.1 20.4 33.3 29.6-16.8-34.6-41.7-67.7-59.7-104.7v-.1c-1.8-2.7-1.7-4.3 2.1-4.2.6.3 1.3.7 1.9 1 .7.3 1.2.8 1.7 1.5 21.6 12.6 43.1 25.3 64.7 37.8 23.7 13.7 42.6 31.6 53.3 57.5 3.5 8.5 5.1 8.6 12.4 4.9 5.7-4.1 5.7-4.1 9.5 5-7.7-20-10.1-41.7-19.9-61l.1.1c-1-1.2-.7-3.1-2-4.1v.1c-1.1-1.2-.7-3-2.1-4.1-1-1.3-2-2.7-1.7-5 2.8-1.2 4.7 1 6.6 2.4 17.5 12.1 31.2 27.9 43.3 45.2 10.4 14.7 19.4 30.2 28.1 46 1.4 2.6 2.8 5.3 4.5 7.8 3.8 5.5 5.3 5.7 11.6 2.6 18.8-9.3 37.6-18.6 56.4-27.8 3.2-1.5 6.1-4.1 10.6-3 .6 4-2 6.9-3.6 9.9-8.4 16.6-17.1 33.1-25.6 49.7-1.2 2.4-2.6 4.7-3.5 7.2-2.2 6-.5 9.1 6 9.2 38.1.7 65.3 21.7 89.9 47.6 2 7.9-3.7 7.4-8.2 6.9-9.6-1-19.2-2.1-28.7-3.5-18.9-2.8-37.8-2.1-56.8-2.1-5.8 0-11.6-.2-15.3-1.2 10.5 1 21.6 6.8 33.3 10.8 5.1 1.8 7.5 6.2 11 9.5 18.9 15.1 36.5 31.5 53.4 48.9 9.2 9.5 18.2 19.2 27.4 28.7 1.7 7.2-2.4 7.3-7.2 5.5-15.3-5.8-30.6-11.5-45.2-18.9-1.1-.9-.5 1.5-.4.2 0-.1.2-.1.6.1 13.1 6.8 25.8 14.3 38.4 22.1 2.1 1.3 5.6 2.4 4 5.8-1.3 2.7-4.1 3.1-6.9 1.8-.5 0-.9 0-1.3-.1-1.3.9-3.3.6-4.3 2.1-.4 4.1 1.8 6.9 4.6 9.4 6.5 5.7 11.6 12.7 16.7 19.6 9.5 12.8 19.6 25.1 31.9 35.3 1.2 1 2.7 2 2.8 4.1-2.4 2.4-5.4 1.2-8.2 1.2-26.3-6-47.7-22.9-72.1-33.1-1.1-.7 1-1.6.1-.6-.1.1.1.2.4.4 11 6.7 18.7 17 27.8 25.8 3.8 3.7-.8 8.1 1.8 11.6 9.4 19.2 26.4 30.9 42.9 43.1-1.4 3.8-4.4 2.8-6.8 3.2-36.2-.5-61.1-21.9-85.3-47.1-2.9 7.2-1.2 12.9-.7 18.6.5 5.4 2.8 11-1.6 16-6 3.5-7-1.9-8.6-5.2-9-18.6-17.6-37.4-28.2-55.1-5.8-9.7-14.4-17.3-19.2-27.6 1.1 2.7 2.6 5.2 2.4 8.3-.2 4.6 1.9 11.1-2.2 13.1-4.7 2.2-10.4-1.5-14.3-5-11.6-10.2-23.6-20.2-33.3-31.1-1.6-1.6-1.8.6-.9-.3.8-.8.5.3.9.6 14 12.2 22.8 28.3 32.7 43.6 3.2-11.1 6.4-13.2 14-5.8 9.4 9.1 19.9 17.5 26.1 29.6-2.9 4-2.5 7.8-2.2 12.8 1.7 28.2 7.2 56.7-2.9 84.5-1.5 4-3.7 7.6-7.6 8.1-3.9.4-5.3-3.8-6.8-7.1-12.2-28.8-23.8-58-41.2-84.2-2.6-4-4-10.7-9.8-10-5.8.8-5.3 7.7-7.1 12.1-2.4 6.2-3.9 12.8-6.8 18.8-1.3 2.7-2.1 6-6.4 6-4.4 0-6.3-2.7-7.5-6-6.6-16.7-18.1-30.2-29.2-43.9-13.1-16.2-29.8-28.5-45.3-42.1-2.4-2.1-7.3-3.4-4.2-8.5 5.3-6.8-2.3-12.5-1.9-19 .2-3.5-2.6-7.4 1.9-9.8 4.1-2.1 6.4 1.4 8.9 3.8 9.4 9.2 19.2 18.2 26.2 29.6-19.3-26.2-38.4-52.6-50.7-83l.4.4c3 9 8.5 16.9 11.4 25.8 1.5 4.6 3 9.3-2 12-4.8 2.6-6.6-2.1-9.4-5.2-6.6-7.4-11.9-15.7-17.5-23.5l.1.2c6.4 8.5 12.6 17.1 18.9 25.5 9.1 12.1 14.2 26.2 14.8 41.6-12.8 12.7-28 22.2-43.5 31.2-5.1 3-10.9 2.1-16.5.8-11.7-2.7-23.2-5.9-34.8-8.5-11.2-2.5-14.8-.9-19.8 9.7-17.9 38.2-31.3 77.6-32.4 120.3 0 1-.3 1.9-.9 2.8-.1 1.3-.2 2.5-.2 3.8-1.1 1.2-1.3 4-3.9 2.1-7.5-19.3-13-39.1-16.7-59.5-.9-4.9-1.1-9.9-1-14.9.1-5 .2-10 .1-15-.1-3.6.3-7.9-3.9-9.5-4.8-1.9-7.5 2-9.6 5.3-12.1 18.3-23.6 37.1-34.2 56.3-5.9 10.7-11.2 21.8-16.8 32.8-3.1-1.5-2.1-4.2-2.3-6.2-1.4-16.9-2.7-33.8-4-50.7-.1-1.3 0-2.7-.3-4-1.3-6.1-5.1-7.7-10-4-1.3 1-2.5 2.2-3.5 3.5-21.4 26.4-46 49.9-67.7 76.1-8.9 2.4-6.9-3.9-5.7-8 4.4-15 9.4-29.9 14.8-44.6 4.7-12.7 10.9-24.8 14.7-37.9-11.1 10.3-19.8 22.4-28.3 34.7-5.7 8.2-12.1 16-17.1 24.6-7.9 13.6-22.7 20.8-30.9 34.1-1.2 2-3.7 4.2-7.1 2.3-3.2-1.8-3.1-4.2-2.2-7 6.6-20.9 13-41.8 19.8-60.7-18.4 21.9-34 48-47.6 75.3-4 8.1-8.2 16-13.7 23.2-2.5 3.3-4.9 7.7-9.6 5.6-4.8-2.1-4-7-3.3-11.4 2.2-14.1 5.1-28.2 5.6-42.6 0-1.3.6-2.6-1.3-4.1-14.4 19.1-24.9 40-32.9 62.3-3.1 8.8-5.3 17.9-9.7 26.2-1.6 2.9-3.1 6.4-7.2 5.8-4.7-.7-5.1-4.8-5.2-8.5-.6-14.7 2.4-29.2 2.5-43.8 0-3.2 1.7-6.5-.6-10.2-4.5.5-6.1 4.5-8.2 7.6-12 18.1-21.9 37.3-29.9 57.5-2.3 5.7-3.1 14.9-12 13.4-8.6-1.5-4.9-10.1-6-15.8-2-10.5-1.3-21.3-3.3-31.8-1.3-7 1.5-13.3 2-18.4-16.6 17.8-28.5 40.2-36.8 64.8-2.5 7.6-7.7 4.9-12.6 3-2.2-4.1-1.4-8.4-.4-12.6 10.6-43.1 24.8-84.9 48.2-123.6-9.2 9.8-17.4 19.7-25.7 29.6-2.3 2.7-5.1 5.9-8.9 4.5-4.5-1.6-4.7-6.2-4.2-10.2.9-8.1 4.2-15.6 6.9-22.8-4.9 8.2-10.5 16.3-16.1 24.4-10.7 15.4-19.3 31.8-26.4 49.2-1.4 3.4-1.4 9.7-8.3 6.6-6.1-2.5-4.1-7.5-3.6-11.9 1.7-14.1 4.5-28 4.9-42.1-4.3-1.4-5.3 1.8-7 3.5-8.9 8.9-17.4 18.3-27.6 25.8-1.9 1.4-3.5 3-5.7 4-3.3 1.5-6.7 3.3-10.2.6-3.6-2.8-2.6-6.4-1.3-9.9 4.7-12.5 8.1-25.3 11.3-38.2.7-3 3.1-7-.5-9.1-2.9-1.6-5.2 2.1-7.5 3.8-11.7 8.4-11.7 8.4-14.1-7.5-.7-.6-1.4-1.2-2.1-1.9-4-3.4-5.2-7.4-3.8-12.6 3.1-11.5 6.1-22.9 10.6-34.9-6.8 1.8-12.2 5.5-18 8.2-4.4 2-8.9 3.1-6.6-4.7 4.1-3.4 8.1-6.8 12.2-10.2.5-.7 1-1.4 1.5-2.2v-1.5c-5.3-8.3.6-12.6 6.4-17.4-15.9.4-30.6 4.5-44.7 10.5-7.3 3.1-14.5 6.6-21.8 9.9-6.7 3-7.8 1-5.7-5.2 4.4-7.9 10.3-14.7 16.1-21.5 15.8-18.5 33-35.7 51.7-51.1 10.5-8.7 21.2-17.2 34.7-21.1 1-.3 1.9-.7 2.8-1.2 1.8-1 3.4-2.3 3.4-4.5 0-2.3-1.5-3.7-3.5-4.4-2.8-.9-5.7-1.7-8.7-2.2-24.6-4-49-9.2-73.9-11.4-2.3-.2-4.7 0-6.7-1.7-.9-2.7 1.4-3.5 3-4.5 13.9-8.5 27.8-17 41.8-25.3 13-7.6 26.8-11.5 42-9 6.2 1 12.6 1.2 18.9 1.8 1.9-1.5 4.6.1 6.4-1.9h-.1c5-4.1 10.6-2.6 16.2-1.8 2.5.4 5.9 1.4 7.1-1.6 1.2-3-1.9-4.6-3.8-6.3-14.9-12.3-30.5-23.8-42.6-39.2-6.8-8.6-13.7-17-21-25.1-1.5-1.9-3-3.9-4.4-5.8-.4-2.3.6-3.3 2.9-2.9 19.7 11.5 40.6 19.8 63.2 23.5 2.9.5 5.9.8 8.9.8 2.4 0 4.7-.7 5.6-3.3.7-2.2-.4-3.9-1.8-5.4-5-5.3-10.2-10.5-15.2-15.8-1.4-1.4-3-2.7-3.3-4.9 1.2-3 3.8-2.1 5.9-1.9 5.6.4 11.2 1 16.9 1.5 14.7 1.5 29.2.3 43.6-2.4 4.6-.8 9.2-1.1 13.8-1.7 9.1.8 15.8-4.4 22.5-9.2 8.9-6.2 8.6-15.2-.5-21-5.4-3.5-11.6-5-17.8-6.3-16.5-3.3-33.2-5.1-49.8-7.2-9.8-1.2-19.6-3-29.5-4.1-2.1-.4-6.7 1.1-4.8-4.3z" clip-rule="evenodd"/><path id="sd1" fill="#332319" fill-rule="evenodd" d="M1785.7 506.1c6.2 1.5 9.7 4.9 12.6 8.2 22.4 26.1 47 49.9 71.1 74.4.7.7 1.4 1.5.5 3.4-20.5-12.8-41.4-24.8-61.7-39.4-1.5 6.4 4.1 10.4 3.6 16.1-3.9-.5-6.3-3-8.6-5.1-13-12.5-27.9-22.6-42.9-32.5-2.1-1.4-5.5-2.6-4.8-5.7.9-3.8 4.7-3.1 7.5-2.9 7.8.6 14.5 4.5 21.5 7.7 3.4 1.5 7.5 5.9 10.7 2.5 3.3-3.4-1.4-7.1-3-10.6-2.2-4.9-5.5-9.2-6.5-16.1zM1136 600c-9.9 7.1-20 13.8-27.7 23.8-12.9 16.9-25 34.2-36.7 51.9-1.4 2.1-3.7 3.9-2.8 7 9.1-3.3 21.5-12.9 26.6-20.7 11-16.9 24.6-31.9 36.5-48.1 1.4-4.6 2.7-9.3 4.1-13.9zm-9.9 44c-.7.7-1.5 1.3-2.2 1.9-.6.1-1.3.3-1.9.4-.7.5-1.3 1-1.8 1.7v.1c1.3.6 2.6 1.3 3.9 1.9-11.2 17.7-23.1 35.1-27.5 56.3 6.3-6 9.6-14.1 15.7-20.1h-.1c.5-.8 1.2-1.4 1.9-2.1 5.6-8.2 11.2-16.3 16.7-24.6 5.5-8.4 13.1-15.2 18.9-25.5-9.8.2-15.2 5.6-21.6 8.5-.9.3-1.5.9-2 1.5zm418-63.1l11.1-9.9c15.7-14.1 31.5-28.2 47.1-42.5 2.5-2.3 5.7-4.3 6.2-8.3-1.1-.3-1.8-.8-2.3-.6-4 1.4-8.1 3-12.1 4.5-21.1 19-40.2 40-58.4 61.8 3.8-.2 5.9-2.8 8.4-5zM1558 542c7.4-4.4 13.6-10.4 20-16.1 3.2-7.3 9-12.9 13.1-19.6 1.5-2.4 4-5 1.8-8-1.9-2.5-4.8-1.4-7.3-.9-.6.1-1.3.3-1.9.5-6.3 10.4-12.6 20.7-18.9 31.1-2.7 4.1-5.6 8.1-6.8 13zm-58 38c6.6-2.7 11.5-7.7 16.8-12.1 6.9-5.7 13.7-11.4 21.5-15.8 2.9-2.6 5.7-5.3 6.1-9.9-12.8 7.7-25.2 15.9-36.6 25.4-2.5 4.2-6.2 7.6-7.8 12.4zm-395.9 304.1c4.7-1.4 6.6-5.2 8-9.4 8.3-24.3 21.7-45.6 39-64.5 1.7-1.9 3-4.5 7.7-4.4-6.7 23.8-2.4 47.1.4 71.5 5.5-2.8 6-7 7.4-10.5 9.9-24.5 22.2-47.7 38.3-68.7 2.1-2.8 3.8-7.8 7.8-6.6 4.8 1.4 3.2 6.8 3 10.5-.8 14.6-2 29.2-3.1 43.8-.3 4.5-1.6 9 .8 14.4 4.3-4.3 5.2-9.3 6.6-13.9 7.3-23.3 17.2-45.4 30.6-65.9 3.8-5.9 7.7-11.7 12.7-16.7 1.2-1.2 2.5-2.4 4.3-1.7 1.8.7 2.1 2.6 2 4.2-1 11.6-2 23.2-3.3 34.8-.9 7.5-2.2 15-2.5 22.9 5.5-3.6 8.3-9 11.2-14.3 6.5-12 12.7-24.2 19.3-36.1 10.5-19 22.9-36.7 37.1-53.2 2.1-2.4 3.7-5.7 9.1-5.3-1.6 13.2-7.9 24.8-11.1 37.1-3.2 12.4-8.4 24.2-11.7 37.3 5.5-.5 6.8-3.9 8.9-6.3 17.3-19.9 31.5-42.1 46.9-63.5 8-11.1 17.3-21.1 26.1-31.5 1.5-1.7 3.1-4.1 5.8-2.9 3.1 1.4 2.3 4.6 1.6 7.1-1.1 4.2-2.6 8.3-4.3 12.2-10.4 23.5-19.6 47.4-27.2 71.9-1.4 4.4-3.2 8.8-1.4 13.6-8.2 11.7-16.4 23.5-24.7 35.1-.3.4-1.2.3-2.2.6-2.1-3.6-1.2-7.7-1.2-11.5 0-8.7-.8-17.3-2.7-25.8-.7-3.3-1.8-6.7-5.8-7.3-3.5-.5-5.5 2-7.2 4.6-21 31.7-41.9 63.5-54.8 99.6-2.4 6.8-3.9 13.8-6.2 22.3-5.3-6.5-7.1-12.8-9.5-18.9-1.5-3.8-1.8-9.3-7.6-9.1-5.3.2-6.6 5.1-8.2 9-6.4 15.6-8.6 32.2-9.5 48.8-1 18.3-3.5 36.5-3.2 54.9.1 5.6-2 6.6-6.6 3.2-7.8-5.7-15.3-11.8-22.2-18.6-1.4-1.4-2.8-2.9-4.2-4.3-2.9-2.7-5.6-6.3-10.2-4.7-4.5 1.6-5.1 5.8-5.5 9.8-2.8 29.3-3.6 58.6 5.2 87.2.3.9.2 2 .3 3-2.7 2.1-4.5-.2-6.1-1.5-11.9-9.5-25.6-16.9-34.2-30.3-3-4.7-7.6-4.9-12.2-1.7-3.9 2.7-6.4 6.7-8.8 10.8-5.7 9.8-11.2 19.7-17 29.4-4.1 6.7-5.9 7-11.5 1.8-9.3-8.6-17.8-18-24.4-28.9-3.9-6.5-6-13.3-5.1-20.9.2-1.7.4-3.3.4-5-.1-8.2-3.4-10.9-11.5-8.5-10.8 3.2-21.4 7.4-32.3 10.7-10.2 3.1-20.5 5.8-30.9 8.4-3.4.9-7 2.4-10.6.3-1.2-2.9 1-4.5 2.3-6.2 3.3-4.2 6.6-8.3 10.1-12.4 16.7-19.4 28.2-42 38.8-65 3.2-7 .1-11.2-7.5-10.4-3.6.4-7.2 1.5-10.7 2.4-14.3 3.6-28.7 4.6-43.6 3.8-18.7-.9-37.1-3.3-55.7-5.3-1.9-.2-4 0-6-2.1.7-3.7 4.4-4.3 7.1-5.6 24-11.3 45.4-26.5 66.3-42.6 2.9-2.2 5.8-4.6 7.9-7.5 3.3-4.4 1.6-8.7-3.9-9.5-4.2-.6-8.7-.4-12.9.1-25.9 2.9-51.9 1.5-77.9.6-6.3-.2-12.6-.6-19-1-2.6-.1-5.3.3-7.4-1.7.5-3.9 3.7-4.7 6.1-6.3 13-8.7 26.1-17.3 39.2-25.9 19.8-13.1 37.7-28.5 54.5-45.3 8.7-8.7 16.7-18.1 26.5-25.8 5.5-4.3 9-9.8 8-17.3 4.4 8.1 4.5 8.2 11.2 3 3.7-2.8 7-6.1 10.8-8.9 2.3-1.7 4.7-4.9 7.8-2.6 2.8 2 1.3 5.6.7 8.4-1.1 5.5-2.2 11.1-3.7 16.5-3.1 11.2-6.6 22.3-9.9 33.4-.5 1.8-1.8 4.1.3 5.5 2 1.3 3.8-.3 5.4-1.5 11.5-8.5 21.7-18.5 31-29.4 2.4-2.8 4.7-5.6 7.3-8.1 1.8-1.8 3.7-4.6 6.7-2.8 2.7 1.6 2 4.7 1.7 7.3-.7 6.3-1.5 12.5-2.3 18.8-1.7 12.8-3.4 25.7-5.1 38.5 6.5 2.4 1.6 6.5 1.6 8.5 9.1-14.3 21.3-27 37.4-35.4 6.1-3.2 10-.1 9.8 7.8-.3 9.2-3 18.1-5 27-2.9 12.6-5.6 25.3-7.8 38.1-1 2.9-2.7 5.6-1.7 9 .3 1.1.9 1.5 1.8 1.5zm447.2-120.4c6.3-23.5 12-47.1 21.9-69.5 5.7-12.8 12-25.3 19.9-36.9 2.8-4.1 6.1-6.8 11.6-6 15.7 2.4 29.7 8.2 39.7 20.9 11.7 14.9 11.7 10.6 20.3-.6 6.5-8.5 13.9-16.2 22.2-23 5.2-4.3 8-4.3 12.4-.5 16.1 14 31.4 28.8 44.5 45.8 12.6 16.3 19.9 34.3 22.1 54.8 2 18.5 5.3 36.9 8.4 55.3 1 6.2 3.5 6.8 7.7 2.4 5.7-6.1 11.1-12.4 16.7-18.6 2.8-3.1 5.1-7.8 10.2-6.8 5.7 1.1 5.7 6.7 7.2 11 .2.6.3 1.3.5 1.9 5.1 18.2 5.7 36.8 5.6 55.5 0 7.6-.6 15.5.9 22.9 5.6 28.1 8.6 56.6 12.8 84.9.4 2.5-.4 5.5 2.7 7.1 3.2-1.4 3.6-4.7 4.9-7.2 3.7-7.1 7-14.4 10.7-21.4 1.5-2.9 3.5-5.7 5.5-8.3 1.7-2.2 4.1-3.4 7-2.7 3.2.7 4 3.3 4.3 6.1.9 11 6 20.4 11.5 29.6 3.6 6 7.8 11.6 11.9 17.3 1.7 2.3 3.1 6.3 6.5 5.2 4-1.2 2.6-5.6 2.7-8.8.1-2.3-.2-4.7-.4-7-1.1-13.3-2.6-26.5-4.7-39.7-.7-4.4-3.2-9.7 1.1-13.2 4.9-4 9.3.7 13.7 2.5 5.1 2.1 9.5 6 15.3 5.8.4-1.2.8-1.9.7-2.4-.9-2.8-1.9-5.7-3-8.4-8.6-21.8-14.7-44.2-14.7-67.9 0-11.2 2.7-13.8 13.9-11.4 12 2.6 24 5.6 36 8.5 3.2.8 6.5 1.7 9.7 2.3 1.9.4 4.2 1.2 5.6-.7 1.4-2-.2-3.9-1.4-5.3-7.1-8.6-9.5-18.9-11.3-29.5-.8-4.6-1.8-9.2-2.1-13.8-1.4-21.1-11.6-37.9-25.5-52.9-1.1-1.2-2.4-2.3-3.5-3.6-5-5.8-3.8-9.6 3.8-10.8 6.6-1 13.3-.2 19.9.6 11.2 1.3 22.5 2.4 33.7-.8-4.4-1.6-8.6-3.5-13.1-4.9-17.3-5.5-33.2-13.5-47.2-25.4-7.4-6.3-14-13.3-21-20-1.9-1.8-3.8-3.8-5.9-5.4-2-1.5-3.9-.9-4.5 1.6-.5 2.3-.4 4.6-.5 6.9-.7 11 1.6 21.9 1.9 32.9-.8.5-1.5 1-2.2 1.5-.9 1.6-1.1 3.4-2 5-1.4 2 .2 3.3.9 5 5 9.1 6.8 19.5 10.1 26.3-3.9-11.7-9.2-25.7-16.4-39-1.3-2.3-3.1-4.9-2.7-7.4 1.6-8.2-3.9-12.9-8.1-18.2-3-2.8-5.5-6.2-9-8.6-1.1-.2-2.1.1-3 .8l-1.5.6c-1 2.9-1.7 5.8-1.2 8.8 2.3 15.5.8 31.2 2.8 46.8 1.9 14.7-2.5 28.6-7.3 42.7-4.3-2.3-4.7-5.8-5.9-8.8-12.7-31.2-27.3-61.5-45.8-89.7-2.2-3.4-3.1-9.4-8.4-8.6-4.8.7-5.4 6.3-6.7 10.3-3.1 9.2-5.8 18.4-8.9 27.6-.7 2.1-1.1 5-4.1 4.8-2.3-.1-2.8-2.6-3.6-4.3-12.8-26.6-32.5-47.6-54.2-67.1-8.7-7.8-18.4-14.3-26.4-22.9v.1c-4.7-.7-8.4 1.5-12 4-8.2 5.7-16.6 11.1-24.5 17.1-8.4 6.4-17.2 7.6-27.3 4.6-12.1-3.5-24.5-6.4-36.7-9.4-9.6-2.4-12.3-1.2-16.3 8-6 13.7-11.9 27.5-17.3 41.4-11.3 29.1-19.1 58.9-13.8 90.6.6-3.4 1.7-6.9 2.7-10.4zM978.7 709c-21.3 18.9-38.7 40.9-53.3 65.2-.7 1.1-1.1 2.5.6 3.9 3.7-.5 7-2.8 10.5-4.5 14.5-7.4 29.1-14.5 44.2-20.5 7.4-3 14.9-5.6 23.1-4.9 1.9-19.2 8.4-37 16.5-56.3-9 1.7-15.6 5.1-22.3 8.2-3.8 1.7-7.3 4.8-11.9 4.1-2.4 1.5-5.2 2.8-7.4 4.8zm194.4-409.1c1.2 3.6 3.7 4.8 5.7 6.5 13.5 11.3 26.7 23 38.8 35.8 2.3 2.4 4.6 4.9 6.3 7.7 2.4 4 .9 7.2-3.8 8-3.2.5-6.6.3-9.9.4 7.6 2.5 15.7 2.8 22.7 7.2 16.2 10.1 33.8 17.3 51.3 24.6 2 .8 3.8 2.9 6.4 1.1-.7-3.9-3.6-6.4-5.8-9.2-22.3-27.8-48.6-51.1-79.5-69.1-5.5-3.2-11.1-6.1-15.3-11.1-5.5-1.5-10.9-3.9-16.9-1.9zm-103.4 89.6c0 2.6 2.7 2.3 4.5 2.7 1.3.3 2.6.3 3.9.5 18.1 2.7 35.6 7.4 53 12.9 10.2 3.2 19.7 7.8 27.6 15.2 8.8 8.3 8 12.5-3.1 16.3-.6.2-1.2.5-1.8.7 6.7.4 13.2 0 19.7-1.8 4.6-1.3 8.6-3.4 12-6.7 5.7-5.5 6.5-9.7 3.3-17-2.7-6.3-7.7-9.7-14-11.8-19.3-6.6-39.4-8.8-59.5-10.7-13.8-1.3-27.8-.7-41.4-4-1.9.8-4.3 1.4-4.2 3.7zm544.6-114.4c8.3 21.5 12.9 43.7 11.5 66.9 4.8-.8 8.3 1.6 11.6 4.6 6.9 6.2 13.7 12.6 20.8 18.5 5.7 4.7 10.6 10.5 18.3 14 1-6.9-2.2-11.8-4.5-16.7-12-26-28.2-49.5-43.7-73.5-5.5-8.6-10.4-17.8-18.2-24.8 1.5 3.6 2.8 7.3 4.2 11zm285.3 227.2c16.6.3 33.1 1.3 49.7 1.5 4.6.1 11.5 2.7 13.3-2.7 1.6-4.7-4.8-7.9-8.3-11.4-3.8 1.7-7.7 1.7-11.7 1-34.2-5.9-68.8-4.8-103.3-4.7-2.8 0-5.8-.7-9.5 2.3l59.9 21.7c1.8-7.1 2.3-7.9 9.9-7.7zm-618.1-219.9c1.7 2.7 4.4 4.1 6.7 5.9 13.6 10.6 27.1 21.4 39 34 3.7 3.9 7.3 7.8 6.9 13.8 3.7.5 7.1 1.7 10.3 3.7 6.7 4.4 13.3 8.9 20.1 13.1 2.7 1.7 4.9 4.5 8.8 4 .6-3.6-1.6-5.9-3.2-8.2-5.8-8.6-12-16.7-18.8-24.5-10.1-11.5-20.9-22.3-32.9-31.9-2.1-1.7-4.5-3.4-2-6.5-14.5-3.9-28.7-5.3-34.9-3.4zM1024 466.1c10.9 16.1 21.9 32.1 32.9 48.2 3.2 4.7 5.9 9.6 5.1 15.6 8.9 3.1 18.1 4.3 27.5 4 3.2-.1 7.6 1.1 9-2.5 1.8-4.4-3-6.1-5.6-8.3-23.4-19.2-46.7-38.5-67.4-60.7-2.3-2.4-5.1-4.3-7.6-6.4 1.9 3.4 3.9 6.9 6.1 10.1zm-93.6 231.3c2.6 3.6 6.7.2 10.1-.5 2.3-.4 4.4-1.3 6.7-2 12.4-3.7 25.1-6.5 37.9-8.4 5.4-.8 10.7-.9 14.7 3.7.8-4.1 3.1-7.2 6.3-9.8 3.6-2.9 7.1-5.9 10.5-9.1 2.4-2.3 1.8-4.2-1.4-4.8-4.3-.8-8.6-.3-12.9.3-20.9 2.8-40.8 8.5-58.7 20.1-2.9 1.9-6 4.8-9.7 1.2-2 2.8-6 5.8-3.5 9.3zm1058.4-91.7c-5.7-6.6-11.9-12.4-18.3-18-4.9 1.5-9.1-.8-13.4-2.5-13-5-25.7-11-39.2-14.6-3.2-.9-6.7-2.8-10.2-.4 1.3 4 4.7 5.2 7.3 7 10.6 7.5 22 13.8 33.1 20.4 2.4 1.4 7.1 1.7 5.7 6.7 16.1 3.5 28.1 4.1 35 1.4zm-22.1 68.1c9.7 1.1 19.4 3 29.3 2.1-25.9-16-52.1-31.4-82.1-39.6 1 2.3 2.8 3.6 4.3 5.1 12.2 12.7 26.3 23.5 35.8 38.6 2-6.6 7.1-6.8 12.7-6.2zm-227.5-355.4c4.4 14.3 7.7 28.7 7 43.7 6.5 3.5 7.3 12.2 13.6 16.4 2-3.9.5-6.7-.2-9.5-4.5-19.1-11.5-37.4-19.2-55.4-1.2-2.7-3.1-5.1-4.7-7.6 1.2 4.2 2.3 8.3 3.5 12.4zM1308 658c2-1.7 4.2-3.3 6.1-5.2 20.1-20.4 40.6-40.2 63.5-57.5 20.4-15.4 39-33.3 60.4-47.4 1.5-1 3.7-1.8 3.4-4.8-3.7-1.2-7.1.6-10.4 1.8-10 3.6-19.6 8.2-28.9 13.6-10.1 5.8-19.5 12.8-30.2 17.5 3.1-3.5 6.1-7.1 9.3-10.4 9.3-9.5 18.9-18.8 28.2-28.3 2.4-2.5 7.1-5.1 4.7-8.9-2.6-4.1-7.2-1.1-10.9 0-2.2.6-4.4 1.6-6.5 2.5-18.6 7.4-35.9 17.3-53.8 26.3-13.5 6.8-24.1 16.4-34 27.3-3.1 3.4-6 7.1-9 10.7-21 25.1-35.8 53.6-46 84.6-.3.9-.4 2-.5 1.9 8.8-8.2 16.9-16.1 25.4-23.5 13.6-11.7 26.9-23.9 43.1-32.1-3.2 11.1-10.6 20.6-13.9 31.9zm490.3-143.7c22.4 26.1 47 49.9 71.1 74.4m-800.6 94c9.1-3.3 21.5-12.9 26.6-20.7 11-16.9 24.6-31.9 36.5-48.1M1114 684c5.6-8.2 11.2-16.3 16.7-24.6 5.5-8.4 13.1-15.2 18.9-25.5m444.6-109.8c-21.1 19-40.2 40-58.4 61.8m42.1-60.1c3.2-7.3 9-12.9 13.1-19.6m-46.5 36c-12.8 7.7-25.2 15.9-36.6 25.4" clip-rule="evenodd"/><path id="hl1" fill="#664B38" fill-rule="evenodd" d="M1120.1 646.2c-5.5 2.8-10.1 7-15.1 10.6-2.9 2.1-5.7 4.5-9.7 3.3-4-2.7-2.1-5.9-.3-8.6 8.9-12.9 18.5-25.2 28.8-37 2.2-2.5 4.7-3.6 7.9-2.5 9.5-9.8 19-19.6 28.6-29.3 6.3-6.4 13.2-12 21.6-16.1-11 14.2-21.9 28.4-28 45.9 7.3-2.5 12.4-8.2 18.2-12.7 6.1-4.7 11.9-9.7 18-14.3 6-4.5 11.6-9.5 19.1-12.3-8.6 16-20.1 30.1-27.1 47.4 20.3-12.4 40.2-25.5 61-37.1 20.2-11.4 39.1-25.8 63.2-29.5-43.5 42.9-90.9 81.4-131 127.7 1-9.8 7.5-16.6 12.4-24.2 5.2-8.1 10.9-16 16.9-23.5 5.7-7.2 12.2-13.9 19.1-21.7-5.9-1.3-9.2 1.7-12.5 3.9-16.4 10.8-32.7 21.8-49 32.8-14.1 9.5-27 20.6-39.9 31.6-2.8 2.4-5.3 6.6-10.2 3.8-.1-.4-.3-.9-.4-1.3-.4-.8-.9-1.6-1.3-2.3 7.1-15.2 17.1-28.5 26.7-39.7-.5.3-2.6 1.9-4.9 3.1-.7.4-1.5.8-2.2 1.1-.7.2-1.5.4-2.3.4-.7.1-1.5.3-2.2.5-.7.1-1.5.1-2.2.1h-2.2c-.2-.1-.6-.1-1-.1zM1221.2 456c-12 5.8-24 11.6-35.9 17.4-10.2 5-20.4 9.8-29.8 16.1-1.7 1.1-4.5 1.9-3.3 5.1 14.7-.8 160.5-37.7 167.7-42.7-11.1-5.6-23.8-4.8-35.4-9.1 4.5-4.9 11.7-4 15.7-10.2-16.5-1.4-31 4.7-48.4 6.3 10.4-8.5 21.3-11.9 30.8-19.3-29.3.8-64.8 14.5-79.6 30.7 7.7 3.2 15.4-1.7 23.2 1-1.2 3.4-3.3 3.8-5 4.7zm356.8-53.9c-13.3-11.1-29.5-17.1-45-24.7 15.1-2.7 30.1 3.2 45-1.5-8.4-5.9-17.9-8.5-27.4-11.3-9.8-3-20.2-1.6-30.1-4.7 6.8-3.2 14.3-3 21.3-5-9.4-.8-18.6-1.7-27.8-3.4-9.2-1.8-18.6-1.5-27.9-1.4-9.6.1-19.1-.2-28.7 2.6-8.5 2.5-17.5 3.1-26.3 4.6 10.2 4.3 20.5 6.2 29.9 11.5-15.7 2.2-31.6 2.3-46.9 8.8 1.4 1.3 1.8 2.1 2.3 2.1 2.3.2 4.6.5 7 .4 27.2-1.8 53.7 1.9 80.2 7.7 24.7 5.3 49.6 9.5 74.4 14.3zm-183.5 251c15.8-24 32.2-47.6 50-70.4-8.9 3.7-16.1 9.4-23.3 15.3-18.9 15.4-35.3 33.4-52.7 50.3-2.5 2.4-4.4 5.9-9.4 6.5.4-6.5 1-12.3 1-18.2 0-5.6 3-11.4-.5-17.7-1.7 1.5-2.9 2.2-3.5 3.3-3.7 5.9-7.6 11.8-10.9 17.9-13 24.4-24.3 49.6-35 75.1-.1.2.1.7.3.9.9 1 .9-1 .8.9 1.8-2.1 3.4-3.8 4.9-5.5 12.7-14.2 26.7-26.9 41.7-38.7 2.7-2.1 5.2-5.2 11.3-3.7-9.6 18.1-16.8 36.4-22.3 55.5 18.1-22.6 31.9-47.7 47.6-71.5zm-290.6 232.4c.1-1.1.1-2.2.2-3.3 1.3-14 5.7-27.4 10.2-40.6 10.5-30.9 23.2-61 38.8-89.8 1.6-2.9 3-6 4.3-9 .7-1.5 1.1-3.4-.6-4.5-1.7-1.1-3.2 0-4.5 1-1.8 1.5-3.5 3.1-5.2 4.7-8.8 8.2-16.2 17.6-24 26.8-1.4 1.6-2.3 4.3-6.2 3.1 0-11.2 7.1-21.3 7.6-33.9-7.4 3-11.1 7.8-14.5 12.6-10.3 14.7-20.9 29.3-28.8 45.5-4.5 9.3-8.7 18.7-13 28.1-1.4 7.2-4.4 14.2-5 22.2 3.8-1.2 4.6-3.6 5.9-5.4 8.4-12.6 18.9-23.3 30.3-33 2.3-1.9 4.5-4 7.5-4.8 2.3-.6 4 .4 4.3 2.8.2 1.6 0 3.3-.4 4.9-4.5 20.2-5.2 41-8.7 61.3-1.8 8.2-1.6 9.5 1.8 11.3zM1567 531.6l-.1.1c5.9-7.5 11.3-15.7 16.3-24 2.1-3.5 2.7-6.5.3-9.9-4.9-2.6-7.4 1.7-10.1 4.1-8.6 7.4-16.8 15.2-25.2 22.8-2.3 2.1-4.2 4.9-8.9 6.6 5.8-13.6 17.9-21.9 22.4-36-9 .7-13.1 6.3-16.9 11.3-14.4 18.8-28.4 37.8-42.4 56.9-1.2 1.6-3.5 3.5-1.3 6 2.7.5 4.5-1.3 6.7-1.9 3.4 1.3 5.5-.7 8-2.7 5.4-4.6 11-9 17.2-12.5 1.8-1 3.2-4.7 5.3-.3-1.3 2.3-2.4 4.8-3.8 7-10.5 16.3-19 33.6-27.4 51-1.8 3.7-4.1 7.5-3.6 12.8 4.4-1.5 5.9-5.1 8.1-7.7 8.1-9.7 15-20.3 24.1-29.2 16.1-15.3 32.7-30.1 47.6-46.7 4.1-4.6 12.2-6.5 10.8-15.1 3.2-3.6 6.3-7.2 10.1-11.5-5.4-1.2-8.6 1.5-11.7 3.4-5 3.1-9.8 6.5-14.6 9.8-6.9-4.5-7.5 3-10.9 5.7zm325.6 163c-12.2-29-27.3-56.1-50.6-77.9m-91.9-150.5c14.5-3.8 28.7-8.5 43.6-11 14.6-2.4 29.2-4.5 46.1-7.1-6.4-4.6-11.7-3.8-16.3-5.4-3.5-1.2-9.4-.4-9.5-5.1-.1-3.6 5.6-3.9 8.8-5.4 4.9-2.3 10.7-2.5 16-6-27.7-11.3-93.2 1.7-108 21.3 16.6-3 32.9-4.4 49.3-4.3-11.3 6.9-22.6 13.9-34 20.8-.5 3.9 1.7 3.2 4 2.2zm-54 151.6c3.2-6.3-1.4-13.5 1.6-20.9 14.4 11.7 26.1 24.6 39.6 35.6-1.7-4.9-4.3-9.1-6.8-13.4-17.6-30.5-38.4-58.9-56.5-89l.1-.1c1.3 8.3 5.5 15.6 8.1 23.5 2 6.1 4.7 12.2 4.5 20.3-9.1-5.4-14.4-12.5-19.7-19.6-3.6-4.8-6.3-10.2-10.9-14.2l.1-.1c1.6 5.9 4.9 10.9 7.9 16 11.6 20.2 24.3 39.8 32 61.9 0 .1 0 0 0 0zm196.5 76.8c-12.2-29-27.3-56.1-50.6-77.9-1.5 2.2.1 4.3.4 6.5.5 4 1.3 7.9 1.5 11.9.2 2.5 1 5.8-2.1 7.1-2.5 1-4-1.7-5.7-3.2-1.5-1.3-2.8-2.9-4.3-4.2-10.5-9.2-20.5-19.1-31.9-27.1-3.3-2.3-6.5-5.4-11.1-5.1-.3 3.1 1.4 4.4 2.7 5.8 14.1 15.7 26.1 32.8 36.5 51.1 1.6 2.8 2.7 7.4 6.3 6.9 4.9-.7 2.7-5.9 3.6-9.1.2-.6.1-1.3.3-2 .3-1.6.6-3.5 2.6-3.7 1.4-.2 2.5.9 3.2 2 6.4 9 15.3 15.7 21.9 24.6h.1c.7.6 1.3 1.3 2 1.9 2 2.7 4 5.3 6 8 7.8 10.4 14.3 21.6 21.1 32.6 1.7 2.7 2.5 6.2 6.6 2.8 0-1.7.1-3.4.1-5.1-.9-1.2-.6-3-1.6-4.2-.1-.7-.2-1.3-.3-2-2.4-6-4.8-11.8-7.3-17.6z" clip-rule="evenodd"/><path fill="none" fill-rule="evenodd" stroke="#000" stroke-miterlimit="10" stroke-width="6" d="M1799.7 370c14.7 43 30.5 27 31.8 26.3s29.9-12.7 44-21.7 17.8-4.6 17.8-4.6-22.6 44.9-26.6 52.6-11.6 19.2-.1 21.5c56.5 2.9 65.2 31.9 86.5 44.1s5.3 16.2 5.3 16.2-28.6-1.2-50.3-2-20.6 6.8-12.6 12.6 93.4 90.6 93.4 90.6-12.5 1.7-20.9 1.1-25.6 2.2-16.9 6.6 22 29.7 34.1 41.2c33.9 26.8 15.9 23.6 15.9 23.6s-12.7 1.9-32.7-4.1-11 16-1.4 24.1 29.1 28.2 29.1 28.2-45.2.1-53-.4-20 2.7-10.3 11.2 24.1 34.8 24.1 34.8c6.3 12.5.9 33 11.8 54 15.6 19.6 3.7 17.4 3.7 17.4s-26.9-3.7-44.9-10.6-15.9 8.2-16 13.3 9.6 51.6 13.4 62.2 2.3 14.2 2.3 14.2-8.5-3.1-16.9-7.3-13 2.8-13 2.8 6.2 28.4 5.5 43.5 3.4 24.6-4.8 20.8-26.8-38.6-29.1-51.9-9.1-3-12.3 5.7c-4.7 4.3-18.3 38.7-19.9 26.2-.3-4.5-16.1-94.8-14.4-99.5s-2.3-53.8-7-74.3-21.6 5.3-26 10.3-15 20.7-14.5 7.1c-2.9-19-8.1-67.7-20.1-90.4-6-18.3-39.3-52.8-49.3-62s-15.8-6.4-15.8-6.4-12.3 10.7-22.6 25.2-15.8 7.6-15.8 7.6-1.7-7.2-21.2-20.1c-28.3-14.1-33.2-6.1-39.9 2.9s-33.1 74.3-33.1 74.3l-.7 9.2c-.7 9.2-1.8 26-10.7 34.5-11-8-17.1-71.3-16.9-89.7s-18.5 5.4-18.5 5.4-29.6 42.3-36.3 62.1S1462 775 1462 775s.4-20.7-3.6-48.4-15.7-8.6-15.7-8.6-57.6 64.2-62.3 69.7-17.3 14-24.4 29.1-9.7 4.8-9.7 4.8 0-9.9-1.8-28.7-12.1-6.6-15.8-3.8-42.2 71.3-50.9 96.6-9.9 19.8-9.9 19.8-4.3-8-8.8-19.8-10.1-4.7-14.7 3.2-12.4 87-12.6 93 2.7 21.4-6.8 13.9-55.9-72.9-43.5 32.8c25 82.6-33.4 7.9-33.4 7.9-12.9-14.2-21 9.1-32.3 28.7s-11.7 18.3-31-2.6-14.7-23.6-15.4-39.8-11.5-9.4-14.5-8.5-46.1 14.6-51.7 16-29.4 11.8-16.6-3.8c17.5-20.9 37.2-57.8 44.8-68.7s10.4-25.8-14.2-16.7-57.1.6-80.1.7-27.7-5.1-24.7-5.5 58.8-36.2 77.6-50.7-11.2-13.2-19-12.4-84.3-.5-91.4-.9-13.8-1.2 1.4-9.8c33.1-18.7 106.1-81.7 119.7-97s1.7-15.3-3.8-17-55.5 23-57.8 25.9-16.3 9.5-13.3 0 34.6-57.2 55.2-66.7 23.1-15.2 15.2-20.4c-1.6-5.2-40.5 5.5-50.1 8.3-4.3-.6-25 16.3-16 0 26.7-48.7 87.7-88.6 103.5-97.3s8.1-12 4.4-13.1-46.5-8.3-57.5-9.3-30.7-3.7-28.2-6.4 17.3-11.7 25.4-16.7 32.5-29.7 64.7-20.2 20.5-16.5 4.3-33.9-32.1-44.6-30.3-48.8 47.7 19.1 63.9 22.8 24.7 2.1 13.4-8.6-19.4-22.6-16.1-23 44.3 1.6 67.8 0 19.2-13.7 10.4-23.3-67.9-19.4-85.5-28.3c7.3-12.5 91.3-35.1 132-30.5s14.8-18 14.8-18-50.1-39.6-43.4-41.1 107.3 18.5 140.1 32.2 19.8-2.3 16-7.7c-.4-4.2-35.2-28.8-47.7-42 30.2-5.2 163.5 39.7 174.8 44.8s13.7 3.1 15.4-3.5c0 0-22.7-29.4-44.2-48.5 4.5-1.4 47.8 18.4 80.6 21.8 31.6 3.6 78.6 20.9 93.1 34.4 21.1 23.2 24.5 12.5 24.5 12.5 11.3-11.7-21.8-83.3-14.7-84 29 7.7 100.1 63 106.6 69.9 27.1 53.4 28.6 32.3 28.6 32.3 4.3-13.4-14.1-67.2-14.1-67.2 14.6-4 61.6 59.4 67 75.1z" clip-rule="evenodd"/></svg>