<svg xmlns="http://www.w3.org/2000/svg" id="hair" viewBox="0 0 3000 3000"><path id="cl1" d="M2064.4 399.9c-.7.3-1 .8-.8 1.6-.4.9-1.1 1.6-1.8 2.3l-.1.1c-.6.7-1.3 1.3-2.2 1.7-.3 1-1.1 1.6-2 2.1l.1-.1c-.5.8-1.1 1.5-1.8 2.1l-.1.1c-.6.6-1.2 1.3-1.8 1.9l-.1.1c-1.3.8-.6 3-2.5 3.4l.4.5-.4-.5c-.1 1.3-.8 1.9-2 2.1l.4.4-.4-.4c0 1.2-.9 1.7-1.6 2.4-.6.7-1.2 1.3-1.9 1.9l-.1.1c-.6.6-1.2 1.3-1.7 1.9l-.6.4.1.7c-.2 1.3-.8 2.2-2.2 2.5l.1-.1c0 1.2-.9 1.7-1.6 2.4-.6.6-1.2 1.3-1.7 2l-.6.4.1.7c-.2 1.3-.8 2.2-2.2 2.5l.1-.1c-.1 1.2-.9 1.8-1.9 2.2l.1-.1c-.4 1-1 1.8-2.2 1.9l.4.4-.4-.4c0 1.1-.9 1.7-1.5 2.4v.1c-1.2.9-.6 3.1-2.5 3.5l.4.5-.4-.5c0 1.2-.8 1.8-1.7 2.3v-.1c-.5.8-1 1.5-1.6 2.2l-.6.4.1.7c-.1 1.3-.8 2.1-1.9 2.7l.1-.1c-.5.8-1.1 1.5-1.7 2.2l-.1.2c-1.3.9-.7 3-2.5 3.5l.1-.1c0 1.1-.9 1.7-1.5 2.4v.1c-1.2.9-.7 3.1-2.5 3.6l.1-.1c0 1.1-.9 1.7-1.5 2.4v.1c-1.2 1-.8 3-2.2 3.8l.1-.1c-.5.8-1.1 1.5-1.7 2.2l-.1.2c-1.2 1-.7 2.9-2.2 3.8l.1-.1c-.5.8-1 1.5-1.6 2.2l-.6.4.1.8c-.1 1.2-.9 2-1.7 2.8v.1c-1.2 1-.8 2.9-2.1 3.9v-.1c-.8 1.7-2.1 3-3.6 4.2l-.6.4.1.8c-.1 1.2-.8 2-1.5 2.8l-.6.4.1.7c-.1 1.2-.9 2-1.7 2.8v.1c-1.2 1-.8 2.9-2.1 3.9v-.1c-1 1.2-.6 3.1-2.1 4l.1-.1c-.5.8-1 1.5-1.6 2.2l-.6.4.1.8c-.1 1.2-.8 2-1.5 2.8l-.6.4.1.7c-.1 1.2-.8 2-1.5 2.8l-.6.4.1.7c-.1 1.2-.8 2-1.5 2.8l-.6.4.1.7c-.6 1.6-.5 3.5-1.9 4.8v-.1c-1 1.2-.6 3.1-2.1 4v-.1c-.9 1.3-.6 3-1.8 4.2-1.2 1.1-.8 3-2 4l-.5.5.2.7c-.1 1.1-.8 1.9-1.4 2.8-.6.5-.7 1-.4 1.7-.7 1.4-1.5 2.7.1 4 3.4.5 6.8.9 10.1-.3 12.6-1.4 25.3 1 37.9-1.3 12.7-.4 25.4.8 38.1-.7 12.6-1.4 25.3 1 37.9-1.3 12-.2 24-.3 36-.5 10.6-1.9 21.4.9 31.9-1.5 12.7-.4 25.4.8 38.1-.7 14.8-1.4 29.8.9 44.6-1.2l29.3-.6c10-1 19.9-1 29.9 0l.5.4c.3.8.9 1.3 1.6 1.7l.2.3c.8 1.4.8 2.7 0 4l-.2.1c-.7.6-1.4 1.2-2.2 1.6-.6 1.5-2.7.9-3.4 2.3l-.4.2c-.7.5-1.3 1.1-2 1.7l-.1.1c-.6.8-1.1 1.6-2.3 1.6-.7 1.9-2.5 1.4-3.9 2l-.1.1c-.5 1.8-2.6 1.2-3.6 2.3l-.1.1c-.9 1.2-2.8.7-3.5 2.1l-.4.2c-.7.6-1.4 1.1-2.2 1.5-.8 1.5-2.7 1.1-3.8 2.2h-.1c-.8 1.3-2.8.7-3.5 2.1l-.4.2c-.7.6-1.4 1.1-2.2 1.5-.6 1.5-2.7.9-3.4 2.3l-.4.2c-.7.6-1.4 1.1-2.2 1.5-.8 1.5-2.7 1.1-3.8 2.2h-.1c-.6.8-1.2 1.6-2.3 1.6l.5.4-.5-.5c-.4 1.9-2.6 1.3-3.6 2.4l-.1.1c-.6.7-1.1 1.6-2.3 1.6-.5 1.9-2.6 1.3-3.6 2.4l-.1.1c-.9 1.2-2.8.7-3.6 2l-.3.1c-1 1.1-2.8.5-3.6 1.9l-.4.2c-.7.6-1.4 1.1-2.2 1.5-.6 1.5-2.7.9-3.4 2.3l-.4.2c-.7.6-1.4 1.1-2.2 1.5-.8 1.5-2.7 1.1-3.8 2.2h-.1c-.8 1.3-2.8.7-3.5 2.1l-.4.2c-.7.6-1.4 1.1-2.2 1.5-.6 1.5-2.7.9-3.4 2.3l-.4.2c-.7.5-1.3 1.1-2 1.7l-.1.1c-.6.8-1.1 1.6-2.3 1.6-.5 1.9-2.6 1.3-3.6 2.4l-.1.1c-1.1 1.2-2.8 1-4.1 1.8h-.1c-.7 1.5-2.7.9-3.4 2.3l-.4.2c-.7.6-1.4 1.1-2.2 1.5-.6 1.5-2.7.9-3.4 2.3l-.4.2c-.8.6-1.5 1.3-2.6 1.5l-.8-.1-.6.6c-.7.5-1.4 1-2.2 1.5-.6 1.5-2.7.9-3.4 2.3l-.4.2c-.7.6-1.4 1.1-2.2 1.5-.6 1.5-2.7.9-3.4 2.3l-.4.2c-.7.5-1.3 1.1-2 1.7h-.1c-1 1.3-2.8.9-3.9 1.9l-.1.1c-.6.7-1.1 1.6-2.3 1.5-.6 1.9-2.6 1.3-3.7 2.2-.7 1.5-2.7.9-3.4 2.3l-.4.2c-.7.6-1.4 1.1-2.2 1.5-.9 1.6-2.7 1.2-4 2-.7 1.5-2.7.9-3.4 2.3l-.4.2c-.7.6-1.4 1.1-2.2 1.5-.6 1.5-2.7.9-3.4 2.3l-.4.2c-.8.6-1.5 1.3-2.6 1.5l-.8-.1-.6.6c-.7.5-1.4 1-2.2 1.5-.7 1.5-2.7.9-3.4 2.3l-.4.2c-.7.5-1.3 1.1-2 1.7l-.1.1c-.6.8-1.1 1.6-2.3 1.6-.6 1.9-2.6 1.3-3.7 2.2-.8 1.5-2.7 1-3.8 2.1h-.1c-.8 1.3-2.8.7-3.5 2.1l-.4.2c-.7.6-1.4 1.1-2.2 1.5-.6 1.5-2.7.9-3.4 2.3l-.4.2c-.7.6-1.4 1.1-2.2 1.5-.9 1.6-2.7 1.2-4 2-.7 1.5-2.7.9-3.4 2.3l-.4.2c-.7.6-1.4 1.1-2.2 1.5-.6 1.5-2.7.9-3.4 2.3l-.4.2c-.7.5-1.3 1.1-2 1.7h-.1c-.9 1.3-2.8.7-3.7 2l-.3.1c-1 1.1-2.8.5-3.6 1.9l-.4.2c-.7.6-1.4 1.1-2.2 1.5-.6 1.5-2.7.9-3.4 2.3l-.4.2c-.7.6-1.4 1.1-2.2 1.5-.8 1.5-2.7 1.1-3.8 2.2h-.1c-.8 1.3-2.8.7-3.5 2.1l-.4.2c-.7.6-1.4 1.1-2.2 1.5-.6 1.5-2.7.9-3.4 2.3l-.4.2c-.7.6-1.4 1.1-2.2 1.5-.8 1.5-2.7 1.1-3.8 2.2h-.1c-.8 1.3-2.8.7-3.5 2.1l-.4.2c-.7.6-1.4 1.1-2.2 1.5-.6 1.5-2.7.9-3.4 2.3l-.4.2c-.7.6-1.4 1.1-2.2 1.5-.6 1.5-2.7.9-3.4 2.3l-.4.2c-.8.6-1.5 1.3-2.6 1.5l-.8-.1-.6.6c-.7.5-1.4 1-2.2 1.4-.6 1.5-2.7.9-3.4 2.3l-.4.2c-.7.6-1.4 1.1-2.2 1.5-.8 1.5-2.7 1.1-3.8 2.2h-.1c-.8 1.3-2.8.7-3.5 2.1l-.4.2c-.7.6-1.4 1.1-2.2 1.5-.7 1.5-2.7.9-3.5 2.3l-.3.1c-.6.7-1.4 1.2-2.3 1.4l.3.5-.4-.4c-.3 1.8-2.6 1.1-3.2 2.5l-.4.2c-.8.6-1.5 1.3-2.6 1.5l-.8-.1-.6.6c-.7.5-1.4 1-2.2 1.5-.6 1.5-2.7.9-3.4 2.3l-.4.2c-.7.6-1.4 1.1-2.2 1.5-.6 1.5-2.7.9-3.4 2.3l-.4.2c-.8.6-1.5 1.3-2.6 1.5l-.8-.1-.6.6c-.7.5-1.4 1-2.2 1.5-.6 1.5-2.7.9-3.4 2.3l-.4.2c-.7.6-1.4 1.1-2.2 1.5-.7 1.5-2.7.9-3.5 2.3l-.3.1c-1.1 1.1-2.8.7-3.8 1.8l-.2.2c-.6.7-1.3 1.2-2.1 1.7-.6 1.5-2.7.9-3.4 2.3l-.4.2c-.7.6-1.4 1.1-2.2 1.5-.6 1.5-2.7.9-3.4 2.3l-.4.2c-.7.6-1.4 1.1-2.2 1.5-.9 1.6-2.7 1.2-4 2-.7 1.5-2.7.9-3.4 2.3l-.4.2c-.7.6-1.4 1.1-2.2 1.5-.6 1.5-2.7.9-3.4 2.3l-.4.2c-.8.6-1.5 1.3-2.6 1.5l-.8-.1-.6.6c-.7.5-1.4 1-2.2 1.5-.8 1.5-2.7 1.1-3.8 2.2l-.1.1c-.6.7-1.1 1.6-2.3 1.5l.3.5-.4-.5c-.3 1.8-2.6 1.1-3.2 2.5l-.4.2c-.7.6-1.4 1.1-2.2 1.5-2.3 1.7-3.7 4.4-6.1 6h.2c-.6.7-.5 1.3.2 1.9 2 .2 4 .3 6 .5 1.7 1.7 4.1.3 5.9 1.5 1.8.2 3.6.4 5.3.6 2.1 1.1 4.5.4 6.6 1.4l5.4.6c1.5.5 3 .8 4.6 1.1 2.5.3 5 .6 7.4.9 1.5.5 3 .8 4.6 1.1 1.9 1 4.1.7 6.1.7 1.7 1.6 4 .5 5.9 1.3 1.9 1 4.1.7 6.1.7 1.7 1.6 4 .4 5.9 1.4.2.8.7 1 1.4.7 1.5.5 3 .8 4.6 1.1 1.9 1 4.1.7 6.1.7 1.7 1.6 4 .5 5.9 1.3 1.9 1 4.1.7 6.1.7 1.7 1.7 4.1.3 5.9 1.5 2 .2 4 .3 6.1.5 1.7 1.7 4.1.3 5.9 1.5 1.8.2 3.6.4 5.3.6 2.1 1.1 4.5.4 6.6 1.4 1.1.2 2.1.4 3.2.7 1.3.1 2.1.9 2.7 1.9l-.1-.1c1.5 2.6 2.2 5.1-.4 7.5l.1-.1c-.4 1.9-2.6 1.3-3.6 2.4l-.1.1c-.9 1.2-2.8.7-3.5 2.1l-.4.2c-.7.5-1.3 1.1-1.9 1.7l-.1.1c-.6.7-1.3 1.3-2.2 1.7-.4 1-1 1.8-2.2 1.8l.5.4-.5-.4c-.4 1.9-2.6 1.3-3.5 2.4l-.2.2c-.6.7-1.3 1.2-2.1 1.7-.8 1.5-2.7 1.1-3.8 2.2h-.1c-.6.8-1.2 1.6-2.3 1.6l.5.4-.5-.5c-.4 1.9-2.6 1.3-3.5 2.4l-.2.2c-.6.7-1.3 1.2-2.1 1.7-.4 1-1 1.8-2.2 1.8l.5.4-.5-.4c-.4 1.9-2.6 1.3-3.5 2.4l-.2.2c-.7.8-1.4 1.5-2.5 1.6l-.8-.1-.6.6c-.7.5-1.4 1-2.2 1.5-.4 1-1 1.8-2.2 1.8l.5.4-.5-.5c-.3 1.8-2.5 1.2-3.2 2.5l-.4.2c-.7.5-1.3 1.1-2 1.7l-.1.1c-.6.8-1.1 1.6-2.3 1.6l.4.5-.4-.5c-.4 1.8-2.6 1.1-3.3 2.4l-.3.1c-.6.7-1.4 1.2-2.3 1.4l.3.5-.4-.5c-.5 1.8-2.6 1.3-3.6 2.4l-.1.1c-.6.7-1.1 1.6-2.3 1.5l.3.5-.4-.5c-.3 1.8-2.6 1.1-3.2 2.5l-.4.2c-.7.5-1.3 1.1-2 1.7h-.1c-1 1.3-2.8.8-3.8 2l-.2.2c-.6.7-1.3 1.2-2.1 1.7-.4 1-1 1.8-2.2 1.8l.5.4-.5-.5c-.3 1.8-2.5 1.2-3.2 2.5l-.4.2c-.7.6-1.4 1.1-2.2 1.5-.4 1-1 1.8-2.2 1.8l.5.4-.5-.4c-.4 1.9-2.6 1.3-3.5 2.4l-.1.1c1.4 5.5 5.9 2.8 8.9 2.9 27.1.2 54.2.1 81.3.2 3.3 0 6.6-.5 9.8.6.7.1 1.5.3 2.2.4.5.7 1.1 1.2 1.9 1.6l.2.3c.7 2.6 1.9 5.3-.8 7.6l.1-.1c-.5 1.9-2.6 1.4-3.7 2.3h-.1c-.4 1-1 1.8-2.2 1.7-.4 1.9-2.6 1.3-3.5 2.4h-.1c-.6.8-1.2 1.6-2.3 1.6-.3 1.8-2.6 1.2-3.3 2.5l-.3.1c-1.1 1.1-2.8.7-3.9 1.8l-.1.1c-.6.7-1.1 1.6-2.3 1.5-.9 2.7-4.1.4-5.3 2.5l-.4.2c-.7.6-1.4 1.1-2.2 1.5-.6 1.5-2.7.9-3.4 2.3l-.4.2c-.7.6-1.4 1.1-2.2 1.5-1 1.6-2.7 1.3-4.1 1.7l-.1.1c-.5 1.8-2.6 1.2-3.6 2.3l-.1.1c-.6.7-1.1 1.6-2.3 1.5l.3.5-.4-.5c-.4 1.8-2.6 1.2-3.3 2.4l-.3.1c-.6.7-1.4 1.2-2.3 1.4l.3.5-.4-.5c-.5 1.9-2.6 1.3-3.6 2.4l-.1.1c-.9 1.3-2.8.7-3.6 2l-.3.1c-1 1.1-2.8.5-3.6 1.9l-.4.2c-.7.6-1.4 1.1-2.2 1.5-.6 1.5-2.7.9-3.4 2.3l-.4.2c-.8.6-1.5 1.3-2.6 1.5l-.8-.1-.6.6c-.7.5-1.4 1-2.2 1.4-.8 1.6-2.7 1.1-3.8 2.2l-.1.1c-.6.7-1.1 1.6-2.3 1.5l.3.5-.4-.5c-.4 1.8-2.6 1.2-3.5 2.4l-.2.2c-.6.7-1.3 1.3-2.1 1.7-.8 1.5-2.7 1.1-3.8 2.2h-.1c-1 1.3-2.8.9-3.9 2l-.1.1c-.6.7-1.1 1.6-2.3 1.5l.3.5-.4-.5c-.5 1.9-2.6 1.3-3.6 2.4l-.1.1c-.6.7-1.1 1.6-2.3 1.5-.9 2.7-4.1.4-5.3 2.5l-.4.2c-.7.6-1.4 1.1-2.2 1.5-.6 1.5-2.7.9-3.4 2.3l-.4.2c-.7.6-1.4 1.1-2.2 1.5-.8 1.5-2.7 1.1-3.8 2.2h-.1c-1 1.3-2.8.9-3.9 2l-.1.1c-.6.7-1.1 1.6-2.3 1.5l.3.5-.4-.5c-.3 1.8-2.6 1.1-3.2 2.5l-.4.2c-.7.6-1.4 1.1-2.2 1.5-.8 1.6-2.7 1.1-3.8 2.2l-.1.1c-1 1.3-2.8.9-3.9 1.9l-.1.1c-.6.7-1.1 1.6-2.3 1.5l.3.5-.4-.5c-.5 1.9-2.6 1.3-3.6 2.4l-.1.1c-.9 1.3-2.8.7-3.6 2.1l-.4.2c-.8.6-1.5 1.3-2.6 1.5l-.8-.1-.6.6c-.7.5-1.4 1-2.2 1.4-.6 1.5-2.7.9-3.4 2.3l-.4.2c-.7.6-1.4 1.1-2.2 1.5-.8 1.5-2.7 1-3.7 2.2l-.2.2c-.6.7-1.3 1.3-2.1 1.7-.8 1.5-2.7 1.1-3.8 2.2h-.1c-.8 1.3-2.8.7-3.6 2.1l-.4.2c-.7.6-1.4 1.1-2.2 1.5-.8 1.6-2.7 1.1-3.8 2.2l-.1.1c-.9 1.3-2.8.7-3.7 2l-.3.1c-1 1.1-2.8.6-3.7 1.9l-.3.1c-.6.7-1.4 1.2-2.3 1.4l.3.5-.4-.5c-.5 1.9-2.6 1.3-3.6 2.4l-.1.1c-.6.7-1.1 1.6-2.3 1.5-.9 2.7-4.1.4-5.3 2.5l-.4.2c-5.6-2.3-2.1-6.6-2.3-10.2 1.4-3.2.7-6.6.5-9.9 2.3-3.8-.2-8.3 1.7-12.1.7-1.4.7-2.7-.1-4.1-1.9-6.7.7-13.7-1.6-20.3.1-3.2.7-6.5-.4-9.7-1.3-2.8-.1-6-1.4-8.8-.1-6.3-.1-12.6-.2-18.9 1.1-1.2.8-2.8 1.5-4.1.9-1.1.8-2.4.6-3.6.9-1.3.7-3.1 1.6-4.4.5-.5.6-1.2.3-1.9 1.1-1.2.8-2.9 1.7-4.1.5-.4.7-1 .4-1.6.5-.8.9-1.6 1.4-2.4.6-.4.8-.9.6-1.6.9-1.4.7-3.1 1.8-4.4l.1-.1c1.3-1 .8-2.7 1.8-3.9.5-.4.7-1 .4-1.6.5-.8.9-1.6 1.4-2.4.6-.4.8-.9.6-1.6.9-1.3.7-3.1 1.8-4.4l.1-.1c1.3-1 .8-2.7 1.8-3.9.6-.4.7-1 .4-1.6.5-.8.9-1.6 1.4-2.4.6-.4.8-.9.6-1.6.9-1.3.7-3.1 1.8-4.4l.1-.1c1.3-1 .8-2.7 1.8-3.9.5-.4.7-1 .4-1.6.5-.8.9-1.6 1.4-2.4.6-.4.8-.9.6-1.6.9-1.3.7-3 1.6-4.4.1-.6.2-1.2.3-1.9 1.7-1.7.3-4.3 1.7-6.1.1-1.2.3-2.4.4-3.6.8-1.3.8-3 1.4-4.4.9-1.1.8-2.4.6-3.6.8-1.3.8-3 1.4-4.4.2-.6.3-1.3.5-1.9 1.1-1.2.8-2.8 1.5-4.1 1.2-2.7 1-5.4.1-8.1-1.5-3.5.1-7.4-1.4-10.8-.1-2.4-.3-4.8-.4-7.1-2.3-1.5 1.5-6.8-4-6.3l-.1.1c-.7 1.5-2.7.9-3.5 2.2l-.3.1c-1 1.1-2.8.5-3.6 1.9l-.4.2c-.7.6-1.4 1.1-2.2 1.5-.9 1.6-2.7 1.2-4 2-.7 1.5-2.7.9-3.5 2.2l-.3.1c-1 1.1-2.8.5-3.6 1.9l-.4.2c-.7.5-1.3 1.1-1.9 1.7l-.1.1c-1.1 1.5-2.3 2.9-3.9 3.8l-.2.2c-.6.7-1.3 1.3-2.1 1.7-.4 1-1 1.8-2.2 1.8l.5.4-.5-.4c-.4 1.9-2.6 1.3-3.6 2.4l-.1.1c-.6.7-1.1 1.6-2.3 1.5l.3.5-.4-.4c-.1 1.2-.8 1.9-2 2-.1 1.3-.7 1.9-2 2-.1 1.3-.7 1.9-2 2l.5.4-.4-.4c-.4 1.9-2.6 1.3-3.5 2.4l-.2.2c-.6.6-1.2 1.2-1.9 1.8l-.1.1c-.6.6-1.2 1.3-1.9 1.9l-.1.1c-.6.7-1.3 1.3-2 1.8h-.1c-.6.8-1.1 1.6-2.3 1.6l.3.5-.4-.4c-.1 1.2-.8 1.9-2 2 0 1.2-.8 1.8-1.7 2.3l.1-.1c-.4.9-1.1 1.5-1.8 2.1l-.1.1c-.6.6-1.2 1.3-1.9 1.9l-.1.1c-.6.6-1.2 1.2-1.7 1.9l-.6.4.1.7c-.2 1.3-.8 2.3-2.2 2.4l.6.4-.5-.4c0 1.2-.8 1.8-1.7 2.3v-.1c-.5.8-1 1.5-1.6 2.2l-.6.4.1.7c-.1 1.3-.8 2.1-1.9 2.8v-.1c-1 1.1-.5 3.2-2.3 3.8l.5.3-.4-.4c-.3.9-.7 1.7-1.2 2.4-.5.4-.7 1-.5 1.6-.4.9-1 1.6-1.6 2.4l-.6.4.1.7c-.6 1.6-.6 3.5-1.7 4.9l-.5.5.3.7c-.6 1.6-.5 3.4-1.7 4.9l-.5.5.3.7c-.3 2.5-1.9 3.8-4.1 4.6l-.5-.4-.5.3c-1.1-.2-1.8-.9-2.6-1.5l-.4-.2c-.5-.7-1-1.5-1.6-2.2 0-1.8.1-3.6.1-5.4 1.4-1.9.3-4.5 1.6-6.5l.2-.3c2.6-3.6 0-7.9 1.7-11.7 1.4-10 .9-20 .3-30.1-1.9-3.2.1-7-1.5-10.3l.1.1c-2.8-2.3-.5-6-2.2-8.6.2-1.8.3-3.5-.6-5.2-1.1-2.2-.4-4.7-1.4-6.8-.2-1.1-.4-2.1-.6-3.2-.7-1.5-.9-3.2-1.4-4.8l.3-.7-.5-.5c-1.7-1.8-.3-4.5-1.9-6.3.3-.7.1-1.2-.4-1.7-.8-1.3-.6-3-1.6-4.3.3-.7.1-1.3-.5-1.7-.8-1.2-.3-2.9-1.7-3.8l-.1-.1c-.7-.9-1.5-1.7-1.6-2.9l.2-.7-.5-.5c-1.2-1.2-.9-3-1.9-4.3.3-.7.1-1.2-.4-1.7-.6-.9-1.3-1.7-1.4-2.8l.1-.7-.6-.4c-.7-.8-1.4-1.7-1.5-2.8l.2-.7-.5-.5c-1.2-1.1-.9-2.9-1.9-4.2v.1c-1-.7-1.8-1.5-1.9-2.8l.1-.7-.6-.4c-.6-.7-1.1-1.4-1.6-2.2l.1.1c-1.5-.9-1.1-2.8-2.1-4v.1c-1.4-.9-.9-2.9-2.2-3.9v-.1c-.8-.8-1.6-1.6-1.7-2.8l.1-.7-.6-.4c-.6-.7-1.1-1.4-1.6-2.2l.1.1c-1.1-.6-1.8-1.4-1.9-2.7l.1-.7-.6-.4c-.6-.7-1.1-1.4-1.6-2.2l.1.1c-1.1-.6-1.8-1.4-1.9-2.7l.1-.7-.6-.4c-.6-.7-1.1-1.4-1.6-2.2v.1c-.9-.5-1.7-1.1-1.7-2.3-1.8-.3-1.2-2.6-2.5-3.2l-.3-.2c-1.3-1.2-2.6-2.5-3.6-3.9l-.1-.1c-.6-.6-1.2-1.3-1.8-2-.7-.7-1.6-1.2-1.6-2.4l-.4.4.4-.4c-1.2-.1-1.9-.8-2.1-2l-.1-.1c-.8-.4-1.5-.2-2 .5l-.6.4.1.7c-.1 1.3-.8 2.1-1.9 2.8v-.1c-1 1.2-.6 3.1-2 4.1v-.1c-1 1.2-.6 3.1-2 4.1v-.1c-1 1.2-.6 3.1-2.1 4l.1-.1c-.5.8-1 1.5-1.6 2.2l-.6.4.1.7c-.1 1.3-.8 2.1-1.9 2.8v-.1c-1 1.2-.6 3.1-2 4.1v-.1c-1 1.2-.6 3.1-2.1 4l.1-.1c-.5.8-1 1.5-1.6 2.2l-.6.4.1.8c-.1 1.2-.8 2-1.5 2.8l-.6.4.1.7c-.1 1.2-.8 2-1.5 2.8l-.6.4.1.7c-.1 1.3-.8 2.1-1.9 2.8v-.1c-1 1.1-.5 3.2-2.3 3.8l.5.3-.4-.4c-.3.9-.7 1.7-1.3 2.4l-.6.4.1.7c-.1 1.2-.8 2-1.5 2.8l-.6.4.1.7c-.1 1.2-.8 2-1.5 2.8l-.6.4.1.7c-.2 1.3-.8 2.3-2.3 2.4l.1-.1c.1 1.2-.8 1.8-1.6 2.5-1 1.2-.7 3-2 4v-.1c-1 1.2-.6 3.1-2.1 4l.1-.1c-.5.7-1 1.5-1.5 2.2-.6.5-.7 1-.5 1.7-1 1.2-.6 3.2-2.1 4.2l.1-.1c-.5.8-1.1 1.5-1.7 2.2l-.1.1c-1.2 1-.8 2.9-2.1 3.8v-.1c-1 1.1-.5 3.2-2.3 3.8l.5.3-.4-.4c-.3.9-.7 1.7-1.3 2.4l-.6.4.1.7c-.1 1.2-.8 2-1.5 2.8l-.6.4.1.7c-.1 1.2-.8 2-1.5 2.8l-.6.4.1.7c-.2 1.3-.8 2.2-2.2 2.5l.5.3-.5-.3c-.3.9-.7 1.7-1.3 2.4l-.6.4.1.7c-.1 1.2-.8 2-1.5 2.8l-.6.4.1.7c-.1 1.2-.8 2-1.5 2.8l-.6.4.1.7c-.1 1.2-.9 2-1.7 2.8v.1c-1.2 1-.8 2.9-2.2 3.9v-.1c-1 1.1-.5 3.2-2.3 3.8l.5.3-.4-.4c-.3.9-.7 1.7-1.3 2.4l-.6.4.1.7c-.1 1.2-.9 2-1.7 2.8v.1c-1.2 1-.8 2.9-2.2 3.9v-.1c-1 1.2-.6 3.1-2 4.1v-.1c-1 1.2-.6 3.1-2.1 4l.1-.1c-.5.8-1.1 1.5-1.7 2.2l-.1.1c-1.2 1-.8 2.9-2.1 3.8v-.1c-1 1.2-.6 3.1-2 4.1v-.1c-1 1.2-.6 3.1-2 4.1v-.1c-1 1.1-.5 3.2-2.3 3.8l.5.3-.4-.4c-.3.9-.7 1.7-1.3 2.4l-.6.4.1.7c-.1 1.3-.8 2.1-1.9 2.7v-.1c-.5.7-1 1.5-1.5 2.2-.6.5-.7 1-.5 1.7-1 1.2-.5 3.3-2.4 4l.4.3-.4-.3c-.3.9-.7 1.7-1.3 2.4l-.6.4.1.7c-.1 1.2-.8 2-1.5 2.8l-.6.4.1.7c-.1 1.2-.9 2-1.6 2.8l-.1.2c-.7.4-1.1 1-1.4 1.7-.8.1-1.1.5-.9 1.2-.1 1.3-.8 2.1-1.9 2.8v-.1c-1 1.2-.6 3.1-2 4.1v-.1c-1 1.1-.5 3.2-2.4 3.7l.4.4-.4-.4c-.3 1.8-2.6 1.2-3.3 2.5l-.3.1c-2 1.1-3.9 1.4-5.8-.2h-.1c-.8-.6-1.5-1.4-1.9-2.3.2-3.9.6-7.8-.3-11.6-1.5-1.8-.2-4.5-1.7-6.3-.1-1.2-.3-2.5-.4-3.7-.8-1.3-.8-2.9-1.3-4.3l.1.1c-2.5-1.6-.9-4.6-2.2-6.6-.2-1.1-.4-2.1-.6-3.2-1.2-1.9-.1-4.4-1.6-6.3.3-.6.2-1.2-.3-1.7-1.8-2.5.2-5.8-1.7-8.3.3-.6.2-1.2-.3-1.7-1.4-2.1-.5-4.7-1.6-6.9-.2-1.1-.4-2.1-.6-3.2-1.2-1.9-.1-4.4-1.6-6.3.3-.6.2-1.2-.3-1.7-1.5-1.9-.4-4.4-1.5-6.3l.1.1c-2.5-1.4-.7-4.4-2.3-6.1-.2-1.2-.3-2.4-.5-3.6-.7-1.5-.9-3.2-1.4-4.8-.1-1.1-.3-2.1-.4-3.2-1.4-2.1-.5-4.7-1.6-6.9-.1-1-.3-2.1-.4-3.1-1.5-1.8-.2-4.5-1.7-6.3-.1-1.2-.3-2.5-.4-3.7-.7-1.5-.9-3.2-1.4-4.8-.1-1.1-.3-2.1-.4-3.2-1.6-1.7 0-4.3-1.8-6v-.1c-1.7-1.8-.3-4.5-1.8-6.4.2-.6.1-1.1-.3-1.6-1.4-2.1-.5-4.7-1.6-6.9-.2-1.1-.4-2.1-.6-3.2-1.1-2.2-.4-4.7-1.4-6.8-.2-1.1-.4-2.1-.6-3.2-1.2-1.9-.1-4.4-1.6-6.3.3-.6.2-1.2-.3-1.7-1.4-2.1-.5-4.7-1.6-6.9-.2-1.1-.4-2.1-.6-3.2-1.3-1.8.1-4.3-1.7-5.9v-.1c-1.1-1.4-1.2-3.2-1.7-4.8-.1-1.1-.3-2.1-.4-3.2-1.5-1.8-.2-4.5-1.7-6.3.3-.6.2-1.2-.3-1.7-1.5-1 .3-5.1-3.7-4l-.6.4.1.7c-.1 1.3-.8 2.1-1.9 2.7l.1-.1c-.5.8-1.1 1.5-1.7 2.2l-.1.1c-1.2.9-.7 3-2.5 3.5l.4.3-.4-.4c0 1.1-.9 1.7-1.5 2.4v.1c-1.2.9-.7 3.1-2.5 3.6l.4.3-.4-.4c0 1.1-.9 1.7-1.5 2.4v.1c-1.2.9-.6 3.1-2.5 3.5 0 1.2-.8 1.8-1.7 2.3v-.1c-.5.8-1 1.5-1.6 2.2l-.6.4.1.7c-.1 1.3-.8 2.1-1.9 2.7l.1-.1c-.5.8-1 1.5-1.6 2.2l-.6.4.1.7c-.2 1.3-.8 2.2-2.2 2.5l.1-.1c-.1 1.2-.9 1.8-1.9 2.2l.1-.1c-.3 1-1 1.7-2 2.1v-.1c-.5.8-1 1.5-1.6 2.2l-.6.4.1.7c-.1 1.3-.8 2.1-1.9 2.7l.1-.1c-.5.8-1 1.5-1.6 2.2l-.6.4.1.7c-.1 1.3-.8 2.1-1.9 2.7l.1-.1c-.5.8-1.1 1.5-1.7 2.2l-.1.1c-1.2.9-.7 3-2.5 3.5l.4.3-.4-.4c0 1.1-.9 1.7-1.5 2.4v.1c-1.2.9-.7 3.1-2.5 3.6l.4.3-.4-.4c0 1.1-.9 1.7-1.5 2.4v.1c-1.2.9-.7 3.1-2.5 3.6l.4.3-.4-.4c0 1.2-.9 1.7-1.6 2.4-.6.6-1.2 1.3-1.7 2l-.6.4.1.7c-.1 1.3-.8 2.1-1.9 2.7l.1-.1c-.5.8-1 1.5-1.6 2.2l-.6.4.1.7c-.1 1.3-.8 2.1-1.9 2.7l.1-.1c-.5.8-1 1.5-1.6 2.2l-.2.3c-.7.4-1.2 1-1.6 1.7l-.3.2c-1.4.7-.8 2.9-2.5 3.4l.4.4-.4-.4c0 1.1-.9 1.7-1.5 2.4v.1c-1.2.9-.7 3.1-2.5 3.6l.4.3-.4-.4c0 1.1-.9 1.7-1.5 2.4v.1c-1.2.9-.6 3.1-2.5 3.5 0 1.2-.8 1.8-1.7 2.3v-.1c-.5.8-1 1.5-1.6 2.2l-.6.4.1.7c-.1 1.3-.8 2.1-1.9 2.7l.1-.1c-.5.8-1 1.5-1.6 2.2l-.6.4.1.7c-.1 1.3-.8 2.1-1.9 2.7l.1-.1c-.5.8-1 1.5-1.6 2.2l-.6.4.1.7c-.2 1.3-.8 2.2-2.2 2.5l.4.3-.4-.3c0 1.1-.9 1.7-1.5 2.4v.1c-1.2.9-.7 3.1-2.5 3.6l.4.3-.4-.4c0 1.1-.9 1.7-1.5 2.4v.1c-1.2.9-.7 3.1-2.5 3.6l.1-.1c-.1 1.2-.9 1.8-1.9 2.2l.1-.1c-.3 1-1 1.7-2 2.1v-.1c-.5.8-1 1.5-1.6 2.2l-.6.4.1.7c-.1 1.3-.8 2.1-1.9 2.7l.1-.1c-.5.8-1 1.5-1.6 2.2l-.6.4.1.7c-.1 1.3-.8 2.1-1.9 2.7l.1-.1c-.5.8-1.1 1.5-1.7 2.2l-.1.1c-1.2.9-.7 3-2.5 3.5l.4.3-.4-.4c0 1.1-.9 1.7-1.5 2.4v.1c-1.2.9-.7 3.1-2.5 3.6l.4.3-.4-.4c0 1.1-.9 1.7-1.5 2.4v.1c-1.2.9-.7 3.1-2.5 3.6l.4.3-.4-.4c0 1.2-.9 1.7-1.6 2.4-.6.6-1.2 1.3-1.7 2l-.6.4.1.7c-.1 1.3-.8 2.1-1.9 2.7l.1-.1c-.5.8-1 1.5-1.6 2.2l-.6.4.1.7c-.1 1.3-.8 2.1-1.9 2.7l.1-.1c-.5.8-1 1.5-1.6 2.2l-.2.3c-.7.4-1.2 1-1.6 1.7l-.3.2c-1.4.7-.8 2.9-2.5 3.4l.4.4-.4-.4c0 1.1-.9 1.7-1.5 2.4v.1c-1.2.9-.6 3.1-2.5 3.5l.1-.1c-3.1 2.4-6.1 2.4-9.2 0l.1.1c-2-.6-1.4-2.7-2.4-3.9.3-.7.1-1.2-.4-1.7-2-11.6.7-23.3-1.4-34.9-.2-7.7.8-15.5-.6-23.1-1.2-1.9-.1-4.4-1.6-6.3 0-25.9 1-51.8-.5-77.7-1.4-9.5-.2-19.1-.7-28.7-.1-2.2 1.6-5.8-3.1-5.5-.3.9-1.1 1.5-1.8 2.1l-.1.1c-.6.6-1.2 1.3-1.8 1.9l-.1.2c-1.3.8-.6 3-2.5 3.4l.4.4-.4-.5c-.1 1.3-.8 1.9-2 2-.1 1.3-.8 1.9-2 2.1l.4.3-.4-.4c0 1.2-.9 1.7-1.6 2.4-.6.7-1.2 1.3-1.9 1.9l-.1.1c-.6.6-1.2 1.2-1.7 1.9l-.6.4.1.7c-.2 1.3-.8 2.3-2.2 2.4l.1-.1c-.3 1.8-2.6 1.2-3.3 2.5l-.6.4.1.7c-.2 1.3-.8 2.3-2.2 2.4l.5.4-.5-.4c0 1.2-.8 1.8-1.7 2.3l.1-.1c-.5.8-1.1 1.5-1.8 2.1l-.1.1c-.6.6-1.2 1.3-1.8 1.9l-.1.2c-1.3.8-.6 3-2.5 3.4l.4.4-.4-.5c-.1 1.3-.8 1.9-2 2-.1 1.3-.8 1.9-2 2.1l.4.3-.4-.4c0 1.2-.9 1.7-1.6 2.4-.6.7-1.2 1.3-1.9 1.9l-.1.1c-.6.6-1.2 1.2-1.7 1.9l-.6.4.1.7c-.3 2-2.6 1.5-3.4 2.9l-.4.2c-.7.5-1.2 1.1-1.7 1.8l-.6.4.1.7c-.2 1.3-.8 2.3-2.2 2.4l.5.3-.5-.4c-.1 1.3-.8 1.9-2 2.1l.4.3-.4-.4c0 1.2-.9 1.7-1.6 2.4-.6.7-1.2 1.3-1.9 1.9l-.1.1c-.6.6-1.2 1.3-1.8 1.9l-.1.2c-1.3.8-.6 3-2.5 3.4l.4.4-.4-.5c-.1 1.3-.8 1.9-2 2.1l.4.3-.4-.4c0 1.2-.9 1.7-1.6 2.4-.6.7-1.2 1.3-1.9 1.9l-.1.1c-.6.7-1.3 1.3-2 1.8-.9 1.7-2.2 3-3.8 4l-.2.2c-.6.6-1.1 1.2-1.6 1.9l-.6.4.1.7c-.2 1.3-.8 2.3-2.2 2.4l.5.3-.4-.4c-.1 1.3-.8 1.9-2 2 0 1.2-.8 1.8-1.7 2.3l.1-.1c-.5.8-1.1 1.5-1.8 2.1l-.1.1c-.6.6-1.2 1.3-1.8 1.9l-.1.2c-1.3.8-.6 3-2.5 3.4l.4.5-.4-.5c0 1.3-.8 1.9-1.9 2.2-1.3 1.8.4 4.7-2.1 6.1l.1-.1c-.9 8.2-1.4 16.3.3 24.4 1.3 1.1 1 3 1.9 4.3-.3.6-.2 1.2.4 1.6.9 1.3.7 3 1.6 4.4-.3.6-.2 1.2.4 1.6.9 1.3.7 3 1.6 4.4-.3.6-.2 1.2.4 1.6.9 1.3.7 3 1.6 4.4-.2.7-.1 1.2.6 1.6.7 1.2.3 2.9 1.6 3.8l.1.1c1.1 1.1.7 2.9 2 3.9v.1c1.1 1.1.7 2.9 1.9 3.9l.1.1c1.1 1.3.9 3 1.8 4.4-.2.7 0 1.2.6 1.6.7 1.3.5 3 1.5 4.1.2.6.3 1.3.5 1.9.7 1.2.3 2.9 1.6 3.8l.1.1c1.1 1.2.8 2.9 1.8 4.1 1.3 1.2 1.1 3 1.9 4.4-.2.7 0 1.2.6 1.6.7 1.3.5 3 1.5 4.1-.1 1-.1 1.9-.2 2.9-2.3 3.2-4.9 2.1-7.5.6h.1c-.8-.4-1.5-1-2.1-1.7l-.2-.2c-.9-1.2-3-.6-3.5-2.4l-.1-.1c-1.4-.5-3.3 0-3.9-2l-.5.4.5-.4c-1.2 0-1.8-.8-2.2-1.8-.8-.4-1.5-.9-2.2-1.5l-.4-.2c-.7-1.4-2.9-.7-3.2-2.5l-.4.4.3-.5c-1.2.1-1.7-.8-2.3-1.5l-.1-.1c-1-1.1-3.1-.5-3.5-2.4l-.5.5.5-.4c-1.3 0-1.9-.7-2-1.9l-.1-.1c-1.4-.5-3.2 0-3.9-2-1.2.1-1.7-.8-2.3-1.6h-.1c-.7-.6-1.3-1.1-2-1.7l-.4-.2c-.7-1.4-2.8-.8-3.4-2.3-.8-.4-1.5-1-2.1-1.7l-.2-.2c-1-1.1-2.9-.7-3.8-2h-.1c-.7-.6-1.3-1.1-2-1.7l-.4-.2c-.7-1.4-2.9-.7-3.2-2.5l-.4.4.3-.5c-1.2.1-1.7-.8-2.3-1.5l-.1-.1c-1.4-.7-2.8-1.7-4.1.2.1.7.2 1.3.3 2 .9 1.2.6 2.9 1.6 4.1 1.9 1.6.3 4.4 2 6.1.2.6.3 1.2.5 1.9.7 1.3.4 3 1.5 4.1.2.6.3 1.3.5 1.9.6 1.4.6 3 1.4 4.4-.3.6-.2 1.2.4 1.6.9 1.3.7 3 1.6 4.4-.2 1.3-.3 2.5.6 3.6.7 1.3.4 3 1.5 4.1.2.6.3 1.2.5 1.9.7 1.1.2 2.8 1.7 3.7l.2.3c.8 1.4.8 3.1 1.6 4.5-.2.6-.1 1.1.4 1.5.9 1.3.7 3 1.6 4.4-.2 1.3-.3 2.5.6 3.6.6 1.4.8 2.7-.7 3.7l.1-.1c-1.1 1.6-2.4 1.4-3.7.5l-.6-.6-.8.1c-1.5-.7-3.4-.4-4.4-2-1.3-.8-3-.5-4.1-1.6l-.6-.6-.8.1c-1.5-.7-3.4-.4-4.4-2-1.3-.8-2.9-.6-4.1-1.6l-.3-.1c-.9-1.3-2.7-.8-3.8-1.8l-.7-.6-.9.2c-1.3-.8-3.1-.6-4.3-1.7l-.3-.1c-1.2-1.3-2.5-1.2-3.7 0-.5 1.4-.6 2.8.3 4.1 1.6 4.6-.8 9.6 1.5 14.1-.3 10.6-.8 21.2.3 31.8.8 1.3.8 2.6.1 3.9-1.4 10.4-.4 20.8-.6 31.1-1.7 3.4.4 7.5-1.8 10.9-.1 1-.2 2.1-.3 3.1-.1 1.2-.8 2-1.6 2.9-.1 1-.3 2.1-.4 3.1-.5 2.2-2.8 1.8-4.1 2.7l-.6-.4-.6.4c-1.4-.9-3.6-.4-4.1-2.7l.1-.7-.6-.4c-.6-.7-1.1-1.5-1.3-2.4v.1c-1.9-.9-1.6-3-2.2-4.5l.1-.7-.6-.4c-.7-.8-1.4-1.7-1.5-2.8l.1-.7-.6-.4c-.7-.8-1.4-1.7-1.5-2.8l.1-.7-.6-.4c-1-1.2-.7-2.9-1.7-4.1v.1c-1.4-1-1-2.9-2-4.1v.1c-1.4-.9-.9-2.8-2.1-3.8l-.1-.1c-.7-.7-1.2-1.4-1.7-2.2l.1.1c-1.5-1-1.2-2.8-1.9-4.2v.1c-1.7-.7-1.3-2.7-2.3-3.9v.1c-1.4-1-1-2.9-2-4.1v.1c-1-.7-1.8-1.5-1.9-2.8.1-.7-.2-1.2-.9-1.2-.3-.7-.7-1.3-1.4-1.7l-.1-.2c-.5-.8-1.5-1.3-1.4-2.4l-.4.4.4-.3c-1.8-.5-1.2-2.7-2.5-3.6v-.1c-.8-.8-1.6-1.6-1.7-2.8l.1-.7-.6-.4c-.6-.7-1.1-1.4-1.6-2.2v.1c-.9-.5-1.7-1.1-1.7-2.3-1.9-.4-1.3-2.6-2.5-3.5v-.1c-.6-.7-1.6-1.3-1.5-2.4l-.4.3.4-.3c-1.4-.3-2-1.2-2.2-2.5l.1-.7-.6-.4c-.6-.7-1.1-1.4-1.6-2.2v.1c-.9-.5-1.7-1.1-1.7-2.3l-.5.4.5-.4c-1.4-.2-2-1.1-2.2-2.4l.1-.7-.6-.4c-.5-.7-1.1-1.3-1.7-1.9l-.1-.1c-.7-.6-1.3-1.3-1.8-2.1l.1.1c-.9-.5-1.7-1.1-1.7-2.3-1.3-.1-1.9-.7-2-2-1.7-1-3-2.3-4-4-1.3-.1-1.9-.7-2-2-1.3-.1-1.9-.7-2-2l-.5.4.5-.4c-1.4-.1-2-1-2.2-2.3-12.2-14.4-27.7-24.5-44.3-33.1-7.7-4-15.6-7.3-23.9-9.7-14.6-4.2-29.4-4.7-43.8.3-17.5 6-27 20-32.5 36.6-6.3 19-5.6 38.3 3.2 56.3 9.8 19.9 20.9 39.2 34.9 56.6.7.6 1.5 1.2 2 2.1 1.4.7.8 2.8 2.3 3.4l.4.4c.3.8.8 1.3 1.6 1.6l.5.5c.3.8.8 1.3 1.5 1.5l.5.5c.3.8.8 1.3 1.5 1.5l.5.5c.3.8.8 1.3 1.5 1.5.4 1.1.9 2.2 2.3 2.5.2 1.8-.2 2.9-2.3 1.9l-.7-.5-.8.3c-2.6-1.7-5.8.1-8.4-1.6-1.7-1.3-3.5-.9-5.4-.4-2.1-1.2-4.6-.2-6.6-1.6l-.6-.6-.8.1c-1.5-.6-3.2-.6-4.6-1.6l-.6-.6-.8.1c-2.1-1.2-4.6-.2-6.6-1.6l-.6-.6-.8.1c-1.5-.6-3.2-.6-4.6-1.6-1-1-2.2-.9-3.4-.5-1-.2-1.8-.8-2.6-1.4l-.6-.6-.8.1c-2-1.2-4.7 0-6.5-1.8h-.1c-1.7-1.6-4.3-.2-6-1.7l-.7-.6-.9.2c-1.9-1.4-4.6 0-6.3-1.9h-.1c-2.3-2-5.7.3-7.9-2h-.1c-1.7-1.7-4.4-.1-6-1.9l-.7-.5-.8.3c-1.9-1.4-4.5-.2-6.4-1.6l-.6-.6-.8.1c-2-1.2-4.7 0-6.6-1.7l-.7-.5-.8.3c-1.9-1.4-4.5-.2-6.4-1.6-1-1-2.2-.9-3.4-.4-1.5-.6-3.2-.6-4.6-1.6l-.7-.6-.9.2c-1.9-1.4-4.5-.2-6.4-1.6l-.7-.6-.9.2c-1.9-1.4-4.5-.2-6.4-1.6l-.6-.6-.8.1c-1.9-1.4-4.8.4-6.2-2.2l-.1-.1c-1.4-.4-3-.3-4.3-1.3l-.6-.6-.8.1c-2-1.2-4.7 0-6.5-1.8h-.1c-1.7-1.6-4.3-.2-6-1.7l-.6-.6-.8.1c-1.5-.6-3.2-.6-4.6-1.6l-.6-.6-.8.1c-2-1.2-4.7 0-6.5-1.8h-.1c-1.6-1.7-4.3 0-5.9-2h-.1c-1.6-1.6-4.2-.2-5.9-1.8l-.3-.1c-1.4-1.9-4.2-.1-5.7-2.1h-.1c-1.6-1.7-4.3 0-5.9-2h-.1c-1.1-1.1-2.8-.7-4-1.7l-.6-.6-.8.1c-1.5-.7-3.3-.5-4.6-1.7l-.6-.5-.8.2c-1.5-.7-3.3-.5-4.5-1.8h-.1c-1-1.1-3-.6-3.8-2.1-1.3-.8-2.9-.6-4.1-1.6l-.3-.1c-1.5-1.9-4.1-.2-5.7-1.9l-.3-.1c-.9-1.3-2.7-.8-3.7-1.9l-.3-.1c-.9-1.3-2.7-.8-3.8-1.8l-.6-.6-.8.1c-1.5-.6-3.2-.6-4.5-1.6l-.3-.1c-.9-1.3-2.7-.8-3.7-1.9l-.3-.1c-1.4-1.9-4.3 0-5.6-2.2-1.3-.8-2.9-.6-4.1-1.6l-.3-.1c-.9-1.3-2.7-.8-3.7-1.9l-.3-.1c-.9-1.3-2.7-.8-3.7-1.9l-.3-.1c-.9-1.3-2.7-.8-3.8-1.8l-.6-.6-.8.1c-1.4-.7-3.4-.3-4.2-2.2-.9-.2-1.7-.7-2.3-1.4l-.3-.1c-.8-1.3-2.8-.7-3.5-2.2h-.1c-1.2-.8-3.1-.4-4-2-1.3-.8-3-.5-4-1.8l-.1-.1c-1.1-1.1-3-.6-3.8-2.1-1.2-.9-3.2-.3-3.7-2.2l-.4.4.3-.5c-.9-.2-1.7-.7-2.4-1.3l-.6-.6-.8.1c-1.4-.7-3.4-.3-4.2-2.2-1.2.1-1.7-.8-2.3-1.5l-.1-.1c-1.1-1.1-3-.6-3.8-2.2-.8-.4-1.5-.9-2.2-1.5l-.4-.2c-1.1-2.1-4.4.2-5.2-2.6l-.5.4.5-.4c-1.2 0-1.8-.8-2.2-1.8-.8-.4-1.5-.9-2.2-1.5l-.4-.2c-.7-1.4-2.8-.8-3.4-2.3-.8-.4-1.5-.9-2.2-1.5l-.4-.2c-.7-1.4-2.9-.7-3.2-2.5l-.1-.1c-1.4-.5-3.2 0-3.9-2-1.2.1-1.7-.8-2.3-1.6h-.1c-.7-.6-1.3-1.1-2-1.7l-.4-.2c-.7-1.4-2.9-.7-3.2-2.5l-.5.5.5-.5c-1.3-.1-1.9-.7-2-2-1.3-.1-1.9-.7-2-2-1.3-.1-1.9-.7-2-2-1.3-.1-1.9-.7-2-2-1.3-.1-1.9-.7-2-2l-.3.4.3-.4c-1.2.1-1.7-.8-2.3-1.6h-.1c-.7-.6-1.4-1.2-2-1.9l-.1-.1c-.6-.6-1.3-1.2-1.9-1.9l-.1-.1c-.6-.6-1.3-1.2-1.9-1.9l-.1-.1c-.7-.6-1.3-1.3-1.9-1.9-1.2-1.3-1.2-2.6.2-3.8h-.1c.5-.9 1.3-1.5 2.2-2h16.9c8.8 2 17.8-.1 26.6 1.2 9.3 1.5 18.7.3 28.1.7 9.2 2.3 18.6-.1 27.9 1.3 9.3 1.5 18.7.3 28.1.7 9.2 2.3 18.6-.1 27.9 1.3 9.3 1.5 18.7.3 28.1.7 9.2 2.3 18.6-.1 27.9 1.3 4.7 1.3 9.4.7 14.1.3 1.7-.6.8-1.2 0-1.7l-.6-.5-.8.2c-1.5-.7-3.4-.4-4.4-2-1.3-.8-2.9-.6-4.1-1.6l-.3-.1c-1.4-1.9-4.3 0-5.6-2.2-1.3-.8-3-.5-4-1.8h-.1c-1.1-1.1-2.8-.7-3.9-1.8l-.3-.1c-1.4-1.9-4.3 0-5.6-2.3-.8-.4-1.5-.9-2.2-1.4l-.6-.6-.8.1c-1.5-.7-3.4-.4-4.4-2-1.2-.8-3.1-.4-4-2-1.3-.8-2.9-.6-4.1-1.6l-.3-.1c-.9-1.3-2.7-.8-3.7-1.9l-.3-.1c-.9-1.3-2.7-.8-3.8-1.8l-.6-.6-.8.1c-1.5-.6-3.2-.6-4.5-1.6l-.3-.1c-.9-1.3-2.7-.8-3.7-1.9l-.3-.1c-.9-1.3-2.7-.8-3.7-1.9l-.3-.1c-1.4-1.9-4.3 0-5.6-2.2-1.2-.8-3.1-.4-4-2-1.2-.9-3.2-.3-3.7-2.2l-.4.5.4-.5c-1.2.1-1.7-.8-2.3-1.5l-.1-.1c-1.1-1.1-3-.6-3.8-2.1h-.1c-1.3-.8-2.9-.6-4.1-1.6l-.3-.1c-.9-1.3-2.7-.8-3.7-1.9l-.3-.1c-.9-1.3-2.8-.8-3.7-2l-.1-.1c-1.1-1.1-2.9-.7-3.9-2h-.1c-1.1-1.1-2.8-.7-3.9-1.8l-.3-.1c-.9-1.3-2.8-.8-3.7-2l-.1-.1c-1.1-1.1-3-.6-3.8-2.1h-.1c-1.3-.8-2.9-.6-4.1-1.6l-.3-.1c-.8-1.3-2.8-.7-3.5-2.2h-.1c-1.2-.8-3.1-.4-3.9-2-.8-.4-1.5-.9-2.2-1.5l-.4-.2c-.7-1.4-2.8-.8-3.4-2.3-.8-.4-1.5-.9-2.2-1.4l-.6-.6-.8.1c-1.4-.7-3.4-.3-4.2-2.2-.9-.2-1.7-.7-2.3-1.4l-.3-.1c-.8-1.3-2.8-.7-3.5-2.2h-.1c-1.2-.8-3.1-.4-4-2-1.2-.8-3.1-.4-3.9-2-.8-.4-1.5-.9-2.2-1.5l-.4-.2c-.7-1.4-2.8-.8-3.4-2.3-.8-.4-1.5-.9-2.2-1.4l-.6-.6-.8.1c-1.1-.2-1.8-.9-2.6-1.5l-.4-.2c-.8-1.4-2.7-.8-3.6-2.1l-.1-.1c-1-1.1-3.1-.5-3.5-2.4l-.5.5.5-.4c-1.2 0-1.8-.8-2.2-1.8-.8-.4-1.5-1-2.1-1.7l-.2-.2c-.9-1.2-3-.6-3.5-2.4l-.1-.1c-1.4-.5-3.2 0-3.9-2-1.2.1-1.7-.8-2.3-1.5l-.1-.1c-1-1.1-3.1-.5-3.5-2.4l-.5.5.5-.4c-1.2 0-1.8-.8-2.2-1.8-.8-.4-1.5-.9-2.2-1.4l-.6-.6-.8.1c-1.1-.2-1.8-.9-2.5-1.6l-.2-.2c-.9-1.2-3.1-.5-3.5-2.4l-.5.5.5-.4c-1.2 0-1.8-.8-2.2-1.8-.8-.4-1.5-1-2.2-1.7l-.1-.1c-.6-.6-1.2-1.2-1.9-1.7l-.4-.2c-.7-1.4-2.9-.7-3.2-2.5l-.4.4.3-.5c-1.2.1-1.7-.8-2.3-1.5l-.1-.1c-1-1.1-3.1-.5-3.6-2.4l-.4.5.3-.5c-1.2.1-1.7-.8-2.3-1.6h-.1c-.7-.6-1.3-1.2-2-1.8l-.2-.2c-.9-1.2-3.1-.5-3.5-2.4l-.5.5.5-.4c-1.3-.1-1.9-.7-2-2-1.2 0-1.8-.8-2.2-1.7h-.1c-1.2-.9-3.2-.3-3.7-2.3l-.4.5.5-.4c-1.3-.1-1.9-.7-2-2-1.3-.1-1.9-.7-2-2l-.3.4.3-.4c-1.2.1-1.7-.8-2.3-1.6h-.1c-.7-.6-1.4-1.2-2-1.9l-.1-.1c-.6-.6-1.3-1.2-1.9-1.9l-.1-.1c-.6-.6-1.3-1.2-1.9-1.9l-.1-.1c-.6-.6-1.3-1.2-1.9-1.9l-.1-.1c-.6-.6-1.3-1.2-1.9-1.9l-.1-.1c-.6-.6-1.2-1.2-1.9-1.7l-.4-.2c-.8-1.4-2.7-.8-3.6-2.1h-.1c-.7-.6-1.4-1.2-2-1.9l-.1-.1c-.7-.6-1.3-1.3-1.8-2.1l.1.1c-.9-.5-1.7-1.1-1.7-2.3-1.3-.1-1.9-.7-2-2-1.3-.1-1.9-.7-2-2-1.3-.1-1.9-.7-2-2-1.3-.1-1.9-.7-2-2-1.3-.1-1.9-.7-2-2l-.5.4.5-.4c-1.4-.2-2-1.1-2.2-2.4l.1-.7-.6-.4c-.7-1.3-2.9-.7-3.3-2.5l-.5.5.5-.4c-1.3-.1-1.9-.7-2-2l-.4.5.5-.5c-1.9-.4-1.3-2.6-2.5-3.4l-.1-.1c-.6-.6-1.2-1.3-1.8-2-.7-.7-1.6-1.2-1.6-2.4l-.4.4.4-.4c-1.2-.2-1.9-.8-2-2.1l-.4.5.5-.5c-1.9-.4-1.3-2.6-2.5-3.4l-.1-.1c-.7-.7-1.2-1.4-1.7-2.2l.1.1c-1.1-.6-1.8-1.4-1.9-2.7l.1-.7-.6-.4c-.6-.7-1.1-1.4-1.6-2.2l.1.1c-1.1-.6-1.8-1.4-1.9-2.7l.2-.7-.5-.5c-1.2-1.2-1-2.9-1.6-4.4l.1.1c-1.8-1-1.5-3-2.2-4.6l.2-.7-.5-.5c-1.2-1.4-1.2-3.2-1.7-4.9l.3-.7-.5-.5c-1.4-2-1.3-3.9 0-5.9.6.2 1.3.2 1.9.1.6.5 1.3 1 2 1.3 1.4.2 2.7.5 4.1.7 1.1 1.1 2.8.7 4 1.7.2.7.7.8 1.3.5 1 0 1.7.9 2.6 1.1 1.1.3 2.3.6 3.4.8 1.5.6 3.2.7 4.6 1.4.6.2 1.3.3 1.9.5.6.5 1.3 1 2.1 1.4.2.7.6 1 1.3.7 1 0 1.7.9 2.6 1.1 1.1.3 2.3.6 3.4.8 1.5.6 3.2.7 4.6 1.4.7.1 1.4.3 2 .4 1.1 1.1 2.8.7 4 1.6.7.1 1.4.3 2 .4 1.7 1.7 4.2.3 6 1.6.7.1 1.4.3 2 .4 1.1 1.1 2.7.7 4 1.5 1.3.2 2.7.3 4 .5 1.1.9 2.6.9 3.9 1.3 1.1.3 2.3.6 3.4.8 1.5.5 3 .8 4.6 1.1 1.4.2 2.7.5 4.1.7 1.1 1.1 2.7.8 3.9 1.5l3.3.6c2.1 1.1 4.5.4 6.6 1.4 1.1.2 2.2.4 3.4.6 2.1 1.1 4.5.4 6.6 1.4 1.4.2 2.7.3 4.1.5 2.4 1.9 5.5.1 7.9 1.5 1.8.2 3.5.4 5.3.6 3.4 1.6 7.2 0 10.7 1.4 2.6.2 5.2.4 7.7.6.8.5 1.5.9 2.3 1.4 2 .2 4 .3 6 .5 3.1 2.1 6.8-.1 9.9 1.5 3.4.2 6.7.3 10.1.5 3.8 2.1 8 .1 11.9 1.3 4.7 1.4 9.4.4 14.1.7 11.9 2.4 24-.4 35.9 1.5h2.1c13.3-1.9 26.7.9 39.9-1.5 4-.2 8.1.6 12.1-.7 2.8-.8 5.9.2 8.6-1.2 1.3-.4 3.8.9 3.1-2.3-.5-.7-1.1-1.3-1.7-1.9l-.1-.1c-.6-.6-1.3-1.2-1.9-1.9l-.1-.1c-.6-.6-1.3-1.2-1.9-1.8l-.2-.2c-1-1.2-2.9-.6-3.7-2.2-.8-.4-1.5-1-2.2-1.7l-.1-.1c-.6-.6-1.2-1.2-1.9-1.7l-.4-.2c-.7-1.4-2.9-.7-3.2-2.5l-.5.5.5-.4c-1.2 0-1.8-.8-2.2-1.8-.8-.4-1.5-1-2.2-1.7l-.1-.1c-.6-.6-1.3-1.2-1.9-1.8l-.2-.2c-1-1.1-2.9-.7-3.8-2h-.1c-.7-.6-1.3-1.2-2-1.8l-.1-.1c-.6-.6-1.3-1.2-1.9-1.8l-.2-.2c-.9-1.2-3.1-.6-3.5-2.4l-.4.4.5-.4c-1.3-.1-1.9-.7-2-2l-.4.4.3-.5c-1.2.1-1.7-.8-2.3-1.6l-.1-.1c-.7-.6-1.3-1.2-1.9-1.8l-.2-.2c-1-1.2-2.9-.6-3.7-2.2-.8-.4-1.5-1-2.1-1.7l-.2-.2c-.9-1.2-3.1-.6-3.5-2.4l-.4.4.5-.4c-1.3-.1-1.9-.7-2-2l-.4.4.3-.5c-1.2.1-1.7-.8-2.3-1.6l-.1-.1c-.7-.6-1.3-1.2-1.9-1.8l-.2-.2c-.9-1.2-3.1-.6-3.5-2.4l-.4.4.5-.4c-1.3-.1-1.9-.7-2-2l-.4.4.3-.4c-.9-.2-1.7-.7-2.3-1.4l-.3-.1c-.7-1.3-3-.7-3.3-2.5l-.4.5.5-.4c-1.3-.1-1.9-.7-2-2l-.4.4.3-.5c-1.2.1-1.7-.8-2.3-1.6l-.1-.1c-.7-.6-1.3-1.2-1.9-1.8l-.2-.2c-.9-1.2-3.1-.6-3.5-2.4l-.5.4.5-.4c-1.2 0-1.8-.8-2.3-1.7h-.1c-1.2-.9-3.2-.3-3.7-2.3l-.4.4.5-.4c-1.3-.1-1.9-.7-2-2l-.4.4.3-.5c-1.2.1-1.7-.8-2.3-1.6l-.1-.1c-.7-.6-1.3-1.2-1.9-1.8l-.2-.2c-.9-1.2-3.1-.6-3.5-2.4l-.4.4.5-.4c-1.3-.1-1.9-.7-2-2-1.2 0-1.8-.8-2.3-1.7h-.1c-1.2-.9-3.2-.3-3.7-2.3l-.5.4.5-.4c-1.2 0-1.8-.8-2.2-1.8-.8-.4-1.5-1-2.2-1.7l-.1-.1c-.6-.6-1.2-1.2-1.9-1.7l-.4-.2c-.7-1.4-2.9-.7-3.2-2.5l-.5.5.5-.4c-1.2-.1-1.9-.7-2-2l-.1-.1c-1.4-.5-3.3 0-3.9-2l-.4.4.5-.4c-1.2 0-1.8-.8-2.2-1.8-.8-.4-1.5-1-2.2-1.7l-.1-.1c-.6-.6-1.2-1.2-1.9-1.7l-.4-.2c-.7-1.4-2.9-.7-3.2-2.5l-.5.5.5-.4c-1.3-.1-1.9-.7-2-2l-.4.4.3-.5c-1.2.1-1.7-.8-2.3-1.6l-.1-.1c-.7-.6-1.3-1.2-1.9-1.8l-.2-.2c-1-1.1-2.9-.7-3.8-2h-.1c-.7-.6-1.3-1.2-1.9-1.8l-.2-.2c-.9-1.2-3.1-.6-3.5-2.4l-.4.4.5-.4c-1.3-.1-1.9-.7-2-2l-.4.4.3-.5c-1.2.1-1.7-.8-2.3-1.6l-.1-.1c-.7-.6-1.3-1.2-1.9-1.8l-.2-.2c-1-1.1-2.9-.7-3.8-2h-.1c-.7-.6-1.3-1.2-1.9-1.8l-.2-.2c-.9-1.2-3.1-.6-3.5-2.4l-.4.4.5-.4c-1.3-.1-1.9-.8-2-2-1.2 0-1.8-.8-2.2-1.8-.8-.4-1.5-1-2.2-1.7l-.1-.1c-.6-.6-1.2-1.2-1.9-1.7l-.4-.2c-.7-1.4-2.8-.8-3.4-2.3-.8-.4-1.5-.9-2.2-1.5l-.4-.2c-.7-1.4-2.9-.7-3.2-2.5l-.4.5.3-.5c-1.2.1-1.7-.8-2.3-1.6l-.1-.1c-.7-.6-1.3-1.2-1.9-1.8l-.2-.2c-.9-1.2-3.1-.6-3.5-2.4l-.5.4.5-.4c-1.2 0-1.8-.8-2.3-1.7h-.1c-1.2-.9-3.2-.3-3.7-2.3l-.4.4.4-.4c-1.3-.1-1.9-.8-2-2-1.2 0-1.8-.8-2.2-1.8-.8-.4-1.5-1-2.2-1.7l-.1-.1c-.6-.6-1.2-1.2-1.9-1.7l-.4-.2c-.7-1.4-2.9-.7-3.2-2.5l-.5.5.5-.5c-1.2 0-1.8-.8-2.3-1.7h-.1c-1.2-.9-3.2-.3-3.7-2.3l-.5.4.5-.4c-1.2 0-1.8-.8-2.2-1.8-.8-.4-1.5-1-2.2-1.7l-.1-.1c-.6-.6-1.2-1.2-1.9-1.7l-.4-.2c-.7-1.4-2.9-.7-3.2-2.5l-.5.5.5-.5c-1.2 0-1.8-.8-2.3-1.7h-.1c-1.2-.9-3.2-.3-3.7-2.3l-.4.4.5-.4c-1.3-.1-1.9-.7-2-2l-.4.4.3-.5c-1.2.1-1.7-.8-2.3-1.6l-.1-.1c-.7-.6-1.3-1.2-1.9-1.8l-.2-.2c-1.1-1.2-3.5-.7-3.7-3.1v.2c.1-1.2.7-2.1 1.3-3 .6-.4.8-.9.6-1.5 2.3-2.7 5.1-1.3 7.7-.9 1.4.2 2.7.3 4.1.5 1.7 1.7 4.1.3 5.9 1.5 1.1.2 2.3.4 3.4.6 1.5.6 3.1.7 4.6 1.4 1.4.2 2.7.3 4.1.5 1.1 1 2.6.9 3.9 1.3 1.4.2 2.7.5 4.1.7 1.7 1.7 4.2.3 5.9 1.6.7.1 1.4.3 2.1.4 1.1 1 2.6.9 3.9 1.3 1.4.2 2.7.5 4.1.7 1.6 1.7 4.3.2 5.9 1.8l.3.1c1 1.1 2.5 1 3.7 1.3 1.4.2 2.7.5 4.1.7 1.7 1.7 4.1.3 5.9 1.5 1.1.2 2.3.4 3.4.6 1.5.6 3.1.7 4.6 1.4 1.4.2 2.7.3 4.1.5 1.1 1 2.6.9 3.9 1.3 1.4.2 2.7.5 4.1.7 1.7 1.7 4.1.3 5.9 1.5 1.1.2 2.3.4 3.4.6 1.5.6 3.1.7 4.6 1.4 1.4.2 2.7.3 4.1.5 1.1 1 2.6.9 3.9 1.3 1.4.2 2.7.5 4.1.7 1.7 1.7 4.1.3 5.9 1.5 1.1.2 2.3.4 3.4.6 1.5.6 3.1.7 4.6 1.4 1.4.2 2.7.3 4.1.5 1.1 1 2.6.9 3.9 1.3 1.8.3 3.6.6 5.4.8 1.5.6 3.1.7 4.6 1.4 1.1.2 2.3.4 3.4.6 1.5.6 3.1.7 4.6 1.4 1.2.2 2.5.4 3.7.6.8.5 1.5.9 2.3 1.4 1.1.2 2.2.4 3.4.6 1.5.6 3.1.7 4.6 1.4 1.4.2 2.7.3 4.1.5 1.1 1.1 2.7.8 3.9 1.5 1.1.2 2.3.4 3.4.6 1.5.5 3 .8 4.6 1.1 1.4.2 2.7.5 4.1.7 1.1 1 2.6.9 3.9 1.3 1.8.3 3.6.6 5.4.8 1.5.6 3.1.7 4.6 1.4 1.1.2 2.3.4 3.4.6 1.5.5 3 .8 4.6 1.1 1.4.2 2.7.5 4.1.7 1.1 1 2.6.9 3.9 1.3 1.8.3 3.6.6 5.4.8 1.5.6 3.1.7 4.6 1.4 1.1.2 2.3.4 3.4.6 1.5.6 3.1.7 4.6 1.4 1.1.2 2.3.4 3.4.6 1.5.6 3.1.7 4.6 1.4 1.4.2 2.7.3 4.1.5 1.1 1 2.6.9 3.9 1.3 1.4.2 2.7.5 4.1.7 1.6 1.7 4.3.2 5.9 1.8l.3.1c1 1.1 2.5 1 3.7 1.3 1.4.2 2.7.5 4.1.7 1.1 1 2.6.9 3.9 1.3l5.4.9c1 0 1.7.9 2.6 1.1 1.4.2 2.7.5 4.1.7 1.7 1.7 4.1.3 5.9 1.5 1.1.2 2.3.4 3.4.6 1.5.6 3.1.7 4.6 1.4 1.4.2 2.7.3 4.1.5 1.1 1 2.6.9 3.9 1.3 1.4.2 2.7.5 4.1.7 1.7 1.7 4.1.3 5.9 1.5 1.1.2 2.3.4 3.4.6 1.5.6 3.1.7 4.6 1.4 1.4.2 2.7.3 4.1.5 2.9 1.7 5.8 1 8.7.1 1.2 0 1.6-.8 1.5-1.8.5-.8.9-1.6 1.4-2.4.6-.4.8-.9.6-1.6.5-.8.9-1.6 1.4-2.4.6-.4.8-.9.6-1.6.5-.8.9-1.6 1.4-2.4.6-.4.8-.9.6-1.6.3-1 1-1.7 1.7-2.5l.1-.1c1.3-1 .9-2.8 1.9-3.9l.1-.1c1.3-1 .9-2.8 1.9-3.9l.1-.1c1.3-1 .9-2.8 1.9-3.9l.1-.1c1.3-1 .9-2.8 1.9-3.9l.1-.1c1.3-1 .9-2.8 2-3.8l.1-.2c.7-.4 1.1-1 1.3-1.7.3-.6.6-1.1.9-1.7.4-.9 1.1-1.6 1.6-2.5l.2-.3c1.5-.8.9-2.7 2-3.7l.1-.1c1.3-1 .9-2.8 1.9-3.9l.1-.1c1.3-1 .9-2.8 1.9-3.9l.1-.1c1.3-1 .9-2.8 2-3.8l.1-.2c.6-.4 1.1-1 1.3-1.7 1.2-1.1 2.8-2 2.8-4 1.1-1.1.7-3 2-4.1.6-.7 1.1-1.4 1.6-2.1l.2-.3c1.5-.8.9-2.7 2.1-3.6v-.1c.6-.6 1.2-1.3 1.8-1.9l.2-.2c.6-.6 1.2-1.2 1.7-2l.2-.3c1.5-.8.9-2.7 2.2-3.6.6-.7 1.1-1.4 1.6-2.1l.2-.3c1.5-.7.9-2.8 2.3-3.6.5-.8 1.1-1.5 1.8-2.2l.1-.2c.7-.5 1.2-1.1 1.5-1.9l.4-.4c1.5-.6.9-2.7 2.3-3.4.5-.8 1.1-1.5 1.8-2.2l.1-.2c.7-.4 1.1-1 1.3-1.7.3-.5.6-1.1.9-1.6.4-1 1-1.8 1.9-2.4.6-.7 1.1-1.4 1.6-2.1l.2-.3c.7-.4 1.3-.9 1.6-1.7l.4-.3c.7-.4 1.3-.9 1.7-1.6l.3-.4c.7-.3 1.2-.9 1.5-1.7l.5-.5c.7-.2 1.2-.7 1.3-1.4.7-.3 1-.8.9-1.6.4-1 1-1.8 2-2.4v.1c.5-.9 1.2-1.6 2-2 .5-.8 1.1-1.5 1.8-2.2l.1-.2c.7-.5 1.2-1.1 1.5-1.9l.5-.5c.8-.2 1.3-.8 1.5-1.5l.5-.5c.8-.2 1.3-.8 1.5-1.5l.5-.5c.7-.2 1.2-.7 1.3-1.4.7-.3 1-.8.9-1.6.4-1 1-1.8 2-2.4v.1c.5-.9 1.2-1.6 2-2l-.1.1c.6-1 1.5-1.8 2.7-1.9.7.1 1.2-.2 1.3-1 .7-.2 1.2-.6 1.4-1.4l.5-.5c.8-.2 1.3-.8 1.5-1.5l.5-.5c.8-.2 1.3-.8 1.5-1.5l.5-.5c.8-.2 1.3-.8 1.5-1.5l.5-.5c.8-.2 1.3-.8 1.5-1.5l.5-.5c.8-.3 1.3-.8 1.6-1.5l.4-.3c.7-.4 1.4-.9 2-1.5l.1-.1c.6-.7 1.3-1.3 2.1-1.9.5-.9 1.3-1.5 2.2-2 .6-.3 1.2-.5 1.8-.7.7-.3 1.4-.8 1.9-1.3l.1-.1c.6-.7 1.3-1.3 2.1-1.9h-.1c.6-1 1.5-1.8 2.7-1.9.8.1 1.2-.2 1.3-1 .7-.2 1.3-.6 1.6-1.3l.3-.2c.7-.6 1.4-1.2 2.1-1.7h-.1c.6-1 1.5-1.8 2.7-1.9.8.1 1.2-.2 1.3-1 .7-.2 1.2-.6 1.5-1.3l.4-.2c.7-.5 1.4-1.1 2.1-1.7.7-.3 1.3-.6 2-.8.8 0 1.2-.3 1.2-1.2 1.8-2.6 1-5.4.6-8.1-2.2-3.7.7-8.3-1.8-11.9v-.1c-2.2-3.1.3-7.1-1.9-10.3.2-3.3.7-6.5-.4-9.7-1.5-3.5.1-7.4-1.4-10.8-.1-2.4-.3-4.8-.4-7.1-2-4.1.2-8.7-1.6-12.9 0-3.1.6-6.2-.6-9.2-1.5-3.5.1-7.4-1.4-10.8 0-3.1.6-6.2-.6-9.2-1.5-3.5.1-7.4-1.4-10.8 0-3.1.6-6.2-.6-9.2-.8-7.7-2.6-15.2-3.4-22.8-.1-2.4-.3-4.8-.4-7.1-2.1-3.9.5-8.4-1.7-12.3 0-5.1.1-10.1.1-15.2.4-1.1 1.1-1.8 2.1-2.3 2 0 3.9-.1 5.9-.1.5.7 1.1 1.1 1.8 1.4l.5.5c.3.8.8 1.3 1.5 1.7l.2.3c.5.7 1.1 1.4 1.6 2.1.9.6 1.5 1.4 1.9 2.4-.1.8.2 1.3.9 1.6.2.7.6 1.2 1.3 1.4l.5.5c.3.8.8 1.4 1.5 1.9l.1.2c.7.7 1.2 1.4 1.8 2.2 1.4.7.8 2.8 2.3 3.4l.4.4c.3.8.8 1.4 1.5 1.9l.1.2c.6.7 1.2 1.3 1.9 1.8l.3.2c.5.7 1 1.3 1.7 1.8l.1.2c.7.7 1.2 1.4 1.8 2.2 1.4.7.8 2.8 2.3 3.4l.4.4c.3.8.8 1.4 1.5 1.9l.1.2c.7.7 1.2 1.4 1.8 2.2 1.4.7.8 2.8 2.3 3.4l.4.4c.3.8.8 1.4 1.5 1.7l.2.3c.5.7 1.1 1.4 1.6 2.1.9.6 1.5 1.4 1.9 2.4.3.5.6 1.1.9 1.6.2.7.6 1.3 1.3 1.6l.2.3c.5.7 1.1 1.4 1.6 2.1.8.6 1.5 1.2 2 2.1.9.5 1.7 1.2 1.8 2.3l-.1-.1c1.2.2 1.8 1.1 2.2 2.1.3.5.6 1.1.9 1.6.2.7.6 1.3 1.3 1.6l.2.3c.4.8 1.3 1.4 1.4 2.4l-.1-.1c1.1.3 1.8 1.2 2.2 2.2-.1.8.2 1.3.9 1.6.2.7.6 1.2 1.3 1.4l.5.5c.3.8.8 1.4 1.5 1.9l.1.2c.7.7 1.2 1.4 1.8 2.2 1.4.7.8 2.8 2.3 3.4l.4.4c.3.8.8 1.4 1.5 1.9l.1.2c.7.7 1.2 1.4 1.8 2.2 1.4.7.8 2.8 2.3 3.4l.4.4c.3.8.8 1.4 1.5 1.7l.2.3c.5.7 1.1 1.4 1.6 2.1.9.6 1.6 1.4 1.9 2.4-.2.7.1 1.2.8 1.4 4.9-1.6 2.2-5.6 2.3-8.3.8-20.5-.9-41.1 1-61.6l.1-.1c2.7-5.8-.4-12.1 1.8-17.9 1-3.2.6-6.4.4-9.6 2.1-3.9-.3-8.4 1.6-12.4.9-1.9.6-3.9.3-5.9 2.2-3.1-.1-7 1.7-10.1l.3-3.9c2.2-3.1-.1-7 1.7-10.1.1-1.2.3-2.4.4-3.6 1.4-1.9.4-4.3 1.4-6.4.9-1.2.8-2.5.5-3.9 1.6-1.8.4-4.3 1.7-6.2l.2-.3c2.1-1.4.4-4.1 1.8-5.7.1-1.2.3-2.4.4-3.6.8-1.3.8-3 1.4-4.4.9-1.1.8-2.4.6-3.6 1.4-1.9.3-4.4 1.6-6.4.1-.6.2-1.2.3-1.9 1.7-1.7.3-4.3 1.7-6.1.6-.4.7-1 .4-1.6.9-1.3.7-3 1.6-4.4.5-.5.7-1.2.3-1.9 1.1-1.2.8-3 1.8-4.2v-.1c1.3-1 .9-2.6 1.6-3.8.2-.6.3-1.3.5-1.9 1.1-1.2.8-2.8 1.5-4.1.2-.6.3-1.3.5-1.9 1.1-1.2.8-2.8 1.5-4.1.6-.4.8-.9.6-1.6.9-1.3.7-3.1 1.8-4.4l.1-.1c1.3-1 .9-2.6 1.6-3.8.6-.4.8-.9.6-1.6.8-1.4.6-3.2 1.9-4.4.6-.6 1-1.3 1.5-2.1.6-.4.8-.9.6-1.6.9-1.3.7-3.1 1.8-4.4l.1-.1c1.3-1 .9-2.8 1.9-3.9l.1-.1c1.3-1 .9-2.8 1.9-3.9l.1-.1c1.3-1 .9-2.8 2-3.8l.1-.2c.7-.4 1.1-1 1.3-1.7.3-.6.6-1.1.9-1.7.4-.9 1.1-1.6 1.6-2.5l.2-.3c1.5-.8.9-2.7 2-3.7l.1-.1c1.3-.9.8-2.9 2.1-3.8.6-.6 1-1.3 1.5-2.1.6-.4.8-.9.6-1.6.3-1 1-1.7 1.7-2.5l.1-.2c.7-.5 1.2-1.1 1.5-1.9l.4-.4c1.6-.6.9-2.7 2.2-3.4.6-.7 1.1-1.4 1.6-2.1l.2-.3c1.5-.7.9-2.8 2.3-3.6.5-.8 1.1-1.5 1.8-2.2l.1-.2c.7-.5 1.2-1.1 1.7-1.8l.3-.2c.7-.6 1.3-1.2 1.9-1.8l.1-.2c.7-.5 1.2-1.1 1.5-1.9l.4-.4c1.5-.6.9-2.7 2.3-3.4.5-.9 1.2-1.6 2-2 .5-.9 1.2-1.6 2-2 .5-.9 1.2-1.5 2-2.1.6-.7 1.1-1.4 1.6-2.1l.2-.3c.7-.4 1.3-.9 1.5-1.7l.5-.5c.8-.2 1.3-.8 1.5-1.5l.5-.5c.8-.2 1.3-.8 1.5-1.5l.5-.5c.8-.3 1.3-.8 1.6-1.5l.4-.3c.7-.4 1.4-.9 2-1.5l.1-.1c.6-.7 1.3-1.4 2.1-1.9.5-.9 1.2-1.6 2-2l-.1.1c.6-1 1.5-1.8 2.7-1.9.7.1 1.2-.2 1.3-1 .7-.2 1.2-.6 1.4-1.4l.5-.5c.8-.3 1.3-.8 1.6-1.5l.4-.3c.7-.4 1.4-.9 2-1.5l.1-.1c.6-.7 1.3-1.4 2.1-1.9.5-.9 1.3-1.5 2.2-2 .7.1 1.2 0 1.7-.5.7-.5 1.5-1 2.3-1.5.6-.3 1.2-.5 1.8-.8 2-.5 3.9-.6 5.8.2l.5.4c.4.8.9 1.5 1.5 2.2.2.6.3 1.2.5 1.9.6 1.4.7 2.7-.3 3.9-.5.5-.5 1.1-.3 1.7-1.6 1.8-.2 4.5-1.7 6.3-.1 1.1-.3 2.1-.4 3.2-.5 1.6-.7 3.3-1.4 4.8-.1 1.2-.3 2.5-.4 3.7-1.6 1.8-.2 4.5-1.7 6.3-.1 1.2-.2 2.5-.3 3.7-1.6 1.8 0 4.6-2.1 6.2v-.1c-.9 1.2-.7 2.9-1.5 4.1-1 1.8-.6 3.8-.4 5.7-1.9 2.5.1 5.8-1.7 8.3-.1 1.2-.2 2.5-.3 3.7-1.8 2.5-.1 5.7-1.6 8.3-1.1 2.5-.6 5.1-.4 7.7-2.1 3.2.3 7.1-1.7 10.3-.5.5-.5 1.1-.3 1.7-.7.9-.7 1.8 0 2.7 0 .9-.1 1.8-.1 2.7-1.9 4.8.5 10.1-1.6 14.9-.9 6.5-.4 13.1-.3 19.6-1.4 8.2-1.6 16.4.1 24.6-.1 6.6-1 13.3.5 19.9 1.5 3.9-.7 8.3 1.5 12.1-.2 2.7-.8 5.3.5 7.9 1.2 2.7-.3 5.8 1.4 8.4-.2 1.9-.5 3.9.6 5.6 1 2 0 4.4 1.4 6.4.1 1.2.3 2.4.4 3.6 1.3 1.9.2 4.5 1.6 6.4-.2 1.3-.3 2.5.6 3.6.6 1.3.5 2.9 1.5 4 1.9 1.6.3 4.4 2 6.1.1.6.2 1.2.3 1.9.9 1.3.7 3 1.6 4.4-.2 1.3-.3 2.5.6 3.6.6 1.4.6 3 1.4 4.4-.3.6-.2 1.2.4 1.6.9 1.3.7 3 1.6 4.4-.3.6-.2 1.2.4 1.6.9 1.3.7 3 1.6 4.4-.2.7-.1 1.3.6 1.6.6 1.2.4 2.7 1.7 3.6l.2.3c.5.9 1.2 1.5 1.6 2.5-.3.6-.1 1.2.4 1.6.9 1.1.5 2.9 1.8 3.9l.1.1c1.1 1.3.9 3 1.8 4.4-.2.7-.1 1.2.6 1.6.5.8.9 1.6 1.4 2.4-.2.7 0 1.2.6 1.6.5.8.9 1.6 1.4 2.4-.2.7 0 1.2.6 1.6.4.7.9 1.3 1.5 1.9l.2.2c.6.6 1.2 1.3 1.8 1.9v.1c1.2 1.1.9 2.9 1.9 4 1.3.9.7 2.9 2.2 3.6l.2.3c.5.7 1 1.4 1.7 2.1.7.6 1.4.6 2.2.1l1.8-2.1.1-.2c.6-.4 1.1-1 1.3-1.7.3-.5.6-1.1.9-1.6.3-1 1-1.7 1.7-2.5l.1-.2c.6-.4 1.1-1 1.3-1.7.3-.5.6-1.1.9-1.6.4-1 1-1.7 1.8-2.4v-.1c.6-.6 1.2-1.3 1.8-1.9l.2-.2c.6-.6 1.2-1.2 1.7-2l.2-.3c.7-.3 1.1-.8 1.3-1.6.3-.5.6-1.1.9-1.6.4-1 1-1.8 1.9-2.4.6-.7 1.1-1.4 1.6-2.1l.2-.3c1.5-.7.9-2.8 2.3-3.6.5-.9 1.2-1.5 2-2.1.6-.7 1.1-1.4 1.6-2.1l.2-.3c.7-.3 1.1-.8 1.3-1.6.3-.5.6-1.1.9-1.6.4-1 1-1.8 2-2.4.5-.8 1.1-1.5 1.8-2.2l.1-.2c.7-.5 1.2-1.1 1.5-1.9l.5-.5c.8-.3 1.3-.8 1.7-1.5l.4-.2c.7-.5 1.3-1.1 1.8-1.8l.2-.3c.7-.3 1.1-.8 1.3-1.6.3-.5.6-1.1.9-1.6.4-1 1-1.8 2-2.4.5-.9 1.2-1.5 2-2.1.6-.7 1.1-1.4 1.6-2.1l.2-.3c.7-.3 1.3-.9 1.5-1.7l.5-.5c.8-.3 1.3-.8 1.5-1.5l.4-.4c1.5-.6.9-2.7 2.3-3.4.5-.9 1.2-1.6 2-2 .5-.8 1.1-1.5 1.8-2.2l.1-.2c.7-.5 1.2-1.1 1.5-1.9l.5-.5c.8-.3 1.3-.8 1.6-1.5l.4-.3c.7-.4 1.4-.9 2-1.5l.1-.1c.6-.7 1.2-1.3 1.8-2l.1-.2c.7-.5 1.2-1.1 1.5-1.9l.5-.5c.8-.2 1.3-.8 1.5-1.5l.5-.5c.8-.2 1.3-.8 1.5-1.5l.5-.5c.8-.3 1.3-.8 1.5-1.5l.4-.4c1.5-.6.9-2.7 2.3-3.4.5-.9 1.2-1.6 2-2 .5-.9 1.2-1.6 2-2 .5-.9 1.2-1.6 2-2 .5-.9 1.3-1.5 2.2-2 1.1-.1 1.8-.7 1.8-1.9.5-.9 1.1-1.6 1.9-2.2l.1-.1c.6-.7 1.3-1.4 2.1-1.9.5-.9 1.2-1.6 2-2 .5-.9 1.2-1.6 2-2 .5-.9 1.2-1.6 2-2 .5-.9 1.2-1.6 2-2 .5-.9 1.2-1.6 2-2 .5-.9 1.2-1.6 2-2 .5-.9 1.2-1.5 2-2.1.6-.7 1.1-1.4 1.6-2.1l.2-.3c.7-.4 1.3-.9 1.6-1.7l.5-.3c.7-.4 1.4-.9 2-1.5l.1-.1c.6-.7 1.3-1.4 2.1-1.9.5-.9 1.2-1.6 2-2 .5-.9 1.2-1.6 2-2 .5-.9 1.2-1.6 2-2 .5-.9 1.2-1.6 2-2 .5-.9 1.2-1.6 2-2 .5-.9 1.2-1.6 2-2l-.1.1c.6-1 1.5-1.8 2.7-1.9.7.1 1.2-.2 1.3-1 .7-.2 1.2-.6 1.5-1.4l.4-.3c.7-.4 1.4-.9 2-1.5l.1-.1c.6-.7 1.3-1.4 2.1-1.9.5-.9 1.2-1.6 2-2 .5-.9 1.2-1.6 2-2 .5-.9 1.2-1.6 2-2 .5-.9 1.2-1.6 2-2 .5-.9 1.2-1.6 2-2 .5-.9 1.2-1.6 2-2 .5-.9 1.2-1.6 2-2l-.1.1c.6-1 1.5-1.8 2.7-1.9.7.2 1.1-.1 1.2-.8.7-.4 1.3-.9 1.9-1.4l.1-.1c.6-.7 1.3-1.4 2.1-1.9.5-.9 1.2-1.6 2-2 .5-.9 1.2-1.6 2-2l-.1.1c.6-1 1.5-1.8 2.7-1.9.7.1 1.2-.2 1.3-1 .7-.2 1.2-.6 1.4-1.4l.5-.5c.8-.3 1.3-.8 1.6-1.5l.4-.3c.7-.4 1.4-.9 2-1.5l.1-.1c.7-.9 1.5-1.6 2.7-1.7.7.1 1.2-.2 1.3-1 .7-.2 1.2-.6 1.4-1.4l.5-.5c.8-.2 1.3-.8 1.5-1.5l.5-.5c.8-.2 1.3-.8 1.5-1.5l.5-.5c.8-.3 1.3-.8 1.7-1.5l.3-.2c.7-.6 1.4-1.2 2.1-1.7.5-.9 1.2-1.6 2-2 .5-.9 1.3-1.5 2.2-2 .7.1 1.2 0 1.7-.5l2.1-1.5c.5-.9 1.2-1.6 2-2 .5-.9 1.3-1.5 2.2-2l1.8-.9c.7-.1 1.2-.6 1.4-1.3l.5-.5c.8-.2 1.3-.8 1.5-1.5l.5-.5c.8-.3 1.3-.8 1.7-1.5l.3-.2c.7-.6 1.4-1.2 2.1-1.7.5-.9 1.3-1.5 2.2-2 .7.1 1.2 0 1.7-.5l2.1-1.5c.5-.9 1.2-1.6 2-2l-.1.1c.6-1 1.5-1.8 2.7-1.9.7.1 1.2-.2 1.3-1 .7-.2 1.2-.6 1.5-1.4l.4-.3c.7-.4 1.4-.9 2-1.5l.1-.1c.6-.7 1.3-1.4 2.1-1.9h-.1c.8-1.4 2.8-.9 3.7-2.1l.2-.1c.6-.7 1.3-1.3 2.1-1.8h-.1c.6-1 1.5-1.8 2.7-1.9.7.1 1.2-.2 1.3-1 .7-.2 1.2-.6 1.4-1.4l.5-.5c.8-.3 1.3-.8 1.7-1.5l.3-.2c.7-.6 1.4-1.2 2.1-1.7h-.1c.6-1 1.5-1.8 2.7-1.9.8.1 1.2-.2 1.3-1 .7-.2 1.3-.6 1.6-1.3l.3-.2c.8-.7 1.6-1.5 2.8-1.6.8.1 1.2-.2 1.3-1 .7-.2 1.3-.6 1.6-1.3l.3-.2c.7-.6 1.4-1.2 2.1-1.7h-.1c.6-1 1.5-1.8 2.7-1.9.8.1 1.2-.2 1.3-1 .7-.2 1.3-.6 1.7-1.3.8-.3 1.5-.5 2.3-.8.7-.1 1.2-.6 1.4-1.3l.4-.3c.7-.4 1.4-.9 2-1.5l.1-.1c.6-.8 1.3-1.4 2.2-1.8l1.8-.9c.7-.1 1.2-.6 1.4-1.3l.5-.5c.8-.3 1.3-.8 1.7-1.5l.3-.2c.7-.6 1.4-1.2 2.1-1.7h-.1c.6-1 1.5-1.8 2.7-1.9.7.2 1.1-.1 1.3-.8.9-.4 1.6-1.2 2.6-1.2.8.2 1.2-.2 1.4-1 .7-.2 1.3-.6 1.6-1.3l.3-.2c.7-.6 1.4-1.3 2.3-1.7l1.8-.9c.7-.1 1.2-.6 1.5-1.3l.4-.3c.7-.4 1.4-.9 2-1.5l.1-.1c.7-.9 1.5-1.6 2.7-1.7l.7.1.5-.6c.7-.6 1.4-1.2 2.3-1.6l1.8-.9c.7-.2 1.3-.6 1.6-1.2l.3-.2c.7-.6 1.4-1.2 2.1-1.7h-.1c.6-1 1.5-1.8 2.7-1.9.8.1 1.2-.2 1.3-1 .7-.2 1.3-.6 1.6-1.3l.3-.2c.7-.6 1.4-1.3 2.3-1.7.7.1 1.2 0 1.7-.5.7-.5 1.5-1 2.3-1.5l1.8-.9c.7-.2 1.3-.6 1.6-1.2l.3-.2c.7-.6 1.4-1.3 2.3-1.7l1.8-.9c.7-.2 1.3-.6 1.6-1.2l.3-.2c.8-.7 1.6-1.5 2.8-1.6l.7.1.5-.6c.7-.6 1.4-1.2 2.3-1.6l1.8-.9c.7-.2 1.3-.6 1.6-1.2l.3-.2c.7-.6 1.4-1.3 2.3-1.7l1.8-.9c.7-.2 1.3-.6 1.6-1.2l.3-.2c.7-.6 1.4-1.2 2.1-1.7.8-1.4 2.8-.9 3.7-2.1l.3-.1c.7-.8 1.5-1.6 2.7-1.7.7.2 1.1-.1 1.2-.8.7-.4 1.3-.9 1.9-1.4l.1-.1c.7-.9 1.5-1.6 2.7-1.7l.7.1.5-.6c.7-.6 1.4-1.2 2.3-1.6.7.1 1.2 0 1.7-.5.7-.5 1.5-1 2.3-1.5h5.4c1 .5 1.7 1.2 2.1 2.3 0 1.7.1 3.5.1 5.2-1 1.2-.5 3.3-2.3 4.1l.1-.1c-.8 2.4-2.1 4.4-3.9 6.2l.1-.1c-.4.9-1.1 1.5-1.8 2.2v.1c-1.2.9-.7 3.1-2.5 3.6l.4.3-.4-.4c-.3.9-.7 1.7-1.4 2.4l-.6.4.1.7c-.1 1.2-.9 2-1.7 2.8v.1c-1.2 1-.8 2.9-2.1 3.9v-.1c-1 1.2-.7 3.1-2 4.1v-.1c-1 1.1-.5 3.2-2.3 3.8l.4.3-.4-.3c-.3.9-.7 1.7-1.4 2.4l-.6.4.1.7c-.1 1.2-.8 2-1.5 2.8l-.6.4.1.7c-.1 1.2-.8 2-1.5 2.8l-.6.4.1.7c-.1 1.2-.8 2-1.5 2.8l-.6.4.1.7c-.1 1.2-.8 2-1.5 2.8l-.6.4.1.7c-.6 1.6-.3 3.6-2.2 4.5l.1-.1c-.3.9-.7 1.7-1.4 2.4l-.6.4.1.7c-.1 1.1-.8 1.9-1.4 2.8-.6.5-.7 1-.4 1.7-1 1.3-.6 3.2-2.1 4.2v-.1c-1 1.2-.7 2.9-1.6 4.1l-.6.4.1.7c-.6 1.6-.5 3.5-2 4.7v-.1c-.9 1.3-.6 3-1.8 4.2-1.2 1.1-.8 2.9-2 4l-.5.5.3.7c-.6 1.6-.5 3.5-1.9 4.8v-.1c-.9 1.2-.7 2.9-1.5 4.1-.6.5-.7 1-.4 1.7-1 1.3-.7 3-1.7 4.3l-.6.4.1.7c-.6 1.6-.6 3.4-1.7 4.8l-.5.5.2.7c-.1 1.2-.8 2.1-1.7 2.9l-.5.5.3.7c-.6 1.6-.6 3.4-1.7 4.9l-.5.5.3.7c-.6 1.6-.6 3.4-1.7 4.8l-.5.5.3.7c-.5 1.6-.7 3.3-1.4 4.8-.6.5-.7 1-.4 1.7-.9 1.3-.8 3-1.6 4.3-.7 1-.9 2-.6 3.2-.6 1.6-.6 3.4-1.7 4.9l-.5.5.2.7c-.1 1.2-.8 2-1.6 2.8-.5.5-.5 1.1-.3 1.7-.9 1.3-.8 3-1.6 4.3-.6.5-.7 1-.4 1.7-1.6 1.8-.1 4.5-1.9 6.3l-.5.5.3.7c-.5 1.6-.7 3.3-1.4 4.8-.7 1-.9 2-.6 3.2-.5 1.6-.6 3.4-1.6 4.8-.5.5-.5 1.1-.3 1.7-1.6 1.7 0 4.6-2.1 6.2v-.2c-.8 1.3-.7 2.9-1.4 4.2-.7 1-1 2-.6 3.2-.5 1.6-.6 3.4-1.6 4.8-.5.5-.5 1.1-.3 1.7-1.9 2.5.1 5.8-1.7 8.3-.5.5-.5 1.1-.3 1.7-1.6 1.8-.2 4.5-1.7 6.3-.5.5-.5 1.1-.3 1.7-1.6 1.8-.2 4.5-1.7 6.3-.5.5-.5 1.1-.3 1.7-1.6 1.8-.2 4.5-1.9 6.3v.1c-1.8 1.6-.3 4.3-1.8 6-.1 1.1-.3 2.1-.4 3.2-.5 1.6-.7 3.3-1.4 4.8-.1 1.2-.3 2.5-.4 3.7-1.9 2.5.1 5.8-1.7 8.3-.1 1.1-.3 2.1-.4 3.2-1.1 2.2-.2 4.8-1.6 6.8-.1 1.1-.3 2.1-.4 3.2-1.1 2.2-.2 4.8-1.6 6.8-.1 1-.3 2.1-.4 3.1-1.1 2.2-.1 4.8-1.7 6.8v.1c-2.2 2.3 0 5.6-1.8 7.9-.1 1-.3 2.1-.4 3.1-1.4 2.8.1 6.1-1.6 8.9-.1 1.2-.2 2.5-.3 3.7-1.6 1.8-.2 4.5-1.7 6.3-.1 1.7-.3 3.5-.4 5.2-.2 1-.8 2 .2 2.9h.1c1.4 1.1 2.7 1.1 4.1 0 1.3-.2 2.7-.3 4-.5 2.5-1.4 5.6.4 7.9-1.5 2-.2 4-.3 6.1-.5 2.5-1.4 5.6.4 7.9-1.5 2.1 0 4.2.3 6.1-.7 2.5-1 5.5.6 7.9-1.3 2.1 0 4.2.3 6.1-.7 2.5-1 5.5.6 7.9-1.3 2-.2 4-.3 6.1-.5 2.5-1.4 5.6.4 7.9-1.5 2.7-.1 5.5.5 8.1-.7 1.9-.8 4.2.3 5.9-1.3 2.7-.1 5.5.5 8.1-.7 2.2-.6 4.5-.1 6.6-1.2 2.5-.3 4.9-.6 7.4-.8 2.2-.6 4.5-.1 6.6-1.2 2.5-.3 4.9-.6 7.4-.8 2.2-.6 4.5-.1 6.6-1.2 2.5-.3 4.9-.6 7.4-.8 2.2-.6 4.5-.1 6.6-1.2 2.5-.3 5.1.5 7.4-1 .7-.2 1.3-.6 1.7-1.2 2.1-.1 4.3.5 6.3-.7 2.5-1 5.5.6 7.9-1.3 2-.2 4-.3 6.1-.5 2.5-1.4 5.6.4 7.9-1.5 2-.2 4-.3 6.1-.5 2.5-1.4 5.6.4 7.9-1.5 2-.2 4-.3 6.1-.5 2.8-1.3 5.9 0 8.7-1.4 2.4-.2 4.9-.4 7.3-.6 2.1-1 4.6-.3 6.7-1.4 2.4-.2 4.9-.4 7.3-.6 2.5-1.4 5.6.4 7.9-1.5 2.7-.1 5.5.5 8.1-.7 2.2-.6 4.5-.1 6.6-1.2 2.5-.3 4.9-.6 7.4-.8 2.5-1 5.5.6 7.9-1.3 2-.2 4-.3 6.1-.5 2.8-1.3 5.9 0 8.7-1.4 2.4-.2 4.9-.4 7.3-.6 2.5-1.4 5.6.4 7.9-1.5 2.7-.1 5.5.5 8.1-.7 2.5-1 5.5.6 7.9-1.3 2-.2 4-.3 6.1-.5 2.4-1.5 5.5.5 7.8-1.6l.3-.1c2.3-2 5.6.2 7.9-1.8 2.7-.1 5.5.5 8.1-.7 2.2-.6 4.5-.1 6.6-1.2 2.5-.2 4.9-.4 7.4-.6 2.8-1.3 5.9 0 8.7-1.4 2.4-.2 4.9-.4 7.3-.6 2.8-1.3 5.9 0 8.7-1.4 2.4-.2 4.9-.4 7.3-.6 2.5-1.4 5.6.4 7.9-1.5 2.7-.1 5.5.5 8.1-.7 2.8-.8 5.9.2 8.6-1.2 2.5-.3 4.9-.6 7.4-.8 2.5-1 5.5.6 7.9-1.3 2.7-.2 5.4-.3 8.1-.5 2.5-1.4 5.6.4 7.9-1.5 2.7-.2 5.4-.3 8.1-.5 2.5-1.4 5.6.4 7.9-1.5 2.7-.2 5.4-.3 8.1-.5 3.2-1.6 6.9.6 9.9-1.5 2.7-.1 5.5.5 8.1-.7 2.5-1 5.5.6 7.9-1.3 2.7-.2 5.4-.3 8.1-.5 3.4-1.4 7.3.2 10.7-1.4h4.5c1.1.1 1.8.9 2.7 1.4l.5.4c.4.8.9 1.5 1.5 2.2 0 1.1-.1 2.3-.1 3.4-.4.9-1.1 1.7-1.9 2.3h-.1c-.8 1.3-2.8.7-3.6 2.1l-.4.2c-.7.5-1.3 1.1-2 1.7l-.1.1c-.6.8-1.1 1.6-2.3 1.6l.3.5-.4-.5c-.5 1.8-2.6 1.2-3.5 2.4l-.2.2c-.6.7-1.3 1.3-2.1 1.7-.9 1.6-2.7 1.2-4 2h-.1c-.4 1-1 1.8-2.3 1.7l.5.4-.5-.5c-.3 1.8-2.5 1.2-3.2 2.5l-.4.2c-.7.5-1.3 1.1-2 1.7l-.1.1c-.6.8-1.1 1.6-2.3 1.6l.3.5-.4-.5c-.3 1.8-2.6 1.1-3.2 2.5l-.4.2c-.7.5-1.3 1.1-2 1.7h-.1c-1 1.3-2.8.8-3.8 2l-.2.2c-.6.6-1.3 1.3-1.9 1.8l-.1.1c-.6.8-1.1 1.6-2.3 1.6l.3.5-.4-.5c-.3 1.8-2.6 1.1-3.2 2.5l-.4.2c-.7.5-1.3 1.1-1.9 1.7l-.1.1c-.6.7-1.3 1.3-2 1.8h-.1c-1 1.3-2.8.8-3.8 2l-.2.2c-.6.6-1.2 1.2-1.9 1.8l-.1.1c-.6.7-1.3 1.3-2.2 1.7-.4 1-1 1.8-2.2 1.8-.1 1.3-.8 1.9-2 2l.5.4-.5-.5c-.3 1.8-2.5 1.2-3.2 2.5l-.4.2c-.7.5-1.3 1.1-1.9 1.7l-.1.1c-.6.6-1.2 1.3-1.9 1.9l-.1.1c-.6.7-1.3 1.3-2.2 1.7-.8 1.5-2.7 1-3.7 2.2l-.2.2c-.6.6-1.2 1.2-1.9 1.8l-.1.1c-.6.6-1.2 1.3-1.9 1.9l-.1.1c-.6.6-1.2 1.3-1.9 1.9l-.1.1c-.6.6-1.2 1.3-1.9 1.9l-.1.1c-.6.7-1.3 1.3-2 1.8l-.1.1c-.6.8-1.1 1.6-2.3 1.6l.3.5-.4-.4c-.1 1.2-.8 1.9-2 2l.5.4-.5-.5c-.3 1.8-2.6 1.2-3.2 2.5l-.4.2c-.7.5-1.3 1.1-1.9 1.7l-.1.1c-.6.6-1.2 1.3-1.9 1.9l-.1.1c-.6.6-1.2 1.3-1.9 1.9l-.1.1c-.6.6-1.2 1.3-1.9 1.9l-.1.1c-.6.6-1.2 1.3-1.9 1.9l-.1.1c-.6.6-1.2 1.3-1.9 1.9l-.1.1c-.6.6-1.2 1.3-1.9 1.9l-.1.1c-.6.6-1.2 1.3-1.9 1.9l-.1.1c-.6.6-1.2 1.3-1.9 1.9l-.1.1c-.6.6-1.2 1.3-1.7 1.9l-.2.4c-.7.4-1.3 1-1.7 1.7l-.4.2c-.7.5-1.3 1.1-1.9 1.7l-.1.1c-.6.6-1.2 1.3-1.9 1.9l-.1.1c-.6.6-1.2 1.3-1.9 1.9l-.1.1c-.6.6-1.2 1.3-1.9 1.9l-.1.1c-.6.6-1.2 1.3-1.7 1.9l-.6.4.1.7c-.2 1.3-.8 2.3-2.2 2.4l.5.3-.5-.4c-.1 1.3-.8 1.9-2 2l.5.4-.5-.4c-4.2 10.8-5.9 10.8-6.6 11.8z"/><path id="hl1" fill="#313131" d="M1879 627c5.7-8.5 13.2-12.5 19.2-17.9 14.9-13.2 30.7-25.4 45.7-38.5 8-7 16-11.8 27.5-10.8 12.6 1.1 25.3.8 38 0 30.6-2 61.2-.6 91.8-2.4 19.6-1.1 39.3 0 58.8-1.7 28.9-2.6 57.9-.7 86.8-2.1 10.9-.5 21.8-1.8 33.8-1.4-5.4 5.8-12.3 4.4-17.9 5.3-43.1 7.1-86.2 14.6-129.3 22.1-36.9 6.4-73.7 13.5-110.5 20-37.8 6.7-75.8 12.7-113.4 20.5-6.5 1.3-12.9 3.2-19.3 4.8-3.2.7-6.4 1.2-11.2 2.1zm-161.1-504.9c-10.8 23.9-22.1 47.6-32.2 71.8-14.9 35.5-29.2 71.3-42 107.7-9.6 27.3-16.3 55.4-24.3 83.1-2 6.8-1.6 7.1 5.8 7.3 7.5.2 14.3-2.9 21.4-4.1 34.2-6 68.6-11.7 102.7-18.4 54.6-10.7 109-22.9 163-36.6 15.7-4 31.3-8.7 47.4-11.2-.5-5-3.5-2.4-5.8-2-10.5 1.4-21 2.7-31.5 4.1-17.1 2.4-34.1 4.8-51.1 7.2-15.7 2.2-31.5 4.5-47.2 6.8-15.7 2.2-31.5 4.5-47.2 6.7-16.4 2.4-32.8 4.6-49.1 7.3-13.4 2.2-27.1 2.9-40 7.2-6.2 2.1-12.1 2.5-18.5.9-6.5-1.6-7.2-2.1-6.1-8.5 2.9-16.3 5.8-32.6 8.9-48.9 6.7-34.9 15.3-69.3 24.4-103.6 6.8-25.4 15.8-50.1 23.6-75.1.5-1.8-.4-2.2-2.2-1.7zm-313.3 227.8c1.1-1.5.8-3.1-.3-4.6-1.6-2.1-3-4.4-4.6-6.5-12.2-15.6-20.8-33.1-27.8-51.6-13.3-35-16.6-71.6-17.6-108.4-.6-22.8 1.6-45.6 5.2-68.3 3.4-21.2 5.4-42.7 10.1-63.7.3-1.5 1.2-3.7-1.1-5.3-1 1.2-1.9 2.2-2.5 3.3-1.8 3.6-3.4 7.2-5 10.8-17.3 37.9-25.9 77.9-27 119.5-.4 13 0 26-.1 38.9-.1 10.3 1.9 20.4 3.3 30.6 2.5 18.5 7.6 36.4 13 54.1 8.6 28 18.4 55.5 35.6 81.5 8-9.9 12.1-20.9 18.8-30.3zM802 573.8c35.1 11.3 70 23.2 104.8 35.3 36.1 12.6 72.4 24.6 108.6 36.8 12.6 4.3 25.2 8.5 37.9 12.6 5.6 1.8 6.4 1.2 6.6-4.6.2-7.3 0-14.6 0-22.4-3.9-.2-7.1.3-10.3-.6-10.9-2.9-22-5.1-32.9-7.8-52.5-12.8-105-25.7-157.6-38.5-17.7-4.3-35.5-8.5-53.2-12.8-2.2-1.1-4.1-1.5-3.9 2zm888.2-7c15.4 31.3 19.5 64.7 17.2 98.9-1.6 24.4-6.3 48.5-12.6 72.3-3.2 11.9-6 24-8.9 35.9 1.7-.4 2.3-1.1 2.8-2 13-23.2 25.4-46.7 39.2-69.4 5.2-8.7 6.8-17.1 5.6-26.5-.7-5.2-1.3-10.5-2.2-15.7-6.1-36.8-19.9-70.8-38.1-103.1-1.9-3.4-4.2-6.5-6.8-10.4-.2 7.6.5 13.1 3.8 20zm-954.1 165c2.6.6 5.2 1.2 7.7 1.9 16.2 4.8 32.6 8.9 49.2 12.2 28.3 5.6 56.6 10.3 85.5 12.4 18.2 1.3 36.3 3.6 54.6 3.6 18.9-.1 37.9.8 56.7-2 6.4-1 13-1.1 18.8-3.8-.3-2.2-1.7-2.8-2.8-3-14.3-2.5-27.5-7.6-39.6-15.6-2-1.3-3.7-.3-5.7.1-22.8 4.7-46 5.6-69.2 6.3-20.2.6-40.5.4-60.7-1.7-15.8-1.6-31.7-2.7-47.4-5.3-14.4-2.4-28.8-4.6-43.1-6.9-2.3-1.3-4.2-1.8-4 1.8zm1095.1-63.4c-.2.5 0 1.1.5 1.6 2 2.6 4.2 5.2 6.1 7.9 21.6 31.4 24.9 65.8 16.3 102-2.9 12.4-7.4 24.3-12.3 38.3 9-7.8 16.6-13.8 25.3-17.8 5.4-2.5 8.2-6.4 10.1-11.6 5-13.7 6.7-28.3 4-42.3-6-30.6-21.9-56-45.4-76.6-.6-.7-1.3-1.3-2-1.9-.6-.2-1.3-.3-2-.4-.2 0-.4.3-.6.8zm-327.4 105.5l51.6-73.2c5.4-7.7 9-15.9 10.8-25.4 3-15.9.8-31.8 1.7-47.7.5-9.1-.8-17.9-2.5-26.7-1.6-8.8-4.9-17.2-10.5-24.5-4.3-5.6-8.8-9.2-14.1-11 4.1 10.3 8.3 20.4 11.5 30.9 5.6 18.1 7.4 36.7 5 55.1-2.7 20.9-10.9 40.2-21.8 58.3-5.1 8.5-11.1 16.6-15.4 25.6-5.9 12.3-12.2 24.3-18.3 36.5-.7 2 .2 2.5 2 2.1zm-262.1-5.9c24.3 39.1 49.1 77.8 76.5 115.1 1.7-1.9.6-3 .1-4.2-6.2-15.5-12-31-10.3-48.2.5-5-2-8.1-5.3-11.1-12.4-11.6-24.6-23.3-37-34.8-7.1-6.5-14.4-12.7-21.6-19-2.1-.5-2.9.3-2.4 2.2zm38.7 152.5c-1.9-11.6-5.1-22.4-8.9-33-6.5-18.2-3.3-18.4-21-26.6-5.4-2.5-10.4-5.9-15.5-9-3.6-2.2-7.2-4.4-12.3-4.3 19.1 24.3 38.4 48.6 57.7 72.9zm717.7-106.7c-.6-.9-.8-1.3-1-1.4-25.9-4.8-51.9-9.5-77.8-14.2-3.8-.7-7.2-.1-9.9 3.1-2.3 2.8-5.6 4.7-7.6 10.8 32.8-1.9 64.2 2.5 96.3 1.7zm-2.5 86h-47.7c-11.7 0-22.8 4.8-32.6 14.4 27.1-4.4 53.5-8.7 79.8-13 .2-.5.3-1 .5-1.4z"/><path fill="none" stroke="#000" stroke-miterlimit="10" stroke-width="6" d="M1863.7 1024.1L2073.5 898s1-12-21-12.5-81.1 7.3-83.9 3.8c-2.8-3.5 80.5-60.1 88.7-67.9s2.2-11.4-12.3-13.9-117.8-11.2-116.9-19.3c.9-8.1 363.4-220.7 378.4-242.7 5.9-10.5-21.6-6.3-21.6-6.3l-312 7.3s-7.5 4.5 6.5-14.5c3.8-17.7 58-140 223-246.5-1.1-10.8-9.5-10.5-18-9.5s-490.5 65-503 70.5c0 0-11 6.5 0-22.5 4.4-34.1 25.9-178.8 102.1-304.5 10.4-15.5-17.9.6-17.9.6S1511 175.5 1413.8 329.8c-24.4-5.7-72.3-149.8-27.6-303.8-.8-13.5-31.8 11.5-36.3 13.5s-105.5 105.5-90.6 314.4c-2.9 13.1-71.9-92.9-79.9-93.4-11.5 6 8 145.4 10 182.5-86.5 68-118.5 124-135 176.5 0 0-326.5-82.2-347-80.3-20.5 1.9 233.8 183.6 236.2 188.7S771.3 741.1 646.9 688c-15.4-13 23.6 117.5 309 229.6C993 924 735 904.5 727.5 908s39.5 89.5 363.6 156.1c-50.6-73.1-65.7-106.6-48.7-138.4s52.1-52.6 126-1.7c51.1 46.6 82.1 106.3 82.3 116.1.2 9.8 12.8 2.8 12.8-21.2s2.1-85.1 2.1-85.1 29.9 11.5 33.9 11.8-13.3-61.9-17.5-61.8c0 0 51.9 36.1 59.2 37.1 7.3 1 .4-14.7-3.4-24.9s-27.8-59-12.8-75c12.9-21.2 80.9-104.6 85.9-101.2 5 3.4 8.6 162.7 4.6 176.7 0 0 8 23.2 34.2-24.7 26.2-47.9 114.5-169.8 117.7-169.5 3.2.3 44.5 203.6 54.5 201.2 10-2.4 113.8-183.5 115.7-195.7 0 0 2.9-21.1 24.5 20.5s47.5 79.1 33.7 157.4c-.9 16.8 11.3-4.6 12.7-9.2 1.4-4.6 31.5-52.2 81-78.8 17 41.9-19.4 109-25.7 118.4-6.3 9.4-5.7 33.9-3.8 60.9 1.9 27-.5 36.5-2 42s5.7 5.1 5.7 5.1z"/></svg>