<svg xmlns="http://www.w3.org/2000/svg" id="hair" viewBox="0 0 3000 3000"><path id="sd1" fill="#A16C44" fill-rule="evenodd" d="M1314.2 686c.2 3.6-2.1 6.3-3.6 9.2-22 43.3-43 87.2-63.1 131.4-.8 1.8-1.8 3.6-2.5 5.5-1.5 4-2.4 14.3-6.1 13.1-6-1.9-12.1-3.6-18.2-5.4-46.4-13.3-92.5-27.6-138.2-43.2-4.9-1.7-10.8-13.7-14.3-17.6-30.8-33.6-60.8-68-90.5-102.6-.6-.7-.9-1.7-1.3-2.6-4-43.7-6.5-87.4-7-131.3-.1-6.9-2.3-13.8-1.7-20.8.4-4.1.4-8.6 4.9-10 4.8-1.4 8.3 2 11 5.3 9.7 11.8 19.7 23.4 29.3 35.4 26.9 33.5 55.5 65.4 83.5 98 2.7 3.2 6.4 4.7 10.2 6 51.5 18.1 103.9 33.3 156.1 49.3 6.8 2.1 12.5 1.7 18.5-3 7-5.5 14.2-11 22-15.5 3.6-2.1 7-4.6 11-1.2zm-39.2-40.3c20.2 2.8 40.4 6.1 60.7 8.5 20-23 48.8-57.7 68.7-80.7 11.9-13.7 24.6-26.8 35.7-41.2-4.9-2.1-10-3.8-14.7-6.2-12.4-6.5-18.5-16.7-17.9-30.9.3-7.1 2-13.8 5-20.2 10.9-23.2 22.1-46.3 32.9-69.6 14.4-31.2 27.1-63.1 31.5-97.6 3.2-25.9 1.7-51.3-11.5-74.7-4.5-8-9.9-15.5-18.4-22 .5 4.4.8 7.4 1.2 10.3 5.2 35.8-.7 69.6-17.4 101.6-11.6 22.1-27.4 40.9-44.8 58.5-27.7 27.9-55.8 55.4-83.7 83.2-9 9-16.6 19.1-23.2 30-4.9 8-9.4 16.3-9.4 26 0 13 .4 26 1.4 38.9 1.7 21.6 4.9 43 7.1 64.5 1.9 3.1-10 20.6-3.2 21.6zm72.1 337c11.6-49.6 23.4-99.2 34.7-148.8 3.8-16.8 10.4-32.3 20.1-46.5 4.9-7.1 9.8-14.3 15.1-21.2 32.7-42.3 70.9-79.4 108.9-116.8 14.3-14.1 29-19.9 48.5-19.2 21.6.7 43.3.2 64.9-2.1 9.3-1 18.6-1.5 27.9-1.8 7.1-.3 9.5 1.2 10.8 7.6 3 14.7 7.5 29.2 6.9 44.3-1.1 29 .5 57.9.7 86.9.2 28.3.4 56.6.5 84.9.7 1.3 1.3 1.3 1.8-.1 9.1-13.6 18.1-27.1 27.3-40.7 2.5-3.6 4.3-7.3 4.6-11.9 2-27.5 4-55.1 6.6-82.6 1.1-11.9.9-24 2.5-35.8.6-4.5.1-8.5-1.6-12.6-7.1-16.5-13.9-33.2-21.1-49.6-4.2-9.7-4.9-10-15.1-8.1-16.4 2.9-32.9 5.2-49 9.3-14.6 3.7-27.5.8-40.3-5.9-2.8-2.6-6.3-3.8-9.5-5.8-2.1-1.6-4.5-1.2-6.8-1.3-15.5-5.8-30.9-12.2-46.1-18.8-9.4-4.1-14.7-2.7-21.2 5-23 27.1-43.9 55.8-65.3 84.3-8.3 11.1-14.6 23.8-25.7 32.6-3.9 1.6-4.2 5.8-6.6 8.6-.9 2.5-2.6 4.6-2.5 7.5-18.2 25.4-36.8 50.4-57.4 74-4.2 4.8-6.2 9.9-6.6 16.2-2.1 36.8-4.3 73.6-6.6 110.4-.9 15.2-2.3 30.5-3.2 45.7-.4 7.3-1.3 14.6-.4 21.9 2.4-2.9 2.5-6.4 3.2-9.6zm-216.2-386.3c22.1 34.6 70.1 37 79.1 40 11.6 3.2 23.6 3.6 35.4 5.5 8.6 1.4 9 .8 8.2-8.4-1.8-21.2-4.6-60.6-6.5-81.8-13.3-6.3-35.2-9.2-44.9-20.6-15.1-17.8-29.1-36.4-43.3-54.9-2.5-3.3-4-6.9-4.5-10.9-3.5-26.1-6.8-52.1-10.5-78.2-1.3-9.5-1.5-19.2-4.8-30.1-1.3 3.5-2.2 5.6-2.7 7.7-9.1 40.3-18.1 80.6-27.2 120.8-.7 3-.8 5.8.1 8.8 8.5 27.4 15.4 55 25.2 81.9 1.9 2.6-10.4 16.5-3.6 20.2zm525.9-11.1c11.4-6.8 22.3-14.3 32.8-22.4 19.1-14.7 38-29.7 55.5-46.2-2.7-4-4.3-15.5-2.9-18.6 12.4-27.6 15.2-56.4 10.3-86-4.3-25.9-16.1-48.6-31.2-69.6-22.6-31.5-51.4-56.6-82.9-78.9-1.5-1-2.9-2.9-5.7-1.3 1.3 2.2 2.6 4.5 4 6.6 10.8 15.7 20.1 32.2 28.3 49.4 15.7 32.8 26.2 67.1 28.4 103.4 2.6 44-7.9 85.2-29.5 123.6-7.2 12.8-11 33-18.6 45.5 4.4-.6 7.9-3.3 11.5-5.5zM2068.7 858c-12 4-24.4 7.1-35.8 12.5-16.4 7.7-32.6 10.7-49.7 2.3-4.4-2.1-9.5-3.1-14.3-4.2-20.6-4.9-41.3-9.9-62.8-6.5-10.3 7.8-18.3 17.1-22.4 29.7-2.6 7.9-6 15.5-9.7 23-6.8 13.6-1.9 26.9-1.4 41.3 19.7-4.5 38.3-8.4 56.6-12.9 39.1-9.7 78.1-19.4 117.7-26.8 4.8-.9 7.7-3 9.7-7.3 7.7-16.9 15.7-33.8 23.5-50.6-3.8-3.4-7.7-1.7-11.4-.5zm-88.9-255.3c-1.4.7-3.2 1-4.8 1.3-41.5 7-83.1 13.7-124.2 23.2-3.1.7-5.9.7-8.5-1.2 2 10.2.5 20.6 3.3 31 5.6 20.8 9.5 42 14.1 63 .4-3.8 3.2-5.4 6.2-7.1 26.6-15.8 51.8-33.7 77.5-50.7 2.5-1.6 4.7-3.7 6.8-5.8 22.7-22.4 45.4-44.8 68-67.2 1.7-1.7 4.5-2.9 4.4-6.6-2.3.5-4.5 1-6.6 1.4-12.1 6.2-24.1 12.5-36.2 18.7zM997.2 902.8c-8.8-2.7-16.3-6.7-22.9-13.4-23.8-24.1-46.8-49-69.7-74-2.2-2.4-4.5-5.3-8.5-3.3.1.7 0 1.4.3 2 19.6 44.8 37.6 90.3 58.3 134.7 2.6 5.5 6 9 11.7 11.3 20.3 8.3 40.5 17.1 60.7 25.6 1.9.8 3.9 2.8 7.1.4-3.3-12.3-4.8-25.1-4.5-38 .1-4 .1-7.9 1.9-11.7 3-6.6 5.5-13.5 8.2-20.2-13.6-6.3-28.4-9-42.6-13.4zm202.7-15.9c9.8 25.5 20.1 50.8 30.3 76.1m15.8-548.5c2-1.6 11.5-14.5 12-15.3 17.1-26.6 38.7-59.3 55.7-85.9-1.1-1.6-12.3-4.7-13.2-6.5-13.5-25.7-27-51.3-39.2-77.5-2.2-4.7-4.1-9.6-7.9-14.3-2.2 3-2.6 5.5-2.9 8.1-2.2 15.5-4.3 31-6.5 46.5-3.3 23.7-6.7 47.4-10 71.2-.3 2.3-9.4 11.1-12.1 10.6 6 16.5 17.3 46.1 24.1 63.1zm753.8 258.7c-5.6 5.2-19.1 18.7-24.7 23.9-29.5 27.3-68.6 55.5-106.5 70.2-5.1 2 2.2 13.2 2.9 17.6 3.9 24.6 7.5 49.3 11.3 74 .3 2.1 0 4.7 3.1 6.8 21.6-18.2 43.8-36.1 66.4-53.5.5-.9.4-1.8-.1-2.6-5.1-3-9.7-.4-14.1 1.7-8 4-16.3 7.3-24.5 11-2.3 1-4.6 3-7.1 0-5-6.1-2.7-21.9 4.2-26.1 17-10.4 34.2-20.3 49.4-33.4 5.2-4.5 9.6-9.9 16-12.9 6-17.2 12.1-34.4 18.1-51.6 1-2.5 9.4-25.2 5.6-25.1zm-484.4-204.1c8.5 7.3 15.1 16.6 24.5 23 .6-13.3-.8-26.6-1.3-39.8-1.6-43.9-4.6-87.6-6.6-131.5-.1-2 .3-4.3-1.1-6.3-2.5 2.4-2.4 4.8-2.9 7.1-3.6 17.3-7.2 34.5-10.7 51.8-6.4 31.6-13.8 63-19.2 94.8 8.5-5.5 10.1-5.3 17.3.9zm450.8-84.9c-11.2 29.6-22.6 59.1-33.6 88.7-2.2 5.8-5.2 10.6-10.3 14.2-16.1 11.3-32 22.7-48 34.2-3.8 2.7-7.9 3-12.3 3.2-5.9.2-11.9 6.2-17.7 8.5 23.9 1.2 48.5 1 72.4 1.7-1.6-1.8-5.4-9.5-6.8-12 1.7-3.7 5-6.1 7.7-9 7.9-8.6 15.9-17.1 23.9-25.6 2.3-2.5 4-5.2 4.8-8.6 7.3-30.4 14.7-60.9 22.1-91.3.5-2 1.6-4.3-2.2-4zm-736.6 519.4c-7.4-10.6-16-20.3-23.8-30.6-5-6.6-11.2-11.4-19.7-12.5-23.4-3.1-46.4-8.6-69.6-12.8-19.9-3.6-39.2-7.8-55.9-21.6-25.6-21.2-53.1-40-79.8-59.7-1.8-1.3-3.7-2.5-4.8-4.6-4.1-3.1-8.9-3.8-13.6-5-.3 1.2-.7 1.9-.5 2.4 7.3 16.4 14.7 32.8 22 49.2 1.3 2.9 3.5 4.8 5.9 6.6 30 22.7 60.7 44.5 91.5 66.1 2.2 1.5 4.3 3.3 7.3 2.6 6.4-1.5 13.2-1.2 18.8-5.7 3.6-2.9 8.3-4.2 12.7-5.7 22.6-7.5 44.7-4.1 66.7 2.5 6.5 2 10.6 5.5 13.2 12.2 9.8 25.5 20.1 50.8 30.3 76.1.8 2 .6 4.7 3.4 5.5 2.3-2.2 1.6-5 1.6-7.5 0-17.3-.5-34.6.8-51.9.4-5.6.9-11.3-.3-16.9-7.5.8-5 7-6.2 11.3z" clip-rule="evenodd"/><path id="cl1" fill="#F3CC3F" fill-rule="evenodd" d="M1498.1 468c-18.8 21.8-37.8 43.5-57.9 64.1-15.6 2.8-33.8-10.6-35.9-27-1.4-11-.6-21.7 4.1-32.2 14.9-33 32.4-64.9 45.5-98.8 11.3-29.3 20.7-59 19.8-91-.6-20.7-5.3-40.1-18.2-57-3-4-4.9-8.6-6-13.3 9.5 33.7 4.9 66.4-8.1 98.2-11 26.8-28.5 49.4-49 69.8-28.3 28.2-56.4 56.6-84.8 84.7-9.6 9.4-17.3 20.2-24.6 31.3-12.2 18.5-8.5 39-7.7 59.1.9 23.5 5.4 60.5 5.2 84.1-2.7 9.2-9.6 7-16.1 5.8-8.3-1.1-8.5-1.1-9.2-8.4-3.6-41.8-5.8-97.4-9.3-139.1-1.7-19.9-3.1-39.8-4.7-59.7-.3-4-.7-7.8 1.8-11.5 20.8-31.7 41.4-63.5 62.1-95.2 5.7-5 9.6-11.5 14.2-17.5 18.3-26.2 38.3-51 57.3-76.6 23.6-31.6 41.1-66 56.6-101.7 1.6-3.7 3.5-7.2 5.7-10.5 7.5-11.4 14.6-12.1 23.6-1.5 10.3 12.2 20.5 24.5 29.1 38.1 8.6 13.5 16.3 27.4 22.8 41.8-.7-3-.9-6.4-.2-9.5 2.7-12.4 3.7-24.9 3.9-37.6.1-11.1 5.8-13.6 14.8-7.4 15.8 11 27.3 26.2 39.8 40.5 3.3 3.8 6.6 7.5 10.2 11.4-3-14.2-6.4-27.9-11.5-41.1-1.4-3.7-3-8.1 1-11 3.9-2.9 7.6 0 11 2.1 29.5 18.5 54.3 42.4 77.5 68.3 16.2 18.1 31 37.3 46.4 56.1 9.1 11.1 15.7 23.9 23.7 35.8 2.2 3.3 3.8 7 7.1 10.3 3.3-3.9 3.6-10.8 10.2-11 5.4-.2 9 3.8 13.2 6.4 19.3 11.7 35.9 26.2 48.5 45.2 9.5 14.5 15.2 30.2 18 47.2 1.1 6.6 3.6 21.2.9 27-5 7.1-11.8 12.5-17.9 18.5-20.9 20.4-42.2 40.4-64.3 59.6-.9.4-1.6.9-2.1 1.7l-.1.1c-7.5-2.9-8-16.8-6.2-20.7 9.1-20.2 12.2-41.2 11.8-63.2-.4-24.4-8-46.3-19.5-67.3-20.2-36.7-50.3-64.2-82.6-89.7-1.6-1.2-3.2-2.4-4.1-4.2 27.3 41.7 46.7 86.4 52.8 136.5 6.7 55-7.2 104.8-35.4 151.4-5.5 9-7.4 23.8-15.3 30.5-2.8 3.4-10.5-6.1-12.9-8.4-5.9-5.8-11.9-11.5-17.9-17.3l-75.1-72.4c-7.1-12.9-5.1-27.4-5.8-41.1-1.7-36.9-4.1-73.7-5.5-110.6-.3-7.6 1.3-15.1 1.6-22.7-.8 30.2-9.2 59.1-15 88.4-2.6 13.1-5.6 26-8 39.1-1.8 8.6-4 16.4-9.3 23.1zm296.2 83.1c-4.6-4.9-9.3-3.9-14.5-1.5-26.1 11.8-50.9 22.6-77 34.3m-475.5-207.2l-1.2-2.4c-5.5-8.6-9.4-18.1-14.7-26.9-2.5-4.2-4.8-9-11.1-8-3 1.7-3.3 5-4.2 7.8-.2 13.6 5.4 26.2 6.2 40.6-5.3-9.3-9.7-17.8-13.8-26.5-9.5-20.4-15.9-42.5-29.9-60.7-2.6-3.4-4.1-8.3-9.4-7.6-5 .7-6.5 5.3-8.1 9.3-7.5 19.2-12.8 39-19.3 58.3-3-11.3-7.1-22.5-11-33.9-1.3-3.7-1.3-8.6-6.2-9.2-4.9-.6-7.8 3.1-10.3 6.8-5.9 8.8-10.5 18.5-15.7 27.8-2.4 4-4 8.5-6.7 12.4-6.3 15.3-12.6 30.7-18.9 46-1.2 2.9-.8 5.9-.5 8.8 2.6 25.1 5.2 50.3 7.8 75.4.3 2.7-4.3 17-2.3 19.2 23.7 26 46.3 53.2 71 78.3 2.9.6 3.9-1.4 4.8-3.6.9-4.5 4.2-20.6 2.9-24.6-6.9-20.9-13.8-41.7-20.3-62.7-2.3-7.2-2.6-14-1-21.5 7.8-36.6 17.2-72.9 23.9-109.7-1.2 2.9-1.3 5.9-.8 8.9 3.5 25 6.8 50 10.1 75 1.5 11.3 4.1 22 11.7 31.2 8.8 10.8 17.1 22.1 25.7 33.1 10.7 13.6 21.8 27 37.6 35.2 4.5 2.3 18.4 10.8 24.2 6.6-.1-3.7-.2-7.3-.5-11-2.5-30.9-2.8-53.5-5.2-84.4-2-25.7-11-26.1 2.2-45.3 2.1-3.1 2.6-5.9 1.1-9.3-2.8-6.4-10.6-19-13.3-25.5-1.7-2.7-3.6-5.1-4.8-7.9zm127.3 504.7c1.3-22.2 3.2-44.4 4.1-66.6.3-5.9 3.1-10.7 6.9-15.1 8.8-10.4 18.1-20.4 25.7-31.8 9.2-13.8 21.7-25.2 29-40.4.8-2.8-.2-5.9 1.1-8.7 2.8-5.4 4.1-11.5 7.5-16.7 1.2-3.9 5.5-7.7 1.6-11.9-3.5-3.7-8.1-1.9-12.2-.5-9.1 3-17.9 7-27 10.9 1.7-8.7 4.1-16.9 6.6-25.1 1.1-3.8 2.2-8.1-1.3-11.3-3.6-3.2-7.7-1.4-11.2.3-12.2 6-24.7 11.6-36.3 18.8-8.4 5.2-27.3 8.7-33.8 16.7-1.5 1.8-2.5 3.9-4.2 5.6-.9 1-1.5 2.3-2.7 3-23 45.5-45 91.4-65.7 138-3.5 7.9 5.9 13.3 10.9 20.5 28.8 42 56.6 84.7 82.7 128.5 1.5 2.4 2.3 5.5 5.4 6.9 2.7-3.1 2.2-6.9 2.6-10.4 6.2-36.6 8.2-73.7 10.3-110.7zM1328.3 661c-.6-4.5-4.1-4.5-7.4-5-46.3-6.5-92.5-14-138.8-21.3-9.3-1.5-20.3-.6-27.4-7.5-21.6-20.8-43.3-41.6-63.4-63.8-18.6-20.5-38.8-39.4-58-59.2-2.4-2.4-5.2-4.7-8.8-2.7-3.5 2-3 5.7-2.2 9 1.4 6.1 4.7 11.6 6.3 18-6.8-3.2-11.5-8.5-16.2-13.5-21-22.1-45-40.5-69.7-58-2.6-1.8-4.8-5-8.8-2.9-.5 3 .3 5.9.9 8.8 9.8 50.8 19.4 101.7 29.5 152.5 3.9 19.5 6.8 39.2 12.3 58.4 2.8-1.4 2-3.9 1.9-6.1-1-27.3-1.3-54.6-3.1-81.8-1.4-19.9-.6-40-2.9-59.8-.5-4-1.3-8.4 1.1-13 5.6 3.9 8.6 9.2 12.3 13.8 34.1 41.8 69.2 82.8 104.5 123.5 4.8 5.6 10.1 9.1 17 11.4 48 16 96.4 31 144.9 45.4 21.5 6.4 21.3 6.5 39.5-6.4 7.3-5.1 13.8-11.5 22.4-14.7 6-7.7 8.9-17.1 14.1-25.1zm686.1-72.2c-20.8 16.2-37.9 36.2-56.6 54.5-9.3 9.1-19.1 17.3-30 24.4-20.3 13.2-40.3 26.9-60.8 39.8-4.6 2.9-9 5.9-7.3 12.5 2.9 15.3 5.8 30.5 8.9 47.3 67.2-29.3 116.1-77.8 159.1-133.5 3.6-3.6 6.1-8 9.2-12 5.2-7.9 10.6-15.6 15.7-23.5 1.5-3.7 4.9-6.2 6.5-9.8 1.6-3.4 5.7-6.5 2.8-10.7-2.6-3.8-6.8-2.7-10.8-2.8-7.9-.2-15.2 3.2-23 3.1.1.1-7.7 3.3-13.7 10.7zm-776.2-250.4c3.5-17.6 5.2-35.4 8-53.1 3-19 4.9-38.2 8.8-58.4 12.2 26.7 24.9 51.6 38.4 75.9 2.3 4.1 11.7 16.3 18.4 15.4 8.1-10.7 15.4-21.9 21.9-33.6.3-6.5-11.4-17.9-15.1-22.5-8.3-10.3-16.3-20.9-25.6-30.4-7.2-7.4-12-15.2-9.3-26.6 2.3-9.7-.2-19-6.7-27-6.3-7.8-12.4-7.4-16.5 1.6-1.8 3.9-3 8.1-4.1 12.4 0 .2-.5.1-.5.3-4.2-10-11.4-18.3-17.6-27.2-2.7-3.9-6.3-6.4-10.1-.7-.6 3.7-2.8 6.9-3.5 10.6-.2.6-.5 1.3-.5 1.9-1.2 33.3-13.4 73.2-23.3 105-1.2 3.9-.5 7.1.8 10.5 7.4 19.5 14.7 39.1 22.1 58.7 7.2 4.4 13.6-8.9 14.4-12.8zm-23.6 553c-6.7-8.2-11.5-19.2-20.7-23.9-8.7-4.5-20-4.2-30.1-6.2m935.7-45c-4.1-2.1-6.7.7-9.7 2.8l-44.4 30c-14.7 9.8-28.8 10.6-44.3 5.5-17.6-5.9-35.9-9.3-53.7-14.5-5-1.4-11-5.3-15.6-2.2-1.5.4-1.5 2.3-2.8 3-8.2 4.2-14.1 13.6-21.3 19.2-.5.7-1 1.4-1.7 1.9v.1c2.2 1.8 5 1.7 7.6 2 17.1 2.4 34.4 3.2 51.1 8.1 11.2 3.3 22.4 6.3 33.4 9.9 6.8 2.2 12.8 1.7 19.3-1 16.6-6.8 33.6-12.5 50.7-18 4.1-1.3 8-3.2 12-4.8 6.9-13.8 13.7-27.7 19.4-42zm-1043.7 80c-.2-4.5-3.5-6.4-7-7.5-17.3-5.8-33.8-13.5-51.1-19.4-21.9-7.6-43.5-15.7-60.6-32.7-9.8-9.7-20.7-18.6-32.8-25.7-3.1-1.8-5.8-4.8-9.9-2.6.5 1.2 1 2.4 1.6 3.7 1.9 1.8 4 3.4 5.8 5.4 23.4 26.3 46.9 52.5 71.6 77.6 4.8 4.9 10.1 8.3 16.7 10.1 13.1 3.6 26.1 7.6 39.2 11.6 3.6 1.1 7.1 1.9 10.5-.6 4-7.8 9.7-14.1 16-19.9zm905.8-94.7c3.3-17.7 9.7-34.4 14.5-51.7-.9-1.4.7-5.9-3.6-3-1.6 1.1-3 2.7-4.6 3.9-13.8 10.4-26.3 22.5-41.6 30.9-7.9 4.3-15.4 9.3-23.2 13.8-3.6 2.1-26.8 21-26 25.4 1.3 7.2 7.2 40.1 8 47.4.5 4.8.8 9.1 4.7 7.1 2.7-1.3 7.3-6.2 10.1-7.3 12-4.9 36.4-46.7 48.9-50.4 6.4.4 11.9-10.9 12.8-16.1zM1586 604c-18.9-8.9-37.9-17.8-56.8-26.7-7.6-3.6-7.7-3.6-12.7 3.4m105.5 8.5c-1.2-.7-2.5-1.1-3.7-1.7-1.8-.7-3.3-1.9-5-2.6-5.6-3-11.6-4.9-17.9-5.5-3-.3-6.3-.1-7.6 3.2-1.3 3.1.6 5.7 2.4 8.2 2.9 3.9 8.4 4 11.8 8-2-3.6-5.8-3.4-8.5-4.9-3.1-1.7-6.8-1.3-9 1.7-2.7 3.6.4 6 2.7 8.4 2.5 1.5 4.8 3.3 7.1 5 3.1 1.8 4.4 5.4 7.1 7.5 12.3 7.1 25.2 9.4 39.4 6.4 15.9-3.4 32-6.3 48.1-8.9 8.4-1.4 12.6 1.7 15.4 8.8 4.4 11.1 9.3 22.1 14.1 33.1 4.3 9.9 6.7 19.7 5.9 30.8-.7 10.3-2.1 20.5-2.3 30.8-.5 20.6-4 41-4.4 61.7-.3 16.2-5.9 30.2-16 43-6.6 8.3-12.8 17.1-14.3 28.2.2 2.1-.3 4.7 3.3 4.1 13.8-12 27.4-24.2 41.4-36 29.2-24.7 58.5-49.2 87.7-73.8 3.3-2.8 6.3-5.3 6.7-10.4 2.4-30.8 4.9-61.6 5.3-92.5.1-5 .2-9.9-1.3-14.7-4.7-15.1-11.9-28.7-22.2-40.7-5 4.4-2.5 9.9-1.8 14.9 2.2 16 4.4 31.8 2.1 48.2-1.7 11.9-3.7 24.1-2.6 36.4.5 2.2.4 4.3.4 6.5v-1.5c.8-19.5-8-35.1-19.8-49.5-2.7-3.3-5.6-7.4-10.7-5.2-4.4 2-5.3 6.4-5.6 10.9-.7 9.3.4 18.6 1.8 27.7.1.7 0 1-.3.9-1.3-.3.2 1 .2 1.9.5-13.6-5.5-22.5-11-31.5-1.7-2.8-4.5-5.3-8.3-4.2-3.5 1.1-5 4.2-5.4 7.7-.3 2.3.2 4.6.5 7 .3.9.5 1.8.6 2.9-2.1-17.9-12.1-31.7-24-44.4-7.4-7.9-14.5-19.4-27.2-18.8-4 1.7-1-4.9 4.1-7.3-4.9-3.4 17.7-11.6 78.9-39.2 9.6-3.5 9.9-1.6 14.5 1.5.4.3-10.3 3.9-9.9 4.4 20.5 22.1 41.1 44.5 49.6 74.3 5.5 9.3 22 1.1 28.9-.4 23.4-4.9 46.7-10 70.3-13.4 29.6-4.3 59.1-9 83.6-28.3 3-6.3 11-9.7 13.3-9.8 4.7-2.6 10.6-4.8 13.8-9.2 6-8.3 3.5-14.7-6.5-14.7-26-.1-51.7-4.2-77.7-4.2-27 0-53.9-1.3-80.4-6.4-17.9-3.4-36.3-3.1-54-7.7-1.4-1.7-4.1-2.6-3.3-5.6 3.8-.1 36.7 2.1 44 1.9 7.5-.2 14.3-9.2 20.3-13.6 10.7-7.8 21.7-15.3 32.5-22.9 9.5-6.7 15.9-15.3 20-26.4 10.3-27.6 19.8-55.5 28.7-83.6.2-3.6 2.3-6.7 2.9-9.4-1.8 3.7-2.6 8.5-4.4 12.9-8.8 26.8-15.9 54.1-22.3 81.5-1.5 6.6-4.2 12.3-8.5 17.7-7.1 9-15.7 16.3-23.3 24.6-2.5 2.7-5.3 5.5-4.4 9.5 1.1 4.7 4.1 10 6.5 12.2 15.6.6 31.2.9 46.8 2 7.1.5 13.9-2.5 18.4-15.9 17.9-23.4 29.5-49.4 32.1-79.1 0-.3.1-.7 0-1-.1-.2-.3-.5-.5-.5-4.1.1-5.4 3.4-7 6.3-5.5 10.1-13.1 18.1-23.6 23.3-.7-2.8.3-5.3.9-7.8 7.1-30.5 13.6-61 11.3-92.6-.4-5.3-.9-10.6-2.3-15.7-1.9-7-6.4-7.8-12.2-4.9-3.3 1.7-5.8 4.4-8.5 6.9-14.7 13.1-24.8 30.3-38.8 44.2-6.1 6-14 10.4-18.4 18.3-.1.2 0 0-.2.2 3.4-4.8 4.8-10.6 5.8-16.5.7-4.3.8-9.2-3.3-11.7-4.8-2.9-9 .1-12.4 3.4-30.1 29.3-66 50.9-99.5 75.7-1.1.8-2.2 1.7-3.3 2.6-.8.4-1.5.9-2.2 1.5-2.4 1.7-4.8 3.5-7.3 5.1-1.8 1.5-3.6 2.9-5.3 4.5-25.2 23.7-51.1 46.5-78.1 68.2-19.1 15.4-39.2 29.6-61.2 41.5 1.3 1.8 2.2 3.2 3.1 4.5 1.2 1.9-25.2-6.9-26.6-8zm-384.3 263.5c.6-2.8-.5-4.3-3.3-4.8-2.6-.4-5.1-1.2-7.6-1.8-4.6-2-9.8-.7-14.3-3.1-28.4-6.7-57.1-11.5-85.9-15.8-12.7-1.9-26-2.5-37.7-8.4-33.4-17-66.3-35-100.5-50.5-3.9-1.8-7.6-4.4-12.3-3.3 1.4 1.5 2.6 3.1 4.1 4.3 30.8 24.9 62.4 48.7 94.5 71.9 3.6 2.6 7.6 3.9 11.9 4.8 25.8 5.1 51.5 10.3 77.3 15.4 10.1 2 21.3 1.7 30.1 6.2 9.1 4.7 14 15.7 20.7 23.9 6 7.4 11.8 14.9 18.4 23.2 2.8-8.1 0-15.6 2.8-22.4.9-13.3-1.1-26.6 1.8-39.6z" clip-rule="evenodd"/><path id="hl1" fill="#FBF3FD" fill-rule="evenodd" d="M1829.3 436.8c-.3-14-6.9-36.4-11.7-49.7-7.5-20.7-21.5-36.6-37.4-51-10.1-9.1-22.9-14.4-33.1-24.1-4.2 7-3.6 14.5-7 20.6-4.3-1.2-5.2-4.5-6.8-7.3-13-22.9-27.8-44.5-44.3-65.1-14-17.4-28.9-33.9-44-50.3-10.6-11.4-19.9-24.5-33.3-32.8-12.5-7.7-23.7-17.1-35.7-25.4-.7-.5-1.7-.5-4.4-1.2 10.8 20.3 11.6 42.4 19.7 62.6-25-18.6-40.7-46.7-67.3-64.6-2.6 7.8-.7 15.4-1.5 22.8-.9 7.3-2.7 14.4-3.7 21.6-1.1 7.4-.7 15-1.9 22.8-18.4-35.5-37.6-70.2-67.5-98.3-4.8 6.3-8 12.4-10.9 18.7-6.9 14.8-13.6 29.7-20.5 44.4-8.5 18.2-18.9 35.1-31.5 50.7-11.1 13.7-19 29.9-30.9 43-12.3 13.5-21.9 29.4-35.4 41.9-1.9 0-3-.8-2.5-2.8 6.2-9.8 12-20 18.8-29.4 13.9-18.8 24.6-39.5 36.8-59.3 8.7-14.2 16.8-28.7 23.9-43.8 5.3-11.1 7.3-22.1 5.5-34.7-5-36.3-8.8-72.7-13-109.1-.3-2.2-1.3-4.5.1-6.7 1.8-.7 3.3.2 4.8.8 64.3 25.7 128.1 52.5 190.1 83.3 25.1 12.5 48.5 27.5 69.1 46.9 56.5 53.2 113.5 105.9 168.9 160.3 15.4 15.1 31 30.3 42.5 48.9 3.6 1.9 13 10.9 15.8 14.3-16.7 16.7-34 36.7-51.7 52zm-402.2 270.1c6.5.8 8.7-4.7 11-8.5 21.9-34.4 47.9-65.9 70.8-99.6 14-20.6 14.3-20.1 37.8-9.6 13.2 5.9 25.6 14.1 40 17.1 2-.7 3.9-1.4 3.2-4.2-1.4-1.9-4.8-2.3-4.3-6 6.2-.1 11.9 3.3 18.9 2.4-5.1-6.2-12.2-9.3-17-17.3 10.3 2.8 18.8 5.1 27.3 7.4l2.4.9c1.4.2 2.9.4 4.3.6.3 0 .6-.2.8-.5.3-.4 52.3 24.6 1.4-15.1-35.3-34-70.5-68-105.8-101.9-5.9-5.6-18.2-6-25.2 1.7-.7.7-1.3 1.5-2 2.2-49.5 54.9-98.6 110.3-146.8 166.4-12.6 14.7-25.3 45.4-33.1 62.7-.7 2.1 11.2-3.3 13-3.3 23.2-13.2 46.4-26.4 72.8-38.4-4.7 15.5-9.2 28.5-10.9 43.2 15.2-5.2 28.4-12.5 44.3-16-1.7 4.6-2.9 7.7-4 10.8-1.6 2.1-.9 3.7 1.1 5zm483.1-282.7c7.2-6.4 14.6-12.6 21.4-19.4 9.7-9.6 18.3-20.1 26.7-30.9 6.1-7.8 13.8-14.4 20.9-21.3 1.5-1.5 3.2-3.6 6.4-2.2 3.3 22.9 4.4 46-.3 69.2-3.3 16.3-6.3 32.7-10.7 48.7-1.1 3.9-2.2 8-.2 12.1 15.7-10.5 29.9-21.2 36.8-38.8 1.6-11.7-1-23.2-2.1-34.7-4-41.6-11-82.9-17.5-124.1-3-19-5.2-38.1-9.6-56.9-.7-1.3-1.5-1.3-2.4-.1-1.2 2.7-2.5 5.4-3.6 8.2-9.7 26.2-19.9 52.2-31.7 77.5-9.7 20.7-21.8 39.9-39.7 54.4-10.6 8.7-20.2 18.3-29.8 28l-72.9 72.6c-.8.3-1.4.8-1.7 1.7l-.2.2c-.8.4-1.4.9-1.8 1.8l-.2.2c-.8.4-1.4 1-1.9 1.8l-.1.1c-.6 1.7 0 2.3 1.7 2.1.8-.4 1.7-.8 2.5-1.1.6 0 1-.3 1.3-.8 20.2-11 38.3-25.3 57.4-37.9 19.4-12.8 34.9-30.4 53.2-44 2.6 2 1.7 3.7 1.7 5.3.1 9.2-4.7 17.3-6.2 26.1-.4 2 .6 2.6 2.6 2.2zM1226 370c-1.3-1.2-1-3.1-1.7-4.5-12-32-20.9-65.2-39.4-94.6-14.7-23.4-28.1-47.6-44.6-69.9-2.1-2.8-3.6-6.5-7.7-7.7-.4 1.3-.8 2.6-1.2 3.8-6.9 27.2-16 53.6-25.9 79.8l-25.5 67.2c-1.2 1-.8 2.8-1.7 4-.5.4-.7 1-.6 1.7-1 2.2-1.1 4.1 2 4.5 4.1-6.1 7.7-12.5 12.3-18.2 4.3-5.4 6-13.1 12.7-16.5 5 18.4 10.4 36.1 18.2 53.1 2.5-6.7 4-13.4 5.9-20 2-6.7 4.4-13.3 6.5-19.9 2.2-6.6 3.6-13.6 6.5-19.9 2.7-6 2.4-13.5 8.7-18.9 2.4 6.4 5.8 11.3 9.1 16.3 5.7 8.6 10.4 17.8 14.1 27.4 6.9 18 14.8 35.5 24.5 52.2 2.1 3.7 4.6 7.2 9.4 8.5 1.8-4 .4-7.6-.2-11.1-2.5-13-5-26.1-7.5-39.1-.3-2.8-3.7-6.4 1.8-7.9 4.4 5.4 7.1 11.7 10.6 17.6 4 6.7 7.7 13.6 13.6 18.9 1.6-2.3 1.4-4.5.1-6.8zm107.4 284.1c-27.4-4.1-54.1-7.9-80.7-12.2-28.3-4.5-56.7-7.9-84.8-13.4-5.1-1-9.3-2.9-12.9-6.8-16.8-18.5-34-36.6-50.7-55.1-22.8-25.4-45.6-50.6-71.7-73C997 463 964 429.5 929.9 397.3c-2.3-2.2-4.1-5.3-8.6-6.1 4.2 21.2 7.2 42.3 12.5 62.8 3.4 3.1 6.5 6.7 10.2 9.4 25.9 18.2 50.2 38.2 71.9 61.4 5.5 5.9 11.8 11.4 21.3 12.9-4.5-11.9-8.7-23.1-13-34.2.6-.3 1.2-.7 1.8-1 2.8 2.7 5.6 5.4 8.3 8.2 37.8 38.9 75 78.3 113.8 116.3 4.2 4.1 8.6 6.7 14.5 7.7 55 9.8 110.3 18.1 165.5 26.2 2.3-1.7 4.5-3.5 5.3-6.8zm474.4 33.7c1.6-12.2 3.5-24.3 4.8-36.5 2.4-22 .4-43.7-4.7-65.2-5.2-9-12.5-16.3-19.1-24.1-2.7-3.2-5.3-3-8.7-1.5-27.9 12.3-63.4 19.2-90.8 32.6 25.1 15.1 49.1 42.3 57.1 70.5 5.2.5 1.1-4.5 3.4-5.7 0-5.1.5-10.1 3.1-15.6 8.5 11.4 12.8 24 20.2 35.8 1.4-14.3-.8-27.7 3.2-42 15.3 17 25.2 34.5 28 55.7 4 1.3 1.9-3 3.5-4zm244.7-85.5c16-20.4 30.2-41.9 43.9-63.8.6-2.4-.4-3.2-2.8-2.8-30.5 9.2-61.6 10.1-93 7.2-12.3-1.1-24-5.1-36.4-5.7-46.3-2.4-92.6-1.5-139-1.5 1.5 3.5 5 2.9 7.7 3.5 39.1 8.8 78.4 15.3 118.6 15.3 8 0 16 .2 24 .5 22.3.9 44.5 4.1 66.8 3.3 1 0 1.9.4 2.4 2.2-4.6 6.4-10.7 12-16.6 17.8.3 4 3.1 3.4 5.7 3.1 8.7-1 17.3-1.9 26.9-3-4 7.3-7.4 13.7-10.8 20-1.3 2.6-1 4.3 2.6 3.9zm-715.8-318.9c6.1-6.5 10.6-13.4 7-21-4.7-10-21.7-29.5-28.2-38.4-5.1-7-10.5-13.8-15.1-21-18.9-29.7-37.5-59.6-56.3-89.4-1.1-1.7-1.3-4.6-4.9-4.3-4.9 15.8-10 31.6-11.4 48.3-.2 2.9-2.8 6.4 1.9 8.3 1.3-1 2.7-4.3 4.2-1.1 5.7 11.8 16 20.7 20.5 33.3.9 1.2 1.2 3.3 3.5 1.8 4-8.2 5.7-17.3 10.4-25.5 12.9 14.7 13.8 15.8 10.8 33.4-1.5 8.7.6 15.5 6.2 21.9 13 15 26.9 29.3 37.6 46.2.7 1.1 9.2 11.5 10.3 12.4 1-1.8 2.1-3.5 3.5-4.9zM2102.9 807c-15.4 10.2-30.1 19.3-44 29.4-10 7.2-19.6 7.9-30.8 3.5-22.3-8.9-43.3-20.2-64-32.1-6.4-2.8-6.6 2.5-8.1 6.1-8 9-16.9 15.5-24.9 24.5.2.3-2.2 3.9 1.6 3.3 3 .4 6.1.4 8.8 1.3 17.7 5.7 36.3 8.2 53.9 14.8 7.5 2.8 15.4 3.8 23.4 4.9 7.4 1 13.9-.6 19.9-4.5 12.9-8.3 26-16.1 38.2-25.4 7.4-5.6 14.3-12 22.6-16.4 1.5-2.7 3.8-5 3.4-9.4zM990.3 767.7c31.9 11.3 63.8 22.7 95.7 33.7 40.2 13.8 80.7 26.6 121.4 38.5m-140.2 48.4c-59.4-27.7-117.6-55.5-174.6-87.2m321.4 41.1c-2.2-.8-4.3-1.7-6.6-2.3-40.8-12-81.3-24.7-121.4-38.5-32-11-63.8-22.5-95.7-33.7-2-.8-2.5.3-2.6 2 32.4 19 65.9 35.9 99.1 53.3 3 1.5 6 2.8 9.3 3.4 38.6 7 77.3 13.1 116.1 18.1 1.7 0 2.3-.7 1.8-2.3zm-146.8 46.1c-59.4-27.7-117.6-55.5-174.6-87.2-.8 3.8.6 5.6 1.9 7.4 2.7.7 4.8 2.3 6.8 4 11.9 10 23.8 20.1 35.8 30.1 6.9 5.7 13.1 12.4 21.5 15.9 11.3 4.8 22.6 9.5 34 13.9 21 8.1 42.1 16 63.2 24 4-2 7.9-4 11.4-8.1z" clip-rule="evenodd"/><path fill="none" fill-rule="evenodd" stroke="#000" stroke-miterlimit="10" stroke-width="6" d="M1884.8 384.1c7.5-3.5 40.9-36.8 50.9-55.7s45.6-105.4 45.4-103.4 28.2 165.7 27.5 176c12.7 45.7-8.3 96-37.3 135.3 32.4 9.7 97.2 5.2 107.5 3.2s20.2-8.6 17.7-1c-46.2 75.2-91.7 126-91.7 126s-6.3 25.8-8 30.8-36.8 105-32.5 110c70.8 46.5 87.3 33.5 87.3 33.5 11-3.9 50.8-36.3 51.4-31.8.4 6.3-29.4 62-38.2 84-10.1 26.3-17.9 25.2-17.9 25.2-7 3.3-132.6 30.3-174.3 39.7-2.5-9.6-2-21-1.2-34s14.9-36 16.3-39.5-2.1-9.4-4.3-20.7-37.6-204.7-39.4-217.3-14.7-20.4-12.5-.4c1.7 99-9.5 98.4-11.9 100.5S1713 829 1704 842.3s-17.5 14.7-19 11.2-2-114.5-.4-146-3.1-41-4.7-64.8-15.4-16.2-23-15.8-57.9 6.1-82.5 3.4-44 15-48.5 19.2-84.4 87-95.7 100.2c-10.2 3.2-36 50.4-43.9 68.3s-43.7 188.9-48.7 184.5-97.6-158.2-98.3-152.5-5.3 96.8-4.1 109-3 8.7-3.6 8.1-25.3-63.7-30.6-73.1c-.7-6.1-9.4-14.8-11.8-16.8-14-11.3-57.8-6.8-66.6-5.8s-6.6 7.1-20.1 9.7-17.3 2.4-21.3 0c-5.5-.9-84.1-60.6-91.5-66.1-1.1-.9-6.9-6.3-6.9-6.3-2.6-2.2-29.7-55.8-21-53.5 9.2 3.9 106.7 36.8 106.7 36.8s18.5 3.5-.1-12.9-91.9-98.1-94.9-105.6c-4.4-2.9-31.5-163.5-32.7-179.1S913.7 387 919.7 386.7s121.7 122 132.3 124.4 6.4-12.1 6.4-12.1-7.7-63-8.3-91c73.3-167.7 76.3-211.5 83-218.3 10.3 7 62.7 95.3 62.7 95.3s1.7 8.9 8.3-7.3 17.4-65.9 17.7-102.7c1.3-15.7 14-76 18-67.7 103 163.3 108.6 159.1 108.6 159.1s59.6-77.7 54.3-120.2C1402.1 138.5 1380 38 1389 25c225 94 264.9 136.5 264.9 136.5C1670.9 176.1 1884 385 1884 385l.8-.9zm-850.6 602c-13.2-44.5 5.6-70 10.1-77.2s23.4-18 24.4-20.7c-2.3-3.9-71.2-33.1-76.5-38.3s-99.5-50.7-100.7-49.8 2 5 2.3 6.3 43.7 99.5 47 111.6c12.8 38.6 19.7 38.6 19.7 38.6 1.1.9 72.1 35.5 72.1 35.5s4.6-.3 1.6-6zm36.8-193.8s160.3 54.4 168 54.4m410.3-247.1s-3-5.5-4.2-7.2-121.4-115.3-129.7-123.4-13.3-3.4-19.7 1.7-159.4 181.9-159.4 181.9c-12.7 12-96.7 196.3-96.7 196.3M1645.3 592c44.8-10.5 238.6-207 238.6-207m-830.6 126.3s88.8 98.1 101.8 110.4 174.5 36 180.6 31.9m-138-365.6l48.3 126.5m102.3-148s-106.6 154.5-108.8 162c.7 25 15.6 213.8 15.9 213.9m577.3-9c-.7-23.1-46.7-76.4-48.2-76.4s-104.2 37.5-104.2 37.5M1819 532s149.7 8 152.3 4.3m-102.6 231c69.4-26.8 136.1-102.8 136.1-102.8m-40.5 140.8c-4.8.3-76.4 73.9-76.4 73.9" clip-rule="evenodd"/></svg>