<svg xmlns="http://www.w3.org/2000/svg" id="hair" viewBox="0 0 3000 3000"><path id="cl1" fill="#F3CC3F" fill-rule="evenodd" d="M1665.8 782.1c-2.7-4-1.5-8.4-1.2-12.6 3.9-53.8 6.5-107.7 8-161.7 0-1.6.3-3.3-.8-4.9-2.8-1.4-4.2 1.1-5.7 2.5-6.2 5.6-12.2 11.3-18.4 16.9-1.6 1.5-3.1 4-5.8 2.8-2.1-1-1.7-3.4-1.9-5.3-2-21.6-4-43.1-6-64.7-4-43.5-8.1-86.9-12.1-130.4-.1-1-.5-1.9-1-3.2-3.5.6-3.6 3.6-4.4 5.8-7.6 20.3-15 40.6-22.5 60.9-.9 2.5-1.8 5-2.9 7.4-1.5 3.3-3.7 3.6-6.1.9-1.1-1.2-2.2-2.5-3.3-3.8-30.7-37.8-64.8-72.5-99.5-106.7-6.7-6.6-10.5-13.8-12.3-23-8.5-43.5-15.4-87.2-23-130.9-1.5-8.7-1.4-17 .7-25.6 10.1-41.4 19.8-83 29.6-124.5.5-1.9.6-3.9.8-5.9 3.8-6.5 3.7-6.5 7.9-.7 28.8 40.5 54.4 83 78.8 126.2 13.5 23.8 26.9 47.6 36.4 73.3.6 1.5-.4-.6.7.5 3.1 3.3 3.7-25.8.2-35.8-11.1-31.9-18.8-64.9-26.7-97.7-2.8-11.6-6-23.1-8.9-34.7-1.1-4.6-3.2-11 5.5-11.5 21.4 41.8 42.8 83.6 64.3 125.3 2.3 4.4 2.7 8.9 2.8 13.5 1.1 32.3 5.5 64.7 6.7 97 .5 13-.3 25.5.5 38.5.5 7.6-.9-76.9-3.2-118.8-1.1-20.6 10.8-47.7 13.8-67.8.6-4.2 1.5-8.4 2.5-13.7 4.3 2.9 5 6.8 6.7 10.1 25.4 50.1 41.4 103.6 55 157.8 13 52.1 23.1 104.6 24.5 158.6.4 15.3-.4 30.5-.4 45.8.1 12.1 4.5 14.6 14.8 8.1 27.6-17.5 49.5-40.1 62.3-70.8 14.8-35.5 26-72 31.5-110.1 2-13.8 1.5-27.9 3.5-41.8.6-3.8-.7-9.7 6.8-7.7 12.2 40.9 21.8 82.4 32.1 123.7 5.9 23.9 12.1 47.8 14.7 72.4 2.3 21.5 6.3 42.8 7 64.5.6 18.4.3 36.6-3.5 54.7-.1.7-.2 1.3-.4 2-.6 3.5 5.6-52.6 4-69.9-.5-4.9-1.5-9.4-.2-15 15.3 5.8 41.3 6.6 56.4 3.6 6.7-1.2 8.2 1.3 4.6 6.8-1.8 2.8-4.7 4.7-7.4 6.7-1.5 1.1-4.3 2.1-2.9 4.4 3.9 6.3-.4 9.9-3.9 13.9-3.1 3.6-6.1 6.7-2.9 12.2 2.1 3.7-.7 7.7-2.8 11.1-20.7 33.4-40.9 67.1-61.3 100.6-2.3 3.8-3.9 11.3-11.7 6.7-2.7-6.6-4.9-13.3-5.7-20.4 1.1-12.2 12.1-38 19.8-46.7-6.5 6.7-11.3 14.9-18.3 21.2-3.6 3.2-6.9 5.3-11.3 1.7-4.1-6.8-8.6-13.1-14.2-18.8-1.2-.7-1.1-2.5-2.4-3.1-2.4-6.5-2.7-13.1-1.2-20 1.6-7.4 2.7-15 3.8-22.5 1-7.3 2.1-14.6 3.4-20.6-6.9 14.6-14.2 30.2-24.1 44.4-1.9 2.6-4.8 3.6-7.7 4.6-5.5.4-10.7-1.9-16.1-2.2-8.1-.6-11.3-4.8-10.9-13.1.5-8.9.5-17.9-.2-26.9-.3-3.5 0-7.3-3.9-11-5 10.5-10.3 20.4-14.4 30.7-5 12.5-11.9 23.5-22.5 31.9-34.2 19.4-55.8 49.5-72 84.3-7.7 16.8-15.1 33.6-22.1 50.5zm-127.7-248.9c-13.2-21.3-29.1-40.6-46-59.1-20.8-22.6-43.3-43.5-65.7-64.3-51.3-47.7-105.5-92-158.8-137.3-65.9-55.9-135.2-107.3-207.5-154.6-.6-.6-1.3-1.1-2.1-1.5-.5-.5-1-.7-1.7-.9-1.2 3.8.2 7.2 1.2 10.7 14.6 48.1 29.3 96.3 43.8 144.4 4.9 16.1 12.2 30.9 21.7 44.8 19.2 28.2 42.1 53.4 66.5 77.1 1.4 1.3 2.6 3.2 6.1 2-4.4-32.9-8.8-66-13.4-100.2 5 1.8 6.2 5.1 8 7.7 25.9 36 52.4 71.5 80 106.2 16 20.1 32.3 39.9 50.7 57.9 4.8 4.7 9.7 9.2 15.5 12.5 10.5 6 16.6 3.1 18.1-8.7 1.2-9-.2-17.9-1.6-26.8-.8-5.2-2.8-10.2-2.2-18 8.9 11.2 15.1 21.7 22 31.7 6.8 9.9 13.4 19.9 20.1 29.8 6.9 10.2 13.7 20.5 20.7 30.7 6.8 10 13.3 20.3 21.5 29.7 4.4-22.7 1.8-45.6 6.8-68.1 47.2 62.9 95.6 124.3 138.7 189.6.7-1.7.7-3 .5-4.3-6.4-38.8-15-77.2-26.4-114.9-1.1-3.5-2.2-7-4.8-9.8-6.4 2.5-9-1.8-11.7-6.3zm-154.3 88.9c-.5-.7-1.1-1.4-2-1.8h-.1c-.7-1.6-2.8-1-3.6-2.4-4.5-2.9-8.8-6.1-13.4-8.7-38.2-21.6-79.4-35.8-121.2-48.7-3.4-1.1-6.5-1.1-9.3 1.5-3.1 4.5-7.4 3.4-11.7 2.5-18.6-3.7-36.9-8.8-54.8-15.2-69.6-24.8-135.3-57.3-196.9-98.2-4.4-2.9-9.7-5.1-13.2-8.9-11.6-12.9-25.1-23.8-37.2-36.1-38.3-39.3-76.8-78.5-115.1-117.8-4.4 2.5-2.5 6.4-2 9.9 4.6 34.7 9.1 69.3 13.9 103.9 1.9 13.5 2.3 27.3 6.8 40.3 21.8 63.6 43.7 127.2 65.4 190.9 2.3 6.8 5.9 11.2 12.7 14.1 35.6 15.1 71 30.5 106.4 45.8 2.3 1 4.6 2.9 7.8 1.1-.4-3.9-3.2-6.4-5.2-9.3-22.3-30.7-44.8-61.3-67.1-92-2-2.7-4.9-5.2-5.3-10.5 29.8 13.6 58.6 26.7 87.3 39.7 2.5 1.3 4.5 1.7 4.3-2.2-31.8-28.4-63.2-57.2-92.9-87.8-5.1-5.2-9.8-10.8-14.6-16.4-1.2-1.4-2.7-3.2-1.5-5.4 1.2-2.1 3.4-1.9 5.4-1.6 7.9 1.3 15.6 3.5 23.1 6.2 23.5 8.3 47.2 16.5 70.5 25.3 34.5 13.1 70.1 20.9 106.8 24.1 14.9 1.3 29.8 2.4 44.5 5.9 68.3 16.4 136.7 32.4 204.3 51.9 1.3.9 3 .6 4.3 1.5.6.1 1.2.2 1.9.3 1.9.7 2.6.1 1.7-1.9zm30.2-314c-6.7-25.4-13.3-50.9-20.1-76.3-3-11.2-4.9-22.8-9.4-33.7-24.2-58.5-48.3-117-72.5-175.5-1-2.3-1.5-4.9-3.8-7-6.4 5.7-11.6 11.7-16.1 18.2-.1 4.2-2.7 7.5-4.6 10.9-7.8 13.6-14.9 27.5-21.2 41.8-16.8 37.5-31.6 75.5-28.8 118 .6 8.5 2.7 13.9 9.9 18.8 57.2 38.4 114.1 77.2 171.7 115 1.9 1.2 3.5 3.2 6.2 2.3 2.8-14 1.7-17.5-6.9-22.5-2.9-2.8-3.4-6.5-4.4-10zm-532.2 486c-2.6-3.1-5.6-4.2-9.3-4.9-13.4-2.5-26.7-5.4-40.1-7.9-6.4-1.2-11.9-3.7-17.1-7.4-27.1-19.3-54.3-38.5-81.4-57.7-1.3-1.5-2.7-1.4-4.1-.2 4 7.1 8.9 13.7 14.1 20 2.4.7 3.8 2.7 5.3 4.4 28.3 32.4 56.6 64.6 84.7 97.2 4.5 5.2 9.2 9.4 15.5 12.1 32.9 14.7 67.1 26 100.8 38.3 1.2.4 2.6.8 3.3-1-.2-2.1-1.7-3.5-2.9-5.1-13.1-17.2-26.3-34.4-39.4-51.6-2-2.6-4.8-4.7-5.2-8.3-8.2-9.2-16.4-18.4-24.2-27.9zm1053.9-33c-7.8.6-15.7 2.2-23.6.7-8.1 3.7-11.7 9.9-11.9 18.8-.1 5.9.4 12-2.4 17.5.1 4 .3 8 .4 12 3.3 8.6-.3 18.2 2.9 27.1 4.4-1.6 6.5-4.7 8.6-7.6 17-23.5 38.3-43 58.5-63.6 2.3-2.4 4.7-4.7 5.8-7.9-12.7 1-25.5 2.1-38.3 3z" clip-rule="evenodd"/><path id="sd1" fill="#AD722A" fill-rule="evenodd" d="M905.9 822.1c7.7 5.4 13.4 12.9 20.1 19.2 23 21.9 47.1 42.2 75.1 57.6 5.2 2.9 10.7 5.4 16.2 7.8 3.2 1.5-81-47.6-127.4-105.8-5.8-6.3-8.2-18.4-12.9-27.5-5-9.6-9.4-19.6-13.2-27.7-15.6-33.1-31.6-66.1-47.5-99-2.4-4.9-3.5-9.9-4-15.3-7.2-84.3-14.5-168.5-21.7-252.8-1.3-15.6-2.5-31.2-3.8-46.8-.1-1.3-.4-2.7-.2-4 2.7-15.7 5.5-31.3 8.4-47.8 5.3 1.7 8.2 4.3 10.5 8.1 4 15.4 6 31.2 8.1 47 3.8 28.4 7.7 56.7 11.3 85.1 1.5 11.7 5.1 22.6 8.8 33.7 18.7 55.9 38 111.6 57.1 167.4 4.2 12.3 10.8 20.2 23 25.3 26.8 11 53.3 22.8 79.8 34.3 2.7 1.1 5.3 2.6 9.3 2.5-9.9-15.3-20.6-28.8-30.6-42.9-11.9-16.9-24.8-33-36.3-50.2-2-3-5.2-5.8-2.4-9.8 3.1-4.3 7.2-2.6 10.8-.9 27.4 12.4 55.9 22.8 81.2 39.3.5.1.9.5.9.5-1 .8.8-.3-.6-.4-9.4-4.6-16.9-11.4-24.3-18.3-27.5-25.7-56.1-50.2-80.4-79.1-.9-1-1.6-2.1-2.5-3.1-2.9-3.3-4-7.1-2.1-11.1 2.1-4.5 6.6-4.2 10.5-3.5 8.6 1.4 16.9 3.8 25.1 6.5 29.8 9.8 58.9 21.2 88.5 31.6 33.4 11.7 68.1 15.8 102.9 18.9 17.7 1.5 34.8 5.8 51.9 10 51.8 12.7 103.8 24.4 155.1 39 7.9 2.3 15.5 5.1 22.8 8.7.4.4.9.7 1.4.7-.1 0 .6.2.5.2s.4.2.3.2c-.1 0 .3.2.3.2l-.4-.2s-.5-.2-.6-.2c-.6-.2-1-.5-1.5-.7-42.6-22.3-87-40-133.1-53.1-2.3-.7-4.3-1.7-6-3.3-3.8-1.2-13.5-2.9-18.6-3.9-36.7-7.6-71.7-20.4-105.9-35.4-48.6-21.2-95.5-45.7-139.8-74.9-9-5.9.6-10.5 4.1-20.4 16.1-45.9 32.1-91.7 49.9-136.9 1.3-3.4 2.5-6.9 4.2-10.2 16.7-31.5 20.4-65.8 21.6-100.6.6-18.6.3-37.3.4-55.9 0-2.3-.4-4.7-.1-7 .8-6.2 3.5-4 6.1-1.2 13.3 21.9 16.8 47.2 24.6 71 9.2 27.8 17.2 56 25.8 84.1 9.5 31.1 29.5 55.7 50 79.9 9.6 11.3 19.1 22.9 32 33.3-1.8-18.2-4.8-34.8-6.8-51.5-1.3-10.6-2.9-21.1-4.4-31.6-.6-4.2-1.4-9.3 3.6-11.4 5.4-2.3 7.7 2.4 10.2 5.8 29.7 40.6 59.4 81.2 91.1 120.2 13.9 17 27.7 34.1 44 49.1 2.2 2 4.3 4.2 6.8 5.9 3.3 2.3 6.8 4.9 11 3 4.8-2.1 4.7-6.8 4.9-11.2.4-8.7-1.2-17.3-2.9-25.8-.7-3.3-1.3-6.6-.5-9.9 1.4-5.9 5.9-7.4 10.1-3.1 3 3.1 5.2 6.9 7.6 10.5 22.2 34 46 66.9 68.9 102.6 1.2-10 .9-18.6.6-27-.3-9.7 1.1-19.3 2.3-28.8.4-3 .7-6.1 4.1-7.4 4.1-1.5 6.1 1.3 8.2 4 16.6 21.3 32.6 43 48.5 64.8 23.8 32.5 48.2 64.6 70.8 98 3.2 4.7 6.2 9.5 8.1 13.7-1.7-2.7-2.3-6.9-3.1-11-5.8-30.5-13.2-60.5-21.7-90.3-1.2-4.2-5.4-16-7.9-20-9.4-15-22.4-27.5-34-40.9-34.4-39.5-71.2-76.2-110.6-110.6C1321.2 314 1242 248.6 1161.2 187c-1.3-1-2.6-2.1-3.9-3.1-3.3-2.3 6.2-11.3 8.8-14 6.6-7 13.1-14.2 19.6-21.3 33.5-36.6 67-73.1 100.5-109.7 1.8-1.9 3.1-4.4 5.9-5.1 5.1 1.1 4 4.4 2.6 7.7-2.2 5.2-5.2 10-7.9 15-17.2 32.1-31.3 65.3-40.4 100.7-4 15.8-3.5 31.7-3.2 47.6.1 6.1 3 10.8 8 14.2 53.7 37 107.5 73.8 162.5 109 1.1.7 2.3 1.3 4 .9 3.7-3.3-5.4-7.7.6-11 1.5-1.4-.4-2.4-2.8-11.9-7.5-28.6-14.8-57.3-22.7-85.8-2.2-8 3-1 13-21.3 23.4-39.5 46.2-79.3 69.3-119 .8-1.4 2-2.6 2.9-4 6.1 1.4 4 6 3.4 9.6-3.1 16.7-7.4 33.2-11.4 49.7-5.2 21.7-10 43.5-15.6 65.1-3 11.8-3.7 23.5-1.4 35.6 7.5 40.9 13.4 82.2 21.6 123 2 9.9 6.6 17.8 13.5 25 29.4 30.4 59.5 60.2 86.8 92.5 1.3 1.5 2.6 3 4.1 4.3 6 5.4 9.5 4.8 12.8-2.8 5.4-12.5 9.4-25.6 14.3-38.4 2.4-6.2 4.7-12.5 7.3-18.6 1.4-3.5 3.5-6.8 8-6.2 4.8.6 4.9 4.7 5.4 8.4 3.4 28.1 5.5 56.3 8.2 84.5 3 31.8 5.9 63.6 8.5 95.5.3 3.3.2 7.3 3.6 8.8 4.3 2 6.5-2.2 9.1-4.4 3.3-2.8 6.2-6.1 9.5-8.9 2.4-2 4.9-3.7 8.1-1.7 2.7 1.7 4.3 4 4.2 7.4-1.4 32.6-1.5 65.2-4.3 97.7-1 12-.9 24-1.5 35.9-.7 15-5.1 29.2-6.3 44-1.7 7.5-5.8 14-8.3 21.2-4.5.1-5.6-3.6-7.5-6-21.2-25.8-43.7-50.2-67.1-74-30.9-31.4-67.8-49.4-111.1-56.2-40.4-6.4-80.2-6.1-119.6 6.1-51.2 15.8-87.3 47.6-104.5 98.9-12.6 37.6-22.1 76-26.6 115.6-2.5 21.8 5.3 37.8 24.9 46.2 12.8 5.5 14.8 13.6 14.5 26.1-.9 38-.6 76-.7 113.9 0 10.3 0 10.4-10.2 11.5-9.3 1-18.6 1.9-27.9 2.6-8 .6-8.1.5-10.2-7.3-9.2-35.1-18.4-70.2-27.4-105.4-5-19.7-9.9-39.4-14.4-59.2-1.5-6.5-4.7-10.4-10.8-13.1-14.7-6.5-29.7-11.8-45.8-13.7-6.6-.8-13.2-1.8-19.8-2.8-17.9-2.6-31.6 4-42.9 17.7-18.1 21.9-22.7 46.5-17.3 74 3.1 16 9 30.5 18.2 43.9 15.2 22.1 31.7 42.8 54.2 58.1 7.7 5.2 14.4 11.7 22.7 16.3 12.4 6.8 25.5 11.5 39.5 13.3 3.6.5 5.3 1.8 6.2 5.2 6.8 27.4 9.4 21.5-16 21.7-4 0-7.9-.6-11.7-2.1-49.9-19.6-99.9-39.2-149.8-58.7-1.2-.5-2.3-1.3-3.8-2.1 1.5-2.9 4-1.9 6.1-1.9 10 0 20 .1 30 .2 1.7 0 3.3.1 5-.1 3.7-.3 7.8-.6 8.5-5.2.7-4.3-3.3-5.2-6.1-6.8-39.2-21.5-77.4-44.5-115.6-67.6-1.4-.8-3-1.4-3.8-3.9 3.4-1.6 7-.6 10.3-.3 24.9 2.3 49.7 4.7 74.6 7 4.6.4 9.3.8 13.9.8 2.4 0 4.5-1.2 5.4-3.7.9-2.6-.4-4.6-2.4-6-2.4-1.7-5.1-3.2-7.6-4.8-55.1-33.7-111-66.2-165.7-100.7-7.2-4.6-12.9-10.1-17.6-17.2-27-40.9-54.2-81.6-81.3-122.4-1.1-1.6-2.5-3.2-2.5-5.3 4.9-6.3 7.7-.3 10 2.2 15.9 17.9 31.7 35.8 47.5 53.9 13.1 15.1 26.1 30.2 39.5 45 6.5 7.1 15.4 10.4 24 13.8 26 10.2 52.2 19.8 78.1 29.1-13.1-15.4-24.8-32.4-37.4-48.7-2.5-2.8-5.9-6.1.3-8.9zM1858.2 299c-5.9-22.4-12.2-44.6-18.3-66.9-1.7-.8.5-5.4-3.7-3.9-2.7 18.1-5.6 36.2-8.1 54.4-8 58.4-17.7 116.6-31.9 173.9-5.9 23.9-11.7 47.9-19.8 71.2-1.2 3.5-2.2 7.1-4.8 9.8-1.8 1.8 21.4-78.4 30.1-114.7 1.1-4.5-8.3-10.1-10-14.3-5.4-12.9-11.8-25.4-18.6-37.6-31.5-56.8-63.1-113.6-94.9-170.3-3.9-6.9-6.7-14.5-12.1-20.5-.4 2.8 1 5.2 1.9 7.6 19.3 50.4 35.6 101.8 48.7 154.2 16 63.8 26.7 128.4 23.9 194.6-.3 6.7-.7 13.3-1.2 19.9-.6 8.8.2 9.3 8.7 5.9 7.8-3.1 15-7.2 21.8-12.1 16.3-11.8 30.2-26.1 42.9-41.6 1.5-1.8 2.7-3.8 3.8-5.8 13.1-24.8 23.4-50.9 30.9-77.8 8.5-30.4 13.9-61.7 14.3-93.5 0-3.9-.6-8.1 2.2-11.5-.5-7.5-4-14-5.8-21zm36.7 481.8c.6 5.8 0 11.9 2.9 17.3 6.2 2.2 6.7-2.5 6.9-6.4.4-9 1.4-17.7 7.2-25.2 1.1-1.4.4-3.2.2-4.8-3.4-4.7-.7-8.8 1.2-13.1 27.6-63.4 55.2-126.9 82.9-190.3 1.3-2.9 3.2-5.7 3-10.2-8.8 2.7-17 5.1-25.1 7.6 1.5 1.1 2.4 2.5.7 4-3.5 3.1-7.2 5.9-10.5 9.1-3.1 3-7.4 5-9.6 9.3 3.8 1.3 6.7-1.9 10 .8-4.5 7.4-11.1 13-16.1 19.9-.6.8-.9 1.8-.2 2.5 2.8 1.6 5.8-2.6 8.5.8-.2 2.7-1.8 4.9-3.2 7.2-20.5 33.8-41.1 67.6-61.7 101.3-1.7 2.8-3.1 6-6.2 7.6 4.4 20.7 7 41.6 9.1 62.6zm10.9 44.7c-1.6-3.9-.4-7.7-1.2-11.2-.8-3.4-1.6-6.9-6.4-4.2-.1 8.7-.1 17.3-.3 26 0 3.7.8 7.7-.5 10.9-4.5 11.4-7.1 23.7-13.4 34.4-7.5 12.6-7 26.7-10.1 40.5 1.6-.4 2.5-.3 2.8-.7 38-50.2 75.9-100.4 113.8-150.7 3-4 6.5-7.6 8.6-12.2.1-.3 0-.6-.1-.9-.1-.3-.2-.6-.5-1.2-8.2-.5-16.4.7-24.7 1.9-26.5 18.3-46.9 43-68 67.4zM1567 88.8c-7 13.7-13.5 27.5-20.9 40.8-3.9 7-13.6 17.9-9.5 24.7 23.6 39.3 47.6 78.6 65.2 121.2 1.7-4.1 8.5-12.8 6.4-17.2-5.6-11.8-3.8-25.7-7.5-38.1-11-37.4-18.3-75.7-29.4-113.1-1.1-3.8-2.6-7.7.6-11.3-.5-2.9-1.1-5.8-4.9-7zm244.8 547c-4.4-1.6-5.6-4.8-5.4-9.4.7-15.6-.3-31.1-2.4-46.6-.5-3.4 1-8.7-3.3-9.4-4-.7-5.1 4.6-6.6 7.7-11.3 23.2-21.4 47-34.4 69.4 16.6-7.9 33.7-12.8 52.1-11.7zm41.9 16.4c8.1-25.1 12.3-67.8 7.4-76.7-10.2 20-19.6 40.2-31.9 58.8-.7 1.1-.9 2.5-1.4 3.7 9 4.2 17.6 8.9 25.9 14.2zm26.4 45.7c4.3-5.6 7-12.1 10.1-18.3 3.1-6.2 6.3-12.5 8.7-19 2.3-6.1 8.8-10.6 8-18.4-4.5.2-6.7 2.9-8.9 5.2-4.9 5-9.3 10.4-14.3 15.3-4.1 4.1-6.9 9.9-13.4 11.4 4.2 7.6 6.5 15.9 9.8 23.8z" clip-rule="evenodd"/><path fill="none" fill-rule="evenodd" stroke="#252524" stroke-miterlimit="10" stroke-width="6" d="M1058 114.3l96.1 68.7s142.3-160 154.6-172.4c10.7 13.3 84.8 210.9 84.8 210.9.4-6.4 88.6-152.9 88.6-152.9l51.2 79.4c3.8-5.3 33.8-65.1 34.5-61.4 7.3 7 79.3 164.3 80 146.3s11.7-63.1 11.7-63.1c11.3 9.2 137.8 263.9 144 247.8 8.7-22.7 24-168.3 33.4-193 48.7 124 78.1 323.6 78.1 323.6s5.2 5.4 13.7 6.4c2.5 4.7 40.6 2 55-1.8s15.5-8.9 15.6-4.7-3 10.2-3 10.2-54.1 132-75.5 173.4c-24.4 37.2 0 29.2 0 29.2s37.7 2 65.1-4.4 8.4 9.4 8.4 9.4c-6.1 4-102.5 148.3-120.2 155.9-2.7-22.4 16.2-53.9 20-64.9s7.4-15.3 4.2-50-5.4-85-33.5-141.5c-41.3-45.8-84-27.9-116.4-10.7-51.2 42.1-82.4 127.2-82.4 127.2s-4.2 37.2-14.8 16.8c-129.4-191.2-306-137.9-360.4-92.7s-66.9 162.1-68 168.8-7.4 48 17.4 55.9S1261 955 1261 955s-1.3 104 0 118.8c.8 9.5-8.1 11.3-8.1 11.3s-19 1.9-31.2 3-10.9-9.9-10.9-9.9-29.2-112.7-32.6-126-9.5-48.6-21.2-48.1c-9.3-9-66.5-20.8-84.5-15.6s-40.8 40.9-41.5 68.9c-3 48.5 54.4 106.6 58.6 110.5 53.2 44.8 81.4 40.8 82.9 44.2s9.1 20.6 5 24.5-29.9.7-29.9.7-139.3-52.3-150-59-.3-6.3-.3-6.3l27.3-1.7c22.5 1.5 13.8-9 13.8-9s-95.4-55.1-115.8-64.7.4-8.6.4-8.6 27.6-.7 67 6.4 30.6-5.7 30.6-5.7-142-91.4-163.3-100-31.5-27.5-31.5-27.5S725 718 729.6 712.5s93 65.8 93 65.8l59.1 15.8s-2.3-20.6-4.1-23.4c-11.8-6.8-49.7-107.7-57.1-114.8s-9.2-33-9.2-33l-24.9-295.1s4.9-53.4 8.4-47.8c13.9 8.6 166.6 161.4 166.6 161.4l10.5-6.8 69.6-189c9.2-26 8.6-129 8.6-129-1.5-9.6 7.9-2.3 7.9-2.3zM881 788s29.3 55 143.1 123.5m-62.6-470s125.2 91.8 272.5 121.8m312.6-23C1448 396.7 1154.1 183 1154.1 183m264.2 135l-24.9-96.5m139.8-73.4l73.1 132.9m41.4 99.2c-.1-15.5-7.3-153.8-7.3-153.8M1769.3 540c11.3-24.2 33.4-121.8 33.4-121.8M1914 642.8c6.7-32.4 1-93.1 1-93.1" clip-rule="evenodd"/></svg>