<svg xmlns="http://www.w3.org/2000/svg" id="hair" viewBox="0 0 3000 3000"><path id="cl1" fill="#2C2C2B" d="M1856.768 765.518c-5.596-33.1-14.951-44.817-21.268-77.718-5.145-26.6-20.25-67.555-27.285-75.798-16.517-13-15.085-10.902-34.938-7.502-25.27 4.3-16.454 13.229-36.398 32.229-15.251 14.601-11.396 26.696-23.378 42.27-10.83 5.7-17.087 22.399-29 21.5-10.468-.7-55.444-26.188-64.018-32.988-20.576-16.4-58.315-30.345-91.982-41.679-30.954-15.7-65.034-23.033-99.508-22.133-44.852 1.2-81.761 30.5-96.833 77.3-6.407 19.7-6.407 39.9-3.429 60.2 3.97 26.8 12.454 52.101 23.102 76.5 1.173 2.7 2.528 5.3 3.521 8.101 2.436 6.3 2.256 7.6-2.979 11.699-10.106 7.9-20.305 15.5-30.502 23.2-5.235 3.9-10.649 7.601-15.974 11.3-6.948 5.301-14.619 5.5-22.741 4.301-50.719-7.8-92.592-33.3-126.073-76.3-10.83-13.899-21.659-27.699-30.142-43.5-6.769-12.6-10.919-25.699-9.836-40.699 3.429-50.5 15.25-97.801 42.866-138.9 10.829-16 24.727-29.1 37.722-42.9 1.264-1.3 2.708-2.699 4.693-2.699-17.688 6.3-35.016 3.199-51.62-3.7-48.011-20-76.438-61.5-97.104-111.101-3.791-8.5 1.083-14.399 4.512-20.8 9.115-15 20.485-27.9 31.766-40.8 5.144-5.9 9.295-12 11.822-19.8 1.896-6 4.422-11.7 8.032-16.7 2.707-3.7 5.776-6.101 10.107-3.101 4.332 3 7.941 1.5 11.551-1.699 19.583-17.3 40.25-32.8 61.818-46.7 4.061-2.601 6.858-6.3 9.205-10.8 4.061-7.9 9.114-14.9 14.98-21.2 3.61-3.9 4.693-3.5 7.762 1 5.594 8.3 6.137 8.6 14.891 4.5 32.397-15.4 65.788-27.2 100.171-36.3 20.485-5.4 41.332-7 62.089-10 11.37-1.601 22.741-2.601 32.217-11 3.158-2.801 5.956-1.801 8.844.899 10.919 9.9 18.59 10.601 30.954 3.101 7.13-4.301 8.663-3.9 14.8 2.199 6.408 6.301 13.988 6 21.208 3 5.595-2.3 10.107-4.199 13.989 2.5.45.801 1.442 1.5 2.256 1.601 14.8 2.7 29.418 10.7 44.67 1 7.039-4.4 14.71-7.601 22.289-10.8 5.777-2.5 7.672-.9 8.033 6 .271 4.3.09 8.699 0 13-.089 6.1 2.166 10.199 7.491 12.1 22.38 7.9 44.129 17.601 65.697 27.8 1.896.9 4.242 1.801 6.046 1.301 7.941-2.301 15.342-.801 22.832 2.199 3.159 1.2 6.589-.1 9.837-.6 4.062-.7 5.506 1.7 5.234 5.8 0 .7-.09 1.3-.18 2-.723 5.2-2.889 10.9 1.896 14.8 5.504 4.601 10.919 9.7 18.771 7.7 1.714-.399 3.609-.6 5.325-.8 9.294-1.1 9.476-.9 9.476 9.4 0 5.6 1.534 7.8 6.678 8.699 5.414.9 10.829.101 16.244-.3 2.437-.2 4.783-.6 7.22-.5 2.797.2 3.881 2 2.165 4.7-1.354 2.2-3.068 4.1-4.602 6.1-2.799 3.7-2.618 7.301.451 10.601 4.602 5 9.565 9 16.333 9.6 8.394.8 16.786 1.9 25.088 3.4 9.116 1.7 11.011 4.5 10.83 14.899-.09 4-.541 8-1.083 11.9-.992 6.4 0 12.3 4.783 16.2 10.829 8.899 17.868 21.3 25.449 33.2 2.075 3.3 4.782 6.1 6.678 9.5 5.054 9.5 12.814 13.2 22.29 14.7 12.815 2 14.078 4 15.252 18.699.452 6 .452 12-.181 18-1.173 10.601 1.354 19.801 8.663 27.101 2.708 2.7 4.964 5.899 6.317 9.6 2.076 5.601 4.693 10.8 8.934 14.8 2.89 2.7 3.882 5.9 1.535 9.7-7.942 13.101-1.264 24.101 4.692 34.8 2.979 5.301 7.491 9.5 11.281 14.301 3.339 4.199 4.061 8.399 1.083 13.6-3.971 7-4.693 15-4.965 23.1-.18 6.2 1.806 11.7 5.235 16.601 1.625 2.399 3.519 4.6 4.873 7.2 2.797 5.399 2.256 9-3.068 11.1-7.13 2.9-9.204 8.2-9.837 15.9-1.354 17.6-3.339 35.1-5.414 52.6-.633 5.2-2.347 10.3-3.701 15.4-2.075 8.1-1.895 15.899 2.527 23 5.145 8.199 5.324 15.8-.901 23.5-1.535 1.899-2.708 4.5-3.521 6.899-3.339 10.101-8.754 18.101-17.868 22.7-2.526 1.3-4.061 3.9-5.325 6.6-1.353 3-13.639 39.63-14.631 42.831M1376.018 1152c-.632-.6-1.264-1.199-1.805-1.899-14.62-9.3-29.419-18-42.776-29.601-7.671-6.699-12.725-14.899-14.62-25.5-.812-4.6-1.714-9.1-2.346-13.699-3.791-26-5.866-52.2-7.4-78.5-1.083-19.601-1.173-39.3-3.338-58.8-3.069-10.4-1.264-21.101-1.805-31.7-.182-3.8.721-7.8-2.077-13.2-3.338 11.6-8.302 21-7.67 31.9.902 14.3 2.347 28.5 3.43 42.699 2.165 27.801 4.332 55.601 6.407 83.4 1.354 18.5 2.617 37.1 3.971 55.6.541 7.2 3.52 12.301 9.476 15.7 16.605 9.5 33.932 16.8 51.44 23.8 3.068 1.2 6.317 2.601 9.295-.399l-.182.199z"/><path id="sd1" fill="#252524" d="M1058.176 395.7c-2.437 9.8-.902 18.9 3.429 27.9 11.461 24 24.096 47.1 42.144 65.6 20.757 21.2 44.491 36.2 73.279 39.5 10.289 1.2 20.395-.6 30.502-2.2 1.715-.3 3.339-1.5 5.325-.699.542 2.699-1.715 3.199-2.978 4.199-17.508 14.301-32.127 32.101-46.386 50.101-2.978 3.8-7.04 7.6-3.159 13.899 1.534 2.5-1.173 4.2-3.339 4.601-5.145 1-7.4 5.1-9.566 9.7-13.176 28.199-20.305 58.3-24.096 89.5-.27 2.3-.18 4.699-.632 7-3.79 19.5.632 36.8 10.289 53.199 5.324 8.9 11.01 17.5 17.146 25.7 11.912 15.9 24.726 30.8 39.347 43.8 25.99 23.101 55.771 36.301 88.35 42.5 9.295 1.7 18.5 2.2 27.885 2.101-3.79 5.1-3.61 11-3.159 17.1 1.354 18.2 1.445 36.5 1.174 54.8-4.874 3.2-5.866-.5-6.047-4.5-.361-8.3-.812-16.699.903-25 0-1.3 1.354.4.181-.1-.271-.1-.451.1-.451.5-2.708 18.4.271 36.6 1.805 54.7 2.436 28.2 3.429 56.5 6.317 84.7 1.805 17.8 2.707 35.699 4.151 53.6.541 7 3.339 13 9.024 16.4 17.508 10.399 35.917 18.6 53.966 27.899.632.3 1.715-.3 2.618-.3.181 1 .631 1.9.631 2.9-.09 13.1-2.255 15.199-13.988 13.1-29.69-5.4-58.75-13.8-87.358-24.1-7.67-2.7-11.551-7.5-13.355-16.5-4.873-24.4-6.317-49.4-10.559-73.9-7.399-42.1-14.259-84.4-20.846-126.7-1.805-11.5-6.858-19.399-15.432-25.5-9.927-7-20.756-12-31.134-18-4.963-2.8-10.018-1.899-14.89.3-6.498 2.9-13.085 3.801-20.125 4.2-14.529 1-17.632 11.851-25.393 25.55-11.19 19.9-8.262 21.55-3.75 46.25 5.234 28.6 12.245 51.122 29.391 72.421 10.469 13 9.916 16.961 21.467 28.561.722 2.4 57.551 33.122 55.476 32.521-4.911-2.819-14.56 2.013-30.986-.91-16.778-2.986-40.333-13.737-44.848-17.426-5.686-4.8-21.03-14.766-27.347-10.167-2.167 1.601-4.964 2.4-7.581 3-4.874 1.101-9.025-.6-11.371-5.699-3.881-8.301-9.205-15.4-13.988-23-4.422-7-7.04-15.601-12.544-22.101-.722-.899-.993-2.5-.993-3.8.09-9.5-4.332-15.5-11.641-19.6-1.895-1-3.43-2.7-5.054-4.101-7.04-6.399-14.711-11.2-24.095-12.6-7.04-1.1-7.942-3.2-6.588-10.9.541-2.899 1.263-5.8 1.624-8.8.812-5.6-.181-10.7-3.971-14.7-5.686-6-10.379-12.899-14.801-20.1-2.616-4.2-6.407-7-9.927-10.1-5.234-4.7-5.414-6.7-1.714-12.5 6.949-10.801 4.602-19.7-6.588-24.801a30.95 30.95 0 0 0-4.241-1.5c-7.4-2.399-7.49-2.5-4.783-10.199 1.354-3.801.903-7.301-1.534-10.2-1.624-1.9-3.701-3.4-5.595-5-4.783-4.101-4.783-4.601-.271-8.601 6.859-6.1 7.942-9.6 3.97-17.8-2.707-5.6-5.053-10.899-4.873-17.6.181-5.9-2.618-8-9.295-8-10.559 0-19.223-4.9-26.984-12-6.317-5.7-6.498-8-1.172-14.601 6.498-8 10.738-16.8 10.919-27.699.09-5.7 2.708-10.101 5.686-14.301 4.422-6.199 5.144-12.6.813-19.199-3.069-4.801-4.332-10.2-4.242-16 .091-8.101-2.707-14.801-7.219-21-2.797-3.9-5.685-7.801-7.219-12.601-1.806-5.7-.993-9.3 4.151-11.2 9.024-3.399 11.822-10.399 11.371-20.1-.271-5.8.632-11.2 3.88-16 2.978-4.5 3.52-9.9 3.249-15.3-.18-4.7-.812-9.3-.992-13.9-.271-7.3 1.985-12.7 8.663-15.7 8.845-3.899 10.468-8.8 7.039-18.899-1.264-3.7-2.887-7.3-4.422-10.9-4.512-10.6-5.505-21.7-4.602-33.2.722-9.399 3.068-12 11.732-13.199 5.956-.801 11.912-1.4 17.958-2 6.498-.601 11.191-3.801 14.258-10.5 3.972-8.601 8.213-17.101 12.544-25.4 3.069-5.8 3.069-11.1.181-16.9-4.512-9.1-7.49-18.899-8.393-29.3-.632-7.8.632-9.1 7.49-7.3 6.407 1.7 12.905 3.1 19.583 3.5 6.318.001 12.004-1.199 16.606-6.399z"/><path fill="none" stroke="#0A0A0A" stroke-miterlimit="10" stroke-width="6" d="M1368.438 1170.7c-44.491-7-61.998-19.3-85.642-24.3-23.645-5-21.75-15.3-21.75-15.3s-4.783-18.7-5.686-37.3c-.902-18.601-21.117-133.5-21.117-133.5-2.437-49.7-14.079-55.101-19.042-59.301-4.963-4.199-26.983-13-30.232-15-3.248-2-12.904-3.699-15.341-.3-2.437 3.4-19.583 4.7-21.93 3.7s-23.662-.47-32.957 50.23c13.158 68.114 36.524 96.422 36.524 96.422s20.938 27.055 24.91 30.155c12.814 8.3 52.341 26.99 52.973 26.99.631 0-21.499-1.499-32.148-.698-17.778-4.2-42.466-15.899-44-17.5-1.533-1.6-11.348-5.499-12.611-7.499-.181 1.6-4.332-10.7-16.967-1-12.634 9.699-19.403-3-19.403-3s-11.911-17-13.987-23.2c-2.075-6.2-10.739-12.9-14.71-26.8.722-15.3-10.829-14.8-14.438-21.3-3.61-6.5-20.757-13-22.381-13s-13.537-1.7-11.551-10.7c3.61-17 .631-21 .631-21-2.437-5.2-9.295-12.2-9.656-13.3-.361-1.101-.722-8.5-14.709-18.801-13.988-10.3-4.964-10.699-1.174-21.3 3.79-10.6-2.887-14.2-6.587-15.5-3.429-3.5-13.086-5-12.816-8.3.272-3.3 6.317-12.2-1.624-17.5-7.941-5.3-9.476-9.8-5.866-13.2 3.61-3.399 8.303-9.8 6.769-12.7-6.136-9.199-6.498-17.8-5.866-22.5.632-4.699-2.076-6.399-7.941-6.8-10.649 0-16.876-5.2-27.074-12s-7.4-12.2-4.061-15.8c3.339-3.6 12.364-15 11.461-24.2s3.88-17.5 6.136-19.5 5.144-2.2 3.158-14.3c-8.573-8-6.948-23.5-6.948-23.5-2.708-15.8-4.964-12.5-10.56-21.8-11.189-16.3.272-21.2 1.174-21.8.903-.601 6.046-1.801 8.393-8.7 2.346-6.9 1.173-17.8 4.783-23.3 3.61-5.5 5.144-2.7 4.061-24.301-1.083-21.6 8.393-23.699 11.461-25.5 3.067-1.8 4.512-6.3 4.512-6.3s-.451-9.2-3.88-15c-1.625-6.3-7.219-17.3-6.588-35.7.632-18.399 8.845-16.5 8.845-16.5s4.512-3.8 18.229-3.3c13.717.5 15.071-5 16.515-9 1.444-4 7.851-13.7 10.559-20.8 3.158-2 7.039-10.4 4.963-15.8-2.076-5.4-6.497-12.3-9.024-28.801-2.527-16.5 2.076-15.699 2.076-15.699 2.978-1.801 11.912 1.5 20.756 3.8 5.234 2.3 15.973 3.3 20.756-6.2 4.783-9.5 28.607-35.8 32.668-40.7 4.061-4.899 12.544-20.7 14.259-27.8 1.714-7.1 9.476-15.2 12.814-10.8 7.219 6.899 14.079-.5 15.162-1.5 1.083-1 24.727-20.3 30.141-24.5 5.415-4.2 32.579-22.7 35.738-25.9 3.158-3.2 8.393-13.8 14.709-22.5 6.317-8.7 10.288-8.5 10.559-5.6.27 2.899 4.963 15.1 16.244 4.899 11.28-10.199 104.503-35.199 120.837-39.3 16.335-4.1 58.478-1.399 67.323-12.3 8.844-10.9 14.619-6 16.786-2 2.166 4 20.034 8.5 27.254 1.5s15.071-1.2 15.161.7c.09 1.899 9.476 8.1 22.741 3.6s14.71 4.2 14.71 4.2 16.696 4.5 27.525 6.4c10.829 1.899 20.305-10.101 38.354-14.301 8.844-6.3 11.913-2.699 10.649 5.7-1.264 8.4-.633 23.7 7.489 24.4s54.508 23.6 67.142 28.399c23.284-8.1 19.854 4.9 34.655 2.801 14.8-2.101 4.872 13.6 6.769 17.699 1.895 4.101 9.386 16.4 26.893 11.301 17.509-5.101 9.565 10.3 10.829 15.3s19.854 2.6 24.277 2.2c4.421-.4 12.453-2.101 4.06 8.1-8.393 10.2 1.174 13.4 4.964 19 3.789 5.6 25.358 5.7 37.001 7.6 11.641 1.9 8.753 16.101 8.483 20.5-.272 4.4-4.875 13.5 1.623 19.4 17.057 12.4 22.563 27.5 26.352 33.4 3.79 5.899 8.934 22.6 25.9 25.7 16.966 3.1 15.792 4.699 18.048 8.399 2.257 3.7 1.716 27 1.535 29.101-.181 2.1-.813 18.199 6.046 24.1 13.628 8.8 2.617 12 13.898 22.6 11.28 10.601 5.595 14.4 3.52 18.7-2.076 4.3-.451 26.8 10.92 36.4 11.369 9.6 11.641 13 6.046 26.8s-1.624 32.1 4.964 38.2c6.588 6.1 4.602 13.899-2.167 15.7-6.769 1.8-7.671 11-7.941 12.699-.271 1.7-7.309 63.101-7.76 64.7-.451 1.601-5.776 16-2.437 20.5 3.338 4.5 8.482 18.5 6.316 25.101-.722 3-7.22 4.399-7.4 13.699-.181 9.301-11.551 18.5-12.453 19.2-.903.7-8.936 6.7-8.936 6.7s-5.186 13.313-7.262 17.313c-2.074 4-11.324 46.386-12.9 25.386-1.304-17.372-14.967-34.813-17.313-52.813-.271-5.3-11.769-11.648-35.357-99.906-10.352-38.73-26.449-90.58-31.408-92.879-9.716-4.505-20.323-3.974-29.231-4.901-29.779-3.1-53.818 63.198-63.114 74.999-9.296 11.8-32.448 34.301-62.5 8.801-102.969-74.8-213.705-86.801-238.974-82.2-25.269 4.6-61.998 30.8-77.069 66.7-22.561 54.399 13.267 142.199 19.403 152.1 6.136 9.9-1.083 12.1-1.083 12.1s-28.788 21.9-42.415 31.801c-9.295 7-8.754 16.6-8.573 20.899-2.166 5.8 11.19 187.2 11.19 187.2s1.805 11.7 2.888 17.5c.722 8.7 7.58 18.9 7.58 18.9 1.534 8.699 49.996 37.399 49.996 37.399 6.858.907 7.399 22.507-5.506 20.507z"/></svg>