<svg xmlns="http://www.w3.org/2000/svg" id="hair" viewBox="0 0 3000 3000"><path id="cl1" fill="#252524" fill-rule="evenodd" d="M1353.9 851.9c-1.8 1.6-3.3 1-3.4-1.2-.3-3.6-.1-7.3.1-11 1.1-29 2.3-57.9 3.4-86.9 1.2-30.6 2.4-61.2 3.5-91.9.3-7.7.4-15.3.4-23 0-3.6 0-7.8-3.9-9.6-4.2-1.9-6.9 1.2-9.5 3.8-10.6 10.6-21.4 21-31.5 32.1-27.7 30.7-52.8 63.4-74.1 99.1-28.1 47.3-35.1 97.7-25.8 151.2 4.5 26.1 12.1 51.2 22.2 75.6 1.1 2.8 2.2 5.6 3.1 8.4.2.5-.3 1.2-.5 2-3.4.6-5.4-2-7.6-3.8-14.1-11.2-27-23.7-39.3-36.9-7.6-8.1-12.9-17.5-16.9-28-10-25.8-5.4-23.3-35.8-35.8-17.7-7.3-36.4-8.6-55-7.7-18.1.8-31.6 11.5-41.4 26.4-4.9 7.5-8.4 15.9-10.1 24.8-.5 2.8-.4 6-3 8.1-2.9-.4-3.6-2.9-4.8-4.7-52.6-77.3-120.6-138.3-199.4-187.8-70.2-44.1-145.8-76-225.6-98.1-5.1-1.4-10.4-2.4-15.1-5.1 1-6.8 6.6-7 11.3-6.9 38.6.5 77.2-1.2 115.8 1.2 49.6 3.1 98.7 9.7 147.4 19.2 62.6 12.2 123.1 32 184.3 49.3 6.8 1.9 13.5 5.2 22.1 4.8-3.6-6.8-9.7-9.3-14.1-13.5-3.2-3-8.6-4.3-8.6-10.1 3.1-6.2-.6-10.9-3.7-15.6-18.7-28.4-38.5-55.9-58.3-83.5-20.5-28.7-45-53.2-72.5-75.1-66.4-52.9-134.8-103.1-203.4-153.1-29.6-21.6-59.4-42.8-89.1-64.3-1.9-1.4-3.6-2.9-5.4-4.4 6.3-5 13.3-.8 19.2.1 32.4 4.9 64.8 9.7 97.2 15 51.6 8.5 100.1 26.2 147.9 46 92.8 38.5 180.8 86.3 267.1 137.4 12.2 7.2 23.7 15.6 35.2 24.6 2.2-4.8.1-8.2-1-11.5-6.2-18-12.9-35.7-25.1-50.7-2.1-2.6-2.4-4.5-.1-6.9 7.8-3.5 8.4-4.3 5.5-12.8-6.2-18.3-12.4-36.6-19.2-54.7-12.7-33.7-26.1-67-42.2-99.3-12.6-25.2-29.3-47.7-46.6-69.7-32.7-41.6-67.4-81.7-102.3-121.5-11-12.5-22.1-24.9-33.1-37.4-1.7-2-3.1-4.3-4.6-6.5 1.3-7.3 6.5-3.5 9.5-2.6 20.5 6.6 40 15.4 59.4 24.8 42.4 20.4 82.5 44.9 123 68.8 64.7 38.2 126.2 80.9 183.8 129.2 28.7 24 54.1 51.2 77.3 80.6 6.2 7.9 12.7 15.4 19.4 22.9 5.5 6.2 12.1 8.6 20.3 9.1 25.9 1.5 51.8 3.9 77.5 7.8 4.1.6 9 0 10.4 5.7 1.3 5.6-3 7.7-6.4 10.1-19.3 13.2-37.2 28.1-56.5 41.3-10.8 7.4-22.9 12.5-33.3 20.1.2-.1.1 0 .3-.1 29-21.6 63.1-27.5 97.3-32.7 11.5-1.8 23.1-3.2 34.6-5.2 3.3-.6 6.6-1.2 9.9-.5 2.5.5 5 1.1 5.9 4.4 1.1 3.8-1.4 5.4-3.8 6.6-14.9 7.8-28.2 18.2-42.8 26.6 10.4-6.2 22.3-6.9 33.7-9.3 35.2-7.3 70-16.8 105.4-23.5 11.4-2.1 22.2-1.4 33.3 2.8 54.3 20.6 105.1 47.1 150.5 83.7 25.8 20.9 48.6 44.5 68.2 71.3 5.2 7.1 10.6 14.2 12.7 22.3-4.1-8.9-4.7-19.4-6.9-29.6-1.9-8.4 1.6-13.3 8.3-17.2 19.9-11.6 40-22.7 59.7-34.5 34.6-20.8 70.6-38.9 106.7-56.9 1.2-.6 2.4-1.2 3.4-2.1 13.6-7.1 28.3-11.5 42.3-17.8 12.1-5.5 24.5-10.3 36.9-15.3 2.6-1.1 5.2-3.2 8.5-1.7 1.2 3.8-1.4 6.3-3 9.1-52.7 93.7-105.4 187.3-158.2 280.9-1.3 2.3-2.7 4.6-4.2 6.8-3.2 4.6-3.6 9.2 0 13.8 1.2 3.7-.3 6.4-2.8 8.9-13.4 12.9-24.7 28-33.9 33.1 48-13.8 101.7-36.7 158.5-50 7.2-1.7 14.6-.9 21.9-1.3 1.6-.1 3.6-.1 4.5 1.5 1.3 2.3-.7 3.7-2 5.1-10.6 11.1-22.3 20.9-34.1 30.8-46.7 39.2-94.9 76.4-143.5 113.1-3.2 2.4-6.5 4.7-9.5 7.3-5.5 4.8-5.5 6.2-1.1 13.5 3.2 3.6 1.2 5.8-2 7.8-6.9 4.5-13.8 9.1-17.9 10.4 20.7-2.4 45.2-1.8 69.7 2 5.5 2.3 11.2 4.3 16.6 6.9 3.9 1.9 3.9 4 .3 6.6-1.6 1.2-3.4 2-5.2 3-43.3 23.1-84.5 49.5-126.3 75.1-4 2.5-8.1 8-13.1 5-4.4-2.6-2-8.6-2.3-13.1-1.2-16.3 1.7-32.5 1.8-48.8 0-4.7.4-9.4-1-13.9-2.8-8.6-1.4-17 .6-25.6 7.9-33.5 14.4-67.1 13.2-101.8-1.4-41.1-13.7-78.5-37.9-111.8-6.6-9-14.6-16.4-24.6-21.6-.2-3 .3-5.9 1.7-8.7 9.8-19.1 17.2-39.2 24.2-57.7-7.5 12.3-18.2 24.2-27.5 37.2-20.2 28.4-33.7 59.8-45.1 92.4-.7 2 .4 7.5-5.1 4.7-3.2-22.1-3.9-44.5-6.1-66.7-.5-5-.7-10-1.6-14.9-1.6-8.6-5.3-9.9-12.2-4.6-.8.6-1.4 1.4-2.1 2.1-5.6-.2-4.7-4.6-4.9-8-.3-9.9.3-19.9-.8-29.9-23.3 39.4-34.3 84.1-56.4 123.9-1.3 2.7-2.7 5.4-6.2 6.8-3.2-1.9-3-5.4-3.4-8.5-4.1-33.2-8.2-66.5-12.3-99.8-.3-2.3-.5-4.6-.9-6.9-2-11.4-4.7-12.7-15.3-7.7-6.3-.8-3.8-4.6-2.6-7.8 5.9-14.6 12.4-28.8 20.9-42.1-3.1 5.3-7.4 9.4-11.7 13.7-39.8 39.1-73.8 82.3-96.1 134.1-4 9.2-8.4 18.2-10.8 28.1-.6 2.6-.8 7.4-6 6.6-6.4-15.1-9.7-31.1-13.5-46.9-7.3-29.7-13.6-59.7-19.1-89.8-1.7-9.6-2.3-10-10.8-11.2-4.6 0-5.6-3.9-7.5-7-5.1-8.3-8.3-8.5-13.2.2-9.2 16.2-18.2 32.5-26.8 49-19.7 37.4-39.9 74.5-58.3 112.5-9.9 20.3-21.8 39.3-34.2 58.1-1.9 2.1-4.2 3.9-3 6.8zm-330.7 134c-38.3-7-76.5-14.6-115.2-19-39-4.4-78.2-7.5-116.8-14.5-25.2-4.6-50-11.1-75.5-13.8-3.6-.4-9-3.9-9.9 3.6 7.4 4.7 15.8 7 23.8 10.4 85.5 37.3 170.9 74.9 257.1 110.6 57.6 23.8 115.1 47.9 174.1 68 2.8 1 5.6 2.1 8.6 2.7 4.5.8 6.3-.9 5.5-5.5-.7-4.3-2.1-8.4-3.3-12.6-1.3-4.7-4.3-7.2-9.3-7.5-17.6-1.1-32.8-9.3-46.6-19.1-14.9-10.6-28.5-23-42.4-35-3.8-3.2-6.8-7.3-9.9-11.2-12.9-16-21.3-34.5-28.8-53.5-4-.6-7.5-2.8-11.4-3.6z" clip-rule="evenodd"/><path id="hl1" fill="#393938" fill-rule="evenodd" d="M1382 476c7.3-8.4 16.7-14.2 25.8-20.4 23.4-15.9 45.5-33.7 68.6-50 1.1-.8 2.2-1.6 3.1-2.6 1.8-2 1.3-3.9-1.2-4.5-3.9-.9-7.8-1.5-11.8-2-24.1-2.9-48.3-5.5-72.6-6.5-6.9-.3-11.9-3-16.2-8.3-12.2-15-24.6-29.8-37.1-44.5-24.6-29.1-52.5-54.7-82.2-78.5-67.3-53.8-140.1-99.3-214.7-142.2-37.6-21.6-75.8-41.8-116.2-57.8-6.5-2.6-12.9-5.4-19.9-6.5-2.6-2.4-6.2-4-6.6-8.4 3.2-2.4 6.5-.6 9.5-.1 45.7 7.1 89.5 21 132 39 71.7 30.4 136.9 71.6 198.1 119.3 61.2 47.7 117.4 100.5 168.3 159.1 4.9 5.7 10.4 7.4 17.5 7.3 31-.7 62-.5 92.9 1.5 54.3 3.6 108.1 10.3 160.6 25.6 50.4 14.7 91.9 43.3 127.2 81.4 20.2 21.8 37.7 45.7 52.3 71.8 5.7 10.2 7.2 10.7 18.3 6.1 60-24.9 120-49.8 180.1-74.8 3.4-1.4 6.8-2.7 10.2-4-2.5 4.3-7 6-11 8.3-49.4 28.5-98.8 56.8-148.2 85.2-1.7 1-3.4 2.1-5.2 2.9-7 3.4-9.4 8.6-7.8 16.3 1.9 9.5 3.3 19 4.8 28.6.4 2.6 1.6 5.1-.1 8.3-3.4-.6-4.2-3.8-5.6-6.1-16.5-26.8-36.1-51.2-59.1-72.7-27.4-25.6-57.8-47.1-90.5-65.4-26.2-14.7-53.8-26.5-81.7-37.5-9.7-3.8-19.2-4.6-29.3-2.7-34.1 6.4-67.5 15.7-101.5 22.5-17 3.4-33.9 6.8-50.9 12.8 3.2-7.1 6.2-9.9 23.2-21.3 8.7-5.9 17.7-11.4 26.5-17.1-1.1-2-2.5-1.7-3.8-1.5-24.6 4.2-49.6 6.5-73.9 12.2-20.9 4.9-41 11.7-59.9 21.9-3.9 2.2-8 3.6-12 5.3zm-239.1-25.5c-57.4-30.5-115.3-59.7-175.4-84.4-30.2-12.4-60.8-23.9-93.2-29.3-31.2-5.3-62.3-10.8-93.6-15.6-54.9-8.5-109.9-16.7-164.9-24.9-3.4-.5-6.9-1.9-10.5-.3.6 2.9 2.7 3.4 4.3 4.4 9.6 1.3 19.1 2.7 28.7 3.8 40.4 4.7 80.5 11.4 119.8 22.3 65.8 18.2 128.4 44.6 189.9 73.8 55.4 26.4 109 56.2 162.3 86.5 18.5 10.5 37 21.3 54 34.3 4.7 3.6 9 7.9 13.6 11.7 3.5 2.8 5.3 2 5.8-2.5.5-4.7-.2-9.3-1.5-13.8-5.5-18.3-13.2-35.6-22.9-52.1-2.4-4.1-5.4-7.6-9.5-10.1-2.2-1.4-4.5-2.6-6.9-3.8zM1030.2 692c-15.5-9.9-32-17.8-49-24.7-62.9-25.5-128.8-35.6-196.2-37-69.6-1.4-139.1 1.6-208.4 8.1-9.5.9-19.2.9-28.6 5.8 8.6 1.9 17.2 3.9 25.8 5.8 1.8 1.5 4.3.2 6.2 1.5 1.3.1 2.6.3 3.9.4 5.3-.6 10.6-1.9 15.9-1.8 36.6.3 73.3-1.2 109.9 1.3 50.3 3.3 100.1 10.1 149.5 19.7 56 10.9 110.3 28.5 165.2 43.9 15.7 4.4 31.3 9.3 47 13.9 2.2.6 4.7 1.9 6.5-.4 1.8-2.2.4-4.6-1.1-6.3-9.9-10.8-20.3-21.1-34.6-26.2-4.7.7-8.3-1.6-12-4zm323.7 159.9c24.3-31.7 48-63.8 71.4-96.1 17.8-24.5 34.3-49.9 47.9-77m-456.9 294.5c-52.6-7.6-105.3-15.4-158-22.7m743.2-257c14-16.1 30-30.2 44.4-45.8m344.3 103.9c-18.5 16.8-35.5 35.2-55.3 51.3 2.7 1.5 3.9 1 5.2.6 54.3-17.6 108.7-35.2 162.5-54.4 3.4-1.2 7.1-2 9.3-5.4-40.6 2-81.5 0-121.7 7.9zm-289.2-11c15-20.9 30-41.9 45-62.8-.6-16.4 1.5-33.1-2.8-49.4-1.2.4-2.1.4-2.3.8-3.1 5.1-6.2 10.2-9.1 15.5-19.4 35.5-31.7 73.9-46.8 111.2-1 2.5-1.5 5.1-1 7.8 5.6-7.6 11.4-15.3 17-23.1zm68.8 31.5c3-3 3.4-6.4 4.6-9.4 4.4-11.1 8.5-22.3 13.1-33.2 4-9.4 8.4-18.7 14.6-27 4.5-6 9.9-9.7 17.8-8.4 4.3-2.4 6.4-6.6 8.5-10.8 8.9-17.5 16-35.8 22.3-54.3.9-2.5 1.4-5.1 1.9-7.7.3-1.9.4-4.4-1.7-5.3-2.4-1-3.4 1.3-4.6 2.8-8.2 10.8-16.7 21.5-24.6 32.6-12.5 17.6-25.5 34.9-33 55.5-6.7 18.4-13.7 36.7-20.5 55.1 0 3.2-1.1 6.8 1.6 10.1zm228.1 161.9c-16.4-7.3-32.7-14.8-49.8-20.3m-522.8-158c17.8-24.5 34.3-49.9 47.9-77 7.7-15.5 15.4-30.9 23.1-46.4-1.6-8.4-5.7-15.6-10.4-22.4-2.8-4.1-4.8-3.9-7.6-.1-.8 1.1-1.3 2.3-2 3.5-16.3 30.1-32.9 60-49 90.2-24.3 45.8-46.8 92.5-71.7 138-1.8 3.3-3.3 6.5-1.8 10.4 24.4-31.8 48.1-63.9 71.5-96.2zm-409 217.5c-52.6-7.6-105.3-15.4-158-22.7-52.7-7.2-105.4-14.1-158.5-17.8-4.1-.3-8.3-1.5-13.3 1.5 6.4 4.4 12.8 6.1 19.1 8 17.7 1.3 34.7 5.8 52 9.3 30.4 6 60.8 11.6 91.6 14.7 45.1 4.4 90 9.3 134.5 18 12.7 2.5 25.5 4.6 38.3 6.8 4.2.7 8.6 2.1 12.3-1.5-3.8-15-2.3-14-18-16.3zm525.9-183.5c1.2 1.5 2.4 1.6 3.5-.1 6.6-27.6 17.7-53 36.6-74.5 6.4-7.2 12.9-14.3 19.2-21.6 14-16.1 30-30.2 44.4-45.8 6.1-16.9 14.8-32.7 22.6-48.8 1.5-3.1 4.1-6 3.1-10-4.7.2-6.8 3.6-9.3 6-8.6 8.3-17.1 16.7-25.5 25.3-25.8 26.5-49.2 55-67.2 87.5-12.7 23-24.5 46.5-30 72.5.9 3.2 1.8 6.4 2.6 9.5zm405.9 124c-11.6 8.8-24.6 15.3-37.7 22 2.2 2.9 4.7 2.2 6.9 2 22.9-2.9 45.9-1.4 68.8-1.9 4-.1 8-.3 11.8-1.8-16.4-7.3-32.7-14.8-49.8-20.3z" clip-rule="evenodd"/><path fill="none" fill-rule="evenodd" stroke="#000" stroke-miterlimit="10" stroke-width="6" d="M1999.2 750.1s92.8-5.6 121.3-7.4 12.9 9.2 12.9 9.2l-2.3 2.2S1985 878.4 1958.6 892.9s-7.9 21.7-7.9 21.7 37.4 15.1 56.9 23.3 1.8 12.6 1.8 12.6-115 64.5-126.3 75.1-15.1 2.9-15.1 2.9l1.5-64.5s-6.2-14-2.3-25 19.7-73.5 13.9-127.5-44.4-104.8-56.7-114.6-26.6 11.7-26.6 11.7-7 1.5-18.5 41-11.9 9.5-11.9 9.5-5.2-58.6-7-76.2-16.6-2.2-16.6-2.2-36.1 39.4-52.2 72.6-17.7 7.2-17.7 7.2-10.6-85.9-12.9-104.8-20-2.7-20-2.7-24.5 30.5-46.3 48.3c-54.7 63.2-42.2 98.2-52.5 88.5s-33.7-138.7-35.1-146.2-6.6-17.1-12.4-8c-13.8 39.6-117.7 178.4-130.6 203s-13.6 12.2-13.7 7.4 6.3-163.5 7.4-198-16.8-12-24.4-4.7c-7.6 3.4-92.4 107.1-111.6 156.2-36.2 90.9 24.3 211.4 16.2 201.1-13.6-2.3-54.9-51.1-55.6-52.2s-8.8-31.1-17.5-38.3-62.8-30.7-91.3-20.3-40.9 46.2-40.9 46.2-1.4 18.2-6.2 10.5C859 715 603.8 658.6 596.1 656.5s-56.6-9.5-48.2-12.1c19-7.7 154-13.6 229-14.1 75.5-5.2 176.5 19.7 225.6 46.5 48.1 29.4 40.6 16 33.6.4-5.9-18.9-85.3-115.6-106.2-136.2S628 313.9 615.1 304.6s-9.7-8.8.7-8.5S850 325 917.6 347.4s148.9 57.1 195.7 87.5 43.8 12.6 40.3.8c-2.6-7.8-45.1-117.8-62.7-154.6S907.6 52.3 907.6 52.3s-20.1-13.8 2.9-8.5c295 55.3 494 312.4 494 312.4 9 9.8 9.5 13.1 31.5 12.2 337.3-20.3 414.1 164.6 414.1 164.6 13.9 31.1 23.4 23.6 33.6 19.5s272-111.2 272-111.2l-166.9 299.5c-6.3 11.7 10.4 9.3 10.4 9.3zm-970.7 225.7s-289.7-47.1-334.1-43.5c-20.4-1.3-1.1 5.8 0 6.2s443.4 194.4 472 194.7c14.6 2.3 7.1-6.6 5.1-17.4s-11.8-7.5-16.2-8.4c0 0-90.8-33.5-121.4-120.3 1.6-9.6-2.4-10.8-5.4-11.3z" clip-rule="evenodd"/></svg>