<svg xmlns="http://www.w3.org/2000/svg" id="图层_2" viewBox="0 0 3000 3000"><path id="cl1" fill="#43332A" fill-rule="evenodd" d="M1153.9 427.1c58-34.4 118.7-62 186.1-72.1 28.9-4.3 57.8-4.3 86.6 1 5.2 1 10.5 2 15.4 4.1 34.1 12.6 64.6 31.5 93.3 53.6 2 1.6 4.1 3.4 5.5 5.6 2.4 3.9 1.4 6.9-2.7 8.8-.9.4-1.9.9-2.9.7-20.4-4.1-37.9 4.8-54.3 12.2 1.6-.1 4.6 0 7.6.8 3.5 1 7 2 10.5 3.3 10.7 3.7 21.6 6.7 32.5 9.9 3.3 1 6.8 2.3 6.9 5.8.1 4-3.5 5.9-7.1 7.1-7.2 2.4-14.9 1.5-22.3 3.1 12.2-2.2 24.2-1 36.1 2 4.7 1.2 9.3 3.4 9.2 8.5-.1 4.6-5.1 5.2-8.9 6.1-8.4 2-16.1 5.7-23.2 10 16.6-2.2 33.3 2.2 50.3 1.8 4.6-.1 8.7 1.9 9.5 7 .9 5.5-4 5.9-7.5 7.3-2.1.9-4.3 1.4-5.8 1.7 6.3-.2 13.4-1.1 20.5.6 5.5 1.3 9-.6 11.2-5.7 2.7-6 6.7-10 14.5-8.9-16.1-8.8-16.5-10.7-5.3-22.6-4.6 0-9.9.9-11.3-5.2-1.3-5.5 2.7-8.6 6.6-11.2 4.2-2.8 8.8-5 11.6-5.7-5.8.5-13.8 1.9-21.8 3.3-3 .5-6.3.8-7.9-2.2-1.6-3.1-1.2-6.4 1.4-9.2 4-4.2 8.3-7.9 13.8-8.4-3.7 0-7.2 2.7-11.3 3.5-3.5.7-7.2 2-9.7-2-2.3-3.6-.7-6.7 1.3-9.8 2.1-3.4 4.3-6.9 7.6-9.2 22.4-16.1 44.3-33.3 71.7-40.5 2.9-.8 6-.3 8.6-1.9 15.4-1.6 30.4.1 45.5 3.9 35.8 9 67 27.3 97.3 47.4 30.3 20.2 57.7 44 79.9 73.1 11.4 14.9 21.3 30.6 25.8 49.1.9 2.7.8 5.7-1.5 7.2-2.9 1.9-4.8-1.2-6.7-2.8-6.6-5.7-11.5-13-17.2-19.6-.9-1 1.5-.8.2-.3-.2.1-.2.4.2.8 9.7 10.1 15.4 22.7 21.3 35.2 1.9 3.9 3.6 8 3.8 12.4.2 6.4-3.7 9-9.7 6.5-4.3-1.8-8.1-4.7-11.7-7.6-15-12.2-30.3-24-46.2-35-4.4-3-7.9-6.9-9.7-8.9 5.6 5.8 11.8 14.3 16.1 24.1 1.5 3.5 1.8 7.3-1.5 9.7-3 2.3-5.9 0-8.6-1.9-10.8-7.4-19.2-17.5-28.5-26.5-18.6-18-39.9-30.7-66.8-35.5 14.7 15.2 29.2 29 42.9 43.4 3.3 3.4 10.9 6.5 6 12.9-4.6 6.1-10.4 1-15.2-1.2-21.3-10-42.1-21.1-62.2-33.4-1.7-1-3.3-2-4.3-2.3 5.1 1.8 10.3 5.4 15.3 8.9 29.2 20.4 60.2 38.2 89.2 58.9 3 2.1 6 4.4 7.7 7.7 1.5 2.8 1.7 5.9-1 8.2-2.9 2.5-4.9-.6-6.8-2-3.2-2.3-5.8-5.2-9.1-7.4 5.8 3.9 11 8.5 16.8 12.5 7.3 5 12.8 12.5 19.4 18.7 5.8 5.5 9.3 12.7 14.3 18.5-.2 0-.1 0-.1-.2-5.9-7.9-11.3-15.8-12.9-25.8-.6-3.8-1.1-7.6 2.4-10 3.2-2.3 6.9-1.7 10.4-.1 3.7 1.7 7 3.8 10.1 6.3 16.1 13 31.9 26.2 43.5 39.3-5.9-8.1-11.5-19.8-11.2-33.4.2-9.1 3.9-10.9 12.2-7 11.3 5.4 17 15.7 22.7 26 5 17.6 9.9 35.3 15 52.9 10.6 36.2 23.8 71.4 40.9 105.1 1 6.7-2.2 7.2-7.3 5-5.8-2.5-11.3-5.7-16.7-8.9-31.4-18.3-61.7-38.3-90.1-61-14-11.2-25.4-24.9-36.4-38.8-8-10-18.3-16.4-28.4-23.5-5.4-3.8-8-2.2-7.7 4.5.4 9 2.7 17.7 5.7 26.3 1.1 3.1 2.7 6.2 3.1 9.5.5 3.4 17.3 36.4 13.6 38.2-3.4 1.7-24.6-15.8-26.6-17.8-13-13.3-38.9-28.2-48.2-44.5-44.5-50.5-45.1-53.8-58.8-81.4-18.1-29.1-15.5-39.2-45-55.2-9-4.9-22.7 11-32.3 14-6 1.9-19.4-17.3-24.2-22-24.9-11.6-41-9.7-63.1 5.7-9.3 6.5-17.2 14.6-24.6 23.1-2.8 3.3-5.7 6.4-8.6 9.6-.7.7-4-7.6-4.5-6.7h.2c-18.7 20.2-37.2 40.7-55.2 61.6-28.9 33.5-55.7 68.7-83.8 102.8-4.9 6-10.8 10.8-16.8 15.5-25.2 19.6-49.3 40.6-76.2 58-1.7 1.1-3.3 2.2-5 3.3-3.7 2.4-7.9 5.1-11.7 1-4.2-4.6.2-7.9 3.1-10.9 19.1-20.1 35.5-42.3 51.2-65 5.2-7.5 10.1-15.2 17.1-21-.1.2 0 0-.1.1-4.1 4.9-9.1 8.4-14.3 11.8-42.5 27.1-88.1 48.4-133.2 70.8-.9.4-1.8.8-2.8 1.2-3.2 1.2-6.6 1.9-9.2-1-2.9-3.1-.8-6 .9-8.9 20.8-33.8 40.2-68.3 59.5-102.6-36.2 22.7-73.5 43.7-115 56.3-8.3 2.5-16.5 5.4-25.3 5.7-8.3.3-11.7-3.8-8.6-11.1 11-26 21.9-52.2 37-76-26.2 14.8-53.5 28.7-79.1 45.6-.8.5-1.7 1-2.6 1.6-3.4 2.2-6.9 4.8-11 2.7-4.6-2.4-3.9-7.2-4-11.5-.1-9.3 2.4-18.5 2-27.9-.8-16.4.3-32.7 3.6-48.8 1.7-7.8 3.4-15.7 5.3-23.5 14.3-41.3 32.7-80.7 57.4-116.9 1.3-1.9 3-3.5 4.5-5.3 5.9.5 4.7 4.3 3.6 8-1.2 4.4-4.5 8.1-4.3 14 11.6-4.2 21.6-10.4 32.2-15.4 6-2.8 11.7-6.2 18-8.5 3.3-1.2 6.7-3.2 10.4-.9.8.6 1.4 1.4 1.9 2.3.7 6.3-3.2 9.4-8.3 11.1-3.1 1-5.5 3-8.1 4.5.2 0 0 0 .1-.1 3.7-1.7 6.9-6.8 11.4-2.6 3.5 3.2 1.5 7.9-6.1 15.4 4.5-3.9 9.6-5.8 14.9-7.3 3-.9 5.8-.4 7.9 2.3 1.8 2.4.6 4.7-.4 6.9-3.4 7.2-7.3 14.2-10.7 22.9 7.4-.8 13.1-3.9 18.8-6.7 15.9-7.8 31.7-15.8 47.9-23.1 4-1.8 9.4-5.6 13.7-.6 4.3 5-.1 9.2-2.6 13.4-1 1.7-2.4 3.1-3.6 4.9 12.6-6.6 24.7-14.2 37.7-19.9 3.9-1.7 8-4.4 12.1-.8 4.1 3.8 1.4 8 0 12-6.4 19.3-15.5 37.5-23.5 57.8 9.5-3.7 16.8-8.9 24.5-13 7.4-3.9 15-7.2 22.5-10.8 5-2.4 10.5-4.2 14.9.3 4.2 4.4 1.4 9.4-.7 13.9-8.9 19.4-21 37.1-28.6 57.2-.9 2.4-2.5 4.6-2.3 8.3 9.3-5.1 17.1-11.3 25.5-16.4 8-4.8 16.3-9.1 25-12.4 7.9-3.1 15.4-5.1 24.4-2.3 5.8 1.8 7.4 4 6.4 9.1-.9 4.6-3.4 8.7-5.9 12.6-9.8 15.1-21.1 29-31.8 39.7 12.5-14.8 29.2-29.4 46.8-42.9 18.1-14 35.3-29.5 55-37.5-15.6 9.3-35.4 12.8-54.3 18.9-7 2.3-13.5.8-20-.3-5.6-.9-4.2-5.2-2.2-8.6 6.6-11.2 14.4-21.4 22.3-31-6.1 2.9-12.5 6.4-19.7 8.1-3 .7-6 .5-7.8-2.3-1.7-2.7-1.6-5.8.4-8.3 3.9-5 7.5-10.2 12.2-15.3-7.1 3.3-14 5.5-20.9 7.9-3.8 1.3-7.7 1-10-2.3-2.4-3.5.3-6.4 2.7-8.9 4.1-4.3 8.1-8.7 12.7-10.6-5 3-11 6.6-17.9 8-3.8.8-7.7.7-9.7-3-1.8-3.4.6-6.2 3-8.6 9.3-9.3 19.6-17.3 30.9-23.9-17.7 10.4-37.4 16.1-56.4 23.4-3.2 1.3-6.7.7-9-2.3-2.2-3-.5-5.7 1.3-8.1 7.3-9.8 14.7-19.4 22.2-27.5-12.1 6.4-26.2 11.2-39.9 17.1-3.6 1.5-7.6 2-9.9-1.7-2.3-3.8.7-6.6 3.3-9.4 3.4-3.5 8.3-4.4 11.5-7.2-17.9 11.3-38.6 17.3-58.4 25.3-2.3 1-4.7 2-7 3-3.5 1.5-7.3 1.6-9.5-1.5-2.1-2.9-.2-6.1 2.2-8.5 11.1-11.3 21.7-23.1 34-33.1 3-2.4 5.9-4.9 8-6.3-11.1 10.5-25.8 17.8-39.8 26.2-5.5 3.3-11.2 5.7-17.9 2.7-3.8-1.7-7.9-.1-11.9 0-4.5.1-9.9 1.4-12.5-3.6-2.6-5 1.2-9 4.3-12.1 8.7-8.7 16.3-18.4 24.9-27.3 1.3-1.4 2.7-2.7 4.4-4.5-18.6 5.3-35.7 12.9-53.3 19.1-4 1.4-8.5 4-11.8-.4-3.6-4.7.3-8.8 3.1-12.1 8.7-10.5 16.6-21.2 25.6-31.1zm-7.8 678.5c-16.8-6.8-31.6-16.9-45.8-28-7.6-1.1-9.2-3.4-15.8-8.6-1.9-3.2-4.7-5.9-6.4-9.3-1.7-2.9-3.7-5.5-6.3-7.7-6.5-5.1-11.1.9-16.9 3.2 4.2-8 5.1-15.6 1.1-23.3-4.2-6-8.4-12.1-12.5-18.1-.4-.7-.9-1.3-1.5-1.7h-.1c-5.6-.7-2.8-5.4-3.8-8.2-3-8.4-4.3-17.2-6.4-25.8-1.8-.5.9-5.5-3.4-3.4-12.9 21.9-28.7 41.6-46 60.2-3 3.2-6 6.2-8.7 9.6-2.1 2.7-1.7 5.1 2.2 5.7 2.6.4 5.3.5 8 .5 10-.1 20-.5 30-.5 8.3 0 10.3 2.3 8.6 10.3-2.7 12.9-7.5 24.8-16.7 34.7-7.7 8.3-15.8 16.2-24.5 23.5-1.9 1.6-4.8 2.7-4.1 6.1 3.4 1.8 6.6.3 9.8-.3 13.4-2.5 26.8-5.1 40.2-7.6 4.9-.9 9.8-2 14.8-2.5 6.4-.6 8.5.9 10.1 7 .9 3.5 1.5 7.2 2.1 10.8 2.6 13.8 5.9 27.3 10.6 40.6.8 2.2.9 5.4 5.2 5.9.7-4.3 1.6-8.5 2.2-12.7 2.4-17.1 4.6-34.3 7.2-51.4 2.4-16.3 5.2-17.5 18.7-8.3 23.1 15.8 46.1 31.6 69.2 47.4 1.9 1.3 3.8 2.7 5.8 3.9 2.2 1.3 4.5 4 7.1 2.4 2.9-1.8 1-4.8.5-7.3-1.4-6.2-3.1-12.3-4.6-18.4-6.4-13.6-18.4-20.8-29.9-28.7zm789.3 25.8c5.2 1.3 10.4 2.2 15.6 3.3 1.6.3 3.4.7 4.5-1 1-1.7-.1-3.2-1-4.6-3.5-5.7-7-11.3-10.6-17-13.1-20.5-24.6-42-34.7-64.1-3.4-7.3-2.2-8.9 6.2-9.6 1-.1 1.9-.3 2.3-1.5.2-2.1-1.3-3.6-2.4-5.2-15.5-21.6-24.1-45.8-28-71.9-3.2-21.1-4.3-42.4-4.9-63.7-.1-3 .8-6.4-2.2-10.7-3.1 11.1-5.7 20.7-8.3 30.2.2 7.3 1.2 14.6 2.7 21.8 4.7 22.8 10.5 45.4 17.5 67.6 1 3.3 3.2 6.6 1.4 10.1-4.6.7-5.5-4.7-9.7-5.3 5.6 20.3 8.4 40.5 15.6 59.6 1.2 3.1 4.9 7.1 1.1 9.8-3 2.1-5.6-2.5-8.6-3.6-.8-.3-1.3-.1-1.9 1.2.7 1.4 1.4 3.2 2.5 4.8 3.9 5.8 8 11.5 11.8 17.3 1.3 1.9 2.5 4.2.9 6.5-1.6 2.2-4.1 1.8-6.4 1.5-1.3-.2-2.6-.5-3.9-.8-6.7-2-11.7.1-15.1 6.2 17.5 9.2 36.5 14.2 55.6 19.1z" clip-rule="evenodd"/><path id="hl1" fill="#503D32" fill-rule="evenodd" d="M1153.9 427.1c-2.7 11.4-9.9 20.2-17 29-2.2 2.7-5.7 4.7-5.9 10.2 12.4-3.1 23.4-8.6 34.9-12.5 11.2-3.9 22.3-8 35-11.3-.9 6.6-4.6 9.7-7.6 13-8.5 9.4-17.2 18.6-25.6 28-2.1 2.3-6 4.6-3.8 8.3 1.7 3 5.4 1.3 8.3 1.2 5.8-.2 11.4-3.3 17.3.8 2.4 1.6 5.5-1.5 8.1-2.9 11.8-6.9 23.6-13.9 35.4-20.7 4.8-2.8 9.8-5.5 15.4-7.4-6.7 9.4-15.2 17.1-23.2 25.2-8.1 8.3-16.2 16.4-23.7 25.5 26.9-8.1 52-20.1 78.5-29.3-4.4 8.1-13.5 11.7-17.7 20.3 17.1-7 34.2-13.9 51.8-21.1 1.3 3.9-.9 5.8-2.4 7.7-6.2 7.9-12.6 15.6-18.7 23.4-2.2 2.8-5.2 5.2-5.6 10.7 23.7-7.6 45.6-17.6 68.7-24.8-10.9 13.2-25.4 22.4-36.7 35.2 11.1.3 20-6.9 31.8-7.8-5.3 9.3-15.6 12.6-20.4 22.3 12.7-.4 22.5-8.8 35.3-9.9-4.7 10.4-13 17.1-18.1 26.9 6.7 2.2 11.1-2.4 16.1-3.9 5.3-1.6 10-5.1 15.9-5.8 1.3 4-1.6 5.9-3.2 8.2-6.4 8.9-13 17.7-19.5 26.6-1.4 1.9-2.7 3.9-3.6 6-1.5 3.5.1 5.3 3.6 4.9 3.3-.3 6.6-1.1 9.8-2 21.2-5.9 42.3-12.1 63-19.5 2.7-.9 5.3-3 9.9-.5-23.8 14.9-46.2 30.3-67.1 47.5-20.8 17.1-41.1 34.7-62.8 53.2 1.2-5.1 4-7.6 6-10.4 10.8-14.8 21.7-29.5 32.5-44.3 2.4-3.2 4.6-6.6 5.6-10.5 1.3-5-.9-7.7-6.1-7.7-4.1 0-7.8 1.5-11.6 2.8-19.3 6.3-35.8 17.6-52.1 29.2-3 2.1-6 4.2-9.1 6.1-1.4.9-3.2 1.4-4.6.1-1.4-1.3-1-3.1-.5-4.7 1-2.8 2-5.6 3.2-8.4 6.7-16 14-31.7 22.8-46.7 3.2-5.4 5.8-11.2 8.6-16.9 1.1-2.4 2.6-5.1.5-7.5-2.5-2.9-5.5-1.1-8.3-.1-1.3.4-2.4 1.1-3.7 1.6-10.4 4.6-20.3 10-30.2 15.6-3.8 2.1-7.5 4.4-11.4 6.2-3.4 1.5-7.3 5.9-10.7 2.6-2.8-2.8 1.2-6.7 2.6-9.9 7.6-17.4 15.5-34.7 22-52.6.8-2.2 1.6-4.4 2.1-6.7.5-2.6-1.1-3.8-3.5-3.1-2.2.6-4.4 1.6-6.4 2.7-7.9 4.2-15.8 8.6-23.8 12.8-6.4 3.4-12.9 6.4-21.8 9 2.7-7.5 6.9-11.9 9.7-16.9.9-1.7 2.6-3.5.8-5.4-1.3-1.3-3.2-.6-4.7 0-4 1.7-7.9 3.5-11.8 5.4-19.2 9.3-37.8 19.9-57.9 27.1-3 1.1-5.8 3.4-10.7 1.1 4.7-11.1 12.1-21.1 16.1-33.6-9.8-.6-16.7 6.9-26.3 7.6 2.1-7 9.7-9.9 10.4-17.9-6.3-.2-10.3 4.9-15.6 5.7 5.3-8.1 13.9-12.8 20-20-5.4.7-10.2 3.1-14.9 5.5-13.7 6.8-27.3 13.7-41.1 20.5-2.9 1.4-5.5 3.8-9.8 2.7.5-11.2 8.5-20 9.7-30.8 17.5-27 39.7-49 67.8-64.9zm496.6 58.3c1.4.8 4.8 1.8 2.3 4-2.5 2.1-2.2 2.9.3 3.9 15.5 5.8 31 11.5 46.5 17.2-8.4-8.7-20-13-27-24.8 9.2 0 16.3 4.1 24 5.5 7.5 1.5 14.9 3.8 24 3.6-6.8-6.6-16.4-7.4-20.4-17.5 28.8 4.3 55.8 10.1 82.9 15.2-5.6-6.1-14.8-6.9-20.7-16.2 8.8 2.7 15.4 5 22.1 6.6 6.4 1.5 12.6 5.1 21 2.9-3.7-2.6-6.2-4.2-8.6-6-3.8-3-11.4-5.9-9.5-10.1 2.5-5.6 9.5-1.3 14.2-.1 17.8 4.4 34.9 11.1 52.3 16.8 1.9.6 3.8 1.9 7.2.8-9.8-6.1-18.4-11.7-27.3-17-13.6-8.1-25.7-19-41.9-22.3-.9-.2-1.8-.8-2.7-1.3-10.6-5.8-22-9.4-33.5-12.8-4.4-1.3-8.8-2.8-14.9-2 8.8 8 19.8 12.2 25.3 24.4-15.3-5.9-28.7-12.3-44-12.4 5.8 7.2 15.7 9.5 21.8 19.5-19.9-5.8-37.8-11.8-59-8 9.2 5.7 18.2 8.1 24.8 14.3-8.4-1.2-16.2-4.3-24.4-5.4-8.3-1.1-16.7-3.9-25.9-.6 4.2 6.4 12.7 6.2 17.4 13.4-15.7-2.6-29.7-4.4-44.1-1.3 5.4 5 12 6.5 17.8 9.7z" clip-rule="evenodd"/><path id="sd2" fill="#31251F" fill-rule="evenodd" d="M1170.7 1129.3c-10.8-5.3-17.7-14.6-24.3-24.1m-74.3-53.5l-15.9-20.1m28.3 42.4c6.3 12.6 6.3 12.6 16.1 3.2-7.5-5.8-15.4-11.1-22.2-17.8m-76.2-384.6c-10 31.1-17.5 62.9-29.7 93.3-12.3 30.8-33.4 52.6-66.4 61.2-3.7 1-7.8 1.5-10.4 4.5.1 2.6 1.7 3.3 3.2 3.9 14.2 5.9 28.7 11.5 44 12.5 23.6 1.6 47.3 1.6 70.5-4.3 13.9-3.5 27.8-6.7 41.8-9.8 3.2-.7 6.6-.9 9.9-.9 3.1 0 6.1 1 7 4.5.8 3-1.1 5.1-3.4 6.7-2.7 1.9-5.5 3.7-8.4 5.4-31.5 18.2-64.4 33.4-98.9 45.3-2.6.9-6.1.7-7.4 4.2 2.9 2.9 6.8 2.8 10.3 3.5 34.6 7.3 69.7 10.9 104.9 14.1 29 2.7 57.9 2.2 86.8-.6 32.1-3.1 63.2-9.9 91.5-26.3 21.6-12.5 43.3-25 65-37.3 20.1-11.4 38.7-24.8 56.7-39.1 4.5-3.6 34-27.4 36.6-32.6 16.4-33.2 33.3-66.1 49.2-99.4 18.5-38.9 41.6-75.5 66.2-110.9 2.3-3.3 7.1-7.2 8.4-11-10.3 5.2-49 32.9-57.5 40.2-10.5 8.9-18.1 20.4-27 30.7-15.2 17.7-31.7 34.2-44.5 53.9-2.9 4.4-6.4 8.5-10 12.4-10 10.8-19.1 22.2-28.1 33.8-4.9 6.3-9.5 13-15.8 17.9-28.1 21.9-55 45.3-85 64.8-1.7 1.1-3.2 3.4-6.3 2.1.9-1.3 1.6-2.4 2.5-3.3 13.6-14.6 26.5-29.9 38-46.3 12-17.2 24.3-34.2 36.4-51.3-11.6 4.6-21.3 12.3-31.7 18.9-40.4 25.4-83.6 45.6-126.2 66.9-2 1-3.9 2.7-6.6 1.5-.6-3.3 2-5.4 3.4-7.9 19.7-32.5 38.3-65.6 56.8-98.7 1.5-2.7 4.3-5.2 2.7-9.1-4-.2-6.6 2-9.4 3.6-15.6 9-31 18.3-46.6 27.1-26 14.6-53.4 25.7-82.3 33.1-3.2.8-6.5 1.4-9.8 1.5-2.7.1-4.4-1.7-3.7-4.6.5-2.2 1.4-4.4 2.4-6.6 11.1-24.2 20.7-49.2 36-71.2 1.2-1.7 3.3-3.6 1-6.8-8.5 2.3-16.5 6.3-24.2 10.7-22 12.5-44.5 24.1-65.6 38.1-2.1 1.4-4.4 3.6-7.2 2.1-2.9-1.5-2.6-4.6-2.2-7.1 3-20.2.3-40.6 3-60.8 1.6-12.2 1.7-24.6 2.5-36.8-9.3 20.9-15.5 42.7-22.4 64.3zm921.3-107.5c-1.4-5.8-2-11.8-4.9-17.1-3.4 2.9-5.5.1-7.6-1.9-6.4-6.3-12.7-12.7-19.2-19-1.7-1.7-3.1-4.3-6.5-3.8.3 4.1 2.8 6.9 4.7 9.9 6.8 11.1 13.1 22.4 18.4 34.3 1.9 4.2 7.2 9.7 2.6 13.2-3.5 2.7-8-3.2-11.5-6-18.4-14.9-37.3-29-56.9-42.3-3.4-2.3-6.6-5.2-12.3-5.7 7.7 12.6 17.2 22.8 22.7 37.5-6.7-3-10.3-6.5-13.8-9.9-6.2-6-12.2-12.3-18.4-18.3-11.8-11.4-25-20.9-40.2-27.3-9.2-3.9-18.7-7.1-28.7-8-3.4-.3-7.2-1.2-8.3.1 5.9 7.3 11.1 14.2 16.8 20.6 5.6 6.2 11.9 11.7 17.5 17.8 5.6 6.1 12.9 10.9 17 18.8-2.6.6-4.1-.3-5.6-1-14-7-28.2-13.6-41.8-21.4-10.1-5.8-20.4-11.3-31.6-14.8-2.3-.7-4.8-2.4-8.5.2 20.1 13.9 39.6 27.7 59.3 41.1 19.7 13.4 41.1 24.3 59.3 39.7-.4.7-.9 1.5-1.3 2.2-6.8-4.5-13.7-8.9-20.5-13.4-.4.5-.7 1.1-1.1 1.6 14.6 12.1 27.5 26 41 39.2 9.3 9.1 17.8 18.9 28 27.1-1.6-3.3-3.3-6.5-4.8-9.9-2.7-6.1-5.5-12.1-7.8-18.3-1.3-3.6-4-8.2-.4-11.1 3.8-3.1 7.5.9 10.5 3.1 6.1 4.6 12 9.4 17.7 14.5 9.4 8.4 18.5 17.1 27.9 25.5 3.5 3.1 6.7 7 12.6 7.6-.6-6.4-3.7-10.8-6.3-15.4-4.5-7.9-8.1-16-9-25.1-.5-5.7 2.3-7.5 7.3-4.7 2.6 1.5 4.8 3.5 7 5.5 5.2 4.7 10.2 9.5 15.4 14.2-6.1-26.4-12.3-52.9-18.7-79.3zm-317.8-5.2c4.6 5.8 17.1 16.5 22.1 10.8 9.1-10.3 23.4-15.8 33.2-10.4 12 6.6 13.7 10.3 21 21.6 11.8 18.2 19.8 35.8 30.4 54.7 28.8 51.2 81.3 92.2 128 123.2 1.7 1.3 3.5 3.5 6.2 1.2.7-3.5-1.2-6.5-2.3-9.5-5.8-16.3-10.9-32.9-15.5-49.6-.6-2.3-1.2-4.5-1.7-6.8-.5-2.7-.5-5.5 2.4-7s5.3 0 7.1 2c3.9 4.6 7.6 9.2 11.2 14.1 20.8 28.1 42.2 55.7 65.8 81.7 32.5 35.8 72.9 57.5 118.6 70.8 2 .6 4.3 2.2 7.1-.8-14.4-17.2-29.9-33.7-41.1-53.5-5.1 1.2-9.1-1.5-13.1-3.7-31.2-17.4-60.8-37.2-89.3-58.6-5.6-4.2-11.1-8.5-16.1-13.4-21.7-21.1-42.5-43.2-65-63.6-1.7-1.5-2.9-4.1-5.7-3-2.5 1-2.4 3.8-2.6 6.1-.9 13.8.7 27.2 5.4 40.3 1.2 3.3 3.4 6.4 2.5 10.1-2.5.5-3.8-.8-4.7-2-8.7-10.9-19.5-20.1-26.8-32.2-16.7-28-34-55.7-52.1-82.9-10.9-16.5-22.5-32.3-38.9-43.8-11.4-8-23.2-15.7-34.9-23.3-10.1-6.6-21.2-7.2-32.7-4.3-7.2 1.8-27.5 13.4-34.2 16.3 5.9 4.5 11.1 9.7 15.7 15.5zm42.9-182.2c-28 7.6-51.8 22.4-72.8 42-9.2 8.6-11.8 8.6-20.8-.1-11.7-11.4-24.1-22-37.7-31.2-23-15.6-47.5-28.2-75.1-34 2.8 1.7 5.6 3.7 8.5 5.2 26.7 13.8 51.8 30.2 75.8 48.1 3 2.3 6.9 4 8.7 10.8-26.4-7.2-45.4 8.6-66.5 17.9 7.1 2.5 14.3 3.8 21.2 5.7 6.7 1.8 13.4 4.1 20 6.4 6.6 2.3 13.9 2.7 20.9 7.7-6.7 2.9-12.4 3.2-17.8 4.6-5.4 1.4-11.3 1.9-15.7 6.2 16.5 1.5 33.1.8 48.7 7.6-6.6 3-13.3 5-19.3 8.6-6 3.6-12.7 6.5-18 13.9 12.3-.7 23-1.8 33.4-.1 10.5 1.7 21.5-.1 33.2 3.2-6.4 6.1-15.2 5.5-19.5 12.8 6 2 11.4 1.3 16.6 1.2 8.5 0 16.5.9 23.9 5.6 4.8 3 6.3 2.1 7.5-3.3.2-1 .2-2 .4-3 1.9-11.1 4.5-13.1 16.2-12.5 1.9.1 3.9 1.2 6-1.3-3.3-4.6-8-7.5-12.6-10.6-6.3-4.2-6.3-7.5-.6-12.3 2.5-2.2 6.7-2.3 8.5-6.3-4-2-7.7-1.9-11.3-2.4-2-.3-4.3-.3-5-2.6-.8-2.8 1.6-4.1 3.5-5.4 2-1.3 4-2.4 6.1-3.4 5.4-2.5 10.8-4.8 17.8-7.9-14.1-5.3-27.2-.9-41.2-1.1 6.4-9.5 16.9-10 24-16.4-10.4-3-19.5.7-29.6.4 2.2-7.8 7.5-11.7 12.9-15.4 22.7-15.8 45-32.2 71.2-42.1-7.3-.1-14.4 1.6-21.5 3.5zM1413.1 778c21.9-22.1 41.4-46.1 59.6-71.2 24.9-34.4 44.4-69.9 63.9-107 13.8-19 34.4-36.2 57.9-43.8 1.7-.5 4.2-.3 4.4-3.6-6.4-2.2-26.2-8.5-32.8-7.1-13.4 2.8-24.9 9.3-34.9 18.5-7.6 7-14.6 14.6-20.7 23-17.8 24.2-33.7 49.6-47.8 76.1-20.2 38.3-37.1 78.3-57.7 116.4-.8 1.4-1.6 2.9-.8 5.5 4.4-1 6.4-4.3 8.9-6.8zm488.5 331.3c3.6.2 7.6.4 9.8-3.3 2.3-3.9 1.3-7.6-1-11.2-3.8-5.9-7.3-12-13.2-15.2 2.1 2.5 5.3 4.7 9 1.8 3.3-2.5 2.5-6.1 1.2-9.4-5.8-15.3-10.1-31-13.5-47-.5-2.2-2.9-5.3 1.5-6.3 6.5-1.6 5.1-6.6 3.5-10.2-2.1-5-4-10.1-5.7-15.2-7.9-23.9-12-48.6-15.8-73.4-.5-3.3.3-7.9-5.4-7.6-2.8 8.9-5.5 17.7-8.2 26.6-1 3.2-1.2 6.5-.9 9.9 1.6 22.5 3 45.1 4.6 67.6 1.6 22.7 1.5 45.1-6.4 66.9-2.8 7.9-3.8 16.2-4.4 24.5-1.2 14.9 2.2 20.1 17.1 26.4 1.4-5 .1-9.9-.3-14.8-.4-5.2.9-9.2 6.6-10.6 7.2-2.6 14.3.1 21.5.5zm-729 2c-.8-5.2-3.6-7.4-8.8-6.7-6 .8-11.7-.9-17.4-2.3 6.7 9.5 13.5 18.7 24.3 24.1 2 1 3.6 2.9 5.4 4.3-1.2-6.6-2.5-13-3.5-19.4zm-124.8-46c9.9-3.3 15.7-11 24.3-13.6m6.3 7.7c1.1 5.2 3.7 9.9 6.1 14.6 6.3 12.6 6.3 12.6 16.1 3.2-7.6-5.8-15.4-11.1-22.2-17.8zm-40-55.9c-1 2.6-4.1 5-2.4 8 1.4 2.5 4.1.7 6.2.2m14.1 19.9c-.6 11.3-6.8 21.3-8.5 33.7 9.9-3.3 15.7-11 24.3-13.6-5.2-6.7-10.5-13.4-15.8-20.1z" clip-rule="evenodd"/><path id="sd1" fill="#251C17" fill-rule="evenodd" d="M1559.4 598.1c-3 0-6 .2-9 0-4.9-.4-6.2-2.3-3.8-6.4 4.9-8.7 10.5-17 19.1-22.7 2-1.3 3.9-2.5 6-3.6 17.8-9.8 24-9.1 39.2 4.4 8.8 7.9 14.5 7.7 23.3-.7 11.8-11.3 20.5-11.6 32.9-.9 7.3 6.3 14.1 13.2 18.7 21.9 2.8 5.3 1.7 7.4-4.2 7.7-5.6.4-11.3.2-17 .2-11.9.1-23.2 2.3-33.3 8.8-5.3 3.4-10.2 3.4-16.1 1.6-18.2-5.7-36.7-9.6-55.8-10.3z" clip-rule="evenodd"/><path fill="none" fill-rule="evenodd" stroke="#000" stroke-miterlimit="10" stroke-width="6" d="M1896.9 769.5c-14.4-11.3-46.8-64.2-59.6-75.3s-9.3 7.8-9.3 7.8 15.2 49.4 16.1 52 8.4 16.9-.1 11.2c-113.5-64.7-154.3-164.9-157.4-173.4s-22.2-29.7-32.1-31.6-15 4.4-18.9 7.5c-10.1 10.2-15.8 7.5-17.1 7.1s-26.3-27.2-33.3-28.3-11.2-2.5-29.5 2c-29.4 8.7-48.3 46.3-59.4 58.1s-43.1 74.4-49.4 87-43.4 88.9-43.4 88.9-21.5 40.3-162.8 113.5c-86.7 48.5-238.2 13.5-238.2 13.5h0l-30.2-2.7c-30.2-2.7-19.8-10.3-4.4-11.7s79.8-35.9 95.6-44.9 2.5-18.7-18.2-11.5c-88.8 26.8-119.6 9.1-141.6 1.5s0-10 0-10 33.2-14.6 40.7-20.6 17.1-17.7 43.1-86.2c28-88.2 41.5-134.3 72.8-191.8s69.7-97.1 137-128.3c119.1-67.8 216.1-49.2 216.1-49.2 37.2 8.3 81.7 10.8 132.1 57.1 20.1 26.7 30.8 10.7 30.8 10.7s19.1-25.7 57.3-36.5c55.2-16.5 110.5 1.9 174.2 42 106 68.2 112.4 127.3 112.4 127.3 45.9 258.6 119 304 119 304-33.4 1.6-125.9-51.7-142.3-89.2zm-295.3-209.8c-29.4-5.9-69.5 38.6-87.3 80-23.4 63.3-115.7 149.5-115.7 149.5m146.9-195.9s-4.4 5.3 15.6 4.8 44.8 9.1 54.1 10.1 17.6-1 25.4-6.3c13.6-7.2 43.8-5 47.5-4.9m-658.6 375.3s-44.1 60.3-57.2 72.3c-8.1 8.5 11.4 6.1 11.4 6.1l30-.5s12.2-2.3 8.6 10.3-7.7 28.3-28.4 46.6l-14.2 10.5s-16.1 14.7 12.6 5.8 44.6-8.5 44.6-8.5 14-.6 15.1 6.9c0 0 6.4 39.9 12.1 49.3s5.4 12.5 7.8-5.4 8.2-57.1 8.2-57.1 3.1-15.1 14-5.1 79.6 54.4 79.6 54.4 12 7.1 5.2-11.5-3.1-35.6-7.9-38.6-20.7.7-47.5-13.7c-15.5-10.6-39.4-26.4-53.5-44.3s-29.2-38.3-35.8-60.1-1.8-19-4.7-17.4zm850.6-86.9s-16.3 49-16.9 55.1-3.1 20.6 0 41.8 4.5 72.2 3.2 79.4-8.3 32.8-8.3 32.8-16.1 33 15.5 39.9c3.2-14.8 2.5-17.8 3.2-18.8 0 0-1.6-6.7 15 2.1s57.6 18.5 61.6 16.7-1.4-14.4-12.4-27.1-31-57.7-31-57.7-5.3-9.1 3.7-11.1.7-7.3-3.4-14.3-26.6-46.9-27.8-124.6c.8-24.9-2.4-14.2-2.4-14.2z" clip-rule="evenodd"/></svg>