<svg xmlns="http://www.w3.org/2000/svg" id="hair" viewBox="0 0 3000 3000"><path id="cl1" fill="#373038" d="M1064.046 568.714c-25.399-.397-50.5-3.397-75-10.397-10.698-3.103-21.5-4.303-32.601-4.4-19-.2-37.899 1.102-56.8 3.7-4.602.6-9.102 1.7-14.399 1.1.699-3.8 3.602-5 5.8-6.6 16.7-12.3 34.7-22.4 52.899-32.103 15.601-8.3 31.5-16 47.2-24 1.5-.8 3-1.397 4.5-2.197 3.3-1.9 8.3-2.9 7.898-7.9-.5-5.5-5.898-5.7-10-6.7-12-2.897-24.3-4.198-36.699-4.1-29.799.298-59.098 4.397-88.197 10.397-21.2 4.303-42.399 8.9-63.2 14.9-1.199.3-2.5.3-4.199.5-.801-3.6 1.899-5 3.602-6.5 12.5-11.1 26.198-20.6 40.198-29.6 22.7-14.603 46.802-26.803 71-38.803 23-11.397 47.5-12.7 72.2-12.5 20.602.2 41.3 1.603 61.8 4.3 1.302.2 2.601.4 4 .5 2.5.2 4.699-.5 5.601-3.1.801-2.6-.398-4.7-2.398-6.1-2.699-1.9-5.602-3.603-8.5-5.2-50.301-28.3-103.801-48.3-160.102-60.8-3.5-.803-7-1.7-10.799-2.603 1.5-2.7 3.698-1.7 5.397-1.7 50 .4 99.9 3.303 149.7 7.5 16.102 1.4 31.3 6.303 46.5 11.4 18.699 6.2 36.9 13.5 54.4 22.6 4.398 2.303 10.1 7.4 14.198 1.803 3.399-4.603-2.5-9.103-5.301-12.803-24.8-32.197-54.601-59.197-88-82.197-30.6-21.101-63.397-38.101-98.299-50.801-2.699-1-5.899-1.197-8.5-4.897 5.601-2 11.101-2.2 16.5-2.4 18.301-.8 36.699-1.1 55-.1 51.601 2.7 101.801 12.5 149.899 31.8 13 5.2 25.601 11.2 38 17.9 3.399 1.8 7.5 5.1 10.8.897 3.2-4.2-.899-7.397-3.5-10.2-24.398-26.498-48.898-52.798-73.298-79.298-3.102-3.3-6.802-6.3-8.5-11.397 4.6-1.5 8.299.3 11.898 1.397 48.5 14 92.8 36.7 134.199 65.3 4.699 3.2 9.199 6.603 13.801 9.9.699.4 1.199.9 1.699 1.5 2 4.2.9 6.4-4 5.9-4.6-.5-9.199-1.5-13.801-2.2-10.101-1.603-12.301 1-9.101 10.897 5.199 15.9 13.399 30.5 20.199 45.7 7.101 15.8 16.301 30.5 23.101 46.5 1.2 2.9 3.301 6 .899 9-2.8 3.5-6.601 2.7-10.101 1.2-18.199-7.5-36.301-15-53.899-23.8-10.5-5.2-21.101-10-32.199-13.603-2.801-.897-6.198-2.5-8.301.603-2 3 .399 5.7 2.101 8.1 8.2 11.3 17.899 21.5 26.5 32.5 1.399 1.8 3.2 3.4 4.399 5.4 1.7 2.897 3.7 6 1.601 9.2-2.398 3.6-6.199 3.6-9.898 2.397-10.5-3.397-20-8.897-29.899-13.7-9.301-4.397-18.301-9.5-30.2-13.897 6.9 9.7 12.9 17.397 19.9 24.3 8.3 8.2 15.6 17.4 23.5 25.9 2.199 2.397 4.898 5 2.8 8.697-1.899 3.4-5.3 3.303-8.698 3.2-32.9-.8-65.602.5-99.201 4.9 11 7.897 21.5 15 30.701 23.6 2.799 2.603 7.1 4.5 5.5 9.303-1.802 5.3-6.802 4.697-10.802 4.6-23.601-.6-47.198-2.898-70.899-1.898-3.601.198-7.301-.699-10.801 1-1 3 1.5 4.301 3.102 5.601 15.9 13.2 32 26.1 51 34.899 3 1.398 6.801 2.301 6.801 6.301 0 4.3-3.801 5.5-7.2 6.8-17.698 6.3-36.6 7-54.698 11.6-3.802.9-7.9.8-11.602 4.2 6.602 5.5 14.2 8.1 21.3 11.2 7.302 3.2 14.5 6.6 21.5 10.7 1.7 1 3.9 1.897 3.5 4.3-.5 2.899-2.899 3.5-5.3 3.399-6.299-.297-12.399.903-18.201-.797zm308.201-152.3l-.399-.2c-4.101 7.101 2 8.5 6.101 10.8 38.801 21.8 74.199 48.103 106.101 79.2 8.301 8 14 18.603 24.2 24.603v-.2c1.199 1 3.101.6 4.199 1.897 6 2.5 10.399 6.803 14.399 11.9 40.199 50.9 80.601 101.8 120.799 152.7 2.701 3.397 5.602 6.7 6.5 11.1-2.5 9.3 2 13.9 12.302 12.5 14.101-1.8 26.101-7.3 34.5-19.5 17.5-25.397 40.399-44.897 66.198-61.5 8.9-5.7 13.354-15.063 23.854-17.464 16.302-6.897 36 26.5 41.494 67.97 3.256 18.28 11.506 51.53 17.137 72.576 1.602 1.5 9.119-46.045 7.369-55.045 2.25-12-1.147-36.947-2.25-39.75-1.1-3.5-4.451-40.603-5.75-44-14.701-37.8-22.573-67.85-40.5-95.75-11-12.9-1.102-11.152-14.5-21.75-1.899-.5-5.526-6.149-7.125-7.25-2.802-1.897-3.927-9.334-6.126-5.132-1.801 3.5-.103 6.2 3.601 8.397 2.899 1.803-7.375-2.041-5.475-.141-3.199-1.4 1.699 3.475-2 1.375-10-5.8-15.525-12.334-26.525-15.634-4.101-1.2-8.899-1.7-11.399 3.1-2.5 4.9-1.101 8.9 3.5 12.103.601.397 2.601.1 2.399.699-12.801-4.302-24.801-10.899-37.301-16.699-3.801-1.7-8.199-2.801-10.601 1.397-2.601 4.5-.399 9.2 3.101 12.103 2.801 2.199 5.6 4.199 7.899 6.897 1 1.3-3.5 4.4-.399 5.3 15.801 9.2 33 19.9 47.699 33.002 16.2 12.5 30.801 26.898 45.101 39.5-6.398-4.899-12.898-11.802-19.898-18.102-18.399-16.3-36.7-32.6-57.602-45.6-18.2-11.303-38-19.9-54.601-33.803-2.899-2.5-5.5-1.697-7.602 1.303-.6 1.197-.6 2.6-.898 3.897-.102.4.601 1 .5 1.603 0 .8 0 1.1.101 1 .199-1.5-1.2-2.303-1.898-3-6.602-7.303-12.5-6.4-17 2.397-6.5 12.9-7.5 13.2-21.5 7.2-4-1.7-8.102-4.3-12.102-.8-3.801 3.3-1.5 7.6.199 12.397-6.699-4.897-12.1-9.5-19-11.5-3-.897-6-.8-8.1 2.103-2.2 3-.5 5.3 1.3 7.7.898 1.198 2.5 2.198 2.101 4.6-6.7-4.7-12.898-9.8-19.801-13.7-3.6-2-6.8-.8-9.3 1.8-2.602 2.7-.602 5.4 1.3 7.5 3.301 3.603 5.9 7.9 10.301 10.4.399.2.3.6 0 .9-.898.897 1 .5-.898-1.2-7.302-5.9-16.899-9.2-25.899-11.103 2.399.103 7.8 3.103 8.699-1.6 1-4.6 3.101-4.6 6.199-5.8 1.801-.7 5.399-1.2 5-5.103-.399-3.197-2.5-4.5-5.101-5.197-3.899-1.103-8-1.103-13.101-3.2 12.699 3.8 24.199 5.6 36 4.6 5-.397 10.699-1.2 11.898-6.897 1.2-6.2-4.698-7.5-9-9.5-.5-.2-.8-.803-1.398-.5 5.3 2.1 10.8 3.5 16.398 4.397 5.2.8 11.9 2.4 14-3.7 2.102-6.197-4.398-8.5-8.898-10.897-.801-.4-1.2-.603-.801-1.103 4.301.9 6.699-1.3 7.699-5.5-.899-7.1-7.5-7.697-12.199-9.8-32.801-14.8-66.699-26.4-101-37.1-27.601-8.603-55.399-15.2-84.601-10.4-12.5 1.5-24.2 5.7-35.801 10.4a7.609 7.609 0 0 1-1.799 1.804zm-75.201 57.402c9.601 15.197 19.802 30 24.101 47.897 5.701 23.8 11 47.603 15.701 66.7-5.802-38.2-25.9-75.3-50.302-110.5-3.101-4.5-7-6.5-12.3-3.399-14.7 10.399-29.102 21.302-42 34-2.4 5.602-6 10.699-7 17-4.2 26.499-5.4 53.302-7.4 79.999-.5 6.7-.398 13.803 3.801 19.803 5.199-.303 8.399 1.5 9.399 7.1.399 2.7 2.302 5.5 5.2 6.4 9.6 2.897 18.1-3.603 18.199-13.7 0-2.5.101-4.9.101-7.4 0-10.3 2-11.6 10.601-6.897 10.699 5.897 13.301 4.8 16.199-6.801 3.102-12.302 5.301-13.102 16.102-6.102 7.398 4.7 12.698 2.5 13.698-6.398.802-7.199.2-14.399.101-21.602 0-.8-.398-1-.898-.5-.898 1 .199-1.398.5.9 4.602 12.197 13.199 22.8 22.602 32.897-3.302-3-5.602-6.897-8.802-10-2.601-2.6-5.198-5.7-8.899-4.5-4 1.2-4.101 5.4-4.398 9-1.102 15.2-1.102 15.2-13.801 7.5-.601-.3-1.101-.8-1.699-1.1-6.899-3.602-10.199-2.3-12.602 5.2-1.699 5.1-2.398 10.397-4.5 15.3-1.801 4.2-4.398 4.8-7.398 1.1-2.301-2.8-3.899-6.2-6.699-8.7-2.102-1.8-4.301-3.3-7-2.3-3.102 1.2-3 3.7-3.102 6.8-.1 5.9-.1 11.9-2.398 17.7-2.5 6.2-6.4 8.103-12.602 5.7-4.398-1.7-8.898-3.1-13.301-4.8-7.398-2.9-12-1.9-13.898 6.5-1.5 6.6-5 8.2-10.699 3.6-3.5-2.8-8.301-3.5-10.699.3-4.5 7-11.201 9.603-18.301 12.2-2.102 2.103-2.9 5.103-4.4 7.603-11.1 18.197-19.199 37.5-18.899 59.3.102 5.8-2.698 14.2 4.399 16.397 7.601 2.303 11.7-5.197 15.7-10.8 5.8-8.3 10.899-17.2 18.2-24.7 1.6 2.5.6 4.5.398 6.4-1.301 13.5-1.5 27.2-2.601 40.7-.8 9.7 2.8 12.398 12.5 11.8 5.8-.3 10.898-2.5 15.8-5.6 24.4-15.5 46.801-33.5 67.5-53.7 2.2-2.2 4.602-2.5 7.102-3.4 6.801-8.6 14.199-16.8 19.801-26.3 19.301-33 38.6-66.1 58-99.1 14.1-24.103 28.301-48.302 42.5-72.302 5-8.398 7.199-9.101 16.398-6.301 2.9.9 5.699 1.9 8.5 2.9 20.802 7.1 41.602 14.1 62.4 21.2 1.899.897 4 1.397 5.199-.9-.602-.898-2.4-2.8-3.5-4-8.9-10.5-14.9-17.3-27-28.1-27.801-25.301-57.301-46.7-89.9-65.103-5-2.5-8.897-5.1-11.5-8.1-1.897-2.103-7.6 0-10.8.897-21.399 9.603-45.8 24.5-64.399 38.803-3.603 5.509.397 9.407 2.995 13.509zm295.802 161.5c-17.2-19.9-38.4-33.803-55.302-54-8.601-10.303-16.101-21.9-31-26.4-25.399-7.7-50.399-16.898-75.399-26-6.199-2.3-17.199-15.2-24-15.2-10.799 18.302-24.5 43.4-35.299 61.802-7.701 13.198-16 27.301-23.602 40.601 1.5 3 5.5 10.1 9.898 11.8 4.899 1.9 5.5-3.6 7.701-6.2 1.198-1.397 1.898-3.1 2.698-3.6 0 5.5-11 7.3-5.899 15.8.5.8 1.102 1.5 1.899 2.101 4.4 1 6-2.898 8.4-4.5-2 3.899-7 7.5-3.5 13.302.698.6 1.5 1.1 2.399 1.5 5.698.6 9.299-3 13-6.603-2.701 5.103-5.302 10.2-7.602 15.4-1.2 2.8-2 5.6.5 7.899 2.5 2.398 5.5 2.198 8.398.801 4.899-2.4 8.899-6.103 12-10.7-2.601 3.6-6.198 6.5-7.799 10.7-1.399 3.5-1.302 7.1 2.198 9.8 3.4 2.7 5.7.2 8-1.5 5.7-4 11.101-8.4 15.802-13.5-1.5 1.7-2.701 3.5-3.602 5.7-1.3 3.3-1.8 6.5 1.399 9 3.7 3 6.398.199 9-2 3.801-3.2 6.898-7 8.101-9.103-1.398 2-4.398 5.9-5.5 10.9-.8 3.398-.2 6.898 2.899 8.898 2.601 1.699 5.301.102 7.7-1.5 8.101-5.5 15.5-11.801 21.3-19.801.301-.397.301-.699.101-.8-1.2-.5.899-.7 0 .4-5.7 7.8-9.398 16.5-12.8 25.397-.9 2.4-1.4 4.9.1 7 .4.5 1.802 1.802 3.302 1.2.898-.398 1.198-.5 1-.398-1.302.801-2.802 1.198-4 2.101-7.302 5.8-12.602 13.2-17.302 21.3 0 .101 0 .101-.198.2 3.698-7.9 11.799-14.3 9.101-24.7-.7-.7-1.5-1.3-2.5-1.6-5.2-.801-7.601 3.397-10.7 6.1-13.602 12-31.898 43.9-41.898 42.7-.5.8-.802 1.2-.802 2.2.302 3.3 1 65 24.9 81.3 2.6 4.2 6.8-7.7 8.698-12.5 2-4.9 3.602-10 5.102-15.101 10.8-35.399 24.6-69.602 44.699-100.899 11.699-18.2 24.398-35.7 33.601-55.3.8-2 2.899-1.603 4.399-2.5l.699.1h.699c9.301-.1 9.5-8.8 12.801-14.2 6.899-11.397 9.801-12.1 19.602-3.6 24.699 21.6 48.5 44.2 72.5 66.5 6.3 5.899 12.898 11.5 19.5 16.899 5 4.101 11.5-5 10.3-11.102-11.601-15.7-23-31.6-36.3-46-4.892-1.696-6.194-6.397-9.392-10.094zm-206.302 103.098c5.101-7 8.101-15.2 12-22.9 1.601-3.197 3.601-7-.101-9.8-3.699-2.8-7.199-.8-10.899 1.4-9.198 5.7-12.899 15.6-19.198 23.6-.102 0-.5.7-.5.7s.398-.7.398-.6c6.399-9 12.199-18.603 17.5-28.4 2.199-4.1 5.699-8 3.899-13.4-.7-.8-1.3-1.5-2.2-2-4.899-1.6-8.3 1.303-11.6 4-6.602 5.5-12.2 12.103-16.2 18.4 6.601-8.1 12.301-18.2 19-27.5 2.301-3.2 3.101-6.8 0-9.9-3-3-6-1.1-8.8.7-9.9 6.2-18.7 13.5-24.802 23.9-.1.1 0-.101 0 .1 9.102-12.5 15.4-26.7 22.102-40.7 1.8-3.697 3-8-1.399-10.6-4.101-2.3-7.101.3-10.101 3.5-2.5 2.6-4.399 5.6-6.7 8.4 3.601-6.2 9-10.801 13.301-16.5 2.801-3.7 1.301-6.603-1-8.9-3.101-3.1-6.199-1-8.699 1.5-3.301 3.3-10.101 2-15.699 2.8-8.101 11.4-14 20.9-21.7 32.603-9.3 10.5-11.199 24-13.397 32.8-7.603 30.397-5.201 63.1-10.4 94-1.1 6.397-2.301 12.897 0 20.6 5.801-4 9-9.198 13.301-13 6-5.397 9-12 10.3-19.897 1.601-9.9 3.7-19.603 5.899-29.4 2.5-11.1 5.601-22 9.9-32.4 1.3-3.1-16.802 53.7-18.102 84.603-.5 12 1 27.7.5 39.7-1.101 25.6 3.102 59.6 7 85.197 4.5 30.103 12.699 59.2 21 88.303.399 1.397.602 3.397 3.602 3.1 2.1-6.5 1.398-13.6 2.398-20.398 6-41.899 16-83 26-124.102 4.699-19.398 11.102-38.398 17.301-57.398 2.699-8.102 2.699-15.102-1.801-22.802-7.301-12.5-10.699-26.5-11.801-40.897-.301-3.603-.199-7.301.101-11 .597-5.612 9.597-7.412 9.597-7.412zm-258.098 80.8c-24.699-16.7-51.5-29.2-77.899-42.6-1.899-.9-3.899-3-6.601-.5.7 3.899 3 7.2 4.9 10.6 13.198 24.3 26.6 48.5 39.8 72.8 2.101 3.9 6.398 8.303 2.898 12.803-3.898 5-9.3 1.6-13.8.1-13.898-4.7-27.601-9.7-41.5-14.6-2.301-.803-4.7-2.4-7.7-.2 2 2.8 3.7 5.2 5.5 7.5 18.2 23 36.5 45.897 54.7 68.8 2.102 2.602 4.199 5.2 5.8 8.102 2.102 3.698.5 6.801-3.398 7.698-3.5.802-7.3.7-10.899.5-14.301-.897-28.601-2.1-42.898-3.1-3.4-.2-7.102-1.5-10.7 1.8 4.398 5.4 9.8 8.5 15.101 11.8 6.602.4 12.102 3.603 17.699 6.4 21.301 10.3 41.9 22.2 64.801 28.7 2 .6 4.102 2.197 5.801.6-4.102-4.5-7.899-8.6-11.699-12.8-2.5-2.7-4.801-5.5-6.2-9-.601-1.603-1-3.3.101-4.8 1.5-1.9 3.7-1.803 5.399-.803 5.801 3.303 11.7 6.5 17.101 10.303 6.602 4.6 13.899 7.897 21.399 10.8 2.101.8 4.7 2.2 6.5.1 2-2.3-.399-4.3-1.601-6.1-1.301-1.9-2.801-3.8-4.601-5.3-15.198-12.603-28.198-27.303-41.198-42.103-6.302-7.2-11.802-14.897-17.102-23.897 6.3-1 9.8 1.8 13.398 3.897 17 9.9 35 18 52.5 26.9 2.801 1.4 5.5 3.9 10.5 1.8-19.199-21.5-37.299-43.3-52.398-67.5 4.5-2.2 7.5-.1 10.602.8 17.1 5 34.5 7.603 52.299 5.603 12-1.303 15.201-4.5 17-15.603-2.699-2.6-5.299-5.1-8-7.7-21.705-14.001-44.105-27.3-65.605-41.8zm563.9-362.701c4.6.303 8.898 1.5 12.898 3.603 2.899 1.5 5.699 3 9.102 2.397l-.102.103c10.699.397 20.602 4.397 30.699 7.5 14 4.3 20.701 13.27 34.4 18.368-2.199-2.1-3.545-4.836-5.846-6.734-25.899-20.7-49.454-37.436-79.754-51.036-68-30.5-139.2-42.5-213.5-36-1.801 1.2-3.898.7-5.801.8-3.199.103-7.399-.897-7.899 3.8-.5 3.803 3.399 4.4 6 5.603 7.399 3.2 15.601 3.397 23.302 5.6 48.898 13.4 97.5 27.5 141.8 53.303 2.5 1.5 5.398 3.897 6.801-1.2 4.899-2.2 9.699-1 14.6.2 11.9 2.8 23.802 5.699 35.802 8.397 3 .7 6.398 2.301 9.8-.8-2.403-6.203-9.302-8.503-12.302-13.904zm-538.9 191.701c4.5-10.8 6.9-10.8 15.101-2 6.399 6.8 9.699 6 13.302-2.897 2.698-6.7 3.898-13.9 6.698-21.4 3.802 5 5.399 10.102 8.101 14.7 2.201 3.8 4.201 8.397 9.201 7.897 4.698-.5 6.5-5.197 7-9.3.698-4.8 3.698-7.397 6.6-10.397.101-3-.399-6.103-1-8.9-5.5-25.398-12.199-50.7-7.5-77.1.301-1.603-.301-3.303-.899-4.803-1.3-3-3.5-2.3-5.8-1.6-23.2 20.4-46.102 41.1-60.4 69.3-2.398 4.7-5.199 9.2-7.699 13.9-12.801 24.5-23.601 49.7-29.899 76.7-.3 5.6-.699 11.3-.899 16.897-.101 2.603-.601 5.7 2.602 6.802 2.5.898 4.398-1.102 6.101-2.699 1.199-1.2 2.399-2.4 3.199-3.801 3.301-6 8.2-10.399 13.2-14.802 7.089-15.698 16.29-30.497 22.991-46.497zM1960.265 859c.601-.7 1.101-1.7-.698-3-15.602 8.697-31.602 17.5-47.5 26.397-3.102 7.603-6.7 15-9.302 22.8-2.899 8.603-6.198 17.5-3 26.9 20.201-24.4 40.302-48.799 60.5-73.097zm-84.198 145.798c-1.5 6.1 1.398 10.1 7.898 11.6 5.699 1.3 10.199-.897 14.699-3.897 11.4-14.4 21.301-29.9 30.9-46-14.4 4.397-28.102 7.8-41.4 14-7.899 5.396-10.097 15.896-12.097 24.297z"/><path id="sd1" fill="#29242A" d="M1064.046 568.714c5.101-.7 10.5.5 15.899-1.397-1.899-4-5.399-4.7-8.199-6-12.101-5.5-24.301-10.803-36.5-16.2-1.5-.7-3.2-1.103-4.601-2-3.602-2.103-3.602-4.3.2-6.603 4.6-2.8 9.8-4.197 15.1-5.197 15.4-2.9 30.801-5.7 46.2-8.7 4.8-.9 9.8-1.5 14-4.7-1.602-3.6-4.899-3.898-7.399-5.398-18.601-10.699-35.801-23.199-51.2-38-1.699-1.602-3.3-3.302-4.601-5.199-1.5-2.2-.5-3.9 2-4.4 2.301-.398 4.601-.5 7-.5 24 .602 48-1.3 71.899 1.7 4.801.6 9.801 1.1 15.5-1.601-11.899-14-28-21.802-42.699-34.399 39.101-6 76.601-5.802 115.398-7.7-16.396-22.104-37.896-38.904-51.196-61.904 2.1-2.897 4.1-1.7 5.898-1.1 10.102 3.3 20.199 7.1 29.399 12.397 10.2 5.803 21.2 9.7 31.398 15.4 2.2 1.2 5.302 3.3 7.302.9 2.3-2.603-.9-4.803-2.5-6.7-7.2-8.8-14.5-17.4-21.802-26.103-5.1-6.197-10.3-12.3-13.1-20-1-2.697-2.699-5.8.1-8.3 2.302-2 5.102-.8 7.602 0 13 4.103 26 8.5 38.2 14.8 17.198 9 35.3 15.803 52.8 23.9 2.601 1.2 5.3 2.9 8.601 2.3 2.3-2.3.399-4.397-.5-6.3-5.398-11.1-11.101-22-16.5-33.1-10.7-21.803-21.398-43.7-29.5-66.7-.398-1.3-1.101-2.4-1.398-3.7-1.102-4.5.1-6.3 5-5.9 6 .5 11.8 1.9 17.698 2.9 4.899.9 9.7 2.4 14.802 1.3 10.3 6.3 19.1 14.4 28.198 22.2 26.2 22.2 51 45.9 71.5 73.7 2.399 3.2 4.802 6.397 6.7 9.897 3 5.4 1.699 7.4-4.101 7.303-.7 0-1.301-.103-2-.2-33.399-4.5-64.102 4.397-93.102 20.1-37.398 20.2-68.5 48.103-97.101 79.103-26.199 28.5-49.899 58.897-71 91.397-2.6 4-5.3 7.7-10.6 8.103-17.9 1.6-35.802 3.3-53.802 1.7-1.792-.099-3.391-.699-4.993-1.099zm136.902 296.799c-7.301 13.803-19.899 14.803-33.399 13.9-13.698-.9-26.801-4.6-40-8.3-3.601-1-7.5-2.2-10.101 1.3-2.801 3.8-1.1 7.4 1.601 10.8 6.199 7.8 11.199 16.603 17.5 24.3 8.399 10.303 15.699 21.603 23 27.9-15.899-8.2-35.198-17.9-54.301-28.1-.897-.5-1.8-.801-2.8-1-3.399-.9-6.801-.801-9.101 2.199-2.5 3.198-.5 5.898 1.399 8.698 1.5 2.2 3 4.4 4.5 6.603 15 21.397 33.5 39.699 53.398 58.8-12.8-5.7-22.3-13.9-33.398-19.2-3.801-1.8-8-2.7-11.2.5-3.5 3.4-3.3 8.1-1.198 12.1 2.898 5.603 6.3 10.9 12.398 13.7.3.103.3.4.199.603-.899 1 1.301.5-1.801-1.603-18.601-7.7-38.799-17.8-59-27.897-3.299-1.603-6.5-3.603-10.101-4.303-3.399-.697-7-1.1-6.601 4.303 2.7 2.397 5.301 5.1 8.2 7.3 23.199 17.397 46.601 34.5 70.601 50.7 31.199 21.1 62.8 41.5 96.699 58.1 6.899 3.4 14 6.2 21 9.2 4.601 1.897 7.699.3 9.199-4.5.5-1.603 1.101-3.103 1.5-4.7 9.601-36.5 15-73.7 19.2-111.1.699-6.2-.7-11.9-4.301-17-6.199-8.7-11.699-18-18.8-25.803-12.5-13.897-19.9-29.697-21.103-48.3-6.89-5.499-14.189-9.599-23.189-9.2zm32-62.299c9.601-24.6 22.301-47.5 37-69.397 6.101-9.103 13.301-17.5 18.601-27.103-3-2.397-5.899-2.5-9 0-10.601 8.603-21.601 16.603-31.698 25.8-11.2 10.103-23.802 18-36.2 26.4-2.7 1.8-5.8 3.3-9 4.2-8.3 2.399-12.602-.8-11.602-9.3 1.802-15.5.5-31.301 4.102-46.603.601-2.698 1.898-5.8-1.102-8.8-5.6 1.8-9 6.3-12.398 10.7-5.8 7.7-11.102 15.7-16.8 23.5-2 2.8-3.602 7.7-7.9 6.2-4.1-1.5-2.5-6.4-2.399-9.9.601-16.6 5.5-32 12.899-46.7 2.801-5.6 6-11.1 6.801-17.6.199-.5.3-1 .5-1.5 0-1.1-.398-2.1-1.301-2.8-1-.4-2.1-.5-3.199-.3-6.7.698-10.5 8.1-16.898 8-5.5-.103-8.602 2.198-11.7 5.8-4.602 5.398-5 13.898-13 16.6-8.102.3-8.5 10.9-15.899 12.3-2.2-8.1-2.2-8.1-6.5-10.198-1.101 3.5-2.301 7-3.2 10.5-5.3 21.398-7.6 43.198-9.8 65.101-1.301 12.5-1.898 27.3 8.699 33.6 28.601 17.103 56.5 35.2 84.699 53 2 1.2 4 2.4 5.801 3.9 5.301 4.5 2.601 1.6 1.9 2.3-2.4 7.4 3.398 9.9 5.898 5.7.602-1 .602-.9.899-1 8.3-.3 14.601 3 22.8 9-4.405-24.798-.003-48.298 8.997-71.4zM1779.75 617.75c-28.532 12.57-65.504 54.564-83.303 80.564-6.699 9.699-16.1 14.397-27.399 16.397-6.601 1.103-11.398-3.3-14.398-10-4.301 3.802-4.801-.897-8.399-5.198-2.5-3-4.101-5-6.7-7.899-4.101 0-5.601.399-8.3-2.101-18.101-16.102-41.601-29.302-59.2-46-13.198-12.602-27-24.602-40.601-36.802-6.1-5.397-7.8-5.198-12.199 1.9-5.601 9-12.301 19.5-16.898 29.1 3.496 3.702.296 3.402-2.004 7.604-2.9 5.197-7.9 9.6-10.602 14.897-3.7 7.3.903 5.762 8.403 9.361.602.3 4.296.139 4.896.438 65.787 17.787 141.665 27.645 191.454 73.819 9.698 4.1 8.992-10.602 15.391-19.302 14.899-20.101 10.667-20.157 19.655-41.518l33.954-44.264s26.618-18.891 35.75-15.5c24 8.912 28 40.75 28 40.75l25.42 92.888s-10.419-115.992-21.37-136.888c-7.279-13.885-39.745-7.447-51.55-2.246zm-319.102-221.237c-16.899 2.603-33.8 5.2-50.602 7.9 12 0 23.802.8 35.602 3.398 46.801 10.302 92.101 25.602 136.301 43.899 7.6 3.2 15.6 5.7 22.399 10.7 8.398 2 16.698 4.1 25.101 5.9 8.1 1.697 16.199 3.897 25.3 3.6-2.5-5.9-6.898-7.1-10.5-9.4-5.5-4.3-11.601-7.697-17.8-10.897-45.701-23.301-94.301-38.102-144.101-49.4-3.399-.8-7.2-.8-9.802-3.897 2.302-2.603 5.302-2.303 7.602-3.603-6.5-.7-13 .8-19.5 1.8zm-186.401 77.901c3.5 1.4 6.3 3.7 8.3 6.9 14.102 22.197 29.2 43.8 37.9 69 4.399 12.897 9.6 25.5 13.3 38.697 1.399 5.2 2.5 10.803 6.8 15.5 2.5-3.897 1.2-7.1.7-10.3-2.101-12.1-4.601-24.2-6.398-36.397-5.302-35.2-17.2-67.603-39.5-95.803-.4-.5-.802-1.1-1.102-1.6-7.399 3.703-13.899 8.503-20 14.003zm637.919 420.783c1.301-4.197 4.199-8.697-.1-12.897-6.5-4.5-7-5.3-4.102-12.9 5.8-15.198 12-30.3 17.899-45.5 1.101-2.897 3.2-5.8 1.898-9.198-3.898-.102-5.6 2.698-8 4.398-13.084 5.597-24.212 15.914-23.811 32.414.2 9.5-3.382 10.687-5.119 24.32-7.698 12.897-1.909 35.667-7.969 52.466.601 10.8-14.515 26.75-19.114 36.45-1.5 3.197 5.015.447 6.316 5.147 9.898-12.7 19.8-25.3 29.8-38 3.102-12.5 8.401-24.3 12.302-36.7zm-697.919-267.184c.399 4.7 3 7.803 7.101 10.2 2.5 1.5 4.899 1.7 7 .3 2.899-1.897 2.801-6.6 2-8.1-1.5-2.7-1.301-7.5-6.101-7.9-1.601-4.1-2.2-8.397-1.7-12.8 2.7-24.8 3-49.897 6.9-74.6 1.399-8.9 2.899-17.8 2.8-26.8-10.2 7-19.101 15.5-28 24.1 1.602 3.8 1.602 7.7 1.102 11.8-2.302 18-1.2 35.8 3.698 53.4 2.5 9 4.7 18 7.102 27-.801 1.101-2.001 2.203-1.902 3.4zm660.82 357.084c-4.4 1.5-19.961 4.657-19.862 9.258-12.704 20.395 5.655 32.525 6.155 48.025.101 2.103 5.891 19.119 12.805 6.517 7.899-12 17.199-23.6 24.5-36.5-2.301-.1-4.601-.1-6.899-.3-9.399-.8-11-2.8-8.801-11.8 1.5-6 3.399-13.9 5.101-19.9a662.17 662.17 0 0 1-12.999 4.7z"/><path id="hl1" fill="#49404A" d="M1786.625 493.5c-2.302 0 3.121 3.014-.178 3.014 4.301 8.2 13.178 12.684 17.178 20.486-2.2 1.5-3.577-2.786-5.478-3.486-13.102-5.5-26.199-11.3-39.399-16.8-3-1.3-6.2-2.397-9.5-2.897-4.398-.603-6.101 2.1-4 6.199 2.3 4.398 6.3 7.5 9.8 11.198-2.6 2.7-4.698.7-6.6 0-12.4-4.8-24.801-9.5-36.5-15.8-2-1.1-4.2-2.2-6.4-2.6-2.8-.603-3.6 1.3-2.6 3.6 1.5 3.5 4.399 5.8 7.199 8.102 1.301 2.198 3.301 4.5.601 6.898-4.301 3.2-4.101.602-6.398-.3-9.102-3.8-19-8.3-27.302-13.7-3.801-2.5-7.601-5.5-12.698-4.898.398 4.101 3.8 7.801 2.1 12.801-5-1.103-7.1-5.301-10.399-7.9-5.3-4.1-7.8-3.398-10.5 2.8-.5 1.2-.8 2.5-1.3 3.802-3.7 10.101-8.301 12.101-18.399 7.601-3-1.3-5.899-3.101-8.899-4.5-1.2-.601-2.601-.9-3.801.1-1.199 1-.899 2.4-.301 3.7.699 1.5 1.699 2.9 2.399 4.4 1 2.3 3.801 4.8 1.101 7.1-2.398 2-5.101-.3-7.301-1.7-4-2.397-7.8-5.1-11.699-7.698-2.898-1.899-5.699-4.399-10.398-4.399 1.5 4.399 4.898 6.3 6.898 9.3 1.301 1.9 2.5 3.9 3.5 6 .801 1.5 1 3.3-.5 4.602-1.398 1.199-3.199.801-4.699.101-5.199-2.399-9.699-5.8-14.101-9.3-4.899-4-9.899-7.801-17.699-11.7 5.3 9.2 11.699 14.899 16.8 21.899-6.601-.199-40.8-14.199-48.199-19.602 3.699-3 8.601-.1 12.5-2.8-.301-3.8-5.2-2.2-6.5-5.7 5.3-.7 10.8 1.7 16.601-1.6-5.601-5.103-13.5-4.9-20.301-9.801 17.7-4.802 34.7 3.801 51.602-1.602-2.899-7-10.899-7.1-13.602-14.3 11.5-2.3 21.899 4.8 33.801 2.8-3.899-5.5-10.301-6.7-13.399-12.5 4.801-3 9.899-1.5 14.5-2.1 1.7-4.603 5.2-3.9 8.899-3.103 10.101 2.103 20.301 4.103 29.5 7.302-1.399-.699-3.899-1.302-3-4.5 3.399-6.802 9.101-7.302 15.699-5.699 12.899 3.1 25.801 6.3 38.5 9.6-2.601-3-6.5-5.2-7.5-9.6a5.911 5.911 0 0 1 .602-3.2c2.601-3.7 6.101-2.601 9.601-1.8 5.8 1.3 11.3 3.897 17.3 4.6 1.103.2 2.2.5 3.301.7 25.699 3.6 37.593 14.834 58.294 29.034 3.389 2.694 7.972 5.148 11.274 7.846zm-422.277 245.013c9.6-9 16.5-21 29.6-28.897-.699 7-3.801 11-5.801 15.397-1.899 4.303-7.399 10.103-5.101 14.803 4.7 3.397 10-2.603 12.302-5 12.198-12.902 22.899-27.303 37.1-38.303-3.699 11.4-9.699 22.103-12 34l-.1-.1c13-14.9 27.1-28.9 39.398-44.9-3.801-1.397-5.301 4.103-9.101 1.2 3.601-10.897 9.898-21 12.7-34.6-11.9 8.3-19.302 18.399-31.802 24.1 1.399-10.5 7.899-17.7 8.899-28.8-8.399 7-13.301 15.2-21.899 20.5 0-7.4 7-11.7 5.302-19-5.9 1.9-9.302 6.3-13.5 9.2-4.4 3.1-8.102 7.5-15 9.8 2.198-7.8 7-12.3 9.8-17.8.7-1.5 1.898-3.2.601-4.601-1.801-1.899-3.801-.5-5.301.698-2.6 2-5 4.4-7.6 6.5-2.7 2.2-5.102 5.2-9.2 5.4-1-4.101 1.601-6.7 2.8-9.601 1.9-4.602 4-9.199 5.801-13.801.699-1.801 1.602-4-.699-5.301-1.699-.898-3.101.5-4.399 1.602-4 3.398-7.399 7.699-12.699 9.5 1.5-3.301 3-6.5 4.399-9.801 1-2.301 3.601-4.898.899-7-2.2-1.801-4.101 1-5.899 2.102-2.5 1.5-5 3.1-7.5 4.699l.101.101c2.5-8.3 9.899-14.2 12.601-25-7.601 4.1-11.199 8.899-15.199 13.2-2.5 2.699-12.601-.2-15-3.7-.199.3-.399.7-.5 1.1-.301 1.103-1 1.9-1.801 2.603-4 6.698-7.899 13.5-11.899 20.198 2.7 2.302 12.7 4.399 15 2.899 2.301-1.6 3.801-4.5 8.101-4.8-5.801 10.5-13.699 19-17.801 31.2 10.4-3.102 12.801-14.2 22.4-17.602-.2 6.301-3.4 10.301-5.5 14.602-6.9 14.398-14.802 28.3-20.4 43.199 6.801-4.801 12.101-11.301 18.101-17 5.7-5.399 11.7-10.399 19.102-13.699-7.102 13.8-16.3 26.1-22.102 42.8 5.899-3.3 8.602-7.101 11.899-10.101 6.801-6.199 12.101-14.199 21-18-1.1 4.5-3.699 8.398-5.899 12.398-5.904 10.807-11.805 21.409-14.204 33.606zm237.698-96c-26.601-33.697-56.5-68.897-83-102.697-3.3-4.2-7.5-6.303-12.3-8-24.5-8.4-49-17-73.5-25.5-12.399-4.303-22.301-2.7-28.602 8.6-.3.602-.601 1.2-.8 1.8 2.899 5.103 16.101 13.9 21.199 15.7 27 9.4 54 18.9 81 28.3 5.101 1.802 10 3.603 13.699 7.802 5.801 6.398 11.7 12.698 17.5 19.101 18.5 20.5 36.899 41 55.301 61.5 1.601 1.8 8.699-4.3 11.199-4.2-.594-.705-.995-1.603-1.696-2.406zm-393.299-15.5c-.601 2.603-.801 5.303-1.7 7.803-.898 2.397-3 2.8-4.6.697-1.601-2.1-2.801-4.5-4-6.897-2.5-4.7-4.7-9.603-7.5-14.103-2-3.3-4.301-3.1-5.801.2-1.102 2.4-1.699 5-2.5 7.603-1.699 5.697-3.199 11.6-5.199 17.197-1.5 4.2-3.5 4.303-6.4.803-2.1-2.603-3.698-5.603-5.8-8.103-4.2-5-7.2-4.7-10.899.9-.699 1.1-1.301 2.3-1.899 3.5-7 15.899-14 31.7-20.899 47.6-1.5 3.4-2.601 6.9-1.101 10.603 4.699-5.4 9.399-10.803 14.101-16.2 3.801-3.603 7.801-7.3 11.801-10.5 1.899-1.5 4.101-2.9 6.301-4.5 2.898-2.103 6-3.9 9.699-1.103.601.7 1.399 1.303 2 2 .5.803 1 1.7 1.699 2.5 4.601 5.9 5.601 5.9 10.101-.197 1.801-2.4 3.2-5.103 4.899-7.5 4.301-5.9 6.2-6.103 11.899-1.2 10.899 9.5 10.899 9.5 13.699-4.7 1.801-9.3 3.899-10.398 13-6.8 5.899 2.3 11.602 5.1 17.5 7.2 5.801 2 7.899.6 9-5.5.899-4.603 1.102-9.2 1.801-13.9.601-4.1-.801-8.6 2.199-12.1 3 .197 3.801 2.197 4.899 3.8 1.899 2.8 3.5 5.7 5.5 8.397 1.899 2.603 3.399 6.803 7 6.4 4-.4 3.699-5 4.601-8 1.801-5.7 3.102-11.6 4.899-17.3 2.399-7.9 4.301-8.4 11.301-3.7 3.601 2.4 6.899 5.3 10.5 7.6 4.601 2.9 6.699 2 7.199-3.397.5-4.603.101-9.3.399-14 .399-7 2.101-7.8 7.801-4.3 3.399 2.1 6.699 4.3 10.101 6.397-6.101-16.6-16.601-30.7-25.399-47-3.399 4.5-2.399 8.3-2.601 11.8-.301 6.303 0 12.7-.5 19-.5 5.303-2.801 6.303-7.399 3.603-3.699-2.2-7.101-5-10.801-7.2-5-2.898-7.199-2.1-8.8 3.4-1.301 4.5-1.7 9.197-2.801 13.697-1.5 6.2-3.399 7-9.199 3.603-3.7-2.2-7.101-4.9-10.899-7-4.601-2.5-6.601-1.3-7.301 4-.301 2-.301 4-.101 6 .399 5.3 1.199 10.6 1.301 15.897.101 3.9-1.101 6.9-6 4.4-1.801-.9-3.601-1.8-5.301.2-2.199 2.6-3.301.5-4.399-1.2-2.5-3.7-4-8.3-8.101-11.4-1.601 2.103-1.399 4.2-1.699 6.103.101 3.5 2.101 7-.101 10.897-4.5-1.697-5.899-5.6-8-8.8-3.5-1.599-6.399-2.099-7.5 2.8z"/><path id="sd2" fill="#524335" d="M1240.148 438.414c-1.8 6.7-2.899 17.1-6.602 22.5-4.601 6.8-7.898 13.8-7.198 22.3.398 4.5 6.8 13.603 10.898 16.2-22.601 19.6-56.801 54.8-78 75.9-5.5 5.5-17.898 1.897-24.601 3.897-2.699-2.5-5.101-11.397-4.101-12.897 27.101-40.103 69.301-91.4 104.699-124.502 1.504-1.299 3.303-2.299 4.905-3.398z"/><path id="cl2" fill="#6D5946" d="M1237.448 437.814c28.601-29.198 68-50.101 106.601-62.5 20.899-6.698 42.101-7.698 63.5-2.301 4.302 1.103 8.699 2.103 9.899 7.801.601 3 4.4 18.899 1.5 19.802-1 .3-2 .5-3 .698-31.5 6.602-59.899 21-87.199 37.899-24.601 12.3-55.801 33.4-81.301 54.8-4 3.303-8 6.603-12 9.9-6.199 3.6-12.699-10.4-13.399-15.5-1.5-10.1-8.5-22.6-.698-31 5.597-6.097 10.597-12.999 16.097-19.599z"/><path fill="none" stroke="#000" stroke-miterlimit="10" stroke-width="6" d="M1502.848 636.714s-15.802 32.5-33.7 51.103c-17.899 18.6-43.8 91.1-43.8 91.1-4.602 6.5-14 46.5-14 46.5s-9.7-.7-16.2-11.7-13.102-57.3-15.102-74.3c-6.898 12 12.2 71 12.2 71-6.101 17-30.5 114.9-47.5 211.7-35.801-61.603-32-223.3-32-223.3s26.8-82.103 23-83.103c-3.801-1-24.7 79.2-24.7 79.2s-12.198 20-19.8 21.1c-7.301-27.8 13-128.197 13-128.197m183.8-20.304s159.601 29.601 206.454 76.319c12.7-.697 32-68.333 76-111.671 31-21.667 38.967-1.856 49.667 11.946 15.954 33.304 28.485 127.347 30.887 122.244 0 0 69.892-331.839-290.907-371.339 0 0-154.799-37.5-316 100.603-67.899 62.8-77.899 64.3-96.601 99.5-18.698 35.2-59 105.3-54.399 179.397-.101-2.197-.399 21.803-.399 21.803l101.601 64.598s-142-88.3-149-87.6c-7 .699 11.799 28.699 20.398 44.397 8.6 15.7 23.602 43.201 23.602 43.201s11.398 19.8-16.302 10-43.399-13.8-43.399-13.8-1.101 6.898 14.801 21.2c15.898 14.3 44.398 55.8 44.398 55.8s14.5 19.2-10.8 16.1c-28 .4-40.601-2.897-40.601-2.897s-19.399-3.5-4.899 7.397c14.5 10.9 146.2 112.603 200.2 129.103 17.3 4.8 16.1 5.1 19.199-18.4 3.101-23.5 17.101-83.5 16-96.398.398-3.199 3.601-11.802-11.801-31.602-15.402-19.8-35.801-40.2-33.301-94.2s67.898-138.8 74-146.699c6.102-7.898 68.2-113 79.602-132.5 11.398-19.5 32.398-54.898 32.398-54.898s3.5-10.8 20.5-5 66.7 22.7 66.7 22.7 16.6 2.897 23.698 10.3c7.102 7.398 134 169.7 134 169.7m274.023 107.88s-20.688 3.129-28.265 19.636c-6.833 17.833-.432 25.064-7.333 34.167-6.899 9.1-2.417 37.25-9.402 57.697-6.515 18.053-12.899 31.803-17.301 37-4.399 5.2 4.601 6.7 4.601 6.7s91.899-109.6 90.699-111.8c-1.199-2.2-40.399 19.8-46.199 22.8s-9.301-4.5-6.301-12.3 23.803-55.097 19.501-53.9zM1929.866 965s-71.168 23.402-72.866 26c-1.701 2.603-7.684 16.021-7.684 16.021l14.435 42.382s6.915 17.996 21.516-16.604c19.599-30.299 48.998-65.799 44.599-67.799zm-510.82-563.487s9-31.1-22.601-31.897c-31.6-.799-119-11.9-266 194.3-6.801 23.3 25.101 16 30.9 9.102m242.503-204.704s-113.5-166.801-274.102-190.398c-3.399 3.7 77.3 83.3 81 87.3 3.699 4 19.699 26.8-16.101 6.9-35.801-19.9-165.102-58.603-232.2-43-28.601 1.6-6.101 7.2 3.101 10.7 9.399 7.397 87.399 29.897 177.102 129.498 13.199 20.802 0 17-24.9 3.199-24.897-13.8-88-34.698-132-29.8-43.898 1.102-106.898-4.898-108-2.3-1.1 2.6 104.102 23.2 167.7 61.5 21.399 8.7 20.899 18-4.8 13-25.7-5-101.8-6.601-124.602 10.899-32.698 12.001-108.698 63.4-116.398 72.4s23-2.6 23-2.6 125-29.103 166-17.603c23.601 3.2 14.5 11.9 4 17.2-10.5 5.302-103.3 47.302-107.4 63.402.102 4.2 85.602-9 108.399.897 22.8 9.9 77.898 11.603 83.101 10.7 5.199-.897 50.699-3.7 50.699-3.7"/></svg>