<svg xmlns="http://www.w3.org/2000/svg" id="hair" viewBox="0 0 3000 3000"><path id="cl1" fill="#453329" d="M1878.526 661.677c-5.3 17.101-13.9 32.3-25.5 46-7.7 9.101-17.6 15.3-28.4 19.9-68.699 29.6-134.5 24.8-196.399-18-33.2-22.9-66.101-46.3-102-64.8-24-12.4-48.801-23-75.601-28.101-6.199-1.199-12.5-2.199-18.8-2.6-23.9-1.3-45.7 4.5-63.5 21.3-29.5 27.601-48.2 61-52.4 101.601-2.1 20.6 1.9 39.8 15.301 56.3 5.899 7.3 10.699 15.3 14.199 24 2 5 3.2 10.1 3.4 15.5.4 10.2-4.1 17.3-13.5 21.1-6.5 2.6-13.1 4.9-19.7 7.3-5.899 2.2-11.8 4.7-17.3 7.8-14.6 8.2-21.2 20.301-19.4 37.301 2.4 21.5 4.301 43.1 6.5 64.6 1.601 16.3 1.801 32.6 1 48.9-.3 6.199.7 14.6-5.3 17.199-6.6 2.801-11-4.8-15-9.199-14.6-16.4-28.7-33.301-43.3-49.801-16.5-18.8-34.5-36.1-55.3-50.3-18.601-12.7-28.765-22.327-51.065-26.527-9.2-1.699-11.383-1.549-12.483-11.148-.8-1.5-.128-7.802-.228-9.502-.101-11.3 6.193-6.367 17.193-4.667 25.7 4 37.982 7.245 63.583 11.545 17.199 2.9 34.399 5.7 51 11.5 4.199 1.5 8.3 1.3 12.1-1.4 1.5-1.199 3.1-1.399 4.8-.6 1.9 1.4 3.5 3.2 4.8 5.2 4 6.3 3 9.4-4.199 10-8.7.7-17.4 2.8-24.9.6 10.9 0 22.2 4.7 35.3 7.601-2.5-8.7-3.6-16.2-9.3-22.101-2.3-2.3-3.8-5.3-5-8.3-1.9-4.4-1.5-7.8 3.4-10.2 3.199-1.6 6.399-3.399 9-6.1 2.399-2.4 8.399-1.9 7.5-6.6-.7-3.801-5.801-3.9-9-5.4-2.101-1-4.2-2-6.101-3.4-5.6-4.5-5-6.5 1.8-10.2 8.4-4.5 16.601-9.399 26.5-13.6-6.8-5.8-14.699-6.9-21-10.9-3-1.899-7.1-3-6.8-7.399.4-4.601 4.101-6.5 8.101-7.7 6.399-1.9 13-2.8 19.5-4.5 2.199-.6 5.199-.6 5.6-3.3.4-2.601-2.1-4-3.9-5.4-8.199-6.3-16.399-12.6-24.1-19.399-2.9-2.601-6.7-4.9-4.7-9.601 1.7-4 5.7-3.399 9.2-3.8 6.4-.6 12.5 1.1 19 2-5.6-8.2-12.9-14.6-19.3-21.7-2-2.3-4.601-4.5-3-8.1 1.6-3.7 4.899-4 8.3-3.9 5.1.2 12.1 4.601 14.9-.2 2.899-5-4.2-9.6-6.7-14.5-2.601-5-5.8-9.699-8.8-14.5-4.101-6.5-3.801-11.899 3.699-15.699 6.101-3 5.801-6.601.801-10.5-10.7-8.301-21.601-16.2-33.9-25.5 7.4 18.1 14.9 34.1 20.9 50.699 1.8 5 3.899 10 4.8 15.2 1.3 7.4-2.4 11.2-9.5 9.3-12-3.3-23.8-7.3-34.4-13.899.101.2 0 .1.101.1 12.3 8.9 23.399 19 33.5 30.2 2.3 2.5 5.6 4.9 3.199 9.2-2.199 3.899-6 3.899-9.5 3.3-10.5-1.6-21.1-3.2-31.1-6 16.7 12.2 31.8 26.6 46.9 41 6.899 6.6 5.899 10.4-2.4 15.3-4.3 2.601-9.1 4-13.6 6.2-6.101 3-6.7 7.2-1.7 11.7 4.7 4.2 9.6 8.2 14.3 12.399 5.7 5 5.3 9.9-2.1 12-8.801 2.601-15.801 11.7-26.5 7.801-2-3.7-5-5.9-8.7-7.9-37.3-20.6-74.5-41.5-111.5-62.7-4.3-2.399-11-4.5-9-10.8 2.3-7.3 9.2-4.2 14.4-3.3 37.699 6.8 75.199 14.6 112.699 22.2 2.5.5 5.101.8 7.4 3.6-33.2-24.1-64.8-49-96.6-73.6-8.4-6.5-17.301-12.5-25.2-19.601-3-2.7-7.3-5.899-4.7-10.399 2.7-4.7 7.5-3.101 11.601-1.4 32 13.7 64.8 25.7 96.1 41.1 1.2.601-1.2 1.301-.2.4.2-.1 0-.4-.399-.6-4.5-1.7-8.301-4.5-11.4-8.101-19.3-22.6-41.4-42.399-62.1-63.6-6.301-6.5-11.9-13.4-17.7-20.3-2.101-2.5-4-5.101-1.101-8.301 2.7-2.899 5.601-2.399 8.801-1 1.199.5 2.3 1.301 3.399 2 25.101 16.4 50 33.101 74.5 50.301 2 1.399 3.7 3.199 5 4.699-7.7-10.5-11.899-23.199-17.399-35.1-12.301-26.6-24.301-53.4-35.4-80.5-.8-1.8-1.7-3.6-2.1-5.6-.7-3-.801-5.7 2.1-7.8 3.1-2.301 5.5-.5 7.8 1.3 18.101 14.7 36.7 28.8 54.5 43.899 3 2.5 5.5 5.7 10.9 6.9-4.9-18.2-9.7-35.8-14.8-53.2-5.4-18.6-10.2-37.3-15.601-55.8-.899-3.2-1.8-6.4-2.399-9.7-.9-5.6-4.5-12.7 2.899-15.7 6.5-2.6 9.4 4.5 12.8 8.4 14.601 16.9 27.9 34.9 42.2 52 7 8.4 14.101 16.9 20.7 25.6 2.5 3.301 4.6 6.7 5.7 10.7-8.9-24.2-11.9-49.8-17.7-74.7-1.8-7.8-3.5-15.6-4.5-23.5-.6-4.5-3.8-10.6 2.9-12.8 5.8-1.899 8.3 3.8 11.1 7.5 14.2 18.9 28.5 37.8 42.4 56.9 5.5 7.5 11.699 14.5 15.899 22.399-7.5-38.899-12.399-78.6-19.3-118-1-5.7-3.6-13.3 3.5-16.3 7.3-3 9.4 5.2 12.5 9.5 22.5 31 44.5 62.3 66.3 92.9-1.5-22-4.5-44.7-5.1-67.5-.101-3.9-1-8.7 3.5-11.101 5-2.6 7.899 1.7 10.7 4.601 23.899 24.899 48.1 49.6 68.8 77.3-8-9.2-12.3-20.5-17-31.5-5.2-12.3-10.9-24.3-15.3-36.9-1.101-3.1-2.7-6.199-.9-9.6.7-.9 1.5-1.601 2.5-2.101 6.1-1.1 9 3.801 12.2 7.2 17.5 18.301 34.7 36.9 51.6 55.7 24.4 27.3 49.7 53.8 73.8 81.4 2.4 2.8 4.9 5.5 6.2 9-9.2-23.2-17.3-46.9-25.3-70.5-6.4-18.9-12.5-38-19.4-56.7-.8-2.2-1.6-4.4-2.199-6.6-1.101-4.301-2-9.2 3.1-11.301 4.6-1.899 7.1 2.2 9.3 5.5 32.601 46.7 66.601 92.5 100.601 138.2 2.5 3.4 5.1 6.8 6.5 10.9-9.601-23.5-14.601-48.4-22-72.601-5.9-19.1-11.601-38.3-16.801-57.6-.699-2.6-1.6-5.1-1.699-7.8-.101-3.9.6-7.8 4.699-9 3.5-1 5.5 2.1 7.301 4.7 15.399 22.199 29.699 45.1 44.5 67.699 14.399 22 28.6 44.101 43.1 66.601-.5-3.101-1.6-5.5-1.7-8.2-.2-32.6-3.2-65.1-4-97.7-.1-5.3-2.2-12.7 4.7-14.6 6.7-1.9 8.5 5.7 11.1 10 20.4 34.399 41 68.6 61.301 103.1 2.3 3.9 3.6 8.2 4.5 10.101 1.3 3.399 2.199 1.399 1.1 2.1-.1.1-.3 0-.4-.3-3.699-8-2.199-16.7-3.3-25-2.2-17.5-2.9-35.2-4.2-52.7-.5-6.7 3.5-9.6 10.301-7.8 5.5 1.5 10.5 4.3 15.3 7.399 33.899 21.7 52.399 53 57.7 92.601 2.296 16.203 4.996 32.203 1.096 48.403zm-666.901 190.901c-22.399-3.2-44.699-6.5-67.1-9.7-3.1-.4-6.3-1.8-10.4.4 3.9 3.8 8 5.699 12.101 7.8 30.899 15.6 61.699 31.1 92.6 46.7 4.2 2.1 8.4 4.1 11.5 7.8.7-.7 1.4-1.3 2.1-2-8.8-7.8-17.5-15.601-27.199-24.3 9.6-3.4 18.6-.101 26.699-4.101-13.699-5.399-28.3-7.7-44.1-14.1 7.2-3.2 11.9-5.3 16.7-7.4-4.3-.399-8.701-.5-12.901-1.099z"/><path id="hl1" fill="#574134" d="M1637.426 656.378c-.7-12.3-1.4-23.9-2.101-35.4-.2-4-.8-8-.6-11.899.3-4.2 2.5-4.8 6-1.9 1.3 1.101 2.399 2.3 3.399 3.601 12.801 15.8 28.601 28.899 41.4 44.699 2.1 2.601 4.6 7.301 8.4 5.801 4-1.5 2.3-6.5 2.3-10-.101-13.301.8-26.7-1.101-39.9-.3-1.9-.8-4.4 1-5.6 2.7-1.801 4.301.8 5.801 2.399 14 13.9 27.8 27.8 41.8 41.7 2.7 2.7 5.2 7.8 9.4 6.4 5.1-1.7 3.199-7.5 3.1-11.5-.3-12.7 1.7-25.301 2.3-37.9.301-6.3 2.301-7.2 7.301-3.1 10.699 9 21 18.5 31.5 27.699 4.199 3.7 8.399 7.601 12.899 11 5.601 4.2 7.601 3.7 10.4-2.899 4-9.5 7.399-19.3 11.1-28.9 1.4-3.7 2.101-7.7 5.2-10.6 4.7 5.399 17.4 49.2 19.7 69.7-5.4-6.601-9.301-11.5-13.5-16.301-2.5-2.899-4.101-8.5-8.301-7.8-4.5.8-3.5 6.601-4.3 10.2-2.2 9.7-3.8 19.6-6.1 29.4-1.5 6.399-4.2 7-8.7 1.899-11.1-12.399-22.1-24.899-33.2-37.399-1.1-1.2-2.1-2.601-3.199-3.8-1.301-1.4-2.801-3.4-5-2.301-2 1.101-1.7 3.4-1.7 5.4 0 1 .1 2 .2 3 2.699 16.8.1 34 3 50.8.199 1 .1 2 0 3-.101 1.3-.2 2.8-1.5 3.5-1.801 1-3.2-.2-4.301-1.399-5.3-6-10.5-12.101-15.6-18.2-10.2-12.3-20.3-24.7-30.5-37-2.5-3-4.9-6.3-8.4-8-3.6 2-2.399 4.899-2.1 7.3 1.5 14.6.6 29.3.8 44 0 2.6.5 5.4-1.8 7.4-3 .6-4-1.9-5.4-3.601-12.899-15.2-25.8-30.5-38.699-45.8-1.5-1.8-2.801-3.7-4.5-5.3-2.301-2.2-4.5-1.7-4.9 1.5-.5 3.899-.5 8-.5 12-.1 10 0 20-.1 30 0 1.899.1 4.3-2 5.2-2.2.899-3.801-.9-5.101-2.301-9-9.8-17.899-19.699-26.8-29.6-7.8-8.7-15.4-17.5-23.3-26.1-6.7-7.3-9.101-7-14.801.5-.399.5-.699 1.1-1.1 1.6-5.2 7.1-6.4 7.3-11.7.6-13.399-17-26.5-34.3-39.6-51.5-7.3-9.6-14.3-19.3-21.3-29-1.5-2.1-3.2-4.399-4-6.899-.801-2.5 1-3.8 3.399-3.101 3 .9 5 3.301 7 5.5 9.5 10.301 18.9 20.601 28.301 31 7.399 8.2 14.5 16.5 21.899 24.7 5.101 5.601 6.9 5.4 10-.8 3.7-7.4 5.5-7.7 11-1.1 11.8 14.1 25.5 26.3 38.2 39.5 2.005 2.102 3.805 4.701 9.005 5.902zm-425.601 199.5c-3.6.5-8.6-1.7-9 4.4-.3 5.1 3.8 6.8 7.9 8 9.1 2.7 18.2 5.1 27.2 5.7-3.101-1.2-6.9-.601-10.5-1-3.7-.4-7.301.199-8.5 4.199-1.301 4.101 1.899 6.5 4.899 8 10.101 5.301 18.8 12.7 28.7 18.301 1.3 3.899-1.9 3.699-4 3.8-8.6.8-17.2 2.3-25.9 2.2-2.399 0-5.3-.9-7.3 2 1 .6 1.8 1.399 2.7 1.6 15.699 4.6 31.3 9.3 47 13.8 1.6.5 3.199.8 4.899 1 3.2.2 4.4-1.4 3.301-4.3-1.101-2.8-2.601-5.4-4-8-4.2-7.6-8.601-15-12.7-22.7-3.8-7.2-2.8-9.8 4.4-13.4 4.5-2.199 9.3-3.8 13.699-6.1 3-1.6 8.301-1.5 8.101-6-.2-3.6-4.9-3.9-7.801-5.3-4.199-1.9-8.6-3.5-12.899-5.4-1.801-.8-4-1.6-3.9-4 .1-2.3 2.3-3.1 4.1-3.899 3.4-1.5 6.801-2.801 10.2-4.2 5.9-2.4 11.8-4.7 17.5-7.3 3.4-1.5 3.601-3.801.3-5.9-2-1.2-4.1-2.3-6.199-3.2-6.301-3-12.7-5.8-19.101-8.8-1.5-.7-3-1.7-2.5-3.8.4-1.4 1.801-2 3-2.3 8.4-2 16.9-3.801 25.301-5.9 3.399-.8 7.399-.5 10.199-4.5-12-12.3-27.6-20.4-39.899-33.9 11.6-3.5 21.6 2.801 32.5.4-7.301-12.2-18.101-20.6-27.5-32.8 9.399.2 16.1 1.899 22.899 3 2.301.3 4.9 1.2 6.5-1 1.7-2.3-.1-4.5-1.3-6.4-5.7-9-11.6-17.899-17.2-27-7.199-11.5-6.899-12.2 5.2-17 .6-.2 1.3-.399 1.9-.7 6.8-3.1 7.199-5 1.3-9.5-15.7-11.899-31.4-23.6-47.3-35.3-2-1.399-3.9-3.899-7.301-1.899-.199 4.8 2.4 8.8 4.2 13 7 16.6 14.5 33 20.5 49.899 1.601 4.601 6.101 10.2 2.601 14-4.2 4.601-9.801-.5-14.601-2.1-11.7-3.9-22.5-10.2-34.8-12.2 3.8 4.1 7.4 8.5 11.5 12.4 8.9 8.5 18 16.699 26.9 25.199 1.8 1.7 4.5 3.2 3.5 7.5-7.5-.1-14.801-2.199-22.2-3.199-7.2-.9-14.2-4.301-23.2-1.601 5.3 4.601 9.6 8.3 13.8 11.9 13 11.4 26.101 22.6 38.9 34.2 6.1 5.6 5.5 8.1-1.7 11.7-2.1 1-4.3 1.8-6.399 2.699-4.9 2.101-9.9 3.9-14.601 6.4-4.199 2.2-4.3 4.2-1 7.7 1.301 1.5 2.9 2.7 4.4 4 5.5 4.8 11.2 9.399 16.5 14.399 4 3.9 3.6 5.801-1.7 7.9-6.2 2.5-12.5 4.4-18.8 6.6-3.3.801-6.5 1.601-9.8 2.4-4.297 1.401-8.697 1.702-12.898 2.302z"/><path id="sd1" fill="#372921" d="M1250.325 905.477c-35.8-7.5-71.8-13.399-107.8-20-10.8-2-3.826-4.427-14.626-6.228-11.4-1.899-21.788 3.313-23.487 14.813-3.101-12.4-2.422-32.685-3.021-45.284-2.7-66.4-1.891-129.029 8.134-194.602 7.9-39 18.374-71.678 35.7-112 53.1-91.699 130.5-149.7 236.5-166.5 23.699-3.8 47.6-6.1 71.6-6.7 19-.5 37.9-1.199 56.9-1.5 56-.8 110 9.5 162.3 29.301 54.6 20.6 105.6 47.6 151.3 84.2 14.601 11.699 28.2 24.399 39.9 39 12.6 15.6 21.3 32.8 23.7 53 3.6 30.199 2.399 59.8-9 88.399-3.7-25.7-4.601-51.8-13.301-76.6-9.1-26.2-25.899-46.2-49.6-60.601-2.3-1.399-4.6-2.699-7-3.8-6.6-2.8-8.7-1.7-8.4 5.5.801 15 2 29.9 3.101 44.8.8 10.301 1.899 20.601 2.8 30.801.2 2.3.4 4.6-1.6 8.3-14.101-21.601-25.801-43.4-38.601-64.5-12.8-21.3-25.5-42.7-38.399-64.3-3.9 2.899-3.101 6.1-2.9 8.8.9 19.3 1.6 38.6 3 57.8 1.3 17.3.2 34.6 2.6 51.8.301 1.9.301 4-2.8 6.101-17-22.7-31.4-47.4-47.1-71-15.801-23.801-31.2-47.801-47.801-71.101 1.9 17.3 7.9 33.4 12.5 49.8 4.601 16.7 9.5 33.301 14.301 50 4.699 16.5 9.399 33.101 12.8 50.2-42-51.2-80.1-105-119.6-158.1 15.1 49.6 32.8 98.3 48.8 147.6-.601.3-1.3.601-1.9.9-7.5-7.9-15.1-15.601-22.5-23.601-19.1-20.899-38.1-41.8-57.2-62.699-17.899-19.7-35.8-39.4-53.699-59.2-4.301-4.7-8.5-9.3-13.7-13.101 4 16.7 12.3 31.601 18.8 47.301 5.3 12.899 11.5 25.399 17.4 38.3-3 1.399-3.601-1.101-4.7-2.3-17.1-18.601-34.2-37.301-51.2-56.101-7.6-8.399-14.699-17.2-23.1-24.899-1.4-1.301-2.9-3.2-5.1-2.2-2.101 1-2.101 3.3-2 5.3.8 12 1.8 23.9 2.699 35.9.9 11 2.101 21.899 2.9 32.8.2 3.1 1.2 6.6-2.5 10.3-26.7-36.1-51.5-73.2-79.1-108.5-2.301 9.7 1 18.5 2.1 27.5 1.3 9.6 3.1 19.1 4.7 28.6 1.5 9.2 2.8 18.4 4.3 27.7 1.5 9.5 3 19.101 4.6 28.601 1.5 9 3.4 17.899 3.5 27-.8.3-1.5.6-2.3.899-23.2-31-46.3-62-69.5-93-.6.3-1.3.601-1.9.8 2.101 19 7.101 37.5 10.801 56.2 3.6 18.5 8.1 36.9 11.3 55.8-28.5-32.3-54.7-66.399-82.8-100.1-3.2 5.5-1.101 9.3-.2 12.9 6.9 25.1 13.9 50.1 20.9 75.1 4.3 15.4 8.899 30.7 13.3 46.1.6 2.2 1.8 4.4.1 7.2-4.3.5-6.899-2.8-9.899-5.2l-61.5-49.5c-1.5-1.2-2.601-3.1-6.4-2.8 18.6 44.1 37.4 87.6 58.3 130.6-17.3-7.6-31.7-19.8-47.3-29.899-15.5-10-30.6-20.601-46.6-30 13.5 19.8 31.3 35.399 47.899 52 16.601 16.6 31.9 34.5 48.9 51.1-10-1.6-18.601-6.399-27.601-10-9.3-3.8-18.5-7.7-27.699-11.5-9.2-3.8-18.5-7.5-27.7-11.399-9.101-3.9-17.9-8.4-28-9.801 42.899 35.101 87.1 68.301 132.399 103.301-7.199 1-12.3-.5-17.3-1.5-35.6-7-71.2-14.2-106.899-21.2-5.101-1-10.2-2.3-16.101-.2 5 3 10 6 15.101 8.9 34 19.1 68 38.1 102 57.199 3.399 1.9 7.6 3.301 7.199 8.5.601 5.801-4.1 6.301-7.8 7.9-5.1 1.7-10.2 3.3-14.6-1.8-.8-.9-2.4-1.3-4.3-1.2-15.101.3-29.801-3.9-44.801-5.2-5.899-.5-11.1-3.2-16.899-3.899-1.301-.2.5 1.699.199.399-.1-.6.2-.899.7-.7 2.2 1.301 4.6 1.7 6.9 2.9 27.8 13.6 55.899 26.4 82.199 42.9 2.101 1.3 4.301 2.8 6.801 2.699 8.201-.198 9.201 4.302 7.901 10.501z"/><path fill="none" stroke="#000" stroke-miterlimit="10" stroke-width="6" d="M1888.125 578.778c8.4 74-23.1 154-103.8 162.3-60.1 13.6-106.6 1.8-156.1-31.4s-118-72.8-160.2-88.8c-37.2-13.8-71.2-2.4-86.4 4.5s-50.5 31.5-62 90.1c-11.5 58.601 6.9 55.4 22.301 94.301 15.399 38.899.1 40.3-31.5 53.5-31.601 13.199-31.7 38.199-31.4 43 .3 4.8 7.9 101.8 7.5 113.6s-2 35.6-20.3 8c-44.301-56.3-87.4-111-161.4-130.1-12.7-112.301-16.3-321 98-431.801 114.3-110.8 271.7-98.399 271.7-98.399 292-4.9 406.1 174.899 406.1 174.899l7.499 36.3z"/></svg>