<svg xmlns="http://www.w3.org/2000/svg" id="hair" viewBox="0 0 3000 3000"><path id="cl1" fill="#F3D322" d="M1845.7 831.5c-8 22.8-16 45.6-24.1 68.4-1 1.2-.6 3-1.6 4.2.1.6-.1 1.2-.5 1.7-6.1-1.3-3.7-6.4-3.5-9.6 1.5-31.2 2.5-62.5 1.1-93.7-1-20.5-4.2-41-11.1-60.7-13-36.8-25.9-73.8-47-106.7-17.9-28-38-54.7-64.6-75.5-6.3-4.9-13.4-8.7-21.3-13.1 2.8 6.2 6.4 11.4 5.4 17.8-1.1 6.9-6.5 10.7-10.9 15.1-14.5 14.7-29.1 29.4-43.8 43.8-8.4 8.2-14.2 8.7-23.8 1.8-21.8-15.5-45.4-27.8-68.9-40.3-7-3.7-14.6-6.5-18.8-14.8-11 12.5-19 26-29 37.9-22.2 26.6-42.8 54.3-60.6 84.1-19.1 31.9-30.7 66.1-34.9 103.2-3.7 33.1-5.5 66.2-6.1 99.5-.6 30.6-2.9 61.1-2.8 91.7-.6 2.1 1.6 5.6-3 5.7-10.5-44.8-21-89.7-31.4-134.6-.8-3.6-1.3-7.2-.8-10.9s-.9-6.5-3.8-8.6c-4.2-3.3-4.4-7.9-4-12.7 1.8-23.2 3.2-46.5 3.4-69.7.1-13.1 2.9-25.8 3.6-34.6-2.9 21.1-11.7 44.9-17.3 69.5-8.7 38.3-19.4 76.2-22.4 115.5-1.5 19.8-1.7 39.8-1.4 59.7.4 25.6 3.1 51.2.3 76.7-.5 4.7 2.3 9.2 0 13.7-.1 1.3-.2 2.5-.3 3.8-1.5 1.1.2 5.1-3.7 4-9.3-44.9-18.7-89.8-28-134.7-4.4-21.1-8.8-42.3-13.3-63.4-1.1-5.2-2.1-10.5-6.7-14-6.6-5.4-4.9-13-3.9-19.6 1.5-10.6 1.1-21.3 1.4-31.9.8-25.2 2.2-50.5 3.5-75.7-.8 13.1-6.4 24.8-10.7 36.9-10.3 28.9-19.8 58-25.6 88.1-4.8 24.4-2.8 49.2-1.6 73.7 1.1 22.2 3 44.4 4.9 66.6 2.5 28.5 6.6 56.9 4.8 85.6-.2 3.5 3.6 8.8-3.1 10.6-9.5-8.7-16-19.5-22.2-30.6-20.1-36-45.3-80.9-56.9-120.2-5.9-19.8-12.2-39.5-14.9-60-5-36.8 4.5-81.3 12.8-117.2 9.1-39.2 31-75.1 52-109.5.5-.8 1.3-1.4 2-2.1 11.2-8.7 21.6-4.4 32.7-13.3 11-8.7 22.8-16.1 34.1-24.4 3.7-2.7 8.7-5.6 12.5-1 3.4 4 .2 8.3-2.6 11.6-2.8 3.3-5.2 7-8.2 10.1-7.1 7.5-14 15.2-20.2 23.1 15.9-9.8 30.9-21.3 47.1-31 4.9-2.9 10.7-8.7 16.2-3.7 6.1 5.6.3 11.8-2.9 16.9-4 6.5-7.4 13.5-12.8 19.2 11.5-5.8 21.5-13.7 32.5-19.9 3.2-1.8 6.3-3.7 9.8-5 3.5-1.3 7.3-2.4 10.1 1.1 2.6 3.3 1.7 7-.2 10.3-4.1 7.3-9.4 13.7-16.3 19.6 13.1-9.7 26.4-17.7 40.4-24.8 1.8-.9 3.7-1.6 5.6-2.2 3.3-1 6.7-1.6 9.4 1.2 3 3.2 1.8 6.9.3 10.3-2.1 4.6-5.2 8.5-8.5 12.3-4.3 5-8.8 9.9-12.6 14.8 9.2-7.3 20.4-12.2 30.9-18.3 3.9-2.3 8.8-5.3 12.8-1.1s.9 9-1.7 12.7c-6.8 9.8-12.9 20.2-21 29-.4.4-.8.9-1.2 1.4.4-.5.8-.9 1.2-1.4 9.6-12.6 23-21.1 34.9-31.1 1.8-1.5 4.6-2.5 5-4.7 3.2-16.7 18.3-25.9 24.9-40.5-5.3 1.5-9 6-13.8 8.4-3.4 1.7-7 3.1-10.3.5-3.9-3-2.6-7.1-1.5-11 1.5-5.4 6.3-9.1 8.4-16.1-12.7 5.2-24 9.9-35.1 14.9-6.1 2.7-12.3 5-18.6 7.1-4.5 1.5-9.5 2.5-12.8-2.2-3.4-5-1-9.6 2.4-13.6 3.6-4.4 7.6-8.5 12.1-11.9 5-3.8 9.5-8.2 14-12.6-15.3 5.3-28.3 15-43.4 20.3-4 1.4-8.9 4.3-11.9-.2-3.1-4.7.7-9.1 4.2-12.1 8.5-7.5 16.5-15.5 25.5-24.6-11.1 5.8-21.8 9.1-31.1 15.4-1.7 1.1-3.5 1.9-5.4 2.5-3.2 1-6.8 2.2-9.2-1-2.4-3.1-.8-6.6 1.2-9.2 7.2-9.3 15.7-17.1 25.7-23.4 2-1.2 3.9-2.5 4.7-2.8-23.8 14.4-50.9 25.3-77.4 37.5-7.6 3.5-14.6 7.9-20.9 13.4-3.3 2.9-6.6-6.6-11.6-11.2 2.6-5.2 7.3-8.6 11.3-12.5 20.8-20.8 43.5-39.3 68.7-54.5 61.8-37.1 124-37.9 186.7-2.2 27.1 15.4 51.1 35 73.1 57 10.3 10.3 12.3 10.2 20.2-1.8 11.9-18.1 24.5-35.7 39.2-51.7 12.5-13.6 26.3-25.5 42.3-34.7 22.2-12.7 45.2-16.1 70.1-7.6 45.8 15.6 81.8 39.7 117.8 71.9 8.3 15.8 23.5 38.9 29.6 53.8-7.4 3.4-8.5-3-10.8-6.6 4.5 9.3 9.1 19.2 11.9 29.9 1 3.8 2.2 8.5-2 10.9-4.2 2.4-7.5-.9-10.5-3.6-6.8-6.3-13.2-13.1-21-20.7.9 7.9 2.2 14.6 1.8 21.3-.3 4.3.2 9.5-4.6 11.2-5.2 1.9-8.8-2.2-11.6-5.9-7.9-10.7-16.3-21-21-31.9 2.9 4.2 5.1 10.3 5.6 17 .3 3.4.6 7.1-3 8.8-3.5 1.7-6.8-.3-8.9-2.8-8.4-9.8-18-18.5-25.4-29.1 5.5 8.1 7.6 17.6 10.4 26.8.9 3.2 1.4 7.1-2 9-3.3 1.8-6.5-.4-9-2.7-6.4-5.8-10.7-13.5-17.9-19.6.6 8.5 3.4 15.6 7.9 22.1 8.3 12.1 15.6 24.8 22.1 37.9 3.7 7.5 6.8 15.2 7.4 23.6-1-10.1-1.3-20.2-2.1-30.3-.3-4.1.4-8.5 4.9-10 5.1-1.7 8.1 2.1 10.3 6 5.2 9.2 9.6 19 16.1 28.5 1.2-6.1.8-12.9 8.4-14.3 7.1-1.3 15.3 4.8 22.8 17.2-2-7.4-3.3-14.6-2.4-22 .4-3.4 1.5-6.7 5.1-7.9 4.1-1.4 7.2.8 9.4 3.9 5 6.7 9.1 13.9 11.6 21-.3-5-4.9-12.6 2.7-15.8 6.8-2.9 10.2 4.2 13.7 9 2.3 3.1 4.3 7.1 9.5 5.2 4.1 13.4 5.6 27.3 7.5 41.1 7.9 54.9 8.1 110.1 5 165.4-1.5 26.6-3.3 53.2-6.8 79.6-7.6-1.3-7.6-8-7.8-13.1-1.9-57.2-13.5-113.4-16.1-170.5-.1-2.9-.3-5.9-2.2-9.3-.2-.4-1 1.4.1.6.3-.2.6 0 .7.7 3 17.7 3.3 35.6 3.9 53.5.4 10.9-.2 21.9 1.5 32.8 1 6.5 1.5 13.5-5.8 17.6-3.4 2.3-3.9 5.9-4.7 9.5-6.5 29.5-13 59-19.6 88.5-.6 2.6-1.4 5.1-2 7.7-7.7-1.4-6.5-7.9-6-12.6 2.1-21.6 2.2-43.2 1.6-64.8-1.3-42.6-5.3-84.9-15.8-126.3-5.3-21-13-41.2-21.9-59.1 3.9 27 7.4 55.8 10.5 84.7.2 6-.3 11.6-4.8 16zm2.1-307.4c-61.4-79-139.4-134.7-234.3-166.6-27.8-9.3-56.2-16.7-85.5-19.7-3.8-2.1-8.3.4-12.1-1.6-1.9-.2-3.8-.3-5.7-.5-2.2-.9-5-1.7-6.1.7-1.2 2.5 1.4 4.1 3.4 5.2 2.6 1.5 5.4 2.5 8.7 1.4.2 0-.2.1.1.1-7.7.7-15.6 1.2-23.5 2.4-14.1 2.1-28.2 4.8-42.3 6.8-3.8.5-8.8 2.2-8.3 7 .4 4.1 5.1 4.6 8.8 4.8.7 0 1.3.1 2 .1 32.3 1.3 64.7 4.4 93 2-5.2.7-14.5.4-23.8 1.5-11.1 1.3-22.7.2-32.9 6.2-1.6 1.7-2.6 3.7-1.9 6.2 1.8 2.8 4.6 3.5 7.7 4 23.3 3.4 47.2.8 70.3 6.9-14-3.1-27.7.8-41.6 1-4.2.1-8.6 1.2-12.6 2.9-1.8.7-3.6 2-3.4 4.4.2 1.8 1.7 2.8 3.1 3.6 1.8 1 3.8 1.1 5.8 1.4 14.4 2.7 29 3.3 43.5 5.5 15.7 2.4 31.4 4.9 44.6 5.7-13.7 1.5-29.5 6.5-45.6 10.3-2.6.6-5.1 1.7-7.2 3.3-3.7 2.9-3 5.5.9 7.7 2.1 1.2 4.5 1.3 6.8 1.3 19.9.4 39.9-.4 59.8 1.1-6.1.3-12.4-.1-18.4 1.5-3.1.8-7.1 2.2-7.2 6-.1 4.1 3.8 5 7.1 5.6 17.8 3.5 36.1 3.3 51.5 6.9-12.5 1.5-26.8 6-41.4 9.4-3.7.9-8.5 2.5-8 7.5.6 5.5 5.6 5.8 10 6 4 .2 8 .1 12 .2 5.5.1 11.2-.4 18.6.9-8.9 3.5-15.8 6.1-22.8 8-18.6 5.1-32.4 14.8-37.6 34.6-1.8 6.8-6.2 5.4-10.8 2.3-14.4-9.6-29.3-18.6-42.7-29.5-16.1-13.1-34.7-19.4-55.1-20.8-28.7-2-57.4-2.9-86.9-2 11.8-4.2 23.2-6.7 34.5-9.7 15.7-4.2 31.9-6.7 47.5-11.7 3.2-1 6.9-2.1 6.2-6.5-.5-3.8-3.7-5.5-7.2-5.9-6.9-.7-13.7-2.5-20.8-2.5-19.3 0-38.6-.3-57.8 2.2-20 2.6-40.1 4-60.2 6.9 9.6-6.3 19.1-12.5 28.4-18.9 3.4-2.3 7.3-5 5.3-9.5-1.7-3.9-6.1-3.4-9.8-2.7-30.3 5.9-60.9 10.7-90.6 19.5-2.2.3-3.9 1.8-6.1 2.4-.6.2-1.2.4-2 .5-.2 0-.4 0-.7.1h.1c.9-.1 1.9-.4 2.9-.7 20.2-6.8 38.6-17.7 57.7-26.9 8.7-4.2 18-7.1 26.1-12.4 2.7-1.8 6-4 4.4-7.9-1.3-3.1-4.8-3.5-7.8-3.1-9.6 1.1-19 2.8-28.1 6.2-.5.2-1 .3-1.4.4 1-.3 2-.3 2.9-.7 12.7-5.1 24.7-11.6 35.8-19.4 8.1-5.7 7.3-11.3-1.5-15.6-8.9-4.3-18.1-6.4-28-4.2-1.3.3-2.6.4-3.9.9-31.8 11.7-62.4 26.1-91.2 44.1-15.4 9.7-31.1 19-44.7 31.3 1.1 2.4 3.2 3.2 5.5 3.8 10.7 2.7 10.7 2.7 4.8 11.9-9.8 15.1-21.5 28.8-32.2 43.3-3.5 4.8-8.5 10.3-3.9 16.1 4.8 6.1 10.9 1.7 16.3-.8 1.5-.7 2.9-1.7 4.5-2.2 8.2-2.8 15.1-9 26.9-10.3-7.3 8.1-11.6 15.5-18.5 20.8-6.9 5.3-12.7 11.7-19.5 17.1-3.6 2.9-7.6 7-4.3 11.9 3 4.5 7.8 2 11.8.4 5.2-2.2 10.2-5 15.1-7.7 12.5-6.9 24.9-14 37.8-20.5-7.6 8.4-16.1 15.4-24 23-3.6 3.4-8.3 7.6-4.9 12.8 3.8 5.9 9.5 2.2 14.4.4.9-.3 1.8-.9 2.7-1.2 11.1-4.3 21.2-10.9 32.3-15.2-6.8 8.8-14.3 16.8-22 24.7-3.2 3.4-7 6.2-9.9 9.8-2.3 2.8-5.3 6-3.1 9.7 2.5 4.3 7 2.8 10.9 2 2-.4 3.8-1.3 5.6-2.1 9.7-4.2 19.9-7.3 29.6-11.4 4-1.9 6.7-5.3 10-8.1 14.9-12.8 30.5-24.7 47.4-35 32.8-19.9 67.9-32.2 106.8-31.3 29.9.7 57.7 9.2 84.1 22.8 29 14.9 54.5 34.5 78.1 56.9 2.6 2.4 4.5 5.8 8.8 6.7 1.9-2.6 3.8-5.3 5.6-8.1 9.8-14.3 19.9-28.3 31.5-41.3 13.4-15 28.2-28.3 45.5-38.7 26.6-16 54.5-20.8 84.2-9.6 9 3.4 18.1 6.7 27 10.5 22.2 9.4 42.6 21.9 62.6 35.3.9.4 1.6 1.1 2.3 1.7 2.1.5 2.7-.4 2.3-2.3-.1-.6-.4-1.1-.9-1.5.1-1.1-.4-1.8-1.2-2.2zm-807.9 223.8c11.2-22.6 22.8-45.1 35.6-67 1.7-2.9 2.9-6.5 8.1-7.9-.3 33 3.2 64.8 6.4 96.8 7.6-17 11.8-35.1 20.7-51.3 3.7 34.7 4.9 69.2 8.3 105.2 4.3-4.4 3.6-9.3 7-11.8.7-3.3 1.5-6.5 2-9.8 11.8-75.6 42.7-142.2 93.4-199.5 9.9-11.2 20.4-21.8 30.6-32.7-1.8-1.9-3.6-.8-5.4 0-15 6.4-29.7 13.3-44 21-16.4 8.9-31.8 19.3-44.8 30.5 10.9-14.5 20.2-31.9 32.5-47.2 1.7-2.1 3-4.5 3.2-7.2.5-5.3-2.1-7.5-7.2-6.3-3.6.8-6.9 2.9-9.6 5.2-16.6 14.3-34.1 27.6-46.5 40.1 9.3-11.9 20.6-27.8 32.1-43.6 2.3-3.2 4.7-7.4 1-10.8-3.2-3-6.9-.3-10 1.6-2 1.2-4 2.4-5.8 3.9-16.8 13.5-31.9 28.7-45.9 45.1 5.7-6.6 9.3-14.5 14.5-21.5 10.3-13.9 19.5-28.6 31.1-41.5 2.8-3.1 6.1-7.5 2.2-11.4-3.5-3.5-7.4-.2-10.7 2-7.4 4.7-12.6 11.8-19.2 17.4-11.5 9.7-21.6 21.2-35.5 28.8-.3-4.3 1.9-6.5 3.3-9.1 7-12.2 17.3-21.9 25.7-33 5.8-7.7 12.9-14.3 19.1-21.7 1.9-2.2 3.8-5.3 1.5-8.1-2.3-2.9-5.5-1.5-8.2-.1-2.3 1.3-4.7 2.5-6.9 4-15.9 10.2-32.6 19.2-46.9 31.7-16 19.7-29 41.3-39.9 64.3 1.2 48 1.7 96 4.2 144 1.4 1.1 2.7 1.1 4-.1zm-55.6 317.3c2.7-1.3 5.7-2.8 5.7-6.2 0-3.5-3-5.2-5.8-6-7.1-2-14.1-4.3-21.7-4.3 2.3-1.2 4-2.7 4.2-5.3-2.4-8.4-9.9-7.5-15.3-8.8 7.1.2 15.3 4.8 22.7-1.9.7-9.6-8.6-9.2-13.1-13.5 6.2-2.2 16 1.6 19-5 3.4-7.5 8.1-6.2 13.3-6 4.5.2 8.3-2 12.5-2.4 8.2.8 16.3 1.5 24.5 2.3 2.4.2 4.7.6 5.7-2.3-4-12.4-12.9-18.6-25.5-20.2-1.6-.2-3.2-.8-4.8-1.2-24.2-5.8-45.8-1.6-65.2 14.7-17.7 14.8-33.5 31.1-48.5 48.5-12.4 14.4-18.1 31.4-20.2 49.9.4 4.6 2.3 5.2 6.5 3.4 15.7-6.8 31.5-13.5 47.5-19.6 8.5-3.3 16.7-8.1 26.4-7.5 10.7-2.3 21.9-3.6 32.1-8.6z"/><path id="sd1" fill="#BC9121" d="M1510.2 335.6c-.9.9-2.7.2-3.3 2 6.3 1.5 12.6 3 18.8 4.4 1.4 1.2 1.3 2.5 0 3.7-27 3.1-53.7 7.9-80.4 13.6 2.7.2 5.5.4 8.2.5 36.2 1.2 72.3 3.9 110.1 4.2-8.4 5.2-16.8 3.4-24.3 5.1-8.1 1.8-16.4 2.3-24.7 3.4-8.2 1.1-16.4 2.2-24.7 3.4-2.4 1.8-5.4 1.7-6.9 2.1 1-.3 3.2-.3 5 1.6 17.3.3 34.5 2.1 51.9 2.7 11.9.4 23.4 4.2 34.9 8.2-20.9 4.8-42.4 4-63.3 8.3 36.1 4.1 72.1 9.4 108 14.6v2.3c-22.2 5.4-44.3 10.8-66.5 16.2 0 .6.1 1.3.1 1.9 26.9-.1 53.9-1 80.6 3.8-11.8 4.6-24.7 5-38.3 8.9 12.6 4 24.2 3.6 35.4 4.7 11.7 1.1 22.8 4.3 34.4 8.6-19.9 4.9-39.7 9.9-59.6 14.8.1.7.1 1.4.2 2.1 16.6 2.7 34-1.2 51.4 4.6-3.9 3.8-8.1 4.7-12 6.2-11.3 4.1-22.5 8.2-33.9 12-9.3 3.1-16.7 7.9-19.6 18.1-1.5 5.1-3.9 9.9-5.8 14.9-2.8 7.4-3.2 7.7-9.5 3.5-16.1-10.7-32.9-20.5-47.8-32.8-18.1-15-39.1-20-61.9-21.6-28.3-1.9-56.6-1.4-84.9-1.9-2.8 0-6 .9-8.6-2.1 2.8-4 7.1-4.6 11.1-5.9 27.9-9.1 56.7-14.7 85.2-21.7 1.5-.4 3.4.1 4.5-3.2-9.3-1.1-18.3-2.7-27.4-3-21.3-.9-42.5 1.2-63.7 3.3-22.1 2.3-44.2 5.1-67.6 7.7 4.2-6.2 10.1-8.4 14.9-11.9 5.4-3.9 11.1-7.4 16.7-11.1 5.2-3.4 10.3-6.8 14.8-11.8-14.6 2.9-29.2 5.8-43.7 8.7l-55.8 11.1c-1.8 1.6-4.4.1-6.1 1.7-1.3.1-2.6.2-3.9.4-2.1.7-2.5-.2-2-2.1.5-.1 1.1-.2 1.7-.3.8-.5 1.5-1.1 2.2-1.8 29.6-15 59.4-29.8 89-45.6-14.6 2.4-29.2 4.9-43.8 7.3 16.4-11.9 35.1-19.9 52.8-32.9-12.3-4.7-23-8.9-34.3-11.1 22.1-8.7 45-14 68.4-17.5 38.6-5.8 77.5-6.3 116.5-4.1 2.4.4 5.1.3 7.5 1.8zm-503.7 667.2c-.9.4-1.8.8-2.6 1.4-.8.6-1.6 1.2-2.3 1.9-5.5 9-3.3 14.4 6.6 15.7 4 .5 8.1.1 11.3.1 1.1 6.8-14.5 9-3.7 17.8-3.8.9-7.5 2.1-9.4 6.2-.4 1.5-.3 2.9.3 4.3 4.4 6.4 11.8 5.2 17.9 7.4-3.2.6-6.3 1.8-9.3 3.1-2.8 1.2-5.9 2.8-5.8 6.2.1 3.9 3.5 5.5 6.8 6.4 5.6 1.5 11.4.5 16.7 1-1.6.4-3.7-.3-5.6.4-3.9 1.4-8 3.1-8 7.8 0 4.5 4.4 5.5 7.7 6.6 5.5 1.9 11.3 2.7 17.5 4-4.3 2.2-9.8 3.1-8.9 8.7.7 4.5 5.3 5.3 9.3 6.4 3.4 1 7.3.7 10 3.3 0 2.1-1.4 3.2-2.6 4.4-2.7 2.9-6.7 5.6-4.6 10.1 2 4.1 6.6 4 10.6 4.1 7.2.2 14.3.1 21.4 0-11.3 7.3-22.4 14.9-33.5 22.3 2.3-4.5 7.5-9.3 3.5-14.4-4.3-5.6-10.4-2-15.6 0-6.9 2.5-13.6 5.4-21 8 5.3-6.5 9.8-13 14.6-19.3 2.5-3.2 4.8-7 2-11-2.7-3.8-7-3.2-11-2.2-6.7 1.6-13.3 3.7-20.3 5.6 2.3-3.8 5.7-6.1 8.2-9.1 2.4-2.9 5.1-5.9 3.3-9.8-2-4.3-6.5-4.5-10.5-3.9-6.2 1-12.5 1.3-20.3 2.8 6.1-4.2 10.9-7.7 14.5-12.4 5.3-7 3.2-12.7-5.5-14.6-3.6-.8-7.3-.6-11-.5-8.7.1-17.3.2-25.7-2.1-10.6-.2-19.7 5-29.4 8.2-17.2 5.8-33.1 14.9-50.6 19.8-3.3 10.7-3.6 21.8-5.4 33.3 3.2-.3 4.7-1.7 6.3-2.8 9.9-6.8 19.7-13.7 29.7-20.2 10.3-6.7 21.1-12.7 32.8-16.9 6.4-2.2 12.9-3.5 19.6-3.5 3.4 0 7 .2 8.1 4.2 1.1 3.8-1.4 6.2-4.3 8.2-2.7 1.9-5.5 3.7-8.3 5.5-16.2 10.3-29.7 23.4-40.3 39.6-11.9 18.1-22.1 37.2-32 56.5-.5 1-1.7 2.2-.3 3.8 3.3-.4 5.6-2.9 8.3-4.6 19.9-12.8 39.8-25.4 60.9-36.2 11.9-6.1 24.5-5.3 37.1-6 2.4-.2 4.6 1 5.7 3.4 1.1 2.4.3 4.6-1.4 6.4-1.2 1.2-2.4 2.3-3.6 3.4-10.7 10-21.6 19.8-32 30.1-18.7 18.5-37.3 37.1-50.8 60.1-.5 2.1.5 2.7 2.4 2.4 5.2-3.7 10.4-7.2 15.5-11 16.9-12.4 33.9-24.6 52.7-34.2 16.2-8.3 33.1-13.5 51.7-12.9 18.3.6 36.6-.3 54.8-2.6 21.8-2.8 43.4-6.2 63.9-14.9 16.6-7 24.9-19.1 26.8-36.5.6-5.5-.3-9.2-6-12-15.6-7.7-29.3-18.2-42.6-29.5-27.6-23.5-48.4-53-71.1-80.8-5.5-6.8-8.4-15.1-12.4-22.8-.3-.5-.9-.9-1.4-1.3-9.7-1.9-19.3-4.5-29.4-2.9zM1122.1 808c.6-8.7-1.7-17.1-2.1-25.8-.7-19.5-1.7-39.1-4.1-58.5-.4-3.4-1-7.1-4.8-7.9-3.8-.8-6.3 2.3-7.5 5.4-4.6 11.9-10.2 23.5-11.7 33-.6-21.9-4.1-47-3.8-72.2.1-4.4-.1-9.4-5.1-10.9-5.4-1.6-8.6 2.7-11 6.7-11.4 19.9-23.1 39.6-32 60.9 0 .1-.1-.3-.2-.1 1.7-12-2.2-24-1.5-36.3 1.6-29.1-2.2-58.1-2.1-87.2 0-4.2.2-8.8-4.4-11.3-3.2 6.5-6.6 13-9.7 19.6-18.5 39-28.5 80.2-30.2 123.3-1.4 36.4-.2 72.6 6.1 108.5 6 34.4 12.6 68.8 25.8 101.4.8 2 .6 4.8 4.4 5.3-1.1-16.4 2.4-31.8 9.5-46.4 10.7-22.2 26.3-36.4 52.6-35.8 9 .2 18 0 26.9 1.2 8.6 1.2 9.2.9 8.3-8.2-1.8-16.7-.7-33.3.4-49.9.2-3.6.2-7.3.2-10.9-1.5-1.2-4.1-1.1-4-3.9zm257.6 177.8c.7-14 1.3-27.9 2.1-41.9 2.8-51.9 8.8-103.5 20.2-154.3 9.5-42.2 22.9-82.6 49-118.1 14.7-19.9 32.4-35.1 57.6-37.2 25.5-2.1 50.5 1.3 73.9 12.9 18.2 9.1 35.8 19.2 53.5 29.2 2.2 1.2 4.1 3.5 7.4 2.4 2.4-7.8 4.5-15.9 7.4-23.6 5.1-13.5 12-26 23.4-35.4 15.2-12.5 32.4-12.5 47.3 0 3.8 3.2 7.3 6.8 10.5 10.6 12.9 15.4 23.5 32.5 31.4 50.8 31.7 73.2 50.8 149.2 50.5 229.5 0 2-.6 4.3 1.3 7 1.9-4.6 4.2-8 4.3-12.1-2.3-3-1.6-6.3-1.2-9.6 1.7-15.5 3.5-31.1 3.5-46.7 0-12.7.3-25.3 0-38-.6-25.1-4.2-49.7-12.3-73.5-4.1-12-8.6-23.8-13.3-35.5-12.8-31.5-25.8-62.8-47.1-89.9-13.4-17-26.7-34-42.5-48.9-12.4-11.7-27.3-19.2-43.7-27.5 2.4 8 6.9 13.1 9.8 19 4 8.3 4.2 8.3-2 14.6-17.1 17.3-34.2 34.6-51.3 51.8-6.1 6.1-7.5 6.5-14.3 1.5-24.8-18.2-52-32.4-79.3-46.1-6.6-3.3-10.4-6.7-8.1-14.4.3-1.1.1-2.7-2.4-3.2-3.4 3-6.4 6.9-9.3 10.8-8.7 11.7-17.1 23.8-26.4 35.1-19.6 24-38.6 48.4-54.9 74.8-19 30.6-33.4 62.7-38.9 98.7-3.7 24-6.2 48.2-7.1 72.4-1.7 44.9-.8 89.9-.1 134.9.2 1.2.7 1.2 1.1-.1zM1222.6 1087c1.3-1.3 1-3.1 1.1-4.7 4.8-55.7 9.7-111.4 14.4-167.1 1.5-17.6 2.8-35.2 4.1-52.8.4-5.2.8-10.3 7.7-10.7 2-26.2 1.5-52.5 3.5-78.7 1.5-19.6-.3-39.3 2.1-58.8 0-.4-.6-.9-1-1.4-1.8.8-2.1 2.5-2.7 4-12.3 31.7-23.7 63.7-33.3 96.3-7.8 26.3-11.9 53-11.2 80.7.7 29.3 3.3 58.4 4.9 87.7 1 17.6 3.5 35 5.3 52.6 1.4 14.2 2.7 28.5 3.9 42.7.3 3.2.8 6.7-1.9 9.5.9 1.1 1.8 2.1 3.1.7zm81.4-38.6c1.6-11.9 3.2-23.7 4.9-35.6 5.1-36.9 10.3-73.8 15.4-110.7 2.5-18.1 5.1-36.2 7.5-54.4.7-5.1 2.5-8.9 8.1-9.9.7-9 1.9-17.9 1.8-26.9-.1-21.7 3-43.2 2.4-64.8-.1-2.3.6-4.6.8-6.9 1.2-11.4.9-22.8.9-34.8-3.1 1.7-3.1 3.9-3.6 5.7-11.8 40.6-22.2 81.6-31.6 122.8-7.9 34.8-14.2 69.8-13.1 105.7.2 7.3-2.6 14.5-1.2 21.9 1.5 8.3 1.5 16.6 1.3 24.9-.5 20 2.5 39.9 2.6 59.8 0 3.6 1.1 7.2 1.7 10.8 1.7-2.2 1.7-5 2.1-7.6zm550.5-213.5c.3 1.6.8 3.2 1 4.9 2.9 28.8 6 57.6 8.5 86.5 3 34.5 5.4 69.1 8 103.6.6 1.4 1.2 1.4 1.9.1 2.8-12 6.5-23.8 7.8-36.1-2.7-3.1-1.7-6.9-1.8-10.5-.3-10 1.8-19.8 2-29.8 1.1-46.7-2.2-93-10.2-138.9-5.6-32-15.8-62.5-31.2-91.2-1.4-2.7-2.4-6-6-7.2-1.1 3.2-.7 5.8-.4 8.4 2.3 17.4 5 34.8 6.9 52.3 2 18.1 5.8 36.1 4.7 54.5 4.3-2.4 7.7-2.4 8.8 3.4zm61.2 61.3c.6 11 1.5 21.9 2.2 32.9 2.1 34.9 4.1 69.8 6.1 104.7.6 1.4 1.2 1.4 1.9 0 1.1-6.5 2.6-13 3.3-19.6 1.3-12.8 4.6-25.4 4.6-38.4-3.3-6.8-3.7-14-3.7-21.3-.2-19-2.8-37.7-4.8-56.5-2.7-25.7-6.1-51.4-9.4-77-1.7-13.4-3.1-26.8-7.3-39.9.1 29.1-1.6 58.3.6 87.4.5 6.6 1.4 13.2-1 19.7 5.6-.4 7.3 2.9 7.5 8zm-794.5 209.2c12.1 11.1 39.1 35.8 54.2 44.6-1.7-8.2 2.6-17.8 1.2-24.2-1.6-7.3-7.4-18.4-14.7-18.1-8.6.4-17.3 1.9-25.4-2.3-2.6-.9-15.6-2-15.3 0zm-178.3-73.7c-.1.6-.1 1.2-.2 1.8 7.8 3.5 15.5 6.9 23.3 10.4 6.1-1.8 12.6-2.7 18.2-6.7-3.2-3.2-6.7-4.2-10.2-5.4-10.4-.1-20.7-.1-31.1-.1z"/><path id="hl1" fill="#FCF235" d="M1377.9 695.9c2.8-8.6 7.2-16.4 12.6-23.6 4.1-5.5 8.3-11.1 12-19.1-11.9 2.3-19.5 9.7-28.6 13.8-8.9 4-16 11.4-26.5 14.8 8.4-17.3 24.8-27.8 31.7-45.6-5.6-1.7-9.4 1.2-12.9 3-12.1 6.2-23.9 13.1-35.1 21.1-5.3 3.8-11.1 6.9-17.6 9.2-1.1-4.8 2.1-6.2 3.9-8.2 5.9-6.3 12.5-12 17.3-19.3 1.1-1.7 2.4-3.2 3.3-5 .9-1.7 2.1-3.8.1-5.4-1.5-1.2-3.2-.2-4.6.5-8.8 4.1-17 9.2-24.9 14.7-7.4 5.2-15.4 9.2-23.1 13.9-1.9 1.2-4 2.5-7.5.5 9.2-13.1 19.1-25.8 25.6-40.2-2.8-2.9-4.4-1.1-6.1-.2-19.2 10.7-36.6 24.3-55.2 36-3.3 2.1-6.3 4.9-11.4 4.5.9-8.4 8-12.1 11.7-17.9 4.1-6.2 10.6-10.3 14.6-16.4 4-6 10.7-10 13-17.4-3.4-2.3-5.3.3-7.3 1.7-17.7 12.3-35.4 24.8-52 38.6-4.6 3.9-9.8 6.9-14.7 10.3-1.5 1.1-7.9-6-9.4-7.3.8-.7 1.3-1.5 1.7-2.5 12.8-21.1 28-40.4 45.6-57.8 4.6-4.6 3.8-5.6 6.3-8.2 6.7-6.8 22.5-.9 31-5 21-10 42.8-18.3 63.1-29.8 7.7-4.4 16.1-7.5 24.7-10.6-4.7 9.1-13.8 13.3-20.8 19.8-7 6.4-14.6 12.4-20.3 22.1 11.3-1.7 17.9-9.8 26.9-12.4 9-2.6 16.4-9.8 28-10.6-10 17.9-27.2 27.1-39.3 43.4 24.4-6.6 42.4-23 67.6-27.9-6.8 9.5-13.4 15.9-20.6 21.5-5.3 4.2-9.9 8.9-14.6 13.6-2.6 2.6-5.9 5.6-3.2 9.4 2.4 3.5 6 1 9.1-.1 16.6-6 32.6-13.4 48.7-20.4 1.2-.5 2.4-1.2 3.6-1.7 3.1-1.3 6.8-3.2 9.3-.4 2.6 2.8-1.5 5.2-2.5 7.8-2.3 5.9-8.2 9.7-9.5 16.3-.4 1.9-1.8 4 .2 5.5 1.9 1.4 3.8-.2 5.4-1.3 6.3-4.3 12.2-9.3 19.4-12.1 1.8-.7 3.4-2.1 5.7-1.5 2 2.5-.3 4.2-1.4 6-6.1 9.9-12.8 19.3-20.3 28.3-3.1 3.7-8.5 7.3-5.3 13.8.7 1.5-.7 2.4-1.7 3.2-14.9 11.2-28.4 24-44 34.2-.3.3-1.1.2-1.7.4zM1254 568.1c-2.1-2-4.3-1.1-6.5-.4-9.5 3.1-18.9 6.3-28.4 9.3-2.9.9-5.7 3.2-10.2 1.2 8.5-8.6 16.3-16.5 24.2-24.5 13.3-13.5 17.5-19.4 18.9-26.7-1 .1-2.1 0-2.9.4-10.2 4.9-20.3 9.8-30.5 14.7-6 2.9-12 5.6-18.1 8.3-1.5.7-3.3 1.6-4.6.1-1.8-2.1.2-3.7 1.5-5 3.2-3.3 6.2-7.2 10-9.7 7.7-4.9 12.2-13.1 19.5-18.3 2.6-1.9 4.7-5.1 5-9.4-10.2 1.9-18.1 6.9-26.3 11.3-13.4 7.3-26.9 14.6-40.4 21.8-1.8.9-3.8 3.1-6.4.1 2.1-4.3 6-6.8 9.5-9.8 12.2-10.3 24.3-20.6 33.6-33.8 1.6-2.3 4.8-4.8 2.7-7.9-2.2-3.3-6-2-9.2-1.3-1.6.3-3.1 1.1-4.6 1.9-8.9 4.4-17.8 8.9-26.8 13.3-3.2 1.6-6.4 3.3-11.1 2.2.9-4.8 3-8.3 5.7-11.8 9-11.5 17.9-23.1 26.7-34.8 4.8-6.4 9.6-12.8 12.8-20.2 2.2-4.9 1-6.8-4.3-7.2-5.3-.3-10.6-.1-16-.1-18.9 12.5-35.2 28.1-51.2 43.8-20.1 19.7-38.7 40.8-55 63.9 1.7 1.3 3.1.4 4.5-.5 13.3-8.2 26.6-16.4 40-24.5 5.1-3.2 10.2-6.4 15.4-9.6-6.7 9.5-15.1 17.1-21.8 26.2-8.5 11.4-18.9 21.4-26.4 33.7-2.8 4.6-4.8 9.5-6.5 14.5-.8 2.3.6 3.8 3.2 3.4 4.8-.8 8.6-3.6 12.3-6.4 14.1-11.1 27.7-22.8 40.2-35.8 4.5-4.6 9.5-8.5 15.9-10.7-21.5 25.9-39.5 54-58.5 83.9 7.6-2.3 11.4-6 15.2-9.7 11.7-11.7 23.5-23.4 35.2-35.2 6.3-6.4 14.1-10.6 21.7-15.5-4.3 12.5-14.3 21.1-21.3 31.7-7.2 10.9-15.2 21.2-21.1 33.2 24.7-17.1 45.3-39.1 71.4-54.5-14.9 22.8-29.9 45.3-44.1 68.5 3.4 1.4 4.6-.7 6.1-1.8 15-11 29.5-22.6 45.7-32 13.8-8 28.7-14 42.2-22.5 3.6-2.2 6.9-5.4 11.5-5.8.8-.3 1.4-.9 1.6-2zm664 83.3c-5.3-16.3-10.6-32.7-19.4-47.7-3.5-.9-5.4-3.7-7.2-6.5-2.4-3.7-5.9-5.8-10.8-7.8 6.9 15.7 12.9 30.6 16.2 46.6-12.1-9.8-22.8-20.7-34-33.3-3.2 14.7 4.2 28.1-.4 42-9.1-6.9-13.2-16.7-19.6-24.6-6.5-7.9-10-18.4-19.9-24.9.5 7.7 4.7 12.8 6.7 18.7 2 5.8 3.4 11.7 3.5 20-14.1-15.1-26.7-28.7-39.3-42.4-.7.4-1.3.7-2 1.1 6.6 13.8 10.9 28.4 16.2 44.8-5.7-3.5-8.5-6.4-10.7-9.6-5.1-7.5-11.9-13.4-17.7-20.3-1-1.2-2.1-3-4.1-1.9-1.7 1-1.4 2.8-1.1 4.5 2.2 12.2 5.3 23.7 12.8 34.2 9.6 13.5 17.6 28.1 24 43.6 2.9 7 5 14.7 11 23-1.4-10.2-1.7-18-.7-26 1-7.8-4.4-15.9.3-24.1 3.8 1.3 4.6 4.4 6 6.9 5.1 9.4 10 18.8 15.1 28.1 1.8 3.3 3.4 7.1 9 7.9 0-5.6-.2-10.5.1-15.5.4-6.1 3.1-7.6 8.5-5.1 4.7 2.2 7.9 6 11 10 4 5.1 8.1 10 12.1 15 .6-.3 1.3-.6 1.9-.9-3.2-6.4-3.3-13.4-4.9-20.1-1.1-5-.9-9.9-.6-14.9.1-1.3.5-2.7 1.9-3.3 1.9-.8 3.2.3 4.1 1.8 2.9 4.8 5.9 9.7 8.5 14.7 2.9 5.5 5.6 11.1 11 17 .4-7.7.8-13.8-1.1-19.9-.5-1.6-.9-3.6.8-4.5 2.1-1.1 3.9.4 5.1 1.9s2.1 3.4 3.2 5.1c3.4 5.3 7.5 9.8 13 13.1 1.9-3.1.7-5.9 1.4-8.5-1.2-13.1-5.8-25.6-9.9-38.2zm-945.1 386.3c-3.2.9-5.5 3-7 6.1-3.9 1.6-7.9 3.1-11.8 4.7v1.6c11.1 2.6 22.1 5.2 33.2 7.8-4.8 3.3-9.8 4.8-14.6 6.7-7.1 2.7-14.6 4.3-20.8 9.1 14 2.8 28.6.4 43.6 4.6-8.2 10.5-18.8 16.2-26.7 26.8 7.6-1.2 13.6-2.6 19.7-2.9 6.4-.3 12.6-3.2 20.3-1.7-6.4 9.2-15.5 14.8-20.7 25.4 14.9-2.1 26.8-8.8 42-9.9-8.9 13.5-19.3 24-26 37 7.8-2 14.8-4.9 22-7.3 7.3-2.4 14-7 23-7.1-3.7 8.7-10.3 14.8-12.8 23.6 10.3-3.3 48.5-29.7 52.8-36.3-13.1-.8-26.1.8-40.2-.6 5.7-6.6 12.1-10.1 15.8-16.6-8.6-4.7-18.6-2.5-27.3-7.6 6.1-4.1 13.4-3.9 19.3-8.7-11.7-5.2-24.3-4.7-36.6-10.7 8.3-3 15-5.5 21.6-7.9-5.2-2.3-10-3.1-14.8-3.8-4.8-.7-10.1.3-15.5-3 8.6-4.6 17.5-5.3 26.6-11.4-11.3-2.3-20.6-4.1-30-6-1.5-1.3-1.5-2.5 0-3.7 7-2.6 15.1-2 22.6-7.1-6.1-1.5-10.9-2.7-16.3-4 3.5-2.4 6.8-.4 9.3-2.3 1.2-3.1-4.4-3.2-2.9-6.3 3.3-2.6 8.3-1.9 11.4-5.9-8-2.7-15.6-2-23.2-2.5-8.6-.5-9.3-2-4.9-10.2.7-.6 1.3-1.2 1.9-1.9-10.2-4-20.7-1.1-31.1-2 .3 4.3 5.8 3.5 4.9 8.3-9.9 3-21.1 1.5-32.3 5.3 9.2 5.7 18.8 8.4 26.7 14.3-.3 2.1 3.4 4.8-1.2 6.1z"/><path fill="none" stroke="#000" stroke-miterlimit="10" stroke-width="6" d="M1854 532.8c-23.4-19.6-73.1-40.9-97.9-50.5-25.8-18-76.2-.5-100 20.4-36.7 26.1-63 82.9-69.7 76.2-123.4-118.1-222.3-98.9-305.5-32.8-135 107.8-153.2 257.9-153.9 261.5-.7 3.6-2.2 57.5-1.9 62.2.3 4.7 4.1 11.7-4.9 11.6-93.8-17.6-92 80.6-92 80.6l-4.4-5.3c-93.9-248.8 16.1-489.8 289.9-600.2 282.8-80.4 444.6 77.9 444.6 77.9 65.3 42.5 124.8 140.8 124.8 140.8l-29.1-42.4zm-728.4 346.6s35.8 145.5 97.1 207.7c8.2-48.6 19.3-220.6 19.3-220.6s4-30.3 14.7-.7 41.3 198.1 41.3 198.1l33.8-216.1s8.2-21 11.8 0 32.4 144.1 32.4 144.1 13-130.5 16-149 19.9-153 96.5-203.6c0 0 59.1-24.6 143.8 35 16.2 18 15.8-10.9 16.7-13.6.9-2.7 16.5-48.9 50.5-50.1s102.7 106.7 115 305.6c6 1 29.9-80.7 29.9-80.7s10.8-16.4 11.7 9.6 15.5 178.2 15.5 178.2 1.5 27 7.8-15.2 25.7-116.3 25.7-116.3 5.3-6.7 10.4 1.4c5.1 8.1 8.3 134.8 8.3 134.8s1.3 16.2 5.6-14.8 44.6-291.5-46.1-438.2M1031 996.2s-32.7-25-69.9-9.7-74.4 65-79.1 75.4c-14.4 27.3-15.5 66.9-15.5 66.9s-4.4 9.2 10.3-3.7 61-35.4 65.3-36.2 25.7-5.4 16.3 11c-21.3 12.3-34.7 25.5-42.4 36.3-7.7 10.8-37.6 58-38.6 69 9-1.3 57-36.7 69.3-40.8 12.3-4.1 35.1-5.9 35.1-5.9s16.5.2 4.2 11.6-80.3 73.6-84.4 91.7c-4.1 18.1 48.5-32.2 65.4-40.1 10.9-5.5 39.1-18.8 73.8-15.5 34.7 3.3 104.7-9.6 117.4-28 12.7-18.4 13.9-24.4 8.8-35.5-27.8-19.8-91.1-60.8-136-146.5zm139.2 153.7s10 2.7 6.3-14-4.8-30.3-12.3-28.3c-5.1 1.4-51-6.1-51-6.1"/></svg>