<svg xmlns="http://www.w3.org/2000/svg" id="hair" viewBox="0 0 3000 3000"><path id="cl1" fill="#616ED6" fill-rule="evenodd" d="M1308.3 267.8c30.1 4.1 59.6 11 88.4 20.5 24 7.9 48.4 15 70.5 27.6.9.5 1.8.9 2.7 1.3 2.9 1.2 5.9 2.1 8.4-.3 3.1-2.9 1.7-6.1 0-9.1-8.3-14.5-18.4-27.7-29.7-40.1-2-2.2-4-4.4-6.4-7 4.6-1.4 7.8.7 10.9 2 29.4 12.9 60.2 21.4 91.2 29.2 19.8 5 38.4 13.3 56 23.5 8.4 4.8 16.4 10.2 22.8 17.7 2.7 3.1 5.9 5.7 10.4 3.6 4-1.9 4.1-5.7 4.1-9.4.1-22.3-5.1-43.6-13-64.3-1.4-3.7-3-7.3-4.3-10.6.8-2 1.8-1.3 2.5-.8 22.8 17 48.2 29.7 72.2 44.7 6.5 4 12.9 8.3 19.2 12.6 13.5 9.2 23.6 21.5 31.3 35.7 2.5 4.7 5.3 9.3 8.1 13.7 1.3 2.1 3.5 3.2 6 2.5 3-.8 4.3-3.1 4.2-6-.1-3-.5-6-1-8.9-3.1-17.5-8.4-34.3-17-49.9-1.2-1-.7-3-2.2-3.9-.3-2 .4-2.9 2.4-2.4.5.2 1.1.5 1.5.8.9.2 1.6.8 2.2 1.5 15.7 9.8 28.8 22.6 40.6 36.7 15.7 18.6 29.5 38.6 43 58.9 1.3 1.9 2.5 3.9 3.9 5.8 2.8 3.9 5.8 4.1 10.3 1.8 21.7-11 44.2-20.1 66.5-29.8.9-.4 1.8-.5 3.4-.8.5 4.2-2 7.1-3.4 10.2-8.3 17.5-16.7 34.8-25 52.3-1 2.1-2.2 4.2-2.8 6.4-1.3 4.5.4 7 5 7.9 1.3.2 2.7.2 4 .1 18.7-.4 34.8 6.4 50.7 15.7 20.2 11.8 36.9 27.2 52.3 44.4 1.3 1.5 2.4 3.1 3.5 4.5-1.5 3.4-4.2 2.1-6.2 2-19.6-1.3-39.2-2.8-58.8-4.1-4.1-.3-9.7-2.5-11.9 2.2-2.7 5.7 3.6 7.8 6.8 10.6 24.8 21.8 48.3 44.9 69.8 70 7.4 8.6 15.2 16.8 22.8 25.2 1.9 2.1 4.6 3.8 5.4 8-7 .3-13.2-1.8-19.6-2.5-5.3-.6-10.5-1.8-15.8-2.6-2.4-.4-4.7-.2-6.2 2.1-1.5 2.4-.7 4.7 1.1 6.3 15.3 13.8 23.5 33.1 36.7 48.5 6.2 7.2 12.6 14.4 21.5 22.5-10.8.8-19.2.3-27.5-1.4-5.2-1-10.4-2.6-15.6-3.2-7.2-.8-9.9 2.8-7.6 9.7 1.7 5.1 4.5 9.6 7.6 14 9.3 13 20.1 24.7 34.1 35.2-12.4 4.8-23.7 4-35.1 2.2-7.5-1.2-14.9-3.5-22.7-3-1.7.1-3.4 0-5 .2-6.3.9-8.2 5-3.8 9.5 7.5 7.8 12.7 17.1 18.3 26.1 6.1 9.8 9.6 20.4 10.1 32 .3 8 1.4 15.9 2.2 23.9 1.4 15.4 4.2 30.4 14.7 43-3.3 2.3-5.7.8-8 0-13.8-4.9-27.4-10.3-41.6-14.2-1.3-.4-2.5-.8-3.8-1.2-8.8-2.5-12-.5-12.3 8.4-.6 13.7-.4 27.3 1.5 40.9 2.5 17.8 5.5 35.5 10.9 52.8.5 1.5 1.5 3.1-.2 5.1-5.6-2-10.3-5.5-15-9-2.1-1.6-4.1-3.5-6.5-4.6-4.6-2.3-7.9-.5-8.4 4.6-.2 2.6.1 5.3.3 8 1.5 21.3 1.9 42.6 0 63.9-.3 3.2.5 6.7-2.9 9.9-9.1-15.4-16.7-31.1-21-48.3-1.5-6.1-2.9-12.3-2.1-18.8.3-3 .5-6.3-3.2-7.5-3.9-1.3-6.3 1.1-8.1 4.2-7 12.1-13.1 24.7-18.7 37.5-1.3 3-1.8 6.4-5.5 9.8-.8-6.6-1-12.3-.3-18 15.6-43.2 25.7-88.1 39.7-131.8-6.2 14.9-19.1 24.4-30.1 35.6-5.1 5.1-6 4.7-9.8 0 2.3-5.9 4.3-11.9 6.9-17.6 9.4-20.6 14.6-42.7 21.5-64.1 2.5-15.1 7.2-29.4 14.5-41.8-4.6 2.4-5 12.7-14.6 9.6-3-18.7-6.2-37.3-10.3-55.7-1.7-1.7-.1-4.5-1.8-6.2-.3-.6-.4-1.2-.4-1.9-1-6.1 2.1-14.3-8-15.9-2.6-4.1-5.2-8.3-8-12.4-1.6-2.4-3.1-5.6-6.7-4.8-3.5.8-3.7 4.4-4.2 7.2-2 10-4.1 19.9-7.2 29.7-2.5 4.1-5.1 7.9-9.8 2.1-4-15.5-8-31-12-46.4-.8-3.2-1.9-6.4-2.9-9.6-.9-2.8-2.7-4.6-5.7-4.8-3-.2-5 1.5-6.3 4-.9 1.8-1.8 3.6-2.7 5.3-6.3 11.6-12.6 23.2-18.8 34.7-2.9-.9-3.5-3-4.6-4.6-12.9-20.6-29.2-38-47.9-53.4-3.3-2.7-6.7-5.4-9.6-8.7-4.1-4.8-6.6-5-11.7-.7-7.2 6-13.5 12.9-18.7 20.7-4.4 6.6-8.7 13.2-13.4 20.2-4.3-5.1-7.9-9.4-11.5-13.7-12.5-14.9-29.7-20.8-47.9-24.6-3.9-.8-6.1 2-8.2 4.6l-24.9 30c-2.5 3-5.2 6-8 9.4-7.4-6.6-12.3-14.6-18.7-21.4-1.4-1.4-2.5-3.1-3.8-4.6-5.4-6-8.4-6.2-13.8-.1-13.3 15-26.2 30.2-38.5 46-1.4 1.8-2.2 4.2-5.2 5.2-2.4-2-3.5-5.1-5-7.9-6.2-12.2-12.3-24.4-18.5-36.5-1.8-3.4-2.7-7.9-7.9-7.8-4.6.1-5.8 4-7.6 7.1-17.3 29.6-34.5 59.3-51.8 89-2.5 4.2-4.6 8.8-8.9 13.3-1.3-3.1-2.3-5.4-3.1-7.7-7.4-23.2-14.8-46.3-22.2-69.5-.8-2.5-1.4-5.2-2.5-7.6-2.9-6.5-8-7.1-11.9-1.1-3.4 5.3-6.2 11-9.3 16.5-27.1 48.6-54.2 97.2-81.6 145.6-3.5 6.1-3.3 12-2.4 18.2 3.5 25.4 7.4 50.8 10.5 76.2 4.6 38 8.7 76.1 12.9 114.2.3 2.3.1 4.7.5 7 1 6.9-.6 9.5-8.3 7.3-3.8-3.5-6.2-7.5-6.8-12.9-3.8-39.1-9.2-78-14.6-116.8-5.5-39.9-12.4-79.6-17.9-119.4-.2-1.6-.4-3.3-2.4-5-6.2 9.5-10.7 19.7-15.2 30-2.3 5.2-4.6 10.4-7.5 15.2-1.8 3-4.2 5.4-8 4.8-3.8-.6-5.3-3.5-6.3-6.9-3.6-12.9-5.2-26.1-8-39.1-1-4.8 0-12.1-4.7-13.3-5.8-1.5-7.7 6.2-10.7 10.2-8 10.6-14.8 22.1-22.5 33-2.8 3.9-5.4 9.6-11.6 6.8-5.7-2.6-4.5-8.4-4-13.3 1.7-14.2 4.3-28.3 6.3-42.5.5-3.3 1.2-6.5.8-10.3-3.7 1-5.4 4-7.6 6.2-15.8 15.7-32.5 30.7-47.1 47.5-19.9 22.9-45.7 36.1-72.5 48.2-19.4 8.8-39.5 15.9-59.6 23-3.8 1.3-7.7 2.4-11.6 2.7-2.9.2-6.3.7-6.3-3.9 15.9-14.6 31.7-29.2 46.2-45.3 7.4-8.1 14.6-16.4 20.7-25.5 10.6-16.1 20.4-32.6 32.8-47.5 2-3.3 1.6-6.6.3-9.9-.4-.6-.6-1.2-.6-1.9-.6-4.1.7-7.5 3.1-11 8.1-11.8 16.8-23 27.2-32.5-.1.2-.1.1-.2.3-21.3 22.3-47 38.7-71.6 56.6-5.6 4.1-11 8.6-16.9 12.3-4 2.5-4 2.5-7.2-2 10.3-26 22.9-50.6 41.3-71.9 4.4-5.1 10.6-9.4 10.5-17.4-2.5-5.4-1.3-9.8 2.3-14.6 10.6-14.6 19.9-30.3 33.1-42.9.4-.4.7-.9.9-1.3-.1.2.2-.3.1-.1s-.1.1-.1.3-.2.4-.3.6c-.4.6-.8 1.1-1.3 1.5-26.9 26.5-56 50.3-88.1 70.2-1.1.8-2.1 1.7-3.2 2.4-.8.5-1.7.8-3.3 1.4-1.4-3.2.3-5.9 1.1-8.5 4.7-14 11.3-27 18.7-39.7 12-20.5 24.8-40.3 40.1-58.5 6-7.2 12.5-13.9 21.2-17.9 3-1.4 6.5-2.9 6-7.1-.6-4.7-4.7-5.3-8.3-5.6-21.9-1.9-43.6-6-65.7-5.4-2.6.1-5.3.7-7.4-.7-1.2-1.2-.8-2.2-.2-2.9 12.7-12.7 25.2-25.7 39.1-37.2 9.9-8.1 20.6-13.2 33.9-11.7 5.2.6 10.7 0 15.9-.7 5.1-.7 6.8-3.8 5.1-8.6-1-2.8-2.6-5.4-4.2-8-12.3-21-24.6-41.9-37-62.9-1.8-3.1-3.5-6.4-5.8-10.4 4.6.2 7.2 2.9 10 4.7 14.6 9.2 30.7 14.3 47.7 16.8 3.6.5 7.3.7 11 .4 6.4-.6 8-4.4 4-9.5-5.1-6.5-10.6-12.9-15.9-19.3-.8-1-1.3-2.2-2.5-4 5.4-1.7 10.4-1.2 15.1-.8 22.9 1.9 44.1-5.5 65.5-11.6 6.1-1.7 7.3-5 4.4-10.6-4.6-8.7-12.2-14.2-21-17.7-17.7-7.1-36.2-11.2-55.3-12.4-2.6-.2-5.3 0-7.9 0-1.1-3.6 1.8-4.2 3.3-5.5 18.6-16.6 40.1-27.2 64.7-31.5 7.9-1.4 15.6-3.4 23.3-5.6 14.9-4.4 29.9-6.3 45.4-4 4.4.6 9.7 2.2 12.6-3.1 2.6-4.7-1.1-8.3-3.2-11.8-10-16.3-23.2-30-35.7-44.3 0-3.6 1.8-3.9 4.6-2.6 24.2 4.1 48.5 7.9 72.6 12.6 20 3.9 38.8 11.5 56.9 20.8 3.6 1.9 8.1 5.2 11.8 1 4.4-4.8-.3-8.6-3-12.1-11.3-14.8-24.2-28.2-36.9-41.8-.2-3.4 1.8-3.4 4.5-2.3z" clip-rule="evenodd"/><path id="hl1" fill="#7786E4" fill-rule="evenodd" d="M1335.2 660.3c-16.1 24.7-30.4 49.6-43.1 75.6 9.7-3.2 18.1-8.2 28.3-14.1-2.4 9.8-8.3 15.4-12.2 21.9-4.3 7.1-9.1 13.9-13.8 20.8-4.4 6.5-8.5 13.3-14 18.9-3-1.6-2.2-3.9-2-5.7 2.9-20.4 6-40.8 8.9-61.3.5-3.2 1.6-6.5-1.3-10.5-20.8 14.5-40.5 30.6-62.7 45.3-1.3-11.1 3-19.8 3.2-30.2-11.9 3.2-21.9 8.8-32.2 13.7-10.4 4.9-20.2 11-31 14.7-2.2-3.5-.3-5.4.6-7.4 5.5-11.8 11-23.5 16.6-35.3.7-1.5 1.6-3 2.1-4.5.9-2.7 3.5-5.7 1-8.2-2-2-5.1-.2-7.6.4-20.1 4.8-40.2 9.7-60.3 14.5-2.6.6-5.2 1.3-7.8 1.9-10 2.1-11.5.7-8.8-9.4 4.6-17.7 9.6-35.4 14.4-53.1.6-2.2 1.4-4.5 1.7-6.8.4-3.4-1.3-5.2-4.7-4.6-4.6.7-9.2 1.7-13.7 2.7-11.6 2.6-23.1 6.2-35 7.8-1.3-3.2 1.4-3.5 2.7-4.6 2.3-1.9 4.8-3.6 7.2-5.4 13.4-10.2 27.7-18.1 44.9-20.5 10.8-1.5 21.4-5.1 32.1-7.7 3.1-.8 6.2-2.1 10.5-.7-11.8 26.9-26.8 51.8-38.6 80.9 23.5-9.1 43.7-20.2 64.6-29.6 21.1-9.5 41.9-19.5 64.4-26.8-13.3 29.9-30.6 57.2-45.4 87.4 7.6-.2 12.2-3.8 17-6.4 34.2-18.7 68.6-37.1 104.3-52.9 2.6-.9 5-3.3 9.7-.8zm573.2-11.4c-8.8-3.9-16.7-9.7-26-12.6-4.6-1.5-6.2-.3-6.2 4.5 0 2.3.4 4.6.9 6.9 1.8 8.2 4.4 16.1 7.6 23.8 1 2.5 2.9 5.1 1.2 9-12.2-8.4-22.6-18.4-35.4-25.2-.6 10.4 4.2 27.9 9.1 33.7 2-1.1 2.1-3.2 2.9-5 2.9-7 3.5-7.3 10-3.5 8.1 4.7 15.9 9.7 24 14.4 3 1.7 5.8 4.4 9.7 3.3 1.1-3.9-.6-7-1.1-10.2-1-6.9-3.1-13.7-2.8-20.7.2-5.9 2.2-7.3 7.7-5 6.1 2.6 12.3 5.1 18.1 8.3 10.8 5.9 20.7 13.5 32 18.5 2 .9 4 2.8 6.8.3-3-15.9-13.8-29.3-17.7-47.6 9.1 4.5 16.2 8.1 23.4 11.4 6.9 3.1 13.1 8.1 21.2 8.4-28.1-25.8-60.4-45.7-92.8-69 4.6 25.8 14.6 46.4 29.8 64.9-8.4-1.6-15.3-5.4-22.4-8.6z" clip-rule="evenodd"/><path id="sd1" fill="#48529F" fill-rule="evenodd" d="M954.1 926.2c5.2.8 9.9-1.5 14.5-3.1 32.2-10.8 63.8-23.4 94-39.3 8.6-4.5 16.4-10 23.3-16.9 23.5-23.6 47.2-47.1 70.8-70.6 2.3-2.3 4.2-5.1 9-6.5-1.5 25.8-8.1 50.2-8.6 75.5 9-9.5 15.3-20.6 22.7-31 7.5-10.5 14.1-21.6 24.3-32.8 6.4 25.2 8.9 49.2 15.4 74.6 8.3-11.2 11.3-22.5 16.6-32.6 5.3-10.3 10.2-20.8 15.5-31.8 3.6 2.1 3.7 5.3 4.1 8 7.5 50.1 15.1 100.1 22.3 150.2 4.1 28.7 7.7 57.4 11.3 86.1 1.1 8.6 1.8 17.2 2.7 25.8-9.6-.1-19.3 0-28.9-.2-9.5-.2-9.8-.2-12.7-9.1-9.5-29.8-21.3-58.8-32.3-88.1-9.3-24.6-19.2-48.9-28.6-73.5-2-5.3-5.6-8.5-10-11.8-16.4-11.9-34.4-15.4-53.9-11.1-5 1.1-9.8.4-14.7-.5-36.3-6.3-54 4.9-73.4 31.6-1 1.3-1.9 2.9-2.1 4.5-.9 8.7-6.7 9.9-14 10.4-24.3 1.7-48.6 1.4-72.9 1.8-1 0-2 0-3-1.8 1.8-3.1 4.9-5.8 8.6-7.8zm912.9-2.7c1.6 27.5 3.3 55 5 82.5 1.5-2.5 3.3-5 4.6-7.7 11.9-23.2 20.3-47.7 25.3-73.3 3.3-17 7.4-33.7 13.9-49.9 1.5-3.9 3.3-7.8 3.3-12.2-.9-.1-1.4-.3-1.5-.1-1.1 1.2-2.4 2.3-3.3 3.6-9.5 14.6-21.9 26.7-34.5 38.6-2.3 2.1-3.9 5.8-8.1 4.7-2.5 4.3-5 8.7-4.7 13.8zM994.2 740.9c11.1-5.1 22.5-9.2 34-13 4.4-1.4 8.3-1.7 11.3 2.6 1-4.3 3.4-7.7 5.9-11.3 10.9-15.6 21.7-31.4 32.6-47.1.6-.8 1.2-1.5 1.9-2.1.6-2-.3-2.6-2.2-2.3-.6.2-1.2.3-1.8.5-.7.5-1.4 1.1-1.9 1.8-20.2 16.6-40.6 33.1-60.6 49.9-9.3 7.9-19.9 14.3-27.5 24.1 3.2 0 5.7-1.9 8.3-3.1zm188.9 403.2c1.2-2.4 1.9-4.9 1.2-7.7-2-8-4-16-6-24.1-.7-2.8-2-3.9-5-3-8.8 2.6-17 .3-25-3.4-1.9-.9-3.8-3-7.1-.5 4.3 21.8 18.8 37.6 33.7 55.2 3.2-6.4 5.7-11.5 8.2-16.5zm-144.6-347c4.9-2.5 9.8-4.5 15-1m-44.8 193.1c-6.8 5.5-15 9.1-21.9 16.2 10.4 1.3 19.6 2.4 28.7 3.5 9.1 1 18.2 2.5 28.3.3-5-12.3-9.3-24.1-13.1-37.5-8 6.4-15.1 11.8-22 17.5zm80.2 80.4c-3.7-2.4-5.6-2.1-7.9 1.7-4.4 7.4-9.3 14.6-13.7 22-2.6 4.4-6.6 8.1-8.4 14.7 19.8-3.6 37.2-10.5 56.4-18.2-10.3-7.5-17.8-14.6-26.4-20.2zM1900.2 828c8.6-18.1 18.3-35.7 22.5-55.6-9.6 6.1-14.5 16.2-22.6 23.5.1 10.7.1 21.4.1 32.1zm-12.5-95.9c4.8-10.2 6.3-19.1 3.9-25.8-4 3.4-8 6.7-12 10 2 5.6 5 10.7 8.1 15.8zm-43.8 5.9c.8 3.9 1.7 7.9 2.5 11.8m-700.3-173.7c-.7.6-1.4 1.3-2.1 1.9-.5.1-1 .2-1.6.2-.2 3.4 1.4 3.3 3.6 1.9.6-.1 1.3-.1 1.9-.2 1.2-1 3-.6 4.1-1.8 48.3-15.7 96.6-31.4 146.3-47.6-1.5 4-3.4 5.2-5.1 6.7-18.6 16.1-37.2 32.3-55.7 48.5-24.5 21.5-49 43-73.5 64.6-.7.5-1.3 1.1-1.8 1.8l.1.1c-.6 1.8-.2 2.7 1.9 2 .6-.1 1.3-.2 1.9-.4.7-.5 1.4-1.1 2-1.8.7-.7 1.4-1.3 2.2-1.9 1.8-.9 3.7-1.6 5.4-2.6 47.1-29.1 94.1-58.2 141.2-87.2 2.9-1.8 5.6-4.5 9.5-4.1.7 2.4-.2 3.8-.9 5.3-5.7 12.1-11.4 24.1-17 36.2-10.8 22.9-21.6 45.8-32.2 68.8-1.4 3.1-3.7 6.2-1.9 10.8 9.5-6 17.4-13.2 25.6-19.8 32.8-26.7 65.6-53.4 98.4-80.2 1.7-1.4 3.5-3.7 6-2.6 2.7 1.2 1.8 4 1.8 6.2.1 11.3-2.3 22.5-1.9 33.9.3 8.3-.7 16.6-1.2 24.9-.8 11.3-.2 22.8-.2 35.6 28.1-32.9 52.7-67.2 81.4-101.4 4.7 28.5 4.7 54.9 9.1 82.1 3.2-3.8 3.8-7.1 4.8-10.1 7.5-22.4 14.9-44.9 22.4-67.4 3.6-10.6 4-10.7 13.2-3.8.5.4 1 .8 1.6 1.2 25.2 19.2 50.4 38.3 75.6 57.4 2 1.5 3.8 3.8 8.1 2.7-5.1-22.4-13.2-43.9-19.7-68.2 18.8 8.8 34.2 18.7 50.3 27.3 16.1 8.6 31.6 18.5 49 25-12.4-23.1-28.5-43.2-44.5-63.9 29.7 8 58.2 19.2 86.9 29.4 28.9 10.3 57.6 21.2 86.4 31.9.5-.8.9-1.6 1.4-2.4-28.2-23.5-57-46.2-86-69.1 8.4.5 16.5 1.7 24.5 3.3 39.5 7.8 79.1 15.8 118.9 21.7 6.4 1 12.8 1.7 19.5-.8-31.4-14.7-64-25.6-96.5-37.1s-65.6-21.2-98.1-33.5c42.1-8.9 84.8-13 127-20.6-5.3-1.3-10.5-2.4-15.8-2.6-38.6-1.5-77.2-3-115.8-4.3-24.3-.8-48.6-1.4-72.9-2.2-8.6-.3-9.1-1.1-6.5-9.7.5-1.6 1-3.2 1.6-4.7 8.4-23.9 16.8-47.8 25.1-71.7 1.5-4.2 3.8-8.4 3.4-14.4-6.6 4.6-11.8 9.1-17 13.7-19.6 17.6-39.2 35.1-58.8 52.6-5.3 4.7-7.1 4.3-10.2-2.3-.7-1.5-1.2-3.1-1.8-4.6-8.5-20.6-17.1-41.3-25.7-61.8-.9-2.2-1.1-5.2-4.4-5.8-1.6 3.6-1 7-1 10.3-.1 18-.1 36-.2 54 0 2.7 0 5.4-.4 8-.5 3.2-2.4 3.9-4.9 1.9-3.9-3.1-7.5-6.6-11.5-9.6-26.2-19.7-55.3-34.7-84.1-49.9-2.8-1.5-5.4-3.9-10.1-3 5 15.5 13.2 29.5 18.7 47.2-14.1-7.5-26.2-13.8-38.1-20.2-12.3-6.6-24.4-13.8-36.9-20-11.9-6-23.1-13.7-36.6-18.8 1.1 5.2 3.7 8 5.8 10.9 7.6 10.6 14.4 21.6 20.9 32.9 2.3 4 4.4 8.3 5.8 12.7 2.4 7.1.3 9.5-7.1 7.7-12.1-2.8-24.4-3.8-36.6-4.5-29.6-1.7-59.2-3.1-88.9-2.2-2.8.1-5.8-.6-10.1 2 37.1 9.2 73.3 15 108.6 25.1-26.8 6.3-53.5 11.7-80.3 16.8-26.7 5.1-53.5 10.2-80 16.7 11.5 1.4 22.6-1 33.9-.8 11.6.2 23.4.6 34.9-.9 11.3-1.5 22.6-1.3 33.9-1 11.3.3 22.7-2.6 34-1.4.1.7.3 1.3.4 2-53.1 32.4-106.3 64.8-159.4 97.2-1.1 1-3.1.4-4 1.8z" clip-rule="evenodd"/><path fill="none" fill-rule="evenodd" stroke="#000" stroke-miterlimit="10" stroke-width="6" d="M1841 396.4l76.7-31.7s-20.4 45.8-21.1 47.1-10.5 25.5-10.5 25.5-7 1.3 26.1 5.8c49.5 6.9 88.1 64.9 88.1 64.9s-56.2-5-63.4-4-20.8 1.3-9.1 9.9 101.6 104.4 102.1 106-8.6-.6-29.8-4.2-6.4 11.6-.4 18.6 49.5 59.6 45.8 60-51.4-12.4-49.4.3 24.9 38.5 42.5 53.9c-8.9 8.9-47.3-.2-47.3-.2s-29.4-7.1-19.2 9c23.9 25.4 29.4 49.6 29.3 70.6s13.5 55.6 13.5 55.6-23.7-7.7-42.8-14-20.2 3-20.2 3 5.3 69.2 6.7 75.8 21 43.6 0 23.6-27.3-11.7-24.5 0c6.5 23.4-2.8 75.1-2.8 75.1s-22.4-43.4-25-64.1c2-17.3-11-3.5-11-3.5l-22.6 44.5s-4.2-81-4.6-87.7-4.8-12.6 1.1-21.2c15.2-34.9 29.1-73.7 31.3-113.1 1.2-30-16.9-77.4-24.2-91.6s-13.6-14.7-18.7 12.4-14 13-14 13-6.2-23.9-12-46.3-15.4-6.1-15.4-6.1-14.6 32-20.5 38.1c-19.6-34-45.4-46.7-57.4-62.1s-17.8-4.1-17.8-4.1l-30.6 39.7s-17.3-23.2-40.1-33-26.5-2-26.5-2l-33.9 40.6s-6.9-7.2-19.8-22.7-17.7-2.1-17.7-2.1-17.6 17.8-22.7 26.5c-20.2 34.1-22 20.9-22 20.9s-9.8-19.3-20.3-39.9-17.9-.4-17.9-.4l-59.3 99.9s-14-29.7-23.1-70.4-23.2-3.7-23.2-3.7l-66 118.1s-25.4 41.1-21.2 44.7 21.2 171.4 23.6 192.7 0 17.7 0 17.7l-37.8 1s-6.9 2.3-9.6-5.3c-15.3-43.2-56.7-135.5-65.9-172.1-15.5-18.2-48.7-18.8-53.1-18.4s-19.2 4.8-31-.5c-18-12.1-62.7 20.4-64.7 32.8s-4.7 11.3-11.4 14.4-94.9 9.9-80.4-1.1c57.2-49.3 95.2-110.7 102.5-117.4s5.8-7.3 5.5-19.1 16.6-30.4 16.6-30.4-40.3 31-45.7 34.8-37.7 36.8-36.6 19.2c1.1-26.9 25.5-47.1 42.6-73.4s-2.2-18.5-2.2-18.5c-12.4 1.6-36.3 20-48.7 19.9 5.9-24.5 35.1-73.1 42.1-86.9s32.3-36.3 42-41.7-5.4-8.7-5.4-8.7l-73.1-6s28.2-25.6 38.9-40.1 26.3-11.8 43.7-11.7 11.2-9.3 9.4-13.3-47.4-80.3-43.9-77.3 44.8 21.7 62.7 21.9 6.8-12.2 6.8-12.2c.4-2.9-16.3-20.8-16.3-20.8s13.9-2.9 22.5-.5 34.3-2.7 47.1-8.7 26.9-1.7 12.1-18.9-56.2-16.1-80.6-28.3c17.2-24.2 45.1-25.8 67.6-33.7s43.5-8.2 61.1-10.4 20.3 1.5 20-9.4-46.4-47.4-38-51.7c15.6-3.6 118.7 23.6 130.3 32s16.5-.6 16.6-1.8-53.6-56.9-41.1-52c43.1-1.4 152.8 42.5 152.8 42.5s21.1 17.9 21.4 3.2-44.7-52.3-36.1-53 106.4 34.3 129.3 40.4c38.4 7.3 54.1 42.6 61.4 33.6 11.3-22.7-11.3-83.6-11.3-83.6s51 37.9 82 50.7 33.7 29.7 45.1 48.4 15.2 4.6 15.2 4.6c4.2-6-17.7-65.1-17.7-65.1 76.2 64.5 94.5 107.2 94.5 107.2zm-810.2 575.3l-44 33.7s51.1 8.4 55.9 4-11.9-37.7-11.9-37.7zm47.9 103.4s-17.7 27-18.8 32.7 55.5-18 55.5-18l-26.5-20.2s-5.8-5.9-10.2 5.5zm94.7 34.3s-14.7 2.2-27.6-4.7-3.5 5.9-2.5 8.6 6.7 21.3 31.6 47.5c6.9-7.8 10.6-17.1 9.7-21.8s-5.5-23.5-5.5-23.5 1.1-9-5.7-6.1z" clip-rule="evenodd"/></svg>