<svg xmlns="http://www.w3.org/2000/svg" id="hair" viewBox="0 0 3000 3000"><path id="cl2" fill="#F7EB6A" d="M1224.127 302.2c37.647-2.1 75.393-2 113.139-2.397 71.236-.9 142.564-2 213.797-1.103 70.266.8 140.628 1.603 210.797 4.103 46.746 1.697 93.494 3.8 140.047 7.6 52.36 4.3 104.719 8.9 156.598 17.9 24.102 4.197 48.297 8.697 71.138 18.197 10.066 4.2 20.615 7.9 27.584 17.5-1.064 7.9-7.937 9.103-13.26 11.603C2110.189 391.7 2074.959 403 2038.759 412c-48.294 12-97.269 20.4-146.335 27.7-5.616.8-9.389 3.103-12.875 7.603-11.032 14.397-21.39 29.197-32.325 43.6-8.71 11.5-14.033 11.4-22.646-.1-8.13-10.803-15.97-21.803-23.809-32.702-3.291-4.5-6.969-6.4-12.292-6.102-22.164 1.102-44.327 3.199-66.394 5.102-12.874 1.1-25.746 1.8-38.522 2.398-19.647 1-39.197 2.199-58.846 3-34.842 1.302-69.585 1.899-104.428 1.699-6.484 0-11.034 2.301-14.518 7.9-4.164 6.8-8.52 13.397-12.875 19.897-2.61 3.803-5.129 8.7-10.163 8.303-5.514-.4-7.065-6.103-9-10.7-2.032-4.5-3.388-9.4-5.613-13.8-1.936-4-2.129-9.9-7.841-10.303-5.708-.397-6.872 5.2-9.096 9-2.613 4.603-4.839 9.4-8.13 13.603-4.936 6.3-9.291 6.2-13.935-.4-3.486-4.897-5.807-10.397-8.129-15.897-2.226-5.302-5.71-7.7-11.228-7.603-19.646.2-39.198-1.8-58.844-2.397-29.519-1-59.233-1.302-88.558-6.4-4.743-.8-9.678-.5-14.421.4-4.452.3-8.614-.7-12.678-2.302-21.292-9.5-43.652-16.101-64.749-26.101-21.97-10.4-44.328-20.101-65.717-31.7-8.71-4.7-16.55-10.398-22.551-18.5-8.033-10.898-7.84-20.1.484-30.898 4.355-5.602 9.872-9.5 15.969-12.699 36.778-19.301 75.588-30.2 117.012-30.603 2.71-.098 5.614.702 8.421-.798z"/><path id="cl1" fill="#DBAD3C" d="M1896.002 612.2c-18.774 31.4-36.584 63.3-52.844 98.5-1.551-4.3-2.613-6.8-3.388-9.397-4.743-16.303-10.261-32.2-17.229-47.603-3.096-6.8-3.193-6.8-9.969-3.897-29.559 29.215-16.809 18.732-40.713 37.998-29.617 11.2-48.042 42.638-78.726 50.438-15.099 3.802-27.233-3.636-42.331-7.636-28.164-7.4-142.041-35.193-168.947-46.292-61.942-25.4-136.656-29.31-198.792-54.11-3.001-1.2-6.193-2-8.71-4.2-12.679-11.1-14.711-27-17.131-42.197-5.999-37.2-.192-73.5 9.195-109.4 1.26-4.7 3.195-8.7 6.969-11.7 3.485-2.3 7.259-2.1 11.228-1.8 17.324 1.3 34.745 2.5 52.07 2.7 22.552.2 45.005 3.5 67.557 2.398 7.839-.398 13.55 3.5 17.228 10.602 2.903 5.6 5.227 11.5 8.614 16.7 3.968 6.1 7.743 6.198 12.098.198 3.871-5.301 6.291-11.601 10.259-16.898 5.323-7.2 9.678-6.9 13.937.898 3.484 6.399 5.613 13.399 8.711 20 4.74 10.199 9.194 10.699 15.775 1.399 4.549-6.5 8.808-13.2 12.969-19.899 4.741-7.698 11.228-10.801 20.132-11.398 27.969-1.7 56.036-.8 84.009-2.2 42.394-2.1 84.88-3.2 127.175-7.2 15.97-1.5 32.035-2.3 48.1-4 8.13-.8 14.327 2.7 19.166 9.302 8.033 10.898 15.775 21.898 23.809 32.698 8.035 10.603 12.002 10.7 19.939-.1 9.775-13.2 19.742-26.3 29.133-39.8 6.677-9.7 15.195-14.5 26.422-16.103 58.167-8 115.657-19.1 172.276-35.3 4.451-1.3 10.742-5.2 13.646 3.1-3 2.4-7.064 3.103-9.579 6.303-30.293 21.6-59.038 45-85.071 72-34.068 35.3-63.977 73.897-90.302 115.6-.87 1.4-1.937 2.7-2.806 4-1.65 1.996-2.716 4.196-3.879 6.296z"/><path id="sd1" fill="#EBE154" d="M1224.127 302.2c-1.551 1.4-3.387 1.603-5.422 1.8-42.198 3.2-82.267 14.2-120.013 33.803-7.743 4-13.646 9.8-17.614 17.8-2.321 4.6-2.128 8.7.192 13.3 4.938 9.897 12.874 16.6 22.068 21.6 22.453 12.302 45.682 23 69.009 33.4 19.742 8.8 39.874 17 60.198 24.2 1.161.397 2.129 1.397 3.196 2.1-4.549 5.4-10.646 4.103-16.261 3.603-28.841-2.805-57.683-5.104-86.33-9.305-1.936-.3-3.872-.1-5.807-.5-7.453-1.6-11.229 1-12.486 9.2-1.839 12.103-4.549 24.2-6.969 36.2-.386 2-.678 3.9-1.258 5.8-3.291 11.2-8.807 12.7-16.163 3.8-14.904-18-28.648-36.8-42.875-55.3-1.162-1.5-2.032-3.397-5.517-4.8.098 11.601-.193 22.601-1.936 33.5-.387 2.3-.096 4.7-.58 7-.583 2.9-1.066 6.3-4.454 7-2.711.601-4.937-1.3-6.677-3.2-4.355-4.897-7.937-10.5-11.614-16-7.646-11.5-15.873-22.6-23.035-34.5-5.132-8.5-12.098-12.8-21.585-14.897-42.68-9.103-84.587-20.803-124.559-39C836.407 373.7 825.278 368.4 817.438 358c-3.971-4.5-6.097-10.197-9.098-15.3-1.646-2.7-1.064-4.8 1.162-6.897 3.581-3.5 7.646-6 12.098-8 12.292-5.2 25.26-7.7 38.326-9.9 37.94-6.3 76.363-6.9 114.593-8.5 58.942-2.4 117.786-4.6 176.825-5.7 20.616-.397 41.23-1.2 61.844-1.8 3.777-.101 7.358.197 10.939.297z"/><path id="sd2" fill="#AB8730" d="M1274.742 464.199c-5.517 9.7-6.966 25.603-9.192 36.2-4.355 20.4-6.968 41.2-6.58 62.2.384 21.5 3.968 42.3 13.355 61.7.968 2.1 2.13 4.1 2.13 6.6-4.938.301-8.81-3.8-14.811-3.699 2.807 7.899 9.098 12.199 13.55 17.8 4.743 5.899 9.872 11.399 14.811 17.102 4.936 5.7 9.869 11.5 14.708 17.2 4.839 5.698 9.582 11.5 15.779 19-31.65 3.5-61.458 6.898-92.045 10.3 2.42 5.101 5.807 7.2 8.711 9.7 21.002 18.198 42.101 36.3 63.104 54.5.774.6 1.452 1.398 2.226 1.898 3.871 2.8 2.806 5.102-.484 7.602-11.13 8.5-22.162 17.198-33.292 25.8-11.13 8.601-22.164 17.3-33.294 25.8-3 2.301-4.743 4.7-5.227 8.801-3.774 30-7.936 60.102-12.001 90.102-4.453 32.6-9 65.3-13.55 97.898-2.127 1.199-2.611-.698-3.485-1.898-6.387-26.802-13.258-53.5-23.325-79.2-6.387-16.102-13.55-31.7-23.809-45.5-5.518-7.5-11.907-14.1-19.94-18.6-9-5-18.29-5.9-28.067-2.5-7.743 2.698-7.84 2.6-11.614-4.603-30.388-56.8-60.875-113.6-91.268-170.5-53.039-99.1-105.979-198.199-158.92-297.3-4.549-8.4-8.71-17.102-13.066-25.602.968-5.801 5.033-3.7 8.033-3 4.355 1.102 8.325 3.5 12.485 5.3 38.811 16.7 79.169 28.399 120.206 37.302 10.548 2.3 18.098 7.398 24.003 16.601 10.646 16.699 22.162 32.801 33.1 49.301 2.517 3.801 4.937 8.601 10.548 6.699 5.033-1.699 4.549-6.699 4.743-11 .388-6 1.839-11.801 2.226-17.801.194-3 .872-6.3 3.872-7.6 3.581-1.5 6.194 1.1 8.324 3.6 8.519 10 16.356 20.603 24.294 31.103 3.388 4.397 6.484 9.198 10.163 13.3 2.805 3.1 5.032 7.6 10.064 6.398 5.615-1.301 5.709-6.801 6.583-11.198 2.032-10.4 4.646-20.802 6.483-31.302.484-3 1.161-5.898 1.936-8.801 2.518-10.1 5.807-12.5 15.872-11.6 23.132 1.898 46.167 4.6 69.201 7 20.809 2.198 41.714 2.698 62.523 5.398 3.485.5 6.292-3.053 9.196-.452-.866-3.252 1.45-.448 1.741-.049zm-27.387-12.099c15.485.8 30.872 1.6 46.357 2.398 20.908 1.102 41.811 2.5 62.717 3.399 18.971.9 38.038 1.5 57.006 1.9 4.839.1 7.743 2 9.775 6.397 3.774 8.4 7.841 16.7 12.197 25.9 6.581-8.2 10.162-16.8 14.614-24.7 1.549-2.8 2.807-6 6.485-7 6.291-1.7 10.355.2 12.969 6.8 3.969 9.9 7.743 19.8 11.614 29.603.192.6.775 1 1.452 1.897 3.388-1.6 4.547-5.2 6.389-8 5.226-8 10.453-16 15.388-24.3 2.612-4.5 5.905-6.5 11.032-6.3 7.453.3 14.809-.103 22.261 0 35.52.5 70.943-1.2 106.365-2.8 44.135-2 88.172-4.4 132.111-9 21.194-2.2 21.194-2.103 33.874 15.3 6.968 9.6 13.936 19.2 21.002 28.7 5.032 6.8 5.421 6.8 10.261.197 12.098-16.397 24.292-32.8 36.195-49.397 3.29-4.7 7.066-6.8 12.681-7.5 66.781-9.4 133.175-21.2 197.73-41.802 24.002-7.698 47.715-16.398 69.491-29.801 5.033 6.4 5.131 6.603-.968 9.5-14.42 7-28.938 13.9-43.455 20.7-8.711 4-15.872 11-25.164 14-3.678-3.8-7.549-.8-10.839.2-17.905 5.398-36.102 10-54.297 14.3-29.52 6.9-59.232 12.4-89.042 17.301-12.68 2.102-25.357 4.399-38.132 5.802-5.808.6-9.389 3.198-12.68 7.698-11.808 16.199-24.004 32.102-35.618 48.5-8.711 12.199-15.292 8.699-21.39.5-8.809-11.898-17.904-23.601-26.035-35.898-4.936-7.602-10.937-9.8-18.969-7.7-9.488 2.5-19.261 1.9-28.746 2.6-13.742 1.103-27.583 2-41.326 3.103-15.969 1.2-32.229.2-48.101 3.2-1.259.197-2.612.197-3.871.197-32.521-.197-64.944 3.2-97.56 2.303-14.132-.4-28.165 2.8-42.393 1.8-3.969-.3-6.581 1.6-8.711 5-5.613 9-11.516 17.7-17.035 26.7-2.806 4.6-6.193 7.6-11.712 7-5.225-.603-7.452-4.4-9.194-9-3.58-9.5-7.549-18.803-11.614-29-6.677 6.3-8.419 14.5-13.162 20.697-.968 1.303-1.452 3-2.323 4.303-5.129 7.8-13.066 7.8-17.711-.5-3.678-6.603-6.969-13.603-9.969-20.5-2.129-4.9-5.323-7-10.55-6.7-25.454 1.1-50.812-1.603-76.266-2.5-18.583-.603-37.262-.7-55.749-3.4l-.484-.5c-2.708-4.199-7.259-2.897-11.032-4.1-5.706-1.697-13.352 1.003-15.868-7.497zm-11.614-2.1c-5.517-.1-10.939 0-16.453-.5-32.716-3.1-65.429-6.197-98.045-10.5-6.775-.897-6.966-.897-8.517 6-2.419 11.4-4.355 22.9-6.874 34.2-1.836 8-2.032 16.4-6.387 25.3-19.938-25.8-39.198-50.8-58.555-75.897-.774.3-1.452.5-2.226.8-.484 18.4-1.162 36.7-3.001 55-3.774-.5-4.548-3.398-5.905-5.5-9.096-13.398-18.969-26.3-26.906-40.3-8.904-15.8-20.615-23.8-38.424-27.2-38.714-7.4-76.361-19.101-112.754-35.2-11.904-5.3-22.645-12.5-34.259-18.397 2.71 8 7.065 15.1 11.42 22.197 3.388-3.3 6.001.103 8.613 1.303 17.323 8.197 35.133 14.8 53.231 21 27.583 9.5 47.043 15.148 75.304 21.45 5.421 1.198 19.042 5.514 22.14 10.313 7.297 9.751 7.297 9.751 19.781 28.352 1.066 1.601 17.787 26.583 19.048 28.083 3.094 3.698 6.193 8.302 10.548 6.699 4.406-1.7 4.186-4.507 4.67-8.708.192-2 .996-9.203 1.188-11.203.777-8.102.484-16.039 6.479-16.887 4.169-.902 14.154 12.792 20.445 20.992 7.355 9.601 14.444 19.053 21.897 28.653 2.806 3.601 5.425 6.454 9.878 5.454 4.453-1.102 4.653-4.356 5.331-9.356.871-5.9 2.406-11.28 3.57-17.181 2.127-10.399 2.921-21.643 7.404-31.354.872-3.7 8.083-6.91 13.698-5.31 5.709 1.6 15.465 1.334 21.175 1.934 17.519 2 28.232 2.429 45.75 4.828 9.871 1.3 19.038 1.633 29.009 2.433 15.677 1.301 30.855 3.307 46.728 2.704-1.258-3.199-8.418-3.997-15.581-5.196-7.743-.398-10.938-2-12.196-6.801-3.481-.805-7.352-1.505-11.224-2.205z"/><path fill="none" stroke="#000" stroke-miterlimit="10" stroke-width="6" d="M2156.065 372.802s33.972-41.303-275.739-67.9c0 0-935.035-26.5-1058.338 22.8-33.972 14.8-3.484 32.4 11.712 61.5 15.195 29.103 262.963 490.2 262.963 490.2s59.715-38.398 106.077 146.5c17.615-94.898 25.455-188 25.455-188l76.168-65-77.912-69.1 92.042-10.303-58.846-71.197s412.397 116.164 425.853 115.864c12.871 3.197 34.334-11 77.667-43.723 40.192-30.351 55.217-46.544 55.217-46.544l24.778 62.7s95.913-203.4 244.381-302.603c46.939-27.996 68.522-35.194 68.522-35.194z"/></svg>