<svg xmlns="http://www.w3.org/2000/svg" id="hair" viewBox="0 0 3000 3000"><path id="cl1" fill="#1E1E1E" fill-rule="evenodd" d="M2000 384c1.5 28.4-1.8 56.6-4.5 84.7-3.5 35.8-7.8 71.5-13.5 107.1-9.4 58-21.8 115.2-42.4 170.5-7.5 20.1-17.9 38.7-29.8 56.5-1.9 2.9-3.5 6.5-8 7.8-3.1-3.8-2.7-8.7-3.2-13.1-4.5-39.1-11.3-77.8-20-116.2-2.5-10.9-6.8-20.8-12.9-30.1-10.7-16.1-22.8-31.2-35.2-46-6.1-7.3-8.6-7.7-15.4-1-44.1 43.1-96.8 72.5-152.9 96.7-5.7 2.4-13.1 3.4-14.7 10.7-1.9 8.3-.2 16.6 4 24.1 2.1 3.8 4.9 7.2 7.3 10.7 9 13.4 9.3 26.7-.2 40-5.8 8.1-11.6 16.1-18.4 25.4-.4-5.6 1.6-8.7 3-12 2.4-5.5 4.7-11 7.3-16.4 4.3-8.9 2.6-16.8-3.1-24.3-5.1-6.7-11-12.6-17.2-18.1-11.8-10.3-21.5-21.7-25.4-37.4-1.5-6.3-7-8.4-12.3-10.7-27.9-11.8-55.9-23.6-83.8-35.4-49.7-21-99.5-42-149.2-63-15.3-6.5-17-5.9-25.6 8.3-18.5 30.5-36.1 61.5-53.9 92.4-5.6 9.8-4.3 17.1 1.7 25.6 11.1 15.8 21.6 32.1 32.3 48.1.9 1.4 1.9 2.8 2.7 4.2 3.4 6.3 3 8-3.2 12.3-2.2 1.5-4.5 2.8-6.8 4.2-24.7 15.2-49.5 30.3-74.1 45.5-10.7 6.7-11.1 7.3-7.4 19.4 13.8 44.9 27.7 89.8 49.1 131.9 14.2 28 31 54.4 51.9 78 22.9 25.8 50.1 44.8 84.6 51.7 14.3 2.8 28.4 3 42.3-2.1 8.8-3.2 17.7-5.9 26.6-8.7 2.5-.8 5.3-2.3 7.4.3 2 2.4.5 5.1-.5 7.6-5.2 13-9.9 26.2-12.8 40-6 28.6-6 57.6-3 86.5 1.2 11.8 6.7 22.3 12.5 32.4 4 6.9 8 13.7 11.9 20.4-2.6 3.1-4.9 1.3-6.8.5-60.6-24-116.9-55-165.7-98.7-30.4-27.2-57.7-57.1-82.5-89.5-12.5-16.4-22-33.9-30-52.7-17.3-40.5-32.9-81.6-47.7-123-2.3-6.6-4.7-13.2-8.2-19.3-3.4-5.9-8-9.7-14.6-11.2-5.5-1.3-10.9-3.1-16.5-4-7.5-1.3-11.3-6-13.9-12.7-12.8-33-24.2-66.3-33.2-100.6-12.8-49.1-22.6-98.8-27.4-149.3-3.9-41.8-5.9-83.6-3.6-125.7 2.1-39.3 4.5-78.5 10.4-117.4 2.7-18.3 8.1-35.7 14.6-52.9 2.6-7 4.8-7.6 11.2-3.7 11.6 7.2 23.1 14.6 34.6 21.9 3.8 4.8 9.8 6.4 14.3 10.2.7.7 1.4 1.2 2.2 1.6.9.4 1.7.8 2.5 1.4 21.1 12.3 39.5 27.9 56.2 45.6 11.2 11.9 23.4 22.8 35.3 33.9 5.3 4.9 10.8 5.7 17.4 3.2 57.2-21.7 116.9-30.9 177.3-37.4 39.1-4.2 78.2-7.4 117.4-9.2 30.6-1.4 61.3-1.7 91.8 1.9 33 3.9 66.4 5.2 99.2 11.5 37.7 7.2 74.9 16.2 110.3 31.3 9.7 4.1 19.1 5.1 29.2 2.2 44.1-12.6 84.7-31.9 119.2-62.8 3.3-2.8 6.2-8.1 11.8-3.6zm-147.3 667.9c-9.6 14.6-22.4 25.4-38.6 32-8.7 3.5-17.8 5.3-27.1 6.3-7 .7-7.7 2.5-3.7 8.1 6.3 8.6 11.9 17.6 16.7 27.2 7.1 14.1 11.3 29.1 15.1 44.3 1.7 6.6 3.9 7.3 8.8 2.9 10.8-9.6 19.3-20.8 25.3-34.2 13-29.1 11.4-59.7 10.6-90.3 0-.6-.6-1.1-1.3-2.2-3.6.9-4.4 3.7-5.8 5.9z" clip-rule="evenodd"/><path id="hl1" fill="#3B3B3B" fill-rule="evenodd" d="M2000 384c-21.1 20.1-44.5 37-71 49.4-19.3 9-38.9 17.3-59.7 22.6-11.1 2.8-21.3 2.3-31.9-2.9-19.8-9.7-41.2-15.5-62.4-20.9-25.8-6.6-51.9-11.9-78.4-14.9-24.8-2.8-49.7-4.6-74.5-7.2-19.3-2.1-38.6-2.2-57.9-1.9-36.3.7-72.5 2.7-108.6 6.4-23.2 2.4-46.4 4.5-69.5 7.5-40.7 5.2-80.7 14-120.1 25.1-8 2.3-15.7 5.4-23 9.7-8.4 4.9-9.8 4.7-16.4-1.7-13.8-13.5-27.8-26.7-41.2-40.6-16.5-17.1-35.2-31.5-53.3-46.6-.7-.6-1.4-1.2-2-1.9-.9-2.5.2-3 2.4-2.4.6.2 1.2.4 1.8.7.7.6 1.5 1.3 2.4 1.6.6.1 1.1.3 1.6.5.7.6 1.5 1.1 2.3 1.5 8.2 3.7 16.3 7.5 24.5 11.2 46.9 21.6 96 30.3 147.7 27.9 58.6-2.7 117-7.3 175.5-10.6 56.9-3.3 113.8-2.6 170.7.5 43.8 2.4 86.4 11.5 129.5 18.1 26 4 52 7.7 78.4 7.6 34.7-.1 66.2-10 95.5-28.2 10.5-6.5 20.3-13.9 29.9-21.7 2.5-2 4.5-5 8.8-4.5 1.7 5.4-1.1 10.5-1.1 15.7z" clip-rule="evenodd"/><path fill="none" fill-rule="evenodd" stroke="#000" stroke-miterlimit="10" stroke-width="6" d="M2000 384l1.6 27.8c-12.9 178.2-26.6 189.5-28.8 214.5s-30.4 112.3-34.7 123.7-36.8 72-37 59.6-15.9-97.4-20.6-119.8-12.8-31-13.9-37.1-33.9-41.6-34.7-45.7-8.9-18.9-21.3 1.4c-34.9 42.7-145.8 91.3-150.2 93.2s-17.8 4.9-13.4 22.3c30.6 46.6 18.4 44 16.9 51.9S1641 814 1641 810.4s8-33.7 11.1-41.6-13.2-15.4-17.3-23.4-23.2-10.1-26.8-31.9-18.6-21.8-18.6-21.8-213.6-90.3-232.7-98.3-23 9.4-23 9.4-38.4 69.6-51 87.3-2.8 28.3-2.8 28.3 15 32 32.2 47.9-.9 20.5-.9 20.5-66.7 40.9-80.4 49.4-7.8 9.2-4.9 21c11.8 68.3 57.9 147.3 88.4 193.1 87.8 96.1 148.5 60.4 151.3 59.5s28.8-16.1 22 .9c-24.9 58-17.2 124.3-17.2 124.3 6.7 34.3 35.3 67.1 22.6 59.2-66.3-20.8-153.7-75.5-217-146.4-49-40.6-70-105.7-70-105.7s-35.3-79.7-43.9-114.3-26.3-30.2-26.3-30.2c-4-1-19.1.8-22.9-9.3-15.1-23.7-44.9-126.3-55.9-195.7s-18-166.6-6.6-259.9 24.6-102.9 24.6-102.9 46.1 28.6 72.1 41.2c74 35.1 151 36.5 206 34 174.9-18 302.9-18 390.8 2.6s149.7 12.9 149.7 12.9c47.6-6.5 107.4-52.3 107.4-52.3 2 4.5-1 15.8-1 15.8zm-144.1 663.2s-26.2 41.3-72.2 43.4c-9-.9-3.4 5.5 0 9.4s27.7 43.6 31.3 69.7c-.1 15.1 10.6 1.7 14.4-2.4 0 0 39.2-23.3 30.3-114.8-.7-13.7-3.8-5.3-3.8-5.3z" clip-rule="evenodd"/></svg>