<svg xmlns="http://www.w3.org/2000/svg" id="hair" viewBox="0 0 3000 3000"><path id="cl1" fill="#3E3633" d="M1247.5 429.5S1217 436 1195 453c0 0-27.5 25-36 41 0 0-10.937 17.754-16.437 31.254 0 0-22.563 37.996-50.2 44.283 0 0-39.863 12.963-59.363 55.463 0 0-24.969 19.641-20.969 89.141 0 0 33.136 28.359 43.378 62.15C1065.327 809.01 1027.5 864 1079 911c0 0 19 15 46.5 18.5 0 0 20.5 1.5 44 41 0 0 6.036 35.575 25.536 39.075 0 0 14.644 3.86 29.214 0 10.264-2.719 9.397-9.203 17.25-14.575 0 0 28.375-1.875 16.235-37.288 0 0 14.14-9.712 14.084-41.262 0 0-8.195-13.825-16.981-38.307 0 0-1.839-19.893 30.286-39.487 0 0 17.25-12.655 15.75-27.78-.914-9.211-4.782-18.039-19.376-38.446 0 0-13.999-12.429-17.499-25.929 0 0 1.774-17.35 9.5-29.5 0 0 29-48.5 88-27 0 0 17.5 19.5 30.5 28 0 0 36 25 85-8.5 0 0 33.5-30 52.5-36 0 0 25.5-15 62.5 6.5 0 0 36.64 33.031 60.14 34.531 0 0 30.687 4.774 50.187-14.726 0 0 23.615-34.291 46.174-34.639 27-.417 27.75 20.083 75.5 19.333 0 0 34.5-4.5 55.5-39 0 0 14-21.5 13.5-55.5 0 0 3.5-31-30-54.5 0 0-26.5-19.5-79.5-28 0 0-22.5-5-35.5-30 0 0-17-34.5-73-53.5 0 0-64.5-31-147.5-13 0 0-38.5 7.5-67.5 24 0 0-69 10.5-118.5-1.5l-94-4z"/><path id="sd1" fill="#332C2A" d="M1061.4 584.9s-.899 56.6 14.3 77.8c0 0 13.5 26 45 16.8 0 0-2.8 1.302-4.8 7 0 0-10 28.302-3.301 56 0 0 4 23 13.301 29.302 0 0 10.5 11.8 32 1.8 0 0-2 14.301 5.5 26.5 0 0 10 28 26 42 0 0 24.957 17.207 39.226 18.148 24.625 1.625 60.594-26.675 67.794-29.875 0 0-46.118 41.245-19.125 70.91 0 0 21.58 23.09-6.795 55.715 0 0 15 33.75-16 38 0 0-46 32-70.812 7.956 0 0-14.063-21.956-15.989-35.154 0 0-15.198-30-33-34.802 0 0-39.3-11.6-54-20.6 0 0-18.3-24.101-29.698-48 0 0 5.181-53.989 6.281-72.39 0 0-.782-23.761-16.339-35.401-6.825-5.107-21.11-26.776-21.11-26.776S994 686 1018.26 636.504c0-.201 12.74-38.754 43.14-51.604z"/><path id="hl1" fill="#483E3B" d="M1163 484.473s42-51.724 91.4-57.672c0 0 20.85-12.552 86.159 1.121 0 0 60.841 21.879 116.639 7.478l5.5-1.8s76.552-38.101 133.803-41.822c0 0 83.249-.003 142.999 73.522 0 0 4.5 3.898-24 5.398 0 0-8.5 1-24.5-3.8 0 0-53.802-22.3-82-24.5 0 0-25.802-5.3-40.302-3.8 0 0-60-4.8-95.5 40 0 0-2.399 3.2-5.801-.699 0 0-27.699-14-48.199-18 0 0-48.5-11.8-67 13.5 0 0-1.399 1.3-.399 7.399l-3.799-5s-4.802-6.399-13.302-9.802c0 0-26.101-8.898-45-10.6l-32.5.1s-23.301 2.9-41.301 11c0 0-49.098 25.902-56.397 30.502l-4.407 1.146 3.907-7.396 4-6.275zm47.5 168.027l50.3-36.3C1275.5 604 1295 596 1295 596c8.8-3 11.3-2 11.3-2 7.3-1.5 14.8 2.302 14.8 2.302 12.301.8 7.5-4.302 7.5-4.302-9.5-7-37.8-13.5-37.8-13.5-27.8-7.8-53.3 3.302-53.3 3.302-48 26.8-43.302 62.8-43.302 62.8l16.302 7.898zm388.9-73.698c18.899 4.3 60.101 20.5 60.101 20.5 8.5 6.5 9.5 9.8 9.5 9.8 9.5 8 9 2.801 9 2.801-36.801-58.801-77.5-63.801-77.5-63.801-16.5-3.8-39.801 2-39.801 2-10.5 5-40 16-40 16 10.8-.3 78.7 12.7 78.7 12.7zm161.4-21.402c4.3.1 54.898 12.6 54.898 12.6 8.5 1.4 35.802 9.9 35.802 9.9 11 3.1 20.398 12.899 20.398 12.899 5.899 4.8 5.801 2.601 5.801 2.601-2-9.101-30.301-36.4-30.301-36.4C1833.5 546 1820 543.6 1820 543.6c-13.602-4-26.4-1.602-26.4-1.602-17 1.602-32.1 15.4-32.1 15.4"/><path fill="none" stroke="#000" stroke-miterlimit="10" stroke-width="6" d="M1281.5 421.167C1258.476 422.088 1217 436 1195 453c0 0-27.917 24.786-36 41-3.471 6.963-15.213 30.285-23.167 42.5-8.821 13.546-15.929 15.211-46 34.667-17.529 11.341-46.708 12.625-66.833 54.833-13.108 27.491-24.382 60.441-3.167 103.833 14.667 30 30.442 26.1 36 48C1064.789 813.12 1027.5 864 1079 911c0 0 19 15 46.5 18.5 0 0 20.5 1.5 44 41 0 0 .5 33 32.5 41.5 0 0 39 4.5 52.5-17 0 0 29 .5 16-38 0 0 18.432-13.562 14-43-1.777-11.806-23.558-22.209-14.5-45.5 10.5-27 32-29.845 31.5-60.5-.293-18.005-18.914-32.547-34.13-54.458 0 0-10.407-22.902 8.13-39.542 16.611-14.911 41.666-42.167 86-24 9.578 3.925 17.5 19.5 30.5 28 0 0 36 25 85-8.5 0 0 33.5-30 52.5-36 0 0 25.5-15 62.5 6.5 0 0 33.667 32.333 57.167 33.833 0 0 31.167 9.032 50.667-10.468 0 0 26.157-39.733 48.666-38.198 29.334 2 43.5 26.833 75.5 19.333 0 0 34.5-4.5 55.5-39 0 0 16-20.5 15.5-54.5 0 0 .5-31-33-54.5 0 0-25.5-20.5-78.5-29 0 0-22.5-5-35.5-30 0 0-30.836-46.334-76-65.5-45.227-19.193-76.169-31.501-144.5-5-17.034 6.606-32.584 16.166-67.5 28-18.667 6.327-28.835 10.551-78.833.833-24.722-4.805-74.502-15.673-99.667-14.666z"/></svg>