<svg xmlns="http://www.w3.org/2000/svg" id="hair" viewBox="0 0 3000 3000"><path id="cl1" fill="#3E3633" d="M1111 599c6.699-20.699 22-48 22-48 56-98 159.3-120.699 159.3-120.699 109.3-42.001 268.7-6 268.7-6 35.3 6.699 105.3 24 105.3 24 78.7 14.699 126-30.7 126-30.7 0 19.3-12.7 54-12.7 54h46.7c-16 19.3-29.3 40.7-29.3 40.7 54.699 12.699 48.8 19.199 48.8 19.199-9.3 19.301-46.5 87.301-46.5 87.301l-20.8 35L1745 677.7l-11.301-8C1590.3 585.7 1523 595 1523 595c-79.301-2-147.301 59.301-147.301 59.301l-42 5.3c-18 0-10.699 6.7-10.699 6.7l37.3 37.3c-4 20-23.3 79.301-23.3 79.301-5.301 16.699-10.5 36.599-10.5 36.599-21.301-5.3-51.5 42-51.5 42-14.7 20-6.7 61.401-6.7 61.401 6 20.699 0 42 0 42-37.3 44.699-87.3 35.3-87.3 35.3-12.7-14-63.096-27.098-63.096-27.098-58-52.7-79.604-126.902-79.604-126.902-18.7-110 60.7-226 60.7-226 6.1-9.401 12-21.202 12-21.202zm718.8-33l-46.3 90.801s55.3 46 64 59c0 0 12 5.5 18.8-23 0 0 5-75.801-36.5-126.801z"/><path id="sd1" fill="#352E2B" d="M1059.5 697.4s28 78.6 89.5 55.1c0 0-10 42.5 10.5 64 0 0 34.5 43 137 0 0 0-28.601 32.601-35 48.601 0 0-7.301 19.7 7.399 59.801 0 0 5.3 28.101-.5 40.101 0 0-29.801 36.3-80.301 36.1l-7-.8s-8.398-25.001-60.599-24.802c0 0-119.301-82.599-71.101-249.099L1059.5 697.4zm696.8-60.9c-8.8 7.801-38 26.301-38 26.301l27.8 14.101 33.4-24.801 36.199-67.8C1811 588.9 1756.3 636.5 1756.3 636.5zm58.1-43.1l-33.1 59.9 57.7 60.3s14.899 10.801 23.5-9c0 0-.2-25.399-3.2-38.899 0 .1-13.101-46.601-44.9-72.301z"/><path id="hl1" fill="#4E4440" d="M1217.8 463.301S1215.699 505 1221 527c0 0 47.5-7.5 68-23 0 0 12-4.5 14 .5 0 0-17.5 23.5-19 34.5 0 0 13.5-3 25-9 0 0 14.5-9.5 24.5-11.5 0 0 27.5-5.5 14 17 0 0-15 17.5-14 22.5 0 0 59-25.5 66-31 0 0 8-4.399 10 .5 0 0-66.801 34.7-102.7 104.5 0 0 2-18 4.3-27.199 0 0 1.301-13.7.2-20.601 0 0 .7-2.899-4-5.601 0 0-9-3-21.3 2 0 0-36.7 11.7-71.301 40.2 0 0 7.301-19.3 10-27.5l.2-11.8s-.5-5.7-10.2-1.301c0 0-26 10.2-61 38 0 0 1.301-41.8 5.5-56.199 0 0-23 7.199-39 17.3 0 .002 31.701-79.599 97.601-115.998zm551.899-17C1769 467 1752.4 499 1752.4 499l43.5-6-21.5 35.301 44.699 8.699-36 60.7 46.7-35.2 15-33.8-47.7-16.399c8.7-15.301 29.301-40.7 29.301-40.7h-46.7c6.7-16 12.7-54 12.7-54-16.7 15.3-45.301 25.399-45.301 25.399l22.6 3.301zM1612.3 502.5c26 3.5 67.3 5.2 67.3 5.2-17.3 9.3-50.699 40-50.699 40 17.301-7.399 46.699-6.601 46.699-6.601 17.301-2.699 9.301 6.601 9.301 6.601-8.699 11.3-20 21.399-20 21.399 19.301-2.699 47.301-4 47.301-4-14 16.7-32.7 28.7-32.7 28.7 30.7 7.3 87-6.399 87-6.399l14.7-21.301-43 3 22.699-55.199-46.699 15.899 28.699-58c-14 18.7-130.699 27.3-130.699 27.3l.098 3.401z"/><path fill="none" stroke="#000" stroke-miterlimit="10" stroke-width="6" d="M1111 599c6.699-20.699 22-48 22-48 56-98 159.3-120.699 159.3-120.699 109.3-42.001 268.7-6 268.7-6 35.3 6.699 105.3 24 105.3 24 78.7 14.699 126-30.7 126-30.7 0 19.3-12.7 54-12.7 54h46.7c-16 19.3-29.3 40.7-29.3 40.7 54.699 12.699 48.8 19.199 48.8 19.199-9.3 19.301-46.5 87.301-46.5 87.301l-20.8 35L1745 677.7l-11.301-8C1590.3 585.7 1523 595 1523 595c-79.301-2-147.301 59.301-147.301 59.301l-42 5.3c-18 0-10.699 6.7-10.699 6.7l37.3 37.3c-4 20-23.3 79.301-23.3 79.301-5.301 16.699-10.5 36.599-10.5 36.599-26 4.12-51.5 42-51.5 42-14.7 20-6.7 61.401-6.7 61.401 6 20.699 0 42 0 42-37.3 44.699-87.3 35.3-87.3 35.3-12.7-14-60.5-24.701-60.5-24.701-58-52.7-82.2-129.299-82.2-129.299-18.7-110 60.7-226 60.7-226 6.1-9.401 12-21.202 12-21.202zm717.8-35l-50.3 88.801s54.3 50 63 63c0 0 18 5.5 24.8-23 0 0 9-73.801-37.5-128.801zm-721 41.1s-.101 53.301 28.5 89.899m-20 111.302c-19.3 10.699-76.5 51.3-76.5 51.3M1127 853c-17.301 7.301-65.589 45.173-65.589 45.173M1116.3 911c-20.7 14-32.037 23.552-32.037 23.552M1209 944.301c8.699-10.101 50.5-69.5 50.5-69.5m415.8-236.5c55.3-12.601 131-78.7 99-73.101-32 5.601-32 3.8-32 3.8 0-20.699 29.3-62.699 14.7-56-14.601 6.7-44.7 27.301-38 14.7 6.699-12.601 21.3-53.3 21.3-53.3-26.7 23.3-188.7 33.3-188.7 33.3-63.3-.7-122 18-122 18-83.3 21.3-67.5 130.399-67.5 130.399"/></svg>