<svg xmlns="http://www.w3.org/2000/svg" id="hair" viewBox="0 0 3000 3000"><path id="cl1" fill="#352E2B" d="M1211.5 546.5s88.5 47 107 60.5c0 0 29.5 37.5-22.5 96.5 0 0-16 18.5-33 22 0 0-17.5 12.5-23.5 34 0 0-12 41.5-13 76 0 0 9 25 30.5 31.5l-9 59.5s-23 24-52 38.5c0 0-33.5-23.5-78.5-26 0 0-21.158-18.921-33.158-40.921 0 0-77.342-158.579-63.842-255.079 0 0 4-85.5 93-157 0 0 104-80.5 304-89 0 0 84-8 171 4.5 0 0 185 25 281 87 0 0 21 10.5 25.5 18.5 0 0-26.998 72.323-79.671 119.232 0 0-39.329 26.268-120.329-22.232 0 0-71-33.5-101.5-35.5 0 0-18-7-24.5-29l-17.5-55.5s-6-6.5-5 2c0 0 21.5 54 17.5 76.5 0 0-53.5-13-76-13 0 0-9.5-7-21.5-18 0 0-25-41-41-51.5 0 0-15-11.5-2.5 5.5 0 0 30 23.5 45 65.5 0 0-38.5 11.5-56 26 0 0-28.5 14-49 23.5 0 0-9 7.5-40.5-6.5l-52.5-20s-82-47-58.5-27.5z"/><path id="sd1" fill="#2B2523" d="M1023.4 624.4s31.101 87.6 107.101 69.1V713s11.899 21.7 40 27.5l58.3 20.301s3.7 17.699-33.3 21.699h-74s25.5 27 52 33c0 0 59.8 33.4 61.5 77.5 0 0 4.399 34.4-8.5 52.5L1196 965s-51.5-28.5-78.5-26c0 0-22.303-17.399-36.902-49 0 0-82.798-190.3-57.198-265.6z"/><path id="hl1" fill="#3F3733" d="M1326.8 634c-10.7 72.5-59.3 91-59.3 91-38 14.5-42.4 109-42.4 109 3.101 13.5 32.4 35 32.4 35l-9.5 57.5-21.5 19c15.5-28 8-58.3 8-58.3-14.101-50.8-60.9-71.7-60.9-71.7-32-11.5-50-31-50-31 50 0 84.2-4.1 84.2-4.1 21.699-2.101 28-27.4 28-27.4 7.899-14.1 1.8-23.5 1.8-23.5-39.399-67-89.1-80.699-89.1-80.699 47.5 16.8 87.199 33.699 87.199 33.699 48.2 14.5 60.301-19 60.301-19 7-32.5-43-52-43-52 21 1.5 73.6 20 73.6 20m408.2-198.8S1707.5 540 1702 563.5c0 0 29-45.5 67.5-62 0 0 0 55-7 78.5 0 0 27.5-38 46-51v72s4-6.5 17.5-13c0 0 21.269-13.065 38.369-26.666 0 0 21.555-33.587 30.631-54.334 0 0-71.2-53-160.2-74.3z"/><path fill="none" stroke="#000" stroke-miterlimit="10" stroke-width="6" d="M1211.5 544.5s88.5 49 107 62.5c0 0 29.5 37.5-22.5 96.5 0 0-16 18.5-33 22 0 0-17.5 12.5-23.5 34 0 0-12 41.5-13 76 0 0 9 25 30.5 31.5l-9 59.5s-23 24-52 38.5c0 0-33.5-23.5-78.5-26 0 0-20-16.5-32-38.5 0 0-78.5-161-65-257.5 0 0 4-85.5 93-157 0 0 104-80.5 304-89 0 0 84-8 171 4.5 0 0 185 25 281 87 0 0 21 10.5 25.5 18.5 0 0-34.805 68.501-74.305 118.001 0 0-44.695 27.499-125.695-21.001 0 0-71-33.5-101.5-35.5 0 0-18-7-24.5-29l-21-55s-.5-6.899.5 1.601c0 0 19.5 53.899 15.5 76.399 0 0-53.5-13-76-13 0 0-9.5-7-21.5-18 0 0-26-35.8-40.4-49.6 0 0-13.6-13.4-.1 2.8 0 0 27 24.3 42 66.3 0 0-38.5 11.5-56 26 0 0-28.5 14-49 23.5 0 0-9 7.5-40.5-6.5l-52.5-17s-82-52-58.5-32.5zm32.8 317.2l-33.3 16m-77.301-74.7l94 16.2M1175 735l62.699 30M1289 711.7s-24.7-28-44.7-40.7m-46.601-85.3c-46.699-30-136-46-136-46m324 50c-115.3-121.3-211.3-138-211.3-138m289.901 78.601C1429 469 1331.6 403.6 1331.6 403.6M1565 536.301c-15.301-67.301-65-141.9-65-141.9M1652.3 585.7c9.3-94.7-9.3-172.7-9.3-172.7"/></svg>