<svg xmlns="http://www.w3.org/2000/svg" id="hair" viewBox="0 0 3000 3000"><path id="cl1" fill="#3E3633" d="M1135 441S982.036 543.685 967 696c-11.5 116.5-5.07 108.5 46 242 0 0 73.199 124 81.6 151 0 0 10.4 13-18.6 60l-23 39 61-6s1 14-6 42c0 0 43-31 92-32l-11-31s-13-25-16-57l35-105s58 84 89 100l-23-90s-1-11 8-3l61 33-45-176s3-23 16-41c0 0 26-27 37-61 0 0-6-115-15-154 0 0-2-19 22 8 0 0 220 158 353 136l30.5-5-121.5-81s-15-16 10-2c0 0 119 65 175 76l121.919 14.842S1878 717 1896 665c0 0-2-140-108-224 0 0-92-62-231-86 0 0-124-35-262 12 0 0-88 39-81-66 0 0-27 47-49 78 0 0-99-8-117 42 0 0 88-12 87 20z"/><path id="sd1" fill="#37302D" d="M1044 780c17 84 130 86 130 86 31 111 116.699 208.301 116.699 208.301L1297 1099c-26-13-89.2-100.199-89.2-100.199l16.405 135.639 45.351 81.327C1194 1179 1108 1224 1108 1224l6-42-61 6 15.5-26.3c40.5-54.301 24.6-77.399 24.6-77.399L1012 938l-46.92-154.652C1006.18 795.347 1044 780 1044 780zm292-234s7.199 26.101 3.1 54.5c0 0 231.9 172.5 371.9 150.5l5.899-4.899C1716.9 746.1 1411 684 1336 546zm275 80l12.699 33.7s130.7 68.7 163.899 74.8c0 0 92.456 19.959 135.456 18.959l-22.323-31.442C1900.632 722.016 1802 742 1611 626zm-492.7-164.3c18-8.7 151.3 6 151.3 6-61.3-31.3-138-36.601-138-36.601 30.2 11.401-31.2 39.301-13.3 30.601zm118.2-93.7s-10.2 58.301-4.2 75c0 0 20.3-47.1 40.8-69.899 0-.001-23.3 7.999-36.6-5.101z"/><path id="hl1" fill="#473E3B" d="M1065 697.7l22.699 6.7s30.7 36 63.301 35.3c0 0 21.3 3.399 38 0l32.699-4s36.7-13.3 38-32l18 37.5s3.301 12.2 13.301 0c0 0 25.3-14.2 34.699-32.8 0 0-3.399 93.1-9.699 111.5 0 0-11.601 13.8-31-4.9 0 0-22-16.699-40-42.699 0 0-9.301-1.301-16.7 3.3 0 0-22 10.7-56 20.301 0 .098-72 6.399-107.3-98.202zm548-86c40-6.7 66-37.3 66-37.3l34.699-50C1721 509.7 1729 503.7 1729 503.7c32 1.3 70 10.7 70 10.7 21.3 8.699 42 20 42 20-8.7-20.7-40-64-40-64-34.7-33.301-80-44-80-44-7.301 30-44 68.699-44 68.699-21.301 18.7-100 60.7-100 60.7-38.7 27.3-149.301 46.7-149.301 46.7C1516 640.1 1613 611.7 1613 611.7z"/><path fill="none" stroke="#000" stroke-miterlimit="10" stroke-width="6" d="M1135 441S992 545 967 696c0 0-27.601 80.059 46 242 18.11 39.846 73.199 124 81.6 151 0 0 10.4 13-18.6 60l-23 39 61-6s1 14-6 42c0 0 83-47 164.5-3.334 0 0-29.966-49.826-39.5-66.295-8.549-14.768-14.492-34.316-17.492-66.316L1208 999s58 84 89 100l-23-90s-1-11 8-3l61 33-45-176s3-23 16-41c0 0 26-27 37-61 0 0-6-115-15-154 0 0-2-19 22 8 0 0 220 158 353 136l34-4-125-82s-15-16 10-2c0 0 119 65 175 76l121.919 14.842S1880 718.5 1896 665c0 0-2-140-108-224 0 0-92-62-231-86 0 0-124-35-262 12 0 0-88 39-81-66 0 0-27 47-49 78 0 0-99-8-117 42 0 0 88-12 87 20z"/></svg>