<svg xmlns="http://www.w3.org/2000/svg" id="图层_3" viewBox="0 0 3000 3000"><path fill="#4A5140" d="M801.033 2808.758c31.131 6.902 112.396-2.574 74.516 15.863-37.883 18.423-64.331 32.119-28.01 23.68 36.31-8.442 77.045-15.407 75.625-8.777-1.422 6.627 110.049-.503 69.069 12.066-40.979 12.571-83.704 13.774-35.442 14.127 48.263.352 109.033-27.551 91.195-5.334-17.848 22.219-31.014 40.305-12.599 30.49 18.401-9.813 36.552-38.766 33.198-14.292-3.352 24.456-1.804 40.304 18.729 8.184 20.531-32.138 22.496-75.794 30.703-33.584 3.434 17.675.32 50.596 2.482 66.319l26.973-12.396c13.641-20.54 32.968-33.277 34.137-19.823.543 6.293.115 13.865-.197 19.823L1193.5 2892c8.08-21.714 1.32-38.596 18.567-9.979 3.791 6.277 7.688 14.506 11.42 23.084L1243 2917.5c-2.647-28.112-3.467-52.166 6.289-39.351 12.729 16.701 10.959 31.178 17.248 15.938 6.313-15.254 79.74-50.041 65.002-21.957-6.394 12.176-18.9 24.289-28.032 32.974h21.188c23.896-13.621 34.991-28.555 30.703-14.293-1.549 5.152-3.16 22.483-5.898 26.688l13.366-12.396c8.564-6.612 13.791-12.646 13.791-12.646s3.445 5.975 7.814 12.646L1399.5 2913c-3.758-16.15-9.34-33.25 7.375-18.211 3.444 3.096 32.934 19.07 36.125 22.711l10.483-12.396c4.369-22.704 6.334-36.447 24.394-16.091 4.172 4.724 9.5 10.377 15.153 16.091l21.47 12.396c-8.371-31.664 64.188-36.563 108.684-13.901 1.027.517 1.999 1.004 2.993 1.507l34.323 12.396c-27.2-23.178-42.564-59.022-5.793-40.691 37.338 18.605 68.123 33.34 41.869 17.843-26.252-15.511-74.435-42.816-14.461-28.098 59.973 14.75 89.127 40.593 71.115 16.729-18.021-23.86-93.148-51-7.746-27.563 85.405 23.437 154.592 57.979 106.424 30.674-48.185-27.307 70.12-36.174 108.639 6.124 4.117 4.512 9.156 3.601 12.787 7.483l17.061 5.104c-20.482-34.438-31.615-52.631-.464-41.78 33.156 11.551 79.351 33.08 56.657 13.348-22.692-19.719-56.828-34.711-22.334-27.549 34.481 7.146 77.729 19.474 62.713 3.701-15.005-15.771-45.731-31.617-16.947-22.656 28.782 8.959 45.129 20.341 33.27 9.31-11.86-11.033-40.599-21.12-16.022-18.087 24.554 3.018 99.828 29.363 52.733 3.277-47.118-26.104-3.569-26.68 19.334-22 62 12.667 85.334 5.334 38.228-12.104-42.418-15.702 190.646-7.208 177.756-20.008-12.899-12.8-42.355-31.907-23.743-33.856 18.61-1.92 52.955 20.938 35.766-9.037-17.166-29.973-68.677-45.742-41.592-48.713 27.084-2.957 82.248 6.336 47.674-11.49-34.564-17.827-93.232-24.031-71.038-30.75 22.196-6.721 48.681 3.748 27.688-16.411-20.98-20.159-52.506-31.01-27.328-29.073 25.177 1.949 47.695 25.583 33.801-2.453-6.89-13.884-17.801-30.156-24.888-41.02-8.774 12.86-68.122 21.759-106.731 8.975-46.46-15.375-15.133-75.318-51.894-44.448-36.761 30.872-50.864 44.95-44.771 21.837 6.093-23.13 30.194-34.758 11.583-32.823-18.609 1.937-24.185 13.303-18.609 1.937 5.56-11.366-19.236-21.699-32.819-19.384-13.583 2.332-13.884 9.05-13.583 2.332.301-6.72 5.479-46.765-22.957-13.575-28.45 33.2-38.682 35.776-47.768 13.164-9.084-22.598 2.729-60.463-22.287-28.679-25.004 31.787-34.078 46.247-38.287 27.398-4.207-18.864-7.57-56.212-18.934-28.436-11.352 27.779-13.641 41.082-26.229 21.577-12.599-19.503-7.884-49.491-28.935-30.887-21.039 18.605-48.957 40.044-42.934 18.605 6.012-21.456 31.79-32.943-14.508-14.6-46.297 18.332-70.633 35.002-76.516 16-5.871-18.987-53.359-86.688-67.231-40.563-13.861 46.124-9.388 58.817-34.52 18.682-7.247-11.58-63.603-34.104-53.013-19.811 10.589 14.293 29.523 42.727-9.757 17.219-39.269-25.509-75.901-59.777-65.325-45.482 10.588 14.307 39.084 29.972 12.219 27.899-26.854-2.059-43.951-21.364-42.309-7.741 1.63 13.606-12.705 32.729-25.327 13.775-12.624-18.957-15.388-57.371-16.692-28.25-1.317 29.104 8.265 65.795-11.076 46.336-19.327-19.475-58.1-56.166-41.209-32.396 16.899 23.771 35.928 49.963 3.063 31.695-32.865-18.271-55.961-53.742-43.65-28.083 12.323 25.675-22.252 45.484-35.593 17.479-13.34-27.991-14.565-50.545-13.34-27.991 1.236 22.566 24.183 36.689 1.804 34.971-22.381-1.723-39.582-18.773-27.884-4.406 11.699 14.4 32.761 20.512 14.867 19.141-17.907-1.387-48.528-19.473-37.802-8.534 10.74 10.94 4.694 45.303-9.502 11.628-14.195-33.689-22.426-100.615-24.032-64.773-1.618 35.838 15.237 60.721-1.294 53.834-16.543-6.903-43.5-31.438-28.646-12.327 14.854 19.124 49.049 32.987 14.553 25.842-34.494-7.146-52.504-31.008-45.371-14.735 7.131 16.274 34.298 36.358 7.895 24.215-26.402-12.16-50.539-74.681-43.857-48.334 6.67 26.36 26.057 44.707 11.664 40.228-14.392-4.479-25.131-15.42-14.392-4.479 10.728 10.94 22.588 21.974 6.058 15.088-16.531-6.904-18.623-10.44-16.531-6.904 2.08 3.535 12.3 25.674-1.688 12.233-13.986-13.438-16.298-61.925-18.52-37.391-2.229 24.546 5.203 34.116-2.588 32.394-7.769-1.736-41.315-30.154-29.754-12.402 11.559 17.735 33.222 35.138 16.392 34.971-16.832-.185-55.234-19.992-47.905-8.197 7.329 11.811-16.266 36.95-26.702 19.29-10.428-17.66-20.786-62.277-13.341-27.991 7.445 34.285 29.12 51.687 2.475 45.135-26.658-6.553-43.813-24.73-31.097-8.017 12.728 16.717 23.212 33.25 15.328 33.767-7.883.521-39.929-10.938-34.587-4.92 5.341 6.033 20.865 35.321 3.318 26.102-17.549-9.217-47.432-68.828-39.385-47.982 8.044 20.847 22.749 43.319 10.391 43.504-12.355.168-39.823-13.194-20.194-.441 19.641 12.754 43.905 22.491 29.063 28.082-14.855 5.607-89.982 3.186-64.389 8.533 25.592 5.334 71.67 29.104 47.059 27.216-24.623-1.905-72.536-10.087-49.44.685 23.096 10.773 61.556 29.457 35.512 34.193-26.032 4.74-46.563 36.86-30.655 32.473 15.929-4.39 48.781-10.851 28.992 4.48-19.769 15.328-47.026 22.216-16.809 24.547 30.206 2.33 20.877 60.021-12.196 46.247-33.071-13.775-51.083-37.638-47.152-24.977 3.919 12.664 76.364 49.706 46.042 49.614-30.33-.105-77.517.751-46.387 7.638z"/><path fill="#CEA345" d="M1127.647 2518.595C1256.041 2478.552 1426 2478 1546 2482s195.051 4.475 325.569 17.744c130.52 13.27 186.97 16.256 240.431 62.256 66.498 57.22 128.493 4 186.246 98C2356 2754 1952 2848 1708 2852s-510-16-594-42-52-40-152-68-74-108 16-132 37.582-56.452 149.647-91.405z"/><path fill="#161523" d="M1242.027 2757.575c-8.237-32.146-11.201-63.929-11.201-63.929 59.073-68.514 51.245-125.688 51.245-125.688-18.715 87.979-57.023 112.071-57.023 112.071-12.631-86.95-1.063-136.276-1.063-136.276 47.035-58.961 43.034-146.757 43.034-146.757-5.135 70.492-42.643 129.793-42.643 129.793-1.49-111.88 64.076-240.948 64.076-240.948-102.281 171.231-79.992 374.541-60.537 471.732l14.112.002z"/><path fill="#161523" d="M1582.207 2147.673c.584-1.177 1.158-2.362 1.752-3.539 0 0-.629 1.228-1.752 3.539zm-439.732 234.79s-37.5-59.309-42.643-129.801c0 0-3.992 87.795 43.033 146.756 0 0 4.517 19.264 4.82 54.924-4.881 27.833-7.768 54.184-9.135 78.887-9.641-8.011-38.354-37.125-53.773-109.596 0 0-7.828 57.164 51.245 125.678 0 0 .994 1.316 1.778 2.389-2.432 92.327 16.064 159.438 27.667 191.979h20.938c-17.397-38.458-23.063-99.153-23.063-99.153 59.082-68.514 51.255-125.687 51.255-125.687-18.724 87.979-57.034 112.07-57.034 112.07-12.63-86.949-1.055-136.277-1.055-136.277 47.026-58.959 43.025-146.754 43.025-146.754-5.126 70.491-42.643 129.801-42.643 129.801-1.342-101.001 51.952-215.983 62.334-237.409-31.391 63.702-51.743 123.464-64.277 178.205-3.383-87.761-22.699-186.8-76.551-276.957.002-.004 65.569 129.066 64.079 240.945z"/><path fill="#297587" d="M2213.36 2623.492c-60.99-209.76-241-178.519-241-178.519 135.771 5.979 200.955 162.653 216.463 206.106h36.836l41.354-104.88c87.027-316.854-153.327-340.737-153.327-340.737 184.473 105.621 123.481 352.574 123.481 352.574-17.854-303.48-312.408-223.147-312.408-223.147 299.017 25.288 288.601 288.603 288.601 288.603zm-915.401-49.901s15.733 11.034 50.068 44.411c30.57 29.716 58.027 13.615 63.693 9.711-3.19 14.564-6.478 28.416-9.449 38.736h6.207c.296-1.352.609-2.771.941-4.289a56.878 56.878 0 0 0 5.125 4.289H1484c21.338-10.441 37.142-25.209 37.142-25.209s-17.494-.218-60.468-7.671c-28.486-4.934-42.625 8.343-48.918 17.869 2.423-11.228 5.281-24.721 8.07-38.598 44.474 41.194 111.323-21.277 111.323-21.277s-17.496-.218-60.469-7.662c-27.979-4.854-42.103 7.862-48.569 17.338 2.18-11.201 4.229-22.289 5.893-32.305 53.679 37.646 112.9-40.41 112.9-40.41s-18.088 2.876-63.729 2.815c-31.11-.054-43.147 17.084-47.663 28.007.515-3.47.968-6.729 1.334-9.736 56.955-40.124-.054-127.091-.054-127.091s-3.538 19.063-19.786 64.557c-13.808 38.633 9.483 57.208 16.823 61.934l-.74 1.158s-1.534 8.524-3.958 21.26c-1.892-66.028-101.646-71.225-101.646-71.225s13.162 13.99 40.027 53.645c24.319 35.896 55.106 24.721 60.721 22.278-2.668 13.877-6.172 31.563-9.858 48.587-13.658-66.561-114.416-51.123-114.416-51.122z"/><path fill="#C6A612" d="M934.097 2585.664s17.878 19.664 54.087 75.129c32.234 49.371 74.171 35.966 83.001 32.427-7.437 15.926-14.818 31.146-21.251 43.356h139.031c-12.674-4.41-30.281-10.982-53.504-20.605-36.94-15.307-60.041-1.674-71.425 9.266 6.677-14.408 14.627-31.755 22.595-49.624 47.522 69.071 156.675 5.056 156.675 5.056s-23.535-5.597-79.271-28.694c-36.278-15.028-59.194-2.153-70.788 8.673 6.338-14.452 12.457-28.8 17.738-41.806 61.018 67.093 164.605-20.283 164.605-20.283s-25.277-1.604-86.844-15.542c-41.972-9.493-63.406 9.98-72.812 23.343a520.684 520.684 0 0 0 4.759-12.735c89.016-36.861 38.477-171.51 38.477-171.51s-10.564 24.643-46.285 81.102c-30.344 47.949-4.551 80.08 3.923 88.684l-1.36 1.334s-4.654 11.044-11.785 27.492c17.479-89.669-115.558-126.95-115.558-126.95s13.521 22.882 37.733 84.526c21.933 55.821 66.867 50.077 75.184 48.491-7.811 17.921-17.913 40.725-28.042 62.577 1.76-93.972-138.883-103.707-138.883-103.707z"/><path fill="#294208" d="M1531.929 2308.059s-48.345 54.959-20.005 86.871c28.347 31.921 37.674-54.645 20.005-86.871z"/><path fill="#4B6028" d="M1492.658 2396.039c4.254-1.091 7.053-2.65 8.631-4.561a686.125 686.125 0 0 1 12.953 9.136c-29.935-9.745-66.107 30.822-66.107 30.822 26.935 10.772 89.563-1.979 80.621-20.108a728.636 728.636 0 0 1 22.113 17.416c-36.453-12.229-68.218 46.11-68.218 46.11 28.042 4.263 82.661-19.508 80.072-36.183a700.136 700.136 0 0 1 28.442 25.749c-41.735-14.165-83.881 49.799-83.881 49.799 32.442 7.758 97.811-13.869 100.119-33.777a693.078 693.078 0 0 1 28.217 30.534 40.355 40.355 0 0 0-2.633-1.752c-41.256-25.104-92.668 39.818-92.668 39.818 34.248 11.428 109.963-8.081 102.326-29.855a690.435 690.435 0 0 1 25.043 31.607c-41.091-23.457-91.665 40.394-91.665 40.394 31.737 10.591 99.083-5.388 102.709-25.112a682.308 682.308 0 0 1 17.042 25.487c-.271-.175-.523-.35-.803-.515-41.256-25.104-92.667 39.811-92.667 39.811 31.424 10.493 97.774-5.073 102.604-24.521a654.699 654.699 0 0 1 17.643 31.354c-21.208-11.594-44.848-.252-62.717 13.39h91.596a520.564 520.564 0 0 0-7.672-14.374c19.84 8.874 57.322-57.705 55.353-93.505 0 0-73.821 31.45-64.958 76.891a566.676 566.676 0 0 0-19.29-29.872c20.521-3.617 51.324-61.593 49.529-94.132 0 0-68.549 29.201-65.603 71.991a619.319 619.319 0 0 0-14.759-18.653c19.892-6.853 43.671-66.945 38.406-98.778 0 0-62.509 35.104-57.748 76.271a699.543 699.543 0 0 0-15.246-16.414c20.789.166 40.342-70.544 30.291-104.025 0 0-62.683 46.601-45.851 88.283a764.231 764.231 0 0 0-31.215-28.966c23.928 12.787 38.459-69.054 23.588-103.468 0 0-60.276 56.78-31.729 95.735a41.312 41.312 0 0 0 1.656 2.102 808.798 808.798 0 0 0-32.191-26.202c19.979-.576 29.916-70.52 16.196-100.958 0 0-54.585 53.076-30.727 90.019-20.328-14.949-37.09-25.759-47.672-32.243 8.863-13.737-39.227-43.025-65.342-42.363.007-.002 22.027 56.326 56.212 47.618z"/><g fill="#C6A612"><path d="M1779.31 2260.754s-52.604 25.026-41.884 57.271c10.713 32.241 44.699-28.157 41.884-57.271z"/><path d="M1679.303 2324.709c16.326 16.326 66.143 26.655 65.287 10.582a588.31 588.31 0 0 1 10.714 19.684c-22.839-20.38-64.373 12.325-64.373 12.325 19.177 11.916 66.587 11.663 69.926-1.343a569.779 569.779 0 0 1 12.726 27.754c-26.089-23.457-76.977 10.111-76.977 10.111 21.286 15.848 75.896 20.545 83.828 6.703a556.05 556.05 0 0 1 11.062 31.197 29.34 29.34 0 0 0-1.377-2.109c-22.306-31.311-80.28.043-80.28.043 21.47 19.107 82.975 28.601 84.213 10.277a534.752 534.752 0 0 1 8.401 30.979c-22.688-30.056-79.723.784-79.723.784 19.892 17.704 74.17 27.145 83.009 13.859a518.396 518.396 0 0 1 4.473 23.979c-.141-.209-.271-.409-.418-.627-22.315-31.302-80.291.052-80.291.052 19.7 17.529 73.116 26.971 82.758 14.252a516.04 516.04 0 0 1 3.067 28.479c-22.934-29.235-79.356 1.273-79.356 1.273 18.471 16.447 66.621 25.767 80.464 16.36 1.403 30.944-.349 55.64-2.231 71.757h16.458c3.382-28.504 3.207-56.493.487-83.463 11.725 12.718 60.032-24.225 69.821-51.027 0 0-63.858-.166-71.634 35.859a452.35 452.35 0 0 0-4.742-27.901c16.144 3.792 56.867-28.948 65.768-53.313 0 0-59.309-.147-70.579 32.068a512.757 512.757 0 0 0-4.934-18.271c16.701 1.229 52.944-35.269 59.082-60.207 0 0-56.737 6.067-66.179 37.675a549.882 549.882 0 0 0-5.996-16.788c15.148 6.642 51.638-38.946 54.794-66.588 0 0-60.479 14.418-61.235 50.183a607.946 607.946 0 0 0-13.746-30.979c13.493 16.857 49.799-38.44 49.721-68.287 0 0-61.906 22.629-53.25 60.085.164.724.356 1.395.549 2.049a642.9 642.9 0 0 0-15.324-29.263c14.801 5.849 44.011-42.197 43.521-68.768 0 0-56.58 21.696-50.714 56.206-10.181-17.32-19.055-30.481-24.755-38.555 10.791-7.261-15.193-43.768-34.51-51.489 0 0-1.569 48.116 26.167 52.476 3.461.541 5.998.271 7.75-.628a626.741 626.741 0 0 1 6.614 10.748c-18.847-16.517-58.036 1.808-58.036 1.807z"/></g><g fill="#31421E"><path d="M1961.49 2214.886s64.095 35.338 48.238 74.973c-15.857 39.626-53.956-38.668-48.238-74.973z"/><path d="M1789.726 2526.623c10.269 34.345 68.078 84.301 83.741 69.237-2.91 18.009-4.924 36.444-5.849 55.222h20.546a605.454 605.454 0 0 1 2.877-39.443c16.656 12.831 77.734 4.751 102.143-14.487 0 0-68.471-42.494-99.432-7.549a652.814 652.814 0 0 1 5.987-35.485c11.131 16.675 78.834 8.839 104.854-11.663 0 0-70.361-43.671-100.688-6.085-.2.262-.383.506-.575.759a665.208 665.208 0 0 1 7.4-29.75c10.095 17.329 78.878 9.563 105.15-11.157 0 0-69.211-42.947-99.93-6.965a688.904 688.904 0 0 1 12.857-38.215c.184 23.073 78.041 15.786 106.396-6.572 0 0-70.361-43.671-100.68-6.074a41.812 41.812 0 0 0-1.892 2.535 695.03 695.03 0 0 1 16.213-38.292c8.909 17.956 77.745 16.169 105.639-2.108 0 0-61.313-45.92-95.788-18.463a711.282 711.282 0 0 1 18.043-33.855c3.209 16.57 62.656 20.44 87.596 6.93 0 0-49.643-44.133-79.803-20.282a710.128 710.128 0 0 1 14.916-23.876c-2.285 20.084 60.965 10.87 82.659-8.376 0 0-47.768-25.925-72.637-6.625a678.477 678.477 0 0 1 9.101-12.979c2.127 1.264 5.282 1.787 9.658 1.369 35.111-3.383 36.759-63.842 36.759-63.842-24.8 8.229-60.129 52.064-47.141 61.983-7.759 9.693-19.865 25.54-33.935 46.486 9.938-42.834-59.388-74.292-59.388-74.292-2.605 33.289 30.431 95.735 49.425 89.512a804.07 804.07 0 0 0-21.418 35.547c.297-.802.584-1.629.846-2.526 13.668-46.321-62.271-79.341-62.271-79.341-2.345 37.422 39.051 109.5 57.234 89.363a767.08 767.08 0 0 0-19.562 37.822c1.718-44.908-73.046-67.528-73.046-67.528 1.891 34.901 44.229 94.813 63.736 87.611a693.254 693.254 0 0 0-8.786 20.615c-9.468-40.351-80.168-52.204-80.168-52.204 5.831 31.729 48.552 80.211 69.585 79.924a627.642 627.642 0 0 0-7.557 22.55c-11.726-41.256-86.121-45.51-86.121-45.51 9.344 31.223 57.957 75.33 78.494 71.791a567.97 567.97 0 0 0-8.047 34.642c-7.035-45.769-87.141-50.354-87.141-50.354z"/></g><path fill="#C6A612" d="M2051.664 2605.387c-2.512 13.093-5.779 29.575-9.231 45.692h4.995a2595.51 2595.51 0 0 0 1.83-8.979c4.158 3.854 8.517 6.799 12.997 8.979h49.319c27.082-9.771 49.006-30.256 49.006-30.256s-17.495-.218-60.469-7.671c-27.973-4.847-42.103 7.871-48.562 17.347 2.179-11.2 4.228-22.289 5.884-32.305 53.678 37.647 112.899-40.419 112.899-40.419s-18.088 2.886-63.729 2.815c-31.109-.044-43.139 17.093-47.654 28.016.516-3.47.959-6.729 1.334-9.736 56.946-40.123-.062-127.091-.062-127.091s-3.539 19.056-19.787 64.558c-13.798 38.632 9.493 57.207 16.832 61.932l-.749 1.16s-1.534 8.523-3.958 21.26c-1.892-66.029-101.646-71.226-101.646-71.226s13.162 13.99 40.026 53.644c24.324 35.896 55.112 24.721 60.725 22.28z"/><path fill="#C6A612" d="M1981.695 2651.082h59.448c-15.951-63.215-113.753-48.229-113.753-48.229s15.733 11.035 50.067 44.411a84.223 84.223 0 0 0 4.238 3.818z"/><path fill="#AF8A3F" d="M1805.465 2493.693s213.961 4.822 271.785 44.522 58.611 44.163 81.72 49.413c23.107 5.25 58.807 4.054 96.918 26.546 38.11 22.491 38.112 51.159-18.556 73.159-56.666 22-74 4.666-242 34.666s-134.666 81.334-286.666 100.666c-170.119 21.638-260-17.334-418.666-32-158.668-14.666-210.668-16.668-264.668-42.668s-130.666-48.664-108.666-62.664 112 31.996 153.332 45.33c41.334 13.334 152.668 3.334 224.668 4.668 72 1.332 284 16.666 242.666 0-41.332-16.668-57.332-24.668-110.666-22.668s-137.334-43.492-108.668-54.412c28.666-10.921 156-24.004 239.334-30.129s228.668 7.21 276.668-22.79-84-12.666-135.334-18c-51.334-5.332-85.332-43.33 4-45.996C1792 2538.668 1870 2544.002 1876 2524c6.112-20.375-1.067-14.615-70.535-30.307z"/><path fill="#564563" d="M2174.727 124.342h-31.178c-89.576 79.733-182.754 228.055-222.66 322.205-44.489 104.935-49.051 117.485-49.051 117.485-37.642-157.403 79.265-382.371 79.265-382.371 7.897-24.179 19.406-43.044 30.774-57.318h-8.834c-9.25 14.395-16.188 28.96-25.351 35.064-10.444 6.957-3.851-15.237 3.52-35.064h-1.522c-30.865 68.165-109.307 246.7-127.742 339.605-23.097 116.324 18.806 281.427-16.26 276.293-35.066-5.133-47.896-74.422-88.958-130.878-41.059-56.458-33.36-162.537-33.36-162.537-25.661 47.056 7.119 154.837 7.119 154.837-63.865-127.74-124.323-174.505-124.323-174.505 184.771 236.096 232.687 579.973 246.36 709.989 13.692 130.037 29.092 445.687 11.125 542.342-17.963 96.665-10.686 227.113-3.849 272.452 6.836 45.331-4.992 17.253-4.992 17.253-130.155-213.147-192.188-230.251-192.188-230.251s35.928 21.522 75.854 85.397c39.916 63.876 71.854 163.097 141.434 278.298 69.569 115.189 41.063 299.68 26.507 446.809-10.656 107.882-53.892 139.431-53.892 139.431-15.397 15.827-49.894 29.662-49.894 29.662 107.782-.861 198.735-61.029 235.806-49.62 37.07 11.406 100.225 7.769 100.225 7.769-69.932-5.344-67.146-42.123-67.146-42.123 30.796-230.542-57.317-646.272-82.12-742.077-24.801-95.804 14.535-210.432 14.535-210.432 58.184-244.656 333.332-259.191 333.332-259.191-129.453-7.419-198.451 37.631-198.451 37.631 132.031-117.005 149.793-237.428 148.261-300.311 26.854.61 31.958-37.963 31.958-37.963-22.144 8.881-29.762 20.77-32.329 28.85-.4-7.106-1.021-13.271-1.694-18.374 32.329-3.389 30.264-49.882 30.264-49.882-26.894 16.751-31.166 34.143-31.234 43.326-1.103-6.717-2.086-10.365-2.086-10.365.041.781.061 1.583.08 2.385-8.119-24.619-46.533-27.837-46.533-27.837 17.404 38.013 40.64 39.056 46.596 38.644-.223 8.801-1.034 17.874-2.407 27.126-8.54-23.568-45.872-22.705-45.872-22.705 17.903 30.163 37.252 31.605 44.51 30.906-17.703 97.928-93.971 213.93-164.039 257.707-82.121 51.324-126.59 141.144-126.59 141.144s8.541-59.867-8.561-253.196c-17.102-193.331-17.784-389.881-17.784-389.881 10.914-530.875 197.999-744.075 253.375-795.729z"/><path fill="#403C4C" d="M1931.143 2639.828c44.479-42.193-22.807 13.693-60.447 39.928-37.643 26.232-41.061 13.684-13.682-34.213 27.365-47.907 46.753-247.504 41.059-347.868-5.703-100.374-36.499-199.597-67.294-239.522-30.795-39.918-109.497-201.871-127.739-240.656-18.257-38.773 57.019 80.986 90.099 148.271 33.081 67.294 39.916 39.917 33.081-9.123-6.846-49.039-7.979-223.543 7.979-323.917 15.969-100.365 5.703-388.928-3.419-465.344-9.12-76.428-38.784-275.731-110.64-469.905-71.854-194.193 30.796 30.795 94.952 76.987 64.153 46.192 21.392-126.608 12.832-232.688-4.472-55.484 28.989-176.069 61.909-278.447-28.851 70.893-57.642 148.973-67.885 200.618-23.098 116.324 18.805 281.427-16.261 276.293-35.065-5.133-47.896-74.422-88.958-130.878-41.059-56.458-33.359-162.537-33.359-162.537-25.662 47.056 7.117 154.838 7.117 154.838-44.179-88.365-86.712-137.978-108.744-160.161 3.41 6.756 6.771 13.536 10.084 20.34 163.617 233.91 207.675 551.522 220.697 675.305 13.693 130.037 29.092 445.687 11.126 542.342-17.963 96.665-10.686 227.113-3.849 272.452 6.836 45.331-4.992 17.253-4.992 17.253-130.156-213.147-192.188-230.251-192.188-230.251s35.928 21.522 75.854 85.397c39.916 63.876 71.854 163.097 141.435 278.298 69.568 115.189 41.062 299.68 26.506 446.809-10.656 107.882-53.893 139.431-53.893 139.431-15.396 15.827-49.893 29.662-49.893 29.662 57.109-.461 109.497-17.563 151.65-31.849-10.034-8.03-7.887-23.379 16.863-46.865z"/><path fill="#372B3F" d="M2334.545 1355.72c-52.179 29.511-42.483 63.434-42.483 63.434 42.634-2.426 42.483-63.434 42.483-63.434z"/><path fill="#372B3F" d="M2298.246 1422.643c23.948 35.346 76.246 3.91 76.246 3.91-52.095-29.653-76.246-3.91-76.246-3.91z"/><path fill="#372B3F" d="M2290.549 1424.146c-19.979 37.743 32.316 69.188 32.316 69.188 1.737-59.926-32.316-69.188-32.316-69.188z"/><path fill="#79658C" d="M2053.752 250.949s-123.182 272.023-141.985 311.358c-18.827 39.356-1.726 54.753-1.726 54.753s39.354-46.192 3.43 29.091c-35.93 75.263-70.151 224.105-63.294 340.449 6.837 116.343 25.661-119.752 27.364-11.969 1.703 107.782 47.896 449.936 27.367 516.657-20.529 66.724-41.062 109.509-15.396 100.947 25.661-8.562 47.915-22.233 25.661 37.631-22.234 59.888-56.457 195.047-23.938 295.982 32.499 100.936 90.662 263.471 76.988 342.162-13.692 78.701-22.255 200.168-8.562 150.556 13.694-49.608 18.826-88.966 18.826 5.134s-11.99 261.76 10.266 184.771c22.232-76.988 15.396-325.063 25.662-297.688 10.265 27.379-11.99-160.819-27.387-205.299-15.398-44.479-75.264-284.002-53.031-246.359 22.234 37.642-6.834-59.876-3.428-118.047 3.428-58.174 59.887-184.771 42.786-181.343-17.124 3.408-56.46 15.397-49.623-41.062 6.837-56.456 18.827-333.612-1.702-444.822-20.531-111.211-41.061-198.464-22.256-258.33 18.827-59.885 39.356-222.422 41.061-239.523 1.727-17.099 145.436-369.537 112.917-325.049z"/><path fill="#DBA54D" d="M2050.007 1300.906s19.336-134.889-71.888-159.881c0-.001-29.621 80.184 71.888 159.881zm70.315 455.056s270.3-101.473 223.808-296.428c-.003 0-179.149 26.673-223.808 296.428zm11.383-1621.586s181.396 59.827 238.305-59.934c0 0-103.393-60.566-238.305 59.934z"/><path fill="#4B6028" d="M1167.611 2176.936s137.933-201.962 10.769-314.438c-.001 0-111.187 105.721-10.769 314.438z"/><path fill="#DBA54D" d="M1756.088 788.08s52.884-109.353-17.856-155.23c0-.002-46.837 60.101 17.856 155.23zm-489.254 507.3s-43.275-27.689-66.09-.284c0-.001 22.887 22.685 66.09.284z"/><path fill="#FB7A00" d="M1336.627 1807.306s50.943-6.721 50.72-42.389c0 .003-32.128-2.577-50.72 42.389zm859.902-1080.358s50.933-6.722 50.72-42.387c-.003 0-32.142-2.58-50.72 42.387zM716.52 2153.459s84.278 71.201 140.629 19.313c0-.002-42.341-54.765-140.629-19.313zm1607.254-154.049s50.943-6.721 50.718-42.387c-.002 0-32.127-2.58-50.718 42.387zM1114.384 667.225s-28.98-42.423-60.705-26.14c-.001.001 12.186 29.843 60.705 26.14z"/><path fill="#DBA54D" d="M2114.332 165.796s84.062 88.641 152.391 38.414c0 0-39.899-65.431-152.391-38.414zM1763.781 20.88s32.097 188.292 164.563 182.483c.001 0 5.092-119.717-164.563-182.483zm20.159 227.268s62.915 62.07 111.111 24.108c0 .001-30.422-46.35-111.111-24.108z"/></svg>