<svg xmlns="http://www.w3.org/2000/svg" id="图层_2" viewBox="0 0 3000 3000"><path fill="#73CAD8" d="M1406.51 1254.338h-6.763v-126.172c0-2.641-6.536-22.979-26.308-22.979h-81.907v-6.485h81.907c21.146 0 30.69 18.577 32.52 28.219l.551.925v126.492zm185.993 6.484h-6.763v-131.827c0-13.191 6.205-19.863 26.488-39.194l96.296-92.64 4.624 4.585-96.059 92.64c-19.385 18.539-24.587 24.103-24.587 34.609v131.827zm-40.58-213.998h6.764v178.332h-6.764z"/><path fill="#73CAD8" d="M1566.328 1058.302c5.727-5.491 5.727-14.388.003-19.873-5.723-5.487-15.003-5.487-20.726 0-5.724 5.484-5.724 14.382 0 19.873 5.723 5.484 15.004 5.484 20.723 0zm-265.424 52.733c5.723-5.491 5.723-14.388 0-19.873-5.72-5.487-15-5.487-20.727 0-5.72 5.484-5.72 14.382 0 19.869 5.727 5.489 15.007 5.489 20.727.004zm432.812-107.759c-7.031 6.741-18.474 6.741-25.508 0-7.031-6.744-7.031-17.713 0-24.457 7.034-6.745 18.477-6.745 25.508 0 7.034 6.744 7.034 17.713 0 24.457zm-20.726-19.872c-4.393 4.214-4.393 11.069.003 15.287 4.393 4.211 11.545 4.211 15.94 0 4.393-4.214 4.396-11.073 0-15.287-4.395-4.215-11.547-4.211-15.943 0zm-252.373 296.873h-6.764v-130.643c0-10.506-5.479-16.098-24.798-34.615l-58.186-55.954 4.871-4.585 58.054 55.954c20.294 19.454 26.823 26.005 26.823 39.2v130.643z"/><path fill="#73CAD8" d="M1491.052 1270.55h-6.763v-130.089c0-10.503-6.351-16.095-25.667-34.612l-49.055-46.784 4.65-4.585 49.252 46.784c20.291 19.451 27.582 26.005 27.582 39.197v130.089z"/><path fill="#73CAD8" d="M1514.724 1225.156h-6.763v-96.161c0-10.503-6.024-16.092-25.343-34.609l-36.935-35.321 4.732-4.585 37.01 35.321c20.29 19.451 27.298 26.002 27.298 39.194v96.161z"/><path fill="#73CAD8" d="M1450.373 1060.592c-7.034 6.744-18.477 6.744-25.508.003-7.034-6.745-7.034-17.716 0-24.458 7.031-6.744 18.474-6.744 25.508 0 7.027 6.742 7.027 17.713 0 24.455zm-20.726-19.87c-4.396 4.211-4.396 11.07 0 15.288 4.392 4.211 11.545 4.211 15.941-.003 4.396-4.215 4.396-11.07 0-15.285-4.396-4.214-11.549-4.214-15.941 0z"/><path fill="#73CAD8" d="M1414.092 1060.592c-7.034 6.744-18.474 6.744-25.508.003-7.034-6.745-7.034-17.713 0-24.458 7.034-6.744 18.474-6.744 25.508 0 7.031 6.745 7.031 17.713 0 24.455zm-20.726-19.87c-4.393 4.211-4.393 11.07 0 15.288 4.396 4.211 11.548 4.211 15.944-.003 4.393-4.215 4.393-11.07 0-15.285-4.396-4.214-11.549-4.214-15.944 0z"/><path fill="#73CAD8" d="M1375.833 1060.592c-7.034 6.744-18.478 6.744-25.508.003-7.034-6.745-7.034-17.713 0-24.458 7.031-6.744 18.474-6.744 25.508 0 7.031 6.742 7.031 17.713 0 24.455zm-20.726-19.87c-4.396 4.211-4.396 11.07 0 15.288 4.396 4.211 11.548 4.211 15.941-.003 4.398-4.215 4.398-11.07 0-15.285-4.392-4.214-11.545-4.214-15.941 0zm-141.972 749.511c-5.042 4.838-12.044 8.827-21.429 8.827h-82.786v-6.484h82.786c19.854 0 25.429-20.417 25.429-23.08V1649.91h6.645l-.053 120.536c-1.018 5.364-4.268 13.727-10.592 19.787zm315.73 149.238l-4.782 4.585-59.187-55.956c-20.29-19.448-27.952-26.003-27.952-39.194v-130.905h6.763v130.905c0 10.507 6.658 16.092 25.971 34.609l59.187 55.956z"/><path fill="#73CAD8" d="M1490.606 1939.471l-4.782 4.585-48.8-46.783c-20.29-19.451-27.133-26.006-27.133-39.197v-130.348h6.763v130.348c0 10.507 5.835 16.092 25.151 34.612l48.801 46.783z"/><path fill="#73CAD8" d="M1447.566 1939.471l-4.782 4.585-36.518-35.321c-20.291-19.451-26.81-26.002-26.81-39.193v-132.087h6.764v132.087c0 10.503 5.508 16.092 24.828 34.608l36.518 35.321zm-101.927-166.349h6.763v181.574h-6.763z"/><path fill="#73CAD8" d="M1360.685 1940.235c5.723 5.487 5.723 14.385 0 19.872-5.72 5.484-15 5.484-20.726-.003-5.72-5.484-5.72-14.382 0-19.869 5.726-5.487 15.006-5.487 20.726 0zm-241.515-153.612c5.723 5.487 5.723 14.386 0 19.873-5.72 5.483-15 5.483-20.726-.004-5.72-5.483-5.72-14.382.003-19.869s15.003-5.488 20.723 0zm-162.606-41.271c5.727 5.487 5.727 14.385.003 19.872s-15.003 5.487-20.726 0c-5.72-5.487-5.72-14.385.003-19.869 5.721-5.487 15-5.487 20.72-.003zm-564.329 449.373c5.727 5.487 5.727 14.385.003 19.872-5.723 5.488-15.003 5.488-20.726 0-5.723-5.487-5.723-14.385 0-19.869 5.724-5.487 15.003-5.487 20.723-.003zm674.327-481.47c5.727 5.487 5.727 14.385 0 19.872-5.72 5.487-15 5.487-20.726 0-5.72-5.487-5.72-14.385.003-19.872 5.723-5.485 15.004-5.485 20.723 0zm-174.561-144.443c5.727 5.487 5.727 14.385.003 19.872s-15.003 5.487-20.726 0-5.723-14.385.003-19.869c5.721-5.487 15-5.487 20.72-.003zm31.09 29.806c5.723 5.487 5.723 14.385 0 19.872s-15.003 5.487-20.726 0c-5.72-5.487-5.72-14.385 0-19.869 5.723-5.487 15.002-5.487 20.726-.003zm545.201 363.782c-7.034 6.741-18.474 6.741-25.508-.004-7.034-6.741-7.034-17.713 0-24.454 7.035-6.741 18.474-6.741 25.505 0 7.034 6.741 7.034 17.713.003 24.458zm-20.726-19.873c-4.396 4.215-4.396 11.073 0 15.284 4.392 4.215 11.545 4.215 15.944.004 4.392-4.215 4.392-11.073-.003-15.288-4.396-4.214-11.546-4.214-15.941 0zm874.395 416.513c-7.034 6.744-18.477 6.744-25.511 0-7.031-6.741-7.031-17.713.003-24.457 7.031-6.741 18.474-6.741 25.505 0 7.034 6.744 7.034 17.716.003 24.457zm-20.725-19.872c-4.396 4.214-4.399 11.072-.004 15.287 4.396 4.211 11.549 4.215 15.944 0s4.396-11.073 0-15.287c-4.395-4.215-11.545-4.215-15.94 0zM1511.332 1962.4c-7.03 6.741-18.474 6.741-25.508-.004-7.031-6.741-7.031-17.713.003-24.454 7.031-6.741 18.474-6.741 25.501 0 7.036 6.741 7.036 17.713.004 24.458zm-20.722-19.873c-4.399 4.215-4.399 11.073-.003 15.284 4.396 4.215 11.549 4.215 15.945.004 4.396-4.215 4.396-11.073-.004-15.288-4.392-4.214-11.546-4.214-15.938 0z"/><path fill="#73CAD8" d="M1549.591 1962.4c-7.03 6.741-18.474 6.741-25.508-.004-7.031-6.741-7.031-17.713 0-24.454 7.034-6.741 18.478-6.741 25.508 0 7.034 6.741 7.034 17.713 0 24.458zm-20.726-19.873c-4.393 4.215-4.393 11.073 0 15.284 4.396 4.215 11.549 4.215 15.944.004 4.396-4.215 4.392-11.073 0-15.288-4.395-4.214-11.545-4.214-15.944 0zm414.484-432.559c5.28 5.063 5.28 13.273 0 18.34-5.284 5.063-13.851 5.063-19.131 0-5.28-5.063-5.28-13.276 0-18.34 5.28-5.067 13.851-5.067 19.131 0zm66.954-481.475c5.28 5.066 5.28 13.277 0 18.34-5.284 5.066-13.848 5.066-19.131 0-5.281-5.06-5.281-13.273 0-18.34 5.28-5.066 13.85-5.06 19.131 0zm-141.084-2.292c5.284 5.066 5.284 13.277 0 18.34-5.28 5.066-13.848 5.066-19.131 0-5.277-5.06-5.281-13.273 0-18.34 5.283-5.066 13.851-5.06 19.131 0zm-164.994 107.759c5.281 5.063 5.281 13.277 0 18.34-5.283 5.066-13.847 5.066-19.131 0-5.28-5.06-5.28-13.277 0-18.34 5.284-5.066 13.851-5.063 19.131 0zm674.327-330.155c5.28 5.066 5.28 13.28 0 18.343-5.284 5.063-13.851 5.063-19.131 0s-5.28-13.277 0-18.343c5.28-5.063 13.851-5.06 19.131 0zm54.996-48.145c5.284 5.063 5.284 13.277 0 18.343-5.281 5.063-13.848 5.063-19.128 0-5.281-5.063-5.284-13.28 0-18.343 5.28-5.063 13.851-5.063 19.128 0zm59.78-34.39c-6.592 6.32-17.317 6.32-23.912 0-6.592-6.32-6.592-16.608 0-22.928 6.595-6.32 17.32-6.32 23.912 0 6.596 6.32 6.596 16.607 0 22.928zm-19.127-18.343c-3.957 3.793-3.957 9.965 0 13.758 3.956 3.793 10.389 3.793 14.346 0 3.956-3.793 3.956-9.965 0-13.758-3.957-3.791-10.39-3.791-14.346 0zm-404.118 268.248c-6.591 6.32-17.321 6.32-23.913 0-6.591-6.32-6.591-16.604 0-22.925 6.592-6.323 17.322-6.323 23.913 0 6.592 6.321 6.592 16.605 0 22.925zm-19.131-18.34c-3.956 3.793-3.956 9.961 0 13.755s10.394 3.793 14.35 0c3.953-3.793 3.953-9.961 0-13.755-3.956-3.793-10.394-3.793-14.35 0zm-253.469 206.342c-6.591 6.32-17.321 6.32-23.912 0-6.592-6.32-6.592-16.604 0-22.925 6.591-6.32 17.321-6.32 23.912 0 6.591 6.321 6.591 16.605 0 22.925zm-19.131-18.339c-3.956 3.793-3.956 9.961 0 13.755 3.957 3.793 10.393 3.793 14.35 0 3.953-3.793 3.953-9.961 0-13.755-3.958-3.794-10.393-3.794-14.35 0zm57.39-59.611c-6.592 6.32-17.322 6.32-23.913 0-6.592-6.32-6.592-16.604 0-22.928 6.595-6.32 17.321-6.32 23.913 0 6.591 6.32 6.591 16.607 0 22.928zm-19.131-18.34c-3.953 3.79-3.953 9.961 0 13.755 3.957 3.793 10.394 3.793 14.35 0s3.956-9.965 0-13.758c-3.957-3.79-10.393-3.79-14.35.003zm-131.517 144.439c-6.592 6.32-17.317 6.32-23.913 0-6.592-6.32-6.592-16.605 0-22.925 6.596-6.323 17.321-6.323 23.913 0 6.592 6.32 6.592 16.605 0 22.925zm-19.128-18.34c-3.956 3.793-3.956 9.961 0 13.755 3.953 3.793 10.39 3.793 14.347 0 3.956-3.793 3.956-9.962 0-13.755-3.957-3.793-10.394-3.793-14.347 0z"/><path fill="#73CAD8" d="M1943.349 1537.477c5.28 5.066 5.28 13.277 0 18.343-5.284 5.063-13.851 5.063-19.131 0-5.28-5.063-5.28-13.276 0-18.343 5.28-5.062 13.851-5.059 19.131 0zm11.77 107.582c-6.493 6.226-17.051 6.226-23.544 0-6.492-6.226-6.492-16.348 0-22.573 6.493-6.226 17.051-6.226 23.544 0 6.493 6.226 6.493 16.348 0 22.573zm-19.131-18.342c-4.056 3.892-4.056 10.221 0 14.112 4.059 3.889 10.66 3.889 14.72 0 4.055-3.892 4.055-10.221 0-14.112-4.06-3.889-10.662-3.889-14.72 0zm-700.453 254.041c-.297.281-.261.569-.562.857l-344.733 330.69-4.699-4.585 344.271-330.69c19.349-18.583 24.521-24.105 24.521-34.611v-130.902h6.763v130.902c0 12.994-5.967 19.549-25.561 38.339z"/><path fill="#73CAD8" d="M1258.335 1896.412c-.294.282-.693.57-.997.858l-328.62 315.035-4.809-4.585 328.759-315.035c19.438-18.6 25.336-24.106 25.336-34.612v-130.345h6.764v130.348c0 12.995-6.836 19.547-26.433 38.336z"/><path fill="#73CAD8" d="M1289.091 1907.881c-.294.282-.528.566-.829.854l-316.583 303.57-4.765-4.585 316.493-303.57c19.227-18.523 25.033-24.105 25.033-34.611v-132.084h6.763v132.084c0 12.995-6.512 19.549-26.112 38.342z"/><path fill="#73CAD8" d="M971.716 2230.645c-7.034 6.744-18.478 6.744-25.508.003-7.034-6.744-7.034-17.713 0-24.457 7.031-6.741 18.474-6.741 25.508 0 7.031 6.744 7.031 17.713 0 24.454zm-20.726-19.869c-4.396 4.214-4.392 11.073 0 15.287 4.396 4.215 11.545 4.212 15.944-.003 4.393-4.215 4.393-11.07 0-15.281-4.396-4.215-11.549-4.218-15.944-.003zm-22.318 19.869c-7.034 6.744-18.474 6.744-25.508.003-7.031-6.744-7.031-17.713 0-24.457 7.034-6.741 18.474-6.741 25.508 0 7.034 6.744 7.034 17.713 0 24.454zm-20.723-19.869c-4.396 4.214-4.396 11.073 0 15.287 4.396 4.215 11.545 4.212 15.941-.003s4.396-11.07 0-15.281c-4.393-4.215-11.546-4.218-15.941-.003z"/><path fill="#73CAD8" d="M890.413 2230.645c-7.031 6.744-18.477 6.744-25.505.003-7.034-6.744-7.034-17.713 0-24.457 7.028-6.741 18.474-6.741 25.505 0 7.031 6.744 7.031 17.713 0 24.454zm-20.723-19.869c-4.399 4.214-4.396 11.073 0 15.287 4.392 4.215 11.545 4.212 15.941-.003s4.396-11.07 0-15.281c-4.395-4.215-11.549-4.218-15.941-.003zm1125.646-874.451l-22.691 21.769h-241.491v-6.484h238.687l18.774-18.014 1.54-51.201 268.544-256.77v-55.026l648.113-622.13 5.158 4.585-646.507 620.23v55.026l-268.588 256.811zm1004.258 1320.161l-4.402 4.585-973.211-933.479v-183.417l-31.86-29.825.42-58.705-27.873-26.218h-167.262v-6.485h170.066l31.489 30.053-.04 58.774 31.822 29.717v183.417z"/><path fill="#73CAD8" d="M2019.223 1354.101l-25.056 23.448h-266.395v-6.485h263.592l21.049-19.603-1.113-62.844 257.987-247.214 1.331-51.644 635.444-609.229 4.782 4.604-633.531 607.44-1.331 51.72-257.872 246.961zm977.224 1272.579l-4.782 4.585-950.722-911.554.006-1.356 1.136-176.385-29.932-28.7.432-78.232-35.567-34.793h-242.483v-6.485h245.283l39.544 38.605-.433 77.888 29.939 28.878-.009 1.44-1.133 176.426z"/><path fill="#73CAD8" d="M2994.056 2596.875l-4.782 4.585-928.08-889.846 2.153-172.183-28.804-27.621-1.565-216.173 248.485-238.253 2.702-48.443 624.288-598.568 4.782 4.585-622.455 596.81-2.702 48.447-248.321 238.088 1.529 210.803 28.857 27.668-2.153 172.184zM882.345 1752.812l-223.787 214.324-100.002-.538-544.18 521.704-4.815-4.584 546.099-523.621 100.117.539 219.805-210.512v-165.062h6.763zM2861.648 115.923L1960.449 980l-181.496-.228-131.494 126.077c-19.415 18.587-25.297 24.248-25.297 34.754 0 12.036-.148 131.216-.148 131.216l-6.76-.006s.148-119.174.148-131.209c-.003-13.194 6.922-19.873 27.275-39.339l133.478-127.98 181.496.228 899.214-862.174 4.783 4.584zm-1191.699 899.582l-112.389 107.756-4.781-4.585 107.606-103.171-88.007-84.382-313.316 1.454-27.552 26.42-55.601.095-888.447-851.849 4.782-4.588 886.463 849.946 49.995-.086 27.543-26.407 1.393-.01 317.527-1.472z"/><path fill="#73CAD8" d="M2825.78 113.63l-882.395 846.045-322.655-.532-48.464-46.47-300.483 3.122-26.473 25.382-55.018-.393L285.071 72.853l4.782-4.585 903.265 866.054 49.412.351 26.419-25.331 1.381-.016 304.706-3.167 48.5 46.502 317.052.529 880.409-844.145z"/><path fill="#73CAD8" d="M2792.303 113.63L1928.63 941.728l-311.966-.241-46.528-44.612-286.246 2.727-25.442 24.394-53.691-1.444L306.59 61.387l4.785-4.585 896.261 859.341 48.09 1.292 25.337-24.293 291.847-2.777 46.561 44.64 306.361.232 861.689-826.192zM1338.294 965.938c15.561 0 28.183 12.102 28.183 27.022 0 14.92-12.622 27.019-28.183 27.019s-28.183-12.099-28.183-27.019c0-14.92 12.622-27.022 28.183-27.022zm135.658 47.927c-5.674 5.44-13.217 8.436-21.242 8.436-16.565.006-30.045-12.919-30.042-28.805 0-7.691 3.127-14.923 8.801-20.363s13.22-8.442 21.241-8.436c8.022-.003 15.564 2.993 21.242 8.436 5.673 5.44 8.797 12.672 8.797 20.366s-3.123 14.926-8.797 20.366zm-32.677-31.335c-3.058 2.932-4.739 6.827-4.743 10.968 0 8.552 7.256 15.509 16.179 15.509 4.32 0 8.378-1.615 11.437-4.547 3.055-2.926 4.736-6.821 4.739-10.965 0-4.139-1.684-8.033-4.742-10.962-3.055-2.929-7.113-4.544-11.433-4.544-4.321 0-8.383 1.615-11.437 4.541z"/><path fill="#73CAD8" d="M1352.402 985.218h81.161v16.212h-81.161zm192.757 25.939h-40.58v-38.909h40.58v38.909zm-27.053-12.969h13.527v-12.97h-13.527v12.97zm-236.72 12.969h-40.581v-38.909h40.581v38.909zm-27.053-12.969h13.527v-12.97h-13.527v12.97zm27.053 71.333h-40.581v-38.909h40.581v38.909zm-27.053-12.97h13.527v-12.97h-13.527v12.97zm774.298 110.27l-28.691 27.516-28.695-27.516 28.695-27.51 28.691 27.51zm-28.691 9.173l9.563-9.173-9.563-9.17-9.567 9.17 9.567 9.173zm76.517-55.025l-28.695 27.513-28.694-27.513 28.694-27.513 28.695 27.513zm-28.695 9.172l9.564-9.173-9.564-9.173-9.563 9.173 9.563 9.173zM823.456 1969.277l-28.698 27.513-28.692-27.513 28.692-27.513 28.698 27.513zm-28.698 9.17l9.567-9.17-9.567-9.173-9.564 9.173 9.564 9.17zm64.563-43.561l-28.692 27.51-28.695-27.51 28.695-27.513 28.692 27.513zm-28.692 9.17l9.564-9.17-9.564-9.173-9.564 9.173 9.564 9.17zm64.563-43.562l-28.695 27.513-28.695-27.513 28.695-27.514 28.695 27.514zm-28.696 9.173l9.564-9.173-9.564-9.17-9.567 9.17 9.567 9.173zm64.563-43.564l-28.695 27.513-28.695-27.513 28.695-27.513 28.695 27.513zm-28.694 9.17l9.564-9.17-9.564-9.17-9.564 9.17 9.564 9.17zm64.562-43.56l-28.695 27.513-28.695-27.513 28.695-27.513 28.695 27.513zm-28.695 9.17l9.567-9.17-9.567-9.17-9.564 9.17 9.564 9.17zm-74.126 167.37l-28.695 27.513-28.695-27.513 28.695-27.513 28.695 27.513zm-28.696 9.17l9.564-9.17-9.564-9.17-9.563 9.17 9.563 9.17zm64.563-43.561l-28.695 27.513-28.695-27.513 28.695-27.513 28.695 27.513zm-28.694 9.17l9.567-9.17-9.567-9.173-9.564 9.173 9.564 9.17zm64.563-43.561l-28.695 27.514-28.691-27.514 28.691-27.513 28.695 27.513zm-28.696 9.17l9.564-9.17-9.564-9.173-9.564 9.173 9.564 9.17zm64.563-43.562l-28.691 27.513-28.699-27.513 28.699-27.51 28.691 27.51zm-28.691 9.173l9.563-9.173-9.563-9.17-9.567 9.17 9.567 9.173zm64.562-43.564l-28.698 27.513-28.691-27.513 28.691-27.513 28.698 27.513zm-28.698 9.173l9.567-9.173-9.567-9.17-9.564 9.17 9.564 9.173zm-74.126 167.367l-28.695 27.513-28.695-27.513 28.695-27.514 28.695 27.514zm-28.696 9.173l9.567-9.173-9.567-9.17-9.564 9.17 9.564 9.173zm64.567-43.563l-28.698 27.513-28.692-27.513 28.692-27.513 28.698 27.513zm-28.699 9.17l9.564-9.17-9.564-9.17-9.564 9.17 9.564 9.17zm64.563-43.561L947.8 2005.96l-28.698-27.513 28.698-27.513 28.691 27.513zm-28.691 9.17l9.564-9.17-9.564-9.17-9.567 9.17 9.567 9.17zm64.563-43.561l-28.698 27.514-28.692-27.514 28.692-27.513 28.698 27.513zm-28.699 9.17l9.567-9.17-9.567-9.17-9.564 9.17 9.564 9.17zm64.566-43.559l-28.695 27.513-28.695-27.513 28.695-27.513 28.695 27.513zm-28.695 9.17l9.564-9.17-9.564-9.173-9.564 9.173 9.564 9.17zm-74.127 167.37l-28.698 27.513-28.691-27.513 28.691-27.514 28.698 27.514zm-28.698 9.17l9.567-9.17-9.567-9.174-9.564 9.174 9.564 9.17zm64.563-43.564l-28.692 27.513-28.695-27.513 28.695-27.514 28.692 27.514zm-28.692 9.173l9.564-9.173-9.564-9.17-9.563 9.17 9.563 9.173zm64.563-43.563l-28.695 27.513-28.695-27.513 28.695-27.513 28.695 27.513zm-28.695 9.172l9.564-9.173-9.564-9.17-9.567 9.17 9.567 9.173zm64.563-43.563l-28.695 27.513-28.695-27.513 28.695-27.513 28.695 27.513zm-28.695 9.17l9.564-9.17-9.564-9.17-9.564 9.17 9.564 9.17zm64.563-43.561l-28.695 27.514-28.695-27.514 28.695-27.513 28.695 27.513zm-28.695 9.17l9.567-9.17-9.567-9.17-9.564 9.17 9.564 9.17zm1173.301 41.272c-7.034 6.741-18.478 6.741-25.512 0-7.03-6.744-7.03-17.713.004-24.457 7.03-6.741 18.474-6.741 25.505 0 7.034 6.744 7.034 17.713.003 24.457zm-20.727-19.872c-4.396 4.214-4.396 11.072-.003 15.287 4.396 4.211 11.552 4.211 15.947 0 4.393-4.215 4.393-11.073-.003-15.287-4.395-4.215-11.545-4.215-15.941 0zm-12.75-12.226c-7.034 6.741-18.478 6.741-25.512 0-7.031-6.741-7.031-17.713.003-24.458 7.031-6.741 18.475-6.741 25.505 0 7.034 6.745 7.034 17.717.004 24.458zm-20.727-19.873c-4.396 4.215-4.396 11.073-.003 15.284 4.396 4.215 11.552 4.215 15.947 0 4.393-4.211 4.393-11.069-.004-15.284-4.395-4.214-11.544-4.214-15.94 0zm92.462 88.653c-7.034 6.744-18.478 6.744-25.508 0-7.034-6.741-7.034-17.713 0-24.457 7.03-6.741 18.474-6.741 25.505 0 7.035 6.744 7.035 17.716.003 24.457zm-20.726-19.872c-4.392 4.214-4.396 11.072 0 15.287 4.393 4.215 11.549 4.215 15.944 0s4.393-11.073-.003-15.287c-4.395-4.215-11.545-4.215-15.941 0zm56.591 34.391c5.727 5.49 5.727 14.388.004 19.872-5.724 5.487-15.003 5.487-20.727 0-5.723-5.484-5.723-14.382.003-19.872 5.721-5.484 15-5.484 20.72 0zm43.044 61.14c-7.03 6.744-18.474 6.744-25.508 0-7.03-6.741-7.03-17.71.004-24.454 7.03-6.741 18.474-6.741 25.504 0 7.035 6.744 7.035 17.712 0 24.454zm-20.723-19.87c-4.396 4.215-4.396 11.069-.003 15.284 4.396 4.215 11.552 4.215 15.944 0 4.396-4.215 4.393-11.069 0-15.284-4.395-4.214-11.546-4.214-15.941 0zm39.854 272.071c-7.034 6.744-18.478 6.744-25.509 0-7.03-6.741-7.03-17.713 0-24.457 7.031-6.741 18.475-6.741 25.505 0 7.035 6.744 7.035 17.716.004 24.457zm-20.723-19.872c-4.398 4.218-4.398 11.072-.003 15.287s11.549 4.215 15.944 0 4.393-11.073-.003-15.287c-4.392-4.212-11.546-4.212-15.938 0zm116.372-71.837c-7.034 6.745-18.474 6.745-25.508 0-7.031-6.741-7.031-17.713 0-24.457 7.034-6.741 18.474-6.741 25.508 0 7.031 6.744 7.031 17.716 0 24.457zm-20.723-19.872c-4.396 4.215-4.399 11.073-.003 15.287 4.396 4.215 11.548 4.212 15.943 0 4.396-4.214 4.393-11.072-.003-15.287-4.392-4.215-11.544-4.215-15.937 0zm8.768 145.971c-7.034 6.744-18.477 6.744-25.511 0-7.031-6.741-7.031-17.713.003-24.458 7.031-6.741 18.474-6.741 25.505 0 7.034 6.745 7.034 17.717.003 24.458zm-20.726-19.869c-4.396 4.214-4.396 11.069 0 15.284 4.392 4.214 11.545 4.214 15.944 0 4.392-4.215 4.392-11.073-.004-15.284-4.395-4.215-11.544-4.215-15.94 0zm-141.88-119.221c5.723 5.487 5.723 14.385.003 19.869-5.723 5.487-15.006 5.487-20.729 0-5.72-5.484-5.72-14.382.004-19.869 5.719-5.488 14.999-5.488 20.722 0zm109.994-55.027c5.727 5.487 5.724 14.386.004 19.869-5.724 5.488-15.003 5.488-20.727 0-5.723-5.483-5.723-14.382.003-19.869 5.721-5.487 15.001-5.487 20.72 0zm114.781 55.027c5.723 5.487 5.723 14.385.003 19.869-5.723 5.487-15.003 5.487-20.726 0-5.724-5.484-5.724-14.382 0-19.869 5.723-5.488 15.003-5.488 20.723 0zm-121.953 139.853c5.724 5.487 5.724 14.385.004 19.872-5.724 5.488-15.003 5.488-20.727 0-5.723-5.487-5.723-14.385 0-19.872 5.724-5.484 15.003-5.484 20.723 0zm-570.095-389.174c-6.489 6.223-17.051 6.223-23.543 0-6.489-6.225-6.489-16.351 0-22.573 6.492-6.225 17.054-6.225 23.543 0 6.492 6.223 6.492 16.349 0 22.573zm-19.128-18.343c-4.059 3.892-4.056 10.222 0 14.109 4.056 3.889 10.657 3.892 14.716 0 4.059-3.888 4.056-10.221 0-14.109-4.056-3.887-10.66-3.887-14.716 0zm66.954 18.343c-6.489 6.223-17.051 6.223-23.543 0-6.493-6.225-6.489-16.351 0-22.573 6.489-6.225 17.05-6.225 23.543 0 6.492 6.223 6.489 16.349 0 22.573zm-19.131-18.343c-4.056 3.892-4.056 10.222 0 14.109 4.059 3.889 10.66 3.892 14.719 0 4.056-3.888 4.056-10.221 0-14.109-4.059-3.887-10.66-3.887-14.719 0zm57.39 18.343c-6.489 6.223-17.051 6.223-23.543 0-6.493-6.225-6.489-16.351 0-22.573 6.492-6.225 17.051-6.225 23.543 0 6.492 6.223 6.492 16.349 0 22.573zm-19.128-18.343c-4.059 3.892-4.059 10.222 0 14.109 4.056 3.889 10.657 3.892 14.716 0 4.056-3.888 4.056-10.221 0-14.109-4.056-3.887-10.66-3.887-14.716 0zm66.954 18.343c-6.493 6.223-17.054 6.223-23.543 0-6.493-6.225-6.493-16.351 0-22.573 6.489-6.225 17.05-6.225 23.543 0 6.492 6.223 6.489 16.349 0 22.573zm-19.131-18.343c-4.056 3.892-4.056 10.222 0 14.109 4.055 3.889 10.66 3.892 14.715 0 4.06-3.888 4.06-10.221 0-14.109-4.055-3.887-10.656-3.887-14.715 0z"/><path fill="#73CAD8" d="M2207.974 1990.362h-46.832l-243.506-233.225.796-122.917-62.548-59.911 4.781-4.553 64.55 61.903-.796 122.803 239.524 229.416h44.031z"/><path fill="#73CAD8" d="M2247.178 2024.274l-80.028-.139-276.73-265.332-.237-101.107-80.894-77.561 4.785-4.584 82.866 79.454.237 101.11 272.779 261.539 77.232.136z"/><path fill="#73CAD8" d="M2283.686 2062.781l-110.001-.281-399.683-383.218 4.782-4.588 397.707 381.324 107.215.279z"/><path fill="#73CAD8" d="M2326.334 2100.686l-146.06.035-395.446-379.06 4.733-4.585L2183.1 2094.24l143.234-.038z"/><path fill="#73CAD8" d="M2499.705 2260.451l-4.781 4.588-89.483-85.797-244.302-.38-429.018-411.345 4.782-4.585 427.043 409.449 244.302.382z"/><path fill="#73CAD8" d="M2056.432 2005.098c5.775 5.542 5.775 14.524 0 20.063l-.599.573c-5.775 5.538-15.145 5.538-20.924 0l-46.029-44.133c-5.779-5.542-5.779-14.524 0-20.065l.594-.57c5.779-5.541 15.148-5.541 20.925 0l46.033 44.132zM811.329 2287.447c0 7.834-6.625 14.186-14.795 14.186h-65.098c-8.17 0-14.795-6.352-14.795-14.186v-.811c0-7.833 6.625-14.186 14.795-14.186h65.098c8.17 0 14.795 6.353 14.795 14.186v.811zm1072.236-467.963c11.004 10.551 11.004 27.662 0 38.212-11.004 10.551-28.851 10.551-39.854 0-11.001-10.55-11.004-27.658 0-38.212 11.003-10.547 28.85-10.547 39.854 0zm81.821 117.426c-11.714 11.231-30.772 11.234-42.485.004-11.711-11.231-11.711-29.505 0-40.736 11.717-11.231 30.771-11.231 42.485 0s11.714 29.501 0 40.732zm-32.681-31.334c-6.308 6.048-6.305 15.889.003 21.937 6.308 6.045 16.565 6.045 22.873 0 6.308-6.048 6.311-15.889.003-21.937-6.307-6.045-16.574-6.045-22.879 0z"/><path fill="#73CAD8" d="M1935.377 1898.201l-11.959 11.466-57.389-55.027 11.958-11.464zm239.12 210.931l-28.695 27.513-28.694-27.513 28.694-27.514 28.695 27.514zm-28.695 9.172l9.567-9.173-9.567-9.17-9.563 9.17 9.563 9.173zm-19.128-55.026l-28.694 27.514-28.695-27.514 28.695-27.513 28.694 27.513zm-28.694 9.17l9.563-9.17-9.563-9.17-9.567 9.17 9.567 9.17zm-289.341-84.831l-4.782 4.585-95.405-91.475-23.117.764-65.603-62.9 4.782-4.585 63.526 60.908 23.114-.766zm45.434 2.293l-4.781 4.588-119.321-114.405-23.113.762-65.604-62.897 4.782-4.588 63.526 60.909 23.114-.764zm40.651-2.293l-4.782 4.585-138.449-132.745-23.117.766-65.599-62.901 4.781-4.585 63.522 60.906 23.118-.762zm45.434 2.293l-4.781 4.588-162.362-155.673-23.117.763-65.603-62.901 4.785-4.585 63.523 60.906 23.117-.763zm363.465 343.909l-4.782 4.585-108.681-104.203 82.588.576 24.693-23.932h83.001v6.486h-80.198l-24.725 23.957-68.86-.565z"/><path fill="#73CAD8" d="M2444.707 2271.916l-74.127 71.073-4.785-4.585 29.012-27.816-78.255-1.058-36.839-35.321 4.782-4.585 34.897 33.459 82.089 1.108 38.444-36.86zM830.629 2384.26c-7.034 6.741-18.477 6.741-25.508 0-7.034-6.741-7.034-17.713 0-24.458 7.031-6.741 18.474-6.741 25.505 0 7.033 6.746 7.033 17.717.003 24.458zm-20.726-19.873c-4.396 4.215-4.399 11.073 0 15.284 4.392 4.215 11.545 4.218 15.944 0 4.392-4.211 4.392-11.069-.003-15.284-4.396-4.213-11.546-4.213-15.941 0zm-27.101 24.458c-7.034 6.744-18.474 6.744-25.508 0-7.034-6.741-7.034-17.713 0-24.458 7.034-6.741 18.474-6.741 25.508 0 7.035 6.746 7.035 17.717 0 24.458zm-20.726-19.873c-4.392 4.215-4.396 11.073 0 15.288 4.392 4.211 11.549 4.214 15.944 0 4.396-4.215 4.392-11.073 0-15.288-4.398-4.213-11.545-4.213-15.944 0zm74.13-84.831c-5.723 5.491-5.723 14.389-.003 19.873 5.726 5.487 15.006 5.487 20.726 0 5.723-5.484 5.723-14.382 0-19.873-5.719-5.484-15-5.484-20.723 0z"/><path fill="#73CAD8" d="M936.921 2259.419l-108.683 104.206-4.782-4.585 96.96-92.969-68.856.798-24.722-23.6h-79.761v-6.484h82.561l24.696 23.574z"/><path fill="#73CAD8" d="M847.365 2299.429l-36.835 35.322-78.261 1.057 29.015 27.817-4.782 4.585-74.13-71.074 4.782-4.584 38.443 36.86 82.09-1.109 34.897-33.459zm1731.25 41.268l-4.783 4.585-22.135-21.225-79.299-.737-82.69 79.28-4.782-4.585 84.697-81.209 84.904.795z"/><path fill="#73CAD8" d="M2451.457 2382.693h131.887v6.484h-131.887zm-269.787-440.929l-4.782 4.585-190.3-182.461.402-196.789-33.889-32.494.403-50.054-21.119-20.249-96.233.383-.027-6.485 99.047-.396 25.118 24.081.182 50.058 34.455 32.471v1.349l-.988 195.44zm-923.011-325.566l-4.782 4.585-148.26-142.15 4.785-4.585zm0-32.099l-4.782 4.585-148.26-142.149 4.785-4.585zm0-32.097l-4.782 4.585-148.26-142.15 4.785-4.585zm0-32.101l-4.782 4.588-148.26-142.149 4.785-4.585zm-144.271-593.815c-7.034 6.744-18.478 6.744-25.508 0-7.034-6.745-7.034-17.713 0-24.458 7.031-6.741 18.474-6.741 25.508 0 7.031 6.745 7.031 17.713 0 24.458zm-20.726-19.873c-4.392 4.214-4.396 11.073 0 15.288 4.396 4.214 11.549 4.211 15.944 0 4.392-4.215 4.392-11.07 0-15.284-4.399-4.215-11.548-4.215-15.944-.004zm54.203 51.97c-7.034 6.741-18.477 6.741-25.508.003-7.031-6.745-7.031-17.716 0-24.46 7.031-6.742 18.474-6.742 25.508.003 7.031 6.741 7.031 17.713 0 24.454zm-20.723-19.872c-4.399 4.214-4.399 11.073 0 15.291 4.392 4.211 11.545 4.211 15.941-.006 4.396-4.211 4.396-11.067 0-15.281s-11.549-4.219-15.941-.004zm-51.016-48.911c-7.031 6.744-18.474 6.744-25.505.003-7.034-6.741-7.034-17.716 0-24.457 7.031-6.742 18.474-6.742 25.505.003 7.034 6.738 7.034 17.712 0 24.451zm-20.723-19.869c-4.396 4.214-4.396 11.073 0 15.287s11.549 4.211 15.941-.003c4.396-4.211 4.396-11.07 0-15.281-4.392-4.218-11.545-4.218-15.941-.003zm-19.923-38.976c-5.727-5.487-15.006-5.487-20.727 0-5.726 5.488-5.726 14.385 0 19.873 5.72 5.484 15 5.484 20.727-.003 5.719-5.485 5.719-14.386 0-19.87zm-38.262-16.814c-7.034 6.745-18.474 6.745-25.508 0-7.034-6.741-7.034-17.713 0-24.458 7.034-6.741 18.474-6.741 25.508.003 7.03 6.743 7.03 17.714 0 24.455zm-20.727-19.872c-4.392 4.215-4.392 11.076 0 15.288 4.396 4.218 11.549 4.211 15.944 0 4.393-4.214 4.393-11.07 0-15.284-4.395-4.215-11.548-4.215-15.944-.004zm-242.307 1.533c-7.034 6.741-18.477 6.741-25.508 0-7.034-6.745-7.034-17.713 0-24.458 7.031-6.744 18.474-6.744 25.508 0 7.028 6.745 7.028 17.713 0 24.458zm-20.726-19.873c-4.396 4.215-4.396 11.073 0 15.288 4.396 4.211 11.545 4.211 15.944-.003 4.392-4.214 4.392-11.069 0-15.284-4.399-4.212-11.552-4.215-15.944-.001zm116.371-71.839c-7.031 6.745-18.474 6.745-25.505.003-7.034-6.745-7.034-17.716 0-24.461 7.031-6.738 18.474-6.738 25.505.003 7.035 6.742 7.035 17.713 0 24.455zm-20.722-19.873c-4.396 4.218-4.396 11.076 0 15.291 4.396 4.214 11.549 4.211 15.941-.003 4.396-4.211 4.396-11.07 0-15.281-4.392-4.218-11.546-4.218-15.941-.007zm-110.794 31.335c-7.034 6.745-18.474 6.745-25.508.006-7.031-6.745-7.031-17.719 0-24.46 7.034-6.741 18.474-6.741 25.508.003 7.034 6.738 7.034 17.713 0 24.451zm-20.723-19.869c-4.396 4.214-4.396 11.073 0 15.288s11.545 4.214 15.941-.003c4.396-4.211 4.396-11.07 0-15.281-4.396-4.218-11.545-4.218-15.941-.004zm20.723-126.862c-7.034 6.745-18.474 6.745-25.508 0-7.031-6.744-7.031-17.713 0-24.457 7.034-6.741 18.474-6.741 25.508 0 7.034 6.744 7.034 17.713 0 24.457zm-20.723-19.872c-4.396 4.214-4.396 11.073 0 15.287 4.396 4.215 11.548 4.211 15.941 0 4.396-4.214 4.396-11.069 0-15.284s-11.545-4.215-15.941-.003zm-34.276 132.216c-7.031 6.745-18.474 6.745-25.505 0-7.034-6.745-7.034-17.713 0-24.458 7.031-6.744 18.474-6.744 25.505 0 7.034 6.745 7.034 17.713 0 24.458zm-20.723-19.873c-4.396 4.215-4.396 11.073 0 15.288s11.548 4.211 15.941 0c4.396-4.217 4.396-11.07 0-15.288-4.393-4.211-11.545-4.214-15.941 0zm-65.359-16.813c-7.034 6.745-18.477 6.745-25.508.003-7.034-6.745-7.034-17.716 0-24.46 7.031-6.738 18.474-6.738 25.508.003 7.031 6.741 7.031 17.713 0 24.454zm-20.726-19.872c-4.396 4.218-4.396 11.076 0 15.291s11.545 4.211 15.944-.003c4.392-4.211 4.392-11.069 0-15.281-4.398-4.219-11.548-4.219-15.944-.007zm281.369 222.399c-5.723-5.488-15.003-5.488-20.726-.003-5.72 5.491-5.72 14.388 0 19.873 5.723 5.487 15.003 5.487 20.726 0 5.719-5.486 5.719-14.383 0-19.87zm57.389-105.464c-5.723-5.491-15.003-5.491-20.726-.007-5.72 5.491-5.72 14.388 0 19.876 5.723 5.487 15.003 5.487 20.726-.003 5.721-5.484 5.721-14.382 0-19.866zm-57.389-110.051c-5.723-5.491-15.003-5.491-20.726-.003-5.72 5.487-5.72 14.385 0 19.873 5.723 5.487 15.003 5.487 20.726-.003 5.719-5.486 5.719-14.384 0-19.867zm-81.3-73.37c-5.727-5.487-15.006-5.487-20.726-.003-5.723 5.49-5.723 14.388 0 19.872 5.72 5.487 15 5.487 20.726 0 5.72-5.483 5.72-14.381 0-19.869zm4.782 261.372c-5.726-5.487-15.006-5.487-20.726-.003-5.723 5.487-5.723 14.385 0 19.875 5.72 5.484 15 5.484 20.726-.003 5.72-5.488 5.72-14.385 0-19.869zm-69.345-71.074c-5.727-5.49-15.006-5.49-20.726-.003-5.723 5.487-5.723 14.385 0 19.872 5.72 5.488 15 5.488 20.726-.003 5.72-5.484 5.72-14.381 0-19.866zm-33.48-50.44c-5.72-5.491-15.003-5.491-20.723-.003-5.723 5.487-5.723 14.385 0 19.875 5.723 5.484 15.003 5.484 20.723-.006 5.723-5.484 5.723-14.382 0-19.866z"/><path fill="#73CAD8" d="M1108.807 1461.82c-5.284-5.063-13.847-5.063-19.127 0-5.284 5.063-5.284 13.276 0 18.343 5.277 5.06 13.844 5.063 19.127 0 5.284-5.067 5.281-13.28 0-18.343zm2.206-11.64c-6.489 6.222-17.05 6.222-23.54 0-6.493-6.222-6.493-16.352 0-22.574 6.489-6.225 17.05-6.225 23.54 0 6.493 6.222 6.493 16.352 0 22.574zm-19.128-18.343c-4.059 3.892-4.059 10.221 0 14.109 4.055 3.892 10.66 3.892 14.715 0 4.056-3.888 4.056-10.218 0-14.109-4.054-3.889-10.659-3.889-14.715 0zm-121.953 199.467c-6.493 6.222-17.054 6.222-23.543 0s-6.489-16.352 0-22.573 17.05-6.222 23.543 0c6.49 6.222 6.49 16.352 0 22.573zm-19.13-18.342c-4.059 3.892-4.059 10.221 0 14.112 4.059 3.889 10.66 3.889 14.719 0 4.056-3.892 4.056-10.221 0-14.112-4.059-3.889-10.661-3.889-14.719 0zm231.95 80.246c-6.489 6.222-17.054 6.222-23.543 0-6.493-6.222-6.493-16.352 0-22.573 6.489-6.222 17.054-6.222 23.543 0s6.489 16.351 0 22.573zm-19.131-18.343c-4.056 3.892-4.056 10.221 0 14.112 4.055 3.889 10.66 3.889 14.715 0 4.059-3.892 4.059-10.221 0-14.112-4.055-3.889-10.659-3.889-14.715 0zm-43.044 247.616c-6.486 6.222-17.047 6.225-23.54 0-6.493-6.226-6.493-16.352 0-22.573 6.489-6.226 17.054-6.226 23.54 0 6.493 6.222 6.493 16.348 0 22.573zm-19.128-18.343c-4.056 3.891-4.056 10.221 0 14.109 4.055 3.892 10.66 3.892 14.715 0 4.059-3.889 4.056-10.222 0-14.109-4.054-3.888-10.659-3.891-14.715 0zm-28.695-110.051c-6.489 6.225-17.05 6.225-23.543 0-6.493-6.223-6.493-16.349 0-22.573 6.493-6.223 17.054-6.223 23.543 0 6.489 6.224 6.489 16.35 0 22.573zm-19.131-18.34c-4.056 3.888-4.056 10.218 0 14.109 4.059 3.892 10.66 3.892 14.719 0 4.059-3.892 4.059-10.222 0-14.109-4.059-3.892-10.66-3.892-14.719 0zm-595.411 502.106c-6.493 6.222-17.054 6.222-23.546 0-6.489-6.226-6.489-16.352 0-22.573 6.492-6.226 17.054-6.226 23.546 0 6.486 6.222 6.486 16.348 0 22.573zm-19.135-18.343c-4.056 3.892-4.056 10.221 0 14.109 4.062 3.892 10.66 3.892 14.719 0 4.059-3.889 4.059-10.218 0-14.109s-10.657-3.891-14.719 0zm50.217-11.462c-6.489 6.222-17.054 6.222-23.54 0-6.492-6.225-6.492-16.352-.003-22.573 6.489-6.225 17.054-6.225 23.543 0 6.493 6.221 6.493 16.348 0 22.573zm-19.128-18.343c-4.059 3.892-4.059 10.221 0 14.109 4.056 3.892 10.661 3.892 14.716 0 4.056-3.889 4.056-10.218 0-14.109-4.055-3.889-10.66-3.889-14.716 0zm638.641-832.081c-5.284-5.063-13.847-5.063-19.127 0-5.284 5.063-5.284 13.277 0 18.343 5.277 5.06 13.844 5.063 19.127 0 5.284-5.066 5.281-13.28 0-18.343zm2.206-11.643c-6.489 6.225-17.05 6.225-23.54 0-6.493-6.222-6.493-16.348 0-22.57 6.489-6.226 17.05-6.226 23.54 0 6.493 6.222 6.493 16.348 0 22.57zm-19.128-18.34c-4.059 3.888-4.059 10.221 0 14.11 4.055 3.891 10.66 3.891 14.715 0 4.056-3.889 4.056-10.222 0-14.11-4.054-3.888-10.659-3.888-14.715 0zm9.564-50.441c-6.493 6.226-17.054 6.226-23.543 0-6.489-6.222-6.489-16.351 0-22.57 6.489-6.225 17.051-6.225 23.543 0 6.493 6.219 6.493 16.348 0 22.57zm-19.127-18.34c-4.059 3.889-4.059 10.221 0 14.11 4.055 3.888 10.657 3.888 14.716 0 4.055-3.889 4.055-10.221 0-14.11-4.06-3.891-10.661-3.891-14.716 0zm19.127-27.513c-6.493 6.222-17.054 6.222-23.543 0s-6.489-16.352 0-22.573c6.489-6.225 17.051-6.225 23.543 0 6.493 6.222 6.493 16.351 0 22.573zm-19.127-18.342c-4.059 3.891-4.059 10.221 0 14.109 4.055 3.892 10.657 3.892 14.716 0 4.055-3.889 4.055-10.218 0-14.109-4.06-3.889-10.661-3.889-14.716 0zm19.127-18.34c-6.493 6.222-17.054 6.222-23.543 0-6.489-6.226-6.489-16.352 0-22.577 6.489-6.222 17.051-6.222 23.543 0 6.493 6.225 6.493 16.351 0 22.577zm-19.127-18.343c-4.059 3.892-4.059 10.218 0 14.109 4.055 3.892 10.657 3.892 14.716 0 4.055-3.891 4.055-10.218 0-14.109-4.06-3.892-10.661-3.892-14.716 0zm19.127-27.513c-6.493 6.225-17.054 6.225-23.543 0s-6.489-16.352 0-22.574c6.489-6.222 17.051-6.222 23.543 0 6.493 6.222 6.493 16.349 0 22.574zm-19.127-18.34c-4.059 3.888-4.059 10.218 0 14.109 4.055 3.888 10.657 3.888 14.716 0 4.055-3.892 4.055-10.221 0-14.109-4.06-3.892-10.661-3.892-14.716 0zm410.335 46.47l-4.782 4.585-18.586-17.821-127.669.761-242.846-233.473v-44.136h6.764v41.451l238.866 229.657 128-.764z"/><path fill="#73CAD8" d="M1493.41 1268.095l-4.785 4.585-43.692-41.891-105.453-.228-276.729-265.329-.145-76.732 6.76-.012.142 74.052 272.779 261.542 105.453.228z"/><path fill="#73CAD8" d="M1406.912 1318.144l-4.781 4.585-379.392-363.763-.294-105.474 6.76-.015.29 102.797z"/><path fill="#73CAD8" d="M1383.003 1327.314l-4.782 4.585-395.35-378.868.037-139.66h6.767l-.04 136.975z"/><path fill="#73CAD8" d="M1335.177 1377.755l-4.782 4.585-429.018-411.345-.396-234.238-89.483-85.797 4.785-4.585 91.455 87.69.399 234.238z"/><path fill="#73CAD8" d="M1082.605 1071.389c-5.779-5.538-15.148-5.538-20.924 0l-.598.573c-5.776 5.538-5.776 14.521-.003 20.063l46.033 44.133c5.776 5.542 15.148 5.542 20.924 0l.598-.57c5.779-5.541 5.776-14.524 0-20.063l-46.03-44.136zm-79.806-85.693l-28.698 27.517-28.692-27.517 28.692-27.509 28.698 27.509zm-28.699 9.173l9.564-9.173-9.564-9.169-9.564 9.169 9.564 9.173zm76.521 36.683l-28.695 27.513-28.695-27.513 28.695-27.513 28.695 27.513zm-28.694 9.17l9.563-9.169-9.563-9.17-9.564 9.17 9.564 9.169zm239.123 444.791l-4.782 4.585-65.603-62.9.796-22.165-95.408-91.474 4.782-4.585 97.488 93.466-.799 22.165zm21.519-20.638l-4.782 4.588-65.6-62.901.793-22.164-119.318-114.403 4.782-4.585 121.398 116.397-.796 22.162zm21.522-20.632l-4.782 4.585-65.603-62.898.799-22.165-138.452-132.745 4.782-4.588 140.529 134.74-.796 22.162zm21.522-20.636l-4.782 4.589-65.603-62.904.796-22.162-162.362-155.67 4.782-4.588 164.442 157.664-.799 22.165zM843.66 943.172L734.977 838.965l4.785-4.585 96.963 92.966-.06-66.02 25.39-23.707v-76.127h6.763v78.815l-25.359 23.676z"/><path fill="#73CAD8" d="M806.716 852.72l-4.782 4.585-36.839-35.321-1.103-75.035-29.015 27.82-4.782-4.588 74.129-71.073 4.783 4.585-38.444 36.86 1.156 78.705zm-49.21-177.502l-84.701 81.205-4.782-4.585 82.69-79.281-.77-76.031-22.14-21.227 4.783-4.585 24.094 23.101z"/><path fill="#73CAD8" d="M682.824 566.948h6.763v126.454h-6.763zm1264.758 1057.023h-6.762v-36.236l-10.813-10.722-104.549-.374.139-6.484 107.184.393 14.801 14.499zm-131.885-81.06h114.978v6.485h-114.978zm-3.382-25.94h114.978v6.485h-114.978zm311.117-403.83l-211.483 202.508-142.015.576-.096-6.485 139.33-.567 207.5-198.72V913.281l290.054-278.372 69.206 66.492-4.848 4.585-64.322-61.904-283.326 271.884z"/><path fill="#73CAD8" d="M2164.131 1071.088l-6.764.025-.604-146.364 218.599-209.591 45.432 43.561-4.782 4.584-40.65-38.975-211.823 203.094z"/><path fill="#73CAD8" d="M2215.854 1023.997l-96.356 92.387-4.782-4.589 94.348-90.457-.899-95.436 140.893-135.085 16.737 16.047-4.782 4.585-11.955-11.462-134.103 128.575zm684.052-907.559l-922.479 884.992H1795.68l-120.034 114.101c-19.385 18.533-25.653 23.593-25.653 34.096v130.649h-6.764v-130.649c0-13.191 7.388-19.322 27.635-38.681l122.013-116.001h181.747l920.501-882.835 4.781 4.328zm-945.56 1090.704l-61.518 58.857-141.384.007v-6.485l138.584-.007 57.554-55.057v-50.444l111.597-107.756v-70.766h6.764v73.454l-111.597 107.756z"/><path fill="#73CAD8" d="M1907.63 1168.208l-74.464 71.393-131.516.582-.031-6.484 128.73-.567 70.599-67.691 1.2-37.833 95.401-91.471 4.781 4.585-93.505 89.654z"/><path fill="#73CAD8" d="M1862.257 1133.758l-69.754 66.88-107.022-.379.023-6.489 104.208.371 65.742-63.03-.66-45.223-60.501 58.008-4.782-4.585 71.818-68.863z"/><path fill="#73CAD8" d="M1856.277 1037.096h6.764v42.151h-6.764zm-47.344 35.667h-39.544l-65.963 62.603-4.782-4.262 67.945-64.826h42.344zM622.591 699.108l-4.782 4.585-64.563-61.903 4.782-4.589zm10.558-40.147l-6.767.051-.584-71.466-41.466-39.757 4.782-4.585 43.424 41.632zm208.639 1476.154c-7.035 6.744-18.478 6.744-25.512 0-7.027-6.741-7.027-17.713.007-24.454 7.027-6.745 18.47-6.745 25.501 0 7.035 6.741 7.035 17.713.004 24.454zm-20.723-19.869c-4.399 4.214-4.399 11.069-.003 15.284 4.396 4.214 11.549 4.214 15.944 0 4.396-4.215 4.396-11.07-.003-15.284-4.393-4.215-11.546-4.215-15.938 0zm-132.316 19.869c-7.034 6.744-18.474 6.744-25.508 0-7.035-6.741-7.035-17.713 0-24.454 7.034-6.745 18.474-6.745 25.508 0 7.031 6.741 7.031 17.713 0 24.454zm-20.726-19.869c-4.392 4.214-4.396 11.069 0 15.284 4.396 4.214 11.549 4.214 15.944 0 4.392-4.215 4.392-11.07-.003-15.284-4.396-4.215-11.546-4.215-15.941 0zm142.679 72.602c-7.035 6.744-18.474 6.744-25.508 0-7.034-6.741-7.034-17.713 0-24.458 7.034-6.741 18.474-6.741 25.508 0 7.031 6.745 7.031 17.717 0 24.458zm-20.727-19.869c-4.392 4.214-4.396 11.069 0 15.284 4.396 4.214 11.545 4.214 15.944 0 4.392-4.215 4.392-11.07-.003-15.284-4.395-4.215-11.545-4.215-15.941 0zm-46.227 84.065c-7.034 6.744-18.477 6.744-25.508 0-7.034-6.741-7.034-17.713 0-24.454 7.031-6.744 18.474-6.744 25.505 0 7.034 6.741 7.034 17.712.003 24.454zm-20.726-19.869c-4.396 4.215-4.396 11.069 0 15.284 4.392 4.215 11.545 4.215 15.944 0 4.392-4.215 4.392-11.069-.003-15.284s-11.546-4.215-15.941 0zm15.944 194.116c-7.034 6.745-18.478 6.745-25.512 0-7.031-6.741-7.031-17.713.003-24.457 7.031-6.741 18.474-6.741 25.505 0 7.035 6.744 7.035 17.716.004 24.457zm-20.726-19.869c-4.396 4.215-4.398 11.07 0 15.284 4.393 4.215 11.545 4.215 15.944 0 4.393-4.214 4.393-11.072-.003-15.284-4.396-4.214-11.546-4.214-15.941 0zm-146.662-149.793c-7.034 6.744-18.474 6.744-25.508 0-7.031-6.741-7.031-17.71 0-24.454 7.034-6.741 18.474-6.741 25.508 0 7.034 6.744 7.034 17.712 0 24.454zm-20.726-19.869c-4.392 4.215-4.396 11.069 0 15.284s11.549 4.215 15.944 0 4.392-11.069 0-15.284c-4.399-4.215-11.545-4.215-15.944 0zm-58.183 127.627c-7.034 6.745-18.477 6.745-25.508 0-7.034-6.741-7.034-17.713 0-24.457 7.031-6.741 18.474-6.741 25.505 0 7.034 6.745 7.034 17.716.003 24.457zm-20.726-19.869c-4.396 4.215-4.399 11.07 0 15.284 4.392 4.215 11.545 4.215 15.944 0 4.392-4.214 4.392-11.069-.003-15.284-4.395-4.214-11.545-4.214-15.941 0zm205.647-270.544c-5.723 5.49-5.723 14.389-.003 19.872 5.723 5.488 15.003 5.488 20.726 0 5.723-5.483 5.723-14.382 0-19.872-5.723-5.484-15.003-5.484-20.723 0zm-23.913 137.565c-5.723 5.487-5.723 14.385 0 19.873 5.72 5.487 15 5.487 20.726 0 5.72-5.488 5.72-14.386-.003-19.873-5.723-5.485-15.003-5.485-20.723 0zm222.383-75.661c-5.723 5.49-5.723 14.389-.003 19.872 5.727 5.487 15.007 5.487 20.729 0 5.72-5.483 5.72-14.382-.003-19.872-5.719-5.485-15-5.485-20.723 0zm-248.687 18.342c-5.723 5.487-5.723 14.386-.003 19.873 5.727 5.487 15.006 5.487 20.729 0 5.72-5.487 5.72-14.386-.003-19.873-5.72-5.484-15-5.484-20.723 0z"/><path fill="#73CAD8" d="M715.849 2436.227c-5.723 5.487-5.723 14.385 0 19.869 5.72 5.487 15 5.487 20.726 0 5.72-5.484 5.72-14.382-.003-19.869s-15.003-5.487-20.723 0zm-236.733-153.615c-5.723 5.487-5.723 14.389 0 19.872 5.723 5.488 15.003 5.488 20.726 0 5.72-5.483 5.72-14.385-.003-19.872-5.72-5.484-15-5.484-20.723 0zm184.125-6.877c-5.723 5.487-5.723 14.385 0 19.872s15.003 5.487 20.726 0c5.72-5.487 5.72-14.385-.003-19.872-5.72-5.484-15-5.484-20.723 0zm-2.391 61.903c-5.723 5.487-5.723 14.385 0 19.872 5.72 5.487 15 5.487 20.726 0 5.72-5.487 5.72-14.385-.003-19.872-5.724-5.484-15.003-5.484-20.723 0zm224.778-203.287l-4.782 4.585-82.68-79.267-80.092 1.475-21.353 20.474-4.785-4.585 23.282-22.319 85.699-1.58zm-196.04-14.293h128.505v6.484H689.588zm-55.039 53.272l-64.563 61.903-4.785-4.588 64.563-61.903zm149.096 5.915l-74.946.937-40.676 39-4.782-4.585 42.621-40.865 77.693-.972zm436.871-620.122h-151.569l-97.238-93.738 51.614-49.741-.789-268.746L91.042 253.715l4.782-4.62 933.467 894.998.805 273.982-48.823 47.313 90.474 87.25h148.769zm-307.735 191.393L669.37 1983.967l-101.59 1.145-553.487 530.703-4.772-4.585 555.452-532.571 101.56-1.146 239.484-229.681v-133.588h6.764z"/><path fill="#73CAD8" d="M1215.007 1577.599l-155.03-.58-114.569-109.851 52.106-49.96.133-262.201L59.956 255.944l4.782-4.588 939.672 900.966-.132 267.574-49.306 47.272 107.815 103.377 152.244.566z"/><path fill="#73CAD8" d="M1216.021 1595.366l-169.987.386-129.324-123.996 55.475-53.19 2.345-249.041L36.043 269.702l4.782-4.588 940.491 901.748-2.391 254.412-52.647 50.482 122.553 117.504 167.174-.379z"/><path fill="#73CAD8" d="M1244.062 1615.618l-206.403-.383-152.031-145.772 56.881-54.541-.462-239.855L12.13 283.457l5.37-4.585 932.479 893.503v1.343l-.119 243.889-54.378 51.856 145.133 139.291 203.533.38z"/><path fill="#73CAD8" d="M1254.042 1633.005l-220.957.769-147.167-141.383-44.154 42.611v201.759l-205.715 196.964-91.898.848L4.819 2451.619 0 2447.034l541.196-518.92 92.032-.849 201.773-193.192v-201.757l50.917-49.098 150.103 144.062 218.064-.76z"/><path fill="#73CAD8" d="M1268.243 1653.542l-243.536-.288-139.902-133.35-26.132 24.268v201.759l-212.413 204.45-95.369.126-534.395 512.575-4.676-4.585 536.621-514.472 94.988-.127 208.48-200.651v-201.761l32.896-30.755 142.3 136.044 240.94.285z"/><path fill="#73CAD8" d="M1165.398 1861.518l-45.432 43.561-4.782-4.585 40.65-38.976-18.15-17.402-106.009-.764-81.484-78.128 4.781-4.585 79.523 76.247 106.012.767zm-109.846-87.124l-4.706 4.585-53.523-51.387v-64.196l-32.638-31.151 4.858-4.585 34.544 33.048v64.195zm109.846-82.539l-39.227 37.614-57.968.786-.092-6.485 55.217-.744 37.288-35.755zm-724.541 566.303l-4.782 4.585-54.999-52.731 4.786-4.585zm15.941-125.336c5.727 5.487 5.727 14.385.003 19.873-5.723 5.487-15.003 5.487-20.726 0-5.723-5.488-5.723-14.386.003-19.87 5.721-5.487 15-5.487 20.72-.003zm65.977 83.128c-6.493 6.222-17.054 6.222-23.547 0-6.489-6.226-6.489-16.352 0-22.573 6.493-6.226 17.054-6.226 23.547 0 6.489 6.221 6.489 16.347 0 22.573zm-19.132-18.343c-4.059 3.892-4.059 10.221 0 14.109 4.059 3.892 10.657 3.892 14.716 0 4.059-3.889 4.059-10.218 0-14.109s-10.657-3.891-14.716 0zm50.214-11.463c-6.489 6.223-17.051 6.223-23.54 0-6.493-6.225-6.493-16.352 0-22.573 6.489-6.225 17.051-6.225 23.54 0 6.493 6.222 6.493 16.349 0 22.573zm-19.128-18.342c-4.059 3.892-4.059 10.221 0 14.109 4.056 3.892 10.66 3.892 14.716 0 4.055-3.889 4.055-10.218 0-14.109-4.056-3.892-10.66-3.892-14.716 0z"/><path fill="#73CAD8" d="M505.42 2196.255l-4.782 4.585-54.996-52.731 4.783-4.588zm15.941-125.336c5.727 5.487 5.727 14.385.003 19.873-5.723 5.487-15.003 5.487-20.727 0-5.723-5.488-5.723-14.386.003-19.87 5.721-5.488 15.001-5.488 20.721-.003zm65.976 83.128c-6.493 6.222-17.054 6.222-23.546 0-6.489-6.226-6.489-16.352 0-22.576 6.493-6.223 17.054-6.223 23.546 0 6.489 6.224 6.489 16.35 0 22.576zm-19.131-18.343c-4.059 3.892-4.059 10.218 0 14.109s10.657 3.892 14.716 0c4.059-3.892 4.059-10.218 0-14.109-4.059-3.892-10.657-3.892-14.716 0zm50.214-11.463c-6.489 6.223-17.051 6.223-23.54 0-6.493-6.225-6.493-16.351 0-22.573 6.489-6.225 17.051-6.225 23.54 0 6.492 6.222 6.492 16.348 0 22.573zm-19.128-18.343c-4.056 3.892-4.059 10.222 0 14.109 4.055 3.892 10.66 3.892 14.716 0 4.055-3.888 4.055-10.221 0-14.109-4.056-3.891-10.661-3.891-14.716 0z"/><path fill="#73CAD8" d="M569.986 2134.351l-4.785 4.585-54.996-52.729 4.782-4.589zm15.941-125.336c5.723 5.487 5.723 14.386 0 19.873s-15.003 5.487-20.726 0c-5.72-5.487-5.72-14.386.003-19.873 5.72-5.484 15-5.484 20.723 0zm65.973 83.128c-6.493 6.222-17.054 6.222-23.546 0-6.489-6.226-6.489-16.352 0-22.576 6.493-6.223 17.054-6.223 23.546 0 6.489 6.225 6.489 16.351 0 22.576zm-19.131-18.342c-4.059 3.892-4.059 10.218 0 14.109 4.059 3.892 10.657 3.892 14.715 0 4.059-3.892 4.059-10.221 0-14.109-4.058-3.892-10.656-3.892-14.715 0z"/><path fill="#73CAD8" d="M634.549 2072.448l-4.785 4.585-54.996-52.733 4.782-4.585zM469.552 2226.06l-4.782 4.585-76.517-73.366 4.781-4.584zm64.563-61.903l-4.782 4.585-76.518-73.365 4.782-4.585zm64.563-61.903l-4.782 4.585-76.518-73.366 4.782-4.585zm2231.372 818.845l-4.782 4.585-870.743-834.877-143.535-.418-260.599-249.504 4.775-4.59 258.532 247.527 143.637.51zm-1044.892-832.185l-11.033.49-176.384-1.358-44.001-42.189-278.747-.535L279.298 3000l-4.782-4.585 997.683-956.584 284.347.544 44.019 42.209 168.745 1.304-272.69-261.46 4.783-4.584z"/><path fill="#73CAD8" d="M2794.182 2923.391l-4.782 4.585-846.758-811.876-347.077-2.628-41.538-39.827-263.73-1.725-965.564 925.787-4.785-4.584 967.568-927.707 269.334 1.763 41.539 39.831 347.08 2.627z"/><path fill="#73CAD8" d="M2755.923 2923.391l-4.782 4.585-822.894-788.995-335.532-.728-39.217-37.602-247.551-2.47-938.173 899.526-4.785-4.584 940.187-901.454 1.42.015 251.732 2.511 39.194 37.579 335.532.725z"/><path fill="#73CAD8" d="M2808.531 2863.781l-4.782 4.585-839.885-805.287-145.024-.288-2.939.573-232.036-222.481 4.781-4.585 229.47 220.017.394-.009 148.157.291zm-1084.987-802.086H1599.2l-46.629-44.593-294.909-1.076-935.32 896.818-4.785-4.569 937.314-898.692 300.51 1.041 46.623 44.587h105.213l-223.784-214.449 4.783-4.645zM668.023 2338.404l-4.782 4.585-46.03-44.137-112.976.381-.02-6.485 115.787-.386zm45.237 79.955h-87.287l-66.954-64.848H496.83v-6.485h64.993l66.954 64.849h84.483zm9.762 36.287l-44.032 41.531H571.228v-6.485h104.958l42.054-39.973zm1926.275 215.947l-76.099-72.553v-109.171l-66.93-64.437 4.795-4.578 68.899 66.336v109.153l74.104 70.652zm-146.124-153.749l-67.634-64.848 4.783-4.585 67.633 64.849zm81.864-147.121c-10.257 0-18.603-7.998-18.603-17.83 0-9.835 8.346-17.837 18.603-17.837 10.255 0 18.597 8.002 18.597 17.837 0 9.832-8.342 17.83-18.597 17.83zm0-29.181c-6.528 0-11.839 5.092-11.839 11.352 0 6.257 5.311 11.345 11.839 11.345 6.526 0 11.833-5.088 11.833-11.345 0-6.26-5.306-11.352-11.833-11.352z"/><path fill="#73CAD8" d="M2500.495 2428.087c-10.258 0-18.603-7.999-18.603-17.83 0-9.835 8.345-17.837 18.603-17.837 10.254 0 18.596 8.002 18.596 17.837 0 9.831-8.342 17.83-18.596 17.83zm0-29.182c-6.529 0-11.84 5.092-11.84 11.352 0 6.257 5.311 11.345 11.84 11.345 6.525 0 11.832-5.088 11.832-11.345 0-6.26-5.306-11.352-11.832-11.352zm-71.016 58.363c-10.257 0-18.603-7.999-18.603-17.83 0-9.835 8.346-17.837 18.603-17.837 10.255 0 18.597 8.002 18.597 17.837-.001 9.831-8.342 17.83-18.597 17.83zm0-29.181c-6.528 0-11.839 5.092-11.839 11.352 0 6.257 5.311 11.345 11.839 11.345 6.526 0 11.833-5.088 11.833-11.345 0-6.261-5.307-11.352-11.833-11.352zm179.23 74.575c-10.257 0-18.603-7.998-18.603-17.83 0-9.835 8.346-17.837 18.603-17.837 10.255 0 18.597 8.002 18.597 17.837 0 9.832-8.342 17.83-18.597 17.83zm0-29.182c-6.528 0-11.839 5.092-11.839 11.352 0 6.257 5.311 11.345 11.839 11.345 6.526 0 11.833-5.088 11.833-11.345 0-6.26-5.306-11.352-11.833-11.352zm-94.687 68.09c-10.257 0-18.603-7.998-18.603-17.83 0-9.834 8.346-17.836 18.603-17.836 10.254 0 18.597 8.002 18.597 17.836-.001 9.832-8.343 17.83-18.597 17.83zm0-29.182c-6.529 0-11.839 5.092-11.839 11.352 0 6.257 5.31 11.346 11.839 11.346 6.525 0 11.833-5.089 11.833-11.346 0-6.26-5.308-11.352-11.833-11.352zm284.063 42.152c-10.257 0-18.603-7.998-18.603-17.83 0-9.835 8.346-17.836 18.603-17.836 10.254 0 18.597 8.001 18.597 17.836 0 9.832-8.343 17.83-18.597 17.83zm0-29.182c-6.528 0-11.839 5.092-11.839 11.352 0 6.257 5.311 11.346 11.839 11.346 6.525 0 11.833-5.089 11.833-11.346 0-6.26-5.307-11.352-11.833-11.352zm-229.956-97.271c-10.258 0-18.603-7.999-18.603-17.83 0-9.835 8.345-17.837 18.603-17.837 10.254 0 18.596 8.002 18.596 17.837 0 9.831-8.342 17.83-18.596 17.83zm0-29.182c-6.529 0-11.839 5.092-11.839 11.352 0 6.257 5.31 11.345 11.839 11.345 6.525 0 11.833-5.088 11.833-11.345 0-6.26-5.307-11.352-11.833-11.352zm118.36 311.271c-10.257 0-18.603-7.998-18.603-17.83 0-9.835 8.346-17.837 18.603-17.837 10.255 0 18.597 8.002 18.597 17.837-.001 9.831-8.343 17.83-18.597 17.83zm0-29.182c-6.528 0-11.839 5.092-11.839 11.352 0 6.257 5.311 11.345 11.839 11.345 6.526 0 11.833-5.088 11.833-11.345 0-6.26-5.307-11.352-11.833-11.352zM559.395 2450.783c-10.257 0-18.603-7.998-18.603-17.83 0-9.834 8.345-17.836 18.603-17.836 10.254 0 18.596 8.002 18.596 17.836 0 9.832-8.341 17.83-18.596 17.83zm0-29.182c-6.529 0-11.839 5.092-11.839 11.352 0 6.257 5.311 11.346 11.839 11.346 6.522 0 11.833-5.089 11.833-11.346 0-6.26-5.31-11.352-11.833-11.352zm-40.58 9.728c-10.257 0-18.603-7.998-18.603-17.83 0-9.835 8.345-17.836 18.603-17.836 10.254 0 18.596 8.001 18.596 17.836 0 9.832-8.342 17.83-18.596 17.83zm0-29.182c-6.529 0-11.839 5.092-11.839 11.352 0 6.257 5.311 11.346 11.839 11.346 6.522 0 11.833-5.089 11.833-11.346 0-6.26-5.311-11.352-11.833-11.352zm-196.139-77.817c-10.258 0-18.603-7.998-18.603-17.83 0-9.835 8.345-17.837 18.603-17.837 10.254 0 18.596 8.002 18.596 17.837 0 9.832-8.342 17.83-18.596 17.83zm0-29.182c-6.529 0-11.839 5.092-11.839 11.352 0 6.257 5.31 11.345 11.839 11.345 6.522 0 11.833-5.088 11.833-11.345 0-6.26-5.311-11.352-11.833-11.352zm-40.581 168.605c-10.257 0-18.603-7.998-18.603-17.83 0-9.835 8.346-17.836 18.603-17.836 10.254 0 18.596 8.001 18.596 17.836.001 9.832-8.342 17.83-18.596 17.83zm0-29.182c-6.529 0-11.839 5.092-11.839 11.352 0 6.257 5.311 11.346 11.839 11.346 6.522 0 11.833-5.089 11.833-11.346 0-6.26-5.311-11.352-11.833-11.352zm-20.29 136.181c-10.257 0-18.603-7.998-18.603-17.83 0-9.834 8.345-17.836 18.603-17.836 10.254 0 18.596 8.002 18.596 17.836 0 9.832-8.342 17.83-18.596 17.83zm0-29.182c-6.529 0-11.839 5.092-11.839 11.352 0 6.257 5.31 11.346 11.839 11.346 6.522 0 11.833-5.089 11.833-11.346 0-6.26-5.311-11.352-11.833-11.352zm50.726 123.212c-10.257 0-18.603-7.999-18.603-17.83 0-9.835 8.345-17.837 18.603-17.837 10.254 0 18.596 8.002 18.596 17.837 0 9.831-8.342 17.83-18.596 17.83zm0-29.182c-6.529 0-11.839 5.092-11.839 11.352 0 6.257 5.31 11.345 11.839 11.345 6.522 0 11.833-5.088 11.833-11.345 0-6.26-5.311-11.352-11.833-11.352zm-121.742 22.697c-10.257 0-18.603-7.998-18.603-17.83 0-9.835 8.345-17.836 18.603-17.836 10.254 0 18.596 8.001 18.596 17.836 0 9.832-8.342 17.83-18.596 17.83zm0-29.182c-6.529 0-11.839 5.092-11.839 11.352 0 6.257 5.311 11.346 11.839 11.346 6.522 0 11.833-5.089 11.833-11.346 0-6.26-5.31-11.352-11.833-11.352zm280.682 58.363c-10.257 0-18.603-7.998-18.603-17.83 0-9.835 8.345-17.836 18.603-17.836 10.254 0 18.596 8.001 18.596 17.836 0 9.832-8.342 17.83-18.596 17.83zm0-29.181c-6.529 0-11.839 5.092-11.839 11.352 0 6.257 5.311 11.346 11.839 11.346 6.522 0 11.833-5.089 11.833-11.346-.001-6.261-5.311-11.352-11.833-11.352zm20.29-84.302c-10.257 0-18.603-7.999-18.603-17.83 0-9.835 8.345-17.837 18.603-17.837 10.254 0 18.596 8.002 18.596 17.837 0 9.831-8.342 17.83-18.596 17.83zm0-29.182c-6.529 0-11.839 5.091-11.839 11.352 0 6.257 5.31 11.345 11.839 11.345 6.522 0 11.833-5.088 11.833-11.345 0-6.261-5.311-11.352-11.833-11.352zm-233.337 165.363c-10.258 0-18.603-7.998-18.603-17.83 0-9.835 8.345-17.837 18.603-17.837 10.254 0 18.596 8.002 18.596 17.837-.001 9.831-8.343 17.83-18.596 17.83zm0-29.182c-6.529 0-11.839 5.092-11.839 11.352 0 6.257 5.31 11.345 11.839 11.345 6.522 0 11.833-5.088 11.833-11.345-.001-6.26-5.311-11.352-11.833-11.352zm108.214 45.393c-10.257 0-18.603-7.998-18.603-17.83 0-9.835 8.345-17.837 18.603-17.837 10.254 0 18.596 8.002 18.596 17.837 0 9.832-8.342 17.83-18.596 17.83zm0-29.181c-6.529 0-11.839 5.092-11.839 11.352 0 6.257 5.311 11.345 11.839 11.345 6.522 0 11.833-5.088 11.833-11.345-.001-6.26-5.311-11.352-11.833-11.352zm20.29 97.271c-10.257 0-18.603-7.998-18.603-17.829 0-9.835 8.345-17.837 18.603-17.837 10.254 0 18.596 8.002 18.596 17.837 0 9.831-8.342 17.829-18.596 17.829zm0-29.18c-6.529 0-11.839 5.091-11.839 11.352 0 6.256 5.31 11.345 11.839 11.345 6.522 0 11.833-5.089 11.833-11.345 0-6.262-5.311-11.352-11.833-11.352zm2433.135-150.769c0-8.059 6.816-14.595 15.222-14.595 8.404 0 15.214 6.536 15.214 14.595 0 8.058-6.81 14.587-15.214 14.587-8.406 0-15.222-6.529-15.222-14.587zm-169.085-38.909c0-8.059 6.816-14.594 15.221-14.594 8.405 0 15.215 6.535 15.215 14.594s-6.81 14.588-15.215 14.588c-8.405 0-15.221-6.53-15.221-14.588zm-71.016-191.302c0-8.059 6.816-14.594 15.221-14.594 8.405 0 15.214 6.535 15.214 14.594s-6.809 14.588-15.214 14.588c-8.404 0-15.221-6.529-15.221-14.588zm60.87 285.331c0-8.059 6.816-14.594 15.222-14.594 8.404 0 15.214 6.535 15.214 14.594s-6.81 14.588-15.214 14.588c-8.405 0-15.222-6.529-15.222-14.588zM588.136 2562.649c0-8.059 6.816-14.594 15.221-14.594 8.404 0 15.214 6.535 15.214 14.594s-6.81 14.588-15.214 14.588-15.221-6.529-15.221-14.588zm-37.198-68.091c0-8.058 6.816-14.594 15.221-14.594 8.405 0 15.215 6.536 15.215 14.594 0 8.059-6.81 14.588-15.215 14.588-8.405 0-15.221-6.529-15.221-14.588zm-179.231-3.242c0-8.059 6.816-14.594 15.221-14.594 8.405 0 15.215 6.535 15.215 14.594s-6.81 14.588-15.215 14.588c-8.404 0-15.221-6.529-15.221-14.588zm33.817 152.394c0-8.059 6.816-14.595 15.221-14.595s15.214 6.536 15.214 14.595c0 8.058-6.81 14.587-15.214 14.587s-15.221-6.53-15.221-14.587zm-57.489 103.757c0-8.059 6.816-14.595 15.221-14.595 8.405 0 15.214 6.536 15.214 14.595 0 8.058-6.81 14.587-15.214 14.587-8.404-.001-15.221-6.53-15.221-14.587zm-50.725-191.302c0-8.059 6.816-14.595 15.221-14.595 8.405 0 15.214 6.536 15.214 14.595s-6.81 14.587-15.214 14.587c-8.405 0-15.221-6.529-15.221-14.587zm84.542-3.243c0-8.058 6.816-14.594 15.221-14.594s15.214 6.536 15.214 14.594c0 8.059-6.81 14.588-15.214 14.588s-15.221-6.53-15.221-14.588zM317.6 2254.621c0-8.059 6.816-14.594 15.221-14.594s15.214 6.535 15.214 14.594-6.81 14.588-15.214 14.588-15.221-6.53-15.221-14.588zm-10.145 97.272c0-8.059 6.816-14.594 15.221-14.594 8.404 0 15.214 6.535 15.214 14.594s-6.81 14.588-15.214 14.588c-8.405 0-15.221-6.529-15.221-14.588zm-33.817 175.09c0-8.059 6.816-14.595 15.221-14.595s15.214 6.536 15.214 14.595-6.81 14.587-15.214 14.587-15.221-6.528-15.221-14.587zm-77.779-68.091c0-8.059 6.816-14.594 15.221-14.594s15.214 6.535 15.214 14.594-6.81 14.588-15.214 14.588-15.221-6.529-15.221-14.588zm10.145 243.18c0-8.058 6.816-14.594 15.221-14.594 8.404 0 15.214 6.536 15.214 14.594 0 8.059-6.81 14.588-15.214 14.588-8.405 0-15.221-6.529-15.221-14.588zM2813.3 2582.103c0-8.059 6.815-14.594 15.221-14.594 8.404 0 15.214 6.535 15.214 14.594s-6.81 14.588-15.214 14.588c-8.406 0-15.221-6.529-15.221-14.588zm6.763 123.212c0-8.059 6.816-14.595 15.222-14.595 8.404 0 15.214 6.536 15.214 14.595s-6.81 14.587-15.214 14.587c-8.406 0-15.222-6.528-15.222-14.587z"/><path fill="#73CAD8" d="M2787.798 2528.189l-30.006-28.769h-46.766l-41.145-38.91h-60.894l-37.06-35.815 4.802-4.565 35.078 33.896h60.848l41.145 38.908h46.793l31.987 30.67zm39.028 62.018h-54.932l-44.524-42.152h-62.006l-51.149-48.769 4.769-4.598 49.167 46.882h61.993l44.523 42.151h52.159zm-59.47 94.029h-48.995l-57.238-53.759v-43.512h6.763v40.789l53.235 49.998h43.435l57.627-55.254 4.782 4.585zm60.871 68.091h-89.609l-46.643-45.274 4.807-4.559 44.664 43.348h83.98l55.938-53.633 4.781 4.585z"/><path fill="#73CAD8" d="M2836.972 2703.69h-6.764v-43.493l60.171-57.692 4.781 4.585-58.188 55.792zM506.975 2418.359h-87.382l-44.504-44.083v-73.457l-44.943-42.959 4.775-4.591 46.931 44.859v73.527l40.607 40.22h84.516zm-6.479 77.818h-111.88v-6.485h109.057l49.17-47.674 4.808 4.56z"/><path fill="#73CAD8" d="M425.815 2638.843h-6.764v-73.214l78.209-74.987 4.782 4.585-76.227 73.087zm85.107 18.095l-24.237-23.238v-62.948h6.763v60.263l17.474 16.753 84.404-80.926 4.782 4.585zm-298.019-195.215l-4.783-4.585 55.372-53.091v-48.104l45.532-43.104 4.752 4.617-43.52 41.197v48.079zm73.271 72.412l-4.782-4.584 49.735-47.686v-39.467l-13.527-12.969v-75.918h6.764v73.233l13.526 12.97v44.836zm-122.871 75.659l-4.782-4.585 57.628-55.254v-48.094l51.152-49.045 4.781 4.585-49.17 47.145v48.094zm62.991 84.17h-6.763v-42.386l40.58-39.992v-44.076h6.763v46.71l-40.58 39.993zm88.175 0h-44.213v-6.486h41.452l49.854-46.758v-52.901l31.945-31.746 4.867 4.502-30.049 29.859v53.016z"/><path fill="#73CAD8" d="M361.562 2642.085h6.763v51.879h-6.763zm-50.725-74.575h6.763v68.091h-6.763zm89.75 200.62l-4.782-4.585 33.392-32.015v-23.235l33.116-31.753 4.782 4.585-31.135 29.852v23.236zm-209.104 51.337l-4.782-4.584 75.392-72.284h99.469v6.485h-96.669zm-46.215-52.958l-4.781-4.585 45.226-43.364v-66.748h6.764v69.433zM2264.473 925.905l-4.782-4.585 49.034-47.015 4.782 4.585zm225.583-310.32h-52.126V609.1h49.326l41.981-40.252v-35.666l37.343-35.806 4.783 4.585L2536 535.867v35.666z"/><path fill="#73CAD8" d="M2485.274 612.342h6.764v38.909h-6.764zm89.325 22.697h-45.362v-6.485h42.561l41.981-40.252v-48.635l41.571-39.859 4.782 4.585-39.59 37.959v48.636zm125.123-188.059h-96.088v-6.485h93.287l54.108-51.879h60.871l61.57-59.034 4.782 4.585-63.553 60.934h-60.87zm179.666-133.078l-42.416-40.669v-56.464h6.763v53.779l40.435 38.769zm-164.303 47.015l-4.782-4.585 50.871-48.776h58.889v6.485h-56.088zm31.571 143.476l-32.971-31.613 4.782-4.585 32.971 31.613zm-428.773 380.311c-10.258 0-18.603-7.999-18.603-17.83 0-9.835 8.345-17.836 18.603-17.836 10.254 0 18.596 8.001 18.596 17.836 0 9.831-8.342 17.83-18.596 17.83zm0-29.182c-6.529 0-11.84 5.092-11.84 11.352 0 6.257 5.311 11.345 11.84 11.345 6.525 0 11.832-5.088 11.832-11.345 0-6.26-5.307-11.352-11.832-11.352zM576.304 553.979c-10.257 0-18.603-7.998-18.603-17.83 0-9.834 8.346-17.836 18.603-17.836 10.254 0 18.596 8.002 18.596 17.836 0 9.832-8.342 17.83-18.596 17.83zm0-29.182c-6.529 0-11.839 5.092-11.839 11.352 0 6.257 5.31 11.345 11.839 11.345 6.522 0 11.833-5.088 11.833-11.345-.001-6.26-5.311-11.352-11.833-11.352zm-23.672 61.606c-10.258 0-18.603-7.999-18.603-17.83 0-9.835 8.345-17.836 18.603-17.836 10.254 0 18.596 8.001 18.596 17.836 0 9.832-8.342 17.83-18.596 17.83zm0-29.182c-6.529 0-11.839 5.091-11.839 11.352 0 6.257 5.31 11.345 11.839 11.345 6.522 0 11.833-5.088 11.833-11.345 0-6.26-5.311-11.352-11.833-11.352zm-16.909-16.211c-10.257 0-18.603-7.999-18.603-17.83 0-9.835 8.345-17.836 18.603-17.836 10.254 0 18.596 8.001 18.596 17.836.001 9.831-8.342 17.83-18.596 17.83zm0-29.182c-6.529 0-11.839 5.091-11.839 11.352 0 6.257 5.311 11.345 11.839 11.345 6.522 0 11.833-5.088 11.833-11.345 0-6.261-5.31-11.352-11.833-11.352zm-54.107-94.03c-10.257 0-18.603-7.999-18.603-17.83 0-9.835 8.345-17.836 18.603-17.836 10.254 0 18.596 8.001 18.596 17.836 0 9.832-8.342 17.83-18.596 17.83zm0-29.182c-6.529 0-11.839 5.091-11.839 11.352 0 6.257 5.311 11.345 11.839 11.345 6.522 0 11.833-5.088 11.833-11.345-.001-6.26-5.311-11.352-11.833-11.352zm189.375 142.666c-10.257 0-18.603-7.998-18.603-17.83 0-9.835 8.345-17.836 18.603-17.836 10.254 0 18.596 8.001 18.596 17.836.001 9.832-8.341 17.83-18.596 17.83zm0-29.182c-6.529 0-11.839 5.092-11.839 11.352 0 6.257 5.31 11.345 11.839 11.345 6.522 0 11.833-5.088 11.833-11.345 0-6.26-5.31-11.352-11.833-11.352zM403.837 291.344c-10.257 0-18.603-7.999-18.603-17.83 0-9.835 8.345-17.836 18.603-17.836 10.254 0 18.596 8.001 18.596 17.836 0 9.832-8.342 17.83-18.596 17.83zm0-29.181c-6.529 0-11.839 5.092-11.839 11.352 0 6.257 5.311 11.345 11.839 11.345 6.522 0 11.833-5.088 11.833-11.345-.001-6.26-5.311-11.352-11.833-11.352z"/><path fill="#73CAD8" d="M386.928 323.768c-10.257 0-18.603-7.998-18.603-17.83 0-9.835 8.345-17.836 18.603-17.836 10.254 0 18.596 8.001 18.596 17.836 0 9.832-8.342 17.83-18.596 17.83zm0-29.181c-6.529 0-11.839 5.092-11.839 11.352 0 6.257 5.31 11.346 11.839 11.346 6.522 0 11.833-5.089 11.833-11.346 0-6.261-5.311-11.352-11.833-11.352zm-10.145 113.484c-10.257 0-18.603-7.999-18.603-17.83 0-9.835 8.345-17.836 18.603-17.836 10.254 0 18.596 8.001 18.596 17.836 0 9.832-8.342 17.83-18.596 17.83zm0-29.182c-6.529 0-11.839 5.091-11.839 11.352 0 6.257 5.311 11.345 11.839 11.345 6.522 0 11.833-5.088 11.833-11.345 0-6.26-5.311-11.352-11.833-11.352zm2045.933 249.665c-10.258 0-18.603-7.998-18.603-17.83 0-9.835 8.345-17.837 18.603-17.837 10.254 0 18.596 8.002 18.596 17.837 0 9.832-8.342 17.83-18.596 17.83zm0-29.181c-6.529 0-11.84 5.091-11.84 11.352 0 6.257 5.311 11.345 11.84 11.345 6.525 0 11.832-5.088 11.832-11.345 0-6.261-5.307-11.352-11.832-11.352zm67.634 81.059c-10.258 0-18.603-7.998-18.603-17.83 0-9.835 8.345-17.836 18.603-17.836 10.254 0 18.596 8.001 18.596 17.836 0 9.832-8.342 17.83-18.596 17.83zm0-29.181c-6.529 0-11.839 5.092-11.839 11.352 0 6.257 5.31 11.346 11.839 11.346 6.525 0 11.833-5.089 11.833-11.346 0-6.26-5.308-11.352-11.833-11.352zm175.848-142.666c-10.257 0-18.603-7.999-18.603-17.83 0-9.834 8.346-17.836 18.603-17.836 10.255 0 18.597 8.002 18.597 17.836 0 9.832-8.342 17.83-18.597 17.83zm0-29.181c-6.528 0-11.839 5.092-11.839 11.352 0 6.257 5.311 11.345 11.839 11.345 6.526 0 11.833-5.088 11.833-11.345 0-6.261-5.306-11.352-11.833-11.352zm-77.779-19.455c-10.257 0-18.603-7.999-18.603-17.83 0-9.835 8.346-17.836 18.603-17.836 10.255 0 18.597 8.001 18.597 17.836 0 9.832-8.342 17.83-18.597 17.83zm0-29.181c-6.528 0-11.839 5.091-11.839 11.352 0 6.257 5.311 11.345 11.839 11.345 6.526 0 11.833-5.088 11.833-11.345 0-6.261-5.306-11.352-11.833-11.352zm111.597-42.152c-10.258 0-18.603-7.999-18.603-17.83 0-9.835 8.345-17.836 18.603-17.836 10.254 0 18.596 8.001 18.596 17.836 0 9.832-8.342 17.83-18.596 17.83zm0-29.181c-6.529 0-11.84 5.092-11.84 11.352 0 6.257 5.311 11.345 11.84 11.345 6.525 0 11.833-5.088 11.833-11.345 0-6.26-5.308-11.352-11.833-11.352zm138.65-139.424c-10.258 0-18.604-7.998-18.604-17.83 0-9.835 8.346-17.836 18.604-17.836 10.254 0 18.596 8.001 18.596 17.836 0 9.832-8.342 17.83-18.596 17.83zm0-29.181c-6.529 0-11.84 5.092-11.84 11.352 0 6.257 5.311 11.346 11.84 11.346 6.525 0 11.832-5.089 11.832-11.346 0-6.26-5.306-11.352-11.832-11.352zm-588.418 758.722c-10.257 0-18.603-7.998-18.603-17.83 0-9.835 8.346-17.836 18.603-17.836 10.255 0 18.597 8.001 18.597 17.836 0 9.831-8.342 17.83-18.597 17.83zm0-29.182c-6.528 0-11.839 5.091-11.839 11.352 0 6.257 5.311 11.345 11.839 11.345 6.526 0 11.833-5.088 11.833-11.345 0-6.26-5.306-11.352-11.833-11.352zm302.66-419.888c0-8.058 6.816-14.594 15.221-14.594s15.215 6.536 15.215 14.594c0 8.059-6.811 14.588-15.215 14.588s-15.221-6.529-15.221-14.588zm250.247-191.301c0-8.059 6.816-14.594 15.221-14.594 8.405 0 15.215 6.536 15.215 14.594s-6.81 14.587-15.215 14.587c-8.405 0-15.221-6.528-15.221-14.587zm-101.452 162.12c0-8.059 6.816-14.594 15.221-14.594 8.405 0 15.215 6.536 15.215 14.594s-6.81 14.587-15.215 14.587c-8.404 0-15.221-6.529-15.221-14.587zM358.18 257.302c0-8.059 6.816-14.594 15.221-14.594 8.404 0 15.214 6.535 15.214 14.594s-6.81 14.587-15.214 14.587c-8.404.001-15.221-6.528-15.221-14.587zM317.6 361.059c0-8.059 6.816-14.594 15.221-14.594s15.214 6.536 15.214 14.594-6.81 14.587-15.214 14.587-15.221-6.528-15.221-14.587zm179.23 9.727c0-8.059 6.816-14.594 15.221-14.594s15.214 6.535 15.214 14.594-6.81 14.587-15.214 14.587-15.221-6.528-15.221-14.587zm2018.879 259.392c0-8.059 6.816-14.594 15.221-14.594 8.405 0 15.215 6.535 15.215 14.594s-6.81 14.588-15.215 14.588c-8.404 0-15.221-6.529-15.221-14.588zm219.812 2021.308l-33.478-32.098 33.478-32.099 33.477 32.099-33.477 32.098zm-14.35-32.098l14.35 13.758 14.349-13.758-14.349-13.759-14.35 13.759zM236.439 329.927l-33.48-32.098 33.48-32.098 33.48 32.098-33.48 32.098zm-14.346-32.098l14.346 13.758 14.346-13.758-14.346-13.758-14.346 13.758zm58.308 74.249l-33.48-32.098 33.48-32.098 33.48 32.098-33.48 32.098zm-14.346-32.098l14.346 13.758 14.346-13.758-14.346-13.758-14.346 13.758z"/><path fill="#73CAD8" d="M659.153 515.07h-62.271l-52.708-50.536v-61.606l-31.98-30.663 4.781-4.585 33.963 32.563v61.606l48.744 46.736h59.471zm-118.36 55.121H481.93l-45.092-42.151H378.47v-6.485h61.123l45.084 42.151h56.116z"/><path fill="#73CAD8" d="M545.165 465.484l-56.925-54.579 4.783-4.585 56.924 54.579zm-21.129 50.267l-44.946-42.832h-85.104l-62.859-59.712v-53.772h6.763v51.068l58.883 55.931h85.111l46.921 44.713zm-73.149-123.892h-58.89v-6.485h56.089l35.508-34.045-70.315-67.419 4.781-4.585 75.098 72.004zm-65.653-129.696h-69.021l-42.575-40.255v-37.563h6.763v34.85l38.586 36.483h66.247zm-10.145 48.636h-72.4l-65.378-61.606h-85.415v-6.484h88.182l65.379 61.605h69.632zm-142.032 71.333h-6.763v-32.168l-71.161-68.768 4.801-4.566 73.123 70.662z"/></svg>