<svg xmlns="http://www.w3.org/2000/svg" id="图层_3" viewBox="0 0 3000 3000"><path fill="#D34A44" d="M2086.526 1506.159H870.459l-52.365-124.481H2138.9l-52.374 124.481z"/><path fill="#E56E6E" d="M949.899 1174.239h157.973v1456.087H949.899V1174.239zm-163.645 786.518h79v728.053h-79v-728.053z"/><path fill="#D34A44" d="M881.744 1132.391h294.281v83.674H881.744v-83.674z"/><path fill="#626668" d="M932.721 2338.657h192.329v350.151H932.721v-350.151z"/><path fill="#E56E6E" d="M1849.1 1174.239h157.986v1456.087H1849.1V1174.239z"/><path fill="#D34A44" d="M1780.951 1132.391h294.295v83.674h-294.295v-83.674zm357.949 0H818.094l-107.436-124.517h1535.655L2138.9 1132.391z"/><path fill="#626668" d="M1478.506 922.984c-543.517 0-998.521-85.874-998.521-85.874l107.435 170.763h1782.151L2477 837.111s-455.019 85.873-998.494 85.873m-370.635 485.584H949.899c-11.781 0-21.334-12.041-21.334-26.925 0-14.868 9.555-26.888 21.334-26.888h157.973c11.795 0 21.334 12.021 21.334 26.888-.001 14.884-9.54 26.925-21.335 26.925m899.215 0H1849.1c-11.773 0-21.32-12.041-21.32-26.925 0-14.868 9.547-26.888 21.32-26.888h157.986c11.787 0 21.334 12.021 21.334 26.888 0 14.884-9.547 26.925-21.334 26.925"/><path fill="#D34A44" d="M1147.5 1904.5H712.51l31.428 56H1147.5v-56z"/><path fill="#E56E6E" d="M2088.907 1960.757h78.986v728.053h-78.986v-728.053z"/><path fill="#1E252B" d="M1829.113 2338.657h192.315v350.151h-192.315v-350.151z"/><path fill="#D34A44" d="M1815.5 1904.5h426.133l-31.422 56H1815.5v-56z"/><path fill="#D0F7F6" d="M2513.041 2655.532c1.25-66.964-45.746-135.537-123.149-138.11-26.327-140.424-149.387-247.341-297.442-247.341-121.584 0-226.168 71.559-274.325 174.947-43.474-72.43-122.525-121.215-213.114-121.215-96.862 0-180.542 55.429-221.616 136.237-44.961-95.014-141.434-160.952-253.55-160.952-130.014 0-239.064 88.548-270.972 208.543-33.107-19.765-71.708-30.179-113.069-30.179-103.674 0-164.489 97.604-163.164 176.567 1.122 66.866 90.623 158.052 157.491 158.993 106.496 1.499 161.992-91.495 161.992-91.495s59.997 164.989 205.75 173.989c160.841 9.933 227.729-101.994 227.729-101.994s91.496 103.494 204.978 104.994c215.031 2.844 282.5-124.493 282.5-124.493s104.57 143.55 265.831 143.993c239.644.657 299.639-145.492 299.639-145.492s123.631-70.948 124.491-116.992z"/></svg>