<svg xmlns="http://www.w3.org/2000/svg" id="tatoo_x5F_f" viewBox="0 0 3000 3000"><path id="cl2" fill="#FFF" d="M1309.1 944.8c-.4.2-.9.3-1.3.5l-9.3 3.4v.8c0 6.2 4.4 9.8 13.1 11 4.7-.3 9.5-1.8 14.4-4.4 33-6.2 69-11.2 108.1-14.8 7.7.7 13 .1 15.9-2 2.6-3.4 4.8-6.6 6.3-9.5.1-.1.1-.2.2-.3-61.9-2.4-109.4 2.2-142.5 13.6-1.7.5-3.3 1.1-4.9 1.7m150.4-71.3v-.2c-64.9-3.9-126.7-4.2-185.4-1 7.5 17.4 22.9 25.4 46.4 24 51.4-6.5 94.6-8.3 129.5-5.5 5.8-5.1 8.9-10.9 9.5-17.3m398.5 65.2c-7.2-4.1-16.7-8-28.6-11.7-2.7 7.8-.4 13.8 6.8 18 2.7 1.1 5.8 1.8 9.3 2h1c.1 0 .2 0 .3.1 5.9.3 9.8 1.2 11.8 2.6-.4-3.8-.6-7.5-.6-11m-32.8-60.9c0 .7.1 1.5.2 2.2 1.1 8 3.6 13.7 7.3 16.9h35.9l8.6-22.6c-20.8 0-38.1 1.2-52 3.5z"/><path id="cl1" fill="#F26D6D" d="M1459.5 873.3c.6-8.3-3.1-17.8-11.1-28.5-52.7-22.1-105.9-29.1-159.6-20.8-16.1 12.5-21.3 27.9-15.6 46 .3.8.6 1.5.9 2.2 58.7-3.2 120.5-2.8 185.4 1.1m-151.7 72c.5-.2.9-.3 1.3-.5 1.6-.6 3.2-1.2 4.9-1.8 33.2-11.4 80.7-16 142.5-13.6 6.9-12.6 3.6-19.3-10.1-20-41.2-4.9-80.3-1.1-117.3 11.4-14.5 2.1-24 8.9-28.8 20.2-1.2 2.9-1.8 5.4-2 7.7l9.5-3.4m521.8-18.9c-.1.2-.1.4-.2.6 11.9 3.7 21.4 7.6 28.6 11.7-.1-9.7.9-17.8 3.2-24.3-19.2 1.1-29.7 5.1-31.6 12m3.1-29.5c.3.2.6.5.9.7l33.4 3.5 1.6-4.2h-35.9m44.5-22.6l11-29.1c-10.2-1.4-28.6 3.7-55.2 15.2-5.3 5.4-7.9 11.2-7.8 17.4 13.9-2.3 31.2-3.5 52-3.5z"/></svg>