<svg xmlns="http://www.w3.org/2000/svg" id="tatoo_x5F_f" viewBox="0 0 3000 3000"><path id="cl1" fill="#534444" d="M1447.9 1069c.1-.1.1-.2.2-.3.1-.1.2-.2.2-.3 10.4-15.9 21.9-32.2 34.3-49.1 3.7-8.1 2.7-11.3-3-9.6-15.6 12.6-30.4 22.2-44.4 29-31.7 16.8-62.8 32.1-93.2 45.8-4.3 3.7-4.4 10.4-.3 20.2l10.8 21.2c1.1 1.6 2.2 2.6 3.4 3.2.5.2.9.3 1.4.1 4-1.4 7.4-3.6 10.2-6.7 7.5-2.6 15.7-2.5 24.4.4 15.9 4.8 28.4 12.4 37.7 22.6 9.3 10.3 13.8 18.9 13.6 25.8-.2 7.9-7.4 11.2-21.6 10-12.7-1.7-23-7.6-30.8-17.6-3.6-6.1-1.3-10 7-11.6 4.5-2.1 10.9-1 19.3 3.2-1-1.9-3-4.1-5.8-6.5-12.7-7.4-23-8.7-30.8-3.9-6.2 6.1-6.2 13.8 0 23.2 9.5 11.4 27.5 21.3 53.9 29.8 17.6 1.9 30.7.9 39.1-3.2 7-3.9 8.7-12 5-24.4-4.5-12.4-13.6-25.8-27.3-40.5-11.3-10.7-17.6-19-18.9-24.9-1.4-11.7 3.9-23.6 15.6-35.9m-97.1-83.8c-8.1-12.9-9.2-27.6-3.2-44 5.9-15.6 13.9-22.5 24-20.6 9 1.6 12.3 10.8 9.8 27.8-3.1 11.9-8.7 15.6-16.8 11.1-3.5-4.9-4.4-10.5-2.5-17 1.3-3.9 2.1-6.4 2.1-7.5-2.5-.9-5.1 3-7.7 11.5-5.6 18.5-1.7 29.9 11.6 34.2 12 1.9 21.7-5 29-20.6 6.5-29.9 4.7-49.7-5.4-59.6-12.4-11.8-25.7-11.8-40 0-18.8 22.4-26.8 44.5-24 66.3 2.8 21.8 8.8 41.6 18 59.4 1.2 2.9.7 9.1-1.6 18.9-3.6 13.8-9.5 26.6-17.9 38.3 23.7-22.1 54.8-41 93.2-56.7-13.3-.1-23.8-2.2-31.6-6.2-11.6-5.5-24-17.2-37-35.3z"/></svg>