<svg xmlns="http://www.w3.org/2000/svg" id="tatoo_x5F_f" viewBox="0 0 3000 3000"><path id="cl3" fill="#353C53" d="M1384 1047.8c18.3 1.5 28 8.5 29 20.8-.9 10.6-4.5 17.5-10.8 20.6-13.2 3.7-22.5 2.1-27.7-4.9-.6-1.5-1-2.8-1.1-4-5.4-.7-9.2 1.8-11.4 7.5 2.6 7.4 8.1 12.1 16.6 14 13.4 2.8 24.6 1.8 33.4-2.9 12.7-9.4 17.3-22.6 13.8-39.7-2.5-8.3-10.3-15.2-23.3-20.7-24.8-6.1-46.8-3-65.8 9.3-8.8 8.7-13.5 17.3-14 26l-44.3 18.6-4.6 4.4c-2.3 8.1 2.1 23.4 13.1 46l7.3 9.9c1.8.9 3.5.9 5 0 13.8-5.1 28.2-12.4 43.3-21.8 5.3 4.7 11.6 7.8 18.9 9.5-2.1 18.7-4.7 34.6-7.7 47.9.4 1.5 1 2.8 1.9 4 10.3 4 29 6.3 56.3 7.1 2.9-.5 4.6-2.6 5.3-6.4v-1.8c1.1-16 1.4-31.2.9-45.8 9.4-3.3 17.7-8.1 24.7-14.6 9.2 16.7 17.9 31.6 26.2 44.8 2.1 1.5 4.4 2.1 7.1 1.9 16.1-12.5 30.4-23.1 43-31.9v-6.5c-9.6-10.1-21.9-27-37-50.7 10.4-14 15.8-26.3 16.2-37.1 1.1-.1 2.1-1.5 3.2-4.5 5.8-23.9 6.8-39.2 3.1-45.8-4.9-5.5-10.8-5.7-17.7-.7-7.7 15.3-12.9 28.1-15.6 38.4-.3 10.4 5.2 16 16.4 16.6-1.2 10.2-13.9 27.1-38 50.7s-50 30.7-77.5 21.5c-25-7.5-35.3-26.1-30.8-55.6 6.4-17.8 20.6-25.9 42.6-24.1m41.8-81.6c2-4.8 1.1-9.1-2.6-13-7.2-3.7-14.1-2.8-20.6 2.8l-30.2 23.8c-5.1 6.6-4.5 12.8 1.8 18.8 5.5 5.2 11.4 6.6 17.6 4 9.7-2.6 21-14.8 34-36.4m28 14c-4.6-.1-8.1.9-10.6 2.8-12.5 11.8-23.5 24.9-33 39.2-2.2 9.4 3.3 16 16.6 19.8 4.6.9 10-.3 16-3.5 3.9-4.2 7.5-10 11-17.5 3.6-7.8 6.9-17.4 10-28.7 1.2-6.8-2-10.8-9.6-12-.1-.1-.3-.1-.4-.1m-108.7-36.7c-.1.5-.1.9-.1 1.4-.4 5.2 1.1 9.1 4.5 11.8 2.3 1.8 5.8 2.9 10.5 3.5 11.7-1.3 25.5-9.7 41.2-25 3.6-4.3 3.6-8.1 0-11.4-2.9-2.5-6.6-3.6-11.2-3.2-14.9 2.3-27.9 7.3-39.1 15.1-3.3 2.7-5.3 5.4-5.8 7.8z"/><path id="cl2" fill="#FFF" d="M1504.4 1140.5c-12.7-14.8-22.3-29.5-28.6-44-4.3 6.8-12.9 16.4-25.8 28.8l24 37.4c11.7-5.9 21.9-13.3 30.4-22.2m-204.4 2.2c12.7-6.1 24.4-12.4 35-18.9-9.3-9.4-13.8-23.5-13.4-42.3l-41.6 16.9c5.7 21.3 12.4 36.1 20 44.3z"/><path id="cl1" fill="red" d="M1369.2 1143.4l-5.4 43.5 40.8 2.9 5.4-43.8c-15.6 2.1-29.2 1.2-40.8-2.6z"/></svg>