<svg xmlns="http://www.w3.org/2000/svg" id="mouth" viewBox="0 0 3000 3000"><path fill="#721D1D" d="M1759.58 1154.393l1.959 8.423-5.039 5.934s-20.201 18.652-32.2 32.45-36.449 55.901-44.5 72.601c-8.05 16.7-19.899 24.526-33.591 24.153-9.553-.26-32.938.346-45.573-22.053-12.636-22.399-33.386-69.217-37.136-72.65-3.75-3.433-11.101-25.647-19.869-31.457-8.77-5.808-8.232-13.794-8.232-13.794l6.216-6.039-1.362 9.79s18.229 11.401 42.25 20.25c25.767 9.492 82.852 11.75 110.5 7.75s48.578-12.315 56.086-18.211c15.367-12.064 7.166-17.89 7.166-17.89s-2.595-4.363 3.325.743z"/><path id="sd1" fill="#FD5D78" d="M1596.198 1247.7c-2.698-2.897-5.5-5.7-8.101-8.6-1.301-1.4-2.801-3-1.699-5.2.899-1.7 2.801-1.4 4.399-1.6 16.101-1.801 30.8 2.3 44.101 11.397 5.399 3.7 10.5 8 15.699 12-5.5 3.7-11.399.4-17.199.802-5.398.301-10.398.898-14.101 5.398-11.897 2.103-16.897-7.095-23.099-14.197zm81.902 5.9c-8.6-4.3-17.1-8.601-26.399-11.2-2.301-.6-4.801-1-8.601 1.3 3.4 2.803 6.101 4.803 8.5 7.103 1.4 1.397 2.199 3.3.301 5.198 2.699 2.602 5.399 5.302 9.199 1.802 5.801-5.302 11.5-3.4 17.199.3 1.899-1.603 2.301-3.301-.199-4.503z"/><path id="cl1" fill="#FE9BAB" d="M1618 1262.4c2.5-8.4 2.5-8.4 10.3-8.5 7.5-.1 14.899-.2 22.2 1.9.5-.2.898-.103 1.3.199 4.101 1.5 7.601-.399 11.2-2 6.198-2.699 11.398-1.899 15.198 4.101-2.5 9.399-9.399 13-18.198 14.1-11.4 1.103-22.802 2.4-33.7-2.5-3.5-1.5-7.8-2.3-8.3-7.3z"/><path fill="#FAFAFA" d="M1642 1275.9c8.398 3.1 16.898.7 26.3.3-3.699 6.303-8.5 10.7-14.8 11.5-14.2 2-27.9.5-38.9-10.197-5.399-5.303-10.899-10.603-15-17.103-.6-1.897.5-2.8 2.101-3.3 13.299 6.6 26.299 13.8 40.299 18.8zm79.9-84.098c-46.601 9.697-93.101 7.8-139.7.1-2.1-.8-2.5.2-2.1 2.102 30.199 14.301 61.699 22 95.398 20.698 19.602-.8 36.199-7.5 50.301-20.698.399-3.904-1.899-2.904-3.899-2.202z"/><path fill="#191213" d="M1642 1275.9c-8.802-.2-16.802-3.4-24.2-7.8-5.399-3.2-10.699-6.7-16-10-2-1.101-4.101-1.7-6.399-2.101-5.699-3.302-1.301-5.699.699-8.302 8 3.802 13 12.103 21.801 14.7 12.801 8.5 27.199 10.2 42 9.8-2.601 2.802-5.898 1.5-9 1.802-3.001.401-6.301-.999-8.901 1.901z"/><path fill="none" stroke="#000" stroke-linecap="round" stroke-linejoin="round" stroke-miterlimit="10" stroke-width="6" d="M1504.5 1159.5s29.5.5 46.5-10.75m-16.449 6.996s32.805 36.504 118.377 34.254 91.756-13.051 107.164-26.774m-5.487-13.038l14.151 18.572"/><path fill="none" stroke="#000" stroke-linecap="round" stroke-linejoin="round" stroke-miterlimit="10" stroke-width="6" d="M1535.398 1156.613s34.603 63.637 47.853 89.387 21.959 50.404 55.354 52.327 40.321-20.563 49.587-42.585c9.267-22.021 47.293-71.8 70.427-89.146M1614.75 1310.75s14 9.781 35.5 3.267"/></svg>