<svg xmlns="http://www.w3.org/2000/svg" id="mouth" viewBox="0 0 3000 3000"><path fill="#D25C5C" d="M1566.2 1229.8c-3.3-1.4-6.6-2.7-9.9-4.1-.7-.3-1-.6-.9-1 .1-.5.3-.7.5-.7 16 1.3 32 1.8 48-.3 9.3-2.4 12-2.1 18-2.9 1-.4 1.8-.5 2.9-.5 2.4.4 4.6-.4 6.9-1.1 1.4-.9 2-1.5 3.3-.6l1.1-.2c.9 1.4.7 4.8 1.4 6.3-.2.5-.1.9.2 1.3 1.3 8.9 6.1 15.8 11.8 22.3-5.6 1.5-11.1-.2-16.4-1.1-21.9-3.8-43.7-7.9-64.3-16.7-.6-.4-1.6-.5-2.6-.7z"/><path fill="none" stroke="#000" stroke-linecap="round" stroke-miterlimit="10" stroke-width="6" d="M1648.4 1173.9s19.5 31.9 17.6 34-30 8.3-52.9 11.8c-104.8 17.1-122.1-42.2-122.1-42.2m148.2 38.6s-2.3 15.4 14.5 35.2m38.7 52.7s5.6-44.1-8.3-50.1c-37.9-1.6-68.6-6-77.2-9.9-14.7-1.6-63.4-20.1-72.6-27.8m-25.2-43.3c-22.8-.9-30.7 13.4-30.7 13.4"/></svg>