<svg xmlns="http://www.w3.org/2000/svg" id="mouth" viewBox="0 0 3000 3000"><path id="cl1" fill="#772A2A" d="M1737.3 1184.2c-1.1.3-8.399 6.9-11.3 9.8-2.9 2.9-68.9 23.4-77.5 21.9s-101-71.6-148.8-74.4c0 0 48.7 61.684 54 78.301 5.886 18.453 50.1 93.8 54.6 109.8s31.8 13.3 31.8 13.3 16 3.301 53.5-41.8c4-10.5-.3-38.3-.3-38.3s-4.9-32.9 12.8-47c17.7-14.101 17.101-18.7 23.9-17.7 7-4.201 14.4-16.101 7.3-13.901z"/><path fill="#FDFDFD" d="M1679.7 1307.5c-2.801 2.601-5.601 5.2-8.4 7.9-1.4 1.4-2.8 2.7-5 2-11.2-25.6-26.7-48.4-48.2-69.1 8.601.6 15.2 3 21.9 1.699 3.3.9 6.8 1 9.8 0 6-2.199 8.5 1.101 10.4 5.601 2.5 5.8 5.3 11.5 7 17.5 3.5 11.701 8.1 23 12.5 34.4zm-35.7-61.4c10.9-1.101 17.9-8 24.1-16.101.301-3.199-2.199-3.8-4.399-4.3-10.801-2.1-22-2.3-32.2-7.3-2.5-1.2-5.1 0-7.4 1.5-3.6 5.5-7 11-10.699 16.3-1.301 1.8-1.801 3.4-.601 5.3 10.299 2.001 20.599 4.601 31.199 4.601zm-82.2-22.1c12.601 24.5 25.7 48.7 37 73.9 4.7 10.6 9.301 21.3 16.4 30.7 5.7 7.399 12.7 9.899 21.8 8.899 10.3-1.1 17.601-7.199 25-13.399 2.3-1.9 1.7-3.7.5-6-12.7-24.3-27-47.4-47.1-66.4-4.9-4.6-10-8.399-16.5-10.7-12.2-4.3-23.9-10-34.7-17.3-.9-.7-1.7-.6-2.4.3zm23.2-28.1c-2-1.3-4.3-1.7-6.7-.8-5.5 6.2-8.8 13.8-13.3 20.7-.3 1.5-.1 2.899 1.1 4 4.601 2.6 8.9 5.6 13.7 7.699 9.3 3.9 17.8 9.7 28.3 10.5 3.101-7.899 9.5-13.899 12.301-21.899-10.601-8.7-23.901-12.799-35.401-20.2zm-19.6 15c3.699-6.6 9.199-12.5 7.6-20.9-13-12.3-28.5-15.5-43.3-24.8-1.4-.899-3.2-.3-4.5 1 .399.601.8 1.3 1.199 1.9.301.8.801 1.399 1.5 2 8.601 13.3 17.301 26.5 25.7 39.899 1.7 2.601 3.8 4.5 6.3 6.2 4.201 2.401 3.401-3.599 5.501-5.299z"/><path fill="#B8C2E0" d="M1668.1 1230c-2.5-3.1-6.1-1.699-9.3-2.199-7.8-1.301-15.7-2.601-23.1-5.601-3.7-1.5-7.5-2.699-11.601-2.199 1-2.601 2-5.2 4.4-7.2 2.5 1.2 4.9 2.4 7.4 3.5 4.5 4.5 9.699 5.3 16 4.4 8.1-1.2 15.899-3.5 23.899-4.9 2.101-.5 3 .4 2.5 2.5-3.498 3.799-5.798 8.699-10.198 11.699zm-91-51.6c-2.6-1.3-5.3-2.6-7.899-4-17.2-9.3-34.601-18-53.101-24.4-2.199-.6-2.8.4-2.399 2.4 3.899 4.5 6.899 9.8 11.6 13.7 1.6.399 3.4.399 4.7 1.2 13.899 9.5 29.7 15.699 43.899 24.699 5-3.599 8.1-7.599 3.2-13.599zm43.6 28.401c-13-8-24.9-17.7-38.7-24.5-3.6 4-6 8.3-3.6 13.8 4.699.9 8.399 3.6 12.5 5.9 9.5 5.3 18.899 10.899 29.399 14.1 3.301-3.001 5.801-6.001.401-9.3z"/><path fill="none" stroke="#000" stroke-miterlimit="10" stroke-width="6" d="M1738.364 1183.947c-1.1.3-6.114 8.387-11.198 11.303-3.558 2.041-70.066 22.15-78.666 20.65s-101-71.6-148.8-74.4c0 0 43.1 58.709 54 78.301 9.417 16.925 50.1 93.8 54.6 109.8s31.8 13.3 31.8 13.3 16 3.301 53.5-41.8c4-10.5-.3-38.3-.3-38.3s-2.987-30.787 12.8-47c15.193-15.604 14.601-19.801 21.4-18.801 7-4.2 14.75-17.584 10.864-13.053z"/></svg>