<svg xmlns="http://www.w3.org/2000/svg" id="mouth" viewBox="0 0 3000 3000"><path id="cl1" fill="#7A3434" d="M1687.5 1215l12.625 2.875s-4.825.726 9.175-2.175c14-2.899 30.6-11.699 30.6-11.699s3.9 1.5-3.899 7.1-16.9 17-16.9 17-6.2 14.9 1.9 23.1c8.1 8.2 7.1 9.7 7.1 9.7s-9.1 12.6-16.8 18.3c-5.121 2.737-9.263 1.434-12.3.9-8.009-1.407-35.343-.828-45.101 1.3-7.604 1.658-47.899 10.9-64.5 19.4-16.6 8.5-67.6 1.2-69.3-7.1-1.7-8.301 16.9-31.5 33.601-41 16.699-9.5 43.699-22.9 72.6-28.4 29-5.5 26.485-5.246 26.485-5.246s21.219-3.239 34.714-4.055c.1-.2 0 0 0 0"/><path fill="#FEFEFE" d="M1584.563 1301.312c-19.8.301-35.862-5.812-52.763-12.312 3.6-6.7 7.1-13.4 10.6-20.101 5.934-8.442 11.7-8.1 13.9-8.3 6.301 1.4 12.801.2 19.101 1.5 6 1.8 12 1.8 18 .3 3.399-.899 7-.899 10.3-2 1.5-.399 2.9-.6 4.4-.8 6-.3 11.699-2 17.5-3.2 1.5-.399 3-.699 4.5-.899 4.6-.4 9-2.2 13.6-2.101 6.5-1.1 13.1-1.699 19.6-3 2-.6 4-.899 6.101-1.3 3.6-.9 7.199-2.1 10.399 1.1 11.9 4.9 20.9 13.301 28 23.9-.199 1.5-.799 7.154-2.299 6.754-17.636-2.746-32.634-2.921-49.334-1.021-16.801 2-34.467 7.267-50.267 13.467-1.301.901-16.138 5.213-21.338 8.013zm91.037-73.511c-13.8 1.5-27.399 4.899-41.199 6.5-21.601 2.5-42 9.1-61.9 17.399-3.8 1.601-8.6 2.4-8.9 8 3.5 3.5 8.2 2.801 12.5 3.4 3.101 1.1 6.4.8 9.601.8 4.8.7 9-2.699 13.899-2 1.601-.1 3-.5 4.5-1.1 6-.8 11.801-2 17.801-2.9 1.5-.1 3-.5 4.399-1.1 3.9-1.3 8.101-.5 12-2.1 6.7-.301 13.2-2.301 20-2.7 2.2 0 4.2-.3 6.2-1.2 5-1.8 10.6-.4 15.4-3.3 4.399-5 8.8-9.9 12.399-15.5-4.1-7.699-11.1-4.8-16.7-4.199z"/><path fill="#B8C6E2" d="M1691.198 1233.656c-4.801-3.6-8.998-2.157-13.799-1.256-25.6 4.7-51.8 6.5-76.899 13.8-10.8 3.101-17.75 6.925-28.25 10.925-1.899.699-5.248 2.396-6.048 4.396-1.1 1.5-4.323 2.471-6.103 2.18-2.969-.486-10.725-2.201-5.2-6.7 22.801-9.8 47.601-18.4 72-23.8 23.601-5.301 42.5-9 66.7-9.9.5 0 5 .6 6.2 1.2-4.132 3.249-5.715 5.499-8.601 9.155z"/><path fill="none" stroke="#000" stroke-miterlimit="10" stroke-width="6" d="M1709.3 1215.7c14-2.899 29.45-9.825 29.45-9.825s2.175-1.225-5.625 4.375-14.025 17.85-14.025 17.85-6.2 14.9 1.9 23.1c8.1 8.2 7.1 9.7 7.1 9.7s-8.64 13.278-16.8 18.3c-6.175 3.8-14.041 1.336-19.303 1.245-10.185-.176-21.834-1.715-38.098.955-7.68 1.261-45.732 10.1-64.5 18.4-17.056 7.543-67.6 2.2-69.3-6.1-1.7-8.301 16.9-31.5 33.601-41 16.699-9.5 43.699-22.9 72.6-28.4 29-5.5 43.923-9.72 58.7-8.5 6.055.501 10.3 2.8 24.3-.1z"/></svg>