<svg xmlns="http://www.w3.org/2000/svg" id="mmouth" viewBox="0 0 3000 3000"><path fill="#BBCBE2" d="M1585.464 1221.752c23.3 3.899 51.562 8.402 75.161 7.502 9.301-.301 17.541-1.003 26.541-3.503 8.139-.751 9.434 1.949 6.534 10.749-1.4 3.2-2.505 3.595-5.95 5.125-4.986 2.215-18.076 3.367-23.375 3.5-25.605.641-40.543 1.337-67.868-2.213-3.075-.399-10.606-3.787-12.007-6.287-1.5-2.1-4.35-9.032-4.05-11.932.3-1 4.214-2.241 5.014-2.941z"/><path id="cl1" fill="#CB5959" d="M1726.2 1224.2c-19.95 29.344-42.929 50.999-74.129 69.199-11.2 6.5-28.614 12.479-41.214 10.879-12.601-1.601-30.282-7.528-40.982-15.528-29.8-22.1-52.75-46.092-77.451-73.792-3.1-3.5-8.261-6.896-8.299-11.458-.008-1 8.567-6.155 9.067-6.355 4.699-2.399 6.246-4.664 10.945-4.664 4.7 0 7.211 3.489 12.011 5.688 17.899 8.2 33.728 14.392 52.827 19.292 4.4 1.1 8.453 1.572 11.453 5.872 1.25 5.35 3.672 9.692 6.071 13.292 4 6.875 26.034 9.071 38.667 10.68 17.035 2.169 26.5 2.206 46.167.029 10.833.5 19.333-3.833 21.366-10.133 1.899-4 .401-10.649 4.602-13.45 8.699-1.5 25.772-8.275 34.173-10.875 2.201-.401-4.137 9.652-5.274 11.324z"/><path fill="none" stroke="#000" stroke-linecap="round" stroke-linejoin="round" stroke-miterlimit="10" stroke-width="6" d="M1467.25 1205s25.75-3.449 41.75-18.1m-6.231 4.877S1574.5 1229.75 1647 1229.25s109.5-30.25 109.5-30.25l-23-17"/><path fill="none" stroke="#000" stroke-linecap="round" stroke-linejoin="round" stroke-miterlimit="10" stroke-width="6" d="M1482.25 1202.752s78.25 98.748 128 101.498 106.018-60.783 126.009-93.517"/><path fill="none" stroke="#000" stroke-linecap="round" stroke-linejoin="round" stroke-miterlimit="10" stroke-width="4" d="M1579.548 1220.31s2.973 13.101 9.214 18.884c5.905 5.472 28.038 8.152 54.738 8.139s46.334-.823 49.627-12.098c2.256-7.725 3.425-11.322 3.425-11.322"/></svg>