<svg xmlns="http://www.w3.org/2000/svg" viewBox="0 0 3000 3000"><g id="mouth"><path d="M1709.214 1191.52s13.775-9.631 18.813-5.295 3.902 12.627-.354 13.798c-4.25 1.167-1.898-10.284-8.775-9.118-6.87 1.165-11.993 2.334-9.684.615zm-150.264.356s-14.174-5.057-21-3.194c-6.111 1.659-9.265 12.175-5.348 13.955 3.917 1.772 5.956-7.62 12.596-9.351 7.124-1.857 15.74.607 13.752-1.41z"/><path id="sd1" fill="#772A2A" d="M1542.975 1193.981s85.744 56.176 177.063 1.108c0 0-13.665 22.66-25.036 45.358-10.203 20.338-29.853 41.29-62.396 40.249-65.53-2.065-89.631-86.715-89.631-86.715z"/><path id="cl1" fill="#FFF7EA" d="M1712.358 1201.423s-29.219 32.38-49.109 36.961c-29.506 6.775-46.324 5.143-72-5.625-20.019-8.402-38.397-28.683-38.397-28.683 91.329 43.116 159.506-2.653 159.506-2.653zm-78.634 67.866c37.832.421 48.85-25.956 44.059-31.611-4.773-5.659-10.334 6.276-37.599 5.924-27.245-.345-41.605-6.089-54.28-11.483-10.564-4.49-9.418 6.205-7.491 11.442-.001-.001 15.889 25.289 55.311 25.728z"/><path fill="none" stroke="#000" stroke-linecap="round" stroke-linejoin="round" stroke-miterlimit="10" stroke-width="6" d="M1724.321 1189.411c-10.666 12.803-16.924 29.868-26.133 45.619-15.502 26.479-28.506 48.403-70.342 45.432-65.479-4.645-88.212-88.269-88.212-88.269 80.775 44.134 156.849 20.746 184.687-2.782z"/></g></svg>