<svg xmlns="http://www.w3.org/2000/svg" id="mouth" viewBox="0 0 3000 3000"><path id="sd1" fill="#4E0C0D" d="M1561.89 1236.572s130.171 23.311 132.303 2.768c-.001 0-55.786-39.855-132.303-2.768z"/><path id="cl3" fill="#FFF" d="M1669.576 1220.781c1.88.143 3.357 1.674 3.326 3.499-.069 3.86-.142 7.718-.214 11.575-.034 1.879-1.742 3.367-3.821 3.296a388.946 388.946 0 0 1-11.632-.583l-.046-.005c-2.053-.155-3.593-1.792-3.447-3.657.289-3.847.582-7.692.873-11.541.146-1.876 1.846-3.271 3.802-3.144 3.665.239 7.33.426 11 .551l.159.009m13.112 3.908a2.282 2.282 0 0 0-.204-.011 353.212 353.212 0 0 1-7.346-.149c-1.306-.039-2.398.925-2.438 2.167-.083 2.547-.166 5.096-.245 7.646-.04 1.195.948 2.208 2.233 2.323.051.008.101.009.157.01 2.541.077 5.081.13 7.622.156 1.36.015 2.455-.99 2.444-2.233-.011-2.552-.026-5.098-.041-7.65-.003-1.179-.966-2.148-2.182-2.259m6.975.014a2.494 2.494 0 0 0-.212.021c-1.846.284-3.692.554-5.543.809-.983.136-1.678.999-1.55 1.933.276 1.918.55 3.835.822 5.753.124.876.951 1.501 1.896 1.458.062-.003.124-.01.188-.019 1.899-.261 3.801-.538 5.698-.83 1.016-.154 1.706-1.041 1.547-1.97-.327-1.91-.657-3.82-.984-5.729-.145-.864-.958-1.467-1.862-1.426m1.526-5.197a1.263 1.263 0 0 0-.198.022c-1.477.262-2.955.516-4.433.758-.793.127-1.329.833-1.2 1.583.26 1.53.532 3.062.789 4.591.123.689.777 1.167 1.511 1.134.063-.003.129-.011.188-.022 1.517-.246 3.029-.505 4.542-.772.808-.144 1.342-.864 1.196-1.608-.296-1.525-.601-3.05-.896-4.575-.136-.679-.785-1.144-1.499-1.111m-51.2-1.013c-1.883-.164-3.588 1.102-3.854 2.913l-1.664 11.455c-.279 1.862 1.173 3.607 3.239 3.874 3.848.494 7.707.935 11.568 1.311.014.001.032.002.046.005 2.051.177 3.837-1.188 3.998-3.051.331-3.844.668-7.685 1.008-11.529.16-1.875-1.294-3.53-3.241-3.719-3.652-.358-7.305-.77-10.942-1.242-.053-.004-.105-.013-.158-.017m-14.581 3.848c-1.219-.072-2.314.748-2.493 1.912a4074.32 4074.32 0 0 0-1.165 7.562c-.195 1.23.744 2.383 2.089 2.572 2.517.346 5.043.667 7.564.963.054.008.104.012.16.015 1.285.074 2.407-.784 2.543-1.97.293-2.536.59-5.067.887-7.601.143-1.232-.798-2.351-2.096-2.5a348.932 348.932 0 0 1-7.29-.934 2.73 2.73 0 0 0-.199-.019m-10.368 1.188c-.904-.003-1.692.632-1.801 1.501-.255 1.923-.5 3.844-.754 5.764-.124.936.604 1.792 1.627 1.908 1.909.215 3.817.414 5.729.597.061.007.125.007.187.009.947.004 1.747-.653 1.837-1.536.196-1.927.391-3.853.582-5.781.096-.938-.635-1.771-1.629-1.867a363.033 363.033 0 0 1-5.564-.583 1.96 1.96 0 0 0-.214-.012m-7.851.186c-.715-.002-1.343.488-1.446 1.17-.238 1.538-.479 3.071-.715 4.61-.112.748.449 1.447 1.264 1.556 1.518.206 3.043.402 4.564.586.07.009.129.014.195.013.732.005 1.369-.5 1.459-1.191l.603-4.621c.099-.751-.465-1.438-1.262-1.533a369.664 369.664 0 0 1-4.46-.576 2.311 2.311 0 0 0-.202-.014"/><path id="cl2" fill="#FF5E79" d="M1561.89 1236.572s21.073-9.954 40.8-20.843c16.648-9.189 31.579-20.042 39.777-16.051 14.408 7.016 14.771 4.586 22.778 1.182 6.376-2.706 8.926-2.785 14.192 1.231 6.557 5.005 19.663 12.959 22.239 40.568 0 0 .075-.511-8.069-5.505 0 0-10.604-14.896-41.102-11.653-30.497 3.242-26.13-8.126-90.615 11.071zm122.035 33.455c18.628-10.908 17.752-27.368 17.752-27.368-2.396 1.234-8.76 5.911-15.177 5.145-9.187-1.097-11.265-5.037-24.375-5.553-15.018-.591-38.287 7.559-52.75 5.553-24.293-3.368-47.485-11.232-47.485-11.232 50.546 48.51 98.758 47.084 122.035 33.455z"/><path id="cl1" fill="#FFC2CD" d="M1624.182 1208.42c8.155-3.812 15.243-5.447 19.623-3.011 14.008 7.788 14.498 5.384 22.679 2.422 6.516-2.357 9.07-2.294 14.105 2.002.415.356.866.728 1.334 1.117-4.585-2.948-7.714-2.734-14.331-.619-9.568 3.063-10.134 5.589-26.59-2.682-4.006-2.01-9.913-1.437-16.82.771zm-6.399 55.239c37.854 13.526 58.348 7.958 69.444-1.991-12.963 5.912-34.321 8.78-69.444 1.991z"/><path fill="none" stroke="#000" stroke-linecap="round" stroke-linejoin="round" stroke-miterlimit="10" stroke-width="6" d="M1561.89 1236.572s21.073-9.954 40.8-20.843c16.648-9.189 31.579-20.042 39.777-16.051 14.408 7.016 14.771 4.586 22.778 1.182 6.376-2.706 8.926-2.785 14.192 1.231 6.557 5.005 27.221 14.397 19.896 38.577 0 0 1.048-1.036-5.142-2.694 0 0-7.131-12.89-42.192-11.807-30.654.947-26.166-8.667-90.109 10.405zm122.035 33.455c24.909-12.026 14.262-27.407 14.262-27.407-2.864-1.135-6.758 5.737-13.175 4.971-9.187-1.097-10.234-2.741-23.345-3.257-15.018-.591-38.204 4.006-52.667 2-24.293-3.368-47.11-9.762-47.11-9.762 50.546 48.51 97.745 45.182 122.035 33.455z"/></svg>