<svg xmlns="http://www.w3.org/2000/svg" id="mouth" viewBox="0 0 3000 3000"><path fill="none" stroke="#000" stroke-linecap="round" stroke-linejoin="round" stroke-miterlimit="10" stroke-width="6" d="M1679.955 1185.005c-4.078-.869-7.834-.272-10.496.555-1.556.489-2.74 1.054-3.385 1.452-.265.166-.436.3-.505.387-.032-.129-.062-.262-.099-.389-.737-2.62-3.221-4.254-6.816-5.018-8.769-1.869-24.143 1.422-36.9 8.238-18.217 8.553-31.5 23.734-31.489 23.742 0 0 .028-.035.087-.103h0a57.587 57.587 0 0 1 3.342-2.007 68.392 68.392 0 0 1 6.532-3.203l.346-.146c3.319-1.403 6.784-2.585 10.321-3.586l.254-.071c4.948-1.383 10.027-2.401 15.044-3.132.095-.013.188-.027.28-.042 6.743-.969 13.371-1.435 19.409-1.572a193.944 193.944 0 0 1 5.075-.014c9.026.1 16.672.883 22.965 2.028.084.017.172.034.256.045.891.166 1.756.34 2.592.516 3.15.673 5.919 1.438 8.292 2.232a52.41 52.41 0 0 1 2.103.8c.068.022.142.055.207.08 3.342 1.36 5.907 2.828 7.886 4.248.087.063.175.122.258.187 2.175 1.601 3.606 3.132 4.56 4.381 1.346 1.77 1.73 2.977 1.904 3.011.022.005.044-.007.063-.052h0c-4.489-23.245-13.931-30.83-22.086-32.567m22.082 32.568h0c-6.943 17.929-18.896 43.006-31.353 59.793-3.767 5.069-7.576 9.393-11.312 12.521-8.06 7.604-15.773 9.888-22.813 8.389-7.256-1.545-13.793-7.113-19.246-15.007-2.6-3.628-4.966-7.774-7.111-12.15-6.842-13.967-11.43-30.315-14.367-39.894-3.896-13.89-4.943-16.125-5.485-17.354h0c2.283 21.908 4.628 59.982 13.479 83.698 5.509 15.938 13.729 25.901 24.449 28.187 5.907 1.256 12.571.188 19.959-3.506 21.184-13.675 34.396-45.873 42.419-67.45 8.03-22.803 10.875-34.98 11.381-37.227"/><path fill="#4E0C0D" d="M1600.571 1208.513c-.115.051-.229.098-.346.146a6.28 6.28 0 0 1-.068.24c-.262.809-.888 1.578-1.509 1.909l-.251.106-.186.059c-1.396.253-2.717.555-3.971.945a.733.733 0 0 1-.367.032.394.394 0 0 1-.182-.089 57.032 57.032 0 0 0-3.342 2.007c.542 1.229 1.589 3.465 5.486 17.354 2.938 9.578 7.524 25.927 14.367 39.894-.105-.309-.212-.612-.313-.919-.032-.175-3.879-17.36-3.701-17.838.124-.976-3.319-16.947-3.366-16.958l-.004.007c-.203-2.641-.41-5.209-.613-7.693a671.896 671.896 0 0 0-.662-6.737 512.142 512.142 0 0 0-.51-5.295c-.076-.848-.167-1.669-.25-2.481-.04-.336-.076-.676-.113-1.005-.66-.197-.916-1.009-.604-2.062.102-.327.204-.653.302-.983l-.021-.469c.068-.049.142-.097.211-.146.006-.006.009-.015.013-.024m96.075 4.43c-.637 1.975-1.276 4.004-1.927 6.063-.582 1.765-1.187 3.561-1.797 5.396-.393 1.158-.799 2.325-1.202 3.524-1.02 2.831-2.06 5.772-3.123 8.771a3114.955 3114.955 0 0 0-5.319 13.98 2129.881 2129.881 0 0 0-8.514 19.083c-1.331 2.466-2.69 5.006-4.079 7.604 12.455-16.787 24.407-41.865 31.353-59.793-.019.043-.039.057-.063.051-.174-.034-.561-1.241-1.904-3.01-.091.348-.247.519-.433.479a.522.522 0 0 1-.22-.124c-.83-.77-1.762-1.424-2.772-2.024"/><path fill="#B74B4B" d="M1599.198 1207.686c-1.37.255 3.626 27.717 3.626 27.717.047.011 3.49 15.981 3.366 16.958-.178.478 3.669 17.663 3.701 17.838.103.308.207.611.313.919 2.146 4.375 4.512 8.522 7.11 12.15 5.453 7.896 11.99 13.462 19.246 15.007 7.038 1.5 14.753-.785 22.813-8.389 3.733-3.128 7.543-7.451 11.311-12.521 1.389-2.6 2.748-5.139 4.079-7.604a2021.713 2021.713 0 0 1 8.514-19.083c1.84-4.872 3.617-9.538 5.319-13.98 1.063-2.998 2.104-5.939 3.123-8.771.402-1.2.811-2.367 1.203-3.524.609-1.836 1.214-3.632 1.796-5.396.649-2.059 1.29-4.088 1.927-6.063-.016-.013-3.682-10.298-39.823-14.021-25.484-2.625-56.472 8.548-57.624 8.763z"/><path id="cl1" fill="#FF5E79" d="M1679.955 1185.005c-4.078-.869-7.834-.272-10.496.555-1.556.489-2.74 1.054-3.385 1.452-.265.166-.436.3-.505.387-.032-.129-.062-.262-.099-.389-.737-2.62-3.221-4.254-6.816-5.018-8.769-1.869-24.143 1.422-36.9 8.238-18.217 8.553-31.5 23.734-31.489 23.742 0 0 .028-.035.087-.103a57.587 57.587 0 0 1 3.342-2.007 68.392 68.392 0 0 1 6.532-3.203l.346-.146c3.319-1.403 6.784-2.585 10.321-3.586l.254-.071c4.948-1.383 10.027-2.401 15.044-3.132.095-.013.188-.027.28-.042 6.743-.969 13.371-1.435 19.409-1.572a193.944 193.944 0 0 1 5.075-.014c9.026.1 16.672.883 22.965 2.028.084.017.172.034.256.045.891.166 1.756.34 2.592.516 3.15.673 5.919 1.438 8.292 2.232a52.41 52.41 0 0 1 2.103.8c.068.022.142.055.207.08 3.342 1.36 5.907 2.828 7.886 4.248.087.063.175.122.258.187 2.175 1.601 3.606 3.132 4.56 4.381 1.346 1.77 1.73 2.977 1.904 3.011.022.005.044-.007.063-.052-4.489-23.245-13.931-30.83-22.086-32.567m22.082 32.568c-6.943 17.929-18.896 43.006-31.353 59.793-3.767 5.069-7.576 9.393-11.312 12.521-8.06 7.604-15.773 9.888-22.813 8.389-7.256-1.545-13.793-7.113-19.246-15.007-2.6-3.628-4.966-7.774-7.111-12.15-6.842-13.967-11.43-30.315-14.367-39.894-3.896-13.89-4.943-16.125-5.485-17.354 2.283 21.908 4.628 59.982 13.479 83.698 5.509 15.938 13.729 25.901 24.449 28.187 5.907 1.256 12.571.188 19.959-3.506 21.184-13.675 34.396-45.873 42.419-67.45 8.03-22.803 10.875-34.98 11.381-37.227"/><path fill="#FFF" d="M1679.393 1187.845c3.234.687 6.822 2.195 10.48 5.067-2.606-1.866-5.238-2.954-7.772-3.498-4.896-1.042-9.445-.056-12.786 1.187-3.322 1.229-5.449 2.732-5.5 2.719 0 0 0-.004.011-.011-1.021-3.581-4.512-6.188-9.731-7.298-3.701-.787-8.277-.829-13.463.066 7.158-1.548 13.404-1.596 17.953-.627 3.42.729 5.877 2.034 7.037 3.708-.007.007-.007.012 0 .012.092.021 1.59-.723 4.035-1.263a22.845 22.845 0 0 1 9.736-.062m-10.533 101.476c-4.883 10-14.182 21.02-25.234 24.754-3.565 1.221-6.938 1.407-10.012.752-6.438-1.372-11.554-6.452-14.359-13.511 1.908 8.845 7.293 15.571 14.557 17.12 2.927.624 6.158.409 9.591-.853 11.981-4.362 21.675-17.421 25.457-28.262m-74.985-77.369c12.899 8.533 40.612 10.081 59.279 8.589 18.666-1.492 45.551-3.006 46.916-5.928-5.77-7.265-17.807-13.985-51.934-14.518-34.126-.533-54.444 11.768-54.444 11.768"/></svg>