<svg xmlns="http://www.w3.org/2000/svg" id="mouth" viewBox="0 0 3000 3000"><path fill="none" stroke="#000" stroke-linecap="round" stroke-linejoin="round" stroke-miterlimit="10" stroke-width="6" d="M1630.738 1194.142c-2.855 0-5.969.331-9.416 1.154-7.176.935-12.602 3.823-18.804 7.916a275.24 275.24 0 0 0-4.27 2.892c-10.521 7.232-24.379 17.031-51.506 26.427h0l.283-.047c4.096-.691 26.398-4.421 46.106-10.38a477.455 477.455 0 0 0 8.948-2.357l.826-.224c1.528-.413 3.045-.82 4.551-1.218l.293-.077c4.908-1.288 9.703-2.434 14.437-3.15.146-.024.293-.045.438-.066 3.084-.45 6.139-.713 9.184-.713 3.104 0 6.196.275 9.298.911.853.175 1.711.378 2.566.609a43.499 43.499 0 0 1 8.833 3.476c-.055-.306 3.467-1.723 8.07-1.723.619 0 1.256.027 1.91.084 1.027.09 2.086.259 3.152.532 4.457 1.134 9.084 4.055 12.177 10.504 2.662 5.555 4.177 13.724 3.455 25.624h0c-.011.032-.008.047.015.047.571 0 14.479-14.622 15.398-27.468 2.061-13.7-9.762-25.5-37.745-27.302-.196.007-.392.01-.589.01-4.303 0-8.311-1.36-12.657-2.721-4.383-1.372-9.142-2.74-14.953-2.74m-83.996 38.388c-3.875 1.554 11.897 16.182 22.372 31.073 12.063 15.484 18.798 31.218 33.614 48.77 9.223 11.12 23.277 23.343 35.4 23.343 3.523 0 6.875-1.029 9.902-3.411 14.459-8.264 22.448-43.316 33.24-77.989h0c-1.514.216-13.475 26.168-32.117 36.118a35.88 35.88 0 0 1-3.591 1.678c-7.271 1.893-13.313 4.027-19.979 4.027-15.381 0-34.063-11.389-78.695-63.438-.05-.059-.097-.108-.146-.171h0"/><path fill="#4E0C0D" d="M1602.082 1219.745c41.77 40.076 45.926 44.518 49.207 59.642.942 4.667-.238 8.287-2.134 11.047 18.645-9.95 30.604-35.902 32.117-36.118.471-7.769 4.558-22.415-.873-29.616-2.89-3.831-12.197-3.547-17.94-3.438 0 0-39.611-3.88-52.802-2.987-1.932.129-7.575 1.47-7.575 1.47z"/><path fill="#823030" d="M1602.082 1219.745c41.77 40.076 45.926 44.518 49.207 59.642.942 4.667-.238 8.287-2.134 11.047a35.776 35.776 0 0 1-3.591 1.678c-7.271 1.893-13.313 4.027-19.979 4.027-15.383 0-34.063-11.39-78.696-63.438a2.963 2.963 0 0 1-.091-.154l.229-.063c4.096-.691 26.398-4.421 46.106-10.38 3.033-.76 6.014-1.563 8.949-2.359"/><path id="cl1" fill="#FF5E79" d="M1546.742 1232.53c-3.875 1.554 11.897 16.182 22.372 31.073 12.063 15.484 18.798 31.218 33.614 48.77 9.223 11.12 23.277 23.343 35.4 23.343 3.523 0 6.875-1.029 9.902-3.411 14.459-8.264 22.448-43.316 33.24-77.989-1.514.216-13.475 26.168-32.117 36.118a35.88 35.88 0 0 1-3.591 1.678c-7.271 1.893-13.313 4.027-19.979 4.027-15.381 0-34.063-11.389-78.695-63.438-.05-.059-.097-.108-.146-.171m83.996-38.388c-2.855 0-5.969.331-9.416 1.154-7.176.935-12.602 3.823-18.804 7.916a275.24 275.24 0 0 0-4.27 2.892c-10.521 7.232-24.379 17.031-51.506 26.427l.283-.047c4.096-.691 26.398-4.421 46.106-10.38a477.455 477.455 0 0 0 8.948-2.357l.826-.224c1.528-.413 3.045-.82 4.551-1.218l.293-.077c4.908-1.288 9.703-2.434 14.437-3.15.146-.024.293-.045.438-.066 3.084-.45 6.139-.713 9.184-.713 3.104 0 6.196.275 9.298.911.853.175 1.711.378 2.566.609a43.499 43.499 0 0 1 8.833 3.476c-.055-.306 3.467-1.723 8.07-1.723.619 0 1.256.027 1.91.084 1.027.09 2.086.259 3.152.532 4.457 1.134 9.084 4.055 12.177 10.504 2.662 5.555 4.177 13.724 3.455 25.624-.011.032-.008.047.015.047.571 0 14.479-14.622 15.398-27.468 2.061-13.7-9.762-25.5-37.745-27.302-.196.007-.392.01-.589.01-4.303 0-8.311-1.36-12.657-2.721-4.383-1.372-9.142-2.74-14.953-2.74"/><path fill="#FFF" d="M1601.644 1219.772c-5.565 4.479.767 7.608 8.933 11.452 8.164 3.845 20.865 5.045 31.178 6.313 14.096 1.733 25.86 3.163 35.1-5.007 0 0 1.568-3.221 1.28-4.958-.288-1.738-.761-11.789-42.345-17.191-18.372-2.388-34.146 9.391-34.146 9.391z"/><path fill="#FFC2CD" d="M1630.347 1197.931c-15.733-1.064-38.767 16.159-32.515 11.085 23.698-19.229 40.094-10.573 32.515-11.085zm-33.567 22.959s29.829-7.129 37.368-6.197c7.539.934 12.365 3.834 17.127 4.44 5.293.675 13.128-1.067 15.919-.402 4.262 1.014 11.094 10.997 11.094 10.997s.154-11.143-8.679-15.689c-8.831-4.546-14.366-1.362-15.95-1.285-1.582.076-10.722-6.095-20.389-5.377-9.668.717-21.233 4.891-36.49 13.513zm6.386 79.502c1.095 1.241 5.586 5.88 11.815 10.51 7.254 5.415 16.851 10.833 26.099 10.833 5.483 0 10.843-1.904 15.52-6.847-.999 2.454-3.684 10.885-11.839 13.053-1.497.533-3.211.816-5.095.816-9.883 0-24.422-7.808-36.5-28.365"/></svg>