<svg xmlns="http://www.w3.org/2000/svg" id="mouth" viewBox="0 0 3000 3000"><path fill="none" stroke="#000" stroke-linecap="round" stroke-linejoin="round" stroke-miterlimit="10" stroke-width="6" d="M1603.19 1268.849c-4.838 1.214-9.086 2.938-12.656 5.163-.182.112-.361.225-.537.34-.141.079-.274.158-.414.238-9.781 5.722-14.414 15.152-16.015 18.217-.257.493-.438.821-.548.942 36.293-2.471 61.218 4.852 79.007 5.301 6.663.494 12.324.021 17.173-1.195 8.088-2.03 13.914-6.128 18.379-11.263 7.08-8.076 10.687-18.813 12.991-24.436 2.222-6.214 3.169-7.309 2.752-9.489h0c-6.216 5.186-16.124 8.818-25.864 11.323-.268.067-.529.138-.793.202-7.381 1.853-14.607 3.062-19.992 3.812-5.424.751-8.983 1.038-8.938 1.024l.004.001a160.337 160.337 0 0 0-13.918-1.857c-1.36-.12-2.707-.22-4.026-.294-10.092-.582-19.064.077-26.605 1.971m12.933-42.288c-9.729 2.443-19.879 8.792-26.773 19.546-13.211 16.946-16.402 47.48-16.441 47.65h0c.222-.319.441-.639.66-.949 1.602-3.064 6.232-12.495 16.014-18.217.432-.37.854-.726 1.274-1.069 6.113-5.015 11.345-7.505 15.491-9.36a137.841 137.841 0 0 1 6.002-2.16c4.184-1.396 6.768-2.016 8.51-2.699 1.373-.748 2.28-1.179 3.286-1.434.013-.003.019-.003.026-.006a9.71 9.71 0 0 0 .232-.054c2.428-.528 5.66-.106 17.135-.528 1.119-.022 2.214-.039 3.265-.046l.387-.003c9.552-.05 16.281.549 21.027 1.421.086.018.172.033.257.048 3.686.695 6.145 1.558 7.79 2.401 2.235 1.151 2.955 2.269 3.192 2.892 9.74-2.505 19.648-6.138 25.865-11.323h0c-.365-19.944-13.921-18.521-21.918-21.984-4.697-1.694-7.671-1.928-12.031-.834-1.426.359-2.995.859-4.827 1.495-3.043.872-5.067 1.76-7.048 2.255-4.229 1.063-8.265.347-21.577-6.1-5.307-2.404-12.433-2.789-19.798-.942"/><path fill="#4E0C0D" d="M1590.533 1274.012c19.041-6.417 22.217-4.651 56.06-3.513s30.864-6.508 30.864-6.508 1.049-14.451-43.459-10.662c-44.51 3.788-43.039 17.227-43.143 20.191"/><path id="cl1" fill="#FF5E79" d="M1616.123 1226.561c-9.729 2.443-19.879 8.792-26.773 19.546-13.211 16.946-16.402 47.48-16.441 47.65.222-.319.441-.639.66-.949 1.602-3.064 6.232-12.495 16.014-18.217.432-.37.854-.726 1.274-1.069 6.113-5.015 11.345-7.505 15.491-9.36a137.841 137.841 0 0 1 6.002-2.16c4.184-1.396 6.768-2.016 8.51-2.699 1.373-.748 2.28-1.179 3.286-1.434.013-.003.019-.003.026-.006a9.71 9.71 0 0 0 .232-.054c2.428-.528 5.66-.106 17.135-.528 1.119-.022 2.214-.039 3.265-.046l.387-.003c9.552-.05 16.281.549 21.027 1.421.086.018.172.033.257.048 3.686.695 6.145 1.558 7.79 2.401 2.235 1.151 2.955 2.269 3.192 2.892 9.74-2.505 19.648-6.138 25.865-11.323-.365-19.944-13.921-18.521-21.918-21.984-4.697-1.694-7.671-1.928-12.031-.834-1.426.359-2.995.859-4.827 1.495-3.043.872-5.067 1.76-7.048 2.255-4.229 1.063-8.265.347-21.577-6.1-5.307-2.404-12.433-2.789-19.798-.942m-12.933 42.288c-4.838 1.214-9.086 2.938-12.656 5.163-.182.112-.361.225-.537.34-.141.079-.274.158-.414.238-9.781 5.722-14.414 15.152-16.015 18.217-.257.493-.438.821-.548.942 36.293-2.471 61.218 4.852 79.007 5.301 6.663.494 12.324.021 17.173-1.195 8.088-2.03 13.914-6.128 18.379-11.263 7.08-8.076 10.687-18.813 12.991-24.436 2.222-6.214 3.169-7.309 2.752-9.489-6.216 5.186-16.124 8.818-25.864 11.323-.268.067-.529.138-.793.202-7.381 1.853-14.607 3.062-19.992 3.812-5.424.751-8.983 1.038-8.938 1.024l.004.001a160.337 160.337 0 0 0-13.918-1.857c-1.36-.12-2.707-.22-4.026-.294-10.092-.582-19.064.077-26.605 1.971"/><path fill="#FFF" d="M1645.19 1257.231c9.551-.05 16.281.549 21.027 1.421.326 1.313.646 2.623.968 3.932.378 1.561-.808 3.154-2.709 3.632a4.893 4.893 0 0 1-.437.089c-4.033.611-8.121.939-12.233 1.092h-.054c-2.188.069-4.328-1.414-4.795-3.237a5785.93 5785.93 0 0 1-1.767-6.929m21.285 1.469c.165.669.327 1.343.493 2.011.257 1.072 1.534 1.744 2.882 1.513l.168-.03a70.282 70.282 0 0 0 4.247-1.092c-1.648-.844-4.107-1.707-7.79-2.402m-42.07-.892c.477 1.816.951 3.631 1.43 5.446.437 1.686 2.105 3.145 3.959 3.625 1.319.075 2.666.174 4.026.294 3.197.136 6.394.251 9.569.301h.056c.37 0 .72-.043 1.044-.125 1.569-.393 2.469-1.678 2.077-3.201-.588-2.299-1.176-4.607-1.763-6.915a222.04 222.04 0 0 0-3.266.046c-11.472.422-14.705.002-17.132.529m-.259.061c-1.006.254-1.913.686-3.286 1.434-1.743.685-4.327 1.305-8.51 2.699.628.529 1.439.875 2.247.905 2.776.093 5.569.233 8.349.393l.176.008c.229 0 .442-.023.641-.074.998-.251 1.54-1.094 1.265-2.142-.286-1.076-.567-2.153-.854-3.229l-.028.006m-6.583-29.657a42.765 42.765 0 0 0-4.313 1.329c7.658-1.576 14.986-1.05 20.525 1.52 15.475 6.987 20.067 7.701 25.002 6.464 2.248-.565 4.564-1.536 8.012-2.5 2.573-.885 4.698-1.572 6.604-2.049 3.625-.911 6.444-1.069 10.017-.415a58.554 58.554 0 0 1-1.609-.503c-4.562-1.613-7.483-1.854-11.654-.806-1.495.375-3.145.912-5.091 1.611-3.087.917-5.118 1.842-7.13 2.346-4.146 1.041-8.204.298-21.279-5.992-5.122-2.512-11.975-2.79-19.084-1.005m7.999 63.614c18.905 6.184 32.219 6.954 42.035 4.487 11.2-2.811 17.853-9.827 23.069-17.822-5.401 6.353-12.498 11.182-22.586 13.714-10.466 2.627-24.146 2.786-42.518-.379"/></svg>