<svg xmlns="http://www.w3.org/2000/svg" id="mouth" viewBox="0 0 3000 3000"><path id="cl1" fill="#D25C5C" d="M1705.054 1233.955s-1.697 6.063-12.56 6.04c-10.869-.015-45.474 4.01-74.473 5.573-29.013 1.548-37.155-3.604-42.179-9.104 0 0-1.043 8.771 15.422 15.559 16.457 6.782 44.538 19.621 60.008 12.943 15.469-6.663 35.197-20.146 35.197-20.146s10.856 2.913 18.585-10.865z"/><path fill="none" stroke="#000" stroke-linecap="round" stroke-linejoin="round" stroke-miterlimit="10" stroke-width="6" d="M1576.915 1239.093c6.391 1.821 12.137 8.944 62.38 5.938s54.617-1.446 59.051-3.796 7.6-7.28 7.6-7.28 1.685 9.801-22.344 11.244c-7.818 4.035-25.785 20.154-41.545 19.422-36.251-1.682-76.669-28.813-65.142-25.528zm55.315 45.7c23.038 1.263 19.62-1.117 4.635-3.574-9.736-1.596-17.359-4.274-18.024-.167-.639 3.947-.19 2.997 13.389 3.741z"/></svg>