<svg xmlns="http://www.w3.org/2000/svg" id="mouth" viewBox="0 0 3000 3000"><path id="cl1" fill="#CB5959" d="M1677.802 1238.728s-31.406-19.729-109.058-6.583c-13.976 11.147-26.727 35.626-17.144 47.877 6.634 8.479 33.283 24.317 69.8 3.818 22.262-12.496 29.069-46.848 29.069-46.848l11.391-.02c.001.003 8.378-3.411 15.942 1.756z"/><path fill="none" stroke="#000" stroke-linecap="round" stroke-linejoin="round" stroke-miterlimit="10" stroke-width="6" d="M1661.861 1236.975l-11.391.02s-6.808 34.352-29.069 46.848c-36.517 20.499-63.166 4.662-69.8-3.818-9.583-12.251 3.168-36.729 17.143-47.877 77.651-13.146 142.158 13.733 142.158 13.733-7.562-5.17-49.041-8.906-49.041-8.906z"/><path d="M1614.809 1228.818c-3.15-3.021-30.242 41.902-30.242 41.902s34.812-37.518 30.242-41.902z"/></svg>