<svg xmlns="http://www.w3.org/2000/svg" id="mouth" viewBox="0 0 3000 3000"><path id="sd1" fill="#721D1D" d="M1700.283 1241.608c-9.579-16.865-24.876-10.678-37.174-6.263-22.797 8.169-44.16 3.932-65.876-2.557-.032.011-.06.026-.094.032-6.905-1.439-13.804-2.675-20.606.354-.104.048-.209.075-.316.123-8.989 6.649-10.415 15.174-7.262 25.54 4.144 13.632 18.176 20.55 31.007 22.483 27.449 4.136 54.814 4.409 81.74-3.169 14.389-4.048 25.016-25.221 18.581-36.543z"/><path id="cl1" fill="#FD5D78" d="M1660.715 1267.49c-8.348-5.666-17.459-5.161-26.794-5.032-5.57.075-10.524 2.245-15.439 3.904-5.675 1.912-10.825 5.785-13.948 11.397-1.537 2.761-.562 4.356 2.594 4.571 1.912.14 3.746.064 5.344-1.386.744-.677 2.058-1.407 2.891-1.203 4.474 1.101 8.645-.645 12.92-.913 7.133-.44 14.249-1.01 21.363-1.676 4.139-.387 8.683-.688 12.182.95 4.447 2.09 6.939 1.327 9.306-2.385v-1.638c-2.852-3.21-7.052-4.3-10.419-6.589z"/><path id="cl2" fill="#FFF" d="M1683.579 1274.994c1.444 2.814-1.284 3.147-2.411 3.593-10.235 4.013-20.491 7.525-31.91 6.569-4.364-.365-9.029.778-13.532.553-9.456-.467-19.022.521-28.347-1.863-4.144-1.059-8.494-1.08-12.504-2.933-1.965-.908-4.52-1.327-4.27-3.867.293-2.986 3.026-2.986 5.414-2.965.813 0 1.627-.086 2.438-.135 11.585.446 23.146-1.225 34.802.312 7.071.93 14.405-.091 21.621-.284 6.384-.167 12.768-.397 19.151-.602 1.59-.049 3.123.129 4.742-.511 2.042-.81 3.707-.015 4.806 2.133zm-38.431-22.354c2.291-.172 4.464.376 6.688.166 7.211.097 9.579-2.175 9.682-9.211.011-.645.298-1.278.408-1.923.778-4.555-.733-5.951-5.105-4.877-3.771.929-7.592 1.654-11.365 2.578-6.375 1.558-6.201 1.568-5.221 8.094.469 3.143 1.957 5.388 4.913 5.173zm-27.929-.393c2.108.962 4.177-.456 6.276.027 6.993 1.611 9.708-.526 9.784-7.67.021-3.201-.428-5.833-4.789-4.163-.432.167-1.053-.123-1.579-.247-3.768-.875-7.56-1.659-11.29-2.68-2.42-.655-3.442.269-3.969 2.514-1.133 4.845 1.316 10.286 5.567 12.219zm-17.034-5.709c3.067.999 6.519-1.021 7.605-4.222 1.149-3.384-.132-6.639-3.354-7.648-4.224-1.327-8.478-2.337-12.971-2.847-4.268-.483-5.497.709-5.572 4.63-.153 3.899 1.369 6.687 5.548 7.434 3.035.537 5.843 1.713 8.744 2.653zm79.995-15.178c-5.613.516-11.288 1.117-16.498 3.599-.51.241-1.171.419-1.208 1.305-.126 2.96 5.526 9.518 8.284 9.528 4.195-.048 7.877-1.938 11.503-3.625 2.753-1.278 3.591-4.378 3.356-7.219-.25-3.041-3.137-3.798-5.437-3.588z"/><path fill="none" stroke="#000" stroke-linecap="round" stroke-linejoin="round" stroke-miterlimit="10" stroke-width="6" d="M1700.283 1241.608c-9.579-16.865-24.876-10.678-37.174-6.263-22.797 8.169-44.16 3.932-65.876-2.557-.032.011-.06.026-.094.032-6.905-1.439-13.804-2.675-20.606.354-.104.048-.209.075-.316.123-8.989 6.649-10.415 15.174-7.262 25.54 4.144 13.632 18.176 20.55 31.007 22.483 27.449 4.136 54.814 4.409 81.74-3.169 14.389-4.048 25.016-25.221 18.581-36.543z"/></svg>