<svg xmlns="http://www.w3.org/2000/svg" id="mouth" viewBox="0 0 3000 3000"><path fill="#700401" d="M1637.442 1254.849c-.025.281-.017.543-.025.818 0 0 15.168 10.317 17.963 9.382 2.813-.934 15.732-19.484 15.76-19.538-.735-17.337-6.122-30.438-13.708-31.027-9.27-.699-18.241 17.357-19.99 40.365z"/><path fill="#DB4040" d="M1651.422 1253.144c-5.531-.843-10.353.658-14.006 2.523-1.582 22.631 4.467 41.42 13.59 42.117 9.265.698 18.229-17.359 19.988-40.369.325-4.142.314-8.099.145-11.904-6.166.696-8.822 9.318-19.717 7.633z"/><path fill="none" stroke="#000" stroke-linecap="round" stroke-linejoin="round" stroke-miterlimit="10" stroke-width="6" d="M1657.205 1305.885c6.067-.063.435 2.545-5.171 2.308-12.21-.517-11.091-6.101-11.091-6.101 7.079 5.453 10.186 3.874 16.262 3.793zm-.972-91.417c-9.604-.565-18.482 17.632-19.839 40.645-1.354 23.013 5.33 42.128 14.933 42.693 9.603.564 18.484-17.632 19.84-40.646 1.355-23.013-5.331-42.128-14.934-42.692z"/></svg>