<svg xmlns="http://www.w3.org/2000/svg" id="mouth" viewBox="0 0 3000 3000"><path d="M1706.383 1262.108s-1.203-2.217-4.168-5.564c-1.524-1.63-3.505-3.564-6.402-5.151-2.771-1.608-7.239-2.586-11.271-.586-3.894 1.913-6.94 5.39-9.116 9.236-2.313 3.554-4.855 7.694-7.857 6.814-3.401-.555-7.216-4.51-11.177-7.488-3.952-3.021-9.277-6.629-15.852-5.847-6.322 1-10.835 5.173-13.927 9.15l-4.65 5.694c-1.488 2.086-3.139 3.521-4.766 4.716-3.355 2.457-7.342 3.934-11.211 2.935-3.838-.957-7.297-3.108-10.365-5.26-6.047-4.26-10.812-9.433-16.058-9.476-2.542.098-3.733 2.064-4.192 2.978-.572 1.021-.87 1.564-.87 1.564s.366-.521 1.054-1.434c.596-.891 1.925-2.499 4.031-2.282 4.33.348 8.292 6.02 14.156 10.78 3.047 2.456 6.54 5.107 11.27 6.628 4.879 1.652 10.812.131 14.98-3.064 4.594-3.042 7.147-7.455 10.423-10.846 2.887-3.695 6.803-6.672 10.801-7.172 4.019-.673 8.279 1.674 12.151 4.564 4.1 2.674 7.147 6.771 13.514 8.107 3.391.783 6.553-1.457 8.293-3.521 1.603-2.065 2.336-3.738 3.551-5.847 1.785-3.716 4.282-6.759 7.169-8.454 6.208-3.369 12.689 1.261 15.701 3.847 3.31 2.913 4.788 4.979 4.788 4.979z"/></svg>