<svg xmlns="http://www.w3.org/2000/svg" id="mouth" viewBox="0 0 3000 3000"><path id="cl2" fill="#040202" d="M1640.5 1241.7c-3.4-4.7-7.801-8.3-13.101-10.2-25.601-9.198-51.801-15.398-79.2-15.398-.699.7-1.399.7-2.199 0-1.399-.5-2.7-.602-4.101.2-2.101 1-4.5.198-6.5 1.398-1.101.102-2.301.3-3.399.4-1.2 1-2.899.6-4 1.8-1.301 1.2-3.101 1.1-4.601 1.8h-4.7c-2.899-2.198-1.5-5-1.1-7.698.6-.5.699-1 .5-1.7.5-.9 1.199-1.601 2-2.3h-.101c1.899-1.602 3.899-1.302 5.899-.2.399.6.801.7 1.399.3 4.4 1.3 8.801 1.3 13.2 0 2.5.102 5 .5 7.399-.5 2-1.1 4.5-.2 6.5-1.5 1.101-.1 2.301-.3 3.4-.398 1.8-1.4 4.399-.102 6.199-1.7.699.3 1.301.1 1.801-.5 1.3-.7 3-.5 4.199-1.5.699.3 1.199.2 1.801-.3 1.399-.9 3.1-.802 4.6-1.602.7.3 1.101.102 1.5-.5 1.2-.8 2.9-.5 4-1.6.7-.801 1.5-1.602 2.601-1.801.601.199 1.101 0 1.399-.601.801-.5 1.601-1.3 2.601-1.5.699.2 1.199 0 1.399-.7.801-.398 1.4-.898 2.101-1.5h-.101c1-1.3 2.9-.8 3.801-2.198l.1-.102c.801-.5 1.4-1.398 2.4-1.7l-.2.102c.7-1.602 2.801-1 3.7-2.4l.1-.1c.801-.602 1.601-1.4 2.7-1.7.601.3 1.101.101 1.399-.5 1.301-.8 2.601-.7 3.9-.1 1.199.8 2.5.698 3.8.5 1.2 1 2.899.8 4.2 1.5.5.6 1.1.698 1.8.5 1.2 1.1 3 .698 4.2 1.8.399.6.8.7 1.399.4 1.101.3 1.8 1 2.699 1.698l.101.102c.899 1.398 2.801.898 3.801 2.1 1.1 1.2 3.1.7 3.899 2.3l-.2-.1c.801.5 1.601.9 2.301 1.5.3.6.699.8 1.399.6 1.101.2 1.8.9 2.601 1.5 1.3.602 2.699.602 4 0 1.8-1.398 4.399-.1 6.199-1.698.7.3 1.301.1 1.801-.5 1.3-.7 2.899-.5 4-1.602 1.101-1.198 2.899-.898 4-2 1.3-1.198 3.101-1.1 4.601-1.8l.399.3.399-.3c.899.2 1.601 1 2.5 1.3.3.7.7.9 1.399.7 1.101.3 1.801 1 2.601 1.7h.101c.5.698 1.101 1.198 1.899 1.6.2.7.7.9 1.399.7 1.2.3 2 1 2.4 2.2l-.2-.2c1.7.6 1.101 2.8 2.5 3.5l.101.1c.399.9 1.199 1.4 1.699 2.2v-.1c1.301 1 .9 2.898 2.101 4 1.2 1.1.899 3 2 4.198-.3.7-.101 1.302.5 1.802.7 1.3.5 3 1.5 4.198-.3.7-.2 1.302.399 1.802.4.698 1 1.3 1.7 1.698.3.602.8.802 1.399.5 1.399.7 3.101.7 4.5 1.4 1.899 1 3.801.7 5.801.5 4.399 2.6 3.899 6 1.8 9.7l.2-.2c-1.101 1.7-2.4 1.6-3.7.3h.101a8.03 8.03 0 0 0-2.101-1.5l-.601-.7h-.899c-1-.198-1.7-1-2.601-1.398l-.8-.602-1 .102c-1.801-1.7-4.601-.102-6.399-1.8-14.301-3.9-28.601-.802-42.9.3-5.3.398-3.699 4.1-2.699 7.2.805 2.298 2.305 4.6-1.394 4.498z"/><path id="cl1" fill="#FF5E79" d="M1676.5 1252.437c-.3.7 2.5 1.463 1.8 1.263-1.101-.698-1.601.4-2.3.9-1.2 1-.3 3.287-1.5 4.087-1 .8-3.5 4.55-4.5 5.25-8.7 4.6-10.125 9.875-23.25 11.125-.9-.399-8.251-1.101-9.051-.5-14.602 10.199-26.449 2-39.449-5-3.5-1.9-4.125-1.862-7.125-4.563-2.374.212-6.126-8.601-7.226-9.301-2.801-1.898-3.601-.1-6.2-2.199-.899-.801-1.699-1.699-2.601-2.5-.5-.601-1-1.199-1.399-1.899-.199-.3-.399-.7-.5-1m114.301-13.2c-3 13.3-10.101 15.7-11.601 17.5-15.801 23.4-35.7 14.9-35.7 14.9s-4.3 4.8-15.199 6c-39.635-4.483-42.903-16.323-47.801-20.801.601-.899-29.199-34.399-29.199-34.399l.199.1c-.899-1-.899-1.898.2-2.7 4.3-2.398 9.101-2 13.699-1.398 19.801 2.5 39.5 6.1 58.5 12.398 7.9 2.602 15.7 5.802 20.301 13.602 1.199 2.2 1.699 4.6 1.8 5.5.899 2.8 1.601 1.7 1.5 1.5-2.601-2.9-2.3-7.102-4.5-10.3-1.101-4.4.801-7.802 4.899-8.2 12.5-1.102 25-4.602 37.7-2.102 2 .4 3.7 1.4 5.2 2.802.898 1 .3 3.1.3 3.1l-.298 2.498zm-62.301-12.098c9.5 3.8 18.601 4.198 28.2 1.398 6.8-2 13.699-2.398 20.699-1.698 3.101.3 6.899 3.198 9.199-.2 2.301-3.4 3.339-7.589 2.139-10.988-.399-1.2-3.137-7.678-3.837-8.776-5.898-9.5-11.001-10.747-21.601-6.849-.9.301-6.102 2.138-7 2.438-8.9 3-13.362 2.149-21.563-3.75-4-2.9-10.125-4.838-14.625-6.938-4.898-2.301-17.661-.263-21.563 3.938-5.399 5.8-9.23 6.054-16.131 9.254-2.9 1.3-22.443 5.095-24.244 8.496 16.704 2.597 54.528 7.373 70.327 13.675z"/><path id="hl1" fill="#FFC2CD" d="M1619.6 1247.2c-14.1.602-28.899-3.6-37-10.398 7.301-1.602 13.101 2.398 19.2 3.6 5.7.998 12.8-.402 17.8 6.798zm48.7.2c-7.399-3.5-12.699 1.7-18.601 1.6 6.101 1 12.201 3.1 18.601-1.6zm-30.8 1.1c-3.2-.6-6-1.1-8.7-1.6 4.7 5.2 4.7 5.2 8.7 1.6z"/><path id="sd1" fill="#471A22" d="M1637.699 1235.302c1.399-1 2.2 3.5 2.7 2.1 2.699 3.101 4.399 6.8 3.3 11-2.5-1.802-5.199-10.802-6-13.1z"/><path fill="none" stroke="#000" stroke-linecap="round" stroke-linejoin="round" stroke-miterlimit="10" stroke-width="6" d="M1547.1 1215.4l3.025 2.6c-2.301-1.698-20.5-1.25-20.5-1.25s-3.125 8.052-10.525 4.552c-7.3-3.5-2.266-7.89-2.266-7.89s4.24-4.362 14.041.338c16.199 1.1 37.525-9.35 39.225-9.55 1.7-.198 15.4-5.5 34.4-17.898 3.199-2.9 10.5 0 10.5 0s15.8 5.398 27.5 13.898c11.8-1.5 23.899-8 23.899-8s14.199 1.802 21.3 22c.5 13.4 15.101 11.602 15.101 11.602s8.703-.311 3.603 7.89c-2.399 3.6-6.527-3.316-6.527-3.316s-4.574-1.25-11.375-1.25M1573.3 1244.1s12.075 17.149 21.5 23.399c9.777 5.483 22.801 17 42.899 6.601 4.399-1.2 6.767.797 9 .5 10.055-1.336 23.7-4.601 30.301-22"/></svg>