<svg xmlns="http://www.w3.org/2000/svg" id="mouth" viewBox="0 0 3000 3000"><path id="cl2" fill="#301616" d="M1639.8 1184.6c-.3.6-.101 1.1.5 1.399.5.801 1.301 1.601 1.5 2.601-.3.6-.101 1.1.5 1.399.5.801 1.301 1.601 1.5 2.601-.3.6-.199 1 .399 1.399 1.101 1.199.7 3 1.801 4.199-.301.7-.101 1.301.5 1.801.699 1.399.699 3.101 1.399 4.5l-.301.5.301.399c-.601 1-.601 2 0 3v13.2c7.199 1.3 14.399.398 21.601.5 2 1.3 4.601.2 6.601 1.7.399.6.8.698 1.399.3 1.399.8 3.399.5 4.399 2.1l-.2-.1c1 .3 1.601 1.1 2.4 1.7h.1c.601.698 1.2 1.3 2 1.898l.101.102c.5.8 1.2 1.398 1.801 2.198v-.1c.8.6 1.6 1.3 1.8 2.4l-.199-.2c1.601.8 1.399 2.3 1.399 3.6-.101 1.602-.801 2.602-2.399 3-1 0-1.801-.398-2.301-1.3l.2.2c-1.101-.3-1.801-1.102-2.2-2.2l.2.2c-1.101-.3-1.801-1.102-2.2-2.2l.2.2c-1.101-.3-1.801-1.102-2.2-2.2l.2.2c-1.101-.3-1.801-1.102-2.2-2.2l.101.1c-1-.3-1.699-1.1-2.399-1.8-1.101-1.1-2.801-.899-4-1.6a294.56 294.56 0 0 0-44.101 0c-4.101 1.5-8.5-.4-12.601 1.398-2.5.102-5 .302-7.399.4-3.301 1.8-7.199-.2-10.601 1.6-2.5-.1-5-.6-7.399.602-2.699 1.3-5.899-.102-8.601 1.398-1.899-.198-3.699-.398-5.399.602-2.101 1-4.5.2-6.601 1.398-1.899-.198-3.699-.398-5.399.602-2.101 1-4.5.2-6.601 1.398-1.101.102-2.3.302-3.399.4-2 1.3-4.601.3-6.601 1.6-1.899-.198-3.699-.398-5.399.602-1.5.6-2.899.898-3.699-1v-.7c.3-1 1-1.8 1.699-2.7l.101-.1c1.399-.9.899-2.9 2.199-3.8v.1c.5-.8 1.301-1.3 1.7-2.2l.1-.1c1.4-.8.9-3 2.5-3.5l-.199.2c.3-1.102 1.101-1.7 1.8-2.4v.1c.5-.8 1.301-1.398 1.801-2.198l.101-.102c.8-.5 1.399-1.1 1.899-1.898l.101-.102c.699-.398 1.3-1 1.6-1.8.7-.2.9-.7.7-1.4.3-1.198 1-2.1 2.2-2.398l-.2.199c.3-1.101 1.101-1.801 2.2-2.199l-.2.199c.3-1.101 1.101-1.801 2.2-2.199l-.2.199c.3-1.101 1.101-1.801 2.2-2.199l-.2.199c.3-1.101 1.101-1.801 2.2-2.199l-.2.199c.3-1.101 1.101-1.801 2.2-2.199l-.2.199c.3-1.101 1.101-1.801 2.2-2.199l-.2.199c.3-1.101 1.101-1.801 2.2-2.199l-.2.199c.399-1.199 1.2-1.899 2.399-2.199.7.199 1.101 0 1.399-.7.801-.4 1.301-.9 1.801-1.6l.101-.102c.8-.5 1.399-1.1 1.899-1.898l.101-.102c.8-.5 1.399-1.2 2.199-1.8h-.101c.601-.8 1.301-1.6 2.4-1.8l-.2.2c.601-1.7 2.801-1.102 3.5-2.5l.101-.102c.899-.398 1.399-1.2 2.199-1.7h-.1c.899-1.3 2.899-.8 3.699-2.198l.101-.102c.8-.5 1.399-1.1 1.899-1.8l.101-.1c.8-.5 1.399-1.2 2.199-1.802h-.1c.699-.898 1.5-1.6 2.6-1.898.7.199 1.101 0 1.4-.7.8-.4 1.5-.9 2.1-1.5h-.1c.699-.9 1.5-1.6 2.6-1.9.7.2 1.101 0 1.4-.698.8-.4 1.5-.9 2.1-1.5h-.1c1-1.302 2.899-.9 4-2.102 1.1-1.199 3-.898 4.199-2h7.5c1.2 1.102 3.2.602 4.101 2.301l-.2-.101c1 .3 1.601 1.101 2.4 1.7h.1c.601.7 1.2 1.3 2 1.898l.101.102c.5.8 1.101 1.398 1.899 2v.1c.601.801 1.4 1.4 1.7 2.4l-.101-.2c1.601.7 1 2.8 2.4 3.7l.1.1c.599 1.108 1.299 1.906 1.599 2.906z"/><path id="cl1" fill="#FD9BAB" d="M1631.8 1205.7c3.899.602 6.601 2.9 8.399 6.2 3.2 5.8.899 15.8-5.699 16.5l-57 6c-2.7-4.6.899-13.6 3.699-16.2 10.601-10.1 23.399-14.7 37.899-13.898 4.202.298 8.601.098 12.702 1.398z"/><path id="sd1" fill="#FA5D77" d="M1631.8 1205.7c-9.199.8-18.5-.398-27.5 2.4-8.699 2.7-17.133 10.999-23.531 17.599-1.9 1.9-3.602 3.9-3.602 6.801-9.6 2-19.2 4.101-29.3 6.199 8.5-19.1 57.033-45.299 83.933-32.999z"/><path fill="none" stroke="#000" stroke-miterlimit="10" stroke-width="6" d="M1620.3 1168.1c-7.425-.4-11.339-2.988-47.285 28.307-24.515 21.343-34.715 42.193-34.715 42.193s-3.199 4.899 9.2 1.2c16.6-3.4 68.103-10.422 78.6-10.9 11.525-.525 50.233-2.067 51.733-1.567s8.334 8.167 8.334 8.167 6.833 7.867 3.833 2.167c-7.899-13.4-8.501-14.966-42.001-15.966-.199-16.201-2.754-52.255-27.699-53.601z"/></svg>