<svg xmlns="http://www.w3.org/2000/svg" id="mouth" viewBox="0 0 3000 3000"><path fill="#661717" d="M1418.602 1187.042c27.295-25.126 68.898-42.746 112.898-46.144s53.174 14.813 88.365 23.072 64.734 20.367 95.435 8.448 48.843 1.443 54.021 28.512-9.821 61.851-31.821 81.96-104.955 53.094-168.978 52.602-144.205-23.375-164.614-62.184 3.62-76.071 14.694-86.266z"/><path id="cl1" fill="#FF9CAC" d="M1418.467 1290.934c-10-10.9-19.8-21-21.2-36.3 3.4-6.102 16.434-8.833 22.334-11.034 25.199-9.5 51.3-13.602 78.199-14.602 39.7-1.5 78.399 3.102 116.2 15.302 7.1 2.3 13.399 5.698 19.5 9.698 9.899 8 17.399 18.302 25.1 28.302 6.4 8.398 17.301 20.6 22.2 30-1.2 3.8-57.329 15.638-82.029 20.838-15.301 3.2-32.571 4.86-48.172 3.36-96.849-8.998-127.932-40.965-132.132-45.564z"/><path id="sd1" fill="#FF5E79" d="M1633.5 1254.1c-23.601-9.101-48-15.2-72.801-19.3-8.399-1.4-16.899-2.9-25.601-2.802-21.899.2-43.8-1-65.6 2.102-22.801 3.3-51.283 8.431-71.683 19.431-3.199-8.5-2-17.1-.101-25.6 3.801-17.5 12.9-31.9 26.301-43.801 3.699-3.301 14.882-3.231 19.382-4.031 32.699-5.5 64.199-1.7 94.699 11.699 33.801 14.801 65.101 33.601 92.4 58.601 1.004 1.001 1.904 2.403 3.004 3.701z"/><path fill="#FDFDFD" d="M1638.622 1194.444c-7.252-.975-14.252-3.063-21.339-4.847-4.354-1.105-7.168-3.581-8.547-7.523-2.521-7.094-4.643-14.207-7.313-22.395 13.757 3.186 26.605 6.212 39.351 9.143 7.498 6.471 6.644 16.418-2.152 25.622zm4.482 1.701c22.158 7.513 36.373-5.838 50.897-19.003-10.804.186-21.246-.547-31.666-2.981-4.754-1.088-9.457-3.278-14.611-2.146-2.551 7.821-6.719 15.315-4.62 24.13z"/><path fill="none" stroke="#000" stroke-miterlimit="10" stroke-width="6" d="M1584.699 1151.2c56.801 26.5 107.5 27 109.301 26.5 17.199 0 34-16.398 55-5.7 21 10.7 21.5 37.602 21.5 37.602 1.5 37.3-26.009 67.945-44.2 79.1-31.022 19.022-95.273 42.171-144.3 46.4-38.5 1.274-73.833 2.203-132-23.2-73.758-32.212-49.7-95.399-49.7-95.399 12.2-35.334 49.323-54.936 71.801-63 26.5-9.513 63.066-21.669 112.598-2.303z"/></svg>