<svg xmlns="http://www.w3.org/2000/svg" id="mouth" viewBox="0 0 3000 3000"><path id="cl2" fill="#060001" stroke="#040000" stroke-miterlimit="10" stroke-width="6" d="M1512 1206.9s-12.101.3-36-20.8c-30.9-7.4-97.801 26.3-97.801 26.3s-10.706 8.08-23.606-1.22c-5 1.8 34.507 61.92 36.507 86.22 16.5 16.9 109 50.8 109 50.8l109.699 25.801s62.5 4.5 81.301-2.801c18.8-7.3 78.199-55.399 80.8-61.5 2.601-6.1-4-35.8-4-35.8l22.9-96.5-23.601-7.1-1.699 9.899s-26.101-10.699-33.7 17.2c-8-23.3-40.3-24.7-50.3 6-15.301-31.3-45-33.8-60.301-3.2-3.5-16.399-35.6-31.5-55.699-2.8-26.301-19.899-36.5-34.699-53.5 9.501z"/><path id="hl2" fill="#2A2A2A" d="M1515.5 1264.2c-2.601 1.601-4.101 0-5.601.101-12.3 1.399-20.5-5.4-28.2-13.7-5.399-5.9-12-10.7-16.699-17-9-12-9-12.4 4.399-19.2 2-1 4.4-1.5 6.601-2.2 8.6-2.8 16.899.2 20.199 8.601 3.2 8 7.101 15.5 11.601 22.8 3.8 6.199 5.8 13.298 7.7 20.598z"/><path id="sd4" fill="#31312F" d="M1681.3 1228.4c.2-1.3.5-2.7.7-4 .199-1.1.6-1.3 1.3-.3.1 4.6.3 9.2.399 13.8-.1.7-.199 1.5-.199 2.2-1.4.6-2.801 1.3-4.2 1.899 0-.699-.101-1.399-.101-2.199 2.801-3.4 1.401-7.6 2.101-11.4zm1.8-11.3c-2.1 1.8-1.4 5-1.1 7.3.399-.2.899-.3 1.3-.3 0-2-.2-5-.2-7zm-105.6 54.701c1.3.699 2.6 1.3 3.899 2 4-10.101 1.9-19.4-1-29.101-1.5-.1-3.7-.5-5.2-.6.101 2.6.101 5.2.2 7.8.4.601.5 1.2.3 1.9-1.199 6.2-2.599 12.4 1.801 18.001zm102-23.901c-.2.5.1-.5 0 0-.601 3-.5 6-.601 9.1-.1 1.601-.2 3.2-.1 4.801.5 4.899-1.4 10.3 2.899 14.399h.7l.7-.1c4.9-6.9 5.5-13.3 4.2-20.9-.7-4.699-.601-7.5 4.1-7.399 5.4.1 11.1 1.699 16.2-1.601-9.098.101-18.698.5-28.098 1.7z"/><path id="sd2" fill="#494A47" d="M1620.4 1235.801c-1.2 1.8-.5 2.399-2.3 2.8 0-9.4-.7-19.6 1.6-28.8.601 1.899.801 4 1.5 6 .3 8.599-.3 13.299-.8 20zm59.1-28.601c1.1 6.7-.801 16.9 1.5 23.5 1.399-.8 1-4.6 1-5.899.199-2.2-.5-4.5.699-6.601.101-3.399 1-7 1.101-10.3-1.2 0-3-.7-4.3-.7zm86.699 64.601c1.601-1 1.801-2.4 1.5-4.101-2.199-1.5-1.3-3.899-1.899-5.899-2.601 3.5-2.3 6.799.399 10zM1732 1272c2.3-14.1 1.8-17.1.1-25.899-.1-.8-.3-1.601-.4-2.4-.5.101-1 .101-1.6.2-3.9 12.5-1.3 15.2-1.9 24.3 1.3 1.299 2.499 2.6 3.8 3.799zm-105.9 2c1.2.101.8-4.899 2-4.8.2-8.5-1-15.899 2.3-20.7-2.2-.1-4.8-.1-7-.1 4.4 3.2 3.101 4.7 2 7.6-1 8.801-.701 10.4.7 18z"/><path id="sd3" fill="#86877F" d="M1608.199 1369.6c-13.899-1.7-27.199-5.9-40.699-9.4-26.101-6.8-52.101-13.899-78.101-20.8-14.6-3.9-28.5-9.3-41.6-16.6-15.101-8.4-30.3-16.7-45.5-25-3.9-2.101-7-4.601-8.8-9-9.301-23.5-18.7-47-29.7-69.801-.2-.5-.101-1.199-.2-3 9.6 6.101 17.8 1.4 26.3-2.1 13.2-5.5 26.601-10.6 39.8-16.2 4.9-2.1 8.2-2 10.2 3.3 1.2 3.101 3.9 5.4 4.2 8.9 1.7 14.7 8.8 27 18.5 37.6 7.6 8.301 15 16.801 22.8 25.101 4.4 4.8 5.101 9.6 2.7 15.5-2.8 6.8-5.8 13.399-9.2 19.899-4.7 8.601-4.5 9.2 5.3 11.801 20.2 5.399 40.4 10.899 60.7 16.199 11.601 3 22.8 7.101 34.5 9.9 10.2 4 22.101 3.8 30.3 12.5 1.101 3.902 1.401 7.801-1.5 11.201zm-27.599-153.4c0-3.3.1-6.6-.1-9.899-.601-10.5-3-12.101-12.801-8.5-.8.699-1.6 1.399-2.399 2.1-3.301 11.9-4.801 23.9-1.2 36.1.6.7 1.3 1.301 1.9 2 18.699 4.301 31.899 6.7 48.3 6.101 2.899-.101 5.899-2.101 3.5-6.2-7.2-.7-14.5-1.3-21.7-2-15.1-3.502-15.6-4.202-15.5-19.702zm-32.8 60c2.3 3.3 4.7 6 9 3.101 1.399-5.5-1.601-10.2-2.601-15.301-2-10-1.1-11.199 8.7-10.1 4.8.5 8.9 1.8 13.101-2-.7-4.1-.2-4.9-.801-7.8-5.399-1.8-8.699-2.8-13.899-3.8m60.399-24.7c-3.3 7.8-1.3 15.899-1.399 23.8 1.1 4.1 4.899 4.4 8.6 5.2 6.8 2.399 11.3 2 18.9 2.899 9.1-.199 16.1.4 27-1.1 2.199-.7 4.1-1.7 5.399-3.7.5-1.1.301-2.1-.5-3-5.199.2-10.3.301-15.5.5-5.199 3.101-11 1.9-16.399 1.801-20.301-.4-17.601.699-17.9-17.601-.2-9.5 1.9-19.1-1.8-28.399-5.2 5.6-6.3 12.4-6.401 19.6zm62.5 22.201c-.8 1.1-.899 2.199-.1 3.399 10.7 6.301 35 .301 46.3-4.1 2.3-2.2 3.8-4.7 3.5-7.9-.899-9.1-1.1-18.399-3.899-27.199-2.301-3.2-2.301-7.7-5.801-10.2 0 11.2 0 22.3-.1 33.5-.1 8.9-.5 9.2-10.3 10.4-9.799 1.799-19.6 3.299-29.6 2.1zm60.401-5.5c1.1-.301 2.3-.5 3.4-.801 1.3-.8 2.899-.5 4.1-1.5 4.2-1.1 8.4-2.1 12.5-3.3 3.1-.899 5.1-3 5.3-6.5.7-11.6.9-23.2-4.399-34.1-1.9-.601-3.101-2.7-5.4-2.5 4.5 10.7 3.8 22 3.9 33.3 0 3.8-1.301 6.3-5.301 7.2-2.199.5-4.399 1.3-6.6 2-5.2 2.1-10.3 4.2-16 3.8-.3 1.2.3 1.9 1.3 2.4 2.4.8 4.799 1.001 7.2.001zm33.3-18.301c1.8-7 3.8-13.899 5.3-20.899 2.7-13.5 3.601-10.2-8.5-14.601-.6-.199-1.3-.3-1.899-.5-4.9-1.1-4.9-1.1-4.601 5.801 4.2 3.899 4.2 9.5 6.101 14.399 2.999 4.7-2.701 11.601 3.599 15.8zm-23.8 64c.6-.699 1.2-1.399 1.9-1.899 5.699-8.8 6-18.8 6.1-28.8.1-13.301.4-16.4-15.1-11.7-.301.1-.7 0-1 0-3.2.899-6.301 1.899-9.5 2.6-3.101.7-4.2 2.8-4.9 5.5-.6 1-.5 1.9.3 2.7 3 1 5.8-.1 8.7-.9 11-3.199 13.4-1.199 12.7 10.4-.5 8.3-3.5 15.9-5.4 23.9 2.4.899 4.2-.901 6.2-1.801zm-24-34.1c-1.8-3-4.4-1.8-6.9-1.2-5 1.2-10 2.301-15 3.5-5.899 1.601-11.899.601-17.8.7-1.1-.3-6.1 3.2-4.5 7.9 6.6 5 12.7-.301 19.3-.801 12.801-2.6 14-1.6 14.101 10.9.1 6.7.1 13.2-4 19.1-1.2 1.801-2.801 3.9-1 6.301 9.3-4.4 13.699-11.9 13.899-22.101 1.4-10.099-.001-11.799 1.9-24.299zm-61 5.401c-11.9 1-23.8 2.3-35.5-1.101-1.1.101-2.1.101-3.2.2-5.1 8.4-4.2 17-.7 25.7.7 8.8 6.4 14.6 12.301 20.3.6 0 1.199 0 1.8-.2.8-7.899-3.5-14.899-3.7-22.8-.4-12.2-.8-12.5 12-12.5 9.9-.8 20.2 2.5 29.7-2.7 0-2.899 1-6.1-1.8-8.399-3.701.5-7.302 1.199-10.901 1.5zm-73.401 37.099c2.2-3.9-1.1-6.8-2-10.1-4.399-16.101-1.5-20 14.801-19.601 3.3.101 6.6.301 9.8 1.2 2.8.4 5.5.4 7.899-1.3 2.301-3.601 1.7-6.5-2.399-8.2-14.601 0-28.9-2.9-43.4-4-1.1 10 1.2 19.8 1.7 29.7 3.4 5.301 7.599 9.702 13.599 12.301zm86.5-10.3c-.199-5.4-.3-10.9-.5-16.3-2.5 6-1.699 12.199-1.5 18.399.701-.699 1.301-1.398 2-2.099zm-179.599-55.799c4.8 21.8 15.9 40.899 27.2 59.899-.2-8.399-4.2-15.8-6.601-23.6-7.199-22.8-12.899-45.7-9.199-69.9.1-1-.101-2-.2-3-12.5 9.601-14.2 22.9-11.2 36.601zm29.2 63.899c.3-1.899 0-3.399-2.101-4-.199 1.8.5 3.2 2.101 4z"/><path id="sd1" fill="#1A1B19" d="M1560.1 1234.1l-.3-2.101c1-10.5 2.199-21.1 2.199-31.699 1.101 0 2.2-.101 3.301-.101-1.101 11.9-1.7 23.9-1.2 35.801-1.3-.699-2.7-1.3-4-1.9z"/><path id="cl3" fill="#C7C8BC" d="M1574.5 1283.7c-.301 21.5 4.6 42.601 3.5 64.101-28.2-7.7-56.4-15.301-84.601-23.101-6.7-1.8-13.7-2.6-20-6-3.1-1.7-3.7-3.399-1.2-6.1 7.2-8.2 10-18.7 14.5-28.3 1.5-3.2.7-5.601-1.6-8.101-5.4-5.899-10.1-12.6-16.1-17.7-13-10.899-19.7-25.699-27-40.3-1.7-3.399-2.4-6.3 1.8-8.2 1.2 1.601 2.8 3 3.5 4.7 8.899 21.4 27 35 42.8 50.5 2 2 4.3 2.7 7.1 3 34 12 20.9-9.399 37 27.9 5.9.399 5.7-22.7 9.801-18.3 6.5 7.002 12.4 10.301 30.5 5.901zm33.699 85.9c24.601 1.7 49 .899 73.5-2.2 16.7-2.2 30.801-9.5 42.7-21.2-2.5-.399-4.5 1-6.6 1.9-9.5 4.3-19.301 6.9-29.9 6-14-1.2-27.7 3.1-41.7 2.1-1.6-.1-3.199.9-4.8 1-11.1.7-22.3 2.2-33.5.9.101 3.8.201 7.701.3 11.5zM1637.6 1185c-4 3-7.2 6.7-9.5 11.101-2.1 7.399-1.1 15-1.1 22.6-.101 26.3 1.199 27.4 27.5 26 3.699-.2 8.3.8 9.8-4.5-5-.1-9.9-.2-14.9-.2-3 0-5.2-1-5.3-4.5-.2-14.199-1.1-28.399 3.2-42.3 2.5-8 3.5-8.7 12.8-9.3-7.8-6.001-15.3-4.301-22.5 1.099zm-48.401 36.4c.2-1.3.601-2.7.2-3.9-2.5-7.1-1.2-14.399-1.3-21.699-.101-11.9.1-11.9 11.8-11.9-4.9-3.4-9.9-2.7-15-.6-7.3 2.899-12.9 7.8-17.2 14.3.601.9 1.4 1.3 2.5 1 7.301-1.6 7.4-1.6 7.7 5 .2 5-.7 10.1.1 14.9.801 4.8-4.3 10.699.7 14 3.8 2.5 9.5 2.3 14.4 3.199.899.2 2-.1 3-.199-8.4-4.101-8.4-4.101-6.9-14.101zm137.5 5.7c.7-11.8 1.4-23.8-2.5-35.3-6.3-9.801-11-11.4-22.3-7.801 8.7 3.101 11.9 7.301 12.1 16.9.2 11.6-.1 23.2-.1 34.8 8.401 2.501 12.3.301 12.8-8.599zm38.301-6c2.899-12.8 5-26-4.9-37.4-8.1-4.6-8.1-4.6-16.4 2.101 6.2 1.6 7.9 3.8 8.101 11.899.3 9.5.1 18.9.199 28.4 6 2.4 11.8.5 13-5zm-7.2 58.701c-.601 1.1-1.7 1.3-2.8 1.3-.801.1-1.4.5-1.7 1.2-.2.8.1 1.399.8 1.8 3.9-.1 5.9 2.6 7.7 5.5 3.6 5.5 4.899 11.6 4 18.1 4.5-3.6 4.5-8.699 3.8-13.5-.9-6.8-2.1-13.6-5.8-19.6-1.9.3-3.3 1.4-4.101 3.2-.299.899-.899 1.599-1.899 2zM1576 1254.5c.5-.8.5-1.699 0-2.6-5.601.1-11.101-.3-16.601-1.5-8.6-1.8-10.899.6-9 9.3 1.5 6.7 3.8 13.2 5.7 19.801 6.1 3 12 4.1 17.3-1.601.3-7.8-5.399-16.3 2.601-23.4zm28 35.801l2.1-.601c1.8-4.199 1-8.6.6-12.8-.899-9.8.601-17.8 11.5-20.9-8-3.899-16.899-.699-25.199-3-1.801-.5-2.9 1.301-2.9 3.101 0 10.399-1.7 21.2 5.7 30.3 2.599 1.299 5.398 2.599 8.199 3.9zm96.9 3.399c3.8 0 7.601.4 11-1.899.8-.4 1.4-1.301 2.4-1.301h.1c7-8 8.2-17.399 7.9-27.6-.5-13.8-1-14.6-14.8-12-.601.1-1.101.7-1.601 1.1 2 .5 4 1.2 4 3.601-.1 8.8 1.2 17.7-.899 26.5-1.2 5.1-3.2 9.399-9.2 10.1-.3.899.1 1.399 1.1 1.499zm33.1-19.7c3.399 5 8.3 6.2 13.899 5.801 8.101-7.2 7.4-17.101 7.8-26.4.601-14.5-2.199-16-16-9.7 5.5 10.299 2.701 25.399-5.699 30.299zm-90-18.199c-5.5.399-8.4 2.699-7.5 8 1.699 10.3.3 21.399 7.3 30.399.8.5 1.6.9 2.3 1.4 5 3 10.4 2.5 15.9 2.4 1.899-1.5 4.8-1.5 6-4.101h-4.9c-11.2 0-13-1.899-13.1-13.3-.101-8.2 0-16.5 0-24.7-2 .001-4-.199-6-.098zm-130.301-72.101c-3.6 7.7-4 15.601-3.5 24.101 1.301 25.699 10 49.1 19.601 72.399 1.699.9 1.1 2.8 2.1 4 .5 2.4 1.3 4.5 3.8 5.601 11.2-10.2 17.101-23.301 20.4-37.801 5.2-15.399 4.6-31.3 4.3-47.1-.2-9.1-3.8-16.6-12.2-21.1-2.1 2.199-1.6 4.899-1.399 7.6.7 9.6.6 19.3.3 28.9-.4 9.6-2 19.199-4 28.6-1.8 9-5.3 17.6-6.5 26.6 1.7-10.8-1-21.1-2.6-31.6-3.301-22.1-5.801-44.2.5-66.2-6.801-1.399-13.2-1-18.601 4-.6.9-1.1 1.8-2.201 2z"/><path id="hl1" fill="#E7E6E2" d="M1607.9 1358.1c-9.399-4.9-20.1-6.2-29.8-10.2-1.6-1.8-2.8-3.9-2.7-6.2.8-18.5-4.1-36.899-1.8-55.399 2-7 6.6-6.4 11.6-3.601 4.601 2.601 7.7 8.4 13 9.7 10.2 4.2 20.5-1.9 28.2-8 7.7.1 7.9 11.5 14.6 13 7.5 4 15.2 6.4 23.801 4 4.6-1.4 7.5-5.1 10.8-8.2 3.4-3.199 7.1-5.5 11.3-2.1.7.5 1.3 1 1.9 1.6.6.5 1.3.9 2 1.4l2.1 1.2c1.101.5 2.101 1 3.3 1.399.801.2 1.601.5 2.301.7 4.699.8 9.3.9 13.699-1 .601-.3 1.4-.4 1.801-.9 8.3-3.8 13.6-12.8 17.399-14.399 12.7 5.5 17.3 5.399 20.9.7 1.1 0 2.1.1 3.1.3 11.3 6.2 14.3 13.5 10.3 25.6-.699 1.3-1.399 2.601-2.1 3.9-4 8.2-10 14.399-18.4 18.2-7.5 4.899-13 12.199-21.1 16.5-11.8 8.199-24.8 11.199-39.3 11-21.8-.301-43.4 3.6-65.3 4.199-4.201.001-8.401.302-11.601-3.399zM1680 1208c-5.2-9.199-10-18.699-20-24-8.801-3.399-13.101 1.301-15.5 8.801-2.9 8.899-3.601 18.1-3.601 27.5.101 22.3 0 22.3 22.601 22.6 5.5-.1 11.1.6 16.5-1.6m2-23.401c0 2.3 0 4.7.1 7 2 4.4-.6 9.6 2.2 13.9 10.5 3.399 20.699 2.899 30.399-2.601 4-14.199 3.2-28.6.5-42.8-1.199-6.4-5.399-11.3-13.399-9.5-4 .2-6.7 2.8-9.301 5.3-5.3 5.101-7 11.9-8.699 18.7-2.4 3.001-1.601 6.601-1.8 10.001zm-63.6-14c-4.399-8.2-9-16.3-18.5-19.8-12.7-2.101-13.899-1.101-14.7 11-.6 9.3 1.301 18.6.5 27.8-.6 7.8 2.101 12.8 9.801 14.9 7.3.6 14.399 4.1 21.899 1.399 1-.699 1.7-1.5 2.2-2.6 3.3-8.9-1.2-17.8.1-26.7-.1-1.1-.1-2.199-.199-3.3-.001-1.099-.802-1.798-1.101-2.699zm117 26.3c7.5 3.8 13.3 1.101 18.2-4.899 2.5-10.5 2-21.101.5-31.5-.8-5.101-2.4-11.101-10.3-7.9-5 2.7-7 7.9-10.2 12.2.599 12.899-1 20.499 1.8 32.099zm-166.701 28.101c1 5.3 1.101 10.399 1.301 15.699.1 2.4 1.3 3.601 3.5 4 2.399-1.3 3-3.899 4.6-5.899-1.1-6 1-12.3-1.7-18.2-3 .799-8.8-1.6-7.701 4.4zM1690.8 1289.6c.6-.101 1.1.1 1.3.7.9.6 1.7 1.3 2.8 1.399l.7-.1.5.5c1.6 1.2 3.5.8 5.3.899 4.9-.399 7.9-3.3 9.4-7.699 3.3-9.7 2.7-19.601 1.399-29.5-.399-3.101-2.199-5.7-6.199-3.9-6.601.7-13.2 1.5-19.801 2.2-3.5 7-.699 14.8-2.399 22 .5 5.401 3.899 9.401 7 13.501zm41.3-43.5c0 8.6-.1 17.3-.1 25.899l2 2c9.3 1.101 9.899.7 10-8 .1-5 .3-9.8 1.699-14.699 1.301-4.7-.6-7.7-6-7.5-2.799.1-5.399.7-7.599 2.3zm-85 33.1c.1 15.5 5.5 19 20.9 14.8 6.1-3.699 11.1-8.3 12.199-15.8 2-6-.5-12.399 1.5-18.399 0-1.2 0-2.4.101-3.5-10.601-1-21.2-.7-31.7-.2-5.2 7.099-3.1 15.299-3 23.099zm-23.401 2.2c.801-2.5 1.601-4.9 2.4-7.4-.3-6 1-12-.2-17.899-2.6-.101-5.2-.101-7.8-.2-2.9.2-5.9.1-8.7.8-2.5.601-5.3 1.9-5.2 5 .4 9.301-2.3 18.9 1.9 28 7.301.399 12.6-3.501 17.6-8.301zm-89.299-103.599c-3.1.6-4.1 2.6-4.7 5.5-3.1 15.5-2.1 31-.8 46.5 1.101 12.8 5 25.3 5.101 38.3 0 3.6 1 7 3.3 10.7 1.3-4 2.7-7.301 3.6-10.801 3.2-11.8 6.3-23.5 7.7-35.8 1.8-16.3 2.4-32.3-.5-48.399-3.402-4.601-8.201-6.201-13.701-6z"/><path fill="none" stroke="#040000" stroke-miterlimit="10" stroke-width="6" d="M1497.199 1201.5c-5.5-3.1-12.6-7.899-21.199-15.399-30.9-7.4-97.801 26.3-97.801 26.3s-10.706 8.08-23.606-1.22c-5 1.8 34.507 61.92 36.507 86.22 16.5 16.9 109 50.8 109 50.8l109.699 25.801s62.5 4.5 81.301-2.801c18.8-7.3 78.199-55.399 80.8-61.5 2.601-6.1-4-35.8-4-35.8l22.9-96.5-23.601-7.1-1.699 9.899s-26.101-10.699-33.7 17.2c-8-23.3-40.3-24.7-50.3 6-15.301-31.3-45-33.8-60.301-3.2-3.5-16.399-36.899-33.6-56.8-3.6m-7.399 59.9c-.801 4.7-22.2 38.5-22.2 38.5s-41.101-73.5-35.9-92.5c27.4-55.199 64.3-7.3 64.3-7.3.9 9.2.7 44.7-6.2 61.3z"/></svg>