<svg xmlns="http://www.w3.org/2000/svg" id="图层_2" viewBox="0 0 3000 3000"><path id="cl2" d="M1450.199 1188.9s-25 5-36.699 11.7c-11.7 6.7-34 15.7-38.7 16.7s-17.116 1.199-17.116 1.199 30.816 60.801 35.116 77.4c9.2 10.3 69.399 40.2 78.8 43.5 6.8 7.1 134.5 33.5 134.5 33.5s87.9 3.1 96-5.1c14.1-7.9 61-46.601 65.4-56.9 4.399-10.3 7.3-25.7 0-37 3.3-4 6.8-12 6.8-12s13.2-6.8 19.6-16.4c6.4-9.6 12.7-9.6 18.101-103.199 3.1-5.4-16.5 29.6-23.9 36.6-2.1 1.4-20.3-5.3-20.3-5.3s-5 3-2.3 9.3c0 0-17-20-34.7 15-15.3-37.7-48-8.7-49.3 6.7 0 0-31-60-61 0-4.2-14.7-27.301-45.3-57-7.3 2.699-3.301-26.301-41.7-45 0l-68.302-8.4z"/><path id="sd3" fill="#86877F" d="M1608.667 1372.25c-14.899-1.8-30.894-4.765-45.294-8.465-25.2-6.399-50.521-11.646-75.622-18.245-16.899-4.4-33.104-13.045-48.304-21.345-13.1-7.2-23.543-13.23-36.643-20.53-3.9-2.101-9.838-10.082-11.639-14.582-9.199-23.5-31.216-70.158-31.417-71.958 9.6 5.9 21.55.275 30.05-3.225 13.199-5.5 24.163-16.351 40.325-18.15 4.8-2.1 19.025-9.55 21.125-4.25 1.2 3.101 2.447 17.765 4.188 21.5 1.7 14.8 7.876 16.25 15.25 30.875 7.7 8.3 7.112 20.625 14.813 28.926 4.1 4.399 5 9 2.8 14.6-3 7.4-5.9 14.9-10.3 21.6-3.801 5.7-2 8.101 3.899 9.9 19.8 5.8 39.9 10.8 59.8 16.2 12.601 3.399 24.9 7.6 37.5 10.7 10.2 4 22.101 3.8 30.301 12.5 1.301 4 2.069 10.548-.832 13.949zM1461.1 1212c1.7 7.601 5 14.5 9.6 20.801 9.4 15.6 24.301 23 41.2 27.3.9.2 4.2-.8 1.8 2.2 6.9 2.899 13.9 2.399 21.101 1.3-.2-6.9-3.4-12.5-4.4-18.7-1.1-6.8-4-11.1-11.2-13.1-7-1.9-8-4.5-6.699-12 .899-5.2 2.199-10.3 3.199-15.5.5-2.5-.1-4.7-3.399-4.5-3.9 4.3-2.9 10-4.4 14.9-1.7 11.3-4.1 12.699-13.9 7.5-12.5-6.5-19.399-17.801-24.6-30.301-5.7-13.8-6.4-28.399-7.1-43-.2-1-.601-1.899-1.2-2.699-.8-.9-2.6-6.601-3.6-6.101-.601 1.9-.7 9.3-.7 11.2-.2 11.6-2.7 23.4-1.3 34.8 1 8 .399 16.4 4.6 24m345.097-45.6c-.899 1.301-1.3 2.7-1.5 4.2-2.5 25.5-10.5 48.3-31.899 64.4-2.4 1.8-4.2 4.2-5.601 6.8-1 5.3-.6 10.6 0 15.8.301 2.9 6.438 4.824 8.238 3.425 4.399-6.101 12.55-9.949 18.25-14.25 3.9-3.3 6.1-7.988 8-12.688 8.699-21.9 7.212-44.887 7.012-68.287-1-.599-1.799-.4-2.5.6zm-224.599 51.7c0-3.3.1-6.6-.1-9.899-.601-10.5-3-12.101-12.801-8.5-.8.699-1.5 1.399-2.3 2.1-1.1 11.4-6 22.7-1.9 34.4.801 1.199 1.601 2.5 2.4 3.699 4.6 1.801 6.7 2.5 10.3 2.4 9.301-.2 18.9 3.5 28.101 3.3 5.399-.1 9 2.5 13.3-2.8.3-1.3.8-2.2-.1-3.1-7.301.699-14.301-2.2-21.601-1.9-14.899-3.5-15.399-4.2-15.299-19.7zm-23.8 63.101c1.399-5.5-1.601-10.2-2.601-15.301-2-10-1.1-11.1 8.801-10.1 4.8.5 9.8 1.8 14-2.1 1.399-2.601 1.399-5.301-.2-7.801-5-4.899-11.601-2.1-17.3-3.8-8.301 1.101-16.301-2.5-26.301-2.1 4.9 13.399 4.2 27.7 14.7 38 2.201 3.401 4.601 6.101 8.901 3.202zm-34.101-88c-1.899 10.1-3.3 20.3-4.8 30.5-.5 3.5.9 5.199 4.4 6.5 10 3.8 20.6 5 31 7.199 2.399.5 4.6-.5 6.699-1.6.2 0 .301-.3.5-.8.101-.5-.1-1-.699-1.4-8.101.2-15.601-2.7-23.301-4.1-4.399-.8-6.6-4-5.6-8.9 1.6-7.8 2.9-15.6 4.5-23.3 1.6-8.1 1.7-8-5.2-11.3-3.999 1-6.898 3.6-7.499 7.201zM1622 1208c-3.7 11-1.801 22.2-1.2 33.301 8.1 6.6 16.6 5.699 25.3 6.8 9.7-.3 19.4-.5 28.7-1.7 2.2-.699 4.1-1.699 5.399-3.699.5-1.101.301-2.101-.5-3-4.5.1-9.1.3-13.6.399-5.9 3.101-12.3 2-18.4 1.9-20.199-.4-17.6.8-17.899-17.601-.101-9.5 1.899-19.1-1.8-28.399-3.801 3.099-3.9 8.099-6 11.999zm62.199 29.801c-.8 1.1-.899 2.1-.199 3.3 17.399 4.8 28 2.6 46.6-4.2 3.3-3.1 3.8-6.699 2.5-10.8-2.4-7.2.7-15.2-3-22.3-1.6-4.2-2.4-8.9-6-12.101 0 11.2 0 22.301-.1 33.5-.101 8.801-.5 9.2-10.301 10.4-9.699 1.9-19.5 3.4-29.5 2.201zm47.701 8.599c5.101 1.4 9.5-1.8 14.3-2.5 6.301-1.2 6.7 3 7.301 7.6 1.399 10.2-3.301 19-5.601 28.4 3.8 1.2 5.3-2.6 8.2-3.5 8.5-13.5 6.1-28 3.9-42.5-.9-.6-1.601-1.3-2.601-1.6-.399.3-.899.399-1.399.3-5.5 3.3-11.9 3.3-17.801 5.1-3.399 1-6.1 2.2-6.699 6.101-.5.799-.4 1.699.4 2.599zm27.7-17.9c9.6-3.5 10.6-4.8 10.6-15.199 0-4.301-.3-8.601-.399-12.9 1.5-4.5 3.399-11.3-4.2-14.1-1.9-.601-3.1-2.7-5.4-2.5 3.601 8.3 3.801 17.199 3.9 26 .2 12.8.2 12.8-11.9 16.399-5.1 2.4-10.3 4.101-16.1 3.801 1.1 4.6 4.4 3.899 7.7 3.199 4.1-.899 8.199-2 12.3-3 1.098-.7 2.299-1.3 3.499-1.7zm12.8-36.8c4.5-2.1 7.7-5.3 10.3-10.399-4-1.301-7.3-2.7-10.699-3.301-5.301-1-5.301 2.101-3.9 5.801 1.098 2.799.899 6.299 4.299 7.899zm-44.201 76.601c3.301-7.9 7.101-14 4.2-22.4-1.8-3-6.1-2.4-8.6-1.9-5 1.2-10.7 1-15.7 2.2-5.7 1.7-11.6.601-17.4.8-5.1.2-7.6 1.801-4.699 7.101 6.6-.7 13.199-1.5 19.8-2.2 3.5-2.8 7.6-1.4 11.5-1.8 3.3-.3 4.8 1.5 4.8 4.8-.1 12.4 2.1 25.3-7.8 35.5 9.5-4.402 13.7-12.002 13.899-22.101zm-132.5 18.099c2.2-4-1.199-6.9-2.1-10.2-4.4-16.3-1.3-20.399 15-19.5 2.7.101 5.2.7 7.8 1.301 3.3.5 6.601.699 9.601-1.301 2.3-3.6 1.8-6.5-2.301-8.3-14.6 0-28.899-2.9-43.399-4-1.2 10 1.199 19.8 1.6 29.7 3.6 5.201 7.799 9.701 13.799 12.3zm36.101-38c-.5 0-.9 0-1.4.1-4.1 8.5-4.7 17-.7 25.7 1.4 9 5.601 16 14 20.101-4.699-7.2-5.5-15.2-6.3-23.601-1.3-14.6-1.399-15.1 12.601-14.7 10.6-.399 21.199-.8 31.699.301 0-2.9 1.101-6.101-1.8-8.4-10.9 4.3-21.3 4.8-39.8 1.9-2.6-1.701-5.7 0-8.3-1.401z"/><path id="sd2" fill="#42423E" d="M1708.199 1246.2c-5.1 3.4-10.8 1.7-16.199 1.601-4.801-.101-6.7 1.6-5.9 6.3-3.5 7-.7 14.8-2.4 22l-.699.1h-.7c-2.101-5.399-1.3-10.899-.5-16.399 0-1.2 0-2.301.1-3.5-1.8-2.301-2.399-5-2.6-7.801 0-1 .5-1.699 1.3-2.199 9.098-.001 18.299-.102 27.598-.102zm23.401-2.5c-.5.101-1 .2-1.5.2-.4 8.1-3.4 16.1-1.9 24.4l3.7 3.699c0-8.699 0-17.3.1-26-.1-.698-.2-1.499-.4-2.299zm-107.8 4.601c2 2.199 2.399 4.899 2.1 7.8-3.8 6-4.1 12 .2 17.9 1.2 0 2.4.1 3.6.1.2-8.6.5-17.1.7-25.7-2.201-.001-4.4-.001-6.6-.1z"/><path id="cl1" fill="#C7C8BC" d="M1574.8 1283.301c-.3 21.5 4.399 43.1 3.3 64.6-32.4-8.8-64.7-17.6-97.1-26.4-2.601-.699-5-1.699-7.5-2.699-3.301-1.4-3.601-3.4-1.2-6.101 7.2-8.199 10-18.699 14.5-28.3 1.5-3.2.7-5.6-1.601-8.1-5.399-5.9-10.791-11.885-16.1-17.7-13.585-14.881-17.412-27.788-21.162-39.788-2.625-7.375-1.476-18.288 2.625-20.188.8 1 4.063 16.579 4.563 17.778 9.101 21.601 16.55 28.123 32.75 43.722 6.313 2.688 10.5 4.824 14 5.125 10.6 1.1 18.774 3.8 29.375 4.5 5.699.399 8.949 4.351 12.85 8.351 16.8 12.499 24.7 5.999 30.7 5.2zm33.399 86.299c24.601 1.7 49.775 4.999 74.176 1.899 16.7-2.2 45.784-14.772 53.584-29.322-1.301.2-14.359 4.123-15.46 4.723-11.199 5.6-23 7.9-35.6 7.3-14.6-.6-29 2.4-43.4 3.301-11.1.699-22.3 1.8-33.5.6.001 3.799.101 7.7.2 11.499zm-76.599-169.4c-1.3 5.5-2.2 11.101-3.1 16.7-.601 3.8-.101 7.3 2.8 10.1 4.6 4.601 23.1 7.101 29.899 4.101 1.2-9.7 6.5-19.3.9-29.2-1.5-4.7-4.1-8.9-7.3-12.7-7.7-9.3-16.3-11.2-24.9-5.2 2.701 5.199 3.101 10.499 1.701 16.199zm106-15.2c-4 3-7.2 6.7-9.5 11.101-2.3 12.8-1.2 25.6-.7 38.399.3 6.601 4.5 9.9 11.2 10.101 6.6.2 13.2.3 19.8-.101 3.101-.199 6.9.101 7.7-4.5-5.6 0-11.3-.1-16.9-.1-3 0-5.199-1.1-5.199-4.5-.101-14.2-1.101-28.5 2.699-42.4 1.801-6.699 4.9-8.5 13.301-9.1-7.701-6-15.201-4.3-22.401 1.1zm163.9-13.4c-5.7 14.3-15.2 26.2-24.4 37.399 0-1.8 1.5-4.699-2.9-5 .2 4.2.4 8.5.4 12.7 0 4.4-.8 9-4.6 11.3-5 3.101-5 7.101-3.801 11.801 26.801-16.5 38-41.5 39.4-71.9-2.499 0-3.4 1.901-4.099 3.7zm-212 50.8c.199-1.6.5-3.4-.101-4.9-2.5-7.1-1.2-14.5-1.3-21.699-.1-11.9.1-11.9 11.8-11.9-4.899-3.4-9.899-2.7-15-.6-7.3 3-12.899 7.8-17.2 14.3.601.9 1.4 1.2 2.5 1 7.301-1.6 7.4-1.6 7.601 5.1.2 5-.7 10.101.1 14.9s-4.3 10.7.7 14c3.8 2.5 9.5 2.3 14.4 3.2.899.199 2-.101 3-.2-7.801-4.001-7.801-3.901-6.5-13.201zm137.199 4.7c.5-11.8 1.601-23.8-2.5-35.3-6.3-9.801-11-11.4-22.3-7.801 8.7 3.101 11.9 7.301 12.1 16.9.2 11.6-.1 23.2-.1 34.8 8.401 2.501 12.401.201 12.8-8.599zm38.701-5.6c2.3-12.8 4.8-26.399-5.3-37.8-8-4.6-8-4.6-16.4 2.101 6.2 1.6 7.9 3.8 8.2 11.899.3 9.5.2 19 .2 28.4 5.599 1.5 12.3 1 13.3-4.6zm-295.6 12.801c9.7 17 25.399 24.6 43.8 28 1.6-.301 3.1-.601 6.7-1.301-19.7-6.1-37.601-11.8-48.3-29-1.9-.3-3.1 0-2.2 2.301zm283.8 48.599c-.2.3-.1.7.4 1.1 5.6.7 8 4.7 10.1 9.301 1.9 4.3 1.8 8.8 2.3 13.3 4.4-7.5 3.5-23.4-1.7-30.3-2.399-3.101-3.699-.7-5.1 1.199-.3 1-.9 1.801-1.8 2.2-.3 1.101-1.101 1.601-2.101 1.9-.5.2-1 .5-1.399.8-.3.1-.5.2-.7.5zm40.025-40.588c-2.9.3-23.825 9.388-24.926 11.188-.8 1.4 5.45 6.189 6.551 6.889 6.5-3.2 13.875-12.077 18.375-18.077zM1764.4 1269.9c.2.5 2.101 1.1 2.3.8 1.801-2.1 1.9-4.6.9-7.1-.1-.3-.4-.5-.8-.9-2.8 1.7-3.5 4.2-2.4 7.2zm-298.3-78.8c5.3 14.8 13.4 27.7 28.3 34.6 12.2 5.7 14.601 4 15.601-9.8-10.301.1-16.4-7.6-21.601-14.1-9.3-11.9-18.1-24.4-23.1-39.101-1.7-4.899-2.2-10.3-5.3-14.7-1 14.802 1.1 29.201 6.1 43.101zm109.9 63.4c.5-.8.5-1.699 0-2.6-5.601.1-11.101-.3-16.601-1.5-8.6-1.8-10.899.6-9 9.3 1.5 6.7 3.8 13.2 5.7 19.801 6.1 3 12 4.1 17.3-1.601.3-7.8-5.399-16.3 2.601-23.4zm58.6 6.7c-.6 11.7-1.7 24.3 9.1 33.101.801.399 1.601.899 2.4 1.399 2.6.9 5.2 1.7 7.8 2.601 2.101 0 4.101 0 6.2-.101 2.9-1 6.1-1.2 8-4.2h-4.9c-11.199 0-13.1-1.8-13.199-13.3-.101-8.2 0-16.5.1-24.7-8.801-3.5-15.101-2-15.501 5.2zm77.3 30.5c.8-.399 1.4-1.3 2.4-1.399 11.899-8.5 11.2-20.801 10.399-33.2-.199-3.7-.899-7.9-5.199-8.7-4.801-.9-10.5-3-13.7 3.4 2 .5 4 1.199 4 3.6.1 8.5 1 17.1-.601 25.6-1 5.301-3 10.301-9.5 11.101 4.201 2.898 8.201 1.798 12.201-.402zm29.799-29.899c-.5 5.899-2.1 10.1-7.8 12.199 3.4 5 8.3 6.2 13.9 5.801 4.899-4.4 7.199-10.101 7.699-16.5.4-5.601.5-11.2.2-16.7-.4-6.6-2.4-7.4-9.8-4.8-3.898 6.099-3.598 13.299-4.199 20zM1602 1289.9c1.3 0 2.699-.1 4-.1 1.899-5.101.899-10.4.6-15.601-.6-8.399 1.6-14.699 9.6-18.3-7.3-4-15.6-.6-23.199-2.9-1.801-.6-2.9 1.301-2.9 3.101 0 10.399-1.7 21.2 5.7 30.3 1.999 1.2 4.099 2.3 6.199 3.5z"/><path id="hl1" fill="#E7E6E2" d="M1607.9 1358.1c-9.399-4.9-20.1-6.2-29.8-10.2-1.6-1.8-2.8-3.9-2.7-6.2.8-18.5-4.1-36.899-1.8-55.399 1.9-6.7 6.2-6.601 11.2-3.9 3.899 4.1 9.8 9.6 15.3 10.8 7.9 3.301 15.9 0 22.3-4.8 5-3.8 6.601-4.6 10.3.7 3.801 5.399 9.7 9.899 15.5 12.3 5.5 1.8 13 .4 18.601-1.6 13.3-10.101 13.399-13.301 30.6-4.601 8.9 5.801 21.101-.8 27.7-9.3 4.5-5.8 7.5-9 14.5-5.2 4 2.2 8.2 3.101 12.5 2.9 2.6-.7.9-.8 3.5-1.8 11.2 5.899 13.9 12 10.9 24.699-.9 1.601-1.801 3.2-2.601 4.801-6.899 13.324-19.592 20.913-31.092 31.713-1.6.9-6.708 2.187-8.308 3.087-11.801 8.2-24.801 11.2-39.301 11-21.8-.3-43.399 4-65.3 4.2-4.599.1-8.799.501-11.999-3.2zm36.299-165.5c-2.899 8.2-3.3 16.899-3.3 25.5 0 24.5 0 24.5 24.4 24.7 4.899-.2 9.899.5 14.6-1.601 2.5-2.399.2-3.399 1.4-8.6-.301-5.5 3.6-18.601-1.301-24.601-5.199-9.199-10.1-18.699-20-24-8.598-3.398-13.198 1.102-15.799 8.602zm37.801 29.6c1.1 5.4.3 11 1.899 16.4 10.601 3.899 20.8 3 30.7-2.3 4.1-14.2 3.2-28.601.6-42.801-1.199-6.399-5.399-11.3-13.399-9.5-4 .2-6.7 2.801-9.301 5.301-5.3 5.1-7 11.899-8.699 18.699-3 4.401-1.4 9.401-1.8 14.201zm-96.801-27.3c-.699 9.3 1.4 18.5.801 27.6-.601 8.301 2.1 13.4 10.199 15.4 7.5.1 15.101 5.1 22.601.1 2.5-3.899 1.8-8.3 2-12.5 0-7.3.399-14.699-2.601-21.699-4.1-8.4-8.8-16.2-18.199-19.801-12.801-2.1-13.9-1.1-14.801 10.9zm-74.399 1.8c-6.3-3.399-12.5-8.399-18-14.1-12.3-12.8-24.8-31.8-32.9-47.5-4.5.899-.6 8.8-.1 11.1 0 .601 0 1.2.1 1.8 4 26.301 17.101 47.5 36.8 64.9 3.601 3.2 7.7 6.9 13.2 3.1 2.2-5.199 1.3-10.699 2.101-16.1-.601-.7-.501-2.599-1.201-3.2zm220.6 16.2c1.601 6.3-.7 13.8 5.7 18.5 6.8.9 13.2.6 17-6.4 1.6-10.1 1.5-20.3.1-30.399-.8-5.2-1.899-12-10.5-8.7-4.899 2.7-7 7.8-10 12.1-.7 4.999-2.7 9.699-2.3 14.899zm75-48.8c.4-1.9-.399-2.601-2.3-2-7.7 12.3-16.1 23.899-27.6 33.1-.5 5.601-3.2 5.5-2.4 8.8 2.8 1.301.8 5.101 3.7 6.801 12.5-12.2 21.1-26.9 27.699-42.9.301-1.201.601-2.501.901-3.801zm-122.9 95.201c-.2-1.9-.7-3.601-2.5-4.7-10.7-2.1-21.301-3.6-31.7 1.2-4 7.199-2.3 14.899-2.3 22.5.1 16.399 5.199 20 21 15.8 6.1-3.7 11-8.3 12.199-15.8 3.301-6 2.201-12.701 3.301-19zm26.9 26.5c3.9-9.9 3.101-20.2 1.7-30.5-.4-2.801-2.4-4.601-5.3-5.4-7.5-1.2-14.601.7-21.5 3.4-4 7.3-4.5 14.899-1.7 22.8 1.9 8.8 6.3 15.1 16.1 16 5.999 1.899 8.9-1.901 10.7-6.3zm21.6-39.701c-2.5 8.6-3.2 17.3-.101 26l2 2c8.601 1.7 10 1.3 9.9-4.4-.3-9.399 3.2-18.399 2.1-27.8-4.799.5-9.499 1.8-13.899 4.2zm-163.301 12.201c1 5.3 1.101 10.399 1.301 15.699.1 2.4 1.3 3.601 3.5 4 2.399-1.3 3-4 4.6-5.899-1.1-6 1-12.3-1.7-18.2-3 .799-8.8-1.6-7.701 4.4zM1608 1289.7c1.399-.899 3.1-.899 4.699-1.3 8.2-1.3 11.101-7.5 13.4-14.4-.4-6 1-11.899-.2-17.899-3.3-.101-6.5-.101-9.8-.2-2.6.3-5.2.4-7.7 1.1-2.2.601-4.399 2-4.3 4.7.5 9.4-2.3 18.9 1.9 28.101.7-.001 1.301-.102 2.001-.102z"/><path id="sd1" fill="#353532" d="M1559.9 1233.9c-.1-.7-.2-1.4-.2-2.1.801-10 1.7-19.9 2.5-29.9l3.301-2.1c.8 11.5-1.9 22.899-1.9 34.399-1.201-.099-2.402-.199-3.701-.299zm62.1-25.9c-.5 0-1.101-.1-1.601-.1-3.3 5.8.3 12.4-2.1 18.3-.2 3.9-.4 7.7-.601 11.601.101.8.301 1.5.4 2.3 1.5.5 3.4 2.8 4.9 3.3-2.299-11.201-.098-24.201-.998-35.401zm111.699-10c-2.6 1.101-1.199 4.601-3.6 5.9-.1 7.5.7 16.9 3.5 24.2 1.1-4-3.2-10.4.2-14 .001-5.4.001-10.799-.1-16.1zM1680 1208c1.1 6.801-.601 13.801 1.699 20.4 2.4-1.5.4-4.5 2-6.3 0-4.7.101-9.5.101-14.2-1.2 0-2.5.1-3.8.1zm-101.9 64c1.3.7 2.6 1.301 3.9 2 3.5-9.899-2.7-18.899-1.601-29.699-1.5-.101-2-.101-3.5-.2.101 2.6-.899 5.2-.899 7.8.399.601.6 1.2.3 1.9 3.2 9.699.5 11.5 1.8 18.199z"/><path fill="none" stroke="#000" stroke-miterlimit="10" stroke-width="6" d="M1533.699 1267.7c-50-2-61-17-74.8-48.7-13.8-31.699 0-92 0-92 20.9 56.301 59.5 70.301 59.5 70.301m-65.499-8.5s-27.899 5.199-39.6 11.8c-11.7 6.7-34 15.7-38.7 16.7s-16.916-.898-16.916-.898 30.616 62.898 34.916 79.498c9.2 10.3 69.4 40.2 78.8 43.5 6.8 7.1 134.5 33.5 134.5 33.5s87.9 3.1 96-5.1c14.101-7.9 61-46.601 65.4-56.9 4.3-10.3 7.3-25.7 0-37 3.3-4 6.8-12 6.8-12s13.2-6.8 19.6-16.4c6.4-9.6 12.7-9.6 18.101-103.199 3.1-5.4-16.5 29.6-23.9 36.6-2.1 1.4-20.3-5.3-20.3-5.3s-5 3-2.3 9.3c0 0-17-20-34.7 15-15.3-37.7-48-8.7-49.3 6.7 0 0-31-60-61 0-4.2-14.7-27.3-45.3-57-7.3 2.7-3.301-26.3-41.7-45 0"/></svg>