<svg xmlns="http://www.w3.org/2000/svg" id="mouth" viewBox="0 0 3000 3000"><path id="cl2" fill="#040000" d="M1425 1192.301l-49.801 22-18.866.352s35.267 76.148 36.267 80.849c1 4.699 68.7 37.699 68.7 37.699s124.3 36.7 142.699 37.301c18.301.699 81.5 2.3 93.7-6.301 12.3-8.699 62.5-41.699 67.9-56.3 5.399-14.7 5.6-25.8 1.399-32.7-1.1-3 4.301-13.8 4.301-13.8s28.699-16.4 32.699-29.3c4-12.9 24.7-62.9 18.301-110.9-20.301 25.3-46.101 52-56.7 58.7-17.6-12.2-25.9-4.1-35.8 13.6-18.301-31.3-44.101-14.6-50.801 8.4-16.3-41-47.1-31.6-59.899-3.6-21.5-35.101-44.7-21.4-58-4 0-20.101-32.301-27.101-41.9-9.301"/><path id="sd2" fill="#86877F" d="M1606.334 1368.59c-16.5-2.2-33-5.557-49-9.757-25.4-6.6-50.529-13.204-75.929-20.003-13-3.5-26.098-8.261-37.797-14.661-14.9-8.2-29.205-15.325-44.005-23.525-3.5-1.9-6.003-8.543-7.703-12.743-9.7-24.4-24.85-48.194-36.55-71.994 5.6-1.601 14.851.694 19.95-1.806 5.15-.134 8.5-2.967 13.2-4.767 10.5-4.2 18.132-9.733 28.733-13.833 2.3-.899 7.167-3.933 9.767-1.333 3 2 5.5 8.734 6.399 11.934 5.5 19.3 16.9 34 33.9 44.6 2.5 1.5 10.7 5.6 12.2 8.3 1.7 4-1.601 5.5 1.6 8.301 7.8 6.8 8.2 14.5 3.8 23.3-2.5 5.1-4.3 10.5-7.5 15.2-4.3 6.5-2 9.3 4.7 11.199 18.9 5.301 37.9 10.2 56.9 15.301 12.899 3.399 25.5 7.699 38.399 11 10.4 3.8 22.4 3.699 30.5 13 1.402 4.097 1.636 8.887-1.564 12.287zM1505.199 1207c-3.3 13.4-4.1 13.9-16.6 9.601-20.2-7-32.9-22-41.7-40.5-9.6-20.101-12.899-41.7-11.8-64 .3-4-1.8-7.8-1.4-11.8 0-1.4-.6-2.9-1.899-3.2-1.8-.5-1.8 1.2-1.9 2.5-.2 3.6-.6 7.3-.7 10.899-.699 23.9-4.399 48.5-.899 72.4 2.899 9.5 4.2 19.1 8.7 28.3 11 22.5 27.669 41.017 51.369 49.316 7.2 2.5 40.53 10.984 41.431 11.384 8 .7 8.275-3.351 6.075-9.65-2.399-6.801-5.325-13.825-7.625-20.625-3-8.9-7.551-13.725-16.45-15.324-2.9-2.9-1.4-6.101-.7-9.301 1.7-8.399 3.5-16.899 5-25.3.8-4.6-.3-8.1-6.2-7.2-2.401 1.5-4.601 21.5-4.702 22.5zm294.301 30.916c3.5-4.101 4.8-12.417 6.699-17.417 10.801-27.8 16.101-56.699 15.601-86.6-.9-.5-1.7-.5-2.601.1-.6.7-1.1 1.5-1.5 2.4-.399 1.4-.5 2.8-.6 4.2 0 3.2-.1 6.399-1.7 9.3-1.899 4.9-3.3 10-4.399 15.2-6 28.7-24.5 48.2-47.101 64.8l.3 24c-.616 23.934 24.501-8.483 35.301-15.983zm-205.5-4.115c-13.101-3.101-15-5.301-14.801-18.301 0-3.899.2-7.899-.199-11.8-.9-9.899-4.899-12.65-14.5-8.95-.8.699-.4 2.45-1.2 3.15-1.5 12-6.301 23.9-1.2 36.1 16.3 6.2 33.4 5.5 50.3 5.9 2.2 0 3.5-1.5 3.3-3.9-7.2-.8-14.4-1.5-21.7-2.199zm-35.6-2.601c.101-.5-.1-.899-.6-1.399-7.7.1-14.9-2.4-22.3-4-6.101-1.301-7.5-3.801-6.4-10 1.4-7.801 2.8-15.601 4.4-23.301 1.399-7.199-.267-10.766-7.167-14.167-6.3 1.9-4.934 11.067-6.134 16.167-1.6 7.101-3 14.2-4.399 21.4.1 8.9.199 8.8 8.199 11.6 8.5 3 17.601 3.601 26.301 5.7 2.699.7 5.3-.3 7.699-1.3.101.1.301-.2.401-.7zm61.299-19.399c-2.899 8.8-2.399 17.6 0 26.399 7.301 5.2 15.9 4.9 24.2 6 5.4 1 19.4.2 28.9.5 2.3-.6 4.3-1.699 5.5-3.899.5-1.2.3-2.2-.5-3.101-4.5.101-9 .301-13.601.4-5.899 3-12.3 2.1-18.399 1.9-20.7-.5-17.601.1-17.9-17.7-.2-9.5 2.166-25.267-1.534-34.467-4.899 4.999-6.365 17.367-6.666 23.968zm102.5-22.101c0 11.101 0 22.3-.1 33.4-.1 8.8-.6 9.2-10.3 10.5-9.801 1.899-19.601 3.3-29.601 2.2-.899.699-.899 1.399-.3 2.199 14.2 5 27.9 1.5 41.5-2.6 4.8-1.5 7-5.3 6.3-10.8-1-8.2-.267-18.528.134-26.829-2.399-3.197-4.032-5.57-7.633-8.07zm7.5 54.601c2.7 1.5 5.4.5 8-.2 1.7-.5 3.301-1.2 5-1.4.9-.1 1.7-.199 2.601-.399 6.8 1 5.3 6.399 5.199 10.699 0 8.5-3.8 16.4-4.6 24.801 5.1 1 6.6-4.101 10-5.9 5.4-11.4 3.5-23.7 3.9-35.7.1-3.699-2.7-4.8-5.7-5.6-1.5-.6-1.9-.4-3.6 0-.601.5-2 .9-2.4 1.5-3.5 2.7-7.9 2.5-11.8 3.6-3.5.9-5.9 2.301-6.601 6-.598.898-.598 1.698.001 2.599zM1751 1229.5c1.5-.5 1.899-.199 3.1-1.3 11.5-3.5 15-11.6 13.6-22.8-.6-4.6-1-9.1-1.399-13.7-.1-11.117-6.2-13.867-11.3-15.367 5 10.5 6.8 27.167 7.3 38.167.199 4.7-1.4 7.5-6.301 8.101-1.899.2-3.8 1-5.6 1.6-1.2 1-3 .601-4.2 1.7-.6.2-1.199.3-1.8.3-2.6 1.7-7.3-1.2-8.7 2.9 4.101 4 8.5 0 12.5 1 1.9-.201 1.9-.401 2.8-.601zm-198 32.9c-1.801-9.6-1.2-10.4 8.3-9.9 4.8.2 10 1.601 13.899-2.8 1.4-2.8.9-5.399-1.3-7.6-14.2-3.4-28.7-4.5-44.7-7.2 3.801 10.7 7.2 19.9 10.5 29.2 2.5 7.1 7.101 11.8 14.601 13.6 3.2-5.399-.4-10.3-1.3-15.3zm40.699 15.5c-5.8-22.6-3.6-26 21-21.4 3.4.4 6.7.4 9.601-1.899 2.3-3.7 1.699-6.601-2.5-8.4-14.601-.2-28.9-2.899-43.4-4-5.3 10.2-3.9 20.101 1.6 29.7 3.5 5.3 7.7 9.9 13.601 12.4 1.999-2 .699-4.201.098-6.401zm45-8.2c-.399-11.7-.699-12 11.801-12.399 10.1-.101 20.5 2.8 30.199-2.801 2.101-3.8 2.301-7.1-2.199-9.399-13.4 2.5-25.7 1.1-38.601 1.899-3.3-.199-6.7.601-10-.6-.5-.1-1 0-1.399.1-4.2 9.101-4.9 18.301-.5 27.601 1.5 7.7 5.067 15.419 12 18.1.652.252 8.446 2.634 9.047 2.634 1.1-7.801-10.147-17.435-10.348-25.135zm87.5-3.399c3.601-7.9 5.301-16 1.9-24.4-1.9-2.9-4.4-1.8-6.9-1.2-5 1.2-10 2.4-15.1 3.601-5.8 1.6-11.6.5-17.4.8-5.1.2-7.6 1.8-4.699 7.1 6.6-.8 13.199-1.5 19.8-2.3 3.899-2.6 8.2-1.5 12.399-1.7 2.301-.1 3.801 1.4 3.801 3.601.1 13.6 2.899 27.899-10.2 38 10.899-4.103 16.1-12.103 16.399-23.502z"/><path id="hl1" fill="#E7E6E2" d="M1605.9 1356.1c-9.399-4.9-20.1-6.2-29.8-10.2-1.9-2-3.5-4.3-3.4-7 .601-18.3-4.3-36.4-1.6-54.7.2-1.1.6-2.199 1.2-3.199 4.1-4.7 8 .5 12.1 3 4.2 2.5 8 5.699 13.1 6.5 6.601 2.899 15.7.5 21.301-3.601 6.699-4.899 8.199-5 12.899 3 1.2 2 3.4 3 5.5 4 2.5 2.2 7 4.4 10.301 5 5.5 1.601 13.399.4 18.8-1.899 9.8-9.5 14.6-11.2 27.899-2.601 8.9 5.801 23.5-.899 30.101-9.3 4.6-5.9 6.8-10.2 13.7-6.7 5 2.5 9.5 3.601 15.699 1.101 11.7 5.899 14.7 13.399 10.5 26.1-8.032 21.316-25.899 27.6-41.5 38.6-12.399 8.601-25.899 11.9-41.199 11.801-20.9-.101-41.601 3.5-62.5 4-5.201.098-9.802.198-13.101-3.902zm35.799-164.9c-2.5 7.601-3.399 15.5-3.6 23.5-.4 26-.3 26.2 25.2 26.3 5-.3 10.1.7 14.8-1.5 4.9-3.3 4.8-8.3 4.2-13.3-3.101-6.399 1.083-15.983-4.217-21.783-2.649-9.267-6.242-19.511-16.242-24.811-9.898-1.8-17.04 2.394-20.141 11.594zm-139.399-6.8c-23.8-17.5-43.101-39.2-58.2-64.5-3.5-6.5-6.9-13.1-10.4-19.6-3.199 3.5-1.5 7.8-1.699 11.699 2.3 17.4 9.1 33 18.8 47.301 12.1 17.8 24.1 35.899 44.2 46.1 4 2 8.3 6.7 12.899.6.2-.6.3-1.199.4-1.8 1.7-2.5-.2-5.7 1.6-8.2v-3.899c-1.5-3.601-4.701-5.501-7.6-7.701zm177.7 35.8c1.1 5.4.3 11.101 1.899 16.5 10.7 4.101 20.9 3.101 30.9-2.2 5-14.8 4-29.699.399-44.399-1.5-6.2-6.683-12.45-13.782-10.851-4 .2-8.526 3.398-11.126 5.898-5.301 5.1-5.675 10.469-7.375 17.269-2.999 4.4-.515 12.983-.915 17.783zm-97.7-26c-.4 8.9 1.2 17.7.7 26.601-.4 7.5 2.399 12.699 9.8 15.1 7.5.5 14.899 4.2 22.6 1.5 1-.7 1.8-1.5 2.4-2.6 1.7-4.601.899-9.301 1.1-14-.399-6.4-.866-15.15-1.566-21.551-4.1-8.399-7.766-15.667-17.166-19.167-13.201-2.099-17.268 1.218-17.868 14.117zm236.5-55c.2-1.1.2-2.3.899-3.3l.601-1.8c.8-1.9 1.6-3.8-1.7-3.8-9.4 10.699-16.8 23-27.7 32.6-6.3 5.5-13.3 10-19.6 15.3-1.7 1.4-4.5 2.5-2.9 5.4 2.5 4.5 1.2 9.899 3.601 14.399 4.199-.1 6.3-3.399 8.899-5.8 16.2-14.7 28-32.6 37.101-52.3.299-.199.499-.399.799-.699zm-86.3 88.3c3.399 3 7.199.9 10.899 1.101 1.101-.2 2.101-.5 3.101-.9 2.1-1 3.899-2.2 5.199-4.2.601-1 1-2.1 1.2-3.199 1.2-9.301 1.5-18.7-.2-27.9-1-5.4-3.616-15.784-12.116-12.483-4.4 2.199-7.333 6.667-8.184 14.083-3.999 11.898-1.899 21.398.101 33.498zm-88.2 49.4c.3 15.8 6 19.5 21.7 15.1 6.1-3.699 11-8.3 12.199-15.8 3.5-5.399 2.2-11.7 3.4-17.5 0-1.7-.4-3.3-1.9-4.399-10.6-1.101-21.1-.801-31.699-.2-5.801 6.799-3.9 14.999-3.7 22.799zm62.3 10.7c7.2-7.3 6.8-31.9-.6-39.601-7-2.199-13.601.7-20.301 1.801-1 .5-1.899 1.199-2.699 2-1.101 2-1.7 4.1-2.101 6.3-1 5.4-1.899 10.8.8 16 1.9 8.8 6.301 15.1 16.101 16 3.6 1.8 6.399-.2 8.8-2.5zm35.4-47.4c-1.2 1.101-3 .7-4.301 1.601-2.699.199-5.3.8-7.6 2.399-2.7 8.601-3.2 17.2-.1 25.9l2 2c8.6.899 10.1.399 9.8-5.3-.4-9.101 2.8-17.801 2.2-26.801-.699-.099-1.3.001-1.999.201zm-127.9 13.7c-5.1-1.7-9.9-1.3-13.4 3-4.899 6-2.699 25 3.301 30.9 10.699-.101 17.399-5.4 20.1-15.801-.4-6 1-12-.2-17.899-3.301-.1-6.501-.1-9.801-.2zm-46.5 6.3c.4 3.5.4 7.2.4 10.7 0 2.6.8 4.5 3.6 5 2.4-1.3 3-4 4.6-5.9-1.199-6 1-12.3-1.699-18.199-8.001 1.099-7.802 1-6.901 8.399z"/><path id="cl1" fill="#C7C8BC" d="M1605.9 1356.1c11.2 1.5 22.4.2 33.5-.7 14.101-1.2 28.3-3 42.5-3.1 12.9 0 25-1.7 36.601-7.4 1.1-.6 2.6-.5 3.899-.7-11.7 11.5-24.226 22.035-40.526 24.334-24.699 3.399-50.674.866-75.573-.834-.201-3.899-.301-7.8-.401-11.6zm-78.8-147.799c-1.2 6.6-3.6 14.5 3.7 18 8.8 4.199 18.5 9.6 28.8 2.899 1.2-10.399 1.983-23.7 1.983-33.533-3.583-6.417-2.149-8.784-4.749-12.083-7.7-9.6-19.988-10.062-28.488-4.161 3.1 8.899.254 20.177-1.246 28.878zm291.7-67.201c-5.4-2.601-5.8 2.5-7.101 5.1-7.1 13.601-15.5 26.2-26.3 37.3-4.6 4.7-10 8.801-13.399 14.601-.9 11.1 2.3 23.2-8 32 2 .3 4.1.2 5.699-1.101 12.301-9.1 23.7-19.1 32-32.3 9-14.3 12.4-30.6 16.4-46.7 1.6-2.8.701-5.9.701-8.9zm-183.3 37.817c-4 3-6.734 6.183-9.135 10.583-2.2 9.399-2.266 23.601-2.166 33.101.101 16.899 1.301 18 18.601 19.6 4.6.4 9.2 1.116 13.8.7 3.201-.289 8.737-.017 9.771-1.958-5.3 0-11.496-1.192-17.972-2.742-3.9 0-6.3-1.3-6.4-5.6-.1-13.5-.8-27 2.9-40.3 2.4-8.4 8.484-11.333 17.684-12.134-7.699-6.1-19.883-6.65-27.083-1.25zm-49.301 46.283c2.101-10.8-.899-21.5-.3-32.3.7-10.7.2-10.7 11-10.7.3 0 2.968-2.117 3.268-2.117-4.9-3.4-12.567-2.85-17.667-.75-7.3 2.9-13.7 8.917-18 15.417.7.8 2.699 2.15 3.8 1.95 7.199-1.3 7.3-1.3 7.6 5.301.2 4.6 1.038 9.343.1 13.899-.999 4.85-3.31 10.561.9 14.9 3.372 3.476 6.69 5.69 12.291 5.591.3 0 6.884.608 7.185.608-3.201-2.499-11.276-5.999-10.177-11.799zm139.201-1.399c0-11.4 4.018-24.034.018-35.134-6.3-9.8-16.87-12.617-28.27-9.018 8.7 3.2 14.552 9.452 14.752 19.152.2 11.6-.1 23.199-.1 34.8 8.6 2.999 13.6-.101 13.6-9.8zm37.9-4.5c2.7-12.801 6.268-27.467-3.133-38.967-5.366-8.783-13.997-5.862-22.297.838 6.2 1.9 11.729 6.529 12.029 14.029.4 9.601.2 19.301.3 29 5.601 1.499 11.901.899 13.101-4.9zm-253.4-35c-1.3-1.101-2.399-2.301-3.8-3.101-15.8-9.3-29-21.399-41.2-35.1-7.5-8.4-13-18.2-20.8-26.1.3 4.5 2.6 8.3 5.1 11.699 4.301 6.2 9.2 12.101 14 18.101 13.301 16.699 27.2 32.6 46.7 42.399-.1-2.699 0-5.299 0-7.898zm250 103.399c3.5 5.5 4.601 11.4 3.9 17.8 5.2-7.699 7.971-32.872 1.871-38.372-1.1-1-6.571 6.272-7.771 6.772-.8 3.6-4.6 3.6-6.399 6.4 3.999.501 6.399 4.3 8.399 7.4zm13.433-29.034c10.699-4.5 21.486-13.386 27.887-23.386-1.2-1.4-5.32-1.979-6.521-1.08-8.6 6.7-16.6 14.3-27.699 17-1.101.3-1.801 1.9-2.7 2.9-.634 11.233 6.833 5.566 9.033 4.566zM1471.9 1261.2c3.4 4.101 6.7 8.3 10.4 12.101 2.899 3 4 5.699 2.1 9.8-4.3 9.3-7.1 19.5-14 27.399-3.1 3.5-1.399 5.5 2 6.601 6.3 2.1 12.7 4 19.101 5.7 28.199 7.699 56.399 15.399 84.6 23 1.1-21.5-4.2-43.2-4-64.7-7.7 3.8-10.6 3.399-16.8 1.2-10.601-2.9-19.801-10.101-31.2-10.601-18.3-.8-35.1-7.1-51.8-13.899-1.401 1.099-1.401 2.199-.401 3.399zm-29.3-86.8c9.9 22.4 24.9 40 49.8 46.9 11 3.1 12.4 2.6 15-8.4.5-2.2.3-4.6.4-6.9-4.9 2.5-8.2-1.3-11.8-3.3-13.101-7.1-23.2-17.399-31.801-29.5-8.1-11.399-16-22.7-21.8-35.6-3.8-8.4-5.7-17.601-10.4-25.601-1.199 21.601 1.801 42.601 10.601 62.401zm64.442 91.017c2 .199 4.657 1.083 4.758-3.116-7.5-2.5-15.101-4.9-22.601-7.5-22.6-8-39-22.9-49.5-44.4-1.399.9-1.5 2.4-1.899 3.8 13.3 30.299 38.242 45.516 69.242 51.216zM1560 1280.2c3.399-.7 6.699-1.3 10.1-2 .5-.7 1-1.5 1.5-2.2.4-7.8-4-16.199 2.6-23.3.4-.899.301-1.8-.1-2.6-5.6.2-11.1-.4-16.6-1.5-8.801-1.7-10.9.5-8.9 9.3 1.4 6.7 3.7 13.2 5.6 19.8 1.9.8 3.8 1.601 5.8 2.5zm82.1-26.399c-5.1-.4-8 2.6-7.4 7 1.301 10.6-.1 22 7.301 31.199.699.7 1.399 1.101 2.3 1.5 3.2.9 6.5 1.801 9.7 2.801h4.1c2.9-1 6.1-1.301 8-4.2h-4.9c-11.1 0-13.1-2-13.199-13.4-.101-8.199 0-16.399.1-24.699-2.102-.102-4.102-.102-6.002-.201zm67.8 35.899c14-7.6 13.7-20.7 13.101-33.899-.2-4.2-.801-8.7-5.4-9.601-4.8-.899-10.6-2.8-13.8 3.601 1.899.6 3.899 1.399 3.899 3.699 0 9.101 1.301 18.301-1.1 27.4-1.3 4.9-3.7 8.3-8.9 9.2 4.2 2.9 8.2 1.701 12.2-.4zm29.2-30.899c-.2 5.899-2.5 10-7.1 13.199 3.399 4.9 8.3 6.2 14 5.801 9.3-10 7.699-22.4 7.199-34.4-.199-5.2-2.6-5.6-9.1-3.4-4.799 5.399-4.699 12.399-4.999 18.8zm-148.2-7.701c-2.399-.5-3 2-3 4.1 0 10.101-1.3 20.5 5.7 29.2 2.1 1.2 4.2 2.3 6.3 3.5 1.3 0 2.7-.1 4-.1-4-9.101-1.5-18.601-1.8-28-.1-2.601 2-4.101 4.3-4.801 2.5-.699 5.101-.8 7.7-1.199-7.401-3.499-15.5-.9-23.2-2.7z"/><path id="sd2" fill="#232321" d="M1558 1232c-.101-.699-.101-1.399-.2-2.1.7-10.6 2.084-21.399 2.784-32.1 1.1-.1 1.716.1 2.815 0 .5 12.1-2.6 24-1.2 36.1-1.399-.599-2.799-1.3-4.199-1.9zm119.699 5.801c0 .699.101 1.399.101 2.199 1.399-.6 2.699-1.3 4.1-1.899.1-.7.2-1.5.3-2.2-.199-5.2-.3-10.4-.5-15.7-1.8 1.7-2.072-.238-2.973 1.762-.8 3.698.228 10.119-1.028 15.838zM1576.1 1270c1.3.7 2.6 1.301 3.9 2-.5-9.899-2.601-19.699-1.601-29.699-1.5-.101-3-.101-4.5-.2.101 2.6.101 5.2.2 7.9.5.6.6 1.199.3 1.899-2.2 6.3-3.399 12.5 1.701 18.1z"/><path id="sd1" fill="#434440" d="M1621.416 1198.583c1 8.8-1.616 30.817-1.717 39.617-1.199-.699-2.399-1.399-3.6-2.199.1-4.601.1-9.301.2-13.9.616-6.351 1.533-14.767 1.033-22.851.402.1 3.685-.667 4.084-.667zM1678 1206c1.1 6.801-.5 13.801 1.699 20.4 2.4-1.5.4-4.5 2-6.3 0-4.7-.283-12.067-.283-16.767-1.2 0-2.116 2.667-3.416 2.667zm84.8 62.2c.2.4 1.399.7 1.6.5 2.2-1.899 2.101-4.3 1.2-6.8-.1-.2-.4-.4-.8-.7-3.2 1.601-3.5 4-2 7zm-141-21.899c2 2.3 2.3 5 2.1 7.8-4.399 6-4.899 12 .2 17.9 1.3.699 2.5 1.399 3.8 2 .2-9.2.3-18.4.5-27.601-2.201 0-4.4 0-6.6-.099zm56.6-1.901c-.2.5-.399 1-.5 1.5 2.7 2.4 1.8 5.5 1.8 8.4 0 1.199 0 2.3-.1 3.5-.8 5.5-1.6 11 .5 16.399h.7l.7-.1c.199-5.9.5-11.8.699-17.8.7-1.4.301-3.2 1.7-4.301-.7-4.6 1.3-6.3 6-6.199 5.4.1 11 1.6 16.1-1.601-9.099.103-18.3.103-27.599.202zm51.2-2.7c-.5 0-1 .101-1.5.2-.5 8.2-3.3 16.1-1.9 24.4l3.7 3.699c0-8.6.1-17.3.1-25.899-.1-.799-.2-1.6-.4-2.4z"/><path fill="none" stroke="#000" stroke-miterlimit="10" stroke-width="6" d="M1539.3 1272c-72.5-2.1-99.3-45.699-109.7-76-10.3-30.399.1-104.3.1-104.3 50.5 86.5 92.384 94.3 92.384 94.3m-95.385 5.301l-51.399 22.8-20.538.598s36.937 75.902 37.937 80.603 68.7 37.7 68.7 37.7 124.3 36.699 142.7 37.3c18.3.7 81.5 2.3 93.699-6.3 12.301-8.7 62.5-41.7 67.9-56.301 5.4-14.699 5.6-25.8 1.4-32.699-1.101-3 4.3-13.801 4.3-13.801s28.7-16.399 32.7-29.3 24.699-62.9 18.3-110.9c-20.3 25.301-46.1 52-56.7 58.7-17.6-12.2-25.899-4.1-35.8 13.601-18.3-31.301-44.1-14.601-50.8 8.399-16.301-41-47.101-31.6-59.9-3.6-21.5-35.101-43.4-21.601-56.6-4.2-4.7-22.8-33.601-26.9-43.2-9.1"/></svg>