<svg xmlns="http://www.w3.org/2000/svg" id="mouth" viewBox="0 0 3000 3000"><path id="cl2" fill="#232121" stroke="#040000" stroke-miterlimit="10" stroke-width="6" d="M1512 1206.9s-12.102.3-36-20.8c-30.9-7.4-97.802 26.3-97.802 26.3s-12.032 2.298-24.532-1.566c-5 1.8 35.434 62.267 37.434 86.566 16.5 16.9 109 50.8 109 50.8l109.699 25.802s62.5 4.5 81.301-2.802c18.8-7.3 78.199-55.398 80.8-61.5 2.601-6.1-4-35.8-4-35.8l22.9-96.5-22.602-7.1-2.698 9.898s-26.102-10.698-33.7 17.2c-8-23.3-40.3-24.7-50.3 6-15.302-31.3-45-33.8-60.302-3.2-3.5-16.398-35.8-32.8-55.698-2.8-17.5-23.698-36.5-34.698-53.5 9.502z"/><path id="hl2" fill="#444141" d="M1515.5 1264.2c-2.602 1.602-4.102 0-5.602.102-12.3 1.398-20.5-5.4-28.2-13.7-5.398-5.9-12-10.7-16.698-17-9-12-9-12.4 4.398-19.2 2-1 4.4-1.5 6.602-2.2 8.6-2.8 16.898.2 20.198 8.602 3.2 8 7.102 15.5 11.602 22.8 3.8 6.198 5.8 13.296 7.7 20.596z"/><path id="sd4" fill="#31312F" d="M1681.3 1228.4c.2-1.3.5-2.7.7-4 .198-1.1.6-1.3 1.3-.3.1 4.6.3 9.2.398 13.8-.1.7-.198 1.5-.198 2.2-1.4.6-2.802 1.3-4.2 1.899 0-.699-.101-1.399-.101-2.199 2.801-3.4 1.401-7.6 2.101-11.4zm1.8-11.3c-2.1 1.8-1.4 5-1.1 7.3.398-.2.898-.3 1.3-.3 0-2-.2-5-.2-7zm-105.6 54.702c1.3.698 2.6 1.3 3.898 2 4-10.102 1.2-19.802-1.7-29.5-1.5-.102-3-.102-4.5-.2.102 2.6.102 5.2.2 7.8.4.602.5 1.2.3 1.9-1.198 6.198-2.598 12.398 1.802 18zm102-23.902c-.2.5.1-.5 0 0-.602 3-.5 6-.602 9.1-.1 1.602-.2 3.2-.1 4.802.5 4.898-1.4 10.3 2.898 14.398h.7l.7-.1c4.9-6.9 3.7-14.4 2.4-22-.7-4.7 1.198-6.4 5.898-6.3 5.4.1 11.102 1.699 16.2-1.602-9.094.104-18.694.502-28.094 1.702z"/><path id="sd3" fill="#86877F" d="M1609.798 1374.002c-13.898-1.7-30.353-6.814-43.853-10.314-26.102-6.8-50.779-10.62-76.779-17.521-14.6-3.9-25.117-10.081-38.216-17.381-15.102-8.4-34.826-15.802-50.025-24.102-3.9-2.102-10.958-8.786-12.759-13.184-9.301-23.5-16.005-37.786-27.005-60.587-.2-.5-5.271-15.94-5.369-17.742 9.6 6.102 19.932-.168 28.432-3.668 13.2-5.5 28.382-10.971 41.582-16.572 4.899-2.1 32.194-11.565 34.194-6.264 1.2 3.101-16.201 19.732-15.901 23.232 1.7 14.7 8.8 27 18.5 37.601 7.6 8.301 15 16.801 22.8 25.101 4.4 4.8 5.102 9.6 2.7 15.5-2.8 6.8-5.8 13.399-9.2 19.899-4.699 8.601-4.5 9.199 5.301 11.801 20.199 5.398 40.399 10.898 60.699 16.199 11.602 3 22.801 7.101 34.5 9.899 10.2 4 22.102 3.8 30.301 12.5 1.1 3.903 2.999 12.202.098 15.603zM1580.6 1216.2c0-3.3.1-6.6-.1-9.898-.602-10.5-3-12.102-12.802-8.5-.8.698-1.6 1.398-2.398 2.1-3.302 11.9-4.802 23.9-1.2 36.1.6.7 1.3 1.302 1.9 2 18.698 4.302 31.898 6.7 48.3 6.102 2.898-.102 5.898-2.102 3.5-6.2-7.2-.7-14.5-1.3-21.7-2-15.1-3.504-15.6-4.204-15.5-19.704zm-23.8 63.102c1.398-5.5-1.602-10.2-2.602-15.302-2-10-1.1-11.198 8.7-10.1 4.8.5 9.8 1.8 14-2 1.4-2.6 1.4-5.2-.1-7.8-4.4-4.4-10.301-2.8-15.5-3.8-9.9 1.198-19.4-3.102-30.602-2.5 5.9 13.398 7.102 27.8 17.102 38.398 2.302 3.302 4.702 6.002 9.002 3.104zm-42.929-77.023c-1.7 9.8.563 11.589-1.037 21.388-.602 3.899 5.666 3.634 9.666 5.034 9.8 3.4 20 4.5 29.898 6.8 2.7.602 5.2-.398 7.7-1.398.2 0 .3-.3.399-.8.101-.5-.101-1-.601-1.4-8.1.2-15.6-2.8-23.399-4.2-4.399-.8-6.699-4-5.699-8.898 1.6-7.802 2.898-15.602 4.5-23.4 1.699-8.1.55-10.544-6.35-13.845-4.097 1.396-14.376 16.419-15.077 20.719zm106.2 8.902c-3.3 7.8.328 20.318.229 28.219 1.1 4.1 4.898 4.4 8.6 5.2 6.8 2.399 11.3 2 18.9 2.899 9.1-.199 16.1.399 27-1.101 2.198-.7 4.1-1.7 5.398-3.7.5-1.1.302-2.1-.5-3-5.198.2-10.3.302-15.5.5-5.198 3.102-11 1.9-16.398 1.802-20.302-.4-17.602.698-17.9-17.602-.2-9.5 1.634-22.434-2.066-31.733-5.201 5.601-7.662 11.316-7.763 18.516zm64.127 26.621c-.8 1.1-.898 2.198-.1 3.398 10.7 6.302 35 .302 46.3-4.1 2.3-2.2 3.8-4.7 3.5-7.9-.898-9.1.067-20.201-2.731-29.001-2.302-3.2-6.667-12.866-10.167-15.366 0 11.2 3.198 29.268 3.099 40.468-.101 8.899-.5 9.2-10.3 10.399-9.799 1.8-19.601 3.3-29.601 2.102zm60.402-5.5c1.1-.302 2.3-.5 3.4-.802 1.3-.8 2.898-.5 4.1-1.5 4.2-1.1 8.4-2.1 12.5-3.3 3.1-.898 5.1-3 5.3-6.5.7-11.6 1.4-26.425-3.899-37.325-1.899-.601-8.868-3.546-11.167-3.346 4.5 10.7 9.067 26.071 9.167 37.371 0 3.8-1.301 6.3-5.301 7.2-2.199.5-4.398 1.3-6.6 2-5.2 2.1-10.3 4.2-16 3.8-.3 1.2.3 1.9 1.3 2.4 2.4.8 4.798 1.002 7.2.002zm33.3-18.302c1.8-7 3.8-13.898 5.3-20.898 2.7-13.5 3.602-10.2-8.5-14.602-.6-.198-.371-5.799-.97-6-4.9-1.1-5.829 4.4-5.53 11.301 4.2 3.898 4.2 9.5 6.102 14.398 2.998 4.701-2.702 11.603 3.598 15.801zm-23.8 64c.6-.698 1.2-1.398 1.9-1.898 5.698-8.8 6-18.8 6.1-28.8.1-13.302.4-16.4-15.1-11.7-.302.1-.7 0-1 0-3.2.898-6.302 1.898-9.5 2.6-3.102.7-4.2 2.801-4.9 5.5-.6 1-.5 1.9.3 2.7 3 1 5.8-.1 8.7-.9 11-3.198 13.4-1.198 12.7 10.4-.5 8.3-3.5 15.9-5.4 23.9 2.4.898 4.2-.902 6.2-1.802zm-24-34.1c-1.8-3-4.4-1.8-6.9-1.2-5 1.2-10 2.302-15 3.5-5.898 1.602-11.898.602-17.8.7-5 .1-6.7 2.2-5.1 6.9 6.6 5 13.3.699 19.898.199 12.802-2.601 14-1.601 14.102 10.899.1 6.7.1 13.2-4 19.101-1.2 1.801-2.802 3.899-1 6.301 9.3-4.4 13.698-11.9 13.898-22.102 3.302-7.798 4.902-15.896 1.902-24.298zm-61 5.402c-11.9 1-23.8 2.3-35.5-1.102-1.1.102-2.1.102-3.2.2-5.1 8.4-4.2 17-.7 25.7.7 8.8 6.4 14.6 12.302 20.3.6 0 1.198 0 1.8-.2.8-7.898-3.5-14.898-3.7-22.8-.399-12.2-.8-12.5 12-12.5 9.9-.8 20.2 2.5 29.7-2.7 0-2.898 1-6.1-1.8-8.398-3.702.5-7.304 1.198-10.902 1.5zm-73.402 37.098c2.2-3.9-1.1-6.8-2-10.1-4.398-16.102-1.5-20 14.802-19.602 3.3.102 6.6.302 9.8 1.2 2.8.4 5.5.4 7.898-1.3 2.302-3.602 1.7-6.5-2.398-8.2-14.602 0-28.9-2.899-43.4-4-1.1 10 1.2 19.8 1.7 29.7 3.4 5.302 7.598 9.704 13.598 12.302zm86.5-10.3c-.198-5.4-.3-10.9-.5-16.3-2.5 6-1.698 12.198-1.5 18.398.702-.698 1.302-1.396 2-2.098z"/><path id="hl1" fill="#E7E6E2" d="M1607.9 1358.1c-9.399-4.9-20.1-6.2-29.8-10.2-1.6-1.8-2.8-3.9-2.7-6.2.8-18.5-4.1-36.898-1.8-55.398 2-7 6.6-6.4 11.6-3.602 4.602 2.602 7.7 8.4 13 9.7 10.2 4.2 20.5-1.9 28.2-8 7.7.1 7.9 11.5 14.6 13 7.5 4 15.2 6.4 23.802 4 4.6-1.4 7.5-5.1 10.8-8.2 3.399-3.198 7.1-5.5 11.3-2.1.7.5 1.3 1 1.9 1.6.6.5 1.3.9 2 1.4l2.1 1.2c1.102.5 2.102 1 3.3 1.398.802.2 1.602.5 2.302.7 4.698.8 9.3.9 13.698-1 .602-.3 1.4-.399 1.802-.899 8.3-3.801 13.6-12.801 17.398-14.399 12.7 5.5 17.301 5.399 20.9.7 1.1 0 2.1.1 3.1.3 11.301 6.2 19.433 14.3 15.433 26.399-.699 1.3-4.395 6.611-5.096 7.91-4 8.2-12.137 9.59-20.536 13.391-7.5 4.898-13 12.198-21.101 16.5-11.8 8.198-24.8 11.198-39.3 11-21.8-.302-43.4 3.6-65.3 4.198-4.202.002-8.402.304-11.602-3.398zm73.6-154.7c-5.2-9.198-11.5-14.099-21.5-19.4-8.802-3.398-13.102 1.302-15.5 8.802-2.9 8.898-3.602 18.1-3.602 27.5.102 22.3 0 22.3 22.602 22.6 5.5-.1 11.1.601 16.5-1.6m2-23.402c0 2.3 0 4.7.1 7 2 4.4-.6 9.6 2.2 13.9 10.5 3.398 20.698 2.898 30.398-2.602 4-14.198 3.2-28.6.5-42.8-1.198-6.399-5.398-11.3-13.398-9.5-4 .2-6.7 2.8-9.302 5.3-5.3 5.102-7 11.9-8.698 18.7-2.4 3.002-1.602 6.602-1.8 10.002zm-62.834-20.067c-4.399-8.2-9.767-10.233-19.267-13.733-12.7-2.101-13.899-1.101-14.7 11-.6 9.3 1.302 18.6.5 27.8-.6 7.8 2.102 12.8 9.802 14.9 7.3.6 14.398 4.1 21.898 1.398 1-.698 1.7-1.5 2.2-2.6 3.3-8.9-1.2-17.8.1-26.7-.1-1.1 1.399-1.598 1.301-2.699-.001-1.099-1.535-8.464-1.834-9.366zM1735.4 1230.2c7.5 3.8 13.3 1.102 18.2-4.898 2.5-10.5 2-21.102.5-31.5-.8-5.102-5.2-12.836-13.1-9.635-5 2.7-5.667 7.667-7.4 13.935.598 12.898-1 20.498 1.8 32.098zm-166.702 28.102c1 5.3 1.102 10.398 1.302 15.698.1 2.4 1.3 3.602 3.5 4 2.398-1.3 3-3.898 4.6-5.898-1.1-6 1-12.3-1.7-18.2-3 .798-8.8-1.6-7.702 4.4zM1690.8 1289.6c.6-.101 1.1.1 1.3.7.9.6 1.7 1.3 2.8 1.398l.7-.1.5.5c1.6 1.2 3.5.8 5.3.898 4.9-.398 7.9-3.3 9.4-7.698 3.3-9.7 2.7-19.602 1.399-29.5-.399-3.102-2.199-5.7-6.199-3.9-6.602.7-13.2 1.5-19.801 2.2-3.5 7-.699 14.8-2.399 22 .5 5.402 3.898 9.402 7 13.502zm41.3-43.5c0 8.6-.1 17.3-.1 25.899l2 2c9.3 1.101 9.898.699 10-8 .1-5 .3-9.801 1.698-14.699 1.302-4.7-.6-7.7-6-7.5-2.798.1-5.398.7-7.598 2.3zm-85 33.1c.1 15.5 5.5 19 20.9 14.8 6.1-3.698 11.1-8.3 12.198-15.8 2-6-.5-12.398 1.5-18.398 0-1.2 0-2.4.102-3.5-10.602-1-21.2-.7-31.7-.2-5.2 7.098-3.1 15.298-3 23.098zm-23.402 2.2c.802-2.5 1.602-4.9 2.4-7.4-.3-6 1-12-.2-17.898-2.6-.102-5.2-.102-7.8-.2-2.9.2-5.9.101-8.7.8-2.5.602-5.3 1.9-5.2 5 .4 9.302-2.3 18.9 1.9 28 7.302.398 12.6-3.502 17.6-8.302z"/><path id="sd2" fill="#494A47" d="M1620.4 1235.802c-1.2 1.8-.5 2.398-2.3 2.8 0-9.4-.7-19.6 1.6-28.8.602 1.898.801 4 1.5 6 .3 8.598-.3 13.298-.8 20zm59.1-28.602c1.1 6.7-.802 16.9 1.5 23.5 1.398-.8 1-4.6 1-5.898.198-2.2-.5-4.5.698-6.602.102-3.398 1-7 1.102-10.3-1.2 0-3-.7-4.3-.7zm86.698 64.602c1.602-1 1.802-2.4 1.5-4.102-2.198-1.5-1.3-3.898-1.898-5.898-2.602 3.5-2.3 6.798.398 10zM1732 1272c2.3-14.1 1.8-17.1.1-25.898-.1-.8-.3-1.602-.4-2.4-.5.102-1 .102-1.6.2 1.4 13-1.3 15.2-1.9 24.3 1.3 1.298 2.498 2.6 3.8 3.798zm-105.9 2c1.2.102.8-4.898 2-4.8.2-8.5-1-15.898 2.3-20.7-2.2-.1-4.8-.1-7-.1 4.4 3.2 3.101 4.7 2 7.6-1 8.802-.702 10.4.7 18z"/><path id="cl1" fill="#C7C8BC" d="M1574.5 1283.7c-.302 21.5 4.6 42.602 3.5 64.102-28.2-7.7-56.4-15.302-84.602-23.102-6.7-1.8-13.7-2.6-20-6-3.1-1.7-3.7-3.398-1.2-6.1 7.2-8.2 10-18.7 14.5-28.3 1.5-3.2.7-5.602-1.6-8.102-5.4-5.898-10.1-12.6-16.1-17.699-13-10.899-19.7-25.699-27-40.301-1.7-3.398-2.4-6.3 1.8-8.199 1.2 1.601 2.8 3 3.5 4.699 8.898 21.4 27 35 42.8 50.5 2 2 4.3 2.7 7.101 3 10.601 1.102 21.101 2.801 31.699 3.5 5.9.4 11 1.7 15.102 6.102 6.5 7.002 12.4 10.3 30.5 5.9zm33.408 89.857c24.602 1.7 50.092 1.709 74.592-1.391 16.7-2.2 30-14.267 41.898-25.967-2.5-.398-4.5 1-6.6 1.9-9.5 4.3-19.302 6.9-29.9 6-14-1.2-27.7 3.1-41.7 2.1-1.6-.1-3.198.9-4.8 1-11.1.7-22.3 2.2-33.5.9.102 3.801-.088 11.66.01 15.458zM1531.698 1200c-1.3 5.4-2.198 11-3 16.5-.6 4.102-.698 9 3.2 10.602 9.3 4 18.8 9.3 29.5 3.898 2.1-10.3 8.473-25 2.673-35.5-2.302-3.6-5.619-6.284-8.32-9.583-8-9.8-19.029-11.383-27.328-5.583 2.401 5.299 4.677 13.968 3.275 19.666zm105.468-17.125c-4 3-7.033 5.39-9.333 9.791-2.1 7.398-.833 18.435-.833 26.035-.102 26.301 1.198 27.4 27.5 26 3.698-.199 8.3.801 9.8-4.5-5-.1-9.9-.199-14.9-.199-3 0-5.2-1-5.3-4.5-.2-14.199-1.1-28.399 3.2-42.301 2.5-8 3.5-8.699 12.8-9.3-7.8-6.001-15.734-6.425-22.934-1.026zm-47.968 38.525c.2-1.3.602-2.7.2-3.9-2.5-7.1-1.2-14.398-1.3-21.698-.102-11.9.1-11.9 11.8-11.9-4.9-3.399-9.9-2.7-15-.6-7.3 2.898-12.9 7.8-17.2 14.3.602.9 1.4 1.3 2.5 1 7.302-1.6 7.4-1.6 7.7 5 .2 5-.7 10.1.1 14.9.802 4.8-4.3 10.698.7 14 3.8 2.5 9.5 2.3 14.4 3.198.898.2 2-.1 3-.198-8.4-4.102-8.4-4.102-6.9-14.102zm137.5 5.7c.7-11.8 1.4-23.8-2.5-35.3-6.3-9.802-11-11.4-22.3-7.802 8.7 3.102 11.9 7.302 12.1 16.9.2 11.6-.1 23.2-.1 34.8 8.402 2.502 12.3.302 12.8-8.598zm38.302-6c2.898-12.8 5-26-4.9-37.4-8.1-4.6-10.019-6.518-18.319.184 6.2 1.6 9.819 5.718 10.021 13.816.3 9.5.1 18.9.198 28.4 6 2.4 11.8.5 13-5zm-7.2 58.702c-.602 1.1-1.7 1.3-2.8 1.3-.802.1-1.4.5-1.7 1.2-.2.8.1 1.398.8 1.8 3.9-.1 5.9 2.6 7.7 5.5 3.6 5.5 4.898 11.6 4 18.1 4.5-3.6 4.5-8.698 3.8-13.5-.9-6.8-2.1-13.6-5.8-19.6-1.9.3-3.3 1.4-4.102 3.2-.298.898-.898 1.598-1.898 2zM1576 1254.5c.5-.8.5-1.698 0-2.6-5.602.1-11.102-.3-16.602-1.5-8.6-1.8-10.898.6-9 9.3 1.5 6.7 3.8 13.2 5.7 19.802 6.1 3 12 4.1 17.3-1.602.3-7.8-5.398-16.3 2.602-23.4zm28 35.802l2.1-.602c1.8-4.198 1-8.6.6-12.8-.898-9.8.602-17.8 11.5-20.9-8-3.898-16.898-.698-25.199-3-1.801-.5-2.899 1.302-2.899 3.102 0 10.398-1.7 21.2 5.7 30.3 2.598 1.298 5.396 2.598 8.198 3.9zm96.9 3.398c3.8 0 7.601.4 11-1.898.8-.4 1.4-1.302 2.4-1.302h.1c7-8 8.2-17.398 7.9-27.6-.5-13.8-1-14.6-14.8-12-.602.1-1.102.7-1.602 1.1 2 .5 4 1.2 4 3.602-.1 8.8 1.2 17.699-.898 26.5-1.2 5.1-3.2 9.398-9.2 10.1-.3.898.1 1.398 1.1 1.498zm33.1-19.7c3.398 5 8.3 6.2 13.898 5.802 8.102-7.2 7.4-17.102 7.8-26.4.602-14.5-2.198-16-16-9.7 5.5 10.298 2.702 25.398-5.698 30.298zm-90-18.198c-5.5.398-8.4 2.698-7.5 8 1.698 10.3.3 21.398 7.3 30.398.8.5 1.6.9 2.3 1.4 5 3 10.4 2.5 15.9 2.4 1.898-1.5 4.8-1.5 6-4.102h-4.9c-11.2 0-13-1.898-13.1-13.3-.102-8.2 0-16.5 0-24.7-2 .002-4-.198-6-.096z"/><path id="sd1" fill="#1A1B19" d="M1560.1 1234.1l-.3-2.101c1-10.5 2.198-21.101 2.198-31.699 1.102 0 2.2-.102 3.302-.102-1.102 11.9-1.7 23.9-1.2 35.802-1.3-.698-2.7-1.3-4-1.9z"/><path fill="none" stroke="#040000" stroke-miterlimit="10" stroke-width="6" d="M1512 1206.9s-12.102.3-36-20.8c-30.9-7.4-97.802 26.3-97.802 26.3s-11.198 4.002-24.583.217c-5 1.801 35.483 60.483 37.483 84.783 16.5 16.9 109 50.8 109 50.8l109.699 25.802s62.5 4.5 81.301-2.802c18.8-7.3 78.199-55.398 80.8-61.5 2.602-6.1-4-35.8-4-35.8l22.9-96.5-21.86-6.275-3.438 9.075s-26.102-10.698-33.7 17.2c-8-23.3-40.3-24.7-50.3 6-15.302-31.3-45-33.8-60.302-3.2-3.5-16.398-35.8-32.8-55.698-2.8-17.5-23.7-36.5-34.7-53.5 9.5z"/><path fill="#C7C8BC" d="M1461.5 1188s-102.136 93.842 58.5 195c0 0-76.55-130.138-7.151-161.336 0-.001 2.432-71.664-51.349-33.664z"/><path fill="#86877F" d="M1457.5 1195.5s-30 48.25-2.25 99.25 55.784 71.607 55.784 71.607L1515.5 1378s-38.306-20.009-56.782-46.75-33.73-54-29.224-82.25 15.006-42.25 28.006-53.5z"/><path fill="#E7E6E2" d="M1504.75 1189.5s-61.75 45-38.75 95 46 89.75 46 89.75-42-80.75-27.75-112.25 15.947-29.673 28.599-40.336c0-.001-1.029-22.369-8.099-32.164z"/><path fill="#C7C8BC" d="M1768.199 1183.802l1.74 42.198s23.061 52.5-13.439 121.5c0 0 77.938-46.515 55-136.318-15.5-60.682-43.301-27.38-43.301-27.38z"/><path fill="#E7E6E2" d="M1792.75 1179s13.5 33.25 8.75 78-25.5 73.75-37.75 83.25c0 0 45.803-29.816 50.651-79.158S1807.5 1191.5 1792.75 1179z"/><path fill="#86877F" d="M1769.94 1205.25s27.061 16.184 23.061 55.842-32.25 81.658-32.25 81.658 20.5-48 18.5-83.125-7-33.625-7-33.625l-2.311-20.75z"/><path fill="none" stroke="#000" stroke-miterlimit="10" stroke-width="6" d="M1768.199 1183.802l1.74 42.198s23.061 52.5-13.439 121.5c0 0 77.938-46.515 55-136.318-15.5-60.682-43.301-27.38-43.301-27.38zM1461.5 1188s-102.136 93.842 58.5 195c0 0-76.564-128.135-7.166-159.333 0-.001 2.447-73.667-51.334-35.667z"/></svg>