<svg xmlns="http://www.w3.org/2000/svg" id="blush" viewBox="0 0 3000 3000"><path id="cl1" fill="#FF5E7C" d="M1465.4 1178.3c-17.4.9-32-3.7-44.6-14-14.5-11.8-19.7-27-14.7-43.3 3-9.7 9.4-17.6 17.8-23.4 26-18.1 64.1-17.8 88.5 4.5 18.7 17.1 19 45.8-5.2 63.5-12.7 9.2-26.7 11.9-41.8 12.7zm345.3-14.5c17.5-10.3 26.1-27.8 19.2-47.2-5.1-14.2-15.9-23.1-30.8-26.9-12.1-3.1-23.7-2.3-35 2.4-24.4 10.2-35.3 38.1-18.1 60.6 9.2 12.1 22.4 18.4 39.6 17.5 9.5-.8 17.3-1.9 25.1-6.4z"/><path id="hl1" fill="#FFFDFE" d="M1441 1132.4c-8.1-.1-14.5-6.7-14.2-14.8.2-7.8 6.2-13.7 14.1-13.8 8.2-.1 14.8 6.2 14.8 14.2 0 8-6.5 14.5-14.7 14.4zm368.1-26.6c-5.2.1-9.3 4.3-9.3 9.5 0 5.3 4.1 9.3 9.4 9.3 5.3-.1 9.3-4.2 9.3-9.5s-4.2-9.4-9.4-9.3z"/></svg>