<svg xmlns="http://www.w3.org/2000/svg" id="blush" viewBox="0 0 3000 3000"><path id="cl1" fill="#F49E9C" d="M1460 1095.6c13.3 0 25.6 3.5 36.8 10.6 26.7 16.9 28.1 49.6 3.1 69.1-21.4 16.7-57.3 20.3-82.4 4.1-25.9-16.7-27.5-45.9-7.4-65.1 14.1-13.5 31.2-18.1 49.9-18.7zm286.5.9c-17.3 15.1-19.3 38.8-3.7 55.8 19 20.7 56.2 18.9 73.9-1.5 13.6-15.7 13.5-37.9-1.1-52.5-9.5-9.6-21.6-14-38.9-14.1-9.1-.1-20.8 4-30.2 12.3z"/><path id="hl1" fill="#F64141" d="M1427 1155.9c-3.2-.3-5-2.2-4.7-5.2.2-2.6 1.2-5.2 2.3-7.5 3.3-7.2 6.9-14.3 10.4-21.4.9-1.8 2-3.5 3.3-4.9 1.3-1.6 3.1-2.6 5.3-1.8 2.5 1 3.5 2.9 3.2 5.5-.2 1.6-.7 3.2-1.3 4.8-3.1 8.8-7.6 16.9-11.8 25.2-1.4 2.6-3.3 5.1-6.7 5.3zm25-4.3c4.2-8.7 8.1-17.4 12.1-26.2 1.4-3 1.6-6-1.7-7.8-3.7-2.1-5.7.6-7 3.3-4.4 9.3-8.7 18.6-12.9 28-.8 1.8-1 3.9-.4 5.8.5 1.8 1.7 2.8 3.7 2.7 3.2-.5 4.9-3.1 6.2-5.8zm20.4-1.5c5-8.3 8.2-17.4 12-26.2l.3-.9c.8-2.4.6-4.7-1.8-6-3-1.7-5 .1-6.7 2.4-.6.8-1.1 1.7-1.5 2.6-3.8 8.1-7.7 16.2-11.5 24.3-1 2.1-1.7 4.4-1 6.7.5 1.8 1.7 2.8 3.6 2.8 3.4-.6 5.1-3.2 6.6-5.7zm290.8-45.8c-2.2 1-3.6 3-4.6 5.1-2.9 5.6-5.7 11.3-8.5 16.9-.4.9-.8 1.8-1.1 2.8-.7 2.4-.6 4.8 1.8 6.1 2.6 1.5 4.5-.1 5.7-2.2 2.8-4.9 5.4-9.9 7.9-15 1.6-3.3 3-6.7 4.1-9.4.3-3.7-2.4-5.6-5.3-4.3zm8.6 30.2c5.7-7.1 9.2-15.3 11.1-24.2.4-1.8-.7-3.3-2.5-3.8-1.8-.6-3.5.1-4.2 1.8-3.4 7.9-6.6 15.9-9.7 24-.6 1.7.7 3.1 2.8 3.5.8-.5 2-.6 2.5-1.3zm21.3-28.2c-5 7.8-7.7 16.6-10.7 25.2-.2.6.6 1.9 1.3 2.4 1.2.9 2.7.5 3.6-.5 6-6.9 9.5-15 10.9-24 .3-2.1-.7-3.9-3.3-4-.6.4-1.5.5-1.8.9z"/></svg>