<svg xmlns="http://www.w3.org/2000/svg" id="blush" viewBox="0 0 3000 3000"><path id="cl1" fill="#FF5E7C" d="M1467.9 1176.3c-15 .4-28.2-2.1-40.1-9.7-5.7-3.6-10.8-7.8-14.2-13.7-8.6-14.4-6.7-28.7 5.8-41.7 10.5-11 24-16.2 38.6-19.2 18.7-3.8 36.2-.3 52.8 8.6 11.6 6.2 18.5 16 20.2 29.1 1 7.5-2 14.2-5.6 20.6-8.4 11.7-20.1 19.4-33.9 23-8 2.2-15.1 3.1-23.6 3zm344.6-26.7c13.5-10.1 18-27.9 10-42.7-5.2-9.7-13.7-15.8-24.3-19.4-14.4-4.8-28.9-4.2-43 .6-8.4 2.9-16.3 7.8-21.8 15.2-10.7 14.1-10 28.5-2.4 38.9 10.6 14.4 25.8 20.1 41.4 20.2 16.6-.5 29.4-4.8 40.1-12.8z"/></svg>