<svg xmlns="http://www.w3.org/2000/svg" id="blush" viewBox="0 0 3000 3000"><path id="cl1" fill="#FF5E5A" d="M1434.2 1119.3c3-2 5.9-3.5 9.3-3.8 8.1-.3 14.7 2.2 18.8 9.4 4.4 7.6 3.3 15.1-3 21.7-7 7.3-19.5 9.9-28.5 6.4-9.2-3.7-17.5-13.6-17.3-24.2.3-12.9 7.3-20.6 16.6-26.5 24.8-16 48.1-.5 54.8 20.6 3 9.4 1.8 19.4-3.7 27.8-9.9 14.9-24.2 24.1-41.9 25.6-28.4 2.4-49.9-15.5-52-44-.8-11.6 3.3-21.3 8.7-31.5 2.6-4.9 6.7-10.3 10.8-13.5 9.3-7.4 18.4-12.9 30-16.3 16.2-3.1 29.3.8 43.2 6.5 12.2 5 20.2 14.1 26.5 25.6 11.8 21.5 7.4 58.4-12.4 75.3-6 5.1-13.5 6.8-20.5 9.4-2.6.9-5-1-6.5-3.5-1.7-2.7-1.3-5.2.8-7.3 1.3-1.4 3.2-2.7 5-3 14.8-2.4 21.4-13.2 24.6-25.8 3.2-12.6 3.2-25.1-2.6-37.9-5.5-12.1-14.8-18.3-26-22.9-16.7-6.8-41.5 1.3-46.8 5.2-3.8 2.6-9.6 7.7-13.2 13-9.7 14.3-9.1 28.6-1.9 43.2 2.7 5.4 8.2 8.5 13.5 11 14.7 6.9 42 2.6 50.6-20.3 3.6-9.7-.4-20.5-9.6-26.6-8.6-5.7-19-3-26 1.5-.6.5-2.7 2.6-4.1 4.3-1.2 1.4-2 3-3.1 5.3-.9 3.2-.7 4.6.3 8.3 1.7 4.1 3.7 5.5 7.5 7-1.7-.5 3.1 1.2 5.9-.3 1-.5 2.2-1.5 2.7-2.6 1-2.1.6-5 .1-5.3-.8 2-2.5 5.2-7.5 5-2.5-.1-5.4-2.7-6.3-4.2-.8-1.8-1.2-4.2-.5-6.9.6-2.7 1.8-4.5 3.7-5.7zm328.1 1.4c-1.8 1.1-3.6 3.7-4.1 6.7-.5 3.3.4 6.5 2.6 7.7 3.5 1.9 7.7.9 8.4.9 1.5 0 .1 2.1-2 3.9-1.2 1-4.3 1.2-6 1-4-.6-7.9-5.3-8.3-8.4-.9-6.6 1.7-9.5 3.4-12.5 1.2-2 3.6-4.2 6.6-5.8 8.7-2.7 16.4-1.1 20.3 6.9 4.7 9.6 3.2 19.4-2.6 27.2-5.7 7.6-19.2 11.5-27.9 9.3-15.3-3.8-19.2-19.9-18.3-33.7.8-12 8-20.1 17.6-27.3 16.4-12.4 41.6-3.6 49.8 13.8 5.8 12.2 6.2 24.9 2.9 37.8-2.4 9.1-6.7 16.7-16.4 19.7-1.5.5-3.2 1.2-4.4 2.3-2.2 2-2.7 4.6-1 7.2 1.5 2.3 3.2 4.1 6.6 2.8 8.5-3.3 15.9-7.5 20.5-16.2 6.2-11.6 8.3-24 7.1-36.6-2.1-22.7-12.2-40.8-37.1-47.3-12.9-3.4-24.1-.8-34.7 6.7-18.2 12.9-25.2 30.4-21.6 52.1 3.4 20.3 17.7 32.4 36.2 31.7 23.2-1 41.9-21.9 36.2-46.8-4.7-20.3-25.2-28.8-42.2-17-12.1 8.4-15.4 23.7-7.8 36 3.5 5.7 14.1 10.7 19.7 9.3 9.4-2.3 14.2-7.2 15.4-16.1 1-7.9-3.2-14.3-7.8-16.3-4.7-1.4-8.1-.8-11.1 1z"/></svg>