<svg xmlns="http://www.w3.org/2000/svg" id="blush" viewBox="0 0 3000 3000"><path id="cl1" fill="#F49E9C" d="M1471.5 1095.5c13.6.6 25.9 2 38.9 7.8 4.9 2.2 9.1 5.1 13.2 8.6 19.2 16.5 8.9 40.8-5.6 50-8.9 5.7-18.6 8.4-29.6 10.6-8.9 1.8-18 3.2-27.4 2.8-16.6-.7-32.8-1.9-47.9-10.3-16.2-9-22.6-29.1-10.3-45.5 6.8-9 16.2-13.3 26.1-17.2 6.4-2.6 13-4.3 20-5.5 7-.7 16.4-1.6 22.6-1.3zm300.5-3.5c-14.5 1.1-28.1 4.9-38.8 15.4-11.2 11-11.8 26.2-2.1 38.6 7.3 9.4 20.2 12.6 28.5 14.2 12 1.7 24.1.9 36.1-.6 8.3-1 15.8-4.3 22.6-9.5 20.2-15.4 13.5-44-7.5-52.5-8.5-3.7-14.3-5.2-27.1-5.7-.3 0-9.7 0-11.7.1z"/><path id="hl1" fill="#FEF9F9" d="M1441.9 1128.1c-.3 3.6-5.4 10.9-8.3 11.7-4 1.2-9.5-1.8-12.4-6.6-.9-1.5-1.5-3-.5-4.6.9-1.6 2.8-2.5 4.2-1.8 4.4 2.2 7.4-.4 10.9-2.3 3.4-1.8 6.3.2 6.1 3.6zm35.1 2.5c-2.1 0-4 1-3.9 3.5.1 2.4 1.9 3.4 4 3.5 2.2.1 3.8-1 4-3.9-.4-1.9-2-3.1-4.1-3.1zm-13.7 1.5c-1.3.1-2.6 1-2.4 2.5.3 2.2 1.8 3.3 4.1 2.8 1.4-.3 2-1.5 2-3.1-.5-1.8-1.9-2.4-3.7-2.2zm-12.2 2.4c-1-.1-1.8.5-1.9 1.5-.2 1.1.5 1.7 1.6 1.8 1 .1 1.7-.5 1.9-1.2.1-1.3-.5-2-1.6-2.1zm351.2-17.7c-3.8.8-7 .3-10.2-2-1.2-.9-2.9.2-2.9 1.6-.2 3.4 1 6.6 3.7 8.9 1.6 1.4 3.8 1.4 5.6.4 2.7-1.4 4.9-3.4 5.3-6.1.1-1.9-.6-3-1.5-2.8zm-38.1 8.6c-1.5-.6-2.8.1-3.1 1.4-.7 2.8.9 4.4 3.5 4.8 1.4.2 2.5-.5 2.9-2 .2-2.4-1.3-3.5-3.3-4.2zm11.7-.1c-1.1.1-1.6 1-1.6 2 .1 1.1.8 1.8 1.9 1.7 1.1-.1 1.5-1 1.6-2-.1-1.1-.8-1.8-1.9-1.7zm11 .1c-.5-.2-1-.4-1.5-.7-.2.5-.7 1.1-.6 1.5.1.4.9.5 1.4.7.3-.5.5-1 .7-1.5z"/></svg>