<svg xmlns="http://www.w3.org/2000/svg" id="blush" viewBox="0 0 3000 3000"><path id="cl1" fill="#FA5C5C" d="M1463.6 1174.4c-.6-16.8 19.6-56.9 32.5-65.3 2 13.5-17.8 54-32.5 65.3zm-38.8.9c12.5-6.5 33.6-48 32.7-64-12.4 6.8-33.5 48.2-32.7 64zm-36.2 1.3c.8-.6 1.6-1.2 2.2-2 13.6-17.8 23.8-37.3 28.7-59.3.2-1-.3-1.9-1.4-2.3-13.5 9.1-33.5 50.3-31.2 64.1.5-.1 1.2-.1 1.7-.5zm366.8-84.2c-10.1 5.8-25.7 37-26.1 52.1 10.2-5.5 26.2-37.2 26.1-52.1zm30.2-2.8c-13.2 16.1-21.7 33.5-25.4 53.1 13-9.6 28.1-41.6 25.4-53.1zm7.1 51.6c11-8.2 26.1-39.9 24.6-51.5-11.3 8.3-26.2 39.5-24.6 51.5z"/></svg>