<svg xmlns="http://www.w3.org/2000/svg" id="face" viewBox="0 0 3000 3000"><path id="cl1" fill="#EFBC88" d="M1115.698 625.7s-26 73.3-18.698 164c0 0 4 45.3 6 59.3s24 112 34.698 144.7c0 0 20.7 66.7 32.7 86.7 0 0 6.7 76.7 29.3 108.7 0 0 10.7 26 25.302 38.7 0 0 66.698 46.698 106 66.698 0 0 161.3 80.7 187.3 82.7 0 0 17.2 4.5 29.898 4.2 0 0 57.802 3.8 114.302-3.5 0 0 43.5-1.8 82.8-20.5 0 0 31.8-15.8 49-40.5 0 0 18.1-43.7 27.399-77.4 0 0 18.301-61 21.699-83.3 0 0 10.7-59.3 13-82 0 0 4-120.3 1.7-151.3 0 0 30.7-67.7 35.3-86 0 0-11-141-37.699-211 0 0-18-45.3-27.301-59.3 0 0-35.3-54-80.699-72 0 0-25.301-16.7-73.301-32 0 0-118.699-41.301-290-16 0 0-88.699 18.699-134.699 40.699 0 0-41.301 18.699-91.301 64.699-.098-.296-29.398 35.704-42.7 73.704z"/><path id="sd1" fill="#D48D59" d="M1494.553 461.492S1441.3 455 1427.3 451.302c0 0-27.5-2.802-42.3-2.302 0 0-100.102 20.9-144.302 46 0 0-52.698 31.7-65 44.7 0 0-7.698 6.7-17 14.7 0 0-14 18.3-34 55.3 0 0-6.5 16.8-10.399 30.2 0 0-5.5 21.6-7.899 34.9 0 0-4.899 30.1-5.899 39.398 0 0-1.301 20.602-1.5 26.602 0 0-6.279 19.707-2.1 44.699 0 0-.399 26.101 5.601 57.601 0 0 32 162 66.5 228.5 0 0 1.5 5.3 3.3 9.5 0 0 1.301 9.8 2.301 16 0 0 3.5 18.8 4.5 26.7 1 7.898 9.3 39.8 20.3 59.8 0 0 16.5 36.5 25.5 41.5 0 0 62.5 42.5 80 52 0 0 32.5 19 70 36.5 0 0 114 57.5 148.5 61.5 0 0-55.952-38.855-72.151-57.851-4.19-4.914-10.889-11.638-17.349-23.149-3.874-6.903-11.5-29.5-11.5-29.5s-17.5-54.5-25-78c0 0-26.418-121.205-30-150-3.039-24.431-13.001-69.351-15-97-.425-5.881-8-53.5-3-67 0 0 15.691-19.824 23.5-28.5 4.976-5.529 7.067-8.212 12.5-27 1.737-6.009-.07-18.814-1-25-1.691-11.25-6.71-25.383-9.5-44.5-3.895-26.687-10-92.5-9-107.5 0 0 5.353-47.669 8.5-65 2.825-15.556 21.721-41.744 34.5-53 9.91-8.729 24-22 40-34.5.097-.1 35.548-22.608 45.65-26.108z"/><path id="hl1" fill="#F7DBBA" d="M1397 447.2s48.8-5.3 65.8-5.5c0 0 47.2-1 63.3-.7 0 0 51.2 2.602 73 7.102 0 0 52.6 9 67.9 14.6 0 0 57.698 18.602 82.3 35.301 0 0 23.899 11.199 48 35 0 0 23.7 24.699 32.7 42 0 0 29 56 39 110 0 0 18.698 95 18.698 117.699 0 0-102.34-20.774-123.3-31-7.221-3.523-10.532-14.75-16.3-27.699-10.599-23.795-16.099-76.502-25.601-101-11.464-29.555-37.301-109-50.301-116.399 0 0-58.402-34.397-83.3-44S1438.698 450 1397 447.2zm429.5 494.9c-13.4 8-13.602 21-13.602 21 .602 10.1.3 72 .3 72-1.5 15.899 2 63.5 2 63.5.9 9.1-.3 61-.3 61 .9 10.6-3.6 36.399-3.6 36.399-2.301 11.5-8.602 59.601-8.602 59.601-1 8-10 58.7-10 58.7 16.7-34 39.302-121.7 39.302-121.7 8.698-18.7 21.3-120.7 21.3-120.7 3-20.7 4.8-149.001 4.8-149.001-5.1 1.201-31.598 19.201-31.598 19.201z"/><path fill="none" stroke="#000" stroke-miterlimit="10" stroke-width="6" d="M1115.698 625.7s-26 73.3-18.698 164c0 0 4 45.3 6 59.3s24 112 34.698 144.7c0 0 20.7 66.7 32.7 86.7 0 0 12.188 68.213 29.3 108.7 4.5 10.647 10.7 26 25.302 38.7 0 0 66.698 45.698 106 65.698 0 0 161.3 81.7 187.3 83.7 0 0 17.2 4.5 29.898 4.2 0 0 57.537 1.332 114.302-3.5 21.248-1.809 43.5-1.8 82.8-20.5 0 0 31.8-15.8 49-40.5 0 0 18.1-43.7 27.399-77.4 0 0 18.301-61 21.699-83.3 0 0 10.7-59.3 13-82 0 0 4-120.3 1.7-151.3 0 0 30.7-67.7 35.3-86 0 0-11-141-37.699-211 0 0-18-45.3-27.301-59.3 0 0-35.3-54-80.699-72 0 0-25.301-16.7-73.301-32 0 0-118.699-41.301-290-16 0 0-88.699 18.699-134.699 40.699 0 0-41.301 18.699-91.301 64.699-.098-.296-29.398 35.704-42.7 73.704z"/></svg>