<svg xmlns="http://www.w3.org/2000/svg" id="图层_3" viewBox="0 0 3000 3000"><path fill="#E25F3F" d="M1288.301 2295.787c3.906-144.544 122.214-260.545 267.698-260.545s263.798 116.001 267.699 260.545h683.413c-3.956-521.949-428.232-943.862-951.112-943.862-522.879 0-947.155 421.913-951.111 943.862h683.413z"/><path fill="#EA971E" d="M1288.301 2295.787c3.906-144.544 122.214-260.545 267.698-260.545s263.798 116.001 267.699 260.545h571.82c-3.951-460.32-378.271-832.272-839.52-832.272-461.253 0-835.569 371.952-839.521 832.272h571.824z"/><path fill="#F7DC4D" d="M1288.301 2295.787c3.906-144.544 122.214-260.545 267.698-260.545s263.798 116.001 267.699 260.545h463.082c-3.951-400.266-329.59-723.529-730.781-723.529-401.195 0-726.829 323.264-730.778 723.529h463.08z"/><path fill="#C3DA49" d="M1288.301 2295.787c3.906-144.544 122.214-260.545 267.698-260.545s263.798 116.001 267.699 260.545h341.669c-3.942-333.207-275.23-602.118-609.368-602.118-334.137 0-605.425 268.911-609.367 602.118h341.669z"/><path fill="#79C6BF" d="M1288.301 2295.787c3.906-144.544 122.214-260.545 267.698-260.545s263.798 116.001 267.699 260.545h230.008c-3.947-271.576-225.195-490.547-497.707-490.547-272.516 0-493.759 218.971-497.702 490.547h230.004z"/><path fill="#5A7EBF" d="M1288.301 2295.787c3.906-144.544 122.214-260.545 267.698-260.545s263.798 116.001 267.699 260.545h110.312c-3.929-205.472-171.603-370.855-378.011-370.855-206.407 0-374.076 165.384-378.01 370.855h110.312z"/><path fill="#A5D2D6" d="M2709.014 2330.098h-34.023c1.374-8.646 2.292-17.453 2.292-26.488 0-92.775-75.212-167.986-167.989-167.986 0 0-.024.003-.037.003-39.153-99.217-135.67-169.526-248.799-169.526-110.897 0-206.034 67.47-246.622 163.593-6.887-.823-13.864-1.368-20.968-1.368-96.81 0-175.286 78.479-175.286 175.285 0 9.03.895 17.831 2.208 26.488h-16.798c-64.617 0-116.994 52.377-116.994 116.987 0 64.616 52.377 116.993 116.994 116.993h906.022c64.61 0 116.988-52.377 116.988-116.993 0-64.611-52.378-116.988-116.988-116.988zm-1356.081 0h-34.023c1.374-8.646 2.292-17.453 2.292-26.488 0-92.775-75.212-167.986-167.989-167.986 0 0-.024.003-.037.003-39.153-99.217-135.67-169.526-248.799-169.526-110.897 0-206.034 67.47-246.622 163.593-6.887-.823-13.864-1.368-20.968-1.368-96.81 0-175.286 78.479-175.286 175.285 0 9.03.895 17.831 2.208 26.488H446.91c-64.617 0-116.994 52.377-116.994 116.987 0 64.616 52.377 116.993 116.994 116.993h906.022c64.61 0 116.988-52.377 116.988-116.993.001-64.611-52.377-116.988-116.987-116.988z"/><path fill="#F9F9F9" d="M1338.371 2300.98h-31.301c1.263-7.954 2.108-16.058 2.108-24.37 0-85.354-69.196-154.548-154.551-154.548 0 0-.022.003-.034.003-36.021-91.28-124.816-155.965-228.896-155.965-102.026 0-189.552 62.072-226.893 150.506-6.336-.757-12.755-1.258-19.291-1.258-89.066 0-161.264 72.2-161.264 161.262 0 8.309.823 16.405 2.031 24.37h-15.454c-59.448 0-107.635 48.187-107.635 107.628 0 59.448 48.187 107.635 107.635 107.635h833.545c59.441 0 107.629-48.187 107.629-107.635 0-59.441-48.188-107.628-107.629-107.628zm1312.405 0h-31.302c1.263-7.954 2.108-16.058 2.108-24.37 0-85.354-69.196-154.548-154.552-154.548 0 0-.022.003-.034.003-36.021-91.28-124.816-155.965-228.896-155.965-102.026 0-189.552 62.072-226.894 150.506-6.336-.757-12.755-1.258-19.29-1.258-89.065 0-161.265 72.2-161.265 161.262 0 8.309.823 16.405 2.031 24.37h-15.453c-59.449 0-107.636 48.187-107.636 107.628 0 59.448 48.187 107.635 107.636 107.635h833.545c59.441 0 107.629-48.187 107.629-107.635.002-59.441-48.186-107.628-107.627-107.628z"/></svg>