<svg xmlns="http://www.w3.org/2000/svg" id="图层_2" viewBox="0 0 3000 3000"><path fill="#90D3C7" d="M871.219 1206.528c-34.743 8.875-66.753 17.729-94.463 26.044 32.855 96.266 291.324 1053.483 278.521 1225.087l113.581-29.825c-9.497-146.248-267.138-1115.327-297.639-1221.306zm675.874 1121.974l95.009-24.957s-341.711-939.862-379.005-1183.968c-21.122 1.583-50.64 6.513-83.863 13.188 20.305 101.896 272.844 1056.368 367.859 1195.737z"/><path fill="#E2CB6A" d="M776.756 1232.572c-32.385 9.708-58.895 18.67-76.922 26.053C715.7 1332.269 981 2403.989 921.041 2492.916l134.235-35.256c12.804-171.606-245.663-1128.822-278.52-1225.088zm402.477-99.809c-29.933 6.02-62.859 13.457-95.348 21.168 26.676 108.206 285.195 1074.51 349.17 1204.517l114.037-29.947c-95.014-139.368-347.553-1093.84-367.859-1195.738z"/><path fill="#90D3C7" d="M1083.885 1153.931c-31.82 7.544-63.195 15.337-90.922 22.299l323.262 1212.896 116.83-30.68c-63.975-130.005-322.493-1096.309-349.17-1204.515z"/><path fill="#E2CB6A" d="M917.06 1195.19a3058.52 3058.52 0 0 0-45.84 11.337c30.501 105.979 288.141 1075.057 297.639 1221.307l147.368-38.707L992.965 1176.23c-31.709 7.961-58.635 14.828-75.905 18.96z"/><path fill="#FFEA53" d="M967.541 1080.84l-11.722-43.979 11.722 43.979 17.301 56.681a4433.95 4433.95 0 0 1 58.089-12.037c-37.818-53.276-84.422-117.476-113.626-175.625l-1.627.383 39.863 130.598z"/><path fill="#FFF" d="M929.305 949.858c-1.482-2.958-2.985-5.921-4.376-8.841.021.076-.002.156.002.217l2.747 9.007 1.627-.383z"/><path fill="#00A88F" d="M967.541 1080.84l15.224 57.123 2.077-.441-17.301-56.682z"/><path fill="#90D3C7" d="M967.541 1080.84l-39.863-130.598-2.835.683c-.703 76.2-1.021 145.539-4.981 201.101 19.522-4.563 40.78-9.313 62.903-14.063l-15.224-57.123zm-42.61-139.606c-.031 3.254-.062 6.46-.088 9.689l2.835-.683-2.747-9.006zm4.374 8.624c29.204 58.149 75.808 122.349 113.626 175.625a4504.043 4504.043 0 0 1 32.537-6.411c-6.479-27.4-10-43.75-10-43.75s3.521 16.35 10 43.75a4251.622 4251.622 0 0 1 49.823-9.318c-65.352-39.995-146.392-96.425-196.021-167.742l1.776 7.433-1.741.413z"/><path fill="#00A88F" d="M924.928 941.017c1.392 2.919 2.894 5.883 4.376 8.841l1.741-.415-1.776-7.433c-.792-1.134-1.655-2.236-2.429-3.374-.754-.574-1.383-1.05-1.881-1.426a137.89 137.89 0 0 1-.031 3.807zm-.873 10.091c.099-4.116.152-7.984.197-11.534-.349-.707-.662-1.417-1.006-2.124-1.141 2.789-2.426 5.591-3.668 8.395l1.438 5.993 3.039-.73z"/><path fill="#FFEA53" d="M907.424 1154.969c4.054-.969 8.211-1.953 12.438-2.943 3.959-55.562 4.278-124.9 4.981-201.101l-.788.185c-1.032 41.231-7.501 110.902-66.248 209.909.568 1.88 1.164 3.854 1.779 5.908a2457.219 2457.219 0 0 1 47.838-11.958z"/><path fill="#FFF" d="M857.807 1161.017a818.4 818.4 0 0 1-4.566 7.581l6.346-1.673a2803.74 2803.74 0 0 0-1.78-5.908zm67.124-219.783l-.117-.439c-.176-.406-.36-.815-.562-1.221-.045 3.551-.099 7.418-.197 11.534l.788-.185c.026-3.228.057-6.434.088-9.689z"/><path fill="#EC1C24" d="M924.961 937.212c.011-.425.024-.862.021-1.313-.26-.371-.494-.736-.745-1.122.019.627.025 1.257.011 1.899.201.15.435.324.713.536z"/><path fill="#EC1C24" d="M926.841 938.636c-.611-.921-1.244-1.807-1.858-2.739.003.451-.011.889-.021 1.313l1.879 1.426z"/><path fill="#90D3C7" d="M899.285 816.743l-1.494-6.236-10.024 2.397 31.812 132.941c1.242-2.803 2.527-5.605 3.668-8.395.16-.396.33-.788.491-1.179 0 0 .181.138.511.403.014-.633.01-1.267-.011-1.899.251.385.485.75.745 1.122.614.933 1.247 1.818 1.858 2.739.526.393 1.251.881 1.942 1.359l-9.283-38.804c68.041-12.83 122.939-63.548 122.939-63.548-36.503 23.239-115.974-8.757-143.154-20.9z"/><path fill="#EC1C24" d="M924.961 937.212c-.278-.212-.512-.385-.713-.535.014.56.011 1.155.002 1.747l.563 2.372c.048.086.102.146.115.223.027-1.273.039-2.533.033-3.807z"/><radialGradient id="SVGID_1_" cx="164.387" cy="3265.72" r="248.942" gradientTransform="scale(1 -1) rotate(13.468 18928.36 4378.897)" gradientUnits="userSpaceOnUse"><stop offset="0" stop-color="#ffce65"/><stop offset=".786" stop-color="#ed2833"/><stop offset="1" stop-color="#bc2f3a"/></radialGradient><path fill="url(#SVGID_1_)" d="M924.961 937.212c-.278-.212-.512-.385-.713-.535.014.56.011 1.155.002 1.747l.563 2.372c.048.086.102.146.115.223.027-1.273.039-2.533.033-3.807z"/><path fill="#EC1C24" d="M924.25 938.424c.01.388.01.759.002 1.151.201.405.386.814.562 1.22l-.564-2.371z"/><radialGradient id="SVGID_2_" cx="164.731" cy="3266.003" r="248.346" gradientTransform="scale(1 -1) rotate(13.468 18928.36 4378.897)" gradientUnits="userSpaceOnUse"><stop offset="0" stop-color="#ffce65"/><stop offset=".786" stop-color="#ed2833"/><stop offset="1" stop-color="#bc2f3a"/></radialGradient><path fill="url(#SVGID_2_)" d="M924.25 938.424c.01.388.01.759.002 1.151.201.405.386.814.562 1.22l-.564-2.371z"/><path fill="#EC1C24" d="M923.739 936.272l.512 2.15c.012-.583.011-1.165-.002-1.747-.331-.265-.51-.403-.51-.403z"/><radialGradient id="SVGID_3_" cx="164.59" cy="3265.34" r="249.572" gradientTransform="scale(1 -1) rotate(13.468 18928.36 4378.897)" gradientUnits="userSpaceOnUse"><stop offset="0" stop-color="#ffce65"/><stop offset=".786" stop-color="#ed2833"/><stop offset="1" stop-color="#bc2f3a"/></radialGradient><path fill="url(#SVGID_3_)" d="M923.739 936.272l.512 2.15c.012-.583.011-1.165-.002-1.747-.331-.265-.51-.403-.51-.403z"/><path fill="#EC1C24" d="M924.814 940.795l.117.439c-.004-.061.018-.141-.002-.217-.015-.076-.067-.135-.115-.222z"/><radialGradient id="SVGID_4_" cx="162.843" cy="3267.343" r="246.331" gradientTransform="scale(1 -1) rotate(13.468 18928.36 4378.897)" gradientUnits="userSpaceOnUse"><stop offset="0" stop-color="#ffce65"/><stop offset=".786" stop-color="#ed2833"/><stop offset="1" stop-color="#bc2f3a"/></radialGradient><path fill="url(#SVGID_4_)" d="M924.814 940.795l.117.439c-.004-.061.018-.141-.002-.217-.015-.076-.067-.135-.115-.222z"/><path fill="#EC1C24" d="M923.739 936.272c-.163.391-.331.783-.49 1.179.343.707.656 1.417 1.006 2.124.007-.393.007-.764-.004-1.151l-.512-2.152z"/><radialGradient id="SVGID_5_" cx="164.517" cy="3265.887" r="248.613" gradientTransform="scale(1 -1) rotate(13.468 18928.36 4378.897)" gradientUnits="userSpaceOnUse"><stop offset="0" stop-color="#ffce65"/><stop offset=".786" stop-color="#ed2833"/><stop offset="1" stop-color="#bc2f3a"/></radialGradient><path fill="url(#SVGID_5_)" d="M923.739 936.272c-.163.391-.331.783-.49 1.179.343.707.656 1.417 1.006 2.124.007-.393.007-.764-.004-1.151l-.512-2.152z"/><path fill="#90D3C7" d="M1170.603 1085.502c-2.993-18.182-4.296-28.604-4.296-28.604s1.303 10.422 4.296 28.604a1145.258 1145.258 0 0 0 31.483 11.418c50.016-7.507 84.645-10.466 85.914-5.166l.132.679 4.551-1.083c-121.995-25.433-315.431-121.381-359.136-148.272 29.921 32.088 98.451 89.824 237.056 142.424z"/><path fill="#FFEA53" d="M1170.603 1085.502c-138.604-52.6-207.135-110.336-237.058-142.425a121.216 121.216 0 0 1-4.763-3.081l.487 2.015c49.629 71.317 130.669 127.747 196.021 167.741a3143.216 3143.216 0 0 1 48.039-8.299c9.574-1.578 19.159-3.09 28.754-4.535a1141.73 1141.73 0 0 1-31.48-11.416z"/><path fill="#FFF" d="M929.27 942.01l-.487-2.015c-.689-.479-1.416-.967-1.941-1.359.773 1.139 1.637 2.242 2.428 3.374z"/><g fill="#A54499"><path d="M731.082 1225.053l-52.207 12.427c-4.349-.043-8.737-.101-13.131-.169-.53.96-.744 1.859-.553 2.669l7.082 29.545c.235 1.021 1.096 1.858 2.432 2.567 2.996-3.382 11.731-7.99 25.129-13.47-2.25-10.467-3.616-16.336-3.616-16.336 10.924-6.019 22.6-11.752 34.864-17.233zm388.504-92.49a2752.84 2752.84 0 0 1 58.271-6.806 831.461 831.461 0 0 1-1.3-6.761l-25.694 6.117-31.277 7.45z"/><path d="M1176.556 1118.997c.414 2.201.849 4.464 1.3 6.761 51.662-5.491 85.012-7.576 85.012-7.576.069.471.158.924.229 1.396 13.503-1.015 23.596-.669 28.99 1.462.847-1.241 1.25-2.378 1.008-3.403l-4.963-25.203-58.1 13.836-53.476 12.727zm-344.281 81.969l-61.421 14.623a1481.619 1481.619 0 0 1 5.902 16.983c27.71-8.314 59.721-17.168 94.463-26.044a5117.673 5117.673 0 0 0-4.021-13.879l-34.923 8.317zm225.953-53.796l-65.67 15.631-2.981.714 3.389 12.716c27.726-6.962 59.101-14.754 90.921-22.299-.998-4.053-1.99-8.107-2.976-12.163l-22.683 5.401z"/><path d="M1119.586 1132.563l-38.676 9.206c.953 3.928 1.941 7.958 2.976 12.163 32.487-7.711 65.415-15.148 95.348-21.168-.472-2.377-.937-4.72-1.377-7.006a2753.595 2753.595 0 0 0-58.271 6.805zm-202.223 48.141l-50.165 11.944c1.291 4.421 2.633 9.063 4.021 13.879a3067.743 3067.743 0 0 1 45.84-11.337c17.271-4.132 44.195-10.999 75.904-18.96l-3.389-12.716-72.211 17.19zm-146.509 34.884l-39.771 9.466c-12.264 5.479-23.939 11.213-34.863 17.234 0 0 1.365 5.869 3.617 16.337 18.026-7.384 44.537-16.345 76.921-26.054a1514.224 1514.224 0 0 0-5.904-16.983z"/><path d="M1177.856 1125.758c.441 2.285.905 4.629 1.377 7.006 33.225-6.674 62.741-11.604 83.863-13.188-.07-.471-.159-.924-.229-1.396-.001.001-33.349 2.086-85.011 7.578zm-188.429 26.779a2299.208 2299.208 0 0 1 64.948-10.854 4373.31 4373.31 0 0 0-11.444-16.201 4450.421 4450.421 0 0 0-58.089 12.037l4.585 15.018z"/><path d="M989.427 1152.537l3.131 10.264 65.67-15.631c-1.253-1.798-2.567-3.66-3.853-5.485a2299.788 2299.788 0 0 0-64.948 10.852zm-6.662-14.575l4.015 15.063c.881-.16 1.766-.328 2.646-.488l-4.584-15.018-2.077.443z"/><path d="M986.781 1153.026l-4.015-15.063c-22.124 4.75-43.381 9.499-62.903 14.063a913.288 913.288 0 0 1-1.159 14.758c22.746-5.06 45.577-9.627 68.077-13.758z"/><path d="M918.703 1166.783a762.816 762.816 0 0 1-1.341 13.921l72.213-17.188-2.795-10.489c-22.499 4.13-45.33 8.697-68.077 13.756zm68.078-13.757l2.795 10.489 2.982-.714-3.131-10.263c-.882.16-1.767.327-2.646.488zm93.192-15.122a3789.207 3789.207 0 0 1-4.505-18.832 4482.748 4482.748 0 0 0-32.537 6.411c3.929 5.533 7.731 10.92 11.444 16.201a2508.947 2508.947 0 0 1 25.598-3.78zm0 0a2575.72 2575.72 0 0 1 39.613-5.341l31.275-7.449a1867.6 1867.6 0 0 1-25.57-15.36 4340.303 4340.303 0 0 0-49.823 9.318 3789.207 3789.207 0 0 0 4.505 18.832z"/><path d="M1054.375 1141.684c1.285 1.826 2.6 3.688 3.853 5.485l22.683-5.401-.938-3.865a2537.19 2537.19 0 0 0-25.598 3.781z"/><path d="M1080.91 1141.768l38.676-9.206a2574.056 2574.056 0 0 0-39.613 5.341l.937 3.865zm-349.828 83.285c12.016-5.365 24.613-10.47 37.67-15.345a1304.495 1304.495 0 0 0-5.537-15.104c-55.442 17.713-92.461 33.534-97.471 42.707 4.394.068 8.782.125 13.131.169l52.207-12.427z"/><path d="M853.24 1168.597c-33.194 8.754-63.685 17.593-90.024 26.007 1.698 4.535 3.543 9.577 5.538 15.104 23.275-8.682 48.015-16.595 73.556-23.799a714.461 714.461 0 0 0 10.93-17.312zm-122.158 56.456l39.771-9.466c-.718-2.021-1.418-3.973-2.101-5.879-13.055 4.876-25.654 9.98-37.67 15.345z"/><path d="M842.31 1185.91c-25.542 7.204-50.28 15.117-73.556 23.799.682 1.906 1.382 3.857 2.1 5.879l61.421-14.623a749.42 749.42 0 0 0 10.035-15.055zm21.21-5.783a4650.888 4650.888 0 0 0-3.934-13.202l-6.346 1.673a721.654 721.654 0 0 1-10.932 17.313 1272.36 1272.36 0 0 1 21.212-5.784z"/><path d="M919.862 1152.025a2479.417 2479.417 0 0 0-60.275 14.9c1.225 4.085 2.535 8.488 3.934 13.203 18.175-4.782 36.646-9.223 55.184-13.345.416-4.796.799-9.731 1.157-14.758zm-77.552 33.885a749.42 749.42 0 0 1-10.035 15.055l34.923-8.316c-1.279-4.386-2.508-8.551-3.678-12.521a1277.356 1277.356 0 0 0-21.21 5.782z"/><path d="M863.52 1180.127c1.169 3.971 2.396 8.136 3.678 12.521l50.165-11.944c.483-4.51.919-9.174 1.341-13.921-18.538 4.123-37.008 8.562-55.184 13.344zm338.566-83.207c9.06 3.143 18.337 6.266 27.945 9.349l58.1-13.836-.131-.679c-1.27-5.3-35.899-2.341-85.914 5.166z"/><path d="M1230.031 1106.268a1250.438 1250.438 0 0 1-27.945-9.349 2080.338 2080.338 0 0 0-28.756 4.534c.965 5.432 2.035 11.286 3.227 17.543l53.474-12.728z"/><path d="M1176.556 1118.997a1445.99 1445.99 0 0 1-3.226-17.543 3120.425 3120.425 0 0 0-48.039 8.3 1857.467 1857.467 0 0 0 25.569 15.36l25.696-6.117z"/></g><path fill="#FFEA53" d="M919.83 946.882l-.252-1.036c-63.033 141.947-256.756 291.428-256.756 291.428.983.017 1.938.021 2.922.039 5.01-9.173 42.028-24.994 97.471-42.707-6.552-17.562-10.687-27.426-10.687-27.426s4.136 9.864 10.687 27.426c1.125-.362 2.292-.723 3.43-1.081C871.886 1086.208 907.69 995.274 919.83 946.882z"/><path fill="#90D3C7" d="M919.83 946.882c-12.141 48.393-47.944 139.327-153.186 246.643 25.558-8.094 54.813-16.548 86.596-24.926a788.794 788.794 0 0 0 4.566-7.581c-5.396-17.851-8.646-28.044-8.646-28.044s3.25 10.193 8.646 28.044c58.747-99.007 65.216-168.678 66.248-209.909l-3.04.729-1.184-4.956z"/><path fill="#B276AE" d="M1481.53 2134.746l860.108 111.621s-26.108-82.563-53.802-198.633c3.393-38.752 21.226-239.758 39.998-389.088l2.567.329 13.396-28.483-6.048-.776-4.04 6.267-2.927-.373c3.71-28.346 7.44-54.117 11.079-75.865l38.117 4.962-31.467-159.052c12.14-3.801 21.638-14.335 23.389-27.836a33.72 33.72 0 0 0-16.083-33.292l2.522-98.838c36.946 7.724 75.5-7.826 75.5-7.826-27.34 5.672-70.781-41.436-70.781-41.436l-6.36 48.955c.467.113.923.163 1.397.271l-30.966 96.311c-11.396 4.196-20.196 14.317-21.874 27.203-1.896 14.658 5.954 28.213 18.451 34.422l-76.37 143.908 34.457 4.469c-1.087 9.217-4.07 34.775-8.199 68.936l-3.312-.439-1.75 6.01-1.242-7.974-3.038-1.435 4.68 33.952.999.131c-6.988 56.783-15.973 127.503-24.455 186.946-17.788-110.256-28.201-225.131-18.793-319.941l-71.995-12.174 18.117-139.694.931.104 59.944 10.585s-1.021-1.117-2.8-3.15l13.946 1.809c-9.979-3.396-18.469-9.106-25.81-16.13-6.551-8.243-14.348-18.735-21.514-29.921-15.056-29.281-19.257-60.688-19.257-60.688l-68.844-8.936c-5.108-23.086-10.71-64.944-6.568-128.393l.367.054 17.818-37.873-8.015-1.05-5.401 8.331-2.112-.271c3.105-29.561 8.281-63.073 16.213-100.692l43.914 7.171-42.447-227.813c13.933-2.642 25.26-13.832 27.186-28.682 1.746-13.475-4.729-26.021-15.467-32.817l-.368-62.734c51.972 5.834 101.736-14.19 101.736-14.19-41.916 8.69-108.511-63.52-108.511-63.52l-9.723 75.021c1.959.461 3.917.744 5.871 1.116l-17.497 60.93c-11.783 3.987-20.965 14.319-22.676 27.549-1.884 14.445 5.724 27.839 17.862 34.183l-105.06 203.327 47.363 7.748c-3.107 23.515-8.04 57.492-14.677 93.796l-5.941-.77-2.352 8-1.651-10.623-4.04-1.888 6.184 44.955c-10.168 47.79-23.152 94.525-38.793 122.676l-92.609-12.018c.011.402-.063.758-.032 1.173-.181 4.716-1.753 24.61-17.271 45.366-23.648 27.314-63.074 41.109-63.074 41.109l65.293 8.488-20.133 133.741-73.192-1.314-25.886-130.884c12.578-3.54 22.484-14.326 24.266-28.152 1.741-13.467-4.72-26.028-15.441-32.821l-.621-99.583c36.715 7.35 74.793-7.967 74.793-7.967-27.328 5.674-70.791-41.445-70.791-41.445l-6.375 48.952c.701.167 1.412.264 2.135.389l-27.631 96.279c-11.814 3.992-20.987 14.325-22.715 27.535-1.836 14.354 5.616 27.662 17.625 34.065l-76.492 144.131 27.213 3.552-1.323 1.187c1.823 6.228.161 32.208-3.437 68.18l-.086-.014-1.752 6.01-1.246-7.981-3.057-1.421 3.701 26.816c-9.867 90.696-28.266 223.66-37.016 285.683-41.073 88.496-92.47 185.059-155.932 282.192zm254.662-552.879l.76.096 13.383-28.479-6.041-.771-4.031 6.258-.368-.046c4.459-27.646 8.69-53.279 12.433-75.682l19.803 2.582c-7.272 27.709-21 76.36-42.81 139.456a8944.02 8944.02 0 0 1 6.871-43.414z"/><path fill="#00B5CC" d="M1767.754 1158.517l-31.573 102.523 30.267 4.507 1.306-107.03zm587.08 87.397l-31.577 102.524 30.28 4.508 1.297-107.032zm-209.48-624.476l-31.586 102.513 30.281 4.508 1.305-107.021z"/><path fill="#AA55A2" d="M2018.875 1072.55l5.357 44.752 81.005 12.059 18.375-37.112-7.967-1.186-5.506 8.129-7.129-1.062-1.106-9.782-8.388-1.248-4.252 8.287-6.719-1-2.072-9.229-9.638-1.435-2.976 8.478-7.549-1.123-.896-8.385-9.242-1.376-2.562 8.566-10.073-1.5-1.545-9.847-9.224-1.374-2.475 7.855-1.417-10.516-4.001-1.951zm-127.125 151.498l285.5 42.501s9.883 87.299 64.199 106.824l-431.041-64.168s84.207-27.507 81.342-85.157zm445.7 145.72l-96.634 173.612 131.37 19.556-34.736-193.168zm-589.682-89.651l-96.633 173.603 131.371 19.557-34.738-193.16zm380.242-533.658l-127.717 229.469 173.634 25.848-45.917-255.317zm128.349 866.058l4.046 33.652 60.876 9.063 13.808-27.914-5.967-.888-4.152 6.116-5.363-.799-.825-7.356-6.308-.938-3.188 6.24-5.058-.753-1.548-6.946-7.251-1.078-2.236 6.383-5.688-.848-.668-6.315-6.945-1.034-1.915 6.449-7.573-1.129-1.159-7.405-6.936-1.032-1.86 5.902-1.075-7.902-3.015-1.468zm-587.775-87.501l4.035 33.651 60.877 9.063 13.81-27.914-5.968-.889-4.147 6.117-5.36-.799-.834-7.357-6.299-.938-3.197 6.24-5.058-.753-1.547-6.946-7.256-1.08-2.228 6.385-5.688-.848-.663-6.313-6.948-1.036-1.916 6.449-7.58-1.129-1.156-7.405-6.938-1.032-1.852 5.902-1.088-7.903-2.999-1.465z"/><linearGradient id="SVGID_6_" x1="3561.801" x2="3596.013" y1="-1815.668" y2="-1815.668" gradientTransform="scale(-1 1) rotate(38.023 -3956.927 -6428.722)" gradientUnits="userSpaceOnUse"><stop offset=".006" stop-color="#f79855"/><stop offset="1" stop-color="#fff100"/></linearGradient><path fill="url(#SVGID_6_)" d="M856.422 1838.719c7.513 1.302 17.955.94 23.309 3.422-4.822-1.143-7.22 1.229-10.927 1.805 1.555 3.079.794 6.447 3.114 9.645-3.215-.568-6.974 1.255-11.463-.967.12 2.313-2.16 7.459-2.056 9.537-.364-.066-4.593-3.037-5.114-3.393-.399.601.057 3.237-1.216 3.541-.497-6.84-1.356-13.354-1.462-20.248 2.542-.011 4.762-1.757 6.833-2.044"/><path fill="#1C3F94" d="M850.434 1700.506c37.32 46.017 37.717 107.518.918 137.367-36.814 29.846-96.898 16.743-134.223-29.266-37.317-46.017-37.717-107.52-.917-137.37 36.805-29.847 96.897-16.743 134.222 29.269z"/><path fill="#FFF" d="M861.598 1853.757c3.743 4.981 11.579 10.241 16.306 18.308 4.688 8.004.539 18.326 7.825 26.154 5.383 5.775 16.421 4.648 21.561 10.763 4.47 5.281 5.402 18.575 9.101 24.979 11.349 19.756 33.683 26.841 47.646 45.534 7.719 10.339 6.864 19.896 12.521 29.554 4.308 7.371 12.771 11.184 18.498 18.656 2.648-1.458 5.033-3.923 6.719-6.358-19.382 2.092-25.127-31.366-33.693-43.415-13.562-19.077-36.416-23.491-46.375-43.39-4.485-8.941-1.571-17.793-8.778-25.441-6.276-6.651-17.206-5.909-23.382-13.777-11.093-14.135-5.42-35.564-26.603-42.538-.211 1.699-2.079 4.931-1.463 3.855"/><linearGradient id="SVGID_7_" x1="3739.757" x2="3773.983" y1="-1803.507" y2="-1803.507" gradientTransform="scale(-1 1) rotate(38.023 -3956.927 -6428.722)" gradientUnits="userSpaceOnUse"><stop offset=".006" stop-color="#f79855"/><stop offset="1" stop-color="#fff100"/></linearGradient><path fill="url(#SVGID_7_)" d="M723.719 1957.918c7.509 1.312 17.963.938 23.31 3.424-4.823-1.145-7.21 1.224-10.942 1.814 1.57 3.066.791 6.438 3.138 9.635-3.229-.574-6.978 1.243-11.478-.964.131 2.298-2.151 7.452-2.063 9.546-.356-.084-4.586-3.057-5.086-3.418-.422.609.027 3.252-1.239 3.566-.494-6.848-1.337-13.38-1.45-20.27 2.522.007 4.749-1.752 6.827-2.038"/><path fill="#FFF" d="M717.717 1819.719c37.331 45.993 37.733 107.508.925 137.361-36.817 29.854-96.909 16.748-134.219-29.271-37.324-46.01-37.727-107.521-.915-137.367 36.803-29.844 96.908-16.761 134.209 29.277zm11.177 153.227c3.737 4.999 11.573 10.259 16.295 18.313 4.688 8.005.539 18.334 7.837 26.158 5.375 5.781 16.421 4.648 21.559 10.754 4.468 5.289 5.404 18.584 9.09 25.001 11.355 19.729 33.695 26.827 47.652 45.528 7.707 10.343 6.864 19.895 12.514 29.549 4.322 7.369 12.765 11.199 18.5 18.649 2.66-1.464 5.047-3.92 6.715-6.336-19.377 2.066-25.11-31.387-33.688-43.446-13.552-19.073-36.422-23.468-46.369-43.379-4.484-8.94-1.563-17.799-8.789-25.43-6.271-6.646-17.207-5.909-23.387-13.777-11.08-14.147-5.411-35.563-26.594-42.545-.205 1.692-2.064 4.918-1.441 3.848"/><linearGradient id="SVGID_8_" x1="3890.658" x2="3924.863" y1="-1694.649" y2="-1694.649" gradientTransform="scale(-1 1) rotate(38.023 -3956.927 -6428.722)" gradientUnits="userSpaceOnUse"><stop offset=".006" stop-color="#f79855"/><stop offset="1" stop-color="#fff100"/></linearGradient><path fill="url(#SVGID_8_)" d="M671.91 2136.635c7.515 1.302 17.967.93 23.299 3.427-4.819-1.142-7.222 1.219-10.932 1.803 1.563 3.064.797 6.44 3.141 9.627-3.235-.561-6.987 1.259-11.474-.962.125 2.313-2.167 7.465-2.065 9.553-.358-.074-4.594-3.05-5.098-3.401-.416.594.037 3.229-1.229 3.543-.498-6.851-1.346-13.365-1.46-20.265 2.532.012 4.76-1.748 6.833-2.035"/><path fill="#C13665" d="M665.911 1998.427c37.328 46.001 37.727 107.512.919 137.357-36.808 29.85-96.901 16.751-134.217-29.271-37.315-46.018-37.728-107.517-.926-137.363 36.835-29.864 96.919-16.756 134.224 29.277z"/><path fill="#FFF" d="M677.084 2151.66c3.742 4.993 11.571 10.258 16.31 18.313 4.674 7.998.524 18.337 7.826 26.162 5.379 5.783 16.421 4.649 21.56 10.764 4.465 5.271 5.396 18.59 9.08 24.997 11.358 19.729 33.692 26.815 47.665 45.517 7.717 10.338 6.871 19.89 12.511 29.55 4.313 7.382 12.771 11.189 18.515 18.646 2.646-1.451 5.029-3.916 6.704-6.339-19.394 2.086-25.115-31.372-33.685-43.429-13.56-19.077-36.426-23.479-46.385-43.385-4.468-8.963-1.579-17.787-8.779-25.443-6.27-6.647-17.206-5.899-23.375-13.774-11.094-14.136-5.415-35.573-26.594-42.543-.219 1.705-2.089 4.935-1.478 3.866"/><linearGradient id="SVGID_9_" x1="3632.255" x2="3666.49" y1="-1619.716" y2="-1619.716" gradientTransform="scale(-1 1) rotate(38.023 -3956.927 -6428.722)" gradientUnits="userSpaceOnUse"><stop offset=".006" stop-color="#f79855"/><stop offset="1" stop-color="#fff100"/></linearGradient><path fill="url(#SVGID_9_)" d="M921.619 2036.509c7.512 1.302 17.965.929 23.318 3.407-4.824-1.143-7.222 1.22-10.938 1.817 1.557 3.069.797 6.431 3.121 9.627-3.226-.563-6.981 1.271-11.468-.95.12 2.304-2.153 7.453-2.063 9.535-.363-.065-4.591-3.038-5.099-3.395-.398.593.045 3.232-1.231 3.552-.49-6.864-1.333-13.378-1.459-20.265 2.539-.015 4.757-1.751 6.843-2.049"/><path fill="#C13665" d="M915.638 1898.287c37.307 46.021 37.703 107.521.912 137.376-36.813 29.837-96.912 16.746-134.225-29.266-37.313-46.022-37.721-107.53-.915-137.368 36.812-29.852 96.9-16.753 134.228 29.258z"/><path fill="#FFF" d="M926.801 2051.53c3.731 4.987 11.588 10.246 16.302 18.309 4.671 7.996.524 18.336 7.831 26.164 5.376 5.782 16.406 4.651 21.561 10.764 4.456 5.274 5.396 18.581 9.086 24.99 11.357 19.73 33.687 26.832 47.648 45.526 7.729 10.334 6.865 19.896 12.516 29.541 4.32 7.386 12.784 11.189 18.506 18.651 2.656-1.455 5.027-3.907 6.711-6.335-19.385 2.08-25.118-31.373-33.681-43.436-13.571-19.074-36.419-23.484-46.381-43.385-4.485-8.941-1.573-17.785-8.771-25.431-6.281-6.662-17.217-5.915-23.392-13.791-11.098-14.128-5.422-35.55-26.604-42.53-.216 1.698-2.071 4.936-1.45 3.846"/><linearGradient id="SVGID_10_" x1="3760.724" x2="3794.951" y1="-1561.912" y2="-1561.912" gradientTransform="scale(-1 1) rotate(38.023 -3956.927 -6428.722)" gradientUnits="userSpaceOnUse"><stop offset=".006" stop-color="#f79855"/><stop offset="1" stop-color="#fff100"/></linearGradient><path fill="url(#SVGID_10_)" d="M856.029 2161.177c7.517 1.305 17.962.938 23.31 3.414-4.834-1.119-7.219 1.229-10.955 1.837 1.574 3.043.804 6.425 3.139 9.606-3.206-.563-6.964 1.26-11.471-.941.13 2.289-2.146 7.438-2.068 9.543-.341-.096-4.566-3.065-5.075-3.422-.418.609.026 3.254-1.239 3.559-.502-6.852-1.332-13.379-1.457-20.271 2.525.019 4.769-1.756 6.834-2.034"/><path fill="#F58921" d="M850.014 2022.981c37.332 46.003 37.757 107.49.925 137.354-36.798 29.858-96.905 16.76-134.204-29.269-37.325-46.009-37.729-107.514-.922-137.37 36.81-29.844 96.906-16.748 134.201 29.285z"/><path fill="#FFF" d="M861.198 2176.207c3.743 4.991 11.568 10.246 16.303 18.314 4.688 7.996.524 18.338 7.832 26.165 5.381 5.769 16.427 4.636 21.568 10.75 4.451 5.281 5.387 18.585 9.065 25 11.368 19.736 33.711 26.815 47.668 45.524 7.708 10.344 6.855 19.893 12.504 29.547 4.327 7.379 12.776 11.193 18.506 18.65 2.668-1.46 5.046-3.919 6.724-6.35-19.371 2.076-25.128-31.367-33.688-43.421-13.564-19.079-36.424-23.495-46.387-43.386-4.471-8.955-1.563-17.8-8.784-25.444-6.271-6.642-17.206-5.901-23.368-13.771-11.1-14.146-5.419-35.564-26.607-42.53-.217 1.688-2.063 4.906-1.453 3.842"/><linearGradient id="SVGID_11_" x1="4244.774" x2="4278.991" y1="-919.374" y2="-919.374" gradientTransform="matrix(-.9057 .4242 .4242 .9057 5264.705 1204.395)" gradientUnits="userSpaceOnUse"><stop offset=".006" stop-color="#f79855"/><stop offset="1" stop-color="#fff100"/></linearGradient><path fill="url(#SVGID_11_)" d="M1011.274 2170.011c7.039 2.94 17.298 4.933 21.955 8.55-4.438-2.198-7.313-.424-11.055-.688.82 3.354-.665 6.451.876 10.102-3-1.277-7.08-.331-10.941-3.521-.413 2.285-3.768 6.787-4.146 8.848-.332-.153-3.786-4.004-4.229-4.447-.517.485-.671 3.173-1.983 3.179 1.058-6.795 1.683-13.327 3.114-20.075 2.476.563 5.03-.648 7.119-.452"/><path fill="#FFF" d="M1036.365 2033.944c26.074 53.208 12.701 113.246-29.843 134.103-42.559 20.867-98.189-5.348-124.27-58.541-26.078-53.199-12.728-113.222 29.823-134.092 42.571-20.862 98.206 5.346 124.29 58.53zm-23.408 151.874c2.539 5.703 8.988 12.575 11.807 21.494 2.761 8.841-3.587 17.99 1.762 27.255 3.968 6.817 14.96 8.2 18.625 15.302 3.155 6.149 1.095 19.322 3.266 26.385 6.645 21.789 26.826 33.69 36.256 55.033 5.218 11.816 2.239 20.926 5.603 31.604 2.546 8.153 9.937 13.769 13.843 22.333 2.936-.851 5.797-2.693 7.984-4.704-19.378-2.289-17.482-36.184-23.125-49.865-8.964-21.616-30.237-31.031-35.507-52.646-2.368-9.725 2.444-17.694-2.854-26.767-4.656-7.865-15.453-9.613-19.719-18.647-7.655-16.271 2.666-35.879-16.405-47.433-.597 1.621-3.138 4.353-2.288 3.452"/><linearGradient id="SVGID_12_" x1="4387.69" x2="4421.909" y1="-765.731" y2="-765.731" gradientTransform="matrix(-.9057 .4242 .4242 .9057 5264.705 1204.395)" gradientUnits="userSpaceOnUse"><stop offset=".006" stop-color="#f79855"/><stop offset="1" stop-color="#fff100"/></linearGradient><path fill="url(#SVGID_12_)" d="M947.008 2369.81c7.045 2.936 17.294 4.923 21.969 8.538-4.439-2.199-7.318-.435-11.064-.687.83 3.351-.662 6.455.885 10.088-3-1.275-7.088-.316-10.956-3.5-.402 2.271-3.771 6.776-4.136 8.822-.345-.132-3.797-3.979-4.23-4.432-.512.48-.67 3.157-1.979 3.184 1.056-6.798 1.676-13.321 3.108-20.09 2.471.588 5.022-.625 7.11-.445"/><path fill="#FFF100" d="M972.099 2233.752c26.069 53.198 12.707 113.224-29.837 134.077-42.555 20.87-98.201-5.342-124.281-58.534-26.066-53.195-12.729-113.223 29.836-134.097 42.558-20.857 98.194 5.357 124.282 58.554z"/><path fill="#FFF" d="M948.698 2385.612c2.533 5.699 9.002 12.57 11.793 21.496 2.775 8.829-3.583 17.992 1.781 27.253 3.953 6.83 14.962 8.193 18.617 15.299 3.162 6.154 1.095 19.323 3.261 26.387 6.656 21.793 26.827 33.681 36.265 55.033 5.207 11.813 2.235 20.928 5.59 31.602 2.552 8.164 9.943 13.771 13.86 22.331 2.927-.844 5.778-2.69 7.958-4.696-19.354-2.308-17.465-36.199-23.109-49.867-8.963-21.616-30.232-31.028-35.5-52.651-2.364-9.729 2.438-17.688-2.854-26.765-4.648-7.88-15.468-9.609-19.726-18.65-7.646-16.266 2.665-35.871-16.408-47.416-.597 1.612-3.134 4.344-2.289 3.436"/><path fill="#369FBF" d="M1917.713 1891.341s.271-5.85-5.322-11.97c-9.846-41.456-32.466-60.063-73.143-67.746-17.267-6.653-34.836-7.451-47.041 3.734-5.866-.264-11.943 5.329-12.218 11.17-5.873-.255-6.145 5.61-6.407 11.435-.246 5.822-.525 11.688-6.35 11.436-.799 17.553-1.589 35.091-8.21 52.381-11.171-12.208-16.797-18.344-28.188-24.711-5.823-.255-11.736-.524-17.527-.79-11.729-.534-23.962 10.662-30.368 22.078-6.358 11.434-12.438 17.01-24.405 22.333-5.313-11.951-10.906-18.089-22.037-30.286l-5.616-6.097c-17.817 5.06-35.863 15.927-48.394 32.978.256-5.863.535-11.729-5.033-17.85.246-5.809-10.678-23.879-15.989-35.872-5.578-6.07-11.162-12.175-17.027-12.471-11.426-6.399-23.104-6.909-29.209-1.315-6.151 5.596-6.407 11.426-12.239 11.153-.287 5.883-6.365 11.459-6.365 11.459-6.12 5.593-11.944 5.329-17.801 5.058-11.468-6.373-28.699-13.013-39.929-25.233-16.706-18.354-40.125-19.421-57.958-14.348-6.109 5.604-12.174 11.203-12.174 11.203-18.138 10.894-24.75 28.165-31.107 39.582l-5.842-.263s-11.466-6.35-11.211-12.19c-11.408-6.384-16.986-12.484-28.648-13.036-5.898-.246-11.738-.521-12.035 5.34-5.814-.248-11.92 5.328-17.801 5.058-12.197 11.137-18.838 28.452-19.635 45.981l-5.855-.266-5.84-.247c-5.604-6.136-11.441-6.391-11.441-6.391-22.885-12.742-40.389-13.54-58.484-2.615-6.087 5.567-12.189 11.169-18.063 10.905-17.8 5.085-24.167 16.478-30.847 33.759-.246 5.856-.511 11.706-6.366 11.442-12.988 28.715-14.041 52.093 2.411 76.324-28.946-7.188-52.866 3.438-65.875 32.162-18.6 22.619-25.496 45.768-27.063 80.873-.278 5.824-.278 5.824-6.137 5.555-11.98 5.306-29.743 10.363-42.021 21.574-18.28 16.717-30.838 33.719-32.125 62.959-1.069 23.428-1.862 40.966 3.218 58.779l7.233 99.959 1179.604 94.133 181.763-132.498 17.02 12.496-16.237-30.017c11.979-5.329 23.903-10.676 30.031-16.236.264-5.873.264-5.873 6.366-11.435 5.856.247 6.137-5.576 6.392-11.458.266-5.8.266-5.8-11.162-12.216-11.695-.492-17.01-12.472-10.65-23.879.271-5.873 6.079-5.603 6.352-11.477 11.978-5.321 18.111-10.89 7.188-28.985l.264-5.842c-5.609-6.104-11.171-12.207-22.58-18.59l-5.896-.265c-11.42-6.384-28.955-7.181-34.827-7.436 23.672-4.788 30.313-22.063 31.34-45.456-5.587-6.103-5.313-11.968-11.131-12.239-11.188-12.229-28.181-24.727-45.248-37.181-5.569-6.151-11.417-6.406-22.859-12.731 0 0-5.841-.271-11.426-6.392l-5.84-.255-6.121 5.584c-5.806-.255-6.077 5.536-6.341 11.417.534-11.672.806-17.545 12.461-17.001 5.841.255 6.104-5.602 6.375-11.482 5.855.271 6.121-5.576.534-11.682-5.33-11.969-16.739-18.316-28.229-24.71a225356.81 225356.81 0 0 0-75.979-3.413c-11.736-.525-17.554-.797-29.498 4.518l6.088-5.576c6.096-5.563 6.385-11.419 6.612-17.275-5.018-17.813-15.938-35.887-33.222-42.543.246-5.791-5.578-6.063-11.188-12.188.279-5.866-11.441-6.394-28.996-7.173-11.941 5.319-17.527-.808-17.266-6.646 7.164-28.985 2.113-46.788-26.595-59.8-5.856-.255-11.681-.521-17.562-.79-23.369-1.035-35.33 4.276-47.554 15.456.253-5.865.253-5.865.501-11.71z"/><path fill="#CC6D4C" d="M2035.873 2414.26l.213-.515-4.09-1.726 94.58-57.271-22.869-48.682-32.844-69.897-34.949-74.38-34.479-73.405-36.821-78.376-22.459-47.789-97.646 59.128 45.709 97.295 36.84 78.394 34.48 73.385 34.945 74.405 30.592 65.126-402.289-169.435-132.539 314.714 411.301 173.223 131.429-312.074 1.087-2.037-.191-.083z"/><path fill="#FFF" d="M1942.797 2000.825l-74.393 108.638 36.842 78.386 74.381-108.645-36.83-78.379z"/><path fill="#E25DA9" d="M1920.349 1953.037l-97.653 59.127 45.71 97.299 74.392-108.638-22.449-47.788zm59.278 126.168l-74.381 108.644 34.476 73.389 74.388-108.635-34.483-73.398zm69.429 147.777l-74.39 108.654 32.447 69.052 1.635-.978 73.133-106.828-32.825-69.9z"/><path fill="#FFF" d="M2014.11 2152.601l-74.388 108.635 34.944 74.4 74.39-108.654-34.946-74.381zm67.772 144.283l-73.134 106.827 96.021-58.148-22.887-48.679z"/><path fill="#E5A8C4" d="M1881.738 2719.265l-411.305-173.217 132.545-314.713 411.296 173.225-132.536 314.705z"/><path d="M1756.221 2303.188l2.262-1.644-81.916-33.184-2.262 1.645 81.916 33.183zm163.838 66.365l2.263-1.646-81.92-33.181-2.257 1.648 81.914 33.179z"/><path d="M2001.965 2402.743l2.273-1.648-81.918-33.187-2.263 1.646 81.908 33.189zm-325.398-134.381l-66.702-27.022-1.125 2.109 65.565 26.558 2.262-1.645zm161.578 68.015l2.257-1.648-81.919-33.184-2.262 1.645 81.924 33.187zm166.095 64.717l-2.274 1.648 11.171 4.513 1.114-2.105-10.011-4.056z"/><path fill="#EA63B0" d="M1840.854 2427.094l81.91 33.188 79.202-57.539-81.907-33.188-79.205 57.539zm-166.549-157.087l-65.565-26.559-39.069 73.792 25.447 10.295 79.187-57.528zm84.633 123.902l79.207-57.532-81.924-33.188-79.206 57.527 81.923 33.193z"/><path fill="#FFF" d="M1840.854 2427.094l79.205-57.54-81.914-33.178-79.207 57.532 81.916 33.186zm-84.633-123.906l-81.916-33.183-79.188 57.528 81.898 33.181 79.206-57.526zm166.543 157.094l51.284 20.769 39.087-73.793-11.169-4.514-79.202 57.538z"/><path fill="#E0134F" d="M1595.115 2327.535l-25.445-10.295-3.362 6.321 22.018 8.916 6.789-4.942zm320.873 137.684l54.71 22.157 3.35-6.327-51.282-20.769-6.778 4.939zm-238.973-104.502l-6.769 4.94 81.896 33.188 6.794-4.936-81.921-33.192z"/><path fill="#E0134F" d="M1834.082 2432.022l81.904 33.197 6.776-4.938-81.91-33.188-6.77 4.929zm-238.967-104.487l-6.791 4.942 81.922 33.18 6.769-4.942-81.9-33.18z"/><path fill="#E0134F" d="M1758.938 2393.909l-6.794 4.936 81.938 33.179 6.771-4.929-81.915-33.186z"/><g><path fill="#C957AE" d="M1130.328 2725.199c-141.775 0-256.722-114.927-256.722-256.721 0-141.782 114.945-256.721 256.722-256.721 141.806 0 256.727 114.938 256.727 256.721-.001 141.794-114.922 256.721-256.727 256.721z"/><path fill="#FFF" d="M1130.328 2673.869c-113.431 0-205.381-91.956-205.381-205.391 0-113.424 91.95-205.379 205.381-205.379 113.43 0 205.385 91.956 205.385 205.379 0 113.436-91.955 205.391-205.385 205.391z"/><path fill="#C957AE" d="M1130.328 2632.781c-90.729 0-164.299-73.564-164.299-164.303 0-90.748 73.567-164.291 164.299-164.291 90.748 0 164.303 73.543 164.303 164.291 0 90.739-73.557 164.303-164.303 164.303z"/><path fill="#FFF" d="M1130.328 2599.911c-72.598 0-131.438-58.837-131.438-131.433 0-72.584 58.843-131.445 131.438-131.445 72.612 0 131.457 58.861 131.457 131.445 0 72.596-58.843 131.433-131.457 131.433z"/><path fill="#C957AE" d="M1130.328 2573.625c-58.08 0-105.143-47.065-105.143-105.146 0-58.067 47.063-105.158 105.143-105.158 58.084 0 105.162 47.091 105.162 105.158 0 58.078-47.078 105.146-105.162 105.146z"/><path fill="#FFF" d="M1130.328 2552.607c-46.457 0-84.131-37.678-84.131-84.129 0-46.464 37.674-84.117 84.131-84.117 46.463 0 84.142 37.653 84.142 84.117-.001 46.451-37.679 84.129-84.142 84.129z"/><path fill="#C957AE" d="M1130.328 2527.363c-32.511 0-58.892-26.37-58.892-58.885s26.381-58.885 58.892-58.885c32.515 0 58.896 26.37 58.896 58.885s-26.381 58.885-58.896 58.885z"/></g><g><path fill="#E0A061" d="M1405.802 2791.002c-116.788 0-211.468-94.668-211.468-211.467 0-116.787 94.68-211.464 211.468-211.464 116.794 0 211.462 94.677 211.462 211.464 0 116.799-94.668 211.467-211.462 211.467z"/><path fill="#FFF" d="M1405.802 2748.716c-93.437 0-169.175-75.739-169.175-169.181 0-93.434 75.739-169.173 169.175-169.173 93.426 0 169.175 75.739 169.175 169.173 0 93.439-75.749 169.181-169.175 169.181z"/><path fill="#E0A061" d="M1405.802 2714.875c-74.748 0-135.339-60.586-135.339-135.34 0-74.742 60.591-135.334 135.339-135.334 74.745 0 135.332 60.592 135.332 135.334 0 74.754-60.587 135.34-135.332 135.34z"/><path fill="#FFF" d="M1405.802 2687.809c-59.798 0-108.271-48.474-108.271-108.274 0-59.791 48.476-108.264 108.271-108.264 59.803 0 108.271 48.473 108.271 108.264 0 59.803-48.468 108.274-108.271 108.274z"/><path fill="#E0A061" d="M1405.802 2666.155c-47.843 0-86.618-38.773-86.618-86.62 0-47.834 38.775-86.608 86.618-86.608 47.841 0 86.62 38.774 86.62 86.608 0 47.847-38.779 86.62-86.62 86.62z"/><path fill="#FFF" d="M1405.802 2648.834c-38.273 0-69.296-31.024-69.296-69.299 0-38.268 31.021-69.287 69.296-69.287 38.265 0 69.304 31.021 69.304 69.287 0 38.272-31.039 69.299-69.304 69.299z"/><path fill="#E0A061" d="M1405.802 2628.049c-26.79 0-48.509-21.721-48.509-48.514 0-26.779 21.719-48.5 48.509-48.5 26.788 0 48.502 21.721 48.502 48.5 0 26.793-21.714 48.514-48.502 48.514z"/></g><g><path fill="#00AEEF" d="M2114.196 2587.744c-78.195 0-141.588-63.386-141.588-141.588 0-78.197 63.393-141.589 141.588-141.589 78.203 0 141.588 63.392 141.588 141.589-.003 78.202-63.385 141.588-141.588 141.588z"/><path fill="#FFF" d="M2114.196 2559.434c-62.563 0-113.271-50.716-113.271-113.278 0-62.557 50.708-113.271 113.271-113.271 62.557 0 113.271 50.716 113.271 113.271 0 62.563-50.715 113.278-113.271 113.278z"/><path fill="#00AEEF" d="M2114.196 2536.773c-50.044 0-90.617-40.573-90.617-90.617 0-50.051 40.573-90.611 90.617-90.611s90.617 40.563 90.617 90.611c0 50.044-40.573 90.617-90.617 90.617z"/><path fill="#FFF" d="M2114.196 2518.645c-40.045 0-72.496-32.451-72.496-72.489 0-40.031 32.451-72.496 72.496-72.496s72.496 32.465 72.496 72.496c0 40.038-32.452 72.489-72.496 72.489z"/><path fill="#00AEEF" d="M2114.196 2504.147c-32.038 0-57.99-25.958-57.99-57.991 0-32.023 25.952-57.998 57.99-57.998 32.033 0 57.998 25.973 57.998 57.998 0 32.033-25.965 57.991-57.998 57.991z"/><path fill="#FFF" d="M2114.196 2492.555c-25.626 0-46.397-20.78-46.397-46.399 0-25.626 20.771-46.394 46.397-46.394 25.619 0 46.406 20.768 46.406 46.394 0 25.619-20.787 46.399-46.406 46.399z"/><path fill="#00AEEF" d="M2114.196 2478.635c-17.932 0-32.481-14.543-32.481-32.479 0-17.933 14.552-32.477 32.481-32.477 17.928 0 32.483 14.544 32.483 32.477 0 17.936-14.556 32.479-32.483 32.479z"/></g></svg>